<svg id="word" xmlns="http://www.w3.org/2000/svg" viewBox="0 0 160 160"><defs><style>.cls-1{fill:#dbdcdd;}.cls-2{fill:#2b328c;stroke:#9d4b9c;}.cls-2,.cls-3{stroke-miterlimit:10;}.cls-3{fill:none;stroke:#fff;}.cls-4,.cls-5{fill:#fff;}.cls-5{opacity:0.1;}</style></defs><polygon class="cls-1" points="30.001 66.486 23.839 81.147 23.674 100.258 127.794 100.258 131.808 93.173 129.88 71.592 30.001 66.486"/><rect class="cls-2" x="30.001" y="66.486" width="101.808" height="26.687"/><rect class="cls-3" x="33.128" y="69.286" width="95.552" height="21.087" rx="3.734"/><circle class="cls-4" cx="31.639" cy="69.286" r="0.496"/><circle class="cls-4" cx="31.639" cy="91.309" r="0.496"/><circle class="cls-4" cx="129.88" cy="68.818" r="0.496"/><circle class="cls-4" cx="129.88" cy="90.841" r="0.496"/><path class="cls-5" d="M37.566,88.067a2.549,2.549,0,0,1-2.552-2.478c-.1-3.811-.19-10.786.522-11.855a5.522,5.522,0,0,1,4.778-2.142h77.6s-54.531,4.243-59.968,5.6c-7.907,1.977-6.754,10.873-6.754,10.873Z"/><path class="cls-4" d="M43.449,82.323a5.544,5.544,0,0,0,2.408.6c1,0,1.524-.413,1.524-1.04,0-.6-.456-.94-1.609-1.354-1.6-.556-2.636-1.439-2.636-2.835,0-1.638,1.368-2.892,3.633-2.892a5.87,5.87,0,0,1,2.45.485l-.484,1.752a4.568,4.568,0,0,0-2.009-.457c-.941,0-1.4.428-1.4.927,0,.613.541.883,1.78,1.354,1.7.626,2.494,1.509,2.494,2.863,0,1.61-1.24,2.978-3.875,2.978a6.292,6.292,0,0,1-2.722-.585Z"/><path class="cls-4" d="M53.113,80.527h.028c.157-.284.328-.57.5-.84l1.41-2.095h2.607l-2.492,2.821,2.849,4.146H55.35l-1.681-2.864-.556.684v2.18H50.947V74.444h2.166Z"/><path class="cls-4" d="M65.355,81a3.5,3.5,0,0,1-3.676,3.718,3.412,3.412,0,0,1-3.6-3.591,3.478,3.478,0,0,1,3.718-3.69A3.388,3.388,0,0,1,65.355,81Zm-5.043.071c0,1.2.5,2.093,1.424,2.093.841,0,1.382-.839,1.382-2.093,0-1.04-.4-2.094-1.382-2.094C60.7,78.975,60.312,80.043,60.312,81.069Z"/><path class="cls-4" d="M66.7,74.444h2.166V84.559H66.7Z"/><path class="cls-4" d="M74.579,84.559l-.128-.7h-.043a2.512,2.512,0,0,1-2,.855,2.136,2.136,0,0,1-2.251-2.137c0-1.81,1.624-2.679,4.089-2.665v-.1c0-.37-.2-.9-1.267-.9a3.908,3.908,0,0,0-1.924.527l-.4-1.4a5.757,5.757,0,0,1,2.707-.613c2.323,0,3.063,1.368,3.063,3.007v2.422a10.812,10.812,0,0,0,.1,1.695Zm-.256-3.291c-1.14-.014-2.023.256-2.023,1.1a.777.777,0,0,0,.854.825,1.183,1.183,0,0,0,1.126-.8,1.57,1.57,0,0,0,.043-.37Z"/><path class="cls-4" d="M78.131,82.665A4.244,4.244,0,0,0,80,83.191c.655,0,.926-.228.926-.584s-.213-.527-1.026-.8c-1.439-.485-1.994-1.268-1.98-2.095,0-1.3,1.111-2.28,2.835-2.28a4.683,4.683,0,0,1,1.966.4l-.384,1.5a3.409,3.409,0,0,0-1.511-.4c-.527,0-.826.213-.826.569,0,.329.271.5,1.125.8,1.325.456,1.881,1.126,1.895,2.151,0,1.3-1.026,2.252-3.02,2.252a4.93,4.93,0,0,1-2.251-.485Z"/><path class="cls-4" d="M89.448,75.655a1.088,1.088,0,0,1-1.169,1.083,1.091,1.091,0,1,1,.014-2.18A1.087,1.087,0,0,1,89.448,75.655Zm-2.238,8.9V77.592h2.166v6.967Z"/><path class="cls-4" d="M92.783,81.767c.072.9.955,1.325,1.967,1.325a6.113,6.113,0,0,0,1.923-.286l.285,1.468a6.873,6.873,0,0,1-2.522.428c-2.365,0-3.718-1.368-3.718-3.548a3.49,3.49,0,0,1,3.518-3.719c2.251,0,3.106,1.753,3.106,3.477a5.216,5.216,0,0,1-.071.855Zm2.551-1.481a1.258,1.258,0,0,0-1.226-1.411,1.421,1.421,0,0,0-1.339,1.411Z"/><path class="cls-4" d="M98.643,74.444h2.166V84.559H98.643Z"/><path class="cls-4" d="M106.524,84.559l-.129-.7h-.042a2.513,2.513,0,0,1-1.995.855,2.135,2.135,0,0,1-2.251-2.137c0-1.81,1.624-2.679,4.089-2.665v-.1c0-.37-.2-.9-1.268-.9a3.9,3.9,0,0,0-1.923.527l-.4-1.4a5.757,5.757,0,0,1,2.707-.613c2.322,0,3.063,1.368,3.063,3.007v2.422a10.831,10.831,0,0,0,.1,1.695Zm-.257-3.291c-1.14-.014-2.023.256-2.023,1.1a.777.777,0,0,0,.854.825,1.182,1.182,0,0,0,1.126-.8,1.519,1.519,0,0,0,.043-.37Z"/><path class="cls-4" d="M118.882,77.079h-3.591l-.2,1.425a4.074,4.074,0,0,1,.6-.028,4.233,4.233,0,0,1,2.436.669,2.635,2.635,0,0,1,1.126,2.323c0,1.723-1.482,3.248-3.975,3.248a5.891,5.891,0,0,1-2.578-.527l.384-1.624a5.313,5.313,0,0,0,2.095.456c.9,0,1.852-.428,1.852-1.411,0-.954-.756-1.539-2.608-1.539a7.994,7.994,0,0,0-1.254.086l.613-4.859h5.1Z"/></svg>