<svg id="word" xmlns="http://www.w3.org/2000/svg" viewBox="0 0 160 160"><defs><style>.cls-1{fill:#d5cbbc;}.cls-1,.cls-2,.cls-3,.cls-4,.cls-5,.cls-7{stroke:#9b4b9b;stroke-miterlimit:10;}.cls-2{fill:#fdefdd;}.cls-3{fill:#8b8473;}.cls-4,.cls-8{fill:#fcf1f5;}.cls-5{fill:#c08a87;}.cls-6{fill:#9b4b9b;}.cls-7{fill:none;}</style></defs><path class="cls-1" d="M125.51,38.034s4.6.706,6.582-.719,4.1-3.452,6.286-2.452,5.158,1.717,2.866,6.328-5.64,4.92-10.165,4.617a12.553,12.553,0,0,1-6.923-2.335l-2.818-5.642Z"/><path class="cls-2" d="M33.265,54.149S28,51.184,24.7,54.836s-4.084,7.487-5.531,9.327-4.85,2.648-3.917,5.42a3.531,3.531,0,0,0,5.15,2.1c1.64-.816,6.463-3.548,6.463-3.548l5.125-8.892Z"/><path class="cls-1" d="M110.658,122.557a50.584,50.584,0,0,1-3.163-4.92c-.787-1.621-1.669-9.631-1.669-9.631l-1.119-7.055-4.51,4.807.955,6.247a46.447,46.447,0,0,1,.649,5.86,5.325,5.325,0,0,0,.1,3.262,22.327,22.327,0,0,0,2.651,4.7s2.672-2.722,3.4-2.24S110.658,122.557,110.658,122.557Z"/><path class="cls-2" d="M103.762,92.388s3.747,3.565,4.019,5.354,2.029,4.845-.846,5.3-3.44.62-2.932,1.605-.742,2.244-1.074,2.376.974,2.564-1.748,2.409-2.915.393-3.7-.2-3.313-2.855-3.013-3.474,4.4-10.164,4.4-10.164Z"/><path class="cls-1" d="M55.8,100.762s-2.48,9.691-2.7,11.462-.658,5.644.656,5.968,2.045,2.5,2.045,2.5l-5.977,2.361-1.6-2.953a2.334,2.334,0,0,1-1.652.568c-1.013-.054-.657-.811,0-2.469s1.225-7.657.865-8.6,1.231-9.28,1.231-9.28.764-2.165,4.1-2.165,2.481,3.473,2.481,3.473Z"/><path class="cls-1" d="M41.227,103.543s-2.746,9.085-2.9,10.5A21.61,21.61,0,0,0,39,120.1a12.47,12.47,0,0,0,2.224,3.486l-6.632,3.5s1.2-2.238-.192-3.5-3.241-.935-2.176-2.753,1.026-6.169,1.061-6.46.469-12.743.469-12.743Z"/><path class="cls-3" d="M55.537,120.062s4.223,5.841,4.654,6.53-1.2-.388-1.936.492.4,1.2-.782,1.537-3.466,1.251-4.965-.5-3.456-6.5-3.456-6.5.495-1.414,2.782-1.531S55.537,120.062,55.537,120.062Z"/><path class="cls-3" d="M41.227,123.049s4.713,5.545,5.038,6.464.142,2.661-.783,2.348-1.532-.417-1.289.037.452,1.959-1.646,1.976-7-1.75-7-1.75l-.949-5.04S38.659,123.443,41.227,123.049Z"/><path class="cls-3" d="M117.8,130.96a17.8,17.8,0,0,0-3.167-4.978c-1.819-1.754-3.97-3.425-3.97-3.425s-2.881-.53-4.481.941a9.609,9.609,0,0,0-1.756,2.592s3.357,4.88,3.074,5.422,1.413,1.316,2.428,1.334a41.12,41.12,0,0,0,5.645-.531l-.528-2.574Z"/><path class="cls-1" d="M91.324,107.7s1.368,10.333,2.737,12.4,4.961,7.117,4.961,7.117-2.291,1.311-3.537,2.029-3.376,1.718-3.376,1.718-.952-.5-2.2-1.3-1.2-2.173-1.108-4.315a35.267,35.267,0,0,0-1.476-9.975c-1.024-3.13-2.781-8.786-2.781-8.786Z"/><path class="cls-3" d="M103.392,135.694a11.911,11.911,0,0,0-1.89-4.734,19.281,19.281,0,0,1-2.48-3.747s-4.956,2.8-5.589,3.106a16.149,16.149,0,0,1-1.648.641s.582,4.368,1.182,5.393,2.536,1.064,2.536,1.064h5.079a4.626,4.626,0,0,0-.385-1.477C99.886,135.35,103.392,135.694,103.392,135.694Z"/><path class="cls-1" d="M121.633,37.023s3.075,4.833,3.988,6.343a11.887,11.887,0,0,0,4.522,4.592c2.476,1.432,7.61,3.771,7.9,5.007a4.1,4.1,0,0,1-.5,3.227s1.274,3.005-1.2,3.631-1.5-.236-1.5-.236a10.688,10.688,0,0,1-3.481,2c-2.35.891-1.92,0-1.92,0s2.078,5.376,1,6.791-1.9,3.09-3.843,2.5-6.038-3.9-7.813-5.5-4.833-2.458-6.43-3.5-8.731-1.706-8.731-1.706-1.476-7.272-1.919-9.983,3.68-12.1,5.456-13.162S118.52,34.83,121.633,37.023Z"/><path class="cls-4" d="M116.358,51.607a2.025,2.025,0,0,1-2.433-.531c-.952-1.24-2.92-3.821-1.277-4.465s4.085,1.057,4.338,2.03S117.566,51.283,116.358,51.607Z"/><path class="cls-5" d="M128.81,61.594a26.469,26.469,0,0,1-4.654-2.518c-1.731-1.3-5.686-4.179-5.686-4.179s3.088,8.9,4.116,10.09,4.551,4.506,6.224,2.849C130.522,66.139,128.81,61.594,128.81,61.594Z"/><path class="cls-6" d="M137.545,56.192a2.392,2.392,0,0,1-1.171.729,5.846,5.846,0,0,1-1.37.265,8.992,8.992,0,0,1-1.383,0c-.267-.018-.455-.051-.686-.076s-.474-.1-.706-.159a8.146,8.146,0,0,1-1.315-.484A9.19,9.19,0,0,1,129.7,55.8,9.99,9.99,0,0,1,127.607,54l.047.037c-.441-.344-.882-.689-1.3-1.076.537.182,1.05.406,1.563.63l.047.036a20.81,20.81,0,0,0,2.2,1.374,14.128,14.128,0,0,0,2.335,1.008l.591.16c.208.042.456.1.632.13.426.063.852.136,1.28.168a8.878,8.878,0,0,0,1.284.026A2.982,2.982,0,0,0,137.545,56.192Z"/><path class="cls-4" d="M96.737,43.521c-3.875.092-7.958.136-11.353-1.734a6.182,6.182,0,0,0-1.468-.69,1.526,1.526,0,0,0-1.5.364,1.6,1.6,0,0,0,.259,2.049,5.41,5.41,0,0,0,3.1,1.277l3.5.633"/><path class="cls-7" d="M134.735,56.725a6.158,6.158,0,0,1-2.442,4.372"/><path class="cls-2" d="M120.643,32.929s4.381.724,3.968,3.095a7.9,7.9,0,0,1-1.145,3.3l-3.385-.583s1.389,2.7-.514,2.962-3.873-1.556-3.873-1.556-.069,1.419-1.1,1.717-3.243-.873-3.243-.873.886,2.284-.691,1.843a4.917,4.917,0,0,1-2.211-1.131s-.529,2-1.378,1.847,3.2,1.679,2.666,2.921-.219,2.261-2.783,1.891l-2.564-.37s3.852,4.707,2.774,6.159a3.506,3.506,0,0,1-2.774,1.376s3.266,2.084,2.774,2.743.212,2.567.212,2.567a29.541,29.541,0,0,1,4.669.262c.928.294,4.319,1.365,4.581,4.385.094,1.085-2.053,4.579-3.356,4.939a6.269,6.269,0,0,1-3.069-.248,3.981,3.981,0,0,1-1.6,2.378c-1.257.739-1.92,1.089-1.92,1.089s1.8.491.483,1.517a5.39,5.39,0,0,0-1.652,1.8,5.1,5.1,0,0,1,2.483,5.656c-.817,4.011-2.382,5.28-2.382,5.28s-1.307,1.226-.915,2.174.42,2.913-.308,3.164-.987,1.335-1.455,2.738.888,3.576-.781,3.868-3.2-1.57-3.114.369,2.069,2.315-.165,4.853-3.154,4.54-5.688,4.537-3.076.184-4.051-.366-2.173-1.239-2.173-1.239.517.749-1.324.318-4.355-3.906-4.355-3.906.114,2.681-2.2,3-6.322-1.994-6.322-1.994-2.537,2.152-3.856,1.176a23.047,23.047,0,0,0-2.319-1.527s-2.17,1.706-3.46.888a43.264,43.264,0,0,1-4.225-3.7s-.174,1.037-2.714.613a8.057,8.057,0,0,1-4.355-2.74,3.845,3.845,0,0,1-2.583,2.707c-2.079.539-3.023-.114-3.023-.114s-.845,1.858-2.431,1.934-1.563-1.192-1.563-1.192-1.79,1.967-3.46,1.973a2.741,2.741,0,0,1-2.364-1.175s-.377,1.37-2.707.5-1-2.494-1-2.494-3.6,2.066-5.74-1.494-2.833-3.917-3.17-6.817-2.248-5.45-2.152-5.884,1.642-1.52,1.642-1.52-1.04-2.393-.571-3.2a8.644,8.644,0,0,1,2.568-1.869s-2.622-.682-2.064-1.929-.913-1.78-.557-2.661-2.954-4.046.024-7.856S26.5,65,26.5,65s-2.507-.534-1.059-1.977a13.379,13.379,0,0,1,2.9-2.2s-.566-3.683.606-4.773a7.526,7.526,0,0,1,2.395-1.513s.567-5.633,4.85-8.062,12.477-1.456,12.477-1.456a5.686,5.686,0,0,1,3.274-1.98c2.265-.527,6.956.3,6.956.3a1.769,1.769,0,0,1,2.67-1.277c2.179,1.046,4.717,2.122,4.717,2.122a7.12,7.12,0,0,1,4.46-.363c2.793.538,2.6,3.945,7.792,3.34S86.011,47,85.89,45.892s.473-7.835,1.1-9.439,4.064-1.944,4.064-1.944-1.449-1.975-.59-3.312,3.041.141,3.041.141-2.1-2.026-.321-3.179,3.788.554,3.788.554,1.37-1.922,2.83-1.52a14.983,14.983,0,0,1,3.783,2.278s-.284-4.758,2.879-3.82a8,8,0,0,1,4.442,3.028,3.333,3.333,0,0,1,4.3-1.378C118.3,28.352,120.643,32.929,120.643,32.929Z"/><path class="cls-8" d="M57.705,81.175s4.342,4.758,2.32,7.9a6.7,6.7,0,0,1-4.781,3.31s2.335,1.874.5,3.758A31.657,31.657,0,0,1,53,98.741s-.482,1.562-1.166,1.38a3.941,3.941,0,0,0-1.433-.061"/><path class="cls-6" d="M57.705,81.175a11.6,11.6,0,0,1,1.248,1.38A11.8,11.8,0,0,1,60,84.113a6.461,6.461,0,0,1,.922,3.742,3.681,3.681,0,0,1-.281,1,4.975,4.975,0,0,1-.5.865,8.81,8.81,0,0,1-.595.779,8.563,8.563,0,0,1-.694.693A7.47,7.47,0,0,1,57.22,92.3a6.032,6.032,0,0,1-.926.368,4.867,4.867,0,0,1-1.02.209l.276-.868a3.952,3.952,0,0,1,.417.408,4.637,4.637,0,0,1,.352.444,3.243,3.243,0,0,1,.5,1.06,2.422,2.422,0,0,1,.005,1.231,2.658,2.658,0,0,1-.567,1.053c-.273.3-.5.489-.759.733l-.759.686c-.514.452-1.022.894-1.585,1.314l.084-.122a4.576,4.576,0,0,1-.4.8,1.444,1.444,0,0,1-.7.636.847.847,0,0,1-.486-.053,2.877,2.877,0,0,0-.4-.083,4.437,4.437,0,0,0-.841-.054,4.036,4.036,0,0,1,.852-.114,3.28,3.28,0,0,1,.439.023.642.642,0,0,0,.346.006,1.172,1.172,0,0,0,.454-.555,4.226,4.226,0,0,0,.271-.752l.016-.061.068-.062c.487-.435.965-.921,1.427-1.4l.688-.736c.215-.24.48-.514.643-.732a1.6,1.6,0,0,0,.317-1.507,2.653,2.653,0,0,0-.39-.753,3.551,3.551,0,0,0-.282-.346,3.407,3.407,0,0,0-.311-.3l-.905-.739,1.181-.129A4.046,4.046,0,0,0,56,91.721a5.982,5.982,0,0,0,.785-.32,6.494,6.494,0,0,0,1.429-.941,7.5,7.5,0,0,0,.62-.6,7.867,7.867,0,0,0,.554-.665,4.068,4.068,0,0,0,.459-.706,3.026,3.026,0,0,0,.255-.764,5.813,5.813,0,0,0-.571-3.377A16.7,16.7,0,0,0,57.705,81.175Z"/><path class="cls-8" d="M76.816,88.759s-1.447,4.157-.649,6.136a9.416,9.416,0,0,0,1.676,2.877s-1.647-.006-.524,1.743a5.158,5.158,0,0,0,2.085,2.111s.343,1.434.853,1.731,1.883,1,1.883,1"/><path class="cls-6" d="M76.816,88.759a20.583,20.583,0,0,0-.5,2.344,11.475,11.475,0,0,0-.136,2.354c0,.194.045.38.064.569a3.5,3.5,0,0,0,.144.531,4.154,4.154,0,0,0,.227.519l.271.514a11.028,11.028,0,0,0,.613.983q.165.236.344.455a4.509,4.509,0,0,0,.357.394h0l1.3,1.016-1.657-.167a.922.922,0,0,0-.206.015.573.573,0,0,0-.167.054c-.076.04-.093.05-.108.18a1.269,1.269,0,0,0,.121.487,5.14,5.14,0,0,0,.3.554,7.5,7.5,0,0,0,.757,1.05,4.991,4.991,0,0,0,.451.457,2.73,2.73,0,0,0,.491.356l.116.061.018.09a6.35,6.35,0,0,0,.262.956,2.617,2.617,0,0,0,.2.443,1.086,1.086,0,0,0,.132.188.572.572,0,0,0,.173.139l1.758,1.05-1.861-.861a.817.817,0,0,1-.241-.157,1.268,1.268,0,0,1-.186-.211,2.942,2.942,0,0,1-.273-.463,6.812,6.812,0,0,1-.384-.983l.133.151a2.972,2.972,0,0,1-.65-.365,5.452,5.452,0,0,1-.55-.451,8.249,8.249,0,0,1-.942-1.052,5.983,5.983,0,0,1-.408-.6,2.077,2.077,0,0,1-.275-.8,1.163,1.163,0,0,1,.075-.536,1.081,1.081,0,0,1,.359-.45,1.468,1.468,0,0,1,.446-.223,1.89,1.89,0,0,1,.462-.083l-.36.85,0,0a5.256,5.256,0,0,1-.4-.539q-.176-.267-.328-.541a11.8,11.8,0,0,1-.546-1.12l-.231-.576a5.052,5.052,0,0,1-.192-.606,4.16,4.16,0,0,1-.1-.642c0-.211-.021-.423-.005-.63a11.847,11.847,0,0,1,.39-2.412A20.8,20.8,0,0,1,76.816,88.759Z"/><path class="cls-1" d="M98.242,41.042s2.119-.334,1.528,1.91-1.58,2.625-2.981,3.659-5.79,1.243-9.03.869S79.6,44.048,78.073,41.3s-2.038-5.331.637-5.531,6.168,1.415,8.245,2.514a19.148,19.148,0,0,0,5.707,2.192C94.4,40.745,98.242,41.042,98.242,41.042Z"/><path class="cls-6" d="M85.583,43.979a20.705,20.705,0,0,1-3.912-2.551.908.908,0,0,1-.1-.877,1.064,1.064,0,0,1,.847-.471,16.151,16.151,0,0,1,3.95,1.02,19.634,19.634,0,0,0,9.158,2.054,8.606,8.606,0,0,0,1.289-.209l.038-.336a2.522,2.522,0,0,0-.786-.239,17.641,17.641,0,0,1-8.51-1.351,32.433,32.433,0,0,0-5.049-1.74c-1.263-.351-2,.222-1.989,1.388a1.658,1.658,0,0,0,.459,1.016,11.188,11.188,0,0,0,7.99,3.424c.241.009.48.056.72.075s.48.025.72.037l.015-.089A29.564,29.564,0,0,1,85.583,43.979Z"/><path class="cls-6" d="M89.011,80.357c.244.3.45.562.664.817a2.565,2.565,0,0,0,2.383,1.063,2.452,2.452,0,0,0,1.9-2.1,1.6,1.6,0,0,0,.047-.632,3.206,3.206,0,0,0-.258-.645,3.562,3.562,0,0,0-.461.56,9.609,9.609,0,0,1-.806,1.6,1.213,1.213,0,0,1-1.922.053,11.579,11.579,0,0,1-1.238-1.457c-.367-.5-.66-.444-.974.02a2.64,2.64,0,0,0-.126.242c-.692,1.274-1.288,1.679-2.2,1.5a2.867,2.867,0,0,1-2.339-2.419c-.034-.2-.239-.367-.365-.549-.157.156-.408.288-.456.472a1.978,1.978,0,0,1-1.589,1.669,2.09,2.09,0,0,1-2.2-1.17c-.58-.951-1.017-1.989-1.5-3-.155-.32-.269-.66-.485-1.2-.119.348-.244.519-.2.628a18.879,18.879,0,0,0,1.458,3.7c1.292,2.028,2.8,2.2,4.737.929a18.815,18.815,0,0,0,3.145,1.628C87.594,82.487,88.379,81.452,89.011,80.357Z"/><path class="cls-6" d="M52.169,70.823c-.507.473-1,.957-1.524,1.417a2.742,2.742,0,0,1-3.875.3,3.8,3.8,0,0,1-1.9-2.24c-.035-.156-.337-.253-.515-.377-.093.136-.241.261-.269.409-.277,1.453-.855,2.043-1.98,1.989a2.9,2.9,0,0,1-2.582-2.326A4.661,4.661,0,0,1,39.606,67c.091-.187-.046-.486-.165-.746-.623,1.058-.647,2.536-2.108,2.889-1.422.343-2.33-.554-3.183-1.6.1,1.8,2.232,2.647,4.441,1.859.849,3.868,4.262,4.742,6.231,2.351,2.5,2.328,4.051,2.8,5.63,1.628a5.185,5.185,0,0,0,2.1-2.306Z"/><path class="cls-6" d="M58.963,53.765c-1.726-1.307-3.794-1.507-4.733.347-2.353-.635-4.3-.193-4.976,1.131a2.354,2.354,0,0,0,.781,2.905,7.541,7.541,0,0,0-.008-1.07c-.219-1.356-.075-1.714.971-2.256a2.481,2.481,0,0,1,2.936.347c.228.228.467.443.854.808.1-1.295.262-2.6,1.748-2.339a11.749,11.749,0,0,1,2.915,1.419,1.333,1.333,0,0,1,.2-.5c.258-.34.527-.8.885-.912,1.076-.349,2.712,1.111,2.641,2.243a3.17,3.17,0,0,0,.193.82,1.576,1.576,0,0,0-.088-2.549C61.532,52.445,60.37,52.325,58.963,53.765Z"/><path class="cls-6" d="M93.93,66c.616.841,1.162,1.491,1.6,2.207a2.316,2.316,0,0,1-1.8,3.587c-1.1.1-2.214.122-2.734-1.193a.489.489,0,0,0-.43-.206.6.6,0,0,0-.32.374c-.072.227-.021.494-.1.716a2.936,2.936,0,0,1-2.6,1.962,3.772,3.772,0,0,1-2.656-2.74A2.446,2.446,0,0,1,85.013,70c.175-.771-.036-.973-.911-.86-.006,2.614,1.142,4.427,3.158,4.988,1.392.387,2.591-.3,3.757-2.225,1.822.989,3.655,1.108,5.139-.576a2.457,2.457,0,0,0,.183-3.005C95.772,67.434,95.543,66.085,93.93,66Z"/><path class="cls-6" d="M41.369,53.665a7.744,7.744,0,0,0-.775-.321c-2.142-.668-3.124-.006-3.435,1.817-.081.473-.088.959-.126,1.439-.018.237-.03.475-.045.712.2,0,.487.079.593-.023a1.392,1.392,0,0,0,.4-.74c.061-.406-.064-.842.007-1.245a1.516,1.516,0,0,1,2.16-1.359,19.621,19.621,0,0,1,1.822.8,2.633,2.633,0,0,0,.745.068,3.746,3.746,0,0,0-.127-.691c-.248-.655-.581-1.3-.114-1.988a1.9,1.9,0,0,1,1.951-.591l-.409,2.016.228.181c1.435-2.387,2.946-4.631,6.261-3.47a2.329,2.329,0,0,0-3.33-.819c-.534.28-.995.7-1.532.977a2.379,2.379,0,0,1-1.142.277c-1-.043-2.039-.074-2.6.886A7.779,7.779,0,0,0,41.369,53.665Z"/><path class="cls-6" d="M47.724,85.929A15.446,15.446,0,0,0,50.486,87,1.821,1.821,0,0,0,52.6,85.453a10.189,10.189,0,0,0,.119-2.529c-.024-.352-.395-.682-.608-1.022l-.211.125c.068.7.187,1.405.193,2.108.007.955-.213,1.894-1.253,2.2s-1.765-.4-2.453-1.056c-.239-.227-.447-.487-.8-.87a4.494,4.494,0,0,0-.55.965,3.052,3.052,0,0,1-4.384,1.991c-.186-.078-.379-.141-.609-.226.235.745,1.013,1.15,2.27,1.241C45.875,88.494,46.87,87.743,47.724,85.929Z"/><path class="cls-6" d="M80.352,87.269a6.709,6.709,0,0,0,3.425,2.906,2.265,2.265,0,0,0,2.327-.7c.242-.228.5-.441.575-.508,1.187.626,2.325,1.28,3.511,1.834.946.442,1.56-.205,2.053-.883a1.848,1.848,0,0,0,.191-2.267c-.176.516-.293.87-.417,1.222a1.572,1.572,0,0,1-2.256,1.158,16.459,16.459,0,0,1-2.225-1.184.623.623,0,0,1-.3-.97c.1-.18,0-.462,0-.7a3.969,3.969,0,0,0-.632.393,17.7,17.7,0,0,1-1.693,1.58c-.846.584-1.863.34-2.783-.558-.525-.513-1-1.08-1.494-1.623Z"/><path class="cls-6" d="M72.115,58.031c.731.373,1.449.772,2.172,1.159l.219-.338L72.32,57.375c2.549-1.868,5.03-2.356,6.643-.754-.042-.221-.017-.493-.138-.656a2.731,2.731,0,0,0-2.543-.913,8.154,8.154,0,0,0-4.242,1.734,1.313,1.313,0,0,1-.832.228c-1.07-.13-1.651.594-2.142,1.294a2.234,2.234,0,0,0-.426,2.336c.542-.833.972-1.55,1.458-2.226"/><path class="cls-6" d="M88.3,95.877c.553,1.38,2.956,2.776,4.218,2.566A3.527,3.527,0,0,0,94.8,94.622c-.048-.139-.232-.231-.46-.445a4.006,4.006,0,0,1-1.431,3.012,1.785,1.785,0,0,1-2.258.162c-.667-.4-1.269-.9-1.907-1.349A1.808,1.808,0,0,0,88.3,95.877Z"/><path class="cls-6" d="M35.965,88.662a3.876,3.876,0,0,0,5.052-.311c1.029-1.184,1.274-3.12.518-4.031a19.459,19.459,0,0,1-1.544,3.723C39.047,89.456,37.423,88.649,35.965,88.662Z"/><path class="cls-6" d="M45.034,94.187c-.268.532-.421.884-.616,1.213-.426.718-1.042,1.079-1.833.648-1.2-.654-2.356-1.386-3.529-2.084.03.087.042.283.146.386a7.609,7.609,0,0,0,3.962,2.468C44.454,97.047,45.5,95.749,45.034,94.187Z"/><path class="cls-6" d="M97.428,85.039c-.244,2.012-.876,2.377-3.813,2.3a2.928,2.928,0,0,0,3.5.151A1.613,1.613,0,0,0,97.428,85.039Z"/><path class="cls-6" d="M99.246,67.79c1.681.28,2.758-.768,2.388-2.131-.229-.847-.443-1.757-1.515-2.164C100.741,65.1,102.366,66.854,99.246,67.79Z"/><path class="cls-6" d="M32.023,83.328a2.541,2.541,0,0,0,2.648.961,1.639,1.639,0,0,0,1.22-1.706c0-.191-.2-.378-.3-.566-.142.081-.352.127-.416.249C34.241,84.034,33.854,84.188,32.023,83.328Z"/><path class="cls-6" d="M60.455,67.058c.779.976.2,1.712-.555,2.435a1.369,1.369,0,0,0,1.422-1.235c.137-.891-.2-1.836-.766-1.933a1.266,1.266,0,0,0-.786.278c-.062.041,0,.441.121.538C59.988,67.22,60.253,67.1,60.455,67.058Z"/><path class="cls-6" d="M98.483,71.748c1.422,1.709,1.422,1.709-.542,3.418l.1.232a10.483,10.483,0,0,0,1.4-.638,1.428,1.428,0,0,0,.636-1.649C99.916,72.383,99.535,72.031,98.483,71.748Z"/><path class="cls-6" d="M97.8,80.921a4.625,4.625,0,0,0,3.343-.119c.761-.435.733-.882.046-1.484C100.683,81.222,98.9,80.255,97.8,80.921Z"/><path class="cls-6" d="M38.558,77.89a3.418,3.418,0,0,0,3.729.713c.169-.12.2-.43.3-.652-.185-.04-.425-.175-.545-.1a3.6,3.6,0,0,1-3.224,0C38.747,77.826,38.654,77.873,38.558,77.89Z"/><path class="cls-6" d="M50.7,66.041a2.848,2.848,0,0,0,3.07-.956,1.339,1.339,0,0,0,.081-1.125c-.276-.49-.762-.858-1.337-.556.308.287.878.614.838.822a1.907,1.907,0,0,1-.789,1.152A9.235,9.235,0,0,1,50.7,66.041Z"/><path class="cls-6" d="M96.218,75.127a1.95,1.95,0,0,1-1.3,2.483c.8.4,1.455.1,1.931-.789C97.22,76.141,97.049,75.556,96.218,75.127Z"/><path class="cls-6" d="M98.427,83.209a3.485,3.485,0,0,0,3.56.324c.455-.171.7-.486.285-.963A4.449,4.449,0,0,1,98.427,83.209Z"/><path class="cls-6" d="M48.221,78.935a2.25,2.25,0,0,0,2.771-.131c.325-.421.715-.895-.03-1.424A2.316,2.316,0,0,1,48.221,78.935Z"/><path class="cls-6" d="M90.6,60.946a2.485,2.485,0,0,1-2.225,2.117,2.091,2.091,0,0,0,2.52-.831C91.267,61.67,91.218,61.366,90.6,60.946Z"/><path class="cls-6" d="M60.9,77.11a1.909,1.909,0,0,0,2.456-.426,1.019,1.019,0,0,0-.212-1.678A1.966,1.966,0,0,1,60.9,77.11Z"/><path class="cls-6" d="M95.057,83.868a1.657,1.657,0,0,0,2.2.481c.6-.457.377-.965.065-1.553C97,83.832,97.019,84.058,95.057,83.868Z"/><path class="cls-6" d="M116.337,50.039a1.248,1.248,0,0,1-1.532-.346c-.6-.8-1.84-2.482-.805-2.9a2.548,2.548,0,0,1,2.733,1.318C116.892,48.744,117.1,49.828,116.337,50.039Z"/></svg>