<svg id="word" xmlns="http://www.w3.org/2000/svg" viewBox="0 0 160 160"><defs><style>.cls-1{fill:#e2c8a8;}.cls-1,.cls-10,.cls-11,.cls-13,.cls-14,.cls-15,.cls-2{stroke:#9d4b9c;stroke-width:0.38px;}.cls-2{fill:#ba9d7f;}.cls-3{fill:#4a5495;}.cls-4{fill:#067153;}.cls-5{fill:#6f7b47;}.cls-6{fill:#2a5e2f;}.cls-7{fill:#554841;}.cls-8{fill:#22371b;}.cls-9{fill:#004c35;}.cls-10{fill:#e1bc97;}.cls-11{fill:#7b4298;}.cls-12{fill:#683380;}.cls-13{fill:#8b60a6;}.cls-14{fill:#8c59a2;}.cls-15{fill:#dcbf84;}</style></defs><polygon class="cls-1" points="38.571 103.848 29.899 109.681 128.605 109.681 124.779 103.432 38.571 103.848"/><rect class="cls-2" x="29.628" y="109.665" width="98.833" height="2.423"/><rect class="cls-3" x="41.88" y="22.759" width="71.986" height="77.471"/><path class="cls-4" d="M65.107,62.957c-.05-.3-.405-.355-.405.3a9.929,9.929,0,0,1-.2,1.619s-1.012-.556-.557.1-.354.758,0,1.012-.91.3-.5.505-.557.253-.152.506,1.315.3.607.506-1.467-.1-1.063.2a1.312,1.312,0,0,1,.608.911c0,.252-1.063.151-.709.556s-.456.354.051.81.759.657.3.86-1.569-.1-1.114.405-.2.354.051.708.506.455.4.759-1.112-.152-.859.354.454.506.252.759a.711.711,0,0,1-.607.3c-.2,0-.607.355-.354-.253s.354-1.365-.05-1.467-1.569.051-.81-.506.253-.759.354-1.113.456-.2,0-.556a1.757,1.757,0,0,1-.607-1.316,2.443,2.443,0,0,0-.051-.607,8.209,8.209,0,0,1-.2-1.062c-.051-.608-.2-.911-.405-.81s-.455.506-.5,1.416-1.038,12.195-1.038,12.195l1.24.05,7.994.1,6.071-.1h3.845l-1.922-7.438s.152-1.416-.455-1.872-1.467-.506-1.063-.607,1.519-.708.962-.86a10.338,10.338,0,0,1-1.468-.456c.3.051,1.063-.454.709-.708a3.534,3.534,0,0,1-.709-.809l.709-.253s-.911,0-.81-.405.253-.556.051-.81-.507.2-.557-.506-.151-2.276-.354-1.771a11.973,11.973,0,0,0-.3,2.176s-.709.4-.405.607.759.506.253.759-.861-.1-.507.253-.96.709-.4,1.012-.354.253,0,.506,1.113.1.354.253-1.366-.3-.759.152.708.506.354.81-.556.657-.657.2a10.807,10.807,0,0,0-.253-1.164c-.1-.253-.962-.3-.3-.455s.506-.456.253-.759-.1-1.518-.1-1.518-.405-1.062-.456-.4.2,1.012-.152,1.467-.809.2-.354.456.355.456.1.658-.86.1-.506.354-.051.607-.051.607.708-.2-.1.607l-.81.809s-.961-1.214-.556-1.872.4-2.378.05-2.378-.96.456-.758.051.657-.253.4-.506a1.972,1.972,0,0,1-.3-.962.711.711,0,0,1-.3-.252,1.606,1.606,0,0,1-.2-.608Z"/><path class="cls-5" d="M45.17,78.744s20.037-2.327,29.751-1.618,20.947.1,26.614,1.112,10.22,1.367,10.22,1.367,5.054,23.367-2.231,23.367-68.558-.458-68.558-.458S43.449,78.947,45.17,78.744Z"/><path class="cls-6" d="M62.39,81.4s-.438-.558.875-.908,1.385-.418.8-1.117-.875-2.862-.073-2.583,1.094.977,1.678.209,1.093-1.256,1.385-.628.875.419.511,1.047-.365,1.816-.073,1.955-.146.21.436-.558.657-2.095,1.313-1.816,3.136-.907,2.843.768.657,2.025-.073,2.793.73,1.117-.364,1.606-1.094.7-1.749.209-.511-1.116-.949.071.875,1.187-.437,1.187-1.166-.071-1.386-.419.146.07-1.02-.07-.437-.071-1.166-.14-.292-.07-.292.629-.438.628-.438.628-1.166.279-.947,1.117.874,1.536.947.838.73-2.094.949-1.606.145.838.655.629,1.021-1.955,1.458-1.467a16.164,16.164,0,0,0,1.386,1.257s-.73-.209.51,0,1.6.838,1.531,1.187,1.75,1.047,1.021,2.723-.438,4.119-1.021,4.19,1.969.418-.583.977-3.426,0-3.062,1.047,2.553,1.231.218,2.165c-2.178.871.079,1.158-.5,1.158s-3.943.1-3.943.1a37.41,37.41,0,0,1-4.713.094c-1.422-.813-.754-2.607-.609-3.235a26.446,26.446,0,0,1,.583-2.933c.219-.419,1.385-.559,1.021-1.536s-.146-1.326.291-1.536.8-2.095.145-2.025-1.092.628-1.384.209-2.26-.419-2.844-.209-.583-.908-.947-.977.291,1.256-.511.767a7.278,7.278,0,0,1-1.24-.767c-.291-.28-.728-1.955-1.093-1.4s-.364.489-.8.558-.146,1.536-.947,1.187-1.532.629-1.97-.209-.875-.07-1.093-.768,1.6-1.257.73-1.745-1.678-.419-1.824-.838-1.6-.629-1.166-.908-.51-.768-.51-1.188.583-.627.364-1.116-.583-2.374.438-2.025,2.26,1.466,1.749.838-.875-1.187-.219-1.4,1.24-.209,1.021-.279.147-1.047.51-1.117-1.676-.489-1.749-.768,1.093-1.467.8-1.676S45.4,72.25,45.913,71.97s.509-1.675,1.238-1.815a3.35,3.35,0,0,1,1.532.139c.438.071,1.02-.348,1.385.071s.291,1.4.947,1.256.075-1.047.8-1.256,1.968-.908,2.113-.419.584,1.256.876,1.256-.073.349.219.7,2.115-.07,2.041-.628,2.042-2.444,2.406-2.444.8.907.729,1.4,2.042.558,1.677.977a1.6,1.6,0,0,0-.364,1.257c.073.209.656.349.364.559s.8-1.4,1.167-1.4,1.823-.07,1.459.768,1.968,1.676,1.457,1.955-.364.7-1.02.908-1.167.209-1.095.419-.291.349-.582.559-.875.7-.875.7.583.349-.146.907-2.552.349-1.9.978a2.41,2.41,0,0,0,1.239.7Z"/><path class="cls-7" d="M54,98.379l-.434-6.37A11.75,11.75,0,0,0,54.661,90.4c.51-.908,2.625-2.584,2.844-4.259s-1.022,1.675-1.9,2.3a9.61,9.61,0,0,0-1.822,2.1,10.079,10.079,0,0,1-.365-4.05,48.647,48.647,0,0,0,1.094-4.817c.146-1.4.511-.838,1.24-2.305a6.025,6.025,0,0,0,.728-1.815s-.8,1.885-1.6,1.885-.8-.559-.8-1.187-.219-3.491-.219-3.491-.729,3.421-.365,4.469a2.524,2.524,0,0,1,.22,2.025c-.22.977-.657,3.91-.657,3.91a3.37,3.37,0,0,1-.729-1.467,24.466,24.466,0,0,1-.729-2.653c-.146-.907-.292-2.932-.292-2.932s-.51,2.653-.218,3.281a3.09,3.09,0,0,1,.218,1.4s-.874,0-1.093-.42a9.767,9.767,0,0,0-1.093-1.326s.218,1.536.728,1.886a6.842,6.842,0,0,0,1.677.628l.874,2.374a8.361,8.361,0,0,0,.074,2.653,22.6,22.6,0,0,1,.438,3.771,3.73,3.73,0,0,0-1.9-2.584,6.249,6.249,0,0,0-2.624-.908s1.021.629,1.968,1.187,1.532,2.514,1.532,2.514l1.154,5.811Z"/><path class="cls-8" d="M89.667,82.521s-4.425-3.07-2.588-2.979,5.009.451,6.762,0,2.672-.091,3.59-1.174,3.256-2.257,2-1.9-5.426,1.264-4.34.09,1.669-1.355-.668-1.355-2.672-.722-.752-1.173,4.258-1.174,5.26-2.348-.5-.993-1-.9-.835-.18.585-1.264,2.253-2.257-.919-1.083-5.009,2.257-4.759,1.445,2.755-1.535,1.336-1.355-5.476-.147-3.3-.509,1.786.079,3.873-1,5.021-1.2.768-1.2c-2.34,0-4.926-1.9-3.84-1.625a26.31,26.31,0,0,0,5.259.27c.919-.09,1.587.362,2.254-.722s4.174-1.986,1.253-1.9-4.592.271-3.09-.271a6.209,6.209,0,0,0,3.09-2.528c.166-.541-1-.181-2.588-.09s-3.173-.361-2.672-.632-2.17-.542-.751-.723,3.172-.361,3.673-.812-4.341-.723-4.341-.723a36.066,36.066,0,0,1,3.84-.812,6.312,6.312,0,0,0,2.839-.993.809.809,0,0,0-.418-1.355c-.668-.09-.585.091.5-.632s1.754-1.444,1.169-1.534-3.757.18-4.007-.181,2.087-.361,3.088-.9.418-1.444-.167-1.625.418,0,.919-.993.167-1.445-.417-1.355-1.837-.09-.835-.361,2-2.167,2-2.167-1.086.271-.836-.18a16.085,16.085,0,0,1,1.169-1.535,14.369,14.369,0,0,1,0-1.986c.083-.813.5-1.716.751-2.89s-.166-2.979.5-2.8.083,3.25.166,3.883a23.711,23.711,0,0,0,.668,2.618c.168.542-.751.9-.584,1.354a6.262,6.262,0,0,0,1.753,2.258c.585.27-1.336-.181-.751.27a15.515,15.515,0,0,0,2.254,1.806c.417.09-2.5.632-1.92,1.084s.668,1.354,1.586,1.625,2.422.271,1.419.632-2.588-.361-2.253.451,1.168,1.626,1.168,1.9-1.336.723-.752,1.174a3.306,3.306,0,0,0,2.923,1.174c2.087,0,2.838.542,1.753.9s-4.592.271-3.84.632,2.337.993,1.586,1.083-3.506-.542-2.338.271a8.366,8.366,0,0,0,4.091.9,3.709,3.709,0,0,1-2,.993c-1.253.271-2.756-.361-1.921.452s-2.171,1.534-.751,1.9,2.838,1.354,4.842.993,3.173-.632,2.087.361-2.588,1.174-2.838,1.716-.835.632.25,1.083,2.255-.09,3.674-.09,1.085.812-.335,1.444a18.777,18.777,0,0,1-3.84.993s-2.5.542-1,1.084,2.922-.181,1.5.542-4.257.09-2.755.9a11.477,11.477,0,0,0,4.091.9s-2,1.445-3.256,1.174-1.837.181-.5,1.083a6.605,6.605,0,0,0,3.924,1.174c1.336,0,4.341-.361,2.922.271s-1.169,2.258-2.588,2.077a9.432,9.432,0,0,0-2.838-.181c-1.671.091-1.921.091-.836.723a8.629,8.629,0,0,0,2.672.993c.5.09,4.174-.271,4.174-.271s-4.675,2.077-3.089,2.167,3.591.271,3.924.271,1-.091,1-.091,1.753.362.752.994-2.338.632-1.5.9-.919,0,.835.271,2.5.9,1.92.9-3.006.722-.835.9,3.757-.271.417.361-3.84.813-3.089,1.174,1.92.271-1.085-.361-3.423-1.535-3.006-.632-.083,2.347,2,2.8,5.009.812,3.757,1.444-9.1.362-6.512,1.174a26.141,26.141,0,0,0,5.928,1.354c1.92.181,5.176.813,3.422,1.445a10.541,10.541,0,0,1-5.176.722c-2.254-.18-2.671.994-1.5,1.355s6.094,1.9,5.009,1.9-6.429-1.9-4.508-.181,3.924,4.424,5.176,4.424a14.2,14.2,0,0,0,2.254-.18s-5.844,1.354-8.265.812a49.674,49.674,0,0,0-7.848-1.354c-2.839-.18-5.344-.542-8.349.09s-8.014.994-6.846.091,1.67-2.528.919-1.987-1.086.994-3.089.632S87,98.5,88.415,98.051s-1.754-.181-3.256-.181-3.924.452-.668-.632,1.92-1.535.167-1.535-4.843.362-1.754,0,4.675-.542,5.511-.9a.95.95,0,0,0,.083-1.806c-.919-.451.835.271,3.506-.9a19.6,19.6,0,0,0,4.676-2.98,2.585,2.585,0,0,0-1.921-.09c-1.085.361-1.586.271-.918-.452s-1.169-.09-1.837.271S89,90.918,90,89.383s3.256-3.611.918-2.979-4.759,1.805-3.84.722,1-1.354.167-1.264-2.421.9-3.59,1.174.167-1.626.918-1.9-2.254-.723-2.839-1.626,5.594-.993,6.847-.9l1.252.091,3.59.812"/><path class="cls-9" d="M93.443,74.377c.114,0,.8-1.024.494-1.063s-1.708-.531-1.442-.606-.418-.342-.114-.38.493-.228.645-.152.151-.683.228-.569.607-.076.607-.228-.38-.266-.759-.227-1.632-.076-1.29-.3a6.146,6.146,0,0,1,.759-.417.39.39,0,0,0,.3-.215c.1-.2.253-.431.026-.456s-.962,0-1.037-.025-.3-.38-.026-.354.228-.253.329-.253.455.076.43-.1-.253-.152-.379-.228-.784-.228-.784-.3.3-.153.4-.178.278-.3.026-.3a1.114,1.114,0,0,1-.481-.127,2.131,2.131,0,0,1,.4-.177c.077,0,.051-.379-.05-.379s-.329-.329-.38-.532.025-.961-.025-1.037-.253-.961-.38-.557a9.029,9.029,0,0,0-.176,1.19,3.143,3.143,0,0,1-.228.607s-.278.152-.253.228-.3.2-.152.278.582.253.43.253-.759.3-.632.379-.051.177.126.228.683.075.38.253-.683.379-.683.379-.759.2-.279.456.557.025.481.253-.531.2-.354.405.278.531,0,.581-1.113.279-.759.026.4-.683.2-.785-.581-.176-.581-.3a2.551,2.551,0,0,1,.353-.607s.077-.583-.2-.709-.708-.328-.734-.582-.227-1.163-.227-1.391-.3-.253-.279.43.127,1.442-.1,1.594a10.149,10.149,0,0,0-1.037.784c-.2.2-.38.532-.1.557s.961-.127.556.1-.43.126-.4.228-.253.556-.253.556-.405-.177-.405.076-.456.3-.43.38-.456-.076-.026.253,1.012.556.608.657-1.467-.4-.962.1.962.657.81.733a4.5,4.5,0,0,1-.961.051l-1.038-.228s.658.05.506-.278-.657-.152-.379-.456.177-.505.051-.657a.824.824,0,0,1-.33-.607c-.025-.38-.075-2.5-.227-1.468a17.686,17.686,0,0,0-.152,1.822c-.025.177-.38.05-.278.329s-.05.2-.05.429.277.355.075.507-.456,0-.177.253-.506.177-.177.43.3.657,0,.708a3.632,3.632,0,0,1-1.038-.025c-.379-.051-.986-.329-.606-.405s.657-.3.278-.557a5.661,5.661,0,0,1-.835-.759s.708.228.531-.2-.809-1.062-.809-1.265.025-.758.025-1.163-.355-2.531-.43-1.62-.253,2.4-.329,2.732a9.811,9.811,0,0,0-.051,1.392s-.379.051-.252.3-1.24.379-.38.632.2.607.557.759-.329.556-.329.556-1.189,3.062-.658,3.062S80.2,77.1,80.2,77.1s-3.72,1.265-2.682,1.518.709.177,3.036.177,5.312.2,7.437.43,6.679.177,6.679.177,1.012-.051.456-1.341S93.443,74.377,93.443,74.377Z"/><path class="cls-4" d="M95.478,76.411s-.729-1.935-1.033-1.859-.253.379-.455.05-.91-.609-1.113-.432-.1.759-.1.759-.758-.456-.961-.052-.734.505-.608.632-.657-.2-.658.176-.784.4-.557.733.226.911-.179.632-.681-.987-.984-1.038-.582-.785-.683-.785.659-.632-.657-.431S86.2,74.288,86,74.389s-.683-.634-.961,0-.633.3-.356.758-.5.228-.228.633.379.278,0,.581-.531-.026-.379.3-.279.405-.178.557-.659.5-.734.429-.785.024-.659.353-.329.126-.657-.077-.505-.734-.809-.734-1.112-.709-1.239-.735-.151-.077-.658.277A21.83,21.83,0,0,0,77,78.682c-.143.382.438.25,1.754.378s4.326.006,5.667.007,6.29.389,7.327.39,1.894.038,1.894.038l2.391-.239Z"/><path class="cls-10" d="M38.6,21.664v82.27h80.556V21.664Zm29.94,5.353V44.578h-24.7V27.017Zm-24.7,21.005h24.7V98.581h-24.7Zm70.074,50.559H71.983V27.017h41.932Z"/><path class="cls-11" d="M132.376,75.891l-.685-60.559-33.251.343.114.457.457.114s-1.028,13.826,2.857,25.823,6.4,17.369,9.941,21.482a49.573,49.573,0,0,1,6.056,9.255l-.572,4c.4,7.393-7.511,20.617-9.51,26.811s-5.794,15.184-5.595,27.973-1.4,18.782-1.4,18.782a5.012,5.012,0,0,1,3.2.4c2,.8,3.6,3.8,6.195,2s.8-3,3.4-2.8,3.8-.6,7.394.6,4.8-1,3.6-1.4,3.8-1.2,8.392-1.2-1.4,1.2.4-7.793,2.2-51.352-.6-61.342"/><path class="cls-12" d="M118.073,86.032c2.007,6.509.65,13.367.2,19.938-.989,14.445.984,28.669-4.2,42.6l2.6-.289s2.2-16.185,2.6-32.569.8-22.58.8-24.778S118.073,86.032,118.073,86.032Z"/><path class="cls-12" d="M112.878,90.827a52.291,52.291,0,0,1-1.788,15.425c-4.021,13.927-6.4,26.592-6.4,41.321l-.2,3.109,2.6,1.4s-1.8-23.779,2-30.572S112.878,90.827,112.878,90.827Z"/><path class="cls-12" d="M125.466,84.434c4.14,15.455,1.972,25.959-1.6,41.226-1.939,8.291-3.41,16.34-1.8,24.911l1-2.287s-.8-15.185,3.2-22.779,4.995-24.377,3.6-29.173S125.466,84.434,125.466,84.434Z"/><path class="cls-13" d="M135.258,74.156s-7.594-.4-11.59,1.6-6.317-.034-6.317-.034A25.684,25.684,0,0,0,112.723,87.2c-.3,1.986-.686,5.485-.686,5.485s1.146-2.23,5.142-4.628,10.687-5.312,13.482-7.311S135.258,74.156,135.258,74.156Z"/><path class="cls-13" d="M133.459,73.967s-.7,12.788,0,16.485.815,10.186.945,10.882c.382,2.04-1.53,5.866-1.53,5.866l5.356,2.168a93.25,93.25,0,0,0-.875-11.223c-.9-6.995-2.4-11.99-2.6-16.585A27.632,27.632,0,0,0,133.459,73.967Z"/><path class="cls-13" d="M136.157,88.854c-2.3,1.7-2.1-15.086-2.1-15.086s3.9,8.791,2.9,11.789S136.157,88.854,136.157,88.854Z"/><path class="cls-13" d="M133.56,73.768s4.695-.6,5.494,4.2.2,3.6-1.5,1.7A46.113,46.113,0,0,1,133.56,73.768Z"/><path class="cls-12" d="M101.068,21.045s2.057,20.453,7.77,32.336,10.17,17.14,10.17,17.14S112.5,55.438,110.1,46.983s-3.542-20.91-1.943-22.624,2.285-.457,3.2,4.913,6.855,21.139,8.569,23.2-2.4-12.226-3.427-18.4-2.628-16.8.914-13.255,4.227,7.085,5.484,9.484,2.4,2.743,1.714-3.428-1.142-11.426-1.142-11.426l-22.51.914Z"/><path class="cls-14" d="M23.009,11.3l-2.486,7.524s.382,5.579,9.245,6.334a14.306,14.306,0,0,0,9.826-3.085A14.537,14.537,0,0,0,48.736,24.7a17.665,17.665,0,0,0,9.141-2.856s5.256,3.77,9.712,3.313a22.6,22.6,0,0,0,8.57-3.085s6.284,3.2,10.626,3.085a15.022,15.022,0,0,0,8-3.085s2.971,2.514,9.484,2.743,9.026-2.514,9.026-2.514.458,3.085,8.684,2.742S133.491,23.1,133.491,23.1l-1.8-11.77Z"/><path class="cls-15" d="M136.966,9.465a3,3,0,0,0-2.555,1.372H21.65a2.96,2.96,0,0,0-2.758-1.76,2.864,2.864,0,0,0-2.96,2.757,2.864,2.864,0,0,0,2.96,2.758,2.96,2.96,0,0,0,2.758-1.76H134.081a2.92,2.92,0,0,0,2.885,2.148,2.864,2.864,0,0,0,2.961-2.757A2.865,2.865,0,0,0,136.966,9.465Z"/></svg>