<svg id="word" xmlns="http://www.w3.org/2000/svg" xmlns:xlink="http://www.w3.org/1999/xlink" viewBox="0 0 160 160"><defs><style>.cls-1,.cls-10,.cls-11,.cls-12,.cls-13,.cls-14,.cls-15,.cls-2,.cls-3,.cls-4,.cls-6,.cls-7,.cls-9{stroke:#231f20;}.cls-1,.cls-10,.cls-2,.cls-3,.cls-4,.cls-6,.cls-7,.cls-9{stroke-width:0.168px;}.cls-1{fill:url(#linear-gradient);}.cls-2{fill:url(#linear-gradient-2);}.cls-3{fill:url(#linear-gradient-3);}.cls-4{fill:url(#linear-gradient-4);}.cls-5{fill:url(#linear-gradient-5);}.cls-6{fill:url(#linear-gradient-6);}.cls-7{fill:#82c4ec;}.cls-8{fill:url(#linear-gradient-7);}.cls-14,.cls-9{fill:none;}.cls-10{fill:url(#linear-gradient-8);}.cls-11{fill:#0084ab;}.cls-11,.cls-12,.cls-13,.cls-14,.cls-15{stroke-miterlimit:10;stroke-width:0.318px;}.cls-12{fill:#e2e3e4;}.cls-13{fill:#ecc84f;}.cls-15{fill:#fff;}.cls-16{fill:#231f20;}.cls-17{opacity:0.52;fill:url(#linear-gradient-9);}</style><linearGradient id="linear-gradient" x1="9051.462" y1="229.49" x2="9051.462" y2="319.132" gradientTransform="matrix(-1, -0.043, 0, 1, 9192.286, 188.735)" gradientUnits="userSpaceOnUse"><stop offset="0" stop-color="#787a7c"/><stop offset="1" stop-color="#231f20"/></linearGradient><linearGradient id="linear-gradient-2" x1="9088.639" y1="327.143" x2="9149.413" y2="327.143" xlink:href="#linear-gradient"/><linearGradient id="linear-gradient-3" x1="9100.698" y1="329.958" x2="9149.482" y2="329.958" xlink:href="#linear-gradient"/><linearGradient id="linear-gradient-4" x1="9087.93" y1="328.391" x2="9101.055" y2="328.391" xlink:href="#linear-gradient"/><linearGradient id="linear-gradient-5" x1="9111.392" y1="321.26" x2="9122.467" y2="321.26" gradientTransform="matrix(-1, -0.043, 0, 1, 9192.286, 188.735)" gradientUnits="userSpaceOnUse"><stop offset="0.012" stop-color="#383638"/><stop offset="0.194" stop-color="#6d6e70"/><stop offset="0.533" stop-color="#fff"/><stop offset="0.824" stop-color="#6d6e70"/><stop offset="1" stop-color="#3b3a3c"/></linearGradient><linearGradient id="linear-gradient-6" x1="9052.822" y1="274.197" x2="9173.286" y2="274.197" xlink:href="#linear-gradient"/><linearGradient id="linear-gradient-7" x1="9054.531" y1="313.079" x2="9171.955" y2="313.079" gradientTransform="matrix(-1, -0.043, 0, 1, 9192.286, 188.735)" gradientUnits="userSpaceOnUse"><stop offset="0" stop-color="#6d6e70"/><stop offset="0.533" stop-color="#fff"/><stop offset="0.861" stop-color="#6d6e70"/></linearGradient><linearGradient id="linear-gradient-8" x1="9111.13" y1="326.067" x2="9122.551" y2="326.067" gradientTransform="matrix(-1, -0.043, 0, 1, 9192.286, 188.735)" gradientUnits="userSpaceOnUse"><stop offset="0" stop-color="#2c292a"/><stop offset="0.479" stop-color="#787a7c"/><stop offset="1" stop-color="#231f20"/></linearGradient><linearGradient id="linear-gradient-9" x1="9058.949" y1="272.244" x2="9169.316" y2="272.244" gradientTransform="matrix(-1, -0.043, 0, 1, 9192.286, 188.735)" gradientUnits="userSpaceOnUse"><stop offset="0" stop-color="#fff"/><stop offset="1" stop-color="#fff" stop-opacity="0"/></linearGradient></defs><polygon class="cls-1" points="138.647 26.202 143 28.055 142.572 113.866 139.173 115.867 138.647 26.202"/><polygon class="cls-2" points="103.647 120.53 63.934 117.439 42.873 120.953 91.448 124.993 103.647 120.53"/><polygon class="cls-3" points="91.309 124.609 91.588 126.202 42.804 122.343 42.873 120.953 91.309 124.609"/><polygon class="cls-4" points="103.565 120.392 104.355 121.634 91.448 126.252 91.23 124.505 103.565 120.392"/><path class="cls-5" d="M80.739,109.387l.155,10.885a9.451,9.451,0,0,1-6.18,1.542,9.26,9.26,0,0,1-4.9-1.861l.359-11.586Z"/><path class="cls-6" d="M133.5,26.249s6.238-1,5.956.506-.281,24.981-.281,24.981v64.131L20.609,105.861s-2.273.787-1.416-4.351.139-76.715.139-76.715Z"/><polygon class="cls-7" points="133.498 30.161 133.498 107.042 22.881 99.52 22.881 27.725 133.498 30.161"/><path class="cls-8" d="M82.943,110.621a138.436,138.436,0,0,0,16.286-.405c3.194-.214,6.211-.416,9.473-.452,11.485-.131,28.737-.029,28.911-.021l.142-.121c-.177-.008-17.591-.749-29.1-.618-3.3.035-6.321.243-9.53.456a118.3,118.3,0,0,1-29.813-1c-7.968-1.255-14.631-2.553-20.514-3.7-7.735-1.5-13.849-2.7-18.687-2.9-8.2-.35-9.64-.055-9.78-.021l.348.057c.049-.008,2.7-.133,10.636.4,4.767.319,9.641,1.712,17.337,3.217,5.893,1.145,12.565,2.448,20.55,3.706a121.249,121.249,0,0,0,13.742,1.416Z"/><path class="cls-9" d="M74.074,106.545a1.808,1.808,0,0,0,1.812,1.685,1.633,1.633,0,0,0,1.809-1.53,1.813,1.813,0,0,0-1.809-1.688A1.632,1.632,0,0,0,74.074,106.545Z"/><path class="cls-10" d="M80.981,118.225l.175,2.172s-1.519,2.064-6.955,1.636c-4.659-.363-4.466-2.279-4.466-2.279l.043-1.661a11.531,11.531,0,0,0,5.209,1.539A11.171,11.171,0,0,0,80.981,118.225Z"/><path class="cls-11" d="M123.427,78.738l9.84-.659.231,28.963-39.07-2.657s5.849-8.36,7.277-9.713,3.7-3.232,3.7-3.232,11.039.8,12.006-1.127S123.427,78.738,123.427,78.738Z"/><path class="cls-12" d="M90.843,29.222a28.032,28.032,0,0,0,.49,8.027c.9,3.382,2.481,8.268,2.481,8.268s.375.3,1.2,0a6.819,6.819,0,0,1,1.954-.3s-.751-3.683-1.052-5.411S95.2,29.318,95.2,29.318l8.621.19s-2.645,9.7-2.494,11.274-.677,2.931.375,4.209,4.36,2.856,5.562,5.411,3.984,8.569,3.232,11.2-1.428,5.412-2.1,6.539-.977,1.654-.526,2.481l.451.826s-2.33,3.307-4.51,4.209-3.382,1.053-4.51.6a12.917,12.917,0,0,0-3.532-1.2,8.945,8.945,0,0,1-6.088-2.931,13.361,13.361,0,0,1-2.556-4.51,4.259,4.259,0,0,1-.9-2.18c0-1.052-.676-8.342.376-10.447S88.177,50.853,88.7,49.8a9.107,9.107,0,0,1,.826-1.428s-4.584-10.748-4.81-12.852a58.868,58.868,0,0,0-1.428-6.465Z"/><path class="cls-13" d="M108.244,69.493s2.682-1.68,3.533-2.1c1.658-.828,3.578.656,3.578.656s-3.578-2.084-3.127,2.425,4.66,10.448,4.66,10.448,4.585,6.313,3.382,8.342-5.336,4.585-7.967,4.585-7.366-1.879-7.366-1.879-4.81-6.539-5.486-8.117-2.18-4.36-2.18-5.412V75.731s4.284.3,6.088-.977a22.946,22.946,0,0,0,3.908-4.133Z"/><path class="cls-12" d="M114.483,67.99s-2.241-1.585-2.286,2.1,3.48,8.976,3.864,9.573l.384.6-2.124.248H112.2s-2.75-3.125-4.328-2.674-3.007,1.428-2.255,3.683,1.428,3.232,2.405,3.457a5.791,5.791,0,0,0,2.1,0s5.412,3.082,7.366,3.307,5.938.752,6.689-1.428,1.579-4.434.827-6.99-3.2-7.29-4.534-8.418S116.262,67.959,114.483,67.99Z"/><path class="cls-12" d="M97.271,75.731s-3.157,5.262-3.533,6.84-1.879,2.556-2.179,4.585-.526,5.938.751,6.689,6.239-1.578,6.69-2.856,1.653-5.115,1.653-5.115,4.912-1.659,5.261-2.176.752-3.457,0-4.209a3.442,3.442,0,0,0-3.682-1.052,17.079,17.079,0,0,0-4.51,2.073A19.232,19.232,0,0,1,97.271,75.731Z"/><path class="cls-14" d="M91.105,64.232a3.8,3.8,0,0,1,1.45-1.886,13.312,13.312,0,0,0,1.873-1.53"/><path class="cls-14" d="M91.769,64.384c.1.046.43-.457.515-.525a2.629,2.629,0,0,0,.22-.239,1.794,1.794,0,0,1,.772-.4l2.227-.73"/><path class="cls-14" d="M92.125,65.438a2.372,2.372,0,0,1,1.212-.466,22.067,22.067,0,0,1,4.944-.287"/><path class="cls-15" d="M87.447,67.235c.043.318.175.94.231,1.256a.527.527,0,0,0,.1.268c.146.162.41.089.611,0a.211.211,0,0,0,.087-.056.206.206,0,0,0,.031-.113,5.8,5.8,0,0,0-.064-1.355"/><path class="cls-14" d="M86.081,65.415a4.092,4.092,0,0,0-.633-.613c-.253-.176-.612-.063-.918-.026"/><path class="cls-14" d="M86.072,65.73a5.933,5.933,0,0,1-1.338-.056,1.162,1.162,0,0,0-.927.089"/><path class="cls-15" d="M88.225,66.468a9.064,9.064,0,0,1,.338,1.751c.03.243-.131.357.056.515-.022-.111.283-.037.388-.078a1.673,1.673,0,0,1,.852-.1,4.607,4.607,0,0,0-.151-1.431"/><path class="cls-14" d="M86.256,66.5c-.545-.125-1.1.161-1.66.146a2.273,2.273,0,0,0-.444,0,.393.393,0,0,0-.33.26"/><path class="cls-14" d="M90.238,52.319a10.482,10.482,0,0,1,.605-3.608"/><path class="cls-14" d="M89.586,52.883l-.028-2.028a1.525,1.525,0,0,1,.023-.357c.078-.343.395-.661.279-.994"/><path class="cls-14" d="M88.845,53.37c-.049.053-.116-.044-.121-.116q-.066-.842-.058-1.687"/><path class="cls-14" d="M86.471,54.937a25.035,25.035,0,0,1-1.024-2.59"/><path class="cls-14" d="M86.882,54.165,85.877,50.78"/><path class="cls-15" d="M91.028,57.693s-1.6-.827-1.981,0a3.774,3.774,0,0,0,0,3.42c.708,1.09,1.707,1.24,2.278,0S91.6,57.925,91.028,57.693Z"/><path class="cls-15" d="M90.54,56.077a1.18,1.18,0,0,0-1.493.188c-.72.714-.524,2.593-.524,2.593s.572-1.529,1.185-1.484,1.821,1.2,1.821,1.2S91.363,56.49,90.54,56.077Z"/><path class="cls-15" d="M85.877,59.656s-.1-.1-.572,0a1.47,1.47,0,0,0-.775.517,2.194,2.194,0,0,1,.409-1.2,2.649,2.649,0,0,1,1.1-.6Z"/><path class="cls-15" d="M84.53,60.549s.04,2.368.509,2.894a1.41,1.41,0,0,0,1.042.5l-.2-4.284S84.716,59.647,84.53,60.549Z"/><path class="cls-16" d="M85.282,60.361s.339,1.992.339,2.48a1.132,1.132,0,0,1-.316.84,2.793,2.793,0,0,1-.775-1.694c.025-.838,0-1.438,0-1.438l.509-.68Z"/><path class="cls-12" d="M59.078,28.522a35.822,35.822,0,0,0,3.544,8.727c2.18,3.382,5.111,7.892,5.712,9.095a8.366,8.366,0,0,1,.677,2.856s-1.579-.977-2.405-1.5-3.834.075-3.834.075h-.451s-1.8-5.111-3.307-9.32-4-10.019-4-10.019l-10.8-.238s2.78,9.054,5.485,13.489A88.121,88.121,0,0,0,55.632,50.1v.678a9.5,9.5,0,0,0-3.608,5.936c-.451,3.683-.6,8.065.076,10.158A10.146,10.146,0,0,1,52.475,71l-7.741,3.533a15.066,15.066,0,0,0-2.556,4.66c-.451,2.029-1.8,5.487,1.428,7.366s4.134,1.954,6.239.9,10.071-3.984,10.071-3.984a6.447,6.447,0,0,0,1.278-.977c.075-.226,1.954-1.117,2.1-1.986a3.415,3.415,0,0,1,.978-1.622,24.422,24.422,0,0,0,4.434-.809c2.029-.619,4.51-2.723,5.186-3.249A9.943,9.943,0,0,0,76.677,70.7c.376-1.579.6-3.41.6-3.41s1.278-4.639.376-7.417S75.1,51.981,75.1,51.981s-1.053-8.944-1.654-11.124-3.846-12.1-3.846-12.1Z"/><path class="cls-13" d="M44.583,73.026,22.881,99.52l9.738.662,24.424,1.5,4.827-7.69-13-7.587a2.335,2.335,0,0,1-2.481.564c-1.277-.639-4.209-2.894-4.058-4.848A88.079,88.079,0,0,1,44.583,73.026Z"/><path class="cls-12" d="M50.221,70.094a7.16,7.16,0,0,0-4.059,1.5c-1.579,1.428-2.781,3.006-2.405,7.14s4.058,10,7.967,12.552,8.117,3.908,10.748,3.532a16.864,16.864,0,0,0,6.839-2.856,41.7,41.7,0,0,0,4.209-6.718A12.429,12.429,0,0,1,74.5,82.8a2.034,2.034,0,0,0,1.278-1.128c.376-.9.977-2.63.977-2.63S78.81,78,77.5,76.5c-.248-.283-.677-.7-.677-.7s.376-.827,0-1.278a9.673,9.673,0,0,0-1.554-1.2s.277-4.659-1.076-4.434-2.932,5.186-2.932,6.238a5.9,5.9,0,0,1-1.052,3.533c-.9,1.353-3.532,2.309-4.359,3.221a17.672,17.672,0,0,1-3.382,2.265,11.605,11.605,0,0,0-1.838-1.8c-.643-.376-2.221-3.608-2.822-5.036S53.227,70.47,50.221,70.094Z"/><path class="cls-14" d="M65.891,70.17s.226,2.442,3.8,1.841a3.092,3.092,0,0,0,2.058-.963l.322,1.058"/><polyline class="cls-15" points="70.641 71.761 70.326 73.026 71.566 73.626 72.172 71.832"/><path class="cls-14" d="M69.2,68.216a2.587,2.587,0,0,0-.727-1.621,4.326,4.326,0,0,0-1.5-.992,5,5,0,0,1-1.049-.5"/><path class="cls-14" d="M68.317,68.718a19.065,19.065,0,0,0-3.729-2.481"/><path class="cls-14" d="M67.262,69.5a7.669,7.669,0,0,0-4.791-.873"/><path class="cls-14" d="M75.98,69.506a2.319,2.319,0,0,1,.588-.632,2.2,2.2,0,0,1,.867-.279,23.76,23.76,0,0,1,2.4-.222"/><path class="cls-14" d="M75.932,70.454a10.459,10.459,0,0,1,3.6-.468"/><path class="cls-14" d="M75.887,71.048l1.374.085a3.1,3.1,0,0,1,2.461.962l.734.648"/><path class="cls-14" d="M68.929,55.546c-.067.019-.1-.076-.1-.145a6.737,6.737,0,0,1,.774-3.316"/><path class="cls-14" d="M70.2,55.746a1.112,1.112,0,0,1,.015-.546A11.367,11.367,0,0,1,71.5,51.8"/><path class="cls-14" d="M71.142,55.737q.075-.387.16-.773a5.857,5.857,0,0,1,.356-1.17,3.315,3.315,0,0,1,1.306-1.462"/><path class="cls-14" d="M76.58,56.557a16.7,16.7,0,0,1,1.088-2.11"/><path class="cls-14" d="M76.957,57.722c.264-.268.6-.978.828-1.279A5.788,5.788,0,0,1,79.8,54.959"/><path class="cls-14" d="M77.225,58.547c1.008-.506,2.21-1.056,3.17-1.647"/><path class="cls-15" d="M71.566,59.869s.113-.485-.9-.6-2.443.5-2.593,1.545.024,3.392,1.139,3.836,1.609-1.277,2.039-2.164A6.8,6.8,0,0,0,71.566,59.869Z"/><path class="cls-15" d="M76.264,62.992a5.41,5.41,0,0,0-.564,2.7c.263.944.567,1.986,1.43,1.784s1.851-2.663,1.789-3.537.371-1.973-.288-1.949A9.129,9.129,0,0,0,76.264,62.992Z"/><path class="cls-16" d="M70.167,59.459a3.141,3.141,0,0,0-.743,2.532,1.041,1.041,0,0,0,1.825.5,13.416,13.416,0,0,0,.317-2.315A.931.931,0,0,0,70.167,59.459Z"/><path class="cls-16" d="M77.58,62.488s-1.237,1.809-.6,2.557,1.264.793,1.487.37c.334-.634,1.041-3.226.454-3.3A2.635,2.635,0,0,0,77.58,62.488Z"/><path class="cls-15" d="M68.025,60.173s.47-2.532,1.574-2.449a1.851,1.851,0,0,1,1.65,1.06,1.532,1.532,0,0,1,.25.872,1.832,1.832,0,0,0-1.737-.316,7.6,7.6,0,0,0-1.737,1.1Z"/><path class="cls-15" d="M76.8,61.263c.895-.376,1.547-.4,1.834.226s.478,1,.478,1a6.248,6.248,0,0,0-2.819.726C75.807,63.573,75.9,61.639,76.8,61.263Z"/><path class="cls-16" d="M89.557,57.724a1.882,1.882,0,0,1,.983,1.534c0,1.164-.171,2.531-.832,2.193a3.173,3.173,0,0,1-1.185-2.593C88.763,58.325,88.965,57.324,89.557,57.724Z"/><path class="cls-12" d="M88.389,65.835a2.459,2.459,0,0,0,.353.78,1.237,1.237,0,0,0,.686.49.989.989,0,0,0,.61-.048,1.39,1.39,0,0,0,.669-.693,6.674,6.674,0,0,0,.321-.93"/><path class="cls-12" d="M88.389,65.835a2.855,2.855,0,0,1-.572,1.321.247.247,0,0,1-.37.079,2.59,2.59,0,0,1-.743-.471.9.9,0,0,1-.278-.8"/><path class="cls-17" d="M130.737,106.621s1.153-34.243-26.077-46.016S22.97,27.981,22.97,27.981l110.367,2.657-.112,76.172Z"/></svg>