<svg id="word" xmlns="http://www.w3.org/2000/svg" xmlns:xlink="http://www.w3.org/1999/xlink" viewBox="0 0 160 160"><defs><style>.cls-1{fill:#d6de23;}.cls-1,.cls-10,.cls-11,.cls-12,.cls-13,.cls-14,.cls-15,.cls-17,.cls-18,.cls-2,.cls-3,.cls-4,.cls-5,.cls-6,.cls-7,.cls-8,.cls-9{stroke:#9d4b9c;stroke-width:0.566px;}.cls-2{fill:#8b8bc3;}.cls-3{fill:#d9b57a;}.cls-4{fill:#d8ab77;}.cls-5{fill:#f2d480;}.cls-6{fill:#fde2d4;}.cls-7{fill:#00adee;}.cls-8{fill:#f7ee6d;}.cls-9{fill:#81c6ed;}.cls-10,.cls-15{fill:#fff;}.cls-11{fill:#5a91cc;}.cls-12{fill:#fde4d5;}.cls-13,.cls-17{fill:none;}.cls-13,.cls-15{stroke-linecap:round;}.cls-14{fill:url(#linear-gradient);}.cls-16{fill:#9d4b9c;}.cls-18{fill:#d67fb3;}</style><linearGradient id="linear-gradient" x1="5480.389" y1="-951.403" x2="5486.32" y2="-951.403" gradientTransform="matrix(-0.984, 0.177, 0.177, 0.984, 5597.243, 11.06)" gradientUnits="userSpaceOnUse"><stop offset="0" stop-color="#882922"/><stop offset="1" stop-color="#d24c56" stop-opacity="0"/></linearGradient></defs><path class="cls-1" d="M49.441,69.631l-10.3.621-3.785,4.282a15.872,15.872,0,0,0-3.514,5.225c-.666,2.774-.221,12.092-.11,13.423a12.638,12.638,0,0,1-.556,4.548c-.332.443-1.664,2.218,0,2.218s4.067.259,4.067-1.516.666-6.212,1-9.207-1.181-6.359.372-8.023c1.024-1.1,6.376-5.737,6.376-5.737Z"/><path class="cls-1" d="M65.6,71.144c-.556-.889-1.554-.445-3.107,0s-3.031-.036-5.213,1.664a20.659,20.659,0,0,1-3.328,2.662.793.793,0,0,1-.873-.223c-.262-.881-1.032-3.668-.721-5.119a5.062,5.062,0,0,0-.993-3.538l-9,2.731s2.606,4.9,3.537,5.647c.136.109,4.946,6.565,7.05,7.712,2.439,1.331,4.326-2,5.657-3.661s5.657-4.326,7.21-4.326S66.154,72.031,65.6,71.144Z"/><path class="cls-2" d="M45.439,43.194c.014-1.041.622-7.666,1.065-8.608a2,2,0,0,1,.645-.853,5.706,5.706,0,0,1,.95-.37c1.381-.585,1.649-2.5,2.859-3.387a4.235,4.235,0,0,1,3.471-.315,8.451,8.451,0,0,0,3.541.447,5.4,5.4,0,0,0,3.447-3.2,5.585,5.585,0,0,1-5.657.209,9.638,9.638,0,0,0-2.135-1.16c-2.237-.581-4.159,1.886-6.46,2.094A5.712,5.712,0,0,1,43.43,26.7a16.609,16.609,0,0,0-3.391-1.569c-1.958-.876-7.409-.421-9.4.372s-4.244,2.9-5.957,4.19c0,0-2.514,1.489-.466,1.489S35.385,31,37.991,33.419,45.439,43.194,45.439,43.194Z"/><polygon class="cls-3" points="52.976 111.999 41.735 104.899 59.188 101.942 52.976 111.999"/><path class="cls-3" d="M92.613,127.677s-.59-21.448-.59-22.337V101.5l26.327-8.579.887,23.367Z"/><path class="cls-4" d="M89.658,127.972s-17.751-5.029-21.892-7.986S52.976,112,52.976,112L51.792,89.517s9.913,2.369,14.941,3.846,25.29,6.8,25.29,6.8l.59,27.511Z"/><polygon class="cls-5" points="54.16 88.63 81.965 82.713 118.35 92.917 91.876 101.942 51.792 89.517 54.16 88.63"/><path class="cls-3" d="M92.467,127.529l26.77-11.245s12.867,1.777,13.756,1.777a43.184,43.184,0,0,0,5.029-1.182s-9.17,7.987-12.719,8.58-20.117,9.169-20.117,9.169Z"/><path class="cls-6" d="M24.428,67.7a7.529,7.529,0,0,1-2.5,1.179,15.575,15.575,0,0,0-3.33.822c-.43.252-3.59,1-2.91,1.639a3.2,3.2,0,0,0,2.622.258c.288-.143-2.42,1.777-1.812,2.135s3,1.22,3,1.22a31.9,31.9,0,0,0,3.719-3.534c.322-.68,3.757-1.395,4.795-1.43"/><path class="cls-6" d="M15.93,72.687a.673.673,0,0,0-.3.915c.323.573,1.108.394,1.466.071s.852-.881.588-1.078C16.989,72.088,15.93,72.687,15.93,72.687Z"/><path class="cls-6" d="M17.842,72.958s.931-.429,1.073,0-.855,1.249-1.358,1.575c-.706.455-1.753-.036-1.11-.537S17.842,72.958,17.842,72.958Z"/><path class="cls-6" d="M18.88,73.673s.716-.571.931-.464.431.252.036.751a3.232,3.232,0,0,1-1.646,1c-.249-.035-.572-.573-.141-.823S18.88,73.673,18.88,73.673Z"/><path class="cls-6" d="M18.991,74.891a.72.72,0,0,0,.891.323c.24-.1,1-.61,1-1s-.038-.68-.359-.539S18.738,74.424,18.991,74.891Z"/><path class="cls-7" d="M33.283,55.244s-1.222.221-1.887,2.329-1.663,5.215-3.215,7.1a7.909,7.909,0,0,1-3.773,2.44s-2.552,0-1.886.777.555,3,1.775,3.993,3.884-.221,4.992-1.775,4.436-4.769,5.435-5.99,1.552-4.881,1.552-4.881"/><path class="cls-8" d="M35.834,93.4a3.229,3.229,0,0,1,.879,2.746c-.038.357-.551,2.589-.551,2.589s-1.374,2.832-2.309,2.448A18.62,18.62,0,0,1,30.7,98.706a3.152,3.152,0,0,0,.284-1.936c-.285-.726.523-2.368.523-2.368s.28,2.013,1.842,1.585S35.9,94.265,35.834,93.4Z"/><path class="cls-9" d="M36.972,98.54s1.928,2.768.27,4.14-3.619,1.181-4.644,1.9-4.825.911-5.7.553-3.58-1.772-3.463-2.94.713-1.382,1.648-1.531,3.319-.085,3.835-.636a5.173,5.173,0,0,1,1.408-.942s.937-2.28,1.846-1.3a7.121,7.121,0,0,1,1.34,2.606l1.213-.114a4.872,4.872,0,0,1,.542-1.68,3.409,3.409,0,0,1,1.523-1.046Z"/><path class="cls-10" d="M30.767,101.4a2.185,2.185,0,0,0-.923-1.139c-.657-.346-1.943-.391-1.639.112a3.439,3.439,0,0,0,1.366.917S31.328,102.69,30.767,101.4Z"/><path class="cls-10" d="M31.74,100.7a5.318,5.318,0,0,0-.383-1.552.7.7,0,0,0-.929-.407c-.453.093-.885.73-.885.73s0-.179.751.129.957,1.4,1.025,1.536S31.749,101.693,31.74,100.7Z"/><path class="cls-10" d="M37.876,101.394a6.487,6.487,0,0,1-1.541,1.395,9.519,9.519,0,0,1-2.869,1.006c-.884.016-1.85.888-2.862.928s-3,.294-4.3-.243a7.866,7.866,0,0,1-2.813-2.394s-.573.093.079,1.171a5.184,5.184,0,0,0,3.451,2.381c1.413.172,3.83.149,4.607-.266a8.625,8.625,0,0,1,2.092-1.069,11.661,11.661,0,0,0,3.532-1.266C38.391,102.162,37.876,101.394,37.876,101.394Z"/><path class="cls-11" d="M36.791,97.555a1.894,1.894,0,0,0-1.312.675c-.512.652-1.021,2.169-.753,2.051s.506-.682,1.053-1.066a4.949,4.949,0,0,1,1.216-.592l-.2-1.068"/><path class="cls-11" d="M26.3,104.48s-1.1-.932-1.146-1.533.294-2.086-.684-2.134c-1.105-.051-.983,1.273-.983,1.273s.762.861,1.321,1.4A5.219,5.219,0,0,0,26.3,104.48Z"/><path class="cls-12" d="M37.615,48.681s.548,2.289.922,3.743-.13,5.463-2.076,5.3-2.521-3.13-2.521-3.13l-1.55-5.117"/><path class="cls-7" d="M38.877,51.131A5.378,5.378,0,0,1,45,54.287c1.621,3.436,3.256,4.29,5.706,8.316,3.358,5.515,7.965,7.228,4.756,7.276,0,0-3.906.209-5.275,1.242s-5.745,1.555-7.075,1.613-7.2.124-7.2.124,2.68-3.788,2.011-5.865-2.086-3.616-2.732-4.739-2.509-6.946-2.509-6.946l1-1.52s.9,3.293,3.06,2.025C39.156,54.4,38.5,52.444,38.5,52.444l-.265-1.275Z"/><path class="cls-12" d="M25.788,30.548s-1.874,4.867-1.9,6.256.612,4.807.553,5.744.1,4.727,2.088,6.941c1.045,1.158,4.146,2.585,6.441,2.918a7,7,0,0,0,5.635-2.3c2.094-2.645,3.363-9.269,2.915-11.557s-2.931-8.384-5.949-9.237S27.127,29.088,25.788,30.548Z"/><path class="cls-13" d="M30.01,45.336c.185-.976.761-1.021,1.542-.262"/><path class="cls-14" d="M28.515,46.226a3.071,3.071,0,0,0,2.726.7,8.3,8.3,0,0,0,3.14-1.594,9.119,9.119,0,0,0-.531,1.744c-.147.86-1.08,2.336-2.308,2.092S28.515,46.226,28.515,46.226Z"/><path class="cls-15" d="M35.983,42.482s.315-2.385-1.362-2.27c-1.028.068-2.2,1.866-.874,2.868S35.983,42.482,35.983,42.482Z"/><path class="cls-15" d="M27.788,43.106s.311-2.372-1.353-2.253c-1.018.066-2.179,1.849-.867,2.841S27.788,43.106,27.788,43.106Z"/><path class="cls-13" d="M36.1,38.542a1.89,1.89,0,0,0-2.361-.287"/><path class="cls-13" d="M27.607,39.192c-.357-.624-1.133-.586-1.8-.128"/><path class="cls-8" d="M62.954,71.126a1.793,1.793,0,0,1,2.355-.85c.34.113,2.412,1.095,2.412,1.095s2.472,1.944,1.9,2.776a18.739,18.739,0,0,1-3.1,2.547A3.16,3.16,0,0,0,64.689,76c-.769.127-2.455.208-2.455.208s2.282-1.071,2.2-2.684S63.808,71.25,62.954,71.126Z"/><path class="cls-9" d="M67.7,70.533s3.119-1.292,4.106.621.374,3.789.86,4.944-.143,4.909-.678,5.687-2.5,3.116-3.616,2.752-1.2-.99-1.142-1.937.627-3.258.2-3.884a5.108,5.108,0,0,1-.623-1.574s-2.025-1.4-.87-2.081a7.172,7.172,0,0,1,2.828-.754l.153-1.207a4.859,4.859,0,0,1-1.523-.888,3.452,3.452,0,0,1-.7-1.714Z"/><path class="cls-10" d="M69.16,77.208a2.183,2.183,0,0,0-1.309.656c-.479.567-.8,1.812-.241,1.624s1.19-1.14,1.19-1.14S70.55,76.933,69.16,77.208Z"/><path class="cls-10" d="M68.692,76.105a5.376,5.376,0,0,0-1.6.044c-.515.166-.589.361-.595.822a1.934,1.934,0,0,0,.519,1.016s-.17-.037.288-.7,1.58-.636,1.723-.675S69.665,76.312,68.692,76.105Z"/><path class="cls-10" d="M70.682,70.26a6.54,6.54,0,0,1,1.033,1.8,9.434,9.434,0,0,1,.365,3.018c-.17.867.477,2,.3,3s-.353,2.986-1.158,4.148a7.861,7.861,0,0,1-2.944,2.233s-.03.58,1.167.176A5.21,5.21,0,0,0,72.5,81.777c.472-1.343.966-3.71.723-4.559a8.458,8.458,0,0,1-.59-2.273,11.847,11.847,0,0,0-.483-3.724C71.544,69.925,70.682,70.26,70.682,70.26Z"/><path class="cls-11" d="M66.7,70.5a1.914,1.914,0,0,0,.38,1.428c.526.636,1.9,1.461,1.843,1.174s-.559-.64-.817-1.257a4.871,4.871,0,0,1-.316-1.313L66.7,70.5"/><path class="cls-11" d="M71.22,82.23s-1.148.873-1.745.79-1.974-.733-2.227.212c-.288,1.07,1.028,1.231,1.028,1.231s1-.56,1.655-.989A5.31,5.31,0,0,0,71.22,82.23Z"/><path class="cls-16" d="M34.627,42.238c.079.516.436.892.8.849s.585-.5.5-1.018-.436-.893-.794-.845S34.546,41.724,34.627,42.238Z"/><path class="cls-16" d="M26.508,42.913c.077.506.438.875.81.822a.828.828,0,0,0,.537-1.011c-.073-.5-.434-.874-.8-.819A.827.827,0,0,0,26.508,42.913Z"/><path class="cls-6" d="M57.971,59.689c.5.358,1.147,1.574,1.718,1.861A2.7,2.7,0,0,1,61.12,63.2a5.656,5.656,0,0,1,.073,1.071,4.958,4.958,0,0,1-.288,1.361v.787c0,.288.36.931-.07.931s-1.26-1.235-1.545-1.734-.958-1.558-1.889-1.558-.787.787-.787,1.216-.492,1.119-1.074.86c-.262-.118.141-1,.141-1.646a6.745,6.745,0,0,1,.217-2.363c.285-.715-.288-1.5-.43-2.145"/><path class="cls-17" d="M60.925,66.654A9.467,9.467,0,0,0,59.351,63.9"/><path class="cls-17" d="M59.619,63.268a3.6,3.6,0,0,1,1.286,2.283"/><path class="cls-17" d="M60.148,62.729A3.862,3.862,0,0,1,61.19,64.61"/><path class="cls-7" d="M41.491,51.473s5.1-.333,6.656-.333,6.544,0,7.876,1.664,2.33,6.212,2.33,6.212-.445,2.108-1.664,2a2.287,2.287,0,0,0-1.886.666,7.172,7.172,0,0,0,0-2.218c-.223-.556-1.11-3.328-2.884-3.328a33.691,33.691,0,0,0-4.992.664S41.268,54.911,41.491,51.473Z"/><path class="cls-13" d="M28.349,98.243S13.263,99.8,17.7,111.333s32.948,18.821,45.483,20.632a153,153,0,0,0,31.5,1.554"/><path class="cls-13" d="M121.53,98.464s25.07,4.659,27.954,11.315,0,12.646-10.427,16.863a73.632,73.632,0,0,1-20.189,4.88"/><path class="cls-13" d="M38.333,94.249a61.53,61.53,0,0,1,11.538-.665"/><path class="cls-13" d="M25.021,114.438c8.431,7.766,32.486,16.522,49.7,15.53"/><path class="cls-13" d="M125.967,97.577c7.363.81,41.267,8.21,21.743,28.176"/><path class="cls-18" d="M60.672,24.328s-2.174,2.161-1.607,3.017,1.267,0,1.269,1.266,1.988,1.146,1.988,1.146,1.319.307,1.644-.276,1.421-.978,1.249-2.006.444-1.131-.293-1.747-.67-1.472-1.647-1.625S60.653,22.958,60.672,24.328Z"/><path class="cls-2" d="M22.7,40.137a11.64,11.64,0,0,1-1.735-4.464C20.515,33,23.7,28.664,23.7,28.664s.966.637,4.44.077,6.933-1.985,11.151,1.745,4.667,7.035,4.788,8.389,2.4,5.3,2.4,5.3l-6.16,2.833s2.124-7.58-4.492-10.485S27.683,35,25.035,36.434A5.284,5.284,0,0,0,22.7,40.137Z"/></svg>