<svg id="word" xmlns="http://www.w3.org/2000/svg" viewBox="0 0 160 160"><defs><style>.cls-1{fill:#f89a27;stroke-miterlimit:10;}.cls-1,.cls-4{stroke:#9d4b9c;}.cls-2{fill:#d05523;opacity:0.29;}.cls-3{fill:#faad2d;}.cls-4{fill:#9fa234;stroke-width:0.5px;}</style></defs><path class="cls-1" d="M74.492,43.516s-.258.068-.724.2c-3.828,1.068-21.738,6.35-26.751,12.953C41.393,64.073,31.853,71.6,38.762,91.548s15.646,22.558,20.627,25.279,19.6,10.127,38.079,4.383,29.388-18.592,29.388-31.138.8-23.267-10.129-31.43S103.7,44.407,74.234,43.584"/><path class="cls-2" d="M70.069,52.146s12.367,1.775,10.394,3.473-6.875,2.7-6.875,2.7,7.666-1.389,9.426,0,1.742,5.269,1.742,6.118.52-5.346,3.536-5.269a15.277,15.277,0,0,1,6.284,1.852c.88.386-4.776-1.775-2.513-2.778s7.163-.54,7.163-.54,4.4-.393-1.759-.891-7.038-1.347-6.913-2.428a4.884,4.884,0,0,1,1.257-2.238s-6.409,1.93-7.54,1.467S70.069,52.146,70.069,52.146Z"/><path class="cls-3" d="M55.452,84.026s-3.454.151-2.41,1.36S56.657,84.857,55.452,84.026Z"/><path class="cls-3" d="M60.594,91.13c-.6-.773-3.133-.378-1.928,1.058S61.236,91.962,60.594,91.13Z"/><path class="cls-3" d="M70.314,88.939s-2.088-1.285-1.285.68S70.314,88.939,70.314,88.939Z"/><path class="cls-3" d="M65.9,78.887s-2.25-.076-2.009.831S66.458,79.34,65.9,78.887Z"/><path class="cls-3" d="M79.794,95.892s-1.687-.151-.643,1.662S80.6,96.874,79.794,95.892Z"/><path class="cls-3" d="M98.432,80.625s-1.446.907-1.045,1.889S99.557,80.927,98.432,80.625Z"/><path class="cls-3" d="M85.176,87.351s-2.008.227-1.687,1.588S86.14,88.183,85.176,87.351Z"/><path class="cls-3" d="M81.16,109.647s-1.844-.907-1.645.756S81.4,111.083,81.16,109.647Z"/><path class="cls-3" d="M69.58,99.142s-3.041.075-2.238,1.436S70.371,100.049,69.58,99.142Z"/><path class="cls-3" d="M106.385,99.746s-1.607-.028-1.607,1.309S107.349,101.182,106.385,99.746Z"/><path class="cls-3" d="M113.856,84.914s-2.169,1.077,0,2.437S114.74,85.423,113.856,84.914Z"/><path class="cls-3" d="M56.738,67.248s-1.928-.3-1.366.982S57.461,67.852,56.738,67.248Z"/><path class="cls-4" d="M83.455,55.957a4,4,0,0,0,0-1.134c-.086-.68,4.854-.793,5.818,0s.6,1.361,0,1.587S85.71,57.657,83.455,55.957Z"/></svg>