<svg id="word" xmlns="http://www.w3.org/2000/svg" viewBox="0 0 160 160"><defs><style>.cls-1{fill:#fde1d3;}.cls-1,.cls-10,.cls-11,.cls-12,.cls-13,.cls-14,.cls-16,.cls-2,.cls-3,.cls-4,.cls-5,.cls-6,.cls-7,.cls-8,.cls-9{stroke:#9c4c9c;stroke-width:0.545px;}.cls-2{fill:#6ac4ee;}.cls-14,.cls-3{fill:#fff;}.cls-11,.cls-16,.cls-3,.cls-4,.cls-5,.cls-6,.cls-7,.cls-9{stroke-miterlimit:10;}.cls-4{fill:#ffd375;}.cls-5{fill:#e8e646;}.cls-6{fill:#555456;}.cls-7{fill:#ee3f2e;}.cls-8{fill:#4686c6;}.cls-11,.cls-13,.cls-9{fill:none;}.cls-10{fill:#c17d49;}.cls-11{stroke-linecap:round;}.cls-12{fill:#f6eb59;}.cls-15{fill:#9c4c9c;}.cls-16{fill:#b58469;}</style></defs><path class="cls-1" d="M46.632,68.274l3.954,4.543L49.691,79.7s-3.447-4.118-4.036-4.757a29.136,29.136,0,0,1-2.082-3.975L44.707,67.1A2.759,2.759,0,0,1,46.632,68.274Z"/><path class="cls-1" d="M85.2,38.813s.97,3.691,0,5.537a13.509,13.509,0,0,1-1.417,2.343s.58,2.555.924,3.975,2.433,4.686,3.179,5.892A13.4,13.4,0,0,0,89.859,58.9s4.294-5.75,5.264-6.957,3.73-2.911,3.73-4.047-2.415-2.183-2.415-2.183a6.626,6.626,0,0,1-1.016-2.573c0-.994.074-3.763.074-3.763Z"/><path class="cls-2" d="M78.86,48.041s-5.67,1.136-6.639,1.988-1.418,2.556-.747,6.176,1.567,10.507,2.164,12.779,1.246,3.621,1.369,5.963-3.778,3.763,0,7.667,2.476,4.26,6.26,4.828,19.451-.994,20.123-2.2,1.939.781,1.865-3.692.3-3.691,1.417-7.88,3.283-9.441,3.656-11.642,2.685-10.791,2.685-10.791l-12.98-3.975L87.934,58,83.411,46.125Z"/><path class="cls-2" d="M84.6,43.459s-.029.129-.071.359c-.016.089-.035.193-.054.311-.189,1.158.409,4.1.946,6.326.733,3.033,4.211,5.608,4.211,5.608l1.448,6.6A17.19,17.19,0,0,0,86.469,58.9c-3.357-2.059-6.154-3.975-6.154-3.975s2.051-1.459,1.6-1.866-1.641-.019-2.91,0-4.4.588-3.73.3,2.238-4.757,1.119-5.538,3.938-1.632,4.841-2.839,4.377-2.406,4.377-2.406l-1.041,1.005"/><path class="cls-2" d="M95.426,42.583s2.98,5.139-.154,7.056-5.636,6.424-5.636,6.424l1.448,6.6A12.494,12.494,0,0,1,94.75,57.98a29.569,29.569,0,0,1,4.1-2.7l-1.417-3.905s6.64,2.272,7.087,2.485-1.044-3.195-1.119-4.331a14.306,14.306,0,0,1,.075-2.342S96.471,41.8,95.426,42.583Z"/><path class="cls-2" d="M72.221,50.029s-4.7.568-5.67,4.4S62.821,64.44,62,67.564s.3,9.016-2.313,8.59-8.131-4.614-8.43-5.324-2.28,3.691-2.147,5.821a43.908,43.908,0,0,1-.538,6.531l9.773,4.38s5.222,2.08,7.609-3.812,7.46-14.979,7.609-15.263S72.221,50.029,72.221,50.029Z"/><path class="cls-2" d="M111.013,51.236s5.25.5,5.847,5.253-3.059,26.267-2.984,28.752-1.567,27.474-1.567,27.474-5.52-3.036-6.938-.844,3.208-17.543,3.134-19.1-3.581-11.855-2.238-17.251-.747-9.655.969-13.417A106.354,106.354,0,0,0,111.013,51.236Z"/><path class="cls-3" d="M109.21,158.146s-1.106-34.215-1.554-42.876a150.413,150.413,0,0,1,0-16.754c.15-4.046,0-7.028-2.238-9.016s-3.282-2.768-3.282-2.768-.3-1.562-.373-1.917-8.393,2.993-15.89,2.343-8.207-1.43-8.207-1.43-3.506.365-2.163,2.921c.571,1.086-.355-.284-1.632,1.845S71.922,94.541,72,95.322s-.865,1.42-.843,2.2-6.916,14.916-6.916,14.916-1.417,11.066-2.387,12.344-7.139,33.348-7.139,33.348"/><path class="cls-4" d="M75.652,104.693a29.643,29.643,0,0,0-3.357-4.686c-1.488-1.481-1.865-.5-4.028-.5s-4.4-1.7-3.88.71a23.539,23.539,0,0,1,.821,4.473,27.855,27.855,0,0,0,.755,4.2s4.392,1.263,6.332.411,4.476-2.272,4.476-2.272Z"/><path class="cls-5" d="M89.633,87.16a3.764,3.764,0,0,0,0,3.547c.94,2.2-1.322,4.5-2.324,5.851-2.706,3.639-.912,4.61.2,3.8,4.694-3.384,1.381,0,1.362,2.556s-2.45,3.9,0,4.046c1.628.095,2.741-3.478,3.189-5.182s.895-4.22,1.193-2.856-.6,3.282-.149,4.773.821,3.194,1.417,1.633a25.3,25.3,0,0,0,.821-5.964c.075-1.278.522-2.342.821-.852s-.6,3.053.149,4.615.97,2.414,1.343.142.6-4.686.3-5.537,1.716,6.744,2.611,4.117,1.343-3.834.522-7.17-2.955-9.208-2.955-9.208S90.932,85.671,89.633,87.16Z"/><path class="cls-6" d="M114.445,116.335l-9.4,7.312-6.639,7.517s.774,1.5,1.73,1.144,5.446-4.614,5.439-5.324,7.229-8.093,7.229-8.093S116.161,116.69,114.445,116.335Z"/><path class="cls-7" d="M39.805,137.417,44.018,48.3s.287-2.654,1.928-2.37-.276,10.933-.276,10.933l-3,80.89Z"/><path class="cls-8" d="M91.084,62.666c-.183,2.2-.386,4.978-.569,7.181a37.465,37.465,0,0,0-.191,4.886c.041.841.139,1.678.193,2.518.2,3.049-.182,6.142.416,9.143"/><path class="cls-1" d="M47.239,61.313s2.387-1.207,3.059-.284-.3,2.676-.6,2.474-2.91,1.156-2.91,1.156Z"/><path class="cls-1" d="M46.12,69.253s.2-1.157-.832-1.389-1.977,1.573-3.271.761c-1.366-.857-2.164-2.414-1.492-3.55a3.309,3.309,0,0,0,.746-2.058c.074-.923-.149-1.349.3-1.7s.672-1.136,1.119-1.207,4.476-.639,4.924,0a2.793,2.793,0,0,1,.671,2.272c0,1.49.6,1.348,0,1.49l-.6.142a1.354,1.354,0,0,1,.6,1.562c-.3,1.065-.671,1.136-.671,1.136a5.164,5.164,0,0,0-.3,1.278C47.09,69.193,46.176,69.936,46.12,69.253Z"/><path class="cls-1" d="M43.66,61.685l1.972-.084a1.237,1.237,0,0,1,.5.048,1.1,1.1,0,0,1,.448.4A11.068,11.068,0,0,1,47.9,64.3"/><path class="cls-9" d="M43.261,63.648a2.976,2.976,0,0,1,1.357,0,5.788,5.788,0,0,1,1.13.439,2.351,2.351,0,0,1,.513.3,1.986,1.986,0,0,1,.458.641,9.928,9.928,0,0,1,.81,2.181"/><path class="cls-9" d="M43.208,65.628a2.561,2.561,0,0,1,2.085.57c.553.481,2.09,1.078,2.021,1.788"/><path class="cls-4" d="M97.752,130.155l-3.49-.458c-.6-.078-1.314-.253-1.471-.805a6.015,6.015,0,0,0,1.885,1.929,17.033,17.033,0,0,1-5.153.214,5.284,5.284,0,0,0,2.31,1.094,21.282,21.282,0,0,0-3.82.319,6.924,6.924,0,0,0-3.383,1.623,24.883,24.883,0,0,1,4.872-.23,8.606,8.606,0,0,0-7.121,5.05,9.131,9.131,0,0,0,2.591-.494,9.934,9.934,0,0,1-4.167,2.553,24.8,24.8,0,0,0,3.616-.024,15.77,15.77,0,0,1-3.23,3.588,14.818,14.818,0,0,0,5.648-1.015,6.38,6.38,0,0,0-1.993,5.663l2.791-2.912a4.652,4.652,0,0,0,.833,4.235,15.8,15.8,0,0,1,.644-3.837,9.241,9.241,0,0,0,4.255,4.523,18.016,18.016,0,0,1-1.159-5.343,10.76,10.76,0,0,0,2.293,1.934,4.516,4.516,0,0,1,1.843,2.275l.168-4.085c1.385,1.182,2.881,2.415,4.72,2.686a6.218,6.218,0,0,1-2.313-4.337,5.028,5.028,0,0,0,2.734,1.894c-.969-1.349-.9-3.117-.8-4.749a6.059,6.059,0,0,0,2.959,2.441c-1.119-2.632-.448-5.615-.776-8.437a4.779,4.779,0,0,0,1.771,3.861l-.166-4.452a2.319,2.319,0,0,0-.1-.694,2.116,2.116,0,0,0-.444-.675,10.1,10.1,0,0,0-6.192-3.266"/><path class="cls-9" d="M92.61,135.79a7.411,7.411,0,0,1-2.077.776,3,3,0,0,0,1.811-.4l-1.194,1.954c-.064.1-.111.268,0,.32a9.379,9.379,0,0,1,2.307-1.593,12.356,12.356,0,0,0-.281,2.606c0,.146.04.335.192.356a8.41,8.41,0,0,1,1.294-1.951"/><path class="cls-9" d="M96.273,131.765a6.293,6.293,0,0,1-3.524,2.079,6.325,6.325,0,0,0,3.5-.643,5.333,5.333,0,0,0-.6,2.559,4.491,4.491,0,0,1,1.953-1.595,3.156,3.156,0,0,0,.948,3.233,5.343,5.343,0,0,1,.42-2.636,20.648,20.648,0,0,0,2.417,3.154"/><path class="cls-9" d="M87.92,138.819a1.6,1.6,0,0,1-.622,1.059,15.757,15.757,0,0,1-2.594,2.005l3.505-.732a3.751,3.751,0,0,0-.288,2.834,2.8,2.8,0,0,1,2.071-2.133,7.1,7.1,0,0,0-.094,1.912,2.477,2.477,0,0,0,.885,1.671,4.054,4.054,0,0,1,.858-2.49,7.254,7.254,0,0,0,2.495,2.623l-.344-2.156"/><path class="cls-10" d="M84.946,11.317a4.722,4.722,0,0,1,1.378-3.55,4.8,4.8,0,0,1,1.605-1.305,5.726,5.726,0,0,1,1.893-.43,11.484,11.484,0,0,1,5.618.811,4.272,4.272,0,0,1,2.01,1.589c.536.917.531,4.332.39,5.354"/><path class="cls-1" d="M79.438,24.984s-.691,7.337,0,9.236,4.446,6.128,7.409,8.2,6.026.863,9.878-1.209,4.643-5.351,4.643-8.286a125.157,125.157,0,0,0-1.481-13.206c-.3-1.381-6.026-4.575-10.965-2.762S79.592,23.007,79.438,24.984Z"/><path class="cls-1" d="M78.549,26.538s-1.679-.4-1.877.835.791,1.423.939,2.582,1.037,1.848.938,2.107.619.352.619.352Z"/><path class="cls-10" d="M100.874,14.626c-.257-.155-8.594-5.869-14.126-4.4s-8.3,4.661-9.384,7.855-.183,7.536.543,8.4,1.828,1.787,1.828,2.3-.4-4.575,1.975-5.783,3.557-2.97,4.544-3.6-1.975-1.147,1.68-.629,4.544-1.036,6.421.172,1.58,2.417,3.161,3.194,2.962,1.476,3.108,2.671.744,5.148.744,5.148.593-3.417,1.976-4.971S104.886,17.043,100.874,14.626Z"/><path class="cls-11" d="M88.362,26.106a2.3,2.3,0,0,1,1.251,2.23c.066,1.8,0,4.676,0,4.676s-1.588.748.029,1.438,1.9.23,1.9.23"/><path class="cls-11" d="M93.706,25.893a1.473,1.473,0,0,1,1.038-.911,3.469,3.469,0,0,1,.52-.078l.9-.089a3.429,3.429,0,0,1,.632-.024,3.358,3.358,0,0,1,.779.2l.864.294"/><path class="cls-10" d="M93.844,25.019c-.109-.261.1-.539.33-.73s.51-.368.6-.635a.778.778,0,0,0-.4-.838,3.023,3.023,0,0,0-1.023-.348c-.168-.417.131-.861.453-1.2a2.053,2.053,0,0,0,.728-1.135c.032-.555-.5-1-1.008-1.336a3.086,3.086,0,0,0-1-.5,5.528,5.528,0,0,0-2.2.256,17.113,17.113,0,0,1-4.609-.308A19.523,19.523,0,0,0,88.275,19.4c1.094.355,3.35-.395,4.313.071s1.456,1.136.76,1.514-1.42.521-.76,1.278.81.568,1.108.947S93.844,25.019,93.844,25.019Z"/><path class="cls-10" d="M101.709,37.73c-.376-.173-.352-.658-.173-.995s.465-.657.443-1.028c-.053-.884-1.658-1.059-1.985-1.9-.264-.674.448-1.33,1.148-1.694a1.3,1.3,0,0,0,.575-.434.751.751,0,0,0-.092-.751c-.478-.775-1.594-1.268-1.674-2.145a1.738,1.738,0,0,1,.238-.921c.5-1,1.336-1.942,1.265-3.028a4.145,4.145,0,0,0-1.062-2.108,3.287,3.287,0,0,0-1.809-1.42s2.476,1.742,1.7,3.475-3.116,3.051-1.7,4.735,2.463,1.731,1.766,2.11-2.266.946-1.382,2.13,2.312,1.018,2.182,1.588-.9,1.2-.3,2.383,1.133,1.377,1.133,1.377Z"/><path class="cls-11" d="M88.051,26.085c-.157-.474-.73-.676-1.231-.814L84.37,24.6a3.61,3.61,0,0,0-.879-.165,1.758,1.758,0,0,0-1.674,1.158"/><path class="cls-12" d="M83.01,11.672s-.117-2.145.231-2.571a18.359,18.359,0,0,1,2.777-1.657s.34.521,3.208,1.184,6.448.189,7.841.9,2.986,3.947,2.984,4.259,3.318.9-.355.1S92.683,11.8,90.25,11.7,83.01,11.672,83.01,11.672Z"/><path class="cls-12" d="M100.648,12.508s1.492-.615,3.183,1.988,1.442,2.509,2.039,5.064.895,4.3,1.741,5.7,1.89,2.916,1.89,2.916a9.014,9.014,0,0,0-4.576,2.934c-.259.338.1-1.153-.149-5.215-.346-5.64-2.572-6.572-3.408-9.03a34.866,34.866,0,0,0-2.384-5.213C98.906,11.526,99.045,12.194,100.648,12.508Z"/><path class="cls-13" d="M86.187,18.6a7.619,7.619,0,0,1-2.01-6.279"/><path class="cls-1" d="M107.358,110.514a5.7,5.7,0,0,1-.97,4.614c-1.641,2.13-3.282,2.911-3.805,4.97a23.667,23.667,0,0,0-.82,5.324c.074.781-1.418,1.988-.672,2.911s1.492.213,1.865-1.065,1.232-4.4,1.232-4.4.411,3.336,0,4.259a28.042,28.042,0,0,0-.933,3.905s.821.567,1.94-.639a20.454,20.454,0,0,0,1.79-2.2s1.492.213,1.94-.71a8.816,8.816,0,0,1,.969-1.846c.6-.852.468-.284.57-1.42s-.326-.5,0-2.271.773-5.538.773-5.964.523-4.4.523-4.4S107.955,109.875,107.358,110.514Z"/><path class="cls-3" d="M65.059,107.887s.522,1.136,4.923.5a16,16,0,0,0,7.684-3.691s-1.119,6.247-1.939,9.442-3.208,6.034-4.029,6.46-7.46-.355-7.46-.355-2.014-3.408-1.417-6.318A27,27,0,0,1,65.059,107.887Z"/><path class="cls-9" d="M75.877,89.115l1.727.227c3.181.419,6.538.818,9.51-.339"/><path class="cls-9" d="M71.872,95.988a1.194,1.194,0,0,0,.95.3l3.452.058a22.233,22.233,0,0,0,5.556-.371,22.028,22.028,0,0,0,2.288-.727,13.7,13.7,0,0,0,4.02-1.956"/><path class="cls-9" d="M105.093,94.494a41.861,41.861,0,0,1-3.083,9.179,26.521,26.521,0,0,1-5.336,7.842c-4.324,4.209-10.419,6.292-16.416,7.733"/><path class="cls-9" d="M80.725,124.635a22.629,22.629,0,0,0,5.765-.316,23.61,23.61,0,0,0,4.166-1.5,12.832,12.832,0,0,0,3.078-1.681,12.124,12.124,0,0,0,1.859-2.061,38.736,38.736,0,0,0,4.9-7.512c.525-1.162.931-2.368,1.337-3.572l2.258-6.7"/><path class="cls-14" d="M84.025,26.326A3.728,3.728,0,0,0,82.1,28.908c-.171,1.682,2.463,1.991,2.854,1.956.865-.078,1.576-3.051,1.15-3.716S84.545,25.661,84.025,26.326Z"/><path class="cls-15" d="M84.146,28.221s-.506,1.466.549,1.937,1.27-.551,1.424-.861c.278-.559-.167-1.873-.873-1.833A1.252,1.252,0,0,0,84.146,28.221Z"/><path class="cls-14" d="M94.66,26.326a3.73,3.73,0,0,0-1.926,2.582c-.17,1.682,2.464,1.991,2.854,1.956.866-.078,1.577-3.051,1.151-3.716S95.181,25.661,94.66,26.326Z"/><path class="cls-15" d="M94.782,28.221s-.506,1.466.549,1.937,1.269-.551,1.423-.861c.279-.559-.167-1.873-.872-1.833A1.252,1.252,0,0,0,94.782,28.221Z"/><path class="cls-11" d="M87.259,36.17a4.058,4.058,0,0,0,2.605,1.519,3.34,3.34,0,0,0,2.857-.939"/><path class="cls-7" d="M36.362,40.978s-.174,3.815,1.558,4.292,14.022,3.816,15.753,2.862,2.6-4.637,2.6-4.637Z"/><path class="cls-16" d="M36.362,40.978a6.633,6.633,0,0,0-.953-3.258c-.952-1.432-2.423-3.34-1.99-3.419a11.268,11.268,0,0,1,2.337,0c.779.079-.433-1.431,1.038-.875s1.385,1.06,1.472,1.405-.173-1.723,1.039-.848a3.261,3.261,0,0,1,1.385,1.669s-.347-.371,1.125-.821,1.44-.9,1.845,0,.98-1.723,1.6-.769,1.836,1.113,2.267,1.669,1.557-1.563,1.557-.9,1.269-.133,1.5.821,2.828,1.235,2.828,1.293,1.3-1.609,1.3-.775.519-.793.346.775,1.886,1.088,1.54,1.247,2.788-2.536,2.355-.472,2.075,2.7,2.12,3.258S56.27,44,56.27,44,38.612,41.773,36.362,40.978Z"/></svg>