<svg id="word" xmlns="http://www.w3.org/2000/svg" viewBox="0 0 160 160"><defs><style>.cls-1{fill:#4a4a4c;}.cls-1,.cls-10,.cls-11,.cls-12,.cls-2,.cls-3,.cls-4,.cls-5,.cls-6,.cls-8,.cls-9{stroke:#9c4c9c;stroke-width:0.605px;}.cls-2,.cls-4{fill:#fde1d3;}.cls-3{fill:#ac865b;}.cls-4,.cls-5{stroke-linecap:round;}.cls-5{fill:none;}.cls-6{fill:#fff;}.cls-7{fill:#9c4c9c;}.cls-8{fill:#323031;}.cls-9{fill:#2a3b8e;}.cls-10{fill:#ea2127;}.cls-11{fill:#727275;}.cls-12{fill:#3f3f40;stroke-miterlimit:10;}</style></defs><path class="cls-1" d="M54.2,68.654l-1.535.827A103.582,103.582,0,0,0,38.8,79c-4.389,3.883-5.74,4.051-10.129,7.428s-7.6,6.077-7.935,10.3,3.715,9.1,5.74,10.542,6.753,3.133,8.1,4.652,4.727,5.571,5.233,2.363,1.182-6.265,3.208-7.015S48.083,105,48.083,105a26.851,26.851,0,0,1-4.559-4.9c-2.025-2.87.428-3.237,1.778-4.756s10.936-3.083,10.936-3.083l3.325-17.821L56.87,69.074Z"/><path class="cls-2" d="M70.847,54.977l1.309,8.294-3.583,1.855s4.946,10.367,9.1,12.527,8.476,3.419,10.454,0a26.143,26.143,0,0,0,2.7-7.379l-.9-15.3Z"/><path class="cls-2" d="M91.384,27.55s-.223,8.7,1,10.546,2.556,3.588,2.223,7.176-2.445,13.156-4.335,14.787-14.226,1.849-16.782,0-6.446-4.131-6.446-11.307-.889-12.83-.445-17.179-.778-6.959,6.224-7.829S91.05,19.4,91.384,27.55Z"/><path class="cls-3" d="M61.6,31.464v3.914s.667-.217,3.112,1.74,2.079,4.134,2.141,5.332a10.805,10.805,0,0,0,1.527,3.475H69.6A38,38,0,0,1,68.044,36.9a87.912,87.912,0,0,1,.778-9.568l.778-1.413Z"/><path class="cls-4" d="M65.6,35.922s-5.112-.326-5.446,1.3-1.445,2.868.667,4.587,2,1.067,2.556,2.263.815,1.63,2.223,1.849,1.28-1.164,1.7-2a1.258,1.258,0,0,0-.444-1.479"/><path class="cls-5" d="M83.826,35.161s.889,4.454,2.223,5.76,1.264.872,2.077,2.72.257,2.221-1.188,2.307-3.779,0-3.779,0"/><path class="cls-1" d="M65.208,65.126,54.2,68.654s.375,41.716.209,43.911-3.542,13.675-3.542,13.675l4.9,9.454,21.242-1.058s21.964,2.434,22.808,1.083,3.9-18.764,4.571-24.842-2.623-40.011-2.623-40.011L90.823,66.195s1.753.579-7.835,1.179a121.907,121.907,0,0,1-12.2-.391l-.117-2.943Z"/><path class="cls-1" d="M105.189,72.043a9.678,9.678,0,0,0,1.465,1.987c2.41,1.463,8.736,8.1,12.418,11.355,4.39,3.883,5.74,4.052,10.13,7.428s7.6,6.078,7.934,10.3-3.714,9.1-5.74,10.542-6.753,3.133-8.1,4.652-4.727,5.571-5.234,2.364-1.181-6.266-3.207-7.016-5.065-2.27-5.065-2.27a26.839,26.839,0,0,0,4.558-4.895c2.026-2.87.507-4.221-.844-5.74s-9.025-7.429-9.025-7.429L98.307,80.827l.5-10.772Z"/><path class="cls-2" d="M122.269,115.957l-7.6,3.979a15.177,15.177,0,0,0,0,5.159c.506,2.589.675,3.951,1.519,3.133s-2.194-5.04,1.182-3.405,4.221,3.542,3.377,5.313-1.432,3.686-6.922,4.359-10.427-1.1-10.308-4.36-1.847-6.573.516-11.255,7.874-7.032,7.874-7.032,4.45.034,5.632.579,3.883,3.53,3.883,3.53Z"/><path class="cls-3" d="M77.388,31.735H72.227c-.9,0-3.18,1.56-3.18,1.56l.553.36a10.34,10.34,0,0,1,3.047-.69,45.37,45.37,0,0,1,5.039.27l1.379.96S79.011,31.735,77.388,31.735Z"/><path class="cls-5" d="M76.644,48.559c.048.2.253.309.439.389a17.39,17.39,0,0,0,4.7,1.1,17.105,17.105,0,0,0,3.932.179A6.484,6.484,0,0,0,89.332,48.8"/><path class="cls-3" d="M84.486,32.124l3.668-1c.64-.173,2.669.892,2.669.892l.36.523a9.824,9.824,0,0,0-3.005-.147,24.692,24.692,0,0,0-3.51,1.234l-.73,1.192S83.333,32.437,84.486,32.124Z"/><path class="cls-1" d="M111.339,108.546a5.38,5.38,0,0,0-1.68,1.091c-.48.589-.459,3.739-.459,3.739s-.774.809,1.222.929,2.356-1.56,4.276,0,2.162,1.867,2.581,2.673-.419,3.926,0,4.406,1.6,2.888,2.7,1.079a4.73,4.73,0,0,1,3.479-2.519,2.943,2.943,0,0,0,2.16-1.32c.36-.6,1.29-2.58,1.29-2.58s-.45.2-3.57-2.391S115.058,106.867,111.339,108.546Z"/><path class="cls-2" d="M35.6,109.575l7.6,3.979a15.177,15.177,0,0,1,0,5.159c-.507,2.588-.676,3.951-1.52,3.133s2.2-5.04-1.182-3.405-4.22,3.542-3.376,5.312,1.432,3.686,6.922,4.36,10.427-1.1,10.308-4.36,1.847-6.573-.517-11.256-7.873-7.031-7.873-7.031-4.451.034-5.632.579-3.883,3.53-3.883,3.53Z"/><path class="cls-1" d="M46.531,102.164a5.361,5.361,0,0,1,1.68,1.091c.479.589.459,3.739.459,3.739h0c-2,.119-3.579-.631-5.5.929s-2.162,1.867-2.581,2.673.419,3.926,0,4.405-1.6,2.888-2.7,1.08a4.733,4.733,0,0,0-3.48-2.519,2.943,2.943,0,0,1-2.159-1.32c-.36-.6-1.29-2.581-1.29-2.581s.45.2,3.569-2.39S42.812,100.484,46.531,102.164Z"/><path class="cls-6" d="M75.181,36.223a4.9,4.9,0,0,0-2.357,3.441c-.208,2.241,3.015,2.653,3.493,2.606,1.059-.1,1.929-4.066,1.408-4.952S75.818,35.337,75.181,36.223Z"/><path class="cls-7" d="M75.33,38.748S74.711,40.7,76,41.329s1.553-.734,1.742-1.147c.341-.745-.2-2.5-1.068-2.443A1.564,1.564,0,0,0,75.33,38.748Z"/><path class="cls-6" d="M88.335,34.877a4.9,4.9,0,0,0-2.357,3.44c-.208,2.242,3.015,2.654,3.493,2.607,1.059-.1,1.929-4.066,1.408-4.953S88.972,33.99,88.335,34.877Z"/><path class="cls-7" d="M88.484,37.4s-.619,1.953.672,2.58,1.553-.733,1.742-1.147c.341-.744-.2-2.495-1.068-2.443A1.565,1.565,0,0,0,88.484,37.4Z"/><path class="cls-8" d="M52.827,68.654l.994,3.9s3.138-1.872,4.6-2.5a18.854,18.854,0,0,0,3.714-2.681V65.449Z"/><path class="cls-8" d="M95.407,67.75s1.2,3.665,1.517,3.769,6.463,3.4,6.463,3.4l2.43-2.878Z"/><polygon class="cls-9" points="85.052 81.736 79.771 87.51 78.128 93.025 85.634 84.974 85.052 81.736"/><polygon class="cls-10" points="84.935 80.61 85.996 75.166 81.828 80.684 79.833 87.381 85.114 81.607 84.935 80.61"/><polygon class="cls-9" points="86.504 72.554 85.04 72.554 84.212 72.554 81.165 76.141 82.006 80.087 81.828 80.684 85.996 75.166 86.504 72.554"/><polygon class="cls-9" points="82.821 115.792 89.165 104.149 88.973 103.08 80.763 112.345 82.821 115.792"/><polygon class="cls-10" points="80.4 72.554 81.165 76.141 84.212 72.554 80.4 72.554"/><polygon class="cls-10" points="78.963 109.331 80.763 112.345 88.973 103.08 88.297 99.319 78.963 109.331"/><polygon class="cls-9" points="87.628 95.598 77.347 106.626 78.963 109.331 88.297 99.319 87.628 95.598"/><polygon class="cls-10" points="85.696 84.844 78.19 92.895 76.247 99.417 86.365 88.565 85.696 84.844"/><polygon class="cls-10" points="87.034 92.293 76.134 104.594 77.347 106.626 87.628 95.598 87.034 92.293"/><polygon class="cls-9" points="86.365 88.565 76.247 99.417 75.181 102.999 76.134 104.594 87.034 92.293 86.365 88.565"/><path class="cls-1" d="M71.92,61.774S76.837,66.5,78.825,66.5a6.688,6.688,0,0,1,3.348.876L79.7,76.227s-7.291-5.021-10.1-7.009a7.086,7.086,0,0,1-3.125-4.344Z"/><path class="cls-1" d="M83.386,67.374s3.127-1.089,5.115-1.922a3.7,3.7,0,0,0,2.322-2.093l2.761,4.015-6.39,9.376Z"/><ellipse class="cls-9" cx="60.556" cy="80.417" rx="2.25" ry="2.313"/><ellipse class="cls-10" cx="62.723" cy="81.307" rx="2.167" ry="1.957"/><path class="cls-8" d="M53.3,130.211s26.182,3.609,31.666,3.609,15.751-2.1,15.751-2.1l-.59,6.338s-21.162.942-28.78,0c-5.316-.657-17.263-1.929-17.263-1.929Z"/><path class="cls-11" d="M75.347,131.466v7.01l7.812,1.15.62-8.16Zm5.416,4.662H77.347v-2.91h3.959Z"/><path class="cls-8" d="M56.638,130.663s-1.16,7.865.81,8.963,7.442.628,7.442.628V130.211s.78-2.668-1.405-2.982a35.909,35.909,0,0,0-6.037,0Z"/><path class="cls-8" d="M59.079,129.112s-1.74-8.631,0-8.631,1.74,8.631,1.74,8.631Z"/><path class="cls-12" d="M61.468,33.191s-1.254-8.851.71-11.471,7.871-8.689,12.548-7.92,8.079.443,10.669,2.534S91.4,25.812,91.4,25.812s-8.308-.9-12.287.57S61.468,33.191,61.468,33.191Z"/><path class="cls-12" d="M75.5,26.328s11.923-2.08,13.521-2.1,5.014,2.612,5.014,2.612,11.293,4.427,8.905,6.007-10.4-1.342-13.1-.43-1.881,3.176-6.812,2.139S70.42,29.1,70.42,29.1A11.07,11.07,0,0,1,75.5,26.328Z"/><path class="cls-8" d="M97.081,131.354s-1.523,14.913,1.226,14.913,1.818-23.025,1.818-23.025-2.835-7.752-3.465-.115A54.489,54.489,0,0,0,97.081,131.354Z"/><polygon class="cls-8" points="43.673 76.141 46.027 81.736 39.279 87.381 28.668 86.431 43.045 75.166 43.673 76.141"/><polygon class="cls-8" points="59.563 87.381 74.056 87.381 74.056 90.714 59.563 90.087 59.563 87.381"/></svg>