<svg id="word" xmlns="http://www.w3.org/2000/svg" viewBox="0 0 160 160"><defs><style>.cls-1{fill:#f1672a;}.cls-1,.cls-2,.cls-3,.cls-4,.cls-5,.cls-6,.cls-7,.cls-8{stroke:#9d4b9c;stroke-miterlimit:10;stroke-width:0.5px;}.cls-2{fill:#f89e29;}.cls-3{fill:#f58a29;}.cls-4{fill:#fbaf27;}.cls-5{fill:#f37c2a;}.cls-6{fill:#ffc323;}.cls-7{fill:#f58729;}.cls-8{fill:#5b352b;}</style></defs><path class="cls-1" d="M64.764,48.05s-.913-3.736-3.889-2.241-2.064,2.8-2.521,5.79-3.435,1.12-3.206,3.549.458,4.481,1.832,6.164-1.6,2.615-.69,5.418,7.788,9.151,8.474,5.788,2.748-9.71,1.837-14.381S64.764,48.05,64.764,48.05Z"/><path class="cls-2" d="M74.783,96.848s4.98,7.427,6.7,8.405,4.125,3.365,5.5,1.822,7.214-.138,6.87-3.781-1.373-5.885,0-7.427-.346-8.128,2.746-8.823,8.588,2.1,10.82-1.262,2.575-5.745,3.781-8.545.515-18.777-1.033-21.019-2.057-6.163-.683-10.924,4.808-7.285.856-9.384-3.78-2.526-5.84-2.8-3.094-4.2-8.587-6.025-13.568-2.1-14.941.563-.689,6.722-5.156,7.7-7.9,1.4-6.182,4.623-1.717,6.023-3.434,7.7-3.09,12.05-3.09,12.469-.691,5.464,1.033,8.967,9.443,9.526,8.241,13.027S71.177,96.428,74.783,96.848Z"/><path class="cls-3" d="M96.594,23.44s-2.232,0-4.978-3.782-7.215-4.9-10.82-2.944S75.3,20.5,77.361,23.58s.512,3.641-1.2,7.144-3.777,5.186-1.2,7.706,8.243,6.025,10.649,4.344,3.6-2.522,6.353-2.8,5.153,5.324,6.353-2.524S99.859,24.279,96.594,23.44Z"/><path class="cls-4" d="M73.064,29.046s-8.755-.7-10.65,2.94-1.715,7,.176,9.108.515,5.88.688,7.281-.864,4.2,3.092,6.165,8.413-1.262,9.274-2.238S82.682,42.352,82,38.43,75.987,29.885,73.064,29.046Z"/><path class="cls-5" d="M96.252,35.487s6.182-7.985,6.868-3.363,0,3.922,3.435,5.745,7.558-.14,6.528,4.483-2.061,8.126-4.123,8.684-8.072,2.384-9.274-1.261-2.919-3.5-4.636-5.743S92.3,35.347,96.252,35.487Z"/><path class="cls-6" d="M83.2,108.618a6.057,6.057,0,0,1-7.043-.7c-3.606-2.945-3.777-5.605-2.746-7.427s-.689-2.66-3.434-5.182-4.294-2.8-3.268-6.446,2.921-8.683,5.154-9.243,7.386,1.678,8.076,5.041,5.494,7.145,5.667,10.928S87.837,108.756,83.2,108.618Z"/><path class="cls-7" d="M65.853,98.388c-2.862-.839-4.469-3.641-5.838-9.664s-4.638-7.285-3.438-11.909,2.578-7,2.923-9.809,4.978-7.84,6.695-4.2,4.123,7.845,5.667,11.066S77.532,79.9,75.3,84.66,72.55,100.351,65.853,98.388Z"/><path class="cls-7" d="M76.725,60.541s-4.306,1.247-3.035-4.2,2.253-9.975,3.721-9.069a12.472,12.472,0,0,1,4.994,6.578c.784,3.06,2.549,5.556,1.176,7.592S79.373,60.878,76.725,60.541Z"/><path class="cls-1" d="M109.479,46.834s9.1-1.118,6.35,5.326,1.032,12.188-2.746,13.867-7.9-1.541-8.759-2.943-6.87-8.406-4.807-11.206S108.272,47.816,109.479,46.834Z"/><path class="cls-5" d="M97.967,71.072s3.434-8.406,6.872-6.165,4.465.7,6.011-.559,5.667-2.382,6.527,1.26,1.03,7.143-1.371,10.646-6.357,7.7-8.592,5.742S95.565,76.394,97.967,71.072Z"/><path class="cls-5" d="M95.4,79.336s3.6,2.38,5.15,3.642,2.057,2.381,1.03,5.043-3.434,2.241-3.09,4.343,1.717,4.622-1.375,4.064-5.5.138-6.184-3.922-1.719-6.586,1.031-8.966A12.208,12.208,0,0,0,95.4,79.336Z"/><path class="cls-8" d="M85.159,142.952s.595-12.59,1.11-17.072S84.057,115.2,84.916,109.6s.2-3.753-1.448-5.66-3.53-6.808-4.22-9.613,1.719-3.22-2.4-4.761S67.228,88.58,65.17,85.5s-3.438-3.783-3.438-7V71.214s.858,6.3,1.027,7.982,1.719,5.322,3.949,6.3,2.579,1.681,6.356,1.963,7.389.982,8.074,2.8,4.286,11.361,3.947,6.732,1.473-8.014-.807-11.366S77.7,78.5,74.956,74.854s-7.9-11.908-7.044-14.007,5.327-6.169,1.717-10.089-4.118-7.287-4.118-7.287a24.629,24.629,0,0,0,3.091,4.2c1.543,1.541,4.808,4.064,3.26,7.145s-2.746,4.763-2.4,6.866,3.95,9.945,5.84,12.607,7.881,9.526,8.234,7.356,1.555-5.115,1.9-8.476-.687-3.223-.687-7.986a22.091,22.091,0,0,1,1.888-9.245c.689-1.681,2.575-3.5,1.373-7.427S85.261,35.91,85.261,35.91a64.365,64.365,0,0,1,2.745,7.425c.345,1.817-.515,3.361,1.033,4.621s1.544,0,1.373-2.24.171-6.587,1.029-8.4c0,0-.17,6.72-.17,4.9a16.3,16.3,0,0,1,.86,5.04c-.173,1.963-1.548,1.4-1.892,3.643s-3.948,7.848-3.434,11.07a43.812,43.812,0,0,1,.517,6.16,13.809,13.809,0,0,1,2.662-7.734c2.656-3.329,6.095-1.932,9.533-5.993s5.149-7.146,5.149-8.406a18.081,18.081,0,0,1,1.029-4.06s.519,5.6-2.228,8.963-1.033,4.623-4.123,5.6-7.386,2.522-7.728,3.644-2.408,4.342-2.408,7.285a50.117,50.117,0,0,0,1.375,8.546l-1.375,2.943s3.95-2.524,3.95-6.726,2.576-4.625,4.129-7,6.693-4.621,7.208-5.462,3.952-5.888,3.952-5.888-1.2,5.329-4.294,7.288a34.558,34.558,0,0,0-6.357,4.9c-1.544,1.54-3.434,3.084-3.263,4.2s-.516,3.641-2.058,6.584A26.028,26.028,0,0,0,89.9,82.559c-.691,2.239-.345,7.285-.345,7.285s.514-1.264,3.6-3.5,4.984-1.681,5.668-6.162a69.839,69.839,0,0,1,2.406-9.528,51.712,51.712,0,0,1,2.4-4.624,88.234,88.234,0,0,0-2.748,10.087c-.511,3.362-.685,7.146-1.888,7.7s-6.525,5.324-7.384,5.883-1.4,2.024-1.3,4.09,1.473,4.318,1.473,7.4-2.231,6.866-2.577,10.367,1.715,18.161,1.62,22.054a77.873,77.873,0,0,1-1.1,9.517S88.516,145.172,85.159,142.952Z"/></svg>