<svg id="word" xmlns="http://www.w3.org/2000/svg" xmlns:xlink="http://www.w3.org/1999/xlink" viewBox="0 0 160 160"><defs><style>.cls-1,.cls-13,.cls-9{fill:none;}.cls-2{clip-path:url(#clip-path);}.cls-3{fill:#f3dcae;stroke-miterlimit:10;}.cls-10,.cls-12,.cls-13,.cls-3,.cls-4,.cls-5,.cls-6,.cls-7,.cls-9{stroke:#9d4b9c;}.cls-10,.cls-12,.cls-13,.cls-3,.cls-4{stroke-width:0.861px;}.cls-4,.cls-7{fill:#ca9977;}.cls-5{fill:#f8e8c6;stroke-width:0.431px;}.cls-10,.cls-6{fill:#a4c0cf;}.cls-6,.cls-7,.cls-9{stroke-width:0.76px;}.cls-8{fill:#5685ad;opacity:0.25;}.cls-11,.cls-12,.cls-14{fill:#fff;}.cls-11{opacity:0.4;}.cls-15{fill:#ec1c24;}</style><clipPath id="clip-path"><rect class="cls-1" x="14" y="14" width="132" height="132"/></clipPath></defs><g class="cls-2"><rect class="cls-3" x="-113.665" y="20.579" width="286.027" height="122.565"/><polygon class="cls-4" points="172.886 22.45 -119.706 22.45 -104.691 7.883 172.573 7.883 172.886 22.45"/><rect class="cls-5" x="-117.602" y="76.501" width="289.851" height="7.019"/><rect class="cls-6" x="56.786" y="89.911" width="86.587" height="53.236"/><rect class="cls-7" x="51.093" y="85.516" width="96.934" height="6.956"/><polygon class="cls-8" points="55.958 120.513 143.249 98.842 143.218 92.702 55.958 92.976 55.958 120.513"/><line class="cls-9" x1="85.703" y1="92.653" x2="85.703" y2="141.502"/><rect class="cls-7" x="81.785" y="115.703" width="1.809" height="8.42"/><rect class="cls-7" x="87.936" y="115.521" width="1.81" height="8.417"/><rect class="cls-7" x="111.554" y="114.336" width="1.818" height="8.413"/><rect class="cls-7" x="117.705" y="114.147" width="1.814" height="8.418"/><line class="cls-9" x1="115.766" y1="92.472" x2="115.766" y2="141.679"/><polygon class="cls-10" points="-8.03 95.551 45.434 96.129 45.434 134.941 -6.018 134.941 -8.03 95.551"/><polygon class="cls-11" points="44.732 98.52 -2.701 120.753 42.215 96.495 44.933 96.564 44.732 98.52"/><rect class="cls-12" x="-8.428" y="132.914" width="55.061" height="2.531"/><polygon class="cls-8" points="-6.118 122.486 44.732 99.316 44.933 117.348 -5.611 132.55 -6.118 122.486"/><line class="cls-13" x1="-7.019" y1="116.115" x2="46.036" y2="116.115"/><line class="cls-13" x1="20.914" y1="95.551" x2="20.914" y2="132.77"/><line class="cls-13" x1="8.656" y1="95.406" x2="8.656" y2="115.971"/><line class="cls-13" x1="34.178" y1="96.129" x2="34.178" y2="116.259"/><polygon class="cls-10" points="-9.549 33.558 43.915 34.136 43.915 72.948 -7.537 72.948 -9.549 33.558"/><polygon class="cls-11" points="43.212 36.527 -4.22 58.761 40.695 34.502 43.414 34.571 43.212 36.527"/><rect class="cls-12" x="-9.947" y="70.921" width="55.061" height="2.531"/><polygon class="cls-8" points="-7.638 60.493 43.212 37.323 43.414 55.355 -7.13 70.557 -7.638 60.493"/><line class="cls-13" x1="-8.538" y1="54.122" x2="44.517" y2="54.122"/><line class="cls-13" x1="19.395" y1="33.558" x2="19.395" y2="70.777"/><line class="cls-13" x1="7.137" y1="33.413" x2="7.137" y2="53.979"/><line class="cls-13" x1="32.659" y1="34.136" x2="32.659" y2="54.266"/><polygon class="cls-14" points="53.473 50.613 53.473 72.205 136.938 71.942 140.345 48.507 53.473 50.613"/><path class="cls-15" d="M64.489,53.824l4.635,15.444H64.269l-.988-3.35H58.268l-1.062,3.35H55.315l4.929-15.444ZM58.743,64.369H62.83l-1.964-6.846Z"/><path class="cls-15" d="M70.186,73.126V57.874a39.753,39.753,0,0,0,4.452-.294V59.3a3.684,3.684,0,0,1,3.05-1.731,3.573,3.573,0,0,1,3.062,1.623A7.407,7.407,0,0,1,81.9,63.543q0,6.03-4.33,6.03a3.8,3.8,0,0,1-2.928-1.245v4.8Zm5.879-13.894q-1.476,0-1.476,4.254,0,4.424,1.415,4.424,1.269,0,1.269-4.424Q77.273,59.232,76.065,59.232Z"/><path class="cls-15" d="M90.435,57.9v1.278H88.459v8.067q0,.759.525.759c.251,0,.4-.17.451-.51L90.7,67.6q-.525,1.788-3.343,1.788-3.356,0-3.354-2.647v-7.57H82.518V57.9h1.489V55.883a20.991,20.991,0,0,0,4.452-1.7V57.9Z"/><path class="cls-15" d="M91.9,69.268V57.874a34.994,34.994,0,0,0,4.453-.3v11.7Zm2.257-15.829q2.073,0,2.074,1.494t-2.074,1.493q-2.075,0-2.074-1.493T94.156,53.439Z"/><path class="cls-15" d="M107.672,65.092l1.793.487q-.28,3.95-5.026,3.949-6.147,0-6.148-5.691a6.4,6.4,0,0,1,1.635-4.526,5.446,5.446,0,0,1,4.184-1.765q5.331,0,5.331,6.381h-6.49q0,4.48,2.452,4.481,2.293,0,2.293-2.535Q107.7,65.534,107.672,65.092Zm-4.733-2.443H105.6q0-3.983-1.293-3.983-1.172,0-1.317,2.953Z"/><path class="cls-15" d="M122.286,57.863l-2.537,2.953,3.659,8.452h-4.7l-2.135-5.024-.817.928v4.1h-4.453V53.824q1.963,0,4.453-.249v9.662l4.745-5.374Z"/><path class="cls-15" d="M136.9,68.86a9.358,9.358,0,0,1-3.184.588q-2.293,0-2.83-1.323a3.863,3.863,0,0,1-3.2,1.38q-3.892,0-3.892-3.349,0-2.546,3.562-3.575,3.27-.951,3.27-2.286,0-1.754-1.879-1.753-2.172,0-2.171,1.7a4.087,4.087,0,0,0,.341,1.4l-2.208-.4a6.3,6.3,0,0,1-.085-1q0-2.715,5.343-2.715,5.075,0,5.075,2.534v6.925q0,1.062.744,1.063a1.667,1.667,0,0,0,.683-.238Zm-6.307-6.449a3.764,3.764,0,0,1-.964.736,2.625,2.625,0,0,0-1.378,2.511q0,2.264.951,2.263,1.392,0,1.391-2.24Z"/></g></svg>