<svg id="word" xmlns="http://www.w3.org/2000/svg" xmlns:xlink="http://www.w3.org/1999/xlink" viewBox="0 0 160 160"><defs><style>.cls-1,.cls-3{stroke:#9d4b9c;stroke-width:0.988px;}.cls-1{fill:url(#radial-gradient);}.cls-2{fill:#38423a;}.cls-3{fill:url(#radial-gradient-2);}</style><radialGradient id="radial-gradient" cx="-617.3" cy="-1256.825" r="106.735" gradientTransform="matrix(0.813, -0.123, 0.148, 0.977, 756.575, 1207.297)" gradientUnits="userSpaceOnUse"><stop offset="0.004" stop-color="#e7f0cc"/><stop offset="0.406" stop-color="#c1c88b"/><stop offset="0.782" stop-color="#77a054"/><stop offset="0.982" stop-color="#52753b"/></radialGradient><radialGradient id="radial-gradient-2" cx="-602.378" cy="-1294.05" r="6.83" gradientTransform="matrix(0.813, -0.123, 0.148, 0.977, 757.752, 1215.071)" gradientUnits="userSpaceOnUse"><stop offset="0" stop-color="#c1c88b"/><stop offset="0.982" stop-color="#7c7247"/></radialGradient></defs><path class="cls-1" d="M85.143,19.31s16.8.274,34.244,14.724c16.883,13.976,22.567,31.6,18.521,54.175s-22.576,45.706-41.476,50.372-46.084,2.344-58.21-12.491c-4.791-5.861-18.367-20.01-17.33-44.1S27.94,41.744,42.91,31.773,67.554,18.861,85.143,19.31Z"/><path class="cls-2" d="M84.321,27.632s8.291,2.022,10.059,5.691,2.2,7.7,3.442,7.839,6.275.2,4.412,2.776-1.04,5.731,1.647,7.455,6.06,2.2,3.37,6.212-4.555,4.3-2.545,7.27,1.99,7.4,4.148,7.895,3.684,2.56,1.769,4.817-3.9,2.881-3.126,4.57,2.157,2.787,3.2,5.089,1.72,3.344,1.092,4.917-.944-.512-1.574,3.353-2.861,5.187-3.758,6.141-.773,1.757.682,3.341.921,4.942-.846,7.014-1.188,3.619-1.018,4.742-2.519,9.726-2.519,9.726a6.508,6.508,0,0,1-4.289,4.912A58.83,58.83,0,0,0,91.02,135.1s8.074-15.607,9.53-18.612,1.4-5.625-.729-7.1-6.251-2.331-2.253-4.577,5.015-4.7,3.438-7.079-3.49-3.569-.753-8.41,2.23-4.763-.1-7.526-5.576-3.581-3.2-5.091,5.039-2.236,2.058-4.738-5.138-2.993-2.907-5.461,1.161-4.93,1.984-10.956S94.818,44.24,93.7,42.606s-.92-4.943-1.99-8.552S84.321,27.632,84.321,27.632Z"/><path class="cls-2" d="M77.925,28.929s-.846,7.014.875,8.064,3.7,1.569,1.818,3.986-6.374-.837-3.927,2.726,5.453,1.635,3.393,5.224-4.529,3.309-2.4,4.791,5.232.189,3.414,1.94-3.1-1-3,4.225,1.525,3.213,1.044,5.743-1.794,4.208-1.939,5.541-2.324,2.973,1.409,5.853,10.563-1.272,5.257,3.794-6.688,3.962-6.661,7.566a6.786,6.786,0,0,0,2.423,5.7c1.041,1.155,3.586,3.066,2.958,5.783s3.949,3.172,3,4.953-12.022,32.177-12.022,32.177-2.054-27.75.44-31.9,3.442-4.782.071-12.141-2.4-10.128-1.506-13.38-2.859-8.582-2.859-8.582,4.289-3.765,1.55-6.957-7.684-2.607-6.546-4.254,1.19-3.624,3.708-6.464S68.017,47.15,70.3,45s3.854,2.531,3.149-3.263-1.986-5.11-.461-7.635A24.357,24.357,0,0,1,77.925,28.929Z"/><path class="cls-2" d="M67.043,29.264s-4.819,4.828-2.42,8.071,2.884,5.3-1.915,5.7-4.528,1.013-4.285,4.912-1.48,6.287-1.867,9.461.415,5.02,1.675,5.321S62.2,60.324,60.1,63.6s-4.385.828-4.217,3.1-.386.877,1.091,3.771,1.675,9.91,1.02,10.172,2.257,3.429,2.91,4.315-4.919,3.04-5.257,4.238,1.163,5.4,1.746,9.245S55.3,103.01,54.6,106.394s-2.154,6.392-2.3,7.724-2.811-2.525-3.3-8.025-6.523-8.684-2.426-11.435.51-2.374,2.231-8.207.432-7.442.045-10.008-.8-1.846,1.283-4.128,6.734-3.643.994-4.9-6.471-4.922-3.807-5.654,2.98-.944,4.142-4.727-1.091-4.914,1.308-7.409,3.536-3,3.947-6.007-3-2.66,1.066-5.572a23.114,23.114,0,0,0,6.13-6.5Z"/><path class="cls-3" d="M76.213,22.147s-9.483,1.591-6.55,3.771,10.829,1.637,13.157-.19S84.348,21.669,76.213,22.147Z"/><path class="cls-2" d="M88.129,24.513s14.925,5.366,18.2,7.494,2.933,6.769,4.508,8.005,2.521-.545,3.733,5.171,5.841,6.5,6.69,9.807,3.294,1.142,4.773,4.032.122.8-.943,5.226-3.635,6.943.825,7.744.606,4.007.266,5.2a17.365,17.365,0,0,0,.922,7.238c.728,1.364,2.329,5.057,1.551,6.815s-4.843.076-3.1,3.583a7.268,7.268,0,0,0,4.944,4.006,5.669,5.669,0,0,0-2.858,4.038c-.437,2.854-1.285,4.131-1.018,5.892s-2.374,3.8-3.223,5.079-1.186,3.621-1.937,4.391a15.5,15.5,0,0,1-2.011,1.618s.605-4.028,1.526-4.823-6.2,1.43-3.053-.686,5.863-2.527,5.547-5.757-.412-2.723-1.747-5.8-4.554.853-1.646-5.159,3.173-6.546,2.542-7.271-2.884-.71-2.957-3.487.824-4.878,1.235-7.893-2.57-3.215-1.5-6.494,5.089.379,1.4-5.62-6.056-7.937-6.2-8.9a43.5,43.5,0,0,1-.148-5.551c0-3.441-.608-8.6-3.006-10.691a36.664,36.664,0,0,1-6.529-7.166C102.076,30.723,88.129,24.513,88.129,24.513Z"/><path class="cls-2" d="M65.762,26.509S59.7,31.2,55.657,33.121s-3.806,3.526-4.289,6.057-3.293,3.448-4.143,3.578-4-1.2-3.755,1.553-1.454,5.3-1.647,7.462-2.954,4.545-.871,4.556,5.911-2.2,3.61.931-5.475,2.795-6.007,6.156S33.441,77.793,35.5,79.94s2.91.873,1.551,3.372-3.222,2.783-2.687,7.457,2.013,9.858,3.056,11.013-6.982-8.289-5.916-13.859.071-7.553.1-11.982-2.79-4.659-1.116-7.371a18.379,18.379,0,0,0,2.325-6.418c.191-1.014,2.641.256,2.907-3.719s-.972-4.116.313-5.949.944-6.372,4.529-9.047,7.172-6.495,9.693-8.188,6.4-5.887,9.012-6.938A43.565,43.565,0,0,1,65.762,26.509Z"/><path class="cls-2" d="M93.456,22.643s9.634,2.96,13.388,3.7S119.793,35.995,121.2,37.26s1.12,2.982,2.645,3.9.824-.289,2.207,1.96,3.683,6,4.992,7.769.05,1.467,1.6,4.839,4.437,5.231,4.825,7.8-2.787,2.226-2.084,6.873,2.692,4.019,2.133,8.367a63.571,63.571,0,0,0-.676,9.28,45.534,45.534,0,0,1-.871,5.707s-.68-15.963-.609-17.777-3.319-5.89-1.867-8.9,3.321-3.289.41-6.454-4.434-2.936-5.066-8.25-4.459-6.538-5.4-8.2-8.069-4.022-8.943-7.5-1.094-6.4-3.495-6.2-1.474-1.406-5.085-2.334S93.456,22.643,93.456,22.643Z"/><path class="cls-2" d="M62.28,25.09a11.142,11.142,0,0,0-2.994,1.2,20.547,20.547,0,0,1-4.892,2.073c-2.438.787-2.771.338-4.694,1.629s-1.044,2.406-3.448,3.439-1.774-.064-3.007.537-.776,1.867-2.315,2.769-1.615.994-3.008,1.7-.072.678-2.2,3.5a38.294,38.294,0,0,0-3.671,5.474c-.9,1.637-2.894,4.19-3.718,6.9a45.222,45.222,0,0,1-2.675,6.238s2.243-7.923,3.4-10.182,4.41-8.753,5.16-9.618A44.206,44.206,0,0,1,43.9,31.875c5.075-3.186,8.4-5.107,12.912-6.207S62.28,25.09,62.28,25.09Z"/></svg>