<svg id="word" xmlns="http://www.w3.org/2000/svg" viewBox="0 0 160 160"><defs><style>.cls-1{fill:#006695;}</style></defs><path class="cls-1" d="M76.691,86.72a22.679,22.679,0,0,1-45.358,0,22.009,22.009,0,0,1,8.46-17.369,18.475,18.475,0,0,1-4.68-12.419,18.9,18.9,0,0,1,37.8,0,18.475,18.475,0,0,1-4.68,12.419A22.008,22.008,0,0,1,76.691,86.72Zm-11.7,0A10.98,10.98,0,1,0,54.012,97.7,10.929,10.929,0,0,0,64.992,86.72ZM46.812,57.111a7.2,7.2,0,0,0,14.4,0,7.2,7.2,0,0,0-14.4,0Z"/><path class="cls-1" d="M83.182,73.4c0-19.8,8.19-35.1,23.939-35.1S131.06,53.6,131.06,73.4c0,19.35-8.1,36.179-23.939,36.179S83.182,92.75,83.182,73.4Zm36.179,0c0-12.059-3.06-23.488-12.24-23.488S94.882,61.341,94.882,73.4c0,12.241,2.97,24.569,12.239,24.569S119.361,85.641,119.361,73.4Z"/></svg>