<svg id="word" xmlns="http://www.w3.org/2000/svg" viewBox="0 0 160 160"><defs><style>.cls-1{fill:#006695;}</style></defs><path class="cls-1" d="M50,50.812H38.029V39.2H61.788v69.3H50Z"/><path class="cls-1" d="M123.428,86.72a22.679,22.679,0,0,1-45.358,0,22.009,22.009,0,0,1,8.46-17.369,18.476,18.476,0,0,1-4.68-12.42,18.9,18.9,0,0,1,37.8,0,18.48,18.48,0,0,1-4.679,12.42A22.011,22.011,0,0,1,123.428,86.72Zm-11.7,0A10.98,10.98,0,1,0,100.749,97.7,10.929,10.929,0,0,0,111.729,86.72ZM93.549,57.111a7.2,7.2,0,0,0,14.4,0,7.2,7.2,0,0,0-14.4,0Z"/></svg>