<svg id="word" xmlns="http://www.w3.org/2000/svg" viewBox="0 0 160 160"><defs><style>.cls-1{fill:#7dc8ad;}.cls-1,.cls-10,.cls-11,.cls-12,.cls-13,.cls-14,.cls-2,.cls-3,.cls-4,.cls-5,.cls-6,.cls-7,.cls-9{stroke:#9c4c9c;stroke-miterlimit:10;stroke-width:0.452px;}.cls-2{fill:#fff;}.cls-3{fill:#7a7d80;}.cls-4,.cls-7{fill:#fcded0;}.cls-5{fill:#cfb8ae;}.cls-6,.cls-9{fill:none;}.cls-6,.cls-7{stroke-linecap:round;}.cls-8{fill:#9c4c9c;}.cls-10{fill:#dfe0e0;}.cls-11{fill:#fde1d3;}.cls-12{fill:#2a3b8e;}.cls-13{fill:#8c8e90;}.cls-14{fill:#c3e7f9;}.cls-15{fill:#fcf17d;}.cls-16{fill:#f7ea2f;}</style></defs><polygon class="cls-1" points="111.337 100.058 112.494 109.998 116.462 115.338 119.403 116.492 125.828 102.917 120.042 100.943 111.337 100.058"/><path class="cls-2" d="M110.991,98.8l6.083,22.171L125.368,98.8s7.775,2.409,8.908,3.265a18.763,18.763,0,0,1,2.464,2.474l1.21,23.773-33.394-4.321,3.464-23.043Z"/><polygon class="cls-3" points="73.016 77.229 73.779 131.839 80.821 131.839 80.628 81.189 73.016 77.229"/><path class="cls-2" d="M96.734,79.553l6.651.321s-2.772,15.427-.368,17.991,10.2.462,10.2.462l-2.226,5.058a17.976,17.976,0,0,1-10.035,3.053c-3.94-.137-5.965-.131-7.176-5.1S96.734,79.553,96.734,79.553Z"/><path class="cls-4" d="M115.26,91.716c.212,2.328.12,6.336-.814,8.488a12.415,12.415,0,0,1,2.8.218c.634.148,1.33-.1,1.965.042.667.151,1.266.681,1.951.715l3.273.16c.091-2.515.712-6.615.8-9.13"/><path class="cls-5" d="M112.806,66.262s-4.752-1.208-4.405.376,2.559,1.969.836,2.344-3.455.91-2.432,1.71,1.477-.744,1.023.8-1.042,2.344.255,3.053,1.371-.485,1.725,1.007.591,1.963.859,1.977.7,1.043.744-.8.536-1.092.994-4.094a32.342,32.342,0,0,1,.99-4.677,23.727,23.727,0,0,1,.853-2.677Z"/><path class="cls-4" d="M111.337,74.061s-1.817-.943-2.144-.106a3.454,3.454,0,0,0,.021,2.916c.527.942.754.357.511,1.4s-.784,1.546.065,2.279.982.166.982.166Z"/><path class="cls-4" d="M124.816,63.769s-4.346-1.718-7.556-.351c-2.893,1.233-3.323,1.3-3.942,4.03s-2.27,4.815-2.039,6.829-1.572,12.183-.5,13.654,3.393,4.338,6.471,5.157a11.488,11.488,0,0,0,9.184-1.193c2.884-1.776,4.475-1.484,4.722-5.415s.711-6.85.464-10.031a39.594,39.594,0,0,0-2.107-9.149A5.864,5.864,0,0,0,124.816,63.769Z"/><path class="cls-5" d="M128.617,65.839s2.276-1.4,3.173-.023.368,1.258.411,2,2,.836,1.857,1.75-1.337-.066-1.145,1.141,3.5,1.187,1.8,2.669-1.744,2.125-1.689,2.68-1.234,1.137-1.234,1.137-1.876-2.816-1.667-4.772A12.493,12.493,0,0,0,128.617,65.839Z"/><path class="cls-4" d="M130.647,74.546s1.092-2.622,2.492-1.979c1.977.908.871,1.963.413,3.23s-.878,1.218-.706,2.166.684,2.2-1.155,1.911"/><path class="cls-6" d="M118.928,71.291s-.738,4.62-1.068,7.026-1.286,3.373-.719,4.322,2.9.788,2.9.788"/><path class="cls-6" d="M113.217,71.156a8.373,8.373,0,0,0,1.852-1.079,2.728,2.728,0,0,1,2-.546"/><path class="cls-6" d="M123.675,68.2a12.793,12.793,0,0,0,2.25.03,2.7,2.7,0,0,1,2.056.743"/><path class="cls-7" d="M114.114,84.682a8.677,8.677,0,0,1,1.095.661,10.732,10.732,0,0,0,11.551-.159"/><path class="cls-1" d="M124.856,96.589s2.023-.212,2.551,1.334.992,1.261,2.329,2.3c.261.2-.406,1.535-1.156,1.912s-6.432,3.232-6.468,3.092a2.466,2.466,0,0,0-1.05-2.685,7.231,7.231,0,0,1-1.659-2.052s3.019.224,4.088-1.108A7.27,7.27,0,0,0,124.856,96.589Z"/><path class="cls-2" d="M116.462,72.624c-.261.164-.505-.207-.744-.4-.433-.343-1.085-.059-1.484.339a2.6,2.6,0,0,0-.793,1.665,1.754,1.754,0,0,0,.783,1.591,1.331,1.331,0,0,0,1.674-.274,2.064,2.064,0,0,0,.36-.905,6.164,6.164,0,0,0,.065-1.968"/><ellipse class="cls-8" cx="114.739" cy="73.621" rx="1.224" ry="0.974" transform="translate(31.522 181.603) rotate(-85.066)"/><path class="cls-2" d="M126.116,73.1c-.261.165-.5-.206-.744-.395-.433-.343-1.085-.059-1.484.339a2.6,2.6,0,0,0-.793,1.664,1.755,1.755,0,0,0,.783,1.592,1.332,1.332,0,0,0,1.674-.274,2.064,2.064,0,0,0,.36-.905,6.164,6.164,0,0,0,.065-1.968"/><ellipse class="cls-8" cx="124.393" cy="74.098" rx="1.224" ry="0.974" transform="translate(39.871 191.657) rotate(-85.066)"/><path class="cls-9" d="M111.379,74.948l3.457.313c.851.077,2.468-.553,2.551-.016s.376,2.968-1.589,3.474-4.12.23-4.626-.48S111.379,74.948,111.379,74.948Z"/><path class="cls-9" d="M122.051,75.221l3.457.313c.851.077,2.468-.553,2.55-.016s.377,2.968-1.588,3.474-4.121.23-4.626-.48S122.051,75.221,122.051,75.221Z"/><path class="cls-9" d="M117.228,74.9a12.66,12.66,0,0,1,3.184-.359,3.337,3.337,0,0,1,1.662.687"/><path class="cls-9" d="M128.164,75.509a11.715,11.715,0,0,1,2.51-1.383"/><path class="cls-9" d="M131.7,74.341a.78.78,0,0,1,.269-.223.313.313,0,0,1,.343.047.322.322,0,0,1,.061.148,1.531,1.531,0,0,1-.024,1.1c-.176.318-.566.528-.7.862-.166.426.143.869.27,1.305a1.649,1.649,0,0,1,.034.777.412.412,0,0,1-.087.2.431.431,0,0,1-.408.087,1.117,1.117,0,0,1-.376-.2"/><path class="cls-1" d="M115.276,96.118a5.956,5.956,0,0,0-4.091,1.2,13.806,13.806,0,0,0-2.028,1.725c-1.195,1.231-.977,1.138.451,1.9s1.9,1.967,2.6,2.416a18.024,18.024,0,0,0,3.916,1.482c.054-.135.451-1.174.844-2.444s2.438-1.908,2.438-1.908-2.884-.139-3.606-1.08A4.211,4.211,0,0,1,115.276,96.118Z"/><path class="cls-10" d="M94.966,64.329l14.99,5.769a3.6,3.6,0,0,1,.8,4.647c-1.6,2.725-3.125,2.484-3.125,2.484L92.968,70.782Z"/><path class="cls-11" d="M102.744,80.034v-2.8s4.006-2.919,2.644-3.586-3.25.776-3.25.776l-5.745-2.484s-.342-.237,0,2.085a12.444,12.444,0,0,0,1.383,4.085l.16,2.243a3.665,3.665,0,0,0,2.324,1.122A4.056,4.056,0,0,0,102.744,80.034Z"/><polygon class="cls-12" points="114.735 110.844 98.949 122.543 131.802 137.127 145.825 123.986 114.735 110.844"/><path class="cls-11" d="M124.818,130.316s-8.8.561-8.4,1.763,2.244.8,2.244.8-1.522.881.641,2.324,7.773.641,7.773.641L129,133.761Z"/><path class="cls-2" d="M135.408,102.917s-6.49,1.838-6.01,6.245,4.007,14.263,4.007,14.263-3.045,2.163-4.568,3.525-4.807,0-3.846,2.885,4.167,4.968,5.449,4.888,2.965-2.244,3.926-2.885,6.491-6.009,6.491-8.493-2.244-17.388-3.366-18.831A3.845,3.845,0,0,0,135.408,102.917Z"/><path class="cls-10" d="M94.891,60.883l-71.376-32.7L17.386,43.09l-2.143,4.973L80.949,70.018l8.494,3.045s3.519-2.149,4.611-4.469C95.336,65.87,94.891,60.883,94.891,60.883Z"/><path class="cls-13" d="M24.837,25.246,39.42,31.817A22,22,0,0,1,37.976,46.08c-4.1,8.425-9.533,8.413-9.533,8.413l-14.2-5.731Z"/><path class="cls-13" d="M55.483,42.828s.258,4.787-.977,8.039c-2.687,7.079-7.828,7.7-7.828,7.7a17.045,17.045,0,0,0,3.742,2.878c1.6.721,5.388,0,5.388,0S61.317,58.079,63,54.232a14.77,14.77,0,0,0,1.12-7.447s-4.245-3.5-5.767-3.957A5.2,5.2,0,0,0,55.483,42.828Z"/><path class="cls-13" d="M60.978,63.344s3.705-2.621,4.426-5.025.4-6.4,1.763-6.124,7.211.435,6.33,5.8a11.673,11.673,0,0,1-5.117,7.82l-.717-.24Z"/><path class="cls-13" d="M90.781,59s.024,5.008-1.659,7.412a34.959,34.959,0,0,1-4.5,4.923s4.18,2.769,5.141,2.689,4.648-2.564,5.689-5.689,1.2-7.211.561-7.532S90.781,59,90.781,59Z"/><polygon class="cls-10" points="82.37 55.146 84.622 51.847 89.992 54.493 87.422 57.461 82.37 55.146"/><path class="cls-10" d="M78.6,43.09l7.99,4.185,11.747,6a4.51,4.51,0,0,1,0,2.965,2.011,2.011,0,0,1-2.324,1.225l-19.6-9.9Z"/><path class="cls-3" d="M86.4,49.425a17.645,17.645,0,0,1-1.776,2.422l5.37,2.646a26.333,26.333,0,0,0,1.614-2.3,5.489,5.489,0,0,0,.538-2.085L86.59,47.275S87.226,48.045,86.4,49.425Z"/><ellipse class="cls-10" cx="77.3" cy="45.197" rx="2.558" ry="1.082" transform="translate(3.515 95.93) rotate(-64.826)"/><path class="cls-3" d="M67.648,68.335l20.036,8.654s1.2,3.446-.405,4.888-2.657,1.042-2.657,1.042L62.6,73.383V64.329l5.064,1.249Z"/><ellipse class="cls-14" cx="19.359" cy="36.925" rx="12.893" ry="4.522" transform="translate(-22.215 40.063) rotate(-66.651)"/><polygon class="cls-15" points="121.212 120.688 118.918 121.178 117.562 123.091 116.918 121.354 114.739 121.258 116.634 119.695 116.644 117.723 118.459 118.494 120.644 117.37 119.871 119.41 121.212 120.688"/><path class="cls-16" d="M115.236,119.667c-1.457.134-2.916.166-4.375.2-1.46.009-2.919.026-4.38-.06,1.457-.135,2.916-.166,4.375-.2C112.316,119.6,113.775,119.582,115.236,119.667Z"/><path class="cls-16" d="M113.893,121.929a19.066,19.066,0,0,1-2.121.918,18.865,18.865,0,0,1-2.212.669,18.545,18.545,0,0,1,2.121-.918A18.807,18.807,0,0,1,113.893,121.929Z"/><path class="cls-16" d="M115.236,117.37a11.19,11.19,0,0,1-2.694-2.128,10.41,10.41,0,0,1,1.43.96A10.636,10.636,0,0,1,115.236,117.37Z"/><path class="cls-16" d="M118.583,116.306a7.161,7.161,0,0,1-.434-1.349,7.069,7.069,0,0,1-.174-1.406,7.138,7.138,0,0,1,.434,1.349A7.22,7.22,0,0,1,118.583,116.306Z"/><path class="cls-16" d="M122.387,119.427c1.35-.11,2.7-.117,4.05-.133,1.349.015,2.7.022,4.049.133-1.35.11-2.7.118-4.049.133C125.087,119.544,123.737,119.536,122.387,119.427Z"/><path class="cls-16" d="M120.287,122.506c.593.828,1.1,1.706,1.608,2.581.483.889.974,1.774,1.375,2.711-.593-.828-1.1-1.707-1.607-2.581C121.18,124.327,120.689,123.442,120.287,122.506Z"/><path class="cls-16" d="M117.016,124.719a4.545,4.545,0,0,1-.288,2.165,4.257,4.257,0,0,1,.012-1.1A4.342,4.342,0,0,1,117.016,124.719Z"/></svg>