<svg id="word" xmlns="http://www.w3.org/2000/svg" viewBox="0 0 160 160"><defs><style>.cls-1{fill:#c1976b;}.cls-1,.cls-10,.cls-11,.cls-12,.cls-2,.cls-3,.cls-4,.cls-5,.cls-6,.cls-7,.cls-8{stroke:#9c4c9c;stroke-miterlimit:10;stroke-width:0.71px;}.cls-2{fill:#28aae1;}.cls-3{fill:#f4f4c4;}.cls-4{fill:#998379;}.cls-5{fill:#21a19f;}.cls-6{fill:#555759;}.cls-7{fill:#fbe4d6;}.cls-8{fill:#dfa069;}.cls-9{fill:#9c4c9c;}.cls-10,.cls-11{fill:none;}.cls-10{stroke-linecap:round;}.cls-12{fill:#a8a550;}</style></defs><rect class="cls-1" x="135.558" y="30.937" width="4.382" height="98.283"/><path class="cls-2" d="M104.414,73.505s33.648-21.649,34.9-22.692-7.93,16.38-10.016,19.719-11.112,16.432-11.112,16.432Z"/><path class="cls-3" d="M96.589,76.009s-2.034.47.939,3.443,11.268,2.5,11.268,2.5L95.963,90.877,87.669,81.8Z"/><path class="cls-4" d="M54.49,68.289s1.931-3.339,4.226-2.609,2.347,6.156,2.347,6.156l-.208,3.443-1.878,1.982s-2.3-4.173-2.3-4.486-2.608-4.382-2.608-4.382Z"/><rect class="cls-1" x="19.747" y="26.711" width="4.382" height="98.283"/><path class="cls-5" d="M67.01,78.67c-1.486-2.191-5.321-4.852-5.321-6.1S59.5,77.887,59.5,77.887L73.9,88.529l6.887-5.712S68.5,80.861,67.01,78.67Z"/><path class="cls-4" d="M55.012,68.915a9.013,9.013,0,0,1,2.817,3.338c1.982,3.756,1.148,5.321,1.148,5.947s-1.148,2.3-2.609,3.861-2.712,2.5-2.712,1.565.208-7.2.208-8.451-4.382,1.46-4.382,1.46S49.691,67.454,55.012,68.915Z"/><path class="cls-6" d="M56.055,78.826s.731-7.616-2.086-8.451S49.8,74.862,50,76.74s.73,5.529,4.486,7.407C56.414,85.109,55.847,82.478,56.055,78.826Z"/><path class="cls-3" d="M95.076,73.923a8.382,8.382,0,0,1-2.712-2.5c-.731-1.357,1.46-1.565,2.608-2.087a25.224,25.224,0,0,1,3.13-1.043l-3.13-4.8s-8.868-.1-9.912,4.278,2.191,11.372,2.713,11.581S95.076,73.923,95.076,73.923Z"/><path class="cls-3" d="M109.683,82.478s4.382,4.8,4.695,2.608a58.407,58.407,0,0,0,.313-6.155l5.634,1.252s3.547,12.833-.1,14.5-8.138-.522-9.077-1.565-5.008-3.443-5.113-3.756S109.683,82.478,109.683,82.478Z"/><path class="cls-5" d="M97.685,75.7l-7.2,5.634,7.355,6.26,10.173-5.947,2.034,1.1a17.407,17.407,0,0,1-9.859,10.8c-7.825,3.13-12.833,7.825-22.224,4.069s-24.414-14.4-24.414-14.4l5.791-6.416s6.416,5.164,11.424,8.294,4.148.861,6.339-1.33,7.2-2.426,7.2-2.426l3.365-1.565,8.138-6.26Z"/><path class="cls-2" d="M19.434,47.839c0,.626,13.668,27.649,18.467,30.57s6.678,7.721,13.146,13.772,18.78,12.52,29.214,12.937,13.146.209,19.823-4.173A119.9,119.9,0,0,1,112.4,93.85L106.449,89S94.033,99.276,81.1,95.311,52.508,79.035,43.535,72.149,19.434,47.839,19.434,47.839Z"/><path class="cls-7" d="M96.184,61.016s-3.675,8.63-1.868,13.254,4.565,8.089,6.806,7.665,7.971-.348,10.988-2.876,2.331-4.08,2.331-4.08.159-3.785.221-5.81.756-4.549.055-6.6-1.647-5.974-2.87-6.893-7.15,1.112-8.9,1.375S96.772,59.478,96.184,61.016Z"/><path class="cls-8" d="M116.771,51.385s-3.262,5.694-4.667,6.129-.99,1.28-3.99,1.85-4.821,1.869-4.857,2.244.932-2.229,1.429-2.492-.8.356-2.248.907a30.238,30.238,0,0,0-3.481,1.739l3.037-2.7s-3.448.5-4.524,1.865A21.422,21.422,0,0,0,94.255,67.3c-.262,1.522-1.419.475-1.155-.112a33.422,33.422,0,0,0,.1-6.406,10.7,10.7,0,0,1,2.316-6.255,13.2,13.2,0,0,1,2.692-2.877s-1.173-.82.637-1.1,4.41-.772,4.41-.772-1.115-1.227,1.591-1.368,3.39-.911,5.265.055a46.875,46.875,0,0,0,4.435,1.906l.429-1.436.566,1.992,2.016-1.445-.143.85a10.607,10.607,0,0,1,3.07.639c.9.487-2.87.716-2.87.716s6.14,2.438,6.593,3.032,3.383,4.87,3.489,9.066-.236,5.888-2.577,7.909-5.856,4.459-6.378,4.144-3.069,2.143-3.357,2.507a3.635,3.635,0,0,1-.694.641l-2-.034s1.071-.9,1.031-1.566,5.685-2.3,5.022-3.8-2.891-1.731-2.891-1.731-2.054,2.046-2.585,1.958a2.583,2.583,0,0,0-1.087.1,11.766,11.766,0,0,0,1.483-3.156,11.64,11.64,0,0,0-1.165-5.272,13.124,13.124,0,0,1-1.251-4.443c-.037-.718,1.738-3.3,1.738-3.3Z"/><path class="cls-7" d="M113.754,73.478s2.717-3.171,4.432-1.927.411,3.359-.579,3.766-1.929,1.69-2.768,1.672-1.7-1.2-1.7-1.2"/><path class="cls-9" d="M115.33,53.4s-.542-.39-1.368-.927a14.1,14.1,0,0,0-1.458-.831c-.271-.13-.576-.264-.873-.372s-.617-.213-.935-.3a12.731,12.731,0,0,0-3.643-.409,13.217,13.217,0,0,0-1.681.144,13.262,13.262,0,0,1,1.673-.259,13.046,13.046,0,0,1,3.742.167c.338.07.671.148,1,.249s.633.2.939.326a15.076,15.076,0,0,1,1.579.76c.891.5,1.457.846,1.457.846Z"/><path class="cls-9" d="M114.385,55.183l-.375-.137a6.259,6.259,0,0,0-.992-.258,3.585,3.585,0,0,0-1.414.036c-.52.116-1.094.317-1.666.489l-4.571,1.423,4.438-1.767c.558-.215,1.1-.456,1.661-.629a4.218,4.218,0,0,1,1.634-.167,6.969,6.969,0,0,1,1.129.2l.408.114Z"/><path class="cls-9" d="M116.51,52.218l.456.177.115.045c.087.035.092.043.145.067l.273.131a6.3,6.3,0,0,1,.665.406,6.612,6.612,0,0,1,1.36,1.283,8.314,8.314,0,0,1,1.085,1.778,10.1,10.1,0,0,1,.877,3.693,5.145,5.145,0,0,1-.113,1.24,3.863,3.863,0,0,1-.126.455,4.063,4.063,0,0,0,.094-.46,5.111,5.111,0,0,0,.025-1.229,9.9,9.9,0,0,0-1.105-3.542,7.021,7.021,0,0,0-2.464-2.706,5.514,5.514,0,0,0-.591-.313l-.282-.114c-.033-.012-.109-.045-.1-.039l-.118-.037-.468-.148Z"/><path class="cls-9" d="M115.591,54.039l.219.427a8.672,8.672,0,0,1,.476,1.183,6.306,6.306,0,0,1,.3,1.771,10.958,10.958,0,0,1-.2,2.009l-.893,5.322.511-5.367a10.515,10.515,0,0,0,.059-1.934,5.757,5.757,0,0,0-.393-1.6,8.018,8.018,0,0,0-.518-1.064l-.236-.391Z"/><path class="cls-10" d="M116.765,73.276a.634.634,0,0,1,.216.768,1.126,1.126,0,0,1-.248.316,2.937,2.937,0,0,1-1.674.866"/><path class="cls-10" d="M98.222,72.892a4.952,4.952,0,0,0,2.84,2.337A5.23,5.23,0,0,0,104.8,75"/><path class="cls-10" d="M100.991,70.338a1.358,1.358,0,0,1,1.317.085,2.465,2.465,0,0,1,.788,1.153"/><path class="cls-10" d="M108.483,64.585a8.97,8.97,0,0,1,3.078,2.076,2.2,2.2,0,0,1,.543,1.275"/><path class="cls-10" d="M98.858,62.081a15.124,15.124,0,0,1,2.995-.27,1.794,1.794,0,0,1,.641.106,2.022,2.022,0,0,1,.734.633"/><path class="cls-7" d="M119.438,79.765l1.1-5.164s-3.443.782-3.913,1.721a19.988,19.988,0,0,1-1.928,2.664Z"/><path class="cls-10" d="M97.348,64.68a4.092,4.092,0,0,0,4.332,1.484"/><path class="cls-10" d="M106.957,68.082a4.336,4.336,0,0,0,3.873,1.97"/><path class="cls-11" d="M138.639,50.573a7.615,7.615,0,0,0-1.658-3.13,2.716,2.716,0,0,0-1.973-1.291,16.625,16.625,0,0,0-2.2-.343,1.072,1.072,0,0,0-.632.076.677.677,0,0,0-.306.539,1.551,1.551,0,0,0,.715,1.311,6.477,6.477,0,0,0,1.453.7,33.089,33.089,0,0,1,4.3,2.235"/><path class="cls-10" d="M133.741,66.55c-.432-.071-.6-.56-.65-.968-.3-2.587.863-5.123,2.233-7.389s3.026-4.221,3.767-6.73a6.417,6.417,0,0,0-3.79-.672,17.812,17.812,0,0,0-3.791.929c-.655.215-1.406.535-1.539,1.173a3.494,3.494,0,0,0,.206,1.255.492.492,0,0,0,.583.524c1.978.165,4.136.29,5.779-.754a5.551,5.551,0,0,0,1.668-1.734"/><path class="cls-10" d="M131.781,62.115c.038.044-.063.094-.1.052s-.025-.107-.008-.161a20.439,20.439,0,0,1,1.744-3.888,41.947,41.947,0,0,1,3.008-4.3l2.223-2.916"/><path class="cls-10" d="M21.357,62.082c.77-4.6-.428-9.337-.756-13.987a10.011,10.011,0,0,1,3.341-1.466,5.981,5.981,0,0,1,5.255,1.63,2.15,2.15,0,0,1,.72,2.288,1.683,1.683,0,0,1-1.508.856,4.055,4.055,0,0,1-1.749-.473,14.82,14.82,0,0,1-2.244-1.3c-1.075-.756-2.317-1.71-3.559-1.281"/><path class="cls-12" d="M13.8,126.09s1.878-2.817,6.886-3.13,7.2,2.817,7.2,2.817a4.318,4.318,0,0,1,2.191.939,16.051,16.051,0,0,0,5.321,2.191"/><path class="cls-12" d="M127.42,132.35s4.069-3.13,5.947-5.008,5.008-2.817,7.2-1.252,4.382,5.321,4.382,5.321l1.252,1.878"/></svg>