<svg id="word" xmlns="http://www.w3.org/2000/svg" viewBox="0 0 160 160"><defs><style>.cls-1{fill:#4a9db1;}.cls-1,.cls-3,.cls-4,.cls-5{stroke:#9d4b9c;stroke-width:0.471px;}.cls-2{fill:#4492a3;}.cls-3{fill:#63a6b9;}.cls-4{fill:#8abacd;}.cls-5{fill:#397d8a;}</style></defs><path class="cls-1" d="M96.116,83.214s-.615-29.533,0-30.031,3.892-16.478,0-19.961-5.942-4.1-10.86-3.893-31.347-.07-36.47-.035-17.213.493-22.335,1.722-11.283,3.191-11.079,9.338,3.536,9.291,8.863,9.5,6.331-.633,6.331-.633l9.82,23.753,6.966,14.137s36.265-1.639,42.822-1.639S96.116,83.214,96.116,83.214Z"/><path class="cls-2" d="M49.4,64.979S40.375,43.441,37.927,38.754c-3.651-6.992-10.859-6.739-15.161-5.1S14.707,41.9,20.034,45.788s10.722,1.776,10.927,1.161,9.425,21.1,9.425,21.1l10.04-3.074Z"/><path class="cls-3" d="M124.008,90.8s-3.306-12.908-1.462-16.186,3.291-9.425,6.768-9.63,10.022,0,10.022,0-.215-2.868-7.888-3.073-24.064.82-28.366,0-6.352-2.049-8.4,1.844-1.844,20.489-1.844,20.489,21.309,2.663,22.128,2.868S124.008,90.8,124.008,90.8Z"/><path class="cls-4" d="M136.079,118.25,135.5,81.985s6.332-4.1,7.038-9.22-2.764-10.859-10.658-9.63-9.661,6.405-10.08,12.284,1.83,28.9,2.213,31.972,1.611,12.5,1.611,12.5Z"/><path class="cls-3" d="M119.473,105.957s5.122-1.639,5.941-4.508,3.538-11.383-1.406-13.477-31.176-4.758-31.176-4.758l-16.591,1.23,1.23,21.513Z"/><path class="cls-5" d="M125.619,119.889s-.67-5.585,0-8.195a8.714,8.714,0,0,0-1.567-7.981l-47.811,2.244,2.4,19.711S121.82,120.485,125.619,119.889Z"/><path class="cls-2" d="M114.818,91.745s9.923.082,9.19,2.841,1.982,5.634-3.94,7.273-37.59,1.644-37.59,1.644l.283-12.391Z"/><polygon class="cls-1" points="41.82 119.889 43.222 78.726 67.636 83.624 67.636 128.699 41.82 119.889"/><path class="cls-3" d="M72.758,62.967S62.421,65.8,61.546,70.511s4.582,10.245,4.582,10.245l2.963,5.417s-15.8-2.754-21.329-3.163-3.073.614-6.966-2.049-3.142-10.927-2.2-12.908,9.164-3.893,9.164-3.893S71.285,57.945,72.758,62.967Z"/><path class="cls-4" d="M81.773,124.807l1.243-39.162s0-14.929-4.371-19.641c-2.653-2.861-7.485-5.834-11.677-3.334-6.4,3.817-7.324,8.369-7.322,11.439,0,6,4.462,9.654,5.824,9.081,1.076-.454,2.166,1.868,2.166,1.868V128.7Z"/></svg>