<svg id="word" xmlns="http://www.w3.org/2000/svg" viewBox="0 0 160 160"><defs><style>.cls-1,.cls-6,.cls-7{fill:#fdeadf;}.cls-1,.cls-11,.cls-2,.cls-3,.cls-4,.cls-5,.cls-6,.cls-7,.cls-8,.cls-9{stroke:#9d4b9c;stroke-miterlimit:10;}.cls-1,.cls-11,.cls-2,.cls-3,.cls-4,.cls-5,.cls-7,.cls-8,.cls-9{stroke-width:0.439px;}.cls-2{fill:#ea2127;}.cls-3{fill:#fff;}.cls-4{fill:#344493;}.cls-5{fill:#c4d72e;}.cls-6{stroke-width:0.548px;}.cls-7,.cls-8{stroke-linecap:round;}.cls-8{fill:none;}.cls-9{fill:#d6945e;}.cls-10{fill:#9c4c9c;}.cls-11{fill:#ef567e;}</style></defs><path class="cls-1" d="M97.127,59.652s1.622,3.447,1.622,4.765.1,5.475-1.521,7.4-8.212,12.673-8.212,12.673l-4.055-2.129s4.156-8.922,6.387-10.747,2.535-2.737,2.433-3.852-4.359-5.779-4.359-5.779l5.272-2.332Z"/><path class="cls-1" d="M99.864,55.089s4.867,4.36,5.982,6.489a15.5,15.5,0,0,1,1.724,5.171c0,.709-1.42,11.862-1.318,12.876s-.406,3.143-.1,3.143,4.056,1.825,4.056,1.825,2.028-18.554,2.028-21.089-9.429-14.4-9.429-14.4Z"/><path class="cls-2" d="M108.178,81.45l-1.933-1.172s-2.064,2.167-2.322,3.819a2.954,2.954,0,0,0,.258,1.909s5.416,1.932,7.546,4.062S117,95.238,117,95.238s.709-4.359-2.129-7.2a28.087,28.087,0,0,1-4.563-6.185Z"/><path class="cls-3" d="M103.92,85.505a3.665,3.665,0,0,1,2.332,0c2.257.776,3.179,3.053,5.308,4.371S117,93.109,117,95.238s-4.765.609-3.65,1.115-4.968-4.258-5.881-5.272S103.312,86.316,103.92,85.505Z"/><path class="cls-2" d="M82.147,86.212s1.342-4.541,3.321-4.762c.86-.1,3.852,2.23,3.852,2.23s3.4,7.4,4.258,9.835a9.258,9.258,0,0,1-.543,7.042s-4.267-10.909-6.3-12.126A35.939,35.939,0,0,0,82.147,86.212Z"/><path class="cls-3" d="M83.338,90.676s-2.737-3.853-.506-4.664,3.548,1.521,4.461,2.738,2.838,5.373,3.954,7.1,2.129,3.954,1.926,4.765-3.346.1-4.765-2.738A50.726,50.726,0,0,0,83.338,90.676Z"/><polygon class="cls-3" points="35.056 67.898 33.469 69.925 38.964 69.925 40.551 67.898 35.056 67.898"/><polygon class="cls-2" points="29.561 67.898 27.973 69.925 33.469 69.925 35.056 67.898 29.561 67.898"/><polygon class="cls-3" points="23.838 67.898 23.838 69.925 27.973 69.925 29.561 67.898 23.838 67.898"/><polygon class="cls-3" points="46.046 67.898 44.459 69.925 112.029 69.925 113.616 67.898 46.046 67.898"/><polygon class="cls-2" points="40.551 67.898 38.964 69.925 44.459 69.925 46.046 67.898 40.551 67.898"/><polygon class="cls-3" points="136.535 67.898 130.101 67.898 128.514 69.925 136.535 69.925 136.535 67.898"/><polygon class="cls-2" points="124.606 67.898 123.019 69.925 128.514 69.925 130.101 67.898 124.606 67.898"/><polygon class="cls-3" points="119.111 67.898 117.524 69.925 123.019 69.925 124.606 67.898 119.111 67.898"/><polygon class="cls-2" points="113.616 67.898 112.029 69.925 117.524 69.925 119.111 67.898 113.616 67.898"/><path class="cls-4" d="M85.366,59.145,87.8,64.113s5.678-1.927,6.388-2.434,2.737-2.534,2.737-2.534-.811-.2-2.737-.609S85.366,59.145,85.366,59.145Z"/><path class="cls-1" d="M56.573,67.965s1.52-6.083,2.331-6.894,5.272-4.055,7.3-2.028,2.129,6.286,1.825,7.6A12.6,12.6,0,0,1,65.8,70.2H63.974l-2.738,3.041Z"/><path class="cls-5" d="M56.978,46.167l5.069.507-3.041,9.632s4.359-5.171,6.793-7.4,9.834-5.982,12.369-6.388,5.475-.811,5.475-.811,3.548,8.111,3.65,10.95-3.288,6.311-3.288,6.311a8.377,8.377,0,0,0-7.054,2.611c-3.447,3.346-6.182,9.232-6.182,9.232l-6.037-.7A8.247,8.247,0,0,0,66.2,66.039c0-2.028-.2-5.069-2.839-5.171s-6.605,7.078-6.605,7.078a29.865,29.865,0,0,1-2.824-3.124c-1.622-2.027-.709-8.617.609-12.166S56.978,46.167,56.978,46.167Z"/><path class="cls-4" d="M82.527,42.517s2.535-1.52,8.213,0S104.325,48.5,104.325,48.5l-1.115,3.65-4.461,7.4-1.926,1.318-2.231-1.723s-1.825.4-4.156.811-8.6-2.382-8.6-2.382l2.109-8.061Z"/><path class="cls-1" d="M78.675,57.218l2.129-7.5,1.622-10.342s-.314-4.224-.82-4.934S78.951,33,80.406,32.3c.89-.425,1.884,1.242,2.128,1.007s.3-5.087,1.21-5.087.259,4.156.608,4.157.811-4.563,1.623-4.36-.1,4.515.158,4.516,1.4-3.633,2.206-3.329-1.315,3.948-.967,4.1,2.186-2.779,2.012-1.161A6.931,6.931,0,0,1,87.9,34.812a2.938,2.938,0,0,1-.452,2.56,22.9,22.9,0,0,1-1.576,2.2s.1,6.793-.608,9.328-2.839,9.631-2.839,9.631Z"/><path class="cls-1" d="M57.789,46.776s3.447-6.59,4.36-7.908,5.576-5.779,5.576-5.779.406-3.448.406-3.853.405-3.143,1.115-2.839-.609,3.447-.1,3.65,1.521-4.055,2.028-3.751-.912,3.751-.2,3.954S73.4,26.9,74.315,27.411s-2.433,3.041-1.723,3.447,3.244-1.825,3.852-1.115S73.91,31.872,73.3,32.379s-.709.912-.2,1.014,2.637-.2,2.028.811S73,35.015,73,35.015s-.912,1.014-1.825.912-1.825-.1-1.825-.1A64.253,64.253,0,0,0,65.292,41.3c-.609,1.216-3.853,6.184-3.853,6.184l-3.346-.2Z"/><path class="cls-6" d="M39.742,89.865s-1.216-5.475,1.116-8.111a9.518,9.518,0,0,0,2.332-6.286c0-.608-.252-4.976,5.474-6.489,6.548-1.73,9.531-1.521,11.66.811s4.157,3.752,4.157,5.171A59.174,59.174,0,0,1,61.54,87.026c-1.419,3.65-6.285,7.7-10.645,7.1a62.594,62.594,0,0,1-10.747-2.737C39.844,91.183,39.742,89.865,39.742,89.865Z"/><path class="cls-7" d="M47.093,73.051a3.454,3.454,0,0,0,.021,1.157,1.727,1.727,0,0,0,3.008.687"/><path class="cls-8" d="M49.907,69.53a3.248,3.248,0,0,1,3.44.306,3.149,3.149,0,0,1,.818.768,4.685,4.685,0,0,1,.434,3.232"/><path class="cls-9" d="M40.351,90.068a20.088,20.088,0,0,1,.709-3.042c.3-.608.3,2.839,1.014,3.346S43.7,89.054,44.2,88.243s-.2.405,1.825,2.331,3.346,2.941,3.143.913.3-4.765.406-2.94S51.4,94.934,52.112,92.6s2.129-6.489,2.23-4.562-.608,5.373.608,4.359,3.143-2.129,4.36-4.967a71.512,71.512,0,0,1,4.562-7.909s.1-3.447.1-4.562a7.031,7.031,0,0,0-.71-2.535,10.817,10.817,0,0,1,5.88,5.678c1.927,4.36,3.245,10.95,1.623,13.282s-2.839,4.258-2.839,4.258v2.332c0,.608-.507-1.521-.507-1.521s-.913,2.839-1.115,3.346-.3-1.927-.3-1.927-.811,2.535-1.825,3.245S63.771,100,63.771,100s1.115,2.028-3.346,1.927-5.475,1.723-6.793,0-4.157-.2-5.981-.406-7.807-3.041-5.982-2.636,3.143,1.115,2.433,0-2.94-4.461-4.765-4.258-5.069,1.521-5.881,1.521,3.549-2.129,4.259-2.434,1.014-1.52-1.318-.811-4.259-1.318-1.318-2.534,3.954.2,3.954.2S36.9,87.432,37.917,87.33,40.351,90.068,40.351,90.068Z"/><path class="cls-5" d="M70.462,66.546s-1.216,3.346-.507,3.954,5.171-1.318,7.706-2.737,5.677-8.517,5.88-9.024S76.748,55.7,76.748,55.7,75.633,61.679,73.91,63A23.014,23.014,0,0,0,70.462,66.546Z"/><path class="cls-3" d="M45.927,76.359s-1.014-1.093-1.724,0-1.419,2.309-.405,3.4S46.738,79.032,45.927,76.359Z"/><path class="cls-10" d="M44.856,76.705s-.542-.651-.921,0-.76,1.374-.217,2.026S45.29,78.3,44.856,76.705Z"/><path class="cls-3" d="M53.667,77.6s-1.014-1.094-1.723,0-1.42,2.308-.406,3.4S54.478,80.271,53.667,77.6Z"/><path class="cls-10" d="M52.6,77.943s-.542-.651-.921,0-.759,1.375-.217,2.026S53.03,79.535,52.6,77.943Z"/><path class="cls-6" d="M61.636,82.11s2.09,1.393,2.864-.232.929-3.251,0-3.87a3.189,3.189,0,0,0-1.858-.542"/><rect class="cls-11" x="23.219" y="47.116" width="2.704" height="41.366"/><rect class="cls-11" x="134.264" y="47.116" width="2.704" height="41.366"/><path class="cls-2" d="M22.6,52.053l-.1-5.16a1.612,1.612,0,0,1,1.754-1.548c2.684-.1,2.168,1.651,2.168,1.651v4.85Z"/><path class="cls-2" d="M133.645,51.124l-.1-5.16a1.612,1.612,0,0,1,1.754-1.548c2.683-.1,2.167,1.651,2.167,1.651v4.85Z"/></svg>