<?xml version="1.0" encoding="utf-8"?>
<!-- Generator: Adobe Illustrator 25.0.1, SVG Export Plug-In . SVG Version: 6.00 Build 0)  -->
<svg version="1.1" id="Layer_1" xmlns="http://www.w3.org/2000/svg" xmlns:xlink="http://www.w3.org/1999/xlink" x="0px" y="0px"
	 viewBox="0 0 160 160" style="enable-background:new 0 0 160 160;" xml:space="preserve">
<style type="text/css">
	.st0{fill:#F291BC;stroke:#9D4B9C;stroke-width:0.709;}
	.st1{fill:#FFFFFF;}
	.st2{fill:none;stroke:#9D4B9C;stroke-width:0.482;}
	.st3{fill:#9D4B9C;}
</style>
<g>
	<g>
		<path class="st0" d="M55,90.9c0,0,4.4-18.8,13.4-14c8.7,4.6-7.3,16.1-7.3,16.1s20.3,1.4,14.6,10.6c-5.7,9.2-17.4-6.5-17.4-6.5
			s12.3,17.7,0.6,20c-8.2,1.6-5-17.9-5-17.9s-10.9,18.8-16.9,7.6S51,96.5,51,96.5s-17.1-9.4-10.9-15.4C48.3,73.2,55,90.9,55,90.9z"
			/>
		<polygon class="st1" points="54.4,94.4 52.6,85.1 56,94.5 64.1,88.1 57.3,95.5 65.4,98.6 55.8,96 56.1,109 54.6,97 40.2,102.2 
			54.4,95.5 41.9,91.2 		"/>
		<path class="st2" d="M54.8,90.3c0.3-7.1,1.7-27.2,1.9-37"/>
		<ellipse transform="matrix(0.2032 -0.9791 0.9791 0.2032 -15.0109 103.5763)" class="st3" cx="56.1" cy="61" rx="4.2" ry="4.4"/>
		<circle class="st3" cx="56.5" cy="47.5" r="6.8"/>
		<path class="st1" d="M53.9,58.7c-0.4,0.2-0.7,0.5-0.9,0.9c-0.1,0.3-0.1,0.5,0,0.8c0.1,0.2,0.4,0.4,0.6,0.4c0.5,0.2,1,0.2,1.5,0
			c0.5-0.2,0.8-0.6,0.9-1.2C56.1,58.8,54.7,58.4,53.9,58.7z"/>
		<path class="st1" d="M53.2,43.4c-0.4,0.2-0.7,0.5-0.9,0.9c-0.1,0.3-0.1,0.5,0,0.8c0.1,0.2,0.4,0.4,0.6,0.4c0.5,0.2,1,0.2,1.5,0
			c0.5-0.2,0.8-0.6,0.9-1.2C55.4,43.4,54,43.1,53.2,43.4z"/>
	</g>
	<g>
		<path class="st0" d="M101.8,90.8c0,0,4.4-18.8,13.4-14c8.7,4.6-7.3,16.1-7.3,16.1s20.3,1.4,14.6,10.6s-17.4-6.5-17.4-6.5
			s12.3,17.7,0.6,20c-8.2,1.6-5-17.9-5-17.9s-10.9,18.8-16.9,7.6s14.1-10.6,14.1-10.6S80.8,87,87,81
			C95.2,73.1,101.8,90.8,101.8,90.8z"/>
		<polygon class="st1" points="101.3,94.2 99.5,85 102.9,94.3 111,88 104.2,95.4 112.3,98.5 102.7,95.9 103,108.9 101.5,96.9 
			87.1,102 101.3,95.3 88.8,91.1 		"/>
		<path class="st2" d="M101.7,90.2c0.3-7.1,1.7-27.2,1.9-37"/>
		<ellipse transform="matrix(0.2032 -0.9791 0.9791 0.2032 22.4778 149.3837)" class="st3" cx="103" cy="60.9" rx="4.2" ry="4.4"/>
		<circle class="st3" cx="103.4" cy="47.4" r="6.8"/>
		<path class="st1" d="M100.8,58.6c-0.4,0.2-0.7,0.5-0.9,0.9c-0.1,0.3-0.1,0.5,0,0.8c0.1,0.2,0.4,0.4,0.6,0.4c0.5,0.2,1,0.2,1.5,0
			c0.5-0.2,0.8-0.6,0.9-1.2C103,58.6,101.6,58.3,100.8,58.6z"/>
		<path class="st1" d="M100.1,43.2c-0.4,0.2-0.7,0.5-0.9,0.9c-0.1,0.3-0.1,0.5,0,0.8c0.1,0.2,0.4,0.4,0.6,0.4c0.5,0.2,1,0.2,1.5,0
			c0.5-0.2,0.8-0.6,0.9-1.2C102.3,43.3,100.9,42.9,100.1,43.2z"/>
	</g>
</g>
</svg>
