<svg id="word" xmlns="http://www.w3.org/2000/svg" xmlns:xlink="http://www.w3.org/1999/xlink" viewBox="0 0 160 160"><defs><style>.cls-1{fill:#4e6672;}.cls-1,.cls-10,.cls-11,.cls-12,.cls-13,.cls-14,.cls-15,.cls-16,.cls-17,.cls-18,.cls-19,.cls-2,.cls-3,.cls-5,.cls-9{stroke:#9d4b9c;}.cls-1,.cls-10,.cls-11,.cls-12,.cls-13,.cls-14,.cls-15,.cls-16,.cls-17,.cls-18,.cls-19,.cls-2,.cls-3,.cls-5{stroke-width:0.619px;}.cls-2{fill:#83a5b6;}.cls-3{fill:url(#linear-gradient);}.cls-4{fill:#9d4b9c;}.cls-5{fill:#a6cde2;}.cls-6{fill:url(#linear-gradient-2);}.cls-7{fill:url(#linear-gradient-3);}.cls-8{fill:url(#linear-gradient-4);}.cls-17,.cls-9{fill:none;}.cls-9{stroke-width:0.873px;}.cls-10{fill:url(#linear-gradient-5);}.cls-11{fill:#4b5b6f;}.cls-11,.cls-12,.cls-13,.cls-14,.cls-15,.cls-16,.cls-17{stroke-miterlimit:10;}.cls-12{fill:#e0e9a0;}.cls-13{fill:#ffeede;}.cls-14{fill:#2d6186;}.cls-15{fill:#323031;}.cls-16{fill:#c6e9fa;}.cls-18{fill:#fff;}.cls-19{fill:url(#linear-gradient-6);}</style><linearGradient id="linear-gradient" x1="72.337" y1="42.052" x2="73.771" y2="112.275" gradientUnits="userSpaceOnUse"><stop offset="0" stop-color="#ffd757"/><stop offset="0.686" stop-color="#f58731"/><stop offset="1" stop-color="#cb933a"/></linearGradient><linearGradient id="linear-gradient-2" x1="-229.311" y1="564.019" x2="-227.083" y2="564.019" gradientTransform="matrix(0.897, 0.167, -0.066, 1.103, 305.054, -490.83)" xlink:href="#linear-gradient"/><linearGradient id="linear-gradient-3" x1="-211.08" y1="564.442" x2="-207.927" y2="564.442" gradientTransform="matrix(0.897, 0.167, -0.066, 1.103, 305.054, -490.83)" xlink:href="#linear-gradient"/><linearGradient id="linear-gradient-4" x1="2243.164" y1="-929.782" x2="2246.317" y2="-929.782" gradientTransform="matrix(0.606, -0.682, 0.91, 0.625, -479.688, 2201.433)" xlink:href="#linear-gradient"/><linearGradient id="linear-gradient-5" x1="109.813" y1="56.322" x2="112.87" y2="119.641" xlink:href="#linear-gradient"/><linearGradient id="linear-gradient-6" x1="-219.66" y1="542.611" x2="-210.517" y2="542.611" gradientTransform="matrix(0.897, 0.167, -0.066, 1.103, 305.054, -490.83)" xlink:href="#linear-gradient"/></defs><path class="cls-1" d="M56.03,99.209a12.378,12.378,0,0,0-2.254,11.533c2.175,6.583,5.249,10.634,7.447,10.088s6.916-2.774,6.814-8.139S64,101.95,62.18,100.475,56.03,99.209,56.03,99.209Z"/><path class="cls-2" d="M60.863,103.556s-3.816,2.367-3.327,6.118,2.01,6.024,3.974,5.436,2.6-4.286,2.366-6.331S63.949,103.19,60.863,103.556Z"/><path class="cls-3" d="M31.119,34.382S20.4,35.644,15.98,37s-8.506,5.563-8.734,8.734S8.7,80.963,8.7,80.963l42.8,29.4S50.2,95.83,54.7,96.392c4.658.582,6.976,4.491,8.006,10.19a73.088,73.088,0,0,1,1.164,9.17l19.063,4.31,4.293-1.913,36.864-3.1L125,102.363s-.947-6.852-.885-7.717-3.037-21.169-2.53-24.881S142,57.061,137.009,53.083s-72.993-18.41-72.993-18.41Z"/><path class="cls-4" d="M15.4,42.534l16.4,4.027,16.377,4.128,16.36,4.193L80.88,59.141l-.314.243A11.483,11.483,0,0,1,82.7,53.437a5.561,5.561,0,0,1,1.079-1.2,5.975,5.975,0,0,1,1.417-.765,17.425,17.425,0,0,1,3.038-.86,50.3,50.3,0,0,1,6.226-.764q3.126-.213,6.259-.213-3.129.081-6.246.376a52.6,52.6,0,0,0-6.173.914,17.078,17.078,0,0,0-2.964.885,5.629,5.629,0,0,0-1.319.735,5.206,5.206,0,0,0-.98,1.134,11.045,11.045,0,0,0-1.966,5.71l-.015.32-.3-.076L64.388,55.462l-16.35-4.233-16.333-4.3Z"/><polygon class="cls-5" points="59.94 58.691 59.795 77.906 48.004 73.83 47.713 55.926 59.94 58.691"/><line class="cls-6" x1="63.016" y1="80.671" x2="63.579" y2="105.126"/><path class="cls-4" d="M63.016,80.671c.175,2.035.281,4.072.378,6.109s.14,4.074.213,6.112c.022,2.038.072,4.076.069,6.115s-.015,4.078-.1,6.119c-.175-2.035-.282-4.072-.379-6.108s-.14-4.075-.211-6.112c-.021-2.039-.073-4.076-.069-6.116S62.935,82.712,63.016,80.671Z"/><path class="cls-5" d="M62.706,59.128s9.025-1.164,13.683,4.367,3.493,21.252,3.493,21.252L63.288,79.8Z"/><line class="cls-7" x1="79.756" y1="77.231" x2="80.319" y2="115.752"/><path class="cls-4" d="M79.756,77.231c.174,3.208.281,6.417.377,9.626l.213,9.63.07,9.631c0,3.211-.015,6.422-.1,9.634-.176-3.208-.282-6.417-.379-9.627L79.728,96.5l-.068-9.632C79.662,83.654,79.675,80.443,79.756,77.231Z"/><line class="cls-8" x1="18.126" y1="79.511" x2="51.408" y2="98.915"/><path class="cls-4" d="M18.126,79.511c2.838,1.507,5.642,3.072,8.44,4.647l8.357,4.788,8.285,4.913c2.748,1.66,5.492,3.328,8.2,5.056-2.838-1.506-5.641-3.071-8.44-4.645l-8.356-4.79-8.285-4.913C23.579,82.907,20.835,81.238,18.126,79.511Z"/><polygon class="cls-5" points="45.529 54.616 45.384 73.83 34.758 69.754 34.467 51.85 45.529 54.616"/><polygon class="cls-5" points="30.973 50.588 30.827 68.735 22.239 65.848 21.948 48.939 30.973 50.588"/><polygon class="cls-5" points="19.328 48.769 19.234 64.514 13.693 62.009 13.505 47.337 19.328 48.769"/><line class="cls-9" x1="64.307" y1="88.241" x2="78.863" y2="93.19"/><path class="cls-4" d="M10.74,63.786q6.317,2.1,12.6,4.29L35.881,72.52,48.376,77.1l6.23,2.337,6.207,2.4L54.5,79.722l-6.289-2.175L35.672,73.1,23.178,68.521Q16.939,66.206,10.74,63.786Z"/><path class="cls-1" d="M14.088,74.558s-2.738,3.3-2.317,9.273c.424,6.011,4.53,9.176,6.427,8.706s5.967-2.394,5.88-7.024-3.488-9.268-5.055-10.541S14.088,74.558,14.088,74.558Z"/><path class="cls-2" d="M17.45,78.941s-3.293,2.042-2.87,5.279,1.734,5.2,3.428,4.691,2.247-3.7,2.042-5.463S20.113,78.625,17.45,78.941Z"/><path class="cls-10" d="M79.982,119.547l-.418-48.932s.827-4.464,1.738-8.56a27.635,27.635,0,0,1,3.86-8.92s2.9-1.81,24.129-1.292,26.637-.13,28.567,1.292,5.6,12.258,5.405,15.5.008,41.183.008,41.183-.2,5-1.359,7.026a5.333,5.333,0,0,1-5.6,2.928c-2.509-.388-55.389.471-55.389.471Z"/><path class="cls-11" d="M86.33,91.912l54.038-.125s-7.97,6.988-25.758,6.8C91.621,98.337,86.33,91.912,86.33,91.912Z"/><ellipse class="cls-12" cx="91.613" cy="109.945" rx="3.555" ry="3.397"/><ellipse class="cls-12" cx="99.832" cy="110.835" rx="2.123" ry="2.172"/><rect class="cls-13" x="88.058" y="100.006" width="9.072" height="4.194" rx="1.837"/><polygon class="cls-14" points="103.693 106.548 105.816 113.007 122.899 113.007 126.746 106.252 103.693 106.548"/><polygon class="cls-15" points="108.325 114.684 122.416 114.684 122.416 117.62 109.194 117.62 108.325 114.684"/><path class="cls-16" d="M85.418,68.76V92.023s10.9,8.051,30.011,7.045,24.708-6.71,24.708-6.71V68.241a2,2,0,0,0-2.023-2l-50.8.6A1.921,1.921,0,0,0,85.418,68.76Z"/><line class="cls-17" x1="82.459" y1="105.427" x2="139.668" y2="104.66"/><line class="cls-17" x1="82.152" y1="114.303" x2="138.134" y2="113.94"/><line class="cls-17" x1="105.848" y1="107.728" x2="125.142" y2="108.038"/><line class="cls-17" x1="107.152" y1="109.629" x2="121.8" y2="109.262"/><line class="cls-17" x1="106.692" y1="111.17" x2="120.573" y2="110.835"/><line class="cls-17" x1="109.76" y1="111.946" x2="121.359" y2="112.176"/><ellipse class="cls-12" cx="137.867" cy="109.523" rx="3.555" ry="3.397"/><ellipse class="cls-12" cx="129.648" cy="110.412" rx="2.123" ry="2.172"/><rect class="cls-13" x="132.35" y="99.584" width="9.072" height="4.194" rx="1.837" transform="translate(273.772 203.361) rotate(-180)"/><line class="cls-17" x1="115.66" y1="98.497" x2="115.077" y2="66.107"/><polygon class="cls-18" points="126.965 58.105 127.481 62.767 100.235 62.25 100.546 57.925 126.965 58.105"/><path class="cls-19" d="M80.1,65.98s-7.233-2.867-7.544,1.458,2.618,10.317,4.754,10.647a2.95,2.95,0,0,0,3.014-1.866l-.008-10.395"/></svg>