<svg id="word" xmlns="http://www.w3.org/2000/svg" xmlns:xlink="http://www.w3.org/1999/xlink" viewBox="0 0 160 160"><defs><style>.cls-1{fill:#b7b9bb;}.cls-1,.cls-10,.cls-11,.cls-12,.cls-2,.cls-3,.cls-4,.cls-5,.cls-6,.cls-7,.cls-8,.cls-9{stroke:#9d4b9c;stroke-width:0.773px;}.cls-2{fill:url(#radial-gradient);}.cls-3{fill:#3e3e3f;}.cls-4{fill:url(#linear-gradient);}.cls-5{fill:#569ad3;}.cls-6{fill:#dfe0e1;}.cls-7{fill:none;}.cls-8{fill:#fdc367;}.cls-9{fill:#f59182;}.cls-10{fill:#4d8abc;}.cls-11{fill:#4881b0;}.cls-12{fill:url(#radial-gradient-2);}</style><radialGradient id="radial-gradient" cx="4478.456" cy="-293.449" r="2.93" gradientTransform="matrix(-0.738, 0, 0, 0.646, 3344.571, 284.059)" gradientUnits="userSpaceOnUse"><stop offset="0" stop-color="#fff"/><stop offset="1" stop-color="#4e4f51"/></radialGradient><linearGradient id="linear-gradient" x1="763.476" y1="51.137" x2="765.416" y2="94.476" gradientTransform="translate(-686.168)" gradientUnits="userSpaceOnUse"><stop offset="0" stop-color="#0097d5"/><stop offset="1" stop-color="#0068a0"/></linearGradient><radialGradient id="radial-gradient-2" cx="4358.795" cy="-292.861" r="2.93" xlink:href="#radial-gradient"/></defs><path class="cls-1" d="M29.211,94.92a9.471,9.471,0,1,0,9.468-9.644A9.558,9.558,0,0,0,29.211,94.92Zm14.52,1.614-4.265-2.622,2.9-2.624s1.932.984,2.253,2.3S43.731,96.534,43.731,96.534Zm-5.392,4.154,1.127-4.672,3.46,1.393s-.241,2.213-2.011,2.7A17.759,17.759,0,0,1,38.339,100.688Zm0-7.6L35.2,90.059a8.411,8.411,0,0,1,3.46-.9,2.706,2.706,0,0,1,2.172,1.229Zm-5.15,4.344,4.345-1.148-.4,4.017s-2.011.328-2.575-.327A14.338,14.338,0,0,1,33.189,97.436Zm-.483-4.18a2.894,2.894,0,0,1,1.288-2.131l2.816,2.7-3.942,1.885A9.752,9.752,0,0,1,32.706,93.256Z"/><path class="cls-2" d="M36.48,94.46a2.026,2.026,0,1,0,2.026-2.007A2.016,2.016,0,0,0,36.48,94.46Z"/><path class="cls-3" d="M27.577,94.884A10.757,10.757,0,1,0,38.331,83.873,10.886,10.886,0,0,0,27.577,94.884Zm2.374,0a8.383,8.383,0,1,1,8.38,8.582A8.483,8.483,0,0,1,29.951,94.884Z"/><path class="cls-4" d="M141.337,94.787s3.708-.607,4.6-1.367,2.584-4.263,1.006-10.318c-1.646-6.323-1.747-8.06-10.5-11.1s-21.657-4.861-23.734-5.772-14.24-9.872-15.872-11.088.149-3.949-7.269-3.949S77.4,50.134,67.316,50.134s-11.423,0-15.724,2.126S36.758,64.715,36.758,64.715s-.742.759-5.34,1.215-9.5.76-11.867,1.519S15.1,67.6,14.359,71.4a67.317,67.317,0,0,1-2.819,10.48c-.89,2.127-2.373,5.62,0,8.81S24.446,96,24.446,96l2.373.151S28.9,86.13,36.906,84.915s12.757,9.417,12.757,9.417L113.449,95.7s5.34-15.948,15.872-12.151,9.494,11.392,9.494,11.392Z"/><path class="cls-5" d="M53.372,96.458s.445-15.492-13.944-15.036c-10.823.343-9.049,1.519-12.016,4.708s-3.115,11.7-3.115,11.7l2.225-.152s2.522-15.036,14.612-12.3c6.669,1.508,8.678,11.087,8.678,11.087S53.668,99.952,53.372,96.458Z"/><path class="cls-6" d="M87.193,54.538s18.246,11.544,14.686,12-25.812-.455-25.812-.455l-4.6-12.3S82.594,50.437,87.193,54.538Z"/><path class="cls-6" d="M68.5,54.235l2.966,11.087-29.667.3,8.9-6.683s2.966-4.1,6.527-4.861S68.5,54.235,68.5,54.235Z"/><path class="cls-6" d="M93.572,52.564s-3.56-.152-1.484,1.822,14.389,11.088,14.389,11.088l4.747-.455-16.169-11.7Z"/><path class="cls-6" d="M50.553,52.716s2.522.759,1.039,1.975-13.5,10.783-13.5,10.783l-2.967-.152Z"/><path class="cls-5" d="M95.055,64.867s2.967-2.734,3.708-.152,2.819,5.164,1.038,5.923S94.907,66.993,95.055,64.867Z"/><path class="cls-7" d="M74.733,66.69s.742,18.529.742,20.2-.594,3.341,0,4.4A2.9,2.9,0,0,0,78,92.813h24.476"/><path class="cls-8" d="M133.623,73.221S132.288,76.409,136,78.08s6.971,2.734,5.488-.151S137.628,72.006,133.623,73.221Z"/><path class="cls-8" d="M147.2,83.958s-3.259.054-3.259,2.637a5.281,5.281,0,0,0,3.114,4.4c.446,0,1.187-1.519,1.187-1.519Z"/><path class="cls-9" d="M14.062,72.157S19.7,72.613,19.7,75.8s-7.565,3.341-7.565,3.341Z"/><path class="cls-7" d="M40.169,68.056l.446,11.087s.593,1.216,2.818,1.216,7.418,3.493,8.9,6.531a41.417,41.417,0,0,1,2.226,5.468l20.618-.152"/><path class="cls-10" d="M85.507,70.655s1.888,3.935-.931,3.935-6.189-.083-6.189-.083-1.578-4.172.5-4.172A38.675,38.675,0,0,1,85.507,70.655Z"/><rect class="cls-11" x="77.403" y="72.309" width="10.681" height="0.608"/><polyline class="cls-7" points="131.25 72.157 119.086 69.575 108.851 69.119"/><path class="cls-1" d="M117.547,95.3a9.47,9.47,0,1,0,9.468-9.645A9.557,9.557,0,0,0,117.547,95.3Zm14.519,1.613L127.8,94.292l2.9-2.624s1.93.984,2.252,2.295S132.066,96.914,132.066,96.914Zm-5.391,4.153L127.8,96.4l3.461,1.393s-.242,2.213-2.012,2.7A17.607,17.607,0,0,1,126.675,101.067Zm0-7.6-3.138-3.032a8.41,8.41,0,0,1,3.459-.9,2.709,2.709,0,0,1,2.173,1.229Zm-5.151,4.345,4.346-1.148-.4,4.017s-2.012.328-2.575-.327A14.294,14.294,0,0,1,121.524,97.816Zm-.482-4.18a2.892,2.892,0,0,1,1.287-2.132l2.817,2.706L121.2,96.1A9.727,9.727,0,0,1,121.042,93.636Z"/><path class="cls-12" d="M124.815,94.84a2.026,2.026,0,1,0,2.026-2.006A2.016,2.016,0,0,0,124.815,94.84Z"/><path class="cls-3" d="M115.913,95.263a10.757,10.757,0,1,0,10.754-11.011A10.885,10.885,0,0,0,115.913,95.263Zm2.373,0a8.383,8.383,0,1,1,8.381,8.582A8.483,8.483,0,0,1,118.286,95.263Z"/><path class="cls-5" d="M141.782,95.7s-.949-15.721-14.167-15.644c-12.979.076-15.352,15.8-15.352,15.8l3.411,1.215s4.153-13.67,11.719-12.758,9.642,12,10.977,12A15.764,15.764,0,0,0,141.782,95.7Z"/><path class="cls-10" d="M51.241,70.731s1.888,3.935-.931,3.935-6.189-.083-6.189-.083-1.578-4.173.5-4.173A38.662,38.662,0,0,1,51.241,70.731Z"/><rect class="cls-11" x="43.136" y="72.385" width="10.681" height="0.608"/></svg>