<svg id="word" xmlns="http://www.w3.org/2000/svg" viewBox="0 0 160 160"><defs><style>.cls-1{fill:#93a354;}.cls-2{fill:#b63044;stroke:#9c4c9c;stroke-width:0.911px;}.cls-3{fill:#cf4e52;}.cls-4{fill:#ef6f99;}.cls-5{fill:#aaaa53;}</style></defs><path class="cls-1" d="M123.26,92.276c1.09-5.01,1.548-5.284,6.364-5.957,5.39-.746,4.966-4.823,7.757-8.377-.568,8.057-4.572,15.1-12.542,17.7"/><path class="cls-1" d="M123.61,91.467s2.712-.847,5.189,2.071c2.956,3.47,4.681,2.213,4.681,2.213l2.184-1.984,18.653-15.661L155,80.343S143.013,93.56,136.545,95.667c-2.516.821-3.559,3.635-5.911,1.429-1.2-1.13-3.483-3.6-4.193-2.522s-.257,4.267-.257,4.267"/><path class="cls-1" d="M116.709,88.656s-3.71-4.26-3.025-7.888c.668-3.63-.366-4.128,3.387-7.24,1.839-1.532,2.594-.715,3.307-3.053a4.894,4.894,0,0,0-.638-4.125s1.423-.36,3.606,1.842-.071,4.477-1.25,6.044-3.7,3.637-1.05,5.333c2.695,1.732,5.439,1.695,3.724,4.967a31.037,31.037,0,0,1-2.721,4.49s4.565,2.564,3.6,4.183c-2.262,3.814.911,2.264,3.6,4.174,2.674,1.909,2.837,1.268,4.035,3.683,1.179,2.414,2.383,4.469,4.794,3.893s.6-3.491,1.04-5.973,3.9-5.426,3.9-5.426-2.426,3.278-1.524,5.9,2.476,3.971.782,6.54-6.946,1.532-6.946,1.532,1.082,3.617,4.525,3.743,4.616-1.086,5.13-2.085c.53-1-.3-3.767.652-4.911s-.2-.64.757,2.564a7.015,7.015,0,0,1-2.431,7.969c-2.537,2.144-8.727,2.237-10.5-1.729-1.777-3.983-5.58-11.43-6.606-12.49a23.107,23.107,0,0,0-4.343-4.106C120.309,95.012,116.709,88.656,116.709,88.656Z"/><path class="cls-2" d="M121.8,91.337a17.946,17.946,0,0,0-4.343-3.93c-2.011-1.3-.921-2.9-1.894-3.583-.958-.672-3.168-4.142-6.43-3.274-2.642.7-5.035,4.213-5.035,4.213s-5.839-.9-8.263,3.379c-1.584,2.8-2.167,4.141-2.167,4.141s-2.694.423-3.524,2.361c-.647,1.475-1.63,4.766-1.63,4.766s-3.668,2.876-4.484,5.847a6.329,6.329,0,0,0,1.595,6.5s-.83,2.74.2,3.8a8.111,8.111,0,0,0,1.991,1.552s-.11,3.2.918,3.907a15.045,15.045,0,0,0,1.737,1.057,3.4,3.4,0,0,0,2.015,3.2c2.2,1.125,1.854,1.129,3.708,2.609s6.932,1.189,6.932,1.189l2.7-1.157s3.591,2.187,5.993,1.972a3.353,3.353,0,0,0,2.956-2.294,4.136,4.136,0,0,0,5.036.879,9.832,9.832,0,0,0,4.956-5.513s2.657,2.227,5.428,1.3a7.059,7.059,0,0,0,4.835-7.138c-.062-1.346-.559-2.574-.578-4.08-.012-2.635.276-3.315-.643-4.941-.535-.929-3.72-1.492-3.7-3.5.043-3.416-.575-4.534-1.284-5.486-1.577-2.116-4.928-2.085-5.5-2.664C123.015,96.129,122.684,92.428,121.8,91.337Z"/><path class="cls-3" d="M102.857,86.482s-2.017,3.492,1.169,5.106,8.006.463,10.192-1.673,2.695-5.134.7-6.686c0,0-2.907-2.654-5.02-2.643S103.991,84.621,102.857,86.482Z"/><path class="cls-3" d="M117.181,89.44A4.92,4.92,0,0,1,122,91.618c1.88,2.772-1.031,7.161-3.2,8.946s-6.58,3.156-9.715-.254c-3.13-3.39.847-7.422.847-7.422a30.693,30.693,0,0,1,2.938-2.12C116.082,88.7,117.181,89.44,117.181,89.44Z"/><path class="cls-3" d="M114.779,104.209s-.753,3.767,1.43,5.968c2.175,2.185,5.281.448,8.925-1.97,6.869-4.535,4.479-7.519,3.43-9.177-2.216-3.484-6.2-.894-6.2-.894a32.8,32.8,0,0,0-3.791,1.856C116.564,101.145,114.779,104.209,114.779,104.209Z"/><path class="cls-3" d="M113.926,107.831s-2.065,2.928-3.921,3.783-4.789,2.088-6.15-3.67,4.062-8.048,4.062-8.048a5.785,5.785,0,0,1,3.818.584C113.985,101.543,115.067,103.983,113.926,107.831Z"/><path class="cls-3" d="M119.356,111.867s1.347,4.122-.633,6.54-5.96,1.669-8.717-.458c-2.74-2.124-.984-4.121-.984-4.121s.229-3.131,2.883-3.5,2.79-.473,4.3-.151S118.871,110.448,119.356,111.867Z"/><path class="cls-3" d="M125.134,108.207a10.355,10.355,0,0,1,3.431-.685c3.882-.375,6.82,4.744,5.615,7.374-1.22,2.626-8.536,5.043-11.992,2.929s-1.395-4.683-1.395-4.683S120.192,109.944,125.134,108.207Z"/><path class="cls-3" d="M106.981,98.341c-.366,1.605-3.65,4.1-3.65,4.1s-2.885.971-5.352-2.186c-2.989-3.827,2.673-8.76,2.673-8.76s.737-1.066,4.285.2S107.919,94.206,106.981,98.341Z"/><path class="cls-3" d="M108.135,117.168s-5.183,3.506-7.162,3.943-5.16,1.149-4.352-4.745c.588-4.3,7.045-6.071,7.045-6.071a4.88,4.88,0,0,1,3.016.633C108.236,111.8,109.333,114.9,108.135,117.168Z"/><path class="cls-3" d="M96.523,101.866s-4.447,2.793-4.149,6.56,6.481,4.012,6.481,4.012,3.852-1.463,4.913-3,.1-5.191-.713-7.134c-.627-1.482-3.958-1.654-6.532-.437"/><path class="cls-3" d="M92.231,106.36s-2.083,3.279-3.411-1.195c-1.345-4.476,3.332-7.7,3.332-7.7s3.2-2.887,4.838-.524c1.655,2.392.851,3.067.189,3.985C96.523,101.866,92.231,106.36,92.231,106.36Z"/><path class="cls-3" d="M112.307,122.1s-2.054,3.919-3.7,4.7-2.153,1.44-5.2-.124c-3.047-1.545-2.284-3.321-2.284-3.321s-.265-.682,1.887-2.748c2.135-2.07,4.029-4,5.733-3.4s3.2,1.269,3.25,3.184C112.013,122.309,112.307,122.1,112.307,122.1Z"/><path class="cls-4" d="M110.323,84.947c-1.347,1.087-2.745,2.067-3.539,1.051s-.334-2.717,1.013-3.806,3.079-1.151,3.867-.13S111.669,83.86,110.323,84.947Z"/><path class="cls-4" d="M116.776,93.2c-1.333,1.093-2.789,2.5-3.582,1.483s-.346-2.726,1.017-3.811c1.332-1.095,3.074-1.145,3.866-.129S118.133,92.125,116.776,93.2Z"/><path class="cls-4" d="M103.524,95.227c-1.345,1.085-2.974,2.669-3.768,1.652s-.342-2.733,1-3.821,3.086-1.135,3.878-.119S104.877,94.131,103.524,95.227Z"/><path class="cls-4" d="M109.164,103.871c-1.353,1.1-2.736,2.709-3.523,1.684-.8-1.007-.349-2.725,1-3.812s3.087-1.137,3.879-.121S110.509,102.786,109.164,103.871Z"/><path class="cls-4" d="M122.632,101.615c-1.345,1.084-3.083,2.384-3.872,1.362s-.076-1.728,1.271-2.814,3.362-1.674,4.155-.658S123.984,100.522,122.632,101.615Z"/><path class="cls-3" d="M114.422,120.732l-.914,2.249a6.081,6.081,0,0,0,.44,3.833c1.579,2.518,4.455,1.554,5.606,1.051S122.448,125,122.448,125s2.732-2.674,1.721-5.084-3.179-3.152-6.126-2.4A5.043,5.043,0,0,0,114.422,120.732Z"/><path class="cls-4" d="M119.691,120.771c-1.131.9-3.055,2.271-3.629,1.547s.231-1.707,1.35-2.621c1.127-.9,2.732-1.472,3.3-.741S120.807,119.862,119.691,120.771Z"/><path class="cls-4" d="M128.932,112.677a2.721,2.721,0,0,1-3.855-.336c-.792-1.018-.013-1.336,1.321-2.433,1.358-1.075,3.7-.14,4.5.875S130.283,111.584,128.932,112.677Z"/><path class="cls-4" d="M116.5,113.255c-1.226.479-2.614,1.343-2.962.321a2.288,2.288,0,0,1,1.6-2.7,2.117,2.117,0,0,1,2.873,1C118.358,112.9,117.739,112.782,116.5,113.255Z"/><path class="cls-4" d="M104.279,113.5c-1.608.63-3.522,2.661-3.964,1.435s.494-2.727,2.093-3.367,3.24-.162,3.682,1.064S105.878,112.859,104.279,113.5Z"/><path class="cls-4" d="M108.674,120.47c-1.238.469-2.62,1.352-2.967.33a2.3,2.3,0,0,1,1.605-2.7,2.118,2.118,0,0,1,2.871,1C110.53,120.119,109.911,120,108.674,120.47Z"/><path class="cls-3" d="M92.625,109.45c-2.388-3.861-4.3-1.085-4.116-1.372,1.266-1.884-4.452,2.975-2.561,6.559,1.1,2.086,1.885,2.766,3.6,1.649C91.269,115.184,95.359,111.931,92.625,109.45Z"/><path class="cls-3" d="M88.121,101.648a3.941,3.941,0,0,0-3.288,2.578c-1.176,2.564-1.431,5.229-.055,5.933s4.469-1.973,4.257-4.25A19.288,19.288,0,0,0,88.121,101.648Z"/><path class="cls-3" d="M102.962,85.092s-3.059-1.2-6,1.9a6.933,6.933,0,0,0-1.668,7.017c.627,2.486,1.647,3.729,2.463,2.336s3.313-5.814,3.781-6.2S103.3,85.621,102.962,85.092Z"/><path class="cls-3" d="M96.559,112.99s-2.433-2.223-3.3-.593-5.155,5.147-4.871,7.28,2.851,2.076,4.848,1.116S97.974,114.794,96.559,112.99Z"/><path class="cls-3" d="M94.337,92.981s-2.249-1.237-3.908,1.435c-.952,1.522-1.65,4.14-1.229,5.166s.879.178,1.4-.828c.526-.988,3.073-2.5,3.073-2.5S96.438,94.687,94.337,92.981Z"/><path class="cls-4" d="M94.279,99.6c-1.072.851-2.375,2.082-2.9,1.417s-.086-1.917.99-2.774,2.349-1.023,2.866-.346S95.342,98.727,94.279,99.6Z"/><path class="cls-4" d="M99.73,87.419c-1.07.852-1.9,2.82-2.429,2.156s-.08-1.924.99-2.776,2.36-1.011,2.867-.346C101.7,87.128,100.794,86.554,99.73,87.419Z"/><path class="cls-3" d="M96.935,118.785s-6.582,2.156-6.023,4.43,3.08,2.83,5,2.369,3.675-1.833,2.878-3.32Z"/><path class="cls-4" d="M96.2,121.759c-.832.312-1.767.935-2.03.154a1.622,1.622,0,0,1,1.035-1.982,1.5,1.5,0,0,1,2,.838C97.469,121.541,97.035,121.433,96.2,121.759Z"/><path class="cls-4" d="M100.43,103.937c-1.6.638-3.516,2.679-3.958,1.452s.5-2.728,2.094-3.369,3.24-.161,3.682,1.067S102.021,103.306,100.43,103.937Z"/><path class="cls-4" d="M86.772,104.215c-.409.811-.771,1.837-1.24,1.6-.488-.237-.532-1.082-.129-1.887.423-.8,1.153-1.259,1.636-1.013S87.194,103.411,86.772,104.215Z"/><path class="cls-4" d="M89.761,110.069c-.422.8-.777,1.845-1.258,1.6s-.533-1.082-.11-1.886,1.146-1.25,1.628-1S90.176,109.274,89.761,110.069Z"/><path class="cls-4" d="M94.17,114.717c-.683.592-1.4,1.433-1.737,1.022-.353-.415-.083-1.221.6-1.813.677-.609,1.51-.749,1.865-.337C95.233,114,94.852,114.125,94.17,114.717Z"/><path class="cls-3" d="M99.519,122.54s-3.022,2.254-3.182,3.892a1.888,1.888,0,0,0,1.58,2.164c1.056.172,4.3.833,5.419-.135,1.137-.962-1.475-2.2-1.864-3.117S101.252,122.25,99.519,122.54Z"/><path class="cls-4" d="M99.988,124.933c-.682.592-1.4,1.436-1.756,1.02-.336-.41-.076-1.225.611-1.826.676-.586,1.516-.735,1.869-.319S100.657,124.331,99.988,124.933Z"/><path class="cls-3" d="M133.743,117.323a6.791,6.791,0,0,1-1.057,3.789,6.431,6.431,0,0,1-4.367,2.137c-.961-.118-3.183-.716-3.542-1.423-1.3-2.554-.125-3.069-.125-3.069a20.457,20.457,0,0,0,5.277-.7c1.593-.208,3.559-2.358,3.559-2.358a1.86,1.86,0,0,1,.331,1.346"/><path class="cls-4" d="M131.986,119.473c-.756.614-2.089,1.534-2.532.963s.06-1.281.83-1.891,1.9-.959,2.341-.385S132.758,118.864,131.986,119.473Z"/><path class="cls-5" d="M41.581,83.7C14.368,73.113-3.039,28.8,24.859,7.314l1.234,1.474s-8.107,6.49-10.964,13.32c-1.136,2.715-4.374,14.019-1.152,23.922,1.789,5.5,7.154,18.843,10.6,22.139S37.629,80.141,37.629,80.141l5.318,2.617Z"/><path class="cls-5" d="M42.088,85.958S31.076,95.332,28.205,100.4s-6.831,6.381-9.577,2.959S9.18,97.823,8.2,97.87c-.978.032-.511-2.624,5.243-.764s8.861,4.377,9,1.729,1.832-3.864,5.273-7.492,9.914-9.413,9.914-9.413-9.62,3.845-12.319,5.7-11.68,5.954-14.129,3.114S8.958,83.509,7.408,82.09,4,78.987,4,78.987s6.029,2.728,7.875,4.7c1.843,1.992,4.04,3.372,9.094-.02s8.988-4.1,10.282-4.152a52.646,52.646,0,0,0,6.527-1.657A31.168,31.168,0,0,1,39.2,70.47c1.136-2.965-.374-11.4-2.229-13.093s-5.617-4.494-5.617-4.494,4.281-1.014,7.073,1.523,5,3.636,4.773,8.032-1.574,13.268-1.574,13.268,5.213-8.424,6.643-10.817.892-10.857-.329-12.271A12.858,12.858,0,0,0,44.5,50.1s8.343,2.061,8.037,7.924-1.508,10-5.272,13.631C43.5,75.3,42.088,85.958,42.088,85.958Z"/><path class="cls-2" d="M35.405,86.568a22.588,22.588,0,0,0-3.3,5.672c-.975,2.455-2.924,1.911-3.436,3.107s-4.976,2.974-3.095,8.41c.891,2.575,5.713,3.25,5.713,3.25s.707,6.784,5.772,7.738a8.125,8.125,0,0,0,5.191-.4s1.655,3.594,3.879,3.776a15.166,15.166,0,0,0,4.808-1.067s3.841,2.675,7.184,2.483a8.15,8.15,0,0,0,6.622-3.791s3.1-.116,4.026-1.493a9.757,9.757,0,0,0,1.252-2.513s3.437-.99,3.979-2.256a19.454,19.454,0,0,0,.774-2.088A4.344,4.344,0,0,0,77.77,104.3c.752-2.59.823-2.24,2.022-4.6s-.17-7.314-.17-7.314l-1.791-2.309s1.6-4.326.857-6.648-2.22-2.521-2.22-2.521a4.2,4.2,0,0,0-.442-5.115c-2.551-3.144-6.97-3.19-6.97-3.19a9.3,9.3,0,0,0-1.441-4.975c-1.51-2.356-3.465-4.445-7.38-3.019-1.431.517-2.634,1.446-4.249,1.957-2.8.917-3.6.853-5.141,2.337-.88.846-.827,4.2-2.979,4.868-3.659,1.122-4.733,2.118-5.6,3.138-1.934,2.294-1.2,5.632-1.706,6.4C40.269,83.733,36.379,85.318,35.405,86.568Z"/><path class="cls-3" d="M34.143,107.133s4.156.82,5.222-2.914a8.951,8.951,0,0,0-3.912-9.6c-2.741-1.446-6.04-.949-7.288,1.577,0,0-2.234,3.8-1.779,5.906C26.823,104.215,31.926,106.618,34.143,107.133Z"/><path class="cls-3" d="M34.332,91.826a5.277,5.277,0,0,1,1.341-5.554c2.568-2.823,7.853-1.4,10.213.152A6.738,6.738,0,0,1,47.643,96.2c-2.987,4.274-8.123,1.688-8.123,1.688a27.167,27.167,0,0,1-2.869-2.225C33.776,93.173,34.332,91.826,34.332,91.826Z"/><path class="cls-3" d="M50.615,89.2S54.8,88.67,56.7,85.75s-.618-5.435-3.948-8.241c-6.285-5.312-8.979-1.913-10.536-.3-3.251,3.388.325,6.486.325,6.486a30.176,30.176,0,0,0,2.788,3.146C46.978,88.468,50.615,89.2,50.615,89.2Z"/><path class="cls-3" d="M54.685,88.826s3.545,1.065,4.852,2.622,3.222,4.063-2.652,7.384-9.455-1.31-9.455-1.31a5.613,5.613,0,0,1-.155-4.018C47.935,90.9,50.323,88.986,54.685,88.826Z"/><path class="cls-3" d="M57.86,82.032s4.12-2.749,7.121-1.6,3.013,5.385,1.317,8.847-4.2,2.4-4.2,2.4-3.4.826-4.333-1.7S56.675,87.356,56.7,85.75,56.441,82.988,57.86,82.032Z"/><path class="cls-3" d="M52.755,77.509a8.831,8.831,0,0,1-1.448-3.2c-1.2-3.752,3.646-8.411,6.718-8.1s7.17,6.8,5.621,10.96-4.725,2.992-4.725,2.992S55.625,81.852,52.755,77.509Z"/><path class="cls-3" d="M45.963,98.987c1.793-.177,5.145,2.242,5.145,2.242s1.63,2.54-1.222,6.082c-3.46,4.28-9.917.3-9.917.3s-1.293-.368-.674-4.33S41.356,99.45,45.963,98.987Z"/><path class="cls-3" d="M65.867,91.422s4.814,3.974,5.691,5.807,2.3,4.766-4.163,5.955c-4.727.873-7.963-4.975-7.963-4.975A4.882,4.882,0,0,1,59.483,95C60.1,93.143,63.184,91,65.867,91.422Z"/><path class="cls-3" d="M51.905,108.218s3.91,3.494,7.873,1.914,2.959-7.842,2.959-7.842-2.374-3.341-4.236-3.883-5.572,1.661-7.485,3.149c-1.443,1.117-.942,4.515.889,6.662"/><path class="cls-3" d="M57.608,110.977s3.932.952-.574,3.811-8.913-.724-8.913-.724-3.753-2.19-1.563-4.65,3.1-1.891,4.219-1.543S57.608,110.977,57.608,110.977Z"/><path class="cls-3" d="M70.266,85.583s4.61.717,5.8,2.1c1.182,1.361,1.978,1.652.948,5.225s-3.088,3.411-3.088,3.411-.67.488-3.318-.944-5.118-2.667-4.834-4.565.687-3.612,2.731-4.323C70.553,85.8,70.266,85.583,70.266,85.583Z"/><path class="cls-4" d="M30.968,100.192c1.437.979,2.775,2.046,1.854,3.18a3.284,3.284,0,0,1-4.289.294c-1.438-.98-1.868-2.7-.939-3.833S29.519,99.216,30.968,100.192Z"/><path class="cls-4" d="M38.451,90.942c1.44.979,3.244,1.94,2.324,3.074a3.262,3.262,0,0,1-4.288.293c-1.44-.978-1.865-2.683-.937-3.82S37,89.966,38.451,90.942Z"/><path class="cls-4" d="M43.36,103.493c1.437.966,3.462,2.061,2.542,3.2a3.26,3.26,0,0,1-4.283.291c-1.45-.975-1.859-2.684-.939-3.819S41.9,102.519,43.36,103.493Z"/><path class="cls-4" d="M51.426,94.92c1.448.975,3.469,1.806,2.543,2.943a3.27,3.27,0,0,1-4.289.293c-1.439-.979-1.858-2.687-.938-3.822S49.99,93.953,51.426,94.92Z"/><path class="cls-4" d="M46.218,82.241c1.439.98,3.185,2.273,2.265,3.408s-1.833.656-3.272-.309-2.494-2.79-1.566-3.927S44.769,81.267,46.218,82.241Z"/><path class="cls-3" d="M68.369,83.935l2.585.142a7.649,7.649,0,0,0,4.012-1.744c2.368-2.43.727-4.967-.044-5.938s-3.664-1.935-3.664-1.935-3.426-1.8-5.793.029-2.707,4.241-1.288,6.923A4.681,4.681,0,0,0,68.369,83.935Z"/><path class="cls-4" d="M67.309,78.675c1.207.8,3.064,2.276,2.419,3.074-.658.816-1.89.368-3.09-.442s-2.145-2.231-1.481-3.036S66.109,77.864,67.309,78.675Z"/><path class="cls-4" d="M56.734,72.2a2.666,2.666,0,0,1,.434,3.961c-.915,1.145-1.411.473-2.856-.5s-.924-3.633-.006-4.78C55.239,69.749,55.3,71.217,56.734,72.2Z"/><path class="cls-4" d="M59.943,84.393c.763,1.088,1.977,2.161.961,2.864a2.367,2.367,0,0,1-3.229-.687,2.264,2.264,0,0,1,.474-3.2C59.179,82.673,59.176,83.334,59.943,84.393Z"/><path class="cls-4" d="M62.729,96.521c1.012,1.378,3.586,2.613,2.369,3.468a2.993,2.993,0,0,1-4.038-.95A2.836,2.836,0,0,1,61.432,95C62.641,94.145,61.719,95.142,62.729,96.521Z"/><path class="cls-4" d="M69.276,89.767c.757,1.064,1.982,2.147.964,2.849a2.367,2.367,0,0,1-3.225-.688,2.27,2.27,0,0,1,.475-3.2C68.513,88.021,68.517,88.691,69.276,89.767Z"/><path class="cls-3" d="M60.83,109.536c-3.639,3.691-.275,4.647-.608,4.555-2.287-.61,4.1,3.448,7.533.341,2-1.817,2.569-2.823,1.02-4.166S62.91,105.962,60.83,109.536Z"/><path class="cls-3" d="M53.42,116.673s.456,2.105,3.436,2.41,5.888-.357,6.359-1.974-3.042-3.779-5.429-2.8A25.987,25.987,0,0,0,53.42,116.673Z"/><path class="cls-3" d="M32.639,107.49s-.647,3.464,3.283,5.342c2.767,1.338,5.317.751,7.849-.717s3.638-2.905,1.981-3.244-6.9-1.34-7.412-1.677S33.131,106.972,32.639,107.49Z"/><path class="cls-3" d="M63.8,104.4s-1.884,3.182.045,3.477,6.571,3.4,8.8,2.4c2.219-1.022,1.631-3.561.183-5.234S65.441,102.375,63.8,104.4Z"/><path class="cls-3" d="M42.869,113.41s-.857,2.666,2.348,3.424c1.823.422,4.759.234,5.767-.543s.01-.928-1.169-1.11-3.306-2.215-3.306-2.215S44.256,110.749,42.869,113.41Z"/><path class="cls-4" d="M49.943,111.229c1.137.775,2.725,1.665,2.121,2.416s-2.031.719-3.173-.056-1.569-2-.966-2.747S48.8,110.468,49.943,111.229Z"/><path class="cls-4" d="M35.8,109.934c1.14.775,3.412.932,2.808,1.684s-2.029.73-3.167-.045-1.575-2-.969-2.747S34.648,109.162,35.8,109.934Z"/><path class="cls-3" d="M69.912,102.049s3.674,5.837,5.988,4.5a4.291,4.291,0,0,0,1.49-5.782c-.9-1.749-2.721-3.049-4.15-1.747S69.912,102.049,69.912,102.049Z"/><path class="cls-4" d="M73.236,101.773c.517.731,1.367,1.44.6,1.979A1.7,1.7,0,0,1,71.5,103.4a1.622,1.622,0,0,1,.479-2.277C72.741,100.581,72.723,101.054,73.236,101.773Z"/><path class="cls-4" d="M53.317,103.609c1.016,1.378,3.58,2.6,2.366,3.457a2.968,2.968,0,0,1-4.026-.942,2.839,2.839,0,0,1,.362-4.037C53.239,101.233,52.306,102.229,53.317,103.609Z"/><path class="cls-4" d="M56.45,117.145c.944.139,2.121.145,1.962.7s-1.047.9-1.993.761c-.941-.154-1.577-.727-1.421-1.288S55.5,116.992,56.45,117.145Z"/><path class="cls-4" d="M62.089,112.171c.945.152,2.129.155,1.967.717s-1.051.9-2,.75-1.573-.716-1.419-1.276S61.143,112.03,62.089,112.171Z"/><path class="cls-4" d="M66.134,106.194c.779.474,1.824.905,1.459,1.391a1.628,1.628,0,0,1-2.075.009c-.776-.475-1.109-1.252-.734-1.741S65.365,105.717,66.134,106.194Z"/><path class="cls-3" d="M73.4,98.194s3.023,2.248,4.81,1.856a2.357,2.357,0,0,0,1.982-2.318c-.037-1.106,0-4.578-1.268-5.373s-2.039,2.22-2.94,2.931S72.724,96.564,73.4,98.194Z"/><path class="cls-4" d="M75.85,96.922c.775.475,1.818.907,1.452,1.394s-1.3.484-2.069.006c-.782-.473-1.105-1.254-.739-1.741S75.075,96.434,75.85,96.922Z"/><path class="cls-3" d="M60.707,65.807s2.556-.878,4.267-.223a5.56,5.56,0,0,1,3.192,3.627c.072,1-.108,3.425-.771,4.026-2.473,2.164-3.263,1.174-3.263,1.174a18.169,18.169,0,0,0-1.846-5.048c-.551-1.509-3.261-2.747-3.261-2.747a2.388,2.388,0,0,1,1.368-.792"/><path class="cls-4" d="M63.371,66.828c.82.552,2.076,1.565,1.55,2.207s-1.38.377-2.2-.178-1.409-1.581-.889-2.222S62.555,66.275,63.371,66.828Z"/><path class="cls-2" d="M72.81,109.191a12.216,12.216,0,0,0-3.649.645c-1.445.481-1.781-.595-2.494-.389s-3.283.018-4.188,1.858c-.742,1.489-.019,3.854-.019,3.854s-2.812,2.421-1.744,5.073c.7,1.737,1.109,2.484,1.109,2.484a2.867,2.867,0,0,0-.3,2.485c.452.831,1.636,2.459,1.636,2.459s-.106,2.736.993,4.17a3.944,3.944,0,0,0,3.774,1.566s.982,1.357,1.906,1.252a5.553,5.553,0,0,0,1.56-.383s1.492,1.185,2.253.956a10.846,10.846,0,0,0,1.213-.438,2.185,2.185,0,0,0,2.35.194,9.407,9.407,0,0,1,2.763-.822c1.473-.338,3.389-2.83,3.389-2.83l.549-1.67s2.513-.907,3.379-2.114a1.846,1.846,0,0,0,.1-2.2s1.406-.109,2.022-2.121a4.711,4.711,0,0,0-.876-4.172,5.491,5.491,0,0,0,2.85-2.442c.655-1.569,1.04-3.234-.8-4.466-.673-.451-1.473-.65-2.194-1.181-1.272-.923-1.483-1.3-2.639-1.443-.664-.08-2.234,1.207-3.187.485-1.627-1.227-2.417-1.344-3.158-1.344-1.657-.013-3,1.573-3.514,1.628C75.6,110.321,73.687,109.161,72.81,109.191Z"/><path class="cls-3" d="M62.768,116.348a2.181,2.181,0,0,0,2.946,1.265,6.127,6.127,0,0,0,3.332-5.372c-.145-1.781-1.377-3.08-2.927-2.7,0,0-2.465.426-3.312,1.421S62.354,115.151,62.768,116.348Z"/><path class="cls-3" d="M70.018,110.68a3.334,3.334,0,0,1,3.014-1.484c2.1.1,3.013,3.023,2.994,4.668a4.489,4.489,0,0,1-4.063,4.466c-2.908.261-3.235-3.027-3.235-3.027a18.386,18.386,0,0,1,.183-2.131C69.219,110.934,70.018,110.68,70.018,110.68Z"/><path class="cls-3" d="M76.141,117.04a4.476,4.476,0,0,0,3.458,1.454c1.935-.251,2.358-2.323,2.676-4.886.607-4.83-1.791-4.77-3.024-4.86-2.57-.194-2.946,2.588-2.946,2.588a20.958,20.958,0,0,0-.645,2.435A7.425,7.425,0,0,0,76.141,117.04Z"/><path class="cls-3" d="M77.538,118.731a7.558,7.558,0,0,1,.231,3.184c-.347,1.173-.944,2.975-4.265,1.573a3.29,3.29,0,0,1-.385-6.33C74.544,116.471,76.161,116.833,77.538,118.731Z"/><path class="cls-3" d="M81.688,117.613s2.522.831,2.888,2.619-1.626,3.383-3.764,3.918-2.388-.991-2.388-.991a2.076,2.076,0,0,1-.5-2.593c.905-1.375.905-1.484,1.676-2.072S80.812,117.339,81.688,117.613Z"/><path class="cls-3" d="M82.275,113.608a6.288,6.288,0,0,1,1.068-1.852c1.4-1.95,5.047-1.514,5.826-.013s-1.04,5.79-3.466,6.659-2.821-1.008-2.821-1.008S81.1,116.542,82.275,113.608Z"/><path class="cls-3" d="M70.153,118.621c.626.742.491,3.164.491,3.164a3.363,3.363,0,0,1-3.226,1.733c-3.052.047-3.13-4.356-3.13-4.356s-.211-.723,1.84-1.94S68.554,116.714,70.153,118.621Z"/><path class="cls-3" d="M79.685,124.758a21.349,21.349,0,0,1-1.021,4.75c-.6,1.088-1.55,2.825-4.053.358-1.829-1.8-.048-5.454-.048-5.454a3.249,3.249,0,0,1,1.521-1.193A3.147,3.147,0,0,1,79.685,124.758Z"/><path class="cls-3" d="M67.6,124.771s-.473,3.078,1.462,4.268,4.574-1.608,4.574-1.608.857-2.328.549-3.373-2.456-1.882-3.726-2.193c-.953-.232-2.407,1.27-2.859,2.906"/><path class="cls-3" d="M68.015,128.377s.732,2.139-1.964,1.18-2.339-4.3-2.339-4.3-.1-2.522,1.723-2.453,1.81.686,1.983,1.323S68.015,128.377,68.015,128.377Z"/><path class="cls-3" d="M83.748,124.551s1.04,2.35.752,3.4-.183,1.522-2.167,2.4-2.532-.11-2.532-.11-.434-.115-.559-1.852-.279-3.311.7-3.9,1.907-1.049,2.84-.388S83.748,124.551,83.748,124.551Z"/><path class="cls-4" d="M65.079,112.308c-.029,1.016-.125,2.016-.935,2.029a1.622,1.622,0,0,1-1.425-1.822,1.774,1.774,0,0,1,1.513-1.866C65.04,110.638,65.1,111.287,65.079,112.308Z"/><path class="cls-4" d="M71.675,112.206c-.03,1.02.056,2.2-.752,2.2a1.62,1.62,0,0,1-1.425-1.823,1.764,1.764,0,0,1,1.511-1.857C71.828,110.717,71.694,111.185,71.675,112.206Z"/><path class="cls-4" d="M67.254,119.137c-.028,1.015.069,2.339-.741,2.352a1.62,1.62,0,0,1-1.425-1.822,1.761,1.761,0,0,1,1.521-1.86C67.418,117.794,67.274,118.116,67.254,119.137Z"/><path class="cls-4" d="M73.7,119.562c-.02,1.016.193,2.243-.616,2.249a1.623,1.623,0,0,1-1.425-1.823,1.767,1.767,0,0,1,1.512-1.86C73.985,118.116,73.725,118.542,73.7,119.562Z"/><path class="cls-4" d="M78.087,112.443c-.02,1.019-.106,2.289-.915,2.3s-.867-.577-.837-1.593.558-2.174,1.366-2.181S78.116,111.421,78.087,112.443Z"/><path class="cls-3" d="M83.95,123.068l.7,1.227a3.6,3.6,0,0,0,2.032,1.155c1.849.157,2.551-1.536,2.773-2.253a6.563,6.563,0,0,0-.193-2.378s-.183-2.222-1.752-2.606-2.8.371-3.639,2.023A2.731,2.731,0,0,0,83.95,123.068Z"/><path class="cls-4" d="M86.107,120.612c-.028.852-.154,2.244-.722,2.256s-.741-.717-.722-1.561.4-1.812.982-1.812S86.126,119.769,86.107,120.612Z"/><path class="cls-4" d="M85.972,113.413a1.78,1.78,0,0,1-1.733,1.69c-.808.014-.654-.468-.625-1.483s1.434-1.786,2.242-1.8S85.992,112.392,85.972,113.413Z"/><path class="cls-4" d="M81.2,119.447c-.279.747-.413,1.7-1.049,1.507a1.258,1.258,0,0,1-.645-1.713,1.413,1.413,0,0,1,1.647-.991C81.784,118.444,81.476,118.7,81.2,119.447Z"/><path class="cls-4" d="M76.344,125.26c-.347.973-.154,2.6-.914,2.371a1.6,1.6,0,0,1-.771-2.174,1.812,1.812,0,0,1,2.013-1.357C77.432,124.332,76.691,124.282,76.344,125.26Z"/><path class="cls-4" d="M81.486,125.674c-.279.749-.414,1.708-1.05,1.508a1.26,1.26,0,0,1-.645-1.715,1.425,1.425,0,0,1,1.646-.99C82.073,124.678,81.765,124.927,81.486,125.674Z"/><path class="cls-3" d="M69.661,129.291c-2.82-.252-2.262,1.628-2.329,1.445-.395-1.263-.376,3.141,2.108,3.523,1.455.225,2.1.1,2.263-1.1S71.963,128.888,69.661,129.291Z"/><path class="cls-3" d="M64.077,128.634a2.233,2.233,0,0,0-.1,2.454c.761,1.459,1.936,2.527,2.841,2.126s.866-2.787-.318-3.5A12.131,12.131,0,0,0,64.077,128.634Z"/><path class="cls-3" d="M62.152,115.808A3.452,3.452,0,0,0,60.63,119.3a3.832,3.832,0,0,0,2.7,3.269c1.444.587,2.456.552,2.119-.325A41.714,41.714,0,0,1,64,118.268,6.082,6.082,0,0,0,62.152,115.808Z"/><path class="cls-3" d="M72.965,128.706s-2.061.346-1.618,1.332.375,4.239,1.512,4.859,2.166-.595,2.513-1.877S74.409,128.681,72.965,128.706Z"/><path class="cls-3" d="M62.44,122.649a1.763,1.763,0,0,0-.895,2.345,4.348,4.348,0,0,0,1.984,2.4c.664.164.442-.346.172-.948a6.239,6.239,0,0,1,.049-2.328S64.116,122.266,62.44,122.649Z"/><path class="cls-4" d="M65.589,125.019c-.019.8.048,1.852-.491,1.858s-.943-.638-.934-1.445.472-1.463,1.011-1.471S65.608,124.21,65.589,125.019Z"/><path class="cls-4" d="M61.949,118.148c-.019.8.6,1.888.058,1.9s-.953-.638-.934-1.442.472-1.464,1-1.469S61.969,117.344,61.949,118.148Z"/><path class="cls-3" d="M75.9,130.578s-1.636,3.85-.308,4.4a2.629,2.629,0,0,0,3.158-1.506c.558-1.064.616-2.378-.424-2.53Z"/><path class="cls-4" d="M77.037,131.974c-.193.511-.27,1.168-.751,1.016a.9.9,0,0,1-.539-1.193,1.012,1.012,0,0,1,1.213-.641C77.442,131.307,77.22,131.472,77.037,131.974Z"/><path class="cls-4" d="M70.192,123.675c-.348.978-.155,2.6-.915,2.37a1.594,1.594,0,0,1-.77-2.177,1.792,1.792,0,0,1,2-1.346C71.28,122.746,70.528,122.7,70.192,123.675Z"/><path class="cls-4" d="M64.77,130.177c.222.481.569,1.014.26,1.148s-.742-.134-.953-.616-.134-.975.174-1.115S64.559,129.7,64.77,130.177Z"/><path class="cls-4" d="M68.8,130.852c.222.485.578,1.021.26,1.16s-.741-.139-.953-.62-.135-.986.173-1.118S68.583,130.371,68.8,130.852Z"/><path class="cls-4" d="M72.82,130.431c.009.53.125,1.161-.212,1.18s-.626-.4-.626-.931.26-.971.6-.983S72.82,129.9,72.82,130.431Z"/><path class="cls-3" d="M78.761,130.7s-.144,2.215.578,2.872a1.239,1.239,0,0,0,1.685.019c.51-.431,2.147-1.714,2.137-2.588s-1.656-.084-2.263-.225S79.329,129.782,78.761,130.7Z"/><path class="cls-4" d="M80.1,131.332c.01.528.115,1.16-.222,1.178s-.615-.4-.626-.928.261-.974.6-.992S80.089,130.8,80.1,131.332Z"/><path class="cls-3" d="M90.161,112.806a2.988,2.988,0,0,1,.645,4.648c-.443.4-1.647,1.235-2.128,1.155-1.752-.292-1.521-1.029-1.521-1.029a12.8,12.8,0,0,0,1.809-2.725,4.537,4.537,0,0,0,.309-2.505,1.174,1.174,0,0,1,.789.316"/><path class="cls-4" d="M90.479,114.391c-.011.573-.106,1.527-.568,1.527s-.588-.481-.578-1.059.318-1.227.78-1.232S90.5,113.814,90.479,114.391Z"/><path class="cls-5" d="M75.728,110.023c-.722-23.75,9.907-51.923,36.491-55.2l1.05-1.219a10.97,10.97,0,0,1-2.665.423c-1.616.077-14.185,4.5-17.911,8.123s-10.177,10.881-12.334,17.2-5.315,20-5.2,24.794.453,5.5.453,5.5"/><path class="cls-5" d="M69.431,112.131s-6.336.312-7.847-3.433.9-10.916.9-10.916.606,8.11,3.023,9.046,5.431,1.87,5.431,1.87-4.834-4.053-1.811-8.73,3.919-5.93,3.919-5.93l1.312,15.07s1.937,1.025,5.621-3.841a53.942,53.942,0,0,0,5.744-10.1l-5.437,14.161s6.288-1.445,9-4.254a46.223,46.223,0,0,1,5.469-4.792L84.807,111.2a20.326,20.326,0,0,0,8.146-1.873c3.621-1.871,12.97-3.124,12.97-3.124s-13.346,9.514-19.951,7.212C64.877,106.057,83.9,113.068,69.431,112.131Z"/><path class="cls-5" d="M74.486,110.1a4.286,4.286,0,0,1,2.82,1.173c1.589,1.282,3.255,5,3.1,7.582s1.2,8.325,2.551,9.376a58.034,58.034,0,0,0,5.324,3.159,19.25,19.25,0,0,1-3.852-6.787c-1.126-3.857-.567-6.312-1.578-9.357S81.043,108.116,74.486,110.1Z"/></svg>