<svg id="word" xmlns="http://www.w3.org/2000/svg" viewBox="0 0 160 160"><defs><style>.cls-1{fill:#90afdb;}.cls-2{fill:#ded8e1;}.cls-2,.cls-3,.cls-4,.cls-5,.cls-6,.cls-7{stroke:#9d4b9c;stroke-linecap:round;}.cls-2,.cls-4,.cls-5,.cls-7{stroke-width:0.75px;}.cls-3,.cls-4,.cls-6{fill:none;}.cls-3{stroke-width:1.5px;}.cls-5{fill:#c3c7d3;}.cls-7{fill:#c18d81;}.cls-8{fill:#9d4b9c;}.cls-9{fill:#a59c35;}.cls-10{fill:#f1e925;}.cls-11{fill:#fffce2;}.cls-12{fill:#fff;}.cls-13{fill:#868028;}</style></defs><path class="cls-1" d="M103.633,34.229c-.3-2.258,1.053-6.924-3.463-6.924S60.1,26.7,55.286,27s-3.011,6.473-3.011,7.526.151,81.162.151,81.162l.451,3.463,52.411.6S103.934,36.487,103.633,34.229Zm-5.269-2.258.15,18.817L58,51.691l-.3-19.569ZM57.393,116.6l-.452-59.787,13.849-.151.9,59.938Zm17.311.15.151-59.787,25.014-.752,1.244,60.935Z"/><path class="cls-2" d="M31.831,128.24s-3.967-.15-3.673.3,3.967,4.366,3.967,4.366l100.79.15s3.494-4,1.616-4.613c-.42-.137-5.73-.151-5.73-.151Z"/><path class="cls-3" d="M24.066,92.559s2.148-1.608,2.75.5a2.364,2.364,0,0,1-3.926,2.366c-2.108-1.807-1.5-4.968,1.5-5.72s6.322,1.2,5.72,4.064-6.171,8.279-6.322,14.3,1.656,11.892,3.914,14.752,1.234,4.738,1.234,4.738"/><line class="cls-4" x1="30.441" y1="92.309" x2="132.816" y2="92.715"/><path class="cls-5" d="M28.158,128.541l12.489-11.289,82.669.932,9.788,8.367c.788.8,2.585,2.268,1.475,2.258l-106.127-1.02"/><line class="cls-6" x1="40.953" y1="127.638" x2="40.201" y2="98.134"/><path class="cls-6" d="M37.642,98.887s-5.7,6.8-8.58,11.29c-1.511,2.357-2.258,11.139,1.053,13.848s9.525-.8,9.935-2.559c.766-3.282.3-6.171-3.01-6.322s-4.774,2.65-3.613,3.914c2.639,2.876,3.639-1,3.639-1"/><path class="cls-6" d="M43.631,99.137s5.7,6.8,8.58,11.29c1.511,2.357,2.258,11.139-1.053,13.848s-9.525-.8-9.935-2.559c-.766-3.282-.3-6.171,3.01-6.322s4.774,2.65,3.613,3.914c-2.639,2.876-3.639-1-3.639-1"/><line class="cls-6" x1="68.203" y1="128.138" x2="67.451" y2="98.634"/><path class="cls-6" d="M65.191,98.184s-6,8-8.879,12.493c-1.511,2.357-2.258,11.139,1.053,13.848s9.525-.8,9.935-2.559c.766-3.282.3-6.171-3.01-6.322s-4.774,2.65-3.613,3.914c2.639,2.876,3.639-1,3.639-1"/><path class="cls-6" d="M70.066,98.184s6.516,8.25,9.395,12.743c1.511,2.357,2.258,11.139-1.053,13.848s-9.525-.8-9.935-2.559c-.766-3.282-.3-6.171,3.01-6.322s4.774,2.65,3.613,3.914c-2.639,2.876-3.639-1-3.639-1"/><line class="cls-6" x1="40.953" y1="127.638" x2="40.201" y2="98.134"/><path class="cls-6" d="M37.642,98.887s-5.7,6.8-8.58,11.29c-1.511,2.357-2.258,11.139,1.053,13.848s9.525-.8,9.935-2.559c.766-3.282.3-6.171-3.01-6.322s-4.774,2.65-3.613,3.914c2.639,2.876,3.639-1,3.639-1"/><path class="cls-6" d="M43.631,99.137s5.7,6.8,8.58,11.29c1.511,2.357,2.258,11.139-1.053,13.848s-9.525-.8-9.935-2.559c-.766-3.282-.3-6.171,3.01-6.322s4.774,2.65,3.613,3.914c-2.639,2.876-3.639-1-3.639-1"/><path class="cls-7" d="M32.975,90.307s2.409,7.075,2.86,7.526.151,1.054,1.807,1.054,30.644.7,32.3-.2,4.1-8.449,3.5-8.75S32.975,90.307,32.975,90.307Z"/><rect class="cls-8" x="38.191" y="95.934" width="3.5" height="6.75"/><rect class="cls-8" x="65.316" y="95.559" width="3.5" height="6.75"/><line class="cls-6" x1="95.204" y1="128.388" x2="94.451" y2="98.884"/><path class="cls-6" d="M92.192,98.433s-6,8-8.88,12.493c-1.511,2.357-2.258,11.139,1.054,13.849s9.524-.8,9.935-2.559c.766-3.283.3-6.172-3.011-6.322s-4.773,2.649-3.612,3.913c2.639,2.876,3.639-1,3.639-1"/><path class="cls-6" d="M97.067,98.433s6.515,8.25,9.4,12.743c1.511,2.357,2.258,11.139-1.054,13.849s-9.524-.8-9.935-2.559c-.766-3.283-.3-6.172,3.011-6.322s4.773,2.649,3.613,3.913c-2.64,2.876-3.64-1-3.64-1"/><line class="cls-6" x1="122.204" y1="128.013" x2="121.451" y2="98.509"/><path class="cls-6" d="M119.192,98.058s-6,8-8.88,12.493c-1.511,2.357-2.258,11.139,1.054,13.849s9.524-.8,9.935-2.559c.766-3.283.3-6.172-3.011-6.322s-4.773,2.649-3.612,3.913c2.639,2.876,3.639-1,3.639-1"/><path class="cls-6" d="M124.067,98.058s6.515,8.25,9.395,12.743c1.511,2.357,2.258,11.139-1.054,13.849s-9.524-.8-9.935-2.559c-.766-3.283-.3-6.172,3.011-6.322s5.368,1.775,4.207,3.04c-2.639,2.876-3-.875-3-.875"/><path class="cls-3" d="M139.479,93.059s-2.44-1.608-3.124.5,2.066,4.172,4.46,2.366,1.71-4.968-1.71-5.72-7.181,1.2-6.5,4.064,7.01,8.279,7.181,14.3-1.88,11.892-4.445,14.752-1.4,4.738-1.4,4.738"/><path class="cls-7" d="M87.35,88.932s2.409,7.075,2.86,7.526.151,1.054,1.807,1.054,30.644.7,32.3-.2,4.1-8.449,3.5-8.75S87.35,88.932,87.35,88.932Z"/><rect class="cls-8" x="92.566" y="94.559" width="3.5" height="6.75"/><rect class="cls-8" x="119.691" y="94.184" width="3.5" height="6.75"/><path class="cls-9" d="M60.369,82.554s1.145-.491.818-1.39,1.635-1.063,2.453,0-.654,1.39-.654,2.616,1.554-.817,2.453.409.164,1.39,1.554,2.044,1.962,2.535,1.144,3.189-2.126-1.39-2.044,0,1.145,1.227,1.145,2.044.654.491,0,.818-1.145,1.227-1.635,1.308-2.944-.9-3.271-.245-2.126,1.145-3.189.818-2.78-1.717-2.617-.491.246,2.044-.981,1.8-.327.9-1.472,1.554-2.943.49-2.7-.327-.654-.327-1.145-.246-1.88.164-1.962-.327-.327-1.39-1.145-.981-.9,1.962-1.472,1.962-.981-.981-.981-1.8-.409-1.472-.409-.9-1.88,1.063-1.962.164.981-.982,1.635-1.963S41.4,91.3,41.89,90.158s-.572-2.044,2.126-1.8S46.96,86.887,48.1,86.07s2.862-1.308,3.6-.9,2.944-1.226,2.944-1.226,1.8-.572,2.207-.245S60.369,82.554,60.369,82.554Z"/><path class="cls-10" d="M60.369,79.937s-.9.736-.572,1.227.491.409.491.981a3.677,3.677,0,0,0,.49,1.717c.327.654-.572.491-.409,1.39s.9,2.208.409,2.371-1.308.491-1.308-.163a2.223,2.223,0,0,0-.245-1.063s.163-1.308,0-.9,0,1.227-.246,1.39a2.04,2.04,0,0,1-1.063.246c-.408,0-.817-.409-.49-.736a1.278,1.278,0,0,0,.327-.818s-.327.981-1.145,1.063a2.956,2.956,0,0,1-1.472-.245,5.554,5.554,0,0,0-1.635.9c-.654.573-.736,1.063-1.145.573s-.981.817-1.39.817-.409.327-.981.246-1.227.49-.981.817-1.227.654-1.881.491S45.9,90,45.9,90.322s-.491.49-.982.327-.327-.9-.735-1.145-1.472-.082-1.063.572.654.736,1.063,1.309.9,1.308.572,1.635a1.031,1.031,0,0,1-1.227.245c-.327-.245-.408-.408-1.144,0s-1.472,1.39-1.636.654a2.917,2.917,0,0,1,0-1.226c0-.327-.981.082-.981.082l-.572-1.554s-1.963.818-1.963-.082-1.39-.572-1.226-1.063-.736-.735-.736-1.226-.409-1.717.163-2.208,1.227.573,1.227.573-1.063-2.126-.491-2.372,1.063.654,1.063.327-.981-.736-.49-1.226.736.572,1.8-.654-.491-1.145.163-1.636,1.227.327,1.227.327-.818-1.471-.409-1.553a8.654,8.654,0,0,1,1.226-.082s-.163-1.063,1.145-.654.981.082.9-.572.736-1.063.491-1.309-1.39-1.635-.245-1.717,2.7-.9,2.616.082-1.635.818-.9,1.226.49-.327.736.409,1.308,1.063,1.308.736-1.881-.654-.572-1.308,1.472.245,1.472.245,1.553.409,1.308-.082.082-1.717.49-1.226.573.981,1.227.9.818-1.063.981-.49a2.668,2.668,0,0,1,.082,1.063l1.145.163s.245-.817.49-.245,1.309.9,1.39.572.164-1.39,1.309-.736-.491,1.472-.491,1.472,1.226-.327,1.635.082-1.063.491-.409.818a1.682,1.682,0,0,0,1.554-.082c.409-.164.409.409.409.409A1.034,1.034,0,0,1,60.369,79.937Z"/><path class="cls-11" d="M45.447,83.126s-1.39.082-1.1-.49.082-.736-.123-.982a.574.574,0,0,1,.123-.858c.327-.245.409-.123.9-.491s-.122-.368.655-.654.531-.981,1.1-.286a1.052,1.052,0,0,1-.122,1.39s1.185.041.94.7-.531.45-.531.613.449.777.041.859a1.621,1.621,0,0,1-.941-.246l-.327.573Z"/><path class="cls-11" d="M51.7,80.305s-.858.2-.7.736.327.7-.082.981-.327.654,0,.695.573-.245.7-.245,0,.981.287.777a1.082,1.082,0,0,0,.327-.695s.9-.2.531-.654-.736-.246-.858-.286S52.274,80.305,51.7,80.305Z"/><path class="cls-11" d="M44.425,85.661a1.689,1.689,0,0,0-1.431.818c-.654.9-1.227,2.085-.7,1.717s.654-.859.858-.327.982.9.982.776.449,0,.613.123.858.45.9.123.2-.654-.163-.736-.859.163-.9-.327a6.336,6.336,0,0,1,.164-1.227C44.752,86.4,45.12,85.7,44.425,85.661Z"/><path class="cls-10" d="M44.772,76.4a1.14,1.14,0,0,0-1.185-.491c-.9.082-1.922.164-2,.941s-.531,1.839-.858,1.962-1.186.164-.777-.123,1.186-.449.532-.613-1.063-.654-.7-.695,1.1.409,1.022.041S40.152,76.2,40.52,76.2a1.889,1.889,0,0,1,.7.041c.287.082-.286-1.226.491-1.022s.245.409.777.2,1.8-.736,2.126-.287.2.409.082.7A.645.645,0,0,0,44.772,76.4Z"/><path class="cls-10" d="M48.227,95.555s-1.84-.082-2,.245-.2.859.245.859.286.409.572.613.327-.123.45-.286a3.928,3.928,0,0,1,.981-.45S48.922,95.677,48.227,95.555Z"/><path class="cls-10" d="M47.368,92.325s-1.185.818-.9,1.308.777.327.981.327.613-.163.491-.531S48.268,92.121,47.368,92.325Z"/><path class="cls-10" d="M51.293,92.9s-1.144.368-.736.736.655.246.655.532.858.082,1.226.041.736.327.818-.082,0-.572-.327-.613S51.62,92.734,51.293,92.9Z"/><path class="cls-10" d="M53.133,89.749c-.125-.031-.859.246-.859.654s-.2,1.1.2,1.186.613.613.777.2S53.624,89.872,53.133,89.749Z"/><path class="cls-10" d="M54.523,91.18s-.818.286-.777.532.2-.368.45.286,0,.859.45.859.409,0,.654-.164.45-.654.245-.695S54.85,91.139,54.523,91.18Z"/><path class="cls-10" d="M55.709,89.954a1.344,1.344,0,0,0-.286.94c.081.245.367.532.49.532s.205-.041.45-.246a2.452,2.452,0,0,0,.45-.858S56.036,89.5,55.709,89.954Z"/><path class="cls-10" d="M58.039,90.2c-.325.3-.163.409-.368.654s-.613-.082-.736.327.123.368-.082.614-.531.327-.49.49-.491-.736.245.368.286,1.349.981,1.308.736-.368.736-.49-.449-.736-.368-1.022.246-.123.45-.2-.082-.49-.041-.695.368-.163.491-.531S59.02,89.3,58.039,90.2Z"/><path class="cls-12" d="M38.954,86.941a4,4,0,0,0,.024,1.354c.024.125.74-.036.711-.19a4,4,0,0,1-.024-1.354c.008-.054-.68-.013-.711.19Z"/><path class="cls-12" d="M39.939,86.206a2.752,2.752,0,0,0,.248,1.267c.071.157.759-.086.711-.191a2.763,2.763,0,0,1-.249-1.267c0-.084-.7,0-.71.191Z"/><path class="cls-12" d="M40.043,82.859a2.468,2.468,0,0,0,.121,1.343c.049.13.758-.024.711-.149a2.4,2.4,0,0,1-.13-1.29c.024-.138-.678-.04-.7.1Z"/><path class="cls-12" d="M38.733,83.975a1.477,1.477,0,0,0-.6,1.5c.037.176.752,0,.711-.19a1.255,1.255,0,0,1,.436-1.26c.112-.084.086-.161-.048-.181a.771.771,0,0,0-.5.135Z"/><path class="cls-13" d="M49.533,91.8A1.639,1.639,0,0,0,48.5,93.311c0,.106.621.064.621-.087a1.463,1.463,0,0,1,.873-1.36c.12-.051.075-.095-.017-.126a.762.762,0,0,0-.44.061Z"/><path class="cls-13" d="M48.968,90.582a1.245,1.245,0,0,0-.657,1.2c.013.151.635.081.621-.087a1.054,1.054,0,0,1,.5-1.012c.1-.06.089-.127-.022-.157a.665.665,0,0,0-.44.061Z"/><path class="cls-9" d="M116.1,84.782s1.2-.079,1.065-.838,1.791-.385,2.373.62-.906.88-1.147,1.8,1.664-.222,2.293.927-.115,1.087,1.1,1.93,1.4,2.4.481,2.686-1.783-1.582-1.977-.517.866,1.212.7,1.826.537.535-.16.615-1.349.632-1.84.57-2.671-1.421-3.116-1.012-2.281.323-3.246-.192-2.352-1.993-2.435-1.03-.164,1.6-1.3,1.1-.494.593-1.73.8-2.944-.376-2.546-.929-.569-.411-1.059-.474-1.852-.352-1.835-.742-.043-1.127-.914-1.027S99.554,92.145,99,92s-.757-.986-.6-1.6-.106-1.21-.219-.78-2.028.324-1.93-.373,1.111-.2,1.936-.771-7.722.649-7.25-.25c1.313-2.5,5.634-4.083,8.2-3.216s3.137-.362,4.405-.687,3.026-.26,3.658.234,3.089-.178,3.089-.178,1.853.025,2.184.374S116.1,84.782,116.1,84.782Z"/><path class="cls-9" d="M110.8,86.237a7.837,7.837,0,0,1,6.87-10.541l.031.5a7.337,7.337,0,0,0-6.432,9.867Z"/><path class="cls-9" d="M109.11,79.973a5.172,5.172,0,0,1,.345-3.173c-.035.078,1.015,1.754,1.1,2a7.622,7.622,0,0,1,.46,2.441c.013.624.05,1.649-.76,1.043A4.274,4.274,0,0,1,109.11,79.973Z"/><path class="cls-9" d="M118.292,75.432a3.426,3.426,0,0,1,1.322-.139A7.762,7.762,0,0,1,123.5,76.6c-.259-.175-1.478.085-1.827.086q-.992,0-1.98-.086C119.011,76.538,116.317,76.123,118.292,75.432Z"/><path class="cls-9" d="M115.393,76.563a8.484,8.484,0,0,1,3.836.895,11.526,11.526,0,0,1-2.263.429,4.833,4.833,0,0,1-2.464-.411C113.49,76.9,114.747,76.566,115.393,76.563Z"/><path class="cls-9" d="M112.84,73.714a7.986,7.986,0,0,1,.349,3.253c-.027.266-.175,1.26-.585,1.249-.358-.009-.454-1.015-.488-1.3A4.873,4.873,0,0,1,112.84,73.714Z"/><path class="cls-9" d="M114.318,80.859a14.321,14.321,0,0,0-1.273-.837,3.336,3.336,0,0,1-.976-1.275C113,78.337,114.155,80.111,114.318,80.859Z"/><path class="cls-9" d="M117.734,74.492a14.44,14.44,0,0,0-1,1.149,3.348,3.348,0,0,1-1.4.8C115.057,75.457,116.97,74.553,117.734,74.492Z"/></svg>