<svg id="word" xmlns="http://www.w3.org/2000/svg" viewBox="0 0 160 160"><defs><style>.cls-1{fill:#eac146;}.cls-1,.cls-2,.cls-3{stroke:#9d4b9c;stroke-linecap:round;stroke-linejoin:round;}.cls-2,.cls-3{fill:#a17a2f;}.cls-3{stroke-width:2.33px;}.cls-4{fill:#fff;opacity:0.35;}.cls-5{fill:#f4d644;opacity:0.62;}.cls-6{fill:#d69e44;opacity:0.46;}</style></defs><path class="cls-1" d="M133.165,42.4s-1.746,15.238-4.429,19.6S113.754,84.331,100.772,87.3,73.633,90.831,65.3,85.939,45.088,73.6,40.5,72.043,25.89,68.2,24.861,68.058s-2.183-.482-2.382,1-.6,5.58-2.32,7.236-2.139,1.2-2.139,1.2,2.76,7.564,4.445,11.753,13.974,17.537,21.572,21.2,20.636,10.317,35.33,10.214,29.859-3.833,39.742-11.167c11.471-8.512,18.042-22.022,18.639-26.471s-.064-17.37-.249-23.809S139.98,45.2,139.98,45.2Z"/><path class="cls-2" d="M136.662,47.59a9.431,9.431,0,0,0-3.5-5.187c-.622-.467-.733-1.23,1.039-4.389s3.175-5.8,4.5-3.36,2.176,3.878,3.007,5.5,1.2,2.236-.13,3.192a19.452,19.452,0,0,0-3.22,3.906Z"/><path class="cls-3" d="M23.012,72.9s-2.66,5.3-4.133,5.105-1.937-.071-.138-4.547,4.084-5.867,4.276-3.954A16.1,16.1,0,0,1,23.012,72.9Z"/><path class="cls-4" d="M77.569,103.684A88.785,88.785,0,0,1,64,100.58c-11.709-3.42-17.16-9.072-24.576-15.8-6.91-6.271-16.588-10.123-16.669-10.149l2.062-.1a47.283,47.283,0,0,1,15.294,9.115c7.548,6.847,13.359,11.59,24.9,14.959,12.014,3.508,16.6,4.628,25.019,2.814,1.06-.227,2.108-.442,3.141-.654,7.427-1.526,13.841-2.843,17.9-7.432,1.419-1.607,3.458-2.984,5.351-4.909,5.314-5.406,10.688-8.977,12.827-16.479,3.076-10.775,6.852-24.406,6.891-24.542l.25.254c-.037.137-3.023,13.9-6.1,24.681-2.273,7.964-8.605,13.825-13.514,17.947-1.985,1.667-3.636,2.513-4.991,4.046-4.315,4.886-5.323,6.159-12.932,7.721-1.031.212-6.022,1.8-7.079,2.024-4.351.937-7.21.432-11.01-.078Z"/><path class="cls-5" d="M56.951,84.118s-3.7,5.738,16.66,11.1c14.145,3.729,23.87.793,28.482-1.075,10.38-4.205,13.967-9.856,9.328-8.779s-21.278,6.362-26.357,6.247-17.413-1.961-18.785-2.9S54.67,83.247,56.951,84.118Z"/><path class="cls-6" d="M132.27,78.715c1.292-9.625,1.275-12.485,2.307-17.188a61.1,61.1,0,0,1,4.256-13.077s-2.315,3.341-2.142,9.779.815,19.356.217,23.805-5.906,17.507-18.5,26.49c-9.916,7.075-24.827,11.094-39.383,11.217s-27.462-6.518-34.984-10.17S24.365,92.59,22.7,88.4c0,0-3.261-7.163,1.55-4.067s21.868,25.682,41.013,28.6,36.463-1.054,47.386-6.588"/></svg>