<svg id="word" xmlns="http://www.w3.org/2000/svg" viewBox="0 0 160 160"><defs><style>.cls-1{fill:#fde0ce;}.cls-1,.cls-10,.cls-11,.cls-12,.cls-13,.cls-14,.cls-15,.cls-16,.cls-2,.cls-3,.cls-4,.cls-5,.cls-6,.cls-7,.cls-8{stroke:#9d4b9c;stroke-miterlimit:10;stroke-width:0.75px;}.cls-2{fill:#9c5b68;}.cls-3{fill:#83d4f6;}.cls-4{fill:#fde2d4;}.cls-5{fill:#fdcc84;}.cls-6{fill:#e59d8e;}.cls-11,.cls-7{fill:#ecc973;}.cls-8{fill:#fff;}.cls-9{fill:#9d4b9c;}.cls-10,.cls-12{fill:none;}.cls-11,.cls-12{stroke-linecap:round;}.cls-13{fill:#f27785;}.cls-14{fill:#ee60a2;}.cls-15{fill:#8a5d3b;}.cls-16{fill:#e0903f;}</style></defs><path class="cls-1" d="M81.631,113.521s1.17,4.915,3.978,7.255,13.106,3.276,13.106,3.276l-.234-5.148Z"/><path class="cls-1" d="M94.268,114.691s-.468,6.319,2.341,9.595,7.254,4.447,11.935,4.447,9.829-1.872,13.573-3.979c2.253-1.267,8.425-4.212,8.425-4.212s2.341-1.4-2.34-2.34-16.85-1.638-16.85-1.638Z"/><path class="cls-2" d="M118.841,116.1s8.425-4.446,11.233-3.042,2.107,3.276,5.617,2.808c3.051-.406,11.233,5.149,10.063,7.957s-4.446.234-6.553-.468-9.595-2.808-9.595-2.808S126.33,116.1,118.841,116.1Z"/><path class="cls-3" d="M133.351,95.033s4.914,6.085,2.574,10.765-4.213,5.617-7.255,6.319-.936.234-4.446,2.34,1.638,2.575,1.638,2.575-6.787,2.106-10.3,4.446-8.659,5.851-11.234,3.744-11.467-5.85-15.913-7.488a41.735,41.735,0,0,0-8.893-2.107s-.468-11,5.382-12.871,11-7.021,11-7.021Z"/><path class="cls-4" d="M78.645,84.707l-4.432,1.732s-3.955-1.39-5.866-1.9c-2.756-.741-4.138.591-2.1,1.753s3.2,2.521,2.051,2.762-8.441,1.32-9.243,2.706,5.862.833,5.862.833-5.74,4.434-5.191,5.945,6.9-4.327,7.006-3.344-3.792,4.419-3.21,5.544,5.2-3.8,6.095-2.942-2.936,2.885-1.417,3.637S71.694,99,72.82,97.573s3.919-5.547,3.919-5.547l5.318-2.165S81.629,85.08,78.645,84.707Z"/><path class="cls-5" d="M43.667,82.221a3.656,3.656,0,0,1-.1-2.813c.6-1.407,1.708-3.417,1.708-3.417a25.969,25.969,0,0,1,2.713,3.216,9.422,9.422,0,0,1,1.306,2.913"/><path class="cls-6" d="M46.079,81.417s-1.005-2.009-.7-3.215a8.2,8.2,0,0,0,.3-1.708s1.2,1.306,2.311,2.713a3.637,3.637,0,0,1,.8,2.813"/><path class="cls-7" d="M47.837,131.906l.164-.089C48.073,131.582,47.837,131.906,47.837,131.906Z"/><path class="cls-5" d="M43.4,132.829a.355.355,0,0,1,.035-.261l.372-.9c.059-.145.119-.291.175-.437.093-.242.171-.489.242-.738a4.1,4.1,0,0,1-1.409.006,2.767,2.767,0,0,1-1.356-.955l-.653-1s-2.06.954-2.261,1,0,1.307.1,1.457a13.289,13.289,0,0,0,2.412,1.507c.245.062,1.477.29,2.461.46A.423.423,0,0,1,43.4,132.829Z"/><path class="cls-8" d="M48.456,130.382c-.351-.905-1.373-.536-2.327-.285a16.517,16.517,0,0,1-1.907.4c-.071.249-.149.5-.242.738-.056.146-.116.292-.175.437l-.372.9a.355.355,0,0,0-.035.261.423.423,0,0,0,.118.139c.63.109,1.158.193,1.256.193.252,0,1.893-.2,2.144-.2s.519.1.921-.754a3.363,3.363,0,0,0,.164-.39l-.181.44s.253-.675.181-.44l.489-.263S48.808,131.286,48.456,130.382Z"/><path class="cls-5" d="M55.692,109.448c.3-.176.689.146,1.02.04.111-.231-.132-.466-.213-.709a.979.979,0,0,1,.154-.773,18.451,18.451,0,0,0-3.943-.566l-.4,2.813h3.114a2.714,2.714,0,0,1,.021-.325A.639.639,0,0,1,55.692,109.448Z"/><path class="cls-8" d="M59.542,110.253c0-.8-1.105-1.507-2.512-2.11-.115-.049-.244-.094-.377-.137a.979.979,0,0,0-.154.773c.081.243.324.478.213.709-.331.106-.719-.216-1.02-.04a.639.639,0,0,0-.249.48,2.714,2.714,0,0,0-.021.325h0s1.842.469,2.009,3.115c.057.9,1.306.5,2.01-.1S59.542,111.057,59.542,110.253Z"/><path class="cls-5" d="M29.2,120.9s-4.421,3.717-5.124,5.023-2.11,3.416-3.919,2.814-1.909-1.307-.5-2.713,3.416-4.622,1.708-5.526-4.723,1.507-5.325,4.019-1,6.832,3.516,7.033,5.727-2.01,7.435-4.22a6.856,6.856,0,0,1,4.522-2.411L29.1,120.5"/><path class="cls-5" d="M41.356,99.6s-.6,4.019-1.708,5.627-4.823,5.325-5.024,6.229-1.205,1.507-2.712,3.316S28.094,118.392,29,122.31s5.124,4.823,5.526,6.33-.4,3.818.3,5.225,4.019,1.1,5.125,1.406a45.267,45.267,0,0,0,5.526.4s1-1,.2-1.708-1.005-.9-1.909-1a8.1,8.1,0,0,1-3.115-1.307,11.532,11.532,0,0,1-1-1.306,7.589,7.589,0,0,0,3.517-2.21c1.909-1.909,2.813-6.531,2.813-6.531s3.014-3.617,4.321-4.923a12.478,12.478,0,0,0,3.215-7.335c.2-3.115-2.713-9.344-2.713-9.344Z"/><path class="cls-5" d="M49.294,107.139a3.679,3.679,0,0,0,1.808,4.019,33.218,33.218,0,0,1,5.426,4.722,3.647,3.647,0,0,1,.8,2.411.994.994,0,0,1-.6.7s.1.9-.3,1.1a1.567,1.567,0,0,1-1,0s-.905.7-1.608.2-.3-3.215-.3-3.215l-1.608-1.206a3.7,3.7,0,0,0-2.813-1.608c-2.01-.2-5.325,1-5.828-1.507a4.142,4.142,0,0,1,.7-3.717"/><path class="cls-9" d="M40.352,114.976a10.816,10.816,0,0,1,1.391.48,9.1,9.1,0,0,1,2.776,1.745,7.79,7.79,0,0,1,.573.7,6.011,6.011,0,0,1,.47.742,4.555,4.555,0,0,1,.522,1.471,3.307,3.307,0,0,1-.005,1.1,2.24,2.24,0,0,1-.1.4s-.011-.15-.045-.4a4.089,4.089,0,0,0-.265-.983,6.424,6.424,0,0,0-.671-1.24c-.142-.215-.313-.429-.477-.64a7.213,7.213,0,0,0-.541-.624,9.738,9.738,0,0,0-1.247-1.038l-1.2-.852C40.828,115.327,40.352,114.976,40.352,114.976Z"/><path class="cls-7" d="M55.121,117.588a2.619,2.619,0,0,1,.3,1.356,6.66,6.66,0,0,0,0,1.156"/><path class="cls-7" d="M55.955,116.646a3.73,3.73,0,0,1,.707,2.282"/><path class="cls-10" d="M58.4,111.057c.361-.011.182.445.423.713a3.75,3.75,0,0,1,.551.925l.26.552"/><path class="cls-10" d="M58.027,109.638a2.711,2.711,0,0,1,.873.3,1.749,1.749,0,0,1,.738,1.268"/><path class="cls-10" d="M45.409,135.506a3.407,3.407,0,0,0-1.431-2.07"/><path class="cls-5" d="M40.552,83.326s3.316-1.808,6.029-1.708,5.727,2.11,6.832,2.612,1.005,2.713,2.512,3.617,2.411.5,2.713,2.412-1.206,4.923-1.407,5.626A9.2,9.2,0,0,1,54.217,99.2a12.639,12.639,0,0,1-6.229,2.01c-1.608,0-7.436.7-8.943-1s-3.918-5.828-3.215-9.344S40.552,83.326,40.552,83.326Z"/><path class="cls-5" d="M37.438,90.862s-3.215-4.22-3.316-5.828-.3-3.416-.3-3.416,2.813.3,4.019.5a25.881,25.881,0,0,1,4.521,2.01"/><path class="cls-6" d="M38.242,89.555s-2.512-2.21-2.914-3.315-.9-3.416-.9-3.416a22.008,22.008,0,0,1,2.511,1.406c1.407.905,3.316,1.106,3.015,2.01s-.6-.2-.8.9a9.352,9.352,0,0,0-.1,2.211Z"/><path class="cls-8" d="M56.93,88.35a7.212,7.212,0,0,0-3.115,1.406c-1,1-2.914,3.015-1.909,4.522a2.8,2.8,0,0,0,2.612,1.507c.3-.1,2.613-.9,3.216-1.708s2.11-3.517.9-4.522S57.533,88.249,56.93,88.35Z"/><path class="cls-6" d="M57.131,91.364s-1.306.1-1.507-.6,1.1-2.11,1.808-1.708.9,1.206.6,1.507-.3,1.206-.3,1.206Z"/><path class="cls-8" d="M50.5,90.158s-2.21-.8-2.11.6,1.709,2.613,1.91,2.311S51.605,90.359,50.5,90.158Z"/><path class="cls-11" d="M47.177,89.807a3.047,3.047,0,0,1,1.173-2.448"/><path class="cls-10" d="M57.624,91.407c.112-.032.192.11.211.225a1.836,1.836,0,0,1-.362,1.348.82.82,0,0,1-.674.409c-.325-.028-.552-.367-.874-.413"/><path class="cls-9" d="M51,90.761a.905.905,0,0,1-1.809,0c0-.481-.03-.837.469-.837S51,90.091,51,90.761Z"/><path class="cls-8" d="M55.314,87.208s-1.271-1.979-2.044-.8a1.681,1.681,0,0,0,.981,2.376C54.593,88.667,56.071,88.037,55.314,87.208Z"/><path class="cls-9" d="M55.348,87.992a.905.905,0,0,1-1.439-1.1c.292-.383.483-.685.881-.382S55.754,87.459,55.348,87.992Z"/><path class="cls-12" d="M51.638,84.955l.868-.475a1.54,1.54,0,0,1,.418-.178,1.563,1.563,0,0,1,.8.12"/><path class="cls-12" d="M57.685,91.623c-.028.088.044.174.116.231a.914.914,0,0,0,.616.217.558.558,0,0,0,.5-.378"/><path class="cls-12" d="M53.573,92.749c-2.193,1.233-4.106,2.52-5.217,4.777"/><path class="cls-12" d="M54.043,93.268A15.945,15.945,0,0,0,50.1,99.737"/><path class="cls-12" d="M54.681,94.041a44.679,44.679,0,0,0-1.7,7.036"/><path class="cls-12" d="M57.929,88.854a3.049,3.049,0,0,1,.282-.681,4.09,4.09,0,0,1,1.306-1.344,12.2,12.2,0,0,1,1.667-.887"/><path class="cls-12" d="M58.223,89.216a.492.492,0,0,1,.2-.2,28.924,28.924,0,0,1,4.466-2.21"/><path class="cls-12" d="M58.651,89.556A14.985,14.985,0,0,1,64.8,88.535"/><path class="cls-10" d="M47.9,131.918a.993.993,0,0,0-.409-.852.967.967,0,0,0-.774-.28"/><path class="cls-13" d="M39.648,100.708S36.835,98.7,36.835,99.1a34.446,34.446,0,0,0-.8,3.617c0,1,.6,3.014,1.206,2.009a10.128,10.128,0,0,1,2.813-2.311c.3-.2.9,2.01.9,2.814s.3,3.416,1.206,2.411.9-2.11,1.909-3.517a8.963,8.963,0,0,0,1.34-2.846,17.324,17.324,0,0,1-4.053.033C40.452,101.01,39.648,100.708,39.648,100.708Z"/><path class="cls-13" d="M45.945,101.345s4.722-.469,4.923-.536a3.5,3.5,0,0,0,.4-.168l.368,1.206s-.971.167-1.775.4a5.96,5.96,0,0,1-2.311.435,16.8,16.8,0,0,0-2.445-.368l.2-.905Z"/><path class="cls-13" d="M39.782,100.675a2.563,2.563,0,0,0-.6,1.239,2.515,2.515,0,0,0,.268,1.038,1.471,1.471,0,0,0,.637.3l.368.067.2-.034s.2-.4.435-.971.5-1.172.5-1.172A3.485,3.485,0,0,0,39.782,100.675Z"/><path class="cls-8" d="M15.8,125.726s.7-.5.737.134-.67,1.541.4,1.039,1.306-.938,1.507-.737a2.928,2.928,0,0,1,.4.837s.67-.636,1.507-1.541a7.31,7.31,0,0,0,1.809-3.382c.1-.971-.134-1.809-1.273-1.943-1.635-.192-2.11.1-3.617,1.608A5.817,5.817,0,0,0,15.8,125.726Z"/><path class="cls-14" d="M117.905,62.5s8.577.558,11.467,5.148,5.851,29.487,5.851,29.487l-14.51,4.447L93.566,97.139l5.617-13.885V64.61Z"/><path class="cls-4" d="M111.447,92.863l-4.657.978s-3.672-2.023-5.471-2.844c-2.6-1.186-4.179-.1-2.36,1.383s2.738,3.013,1.568,3.062-8.543-.089-9.562,1.146,5.644,1.787,5.644,1.787-6.392,3.428-6.1,5.009,7.516-3.132,7.461-2.144-4.469,3.734-4.079,4.939,5.753-2.895,6.5-1.9-3.371,2.361-2,3.354,3.846-1.823,5.191-3.043,4.78-4.825,4.78-4.825l5.6-1.26S114.329,93.722,111.447,92.863Z"/><path class="cls-14" d="M121.044,71.266s.331-10.152,6.456-6.188,3.745,19.28,1.535,23.53-9.011,6.952-11.731,7.981-3.4,4.43-3.4,4.43a19.135,19.135,0,0,0-3.23-4.43,11.684,11.684,0,0,1-2.039-2.642,20.44,20.44,0,0,1-1.021-1.939s6.29-2.38,7.65-3.4S120.874,75.683,121.044,71.266Z"/><path class="cls-15" d="M63.331,94.1s-2.88-4.379,2.216-4.926,5.319,4.379,5.319,4.379Z"/><path class="cls-15" d="M64.736,96.437s-2.881-4.379,2.216-4.926S72.27,95.89,72.27,95.89Z"/><path class="cls-14" d="M76.95,83.566a52.269,52.269,0,0,1,2.341,4.914c.468,1.405-.7,4.213,2.106,4.213s7.021-3.042,12.169-6.085,6.787-12.169,6.787-12.169l-.468-9.829s-4.915,2.574-8.191,9.595C89.515,78.875,76.95,83.566,76.95,83.566Z"/><path class="cls-1" d="M104.565,60.865s-.382,6.495,2.809,7.957c5.616,2.575,9.829.7,9.595-3.042s-.936-9.361-.936-9.361Z"/><path class="cls-1" d="M89.424,36.559s.646,8.277,1.717,10.164a12.211,12.211,0,0,1,1.194,8.149c-.656,3.153,2.135,5.739,4.176,6.825s9.619,2.815,13.612,1.466C116.527,61,124.93,49.5,125.488,44.854s-2.574-14.948-5.285-17.437S108.95,18.941,104.1,21.16,89.087,33.167,89.424,36.559Z"/><path class="cls-8" d="M104.8,39.013s-1.2-2.09.774-2.985,4.128-.7,4.844,2.291-2.622,4.191-3.407,3.875S104.8,39.013,104.8,39.013Z"/><path class="cls-12" d="M107.962,28.721a2.685,2.685,0,0,0-1.738-.3,7.752,7.752,0,0,0-1.725.5,9.216,9.216,0,0,0-4.027,2.4"/><path class="cls-12" d="M103.115,46.394a2.811,2.811,0,0,0-1.826-.506,2.184,2.184,0,0,0-1.659,1.6c-.222.782-.35.854-.094,1.625"/><path class="cls-16" d="M108.333,22.633a25.433,25.433,0,0,1-7.121,5.277A10.423,10.423,0,0,0,96.2,32.061s-1,.334-.4-1.261a13.783,13.783,0,0,0,.608-3.926,23.553,23.553,0,0,1-1.989,5.191A22.352,22.352,0,0,1,91.88,35.14l1.534-3.471S93.654,33.183,91,35.5s-1,6.334-1,6.334l.27,1.717s-1.421,1.24-2.985-1.835-1.859-8.46-1.859-8.46-2.56.159-2.034,1.683-2.2-.14.714-4.017,3.422-4.666,3.422-4.666-3.03.181-3.844-.247,2.941-.23,3.945-.693,8.174-6.883,11.947-8.536,13.474-3.68,15.608-2.876,9.6,2.583,12.323,4.247,4.3,1.8,4.89,4.137.826,4.106,2.837,5.5,3.544,1.474,3.378,3.936,3.136.838,4.352,4.972-1.975,11.5-1.975,11.5l-.317-2.832s-.317,2.24-.726,5.221-7.759,7.158-7.759,7.158l-2.629.856s-2.936.147.156-2.34c1.488-1.2-1.518-.292-2.42.561-2.743,2.593-5.764.233-5.549.049s-2.315-.065-2.315-.065,4.287-7.377,2.891-11.849c-.941-3.01-4.4-11.907-4.4-11.907s-.339,4.409-.522,4.928.187-2.363-2.782-5.631a58.813,58.813,0,0,1-5.021-6.725A11.88,11.88,0,0,1,108.333,22.633Z"/><path class="cls-9" d="M105.7,40.389s-.711-1.236.445-1.756A1.847,1.847,0,0,1,109,40a1.872,1.872,0,0,1-1.989,2.271C106.549,42.082,105.7,40.389,105.7,40.389Z"/><path class="cls-8" d="M90.953,45.731s-1.2-2.089.775-2.984,4.127-.7,4.843,2.29-2.622,4.191-3.406,3.875S90.953,45.731,90.953,45.731Z"/><path class="cls-9" d="M91.786,47.028s-.711-1.235.445-1.756a1.847,1.847,0,0,1,2.855,1.367A1.872,1.872,0,0,1,93.1,48.91C92.635,48.721,91.786,47.028,91.786,47.028Z"/><path class="cls-12" d="M93.073,36.779a2.936,2.936,0,0,0-2.122,1.039,5.361,5.361,0,0,0-1.086,2.155"/><path class="cls-9" d="M107.718,14.874l-1.056.006a27.754,27.754,0,0,0-6.629.966,9.311,9.311,0,0,0-2.029.8A11.88,11.88,0,0,0,96.178,18a17.682,17.682,0,0,1-3.791,2.577,16.579,16.579,0,0,1-1.941.825,5.793,5.793,0,0,1-1.85.406,1.951,1.951,0,0,1-1.484-.54,1.632,1.632,0,0,1-.413-1.142,1.023,1.023,0,0,1,.3-.715,1.043,1.043,0,0,1,.227-.161A1.091,1.091,0,0,0,87,19.42a.994.994,0,0,0-.271.71,1.575,1.575,0,0,0,.431,1.094,1.858,1.858,0,0,0,1.43.47,5.683,5.683,0,0,0,1.793-.452,16.653,16.653,0,0,0,1.892-.872,17.461,17.461,0,0,0,3.653-2.649,12.2,12.2,0,0,1,1.849-1.455,9.754,9.754,0,0,1,2.106-.911,27.964,27.964,0,0,1,3.917-.9c1.163-.181,2.144-.257,2.831-.295l1.077-.039Z"/><path class="cls-9" d="M107.563,15.665s-.2.093-.515.263a11.146,11.146,0,0,0-1.266.8,15.917,15.917,0,0,0-3.255,3.239,31.5,31.5,0,0,0-2.5,3.935l-1,1.878s.36-.772.9-1.931a32.017,32.017,0,0,1,2.3-4.1,16.442,16.442,0,0,1,3.177-3.526,11.926,11.926,0,0,1,1.3-.918c.331-.2.512-.3.512-.3Z"/><path class="cls-9" d="M108.047,14.836l-.076.174a2.709,2.709,0,0,0-.121.434,4.111,4.111,0,0,0,.123,1.75,10.889,10.889,0,0,0,.986,2.434,11.207,11.207,0,0,0,1.815,2.428c.732.738,1.574,1.383,2.3,2.067a7.321,7.321,0,0,1,1.675,2.145,4.075,4.075,0,0,1,.449,1.858,2.861,2.861,0,0,1-.093.721,2.893,2.893,0,0,0,.061-.72,4.013,4.013,0,0,0-.521-1.806,7.153,7.153,0,0,0-1.729-2.021c-.744-.642-1.612-1.246-2.4-1.975a11.552,11.552,0,0,1-3.15-4.96,4.783,4.783,0,0,1-.223-2.033,3.227,3.227,0,0,1,.144-.6c.045-.115.068-.177.068-.177Z"/><path class="cls-9" d="M108.173,14.4l3.346,3.946,3.43,4.046c1.252,1.48,2.608,3.057,3.816,4.752a21.9,21.9,0,0,1,2.9,5.366,13.563,13.563,0,0,1,.767,5.25,10.055,10.055,0,0,1-.881,3.637,8.754,8.754,0,0,1-.5.923l-.2.315.19-.32a8.443,8.443,0,0,0,.483-.931,10.013,10.013,0,0,0,.793-3.63,13.419,13.419,0,0,0-.871-5.159,21.6,21.6,0,0,0-2.982-5.23c-1.232-1.649-2.614-3.185-3.9-4.638l-3.521-3.966-3.435-3.87Z"/><path class="cls-9" d="M107.768,14.054s.36-.045,1.065-.056a12.481,12.481,0,0,1,2.8.314,14.316,14.316,0,0,1,3.691,1.4A16.513,16.513,0,0,1,117.2,16.9a19.391,19.391,0,0,1,1.76,1.454,25.029,25.029,0,0,1,2.973,3.338,14.779,14.779,0,0,1,1.951,3.368,7.848,7.848,0,0,1,.577,2.681,5.915,5.915,0,0,1-.033.769l-.029.271.021-.272a6.034,6.034,0,0,0,.009-.767,7.8,7.8,0,0,0-.653-2.638,20.314,20.314,0,0,0-5.067-6.471,19.373,19.373,0,0,0-1.765-1.37,16.455,16.455,0,0,0-1.854-1.1,13.82,13.82,0,0,0-3.584-1.233,11.758,11.758,0,0,0-2.653-.215c-.62.027-1.011.084-1.011.084Z"/><path class="cls-9" d="M119.12,35.1s.111.361.3.993.432,1.548.667,2.657a35.99,35.99,0,0,1,.6,3.822,16.048,16.048,0,0,1-.108,4.441,12.985,12.985,0,0,1-1.528,4.162,12.848,12.848,0,0,1-2.4,3.007,4.5,4.5,0,0,1-1.252.9,1.723,1.723,0,0,1-1.17.105,1.149,1.149,0,0,1-.787-.623,1.137,1.137,0,0,0,.8.591,1.675,1.675,0,0,0,1.134-.136,4.42,4.42,0,0,0,1.2-.918,12.642,12.642,0,0,0,3.642-7.139,15.55,15.55,0,0,0-.031-4.329,35.21,35.21,0,0,0-.7-3.738c-.265-1.082-.535-1.97-.736-2.587s-.329-.967-.329-.967Z"/><path class="cls-9" d="M92.512,49.459l.03.027a.832.832,0,0,1,.134.153,1.54,1.54,0,0,1,.21.55,4.6,4.6,0,0,1,.079.744,6.023,6.023,0,0,1-.027.954,4.8,4.8,0,0,1-.335,1.079c-.143.35-.3.723-.492,1.1a4.516,4.516,0,0,1-1.769,1.987,2.694,2.694,0,0,1-1.334.35,3.87,3.87,0,0,1-1.278-.267A3.561,3.561,0,0,1,85.91,54.8a1.393,1.393,0,0,1-.2-.885,1.264,1.264,0,0,1,.265-.643.882.882,0,0,1,.5-.318.862.862,0,0,0-.474.339,1.251,1.251,0,0,0,.015,1.442,3.382,3.382,0,0,0,1.8,1.166A3.576,3.576,0,0,0,89,56.084a2.336,2.336,0,0,0,1.141-.37,4.058,4.058,0,0,0,1.483-1.88,8.866,8.866,0,0,0,.654-2.031,6.7,6.7,0,0,0-.015-.831,3.788,3.788,0,0,0-.09-.623.859.859,0,0,0-.1-.273c.017.016.015,0-.02-.023l-.03-.025Z"/><path class="cls-10" d="M98.323,53.832a8.764,8.764,0,0,0,8.222-2.225,16.585,16.585,0,0,0,4.356-7.651"/></svg>