<svg id="word" xmlns="http://www.w3.org/2000/svg" viewBox="0 0 160 160"><defs><style>.cls-1,.cls-2{fill:#fffad4;}.cls-1{stroke:#9c4c9c;}.cls-1,.cls-2,.cls-3,.cls-4,.cls-7{stroke-miterlimit:10;stroke-width:0.508px;}.cls-2,.cls-3,.cls-4,.cls-7{stroke:#9d4b9c;}.cls-3{fill:#f1d9b3;}.cls-4{fill:none;}.cls-5{fill:#9c4c9c;}.cls-6{fill:#b62226;}.cls-7{fill:#beba9f;}</style></defs><polygon class="cls-1" points="90.308 14.479 99.292 14.479 123.574 27.105 116.289 27.348 90.308 14.479"/><polygon class="cls-2" points="90.308 14.479 88.609 95.093 116.289 133.214 116.289 27.348 90.308 14.479"/><polygon class="cls-3" points="123.574 27.105 116.289 27.348 116.289 133.214 123.574 134.186 123.574 27.105"/><polyline class="cls-4" points="94.849 103.687 96.621 58.671 106.941 67.412 106.188 119.303"/><path class="cls-5" d="M94.228,77.856l-3.02,5.934c-.9,1.779-1.895,3.884-2.9,6.158a67.031,67.031,0,0,0-2.749,7.278,47.125,47.125,0,0,0-1.761,7.557c-.161,1.228-.311,2.418-.373,3.554-.081,1.134-.079,2.21-.064,3.2.038.992.1,1.9.172,2.706.092.8.182,1.5.289,2.075.088.575.192,1.021.251,1.327l.1.47-.133-.46c-.081-.3-.232-.737-.35-1.309-.142-.568-.274-1.265-.416-2.068-.057-.4-.117-.834-.181-1.287s-.085-.935-.128-1.436a36.264,36.264,0,0,1,.226-6.859,47.441,47.441,0,0,1,1.694-7.685A67.593,67.593,0,0,1,87.742,89.7c1.042-2.28,2.156-4.336,3.113-6.092s1.83-3.177,2.421-4.182Z"/><path class="cls-5" d="M44.9,79.067s.4.487,1.03,1.385,1.519,2.2,2.46,3.831c.476.814.963,1.713,1.459,2.675s.985,2,1.431,3.091.878,2.242,1.231,3.436c.368,1.188.693,2.394,1.074,3.578s.752,2.382,1.142,3.551.779,2.324,1.094,3.471a11.674,11.674,0,0,1,.5,3.417,13.312,13.312,0,0,1-.539,3.03,38.8,38.8,0,0,0-.771,4.456c-.121,1.088-.151,1.715-.151,1.715s-.033-.627.013-1.726a31.972,31.972,0,0,1,.517-4.53,10.059,10.059,0,0,0-.16-6.2c-.657-2.227-1.571-4.577-2.319-6.977-.371-1.207-.683-2.426-1.031-3.6-.331-1.176-.748-2.308-1.168-3.4-.437-1.081-.873-2.122-1.324-3.095s-.9-1.882-1.342-2.708c-.879-1.655-1.651-3.017-2.227-3.949S44.9,79.067,44.9,79.067Z"/><path class="cls-5" d="M50.017,72.276l1.3,1.706c.826,1.088,2.073,2.587,3.5,4.448.713.93,1.473,1.95,2.235,3.062.387.552.762,1.152,1.121,1.749s.741,1.214,1.074,1.878.708,1.315,1.006,2.012.652,1.381.916,2.11a42.01,42.01,0,0,1,1.514,4.44,42.552,42.552,0,0,1,.986,4.585,44.16,44.16,0,0,1,.491,4.515c.02.736.086,1.459.067,2.168l-.049,2.076q-.075,1.009-.147,1.96c-.05.632-.151,1.238-.22,1.821-.125,1.17-.391,2.22-.563,3.157-.24.924-.431,1.733-.62,2.39l-.661,2.044.527-2.079c.155-.664.3-1.479.494-2.407l.218-1.5c.083-.525.163-1.077.208-1.658s.131-1.183.161-1.81.056-1.274.085-1.941c-.006-.666-.011-1.351-.017-2.05s-.067-1.412-.1-2.138a43.214,43.214,0,0,0-.53-4.444A42.362,42.362,0,0,0,62,93.87a41.128,41.128,0,0,0-1.445-4.385c-.252-.72-.584-1.4-.881-2.087s-.638-1.337-.965-1.982c-.312-.65-.684-1.267-1.034-1.879s-.686-1.2-1.051-1.76c-.721-1.123-1.444-2.161-2.126-3.11-1.371-1.893-2.51-3.481-3.29-4.6S50.017,72.276,50.017,72.276Z"/><path class="cls-5" d="M71.152,70.258l-.234,2.181c-.162,1.387-.345,3.369-.547,5.75-.111,1.189-.2,2.48-.287,3.846s-.142,2.808-.236,4.3c-.057,1.491-.132,3.031-.152,4.6-.046,1.566-.034,3.158-.041,4.749.015,1.591.006,3.183.058,4.749.026,1.566.107,3.106.169,4.6.1,1.489.149,2.931.252,4.3s.185,2.656.3,3.846c.21,2.379.4,4.363.567,5.748l.241,2.18-.378-2.161c-.122-.688-.25-1.525-.39-2.488s-.307-2.048-.438-3.238c-.152-1.188-.285-2.478-.419-3.844s-.249-2.809-.351-4.3c-.078-1.5-.174-3.041-.216-4.613-.068-1.571-.078-3.169-.105-4.767.023-1.6.027-3.2.089-4.767.036-1.572.127-3.117.2-4.613.1-1.494.2-2.939.336-4.3s.258-2.658.405-3.846c.127-1.191.282-2.278.427-3.24s.262-1.8.381-2.489C71.017,71.044,71.152,70.258,71.152,70.258Z"/><path class="cls-5" d="M89.628,72.477l-.409.362a14.6,14.6,0,0,0-1.088,1.085,16.278,16.278,0,0,0-1.479,1.865,26.058,26.058,0,0,0-1.576,2.649,35.808,35.808,0,0,0-1.5,3.328c-.48,1.2-.926,2.5-1.4,3.841a82.255,82.255,0,0,0-2.439,8.532,84.129,84.129,0,0,0-1.608,8.73c-.176,1.407-.331,2.769-.457,4.063-.1,1.3-.2,2.523-.245,3.658-.066,1.134-.071,2.175-.112,3.1,0,.924-.007,1.729-.009,2.393.019,1.328.03,2.087.03,2.087l-.169-2.082c-.032-.665-.071-1.471-.116-2.4-.011-.925-.063-1.972-.024-3.113.007-1.141.065-2.376.128-3.683.046-.653.094-1.324.143-2.009s.145-1.382.218-2.092a84.523,84.523,0,0,1,1.529-8.816A83.146,83.146,0,0,1,81.59,85.4a47.855,47.855,0,0,1,3.136-7.148,19.3,19.3,0,0,1,3.306-4.421,12.241,12.241,0,0,1,1.162-1.019Z"/><path class="cls-5" d="M54.306,101.694l.117.133a4.173,4.173,0,0,0,.353.372,6.673,6.673,0,0,0,1.586,1.105,12,12,0,0,0,2.839.981c1.134.257,2.444.468,3.861.667a48.085,48.085,0,0,0,9.778.287,46.9,46.9,0,0,0,5.472-.7,24.359,24.359,0,0,0,2.735-.636,2.822,2.822,0,0,0,1.934-1.576,2.584,2.584,0,0,0-.528-2.348,3.424,3.424,0,0,0-.959-.857,5.264,5.264,0,0,0-1.239-.515,13.612,13.612,0,0,0-2.714-.377l-2.742-.21c-1.8-.145-3.527-.309-5.169-.369a29.441,29.441,0,0,0-4.613.154,20.228,20.228,0,0,0-3.8.836,14.264,14.264,0,0,0-2.748,1.225,13.913,13.913,0,0,0-1.6,1.1l-.523.451.5-.48a12.156,12.156,0,0,1,1.556-1.189,14.394,14.394,0,0,1,2.732-1.356,18.166,18.166,0,0,1,3.839-.983,44.664,44.664,0,0,1,9.884,0l2.734.186a14.163,14.163,0,0,1,2.85.376,5.978,5.978,0,0,1,1.39.563A4.081,4.081,0,0,1,83,99.554a3.233,3.233,0,0,1,.636,3.05,2.83,2.83,0,0,1-.984,1.265,5,5,0,0,1-1.384.68,24.581,24.581,0,0,1-2.833.637,47.5,47.5,0,0,1-5.552.668A45.5,45.5,0,0,1,63,105.347a20.9,20.9,0,0,1-6.707-1.922,6.332,6.332,0,0,1-1.548-1.2,4.256,4.256,0,0,1-.334-.393Z"/><path class="cls-5" d="M54.5,85.649A8.181,8.181,0,0,0,51.7,86.761a2.438,2.438,0,0,0-1.1,2.514,3.006,3.006,0,0,0,2.2,1.716,13.572,13.572,0,0,0,1.461.344c.5.1.995.2,1.492.283a89.529,89.529,0,0,0,12.064,1.163c2.022.077,4.046.108,6.072.118l3.04,0c1.013-.005,2.031,0,3.033-.021a10.36,10.36,0,0,0,5.648-1.36A6.33,6.33,0,0,0,88.415,86.7l.269.325q-1.537-.227-3.079-.418l-3.087-.352q-3.092-.318-6.2-.471t-6.22-.162q-1.556,0-3.113.033c-1.037.029-2.075.055-3.113.1,2.069-.194,4.145-.313,6.223-.379q1.559-.047,3.119-.058,1.56,0,3.12.045,3.12.087,6.233.34c2.076.162,4.145.407,6.207.7l.282.04-.014.286a6.976,6.976,0,0,1-3.051,5.358,8.057,8.057,0,0,1-2.916,1.192,16.5,16.5,0,0,1-3.085.317c-1.027.018-2.036,0-3.052,0L73.9,93.565c-2.03-.025-4.061-.07-6.092-.161s-4.061-.23-6.083-.46-4.035-.523-6.035-.921c-.5-.091-1-.207-1.49-.316a12.572,12.572,0,0,1-1.49-.389,5.152,5.152,0,0,1-1.4-.695,2.357,2.357,0,0,1-.925-1.272,2.138,2.138,0,0,1,.208-1.555,3.193,3.193,0,0,1,1.038-1.145A8.013,8.013,0,0,1,54.5,85.649Z"/><path class="cls-6" d="M69.406,85.151c-13.072,0-26.966-3.072-26.966-8.765s13.894-8.765,26.966-8.765,26.966,3.072,26.966,8.765S82.478,85.151,69.406,85.151Zm0-16c-14.993,0-25.441,3.815-25.441,7.24s10.448,7.24,25.441,7.24,25.441-3.815,25.441-7.24S84.4,69.146,69.406,69.146Z"/><path class="cls-7" d="M98.989,72.477l-6.465-.75s2.474,1.2,3.107,2.15a5.333,5.333,0,0,1,.478,3.585l7.25-2.1Z"/></svg>