<svg id="word" xmlns="http://www.w3.org/2000/svg" xmlns:xlink="http://www.w3.org/1999/xlink" viewBox="0 0 160 160"><defs><style>.cls-1{opacity:0.16;}.cls-2{fill:#9c4c9c;}.cls-3{fill:#fbe3d4;}.cls-10,.cls-11,.cls-14,.cls-3,.cls-4,.cls-5,.cls-6,.cls-7,.cls-8,.cls-9{stroke:#9d4b9c;}.cls-10,.cls-11,.cls-3,.cls-5,.cls-6,.cls-7,.cls-8,.cls-9{stroke-width:0.44px;}.cls-11,.cls-4,.cls-8{fill:none;}.cls-4{stroke-miterlimit:10;}.cls-14,.cls-4{stroke-width:0.498px;}.cls-5{fill:#fff;}.cls-6{fill:#3b3a3c;}.cls-7{fill:#2a3b8e;}.cls-9{fill:#dfb4b3;}.cls-10{fill:#635954;}.cls-11{stroke-linecap:round;}.cls-12{fill:#c1976b;}.cls-13{fill:#895d3b;}.cls-14{fill:url(#radial-gradient);}</style><radialGradient id="radial-gradient" cx="102.112" cy="54.557" r="16.469" gradientTransform="translate(0 -29.534) scale(1 0.972)" gradientUnits="userSpaceOnUse"><stop offset="0.004" stop-color="#fff1db"/><stop offset="0.24" stop-color="#e0bd7f"/><stop offset="0.309" stop-color="#d7ae64"/><stop offset="0.853" stop-color="#b45232"/><stop offset="1" stop-color="#aa3924"/></radialGradient></defs><g class="cls-1"><path class="cls-2" d="M85.332,40.776a.969.969,0,0,0-.558.112C84.673,40.991,84.906,40.922,85.332,40.776Z"/></g><path class="cls-3" d="M53.915,116.183l-.236,6.037s-6.488.322-7.728.55-4.962,1.437-4.962,1.437l.407,5.336s14.46-.107,16.363-2.205,2.561-10.587,2.561-10.587Z"/><path class="cls-3" d="M56.47,76.14a6.979,6.979,0,0,0-3.951-.129c-1.967.6-10.851,7.218-11.444,7.872S34.7,92.3,34.3,93.932s-2.334,7.751-2.334,7.751-3.4,1.483-3.971,1.822-2.385,2.153-3.051,2.432-2.324.817-1.637,1.469,2.881-.842,2.881-.842L27.4,105.8a5.414,5.414,0,0,0-1.674,2.1c-.413,1.167-1.84,3.3-1.071,3.547s1.256-.543,1.507-.9,1.257-2.179,1.257-2.179-1.307,3.979-.954,4.148,1.348-.482,1.633-1.079a25.2,25.2,0,0,0,.787-2.949s-.578,3.611-.07,3.751,1.393-1.892,1.7-3.2a8.041,8.041,0,0,1,.543-1.736,9.181,9.181,0,0,1,1.986-.911c.4,0,1.116-.439,1.712.152s3.035,2.011,3.614,1.282-1.574-1.5-1.827-2.39a32.5,32.5,0,0,0-1.937-3.771S40.858,91.4,41.083,90.5s3.373-3.659,4.338-4.46,7.811-4.321,7.811-4.321l.228,3.229s3.011-5.928,3.2-6.2A11.046,11.046,0,0,0,56.47,76.14Z"/><path class="cls-4" d="M30.848,105.394a16.646,16.646,0,0,0-1.515,1.681,11.352,11.352,0,0,0-.447,1.407"/><path class="cls-3" d="M27.42,108.362s.878-2.177.995-2.344,1.018-.947,1.018-.947"/><path class="cls-3" d="M67.677,73.219s8.722-10.33,9.7-12.3,7.136-15.179,7.136-15.179-1.749.478-2.274-.982-.348-2.2-1.224-2.579-1.951-.965-.82-1.329a3.552,3.552,0,0,1,2.5.475s-1.17-4.769-.286-5.166,1.24,1.018,1.284,1.244.369,3.125.6,3.082-.232-4.358-.058-4.818c.476-1.256,1.364-2.043,1.662-.929s-.455,5.068.068,5.284.633-2.921,1.086-3.472,1.511-1.291,1.779-.327-1.558,4.337-1.065,4.4,2.926-2.253,3.434-2.113.544,1.146.013,1.711-1.655,1.785-1.6,2.086-.415,2.8-1.1,3.4a15.655,15.655,0,0,1-1.835,1.272S82.606,59.8,81.647,61.455,71.382,76.2,71.543,77.024s.3,5.241.3,5.241Z"/><path class="cls-3" d="M82.884,41.455c.388.037.4.6.668.875.341.358.957.148,1.44.279.664.179.93.941,1.076,1.6"/><path class="cls-3" d="M82.782,90.3s4.4-1.668,5.333-.593.631,6.114.556,7.374S86.7,112.863,86.7,112.863l-4.477.046a21.41,21.41,0,0,1-.7-3.6,11.291,11.291,0,0,1,.189-3.937,48.058,48.058,0,0,0,1.042-8.214L79.25,98.892Z"/><path class="cls-3" d="M83.923,109.714a19.418,19.418,0,0,0,3.543-.731L86.4,116.657s-2.4,3.713-3.525,2.051a11.417,11.417,0,0,1-1.31-4.665l-.025-5.058A4.815,4.815,0,0,0,83.923,109.714Z"/><path class="cls-5" d="M91.592,121.931c-1.381.856-2.994,3.936-3.656,5.293a4.291,4.291,0,0,0,3.179.48c.916-.108,4.8-.762,6.459-1.044a14.6,14.6,0,0,0,.29-2.146c.087-1.475-1.478-2.782-3.115-3.572A8.572,8.572,0,0,0,91.592,121.931Z"/><path class="cls-5" d="M87.936,127.224c-.161-.093-.327-.2-.5-.322-1.578-1.111-3.038-3.256-4.978-3.756a12.477,12.477,0,0,1-2.587-1c-.14.662-.226,1.366-.226,1.366a13.081,13.081,0,0,0,2.962,1.635c1.461.51,2.2,2.243,3.8,3.039s5.64.986,7.186.7a15.666,15.666,0,0,0,3.846-1.643s.062-.219.14-.581c-1.664.282-5.543.936-6.459,1.044a4.291,4.291,0,0,1-3.179-.48"/><path class="cls-6" d="M87.434,126.9c.175.124.341.229.5.322.662-1.357,2.275-4.437,3.656-5.293a8.572,8.572,0,0,1,3.157-.989c-.112-.054-.224-.1-.335-.154-1.752-.768-2.657-1.3-3.073-1.381a19.221,19.221,0,0,1-2.635-2.007l.284-.6s-1.595-2.432-3.171-2.3-2.853,2.628-2.853,2.628a5.96,5.96,0,0,0-.531-2.316c-.53-1.071-1.79-.138-1.79-.138a6.57,6.57,0,0,0-.283,3.479,7.338,7.338,0,0,1-.264,3.164,5.417,5.417,0,0,0-.229.821,12.477,12.477,0,0,0,2.587,1C84.4,123.646,85.856,125.791,87.434,126.9Z"/><path class="cls-5" d="M51.381,99.353s-.992,4.778-.448,5.924a9.825,9.825,0,0,1,.9,2.95,16.833,16.833,0,0,1-.706,2.545c-.1.329-1.614,5.282-1.614,5.282s7.35,2.773,9.555,2.99a18.564,18.564,0,0,0,5.255-.578s.186-1.514.559-3.3,2.028-6.448,2.061-6.688a7.02,7.02,0,0,1,.506-1.106s.163-.809,2.516-1.476,7.328-3.92,8.063-3.432a4.415,4.415,0,0,0,1.414.674c1.045.43,1.784-2.354,1.62-4.427s.8-6.145,1.631-6.842,2.852-2.629,2.852-2.629a5.237,5.237,0,0,0-2.489.381c-1.256.543-5.154,2.741-7,3.548s-6.174,2.851-6.174,2.851Z"/><path class="cls-3" d="M59.312,72.638l.049,3.125-1.809.178s-1.045,6.968,3.207,7.821,5.733-3.471,5.741-4.251-.5-5.828-.5-5.828Z"/><path class="cls-7" d="M58.485,75.38s-.112,4.771,1.563,5.553,4.624.706,5.185-1.345a41.83,41.83,0,0,0,.9-5.229L68.1,72.713s2.393,3.936,2.339,5.527a2.972,2.972,0,0,0,2.386,3.3s-.215,8.763-.948,9.521.543,1.146.675,1.823-.376.536.132.676.721.412.481,1.236-.475,4.137-4.511,4.8-4.632.074-5.907.932a9.818,9.818,0,0,1-5.252,1.825c-2.007-.02-6.711-1.957-7.119-2.817s.514-1.886.927-3.052-.491-1.7.169-2.835,1.206-1.624.971-2.827a20.273,20.273,0,0,1-.086-3.937c.033-.24.978-4.639.978-4.639a.946.946,0,0,0,1.421-.106c.811-.773,1.452-4.474,1.452-4.474l-.057-1.936A6.287,6.287,0,0,1,58.485,75.38Z"/><path class="cls-8" d="M63.268,99.208c-.076-.148.141-.268.306-.3a9.242,9.242,0,0,0,4.464-2.651,26.736,26.736,0,0,0,3.141-4.145"/><path class="cls-8" d="M52.1,97.474a4.777,4.777,0,0,0,1.547.373,14.794,14.794,0,0,0,9.6-2.791,37.816,37.816,0,0,0,7.25-6.987"/><path class="cls-3" d="M69.959,51.48s1.91,6.047,2.483,7.622,1.607,3.129.737,5.487-3.2,6.793-5.593,8.14-4.662,2.345-6.445,1.381-4.656-.694-7.162-3.657-4.77-11.854-2.032-15.2,4.527-5.423,8.491-5.895S68.314,49.521,69.959,51.48Z"/><path class="cls-9" d="M61.851,66.684a7.313,7.313,0,0,0,4.316,1.338c2.3-.165,2.7-.5,2.7-.5s-2.415,4.323-4.122,3.409S61.851,66.684,61.851,66.684Z"/><path class="cls-3" d="M64.977,64.809a.449.449,0,0,1,.091-.468,1.287,1.287,0,0,1,.419-.289,2.284,2.284,0,0,1,.942-.3.885.885,0,0,1,.83.434"/><path class="cls-10" d="M67.543,51.02a3.265,3.265,0,0,1-1.3,2.566c-1.382,1.094-2.872,2.662-2.648,2.1s.766-2.209.766-2.209a4.072,4.072,0,0,1-2.339,1.982c-1.905.8-1.333-.013-.76-.829s.107-.473-1.56.869a42.614,42.614,0,0,1-4.54,2.969,3.833,3.833,0,0,0,1.264-2.043c.334-1.354-.813.6-2.018,1.923s-1.951,1.588-1.94,3.008-.487,3.644-.337,4.069,1.843,5.025,1.843,5.025S50.647,69.386,49.8,68.12s-2.778-2.655-3.959-4.958-1.511-3.664-1.106-5.678-1.082.587-1.082.587a9.64,9.64,0,0,1,1.547-4.68,20.971,20.971,0,0,1,4.478-4.315l-3.5,1.161a42.388,42.388,0,0,1,6.129-3c2.494-.847,6.122-2.356,6.685-2.2s-3.645-.621-4.033-.227,4.117-1.728,5.892-1.15a5.548,5.548,0,0,1,2.116.968,13.144,13.144,0,0,0,.772-1.5,1.681,1.681,0,0,1,.712-.777l0,2.715a22.212,22.212,0,0,1,1.6-2.687c.193-.036-.457,2.088-.457,2.088a1.766,1.766,0,0,1,1.269-1.333c1.027-.189-1.139,2.343-1.139,2.343s2.657-1.718,3.991-.671,3.17,1.937,3.3,2.947.754.119.439,3.28-.676,7.1-.639,7.292a9.031,9.031,0,0,1-.154,1.256,29.091,29.091,0,0,1-1.957-5.262c-.264-1.7-2.407-3.823-2.407-3.823s2.1,2.587.722,2S67.543,51.02,67.543,51.02Z"/><path class="cls-11" d="M84.686,119.152a10.28,10.28,0,0,1,4.051-1.75"/><path class="cls-11" d="M86.78,120.815a1.48,1.48,0,0,1,.6-.52,14.836,14.836,0,0,1,3.128-1.373"/><path class="cls-11" d="M88.618,122.882a1.648,1.648,0,0,1,.659-1.128,8.933,8.933,0,0,1,1.156-.718,7.7,7.7,0,0,0,1.591-1.251"/><path class="cls-3" d="M52.169,65.939s-1.808-1.089-2.038.117-.288,2.961,1.166,3.6a2.574,2.574,0,0,0,2.448-.063"/><path class="cls-5" d="M70.4,57.793s-2.026-.511-2.489.406-.737,2.528.762,3.084,2.08-.851,2.069-1.733A5.915,5.915,0,0,0,70.4,57.793Z"/><path class="cls-2" d="M70.559,57.864s-1.369-.345-1.682.275-.5,1.709.515,2.085,1.406-.575,1.4-1.172A4.011,4.011,0,0,0,70.559,57.864Z"/><path class="cls-8" d="M68.081,54.721a2.6,2.6,0,0,1,2.241.966"/><path class="cls-8" d="M59.164,57.652c-.019-.4.358-.7.719-.894a5.421,5.421,0,0,1,2.551-.627"/><path class="cls-5" d="M62.128,58.927s-2.026-.511-2.489.406-.737,2.528.762,3.084,2.081-.851,2.069-1.733A5.915,5.915,0,0,0,62.128,58.927Z"/><path class="cls-2" d="M62.288,59s-1.369-.346-1.682.274-.5,1.71.515,2.085,1.406-.575,1.4-1.171A4,4,0,0,0,62.288,59Z"/><path class="cls-5" d="M41.518,126.38a18.106,18.106,0,0,0,1.3,3.289l-7.963.171s-4.148-1.726-2.634-3.066a12.178,12.178,0,0,1,4.535-1.985l5.136-.813A4.481,4.481,0,0,0,41.518,126.38Z"/><path class="cls-6" d="M27.641,127.066c-.2,1.941-2.157,3.677-3.04,5.366a4.213,4.213,0,0,0-.236.536c1.489.427,4.853,1.492,5.936,2.682a8.1,8.1,0,0,1,1.5,2.877c.037-.116.072-.231.1-.346.507-1.8.909-2.755.924-3.166a18.647,18.647,0,0,1,1.629-2.843l.651.18s2.222-1.912,1.84-3.4-3.116-2.33-3.116-2.33a6.4,6.4,0,0,0,2.271-.871c1.006-.676-.139-1.74-.139-1.74a7.132,7.132,0,0,0-3.579.27,7.952,7.952,0,0,1-3.256.24,5.723,5.723,0,0,0-.87-.091A11.689,11.689,0,0,0,27.641,127.066Z"/><path class="cls-5" d="M30.3,135.65c-1.083-1.19-4.447-2.255-5.936-2.682-.486,1.341.092,2.107,0,3.124-.161,1.691,2.208,5.135,2.865,6.054.417,0,.9-.02,1.428-.071,1.512-.146,2.6-1.852,3.144-3.548A8.1,8.1,0,0,0,30.3,135.65Z"/><path class="cls-5" d="M24.365,132.968a4.213,4.213,0,0,1,.236-.536c.883-1.689,2.835-3.425,3.04-5.366a11.689,11.689,0,0,1,.616-2.64c-.694-.032-1.423,0-1.423,0a12.42,12.42,0,0,0-1.2,3.1c-.29,1.483-1.936,2.463-2.5,4.12s-.122,5.57.408,7.011a15,15,0,0,0,2.269,3.437,13.229,13.229,0,0,0,1.41.058c-.657-.919-3.026-4.363-2.865-6.054.1-1.017-.482-1.783,0-3.124"/><path class="cls-11" d="M32.059,129.021a5.732,5.732,0,0,1,2.387,3.15"/><path class="cls-11" d="M30.887,130.843a5.051,5.051,0,0,1,2.623,2.787"/><path class="cls-11" d="M30.105,132.991a9.688,9.688,0,0,1,2.665,2.043"/><path class="cls-2" d="M112.7,65.133a.4.4,0,0,1-.181-.04.594.594,0,0,1-.279-.429V64.65l.225-2.807a12.182,12.182,0,0,0-.67-2.13c-.321-.581-2.242-5.659-2.494-6.394-.269-.783-2.29-6.938-2.31-7l.129-.039c.021.062,2.041,6.214,2.31,7,.251.734,2.165,5.8,2.485,6.373a12.3,12.3,0,0,1,.686,2.174l0,.01-.228,2.818a.365.365,0,0,0,.623.254,3,3,0,0,0,.973-.9,7.206,7.206,0,0,1,.824-1.64c.309-.3,2.28-3.3,2.3-3.335l2.605-3.014a30.392,30.392,0,0,0-1.567-3.388c-.714-1.217-2.02-3.191-2.035-3.211l.115-.071c.013.02,1.322,2,2.039,3.216A31.662,31.662,0,0,1,119.841,56l.014.036-.026.03L117.2,59.107c-.076.118-2,3.041-2.314,3.351a7.364,7.364,0,0,0-.8,1.6,3.084,3.084,0,0,1-1.028.959.758.758,0,0,1-.364.112Z"/><path class="cls-2" d="M124.937,65.225c-.548,0-1.888-1.115-2.171-1.356l-.019-.018,0-.025a1.222,1.222,0,0,0-.431-.706c-.4-.346-2.014-1.436-2.031-1.447s-.964-.717-1.727-1.416c-.725-.663-1.42-1.374-1.491-1.449a7.9,7.9,0,0,1-1.367-1.02c-.4-.431-1.97-1.742-1.986-1.754l-.016-.018-4.437-7.925.12-.063,4.432,7.914c.145.12,1.595,1.332,1.989,1.759a8.083,8.083,0,0,0,1.344,1l.013.011c.006.007.732.754,1.491,1.45s1.706,1.4,1.716,1.4c.064.044,1.635,1.1,2.041,1.455a1.367,1.367,0,0,1,.471.765c.689.583,1.86,1.438,2.123,1.3a10.787,10.787,0,0,0,1.548-1.94,5.324,5.324,0,0,1,.14-1.717,6.516,6.516,0,0,1,.636-1.507l1.716-5.4.179-6.858.138,0-.184,6.885-1.729,5.429a6.453,6.453,0,0,0-.626,1.48,5.334,5.334,0,0,0-.134,1.693l0,.023-.014.019a11.339,11.339,0,0,1-1.608,2,.275.275,0,0,1-.126.027Z"/><path class="cls-2" d="M120.33,65.916c-.823,0-2.306-1.629-2.371-1.7-.04-.045-1.045-1.106-1.272-1.415-.109-.151-.554-.6-.983-1.043s-.871-.89-1.007-1.068c-.615-.8-2.073-2.678-2.4-3.033-.36-.393-2.425-2.838-2.447-2.863l-.013-.015,0-.022-.68-6.954.136-.012.678,6.934c.178.211,2.086,2.47,2.429,2.844s1.788,2.245,2.4,3.04c.134.173.574.623,1,1.058.454.464.881.9,1,1.059.222.3,1.253,1.391,1.263,1.4.447.5,1.74,1.756,2.338,1.652.736-.126,2.477-2.2,2.494-2.221l2.038-2.6,1.714-2.987L129,54.669l.112.075-2.354,3.3-1.718,2.988L123,63.639c-.073.089-1.792,2.135-2.577,2.27a.714.714,0,0,1-.093.007Z"/><path class="cls-2" d="M116.062,66.014a.4.4,0,0,1-.087-.009c-.658-.125-1.6-1.69-1.645-1.757l-1.872-2.4.825-2.935.4-2.941,1.5-6.564.131.028L113.821,56l-.406,2.944-.809,2.882,1.836,2.352c.015.021.96,1.586,1.559,1.7a.241.241,0,0,0,.2-.039,20.193,20.193,0,0,0,1.758-1.709l2.309-2.554,2.3-3.074,2.895-3.343,3.3-7.168.125.055-3.311,7.183-.006.008-2.9,3.346-2.306,3.077-2.314,2.558a19.727,19.727,0,0,1-1.775,1.725.357.357,0,0,1-.224.074Z"/><polygon class="cls-2" points="126.558 63.197 125.11 61.171 122.762 58.847 119.698 56.045 122.249 49.709 122.376 49.757 119.857 56.01 122.857 58.753 125.214 61.087 126.67 63.121 126.558 63.197 126.558 63.197"/><polygon class="cls-2" points="126.999 60.264 126.638 58.027 125.463 55.215 123.381 49.534 123.508 49.49 125.591 55.169 126.772 57.999 127.135 60.244 126.999 60.264 126.999 60.264"/><polygon class="cls-2" points="111.616 47.005 111.48 47.002 111.786 36.657 111.914 36.629 116.895 46.272 119.077 35.27 123.219 46.184 123.62 46.15 126.79 36.945 127.174 36.945 127.18 37.005 128.106 46.144 131.353 39.492 131.475 39.548 128.021 46.854 127.05 37.077 126.889 37.077 123.722 46.273 123.127 46.325 123.11 46.278 119.117 35.759 116.954 46.679 111.913 36.922 111.616 47.005 111.616 47.005"/><path class="cls-12" d="M119.414,49.072A22.821,22.821,0,0,1,109.3,46.938c-2.792-1.417-4.33-3.333-4.33-5.393s1.538-3.975,4.33-5.393a25.032,25.032,0,0,1,20.227,0c2.793,1.418,4.331,3.334,4.331,5.393s-1.538,3.976-4.331,5.393a22.819,22.819,0,0,1-10.114,2.134Zm0-14.262a22.006,22.006,0,0,0-9.735,2.043c-2.511,1.276-3.893,2.942-3.893,4.692s1.382,3.416,3.893,4.691a24.212,24.212,0,0,0,19.473,0c2.51-1.275,3.893-2.942,3.893-4.691s-1.383-3.416-3.893-4.692a22.022,22.022,0,0,0-9.738-2.043Z"/><path class="cls-13" d="M119.053,35.778c7.687,0,13.93,3.141,14.034,7.033a3.746,3.746,0,0,0,.206-1.222c0-3.938-6.283-7.131-14.036-7.131s-14.038,3.193-14.038,7.131c0,.033,0,.065,0,.1C106.364,38.331,112.121,35.778,119.053,35.778Z"/><path class="cls-13" d="M119.257,48.721c-7.689,0-13.931-3.14-14.036-7.034a3.809,3.809,0,0,0-.2,1.223c0,3.938,6.284,7.13,14.037,7.13s14.036-3.192,14.036-7.13c0-.033,0-.066,0-.1C131.946,46.167,126.188,48.721,119.257,48.721Z"/><polygon class="cls-2" points="116.369 46.409 116.71 45.881 117.083 45.781 117.49 46.707 116.369 46.409"/><polygon class="cls-2" points="122.957 46.343 123.127 46.079 123.705 46.014 124.146 46.608 122.957 46.343"/><polygon class="cls-2" points="119.529 56.545 119.46 55.95 120.038 55.653 120.038 56.281 119.529 56.545"/><path class="cls-2" d="M109.612,54.136l.543.263a6.205,6.205,0,0,1,.17.66c0,.1-.373.165-.373.165Z"/><polygon class="cls-2" points="113.211 59.153 112.974 58.36 113.484 58.36 113.517 59.186 113.211 59.153"/><polygon class="cls-2" points="112.363 62.026 112.262 61.464 112.77 61.563 112.703 62.092 112.363 62.026"/><polygon class="cls-2" points="115.453 61.926 115.113 61.265 115.827 61.265 115.791 61.926 115.453 61.926"/><polygon class="cls-2" points="114.026 64.039 113.72 63.577 114.365 63.544 114.365 64.072 114.026 64.039"/><polygon class="cls-2" points="117.965 64.369 117.728 63.973 118.441 63.874 118.202 64.369 117.965 64.369"/><polygon class="cls-2" points="120.206 61.926 119.833 61.365 120.581 61.2 120.615 61.761 120.206 61.926"/><polygon class="cls-2" points="124.792 61.265 124.724 60.638 125.301 60.341 125.233 61.265 124.792 61.265"/><polygon class="cls-2" points="127.383 59.945 126.83 59.879 126.762 61.067 127.101 61.002 127.383 59.945"/><polygon class="cls-2" points="122.449 63.313 123.23 63.313 122.991 63.94 122.618 64.072 122.449 63.313"/><polygon class="cls-2" points="116.845 58.658 117.591 58.56 117.524 59.252 116.946 59.384 116.845 58.658"/><polygon class="cls-2" points="125.233 54.762 125.913 54.597 125.742 55.455 125.268 55.356 125.233 54.762"/><polygon class="cls-2" points="113.346 55.323 114.026 55.125 114.06 56.182 113.651 56.247 113.346 55.323"/><path class="cls-2" d="M122.578,48.09l-.122-.06c.086-.168.174-.346.264-.526.2-.391.4-.795.585-1.127l.12.064c-.188.329-.389.731-.583,1.119-.089.182-.179.361-.264.53Z"/><path class="cls-2" d="M117.389,48.233a5.11,5.11,0,0,0-.416-1.286c-.038-.086-.073-.172-.109-.257a4.112,4.112,0,0,1-.888,1.483l-.1-.093a3.891,3.891,0,0,0,.905-1.618l.049-.222.081.213q.087.221.184.444a5.191,5.191,0,0,1,.425,1.32l-.135.016Z"/><path class="cls-2" d="M123.874,47.9a3.581,3.581,0,0,0-.465-1.395l.118-.066a3.748,3.748,0,0,1,.482,1.445l-.135.016Z"/><polygon class="cls-2" points="129.114 54.867 128.924 54.806 132.208 45.34 132.508 44.972 129.114 54.867"/><path class="cls-14" d="M114.746,29.6c0,6.488-5.693,11.745-12.715,11.745S89.316,36.087,89.316,29.6s5.692-11.745,12.715-11.745S114.746,23.113,114.746,29.6Z"/><path class="cls-2" d="M106.757,26.382c-2.117,0-4.307-1.455-6.245-2.741-.358-.236-.708-.468-1.053-.688-2.208-1.41-5.725-.377-5.762-.366l-.058-.181c.148-.045,3.644-1.07,5.928.39.344.218.7.453,1.054.689,1.96,1.3,4.186,2.771,6.277,2.705a2.728,2.728,0,0,0,2.014-.634,1.692,1.692,0,0,0,.158-1.44c-.015-.077-.027-.149-.039-.217a13.28,13.28,0,0,1,.209-2.839l.2.03a13.126,13.126,0,0,0-.212,2.78c.009.067.025.137.039.212a1.864,1.864,0,0,1-.2,1.593,2.85,2.85,0,0,1-2.159.7l-.148,0Z"/><path class="cls-2" d="M100.283,40.822l-.112-.154a20.538,20.538,0,0,0,5.556-5.9,10.123,10.123,0,0,0,1.192-6.116c-.022-.656-.048-1.4-.033-2.24.064-3.383-4.91-6.895-4.961-6.931l.114-.154c.21.145,5.108,3.606,5.042,7.088-.016.832.011,1.575.034,2.231a10.3,10.3,0,0,1-1.214,6.21,20.691,20.691,0,0,1-5.618,5.969Z"/><path class="cls-2" d="M90.475,31.351l-.11-.157c1.327-.865,5.989-3.716,10.292-4.1,3.374-.3,11.357-.539,12.591,3.843l-.188.048c-1.229-4.362-9.79-3.937-12.383-3.7-4.261.384-8.886,3.216-10.2,4.073Z"/><path class="cls-2" d="M93.478,37.3l-.009-.189a10.2,10.2,0,0,0,6.041-2.5,22.873,22.873,0,0,0,1.806-2.052c1.5-1.86,2.806-3.466,5.235-2.9,3.051.712,3.412,2.6,3.7,4.109.025.132.049.259.075.385a3.867,3.867,0,0,1-.073,2.4l-.175-.084a3.768,3.768,0,0,0,.056-2.275c-.024-.127-.051-.256-.075-.388-.3-1.535-.625-3.276-3.554-3.961-2.307-.537-3.574,1.025-5.039,2.833a22.863,22.863,0,0,1-1.821,2.069A10.4,10.4,0,0,1,93.478,37.3Z"/></svg>