<svg id="word" xmlns="http://www.w3.org/2000/svg" viewBox="0 0 160 160"><defs><style>.cls-1,.cls-13{fill:#fdeadf;}.cls-1,.cls-17,.cls-18,.cls-3,.cls-5,.cls-8{stroke:#9c4c9c;}.cls-1,.cls-10,.cls-11,.cls-12,.cls-13,.cls-14,.cls-15,.cls-16,.cls-17,.cls-18,.cls-2,.cls-3,.cls-4,.cls-5,.cls-6,.cls-7,.cls-8,.cls-9{stroke-miterlimit:10;stroke-width:0.454px;}.cls-2{fill:#231f20;}.cls-10,.cls-11,.cls-12,.cls-13,.cls-14,.cls-15,.cls-16,.cls-2,.cls-4,.cls-6,.cls-7,.cls-9{stroke:#9d4b9c;}.cls-10,.cls-3{fill:#00a6d3;}.cls-4{fill:#fddf3c;}.cls-5{fill:#2a3b8e;}.cls-6{fill:#28aae1;}.cls-7{fill:#7db456;}.cls-14,.cls-8{fill:#385598;}.cls-9{fill:#fff;}.cls-11{fill:#e80a89;}.cls-12,.cls-18{fill:#4a4a4c;}.cls-15{fill:#ec3d89;}.cls-16{fill:#603917;}.cls-17{fill:#895d3b;}.cls-19{fill:#9c4c9c;}</style></defs><path class="cls-1" d="M79.5,60.335s2.953-1.173,4.219-1.066a5.566,5.566,0,0,1,2.637,1.386s2.11,1.492,1.266,2.025.1.213-.844.533-.949,1.812-2.426,1.812-4.536-1.6-4.536-1.6Z"/><path class="cls-2" d="M89.312,63.117s1.184,1.588-.082,1.588S13.5,29.765,13.5,29.765Z"/><path class="cls-2" d="M15.832,29.885s.91-.88,1.068-.12.08,2.718-.632,2.958S15.318,30.684,15.832,29.885Z"/><path class="cls-3" d="M74.332,44.238s.155-.03.4-.052l.117-.01a3.18,3.18,0,0,1,2.649.808c.949,1.173,1.477,3.944-1.055,6.609s-9.915,6.929-9.81,7.249,2.532.427,5.169.427a52.239,52.239,0,0,1,7.7,1.066l.316,3.091a14.485,14.485,0,0,0-5.7.853C71.59,65.345,63.784,63,62.73,62.36s-3.587-1.066-2.321-3.838,10.548-13,11.6-13.218A10.242,10.242,0,0,0,74.537,44.2"/><path class="cls-4" d="M49.287,104.846c2.373.16,6.5.244,6.5.244l33.128,5.178s21.359,4.9,28,4.739,9.651-2.558,9.651-2.558-5.063,4.8-8.069,4.8-31.959-3.94-31.959-3.94l-41.871-5.889-7.1-3.726C42.254,104.128,47.78,104.745,49.287,104.846Z"/><path class="cls-5" d="M37.57,103.691l7.1,3.726-5.683-.866-5.661-3.213C34.523,103.418,36,103.544,37.57,103.691Z"/><path class="cls-6" d="M31.25,103.247c.5,0,1.22.034,2.075.091l5.661,3.213-10.937-1.668-4.21-3.04A35.857,35.857,0,0,0,31.25,103.247Z"/><path class="cls-7" d="M19.858,100.689s1.763.559,3.981,1.154l4.21,3.04-10.722-1.636Z"/><polygon class="cls-8" points="66.744 107.489 55.054 105.367 53.228 106.336 69.301 108.136 66.744 107.489"/><polygon class="cls-8" points="76.515 106.843 75.328 108.274 73.639 108.505 77.292 109.382 78.068 107.812 76.515 106.843"/><path class="cls-9" d="M67.852,91.166c-.116.2-.456,1.065-.888,2.2l-4.951-7.923c.355-1.156.751-2.247,1.126-3.244l4.886,8.573C67.946,90.967,67.885,91.106,67.852,91.166Z"/><path class="cls-8" d="M64.054,101.293l-3.692-1.279A73.807,73.807,0,0,0,60.89,91.7a23,23,0,0,1,1.123-6.254l4.951,7.923C65.828,96.364,64.054,101.293,64.054,101.293Z"/><path class="cls-10" d="M64.476,78.373c-.071.3-.173.635-.292.994l4.879,8.582c1.389-3.993,3.408-10.454,3.113-12.241a21.028,21.028,0,0,1-1.8-3.885c-1.1-2.861-11.964-15.5-11.964-15.5Z"/><path class="cls-11" d="M68.025,90.774,63.139,82.2c.4-1.066.775-2.023,1.045-2.834l4.879,8.582C68.621,89.218,68.244,90.234,68.025,90.774Z"/><path class="cls-12" d="M66.83,93.655a13.352,13.352,0,0,1-3.481-1.066A20.016,20.016,0,0,0,60.818,91.1S59.446,97.28,58.6,98.346s-1.794,4.477-2,5.33a8.23,8.23,0,0,0-.106,2.132s13.185,2.239,14.451,2.239,5.063.853,5.063-.427-2.954-2.452-4.219-2.985a13.05,13.05,0,0,1-5.063-4.477C65.67,98.239,66.83,93.655,66.83,93.655Z"/><polygon class="cls-12" points="66.378 97.106 63.73 96.783 64.095 100.29 66.725 100.158 66.378 97.106"/><polygon class="cls-12" points="67.109 100.844 68.981 102.782 66.698 103.659 64.872 101.583 67.109 100.844"/><path class="cls-13" d="M101.19,51.973a9.68,9.68,0,0,0,.317,3.091c.422,1.066-.211,1.173-1.371,1.279s-1.372.107-1.372,1.28a1.653,1.653,0,0,1-1.963,1.8c-1.266-.107.251.267-.487.8s-3.773.915-3.773.915-3.82,1.4-5.485-.746a38.645,38.645,0,0,1-3.041-5.522l-4.343-2.047-1.793-6.716,5.7-.426,6.54-2.665,11.392,5.97Z"/><path class="cls-4" d="M44.336,106.375c2.374.16,6.5.244,6.5.244L83.963,111.8s21.358,4.9,28,4.74,9.652-2.559,9.652-2.559-5.063,4.8-8.069,4.8-31.959-3.94-31.959-3.94l-41.872-5.889-7.1-3.726C37.3,105.657,42.829,106.274,44.336,106.375Z"/><path class="cls-5" d="M32.619,105.22l7.1,3.726-5.683-.866-5.661-3.213C29.572,104.947,31.048,105.073,32.619,105.22Z"/><path class="cls-6" d="M26.3,104.776c.5,0,1.22.034,2.075.091l5.661,3.213L23.1,106.412l-4.21-3.04A35.869,35.869,0,0,0,26.3,104.776Z"/><path class="cls-7" d="M14.907,102.218s1.764.559,3.981,1.154l4.21,3.04-10.722-1.636Z"/><polygon class="cls-8" points="61.793 109.019 50.104 106.896 48.277 107.865 64.35 109.665 61.793 109.019"/><polygon class="cls-8" points="71.565 108.372 70.378 109.803 68.688 110.034 72.341 110.911 73.117 109.342 71.565 108.372"/><path class="cls-9" d="M62.9,92.7c-.116.205-.456,1.065-.887,2.2l-4.951-7.923c.355-1.156.75-2.247,1.125-3.244L63.074,92.3C63,92.5,62.935,92.635,62.9,92.7Z"/><path class="cls-14" d="M59.1,102.822l-3.692-1.279a73.7,73.7,0,0,0,.527-8.315,22.966,22.966,0,0,1,1.124-6.254L62.014,94.9C60.877,97.893,59.1,102.822,59.1,102.822Z"/><path class="cls-10" d="M43.65,49.149c.949-.853,2.022-2.5,3.288-3.569s2.989-1.5,5.309-2.882,11.5-2.345,14.979-1.919,10.864,4.8,10.864,4.8l1.371,4.265c.633,2.451-11.6,4.05-12.024,3.837s-8.861-.533-8.861-.533.422,4.051,1.582,4.9,6.646,16.63,7.068,19.188c.294,1.787-1.725,8.248-3.114,12.241L59.233,80.9c.12-.359.222-.7.293-.993.632-2.666-7.67-8.308-8.935-9.587S43.536,63.152,42.8,58.994,42.7,50,43.65,49.149Z"/><path class="cls-11" d="M63.074,92.3,58.188,83.73c.4-1.066.775-2.022,1.045-2.834l4.879,8.582C63.67,90.747,63.294,91.763,63.074,92.3Z"/><path class="cls-9" d="M78.368,47.688s-5.657.127-7.767,1.62-1.076,4.456-1.076,4.456l-10.949-.619s1.372-3.2.633-5.33a31.626,31.626,0,0,1-.844-6.822s8.391-.449,10.97.106A17.469,17.469,0,0,1,76.816,44.5,4.421,4.421,0,0,1,78.368,47.688Z"/><path class="cls-12" d="M61.879,95.184a13.347,13.347,0,0,1-3.48-1.066,20.008,20.008,0,0,0-2.532-1.492s-1.371,6.183-2.215,7.249-1.793,4.477-2,5.33a8.23,8.23,0,0,0-.106,2.132s13.185,2.239,14.451,2.239,5.063.853,5.063-.427-2.953-2.451-4.219-2.984a13.06,13.06,0,0,1-5.063-4.478C60.719,99.768,61.879,95.184,61.879,95.184Z"/><path class="cls-15" d="M101.61,51.426a83.635,83.635,0,0,1-12.283-1.984,11.406,11.406,0,0,1-6.174-4.185s2.11-5.65,6.329-6.716,9.267-.713,11.5,2.771c1.952,3.05,1.788,7.776,1.788,7.776Z"/><polygon class="cls-16" points="106.359 35.769 78.09 37.794 80.411 36.409 69.23 36.515 68.175 38.434 63.534 38.754 63.006 37.581 60.686 38.754 58.787 38.541 57.627 38.221 57.732 39.607 50.138 41.206 42.227 42.272 106.886 36.622 106.359 35.769"/><path class="cls-16" d="M55.1,37.155a5.476,5.476,0,0,1,2.216.106c.632.32.949,2.452.949,2.452s-17.615,2.559-19.409,2.772-7.911,1.386-8.438.426,1.266-4.584,1.266-4.584Z"/><path class="cls-17" d="M110.473,34.063l.105,2.132-5.168.427a1.317,1.317,0,0,1,.421-2.026C107.2,33.85,110.473,34.063,110.473,34.063Z"/><path class="cls-2" d="M90.748,67.217s.844,1.919-.422,1.919S14.6,34.2,14.6,34.2Z"/><path class="cls-2" d="M16.928,34.315s.91-.88,1.068-.12.079,2.718-.633,2.958S16.414,35.114,16.928,34.315Z"/><path class="cls-9" d="M97.684,50.918s1.634-.131,1.436,1.068S99,53.825,97.815,53.825,96.1,53.277,97.684,50.918Z"/><path class="cls-13" d="M81.571,64.765s3-1.693,4.271-1.587A5.038,5.038,0,0,1,88.4,64.655s2.138,1.922,1.294,2.455.105.213-.844.533-.949,1.812-2.426,1.812-4.536-1.6-4.536-1.6Z"/><path class="cls-9" d="M59.419,57.641l-8.828,4.368L59.6,73.515l5.723-2.892s-3.044-7.937-3.714-9.352A34.986,34.986,0,0,0,59.419,57.641Z"/><path class="cls-10" d="M76.4,48.668s.155-.03.4-.052l.117-.009a3.176,3.176,0,0,1,2.649.807c.949,1.173,1.477,3.944-1.055,6.61S68.6,62.953,68.7,63.272s2.532.427,5.169.427a52.239,52.239,0,0,1,7.7,1.066l.316,3.091a14.479,14.479,0,0,0-5.7.853C73.66,69.775,65.854,67.43,64.8,66.79s-3.587-1.066-2.321-3.837,10.548-13.006,11.6-13.219a10.254,10.254,0,0,0,2.525-1.105"/><path class="cls-1" d="M81.7,59.363s-.061,1.6.548,2.092,2.07,1.785,2.679,1.662.548-1.292.06-2.092a3.445,3.445,0,0,0-1.7-1.6A7.7,7.7,0,0,0,81.7,59.363Z"/><polygon class="cls-18" points="61.428 98.635 58.779 98.312 59.145 101.819 61.774 101.687 61.428 98.635"/><polygon class="cls-18" points="62.158 102.373 64.031 104.311 61.747 105.188 59.921 103.112 62.158 102.373"/><path class="cls-19" d="M98.024,51.913s1.044.067.92.741-.075,1.032-.82,1.032S97.031,53.237,98.024,51.913Z"/></svg>