<svg id="word" xmlns="http://www.w3.org/2000/svg" viewBox="0 0 160 160"><defs><style>.cls-1{fill:#65813b;}.cls-1,.cls-2,.cls-3,.cls-4,.cls-5,.cls-6{stroke:#9c4c9c;stroke-width:1.196px;}.cls-2{fill:#80a33e;}.cls-3{fill:#99c03c;}.cls-4{fill:#9ac14b;}.cls-5{fill:#a5cd3d;}.cls-6{fill:#962345;}</style></defs><path class="cls-1" d="M77.366,69.655s.305-15.667,2.755-20.869S91.258,36.366,96.489,35.5s10.19.836,10.865-.484,6.379-2.466,3.818-.547c-7.761,5.818-1.349,12.01-14.313,15.377-7.322,1.9-12.017,8.848-16.092,19.673"/><path class="cls-2" d="M73.452,80.978s2.3-25.266.033-31.836-9.709-8.294-.968-21.73S85.624,17.247,87.905,12.376s4.794,1.618,3.089,6.991S83.111,29.5,82.436,40.184s-4.846,41.66-4.846,41.66"/><path class="cls-3" d="M67.615,82.077s2.342-2.191-.787-8.715S58.952,58.33,58.952,58.33l9.192.471s4.891,16.1,4.77,17.3S71.8,81.134,71.8,81.134Z"/><path class="cls-4" d="M75.244,81.349l9.634-24.93s6.687-.237,8.457.245-3.016,1.363-4.906,5.111-9.512,20.7-9.512,20.7Z"/><path class="cls-5" d="M79.1,83.706s2.812-11.377,5.078-14.33,6.709-4.929,6.709-4.929l6.1,1.07A32.884,32.884,0,0,0,90.576,73.5C87.3,78.929,83.307,85.5,83.307,85.5Z"/><path class="cls-5" d="M75.679,82.324s-.8-31.014-.609-34.246S72,39.014,68.537,36.828s-6.085-5.609-5.935-3.866,1.331,8.8.473,12.108,1.7,4.824,2.26,6.985,4.49,7.916,4.49,7.916,2.358,5.161,2.413,8.312-.37,13.759-.37,13.759"/><path class="cls-6" d="M79.832,80.9s-15.4-5.037-25.215,8.211-6.6,24.935.214,30.922,14.287,7.046,13.924,10.646,1.159,17.5,1.62,15.462c.912-4.038,3.072-12.415,6.881-14.152s16.836-6.869,21.379-12.234c11.349-13.4,4.747-27.541-5.7-33.595S79.832,80.9,79.832,80.9Z"/></svg>