<svg id="word" xmlns="http://www.w3.org/2000/svg" viewBox="0 0 160 160"><defs><style>.cls-1,.cls-2{fill:#be946a;}.cls-1,.cls-2,.cls-3,.cls-4{stroke:#9a4d9c;}.cls-1,.cls-2,.cls-3,.cls-4,.cls-5{stroke-width:0.555px;}.cls-2,.cls-3,.cls-5,.cls-6,.cls-8{stroke-miterlimit:10;}.cls-3,.cls-4,.cls-6,.cls-8{fill:none;}.cls-5{fill:#89d0f2;}.cls-5,.cls-6{stroke:#9a4a99;}.cls-6{stroke-linecap:round;stroke-width:1.109px;}.cls-7{fill:#9b4b9c;}.cls-8{stroke:#9b4d9c;stroke-width:0.56px;}</style></defs><path class="cls-1" d="M78.029,100.034l.057-1.255s.305-3.5.609-7.611,1.793-20.157,1.793-20.157l.375,26.4s-.581,4.609,0,7.044,1.612,25.331,2.086,26.7,1.483,8.03.569,10.161a5.6,5.6,0,0,0,.668,6.127c1.564,2.154-1.863,3.2-1.237,4.262s1.843.919,4.431.993,9.638.357,9.638.357-1.6-1.654,1.233-8.961,3.257-19.394,2.967-27.918-.306-19.375-.306-19.375c-.922-1.522-.6-5.632,0-8.829s.16-19.789,0-25.117-1.706-23.138-1.706-23.138-7.631,2.511-20.881,2.742c-5.21.09-17.832-2.742-17.832-2.742s-2.2,17.2-2.5,21.474,1.446,50.875,1.446,50.875c.14,3.8.084,18.176.407,22.59S61.474,151.4,61.474,151.4s5.051,1.674,5.953,1.218,2.447.3,3.724-.761,5.626.761,5.626.761a12.435,12.435,0,0,0-.76-3.2c-.4-.457-.511-3.044.76-3.958s.861-28.527,1.163-31.77,0-14.263,0-14.263"/><path class="cls-1" d="M75.113,46.376c-.156,7.64.914,13.207,3.134,20.519.5,1.631,1.13,3.358,2.535,4.322"/><path class="cls-1" d="M65.562,45.787c.436,4.5.327,4.342-.57,8.776S61.823,63.329,58.033,65.8"/><path class="cls-1" d="M90.689,46.376c.649,7.737,4.325,11.112,10.073,16.332"/><path class="cls-1" d="M60.029,43.4c1.936,2.7,5.3,2.508,8.625,2.6q11.41.318,22.825.465a30.71,30.71,0,0,0,7.727-1.12"/><path class="cls-1" d="M59.943,145.815l.782,6.065a20.163,20.163,0,0,0,7.924,2.153,58.3,58.3,0,0,0,8.022-.881,8.657,8.657,0,0,1,1.271.1s-.195-5.478,0-6.75a15.158,15.158,0,0,0,0-3.13,38.731,38.731,0,0,1-8.956,1.565A68.409,68.409,0,0,0,59.943,145.815Z"/><path class="cls-1" d="M81.953,144.055v8.608A65.627,65.627,0,0,0,89,154.033a30.633,30.633,0,0,0,6.456,0l2.979-.979S98,150.511,98,149.728s.685-4.891.685-4.891a10.745,10.745,0,0,1-4.891,1.174C91.54,145.815,81.953,144.055,81.953,144.055Z"/><polygon class="cls-2" points="100.762 89.64 92.518 90.74 93.496 113.044 102.496 113.142 100.762 89.64"/><path class="cls-2" d="M91.344,90.349l.489,4.206s5.674,2.25,6.848,3.033l1.174.783L102.5,96.9V88.588S93.4,87.806,91.344,90.349Z"/><path class="cls-3" d="M99.674,98.86l-.023,13.5"/><polygon class="cls-1" points="63.318 39.716 63.318 46.915 65.763 46.915 65.372 39.716 63.318 39.716"/><polygon class="cls-1" points="93.28 39.803 93.28 47.003 95.725 47.003 95.334 39.803 93.28 39.803"/><path class="cls-4" d="M72.308,41.894a19.736,19.736,0,0,0-.194,4.042"/><ellipse class="cls-4" cx="75.04" cy="44.3" rx="0.783" ry="0.985"/><path class="cls-5" d="M60.138,35.478a94.244,94.244,0,0,0,10.918-4.345C75.74,28.8,75.613,27.667,78.9,27.3s4.8,1.349,6.617,2.294,12.274,5.925,13.38,6.785,3.191,3.253,2.8,4.281-5.846-.82-7.786-1.915-6.454-4.445-14.266-3.9S64.381,39.1,60.52,38.882,56.475,36.762,60.138,35.478Z"/><path class="cls-6" d="M75.734,18.381s-2.548-3.686,1.842-4.746c4.514-1.091,5.223,2.236,5.042,4.007s-3.154,4.34-3.458,5.865a33.943,33.943,0,0,0-.427,3.809"/><polygon class="cls-5" points="65.861 36.819 66.545 42.248 68.306 42.546 68.306 36.232 65.861 36.819"/><polygon class="cls-5" points="90.192 36.036 90.069 42.346 91.328 42.346 92.518 36.819 90.192 36.036"/><path class="cls-7" d="M116.742,5.574s-2.167-2.312-.9-2.933,1.824,2.421,1.824,2.421.782-3.234,1.863-2.748c1.985.893-1.26,3.254-1.26,3.254s2.986-1.625,3.2.015-3.007.334-3.007.334,3.271,1.158,2.943,2.549-3.241-1.631-3.241-1.631,2.129,3.188.534,3.291c-1.429.093-1.28-3.039-1.28-3.039s-.833,3.384-2.209,2.634c-1.613-.88,1.556-3.012,1.556-3.012s-3.717.783-3.29-1.065C113.829,4.119,116.742,5.574,116.742,5.574Z"/><path class="cls-7" d="M42.641,4.945s.227-3.161,1.544-2.652-.539,2.983-.539,2.983,2.905-1.622,3.282-.5c.692,2.064-3.245,1.284-3.245,1.284s3.22,1.089,2.162,2.36-2.287-1.981-2.287-1.981,1.37,3.187.127,3.891-1-3.486-1-3.486-.9,3.727-2.054,2.626c-1.038-.986,1.362-3,1.362-3s-3.05,1.686-3.433.166c-.449-1.781,3.267-.9,3.267-.9s-3.1-2.2-1.451-3.139C41.732,1.817,42.641,4.945,42.641,4.945Z"/><path class="cls-8" d="M44.784,6.873c12.427,7.5,32.782,9.213,45,7.071C107.643,10.81,118.306,5.8,118.306,5.8"/></svg>