<svg id="word" xmlns="http://www.w3.org/2000/svg" xmlns:xlink="http://www.w3.org/1999/xlink" viewBox="0 0 160 160"><defs><style>.cls-1,.cls-23,.cls-6{fill:none;}.cls-2{clip-path:url(#clip-path);}.cls-3{fill:#1b4864;}.cls-10,.cls-11,.cls-12,.cls-13,.cls-14,.cls-15,.cls-16,.cls-17,.cls-18,.cls-19,.cls-20,.cls-21,.cls-23,.cls-24,.cls-3,.cls-4,.cls-5,.cls-6,.cls-7,.cls-8,.cls-9{stroke:#9d4b9c;stroke-miterlimit:10;stroke-width:0.557px;}.cls-4{fill:#bf3f38;}.cls-19,.cls-5{fill:#fde2d4;}.cls-7{fill:#754c28;}.cls-8{fill:#4d4d4f;}.cls-9{fill:#6d6e70;}.cls-10{fill:#9c9ea1;}.cls-11{fill:#00adee;}.cls-12{fill:#952e28;}.cls-13{fill:#2e6486;}.cls-14{fill:#2b5524;}.cls-15,.cls-25{fill:#9e9837;}.cls-16{fill:#427136;}.cls-17{fill:#5a4a42;}.cls-18{fill:#3f332c;}.cls-19,.cls-23{stroke-linecap:round;}.cls-20{fill:#c3996b;}.cls-21{fill:#fff;}.cls-22{fill:#9d4b9c;}.cls-24{fill:#fdeae0;}.cls-26{fill:#4e4d0f;}</style><clipPath id="clip-path"><rect class="cls-1" width="160" height="160"/></clipPath></defs><g class="cls-2"><path class="cls-3" d="M78.65,119.751s-.109.314-.262.856a22.681,22.681,0,0,0-.823,8.7c.651,4.563,2.6,15.644,2.386,22.162s.217,27.594.217,27.594a40.583,40.583,0,0,0-9.978-.652c-4.555.435-4.555-.652-4.555-.652s1.735-16.513.434-23.683-.651-11.95-2.386-17.382-2.82-28.9-2.82-28.9l18.871,2.172Z"/><path class="cls-3" d="M92.982,127.407s-.109.314-.263.857a22.682,22.682,0,0,0-.822,8.7c.651,4.562,2.6,15.643,2.386,22.162s.217,27.594.217,27.594a40.528,40.528,0,0,0-9.978-.652c-4.555.434-4.555-.652-4.555-.652s1.735-16.513.434-23.683-.651-11.95-2.387-17.382-2.819-28.9-2.819-28.9l18.871,2.173Z"/><path class="cls-4" d="M43.95,32.462s-.524,2.029,3.141,3.272c5.5,1.868,3.8-1.439,3.8-1.439s.066,5.726-.229,6.511-1.865.491-1.374,2.651-.589,3.043-.785,4.81-.295,3.239.589,3.141,6.479-.687,8.049-1.375,9.522-3.73,9.915-4.024,5.4-2.16,5.4-2.16L65.087,58.672l-4.81,6.38s-20.614.688-21.694-1.276-2.454-3.926-2.454-7.853-2.65-4.712-.392-7.951a42.837,42.837,0,0,0,4.515-9.129C41.037,36.781,39.238,33.64,43.95,32.462Z"/><path class="cls-5" d="M44.146,24.151s.131,3.6.131,4.974-.393,5.235-.393,5.235l-.262,1.374c-.764.255,1.573,3.191,5.628,1.9,1.59-.507,1.44-2.683,1.636-3.337s3.6-3.731,3.927-5.628a30.314,30.314,0,0,0,.393-3.469Z"/><path class="cls-5" d="M71.37,39.236s1.276,9.227,1.276,10.11-2.847,1.276,1.767.3a14.255,14.255,0,0,0,8.246-4.908,31.181,31.181,0,0,1,2.748-2.749l-.589-9.62Z"/><path class="cls-5" d="M68.032,16.167s-2.945,4.025-2.945,5.694-2.748,16.2-2.748,16.2a8.368,8.368,0,0,0,4.025,2.355c2.355.491,4.81,1.277,7.656.1a12.764,12.764,0,0,0,5.89-5.694A87.888,87.888,0,0,0,83.738,25c.1-.589.3-4.319-1.472-5.694s-2.061-3.141-5.2-3.239-9.423.1-9.423.1Z"/><path class="cls-6" d="M64.775,19.607a9.881,9.881,0,0,1,.052,4.224"/><path class="cls-7" d="M75,21.174s1.276-2.651-.3-3.24-5.3-1.767-5.988-1.374a4.163,4.163,0,0,1-2.061.2s-.687-.1-.1-1.963,1.374-2.651,3.337-2.651a15.066,15.066,0,0,0,5.4-1.472c1.473-.589,2.16-2.847,6.479-.589S86.683,12.83,88.45,14.4s3.043.295,3.73,3.338-2.159,5.693-1.963,6.577,2.16,3.239.3,4.81-2.16,1.374-2.651,2.552a18.08,18.08,0,0,0-1.08,3.828A10.01,10.01,0,0,1,85.7,38.058c-.2.294-2.651-.2-2.749-1.767a11.159,11.159,0,0,1,.491-4.418c.491-1.472-1.473-2.552-1.473-2.552s-2.355,1.767-2.355,2.16-1.767.785-1.767.785-.688-.1-.491-2.356,1.178-4.515-.2-6.086S75,21.174,75,21.174Z"/><path class="cls-5" d="M80.892,27.849s2.061-2.062,3.141-.3a3.71,3.71,0,0,1,.2,4.123c-.589.883-.981,3.534-1.963,4.221a2.585,2.585,0,0,1-2.356,0l-.1-1.865"/><path class="cls-4" d="M60.179,63.285s-1.57,13.547-.785,15.707a14.623,14.623,0,0,1,.785,8.049c-.589,3.534-1.767,5.1-.785,7.853s.785,5.5.982,8.442a69.408,69.408,0,0,1,0,9.031c-.2,3.141-.495,7.082-.495,7.082s13.256-1.781,19.538-.211,17.175,3.156,17.175,3.156,4.806-2.734,1.767-13.939C97.6,105.638,95.322,77.814,96.7,72.12s1.178-21.6,1.178-21.6-5.3-6.871-7.068-7.656A43.547,43.547,0,0,1,85.9,39.923s.2,3.141-3.534,3.926-8.835,6.283-9.718,5.5-1.08-5.3-1.08-5.3Z"/><path class="cls-8" d="M52.536,22.781l5.375.955a2.144,2.144,0,0,0,.995-1.526,12.432,12.432,0,0,0-.076-2.316l-5.3-1.12Z"/><path class="cls-8" d="M52.553,23.46s1.485-.319,1.834-3.124a2.679,2.679,0,0,0-1.229-2.912c-2.789-2.32-8.793-4.446-8.793-4.446L37.738,10.3s.416,7.561-.077,9.452A2.97,2.97,0,0,1,35.824,22Z"/><path class="cls-9" d="M30.4,22.029c1.139,1.316,9.59,1.025,9.59,1.025a10.114,10.114,0,0,0,2.481-7.693c-.472-3.606-2.26-4.758-2.26-4.758L33.477,8.1S29.256,20.713,30.4,22.029Z"/><ellipse class="cls-10" cx="32.153" cy="15.118" rx="7.147" ry="2.622" transform="translate(11.612 44.108) rotate(-79.862)"/><ellipse class="cls-11" cx="31.667" cy="15.287" rx="4.915" ry="1.895" transform="translate(11.078 43.792) rotate(-79.929)"/><path class="cls-8" d="M57.913,22.412,68.687,23.5s1.08,2.611.654,3.534c-.785,1.7-6.282.654-6.282.654l-5.721-1.111Z"/><path class="cls-8" d="M58.177,21.793s1.216.988.5,3.741a2.4,2.4,0,0,1-2.169,2.114c-3.353.838-9.522,0-9.522,0l-6.931-.621s3.138-6.786,3.386-8.762a3.416,3.416,0,0,0-.825-2.94Z"/><path class="cls-9" d="M37.753,12.76c1.505-.683,8.988,3.535,8.988,3.535s1.582,4.395-.585,8.262c-1.742,3.108-3.77,3.336-3.77,3.336l-6.958-.83S36.249,13.443,37.753,12.76Z"/><ellipse class="cls-10" cx="36.805" cy="19.962" rx="7.234" ry="2.59" transform="translate(10.391 52.449) rotate(-79.36)"/><ellipse class="cls-11" cx="36.43" cy="19.579" rx="4.975" ry="1.872" transform="translate(10.485 51.787) rotate(-79.402)"/><path class="cls-6" d="M64.087,33.179c-.012.635.775.935,1.407,1a3.988,3.988,0,0,0,3.58-1.005"/><path class="cls-4" d="M54.028,40.643a33.683,33.683,0,0,1,4.646-2.16c1.7-.524,4.123-.851,5.235-.393a1.918,1.918,0,0,1,1.113,1.7s.065,3.992.982,5.955a21.329,21.329,0,0,1,1.178,3.927A44.926,44.926,0,0,0,69.6,53.535c.785,1.047.916,1.374,1.9,2.552A3.476,3.476,0,0,0,75.3,57.2c.982-.523,2.225-.654,2.749-1.439s.523-.982,2.618-2.487,6.806-4.614,9.26-4.81,6.184-.491,7.656,3.141S96.892,62.009,96.5,64.463s-11.387,7.559-13.449,8.246-18.749,1.963-20.712.2-5.006-6.675-4.516-8.049-1.57-3.337-1.668-6.577-1.08-7.166-.688-8.638a9.838,9.838,0,0,0,.393-2.258Z"/><path class="cls-5" d="M57.234,38.679s-2.748-7.2-2.421-8.442,1.309-4.712,1.374-4.973a28.992,28.992,0,0,0,.524-4.189c-.066-.85-2.225-2.29-2.225-2.29h2.356a1.436,1.436,0,0,1,1.178.458s2.094-1.243,2.617-.916,1.375.851,1.375.851.392-.982,1.243-.589a6.728,6.728,0,0,1,1.636,1.177s.655-.523.982.655,1.309,7.526.392,9.1A46.111,46.111,0,0,0,63.386,35.6a17.207,17.207,0,0,0,.065,2.095l-3.337,1.178Z"/><path class="cls-5" d="M57.725,18.986c.62.034,1.049.635,1.28,1.211a5.549,5.549,0,0,1,.307,3.04"/><path class="cls-5" d="M61.732,18.9c.2-.155.478.063.613.278.775,1.233.638,2.808.473,4.255"/><path class="cls-12" d="M53.271,38.236a28.526,28.526,0,0,0,5.432-.2c2.094-.392,5.628-1.439,5.628-1.439s.4,2.065.691,3.192a25.164,25.164,0,0,1,.422,3.483A10.234,10.234,0,0,1,61.255,45.3a32.933,32.933,0,0,1-6.413.655S52.224,41.508,53.271,38.236Z"/><path class="cls-12" d="M43.95,32.462s-.691,2.894.487,3.81,3.665,1.7,4.777,1.048,1.309-3.8,1.832-3.8.328,4.123.328,5.235a3.926,3.926,0,0,1-.917,2.814,6.072,6.072,0,0,0-1.174,1.884,11.2,11.2,0,0,1-2.621-.379c-2.422-.458-5.759-1.57-6.741-3.141a6.553,6.553,0,0,1-.523-5.366,3.451,3.451,0,0,1,2.29-2.356A2.625,2.625,0,0,1,43.95,32.462Z"/><path class="cls-13" d="M109.744,159.043a8.426,8.426,0,0,0-.227,6.139c1.132,3.6.68,10.586,0,16.514s0,17.572,0,17.572-9.055-.211-9.96-.423.679-6.775-.227-11.009-2.49-15.667-2.943-18.419-2.716-13.974-2.716-13.974Z"/><path class="cls-14" d="M93.633,86.883s-.905,3.282.906,4.235,10.866.635,14.375.105,16.186-4.869,18-7.2,2.717-3.811,1.245-4.763-5.659-1.482-6.112-1.482-6.905,3.6-13.357,4.234S94.425,84.343,93.633,86.883Z"/><path class="cls-5" d="M103.82,87.413l1.358,4.975s6.565.635,8.263-.741,1.245-6.034,1.245-6.034Z"/><path class="cls-15" d="M92.954,99.057S81.069,113.983,79.6,118.746s-1.359,8.363,2.942,10.268,6.9,2.859,6.9,2.859,7.018-29.323,6.791-29.746S96.916,96.834,92.954,99.057Z"/><path class="cls-5" d="M100.99,65.077s-1.131,4.128-1.584,5.293S95.9,73.334,95.9,77.039a13.121,13.121,0,0,0,4.188,9.844c2.716,2.329,12.564,1.694,14.715-.211s5.886-7.728,5.659-12.174S117.4,62.536,111.63,60.737s-9.621.741-9.621.741l-1.7,3.81Z"/><path class="cls-13" d="M125.439,160.877a8.426,8.426,0,0,0-.226,6.14c1.132,3.6.679,10.586,0,16.514s0,17.572,0,17.572-9.055-.212-9.961-.423.68-6.775-.226-11.009-2.49-15.667-2.943-18.42-2.716-13.973-2.716-13.973Z"/><path class="cls-16" d="M95.218,96.622s-3.509,17.255-5.547,28.793-1.018,33.134-1.018,33.134,11.319.741,17.091,1.482,12.565,1.164,15.055,2.434,6.452,2.012,7.923,1.694,5.546-8.68,6.225-16.937-2.263-30.91-2.49-32.922-2.264-18.419-2.264-18.419Z"/><path class="cls-17" d="M107.782,57.137a19.941,19.941,0,0,1,12.677.53c6.226,2.646,9.276,6.046,9.621,9.844.453,4.976-2.264,10.586-3.735,11.645a10.48,10.48,0,0,1-3.169,1.482,65.414,65.414,0,0,0-6.452-8.045c-3.169-3.176-2.038-5.505-2.943-7.516s-10.98-4.658-10.98-4.658Z"/><path class="cls-18" d="M99.859,62.748s7.017-.635,9.281.953,8.829,10.479,8.829,10.479-2.83-17.254-5.886-20.112-9.18-2.217-12.111-1.588C94.539,53.644,99.859,62.748,99.859,62.748Z"/><path class="cls-5" d="M118.874,77.674s1.585-2.329,3.283-.53,1.924,4.023-.679,5.187a4.85,4.85,0,0,1-4.754-.529"/><path class="cls-19" d="M98.626,76.551a2.018,2.018,0,0,1,1.968-.73,1.888,1.888,0,0,1,1.473,1.424"/><path class="cls-19" d="M97.441,79.5l1.265,1.135a3.138,3.138,0,0,0,.916.64,2.835,2.835,0,0,0,.989.15,4.716,4.716,0,0,0,3.421-1.114"/><path class="cls-20" d="M109.819,66.135s-.452-1.058-1.924-.317a22.456,22.456,0,0,0-3.282,2.223,4.225,4.225,0,0,1,1.245-2.223c.905-.635,1.7-1.165,1.7-1.165s-.679,1.165-4.754,1.271-5.319-.847-5.319-.847a10.965,10.965,0,0,0,3.169-.53c.679-.423-1.358-.529-2.717-1.376a11.148,11.148,0,0,1-2.6-2.646,16.56,16.56,0,0,0,7.244,1.588c4.3,0,6.678,0,8.489,1.8a7.694,7.694,0,0,1,2.151,3.705Z"/><path class="cls-16" d="M93.633,87.307s-1.358,5.187-.905,7.092,1.131,4.34,1.131,4.34a7.668,7.668,0,0,1,7.471.847c3.962,2.647,9.734,2.329,14.375,2.011s13.13-5.4,14.941-3.387,3.509,4.869,4.075,4.764,4.3-4.446,1.358-8.151-3.961-4.658-3.961-6.669-.566-6.564-1.472-7.622a6.9,6.9,0,0,0-2.943-1.588s.793,3.176-4.3,6.351-13.7,5.717-17.771,5.717S94.539,92.811,93.633,87.307Z"/><path class="cls-21" d="M108.914,73.016s-1.472-1.588-2.943-.741-2.264,3.176-.793,4.34S109.31,75.027,108.914,73.016Z"/><path class="cls-22" d="M107.645,72.608s-1.022-1.1-2.043-.515-1.572,2.2-.55,3.013S107.881,73.783,107.645,72.608Z"/><path class="cls-21" d="M102.266,70.1s-.968-1.643-2.266-1-2.251,2.759-1.226,4S102.31,71.724,102.266,70.1Z"/><path class="cls-22" d="M101.3,69.584s-.672-1.141-1.573-.692-1.563,1.915-.851,2.779S101.331,70.714,101.3,69.584Z"/><path class="cls-23" d="M108.41,68.143c-.012-.055.086-.057.139-.03a6.241,6.241,0,0,1,2.242,2.38"/><path class="cls-22" d="M102.441,91.461a3.477,3.477,0,0,0-.036,2.133,12.12,12.12,0,0,0,.806,2.01,6.808,6.808,0,0,1,.979,4.231,9.932,9.932,0,0,1-.731,2.081c-.3.662-.572,1.327-.821,2a24.819,24.819,0,0,0-1.079,12.757,51.233,51.233,0,0,0,2.4,8.316,55.81,55.81,0,0,1,2.556,8.361,28.56,28.56,0,0,1-.024,8.746,72.028,72.028,0,0,0-.227,17.355,67.308,67.308,0,0,1-.681-8.689,74.3,74.3,0,0,1,.482-8.711,29.489,29.489,0,0,0-.048-8.609,55.6,55.6,0,0,0-2.582-8.266,51.694,51.694,0,0,1-2.377-8.416,24.169,24.169,0,0,1,.055-8.747,25.078,25.078,0,0,1,1.194-4.219,41.8,41.8,0,0,0,1.615-4.017,6.609,6.609,0,0,0-.837-4.12,12.3,12.3,0,0,1-.749-2.051A3.514,3.514,0,0,1,102.441,91.461Z"/><path class="cls-16" d="M114.556,134.5a67.832,67.832,0,0,0,8.953,1.178c2.9,0,9.584-.392,9.584-.392s-.5,11.91-1.135,15.575-1.135,5.759-1.135,5.759-5.3-.786-7.944-.916a82.635,82.635,0,0,1-9.584-1.833Z"/><polyline class="cls-6" points="89.021 131.461 101.221 133.032 100.559 153.352 88.926 153.352"/><path class="cls-9" d="M99.431,119.993l-3.7-1.172c.11-.836.539-1.99-.675-2.526-2.5-1.1-2.226,1.532-2.226,1.532l-.028.065-5.078-1.609-.179,1.532,4.627,1.565L89.457,125.8l-4.186-1.6-.733,2.265,4.02,1.462-.4,1.289,2.318.809.583-1.19,3.325,1.209.772-2.057-3.1-1.188,3.1-6.33.037-.063,3.131,1.059Z"/><path class="cls-8" d="M100.183,118.89l2.2-4.959a2.443,2.443,0,0,1,1.9-.123,12.063,12.063,0,0,1,1.987,1.146l-2.017,4.976Z"/><path class="cls-8" d="M99.6,118.559s1.119-1.1,3.775-.081a2.4,2.4,0,0,1,1.856,2.393c.456,3.427-1.076,9.462-1.076,9.462l-1.4,6.817s-6.39-3.882-8.326-4.351a3.416,3.416,0,0,0-3.013.489Z"/><path class="cls-9" d="M88.323,137.835c-.509-1.571,4.524-8.532,4.524-8.532s4.546-1.077,8.143,1.511c2.893,2.081,2.892,4.122,2.892,4.122l-1.609,6.82S88.832,139.407,88.323,137.835Z"/><ellipse class="cls-10" cx="95.373" cy="139.588" rx="2.59" ry="7.234" transform="translate(-66.09 189.693) rotate(-72.897)"/><ellipse class="cls-11" cx="94.95" cy="139.918" rx="1.872" ry="4.975" transform="translate(-66.668 189.639) rotate(-72.939)"/><path class="cls-8" d="M89.809,114.905l2.766-4.706a2.141,2.141,0,0,0-1.084-1.464,12.393,12.393,0,0,0-2.2-.736l-2.9,4.582Z"/><path class="cls-8" d="M90.451,115.125s.218-1.5-2.29-2.807a2.681,2.681,0,0,0-3.158.139c-3.146,1.807-7.228,6.7-7.228,6.7l-4.82,5.279s7.233,2.241,8.833,3.362a2.969,2.969,0,0,1,1.474,2.507Z"/><path class="cls-9" d="M81.4,135.4c1.63-.61,4.3-8.634,4.3-8.634a10.113,10.113,0,0,0-6.348-5c-3.544-.813-5.247.463-5.247.463l-4.691,5.435S79.766,136.009,81.4,135.4Z"/><ellipse class="cls-10" cx="75.53" cy="131.346" rx="2.622" ry="7.147" transform="translate(-75.975 129.74) rotate(-59.492)"/><ellipse class="cls-11" cx="75.519" cy="131.86" rx="1.895" ry="4.915" transform="translate(-76.426 130.162) rotate(-59.559)"/><path class="cls-24" d="M112.083,120.863s-6.112-3.493-7.584-3.6-2.037.212-.452,1.376,2.15,2.012,1.245,2.329-8.376-.952-8.49,0,5.886.953,5.886,1.694-6.9-.423-6.9.953,6.565.741,6.791,1.588-6.565-.212-6.678,1.058,5.773.424,6.112,1.165-4.867,1.164-4.414,2.011,4.3.106,5.093.317a16.164,16.164,0,0,0,4.415.53c2.264,0,7.47-2.223,7.47-2.223s1.019-4.764.679-5.611S112.083,120.863,112.083,120.863Z"/><path class="cls-15" d="M129.514,97.575s-6.112,0-4.98,9.845a55.01,55.01,0,0,1-.113,6.986,7.281,7.281,0,0,1-.793,2.964,5.972,5.972,0,0,0-3.395.529c-1.811.847-3.4,1.694-3.736,2.329s-2.829,1.059-2.829,1.059a40.648,40.648,0,0,1,.452,6.775l-.226,2.011,3.056.318s5.094,1.8,7.471,1.8,11.319-.423,12.79-5.5,1.359-11.01-.339-15.032S137.551,94.823,129.514,97.575Z"/><path class="cls-25" d="M132.525,140.721s-1.261-3.337-2.332-3.664-3.279.719-3.279.719l2.648,4.516-2.711,1.112-2.648-6.675-4.477-.131,3.72,9.1-3.72-.785-1.2.327-.882,4.843,5.611-.066-.5,1.9-5.486-.458-.441,2.029,10.214,1.374s-3.215-3.861-1.45-6.61,5.8-2.029,5.8-2.029Z"/><path class="cls-25" d="M131.075,147.789l-.945,6.937a3.552,3.552,0,0,1-2.838-2.094c-1.008-2.029-.819-4.254.946-4.777A4.474,4.474,0,0,1,131.075,147.789Z"/><polygon class="cls-25" points="115.313 135.813 115.061 140.918 120.294 143.47 118.087 136.729 115.313 135.813"/><path class="cls-26" d="M109.69,92.76s.773-1.7,1.378-1.84a3.939,3.939,0,0,1,1.812.447l-1.571,2.272,1.487.636,1.617-3.387,2.5.034-2.266,4.613,2.09-.32.661.2.39,2.521-3.127-.162.242.992,3.066-.112.2,1.058-5.722.477s1.873-1.921.948-3.38-3.19-1.18-3.19-1.18Z"/><path class="cls-26" d="M110.349,96.443l.381,3.6a2,2,0,0,0,1.625-1.017c.6-1.024.547-2.178-.426-2.488A2.683,2.683,0,0,0,110.349,96.443Z"/><polygon class="cls-26" points="119.387 90.617 119.42 93.259 116.449 94.458 117.822 91.027 119.387 90.617"/></g></svg>