<svg id="word" xmlns="http://www.w3.org/2000/svg" viewBox="0 0 160 160"><defs><style>.cls-1,.cls-2{fill:#e1e2e3;}.cls-1,.cls-2,.cls-3,.cls-4,.cls-6,.cls-7{stroke:#9c4c9c;stroke-width:0.93px;}.cls-1,.cls-2,.cls-3,.cls-4{stroke-miterlimit:10;}.cls-1{opacity:0.64;}.cls-2{opacity:0.77;}.cls-3{fill:#895d3b;}.cls-4{fill:#fff;}.cls-5{fill:#9c4c9c;}.cls-6{fill:#603917;}.cls-7{fill:#f9ae42;}</style></defs><path class="cls-1" d="M84.617,67.149c.713-13.04-12.98-30.758-18.082-42.543C57.4,3.5,42.084,16.351,42.634,34.8c.7,22.25,18.693,33.255,38.714,37.682a17.583,17.583,0,0,0,2.291-3.61"/><path class="cls-2" d="M75.843,67.948C63.264,56.132,45.5,47.963,31.922,45.579,12.561,42.085,20.79,58.4,30.317,67.506c8.127,7.751,57.794,20.053,45.526.442"/><path class="cls-3" d="M115.187,76.609s-2.13,3.105-10.824-.269c-8.674-3.387-14.883-10.032-14-16.971s6.884-9.152,12.591-9.034c5.726.1,11.855,6.108,12.513,11.527.609,5.382-.9,10.872.313,11.628C116.993,74.272,117.02,75.792,115.187,76.609Z"/><path class="cls-4" d="M107.028,64.043s-4.158-11.109-7.974-2.4C97,66.417,109.344,69.792,107.028,64.043Z"/><path class="cls-5" d="M105.092,54.2a14.237,14.237,0,0,1,3.194-8.55c3.337-4.171,8.848-6.854,14.433-7.937,0,0-1.109-2.248,2.106-1.146s2.6,4.181-.312,3.5-4.717-.317-8.218.9-5.72,2.631-7.526,4.942C106.944,48.26,105.092,54.2,105.092,54.2Z"/><path class="cls-5" d="M97.954,80.108a38.944,38.944,0,0,1,6.863-1.277c2.118,0,3.07.18,2.789,2.406a7.519,7.519,0,0,0,1.71,5.821,34.417,34.417,0,0,0,2.2,2.861s-1.556.1-2.806-2.091c-1.26-2.213-.725-6.757-3.134-6.482-2.453.246-4.156,1.015-5.666,1.037C98.366,82.386,97.954,80.108,97.954,80.108Z"/><path class="cls-5" d="M98.366,82.386a11.552,11.552,0,0,1,3.91,1.919c1.547,1.307,1.393,1.66.907,3.689s-.649,2.968.242,4.836.912,3.1.14,4.316-.226,0-.674-2.392c-.492-2.418-1.3-4.231-1.386-6.086s-1.374-3.261-2.49-3.2a4.13,4.13,0,0,1-2.128-.522Z"/><path class="cls-5" d="M93.8,85.862s5.884,2.794,7.474,3.415c1.567.608,3.593-.427,4.388,1.922.836,2.326.362,7.39,1.553,9.272s-.211,1.843-.211,1.843-.9-.276-1.707-3.7c-.758-3.43,1.159-5.8-1.578-6.558-2.718-.766-4.539.256-7.753-1.1s-4.2-.627-4.2-.627Z"/><path class="cls-5" d="M89.549,90.573a13.845,13.845,0,0,1,5.426,2.41c3.209,2.15,5.115,1.688,3.021,4.72a56.813,56.813,0,0,0-3.543,5.482c-.413.847-2.2,3.3-2.2,3.3a31.477,31.477,0,0,1,1.278-4.865c.8-2.02,4.535-3.617,2.521-5.184-2.006-1.6-9.009-4.108-9.009-4.108Z"/><path class="cls-5" d="M83.422,93.358s6.649,4.7,6.528,7.362.65,1.982-2.014,3.675c-2.687,1.679-7.187,7.5-7.187,7.5a54.053,54.053,0,0,1,3.964-6.545c1.516-1.825,4.746-1.275,2.638-4.43a64.205,64.205,0,0,0-5.964-7.05L83.1,93.12Z"/><path class="cls-5" d="M88.758,93.384a17.224,17.224,0,0,0,4.958,3.368c2.639,1.022,6.361.336,6.305,3.043s-1.313,4.62-1.751,7.308c-.409,2.645-.612,6.018-.612,6.018s-.479-.095-.818-4.665,2.285-5.87.485-7.481-2.028-1.8-4.957-2.839-6.352-4.179-6.352-4.179Z"/><path class="cls-5" d="M109.946,57.293c7.315-6.792,20.8-6.186,27.772,1.09,0,0,3.862,2.847,1.194,3.96-6.859,2.782-1.912-3.321-5.556-5.659-3.63-2.318-8.131-3.711-11.728-3.335A34.789,34.789,0,0,0,109.946,57.293Z"/><path class="cls-3" d="M93.351,69.627s-9.706-4.672-14.89.879S67.787,78.478,68.47,84.492c.693,6.034,3.2,9.742,10.485,10.444,7.307.732,19.038-5.332,19.968-11.626C99.859,77,101.073,70.807,93.351,69.627Z"/><path class="cls-6" d="M80.02,102.625a5.546,5.546,0,0,0,.389-4.382c-2.058-5.645-9.766-12.275-9.766-12.275A19.214,19.214,0,0,0,62.4,82.32C65.17,90.971,71.751,98.171,80.02,102.625Z"/><path class="cls-7" d="M60.119,99.743c4.171,3.543,10.408,7.869,13.759,10.149,2.812-2.519,5.065-4.953,6.142-7.267C71.751,98.171,65.17,90.971,62.4,82.32a11.484,11.484,0,0,0-7.117,1,10.78,10.78,0,0,0-1.22.757C54.619,88.692,56.127,96.349,60.119,99.743Z"/><path class="cls-6" d="M33.708,118.574c2.132,3.472,8.462,5.017,15.19,4.586-5.667-4.071-9.346-9.406-13.3-15.058C33.462,112.627,32.48,116.554,33.708,118.574Z"/><path class="cls-6" d="M44.9,93.452q-1.851,2.374-3.6,4.919c2.183,9.082,8.209,18.031,16.131,23.054a26.039,26.039,0,0,0,4.366-1.957C53.513,113.011,46.306,103.961,44.9,93.452Z"/><path class="cls-6" d="M69.137,113.892c1.679-1.363,3.276-2.68,4.741-4-3.351-2.28-9.588-6.606-13.759-10.149-3.992-3.394-5.5-11.051-6.055-15.668a31.934,31.934,0,0,0-4.659,4.138C52.459,100.327,59.545,107.368,69.137,113.892Z"/><path class="cls-7" d="M69.137,113.892c-9.592-6.524-16.678-13.565-19.732-25.679-1.453,1.525-2.981,3.33-4.5,5.239,1.4,10.509,8.611,19.559,16.895,26.016a19.2,19.2,0,0,0,2.541-1.727C65.959,116.464,67.568,115.166,69.137,113.892Z"/><path class="cls-7" d="M41.3,98.371a72.933,72.933,0,0,0-5.7,9.731c3.956,5.652,7.635,10.987,13.3,15.058a34.754,34.754,0,0,0,8.533-1.735C49.509,116.4,43.483,107.453,41.3,98.371Z"/><ellipse class="cls-5" cx="105.259" cy="64.884" rx="1.757" ry="1.869" transform="translate(-18.335 61.165) rotate(-29.927)"/></svg>