<svg id="word" xmlns="http://www.w3.org/2000/svg" viewBox="0 0 160 160"><defs><style>.cls-1{fill:#d9b57a;}.cls-1,.cls-10,.cls-11,.cls-12,.cls-14,.cls-15,.cls-2,.cls-3,.cls-4,.cls-5,.cls-6,.cls-7,.cls-8,.cls-9{stroke:#9d4b9c;stroke-width:0.67px;}.cls-2{fill:#f2d480;}.cls-3{fill:#d6de23;}.cls-4{fill:#f7ee6d;}.cls-5{fill:#81c6ed;}.cls-6{fill:#5a91cc;}.cls-12,.cls-7{fill:#fff;}.cls-8{fill:#00adee;}.cls-9{fill:#fde4d5;}.cls-10{fill:#8b8bc3;}.cls-11,.cls-15{fill:none;}.cls-11,.cls-12{stroke-linecap:round;}.cls-13{fill:#9d4b9c;}.cls-14{fill:#d67fb3;}</style></defs><rect class="cls-1" x="62.31" y="90.097" width="81.249" height="45.023"/><path class="cls-2" d="M62.31,90.1,78.353,71.984h55.374L143.56,90.1Z"/><path class="cls-3" d="M50.841,88.472a38.161,38.161,0,0,0-1.193,10.136c.149,5.366,2.534,14.012,1.044,18.931-.865,2.853.447,3.875.447,3.875h-6.41S42.2,103.527,42.643,100.7s-2.087-13.117-2.087-13.117Z"/><path class="cls-4" d="M50.915,116.272a5.809,5.809,0,0,1,1.565,4.248,14.872,14.872,0,0,1-1.115,2.391s-2.123,1.99-3.356,1.484-3.829-1.525-3.829-1.525a5.936,5.936,0,0,0-.345-2.052,8.248,8.248,0,0,1,.149-3.279s1.628,2.311,3.681,1.75S51,117.4,50.915,116.272Z"/><path class="cls-5" d="M47.636,129.761c2.046-.341,4.255,1.045,5.194,1.726.944-.278,1.813-.6,2.488-.864-.628-2.172-3.434-5.482-3.434-5.482s.3-1.789-2.236-3.131-5.515,1.267-5.515,1.267a12.9,12.9,0,0,1-1.267,4.77,18.407,18.407,0,0,0-.236,2.656c.648.243,1.586.568,2.652.853C45.4,130.971,45.855,130.058,47.636,129.761Z"/><path class="cls-6" d="M47.636,129.761c-1.781.3-2.241,1.21-2.354,1.8a15.269,15.269,0,0,0,3.77.59,14.129,14.129,0,0,0,3.778-.659C51.891,130.806,49.682,129.42,47.636,129.761Z"/><path class="cls-7" d="M52.83,131.487c.292.212.47.361.47.361s-.178-.149-.47-.361a14.129,14.129,0,0,1-3.778.659,15.269,15.269,0,0,1-3.77-.59,1.858,1.858,0,0,0-.031.516,1.858,1.858,0,0,1,.031-.516c-1.066-.285-2-.61-2.652-.853-.417,1.758.333,2.268,2.1,2.785,4.845,1.416,10.882-.149,10.733-2.236a3.344,3.344,0,0,0-.144-.629C54.643,130.89,53.774,131.209,52.83,131.487Z"/><path class="cls-7" d="M45.177,125.141s5.4-1.326,5.44-.373C50.692,126.333,45.7,127.078,45.177,125.141Z"/><path class="cls-7" d="M45.847,127.451s5.4-1.326,5.441-.373C51.362,128.644,46.369,129.389,45.847,127.451Z"/><path class="cls-3" d="M28.858,88.92A38.177,38.177,0,0,1,30.05,99.056c-.149,5.366-2.534,14.011-1.043,18.93.864,2.853-.448,3.875-.448,3.875h6.41s2.534-17.887,2.087-20.719,2.086-13.117,2.086-13.117Z"/><path class="cls-8" d="M43.912,51.953l4.025.746s2.087,6.409,1.938,6.856,1.639,19.676,2.086,21.912,1.789,7.155,1.789,7.155-4.472,1.49-6.857,1.49-11.03,0-14.607-.3-7.3-.3-7.3-.3S29.9,74.461,29.6,70.586s1.192-12.67,1.341-14.459,2.382-4.683,2.382-4.683l3.879-.087s-.3,4.77,3.726,4.621S43.912,51.953,43.912,51.953Z"/><path class="cls-9" d="M36.915,47.112s.234,3.089.353,5.064,2.367,6.795,4.74,5.807,1.9-4.942,1.9-4.942L43.783,46"/><path class="cls-9" d="M28.418,71.6s4.908-2.2,4.133-.391-2.067.9-2.067,1.81,0,5.039-.773,6.331-1.035,2.584-1.938,1.938-1.035-6.461-1.035-8.009"/><path class="cls-8" d="M25.189,76.377c-.7-6.264-12.534-6.848-5.167-15.114,2.009-2.262,2.358-2.595,4.263-5.039,1.944-2.5,5.077-5.743,9.041-4.78L30.8,59.257C27.524,63,19.729,64.526,26.738,69.013c0,0,1.3-1.807,1.68.129s-.519,4.65-.906,5.944S25.317,77.541,25.189,76.377Z"/><path class="cls-10" d="M46.213,15.862C42,13.98,33.641,13.229,29.355,14.948a34.663,34.663,0,0,0-4.481,2.326,16.776,16.776,0,0,0-5.391,4.23,15.459,15.459,0,0,0-2.291,6.374,28.337,28.337,0,0,0-.524,9.678c.8,5,3.849,9.38,5.069,14.3L23.7,41.534a68.859,68.859,0,0,1,2.47-10.171,23.055,23.055,0,0,1,5.363-8.895c3.013-2.947,6.977-4.678,10.847-6.347"/><path class="cls-9" d="M43.674,17.151s4.633,5.739,5.275,7.6,1.259,6.738,1.749,7.973,1.913,6.409.193,10.252c-.9,2.012-4.46,5.278-7.4,6.72a9.893,9.893,0,0,1-8.586-.652c-3.967-2.653-8.547-11.022-8.934-14.3s.311-12.561,4-15.017S41.236,15.763,43.674,17.151Z"/><path class="cls-11" d="M44.4,38.893c-.671-1.232-1.465-1.043-2.189.317"/><path class="cls-12" d="M35.119,37.638s-1.459-3.074.852-3.648c1.413-.35,3.769,1.562,2.419,3.483S35.119,37.638,35.119,37.638Z"/><path class="cls-12" d="M46.423,34.926s-1.445-3.057.843-3.621c1.4-.352,3.741,1.545,2.4,3.45S46.423,34.926,46.423,34.926Z"/><path class="cls-11" d="M33.255,32.383a2.673,2.673,0,0,1,3.055-1.407"/><path class="cls-11" d="M44.97,29.579c.214-1,1.272-1.282,2.368-.953"/><path class="cls-13" d="M36.995,36.667c.12.728-.2,1.391-.708,1.489s-1.008-.421-1.119-1.15.2-1.393.706-1.485S36.884,35.938,36.995,36.667Z"/><path class="cls-13" d="M48.2,33.916a1.186,1.186,0,0,1-.732,1.457c-.521.088-1.043-.414-1.158-1.128a1.174,1.174,0,0,1,.722-1.453C47.558,32.7,48.079,33.208,48.2,33.916Z"/><path class="cls-14" d="M22.626,48.179s3.635,2.362,3.1,3.711-1.756.365-1.39,2.121-2.421,2.162-2.421,2.162-1.738.808-2.357.095-2.25-.942-2.309-2.415-.943-1.437-.1-2.5.5-2.232,1.808-2.728S22.255,46.276,22.626,48.179Z"/><path class="cls-10" d="M50.742,31.022a11.5,11.5,0,0,0,1.716-6.512c-.154-3.829-3-8.287-3-8.287a36.488,36.488,0,0,0-8.024-.377c-4.972.233-10.174-.739-14.933,5.648s-4.422,11.094-4.2,13a31.079,31.079,0,0,1-.528,6.138l9.481,5.135s-6.011-11.091,2.765-16.328c8.164-4.872,8.824-3.715,12.905-2.5A5.863,5.863,0,0,1,50.742,31.022Z"/><path class="cls-15" d="M45.7,41.385A3.353,3.353,0,0,1,40.8,42a3.9,3.9,0,0,1-.51-.526"/><path class="cls-9" d="M52.038,72.493s-4.909-2.2-4.133-.391,2.066.9,2.066,1.81,0,5.039.774,6.332,1.034,2.583,1.938,1.938,1.034-6.462,1.034-8.009"/><path class="cls-8" d="M55.266,77.271c.7-6.264,12.535-6.848,5.167-15.114-2.008-2.261-2.357-2.595-4.263-5.038-1.944-2.5-5.077-5.744-9.041-4.78l2.746,8.111c3.271,3.742,10.851,4.971,3.842,9.458,0,0-1.294-1.808-1.679.128s.519,4.65.905,5.944S55.138,78.436,55.266,77.271Z"/><path class="cls-4" d="M28.783,116.719a5.809,5.809,0,0,0-1.565,4.248,14.959,14.959,0,0,0,1.115,2.391s2.123,1.99,3.357,1.485,3.829-1.525,3.829-1.525a5.927,5.927,0,0,1,.344-2.053,8.228,8.228,0,0,0-.149-3.279s-1.628,2.311-3.681,1.75S28.7,117.851,28.783,116.719Z"/><path class="cls-5" d="M32.062,130.209c-2.045-.341-4.254,1.045-5.193,1.725-.944-.278-1.814-.6-2.489-.863.628-2.173,3.434-5.483,3.434-5.483s-.3-1.789,2.236-3.13,5.515,1.267,5.515,1.267a12.929,12.929,0,0,0,1.267,4.769,18.265,18.265,0,0,1,.236,2.656c-.647.243-1.586.568-2.652.854C34.3,131.418,33.843,130.505,32.062,130.209Z"/><path class="cls-6" d="M32.062,130.209c1.781.3,2.241,1.209,2.354,1.795a15.26,15.26,0,0,1-3.77.589,14.083,14.083,0,0,1-3.777-.659C27.808,131.254,30.017,129.868,32.062,130.209Z"/><path class="cls-7" d="M26.869,131.934c-.293.212-.471.361-.471.361s.178-.149.471-.361a14.083,14.083,0,0,0,3.777.659,15.26,15.26,0,0,0,3.77-.589,1.851,1.851,0,0,1,.031.515,1.851,1.851,0,0,0-.031-.515c1.066-.286,2.005-.611,2.652-.854.417,1.758-.332,2.269-2.1,2.785-4.844,1.416-10.881-.149-10.732-2.236a3.252,3.252,0,0,1,.143-.628C25.055,131.337,25.925,131.656,26.869,131.934Z"/><path class="cls-7" d="M34.522,125.588s-5.395-1.326-5.441-.373C29.007,126.78,34,127.526,34.522,125.588Z"/><path class="cls-7" d="M33.851,127.9s-5.395-1.326-5.441-.372C28.336,129.091,33.329,129.836,33.851,127.9Z"/></svg>