<svg id="word" xmlns="http://www.w3.org/2000/svg" viewBox="0 0 160 160"><defs><style>.cls-1{fill:none;}.cls-2{fill:#daae85;}.cls-2,.cls-3,.cls-4,.cls-5,.cls-6{stroke:#9d4b9c;stroke-miterlimit:10;}.cls-3,.cls-8{fill:#f8f9e0;}.cls-4{fill:#f3b898;}.cls-5{fill:#dbba89;}.cls-10,.cls-6{fill:#fff;}.cls-7{fill:#9d4b9c;}.cls-9{fill:#54c5d4;}</style></defs><rect class="cls-1" x="14" y="14" width="132" height="132"/><path class="cls-2" d="M43.811,24.58s4.01-5.936,5.957-7.376,3.784-1.717,5.207-2.575,6.206.171,6.206.171L50.917,21.093l-2.882,3.135Z"/><path class="cls-3" d="M131.924,61.926a13.706,13.706,0,0,0,4.158,1.208c2.449.319,5.125,1.154,8.777,1.647s5.279,4.2,6.439,6.146.815,9.53.791,12.238-.833,6.127.066,7.373a9.157,9.157,0,0,0,1.586,1.776s-3.358-.368-4.046-3.158-2.712-6.573-2.707-7.582.042-4.81.042-4.81l-1.267,4.093a44.051,44.051,0,0,1-.711-5.26c.006-1.487-.96,2.7-1.119,3.54s-2.126-3.3-1.1-5.178,1.44-4.651,0-5.924-3.151-.455-5.078-1.382a26.723,26.723,0,0,0-3.908-1.477Z"/><path class="cls-3" d="M121.88,97.283s1.044,9.183,0,10.13-6.488,8.094-8.189,9.428-.9,1.937-.9,1.937,5.109.728,5.485.933a3.12,3.12,0,0,0,2.893-2.615c.111-1.9,6.162-7.07,6.162-7.07a57.669,57.669,0,0,0,1.644-5.87c0-.789-3.651-6.873-3.651-6.873Z"/><path class="cls-3" d="M60.909,81.064s1.385,13.943.125,14.9-.3,3.882.3,5.278.2,6.1-.324,7.267-2.98,8.1-2.98,8.1l-.489,1.536a18.351,18.351,0,0,0,2.045,1.592c.707.4,2.045,1.031,2.045,1.031s1.257-3.841,2.056-4.334,1.538-.844,1.44-2.812-.59-2.389-.69-4.452,1.7-5.553,2.245-8.542,1.7-10.555,1.7-10.555Z"/><path class="cls-4" d="M104.209,87.008s3.54,4.3,5.351,5.02a23.514,23.514,0,0,0,6.582,1.021,13.775,13.775,0,0,0,3.849-.735l-3.454-11.25Z"/><path class="cls-4" d="M112.772,90.582s-1.655,4.934-.672,5.994,2.457.685,2.372-1.253a12.811,12.811,0,0,1,.823-4.3"/><path class="cls-4" d="M107.025,90.076s-2.8,2.392-1.553,3.794a1.473,1.473,0,0,0,2.387-.078l1.7-1.764Z"/><path class="cls-3" d="M36.59,45.82s1.807,5.568.788,7.526a36.029,36.029,0,0,0-1.7,3.843s2.846-2.773,3.217-4.094-.544,6-.968,6.989,2.961-5.072,2.961-5.072-.5,2.907-1.242,6.218-2.275,9.715-2.275,9.715,3.274-4.969,5.262-7.91a17.793,17.793,0,0,0,3.181-9.394A49.866,49.866,0,0,0,45,44.058Z"/><path class="cls-3" d="M56.1,25.8a30.962,30.962,0,0,0-10.287-.9c-4.767.607-7.458,2.711-7.76,4.6s-3.107,5.8-4.945,6.841-4.5,1.835-5.277,2.226-3.343,1.042-2.291,2.226.723,2.049,1.4,2.727a9.1,9.1,0,0,0,1.636,1.228s.511,2.767,1.766,3.135,4.846-.558,4.846-.558,2.528-1.532,3.044-1.434,4.01-1.336,4.678-1.045,4.154-1.185,4.154-1.185a39.915,39.915,0,0,1,3.7,4.146c.259.676,1.112,11.608,1.459,15.149s2,9.325,3.11,11.222.931,3.577,2.076,5.759a10.516,10.516,0,0,0,2.4,3.177l.542-.985s3.258,2.666,4.12,5.05,3.88,4.827,4.181,6.733-.24,10.345.25,11.541,1.949,2.8,1.8,4.619-.245,11.606-.245,11.606-.039,1.534-.107,2.826a8.447,8.447,0,0,1-1.18,3.076l4.853,2.029s.918-2.635,1.056-2.951,3.222-2.964,2.579-4.125-3.292-3.332-2.645-5.962,1.158-8.425,1.628-9.273a6.045,6.045,0,0,0,.335-2.594s-.452-4.581-.725-6.463.713-4.271,1.153-7.573a16.421,16.421,0,0,1,1-4.442s2.378,2.533,10.56,3.16a27.47,27.47,0,0,0,10.8-1.014c6.415-1.755,15.888-5.6,15.888-5.6a32.026,32.026,0,0,0,.5,6.635c.5,2.649,3.132,8.317,5.125,8.9a3.217,3.217,0,0,1,2.466,3.046c.124,1.031,1.084,2.275,1.677,3.473s.855,1.79.855,1.79-.324,5.758-.193,9.171-2.97,9.086-2.97,9.086l-1.975,2.7,6.106,2.725s-.375-3.579,1.268-4.226,2.16-1.982,2.938-3.906-.924-3.981-1.072-5.346.677-4.393.826-5.876.449-4.527.449-4.527,3.321-3.454,2.195-4.836-3.08-2.84-3.1-5.014-.746-8.907.317-10.964,4.28-7.414,4.054-9.78S134.9,62.9,132.4,60.85s-5.224-6.935-9.712-7.517S100.437,54.9,96.8,54.683s-10.946-.7-13.055-3a10.621,10.621,0,0,0-5.893-3.165c-1.528-.391-5.2-1.126-5.2-1.126s-7.188-2.085-7.967-5.093-4.159-9.253-4.36-9.646-.729-6.137-3.788-6.644S56.1,25.8,56.1,25.8Z"/><path class="cls-5" d="M121.976,126.433a5.092,5.092,0,0,0,3.245,2.048c2.013.233,2.121-.572,2.121-.572s-.554,6.855-1.068,7.835-3,1.274-3.829,1.262-3.362-.788-2.75-1.262l.612-.475s-2.576,1.4-2.517-.02a12.322,12.322,0,0,1,.561-3.916C118.738,130.584,121.976,126.433,121.976,126.433Z"/><path class="cls-5" d="M119.355,119.457s-1.5,4.409-2.108,4.965-3.812.117-4.272.07-2.972-.13-2.972-.13l.416-.666-2.323.328a9.7,9.7,0,0,1,1.771-3.593,34.143,34.143,0,0,1,3.824-3.59S118.27,119,119.355,119.457Z"/><path class="cls-5" d="M69.169,127.582a21.593,21.593,0,0,1,4.386.133c.975.234.949.986,1.239,1.408l-2.072,5.506s-1.437,1.456-2.72,1.246a2.18,2.18,0,0,1-1.622-.831s-.448-.938-1.133-.415-1.641-.148-1.641-.148.067-2.675,1.145-4.007C68.38,128.46,69.169,127.582,69.169,127.582Z"/><path class="cls-5" d="M58.025,116.612A37.276,37.276,0,0,0,62.5,118.44c.828.116-1.59,4.889-1.59,4.889L59.8,124.7s-2.964-.172-3.458-.665a3.143,3.143,0,0,1-.69-1.263l-.728.72-1.832-.48s1.1-1.659,1.984-3.094a28.948,28.948,0,0,1,2.582-3.307Z"/><path class="cls-3" d="M51.946,28.572a7.458,7.458,0,0,1,5.59-2.165,19.422,19.422,0,0,0,7.481-.9c2.7-.789,3.414-3.234,4.744-3.32a1.766,1.766,0,0,1,1.086,3.194c-1.61,1.471-6.484,5.386-9.263,6.247s-7.612,1.77-7.612,1.77"/><path class="cls-6" d="M44.817,30.139s-3.49,1.426-3.71,2.452.052,2.6,1.148,2.367,1.678-1.072,2.614-2.29S45.621,30.314,44.817,30.139Z"/><path class="cls-7" d="M54.253,30.244s.274-.083.756-.207L57,29.524a23.513,23.513,0,0,0,5.689-2.08,15.1,15.1,0,0,0,2.587-1.894,22.753,22.753,0,0,1,2.292-1.827,7.048,7.048,0,0,1,1.9-.9,3.174,3.174,0,0,1,.572-.122l.2-.031a5.586,5.586,0,0,0-.7.333,8.418,8.418,0,0,0-1.623,1.174c-.618.555-1.285,1.264-2.044,2.018a12.641,12.641,0,0,1-2.691,2.117,13.608,13.608,0,0,1-3.184,1.255,19.674,19.674,0,0,1-2.9.517c-.851.1-1.565.112-2.061.142S54.253,30.244,54.253,30.244Z"/><path class="cls-7" d="M25.538,40.8a.734.734,0,0,0,.173.2,1.346,1.346,0,0,0,.577.205,8.332,8.332,0,0,0,.905.067l.514,0a1.955,1.955,0,0,0,.451-.062,5,5,0,0,0,.942-.313l.228-.1.058-.023c0,.005.049-.029,0,.008l.028-.015.112-.062c.144-.084.289-.154.423-.218a5.386,5.386,0,0,1,.94-.362,5.269,5.269,0,0,1-.59.817c-.095.114-.2.236-.318.354l-.088.092-.022.024-.056.043-.054.045a2.535,2.535,0,0,1-.231.168,3.4,3.4,0,0,1-1.161.52,2.906,2.906,0,0,1-.693.049,3.846,3.846,0,0,1-.6-.1,3.088,3.088,0,0,1-1.01-.412,1.2,1.2,0,0,1-.523-.627A.639.639,0,0,1,25.538,40.8Z"/><path class="cls-7" d="M26.94,43.522a1.206,1.206,0,0,0,.342.125,2.935,2.935,0,0,0,.909.028c.785-.084,1.84-.133,2.809-.32a6.158,6.158,0,0,0,.716-.163c.242-.079.446-.132.663-.225a5.887,5.887,0,0,0,1.111-.593,4.629,4.629,0,0,0,.961-.878,1.786,1.786,0,0,1-.08.376,2.812,2.812,0,0,1-.48.914,3.812,3.812,0,0,1-1.118.969,4.328,4.328,0,0,1-.761.356,6.69,6.69,0,0,1-.827.226,8.044,8.044,0,0,1-3.037-.092,2.18,2.18,0,0,1-.957-.422A.917.917,0,0,1,26.94,43.522Z"/><path class="cls-8" d="M44.057,44.163a4.7,4.7,0,0,0,2.754-.549A20.314,20.314,0,0,0,50.9,41.5a6.821,6.821,0,0,0,2.7-3.631"/><path class="cls-7" d="M44.057,44.163a2.763,2.763,0,0,0,.516-.043,4.853,4.853,0,0,0,1.245-.424l1.705-.866c.626-.319,1.295-.636,1.927-1a11.016,11.016,0,0,0,3.116-2.417,7.559,7.559,0,0,0,.778-1.083c.168-.283.252-.459.252-.459a3.177,3.177,0,0,1-.066.529,4.7,4.7,0,0,1-.489,1.335,6.353,6.353,0,0,1-1.236,1.607A9.243,9.243,0,0,1,49.937,42.7a16.063,16.063,0,0,1-2.062.933,15.751,15.751,0,0,1-1.873.6,3.646,3.646,0,0,1-1.431.08A1.941,1.941,0,0,1,44.057,44.163Z"/><path class="cls-7" d="M76.6,73.2a4.34,4.34,0,0,1,.255.537c.142.352.323.862.506,1.482s.381,1.348.58,2.13c.091.393.185.8.28,1.212s.2.854.259,1.289a19.1,19.1,0,0,1,.152,2.542c.006.8-.024,1.555-.064,2.2a16.738,16.738,0,0,1-.272,2.153,16.549,16.549,0,0,1-.417-2.13c-.083-.64-.164-1.387-.212-2.189s-.063-1.654-.106-2.484c-.025-.419-.044-.819-.109-1.241s-.117-.827-.174-1.223c-.111-.795-.214-1.536-.3-2.172s-.172-1.164-.243-1.532A4.314,4.314,0,0,0,76.6,73.2Z"/><path class="cls-8" d="M114.821,73.987c-.019.75-.016,3.431.056,4.178a27.765,27.765,0,0,0,.893,5.471"/><path class="cls-7" d="M114.821,73.987s.115.61.22,1.52c.052.455.116.986.163,1.551.028.28.057.568.087.862.022.267.1.588.131.882.168,1.2.252,2.393.293,3.3l.055,1.535a5.269,5.269,0,0,1-.695-1.409,12.472,12.472,0,0,1-.611-3.33c-.023-.312-.019-.595-.034-.926-.008-.311.014-.608.025-.9.023-.575.079-1.109.127-1.566A14.035,14.035,0,0,1,114.821,73.987Z"/><path class="cls-2" d="M46.6,25.778s4.188-6.41,6.509-7.677,5.533-2.884,7.214-2.813,5.3.078,6.282.867,2.265,1.481,1.772,1.678a26.03,26.03,0,0,1-4.655-.237c-1.423-.122-4.424-.528-6.023.571s-5.756,7.106-5.756,7.106-1.991,1.185-3.5.5A2.426,2.426,0,0,0,46.6,25.778Z"/><path class="cls-7" d="M43.033,31.237s-1.843.78-1.959,1.34S41.1,34,41.68,33.871s.886-.586,1.381-1.252S43.457,31.333,43.033,31.237Z"/><path class="cls-7" d="M41.752,46.5l.239.449a7.48,7.48,0,0,1,.486,1.255,10.125,10.125,0,0,1,.377,1.871,14.433,14.433,0,0,1,.057,2.182,16.863,16.863,0,0,1-.737,3.978,12.82,12.82,0,0,1-.654,1.72s0-.744.09-1.828.226-2.511.3-3.925a30.73,30.73,0,0,0,0-3.894c-.035-.538-.076-.977-.114-1.3Z"/><path class="cls-7" d="M42.693,45.05a6.515,6.515,0,0,1,.656,1.116,11.423,11.423,0,0,1,1.076,5.472,6.637,6.637,0,0,1-.187,1.281,12.334,12.334,0,0,1-.385-1.224c-.2-.732-.414-1.7-.607-2.667s-.351-1.948-.445-2.7A12.739,12.739,0,0,1,42.693,45.05Z"/><path class="cls-7" d="M40.1,45.521a6.158,6.158,0,0,1,.542,1.152,10.587,10.587,0,0,1,.457,5.461,6.208,6.208,0,0,1-.346,1.226,12.371,12.371,0,0,1-.228-1.239c-.107-.736-.208-1.7-.291-2.665s-.136-1.932-.153-2.675S40.1,45.521,40.1,45.521Z"/><path class="cls-9" d="M27.32,47.232s-9.408,14.425-13.171,27.6S8.5,107.442,22.93,113.714s33.463-6.415,30.732-20.07C49.9,74.828,29.829,80.473,26.693,72.947S27.32,47.232,27.32,47.232Z"/><path class="cls-10" d="M27.584,86.548l-1.53,2.067Q24.994,90.1,24.419,90.1a.578.578,0,0,1-.473-.3,4.075,4.075,0,0,1-.422-.93c-.145-.416-.245-.732-.3-.946a4.794,4.794,0,0,0-.267-.846l-.234,1.2q-.11.579-.225,1.063t-.251,1.164c-.089.454-.145.8-.167,1.025-.006.077-.079.159-.218.248a.678.678,0,0,1-.32.133.562.562,0,0,1-.411-.2.594.594,0,0,1-.19-.393,4.5,4.5,0,0,1,.183-1.121q.759-2.784.867-3.5a8.356,8.356,0,0,0,.108-1.2.421.421,0,0,1,.216-.381,1.058,1.058,0,0,1,.564-.133.508.508,0,0,1,.377.248,1.423,1.423,0,0,1,.248.459l0-.009.639,1.787q.381,1.07.51,1.36a23.617,23.617,0,0,0,1.471-1.87q.972-1.328,1.332-1.709c.238-.254.407-.381.5-.381a.913.913,0,0,1,.5.188c.184.126.276.233.276.322q0,.1-.179,1.383-.124.9-.225,2.025t-.1,1.323a2.169,2.169,0,0,0,.063.51,1.653,1.653,0,0,1,.047.382.907.907,0,0,1-.159.62.648.648,0,0,1-.489.165q-.6,0-.6-.905a16.915,16.915,0,0,1,.157-2.088q.156-1.233.285-1.895C27.555,86.719,27.575,86.609,27.584,86.548Z"/><path class="cls-10" d="M35.214,85.909l-1.415.074a11.543,11.543,0,0,0-1.272.131,1.992,1.992,0,0,0-.577.137.6.6,0,0,0-.062.283,7.054,7.054,0,0,1-.165.809,4.35,4.35,0,0,0-.138.721A8.411,8.411,0,0,0,32.43,88a7.071,7.071,0,0,0,.781-.115,4.688,4.688,0,0,1,1.025-.161q.725,0,.725.432a.471.471,0,0,1-.2.439,1.6,1.6,0,0,1-.634.167c-.177.019-.377.046-.6.083-.117.018-.262.037-.437.055a10.853,10.853,0,0,0-1.5.23h0a.18.18,0,0,0-.117.106,4.853,4.853,0,0,0-.141.682,5.958,5.958,0,0,0-.1.838.185.185,0,0,0,.211.17q.221,0,1.16-.122t1.164-.168a5.261,5.261,0,0,1,.822-.132q.583.081.584.542a.387.387,0,0,1-.138.321,3.725,3.725,0,0,1-1.273.257c-.419.025-.928.077-1.524.156a7.213,7.213,0,0,1-1.507.17.625.625,0,0,1-.735-.652l-.014-.151a1.281,1.281,0,0,1,.078-.281,18.791,18.791,0,0,0,.45-2.512q.267-1.949.267-2.169a.145.145,0,0,0-.028-.036.814.814,0,0,1-.108-.177.665.665,0,0,1-.075-.306.439.439,0,0,1,.017-.133c.013-.064.079-.129.2-.193a.71.71,0,0,1,.335-.1,3.593,3.593,0,0,1,.436.027q.381,0,2.481-.275c.465-.062.709-.092.73-.092l.065,0q.825-.058.826.533a.458.458,0,0,1-.149.273A.625.625,0,0,1,35.214,85.909Zm-.294-2.375a.343.343,0,0,1-.055.188.5.5,0,0,1-.152.15.846.846,0,0,1-.229.1,1.113,1.113,0,0,1-.29.036h-.887c-.046,0-.1,0-.153.007a1.048,1.048,0,0,0-.233.058,1.737,1.737,0,0,1-.259.064,1.313,1.313,0,0,1-.191.018.483.483,0,0,1-.2-.041.5.5,0,0,1-.158-.108.461.461,0,0,1-.1-.154.454.454,0,0,1-.037-.174.325.325,0,0,1,.12-.276.829.829,0,0,1,.33-.138c.074-.021.15-.04.231-.055s.166-.028.261-.037.2-.016.32-.02.251-.009.4-.012l.326-.007c.08,0,.137,0,.17-.007s.058-.01.081-.013l.07-.01a.663.663,0,0,1,.079,0h.1a.452.452,0,0,1,.338.122A.426.426,0,0,1,34.92,83.534Z"/><path class="cls-10" d="M36.735,91.486a.633.633,0,0,1-.407-.108c-.086-.072-.13-.261-.13-.568a2.575,2.575,0,0,1,.022-.392c.016-.091.09-.162.224-.214a1.647,1.647,0,0,1,.576-.078.625.625,0,0,1,.427.131.383.383,0,0,1,.147.287.8.8,0,0,1-.08.395,1.39,1.39,0,0,1-.35.343A.8.8,0,0,1,36.735,91.486Z"/><path class="cls-10" d="M39.077,91.486a.631.631,0,0,1-.406-.108q-.13-.108-.131-.568a2.55,2.55,0,0,1,.023-.392c.015-.091.09-.162.223-.214a1.658,1.658,0,0,1,.577-.078.621.621,0,0,1,.426.131.381.381,0,0,1,.148.287.81.81,0,0,1-.08.395,1.39,1.39,0,0,1-.35.343A.805.805,0,0,1,39.077,91.486Z"/><path class="cls-10" d="M41.42,91.486a.631.631,0,0,1-.406-.108q-.131-.108-.131-.568a2.55,2.55,0,0,1,.023-.392c.015-.091.089-.162.223-.214a1.651,1.651,0,0,1,.576-.078.623.623,0,0,1,.427.131.381.381,0,0,1,.148.287.81.81,0,0,1-.08.395,1.39,1.39,0,0,1-.35.343A.805.805,0,0,1,41.42,91.486Z"/><path class="cls-10" d="M27.584,97.837,26.054,99.9q-1.06,1.484-1.635,1.484a.58.58,0,0,1-.473-.305,4.117,4.117,0,0,1-.422-.93c-.145-.417-.245-.732-.3-.947a4.8,4.8,0,0,0-.267-.845l-.234,1.194q-.11.579-.225,1.063t-.251,1.165q-.133.681-.167,1.024c-.006.077-.079.16-.218.248a.682.682,0,0,1-.32.134.564.564,0,0,1-.411-.2.591.591,0,0,1-.19-.392,4.493,4.493,0,0,1,.183-1.121q.759-2.784.867-3.505a8.38,8.38,0,0,0,.108-1.2.419.419,0,0,1,.216-.381,1.058,1.058,0,0,1,.564-.134.508.508,0,0,1,.377.248,1.427,1.427,0,0,1,.248.46l0-.01.639,1.788q.381,1.069.51,1.359a23.552,23.552,0,0,0,1.471-1.869q.972-1.327,1.332-1.709c.238-.255.407-.382.5-.382a.907.907,0,0,1,.5.189c.184.125.276.233.276.321q0,.1-.179,1.383-.124.906-.225,2.026t-.1,1.323a2.182,2.182,0,0,0,.063.51,1.652,1.652,0,0,1,.047.381.9.9,0,0,1-.159.62.648.648,0,0,1-.489.165q-.6,0-.6-.9a16.9,16.9,0,0,1,.157-2.088q.156-1.233.285-1.895C27.555,98.009,27.575,97.9,27.584,97.837Z"/><path class="cls-10" d="M35.214,97.2l-1.415.073a12.053,12.053,0,0,0-1.272.131,2.011,2.011,0,0,0-.577.138.594.594,0,0,0-.062.283,7.05,7.05,0,0,1-.165.808,4.35,4.35,0,0,0-.138.721,8.411,8.411,0,0,0,.845-.06,7.135,7.135,0,0,0,.781-.114,4.688,4.688,0,0,1,1.025-.161q.725,0,.725.432a.468.468,0,0,1-.2.438,1.6,1.6,0,0,1-.634.168c-.177.019-.377.046-.6.082-.117.019-.262.038-.437.056a10.685,10.685,0,0,0-1.5.23h0a.181.181,0,0,0-.117.1,4.892,4.892,0,0,0-.141.682,5.952,5.952,0,0,0-.1.839.185.185,0,0,0,.211.17q.221,0,1.16-.122t1.164-.168a5.31,5.31,0,0,1,.822-.133q.583.083.584.542a.385.385,0,0,1-.138.321,3.747,3.747,0,0,1-1.273.258c-.419.024-.928.076-1.524.156a7.281,7.281,0,0,1-1.507.17.627.627,0,0,1-.735-.652l-.014-.152a1.265,1.265,0,0,1,.078-.28,18.784,18.784,0,0,0,.45-2.513q.267-1.949.267-2.168a.16.16,0,0,0-.028-.037.761.761,0,0,1-.108-.177.658.658,0,0,1-.075-.305.446.446,0,0,1,.017-.134c.013-.064.079-.128.2-.192a.7.7,0,0,1,.335-.1,3.4,3.4,0,0,1,.436.028q.381,0,2.481-.276c.465-.061.709-.092.73-.092l.065,0q.825-.06.826.532A.459.459,0,0,1,35.5,97,.633.633,0,0,1,35.214,97.2Zm-.294-2.375a.343.343,0,0,1-.055.188.492.492,0,0,1-.152.149.788.788,0,0,1-.229.1,1.112,1.112,0,0,1-.29.037h-.887c-.046,0-.1,0-.153.007a.982.982,0,0,0-.233.057,1.749,1.749,0,0,1-.259.065,1.313,1.313,0,0,1-.191.018.483.483,0,0,1-.2-.041.514.514,0,0,1-.158-.108.471.471,0,0,1-.1-.154.458.458,0,0,1-.037-.175.324.324,0,0,1,.12-.275.8.8,0,0,1,.33-.138c.074-.021.15-.04.231-.056s.166-.027.261-.036.2-.016.32-.021.251-.008.4-.011l.326-.007c.08,0,.137,0,.17-.007l.081-.014.07-.009a.656.656,0,0,1,.079,0h.1a.456.456,0,0,1,.338.122A.427.427,0,0,1,34.92,94.824Z"/><path class="cls-10" d="M36.735,102.775a.627.627,0,0,1-.407-.108c-.086-.071-.13-.26-.13-.567a2.6,2.6,0,0,1,.022-.393c.016-.09.09-.161.224-.213a1.647,1.647,0,0,1,.576-.078.62.62,0,0,1,.427.131.381.381,0,0,1,.147.287.8.8,0,0,1-.08.395,1.373,1.373,0,0,1-.35.342A.8.8,0,0,1,36.735,102.775Z"/><path class="cls-10" d="M39.077,102.775a.626.626,0,0,1-.406-.108q-.13-.106-.131-.567a2.574,2.574,0,0,1,.023-.393c.015-.09.09-.161.223-.213a1.658,1.658,0,0,1,.577-.078.616.616,0,0,1,.426.131.379.379,0,0,1,.148.287.813.813,0,0,1-.08.395,1.373,1.373,0,0,1-.35.342A.805.805,0,0,1,39.077,102.775Z"/><path class="cls-10" d="M41.42,102.775a.626.626,0,0,1-.406-.108q-.131-.106-.131-.567a2.574,2.574,0,0,1,.023-.393c.015-.09.089-.161.223-.213a1.651,1.651,0,0,1,.576-.078.618.618,0,0,1,.427.131.379.379,0,0,1,.148.287.813.813,0,0,1-.08.395,1.373,1.373,0,0,1-.35.342A.805.805,0,0,1,41.42,102.775Z"/></svg>