<svg id="word" xmlns="http://www.w3.org/2000/svg" viewBox="0 0 160 160"><defs><style>.cls-1{fill:#9b4b9c;}.cls-2,.cls-5{fill:none;}.cls-2,.cls-3,.cls-6{stroke:#9b4d9c;}.cls-2,.cls-3,.cls-4,.cls-5,.cls-6{stroke-miterlimit:10;}.cls-2{stroke-width:0.782px;}.cls-3{fill:#dacfe3;}.cls-3,.cls-4,.cls-6{stroke-width:0.897px;}.cls-4{fill:#d5ccb1;}.cls-4,.cls-5{stroke:#9b4b9c;}.cls-5{stroke-linecap:round;stroke-width:1.793px;}.cls-6{fill:#dbdcee;}.cls-7{fill:#8789c2;}</style></defs><path class="cls-1" d="M133.374,8.4s-3.029-3.233-1.257-4.1,2.551,3.386,2.551,3.386,1.093-4.523,2.6-3.843c2.776,1.248-1.762,4.55-1.762,4.55s4.175-2.272,4.475.021-4.2.467-4.2.467,4.573,1.619,4.114,3.564-4.53-2.28-4.53-2.28,2.976,4.458.746,4.6c-2,.129-1.79-4.25-1.79-4.25s-1.165,4.732-3.088,3.683c-2.255-1.231,2.175-4.211,2.175-4.211s-5.2,1.095-4.6-1.49C129.3,6.367,133.374,8.4,133.374,8.4Z"/><path class="cls-1" d="M29.763,7.521S30.08,3.1,31.921,3.814s-.753,4.171-.753,4.171,4.062-2.268,4.589-.7c.968,2.885-4.537,1.8-4.537,1.8s4.5,1.523,3.023,3.3-3.2-2.771-3.2-2.771,1.916,4.457.178,5.441-1.4-4.875-1.4-4.875-1.253,5.212-2.873,3.673c-1.451-1.379,1.905-4.2,1.905-4.2s-4.265,2.358-4.8.233c-.628-2.491,4.568-1.261,4.568-1.261s-4.332-3.073-2.029-4.389C28.492,3.149,29.763,7.521,29.763,7.521Z"/><path class="cls-2" d="M32.759,10.218C50.136,20.7,78.6,23.1,95.673,20.1c24.979-4.382,39.888-11.383,39.888-11.383"/><path class="cls-3" d="M64.269,50.74a31.346,31.346,0,0,1,11.279-2.692c6.23-.234,15.992,1.346,15.992,1.346L88.229,63.557l-7.99,18.8Z"/><path class="cls-4" d="M46.53,57.815a169.4,169.4,0,0,0,19.757-7.361c8.495-4,8.311-6.038,14.227-6.57s8.547,2.61,11.778,4.376,21.782,11.115,23.732,12.7,5.6,5.961,4.857,7.79-10.453-1.7-13.89-3.745-11.4-8.23-25.437-7.554S54,64.489,47.081,63.936,39.908,59.972,46.53,57.815Z"/><path class="cls-5" d="M75.185,27.763s-4.426-6.711,3.492-8.44c8.14-1.778,9.28,4.219,8.885,7.389s-5.83,7.659-6.435,10.384a60.611,60.611,0,0,0-.917,6.815"/><path class="cls-3" d="M108.915,120.556h-.006c-.011-5.752.032-22.778.88-25.576,1.024-3.376-1.221-10.526,0-14.1S107,52.186,106.2,51.66s-13.672-1.973-13.672-1.973-3.894,5.175-4.956,8.947-7.33,14.7-7.33,14.7L65.274,51.886C61.657,50.1,51.19,54.134,51.19,54.134l1.427,29.789s1.864,18.6,1.813,21.781c-.04,2.466.282,10.7.428,14.275l-3.423,10.179s9.241,5.85,15.872,11,22.718,5.149,27.429,2.574,7.015-6.2,10.192-8.017a29.208,29.208,0,0,0,5.521-4.152Z"/><path class="cls-3" d="M110.065,52.688s10.378,4.359,13.308,8.927,4.54,15.292,4.145,18.072,1.777,5.561,1.777,5.561-3.553-1.39-5.132,4.568-7.7,12.909-7.7,12.909L113.9,97.76l-4.109-4.369L107.14,62.012,106.2,51.66Z"/><path class="cls-3" d="M49.349,54.134S36.32,63.2,33.162,70.552A60.385,60.385,0,0,0,29.214,86.44a39.574,39.574,0,0,1,4.146,3.773,69.538,69.538,0,0,0,6.8,5.958A33.747,33.747,0,0,1,43.3,99.15s1.448.2,3.453-3.376a50.256,50.256,0,0,1,6.481-8.138s4.551-27.777,3.529-31.383S52.88,51.481,49.349,54.134Z"/><path class="cls-6" d="M28.622,84.156a44.63,44.63,0,0,1,5.922,4.7C38.1,92.1,46.262,96.585,46.262,96.585l-3.625,5.644s-2.862.893-6.909-2.383-9.074-10.03-9.074-10.03Z"/><path class="cls-6" d="M115.181,101.931S119.425,96.072,121,92.4s6.813-9.993,6.813-9.993,3.057,3.042,3.452,4.333-.79,2.78-1.974,4.667-8.389,13.03-10.067,13.516-2.764.883-2.764.883Z"/><path class="cls-7" d="M72.236,81.409c-.057-.17-.5-.042-.7.026a.715.715,0,0,0-.4.395,2.5,2.5,0,0,0-.17.619.846.846,0,0,0,.1.75.927.927,0,0,0,.649.322c.286.039.822.023.941-.2A.466.466,0,0,0,72.7,83.1l0-1.151a.352.352,0,0,0-.072-.256c-.094-.1-.234-.286-.384-.281"/><path class="cls-7" d="M66.989,78.923a.927.927,0,0,0-1.275-.043,1,1,0,0,0-.262.658,1.23,1.23,0,0,0,.573,1.141.993.993,0,0,0,1.27-.221,1.3,1.3,0,0,0,.075-.93.766.766,0,0,0-.289-.574"/><path class="cls-7" d="M65.5,85.518a.568.568,0,0,0-.7-.1,1.1,1.1,0,0,0-.456.559c-.178.41-.285.415-.258.854a3.618,3.618,0,0,0,.076.612c.039.051.119.058.17.1.217.179.221.612.883.1.075-.057.2-.024.278-.077a.565.565,0,0,0,.179-.5l0-1.4"/><path class="cls-7" d="M72.785,89.674a1.22,1.22,0,0,0-1.07,1.238,1.264,1.264,0,0,0,.522,1.073.98.98,0,0,0,1.209-.084,1.086,1.086,0,0,0,.228-.7,1.862,1.862,0,0,0-.142-.882,1.1,1.1,0,0,0-.689-.6"/><path class="cls-7" d="M70.956,73.43c-.3.045-.428.343-.506.595a2.133,2.133,0,0,0-.137.764.8.8,0,0,0,.4.66,1.591,1.591,0,0,0,.684.125.507.507,0,0,0,.267-.038.377.377,0,0,0,.145-.183,1.738,1.738,0,0,0,.17-1.144,1.158,1.158,0,0,0-.841-.839"/><path class="cls-7" d="M58.766,80.926a2.538,2.538,0,0,0-.116.853.924.924,0,0,0,.438.731,1.676,1.676,0,0,0,.893.12.463.463,0,0,0,.214-.046c.123-.074.127-.232.134-.365a6.825,6.825,0,0,1,.165-.89,1.389,1.389,0,0,0-.074-.887.781.781,0,0,0-.8-.421c-.407.075-.6.494-.722.855"/><path class="cls-7" d="M62.362,71.6c-.009.388-.3.772-.165,1.141a1.077,1.077,0,0,0,.653.537.924.924,0,0,0,.447.089.794.794,0,0,0,.549-.42,1.4,1.4,0,0,0,.207-1.044,1.018,1.018,0,0,0-.771-.749.808.808,0,0,0-.929.492"/><path class="cls-7" d="M79.093,82.64c-.531.323-.237.72-.326.962a.86.86,0,0,0,.039.743,1.451,1.451,0,0,0,1.123.5.263.263,0,0,0,.206-.036,2.52,2.52,0,0,0,.1-.49l.095-.708a.964.964,0,0,0-.037-.566c-.187-.378-.746-.42-1.2-.407"/><path class="cls-7" d="M79.4,91.506a.74.74,0,0,0-.824.149,1.052,1.052,0,0,0-.281.766,1.187,1.187,0,0,0,.416.942,1.083,1.083,0,0,0,.786.214.548.548,0,0,0,.411-.214.581.581,0,0,0,.068-.211,1.451,1.451,0,0,0-.443-1.552"/><path class="cls-7" d="M80.174,75.969c-.3.045-.428.343-.506.6a2.129,2.129,0,0,0-.137.764.8.8,0,0,0,.4.659,1.577,1.577,0,0,0,.684.126.517.517,0,0,0,.267-.038.38.38,0,0,0,.145-.184,1.735,1.735,0,0,0,.17-1.143,1.157,1.157,0,0,0-.841-.84"/><path class="cls-7" d="M61.1,91.109c-.3.045-.429.344-.507.6a2.155,2.155,0,0,0-.137.764.8.8,0,0,0,.4.659,1.574,1.574,0,0,0,.684.126.519.519,0,0,0,.267-.038.374.374,0,0,0,.144-.183,1.744,1.744,0,0,0,.171-1.144,1.159,1.159,0,0,0-.842-.839"/><path class="cls-7" d="M97.343,99.406c-.057-.17-.5-.042-.7.026a.712.712,0,0,0-.4.395,2.468,2.468,0,0,0-.171.619.845.845,0,0,0,.1.751.93.93,0,0,0,.648.321c.286.039.823.023.941-.2a.453.453,0,0,0,.038-.227l0-1.151a.349.349,0,0,0-.072-.256c-.093-.1-.234-.286-.383-.282"/><path class="cls-7" d="M92.1,96.92a.927.927,0,0,0-1.275-.043,1,1,0,0,0-.262.658,1.233,1.233,0,0,0,.574,1.141.991.991,0,0,0,1.269-.221,1.3,1.3,0,0,0,.076-.929.768.768,0,0,0-.29-.575"/><path class="cls-7" d="M90.606,103.515a.567.567,0,0,0-.7-.1,1.092,1.092,0,0,0-.456.56c-.179.409-.286.414-.259.854a3.618,3.618,0,0,0,.076.612c.04.05.12.057.17.1.217.179.221.612.883.1.075-.058.2-.025.278-.077a.567.567,0,0,0,.179-.506v-1.4"/><path class="cls-7" d="M97.891,107.671a1.22,1.22,0,0,0-1.07,1.238,1.265,1.265,0,0,0,.522,1.073.982.982,0,0,0,1.21-.083,1.094,1.094,0,0,0,.227-.7,1.846,1.846,0,0,0-.142-.881,1.1,1.1,0,0,0-.689-.6"/><path class="cls-7" d="M96.063,91.427c-.3.045-.429.343-.507.6a2.128,2.128,0,0,0-.137.763.8.8,0,0,0,.4.66,1.6,1.6,0,0,0,.685.126.511.511,0,0,0,.267-.039.366.366,0,0,0,.144-.183,1.742,1.742,0,0,0,.171-1.143,1.159,1.159,0,0,0-.842-.84"/><path class="cls-7" d="M83.873,98.923a2.539,2.539,0,0,0-.117.853.924.924,0,0,0,.438.731,1.669,1.669,0,0,0,.894.12.453.453,0,0,0,.214-.046c.122-.073.126-.231.133-.365a7,7,0,0,1,.165-.89,1.375,1.375,0,0,0-.074-.887.782.782,0,0,0-.794-.421c-.407.075-.6.494-.722.855"/><path class="cls-7" d="M87.468,89.6c-.009.388-.3.772-.165,1.141a1.077,1.077,0,0,0,.653.537.929.929,0,0,0,.447.089.794.794,0,0,0,.549-.42,1.4,1.4,0,0,0,.207-1.044,1.019,1.019,0,0,0-.771-.749.807.807,0,0,0-.928.492"/><path class="cls-7" d="M104.2,100.637c-.531.323-.238.721-.326.963a.858.858,0,0,0,.038.742,1.457,1.457,0,0,0,1.124.5.265.265,0,0,0,.2-.037,2.51,2.51,0,0,0,.1-.489l.095-.709a.972.972,0,0,0-.036-.566c-.187-.378-.747-.42-1.2-.407"/><path class="cls-7" d="M104.5,109.5a.74.74,0,0,0-.824.149,1.053,1.053,0,0,0-.281.767,1.185,1.185,0,0,0,.416.941,1.084,1.084,0,0,0,.787.214.554.554,0,0,0,.411-.213.614.614,0,0,0,.068-.211,1.455,1.455,0,0,0-.443-1.553"/><path class="cls-7" d="M105.281,93.966c-.3.045-.429.343-.507.6a2.129,2.129,0,0,0-.137.764.8.8,0,0,0,.4.659,1.581,1.581,0,0,0,.685.126.519.519,0,0,0,.267-.038.374.374,0,0,0,.144-.183,1.744,1.744,0,0,0,.171-1.144,1.159,1.159,0,0,0-.842-.839"/><path class="cls-7" d="M86.206,109.107c-.3.045-.429.343-.506.6a2.124,2.124,0,0,0-.137.763.8.8,0,0,0,.4.66,1.6,1.6,0,0,0,.684.126.518.518,0,0,0,.267-.039.377.377,0,0,0,.145-.183,1.744,1.744,0,0,0,.17-1.144,1.158,1.158,0,0,0-.841-.839"/><path class="cls-7" d="M112.375,77.694c-.057-.17-.5-.042-.7.026a.718.718,0,0,0-.4.395,2.5,2.5,0,0,0-.17.62.846.846,0,0,0,.1.75.928.928,0,0,0,.649.321c.286.04.822.023.941-.2a.453.453,0,0,0,.038-.227l0-1.151a.349.349,0,0,0-.072-.256c-.093-.1-.234-.286-.384-.282"/><path class="cls-7" d="M107.128,75.209a.927.927,0,0,0-1.275-.044,1,1,0,0,0-.262.658,1.235,1.235,0,0,0,.573,1.142.993.993,0,0,0,1.27-.222,1.294,1.294,0,0,0,.075-.929.76.76,0,0,0-.289-.574"/><path class="cls-7" d="M105.639,81.8a.568.568,0,0,0-.7-.1,1.1,1.1,0,0,0-.455.56c-.179.409-.286.414-.259.854a3.618,3.618,0,0,0,.076.612c.039.051.119.057.17.1.217.179.221.613.883.105.075-.058.2-.025.278-.077a.567.567,0,0,0,.179-.506l0-1.4"/><path class="cls-7" d="M112.924,85.959a1.221,1.221,0,0,0-1.07,1.239,1.268,1.268,0,0,0,.522,1.073.981.981,0,0,0,1.209-.084,1.089,1.089,0,0,0,.228-.7,1.858,1.858,0,0,0-.142-.881,1.109,1.109,0,0,0-.689-.6"/><path class="cls-7" d="M111.1,69.715c-.3.045-.429.343-.507.6a2.128,2.128,0,0,0-.137.763.8.8,0,0,0,.4.66,1.579,1.579,0,0,0,.684.126.517.517,0,0,0,.267-.038.38.38,0,0,0,.145-.184,1.735,1.735,0,0,0,.17-1.143,1.157,1.157,0,0,0-.841-.84"/><path class="cls-7" d="M98.905,77.211a2.567,2.567,0,0,0-.116.853.924.924,0,0,0,.438.731,1.666,1.666,0,0,0,.893.12.454.454,0,0,0,.215-.045c.122-.074.126-.232.133-.366a6.856,6.856,0,0,1,.165-.89,1.378,1.378,0,0,0-.074-.886.781.781,0,0,0-.794-.422c-.407.076-.6.494-.723.855"/><path class="cls-7" d="M102.5,67.884c-.009.389-.3.772-.165,1.141a1.074,1.074,0,0,0,.653.537.939.939,0,0,0,.447.09.8.8,0,0,0,.549-.42,1.4,1.4,0,0,0,.207-1.044,1.021,1.021,0,0,0-.771-.75.81.81,0,0,0-.929.492"/><path class="cls-7" d="M119.233,78.926c-.532.322-.238.72-.327.962a.858.858,0,0,0,.039.742,1.455,1.455,0,0,0,1.124.5.265.265,0,0,0,.2-.036,2.535,2.535,0,0,0,.1-.49l.095-.709a.964.964,0,0,0-.037-.566c-.186-.377-.746-.42-1.2-.406"/><path class="cls-7" d="M118.039,90.045a.738.738,0,0,0-.824.149,1.051,1.051,0,0,0-.281.766,1.187,1.187,0,0,0,.416.942,1.091,1.091,0,0,0,.786.214.555.555,0,0,0,.411-.214.581.581,0,0,0,.068-.211,1.452,1.452,0,0,0-.443-1.552"/><path class="cls-7" d="M120.314,72.255c-.3.045-.429.343-.507.595a2.133,2.133,0,0,0-.137.764.8.8,0,0,0,.4.66,1.594,1.594,0,0,0,.684.125.512.512,0,0,0,.268-.038.375.375,0,0,0,.144-.183,1.744,1.744,0,0,0,.171-1.144,1.159,1.159,0,0,0-.842-.839"/><path class="cls-7" d="M101.239,87.4c-.3.045-.429.343-.507.6a2.15,2.15,0,0,0-.137.763.8.8,0,0,0,.4.66,1.574,1.574,0,0,0,.684.126.508.508,0,0,0,.267-.039.373.373,0,0,0,.145-.183,1.741,1.741,0,0,0,.17-1.143,1.159,1.159,0,0,0-.842-.84"/><path class="cls-7" d="M75.973,112.544c-.057-.17-.5-.042-.7.026a.715.715,0,0,0-.4.4,2.465,2.465,0,0,0-.17.619.848.848,0,0,0,.1.751.93.93,0,0,0,.649.321c.286.04.822.023.941-.2a.464.464,0,0,0,.038-.227l-.005-1.151a.344.344,0,0,0-.071-.256c-.094-.1-.235-.286-.384-.282"/><path class="cls-7" d="M70.726,110.059a.926.926,0,0,0-1.275-.044,1.007,1.007,0,0,0-.263.658,1.236,1.236,0,0,0,.574,1.142.993.993,0,0,0,1.27-.222,1.294,1.294,0,0,0,.075-.929.763.763,0,0,0-.289-.574"/><path class="cls-7" d="M74.693,104.565c-.3.045-.429.343-.506.6a2.128,2.128,0,0,0-.137.763.793.793,0,0,0,.4.66,1.574,1.574,0,0,0,.684.126.508.508,0,0,0,.267-.039.373.373,0,0,0,.145-.183,1.741,1.741,0,0,0,.17-1.143,1.159,1.159,0,0,0-.841-.84"/><path class="cls-7" d="M62.5,112.061a2.538,2.538,0,0,0-.116.853.922.922,0,0,0,.438.731,1.665,1.665,0,0,0,.893.12.441.441,0,0,0,.214-.046c.123-.073.127-.231.134-.365a6.993,6.993,0,0,1,.164-.89,1.378,1.378,0,0,0-.073-.886.782.782,0,0,0-.795-.422c-.407.076-.6.494-.722.855"/><path class="cls-7" d="M66.1,102.734c-.008.388-.3.772-.164,1.141a1.077,1.077,0,0,0,.653.537.935.935,0,0,0,.446.09.8.8,0,0,0,.55-.421,1.4,1.4,0,0,0,.207-1.044,1.021,1.021,0,0,0-.771-.749.809.809,0,0,0-.929.492"/><path class="cls-7" d="M81.029,105.27c-.3.045-.429.343-.507.6a2.129,2.129,0,0,0-.137.764.8.8,0,0,0,.4.659,1.579,1.579,0,0,0,.684.126.523.523,0,0,0,.268-.038.384.384,0,0,0,.144-.184,1.742,1.742,0,0,0,.171-1.143,1.162,1.162,0,0,0-.842-.84"/><path class="cls-7" d="M60.69,101.61a1.22,1.22,0,0,0-1.07,1.238,1.264,1.264,0,0,0,.522,1.073.982.982,0,0,0,1.209-.084,1.089,1.089,0,0,0,.228-.7,1.858,1.858,0,0,0-.142-.881,1.108,1.108,0,0,0-.69-.6"/><path class="cls-7" d="M93.014,113.629c-.008.388-.3.772-.164,1.141a1.072,1.072,0,0,0,.653.537.923.923,0,0,0,.446.089.792.792,0,0,0,.549-.42,1.4,1.4,0,0,0,.207-1.044,1.018,1.018,0,0,0-.771-.749.806.806,0,0,0-.928.492"/><path class="cls-7" d="M68.909,95.015a.569.569,0,0,0-.7-.1,1.106,1.106,0,0,0-.456.56c-.178.409-.285.414-.258.854a3.618,3.618,0,0,0,.076.612c.039.051.119.057.17.1.217.179.221.613.883.1.075-.058.2-.025.278-.077a.566.566,0,0,0,.179-.506l0-1.4"/><path class="cls-7" d="M77.583,98.9a1.219,1.219,0,0,0-1.069,1.238,1.266,1.266,0,0,0,.522,1.074.982.982,0,0,0,1.209-.084,1.089,1.089,0,0,0,.228-.7,1.859,1.859,0,0,0-.143-.881,1.1,1.1,0,0,0-.689-.6"/><path class="cls-7" d="M50.755,64.12c-.057-.17-.5-.042-.7.026a.715.715,0,0,0-.4.395,2.5,2.5,0,0,0-.171.619.849.849,0,0,0,.1.75.927.927,0,0,0,.648.322c.286.039.823.023.941-.2a.456.456,0,0,0,.039-.228l-.005-1.151a.351.351,0,0,0-.071-.256c-.094-.1-.235-.286-.384-.281"/><path class="cls-7" d="M45.508,61.634a.928.928,0,0,0-1.276-.043,1,1,0,0,0-.262.658,1.233,1.233,0,0,0,.574,1.141.993.993,0,0,0,1.27-.221,1.3,1.3,0,0,0,.075-.93.764.764,0,0,0-.29-.574"/><path class="cls-7" d="M44.019,68.229a.569.569,0,0,0-.7-.1,1.1,1.1,0,0,0-.456.559c-.179.41-.285.415-.258.854a3.519,3.519,0,0,0,.075.612c.04.051.12.058.17.1.217.179.221.612.884.1.075-.058.2-.025.278-.078a.562.562,0,0,0,.178-.505v-1.4"/><path class="cls-7" d="M51.3,72.385a1.218,1.218,0,0,0-1.069,1.238,1.262,1.262,0,0,0,.522,1.073.979.979,0,0,0,1.209-.084,1.092,1.092,0,0,0,.228-.7,1.863,1.863,0,0,0-.143-.882,1.1,1.1,0,0,0-.689-.6"/><path class="cls-7" d="M53.69,57.244c-.3.045-.429.343-.507.595a2.133,2.133,0,0,0-.137.764.8.8,0,0,0,.4.66,1.609,1.609,0,0,0,.684.126.518.518,0,0,0,.267-.039.377.377,0,0,0,.145-.183,1.738,1.738,0,0,0,.17-1.144,1.156,1.156,0,0,0-.841-.839"/><path class="cls-7" d="M50.393,81.962a2.547,2.547,0,0,0-.116.854.918.918,0,0,0,.437.73,1.669,1.669,0,0,0,.894.121.466.466,0,0,0,.214-.046c.122-.074.127-.232.133-.365a7,7,0,0,1,.165-.89,1.375,1.375,0,0,0-.074-.887.779.779,0,0,0-.794-.421c-.407.075-.6.494-.722.855"/><path class="cls-7" d="M45.176,75.641c-.008.388-.3.772-.164,1.141a1.072,1.072,0,0,0,.653.537.923.923,0,0,0,.446.089.792.792,0,0,0,.549-.42,1.4,1.4,0,0,0,.207-1.044,1.018,1.018,0,0,0-.771-.749.806.806,0,0,0-.928.492"/><path class="cls-7" d="M60.019,65.144c-.531.322-.238.72-.326.962a.857.857,0,0,0,.038.742,1.457,1.457,0,0,0,1.124.5.267.267,0,0,0,.206-.036,2.611,2.611,0,0,0,.1-.49l.095-.709a.968.968,0,0,0-.036-.565c-.187-.378-.747-.421-1.2-.407"/><path class="cls-7" d="M57.913,74.217a.74.74,0,0,0-.824.149,1.056,1.056,0,0,0-.281.766,1.188,1.188,0,0,0,.417.942,1.082,1.082,0,0,0,.786.214.552.552,0,0,0,.411-.214.581.581,0,0,0,.068-.211,1.454,1.454,0,0,0-.443-1.552"/><path class="cls-7" d="M61.1,53.609c-.3.045-.429.343-.507.595a2.155,2.155,0,0,0-.137.764.8.8,0,0,0,.4.66,1.588,1.588,0,0,0,.684.125.509.509,0,0,0,.267-.038.37.37,0,0,0,.144-.183,1.744,1.744,0,0,0,.171-1.144,1.159,1.159,0,0,0-.842-.839"/><path class="cls-7" d="M39.618,73.821c-.3.045-.428.343-.506.595a2.133,2.133,0,0,0-.137.764.8.8,0,0,0,.4.659,1.577,1.577,0,0,0,.684.126.517.517,0,0,0,.267-.038.382.382,0,0,0,.145-.183,1.738,1.738,0,0,0,.17-1.144,1.156,1.156,0,0,0-.841-.839"/><path class="cls-7" d="M106.238,115.484c-.057-.17-.5-.042-.7.026a.718.718,0,0,0-.4.395,2.463,2.463,0,0,0-.171.62.849.849,0,0,0,.1.75.926.926,0,0,0,.648.321c.286.04.823.023.941-.2a.459.459,0,0,0,.039-.228l0-1.151a.347.347,0,0,0-.072-.256c-.093-.1-.234-.286-.383-.282"/><path class="cls-7" d="M121.931,62.717a.928.928,0,0,0-1.276-.043,1,1,0,0,0-.262.658,1.233,1.233,0,0,0,.574,1.141.993.993,0,0,0,1.27-.221,1.3,1.3,0,0,0,.075-.93.764.764,0,0,0-.29-.574"/><path class="cls-7" d="M111.687,54.658a.568.568,0,0,0-.7-.1,1.1,1.1,0,0,0-.455.56c-.179.409-.286.414-.259.854a3.618,3.618,0,0,0,.076.612c.04.051.119.058.17.1.217.18.221.613.883.1.075-.057.2-.025.278-.077a.566.566,0,0,0,.179-.506V54.8"/><path class="cls-7" d="M123.352,82.506a1.218,1.218,0,0,0-1.069,1.238,1.262,1.262,0,0,0,.522,1.073.982.982,0,0,0,1.209-.084,1.1,1.1,0,0,0,.228-.7,1.859,1.859,0,0,0-.143-.881,1.1,1.1,0,0,0-.689-.6"/><path class="cls-7" d="M115.765,58.68c-.3.045-.429.343-.507.6a2.151,2.151,0,0,0-.137.764.8.8,0,0,0,.4.659,1.574,1.574,0,0,0,.684.126.519.519,0,0,0,.267-.038.372.372,0,0,0,.144-.184,1.742,1.742,0,0,0,.171-1.143,1.16,1.16,0,0,0-.842-.84"/><path class="cls-7" d="M123.051,68.14a2.548,2.548,0,0,0-.117.854.921.921,0,0,0,.438.73,1.669,1.669,0,0,0,.894.121.466.466,0,0,0,.214-.046c.122-.074.126-.232.133-.365a6.825,6.825,0,0,1,.165-.89,1.375,1.375,0,0,0-.074-.887.781.781,0,0,0-.794-.421c-.407.075-.6.494-.722.855"/><path class="cls-7" d="M115.212,64.478c-.009.388-.3.772-.165,1.14a1.071,1.071,0,0,0,.653.537.925.925,0,0,0,.447.09.794.794,0,0,0,.549-.42,1.4,1.4,0,0,0,.207-1.044,1.018,1.018,0,0,0-.771-.749.808.808,0,0,0-.929.492"/><path class="cls-7" d="M42.844,80.624a.74.74,0,0,0-.824.15,1.051,1.051,0,0,0-.281.766,1.187,1.187,0,0,0,.416.942,1.094,1.094,0,0,0,.787.214.551.551,0,0,0,.41-.214.581.581,0,0,0,.068-.211,1.45,1.45,0,0,0-.443-1.552"/><path class="cls-7" d="M125.5,76.566c-.3.045-.429.344-.507.6a2.129,2.129,0,0,0-.137.764.8.8,0,0,0,.4.659,1.581,1.581,0,0,0,.685.126.519.519,0,0,0,.267-.038.374.374,0,0,0,.144-.183,1.744,1.744,0,0,0,.171-1.144,1.159,1.159,0,0,0-.842-.839"/><path class="cls-7" d="M95.656,76.508a.928.928,0,0,0-1.276-.043,1,1,0,0,0-.262.658,1.233,1.233,0,0,0,.574,1.141.993.993,0,0,0,1.27-.221,1.3,1.3,0,0,0,.075-.93.764.764,0,0,0-.29-.574"/><path class="cls-7" d="M100.463,55.983c-.3.045-.429.343-.507.6a2.155,2.155,0,0,0-.137.764.8.8,0,0,0,.4.66,1.588,1.588,0,0,0,.684.125.507.507,0,0,0,.267-.038.377.377,0,0,0,.145-.183,1.744,1.744,0,0,0,.17-1.144,1.158,1.158,0,0,0-.842-.839"/><path class="cls-7" d="M87.433,78.511a2.538,2.538,0,0,0-.116.853.921.921,0,0,0,.437.731,1.678,1.678,0,0,0,.894.12.466.466,0,0,0,.214-.046c.122-.074.127-.232.133-.365a7,7,0,0,1,.165-.89,1.375,1.375,0,0,0-.074-.887.781.781,0,0,0-.794-.421c-.407.075-.6.494-.722.855"/><path class="cls-7" d="M91.028,69.184c-.008.388-.3.772-.164,1.141a1.077,1.077,0,0,0,.653.537.923.923,0,0,0,.446.089.79.79,0,0,0,.549-.42,1.392,1.392,0,0,0,.207-1.044,1.018,1.018,0,0,0-.77-.749.807.807,0,0,0-.929.492"/><path class="cls-7" d="M41.981,86.881a.74.74,0,0,0-.824.149,1.052,1.052,0,0,0-.281.766,1.186,1.186,0,0,0,.416.942,1.082,1.082,0,0,0,.786.214.552.552,0,0,0,.411-.214.581.581,0,0,0,.068-.211,1.453,1.453,0,0,0-.443-1.552"/><path class="cls-7" d="M35.339,79.18c-.3.045-.428.343-.506.6a2.128,2.128,0,0,0-.137.763.8.8,0,0,0,.4.66,1.577,1.577,0,0,0,.684.126.508.508,0,0,0,.267-.039.373.373,0,0,0,.145-.183,1.735,1.735,0,0,0,.17-1.143,1.157,1.157,0,0,0-.841-.84"/><path class="cls-7" d="M118.453,85.54c-.3.045-.429.343-.507.6a2.129,2.129,0,0,0-.137.764.8.8,0,0,0,.4.659,1.579,1.579,0,0,0,.684.126.523.523,0,0,0,.268-.038.384.384,0,0,0,.144-.184,1.735,1.735,0,0,0,.17-1.143,1.157,1.157,0,0,0-.841-.84"/><path class="cls-7" d="M47.293,86.843c-.3.045-.428.343-.506.6a2.128,2.128,0,0,0-.137.763.8.8,0,0,0,.4.66,1.591,1.591,0,0,0,.684.126A.508.508,0,0,0,48,88.949a.373.373,0,0,0,.145-.183,1.736,1.736,0,0,0,.17-1.143,1.157,1.157,0,0,0-.841-.84"/><path class="cls-7" d="M103.5,61.786c-.008.388-.3.772-.164,1.141a1.077,1.077,0,0,0,.653.537.923.923,0,0,0,.446.089.79.79,0,0,0,.549-.42,1.392,1.392,0,0,0,.207-1.044,1.017,1.017,0,0,0-.77-.749.807.807,0,0,0-.929.492"/><path class="cls-7" d="M99.519,114.92c-.3.045-.428.343-.506.6a2.129,2.129,0,0,0-.137.764.8.8,0,0,0,.4.659,1.577,1.577,0,0,0,.684.126.517.517,0,0,0,.267-.038.382.382,0,0,0,.145-.183,1.738,1.738,0,0,0,.17-1.144,1.158,1.158,0,0,0-.841-.839"/><path class="cls-7" d="M68.322,118c-.009.388-.3.772-.165,1.141a1.077,1.077,0,0,0,.653.537.927.927,0,0,0,.447.089.794.794,0,0,0,.549-.42,1.4,1.4,0,0,0,.207-1.044,1.018,1.018,0,0,0-.771-.749.808.808,0,0,0-.929.492"/><path class="cls-7" d="M68.376,64.474a1.219,1.219,0,0,0-1.069,1.238,1.264,1.264,0,0,0,.522,1.073.98.98,0,0,0,1.209-.084,1.086,1.086,0,0,0,.228-.7,1.874,1.874,0,0,0-.142-.882,1.1,1.1,0,0,0-.69-.6"/><path class="cls-7" d="M93.908,84.916c-.3.045-.429.343-.506.6a2.129,2.129,0,0,0-.137.764.793.793,0,0,0,.4.659,1.574,1.574,0,0,0,.684.126.517.517,0,0,0,.267-.038.38.38,0,0,0,.145-.184,1.741,1.741,0,0,0,.17-1.143,1.159,1.159,0,0,0-.841-.84"/><path class="cls-7" d="M97.368,63.5c-.532.322-.238.72-.326.962a.857.857,0,0,0,.038.742,1.455,1.455,0,0,0,1.124.5.265.265,0,0,0,.205-.036,2.535,2.535,0,0,0,.1-.49l.095-.709a.96.96,0,0,0-.037-.565c-.186-.378-.746-.421-1.2-.407"/><path class="cls-7" d="M86.58,71.8a.74.74,0,0,0-.824.149,1.052,1.052,0,0,0-.281.766,1.186,1.186,0,0,0,.416.942,1.084,1.084,0,0,0,.787.214.548.548,0,0,0,.41-.214.581.581,0,0,0,.068-.211,1.451,1.451,0,0,0-.443-1.552"/><path class="cls-7" d="M92.317,58.347c-.3.045-.429.343-.507.6a2.15,2.15,0,0,0-.137.763.8.8,0,0,0,.4.66,1.6,1.6,0,0,0,.684.126.518.518,0,0,0,.267-.039.377.377,0,0,0,.145-.183,1.744,1.744,0,0,0,.17-1.144,1.158,1.158,0,0,0-.841-.839"/><path class="cls-7" d="M84.372,116.3a.569.569,0,0,0-.7-.1,1.1,1.1,0,0,0-.456.56c-.179.409-.285.414-.258.854a3.618,3.618,0,0,0,.076.612c.039.051.119.057.17.1.216.179.221.613.883.105.075-.058.2-.025.278-.077a.567.567,0,0,0,.179-.506l0-1.4"/><path class="cls-6" d="M64.879,50.057l-7.207,1.561A3.037,3.037,0,0,0,60.593,54.2c2.595.112,3.757.486,2.732,2.98s-1.6,3.47.759,4.174,4.816-.359,5,2.142-1.876,4.963.186,5.039,2.572-2.374,3.427.787a6.934,6.934,0,0,0,3.737,4.555c.672.394,1.062,6.149,1.062,6.149l2.744-6.7Z"/><path class="cls-6" d="M90.829,48.025s-2.659,8.765-4.491,11.7-6.1,13.609-6.1,13.609l3.512,6.678s-1.039-4.2.483-6.129,4.754,1.149,4.956-1.686-1.535-4.223,0-5.242,5.239-1.208,2.35-4.167-.775-5.294,1.722-7.031,1.876-2.61.854-3.067,4.668-3.118,4.668-3.118Z"/><path class="cls-7" d="M88.859,123.056a.569.569,0,0,0-.7-.1,1.1,1.1,0,0,0-.456.56c-.179.409-.285.414-.258.854a3.618,3.618,0,0,0,.076.612c.039.051.119.057.17.1.217.179.221.613.883.105.075-.058.2-.025.278-.077a.567.567,0,0,0,.179-.506l0-1.4"/><path class="cls-7" d="M96.143,127.212a1.221,1.221,0,0,0-1.069,1.239,1.265,1.265,0,0,0,.522,1.073.982.982,0,0,0,1.209-.084,1.089,1.089,0,0,0,.228-.7,1.858,1.858,0,0,0-.142-.881,1.108,1.108,0,0,0-.69-.6"/><path class="cls-7" d="M102.754,129.044a.74.74,0,0,0-.824.15,1.051,1.051,0,0,0-.281.766,1.184,1.184,0,0,0,.416.941,1.087,1.087,0,0,0,.786.215.558.558,0,0,0,.411-.214.581.581,0,0,0,.068-.211,1.452,1.452,0,0,0-.443-1.552"/><path class="cls-7" d="M84.459,128.648c-.3.045-.429.343-.507.6a2.128,2.128,0,0,0-.137.763.8.8,0,0,0,.4.66,1.574,1.574,0,0,0,.684.126.509.509,0,0,0,.267-.039.366.366,0,0,0,.144-.183,1.742,1.742,0,0,0,.171-1.143,1.16,1.16,0,0,0-.842-.84"/><path class="cls-7" d="M74.226,132.085c-.057-.17-.5-.042-.7.026a.718.718,0,0,0-.4.4,2.463,2.463,0,0,0-.171.62.846.846,0,0,0,.1.75.926.926,0,0,0,.648.321c.286.04.823.023.941-.195a.471.471,0,0,0,.039-.228l-.005-1.151a.347.347,0,0,0-.072-.256c-.093-.1-.234-.286-.383-.282"/><path class="cls-7" d="M68.978,129.6a.927.927,0,0,0-1.275-.044,1,1,0,0,0-.262.659,1.234,1.234,0,0,0,.574,1.141.992.992,0,0,0,1.269-.222,1.294,1.294,0,0,0,.076-.929.766.766,0,0,0-.29-.574"/><path class="cls-7" d="M72.946,124.106c-.3.045-.429.343-.507.6a2.129,2.129,0,0,0-.137.764.8.8,0,0,0,.4.659,1.574,1.574,0,0,0,.684.126.519.519,0,0,0,.267-.038.372.372,0,0,0,.144-.184,1.742,1.742,0,0,0,.171-1.143,1.16,1.16,0,0,0-.842-.84"/><path class="cls-7" d="M60.756,131.6a2.547,2.547,0,0,0-.116.854.921.921,0,0,0,.437.73,1.669,1.669,0,0,0,.894.12.453.453,0,0,0,.214-.045c.122-.074.126-.232.133-.366a7.014,7.014,0,0,1,.165-.889,1.375,1.375,0,0,0-.074-.887.78.78,0,0,0-.794-.422c-.407.076-.6.494-.722.856"/><path class="cls-7" d="M64.351,122.275c-.008.389-.3.772-.164,1.141a1.065,1.065,0,0,0,.653.537.935.935,0,0,0,.446.09.8.8,0,0,0,.549-.42,1.4,1.4,0,0,0,.207-1.044,1.021,1.021,0,0,0-.771-.75.809.809,0,0,0-.928.492"/><path class="cls-7" d="M79.281,124.812c-.3.045-.429.343-.506.595a2.133,2.133,0,0,0-.137.764.792.792,0,0,0,.4.659,1.574,1.574,0,0,0,.684.126.507.507,0,0,0,.267-.038.382.382,0,0,0,.145-.183,1.744,1.744,0,0,0,.17-1.144,1.158,1.158,0,0,0-.841-.839"/><path class="cls-7" d="M58.942,121.151a1.218,1.218,0,0,0-1.069,1.238,1.264,1.264,0,0,0,.522,1.073.982.982,0,0,0,1.209-.084,1.1,1.1,0,0,0,.228-.7,1.859,1.859,0,0,0-.143-.881,1.1,1.1,0,0,0-.689-.6"/><path class="cls-7" d="M91.267,133.17c-.009.388-.3.772-.165,1.141a1.077,1.077,0,0,0,.653.537.924.924,0,0,0,.447.089.794.794,0,0,0,.549-.42,1.4,1.4,0,0,0,.207-1.044,1.019,1.019,0,0,0-.771-.749.809.809,0,0,0-.929.492"/><path class="cls-7" d="M88.68,140.993c-.058-.17-.505-.042-.7.026a.718.718,0,0,0-.4.395,2.5,2.5,0,0,0-.17.62.843.843,0,0,0,.1.75.924.924,0,0,0,.648.321c.286.04.823.023.941-.195a.459.459,0,0,0,.038-.228l0-1.151a.352.352,0,0,0-.072-.256c-.093-.1-.234-.286-.383-.282"/><path class="cls-7" d="M97.772,134.462c-.3.045-.429.343-.507.595a2.155,2.155,0,0,0-.137.764.8.8,0,0,0,.4.66,1.588,1.588,0,0,0,.684.125.509.509,0,0,0,.267-.038.37.37,0,0,0,.144-.183,1.744,1.744,0,0,0,.171-1.144,1.159,1.159,0,0,0-.842-.839"/><path class="cls-7" d="M66.574,137.539c-.008.388-.3.772-.164,1.141a1.077,1.077,0,0,0,.653.537.923.923,0,0,0,.446.089.79.79,0,0,0,.549-.42,1.392,1.392,0,0,0,.207-1.044,1.017,1.017,0,0,0-.77-.749.807.807,0,0,0-.929.492"/><path class="cls-7" d="M82.624,135.839a.568.568,0,0,0-.7-.1,1.1,1.1,0,0,0-.456.56c-.179.409-.286.414-.258.854a3.519,3.519,0,0,0,.075.612c.04.051.12.057.17.1.217.18.221.613.884.1.075-.057.2-.025.277-.077a.564.564,0,0,0,.179-.506v-1.4"/><path class="cls-7" d="M95.7,120.717a.57.57,0,0,0-.7-.1,1.106,1.106,0,0,0-.456.56c-.178.41-.285.415-.258.854a3.618,3.618,0,0,0,.076.612c.039.051.119.058.17.1.217.179.221.612.883.1.075-.057.2-.024.278-.077a.565.565,0,0,0,.179-.505l0-1.4"/><path class="cls-7" d="M108.421,129.167a1.22,1.22,0,0,0-1.07,1.238,1.267,1.267,0,0,0,.522,1.073.983.983,0,0,0,1.21-.084,1.1,1.1,0,0,0,.228-.7,1.859,1.859,0,0,0-.143-.881,1.1,1.1,0,0,0-.689-.6"/><path class="cls-7" d="M104.876,122.624a.74.74,0,0,0-.824.15,1.051,1.051,0,0,0-.281.766,1.187,1.187,0,0,0,.416.942,1.094,1.094,0,0,0,.787.214.555.555,0,0,0,.411-.214.581.581,0,0,0,.068-.211,1.454,1.454,0,0,0-.443-1.552"/><path class="cls-7" d="M57.961,108.543a1.218,1.218,0,0,0-1.069,1.238,1.264,1.264,0,0,0,.521,1.073.983.983,0,0,0,1.21-.084,1.1,1.1,0,0,0,.228-.7,1.859,1.859,0,0,0-.143-.881,1.1,1.1,0,0,0-.689-.6"/></svg>