<svg id="word" xmlns="http://www.w3.org/2000/svg" xmlns:xlink="http://www.w3.org/1999/xlink" viewBox="0 0 160 160"><defs><style>.cls-1{fill:#c2b474;}.cls-1,.cls-3,.cls-4,.cls-5,.cls-6{stroke:#9b4b9b;stroke-miterlimit:10;stroke-width:0.77px;}.cls-2{fill:#9b4b9b;}.cls-3{fill:#fff;}.cls-4{fill:#76654d;}.cls-5{fill:none;}.cls-6{fill:#ead096;}.cls-7{fill:url(#radial-gradient);}.cls-8{fill:#bfb44e;}.cls-9{fill:url(#radial-gradient-2);}.cls-10{fill:url(#radial-gradient-3);}.cls-11{fill:url(#radial-gradient-4);}.cls-12{fill:url(#radial-gradient-5);}.cls-13{fill:url(#radial-gradient-6);}.cls-14{fill:#9c509d;}</style><radialGradient id="radial-gradient" cx="92.732" cy="70.474" r="12.148" gradientUnits="userSpaceOnUse"><stop offset="0" stop-color="#fdc50b"/><stop offset="0.669" stop-color="#c2bd4f"/><stop offset="1" stop-color="#819957"/></radialGradient><radialGradient id="radial-gradient-2" cx="72.523" cy="57.132" r="7.656" xlink:href="#radial-gradient"/><radialGradient id="radial-gradient-3" cx="85.594" cy="56.698" r="4.538" xlink:href="#radial-gradient"/><radialGradient id="radial-gradient-4" cx="54.58" cy="57.089" r="5.905" xlink:href="#radial-gradient"/><radialGradient id="radial-gradient-5" cx="68.717" cy="75.911" r="12.334" xlink:href="#radial-gradient"/><radialGradient id="radial-gradient-6" cx="44.765" cy="71.611" r="13.09" xlink:href="#radial-gradient"/></defs><path class="cls-1" d="M83.882,95.729s1.52,2.069.606,5.92-4.807,6.362-1.86,7.766,6.583.07,8.139,0,8.465-1.538,8.465-1.538l-10.6-10.3.319-2.4Z"/><path class="cls-1" d="M42.2,91.773s-2.407,4.716-1.264,5.631,6.267,2.563,7.723,2.725,1.276,1.85,1.276,1.85.081.256-4.343.943a82.564,82.564,0,0,1-10,.733s-7.61-3.477-6.731-5.062,6.764-8.488,6.764-8.488Z"/><path class="cls-1" d="M110.792,67.923s10.715-6.727,16.03-6.873,9.329.922,11.691,2.766,3.3,6.937,3.267,8.182.22,3.555.22,3.555a7.294,7.294,0,0,1-1.889.768,12.023,12.023,0,0,1-2.292,0,32.21,32.21,0,0,0-3.482,4.131c-1.5,2.184-5.359,3.984-7.842,3.989S116,86.5,114.1,85.959s-6.689,2.6-8.122,2.922-1.532,1.189-2.905,2.889-1.815,5.457-1.815,5.457.218,2.489,2.317,2.533,4.865,1.53,6.369,2.219a8.626,8.626,0,0,1,2.717,2.257,37.751,37.751,0,0,1-3.961,2.388c-2,1.015-5.136,2.522-6.456,2.212s-7.1-1.434-7.818-2.5-.855-.424-1.976-2.444a43.981,43.981,0,0,0-3.818-6.312c-1.135-1.251-2.024-2.158-2.024-2.158s12.213-8.33,13.749-9.983S110.792,67.923,110.792,67.923Z"/><path class="cls-2" d="M137.679,76.679a7.932,7.932,0,0,0-3.2-.641,2.981,2.981,0,0,0-1.438.609c-.463.316-.907.676-1.345,1.043a30.066,30.066,0,0,1-2.7,2.185,3,3,0,0,1-1.72.3,7.805,7.805,0,0,1-1.7-.325,7.739,7.739,0,0,0,1.7.225,2.857,2.857,0,0,0,1.612-.373,29.911,29.911,0,0,0,2.533-2.313c.422-.4.851-.788,1.319-1.149a3.486,3.486,0,0,1,1.665-.8,8.539,8.539,0,0,1,3.548.518Z"/><path class="cls-3" d="M134.18,67.387s-2.965-1.03-4.761.821-1.836,2.174,0,3.887,4.3-.784,4.761-1.551C134.933,69.281,134.881,67.561,134.18,67.387Z"/><path class="cls-1" d="M22.208,83.4s-6.85,5.837-8.722,6.481-7.239,1.585-4.91,2.593,7.581.184,10.84-.846S29.1,86.777,29.1,86.777Z"/><path class="cls-1" d="M37.205,90.058s-6.563,6.412-5.655,9.05,1.462,2.124,2.832,2.014,3.622,1.86,4.281,2.316,0,1.485,0,1.485-5.732,2.793-7.635,2.819-9.916-1.38-11.261-1.077-5.647-2.643-4.174-4.34,5.527-3.662,6.728-6.289S29.1,86.777,29.1,86.777Z"/><path class="cls-4" d="M19.8,76.933s.823,7.481,3.587,9.061,16.9,5.391,18.01,6.481,15.833,4.143,19.923,4.777,19.121-.186,22.064-.724,15.307-8.486,16.972-9.661a70.749,70.749,0,0,0,9.591-10.391c1.388-2.265,1.526-12.7,1.526-12.7s-2.668,2.173-4.78,2.264S104,65.183,104,65.183s-6.53-8.722-11.756-10.046-13.393-5.232-18.765-5.192-13.25.95-17.567,2.637-14.12,7.51-17.466,10.6S27.823,73.421,27.823,73.421Z"/><path class="cls-5" d="M27.823,73.421s4.038,5.933,10.03,7.857c7.608,2.443,17.044,6.233,26.573,7.243s22.987-3.073,27.332-5.12S101.83,74.909,103.075,72.1a39.266,39.266,0,0,0,2.012-6.225"/><path class="cls-6" d="M104.921,107.93a15.478,15.478,0,0,1,1.272-1.214,6.649,6.649,0,0,1,1.878-.456s2.57.949,2.721,1.67,1.167.537,1.167.947-.561.932-2.716.864A8.7,8.7,0,0,1,104.921,107.93Z"/><path class="cls-6" d="M109.318,105.724a13.149,13.149,0,0,0,2.154-.9c.21-.236,1.191,0,1.191,0s2.918,2.044,2.691,2.61-3.124.468-3.882,0S108.921,106.128,109.318,105.724Z"/><path class="cls-6" d="M111.7,103.211s3.257.68,3.653,1.511.906.605.906,1.171-2.537-.038-2.537-.038l-2.079-1.625Z"/><path class="cls-7" d="M82.448,64.07a13.794,13.794,0,0,0-.316,3.967c.167,2.039,1.189,8.165,1.436,9.854s1.752,6.172,3.042,6.074a23.586,23.586,0,0,0,7.818-3.49,68.072,68.072,0,0,0,7.818-8.76c.6-1.132,1.712-4.088.733-5.429s-7.062-7.867-8.279-8.322a24.468,24.468,0,0,1-2.257-.983s-3.013,3.059-3.918,3.67S82.721,62.776,82.448,64.07Z"/><path class="cls-8" d="M105.452,68.036a47.6,47.6,0,0,1-1.565,5c-.494.949-4.145,4.538-3.868,5.527s1.626,1.088,2.227,2.093.338,2.433,1.121,1.981,3.968-4.411,4.8-5.489,1.471-3.843,1.81-5.713,1.236-6.7.449-5.953A33.829,33.829,0,0,1,105.452,68.036Z"/><path class="cls-9" d="M63.5,51.73s.12,9.748,1.82,10.66,9.686.7,11.216.71,4.868-.914,5.01-2.063-2.652-9.153-2.652-9.153-6.612-.814-8.7-.727S63.5,51.73,63.5,51.73Z"/><path class="cls-10" d="M80.541,52.742s2.507,7.018,3.155,7.7,2.7-.445,4.7-1.69a4.482,4.482,0,0,0,2.248-2.544,54.72,54.72,0,0,0-6.359-2.83C82.817,53.041,80.541,52.742,80.541,52.742Z"/><path class="cls-11" d="M61.484,52.742s-7.794,2.152-8.97,2.625A47.431,47.431,0,0,0,47.451,58.7a44.173,44.173,0,0,0,6.506,2.4c2.887.715,7.018.276,7.527-1.089S61.484,52.742,61.484,52.742Z"/><path class="cls-12" d="M73.141,64.885s-5.9-.585-7.506-.443-3.992,5.516-5.066,7.35-6.1,11.186-4.744,13.165S64.5,87.5,68.511,87.389s11.9-.784,12.8-1.948.374-7.258.344-8.965-2-10.7-2.8-11.072S73.141,64.885,73.141,64.885Z"/><path class="cls-8" d="M86.952,87.2a19.242,19.242,0,0,1,2.1,2.73,20.025,20.025,0,0,1,.766,2.219S99.1,86.842,100,85.778s1.642-1.407,1.637-2.172-1.383-3.713-2.9-3.412-7.252,4.417-7.252,4.417Z"/><path class="cls-8" d="M70.213,89.8s1.277,3.338.972,4.5a12.856,12.856,0,0,1-.713,2.018s8.441.089,12.345-1.135,6.111-1.294,5.885-2.7-1.923-4.381-3.536-4.422S70.213,89.8,70.213,89.8Z"/><path class="cls-8" d="M52.533,87.4a21.074,21.074,0,0,1-1.026,3.456,14.967,14.967,0,0,1-1.939,2.9s8.941,1.7,11.35,2.021,6.991,1.481,7.586.869a4.931,4.931,0,0,0,1.242-3.715,4.216,4.216,0,0,0-1.533-2.82s-8.37-1.282-10.181-1.494A53.854,53.854,0,0,1,52.533,87.4Z"/><path class="cls-8" d="M37.853,82.127s6.982,2.767,7.617,2.83,5.342,1.151,5.489,2.149-1.815,5.9-2.632,6.03-8.4-2.239-8.4-2.239l-6.268-2.73s1.763-2.331,2.629-3.507A21.672,21.672,0,0,0,37.853,82.127Z"/><path class="cls-13" d="M29.923,73.368s7.455,6.552,13.51,8.759c2.169.79,7.439.722,8.49-.187s6.1-8.557,6.479-9.487,2.017-7.256.7-8.033-11.291-3.383-11.291-3.383-3.991-1.167-5.394.1S29.923,73.368,29.923,73.368Z"/><path class="cls-8" d="M21.34,77.729l6.223-2.619S32.4,79.92,35.625,81.9c.779.477-3.076,5.8-3.076,5.8s-7.886-3.371-9.091-4.3S21.1,78.109,21.1,78.109Z"/><path class="cls-6" d="M27.752,107.014A4,4,0,0,1,29.8,106.5c1.216.016,3.361,2.191,3.361,2.191a.587.587,0,0,1-.7.725C31.606,109.316,26.529,108.021,27.752,107.014Z"/><path class="cls-6" d="M31.861,106.409s.545-.6,2.521-.516,3.754,3.275,3.46,3.4-4.676-2.28-4.676-2.28Z"/><path class="cls-6" d="M36.286,105.2s1.709-.679,2.377-.274,1.911,3.292,1.586,3.6S34.684,106.087,36.286,105.2Z"/><path class="cls-6" d="M44.466,101.979s1.641-.933,2.651-.451,3.942,3.32,3.694,3.616S42.734,103.378,44.466,101.979Z"/><path class="cls-6" d="M48.514,101.39a12.714,12.714,0,0,1,1.416.589c.774.377,2.408,1.175,2.408,1.724s-2.4-.436-2.4-.436l-2.82-1.739S47.1,101.252,48.514,101.39Z"/><path class="cls-6" d="M49.728,100.412s3.967.779,3.967,1.715-3.765-.6-3.765-.6S47.289,101.442,49.728,100.412Z"/><ellipse class="cls-14" cx="129.852" cy="70.183" rx="1.621" ry="2.023"/></svg>