<svg id="word" xmlns="http://www.w3.org/2000/svg" viewBox="0 0 160 160"><defs><style>.cls-1,.cls-6{fill:#fdeadf;}.cls-1,.cls-10,.cls-11,.cls-2,.cls-3,.cls-4,.cls-5,.cls-6,.cls-7,.cls-8{stroke:#9d4b9c;stroke-miterlimit:10;stroke-width:0.75px;}.cls-2{fill:#c3574f;}.cls-3{fill:#f58e6b;}.cls-4{fill:#f4886a;}.cls-5{fill:#24b0e6;}.cls-10,.cls-6{stroke-linecap:round;}.cls-7{fill:#df8e3e;}.cls-8{fill:#fff;}.cls-9{fill:#9c4c9c;}.cls-10{fill:none;}.cls-11{fill:#edc3bb;}</style></defs><polygon class="cls-1" points="95.711 79.405 94.854 90.718 80.554 90.189 83.942 79.405 95.711 79.405"/><polygon class="cls-2" points="34.047 96.547 26.855 99.273 28.95 61.886 36.219 59.336 34.047 96.547"/><polygon class="cls-3" points="36.219 59.336 40.716 63.867 38.983 99.209 34.047 96.547 36.219 59.336"/><polygon class="cls-4" points="38.884 99.462 33.155 102.177 26.855 99.273 34.07 96.236 38.884 99.462"/><path class="cls-5" d="M101.4,92.6s2.845,16.655,1.811,22.23-.792,17.86-.792,17.86l-15.848-4.3-14.657-1.522-.829-31.555,8.83-4.785H99.849Z"/><path class="cls-1" d="M114.923,69.3s6.037-.317,5,5.373-5.871,5.639-8.328,4.734a10.7,10.7,0,0,1-4.059-2.824"/><path class="cls-1" d="M88.124,35.219S79.56,38.84,77.376,42.634s-6.442,12.6-6.15,18.967c.2,4.429,4.31,15.174,9.828,17.588s18.278,3.276,24.486,1.38,17.588-16.382,17.76-23.8-2.069-15.519-9.829-17.933S88.124,35.219,88.124,35.219Z"/><path class="cls-6" d="M92.536,60.036a2.437,2.437,0,0,0-.827-2.054,1.621,1.621,0,0,0-1.646.117,4.769,4.769,0,0,0-1.2,1.237"/><path class="cls-7" d="M120.029,73.068s9.565-9.83,9.306-15.261-.517-7.759-.517-7.759h2.716s-.259-2.974-1.423-3.362,4.138-2.975,4.138-2.975h-4.785l.388-5.69-1.164,3.492-2.845-6.294v3.837S121.335,31.684,114.8,28.71a49.1,49.1,0,0,0-12.618-3.751l2.716,1.94s-.129-4.009-9.311-1.94a107.561,107.561,0,0,0-13.838,3.88l7.116.388s-4.012,2.2-7.116,4.138a10.245,10.245,0,0,1-5.266,1.854l8.628-1.595-7.73,5.949L90.7,35.42,86.572,38.8l7.458.129-6.725,2.716A73.459,73.459,0,0,1,99.72,42.935c6.725,1.294,13.32,2.845,13.32,2.845s-8.794.518-9.958-.258-5.043-.776-5.043-.776a102.529,102.529,0,0,1,9.7,4.785c2.586,1.681,11.639,3.1,11.639,3.1a26.123,26.123,0,0,1-.388,3.879,54.969,54.969,0,0,1-1.422,6.725c-.259.388,3.481-4.318,3.481-4.318S116.68,67.2,114.8,69.3s-3.2,3.773-3.2,3.773Z"/><path class="cls-8" d="M80.876,46.254s4.9.009,4.735,4.107c-.16,4.07-3.256,5.661-5.475,4.662s-2.222-2.689-2.222-4.243A4.4,4.4,0,0,1,80.876,46.254Z"/><path class="cls-9" d="M78.771,48.618s4-1.405,3.931,2.1-2.246,4-3.51,3.581S77.227,50.373,78.771,48.618Z"/><path class="cls-10" d="M89.457,44.1c.086.03.074-.132.008-.2a7.323,7.323,0,0,0-4.268-2,6.589,6.589,0,0,1-1.765-.281"/><path class="cls-10" d="M111.6,53.424A7.193,7.193,0,0,0,109.91,51.6a2.183,2.183,0,0,0-.771-.416,4.732,4.732,0,0,0-.817-.065,32.149,32.149,0,0,1-2.959-1.59"/><path class="cls-11" d="M95.477,65.947s-5.111-.633-6.324-1.019c-3.4-1.085-7.625-4.892-7.625-4.892s-.388,9.394,2.418,10.8C90.965,74.362,95.477,65.947,95.477,65.947Z"/><path class="cls-8" d="M102.562,54.483s4.9.009,4.736,4.107c-.16,4.07-3.256,5.661-5.476,4.662S99.6,60.563,99.6,59.009A4.4,4.4,0,0,1,102.562,54.483Z"/><path class="cls-9" d="M100.458,56.847s4-1.405,3.931,2.106-2.247,4-3.51,3.58S98.913,58.6,100.458,56.847Z"/><path class="cls-5" d="M92.473,91.248s9.269,4.237,6.356,11.123-7.945,10.063-16.419,11.652-21.981-2.119-25.953-3.708-12.977-9.8-12.977-9.8l4.5-8.475S62.548,94.691,72.611,93.9,92.473,91.248,92.473,91.248Z"/><path class="cls-1" d="M47.894,92.484s-2.56-7.592-3.619-9.181-3.885-2.737-3.885-2.737.177,4.326-.618,5.65-2.118,2.119-5.826,0-4.855-10.593-6.709-7.945a10.976,10.976,0,0,0-.618,11.564C29,94.6,44.01,100.34,44.01,100.34Z"/><path class="cls-5" d="M76.76,90.542l4.061-7.592a6.5,6.5,0,0,0,5.12,3.707c3.707.354,10.24-3.354,10.24-3.354a4.7,4.7,0,0,1,3.531,2.119c1.059,1.942,2.824,5.649,2.471,7.944s.177,4.061-1.236,2.649A11.285,11.285,0,0,0,92.3,92.131c-5.12-.177-17.655.882-17.655.882Z"/></svg>