<svg id="word" xmlns="http://www.w3.org/2000/svg" viewBox="0 0 160 160"><defs><style>.cls-1{fill:#cebe5d;stroke-miterlimit:10;stroke-width:0.977px;}.cls-1,.cls-2{stroke:#9d4b9c;}.cls-2{fill:#a97e39;stroke-width:0.861px;}</style></defs><path class="cls-1" d="M69.593,40.043s4.333-9.073,11.884-9.834,11.3.556,15.22,6.411,15.321,32.462,20.762,40.429,10.231,35.69-1.968,48.6c-14.321,15.148-15.219,10.348-24.108,11.722s-10.516,4.046-16.034,4.873C65.5,143.718,60.927,137,51.928,129.762s-14.3-20.407-14.211-26.971S44.285,75.485,51.24,69.485,66.2,45.084,69.593,40.043Z"/><path class="cls-2" d="M87.754,36.669s-3.879,2.679-5.191,1.255-.792-7.286-.466-9.534S85.069,16,85.84,13.474s.934-3.576,2.993-2.721,6.314,3.482,5.847,5.271-2.407,3.051-3.3,3.612a9.631,9.631,0,0,0-3.329,5.875C87.566,28.507,87.754,36.669,87.754,36.669Z"/></svg>