<svg id="word" xmlns="http://www.w3.org/2000/svg" xmlns:xlink="http://www.w3.org/1999/xlink" viewBox="0 0 160 160"><defs><style>.cls-1{stroke:#9c4c9c;stroke-width:1.438px;fill:url(#radial-gradient);}.cls-2{fill:#9c4c9c;}</style><radialGradient id="radial-gradient" cx="80.264" cy="59.6" r="53.601" gradientUnits="userSpaceOnUse"><stop offset="0.004" stop-color="#fff1db"/><stop offset="0.24" stop-color="#dfbd7f"/><stop offset="0.309" stop-color="#d6ad64"/><stop offset="0.858" stop-color="#b35132"/><stop offset="1" stop-color="#aa3924"/></radialGradient></defs><path class="cls-1" d="M121.383,80c0,21.72-18.529,39.319-41.383,39.319S38.617,101.721,38.617,80,57.143,40.68,80,40.68,121.383,58.286,121.383,80Z"/><path class="cls-2" d="M95.382,69.23c-6.89,0-14.017-4.869-20.326-9.176-1.164-.79-2.3-1.566-3.428-2.3C64.442,53.03,53,56.488,52.876,56.524l-.189-.605c.482-.15,11.859-3.582,19.293,1.3,1.121.733,2.269,1.518,3.432,2.308,6.379,4.352,13.623,9.275,20.43,9.056,3.307-.115,5.508-.826,6.554-2.124,1.133-1.4.79-3.3.515-4.82-.05-.256-.088-.5-.127-.726-.424-2.767.641-9.234.679-9.5l.634.1c-.016.065-1.1,6.643-.69,9.308.032.225.081.458.129.707.282,1.563.665,3.708-.646,5.334-1.184,1.467-3.48,2.239-7.025,2.357-.158,0-.325.01-.483.01Z"/><path class="cls-2" d="M74.312,117.575l-.365-.518c.126-.091,12.479-8.964,18.084-19.761,4.3-8.273,4.122-13.393,3.879-20.475-.072-2.2-.156-4.7-.108-7.5C96.009,58,79.82,46.236,79.655,46.115l.372-.514c.681.487,16.623,12.074,16.408,23.73-.051,2.786.039,5.272.111,7.469.244,7.181.42,12.365-3.949,20.789-5.677,10.934-18.15,19.895-18.285,19.986Z"/><path class="cls-2" d="M42.388,85.866l-.356-.526c4.319-2.9,19.492-12.439,33.5-13.739,10.979-1.021,36.962-1.8,40.977,12.865l-.609.161c-4-14.6-31.865-13.181-40.3-12.4C61.727,73.517,46.671,83,42.388,85.866Z"/><path class="cls-2" d="M52.161,105.793l-.029-.635c.126,0,11.809-.515,19.663-8.363a76.4,76.4,0,0,0,5.878-6.867c4.894-6.227,9.134-11.605,17.037-9.707,9.933,2.384,11.106,8.69,12.046,13.758.084.44.161.867.246,1.287,1.065,5.331-.182,7.917-.239,8.026l-.568-.283c.015-.026,1.2-2.528.18-7.617-.077-.423-.165-.857-.244-1.3-.958-5.139-2.034-10.968-11.568-13.258-7.508-1.8-11.631,3.429-16.4,9.483a75.9,75.9,0,0,1-5.927,6.927c-8.02,8.029-19.956,8.543-20.076,8.547Z"/></svg>