<svg id="word" xmlns="http://www.w3.org/2000/svg" viewBox="0 0 160 160"><defs><style>.cls-1{fill:#a3b152;}.cls-1,.cls-2,.cls-3{stroke:#9c4c9c;stroke-width:1.15px;}.cls-2{fill:#f79d1e;}.cls-3{fill:none;stroke-linecap:round;}</style></defs><path class="cls-1" d="M82.78,76.659a23.547,23.547,0,0,0-1.191-7.47c-1.24-3.2-1.26-5.417-1.217-9.277s.142-9.352,1.6-11.89,11.691-9.2,11.691-9.2l-1.38-2.141-2.132,2.576-6.973,4.9,8.93-18.736-2.68-3.7s1.983,1.52-.829,6.764-5.651,11.306-5.651,11.306,2.332-16.2,2.04-18.928-3.516-7.453-3.516-7.453l-2.013-.7s3.82,4.514,3.819,7.142a37.421,37.421,0,0,1-.706,6.116s-.959-8.356-1.8-9.478-3.6-2.365-3.6-2.365S79.851,15.2,79.883,17s.672,8.259.672,8.259a8.159,8.159,0,0,1,1.2,4.428c-.181,2.29-1.3,8.954-1.3,8.954S78.105,25.928,77.287,24.4s-5.307-9.042-5.307-9.042l-2.769-1.244s2.623,5.343,4.077,8.061,1.622,3.471,3.246,9.568,3.659,9.02,3.085,11.451-1.022,6.834-1.461,8.2.018,7.478-.539,9.493,3.709,15.678,3.709,15.678Z"/><path class="cls-2" d="M84.406,70.886s-3.431,1.962-6.625,1.678-4.675-.286-8.4,3.259S68.24,86.66,72.12,92.165s8.47,26.327,10.608,31.638,5.256,21.2,8.95,21.1,1.564-11.071,2.967-15.006-.055-30.727-.591-37.414S93.341,73.587,84.406,70.886Z"/><path class="cls-1" d="M81.205,72.7s-2.57-14.865-4.026-17.586-2.517-8.21-3.566-11.479-1.688-14.975-1.688-14.975l-5.78-9.482S70.57,25.7,70.33,29.625s-.612,8.917-.612,8.917,0-7.889-.836-9.008-7.035-9.647-7.035-9.647,4.5,7.1,5.005,9.354.5,7.505,1.023,9.345S71.589,48.6,71.589,48.6a46.731,46.731,0,0,1-4.848-5.563C65.363,40.893,61.81,29,61.81,29l-4.3-1.914a18.336,18.336,0,0,1,2.457,4.592c.97,2.689,2.733,10.355,3.641,12.057s8.271,7.586,8.271,7.586,1.366,2.552,2.44,5.005-3.6-2.365-5.978-3.747-5.893-3.576-8.18-4.79a96.049,96.049,0,0,1-8.42-6.119l-.058,1.64s8.179,7.416,12.01,8.892,7.568,2.779,8.466,4.888,1.8,3.809,2.335,5.239.524,8.65,2.764,12.17,3.645.675,3.645.675Z"/><path class="cls-3" d="M68.088,83.435a.214.214,0,0,0,.006.354.814.814,0,0,0,.439.12,51.388,51.388,0,0,0,8.648-.042"/><path class="cls-3" d="M80.012,86.89a8.463,8.463,0,0,0,5.835-1.862"/><path class="cls-3" d="M84.026,79.858a11.066,11.066,0,0,0,3.819-2.235"/><path class="cls-3" d="M82.808,93.659a12.464,12.464,0,0,0,6.854-3.131"/><path class="cls-3" d="M79.208,102.975a15.905,15.905,0,0,0,6.906-.765"/><path class="cls-3" d="M75.313,97.741l4.437-.091"/><path class="cls-3" d="M86.8,112.155a12.564,12.564,0,0,0,3.391-1.709"/><path class="cls-3" d="M85.617,119.759a17.32,17.32,0,0,0,7.207-1"/><path class="cls-3" d="M83.781,125.539a10.614,10.614,0,0,0,4.713-.913"/><path class="cls-3" d="M89.424,128.567a5.528,5.528,0,0,0,2.13-.338"/><path class="cls-3" d="M87.558,134.317a12.44,12.44,0,0,0,3.629-.131"/></svg>