<svg id="word" xmlns="http://www.w3.org/2000/svg" viewBox="0 0 160 160"><defs><style>.cls-1{fill:#bdc344;}.cls-2{fill:#816c32;}.cls-3{fill:#f48131;}.cls-4{fill:#f6eb96;}.cls-5{fill:#59c1ee;}.cls-6{fill:#e43d60;}.cls-7{fill:#8a5d3b;}.cls-8{fill:#cabc37;}.cls-9{fill:#ead237;}.cls-10{fill:#7ea539;}.cls-11{fill:#ee60a2;}</style></defs><rect class="cls-1" x="76.957" y="105.589" width="21.853" height="24.259"/><path class="cls-2" d="M81.6,127.139V110.048h3.228v7.59l6.525-7.59H95.7l-6.023,6.657,6.351,10.434h-4.18l-4.4-8.021-2.62,2.856v5.165Z"/><rect class="cls-3" x="65.36" y="28.435" width="53.349" height="59.221"/><path class="cls-4" d="M76.539,39.321h7.885v22.6a50.5,50.5,0,0,0,.292,6.974A6.826,6.826,0,0,0,87.127,73a8.021,8.021,0,0,0,5.207,1.553,7.574,7.574,0,0,0,5.06-1.467,5.865,5.865,0,0,0,2.052-3.6,49.851,49.851,0,0,0,.348-7.086V39.321h7.882V61.235a59.772,59.772,0,0,1-.64,10.614,12.12,12.12,0,0,1-2.354,5.237,11.931,11.931,0,0,1-4.6,3.4,18.844,18.844,0,0,1-7.513,1.267q-5.592,0-8.482-1.38a12.242,12.242,0,0,1-4.568-3.586,11.816,11.816,0,0,1-2.211-4.625,53.944,53.944,0,0,1-.773-10.585Z"/><rect class="cls-5" x="49.627" y="128.741" width="21.853" height="24.259"/><path class="cls-6" d="M58.436,150.291v-14.2H53.691V133.2H66.4v2.892H61.666v14.2Z"/><rect class="cls-7" x="31.842" y="11.483" width="21.853" height="24.259"/><path class="cls-8" d="M35.058,33.033V29.92l8.4-11.086H36.006V15.943H47.715v2.681L38.953,30.153h9.1v2.88Z"/><rect class="cls-9" x="15.645" y="111.196" width="21.853" height="24.259"/><path class="cls-10" d="M34.672,132.746H31.158l-1.4-3.882H23.368l-1.32,3.882H18.622l6.23-17.09h3.416Zm-5.946-6.762-2.2-6.341-2.161,6.341Z"/><rect class="cls-9" x="125.945" y="79.35" width="21.853" height="24.259"/><path class="cls-11" d="M134.874,100.9V83.81h3.23V100.9Z"/></svg>