<svg id="word" xmlns="http://www.w3.org/2000/svg" viewBox="0 0 160 160"><defs><style>.cls-1{fill:#fff;stroke:#9c4c9c;stroke-width:0.771px;}.cls-2{fill:#26a7df;}</style></defs><path class="cls-1" d="M37.148,69.438l88.467-.483-9.548-35.411H39.686A44.743,44.743,0,0,0,34.73,49.618C33.764,58.8,37.148,69.438,37.148,69.438Z"/><path class="cls-1" d="M36.664,73.306S32.857,86.66,32.313,95.06c-.386,5.967-2.175,20.425-2.175,20.425l108.167-1.692s-6.889-18.249-10.273-27.435c-2.005-5.443-2.417-17.4-2.417-17.4l-88.467.483Z"/><path class="cls-2" d="M43.432,36.565q-.015,3.81-.094,7.619l-.2,7.615-.286,7.613q-.159,3.806-.39,7.609.015-3.81.094-7.618l.2-7.616.287-7.612Q43.2,40.368,43.432,36.565Z"/><path class="cls-2" d="M72.438,37.532q.287,3.922.51,7.849l.407,7.854.319,7.858q.142,3.928.214,7.862-.288-3.922-.51-7.849l-.407-7.854L72.653,45.4Q72.511,41.465,72.438,37.532Z"/><path class="cls-2" d="M98.422,36.082q.709,3.791,1.355,7.591l1.252,7.607,1.165,7.621q.567,3.813,1.063,7.637-.711-3.791-1.355-7.591l-1.253-7.607-1.164-7.621Q98.92,39.906,98.422,36.082Z"/><path class="cls-2" d="M111.173,35.9q.919,3.784,1.776,7.583l1.675,7.6,1.588,7.623q.778,3.816,1.487,7.646-.921-3.786-1.776-7.583l-1.676-7.605-1.587-7.624Q111.882,39.731,111.173,35.9Z"/><path class="cls-2" d="M42.465,70.163q-.575,5.385-1.213,10.76L39.937,91.67l-1.4,10.736q-.717,5.365-1.506,10.722.573-5.383,1.212-10.76l1.316-10.746,1.4-10.736Q41.678,75.521,42.465,70.163Z"/><path class="cls-2" d="M48.81,69.8q-.142,5.376-.351,10.748l-.453,10.743-.543,10.739q-.288,5.37-.647,10.735.142-5.376.351-10.748l.454-10.744.543-10.739Q48.452,75.167,48.81,69.8Z"/><path class="cls-2" d="M57.512,70.345q.151,5.392.238,10.785l.136,10.786.046,10.787q.006,5.394-.057,10.788-.153-5.392-.239-10.786L57.5,91.919l-.046-10.786Q57.449,75.739,57.512,70.345Z"/><path class="cls-2" d="M65.489,70.345q.376,5.365.691,10.733l.589,10.74.5,10.743q.234,5.371.4,10.748-.378-5.364-.692-10.733l-.588-10.739-.5-10.744Q65.651,75.721,65.489,70.345Z"/><path class="cls-2" d="M74.009,70.163q.423,5.229.782,10.461l.679,10.467.59,10.471q.279,5.236.487,10.479-.424-5.229-.782-10.461l-.679-10.466L74.5,80.642Q74.217,75.4,74.009,70.163Z"/><path class="cls-2" d="M81.079,70.345q.559,5.2,1.054,10.411l.951,10.42.862,10.428q.416,5.216.759,10.437-.559-5.2-1.054-10.411L82.7,91.209l-.861-10.428Q81.423,75.566,81.079,70.345Z"/><path class="cls-2" d="M88.693,69.982q.762,5.291,1.461,10.587l1.359,10.6,1.27,10.611q.62,5.307,1.168,10.623-.763-5.289-1.462-10.587l-1.358-10.6-1.27-10.611Q89.241,75.3,88.693,69.982Z"/><path class="cls-2" d="M96.67,70.888q.874,4.969,1.687,9.949L99.942,90.8l1.5,9.977q.732,4.992,1.394,9.994-.876-4.969-1.687-9.949L99.561,90.86l-1.5-9.978Q97.333,75.89,96.67,70.888Z"/><path class="cls-2" d="M103.74,70.526q1.349,5.005,2.636,10.026l2.536,10.05,2.45,10.073q1.209,5.039,2.349,10.1-1.352-5.005-2.637-10.026L108.538,90.7l-2.449-10.072Q104.88,75.583,103.74,70.526Z"/><path class="cls-2" d="M111.9,70.707q1.529,4.911,3,9.84l2.9,9.867,2.813,9.892q1.391,4.951,2.713,9.922-1.532-4.911-3-9.839l-2.9-9.868-2.812-9.893Q113.22,75.678,111.9,70.707Z"/><path class="cls-2" d="M118.243,70.526q1.8,5,3.539,10.014l3.441,10.047,3.358,10.076q1.662,5.043,3.258,10.109-1.8-5-3.539-10.014L124.859,90.71,121.5,80.635Q119.839,75.592,118.243,70.526Z"/><path class="cls-2" d="M48.81,68.169q.03-3.924.125-7.846l.227-7.841.316-7.84q.174-3.918.42-7.835-.029,3.924-.124,7.846L49.547,52.5l-.317,7.839Q49.055,64.254,48.81,68.169Z"/><path class="cls-2" d="M57.331,68.169q-.152-3.9-.239-7.793l-.135-7.795-.046-7.8q-.008-3.9.057-7.8.153,3.9.239,7.794l.135,7.794.046,7.8Q57.394,64.271,57.331,68.169Z"/><path class="cls-2" d="M65.307,68.169q-.2-3.963-.329-7.928l-.226-7.93-.137-7.932q-.051-3.966-.033-7.935.2,3.965.33,7.928l.225,7.93.137,7.933Q65.325,64.2,65.307,68.169Z"/><path class="cls-2" d="M81.079,67.807q-.4-3.777-.736-7.557l-.634-7.566-.545-7.572q-.257-3.788-.441-7.58.4,3.777.736,7.557l.634,7.566.544,7.572Q80.894,64.015,81.079,67.807Z"/><path class="cls-2" d="M87.968,67.626q-.535-3.842-1.008-7.689l-.9-7.7-.818-7.71q-.391-3.856-.713-7.721.537,3.84,1.008,7.688l.905,7.7.817,7.71Q87.646,63.76,87.968,67.626Z"/><path class="cls-2" d="M96.307,67.988q-.648-3.951-1.234-7.911l-1.132-7.925L92.9,44.215q-.505-3.972-.941-7.952.651,3.951,1.235,7.911L94.322,52.1l1.044,7.938Q95.872,64.007,96.307,67.988Z"/><path class="cls-2" d="M111.716,68.169q-1.032-3.94-2-7.9l-1.9-7.921L106,44.409q-.892-3.974-1.714-7.965,1.033,3.942,2,7.9l1.9,7.921L110,60.2Q110.893,64.179,111.716,68.169Z"/><path class="cls-2" d="M41.015,39.707q9.313-.178,18.626-.263l18.627-.2L96.9,39.172q9.315-.057,18.629-.008-9.314.18-18.627.264l-18.626.2L59.643,39.7Q50.329,39.756,41.015,39.707Z"/><path class="cls-2" d="M33.582,107.69q12.531-.272,25.061-.445l25.062-.382,25.064-.253q12.531-.148,25.064-.189-12.529.271-25.061.445l-25.062.381-25.063.253Q46.115,107.647,33.582,107.69Z"/></svg>