<svg id="word" xmlns="http://www.w3.org/2000/svg" xmlns:xlink="http://www.w3.org/1999/xlink" viewBox="0 0 160 160"><defs><style>.cls-1,.cls-17,.cls-29{fill:none;}.cls-2{clip-path:url(#clip-path);}.cls-3{fill:#ceecfb;}.cls-4{fill:#a2d2ae;}.cls-5{fill:#e88fbb;}.cls-6{fill:#a2d2b3;}.cls-7{fill:#abdbf6;}.cls-8{fill:#1cbbed;}.cls-9{fill:#a7d185;}.cls-10{fill:#dee474;}.cls-11{fill:#24c1f1;}.cls-12{fill:#fae2d5;}.cls-12,.cls-13,.cls-14,.cls-15,.cls-16,.cls-17,.cls-18,.cls-21,.cls-22,.cls-23,.cls-24,.cls-25,.cls-26,.cls-27,.cls-28,.cls-29{stroke:#9b4d9c;stroke-miterlimit:10;stroke-width:0.574px;}.cls-13{fill:#e94594;}.cls-14{fill:#f6a92b;}.cls-15{fill:#f9decd;}.cls-16{fill:#fff;}.cls-17{stroke-linecap:round;}.cls-18{fill:#de8c3d;}.cls-19{fill:#9b4d9c;}.cls-20{fill:#30b59b;}.cls-21{fill:#f9ee5d;}.cls-22{fill:#e2b239;}.cls-23{fill:#f8ec1f;}.cls-24{fill:#68c9f2;}.cls-25{fill:#5ea29d;}.cls-26{fill:#53a4c5;}.cls-27{fill:#f1839b;}.cls-28{fill:#946580;}.cls-30{fill:#78ccf3;}</style><clipPath id="clip-path"><rect class="cls-1" x="14.5" y="13.5" width="132" height="132"/></clipPath></defs><g class="cls-2"><path class="cls-3" d="M180.384,96.041S63.321,69.982,45.737,73.542C22.6,78.225-31.726,91.649-19.131,101.156s52.8,36.117,84.562,36.117,147.517-13.588,151.815-17.582C234.729,103.446,180.384,96.041,180.384,96.041Z"/><path class="cls-4" d="M16.364,94.744,2.521,88.994c7.427-2.589,16.5-5.046,25.162-7.122l23.509,4.876Z"/><polygon class="cls-5" points="96.643 96.178 42.308 105.519 16.364 94.744 51.192 86.748 96.643 96.178"/><polygon class="cls-6" points="141.238 105.429 68.735 116.495 42.308 105.519 96.643 96.178 141.238 105.429"/><path class="cls-7" d="M51.192,86.748l29.933-6.871c16.989,2.476,37.549,6.174,55.064,9.5l-39.546,6.8Z"/><path class="cls-7" d="M-11.979,101.25c-4.8-3.749,2.765-8.164,14.5-12.256l13.843,5.75Z"/><path class="cls-8" d="M27.683,81.872c7.953-1.906,15.551-3.492,21.173-4.558,4.708-.893,17.056.345,32.269,2.563L51.192,86.748Z"/><path class="cls-9" d="M68.735,116.5l-42.064,6.42a221.184,221.184,0,0,1-21.76-10.966l37.4-6.43Z"/><path class="cls-10" d="M96.643,96.178l39.546-6.8c21.515,4.087,38.425,7.611,38.425,7.611s4.5.575,10.4,1.757l-43.773,6.682Z"/><path class="cls-8" d="M-11.979,101.25l28.343-6.506,25.944,10.775-37.4,6.43c-7.257-4.152-13.113-7.993-16.64-10.486C-11.829,101.393-11.888,101.321-11.979,101.25Z"/><path class="cls-5" d="M103.555,130.957c-15.307,1.272-28.513,2.092-36.305,2.092-12.958,0-27.419-4.44-40.579-10.134l42.064-6.42Z"/><path class="cls-11" d="M141.238,105.429l64.394,13.358c-13.649,3.128-64.272,9.028-102.077,12.17L68.735,116.5Z"/><path class="cls-7" d="M185.011,98.747c13.89,2.788,35.5,8.951,24.032,18.926a10.949,10.949,0,0,1-3.411,1.114l-64.394-13.358Z"/><path class="cls-12" d="M103.433,81.508c-1.435-1.22-4.582-2.762-4.753-3.931s6.125,2.09,6.936,1-4.582-3.112-6.59-4.087-2.394-4.3-2.063-5.094,2.605-3.628.849-4.416-3.25,2.92-3.437,3.171-3.085,3.267-3.085,3.267l-3.593.092h0s-12.891-3-14.4-2.766,9.822,7.2,11.774,7.475l1.824.753a3.489,3.489,0,0,1,1.758,1.31c.683,1.007,3.043,1.508,3.043,1.508s.9,1.584,1.329,2.41,1.611,2.906,2.844,3.173-.849-4.278-.662-4.529,1.57,1.651,2.115,2.317,1.93,2.39,2.741,1.3-2.491-3.247-2.373-4.5c.089-.949,2.42,1.579,4.407,2.757C103.174,83.358,105.309,83.1,103.433,81.508Z"/><path class="cls-13" d="M70.615,62.969l4.672,4.371S88,69.244,86.052,70.559c-5.221,3.517-3.378,5.573-3.378,5.573L71.953,73.22l-2.88-6.884S68.161,62.3,70.615,62.969Z"/><path class="cls-14" d="M39.394,86.608s-6.06.083-6.449,2.371a2.962,2.962,0,0,0,2.141,3.65,18.059,18.059,0,0,0,4.624.381Z"/><path class="cls-13" d="M53.334,75.372s-11.677,8.447-12.7,9.469a6.038,6.038,0,0,0-1.8,4.527c.1,1.9.341,2.92.292,4.381s-.876,1.655-.681,2.628,2.728,1.314,9.225,2.142,19.785,1.9,24.652.243,12.033-2.443,12.709-4.336,1.7-4.669.384-7.686-11.5-8.594-11.5-8.594Z"/><path class="cls-15" d="M56.925,52.586v8.437s2.726,7.918,5.97,7.529,4.284-6.49,4.284-6.49l4.153-6.88Z"/><path class="cls-15" d="M72.353,27.734s4.078,5.8,4.4,7.62a10.426,10.426,0,0,0,3.648,6.01c2.147,1.717,1.718,4.936.966,6.761s-4.8,7.085-8.156,8.371c-5.389,2.061-17.171-.93-20.068-3.685S46.7,41.578,47.133,38.466s2.79-11.7,7.19-12.878S70.729,25.32,72.353,27.734Z"/><path class="cls-16" d="M63.572,37.715s-.349-2.026-2.133-1.542-3.1,1.784-1.94,4.142,4,1.33,4.349.7S63.572,37.715,63.572,37.715Z"/><path class="cls-17" d="M55.894,32.665a2.284,2.284,0,0,1,.978-1.146,6.607,6.607,0,0,1,1.406-.611,7.876,7.876,0,0,1,3.953-.614"/><path class="cls-17" d="M68.7,41.652a2.4,2.4,0,0,1,.925-1.326,1.86,1.86,0,0,1,1.963.152c.572.393.7.37.946,1.017"/><path class="cls-18" d="M52.338,28.861a21.7,21.7,0,0,0,7.555-.4,8.9,8.9,0,0,1,5.559,0s.836-.322-.424-1.047a11.747,11.747,0,0,1-2.536-2.251,20.094,20.094,0,0,0,4.133,2.332,18.989,18.989,0,0,0,3.34.644l-2.9-1.449s.666,1.127,3.674,1.207,4.1,3.624,4.1,3.624L75.6,32.8s1.61.043.966-2.831-3.381-6.576-3.381-6.576,1.771-1.288,2.254,0,1.37-1.288-2.655-2.254-4.789-1.207-4.789-1.207a10.974,10.974,0,0,0,2.393-2.254c.3-.724-2.059,1.449-2.971,1.691s-9.122-.081-12.5.885-10.866,4.91-11.831,6.6-4.91,6.922-5.8,9.5-1.851,3.52-.965,5.382,1.69,3.15,1.126,5.162-1.529,2.9-.08,4.427-1.207,3.7.241,7.083a19.658,19.658,0,0,0,2.978,5.07l.161-2.656A18.442,18.442,0,0,0,44.088,65.6a7.226,7.226,0,0,0,4.386,1.761l-.94-1.761L51.508,66.9s-.564-3.636,0-5.166.563-2.36,1.621-2.29c3.214.213,4.532-2.183,4.29-2.188s-4.183-3.135-3.737-4.027.573.5,2.23,1.547,4.532,2.4,4.532,2.4a14.826,14.826,0,0,1-5.163-6.024c-1.019-2.492-3.587-10.225-3.587-10.225s2.622,2.717,3.024,2.958-1.408-1.452-1.233-5.217a50.356,50.356,0,0,0-.356-7.156A10.135,10.135,0,0,0,52.338,28.861Z"/><path class="cls-19" d="M63.73,39.108s-.2-1.2-1.248-.913a1.577,1.577,0,0,0-1.134,2.453,1.6,1.6,0,0,0,2.543.412A5.448,5.448,0,0,0,63.73,39.108Z"/><path class="cls-16" d="M76.337,34.6s-.35-2.026-2.133-1.542-3.1,1.783-1.94,4.142,4.005,1.33,4.349.7S76.337,34.6,76.337,34.6Z"/><path class="cls-19" d="M76.5,35.906s-.2-1.2-1.248-.913a1.577,1.577,0,0,0-1.135,2.452,1.6,1.6,0,0,0,2.544.412A5.465,5.465,0,0,0,76.5,35.906Z"/><path class="cls-17" d="M70.072,29.864a2.5,2.5,0,0,1,1.961-.471,4.559,4.559,0,0,1,1.887.827"/><path class="cls-19" d="M48.137,22.954a24.433,24.433,0,0,1,4.511-2.868,13.961,13.961,0,0,1,2.494-.994,8.414,8.414,0,0,1,2.681-.192,14.605,14.605,0,0,0,5.2-.594,4.113,4.113,0,0,0,2.239-1.263A1.239,1.239,0,0,0,65.4,15.81a.938.938,0,0,0-1.013-.656.957.957,0,0,1,1.046.642,1.294,1.294,0,0,1-.106,1.287,4.19,4.19,0,0,1-2.254,1.359,14.842,14.842,0,0,1-5.255.745,8.115,8.115,0,0,0-2.578.25,13.731,13.731,0,0,0-2.394,1.033A23.886,23.886,0,0,0,48.5,23.4Z"/><path class="cls-19" d="M48.927,23.265a12.521,12.521,0,0,1,5.855.388,34.173,34.173,0,0,1,5.391,2.211A34.194,34.194,0,0,0,54.71,23.93a12.118,12.118,0,0,0-5.658-.105Z"/><path class="cls-19" d="M48.561,23.037a3.19,3.19,0,0,1,1.323,1.417,8.175,8.175,0,0,1,.628,1.745,9.865,9.865,0,0,1,.207,3.645c-.16,1.209-.539,2.356-.614,3.548a3.8,3.8,0,0,0,1.159,3.241,3.864,3.864,0,0,1-1.3-3.248c.029-1.218.365-2.394.472-3.573a9.5,9.5,0,0,0-.337-3.5,4.234,4.234,0,0,0-1.788-2.757Z"/><path class="cls-19" d="M48.572,23.374l-.238,7.063c-.065,2.355-.213,4.709-.1,7.051a16.015,16.015,0,0,0,1.633,6.771,9.037,9.037,0,0,0,5.121,4.57,9.109,9.109,0,0,1-5.247-4.5,16.217,16.217,0,0,1-1.793-6.822c-.162-2.365-.061-4.724-.044-7.078L48,23.361Z"/><path class="cls-19" d="M48.379,23.416a10.362,10.362,0,0,0-3.415,3.649,14.148,14.148,0,0,0-1.641,4.805A20.644,20.644,0,0,0,43.159,37a7.367,7.367,0,0,0,1.959,4.648,7.435,7.435,0,0,1-2.1-4.631,20.779,20.779,0,0,1,.023-5.185,14.487,14.487,0,0,1,1.548-4.972,10.866,10.866,0,0,1,3.478-3.922Z"/><path class="cls-19" d="M52.591,42.713a30.736,30.736,0,0,0,2.124,4.6,15.521,15.521,0,0,0,3.033,4.02,10.831,10.831,0,0,0,4.415,2.382,10.194,10.194,0,0,0,2.511.356,2.039,2.039,0,0,0,1.2-.331,1.113,1.113,0,0,0,.479-1.1,1.132,1.132,0,0,1-.457,1.13,2.1,2.1,0,0,1-1.217.374,10.319,10.319,0,0,1-2.548-.289,11.038,11.038,0,0,1-4.569-2.3,15.849,15.849,0,0,1-3.215-4.019,31.232,31.232,0,0,1-2.289-4.613Z"/><path class="cls-19" d="M75.674,32.084a1.085,1.085,0,0,0,.2.5,5.825,5.825,0,0,0,.435.613,3.46,3.46,0,0,0,1.151.912,4.457,4.457,0,0,0,2.845.841A2.833,2.833,0,0,0,82.417,33a2.028,2.028,0,0,0,.1-1.492,1,1,0,0,0-1.257-.6,1.04,1.04,0,0,1,1.326.573,2.135,2.135,0,0,1-.031,1.574,4.319,4.319,0,0,1-.791,1.391,2.393,2.393,0,0,1-1.414.806,4.817,4.817,0,0,1-3.114-.744A3.9,3.9,0,0,1,75.9,33.53a6.232,6.232,0,0,1-.5-.654,1.3,1.3,0,0,1-.283-.956Z"/><path class="cls-13" d="M56.925,61.023s-3.162.2-3.591.7C50.593,64.906,48.222,79.1,48.222,79.1a15.4,15.4,0,0,0,12.87,3.914c8.249-1.063,12.828-4.864,12.828-4.864l-2.093-7.4-1.916-7.779-2.732-.907s-1.389,4.635-4.657,3.16A18.16,18.16,0,0,1,56.925,61.023Z"/><path class="cls-20" d="M66.932,68.3s-.7-3.226.588-3.043a1.226,1.226,0,0,1,1.012,1.518s2.368-.011.9,1.054A2.357,2.357,0,0,1,66.932,68.3Z"/><polygon class="cls-21" points="115.774 110.068 115.712 126.241 91.56 117.514 91.56 101.925 115.774 110.068"/><polygon class="cls-22" points="134.5 105.579 133.132 121.609 115.712 126.241 115.774 110.068 134.5 105.579"/><polygon class="cls-23" points="134.5 105.579 108.447 97.619 91.56 101.925 115.774 110.068 134.5 105.579"/><polygon class="cls-24" points="127.566 80.27 120.627 84.462 96.268 78.083 105.615 73.89 127.566 80.27"/><path class="cls-25" d="M109.864,98.772l-6.09,3.007s-1.77-12.03,0-14.947,6.09-1.367,6.09-1.367Z"/><path class="cls-24" d="M120.627,107.248V84.462L96.268,78.083V99.957l7.506,1.822-.283-10.754s-.284-7.109,4.956-5.469,4.674,11.119,4.674,11.119V104.7Z"/><polygon class="cls-26" points="127.566 104.331 120.627 107.248 120.627 84.462 127.566 80.27 127.566 104.331"/><polygon class="cls-27" points="104.614 66.252 95.624 45.64 83.344 62.744 104.614 66.252"/><path class="cls-28" d="M115.359,61.428l-10.745,4.824L95.624,45.64s6.359-3.947,6.578-4.605S115.359,61.428,115.359,61.428Z"/><path class="cls-12" d="M101.692,65.4c-1.747-.7-5.22-1.173-5.751-2.228s6.471.047,6.9-1.242-5.331-1.5-7.544-1.8-3.631-3.323-3.567-4.182,1.325-4.265-.59-4.457-2.161,3.8-2.259,4.094-1.895,4.075-1.895,4.075L83.6,60.891h0s-13.178,1.224-14.539,1.927-9.583-1.406-9.583-1.406L58,68.537s3.754.033,6.9-.178,7.943-.415,9.6-.692c1.314-.22,6.158-1.118,8.095-1.478l1.969.138a3.494,3.494,0,0,1,2.082.687c.965.74,3.363.47,3.363.47s1.358,1.218,2.023,1.866,2.447,2.248,3.7,2.112-2.157-3.79-2.059-4.088,2.01,1.071,2.738,1.531,2.587,1.657,3.012.368-3.39-2.294-3.675-3.523c-.215-.928,2.8.733,5.053,1.223C102.031,67.24,103.977,66.325,101.692,65.4Z"/><path class="cls-13" d="M73.92,61.481s-1.716.736-1.388,3.477a4.063,4.063,0,0,0,2.755,3.422s-5.427,1.076-6.692,1.9-3.034-.519-4-.11-11.634-.183-14.17-2.536c-3.987-3.7-1.4-7.665,2.7-8.191s13,1.462,14.564,1.344A43.915,43.915,0,0,1,73.92,61.481Z"/><path class="cls-29" d="M67.188,44.153a5.389,5.389,0,0,0,3.235.766,6.709,6.709,0,0,0,2.465-.453,4.6,4.6,0,0,0,2.263-2.078"/><path class="cls-30" d="M53.017,72.308s-2.3-1.2-.835-1.475S53.017,72.308,53.017,72.308Z"/><path class="cls-30" d="M53.13,72.676s-.568,1.835.52,2.072S53.13,72.676,53.13,72.676Z"/><path class="cls-30" d="M53.086,72.606s2.081-1.6,1.982-.35S53.086,72.606,53.086,72.606Z"/><path class="cls-30" d="M52.913,72.593s-1.928-.673-1.719.462S52.913,72.593,52.913,72.593Z"/><path class="cls-30" d="M59.366,95.567s-2.3-1.2-.836-1.475S59.366,95.567,59.366,95.567Z"/><path class="cls-30" d="M59.478,95.935s-.567,1.835.52,2.072S59.478,95.935,59.478,95.935Z"/><path class="cls-30" d="M59.435,95.864s2.08-1.6,1.981-.349S59.435,95.864,59.435,95.864Z"/><path class="cls-30" d="M59.261,95.851s-1.928-.672-1.718.463S59.261,95.851,59.261,95.851Z"/><path class="cls-30" d="M54.449,78.93s-2.3-1.2-.836-1.475S54.449,78.93,54.449,78.93Z"/><path class="cls-30" d="M54.562,79.3s-.568,1.835.519,2.072S54.562,79.3,54.562,79.3Z"/><path class="cls-30" d="M54.518,79.227s2.081-1.6,1.981-.349S54.518,79.227,54.518,79.227Z"/><path class="cls-30" d="M54.344,79.214s-1.927-.672-1.718.463S54.344,79.214,54.344,79.214Z"/><path class="cls-30" d="M51.329,90.9s-2.3-1.2-.835-1.475S51.329,90.9,51.329,90.9Z"/><path class="cls-30" d="M51.442,91.268s-.567,1.835.52,2.072S51.442,91.268,51.442,91.268Z"/><path class="cls-30" d="M51.4,91.2s2.081-1.6,1.982-.35S51.4,91.2,51.4,91.2Z"/><path class="cls-30" d="M51.225,91.185s-1.928-.673-1.718.462S51.225,91.185,51.225,91.185Z"/><path class="cls-30" d="M60.994,74.092s-2.3-1.2-.836-1.475S60.994,74.092,60.994,74.092Z"/><path class="cls-30" d="M61.106,74.46s-.567,1.835.52,2.072S61.106,74.46,61.106,74.46Z"/><path class="cls-30" d="M61.063,74.389s2.08-1.6,1.981-.349S61.063,74.389,61.063,74.389Z"/><path class="cls-30" d="M60.889,74.376s-1.928-.672-1.718.463S60.889,74.376,60.889,74.376Z"/><path class="cls-30" d="M71.238,94.646s-2.3-1.2-.835-1.475S71.238,94.646,71.238,94.646Z"/><path class="cls-30" d="M71.351,95.014s-.568,1.835.519,2.072S71.351,95.014,71.351,95.014Z"/><path class="cls-30" d="M71.307,94.943s2.081-1.6,1.982-.349S71.307,94.943,71.307,94.943Z"/><path class="cls-30" d="M71.133,94.93s-1.927-.672-1.718.463S71.133,94.93,71.133,94.93Z"/><path class="cls-30" d="M68.09,73.414s-2.3-1.2-.836-1.475S68.09,73.414,68.09,73.414Z"/><path class="cls-30" d="M68.2,73.782s-.567,1.835.52,2.072S68.2,73.782,68.2,73.782Z"/><path class="cls-30" d="M68.159,73.711s2.08-1.6,1.981-.349S68.159,73.711,68.159,73.711Z"/><path class="cls-30" d="M67.985,73.7s-1.927-.672-1.718.463S67.985,73.7,67.985,73.7Z"/><path class="cls-30" d="M69.548,85.974s-2.3-.968-.835-1.192S69.548,85.974,69.548,85.974Z"/><path class="cls-30" d="M69.661,86.27s-.567,1.483.52,1.674S69.661,86.27,69.661,86.27Z"/><path class="cls-30" d="M69.618,86.214s2.08-1.291,1.981-.282S69.618,86.214,69.618,86.214Z"/><path class="cls-30" d="M69.444,86.2s-1.928-.543-1.718.374S69.444,86.2,69.444,86.2Z"/><path class="cls-30" d="M58.259,85.882s-2.3-1.2-.836-1.475S58.259,85.882,58.259,85.882Z"/><path class="cls-30" d="M58.372,86.25s-.568,1.835.519,2.072S58.372,86.25,58.372,86.25Z"/><path class="cls-30" d="M58.328,86.179s2.081-1.6,1.981-.349S58.328,86.179,58.328,86.179Z"/><path class="cls-30" d="M58.154,86.166s-1.927-.672-1.718.463S58.154,86.166,58.154,86.166Z"/><path class="cls-30" d="M78.922,90.9s-2.3-1.2-.835-1.475S78.922,90.9,78.922,90.9Z"/><path class="cls-30" d="M79.035,91.268s-.568,1.835.519,2.072S79.035,91.268,79.035,91.268Z"/><path class="cls-30" d="M78.991,91.2s2.081-1.6,1.982-.35S78.991,91.2,78.991,91.2Z"/><path class="cls-30" d="M78.818,91.185s-1.928-.673-1.719.462S78.818,91.185,78.818,91.185Z"/><path class="cls-30" d="M47.92,83.9s-2.3-1.2-.836-1.475S47.92,83.9,47.92,83.9Z"/><path class="cls-30" d="M48.032,84.269s-.567,1.835.52,2.072S48.032,84.269,48.032,84.269Z"/><path class="cls-30" d="M47.989,84.2s2.081-1.6,1.981-.349S47.989,84.2,47.989,84.2Z"/><path class="cls-30" d="M47.815,84.185s-1.927-.672-1.718.463S47.815,84.185,47.815,84.185Z"/><path class="cls-30" d="M42.415,90.023s-2.3-.953-.835-1.174S42.415,90.023,42.415,90.023Z"/><path class="cls-30" d="M42.528,90.315s-.568,1.459.519,1.648S42.528,90.315,42.528,90.315Z"/><path class="cls-30" d="M42.484,90.259s2.081-1.271,1.982-.278S42.484,90.259,42.484,90.259Z"/><path class="cls-30" d="M42.311,90.248s-1.928-.534-1.719.368S42.311,90.248,42.311,90.248Z"/><path class="cls-30" d="M63.514,63.5s-2.3-1.2-.835-1.476S63.514,63.5,63.514,63.5Z"/><path class="cls-30" d="M63.627,63.87s-.568,1.836.519,2.072S63.627,63.87,63.627,63.87Z"/><path class="cls-30" d="M63.583,63.8s2.081-1.6,1.982-.349S63.583,63.8,63.583,63.8Z"/><path class="cls-30" d="M63.41,63.787s-1.928-.673-1.719.462S63.41,63.787,63.41,63.787Z"/><path class="cls-30" d="M56.558,66.383s-2.3-1.2-.835-1.476S56.558,66.383,56.558,66.383Z"/><path class="cls-30" d="M56.671,66.75s-.568,1.836.519,2.072S56.671,66.75,56.671,66.75Z"/><path class="cls-30" d="M56.627,66.68s2.081-1.6,1.982-.349S56.627,66.68,56.627,66.68Z"/><path class="cls-30" d="M56.453,66.667s-1.927-.673-1.718.462S56.453,66.667,56.453,66.667Z"/><path class="cls-30" d="M51.581,62.419s-1.471-1.572-.3-1.584S51.581,62.419,51.581,62.419Z"/><path class="cls-30" d="M51.583,62.8s-.846,1.688-.077,2.11S51.583,62.8,51.583,62.8Z"/><path class="cls-30" d="M51.566,62.721s1.937-1.19,1.579.009S51.566,62.721,51.566,62.721Z"/><path class="cls-30" d="M51.437,62.678s-1.307-.995-1.406.147S51.437,62.678,51.437,62.678Z"/><path class="cls-30" d="M74.908,82.394s-2.113-1.1-.767-1.354S74.908,82.394,74.908,82.394Z"/><path class="cls-30" d="M75.012,82.732s-.521,1.685.477,1.9S75.012,82.732,75.012,82.732Z"/><path class="cls-30" d="M74.972,82.667s1.91-1.467,1.818-.32S74.972,82.667,74.972,82.667Z"/><path class="cls-30" d="M74.812,82.655s-1.769-.617-1.577.425S74.812,82.655,74.812,82.655Z"/><path class="cls-30" d="M69.941,66.425s-1.574-.82-.571-1.009S69.941,66.425,69.941,66.425Z"/><path class="cls-30" d="M70.018,66.676s-.388,1.255.355,1.417S70.018,66.676,70.018,66.676Z"/><path class="cls-30" d="M69.988,66.628s1.423-1.093,1.355-.239S69.988,66.628,69.988,66.628Z"/><path class="cls-30" d="M69.869,66.619s-1.318-.46-1.175.316S69.869,66.619,69.869,66.619Z"/><path class="cls-30" d="M64.656,78.945s-2.3-1.2-.836-1.475S64.656,78.945,64.656,78.945Z"/><path class="cls-30" d="M64.769,79.312s-.568,1.836.519,2.073S64.769,79.312,64.769,79.312Z"/><path class="cls-30" d="M64.725,79.242s2.081-1.6,1.981-.349S64.725,79.242,64.725,79.242Z"/><path class="cls-30" d="M64.551,79.229s-1.927-.673-1.718.462S64.551,79.229,64.551,79.229Z"/><path class="cls-30" d="M65.385,90.425s-2.3-1.2-.835-1.476S65.385,90.425,65.385,90.425Z"/><path class="cls-30" d="M65.5,90.792s-.568,1.836.52,2.072S65.5,90.792,65.5,90.792Z"/><path class="cls-30" d="M65.454,90.722s2.081-1.6,1.982-.349S65.454,90.722,65.454,90.722Z"/><path class="cls-30" d="M65.281,90.709s-1.928-.673-1.719.462S65.281,90.709,65.281,90.709Z"/><path class="cls-30" d="M80.869,85.493s-2.3-1.2-.836-1.476S80.869,85.493,80.869,85.493Z"/><path class="cls-30" d="M80.981,85.86s-.567,1.836.52,2.072S80.981,85.86,80.981,85.86Z"/><path class="cls-30" d="M80.938,85.79s2.08-1.6,1.981-.349S80.938,85.79,80.938,85.79Z"/><path class="cls-30" d="M80.764,85.777s-1.928-.673-1.718.462S80.764,85.777,80.764,85.777Z"/><path class="cls-30" d="M75.775,71.3s-2.3-1.2-.836-1.475S75.775,71.3,75.775,71.3Z"/><path class="cls-30" d="M75.888,71.671s-.568,1.835.519,2.072S75.888,71.671,75.888,71.671Z"/><path class="cls-30" d="M75.844,71.6s2.081-1.6,1.981-.35S75.844,71.6,75.844,71.6Z"/><path class="cls-30" d="M75.67,71.588s-1.927-.673-1.718.462S75.67,71.588,75.67,71.588Z"/><path class="cls-30" d="M43.835,95.025s-1.168-.608-.424-.749S43.835,95.025,43.835,95.025Z"/><path class="cls-30" d="M43.892,95.211s-.288.931.264,1.051S43.892,95.211,43.892,95.211Z"/><path class="cls-30" d="M43.87,95.176s1.056-.811,1.005-.177S43.87,95.176,43.87,95.176Z"/><path class="cls-30" d="M43.782,95.169s-.978-.341-.872.235S43.782,95.169,43.782,95.169Z"/><path class="cls-30" d="M53.45,96.785s-1.168-.608-.424-.749S53.45,96.785,53.45,96.785Z"/><path class="cls-30" d="M53.507,96.971s-.288.931.264,1.051S53.507,96.971,53.507,96.971Z"/><path class="cls-30" d="M53.485,96.936s1.055-.811,1.005-.178S53.485,96.936,53.485,96.936Z"/><path class="cls-30" d="M53.4,96.929s-.978-.341-.872.234S53.4,96.929,53.4,96.929Z"/><path class="cls-30" d="M65.514,96.7s-1.168-.608-.424-.749S65.514,96.7,65.514,96.7Z"/><path class="cls-30" d="M65.571,96.884s-.288.931.263,1.051S65.571,96.884,65.571,96.884Z"/><path class="cls-30" d="M65.549,96.848s1.055-.811,1-.177S65.549,96.848,65.549,96.848Z"/><path class="cls-30" d="M65.46,96.842s-.977-.341-.871.234S65.46,96.842,65.46,96.842Z"/><path class="cls-30" d="M59.1,91.611s-1.167-.608-.424-.749S59.1,91.611,59.1,91.611Z"/><path class="cls-30" d="M59.157,91.8s-.288.931.264,1.051S59.157,91.8,59.157,91.8Z"/><path class="cls-30" d="M59.135,91.761s1.056-.81,1.005-.177S59.135,91.761,59.135,91.761Z"/><path class="cls-30" d="M59.047,91.755s-.978-.341-.871.234S59.047,91.755,59.047,91.755Z"/></g></svg>