<svg id="word" xmlns="http://www.w3.org/2000/svg" viewBox="0 0 160 160"><defs><style>.cls-1{fill:#90bde5;opacity:0.34;}.cls-2{fill:#f5b82a;}.cls-10,.cls-11,.cls-12,.cls-14,.cls-16,.cls-17,.cls-19,.cls-2,.cls-20,.cls-21,.cls-22,.cls-3,.cls-4,.cls-5,.cls-6,.cls-7,.cls-8,.cls-9{stroke:#9a4d9c;stroke-miterlimit:10;stroke-width:0.322px;}.cls-3{fill:#8cb3de;}.cls-4{fill:#969958;}.cls-5{fill:#b9bc6b;}.cls-6{fill:#dfc747;}.cls-7{fill:#fdeadd;}.cls-8{fill:#db68a2;}.cls-9{fill:#fff;}.cls-10,.cls-11{fill:none;}.cls-10{stroke-linecap:round;}.cls-12{fill:#dd8b3c;}.cls-13{fill:#9a4d9c;}.cls-14{fill:#3f5ca4;}.cls-15{fill:#def2fc;}.cls-16{fill:#43c1ec;}.cls-17{fill:#f7ddcc;}.cls-18{fill:#b5d9f2;}.cls-19{fill:#e86d33;}.cls-20{fill:#95622b;}.cls-21{fill:#c09569;}.cls-22{fill:#70481f;}</style></defs><path class="cls-1" d="M41.17,103.852s-30.348,7.091-19.57,9.076,16.45,4.822,11.628,6.24S-12.718,134.2,10.255,135.334s66.083,6.523,76.01,6.24c6.339-.181,27.8,1.7,37.722.85s24.674-.85,26.093-5.105,13.613-8.225-3.688-11.061S60.456,99.031,56.2,98.463,41.17,103.852,41.17,103.852Z"/><path class="cls-2" d="M112.117,60.151s-7.19,7.263-8.992,9.513a62.747,62.747,0,0,0-4.419,6.929l-.388.675s3.232,1.649,3.593,2.5,1.981-.222,2.3-1.243,3.743-3.255,6.081-5.451a76.423,76.423,0,0,0,5.339-5.86,25.587,25.587,0,0,0-1.262-3.475C113.812,62.7,112.117,60.151,112.117,60.151Z"/><path class="cls-3" d="M81.911,48.759s3.757,3.829,4.283,4.332,6.572,9.755,6.572,9.755l-5.072,3.312s-5.129-8.852-5.341-9.563-2.2-8.735-2.2-8.735S80.707,47.534,81.911,48.759Z"/><polygon class="cls-4" points="43.974 85.912 43.974 107.501 57.002 100.491 56.175 87.416 43.974 85.912"/><polygon class="cls-4" points="129.17 111.087 129.17 137.579 142.611 126.272 142.611 105.014 129.17 111.087"/><polygon class="cls-5" points="43.735 84.854 43.974 107.501 41.037 106.112 41.037 84.854 43.735 84.854"/><polygon class="cls-5" points="129.17 110.296 129.17 137.579 125.701 135.851 125.701 109.504 129.17 110.296"/><polygon class="cls-5" points="35.496 79.48 133.719 107.749 147.78 96.707 62.585 72.835 35.496 79.48"/><polygon class="cls-6" points="35.496 79.48 35.496 84.01 133.719 113.629 133.719 107.749 35.496 79.48"/><polygon class="cls-4" points="147.78 96.707 147.78 102.154 133.719 113.629 133.719 107.749 147.78 96.707"/><path class="cls-7" d="M60.474,68.448s-2.712,4.355-3.307,5.357a12.7,12.7,0,0,0-.764,2.747,5.877,5.877,0,0,1-1.159,2.227c-.254.254-1.886,1.115-2.4,1.428-2.8,1.7-2.431-.042-2.007-.183a3.844,3.844,0,0,0,1.075-.891s-2.375.368-2.714,1.074-2.714,1.555-2.714,1.131S47.5,79.812,47.5,79.812s-2.986,1.8-2.8.395c.056-.424,2.035-1.583,2.035-1.583s-2.55.679-2.123.085S47.583,77.1,47.583,77.1l3.082-1.188,1.95-.692,4.552-9.059Z"/><path class="cls-7" d="M67.937,44.362l1.442,3.9s1.641,2.54,3.507,2.116,1.651-3.533,1.651-3.533l-1.172-3.841Z"/><path class="cls-7" d="M79.21,26.72A60.429,60.429,0,0,1,80.783,34c-.015,1.359-.476,6.483-1.9,7.719a39.093,39.093,0,0,1-6.11,4.316c-1.625.532-6.344-.266-8.49-1.637s-5.214-4.961-5.548-8.809-.771-9.773,2.393-11.236,4.729-1.96,9.278-1.24A25.16,25.16,0,0,1,79.21,26.72Z"/><path class="cls-3" d="M61.492,52.758l-2.2,6.175a32.881,32.881,0,0,1-2.375,4.426c-.254.255-1.336,2.527-1.611,3.053a2.635,2.635,0,0,0,.169,2.431,1.635,1.635,0,0,1,2.672-.819c1.908,1.356,1.708,2.6,1.708,2.6s2.49-.282,2.151-3.59c-.2-1.922,2.908-6.41,2.908-6.41l-2.4-9.477Z"/><path class="cls-7" d="M64.375,84.306s-5.767,2.884-5.682,4.071,2.493,4.389,2.841,5c1.654,2.923,2.332,11.957,2.332,11.957L60.9,110.172l-3.477,2.969-.23-3.435s2.35-2.332,2.1-4.368-2.714-7.293-3.223-8.395S52.078,89.1,52.5,87.805c.774-2.4,6.79-8.757,6.79-8.757s5,1.585,6.021,2.4S64.375,84.306,64.375,84.306Z"/><path class="cls-7" d="M69.294,81.452S62.085,84.9,62.34,87.19s.864,14.384.908,14.63a21.556,21.556,0,0,1-.908,4.875c-.324,1.141-3.341,4.919-3.341,4.919s-1.188,2.036.627,2.8,6.445-2.884,6.445-2.884l.424-3.646a55.421,55.421,0,0,0,1.781-5.767,42.719,42.719,0,0,0,.339-7.463c-.254-1.527-.508-3.608-.254-3.882s6.954-3.666,6.954-3.666.139-2.933-.778-3.884a23.335,23.335,0,0,0-4.225-2.561Z"/><path class="cls-8" d="M58.354,117.132a25.027,25.027,0,0,0,5.088-2.352c.763-.537,3.062-1.521,3.315-1.812a6.521,6.521,0,0,0,.639-.875c-.017-.1-.037-.194-.053-.253-.084-.311-.169-1.046-.254-1.328a6.712,6.712,0,0,1,.056-1.244c0-.481.594-.876.142-1.018s-.833.848-.833.848a2.215,2.215,0,0,0-.044,1.046c.095.718.114.537-.808,1.159a41.86,41.86,0,0,1-3.743,1.909c-1.1.556-1.781.692-2.092.324s-1.127-1.745-1.127-1.745a7.385,7.385,0,0,1-1.53.7c-.82.255-1.413.594-2.29.962s-.593.65-.593.65-.064.1-.136.238a17.925,17.925,0,0,0,1.1,1.741A7.271,7.271,0,0,0,58.354,117.132Z"/><path class="cls-9" d="M66.757,112.968c-.253.291-2.552,1.275-3.315,1.812a25.027,25.027,0,0,1-5.088,2.352,7.271,7.271,0,0,1-3.166-1.051,17.925,17.925,0,0,1-1.1-1.741,2.721,2.721,0,0,0-.175.384,2.918,2.918,0,0,0,.622,1.555c.4.621,2.487,1.3,3.448,1.413s4.325-1.159,5.063-1.64,3.22-1.752,3.9-2.31a1.729,1.729,0,0,0,.448-1.649A6.521,6.521,0,0,1,66.757,112.968Z"/><path class="cls-9" d="M54.057,112.392l-.558-.814a.954.954,0,0,0,.162,1.39,1.992,1.992,0,0,0,1.62.391A4.854,4.854,0,0,1,54.057,112.392Z"/><path class="cls-8" d="M58.528,111.969a4.214,4.214,0,0,1-1.051-.864,3.392,3.392,0,0,1-.282-1.611,3.048,3.048,0,0,1-1.182.622,5.913,5.913,0,0,0-1.447.085,1.049,1.049,0,0,0-.905,1.212,1.122,1.122,0,0,0-.162.165l.558.814a4.854,4.854,0,0,0,1.224.967,3.875,3.875,0,0,0,.727-.147A18.031,18.031,0,0,0,58.528,111.969Z"/><path class="cls-9" d="M67.51,31.953s-1.865-.573-1.825,1.705,1.2,1.93,1.872,2.062C68.326,35.872,68.694,33.272,67.51,31.953Z"/><path class="cls-10" d="M67.953,39.132a1.133,1.133,0,0,1,.542.24,8.033,8.033,0,0,0,3.494,1.408,4.408,4.408,0,0,0,3.527-1.061"/><path class="cls-10" d="M64.5,30.7a3.659,3.659,0,0,1,1.324-.75,1.843,1.843,0,0,1,1.34.195"/><path class="cls-11" d="M74.274,30.247a9.052,9.052,0,0,1,2.363-.168c.356.022.782.117.9.455"/><path class="cls-12" d="M61.931,28.264a8.7,8.7,0,0,0,2.6,11.4A10.822,10.822,0,0,1,61.3,37.648c1.026,1.279,1.3,3.518,2.385,4.749A12.8,12.8,0,0,0,69.5,46.284c-.939.077-2.65-.046-3.589.032a12.563,12.563,0,0,1-5.023-.828l1.083,1.359L58.018,45a13.47,13.47,0,0,1-6.005-9.854c-.624-4.012.626-8.13,2.645-11.654A13.4,13.4,0,0,1,58.2,19.225a8.949,8.949,0,0,1,9.2-.7"/><path class="cls-12" d="M62.175,17.932c1.922-2.064,5.518-1.736,6.15-1.664.851.1,1.231.287,1.62.316a25.771,25.771,0,0,1,7.034,1.531,9.148,9.148,0,0,1,3.039,2.538,7.19,7.19,0,0,1,2,2.808c1.51,4.565,2.259,9.6.7,14.153-.581,1.7-1.467,3.284-2.095,4.969a8.431,8.431,0,0,0-.478,5.277l-.106.871s-1.715-2.36-1.582-2.968,1.362,3.86,1.362,3.86-3.438-.123-3.465-2.254-1.521.545-1.521.545l-1.125-2.179s2.3-1.749,2.932-2.235a11.213,11.213,0,0,0,2.464-5.2c.285-2.027-.364-9.932-.513-9.329s.353,4.715-.42,3.2a5.04,5.04,0,0,1-.719-2.294s-.722.511-.791.789-.952.7-1-.2a2.539,2.539,0,0,0-.6-1.477l-.56,2.275s-.17-.239-.775-1.324A2.84,2.84,0,0,0,72.084,28.6l.508,1.848a3.945,3.945,0,0,1-1.931-.722,27.109,27.109,0,0,1-3.105-2.291l1.065,2.379a5.752,5.752,0,0,1-2.659-1.492,20.193,20.193,0,0,1-2.268-3.266l.468,4.989-.919-2.786a5.277,5.277,0,0,0-.56,2.274c-.107,1.55.138,2.791.031,2.667a9.708,9.708,0,0,0-1.748-2.4c-1.348-1.415-1.192-2.684-1.561-4.35s.435-4.833,3.026-7.821"/><path class="cls-13" d="M67.508,33.4s-1.255-.385-1.228,1.148.808,1.3,1.259,1.388C68.057,36.042,68.305,34.292,67.508,33.4Z"/><path class="cls-9" d="M76.678,32.5s-1.865-.573-1.825,1.705,1.2,1.93,1.872,2.062C77.494,36.417,77.862,33.817,76.678,32.5Z"/><path class="cls-13" d="M76.744,33.819s-1.255-.385-1.228,1.147.808,1.3,1.259,1.388C77.293,36.456,77.54,34.707,76.744,33.819Z"/><path class="cls-14" d="M67.343,70.144l-1.741,2.8-5.128,3.61-3.9,3.655s3.477-.9,4.749.453,3.223,3.477,4.664,3.646,3.562-.593,4.75.594.424,1.06,2.8,2.905l2.375,1.844s3.477-1.611,5.258-2.544,5.3-3.153,6.53-4.975-2.29-12.58-2.29-12.58Z"/><ellipse class="cls-15" cx="59.85" cy="78.624" rx="0.441" ry="0.424"/><ellipse class="cls-15" cx="62.001" cy="79.472" rx="0.441" ry="0.424"/><ellipse class="cls-15" cx="64.4" cy="77.719" rx="0.441" ry="0.424"/><ellipse class="cls-15" cx="63.958" cy="81.452" rx="0.441" ry="0.424"/><ellipse class="cls-15" cx="69.961" cy="72.999" rx="0.441" ry="0.424"/><ellipse class="cls-15" cx="66.297" cy="79.939" rx="0.441" ry="0.424"/><ellipse class="cls-15" cx="84.941" cy="81.452" rx="0.441" ry="0.424"/><ellipse class="cls-15" cx="66.297" cy="83.063" rx="0.441" ry="0.424"/><ellipse class="cls-15" cx="65.126" cy="75.373" rx="0.441" ry="0.424"/><ellipse class="cls-15" cx="68.793" cy="75.217" rx="0.441" ry="0.424"/><ellipse class="cls-15" cx="67.276" cy="72.999" rx="0.441" ry="0.424"/><ellipse class="cls-15" cx="68.351" cy="78.624" rx="0.441" ry="0.424"/><ellipse class="cls-15" cx="69.52" cy="76.829" rx="0.441" ry="0.424"/><ellipse class="cls-15" cx="71.037" cy="80.872" rx="0.441" ry="0.424"/><ellipse class="cls-15" cx="71.226" cy="78.511" rx="0.441" ry="0.424"/><ellipse class="cls-15" cx="73.376" cy="79.359" rx="0.441" ry="0.424"/><ellipse class="cls-15" cx="74.343" cy="76.871" rx="0.441" ry="0.424"/><ellipse class="cls-15" cx="73.376" cy="82.483" rx="0.441" ry="0.424"/><ellipse class="cls-15" cx="72.204" cy="74.793" rx="0.441" ry="0.424"/><ellipse class="cls-15" cx="76.636" cy="74.213" rx="0.441" ry="0.424"/><ellipse class="cls-15" cx="74.354" cy="72.419" rx="0.441" ry="0.424"/><ellipse class="cls-15" cx="85.382" cy="74.637" rx="0.441" ry="0.424"/><ellipse class="cls-15" cx="77.077" cy="76.673" rx="0.441" ry="0.424"/><ellipse class="cls-15" cx="78.594" cy="80.716" rx="0.441" ry="0.424"/><ellipse class="cls-15" cx="78.988" cy="78.2" rx="0.441" ry="0.424"/><ellipse class="cls-15" cx="80.933" cy="79.203" rx="0.441" ry="0.424"/><ellipse class="cls-15" cx="85.823" cy="78.2" rx="0.441" ry="0.424"/><ellipse class="cls-15" cx="80.933" cy="82.327" rx="0.441" ry="0.424"/><ellipse class="cls-15" cx="79.761" cy="74.637" rx="0.441" ry="0.424"/><ellipse class="cls-15" cx="81.911" cy="75.485" rx="0.441" ry="0.424"/><ellipse class="cls-15" cx="81.911" cy="72.263" rx="0.441" ry="0.424"/><ellipse class="cls-15" cx="82.987" cy="77.889" rx="0.441" ry="0.424"/><ellipse class="cls-15" cx="73.078" cy="85.55" rx="0.441" ry="0.424"/><ellipse class="cls-15" cx="71.226" cy="83.938" rx="0.441" ry="0.424"/><ellipse class="cls-15" cx="76.203" cy="85.974" rx="0.441" ry="0.424"/><ellipse class="cls-15" cx="76.052" cy="88.696" rx="0.441" ry="0.424"/><ellipse class="cls-15" cx="78.594" cy="83.938" rx="0.441" ry="0.424"/><ellipse class="cls-15" cx="68.793" cy="81.452" rx="0.441" ry="0.424"/><ellipse class="cls-15" cx="75.762" cy="83.514" rx="0.441" ry="0.424"/><ellipse class="cls-15" cx="82.353" cy="83.938" rx="0.441" ry="0.424"/><ellipse class="cls-15" cx="76.052" cy="80.448" rx="0.441" ry="0.424"/><ellipse class="cls-15" cx="80.202" cy="86.342" rx="0.441" ry="0.424"/><path class="cls-3" d="M67.937,46.822s-4.156,1.526-4.749,2.714a12.514,12.514,0,0,0-.848,2.143s2.544,8.712,2.8,9.814.424,4.665.848,5.174a1.731,1.731,0,0,1,.34,1.526c-.085.509-.085,2.12-.085,2.12s7.208,2.12,10.516,1.781a75.879,75.879,0,0,0,9.977-2.374,34.491,34.491,0,0,1-1.186-5.6c-.48-3.477-1.159-2.374-1.413-5.766A23.635,23.635,0,0,0,82.7,52.08a17.011,17.011,0,0,0-1.769-3.756,1.8,1.8,0,0,0-.785-.739c-.933-.254-5.173-1.85-5.173-1.85H73.713s1.875,3.32-.954,3.888a3.219,3.219,0,0,1-3.38-1.359l-.51-1.379Z"/><path class="cls-10" d="M70.922,37.678c.233-.038.381-.262.568-.406a1.252,1.252,0,0,1,1.075-.163,3.706,3.706,0,0,1,1.007.5"/><path class="cls-7" d="M86.04,59.43S84.919,57,83.384,58.958c-.963,1.231.092,4.159,1.081,4.093s1.166-.585,1.166-.585"/><path class="cls-16" d="M90.973,70.05a3.91,3.91,0,0,0,3.893,1.011,18.179,18.179,0,0,1,5.314-.461s1.361,8.425,2.035,9.659-1.964,6.675-1.964,6.9-10.49,2.019-12.229,1.4a4.138,4.138,0,0,0-2.8-.168l-7.012-2.917s-1.683-3.983,1.907-4.263a14.4,14.4,0,0,1,6.563,1.121s-1.076-3.253.612-4.88,1.239-2.3,1.239-2.3l-.336-5.946Z"/><path class="cls-17" d="M97.933,69.208S97.2,73.147,95.77,73.1s-5.02-.044-4.909-1.546l.112-1.5Z"/><path class="cls-7" d="M96.831,47.43s-7.46.2-9.77,3.037A10.549,10.549,0,0,0,85.212,57.2a43.852,43.852,0,0,1-.037,5.545c.037,1.651.235,5.215,1.49,6.008s5.479,1.98,10.166,1.914,7.261-2.046,7.855-3.895,1.387-8.318,1.123-9.572-.753-6.242-3.235-7.789A16.114,16.114,0,0,0,96.831,47.43Z"/><path class="cls-9" d="M88.117,61.425s-.332-3.079,1.582-2.619a1.838,1.838,0,0,1,.777,3.266C89.486,62.8,88.2,62.414,88.117,61.425Z"/><path class="cls-7" d="M104.934,60.043s1.047-2.434,2.48-.472c.9,1.231-.085,4.159-1.01,4.093s-1.088-.585-1.088-.585"/><path class="cls-16" d="M83.2,69.713a9.62,9.62,0,0,0,3.029.393,14.648,14.648,0,0,0,1.964-.9s.617,3.646,0,5.217-3.121,3.029-4.141,1.907S83.2,69.713,83.2,69.713Z"/><path class="cls-7" d="M83.894,69.881s.69-3.646,1.932-4.151,1.86-1.178,3.038-.729a2.764,2.764,0,0,0,2.356-.147c.5-.19,1.514-.709,1.458,0S91.22,65.9,91.22,65.9a2.165,2.165,0,0,1,.28,1.627c-.224.9-.527.9-.527.9a1,1,0,0,1-.482.785,1.086,1.086,0,0,1-.9,0s-.91.673-1.128,0a1.791,1.791,0,0,1,0-1.178l-.779-.336a8.217,8.217,0,0,1,0,1.514c-.091.309-1.191.856-1.459.9S83.894,69.881,83.894,69.881Z"/><path class="cls-16" d="M93.632,87.607s2.917-3.253,5.217-3.478,5.89.9,5.89,2.693-1.459,4.678-4.263,4.835A45.257,45.257,0,0,0,93.969,92.7Z"/><path class="cls-13" d="M85.666,87.8a7.6,7.6,0,0,0-.31-3.046,4.347,4.347,0,0,0-1.879-2.386,4.427,4.427,0,0,1,2.029,2.33,7.827,7.827,0,0,1,.481,3.118Z"/><path class="cls-13" d="M87.989,88.479a10.532,10.532,0,0,0,.243-2.185,3.506,3.506,0,0,0-.664-2.062,3.584,3.584,0,0,1,.824,2.051,10.686,10.686,0,0,1-.085,2.242Z"/><path class="cls-17" d="M92.514,63.284a.667.667,0,0,1,.539-.868,1.074,1.074,0,0,1,1,.519"/><path class="cls-11" d="M91.444,64.236a3.265,3.265,0,0,1,1.114.317,3.986,3.986,0,0,1,.592.286,2.05,2.05,0,0,1,.931,1.879"/><path class="cls-17" d="M89.573,69.2a2.184,2.184,0,0,0-.394-1.775"/><path class="cls-17" d="M90.8,68.519c.151-.282-.019-.622-.187-.894l-.556-.907"/><path class="cls-16" d="M98.905,75.042s2.188,1.739,1.851,3.422a17.075,17.075,0,0,1-1.405,3.727s2.976-.53,3.873.2l.9.729s1.963-2.3.729-6.62-3.779-6.168-4.671-5.9C98.88,70.99,97.727,72.742,98.905,75.042Z"/><path class="cls-7" d="M99.351,82.191a5.278,5.278,0,0,1-1.066.841c-.393.168-2.412,1.178-1.515,1.739s2.188-.281,2.581.5-.449,2.3.336,2.805,1.4-.505,1.4-.505.575.772,1.074.646.89-1.432.89-1.432.2.872.76.592.7-1.209.7-1.209,1.066.046.73-.958-1.34-2.887-2.858-3.348A3.9,3.9,0,0,0,99.351,82.191Z"/><polygon class="cls-13" points="100.892 87.65 101.053 85.462 101.214 87.65 100.892 87.65"/><path class="cls-13" d="M102.88,86.628a5.274,5.274,0,0,0-.427-1.74,5.391,5.391,0,0,1,.737,1.654Z"/><path class="cls-13" d="M104.351,86.178a2.651,2.651,0,0,0-.605-1.782,2.8,2.8,0,0,1,.926,1.773Z"/><path class="cls-16" d="M90.614,88.486s-2.244-.112-2.693,1.573c-.371,1.394,1.458,1.737,1.543,1.737s.981,1.122,1.486,1.29a7.025,7.025,0,0,0,2.416.115,3.1,3.1,0,0,0,1.422-2.19c.113-.9,1.155-3.759-.08-4.095s-1.29-.449-1.907-.113-.712.786-1,1.122A3.037,3.037,0,0,1,90.614,88.486Z"/><path class="cls-16" d="M82.592,86.13a1.462,1.462,0,0,0,1.29.47c.785-.133,2.468.484,2.3,1.886s-1.234,2.861-2.244,2.8a12.756,12.756,0,0,0-2.917,0,3.713,3.713,0,0,1-3.2-.9,11.021,11.021,0,0,1-1.178-3.366c-.112-.393-.729-2.244.392-2.524a4.253,4.253,0,0,1,2.525.5c.449.113,1.8.393,2.244.449S82.592,86.13,82.592,86.13Z"/><path class="cls-13" d="M89.268,60.8s-.19-2.027.906-1.723a1.275,1.275,0,0,1,.444,2.149C90.052,61.708,89.317,61.455,89.268,60.8Z"/><path class="cls-9" d="M95.558,61.52s-.332-3.08,1.583-2.619a1.837,1.837,0,0,1,.776,3.265C96.927,62.893,95.644,62.508,95.558,61.52Z"/><path class="cls-13" d="M96.552,60.8s-.19-2.027.9-1.723A1.275,1.275,0,0,1,97.9,61.23C97.335,61.708,96.6,61.455,96.552,60.8Z"/><path class="cls-10" d="M87.694,57.565A2.756,2.756,0,0,1,88,56.913a1.736,1.736,0,0,1,1.14-.664,3.488,3.488,0,0,1,1.344.086"/><path class="cls-10" d="M95.97,56.923a2.74,2.74,0,0,1,.659-.289,1.734,1.734,0,0,1,1.3.251,3.478,3.478,0,0,1,.955.949"/><path class="cls-13" d="M97.263,47.877l-.089-.009a2.026,2.026,0,0,0-.227-.007,3.622,3.622,0,0,0-.842.123c-.174.044-.361.1-.557.172a2.727,2.727,0,0,0-.576.264,3.517,3.517,0,0,0-.97,1,7.739,7.739,0,0,0-1.109,2.45,7.429,7.429,0,0,0-.169.881c-.029.215-.038.339-.038.339s0-.124.018-.341a7.723,7.723,0,0,1,.12-.894,7.869,7.869,0,0,1,.989-2.558,3.8,3.8,0,0,1,.986-1.134,3.009,3.009,0,0,1,.623-.329c.2-.085.4-.157.58-.215a4.049,4.049,0,0,1,.926-.186c.112-.008.221-.007.276,0l.089,0Z"/><path class="cls-13" d="M96.334,47.6s-.993.29-1.157.364-.383.163-.65.27l-.425.175c-.073.032-.149.065-.22.1l-.1.053a1.187,1.187,0,0,0-.1.069,6.243,6.243,0,0,0-.754.788c-.13.15-.287.279-.406.407a3.443,3.443,0,0,0-.34.419,4.681,4.681,0,0,0-.462.85,6.253,6.253,0,0,0-.308.9,6.191,6.191,0,0,1,.232-.932,4.824,4.824,0,0,1,.4-.91,3.72,3.72,0,0,1,.32-.47c.126-.159.258-.284.369-.433a6.387,6.387,0,0,1,.741-.889c.042-.037.079-.064.113-.089.049-.033.087-.056.128-.079.081-.046.158-.085.233-.123l.424-.2c.261-.121.475-.222.618-.3a2.294,2.294,0,0,0,.212-.122Z"/><path class="cls-13" d="M97.955,47.677s-.509.381-.617.455a3.5,3.5,0,0,0-.4.325A4.4,4.4,0,0,0,96,49.73a4.445,4.445,0,0,0-.431,1.553,3.554,3.554,0,0,0-.012.54l.011.2-.03-.2a3.781,3.781,0,0,1-.039-.544A4.612,4.612,0,0,1,96.672,48.2a3.867,3.867,0,0,1,.407-.4.723.723,0,0,0,.161-.28Z"/><path class="cls-13" d="M94.655,47.843l-.287.033a5.887,5.887,0,0,0-.725.149,7.593,7.593,0,0,0-2.076.944,7.724,7.724,0,0,0-.988.734,2.173,2.173,0,0,0-.6.866,4,4,0,0,0-.182.741l-.044.289.025-.291a4.019,4.019,0,0,1,.135-.762,2.279,2.279,0,0,1,.568-.944,8.544,8.544,0,0,1,3.053-1.939,3.572,3.572,0,0,1,.708-.111,4.839,4.839,0,0,1,.579-.038Z"/><path class="cls-18" d="M91.233,79.3a4.413,4.413,0,0,1,2.644-.225,8.909,8.909,0,0,0,3,.225c.195,0,1.84-1.29.849-1.8s-1.39,0-1.39,0,1.452-1.8,0-2.188a1.223,1.223,0,0,0-1.7.841S94.542,73.8,92.8,74.478s-.548,2.21-.548,2.21-1.542-1.168-1.983-.118.378,1.385.378,1.385S89.606,78.909,91.233,79.3Z"/><path class="cls-19" d="M107.942,120.8a12.714,12.714,0,0,0,.483,3.559c.473,1.106,1.571,2.149,1.873,3.138a13.4,13.4,0,0,1,.425,1.954L97.013,132.3s-2.572-.067-2.835-.075.121-1.312.121-1.312,1.775-1.064,2.437-1.493a30.16,30.16,0,0,0,4.293-3.755,8.381,8.381,0,0,0,1.505-2.878c.225-.433-.071-2.06.35-1.992s-.321.661.783.925a3.291,3.291,0,0,0,2.395-.347C107.007,121.041,107.942,120.8,107.942,120.8Z"/><path class="cls-9" d="M91.66,131.879a4.109,4.109,0,0,1,1.577-.906l1.43-.279.069,1.693s-1.411-.2-1.777-.282S91.66,131.879,91.66,131.879Z"/><path class="cls-9" d="M91.156,132.232a1.386,1.386,0,0,0,.39,1.795c.99.676,4.283.183,5.513.093a59.268,59.268,0,0,0,6.429-1.583,30.731,30.731,0,0,1,4.607-.869,8.853,8.853,0,0,0,3.015-.618,8.353,8.353,0,0,0-.387-1.781l-7.817,1.525s-7.086,1.232-7.309,1.276-1.913-.107-1.913-.107l-2.024-.084Z"/><path class="cls-11" d="M98.536,128.134a4.6,4.6,0,0,1,.6.63,1.313,1.313,0,0,0,.724.46"/><path class="cls-11" d="M99.533,127.25a3.275,3.275,0,0,0,1.775,1.215"/><path class="cls-11" d="M100.853,126.017a2.742,2.742,0,0,0,1.426.911"/><path class="cls-11" d="M101.6,124.785a3.307,3.307,0,0,0,.6.454,4.61,4.61,0,0,0,.767.374"/><path class="cls-11" d="M102.29,123.69a1.408,1.408,0,0,0,1.221.547"/><path class="cls-11" d="M102.681,122.468a.379.379,0,0,0,.258.26,1.1,1.1,0,0,0,.38.038l1.393-.02"/><path class="cls-11" d="M97.374,129.016a2.548,2.548,0,0,0,.888,1.3"/><path class="cls-19" d="M124.915,119.042a12.73,12.73,0,0,0,1.7,3.161c.832.869,2.227,1.459,2.858,2.278a13.33,13.33,0,0,1,1.085,1.68l-11.829,7.494s-2.432.842-2.681.927-.347-1.27-.347-1.27,1.286-1.621,1.755-2.256a30.229,30.229,0,0,0,2.7-5.024,8.4,8.4,0,0,0,.395-3.224c.059-.485-.791-1.9-.373-1.988s-.068.732,1.058.591,1.353-.523,2.12-1.168S124.915,119.042,124.915,119.042Z"/><path class="cls-9" d="M113.573,135.142a4.1,4.1,0,0,1,1.157-1.4l1.241-.765.66,1.561s-1.392.305-1.762.361S113.573,135.142,113.573,135.142Z"/><path class="cls-9" d="M113.225,135.65a1.388,1.388,0,0,0,1,1.544c1.164.284,4.074-1.336,5.194-1.854a59.35,59.35,0,0,0,5.46-3.743,30.732,30.732,0,0,1,4.007-2.434,8.833,8.833,0,0,0,2.6-1.64,8.346,8.346,0,0,0-.989-1.531l-6.78,4.178s-6.2,3.647-6.393,3.766-1.827.573-1.827.573l-1.925.633Z"/><path class="cls-9" d="M124.747,122.183s-1.21,1.111-.553,2.128a1.317,1.317,0,0,0,2.243.07C126.7,123.741,126.333,121.655,124.747,122.183Z"/><path class="cls-11" d="M118.691,129.218a4.615,4.615,0,0,1,.786.378,1.318,1.318,0,0,0,.84.176"/><path class="cls-11" d="M119.314,128.039a3.272,3.272,0,0,0,2.089.513"/><path class="cls-11" d="M120.116,126.421a2.738,2.738,0,0,0,1.655.351"/><path class="cls-11" d="M120.379,125.006a3.253,3.253,0,0,0,.719.214,4.659,4.659,0,0,0,.849.081"/><path class="cls-11" d="M120.642,123.737a1.41,1.41,0,0,0,1.335.083"/><path class="cls-11" d="M120.578,122.456a.377.377,0,0,0,.333.152,1.092,1.092,0,0,0,.369-.1l1.3-.509"/><path class="cls-11" d="M117.915,130.452a2.546,2.546,0,0,0,1.286.9"/><path class="cls-20" d="M118.076,83.218s-9.015,4.871-10.466,5.329-7.162,5.727-7.7,8.629-.237,8.4-.39,9.393a29.508,29.508,0,0,0,0,3.741s.147,9.192,1.139,9.421.611.687,1.222,1.145.611.688,4.658.84,2.985-11.1,2.985-11.1a48.143,48.143,0,0,1-.757-5.956,15.861,15.861,0,0,1,.91-4.506c.381-.687,11.988-10.138,11.988-10.138l4.648-5.669Z"/><path class="cls-20" d="M125.4,86.867s-14.127,8.095-14.623,9.469-1.413,7.484-.955,9.393,3.284,6.414,3.971,7.33a70.073,70.073,0,0,1,3.909,8.155c0,.382,3.124,1.451,4.426.459a20.417,20.417,0,0,1,2.828-1.757l1.833-1.832-4.52-10.141s-.589-6.338-1.1-6.414.562.992.867-.306-.305-.534.306-1.3a8.625,8.625,0,0,1,1.6-1.44s4.429-1.538,6.262-2.149,6.643-.611,7.56-3.054.458-7.56.458-7.56Z"/><path class="cls-7" d="M116.845,53.213a8.215,8.215,0,0,1,.476,3.593,1.068,1.068,0,0,0,.05.592.927.927,0,0,0,.415.356,6.418,6.418,0,0,0,4.492.591,1.255,1.255,0,0,0,.533-.229,1.364,1.364,0,0,0,.364-.889,24.419,24.419,0,0,0-.21-8.068,9.984,9.984,0,0,1-3.2,2.325,13.1,13.1,0,0,0-2.665,1.3"/><path class="cls-7" d="M104.148,36.01a44.093,44.093,0,0,1-.814,5.906c-.408,1.018-.713,4.378,2.239,8.043s2.953,4.582,5.906,4.785,6.516.1,8.552-2.036,4.48-2.545,5.295-5.4S129.3,32.549,129.3,32.549s.509-3.36-7.637-3.36-17.512,3.36-17.512,4.072Z"/><path class="cls-21" d="M121.66,33.261a15.073,15.073,0,0,1-4.887,2.138c-2.545.51-4.378.917-4.378.917l1.324-2.138L111.784,35.6a6.28,6.28,0,0,0-1.731.713c-.814.509-3.36.509-3.665.509s2.624-2.342,2.624-2.342a32.337,32.337,0,0,0-4.355,2.342c-.644.628-1.58,1.527-1.58,1.527a19.9,19.9,0,0,1,0-2.036,21.227,21.227,0,0,1,1.071-4.175l-2.138,3.106a17.143,17.143,0,0,1,1.067-4.735,16.44,16.44,0,0,1,2.089-2.85h-2.089a24.412,24.412,0,0,1,4.94-2.648c1.629-.407,1.629-2.036,6.007-2.138S124,24,125.122,25.218a20.589,20.589,0,0,0,1.731,1.731l-1.324-3.258s2.342,1.527,2.342,2.036v1.935l1.935-2.75-.917,3.157a3.443,3.443,0,0,1,2.037.3,8.727,8.727,0,0,1,1.832,1.527l-3.455-.712s2.132,3.258,2.437,4.989a45.114,45.114,0,0,1,.306,7.33,4.756,4.756,0,0,1-1.426,2.749s-3.613-.712-4.453,0a6.038,6.038,0,0,1-2.211,1.019,8.221,8.221,0,0,1,0-3.869c.555-1.629,0-5.091,0-5.091l-1.583,2.24Z"/><path class="cls-11" d="M110.155,41.2s-.611,2.953-1.629,3.462-.1,1.12,0,1.629,1.018.712,1.018.712"/><path class="cls-11" d="M107.454,48.985a1.764,1.764,0,0,1,.8.239,3.185,3.185,0,0,0,.9.156,15.114,15.114,0,0,0,2.6.044,5.057,5.057,0,0,0,2.436-.826"/><path class="cls-11" d="M115.4,38.337a4.655,4.655,0,0,1,3.55,1.4"/><path class="cls-11" d="M104.7,38.624a3.616,3.616,0,0,0,1.111-.409,2.588,2.588,0,0,1,1.13-.333.976.976,0,0,1,.936.6"/><path class="cls-7" d="M125.56,44.4a3.119,3.119,0,0,1,4.063-.961,1.7,1.7,0,0,1,.752.8c.3.779-.266,1.595-.717,2.3a10.861,10.861,0,0,1-1.2,1.762,3.522,3.522,0,0,1-2.181,1.055,2.026,2.026,0,0,1-1.087-.153,2.9,2.9,0,0,1-1.218-2.1"/><path class="cls-2" d="M116.845,56.857a9.421,9.421,0,0,0-3.455,1.974c-.835.864-2.148,2.431-2.148,2.431s5.141,7.126,5.6,9.417,1.532,8.552,1.3,10.232a14.018,14.018,0,0,0,.031,3.436S127.617,90.38,131.664,90a18.154,18.154,0,0,0,7.33-2.52s-.152-2.138-1.069-7.025-2.978-12.523-3.818-15.807-1.719-5.727-3.647-6.491-5.822-2.978-5.822-2.978-1.6,1.986-2.978,1.986S116.845,56.857,116.845,56.857Z"/><path class="cls-9" d="M107.377,39.445a1.326,1.326,0,0,0-1.905,1.075c-.41,1.748-.2,2.353,1.227,2.555S108.533,41.125,107.377,39.445Z"/><path class="cls-2" d="M131.587,80c-.916,2.672-5.727,8.018-7.616,9.621a30.757,30.757,0,0,1-3.841,2.749,11.843,11.843,0,0,0-.684-2.349,8.19,8.19,0,0,0-2.062-1.851s.306-1.527.764-1.527,3.665-7.712,4.123-8.781,3.437-2.291,3.131-8.4c0,0,3.193-11.356,6.165-9.524s3.689,9.141,2.311,14.029C133.616,74.892,131.587,80,131.587,80Z"/><path class="cls-2" d="M117.288,55.019a1.444,1.444,0,0,1-.545.363c-.459.188-.37.5-.553.712a2.457,2.457,0,0,0-.324,1.294s.065,1.073,3.082,1.836,4.316-.534,5.538-1.374a7.245,7.245,0,0,0,1.822-1.749s-.142-1.382-1.288-1.611a2.381,2.381,0,0,1-1.606-1.2,2.529,2.529,0,0,1-1.143,2.88C118.037,58.344,117.288,55.019,117.288,55.019Z"/><path class="cls-7" d="M120.348,91.088l-.673,1.506a7.4,7.4,0,0,1,0,1.871,15.756,15.756,0,0,1-1.756,2.291,14.644,14.644,0,0,0-.726,2.673c-.153.649-.916,1.489-1.031.763a11.972,11.972,0,0,1,.229-2.329c0-.343.306-1.183.115-1.183a10.9,10.9,0,0,0-1.871,1.8c0,.1-.21,2.272-.305,2.509-.29.721-1.108.764-1.184.267a19.457,19.457,0,0,1,0-2.138s-.305,2.395-.8,2.343-.458-.777-.534-1.5a11.419,11.419,0,0,1,.93-3.026s-1.494,3.233-1.961,2.95c-.717-.434,0-2.215,0-2.215l2.1-2.519s-1.488,1.887-1.87,1.794-1.3-.534-.8-1.184,1.3-.61,1.6-1.183a5.349,5.349,0,0,1,2.214-1.8c1.146-.611.878-.191,1.413-1.221a20.659,20.659,0,0,1,2.465-3.035s1.436.805,1.887,1.087S120.348,91.088,120.348,91.088Z"/><path class="cls-13" d="M113.058,99.148a3.419,3.419,0,0,1,.64-1.857,2.552,2.552,0,0,1,1.447-1.219,2.48,2.48,0,0,0-1.31,1.3,3.2,3.2,0,0,0-.456,1.762Z"/><path class="cls-13" d="M106.562,40.264s-.913-.473-1.163.756-.125,1.654.749,1.8S107.268,41.445,106.562,40.264Z"/><path class="cls-9" d="M115.844,40.244a1.327,1.327,0,0,0-1.906,1.076c-.409,1.748-.2,2.353,1.228,2.555S117,41.925,115.844,40.244Z"/><path class="cls-13" d="M115.029,41.063s-.913-.472-1.163.756-.125,1.655.749,1.8S115.734,42.245,115.029,41.063Z"/><path class="cls-22" d="M116.631,119.976a8.965,8.965,0,0,0,.688,2.329c.34.385.735.272.848.951a4.637,4.637,0,0,0,.735,1.529l.849-.819a26.327,26.327,0,0,1,3.382-1.661c1.536-.576,4.363-1.65,4.815-2.329a13.107,13.107,0,0,0,.962-2.035s-.735-1.131-1.244-1.866-1-.147-1.6.379-2.207,1.317-2.932,1.826S116.631,119.976,116.631,119.976Z"/><path class="cls-22" d="M99.533,117.545s-.269,3.917,0,4.173.961.1,1.515.283a20.533,20.533,0,0,1,1.852,1.028c.794.4,1.925-.282,3.112,0a34.121,34.121,0,0,1,3.336,1.213c.452.144.3-.132.714-1.634a9.269,9.269,0,0,0,0-3.566s.642-.37-1.28,0-2.94.761-4.579,0A32.994,32.994,0,0,0,99.533,117.545Z"/></svg>