<svg id="word" xmlns="http://www.w3.org/2000/svg" viewBox="0 0 160 160"><defs><style>.cls-1{fill:#fde2d4;}.cls-1,.cls-3{stroke:#9d4b9c;stroke-miterlimit:10;}.cls-2{fill:#9d4b9c;}.cls-3{fill:none;stroke-linecap:round;}.cls-4{fill:#ecc6c0;}</style></defs><path class="cls-1" d="M83.822,16.573s-.108,26.532-.752,31.27,1.485,10.007,2.088,11.93-.473,4.73-.473,4.73l-3.354,35.875s.792,9.874-.79,12.865-7.588,10.718-8.506,13.193-3.926,8.126-5.454,8.516-5.31,4.124-7.368,4.211-7.507,1.132-7.247,3.07a4.445,4.445,0,0,0,1.154,2.712s-.218,2.77,1.705,3.5a10.141,10.141,0,0,0,3.637.658,4.051,4.051,0,0,0,3.331,1.482,17.565,17.565,0,0,0,3.429-.146,5.674,5.674,0,0,0,4.024,1.616l3.6-.154a11.435,11.435,0,0,0,9.018,1.89,7.725,7.725,0,0,0,5.922-5.774,9.224,9.224,0,0,0,3.758-4.262c1.241-2.935.751-6.162,3.782-7.509s8.914-4.2,9.683-6.178-1.032-7.59-2.036-10.8.1-12.673,1.088-15.638,6.631-14.9,7.5-18.51.566-13.506.511-19.025C111.911,50.19,120.7,16.58,120.7,16.58Z"/><path class="cls-2" d="M72.445,152.2a4.676,4.676,0,0,1-.29-.494,5.457,5.457,0,0,1-.5-1.388,4.541,4.541,0,0,1-.078-1,3.583,3.583,0,0,1,.25-1.1,3.764,3.764,0,0,1,.644-1l.437-.405c.154-.123.324-.224.485-.335a8.387,8.387,0,0,1,1.019-.53c.341-.145.663-.291.971-.447a14.732,14.732,0,0,0,1.633-.966,11.031,11.031,0,0,0,1.454-1.159,11.1,11.1,0,0,1-1.361,1.284,15.031,15.031,0,0,1-1.572,1.117c-.3.187-.625.367-.948.537a7.9,7.9,0,0,0-.912.575c-.136.113-.282.216-.409.335l-.346.38a3.128,3.128,0,0,0-.455.849,2.842,2.842,0,0,0-.122.872,3.714,3.714,0,0,0,.13.791,4.543,4.543,0,0,0,.511,1.114,3.394,3.394,0,0,0,.261.371Z"/><path class="cls-2" d="M64.952,150.8a1.071,1.071,0,0,1-.144-.111,1.1,1.1,0,0,1-.27-.409,2.164,2.164,0,0,1-.116-.519,5.4,5.4,0,0,1-.046-.616,5.208,5.208,0,0,1,.942-3.028,2.792,2.792,0,0,1,1.3-1.093A12.28,12.28,0,0,1,68,144.672l1.336-.3-1.293.454a12.258,12.258,0,0,0-1.292.5,2.393,2.393,0,0,0-1.007,1.069,4.533,4.533,0,0,0-.523,2.71,4.367,4.367,0,0,0,.095.5,1.2,1.2,0,0,0,.1.314c.031.051.043.044.043.044-.037-.03.016,0,.016,0Z"/><path class="cls-2" d="M57.963,149.136l.068-1.192.033-.577c.02-.2.006-.422.041-.7a1.33,1.33,0,0,1,.4-.778,5.138,5.138,0,0,1,.585-.471,6.032,6.032,0,0,1,2.427-1.1,3.665,3.665,0,0,1,.869-.052c.209.014.326.033.326.033s-.119,0-.326.01a3.642,3.642,0,0,0-.833.161,5.7,5.7,0,0,0-2.143,1.332,4.536,4.536,0,0,0-.461.481.66.66,0,0,0-.159.447c0,.169.035.38.045.584l.042.572.088,1.182Z"/><path class="cls-2" d="M52.76,145.518l.018-.29a3.4,3.4,0,0,1,.154-.837,1.79,1.79,0,0,1,.811-.983,5.675,5.675,0,0,1,1.165-.482,7.565,7.565,0,0,1,2.249-.322,6.727,6.727,0,0,1,1.015.081,6.715,6.715,0,0,0-1,.075,7.227,7.227,0,0,0-2.078.632,5.11,5.11,0,0,0-.955.577.987.987,0,0,0-.389.648,2.57,2.57,0,0,0-.01.615l.024.266Z"/><path class="cls-3" d="M100.958,110.851a22.97,22.97,0,0,0-.055,3.918,6.078,6.078,0,0,1-.977,3.739,2.973,2.973,0,0,1-3.558,1.022"/><path class="cls-4" d="M85.718,60.028s5.83,1.642,7.235,0a15.926,15.926,0,0,1,3.079-2.722s-2.369,6.626-5.157,7.058a7.417,7.417,0,0,1-5.157-1.443Z"/><path class="cls-2" d="M65.341,45.272a.616.616,0,0,1,.586-.456.73.73,0,0,1,.795.533c.539,3.074,2.78,6.059,6.147,8.19a25.818,25.818,0,0,0,11.015,3.542.67.67,0,0,1,.649.659.628.628,0,0,1-.746.511,27.447,27.447,0,0,1-11.715-3.784c-3.683-2.33-6.137-5.615-6.733-9.01A.5.5,0,0,1,65.341,45.272Z"/><path class="cls-2" d="M76.364,53.085a.514.514,0,0,1,.127-.244.778.778,0,0,1,.978-.078,55.7,55.7,0,0,0,8.366,4.6c.543.241.669.647.556.942a.786.786,0,0,1-.66.46,81.956,81.956,0,0,1-9.688,1.256.729.729,0,0,1-.79-.54.582.582,0,0,1,.6-.635,80.938,80.938,0,0,0,8.195-.993,57.15,57.15,0,0,1-7.406-4.183A.578.578,0,0,1,76.364,53.085Z"/></svg>