<svg id="word" xmlns="http://www.w3.org/2000/svg" viewBox="0 0 160 160"><defs><style>.cls-1{fill:#8e9c63;}.cls-1,.cls-10,.cls-11,.cls-4,.cls-5,.cls-8,.cls-9{stroke:#9d4b9c;}.cls-1,.cls-13,.cls-14,.cls-15,.cls-17,.cls-18,.cls-4,.cls-5,.cls-9{stroke-miterlimit:10;}.cls-1,.cls-10,.cls-11,.cls-13,.cls-14,.cls-15,.cls-17,.cls-18,.cls-4,.cls-5,.cls-8,.cls-9{stroke-width:0.75px;}.cls-2{fill:#838587;}.cls-3{fill:#75acc4;}.cls-11,.cls-18,.cls-4{fill:none;}.cls-5{fill:#dfe0e1;}.cls-6{fill:#67747c;}.cls-7{fill:#499dbd;}.cls-8{fill:#ed9038;}.cls-9{fill:#f8ed53;}.cls-10{fill:#bd752b;}.cls-12{fill:#f0a34b;}.cls-13,.cls-15{fill:#fbe4d6;}.cls-13,.cls-14,.cls-15,.cls-17,.cls-18{stroke:#9c4c9c;}.cls-14{fill:#fff;}.cls-15,.cls-18{stroke-linecap:round;}.cls-16{fill:#9c4c9c;}.cls-17{fill:#895d3b;}</style></defs><path class="cls-1" d="M81.06,75.414a23.338,23.338,0,0,0-1.3,3.715A15.414,15.414,0,0,1,70.8,88.482c-1.834.7-3.826,1.063-5.485,2.115S62.4,93.726,63.1,95.56c.815,2.121,3.544,2.605,5.811,2.765a40.972,40.972,0,0,0,10.464-.156,13.8,13.8,0,0,0,8.843-5.154A11.976,11.976,0,0,0,90.092,88.6a14.61,14.61,0,0,0-1.64-10.1C86.963,75.856,83.414,71.032,81.06,75.414Z"/><path class="cls-2" d="M102,128.727a10.586,10.586,0,0,1,.405,1.083l-.405.107c-7.711,3.629-13.339,3.938-21.859,3.784.583-2.249-.393-3.047-1.94-4.772l-.131-.405c1.976-.714,4.689-.88,6.676-1.88,2.677-1.344,4.9-.595,5.355-3.867a13.9,13.9,0,0,0-.441-5.8c.346.155,6.462,2.939,8.913,2.225,2.535-.738,2.832,4.165,2.832,4.165S101.265,127.085,102,128.727Z"/><path class="cls-3" d="M80.144,133.7c8.52.154,14.148-.155,21.859-3.784l.405-.107a8.9,8.9,0,0,1,.488,3.379c-.155.595-.024.416-2.464.512s-7.056,2.165-9.138,2.9-8.187.155-11.3-1.19-5.331-4.3-3.629-5.938a4.343,4.343,0,0,1,1.713-.952l.131.405C79.751,130.654,80.727,131.452,80.144,133.7Z"/><path class="cls-4" d="M89.663,116.982c.346.155,6.462,2.939,8.913,2.225,2.535-.738,2.832,4.165,2.832,4.165s-.143,3.713.595,5.355a10.586,10.586,0,0,1,.405,1.083,8.9,8.9,0,0,1,.488,3.379c-.155.595-.024.416-2.464.512s-7.056,2.165-9.138,2.9-8.187.155-11.3-1.19-5.331-4.3-3.629-5.938a4.343,4.343,0,0,1,1.713-.952c1.976-.714,4.689-.88,6.676-1.88,2.677-1.344,4.9-.595,5.355-3.867a13.9,13.9,0,0,0-.441-5.8l-.011-.012"/><path class="cls-4" d="M78.2,128.929c1.547,1.725,2.523,2.523,1.94,4.772,8.52.154,14.148-.155,21.859-3.784"/><path class="cls-5" d="M79.686,102.367c-3.289,2.273-4.1,7.132-2.445,10.771s5.273,6.093,9.1,7.234,7.9,1.138,11.9,1.029a4.844,4.844,0,0,0,3.1-.812c1.015-.871,1.132-2.373,1.175-3.71l.5-15.823c.067-2.112-.013-4.559-1.68-5.859-1.428-1.114-3.444-.912-5.237-.654L82.478,96.5"/><path class="cls-6" d="M120.42,122.864l-.072.167c-2.13,1.809-2.487,3.165-3.094,5.9s-1.832,5.759-4.486,6.616c-1.88.607-3.915-.083-5.676-.94a18.832,18.832,0,0,0-4.95-2,19.719,19.719,0,0,0,2.582-2.594c1.642-2.225,4.474-3.415,2.094-5.652a12.178,12.178,0,0,0-4.474-2.833l12.947-2.07A30.9,30.9,0,0,0,120.42,122.864Z"/><path class="cls-7" d="M120.788,123.031c2.238.88-.88,3.117-1.475,5.045s0,5.51-2.832,7.592a12.775,12.775,0,0,1-8.032,2.38c-2.38,0-9.222,1.19-8.627-1.785a6.7,6.7,0,0,1,2.32-3.653,18.832,18.832,0,0,1,4.95,2c1.761.857,3.8,1.547,5.676.94,2.654-.857,3.879-3.891,4.486-6.616s.964-4.093,3.094-5.9l.072-.167C120.55,122.924,120.669,122.983,120.788,123.031Z"/><path class="cls-4" d="M102.142,132.61a19.719,19.719,0,0,0,2.582-2.594c1.642-2.225,4.474-3.415,2.094-5.652a12.178,12.178,0,0,0-4.474-2.833l12.947-2.07a30.9,30.9,0,0,0,5.129,3.4c.13.06.249.119.368.167,2.238.88-.88,3.117-1.475,5.045s0,5.51-2.832,7.592a12.775,12.775,0,0,1-8.032,2.38c-2.38,0-9.222,1.19-8.627-1.785A6.7,6.7,0,0,1,102.142,132.61Z"/><path class="cls-4" d="M101.607,132.527a2.679,2.679,0,0,1,.535.083,18.832,18.832,0,0,1,4.95,2c1.761.857,3.8,1.547,5.676.94,2.654-.857,3.879-3.891,4.486-6.616s.964-4.093,3.094-5.9"/><path class="cls-5" d="M118.446,120.351l-9.635-6.642c-.792-.546-4.475-1.474-4.527-2.435-.063-1.153,3.893-1.735,4.956-2.184,1.974-.832,4.137-1.178,6.058-2.125a10.867,10.867,0,0,0,5.913-9.938l-.417-5.536L96.4,96.846l-5.355,8.925a25.607,25.607,0,0,0-3.273,5.354c-.613,1.773.149,3.273,1.868,4.689,1.445,1.19,2.588,2.665,4.208,3.6l10.472,6.068s1.153,2.6,5.318-.974A18.582,18.582,0,0,1,118.446,120.351Z"/><path class="cls-1" d="M97.739,65.313s-.843-.7,2.281.942,15.32,8.379,19.039,14.477,2.925,6.446,4.413,8.528,2.975,4.016-1.339,3.57-14.131,4.462-23.8,5.5-19.188,2.082-19.188,2.082l-5.057-3.867s7.288-1.934,8.33-7.735,0-18,0-18l-1.19-.892Z"/><path class="cls-8" d="M63.547,92.233s-14.217-2.419-18.641-.708c-6.595,2.55-14.157,11.326-7.55,21.708s27.842,11.325,33.977,9.91S84.909,112.168,83.6,104.031C82.154,95.013,77.046,89.373,63.547,92.233Z"/><path class="cls-1" d="M102.672,73.433s-1.8-.164-4.1,2.048S86.288,90.8,85.879,92.11s-.82,2.375-3.769,3.113-7.136,12.934-7.71,14-2.831,4.484-2.831,4.484a6.392,6.392,0,0,1,4.011,1.887,7.181,7.181,0,0,1,1.888,4.011s5.134-5.7,5.3-5.949S94.48,99.319,95.791,96.861,108.16,83.1,108.078,78.43,102.672,73.433,102.672,73.433Z"/><path class="cls-9" d="M74.636,109.457s-5.191,4.719-8.966,4.719-4.247,2.832-.944,3.3l3.3.472s-.944,3.775-3.776,4.247-8.494,3.775-3.775,6.135,13.685-3.3,16.989-8.023S74.636,109.457,74.636,109.457Z"/><path class="cls-10" d="M58.238,94.59a7.441,7.441,0,0,0,1.086-2.605c.155-1.216.466-4.169.466-4.169l-1.552-1.39,3.57-1.39a6.617,6.617,0,0,1,.621,2.085,20.588,20.588,0,0,0,1.086,4.69,7.817,7.817,0,0,1,.621,2.606S60.566,96.154,58.238,94.59Z"/><path class="cls-11" d="M58.356,94.651a13.325,13.325,0,0,0-7.069,1.494,8.987,8.987,0,0,0-3.734,4.39A15.242,15.242,0,0,0,46.5,106.27"/><path class="cls-11" d="M61.187,95.182a15.618,15.618,0,0,0-1.67,6.15,29.025,29.025,0,0,0-.108,2.994l-.009,6.367a5.535,5.535,0,0,0,.45,2.689"/><path class="cls-11" d="M63.311,94.887a16.771,16.771,0,0,1,2.547,8.6,12.66,12.66,0,0,0,.628,4.208"/><path class="cls-11" d="M64.254,93.59a22.406,22.406,0,0,1,3.145.221,13.009,13.009,0,0,1,4.977,2.166,13.719,13.719,0,0,1,2.229,1.581,9.272,9.272,0,0,1,1.883,2.6"/><path class="cls-11" d="M58.827,93.354C56.4,93.246,54,92.7,51.572,92.587c-3.035-.135-6.689.333-8.888,2.43A11.372,11.372,0,0,0,40.2,99.548"/><path class="cls-12" d="M55.524,95.772a48.917,48.917,0,0,0-4.483,2.006,7.457,7.457,0,0,0-2.536,5.958c.294,2.418,1.533,2.477,2.949.236S58.061,97.129,55.524,95.772Z"/><path class="cls-12" d="M46.735,93.531a18.053,18.053,0,0,0-3.539,2.89c-.944,1.239-2.478,4.6-1.357,5.368S49.8,94.828,46.735,93.531Z"/><path class="cls-12" d="M62.485,98.368a4.523,4.523,0,0,0-1.475,2.949c0,1.652-1.121,4.837.177,5.6S64.313,100.727,62.485,98.368Z"/><path class="cls-9" d="M34.367,103.48s5.978,4.09,5.978,7.55-.158,8.809-5.349,3.146C32.991,111.989,33.423,106,34.367,103.48Z"/><path class="cls-9" d="M34.367,103.48S33.581,99.39,35,98.6s2.674-.944,2.045,1.1a34.1,34.1,0,0,0-.944,5.348Z"/><path class="cls-13" d="M72.006,55.615s-2.69.743-2.36,2.79,1.685,2.971,2.263,3.681.463,2.674,1.949,3.268,2.129.181,2.129.181"/><path class="cls-13" d="M70.068,49.729s2.948,4.372,3.257,7.594,1.515,7.9,5.042,11.132c2.773,2.538,7.786,5.64,12.173,4.3A18.989,18.989,0,0,0,99.2,67.291c2.169-2.138,2.749-16.743,3.008-18.33s1.812-4.534-1.767-8.5S89.622,34.367,80.225,38.4,70.068,49.729,70.068,49.729Z"/><path class="cls-14" d="M80.94,53.823S79,53.2,78.463,54.158s-1.325,4.208.291,5.261S81.908,58.8,82.074,58,81.5,53.955,80.94,53.823Z"/><path class="cls-15" d="M86.689,59.284s.194-1.425,1.338-1.468a2.254,2.254,0,0,1,1.814,1.1"/><path class="cls-15" d="M76.872,51.4a13.5,13.5,0,0,0,3.76-2.95"/><path class="cls-15" d="M91.511,46.407c1.582.4,2.786,1.921,4.416,2.009"/><path class="cls-16" d="M80.3,56.264s-1.181-.3-1.535.253-.923,2.426.047,2.985,1.96-.435,2.083-.893S80.643,56.325,80.3,56.264Z"/><path class="cls-14" d="M94.828,50.42s-1.941-.623-2.477.334-1.325,4.208.291,5.262,3.153-.624,3.32-1.424S95.387,50.552,94.828,50.42Z"/><path class="cls-16" d="M94.04,52.861a2.42,2.42,0,0,0-1.535.252c-.832.649-1.243,2.487.047,2.985a1.668,1.668,0,0,0,2.083-.893C94.757,54.746,94.382,52.922,94.04,52.861Z"/><path class="cls-17" d="M98.25,40.257s-.914,1.92-4.555,2.774-4.945,1.285-5.836,2.586a25.411,25.411,0,0,1-1.731,2.249s1.779-5.124,1.5-4.219c-.681,2.241-.984,2.012-3.113,3.746a7.163,7.163,0,0,1-2.86,1.7s1.005-2.583,1.393-3.568-1.006.632-2.387,1.672-7.612,4.98-7.917,5.147A47.207,47.207,0,0,1,75.4,48.328s-3.659,2.694-3.85,3.531,1.284,2.083,1.494,3.31.678,5.728.678,5.728a26.182,26.182,0,0,1-4.607-5.958,20.452,20.452,0,0,1-2-6.256,5.669,5.669,0,0,1,1.235-4.428c.248-.5-2.444,1.338-2.444,1.338a29.435,29.435,0,0,0,3.08-4.776,9.815,9.815,0,0,1,2.157-3.011l-1.859.2a4.739,4.739,0,0,1,1.82-2.379,17.528,17.528,0,0,1,2.227-1.3l-1.381-.911,5.131.038s-.351-2.695.737-4.145a6.792,6.792,0,0,1,2.221-1.988l.23,5.242s.852-3.476,3.207-4.684,3.813-1.8,3.813-1.8L86.052,28.59a19.105,19.105,0,0,1,7.467-1.281c3.4.336,4.533,1.749,4.533,1.749l-3.584,1.188a39.751,39.751,0,0,1,6.067,1.6c2.738,1.022,4.2,4.331,4.2,4.331l-2.993-1.208s.65-.112,2.428,6.357-2.727,15.618-2.727,15.618-.384-7.887-1.785-10.861A15.266,15.266,0,0,1,98.25,40.257Z"/><path class="cls-18" d="M87.106,63.532A3.72,3.72,0,0,0,91,63.211"/><path class="cls-13" d="M100.575,49.946a4.583,4.583,0,0,1,1.266-.841,1.55,1.55,0,0,1,1.459.123A2.322,2.322,0,0,1,103.954,51l.3,4.163a7.443,7.443,0,0,1-.069,2.246,2.51,2.51,0,0,1-1.3,1.748,1.54,1.54,0,0,1-1.963-.57"/></svg>