<svg id="word" xmlns="http://www.w3.org/2000/svg" viewBox="0 0 160 160"><defs><style>.cls-1{fill:#c2c549;}.cls-1,.cls-4,.cls-5{stroke:#9a4a98;stroke-miterlimit:10;stroke-width:1.225px;}.cls-2{fill:#70499c;}.cls-3{fill:#9a4a98;}.cls-4{fill:#cd5398;}.cls-5{fill:none;}</style></defs><path class="cls-1" d="M36.549,90.14S31.692,44.8,77.489,42.468s51.965,51.285,51.965,51.285L74.486,101.86c-16.68,2.461-39.033-6.4-39.033-6.4Z"/><path class="cls-2" d="M36.4,85.885l10.944-8.391L61.373,92.557l20.5-12.6L92.338,93.332l16.607-15.16,10.623,13.17,6.591-11.393,3.8,16.861s-76.619,1.353-77.273.9-16.741-4.631-16.741-4.631Z"/><path class="cls-3" d="M91.362,86.175,93.318,88s2.523-3.011,1.548-3.553-1.588,1.9-1.588,1.9-1.515-2.547-2.1-1.352S91.362,86.175,91.362,86.175Z"/><path class="cls-3" d="M86.064,79.809l1.956,1.822s2.523-3.011,1.548-3.553-1.589,1.9-1.589,1.9-1.515-2.548-2.1-1.352S86.064,79.809,86.064,79.809Z"/><path class="cls-3" d="M98.01,79.84l1.956,1.822s2.523-3.011,1.548-3.553-1.589,1.9-1.589,1.9-1.515-2.547-2.1-1.352S98.01,79.84,98.01,79.84Z"/><path class="cls-4" d="M39.432,89.451s20.4,5.1,32.816,5.107,42.242-2.73,42.242-2.73L129.1,89.673s4.286-1,5.833,2.639,5.916,21.418.439,24.805-28.318,4.914-32.412,4.781-27.107.314-40.746-.07-34.152-6.2-36.031-10.712S19.073,89.506,39.432,89.451Z"/><path class="cls-5" d="M44.905,119.584a54.517,54.517,0,0,1-1.633-13.536,21.542,21.542,0,0,1,4.393-12.8"/><path class="cls-5" d="M54.943,121.109q-.634-5.451-.964-10.93c-.317-5.266-.34-10.866,2.49-15.419"/><path class="cls-5" d="M64.146,122.094a17.428,17.428,0,0,0,1.466-6.558,112.271,112.271,0,0,0-.157-19.713"/><path class="cls-5" d="M74.615,122.008c.332.186.635-.287.7-.648a61.486,61.486,0,0,0-.44-25.5"/><path class="cls-5" d="M85.1,121.882c2.975-5.682,2.345-12.379,1.644-18.676a18.35,18.35,0,0,0-1.634-6.738"/><path class="cls-5" d="M95.712,121.306a39.692,39.692,0,0,0,4.161-27.074"/><path class="cls-5" d="M107.389,121.618q1-6.1,1.655-12.245c.562-5.242.934-10.565-.024-15.748"/><path class="cls-5" d="M119.208,120.779c1.2-4.8,2.3-9.683,2.207-14.613s-1.474-9.975-4.771-13.769"/><path class="cls-5" d="M126.322,120.049c1.5-.715,1.869-2.538,2.614-3.968.653-1.253,1.688-2.3,2.35-3.547a11.039,11.039,0,0,0,1.069-4.679,28.284,28.284,0,0,0-4.953-17.3"/><path class="cls-3" d="M117.8,85.406l1.956,1.823s2.523-3.011,1.548-3.554-1.588,1.9-1.588,1.9-1.515-2.547-2.1-1.352S117.8,85.406,117.8,85.406Z"/><path class="cls-3" d="M112.5,79.039l1.956,1.823s2.523-3.011,1.548-3.553-1.589,1.9-1.589,1.9-1.515-2.547-2.1-1.352S112.5,79.039,112.5,79.039Z"/><path class="cls-3" d="M122.711,78.569l1.956,1.823s1.569-3.059.594-3.6-.634,1.944-.634,1.944-1.515-2.547-2.1-1.352S122.711,78.569,122.711,78.569Z"/><path class="cls-5" d="M35.562,116.056a15.861,15.861,0,0,1-3.528-11.072,20.314,20.314,0,0,1,4.275-10.97,6.49,6.49,0,0,1,3.211-2.557"/><path class="cls-3" d="M105.941,74.67l1.956,1.823s2.524-3.011,1.549-3.554-1.589,1.9-1.589,1.9-1.515-2.547-2.1-1.352S105.941,74.67,105.941,74.67Z"/><path class="cls-3" d="M61.558,88.141l1.955,1.822s2.524-3.011,1.549-3.553-1.589,1.9-1.589,1.9-1.515-2.547-2.1-1.352S61.558,88.141,61.558,88.141Z"/><path class="cls-3" d="M56.259,81.774,58.215,83.6s2.524-3.011,1.549-3.553-1.589,1.9-1.589,1.9-1.515-2.547-2.1-1.352S56.259,81.774,56.259,81.774Z"/><path class="cls-3" d="M68.946,81.19,70.9,83.013S73.426,80,72.45,79.459s-1.588,1.9-1.588,1.9-1.515-2.547-2.1-1.352S68.946,81.19,68.946,81.19Z"/><path class="cls-3" d="M79.219,76.494l1.956,1.822s2.523-3.011,1.548-3.553-1.589,1.9-1.589,1.9-1.515-2.547-2.1-1.352S79.219,76.494,79.219,76.494Z"/><path class="cls-3" d="M36.728,80.363l1.5,1.61s2.523-3.011,1.548-3.553-1.589,1.9-1.589,1.9-.822-2.937-1.411-1.742S36.728,80.363,36.728,80.363Z"/><path class="cls-3" d="M44.2,74.981,46.158,76.8s2.524-3.011,1.549-3.553-1.589,1.9-1.589,1.9S44.6,72.6,44.014,73.8,44.2,74.981,44.2,74.981Z"/><path class="cls-3" d="M61.569,74.181,63.525,76s2.523-3.01,1.548-3.553-1.589,1.9-1.589,1.9S61.969,71.8,61.381,73,61.569,74.181,61.569,74.181Z"/><path class="cls-3" d="M92.866,73.485l1.956,1.823s2.524-3.011,1.549-3.554-1.589,1.9-1.589,1.9-1.515-2.547-2.1-1.352S92.866,73.485,92.866,73.485Z"/><path class="cls-3" d="M117.249,73.4l1.956,1.823s2.524-3.011,1.549-3.554-1.589,1.9-1.589,1.9-1.515-2.547-2.1-1.352S117.249,73.4,117.249,73.4Z"/><path class="cls-4" d="M75.394,46.062s-4.416-.261-5.5-.754,1.277-.6,1.277-.6-4.165-1.351-4.816-2.487,1.487-.271,1.487-.271S65.141,37.7,65,36.467s.881-.35.881-.35.911-5,1.371-5.643l.46-.641s3.769-3.36,4.592-3,.286.917.286.917a9.663,9.663,0,0,1,5.595-1.73c3.778-.174,1.09.917,1.09.917a18.128,18.128,0,0,1,4.6,1.378c2,.993,1.177,1.418,1.177,1.418s1.784-.547,1.934.764a11.39,11.39,0,0,1-.194,2.977s.725-.445.959,1.094a5.388,5.388,0,0,1-.62,3.046s.6.365.271,1.93-2.284,2.513-2.425,2.671,2.848.564.723,1.592a44.186,44.186,0,0,1-6.6,2.086s-.255.786-1.72.854A2.246,2.246,0,0,1,75.394,46.062Z"/></svg>