<svg id="word" xmlns="http://www.w3.org/2000/svg" xmlns:xlink="http://www.w3.org/1999/xlink" viewBox="0 0 160 160"><defs><style>.cls-1{fill:url(#Linear_Gradient_2);}.cls-2{fill:#054f9e;}.cls-3{fill:#fff;}.cls-4{fill:#231f20;}</style><linearGradient id="Linear_Gradient_2" x1="76.964" y1="94.465" x2="82.679" y2="94.465" gradientUnits="userSpaceOnUse"><stop offset="0" stop-color="#fff"/><stop offset="1" stop-color="#231f20"/></linearGradient></defs><rect class="cls-1" x="76.964" y="38.914" width="5.715" height="111.102"/><rect class="cls-2" x="49.015" y="21.073" width="61.97" height="61.698" rx="1.569"/><polygon class="cls-3" points="80.204 25.693 51.801 73.869 108.199 73.869 80.204 25.693"/><path class="cls-4" d="M76.535,54.3l2.378,2.718L74.9,67.21S72.729,69.521,72.05,68.3s.34-3.6.34-3.6Z"/><ellipse class="cls-4" cx="80.136" cy="40.132" rx="2.446" ry="2.276"/><path class="cls-4" d="M74.632,48.66s.883,4.417-.883,4.689-1.767-6.524-1.767-6.524L78.1,42.477l4.213.883,6.184,7.882s.747,1.9-.476,2.446-5.5-6.047-5.5-6.047L81.155,52.4s5.1,5.572,5.436,6.727,2.582,6.863,2.582,6.863.34,2.243-1.223,2.243-4.213-7.339-4.213-7.339L77.01,53.552,76.6,47.3Z"/><polygon class="cls-4" points="64.1 60.959 58.664 70.676 63.624 70.676 67.769 61.231 64.1 60.959"/><path class="cls-4" d="M72.594,61.3l-2.039,5.368s.2,2.582,1.291,2.989,1.495.136,1.495.136l-.136,1.155-5.028-.2,3.058-9.717Z"/><polygon class="cls-4" points="78.165 61.163 81.971 61.095 82.582 70.88 77.69 70.676 78.165 61.163"/><path class="cls-4" d="M87.95,61.163l1.223.068,3.194,9.988-5.708-.272V69.656s2.582-.2,2.854-.883a9.43,9.43,0,0,0,.2-2.514Z"/><polygon class="cls-4" points="92.299 61.095 96.036 60.959 101.608 70.744 96.58 70.744 92.299 61.095"/></svg>