<svg id="word" xmlns="http://www.w3.org/2000/svg" viewBox="0 0 160 160"><defs><style>.cls-1{fill:#578bc8;}.cls-2{fill:none;stroke:#9c4c9c;stroke-miterlimit:10;stroke-width:0.565px;}.cls-3{fill:#83b3e0;}</style></defs><path class="cls-1" d="M122.705,109.134v-60.3H37.3v60.3a3.974,3.974,0,0,0-.108.868c0,7.075,19.167,12.814,42.813,12.814s42.813-5.739,42.813-12.814a3.956,3.956,0,0,0-.108-.866"/><path class="cls-2" d="M122.705,109.134v-60.3H37.3v60.3a3.974,3.974,0,0,0-.108.868c0,7.075,19.167,12.814,42.813,12.814s42.813-5.739,42.813-12.814A3.956,3.956,0,0,0,122.705,109.134Z"/><path class="cls-3" d="M122.813,50c0,7.078-19.169,12.816-42.813,12.816S37.187,57.078,37.187,50,56.354,37.186,80,37.186,122.813,42.923,122.813,50"/><path class="cls-2" d="M122.813,50c0,7.078-19.169,12.816-42.813,12.816S37.187,57.078,37.187,50,56.354,37.186,80,37.186,122.813,42.923,122.813,50Z"/></svg>