<svg id="word" xmlns="http://www.w3.org/2000/svg" viewBox="0 0 160 160"><defs><style>.cls-1{fill:#9d4b9c;}.cls-2{fill:#ffdc55;}.cls-2,.cls-3,.cls-4{stroke:#9d4b9c;stroke-width:1.02px;}.cls-3{fill:#f8a361;}.cls-4{fill:#fff;}</style></defs><path class="cls-1" d="M59.312,107.6a57.742,57.742,0,0,0,0,9.808c.5,4.275,2.64,7.1.5,7.289-7.107.633-6.478,1.383-6.478,1.383s6.228.128,7.237-.375c.981-.5.734.626,5.731,1.885s10.474,2.891,10.474,2.891,1.372-1.259-7.487-3.523c-1.211-.3-3.746-1-2.736-1.507.992-.5,5.743-1.093,6.74-1.258,5.472-.878,4.359-1.626,4.359-1.626s-5.247.379-6.728.626c-1.506.245-5.744.5-5.744.5s6.607-2.131,7.592-3.144c1-1.008-9.218,1.885-9.965,1.885s-1.752-1.259-1.752-4.273S61.8,107.844,59.312,107.6Z"/><path class="cls-1" d="M84.255,107.6s2.24,8.555,3.483,11.312,7.733,3.525,2.24,4.784c-5.473,1.259-6.478,1.5-7.475,1.755s3.233,1.507,4.738.757,6.741-2.77,6.361-1.628c-.464,1.382,5.364,3.888,6.607,3.888s6.232,2.775,6.232,2.775a3.275,3.275,0,0,0-2.748-3.525,17.174,17.174,0,0,1-6.22-3.021,37.456,37.456,0,0,1,4.73-.756c1.243,0,6.24,1.014,6.24,1.014s.5-2.009-4.238-2.769a19.379,19.379,0,0,0-8.234.381s1.526-3,3.246-3.4c5.864-1.386,4.988-1.761,4.988-1.761s-6.732.5-7.987,1.761-.747,2.009-2.733,1.507c-2-.5-4.5-3.023-4.75-4.018s-2.5-9.058-2.5-9.058S84.755,105.841,84.255,107.6Z"/><path class="cls-2" d="M93.982,94.781c-.5,3.777-4.242,8.291-5.735,10.3s3.237,4.527-1.752,5.541c-4.989.995-2.5-3.526-6.74-.511s-16.2.257-16.2.257.759,3.513-3.742,2-4.738-8.038-6.728-9.8S44.1,92.018,44.338,86.731s2.264-7.541.5-9.55c-1.74-2.019-6.725-8.553-2.487-10.053,4.242-1.516,6.49,2.765,9.239,1S58.815,61.344,66.8,62.6s11.962-2.512,20.192,4.28a30.466,30.466,0,0,1,6.991,14.292C95.584,89.846,93.982,94.781,93.982,94.781Z"/><path class="cls-2" d="M86.991,83.212S84.505,91,78.77,94.529s-10.979,4.779-8.989,2.255-6.728,1.756-8.73-.75-.25-3.765-.25-3.765-6.478,0-7.983-2.775c-1.477-2.763,2-3.014,2-3.014"/><path class="cls-2" d="M73.051,66.018S67.375,52.935,77.7,44.376s22.568-6.608,27.779.832c4.8,6.851,4.514,5.034,5.186,8.008.1.434.124.953.2,1.552.944,7.379-1.423,15.538-4.841,17.211-3.361,1.634-14.011,9.419-22.544,3.71A45.766,45.766,0,0,1,73.051,66.018Z"/><path class="cls-3" d="M112.461,52.515s4.421-1.425,6.071-2.971-6.451,9.213-6.451,9.213l7.222,7c.253.318-3-.463-5.741-1.777-1.211-.581-2.735,1.254-2.735,1.254s-.819-5.617-.338-8.5S108.513,52.089,112.461,52.515Z"/><path class="cls-4" d="M94.324,49.913s1.061-6.956,6.132-1.295c4.5,5.016,1.58,8.238.832,8.58S94.667,54.825,94.324,49.913Z"/><path class="cls-1" d="M97.558,51.383c1.187,1.018,2.762,1.126,3.535.225s.42-2.432-.767-3.45-2.763-1.122-3.525-.233S96.377,50.37,97.558,51.383Z"/><path class="cls-1" d="M92.81,39.729a24.591,24.591,0,0,1,1.237-3.306A22.351,22.351,0,0,1,95.7,33.282,6.192,6.192,0,0,1,96.95,31.9c.121-.1.261-.19.379-.274s.213-.163.321-.254l.661-.561c.44-.384.889-.764,1.354-1.128a5.594,5.594,0,0,1,1.509-.926,19.452,19.452,0,0,0-2.439,2.488c-.2.217-.392.437-.6.65-.107.107-.214.213-.34.321-.108.1-.2.187-.291.29a7.886,7.886,0,0,0-.975,1.311c-.572.947-1.095,2.011-1.705,3.007A24.835,24.835,0,0,1,92.81,39.729Z"/><path class="cls-1" d="M96.41,39.189c-.159.147-.442-.1-.367-.33a1.732,1.732,0,0,1,.274-.51c.2-.3.393-.609.611-.9.422-.585.876-1.146,1.342-1.7s.956-1.078,1.474-1.587a7.476,7.476,0,0,1,1.791-1.4,7.966,7.966,0,0,1,2.14-.7,5.213,5.213,0,0,0,1-.258l.989-.374c.66-.267,1.326-.533,2-.787a12.941,12.941,0,0,1,2.053-.665c-1.308.58-2.512,1.356-3.8,2.006-.321.164-.639.334-.978.482a10.741,10.741,0,0,1-1.048.385,9.933,9.933,0,0,0-1.875.779A21.836,21.836,0,0,0,98.9,36.358l-1.555,1.467c-.255.249-.532.481-.794.725a1.644,1.644,0,0,0-.342.36C96.128,39.009,96.22,39.25,96.41,39.189Z"/><path class="cls-1" d="M91.993,39.458a7.725,7.725,0,0,1,.946-9.971A16.682,16.682,0,0,0,91.646,34.4,16.106,16.106,0,0,0,91.993,39.458Z"/></svg>