<svg id="word" xmlns="http://www.w3.org/2000/svg" viewBox="0 0 160 160"><defs><style>.cls-1{fill:#f9c9bb;}.cls-1,.cls-2,.cls-3,.cls-4,.cls-5{stroke:#9a4b9a;}.cls-1,.cls-2,.cls-3,.cls-5{stroke-linecap:round;}.cls-2{fill:#c5a097;}.cls-3{fill:none;}.cls-4{fill:#fff;}.cls-5{fill:#fad5cc;}.cls-6{fill:#bc9a91;}.cls-7{fill:#9a4b9a;}</style></defs><path class="cls-1" d="M141.6,57.417s4.451-.1,5.774,1.405.361,4.03-.481,4.752-1.2,1.2-.842,2.406.343,3.128,1.976,3.368,5.483,1.509,6.566,1.717S157,73.679,157,76.085a8.037,8.037,0,0,1-1.564,4.4s.481-3.922-.481-5.486-1.2-2.06-2.888-2.233-2.646.669-5.413-2.219-2.046-3.007-3.008-6.857A41.919,41.919,0,0,0,141.6,57.417Z"/><path class="cls-1" d="M30.066,61.217s-5.033.48-6.717-1.445S19.5,56.4,20.1,58.93a24.852,24.852,0,0,0,2.887,6.015l4.956,1.289Z"/><path class="cls-1" d="M138.122,90.149s1.323,4.211,2.165,5.294a6.946,6.946,0,0,1,1.264,4.271c-.241.842-1.745,3.669-2.106,4.812a10.984,10.984,0,0,0,.416,5.113,8.478,8.478,0,0,1,.655,3.453c-.169.288-1.011-.626-1.011-.626a6.828,6.828,0,0,1-.06.843c-.06.421-1.323.6-2.646.481a8.081,8.081,0,0,1-2.286-.542,9.36,9.36,0,0,0,0-4.992c-.722-3.008.361-2.046-.963-4.452s-6.256-6.135-6.256-6.135l4.211-3.97Z"/><path class="cls-1" d="M52.5,101.935a9.117,9.117,0,0,1,0,3.066,12.394,12.394,0,0,0-.667,3.2,12.36,12.36,0,0,1-.733,3c-.334.933-.267.933-.534,1.6a6.7,6.7,0,0,1-1.466,2c-.2.066-.4.4,0,.4h1.2s-.017.4.458.4a17.387,17.387,0,0,1,1.89,0,2.338,2.338,0,0,0,2.185-.667,3.014,3.014,0,0,0,.733-1.133c.334-.734,1.067-2.534,1.067-2.534a8.345,8.345,0,0,0,.2,1.567c.133.267.333.633.533-.233a18.491,18.491,0,0,0,0-3.4c0-1.8-.066-3.134,0-4.734s.934-1.2.934-3.8A65.972,65.972,0,0,1,59.364,92.4a9.82,9.82,0,0,1-3.266,0c-1.267-.333-6.134-1.266-6.134-1.266S52.425,101.335,52.5,101.935Z"/><path class="cls-2" d="M50.564,112.8c1.5.856,2.833,1.661,4.923,1.17a8.65,8.65,0,0,1-.93,1.65c-.262.188-.21.293-.708.293s-2.073.21-2.6.157a10.9,10.9,0,0,1-1.26-.236l.131-.446s-.918.333-1.155.232a1.024,1.024,0,0,1-.4-.377,10.653,10.653,0,0,0,1.111-1.055C49.939,113.847,50.564,112.8,50.564,112.8Z"/><path class="cls-3" d="M51.12,113.845c-.1-.047-.2.053-.257.143a9.5,9.5,0,0,0-.813,1.509"/><path class="cls-1" d="M37.545,55.922S27.439,62.3,26.718,63.5s-1.8,9.023-1.564,11.911,1.2,5.053.721,5.654a5.3,5.3,0,0,0-.756,1.564s-1.289-1.082-1.529,0a2.953,2.953,0,0,1-1.2,1.685h-.6s-2.767.361-3.128,1.323,1.2,4.933.842,5.053,0,1.925,1.083,2.045,1.078.37,2.284.842c1.327.519,3.964-1.143,3.964-1.143s-4.564,2.346-2.88,2.828A25.856,25.856,0,0,0,29,96.225a17.208,17.208,0,0,1,3.546,0c1.507.241,4.034-.241,7.4,0s7.7-.342,9.023.069,4.331,1.736,5.9,1.375,5.174-1.564,5.535-1.564.24,2.646,0,3.97-.241,3.489.962,4.692,1.8,3.729,2.767,4.692a14.747,14.747,0,0,0,3.248,2.406c.6.241,1.685-1.684,1.685-1.684a17.4,17.4,0,0,0,.842-3.73,2.533,2.533,0,0,0-.6-.91,27.278,27.278,0,0,0-2.168-2.1s-1.324-.721.481-1.564,2.286-1.924,3.85-3.007A35.033,35.033,0,0,1,76.4,95.623a30.364,30.364,0,0,0,3.128-1.684s2.767.241,4.813.6,10.948,3.128,16.963,1.443,13.474-4.331,13.835-4.331,2.286.121,2.286.121.481,6.256.963,8.181.962,3.007,0,4.691-4.331,6.178-4.452,7.24-.12,2.866.963,2.866h4.044l1.61-1.323s.842-3.008,1.564-5.053,3.489-4.572,4.572-4.572a2.7,2.7,0,0,0,2.406-2.526c-.12-1.2,1.2-4.211,4.331-6.015s11.189-9.5,12.632-14.013,1.083-9.568.963-12.455-1.564-9.875-4.813-11.735-7.639-4.682-9.564-6.116-12.452-6.7-15.58-6.7-20.091-1.68-25.385-1.2-16.429-1.854-25.745.58c-4.383,1.145-17.565,6.74-18.167,7.351S37.545,55.922,37.545,55.922Z"/><path class="cls-4" d="M29.725,77.337s-.481,2.108.842,2.8,2.406.12,2.046-1.4S31.169,75.412,29.725,77.337Z"/><path class="cls-5" d="M18.657,85.638s.746-2.611,2.358-1.185,1.61,3.471,1.851,5.035,1.443,4.09,0,4.09-3.968-.6-4.209-1.323S17.277,86.561,18.657,85.638Z"/><path class="cls-2" d="M71.532,107.113s.722.842.241.842a4.718,4.718,0,0,0-1.384.421s.782,1.564,1.083,1.684a.828.828,0,0,1,.466,1.083c-.226.541-.741,2.948-.741,2.948a8.666,8.666,0,0,1-1.53-.9c-.6-.481-1.894-1.4-1.894-1.4a12.67,12.67,0,0,0,1.293-3.294c.06-1.022.243-2.955.243-2.955Z"/><path class="cls-2" d="M113.94,111.886l-2.105,4.972s.06.6,1.053.661a15.354,15.354,0,0,0,4.24-.3c.542-.3,1.143-.542,1.324-.963s1.461-2.3,1.461-2.3-.619,1.456-.258,1.636.962-.9.962-.842.191-2.2.191-2.2-2,1.475-3.078,1.536a8.893,8.893,0,0,1-2.707-.662C114.421,113.309,113.94,111.886,113.94,111.886Z"/><path class="cls-2" d="M132.648,115.647s1.323-2.225,1.383-2.466a6.962,6.962,0,0,1,.729-1.1,2.139,2.139,0,0,0,1.918,1.1,7.227,7.227,0,0,1,2.278.241l.489-.361a8.066,8.066,0,0,1-.421,1.4,6.039,6.039,0,0,1-.842,1.182s-1.654.329-2.135.389A33.466,33.466,0,0,1,132.648,115.647Z"/><path class="cls-1" d="M33.214,65.787s-3.97-.706-7.339-1.436-9.143-2.293-8.782-1.692,2.526,4.692,4.572,6.136,6.5,3.489,6.977,4.09,1.564,3.249,3.73,2.286a20.657,20.657,0,0,0,4.211-2.406"/><path class="cls-6" d="M21.83,88.157s-.482-.785-.662,0-.241,3.761.662,3.873S21.83,88.157,21.83,88.157Z"/><ellipse class="cls-7" cx="30.504" cy="79.083" rx="0.864" ry="1.325"/><path class="cls-6" d="M19.279,87.04s-.422-.786-.581,0-.211,3.76.581,3.872S19.279,87.04,19.279,87.04Z"/><path class="cls-3" d="M26.709,92.464a.753.753,0,0,0,.6-.3c.152-.175.26-.384.4-.565a4.682,4.682,0,0,1,1.079-.84,1.874,1.874,0,0,0,.851-1.037"/><path class="cls-3" d="M24.735,82.451a1.26,1.26,0,0,1,.637.746,3.721,3.721,0,0,1,.168.991l.081,1.032"/><path class="cls-3" d="M25.813,80.806a.931.931,0,0,1,.564.347,7.727,7.727,0,0,1,1.771,3.026"/><path class="cls-3" d="M28.515,88.409a3.684,3.684,0,0,0,3.075,1.78"/><path class="cls-3" d="M118.739,81.387a38.784,38.784,0,0,0-1.183,10.576"/><path class="cls-3" d="M78.888,94.152c.446.145.814-.359,1.013-.783a15.971,15.971,0,0,0,1.933-6.164,4.046,4.046,0,0,0-1.42-3.516"/><path class="cls-3" d="M60.519,96.706a21.2,21.2,0,0,1,.2-5.151"/></svg>