<svg id="word" xmlns="http://www.w3.org/2000/svg" xmlns:xlink="http://www.w3.org/1999/xlink" viewBox="0 0 160 160"><defs><style>.cls-1{fill:#c5c7cb;}.cls-1,.cls-3,.cls-4,.cls-5{stroke:#9d4b9c;}.cls-2{fill:#e3e6e8;opacity:0.52;}.cls-3{fill:url(#linear-gradient);}.cls-4{fill:#ec3a29;}.cls-5{fill:#c2976a;}</style><linearGradient id="linear-gradient" x1="-971.839" y1="-254.097" x2="-963.02" y2="-254.097" gradientTransform="translate(-272.578 1009.447) rotate(95.843)" gradientUnits="userSpaceOnUse"><stop offset="0" stop-color="#b2b4b6"/><stop offset="0.352" stop-color="#fff"/><stop offset="1" stop-color="#221f1f"/></linearGradient></defs><path class="cls-1" d="M83.639,70.266S93.95,72.639,96.1,72.716c3.193.112,3.808-1.3,5.594-3.006,2.723-2.606,6.776-2.03,12.421-1.879s22.733,3.287,22.733,3.287,5.347.974,5.25,1.925-6.363-.437-6.363-.437-10.523-1.024-13.5-1.115-6.892.043-6.746.7,6.52.988,6.52.988l15.526,2.23s4.185.321,4.024,1.372-4.218,0-4.218,0l-15.978-.94s-6.07-1.209-6.227.323,6.059,1.849,6.059,1.849l16.937,2s3.256.279,3.2,1.075-3.453.34-3.453.34l-17.183-1.157s-6.044-1.006-6.146-.482c-.283,1.466,2.1,1.39,3.935,1.738s11.561,1.823,13.675,2.04,6.321.326,6.321.326,2.384.191,2.314.878-2.951.659-2.951.659-8.987.149-13.337-.136-11.985-1.334-14.934-1.743-7.376-1.5-8.45-3.534-1.647-3.212-2.729-3.59a11.912,11.912,0,0,0-5.648-1.165c-2.8.194-9.4.533-9.4.533Z"/><path class="cls-2" d="M104.714,70.447S102.1,72.1,101.94,74.6c-.28,4.3,1.957,5.914,3.279,6.05s.673-2.922.874-5.411C106.2,73.962,108.059,68.546,104.714,70.447Z"/><path class="cls-3" d="M73.189,68.021l8.994.814s2.727.276,2.829.8a65.721,65.721,0,0,1-.52,6.916s.186,1.3-1.927,1.084-10.475-.965-10.475-.965Z"/><path class="cls-4" d="M49.534,64.08s-21.325-5.039-25.969-3.486-6.094,2.359-6.572,6.3c-.679,5.591,5.392,7.066,8.15,7.242,1.88.119,1.966.361,33.815,2.232l13.66.623.9-9.28S52.061,64.445,49.534,64.08Z"/><path class="cls-5" d="M72.476,77.333a.8.8,0,0,1-.711-.873l.884-8.64a.8.8,0,0,1,.873-.713h0a.8.8,0,0,1,.712.875l-.884,8.64a.8.8,0,0,1-.874.711Z"/></svg>