<svg id="word" xmlns="http://www.w3.org/2000/svg" viewBox="0 0 160 160"><defs><style>.cls-1{fill:#006695;}</style></defs><path class="cls-1" d="M53.472,84.561C40.693,83.84,32.143,73.311,32.143,61.07A22.681,22.681,0,0,1,54.732,38.122c12.42,0,22.409,10.44,22.409,22.049,0,5.489-1.89,11.159-5.49,16.919L51.942,108.5H38.533ZM65.8,61.341A11.166,11.166,0,1,0,54.642,72.86,11.3,11.3,0,0,0,65.8,61.341Z"/><path class="cls-1" d="M82.552,73.4c0-19.8,8.19-35.1,23.939-35.1S130.43,53.6,130.43,73.4c0,19.35-8.1,36.179-23.939,36.179S82.552,92.75,82.552,73.4Zm36.178,0c0-12.059-3.06-23.488-12.239-23.488S94.251,61.341,94.251,73.4c0,12.241,2.97,24.569,12.24,24.569S118.73,85.641,118.73,73.4Z"/></svg>