<svg id="word" xmlns="http://www.w3.org/2000/svg" viewBox="0 0 160 160"><defs><style>.cls-1{fill:#7dbeb8;}.cls-1,.cls-2,.cls-3,.cls-6{stroke:#9c4c9c;}.cls-1,.cls-2,.cls-3,.cls-4,.cls-6{stroke-width:0.328px;}.cls-2{fill:#00b2ab;}.cls-3{fill:#eee4cd;}.cls-4,.cls-6{fill:none;}.cls-4{stroke:#26a7df;stroke-linecap:round;}.cls-5{fill:#26a7df;}.cls-7{fill:#808083;}.cls-8{fill:#a3d1ef;}</style></defs><path class="cls-1" d="M76.427,106.5s-1.039.3,1.243.754,6.181,1.077,15.594,1.437,26.811.09,34.7-.179,17.306-.091,20.918-.091a38.641,38.641,0,0,0,5.324-.269l-5.324-53.8-70.169-.449"/><path class="cls-2" d="M31.794,52.279S8.059,99.68,7.156,101.264s-3.225,3.778,1.547,3.778,5.675-.367,18.834-.367,22.187,2.316,30.572,2.682,14.7.365,16.383.365a8.568,8.568,0,0,0,3.843-1.542L90.616,52.888H39.146C33.472,52.888,31.794,52.279,31.794,52.279Z"/><path class="cls-3" d="M86.1,52.157a106.927,106.927,0,0,1,17.8.487c8.384,1.1,22.574,0,29.669-.121a84.905,84.905,0,0,0,13.674-1.463l4.773,56.175s-31.734-.731-43.214-.122-31.611-.3-31.611-.3Z"/><path class="cls-3" d="M35.922,51.669S17.088,88.713,15.282,92s-4.644,9.749-4.644,9.749,15.351,1.463,23.09,1.463,16.254-2.194,23.993-3.048a29.817,29.817,0,0,1,16.125,2.316,6.817,6.817,0,0,1,3.348,4.326L89.326,47.526s-1.936-6.092-16.382-2.68-24.252,7.189-27.735,7.067S35.922,51.669,35.922,51.669Z"/><path class="cls-3" d="M43.4,50.7a52.333,52.333,0,0,0,11.867-3.29c6.192-2.559,17.285-7.312,24.639-6.459s9.416,1.34,10.19,4.874-.9,4.631-1.677,8.043S77.48,106,77.48,106s.283-7.481-6.941-9.43-19.137-.3-25.072.673-25.256,2.608-25.256,2.608S35.793,73.481,38.76,65.44,43.4,50.7,43.4,50.7Z"/><line class="cls-4" x1="91.525" y1="57.613" x2="144.674" y2="57.344"/><polygon class="cls-5" points="101.201 58.752 122.874 58.58 144.546 58.482 122.874 58.654 101.201 58.752"/><polygon class="cls-5" points="101.201 59.867 122.874 59.695 144.546 59.597 122.874 59.769 101.201 59.867"/><polygon class="cls-5" points="101.201 60.981 122.874 60.81 144.546 60.712 122.874 60.884 101.201 60.981"/><polygon class="cls-5" points="101.201 62.097 122.874 61.925 144.546 61.827 122.874 61.999 101.201 62.097"/><polygon class="cls-5" points="101.201 63.211 122.874 63.04 144.546 62.942 122.874 63.114 101.201 63.211"/><polygon class="cls-5" points="101.201 64.327 122.874 64.155 144.546 64.057 122.874 64.229 101.201 64.327"/><polygon class="cls-5" points="101.201 65.441 122.874 65.27 144.546 65.172 122.874 65.344 101.201 65.441"/><polygon class="cls-5" points="101.201 66.556 122.874 66.385 144.546 66.287 122.874 66.458 101.201 66.556"/><polygon class="cls-5" points="101.201 68.786 122.874 68.614 144.546 68.517 122.874 68.688 101.201 68.786"/><polygon class="cls-5" points="101.201 69.901 122.874 69.729 144.546 69.632 122.874 69.804 101.201 69.901"/><polygon class="cls-5" points="101.201 71.016 122.874 70.844 144.546 70.747 122.874 70.918 101.201 71.016"/><polygon class="cls-5" points="101.201 72.131 122.874 71.959 144.546 71.862 122.874 72.033 101.201 72.131"/><polygon class="cls-5" points="101.201 73.246 122.874 73.074 144.546 72.977 122.874 73.148 101.201 73.246"/><polygon class="cls-5" points="101.201 74.361 122.874 74.189 144.546 74.092 122.874 74.263 101.201 74.361"/><polygon class="cls-5" points="101.201 75.476 122.874 75.304 144.546 75.207 122.874 75.378 101.201 75.476"/><polygon class="cls-5" points="101.201 76.591 122.874 76.419 144.546 76.321 122.874 76.493 101.201 76.591"/><polygon class="cls-5" points="101.201 77.706 122.874 77.534 144.546 77.437 122.874 77.608 101.201 77.706"/><polygon class="cls-5" points="101.201 78.821 122.874 78.649 144.546 78.551 122.874 78.723 101.201 78.821"/><line class="cls-4" x1="89.08" y1="68.194" x2="145.651" y2="67.924"/><line class="cls-4" x1="86.798" y1="80.414" x2="145.651" y2="80.144"/><line class="cls-4" x1="122.913" y1="100.509" x2="146.525" y2="100.239"/><path class="cls-6" d="M19.555,86.521c-.464,1.343-6.235,13-6.919,14.185,5.8,2.287,15.619,1.905,21.894,1.522,9.542-.582,18.412-3.921,28.124-4.041,6.731-.084,11.13,1.309,13.97,7.1"/><path class="cls-6" d="M25.673,74.284c-.577,3.391-10.191,22.531-11.629,25.7a61.958,61.958,0,0,0,23.457.048c9.252-1.7,19.072-3.583,28.476-2.48,5.73.674,10.684,2.158,11.5,8.445"/><path class="cls-4" d="M43.423,57.1s6.18.091,9.6-1.616S68.334,48.653,72.8,48.114s9.883,1.094,11.789,2.7a5.465,5.465,0,0,1,2.092,4.85"/><path class="cls-4" d="M40,68.442s6.18.091,9.6-1.617S64.911,60,69.38,59.46s9.883,1.093,11.789,2.694A5.465,5.465,0,0,1,83.261,67"/><path class="cls-4" d="M34.485,82.618s8.272.1,11.7-1.606,15.308-6.827,19.777-7.366,9.883,1.094,11.789,2.695a5.462,5.462,0,0,1,2.092,4.85"/><path class="cls-4" d="M27.848,97.2s12.36-.521,15.783-2.228,15.308-6.826,19.777-7.365S73.291,88.7,75.2,90.3a5.463,5.463,0,0,1,2.091,4.85"/><line class="cls-4" x1="50.803" y1="51.012" x2="30.153" y2="98.376"/><line class="cls-4" x1="75.222" y1="43.965" x2="60.636" y2="90.673"/><line class="cls-4" x1="100.788" y1="53.962" x2="95.38" y2="87.067"/><line class="cls-4" x1="131.599" y1="54.618" x2="133.566" y2="83.899"/><path class="cls-7" d="M109.586,54.688h.229l-.174.905.014,0c.063-.078.127-.144.182-.208l.654-.7h.288l-.785.8.48,1.06h-.251l-.405-.914-.224.208-.136.706h-.226Z"/><path class="cls-7" d="M111.052,55.961l-.3.587h-.243l.964-1.86h.27l.256,1.86h-.234l-.075-.587Zm.624-.183-.072-.538c-.011-.1-.025-.232-.033-.342h0c-.05.11-.1.225-.152.339l-.279.541Z"/><path class="cls-7" d="M112.276,56.262a.7.7,0,0,0,.4.117.366.366,0,0,0,.4-.349c0-.138-.08-.241-.273-.348-.238-.127-.37-.277-.37-.478a.576.576,0,0,1,.629-.547.709.709,0,0,1,.381.1l-.083.185a.622.622,0,0,0-.323-.086.334.334,0,0,0-.367.3c0,.153.094.238.287.346a.547.547,0,0,1,.356.5.6.6,0,0,1-.671.575.774.774,0,0,1-.447-.128Z"/><path class="cls-7" d="M114.618,54.688l-.21,1.1a1.332,1.332,0,0,0-.022.234.322.322,0,0,0,.345.36c.254,0,.442-.171.519-.589l.213-1.106h.229l-.213,1.113c-.107.554-.384.778-.778.778a.5.5,0,0,1-.544-.549,1.347,1.347,0,0,1,.025-.257l.207-1.085Z"/><path class="cls-7" d="M115.643,56.408l1.262-1.516v-.008h-.887l.039-.2h1.193l-.027.149-1.254,1.507,0,.009h.977l-.039.2h-1.294Z"/><path class="cls-7" d="M117.554,54.712a2.765,2.765,0,0,1,.461-.038.875.875,0,0,1,.685.248.727.727,0,0,1,.176.506,1.157,1.157,0,0,1-.375.875,1.252,1.252,0,0,1-.842.257,4.254,4.254,0,0,1-.453-.023Zm-.083,1.646a1.893,1.893,0,0,0,.24.014.878.878,0,0,0,.666-.249.986.986,0,0,0,.253-.685c0-.331-.162-.576-.626-.576a1.442,1.442,0,0,0-.254.019Z"/><path class="cls-7" d="M120.722,55.419a1.312,1.312,0,0,1-.337.9.888.888,0,0,1-.637.26.692.692,0,0,1-.707-.757,1.336,1.336,0,0,1,.356-.914.9.9,0,0,1,.624-.251A.681.681,0,0,1,120.722,55.419Zm-1.157-.38a1.166,1.166,0,0,0-.284.764c0,.3.136.583.5.583a.6.6,0,0,0,.425-.186,1.2,1.2,0,0,0,.276-.769c0-.265-.086-.58-.492-.58A.586.586,0,0,0,119.565,55.039Z"/><path class="cls-7" d="M121.4,54.887h-.544l.039-.2h1.32l-.039.2h-.546l-.315,1.661h-.23Z"/><path class="cls-7" d="M122.131,56.262a.7.7,0,0,0,.395.117.366.366,0,0,0,.4-.349c0-.138-.08-.241-.273-.348-.238-.127-.37-.277-.37-.478a.576.576,0,0,1,.629-.547.709.709,0,0,1,.381.1l-.083.185a.622.622,0,0,0-.323-.086.334.334,0,0,0-.367.3c0,.153.094.238.287.346a.547.547,0,0,1,.356.5.6.6,0,0,1-.671.575.774.774,0,0,1-.447-.128Z"/><polygon class="cls-8" points="95.38 59.534 93.195 66.636 96.254 66.745 97.784 59.644 95.38 59.534"/><polygon class="cls-8" points="93.086 70.788 90.901 77.89 93.96 77.999 95.489 70.897 93.086 70.788"/><path class="cls-7" d="M58.172,49.97l.227-.086-.428,1.075.016-.008c.084-.11.166-.208.238-.3l.844-1.021.285-.109-1,1.188.177,1-.248.094-.145-.868-.279.316-.334.841-.224.085Z"/><path class="cls-7" d="M59.267,50.838l-.458.767-.242.093,1.479-2.441.268-.1-.27,1.98-.232.089L59.9,50.6Zm.669-.438.081-.574c.017-.1.04-.249.064-.369l-.006,0c-.081.141-.159.287-.246.434l-.429.71Z"/><path class="cls-7" d="M60.394,50.713a.458.458,0,0,0,.358-.015.854.854,0,0,0,.5-.542c.04-.155-.011-.241-.171-.288a.282.282,0,0,1-.232-.394,1.345,1.345,0,0,1,.777-.846.487.487,0,0,1,.349-.032l-.133.236a.446.446,0,0,0-.3.027.781.781,0,0,0-.449.477c-.043.17.026.23.187.277.194.049.278.165.214.421a1.394,1.394,0,0,1-.828.9.516.516,0,0,1-.406.025Z"/><path class="cls-7" d="M63.157,48.076l-.516,1.308a1.978,1.978,0,0,0-.089.27c-.067.266.036.349.24.271a1.354,1.354,0,0,0,.68-.852L64,47.758l.228-.086L63.7,48.993a1.853,1.853,0,0,1-.991,1.162c-.3.117-.492.02-.384-.408a2.332,2.332,0,0,1,.1-.3l.51-1.288Z"/><path class="cls-7" d="M63.689,49.61l1.677-2.168,0-.008-.878.334.095-.234,1.181-.449-.07.177-1.665,2.153v.009L65,49.056l-.094.234-1.282.487Z"/><path class="cls-7" d="M66.06,47a3.771,3.771,0,0,1,.468-.217c.309-.117.516-.106.608.02.069.08.1.236.033.5a2.711,2.711,0,0,1-.619,1.118,2.338,2.338,0,0,1-.907.6,4.375,4.375,0,0,1-.442.145Zm-.545,1.867a1.943,1.943,0,0,0,.234-.074,1.754,1.754,0,0,0,.729-.528,2.251,2.251,0,0,0,.444-.861c.093-.369,0-.582-.458-.406a2.1,2.1,0,0,0-.258.116Z"/><path class="cls-7" d="M69,46.6a3.016,3.016,0,0,1-.586,1.131,1.828,1.828,0,0,1-.706.53c-.476.181-.6-.138-.487-.579a3.087,3.087,0,0,1,.611-1.154,1.854,1.854,0,0,1,.688-.515C69.015,45.82,69.111,46.152,69,46.6Zm-1.039.011a2.642,2.642,0,0,0-.5.96c-.086.339-.031.6.331.462a1.278,1.278,0,0,0,.474-.367,2.713,2.713,0,0,0,.489-.963c.075-.3.078-.616-.323-.463A1.244,1.244,0,0,0,67.96,46.606Z"/><path class="cls-7" d="M69.823,45.745l-.538.2.094-.235,1.308-.5-.094.235-.542.207-.78,1.973-.227.087Z"/><path class="cls-7" d="M70.159,47.005a.462.462,0,0,0,.357-.017.851.851,0,0,0,.5-.542c.039-.154-.011-.24-.172-.287a.282.282,0,0,1-.232-.392,1.347,1.347,0,0,1,.777-.849.487.487,0,0,1,.35-.031l-.134.236a.443.443,0,0,0-.3.027.779.779,0,0,0-.45.476c-.043.17.027.231.188.278.193.049.277.165.213.42a1.4,1.4,0,0,1-.827.9.516.516,0,0,1-.407.024Z"/><path class="cls-5" d="M47.771,58.141c3.408-.58,6.519-2.146,9.693-3.44,3.171-1.325,6.348-2.642,9.6-3.764a29.056,29.056,0,0,1,4.982-1.322,18.891,18.891,0,0,1,5.142.182,19.261,19.261,0,0,1,4.928,1.474,7.149,7.149,0,0,1,2.122,1.441,8.232,8.232,0,0,1,.863.956,2.285,2.285,0,0,1,.529,1.154,2.286,2.286,0,0,0-.533-1.151,8.221,8.221,0,0,0-.865-.953,7.191,7.191,0,0,0-2.124-1.431,19.226,19.226,0,0,0-4.926-1.453,18.845,18.845,0,0,0-5.13-.164,29.077,29.077,0,0,0-4.964,1.337c-3.252,1.109-6.434,2.415-9.609,3.728C54.3,56.017,51.182,57.573,47.771,58.141Z"/><path class="cls-5" d="M47.771,59.256c3.408-.58,6.519-2.147,9.693-3.44,3.171-1.324,6.348-2.643,9.6-3.764a29.056,29.056,0,0,1,4.982-1.322,18.891,18.891,0,0,1,5.142.182,19.3,19.3,0,0,1,4.928,1.473,7.19,7.19,0,0,1,2.122,1.442,8.232,8.232,0,0,1,.863.956,2.281,2.281,0,0,1,.529,1.155,2.282,2.282,0,0,0-.533-1.152,8.221,8.221,0,0,0-.865-.953A7.172,7.172,0,0,0,82.107,52.4a19.266,19.266,0,0,0-4.926-1.453,18.845,18.845,0,0,0-5.13-.163,29.074,29.074,0,0,0-4.964,1.336c-3.252,1.109-6.434,2.415-9.609,3.728C54.3,57.132,51.182,58.688,47.771,59.256Z"/><path class="cls-5" d="M47.771,60.371c3.408-.58,6.519-2.146,9.693-3.44,3.171-1.325,6.348-2.642,9.6-3.764a28.965,28.965,0,0,1,4.982-1.322,18.891,18.891,0,0,1,5.142.182A19.3,19.3,0,0,1,82.115,53.5a7.187,7.187,0,0,1,2.122,1.441,8.324,8.324,0,0,1,.863.957,2.281,2.281,0,0,1,.529,1.154A2.286,2.286,0,0,0,85.1,55.9a8.221,8.221,0,0,0-.865-.953,7.172,7.172,0,0,0-2.124-1.431,19.226,19.226,0,0,0-4.926-1.453,18.845,18.845,0,0,0-5.13-.164,29.077,29.077,0,0,0-4.964,1.337c-3.252,1.109-6.434,2.415-9.609,3.728C54.3,58.247,51.182,59.8,47.771,60.371Z"/><path class="cls-5" d="M47.771,61.486c3.408-.581,6.519-2.147,9.693-3.44,3.171-1.324,6.348-2.643,9.6-3.764a29.056,29.056,0,0,1,4.982-1.322,18.891,18.891,0,0,1,5.142.182,19.3,19.3,0,0,1,4.928,1.473,7.171,7.171,0,0,1,2.122,1.442,8.232,8.232,0,0,1,.863.956,2.281,2.281,0,0,1,.529,1.154,2.279,2.279,0,0,0-.533-1.151,8.221,8.221,0,0,0-.865-.953,7.172,7.172,0,0,0-2.124-1.431,19.226,19.226,0,0,0-4.926-1.453,18.805,18.805,0,0,0-5.13-.163,29.074,29.074,0,0,0-4.964,1.336c-3.252,1.109-6.434,2.415-9.609,3.728C54.3,59.362,51.182,60.918,47.771,61.486Z"/><path class="cls-5" d="M47.771,62.6c3.408-.58,6.519-2.147,9.693-3.44,3.171-1.325,6.348-2.642,9.6-3.765a29.053,29.053,0,0,1,4.982-1.321,18.891,18.891,0,0,1,5.142.182,19.3,19.3,0,0,1,4.928,1.473,7.187,7.187,0,0,1,2.122,1.441,8.324,8.324,0,0,1,.863.957,2.281,2.281,0,0,1,.529,1.154,2.286,2.286,0,0,0-.533-1.151,8.221,8.221,0,0,0-.865-.953,7.172,7.172,0,0,0-2.124-1.431,19.226,19.226,0,0,0-4.926-1.453,18.845,18.845,0,0,0-5.13-.164,28.985,28.985,0,0,0-4.964,1.337c-3.252,1.109-6.434,2.415-9.609,3.728C54.3,60.477,51.182,62.033,47.771,62.6Z"/><path class="cls-5" d="M47.771,63.716c3.408-.581,6.519-2.147,9.693-3.44,3.171-1.325,6.348-2.643,9.6-3.764a29.056,29.056,0,0,1,4.982-1.322,18.891,18.891,0,0,1,5.142.182,19.3,19.3,0,0,1,4.928,1.473,7.171,7.171,0,0,1,2.122,1.442,8.151,8.151,0,0,1,.863.956,2.281,2.281,0,0,1,.529,1.154,2.279,2.279,0,0,0-.533-1.151,8.221,8.221,0,0,0-.865-.953,7.172,7.172,0,0,0-2.124-1.431,19.226,19.226,0,0,0-4.926-1.453,18.845,18.845,0,0,0-5.13-.164,29.169,29.169,0,0,0-4.964,1.337C63.835,57.69,60.653,59,57.478,60.31,54.3,61.592,51.182,63.147,47.771,63.716Z"/><path class="cls-5" d="M47.771,64.831c3.408-.581,6.519-2.147,9.693-3.44,3.171-1.325,6.348-2.642,9.6-3.765a29.053,29.053,0,0,1,4.982-1.321,18.891,18.891,0,0,1,5.142.182,19.3,19.3,0,0,1,4.928,1.473A7.187,7.187,0,0,1,84.237,59.4a8.324,8.324,0,0,1,.863.957,2.281,2.281,0,0,1,.529,1.154,2.282,2.282,0,0,0-.533-1.151,8.221,8.221,0,0,0-.865-.953,7.172,7.172,0,0,0-2.124-1.431,19.226,19.226,0,0,0-4.926-1.453,18.845,18.845,0,0,0-5.13-.164A28.985,28.985,0,0,0,67.087,57.7c-3.252,1.109-6.434,2.415-9.609,3.728C54.3,62.707,51.182,64.263,47.771,64.831Z"/><path class="cls-5" d="M43.182,71.17c3.409-.58,6.519-2.147,9.693-3.44,3.171-1.324,6.348-2.643,9.6-3.764a29.08,29.08,0,0,1,4.982-1.322,18.891,18.891,0,0,1,5.142.182A19.287,19.287,0,0,1,77.526,64.3a7.19,7.19,0,0,1,2.122,1.442,8.16,8.16,0,0,1,.863.957,2.277,2.277,0,0,1,.529,1.154,2.282,2.282,0,0,0-.533-1.152,8.13,8.13,0,0,0-.865-.952,7.143,7.143,0,0,0-2.124-1.432,19.266,19.266,0,0,0-4.926-1.453,18.845,18.845,0,0,0-5.13-.163A29.1,29.1,0,0,0,62.5,64.036c-3.252,1.109-6.434,2.415-9.609,3.728C49.712,69.046,46.593,70.6,43.182,71.17Z"/><path class="cls-5" d="M43.182,72.285c3.409-.58,6.519-2.146,9.693-3.44,3.171-1.324,6.348-2.642,9.6-3.764a28.989,28.989,0,0,1,4.982-1.322,18.891,18.891,0,0,1,5.142.182,19.249,19.249,0,0,1,4.928,1.474,7.149,7.149,0,0,1,2.122,1.441,8.232,8.232,0,0,1,.863.956,2.281,2.281,0,0,1,.529,1.154,2.286,2.286,0,0,0-.533-1.151,8.221,8.221,0,0,0-.865-.953,7.159,7.159,0,0,0-2.124-1.431,19.266,19.266,0,0,0-4.926-1.453,18.885,18.885,0,0,0-5.13-.164A29.1,29.1,0,0,0,62.5,65.151c-3.252,1.109-6.434,2.415-9.609,3.728C49.712,70.161,46.593,71.717,43.182,72.285Z"/><path class="cls-5" d="M43.182,73.4c3.409-.58,6.519-2.147,9.693-3.44,3.171-1.324,6.348-2.643,9.6-3.764a29.08,29.08,0,0,1,4.982-1.322,18.891,18.891,0,0,1,5.142.182,19.287,19.287,0,0,1,4.928,1.473,7.19,7.19,0,0,1,2.122,1.442,8.232,8.232,0,0,1,.863.956,2.284,2.284,0,0,1,.529,1.155,2.282,2.282,0,0,0-.533-1.152,8.13,8.13,0,0,0-.865-.952,7.143,7.143,0,0,0-2.124-1.432,19.226,19.226,0,0,0-4.926-1.453,18.805,18.805,0,0,0-5.13-.163A29.1,29.1,0,0,0,62.5,66.266c-3.252,1.109-6.434,2.415-9.609,3.728C49.712,71.276,46.593,72.832,43.182,73.4Z"/><path class="cls-5" d="M43.182,74.515c3.409-.58,6.519-2.147,9.693-3.44,3.171-1.325,6.348-2.642,9.6-3.764a28.989,28.989,0,0,1,4.982-1.322,18.891,18.891,0,0,1,5.142.182,19.287,19.287,0,0,1,4.928,1.473,7.187,7.187,0,0,1,2.122,1.441,8.324,8.324,0,0,1,.863.957A2.281,2.281,0,0,1,81.04,71.2a2.286,2.286,0,0,0-.533-1.151,8.221,8.221,0,0,0-.865-.953,7.159,7.159,0,0,0-2.124-1.431,19.266,19.266,0,0,0-4.926-1.453,18.885,18.885,0,0,0-5.13-.164A29.009,29.009,0,0,0,62.5,67.381c-3.252,1.109-6.434,2.415-9.609,3.728C49.712,72.391,46.593,73.947,43.182,74.515Z"/><path class="cls-5" d="M43.182,75.63c3.409-.581,6.519-2.147,9.693-3.44,3.171-1.325,6.348-2.643,9.6-3.764A29.08,29.08,0,0,1,67.456,67.1a18.891,18.891,0,0,1,5.142.182,19.287,19.287,0,0,1,4.928,1.473A7.171,7.171,0,0,1,79.648,70.2a8.232,8.232,0,0,1,.863.956,2.281,2.281,0,0,1,.529,1.155,2.278,2.278,0,0,0-.533-1.152,8.13,8.13,0,0,0-.865-.952,7.143,7.143,0,0,0-2.124-1.432,19.226,19.226,0,0,0-4.926-1.453,18.845,18.845,0,0,0-5.13-.164A29.194,29.194,0,0,0,62.5,68.5c-3.252,1.108-6.434,2.415-9.609,3.728C49.712,73.506,46.593,75.062,43.182,75.63Z"/><path class="cls-5" d="M43.182,76.745c3.409-.58,6.519-2.147,9.693-3.44,3.171-1.325,6.348-2.642,9.6-3.764a28.989,28.989,0,0,1,4.982-1.322A18.891,18.891,0,0,1,72.6,68.4a19.287,19.287,0,0,1,4.928,1.473,7.187,7.187,0,0,1,2.122,1.441,8.324,8.324,0,0,1,.863.957,2.281,2.281,0,0,1,.529,1.154,2.282,2.282,0,0,0-.533-1.151,8.221,8.221,0,0,0-.865-.953,7.159,7.159,0,0,0-2.124-1.431,19.266,19.266,0,0,0-4.926-1.453,18.885,18.885,0,0,0-5.13-.164A29.009,29.009,0,0,0,62.5,69.611c-3.252,1.109-6.434,2.415-9.609,3.728C49.712,74.621,46.593,76.177,43.182,76.745Z"/><path class="cls-5" d="M43.182,77.86c3.409-.581,6.519-2.147,9.693-3.44,3.171-1.325,6.348-2.643,9.6-3.765a29.077,29.077,0,0,1,4.982-1.321,18.891,18.891,0,0,1,5.142.182,19.287,19.287,0,0,1,4.928,1.473,7.171,7.171,0,0,1,2.122,1.442,8.232,8.232,0,0,1,.863.956,2.277,2.277,0,0,1,.529,1.154,2.279,2.279,0,0,0-.533-1.151,8.221,8.221,0,0,0-.865-.953,7.159,7.159,0,0,0-2.124-1.431,19.226,19.226,0,0,0-4.926-1.453,18.845,18.845,0,0,0-5.13-.164A29.1,29.1,0,0,0,62.5,70.726c-3.252,1.108-6.434,2.415-9.609,3.728C49.712,75.736,46.593,77.292,43.182,77.86Z"/><path class="cls-5" d="M38.429,85.756c3.409-.58,6.519-2.147,9.693-3.44,3.171-1.324,6.348-2.642,9.6-3.764A29.08,29.08,0,0,1,62.7,77.23a18.9,18.9,0,0,1,5.143.182,19.279,19.279,0,0,1,4.927,1.473A7.2,7.2,0,0,1,74.9,80.327a8.152,8.152,0,0,1,.862.957,2.274,2.274,0,0,1,.529,1.154,2.273,2.273,0,0,0-.533-1.152,8.221,8.221,0,0,0-.865-.953A7.167,7.167,0,0,0,72.766,78.9a19.266,19.266,0,0,0-4.926-1.453,18.846,18.846,0,0,0-5.13-.163,29.084,29.084,0,0,0-4.965,1.336c-3.252,1.109-6.433,2.415-9.609,3.728C44.959,83.632,41.84,85.188,38.429,85.756Z"/><path class="cls-5" d="M38.429,86.871c3.409-.58,6.519-2.146,9.693-3.44,3.171-1.325,6.348-2.642,9.6-3.764A28.989,28.989,0,0,1,62.7,78.345a18.9,18.9,0,0,1,5.143.182A19.279,19.279,0,0,1,72.773,80,7.176,7.176,0,0,1,74.9,81.442a8.223,8.223,0,0,1,.862.956,2.281,2.281,0,0,1,.529,1.154,2.278,2.278,0,0,0-.533-1.151,8.221,8.221,0,0,0-.865-.953,7.167,7.167,0,0,0-2.123-1.431,19.226,19.226,0,0,0-4.926-1.453,18.847,18.847,0,0,0-5.13-.164,29.087,29.087,0,0,0-4.965,1.337c-3.252,1.109-6.433,2.415-9.609,3.728C44.959,84.747,41.84,86.3,38.429,86.871Z"/><path class="cls-5" d="M38.429,87.986c3.409-.58,6.519-2.147,9.693-3.44,3.171-1.324,6.348-2.643,9.6-3.764A29.08,29.08,0,0,1,62.7,79.46a18.9,18.9,0,0,1,5.143.182,19.279,19.279,0,0,1,4.927,1.473A7.176,7.176,0,0,1,74.9,82.557a8.223,8.223,0,0,1,.862.956,2.281,2.281,0,0,1,.529,1.154,2.27,2.27,0,0,0-.533-1.151,8.221,8.221,0,0,0-.865-.953,7.167,7.167,0,0,0-2.123-1.431,19.226,19.226,0,0,0-4.926-1.453,18.807,18.807,0,0,0-5.13-.163,29.084,29.084,0,0,0-4.965,1.336c-3.252,1.109-6.433,2.415-9.609,3.728C44.959,85.862,41.84,87.418,38.429,87.986Z"/><path class="cls-5" d="M38.429,89.1c3.409-.58,6.519-2.146,9.693-3.44,3.171-1.325,6.348-2.642,9.6-3.765A29.077,29.077,0,0,1,62.7,80.575a18.9,18.9,0,0,1,5.143.182,19.279,19.279,0,0,1,4.927,1.473A7.192,7.192,0,0,1,74.9,83.671a8.315,8.315,0,0,1,.862.957,2.281,2.281,0,0,1,.529,1.154,2.278,2.278,0,0,0-.533-1.151,8.221,8.221,0,0,0-.865-.953,7.167,7.167,0,0,0-2.123-1.431,19.226,19.226,0,0,0-4.926-1.453,18.847,18.847,0,0,0-5.13-.164,29.087,29.087,0,0,0-4.965,1.337c-3.252,1.109-6.433,2.415-9.609,3.728C44.959,86.977,41.84,88.533,38.429,89.1Z"/><path class="cls-5" d="M38.429,90.216c3.409-.581,6.519-2.147,9.693-3.44,3.171-1.325,6.348-2.643,9.6-3.764A29.08,29.08,0,0,1,62.7,81.69a18.9,18.9,0,0,1,5.143.182,19.279,19.279,0,0,1,4.927,1.473A7.176,7.176,0,0,1,74.9,84.787a8.143,8.143,0,0,1,.862.956,2.281,2.281,0,0,1,.529,1.154,2.27,2.27,0,0,0-.533-1.151,8.221,8.221,0,0,0-.865-.953,7.167,7.167,0,0,0-2.123-1.431,19.226,19.226,0,0,0-4.926-1.453,18.847,18.847,0,0,0-5.13-.164,29.18,29.18,0,0,0-4.965,1.337c-3.252,1.109-6.433,2.415-9.609,3.728C44.959,88.092,41.84,89.647,38.429,90.216Z"/><path class="cls-5" d="M38.429,91.331c3.409-.581,6.519-2.147,9.693-3.44,3.171-1.325,6.348-2.642,9.6-3.765A29.077,29.077,0,0,1,62.7,82.805a18.9,18.9,0,0,1,5.143.182,19.279,19.279,0,0,1,4.927,1.473A7.192,7.192,0,0,1,74.9,85.9a8.315,8.315,0,0,1,.862.957,2.281,2.281,0,0,1,.529,1.154,2.274,2.274,0,0,0-.533-1.151,8.221,8.221,0,0,0-.865-.953,7.167,7.167,0,0,0-2.123-1.431,19.226,19.226,0,0,0-4.926-1.453,18.847,18.847,0,0,0-5.13-.164A29,29,0,0,0,57.745,84.2c-3.252,1.109-6.433,2.415-9.609,3.728C44.959,89.207,41.84,90.763,38.429,91.331Z"/><path class="cls-5" d="M38.429,92.446c3.409-.581,6.519-2.147,9.693-3.44,3.171-1.325,6.348-2.643,9.6-3.765A29.169,29.169,0,0,1,62.7,83.92a18.9,18.9,0,0,1,5.143.182,19.279,19.279,0,0,1,4.927,1.473A7.176,7.176,0,0,1,74.9,87.017a8.143,8.143,0,0,1,.862.956,2.281,2.281,0,0,1,.529,1.154,2.27,2.27,0,0,0-.533-1.151,8.221,8.221,0,0,0-.865-.953,7.167,7.167,0,0,0-2.123-1.431,19.226,19.226,0,0,0-4.926-1.453,18.847,18.847,0,0,0-5.13-.164,29.087,29.087,0,0,0-4.965,1.337c-3.252,1.108-6.433,2.415-9.609,3.728C44.959,90.322,41.84,91.877,38.429,92.446Z"/><polygon class="cls-8" points="43.51 58.879 40.724 66.172 43.1 66.254 45.804 58.797 43.51 58.879"/><polygon class="cls-8" points="37.282 72.236 34.496 79.529 36.872 79.61 39.577 72.154 37.282 72.236"/><polygon class="cls-8" points="31.546 86.084 28.76 93.377 31.136 93.459 33.841 86.002 31.546 86.084"/></svg>