<svg id="word" xmlns="http://www.w3.org/2000/svg" viewBox="0 0 160 160"><defs><style>.cls-1{fill:#006695;}</style></defs><path class="cls-1" d="M60.735,66.471a10.146,10.146,0,0,0,1.98-6.12,10.08,10.08,0,0,0-20.159,0h-11.7A21.78,21.78,0,1,1,70,73.581L52.455,96.8H74.864v11.7H29.056Z"/><path class="cls-1" d="M82.489,73.4c0-19.8,8.189-35.1,23.939-35.1s23.939,15.3,23.939,35.1c0,19.35-8.1,36.179-23.939,36.179S82.489,92.75,82.489,73.4Zm36.178,0c0-12.059-3.06-23.488-12.239-23.488S94.188,61.341,94.188,73.4c0,12.24,2.97,24.569,12.24,24.569S118.667,85.64,118.667,73.4Z"/></svg>