<svg id="word" xmlns="http://www.w3.org/2000/svg" viewBox="0 0 160 160"><defs><style>.cls-1{fill:#f9af18;}.cls-1,.cls-2,.cls-3{stroke:#9d4b9c;stroke-miterlimit:10;stroke-width:0.873px;}.cls-2{fill:#d8801a;}.cls-3{fill:#fcc136;}.cls-4{fill:#b4d45b;}.cls-11,.cls-4,.cls-5,.cls-7,.cls-8,.cls-9{stroke:#231f20;stroke-width:0.308px;}.cls-5{fill:#d2df56;}.cls-6,.cls-8{fill:#fff;}.cls-7{fill:#bdbfc1;}.cls-9{fill:#e2e3e4;}.cls-10{fill:#231f20;}.cls-11{fill:none;stroke-linecap:round;}</style></defs><path class="cls-1" d="M67.6,90.941l-3.619,40.072a7,7,0,0,0,7.068,5.627c6.509-.037,6.467-6.9,6.467-6.9v-38.8Z"/><path class="cls-1" d="M90.136,85.337,89.4,108.742s.956,4.97,7.053,5.049c7.16.091,7.054-5.7,7.054-5.7l-1.849-22.755Z"/><path class="cls-1" d="M40.01,72.835l-3.044,38.634s.026,5.77,5.2,6.2a6.719,6.719,0,0,0,6.9-3.87V81.292Z"/><path class="cls-1" d="M112.437,85.337l2.03,35.733s2.111,5.488,8.748,4.361c4.933-.838,5.6-5.771,5.6-5.771l-4.742-39.928Z"/><path class="cls-2" d="M38.285,59.9V74.817S62.428,94.852,69.972,95.268s59.039-10.287,58.943-12.911,0-11.678,0-11.678Z"/><path class="cls-3" d="M98.328,48.957s16.382,6.768,25,12.571c6.362,4.282,9.952,10.013,5.564,11.307s-48.362,12.5-63.02,6.9S35.7,64.643,38.285,59.9,71.6,46.8,98.328,48.957Z"/><rect class="cls-4" x="31.511" y="49.601" width="102.73" height="20.062"/><polygon class="cls-5" points="31.681 49.959 56.43 27 112.374 27 134.242 49.601 31.681 49.959"/><path class="cls-6" d="M45.717,63.9h-.329a6.431,6.431,0,0,0-.643.036c-.149.015-.253.024-.311.024a.687.687,0,0,1-.5-.186.645.645,0,0,1-.192-.486.553.553,0,0,1,.085-.327.576.576,0,0,1,.277-.189.388.388,0,0,0,.245-.2,1.771,1.771,0,0,0,.1-.525q.039-.45.067-1.752t.03-2.586a2.4,2.4,0,0,0-.06-.673.49.49,0,0,0-.279-.27.55.55,0,0,1-.315-.535.543.543,0,0,1,.218-.458.98.98,0,0,1,.605-.165c.084,0,.185,0,.3.006.256.012.442.018.557.018q.652,0,1.474-.054c.116-.008.26-.012.434-.012a3.663,3.663,0,0,1,1.652.311,2.963,2.963,0,0,1,1.36,1.573,6.006,6.006,0,0,1,.407,2.316,6.319,6.319,0,0,1-.151,1.36,4.958,4.958,0,0,1-.406,1.179,3.014,3.014,0,0,1-1.461,1.417,2.9,2.9,0,0,1-1.168.239l-.553-.024-.474-.018Q46.137,63.9,45.717,63.9Zm.958-6.505v4.645a.89.89,0,0,0,.124.537.489.489,0,0,0,.41.159q1.333,0,1.333-2.665a6.633,6.633,0,0,0-.31-2.28,1.2,1.2,0,0,0-1.16-.894.37.37,0,0,0-.308.114A.631.631,0,0,0,46.675,57.4Z"/><path class="cls-6" d="M60.415,55.541a2.8,2.8,0,0,1,2.049.883A4.509,4.509,0,0,1,63.427,58a5.424,5.424,0,0,1,.361,1.921,4.606,4.606,0,0,1-.712,2.532A3.445,3.445,0,0,1,61.5,63.811a3.069,3.069,0,0,1-1.2.251,2.9,2.9,0,0,1-1.511-.431,3.511,3.511,0,0,1-1.364-1.578,5.24,5.24,0,0,1-.479-2.251,5.048,5.048,0,0,1,.616-2.52,3.4,3.4,0,0,1,1.474-1.429A3.025,3.025,0,0,1,60.415,55.541Zm-.433,1.723a.676.676,0,0,0-.607.451,1.707,1.707,0,0,0-.174.8,6.963,6.963,0,0,0,.21,1.57,8.247,8.247,0,0,0,.53,1.581,1.365,1.365,0,0,0,.348.468.658.658,0,0,0,.422.174.642.642,0,0,0,.561-.342,1.7,1.7,0,0,0,.211-.9,7.551,7.551,0,0,0-.178-1.566,6.449,6.449,0,0,0-.461-1.434,1.842,1.842,0,0,0-.4-.577A.746.746,0,0,0,59.982,57.264Z"/><path class="cls-6" d="M74.311,61.417l-.548,1.614a3.376,3.376,0,0,1-.228.549c-.058.094-.122.14-.191.14a.219.219,0,0,1-.18-.113,4.584,4.584,0,0,1-.229-.528c-.121-.3-.22-.574-.3-.811l-.6-1.782q-.123-.372-.26-.372c-.1,0-.151.106-.16.318q-.031.709-.031,1.309a5.1,5.1,0,0,0,.045.845.459.459,0,0,0,.085.193,1.823,1.823,0,0,0,.284.215.4.4,0,0,1,.151.354q0,.674-1.31.672c-.736,0-1.1-.217-1.1-.654a.41.41,0,0,1,.057-.243,1.33,1.33,0,0,1,.294-.224.452.452,0,0,0,.2-.247,3.058,3.058,0,0,0,.089-.605q.04-.481.077-1.575t.037-1.876a5.024,5.024,0,0,0-.114-1.326.543.543,0,0,0-.094-.18,1.027,1.027,0,0,0-.2-.157.6.6,0,0,1-.324-.527.669.669,0,0,1,.443-.63,2.834,2.834,0,0,1,.536-.135,3.38,3.38,0,0,1,.569-.057,1.933,1.933,0,0,1,.826.126.472.472,0,0,1,.186.161,2.7,2.7,0,0,1,.2.421l.949,2.3a3.139,3.139,0,0,0,.215.462.19.19,0,0,0,.164.085.2.2,0,0,0,.162-.091,1.475,1.475,0,0,0,.167-.336l.643-1.65c.079-.211.13-.35.156-.414a2.125,2.125,0,0,1,.442-.8,1.51,1.51,0,0,1,1.013-.257q1.292,0,1.292.774a.644.644,0,0,1-.051.279.968.968,0,0,1-.206.255,1.026,1.026,0,0,0-.263.606,16.177,16.177,0,0,0-.106,2.017q0,1.53.109,2.681a1.064,1.064,0,0,0,.086.384,1.393,1.393,0,0,0,.294.307.482.482,0,0,1,.164.384.608.608,0,0,1-.425.594,1.71,1.71,0,0,1-.461.126,6.7,6.7,0,0,1-.744.029,3.451,3.451,0,0,1-1.15-.143.567.567,0,0,1-.419-.553.466.466,0,0,1,.054-.236,2.583,2.583,0,0,1,.283-.339.882.882,0,0,0,.162-.487,11.641,11.641,0,0,0,.044-1.223,3.541,3.541,0,0,0-.035-.631c-.022-.1-.071-.149-.143-.149s-.168.076-.247.231A8.35,8.35,0,0,0,74.311,61.417Z"/><path class="cls-6" d="M85.614,55.584a3.875,3.875,0,0,1,.98.12q.623.162.622.69a.453.453,0,0,1-.062.261,1.349,1.349,0,0,1-.312.255.837.837,0,0,0-.277.606A16.248,16.248,0,0,0,86.5,59.34a26.386,26.386,0,0,0,.086,2.838.672.672,0,0,0,.1.267.864.864,0,0,0,.231.2.577.577,0,0,1,.3.523.677.677,0,0,1-.557.66,4.905,4.905,0,0,1-1.475.191q-1.487,0-1.487-.743a.653.653,0,0,1,.292-.5.73.73,0,0,0,.265-.493q.086-.684.086-2.9a9.842,9.842,0,0,0-.118-1.968.866.866,0,0,0-.306-.445,1.2,1.2,0,0,1-.251-.269.542.542,0,0,1-.063-.276.5.5,0,0,1,.189-.412,1.831,1.831,0,0,1,.668-.272A4.476,4.476,0,0,1,85.614,55.584Z"/><path class="cls-6" d="M95.644,56l2.272,2.616q.32.366.461.366c.158,0,.238-.221.238-.666a4.944,4.944,0,0,0-.07-1.032.652.652,0,0,0-.287-.414.742.742,0,0,1-.251-.243.681.681,0,0,1-.073-.333.627.627,0,0,1,.526-.648,3.107,3.107,0,0,1,.748-.06,2.866,2.866,0,0,1,.954.108.628.628,0,0,1,.419.636.639.639,0,0,1-.342.588.709.709,0,0,0-.187.138.538.538,0,0,0-.087.18,6.093,6.093,0,0,0-.128,1.5v1.957q0,.45.006,1.229a8.016,8.016,0,0,1-.1,1.525c-.082.388-.231.581-.447.581a.393.393,0,0,1-.244-.077,2.757,2.757,0,0,1-.34-.36L96.009,60.4c-.189-.223-.345-.336-.471-.336q-.279,0-.278,1.015a5.9,5.9,0,0,0,.071,1.139.7.7,0,0,0,.29.451.593.593,0,0,1,.305.516q0,.834-1.364.833a1.8,1.8,0,0,1-.956-.212.673.673,0,0,1-.34-.6.6.6,0,0,1,.063-.306,1.3,1.3,0,0,1,.288-.277.826.826,0,0,0,.26-.593c.053-.517.078-1.258.078-2.227a13.115,13.115,0,0,0-.137-2.256,1.2,1.2,0,0,0-.128-.384.806.806,0,0,0-.255-.241.91.91,0,0,1-.286-.257.573.573,0,0,1-.08-.306c0-.384.251-.627.753-.726a5.624,5.624,0,0,1,.9-.048,1.409,1.409,0,0,1,.531.074A1.322,1.322,0,0,1,95.644,56Z"/><path class="cls-6" d="M109.9,55.541a2.8,2.8,0,0,1,2.049.883A4.538,4.538,0,0,1,112.916,58a5.445,5.445,0,0,1,.36,1.921,4.605,4.605,0,0,1-.711,2.532,3.445,3.445,0,0,1-1.575,1.362,3.069,3.069,0,0,1-1.2.251,2.9,2.9,0,0,1-1.511-.431,3.5,3.5,0,0,1-1.364-1.578,5.24,5.24,0,0,1-.479-2.251,5.037,5.037,0,0,1,.616-2.52,3.393,3.393,0,0,1,1.474-1.429A3.022,3.022,0,0,1,109.9,55.541Zm-.434,1.723a.676.676,0,0,0-.606.451,1.707,1.707,0,0,0-.174.8,6.963,6.963,0,0,0,.21,1.57,8.248,8.248,0,0,0,.529,1.581,1.367,1.367,0,0,0,.349.468.658.658,0,0,0,.422.174.64.64,0,0,0,.56-.342,1.7,1.7,0,0,0,.211-.9,7.546,7.546,0,0,0-.177-1.566,6.449,6.449,0,0,0-.461-1.434,1.86,1.86,0,0,0-.4-.577A.742.742,0,0,0,109.47,57.264Z"/><polygon class="cls-7" points="63.354 42.808 63.44 47.988 88.905 34.167 89.11 30.65 63.354 42.808"/><polygon class="cls-8" points="48.846 39.897 63.299 43.139 89.11 30.65 76.525 29.445 48.846 39.897"/><polygon class="cls-9" points="48.846 39.897 48.93 44.91 63.439 47.944 63.801 42.889 48.846 39.897"/><path class="cls-10" d="M60.487,39.06c0,.46-1.433.841-3.207.851s-3.214-.358-3.217-.82,1.433-.843,3.207-.851S60.486,38.6,60.487,39.06Z"/><path class="cls-10" d="M66.487,36.367c0,.462-1.433.843-3.207.853s-3.215-.358-3.216-.818,1.433-.844,3.206-.853S66.485,35.907,66.487,36.367Z"/><path class="cls-10" d="M67.985,40.151c0,.491-1.531.9-3.425.909s-3.432-.381-3.435-.874,1.53-.9,3.425-.91S67.981,39.659,67.985,40.151Z"/><path class="cls-10" d="M73.624,37.173c0,.495-1.53.9-3.425.911s-3.433-.381-3.435-.876,1.53-.9,3.424-.909S73.621,36.683,73.624,37.173Z"/><line class="cls-11" x1="65.584" y1="33.876" x2="77.347" y2="35.949"/><path class="cls-10" d="M80.713,32.117c0,.492-1.531.9-3.426.908s-3.432-.381-3.435-.874,1.531-.9,3.425-.91S80.709,31.624,80.713,32.117Z"/><polygon class="cls-7" points="88.355 40.771 86.8 45.74 115.49 39.626 116.798 36.324 88.355 40.771"/><polygon class="cls-8" points="75.421 33.955 88.199 41.071 116.798 36.324 105.161 31.672 75.421 33.955"/><polygon class="cls-9" points="75.421 33.955 73.918 38.765 86.813 45.699 88.758 40.972 75.421 33.955"/><path class="cls-10" d="M108.224,36.969c-.143.443-1.635.406-3.332-.079s-2.956-1.235-2.814-1.676,1.636-.406,3.333.079S108.368,36.529,108.224,36.969Z"/><path class="cls-10" d="M95.234,35.3c-.142.441-1.634.407-3.332-.078s-2.956-1.236-2.813-1.677,1.635-.406,3.333.079S95.378,34.858,95.234,35.3Z"/><path class="cls-10" d="M92.8,39.857c-.153.472-1.746.435-3.559-.085s-3.156-1.318-3-1.79,1.746-.433,3.559.085S92.95,39.387,92.8,39.857Z"/><line class="cls-11" x1="93.311" y1="32.861" x2="103.889" y2="38.111"/><path class="cls-10" d="M108.521,34.38c-.153.472-1.746.435-3.559-.084s-3.156-1.319-3-1.791,1.747-.433,3.559.085S108.673,33.911,108.521,34.38Z"/><path class="cls-10" d="M93.951,37.418c-.143.441-1.636.406-3.333-.079s-2.957-1.236-2.813-1.677,1.636-.406,3.332.079S94.094,36.977,93.951,37.418Z"/></svg>