<svg id="word" xmlns="http://www.w3.org/2000/svg" xmlns:xlink="http://www.w3.org/1999/xlink" viewBox="0 0 160 160"><defs><style>.cls-1{fill:url(#linear-gradient);}.cls-2{fill:#e0c089;}.cls-2,.cls-3,.cls-4,.cls-5,.cls-6{stroke:#9c4b9b;stroke-width:0.5px;}.cls-3{fill:#ead09d;}.cls-4{fill:#c3996b;}.cls-5{fill:#a6b7aa;}.cls-6{fill:#574b45;stroke-miterlimit:10;}</style><linearGradient id="linear-gradient" x1="89.994" y1="29.961" x2="89.661" y2="138.628" gradientUnits="userSpaceOnUse"><stop offset="0.016" stop-color="#75568c"/><stop offset="0.366" stop-color="#ef9da6"/><stop offset="1" stop-color="#e7f0cc"/></linearGradient></defs><polygon class="cls-1" points="60.333 136 120 142.333 119 16.333 59.667 22.333 60.333 136"/><polygon class="cls-2" points="58.778 20.734 62.659 23.93 63.192 136.105 59.234 135.648 58.778 20.734"/><polygon class="cls-2" points="58.778 20.734 121.608 14.947 118.061 19.059 62.659 23.93 58.778 20.734"/><polygon class="cls-2" points="65.044 23.1 65.835 137.52 94.657 122.678 94.673 28.679 65.044 23.1"/><polygon class="cls-3" points="69.921 29.891 70.031 68.351 90.842 69.681 90.512 33.105 69.921 29.891"/><polygon class="cls-4" points="65.044 23.1 62.486 24.171 63.204 135.931 65.835 137.52 65.044 23.1"/><polygon class="cls-3" points="70.691 73.893 90.512 75.001 90.622 117.341 71.001 125.419 70.691 79.989 70.691 73.893"/><path class="cls-5" d="M94,70.151l-1.989.077s-.07,6.459.069,7.83.658,3.926.658,3.926H93.88s.322-3.168.322-4.308c0-.626.371.134.06-6.777C94.262,70.9,94.5,70.015,94,70.151Z"/><path class="cls-5" d="M99,71.9H93.379s-1.509.533-.617,1.368a1.967,1.967,0,0,0,1.852.532l3.7-.913a1.942,1.942,0,0,0,.755.913C99.552,74.029,100.582,72.205,99,71.9Z"/><path class="cls-6" d="M93.014,77.046s-.008-.024-.023-.064c-.107-.3-.492-1.183.294-1.119s0,1.2,0,1.2l.432,1.816-.955-.254Z"/><polygon class="cls-2" points="121.562 15.102 118.061 19.059 118.443 142.345 122.323 142.802 121.562 15.102"/></svg>