<svg id="word" xmlns="http://www.w3.org/2000/svg" viewBox="0 0 160 160"><defs><style>.cls-1{fill:#e93b92;}.cls-1,.cls-2,.cls-3,.cls-4,.cls-7{stroke:#9c4c9c;}.cls-1,.cls-2,.cls-3{stroke-miterlimit:10;stroke-width:0.691px;}.cls-2,.cls-6{fill:#fdeadf;}.cls-3{fill:#fff;}.cls-4{fill:#f7f1b8;}.cls-4,.cls-7{stroke-width:0.693px;}.cls-5{fill:#9c4c9c;}.cls-7{fill:none;}</style></defs><polygon class="cls-1" points="118.747 141.514 103.678 118.706 59.692 124.816 53.176 141.717 118.747 141.514"/><path class="cls-2" d="M70.208,83.376l-.793,13.009a17.8,17.8,0,0,0,11.978,3.332c6.743-.794,12.3-4.125,11.978-5.236s.013-11.1.013-11.1Z"/><path class="cls-2" d="M98.607,33.877a72.043,72.043,0,0,1,7.139,9.519c2.221,3.966,2.856,11.264,3.49,16.341s4.76,10.471.635,17.61-8.567,8.567-12.851,9.2-23.956.793-28.716-1.9S56.088,71.794,55.136,67.352s-2.855-25.226,1.745-29.509,12.534-13.485,19.2-10.788S98.607,33.877,98.607,33.877Z"/><path class="cls-2" d="M93.371,62.434s.952-3.649,3.332-3.491,2.062,3.491,2.062,3.491"/><path class="cls-2" d="M89.405,75.284s2.711-6.346,6.67-5.235,2.7,3.332,2.7,3.332"/><path class="cls-3" d="M77.03,63.7s-3.156-5.394.961-7.615,8.558,1.423,7.448,4.6S81.155,67.986,77.03,63.7Z"/><path class="cls-3" d="M99.364,56.928s-.259-3.379,2.914-3.379,6.663,2.687,5.077,5.389-6.508,3.5-7.284.8C99.8,58.807,99.364,56.928,99.364,56.928Z"/><path class="cls-4" d="M61.324,38.8s3.649,12.85,1.586,19.2S59.261,68.173,59.261,72.6s6.28,9.5,7.231,10.775,8.039,4.151,8.039,4.151-14.952,2.512-18.6-2.406S44.348,61.006,41.968,53.549s1.746-16.5,4.125-19.355S57.2,20.867,66.559,19.439s25.854-3.14,34.427,5.712c9.716,10.031,6.02,14.036,6.315,15.819.449,2.714,4.38,4.54,4.38,4.54s-7.777-.792-11.647-5.922c-1.825-2.42-10.629-1.428-10.629-1.428s4.125,1.269,6.029,2.063,3.534,1.428,3.534,1.428a117.846,117.846,0,0,1-12.1-.794c-3.649-.634-9.836-1.586-12.374-1.745s4.442,3.49,4.918,3.49,1.269.794-4.918-.634S61.324,38.8,61.324,38.8Z"/><path class="cls-1" d="M69.736,91.122s3.813,6.359,9.674,6.691c11.309.639,13.974-6.429,13.974-6.429l11.251,3.952s2.219,17.073,1.824,18.5-4.329,5.683-4.329,5.683L52.6,125.1s5.235-30.973,8.091-32.621S69.736,91.122,69.736,91.122Z"/><path class="cls-1" d="M100.986,96.544s-5.508,6.5-6.8,9.2-5.417,6.029-6.686,6.981-7.96,4.442-7.96,4.442-2.384,6.324-2.987,7.933a18.561,18.561,0,0,0-.68,4.6s6.505,2.856,12.556,2.856,8.59-4.759,12.556-8.091a24.434,24.434,0,0,0,5.118-7.187,41.912,41.912,0,0,0,3.449-8.837c.794-3.649.635-10.947-1.745-11.9S103.015,94.072,100.986,96.544Z"/><path class="cls-1" d="M58.151,95.2c-1.371,3.25-7.616,11.654-7.933,17.841s-.675,11.423,3.708,14.437,7.715,2.38,10.412,0a29.808,29.808,0,0,1,5.077-3.649s-.635-6.663,0-8.725S71,110.085,71,110.085H59.42L63.205,91.6A6.472,6.472,0,0,0,58.151,95.2Z"/><path class="cls-2" d="M69.97,110.465s5.712-.991,7.377-.991H91.264s-12.806,9.6-15.741,11.1-6.108,3.252-6.108,3.252S68.463,114.788,69.97,110.465Z"/><polygon class="cls-2" points="71.001 123.435 75.874 127.639 79.124 118.274 71.001 123.435"/><path class="cls-2" d="M68.78,110.085s-2.379-4.895-3.569-5.768a5.98,5.98,0,0,0-2.856-.951l2.38,2.617s-4.284-3.728-5.315-3.728-2.38.873-.635,2.062a50.345,50.345,0,0,1,4.577,3.887,28.586,28.586,0,0,1-3.863-1.586c-.238-.317-3.572-1.266-3.49-.448s2.618,2.114,2.618,2.114l2.538,1.8s-4.945-.373-5.606-.611-2.035.057-1.216.991,4.839.912,4.839.912l4.125-.912Z"/><path class="cls-5" d="M100.958,92.06c1.233,0,2.414-.352,3.709-.246a6.946,6.946,0,0,1,3.482,1.5,12.755,12.755,0,0,1,2.712,2.59,6.182,6.182,0,0,1,1.337,3.462,7.757,7.757,0,0,0-1.765-3.114,16.867,16.867,0,0,0-2.7-2.367,7.432,7.432,0,0,0-3.133-1.528C103.45,92.168,102.173,92.327,100.958,92.06Z"/><path class="cls-5" d="M106.863,89.442a4.579,4.579,0,0,1,2.674-.145,5.056,5.056,0,0,1,2.4,1.338,10.438,10.438,0,0,1,1.593,2.171,10.127,10.127,0,0,1,1.007,2.46c-.477-.746-.966-1.464-1.471-2.162a17.965,17.965,0,0,0-1.626-1.967A6.052,6.052,0,0,0,106.863,89.442Z"/><path class="cls-2" d="M61.435,65.541s-5.1-.17-5.68,3.1.685,6,2.84,6.647a13.814,13.814,0,0,0,5.421,0"/><path class="cls-5" d="M80.185,60.451s-1.728-2.8.526-3.954,4.686.739,4.078,2.388S82.444,62.675,80.185,60.451Z"/><path class="cls-5" d="M102.6,58.43s-1.728-2.8.526-3.954,4.687.739,4.079,2.387S104.861,60.654,102.6,58.43Z"/><path class="cls-6" d="M76.951,48.017s6.212-1.6,8.261.961,2.97,5.52,4.777,4.378a2.915,2.915,0,0,0,1.153-1.619"/><path class="cls-5" d="M76.951,48.017a13.065,13.065,0,0,1,4.427-.862,7.338,7.338,0,0,1,2.324.3,4.134,4.134,0,0,1,2.03,1.392c.945,1.2,1.629,2.57,2.45,3.7.424.554.912.967,1.526.681a2.7,2.7,0,0,0,1.434-1.492,2.7,2.7,0,0,1-1.221,1.923,1.474,1.474,0,0,1-1.306.135,2.887,2.887,0,0,1-1.012-.746c-1.054-1.176-1.737-2.475-2.645-3.6a4.778,4.778,0,0,0-3.609-1.534A24.506,24.506,0,0,0,76.951,48.017Z"/><path class="cls-5" d="M96.641,51.6a2.114,2.114,0,0,0,2.619-.686,24.7,24.7,0,0,0,1.567-2.691,4.752,4.752,0,0,1,2.767-2.025,4.879,4.879,0,0,1,3.285.208,5.7,5.7,0,0,0-5.23,2.352,12.087,12.087,0,0,1-1.86,2.706,3.064,3.064,0,0,1-1.6.731A1.7,1.7,0,0,1,96.641,51.6Z"/><path class="cls-7" d="M52.429,28.037a15.412,15.412,0,0,1,6.66,11.238,18.9,18.9,0,0,1-3.536,12.731"/><path class="cls-7" d="M53,26.568c2.285,3.795,4.992,7.78,9.186,9.2a17.017,17.017,0,0,0,3.641.7c1.406.153,6.7-1.032,8.115-.977"/><path class="cls-7" d="M54.09,26.568c3.1,2.739,7.287,3.947,11.405,4.322s8.263,0,12.4-.027,8.376.338,12.126,2.082"/><path class="cls-7" d="M58.541,35.5A20.019,20.019,0,0,1,61.5,47.412a29.234,29.234,0,0,1-3.482,11.882"/></svg>