<svg id="word" xmlns="http://www.w3.org/2000/svg" viewBox="0 0 160 160"><defs><style>.cls-1{fill:#c4c5c7;}.cls-1,.cls-2{stroke:#9d4b9c;stroke-width:0.75px;}.cls-2{fill:#fff;}.cls-3{fill:#93c0e7;}.cls-4{fill:none;stroke:#93c0e7;stroke-linecap:round;stroke-width:0.25px;}.cls-5{fill:#567289;}</style></defs><path class="cls-1" d="M58.03,58.8s-5.577-7.789,4.327-12.019c7.634-3.261,17.788-2.211,19.134-3.076s.674-4.9.674-4.9a10.38,10.38,0,0,1,8.077-1.828c5.865.963,5.769,2.788,5.769,2.788s-.481,3.27,0,4.039,3.942,2.019,6.924,2.116,13.653,2.307,16.538,6.443,2.308,6.923-.673,9.231"/><path class="cls-2" d="M120.517,58.887c-.158,5.891-14.489,10.283-32.008,9.808S56.92,63.059,57.08,57.165s14.49-10.283,32.008-9.807S120.677,52.994,120.517,58.887Z"/><path class="cls-3" d="M85.757,50.021s-6.49,37.789-6.779,41.684-1.3,9.663,0,9.519,2.6-12.26,2.6-12.26Z"/><path class="cls-3" d="M80.06,56.246l-7.211,43.847s-1.731,7.067-.145,7.788,2.452-8.365,2.452-8.365Z"/><path class="cls-3" d="M76.454,109.035l-4.038,23.222s-.866,5.192.288,5.769,1.587-8.654,1.587-8.654Z"/><line class="cls-4" x1="67.945" y1="64.564" x2="62.465" y2="106.297"/><path class="cls-3" d="M106,53.434s-6.49,37.789-6.779,41.684-1.3,9.663,0,9.519,2.6-12.26,2.6-12.26Z"/><path class="cls-3" d="M97.368,56.006,90.156,99.853s-1.73,7.067-.144,7.788,2.452-8.365,2.452-8.365Z"/><path class="cls-3" d="M93.005,62.209,88.967,85.43s-.866,5.193.288,5.77,1.587-8.654,1.587-8.654Z"/><path class="cls-3" d="M66.286,53.506S59.8,91.3,59.507,95.189s-1.3,9.663,0,9.519,2.6-12.26,2.6-12.26Z"/><path class="cls-3" d="M72.657,56.679l-7.212,43.846s-1.73,7.068-.144,7.789,2.452-8.366,2.452-8.366Z"/><path class="cls-3" d="M74.651,64.974,70.757,89.782s-.865,4.471.289,4.9,1.3-5.769,1.3-5.769Z"/><path class="cls-3" d="M86.455,94.468l-4.039,23.221s-.865,5.193.289,5.769,1.586-8.654,1.586-8.654Z"/><path class="cls-3" d="M90,57.882,85.963,81.1s-.866,5.193.288,5.77,1.587-8.654,1.587-8.654Z"/><path class="cls-3" d="M60.3,56.752,53.089,100.6s-1.731,7.067-.145,7.788,2.452-8.365,2.452-8.365Z"/><path class="cls-3" d="M115.061,55.863,107.85,99.71s-1.731,7.067-.144,7.788,2.452-8.365,2.452-8.365Z"/><line class="cls-4" x1="110.277" y1="59.66" x2="104.796" y2="101.392"/><ellipse class="cls-5" cx="66.347" cy="53.819" rx="1.37" ry="0.649"/><ellipse class="cls-5" cx="85.674" cy="50.357" rx="1.37" ry="0.649"/><ellipse class="cls-5" cx="102.549" cy="58.434" rx="1.37" ry="0.649"/><ellipse class="cls-5" cx="60.001" cy="57.064" rx="1.37" ry="0.649"/><ellipse class="cls-5" cx="95.41" cy="51.583" rx="1.37" ry="0.649"/><ellipse class="cls-5" cx="76.01" cy="51.223" rx="1.37" ry="0.649"/><ellipse class="cls-5" cx="80.049" cy="56.631" rx="1.37" ry="0.649"/><ellipse class="cls-5" cx="95.77" cy="56.848" rx="1.37" ry="0.649"/><ellipse class="cls-5" cx="86.179" cy="66.223" rx="1.37" ry="0.649"/><ellipse class="cls-5" cx="72.621" cy="57.28" rx="1.37" ry="0.649"/><ellipse class="cls-5" cx="109.977" cy="59.444" rx="1.37" ry="0.649"/><ellipse class="cls-5" cx="89.352" cy="54.756" rx="1.37" ry="0.649"/><ellipse class="cls-5" cx="87.333" cy="59.155" rx="1.37" ry="0.649"/><ellipse class="cls-5" cx="105.65" cy="53.675" rx="1.37" ry="0.649"/><ellipse class="cls-5" cx="95.41" cy="65.285" rx="1.37" ry="0.649"/><ellipse class="cls-5" cx="80.698" cy="62.978" rx="1.37" ry="0.649"/><ellipse class="cls-5" cx="114.881" cy="55.405" rx="1.37" ry="0.649"/><ellipse class="cls-5" cx="102.549" cy="63.987" rx="1.37" ry="0.649"/><ellipse class="cls-5" cx="68.871" cy="62.401" rx="1.37" ry="0.649"/><ellipse class="cls-5" cx="93.174" cy="61.752" rx="1.37" ry="0.649"/><ellipse class="cls-5" cx="74.28" cy="64.997" rx="1.37" ry="0.649"/><ellipse class="cls-5" cx="113.944" cy="62.978" rx="1.37" ry="0.649"/><ellipse class="cls-5" cx="80.626" cy="62.761" rx="1.37" ry="0.649"/><path class="cls-3" d="M96.492,97.258l-4.039,23.221s-.865,5.192.288,5.769,1.587-8.654,1.587-8.654Z"/></svg>