<svg id="word" xmlns="http://www.w3.org/2000/svg" viewBox="0 0 160 160"><defs><style>.cls-1{fill:#dfe0e1;}.cls-1,.cls-2,.cls-3,.cls-7{stroke:#9d4b9c;}.cls-1,.cls-3{stroke-linecap:round;}.cls-1,.cls-2,.cls-7{stroke-width:0.75px;}.cls-2{fill:#ffd596;}.cls-3,.cls-7{fill:none;}.cls-3{stroke-width:2px;}.cls-4{fill:#f58e7d;}.cls-5{fill:#fff;}.cls-6{fill:#fff7a2;}</style></defs><ellipse class="cls-1" cx="110.538" cy="43.749" rx="4.087" ry="4.562"/><ellipse class="cls-1" cx="70.621" cy="42.229" rx="4.087" ry="4.562"/><path class="cls-2" d="M62.545,67.057c-.392,10.258-.9,20.948-5.876,29.927-.649,1.171-1.378,2.6-.7,3.759.58.99,1.891,1.209,3.032,1.324l19.847,2.006,5.616-33.607c.375-2.241.744-4.581.065-6.75-1.172-3.741-5.258-5.949-9.173-6.158A22.179,22.179,0,0,0,64.98,59.669C62.081,61.143,62.656,64.166,62.545,67.057Z"/><path class="cls-3" d="M70.336,42.609S55.89,51.733,59.691,61.617s60.369,6.314,61.587,1.9c3.041-11.025-10.265-19.008-10.265-19.008"/><path class="cls-4" d="M116.868,118.584a89.66,89.66,0,0,0,3.843,9.375s-21.863,3.228-28.706.571-19.765,1.14-19.765,1.14a95.816,95.816,0,0,1-3.854-9.546l.433-.148c13.526-4.209,25.239-3.194,39.358-2.087,3.946.319,4.6.445,8.543.752l.136-.057Z"/><path class="cls-5" d="M116.856,118.584l-.136.057c-3.947-.307-4.6-.433-8.543-.752-14.119-1.107-25.832-2.122-39.358,2.087l-.433.148c-.639-1.836-1.278-3.843-1.848-5.942l.376-.1c11.325.228,19.662-1.369,30.987-1.141,8.121.16,9.067,2.543,16.72-.194l.376-.1C115.579,114.752,116.218,116.76,116.856,118.584Z"/><path class="cls-6" d="M115,112.642l-.376.1c-7.653,2.737-8.6.354-16.72.194-11.325-.228-19.662,1.369-30.987,1.141l-.376.1a59.2,59.2,0,0,1-1.905-9.991C63.493,92.034,71.1,81.382,71.1,69.977c0-11.052-6.786-9.6-7.208-9.512.376-.194,6.615-3.421,11.77-3.786,5.315-.388,33.45,0,38.012,3.421s2.281,19.388-.376,33.451C112.18,99.458,113.309,106.484,115,112.642Z"/><path class="cls-7" d="M63.892,60.465c.422-.091,7.208-1.54,7.208,9.512,0,11.405-7.607,22.057-6.467,34.214a59.2,59.2,0,0,0,1.905,9.991c.57,2.1,1.209,4.106,1.848,5.942a95.816,95.816,0,0,0,3.854,9.546s12.922-3.809,19.765-1.14,28.706-.571,28.706-.571a89.66,89.66,0,0,1-3.843-9.375h-.012c-.638-1.824-1.277-3.832-1.859-5.942-1.688-6.158-2.817-13.184-1.7-19.091,2.657-14.063,4.938-30.029.376-33.451s-32.7-3.809-38.012-3.421c-5.155.365-11.394,3.592-11.77,3.786a.035.035,0,0,1-.023.011"/><path class="cls-7" d="M68.819,119.976c13.526-4.209,25.239-3.194,39.358-2.087,3.946.319,4.6.445,8.543.752"/><path class="cls-7" d="M66.914,114.08c11.325.228,19.662-1.369,30.987-1.141,8.121.16,9.067,2.543,16.72-.194"/></svg>