<svg id="word" xmlns="http://www.w3.org/2000/svg" viewBox="0 0 160 160"><defs><style>.cls-1{fill:#fde0ce;}.cls-1,.cls-2,.cls-3,.cls-4,.cls-6,.cls-7{stroke:#9c4c9c;stroke-miterlimit:10;}.cls-1,.cls-2,.cls-3,.cls-4,.cls-6{stroke-width:0.691px;}.cls-2{fill:#754d29;}.cls-3{fill:none;}.cls-4{fill:#fff;}.cls-5,.cls-6{fill:#f59120;}.cls-7{fill:#c1d840;stroke-width:0.785px;}.cls-8{fill:#9c4c9c;}</style></defs><path class="cls-1" d="M73.533,80.736l-3.144,7.9s-18.647-3.489-19-3.254a29.043,29.043,0,0,1-3.192.933s2.391-8.376,3.345-11.089a16.931,16.931,0,0,0,.729-5.9l13.01,1.226Z"/><path class="cls-1" d="M98.554,37.6s2.336,7.567-.044,12.873S92.8,61.789,93.5,64.626s3.406,5.444,1.748,6.62a13.261,13.261,0,0,1-4.611,1.637s1.409,2.249.58,3.073-4.37-.016-4.37-.016,3.179,2.964,2.113,3.905a3.5,3.5,0,0,1-2.129.937s-1.141,3.813-4.425,4.51-4.8-1-4.8-1a27.719,27.719,0,0,1-5.547-.963c-2.95-.837-10.138-5.468-11.774-10.316s-5.508-12.3-3.246-17.843,13.167-16.607,15.3-20.024,19.031-5.131,21.861-3.7S98.554,37.6,98.554,37.6Z"/><path class="cls-2" d="M55.148,21.979s7.109-6.481,13.368-6.46,13.579.648,17.823,2.552S96,23.655,97.886,25.906s4.724-.1,6.238,6.162.683,7.443,1.377,11.46l.695,4.018-2.35-3.433s1.757,4.258.092,7.559-1.389-8.036-1.389-8.036-2.779,10.5-3,10.855.745-6.847-.781-9.687,1.19-2.594-3.307.343-3.182-2.019-2.939-3.907-3.214,7.192-3.451,7.546-2.1-8.274-2.1-8.274a92.936,92.936,0,0,1-3.936,11.2c-1.9,4.009-9.118,7.154-9.472,6.926s-3.235-7.088-8.225-5.333-5.117,4.588-6.067,6.12.107,3.227-.375,5.9a13.706,13.706,0,0,0,.809,6.069s-2.128-.286-2.6.657-.243,2.125-2.135,2.827-1.53-1.541-1.53-1.541-.361,1.888-.953,2.359.364-2.833.011-3.189-2.849,4.242-2.849,4.242,2.139-3.772.615-6.966-8.221-13.373-8.919-16.446S41.51,38.7,42.7,35.753s5.342-8.012,5.342-8.012a5.479,5.479,0,0,0-1.294-1.422c-.707-.474-1.767-1.3-1.767-1.3l3.891,1.549s-1.631-6.265-1.63-6.619S49.354,24.2,49.354,24.2l.375-6.022.573,4.962s2.028-5.78,3.33-6.484S52.193,22.8,52.193,22.8l5.448-4.587Z"/><path class="cls-3" d="M69.435,56.985S66.616,52,64,53.866s-2.834,5.216-1.894,6.755.1,4.842,2.105,5.912,3.2-2.115,3.2-2.115"/><path class="cls-4" d="M88.746,58.01s2.484-.927,2.95.846.575,4.608-1.5,5.31-2.652-1.427-2.884-2.608S88.746,58.01,88.746,58.01Z"/><path class="cls-3" d="M95.38,56.246a1.7,1.7,0,0,0-.649-.847,5.207,5.207,0,0,0-6.123-.091"/><path class="cls-3" d="M126.444,86,100.473,63.233s-6.517,5.174-8.531,7.647a65.519,65.519,0,0,0-4.175,6.013L115.348,98.95s4.75-7.424,6.646-9.425A24.108,24.108,0,0,1,126.444,86Z"/><polygon class="cls-5" points="113.066 75.795 89.325 76.894 88.78 76.892 100.447 85.942 115.281 97.882 120.112 90.638 125.19 86.028 113.066 75.795"/><path class="cls-6" d="M126.964,86.589S126,91.9,122.92,94.96s-6.16,5.648-6.866,4.819,3.722-7.971,5.466-9.712S124.488,85.636,126.964,86.589Z"/><path class="cls-1" d="M87.675,103.342l1.559,0s4.855-3.762,6.629-4.465,3.992-.931,3.539-2.7a14.913,14.913,0,0,0-3.04-5.206c-1.059-1.185-1.5-4.656.019-5.315s3.112,1.9,3.112,1.9a18.485,18.485,0,0,0,2.45-5.424c.481-2.479,3.917-5.774,4.156-6.363s2.961-2.47,3.786-2.231-.72,3.422-.72,3.422,6-4.507,6.9-3.421-3.013,5.62-3.013,5.62,4.659-2.609,5.082-1.341-1.466,4.128-2.1,4.362-1.228,1.649-1.228,1.649l-.481,2.519s4.388-5.221,5.563-3.564-2.262,5.07-2.262,5.07-1.078,4.6-2.62,6.605a14.217,14.217,0,0,1-3.909,3.293,121.47,121.47,0,0,1-7.25,11.667c-2.841,3.651-9.593,8.233-12.073,9.051s-3.189.7-4.84-.016-7.544-4.278-7.544-4.278l6.181-11.552Z"/><path class="cls-7" d="M47.258,85.759s-6.092,18.131-6.839,29.466-.308,29.159-.308,29.159l42.733.1s-2.459-24.03-2.65-29.823-3.919-20.607-4.506-21.652-3.448-1.593-3.448-1.593l-.076-3.832a46.171,46.171,0,0,1-6.129-3.564C62.972,81.881,56.128,80.2,55.066,80.2s-6.717-.731-7.789-.027S47.258,85.759,47.258,85.759Z"/><path class="cls-8" d="M89.537,59.831s1.629-.608,1.935.555.377,3.023-.98,3.484-1.741-.936-1.893-1.711S89.537,59.831,89.537,59.831Z"/><path class="cls-7" d="M88.449,101.337s-9.289,12.25-9.06,14.376a10.132,10.132,0,0,1-.724,4.367s.115.918-3.539-1.089-17-11.687-22.508-13.881c-5.374-2.139-6.682-14.431-4.431-16.549s11.8-3.636,14.77-2.193,19.8,10.934,21.1,11.647A45.629,45.629,0,0,1,88.449,101.337Z"/><path class="cls-7" d="M75.688,93.006s-12.66-3.09-16.825-5.4-9.695,2.327-10.1,4.909c-1.749,11.206-8.586,25.637-8.586,25.637s-10.9-6.684-5.774-20.847c2.169-6-2-16.6,2.7-18.349s7.6-11.93,8.975-7.89c1.535,4.5,4.789,5.484,6.6,7.213s25.158,8.431,25.158,8.431l-5.625,3.619Z"/><path class="cls-7" d="M86.311,97.782l3.673,3.466s-1.166,1.788-2.841,4.079-5.473,4.915-5.788,6.746-.947,8.033-1.985,9.016-1.483.487-2.864-.806-6.269-3.173-6.269-3.173,2.505-9.014,5.056-12.811,8.627-8.157,8.627-8.157Z"/></svg>