<svg id="word" xmlns="http://www.w3.org/2000/svg" xmlns:xlink="http://www.w3.org/1999/xlink" viewBox="0 0 160 160"><defs><style>.cls-1{fill:#fcf49c;}.cls-1,.cls-10,.cls-11,.cls-12,.cls-2,.cls-3,.cls-4,.cls-5,.cls-6,.cls-7,.cls-9{stroke:#9c4c9c;stroke-width:0.573px;}.cls-2{fill:#fff;}.cls-3,.cls-9{fill:#fde1d3;}.cls-11,.cls-4{fill:none;}.cls-5{fill:#70c075;}.cls-6{fill:url(#Linear_Gradient);}.cls-7{fill:url(#radial-gradient);}.cls-8{fill:#9c4c9c;}.cls-10,.cls-9{stroke-miterlimit:10;}.cls-10{fill:#de8e3e;}.cls-11{stroke-linecap:round;}.cls-12{fill:url(#linear-gradient);}</style><linearGradient id="Linear_Gradient" x1="3754.541" y1="739.227" x2="3762.997" y2="739.227" gradientTransform="matrix(-0.941, -0.339, -0.339, 0.941, 3833.458, 672.678)" gradientUnits="userSpaceOnUse"><stop offset="0" stop-color="#fff"/><stop offset="1" stop-color="#221f1f"/></linearGradient><radialGradient id="radial-gradient" cx="3516.745" cy="478.873" r="8.284" gradientTransform="matrix(-0.971, -0.241, -0.241, 0.971, 3580.092, 460.298)" gradientUnits="userSpaceOnUse"><stop offset="0" stop-color="#fff"/><stop offset="1" stop-color="#694356"/></radialGradient><linearGradient id="linear-gradient" x1="79.498" y1="67.607" x2="85.978" y2="67.607" gradientUnits="userSpaceOnUse"><stop offset="0" stop-color="#882a21"/><stop offset="1" stop-color="#d24d57" stop-opacity="0"/></linearGradient></defs><path class="cls-1" d="M67.09,81.582s-3.044-1.481-5.107,4.441c-.907,2.608-2.524,13.7-4.586,17.027s-4.95,10.364-3.918,10.919,2.474,2.037-.207,2.406-5.531,2.747-7.182,3.673-6.476,13.191-4.619,14.3,17.037,5.06,18.481,5.06,7.964-10.078,7.964-10.078,1.237-26.836.2-31.463S67.09,81.582,67.09,81.582Z"/><path class="cls-2" d="M95.276,79.685c.823-.391,1.984-6.055,1.479-6.784-.872-1.258-3.065-1.433-4.469-1.59"/><path class="cls-1" d="M93.9,80.1s7.22,3.332,10.52,3.7,5.776,3.7,7.632,6.478,11.7,50.008,11.7,50.008l-56.984-.88s-5.044-25.995-5.044-33.213,3.28-15.175,3.693-16.842.963-7.772.963-7.772l10.4-.184L77.2,89.17,93.491,81.4Z"/><path class="cls-3" d="M95.416,63.569s-1.788,8.636-.275,11.72c.333.679,1.237,6.293,1.237,6.293L76.166,90.1l-.153-18.818,13.56-3.02Z"/><path class="cls-1" d="M108.136,104.346s1.147,6.292,5.363,6.663c3.186.279,9.9,6.108,11.136,7.218s10.563,21.4,10.563,21.4l-19.142.439s-6.916-.935-8.36-2.787-8.656-16.465-8.244-19.8a54.086,54.086,0,0,1,1.258-6.477Z"/><path class="cls-1" d="M76.353,90.1s10.716-4.427,13.426-7.217C97.6,74.826,96.755,72.9,96.755,72.9a4.249,4.249,0,0,1,2.511,4.609,11.507,11.507,0,0,0,1.857,6.847,51.508,51.508,0,0,0-6.394,5.183c-1.857,2.036-4.331,3.146-7.219,4.812a8.781,8.781,0,0,1-4.743,1.481s1.856-.37-.207-3.7S76.353,90.1,76.353,90.1Z"/><path class="cls-1" d="M76.166,90.1s-1.444-3.886-3.713-3.7-7.013,5.736-7.013,5.736,2.269-6.292,2.681-7.957A60.14,60.14,0,0,1,71.01,77.51l5-4.766Z"/><path class="cls-3" d="M108.7,107.476s-.045-.269-.106-.723a33.1,33.1,0,0,1-.307-4.273c0-2.59,0-6.107-1.856-7.773s-3.3-2.776-4.331-2.776-7.218-2.776-8.044-1.481,1.616,2.592,2.442,2.592,2.715,1.665,2.715,1.665-7.632-1.48-9.282-.925S88.9,95.818,92.2,96.373a15.987,15.987,0,0,1,5.569,2.035s-9.219-1.819-9.488-.925c-.447,1.48,2.854,2.559,5.535,2.559s4.847,1.42,5.053,2.531.757,1.388.757,1.388a28.628,28.628,0,0,1-3.889-1c-2.268-.741-5.156-2.869-5.156-1.017s3.093,2.775,4.332,3.516,3.093,2.221,2.444,4.611a4.172,4.172,0,0,0,4.537,4.071c3.919,0,5.363-2.035,5.363-2.776A21.95,21.95,0,0,1,108.7,107.476Z"/><path class="cls-4" d="M99.044,94.707a9.764,9.764,0,0,1,5.019,2.59"/><path class="cls-4" d="M97.772,98.408a8.459,8.459,0,0,1,4.331,2.868"/><path class="cls-5" d="M77.8,90.219c-1.65,5.435-1.238,11.149-1.238,16.823,0,6.377-1.589,18.117-1.426,24.446"/><path class="cls-1" d="M99.555,113.506a11.319,11.319,0,0,0,4.986-1.51c2.336-1.635,3.883-6.447,3.883-6.447l2.579,4.41s-2.27,5.738-5.224,6.478a16.45,16.45,0,0,1-6.119.155Z"/><path class="cls-3" d="M46.5,88.891s-2.284-4.021-3.552-4.1a1.985,1.985,0,0,0-1.914,2.355c.223,1.071,3.068,4.381,3.068,4.381Z"/><path class="cls-3" d="M37.431,96.515a27.328,27.328,0,0,0-2.592,5.082,8.94,8.94,0,0,0-.3,4.005c.156,1.047,1.686,5.254,1.725,5.572s8.47-4.489,9.425-6.505,4.753-5.371,2.787-7.526a23.524,23.524,0,0,0-3.855-3.674c-.337-.121-2.857-1.792-3.694-.95S37.431,96.515,37.431,96.515Z"/><path class="cls-6" d="M51.619,91.644l1.656-5.286s-.563-1.606-1.408-1.8-4.069-3.016-5.855-.465c-1.057,1.512.091,1.079.091,1.079l-3.44,8.984s-4.066,9.432-.132,10.581c3.374.99,7.221-6.482,7.221-6.482Z"/><path class="cls-3" d="M43.433,113.68a18.1,18.1,0,0,0,3.7-2.245,12.876,12.876,0,0,0,2.966-4.644c.826-2.292,2-3.85,2.338-4.794s-.174-5.012-.5-5.814-.791-4.777-2.331-3.886a4.792,4.792,0,0,0-2.107,3.734,15.868,15.868,0,0,0,.739,3.237,14.7,14.7,0,0,1-1.983,2.331c-.459.217-1.864,1.158-1.864,1.158a9.775,9.775,0,0,0-4.175,2.075,24.013,24.013,0,0,0-4.189,5.5,8.378,8.378,0,0,0-.157,2.762l-.958,3.083s5.628,2.56,7.182,2.053S43.433,113.68,43.433,113.68Z"/><path class="cls-3" d="M42.346,90.061s.265,4.969.138,5.532.211,2.589-1.049,3.125-1.785-1.175-1.856-2.877-.76-2.863-.405-3.954C39.947,89.515,42.006,89.1,42.346,90.061Z"/><path class="cls-3" d="M37.666,93.325s1.549-.1,1.656.9c.2,1.907-.3,2.94-.149,3.374s1.528,3.367.557,4.16-3.133-1.661-3.383-3.5S36.3,93.519,37.666,93.325Z"/><path class="cls-3" d="M35.063,96.956s1.79,2.854,1.988,3.154,1.164,2.474.144,3.4-2.454-1.645-2.731-2.354-1.544-2.69-1-3.561A1.574,1.574,0,0,1,35.063,96.956Z"/><path class="cls-7" d="M43.733,76.011c-.731,3.175-.683,6.213,1.634,8.341,1.179,1.082.266-1.467,5.006.059,1.39.447,2.189,2.546,3.516,2.268,3.356-.711,4.78-3.558,5.573-7,1.1-4.792-.722-9.255-5.741-10.409S44.836,71.219,43.733,76.011Z"/><path class="cls-8" d="M52.079,70.52a22.893,22.893,0,0,0-3.31,3.942c-.5.7-.991,1.415-1.523,2.1a16.919,16.919,0,0,1-1.7,1.989l1.337-2.236Q47.548,75.2,48.3,74.13a16.18,16.18,0,0,1,1.68-2.024A8.112,8.112,0,0,1,52.079,70.52Z"/><path class="cls-8" d="M55.039,71.72c-1.474,1.512-2.828,3.1-4.157,4.715s-2.617,3.258-3.836,4.982a17.311,17.311,0,0,1,1.517-2.786,28.642,28.642,0,0,1,4.024-4.9A16.43,16.43,0,0,1,55.039,71.72Z"/><path class="cls-8" d="M57.154,73.99,55.54,76.367c-.535.793-1.1,1.564-1.67,2.334s-1.16,1.523-1.786,2.252a16.3,16.3,0,0,1-2,2.077c.574-.771,1.1-1.564,1.653-2.346s1.109-1.557,1.677-2.326,1.158-1.524,1.779-2.256A19.2,19.2,0,0,1,57.154,73.99Z"/><path class="cls-8" d="M58.8,78.59a34.03,34.03,0,0,0-4.581-3.629c-.794-.569-1.6-1.123-2.382-1.726A20.131,20.131,0,0,1,49.6,71.311l2.5,1.562q1.251.772,2.461,1.62a23.154,23.154,0,0,1,2.32,1.846A10.64,10.64,0,0,1,58.8,78.59Z"/><path class="cls-8" d="M55.573,79.884l-4.472-3.4c-.744-.562-1.5-1.1-2.26-1.645S47.3,73.8,46.5,73.3a13.568,13.568,0,0,1,2.578,1.176,22.834,22.834,0,0,1,2.366,1.559,26.9,26.9,0,0,1,2.173,1.811A20.53,20.53,0,0,1,55.573,79.884Z"/><path class="cls-8" d="M53.712,81.747c-.859-.264-1.69-.593-2.513-.939s-1.63-.731-2.429-1.131-1.579-.837-2.337-1.314a21.226,21.226,0,0,1-2.206-1.532c.822.363,1.619.758,2.419,1.146l2.385,1.19c.787.411,1.58.812,2.358,1.246S52.952,81.269,53.712,81.747Z"/><path class="cls-1" d="M34.215,115.253s4.852-.717,7.035-1.146,5.867.749,5.867.749,5.794,5.852,6.235,8.712,7.92,15.4,7.92,15.4l-25.965.4S32.015,118.774,34.215,115.253Z"/><path class="cls-8" d="M76.013,91.005s-4.62-4.4-5.941-4.62-2.2,2.2-2.419,3.74-1.321,5.941.219,5.941,7.921-2.64,7.921-2.64a26.776,26.776,0,0,1,2.2,3.52c.881,1.76,3.081,6.16,3.52,4.621s3.521-8.141,1.981-10.782S76.013,91.005,76.013,91.005Z"/><path class="cls-1" d="M35.208,109.7a27.141,27.141,0,0,0-.794,3.176,22.465,22.465,0,0,0-.2,2.878,11.224,11.224,0,0,0,4.665,1.787c2.58.3,9.627-1.29,9.627-1.29l-1.985-4.467s-5.557,1.787-7.741.8A10.208,10.208,0,0,1,35.208,109.7Z"/><path class="cls-9" d="M69.574,48.813s-4.242-3.658-4.363,1.65c-.069,3.014.609,1.957.417,3.89s-.525,4.58.87,5.751c.846.71,1.924-1.162,1.924-1.162"/><path class="cls-9" d="M102.6,57.6s5.219-1.151,3.28,3.675c-1.1,2.741-1.3,1.451-1.875,3.283s-1.3,4.376-3,4.726c-1.033.212-1.28-2.011-1.28-2.011"/><path class="cls-9" d="M68.5,54.061s-1.2,10.2.45,13.028,6.685,11.1,11.718,12.184c9.817,2.114,16.941-6.566,18.567-9.3s5.013-20.845,5.058-22.723-1.173-9.468-10.331-13.817S76.493,32,75.318,33.49s-4.022,2.326-5.043,5.493S68.5,54.061,68.5,54.061Z"/><path class="cls-10" d="M105.413,57.133c.922-.438,3.752.176,3.752.176a22.289,22.289,0,0,0,4.2-6.33c1.129-3.116.865-11.86-1.016-13.338a38.124,38.124,0,0,1-3.626-3.329s4.268,1.005,5.236.442,1.327-2.721,1.327-2.721-1.212,2.167-4.6,1.166c-1.229-.363-3.464-1.061-4.051-1.194s.732.786,1.807-1.478a13.4,13.4,0,0,0,1.066-5.045s-.264,3.088-1.958,3.6a21.67,21.67,0,0,0-2.769,1.022,5.5,5.5,0,0,0,.858-2.368,8.232,8.232,0,0,1,1.039-2.866,23.335,23.335,0,0,0-2.531,3.473c-.316.872-.7-3.691-.39-5.591s.966-5.822.966-5.822a8.008,8.008,0,0,0-2.539,4.2c-.334,2.324-.371-2.221-4.517-3.022s-8.332-1.182-10-.078-2.748,1.617-4.9.887-3.976-2.845-7.542-1.83a6.777,6.777,0,0,0-4.66,5.237A7.985,7.985,0,0,1,75.176,20.2c3.082-.435,2.933,1.035,2.933,1.035a50.8,50.8,0,0,1-6.075,4.126c-2,.95-8.019-1.034-8.019-1.034s-.651,1.444,1.537,2.776a21.334,21.334,0,0,0,3.427,1.774l-3.851.8a11.8,11.8,0,0,0-3.6,1.5s3.581-.052,4.956.016-2.9,1.376-3.986,4.367a27.17,27.17,0,0,0-1.3,6.707c-.072.551,2.956-4.293,2.956-4.293s-1.7,3.283-.921,5.7,2.672,2.6,4.088,4.863S68.492,57,68.492,57s2.317-15.28,3.049-16.247,1.2-3.666,5.1-4.59,5.017-3.314,6.862-2.438,4.6,2.04,6.654,1.992a16.928,16.928,0,0,1,5.661,1.228c.651.309,4.032,2.207,5.073,4.6s2.37,6.093,2.135,7.442-2.865,15.931-2.865,15.931S104.491,57.572,105.413,57.133Z"/><path class="cls-10" d="M87.2,36.5a6.455,6.455,0,0,0,5.74-3.555c1.636-3.459.794-7.8-1.267-8.782s-9.187-2.026-9.187-2.026,9.1,2.275,8.88,5.678-4.044,7.429-4.044,7.429-1.315.958-.908-.3,2.658-3.838,1.7-6.846c-.748-2.351-1.8-2.832-4.526-3.394a17.418,17.418,0,0,0-8.123-.06,12.843,12.843,0,0,1-6.452-.435s5.308,3.251,7.768,3.835,6.1-1.045,7.043.57,1.421,6.956,1.421,6.956A2.42,2.42,0,0,0,87.2,36.5Z"/><path class="cls-10" d="M84.28,33.643a21.084,21.084,0,0,0-5.391-2.985c-2.414-.709-3.519-.352-5.415-.386s-4.885.25-4.885.25.707.984,4.514,2.062,4.707.187,6.224.6A28.124,28.124,0,0,0,84.28,33.643Z"/><path class="cls-8" d="M95.112,36.421a7.485,7.485,0,0,0,4.23-3.13,13.443,13.443,0,0,0,1.036-2.532,11.972,11.972,0,0,0,.608-2.676,4.412,4.412,0,0,0-.5-2.622A5.331,5.331,0,0,0,98.518,23.6,20.6,20.6,0,0,0,93.5,21.236a20.7,20.7,0,0,1,5.1,2.241,5.517,5.517,0,0,1,2.08,1.875,4.676,4.676,0,0,1,.6,2.751,12.285,12.285,0,0,1-.552,2.763,13.718,13.718,0,0,1-1.008,2.642,7.965,7.965,0,0,1-4.453,3.467Z"/><path class="cls-8" d="M100.166,35.586l3.927,2a18.818,18.818,0,0,1,1.954,1.07,3.2,3.2,0,0,1,1.345,1.821,6.638,6.638,0,0,1,.134,2.234,12.474,12.474,0,0,1-.378,2.184,31.358,31.358,0,0,1-1.492,4.15,31.227,31.227,0,0,0,1.353-4.183,12.305,12.305,0,0,0,.3-2.165,6.34,6.34,0,0,0-.194-2.139,2.868,2.868,0,0,0-1.271-1.6,18.458,18.458,0,0,0-1.942-.981L99.914,36.1Z"/><path class="cls-8" d="M97.809,37.714a2.764,2.764,0,0,0,1.037-.8,13.4,13.4,0,0,0,.933-1.1,13.783,13.783,0,0,0,1.5-2.472,8.036,8.036,0,0,0,.52-1.345,8.294,8.294,0,0,0,.179-1.433l.124-2.928.019,2.933A8.463,8.463,0,0,1,102,32.052a8.382,8.382,0,0,1-.467,1.41,14.19,14.19,0,0,1-1.409,2.608,13.634,13.634,0,0,1-.91,1.181,3.2,3.2,0,0,1-1.23,1.008Z"/><path class="cls-8" d="M77.448,34.649a6.563,6.563,0,0,1-3.825.533,12.561,12.561,0,0,1-3.531-1.428,8.472,8.472,0,0,0-1.731-.665,3.2,3.2,0,0,0-1.8.007,3.194,3.194,0,0,0-1.214,1.355A7.365,7.365,0,0,0,64.67,36.2a7.381,7.381,0,0,1,.614-1.781A3.284,3.284,0,0,1,66.5,32.967a5.1,5.1,0,0,1,3.715.527,12.274,12.274,0,0,0,3.473,1.263,6.05,6.05,0,0,0,3.51-.623Z"/><path class="cls-11" d="M84.648,45.093a10.1,10.1,0,0,1-2.292,5.745c-2.863,3.706-5.078,6.27-2.858,7.96s3.308,1.527,3.308,1.527"/><path class="cls-11" d="M91.49,42.061c5.023-2.316,7.285,3.922,8.38,6.481"/><path class="cls-11" d="M88.194,50.543A6.593,6.593,0,0,0,96.077,52.1"/><path class="cls-12" d="M83.483,62.287a1.1,1.1,0,0,0-1.125.361c-1.184,1.4-4.247,5.542-2.137,8.994,2.191,3.585,4.661-1.014,5.313-3.162C86.932,63.873,84.691,62.624,83.483,62.287Z"/><path class="cls-11" d="M72.493,47.423a6.592,6.592,0,0,0,7.883,1.561"/><path class="cls-11" d="M73.844,41.314c2.021.053,3.637-1.9,5.656-1.994a6.431,6.431,0,0,1,3.66,1.442"/></svg>