<svg id="word" xmlns="http://www.w3.org/2000/svg" xmlns:xlink="http://www.w3.org/1999/xlink" viewBox="0 0 160 160"><defs><style>.cls-1{fill:#fde0ce;}.cls-1,.cls-2,.cls-3,.cls-5,.cls-6{stroke:#9c4c9c;}.cls-1,.cls-3{stroke-miterlimit:10;}.cls-1,.cls-3,.cls-6{stroke-width:0.67px;}.cls-2{fill:#ea3e93;}.cls-2,.cls-5{stroke-width:0.672px;}.cls-3{fill:#ffc763;}.cls-4{fill:#9c4c9c;}.cls-5{fill:none;stroke-linecap:round;}.cls-6{fill:url(#linear-gradient);}</style><linearGradient id="linear-gradient" x1="28.938" y1="74.654" x2="45.82" y2="74.654" gradientTransform="translate(58.931 -3.043) rotate(3.302)" gradientUnits="userSpaceOnUse"><stop offset="0" stop-color="#882a21"/><stop offset="1" stop-color="#d24d57" stop-opacity="0"/></linearGradient></defs><path class="cls-1" d="M80.425,80.874l-2.1,12.5s-1.123,9.353,4.466,10.289S93.69,96.48,93.69,96.48l1.163-14.358Z"/><path class="cls-2" d="M73.714,90.55,61.229,88.365,52.8,82.747,48.744,97.729s9.676.936,10.924,4.37a35.294,35.294,0,0,1,1.561,8.115L49.923,135.531H92.84c.526,0,14.744.263,14.744.263l-11.4-23.4s5.135-2.809,6-4.058,3.51-4.606,3.51-4.606a46.709,46.709,0,0,1-3.51-3.509c-.694-.936-8.017-6.27-8.017-6.27S91.786,101.3,82.8,98.977c-3.109-.8-4.859-8.115-4.859-8.115Z"/><path class="cls-1" d="M52.386,84.279S39.38,78.221,38.443,77.44,30.25,71.8,30.25,71.8a10.162,10.162,0,0,0-2.341-3.954c-1.561-1.4-1.171-1.638-1.171-1.638s1.269-4.784.547-6.774c-.937-2.581-2.575,1.858-3.356,3.106s-1.56,2.575-1.56,2.575S10.82,61.253,9.883,61.544s-2.34,2.007-.78,2.943,6.009,1.984,6.087,2.764-8.272.045-7.96,2.23,7.726,1.2,7.882,1.8-7.882,2.263-4.76,3.355,6.632-.7,6.945-.078-6.009,3.043-3.98,3.824S20.5,76.816,20.5,76.816s2.5,1.249,3.9.937a22.234,22.234,0,0,1,3.745-.313s9.832,6.031,11.237,6.839S49.924,93.37,49.924,93.37l3.97-7.5Z"/><path class="cls-1" d="M100.088,110.054l8.22,9.284s-5.289-.95-7.208-1.284-9.512-.768-11.172-2.378a79,79,0,0,0-6.4-4.928s-1.481-5.035-3.259-4.443c-1.634.545.47,5.08.158,5.47s-10.765-3.242-11.393-.781c-.415,1.63,6.99,2.42,6.63,3.9-.155.637-8.191-.468-7.722,1.717s7.563,1.18,7.722,1.682-7.842,1.1-6.552,3.413c.779,1.394,6.945-1.506,7.1-.96s-4.728,2.969-2.855,4.218,5.664-3.047,5.664-3.047l6.905-1.249s5.513,1.405,7.542,2.185,14.581,3.122,19.263,3.122,7.491.936,5.775-3.278-13.455-18.171-13.455-18.171Z"/><path class="cls-1" d="M102.988,45.47s-1.817,5.937.18,10.629,4.646,9.676,1.625,16.822-6.562,12.673-13.6,13.858-19.9-5-21.9-8.486-9.317-14.722-10.4-19.97-1.331-16.268-.13-19.889,9.021-6.145,16.231-3.94,28.375,4.878,28.375,4.878Z"/><path class="cls-3" d="M67.961,40.505s2.113,16.137-1.08,17.479-6.99,3.369-6.99,3.369,7.278,13.364,8.34,15.152a31.027,31.027,0,0,0,4.52,4.827s.19,2.582-3.243,2.758-3.467-1.227-4.476-.051-5.619,4.851-8.076,2.206-2.158.321-5.649-1.3-8.583-4.388-9.958-7.777-.358.262,4.237-1.115,7.173-.4,5.273-5.715-8.637-17.854-7.15-25.747,6.5-13.966,8-14.62a13.468,13.468,0,0,1,4.107-.692S57.043,23.438,59,20.7s8.406-3.829,9.676-4.646,8.636-2.46,11.344-1.91,13.6,4.347,15.6,6.626,9.481,1.365,9.951,6.543.08,6.451.08,6.451,4.28,6.308,4.857,9.736.978,11.78,4.612,9.472,4.348-4.036,4.348-4.036,2.384,2.213.659,3.911,4.006-.1,4.185-1.422,4.521,1.767.875,5.2,2.146,1.047,2.146,1.047,2.819,4.553-2.458,7.855-4.134,4.115-4.134,4.115.165.978-5.279,2.1a64.61,64.61,0,0,1-10.66,1.191s2.208-4.788,1.181-8.646-3.262-6.362-3.48-10.465a43.791,43.791,0,0,1,.494-8.34s-2.938-1.919-4.112-1.722-5.311,1.9-9.159,1.743-6.513-.512-6.513-.512L91.71,47.77s-5.868,2.184-9.375.467S67.961,40.505,67.961,40.505Z"/><path class="cls-4" d="M63.855,30.758A2.635,2.635,0,0,1,64.77,28.4c.612-.634,1.215-1.233,1.774-1.906a9.6,9.6,0,0,1,4.321-2.958,13.744,13.744,0,0,1,5.211-.63,26.062,26.062,0,0,1,5.147.91,34.812,34.812,0,0,0-5.16-.617,14.053,14.053,0,0,0-5.074.7,9.543,9.543,0,0,0-4.229,2.8c-.58.642-1.233,1.248-1.856,1.837A2.548,2.548,0,0,0,63.855,30.758Z"/><path class="cls-4" d="M62.754,33.227a3.75,3.75,0,0,0-2.906,2.034,14.237,14.237,0,0,0-1.22,3.506c-.327,1.209-.585,2.435-.819,3.666s-.426,2.472-.589,3.72a30.307,30.307,0,0,1,.3-3.768,37.563,37.563,0,0,1,.74-3.713A13.262,13.262,0,0,1,59.6,35.11,3.668,3.668,0,0,1,62.754,33.227Z"/><path class="cls-4" d="M61.3,29.762a3.941,3.941,0,0,1-.735-2.58,5.674,5.674,0,0,1,.812-2.613A9.849,9.849,0,0,1,65.5,21.136a13.278,13.278,0,0,0-3.8,3.632,5.755,5.755,0,0,0-.845,2.436A4.472,4.472,0,0,0,61.3,29.762Z"/><path class="cls-4" d="M64.777,33.735a4.544,4.544,0,0,1,1.375-1.829,7.954,7.954,0,0,1,2.02-1.133,30.49,30.49,0,0,1,4.443-1.19c1.5-.295,3.006-.574,4.521-.78s3.037-.363,4.562-.458q-2.264.352-4.516.747c-1.5.266-3,.54-4.489.863a34.885,34.885,0,0,0-4.418,1.091A5.878,5.878,0,0,0,64.777,33.735Z"/><path class="cls-4" d="M60.226,31.388a11.468,11.468,0,0,0-4.909,3.024A13.073,13.073,0,0,0,52.3,39.3a15.563,15.563,0,0,0-.822,5.711,20.758,20.758,0,0,0,1.037,5.732,18.04,18.04,0,0,1-1.33-5.718,15.26,15.26,0,0,1,.756-5.85,12.964,12.964,0,0,1,3.17-4.97A10.7,10.7,0,0,1,60.226,31.388Z"/><path class="cls-1" d="M62.125,63.158c.358-.2.042-.746-.282-1l-1.2-.945a3.855,3.855,0,0,0-2.918-1.178,2.444,2.444,0,0,0-1.764,1.818,5.073,5.073,0,0,0,.138,2.635,22.784,22.784,0,0,0,1.6,3.881l1.458,3a5.5,5.5,0,0,0,1.014,1.587,3.294,3.294,0,0,0,3.908.288,4.919,4.919,0,0,0,2.139-3.481"/><path class="cls-5" d="M94.853,65.745a2.812,2.812,0,0,0-4.986,1.506"/><path class="cls-5" d="M73.561,57.251c1.351-.407,1.962-1.921,2.845-3.022a6.037,6.037,0,0,1,6.691-1.8"/><path class="cls-5" d="M95.473,49.434a6.732,6.732,0,0,1,6.212,1.983"/><path class="cls-6" d="M83.573,72.258s5.735.486,8.992-.211a39.8,39.8,0,0,0,8.123-3.352s-.443,5.938-3.659,8.591-7.333,1.848-9.353.785S83.573,72.258,83.573,72.258Z"/><path class="cls-4" d="M57.66,31.24a15.6,15.6,0,0,1,10.355,8.913A26.221,26.221,0,0,0,57.66,31.24Z"/><path class="cls-4" d="M53.031,59.774a5.922,5.922,0,0,0-.727,3.485,8.744,8.744,0,0,0,1.159,3.379c.582,1.056,1.242,2.076,1.822,3.156a16.541,16.541,0,0,1,1.363,3.414,16.743,16.743,0,0,1,.547,3.635,10.668,10.668,0,0,1-.4,3.659,4.826,4.826,0,0,1-2.209,2.892,3.315,3.315,0,0,1-3.5-.067,3.224,3.224,0,0,0,3.411-.1,4.6,4.6,0,0,0,2.02-2.814,11.128,11.128,0,0,0,.329-3.559,16.478,16.478,0,0,0-.568-3.551,16.224,16.224,0,0,0-1.3-3.352c-.554-1.069-1.224-2.087-1.774-3.181a8.914,8.914,0,0,1-1.086-3.5A6.017,6.017,0,0,1,53.031,59.774Z"/><path class="cls-4" d="M104.64,37.387a13.828,13.828,0,0,1,1.881,5.994c.174,2.128-.262,4.223-.285,6.3a7.552,7.552,0,0,0,1.839,5.7,3.953,3.953,0,0,0,2.769,1.1,3.068,3.068,0,0,0,2.676-1.3,3.159,3.159,0,0,1-2.673,1.483,4.172,4.172,0,0,1-2.972-1.074,5.875,5.875,0,0,1-1.631-2.747,10.494,10.494,0,0,1-.389-3.168c.059-2.123.485-4.193.375-6.272A15.034,15.034,0,0,0,104.64,37.387Z"/><path class="cls-5" d="M79.6,61.884a3.472,3.472,0,0,1,2.833-2.377,7.868,7.868,0,0,1,3.839.5"/><path class="cls-5" d="M96.374,58.2c.678-.177,1.281-.573,1.954-.771a3.586,3.586,0,0,1,3.3.713"/><path class="cls-4" d="M134.3,72.337l-4.927,1.969v.117l.312,9.95s.062.989-.249.989a8.164,8.164,0,0,0-3.377.991c-.939.7-2.561,3.024-.5,3.723s4.126-1.629,4.315-2.035.937-.468.688-3.26-.25-6.692-.25-6.692l2.864-1.739"/><path class="cls-4" d="M144.04,80.086l-4.928,1.969v.118l.313,9.95s.062.989-.25.989a8.167,8.167,0,0,0-3.376.99c-.94.7-2.562,3.025-.5,3.723s4.127-1.629,4.315-2.035.937-.467.688-3.259-.249-6.693-.249-6.693l2.864-1.738"/><path class="cls-4" d="M155.643,68.271l-4.927,1.969v.118l.312,9.95s.062.989-.249.989a8.175,8.175,0,0,0-3.377.99c-.939.7-2.561,3.025-.5,3.724s4.126-1.63,4.315-2.035.937-.468.688-3.26-.25-6.692-.25-6.692l2.864-1.739"/></svg>