<svg id="word" xmlns="http://www.w3.org/2000/svg" viewBox="0 0 160 160"><defs><style>.cls-1{fill:#d1bcb6;}.cls-1,.cls-10,.cls-11,.cls-12,.cls-13,.cls-14,.cls-2,.cls-3,.cls-4,.cls-5,.cls-6,.cls-7,.cls-8,.cls-9{stroke:#9d4b9c;stroke-width:0.696px;}.cls-2{fill:#4b5152;}.cls-3{fill:#dfe0e0;}.cls-4{fill:#d0d1d2;}.cls-5{fill:#54595e;}.cls-6{fill:#515969;}.cls-7{fill:#494d52;}.cls-8{fill:#221f1f;}.cls-11,.cls-13,.cls-14,.cls-8{stroke-miterlimit:10;}.cls-9{fill:#ed453f;}.cls-10{fill:#c1c2c4;}.cls-11{fill:#898b8e;}.cls-12{fill:#b7b8ba;}.cls-13{fill:#949d9b;}.cls-14{fill:#fff;}</style></defs><path class="cls-1" d="M94.99,88.163s-.25,5.547,1,7.791,2.494,3.566,1.621,5.019-.747,3.038-1,4.359-3.741,23.51-3.867,25.491,0,3.171,1.123,4.491a6.08,6.08,0,0,0,2.62,1.98c1.247.66,1.87.133,2.742.66s.25.529-1.372.529-4.613-.133-5.486-.133-.374,1.718-1.246,1.718-2.121,1.321-3.992.925a20.117,20.117,0,0,0-6.733-.265c-3.617.265-4.24-.133-1.871-.66a25.865,25.865,0,0,1,5.985-.265s-3.99-1.32-6.858-.661a52.271,52.271,0,0,1-6.734.926,4.407,4.407,0,0,1,2.619-1.322c1.747-.263,2.619-1.188,5.737-.923s4.738.923,6.983-.529,2.993-4.754,3.615-7.4,3.619-19.152,3.867-20.605,1.247-6.207.25-6.867-2.868-2.379-2.245-3.434.374-2.114.374-3.435,0-12.546-.625-14,2-2.245,2.246-.792S94.99,88.163,94.99,88.163Z"/><path class="cls-1" d="M104.468,74.956a38.582,38.582,0,0,0,4.115,6.6c2.119,2.51,5.86,8.057,5.86,9.51s-.249,3.83,1.246,5.019,2.245,4.491,3.243,8.32,2.992,14.793,3.616,17.963.874,6.6-.248,8.453-2.994,4.358-4.366,4.095-2.868.792-3.615.792-6.61-.924-4.615.133,4.364.659,6.609.526,4.864-.659,5.737-1.981,3.242-5.811,3.242-5.811,1.122,3.566,1.247,4.623a3.78,3.78,0,0,1-1.87,3.433c-1.5,1.058-4.614,2.378-2,1.982s5.364-2.246,5.612-3.434.374-4.754-.623-6.339-2.369-4.094-2.369-4.094a7.409,7.409,0,0,0,2.494,1.321c.748,0,.872-.661,1.62.4a5.277,5.277,0,0,0,2,1.584,8.335,8.335,0,0,0-2.495-2.906,10.877,10.877,0,0,1-3.367-4.357c-.124-.661-2.992-12.813-3.49-14.132a65.945,65.945,0,0,1-1.871-10.171c.124-.925.624-3.3-1.5-4.887s-5.113-7.264-5.113-7.264l-4.116-10.7Z"/><path class="cls-2" d="M44.279,55.76c-1.5-1.408,2.327.881.831-1.408s1.5-1.057.331-3.346,1.83,2.465.833-.353c-.4-1.116-.161-1.759.262-2.132a8.211,8.211,0,0,1-.372-4.933c-1.148-2.7.731-8.886,1.94-11.6,1.328-2.994,1.828-6.692-.833-9.51s-5.653-2.641-8.479-3.522,6.485-5.282,6.485-5.282-.5.176,2.827,1.937A6.489,6.489,0,0,1,51.1,18.893c-1.318-4.588-3.128-7.525-6.318-7.863-3.326-.352-7.482,1.234-10.309,3.7a7.055,7.055,0,0,0-2.161,6.162c-1,.882,1,3.346,1.5,3.522s3.99,0,8.812.176,2.494,1.233,2.992,3.875-4.822,11.446-5.819,14.44c-.958,2.876,1.613,11.438,4.471,15.386C43.929,56.653,45.511,56.92,44.279,55.76Z"/><path class="cls-3" d="M48.1,15.61c-3.327-1.761-2.953-2.159-2.953-2.159s-9.185,4.623-6.359,5.5,5.82.705,8.479,3.522,2.161,6.516.833,9.51c-1.209,2.715-3.088,8.9-1.94,11.6.7-4.046,3.095-8.657,4.267-11.249a17.815,17.815,0,0,0,.83-12.856c-.053-.2-.11-.394-.166-.59A6.489,6.489,0,0,0,48.1,15.61Z"/><path class="cls-4" d="M129.406,48.716c-6.982-4.932-11.3-6.164-15.961-5.987s-11.8-4.754-21.282-7.925S80.524,35.862,75.7,38.15,66.559,48.188,62.568,51.885s-12.137,1.586-15.463-2.464a4.524,4.524,0,0,1-.569-.9c-.423.373-.657,1.016-.262,2.132,1,2.818-1.995-1.936-.833.353s-1.828,1.057-.331,3.346-2.328,0-.831,1.408c1.232,1.16-.35.893-.019,2.531.117.162.234.318.35.463,2.994,3.7,9.478,4.755,14.8,4.226s9.645-1.056,12.97.529,6.151,4.579,11.138,7.044,3.492,1.761,7.151,2.642,4.157,1.761,5.985,2.641.5-1.056,3.99,0,5.985-.177,12.305-1.056,6.816-2.818,12.3-.881,10.641,3.522,11.971,1.057S136.39,53.648,129.406,48.716Z"/><path class="cls-5" d="M111.909,43.257s7.023-.264,12.261,7,8.479,8.849,8.6,14.66,3.492,8.189.126,12.283-3.493,7.66-4.115,5.151-.25-2.906-.25-8.982,1-7.66-2.868-13.207-4.863-6.34-6.983-9.509A53.487,53.487,0,0,0,111.909,43.257Z"/><path class="cls-6" d="M121.3,45.106s15.338,10.963,19.576,16.641,5.862,12.019,5.488,16.642.249,10.169-.873,8.32-.623-3.962-1.371-7.131-1.746-5.68-1.871-4.887,1.746,2.377.748,7-3.242,10.962-3.989,9.641.123-3.3.623-6.736a24.389,24.389,0,0,0-.749-8.057,38.247,38.247,0,0,1-.623,7.529c-.749,3.963-3.242,8.85-5.238,9.246s-1,.792,0-4.36a60.828,60.828,0,0,0,1-11.754,15.876,15.876,0,0,0-2.368-9.244c-1.621-2.774-5.986-14.4-9.976-18.36s-12.761-7.352-10.267-6.956S121.3,45.106,121.3,45.106Z"/><path class="cls-7" d="M112.2,42.64s6.318-.616,14.341,3.39c5.6,2.8,13.592,9.774,16.709,12.679s3.492,4.36,4.49,7.4.374,4.623-.375,2.51a15.314,15.314,0,0,0-3.491-5.945c-1.5-1.32,1.372,2.378-.375,1.19a31.29,31.29,0,0,1-4.613-3.7c-2.993-2.641-10.724-9.245-13.966-11.491A67,67,0,0,0,112.2,42.64Z"/><path class="cls-4" d="M86.343,69.1s3.242,8.056,3.867,10.038,1.122,3.83,2.119,5.018,2.245,1.85,2.245-.13,1.331-1.763.831-5.02c-.759-4.964.831-8.5.831-9.949s-3.034.174-4.78-.485-5.984-2.509-4.988,0"/><path class="cls-8" d="M40.039,15.961a2.61,2.61,0,0,0-2.994.353c-.824.746-.5,1.673.582,1.585S40.87,16.666,40.039,15.961Z"/><path class="cls-9" d="M36.173,13.365s1.911-.265,2.744.791,1.495,1.85,2.162,1.5,4.072-2.2,4.072-2.2a12.87,12.87,0,0,1-1.829-.879,4.732,4.732,0,0,0-3.74-.7A7.6,7.6,0,0,0,36.173,13.365Z"/><path class="cls-10" d="M35.384,22.036S33.555,26,30.478,27.584a35.553,35.553,0,0,0-6.318,4.844,17.511,17.511,0,0,1,2.493-4.316c1.414-1.584,4.74-4.843,4.74-4.843Z"/><path class="cls-10" d="M33.47,18.427s-6.2,4.776-7.526,5.833-9.6,7.375-7.769,6.847S34.3,23.182,35.133,22.125s.334-.881-.83-1.233S33.47,18.427,33.47,18.427Z"/><path class="cls-11" d="M28.732,23.8a7.708,7.708,0,0,1,2.577-1.5s1.207-.176.666-.616-.624-.309-1.081.131a12.24,12.24,0,0,1-1.537,1.189A4.372,4.372,0,0,0,28.732,23.8Z"/><path class="cls-12" d="M75.2,52.693s3.159,10.992,7.649,13.633a34.67,34.67,0,0,0,18.954,4.755c7.815-.352,14.631-1.936,16.793-2.113s7.648,2.465,8.978,3.346,2.16-1.937-2.328-9.51-6.152-13.736-13.966-15.32-8.978-3.874-16.128-4.4S81.771,39.3,77.949,42.816,73.043,47.585,75.2,52.693Z"/><path class="cls-13" d="M98.108,66.547c.851.608,8.508.853,15.439,1.1s3.767-1.216,5.226-4.869-4.255-12.782-4.255-12.782,4.133,7.1,5.349,9.13.73,2.759.161,3.733,1.135,2.516.487,3.409a5.45,5.45,0,0,1-4.377,2.192c-2.51.161-10.777.486-13.128-.488A26.777,26.777,0,0,0,98.108,66.547Z"/><path class="cls-13" d="M103.219,50.653c4.6,2.426,4.654,11.815.562,14.786-3.54,2.568-14.084,2.089-17.9.4,0,0,11.765,1.452,14.59-.4s4.739-5.194,4.49-7.836A39.646,39.646,0,0,0,103.219,50.653Z"/><path class="cls-13" d="M95.488,50.389c4.629,1.767,1.334,6.753-.923,8.2-3.406,2.18-7.986,2.912-11.547.784a16.894,16.894,0,0,1-2.826-2.553c-.665-.967.415,5.02,4.573,5.988s13.467-.44,14.548-4.843,1.329-5.722-.5-6.692A6.913,6.913,0,0,0,95.488,50.389Z"/><path class="cls-13" d="M109.7,65.974c6.354-1.728,4.344-11.467.126-14.4,0,0,4.364,1.1,5.694,6.911S109.7,65.974,109.7,65.974Z"/><path class="cls-14" d="M38.012,16.454c.05.162-.2.39-.547.506s-.673.079-.721-.084.2-.387.546-.5S37.964,16.293,38.012,16.454Z"/></svg>