<svg id="word" xmlns="http://www.w3.org/2000/svg" xmlns:xlink="http://www.w3.org/1999/xlink" viewBox="0 0 160 160"><defs><style>.cls-1{fill:#f2ca5b;}.cls-1,.cls-2,.cls-3,.cls-4,.cls-5,.cls-6{stroke:#9d4b9c;stroke-width:0.5px;}.cls-2{fill:#f8ed49;}.cls-3{fill:#f4d75c;}.cls-4{fill:#f6f089;}.cls-5{fill:#bc6f92;}.cls-6{fill:#f28dba;}.cls-7{opacity:0.54;fill:url(#linear-gradient);}.cls-10,.cls-11,.cls-8,.cls-9{opacity:0.37;}.cls-8{fill:url(#linear-gradient-2);}.cls-9{fill:url(#linear-gradient-3);}.cls-10{fill:url(#linear-gradient-4);}.cls-11{fill:url(#linear-gradient-5);}</style><linearGradient id="linear-gradient" x1="2662.576" y1="63.938" x2="2664.694" y2="71.245" gradientTransform="matrix(-1, 0, 0, 1, 2749.246, 0)" gradientUnits="userSpaceOnUse"><stop offset="0.042" stop-color="#fff"/><stop offset="0.721" stop-color="#fff" stop-opacity="0"/></linearGradient><linearGradient id="linear-gradient-2" x1="83.846" y1="37.666" x2="78.25" y2="56.967" gradientTransform="matrix(1, 0, 0, 1, 0, 0)" xlink:href="#linear-gradient"/><linearGradient id="linear-gradient-3" x1="108.698" y1="49.386" x2="104.315" y2="64.506" gradientTransform="matrix(1, 0, 0, 1, 0, 0)" xlink:href="#linear-gradient"/><linearGradient id="linear-gradient-4" x1="106.72" y1="74.29" x2="103.34" y2="85.947" gradientTransform="matrix(1, 0, 0, 1, 0, 0)" xlink:href="#linear-gradient"/><linearGradient id="linear-gradient-5" x1="60.813" y1="50.942" x2="68.554" y2="56.992" gradientTransform="matrix(1, 0, 0, 1, 0, 0)" xlink:href="#linear-gradient"/></defs><polygon class="cls-1" points="127.66 71.404 128.117 102.345 113.549 135.207 112.003 95.526 127.66 71.404"/><path class="cls-2" d="M113.394,93.925l.523,41.248L53.323,120.841,43.2,118.3s-.852-16.5-.984-21.791-.655-17.2-.655-17.2l72.066,15.074Z"/><path class="cls-3" d="M112.449,90.344l.027,9.057S52.69,86.088,48.6,85.456s-8.773-1.224-8.773-1.224L39.79,72.78Z"/><polygon class="cls-4" points="39.79 72.78 75.471 56.85 128.891 60.006 112.916 90.604 39.79 72.78"/><polygon class="cls-1" points="111.318 90.838 112.231 100.214 128.573 74.217 128.891 60.006 111.318 90.838"/><path class="cls-5" d="M91.986,60.445s6.165-5.977,5.594-11.6a12.92,12.92,0,0,0-4.909-8.673s6.77-1,10.309.522,11.5,5.924,6.588,10.846-11.531,8.2-13.243,9.377S91.986,60.445,91.986,60.445Z"/><path class="cls-5" d="M90.5,65.6s.685,2.813,9.818,1.29,12.444-1.875,13.814-3.633,1.484-5.157,1.484-5.157,2.968,1.758,3.653,4.453,4.567,3.516-1.6,6.329-9.475,4.1-15.526,4.219a103.061,103.061,0,0,1-14.385-1.171Z"/><path class="cls-6" d="M84.109,66.422s-4.567,6.212-17.124,5.743-18.723-4.454-18.723-8.087S56.246,53.7,56.246,53.7s-4.153,5.312.528,8.945,3.361,3.541,9.868,3.541a116.7,116.7,0,0,0,14.385-1.171Z"/><path class="cls-6" d="M64.016,45.443s-11.644,3.868-6.735,10.431,8.448,8.438,13.927,9.493a48.436,48.436,0,0,0,12.1.352l-7.535-5.86s-5.594-2.578-6.393-6.212-1.256-7.149,2.169-7.5,14.727,1.876,16.211,3.868,3.2,5.156,1.256,8.087a63.5,63.5,0,0,0-3.31,5.625s1.255,3.868,5.936.117,8.1-13.829,1.941-16.759S75.318,41.341,64.016,45.443Z"/><path class="cls-6" d="M82.168,66.422s-5.936-7.5-7.192-12.189-5.708-12.775,2.055-14.767,11.074-1.29,16.782-.586a45.766,45.766,0,0,1,9.932,2.344s-7.763-.7-13.243,1.289-7.877,5.157-7.078,11.251a53.262,53.262,0,0,0,2.4,10.431Z"/><path class="cls-6" d="M88.219,63.961S98.265,53.53,103.4,52.006s9.589-5.86,12.329-1.523,1.256,4.805,3.083,7.969,2.814,6.9,2.472,7.718-4.185-3.147-6.126-5.374-6.05-1.641-10.389-.117S95.982,65.25,93.7,66.774a14.544,14.544,0,0,1-4.338,1.992Z"/><path class="cls-6" d="M79.428,68.532s2.969.82-.342,6.68A47.45,47.45,0,0,1,70.3,86.7c-3.082,3.165-6.279,5.861-6.621,6.915s.114-3.4.571-5.391a26.559,26.559,0,0,0,.57-3.75,25.54,25.54,0,0,1-7.766,2.9,43.082,43.082,0,0,1-7.381.633s6.357-3.065,9.325-7.519,4.681-6.681,8.448-8.2S79.428,68.532,79.428,68.532Z"/><path class="cls-6" d="M90.845,70.289s5.137,0,6.164,6.8a76.273,76.273,0,0,0,3.882,14.064s1.713-3.867,2.74-4.1,3.425-1.172,5.366.821,8.79,3.281,8.79,3.281-.8,1.172-5.479-7.149-8.106-12.306-9.02-12.54-12.9-1.406-12.9-1.406Z"/><path class="cls-6" d="M78.972,66.187s.913-3.281,5.936-3.164S93.7,65.367,93.7,67.945a4.933,4.933,0,0,1-3.882,5.04c-2.283.469.685,3.868-3.767.938s-5.594-2.227-5.937-2.11S72.693,66.422,78.972,66.187Z"/><path class="cls-7" d="M80.673,64.377s2.605-1.55,4.081-1.068,6.009,1.458,6.575,1.842a2.724,2.724,0,0,1,.227,4.069c-1.7,1.742-5.217,3.971-7.257,2.227S76.929,65.829,80.673,64.377Z"/><path class="cls-8" d="M91.539,39.335s-11.266-1.446-15.93,1.9c-1.387.992-2.553,1.807-.44,7.318a54.584,54.584,0,0,0,5.544,10.39l3.081.995s-5.633-9.307-2.817-13.553S91.539,39.335,91.539,39.335Z"/><path class="cls-9" d="M115.654,53.521a3.477,3.477,0,0,0-.038-.354c-.163-1.082-1.02-4.179-5.419-2.448a38.277,38.277,0,0,0-12.058,7.048,23.6,23.6,0,0,0-4.224,4.789s1.056.452,3.7-.994,11.352-4.969,13.905-4.7,5.193,2.71,5.193,2.71Z"/><path class="cls-10" d="M97.788,72.856a5.455,5.455,0,0,1,6.072.9c2.729,2.62,8.537,13.191,8.537,13.191s-3.256-3.524-6.952-2.259-5.721,1.717-5.721.542S97.788,72.856,97.788,72.856Z"/><path class="cls-11" d="M63.991,47.377s-6.425,1.084-5.721,5.6a10.69,10.69,0,0,0,7.481,8.945,26.122,26.122,0,0,0,8.009,1.535S67.6,61.11,66.191,57.044s.264-8.675.528-9.307S63.991,47.377,63.991,47.377Z"/></svg>