<svg id="word" xmlns="http://www.w3.org/2000/svg" viewBox="0 0 160 160"><defs><style>.cls-1{fill:#bb80b7;stroke:#9c4c9c;stroke-miterlimit:10;stroke-width:0.709px;}.cls-2{fill:#fff;}.cls-3{fill:#9c4c9c;}</style></defs><path class="cls-1" d="M76,34.6s.877,2.046-11.7,4.386-20.468,8.479-20.76,12.28-8.187,10.818-9.941,13.157-9.064,7.31-7.018,10.234-3.216,1.462-5.555,9.357S18.7,102.147,18.7,105.655s-9.649,11.7-5.848,15.2S57,127.292,75.127,127s64.326-2.924,64.911-5.263-3.509.585-4.094-7.31,6.433-11.988,4.678-24.268-6.432-23.976-7.6-29.239,1.17-5.848-3.8-9.649-13.157-6.725-13.157-6.725L83.9,31.681Z"/><path class="cls-1" d="M83.314,23.494s-.1-2.144-.39.2S80,33.435,80,33.435a51.093,51.093,0,0,0,6.823,11.988c4.093,4.971,8.479,5.556,11.111,9.357s8.186.292,8.186.292,6.141-9.356,7.895-15.2,14.912-4.386-1.17-7.9A247.972,247.972,0,0,1,83.314,23.494Z"/><path class="cls-1" d="M92.963,24.663s-15.692-7.309-7.5,1.755S98.518,40.16,99.98,45.131s.585,14.034,6.14,9.941,2.047-7.6,8.772-10.526,8.772-3.216,9.649-8.187,1.17-4.971-3.509-7.017S92.963,24.663,92.963,24.663Z"/><polygon class="cls-2" points="67.262 62.113 66.686 61.951 71.894 46.265 72.469 46.426 67.262 62.113 67.262 62.113"/><path class="cls-2" d="M73.457,46.031a1.079,1.079,0,0,1-1.32.662.968.968,0,0,1-.722-1.215,1.083,1.083,0,0,1,1.322-.661A.966.966,0,0,1,73.457,46.031Z"/><path class="cls-2" d="M70.38,51.533l-1.29-3.026a.27.27,0,0,1,.169-.359.313.313,0,0,1,.393.158l1.021,2.4,2.345-1.382a.318.318,0,0,1,.415.083.262.262,0,0,1-.091.383L70.38,51.533Z"/><path class="cls-2" d="M69.421,54.347,68.13,51.321a.273.273,0,0,1,.171-.359.312.312,0,0,1,.39.156l1.024,2.4,2.344-1.38a.317.317,0,0,1,.416.083.262.262,0,0,1-.09.381l-2.964,1.747Z"/><path class="cls-2" d="M68.4,57.548l-1.291-3.024a.27.27,0,0,1,.17-.359.308.308,0,0,1,.39.157l1.023,2.4,2.345-1.381a.317.317,0,0,1,.416.084.262.262,0,0,1-.092.382L68.4,57.548Z"/><polygon class="cls-2" points="66.801 62.19 49.728 57.404 49.903 56.874 66.977 61.66 66.801 62.19 66.801 62.19"/><path class="cls-2" d="M51.974,59.99a.293.293,0,0,1-.2-.167.268.268,0,0,1,.171-.357l2.609-.94-1.5-2.154a.267.267,0,0,1,.09-.383.321.321,0,0,1,.418.084l1.9,2.722-3.291,1.186a.324.324,0,0,1-.194.009Z"/><path class="cls-2" d="M55.037,60.87a.284.284,0,0,1-.2-.165.269.269,0,0,1,.17-.359l2.608-.938-1.5-2.154a.266.266,0,0,1,.093-.384.314.314,0,0,1,.415.084l1.9,2.722-3.292,1.187a.326.326,0,0,1-.2.007Z"/><path class="cls-2" d="M58.522,61.811a.3.3,0,0,1-.2-.165.269.269,0,0,1,.17-.358l2.609-.942-1.5-2.152a.264.264,0,0,1,.091-.384.319.319,0,0,1,.416.084l1.9,2.722L58.717,61.8a.342.342,0,0,1-.2.008Z"/><polygon class="cls-2" points="83.903 67.005 66.828 62.222 67.005 61.692 84.08 66.475 83.903 67.005 83.903 67.005"/><path class="cls-2" d="M84.334,67.914a.969.969,0,0,1-.721-1.215,1.081,1.081,0,0,1,1.321-.662.968.968,0,0,1,.722,1.213A1.084,1.084,0,0,1,84.334,67.914Z"/><path class="cls-2" d="M80.414,67.923a.292.292,0,0,1-.168-.114l-1.9-2.723L81.639,63.9a.309.309,0,0,1,.39.155.271.271,0,0,1-.17.36l-2.609.94,1.5,2.154a.263.263,0,0,1-.091.381.316.316,0,0,1-.248.032Z"/><path class="cls-2" d="M77.351,67.044a.3.3,0,0,1-.168-.117l-1.9-2.721,3.294-1.187a.312.312,0,0,1,.391.156.271.271,0,0,1-.171.359l-2.608.94,1.5,2.154a.265.265,0,0,1-.091.382.33.33,0,0,1-.248.034Z"/><path class="cls-2" d="M73.865,66.1a.3.3,0,0,1-.169-.117l-1.9-2.72,3.294-1.188a.312.312,0,0,1,.39.158.27.27,0,0,1-.171.358l-2.609.941,1.5,2.152a.262.262,0,0,1-.091.384.328.328,0,0,1-.248.032Z"/><polygon class="cls-2" points="62.006 77.801 61.428 77.638 66.638 61.952 67.212 62.114 62.006 77.801 62.006 77.801"/><path class="cls-2" d="M60.444,78.036a1.078,1.078,0,0,1,1.32-.664.97.97,0,0,1,.721,1.215,1.083,1.083,0,0,1-1.322.662A.966.966,0,0,1,60.444,78.036Z"/><path class="cls-2" d="M64.443,75.925a.3.3,0,0,1-.195-.164l-1.023-2.4-2.343,1.38a.321.321,0,0,1-.418-.083.266.266,0,0,1,.092-.384l2.962-1.745,1.291,3.024a.269.269,0,0,1-.17.36.321.321,0,0,1-.2.008Z"/><path class="cls-2" d="M65.4,73.111a.3.3,0,0,1-.2-.164l-1.021-2.4L61.841,71.93a.318.318,0,0,1-.416-.082.266.266,0,0,1,.09-.384l2.963-1.744,1.29,3.024a.269.269,0,0,1-.169.359.327.327,0,0,1-.2.008Z"/><path class="cls-2" d="M66.426,69.909a.289.289,0,0,1-.2-.165l-1.022-2.4-2.345,1.381a.319.319,0,0,1-.416-.084.265.265,0,0,1,.09-.383L65.5,66.516l1.291,3.027a.271.271,0,0,1-.169.359.34.34,0,0,1-.2.007Z"/><polygon class="cls-2" points="67.171 62.117 66.89 61.627 78.885 55.804 79.167 56.294 67.171 62.117 67.171 62.117"/><path class="cls-2" d="M80.17,56.655a1.117,1.117,0,0,1-1.445-.388.942.942,0,0,1,.425-1.33,1.117,1.117,0,0,1,1.445.39A.938.938,0,0,1,80.17,56.655Z"/><path class="cls-2" d="M73.761,58.546l1.413-2.978a.321.321,0,0,1,.4-.143.267.267,0,0,1,.154.364l-1.119,2.36,2.719.546a.282.282,0,0,1,.23.33.3.3,0,0,1-.358.211l-3.438-.69Z"/><path class="cls-2" d="M70.915,59.912l1.416-2.976a.316.316,0,0,1,.4-.144.27.27,0,0,1,.155.364l-1.122,2.361,2.722.546a.279.279,0,0,1,.23.329.306.306,0,0,1-.359.213l-3.44-.693Z"/><polygon class="cls-2" points="66.835 62.137 60.5 51.118 61.032 50.86 67.369 61.879 66.835 62.137 66.835 62.137"/><path class="cls-2" d="M61.422,49.936A.936.936,0,0,1,61,51.264a1.115,1.115,0,0,1-1.445-.391.94.94,0,0,1,.424-1.327A1.114,1.114,0,0,1,61.422,49.936Z"/><path class="cls-2" d="M63.482,55.826l-3.24-1.3a.27.27,0,0,1-.157-.365.318.318,0,0,1,.4-.144l2.567,1.03.6-2.5a.3.3,0,0,1,.359-.212.278.278,0,0,1,.229.329l-.752,3.159Z"/><path class="cls-2" d="M64.971,58.439l-3.241-1.3a.267.267,0,0,1-.156-.364.315.315,0,0,1,.4-.144l2.569,1.032.594-2.5a.3.3,0,0,1,.359-.211.28.28,0,0,1,.231.33l-.752,3.158Z"/><polygon class="cls-2" points="73.267 73.329 66.931 62.309 67.463 62.05 73.8 73.071 73.267 73.329 73.267 73.329"/><path class="cls-2" d="M72.875,74.252a.938.938,0,0,1,.422-1.326,1.114,1.114,0,0,1,1.446.388.939.939,0,0,1-.424,1.327A1.112,1.112,0,0,1,72.875,74.252Z"/><path class="cls-2" d="M70.274,71.847a.276.276,0,0,1-.209-.326l.749-3.159,3.244,1.3a.268.268,0,0,1,.154.363.31.31,0,0,1-.4.144l-2.568-1.03-.6,2.5a.3.3,0,0,1-.358.211l-.02,0Z"/><path class="cls-2" d="M68.785,69.232a.274.274,0,0,1-.209-.324l.751-3.158,3.241,1.3a.266.266,0,0,1,.156.363.309.309,0,0,1-.4.144l-2.568-1.03-.594,2.5a.3.3,0,0,1-.358.212l-.022-.007Z"/><polygon class="cls-2" points="54.939 68.104 54.655 67.613 66.651 61.791 66.933 62.281 54.939 68.104 54.939 68.104"/><path class="cls-2" d="M53.65,67.252a1.118,1.118,0,0,1,1.447.39.94.94,0,0,1-.425,1.328,1.117,1.117,0,0,1-1.446-.391A.94.94,0,0,1,53.65,67.252Z"/><path class="cls-2" d="M58.286,68.5l-.035-.013a.27.27,0,0,1-.158-.364l1.122-2.36-2.72-.546a.285.285,0,0,1-.232-.331.3.3,0,0,1,.359-.21l3.439.691-1.415,2.977a.311.311,0,0,1-.36.156Z"/><path class="cls-2" d="M61.129,67.126a.267.267,0,0,1-.034-.011.271.271,0,0,1-.156-.366l1.12-2.359-2.721-.546a.279.279,0,0,1-.228-.329.3.3,0,0,1,.358-.212l3.438.69-1.414,2.98a.313.313,0,0,1-.363.153Z"/><path class="cls-2" d="M65.417,66.7a4.439,4.439,0,0,1-3.3-5.558,4.959,4.959,0,0,1,6.05-3.035,4.439,4.439,0,0,1,3.3,5.557,4.961,4.961,0,0,1-6.05,3.036Zm2.576-8.061a4.34,4.34,0,0,0-5.3,2.659,3.889,3.889,0,0,0,2.894,4.87,4.343,4.343,0,0,0,5.3-2.659,3.888,3.888,0,0,0-2.894-4.87Z"/><path class="cls-2" d="M68.956,62.776a2.194,2.194,0,0,1-2.683,1.344,1.964,1.964,0,0,1-1.464-2.462,2.2,2.2,0,0,1,2.682-1.346A1.965,1.965,0,0,1,68.956,62.776Z"/><polygon class="cls-2" points="108.797 76.406 108.381 76.54 105.24 64.909 105.655 64.775 108.797 76.406 108.797 76.406"/><path class="cls-2" d="M106.1,64.138a.786.786,0,0,1-.537.933.7.7,0,0,1-.927-.448.789.789,0,0,1,.538-.934A.705.705,0,0,1,106.1,64.138Z"/><path class="cls-2" d="M106.438,68.72l-2-1.321a.2.2,0,0,1-.041-.286.228.228,0,0,1,.3-.062l1.584,1.046.87-1.782a.232.232,0,0,1,.286-.117.191.191,0,0,1,.1.269l-1.1,2.253Z"/><path class="cls-2" d="M106.986,70.817l-2-1.321a.2.2,0,0,1-.041-.286.227.227,0,0,1,.3-.063l1.587,1.047.87-1.783a.233.233,0,0,1,.287-.116.191.191,0,0,1,.1.268l-1.1,2.254Z"/><path class="cls-2" d="M107.652,73.174l-2-1.32a.2.2,0,0,1-.04-.286.224.224,0,0,1,.3-.062l1.586,1.046.87-1.783a.231.231,0,0,1,.287-.115.19.19,0,0,1,.1.268l-1.1,2.252Z"/><polygon class="cls-2" points="108.547 76.638 96.243 80.593 96.136 80.201 108.441 76.245 108.547 76.638 108.547 76.638"/><path class="cls-2" d="M98.648,81.262a.213.213,0,0,1-.187-.022.2.2,0,0,1-.039-.286l1.208-1.621-1.781-.7a.2.2,0,0,1-.1-.269.235.235,0,0,1,.288-.118l2.249.893-1.525,2.044a.236.236,0,0,1-.114.083Z"/><path class="cls-2" d="M100.864,80.566a.209.209,0,0,1-.185-.022.2.2,0,0,1-.041-.286l1.209-1.62-1.781-.7a.194.194,0,0,1-.1-.27.231.231,0,0,1,.287-.116l2.249.891-1.524,2.045a.237.237,0,0,1-.116.083Z"/><path class="cls-2" d="M103.361,79.737a.215.215,0,0,1-.185-.022.2.2,0,0,1-.041-.286l1.208-1.621-1.779-.705a.192.192,0,0,1-.1-.27.232.232,0,0,1,.287-.116l2.248.891-1.524,2.045a.243.243,0,0,1-.115.084Z"/><polygon class="cls-2" points="120.881 72.69 108.576 76.647 108.471 76.253 120.775 72.296 120.881 72.69 120.881 72.69"/><path class="cls-2" d="M121.508,73.069a.705.705,0,0,1-.927-.449.787.787,0,0,1,.537-.933.7.7,0,0,1,.926.447A.789.789,0,0,1,121.508,73.069Z"/><path class="cls-2" d="M119.128,74.651a.215.215,0,0,1-.148,0l-2.25-.891,1.525-2.045a.226.226,0,0,1,.3-.063.2.2,0,0,1,.042.288l-1.208,1.62,1.779.7a.191.191,0,0,1,.1.269.231.231,0,0,1-.138.119Z"/><path class="cls-2" d="M116.912,75.348a.221.221,0,0,1-.148,0l-2.251-.891,1.526-2.045a.225.225,0,0,1,.3-.062.2.2,0,0,1,.04.287l-1.207,1.619,1.78.706a.191.191,0,0,1,.1.268.236.236,0,0,1-.137.121Z"/><path class="cls-2" d="M114.415,76.177a.221.221,0,0,1-.15,0l-2.248-.89,1.525-2.047a.229.229,0,0,1,.3-.061.2.2,0,0,1,.041.287l-1.208,1.621,1.779.7a.191.191,0,0,1,.1.27.241.241,0,0,1-.138.119Z"/><polygon class="cls-2" points="111.908 88.057 111.492 88.191 108.352 76.56 108.766 76.427 111.908 88.057 111.908 88.057"/><path class="cls-2" d="M111.053,88.828a.785.785,0,0,1,.536-.934.706.706,0,0,1,.926.448.79.79,0,0,1-.537.935A.7.7,0,0,1,111.053,88.828Z"/><path class="cls-2" d="M112.636,85.937a.217.217,0,0,1-.185-.021l-1.586-1.046L110,86.651a.234.234,0,0,1-.287.118.194.194,0,0,1-.1-.27l1.1-2.252,2,1.319a.2.2,0,0,1,.041.288.228.228,0,0,1-.115.083Z"/><path class="cls-2" d="M112.088,83.84a.218.218,0,0,1-.186-.021l-1.585-1.047-.87,1.782a.232.232,0,0,1-.286.118.193.193,0,0,1-.1-.27l1.1-2.251,2,1.319a.2.2,0,0,1,.041.286.237.237,0,0,1-.116.084Z"/><path class="cls-2" d="M111.422,81.482a.209.209,0,0,1-.185-.022l-1.585-1.046-.87,1.783a.233.233,0,0,1-.286.116.193.193,0,0,1-.1-.269l1.1-2.253,2,1.322a.2.2,0,0,1,.041.286.246.246,0,0,1-.117.083Z"/><polygon class="cls-2" points="108.742 76.445 108.374 76.26 113.326 67.898 113.694 68.082 108.742 76.445 108.742 76.445"/><path class="cls-2" d="M114.449,67.9a.813.813,0,0,1-1.034.345.686.686,0,0,1-.276-.979.813.813,0,0,1,1.035-.344A.683.683,0,0,1,114.449,67.9Z"/><path class="cls-2" d="M111.313,71.625l-.338-2.379A.233.233,0,0,1,111.16,69a.2.2,0,0,1,.24.159l.268,1.885,1.873-.761a.2.2,0,0,1,.272.108.217.217,0,0,1-.132.272l-2.368.963Z"/><path class="cls-2" d="M110.132,73.6l-.335-2.379a.23.23,0,0,1,.183-.248.2.2,0,0,1,.241.159l.268,1.887,1.874-.763a.2.2,0,0,1,.272.108.22.22,0,0,1-.133.273l-2.37.963Z"/><polygon class="cls-2" points="108.546 76.593 100.264 72.44 100.484 72.07 108.767 76.221 108.546 76.593 108.546 76.593"/><path class="cls-2" d="M100.35,71.351a.682.682,0,0,1,.276.978.813.813,0,0,1-1.035.343.685.685,0,0,1-.276-.977A.811.811,0,0,1,100.35,71.351Z"/><path class="cls-2" d="M103.97,74.1l-2.492.512a.2.2,0,0,1-.242-.159.231.231,0,0,1,.183-.247l1.975-.406-.641-1.758a.218.218,0,0,1,.133-.273.2.2,0,0,1,.272.107l.812,2.224Z"/><path class="cls-2" d="M105.926,75.094l-2.493.512a.194.194,0,0,1-.241-.159.229.229,0,0,1,.182-.246l1.978-.406-.645-1.759a.22.22,0,0,1,.134-.272.2.2,0,0,1,.272.107l.813,2.223Z"/><polygon class="cls-2" points="116.956 80.811 108.674 76.658 108.893 76.287 117.177 80.44 116.956 80.811 116.956 80.811"/><path class="cls-2" d="M117.089,81.53a.684.684,0,0,1-.276-.976.812.812,0,0,1,1.035-.346.685.685,0,0,1,.275.978A.811.811,0,0,1,117.089,81.53Z"/><path class="cls-2" d="M114.541,81.113a.2.2,0,0,1-.258-.114l-.815-2.222,2.5-.512a.2.2,0,0,1,.24.158.227.227,0,0,1-.183.247l-1.976.406.643,1.759a.221.221,0,0,1-.133.273l-.014,0Z"/><path class="cls-2" d="M112.584,80.122a.2.2,0,0,1-.257-.113l-.813-2.222,2.493-.512a.194.194,0,0,1,.241.158.225.225,0,0,1-.184.247l-1.975.406.644,1.759a.222.222,0,0,1-.133.273l-.016,0Z"/><polygon class="cls-2" points="103.713 85.003 103.343 84.819 108.295 76.456 108.664 76.641 103.713 85.003 103.713 85.003"/><path class="cls-2" d="M102.587,85a.814.814,0,0,1,1.037-.344.684.684,0,0,1,.275.978.813.813,0,0,1-1.036.343A.684.684,0,0,1,102.587,85Z"/><path class="cls-2" d="M105.905,83.9a.147.147,0,0,1-.027.006.2.2,0,0,1-.242-.158l-.267-1.885-1.873.761a.207.207,0,0,1-.274-.108.222.222,0,0,1,.134-.272l2.368-.963.337,2.38a.226.226,0,0,1-.156.239Z"/><path class="cls-2" d="M107.083,81.92a.182.182,0,0,1-.025.007.2.2,0,0,1-.242-.16l-.268-1.885-1.874.762a.2.2,0,0,1-.271-.108.22.22,0,0,1,.133-.272L106.9,79.3l.338,2.38a.226.226,0,0,1-.159.239Z"/><path class="cls-2" d="M109.518,79.936a3.235,3.235,0,0,1-4.242-2.051,3.615,3.615,0,0,1,2.458-4.278,3.236,3.236,0,0,1,4.242,2.051,3.616,3.616,0,0,1-2.458,4.278ZM107.844,74a3.164,3.164,0,0,0-2.153,3.748,2.834,2.834,0,0,0,3.717,1.8,3.166,3.166,0,0,0,2.153-3.747,2.834,2.834,0,0,0-3.717-1.8Z"/><path class="cls-2" d="M110.093,76.128a1.6,1.6,0,0,1-1.091,1.9,1.431,1.431,0,0,1-1.88-.908,1.6,1.6,0,0,1,1.089-1.9A1.433,1.433,0,0,1,110.093,76.128Z"/><polygon class="cls-2" points="79.336 103.484 78.92 103.617 75.78 91.987 76.194 91.853 79.336 103.484 79.336 103.484"/><path class="cls-2" d="M76.636,91.216a.787.787,0,0,1-.536.933.706.706,0,0,1-.928-.448.79.79,0,0,1,.538-.934A.7.7,0,0,1,76.636,91.216Z"/><path class="cls-2" d="M76.978,95.8l-2-1.321a.2.2,0,0,1-.041-.286.228.228,0,0,1,.3-.062l1.585,1.046.869-1.783a.232.232,0,0,1,.287-.116.192.192,0,0,1,.1.269l-1.1,2.253Z"/><path class="cls-2" d="M77.526,97.894l-2-1.32a.2.2,0,0,1-.041-.287.227.227,0,0,1,.3-.062l1.586,1.046.871-1.782a.23.23,0,0,1,.286-.116.191.191,0,0,1,.1.268l-1.1,2.253Z"/><path class="cls-2" d="M78.191,100.252l-2-1.32a.2.2,0,0,1-.041-.287.225.225,0,0,1,.3-.061l1.585,1.045.871-1.782a.23.23,0,0,1,.286-.116.191.191,0,0,1,.1.269l-1.1,2.252Z"/><polygon class="cls-2" points="79.086 103.716 66.782 107.671 66.675 107.278 78.98 103.323 79.086 103.716 79.086 103.716"/><path class="cls-2" d="M69.187,108.34a.214.214,0,0,1-.186-.022.2.2,0,0,1-.04-.286l1.208-1.621-1.78-.7a.193.193,0,0,1-.1-.269.234.234,0,0,1,.287-.117l2.249.892L69.3,108.257a.239.239,0,0,1-.115.083Z"/><path class="cls-2" d="M71.4,107.643a.209.209,0,0,1-.185-.021.2.2,0,0,1-.04-.287l1.208-1.619-1.781-.7a.2.2,0,0,1-.1-.271.23.23,0,0,1,.287-.115l2.249.891-1.524,2.045a.225.225,0,0,1-.116.082Z"/><path class="cls-2" d="M73.9,106.814a.212.212,0,0,1-.185-.021.2.2,0,0,1-.04-.287l1.207-1.621-1.779-.7a.191.191,0,0,1-.1-.27.231.231,0,0,1,.286-.115l2.249.891-1.524,2.045a.243.243,0,0,1-.116.083Z"/><polygon class="cls-2" points="91.42 99.768 79.116 103.725 79.01 103.331 91.315 99.374 91.42 99.768 91.42 99.768"/><path class="cls-2" d="M92.047,100.147a.705.705,0,0,1-.926-.449.787.787,0,0,1,.536-.934.706.706,0,0,1,.927.448A.79.79,0,0,1,92.047,100.147Z"/><path class="cls-2" d="M89.668,101.729a.215.215,0,0,1-.148,0l-2.25-.892L88.8,98.791a.225.225,0,0,1,.3-.063.2.2,0,0,1,.041.287l-1.208,1.621,1.78.7a.193.193,0,0,1,.1.269.234.234,0,0,1-.138.119Z"/><path class="cls-2" d="M87.452,102.426a.218.218,0,0,1-.149,0l-2.25-.89,1.525-2.046a.227.227,0,0,1,.3-.062.2.2,0,0,1,.041.287l-1.208,1.62,1.78.7a.193.193,0,0,1,.1.269.246.246,0,0,1-.137.121Z"/><path class="cls-2" d="M84.954,103.255a.218.218,0,0,1-.149,0l-2.249-.89,1.525-2.047a.229.229,0,0,1,.3-.061.2.2,0,0,1,.04.287l-1.208,1.621,1.779.7a.191.191,0,0,1,.1.27.238.238,0,0,1-.138.119Z"/><polygon class="cls-2" points="82.448 115.135 82.031 115.269 78.891 103.637 79.306 103.505 82.448 115.135 82.448 115.135"/><path class="cls-2" d="M81.592,115.906a.787.787,0,0,1,.536-.934.7.7,0,0,1,.926.448.788.788,0,0,1-.537.934A.7.7,0,0,1,81.592,115.906Z"/><path class="cls-2" d="M83.175,113.015a.215.215,0,0,1-.184-.022l-1.586-1.045-.869,1.781a.236.236,0,0,1-.288.118.194.194,0,0,1-.1-.27l1.1-2.253,2,1.32a.2.2,0,0,1,.041.287.232.232,0,0,1-.116.084Z"/><path class="cls-2" d="M82.628,110.917a.217.217,0,0,1-.186-.02l-1.585-1.047-.87,1.782a.23.23,0,0,1-.286.117.193.193,0,0,1-.1-.269l1.1-2.252,2,1.32a.2.2,0,0,1,.041.286.233.233,0,0,1-.115.083Z"/><path class="cls-2" d="M81.962,108.559a.212.212,0,0,1-.185-.021l-1.585-1.046-.87,1.782a.233.233,0,0,1-.287.117.194.194,0,0,1-.1-.27l1.1-2.252,2,1.321a.2.2,0,0,1,.041.286.231.231,0,0,1-.116.083Z"/><polygon class="cls-2" points="79.282 103.523 78.914 103.338 83.865 94.975 84.234 95.16 79.282 103.523 79.282 103.523"/><path class="cls-2" d="M84.989,94.976a.816.816,0,0,1-1.035.345.686.686,0,0,1-.276-.979A.812.812,0,0,1,84.713,94,.683.683,0,0,1,84.989,94.976Z"/><path class="cls-2" d="M81.853,98.7l-.339-2.379a.235.235,0,0,1,.185-.247.2.2,0,0,1,.241.159l.268,1.885,1.873-.762a.205.205,0,0,1,.272.109.218.218,0,0,1-.133.272l-2.367.963Z"/><path class="cls-2" d="M80.672,100.677,80.336,98.3a.23.23,0,0,1,.184-.247.2.2,0,0,1,.241.159l.267,1.886,1.874-.762a.2.2,0,0,1,.272.108.222.222,0,0,1-.132.273l-2.37.962Z"/><polygon class="cls-2" points="79.086 103.67 70.804 99.518 71.024 99.147 79.306 103.299 79.086 103.67 79.086 103.67"/><path class="cls-2" d="M70.889,98.428a.683.683,0,0,1,.277.978.812.812,0,0,1-1.035.344.685.685,0,0,1-.276-.978A.812.812,0,0,1,70.889,98.428Z"/><path class="cls-2" d="M74.51,101.181l-2.493.513a.2.2,0,0,1-.242-.159.233.233,0,0,1,.184-.248l1.975-.406-.641-1.757a.219.219,0,0,1,.132-.274.2.2,0,0,1,.272.108l.813,2.223Z"/><path class="cls-2" d="M76.466,102.171l-2.494.513a.2.2,0,0,1-.241-.159.229.229,0,0,1,.183-.247l1.977-.405-.644-1.759a.22.22,0,0,1,.133-.273.2.2,0,0,1,.273.108l.813,2.222Z"/><polygon class="cls-2" points="87.496 107.889 79.213 103.736 79.433 103.365 87.716 107.518 87.496 107.889 87.496 107.889"/><path class="cls-2" d="M87.629,108.608a.686.686,0,0,1-.277-.977.814.814,0,0,1,1.036-.345.686.686,0,0,1,.275.978A.811.811,0,0,1,87.629,108.608Z"/><path class="cls-2" d="M85.08,108.191a.2.2,0,0,1-.257-.114l-.815-2.222,2.5-.513a.2.2,0,0,1,.24.159.226.226,0,0,1-.183.247l-1.975.406.642,1.759a.22.22,0,0,1-.133.273l-.014,0Z"/><path class="cls-2" d="M83.124,107.2a.2.2,0,0,1-.258-.113l-.812-2.222,2.493-.512a.194.194,0,0,1,.241.158.226.226,0,0,1-.184.247l-1.975.406.643,1.758a.221.221,0,0,1-.132.274l-.016,0Z"/><polygon class="cls-2" points="74.252 112.081 73.882 111.896 78.835 103.534 79.203 103.718 74.252 112.081 74.252 112.081"/><path class="cls-2" d="M73.126,112.081a.815.815,0,0,1,1.037-.344.684.684,0,0,1,.275.977.813.813,0,0,1-1.036.344A.685.685,0,0,1,73.126,112.081Z"/><path class="cls-2" d="M76.444,110.973l-.026.006a.2.2,0,0,1-.243-.158l-.266-1.886-1.873.762a.207.207,0,0,1-.274-.108.221.221,0,0,1,.133-.272l2.369-.963.337,2.379a.226.226,0,0,1-.157.24Z"/><path class="cls-2" d="M77.623,109l-.026.007a.2.2,0,0,1-.241-.16l-.268-1.885-1.874.762a.2.2,0,0,1-.271-.108.22.22,0,0,1,.133-.273l2.367-.963.339,2.381a.229.229,0,0,1-.159.239Z"/><path class="cls-2" d="M80.058,107.014a3.236,3.236,0,0,1-4.242-2.051,3.614,3.614,0,0,1,2.457-4.278,3.235,3.235,0,0,1,4.242,2.051,3.615,3.615,0,0,1-2.457,4.278Zm-1.675-5.937a3.165,3.165,0,0,0-2.153,3.747,2.836,2.836,0,0,0,3.718,1.8,3.167,3.167,0,0,0,2.153-3.748,2.836,2.836,0,0,0-3.718-1.8Z"/><path class="cls-2" d="M80.632,103.206a1.6,1.6,0,0,1-1.091,1.9,1.431,1.431,0,0,1-1.88-.909,1.6,1.6,0,0,1,1.09-1.9A1.432,1.432,0,0,1,80.632,103.206Z"/><path class="cls-3" d="M80.5,33.7c-.7-1.883-1.5-3.727-2.383-5.526a34.414,34.414,0,0,0-3.062-5.142,15.388,15.388,0,0,0-1.949-2.221,6.521,6.521,0,0,0-2.428-1.492,3.425,3.425,0,0,0-2.668.265,10.683,10.683,0,0,0-1.228.785c-.434.272-.77.6-1.158.9a7.859,7.859,0,0,0-1.816,2.171,2.361,2.361,0,0,0,.005,2.45,4.29,4.29,0,0,0,2.167,1.574,16.472,16.472,0,0,0,2.848.675,23.166,23.166,0,0,1,5.729,2.23,38.075,38.075,0,0,1,5.154,3.267l1.435,1.083-1.792-.211c-3.636-.427-7.3-.762-10.955-.927a53.03,53.03,0,0,0-5.467,0,12.622,12.622,0,0,0-2.62.395,2.186,2.186,0,0,0-.536.233.491.491,0,0,0-.18.142l-.037.034-.009.008c-.027.047.03-.06.022-.045l0,.01-.019.039-.075.155a.568.568,0,0,0,.092.261,1.9,1.9,0,0,0,.418.367,9.353,9.353,0,0,0,2.446.978c.873.237,1.766.422,2.664.574a39.791,39.791,0,0,0,5.448.525,23.036,23.036,0,0,0,2.732-.072,10.237,10.237,0,0,0,2.65-.594,13.421,13.421,0,0,0,2.488-1.129A6.979,6.979,0,0,0,80.5,33.7Zm0,0a7.062,7.062,0,0,1-2.012,1.879,13.326,13.326,0,0,1-2.48,1.246,10.62,10.62,0,0,1-2.693.713,23.479,23.479,0,0,1-2.776.18A37.48,37.48,0,0,1,65,37.328c-.918-.133-1.833-.3-2.741-.523a9.9,9.9,0,0,1-2.678-1.011,2.561,2.561,0,0,1-.618-.531,1.115,1.115,0,0,1-.191-1.035l.071-.157.018-.039,0-.01c-.005.008.058-.1.036-.062l.019-.023.08-.093a1.141,1.141,0,0,1,.343-.3,2.874,2.874,0,0,1,.715-.338,11.874,11.874,0,0,1,2.814-.478,54.067,54.067,0,0,1,5.562-.043c3.694.139,7.364.445,11.037.848l-.357.872c-.781-.586-1.617-1.142-2.447-1.682s-1.688-1.046-2.562-1.512a22.343,22.343,0,0,0-5.45-2.18,17.222,17.222,0,0,1-3-.743,5.132,5.132,0,0,1-2.583-1.95,3.063,3.063,0,0,1-.465-1.662,6.14,6.14,0,0,1,.136-.848c.1-.258.189-.528.311-.774a8.218,8.218,0,0,1,2.064-2.39A16.2,16.2,0,0,1,67.7,18.945a4.115,4.115,0,0,1,3.174-.24A7.11,7.11,0,0,1,73.5,20.394a15.886,15.886,0,0,1,1.966,2.347,34.492,34.492,0,0,1,2.9,5.317A49.744,49.744,0,0,1,80.5,33.7Z"/><path class="cls-3" d="M79.654,35.19l.013.288a6.2,6.2,0,0,1-.009.818,10.469,10.469,0,0,1-.647,2.86,26.246,26.246,0,0,1-1.8,3.72c-.734,1.3-1.548,2.676-2.388,4.039-.857,1.351-1.742,2.69-2.646,3.894s-1.82,2.275-2.625,3.169a28.49,28.49,0,0,1-2.078,2.034c-.533.457-.847.7-.847.7s.257-.306.708-.84,1.063-1.317,1.785-2.26,1.507-2.087,2.338-3.316,1.684-2.565,2.517-3.916l2.482-3.96A33.24,33.24,0,0,0,78.5,38.938a12.615,12.615,0,0,0,.971-2.671A10.254,10.254,0,0,0,79.654,35.19Z"/><path class="cls-3" d="M79.769,33.228l-.039.312a5.881,5.881,0,0,1-.185.874,8.261,8.261,0,0,1-1.508,2.833,11.329,11.329,0,0,1-1.516,1.547,13.7,13.7,0,0,1-1.966,1.4,40.632,40.632,0,0,1-4.645,2.249c-1.6.68-3.2,1.363-4.718,1.97s-2.943,1.144-4.159,1.62-2.255.816-2.97,1.081l-1.138.384,1.061-.563c.683-.339,1.643-.861,2.824-1.418s2.546-1.239,4.033-1.913,3.077-1.38,4.672-2.079c1.605-.682,3.2-1.34,4.606-2.095a18.484,18.484,0,0,0,1.951-1.2,10.715,10.715,0,0,0,1.543-1.345,9.085,9.085,0,0,0,1.748-2.53A7.5,7.5,0,0,0,79.769,33.228Z"/></svg>