<svg id="word" xmlns="http://www.w3.org/2000/svg" viewBox="0 0 160 160"><defs><style>.cls-1,.cls-2{fill:#fad7c6;}.cls-1,.cls-2,.cls-3,.cls-5,.cls-7,.cls-8{stroke:#9c4c9c;stroke-miterlimit:10;}.cls-2,.cls-3,.cls-5,.cls-7,.cls-8{stroke-width:0.75px;}.cls-3{fill:#fcf5ad;}.cls-4{fill:#9c4c9c;}.cls-5{fill:#fff;}.cls-6{fill:#f69227;}.cls-7{fill:none;}.cls-8{fill:#ee4036;}</style></defs><path class="cls-1" d="M93.218,92.05s.439,14.4-3.8,17.962c-17.876,15.038-13.908-.568-13.576-6.338.076-1.318,0-7.661,0-7.661Z"/><path class="cls-2" d="M52.948,62.461s2.369,6.34,1.316,9.775-3.025,14.98,3.555,19.207,13.29,7.74,16.975,7.476,15-1.585,21.319-5.284,8.159-6.076,10.528-10.039,4.211-11.1,4.475-15.059,6.316-8.982,0-14-7.107-7.926-23.689-8.19-24.214-2.113-27.9,1.849S50.333,49.333,52.948,62.461Z"/><path class="cls-2" d="M111.642,62.461s7.37-1.057,8.949,2.113,1.316,8.19-1.843,10.039-4.211,6.605-7.106,7.4a12.327,12.327,0,0,1-5.791,0"/><path class="cls-3" d="M51.105,45.685s0,8.85,5.528,11.756A32.352,32.352,0,0,0,67.06,60.876l-4.637-5.284a24.407,24.407,0,0,0,5.791,2.642A21.71,21.71,0,0,0,74,59.29v-3.7s-3.948-1.321,1.842.792,6.58,1.586,10,2.114,1.843-.793,1.843-.793L85.585,53.28A21.52,21.52,0,0,0,94.8,57.97c5.264,1.056,5.527,4.227,7.37,7.4s3.684,6.96,3.684,6.96l3.685-8.809,8.16-1.226a28.08,28.08,0,0,0,3.839-8.814c.9-4.491-1.471-12.152-5.419-13.473s-6.58-7.926-6.58-7.926-1.053-5.02-7.633-7.133-3.158-4.227-13.949-3.7-10-3.863-15-.082-7.633,2.988-9.738,4.309-4.475,6.605-4.475,6.605-1.316-6.341-.789-8.19-.79,1.585-1.053,4.755-.263,4.756-.263,4.756L55.58,31.959l-1.843-2.522,1.316,5.02s-5.527-3.7-9.212.528S41.63,45.024,44.525,49.251,49,57.177,49,60.611s-.263,6.869-.263,6.869,2.589-6.725,3.39-8.19S51.105,45.685,51.105,45.685Z"/><path class="cls-4" d="M75.609,78.528s-.149-.07-.4-.207a7.913,7.913,0,0,0-1.037-.462c-.212-.089-.453-.155-.7-.232s-.523-.118-.793-.19a9.249,9.249,0,0,0-3.494.021c-.269.075-.545.113-.79.2s-.488.149-.7.24a8.122,8.122,0,0,0-1.032.475l-.4.209s.091-.133.27-.363a2.526,2.526,0,0,1,.356-.384,3.24,3.24,0,0,1,.526-.439,5.56,5.56,0,0,1,1.539-.788,6.065,6.065,0,0,1,.956-.23,5.777,5.777,0,0,1,2.026-.011,6.193,6.193,0,0,1,.958.22,5.566,5.566,0,0,1,1.548.77,3.288,3.288,0,0,1,.535.436,2.469,2.469,0,0,1,.358.378C75.513,78.393,75.609,78.528,75.609,78.528Z"/><path class="cls-4" d="M87.605,79.336l-.159.245a6.625,6.625,0,0,1-.489.67,10.388,10.388,0,0,1-2.214,1.989,15.848,15.848,0,0,1-3.8,1.854,24.66,24.66,0,0,1-4.708,1.06c-.816.095-1.632.167-2.432.207s-1.565.075-2.362.069a9.569,9.569,0,0,1-2.24-.384c-.681-.187-1.308-.392-1.887-.575a21.09,21.09,0,0,0-2.8-.815,6.292,6.292,0,0,0-1.1-.139l.29-.027a5.313,5.313,0,0,1,.829-.006,19.676,19.676,0,0,1,2.914.491,16.014,16.014,0,0,0,3.979.637l2.3-.193c.788-.07,1.584-.14,2.372-.249a33.11,33.11,0,0,0,4.574-.917A17.659,17.659,0,0,0,84.45,81.76a12.55,12.55,0,0,0,2.367-1.643C87.332,79.646,87.605,79.336,87.605,79.336Z"/><path class="cls-4" d="M84.409,85.331s-.148.2-.429.538a8.412,8.412,0,0,1-1.426,1.169,12.33,12.33,0,0,1-2.324,1.171,14.525,14.525,0,0,1-1.4.448,14.784,14.784,0,0,1-1.486.318c-.5.095-1.015.108-1.514.161a12.475,12.475,0,0,1-1.478-.026,8.084,8.084,0,0,1-1.37-.186,7.153,7.153,0,0,1-1.2-.32,5.456,5.456,0,0,1-.96-.405,4.116,4.116,0,0,1-.7-.39c-.37-.242-.568-.39-.568-.39s.245.072.652.215a3.973,3.973,0,0,0,.742.216c.293.06.61.156.973.2a10.983,10.983,0,0,0,1.158.138,12.36,12.36,0,0,0,1.3.045c.448.027.914-.055,1.384-.058.469-.061.95-.085,1.422-.184a21.543,21.543,0,0,0,2.762-.611c.426-.148.855-.254,1.24-.409.394-.138.756-.288,1.092-.432s.627-.3.9-.422l.663-.385Z"/><path class="cls-5" d="M84.461,62.523s-3.826-.936-4.646,1.4-2.732,6.081,2.323,8.185S89.641,65.814,84.461,62.523Z"/><ellipse class="cls-4" cx="81.221" cy="67.77" rx="2.612" ry="3.051"/><path class="cls-5" d="M60.546,65.7S56.72,64.76,55.9,67.1s-2.733,6.081,2.323,8.185S65.725,68.987,60.546,65.7Z"/><path class="cls-6" d="M74.78,103.149s-8.8-1.135-11.35,0-18.982,16.794-18.982,16.794,1.106,4.771,2.808,6.473,2.554,2.837,4.257,3.689a21.109,21.109,0,0,0,8.8,2.27c4.54.283,9.364-3.122,17.592,0s22.984,4.823,22.984,4.823l3.688-2.27,2.906-1.5s3.621-1.616,5.607-1.048S123.3,119.921,123.3,119.921s.567-8.544-9.364-12.8a89.706,89.706,0,0,0-20.713-5.675L75.631,115.634Z"/><path class="cls-7" d="M123.3,119.921s.567-8.544-9.364-12.8a89.706,89.706,0,0,0-20.713-5.675L75.631,115.634l-.851-12.485s-8.8-1.135-11.35,0-18.982,16.794-18.982,16.794"/><path class="cls-8" d="M65.864,101.032a9.408,9.408,0,0,0-1.015,7.224c1.135,3.973,1.317,11.066,1.317,11.066L76.416,115l-.54-15.487Z"/><path class="cls-8" d="M93.167,97.5s-1.031,2.145-1.93,4.23c-1.673,3.884-14.9,13.437-14.9,13.437s8.807-1.8,10.153,1.318,2.765,7.094,2.765,7.094.568-.568,5.391-5.959,7.632-14.352,7.632-14.352S101.679,96.933,93.167,97.5Z"/><ellipse class="cls-4" cx="57.167" cy="70.667" rx="2.612" ry="3.051"/></svg>