<svg id="word" xmlns="http://www.w3.org/2000/svg" viewBox="0 0 160 160"><defs><style>.cls-1{fill:#a9cf3e;}.cls-1,.cls-2,.cls-3{stroke:#9c4c9c;stroke-miterlimit:10;}.cls-2{fill:#d7ab6a;}.cls-3{fill:#8cae32;}</style></defs><path class="cls-1" d="M72,107.951s9.912-7.558,10.856-9.981S83.6,91,81.706,85.4s-4.6-9.124-3.663-13.676,5.168-13.342,5.881-19.178-.512-10.05-.135-12.034,1.678-11.072,1.678-11.072-1.061,9.867.7,12.262,3.652,5.239,1,10.967S81.984,63.918,81.833,68.5c-.24,7.3,9.618,20.41,9.895,25.031.578,9.632-7.015,10.324-8.475,13.87s-5.716,1.851-5.716,1.851L63.559,118.8S68.849,109.14,72,107.951Z"/><path class="cls-2" d="M46.845,119.922s-1.927-10.21,7.7-9.439c4.224.338,10.787-4.623,13.1-6.164s7.7-.771,10.788.77a47.212,47.212,0,0,1,6.164,3.853s6.55-3.853,9.246.77,5.394,8.476,5.394,8.476,6.55-3.082,8.861-.77a36.751,36.751,0,0,1,4.431,5.779"/><path class="cls-2" d="M79.943,121.063c2.254-2.323-1.075-5.963-3.67-4.028-1.8,1.338-3.384,3.2-1.269,4.691A3.759,3.759,0,0,0,79.943,121.063Z"/><path class="cls-2" d="M62.677,117.772s-2.772-3.063-5.653-2.451-14.835,1.7-13.747,5.064,14.842,1.267,16.049.447A31.007,31.007,0,0,0,62.677,117.772Z"/><path class="cls-3" d="M86.618,51.366a17.593,17.593,0,0,0,.01-3.3,16.089,16.089,0,0,1,13.5-16.292c-.317.052-1.942,5.345-2.225,5.968a46.565,46.565,0,0,1-3.223,5.911C92.472,47.087,89.5,51.362,86,53.562,85.973,52.833,86.488,52.159,86.618,51.366Z"/><path class="cls-3" d="M74.641,69.221a11.992,11.992,0,0,1,.2-7.49c-.029.082,2.6,3.488,2.829,3.968a14.848,14.848,0,0,1,1.382,5.187c.095,1.186.34,3.576-1.554,3.142C76.087,73.706,75,70.42,74.641,69.221Z"/></svg>