<svg id="word" xmlns="http://www.w3.org/2000/svg" viewBox="0 0 160 160"><defs><style>.cls-1,.cls-7{fill:#577769;}.cls-1,.cls-2,.cls-3,.cls-4,.cls-8{stroke:#9c4c9c;stroke-width:0.961px;}.cls-1,.cls-4{stroke-miterlimit:10;}.cls-2{fill:#c6b833;}.cls-3{fill:#c5b955;}.cls-4,.cls-5{fill:#a77c4f;}.cls-6{fill:#fff;}.cls-7{fill-rule:evenodd;}.cls-8{fill:#bbae31;}.cls-9{fill:#9c4c9c;}.cls-10{fill:#9c4a9b;}</style></defs><path class="cls-1" d="M123.366,64.207c3.657,9.376,1.39,20.052,5.455,29.314-.756.635-1.587,1.317-2.48,2.035-3.812-3.476-6.085-11.558-6.989-16.1-.914-4.59-1.095-9.435-2.245-13.925-.936-3.653-4.055-7.441-7.194-9.925.091-.059.183-.119.268-.172a15.621,15.621,0,0,1,4.877-2.009C118.382,56.157,122.019,60.756,123.366,64.207Z"/><path class="cls-2" d="M136.834,73.186c-.2,6.753-.422,12.623-5.025,17.594-.636-4.384-.808-9.412-1.83-13.685A57.339,57.339,0,0,0,125.81,65.2a44.353,44.353,0,0,0-9.573-11.984,19.107,19.107,0,0,1,9.658,1.3C132.571,57.089,137.05,65.823,136.834,73.186Z"/><path class="cls-3" d="M117.107,65.533c1.15,4.49,1.331,9.335,2.245,13.925.9,4.54,3.177,12.622,6.989,16.1-6.98,5.609-16.06,12.757-20.663,14.414-3.983,1.433-9.487.557-9.487.557s-6.118-13.57-11.343-17.4-15.1-12.642-15.1-12.642,7.075-11.406,8.718-14.351S84.825,50.049,90.077,48.2s8.732-.591,8.449,4.387-2.615,14.16-2.615,14.16,9.986-8.535,14-11.137C113.052,58.092,116.171,61.88,117.107,65.533Z"/><path class="cls-4" d="M129.979,77.1c1.022,4.273,1.194,9.3,1.83,13.685a18.855,18.855,0,0,1-1.347,1.33c-.488.433-1.042.908-1.641,1.411-4.065-9.262-1.8-19.938-5.455-29.314-1.347-3.451-4.984-8.05-8.308-10.78.383-.085.778-.153,1.179-.211A44.353,44.353,0,0,1,125.81,65.2,57.339,57.339,0,0,1,129.979,77.1Z"/><path class="cls-5" d="M74.588,72.592l.658,4.9,5.611-4.782-1.65,9.24,7.2-4.137-2.6,7.864,6.666-2.666-2.734,6.666,6.7-1.232-2.211,7.569,6.515-3.133-2.874,8.054,4.979-2.1-3.231,6.986,6.33.17-3.963,4.5,2.632-.169,5.193-5.043-7.923-.815,3.208-7.3-5.036,1.156,2.181-8.125-5.8,3.066L96.3,86.084l-6.557,1.683,3.311-8.427L86.1,82.83,87.687,74.4s-6.418,3.857-6.143,3.667S82,69.935,82,69.935l-6.25,3.789.367-3.24Z"/><polygon class="cls-6" points="95.408 84.487 91.465 85.823 93.612 81.664 98.086 80.2 95.408 84.487"/><polygon class="cls-6" points="91.451 78.467 88.463 80.266 89.513 76.005 93.209 74.505 91.451 78.467"/><polygon class="cls-6" points="86.459 72.886 83.382 75.362 83.662 70.748 87.521 67.884 86.459 72.886"/><path class="cls-7" d="M98.207,110.035l3.142-2.743-5.878-.96,2.091-5.045-3.671,1.225,1.865-5.893-4.967,1.134L92.3,91.1l-5.734,1.326L87.6,86.368l-5.223,1.885,2.018-7.54-6.373,4.112.566-8.007-3.886,4.6-1.269-6.382-1.792,2.312.594,2.547s7.3,8.453,7.778,9.112l9.7,13.556,6.173,8.267Z"/><path class="cls-8" d="M63.152,97.943S56.577,97.006,57,92.9s2-8.384,4.67-9.54a12.835,12.835,0,0,0,5.183-4.235c.866-1.179,3.823-2.38,5.261-.806s3.773,5.105,7.818,8.075,10.64,9.885,12.311,13.965S97.3,110.61,97.3,110.61s-3.231,4.58-7.223,6.837-9.277,4.864-12.489,1.467S69.333,101.184,63.152,97.943Z"/><path class="cls-9" d="M71.465,107.189a9.131,9.131,0,0,0,5.264-.687,15.119,15.119,0,0,0,4.459-3.185,54.555,54.555,0,0,0,6.718-8.952,54.689,54.689,0,0,1-6.373,9.286,15.717,15.717,0,0,1-4.5,3.505,9.99,9.99,0,0,1-5.7.985Z"/><path class="cls-9" d="M76.123,115.6a7.075,7.075,0,0,0,5.138.131,17.028,17.028,0,0,0,4.778-2.6,105.156,105.156,0,0,0,8.242-7.443,105.194,105.194,0,0,1-7.948,7.823,17.615,17.615,0,0,1-4.84,2.9,7.934,7.934,0,0,1-5.742.072Z"/><path class="cls-9" d="M60.959,97.441a28,28,0,0,1,1.81-5.208,30.326,30.326,0,0,1,2.687-4.775A19.381,19.381,0,0,1,69.114,83.4a8.585,8.585,0,0,1,4.949-2.087,8.468,8.468,0,0,0-4.794,2.27,19.069,19.069,0,0,0-3.412,4.139,29.709,29.709,0,0,0-2.426,4.8,27.2,27.2,0,0,0-1.53,5.112Z"/><path class="cls-9" d="M74.325,112.4a7.08,7.08,0,0,0,5.138.132,17.042,17.042,0,0,0,4.778-2.6,105.156,105.156,0,0,0,8.242-7.443,105.569,105.569,0,0,1-7.948,7.823,17.6,17.6,0,0,1-4.84,2.9,7.924,7.924,0,0,1-5.742.072Z"/><path class="cls-9" d="M72.952,110.337a9.147,9.147,0,0,0,5.264-.687,15.143,15.143,0,0,0,4.459-3.185,54.507,54.507,0,0,0,6.718-8.953,54.683,54.683,0,0,1-6.372,9.286,15.742,15.742,0,0,1-4.5,3.506,9.987,9.987,0,0,1-5.7.984Z"/><path class="cls-9" d="M77.746,118.421a2.753,2.753,0,0,0,1.558.519,6.621,6.621,0,0,0,1.844-.122,16.987,16.987,0,0,0,3.626-1.277,24.249,24.249,0,0,0,6.437-4.376,24.474,24.474,0,0,1-6.221,4.8,17.618,17.618,0,0,1-3.681,1.551,7.4,7.4,0,0,1-2.051.258,3.578,3.578,0,0,1-2.131-.623Z"/><path class="cls-9" d="M69.434,104.75a4.745,4.745,0,0,0,2.858-1.481c.87-.8,1.734-1.639,2.581-2.478q2.544-2.529,4.929-5.221-2.2,2.844-4.579,5.55c-.8.9-1.594,1.788-2.432,2.668a5.524,5.524,0,0,1-3.3,1.92Z"/><path class="cls-9" d="M67.8,103.06A59.757,59.757,0,0,1,80.417,88.208a59.314,59.314,0,0,0-11.781,15.326Z"/><path class="cls-9" d="M65.788,99.98a37.679,37.679,0,0,1,4.627-7.592,36.62,36.62,0,0,1,2.937-3.319,18.355,18.355,0,0,1,1.631-1.5c.634-.492,1.476-.232,2.1-.652-.608.453-1.477.253-2.03.75a18.439,18.439,0,0,0-1.526,1.571,36,36,0,0,0-2.726,3.44,37,37,0,0,0-4.129,7.681Z"/><path class="cls-9" d="M63.68,98.083c2.293-4.968,5.674-9.221,9.006-13.421-3.079,4.39-6.189,8.842-8.122,13.8Z"/><path class="cls-9" d="M59.073,97.125a8.446,8.446,0,0,1,.181-5.608,24.205,24.205,0,0,1,2.584-4.844,23.98,23.98,0,0,0-2.125,4.984,7.746,7.746,0,0,0,.25,5.108Z"/><polygon class="cls-6" points="106.176 109.57 108.276 105.987 112.733 105.157 106.176 109.57"/><path class="cls-6" d="M77.041,69.436l3.639-2.631.122-4.833a27.8,27.8,0,0,1-1.729,4.109C78.264,67.433,77.041,69.436,77.041,69.436Z"/><polygon class="cls-6" points="105.071 102.278 101.127 103.614 103.275 99.455 107.748 97.992 105.071 102.278"/><polygon class="cls-6" points="103.429 95.109 99.485 96.445 101.633 92.286 106.107 90.823 103.429 95.109"/><polygon class="cls-6" points="99.992 89.628 96.048 90.964 98.196 86.805 102.67 85.341 99.992 89.628"/><polygon class="cls-6" points="102.599 82.93 98.656 84.266 100.803 80.107 105.277 78.644 102.599 82.93"/><polygon class="cls-6" points="106.508 89.178 102.564 90.515 104.712 86.356 109.186 84.892 106.508 89.178"/><polygon class="cls-6" points="109.04 82.873 105.096 84.209 107.244 80.05 111.718 78.586 109.04 82.873"/><path class="cls-10" d="M128.119,66.094,127,65.879s.4-1.625.834-1.426-.254,1.024-.254,1.024,1.258-.119.994.384S128.119,66.094,128.119,66.094Z"/><path class="cls-10" d="M131.642,66.319l-1.119-.216s.4-1.625.834-1.426S131.1,65.7,131.1,65.7s1.258-.119.994.384S131.642,66.319,131.642,66.319Z"/><path class="cls-10" d="M128.629,62.214,127.511,62s.4-1.625.834-1.426-.254,1.023-.254,1.023,1.257-.118.994.385S128.629,62.214,128.629,62.214Z"/><path class="cls-10" d="M121.74,56.8l-1.119-.216s.4-1.625.834-1.426-.253,1.024-.253,1.024,1.257-.119.994.384S121.74,56.8,121.74,56.8Z"/><path class="cls-10" d="M125.263,57.024l-1.119-.216s.4-1.625.834-1.426-.253,1.024-.253,1.024,1.257-.119.994.384S125.263,57.024,125.263,57.024Z"/><path class="cls-10" d="M119.879,54.929l-1.119-.215s.659-1.309,1.091-1.11-.511.707-.511.707,1.258-.118.994.385S119.879,54.929,119.879,54.929Z"/><path class="cls-10" d="M128.416,58.185l-1.119-.216s.4-1.625.834-1.425-.253,1.023-.253,1.023,1.257-.118.994.384S128.416,58.185,128.416,58.185Z"/><path class="cls-10" d="M134.931,76.848l-1.119-.215s.4-1.626.834-1.426-.253,1.023-.253,1.023,1.257-.118.994.385S134.931,76.848,134.931,76.848Z"/><path class="cls-10" d="M131.691,75.591l-1.119-.215s.4-1.625.834-1.426-.253,1.023-.253,1.023,1.257-.118.994.385S131.691,75.591,131.691,75.591Z"/><path class="cls-10" d="M135.467,72.558l-1.118-.215s.4-1.625.834-1.426-.254,1.023-.254,1.023,1.257-.118.994.385S135.467,72.558,135.467,72.558Z"/><path class="cls-10" d="M134.5,67.842l-1.119-.215s.4-1.626.834-1.426-.254,1.023-.254,1.023,1.258-.118.994.385S134.5,67.842,134.5,67.842Z"/><path class="cls-10" d="M133.616,84.593l-.931-.112s.4-1.625.834-1.426-.254,1.024-.254,1.024,1.218-.455.955.048S133.616,84.593,133.616,84.593Z"/><path class="cls-10" d="M134.111,80.528l-1.119-.215s.4-1.626.834-1.426-.254,1.023-.254,1.023,1.258-.118.994.385S134.111,80.528,134.111,80.528Z"/><path class="cls-10" d="M130.79,70.8l-1.118-.215s.4-1.625.834-1.426-.254,1.024-.254,1.024,1.257-.119.994.384S130.79,70.8,130.79,70.8Z"/><path class="cls-10" d="M132.109,62.388l-1.119-.215s.4-1.626.834-1.426-.253,1.023-.253,1.023,1.257-.118.994.385S132.109,62.388,132.109,62.388Z"/><path class="cls-10" d="M125.347,60.414l-1.119-.216s.4-1.625.834-1.425-.253,1.023-.253,1.023,1.257-.118.994.385S125.347,60.414,125.347,60.414Z"/><path class="cls-10" d="M85.954,89.838l-1.127.171s-.164-1.666.31-1.623.1,1.05.1,1.05,1.145-.532,1.065.03S85.954,89.838,85.954,89.838Z"/><path class="cls-10" d="M96.221,103.588l-1.126.171s-.164-1.666.309-1.623.1,1.05.1,1.05,1.146-.532,1.065.03S96.221,103.588,96.221,103.588Z"/><path class="cls-10" d="M77.726,82l-1.126.171s-.164-1.666.309-1.623.1,1.05.1,1.05,1.146-.532,1.065.03S77.726,82,77.726,82Z"/><path class="cls-10" d="M94.048,99.606l-1.126.171s-.164-1.667.31-1.623.1,1.049.1,1.049,1.145-.531,1.065.031S94.048,99.606,94.048,99.606Z"/><path class="cls-10" d="M90.492,94.235l-1.126.171s-.164-1.666.309-1.622.1,1.049.1,1.049,1.146-.532,1.066.03S90.492,94.235,90.492,94.235Z"/><path class="cls-10" d="M81.891,86.263l-1.127.171s-.164-1.667.31-1.623.1,1.05.1,1.05,1.145-.532,1.065.03S81.891,86.263,81.891,86.263Z"/><path class="cls-10" d="M98.029,108.773l-1.119-.215s.4-1.626.834-1.426-.253,1.023-.253,1.023,1.257-.118.994.385S98.029,108.773,98.029,108.773Z"/><path class="cls-10" d="M73.314,78.2,72.2,77.986s.4-1.625.834-1.426-.254,1.024-.254,1.024,1.258-.119.994.384S73.314,78.2,73.314,78.2Z"/><path class="cls-1" d="M56.713,43.959c-10.033.793-18.655,7.485-28.763,7.861-.242.958-.494,2-.751,3.118,4.79,1.917,13.054.443,17.535-.721,4.529-1.178,8.969-3.126,13.512-4.047,3.7-.749,8.464.408,12.067,2.151.014-.108.028-.216.038-.315a15.658,15.658,0,0,0-.316-5.266C66.13,44.937,60.405,43.667,56.713,43.959Z"/><path class="cls-2" d="M42.763,35.748c-5.992,3.122-11.178,5.879-13.648,12.189,4.224-1.338,8.824-3.374,13.115-4.316a57.42,57.42,0,0,1,12.524-1.43,44.342,44.342,0,0,1,14.957,3.4,19.1,19.1,0,0,0-5.382-8.125C59.109,32.572,49.3,32.346,42.763,35.748Z"/><path class="cls-3" d="M58.246,50.17c-4.543.921-8.983,2.869-13.512,4.047-4.481,1.164-12.745,2.638-17.535.721-2.008,8.728-4.486,20.014-3.971,24.88.444,4.209,3.631,8.781,3.631,8.781s14.88-.4,20.608,2.627S65.425,99.31,65.425,99.31s7.184-11.337,9.119-14.1,11.7-12.73,11.081-18.263S82.353,58.83,78,61.254s-11.606,8.523-11.606,8.523,3.332-12.707,3.924-17.456C66.71,50.578,61.942,49.421,58.246,50.17Z"/><path class="cls-4" d="M42.23,43.621c-4.291.942-8.891,2.978-13.115,4.316a18.788,18.788,0,0,0-.61,1.791c-.176.628-.363,1.334-.555,2.092,10.108-.376,18.73-7.068,28.763-7.861,3.692-.292,9.417.978,13.322,2.781-.09-.382-.2-.767-.324-1.152a44.342,44.342,0,0,0-14.957-3.4A57.42,57.42,0,0,0,42.23,43.621Z"/><path class="cls-5" d="M70.416,91.518l-4.7,1.542,1.86-7.135-7.6,5.511.585-8.286-5.946,5.766-.505-7.162-4.809,5.365L47.5,80.551l-5.85,5.288-.018-7.23-6,6.1-.28-5.4-4.88,5.951L27.56,79.637l-2.327,5.531-1-2.443,2.276-6.871L30.7,82.63l5.174-6.069L37.028,81.6l6.363-5.5-.233,6.558,5.653-4.8,1.342,6.635L56.3,77.832l-.109,7.784,6.9-5.1s-.676,7.458-.624,7.127,7.119-3.954,7.119-3.954l-.688,7.276,2.757-1.743Z"/><polygon class="cls-6" points="50.639 77.959 51.154 82.091 53.962 78.346 53.33 73.681 50.639 77.959"/><polygon class="cls-6" points="57.782 78.898 57.464 82.371 60.841 79.57 60.582 75.59 57.782 78.898"/><polygon class="cls-6" points="64.98 80.96 64.091 84.808 68.122 82.546 69.02 77.825 64.98 80.96"/><path class="cls-7" d="M26.423,86.571l1.1-4.024,3.426,4.873,3.63-4.08.5,3.837,4.492-4.245L40.71,87.9l5.332-4.263,1.3,5.739,5-3.569.579,5.521,5.907-5.1-.925,7.527,6.961-4-2.447,5.5,6.3-1.638-1.3,2.62-2.552.575s-10.791-2.892-11.59-3.03-16.427-2.824-16.427-2.824L26.719,89Z"/><path class="cls-8" d="M52.58,112.855s3.708,5.511,7.217,3.346,6.674-5.457,6.553-8.36a12.843,12.843,0,0,1,1.554-6.51c.684-1.293.477-4.478-1.567-5.086S60.1,95.073,55.663,92.726s-13.533-5.271-17.934-5S26.3,87.642,26.3,87.642s-2.715,4.9-3.007,9.479-.336,10.47,4.12,11.881S46.97,108.7,52.58,112.855Z"/><path class="cls-9" d="M39.838,109.937a9.99,9.99,0,0,1-1.6-5.561A15.747,15.747,0,0,1,39.434,98.8a54.641,54.641,0,0,1,5.583-9.781,54.409,54.409,0,0,0-5.132,9.947,15.138,15.138,0,0,0-.924,5.4,9.133,9.133,0,0,0,1.675,5.038Z"/><path class="cls-9" d="M30.4,109.594a7.927,7.927,0,0,1-2.437-5.2,17.641,17.641,0,0,1,.5-5.622A105.185,105.185,0,0,1,32.046,88.21a105.15,105.15,0,0,0-3.109,10.662,17.06,17.06,0,0,0-.26,5.435,7.089,7.089,0,0,0,2.357,4.567Z"/><path class="cls-9" d="M53.408,113.845a27.17,27.17,0,0,0,3.934-3.605,29.693,29.693,0,0,0,3.26-4.272,19.1,19.1,0,0,0,2.238-4.874,8.464,8.464,0,0,0-.045-5.3,8.584,8.584,0,0,1,.278,5.364,19.443,19.443,0,0,1-2.059,5.061,30.338,30.338,0,0,1-3.128,4.5,27.946,27.946,0,0,1-3.9,3.9Z"/><path class="cls-9" d="M34.065,109.818a7.932,7.932,0,0,1-2.437-5.2A17.607,17.607,0,0,1,32.133,99c.846-3.655,2.367-7.058,3.578-10.563-1.06,3.555-2.433,7.032-3.108,10.662a17.054,17.054,0,0,0-.26,5.434A7.084,7.084,0,0,0,34.7,109.1Z"/><path class="cls-9" d="M36.357,109.969a9.986,9.986,0,0,1-1.6-5.56,15.737,15.737,0,0,1,1.194-5.579,54.65,54.65,0,0,1,5.583-9.782A54.385,54.385,0,0,0,36.4,99a15.136,15.136,0,0,0-.924,5.4,9.128,9.128,0,0,0,1.675,5.038Z"/><path class="cls-9" d="M27.4,109.518a3.586,3.586,0,0,1-1.489-1.646,7.375,7.375,0,0,1-.66-1.959,17.578,17.578,0,0,1-.209-3.989,24.5,24.5,0,0,1,1.615-7.693,24.281,24.281,0,0,0-1.135,7.7,17.075,17.075,0,0,0,.431,3.82,6.593,6.593,0,0,0,.694,1.713,2.755,2.755,0,0,0,1.146,1.177Z"/><path class="cls-9" d="M42.827,110.531a5.533,5.533,0,0,1,.292-3.805c.427-1.138.878-2.241,1.343-3.351q1.4-3.319,3-6.539-1.385,3.317-2.552,6.71c-.386,1.128-.765,2.271-1.1,3.4a4.739,4.739,0,0,0-.088,3.218Z"/><path class="cls-9" d="M45.158,110.355a59.267,59.267,0,0,0,8.663-17.281A59.777,59.777,0,0,1,45.949,110.9Z"/><path class="cls-9" d="M48.875,110.738a37.019,37.019,0,0,0,5.115-7.063A35.937,35.937,0,0,0,55.9,99.723a18.345,18.345,0,0,0,.749-2.058c.207-.714-.352-1.41-.209-2.155-.106.745.495,1.39.327,2.175a18.338,18.338,0,0,1-.642,2.124,36.65,36.65,0,0,1-1.708,4.089,37.771,37.771,0,0,1-4.818,7.473Z"/><path class="cls-9" d="M51.5,111.81c3.618-3.9,6.271-8.638,8.881-13.322-2.329,4.829-4.684,9.724-8.157,13.954Z"/><path class="cls-9" d="M55.03,115.212a7.735,7.735,0,0,0,4.706-2,23.968,23.968,0,0,0,3.561-4.084,24.177,24.177,0,0,1-3.235,4.437,8.444,8.444,0,0,1-4.969,2.606Z"/><polygon class="cls-6" points="23.37 79.195 25.68 75.744 24.486 71.37 23.37 79.195"/><path class="cls-6" d="M72.188,87.934l.783-4.421,4.3-2.216a27.925,27.925,0,0,0-2.947,3.346C73.458,85.961,72.188,87.934,72.188,87.934Z"/><polygon class="cls-6" points="30.415 77.013 30.931 81.145 33.738 77.4 33.107 72.735 30.415 77.013"/><polygon class="cls-6" points="37.583 75.367 38.099 79.499 40.906 75.754 40.275 71.09 37.583 75.367"/><polygon class="cls-6" points="44.015 76.073 44.53 80.205 47.338 76.46 46.706 71.795 44.015 76.073"/><polygon class="cls-6" points="48.907 70.808 49.423 74.94 52.23 71.195 51.599 66.53 48.907 70.808"/><polygon class="cls-6" points="41.58 70.012 42.096 74.144 44.903 70.399 44.272 65.735 41.58 70.012"/><polygon class="cls-6" points="46.153 64.986 46.668 69.118 49.476 65.373 48.844 60.708 46.153 64.986"/><path class="cls-10" d="M52.943,40.5l.681.913s1.288-1.07.92-1.372-.811.675-.811.675-.441-1.184-.779-.728S52.943,40.5,52.943,40.5Z"/><path class="cls-10" d="M51.206,37.43l.681.913s1.288-1.07.921-1.372-.811.674-.811.674-.441-1.183-.779-.727S51.206,37.43,51.206,37.43Z"/><path class="cls-10" d="M56.213,38.353l.681.913s1.288-1.07.92-1.372-.81.675-.81.675-.442-1.184-.779-.728S56.213,38.353,56.213,38.353Z"/><path class="cls-10" d="M64.088,42.2l.681.913s1.288-1.07.921-1.372-.811.675-.811.675-.441-1.184-.779-.728S64.088,42.2,64.088,42.2Z"/><path class="cls-10" d="M62.352,39.122l.681.913s1.288-1.07.92-1.372-.811.674-.811.674-.441-1.183-.779-.727S62.352,39.122,62.352,39.122Z"/><path class="cls-10" d="M66.583,43.055l.681.914s.891-1.164.523-1.465-.414.767-.414.767-.441-1.184-.779-.727S66.583,43.055,66.583,43.055Z"/><path class="cls-10" d="M59.933,36.79l.681.913s1.288-1.071.92-1.372-.811.674-.811.674-.441-1.183-.779-.727S59.933,36.79,59.933,36.79Z"/><path class="cls-10" d="M40.3,39.056l.682.914s1.287-1.071.92-1.372-.811.674-.811.674-.441-1.184-.779-.727S40.3,39.056,40.3,39.056Z"/><path class="cls-10" d="M42.838,41.425l.682.913s1.287-1.07.92-1.372-.811.675-.811.675-.441-1.184-.779-.728S42.838,41.425,42.838,41.425Z"/><path class="cls-10" d="M43.923,36.705l.681.913s1.288-1.07.921-1.372-.811.674-.811.674-.441-1.183-.779-.727S43.923,36.705,43.923,36.705Z"/><path class="cls-10" d="M48.589,35.518l.681.913s1.287-1.07.92-1.372-.811.675-.811.675-.441-1.184-.779-.727S48.589,35.518,48.589,35.518Z"/><path class="cls-10" d="M33.9,43.615l.5.789s1.288-1.071.92-1.372-.81.674-.81.674-.122-1.294-.459-.838S33.9,43.615,33.9,43.615Z"/><path class="cls-10" d="M37.34,41.4l.682.913s1.287-1.07.92-1.372-.811.675-.811.675-.441-1.184-.779-.727S37.34,41.4,37.34,41.4Z"/><path class="cls-10" d="M47.541,40.149l.682.914s1.287-1.071.92-1.372-.811.674-.811.674-.441-1.184-.779-.727S47.541,40.149,47.541,40.149Z"/><path class="cls-10" d="M54.54,35.3l.682.914s1.287-1.071.92-1.372-.811.674-.811.674-.441-1.184-.779-.727S54.54,35.3,54.54,35.3Z"/><path class="cls-10" d="M59.263,40.523l.682.913s1.287-1.07.92-1.372-.811.674-.811.674-.441-1.183-.779-.727S59.263,40.523,59.263,40.523Z"/><path class="cls-10" d="M49.941,88.8l.337,1.088s1.572-.578,1.326-.985-.989.364-.989.364-.021-1.263-.492-.946S49.941,88.8,49.941,88.8Z"/><path class="cls-10" d="M33.092,85.549l.337,1.089s1.571-.579,1.325-.986-.989.365-.989.365-.021-1.263-.491-.946S33.092,85.549,33.092,85.549Z"/><path class="cls-10" d="M60.577,92.793l.337,1.089s1.572-.579,1.326-.986-.989.365-.989.365-.021-1.263-.492-.946S60.577,92.793,60.577,92.793Z"/><path class="cls-10" d="M37.623,85.77l.337,1.088s1.571-.578,1.325-.985-.989.364-.989.364-.02-1.263-.491-.945S37.623,85.77,37.623,85.77Z"/><path class="cls-10" d="M44.006,86.631l.337,1.089s1.571-.579,1.326-.986-.99.365-.99.365-.02-1.263-.491-.946S44.006,86.631,44.006,86.631Z"/><path class="cls-10" d="M54.93,90.9l.337,1.089s1.571-.579,1.325-.986-.989.365-.989.365-.021-1.263-.492-.946S54.93,90.9,54.93,90.9Z"/><path class="cls-10" d="M27.637,86.181l.681.913s1.288-1.07.92-1.372-.81.674-.81.674-.442-1.183-.78-.727S27.637,86.181,27.637,86.181Z"/><path class="cls-10" d="M65.922,95.107l.681.914s1.288-1.071.92-1.372-.81.674-.81.674-.441-1.184-.779-.727S65.922,95.107,65.922,95.107Z"/></svg>