<svg id="word" xmlns="http://www.w3.org/2000/svg" viewBox="0 0 160 160"><defs><style>.cls-1,.cls-14,.cls-9{fill:none;}.cls-1{stroke:#9b4b9c;stroke-linecap:round;stroke-width:1.535px;}.cls-1,.cls-10,.cls-14,.cls-2,.cls-4,.cls-5,.cls-6,.cls-9{stroke-miterlimit:10;}.cls-2{fill:#29a5de;}.cls-10,.cls-14,.cls-2,.cls-4,.cls-5,.cls-6,.cls-9{stroke:#9b4d9c;}.cls-10,.cls-2,.cls-4,.cls-5,.cls-6,.cls-9{stroke-width:0.768px;}.cls-3{fill:#9b4d9c;}.cls-11,.cls-4{fill:#ce539a;}.cls-5{fill:#a4ce64;}.cls-6{fill:#3a4f9e;}.cls-7{fill:#fff;}.cls-10,.cls-8{fill:#f9ee5d;}.cls-12{fill:#a87bb3;}.cls-13{fill:#9b4b9c;}.cls-14{stroke-width:0.782px;}</style></defs><path class="cls-1" d="M76.787,25.371s-2.993-5.432,3.2-6.277c6.368-.87,6.878,3.812,6.381,6.225s-4.951,5.533-5.583,7.591A46.782,46.782,0,0,0,79.664,38.1"/><path class="cls-2" d="M55.969,118.58s-.564,10.154,0,15.655a32.378,32.378,0,0,1,0,8.462s-.38.494,5.684,3.033,11.946,1.2,14.485,1.2,4.09-.987,7.475-1.41,8.462-.846,11.142-.846h8.6c1.834,0,3.95.141,3.95.141a9.226,9.226,0,0,0,0-3.1c-.283-1.834.125-21.861.125-21.861s-13.242-3.1-19.589-2.821-25.81.987-26.8.564-5.328-1.692-5.328-1.692Z"/><path class="cls-2" d="M15.914,120.7s-2.538,15.514-2.961,16.784-4.232,2.4-2.68,3.667a12.71,12.71,0,0,0,8.18,3.1c4.231.141,8.886.423,9.027,0s-.988-1.552,0-3.808,1.41-3.95,3.1-7.193a37.938,37.938,0,0,0,2.68-7.193Z"/><path class="cls-2" d="M62.88,42.136s-9.308.706-13.257,3.95-9.168,6.064-10.86,11.847S27.339,82.05,26.351,84.871s-3.808,13.4-7.193,21.3-3.667,12.976-3.244,14.527,1.27,1.834,1.27,1.834L33.4,127.747s.7,1.269,3.385-4.654,6.065-12.835,8.745-18.053,4.654-14.1,4.654-14.1-.7,4.231,1.128,11.847,1.269,12.13,3.667,13.4l2.4,1.269A54.381,54.381,0,0,0,74.869,120.7c9.167,0,23.271-3.1,27.361-1.41s5.078,1.692,5.078,1.692,4.948-9.317,4.513-13.929.027-23.587.027-23.587,6.283,33.16,5.431,36.67c-1.2,4.934-1.221,7.977,1.459,8.4s15.092-1.491,16.926-3.466-1.129-20.378-1.129-20.378A150.294,150.294,0,0,0,129.3,77.278c-1.493-4.863-4.223-14.55-6.479-20.05s-12.271-11.283-14.1-12.271a72.279,72.279,0,0,0-8.039-2.821H92.216S84.6,47.919,79.664,47.5s-14.527-6.065-14.527-6.065Z"/><path class="cls-2" d="M62.322,42.188a5.916,5.916,0,0,0,2.928-4.036,37.034,37.034,0,0,0-.212-6.664c0-.635,2.539-1.692,3.808-.529s1.9,2.221,7.088,2.75,8.673.529,11-.952,5.394-3.7,6.029-1.481-1.058,4.549-.952,6.665a21.167,21.167,0,0,0,2.539,6.981c.317.212,2.538,2.01-1.375,3.808s-14.557,4.727-20.587,2.611S61.052,46.419,62.322,42.188Z"/><path class="cls-3" d="M70.233,32.228c.3,1.456.524,2.923.691,4.4a37.242,37.242,0,0,1,.248,4.459,25.428,25.428,0,0,1-.409,4.463,17.3,17.3,0,0,1-1.331,4.267,34.611,34.611,0,0,0,.747-4.352c.141-1.457.222-2.918.226-4.385.022-1.466-.033-2.935-.068-4.411S70.223,33.716,70.233,32.228Z"/><path class="cls-3" d="M73.419,33.48c.287,1.478.549,2.973.694,4.476.1,1.5.138,3.011.177,4.519a39.76,39.76,0,0,1-.084,4.536,11.2,11.2,0,0,1-.448,2.258,5.714,5.714,0,0,1-1.129,1.983,8.677,8.677,0,0,0,.988-4.277c.02-1.479-.065-2.989-.094-4.484s-.038-3,0-4.5c.024-.752-.058-1.5-.078-2.247S73.405,34.24,73.419,33.48Z"/><path class="cls-3" d="M67.817,30.74c.18,1.462.275,2.929.358,4.4s.147,2.934.125,4.412a15.747,15.747,0,0,1-.613,4.43,9.852,9.852,0,0,1-.922,2.055,6.722,6.722,0,0,1-1.474,1.67,9.308,9.308,0,0,0,1.827-3.881,21.458,21.458,0,0,0,.415-4.289c.041-1.456,0-2.926.054-4.39C67.627,33.678,67.68,32.211,67.817,30.74Z"/><path class="cls-3" d="M77.572,34.016c-.021,1.494.048,2.966.128,4.449a38.088,38.088,0,0,1,.053,4.486,35.611,35.611,0,0,1-.7,4.43A9.152,9.152,0,0,0,77.1,51.73a5.883,5.883,0,0,1-.659-2.158,12.116,12.116,0,0,1,.025-2.27c.14-1.507.451-2.945.522-4.4.1-1.46.074-2.94.124-4.429A22.716,22.716,0,0,1,77.572,34.016Z"/><path class="cls-3" d="M80.5,33.816l.219,4.333c.094,1.438.176,2.873.307,4.305.113,1.434.272,2.862.422,4.3l.511,4.308a32.154,32.154,0,0,1-1.095-4.219,40.25,40.25,0,0,1-.733-8.68A32.389,32.389,0,0,1,80.5,33.816Z"/><path class="cls-3" d="M83.74,33.935a16.757,16.757,0,0,1,.434,4.245c.018,1.42-.042,2.823.078,4.2a14.3,14.3,0,0,0,.94,4.012c.482,1.325.966,2.66,1.364,4.026-.693-1.245-1.31-2.515-1.911-3.8a14.044,14.044,0,0,1-.776-2.019,12.809,12.809,0,0,1-.382-2.152,26.882,26.882,0,0,1,.1-4.283A35.4,35.4,0,0,0,83.74,33.935Z"/><path class="cls-3" d="M87.094,33.026A20.208,20.208,0,0,0,86.6,37.3a17.643,17.643,0,0,0,.49,4.21,25.752,25.752,0,0,0,1.4,4.033c.562,1.327,1.149,2.659,1.641,4.03-.78-1.233-1.494-2.49-2.176-3.78a17.734,17.734,0,0,1-1.614-4.1,13.766,13.766,0,0,1-.332-4.415A12.755,12.755,0,0,1,87.094,33.026Z"/><path class="cls-3" d="M90.518,30.889c-.192,1.527-.367,3.041-.46,4.559s-.132,3.034-.085,4.547a11.56,11.56,0,0,0,.794,4.357,33.336,33.336,0,0,0,2.162,4.011,17.607,17.607,0,0,1-2.7-3.767,10.248,10.248,0,0,1-1.023-4.58,28.181,28.181,0,0,1,.267-4.628A24.412,24.412,0,0,1,90.518,30.889Z"/><path class="cls-3" d="M17.465,122.589c-.135,1.753-.353,3.492-.584,5.229s-.5,3.466-.788,5.2a34.742,34.742,0,0,1-1.227,5.146,15.474,15.474,0,0,1-2.415,4.7,22.419,22.419,0,0,0,1.85-4.865c.429-1.679.745-3.387,1.036-5.109s.6-3.449.964-5.163S17.018,124.289,17.465,122.589Z"/><path class="cls-3" d="M20.99,124.271c-.234,1.678-.549,3.337-.877,4.992s-.7,3.3-1.077,4.946c-.4,1.64-.793,3.279-1.249,4.905s-.908,3.252-1.451,4.857c.233-1.678.549-3.337.876-4.993s.7-3.3,1.078-4.945c.4-1.64.794-3.279,1.251-4.905S20.448,125.876,20.99,124.271Z"/><path class="cls-3" d="M24.764,125.352c-.3,1.629-.645,3.24-.981,4.853l-1.021,4.83-1.039,4.826c-.352,1.609-.691,3.222-1.088,4.83.082-1.655.275-3.3.507-4.935s.533-3.263.87-4.881c.355-1.615.736-3.225,1.2-4.812S24.164,126.9,24.764,125.352Z"/><path class="cls-3" d="M28.574,126.092a33.7,33.7,0,0,1-1.412,4.536c-.536,1.487-1.124,2.943-1.594,4.43a43.8,43.8,0,0,0-1.194,4.527c-.319,1.533-.539,3.089-.729,4.663a22.908,22.908,0,0,1,.147-4.76,25.862,25.862,0,0,1,1.046-4.666,40.779,40.779,0,0,1,1.781-4.417C27.276,128.968,27.941,127.545,28.574,126.092Z"/><path class="cls-3" d="M58.626,118.046a15.308,15.308,0,0,0-.52,3.294c-.082,1.109-.129,2.224-.136,3.336a53.534,53.534,0,0,0,.291,6.654c.174,2.214.612,4.395.935,6.619.153,1.112.292,2.23.359,3.355a19.226,19.226,0,0,1-.12,3.369,34.865,34.865,0,0,0-.821-6.624c-.44-2.184-.879-4.4-1.116-6.643a44.646,44.646,0,0,1-.116-6.752A20.726,20.726,0,0,1,58.626,118.046Z"/><path class="cls-3" d="M62.087,119.031a20.691,20.691,0,0,0-.573,6.666c.132,2.231.44,4.456.76,6.693.264,2.246.486,4.505.563,6.767a59.968,59.968,0,0,1-.117,6.784c-.14-2.257-.273-4.506-.472-6.747s-.412-4.479-.734-6.707a61.662,61.662,0,0,1-.588-6.772A16.707,16.707,0,0,1,62.087,119.031Z"/><path class="cls-3" d="M66.251,120.238c.216,2.182.328,4.369.41,6.556s.079,4.377.094,6.566c-.047,2.188-.079,4.377-.194,6.563s-.262,4.371-.512,6.549c-.068-2.191-.07-4.377-.078-6.563l.018-6.555.084-6.554C66.115,124.614,66.15,122.428,66.251,120.238Z"/><path class="cls-3" d="M70.716,120.662c.1,2.032.115,4.061.118,6.089s-.037,4.057-.086,6.084c-.067,2.027-.136,4.054-.264,6.079s-.253,4.05-.471,6.072c-.1-2.031-.116-4.061-.119-6.09s.037-4.056.087-6.083c.068-2.027.137-4.053.265-6.079S70.5,122.684,70.716,120.662Z"/><path class="cls-3" d="M73.87,120.663c.04,2,.079,4,.188,5.983s.258,3.969.48,5.945c.2,1.979.465,3.966.547,5.977a22.315,22.315,0,0,1-.412,6,34.521,34.521,0,0,0-.177-5.957l-.721-5.94a53.191,53.191,0,0,1-.3-6.012A45.531,45.531,0,0,1,73.87,120.663Z"/><path class="cls-3" d="M78.068,120.556c.2,1.91.313,3.821.415,5.733s.16,3.824.21,5.736c.032,1.913.062,3.827.033,5.741s-.055,3.829-.174,5.745c-.2-1.91-.314-3.821-.416-5.733s-.161-3.824-.21-5.736c-.03-1.914-.061-3.827-.031-5.741S77.95,122.472,78.068,120.556Z"/><path class="cls-3" d="M82.784,120.131c.168,2.027.252,4.054.323,6.081s.1,4.054.119,6.082c0,2.027,0,4.055-.059,6.082s-.116,4.056-.266,6.084c-.169-2.026-.253-4.054-.324-6.081s-.1-4.054-.118-6.081c0-2.028,0-4.055.06-6.083S82.635,122.159,82.784,120.131Z"/><path class="cls-3" d="M86.014,119.705c.339,1.874.562,3.763.741,5.656s.285,3.793.349,5.694c.046,1.9.059,3.8-.02,5.7s-.184,3.8-.416,5.689c-.087-1.9-.121-3.8-.174-5.692l-.157-5.679-.168-5.68C86.113,123.5,86.037,121.608,86.014,119.705Z"/><path class="cls-3" d="M91.976,119.389c.092,1.971.122,3.938.162,5.9l.092,5.893.048,5.894c.006,1.965.022,3.932-.024,5.905-.272-1.955-.436-3.919-.566-5.885s-.194-3.935-.225-5.905c-.014-1.97,0-3.94.087-5.909S91.751,121.35,91.976,119.389Z"/><path class="cls-3" d="M95.912,119.193c-.167,2.183-.342,4.357-.457,6.533s-.22,4.349-.216,6.526c-.059,2.176-.01,4.352.047,6.529s.177,4.356.285,6.543a58.391,58.391,0,0,1-.874-6.51c-.181-2.185-.223-4.379-.225-6.572.061-2.192.158-4.385.4-6.564A58.6,58.6,0,0,1,95.912,119.193Z"/><path class="cls-3" d="M99.938,118.771l-.509,6.051c-.151,2.015-.316,4.027-.436,6.042-.138,2.014-.231,4.03-.338,6.048l-.271,6.067c-.214-2.02-.3-4.049-.32-6.078s.042-4.06.164-6.086c.139-2.025.325-4.048.617-6.057S99.469,120.747,99.938,118.771Z"/><path class="cls-3" d="M103.316,120.451c.127,2.058.171,4.113.2,6.167s.018,4.108,0,6.161c-.04,2.052-.081,4.1-.181,6.157s-.2,4.1-.389,6.159c-.128-2.054-.171-4.109-.2-6.164s-.018-4.109,0-6.164c.04-2.054.081-4.109.182-6.162S103.127,122.5,103.316,120.451Z"/><polygon class="cls-4" points="52.615 108.385 56.549 111.318 62.4 107.365 66.334 112.338 71.176 108.895 75.11 113.74 80.759 108.512 84.693 112.848 89.737 107.365 95.587 112.465 100.833 106.6 105.271 111.7 111.626 104.687 111.626 109.214 105.574 114.633 100.53 111.445 94.881 116.163 90.342 111.7 83.921 117.31 80.658 112.848 73.798 117.31 71.176 113.358 65.224 117.31 61.29 112.338 56.751 115.653 52.615 111.955 52.615 108.385"/><path class="cls-5" d="M55.308,94.038s2.421,6.758,3.127,7.268,4.337-4.59,4.741-6.12.807-3.443,0-2.805-3.7,3.825-3.7,3.825-2.251-4.332-3.159-3.951S55.308,94.038,55.308,94.038Z"/><ellipse class="cls-6" cx="54.277" cy="83.649" rx="2.219" ry="2.04"/><ellipse class="cls-6" cx="60.079" cy="82.81" rx="1.967" ry="1.785"/><path class="cls-7" d="M50.873,92.176a6.972,6.972,0,0,1-.829-.049l.286-2.382c1.73.2,3.851-.673,5.9-1.525a19.541,19.541,0,0,1,5.342-1.657c6.745-.644,13.5.62,20.027,1.846l.887.166a26.972,26.972,0,0,0,6.225.664,27.2,27.2,0,0,0,4.486-.755,29.33,29.33,0,0,1,4.915-.811,29.269,29.269,0,0,1,3.418.09,15.623,15.623,0,0,0,5.039-.2,6.739,6.739,0,0,1,3.343-.257,12.428,12.428,0,0,0,1.743.158l-.058,2.4a14.793,14.793,0,0,1-2.042-.184,4.467,4.467,0,0,0-2.368.2,17.589,17.589,0,0,1-5.815.272,27.178,27.178,0,0,0-3.137-.089,27.211,27.211,0,0,0-4.513.756,29.253,29.253,0,0,1-4.884.81,28.807,28.807,0,0,1-6.793-.7l-.889-.166c-6.364-1.195-12.946-2.435-19.354-1.816a17.611,17.611,0,0,0-4.651,1.484A17.13,17.13,0,0,1,50.873,92.176Z"/><path class="cls-8" d="M82.716,107.35c-1.049,0-2.142-.035-3.29-.111a80.81,80.81,0,0,1-9.761-1.456c-6.011-1.149-11.69-2.234-17.312-.805l-.592-2.324c6.144-1.565,12.35-.376,18.354.773a79.035,79.035,0,0,0,9.47,1.419c6.966.459,11.93-.688,17.178-1.9a76.774,76.774,0,0,1,14.119-2.269l.129,2.395A74.921,74.921,0,0,0,97.3,105.281,60.394,60.394,0,0,1,82.716,107.35Z"/><polygon class="cls-5" points="58.841 66.523 63.925 61.738 68.987 66.151 64.264 71.308 58.841 66.523"/><polygon class="cls-4" points="61.298 66.523 63.642 64.631 66.383 66.523 64.263 68.934 61.298 66.523"/><polygon class="cls-6" points="68.367 71.697 71.09 68.637 74.287 72.248 68.367 71.697"/><path class="cls-9" d="M49.9,91.068a53.052,53.052,0,0,0-.287-11.651c-.7-4.036-2.342-8.033-1.772-12.09a30.241,30.241,0,0,1,1.9-6.056A45.22,45.22,0,0,0,52.376,48.96,7.651,7.651,0,0,0,51.99,45.3"/><path class="cls-9" d="M107.824,44.819c.009,2.184,1.268,4.132,2.087,6.156,4.029,9.963-2.6,21.89,1.475,31.835"/><path class="cls-5" d="M65.265,95.115s2.421,6.758,3.127,7.268,4.338-4.59,4.741-6.12.807-3.443,0-2.805-3.7,3.825-3.7,3.825-2.25-4.332-3.158-3.951S65.265,95.115,65.265,95.115Z"/><path class="cls-5" d="M76,95.715s2.421,6.758,3.128,7.268,4.337-4.59,4.741-6.12.807-3.443,0-2.8-3.7,3.825-3.7,3.825-2.251-4.332-3.159-3.951S76,95.715,76,95.715Z"/><path class="cls-5" d="M87.874,95.715S90.3,102.473,91,102.983s4.338-4.59,4.741-6.12.807-3.443,0-2.8-3.7,3.825-3.7,3.825-2.251-4.332-3.158-3.951S87.874,95.715,87.874,95.715Z"/><path class="cls-5" d="M99.149,94.038s2.421,6.758,3.127,7.268,4.338-4.59,4.741-6.12.807-3.443,0-2.805-3.7,3.825-3.7,3.825-2.25-4.332-3.158-3.951S99.149,94.038,99.149,94.038Z"/><ellipse class="cls-6" cx="65.861" cy="83.102" rx="2.219" ry="2.04"/><ellipse class="cls-6" cx="73.294" cy="82.81" rx="1.967" ry="1.785"/><ellipse class="cls-6" cx="80.75" cy="83.942" rx="2.219" ry="2.04"/><ellipse class="cls-6" cx="86.553" cy="83.102" rx="1.967" ry="1.785"/><ellipse class="cls-6" cx="92.335" cy="83.394" rx="2.219" ry="2.04"/><ellipse class="cls-6" cx="97.801" cy="83.942" rx="1.967" ry="1.785"/><ellipse class="cls-6" cx="104.201" cy="83.942" rx="2.219" ry="2.04"/><ellipse class="cls-6" cx="109.605" cy="83.102" rx="1.967" ry="1.785"/><polygon class="cls-6" points="53.772 62.174 56.496 66.151 59.219 62.174 53.772 62.174"/><polygon class="cls-6" points="53.536 70.756 56.259 67.696 59.456 71.308 53.536 70.756"/><polygon class="cls-6" points="69.905 62.174 72.629 66.151 75.353 62.174 69.905 62.174"/><polygon class="cls-10" points="49.703 74.265 52.427 78.242 55.151 74.265 49.703 74.265"/><polygon class="cls-5" points="76.313 68.186 81.397 63.401 86.46 67.815 81.736 72.971 76.313 68.186"/><polygon class="cls-4" points="78.77 68.186 81.114 66.295 83.855 68.186 81.735 70.598 78.77 68.186"/><polygon class="cls-5" points="92.335 69.562 97.419 65.405 102.482 69.239 97.758 73.719 92.335 69.562"/><polygon class="cls-4" points="94.792 69.562 97.136 67.919 99.877 69.562 97.757 71.657 94.792 69.562"/><polygon class="cls-6" points="86.029 72.932 88.753 69.872 91.95 73.483 86.029 72.932"/><polygon class="cls-6" points="87.568 63.409 90.292 67.386 93.015 63.409 87.568 63.409"/><polygon class="cls-6" points="103.152 72.971 104.593 69.562 107.852 70.972 103.152 72.971"/><polygon class="cls-6" points="103.52 63.784 105.502 67.027 107.483 63.784 103.52 63.784"/><polygon class="cls-10" points="55.151 74.265 57.874 78.242 60.598 74.265 55.151 74.265"/><polygon class="cls-10" points="60.598 74.218 63.18 78.288 66.042 74.41 60.598 74.218"/><polygon class="cls-10" points="65.998 74.6 68.313 78.827 71.418 75.141 65.998 74.6"/><polygon class="cls-10" points="77.094 75.936 79.818 79.913 82.542 75.936 77.094 75.936"/><polygon class="cls-10" points="82.47 75.936 85.193 79.913 87.917 75.936 82.47 75.936"/><polygon class="cls-10" points="87.917 76.207 90.499 80.277 93.361 76.398 87.917 76.207"/><polygon class="cls-10" points="71.577 75.212 73.892 79.44 76.997 75.753 71.577 75.212"/><path class="cls-11" d="M91.556,76.253h-.633a140.03,140.03,0,0,1-16.612-.672c-.894-.108-1.785-.232-2.676-.356s-1.79-.251-2.687-.357a182.251,182.251,0,0,0-20.3-.649l-.467-2.39a191.9,191.9,0,0,1,21.056.657c.912.108,1.823.235,2.734.363.876.122,1.753.245,2.63.35a138.029,138.029,0,0,0,16.328.656,83.325,83.325,0,0,0,9.761-.38,13.527,13.527,0,0,0,5.882-1.982c.855-.462,2.186-1.4,3.487-1.99v3.469c-1.227.561-1.523.186-2.345.631a15.809,15.809,0,0,1-6.74,2.254A79.76,79.76,0,0,1,91.556,76.253Z"/><polygon class="cls-10" points="98.623 75.995 101.969 79.465 103.995 75.092 98.623 75.995"/><polygon class="cls-10" points="103.924 75.104 107.27 78.574 109.296 74.201 103.924 75.104"/><polygon class="cls-10" points="93.062 76.195 96.046 79.981 98.497 75.83 93.062 76.195"/><polygon class="cls-4" points="52.615 51.431 56.426 53.89 62.093 50.576 65.904 54.746 70.595 51.859 74.406 55.922 79.45 52.34 83.689 55.173 88.575 50.576 94.242 54.853 99.324 49.935 103.623 54.211 108.408 48.363 109.779 52.126 103.916 56.67 99.03 53.997 93.558 57.953 89.161 54.211 82.941 58.915 79.78 55.173 73.135 58.915 70.595 55.601 64.829 58.915 61.018 54.746 56.621 57.525 52.615 54.425 52.615 51.431"/><path class="cls-12" d="M102.774,64.94a44.693,44.693,0,0,1-7.27-.685c-1.452-.238-2.918-.518-4.334-.789-1.525-.292-3.1-.594-4.648-.839a108.221,108.221,0,0,0-11.546-1.111c-5.963-.311-12.009-.379-17.979-.2-1.669.05-5.722.093-7.284-.579l.948-2.2a22.917,22.917,0,0,0,6.265.384c6.031-.18,12.147-.113,18.175.2a110.583,110.583,0,0,1,11.8,1.137c1.584.252,3.179.556,4.722.852,1.4.268,2.851.545,4.273.778a38.641,38.641,0,0,0,8.291.617,4.2,4.2,0,0,0,3.04-1.623,13.569,13.569,0,0,1,3.652-2.738l-.048,2.9A5.023,5.023,0,0,0,108.9,62.6a6.512,6.512,0,0,1-4.589,2.3C103.805,64.927,103.3,64.94,102.774,64.94Z"/><polygon class="cls-10" points="58.112 58.567 61.298 56.099 63.32 58.915 58.112 58.567"/><polygon class="cls-10" points="52.615 55.817 55.151 58.915 51.266 58.696 52.615 55.817"/><polygon class="cls-10" points="67.928 58.567 70.398 56.875 71.577 58.915 67.928 58.567"/><polygon class="cls-10" points="76.002 58.915 79.495 56.875 81.313 58.915 76.002 58.915"/><polygon class="cls-10" points="87.568 59.484 90.116 57.507 92.041 60.683 87.568 59.484"/><polygon class="cls-10" points="96.984 60.26 99.768 57.507 102.482 60.683 96.984 60.26"/><polygon class="cls-10" points="108.619 55.535 107.638 59.095 110.312 57.507 108.619 55.535"/><path class="cls-2" d="M136.086,123.172s2.538,15.514,2.961,16.783,4.232,2.4,2.68,3.667a12.7,12.7,0,0,1-8.18,3.1c-4.231.141-8.886.423-9.027,0s.988-1.551,0-3.808-1.41-3.949-3.1-7.193a37.938,37.938,0,0,1-2.68-7.193Z"/><path class="cls-3" d="M134.535,125.065c.447,1.7.812,3.415,1.164,5.132s.659,3.443.964,5.164.607,3.43,1.036,5.108a22.427,22.427,0,0,0,1.85,4.866,15.5,15.5,0,0,1-2.415-4.7,34.772,34.772,0,0,1-1.227-5.146c-.287-1.732-.565-3.458-.788-5.2S134.67,126.819,134.535,125.065Z"/><path class="cls-3" d="M131.01,126.748c.542,1.605,1,3.229,1.449,4.857s.854,3.265,1.251,4.9c.38,1.644.757,3.288,1.078,4.946s.643,3.314.876,4.993c-.543-1.605-1-3.23-1.451-4.858s-.853-3.265-1.249-4.9c-.379-1.644-.757-3.288-1.077-4.946S131.244,128.426,131.01,126.748Z"/><path class="cls-3" d="M127.236,127.828c.6,1.545,1.095,3.123,1.551,4.712s.846,3.2,1.2,4.811c.337,1.618.646,3.243.87,4.882s.425,3.279.507,4.934c-.4-1.608-.736-3.221-1.088-4.83l-1.039-4.826-1.021-4.83C127.881,131.069,127.532,129.458,127.236,127.828Z"/><path class="cls-3" d="M123.426,128.568c.633,1.454,1.3,2.876,1.955,4.313a40.861,40.861,0,0,1,1.781,4.417,25.881,25.881,0,0,1,1.046,4.666,22.91,22.91,0,0,1,.147,4.76c-.19-1.574-.41-3.13-.729-4.662a43.747,43.747,0,0,0-1.194-4.528c-.47-1.487-1.058-2.943-1.594-4.429A33.667,33.667,0,0,1,123.426,128.568Z"/><path class="cls-13" d="M133.374,8.4s-3.029-3.233-1.257-4.1,2.551,3.386,2.551,3.386,1.093-4.523,2.6-3.843c2.776,1.248-1.762,4.55-1.762,4.55s4.175-2.272,4.475.021-4.2.467-4.2.467,4.573,1.619,4.114,3.564-4.53-2.28-4.53-2.28,2.976,4.458.746,4.6c-2,.129-1.79-4.25-1.79-4.25s-1.165,4.732-3.088,3.683c-2.255-1.231,2.175-4.211,2.175-4.211s-5.2,1.095-4.6-1.49C129.3,6.367,133.374,8.4,133.374,8.4Z"/><path class="cls-13" d="M29.763,7.521S30.08,3.1,31.921,3.814s-.753,4.171-.753,4.171,4.062-2.268,4.589-.7c.968,2.885-4.537,1.8-4.537,1.8s4.5,1.523,3.023,3.3-3.2-2.771-3.2-2.771,1.916,4.457.178,5.441-1.4-4.875-1.4-4.875-1.253,5.212-2.873,3.673c-1.451-1.379,1.905-4.2,1.905-4.2s-4.265,2.358-4.8.233c-.628-2.491,4.568-1.261,4.568-1.261s-4.332-3.073-2.029-4.389C28.492,3.149,29.763,7.521,29.763,7.521Z"/><path class="cls-14" d="M32.759,10.218C50.136,20.7,78.6,23.1,95.673,20.1c24.979-4.382,39.888-11.383,39.888-11.383"/></svg>