<svg id="word" xmlns="http://www.w3.org/2000/svg" viewBox="0 0 160 160"><defs><style>.cls-1{fill:#9b4b9c;}.cls-2,.cls-4,.cls-8{fill:none;}.cls-2{stroke:#9b4d9c;stroke-width:0.56px;}.cls-2,.cls-3,.cls-4,.cls-5,.cls-7,.cls-8{stroke-miterlimit:10;}.cls-3{fill:#74a5d8;}.cls-3,.cls-4,.cls-5{stroke:#9a4d9c;}.cls-3,.cls-4,.cls-5,.cls-7{stroke-width:0.622px;}.cls-5{fill:#4a4a4c;}.cls-6{fill:#9a4d9c;}.cls-7{fill:#d4cbaf;}.cls-7,.cls-8{stroke:#9a4a99;}.cls-8{stroke-linecap:round;stroke-width:1.244px;}</style></defs><path class="cls-1" d="M116.742,5.574s-2.167-2.312-.9-2.933,1.824,2.421,1.824,2.421.782-3.234,1.863-2.748c1.985.893-1.26,3.254-1.26,3.254s2.986-1.625,3.2.015-3.007.334-3.007.334,3.271,1.158,2.943,2.549-3.241-1.631-3.241-1.631,2.129,3.188.534,3.291c-1.429.093-1.28-3.039-1.28-3.039s-.833,3.384-2.209,2.634c-1.613-.88,1.556-3.012,1.556-3.012s-3.717.783-3.29-1.065C113.829,4.119,116.742,5.574,116.742,5.574Z"/><path class="cls-1" d="M42.641,4.945s.227-3.161,1.544-2.652-.539,2.983-.539,2.983,2.905-1.622,3.282-.5c.692,2.064-3.245,1.284-3.245,1.284s3.22,1.089,2.162,2.36-2.287-1.981-2.287-1.981,1.37,3.187.127,3.891-1-3.486-1-3.486-.9,3.727-2.054,2.626c-1.038-.986,1.362-3,1.362-3s-3.05,1.686-3.433.166c-.449-1.781,3.267-.9,3.267-.9s-3.1-2.2-1.451-3.139C41.732,1.817,42.641,4.945,42.641,4.945Z"/><path class="cls-2" d="M44.784,6.873c12.427,7.5,32.782,9.213,45,7.071C107.643,10.81,118.306,5.8,118.306,5.8"/><path class="cls-3" d="M64.356,42.647s-.416,1.12-.985,2.683c-1.051,2.89-2.625,7.3-3.056,8.924-.663,2.511-1.062,11.137-1.183,13.329s1.125,31.151,2.627,34.074,3.147,4.244,2.477,6.827-2.816,1.952-1.472,5.008.813,2.311.692,4.557,1.442,2.826,1.034,4.111-1.307,1.5-1.621,3.38-1.68,27.182-1.68,27.182a18.657,18.657,0,0,0,4.021,2.265c3.482,1.231,8.472-1.616,8.472-1.616s.08-7.377.235-9.125,1.842-15.066,2.237-16.205,1.424-2.81,1.621-3.38a20.4,20.4,0,0,0,.272-3.059c.129-1.457-1.195-1.427-.169-4.713s1.709-4.546,1.255-6.789-1.034-13.892-.48-15.165S80.761,77.8,80.761,77.8l.483-2.13s1.943,9.535,1.885,13.493-1.338,16.727-1.54,19-.808,4.132-.749,6.78-1.385,4.024-.7,4.58.456,2.3.171,3.448S79.286,137,79.105,139.043s-.139,12.174-.187,13.2a1.82,1.82,0,0,0,.361,1.4s3.33,2.154,5.528,2.2a32.31,32.31,0,0,0,5.677-.681S93.4,138.821,93.945,132.7s-.01-9.8.179-11.931,1.67-13.85,2.257-15.507,6.273-24.349,6.612-26.521.617-15.214-.6-21.341-4.229-15.2-4.229-15.2S88.491,45.3,82.1,44.589,64.356,42.647,64.356,42.647Z"/><path class="cls-3" d="M74.358,47.811c.091.021.184.04.276.057a18.023,18.023,0,0,0,3.329.264l-.5-5.55a41.629,41.629,0,0,1-5.681-.505,50.234,50.234,0,0,1-6.568-1.684L62.75,45.845Z"/><path class="cls-3" d="M79.068,42.5,76.719,42.3a4.275,4.275,0,0,0-.189,2.131c.25.9.993,4.327.993,4.327a17.837,17.837,0,0,0,4.3-.719,33.58,33.58,0,0,1,4.609-1.683c.323.084,3.985-.857,6.427-1.081s6.559-.078,6.559-.078l-1-4.273a36.3,36.3,0,0,0-7.672-.406,53.8,53.8,0,0,0-7.4,1.49A24.834,24.834,0,0,1,79.068,42.5Z"/><path class="cls-3" d="M71.574,41.343s-1.845,3.415-1.847,4.681-.017,3.907-.017,3.907l1.073.316a3.956,3.956,0,0,1-.089-2.1,6.606,6.606,0,0,1,.833-3.175c.653-1.153,1.448-2.723,1.448-2.723S72.132,40.747,71.574,41.343Z"/><path class="cls-4" d="M68.3,46.784s-.923,5.913-1.918,7.2a4.68,4.68,0,0,1-4.48,1.474c-1.456-.349-1.8-.12-1.8-.12"/><polyline class="cls-4" points="62.518 48.467 66.293 49.353 65.331 54.885"/><path class="cls-4" d="M83.246,47.465s-.534,6.7.066,8.629.127,6.012.075,7.219a2.061,2.061,0,0,1-1.735,2.1,19.185,19.185,0,0,1-2.371.12"/><polyline class="cls-4" points="78.244 49.313 79.228 61.788 81.244 75.673"/><ellipse class="cls-5" cx="79.692" cy="45.091" rx="1.37" ry="1.069" transform="translate(27.73 120.483) rotate(-84.927)"/><path class="cls-4" d="M88.981,46.192a42.9,42.9,0,0,0,1.328,5.513c.629,1.6,2.034,1.888,4.3,2.364s6.872-.6,6.872-.6"/><path class="cls-3" d="M84.926,41.024a6.439,6.439,0,0,1,.977,2.637c.1,1.331.464,5.315.464,5.315l2.182-.393a11.169,11.169,0,0,1-.435-3.779,9.784,9.784,0,0,0-1-4.229Z"/><ellipse class="cls-6" cx="89.514" cy="47.323" rx="0.696" ry="0.85" transform="translate(34.46 132.301) rotate(-84.927)"/><path class="cls-6" d="M91.379,69.418c-2.368,1.009-4.76,1.965-7.081,3.043-.287.139-.574.278-.851.428-.137.076-.276.148-.405.228a1.556,1.556,0,0,0-.284.2c-.017.022.042-.065.02-.106-.025-.071,0-.011,0-.018.009.03.01.013-.007.006a.142.142,0,0,0-.124-.042c-.008,0,0,0,.03-.018.1-.057.238-.171.375-.264a3.176,3.176,0,0,1,.943-.463c1.251-.292,2.445-.739,3.675-1.131.615-.194,1.229-.386,1.856-.561a7.1,7.1,0,0,1,1-.222,1.112,1.112,0,0,1,.611.131,1.012,1.012,0,0,1,.486.457.5.5,0,0,1-.037.495.668.668,0,0,1-.3.243,1.97,1.97,0,0,1-.548.143,7.732,7.732,0,0,0-.939.118c-.611.126-1.227.3-1.84.473a37.087,37.087,0,0,0-3.618,1.27c-.148.06-.294.122-.434.19-.075.032-.134.07-.2.1-.05.027-.019.021-.042,0-.012-.059-.044-.075-.01-.051a4,4,0,0,0,.908.164c.638.061,1.28.1,1.923.135-.643.032-1.287.05-1.934.03a3.946,3.946,0,0,1-.994-.115.275.275,0,0,1-.087-.054c-.032,0-.078-.152-.044-.161a.376.376,0,0,1,.134-.158,2.176,2.176,0,0,1,.218-.137c.143-.083.289-.158.434-.23a36.55,36.55,0,0,1,3.6-1.448,15.8,15.8,0,0,1,1.879-.544,8.358,8.358,0,0,1,.971-.138,1.448,1.448,0,0,0,.382-.1.191.191,0,0,0,.073-.044s-.007.061-.01.041a.668.668,0,0,0-.538-.239,7.23,7.23,0,0,0-.878.215c-.609.179-1.219.381-1.829.58-1.224.371-2.454.809-3.713,1.084a2.612,2.612,0,0,0-.784.374c-.132.085-.24.178-.42.283a.668.668,0,0,1-.19.076.41.41,0,0,1-.35-.095.558.558,0,0,1-.126-.2.3.3,0,0,1-.03-.131.393.393,0,0,1,.054-.219,1.451,1.451,0,0,1,.473-.383c.147-.086.293-.163.441-.234.3-.144.594-.273.892-.4C86.489,71.029,88.92,70.187,91.379,69.418Z"/><path class="cls-6" d="M75.21,67.983a35.505,35.505,0,0,1,2.863,2.891,12.067,12.067,0,0,1,1.264,1.638,1.354,1.354,0,0,1,.231.616.536.536,0,0,1-.05.194.955.955,0,0,1-.051.081.9.9,0,0,1-.118.142.632.632,0,0,1-.43.178A1.329,1.329,0,0,1,78.3,73.5c-.159-.094-.3-.192-.442-.29l-.812-.6a5.388,5.388,0,0,0-.846-.444c-.6-.27-1.241-.478-1.868-.721L70.5,70.123A33.623,33.623,0,0,1,74.475,71a17.149,17.149,0,0,1,1.944.655,5.87,5.87,0,0,1,.958.474l.838.581a2.547,2.547,0,0,0,.708.425c.009,0,0,.005.025-.012a.387.387,0,0,0,.044-.052c0-.008.024-.032.018-.025a.105.105,0,0,0-.021.071,1.507,1.507,0,0,0-.14-.316c-.319-.552-.753-1.078-1.144-1.62Z"/><ellipse class="cls-6" cx="67.843" cy="48.021" rx="0.696" ry="0.85" transform="translate(14.01 111.351) rotate(-84.927)"/><path class="cls-7" d="M58.746,36.837a105.658,105.658,0,0,0,12.241-4.872c5.252-2.614,5.109-3.886,8.8-4.3s5.376,1.512,7.419,2.571,13.761,6.643,15,7.608,3.579,3.647,3.143,4.8-6.555-.92-8.73-2.148-7.237-4.984-16-4.368S63.5,40.9,59.175,40.653,54.639,38.276,58.746,36.837Z"/><path class="cls-8" d="M76.233,17.667s-2.858-4.132,2.065-5.321c5.06-1.223,5.855,2.508,5.652,4.493s-3.536,4.866-3.876,6.576a37.76,37.76,0,0,0-.479,4.271"/><polygon class="cls-7" points="65.162 38.34 65.93 44.427 67.904 44.762 67.904 37.682 65.162 38.34"/><polygon class="cls-7" points="92.443 37.462 92.305 44.537 93.716 44.537 95.05 38.34 92.443 37.462"/></svg>