<svg id="word" xmlns="http://www.w3.org/2000/svg" viewBox="0 0 160 160"><defs><style>.cls-1{fill:#c1784a;}.cls-1,.cls-2,.cls-3{stroke:#9d4b9c;stroke-miterlimit:10;stroke-width:0.662px;}.cls-2{fill:#446731;}.cls-3{fill:none;}</style></defs><path class="cls-1" d="M80,123.828s-1.589,20.083-1.583,20.934.7,7.021.7,7.021a12.713,12.713,0,0,0,5.311.372c2.463-.5,2.139-2.118,2.139-2.118l-.612-31.959H81.817Z"/><path class="cls-2" d="M82.632,122.739l-6.422,8.634,3.731-9.99s-7.414,8.939-9.079,9.375S74.09,121.2,74.09,121.2s-9.146,7.742-12.6,9.043-16.26,4.088-16.26,4.088,8.372-5.314,10.42-8.429a52.056,52.056,0,0,0,4.083-8.972l-2.588.834a14.716,14.716,0,0,0,6.546-6.392c2.006-4.321-4.744,1.725-8.8,3.175s-8.3,2.569-8.3,2.569,5.807-5.541,7.25-7.859-7.207,1.378-7.207,1.378,12.821-10.4,13.841-12.018-7.008,1.321-9.244,2.413-12.307,4.614-12.307,4.614,11-6.953,15.192-10.547A64.356,64.356,0,0,0,62.7,85.265L51.82,87.352s6.891-1.954,10.451-8.1a61.326,61.326,0,0,1,8.56-11.132l-3.165-1.249s-13.573,3.857-15.572,4.892,5.671-5.57,5.671-5.57l-7.413.19s9.44-8.2,14.851-9.763a10.9,10.9,0,0,0,7.055-6.4L63.2,51.681S73.2,47.012,73.392,43.244s1.244-5,1.244-5-7.959,2.318-9.585,1.007,6.922-4.628,8.6-6.218,3.738-3.49,3.738-3.49l-5.87.3s9.239-12.023,10.3-14.716,2.272-7.433,2.272-7.433,1.742,11.37,3.929,13.242,5.4,7.831,5.4,7.831l-3.1.7a15.328,15.328,0,0,0,6.7,5.7c4.5,1.916,4.989,2.219,4.989,2.219a14.549,14.549,0,0,1-6.882.761c-3.184-.645,4.78,7.6,6.882,8.071a7.856,7.856,0,0,0,3.661,0s-11.925,1.954-13.5.05,5.56,4.612,8.281,8.436a31.739,31.739,0,0,0,6.473,6.519l-7.047-.95s7.442,9.263,8.327,10.253a15.028,15.028,0,0,1,1.739,2.7,9.444,9.444,0,0,1-4.86-1.884c-2.9-1.926-8.051-2.911-8.051-2.911l3.794,6.417s8.6,9.343,9.922,9.319l1.326-.024-11.02-1.312S109.3,91.368,111.9,92.71s-3.4.6-3.4.6,5.893,7.7,7.725,8.892,3.845,2.608,3.845,2.608l-4.876-.586.538,2.97-6.407.07-6.061-.275s4.87,6.387,6.718,6.89a11.136,11.136,0,0,1,3.081,1.345L105.7,116s4.734,3.553,7.523,4.348a14.268,14.268,0,0,1,4.763,2.452l-4.233-.86,7.313,4.912s-4.727-.225-8.547-.526-3.352-2.235-3.352-2.235l7.792,8.505s-5.526,1.494-7.182-1.435-3.814-3.365-3.814-3.365l1.345,6.533s-5.024-6.106-7.633-6.483-4.965-3.247-4.965-3.247l1.1,5.272-3.252-2.626-.855,3.769s-.393-.525-3.115-3.652a53.9,53.9,0,0,1-3.608-4.446l-.67,6.955Z"/><path class="cls-3" d="M75.35,38.715l-.087.942a37.168,37.168,0,0,0,4.194-.961c.443-.128.981-.4.933-.86l-.316,2.917c1.524-.6,2.1-2.419,2.482-4.012a8.682,8.682,0,0,0,1.4,5.209,5.555,5.555,0,0,1,.779-2.154"/><path class="cls-3" d="M71.882,51.314a20.162,20.162,0,0,1,4.253-2.5c-1.725,2.018-3.393,4.307-3.59,6.954a24.648,24.648,0,0,1,6-5.254,15.889,15.889,0,0,0-.793,5.435c1.653-2.14,5.019-2.822,5.909-5.376l-.022,4.843c0,.719.153,1.647.86,1.783,1.947-2.046,2.616-4.959,3.208-7.72"/><path class="cls-3" d="M71.086,68.305a17.918,17.918,0,0,1,5.489-4.578l-2.61,6.562a30.2,30.2,0,0,1,4.66-6.606,13.156,13.156,0,0,0,2.594,6.928l1.959-6.332a14.38,14.38,0,0,0,4.638,6.294l-.061-6.034a11.418,11.418,0,0,0,3.724,2.26"/><path class="cls-3" d="M61.533,96.619a21.075,21.075,0,0,0,6.43-4.309,41.084,41.084,0,0,1-2.949,5.533l5.6-6.2a23.1,23.1,0,0,0-2.006,5.842,22.306,22.306,0,0,1,6.756-4.277A19.512,19.512,0,0,0,74.341,97.7l3.891-4.864-.753,9.118A25.566,25.566,0,0,1,83.7,93.629c1.321-1.166,1.555-2.23,2.459-3.742-.309,2.294,1.447,4.69,2.677,6.651l.839-3.609"/><path class="cls-3" d="M60.468,118.091l4.806-2.64-.1,1.1s1.151-.569,2.719-1.524a33.9,33.9,0,0,1,3.528-1.8L68.5,118.078s3.535-3.3,5.3-4.817l1.76-1.518s-1.71,7.415-.481,6.508a21.817,21.817,0,0,0,3.224-3.969s-.039,2.479,1.162,1.621.847-1.442.847-1.442"/><path class="cls-3" d="M87.255,111.2l-.674-4.209s5.767,5.278,7.088,5.565-1.542-5.866-2.19-7,7.721,4.107,7.721,4.107-2.536-4.973-2.567-6.16,7.1,4.095,7.1,4.095"/><path class="cls-3" d="M92.592,95.672l4.878,1.991.659-2.217,3.022.474L98.179,91.5l2.972,1.712-1.541-3.32s3.7,3.694,5.188,3.345a9.684,9.684,0,0,1,4.058.543"/></svg>