<svg id="word" xmlns="http://www.w3.org/2000/svg" xmlns:xlink="http://www.w3.org/1999/xlink" viewBox="0 0 160 160"><defs><style>.cls-1,.cls-10,.cls-4,.cls-5,.cls-6,.cls-7{stroke:#9c4c9c;}.cls-1,.cls-4{stroke-miterlimit:10;}.cls-1,.cls-10,.cls-5,.cls-6,.cls-7{stroke-width:0.107px;}.cls-1{fill:url(#radial-gradient);}.cls-2{fill:#43632e;}.cls-3{fill:#194f27;}.cls-4{fill:#f06b92;stroke-width:0.214px;}.cls-5{fill:#f9b717;}.cls-6{fill:none;}.cls-7{fill:#ea2127;}.cls-8{opacity:0.17;}.cls-9{fill:#fff;}.cls-10{fill:#9e489a;}.cls-11{fill:url(#radial-gradient-2);}.cls-12{fill:#d09633;stroke:#221f1f;stroke-width:0.094px;}.cls-13{fill:#fdf5ac;}.cls-14{fill:#b0e2f9;}.cls-15{fill:#f59183;}.cls-16{fill:#9d4b9c;}</style><radialGradient id="radial-gradient" cx="77.355" cy="77.804" r="61.941" gradientUnits="userSpaceOnUse"><stop offset="0" stop-color="#8fc64f"/><stop offset="1" stop-color="#51753f"/></radialGradient><radialGradient id="radial-gradient-2" cx="82.87" cy="13.808" r="7.763" gradientUnits="userSpaceOnUse"><stop offset="0" stop-color="#fff"/><stop offset="1" stop-color="#ffc906"/></radialGradient></defs><path class="cls-1" d="M54.707,117.506s-16.141,5.072-20.266,6.088-18.474-.34-15.244,2.2,2.152,2.031,5.2,2.709,4.126-1.356,5.378.334-3.046.338-1.434,2.708,5.562-.338,8.968-.508,4.125-.846,2.154.339-8.073,3.888-5.56,4.224,5.2-.675,5.381,0-1.975,2.031,1.973,1.524,3.225-.508,4.662-1.691,1.972-1.86,4.124-2.368,3.408-2.369,2.15-.51-6.274,3.213-4.842,4.736,4.486.508,5.741.678-.359,0,2.689,0,3.945-1.184,6.816-.17-2.152,2.2,4.485,1.86,3.048-1.86,8.609-1.184,3.408-.337,6.991.845,8.252,2.875,7,1.017-1.435-4.569,1.076-3.046a8.67,8.67,0,0,0,3.946,1.524s-6.993-5.413-.18-3.215,6.1,2.708,10.042,4.059,4.844.845,7.354.678a14.91,14.91,0,0,1,6.993.675c3.231,1.013,6.459,3.381,4.666.507s-7.536-4.734-3.051-4.057,6.457,1.858,8.787,2.028,1.795-1.691-.178-2.536,2.871.337,5.739.845-.427-3.044-3.116-4.907-.65.341,1.683.341-.692-1,.2-1.85,1.049-1.192-2.894-2.038-11.478-3.213-13.63-4.563-8.431-3.554-8.97-4.736-3.223-3.887-.714-2.873,3.583,2.366,4.66,2.366-1.255-2.536,2.692-.338,9.683,1.858,6.635,0-8.068-5.245-5.2-4.735.9,1.693,5.2,1.86,5.74.677,4.125-.675-2.153-.679.717-.679,5.2.509,2.869-.677-.9-1.521,1.793-1.858,6.635.34,3.229-1.184a39.224,39.224,0,0,0-12.377-3.212c-3.764-.17-9.144-2.029-12.015-4.735s1.616-1.183,1.616-1.183,1.076,2.7,2.33,1.352,3.052-.846,4.305-.846,5.561-.845,1.791-2.366,10.046.17,6.459-1.691-8.968-1.691-11.657-2.536-9.865-3.552-11.119-5.073-2.51-4.058-.538-2.7,4.3,2.7,3.944,1.353.9-1.353,1.794-1.353,2.152-1.186.718-1.692-5.022-.845-1.432-.506,5.556,1.521,6.992.338,1.97-1.693-.9-2.538a23.907,23.907,0,0,1-8.787-4.055c-3.408-2.538-7.71-4.4-10.042-6.088s-3.587-3.723-1.8-2.708,3.23,2.878,1.8,1.017.359-3.551,1.435-2.2.357,1.69,2.51,2.03,1.8-.338,1.436-1.183.359-1.859,3.584-.508,5.382-1.351,1.077-2.706,6.815.17,3.948-1.352-6.1-2.54-7.356-3.382S96.315,60.016,99,60.356s3.408.337,1.616-.677a34.418,34.418,0,0,1-5.74-3.38c-2.691-2.03-6.276-3.886-3.767-3.382s4.126,1.012,4.126,1.012-1.8-.505-.538-1.012a5.513,5.513,0,0,1,2.511-.5c.714,0,3.584.5,3.047-.68s-2.508-1.86-4.124-2.535a31.985,31.985,0,0,1-6.277-3.892c-1.078-1.011-2.15-3.888-.719-3.213s5.2,2.539,3.768.509-2.69-2.876-4.842-5.07-2.69-5.244-1.971-4.567,2.326,2.706,2.15,1.013-2.509-3.888-2.869-6.084,1.075-.342,2.333.336.177-2.03-1.973-4.566-1.328-6.187-2.046-8.216-.587-4.632-1.37-.653c-.653,3.321-2.325,6.165-2.325,7.181s-4.987,4.378-2.959,4.758c1.043.2,5.292-1.546,3.676.143s-6.276,3.89-3.948,5.073,3.589-.169,2.337,1.183-2.511,3.382-4.126,5.243-4.662,4.9-6.1,5.58-3.405,2.535-.176,2.366,4.484-3.211,4.84-2.2-2.33,2.7-.18,2.537,3.947-3.044,3.048-.509-3.048,3.551-5.917,5.24-7.173,6.595-8.788,7.612-11.837,5.747-7.173,5.411S63.5,60.522,61.7,62.724s-6.817,4.734-2.869,4.4,10.223-4.564,9.507-2.2-3.41,4.734-5.74,6.424-14.347,2.027-13.629,4.227,4.124,1.863,5.738,1.017,2.332,1.011,1.255,1.689S50.044,79.8,54.527,79.8s4.843-.849,6.636-1.186.9.847,3.585-.17,1.438-.674-.355.677-5.381,1.354-2.513,1.858,5.737.341,2.868,2.2-6.811,2.7-10.58,4.226S47.532,92.651,45.2,92.82s-10.223,1.691-8.611,2.539,4.844-1.524,5.2-.171.359,1.52,2.871,1.181,8.247-1.181,5.557.339-10.4,1.017-7.354,2.538,7.176-.507,6.636.674-4.3,1.694.183,1.524,6.454-3.889,6.454-1.861-1.973,2.873.358,2.706,5.56-3.214,4.846-.675-5.92,3.38-9.151,4.226-16.138,2.706-13.988,4.4,6.459,1.013,5.917,2.026-4.123,1.692-1.97,2.029a31.036,31.036,0,0,0,8.787-.168c3.049-.5,7-2.7,5.2-.171s-9.5,2.539-7.89,2.879S54.707,117.506,54.707,117.506Z"/><path class="cls-2" d="M70.687,55.214c1.535-.562,2.628-1.886,4.194-2.375a25.423,25.423,0,0,0-2.873,4.413,42.7,42.7,0,0,0,8.671-5.171l-1.524,7.573q2.871-4.514,5.335-9.227s-3.215,4.814-3.476,4.3.565-3.888.565-4.123-1.912,1.767-3.258,2.434-3.693,2.71-3,.943a15.514,15.514,0,0,1,1.3-2.67s-3.207,1.217-3.511,1.453S70.687,55.214,70.687,55.214Z"/><path class="cls-2" d="M95.47,59.69a2.987,2.987,0,0,1-2.326-.593l-4.361-2.585,4.6,4.235a51.447,51.447,0,0,1-5.731-3.362c1.594,2.375.94,5.5,2.147,8.05a84.914,84.914,0,0,1-7.293-9.9s5.2,7.127,5.284,6.146-1.124-3.024-1.257-3.927-.215-2.592,0-2.219,2.473,2.219,2.126,1.708a5.119,5.119,0,0,1-.652-1.453c0-.118-.384-1.139.981-.157s3.233,2.435,3.841,2.828A27.661,27.661,0,0,0,95.47,59.69Z"/><path class="cls-2" d="M84.887,72.2a35.718,35.718,0,0,1-2.965,7.657c-.654,1.244-1.633,2.611-3.153,2.709a21.154,21.154,0,0,1,1.838-7.05l-2.5,2.8a9.583,9.583,0,0,1-1.846,1.726,3.654,3.654,0,0,1-2.5.63,15.14,15.14,0,0,1,2.986-4.237,12.579,12.579,0,0,1-6.109,2.857l-1.48-.329a11.035,11.035,0,0,0,3.954-1.1c2.085-1.021,4.648-2.906,4.648-2.356s-2.52,3.691-2.433,3.888,2.172-1.885,3-2.474,3.605-2.671,3.605-2.671-1.658,6.6-1.546,6.676,3.2-6.165,3.2-6.165Z"/><path class="cls-2" d="M107.187,78.708a26.573,26.573,0,0,1-11.425-4.262,25.572,25.572,0,0,1,3.433,5.29l-5.569-2.269a5.1,5.1,0,0,1-2.785-1.951,34.5,34.5,0,0,1,2.314,6.564,21.22,21.22,0,0,1-6.621-6.93S91.006,80.8,91.353,79.9s-1.636-6.234-1.636-6.234,6.96,5.163,7.143,4.207-2.422-4.531-2.422-4.531,4,2.16,4.908,2.631S107.187,78.708,107.187,78.708Z"/><path class="cls-2" d="M72.026,64.245c-1.972,2.879-5.749,4.252-8.5,6.546a27.461,27.461,0,0,1,3.622-.694,20.5,20.5,0,0,0,3.233-.507,4.17,4.17,0,0,0,2.537-1.765,21.867,21.867,0,0,1-1.16,5.63c1.639-2.539,4.957-3.876,6.693-6.362q-.663,3.081-1.42,6.144a41.444,41.444,0,0,0,4.155-4.989,12.534,12.534,0,0,0,1.451,5.091,46.653,46.653,0,0,0,1.954-5.018,6.575,6.575,0,0,0,5.131,5.346A11.812,11.812,0,0,1,88.183,67.5s-.349,3.021-.305,3.728-.174.981-1.043-.314a26.962,26.962,0,0,1-2.214-4.2c-.088-.393-.74.471-1,1.178s-.75,3.573-1.114,3.22-.711-4.516-.624-4.869a28.328,28.328,0,0,0-2.824,3.691c-.261.51-1,.471-.738-.314s.738-4.595.738-4.595-2.215,2.71-2.65,3.456-3.084,2.867-3.171,1.885A21.973,21.973,0,0,1,74.194,66s-3.563,2.238-4.127,2.435-2.216.521-2.216.521a10.883,10.883,0,0,0,2.783-2.288A11.981,11.981,0,0,0,72.026,64.245Z"/><path class="cls-2" d="M84.621,83.979A34.182,34.182,0,0,0,93.2,90.115a15.575,15.575,0,0,0-2.437-3.544c1.555,1.079,3.283,2.212,5.243,2.152,0,0-1.261-.733-2-1.165s-4.822-2.434-4.822-2.434,1.914,1.921,1.131,1.923S84.621,83.979,84.621,83.979Z"/><path class="cls-2" d="M59.442,92.649a44.929,44.929,0,0,0,9.178-3.134,29.505,29.505,0,0,0-1.692,3.4,32.6,32.6,0,0,0,5.909-4.235,17.176,17.176,0,0,0-1.707,4.512c1.887-.263,3.3-1.648,4.557-2.949l1.755-1.822a11.018,11.018,0,0,0,3.031-4.375s-3.6,4.767-4.509,5.239-3,1.943-2.574.854a8.347,8.347,0,0,0,.391-2.651s-3.487,2.975-4.334,3.063.033-1.679.033-1.767-5.767,2.032-6.191,2.209S59.442,92.649,59.442,92.649Z"/><path class="cls-3" d="M107.3,106.418A22.107,22.107,0,0,1,96.7,104.1c.578,1.083,1.959,1.572,3.216,1.965a21.861,21.861,0,0,1-9.467-1.772q2.453,1.8,5.048,3.43c-5.382-.99-10.659-2.974-14.647-6.388l5.368,7.947a20.643,20.643,0,0,1-7.528-7.577s3.889,4.976,4.019,4.191-2.949-5.812-2.949-5.812a31.078,31.078,0,0,0,5.643,3.534c2.215.864,6.258,2.749,4.91,1.571s-6.854-3.652-1.842-2.16,7.836,2.238,8.1,2.042-2.954-3.024-1.433-2.631a31.916,31.916,0,0,1,3.779,1.257c3.823,1.3,8.555,2.733,8.555,2.733Z"/><path class="cls-3" d="M47.309,121.931a24.741,24.741,0,0,0,6.867-2.858c.624-.38,1.279-.864,1.37-1.54a22.348,22.348,0,0,1-1.3,4.362,14.18,14.18,0,0,1,2.981-3.684c1-.888,2.224-1.8,2.3-3.069a11.59,11.59,0,0,1-.116,6.172,12.168,12.168,0,0,0,7.395-9.12s-4,7.107-4.871,6.793-2.215-5.262-2.215-5.262-1.3,3.574-2.433,3.731-1.434-.589-1.434-.943-1.216,1.61-2.693,2.513S47.309,121.931,47.309,121.931Z"/><path class="cls-3" d="M84.74,117.441a115.833,115.833,0,0,0-7.12,9.552,4.554,4.554,0,0,1-.843,1.032,21.55,21.55,0,0,1-2.8,1.9c-2.032.759-2.73.241-4.84.8a4.875,4.875,0,0,0,2.424-2.594,49.847,49.847,0,0,0,2.434-5.4c-1.717,1.089-2.611,2.965-4.164,4.241-2.436,2-6.025,2.219-9.077,3.338.456-.11.678-.566.834-.968q1.181-3.049,2.088-6.178a3.8,3.8,0,0,1-1.454,2.563,11.964,11.964,0,0,1-2.727,1.6,15.237,15.237,0,0,1-4.475,1.508A11.7,11.7,0,0,0,57.8,124.9l-5.16,2.321a9.046,9.046,0,0,1-2.089.739c-1.349.243-2.753-.117-4.116.052a15.44,15.44,0,0,0,4.777-.987c2.389-.943,6.6-2.42,7.819-2.938s.739.817-.3,1.642-2.042,2.12-.912,1.374a14.34,14.34,0,0,0,3.736-3.016c.912-1.264,2.65-4.995,2.737-3.345s-1.868,7.2-1.086,7.392,2.259-.285,4.344-1.777,6.473-5.105,7.515-5.262-.868,3.1-1.3,4.241-3.084,3.534-1.26,3.5,3.529-2.049,5.218-4.068S84.74,117.441,84.74,117.441Z"/><path class="cls-3" d="M106.927,134.238a14.427,14.427,0,0,1-7.332-3.106l3.35,3.628a41.118,41.118,0,0,1-7.532-4.414l3.945,6.379-4.409-2.341c-2.015-1.07-4.209-2.349-4.769-4.4a57.98,57.98,0,0,0,5.257,3.675c.912.354.912-.235.13-1.492a15.435,15.435,0,0,1-1.347-3.455s5.517,4.712,5.387,3.691-.391-2.356-.391-2.356a28.371,28.371,0,0,0,3,2.12C103.517,132.913,106.927,134.238,106.927,134.238Z"/><path class="cls-3" d="M88.59,110.427s5.934,6.422,6.412,5.6-1.477-6.743-1.477-6.743,3.867,3.331,4.171,3.408.434-.826.391-1.179,1.694,1.335,3.518,1.963,4.9,1.405,4.9,1.405a31.482,31.482,0,0,1-7.259-1.337l2.386,2.006a20.63,20.63,0,0,1-6.835-4.11,19.04,19.04,0,0,1,2.415,7.276c-3.249-2.534-6.557-5.129-8.743-8.467"/><path class="cls-2" d="M79.8,34.163s-3.385,5.773-4.037,6.676,1.794-.63,2.352-1.238-.51,1.081-.388,2.337,1.136.118,1.454-.942.969.314,1.882,2.827,1.108.55,1.227-1.806.6-1.492,1.683.157,4.983,6.44,3.621,2.238-1.76-7.107-1.887-7.3,0,3.809,0,4.83-1.266-1.452-2.021-2.337-1.433.27-1.919,1.147-1.25.983-1.282-.966S80.1,37.03,79.8,38.129a16.278,16.278,0,0,1-.866,2.288s.3-3.46-.13-2.56a2.493,2.493,0,0,1-1.256,1.2Z"/><path class="cls-4" d="M68.3,109.048a5.767,5.767,0,1,1-5.767-5.768A5.767,5.767,0,0,1,68.3,109.048Z"/><path class="cls-5" d="M61.408,103.742l.071-1.127a.571.571,0,0,1,.541-.47c.469-.024,1.08-.024,1.08-.024a.374.374,0,0,1,.306.258,12.177,12.177,0,0,1,.118,1.363A7.774,7.774,0,0,1,61.408,103.742Z"/><path class="cls-6" d="M62.76,100.938s.133-1.271-.555-.768-.529.609-.081,1.325a5.4,5.4,0,0,1,.345.633"/><path class="cls-7" d="M60.778,100.968a6.264,6.264,0,0,1-1.072-.237,1.366,1.366,0,0,1-.646-.785,1.666,1.666,0,0,0-.551.169.471.471,0,0,0-.125.611.948.948,0,0,0,.739.548,9.509,9.509,0,0,0,1.729,0c.765,0,1.3-.152.8-.258A8.256,8.256,0,0,0,60.778,100.968Z"/><path class="cls-7" d="M63.3,101.079a7.515,7.515,0,0,0,1.665-.563c.264-.233.051-.528.49-.528s1.01.274.9.633-.135.547-.623.653A13.516,13.516,0,0,1,63.3,101.079Z"/><path class="cls-7" d="M62.03,100.474a8.209,8.209,0,0,1-1.265-1.287c-.389-.568-.891-.99-1.416-.906s-.187.347-.665.928a1.915,1.915,0,0,0-.375,1.391c.05.126.113-.4.463-.506s.4-.085.928.21,1.052.422,1.34.57a4.683,4.683,0,0,0,1.09.232Z"/><path class="cls-7" d="M62.643,100.516A4.373,4.373,0,0,0,63.7,99.377a2.789,2.789,0,0,1,1.452-1.2c.351-.083.338-.147.551.444s.627,1.624.664,1.855-.237-.191-.438-.3-.488-.063-1.1.084-.8.464-1.291.695a1.454,1.454,0,0,1-.989.065Z"/><path class="cls-7" d="M62.806,101.022a11.471,11.471,0,0,0,2.142,0c.727-.127.8.125,1.165.442s.388-.043.827,1.244a6.63,6.63,0,0,1,.438,1.811s-.6-1.391-.9-1.453-.451-.464-.4.062a12.235,12.235,0,0,1-.3,2.109c-.038.272.037-.126-.188-1.244s-.037-1.539-.488-2.044a1.3,1.3,0,0,0-1.141-.528A4.044,4.044,0,0,1,62.806,101.022Z"/><path class="cls-7" d="M61.792,101.173a5.3,5.3,0,0,0-1.88.458,1.929,1.929,0,0,0-.727,1.625,6.364,6.364,0,0,1-.313,2.127c-.2.338.013-.569-.05-1.264s-.112-1.285-.463-.906a9.355,9.355,0,0,0-.9,1.5,12.786,12.786,0,0,1,.387-1.685c.264-.843.551-1.393,1.09-1.56a17.89,17.89,0,0,1,2.114-.337Z"/><path class="cls-7" d="M61.942,100.326a1.8,1.8,0,0,0-.113.441,2.3,2.3,0,0,1-.05.38l1.228.106s-.076-.589-.1-.718a.388.388,0,0,0-.151-.209A2.484,2.484,0,0,0,61.942,100.326Z"/><g class="cls-8"><path class="cls-9" d="M58.548,108.64a2.959,2.959,0,0,1,.692-1.917c.038-.053.075-.106.112-.16l-.724-.641a5.953,5.953,0,0,0-.827,2.468A2.046,2.046,0,0,0,58.548,108.64Z"/><path class="cls-9" d="M58.78,108.966a3.286,3.286,0,0,0,.506,2.043l.878-.408a1.8,1.8,0,0,1-.4-1.649c.013-.048.025-.093.038-.139a5.038,5.038,0,0,1-1.018.038Z"/><path class="cls-9" d="M58.781,108.664a5.171,5.171,0,0,0,1.076-.056,10.67,10.67,0,0,1,.436-1.213l-.762-.674-.083.118A2.808,2.808,0,0,0,58.781,108.664Z"/><path class="cls-9" d="M59.1,111.1a3.474,3.474,0,0,1-.554-2.168v-.1a2.452,2.452,0,0,1-.735-.227,13.685,13.685,0,0,0,.731,2.756Z"/></g><path class="cls-4" d="M104.207,93.349a5.767,5.767,0,1,1-5.767-5.767A5.767,5.767,0,0,1,104.207,93.349Z"/><path class="cls-5" d="M97.319,88.043l.071-1.127a.571.571,0,0,1,.541-.47c.47-.024,1.08-.024,1.08-.024a.374.374,0,0,1,.306.258,11.941,11.941,0,0,1,.118,1.363A7.774,7.774,0,0,1,97.319,88.043Z"/><path class="cls-6" d="M98.671,85.239s.133-1.271-.555-.768-.529.609-.08,1.325a5.477,5.477,0,0,1,.344.633"/><path class="cls-7" d="M96.689,85.269a6.284,6.284,0,0,1-1.072-.237,1.363,1.363,0,0,1-.645-.785,1.684,1.684,0,0,0-.551.169.47.47,0,0,0-.126.611.948.948,0,0,0,.74.548,9.42,9.42,0,0,0,1.729,0c.764,0,1.3-.152.8-.257A8.051,8.051,0,0,0,96.689,85.269Z"/><path class="cls-7" d="M99.206,85.38a7.468,7.468,0,0,0,1.666-.563c.263-.233.051-.528.49-.528s1.01.275.9.633-.134.547-.622.653A13.427,13.427,0,0,1,99.206,85.38Z"/><path class="cls-7" d="M97.941,84.775a8.233,8.233,0,0,1-1.265-1.286c-.388-.568-.891-.99-1.416-.907s-.187.347-.664.928a1.915,1.915,0,0,0-.375,1.391c.05.126.112-.4.463-.5s.4-.085.927.209,1.053.422,1.341.571a4.715,4.715,0,0,0,1.089.231Z"/><path class="cls-7" d="M98.554,84.817a4.36,4.36,0,0,0,1.054-1.138,2.783,2.783,0,0,1,1.452-1.2c.351-.084.339-.148.551.444s.627,1.623.664,1.854-.237-.191-.438-.3-.488-.063-1.1.085-.8.463-1.292.7a1.451,1.451,0,0,1-.989.064Z"/><path class="cls-7" d="M98.718,85.323a11.371,11.371,0,0,0,2.141,0c.728-.127.8.126,1.165.443s.389-.044.828,1.243a6.643,6.643,0,0,1,.437,1.812s-.6-1.392-.9-1.453-.451-.465-.4.061a12.245,12.245,0,0,1-.3,2.109c-.039.273.037-.126-.188-1.244s-.038-1.538-.489-2.044a1.3,1.3,0,0,0-1.14-.528A4.032,4.032,0,0,1,98.718,85.323Z"/><path class="cls-7" d="M97.7,85.474a5.3,5.3,0,0,0-1.88.458,1.93,1.93,0,0,0-.727,1.626,6.388,6.388,0,0,1-.313,2.126c-.2.338.012-.568-.05-1.263s-.112-1.286-.463-.907a9.3,9.3,0,0,0-.9,1.5,12.66,12.66,0,0,1,.388-1.685c.263-.844.551-1.394,1.089-1.56a17.775,17.775,0,0,1,2.115-.338Z"/><path class="cls-7" d="M97.853,84.627a1.808,1.808,0,0,0-.112.442,2.313,2.313,0,0,1-.05.38l1.227.105s-.075-.589-.1-.717a.388.388,0,0,0-.151-.21A2.484,2.484,0,0,0,97.853,84.627Z"/><g class="cls-8"><path class="cls-9" d="M94.46,92.941a2.954,2.954,0,0,1,.692-1.917l.112-.16-.725-.641a5.96,5.96,0,0,0-.826,2.468A2.04,2.04,0,0,0,94.46,92.941Z"/><path class="cls-9" d="M94.691,93.267A3.286,3.286,0,0,0,95.2,95.31l.878-.408a1.809,1.809,0,0,1-.4-1.649c.013-.047.026-.093.038-.138a5.031,5.031,0,0,1-1.017.038C94.691,93.191,94.692,93.23,94.691,93.267Z"/><path class="cls-9" d="M94.692,92.966a5.257,5.257,0,0,0,1.077-.057A10.745,10.745,0,0,1,96.2,91.7l-.762-.674c-.027.04-.055.079-.083.118A2.817,2.817,0,0,0,94.692,92.966Z"/><path class="cls-9" d="M95.013,95.4a3.473,3.473,0,0,1-.554-2.168c0-.033,0-.068,0-.1a2.443,2.443,0,0,1-.735-.227,13.6,13.6,0,0,0,.731,2.756Z"/></g><path class="cls-7" d="M97.545,58.831a4.556,4.556,0,1,1-4.556-4.557A4.555,4.555,0,0,1,97.545,58.831Z"/><path class="cls-5" d="M92.1,54.639l.056-.89a.453.453,0,0,1,.428-.372c.371-.019.853-.019.853-.019a.3.3,0,0,1,.242.2,9.646,9.646,0,0,1,.093,1.077A6.157,6.157,0,0,1,92.1,54.639Z"/><path class="cls-6" d="M93.172,52.423s.105-1-.438-.606-.418.481-.064,1.046a4.346,4.346,0,0,1,.272.5"/><path class="cls-7" d="M91.606,52.447a4.947,4.947,0,0,1-.846-.187,1.074,1.074,0,0,1-.51-.62,1.309,1.309,0,0,0-.435.134.372.372,0,0,0-.1.483.75.75,0,0,0,.585.432,7.5,7.5,0,0,0,1.365,0c.6,0,1.024-.12.631-.2A6.431,6.431,0,0,0,91.606,52.447Z"/><path class="cls-7" d="M93.6,52.535a5.917,5.917,0,0,0,1.316-.445c.208-.184.04-.417.387-.417s.8.217.709.5-.107.432-.492.515A10.673,10.673,0,0,1,93.6,52.535Z"/><path class="cls-7" d="M92.6,52.057a6.507,6.507,0,0,1-1-1.016c-.307-.449-.7-.782-1.118-.716s-.148.274-.525.733a1.514,1.514,0,0,0-.3,1.1c.04.1.089-.317.366-.4s.318-.067.733.166.831.334,1.059.451a3.732,3.732,0,0,0,.861.182Z"/><path class="cls-7" d="M93.08,52.09a3.435,3.435,0,0,0,.832-.9,2.207,2.207,0,0,1,1.148-.95c.277-.066.267-.116.435.351s.495,1.282.525,1.465-.188-.151-.347-.234-.385-.049-.871.067-.634.367-1.02.549A1.149,1.149,0,0,1,93,52.49Z"/><path class="cls-7" d="M93.209,52.49a9.039,9.039,0,0,0,1.692,0c.574-.1.634.1.92.35s.307-.034.654.982a5.237,5.237,0,0,1,.346,1.431s-.475-1.1-.713-1.148-.356-.367-.316.049a9.733,9.733,0,0,1-.237,1.666c-.031.215.029-.1-.149-.983s-.03-1.215-.386-1.615a1.021,1.021,0,0,0-.9-.416A3.22,3.22,0,0,1,93.209,52.49Z"/><path class="cls-7" d="M92.408,52.609a4.187,4.187,0,0,0-1.485.362,1.525,1.525,0,0,0-.575,1.284,5.021,5.021,0,0,1-.247,1.68c-.157.267.01-.449-.039-1s-.089-1.016-.366-.716a7.348,7.348,0,0,0-.712,1.182,9.94,9.94,0,0,1,.306-1.331c.208-.667.435-1.1.861-1.232a14.072,14.072,0,0,1,1.67-.267Z"/><path class="cls-7" d="M92.526,51.94a1.432,1.432,0,0,0-.089.349,1.84,1.84,0,0,1-.039.3l.969.084s-.059-.466-.078-.567a.3.3,0,0,0-.119-.166A1.968,1.968,0,0,0,92.526,51.94Z"/><g class="cls-8"><path class="cls-9" d="M89.845,58.508a2.339,2.339,0,0,1,.547-1.514c.03-.042.059-.084.088-.127l-.572-.506a4.707,4.707,0,0,0-.653,1.95A1.624,1.624,0,0,0,89.845,58.508Z"/><path class="cls-9" d="M90.028,58.766a2.6,2.6,0,0,0,.4,1.614l.694-.322a1.431,1.431,0,0,1-.32-1.3c.011-.037.021-.073.031-.109a3.947,3.947,0,0,1-.8.03C90.028,58.705,90.029,58.736,90.028,58.766Z"/><path class="cls-9" d="M90.029,58.528a4.185,4.185,0,0,0,.851-.045,8.672,8.672,0,0,1,.343-.958l-.6-.533-.066.094A2.22,2.22,0,0,0,90.029,58.528Z"/><path class="cls-9" d="M90.283,60.448a2.744,2.744,0,0,1-.438-1.713v-.081a1.954,1.954,0,0,1-.58-.179,10.758,10.758,0,0,0,.577,2.177Z"/></g><path class="cls-10" d="M74.572,60.194a3.8,3.8,0,1,1-3.8-3.8A3.795,3.795,0,0,1,74.572,60.194Z"/><path class="cls-5" d="M70.039,56.7l.047-.741a.377.377,0,0,1,.356-.31c.309-.015.711-.015.711-.015a.244.244,0,0,1,.2.169,7.976,7.976,0,0,1,.078.9A5.094,5.094,0,0,1,70.039,56.7Z"/><path class="cls-6" d="M70.929,54.857s.087-.836-.366-.505-.348.4-.053.871a3.617,3.617,0,0,1,.227.417"/><path class="cls-7" d="M69.624,54.877a4.183,4.183,0,0,1-.7-.156.9.9,0,0,1-.425-.517,1.115,1.115,0,0,0-.363.111.311.311,0,0,0-.082.4.624.624,0,0,0,.487.36,6.168,6.168,0,0,0,1.137,0c.5,0,.853-.1.526-.169A5.2,5.2,0,0,0,69.624,54.877Z"/><path class="cls-7" d="M71.281,54.95a4.895,4.895,0,0,0,1.1-.371c.173-.153.033-.347.322-.347s.665.18.591.417-.089.359-.41.429A8.816,8.816,0,0,1,71.281,54.95Z"/><path class="cls-7" d="M70.448,54.552a5.415,5.415,0,0,1-.832-.847c-.256-.374-.586-.652-.932-.6s-.123.228-.437.61a1.259,1.259,0,0,0-.247.916c.033.083.074-.264.3-.333s.265-.056.611.138.692.278.882.375a3.1,3.1,0,0,0,.717.152Z"/><path class="cls-7" d="M70.852,54.579a2.882,2.882,0,0,0,.693-.749,1.837,1.837,0,0,1,.956-.791c.231-.055.223-.1.363.292s.412,1.068.437,1.221-.156-.126-.289-.2-.321-.042-.725.055-.529.306-.85.458a.959.959,0,0,1-.651.042Z"/><path class="cls-7" d="M70.959,54.912a7.486,7.486,0,0,0,1.41,0c.478-.083.528.083.767.292s.255-.029.544.818a4.369,4.369,0,0,1,.288,1.192s-.4-.916-.593-.956-.3-.306-.264.04a7.936,7.936,0,0,1-.2,1.388c-.025.18.025-.083-.123-.818s-.025-1.013-.322-1.346a.852.852,0,0,0-.751-.347A2.653,2.653,0,0,1,70.959,54.912Z"/><path class="cls-7" d="M70.292,55.012a3.485,3.485,0,0,0-1.237.3,1.27,1.27,0,0,0-.479,1.07,4.2,4.2,0,0,1-.206,1.4c-.131.222.008-.375-.033-.832s-.073-.846-.3-.6a6.129,6.129,0,0,0-.594.985,8.534,8.534,0,0,1,.255-1.109c.174-.555.363-.917.717-1.026a11.714,11.714,0,0,1,1.392-.223Z"/><path class="cls-7" d="M70.39,54.454a1.193,1.193,0,0,0-.074.291,1.518,1.518,0,0,1-.033.25l.808.069s-.05-.387-.065-.472a.253.253,0,0,0-.1-.138A1.636,1.636,0,0,0,70.39,54.454Z"/><g class="cls-8"><path class="cls-9" d="M68.157,59.926a1.941,1.941,0,0,1,.456-1.262l.073-.105-.477-.422a3.921,3.921,0,0,0-.543,1.624A1.331,1.331,0,0,0,68.157,59.926Z"/><path class="cls-9" d="M68.31,60.141a2.16,2.16,0,0,0,.332,1.344l.578-.268a1.2,1.2,0,0,1-.266-1.086l.026-.091a3.349,3.349,0,0,1-.67.025C68.309,60.09,68.31,60.116,68.31,60.141Z"/><path class="cls-9" d="M68.31,59.942a3.459,3.459,0,0,0,.709-.037,7.209,7.209,0,0,1,.286-.8l-.5-.443-.055.078A1.847,1.847,0,0,0,68.31,59.942Z"/><path class="cls-9" d="M68.521,61.542a2.283,2.283,0,0,1-.364-1.427v-.068a1.6,1.6,0,0,1-.484-.149,8.981,8.981,0,0,0,.481,1.814Z"/></g><path class="cls-4" d="M114.452,124.867a5.767,5.767,0,1,1-5.767-5.767A5.767,5.767,0,0,1,114.452,124.867Z"/><path class="cls-5" d="M107.565,119.561l.071-1.127a.572.572,0,0,1,.541-.47c.469-.024,1.08-.024,1.08-.024a.374.374,0,0,1,.306.258,12.177,12.177,0,0,1,.118,1.363A7.774,7.774,0,0,1,107.565,119.561Z"/><path class="cls-6" d="M108.916,116.757s.134-1.271-.555-.768-.529.609-.08,1.325a5.4,5.4,0,0,1,.345.633"/><path class="cls-7" d="M106.934,116.787a6.16,6.16,0,0,1-1.071-.237,1.361,1.361,0,0,1-.646-.784,1.682,1.682,0,0,0-.551.168.472.472,0,0,0-.125.612.947.947,0,0,0,.739.547,9.419,9.419,0,0,0,1.729,0c.764,0,1.3-.152.8-.257A8.079,8.079,0,0,0,106.934,116.787Z"/><path class="cls-7" d="M109.451,116.9a7.468,7.468,0,0,0,1.666-.563c.264-.233.051-.528.49-.528s1.01.275.9.634-.134.546-.622.652A13.436,13.436,0,0,1,109.451,116.9Z"/><path class="cls-7" d="M108.186,116.293a8.23,8.23,0,0,1-1.265-1.286c-.388-.568-.89-.99-1.416-.906s-.186.347-.664.927a1.915,1.915,0,0,0-.375,1.391c.05.127.112-.4.463-.5s.4-.085.928.209,1.052.423,1.34.571a4.721,4.721,0,0,0,1.09.231Z"/><path class="cls-7" d="M108.8,116.335a4.378,4.378,0,0,0,1.054-1.138,2.784,2.784,0,0,1,1.452-1.2c.35-.084.338-.148.551.444s.627,1.623.664,1.854-.237-.191-.438-.3-.488-.063-1.1.085-.8.464-1.291.7a1.45,1.45,0,0,1-.989.064Z"/><path class="cls-7" d="M108.963,116.841a11.381,11.381,0,0,0,2.142,0c.727-.127.8.126,1.165.443s.388-.043.827,1.243a6.639,6.639,0,0,1,.438,1.812s-.6-1.392-.9-1.453-.45-.465-.4.061a12.235,12.235,0,0,1-.3,2.109c-.038.273.037-.126-.188-1.243s-.037-1.539-.488-2.045a1.3,1.3,0,0,0-1.141-.527A4.068,4.068,0,0,1,108.963,116.841Z"/><path class="cls-7" d="M107.949,116.992a5.286,5.286,0,0,0-1.88.459,1.926,1.926,0,0,0-.727,1.625,6.358,6.358,0,0,1-.313,2.126c-.2.338.013-.568-.05-1.263s-.112-1.286-.463-.906a9.234,9.234,0,0,0-.9,1.5,12.564,12.564,0,0,1,.387-1.685c.264-.844.551-1.393,1.09-1.56a17.735,17.735,0,0,1,2.114-.338Z"/><path class="cls-7" d="M108.1,116.145a1.8,1.8,0,0,0-.113.442,2.313,2.313,0,0,1-.05.38l1.227.105s-.075-.589-.1-.717a.388.388,0,0,0-.151-.21A2.513,2.513,0,0,0,108.1,116.145Z"/><g class="cls-8"><path class="cls-9" d="M104.705,124.459a2.961,2.961,0,0,1,.692-1.917c.038-.053.075-.106.112-.16l-.725-.641a5.974,5.974,0,0,0-.826,2.468A2.04,2.04,0,0,0,104.705,124.459Z"/><path class="cls-9" d="M104.937,124.785a3.289,3.289,0,0,0,.506,2.044l.878-.408a1.807,1.807,0,0,1-.4-1.65c.012-.047.025-.093.038-.138a5.041,5.041,0,0,1-1.018.038Z"/><path class="cls-9" d="M104.938,124.484a5.251,5.251,0,0,0,1.076-.057,11.046,11.046,0,0,1,.435-1.213l-.761-.674-.083.119A2.806,2.806,0,0,0,104.938,124.484Z"/><path class="cls-9" d="M105.259,126.914a3.465,3.465,0,0,1-.554-2.168v-.1a2.452,2.452,0,0,1-.735-.227,13.666,13.666,0,0,0,.731,2.756Z"/></g><path class="cls-7" d="M86.8,34.864a4.556,4.556,0,1,1-4.556-4.556A4.556,4.556,0,0,1,86.8,34.864Z"/><path class="cls-5" d="M81.354,30.673l.056-.891a.45.45,0,0,1,.428-.371c.37-.019.853-.019.853-.019a.294.294,0,0,1,.241.2,9.434,9.434,0,0,1,.094,1.077A6.157,6.157,0,0,1,81.354,30.673Z"/><path class="cls-6" d="M82.422,28.457s.105-1-.439-.606-.417.481-.063,1.046a4.291,4.291,0,0,1,.272.5"/><path class="cls-7" d="M80.856,28.481a4.947,4.947,0,0,1-.846-.187,1.077,1.077,0,0,1-.51-.62,1.336,1.336,0,0,0-.436.133.372.372,0,0,0-.1.483.751.751,0,0,0,.584.433,7.508,7.508,0,0,0,1.366,0c.6,0,1.023-.12.631-.2A6.369,6.369,0,0,0,80.856,28.481Z"/><path class="cls-7" d="M82.845,28.569a5.912,5.912,0,0,0,1.315-.445c.209-.184.041-.417.387-.417s.8.217.709.5-.106.432-.491.516A10.673,10.673,0,0,1,82.845,28.569Z"/><path class="cls-7" d="M81.845,28.091a6.494,6.494,0,0,1-1-1.017c-.307-.448-.7-.782-1.119-.715s-.147.274-.524.732a1.515,1.515,0,0,0-.3,1.1c.04.1.089-.316.366-.4s.318-.067.733.165.831.334,1.059.451a3.68,3.68,0,0,0,.86.183Z"/><path class="cls-7" d="M82.33,28.124a3.455,3.455,0,0,0,.832-.9,2.2,2.2,0,0,1,1.148-.95c.276-.066.267-.116.435.351s.495,1.282.524,1.465-.187-.151-.346-.234-.385-.05-.871.067-.634.366-1.02.549a1.148,1.148,0,0,1-.781.051Z"/><path class="cls-7" d="M82.459,28.524a9.036,9.036,0,0,0,1.692,0c.574-.1.633.1.92.349s.307-.034.654.982a5.259,5.259,0,0,1,.345,1.432s-.474-1.1-.712-1.148-.356-.367-.316.049a9.64,9.64,0,0,1-.238,1.666c-.03.215.03-.1-.148-.983s-.03-1.216-.386-1.615a1.024,1.024,0,0,0-.9-.417A3.2,3.2,0,0,1,82.459,28.524Z"/><path class="cls-7" d="M81.658,28.643a4.187,4.187,0,0,0-1.485.362,1.524,1.524,0,0,0-.575,1.284,5.047,5.047,0,0,1-.247,1.68c-.157.267.01-.449-.04-1s-.088-1.016-.365-.716a7.3,7.3,0,0,0-.712,1.182,9.9,9.9,0,0,1,.306-1.331c.208-.667.435-1.1.86-1.233a14.054,14.054,0,0,1,1.671-.266Z"/><path class="cls-7" d="M81.776,27.974a1.418,1.418,0,0,0-.089.349,1.8,1.8,0,0,1-.04.3l.97.083s-.06-.465-.078-.567a.307.307,0,0,0-.119-.165A1.968,1.968,0,0,0,81.776,27.974Z"/><g class="cls-8"><path class="cls-9" d="M79.1,34.542a2.337,2.337,0,0,1,.547-1.515c.029-.041.059-.083.088-.126l-.572-.507a4.712,4.712,0,0,0-.653,1.95A1.625,1.625,0,0,0,79.1,34.542Z"/><path class="cls-9" d="M79.278,34.8a2.6,2.6,0,0,0,.4,1.615l.693-.323a1.432,1.432,0,0,1-.319-1.3l.03-.109a4.014,4.014,0,0,1-.8.03Z"/><path class="cls-9" d="M79.279,34.561a4.168,4.168,0,0,0,.85-.044,8.506,8.506,0,0,1,.344-.959l-.6-.532-.065.093A2.219,2.219,0,0,0,79.279,34.561Z"/><path class="cls-9" d="M79.532,36.481a2.741,2.741,0,0,1-.437-1.712v-.081a1.96,1.96,0,0,1-.581-.179,10.835,10.835,0,0,0,.578,2.177Z"/></g><path class="cls-7" d="M87.3,100.3a4.556,4.556,0,1,1-4.555-4.556A4.555,4.555,0,0,1,87.3,100.3Z"/><path class="cls-5" d="M81.861,96.105l.055-.891a.452.452,0,0,1,.428-.371c.371-.019.853-.019.853-.019a.3.3,0,0,1,.242.2,9.627,9.627,0,0,1,.093,1.077A6.15,6.15,0,0,1,81.861,96.105Z"/><path class="cls-6" d="M82.928,93.889s.105-1-.438-.606-.418.481-.064,1.046a4.2,4.2,0,0,1,.272.5"/><path class="cls-7" d="M81.362,93.913a4.947,4.947,0,0,1-.846-.187,1.077,1.077,0,0,1-.51-.62,1.325,1.325,0,0,0-.435.133.372.372,0,0,0-.1.483.749.749,0,0,0,.584.433,7.508,7.508,0,0,0,1.366,0c.6,0,1.023-.12.63-.2A6.369,6.369,0,0,0,81.362,93.913Z"/><path class="cls-7" d="M83.351,94a5.917,5.917,0,0,0,1.316-.445c.208-.184.04-.417.387-.417s.8.217.709.5-.107.432-.492.516A10.673,10.673,0,0,1,83.351,94Z"/><path class="cls-7" d="M82.352,93.523a6.507,6.507,0,0,1-1-1.016c-.307-.449-.7-.783-1.118-.716s-.148.274-.525.732a1.515,1.515,0,0,0-.3,1.1c.04.1.089-.316.366-.4s.318-.067.733.165.831.334,1.059.451a3.7,3.7,0,0,0,.861.183Z"/><path class="cls-7" d="M82.836,93.556a3.468,3.468,0,0,0,.833-.9,2.2,2.2,0,0,1,1.147-.95c.277-.066.267-.116.435.351s.495,1.282.525,1.465-.188-.151-.347-.234-.385-.05-.871.067-.634.366-1.02.549a1.149,1.149,0,0,1-.781.051Z"/><path class="cls-7" d="M82.965,93.956a9.039,9.039,0,0,0,1.692,0c.575-.1.634.1.92.349s.307-.034.654.982a5.246,5.246,0,0,1,.346,1.432s-.475-1.1-.712-1.148-.357-.367-.317.049a9.748,9.748,0,0,1-.237,1.666c-.031.215.029-.1-.149-.983s-.03-1.216-.386-1.615a1.024,1.024,0,0,0-.9-.417A3.2,3.2,0,0,1,82.965,93.956Z"/><path class="cls-7" d="M82.164,94.075a4.187,4.187,0,0,0-1.485.362,1.523,1.523,0,0,0-.574,1.284,5.019,5.019,0,0,1-.248,1.68c-.157.267.01-.449-.039-1s-.088-1.016-.366-.716a7.348,7.348,0,0,0-.712,1.182,10.087,10.087,0,0,1,.306-1.331c.208-.667.435-1.1.861-1.233a14.014,14.014,0,0,1,1.67-.266Z"/><path class="cls-7" d="M82.282,93.406a1.418,1.418,0,0,0-.089.349,1.84,1.84,0,0,1-.039.3l.969.083s-.059-.465-.078-.567a.3.3,0,0,0-.119-.165A1.967,1.967,0,0,0,82.282,93.406Z"/><g class="cls-8"><path class="cls-9" d="M79.6,99.974a2.336,2.336,0,0,1,.546-1.515c.03-.041.059-.083.088-.126l-.572-.506a4.7,4.7,0,0,0-.653,1.949A1.623,1.623,0,0,0,79.6,99.974Z"/><path class="cls-9" d="M79.784,100.231a2.6,2.6,0,0,0,.4,1.615l.694-.323a1.428,1.428,0,0,1-.32-1.3c.011-.037.021-.073.031-.109a3.947,3.947,0,0,1-.8.03C79.784,100.171,79.785,100.2,79.784,100.231Z"/><path class="cls-9" d="M79.785,99.993a4.177,4.177,0,0,0,.851-.044,8.805,8.805,0,0,1,.343-.959l-.6-.532-.066.093A2.224,2.224,0,0,0,79.785,99.993Z"/><path class="cls-9" d="M80.039,101.913A2.741,2.741,0,0,1,79.6,100.2v-.081a1.954,1.954,0,0,1-.58-.179,10.758,10.758,0,0,0,.577,2.177Z"/></g><path class="cls-10" d="M91.554,73.841a3.8,3.8,0,1,1-3.8-3.8A3.8,3.8,0,0,1,91.554,73.841Z"/><path class="cls-5" d="M87.021,70.349l.047-.742a.375.375,0,0,1,.356-.309c.309-.016.711-.016.711-.016a.246.246,0,0,1,.2.17,7.957,7.957,0,0,1,.078.9A5.135,5.135,0,0,1,87.021,70.349Z"/><path class="cls-6" d="M87.911,68.5s.087-.836-.365-.5-.349.4-.053.872a3.421,3.421,0,0,1,.226.417"/><path class="cls-7" d="M86.606,68.523a4.082,4.082,0,0,1-.7-.156.9.9,0,0,1-.425-.516,1.08,1.08,0,0,0-.362.111.31.31,0,0,0-.083.4.625.625,0,0,0,.487.361,6.268,6.268,0,0,0,1.138,0c.5,0,.852-.1.525-.17A5.468,5.468,0,0,0,86.606,68.523Z"/><path class="cls-7" d="M88.263,68.6a4.935,4.935,0,0,0,1.1-.37c.174-.153.034-.348.323-.348s.664.181.59.417-.088.36-.409.43A8.9,8.9,0,0,1,88.263,68.6Z"/><path class="cls-7" d="M87.43,68.2a5.39,5.39,0,0,1-.832-.846c-.256-.374-.586-.652-.932-.6s-.123.229-.437.611a1.256,1.256,0,0,0-.247.915c.033.083.074-.263.305-.333s.264-.056.61.138.693.278.882.376a3.1,3.1,0,0,0,.717.152Z"/><path class="cls-7" d="M87.834,68.226a2.9,2.9,0,0,0,.694-.749,1.831,1.831,0,0,1,.955-.791c.231-.055.223-.1.363.292s.413,1.068.437,1.22S90.127,68.073,90,68s-.322-.042-.726.055-.528.305-.85.457a.956.956,0,0,1-.651.043Z"/><path class="cls-7" d="M87.942,68.559a7.475,7.475,0,0,0,1.409,0c.479-.084.528.083.767.291s.255-.028.544.818a4.37,4.37,0,0,1,.288,1.193s-.395-.916-.593-.957-.3-.3-.264.041a8.071,8.071,0,0,1-.2,1.388c-.026.179.024-.083-.124-.819s-.025-1.012-.322-1.345a.852.852,0,0,0-.75-.347A2.673,2.673,0,0,1,87.942,68.559Z"/><path class="cls-7" d="M87.274,68.658a3.493,3.493,0,0,0-1.237.3,1.269,1.269,0,0,0-.479,1.069,4.226,4.226,0,0,1-.205,1.4c-.131.222.008-.374-.033-.832s-.074-.846-.3-.6a6.1,6.1,0,0,0-.593.985,8.308,8.308,0,0,1,.255-1.109c.173-.556.362-.917.717-1.027a11.83,11.83,0,0,1,1.391-.222Z"/><path class="cls-7" d="M87.373,68.1a1.181,1.181,0,0,0-.074.29,1.518,1.518,0,0,1-.033.251l.807.069s-.049-.388-.065-.472a.253.253,0,0,0-.1-.138A1.631,1.631,0,0,0,87.373,68.1Z"/><g class="cls-8"><path class="cls-9" d="M85.139,73.572a1.945,1.945,0,0,1,.456-1.261c.024-.035.049-.07.073-.106l-.477-.421a3.93,3.93,0,0,0-.543,1.624A1.33,1.33,0,0,0,85.139,73.572Z"/><path class="cls-9" d="M85.292,73.787a2.157,2.157,0,0,0,.333,1.345l.578-.269a1.186,1.186,0,0,1-.266-1.085l.025-.091a3.349,3.349,0,0,1-.67.025Z"/><path class="cls-9" d="M85.292,73.589A3.4,3.4,0,0,0,86,73.551a7.161,7.161,0,0,1,.286-.8l-.5-.443-.055.077A1.857,1.857,0,0,0,85.292,73.589Z"/><path class="cls-9" d="M85.5,75.188a2.277,2.277,0,0,1-.365-1.427v-.067a1.638,1.638,0,0,1-.484-.149,9.058,9.058,0,0,0,.482,1.814Z"/></g><path class="cls-10" d="M60.26,84.778a3.8,3.8,0,1,1-3.795-3.8A3.8,3.8,0,0,1,60.26,84.778Z"/><path class="cls-5" d="M55.728,81.286l.046-.742a.375.375,0,0,1,.356-.309c.309-.016.711-.016.711-.016a.246.246,0,0,1,.2.17,7.957,7.957,0,0,1,.078.9A5.128,5.128,0,0,1,55.728,81.286Z"/><path class="cls-6" d="M56.617,79.44s.088-.836-.365-.5-.348.4-.053.872a3.524,3.524,0,0,1,.227.417"/><path class="cls-7" d="M55.313,79.46a4.087,4.087,0,0,1-.706-.156.892.892,0,0,1-.424-.516,1.09,1.09,0,0,0-.363.111.309.309,0,0,0-.083.4.623.623,0,0,0,.487.36,6.179,6.179,0,0,0,1.138,0c.5,0,.852-.1.525-.169A5.439,5.439,0,0,0,55.313,79.46Z"/><path class="cls-7" d="M56.969,79.533a4.957,4.957,0,0,0,1.1-.37c.173-.154.033-.348.322-.348s.665.181.59.417-.088.36-.409.429A8.82,8.82,0,0,1,56.969,79.533Z"/><path class="cls-7" d="M56.137,79.135a5.4,5.4,0,0,1-.833-.847c-.255-.373-.586-.651-.932-.6s-.123.228-.437.61a1.264,1.264,0,0,0-.247.916c.033.083.074-.264.3-.333s.265-.056.61.138.693.278.883.376a3.085,3.085,0,0,0,.717.152Z"/><path class="cls-7" d="M56.54,79.163a2.876,2.876,0,0,0,.694-.749,1.831,1.831,0,0,1,.956-.792c.23-.055.222-.1.362.293s.413,1.068.437,1.22-.156-.126-.288-.2-.321-.041-.726.056-.528.305-.85.457a.956.956,0,0,1-.651.043Z"/><path class="cls-7" d="M56.648,79.5a7.567,7.567,0,0,0,1.409,0c.479-.084.528.082.767.291s.256-.028.545.818a4.37,4.37,0,0,1,.288,1.193s-.4-.916-.594-.957-.3-.3-.263.041a8.162,8.162,0,0,1-.2,1.388c-.025.179.024-.083-.124-.819s-.025-1.012-.321-1.345a.854.854,0,0,0-.751-.347A2.686,2.686,0,0,1,56.648,79.5Z"/><path class="cls-7" d="M55.98,79.6a3.47,3.47,0,0,0-1.237.3,1.268,1.268,0,0,0-.478,1.069,4.2,4.2,0,0,1-.206,1.4c-.131.222.008-.374-.033-.832s-.074-.846-.305-.6a6.1,6.1,0,0,0-.593.985,8.308,8.308,0,0,1,.255-1.109c.173-.556.363-.917.717-1.027a11.625,11.625,0,0,1,1.392-.222Z"/><path class="cls-7" d="M56.079,79.038a1.181,1.181,0,0,0-.074.29,1.5,1.5,0,0,1-.033.25l.808.07s-.05-.388-.065-.472a.258.258,0,0,0-.1-.138A1.631,1.631,0,0,0,56.079,79.038Z"/><g class="cls-8"><path class="cls-9" d="M53.846,84.509a1.945,1.945,0,0,1,.455-1.261l.074-.106L53.9,82.72a3.925,3.925,0,0,0-.544,1.625A1.335,1.335,0,0,0,53.846,84.509Z"/><path class="cls-9" d="M54,84.724a2.163,2.163,0,0,0,.333,1.345l.578-.269a1.19,1.19,0,0,1-.266-1.086l.025-.09a3.349,3.349,0,0,1-.67.025Z"/><path class="cls-9" d="M54,84.526a3.457,3.457,0,0,0,.708-.038,7,7,0,0,1,.287-.8l-.5-.444-.054.078A1.847,1.847,0,0,0,54,84.526Z"/><path class="cls-9" d="M54.21,86.125a2.29,2.29,0,0,1-.365-1.427v-.067a1.629,1.629,0,0,1-.484-.149,9,9,0,0,0,.481,1.814Z"/></g><path class="cls-7" d="M79.378,129.078a4.556,4.556,0,1,1-4.556-4.556A4.556,4.556,0,0,1,79.378,129.078Z"/><path class="cls-5" d="M73.937,124.887l.056-.891a.451.451,0,0,1,.427-.371c.371-.019.853-.019.853-.019a.3.3,0,0,1,.242.2,9.627,9.627,0,0,1,.093,1.077A6.15,6.15,0,0,1,73.937,124.887Z"/><path class="cls-6" d="M75.005,122.671s.105-1-.439-.606-.418.481-.063,1.046a4.346,4.346,0,0,1,.272.5"/><path class="cls-7" d="M73.439,122.7a4.952,4.952,0,0,1-.847-.187,1.079,1.079,0,0,1-.51-.62,1.309,1.309,0,0,0-.435.134.371.371,0,0,0-.1.482.749.749,0,0,0,.584.433,7.508,7.508,0,0,0,1.366,0c.6,0,1.023-.12.631-.2A6.444,6.444,0,0,0,73.439,122.7Z"/><path class="cls-7" d="M75.427,122.783a5.917,5.917,0,0,0,1.316-.445c.208-.184.04-.417.387-.417s.8.217.709.5-.106.432-.491.516A10.686,10.686,0,0,1,75.427,122.783Z"/><path class="cls-7" d="M74.428,122.305a6.471,6.471,0,0,1-1-1.016c-.307-.449-.7-.782-1.119-.716s-.147.274-.525.733a1.511,1.511,0,0,0-.3,1.1c.039.1.089-.317.366-.4s.317-.067.732.166.832.333,1.059.45a3.7,3.7,0,0,0,.861.183Z"/><path class="cls-7" d="M74.912,122.338a3.448,3.448,0,0,0,.833-.9,2.2,2.2,0,0,1,1.147-.95c.277-.066.267-.116.435.351s.5,1.282.525,1.465-.187-.151-.346-.234-.386-.049-.871.067-.634.366-1.02.549a1.151,1.151,0,0,1-.782.051Z"/><path class="cls-7" d="M75.041,122.738a9.039,9.039,0,0,0,1.692,0c.575-.1.634.1.921.35s.306-.035.653.982a5.237,5.237,0,0,1,.346,1.431s-.475-1.1-.712-1.148-.356-.367-.317.049a9.635,9.635,0,0,1-.237,1.666c-.03.215.029-.1-.148-.983s-.03-1.215-.386-1.615a1.026,1.026,0,0,0-.9-.417A3.208,3.208,0,0,1,75.041,122.738Z"/><path class="cls-7" d="M74.24,122.857a4.192,4.192,0,0,0-1.485.362,1.523,1.523,0,0,0-.574,1.284,5.047,5.047,0,0,1-.247,1.68c-.157.267.01-.449-.04-1s-.088-1.016-.366-.716a7.348,7.348,0,0,0-.712,1.182,10.126,10.126,0,0,1,.306-1.331c.209-.667.436-1.1.861-1.232a14.1,14.1,0,0,1,1.67-.267Z"/><path class="cls-7" d="M74.359,122.188a1.418,1.418,0,0,0-.089.349,1.8,1.8,0,0,1-.04.3l.97.084s-.06-.466-.078-.567a.307.307,0,0,0-.12-.166A1.961,1.961,0,0,0,74.359,122.188Z"/><g class="cls-8"><path class="cls-9" d="M71.678,128.756a2.334,2.334,0,0,1,.547-1.514l.088-.127-.573-.506a4.722,4.722,0,0,0-.652,1.949A1.6,1.6,0,0,0,71.678,128.756Z"/><path class="cls-9" d="M71.861,129.014a2.6,2.6,0,0,0,.4,1.614l.694-.323a1.426,1.426,0,0,1-.319-1.3l.03-.109a3.944,3.944,0,0,1-.8.03Z"/><path class="cls-9" d="M71.861,128.775a4.107,4.107,0,0,0,.851-.044,8.506,8.506,0,0,1,.344-.959l-.6-.532-.065.094A2.22,2.22,0,0,0,71.861,128.775Z"/><path class="cls-9" d="M72.115,130.7a2.74,2.74,0,0,1-.438-1.712V128.9a1.96,1.96,0,0,1-.581-.179,10.749,10.749,0,0,0,.578,2.177Z"/></g><path class="cls-7" d="M106.326,75.484a4.556,4.556,0,1,1-4.556-4.556A4.555,4.555,0,0,1,106.326,75.484Z"/><path class="cls-5" d="M100.885,71.293l.056-.891a.452.452,0,0,1,.428-.371c.371-.019.853-.019.853-.019a.3.3,0,0,1,.242.2,9.627,9.627,0,0,1,.093,1.077A6.157,6.157,0,0,1,100.885,71.293Z"/><path class="cls-6" d="M101.953,69.077s.105-1-.438-.606-.418.481-.064,1.046a4.291,4.291,0,0,1,.272.5"/><path class="cls-7" d="M100.387,69.1a4.947,4.947,0,0,1-.846-.187,1.077,1.077,0,0,1-.51-.62,1.325,1.325,0,0,0-.435.133.372.372,0,0,0-.1.483.751.751,0,0,0,.585.433,7.5,7.5,0,0,0,1.365,0c.6,0,1.024-.12.631-.2A6.369,6.369,0,0,0,100.387,69.1Z"/><path class="cls-7" d="M102.376,69.189a5.917,5.917,0,0,0,1.316-.445c.208-.184.04-.417.387-.417s.8.217.709.5-.107.432-.492.516A10.673,10.673,0,0,1,102.376,69.189Z"/><path class="cls-7" d="M101.376,68.711a6.494,6.494,0,0,1-1-1.017c-.307-.448-.7-.782-1.119-.715s-.147.274-.524.732a1.515,1.515,0,0,0-.3,1.1c.04.1.089-.316.366-.4s.318-.067.733.165.831.334,1.059.451a3.7,3.7,0,0,0,.861.183Z"/><path class="cls-7" d="M101.861,68.744a3.455,3.455,0,0,0,.832-.9,2.2,2.2,0,0,1,1.148-.95c.277-.066.267-.116.435.351s.5,1.282.525,1.465-.188-.151-.347-.234-.385-.05-.871.067-.634.366-1.02.549a1.148,1.148,0,0,1-.781.051Z"/><path class="cls-7" d="M101.99,69.144a9.039,9.039,0,0,0,1.692,0c.574-.1.634.1.92.349s.307-.034.654.982a5.246,5.246,0,0,1,.346,1.432s-.475-1.1-.713-1.148-.356-.367-.316.049a9.748,9.748,0,0,1-.237,1.666c-.031.215.029-.1-.149-.983s-.03-1.216-.386-1.615a1.024,1.024,0,0,0-.9-.417A3.2,3.2,0,0,1,101.99,69.144Z"/><path class="cls-7" d="M101.189,69.263a4.187,4.187,0,0,0-1.485.362,1.524,1.524,0,0,0-.575,1.284,5.025,5.025,0,0,1-.247,1.68c-.157.267.01-.449-.039-1s-.089-1.016-.366-.716a7.3,7.3,0,0,0-.712,1.182,9.9,9.9,0,0,1,.306-1.331c.208-.667.435-1.1.861-1.233a14.014,14.014,0,0,1,1.67-.266Z"/><path class="cls-7" d="M101.307,68.594a1.418,1.418,0,0,0-.089.349,1.84,1.84,0,0,1-.039.3l.969.083s-.059-.465-.078-.567a.3.3,0,0,0-.119-.165A1.968,1.968,0,0,0,101.307,68.594Z"/><g class="cls-8"><path class="cls-9" d="M98.626,75.162a2.342,2.342,0,0,1,.547-1.515c.03-.041.059-.084.088-.126l-.572-.507a4.712,4.712,0,0,0-.653,1.95A1.625,1.625,0,0,0,98.626,75.162Z"/><path class="cls-9" d="M98.809,75.419a2.6,2.6,0,0,0,.4,1.615l.694-.323a1.429,1.429,0,0,1-.32-1.3c.01-.037.021-.073.031-.109a4.027,4.027,0,0,1-.805.03C98.809,75.359,98.81,75.39,98.809,75.419Z"/><path class="cls-9" d="M98.81,75.181a4.177,4.177,0,0,0,.851-.044,8.805,8.805,0,0,1,.343-.959l-.6-.532-.066.093A2.224,2.224,0,0,0,98.81,75.181Z"/><path class="cls-9" d="M99.064,77.1a2.743,2.743,0,0,1-.438-1.712v-.081a1.954,1.954,0,0,1-.58-.179,10.777,10.777,0,0,0,.577,2.177Z"/></g><polygon class="cls-11" points="82.159 13.182 79.987 8.166 82.494 12.932 82.995 6.327 83.247 12.68 86.676 5.071 83.666 13.015 88.933 8.752 84.082 13.599 89.518 11.927 84.419 14.018 88.848 14.438 84.502 14.438 88.763 16.611 84.25 15.273 86.923 18.87 84.082 16.026 85.336 20.122 83.747 16.278 83.666 22.546 82.829 16.527 81.658 22.044 82.078 16.527 76.39 19.954 81.574 15.942 76.223 17.53 81.574 15.021 77.145 13.935 81.239 14.103 77.06 10.758 81.408 13.683 78.65 9.42 82.159 13.182"/><polygon class="cls-9" points="102.628 108.775 102.628 107.803 102.846 108.775 103.696 107.173 103.032 108.842 104.11 108.278 103.184 108.987 104.383 108.987 103.162 109.177 108.046 110.948 103.14 109.456 103.587 110.304 102.955 109.578 103.686 112.776 102.748 109.567 102.269 110.606 102.509 109.511 100.681 111.523 102.378 109.322 101.299 109.456 102.291 109.11 99.661 108.342 102.41 108.875 101.507 107.173 102.574 108.752 102.628 108.775"/><polygon class="cls-9" points="78.83 59.639 78.83 58.667 79.048 59.639 79.897 58.037 79.233 59.706 80.311 59.142 79.386 59.851 80.584 59.851 79.364 60.041 84.247 61.812 79.342 60.32 79.789 61.168 79.157 60.443 79.888 63.64 78.95 60.431 78.47 61.47 78.71 60.376 76.883 62.387 78.579 60.186 77.501 60.32 78.492 59.974 75.863 59.206 78.612 59.739 77.708 58.037 78.775 59.616 78.83 59.639"/><polygon class="cls-9" points="90.766 126.766 91.62 126.304 90.87 126.958 92.683 126.942 90.899 127.153 91.908 127.832 90.844 127.356 91.415 128.41 90.667 127.427 91.434 132.565 90.411 127.541 89.878 128.338 90.215 127.436 87.752 129.602 90.126 127.249 88.985 127.322 90.061 127.012 87.422 126.363 90.166 126.806 89.534 125.922 90.311 126.629 89.734 123.951 90.574 126.622 91.64 125.017 90.76 126.708 90.766 126.766"/><polygon class="cls-9" points="91.339 58.383 92.193 57.921 91.442 58.575 93.255 58.559 91.472 58.77 92.481 59.449 91.417 58.973 91.987 60.027 91.239 59.044 92.007 64.182 90.984 59.158 90.45 59.955 90.787 59.054 88.324 61.219 90.699 58.866 89.557 58.939 90.634 58.629 87.994 57.98 90.738 58.424 90.107 57.539 90.883 58.246 90.306 55.568 91.146 58.24 92.213 56.635 91.332 58.325 91.339 58.383"/><polygon class="cls-9" points="51.189 109.583 51.189 108.612 51.407 109.583 52.256 107.982 51.592 109.65 52.67 109.086 51.745 109.795 52.943 109.795 51.723 109.985 56.607 111.757 51.701 110.264 52.148 111.113 51.516 110.387 52.247 113.584 51.309 110.376 50.829 111.414 51.069 110.32 49.242 112.332 50.938 110.13 49.86 110.264 50.851 109.918 48.222 109.15 50.971 109.684 50.067 107.982 51.135 109.561 51.189 109.583"/><polygon class="cls-9" points="85.603 84.985 85.603 84.014 85.821 84.985 86.67 83.384 86.006 85.052 87.084 84.488 86.158 85.197 87.357 85.197 86.137 85.387 91.02 87.159 86.115 85.666 86.561 86.515 85.929 85.789 86.661 88.986 85.722 85.778 85.243 86.816 85.483 85.722 83.656 87.734 85.352 85.532 84.273 85.666 85.265 85.32 82.635 84.553 85.385 85.086 84.481 83.384 85.548 84.963 85.603 84.985"/><polygon class="cls-9" points="70.038 68.917 69.231 68.376 70.159 68.736 69.303 67.138 70.318 68.62 70.451 67.41 70.524 68.574 71.192 67.579 70.669 68.698 74.862 65.63 70.889 68.871 71.842 68.973 70.887 69.094 73.949 70.268 70.763 69.259 71.358 70.236 70.583 69.427 71.235 72.066 70.352 69.43 69.862 70.4 70.128 69.384 68.025 71.14 70 69.154 68.083 68.956 69.989 68.95 70.038 68.917"/><polygon class="cls-9" points="108.176 97.703 108.361 96.749 108.39 97.744 110.207 94.713 108.559 97.845 109.725 97.497 108.682 98.017 109.858 98.245 108.624 98.199 110.886 100.206 108.55 98.469 108.827 99.387 108.344 98.554 108.455 101.832 108.143 98.504 107.475 99.432 107.919 98.404 105.742 100.031 107.826 98.192 106.742 98.119 107.781 97.968 105.345 96.714 107.943 97.76 107.38 95.918 108.127 97.671 108.176 97.703"/><path class="cls-10" d="M55.068,128.5a3.8,3.8,0,1,1-3.8-3.8A3.795,3.795,0,0,1,55.068,128.5Z"/><path class="cls-5" d="M50.535,125l.046-.742a.376.376,0,0,1,.357-.309c.308-.016.71-.016.71-.016a.247.247,0,0,1,.2.17,7.914,7.914,0,0,1,.077.9A5.128,5.128,0,0,1,50.535,125Z"/><path class="cls-6" d="M51.424,123.157s.088-.836-.365-.5-.348.4-.053.872a3.524,3.524,0,0,1,.227.417"/><path class="cls-7" d="M50.12,123.177a4.082,4.082,0,0,1-.7-.156.9.9,0,0,1-.425-.516,1.115,1.115,0,0,0-.363.111.31.31,0,0,0-.082.4.623.623,0,0,0,.486.361,6.268,6.268,0,0,0,1.138,0c.5,0,.853-.1.526-.17A5.468,5.468,0,0,0,50.12,123.177Z"/><path class="cls-7" d="M51.776,123.25a4.957,4.957,0,0,0,1.1-.37c.173-.153.033-.347.322-.347s.665.18.591.416-.089.36-.41.43A8.9,8.9,0,0,1,51.776,123.25Z"/><path class="cls-7" d="M50.944,122.852a5.425,5.425,0,0,1-.833-.846c-.255-.374-.586-.652-.932-.6s-.122.229-.437.611a1.261,1.261,0,0,0-.247.915c.033.083.074-.263.3-.332s.265-.056.611.137.692.278.882.376a3.085,3.085,0,0,0,.717.152Z"/><path class="cls-7" d="M51.348,122.88a2.882,2.882,0,0,0,.693-.749A1.828,1.828,0,0,1,53,121.34c.231-.055.222-.1.362.292s.413,1.068.438,1.22-.157-.125-.289-.194-.321-.042-.726.055-.528.305-.849.458a.959.959,0,0,1-.651.042Z"/><path class="cls-7" d="M51.455,123.213a7.486,7.486,0,0,0,1.41,0c.478-.084.527.083.766.291s.256-.028.545.818a4.37,4.37,0,0,1,.288,1.193s-.4-.916-.593-.957-.3-.305-.264.041a8.062,8.062,0,0,1-.2,1.388c-.025.179.025-.083-.124-.819s-.024-1.012-.321-1.345a.854.854,0,0,0-.751-.347A2.686,2.686,0,0,1,51.455,123.213Z"/><path class="cls-7" d="M50.788,123.312a3.488,3.488,0,0,0-1.237.3,1.266,1.266,0,0,0-.479,1.069,4.2,4.2,0,0,1-.206,1.4c-.131.222.008-.374-.033-.831s-.073-.847-.3-.6a6.179,6.179,0,0,0-.593.985,8.308,8.308,0,0,1,.255-1.109c.174-.555.363-.917.717-1.027a11.87,11.87,0,0,1,1.392-.222Z"/><path class="cls-7" d="M50.886,122.755a1.181,1.181,0,0,0-.074.29,1.518,1.518,0,0,1-.033.251l.808.069s-.05-.388-.065-.472a.253.253,0,0,0-.1-.138A1.637,1.637,0,0,0,50.886,122.755Z"/><g class="cls-8"><path class="cls-9" d="M48.653,128.226a1.945,1.945,0,0,1,.455-1.261l.074-.105-.477-.422a3.915,3.915,0,0,0-.544,1.624A1.335,1.335,0,0,0,48.653,128.226Z"/><path class="cls-9" d="M48.805,128.441a2.17,2.17,0,0,0,.333,1.345l.578-.269a1.189,1.189,0,0,1-.266-1.085l.025-.091a3.343,3.343,0,0,1-.67.025Z"/><path class="cls-9" d="M48.806,128.243a3.447,3.447,0,0,0,.708-.037,7.268,7.268,0,0,1,.287-.8l-.5-.443-.055.078A1.847,1.847,0,0,0,48.806,128.243Z"/><path class="cls-9" d="M49.017,129.842a2.29,2.29,0,0,1-.365-1.427v-.067a1.629,1.629,0,0,1-.484-.149,9,9,0,0,0,.481,1.814Z"/></g><path class="cls-10" d="M93.757,116.664a3.8,3.8,0,1,1-3.8-3.8A3.8,3.8,0,0,1,93.757,116.664Z"/><path class="cls-5" d="M89.224,113.172l.047-.742a.375.375,0,0,1,.356-.309c.309-.016.711-.016.711-.016a.246.246,0,0,1,.2.17,7.957,7.957,0,0,1,.078.9A5.135,5.135,0,0,1,89.224,113.172Z"/><path class="cls-6" d="M90.114,111.326s.087-.836-.366-.5-.348.4-.052.872a3.637,3.637,0,0,1,.226.416"/><path class="cls-7" d="M88.809,111.346a4.082,4.082,0,0,1-.7-.156.9.9,0,0,1-.425-.516,1.08,1.08,0,0,0-.362.111.309.309,0,0,0-.083.4.62.62,0,0,0,.487.36,6.179,6.179,0,0,0,1.138,0c.5,0,.852-.1.525-.169A5.2,5.2,0,0,0,88.809,111.346Z"/><path class="cls-7" d="M90.466,111.419a4.895,4.895,0,0,0,1.1-.371c.174-.153.034-.347.323-.347s.664.181.59.417-.088.36-.409.429A8.82,8.82,0,0,1,90.466,111.419Z"/><path class="cls-7" d="M89.633,111.021a5.366,5.366,0,0,1-.832-.847c-.256-.374-.586-.651-.932-.6s-.123.228-.437.61a1.259,1.259,0,0,0-.247.916c.033.083.074-.264.3-.333s.264-.056.61.138.693.278.882.375a3.058,3.058,0,0,0,.717.153Z"/><path class="cls-7" d="M90.037,111.048a2.862,2.862,0,0,0,.693-.749,1.841,1.841,0,0,1,.956-.791c.231-.055.223-.1.363.292s.413,1.069.437,1.221-.156-.126-.289-.2-.321-.041-.725.056-.528.3-.85.457a.956.956,0,0,1-.651.043Z"/><path class="cls-7" d="M90.144,111.382a7.577,7.577,0,0,0,1.41,0c.479-.084.528.082.767.291s.255-.029.544.818a4.369,4.369,0,0,1,.288,1.192s-.4-.915-.593-.956-.3-.306-.264.041a8.071,8.071,0,0,1-.2,1.388c-.026.179.024-.083-.124-.819s-.025-1.013-.322-1.345a.851.851,0,0,0-.75-.348A2.659,2.659,0,0,1,90.144,111.382Z"/><path class="cls-7" d="M89.477,111.481a3.47,3.47,0,0,0-1.237.3,1.269,1.269,0,0,0-.479,1.069,4.2,4.2,0,0,1-.206,1.4c-.13.222.009-.375-.032-.832s-.074-.846-.3-.6a6.089,6.089,0,0,0-.594.984,8.41,8.41,0,0,1,.256-1.108c.173-.556.362-.917.717-1.027a11.617,11.617,0,0,1,1.391-.222Z"/><path class="cls-7" d="M89.576,110.923a1.18,1.18,0,0,0-.075.291,1.544,1.544,0,0,1-.032.25l.807.07s-.049-.388-.065-.473a.253.253,0,0,0-.1-.138A1.66,1.66,0,0,0,89.576,110.923Z"/><g class="cls-8"><path class="cls-9" d="M87.342,116.4a1.95,1.95,0,0,1,.456-1.262c.024-.034.049-.069.073-.1l-.477-.422a3.941,3.941,0,0,0-.543,1.625A1.349,1.349,0,0,0,87.342,116.4Z"/><path class="cls-9" d="M87.5,116.61a2.157,2.157,0,0,0,.333,1.345l.578-.269a1.188,1.188,0,0,1-.266-1.086l.025-.091a3.207,3.207,0,0,1-.67.025Z"/><path class="cls-9" d="M87.5,116.411a3.459,3.459,0,0,0,.709-.037,7.08,7.08,0,0,1,.286-.8l-.5-.444-.055.078A1.854,1.854,0,0,0,87.5,116.411Z"/><path class="cls-9" d="M87.707,118.011a2.277,2.277,0,0,1-.365-1.427v-.067a1.638,1.638,0,0,1-.484-.149,8.912,8.912,0,0,0,.482,1.813Z"/></g><polygon class="cls-9" points="78.911 114.075 79.765 113.613 79.015 114.267 80.827 114.251 79.044 114.462 80.053 115.141 78.989 114.665 79.56 115.719 78.812 114.736 79.579 119.874 78.556 114.85 78.022 115.647 78.36 114.745 75.896 116.911 78.271 114.558 77.129 114.631 78.206 114.321 75.567 113.672 78.31 114.115 77.679 113.231 78.455 113.938 77.878 111.26 78.719 113.931 79.785 112.326 78.905 114.017 78.911 114.075"/><path class="cls-12" d="M68.046,87.267s-1.161-1.411-.247-2.454a2.166,2.166,0,0,1,2.473-.649c.615.157,1.711.852,1.642,1.917s-.526,1.334-.526,1.334,3.258,1.413,3.514,1.45.252.641.041,1.081-.342.723-.774.559-2.265-.832-2.265-.832,2.59,5.5,1.266,6.045-2.034.426-2.433-.806-.616-2.138-.689-1.578-.125,2.5-1.015,2.607-2,.147-2.045-.834.641-5.381.641-5.381-2.306.942-2.68.451-1.24-1.322-.485-1.616S68.046,87.267,68.046,87.267Z"/><path class="cls-13" d="M68.7,95.629c-.057-.008-.118-.018-.18-.029s-.132-.022-.2-.031a.805.805,0,0,1-.51-.334,2.162,2.162,0,0,1-.4-1.492c.031-.14.085-.309.142-.488a3.033,3.033,0,0,0,.224-1.169,1.355,1.355,0,0,1,.267-1.168.588.588,0,0,0,.079-.679c-.028-.079-.061-.173-.095-.29-.095-.334-.031-.419.086-.522a.531.531,0,0,0,.185-.3.174.174,0,0,0,.011-.085,2.424,2.424,0,0,0-.553.159,4.014,4.014,0,0,1-.5.157c-.261.052-.536.123-.778.186-.211.054-.393.1-.532.128a.715.715,0,0,1-.239.012c-.249-.036-.418-.248-.661-.651a.36.36,0,0,1-.047-.369c.124-.221.565-.233.989-.247.135,0,.266-.007.378-.017a.715.715,0,0,0,.6-.3c.033-.305.4-.4.79-.5a1.672,1.672,0,0,0,.756-.321c.187-.2.1-.345-.144-.691a3.61,3.61,0,0,1-.436-.773.92.92,0,0,1,.027-.864,1.679,1.679,0,0,1,1.316-.557,2.061,2.061,0,0,1,.475.016A3.334,3.334,0,0,1,71.7,85.55c.26.353-.083,1.045-.425,1.667-.055.1-.1.187-.118.227.025.131.811.467,1.145.61.086.037.17.072.245.106.174.076.431.172.7.274a7.418,7.418,0,0,1,1.657.754.319.319,0,0,1,.1.393.992.992,0,0,1-.837.481.245.245,0,0,1-.157-.079c-.065-.071-.161-.072-.3-.073a2.318,2.318,0,0,1-.5-.048,1.923,1.923,0,0,1-1.183-.616.134.134,0,0,0-.085-.071c-.075-.011-.223.085-.367.325-.1.159.06.4.243.671a2.9,2.9,0,0,1,.339.61,2.985,2.985,0,0,1,.13.754,8.472,8.472,0,0,0,.3,1.7c.109.393.191.668.252.872a2.034,2.034,0,0,1,.15.964c-.018.273-.191.388-.516.34-.075-.011-.154-.028-.234-.047a1.667,1.667,0,0,0-.348-.052c-.394.015-.589-.279-.771-.559l-.069-.105a4.309,4.309,0,0,1-.34-1.931c.039-.247-.347-.443-.6-.571-.058-.03-.107-.055-.147-.077a5.967,5.967,0,0,0-.2,1.189,4.715,4.715,0,0,1-.081.473,7.81,7.81,0,0,0-.183,1.331.59.59,0,0,1-.184.5.814.814,0,0,1-.609.071Zm-.378-6.772a.237.237,0,0,1,.163.091.278.278,0,0,1,.022.253.7.7,0,0,1-.238.379c-.073.064-.1.09-.033.336.032.112.064.2.091.279a.757.757,0,0,1-.093.836,1.186,1.186,0,0,0-.245,1.042,3.073,3.073,0,0,1-.229,1.256c-.056.175-.108.341-.138.474a1.987,1.987,0,0,0,.361,1.325.572.572,0,0,0,.349.241c.071.01.139.022.206.033.28.046.509.081.622,0a.442.442,0,0,0,.114-.356,8.087,8.087,0,0,1,.186-1.365c.039-.2.072-.363.078-.45.01-.147.1-1.435.4-1.391l.036.005.045.033a1.378,1.378,0,0,0,.177.1c.3.15.789.4.73.794a4.167,4.167,0,0,0,.305,1.79l.07.107c.165.251.3.459.557.449a1.828,1.828,0,0,1,.409.058c.074.017.148.033.216.043.207.031.274-.01.285-.172a1.889,1.889,0,0,0-.143-.9c-.06-.2-.143-.481-.253-.876a8.764,8.764,0,0,1-.31-1.734,2.917,2.917,0,0,0-.119-.707,2.663,2.663,0,0,0-.314-.561c-.212-.317-.411-.617-.254-.876.1-.171.315-.45.574-.413a.37.37,0,0,1,.257.18,1.765,1.765,0,0,0,1.028.511,2.058,2.058,0,0,0,.452.042.6.6,0,0,1,.488.156.843.843,0,0,0,.625-.375.116.116,0,0,0-.035-.158,7.515,7.515,0,0,0-1.582-.711c-.275-.1-.534-.2-.715-.28l-.243-.1c-.839-.359-1.38-.614-1.277-.878.02-.05.066-.132.128-.246.2-.354.5-1.3.29-1.58a2.577,2.577,0,0,0-1.637-.926,1.8,1.8,0,0,0-.419-.013,1.538,1.538,0,0,0-1.17.471.752.752,0,0,0-.01.7,3.426,3.426,0,0,0,.411.726c.23.332.43.619.134.93a1.805,1.805,0,0,1-.849.374c-.329.085-.639.166-.652.357l-.006.027a.86.86,0,0,1-.768.428c-.116.011-.252.016-.392.02-.316.009-.749.022-.821.15-.022.039-.009.1.039.179.257.426.373.519.485.535a.494.494,0,0,0,.161-.01c.133-.026.311-.072.518-.126.246-.063.524-.134.791-.188a3.838,3.838,0,0,0,.473-.148,1.7,1.7,0,0,1,.665-.159Z"/><path class="cls-13" d="M69.885,87.172a1.881,1.881,0,0,1-1.116-.636l.165-.117a1.6,1.6,0,0,0,1.035.561,1.027,1.027,0,0,0,.824-.283l-.027.058c-.256.251-.415.459-.8.426-.028,0-.057,0-.085-.009Z"/><path class="cls-13" d="M69.451,85.745a.244.244,0,0,1-.29.222.3.3,0,0,1-.257-.3.245.245,0,0,1,.29-.222A.3.3,0,0,1,69.451,85.745Z"/><path class="cls-13" d="M70.774,85.8a.249.249,0,0,1-.3.208.3.3,0,0,1-.271-.291.247.247,0,0,1,.3-.208A.3.3,0,0,1,70.774,85.8Z"/><path class="cls-14" d="M70.363,88.724a.2.2,0,0,1-.219.207.247.247,0,0,1-.191-.267.2.2,0,0,1,.221-.207A.246.246,0,0,1,70.363,88.724Z"/><path class="cls-15" d="M70.426,89.451a.2.2,0,0,1-.244.166.244.244,0,0,1-.221-.233.2.2,0,0,1,.246-.167A.24.24,0,0,1,70.426,89.451Z"/><path class="cls-13" d="M70.375,90.249a.178.178,0,0,1-.2.172.216.216,0,0,1-.178-.227.18.18,0,0,1,.2-.172A.215.215,0,0,1,70.375,90.249Z"/><path class="cls-16" d="M134.79,176.238a9.856,9.856,0,0,1-.993-.726,11.553,11.553,0,0,1-2.183-2.346,8.227,8.227,0,0,1-1-1.907,7.453,7.453,0,0,1-.457-2.353,15.454,15.454,0,0,1,.311-5.095,4.956,4.956,0,0,1,1.339-2.257,5.42,5.42,0,0,1,2.223-1.2,19.458,19.458,0,0,1,2.294-.462c.733-.11,1.43-.187,2.075-.243a26.5,26.5,0,0,1,4.3-.043,26.553,26.553,0,0,0-4.293.16c-.64.073-1.332.168-2.058.3a19.41,19.41,0,0,0-2.253.517,5.152,5.152,0,0,0-2.081,1.193,4.614,4.614,0,0,0-1.189,2.139,15.076,15.076,0,0,0-.161,4.957,6.891,6.891,0,0,0,.484,2.183,7.6,7.6,0,0,0,.979,1.747,10.931,10.931,0,0,0,2.114,2.151,9.061,9.061,0,0,0,.935.646Z"/></svg>