<svg id="word" xmlns="http://www.w3.org/2000/svg" viewBox="0 0 160 160"><defs><style>.cls-1{fill:#48484a;stroke:#9c4c9c;stroke-miterlimit:10;stroke-width:0.639px;}.cls-2{fill:#9c4c9c;}</style></defs><path class="cls-1" d="M48.089,115.839c6.449,1.708,12.34,3.254,18.22,4.844.722.195,1.618.551,1.5,1.486-.247,1.9.986,2.045,2.321,2.273a31.345,31.345,0,0,0,13.416-.33c2.912-.767,4.185-2.312,4.553-5.31.48-3.92-.969-7.431-2.5-10.819C80.9,97.593,76,87.3,71.211,76.95c-.493-1.066-.992-1.341-2.09-.8-4.189,2.059-8.408,4.056-12.624,6.06a1.913,1.913,0,0,0-1.268,1.677c-.232,1.787-1.454,2.3-3,1.5a3.8,3.8,0,0,0-1.906-.521,1.991,1.991,0,0,1-1.678-1.01c-1.7-2.273.442-3.976,1.032-5.786.437-1.341,1.98-.959,3.112-.1.691.523,1.306-.121,1.892-.4C58.559,75.737,62.429,73.9,66.272,72c.688-.339,1.96-.41,1.772-1.44-.2-1.122-.539-2.384-2.011-2.8a7.2,7.2,0,0,1-3.742-2.9,6.284,6.284,0,0,1-.469-7.116,6.213,6.213,0,0,1,6.534-3.289,6.6,6.6,0,0,1,5.555,4.816,7.118,7.118,0,0,1-.055,4.514,3.04,3.04,0,0,0,.881,3.522c.889.888,1.814-.263,2.639-.641,3.616-1.66,7.187-3.418,10.779-5.131,1.021-.487,2.108-.8,2.01-2.357a1.387,1.387,0,0,1,1.487-1.452c1.636.3,3.517.3,4.751,1.505,1.189,1.164.788,2.445.118,4.092-.922,2.264-1.372,3.79-4.019,2-.468-.317-1.025.128-1.5.355-4.144,1.978-8.266,4-12.435,5.925-1.2.554-1.363,1.135-.772,2.277,5.8,11.209,10.685,22.88,16.955,33.856a15.9,15.9,0,0,0,5.258,5.65,5.246,5.246,0,0,0,6.412-.173,30.425,30.425,0,0,0,9.311-11.151c.45-.9.727-1.651-.369-2.291-1.05-.613-.812-1.623-.455-2.446,2.423-5.581,4.907-11.135,7.566-17.138a30.891,30.891,0,0,1,2,18.984c-1.6,7.877-5.84,14.406-10.923,20.415-3.451,4.081-7.142,7.957-10.7,11.944a3,3,0,0,1-2.149,1.152c-7.928.428-15.844,1.339-23.8.665-11.038-.935-20.422-5-26.946-14.386C49.368,118.119,48.9,117.2,48.089,115.839ZM70.348,59.984c-.952-1.454-2.2-2.172-3.871-1.4a2.853,2.853,0,1,0,2.333,5.2A2.872,2.872,0,0,0,70.348,59.984Z"/><path class="cls-2" d="M66.184,59.418A42.035,42.035,0,0,1,64.4,45.7c0-4.629.3-9.236,0-13.772-.044-1.128-.233-2.272-.389-3.407-.138-1.137-.287-2.273-.457-3.4-.142-1.128-.306-2.252-.525-3.336-.119-.535-.21-1.081-.358-1.57a6.008,6.008,0,0,0-.243-.694c-.083-.219-.227-.443-.38-.894a5.317,5.317,0,0,1-.089-2.11c.058-.6.138-1.177.215-1.756.153-1.153.379-2.288.572-3.428.443-2.271.917-4.535,1.561-6.781.113,2.334.05,4.648-.033,6.956-.068,1.151-.1,2.306-.184,3.446-.034.568-.07,1.14-.082,1.689a5.108,5.108,0,0,0,.077,1.324c.029.1.183.371.323.683a8.263,8.263,0,0,1,.351.928,14.749,14.749,0,0,1,.439,1.793c.208,1.181.348,2.344.466,3.506.1,1.165.158,2.325.215,3.485.03,1.162.028,2.316.084,3.49.127,4.683-.357,9.288-.62,13.871A46.087,46.087,0,0,0,66.184,59.418Z"/></svg>