<svg id="word" xmlns="http://www.w3.org/2000/svg" viewBox="0 0 160 160"><defs><style>.cls-1{fill:#ffc6b6;}.cls-1,.cls-2,.cls-3,.cls-6{stroke:#b14a9e;}.cls-1,.cls-2,.cls-3,.cls-4,.cls-6{stroke-miterlimit:10;}.cls-2{fill:#333;}.cls-3{fill:#919191;}.cls-4{fill:#fff;stroke:#b14fa0;}.cls-5{fill:#b14fa0;}.cls-6{fill:none;}</style></defs><path class="cls-1" d="M64.31,103.34s-3.746,3.247-6.265,3.949-3.738,1.481-1.692,2.229,4.156,2.241,6.866,1.683,8.868-5.045,8.868-5.045l4.616-3.57s-9.693-.64-10.017-.641A15.209,15.209,0,0,0,64.31,103.34Z"/><path class="cls-1" d="M110.578,102.667a4.419,4.419,0,0,1-3.287,3.693c-3.177,1.093-7.131,1.481-5.875,2.82a6.574,6.574,0,0,0,5.509,1.678c1.912-.312,4.46-.776,4.46-.776l8.074-8.137Z"/><path class="cls-1" d="M46.652,68.054s-3.457,9.5-6.74,12.695-8.974,5.505-8.974,5.505l-2.991,7.188a28.4,28.4,0,0,0,7.378,3.522c3.319.793,9.121-.659,9.121-.659s-1.386.348,3.058,3.276,11.8,2.534,11.8,2.534,4.485,1.8,7.344,1.57,7.186-.477,7.186-.477-7.073,6.688-7.824,6.688-6.336,1.362-4.07,3.352,7.377.541,7.377.541,3.768-2.907,7.391-6.382,6.421-4.67,7.7-4.894,6.96,1.964,11.689,1.1,10.882.191,11.7-.275,8.723.428,8.723.428-6.716,4.9-7.873,5.944.9,1.922,3.994,2.342,8.084-4.388,8.084-4.388L125,102.58S102.67,84.2,101.988,83.187s-26.151-7.87-26.151-7.87,4.709-8.485-2.248-9.157a37.218,37.218,0,0,0-12.3.815s-7.611-5-10.719-5.569S46.652,68.054,46.652,68.054Z"/><path class="cls-2" d="M27.836,84.013s-5.475-.157-3.691,4.363,3.8,5.066,3.8,5.066,1.039,2.15,2.934-1.42a22.471,22.471,0,0,0,2.313-5.962S29.659,83.839,27.836,84.013Z"/><path class="cls-3" d="M46.656,70.663s1.327,1.775-2.089-5.164-9.825-12.768-9.825-12.768,6.075,3.4,6.84,4.458,3.134.387,3.134.387-2.237-7.048-1.26-9.857,3.021,4.988,3.021,4.988,4.121-5.276,5.576-8.481.152,3.362.152,3.362,6.845-7.619,8.85-8.817a11.346,11.346,0,0,1,3.277-1.439L62.507,41.12s2.469-3.479,8.3-5.176,7.154-1.724,7.154-1.724L73.45,38.5a23.156,23.156,0,0,1,6.226-2.134,26.8,26.8,0,0,1,7.937-.018L79.1,38.438s8.213-.095,12-1.066a40.692,40.692,0,0,1,8.077-1.048l-5.325,3.91s12.494.391,13.611-.167-3.835,2.874-3.835,2.874,3.286-1.629,8.865.416a50.542,50.542,0,0,0,8.627,2.513l-7.888,1.979s5.269,3.918,10.883,4.279,12.027,1.431,12.027,1.431l-13.093,1.4s10.072-.972,14.879,5.1A39.1,39.1,0,0,1,141,64.788l-5.671-2.533L141.749,72.9l-4.8-3.434s2.342,8.224,4.331,11.927-3.032-2.281-3.032-2.281l2.894,10.99-3.221-3.733L136.035,97.12l-2.026-4.944L132.7,98.118l-1.173,5.558-1.694.425-4.248-7.126.4,6.6s-3.469,1.743-4.81.9-1.727-.72-1.727-.72-22.35.657-26.074.4-10.22-3.179-10.22-3.179l2.488-1.769-5.286-2.954,3.451-1.345L79.913,93.7l2.823-1.66L76,90.337l5.6-1.915L74.367,86.3l8.851-1.382L73.1,82.737l-3.6,2.68,6.1-6.549s-3.49,4.3-6.4,4.172a20.634,20.634,0,0,1-5.308-.971s7.641-4.425,9.051-6.9.015-7.323-2.955-6.51-8.332,9.356-8.332,9.356l.371-4.554a33.166,33.166,0,0,1-2.606,3.278c.089-.393.234-8.531.234-8.531l-2.055,3.9-2.139-5.739.075,4.217-3.694-5.546-.059,7.068-3.2-7.317.814,5.112L46.1,63.727Z"/><path class="cls-4" d="M50.638,77.288s-1.375-1.419-3.687,0-2.542,3.988-1.132,5.23,3.362.52,4.829-1.178S50.638,77.288,50.638,77.288Z"/><path class="cls-5" d="M80.618,59.774c-.009,0,.082.037.018.016,0,0,.009.021.1.015.165-.007.675-.179,1.19-.319a28.368,28.368,0,0,1,4-.9,11.531,11.531,0,0,1,4.086.129,7.242,7.242,0,0,1,1.738.612,7.171,7.171,0,0,0-1.773-.412,11.093,11.093,0,0,0-3.932.308,27.694,27.694,0,0,0-3.758,1.293,11.435,11.435,0,0,1-1.334.507,1.459,1.459,0,0,1-.638,0,1.667,1.667,0,0,1-.229-.076Z"/><path class="cls-5" d="M64.889,61.8l.1-.39a7.3,7.3,0,0,1,.386-1.088,8.58,8.58,0,0,1,1.943-2.761,8.365,8.365,0,0,1,2.784-1.749,6.485,6.485,0,0,1,1.027-.3l.4-.081A7.1,7.1,0,0,0,70.19,56,7.958,7.958,0,0,0,67.8,58a7.7,7.7,0,0,0-1.39,2.7,5.978,5.978,0,0,0-.2.95l-.049.4Z"/><path class="cls-5" d="M87.969,45.7c0-.03,0,.08,0-.033a.537.537,0,0,0-.278-.417.266.266,0,0,0-.177-.041c.012-.007-.1.038.021,0l1.29-.4,3.915-1.223c1.424-.435,2.84-.927,3.953-1.145a7.421,7.421,0,0,1,1.863-.169,7.342,7.342,0,0,0-1.813.366c-1.057.328-2.4.967-3.776,1.555L89.2,45.829l-1.239.541a1.216,1.216,0,0,1-.4.1.9.9,0,0,1-.491-.1.743.743,0,0,1-.395-.568l-.008-.1Z"/><path class="cls-5" d="M41.007,86.7s.241.071.587.147a13.217,13.217,0,0,0,1.561.241c1.317.145,3.161.105,5,.3a32.013,32.013,0,0,1,4.967.9c1.328.354,2.186.665,2.186.665s-.884-.234-2.229-.467a31.569,31.569,0,0,0-4.961-.453c-1.8-.031-3.609.172-5.024.146a14.39,14.39,0,0,1-1.723-.112c-.442-.059-.642-.1-.642-.1Z"/><polygon class="cls-5" points="40.806 88.601 51.456 94.045 40.279 89.785 40.806 88.601"/><path class="cls-5" d="M39.239,90.785l.406.154c.269.106.649.256,1.089.457a21.773,21.773,0,0,1,3.095,1.71,28.82,28.82,0,0,1,2.762,2.14,9.495,9.495,0,0,0,1.275.915,9.563,9.563,0,0,1-1.393-.75,28.126,28.126,0,0,0-2.968-1.743,20.953,20.953,0,0,0-3.158-1.249c-.442-.137-.811-.23-1.066-.294l-.422-.1Z"/><path class="cls-5" d="M39.165,81.74,39,81.983l-.468.681-.492-.527a14.632,14.632,0,0,1-3.5-6.418,14.022,14.022,0,0,0,4.34,5.5l-.96.154.123-.269Z"/><path class="cls-5" d="M35.8,83.886s-1.031-1.041-1.979-2.14S31.986,79.5,31.986,79.5s1.11.926,2.271,1.768,2.362,1.615,2.362,1.615Z"/><path class="cls-5" d="M34.9,84.845s-1.812-1.481-3.734-2.838S27.241,79.4,27.241,79.4s2.162.948,4.261,2.052c2.1,1.087,4.137,2.328,4.137,2.328Z"/><path class="cls-5" d="M45.79,66.881l-.025-.2a1.566,1.566,0,0,0-.105-.379,3.659,3.659,0,0,0-1.144-1.326l-1.076-.837c-.2-.155-.413-.34-.59-.5-.2-.184-.4-.385-.584-.583-.749-.8-1.414-1.72-2.162-2.533a8.164,8.164,0,0,0-1.2-1.1,5.346,5.346,0,0,0-1.384-.726,13.3,13.3,0,0,0-2.8-.55,14.387,14.387,0,0,1-2.783-.517,14.2,14.2,0,0,0,2.8.315,13.581,13.581,0,0,1,2.909.361,5.8,5.8,0,0,1,1.554.679,8.813,8.813,0,0,1,1.371,1.077c.843.8,1.575,1.667,2.329,2.363.19.179.37.331.556.484.213.166.387.3.582.426.406.273.79.53,1.145.767a4.8,4.8,0,0,1,1.6,1.664,2.937,2.937,0,0,1,.251.709l.04.2Z"/><path class="cls-5" d="M52.687,52.154s.082-.84.289-2.125a40.077,40.077,0,0,1,1.029-4.6,39.67,39.67,0,0,1,1.561-4.417c.495-1.175.874-1.933.874-1.933s-.3.792-.684,2a38.7,38.7,0,0,0-1.693,9.068c-.08,1.239-.083,2.092-.083,2.092Z"/><path class="cls-5" d="M63.337,49.072l.136-.348a8.907,8.907,0,0,1,.438-.954,10.357,10.357,0,0,1,1.837-2.5,10.112,10.112,0,0,1,2.446-1.8,8.9,8.9,0,0,1,1.247-.546,8.815,8.815,0,0,0-1.14.718A9.709,9.709,0,0,0,66.238,45.7a9.467,9.467,0,0,0-1.325,2.513,7.656,7.656,0,0,0-.254.879l-.082.364Z"/><path class="cls-5" d="M72.485,47.127l.113-.216c.079-.144.169-.341.345-.624a12.1,12.1,0,0,1,1.542-2.082A20.059,20.059,0,0,1,80.7,39.812c2.479-1.175,5.059-2.055,6.944-2.824,1.9-.752,3.109-1.37,3.109-1.37s-1.175.69-3.028,1.555c-1.843.883-4.366,1.916-6.734,3.218a19.177,19.177,0,0,0-5.677,4.526,11.035,11.035,0,0,0-1.276,1.951c-.129.229-.222.463-.288.6l-.1.223Z"/><path class="cls-5" d="M101.081,44.673a7.122,7.122,0,0,1,.716-.414,9.7,9.7,0,0,1,2.026-.745,56.353,56.353,0,0,1,6.169-.936c4.475-.523,8.967-.681,8.967-.681s-4.47.482-8.871,1.322a56.2,56.2,0,0,0-5.955,1.344,8.451,8.451,0,0,0-1.735.782,6.542,6.542,0,0,0-.592.4Z"/><path class="cls-5" d="M105.722,49.076s1.127-.168,2.843-.365,4-.4,6.284-.515c4.577-.25,9.142-.027,9.142-.027s-4.57.1-9.088.673c-4.527.525-8.959,1.511-8.959,1.511Z"/><path class="cls-5" d="M110.156,52.131s4.956-.425,9.916-.522c4.963-.129,9.913.071,9.913.071s-4.954.125-9.877.576c-4.929.42-9.808,1.163-9.808,1.163Z"/><path class="cls-5" d="M112.829,56.232s1.582.077,3.97.282,5.546.56,8.688,1.052,6.259,1.116,8.579,1.654,3.853.944,3.853.944-1.552-.333-3.893-.745-5.476-.88-8.623-1.211-6.3-.526-8.67-.6-3.95-.079-3.95-.079Z"/><path class="cls-5" d="M127.911,66.639a1.731,1.731,0,0,1,.238-.029,1.66,1.66,0,0,1,.714.132,3.009,3.009,0,0,1,.74.467c.253.209.443.4.7.629l3.64,3.309a22.558,22.558,0,0,1,3.333,3.665,8.729,8.729,0,0,1,1.052,1.98,8.724,8.724,0,0,0-1.214-1.859,22.087,22.087,0,0,0-3.585-3.287l-3.924-2.966c-.26-.193-.531-.41-.712-.531a1.8,1.8,0,0,0-.471-.246.321.321,0,0,0-.174-.015c.051-.011-.113.029-.079.021Z"/><path class="cls-5" d="M123.362,71.032s1.948,3.147,3.7,6.4c1.768,3.24,3.334,6.573,3.334,6.573s-1.853-3.183-3.89-6.24c-2.02-3.071-4.216-6.005-4.216-6.005Z"/><path class="cls-5" d="M124.244,88s.381,2.227.574,4.461c.212,2.237.237,4.47.237,4.47s-.349-2.208-.876-4.365c-.511-2.166-1.2-4.267-1.2-4.267Z"/><path class="cls-5" d="M119.117,91.432s.074.556.184,1.389.182,1.955.2,3.07a33.816,33.816,0,0,1-.216,4.432,33.607,33.607,0,0,0-.43-4.373c-.18-1.079-.42-2.142-.632-2.929s-.374-1.308-.374-1.308Z"/><path class="cls-5" d="M79.235,74.964l-.043-.032a.8.8,0,0,1-.315-.532,1.075,1.075,0,0,1,.382-.92c.208-.168.326-.261.591-.441a7.767,7.767,0,0,1,.806-.481A12.667,12.667,0,0,1,85.3,71.315c1.715-.16,3.405-.15,4.67-.245a18.381,18.381,0,0,0,2.1-.241,18.48,18.48,0,0,1-2.077.442c-1.258.216-2.958.371-4.6.685A11.824,11.824,0,0,0,81.205,73.5a6.546,6.546,0,0,0-.643.472c-.154.121-.371.328-.445.4-.015,0,.024.088.028-.165a.486.486,0,0,0-.21-.337l.021.012Z"/><polygon class="cls-5" points="85.427 78.611 94.015 79.259 85.427 79.907 85.427 78.611"/><polygon class="cls-5" points="87.544 86.195 98.228 87.002 87.525 87.491 87.544 86.195"/><path class="cls-5" d="M90.935,73.911l0-.009,0-.007a.6.6,0,0,0,.012.322.617.617,0,0,0,.491.422.481.481,0,0,0,.249-.026.49.49,0,0,0,.228-.176.564.564,0,0,0,.113-.336A.592.592,0,0,0,92,73.909l-.017-.042-.029-.056v0l.006.011c-.157-.236-.324-.212-.291-.21.07.013.352.025.567.042l.794.045c1.163.062,2.722.1,4.282.065a62.32,62.32,0,0,0,6.239-.455,62.327,62.327,0,0,1-6.192,1.1c-1.566.2-3.142.323-4.329.383l-.81.037c-.261.006-.4.023-.669.017a.841.841,0,0,1-.689-.4l-.006-.01-.033-.064-.021-.054a.663.663,0,0,1-.04-.238.712.712,0,0,1,.141-.418.761.761,0,0,1,.354-.261.749.749,0,0,1,.368-.043.7.7,0,0,1,.56.47.72.72,0,0,1,.014.354l0,.014,0,.009Z"/><path class="cls-5" d="M97.294,79.9l.424.053c.254.027.629.067,1.089.093l3.421.144a10.453,10.453,0,0,1,3.415.639,3.623,3.623,0,0,1,.969.61,2.809,2.809,0,0,1,.3.311,3.03,3.03,0,0,0-1.336-.73,10.042,10.042,0,0,0-3.343-.182l-3.419.3c-.473.034-.876.045-1.165.051l-.43,0Z"/><path class="cls-5" d="M108.566,75.558s.792-.011,2,.024,2.8.131,4.392.307a55.9,55.9,0,0,1,6.28,1.073,55.7,55.7,0,0,0-6.318-.426c-1.58-.013-3.155.05-4.331.139s-1.961.177-1.961.177Z"/><polygon class="cls-5" points="98.39 67.107 109.57 67.755 98.39 68.403 98.39 67.107"/><path class="cls-5" d="M95.329,59.483l1.254-.246c.756-.138,1.768-.287,2.78-.389a37.244,37.244,0,0,1,4.048-.181,37.169,37.169,0,0,0-3.932.818c-.966.259-1.916.561-2.619.81l-1.167.432Z"/><path class="cls-5" d="M102.592,60.32s.652.02,1.654.095,2.311.221,3.614.437a42.405,42.405,0,0,1,5.121,1.193,42.093,42.093,0,0,0-5.188-.548c-1.3-.053-2.6-.037-3.564.012s-1.615.107-1.615.107Z"/><path class="cls-5" d="M132.917,81.74l.162.047a4.977,4.977,0,0,1,.521.189,5.2,5.2,0,0,1,1.587,1.053,5.087,5.087,0,0,1,.787.984,7.216,7.216,0,0,1,.6,1.215c.333.863.553,1.775.811,2.676l2.014,7.233-2.63-7.032c-.335-.878-.638-1.772-1.007-2.522a6.293,6.293,0,0,0-.608-1.011,4.128,4.128,0,0,0-.7-.73,4.047,4.047,0,0,0-1.3-.707,3.609,3.609,0,0,0-.385-.1L132.608,83Z"/><path class="cls-5" d="M128.778,94.494l.64-.041.442-.028.167.344a36.384,36.384,0,0,1,3.486,12.041,35.768,35.768,0,0,0-4.566-11.447l.61.315-.633.1Z"/><path class="cls-5" d="M88.938,41.519l.623-.331c.415-.217,1-.5,1.724-.794a22.008,22.008,0,0,1,5.5-1.453,50.163,50.163,0,0,0,5.543-.62,7.414,7.414,0,0,0,1.715-.62,5.476,5.476,0,0,0,.6-.348,5.485,5.485,0,0,1-.576.4,7.565,7.565,0,0,1-1.686.766,50.019,50.019,0,0,1-5.492,1.065,21.12,21.12,0,0,0-5.154,1.808c-.661.336-1.2.649-1.558.874l-.583.372Z"/><path class="cls-5" d="M62.831,44.267s.866-3.363,2.08-6.588a35.273,35.273,0,0,1,1.862-4.363,7.515,7.515,0,0,1,1.267-1.739,7.478,7.478,0,0,0-1.086,1.829,35.216,35.216,0,0,0-1.426,4.469c-.9,3.306-1.43,6.667-1.43,6.667Z"/><polygon class="cls-5" points="58.335 46.102 60.641 35.35 59.616 46.298 58.335 46.102"/><path class="cls-5" d="M48.954,56.7l-.08-.612a13.3,13.3,0,0,0-.3-1.53,33.59,33.59,0,0,0-1.595-4.6,48.476,48.476,0,0,1-1.72-4.644,17.417,17.417,0,0,1-.512-2.19,17.331,17.331,0,0,0,.7,2.125,48.293,48.293,0,0,0,2.119,4.439,34.651,34.651,0,0,1,2.054,4.558,15.078,15.078,0,0,1,.473,1.625l.135.6Z"/><path class="cls-5" d="M45.785,60.135c-.009.029.037-.108.025-.067,0,.014.019-.029,0-.1a3.407,3.407,0,0,0-.565-1.022L42.939,55.4l-3.361-5.148,3.884,4.766c.971,1.191,1.942,2.383,2.671,3.276a4.322,4.322,0,0,1,.878,1.338,1.487,1.487,0,0,1,.06.667l-.042.2Z"/><path class="cls-5" d="M47.241,70.771s-.678-.386-1.693-.842a22.819,22.819,0,0,0-8.1-1.962c-1.153-.063-1.926-.03-1.926-.03s.764-.114,1.926-.173a23.486,23.486,0,0,1,8.49,1.144c1.144.378,1.846.687,1.846.687Z"/><path class="cls-5" d="M54.688,67.149s-.013-2.428-.025-4.856c0-.288-.011-.628.017-.925s.052-.6.094-.892a5.886,5.886,0,0,1,.419-1.534,3.3,3.3,0,0,1,.614-.931,2.287,2.287,0,0,1,.31-.282,2.269,2.269,0,0,0-.267.318,3.155,3.155,0,0,0-.467.966,5.558,5.558,0,0,0-.2,1.5c0,.277.005.567.024.857s.06.563.1.88l.672,4.808Z"/><path class="cls-5" d="M57.742,67.246l.537-1.108c.311-.668.692-1.577,1.025-2.509a31.806,31.806,0,0,0,1.09-3.824A31.923,31.923,0,0,1,59.93,63.8c-.182.994-.418,1.982-.624,2.717l-.362,1.216Z"/><ellipse class="cls-5" cx="50.231" cy="79.501" rx="1.991" ry="2.355"/><path class="cls-6" d="M43.689,96.414c.921-.538,1.966-.83,2.909-1.329a7.54,7.54,0,0,0,3.868-5.459"/></svg>