<svg id="word" xmlns="http://www.w3.org/2000/svg" viewBox="0 0 160 160"><defs><style>.cls-1{fill:#fcded0;}.cls-1,.cls-10,.cls-11,.cls-12,.cls-13,.cls-14,.cls-15,.cls-16,.cls-17,.cls-18,.cls-19,.cls-2,.cls-20,.cls-21,.cls-22,.cls-23,.cls-24,.cls-25,.cls-26,.cls-27,.cls-28,.cls-29,.cls-3,.cls-30,.cls-31,.cls-4,.cls-5,.cls-6{stroke:#9c4c9c;}.cls-1,.cls-10,.cls-11,.cls-12,.cls-13,.cls-14,.cls-15,.cls-16,.cls-17,.cls-18,.cls-19,.cls-2,.cls-20,.cls-21,.cls-22,.cls-23,.cls-24,.cls-25,.cls-26,.cls-27,.cls-28,.cls-29,.cls-3,.cls-30,.cls-4,.cls-5,.cls-6{stroke-miterlimit:10;}.cls-1,.cls-10,.cls-2,.cls-29,.cls-3,.cls-30,.cls-31,.cls-4,.cls-5,.cls-6{stroke-width:0.569px;}.cls-2{fill:#747578;}.cls-3{fill:#49c5ed;}.cls-21,.cls-31,.cls-4{fill:#fff;}.cls-5{fill:#f3f2b5;}.cls-6{fill:#caca98;}.cls-7{fill:#9c4c9c;}.cls-8{fill:#e80a89;}.cls-9{fill:#1b75ba;}.cls-10{fill:#fde1d3;}.cls-11{fill:#cba798;}.cls-11,.cls-12,.cls-13,.cls-14,.cls-15,.cls-16,.cls-17,.cls-18,.cls-19,.cls-20,.cls-21,.cls-22,.cls-23,.cls-24,.cls-25,.cls-26,.cls-27,.cls-28{stroke-width:0.335px;}.cls-12{fill:#fdf9d1;}.cls-13{fill:#9ed6d0;}.cls-14,.cls-15,.cls-30{fill:none;}.cls-15{stroke-linecap:round;}.cls-16{fill:#cbdde1;}.cls-17{fill:#95b3cb;}.cls-18{fill:#ce6a28;}.cls-19{fill:#f17d21;}.cls-20{fill:#b7cee1;}.cls-22{fill:#e2e0d8;}.cls-23{fill:#3299c7;}.cls-24{fill:#e1c082;}.cls-25{fill:#e0ad6e;}.cls-26{fill:#8d8f92;}.cls-27{fill:#b8babc;}.cls-28{fill:#727275;}.cls-29{fill:#894d34;}</style></defs><path class="cls-1" d="M30.755,119.481a22.624,22.624,0,0,0,1.843,9s-2,3.8-2.542,5.291.061,2.812,1.309,4.489,1.439,2.854,2.89,3.122A11.694,11.694,0,0,1,37.25,142.5s1.992,1.334,1.331-1.107-.732-4.8-1.018-5.29-1.285-3.7-.37-3.242a38.1,38.1,0,0,1,3.874,3.091s1.353.233.665-1.83-3.863-5.676-3.863-5.676a8.66,8.66,0,0,1-.3-4.9"/><path class="cls-1" d="M37.25,142.5a17.417,17.417,0,0,1-1.32-1.187,7.335,7.335,0,0,1-.838-2.305,3.448,3.448,0,0,1-.133-1.535"/><path class="cls-1" d="M35.477,141.718c-.392-.749-1.151-1.448-1.5-2.208a4.607,4.607,0,0,1-.523-2.346"/><path class="cls-1" d="M34.255,141.378a21.526,21.526,0,0,1-1.768-2.467,4.783,4.783,0,0,1-.6-2.463"/><rect class="cls-2" x="56.375" y="112.299" width="18.045" height="11.512"/><polygon class="cls-3" points="53.823 64.544 55.359 77.863 56.617 113.676 70.063 114.267 70.063 73.606 69.631 63.173 65.408 63.173 53.823 64.544"/><path class="cls-4" d="M86.442,81.426a70.74,70.74,0,0,1,14.126,1.919c6.887,1.771,10.429,0,10.429,0l-1.893,10s-22.978,3.4-29.782-4.633c-1.881-2.221-4.578-21.533-4.578-21.533Z"/><path class="cls-4" d="M68.045,62.075l.881,3.532-3.785,18.11.256,41.361,18.684-.579s-4.329-26.536-4.329-31.47S75.578,69.4,75.5,68.221,68.045,62.075,68.045,62.075Z"/><polygon class="cls-5" points="127.027 75.997 115.954 92.171 123.822 98.971 133.973 82.348 127.027 75.997"/><polygon class="cls-6" points="124.59 76.815 127.027 75.997 115.954 92.442 113.47 92.171 124.59 76.815"/><polygon class="cls-6" points="123.822 98.971 120.733 98.971 113.47 92.171 115.954 92.171 123.822 98.971"/><polygon class="cls-7" points="129.999 80.321 130.6 80.722 123.822 91.591 122.636 90.99 129.999 80.321"/><polygon class="cls-7" points="130.951 81.423 125.842 89.487 126.618 89.738 131.352 81.824 130.951 81.423"/><polygon class="cls-8" points="129.098 79.169 128.146 80.872 127.027 78.769 129.098 79.169"/><polygon class="cls-9" points="126.618 79.27 127.695 81.423 125.341 84.529 126.618 79.27"/><polygon class="cls-7" points="121.184 88.385 118.028 92.993 118.379 93.244 121.484 88.786 121.184 88.385"/><polygon class="cls-7" points="132.303 83.377 130.049 86.616 130.6 86.616 132.604 83.743 132.303 83.377"/><polygon class="cls-7" points="117.828 94.83 120.783 97.501 120.533 97.752 117.828 95.247 117.828 94.83"/><path class="cls-10" d="M111.667,83.743s1.87-1.735,2.8-1.335,5.209,1.068,6.144,1.335,3.072,0,2,1.2-5.33,1.67-5.33,1.67l-.681,1.669-2.8,3.874s-3.739.167-4.274-.718L109,90.556V86.015Z"/><path class="cls-4" d="M52.549,60.666A57.679,57.679,0,0,0,42.368,66.7c-11.81,9.706-13.442,58.379-13.442,58.379h9.5S45.577,81.733,47.1,83.812s-3.158,41.072-3.158,41.072l16.43.194.625-41.606Z"/><polygon class="cls-4" points="52.549 60.666 42.967 65.607 52.549 70.554 48.907 75.725 60.994 83.123 52.549 60.666"/><polygon class="cls-4" points="65.141 83.717 67.941 61.789 73.587 65.607 70.258 69.943 73.587 71.418 65.141 83.717"/><path class="cls-11" d="M87.237,113.065a12.847,12.847,0,0,1,5.344-1.091,16.6,16.6,0,0,1,5.526.8V131.5s.8,1.951-5.435,1.792c-5.216-.132-5.435-1.683-5.435-1.683Z"/><path class="cls-12" d="M87.456,115.246a22.33,22.33,0,0,1,4.871-.255c3.49.073,5.78.255,5.78.255v10.906s-4.617.509-6.216.436-4.654-.4-4.654-.4V115.355Z"/><path class="cls-13" d="M87.237,113.065s-.618-.582-.363-.8l.254-.218-.1-3.635s-.042-1.564,5.647-1.2,5.8.618,5.8,1.345v3.163s.29.072.218.618a.474.474,0,0,1-.582.436,13.835,13.835,0,0,0-5.107-.8A33.519,33.519,0,0,0,87.237,113.065Z"/><path class="cls-14" d="M87.419,111.973s-.8-.4,3.09-.471a27.171,27.171,0,0,1,7.089.471l.909.292"/><line class="cls-15" x1="88.074" y1="107.975" x2="88.118" y2="111.637"/><line class="cls-15" x1="88.764" y1="107.648" x2="88.837" y2="111.489"/><line class="cls-15" x1="89.637" y1="107.648" x2="89.637" y2="111.356"/><line class="cls-15" x1="90.873" y1="107.648" x2="90.873" y2="111.356"/><line class="cls-15" x1="92.291" y1="107.648" x2="92.291" y2="111.356"/><line class="cls-15" x1="94.454" y1="107.83" x2="94.454" y2="111.489"/><line class="cls-15" x1="96.489" y1="107.975" x2="96.489" y2="111.711"/><line class="cls-15" x1="97.271" y1="108.248" x2="97.271" y2="111.877"/><line class="cls-15" x1="98.107" y1="108.575" x2="98.107" y2="112.107"/><line class="cls-15" x1="87.456" y1="108.575" x2="87.456" y2="111.637"/><path class="cls-16" d="M102.756,118.565s-.115.4-.858.8-2.026.664-2.026,2.42v10.157s.309,2.069,1.8,2.584a20.719,20.719,0,0,0,6.522.515c1.6-.172,3.6-1.6,3.433-2.346s.01-10.056.01-10.056a3.779,3.779,0,0,0-1.04-2.473,18.13,18.13,0,0,0-1.945-1.6l-.744-1.717h-5.378Z"/><path class="cls-17" d="M101.955,114.5v2.86a5.551,5.551,0,0,0,1.6.63,16.911,16.911,0,0,0,5.092,0c.858-.344,1.144-.229,1.144-.744V114.5s-.115-.916-2.632-1.2S101.612,113.358,101.955,114.5Z"/><path class="cls-18" d="M103.7,123.67c0,.144-.089.711-.244.827a3.247,3.247,0,0,1-3.073,0c-.157-.117-.247-.685-.247-.83,0-.432.8-.35,1.782-.35S103.7,123.238,103.7,123.67Z"/><ellipse class="cls-19" cx="101.916" cy="123.627" rx="1.782" ry="0.797"/><path class="cls-18" d="M105.584,121.529c0,.144-.088.711-.243.827a3.253,3.253,0,0,1-3.074,0c-.156-.116-.246-.684-.246-.829,0-.432.8-.351,1.781-.351S105.584,121.1,105.584,121.529Z"/><ellipse class="cls-19" cx="103.802" cy="121.485" rx="1.782" ry="0.797"/><path class="cls-18" d="M103.7,126.011c0,.144-.089.711-.244.827a3.255,3.255,0,0,1-3.073,0c-.157-.117-.247-.685-.247-.83,0-.432.8-.35,1.782-.35S103.7,125.579,103.7,126.011Z"/><ellipse class="cls-19" cx="101.916" cy="125.967" rx="1.782" ry="0.797"/><path class="cls-18" d="M106.211,122.882a1.612,1.612,0,0,1,.19.841,3.255,3.255,0,0,1-2.683,1.5c-.193-.025-.549-.477-.619-.6-.211-.377.526-.695,1.385-1.174S106,122.5,106.211,122.882Z"/><ellipse class="cls-19" cx="104.634" cy="123.712" rx="1.782" ry="0.797" transform="translate(-47.012 66.646) rotate(-29.154)"/><path class="cls-18" d="M103.993,122.325c0,.144-.088.711-.243.827a3.249,3.249,0,0,1-3.074,0c-.156-.117-.246-.685-.246-.83,0-.432.8-.35,1.781-.35S103.993,121.893,103.993,122.325Z"/><ellipse class="cls-19" cx="102.211" cy="122.282" rx="1.782" ry="0.797"/><path class="cls-18" d="M105.1,125.41c0,.144-.088.711-.243.827a3.249,3.249,0,0,1-3.074,0c-.157-.117-.247-.685-.247-.83,0-.432.8-.35,1.782-.35S105.1,124.978,105.1,125.41Z"/><ellipse class="cls-19" cx="103.32" cy="125.367" rx="1.782" ry="0.797"/><ellipse class="cls-20" cx="105.753" cy="114.334" rx="3.541" ry="1.082"/><path class="cls-18" d="M104.224,128.277c0,.144-.089.711-.244.827a3.255,3.255,0,0,1-3.073,0c-.157-.117-.247-.685-.247-.83,0-.432.8-.35,1.782-.35S104.224,127.845,104.224,128.277Z"/><ellipse class="cls-19" cx="102.442" cy="128.234" rx="1.782" ry="0.797"/><path class="cls-18" d="M106.11,126.136c0,.144-.088.711-.243.827a3.253,3.253,0,0,1-3.074,0c-.156-.116-.247-.684-.247-.829,0-.433.8-.351,1.782-.351S106.11,125.7,106.11,126.136Z"/><ellipse class="cls-19" cx="104.328" cy="126.092" rx="1.782" ry="0.797"/><path class="cls-18" d="M104.224,130.618c0,.144-.089.711-.244.827a3.251,3.251,0,0,1-3.073,0c-.157-.116-.247-.684-.247-.829,0-.432.8-.35,1.782-.35S104.224,130.186,104.224,130.618Z"/><ellipse class="cls-19" cx="102.442" cy="130.574" rx="1.782" ry="0.797"/><path class="cls-18" d="M106.737,127.489a1.612,1.612,0,0,1,.19.841,3.255,3.255,0,0,1-2.683,1.5c-.194-.025-.549-.477-.62-.6-.21-.377.527-.695,1.386-1.174S106.526,127.111,106.737,127.489Z"/><ellipse class="cls-19" cx="105.159" cy="128.319" rx="1.782" ry="0.797" transform="translate(-49.19 67.486) rotate(-29.154)"/><path class="cls-18" d="M105.754,127.163c0,.144-.089.711-.244.827a3.251,3.251,0,0,1-3.073,0c-.157-.116-.247-.684-.247-.829,0-.432.8-.35,1.782-.35S105.754,126.731,105.754,127.163Z"/><ellipse class="cls-19" cx="103.972" cy="127.119" rx="1.782" ry="0.797"/><path class="cls-18" d="M105.628,130.017a1.62,1.62,0,0,1-.243.827,3.257,3.257,0,0,1-3.074,0c-.157-.117-.247-.685-.247-.83,0-.432.8-.35,1.782-.35S105.628,129.585,105.628,130.017Z"/><ellipse class="cls-19" cx="103.846" cy="129.974" rx="1.782" ry="0.797"/><path class="cls-18" d="M108.305,121.864c0,.144-.089.711-.244.827a3.255,3.255,0,0,1-3.073,0c-.157-.117-.247-.685-.247-.83,0-.432.8-.35,1.782-.35S108.305,121.432,108.305,121.864Z"/><ellipse class="cls-19" cx="106.523" cy="121.821" rx="1.782" ry="0.797"/><path class="cls-18" d="M108.305,120.5c0,.144-.089.711-.244.827a3.247,3.247,0,0,1-3.073,0c-.157-.117-.247-.685-.247-.83,0-.432.8-.35,1.782-.35S108.305,120.069,108.305,120.5Z"/><ellipse class="cls-19" cx="106.523" cy="120.458" rx="1.782" ry="0.797"/><path class="cls-18" d="M105.337,120.271a1.62,1.62,0,0,1-.243.827,3.253,3.253,0,0,1-3.074,0c-.157-.116-.247-.684-.247-.829,0-.432.8-.351,1.782-.351S105.337,119.839,105.337,120.271Z"/><ellipse class="cls-19" cx="103.555" cy="120.227" rx="1.782" ry="0.797"/><path class="cls-18" d="M109.419,121.5a1.612,1.612,0,0,1,.191.841,3.248,3.248,0,0,1-2.683,1.5c-.194-.025-.549-.477-.62-.6-.21-.377.526-.694,1.386-1.174S109.209,121.124,109.419,121.5Z"/><ellipse class="cls-19" cx="107.842" cy="122.331" rx="1.782" ry="0.797" transform="matrix(0.873, -0.487, 0.487, 0.873, -45.933, 68.035)"/><path class="cls-18" d="M108.636,123.707c0,.144-.088.711-.243.827a3.249,3.249,0,0,1-3.074,0c-.156-.117-.246-.685-.246-.83,0-.432.8-.35,1.781-.35S108.636,123.275,108.636,123.707Z"/><ellipse class="cls-19" cx="106.854" cy="123.664" rx="1.782" ry="0.797"/><path class="cls-18" d="M111.17,123.525c0,.144-.089.711-.244.827a3.251,3.251,0,0,1-3.073,0c-.157-.116-.247-.684-.247-.829,0-.432.8-.35,1.782-.35S111.17,123.093,111.17,123.525Z"/><ellipse class="cls-19" cx="109.388" cy="123.481" rx="1.782" ry="0.797"/><path class="cls-18" d="M111.076,132.8c0,.144-.088.711-.243.827a3.257,3.257,0,0,1-3.074,0c-.157-.117-.247-.685-.247-.83,0-.432.8-.35,1.782-.35S111.076,132.371,111.076,132.8Z"/><ellipse class="cls-19" cx="109.294" cy="132.76" rx="1.782" ry="0.797"/><path class="cls-18" d="M107.366,122.891c0,.144-.088.711-.243.827a3.249,3.249,0,0,1-3.074,0,1.616,1.616,0,0,1-.247-.83c0-.432.8-.35,1.782-.35S107.366,122.459,107.366,122.891Z"/><ellipse class="cls-19" cx="105.584" cy="122.848" rx="1.782" ry="0.797"/><path class="cls-18" d="M105.754,133.347c0,.144-.089.711-.244.827a3.251,3.251,0,0,1-3.073,0c-.157-.116-.247-.684-.247-.829,0-.432.8-.351,1.782-.351S105.754,132.915,105.754,133.347Z"/><ellipse class="cls-19" cx="103.972" cy="133.303" rx="1.782" ry="0.797"/><path class="cls-18" d="M108.432,132.125a1.609,1.609,0,0,1,.19.841,3.255,3.255,0,0,1-2.683,1.5c-.193-.025-.549-.477-.62-.6-.21-.377.527-.695,1.386-1.174S108.221,131.747,108.432,132.125Z"/><ellipse class="cls-19" cx="106.854" cy="132.955" rx="1.782" ry="0.797" transform="translate(-51.233 68.899) rotate(-29.154)"/><path class="cls-18" d="M106.523,131.944c0,.144-.089.711-.244.827a3.255,3.255,0,0,1-3.073,0c-.157-.117-.247-.685-.247-.83,0-.432.8-.35,1.782-.35S106.523,131.512,106.523,131.944Z"/><ellipse class="cls-19" cx="104.741" cy="131.901" rx="1.782" ry="0.797"/><path class="cls-18" d="M104.328,132c0,.144-.088.711-.243.827a3.253,3.253,0,0,1-3.074,0c-.156-.116-.246-.684-.246-.829,0-.432.8-.351,1.781-.351S104.328,131.57,104.328,132Z"/><ellipse class="cls-19" cx="102.546" cy="131.958" rx="1.782" ry="0.797"/><path class="cls-21" d="M102.437,124.64v8.56a32.736,32.736,0,0,0,5.492,0,25.882,25.882,0,0,0,3.558-.794l-.019-8.473s-2.051.385-3.653.707A28.6,28.6,0,0,1,102.437,124.64Z"/><path class="cls-16" d="M96.977,124.05s-.115.4-.858.8-2.026.664-2.026,2.42v10.157s.309,2.069,1.8,2.584a20.689,20.689,0,0,0,6.522.515c1.6-.172,3.6-1.6,3.433-2.346s.01-10.055.01-10.055a3.782,3.782,0,0,0-1.04-2.474,18.13,18.13,0,0,0-1.945-1.6l-.744-1.716H96.748Z"/><path class="cls-17" d="M96.176,119.988v2.861a5.565,5.565,0,0,0,1.6.629,16.879,16.879,0,0,0,5.092,0c.858-.343,1.144-.229,1.144-.744v-2.746s-.115-.915-2.632-1.2S95.833,118.844,96.176,119.988Z"/><path class="cls-18" d="M97.919,129.156c0,.144-.089.711-.244.827a3.251,3.251,0,0,1-3.073,0c-.157-.116-.247-.684-.247-.829,0-.432.8-.351,1.782-.351S97.919,128.724,97.919,129.156Z"/><ellipse class="cls-19" cx="96.137" cy="129.112" rx="1.782" ry="0.797"/><path class="cls-18" d="M99.805,127.014c0,.144-.088.711-.243.827a3.257,3.257,0,0,1-3.074,0c-.156-.117-.246-.685-.246-.83,0-.432.8-.35,1.781-.35S99.805,126.582,99.805,127.014Z"/><ellipse class="cls-19" cx="98.023" cy="126.97" rx="1.782" ry="0.797"/><path class="cls-18" d="M97.919,131.5c0,.144-.089.711-.244.827a3.247,3.247,0,0,1-3.073,0c-.157-.117-.247-.685-.247-.83,0-.432.8-.35,1.782-.35S97.919,131.064,97.919,131.5Z"/><ellipse class="cls-19" cx="96.137" cy="131.453" rx="1.782" ry="0.797"/><path class="cls-18" d="M100.432,128.367a1.612,1.612,0,0,1,.19.841,3.252,3.252,0,0,1-2.683,1.5c-.193-.026-.549-.478-.619-.6-.211-.377.526-.694,1.385-1.174S100.221,127.99,100.432,128.367Z"/><ellipse class="cls-19" cx="98.855" cy="129.197" rx="1.782" ry="0.797" transform="translate(-50.416 64.526) rotate(-29.154)"/><path class="cls-18" d="M98.214,127.811c0,.144-.088.711-.243.827a3.253,3.253,0,0,1-3.074,0c-.156-.116-.246-.684-.246-.829,0-.432.8-.351,1.782-.351S98.214,127.379,98.214,127.811Z"/><ellipse class="cls-19" cx="96.433" cy="127.767" rx="1.782" ry="0.797"/><path class="cls-18" d="M99.323,130.9c0,.144-.088.711-.243.827a3.253,3.253,0,0,1-3.074,0c-.157-.116-.247-.684-.247-.829,0-.432.8-.351,1.782-.351S99.323,130.464,99.323,130.9Z"/><ellipse class="cls-19" cx="97.541" cy="130.852" rx="1.782" ry="0.797"/><ellipse class="cls-20" cx="99.974" cy="119.82" rx="3.541" ry="1.082"/><path class="cls-18" d="M98.445,133.762c0,.145-.089.712-.244.828a3.251,3.251,0,0,1-3.073,0c-.157-.116-.247-.684-.247-.83,0-.432.8-.35,1.782-.35S98.445,133.33,98.445,133.762Z"/><ellipse class="cls-19" cx="96.663" cy="133.719" rx="1.782" ry="0.797"/><path class="cls-18" d="M100.331,131.621c0,.144-.088.711-.243.827a3.257,3.257,0,0,1-3.074,0,1.616,1.616,0,0,1-.247-.83c0-.432.8-.35,1.782-.35S100.331,131.189,100.331,131.621Z"/><ellipse class="cls-19" cx="98.549" cy="131.577" rx="1.782" ry="0.797"/><path class="cls-18" d="M98.445,136.1c0,.144-.089.711-.244.827a3.247,3.247,0,0,1-3.073,0c-.157-.117-.247-.685-.247-.83,0-.432.8-.35,1.782-.35S98.445,135.671,98.445,136.1Z"/><ellipse class="cls-19" cx="96.663" cy="136.06" rx="1.782" ry="0.797"/><path class="cls-18" d="M100.958,132.974a1.612,1.612,0,0,1,.19.841,3.252,3.252,0,0,1-2.683,1.5c-.193-.026-.549-.478-.62-.6-.21-.377.527-.694,1.386-1.174S100.747,132.6,100.958,132.974Z"/><ellipse class="cls-19" cx="99.38" cy="133.804" rx="1.782" ry="0.797" transform="matrix(0.873, -0.487, 0.487, 0.873, -52.594, 65.366)"/><path class="cls-18" d="M99.975,132.648c0,.144-.089.711-.244.827a3.247,3.247,0,0,1-3.073,0c-.157-.117-.247-.685-.247-.83,0-.432.8-.35,1.782-.35S99.975,132.216,99.975,132.648Z"/><ellipse class="cls-19" cx="98.193" cy="132.605" rx="1.782" ry="0.797"/><path class="cls-18" d="M99.849,135.5a1.62,1.62,0,0,1-.243.827,3.253,3.253,0,0,1-3.074,0c-.157-.116-.247-.684-.247-.829,0-.433.8-.351,1.782-.351S99.849,135.07,99.849,135.5Z"/><ellipse class="cls-19" cx="98.067" cy="135.459" rx="1.782" ry="0.797"/><path class="cls-18" d="M102.526,127.349c0,.145-.089.712-.244.827a3.247,3.247,0,0,1-3.073,0c-.157-.116-.247-.684-.247-.83,0-.432.8-.35,1.782-.35S102.526,126.917,102.526,127.349Z"/><ellipse class="cls-19" cx="100.744" cy="127.306" rx="1.782" ry="0.797"/><path class="cls-18" d="M102.526,125.987c0,.144-.089.711-.244.827a3.251,3.251,0,0,1-3.073,0c-.157-.116-.247-.684-.247-.829,0-.432.8-.351,1.782-.351S102.526,125.555,102.526,125.987Z"/><ellipse class="cls-19" cx="100.744" cy="125.943" rx="1.782" ry="0.797"/><path class="cls-18" d="M99.558,125.756a1.62,1.62,0,0,1-.243.827,3.257,3.257,0,0,1-3.074,0c-.157-.117-.247-.685-.247-.83,0-.432.8-.35,1.782-.35S99.558,125.324,99.558,125.756Z"/><ellipse class="cls-19" cx="97.776" cy="125.713" rx="1.782" ry="0.797"/><path class="cls-18" d="M103.64,126.986a1.614,1.614,0,0,1,.191.841,3.252,3.252,0,0,1-2.683,1.5c-.194-.026-.549-.478-.62-.6-.21-.378.526-.7,1.386-1.174S103.43,126.609,103.64,126.986Z"/><ellipse class="cls-19" cx="102.063" cy="127.816" rx="1.782" ry="0.797" transform="translate(-49.337 65.914) rotate(-29.154)"/><path class="cls-18" d="M102.857,129.193c0,.144-.088.711-.243.827a3.253,3.253,0,0,1-3.074,0c-.156-.116-.246-.684-.246-.829,0-.432.8-.351,1.781-.351S102.857,128.761,102.857,129.193Z"/><ellipse class="cls-19" cx="101.075" cy="129.149" rx="1.782" ry="0.797"/><path class="cls-18" d="M105.391,129.01c0,.144-.089.711-.244.827a3.247,3.247,0,0,1-3.073,0c-.157-.117-.247-.685-.247-.83,0-.432.8-.35,1.782-.35S105.391,128.578,105.391,129.01Z"/><ellipse class="cls-19" cx="103.609" cy="128.967" rx="1.782" ry="0.797"/><path class="cls-18" d="M105.3,138.289c0,.144-.088.711-.243.827a3.253,3.253,0,0,1-3.074,0c-.157-.116-.247-.684-.247-.829,0-.433.8-.351,1.782-.351S105.3,137.856,105.3,138.289Z"/><ellipse class="cls-19" cx="103.515" cy="138.245" rx="1.782" ry="0.797"/><path class="cls-18" d="M101.587,128.377c0,.144-.088.711-.243.827a3.253,3.253,0,0,1-3.074,0c-.156-.116-.247-.684-.247-.829,0-.432.8-.351,1.782-.351S101.587,127.945,101.587,128.377Z"/><ellipse class="cls-19" cx="99.805" cy="128.333" rx="1.782" ry="0.797"/><path class="cls-18" d="M99.975,138.832c0,.144-.089.711-.244.827a3.255,3.255,0,0,1-3.073,0c-.157-.117-.247-.685-.247-.83,0-.432.8-.35,1.782-.35S99.975,138.4,99.975,138.832Z"/><ellipse class="cls-19" cx="98.193" cy="138.789" rx="1.782" ry="0.797"/><path class="cls-18" d="M102.653,137.61a1.612,1.612,0,0,1,.19.841,3.248,3.248,0,0,1-2.683,1.5c-.193-.025-.549-.477-.62-.6-.21-.377.527-.694,1.386-1.174S102.442,137.233,102.653,137.61Z"/><ellipse class="cls-19" cx="101.076" cy="138.44" rx="1.782" ry="0.797" transform="translate(-54.638 66.779) rotate(-29.154)"/><path class="cls-18" d="M100.744,137.43c0,.144-.089.711-.244.827a3.251,3.251,0,0,1-3.073,0c-.157-.116-.247-.684-.247-.829,0-.433.8-.351,1.782-.351S100.744,137,100.744,137.43Z"/><ellipse class="cls-19" cx="98.962" cy="137.386" rx="1.782" ry="0.797"/><path class="cls-18" d="M98.549,137.487c0,.144-.088.711-.243.827a3.249,3.249,0,0,1-3.074,0c-.156-.117-.246-.685-.246-.83,0-.432.8-.35,1.781-.35S98.549,137.055,98.549,137.487Z"/><ellipse class="cls-19" cx="96.767" cy="137.444" rx="1.782" ry="0.797"/><path class="cls-21" d="M96.658,130.125v8.56a32.736,32.736,0,0,0,5.492,0,25.708,25.708,0,0,0,3.558-.794l-.019-8.473s-2.051.385-3.653.707A28.6,28.6,0,0,1,96.658,130.125Z"/><path class="cls-22" d="M108.957,135.231s-3.594.726-3.373,1.452,2.051,1,2.56,1.513a9.982,9.982,0,0,0,4.1,1.785c1.016,0,8.165-3.264,8.165-3.264l5.387-2.242s1.9-1.6-.945-2.148-3.453-1.371-6.812,0C116.985,132.757,108.957,135.231,108.957,135.231Z"/><path class="cls-21" d="M120.231,133.4a2.4,2.4,0,0,1,.547-.786,1.311,1.311,0,0,1,.317-.26,1.263,1.263,0,0,1,.3-.108,10.445,10.445,0,0,0-1.8-.743c-.373,0-1.186-.031-1.288,1.028a1.182,1.182,0,0,0,.949,1.271l.92.335A1.314,1.314,0,0,1,120.231,133.4Z"/><path class="cls-23" d="M122.957,132.868a10.614,10.614,0,0,1-1.558-.618,1.263,1.263,0,0,0-.3.108,1.311,1.311,0,0,0-.317.26,2.4,2.4,0,0,0-.547.786,1.314,1.314,0,0,0-.048.737l2.232.815a2.7,2.7,0,0,0,1.322-.333,1.057,1.057,0,0,0,.271-1A1.348,1.348,0,0,0,122.957,132.868Z"/><path class="cls-21" d="M117.619,134.413a2.361,2.361,0,0,1,.547-.785,1.329,1.329,0,0,1,.316-.261,1.308,1.308,0,0,1,.3-.108,10.379,10.379,0,0,0-1.8-.743c-.372,0-1.186-.03-1.288,1.029a1.181,1.181,0,0,0,.949,1.27l.92.336A1.327,1.327,0,0,1,117.619,134.413Z"/><path class="cls-23" d="M120.345,133.878a10.6,10.6,0,0,1-1.559-.619,1.308,1.308,0,0,0-.3.108,1.329,1.329,0,0,0-.316.261,2.361,2.361,0,0,0-.547.785,1.327,1.327,0,0,0-.049.738l2.232.814a2.7,2.7,0,0,0,1.322-.333,1.057,1.057,0,0,0,.271-1A1.343,1.343,0,0,0,120.345,133.878Z"/><path class="cls-21" d="M115.134,135.218a2.4,2.4,0,0,1,.547-.786,1.326,1.326,0,0,1,.316-.26,1.271,1.271,0,0,1,.305-.108,10.479,10.479,0,0,0-1.8-.744c-.373,0-1.186-.03-1.288,1.029a1.182,1.182,0,0,0,.949,1.271l.919.335A1.323,1.323,0,0,1,115.134,135.218Z"/><path class="cls-23" d="M117.86,134.682a10.729,10.729,0,0,1-1.558-.618,1.271,1.271,0,0,0-.305.108,1.326,1.326,0,0,0-.316.26,2.4,2.4,0,0,0-.547.786,1.323,1.323,0,0,0-.049.737l2.233.815a2.7,2.7,0,0,0,1.322-.333,1.059,1.059,0,0,0,.271-1A1.348,1.348,0,0,0,117.86,134.682Z"/><path class="cls-21" d="M112.73,136.039a2.365,2.365,0,0,1,.547-.786,1.326,1.326,0,0,1,.316-.26,1.256,1.256,0,0,1,.3-.108,10.445,10.445,0,0,0-1.8-.743c-.373,0-1.187-.031-1.288,1.028a1.182,1.182,0,0,0,.949,1.271l.919.335A1.323,1.323,0,0,1,112.73,136.039Z"/><path class="cls-23" d="M115.456,135.5a10.527,10.527,0,0,1-1.558-.618,1.256,1.256,0,0,0-.3.108,1.326,1.326,0,0,0-.316.26,2.365,2.365,0,0,0-.547.786,1.323,1.323,0,0,0-.049.737l2.233.815a2.7,2.7,0,0,0,1.321-.333,1.057,1.057,0,0,0,.272-1A1.348,1.348,0,0,0,115.456,135.5Z"/><path class="cls-21" d="M110.5,136.836a2.391,2.391,0,0,1,.547-.785,1.051,1.051,0,0,1,.621-.368,10.393,10.393,0,0,0-1.8-.744c-.373,0-1.186-.03-1.288,1.029a1.182,1.182,0,0,0,.949,1.271l.92.335A1.317,1.317,0,0,1,110.5,136.836Z"/><path class="cls-23" d="M113.227,136.3a10.729,10.729,0,0,1-1.558-.618,1.051,1.051,0,0,0-.621.368,2.391,2.391,0,0,0-.547.785,1.317,1.317,0,0,0-.048.738l2.232.814a2.707,2.707,0,0,0,1.322-.332,1.059,1.059,0,0,0,.271-1A1.343,1.343,0,0,0,113.227,136.3Z"/><path class="cls-14" d="M120.612,116.754a11.454,11.454,0,0,1,5.062.947,15.439,15.439,0,0,0-.228-3.464c-.515-1.144-1.2-1.259-1.2-1.259v-1.773a24.075,24.075,0,0,0-2.46.4,23.717,23.717,0,0,1-4.691-.4v1.544s-.644.316-1.717.916c-.755.422-.744,2.174-.744,2.174v1.318C115.472,116.624,118.451,116.754,120.612,116.754Z"/><path class="cls-24" d="M117.9,119.157c-2.645-.108-3.206-1.084-3.262-1.195v10.349s-.321,1.562,6.294,1.6c4.462.027,4.519-2.174,4.519-2.174s.224-5.372.229-9.36C124.537,118.9,120.356,119.258,117.9,119.157Z"/><path class="cls-25" d="M125.674,117.7a11.454,11.454,0,0,0-5.062-.947c-2.161,0-5.14-.13-5.979.4v.805c.056.111.629.927,3.262,1.195a19.139,19.139,0,0,0,7.78-.778C125.675,118.148,125.675,117.921,125.674,117.7Z"/><path class="cls-26" d="M116.178,108.459v2.517s.682,1.773,3.974,1.545a12.41,12.41,0,0,0,4.436-.843l.229-3.219Z"/><path class="cls-27" d="M124.817,108.764c0,.959-2.111,1.736-4.434,1.736s-4.2-.777-4.2-1.736,1.883-1.736,4.2-1.736S124.817,107.805,124.817,108.764Z"/><ellipse class="cls-28" cx="120.44" cy="108.802" rx="1.859" ry="0.801"/><polygon class="cls-5" points="89.135 122.397 66.102 124.79 66.346 137.166 89.043 133.59 89.135 122.397"/><polygon class="cls-6" points="86.482 120.814 89.135 122.397 65.863 124.999 64.133 122.536 86.482 120.814"/><polygon class="cls-6" points="66.346 137.166 63.897 134.362 64.133 122.536 66.102 124.79 66.346 137.166"/><polygon class="cls-7" points="87.679 128.423 87.803 129.277 72.85 131.487 72.44 129.948 87.679 128.423"/><polygon class="cls-7" points="87.463 130.135 76.305 131.702 76.7 132.6 87.427 130.807 87.463 130.135"/><polygon class="cls-8" points="87.98 126.718 85.725 127.165 86.692 124.53 87.98 126.718"/><polygon class="cls-9" points="85.926 124.544 84.882 127.179 80.279 127.432 85.926 124.544"/><polygon class="cls-7" points="73.584 126.625 67.021 127.307 67.079 127.818 73.469 127.207 73.584 126.625"/><polygon class="cls-7" points="86.813 132.866 82.172 133.312 82.608 133.812 86.728 133.421 86.813 132.866"/><polygon class="cls-7" points="65.244 128.538 65.232 133.277 64.813 133.242 64.876 128.859 65.244 128.538"/><path class="cls-1" d="M73.587,37.817S77.923,38.88,77.62,41.4s-.378,2.824-1.1,4.034S74.6,48.56,73.99,47.753s-.6-.609-.625-1.314"/><path class="cls-1" d="M65.755,56.143s-1.762,5.4-1.292,6.461,2.219,4.229,2.219,4.229L65.408,67.92l-3.2,2.023s-6.686-3.46-6.873-3.813.572-2.7.738-3.056-.132-9.046-.132-9.046Z"/><path class="cls-1" d="M51.806,23.855s-2.42,10.285-2.622,12.806-.706,10.689.5,12.807,5.95,6.957,8.572,7.663,7.663,1.714,9.982-.706,5.244-6.756,5.143-9.478a71.482,71.482,0,0,1-.1-7.967c.2-2.218.807-8.268-.605-10.487s-.1-3.731-4.437-5.042S63.2,20.83,59.268,20.83,52.842,19.3,51.806,23.855Z"/><path class="cls-29" d="M53.016,22.342s4.235,2.017,5.546,3.63A16.561,16.561,0,0,0,63.6,29.8a9.274,9.274,0,0,0,2.622.2S64.007,29,63.5,27.989,62.6,25.98,62.6,25.98s3.126,1.5,3.63,2.211,3.025,3.126,3.126,4.336a7.011,7.011,0,0,1,0,1.714,2.368,2.368,0,0,0,1.411-2.017c.1-1.512-.1,1.513-.1,1.513s2.068.295,2.42-1.21l.351-1.506L73.212,42.4a12.522,12.522,0,0,0,3.8-5.433c.908-3.126,2.219-11.093-1.008-14.219s-4.235-5.445-7.664-6.151a56.166,56.166,0,0,0-5.647-.907s5.446-.807,5.849-.6-2.118.036-5.344-.033a21.766,21.766,0,0,0-5.95.739l4.336-2.021s-4.638-.1-6.554,1.315A36.951,36.951,0,0,1,50.5,17.8l1.815-4.037s-3.68,3.029-3.4,3.634a2.215,2.215,0,0,1,0,1.412s-2.042-.706-2.748-.908,1.613,1.21,1.613,1.21a4.656,4.656,0,0,0-3.126.908,13.263,13.263,0,0,0-2.117,2.017h3.327a14.5,14.5,0,0,0-1.915,2.924,16.157,16.157,0,0,0-.4,4.638,53.046,53.046,0,0,0,.605,6.857s2.622,2.32,2.824,3.227,1.941,4.74,1.941,4.74a21.085,21.085,0,0,1,.68-6.857c1.009-4.034,2.118-6.757,2.723-9.983a43.338,43.338,0,0,0,.706-5.244Z"/><path class="cls-1" d="M46.9,37.23s-1.793-1.318-2.8-.209-1.513,4.437-.807,5.748,2.723,2.319,3.126,2.824-.227,1.613,1.513.6.614-2.918.614-2.918"/><path class="cls-30" d="M65.016,34.846s.2,4.84.907,5.546,4.135,2.017,2.622,4.034-4.538,1.726-5.244,1.417a6.156,6.156,0,0,0-1.411-.409"/><path class="cls-3" d="M55.355,57.669s-2.395,1.822-2.806,3,.293,3.23.293,5.169-1.019,4.34-1.585,4.581-1.41,1.7.469.587,1.821-2.29,4.112-2.7,6.123,2.49,6.313,2.174c.453-.756-4.4-3.809-5.036-5.22-1.265-2.812-.807-1.652-.807-3.591s-.235-4-.235-4Z"/><path class="cls-3" d="M64.892,59.139s2.537.9,3.153,2.936a13.544,13.544,0,0,0,1.88,4.406,23.3,23.3,0,0,0,2.526,2.232,10.041,10.041,0,0,1-3.29-.823,12.613,12.613,0,0,0-1.585-.822,13.559,13.559,0,0,1-1.42,1.645,15.46,15.46,0,0,1-3.573,1.762c-1.234.235.973-1.195.973-4.073a10.381,10.381,0,0,1,.834-4.154C64.393,61.8,64.892,59.139,64.892,59.139Z"/><path class="cls-30" d="M66.929,51.087c-.8.073-.22.823-1,1.03-2.556.681-3.872.268-5.634-1.7"/><path class="cls-30" d="M46.372,39.109a1.064,1.064,0,0,0-1.5.577,1.373,1.373,0,0,0,.677,1.568c.247.136.526.2.781.324a.953.953,0,0,1,.56.595,1.384,1.384,0,0,1-.014.484,5.146,5.146,0,0,0-.038.886.285.285,0,0,0,.036.152.3.3,0,0,0,.219.1,1.882,1.882,0,0,0,.845,0,.641.641,0,0,0,.478-.626"/><path class="cls-29" d="M66.929,46.607a5.43,5.43,0,0,1,1.919,1.7,7.447,7.447,0,0,1,.783,2.1h-1.6a4.027,4.027,0,0,0-1.868.329c-.856.216-1.245-.138-1.789,0s.231-.073-1.791.072a6.7,6.7,0,0,1-2.35-.072c-1.629-.118-2.24.06-2.629-.329s.5.246,1.96-1.667A5.277,5.277,0,0,1,62.7,46.607S65.673,47.314,66.929,46.607Z"/><path class="cls-30" d="M59.425,31.478a2.276,2.276,0,0,0-2.34.1A7.9,7.9,0,0,0,54.8,33.3"/><path class="cls-30" d="M67.168,31.532a1.829,1.829,0,0,1,1.757.853"/><path class="cls-31" d="M55.6,36.417s-1,3.156,1.086,4.17S59.2,39.4,59.5,38.733c.55-1.2-.331-4.032-1.725-3.947A2.53,2.53,0,0,0,55.6,36.417Z"/><path class="cls-7" d="M56.765,37.73s-.616,1.944.669,2.569,1.547-.731,1.735-1.142c.339-.741-.2-2.485-1.063-2.432A1.559,1.559,0,0,0,56.765,37.73Z"/><path class="cls-31" d="M67.718,36.417s-1,3.156,1.086,4.17,2.51-1.186,2.815-1.854c.55-1.2-.331-4.032-1.726-3.947A2.53,2.53,0,0,0,67.718,36.417Z"/><path class="cls-7" d="M68.884,37.73s-.616,1.944.669,2.569,1.547-.731,1.735-1.142c.339-.741-.2-2.485-1.063-2.432A1.559,1.559,0,0,0,68.884,37.73Z"/></svg>