<svg id="word" xmlns="http://www.w3.org/2000/svg" viewBox="0 0 160 160"><defs><style>.cls-1,.cls-8{fill:#fdeae0;}.cls-1,.cls-10,.cls-11,.cls-12,.cls-13,.cls-2,.cls-3,.cls-4,.cls-5,.cls-6,.cls-7,.cls-8{stroke:#9d4b9c;stroke-miterlimit:10;stroke-width:0.75px;}.cls-12,.cls-2{fill:none;}.cls-3{fill:#006838;}.cls-4{fill:#ec1c24;}.cls-5{fill:#fff;}.cls-6{fill:#36388f;}.cls-7{fill:#716558;}.cls-12,.cls-8{stroke-linecap:round;}.cls-9{fill:#9d4b9c;}.cls-10{fill:#d6de23;}.cls-11{fill:#ee4d8f;}.cls-13{fill:#231f20;}</style></defs><path class="cls-1" d="M44.45,84.787l-3.3,1.67s-8.725,6.557-9.29,7.466a11.125,11.125,0,0,1-2.394,2.165s-5.4-.724-6.59-.729-3.44.983-3.3,1.95c.158,1.137.794.822.794.822s-1.6,1.093-.832,1.868,1.217.612,1.217.612-.846.908-.146,1.332a1.226,1.226,0,0,0,1.121.215s-.846,1.189.064,1.473,5.131-2.574,5.9-2.5,2.657,1.905,3.145,2.749,2.1,1.832,1.894-.2A13.986,13.986,0,0,0,31.2,99.252,52.913,52.913,0,0,0,36.616,96.4c3.445-2.02,6.473-4.743,8.721-5.645a51.839,51.839,0,0,1,5.127-1.662Z"/><path class="cls-2" d="M20.2,98.226a5.867,5.867,0,0,1,4.955-1.566"/><path class="cls-2" d="M20.736,100.531a12.271,12.271,0,0,1,2.731-1.816,7.269,7.269,0,0,1,1.588-.342"/><path class="cls-2" d="M21.931,102.071a7.2,7.2,0,0,1,3.909-1.759"/><polygon class="cls-1" points="52.896 70.999 57.525 76.049 63.417 77.172 63.277 71.56 60.19 67.632 52.896 70.999"/><path class="cls-1" d="M79.129,72.612l1.193-.21a53.34,53.34,0,0,1,2.244-7.155c.842-1.543,2.034-4.419,2.034-4.419s-.561-6.593.211-7.435,2.034-2.315,2.665-1.894a2.726,2.726,0,0,1,.912,1.123.8.8,0,0,1,1.192-.071,2.4,2.4,0,0,1,.842,1.053s.912-.491,1.333-.141a1.2,1.2,0,0,1,.28,1.052s1.263.211,1.333.842-.7,4.63-2.174,5.261-3.3,1.473-3.3,1.473-1.263,10.662-1.543,12.135-.842,4.419-1.824,4.208-3.156.421-3.367.351-3.016-.351-3.016-.351l.7-5.822Z"/><path class="cls-2" d="M91.842,54.48s-3.244,2.982-2.612,4.1,2.244-.211,2.244-.211"/><path class="cls-2" d="M88.6,52.681c-.378-.006-.557.448-.825.715a3.357,3.357,0,0,1-.473.343A2.3,2.3,0,0,0,86.35,55.5"/><path class="cls-2" d="M90.634,53.52a1.74,1.74,0,0,0-1.184.671,5.017,5.017,0,0,0-1.5,2.747,1.713,1.713,0,0,0,.1.906.891.891,0,0,0,.694.541"/><path class="cls-1" d="M84.67,61.109s-2.384-3.156-2.455-4.489,1.263-3.858,2.6-3.227,3.3,2.806,2.525,4-2.385-.7-2.385-.7"/><path class="cls-1" d="M87.2,83.064s3.857-8.628,4.348-9.329,4-4.279,4-4.279l1.192-1.543,5.892,4.419-1.543,2.385s-2.595,1.823-2.736,3.647-2.385,10.381-2.385,10.381Z"/><path class="cls-3" d="M95.332,68.825l10.943-13.608s1.052-1.473,1.753-.561,2.455,2.595,2.1,4.489a6.535,6.535,0,0,1-2.314,3.367s-4.279,8.557-4.56,9.329a13.115,13.115,0,0,1-1.964,2.525Z"/><path class="cls-1" d="M98.138,104.6s4.349,2.876,4.91,4.279-1.333,8-1.333,8l-5.892,1.613-1.613-3.437.421-1.543-2.245-1.964Z"/><path class="cls-3" d="M93.929,113.927a10.567,10.567,0,0,0,4.63,1.122c2.174-.14,4-.421,4-.421l-4.63,14.941s-2.244,3.717-2.665,3.507-3.788-4.068-3.788-4.068a16.748,16.748,0,0,0,1.4-4.419C93.017,122.835,93.228,115.119,93.929,113.927Z"/><path class="cls-4" d="M77.867,91.2l3.717-5.33s3.086-1.614,3.507-2.245S86.564,81.1,86.564,81.1s6.243,4.559,8.067,5.261,4.91,1.543,4.91,1.543-4.7,6.8-5.682,8.066a22.055,22.055,0,0,1-2.525,2.595l7.856,6.1a33.886,33.886,0,0,1-3.507,5.05c-1.263,1.193-5.261,5.191-5.261,5.191a22.912,22.912,0,0,0-5.4-4.7c-3.226-1.964-9.82-5.681-9.82-5.681l-2.034-2.736Z"/><path class="cls-2" d="M81.514,105.089a11.8,11.8,0,0,0,5.822-2.315,24.77,24.77,0,0,0,4-4.209"/><path class="cls-5" d="M79.971,79.276,79.76,71.63s-.9.056-1.643.068l.216,7.635A3.651,3.651,0,0,0,79.971,79.276Z"/><path class="cls-5" d="M64.627,71.283a2.212,2.212,0,0,1-2.116-1.133l.415,5.9-6.336-1.5-.085.931s.124.548-1.072,1.232l10.509,1.863Z"/><path class="cls-5" d="M45.506,82.683a10.124,10.124,0,0,0-2.08,2.345,8.951,8.951,0,0,1,3.016,1.262c1.263.912,3.087,3.788,3.087,4.56,0,.688.9.927,2.085.721-.492-1.641-1.347-4.431-1.735-5.351S46.987,83.615,45.506,82.683Z"/><path class="cls-6" d="M82.96,85.059l-2.474-.507a18.194,18.194,0,0,1-2.269-1.909c-1.122-1.122-4.559-4-4.559-4s2.174.421,4.068.631c.225.025.424.043.607.057L78.117,71.7l-.25,0c-.772,0-7.786.28-10.732-.281a9.354,9.354,0,0,0-2.508-.137l1.315,7.292L55.433,76.712c-2.835,1.623-7.8,4.482-9.131,5.37a9.347,9.347,0,0,0-.8.6c1.481.932,3.982,2.608,4.373,3.537s1.243,3.71,1.735,5.351c.143-.024.289-.052.44-.09,1.4-.351,6.453-4.84,6.453-4.84s5.962,6.243,6.874,7.856a16.869,16.869,0,0,0,1.894,2.876c1.192,1.613,1.333,2.736,2.876,5.962s4.7,4,4.7,3.788-.35-2.876-.7-5.121,3.577-7.294,4.349-9.4S82.96,85.059,82.96,85.059Z"/><path class="cls-1" d="M59.291,47.307s2.187-1.353,3.748-.312,1.25,4.06.833,4.58a6.811,6.811,0,0,1-1.145,1.041"/><path class="cls-1" d="M55.6,44.892s3.956,5,5.309,5.725,4.477,2.5,5.206,4.061-.209,9.057-1.146,11.139a13.221,13.221,0,0,1-4.893,5.205c-1.353.625-8.568,4.3-12.6,3.228-2.762-.737-8.016-3.748-10.514-7.5S33.531,54.469,34.676,52.8,45.712,42.809,48,42.393,55.6,44.892,55.6,44.892Z"/><path class="cls-7" d="M36.03,55.927s5.726-5.31,7.912-7.912,5.1-5.1,7.287-3.956,5.726,2.29,6.455,3.019,3.227,3.539,3.227,3.539-.624-5-2.811-7.391-5.726-6.038-5.726-6.975-1.041,2.5-.728,3.435-.208-.624-1.562-1.978a16.135,16.135,0,0,0-3.852-2.5,2.164,2.164,0,0,1,1.145,2.706c-.416,1.562-1.041.521-2.082-.832s-5.517-4.165-5.517-4.165,2.81,3.228,2.81,5.518-.728,1.77-1.457.416-2.082-4.06-2.082-4.06a11.581,11.581,0,0,1,0,3.436c-.312,1.353-2.6-2.811-2.707-3.332a28.462,28.462,0,0,1,.625,5.622c-.209,1.666-1.666-2.6-1.666-2.6A24.164,24.164,0,0,1,33.427,45.2c-1.457,2.811-3.123,6.559-2.29,7.7A18.554,18.554,0,0,0,32.8,54.886S29.679,57.7,30.1,60.924a11.04,11.04,0,0,0,1.457,4.685l-.625-2.395,1.25,4.269.208-1.562,1.457,3.436.521-2.291a5.955,5.955,0,0,1,4.268,1.041c1.874,1.458,2.833,1.37,2.833,1.37s1.681,1.441-1.05-3.524C37.425,60.517,39.815,58.831,36.03,55.927Z"/><path class="cls-1" d="M39.4,67.691s-4.373-2.29-3.748,1.457a3.6,3.6,0,0,0,4.893,3.02c.728-.417,2.03-1.146,2.03-1.146"/><path class="cls-8" d="M54.926,58.32a2.015,2.015,0,0,1,.334-1.169,1.053,1.053,0,0,1,1.774-.457"/><path class="cls-8" d="M52.374,65.3a14.444,14.444,0,0,0,6.393-2.8A10.568,10.568,0,0,0,62.224,56.9"/><path class="cls-8" d="M52.173,64.284a4.287,4.287,0,0,1,.3,2.469"/><path class="cls-8" d="M42.577,54.576a4.743,4.743,0,0,1,.389-2.075,2.756,2.756,0,0,1,1.493-1.443"/><path class="cls-8" d="M50.275,46.069a4.2,4.2,0,0,1,3.244-.962"/><path class="cls-5" d="M58.117,51.144s-1.613-2.829-3.573-2.56-.461,4.4,2.017,4.671S58.117,51.144,58.117,51.144Z"/><path class="cls-9" d="M58.08,51.188s-.843-1.478-1.867-1.338-.241,2.3,1.054,2.44S58.08,51.188,58.08,51.188Z"/><path class="cls-5" d="M49.721,57.516s-1.614-2.829-3.574-2.559-.461,4.4,2.018,4.67S49.721,57.516,49.721,57.516Z"/><path class="cls-9" d="M49.684,57.56s-.843-1.478-1.867-1.337-.241,2.3,1.054,2.439S49.684,57.56,49.684,57.56Z"/><path class="cls-10" d="M114.341,54.8c-.351-1.473.982-12.2.982-13.327,0-.748-1.243-1.432-2.074-1.806-1.948,3.066-6.9,13.239-6.9,13.239s-.211.7-1.4.912-.14,2.174-.14,2.174l2.946-.21s.491,1.122,1.052,2.736-.351,2.665.982,3.647,1.122-.982,1.122-.982a1.03,1.03,0,0,1,.912-.28,6.23,6.23,0,0,0,2.14-.034l.1-.247S114.692,56.269,114.341,54.8Z"/><path class="cls-11" d="M116.1,39.014a1.936,1.936,0,0,0-2.175-.211,3.046,3.046,0,0,0-.671.86c.831.374,2.074,1.058,2.074,1.806,0,1.122-1.333,11.854-.982,13.327s-.281,5.822-.281,5.822l-.1.247a2.739,2.739,0,0,0,1.086-.387c.772-.561,1.123-5.963.912-7.786S116.515,39.435,116.1,39.014Z"/><path class="cls-9" d="M116.1,39.014s1.473-.211,1.473.351-1.193,1.052-1.193,1.052Z"/><path class="cls-12" d="M106.328,52.66a4.338,4.338,0,0,1,3.09,1.246"/><path class="cls-12" d="M107.815,49.879a3.53,3.53,0,0,1,1.595.49,10.262,10.262,0,0,0,1.145.715"/><path class="cls-12" d="M109.2,47.225a5.2,5.2,0,0,1,1.561.762,1.768,1.768,0,0,1,.652.732"/><path class="cls-12" d="M110.422,45.044a6.378,6.378,0,0,1,1.693,1.26"/><path class="cls-9" d="M116.373,41.714s1.486.089,1.373.639-1.379.791-1.379.791Z"/><path class="cls-9" d="M116.289,44.974s1.485.09,1.372.64-1.379.791-1.379.791Z"/><path class="cls-9" d="M116.162,48.318s1.485.09,1.373.64-1.38.791-1.38.791Z"/><path class="cls-9" d="M116.162,52.508s1.485.09,1.373.639-1.38.792-1.38.792Z"/><path class="cls-9" d="M115.866,56.529s1.485.089,1.372.639-1.379.791-1.379.791Z"/><path class="cls-10" d="M100.8,144.369c1.263.07,3.858.491,4.49-.631a7.785,7.785,0,0,1,1.876-1.9c-.233-.266-.489-.56-.754-.909-1.122-1.473-7.085-8.557-7.085-8.557s.7-2.6-.841-4.069-2.105,2.525-2.105,2.525a18.867,18.867,0,0,1-2.525-.912c-.21-.21-1.613-2.034-3.156-1.332s-.141,2.455-.141,2.455-.631,1.333-1.332,2.595a3.055,3.055,0,0,0-.33,1.054,37.911,37.911,0,0,0,4.258,3.365C94.911,139.108,99.541,144.3,100.8,144.369Z"/><path class="cls-11" d="M107.169,141.841a7.785,7.785,0,0,0-1.876,1.9c-.632,1.122-3.227.7-4.49.631s-5.892-5.261-7.645-6.313a37.911,37.911,0,0,1-4.258-3.365,6.857,6.857,0,0,0,.119,2.243l3.788,2.034s5.121,5.05,7.155,6.173,7.575.07,8.066-1.053C108.4,143.232,107.918,142.7,107.169,141.841Z"/><path class="cls-9" d="M106.739,144.982s.285,1.46-.275,1.489-1.111-1.138-1.111-1.138Z"/><path class="cls-9" d="M102.986,145.762s-.123,1.483-.67,1.358-.76-1.4-.76-1.4Z"/><path class="cls-9" d="M99.907,145.227s-.908,1.178-1.3.776.12-1.585.12-1.585Z"/><path class="cls-9" d="M97.179,142.768s-.908,1.179-1.3.777.119-1.586.119-1.586Z"/><path class="cls-9" d="M94.061,140.194s-.908,1.179-1.3.777.12-1.586.12-1.586Z"/><path class="cls-9" d="M90.868,137.945s-.908,1.179-1.3.777.119-1.586.119-1.586Z"/><path class="cls-12" d="M100.375,133.588a5.589,5.589,0,0,0-1.954.382,3.157,3.157,0,0,0-1.969,1.371"/><path class="cls-12" d="M101.359,135.181,99.3,136.275a2.175,2.175,0,0,0-.465.3.738.738,0,0,0-.256.478"/><path class="cls-12" d="M103.105,136.8l-.473.288a3.06,3.06,0,0,0-1.478,1.635"/><path class="cls-12" d="M104.136,138.479c-.017.1-.12.17-.211.226a4.393,4.393,0,0,0-1.792,2.125"/><path class="cls-13" d="M138.274,26.837c1.55.683,3.13,1.293,4.731,1.845a13.031,13.031,0,0,0-6.536-8.37,11.892,11.892,0,0,0,.757,2.278A17.037,17.037,0,0,1,138.274,26.837Z"/><path class="cls-13" d="M134.493,19.472a12.709,12.709,0,0,0-10.836,1.39l5.5,1.5Z"/><path class="cls-13" d="M121.1,31.316a.959.959,0,0,0-.14-.378c-.742-1.377-1.511-2.739-2.293-4.094a13.208,13.208,0,0,0-.061,9.908l2.361-4.96A.974.974,0,0,0,121.1,31.316Z"/><path class="cls-5" d="M143.005,28.682c-1.6-.552-3.181-1.162-4.731-1.845a17.037,17.037,0,0,0-1.048-4.247,11.892,11.892,0,0,1-.757-2.278,12.691,12.691,0,0,0-1.976-.84l-5.337,2.89-5.5-1.5a13.045,13.045,0,0,0-4.99,5.982c.782,1.355,1.551,2.717,2.293,4.094a.959.959,0,0,1,.14.378.974.974,0,0,1-.133.476l-2.361,4.96a13.072,13.072,0,0,0,3.559,5.02c1.594-.171,3.187-.48,4.783-.656a.956.956,0,0,1,.467.026.983.983,0,0,1,.274.194,43.772,43.772,0,0,1,3.5,3.56,12.654,12.654,0,0,0,5.234-1.433,19.646,19.646,0,0,1,1.8-5.235c1.491-.672,2.973-1.364,4.45-2.065a13.223,13.223,0,0,0,.324-7.481Z"/><path class="cls-13" d="M136.428,43.463a13.022,13.022,0,0,0,6.253-7.3c-1.477.7-2.959,1.393-4.45,2.065A19.646,19.646,0,0,0,136.428,43.463Z"/><path class="cls-13" d="M127.689,41.336a.983.983,0,0,0-.274-.194.956.956,0,0,0-.467-.026c-1.6.176-3.189.485-4.783.656a12.711,12.711,0,0,0,8.369,3.141c.221,0,.441,0,.66-.017A43.772,43.772,0,0,0,127.689,41.336Z"/><polygon class="cls-13" points="129.528 26.844 124.628 32.008 128.215 38.089 135.696 36.995 136.09 29.383 129.528 26.844"/><path class="cls-13" d="M137.969,38.917a13.187,13.187,0,0,0-1.891-1.605,2.412,2.412,0,0,0-.8-.3l0-.525h0a2.844,2.844,0,0,1,1.1.391,13.823,13.823,0,0,1,1.966,1.669Z"/><path class="cls-13" d="M136.013,29.7l-.5-.153a4.129,4.129,0,0,1,.99-1.379c.15-.159.292-.31.4-.446.064-.08.124-.163.183-.247a3.671,3.671,0,0,1,.349-.437,1.22,1.22,0,0,1,.953-.414l-.044.523a.715.715,0,0,0-.533.257,3.236,3.236,0,0,0-.3.377c-.066.091-.131.183-.2.271-.117.145-.268.306-.427.475A3.835,3.835,0,0,0,136.013,29.7Z"/><path class="cls-13" d="M129.332,27.173a8.66,8.66,0,0,1,0-.869c.009-.293.018-.6,0-.811a25.088,25.088,0,0,0-.376-3.1l.514-.107a25.6,25.6,0,0,1,.386,3.17c.019.243.009.561,0,.868s-.019.6,0,.811Z"/><path class="cls-13" d="M125.225,32.446a12.288,12.288,0,0,1-2.274-.483c-.25-.069-.487-.135-.7-.188-.1-.025-.2-.053-.3-.08a3.842,3.842,0,0,0-.963-.18l0-.525a4.3,4.3,0,0,1,1.1.2c.1.026.194.053.291.077.217.054.459.121.713.191a11.908,11.908,0,0,0,2.165.465Z"/><path class="cls-13" d="M127.078,41.227a3.225,3.225,0,0,1,.226-1.61c.106-.285.235-.561.359-.827.087-.187.174-.374.253-.564a1.324,1.324,0,0,1,.335-.537l.341.4a.843.843,0,0,0-.181.316c-.092.221-.182.414-.272.607-.122.261-.243.521-.343.789a2.72,2.72,0,0,0-.2,1.349Z"/></svg>