<svg id="word" xmlns="http://www.w3.org/2000/svg" xmlns:xlink="http://www.w3.org/1999/xlink" viewBox="0 0 160 160"><defs><style>.cls-1{fill:#2d7138;}.cls-2,.cls-5{fill:none;}.cls-2{stroke:#fff;stroke-miterlimit:10;}.cls-3{stroke:#9d4b9c;fill:url(#radial-gradient);}.cls-4{fill:#231f20;}.cls-5{stroke:#4a4a4c;stroke-width:0.5px;}</style><radialGradient id="radial-gradient" cx="90.258" cy="-1470.38" r="3.796" gradientTransform="translate(-372.193 8304.209) scale(5.346 5.579)" gradientUnits="userSpaceOnUse"><stop offset="0" stop-color="#fff"/><stop offset="0.448" stop-color="#f0f0f1"/><stop offset="0.97" stop-color="#7a7c7f"/></radialGradient></defs><polygon class="cls-1" points="27.974 40.93 12.689 98 145 98 130.057 40.93 27.974 40.93"/><line class="cls-2" x1="78.879" y1="40.93" x2="77.517" y2="98"/><ellipse class="cls-2" cx="78.152" cy="70.479" rx="8.546" ry="7.242"/><polygon class="cls-2" points="33.757 57.116 27.915 80.452 17.465 80.227 23.582 56.868 33.757 57.116"/><polyline class="cls-2" points="25.967 49.198 45.929 48.365 36.679 90.87 15.499 90.454"/><path class="cls-2" d="M44.144,58.505A14.2,14.2,0,0,1,45.929,69.9a15.291,15.291,0,0,1-6.816,9.724"/><polygon class="cls-2" points="122.808 55.032 128.651 78.369 139.1 78.144 132.984 54.785 122.808 55.032"/><polyline class="cls-2" points="131.039 46.128 110.636 46.281 119.887 88.787 142.534 89.467"/><path class="cls-2" d="M112.421,56.421a14.2,14.2,0,0,0-1.785,11.391,15.294,15.294,0,0,0,6.817,9.723"/><path class="cls-3" d="M125.581,106.032c0,9.3-7.231,16.833-16.123,16.833s-16.123-7.534-16.123-16.833,7.226-16.822,16.123-16.822S125.581,96.745,125.581,106.032Z"/><polygon class="cls-4" points="106.057 97.43 111.179 93.842 116.785 97.785 114.95 103.638 108.408 103.719 106.057 97.43"/><polygon class="cls-4" points="114.427 115.777 118.121 109.925 122.729 109.756 122.482 114.821 116.95 118.932 114.427 115.777"/><polygon class="cls-4" points="98.107 115.777 104.223 119.543 107.658 115.871 104.638 110.102 98.522 109.661 98.107 115.777"/><path class="cls-4" d="M93.676,103.283l2.508.266,3.6-6.037-.416-3.758L97.15,95.417a10.964,10.964,0,0,0-3.474,7.866Z"/><path class="cls-4" d="M121.472,94.636l-.088,3.009a18.918,18.918,0,0,1,2.606,3.368,5.511,5.511,0,0,1,.252,2.367l1.168.234s-1.168-4.9-2.258-6.3A14.869,14.869,0,0,1,121.472,94.636Z"/><line class="cls-5" x1="99.53" y1="97.573" x2="106.188" y2="97.386"/><line class="cls-5" x1="108.639" y1="103.549" x2="104.469" y2="110.275"/><line class="cls-5" x1="96.201" y1="103.214" x2="98.784" y2="110.455"/><line class="cls-5" x1="107.236" y1="115.871" x2="115.024" y2="115.871"/><line class="cls-5" x1="114.604" y1="103.283" x2="118.297" y2="110.102"/><line class="cls-5" x1="116.2" y1="97.945" x2="121.472" y2="97.601"/><line class="cls-5" x1="111.337" y1="94.023" x2="110.595" y2="89.453"/><path class="cls-5" d="M124.34,103.35s-.522,3.082-.772,4.221a10.106,10.106,0,0,1-1.238,2.6"/><path class="cls-5" d="M104.311,119.077a19.556,19.556,0,0,0,.435,2.3,1.729,1.729,0,0,0,1.442,1.116"/><line class="cls-5" x1="98.4" y1="115.673" x2="96.828" y2="116.522"/><line class="cls-5" x1="117.057" y1="118.689" x2="117.177" y2="120.789"/><line class="cls-5" x1="122.399" y1="114.629" x2="122.964" y2="115.344"/><line class="cls-5" x1="99.092" y1="94.238" x2="100.278" y2="92.266"/></svg>