<svg id="word" xmlns="http://www.w3.org/2000/svg" xmlns:xlink="http://www.w3.org/1999/xlink" viewBox="0 0 160 160"><defs><style>.cls-1,.cls-10,.cls-3,.cls-4,.cls-5,.cls-6,.cls-7,.cls-8,.cls-9{stroke:#9d4b9c;stroke-miterlimit:10;stroke-width:1.052px;}.cls-1{fill:url(#linear-gradient);}.cls-2{fill:#9d4b9c;}.cls-3{fill:#faaf40;}.cls-4{fill:url(#linear-gradient-2);}.cls-5{fill:#d82b34;}.cls-6{fill:#c2262d;}.cls-7{fill:#fff;}.cls-8{fill:#223f99;}.cls-9{fill:#006838;}.cls-10{fill:none;}</style><linearGradient id="linear-gradient" x1="86.794" y1="77.051" x2="23.923" y2="75.999" gradientUnits="userSpaceOnUse"><stop offset="0" stop-color="#1fc3f3"/><stop offset="0.028" stop-color="#4ac4c6"/><stop offset="0.062" stop-color="#79c495"/><stop offset="0.097" stop-color="#a2c56a"/><stop offset="0.132" stop-color="#c3c548"/><stop offset="0.168" stop-color="#dcc62d"/><stop offset="0.204" stop-color="#efc61a"/><stop offset="0.241" stop-color="#f9c60f"/><stop offset="0.281" stop-color="#fdc60b"/><stop offset="0.513" stop-color="#f28f3f"/><stop offset="1" stop-color="#003b1a"/></linearGradient><linearGradient id="linear-gradient-2" x1="123.168" y1="63.83" x2="83.183" y2="71.985" gradientUnits="userSpaceOnUse"><stop offset="0" stop-color="#1fc3f3"/><stop offset="0.021" stop-color="#41c4e3"/><stop offset="0.056" stop-color="#72c6ca"/><stop offset="0.092" stop-color="#9cc7b6"/><stop offset="0.128" stop-color="#bec8a5"/><stop offset="0.165" stop-color="#d9c998"/><stop offset="0.202" stop-color="#ecca8e"/><stop offset="0.24" stop-color="#f7ca89"/><stop offset="0.281" stop-color="#fbca87"/><stop offset="1" stop-color="#f28f3f"/></linearGradient></defs><path class="cls-1" d="M86.734,67.347s-2.988-5.86-3.18-7.9.851-14.4,0-17.184-9.852-15.278-18.5-16.06-18.662.593-24.5,4.8S25.033,44.808,24.46,53.084,23.29,74.45,27.884,84.526a118.167,118.167,0,0,1,7.423,21.383c1.233,4.626,2.6,9.624.333,14.5s-3.683,6.35-3.683,6.35,5.944-5.242,7.9-12.683.3-12.678-1.169-17.622S36.2,80.408,36.2,80.408s5.988,17.478,7.316,19.944,1.634,9.535.717,13.12a51.855,51.855,0,0,1-2.413,6.991s5.129-8.566,5.089-16.987A59.649,59.649,0,0,0,43.9,85.581c-1.028-3.544.334-17.469.334-17.469s-.1,14.175,1.338,17.338,2.673,12.179,2.673,12.179A70.869,70.869,0,0,0,49.921,87.3c.581-6.182.507-15.539.507-15.539l2.637-6.236s.9,7.349.43,11.832-.975,8.01-.975,8.01,4.033-1.122,4.033-6.434S59.986,67.2,63.07,67.318s2.508.5,2.235,3.849-1.867,11.594-1.867,11.594l10.75-6.627s6.981-3.6,9.9-4.455S86.734,67.347,86.734,67.347Z"/><path class="cls-2" d="M82.942,71.46a13.5,13.5,0,0,1-2.508-2.644,5.456,5.456,0,0,1-1.17-3.429,13.241,13.241,0,0,0-.5-3.573c-.286-1.179-.615-2.35-.92-3.529a41.594,41.594,0,0,1-1.315-7.2,30.143,30.143,0,0,0-3.613-10.143,15.118,15.118,0,0,0-2.09-2.88,4.666,4.666,0,0,0-.634-.594,3.357,3.357,0,0,0-.69-.483,2.96,2.96,0,0,0-.737-.3c-.283-.067-.594-.117-.889-.178l-3.58-.691c-1.192-.219-2.385-.421-3.583-.586a26.509,26.509,0,0,0-3.553-.334,11.6,11.6,0,0,0-6.413,2.517l-.392-.81a19.993,19.993,0,0,1,4.066-.345,15.525,15.525,0,0,1,4.056.566,13.853,13.853,0,0,1,5.26,3.211,4.624,4.624,0,0,1,.685.88,2.293,2.293,0,0,1,.246.589,1.559,1.559,0,0,1,.037.385.9.9,0,0,1-.171.519l-.1.156L64.2,42.6c-2.005.261-4.046.678-6.053,1.12a29.5,29.5,0,0,0-5.826,1.8A10.443,10.443,0,0,0,49.8,47.029a3.813,3.813,0,0,0-.884,1.032l-.14.286-.079.294a1.2,1.2,0,0,0-.031.3c-.009.082-.012.218-.011.375a4.583,4.583,0,0,1-1.314,3.127c-.171.192-.385.415-.453.516-.015-.009.069-.009-.011-.284a.3.3,0,0,0-.142-.164.7.7,0,0,1,.2.2.492.492,0,0,1,.068.323.5.5,0,0,1-.052.187L46.9,53.3a1.917,1.917,0,0,1-.391.385c-.441.342-.871.625-1.308.916-1.726,1.147-3.549,2.216-5.176,3.371l-.122.1a.192.192,0,0,0-.024.021l.018-.025a.375.375,0,0,0,.045-.094c.015-.117.051-.074-.018-.328a.476.476,0,0,0-.3-.261.423.423,0,0,0-.123-.013H39.49c-.013,0-.015,0,0,0l.057-.017L39.7,57.3c.224-.086.458-.187.691-.29l1.4-.648c.928-.451,1.853-.9,2.758-1.385a55.134,55.134,0,0,0,5.28-3.174c.857-.573,1.684-1.184,2.591-1.75a7.869,7.869,0,0,1,1.478-.736,4.486,4.486,0,0,1,1.721-.209l.267.046a2.1,2.1,0,0,1,.306.14.875.875,0,0,1,.363.665,1.925,1.925,0,0,1-.263.964,9.584,9.584,0,0,1-.894,1.361c-.639.841-1.316,1.629-1.981,2.422s-1.331,1.58-1.941,2.4a14.373,14.373,0,0,0-.852,1.25,3.312,3.312,0,0,0-.507,1.272c-.031.086.03.225-.027.121-.059-.071-.189-.085-.175-.073a.28.28,0,0,0,.073-.035,3.481,3.481,0,0,0,.541-.435c.366-.341.725-.715,1.084-1.085.719-.744,1.444-1.494,2.2-2.211a15.1,15.1,0,0,1,5.223-3.517,4.462,4.462,0,0,1,4.61.866c.4.364.737.748,1.109,1.121a17.523,17.523,0,0,1,3.462,5.2,14.291,14.291,0,0,1,.933,6.139,18.232,18.232,0,0,0,1.355,6.016A18.324,18.324,0,0,1,69,65.715a14.059,14.059,0,0,0-1.056-6.026,17.162,17.162,0,0,0-3.512-5.006c-.368-.352-.726-.743-1.1-1.063a4.012,4.012,0,0,0-4.122-.7,14.581,14.581,0,0,0-4.954,3.45c-.737.714-1.443,1.463-2.153,2.219-.357.377-.71.756-1.1,1.126a4.014,4.014,0,0,1-.665.541.908.908,0,0,1-.281.117.572.572,0,0,1-.248,0,.507.507,0,0,1-.281-.17.848.848,0,0,1-.147-.627,3.9,3.9,0,0,1,.588-1.607,15,15,0,0,1,.879-1.33c.619-.851,1.28-1.655,1.936-2.458s1.319-1.6,1.922-2.413a8.832,8.832,0,0,0,.8-1.24,1.239,1.239,0,0,0,.164-.511c0-.045,0,.013.018,0a.07.07,0,0,1-.048-.018L55.527,50a3.626,3.626,0,0,0-1.341.172,7.032,7.032,0,0,0-1.293.657c-.849.533-1.688,1.157-2.55,1.739a56.023,56.023,0,0,1-5.352,3.249c-.916.5-1.855.958-2.788,1.416l-1.418.666c-.241.107-.481.213-.741.314l-.21.073-.13.037a.666.666,0,0,1-.1.017l-.061.007a.627.627,0,0,1-.171-.018s-.182-.013-.338-.284a.467.467,0,0,1-.015-.372.5.5,0,0,1,.068-.136l.048-.063a1.152,1.152,0,0,1,.114-.116l.178-.147c1.745-1.252,3.5-2.282,5.219-3.437.424-.284.858-.574,1.233-.87.078-.056.205-.185.173-.146l-.021.039a.516.516,0,0,0-.038.143.478.478,0,0,0,.061.278c.061.13.26.219.167.166a.725.725,0,0,1-.274-.3.7.7,0,0,1,.072-.649,6.579,6.579,0,0,1,.558-.662,3.551,3.551,0,0,0,1.045-2.456,5.2,5.2,0,0,1,.058-.874l.124-.455.2-.415a4.834,4.834,0,0,1,1.111-1.324,11.256,11.256,0,0,1,2.773-1.691,30.507,30.507,0,0,1,6.036-1.837c2.04-.438,4.064-.847,6.169-1.111l-.339.187c-.077.123-.027.052-.04.046a.65.65,0,0,0-.011-.109,1.4,1.4,0,0,0-.14-.324,3.662,3.662,0,0,0-.535-.686,12.893,12.893,0,0,0-4.82-2.973,14.531,14.531,0,0,0-3.8-.544,19.029,19.029,0,0,0-3.854.307l-1.914.358L50.16,36.7a13.922,13.922,0,0,1,3.277-1.877,10.484,10.484,0,0,1,3.7-.82,24.685,24.685,0,0,1,3.7.378c1.21.183,2.414.4,3.612.64l3.577.74c.3.066.59.116.9.192a3.736,3.736,0,0,1,.94.393,4.109,4.109,0,0,1,.794.569,5.249,5.249,0,0,1,.687.661A15.793,15.793,0,0,1,73.5,40.614a28.393,28.393,0,0,1,1.6,3.322,27.82,27.82,0,0,1,1.95,7.091A40.97,40.97,0,0,0,78.18,58.2c.276,1.183.578,2.362.838,3.555a13.425,13.425,0,0,1,.418,3.643,5.324,5.324,0,0,0,1.069,3.368A13.486,13.486,0,0,0,82.942,71.46Z"/><path class="cls-2" d="M66.912,67.081a37.726,37.726,0,0,0-2.294-4.043,3.617,3.617,0,0,0-1.58-1.349c-.679-.323-1.395-.679-2.082-.934a4.843,4.843,0,0,0-4.134.057,5.427,5.427,0,0,0-2.845,3.316,4.649,4.649,0,0,1,.687-2.3,5.479,5.479,0,0,1,1.761-1.739,5.146,5.146,0,0,1,2.416-.771,6.16,6.16,0,0,1,2.491.45A22.82,22.82,0,0,1,63.5,60.811a4.26,4.26,0,0,1,1.81,1.8A16.212,16.212,0,0,1,66.912,67.081Z"/><path class="cls-3" d="M101.545,90.085S94.783,96.3,95.2,98.112s-2.627,7.364-5.051,7.943-3.986-1.342-4.581-3.436,0-9.008,0-9.008,7.55-4.34,9.523-4.34A54.275,54.275,0,0,1,101.545,90.085Z"/><path class="cls-2" d="M74.675,103.931a16,16,0,0,1-1.324,3.359c-.713,1.12-2.749,2.851-2.036,3.36s3.869,3.462,4.581,4.174,3.666,4.684,3.258,5.091,0,2.24-.814,2.749a7.043,7.043,0,0,0-1.527,1.425,1.052,1.052,0,0,0,1.73,0c1.019-1.018,2.139-2.036,2.139-2.036s3.054,4.785,3.054,5.091.407,1.934-.611,2.24-3.36,1.018-3.767,2.239a4.763,4.763,0,0,0-.305,3.312c.407,1.066.814,2.8,1.018,1.27s-.917-2.851.2-3.36,1.833-.407,2.342-1.12a6.418,6.418,0,0,1,1.775-1.393,9.743,9.743,0,0,0,2.3,1.088c.509,0,3.055,2.749,3.055,2.749a11.412,11.412,0,0,1,.814,3.156c-.1.814.118,2.647.008,3.258s1.316-2.342,1.112-3.869a14.225,14.225,0,0,0-1.832-4.072L87.91,130.6l2.444.2a1.555,1.555,0,0,1,2.138.713,31.1,31.1,0,0,1,1.73,3.97,29.861,29.861,0,0,0,.917,3.36s1.222-3.563,0-5.4a28.2,28.2,0,0,0-3.36-3.869l1.833.713s1.564,2.847,2.07,2.647-1.561-3.767-2.579-4.276-5.8-.713-5.8-.713l-3.875-4.072a10.323,10.323,0,0,1-1.826-3.767c-.2-1.629-4.073-6.923-4.785-8.858s2.341-6.618,2.341-6.618S76,102.1,74.675,103.931Z"/><path class="cls-2" d="M87.188,105.389s-1.018,6.109,0,6.924,4.955-1.528,5.226-2.138,7.093-4.175,7.908-4.786a17.643,17.643,0,0,1,2.85-1.425s1.324,2.036,1.833,2.647a6.141,6.141,0,0,1,.509,2.647s1.12-3.054,0-4.276-1.12-1.731-1.12-1.731l3.054-2.239,3.971-1.222a3.416,3.416,0,0,1-1.222,1.629,5.77,5.77,0,0,0-2.138,4.072l.1,1.426s.1.679.815-.781,2.443-4.31,2.443-4.31l1.833-2.545s2.647,1.323,2.952,2.24,1.833,1.934.713,2.952-2.545,1.935-3.563,1.935-2.342.1-2.342.1,2.342,1.426,3.36,1.018,4.174-2.138,3.767-4.174-2.342-6.618-3.462-7.025-6.312,1.833-8.145,3.258-8.959,5.5-10.181,6.312-5.6,4.375-5.192,2.595,1.255-5.14,1.255-5.14S88,104.066,87.188,105.389Z"/><path class="cls-4" d="M111.445,38.039a8.831,8.831,0,0,0-5.528-3.122c-3.272-.258-7.415,1.151-9.241,4.659S95.2,50.538,95.222,53.656s1.608,8.738,1.007,9.921S89.4,68.061,88.777,69.2s-15.3,11.822-14.994,14.9,2.478,9.76,2.488,12.347-3.471,4.294-.812,7.739.89,1.189,3.58.666,6.459-7.94,8.874-9.811,7.932-5.014,13.632-4.95,16.416-4.053,19.056-5.991,6.771-7.151,6.842-11.953-4.12-15.884-4.12-15.884-7.954-8.851-8.689-10.739S111.445,38.039,111.445,38.039Z"/><polygon class="cls-3" points="112.965 35.613 119.292 31.715 114.488 42.238 111.445 37.401 112.965 35.613"/><path class="cls-5" d="M108.651,31.1s-.567-8.249-4.565-8.38-5,3.837-4.989,5.715,0,3.887,0,3.887-3.6-5.427-5.446-2.254,1.73,6.669,1.73,6.669-2.713-2.7-3.488.638,1.879,3.809,1.879,3.809-2.744-1.224-2.882,2.059a2.722,2.722,0,0,0,3,3.04l1.2.9s1.6-7.721,3.946-9.143,5.1-3.405,7.515-2.751a10.429,10.429,0,0,1,4.067,2.227Z"/><path class="cls-6" d="M116.629,43.934s6.541,2.4,8.5,2.48,4.931.231,4.825,2.672-1.435,4.08-2.081,3.994-6.851-1.663-8.473-3.531-6.038-7.091-6.038-7.091Z"/><path class="cls-7" d="M108.494,38.739s-.924-2.2-2.577-.7-.187,4.113.752,4.2S109.051,39.373,108.494,38.739Z"/><path class="cls-8" d="M58.33,89.961s-4.643,7.43-4.723,10.6-2.493,10.586-2.3,13.343a39.3,39.3,0,0,0,1.232,6.447s.78-9.691,1.872-13.614,2.418-2.59,2.418-2.59-1.343,8.976-.1,14.147a71.316,71.316,0,0,0,3.376,10.1s-1.729-9.575-1.248-14.055a53.031,53.031,0,0,1,2.794-10.552s.186,10.773,1.569,14.692,3.511,6.474,2.909,4.214-1-12.312-1-12.312.713-7.328,1.382-9.031,1.368-3.337,1.368-3.337-1.168,5.007.4,5.2,2.579-3.49,2.735-5.584,4.083-9.484,6.625-9.635a12.316,12.316,0,0,0,3.713-.651l-16.353,5-1.877-7.555Z"/><path class="cls-9" d="M96.415,58.363s8,8.3,9.451,10.369,3.351,10.691-.7,14.163-7.772,5.486-10.6,4.183-10.4-.594-13.206.265-13.683,7.242-13.683,7.242-3.386,5.742-4.966,5.494-3.916-.032-3.827-2.45a20.011,20.011,0,0,1,1.171-5.281s-2.523-1.454-.48-4.431,5.268-6.9,5.268-6.9.6-3.5,3.444-3.867l2.84-.362s.657-3.911,4.206-4.817,8.237-1.435,11.4-2.742,6.574-4.095,8.32-5.507S96.479,59.226,96.415,58.363Z"/><path class="cls-10" d="M83.463,71.364c-.324-.281-.761.189-.924.586a38.4,38.4,0,0,0-2.818,15.872"/><path class="cls-2" d="M60.2,92.745c1.141-1.022,2.006-2.276,3.2-3.305A18.32,18.32,0,0,1,67.237,86.8a18.666,18.666,0,0,1,4.389-1.57,15.73,15.73,0,0,1,4.614-.321,38.419,38.419,0,0,0-4.4,1.113,29.339,29.339,0,0,0-4.125,1.715,28.077,28.077,0,0,0-3.8,2.34A29.453,29.453,0,0,1,60.2,92.745Z"/><path class="cls-2" d="M61.459,85.254A26.466,26.466,0,0,0,64.726,82.8a13.442,13.442,0,0,1,3.38-2.566,14.972,14.972,0,0,1,4.139-.941,19.716,19.716,0,0,1,4.171-.038L72.38,80.1a23.4,23.4,0,0,0-3.847,1.091,19.547,19.547,0,0,0-3.3,2.247A12.158,12.158,0,0,1,61.459,85.254Z"/><path class="cls-2" d="M34.591,71.2a40.112,40.112,0,0,0,.085-5.058c-.051-1.684-.164-3.367-.273-5.057a36.659,36.659,0,0,1,.466-10.229A17.847,17.847,0,0,1,36.7,45.982,11.684,11.684,0,0,1,40.2,42.1a11.236,11.236,0,0,1,4.817-1.91,7.845,7.845,0,0,1,4.975.977,8.731,8.731,0,0,0-2.426-.627A8.852,8.852,0,0,0,45.1,40.7a10.658,10.658,0,0,0-4.421,2.053A14,14,0,0,0,35.9,51.081a43.482,43.482,0,0,0-.688,9.974c.011,1.69.036,3.387-.019,5.086A31.154,31.154,0,0,1,34.591,71.2Z"/><path class="cls-5" d="M113.314,45.6s-1.125,5.959,1.19,8.1,5.243,5.652,7.812,5,6.941-1.987,5.128-4.988-6.637-6.616-8.152-6.321-6.213-3.55-5.978-4.019S113.314,45.6,113.314,45.6Z"/><ellipse class="cls-2" cx="107.602" cy="39.158" rx="0.819" ry="1.181"/><path class="cls-2" d="M122.15,63.258a2.464,2.464,0,0,1,.689,1.378,2.439,2.439,0,0,1-.2,1.528,3.457,3.457,0,0,1-.539-1.4A3.5,3.5,0,0,1,122.15,63.258Z"/><path class="cls-2" d="M125.037,69.854a4.754,4.754,0,0,1-.425,4.749,19.5,19.5,0,0,1,.108-2.384A20.358,20.358,0,0,1,125.037,69.854Z"/><path class="cls-2" d="M123.492,70.288a2.918,2.918,0,0,1-.144,3.159,4.1,4.1,0,0,1-.207-1.592A4.168,4.168,0,0,1,123.492,70.288Z"/><path class="cls-2" d="M119.25,63.357a5.564,5.564,0,0,1-.328,4.734,11.11,11.11,0,0,1-.05-2.382A11.251,11.251,0,0,1,119.25,63.357Z"/><path class="cls-2" d="M121.134,67.744a1.033,1.033,0,0,1-.088,1.666,1.262,1.262,0,0,1-.278-.85A1.279,1.279,0,0,1,121.134,67.744Z"/><path class="cls-2" d="M121.7,74.591a1.992,1.992,0,0,1-.009,1.431,1.97,1.97,0,0,1-.917,1.1,3.284,3.284,0,0,1,.217-1.355A3.34,3.34,0,0,1,121.7,74.591Z"/><path class="cls-2" d="M117.968,75.9a1.852,1.852,0,0,1-.619,2.707,7.013,7.013,0,0,1,.193-1.38A7.322,7.322,0,0,1,117.968,75.9Z"/><path class="cls-2" d="M119.846,80.047a4.636,4.636,0,0,1-1.292,1.735,4.59,4.59,0,0,1-1.9,1.034,7.031,7.031,0,0,1,1.412-1.6A7.147,7.147,0,0,1,119.846,80.047Z"/><path class="cls-2" d="M113.964,81.859a1.38,1.38,0,0,1-.257,1.239,4.263,4.263,0,0,1-.819.933,3.683,3.683,0,0,1-2.269.918c.626-.561,1.219-1,1.788-1.488.292-.235.567-.489.857-.738A2.11,2.11,0,0,0,113.964,81.859Z"/><path class="cls-2" d="M123.95,77.129a2.944,2.944,0,0,1-.163,1.69,2.908,2.908,0,0,1-1.01,1.365,4.235,4.235,0,0,1,.314-1.632A4.308,4.308,0,0,1,123.95,77.129Z"/><path class="cls-2" d="M119.993,70.55a1.557,1.557,0,0,1,.335,1.193,1.541,1.541,0,0,1-.6,1.087,2.37,2.37,0,0,1-.145-1.171A2.411,2.411,0,0,1,119.993,70.55Z"/><path class="cls-2" d="M48.263,35.011A10.2,10.2,0,0,0,42.7,36.485a14.44,14.44,0,0,0-4.259,3.85A31.778,31.778,0,0,0,35.419,45.3a46.5,46.5,0,0,0-2.312,5.368,51.636,51.636,0,0,0-2.86,11.325,58.045,58.045,0,0,0-.419,11.742,46.277,46.277,0,0,1-.6-5.9,49.989,49.989,0,0,1,.216-5.942,42.2,42.2,0,0,1,.984-5.875A47.122,47.122,0,0,1,32.121,50.3a47.633,47.633,0,0,1,2.448-5.44,26.84,26.84,0,0,1,3.24-5.033,14.96,14.96,0,0,1,4.645-3.8A9.932,9.932,0,0,1,48.263,35.011Z"/><path class="cls-2" d="M40.236,80.452a35.417,35.417,0,0,0-1.34-4.884,30.447,30.447,0,0,1-1.1-5,73.415,73.415,0,0,1-.381-10.195,30.46,30.46,0,0,1,.461-5.134,12.974,12.974,0,0,1,1.913-4.853,8.6,8.6,0,0,1,1.794-1.938,9.274,9.274,0,0,1,2.289-1.263c1.611-.605,3.254-.97,4.779-1.723a37,37,0,0,1-4.573,2.2,7.723,7.723,0,0,0-3.609,3.167c-1.683,2.818-1.956,6.239-2,9.567-.039,3.375-.134,6.753.13,10.089a30.742,30.742,0,0,0,.792,4.958A28.172,28.172,0,0,1,40.236,80.452Z"/><path class="cls-2" d="M70.094,32.513a9.1,9.1,0,0,1,7.078,4.9c1.411,2.711,1.7,5.736,2.039,8.615a65.9,65.9,0,0,1-.45,17.506,134.816,134.816,0,0,0-.6-17.4c-.316-2.874-.563-5.79-1.725-8.36A9.5,9.5,0,0,0,70.094,32.513Z"/><path class="cls-2" d="M77.371,70.07a33.769,33.769,0,0,0-4.19-14.944,11.772,11.772,0,0,0-2.208-3.063,11,11,0,0,0-3.254-1.91,51.885,51.885,0,0,0-7.48-2.473,31.419,31.419,0,0,1,7.776,1.707,11,11,0,0,1,3.623,1.933,12.383,12.383,0,0,1,2.46,3.291A26.214,26.214,0,0,1,77.371,70.07Z"/></svg>