<svg id="word" xmlns="http://www.w3.org/2000/svg" xmlns:xlink="http://www.w3.org/1999/xlink" viewBox="0 0 160 160"><defs><style>.cls-1,.cls-16{fill:none;}.cls-2{clip-path:url(#clip-path);}.cls-3{fill:#faaf40;}.cls-15,.cls-16,.cls-3,.cls-4{stroke:#9d4b9c;}.cls-3,.cls-4{stroke-width:0.557px;}.cls-4{fill:#be312e;}.cls-15,.cls-16,.cls-4{stroke-miterlimit:10;}.cls-5{fill:#a9deec;}.cls-6{fill:#95d5f4;}.cls-7{fill:#31b3e7;}.cls-8{fill:#233b75;}.cls-9{fill:#1b89c7;}.cls-10{fill:#0e5595;}.cls-11{fill:#0d65a0;}.cls-12{opacity:0.42;}.cls-13,.cls-17{fill:#f9ec31;}.cls-14{fill:#eb008b;}.cls-15{fill:#a87c4f;}.cls-15,.cls-16{stroke-width:0.347px;}.cls-17{opacity:0.56;}</style><clipPath id="clip-path"><rect class="cls-1" y="-210" width="160" height="160"/></clipPath></defs><g class="cls-2"><path class="cls-3" d="M87.3-.8S87.275.321,87.545.465a8.4,8.4,0,0,0,2.726,1.248,18.2,18.2,0,0,0,8.019.006c1.142-.289,3.7-1.214,4.341-2.043s2.317-1.509,2.693-1.821.585.257.585.257l2.945-1.568.766-2.812s-4.141,2.019-5.834,3.062-6.479,3.2-8,3.325S90.363.035,89.275-.51s-2.017-1.05-2.017-1.05Z"/><path class="cls-4" d="M97.588-16.059s.276,3.707-.813,5.372S92.608-6,91.184-5.5,88-4.044,87.548-3.2c-.711,1.32-.111,2.039-.111,2.039A12.744,12.744,0,0,0,92.218.384a16.044,16.044,0,0,0,6.506-.755,26.568,26.568,0,0,0,6-3.154,38,38,0,0,1,4.811-2.615s.426-.253.363-1.534a9.694,9.694,0,0,0-.836-3.666c-.062-1.152-.119-3.63.5-4.826,1.01-1.937,1.27-5.843,1.27-5.843s-4.826,2.314-7.494,2.191a38.913,38.913,0,0,1-5.661-.789Z"/><path class="cls-3" d="M102.992,1.035s-.022,1.121.249,1.265a8.4,8.4,0,0,0,2.725,1.248,18.2,18.2,0,0,0,8.019.006c1.143-.289,3.7-1.214,4.342-2.043S120.644,0,121.02-.31s.585.257.585.257l2.945-1.568.765-2.812s-4.14,2.019-5.833,3.062-6.479,3.2-8,3.325-5.422-.085-6.509-.629-2.017-1.05-2.017-1.05Z"/><path class="cls-4" d="M113.284-14.224s.276,3.707-.814,5.372-4.166,4.689-5.59,5.185-3.18,1.457-3.636,2.306c-.712,1.319-.112,2.039-.112,2.039a12.752,12.752,0,0,0,4.782,1.541,16.021,16.021,0,0,0,6.5-.756,26.538,26.538,0,0,0,6-3.153,38.008,38.008,0,0,1,4.81-2.615s.426-.253.364-1.534a9.686,9.686,0,0,0-.836-3.666c-.062-1.153-.12-3.63.5-4.827,1.009-1.936,1.27-5.842,1.27-5.842s-4.827,2.314-7.494,2.191a38.913,38.913,0,0,1-5.662-.789Z"/></g><path class="cls-5" d="M63.369,92.916c-2.707-8.328-10.2-41.431-8.328-54.756,1.435-10.206,9.827-18.086,13.679-21.218a54.39,54.39,0,0,0-7.65,1.807c-4.1,4.525-13.612,15.6-15.4,22.742-2.29,9.161-1.458,24.984,2.915,39.35s18.321,31.646,19.57,33.52,4.789,7.7,4.789,7.7l1.743,7.13c.322.072.7.151,1.108.233l-.561-7.154S66.075,101.244,63.369,92.916Z"/><path class="cls-6" d="M68.157,114.361c-1.249-1.874-15.2-19.154-19.57-33.52s-5.205-30.189-2.915-39.35c1.786-7.145,11.3-18.217,15.4-22.742C38.488,25.913,29.858,46.2,34.221,62.311,39.634,82.3,55.665,106.241,59.205,110.2s11.034,11.659,11.034,11.659l3.332,7.079s.441.11,1.118.259l-1.743-7.13S69.407,116.235,68.157,114.361Z"/><path class="cls-7" d="M70.031,85.838c-1.874-10.2-4.372-36.435-3.747-45.8.528-7.93,6.424-20.181,8.224-23.76q-3.006.21-5.788.668C64.868,20.074,56.476,27.954,55.041,38.16c-1.874,13.325,5.621,46.428,8.328,54.756s11.867,29.357,11.867,29.357l.561,7.154c1.015.2,2.225.413,3.317.521l-.338-8.3S71.905,96.039,70.031,85.838Z"/><path class="cls-8" d="M126.87,55.649c-.134-5.864-4.461-20.333-17.1-30.05,2.332,6.412,6.179,17.668,7.315,25.053,1.666,10.826-3.747,25.192-5.829,31.23S97.1,107.074,96.472,108.531c-.319.745-1.833,4.588-3.239,8.168,6.233-7.246,17.162-20.13,20.52-25.24C118.542,84.172,127.078,64.809,126.87,55.649Z"/><path class="cls-9" d="M88.769,96.664c1.666-9.577,7.7-35.186,7.079-48.094-.507-10.473-6.906-26.425-9.3-32.073a60.752,60.752,0,0,0-6.728-.406c-1.83-.011-3.589.063-5.309.183-1.8,3.579-7.7,15.83-8.224,23.76-.625,9.369,1.873,35.6,3.747,45.8s8.745,35.81,8.745,35.81l.338,8.3c.1.01.193.02.286.028a16,16,0,0,0,3.919-.39l.453-7.105S87.1,106.241,88.769,96.664Z"/><path class="cls-10" d="M111.255,81.882c2.082-6.038,7.5-20.4,5.829-31.23-1.136-7.385-4.983-18.641-7.315-25.053a43.94,43.94,0,0,0-13.244-6.934c3.162,4.031,8,11.462,8.692,19.911,1.041,12.7-1.874,36.227-5.83,47.053s-11.242,32.48-11.242,32.48l-1.666,3.955-1.429,7.144c1.078-.258,1.845-.481,1.845-.481l1.874-6.871s1.809-2.07,4.464-5.157c1.406-3.58,2.92-7.423,3.239-8.168C97.1,107.074,109.173,87.92,111.255,81.882Z"/><path class="cls-11" d="M88.145,118.109s7.286-21.653,11.242-32.48,6.871-34.353,5.83-47.053c-.693-8.449-5.53-15.88-8.692-19.911a51.093,51.093,0,0,0-9.98-2.168c2.4,5.648,8.8,21.6,9.3,32.073.624,12.908-5.413,38.517-7.079,48.094s-5,25.817-5,25.817l-.453,7.105c.618-.121,1.21-.253,1.731-.378l1.429-7.144Z"/><g class="cls-12"><path class="cls-13" d="M41.918,62.311l10.41-8.328L63.154,63.56,77.312,52.526,93.551,64.185l10.2-8.536,10.826,7.7,6.246-5.621,4.945,5.579a39.088,39.088,0,0,0,.972-5.236l-7.374-7.006-4.789,5.83-10.41-8.536-10.2,8.328L78.977,45.031,63.987,56.9l-9.994-8.953L42.959,56.482l-4.372-5.414-5.426,4.253c.041,1,.119,1.993.251,2.977l3.3-2.233Z"/><path class="cls-14" d="M42.959,56.482l11.034-8.537L63.987,56.9l14.99-11.867L93.968,56.69l10.2-8.328,10.41,8.536,4.789-5.83,7.374,7.006a19.117,19.117,0,0,0,.121-2.425c-.208-9.161-10.618-39.35-47.053-39.558C47.5,15.906,32.4,36.677,33.161,55.321l5.426-4.253Z"/></g><path class="cls-15" d="M76.565,139.18a29.131,29.131,0,0,1,3.386.291,13.753,13.753,0,0,0,3.585-.259,5.615,5.615,0,0,0,.962-.359l.067-.03-.132,3.5a.888.888,0,0,1-.565,1.263,11.721,11.721,0,0,1-3.12.324c-.564,0-3.154-.032-3.486-.583a2.226,2.226,0,0,1-.2-1.328Z"/><path class="cls-15" d="M76.465,138.629s-.7.389-.165.713a18.142,18.142,0,0,0,4.647.421c1.029-.032,3.718-.486,3.851-.907s-.3-.292-.5-.292a31.432,31.432,0,0,1-4.05.421C79.32,138.888,76.465,138.629,76.465,138.629Z"/><path class="cls-16" d="M74.407,131.047l2.457,7.874-.067-7.485,2.357,7.809,1.793-7.582,2.324,7.355s.6-3.208,1-4.6a17.738,17.738,0,0,1,1.826-3.564l-1.528,7.97"/><path class="cls-15" d="M73.245,128.552l.93,2.106a3.227,3.227,0,0,0,1.261.713,18.664,18.664,0,0,0,3.453.551A27.8,27.8,0,0,0,84.3,131.5c.8-.227,1.959-.583,1.959-.583l1.029-2.625a22.568,22.568,0,0,1-6.341,1.167C78.358,129.362,73.245,128.552,73.245,128.552Z"/><path class="cls-15" d="M76.5,139.309a.737.737,0,0,1-.1.843.671.671,0,0,0,.033,1.1c.4.227.963.357.963-.291S76.5,139.309,76.5,139.309Z"/><path class="cls-15" d="M80.748,139.6s-.6,1.134-.1,1.652.93.519.83-.064A6.247,6.247,0,0,0,80.748,139.6Z"/><path class="cls-15" d="M84.433,138.957a4.24,4.24,0,0,1,.448,1.239c.05.511.087,1.009-.423.948s-1.245-.134-.772-1.045A4.171,4.171,0,0,1,84.433,138.957Z"/><path class="cls-17" d="M42,63.932,52.384,55.6l10.8,9.577L77.317,54.146l16.207,11.66,10.181-8.537,10.8,7.7,6.233-5.622,4.534,5.823a48.665,48.665,0,0,0,1.287-5.6l-7.275-6.885-4.779,5.83L104.12,49.982,93.939,58.31,78.979,46.651,64.019,58.519l-9.973-8.953L43.034,58.1l-4.363-5.413-5.415,4.253c.041,1,.3,2.2.433,3.18L36.8,57.686Z"/></svg>