<svg id="word" xmlns="http://www.w3.org/2000/svg" viewBox="0 0 160 160"><defs><style>.cls-1{fill:#345e66;}.cls-1,.cls-2,.cls-3,.cls-5,.cls-6{stroke:#9c4c9c;stroke-miterlimit:10;stroke-width:0.845px;}.cls-2{fill:#969198;}.cls-3{fill:#90702f;}.cls-4{fill:#567e82;}.cls-5{fill:#fff;}.cls-6{fill:none;}</style></defs><path class="cls-1" d="M79.269,95.988a83.487,83.487,0,0,1-6.54,7.742c-3.052,3.042-11.917,8.157-10.9,15.07s6.1,15.9,12.353,16.728,16.132-.691,18.022-.691,6.249.691,8.284-8.295,3.342-11.06-2.616-17S84.937,97.164,84.937,97.164V92.547H79.269Z"/><path class="cls-2" d="M43.934,83.269s4.36,4.379,20.347,5.646,25,2.6,35.025,0,26.742-5.226,14.825-8.547-26.742-9.68-46.071-6.777S36.536,76.1,43.934,83.269Z"/><path class="cls-3" d="M79.269,76.218V94.744s2.035,2.9,3.633,2.35,2.035-3.318,2.035-3.318V74.559Z"/><path class="cls-4" d="M84.935,98.825s.43,9.17,5.662,14,5.7,9.146,1.192,13.708-8.2,5.513-8.2,5.513,8.7-.227,13.112-5.513c4.064-4.868,6.722-10.6,1.49-14.751S84.935,98.825,84.935,98.825Z"/><path class="cls-5" d="M64.445,27.138S51.51,53.268,48.168,63.775s-9.593,15.07-3.343,15.9,14.533-2.488,21.8-2.9a159.48,159.48,0,0,1,22.381.763c6.831.62,21.074,4.352,21.51,4.629s7.557,4.3,7.557-1.444-5.668-20.985-7.557-25.255S97.581,25.681,95.546,25.128s-3.052.691-10.609.691S67.205,21.468,64.445,27.138Z"/><line class="cls-6" x1="90.454" y1="28.122" x2="105.569" y2="76.771"/><line class="cls-6" x1="81.973" y1="28.122" x2="81.973" y2="71.395"/><line class="cls-6" x1="71.125" y1="27.016" x2="58.879" y2="73.644"/></svg>