<svg id="word" xmlns="http://www.w3.org/2000/svg" xmlns:xlink="http://www.w3.org/1999/xlink" viewBox="0 0 160 160"><defs><style>.cls-1{fill:#817d45;}.cls-1,.cls-14,.cls-15,.cls-2{stroke:#9d4b9c;}.cls-1,.cls-11,.cls-12,.cls-13,.cls-14,.cls-15,.cls-16,.cls-17,.cls-18,.cls-2,.cls-20{stroke-width:0.324px;}.cls-2{fill:#c4bb67;}.cls-3{opacity:0.31;fill:url(#linear-gradient);}.cls-4{fill:url(#linear-gradient-2);}.cls-5,.cls-6{opacity:0.5;}.cls-5{fill:url(#linear-gradient-3);}.cls-6{fill:url(#linear-gradient-4);}.cls-10,.cls-7,.cls-8,.cls-9{opacity:0.35;}.cls-7{fill:url(#linear-gradient-5);}.cls-8{fill:url(#linear-gradient-6);}.cls-9{fill:url(#linear-gradient-7);}.cls-10{fill:url(#linear-gradient-8);}.cls-11{fill:#8bc53f;}.cls-11,.cls-12,.cls-13,.cls-16,.cls-17,.cls-18,.cls-20{stroke:#231f20;}.cls-12{fill:#f9ec31;}.cls-13{fill:#00adee;}.cls-14{fill:#d46ca9;}.cls-15{fill:#d59ec7;}.cls-16{fill:#bdbfc1;}.cls-17{fill:#fff;}.cls-18{fill:#e2e3e4;}.cls-19{fill:#231f20;}.cls-20{fill:none;stroke-linecap:round;}</style><linearGradient id="linear-gradient" x1="6073.421" y1="98.813" x2="6176.733" y2="98.813" gradientTransform="matrix(-1.041, 0, 0, 1, 6466.855, 0)" gradientUnits="userSpaceOnUse"><stop offset="0" stop-color="#fff"/><stop offset="1" stop-color="#fff" stop-opacity="0"/></linearGradient><linearGradient id="linear-gradient-2" x1="6086.836" y1="81.263" x2="6124.593" y2="81.263" gradientTransform="matrix(-1.041, 0, 0, 1, 6466.855, 0)" gradientUnits="userSpaceOnUse"><stop offset="0" stop-color="#ee62a3"/><stop offset="1" stop-color="#fff" stop-opacity="0"/></linearGradient><linearGradient id="linear-gradient-3" x1="6095.549" y1="81.064" x2="6178.945" y2="81.064" xlink:href="#linear-gradient-2"/><linearGradient id="linear-gradient-4" x1="-2154.456" y1="79.773" x2="-2067.585" y2="79.773" gradientTransform="translate(1278.552) scale(0.578 1)" xlink:href="#linear-gradient-2"/><linearGradient id="linear-gradient-5" x1="6155.018" y1="99.619" x2="6158.752" y2="99.619" gradientTransform="matrix(-1.041, 0, 0, 1, 6466.855, 0)" gradientUnits="userSpaceOnUse"><stop offset="0" stop-color="#00b1ef"/><stop offset="1" stop-color="#fff" stop-opacity="0"/></linearGradient><linearGradient id="linear-gradient-6" x1="6160.274" y1="98.727" x2="6161.657" y2="98.727" xlink:href="#linear-gradient-5"/><linearGradient id="linear-gradient-7" x1="6162.763" y1="98.924" x2="6166.222" y2="98.924" xlink:href="#linear-gradient-5"/><linearGradient id="linear-gradient-8" x1="6164.146" y1="99.421" x2="6177.839" y2="99.421" xlink:href="#linear-gradient-5"/></defs><polygon class="cls-1" points="31.424 71.963 31.614 90.095 34.799 107.955 37.415 94.216 33.283 72.737 31.424 71.963"/><polyline class="cls-1" points="143.209 90.731 145 89.379 120.686 72.351 31.424 71.963 34.937 90.345 143.416 89.959"/><rect class="cls-2" x="34.799" y="89.379" width="110.201" height="18.576"/><path class="cls-3" d="M144.136,98.827s.962-7.6-2.016-7.741c-4.319-.2-105.244.8-105.244.8s98.513,2.883,101.584,6.176a51.946,51.946,0,0,1,5.965,8.508Z"/><path class="cls-4" d="M120.092,74.019l10.367,6.35L114.478,89.1l-16.989.2s19-7.741,15.837-10.915-22.172-5.16-22.172-5.16Z"/><path class="cls-5" d="M121.389,77.393,45.516,73.225s50.966,1.785,53.124,6.35S34.574,76.8,34.574,76.8s71.266,9.725,48.95,10.716a163.528,163.528,0,0,1-42.471-4.167l10.8,4.367L96.769,88.9Z"/><path class="cls-6" d="M32.414,74.019l46.5-.993s-30.65.791-31.849,5.357S82.66,75.605,82.66,75.605,43.068,85.33,55.466,86.322s23.6-4.168,23.6-4.168l-6,4.366-38.2-.792Z"/><rect class="cls-7" x="55.594" y="91.681" width="3.887" height="15.876"/><rect class="cls-8" x="52.57" y="90.491" width="1.44" height="16.471"/><rect class="cls-9" x="47.818" y="90.291" width="3.601" height="17.266"/><rect class="cls-10" x="35.725" y="92.673" width="14.255" height="13.496"/><path class="cls-11" d="M63.3,95.817v9.975h6.808v-2.951s.091-.95.595-1.01.685.891,1.436.812.753-1.247.738-1.7-.081-1.367-.915-1.248-.52,1.011-1.148.832-.78-.99-.78-1.365.017-3.286.017-3.286Z"/><path class="cls-12" d="M87.343,105.762a1.4,1.4,0,0,0-.242-1.788c-.725-.607-.829.383-1.267-.293a1.892,1.892,0,0,1-.083-1.769c.151-.306,1.333-2.656,1.333-2.656l-5.462-5.747,0,0h0l-.119.238-1.291,2.607a1.859,1.859,0,0,0,.159,1.58c.44.676.544-.314,1.269.293a1.409,1.409,0,0,1,.242,1.788c-.174.381-.642,1.331-1.285.76s-.405-1.493-.841-1.87-.889.315-.889.315l-1.189,2.4-.048-.05-.02.044,5.531,5.75,1.187-2.4s.456-.7.892-.317.2,1.3.838,1.872S87.172,106.143,87.343,105.762Z"/><path class="cls-13" d="M101.754,94.364c-.217-.333-.678-.96-1.257-.082s.06,1.257-.5,1.714a.78.78,0,0,1-1.207-.3c-.169-.284-1.463-2.506-1.463-2.506l-5.149,6.328,0,0v0s.051.086.131.225l1.441,2.433a.729.729,0,0,0,1.1.15c.557-.458-.08-.837.5-1.713s1.042-.252,1.256.083a1.808,1.808,0,0,1,.206,1.988c-.536.769-1.1.215-1.456.739a1.583,1.583,0,0,0,0,1.328l1.327,2.238-.045.058.023.04,5.166-6.426-1.325-2.238a1.583,1.583,0,0,1,0-1.33c.358-.523.92.032,1.454-.739A1.807,1.807,0,0,0,101.754,94.364Z"/><path class="cls-11" d="M53.438,79.528V85.12H73.126V83.464s.262-.532,1.724-.565,1.976.5,4.15.456,2.174-.7,2.135-.956-.238-.766-2.649-.7-1.5.567-3.32.468-2.253-.556-2.253-.766.044-1.842.044-1.842Z"/><path class="cls-12" d="M104.91,87.978c.5-.212,1.4-.66-.7-1s-2.4.213-3.665-.165-.678-.821-.24-.992,3.857-1.49,3.857-1.49l-15.8-3.222,0,0,0,0-.345.13L84.29,82.7c-.363.21-.6.57.461.888,1.27.377,1.567-.177,3.665.164s1.2.788.7,1a6.485,6.485,0,0,1-3.715.425c-1.859-.318-1.17-.835-2.428-1.049a6.572,6.572,0,0,0-2.576.179l-3.432,1.343-.141-.027-.063.024,16,3.223,3.433-1.343a6.531,6.531,0,0,1,2.577-.177c1.257.213.567.728,2.426,1.048A6.486,6.486,0,0,0,104.91,87.978Z"/><path class="cls-13" d="M98.492,74.6a6.211,6.211,0,0,0-3.633-.047c-1.675.493.174.7-1.438.962a8.246,8.246,0,0,1-3.486-.169c-.489-.16-4.234-1.406-4.234-1.406L70.814,77.485h.007l.378.124,4.169,1.366a8.7,8.7,0,0,0,3.175.084c1.611-.257-.237-.47,1.438-.961a6.205,6.205,0,0,1,3.631.046c.623.187,2.142.684.595,1.115s-3.173.12-4.2.413,0,.747,0,.747l3.835,1.254-.131.032.07.023,14.94-3.6L94.885,76.87s-1.037-.454-.005-.745,2.658.018,4.2-.413S99.114,74.782,98.492,74.6Z"/><rect class="cls-14" x="4.886" y="63.12" width="95.985" height="18.744" transform="translate(-23.566 25.507) rotate(-22.316)"/><polygon class="cls-15" points="5.194 82.294 18.442 53.669 66.797 33.821 93.717 45.599 5.194 82.294"/><polygon class="cls-16" points="30.034 64.876 31.947 69.323 49.054 48.342 47.984 45.229 30.034 64.876"/><polygon class="cls-17" points="16.462 67.507 30.105 65.182 47.984 45.229 36.678 48.652 16.462 67.507"/><polygon class="cls-18" points="16.462 67.507 18.313 71.81 31.93 69.285 30.45 64.787 16.462 67.507"/><path class="cls-19" d="M26.227,62.653c.166.4-.941,1.236-2.47,1.874s-2.905.83-3.072.432.94-1.237,2.47-1.873S26.062,62.255,26.227,62.653Z"/><path class="cls-19" d="M30.458,58.2c.166.4-.94,1.237-2.47,1.875s-2.906.831-3.071.434.941-1.237,2.47-1.875S30.292,57.8,30.458,58.2Z"/><path class="cls-19" d="M33.1,60.937c.176.423-1,1.32-2.638,2s-3.1.889-3.279.464,1-1.322,2.637-2S32.917,60.512,33.1,60.937Z"/><path class="cls-19" d="M36.912,56.362c.178.427-1,1.322-2.637,2s-3.1.889-3.28.462,1-1.32,2.637-2S36.736,55.939,36.912,56.362Z"/><line class="cls-20" x1="28.793" y1="56.364" x2="39.696" y2="53.983"/><path class="cls-19" d="M41.245,49.476c.177.426-1,1.321-2.638,2s-3.1.888-3.279.463,1-1.322,2.637-2S41.067,49.052,41.245,49.476Z"/><polygon class="cls-16" points="50.922 54.246 51.34 59.092 73.97 43.629 73.929 40.311 50.922 54.246"/><polygon class="cls-17" points="37.324 52.943 50.893 54.561 73.929 40.311 62.22 40.418 37.324 52.943"/><polygon class="cls-18" points="37.324 52.943 37.731 57.634 51.337 59.053 51.341 54.276 37.324 52.943"/><path class="cls-19" d="M66.747,43.911c.034.433-1.269.931-2.908,1.113s-2.994-.019-3.027-.45,1.27-.932,2.909-1.115S66.715,43.479,66.747,43.911Z"/><path class="cls-19" d="M54.926,47.075c.034.431-1.269.931-2.908,1.114s-2.994-.02-3.027-.451,1.27-.932,2.909-1.115S54.894,46.643,54.926,47.075Z"/><path class="cls-19" d="M54.437,51.879c.034.463-1.355,1-3.107,1.19s-3.195-.02-3.23-.482,1.355-.994,3.106-1.189S54.4,51.419,54.437,51.879Z"/><line class="cls-20" x1="52.399" y1="45.651" x2="63.405" y2="46.435"/><path class="cls-19" d="M66.085,41.568c.035.461-1.355,1-3.106,1.189s-3.2-.02-3.232-.482,1.356-.994,3.106-1.189S66.05,41.107,66.085,41.568Z"/><path class="cls-19" d="M54.569,49.362c.033.432-1.27.932-2.909,1.114s-2.994-.019-3.026-.451,1.269-.931,2.908-1.114S54.536,48.93,54.569,49.362Z"/></svg>