<svg id="word" xmlns="http://www.w3.org/2000/svg" viewBox="0 0 160 160"><defs><style>.cls-1{fill:#d0d2d3;}.cls-1,.cls-2,.cls-3,.cls-4{stroke:#9d4b9c;stroke-miterlimit:10;stroke-width:0.285px;}.cls-2{fill:#c3996b;}.cls-3{fill:#84c3e0;}.cls-4{fill:none;}</style></defs><path class="cls-1" d="M109.654,83.692l.559,3.909a11.8,11.8,0,0,0,3.249-.711,19.26,19.26,0,0,0,2.792-2.284c0-.2-1.421-1.269-1.421-1.269Z"/><path class="cls-1" d="M90.413,82.93l.762,3.554,7.97-1.472a7.4,7.4,0,0,0,.406-2.031,20.157,20.157,0,0,0-.913-2.132l-6.3.355Z"/><polygon class="cls-2" points="54.876 90.844 54.977 116.939 56.602 119.274 56.602 90.743 54.876 90.844"/><polygon class="cls-2" points="59.445 90.641 58.734 119.173 56.602 119.274 56.602 90.743 59.445 90.641"/><path class="cls-1" d="M57.541,89.938a44.921,44.921,0,0,0,.646,10.16,3.865,3.865,0,0,1-2.856-1.456c-.746-.813-1.322-1.775-2.107-2.551-.682-.674-1.565-1.287-1.723-2.232a2.39,2.39,0,0,1,.709-1.943A10.067,10.067,0,0,1,53.9,90.608,9.9,9.9,0,0,1,55.664,89.5a2.356,2.356,0,0,1,2.019-.014l.036.353"/><path class="cls-1" d="M11.216,69.426s-.813.914.406,1.828S17,74.1,17.308,74.4s.3-4.061.609-5.381-2.64-3.249-3.858-3.148S11.216,69.426,11.216,69.426Z"/><path class="cls-1" d="M81.478,81.915l.762,6.295s-.051.305-1.777,0-3.554-1.523-4.163-1.624S81.478,81.915,81.478,81.915Z"/><polygon class="cls-2" points="28.274 67.085 28.578 108.715 31.117 108.309 31.929 67.897 28.274 67.085"/><polygon class="cls-2" points="25.735 67.796 26.852 106.684 28.578 108.715 28.477 66.374 25.735 67.796"/><polygon class="cls-2" points="132.449 74.193 132.551 105.161 135.495 105.161 136.206 74.396 132.449 74.193"/><polygon class="cls-2" points="130.012 74.497 131.027 103.536 132.551 105.161 132.449 73.685 130.012 74.497"/><polygon class="cls-2" points="102.902 74.802 103.714 91.86 104.831 93.484 105.136 74.497 102.902 74.802"/><polygon class="cls-2" points="107.674 74.294 107.167 93.586 104.831 93.484 105.136 74.497 107.674 74.294"/><path class="cls-3" d="M17.308,50.845,11.216,69.426a4.757,4.757,0,0,1,4.569.609c1.98,1.676,5.483,4.265,5.483,4.265l1.37.305s-1.675,2.284,0,2.741,6.245-.305,7.311.457-2.589,1.523-.762,2.741,4.569-.3,5.788,1.523a4.369,4.369,0,0,0,3.96,1.98c1.066,0,3.5-1.37,2.894,1.066s-2.133,4.265-.61,6.7,10.662,6.4,11.88,7.92a9.13,9.13,0,0,0,2.285,2.132s4.112-1.066,3.2-3.046S52.337,96.384,53.1,94.1a5.2,5.2,0,0,1,4.569-3.2c1.218,0,5.178-1.98,6.7-2.437s2.894.609,4.722.609,10.356,0,11.727-.152,2.132-.914.914-1.371-6.244-1.218-3.96-2.132,12.641-1.371,15.078-1.98,6.7-.3,4.874.609-8.072.762-6.549,2.437,9.9-1.827,14.316-1.827,10.966-.3,9.138.761-6.244,2.132-3.35,2.894,9.9-5.94,14.469-4.569,6.549,1.066,6.549,1.066a6.12,6.12,0,0,1,4.112.761c1.98,1.219,1.827-1.37,1.827-1.37s1.676.3,2.285-.305.609-2.741.609-2.741,4.112,1.675,3.046,2.436-2.589,1.371-.457,2.59,3.351,2.284,2.59,3.5,2.589.913,2.589-1.523-2.589-8.073-2.742-8.986.153-19.343-.609-21.475-16.6-7.463-19.647-8.529-6.7-3.808-13.25-3.808S18.983,49.17,17.308,50.845Z"/><path class="cls-4" d="M42.082,84.25a47.305,47.305,0,0,0,2.64-8.884c.609-3.96.153-14.621.153-14.621"/><path class="cls-4" d="M22.638,74.605s1.473-2.031,2.082-6.6a60.761,60.761,0,0,0,0-11.068"/><path class="cls-4" d="M30.039,78.111c1.612-2.684,1.84-5.96,1.822-9.09s-.232-6.326.633-9.335"/><path class="cls-4" d="M53.034,94.3l.048-27.719"/><path class="cls-4" d="M77.188,86.063a119.152,119.152,0,0,0,.689-19.985"/><path class="cls-4" d="M98.221,83.64c.209-2.373-.828-4.649-1.554-6.917a27.5,27.5,0,0,1-1.255-10.037"/><path class="cls-4" d="M114.783,84.958a23.932,23.932,0,0,0-.827-5.686c-.312-.991-.752-1.936-1.088-2.918a14.831,14.831,0,0,1-.216-8.855"/><path class="cls-4" d="M131.789,84.945a69.716,69.716,0,0,0-.206-16.554"/><path class="cls-4" d="M138.169,84.351a46.725,46.725,0,0,0-1.045-8.923,14.72,14.72,0,0,1-.595-2.958"/><path class="cls-4" d="M141.079,80.95a62.735,62.735,0,0,1-.992-13.453"/><path class="cls-4" d="M20.049,51.251S52.134,61.405,58.227,61s79.4-4.468,80.213-5.077-23.963-8.935-23.963-8.935"/></svg>