<svg id="word" xmlns="http://www.w3.org/2000/svg" viewBox="0 0 160 160"><defs><style>.cls-1{fill:#e5e2cb;}.cls-1,.cls-2,.cls-4,.cls-5{stroke:#9c4c9c;stroke-miterlimit:10;stroke-width:0.75px;}.cls-2{fill:#fffce0;}.cls-3{fill:#9c4c9c;}.cls-4{fill:#d3cde6;}.cls-5{fill:#bfd74f;}</style></defs><path class="cls-1" d="M38.784,108.366a4.81,4.81,0,0,0-.063,3.523c.753,1.373,2.522,1.411,3.978,1.283l25.476-2.241a6.411,6.411,0,0,0,3.732-1.144c1.8-1.527,1.756-4.543,1.066-6.921-2.44-8.417-16.158-23.835-23.15-28C46.105,72.65,40.655,101.663,38.784,108.366Z"/><path class="cls-2" d="M49.346,80.941s4.31,35.33,6.225,37.409,36.787-5.368,36.787-5.368,41.1-9.092,40.784-12.817c-.225-2.639-10.994-41.386-10.994-41.386L48.389,74.706Z"/><path class="cls-3" d="M92.037,89.828l.112.1a.147.147,0,0,1,.023.222l-.013,0a23.348,23.348,0,0,1-1.878,1.8,9.368,9.368,0,0,1-1.069.782,2.2,2.2,0,0,1-.664.242.835.835,0,0,1-.4-.005.171.171,0,0,1-.105-.021.727.727,0,0,1-.161-.1.554.554,0,0,1-.132-.309,1.286,1.286,0,0,1,.045-.422A1.934,1.934,0,0,1,87.9,91.8l.2-.572a.179.179,0,0,1-.051.027c-.066.053-.138.117-.219.193q-.275.261-.864.944l-.432.485c-.094.1-.169.177-.224.237a1.829,1.829,0,0,1-.143.133.241.241,0,0,1-.091.049.3.3,0,0,1-.147.046c-.019,0-.037.008-.055.01a.262.262,0,0,1-.2-.06.31.31,0,0,1-.107-.183,2.244,2.244,0,0,1,.05-.76,5.7,5.7,0,0,1,.213-.645c.074-.2.157-.408.246-.623.014-.03.044-.1.091-.194l-1.615.47q-1.9.544-2.019.586-2.925.962-3.72,1.262c-.017.053-.047.157-.088.312a3.29,3.29,0,0,0-.077.369q-1.149,4.842-1.94,9.333-.435,2.553-.693,4.705-.248,2.134-.294,3.7a.193.193,0,0,1,.194.048.189.189,0,0,1,.059.22l-.306.974a.411.411,0,0,1-.2.218.39.39,0,0,1-.293.032.359.359,0,0,1-.261-.385v-.074c.006-.791.05-1.6.133-2.43q.009-.239.062-.688c.036-.3.055-.472.056-.509l.163-1.194q.3-2.172.789-4.724.858-4.521,2.05-9.358c.012-.041.025-.1.043-.176s.032-.138.043-.179l-.7.265-.492.175-.486.2-1.949.79q-.395.171-1.112.5c-.478.218-.753.344-.821.379-.026.014-.16.077-.4.187s-.427.192-.549.248l-.944.474c-.294.15-.6.307-.917.47q-1.7,2.807-3.038,5.227-1.386,2.488-2.449,4.676a43.405,43.405,0,0,0-2.042,4.855.2.2,0,0,1-.388-.094q.147-1.188.355-2.375.26-1.421.527-2.37a.416.416,0,0,1,.2-.253.364.364,0,0,1,.307-.028.406.406,0,0,1,.239.2.4.4,0,0,1,.027.315.052.052,0,0,1-.008.032c-.145.371-.29.807-.439,1.309q.351-.82.825-1.8,1.047-2.2,2.41-4.728,1.146-2.118,2.521-4.456a57.446,57.446,0,0,0-5.376,3.325q-1.332.9-3.4,2.529-.2.16-1.429,1.158t-1.915,1.508a.4.4,0,0,1-.567-.1.424.424,0,0,1-.068-.309.392.392,0,0,1,.16-.267l.011-.018q.665-.462,1.905-1.448t1.452-1.148q2.1-1.609,3.445-2.509a58.786,58.786,0,0,1,6.4-3.775q1.129-1.908,2.2-3.628,2.749-4.449,5.727-8.9,1.581-2.37,2.98-4.362.892-1.244,1.554-2.144c.306-.416.57-.769.786-1.06.175-.221.316-.4.424-.527a6.459,6.459,0,0,1,.476-.539.379.379,0,0,1,.114-.068.458.458,0,0,1,.436-.386.518.518,0,0,1,.346.132.465.465,0,0,1,.159.335.452.452,0,0,1-.249.462,1.271,1.271,0,0,0-.429.426.758.758,0,0,0-.1.16c-.026.06-.055.126-.087.2a1.133,1.133,0,0,1-.082.163c-.1.248-.254.61-.454,1.093q-.45,1.165-.825,2.225-.689,1.992-1.438,4.539-1.179,3.972-2.131,7.937.717-.252,3.453-1.105.118-.04,2.034-.573l2.025-.557a.3.3,0,0,1,.311-.006.269.269,0,0,1,.149.173.3.3,0,0,1-.024.24l0,.014-.013,0c-.091.166-.182.35-.274.556a5.855,5.855,0,0,0-.257.566,5.5,5.5,0,0,0-.2.569,1.964,1.964,0,0,0-.064.4,1.709,1.709,0,0,0,.2-.232c.123-.153.25-.322.385-.505a13.115,13.115,0,0,1,.82-1.037,1.865,1.865,0,0,1,.574-.472.692.692,0,0,1,.121-.041.966.966,0,0,1,.154-.017.421.421,0,0,1,.235.111.4.4,0,0,1,.113.211,1.394,1.394,0,0,1-.016.283,1.5,1.5,0,0,1-.044.176c-.019.067-.1.277-.238.63-.043.117-.076.211-.1.286a.694.694,0,0,0-.04.228.668.668,0,0,0,.23.01,2.054,2.054,0,0,0,.535-.171,5.482,5.482,0,0,0,1.068-.648,11.584,11.584,0,0,0,1.847-1.738l.013,0C92.008,89.87,92.037,89.828,92.037,89.828ZM78.381,92.8l.027-.007q1.2-4.747,2.254-8.255.762-2.55,1.476-4.559.37-1.077.839-2.23.073-.206.182-.45-.386.495-.544.7-.664.885-1.546,2.111-1.419,1.97-3.018,4.313-3.025,4.416-5.8,8.823-.8,1.282-1.746,2.829a.089.089,0,0,1,.037-.022l.948-.462c.129-.068.314-.152.553-.256s.378-.166.413-.181c.071-.026.351-.147.838-.367s.86-.381,1.114-.484l1.98-.781.49-.189.505-.18Z"/><path class="cls-3" d="M99.327,78.905a.489.489,0,0,1,.3.348c0,.019.021.131.052.341a1.822,1.822,0,0,1-.03.564q-.063.333-.257,1.006c-.177.593-.406,1.239-.686,1.931a27.931,27.931,0,0,1-1.861,3.617q-.516.838-1.131,1.688c-.015.023-.1.135-.253.339s-.273.358-.357.463a2.732,2.732,0,0,1-.2.238,2.894,2.894,0,0,0-.238.307,1.423,1.423,0,0,0-.141.294.186.186,0,0,1-.027.08c-.067.334-.112.629-.139.879a2.427,2.427,0,0,0,.046.883.573.573,0,0,0,.139.265c.053.077.157.1.314.08a2.062,2.062,0,0,0,.83-.408,9.164,9.164,0,0,0,1.428-1.34c.28-.313.494-.567.645-.765.1-.15.2-.282.292-.4.058-.091.1-.159.13-.2L98.247,89c.015-.021.026-.039.033-.049l0-.016,0,.016a.133.133,0,0,1,.174-.126.138.138,0,0,1,.122.18.738.738,0,0,1-.039.1l-.043.069-.079.1-.144.207c-.089.127-.2.26-.319.405q-.436.53-.646.766a15.481,15.481,0,0,1-1.455,1.419,3.6,3.6,0,0,1-.906.526.8.8,0,0,1-.64,0,.878.878,0,0,1-.458-.519,3.07,3.07,0,0,1-.094-1.124,1.848,1.848,0,0,1,.029-.286c-.066.1-.128.193-.187.274a2.258,2.258,0,0,1-.882.728.725.725,0,0,1-.407.027.507.507,0,0,1-.4-.283.869.869,0,0,1-.1-.374l-.016-.291a3.243,3.243,0,0,1,.252-1.109,3.7,3.7,0,0,1,.551-.951,2.88,2.88,0,0,1,.391-.4c.089-.068.169-.124.236-.168a1.112,1.112,0,0,1,.3-.15.588.588,0,0,1,.424.058.6.6,0,0,1,.258.3.662.662,0,0,0,.038.124q.3-1.073.821-2.473a36.58,36.58,0,0,1,1.61-3.739q.515-1.06.966-1.8a9.121,9.121,0,0,1,.582-.87q.209-.249.374-.416a1.18,1.18,0,0,1,.262-.186A.552.552,0,0,1,99.327,78.905Zm-5.32,10.014a.348.348,0,0,0-.131-.37c-.045-.038-.085-.046-.117-.018a.246.246,0,0,1-.077.044c-.051.031-.094.054-.128.071-.049.04-.1.087-.159.136a3.352,3.352,0,0,0-.3.329,3.217,3.217,0,0,0-.488.776,2.106,2.106,0,0,0-.2.877v.218a.223.223,0,0,0,.034.1c.013.017.036.017.072,0a1.682,1.682,0,0,0,.67-.493,3.778,3.778,0,0,0,.511-.8c.055-.109.121-.254.2-.437A1.009,1.009,0,0,0,94.007,88.919Zm5.254-9.268a.176.176,0,0,0-.088-.157c-.022-.016-.036-.013-.041.01.009,0,.01,0,0,.014a.757.757,0,0,0-.136.1,1.854,1.854,0,0,0-.288.339,9.318,9.318,0,0,0-.537.817q-.427.72-.934,1.749-.745,1.565-1.561,3.7-.375.987-.649,1.9c-.082.262-.161.528-.24.8.083-.1.2-.244.347-.441s.23-.308.254-.331q.6-.829,1.124-1.658c.074-.1.173-.264.3-.479s.2-.341.218-.376c.051-.08.1-.169.154-.267s.11-.209.176-.331.117-.215.152-.281q.549-1.113.822-1.812A17.65,17.65,0,0,0,99,81.054q.18-.666.235-.972A1.7,1.7,0,0,0,99.261,79.651Z"/><path class="cls-3" d="M102.254,87.965l.144.044a.13.13,0,0,1,.1.185l0,.012a13.548,13.548,0,0,1-.714,1.719,14.908,14.908,0,0,1-.938,1.59,6.335,6.335,0,0,1-.6.726,3.061,3.061,0,0,1-.758.629,1,1,0,0,1-.544.126.827.827,0,0,1-.573-.231,1.237,1.237,0,0,1-.341-.471,1.575,1.575,0,0,1-.132-.558c0-.03.008-.079.014-.149l0-.134a1.343,1.343,0,0,0,.038-.241,2.648,2.648,0,0,1,.143-.5,2.222,2.222,0,0,1,.113-.288c.048-.1.1-.2.159-.311a1.933,1.933,0,0,0,.116-.244,1.145,1.145,0,0,0,.064-.177.216.216,0,0,0,.037-.109.444.444,0,0,0-.066-.081.834.834,0,0,0-.093-.076,2.284,2.284,0,0,0-.209-.153,2.929,2.929,0,0,1-.285-.221,2.528,2.528,0,0,1-.239-.235.981.981,0,0,1-.259-.518,1.152,1.152,0,0,1,.025-.59.843.843,0,0,1,.373-.489.658.658,0,0,1,.648-.033.864.864,0,0,1,.394.445.961.961,0,0,1,.075.554,1.417,1.417,0,0,1-.324.67.779.779,0,0,1,.135.1c.089.069.163.131.222.187a.765.765,0,0,1,.157.364.41.41,0,0,1,0,.191.646.646,0,0,1-.026.153,1.125,1.125,0,0,1-.093.253c-.032.077-.076.167-.13.277s-.1.207-.142.293a1.558,1.558,0,0,0-.091.254,1.876,1.876,0,0,0-.108.389.268.268,0,0,0-.01.061c0,.021,0,.045-.007.075a.154.154,0,0,1-.016.062l-.008.1c0,.049,0,.079,0,.089a.9.9,0,0,0,.081.334,1.026,1.026,0,0,0,.178.256.506.506,0,0,0,.548.1,1.7,1.7,0,0,0,.715-.414,5.293,5.293,0,0,0,.583-.65,9.7,9.7,0,0,0,.949-1.532,9.34,9.34,0,0,0,.648-1.689Zm-4.325.219a.577.577,0,0,0,.154.275,1.5,1.5,0,0,0,.272.221,1.06,1.06,0,0,0,.22-.543.663.663,0,0,0-.064-.325.36.36,0,0,0-.212-.2.254.254,0,0,0-.22.033.411.411,0,0,0-.156.222A.8.8,0,0,0,97.929,88.184Z"/><path class="cls-3" d="M107.347,86.882l.131.085a.145.145,0,0,1,.057.215l-.014,0a5.061,5.061,0,0,1-.517.621c-.135.137-.326.322-.573.561q-.477.465-1.188,1.04a6.563,6.563,0,0,1-1.352.87,1.8,1.8,0,0,1-.431.118,1,1,0,0,1-.506-.037.866.866,0,0,1-.466-.344c-.014-.026-.036-.067-.066-.119l-.05-.107a2.2,2.2,0,0,0-.085-.216,2.645,2.645,0,0,1,.076-1.774,3.535,3.535,0,0,1,.942-1.429,2.391,2.391,0,0,1,.2-.159.953.953,0,0,1,.289-.119.543.543,0,0,1,.636.409.681.681,0,0,1,.007.32.759.759,0,0,1-.092.255,2.573,2.573,0,0,1-.24.373,3.079,3.079,0,0,1-1.206.883,1.991,1.991,0,0,0-.007,1.042.622.622,0,0,0,.058.15l.03.081.025.052a.413.413,0,0,0,.14.134.942.942,0,0,0,.577-.033,5.113,5.113,0,0,0,1.338-.648,11.219,11.219,0,0,0,1.2-.956c.16-.151.343-.33.548-.541a4.856,4.856,0,0,0,.469-.581l0-.013C107.324,86.927,107.347,86.882,107.347,86.882Zm-3.633-.028a3.009,3.009,0,0,0-.7,1.116,1.575,1.575,0,0,0,.712-.782,1.271,1.271,0,0,0,.123-.317c.016-.063.027-.1.032-.126l0-.015A.693.693,0,0,0,103.714,86.854Z"/><path class="cls-3" d="M120.786,75.9a.135.135,0,0,1,.1.016.2.2,0,0,1,.078.07.289.289,0,0,1,.042.1.219.219,0,0,1-.049.148.232.232,0,0,1-.134.08,40.525,40.525,0,0,0-4.7.847q-2.619.617-5.548,1.479l-.1.271q-.708,1.821-1.042,2.8-1.053,3.1-1.731,5.714c-.186.734-.3,1.217-.339,1.451l-.073.351-.056.365a5.836,5.836,0,0,0-.088.706q-.075.924.337.985a1.193,1.193,0,0,0,.6-.111,4.043,4.043,0,0,0,.611-.363,9.957,9.957,0,0,0,1.951-2.154,13.989,13.989,0,0,0,1.405-2.611.133.133,0,0,1,.2-.085.139.139,0,0,1,.083.2l-.013,0a18.231,18.231,0,0,1-1.458,2.637,10.975,10.975,0,0,1-1.988,2.249,4.768,4.768,0,0,1-.639.442,1.563,1.563,0,0,1-.8.224.662.662,0,0,1-.462-.181,1.1,1.1,0,0,1-.28-.41,1.864,1.864,0,0,1-.138-.837l.021-.4a1.45,1.45,0,0,1,.018-.23.719.719,0,0,1,.033-.161l.053-.378.067-.381q.071-.366.335-1.478.728-2.937,1.716-5.783.441-1.294.968-2.593c-.6.184-1.166.366-1.7.541s-1.014.336-1.435.483-.778.284-1.072.408a5.781,5.781,0,0,0-.631.3.4.4,0,0,1-.141.073.166.166,0,0,1-.134-.03.2.2,0,0,1-.1-.2c0-.079.131-.216.383-.411s.51-.374.78-.544a5.73,5.73,0,0,1,.537-.311.241.241,0,0,1,.146.021.193.193,0,0,1,.108.117.2.2,0,0,1-.032.2q1.437-.506,3.491-1.127l.182-.449c.04-.088.1-.219.178-.4s.125-.277.14-.3a10.384,10.384,0,0,1,.744-1.343.281.281,0,0,1,.2-.138.289.289,0,0,1,.224.056.3.3,0,0,1,.123.193.292.292,0,0,1-.041.221l-.008.031a9.985,9.985,0,0,0-.674,1.271c-.013.032-.052.122-.117.274s-.118.264-.16.34A58.565,58.565,0,0,1,120.786,75.9Z"/><path class="cls-3" d="M117.771,84.7s.043.024.129.076a.15.15,0,0,1,.058.222,21.655,21.655,0,0,1-1.339,1.938,9.5,9.5,0,0,1-.765.878c-.141.146-.29.285-.444.416a2.43,2.43,0,0,1-.527.359.948.948,0,0,1-.352.089.586.586,0,0,1-.438-.129.8.8,0,0,1-.161-.171.446.446,0,0,1-.1-.215,1.04,1.04,0,0,1-.035-.388,4.938,4.938,0,0,1,.245-1.136c-.143.138-.281.259-.411.365-.167.122-.321.229-.464.318a1.551,1.551,0,0,1-.584.21.6.6,0,0,1-.451-.119A.655.655,0,0,1,111.9,87a1.731,1.731,0,0,1-.013-.64,4.01,4.01,0,0,1,1.09-1.975,2.611,2.611,0,0,1,.44-.369,1.28,1.28,0,0,1,.6-.244.7.7,0,0,1,.389.093.586.586,0,0,1,.288.3.864.864,0,0,1,0,.659.148.148,0,0,1-.21.091.18.18,0,0,1-.1-.129.672.672,0,0,0-.129-.367.17.17,0,0,0-.078-.028.4.4,0,0,0-.114,0,1.123,1.123,0,0,0-.309.166,3.281,3.281,0,0,0-.338.306,4.55,4.55,0,0,0-.56.761,2.73,2.73,0,0,0-.345.85,1.136,1.136,0,0,0-.007.4l.006.028,0,.014.027-.006a.888.888,0,0,0,.362-.1,3.74,3.74,0,0,0,.409-.247,7.375,7.375,0,0,0,.756-.628c.166-.171.3-.322.41-.452a.072.072,0,0,1,.016-.023.04.04,0,0,0,0-.025q.109-.243.25-.535c.123-.24.221-.418.294-.531a.265.265,0,0,1,.186-.142.323.323,0,0,1,.362.217.334.334,0,0,1-.02.225l-.01.017c-.077.142-.158.311-.242.505l-.223.529q-.191.407-.431,1.058a4.817,4.817,0,0,0-.278,1.041.758.758,0,0,0,.011.2l.009.042.022.039a.2.2,0,0,0,.1.053.415.415,0,0,0,.194-.025,2.487,2.487,0,0,0,.914-.558,9.4,9.4,0,0,0,.779-.809,10.6,10.6,0,0,0,1.288-1.912C117.747,84.747,117.771,84.7,117.771,84.7Z"/><path class="cls-4" d="M100.3,53.524c.25-2.041,1.4-4.4,3.457-4.483a3.545,3.545,0,0,1,3.147,2.239,10.414,10.414,0,0,1,.661,4.018,21.341,21.341,0,0,1,4.421-11.254,8.659,8.659,0,0,1,3.118-2.7,4.023,4.023,0,0,1,3.968.224c1.91,1.4,1.6,4.369.631,6.533s-2.185,2.821-1.956,5.181c4.046-4.234,9.012-5.861,14.661-7.407,1.517-.416,3.407-.613,4.416.594,1.254,1.5.094,3.755-1.181,5.235a36.345,36.345,0,0,1-8.922,7.5,30.018,30.018,0,0,1,9.894-2.373c1.744-.113,3.834.116,4.669,1.651a3.387,3.387,0,0,1-.812,3.831,9.063,9.063,0,0,1-3.663,1.966c-8.134,2.763-17.445,6.086-26.026,5.682-3.9-.184-5.365-2.939-7.749-6.218A14.594,14.594,0,0,1,100.3,53.524Z"/><path class="cls-5" d="M95.392,60.059c-.173-.914-.183-2.034.578-2.569a1.817,1.817,0,0,1,2.129.248,5.326,5.326,0,0,1,1.263,1.9c1.116,2.368,2.278,4.719,3.35,7.106.626,1.395,1.577,3.817-.658,3.282C98.639,69.211,95.962,63.04,95.392,60.059Z"/><path class="cls-5" d="M121.824,66.086c1.333.087,2.908.595,3.216,1.895a2.324,2.324,0,0,1-.629,2.034,5.4,5.4,0,0,1-1.84,1.206c-1.716.766-12.669,3.07-11.958-.569.285-1.465,3.95-3.084,5.167-3.571A13.917,13.917,0,0,1,121.824,66.086Z"/><path class="cls-5" d="M106.782,63.305a6.476,6.476,0,0,1-.589-3.1c-.028-1.22.125-2.732,1.256-3.19,1.15-.464,2.374.613,2.843,1.761C111.219,61.048,109.19,67.52,106.782,63.305Z"/><path class="cls-5" d="M121.63,56.118a2.232,2.232,0,0,1,1.612-.847,1.4,1.4,0,0,1,1.135,1.02,2.722,2.722,0,0,1-.086,1.593,5.342,5.342,0,0,1-2.923,3.252c-.9.391-4.069,1.053-4.081-.622C117.279,59.4,120.86,56.862,121.63,56.118Z"/></svg>