<svg id="word" xmlns="http://www.w3.org/2000/svg" viewBox="0 0 160 160"><defs><style>.cls-1{fill:#e5d6a3;}.cls-1,.cls-2,.cls-3{stroke:#9d4b9c;stroke-miterlimit:10;stroke-width:0.347px;}.cls-2{fill:#cdb991;}.cls-3{fill:#d9c498;}</style></defs><path class="cls-1" d="M108.641,62.526s6.136,35.72,6.788,37.047,1.345,3.263,2.527,2.97,1.581-4.887,1.581-4.887l-1.212-35.871Z"/><polygon class="cls-2" points="68.008 61.947 68.115 70.413 134.49 60.149 132.475 54.221 67.517 62.008 68.008 61.947"/><polygon class="cls-2" points="28.859 52.402 52.701 61.49 50.659 67.926 29.48 59.411 28.859 52.402"/><path class="cls-1" d="M52.6,66.2a55.611,55.611,0,0,0-.774,13.719c.59,6.9,2.928,37.1,3.377,38.612.588,1.979.023,6.257,2.631,6.447s2.421-7.685,2.421-7.685l2.125-39.051s.345-10.163-1.239-11.338-2.121,1.155-2.121,1.155Z"/><path class="cls-1" d="M19.665,58.737S17.361,64,18.318,73.151c.466,4.449,3.465,35.2,3.95,36.482.747,1.979.184,3.09,2.412,3.317s1.809-6.6,1.809-6.6,1.033-32.1,1.9-35.7-.588-9.941-.588-9.941Z"/><polygon class="cls-1" points="15.885 47.651 16.295 58.416 28.859 62.815 28.66 51.319 15.885 47.651"/><polygon class="cls-3" points="30.877 50.416 30.877 60.263 28.859 62.815 28.276 50.416 30.877 50.416"/><polygon class="cls-1" points="49.689 59.039 49.689 69.569 55.788 74.067 56.22 62.579 49.689 59.039"/><polygon class="cls-3" points="68.706 61.785 68.507 71.273 55.788 74.067 56.22 62.579 67.517 62.008 68.706 61.785"/><path class="cls-1" d="M15.771,43.379l41.4,15.153S56.4,58.77,56,60.164A13.845,13.845,0,0,0,55.788,64L10.99,46.961s.121-.468,2.1-1.6A10.215,10.215,0,0,0,15.771,43.379Z"/><path class="cls-1" d="M135.547,62.042s-1.735,7.276-.575,11.639,4.162,36.873,4.162,36.873.488,7,2.955,7.177c3.463.245,2.659-9.561,2.659-9.561s.991-32.087,1.048-34.671c.2-9.09-1.162-9.823-2.663-11.527S135.547,62.042,135.547,62.042Z"/><polygon class="cls-3" points="139.524 52.978 140.194 64.504 147.771 61.487 147.771 52.098 137.123 54.445 139.524 52.978"/><polygon class="cls-1" points="131.665 53.489 132.643 62.268 140.194 64.504 139.554 53.489 131.665 53.489"/><path class="cls-3" d="M59.577,58.179a13.051,13.051,0,0,0-3.43.563c-.6.406-.359,5.26-.359,5.26l92.826-11.38s1.314-2.612-.843-3.708a14.453,14.453,0,0,1-2.19-1.192Z"/><path class="cls-1" d="M15.438,43.416,55.874,59.487,145.2,47.58s-28.664-8.632-29.891-8.9-12.953-3.659-12.953-3.659l-63.35,5.716Z"/></svg>