<svg id="word" xmlns="http://www.w3.org/2000/svg" xmlns:xlink="http://www.w3.org/1999/xlink" viewBox="0 0 160 160"><defs><style>.cls-1,.cls-27,.cls-43{fill:none;}.cls-2{clip-path:url(#clip-path);}.cls-3{fill:#a7b388;}.cls-4{fill:#8d9875;}.cls-5{fill:#9da981;}.cls-6{fill:#af9c79;}.cls-7{fill:#807658;}.cls-8{fill:#4e4f51;}.cls-9{fill:#9aa680;}.cls-10{fill:#828d6c;}.cls-11{fill:#d9e480;stroke-width:0.577px;}.cls-11,.cls-16,.cls-17,.cls-18,.cls-19,.cls-20,.cls-21,.cls-22,.cls-23,.cls-24,.cls-25,.cls-26,.cls-27,.cls-28,.cls-29,.cls-30,.cls-31,.cls-32,.cls-33,.cls-34,.cls-35,.cls-36,.cls-37,.cls-38,.cls-39,.cls-40,.cls-41,.cls-42,.cls-43{stroke:#9d4b9c;}.cls-12{fill:#009345;}.cls-13{fill:#9d4b9c;}.cls-14{fill:#e6f5fc;}.cls-15{fill:#c3dee1;}.cls-16{fill:#e27743;}.cls-16,.cls-17,.cls-18,.cls-19,.cls-20,.cls-21,.cls-22,.cls-23,.cls-24,.cls-25,.cls-26,.cls-27,.cls-28,.cls-29,.cls-30,.cls-31,.cls-32,.cls-33,.cls-34,.cls-35,.cls-36,.cls-37,.cls-38,.cls-39,.cls-40,.cls-41,.cls-42{stroke-miterlimit:10;stroke-width:0.071px;}.cls-17{fill:#3b4146;}.cls-18{fill:#6a6a6d;}.cls-19{fill:#d9cbbc;}.cls-20{fill:#c2d2e3;}.cls-21{fill:#bcb4ab;}.cls-22{fill:#5a6571;}.cls-23{fill:#868587;}.cls-24{fill:#a7a09a;}.cls-25{fill:#7c8270;}.cls-26{fill:#b2aba3;}.cls-28{fill:#8fa3a7;}.cls-29{fill:#af6d61;}.cls-30{fill:#fff;}.cls-31{fill:#abaa9e;}.cls-32{fill:#6c6d69;}.cls-33{fill:#a6abb0;}.cls-34{fill:#120b14;}.cls-35{fill:#c7a03b;}.cls-36{fill:#304476;}.cls-37{fill:#ada49c;}.cls-38{fill:#c06230;}.cls-39{fill:#5f7675;}.cls-40{fill:#43645d;}.cls-41{fill:#688091;}.cls-42{fill:#95bcce;}.cls-43{stroke-width:0.709px;}.cls-44{fill:#93278f;}</style><clipPath id="clip-path"><rect class="cls-1" x="14" y="-196" width="132" height="132"/></clipPath></defs><g class="cls-2"><path class="cls-3" d="M66.905-97.046a7.729,7.729,0,0,0-1.367,3.19c0,1.253.57,3.643,1.707,4.669s1.14,1.707.911,3.417-.8,2.278,0,2.732,1.028.341,0,2.39a29.887,29.887,0,0,0-3.071,14.007c.341,6.264-.114,19.818-.229,24.6s1.252,17.99.911,23.232-.455,20.726-.455,20.726a1.827,1.827,0,0,0,1.933.911c1.37-.229,11.048-.229,14.236-.115s13.668.682,13.668.682.453-19.586.453-22.2.341-27.331.684-29.382.8-18.676.115-22.773-1.484-6.724-1.484-9-2.125-4.251-2.125-4.251,1.6-1.747.988-6.34c-.24-1.809.344-5.922.344-6.6s-1.6-10.134-1.707-10.933-2.624-2.845-2.965-3.986-2.732-2.959-2.732-2.959l-11.615.685S71-110.369,70.322-109,67.589-97.614,66.905-97.046Z"/><path class="cls-4" d="M82.847-91.354s2.163,59.9,2.163,63.43.343,8.2,1.71,7.4,4.442-10.7,4.442-10.7-2.051,11.274-1.592,16.4a53.291,53.291,0,0,0,.8,6.491L91.58,2.787l-7.444-.453s-1.973-49.612-1.63-53.946S82.847-91.354,82.847-91.354Z"/><polygon class="cls-5" points="63.714 15.124 65.312 1.916 96.169 2.941 97.086 15.124 63.714 15.124"/><polygon class="cls-6" points="51.761 64.057 52.901 40.255 78.863 40.593 108.698 40.481 108.471 64.169 51.761 64.057"/><rect class="cls-7" x="77.952" y="41.277" width="4.325" height="23.003"/><rect class="cls-8" x="77.952" y="55.513" width="3.87" height="8.544"/><path class="cls-9" d="M59.463,24.879s-1.438-4.176-1.215-5.846,1.292-3.414.762-3.872a14.029,14.029,0,0,1-1.592-2.429,2.832,2.832,0,0,1,2.807-.226,8.664,8.664,0,0,1,2.658,2.958,4.22,4.22,0,0,1,1.67-2.274c1.214-.684,1.973-1.214,1.973-1.214s2.352.53,2.658,1.97.762.229,1.968-.607a5.817,5.817,0,0,0,1.6-1.441,13.07,13.07,0,0,1,1.593,2.277c.307.759.911.608.911.608a27.119,27.119,0,0,0,2.813-1.742c.226-.309.681-.839.681-.839a3.318,3.318,0,0,1,1.6,1.6,11.017,11.017,0,0,1,.375,1.593s.759-1.366,1.441-1.593a7.436,7.436,0,0,0,1.747-1.14,15.852,15.852,0,0,0,1.821,1.518c.456.229.762,1.519.762,1.519s-.988-.456,1.289-1.438,2.048-1.75,2.048-1.75a1.863,1.863,0,0,0,1.367,1.75c1.446.527,1.523,1.438,1.523,1.438s.224-1.438.682-1.67,2.355-1.518,2.355-1.518a7.438,7.438,0,0,0,1.97,1.6c1.063.53,1.063,2.28,1.063,2.28s.3-1.9,1.214-2.357a18.513,18.513,0,0,1,3.876-.759s-1.066.151-1.066,1.747-.836,3.428-.226,4.176c1.363,1.667.53,6.3.53,6.3Z"/><path class="cls-10" d="M63.946,18.655s-.378-2.732.074-3.721,2.658-2.2,2.658-2.2a24.5,24.5,0,0,1,1.9,2.131,2.678,2.678,0,0,1,.075,2.2s-.911-3.114-2.277-2.352S63.946,18.655,63.946,18.655Z"/><path class="cls-3" d="M55.4,38.2s-2.543-.764-2.961-2.9c-1.026-5.267,1.254-6.851,1.4-8.065a8.7,8.7,0,0,0-.985-4.177,23.743,23.743,0,0,0-2.128-2.279s3.646-1.14,4.557-.685,2.887,2.128,2.887,3.113a23.422,23.422,0,0,0,.3,2.813s.227-4.863.754-4.482a11.583,11.583,0,0,1,1.521,2.81,33.287,33.287,0,0,1,3.8-3.718c.129-.109,2.658.83,2.881,2.348s.991,1.9.991,1.9.911-2.959,1.367-3.036,1.5,3.2,1.5,3.2.779-3.431,2.368-4.038a7.958,7.958,0,0,0,2.206-1.137s.833,1.286,1.592,1.363,1.6,2.655,1.6,2.655.53-2.119,1.137-2.119,1.137,1.893,1.137,1.893a11.138,11.138,0,0,1,1.9-1.822c.831-.53,2.429-1.747,2.429-1.747a24.5,24.5,0,0,1,2.807,1.747,9.888,9.888,0,0,1,.931,2.81,7.349,7.349,0,0,1,.57-2.446c.378-.384,1.423-1.484,1.423-1.484l.742,3.363a7.07,7.07,0,0,1,1.727-2.243,23.889,23.889,0,0,1,2.578-1.363,31.244,31.244,0,0,1,2.659,1.667,10.518,10.518,0,0,1,1.291,2.735s.6-2.813,1.14-2.962S103,24.71,103,24.71a5.625,5.625,0,0,1,2.014-2.79c1.441-.91,4.25.075,4.25.075s-2.2.074-2.425,1.521-.158,5.754.449,6.519,1.146,4.408.078,5.932a14.608,14.608,0,0,1-1.919,2.294s1.77-.169,2.073.891a11.837,11.837,0,0,1,.375,1.673l-55.645-.077s-.455-1.138.533-1.6A24.978,24.978,0,0,1,55.4,38.2Z"/><path class="cls-4" d="M61.284,26.624s.456-3.263,1.673-3.793a7.325,7.325,0,0,0,2.014-1.312,14.813,14.813,0,0,0,1.63,1.69c.533.379,1.062,2.813,1.062,2.813s-1.744-2.962-3.488-2.357S61.284,26.624,61.284,26.624Z"/><path class="cls-4" d="M61.591,38.164s1.573-.776,1.727-1.61.7-7.344.7-7.344.155,6.224.607,7.21,2.392,2.013,2.392,2.013Z"/><path class="cls-4" d="M72.713,38.413s1.974-.3,1.974-1.443.3-8.731.3-8.731-.3,8.582.378,9.112a7.48,7.48,0,0,0,1.748.91Z"/><path class="cls-4" d="M83.363,38.376a2.681,2.681,0,0,0,1.647-2.334c.077-1.748.684-6.007.684-6.007s-.53,6.462.378,7.147a22.277,22.277,0,0,0,1.9,1.251Z"/><path class="cls-4" d="M94.124,38.261s1.478-.174,1.555-1.463.229-7.516.229-7.516.3,7.292.682,7.974,2.2,1.12,2.2,1.12Z"/><path class="cls-4" d="M71.914,25.867s.458-3.262,1.667-3.8,2.206-.91,2.206-.91a16.128,16.128,0,0,0,1.446,1.291c.53.381,1.06,2.81,1.06,2.81S76.548,22.3,74.8,22.909,71.914,25.867,71.914,25.867Z"/><path class="cls-4" d="M82.372,26.245s.455-3.259,1.675-3.8,2.2-.91,2.2-.91a16.46,16.46,0,0,0,1.444,1.291c.53.378,1.062,2.807,1.062,2.807S87,22.677,85.262,23.284,82.372,26.245,82.372,26.245Z"/><path class="cls-4" d="M92.778,26.532s.452-3.265,1.667-3.8,2.2-.911,2.2-.911a16.51,16.51,0,0,0,1.444,1.289c.533.384,1.066,2.813,1.066,2.813s-1.75-2.962-3.495-2.352S92.778,26.532,92.778,26.532Z"/><path class="cls-10" d="M70.018,19.033s-.378-2.732.074-3.718,2.658-2.2,2.658-2.2a24.164,24.164,0,0,1,1.9,2.125,2.713,2.713,0,0,1,.077,2.206s-.914-3.117-2.283-2.358S70.018,19.033,70.018,19.033Z"/><path class="cls-10" d="M75.712,19.033s-.381-2.732.075-3.718,2.661-2.2,2.661-2.2a24.214,24.214,0,0,1,1.9,2.125,2.721,2.721,0,0,1,.074,2.206s-.914-3.117-2.28-2.358S75.712,19.033,75.712,19.033Z"/><path class="cls-10" d="M81.252,19.337s-.379-2.733.077-3.718,2.658-2.2,2.658-2.2a24.686,24.686,0,0,1,1.9,2.129,2.681,2.681,0,0,1,.075,2.2s-.911-3.113-2.28-2.354S81.252,19.337,81.252,19.337Z"/><path class="cls-10" d="M86.872,19.8s-.379-2.735.074-3.718,2.661-2.205,2.661-2.205A24.044,24.044,0,0,1,91.506,16a2.707,2.707,0,0,1,.074,2.2s-.913-3.111-2.28-2.352S86.872,19.8,86.872,19.8Z"/><path class="cls-10" d="M93.024,19.265s-.381-2.735.071-3.72,2.662-2.206,2.662-2.206a24.857,24.857,0,0,1,1.9,2.125,2.689,2.689,0,0,1,.074,2.2s-.911-3.114-2.28-2.352S93.024,19.265,93.024,19.265Z"/><polygon class="cls-10" points="68.652 24.957 68.615 38.545 67.663 38.407 68.652 24.957"/><polygon class="cls-10" points="107.22 38.714 53.981 38.771 55.175 38.241 105.624 38.241 107.22 38.714"/><polygon class="cls-10" points="71.327 25.071 71.519 38.545 70.341 38.522 71.327 25.071"/><polygon class="cls-10" points="79.298 24.957 79.258 38.545 78.313 38.407 79.298 24.957"/><polygon class="cls-10" points="81.349 24.845 81.541 38.319 80.364 38.293 81.349 24.845"/><polygon class="cls-10" points="89.55 24.73 89.51 38.319 88.559 38.178 89.55 24.73"/><polygon class="cls-10" points="92.222 24.845 92.417 38.319 91.237 38.293 92.222 24.845"/><polygon class="cls-10" points="100.42 24.788 100.385 38.376 99.437 38.235 100.42 24.788"/><polygon class="cls-10" points="103.098 24.899 103.287 38.376 102.115 38.35 103.098 24.899"/></g><path class="cls-11" d="M134.145,79.438l3.715,1.288s-2.374,2.339-1.342,2.659,1.342.854,2.374,1.494,1.961.96,2.684,2.24,1.961.107,1.445,2.241a8.815,8.815,0,0,1-.929,2.774c-.31.64,0,1.493-.31,1.92a4.883,4.883,0,0,0-1.135,2.454,9.029,9.029,0,0,1-.1,2.881c-.31.96-2.871,4.374-1.384,4.481s2-1.067,3.035-.747,1.239,1.707,1.755,1.707.929.213.825.96-.825.961-.412,1.921a9.513,9.513,0,0,0,.928,2.24c.723,1.174-.309,3.948,1.239,3.628s2.271-.64,1.651.533.03,2.668.222,3.414,1.1,2.028.751,2.774-.266.961,0,1.921a4.008,4.008,0,0,1,.08,1.814,19.51,19.51,0,0,1-.64,2.027c0,.32.826.533-.309,1.28s-2.168,2.347-2.478,2.454-.825,1.28-1.651,2.027-.838-.427-1.916.747-1.8,2.561-2.212,2.774-2.065.254-2.065,1.727.207,3.5-.309,3.607a27.988,27.988,0,0,0-3.2,0c-2.064.214-1.445,1.814-2.477-.426s-2.064-1.494-2.064-1.494l-2.374.107s-.1.106-.929,1.067-1.238,1.067-1.238,2.027,1.341.853,0,1.28a10.471,10.471,0,0,1-2.477.64,16.305,16.305,0,0,0-3.1,1.067c-.516.107-2.27.96-3.2-.853s-2.993-1.707-3.3-3.308-2.064-2.413-2.787-3.714.31-2.154-1.135-3.007-2.374-1.174-2.89-1.6-3.612-1.493-3.2-2.24.44-1.387-.038-1.387-3.368-1.387-4.5-1.174a18.163,18.163,0,0,1-3.2.107s1.651-.64,0-.747-2.89-.534-2.993-1.387-2.271-1.494-2.271-2.774-.1-3.094-.516-3.414-.1-1.814-1.548-.64a7.25,7.25,0,0,1-3.922,1.173s-1.652.854-1.755,1.814.929.427,0,1.387-.722,1.067-1.445.96-.1-.96-2.064-.96a3.479,3.479,0,0,0-2.477.64c-.826.32-2.89.32-3.3-.747s-.31-1.493-2.374-1.6-1.445.427-2.064-.107-2.064-.106-2.064-.106a2.331,2.331,0,0,1-2.581.746c-1.444-.64-2.889-2.347-3.612-2.24a6.948,6.948,0,0,0-2.58,1.92c-.31.427-2.684,2.454-2.993.854s.206-3.2-.723-3.094-1.342.96-2.374,1.28a10.6,10.6,0,0,1-3.1.107,24.121,24.121,0,0,0-4.128-1.814c-.929-.107-2.787.64-4.232.213l-1.445-.426a16.3,16.3,0,0,0-2.374,1.067c-1.135.64-1.651,1.6-2.271,1.387s-1.135-.961-1.857.106,0,1.067-.723,1.067-1.754-.32-2.374,0,.207-.64-.619.32,0,0-1.548,1.387a9.658,9.658,0,0,1-2.684,1.814.8.8,0,0,0-1.238.64c-.207,1.174.516.32-.516,2.347s-.31,2.028-1.032,2.028H20.2s-.1-.427-.516,0-1.033,0-1.445-2.454-1.652-5.015-.723-7.789.826-1.814.826-5.014.929-3.735.929-3.735v-1.493c0-.747-1.342-4.588,0-5.442a35.056,35.056,0,0,0,5.676-6.294c.516-.961.516-8.322.516-8.962a5.219,5.219,0,0,1,1.755-3.2c1.342-1.387,3.2-7.042,4.438-7.682s2.064-.213,2.89-.64,8-3.521,9.547-4.481,3.848-1.935,3.3-.374a6.106,6.106,0,0,0,.619,4.428,3.535,3.535,0,0,0,1.806,2.027c1.342.64.826,1.387,2.064,2.347a7.38,7.38,0,0,0,3.51,1.814c1.135.107,1.651-.213,1.651,1.6s.31,2.24.31,3.52,1.238,5.122,2.373,5.975.723,1.067,1.033,1.494-1.755-.591,1.444.451,2.787,1.469,2.787,1.9,4.232.64,4.541.32a23.31,23.31,0,0,0,2.478-1.494c1.341-1.066,1.135-.32,2.683-1.493s2.787-3.2,3.509-3.628,2.58,1.281,2.064-2.667-1.341-6.6-1.341-9.274,1.651-4.489.619-5.343a3.34,3.34,0,0,1-.929-2.774V68.662a1.389,1.389,0,0,0,1.032,0,5.8,5.8,0,0,0,2.89-2.348c.516-1.173-.722-1.707.516-1.173s2.477,1.173,2.684.64.516-1.067.929-1.067h2.683c.31,0-.516-.107.722-1.174s.62-.64,1.239-1.066a5.277,5.277,0,0,1,1.445-.641l1.342.214s.309,1.707,1.445,1.814-.723-2.241,1.135-1.281,2.534.854,2.918,1.707a2.973,2.973,0,0,0,1.21,1.281l2.478,1.6a7.439,7.439,0,0,1,1.135.107c.619.106.413.616,2.167,1.481s2.89-.734,2.89.866.207,2.667.723,2.774,2.477-.107,2.064,1.067.722,3.734,1.135,3.734,1.032-.213.929.64.516.534,1.445,1.067,2.477-.32,2.477.747-.619,1.387.826.747,1.445-1.174,2.167-1.174,2.993,1.28,2.993-.32-.722-2.134.207-2.134a3.16,3.16,0,0,1,2.58,1.174c.413.747.826,1.494,1.961,1.6s1.858.32,2.271.32,2.89-.426,2.89-.426"/><path class="cls-12" d="M81.448,102.149c.218,0,.4.284.451.5.109,3.2.1,6.436.37,9.647a6.934,6.934,0,0,1,1.642-.3c.247,0,.465.07.465.353a.371.371,0,0,1-.274.41c-.465.17-1.081.142-1.56.283a2.369,2.369,0,0,1-.588.184.515.515,0,0,1-.423-.382c-.165-1.7-.1-3.521-.179-5.191l-.178-3.493v-1.8C81.243,102.206,81.324,102.149,81.448,102.149Z"/><path class="cls-12" d="M88.9,103.026c.082-1.3.9-.961,1.136,0,.342,1.415.6,2.7,2.093,10.2,0,.311-.411.552-.657.1l-.492-2.546-1.847.283c-.11.665-.2,1.923-.233,2.518-.027.339-.615.254-.6,0Zm.26,6.591c-.013.1-.027.651-.027.764l1.71-.254-1.341-6.3C89.443,104.7,89.2,108.74,89.155,109.617Z"/><path class="cls-12" d="M96.479,107.029c0-1.089-.014-3.833-.027-3.847l-1.094-.042c-.438-.128-.6-.566.067-.736,1.068.029,2.107,0,3.216.085.616.056.575.764.178.764l-1.492-.029c-.013.015-.068,4.5-.1,6.323,0,.58-.054,1.669-.054,2.348v.183c-.109.425-.671.3-.767-.1C96.425,110.975,96.479,108.047,96.479,107.029Z"/><path class="cls-12" d="M103.243,102.942l-.014-.086c0-.212.26-.282.437-.3.425,0,.466.311.549.735.382,2.108.847,4.442,1.627,7.878l1.382-8.033a.474.474,0,0,1,.424-.368c.22,0,.425.084.438.368l-1.532,8.1c-.069.226-.37,2.065-.629,2.065a.05.05,0,0,0-.042.014c-.137-.028-.274,0-.355-.2C104.72,109.744,104.145,106.308,103.243,102.942Z"/><path class="cls-12" d="M112.934,103l.6,8.628a7.118,7.118,0,0,1,.069.749c-.014.227-.233.311-.466.311-.3,0-.355-.268-.4-.537l-.342-6.209c-.068-1.018-.219-2.037-.192-3.055C112.223,102.532,112.907,102.659,112.934,103Z"/><path class="cls-12" d="M118.109,112.078c.247.028.41.3.684.3.37,0,.617-.678.671-.961a40.052,40.052,0,0,0,.534-7,17.925,17.925,0,0,1,.081-1.909c.041-.2.041-.4.261-.4.233.028.547.127.547.453-.288,2.814-.192,5.841-.506,8.076-.137,1.032-.342,2.461-1.546,2.461a.949.949,0,0,1-.192-.014c-.37-.043-.917-.212-.917-.679v-.085C117.754,112.106,117.946,112.064,118.109,112.078Z"/><path class="cls-12" d="M125.132,103.026c.082-1.3.9-.961,1.136,0,.342,1.415.6,2.7,2.093,10.2,0,.311-.411.552-.657.1l-.492-2.546-1.848.283c-.109.665-.2,1.923-.232,2.518-.027.339-.615.254-.6,0Zm.26,6.591c-.013.1-.028.651-.028.764l1.711-.254-1.341-6.3C125.68,104.7,125.433,108.74,125.392,109.617Z"/><ellipse class="cls-13" cx="69.632" cy="99.869" rx="3.993" ry="4.128"/><path class="cls-14" d="M39.783,45.074l36.584,1.205-.305-10.417-.488-6.619s0-2.072-1.083-2.935a2.127,2.127,0,0,0-2.166-.346s-1.028-2.14-2.6-1.334a2.773,2.773,0,0,0-1.517,2.428.766.766,0,0,0-.813.23c-.433.4-.162,1.151-.162,1.151a4.561,4.561,0,0,0-1.191.288c-.542.23-.65,2.015-.65,2.015a7.27,7.27,0,0,0-2.383-1.324c-1.246-.346-2.6,1.381-3.033,1.5s-.488-.23-.921-1.093a2.017,2.017,0,0,0-1.3-1.036,1.415,1.415,0,0,0-.65-1.842c-1.191-.691-1.679.173-1.679.173a1.593,1.593,0,0,0-.758-1.094,2.062,2.062,0,0,0-1.408-.115,3.481,3.481,0,0,0-.377-2.093,1.748,1.748,0,0,0-2.222-.555s-.687-.855-2.28-.131c-1.7.772-1.3,2.873-1.3,2.873A2.859,2.859,0,0,0,44.2,27.285a3.51,3.51,0,0,0-.672,2.915,3.121,3.121,0,0,0-3.435,1.973c-1.146,2.486-.316,3.644-.316,3.644Z"/><path class="cls-15" d="M53.085,36.268c1.189-1.222,2.1.382,2.1.382s-.28-1.145.842-1.259a1.657,1.657,0,0,1,1.6.992s-.158-.839,1.094-.839c.617,0,1.346.8,1.346.8s.225-1.069.842-1.183.757.229,1.262.763,1.15-.343,1.15-.534-1.571-1.641-.645-2.862c.525-.692.953.191.953.191s-.645-2.633.617-3.548a1.364,1.364,0,0,1,2.048.534s-.309-1.946,1.318-2.137,1.851,1.946,1.851,1.946.358-.793,1.27.5c.756,1.068,1.054,3.45-.485,4.693-.9.725-1.991-.534-1.991-.534s.028,1.908-1.15,1.908a.844.844,0,0,1-.841-.725s.561,1.869-.393,2.213a1.465,1.465,0,0,1-1.6-.649s.113,1.259-.7,1.6-1.29-.725-1.29-.725-.1,2.41-1.963,1.259c-.864-.535-.7-1.107-.7-1.107l-.9,1.527H52.86S51.823,37.566,53.085,36.268Z"/><polygon class="cls-16" points="52.156 37.096 57.723 38.457 58.781 43.181 55.844 44.872 51.883 37.256 52.156 37.096"/><polygon class="cls-17" points="52.067 47.715 49.198 47.623 49.15 42.36 52.019 42.36 52.067 47.715"/><rect class="cls-18" x="45.88" y="26.928" width="0.119" height="1.321"/><rect class="cls-18" x="46.657" y="26.938" width="0.128" height="1.251"/><rect class="cls-18" x="45.53" y="31.461" width="0.154" height="1.071"/><rect class="cls-18" x="47.434" y="31.491" width="0.171" height="1.211"/><path class="cls-18" d="M44.9,30.731l.051-.02a1.681,1.681,0,0,1,.478-.341,8.031,8.031,0,0,1,1.417-.139,4.041,4.041,0,0,1,1.23.52l-.513.84s-.751-.04-.836-.04-1.179.02-1.179.02l-.563-.76"/><path class="cls-19" d="M45.838,24.967l.034-1.621a1.364,1.364,0,0,1,.734-.161,1.388,1.388,0,0,1,.58.28l.035,1.6s-.325-.4-.7-.34A2.185,2.185,0,0,0,45.838,24.967Z"/><path class="cls-19" d="M44.472,35.7l.074,2.763,4.152,1.04-.2-3.642a7.991,7.991,0,0,0-2.29-.541C45.644,35.425,44.472,35.7,44.472,35.7Z"/><polygon class="cls-18" points="45.394 26.738 45.889 27.018 46.719 27.058 47.426 26.918 46.878 26.398 46.136 26.298 45.394 26.738"/><polygon class="cls-20" points="51.814 48.665 51.883 37.256 55.605 43.541 55.742 44.742 56.288 44.862 56.493 49.225 51.814 48.665"/><polygon class="cls-21" points="46.025 48.644 45.718 40.038 47.784 37.556 49.671 41.389 49.697 48.424 46.025 48.644"/><rect class="cls-22" x="52.276" y="40.058" width="0.204" height="0.481"/><rect class="cls-22" x="52.361" y="43.56" width="0.342" height="0.961"/><rect class="cls-23" x="46.726" y="42.48" width="0.598" height="1.021"/><rect class="cls-23" x="46.743" y="44.121" width="0.461" height="0.901"/><rect class="cls-23" x="46.811" y="45.622" width="0.478" height="1.081"/><rect class="cls-22" x="52.31" y="40.659" width="0.205" height="0.48"/><rect class="cls-22" x="52.327" y="42" width="0.341" height="0.961"/><rect class="cls-22" x="52.976" y="43.501" width="0.341" height="0.96"/><rect class="cls-22" x="52.941" y="41.94" width="0.342" height="0.96"/><rect class="cls-22" x="52.617" y="40.078" width="0.205" height="0.481"/><rect class="cls-22" x="52.651" y="40.678" width="0.205" height="0.481"/><path class="cls-22" d="M52.173,46.1s.222-.54.6-.54.529.58.529.58Z"/><rect class="cls-22" x="53.693" y="45.262" width="0.273" height="0.8"/><rect class="cls-22" x="53.676" y="43.241" width="0.188" height="0.54"/><rect class="cls-22" x="52.19" y="38.877" width="0.222" height="0.54"/><rect class="cls-22" x="53.676" y="41.599" width="0.188" height="0.56"/><rect class="cls-22" x="54.427" y="43.601" width="0.273" height="0.701"/><polygon class="cls-22" points="52.506 48.705 52.455 46.943 55.546 46.983 55.665 49.145 52.506 48.705"/><rect class="cls-24" x="45.172" y="36.115" width="0.375" height="1.041"/><rect class="cls-24" x="46.538" y="35.935" width="0.478" height="1.061"/><path class="cls-25" d="M45.752,23.465l.154-.46a.376.376,0,0,1-.2-.34c-.025-.291.359-.46.359-.46l.58-5.685L47,22.265s.273.06.256.3a.823.823,0,0,1-.137.4l.094.57a.982.982,0,0,0-.836-.24A2.717,2.717,0,0,0,45.752,23.465Z"/><polygon class="cls-25" points="46.145 32.332 46.043 32.332 46.043 30.17 46.145 30.17 46.145 32.332 46.145 32.332"/><polygon class="cls-25" points="47.204 32.634 47.152 30.352 47.255 30.349 47.306 32.631 47.204 32.634 47.204 32.634"/><polygon class="cls-25" points="48.024 32.853 47.921 32.852 47.938 30.67 48.04 30.671 48.024 32.853 48.024 32.853"/><polygon class="cls-25" points="45.513 28.591 45.411 28.587 45.479 26.565 45.582 26.57 45.513 28.591 45.513 28.591"/><polygon class="cls-25" points="46.341 28.099 46.239 28.099 46.239 26.388 46.341 26.388 46.341 28.099 46.341 28.099"/><polygon class="cls-25" points="47.007 28.24 46.948 26.447 47.093 26.607 47.11 28.238 47.007 28.24 47.007 28.24"/><polygon class="cls-25" points="47.409 28.462 47.34 26.901 47.443 26.895 47.511 28.456 47.409 28.462 47.409 28.462"/><rect class="cls-26" x="46.025" y="23.606" width="0.188" height="0.781"/><rect class="cls-26" x="46.435" y="23.595" width="0.24" height="0.72"/><rect class="cls-23" x="46.879" y="41.199" width="0.444" height="0.96"/><rect class="cls-23" x="47.75" y="42.56" width="0.598" height="1.021"/><rect class="cls-23" x="47.767" y="44.201" width="0.461" height="0.901"/><rect class="cls-23" x="47.836" y="45.702" width="0.478" height="1.08"/><rect class="cls-23" x="47.904" y="41.279" width="0.444" height="0.961"/><rect class="cls-23" x="48.741" y="42.68" width="0.41" height="1.021"/><rect class="cls-23" x="48.752" y="44.321" width="0.316" height="0.901"/><rect class="cls-23" x="48.799" y="45.822" width="0.328" height="1.081"/><rect class="cls-23" x="48.846" y="41.399" width="0.304" height="0.961"/><rect class="cls-23" x="47.852" y="39.718" width="0.24" height="0.901"/><rect class="cls-26" x="46.871" y="23.695" width="0.188" height="0.781"/><path class="cls-25" d="M45.376,26.747l.667-.3h.905l.529.521-.2-.6s.188-1.04-.051-1.341a1.057,1.057,0,0,0-1.076-.36c-.436.06-.6.721-.6.961s-.034.6-.034.6Z"/><path class="cls-27" d="M45.53,26.277a1.855,1.855,0,0,1,1.648.021"/><path class="cls-27" d="M46.325,24.726a4.342,4.342,0,0,0-.146,1.341"/><path class="cls-27" d="M46.871,24.806a2.108,2.108,0,0,1,.085,1.341"/><polygon class="cls-25" points="44.992 32.843 44.89 32.843 44.89 30.681 44.992 30.681 44.992 32.843 44.992 32.843"/><path class="cls-25" d="M45.633,28.349a.879.879,0,0,1,.854-.3,8.942,8.942,0,0,1,.922.26,2.894,2.894,0,0,1,.512,1.2,2.873,2.873,0,0,0,.119.821c0,.06.1.46.1.46l-.939-.44-1.247-.061-1.058.441.2-.781a4.718,4.718,0,0,1,.17-.941A1.692,1.692,0,0,1,45.633,28.349Z"/><path class="cls-27" d="M45.035,30.13a2.115,2.115,0,0,1,2.288-.2"/><path class="cls-25" d="M44.369,36.015l.239-.961a1.574,1.574,0,0,1-.085-1.1c.171-.64.418-1.271.418-1.271a2.446,2.446,0,0,1,1.648-.37,2.553,2.553,0,0,1,1.4.48,3.857,3.857,0,0,1,.376,1.1c.051.48.068,1.342.068,1.342a6.7,6.7,0,0,1,.2.88c-.051-.04-1.349-.56-1.349-.56l-1.366.019Z"/><ellipse class="cls-28" cx="46.854" cy="33.683" rx="0.572" ry="0.691"/><path class="cls-27" d="M44.625,35.084c1.179-.38,2.946-1.019,3.817.18"/><rect class="cls-24" x="47.852" y="36.175" width="0.376" height="1.041"/><path class="cls-29" d="M66.694,48.543l.22-5.951-1.289-2.635L65.3,39.2l-.473-1.363-.4-.867.007-.38s-.339-.288-.335-.541.014-.758.014-.758l-.257-.552s-.491-.311-.486-.606a3.517,3.517,0,0,1,.088-.64l.313-.422-.5.027s-.64-.5-.633-.879-.057-1.126-.057-1.126l.2-.405-.751-.736-1.118.615.067.578s.178.732-.053.848-.431.6-.431.6l-.584.67s.449.525.29.883a3.361,3.361,0,0,1-.625.8l-.2.7s-.17.988-.361,1.015-.2.321-.2.321l-.283.92-.828,1.5-.165.7-1.425,2.883-.057,1.057-.007,4.7Z"/><path class="cls-29" d="M81.057,50.642l-.076-8.681-.256-.059.156-.745-.255-.123-.451-.378s-.024-.281-.05-.434-.106-.458-.106-.458.178-.371.036-.478-.308-.367-.421-.445-.1-.9-.095-1.058a.468.468,0,0,0-.222-.41c-.142-.076-.134-.55-.134-.55s-.168-.2-.224-.283a4.356,4.356,0,0,0-.393-.386l-.178-1.362-.451-.316a3.226,3.226,0,0,1-.189-.7,4.9,4.9,0,0,0-.13-.738l-.331-.679a2.252,2.252,0,0,0,.069-.7c-.054-.183-.4-.262-.4-.262s.239-.536.067-.575a3.525,3.525,0,0,1-.6-.3l0-1.668s-.46.063-.657-.131a.822.822,0,0,0-.541-.178l-.451-.378-.29.166-.139-.2-.461.189-.049-.434-.6-.358.127-.712-.946.067.074.683a1.614,1.614,0,0,1-.261.225c-.087.044-.289.134-.291.26s-.095.486-.121.395a2.674,2.674,0,0,0-.2-.352l-.291.261-.2.122s-.281-.244-.369-.138a3.773,3.773,0,0,1-.292.292l-.347.205-.659.091-.145.051-.117,1.748-.43.09-.432.122.16.671-.321.359.159.7-.462.19a.607.607,0,0,0-.179.434c0,.283-.015.883-.015.883s-.094.422-.237.41a1.306,1.306,0,0,0-.4.087s.03,1.539-.373,1.689a3.786,3.786,0,0,0-.781.422l.041.939-.653,1.317L66.5,41.62l-.163,9.217Z"/><polygon class="cls-30" points="60.488 31.993 60.718 31.961 60.718 33.503 60.719 36.747 60.403 36.79 60.488 31.993"/><polygon class="cls-30" points="62.833 32.111 63.149 32.068 63.036 36.87 62.664 36.826 62.833 32.111"/><polygon class="cls-30" points="60.884 30.71 62.773 30.692 62.794 31.108 60.971 31.149 60.884 30.71"/><path class="cls-31" d="M62.161,31.874c-.006.305-.178.574-.384.6s-.368-.2-.363-.5.177-.576.383-.6S62.167,31.568,62.161,31.874Z"/><path class="cls-32" d="M60.833,36.763l.086-2.059s.006-.3.228-.315c.33-.013.35.457.35.457l-.021,1.892Z"/><polygon class="cls-27" points="57.471 39.083 57.488 38.136 57.619 37.204 57.815 39.066 57.471 39.083"/><polygon class="cls-27" points="58.629 36.751 58.708 35.511 58.743 36.83 58.542 36.825 58.629 36.751"/><polygon class="cls-27" points="59.406 34.881 59.457 33.615 59.568 34.953 59.406 34.881"/><polygon class="cls-27" points="64.014 34.971 64.095 33.607 64.3 34.965 64.014 34.971"/><polygon class="cls-27" points="64.527 36.759 64.665 35.417 64.899 36.74 64.527 36.759"/><polygon class="cls-30" points="59.203 35.034 60.319 35.102 60.313 35.417 59.255 35.373 59.203 35.034"/><polyline class="cls-30" points="58.284 36.861 65.099 36.774 64.624 37.722 58.582 37.765 58.228 36.774"/><polygon class="cls-30" points="59.694 42.934 59.685 40.195 60.945 40.147 60.809 43 59.694 42.934"/><polygon class="cls-32" points="59.964 40.598 59.961 42.425 60.648 42.424 60.739 40.459 59.964 40.598"/><polygon class="cls-30" points="59.767 38.829 59.757 39.335 60.96 39.295 60.855 38.776 59.767 38.829"/><polygon class="cls-30" points="56.025 43.154 66.393 42.925 66.27 43.447 56.132 43.612 56.025 43.154"/><polygon class="cls-27" points="66.486 42.536 66.829 42.551 66.78 48.572 66.35 48.6 66.486 42.536"/><polygon class="cls-27" points="56.314 43.051 56.475 48.539 55.899 48.682 55.97 43.066 56.314 43.051"/><path class="cls-33" d="M55.924,48.93l-.076,2.656,1.143.015c2.776.036,9.647.114,9.649.013,0-.125.14-3.042.14-3.042l-10.881.11-.062.292"/><path class="cls-34" d="M69.972,29.949a.256.256,0,0,1-.177.261c-.095.013-.171-.083-.168-.213a.255.255,0,0,1,.177-.26C69.9,29.723,69.974,29.819,69.972,29.949Z"/><path class="cls-34" d="M71.346,29.966c0,.156-.089.3-.193.31s-.184-.1-.181-.26.089-.294.192-.31S71.348,29.809,71.346,29.966Z"/><path class="cls-34" d="M74.695,29.962c0,.149-.069.277-.148.288s-.141-.1-.139-.248.069-.278.148-.289S74.7,29.814,74.695,29.962Z"/><path class="cls-34" d="M76.214,29.879a.277.277,0,0,1-.22.267.19.19,0,0,1-.211-.208.276.276,0,0,1,.22-.266A.189.189,0,0,1,76.214,29.879Z"/><path class="cls-35" d="M73.135,26.429c0,.2-.115.378-.25.4s-.24-.129-.237-.329.115-.377.25-.4S73.139,26.228,73.135,26.429Z"/><path class="cls-31" d="M69.559,41.987,69.711,31.8s.278-1.172.5-1.14.494,1.224.494,1.224l-.2,10.009Z"/><polygon class="cls-30" points="66.681 34.731 69.112 34.839 69.129 35.497 66.869 35.429 66.681 34.731"/><path class="cls-30" d="M76.3,34.732l2.547.06-.3.639a18.392,18.392,0,0,1-2.206.051A3.747,3.747,0,0,1,76.3,34.732Z"/><polygon class="cls-30" points="69.185 29.128 76.514 29.066 76.448 29.611 69.232 29.69 69.185 29.128"/><polygon class="cls-30" points="66.954 41.968 80.981 41.961 81.026 42.679 66.969 42.722 66.725 42 66.954 41.968"/><path class="cls-32" d="M68.058,45.878l.179-2.04s.242-.663.728-.7.784,1.025.784,1.025l.084,1.721L68.085,46Z"/><path class="cls-32" d="M75.158,45.91l.179-2.039s.24-.663.728-.7.783,1.026.783,1.026l.085,1.721-1.75.114Z"/><path class="cls-32" d="M73.069,45.85l.179-2.039s.241-.663.728-.7.784,1.025.784,1.025l.084,1.721-1.749.114Z"/><path class="cls-32" d="M70.15,45.78l.18-2.041s.24-.662.727-.7.784,1.025.784,1.025l.084,1.721-1.749.114Z"/><path class="cls-30" d="M67.2,50.782l.1-2.534s.248-1.072.821-1.152.924,1.229.924,1.229l-.1,2.532-1.66.009Z"/><polygon class="cls-32" points="67.53 48.249 68.561 48.17 68.63 50.805 67.456 50.809 67.53 48.249"/><polygon class="cls-30" points="70.042 34.018 70.417 33.935 70.432 34.688 70.03 34.744 70.042 34.018"/><path class="cls-31" d="M71.072,41.993,71.224,31.8s.278-1.171.506-1.139.494,1.223.494,1.223l-.206,10.009Z"/><polygon class="cls-30" points="71.557 34.022 71.93 33.941 71.946 34.693 71.544 34.748 71.557 34.022"/><path class="cls-31" d="M73.061,42.013l.151-10.192s.279-1.172.507-1.139.493,1.223.493,1.223l-.2,10.01Z"/><polygon class="cls-30" points="73.545 34.042 73.918 33.96 73.934 34.713 73.533 34.768 73.545 34.042"/><path class="cls-31" d="M74.59,41.936l.151-10.191s.279-1.172.507-1.14.494,1.223.494,1.223l-.206,10.01Z"/><polygon class="cls-30" points="75.074 33.966 75.447 33.884 75.463 34.637 75.061 34.692 75.074 33.966"/><path class="cls-31" d="M76.385,41.919,76.45,36.6s.269-.629.5-.627.505.6.505.6L77.332,41.8Z"/><path class="cls-31" d="M67.729,41.981l.065-5.318s.268-.629.5-.627.5.6.5.6l-.12,5.226Z"/><polyline class="cls-27" points="68.263 40.733 68.358 36.772 67.976 36.398"/><polyline class="cls-27" points="76.848 40.754 76.991 36.76 76.612 36.251"/><path class="cls-30" d="M73.966,50.712l.1-2.533s.248-1.073.822-1.152.923,1.228.923,1.228l-.1,2.532L74.05,50.8Z"/><polygon class="cls-32" points="74.297 48.179 75.329 48.101 75.397 50.736 74.223 50.74 74.297 48.179"/><path class="cls-30" d="M76.487,50.713l.1-2.534s.248-1.072.822-1.151.923,1.227.923,1.227l-.1,2.533-1.66.008Z"/><polygon class="cls-32" points="76.819 48.18 77.851 48.101 77.918 50.737 76.745 50.742 76.819 48.18"/><path class="cls-30" d="M78.964,50.586l.1-2.533s.247-1.074.822-1.152.923,1.227.923,1.227l-.1,2.534-1.66.007Z"/><polygon class="cls-32" points="79.295 48.054 80.327 47.974 80.395 50.61 79.221 50.614 79.295 48.054"/><polyline class="cls-33" points="80.838 51.743 80.751 51.742 66.694 51.764 66.599 50.707 81.169 50.751 81.038 51.715 80.924 51.698"/><path class="cls-36" d="M73.652,30.562a1.033,1.033,0,0,1-.734,1.041c-.4.059-.712-.313-.7-.83a1.032,1.032,0,0,1,.735-1.041C73.345,29.674,73.661,30.045,73.652,30.562Z"/><path class="cls-30" d="M73.2,30.719a.449.449,0,0,1-.321.453c-.175.024-.312-.14-.308-.366a.449.449,0,0,1,.322-.454C73.064,30.328,73.2,30.493,73.2,30.719Z"/><path class="cls-30" d="M73.079,29.586a.462.462,0,0,1-.323.47c-.173.023-.311-.148-.307-.384a.463.463,0,0,1,.322-.469C72.945,29.18,73.083,29.351,73.079,29.586Z"/><path class="cls-30" d="M73.241,32.224c0,.3-.174.559-.376.587s-.363-.189-.358-.485.174-.56.377-.588S73.246,31.928,73.241,32.224Z"/><polygon class="cls-30" points="69.29 50.715 69.454 44.647 70.312 44.718 70.177 50.751 69.29 50.715"/><path class="cls-30" d="M70.981,45.728l.01-.568-.078-.43.811-.552s-.134-.517.038-.541.134.486.134.486l.763.65-.233.253.067,1-1.5,0Z"/><polygon class="cls-30" points="72.809 50.798 72.974 44.73 73.832 44.801 73.696 50.834 72.809 50.798"/><polygon class="cls-30" points="62.754 33.382 62.8 33.974 60.657 33.795 60.52 33.436 62.754 33.382"/><path class="cls-32" d="M61.836,36.719l.086-2.058s.006-.306.228-.314c.33-.014.35.455.35.455l-.022,1.892Z"/><polygon class="cls-30" points="62.129 42.85 62.12 40.112 63.381 40.065 63.244 42.918 62.129 42.85"/><polygon class="cls-32" points="62.399 40.515 62.395 42.341 63.083 42.342 63.175 40.376 62.399 40.515"/><path class="cls-32" d="M70.417,51.726l.09-3.476a1.123,1.123,0,0,1,.934-1.011c.861-.119.956.971.956.971l.082,3.518Z"/><polygon class="cls-32" points="59.383 48.665 59.334 50.319 60.65 50.328 60.701 48.631 59.383 48.665"/><path class="cls-30" d="M59.2,48.45l-.081-.21a2.714,2.714,0,0,1,.95-.32,2.156,2.156,0,0,1,.8.363l-.035.351-1.545-.007Z"/><polygon class="cls-32" points="57.25 48.777 57.136 51.565 58.139 51.491 58.246 48.737 57.25 48.777"/><polygon class="cls-32" points="61.713 48.534 61.664 50.188 62.981 50.196 63.031 48.499 61.713 48.534"/><path class="cls-30" d="M61.526,48.318l-.082-.21a2.71,2.71,0,0,1,.951-.318,2.128,2.128,0,0,1,.794.362l-.035.351L61.609,48.5Z"/><polygon class="cls-32" points="64.252 48.5 64.204 50.154 65.521 50.162 65.57 48.466 64.252 48.5"/><path class="cls-30" d="M64.065,48.284l-.082-.208a2.7,2.7,0,0,1,.95-.32,2.13,2.13,0,0,1,.8.363l-.035.35-1.546-.007Z"/><polygon class="cls-32" points="57.063 44.618 57.01 46.838 57.968 46.96 58.022 44.684 57.063 44.618"/><polygon class="cls-32" points="59.698 44.57 59.645 46.791 60.602 46.912 60.657 44.635 59.698 44.57"/><polygon class="cls-32" points="62.045 44.563 61.992 46.782 62.95 46.905 63.004 44.629 62.045 44.563"/><polygon class="cls-32" points="64.398 44.302 64.344 46.522 65.302 46.644 65.357 44.368 64.398 44.302"/><polygon class="cls-30" points="62.176 38.563 62.167 39.066 63.37 39.028 63.265 38.506 62.176 38.563"/><polygon class="cls-30" points="61.275 38.811 61.085 43.058 61.602 42.986 61.734 38.749 61.275 38.811"/><polygon class="cls-30" points="57.089 39.135 59.323 39.08 59.2 39.601 57.249 39.805 57.089 39.135"/><polygon class="cls-30" points="63.851 38.772 65.742 38.766 65.673 39.404 64.012 39.38 63.851 38.772"/><polyline class="cls-37" points="45.855 39.948 46.025 48.644 43.831 48.324 44.036 40.278"/><polygon class="cls-38" points="45.787 40.598 47.784 37.556 43.327 38.437 43.191 40.678 45.787 40.598"/><polygon class="cls-39" points="44.728 49.886 44.762 38.957 43.123 35.074 41.107 38.437 41.039 48.444 41.005 50.046 44.728 49.886"/><polygon class="cls-40" points="41.005 50.046 38.454 49.204 38.99 38.357 41.379 37.682 41.005 50.046"/><polygon class="cls-41" points="39.058 35.394 43.327 34.273 41.244 37.996 38.99 38.357 39.058 35.394"/><polygon class="cls-42" points="40.759 38.429 41.035 39.282 43.259 35.394 44.659 38.957 45.137 38.997 43.396 34.074 40.759 38.429"/><path class="cls-43" d="M69.29,97.462,57.516,64.93C43.522,63.071,32.738,51.39,32.738,37.257c0-15.425,12.847-27.93,28.693-27.93s28.693,12.505,28.693,27.93c0,10.586-4.6,21.779-18.965,26.551L69.632,99.869"/><path class="cls-44" d="M50.165,105.378c0-.337-.053-2.314-.073-2.825,0-.109-.064-1.065-.075-1.185v-.043c0-.25.274-.315.485-.315,1.45,0,1.964,1.076,1.964,2.325a2.382,2.382,0,0,1-1.04,2.108c1.21.555,1.5,2.326,1.5,3.543,0,.2-.116.272-.3.272-.127,0-.179,0-.231-.174-.053-.815-.254-3.119-1.473-3.119-.011,0-.084.011-.1.011-.116,1.228-.022,2.467-.095,3.706a.333.333,0,0,1-.557,0C50.176,109.029,50.176,106.031,50.165,105.378Zm.577-.261a1.688,1.688,0,0,0,1.158-1.684c0-.576-.232-1.771-.99-1.771-.041,0-.367,0-.367.087Z"/><path class="cls-44" d="M54.592,101.988l.463,6.629c.02.206.052.38.052.576-.011.174-.179.239-.358.239-.231,0-.272-.207-.3-.413l-.263-4.771c-.053-.783-.169-1.565-.147-2.347C54.045,101.629,54.57,101.727,54.592,101.988Z"/><path class="cls-44" d="M56.158,105.356c0-.858.19-2.521,1.1-2.977.526-.261,1.894-.152,1.894.717,0,.131-.054.272-.231.272-.38,0-.516-.587-1.053-.587H57.83c-.979.054-1.146,1.576-1.146,2.391v.217a16.378,16.378,0,0,0,.273,2.912c.1.512.388,1.055,1,1.055h.053c.956-.055.987-1.348.956-1.967l-.084-1.609a8.891,8.891,0,0,1-.947.055c-.093-.065-.125-.337-.125-.348,0-.326.725-.261,1.408-.271.316.086.273.63.3,1.3v.109c.063,1.185.158,3.195-1.366,3.271a1.351,1.351,0,0,1-.211,0C56.525,109.986,56.158,108.193,56.158,105.356Z"/><path class="cls-44" d="M61.078,102.01c.063-1,.694-.74.873,0,.262,1.086.462,2.075,1.608,7.834,0,.24-.315.424-.5.077l-.378-1.956-1.419.217c-.084.511-.158,1.478-.179,1.934-.02.261-.473.2-.462,0Zm.2,5.064c-.011.076-.021.5-.021.587l1.314-.2-1.031-4.836C61.5,103.292,61.309,106.4,61.278,107.074Z"/><rect class="cls-44" x="53.248" y="100.154" width="2.407" height="0.425" rx="0.209"/></svg>