<svg id="word" xmlns="http://www.w3.org/2000/svg" viewBox="0 0 160 160"><defs><style>.cls-1{fill:#f2d480;}.cls-1,.cls-10,.cls-11,.cls-12,.cls-13,.cls-14,.cls-16,.cls-17,.cls-2,.cls-3,.cls-4,.cls-5,.cls-6,.cls-7,.cls-8,.cls-9{stroke:#9d4b9c;stroke-width:0.555px;}.cls-2{fill:#d9b57a;}.cls-16,.cls-3{fill:none;}.cls-14,.cls-3{stroke-linecap:round;}.cls-4{fill:#f7ee6d;}.cls-5{fill:#81c6ed;}.cls-14,.cls-6{fill:#fff;}.cls-7{fill:#5a91cc;}.cls-8{fill:#d6de23;}.cls-9{fill:#8b8bc3;}.cls-10{fill:#fce3da;}.cls-11{fill:#00adee;}.cls-12{fill:#fde2d4;}.cls-13{fill:#fde4d5;}.cls-15{fill:#9d4b9c;}.cls-17{fill:#d67fb3;}</style></defs><polygon class="cls-1" points="43.037 88.944 19.209 92.536 42.058 97.433 46.626 91.557 43.037 88.944"/><polygon class="cls-2" points="41.403 68.382 42.058 97.433 96.892 103.307 96.892 70.014 41.403 68.382"/><polygon class="cls-2" points="96.892 70.014 132.143 64.464 132.143 92.208 96.892 103.307 96.892 70.014"/><polygon class="cls-1" points="132.143 64.464 65.557 63.813 41.403 68.382 96.892 70.014 132.143 64.464"/><path class="cls-2" d="M96.892,103.307l35.251-11.1s11.1,2.286,13.381,2.286h10.119l-39.166,13.382Z"/><path class="cls-3" d="M135.553,118.715c-10.771-1.958-27.258-4.567-39.492-4.567"/><path class="cls-3" d="M31.761,102.4c-22.848-4.57-11.478-1.755-23.41-5.31"/><path class="cls-3" d="M53.3,109.579c12.73,2.609,14.348,2.537,23.5,3.262"/><path class="cls-4" d="M51.085,102.482a1.984,1.984,0,0,1-.022,2.764c-.251.308-2.059,2.077-2.059,2.077s-2.96,1.813-3.6.9a20.679,20.679,0,0,1-1.451-4.182s1.253-.787,1.419-1.631,1.4-1.794,1.4-1.794-.437,1.945,1.266,2.478S50.628,103.318,51.085,102.482Z"/><path class="cls-5" d="M49.877,107.621s.143,3.719-2.215,4.011-4.065-1.064-5.442-1.005-5.03-2.027-5.627-2.881-2.265-3.779-1.464-4.8,1.485-.859,2.443-.438,3.133,1.895,3.941,1.7a5.581,5.581,0,0,1,1.867-.04s2.228-1.557,2.486-.1a7.883,7.883,0,0,1-.3,3.216l1.194.618a5.333,5.333,0,0,1,1.5-1.234,3.792,3.792,0,0,1,2.04-.068Z"/><path class="cls-6" d="M42.412,106.576a2.418,2.418,0,0,0-.176-1.6c-.408-.717-1.57-1.526-1.589-.874a3.8,3.8,0,0,0,.722,1.667S42.163,108.119,42.412,106.576Z"/><path class="cls-6" d="M43.73,106.514a5.947,5.947,0,0,0,.57-1.673.767.767,0,0,0-.623-.927,2.121,2.121,0,0,0-1.252.147s.106-.162.618.57.051,1.873.038,2.035S43.146,107.441,43.73,106.514Z"/><path class="cls-6" d="M49.02,110.815a7.2,7.2,0,0,1-2.265.372,10.379,10.379,0,0,1-3.263-.778c-.833-.5-2.251-.271-3.216-.841s-2.955-1.509-3.852-2.789a8.708,8.708,0,0,1-1.183-3.9s-.589-.255-.626,1.138a5.748,5.748,0,0,0,1.79,4.266c1.207,1,3.465,2.42,4.438,2.5a9.335,9.335,0,0,1,2.58.258,13.013,13.013,0,0,0,4.035.928C49.037,111.832,49.02,110.815,49.02,110.815Z"/><path class="cls-7" d="M50.3,106.6a2.1,2.1,0,0,0-1.622-.152c-.862.3-2.239,1.406-1.92,1.454s.876-.329,1.611-.36a5.439,5.439,0,0,1,1.483.174L50.3,106.6"/><path class="cls-7" d="M36.424,106.779s-.46-1.52-.146-2.106,1.515-1.761.632-2.387c-.994-.7-1.669.594-1.669.594s.2,1.254.392,2.09A5.947,5.947,0,0,0,36.424,106.779Z"/><path class="cls-4" d="M88.9,100.235a1.98,1.98,0,0,1,2.489,1.2c.17.358,1,2.747,1,2.747s.373,3.451-.725,3.64a20.747,20.747,0,0,1-4.4-.476,3.473,3.473,0,0,0-.87-1.981,4.238,4.238,0,0,1-1.025-2.03s1.572,1.229,2.783-.084S89.465,101,88.9,100.235Z"/><path class="cls-5" d="M93.033,103.522s3.427,1.461,2.679,3.716-2.7,3.221-3.236,4.493-3.98,3.677-5.007,3.855-4.386.43-4.964-.728-.14-1.708.648-2.4,3.054-2.022,3.22-2.837a5.617,5.617,0,0,1,.762-1.706s-.457-2.681.969-2.292a7.9,7.9,0,0,1,2.777,1.648l1.069-.812a5.386,5.386,0,0,1-.474-1.887,3.81,3.81,0,0,1,.811-1.873Z"/><path class="cls-6" d="M88.9,109.825a2.407,2.407,0,0,0-1.528-.528c-.819.062-2.049.765-1.472,1.062a3.8,3.8,0,0,0,1.82.06S90.186,110.707,88.9,109.825Z"/><path class="cls-6" d="M89.406,108.605a6,6,0,0,0-1.269-1.229.766.766,0,0,0-1.105.167,2.131,2.131,0,0,0-.4,1.195s-.1-.165.78-.316,1.717.754,1.855.836S89.992,109.529,89.406,108.605Z"/><path class="cls-6" d="M95.551,105.663a7.145,7.145,0,0,1-.629,2.207,10.346,10.346,0,0,1-2.1,2.616c-.814.538-1.209,1.918-2.133,2.547s-2.629,2.027-4.17,2.289a8.675,8.675,0,0,1-4.032-.6s-.481.425.763,1.056a5.755,5.755,0,0,0,4.622.207c1.422-.664,3.667-2.1,4.15-2.945a9.326,9.326,0,0,1,1.339-2.224,12.976,12.976,0,0,0,2.563-3.252C96.482,106.08,95.551,105.663,95.551,105.663Z"/><path class="cls-7" d="M92.287,102.7a2.1,2.1,0,0,0-.831,1.4c-.1.905.314,2.626.494,2.358s.075-.934.363-1.613a5.53,5.53,0,0,1,.791-1.266l-.817-.881"/><path class="cls-7" d="M86.522,115.322s-1.571-.231-1.966-.764-.945-2.125-1.886-1.6c-1.066.6-.18,1.761-.18,1.761s1.219.363,2.059.542A5.831,5.831,0,0,0,86.522,115.322Z"/><path class="cls-8" d="M69.654,83.114s-11,8.22-11.093,9.963-1.6,3.642-3.287,6.677a7.713,7.713,0,0,1-4.023,3.724s-1.6,2.7-3.248,1.26-1.23-3.1.356-5.171S52.19,95.277,53.2,93.1s.919-4.041,2.648-6.53,3.943-5.2,3.943-5.2"/><path class="cls-8" d="M78.385,81.678s1.955,10.371,3.492,11.2,3.218.77,5.239,3.593a22.788,22.788,0,0,1,2.767,4.892s1.761,2.605-.248,3.477-3.329-.214-4.522-2.535S80.642,98.417,79.1,96.57s-4-2.087-5.515-4.715-9.207-8.33-9.207-8.33"/><path class="cls-9" d="M59.9,33.2c2.517-1.291,5-3.259,7.807-3.595,6.882-.821,10.021,2.233,12.623,3.792a12.04,12.04,0,0,1,3.585,2.886,7.316,7.316,0,0,1,.929,6.675,9.328,9.328,0,0,1-4.565,5.1"/><path class="cls-10" d="M47.686,70.135s-.551-.571-.857-.589a2.045,2.045,0,0,1-1.892-.216,9.946,9.946,0,0,0-1.377-.939,8.917,8.917,0,0,0-.989-.48c-.069.042-1.544.046-1.544.046s-1.346.026-1.372-.407S41.1,66.7,41.346,66.7a14.834,14.834,0,0,0,1.559-.44s-1.992.206-2.375.187-1.6-.384-1.549-.861,1.033-.372,1.422-.388,2.118-.185,2.118-.185a7.545,7.545,0,0,1-.873-.455c-.149-.124-.356-.108-.834-.247s-2.2-.593-2.13-1.164,1.165-.283,1.622-.137,1.471.026,1.763.14.866.323.866.323a5.752,5.752,0,0,0-.508-.684A9.823,9.823,0,0,1,41.1,60.994c-.071-.321-.05-1.05.34-1.066s.711.647.867.847,1.168,1.122,1.518,1.442S45.8,63.379,46.383,63.9s1.242.794,1.557,1.3.372.57.723.692.909.39.909.39a16.785,16.785,0,0,1-.79,2.635A5.748,5.748,0,0,1,47.686,70.135Z"/><path class="cls-10" d="M46.583,68.468a16.708,16.708,0,0,1-2.33-1.088,3.805,3.805,0,0,0-1.509-.528c-.431-.089-1.712-.159-1.736-.938s1.266-.752,1.7-.7a9.374,9.374,0,0,0,1.637.127,5.917,5.917,0,0,1,1.4-.132,4.278,4.278,0,0,1,2.043.54,3.614,3.614,0,0,1,1.213,1"/><path class="cls-11" d="M63,60.334s-.623-.839-3.672,2.937c-2.571,3.183-6.487,4.162-8.812,2.939s-.858.733-2.326,1.468-3.672,3.183-1.836,4.284,1.958.367,2.569.611a13.509,13.509,0,0,0,9.3-1.958,22.282,22.282,0,0,0,5.507-5.384"/><path class="cls-12" d="M87.9,74.358l1.621,1.778a3.673,3.673,0,0,0,.165,2.408c.558,1.085.361,1.929.058,2.21s-1.3,1.657-.164,1.951,2.053-1.926,2.184-2.367.43-1.254,1.058-1.074,4.966,1.726,5.7,1.226.714-1.276-.053-1.382a21.924,21.924,0,0,1-3.42-1.441s4.306-.25,5.16-.492c1.094-.312.006-1.283.006-1.283l-4.643-.4s4.648-.137,4.808-.678c.257-.887-.749-1.109-1.224-1a26.521,26.521,0,0,1-2.867.1s2.942-1.59,1.857-2.072c-.7-.311-2.4.73-2.4.73l-1.84.941a3.9,3.9,0,0,0-1.889-.031,3.834,3.834,0,0,1-1.358.324l-.623-1.048Z"/><path class="cls-13" d="M69.452,54.966s-.2,2.588-.3,4.243-1.984,5.694-3.974,4.866-1.589-4.14-1.589-4.14l.1-5.9"/><path class="cls-11" d="M69.949,57.967a5.938,5.938,0,0,1,5.366,5.384c.539,4.157,2.682,5.488,3.179,10.665A24.249,24.249,0,0,0,82.87,85.442s-5.607.2-7.4.822-9.4-1.255-10.82-1.644S57.4,82.566,57.4,82.566s3.561-5.673,3.561-8.08S62.618,69.8,62.32,68.4s-.288-8.143-.288-8.143L63.6,59s-.168,3.763,2.53,3.161c3.012-.667,2.978-2.943,2.978-2.943l.154-1.43Z"/><path class="cls-13" d="M63.162,31.922S59.55,36.4,59.049,37.847s-.984,5.257-1.364,6.22-1.493,5-.151,8c.7,1.571,3.479,4.117,5.776,5.243a7.722,7.722,0,0,0,6.7-.509c3.095-2.07,6.667-8.6,6.969-11.152s-.242-9.8-3.125-11.715S65.066,30.84,63.162,31.922Z"/><path class="cls-3" d="M62.6,48.881c.523-.961,1.143-.813,1.708.248"/><path class="cls-14" d="M69.837,47.9s1.138-2.4-.664-2.845c-1.1-.273-2.941,1.218-1.888,2.717S69.837,47.9,69.837,47.9Z"/><path class="cls-14" d="M61.018,45.787s1.128-2.385-.658-2.825c-1.093-.274-2.916,1.206-1.873,2.692S61.018,45.787,61.018,45.787Z"/><path class="cls-3" d="M71.291,43.805a2.084,2.084,0,0,0-2.383-1.1"/><path class="cls-3" d="M62.153,41.616c-.167-.779-.994-1-1.847-.743"/><path class="cls-15" d="M67.179,46.564c-.093.568.156,1.085.552,1.16s.787-.327.874-.895-.156-1.087-.551-1.161S67.266,46,67.179,46.564Z"/><path class="cls-15" d="M58.227,44.388a.923.923,0,0,0,.571,1.136c.405.069.814-.323.9-.88a.918.918,0,0,0-.563-1.133C58.725,43.441,58.32,43.836,58.227,44.388Z"/><path class="cls-11" d="M72.792,59.6a3.976,3.976,0,0,1,4.529,1.225c1.712,2.325,4.283,9.3,6,10.037s7.832,2.2,7.832,2.2a5.024,5.024,0,0,1-2.937,3.428c-2.448.979-4.895,1.59-5.141.611s-3.85-3.235-4.651-4.161A22.947,22.947,0,0,1,72.792,59.6Z"/><path class="cls-9" d="M57.671,43.057s-.8-.507-.959-3.492,3.7-7.6,3.7-7.6-.6-.032,3.276-.211,7.848-1.31,12.006,3.307,4.237,8.3,4.2,9.795,1.973,6.113,1.973,6.113l-8.1,1.333s4.271-7.041-2.619-11.053S65.272,38.88,60.752,39.7C58.264,40.154,57.671,43.057,57.671,43.057Z"/><path class="cls-16" d="M61.108,50.388a9.208,9.208,0,0,0,1.032.933,4.65,4.65,0,0,0,6.164-.578"/><path class="cls-9" d="M74.915,30.327a6.8,6.8,0,0,1,1.463,3.94,34.779,34.779,0,0,0,.428,4.25,14.356,14.356,0,0,0,1.666,3.869,16.069,16.069,0,0,1,2.056,4.4,8.809,8.809,0,0,1-.647,5.27A20.146,20.146,0,0,1,77,56.6,23.692,23.692,0,0,0,82.515,55a7.963,7.963,0,0,0,4.048-3.909,10.93,10.93,0,0,0,.657-3.609c.18-3.079.121-6.318-1.349-9.03a36.426,36.426,0,0,0-3.554-4.636A7.061,7.061,0,0,0,81.1,32.461a5.98,5.98,0,0,0-1.712-.808l-2.883-1Z"/><path class="cls-17" d="M76.517,55.092s-2.653,2.1-2.139,3.106,1.39.157,1.233,1.547,2.036,1.5,2.036,1.5,1.408.5,1.837-.1,1.68-.894,1.62-2.042.628-1.185-.1-1.952-.55-1.7-1.6-1.988S76.667,53.587,76.517,55.092Z"/></svg>