<svg id="word" xmlns="http://www.w3.org/2000/svg" viewBox="0 0 160 160"><defs><style>.cls-1{fill:#f59120;}.cls-1,.cls-12,.cls-13,.cls-14,.cls-15,.cls-17,.cls-18,.cls-2,.cls-3,.cls-4{stroke:#9c4c9c;stroke-miterlimit:10;stroke-width:0.566px;}.cls-2{fill:#1b75ba;}.cls-3{fill:#727f35;}.cls-4{fill:#fff;}.cls-5{fill:#f9ae42;}.cls-6{fill:#f7ea2f;}.cls-7{fill:#26a7df;}.cls-11,.cls-8{fill:#9c4c9c;}.cls-10,.cls-9{fill:#e80a89;}.cls-10,.cls-11{opacity:0.109;}.cls-12{fill:#c1976b;}.cls-13{fill:#c2d954;}.cls-14{fill:#fde0ce;}.cls-15{fill:#603917;}.cls-16{fill:#b7d234;opacity:0.44;}.cls-17{fill:#754d29;}.cls-18{fill:#231f20;}</style></defs><path class="cls-1" d="M113.8,68.217s3.163,3.632,4.552,3.42,9.213-6.164,9.213-6.164l6.213,3.087s7.239,5.982,8.387,8.829,0,24.84,0,24.84l.511,32.375-46.445-1.773s7.626-50.528,8.407-51.447S113.8,68.217,113.8,68.217Z"/><path class="cls-2" d="M113.074,70.054,106.83,88.043s-7.546,21.241-8.958,25.55-4.107,19.238-4.107,19.238L128.5,134.6s-4.094-15.936-4.094-16.778-.286-21.049-.143-21.4,2.976-8.6,5.732-11.286,8.815-11.993,8.815-11.993l-3.966-3.68s-7.693,10.005-9.377,12.607-5.578,9.111-6.037,9.034-7.277-2.6-7.277-2.6.961-1.033.961-5.474.115-7.387.115-7.387l.573-7.426Z"/><polygon class="cls-3" points="87.709 55.576 80.613 19.392 15.831 20.756 39.868 123.182 97.929 112.441 87.709 55.576"/><polygon class="cls-4" points="76.542 24.403 95.064 109.639 42.517 119.071 20.941 26.066 76.542 24.403"/><path class="cls-4" d="M113.13,118.565c-.858-1.864-3.312-5.783-6.3-6.766-1.57-.517-7.077.136-8.651.638-3.372,1.076-7.924,4.823-11.828,5.9-1.485.41-4.808,1.327-6.051.416a2.511,2.511,0,0,1-1.012-2.865,3.746,3.746,0,0,1,2.869-2.089c3.045-.393,3.449-3.725,2.11-4.809-3.543-2.87-13.237-1.745-17.454-1.492,0,0-27.959,1.9-32.354,12.9s14.877,26.827,52.9,21.645c8.731-1.19,18.541-6.357,23.8-13.542C113.257,125.644,114.714,122.008,113.13,118.565Zm-38.723-1.994c-1.378,1.723-9.417,1.264-9.417-2.3s8.383-.868,8.383-.868S75.785,114.849,74.407,116.571Z"/><path class="cls-5" d="M51.136,113.785s-14.467,4.311-11.6,4.509,5.2.794,3.736,2.382-3.807,3.176,2.126,2.382,3.945,0,9.9-1.191,10.124-2.314,6.552-3.34-6.979,1.355-5.574-1.027,5.729-2.865,2.079-3.715A17.7,17.7,0,0,0,51.136,113.785Z"/><path class="cls-6" d="M43.351,127.058s-4.017,2.779-2.28,3.573,1.307,1.985,4.3,2.58,2.591,1.389,7.953,1.389,8.395.2,8.367-2.381,0-4.168-2.494-3.374,3.259-.2-1.6-1.787S43.351,127.058,43.351,127.058Z"/><path class="cls-7" d="M64.394,133.534s-1.239,3.771,4.526,3.771,8.249.794,10.778,0,5.9-2.183,2.53-3.771a26.194,26.194,0,0,0-8.534-1.984C73.1,131.55,61.841,131.748,64.394,133.534Z"/><path class="cls-8" d="M89.905,127.271c1.786.9,11.06.9,11.06.9s3.907,4.763-2.783,5.557-3.514,4.366-8.277.794-1.787-4.367-.993-5.161A4.281,4.281,0,0,0,89.905,127.271Z"/><path class="cls-9" d="M104.46,119.486s-9.026,1.191-2.832,3.97c3.482,1.562,2.88,1.1,4.543,1.147s5.435-1.346,2.656-3.132A12.058,12.058,0,0,0,104.46,119.486Z"/><path class="cls-10" d="M59.553,50.258a23.357,23.357,0,0,1,3.317,6.83,34.993,34.993,0,0,1,1.984,7.184C65.9,69.2,66.393,74.354,68,79.188a52.824,52.824,0,0,0,9.616,17.836l3.9,4.208a35.315,35.315,0,0,1,6.626,8.386c.685,1.027,1.642-.562,1.8-.9.437-.917,1.378-2.787.763-3.774a19.044,19.044,0,0,0-4.3-5.89q-2.846-3.066-5.72-6.111a52.676,52.676,0,0,1-9.051-17.258c-1.487-5.105-2.2-10.34-3.426-15.489l-1.3-5.112a31.966,31.966,0,0,0-3.935-9.11C62.134,44.382,58.933,49.138,59.553,50.258Z"/><path class="cls-10" d="M55.119,49.4a23,23,0,0,1,3.351,6.886,37.949,37.949,0,0,1,2.018,7.188c1.083,4.931,1.642,10.027,3.267,14.862a54.066,54.066,0,0,0,9.623,17.89l3.82,4.2a38.286,38.286,0,0,1,6.577,8.444c1.061,1.59,1.811-2.53,1.771-2.334q.436-2.377.66-4.777a4.35,4.35,0,0,0-.146-2.531,19.907,19.907,0,0,0-3.9-6.1q-2.521-3.086-5.04-6.173-2.365-4.073-4.489-8.241a45.727,45.727,0,0,1-3.975-9.186c-1.7-5.044-2.835-10.2-4.4-15.274a76.369,76.369,0,0,0-5.769-14.146c-.888-1.644-2.079,2.3-2.028,2.143q-.7,2.3-1.2,4.646A4.263,4.263,0,0,0,55.119,49.4Z"/><path class="cls-10" d="M51.411,46.808l2.472,4.437a138.673,138.673,0,0,1,4.249,16.649,56.1,56.1,0,0,0,4.132,13.581,67.2,67.2,0,0,0,7.206,11.8q2.928,3.2,5.81,6.43a28.657,28.657,0,0,1,4.763,6.378c.37.55,1.245.336,1.61-.059.455-.492.2-2.155-.13-2.663a28.968,28.968,0,0,0-4.585-6.272q-2.853-3.287-5.72-6.567a58.219,58.219,0,0,1-9.179-17.809c-1.45-4.836-2.221-9.789-3.491-14.656L57.22,53.3a31.525,31.525,0,0,0-4.086-8.819c-.294-.526-1.232-.389-1.609-.058C51.047,44.844,51.14,46.322,51.411,46.808Z"/><path class="cls-10" d="M57.519,46.1A50.408,50.408,0,0,1,62.9,60.185c1.106,4.94,1.69,10.05,3.324,14.895a54.653,54.653,0,0,0,9.537,17.859l3.8,4.2a37.941,37.941,0,0,1,6.539,8.413c.994,1.5,1.934-2.07,1.931-2.061q.6-2.194,1-4.425a3.855,3.855,0,0,0,.036-2.379,20.487,20.487,0,0,0-4.059-6.068q-2.591-3.06-5.18-6.122a66.748,66.748,0,0,1-8.589-17.4c-1.647-5.059-2.7-10.233-4.184-15.324a71.755,71.755,0,0,0-5.692-14.2c-.836-1.555-2.13,1.885-2.13,1.885q-.822,2.123-1.438,4.295A3.808,3.808,0,0,0,57.519,46.1Z"/><path class="cls-10" d="M53.52,45.754l2.532,4.325a144.639,144.639,0,0,1,4.165,16.642A53.8,53.8,0,0,0,64.375,80.3a62.685,62.685,0,0,0,7.494,11.785q2.921,3.137,5.808,6.3a28.435,28.435,0,0,1,4.874,6.412c.876,1.278,2.646-.454,1.948-1.479a38.65,38.65,0,0,0-6.715-8.452,56.891,56.891,0,0,1-8.006-9.9,59.378,59.378,0,0,1-6.967-17.145c-.77-3.3-1.286-6.622-1.974-9.932q-.569-2.428-1.166-4.85a30.557,30.557,0,0,0-4.326-8.631C54.659,43.271,52.894,44.684,53.52,45.754Z"/><path class="cls-10" d="M51.525,49.7a22.722,22.722,0,0,1,3.33,6.808,38.832,38.832,0,0,1,2.026,7.121c1.1,4.9,1.648,9.961,3.251,14.767A56.218,56.218,0,0,0,65.95,91.146c4.116,6.375,9.931,11.613,14.148,17.949.512.769,1.2.708,1.608-.083a7.108,7.108,0,0,0-.322-4.681c-3.528-5.746-1.978-3.028-6.408-8.816-5.7-7.45-10.289-15.223-12.8-23.974-1.178-4.1-1.974-8.269-3.149-12.367L57.55,54.349a32.385,32.385,0,0,0-4.142-8.909.866.866,0,0,0-1.608-.076A6.355,6.355,0,0,0,51.525,49.7Z"/><path class="cls-10" d="M57.632,51.859l2.488,4.518A148.545,148.545,0,0,1,64.312,73.3a54.8,54.8,0,0,0,4.124,13.642A64.778,64.778,0,0,0,75.67,98.629q2.922,3.136,5.789,6.311a26.716,26.716,0,0,1,4.727,6.317c.737,1.1,1.651-.868,1.74-1.109.393-1.073,1.148-2.99.487-4.078a19.093,19.093,0,0,0-4.189-5.892q-2.79-3.095-5.607-6.168a55.679,55.679,0,0,1-8.863-17.249c-1.517-5.088-2.3-10.3-3.589-15.429L64.8,56.256a31.559,31.559,0,0,0-3.907-9.046c-.585-1.109-1.732.46-1.937.788C58.429,48.838,57.075,50.848,57.632,51.859Z"/><path class="cls-10" d="M58.671,45.867C62.156,52.225,63.392,57.6,64.71,64.3a94.826,94.826,0,0,0,2.371,10.409,51.716,51.716,0,0,0,9.527,17.829l3.911,4.227a34.432,34.432,0,0,1,6.595,8.371c.668,1.01,1.583-.687,1.681-.953.367-1,.913-2.573.3-3.563a20.027,20.027,0,0,0-4.319-6.011q-2.853-3.141-5.718-6.273c-4.938-6.328-8.4-14.711-10.127-22.006-1.192-5.043-1.916-10.177-3.514-15.146a56.657,56.657,0,0,0-4.12-9.508c-.546-1.037-1.646.446-1.8.74C59.019,43.285,58.141,44.9,58.671,45.867Z"/><path class="cls-10" d="M51.467,47.5a22.858,22.858,0,0,1,3.346,6.779,37.7,37.7,0,0,1,2.05,7.133c1.112,4.926,1.765,9.917,3.285,14.773a53.079,53.079,0,0,0,5.823,12.749l4,5.721a107.584,107.584,0,0,1,10.111,12.206c.525.79,1.168.778,1.609-.06a7.553,7.553,0,0,0-.245-4.916c-3.037-4.948-2.472-4.138-6.433-8.917a63.776,63.776,0,0,1-9.955-15.909c-2.78-6.647-4.09-13.583-6.06-20.406l-1.475-4.8a33.321,33.321,0,0,0-4.2-8.917c-.439-.777-1.093-.828-1.609-.064A6.929,6.929,0,0,0,51.467,47.5Z"/><path class="cls-10" d="M54.121,45.4c3.536,6.31,4.8,11.611,6.179,18.275A102.245,102.245,0,0,0,62.792,74.24,54.188,54.188,0,0,0,72.348,92.1l3.825,4.2a36.9,36.9,0,0,1,6.569,8.466c.894,1.354,1.574-1.8,1.559-1.71.243-1.515.718-3.814-.131-5.244a32.3,32.3,0,0,0-6-8.375l-3.543-4.25A122.16,122.16,0,0,1,68.334,73.72,57.854,57.854,0,0,1,65.2,65.044c-1.4-4.717-2.408-9.511-3.858-14.217a61.207,61.207,0,0,0-5.2-12.069c-.765-1.379-1.718,1.611-1.7,1.551C54.085,41.7,53.352,44.032,54.121,45.4Z"/><path class="cls-10" d="M59.861,47.705l2.455,4.508A150.84,150.84,0,0,1,66.53,69.184a55.046,55.046,0,0,0,4.134,13.66,64.544,64.544,0,0,0,7.161,11.631q2.928,3.137,5.813,6.3a25.253,25.253,0,0,1,4.688,6.273c.694,1.047,1.644-.651,1.779-.958.422-.964,1.283-2.822.657-3.835a26.585,26.585,0,0,0-6.19-7.986,35.709,35.709,0,0,1-7.214-9.254,63.269,63.269,0,0,1-6.879-17.25c-.8-3.421-1.389-6.878-2.181-10.3A60.367,60.367,0,0,0,63.105,43.2c-.562-1.1-1.719.415-1.929.743C60.649,44.767,59.319,46.71,59.861,47.705Z"/><path class="cls-10" d="M53.386,51.161c3.532,6.353,4.761,11.688,6.1,18.385A98.664,98.664,0,0,0,61.91,80.072,53.369,53.369,0,0,0,71.59,98l3.86,4.207a38.29,38.29,0,0,1,6.644,8.473c.882,1.313,1.527-1.727,1.516-1.652.213-1.5.558-3.6-.261-5a30.5,30.5,0,0,0-5.9-8.29L73.91,91.521A126.319,126.319,0,0,1,67.6,80.152a58.769,58.769,0,0,1-3.139-8.7c-1.426-4.781-2.416-9.645-3.867-14.42a60.81,60.81,0,0,0-5.173-12.152c-.736-1.333-1.708,1.463-1.7,1.447C53.356,47.66,52.655,49.846,53.386,51.161Z"/><path class="cls-11" d="M61.037,63.743a23.588,23.588,0,0,1,2.808,10.434c.539,3.487-3.242,3.292-5.811,2.762a54.284,54.284,0,0,1-8.027-2.619A5.028,5.028,0,0,1,46.4,71.551a18.871,18.871,0,0,0-3.65-8.095,2.36,2.36,0,0,1,.609-2.83,5.882,5.882,0,0,1,4.821-.676,59.418,59.418,0,0,1,8.671,1.529A5.519,5.519,0,0,1,61.037,63.743Z"/><path class="cls-11" d="M71.217,54.037c1.492,5.389,1.614,6.368,1.681,12.1a4.511,4.511,0,0,1-4.977.4,93.472,93.472,0,0,1-10.182-4.21q-6.283-2.764-12.315-5.961a19.144,19.144,0,0,1-7.786-5.4,16.979,16.979,0,0,0-2.507-6.949c-2.714-5.554,10.341-.937,10.7-.828q8.692,2.814,17.117,6.231A19.323,19.323,0,0,1,71.217,54.037Z"/><path class="cls-11" d="M74.812,37.794A30.158,30.158,0,0,1,76.6,48.031a2.478,2.478,0,0,1-.777,2.714,3.112,3.112,0,0,1-2.957.839,16.61,16.61,0,0,1-4.6-3.065,15.451,15.451,0,0,1-3.615-4.007,23.451,23.451,0,0,0-2.484-8.856,2.924,2.924,0,0,1,3.145-3.993A18.185,18.185,0,0,1,70.477,34.2,17.075,17.075,0,0,1,74.812,37.794Z"/><path class="cls-11" d="M56.814,49.452c1.582,5.209,1.681,6.37,1.968,11.906a4.2,4.2,0,0,1-4.691.6,80.421,80.421,0,0,1-9.519-3.719q-5.871-2.46-11.5-5.355A16.621,16.621,0,0,1,25.83,47.89,19.363,19.363,0,0,0,23.2,40.6c-2.539-5.332,9.437-1.315,10.036-1.14q8.088,2.526,15.914,5.658A16.771,16.771,0,0,1,56.814,49.452Z"/><path class="cls-11" d="M67.066,37.742a28.95,28.95,0,0,1,2.029,11,3.945,3.945,0,0,1-3.316,3.878c-1.693.086-5.222-2.283-5.478-3.838A30.675,30.675,0,0,0,57.542,38.1c-.576-1.6,1.014-3.95,2.891-4.147C62.232,33.766,66.587,36.108,67.066,37.742Z"/><path class="cls-11" d="M82.034,49.168a21.016,21.016,0,0,1,1.555,10.377A2.17,2.17,0,0,1,81.6,61.8a8.253,8.253,0,0,1-5.565-2.107,85.988,85.988,0,0,1-8.726-6.309,7.146,7.146,0,0,1-3.5-4.447,20.057,20.057,0,0,0-2.875-7.755,2.108,2.108,0,0,1,1.627-2.48,8.369,8.369,0,0,1,5.8,1.38,88.248,88.248,0,0,1,9.551,5.134A7.36,7.36,0,0,1,82.034,49.168Z"/><path class="cls-11" d="M71.1,64.924a31.684,31.684,0,0,1,1.365,10.229c.055,3.64-3.275,3.216-6.291,2.5a65.522,65.522,0,0,1-8.755-3.06A5.82,5.82,0,0,1,53.466,71.6l-.241-5.3.078,1.516-1.172-3.472c-1.2-3.54,3.032-3.636,5.641-3.426a64.072,64.072,0,0,1,8.989,1.667A5.854,5.854,0,0,1,71.1,64.924Z"/><path class="cls-11" d="M53.77,49.47a23.356,23.356,0,0,1,2.283,10.2,2.55,2.55,0,0,1-1.516,2.536,5.617,5.617,0,0,1-4.7-.6,53.1,53.1,0,0,1-7.531-3.686,4.846,4.846,0,0,1-3.123-3.231,23.069,23.069,0,0,0-3.571-8.34,2.4,2.4,0,0,1,1.125-2.7,6.009,6.009,0,0,1,4.922.08,59.272,59.272,0,0,1,8.354,2.852A5.38,5.38,0,0,1,53.77,49.47Z"/><path class="cls-11" d="M76.955,43.092A20.827,20.827,0,0,1,78.39,53.323a2.073,2.073,0,0,1-2.05,2.208,9.239,9.239,0,0,1-5.84-2.485,98.79,98.79,0,0,1-9.2-6.991,8.055,8.055,0,0,1-3.711-4.778,23.87,23.87,0,0,0-3.059-8.109,2,2,0,0,1,1.754-2.407,9.613,9.613,0,0,1,6.176,1.891A104.2,104.2,0,0,1,72.6,38.7,8.482,8.482,0,0,1,76.955,43.092Z"/><path class="cls-11" d="M64.233,40.517a21.458,21.458,0,0,1,1.729,10.21c.26,4.978-7.261.534-8.682-.249Q51.432,47.076,46,43.146a10.661,10.661,0,0,1-4.892-5.023,26.027,26.027,0,0,0-3.262-8.074q-.574-1.965,1.594-2.5a12.422,12.422,0,0,1,7.143,2.006q6.26,2.9,12.16,6.36A11.194,11.194,0,0,1,64.233,40.517Z"/><path class="cls-11" d="M56.059,57.518a23.017,23.017,0,0,1,1.107,9.908C57.2,70.986,53.815,70.555,51,69.8a58.658,58.658,0,0,1-8.2-3.19,5.313,5.313,0,0,1-3.607-3.032A16.039,16.039,0,0,0,37.394,55.9a2.336,2.336,0,0,1,.838-2.783,6.15,6.15,0,0,1,4.977-.324,62.128,62.128,0,0,1,8.744,2.158A5.65,5.65,0,0,1,56.059,57.518Z"/><path class="cls-11" d="M80.218,55.124a22.06,22.06,0,0,1,1.669,10.6c.192,4.634-6.241,1.492-8.23.584a118.228,118.228,0,0,1-10.988-6.075A9.505,9.505,0,0,1,57.825,55.8a18.065,18.065,0,0,0-2.577-7.645,1.881,1.881,0,0,1,1.3-2.631A10.614,10.614,0,0,1,63.257,46.6a119.153,119.153,0,0,1,11.609,4.708A9.64,9.64,0,0,1,80.218,55.124Z"/><path class="cls-12" d="M90.183,54.59s-1,11.8,0,16.006,3.828,27.478,4.976,29.009,3.13,2.067,2.713-.612S95.848,69.9,95.159,66.226,92.633,53.9,92.633,53.9Z"/><path class="cls-13" d="M91.944,55.585s-4.715,1.212-6.777-2.233-1.185-8.026,1.571-9.863,3.326-5.283,3-5.895S93.322,40.5,94.317,44.1s1,7.2,0,8.728A15.554,15.554,0,0,1,91.944,55.585Z"/><path class="cls-14" d="M107.868,90.724s-4.134-10.488-4.364-12.478-.23-2.91-1-4.058-6.431-5.971-6.431-5.971l.765,4.134s-7.2-2.3-7.961-1.761-1.608.459-1.532,2.3a2.946,2.946,0,0,0,1.072,2.449,4.483,4.483,0,0,0-1.076,2.527,3.792,3.792,0,0,0,.923,2.3,11.557,11.557,0,0,0-.923,2.909,2.626,2.626,0,0,0,.617,1.531s-1.072.23-.153,2.526,7.12,3.216,9.11,3.292,3.751.306,3.751.306l2.986,7.12s4.364-2.143,4.67-3.981A5.014,5.014,0,0,0,107.868,90.724Z"/><path class="cls-1" d="M102.049,98.38s4.554-4.255,5.283-5.742-1.31-5.129,1.067-3.828,2.3,2.986,6.665,7.656,6.2,8.651,7.273,6.584,1.761-2.144,1.761-3.368-1.378.437.306-3.61,4.823-9.941,7.579-10.553,7.043-.766,8.268,1.76-.918,21.393-2.526,26.314-4.823,8.979-5.206,10.816-4.44,2.986-7.579,0-6.431-4.21-10.412-8.8-11.1-12.631-11.1-12.631S99.676,101.672,102.049,98.38Z"/><path class="cls-15" d="M132.825,116.524s-2.3,5.589-3.6,5.436-5.9-4.211-7.043-3.063-3.062,1.531,0,4.823,7.732,7.35,9.646,4.288,5.818-11.1,4.287-12.326S132.825,116.524,132.825,116.524Z"/><path class="cls-16" d="M42.517,25.42,76.542,24.4s2.015,20.258,1.976,22.863S69.2,51.933,72.3,61.462s7.617,9.991,6.216,17.742-3.706,5-5.178,8.94-2.789,7.009-2.679,8.708c.459,7.082-7.339,8.467-6.643.347s9.149-9.61,3.585-17.047S50.871,59.789,53.066,53.343s8.153-4.977,1.929-10.2C42.517,32.672,42.517,25.42,42.517,25.42Z"/><path class="cls-14" d="M112.163,55.855a27.889,27.889,0,0,0,.8,7.539c.719,2.553.8,6.378,3.56,7.885s9.737-1.974,9.737-5.967v-8.6Z"/><path class="cls-14" d="M108.332,33.983s-1.136,8.9-2.222,9.8-6.718,4.612-4.818,6.229a11.924,11.924,0,0,0,4.072,2.215s-1.833,2.548-1.018,3.4a7.118,7.118,0,0,0,2.35,1.391s-2.011.659-1.943,1.258a7.346,7.346,0,0,0,1.221,2.036,4.207,4.207,0,0,1,1.218,2.874c.14,1.977-.132,3.833,2.65,3.893s9.065-4.408,13.233-5.15c5.342-.952,6.95-6.407,6.95-6.407s1.033-8.541.459-10.852S123.25,34.9,123.25,34.9"/><path class="cls-4" d="M109.212,41.429s.589-1.848,1.712-1.172,1.787,2.055.595,4.112-2.942.739-3.065.1A11.809,11.809,0,0,1,109.212,41.429Z"/><path class="cls-8" d="M108.864,42.711s.346-1.095,1-.7,1.043,1.214.342,2.433-1.722.441-1.793.065A7.078,7.078,0,0,1,108.864,42.711Z"/><path class="cls-17" d="M138.808,48.188s-2.3,5.123-3.436,8.032-4.173,4.331-4.714,6.5c-1.169,4.681,2.659,4.834,2.659,4.834s-3.277,1.2-4.211,1.662a3.974,3.974,0,0,1-2.413,0s-1.228-.575-1.228-3.652c0-5.053,1.58-8,.8-10.106s.318-7.118.316-7.847-2.909.979-3.216,1.581-.459,3.995-.765,4.825-2.337-1.978-2.3-4.071.46-4.7-1.579-6.906l-5.478-5.92s-.749-.729-3.737,0-5.438,2.264-8.606-.324a8.248,8.248,0,0,1-2.956-7.52c.306-3.134,1.526-3.675,1.526-3.675s.541,5.436,4,6.814a5.781,5.781,0,0,0,3.123.23s-5.52-9.52-3.134-8.269c1.99,1.044,4.746,6.009,5.512,6.067s3.508,2.2,3.508,2.2l-2.074-5.9s2.535,5.375,4.978,7.5,4.153,2.385,7.215,5.139S138.808,48.188,138.808,48.188Z"/><path class="cls-18" d="M133.9,25.075a9.653,9.653,0,0,1,.927-5.923.983.983,0,0,1,.319-.41c.394-.246.88.108,1.206.439.37.375.77.9.545,1.375a1.7,1.7,0,0,1-.5.511,4.093,4.093,0,0,0-1.219,2.16c-.208.814-.272,1.657-.417,2.485a.577.577,0,0,1-.181.388c-.118.085-.336.019-.328-.127"/><path class="cls-18" d="M106.594,31.416s0-13.628,15.005-12.032c12.986,1.38,18.577,12.251,20.105,17.1s2.709,10.72-1.028,13.8-6.54,3.481-10.354-1.777S106.594,31.416,106.594,31.416Z"/><path class="cls-14" d="M123.364,47.607s2.552-1.379,3.216,0,1.837,4.249,0,5.742a2.272,2.272,0,0,1-3.216,0"/><path class="cls-17" d="M115.192,36.192a6.113,6.113,0,0,1-2.416-2.355,5.561,5.561,0,0,1-.379-1.877q-.1-1.381-.088-2.769a4.211,4.211,0,0,1,.91-3.058c-.962.108-2.007-.218-2.866.227a2.737,2.737,0,0,0-1.227,1.77,5.919,5.919,0,0,0,1.426,5.577,3.962,3.962,0,0,1-2.621-2.349,10.326,10.326,0,0,1-.7-3.564c-.151-2.328-.126-4.8,1.072-6.8a5.763,5.763,0,0,0-4.274,3.4,7.425,7.425,0,0,0-.034,5.56,10.506,10.506,0,0,0,3.432,4.466"/></svg>