<svg id="word" xmlns="http://www.w3.org/2000/svg" xmlns:xlink="http://www.w3.org/1999/xlink" viewBox="0 0 160 160"><defs><style>.cls-1{fill:#ffcf6b;}.cls-1,.cls-4,.cls-5{stroke:#9d4b9c;stroke-miterlimit:10;stroke-width:1.07px;}.cls-2{fill:#9d509e;}.cls-3{fill:#9d4b9c;}.cls-4{fill:url(#radial-gradient);}.cls-5{fill:url(#radial-gradient-2);}</style><radialGradient id="radial-gradient" cx="61.796" cy="74.763" r="28.771" gradientUnits="userSpaceOnUse"><stop offset="0" stop-color="#fdc60b"/><stop offset="0.566" stop-color="#ef9740"/><stop offset="1" stop-color="#9a6d4a"/></radialGradient><radialGradient id="radial-gradient-2" cx="44.102" cy="83.568" r="17.417" xlink:href="#radial-gradient"/></defs><path class="cls-1" d="M33.552,91.241a55.421,55.421,0,0,0-8.7,2.821c-3.333,1.563-7,1.464-5.573,5.615s8.385,8.036,15.5,9.6,8.507,2.648,19.54,4.218,16.048-.062,20.372-1.265,11.236-3.135,15.086-4.983a18.15,18.15,0,0,1,9.09-1.671c1.042.186,8.4,1.027,10.737-.282a13.29,13.29,0,0,0,6.064-6.75c1.483-3.523,3.36-2.814-.764-7.274a30.2,30.2,0,0,0-8.371-6.445s2.036-5.926,3.671-7.034,2.542-4.876,2.542-4.876,4.741-1.794,4.71-3.862.632-3.746-3.766-4.246-3.856,4.753-3.379,5.812-.229,3.319-.512,4.08-5.846,8.561-5.846,8.561a6.328,6.328,0,0,0-3.424,2.27c-1.579,1.94-1.24,3.278-1.24,3.278s-7.577-.147-9.175.83-4.6,6.019-16,6.095S33.552,91.241,33.552,91.241Z"/><path class="cls-2" d="M61.572,106.458c.291.015.467.036.543.26a.811.811,0,0,0,.171.239.378.378,0,0,1-.153.636,1.012,1.012,0,0,1-.79-.011.652.652,0,0,1-.232-.972A1.118,1.118,0,0,1,61.572,106.458Z"/><path class="cls-2" d="M54.09,110.729a.73.73,0,0,1,.723.643.589.589,0,0,1-.388.513,1.642,1.642,0,0,1-.335.066c-.4.046-.569-.09-.584-.471A.65.65,0,0,1,54.09,110.729Z"/><path class="cls-2" d="M31.93,104.821c.257-.381.43-.738.856-.858a.513.513,0,0,1,.622.47,1.613,1.613,0,0,1-.135.437,2.873,2.873,0,0,1-.175.317,1.519,1.519,0,0,0-.426-.055C32.373,105.172,32.226,104.931,31.93,104.821Z"/><path class="cls-2" d="M65.014,109.509a.646.646,0,0,1,.621.595.777.777,0,0,1-.751.628.842.842,0,0,1-.567-.625A.864.864,0,0,1,65.014,109.509Z"/><path class="cls-2" d="M68.387,107.4a4.128,4.128,0,0,1-.587-.031.654.654,0,0,1-.5-.863.423.423,0,0,1,.411-.312c.495-.048.774.228.716.713C68.406,107.041,68.4,107.182,68.387,107.4Z"/><path class="cls-2" d="M36.466,105.712c.124.068.339.115.418.245a.524.524,0,0,1-.1.631c-.379.442-.653.438-.992-.039-.3-.425-.241-.587.281-.743C36.186,105.773,36.3,105.752,36.466,105.712Z"/><path class="cls-2" d="M84.069,106.764c.016.247-.272.511-.588.539-.222.021-.653-.3-.667-.488a.671.671,0,0,1,.572-.68C83.872,106.1,84.035,106.254,84.069,106.764Z"/><path class="cls-2" d="M66.735,110.5l.224.709a1.106,1.106,0,0,1-.758.355c-.219.019-.439.007-.5-.207a1,1,0,0,1,.047-.6.451.451,0,0,1,.517-.285C66.4,110.494,66.547,110.489,66.735,110.5Z"/><path class="cls-2" d="M31.814,101.254a1.573,1.573,0,0,1,.257,0,.459.459,0,0,1,.351.733,1.6,1.6,0,0,1-.166.25.45.45,0,0,1-.166.128,1.127,1.127,0,0,1-.729-.294.606.606,0,0,1-.025-.643C31.447,101.2,31.631,101.245,31.814,101.254Z"/><path class="cls-2" d="M71.253,107.89c.4.02.611.18.579.456-.053.456-.3.643-.786.661a.405.405,0,0,1-.456-.435C70.654,108.1,70.718,107.871,71.253,107.89Z"/><path class="cls-2" d="M28.376,100.5c.077,0,.365.3.344.464-.04.32-.277.469-.54.605a.461.461,0,0,1-.583-.062.767.767,0,0,1-.126-.707.4.4,0,0,1,.451-.237A1.884,1.884,0,0,0,28.376,100.5Z"/><path class="cls-2" d="M50.063,105.855c-.2.725-.6.834-1.283.37-.033-.312-.066-.632.3-.8C49.539,105.22,49.766,105.593,50.063,105.855Z"/><path class="cls-2" d="M44.206,104.555a2.174,2.174,0,0,1-.291.319.607.607,0,0,1-.712.083c-.217-.122-.381-.329-.323-.5.076-.221.158-.457.429-.536.381-.112.514-.066.722.268q.089.142.174.288C44.211,104.489,44.206,104.506,44.206,104.555Z"/><path class="cls-2" d="M41.194,107.422c-.354-.159-.818-.063-.984-.567.142-.269.236-.608.684-.6a.549.549,0,0,1,.56.37C41.584,106.939,41.544,107.081,41.194,107.422Z"/><path class="cls-2" d="M92.866,103.144l.208.7c-.225.11-.408.217-.6.292a.426.426,0,0,1-.581-.278c-.066-.213-.155-.437.045-.64a.462.462,0,0,1,.531-.172A3.956,3.956,0,0,0,92.866,103.144Z"/><path class="cls-2" d="M57.57,108.112c.007.348-.227.509-.757.52-.276,0-.429-.234-.421-.657a.634.634,0,0,1,.572-.48A.581.581,0,0,1,57.57,108.112Z"/><path class="cls-2" d="M47.185,106.86a.751.751,0,0,1-.314.663c-.249.155-.462-.1-.676.025-.279-.566-.281-.76,0-.969a.5.5,0,0,1,.552-.117A2.766,2.766,0,0,1,47.185,106.86Z"/><path class="cls-2" d="M87.946,106c.061.081.125.157.179.239a.416.416,0,0,1,.052.513c-.134.2-.26.356-.548.314-.361-.053-.49-.118-.574-.4-.122-.416.066-.664.5-.663Z"/><path class="cls-2" d="M76.015,107.548a5.924,5.924,0,0,1,.088.587c.015.289-.1.443-.386.438a4.445,4.445,0,0,1-.769-.139C74.982,107.656,75.115,107.542,76.015,107.548Z"/><path class="cls-2" d="M78.985,107.274a.852.852,0,0,1,.768-.252c.284.058.526.286.5.491a.578.578,0,0,1-.568.484C79.192,108.022,78.975,107.8,78.985,107.274Z"/><path class="cls-2" d="M28.3,95.059a1.918,1.918,0,0,1-.989-.236.294.294,0,0,1-.14-.365.7.7,0,0,1,.682-.473c.436.086.591.3.516.708C28.351,94.8,28.33,94.912,28.3,95.059Z"/><path class="cls-2" d="M23.773,98.39a3.049,3.049,0,0,1,.627.3.279.279,0,0,1-.049.494,2.6,2.6,0,0,1-.768.217c-.2.025-.393-.261-.4-.526a.381.381,0,0,1,.316-.4,2.353,2.353,0,0,1,.252-.037Z"/><path class="cls-2" d="M54.162,108.345a6.821,6.821,0,0,1-.545.423.428.428,0,0,1-.28.01.693.693,0,0,1-.467-.583.705.705,0,0,1,.532-.482C53.745,107.671,53.949,107.833,54.162,108.345Z"/><path class="cls-2" d="M25.581,96.914a.424.424,0,0,1,.493.458.53.53,0,0,1-.553.576c-.286,0-.642-.27-.642-.495C24.879,97.07,25.071,96.922,25.581,96.914Z"/><path class="cls-2" d="M41.5,102.772a.6.6,0,0,1,.08-.208.749.749,0,0,1,.92-.063.485.485,0,0,1,.114.641.417.417,0,0,1-.595.221C41.605,103.228,41.506,103.128,41.5,102.772Z"/><path class="cls-2" d="M77.657,104.485c.45,0,.547.059.624.326a.5.5,0,0,1-.576.665.781.781,0,0,1-.566-.418c-.109-.188.08-.505.318-.559A.976.976,0,0,1,77.657,104.485Z"/><path class="cls-2" d="M57.449,110.621c.416.013.623.176.627.493a.669.669,0,0,1-.662.55.562.562,0,0,1-.531-.552C56.9,110.774,57.09,110.611,57.449,110.621Z"/><path class="cls-2" d="M88.887,102.534c-.188.107-.341.21-.507.283-.216.1-.426,0-.636-.219-.142-.148-.09-.276-.018-.424.147-.3.25-.369.508-.363a.5.5,0,0,1,.514.36C88.785,102.277,88.828,102.38,88.887,102.534Z"/><path class="cls-2" d="M37.162,102.636a4.033,4.033,0,0,1-.1.6c-.087.258-.313.336-.567.377a.339.339,0,0,1-.382-.268.54.54,0,0,1,.046-.465,1.475,1.475,0,0,1,.585-.3A1.165,1.165,0,0,1,37.162,102.636Z"/><path class="cls-2" d="M29.9,97.344c-.378.01-.611-.153-.616-.43-.007-.338.154-.526.46-.537.357-.014.753.283.741.557C30.475,97.063,30.081,97.339,29.9,97.344Z"/><path class="cls-2" d="M43.821,109.548c-.384-.012-.662-.185-.66-.409,0-.361.224-.627.509-.617a.668.668,0,0,1,.594.563A.431.431,0,0,1,43.821,109.548Z"/><path class="cls-2" d="M33.178,98.906c.255-.505.556-.632.952-.434.154.077.3.188.251.349a.832.832,0,0,1-.319.454C33.749,99.454,33.56,99.354,33.178,98.906Z"/><path class="cls-2" d="M48.7,108.6c.48-.16.607-.137.87.236a.547.547,0,0,1,.069.4c-.039.16-.2.164-.356.153C48.7,109.345,48.582,109.185,48.7,108.6Z"/><path class="cls-2" d="M22.784,96.281c.172.042.27.061.365.089.288.087.412.223.358.387a.494.494,0,0,1-.647.321.974.974,0,0,1-.3-.225c-.1-.107-.169-.251-.046-.38A1.349,1.349,0,0,1,22.784,96.281Z"/><path class="cls-1" d="M108.816,90.194a40.545,40.545,0,0,1,7.572-1.849c2.963-.248,9.11-2.27,9.11-2.27s2.7-6.356,5.979-5.286,4.85,5.414,2.139,6.115a13.12,13.12,0,0,1-5.146.241s-6.395,2.571-8.692,3.382-4.082.022-5.592.87a20.835,20.835,0,0,0-3.505,2.887"/><path class="cls-3" d="M115.552,94.2s2.239-1.945,2.919.223c.879,2.8-1.486,2.8-1.486,2.8S113.61,94.81,115.552,94.2Z"/><path class="cls-4" d="M55.553,97.014s9.1,4.522,14.194,4.692,13.431-1.066,18.3-3.8,3.981-5.346,3.981-5.346a5.324,5.324,0,0,0-1.084-5.1,21.111,21.111,0,0,0-5.412-4.714s-2.1,0-2.033-5.495S87.3,62.9,77.919,56.033s-9.945-10.154-27.132-7.062-18.507,16.37-19.42,21.61S43.2,94.731,46.346,95.189A53.633,53.633,0,0,1,54.679,97.6Z"/><path class="cls-5" d="M34.853,69.715s-5.292,3.732-7.09,7.358-3.19,12.193,2.189,14.99,8.315,1.931,8.315,1.931.329,4.492,6.564,6.14,14.451-3.5,16.4-10.68.285-14.9-3.779-18.475S50.738,64.08,34.853,69.715Z"/><path class="cls-3" d="M38.862,92.7a10.091,10.091,0,0,0,5.265-4.009,11.112,11.112,0,0,0,1.059-3.223A14.1,14.1,0,0,0,45.5,82.04a6.268,6.268,0,0,0-.9-3.19,4.954,4.954,0,0,0-2.588-1.98,8.253,8.253,0,0,0-6.657.19,5.77,5.77,0,0,0-2.385,2.357,11.044,11.044,0,0,0-.908,3.344,7.377,7.377,0,0,0,.27,3.422,2.688,2.688,0,0,0,1,1.314,2.235,2.235,0,0,0,.77.316,3.882,3.882,0,0,0,.852.119,3.574,3.574,0,0,0,3.1-1.157,3.479,3.479,0,0,0,.536-3.277,4.2,4.2,0,0,0-1.022-1.407,2.917,2.917,0,0,0-1.5-.844,2.475,2.475,0,0,0-1.645.5,1.53,1.53,0,0,0-.52,1.588,1.874,1.874,0,0,1,.005-.881,1.511,1.511,0,0,1,.494-.732,2.521,2.521,0,0,1,1.67-.547,2.981,2.981,0,0,1,1.564.837,4.315,4.315,0,0,1,1.078,1.428,3.638,3.638,0,0,1-.5,3.454,3.188,3.188,0,0,1-1.476,1.056,5.087,5.087,0,0,1-1.8.245,4.149,4.149,0,0,1-.906-.111,2.514,2.514,0,0,1-.868-.339,3.009,3.009,0,0,1-1.145-1.442,7.734,7.734,0,0,1-.359-3.591,11.477,11.477,0,0,1,.886-3.506A6.266,6.266,0,0,1,35.1,76.592a7.434,7.434,0,0,1,3.536-.933,11.042,11.042,0,0,1,3.6.579,5.664,5.664,0,0,1,2.983,2.21,7.037,7.037,0,0,1,1.089,3.546,14.9,14.9,0,0,1-.267,3.64c-.107.6-.248,1.184-.4,1.767a8.168,8.168,0,0,1-.7,1.754A11.036,11.036,0,0,1,39.2,93.716Z"/><path class="cls-3" d="M85.737,82.542a13.466,13.466,0,0,1-3.8,4.876,17.69,17.69,0,0,1-2.5,1.742c-.89.507-1.769.94-2.65,1.415a43.071,43.071,0,0,1-5.412,2.6,14.481,14.481,0,0,1-5.917.79,14.333,14.333,0,0,0,5.821-1.04,42.7,42.7,0,0,0,5.247-2.816c.852-.51,1.742-1,2.564-1.52a16.833,16.833,0,0,0,2.324-1.775A12.677,12.677,0,0,0,84.724,82.2Z"/><path class="cls-3" d="M84.082,75.721a14.29,14.29,0,0,1-2.927,3.2,9.87,9.87,0,0,1-1.843,1.158,13.269,13.269,0,0,1-2.025.689c-2.66.82-5.285,1.8-7.892,2.8,2.54-1.17,5.093-2.311,7.72-3.308a12.729,12.729,0,0,0,1.894-.779,9.131,9.131,0,0,0,1.629-1.175,13.449,13.449,0,0,0,2.523-3.129Z"/><path class="cls-3" d="M83.662,62.232a18.663,18.663,0,0,1-1.773,3.646,7.929,7.929,0,0,1-3.09,2.668c-1.191.625-2.422,1.089-3.639,1.614L71.507,71.7l3.539-1.782c1.17-.6,2.382-1.157,3.488-1.837a7.228,7.228,0,0,0,2.677-2.633,17.818,17.818,0,0,0,1.443-3.577Z"/><path class="cls-3" d="M75.132,53.918a51.49,51.49,0,0,1-3.848,6.468,13.694,13.694,0,0,1-2.678,2.672,32.216,32.216,0,0,1-3.161,2.016,31.987,31.987,0,0,0,2.992-2.224,13.254,13.254,0,0,0,2.411-2.775,50.923,50.923,0,0,0,3.326-6.634Z"/><path class="cls-3" d="M65.179,48.149A28.482,28.482,0,0,1,59.6,63.258a27.953,27.953,0,0,0,4.513-15.145Z"/><path class="cls-3" d="M53.809,47.733a7.614,7.614,0,0,1,2.53,3.044,9.222,9.222,0,0,1,.85,3.774,12.667,12.667,0,0,1-.539,3.765c-.343,1.219-.922,2.339-1.142,3.578.131-1.253.634-2.432.883-3.643a12.3,12.3,0,0,0,.264-3.671,8.547,8.547,0,0,0-1.03-3.436,6.683,6.683,0,0,0-2.393-2.509Z"/><path class="cls-3" d="M44.159,51.347a10.349,10.349,0,0,1,1.561,11.3A9.817,9.817,0,0,0,43.394,52.1Z"/><path class="cls-3" d="M36.059,56.837a1.365,1.365,0,0,1,1.065.5l.524.581,1.017,1.167a28.005,28.005,0,0,1,1.89,2.467,13.4,13.4,0,0,1,2.316,5.693,13.14,13.14,0,0,0-2.747-5.376,27.26,27.26,0,0,0-2.049-2.239l-1.1-1.059-.552-.514c-.163-.157-.3-.185-.265-.159Z"/><path class="cls-3" d="M57.748,71.14a10.082,10.082,0,0,1-4.095,5.2A28.042,28.042,0,0,1,47.8,79.156a27.768,27.768,0,0,0,5.532-3.242,9.289,9.289,0,0,0,3.38-5.046Z"/><path class="cls-3" d="M60.629,78.462a.378.378,0,0,0,.334.173c.047-.008.029-.012.016-.007l-.292.144c-.219.111-.439.219-.663.317q-.666.309-1.356.558a19.722,19.722,0,0,1-2.8.8,19.311,19.311,0,0,1-5.744.315,19.028,19.028,0,0,0,8.235-1.855q.635-.3,1.24-.651c.2-.112.4-.234.6-.358l.334-.2a.968.968,0,0,1,.357-.108.7.7,0,0,1,.647.306Z"/><path class="cls-3" d="M60.225,90.46a6.269,6.269,0,0,1-2.709-.142,15.428,15.428,0,0,1-2.43-.885,47.547,47.547,0,0,1-4.474-2.4,46.9,46.9,0,0,0,4.667,1.9,8.174,8.174,0,0,0,4.7.486Z"/><path class="cls-3" d="M52.549,99.207a3.958,3.958,0,0,1-1.7-1.935,15.834,15.834,0,0,1-.78-2.226L48.74,90.627l1.834,4.235a15.411,15.411,0,0,0,.982,2.027,3.062,3.062,0,0,0,1.426,1.34Z"/><path class="cls-3" d="M46.957,66.622A42.065,42.065,0,0,1,45.283,70.9a10.378,10.378,0,0,1-2.476,3.821,10.158,10.158,0,0,0,1.977-4.013,41.388,41.388,0,0,0,1.138-4.363Z"/></svg>