<svg id="word" xmlns="http://www.w3.org/2000/svg" xmlns:xlink="http://www.w3.org/1999/xlink" viewBox="0 0 160 160"><defs><style>.cls-1{fill:#faecc1;}.cls-2{fill:#449bc2;}.cls-3{fill:#d9f1fd;}.cls-4{fill:#e0d4af;}.cls-5{fill:#e0cf9a;}.cls-10,.cls-5,.cls-6,.cls-7,.cls-8,.cls-9{stroke:#9d4b9c;stroke-miterlimit:10;stroke-width:0.283px;}.cls-6{fill:#b79eae;}.cls-7{fill:#dfd0b1;}.cls-8{fill:#85a5a7;}.cls-9{fill:#c2cbd2;}.cls-10{fill:#a3c8ca;}.cls-11{fill:url(#linear-gradient);}</style><linearGradient id="linear-gradient" x1="-175.186" y1="-958.968" x2="-175.186" y2="-899.703" gradientTransform="translate(637.623 828.673) rotate(-25.814)" gradientUnits="userSpaceOnUse"><stop offset="0" stop-color="#fff"/><stop offset="1" stop-color="#fff" stop-opacity="0"/></linearGradient></defs><path class="cls-1" d="M36.907,68.921S9.269,78.69,24.5,83.75s19.275.823,14.379,10.31-7.616,13.914,15.231,15.811,57.389,3.8,57.933-3.162S96.352,96.562,134.054,90.9C160,87,148.393,73.8,134.25,70S36.907,68.921,36.907,68.921Z"/><path class="cls-2" d="M24,69c-6.75-5.5,20.287-3.553,24.33-3.637,5.038-.1-12.737-3.008-7.816-2.008,5.57,1.133,11.229.892,16.862.9q8.558.012,17.113-.044c1.887-.011,6.2-1.036,7.94-.055,0,0,2.311,1.3,8.044-.042s14.007,4.427,14.008,4.427c-.88-.613-2.428-.673-3.415-1.025-.581-.207-3.606-.992-3.576-2.041.039-1.379,3.62-1.152,4.294-1.174,6.191-.2,1.269,2.782,7.335,1.063,4.546-1.288,24.926,1.113,27.631,6.137,1.411,2.621-6.412,1.259-8.966,3.587-1.7,1.551-8.529,1.812-10.505,1.9-4.117.178-1.525.9-5.506,2.162-8.263,2.61-17.539,6.4-27.826,4.839-10.736-1.628-21.769-2.027-32.373-4.65-5.98-1.479-11.911-2.523-18.008-1.484-6.572,1.12-12.764.155-10.316-4.351C23.5,73.038,25.464,70.193,24,69Z"/><path class="cls-3" d="M26,67.25s4.426,1.529,6.773.106,2.347-3.12,4.969-.848,4.831.823,6.764,1.191,1.794,2.5,4.555,2.5,3.037-1.186,6.9-1.186,7.868,1.423,8.282,1.186a19.136,19.136,0,0,1,3.727.026A14.906,14.906,0,0,0,71.7,71.387c1.1,0,2.07-1.8,5.659-3.035s2.623.9,4.693,1.375,2.071-.474,2.9-.237,1.1,2.846,2.623,1.9,3.727-.853,5.383-3.035,2.761-3.889,3.589-3.036l.828.854s2.687.79,3.377,2.83.488-1.6.9-.909-3.451.925,1.933,1.4,6.9-.237,6.9-.237,7.04,3.734,9.111,2.341,5.383-2.578,5.935-1.867S133.2,68.8,133.2,68.8s-8.218-2.947-10.15-4.211.138-.078-4.417-1.264-4-5.929-7.73-2.372-3.313,6.594-6.764,4.364-5.245-7.438-8.558-5.664a49.224,49.224,0,0,0-6.074,3.909s-2.9-6.641-5.935-2.609-5.384,1.9-6.35.475-4.693-6.4-5.521-4.032-1.105,3.557-1.657,3.557-1.38-4.269-2.208-2.609L67.006,60s-3.037-2.372-3.865-1.423.552,3.794-1.243,2.846-1.1-4.269-2.622-2.135-3.451.712-4.141.237-1.519-1.423-3.037,0-1.657-1.423-3.727-.237-1.519,1.9-3.313,2.609-1.1,1.186-3.037.237S38.156,57.158,37.328,60s-1.38,3.083-2.208,3.083-2.761-1.186-3.865-.237S26,67.25,26,67.25Z"/><path class="cls-4" d="M66.281,78.644S56.9,82.558,59.448,89.672s18.767,11.977,27.13,11.977,18.053-2.371,25.6-8.182,12.443-8.538,11.117-11.384-7.343-5.336-16.421-4.625S66.281,78.644,66.281,78.644Z"/><path class="cls-5" d="M81.054,73.537a10.091,10.091,0,0,0,3.25.419,46.689,46.689,0,0,0,8.388-.37,14.73,14.73,0,0,0,7.369-3.163,2.793,2.793,0,0,0,1.179-2.166,2.06,2.06,0,0,0-.247-.82c-1.243-.642-2.683-1.476-4.159-2.3,0,.038,0,.076-.007.113a4.067,4.067,0,0,1-.875,2.021,8.214,8.214,0,0,1-6.3,3.152A10.065,10.065,0,0,1,82.6,67.693,4.948,4.948,0,0,1,81,65.105a2.437,2.437,0,0,1-.013-.762c-1.569.928-3.257,2-4.8,3.094a14.776,14.776,0,0,0,1.3,2.97A7.142,7.142,0,0,0,81.054,73.537Z"/><path class="cls-6" d="M76.111,77.415a17.741,17.741,0,0,0,4.978,3.08,17.34,17.34,0,0,0,5.336.693l6.759.163a16.011,16.011,0,0,0,3.336-.89,6.284,6.284,0,0,0,3.417-1.935l2.586-2.491a15.845,15.845,0,0,0,3.091-3.643,6.15,6.15,0,0,0,.792-3.2,24.579,24.579,0,0,1-3.434-.853,17.048,17.048,0,0,1-1.979-.9,2.06,2.06,0,0,1,.247.82,2.793,2.793,0,0,1-1.179,2.166,14.73,14.73,0,0,1-7.369,3.163,46.689,46.689,0,0,1-8.388.37,10.091,10.091,0,0,1-3.25-.419,7.142,7.142,0,0,1-3.562-3.13,14.776,14.776,0,0,1-1.3-2.97,27.3,27.3,0,0,0-3.8,3.157l-1,1.049a5.514,5.514,0,0,0,.395,1.114A14.356,14.356,0,0,0,76.111,77.415Z"/><path class="cls-7" d="M82.6,67.693a10.065,10.065,0,0,0,7.057,2.726,8.214,8.214,0,0,0,6.3-3.152,4.067,4.067,0,0,0,.875-2.021c0-.037,0-.075.007-.113-2.806-1.574-5.737-3.119-7.67-3.247-3.554-.236-3.487-.085-3.487-.085-1.07.5-2.8,1.419-4.694,2.542a2.437,2.437,0,0,0,.013.762A4.948,4.948,0,0,0,82.6,67.693Z"/><path class="cls-8" d="M115.468,79.239a26.662,26.662,0,0,1-3.332,3.632c-1.351,1.3-2.7,2.606-4.153,3.808A48.941,48.941,0,0,1,99.95,92a23.125,23.125,0,0,1-7.666,2.84,30.912,30.912,0,0,1-7.205-.121,36.772,36.772,0,0,1-4.914-.691,22.414,22.414,0,0,1-5.16-1.949A27.413,27.413,0,0,1,64.391,82.3c-2.3,5.761-1.061,6.176,4.089,10.715,5.216,4.6,13.5,6.43,21.695,6.877s14.141-3.7,18.949-6.624a29.919,29.919,0,0,0,10.984-12.706c1.84-3.817-.111-6.438-2.214-8.034q-.009.132-.021.261A13.458,13.458,0,0,1,115.468,79.239Z"/><path class="cls-9" d="M73.035,83.847a48.459,48.459,0,0,0,5.821,1.128c5.207.87,10.5,2.39,15.6,1.742a28.282,28.282,0,0,0,3.653-.76c5.565-1.468,11.1-3.74,14.542-8.047a6.661,6.661,0,0,0,1.63-3.53,6.216,6.216,0,0,0-1.294-4c-1.963-.42-4.418-.772-6.578-1.185a6.15,6.15,0,0,1-.792,3.2,15.845,15.845,0,0,1-3.091,3.643l-2.586,2.491a6.284,6.284,0,0,1-3.417,1.935,16.011,16.011,0,0,1-3.336.89l-6.759-.163a17.34,17.34,0,0,1-5.336-.693,17.741,17.741,0,0,1-4.978-3.08,14.356,14.356,0,0,1-4.334-4.658,5.514,5.514,0,0,1-.395-1.114A29.7,29.7,0,0,0,66.3,78.222a7.573,7.573,0,0,0,1.595,2.671A11.3,11.3,0,0,0,73.035,83.847Z"/><path class="cls-10" d="M115.819,71.24a12.524,12.524,0,0,0-2.835-.865,6.216,6.216,0,0,1,1.294,4,6.661,6.661,0,0,1-1.63,3.53c-3.439,4.307-8.977,6.579-14.542,8.047a28.282,28.282,0,0,1-3.653.76c-5.1.648-10.39-.872-15.6-1.742a48.459,48.459,0,0,1-5.821-1.128,11.3,11.3,0,0,1-5.144-2.954A7.573,7.573,0,0,1,66.3,78.222a35.391,35.391,0,0,0-1.813,3.85c-.032.077-.062.153-.092.229a27.413,27.413,0,0,0,10.614,9.774,22.414,22.414,0,0,0,5.16,1.949,36.772,36.772,0,0,0,4.914.691,30.912,30.912,0,0,0,7.205.121A23.125,23.125,0,0,0,99.95,92a48.941,48.941,0,0,0,8.033-5.317c1.449-1.2,2.8-2.506,4.153-3.808a26.662,26.662,0,0,0,3.332-3.632,13.458,13.458,0,0,0,2.405-6.449q.012-.129.021-.261A14.033,14.033,0,0,0,115.819,71.24Z"/><path class="cls-11" d="M86.146,63.144c1.313.429-5.517,7.209-5.259,17.609s.826,14.585,4.274,15.341-6.451,1.251-10.385-2.8-5.222-8.3-2.64-13.267S84.832,62.716,86.146,63.144Z"/></svg>