<svg id="word" xmlns="http://www.w3.org/2000/svg" xmlns:xlink="http://www.w3.org/1999/xlink" viewBox="0 0 160 160"><defs><style>.cls-1{fill:#63addf;stroke-width:0.704px;}.cls-1,.cls-10,.cls-11,.cls-12,.cls-13,.cls-14,.cls-15,.cls-16,.cls-17,.cls-18,.cls-19,.cls-20,.cls-21,.cls-3,.cls-4,.cls-5,.cls-6,.cls-7,.cls-9{stroke:#9d4b9c;}.cls-2{fill:#96b23c;}.cls-10,.cls-11,.cls-12,.cls-13,.cls-14,.cls-15,.cls-16,.cls-17,.cls-18,.cls-19,.cls-21,.cls-3,.cls-4,.cls-5,.cls-6,.cls-7,.cls-9{stroke-width:0.499px;}.cls-3{fill:url(#linear-gradient);}.cls-4{fill:url(#linear-gradient-2);}.cls-5{fill:url(#linear-gradient-3);}.cls-6{fill:url(#linear-gradient-4);}.cls-7{fill:url(#linear-gradient-5);}.cls-8{fill:#f9ec31;}.cls-9{fill:#f072ab;}.cls-10{fill:url(#linear-gradient-6);}.cls-11{fill:url(#linear-gradient-7);}.cls-12{fill:url(#linear-gradient-8);}.cls-13{fill:url(#linear-gradient-9);}.cls-14{fill:url(#linear-gradient-10);}.cls-15{fill:url(#linear-gradient-11);}.cls-16{fill:url(#linear-gradient-12);}.cls-17{fill:url(#linear-gradient-13);}.cls-18{fill:url(#linear-gradient-14);}.cls-19{fill:none;}.cls-20{fill:#753995;stroke-width:0.199px;}.cls-21{fill:#e1b970;}.cls-22,.cls-24{fill:#fff;}.cls-22{opacity:0.25;}.cls-23{fill:#9d4b9c;}</style><linearGradient id="linear-gradient" x1="68.326" y1="44.026" x2="68.465" y2="44.026" gradientUnits="userSpaceOnUse"><stop offset="0" stop-color="#9b728f"/><stop offset="0.388" stop-color="#fff69d"/><stop offset="0.413" stop-color="#f9ec9f"/><stop offset="0.537" stop-color="#debda7"/><stop offset="0.71" stop-color="#c5a7b4"/><stop offset="0.728" stop-color="#c0a1b0"/><stop offset="0.843" stop-color="#a57f99"/><stop offset="0.938" stop-color="#946a8a"/><stop offset="1" stop-color="#8e6285"/></linearGradient><linearGradient id="linear-gradient-2" x1="61.358" y1="62.337" x2="61.369" y2="62.337" xlink:href="#linear-gradient"/><linearGradient id="linear-gradient-3" x1="68.465" y1="44.419" x2="69.222" y2="44.419" xlink:href="#linear-gradient"/><linearGradient id="linear-gradient-4" x1="73.304" y1="59.474" x2="73.369" y2="59.474" xlink:href="#linear-gradient"/><linearGradient id="linear-gradient-5" x1="57.886" y1="45.23" x2="59.783" y2="45.23" xlink:href="#linear-gradient"/><linearGradient id="linear-gradient-6" x1="66.081" y1="65.578" x2="67.7" y2="65.578" xlink:href="#linear-gradient"/><linearGradient id="linear-gradient-7" x1="76.469" y1="54.523" x2="76.851" y2="54.523" xlink:href="#linear-gradient"/><linearGradient id="linear-gradient-8" x1="76.851" y1="55.363" x2="77.626" y2="55.363" xlink:href="#linear-gradient"/><linearGradient id="linear-gradient-9" x1="119.855" y1="86.103" x2="124.1" y2="86.103" xlink:href="#linear-gradient"/><linearGradient id="linear-gradient-10" x1="76.284" y1="38.36" x2="77.322" y2="38.36" xlink:href="#linear-gradient"/><linearGradient id="linear-gradient-11" x1="69.557" y1="31.993" x2="72.78" y2="31.993" xlink:href="#linear-gradient"/><linearGradient id="linear-gradient-12" x1="81.142" y1="29.979" x2="84.315" y2="29.979" xlink:href="#linear-gradient"/><linearGradient id="linear-gradient-13" x1="44.679" y1="31.253" x2="47.913" y2="31.253" xlink:href="#linear-gradient"/><linearGradient id="linear-gradient-14" x1="40.646" y1="34.5" x2="43.518" y2="34.5" xlink:href="#linear-gradient"/></defs><ellipse class="cls-1" cx="76.141" cy="69.016" rx="50.99" ry="50.503"/><path class="cls-2" d="M67,44.526a1.318,1.318,0,0,0-.609-.031c-.152.061-.579.213-.518.3s-.061.426-.061.426l-.365.091s-.244-.274-.335-.274-.3.457-.3.457l-.122.243s-.609.183-.578.335a.855.855,0,0,1-.211.545l-.155-.027.15.031a.1.1,0,0,1-.059.03c-.122,0,.305.487-.243.518a.735.735,0,0,0-.21.037l-1.329.24c-.025-.02-.045-.034-.045-.034a1.062,1.062,0,0,0-.608.03c-.1.058-.188.122-.281.173l-1.113.2a.161.161,0,0,1-.129-.1c-.091-.244.518-.548-.182-.579s-.914.152-1.1-.03a1.556,1.556,0,0,1-.3-.731.173.173,0,0,0-.274-.122,1.1,1.1,0,0,0-.335.426,1.019,1.019,0,0,1-.518.366,2.928,2.928,0,0,1-.457-.092s-.822-.03-1-.03-.183.3-.427.4a7.687,7.687,0,0,0-.73.365l-.731.122L53.629,48v0l0,.006-.085.085s-.457-.091-.579.061a3.539,3.539,0,0,1-1.035.579c-.122,0-.426-.549-.548-.457a2.375,2.375,0,0,0-.335.426l-.639-.031-.274-.395-.457.091s-.517.122-.335.426.122.609.274.762.092-.061.061.578a7.205,7.205,0,0,1-.061.822,1.643,1.643,0,0,1-.274.792,4.315,4.315,0,0,1-.761.7l-.213.548s-1.462-1.1-1.614-1.279a5.276,5.276,0,0,0-.852-.578l-1,.182a6.38,6.38,0,0,0-.224.793l-.51,1.188c-.05.08-.093.147-.119.181-.091.122-.761.579-.822.792s-.06-.213-.06.335a.9.9,0,0,1-.244.73s-.4.275-.274.518a3.123,3.123,0,0,0,.395.548s.153-.091.213,0a6,6,0,0,1,.092.975l.051.192c-.052.051-.812.813-1.086,1.127a3.242,3.242,0,0,1-1.624.487c-.244,0-.528.608-.772.934s-.243.731-.608,1.055a6.623,6.623,0,0,1-1.827.65s-1.1-.041-1.421.609-1.3,1.137-1.746,1.664a9.664,9.664,0,0,0-1.032,1.25l-.043.009.029.028c-.029.073-.04.136-.009.175.162.2.04.69,0,1.1s-.528,3.207-1.056,3.329-1.461,1.1-.853,1.583.163.2.163.934a3.306,3.306,0,0,0,.2,1.3,6.981,6.981,0,0,1,.243,1.055c.082.447.163,1.421.325,2.234a2.633,2.633,0,0,0,.08.274l-.009.02.01-.018c.386,1.158,1.916,4.3,1.99,4.6a1.645,1.645,0,0,0,1.5.811c.771,0,2.314.65,2.314,1.137s-.081.69.365.649a14.665,14.665,0,0,1,2.639-.122,1.8,1.8,0,0,1,1.177.935c.325.608.447,1.217.853,1.217s1.664.243,1.7.447.2.2.406.528.284.324.446.568a2.932,2.932,0,0,1,.088,1.027l-.067.038.065.028c-.006.282-.022.583-.046.865l-.08.051.071.05a6.414,6.414,0,0,1-.111.783c-.163.69-.853.852-.244,1.42s.771,1.462,1.259,1.786l0,.005-.156.4.209-.358A10.944,10.944,0,0,1,47.919,96.4l-.1.006.531,5.819c-.074.468-.2.961-.2.961a12.6,12.6,0,0,0,.812,1.178,26.259,26.259,0,0,1,3,3.978c.852,1.542,1.177,1.989,1.908,2.435.692.424.983.345,1.219.991v.015l.005,0c.012.033.024.058.036.095a2.752,2.752,0,0,0,1.095,1.462c.325.2-.243.567.285.608a6.61,6.61,0,0,1,2.192.244,7.51,7.51,0,0,0,2.761.73,6.159,6.159,0,0,0,2.111-.486c.446-.325,1.217-1.056,1.623-1.1s.406-.285.366-.731c-.029-.313-.191-.584-.093-.719l.013,0-.008-.01c.044-.054.128-.086.291-.086.568,0,1.786,0,1.786-.569s-.771-.933-.771-1.623.487-.772.934-1.056,1.786-1.38,2.354-1.34,1.259-.528,1.259-.892.04-2.4.04-2.4.487-.2-.121-.69-1.056-.811-.65-1.42.406-.73-.041-1.178-.568-.405-.162-1.1a23.158,23.158,0,0,1,3.329-3.856c.934-.731,3.126-1.7,3.451-2.314s2.273-2.517,2.516-3.33a23.342,23.342,0,0,0,.934-2.923c.041-.609.082-.852-.609-.649s-6.13,1.339-6.332.934a1.3,1.3,0,0,1-.084-.452l.013-.111-.018.016c-.029-.611.017-1.474-.277-1.767-.377-.378-.9-.481-1.456-1.112l.016-.014h-.027c-.039-.045-.077-.085-.116-.134-.609-.771-.975-.609-1.178-1.38a4.294,4.294,0,0,0-.771-1.624,7.512,7.512,0,0,1-.893-1.137c0-.121.162-1.948-.568-2.76s-.934-.772-.934-1.461a2.126,2.126,0,0,0-.447-1.421,4.843,4.843,0,0,1-.528-1.543,2.457,2.457,0,0,0-.446-.853c-.2-.243-.406-1.177-.163-1.055a4.177,4.177,0,0,1,1.016.853c.121.2.324.121.446-.163l.094-.408.149.449.305.852.873,1.1c.122.325-.162,1.138.69,1.542s.69.731,1.055,1.422a1.953,1.953,0,0,1,.2,1.34c0,.324-.488.974.2,1.014s.771-.121,1.178.894A5.062,5.062,0,0,0,73,81.266a1.831,1.831,0,0,1,.356.818l-.025.014.027,0c.089.423.118.9.211,1.362.162.812.2,1.909.568,1.909a11.593,11.593,0,0,0,2.07-.894s.609,1.014,1.259.487,1.177-.731,1.34-1.015a1.468,1.468,0,0,1,1.258-.649c.771-.082,1.178-.245,1.421-.65s.04-.73.447-.73a1,1,0,0,0,.154-.009l0,.009,0-.01c.131-.022-.014-.08.409-.112.527-.041,1.583-.041,1.543-.325s-.61-1.015.487-.893.649-.2.73-.69.65,0,.691-.365.081-1.5.081-1.5A9.029,9.029,0,0,1,86.963,77c.244-.162.2-.69.082-.933s-.569-.853-.65-.975-.934.2-1.3-.122a3.594,3.594,0,0,1-.651-1.258,2.576,2.576,0,0,1-.543.655l-2.81.948-.009.027-.048-.006c-.211-.06-.2-.189-.3-.367l.027-.018-.206-.23c-.187-.281.333-.649-.013-.766-.365-.122-.731.041-.812-.122a3.549,3.549,0,0,0-.69-.649c-.162-.121-1.5-2.313-1.056-2.639.084-.06.182-.123.283-.184l.018.022-.012-.025c.444-.262.993-.467,1.092-.137a8.25,8.25,0,0,0,1.381,1.867c.242.2.242.081.608.324s.609.853,1.178.447.243.365.365.406.731-1.258,1.3-.933a4.082,4.082,0,0,1,1.055,1.136,2.422,2.422,0,0,0,1.828.325c.892-.2,2.354-.487,2.8-.569s2.193-.933,2.6-.446.2.649.608.731-.04.365.488.487a1.028,1.028,0,0,1,.365.157l0,.027.007-.025a1,1,0,0,1,.322.45c.067.134.734.073,1.015-.043-.22.2-.649.652-.649.652a2.865,2.865,0,0,0,.568.568c.406.326,1.015.325,1.1.163s.568-.325.568-.325-.284-1.056.122-1.056.325.528.446.934.528,2.315.772,2.923A10.758,10.758,0,0,0,99.67,80.5c.488.609.244,1.258.447,1.583s.244.04.69.69a18.436,18.436,0,0,1,1.218,1.868c0,.121.2,1.3.487.609s.528-1.259.609-1.381,1.137-.447.974-1.218a2.525,2.525,0,0,1-.04-1.542,6.483,6.483,0,0,0-.041-2.192c-.081-.406.406-.976.61-1.259s1.744-2.233,1.744-2.964.894-1.462.894-1.664.2-1.421.528-1.543.852-.569,1.014-.569.082-.811.325-1.1.65-.974.812-.121.2,1.217.975,1.421.608.2.933.527a3.767,3.767,0,0,1,.487,1.624c.082.407.609,1.34.772.893s.2-1.787.568-1.7a1.823,1.823,0,0,1,.934.771c.032.079.162.424.321.828l-.011.065.041.012a10.635,10.635,0,0,0,.664,1.491,10.4,10.4,0,0,1,.365,2.395c0,.163.041.853.406.894s.447-.2.65.609.244,1.785.934,2.232,1.461,1.259,1.379.447-.2-1.3-.2-1.7-.365-.529-.893-1.015-1.056-.853-1.178-1.3-.609-.853-.609-1.3c0-.307-.115-1.647-.134-2.364l1.352.375c0,.162.447.041.569.041a.906.906,0,0,1,.771.528c.285.487-.2,1.054.285.487s.405-1.542.69-2.152.77-.528.527-1.624a8.466,8.466,0,0,0-.933-2.882c-.366-.325-2.071-1.5-2.071-1.5s-.447-2.8.082-2.923.69.974,1.095.284a3.7,3.7,0,0,0,.365-1.787,21,21,0,0,0,.569-2.516c.081-.934-.2-2.152-.2-3.37,0,0,.041-.488.041-.812a5.022,5.022,0,0,0-.244-1.584c-.2-.527-.528-1.217-.528-1.339s-.446-.407-.365,0-.163-.447-.163-.731-.365-.528-.487-.487-.365-.122-.365-.122l.122-.405s.406-.2-.244-.407a6.824,6.824,0,0,1-.893-.324l-.406-.528s-.771-.528-.73-1.055.283-1.544-.041-1.544-.447,0-.447.163a1.648,1.648,0,0,1-.081.406l-.244.366s-.974-.569-.974-.691.082-1.136.082-1.136l-.123-1.259s.407,1.055.609.812a1.733,1.733,0,0,0,.2-.853s.405.2.446.366.812.324.975.365a7.557,7.557,0,0,1,.933,1.218s.65.082.65-.04a3.088,3.088,0,0,0-.853-1.624c-.568-.447-2.111-1.34-2.111-1.665a16.917,16.917,0,0,0-1.015-2.354l-.349-1.074a.207.207,0,0,1,.167.038c.151.122.121-.03,0-.4s-.305-.426-.671-.7-.608-1.583-.608-1.583-1.219-.578-1.523-1.249-.274-.365-.7-.974-.092-.122-.366-.456-.335-.244-.761-.579a2.573,2.573,0,0,0-.335-.243c-.335-.244-.121-.031-.426-.214s-.274-.365-.456-.7-.153-.365-.153-.365-.7-.518-1-.7.305,1.036.305,1.036l-.244-.214c-.244-.213-.274-.091-.274-.091a5.789,5.789,0,0,0-.578-.4c-.183-.091-.091.548-.091.548a7.579,7.579,0,0,0,.821.67c.153.061-.182,0-.517-.122s-.3-.152-.366-.243-.183-.092-.4-.03,0,0-.213-.092-.335-.578-.335-.578a.7.7,0,0,1-.4-.213,8.045,8.045,0,0,1-.882-1.1c-.487-.639-.183-.183-.427-.426a3.2,3.2,0,0,0-.487-.426,1.927,1.927,0,0,1-.457-.609c-.06-.091.062-.183.062-.183a12.521,12.521,0,0,1-1.249-.487c-.183-.122-.091-1.309-.152-1.644s-.4-.213-.4-.213l-.852-.427-.579-.335c-.578-.334-.274-.091-.883-.334s0,0-.274-.061a2.228,2.228,0,0,1-.7-.274,8.068,8.068,0,0,1-.609-1,6.166,6.166,0,0,0,1.127.7c.273.061.608.152.852.213s.67-.03.122-.395-.548-.092-1.036-.4l-.171-.108-.055-.034-.017-.011a7.2,7.2,0,0,1-1.157-.73c-.274-.275,0,0-1.036-.3s-.365-.091-.669-.365a1.717,1.717,0,0,1-.4-.487,2.523,2.523,0,0,0-.791-.761c-.58-.4-2.406,0-2.65-.122s-.243-.213-.243-.213l-.031-.366s-1.066-.183-1.339-.213.06.365.06.365l.549,1.553,1.492.03.213.518a3.733,3.733,0,0,0,.73.274c.153,0,.153.579.153.579a6.929,6.929,0,0,1-.731.183c-.456.091.487.121.487.121s.152.792.061.853a.865.865,0,0,1-.4.122c-.122,0-.244.243-.244.243l.214.518s.547.274.791.365a.359.359,0,0,1,.091.609c-.213.183,0,.457.213.457s.336.761.336.761-2.436-.609-2.527-.548.121.548.121.548l.244.518-.427.06-.577-.091.06.792a2.589,2.589,0,0,1-.548-.122c-.426-.122-.03.274-.03.274l-.213.639-.214.275s-.152-.518-.213-.67-.061-.214-.274-.7-.122-.274-.152-.365S87.1,30,87.1,30h-.822s-.182.183-.365.335-.488-.152-.609-.183-.457.152-.457.152a1.668,1.668,0,0,1,.427.914c-.031.4-.488.244-.488.244s-.609,1-.639,1.126.517.518.517.518l.153.365a3.438,3.438,0,0,1-.549.213c-.091,0-.365.4-.365.4s.4.4.7.4a3.419,3.419,0,0,1,.761.091,3.264,3.264,0,0,1,.7.731c.213.3.153.426.153.426l-.062.213-.487-.334-.365-.214a3.983,3.983,0,0,1-.243-.456c-.092-.214-1.1,0-1.1,0l-.152.152.488.578-.183.031H83.32l.152.365.426.64.518.334s.731-.121.822-.121.365.243.365.243l.427.579s.3.365-.335.213-.4-.457-.4-.457l-.67-.122a1.98,1.98,0,0,1,.183.366c.03.121.152.822.152.913a1.658,1.658,0,0,1-.03.244s-.335.274-.488.365-.365-.243-.365-.335.061-1,.061-1l-.03-.3a3.536,3.536,0,0,1-1.036-1.1c-.273-.579-.3-.457-.335-.609s.153-.274.153-.4-.64-.3-.884-.335-.334.4-.334.4l-.092.64a4.823,4.823,0,0,0,.518.821,9.962,9.962,0,0,1,.669.762l-.3.456-.121-.121c-.122-.122-.092-.183-.274-.3a.284.284,0,0,1-.153-.274l-.822-.03a6.093,6.093,0,0,1-.67-.031c-.152-.03-.122.518-.122.518l-.03.456-.334-.3-.518.122.518.4s-.762.061-.853.061-.427.213-.579.213-.213.213-.426.03a.939.939,0,0,1-.274-.456s-.609.456-.7.487-.152.152-.639.578c-.18.157-.234.243-.232.29l-.529-.138s-.122.153.031-.487,0,0-.427-.091-.213.365-.213.365v.914h-.244l-.152-.061-.243-.092-.4.153s-.244.152-.457.3,0,.426,0,.426a2.26,2.26,0,0,1,.183.335c.06.153-.122.213-.122.213a3.727,3.727,0,0,1-.609-.3,1.778,1.778,0,0,0-.335-.213l-.335.091a1.931,1.931,0,0,1,.244.548c.03.214-.274.183-.274.183l-.975-.578M83.414,56.5l.155.055-.063.033A.437.437,0,0,0,83.414,56.5Zm-10.051,3.07s-.1.2-.206.4l-.5.536a15.483,15.483,0,0,1-1.667.038c-1.644,0-.913-.122-1.035-.487a2.109,2.109,0,0,0-2.192-.609,22.493,22.493,0,0,1-2.131.731c-.244,0-.731-.183-.914-.183s-.243.365-.243.365a6.364,6.364,0,0,0-1.584,0c-.609.122-.121,1.036-.121,1.036s.609,1.339.243,1.7.913.061.792.243.426.914.974,1.036.487-.609.67-.609a7.337,7.337,0,0,1,1.157.487s.3.426.731-.244.426-.061.609-.122.669.122.852.122.487.426.487.426l-.548.792s-.06.792.244.853-.061.487-.061.913-.243.243-.487.243c-.15,0-.277.255-.352.45l-.014,0,.011,0c-.045.118-.071.214-.071.214l-.864.917c-.065.028-.111.068-.111.118,0,.182-1.218.061-1.218.061a2.407,2.407,0,0,1-.73-.487c-.183-.244-1.584.243-1.584.243s-.913-.305-1.339-.487-1.4-.548-1.4-.548A4.706,4.706,0,0,0,60.149,67c-.182-.122-.548,0-.913,0s-.061-.3-.183-.609-.548-.365-1.34-.3a1.223,1.223,0,0,0-1.035.791l-.009.13-1.814-.286a.485.485,0,0,0-.216-.034l-.8-.126a4.657,4.657,0,0,0-.331-1.084,2.761,2.761,0,0,0-.852-.853,2.308,2.308,0,0,0-1.1-.365A.262.262,0,0,1,51.4,64.2l.008-.008-.14-1.356a1.31,1.31,0,0,1,.419-.166c.3-.062.365-.062-.122-.366s.243-.243.669-.852-.06-.792-.06-1.036-1.035-.182-1.4-.182a.781.781,0,0,1-.588-.366s-1.259.163-1.3-.162-.081-.569-.73-.569a17.053,17.053,0,0,1-2.6-.04c-.122-.122-.528.04-.975-.2a4.538,4.538,0,0,1-1.013-1.106,6.882,6.882,0,0,1,.871-.295c.122,0,1.1.518,1.218.548s.152.031.4-.274a1.85,1.85,0,0,1,.761-.7c.335-.122.792-.213.852-.426s-.334-.64.122-.883a2.669,2.669,0,0,1,.975-.274.5.5,0,0,0,.578.274c.457-.061.944-.183,1.035-.335a.927.927,0,0,0,.031-.487s-.366-.152-.183-.3a5.183,5.183,0,0,1,1.188-.335s-.153.579.365.579.974-.457,1.066-.457a.135.135,0,0,0,.038-.017c.1.122.2.23.2.23l.036-.429.025-.027s.914.152.944.3.213.579.213.7-.4.518,0,1.035a3.658,3.658,0,0,1,.518.853s0,.061.3.3a6.051,6.051,0,0,1,.944,1.248,3.043,3.043,0,0,1,.152.792c.031.243.152.4-.122.517s-.456.579-.456.579l-.091.243s-.152,0-.427-.03-.517-.061-.517-.061-.731-.518-.914-.426.518.822.64,1,.913.243.913.243l.213-.548.4.061a.489.489,0,0,0,.335-.427c.061-.365.883-.547.883-.547l-.061-.3-.243-.365.121-.244s0-.487.153-.274a2.338,2.338,0,0,0,.578.457s.091.122.182.122.153-.214.153-.214l-.274-.517a3.94,3.94,0,0,0-.487-.457,2.612,2.612,0,0,1-.426-.426.817.817,0,0,0-.153-.335c-.122-.152-.4-.487-.4-.639s-.213-1.523-.213-1.523-.548-.183-.426-.365A3.88,3.88,0,0,0,55.8,54s.487-.152.578-.092a.41.41,0,0,1,.076.072l.088.187a.331.331,0,0,0,.029.021.645.645,0,0,1,.051.238c0,.155.136.286.251.4l-.027.016.028-.015a.617.617,0,0,1,.144.178,1.824,1.824,0,0,1,.061.487s.061.639.274.7a5.251,5.251,0,0,1,.67.3s.051.108.12.222l0,.032.009-.014c.072.115.16.232.234.247a.1.1,0,0,1,.072.057l-.03.034.035-.028a1.7,1.7,0,0,1,.075.454c.005.02.009.045.014.073l-.033,0,.168,1.151a2.025,2.025,0,0,0-.057.386c0,.244-.214.731-.092.853.067.065.213.043.334.026l.058.4.069-.1a.277.277,0,0,0,0,.2c.061.091.183.335.183.335a.85.85,0,0,1-.061.335c-.061.092-.792-.061-.731.274a6.3,6.3,0,0,0,.366,1.005s.3.487.517.578.244-.06.335-.182a2.888,2.888,0,0,1,.609-.366l.061-.365L60.454,62l.273.03s.569.143.631.29a4,4,0,0,0-.387-.96,5.286,5.286,0,0,1-.457-1.157s-.213-.3-.121-.3a1.2,1.2,0,0,1,.334,0c.122.03.122.091.3.122s.426.426.518.213.426-.914.578-.731.67.183.853.365l.182.183.579.183.487-.457s.457.274.365,0a2.628,2.628,0,0,0-.395-.64,1.171,1.171,0,0,0,.078-.185l.039,0-.031-.027c.02-.058.042-.127.066-.217.091-.335-.03-.578.183-.609s.3-.517.3-.517l.152-.031s.335-.822.518-.822a.648.648,0,0,0,.4-.269l.039.041-.024-.061A.33.33,0,0,0,66,56.279c0-.153.518-.7.548-.579s.579-.366.579-.366.609.244.609.488.334.091.547.091.335.335.092.335-1.066.183-.609.518.426.4.457.517l.03.122a.385.385,0,0,0,.365-.03c.183-.122.64-.488.64-.488s.183-.4.4-.274-.792-.578-.457-.609.579-.456.7-.456,1-.244,1.156-.244.518-.183.487-.03-.335.243-.335.426.122.426.092.517-.305.062-.305.153-.548.457-.548.457h-.456s-.518-.335-.213-.031.335.3.456.426.609.335.761.457.518.335.61.426a3.263,3.263,0,0,0,.639.274l.213-.03a.558.558,0,0,1,.183.3c.03.183.335.244.456.366s-.091.121.122.274a.418.418,0,0,1,.093.087l-.156-.491"/><path class="cls-3" d="M68.465,44.175l-.095-.3S68.224,43.953,68.465,44.175Z"/><path class="cls-4" d="M61.367,62.338c0-.005-.007-.01-.009-.015C61.367,62.349,61.372,62.361,61.367,62.338Z"/><path class="cls-5" d="M69.222,44.566a2.184,2.184,0,0,1-.73-.365c-.011-.009-.017-.017-.027-.026l.133.419a2.284,2.284,0,0,1,.29.053A.325.325,0,0,0,69.222,44.566Z"/><path class="cls-6" d="M73.3,59.38l.059.187S73.4,59.488,73.3,59.38Z"/><path class="cls-2" d="M55.643,41.633a.858.858,0,0,0-.518-.061c-.274.061-.7-.152-.761,0s-.426.213-.457.3-.791.152-.487.4-.243.395-.213.608.579.092.122.335c-.063.034-.121.061-.176.085-.119-.03-1.025-.258-1.225-.115a.644.644,0,0,1-.162.073l-.081-.134s-.008.071-.012.162a3.476,3.476,0,0,1-.567.082s-.365-.183-.4.06-.031.67-.184.823-.334.121-.639.243-.517.426-.091.609.457.274.822.183.3-.426.548-.579.274-.213.4-.213c.094,0,.225-.378.405-.5l.326.131L52.217,44a1.64,1.64,0,0,0,.472.095l.122-.091L52.818,44c.217.131.419.189.419.348,0,.213-.182.213-.182.3s-.092.487-.3.549-.639-.3-.791,0,.3.639-.427.669-1.339.031-.578.335.335.579.335.579-1.005-.031-1.005.182-.639.214,0,.214a6.936,6.936,0,0,1,1.279.03c.152.061.853.3.853.3H52.9c.091,0,.334.578.517.182s-.061-.578.183-.548a.462.462,0,0,0,.457-.4c0-.152.243-.213,0-.365s-.3-.122-.122-.487.243-.244.213-.792-.213-.761,0-.974-.061-.4-.091-.487.517-.335.639-.427.457-.487.67-.639-.427-.152-.518-.3S55.308,41.785,55.643,41.633Z"/><path class="cls-7" d="M59.753,44.647c.214-.487-.791-.091-.791-.091H58.6c-.243,0-.243.426-.4.64a5.182,5.182,0,0,0-.3.791c-.092.183.457-.061.457-.061l.487-.243a1.115,1.115,0,0,0,.335-.092.352.352,0,0,0,.152-.487C59.175,44.861,59.753,44.647,59.753,44.647Z"/><path class="cls-8" d="M78.448,105.025c-.183.518-1.1.792-1.1.792l-.244.548s.214.092-.152.213-.335.152-.548.152-.761.061-.761.061l-.4.183s-.548.365-.517.518-.244.06-.122.608.182,1.1.182,1.1a1.669,1.669,0,0,0-.334.426c-.183.3-.853-.335-.457.609a5.2,5.2,0,0,1,.457,1.187v.426s.487.245.608.335.305.092.457.214.487.639.914.122.669-.488.791-.884a1.832,1.832,0,0,1,.457-.761,1.959,1.959,0,0,0,.457-.944c.121-.487-.183-.3.334-1.187s.61-1,.61-1.127a3.284,3.284,0,0,1,.273-.761c.062-.091-.03.487.488-.152s-.579-2.1-.579-2.1S78.631,104.507,78.448,105.025Z"/><path class="cls-9" d="M68.248,27.556a4.9,4.9,0,0,1,.934.447l.244-.325a1.768,1.768,0,0,0,.2-.366c.081-.2.406-.609-.081-.77a2.436,2.436,0,0,1-1.015-.65c-.366-.325-.325-.772-.975-.528s-.528.284-.528.284l-.933-.406L65.934,25l-1.014.447-.447-.284s-.771.244-.69.365.486.447-.528.731-2.72.934-2.923,1.015-1.381.04-1.5.325-.2.324-.487.324a2.067,2.067,0,0,1-.447-.04l-.487.162s.365.082-.406.122-1.015.041-1.3.041a1.927,1.927,0,0,0-1.34.284c-.69.406-1.867,1.055-2.273,1.3s-1.38.527-1.706.974.041.609.163.609-.447.609-.568.65-.406.649-.406.649l1.339-.69,1.665-.446h.73c.163,0,.691-.284,1.056-.122l.365.162a7.429,7.429,0,0,0,.975.285,2.53,2.53,0,0,0,.65-.285l1.136.365s-.853.163.041.326a9.428,9.428,0,0,0,1.827.121s.324-.447-.081-.527-.691.162-.407-.081,0-.488.812-.488H60.7s-.974.69-.446.569.69-.57.852-.731a4.442,4.442,0,0,1,.447-.366l.528.081a5.281,5.281,0,0,0,1.3.163,1.284,1.284,0,0,0,1.055-.69c.122-.325-.487-.65.162-.65H65.61s-.2.407.568-.041a5.929,5.929,0,0,1,1.624-.689c.122,0,.69-.163.811-.163s.284,0,.366-.122-1.1-.568-1.1-.568S67.761,27.394,68.248,27.556Z"/><path class="cls-10" d="M67.7,65.393a1.786,1.786,0,0,0-.142-.406s-.528.121-.69.162-.447.1-.447.1-.426.244-.324.346.061-.081.1.1-.081.365.041.446.731-.06.731-.06l.02-.346a1.256,1.256,0,0,1,.325-.141C67.4,65.6,67.7,65.494,67.7,65.393Z"/><path class="cls-2" d="M53.207,55.73c0,.2-.2.325-.2.447s-.081.142-.081.243-.224.183-.122.265a1.842,1.842,0,0,0,.264.162.156.156,0,0,1,0,.142,3.477,3.477,0,0,1-.528.284l-.243.365s-.264.081-.264.163-.061.345-.061.406-.183.466-.142.548.182.122.243.183a1.73,1.73,0,0,0,.487.1,1.973,1.973,0,0,1,.1-.427c.061-.121.162-.406.244-.628s.223-.69.223-.69l.081-.122-.041-.143v-.365l.244-.223.081-.609S53.207,55.527,53.207,55.73Z"/><path class="cls-9" d="M56.719,35.939s.284-.243.771-.588-.183-.081-.2-.2a.7.7,0,0,1,0-.224l-.061-.081a5.713,5.713,0,0,1-.853-.406c-.182-.142.021-.609.021-.609l-.568.346-.285.141s-.243.163-.345.244a1.7,1.7,0,0,1-.609.365c-.466.2-.02.244-.121.467s-.061.285-.061.285a2.847,2.847,0,0,0,.791.487c.224.02.467,0,.751,0A2.562,2.562,0,0,0,56.719,35.939Z"/><path class="cls-11" d="M76.469,54.543a1.67,1.67,0,0,1,.382-.034"/><path class="cls-12" d="M77.413,55.456c-.183-.335-.03-.213-.243-.639-.108-.215-.208-.29-.319-.308l.633,1.708L77.626,56A1.811,1.811,0,0,0,77.413,55.456Z"/><path class="cls-2" d="M71.384,41.451l.487-1.4.092.121h1.279l.517-.06.213-.366a.913.913,0,0,0-.487-.639,1.445,1.445,0,0,0-.3-.164c-.056-.073-.175-.225-.243-.293-.091-.091-.518-.4-.518-.4l-.517-.182-.152-.061a.421.421,0,0,1-.214-.274c-.018-.11-.353-.131-.619-.131.013-.018.031-.035.041-.052.214-.365,0,0-.487-.122s.243-.4.243-.487c0-.019-.034-.034-.082-.047l.54-.592-1.022.538a2.351,2.351,0,0,0-.349.01c-.213.03-1.218,0-1.218,0l-.325.051a1.364,1.364,0,0,0,.02-.143l.214-.213-.424.386-.063.01a7.669,7.669,0,0,1-.822.3c-.336.092-.183.031-.609.122s-.092.427-.092.427-1.522.456-1.766.548-.822.792-1.431,1.065a6.17,6.17,0,0,0-1.1.67c-.152.091-.791.3-.913.366a3.624,3.624,0,0,1-1.005.365c-.853.244-.457.365-.457.365l-.335.213-.03.153.457-.183a1.363,1.363,0,0,1-.183.3,4.379,4.379,0,0,0-.274.4c-.122.182-.3.152-.457.243a1.376,1.376,0,0,0-.365.761c0,.183.091.213.3.548s.67.031.67.031l.548-.3.457-.244.121.518a1.566,1.566,0,0,0-.426.579c-.152.365,0,.456-.182.883s-.092.548-.274.73-.914.3-.944.427.578.274.578.274l.4-.183a1.121,1.121,0,0,1,.3.213c.06.092.213.061.669-.152s.275-.274.275-.366.548,0,.791-.06.122-.214.244-.518a13.2,13.2,0,0,1,.791-1.157c.244-.4.274-.122.274-.122H63.8a1.8,1.8,0,0,0,.274-.548c0-.152-.3-.274-.3-.274a.337.337,0,0,1-.182-.274c0-.183.213-.4.213-.487a6.463,6.463,0,0,1,.639-.822l1.1-.518.639-.274.3-.152s.031-.335.031-.457.457-.365.791-.487.335-.091.548-.03a.8.8,0,0,1,.426.517c.062.183-.365.335-.608.548a8.789,8.789,0,0,1-1.218.609c-.579.3-.3.244-.548.244s-.214.426-.3.639a1.2,1.2,0,0,1-.457.67c-.334.244.213.365.457.487s.091.244.091.518.792.061,1.036.03.3-.152.548-.213a1.938,1.938,0,0,1,.426-.061,1.1,1.1,0,0,0,.792-.121s.7-.488,1.248-.883.183-.3.335-.518"/><path class="cls-2" d="M104.745,83.377c-.162.285-.406.446-.325.73a7.093,7.093,0,0,1,.163,1.26,3.527,3.527,0,0,0-.041.933c.082.284-.162.365.082.284s.73-.771.73-.771.69-.122.731-.609a5.123,5.123,0,0,1-.691-1.1C105.394,83.905,104.908,83.092,104.745,83.377Z"/><path class="cls-2" d="M120.131,85.406c0-.121-.609-.609-.609-.609s.122-.486-.081-.649a7.2,7.2,0,0,0-.731-.447l-.041-.446a1.66,1.66,0,0,1-1.217-.365c-.731-.488-1.421-.933-1.421-.933s-.528-.163-.65-.041-.852-.163-.771.162-.284.649.2.649.893.041,1.015.325a6.714,6.714,0,0,0,.406.731l.243.365a2.759,2.759,0,0,0,.366.366,2.573,2.573,0,0,1,.649.853,2.927,2.927,0,0,0,.488,1.014c.284.284.487.325.649.65s.812.406.812.406.569-.406.569-.772S120.131,85.528,120.131,85.406Z"/><path class="cls-2" d="M124.151,73.187s-.447-.2-.447.447-.081,2.436-.081,2.436-.488.4-.528.568-.69,1.664-.69,1.664a2.794,2.794,0,0,1-.082.61,1.557,1.557,0,0,1-.528.649s-.324.284-.324.487a3.5,3.5,0,0,0,.081,1.137,1.18,1.18,0,0,1,.2.893c-.081.365.406,1.1.609.731s.569-.934.569-.934.69-.488.69-.731a5.094,5.094,0,0,1,0-1.38c.122-.487.649-.813.649-1.178s-.081-1.786-.081-1.948.162-1.015.162-1.177S124.151,73.187,124.151,73.187Z"/><path class="cls-2" d="M126.058,69.371a3.224,3.224,0,0,1-.487-1.177c-.121-.609-.284-.893-.284-1.137s-.568-.974-.69-1.381a16.345,16.345,0,0,0-.812-1.664l-.731-1.542a.374.374,0,0,0-.365.487,16.03,16.03,0,0,0,.365,2.232,7.008,7.008,0,0,0,.812,1.015s-.243.934,0,1.177.813.041.853.448a12.911,12.911,0,0,0,.04,1.3c.082.325.2.934.2.934s-.081,0,.122.569.082,1.014.446.244S126.261,69.736,126.058,69.371Z"/><path class="cls-13" d="M123.663,83.662s.365.851-.2,1.257l-.03.022a2.528,2.528,0,0,1-1.27.385l-.041.487-.405.324-.082.244c-.04.121-.853.284-.853.284l-.568.731s-.487.405-.324.69.04.974.608.366,1.219-.975,1.259-1.259.771-.974,1.055-1.218.934-1.015,1.218-1.258S123.663,83.052,123.663,83.662Z"/><path class="cls-2" d="M77.383,36.944a.83.83,0,0,1,.578.091c.183.153.426.427.517.427s.732-.092.732-.092l-.061-.274s-.792-.456-.914-.761a2.318,2.318,0,0,1,0-.944s.091.092.213-.395a1.219,1.219,0,0,1,.366-.67,1.148,1.148,0,0,1,.609-.548.941.941,0,0,0,.639-.609c0-.122-.426.243-.426.243l-.548.213-.944.487a1.791,1.791,0,0,0-.244.579,1.155,1.155,0,0,1-.152.457l-.061.152.183.3s-.548.274-.548.639S77.26,36.944,77.383,36.944Z"/><path class="cls-14" d="M76.347,38.741c.213.06.366.121.487-.122a1.092,1.092,0,0,1,.488-.4s-.335-.4-.457-.274a1.723,1.723,0,0,0-.3.335C76.53,38.375,76.134,38.68,76.347,38.741Z"/><path class="cls-15" d="M71.628,31.433l.213.091H72.3s.974-.456.152-.578c0,0-.7-.152-.7,0s-.244.183-.244.183l-.305-.183s-.213.183-.334.183a1.905,1.905,0,0,1-.4-.092h-.609s-.335.244-.213.427-.092.669-.092.669l.183.092-.152.639s-.122.427.152.152.518-.548.761-.761a.276.276,0,0,0,.063-.371.842.842,0,0,0,.181.158,1.917,1.917,0,0,1,.4.578s.365-.152.395-.273a1.934,1.934,0,0,0-.152-.579l-.487-.213.3-.122Z"/><path class="cls-16" d="M81.827,30l.275.091.3.153a.926.926,0,0,0,.183.091c.09.03.912.213.912.213l.244-.4s.913.092.426-.335c0,0-.457-.182-.639-.061a.273.273,0,0,0-.122.3s-.06.335-.091.243a2.442,2.442,0,0,0-.366-.395s-.639-.4-.639-.244a1.276,1.276,0,0,1-.03.274,5.215,5.215,0,0,1-.579-.457c-.06-.091-.67-.152-.548.122S81.827,30,81.827,30Z"/><path class="cls-2" d="M87.643,27.323c.122.243.275.517.275.517s.3.183.426.061a1.019,1.019,0,0,0,.305-.517c0-.153-.032-.7-.032-.7a6.034,6.034,0,0,0-.548-.3c-.151-.061-.456.335-.364.456S87.522,27.079,87.643,27.323Z"/><path class="cls-9" d="M53.816,27.049a5.359,5.359,0,0,0,1.492-.488c.213-.121.852-.152.852-.06s-.791.243-1.065.517.883,0,.883,0l.974-.457a4.529,4.529,0,0,1,1.1-.547,13.008,13.008,0,0,0,1.4-.3l1.644-.761a1.759,1.759,0,0,1,.913-.122c.548.061.366-.274.579-.518a6.627,6.627,0,0,1,1.644-.7c.548-.213-.883-.335-1.187-.517s-.853.487-.975.517a5.444,5.444,0,0,1-.7,0,.954.954,0,0,1-.64-.3c-.182-.213.518-.275.61-.335s.822-.213.913-.274.548.121.548.121l.3.153a3.862,3.862,0,0,1,.639-.213c.122,0,.852.243,1.066.243s.274-.335.152-.517-.67-.3-.761-.183-.792.03-.762-.061.579-.244.731-.274a3.722,3.722,0,0,1,1.4-.487c.639,0,.517.426.517.578s-.03.335-.334.274a.862.862,0,0,0-.61.183s.305.335.427.335.243-.031.243.122-.609.4-.609.4-.487.4-.182.547.731-.365.731-.365l.608.031a.932.932,0,0,0,.031.822.548.548,0,0,0,.67.121.888.888,0,0,0,.548.549c.456.182.487.06.609.152a3.372,3.372,0,0,0,.974.4c.335.061.548-.275.761-.4s.548-.335.609-.639-.335-.488-.456-.7-.092-.426-.244-.487a10.731,10.731,0,0,0-1.888.091,3.536,3.536,0,0,0-.639.152s-.152.092-.152-.334-.275.03-.7.03.426-.609.426-.609-.121-.122,0-.365,0,0-.426-.3.7-.335,1.035-.457.488.092.609.122a4.716,4.716,0,0,0,1.31-.365c.182-.122.639.091.822.122a2.89,2.89,0,0,1,.67.365c.152.091.7.3.7.213s.183-.152.335-.3-.853-.153-1.127-.335,1.249-.061,1.736-.3.152-.182.03-.456-1.248,0-1.37.213-1.553.152-2.131.213a3.3,3.3,0,0,1-.975-.061c-.487-.031.549-.457.549-.457s-1.371.183-1.8.183-1.218.4-1.979.4a16.558,16.558,0,0,0-3.014,1.035c-.487.122-2.345.274-2.467.365a4.547,4.547,0,0,0-.426.883s-1.066.3-1.309.427.091.122.913-.031a6.851,6.851,0,0,0,1.127-.274L59.449,24a3.487,3.487,0,0,1,1.37.03c.365.183-.761.487-.883.457a4.406,4.406,0,0,0-1.309.4c-.457.213-.4.4-.7.4s-.243-.3-.73-.213.061-.274-.061-.518-.548.274-.609.4a2.113,2.113,0,0,1-.914.365,1.008,1.008,0,0,0-.639.518,14.143,14.143,0,0,1-1.857,1.248C52.629,27.444,53.481,27.049,53.816,27.049Z"/><path class="cls-9" d="M43.647,32.407c.182-.213.761-.4.761-.487s.913-.487,1.309-.883a2.4,2.4,0,0,0,.609-.883c.122-.274.609-.365.639-.456a2.391,2.391,0,0,1,1.249-.64c.4.031-.153.457-.213.609s.182,0,.578-.122a2,2,0,0,0,.822-.608c.183-.183.883-.4,1.035-.549s.091-.335.061-.517.457-.518.548-.609,1.157-.4,1.309-.518a3.107,3.107,0,0,1,1.157-.243c.3,0,.823-.792,1.1-1.005s-.7.03-.7.03a7.23,7.23,0,0,0-1.735.67c-.274.274-1.37.092-1.37.092s-2.223,1.644-2.558,1.765-2.009,1.157-2.192,1.218-.457.731-.883,1.035a5.539,5.539,0,0,0-.64.518,1.581,1.581,0,0,1-.426.64c-.243.152-.365.7-.67.943S43.464,32.62,43.647,32.407Z"/><path class="cls-17" d="M47.452,30.246A.249.249,0,0,0,47,30.215c-.274.335-.426.335-.761.67s-1.218,1-1.31,1.126-.335.092-.213.336.64-.092.731-.3a2.83,2.83,0,0,1,1.065-1.005c.3-.061.64-.487.883-.487S48.4,30.124,47.452,30.246Z"/><path class="cls-18" d="M40.754,35.574c.365.183.3.213.578-.031a13.216,13.216,0,0,0,.914-1.1c.183-.213.791-.609.974-.791s.64-.579-.152-.244a.88.88,0,0,0-.457.092c-.274.121-.609-.153-.731.3a2.249,2.249,0,0,1-.365.761,1.557,1.557,0,0,0-.3.366C41.058,35.178,40.388,35.391,40.754,35.574Z"/><path class="cls-8" d="M67.254,71.249c-.122.284-.325.365-.447.162a4.194,4.194,0,0,0-1.015-.853c-.243-.121-.04.812.163,1.056a2.483,2.483,0,0,1,.446.853,4.825,4.825,0,0,0,.528,1.543,2.123,2.123,0,0,1,.446,1.42c0,.69.2.65.934,1.462s.569,2.638.569,2.76a7.447,7.447,0,0,0,.893,1.137,4.3,4.3,0,0,1,.771,1.624c.2.771.568.609,1.177,1.38s1.178.852,1.584,1.258.162,1.909.365,2.315,5.643-.731,6.333-.934.65.041.609.649a23.626,23.626,0,0,1-.934,2.924c-.244.812-2.192,2.719-2.517,3.328s-2.517,1.584-3.451,2.314A23.193,23.193,0,0,0,70.38,99.5c-.406.69-.285.649.162,1.1s.447.569.041,1.178.04.933.649,1.42.122.69.122.69-.041,2.03-.041,2.4-.69.933-1.258.892-1.908,1.056-2.355,1.34-.933.365-.933,1.055.771,1.056.771,1.624-1.218.568-1.786.568-.244.366-.2.812.04.691-.366.731-1.177.772-1.623,1.1a6.142,6.142,0,0,1-2.112.487,7.526,7.526,0,0,1-2.76-.731,6.639,6.639,0,0,0-2.192-.243c-.528-.041.04-.406-.285-.609a2.749,2.749,0,0,1-1.1-1.462c-.243-.771-.528-.649-1.258-1.1s-1.056-.893-1.908-2.436a26.383,26.383,0,0,0-3-3.978,12.47,12.47,0,0,1-.812-1.177,10.334,10.334,0,0,0,.243-1.34c.041-.527.69-.974.934-1.34s.284-.608-.487-1.339,0-1.461-.528-2.111-1.137-2.558-1.624-2.882-.649-1.219-1.259-1.787.082-.731.244-1.421a8.572,8.572,0,0,0,.082-2.842c-.163-.243-.244-.243-.447-.568s-.366-.325-.406-.528-1.3-.446-1.7-.446-.528-.609-.853-1.218A1.8,1.8,0,0,0,41.15,84.4a14.665,14.665,0,0,0-2.639.122c-.447.041-.365-.163-.365-.649s-1.543-1.137-2.314-1.137a1.643,1.643,0,0,1-1.5-.812c-.081-.325-1.909-4.06-2.071-4.872s-.243-1.786-.325-2.233a6.951,6.951,0,0,0-.243-1.055,3.286,3.286,0,0,1-.2-1.3c0-.731.446-.447-.163-.934s.325-1.462.853-1.583,1.015-2.924,1.056-3.329.162-.893,0-1.1.608-.934,1.055-1.462,1.421-1.015,1.746-1.665,1.421-.609,1.421-.609a6.631,6.631,0,0,0,1.826-.649c.366-.325.366-.731.609-1.056s.528-.933.772-.933a3.257,3.257,0,0,0,1.624-.487c.284-.325,1.1-1.137,1.1-1.137a5.835,5.835,0,0,0,1.177,1.339c.447.244.852.082.974.2a16.936,16.936,0,0,0,2.6.04c.649,0,.69.244.73.569s1.3.162,1.3.162a.778.778,0,0,0,.588.365c.365,0,1.4-.061,1.4.183s.487.426.061,1.035-1.157.548-.67.853.426.3.121.365-.791.3-.548.548-.06,1.035.427,1.035a2.311,2.311,0,0,1,1.1.366,2.766,2.766,0,0,1,.852.852c.3.427.183,1.279.548,1.279s.853-.243.975.183.669,1.035.852,1.035A3.331,3.331,0,0,0,56.6,67.7l.061-.852a1.223,1.223,0,0,1,1.035-.792c.792-.061,1.218,0,1.34.3s-.183.609.182.609.731-.122.914,0a4.72,4.72,0,0,1,.609.73s.974.366,1.4.548,1.34.488,1.34.488,1.4-.488,1.583-.244a2.4,2.4,0,0,0,.731.487s1.218.122,1.218-.061.609-.243.609-.061-.122,1.34-.122,1.34Z"/><path class="cls-2" d="M77.363,59.78l-.488.244s-1.339-.3-2.131-.427a6.16,6.16,0,0,0-1.4-.061s-.3.609-.426.792-.3.183-1.949.183-.913-.122-1.035-.487a2.108,2.108,0,0,0-2.192-.609c-.913.3-1.888.73-2.131.73s-.731-.182-.914-.182-.244.365-.244.365a6.3,6.3,0,0,0-1.583,0c-.609.122-.122,1.035-.122,1.035s.609,1.34.244,1.7.914.061.792.244.426.913.974,1.035.487-.609.67-.609a7.337,7.337,0,0,1,1.157.487s.3.427.731-.243.426-.061.609-.122.669.122.852.122.487.426.487.426l-.548.792s-.061.791.244.852-.061.487-.061.914-.244.243-.487.243-.427.67-.427.67l-.974,1.035.3,1.827.182.548.305.853.873,1.1c.121.325-.163,1.136.69,1.542s.69.731,1.055,1.422a1.955,1.955,0,0,1,.2,1.339c0,.325-.487.974.2,1.015s.772-.123,1.177.893a5.058,5.058,0,0,0,.975,1.786,4.968,4.968,0,0,1,.568,2.193c.162.812.2,1.908.569,1.908a11.6,11.6,0,0,0,2.07-.893s.609,1.014,1.259.487,1.177-.731,1.339-1.015a1.467,1.467,0,0,1,1.259-.649c.771-.082,1.177-.245,1.42-.651s.041-.73.447-.73.041-.081.569-.122,1.583-.04,1.542-.324-.608-1.015.488-.893.649-.2.731-.69.649,0,.69-.366.08-1.5.08-1.5a8.9,8.9,0,0,1,.935-1.015c.243-.163.2-.69.08-.934s-.568-.852-.649-.975-.934.2-1.3-.121a3.606,3.606,0,0,1-.65-1.259,2.818,2.818,0,0,1-1.177,1.1,4.428,4.428,0,0,1-2.233.528c-.284-.081-.162-.283-.447-.568s.325-.69-.04-.812-.731.041-.812-.122a3.548,3.548,0,0,0-.69-.649c-.163-.122-1.5-2.314-1.056-2.639s1.259-.731,1.381-.325a8.223,8.223,0,0,0,1.38,1.868c.244.2.244.081.609.324s.609.853,1.178.447.243.365.364.406.731-1.259,1.3-.933a4.107,4.107,0,0,1,1.056,1.136,2.415,2.415,0,0,0,1.826.325c.893-.2,2.355-.487,2.8-.569s2.193-.933,2.6-.446.2.649.61.73-.041.366.486.488a.879.879,0,0,1,.691.609c.081.162,1.055.04,1.136-.122s-.771.731-.771.731a2.927,2.927,0,0,0,.569.568c.405.325,1.015.324,1.095.162s.569-.324.569-.324-.285-1.056.121-1.056.326.527.447.934.528,2.314.772,2.923a10.758,10.758,0,0,0,1.461,2.071c.487.608.244,1.258.447,1.583s.243.04.69.69a18.321,18.321,0,0,1,1.218,1.868c0,.121.2,1.3.487.608s.528-1.258.609-1.38,1.137-.447.975-1.219a2.511,2.511,0,0,1-.041-1.542,6.485,6.485,0,0,0-.041-2.192c-.081-.407.406-.975.609-1.259s1.746-2.232,1.746-2.963.892-1.462.892-1.664.2-1.421.529-1.543.852-.569,1.014-.569.082-.812.325-1.1.65-.974.813-.122.2,1.218.974,1.422.608.2.933.527a3.792,3.792,0,0,1,.488,1.624c.08.406.608,1.34.77.893s.2-1.786.569-1.7a1.818,1.818,0,0,1,.934.771,23.209,23.209,0,0,0,1.015,2.4,10.45,10.45,0,0,1,.365,2.395c0,.163.041.852.406.893s.446-.2.65.609.243,1.786.933,2.233,1.462,1.258,1.381.447-.2-1.3-.2-1.7-.365-.529-.894-1.016-1.055-.852-1.177-1.3-.609-.853-.609-1.3a17.77,17.77,0,0,1-.081-2.8c.162.284.405.771.568.406s.731.244.731.406.447.04.568.04a.909.909,0,0,1,.772.528c.284.487-.2,1.055.284.487s.406-1.543.69-2.151.772-.528.528-1.624a8.476,8.476,0,0,0-.934-2.882c-.365-.325-2.071-1.5-2.071-1.5s-.446-2.8.082-2.923.69.975,1.1.285a3.7,3.7,0,0,0,.365-1.787,21.185,21.185,0,0,0,.569-2.517c.081-.933-.2-2.151-.2-3.369,0,0,.041-.488.041-.813a5.016,5.016,0,0,0-.244-1.583c-.2-.527-.528-1.218-.528-1.34s-.447-.405-.365,0-.163-.446-.163-.73-.366-.528-.487-.488-.365-.121-.365-.121l.122-.406s.405-.2-.244-.406a6.8,6.8,0,0,1-.893-.325l-.406-.527s-.772-.528-.731-1.056.284-1.543-.041-1.543-.446,0-.446.163a1.66,1.66,0,0,1-.081.406l-.243.365s-.975-.569-.975-.69.081-1.136.081-1.136l-.121-1.259s.405,1.055.608.811a1.735,1.735,0,0,0,.2-.852s.406.2.447.365.811.325.974.366a7.464,7.464,0,0,1,.934,1.217s.649.082.649-.04A3.1,3.1,0,0,0,116.3,46.2c-.568-.446-2.111-1.339-2.111-1.664a16.936,16.936,0,0,0-1.015-2.355l-.349-1.075"/><path class="cls-19" d="M68.35,43.846s-.163.081.122.325a2.206,2.206,0,0,0,.73.365.327.327,0,0,1-.335.081,8.187,8.187,0,0,0-.883-.122s-.274.366-.365.3a6.176,6.176,0,0,0-.639-.3,1.332,1.332,0,0,0-.609-.03c-.153.061-.579.213-.518.3s-.061.427-.061.427l-.365.091S65.286,45,65.194,45s-.35.487-.35.487l-.179.228s-.608.183-.578.335-.152.579-.274.579.3.487-.244.517-.426.366-.213.4-.426.091-.426.244-.274.273-.457.182-.3.061-.3-.213a.4.4,0,0,0-.183-.365,1.056,1.056,0,0,0-.609.03,1.209,1.209,0,0,1-.639.274c-.274,0-.792.244-.883,0s.517-.548-.183-.578-.913.152-1.1-.031a1.548,1.548,0,0,1-.3-.731A.172.172,0,0,0,58,46.231a1.1,1.1,0,0,0-.335.426,1.011,1.011,0,0,1-.517.365,2.93,2.93,0,0,1-.457-.091s-.822-.03-1.005-.03-.182.3-.426.395a7.931,7.931,0,0,0-.731.366l-.73.122-.274.273s-.457-.091-.579.062a3.547,3.547,0,0,1-1.035.578c-.122,0-.426-.548-.548-.457a2.411,2.411,0,0,0-.335.426l-.64-.03-.274-.4-.456.092s-.518.121-.335.426.122.609.274.761.091-.061.061.579a7.756,7.756,0,0,1-.061.822,1.64,1.64,0,0,1-.274.791,4.37,4.37,0,0,1-.761.7l-.213.548s-1.462-1.1-1.614-1.279a5.229,5.229,0,0,0-.853-.579l-1,.183s-.3.883-.214.883,0,.213-.122.426-.426.731-.517.853-.761.578-.822.791-.061-.213-.061.335a.9.9,0,0,1-.244.731s-.4.274-.274.518a3.189,3.189,0,0,0,.4.548s.152-.091.213,0a6.184,6.184,0,0,1,.09.974l.123.457a8.857,8.857,0,0,1,.974-.335c.121,0,1.1.518,1.218.548s.152.03.395-.274a1.845,1.845,0,0,1,.762-.7c.335-.122.791-.213.852-.427s-.335-.639.122-.883a2.69,2.69,0,0,1,.974-.274.5.5,0,0,0,.579.274c.457-.06.944-.182,1.035-.334a.927.927,0,0,0,.03-.488s-.365-.152-.182-.3a5.164,5.164,0,0,1,1.187-.335s-.152.578.366.578.974-.456,1.065-.456.3-.244.3-.244.913.152.944.3.213.578.213.7-.4.518,0,1.035a3.658,3.658,0,0,1,.518.853s0,.061.3.3a6.118,6.118,0,0,1,.944,1.249,3.027,3.027,0,0,1,.152.791c.03.244.153.4-.122.518s-.456.578-.456.578l-.092.244a4.225,4.225,0,0,1-.426-.031c-.274-.03-.518-.06-.518-.06s-.73-.518-.913-.427.518.822.639,1,.914.244.914.244l.213-.549.4.061a.489.489,0,0,0,.335-.426c.06-.365.883-.548.883-.548l-.061-.3-.244-.366.122-.243s0-.487.152-.274a2.325,2.325,0,0,0,.579.456s.091.122.182.122.153-.213.153-.213l-.275-.518a3.881,3.881,0,0,0-.487-.456,2.648,2.648,0,0,1-.426-.427.813.813,0,0,0-.152-.335c-.122-.152-.4-.487-.4-.639s-.213-1.522-.213-1.522-.548-.183-.426-.366a3.929,3.929,0,0,0,.213-.944s.487-.152.579-.091a.7.7,0,0,1,.243.518c0,.243.335.426.4.578a1.824,1.824,0,0,1,.061.487s.061.64.274.7a5.113,5.113,0,0,1,.669.3s.214.457.366.487.122.366.152.518.091.578.091.578.061-.03.092.244a6.373,6.373,0,0,1-.092.792c0,.243-.213.73-.091.852s.518-.061.518.061-.122.365-.061.457.182.335.182.335a.865.865,0,0,1-.06.335c-.061.091-.792-.061-.731.274a6.3,6.3,0,0,0,.365,1s.3.488.518.579.244-.061.335-.183a2.894,2.894,0,0,1,.609-.365l.061-.365.182-.092.274.031s.609.152.64.3a5.35,5.35,0,0,0-.4-.974,5.305,5.305,0,0,1-.457-1.157s-.213-.3-.122-.3a1.247,1.247,0,0,1,.335,0c.122.031.122.092.3.122s.426.426.517.213.427-.913.579-.731.67.183.852.366l.183.183.579.182.487-.456s.456.274.365,0a2.6,2.6,0,0,0-.4-.64,1.728,1.728,0,0,0,.153-.426c.091-.335-.031-.579.182-.609s.3-.518.3-.518l.152-.03s.335-.822.518-.822a.675.675,0,0,0,.487-.457c0-.152.517-.7.548-.578s.578-.366.578-.366.609.244.609.487.335.092.549.092.334.334.091.334-1.066.183-.609.518.426.4.456.518l.031.122a.383.383,0,0,0,.365-.031c.183-.122.64-.487.64-.487s.182-.4.4-.274-.792-.579-.457-.609.578-.457.7-.457,1-.243,1.157-.243.518-.183.487-.031-.334.244-.334.427.121.426.091.517-.3.061-.3.152-.548.457-.548.457h-.456s-.518-.335-.214-.03.335.3.457.426.609.335.761.456.518.336.609.427a3.353,3.353,0,0,0,.639.274l.214-.03a.553.553,0,0,1,.183.3c.03.183.334.243.456.365s-.091.122.122.274.152.274.152.274"/><path class="cls-19" d="M67.68,43.8a1.938,1.938,0,0,0-.426.061c-.244.061-.305.182-.548.213s-1.036.243-1.036-.031.153-.395-.091-.517-.792-.244-.457-.487a1.2,1.2,0,0,0,.457-.67c.091-.213.061-.64.3-.64s-.03.061.548-.243a8.785,8.785,0,0,0,1.218-.609c.244-.213.67-.366.61-.548a.812.812,0,0,0-.426-.518c-.214-.061-.214-.091-.549.031s-.792.365-.792.487-.03.456-.03.456l-.305.153-.639.274-1.1.517a6.407,6.407,0,0,0-.639.823c0,.091-.214.3-.214.487a.339.339,0,0,0,.183.274s.3.121.3.274a1.8,1.8,0,0,1-.274.548H63.2s-.03-.274-.274.122a13.3,13.3,0,0,0-.792,1.157c-.121.3,0,.456-.243.517s-.792-.03-.792.061.183.152-.274.365-.609.244-.67.153a1.121,1.121,0,0,0-.3-.213l-.4.182s-.609-.152-.579-.274.762-.243.944-.426.092-.3.274-.731.031-.517.183-.883a1.555,1.555,0,0,1,.426-.578l-.122-.518-.456.244-.548.3s-.457.3-.67-.03-.3-.366-.3-.548a1.377,1.377,0,0,1,.366-.761c.152-.092.335-.061.457-.244a4.184,4.184,0,0,1,.274-.4,1.362,1.362,0,0,0,.182-.3l-.456.182.03-.152.335-.213s-.4-.122.457-.366a3.56,3.56,0,0,0,1.005-.365c.121-.061.761-.274.913-.365a6.109,6.109,0,0,1,1.1-.67c.609-.274,1.187-.974,1.431-1.066s1.766-.548,1.766-.548-.335-.335.091-.426.275-.03.609-.122a7.579,7.579,0,0,0,.822-.3l.579-.092s1,.031,1.218,0,.913,0,.913.092-.73.365-.243.487.7-.244.487.122-1.035.669-.944.943a7.516,7.516,0,0,1,.244,1.371c.03.426-.183,1.157-.183,1.492s.152.731,0,.944.213.121-.335.517-1.248.883-1.248.883A1.1,1.1,0,0,1,67.68,43.8Z"/><path class="cls-19" d="M60.707,43.582a9.046,9.046,0,0,0,1.127-.975s.3.335.3-.456.335-.183.244-.4.152-.7.244-.853.4-.761.7-.7.274.152.487.061.092-.518.4-.67a5.5,5.5,0,0,0,.73-.578,1.071,1.071,0,0,1,.7-.3c.3.031.487-.4.548-.487s.122-.3.7-.335.579-.244.609-.365.244.243.487-.061a1.5,1.5,0,0,0,.275-.731l.213-.213"/><path class="cls-19" d="M67.95,39.792c0-.183.217-.9.217-1.082a3.741,3.741,0,0,1,.244-.761s.091-.365.3-.213.3.061.548-.061-.122-.091.3-.3a.844.844,0,0,0,.488-.517l1.1-.579"/><path class="cls-19" d="M53.609,47.967a.514.514,0,0,0,.126.578c.274.3-.122.73.243.852s.427.457.64.609.578.457.578.457l-.487.365s.061.244-.609.487-1.4.549-.883.762.64.3.7.456-.031.274-.153.457-.274.061-.457.426-.669.548-.669.64.426.548.426.548"/><path class="cls-19" d="M55.623,41.6a.86.86,0,0,0-.518-.061c-.274.061-.7-.153-.761,0s-.426.213-.457.3-.792.152-.487.4-.244.4-.213.609.578.091.121.335-.7.213-.608.3-.4.031-.122.3.639.3.639.517-.183.214-.183.3-.091.487-.3.548-.639-.3-.792,0,.3.639-.426.67-1.34.03-.578.335.335.578.335.578-1-.03-1,.183-.64.213,0,.213a6.91,6.91,0,0,1,1.279.031c.152.06.852.3.852.3h.487c.092,0,.335.578.518.183s-.061-.579.183-.548a.463.463,0,0,0,.456-.4c0-.152.244-.213,0-.366s-.3-.121-.121-.487.243-.243.213-.791-.213-.762,0-.975-.061-.395-.092-.487.518-.335.64-.426.457-.487.67-.639-.427-.153-.518-.3S55.288,41.755,55.623,41.6Z"/><path class="cls-19" d="M53.156,43.277s-1.035-.274-1.248-.121a2.223,2.223,0,0,1-.822.182s-.366-.182-.4.061-.03.67-.183.822-.335.122-.639.244-.518.426-.091.609.456.274.822.182.3-.426.548-.578.274-.213.4-.213.3-.64.578-.518a1.508,1.508,0,0,0,.548.122l.122-.091"/><path class="cls-19" d="M51.664,43.094a1.888,1.888,0,0,0,0,.427c.031.152-.3.213.152.4l.457.182"/><path class="cls-19" d="M59.733,44.617s-.579.213-.426.457a.352.352,0,0,1-.153.487,1.093,1.093,0,0,1-.334.091l-.487.244s-.549.243-.457.061a5.191,5.191,0,0,1,.3-.792c.153-.213.153-.639.4-.639h.365S59.946,44.13,59.733,44.617Z"/><path class="cls-19" d="M59.942,47.8s-.544.289-.452.441-.4.792-.275.853.122.426.062.548-.4.243-.4.243a7.207,7.207,0,0,1,.914.427,2.433,2.433,0,0,1,.457.548,4.472,4.472,0,0,0,.334.456l-.243.3s.183.061.7.213a2.709,2.709,0,0,1,1.218.853,8.268,8.268,0,0,1,.731-.822c.3-.275.822.03.852-.427a5.211,5.211,0,0,0-.03-1.035c-.03-.244-.3-.426-.061-.518a1.191,1.191,0,0,0,.426-.3,2.473,2.473,0,0,0,.092-.67,4.6,4.6,0,0,0-.122-.518,2.2,2.2,0,0,1-.213-.517c0-.122.03-.244-.122-.365a1,1,0,0,1-.244-.366"/><path class="cls-19" d="M62.85,47.936s.2.365.415.365h.518l.365.091"/><path class="cls-19" d="M58.88,49.884a1.87,1.87,0,0,1-.7.122c-.426,0-.974-.122-.913-.03s.121.426.243.639.092.761.3.883a.83.83,0,0,0,.548.153c.274,0,.4-.092.548.152a2.026,2.026,0,0,0,.579.487.555.555,0,0,0,.213-.244c.091-.182.681-.41.681-.41"/><path class="cls-19" d="M53.883,52.778s.461-.123.643.029a1.113,1.113,0,0,1,.275.457l.7.152s-.274.4-.183.4.681-.32.681.077"/><path class="cls-19" d="M56.688,46.931s-.913.639-.974.731-.244.091-.244.274-.3.3-.3.426-.03.457-.03.457l-.67.609-.248.168"/><path class="cls-19" d="M54.526,47.662s.3.03.3.122.213.335.3.335.117.106.117.106"/><path class="cls-19" d="M44.7,51.955s-.1.243.263.457.426.243.426.456-.152.244-.213.4.122.183-.213.457-.457.213-.518.3-.456.3-.456.427-.4.73-.427.852a1.228,1.228,0,0,0-.121.4.382.382,0,0,1-.2.29l-.334.152"/><path class="cls-19" d="M50.975,60.207s-.255.426-.376.456-.122.183-.122.487.122.426-.061.579-.426.091-.518.274-.791-.031-.578.487a2.869,2.869,0,0,1,.335,1.1,4.112,4.112,0,0,0,0,1.066c.091.152.243.243.243.517s-.06.731-.06.731a.381.381,0,0,0,.334-.152c.153-.183.031-.609.275-.7s.426-.06.517-.152-.061-.365.122-.487a2,2,0,0,0,.3-.243"/><path class="cls-19" d="M60.658,67.606s-.133.73-.407.851-.457.275-.4.549.213.334.152.639-.335,1.248-.335,1.248-.03,1.127-.091,1.553-.183,1.035-.244,1.493-.4,2.131-.4,2.313.031,1.248-.091,1.279-.944-.244-.853,0,.092.67-.365.122a8.037,8.037,0,0,0-.852-.975c-.336-.3-1.492-1.278-1.8-1.491a15.1,15.1,0,0,1-1.339-1.1c-.275-.274-.67-.731-.914-.731a6.958,6.958,0,0,1-.914-.151s.122.06-.243-.213-.4-.549-.67-.549-1.157-.031-1.157-.031l-.274-.091a5.075,5.075,0,0,0,.183-.608,1.318,1.318,0,0,0-.426-.61c-.152-.06-.4.061-.4-.213s.091-.578-.122-.852-.7-.7-.213-.792.213-.609.487-1,.213-.578.457-.974a5.211,5.211,0,0,0,.4-1.37"/><path class="cls-19" d="M59,75.9a1.525,1.525,0,0,1,1.131.015,3.523,3.523,0,0,0,1.248.518c.366.061.822.183.975.213s1.1.213,1.339.274a12.808,12.808,0,0,0,1.4.061l1.035.03s-.03.579.3.213.244-.487.488-.548a1.987,1.987,0,0,0,.578-.335l.164-.09"/><path class="cls-19" d="M51.736,73.132a8.818,8.818,0,0,1-.072,1.08c-.061.274-.335.852-.061,1.127s.031.669.031.791-.183,1.005-.183,1.1-.182.884-.182.884v.578a11.428,11.428,0,0,0-1.523.974c-.061.153-.426.487-.365.67a.85.85,0,0,0,.243.457.833.833,0,0,1,.183.517l.548.214s.3.06.213.3-.487.365-.487.365l.03.792s-.182.913.031,1.005a.379.379,0,0,1,.213.334s-.4.366-.578.183-.518-.243-.518,0a1.235,1.235,0,0,0,.487.853c.244.122.335.061.335.274v1.126l.4-.243a.8.8,0,0,1,.639,0,4.069,4.069,0,0,0,1.218.122l.944.03s-.335-.517,0-.517a1.627,1.627,0,0,1,.67.182s.061.092.7-.4.335-.395.64-.487-.092-.4.4-.334.609.091.609.091l.316-.091"/><path class="cls-19" d="M57.872,77.882s.125,1.476.095,1.719-.3,1.218-.3,1.218a.856.856,0,0,1-.3.153c-.152.03-.365-.122-.457.274a.865.865,0,0,1-.365.578c-.152.152-.609.761-.609.761s-.152.518-.091.61.274.121.274.121.061.791.244.853.152,1.157.487,1.431.091,1.339.091,1.339a4.523,4.523,0,0,0,.67.335c.091,0,.609.579.7.67s.975,1.37.975,1.37.578.944.791,1.188a5.85,5.85,0,0,1,.457.639l.4.092,1.249.243a1,1,0,0,0,.183.4,2.662,2.662,0,0,0,.487.3l1.066-.091h1.857s.061-.548.274-.457a3.129,3.129,0,0,0,.731.122l.7-.091s.426-.213-.244-.518-.487-.579-.639-.762-.548-.7-.548-.7L65,88.919s-.427-.336-.031-.336a2.356,2.356,0,0,0,.67-.09l.122-1.249s0-.183.517-.426.7-.427.7-.7.03-.974.335-.944.7-.791.7-.791l-.031-.457a7.984,7.984,0,0,1,.244-1.492c.183-.579.091-1.005.4-1.127s.822-.273.822-.273l.513.03"/><path class="cls-19" d="M67.965,84.047h.72l.517-.426s-.061-.4.488,0,.152.486.7.486.822-.091,1,0,.467-.182.467-.182"/><path class="cls-19" d="M73.6,86.8a.593.593,0,0,0-.164.746,1.863,1.863,0,0,0,1.158.912,8.669,8.669,0,0,0,1.37.213s-.305.062.061.275a2.915,2.915,0,0,0,1.126.213h.274l.457.243a4.739,4.739,0,0,0-.548.61c-.366.456-1.066.974-1.188,1.157a1.913,1.913,0,0,1-1.126.426c-.366,0-.67.426-1.249.487a3.445,3.445,0,0,0-1.187.426s-.366.731-.548.822-.213.092-.122.792A12.059,12.059,0,0,0,72,95.586c.122.275-.06.518-.03.762s.433.518.433.518"/><path class="cls-19" d="M67.585,91.552a1.658,1.658,0,0,1,.917.594,1.244,1.244,0,0,0,.792.669c.182,0,1.4-.06,1.4-.06a.509.509,0,0,1,.457-.3c.335,0,.335-.061.457.031a5.1,5.1,0,0,0,.863.259"/><path class="cls-19" d="M65.3,92.055s-.168.167.4.487c.961.541,1.035.761.974.883s-.3.456-.3.456-.061.275-.092.458-.365.486-.365.486-.792,0-.061.4,1.1.335.731.518a6.589,6.589,0,0,1-.731.3s-.122.121.67.426,1.005.213,1.248.608.731.579,1.188,1.066a8.685,8.685,0,0,0,1.157.975l.392.167"/><path class="cls-19" d="M62.839,92.176a1.674,1.674,0,0,0,0,.975c.182.3.365.213.456.4s0,.335-.182.427-.244-.061-.64.121a.852.852,0,0,0-.456.609l-.031.914a5.215,5.215,0,0,0-.426.427c-.091.121-.487.243-.3.456s.03.243.06.487-.182.518.031.944.3,1.1.487,1.4-.335.273-.061.608.67.488.822.671-.065.274,0,.426"/><path class="cls-19" d="M61.967,95.572s.963.289,1.085.289.822.06.822.06-.152-.608.031-.67a2.711,2.711,0,0,1,.913-.213,4.884,4.884,0,0,0,1.1-.213"/><path class="cls-19" d="M63.581,95.876a7.785,7.785,0,0,1,.2.989c0,.213-.275.427.152.457s.517-.122.7.091.274.213.366-.152-.062-.487.3-.578a2.4,2.4,0,0,0,.757-.411"/><path class="cls-19" d="M63.052,95.861s.335.487-.061.578-.4.335-.4.335l.335.731s.274.121-.061.274-1.309.669-1.309.669"/><path class="cls-19" d="M61.3,96.835a3.673,3.673,0,0,0,.537.121c.122,0,.244-.213.335-.213s.468.047.468.047"/><path class="cls-19" d="M47.8,96.378a6.813,6.813,0,0,1,1.127,0c.213.061,1.005.427,1.005.427l.578.121a1.015,1.015,0,0,1,.427.213,8.257,8.257,0,0,1,.639,1.127c.091.182-.122.578.4.67A6.821,6.821,0,0,0,53,99.027h.244s-.061-.579.274-.517l.852.151.152.275.731.121a.848.848,0,0,1,.213.366,2.94,2.94,0,0,1,.061.975s-.152.578.031.791.365.457.365.457-.152.091.122.091,1.492.122,1.492.122-.092.213.243.4.213.3.944.488.518-.031.731.182a3.478,3.478,0,0,0,.913.457s.884.122.914.3.03.488.243.518a.878.878,0,0,0,.488-.152l.182-.335a3.875,3.875,0,0,1-.517-.426c-.244-.244-.853-.183-.518-.579a1.5,1.5,0,0,0,.213-1.126c0-.213-.213-.579,0-.579h1.188a.735.735,0,0,0,.365.487,2.09,2.09,0,0,0,.67.183s-.031-.274.609.061.761.335.852.4a4.612,4.612,0,0,1,.335.913,3.83,3.83,0,0,1-.03.639s-.457.427-.3.579.275.305.122.456a1.334,1.334,0,0,1-.365.245s.121.06-.457.151-1.157.214-1.157.214l-.335.121.122.518-1.005-.213-.365.243s-.274-.335-.7.122-.121.487-.548.549a5.8,5.8,0,0,1-.73.06l-.67.122s-.061-.182-.487-.457a4.344,4.344,0,0,0-1.218-.426l-.152.092L55.562,106a15.746,15.746,0,0,0-1.644-.608,16.932,16.932,0,0,1-2.467-.792c-.365-.244-1.37-.731-1.37-.731s-.639,0-.731-.183a1.062,1.062,0,0,0-.334-.334l-.553.319"/><path class="cls-19" d="M57.541,101.859s-.213.639-.092.822a1.577,1.577,0,0,1,.153.578l-.518-.031s-.913-.456-.944-.182a5.476,5.476,0,0,0,.061,1.035c.03.183-.091.7.274.944a4.353,4.353,0,0,1,.609.488s.239.35.361.5"/><path class="cls-19" d="M55.562,106s.091.671.152,1.036.426,1.065.152,1.065-.426-.03-.365.213a3.713,3.713,0,0,1,.274,1.036c-.031.3-.274.669.03.883s.366.274.366.517a4.645,4.645,0,0,0,.091.579c0,.091-.061.122-.213.152a.986.986,0,0,1-.426-.091l-.549.365"/><path class="cls-19" d="M55.775,109.349c.52.425.237.208.335.274a1.878,1.878,0,0,1,.487.67c.061.091-.061.426.426.548a.569.569,0,0,0,.67-.213.818.818,0,0,1,.64-.183,1.277,1.277,0,0,1,.547.426l.64.031h.548a3.02,3.02,0,0,1,.7-.731c.427-.3.3-.579.7-.579h.883a1.011,1.011,0,0,1,.639,0c.3.122,1.614.488,1.614.488a4.895,4.895,0,0,0,.274.791c.091.122.5.9.589.99"/><path class="cls-19" d="M59.151,106.807a.564.564,0,0,0,.278.532c.335.244.7.487.7.487l.853.792a7.511,7.511,0,0,0,.547.609,9.473,9.473,0,0,0,1.169.351"/><path class="cls-19" d="M62.972,105.833s-.072.166.323.349.975.122,1.066.243a2.733,2.733,0,0,0,.548.366v.731c0,.122,0,.913.152.944s.335.152.213.244a3.337,3.337,0,0,0-.456.487c-.061.091-.354.777-.354.777"/><path class="cls-19" d="M66.61,103.61s.522.075.826.136a1.974,1.974,0,0,0,.731.062,13.908,13.908,0,0,0,1.431-.4l.853.153.97.274"/><path class="cls-19" d="M79.251,104.569s-.64-.092-.823.426-1.1.791-1.1.791l-.244.548s.213.091-.152.214-.335.152-.548.152-.761.061-.761.061l-.4.182s-.548.366-.518.518-.243.061-.121.609.182,1.1.182,1.1a1.708,1.708,0,0,0-.335.426c-.182.305-.852-.335-.456.609a5.211,5.211,0,0,1,.456,1.188v.426s.487.244.609.335.3.091.457.213.487.639.913.122.67-.487.792-.883a1.82,1.82,0,0,1,.457-.761,1.968,1.968,0,0,0,.457-.944c.121-.487-.183-.305.335-1.187s.608-1,.608-1.127a3.294,3.294,0,0,1,.274-.762c.061-.091-.03.488.488-.151S79.251,104.569,79.251,104.569Z"/><path class="cls-19" d="M65.118,102.178s1.1-.258,1.161.229a7.278,7.278,0,0,0,.4,1.522,2.3,2.3,0,0,1,0,.914c0,.243.487.578.609.639s.761.061.457.426-.487.517-.548.731-.914.913-.944.426-.061-1.035-.061-1.187a.4.4,0,0,0-.152-.427,4.724,4.724,0,0,0-1.218-.486h0"/><path class="cls-19" d="M45.757,89.162s1.4.609,1.584.639a5.138,5.138,0,0,1,1.035.457c.183.121.822.183,1.066.366s.335.3.487.426a3.579,3.579,0,0,0,.639.3s.031-.395.031-.517-.579-1.462-.579-1.462a5.755,5.755,0,0,1-.4-.761c0-.091-.365-.335-.152-.761s.244-.579.335-.609.331-.548.331-.548"/><path class="cls-19" d="M50.325,90.258l1.157.213s-.366-.456-.183-.426.03.3.731.366a1.6,1.6,0,0,0,1.218-.579s.213-.731.426-.64a1.943,1.943,0,0,1,.609.609,1.468,1.468,0,0,0,.3.365c.183.183.183.245.518.245s.091-.032.578-.092a4.733,4.733,0,0,1,.792-.061,6.336,6.336,0,0,1,1.34,0c.548.091.67.031.822.091a7.144,7.144,0,0,1,.913.183c.092.092.605.077.605.077"/><path class="cls-19" d="M48.235,90.137s-.346.76-.042.882,1.066-.122,1.036.214a4.116,4.116,0,0,0-.092.883c.031.365-.244.73-.121.974a2.561,2.561,0,0,1,.182.548s-.578-.061-.67-.092-.639-.365-.639-.365l-.853.487-.517.884"/><path class="cls-19" d="M45.7,90.106l.822.578s.122-.335.182-.578.274-.822.274-.822"/><path class="cls-19" d="M47.341,95.191s.822-.122.913.03.031.67.3.548a2.038,2.038,0,0,0,.518-.365.446.446,0,0,1,.426.274c.152.3.243.334.426.334s.639.032.639-.091a3.981,3.981,0,0,1-.091-.821c.061-.092.183-.975.548-1.066a1.064,1.064,0,0,0,.578-.488s.3-.274.3-.4.213-1.127.213-1.127.366-.639.487-.914a2.867,2.867,0,0,0,.1-.9"/><path class="cls-19" d="M71.634,84.093a5.029,5.029,0,0,0,.582.593,6.274,6.274,0,0,1,.671.761l.03.274a.878.878,0,0,0-.183.427,3.148,3.148,0,0,0,0,.791l.818-.106"/><line class="cls-19" x1="72.898" y1="85.615" x2="73.567" y2="85.615"/><path class="cls-19" d="M37.137,61.851s.552.608.674.608a10.782,10.782,0,0,1,1.218.731l-.305.761.609,1.218a24.9,24.9,0,0,0,1.37,3.167,25.563,25.563,0,0,1,1.523,2.618c.456.762.426,1.919.608,2.041s.487.091.487.273-.03.579-.03.579c.092.152.822.152.822.152a5.828,5.828,0,0,0,.975.121c.182-.03,4.426-1.78,4.426-1.78"/><path class="cls-19" d="M33.213,65.321l1.675,1.614s.274-.609.456-.913.61-.579.823-.457.182.548.213.122a4.275,4.275,0,0,1,.061-.792,5.375,5.375,0,0,1,.365-1.218,3.769,3.769,0,0,1,.913.335c.092.122.487.518.487.518l.606-.335"/><path class="cls-19" d="M32.417,69.8a1.974,1.974,0,0,1,.766.456c.213.274.152.365.213.913a7.134,7.134,0,0,0,.243,1.34c.061.091.3.091.427-.183s-.092-.852.273-.578a.984.984,0,0,1,.3.914c-.03.091.335-.031.335-.031l.365.213.579.852,1.248.792s.366-.213.366-.426.487-4.2.487-4.2L39,66.174l.848.457"/><path class="cls-19" d="M31.488,72.467l1.055.741a5.5,5.5,0,0,0,.365.578c.092.091.457.609.457.609l.427.122.152.183v-.793l-.1-1.369"/><path class="cls-19" d="M32.33,77.349s.274-.58.365-.7.122-.4.366-.3a4.6,4.6,0,0,1,.517.244,3.583,3.583,0,0,0-.121.792c.03.183.091.731.091.731l.609.183-.031.608s-.365.457,0,.548a1.6,1.6,0,0,1,.61.3,3.061,3.061,0,0,0,.426-.791c0-.183-.015-3.167-.015-3.167L33.9,74.273"/><path class="cls-19" d="M35.158,77.532a1.643,1.643,0,0,1,.643.243,3.544,3.544,0,0,1,.727.5"/><path class="cls-19" d="M43.592,73.969s-.209.791-.209.882S43.2,75.887,43.2,76.1a2.932,2.932,0,0,1-.274.761l-1.248-.305-1.31-.486-1.248.213-.64.3-.548-.182-.182.456-.64.488-.487.791-.095.137"/><path class="cls-19" d="M32.92,78.749s.548-.532.7-.654"/><path class="cls-19" d="M40.368,76.07l.031,1.065a1.792,1.792,0,0,0,.3.822c.244.274.822.853.822.853l.153.639-.4.274-.67-.03s-.152.092-.487-.092-1.675-1.035-1.675-1.035l-.457.67-.944-.426s-.365.487-.395.122a3.2,3.2,0,0,0-.126-.655"/><path class="cls-19" d="M67.01,25.618l-.934-.406-.162-.244-1.015.447-.447-.285s-.771.244-.69.366.487.446-.528.731-2.72.933-2.923,1.015-1.379.04-1.5.324-.2.325-.488.325a2.051,2.051,0,0,1-.446-.04l-.488.162s.366.081-.405.122-1.015.04-1.3.04a1.921,1.921,0,0,0-1.339.285c-.69.4-1.868,1.055-2.273,1.3s-1.381.528-1.7.975.04.609.162.609-.447.609-.569.65-.406.649-.406.649l1.34-.69,1.665-.446h.73c.163,0,.69-.285,1.056-.122l.365.162a7.475,7.475,0,0,0,.974.284,2.519,2.519,0,0,0,.65-.284l1.137.365s-.853.163.04.325a9.477,9.477,0,0,0,1.827.122s.325-.447-.081-.528-.69.163-.406-.081,0-.487.812-.487h1.015s-.974.69-.447.568.69-.569.853-.731a4.44,4.44,0,0,1,.446-.365l.528.081a5.256,5.256,0,0,0,1.3.162,1.285,1.285,0,0,0,1.056-.689c.122-.325-.488-.65.162-.65h1.015s-.2.406.568-.041a5.973,5.973,0,0,1,1.624-.69c.122,0,.691-.162.812-.162s.285,0,.366-.122-1.1-.569-1.1-.569-.121-.689.366-.527a4.832,4.832,0,0,1,.934.447l.243-.325a1.8,1.8,0,0,0,.2-.366c.082-.2.406-.609-.081-.771a2.439,2.439,0,0,1-1.015-.65c-.365-.324-.324-.771-.974-.527S67.01,25.618,67.01,25.618Z"/><path class="cls-19" d="M38.751,63.038l.369-.355.568-.406,1.462.162a1.491,1.491,0,0,0,.852-.69c.2-.487.122-.771.569-.487a2.448,2.448,0,0,0,1.258.244c.122,0,.2.121.325-.285a11.435,11.435,0,0,0,.325-1.137A9.926,9.926,0,0,1,44.916,59"/><path class="cls-19" d="M69.137,64.211a.95.95,0,0,1,.39-.026,4.953,4.953,0,0,0,.629.061l.122-.041,1.36.041a1.9,1.9,0,0,1,.772-.487l.69.02.263.162s0,.02.326.041a3.013,3.013,0,0,0,.73-.1c.061,0,.69.041.69.041l-.162-.893.04-1.076-.507-.243s.041-.467.041-.548.2-.427.02-.468a2.082,2.082,0,0,1-.589-.223c-.061-.061-.121-.02-.365-.243a1.439,1.439,0,0,0-.446-.294"/><path class="cls-19" d="M72.775,58.745l.71-.2h.691l.06.244.183.263s.406-.04.487-.04.447.081.447.081l.67.122.06.507.3.2"/><path class="cls-19" d="M74.481,61.348a1.578,1.578,0,0,1,.567.239c.142.142.3.162.447.365s.223.386.284.406a4.245,4.245,0,0,0,.568-.041l.183-.223.243-.142a.643.643,0,0,0-.2-.365c-.163-.122-.711-.467-.711-.467s-.365-.2-.365-.284-.041-.325-.041-.325l-.04-.244a.777.777,0,0,1-.488.163,1.06,1.06,0,0,0-.568.2l-.166-.031"/><polyline class="cls-19" points="76.734 61.805 77.099 61.81 77.444 61.789 77.728 61.911 77.748 62.135 77.907 62.262"/><path class="cls-19" d="M81.686,63.312c-.244.244,0,.609-.244.67a1.5,1.5,0,0,1-.486.061c-.183,0-.731.3-1.219.426s-.365-.3-.609-.67-.548-.061-.974-.061-.244-.487-.365-.974.365-.67.791-1.157,0-.548-.243-.67l-.122-.325s-.325-.345-.508-.365A.632.632,0,0,1,77.363,60s.04-.1-.1-.467-.365-.528-.365-.73a.918.918,0,0,1,.122-.406s.243-.041,0-.183-.487-.3-.487-.3l-.1-.143s.021-.426.082-.466.324-.264.324-.264l.3-.325.02-.446h.1a.747.747,0,0,1,.2-.082,1.17,1.17,0,0,0,.284-.142s.589-.244.629-.345a.621.621,0,0,1,.508-.263,5.992,5.992,0,0,0,.689-.021s-.02-.2.183-.122a1.653,1.653,0,0,1,.569.386c.183.183.3.243.385.324s.549.529.549.529.405-.041.263.1a1.449,1.449,0,0,1-.487.243,5.337,5.337,0,0,0-.994-.02c-.041.061-.244-.061-.325.081s-.2.386-.2.386l-.386.081s-.345.142-.223.325.122.183.223.325a3.376,3.376,0,0,1,.3.406c.1.182-.142.264.264.325a4.87,4.87,0,0,0,.488.061l.142.121s.1-.143,0,.325l-.1.467.2.081s.366-.021.406-.122l.041-.1s.467-.284.609.02.589,1.015.589,1.015h-.325c-.061,0,.02.04-.346.04s-.344-.243-.445,0-.183.163-.183.407.446.426.446.426.061-.243.163.04.344,1.3.344,1.3Z"/><path class="cls-19" d="M88.933,61.444s-1.3-.588-1.4-.69a.263.263,0,0,0-.244-.061l-.771-.609-.2-.2c-.2-.2-.2-.1-.2-.1l-.264-.02-.1.061s-.488-.061-.488-.285v-.162l-.04-.2-.528-.081s-.143-.142-.264-.264-.122-.081-.284-.142-.162.2-.162.2l-.609.122-.122.325v.832h-.081l-.67-.1a7.4,7.4,0,0,0,.06-1.218,5.581,5.581,0,0,1-.019-1,2.955,2.955,0,0,0-.183-1.1c-.224-.731.243-.1.243-.1a7.544,7.544,0,0,1,.752-.2c.1,0,.284.325.284.325s-.1.507-.041.507.284.569.284.569h.873l.507-.284s.123-.2.224-.183.041-.163.325.04a2.2,2.2,0,0,0,.933.223l.021-.426.446-.04h.832l.549.162a5.235,5.235,0,0,0,.1.63c.041.081.245.182.3.223s.183-.041.305.223.405.325.467.386a3.665,3.665,0,0,0,.811,0c.062,0,.366-.02.366-.02l.182-.427.346-.345s.447.142.467.264.385.041.385.041h.142l.508.1.426.2-.975.69-.608.021s-.508.284-.528.365-.305.162-.365.406-.284.223-.2.3.367.3.367.3-.062.365.019.447.3-.122.183.122a4.429,4.429,0,0,1-.589.71s-.385.121-.385.223-.264.284-.264.284-.2-.548-.325-.589S88.933,61.444,88.933,61.444Z"/><path class="cls-19" d="M81.483,63.535s.385-.345.507-.324.183-.143.467-.143a2.249,2.249,0,0,0,.792-.3s-.547-.2.223-.162,1.036.06,1.137.142-.2.1.345.244a4.109,4.109,0,0,1,1.2.344,1.1,1.1,0,0,0,.508.2s.447.325.447.406-.2.974-.224,1.5.142,1.929.142,1.929l.1.122s.182.121.284.2.426.325.426.325a.414.414,0,0,1,.325.325,2.8,2.8,0,0,1-.081.873h-.487a1.155,1.155,0,0,0-.041.325c.02.081.183.2.284.284s.609.345.609.345.407.466.508.568.569.609.608.67a1.036,1.036,0,0,1,.1.447.584.584,0,0,1-.3.406,6.26,6.26,0,0,0-.609.284l-.024.812"/><path class="cls-19" d="M75.044,63.465l.37.578v.548s.264.345.385.385.325.1.325.1l.224.345s-.041.081-.082.183a.652.652,0,0,1-.162.2s-.264.182-.264.284-.061.446-.061.446l.02.386s-.142-.061,0,.122a2.3,2.3,0,0,0,.325.325c.061.061.244.162.285.243s.06.244.222.325a2.287,2.287,0,0,0,.549.122l.284.061a1.62,1.62,0,0,1-.1.609c-.1.142-.244.406-.244.406s-.142.182,0,.223a.807.807,0,0,1,.244.081,1.451,1.451,0,0,1,.264.2c.182.163.06.081.182.163a1.294,1.294,0,0,1,.264.3c.1.122.2.244.2.244"/><path class="cls-19" d="M79.814,73.888c0,.061-.5.568-.421.588a2.764,2.764,0,0,1,.69.325c0,.061-.183.162-.021.263a.537.537,0,0,0,.243.1l.2-.082.239-.162"/><path class="cls-19" d="M81.072,75.288l-.137.427a2.146,2.146,0,0,0,.081.426.878.878,0,0,0,.406.223c.1,0,.771-.081.852-.081s.589.081.589.081.406,0,.508.1l.1.1.345-.284s-.141-.407-.02-.609a2.79,2.79,0,0,0,.2-.427l.1-.263-.142-.67"/><path class="cls-19" d="M83.65,76.425l.086.284.406.163a.4.4,0,0,1-.081.263,3.935,3.935,0,0,0-.223.468v.527a.76.76,0,0,1-.061.305c-.062.1-.426.142-.548.365a6.789,6.789,0,0,1-1.4.832l-.529.183h-.324l-1.1.142-.366.263-.386.163-.1.082-.325.466-.345.02-.284.386-.284.426-.143.548-1.116.569-.3-.995a.785.785,0,0,0-.589-.385,4.537,4.537,0,0,1-.629-.041l-.589.223-.873.366-.237.02"/><path class="cls-19" d="M81.3,79.815l.325.568s-.467.163-.041.467a2.125,2.125,0,0,1,.528.467l-.045.569"/><path class="cls-19" d="M73.4,63.982s-.118.324-.2.3-.467.223-.467.366-.162.933-.183,1.1a6.456,6.456,0,0,1-.162.629l-.67.142-.345.325-.791.264a7.382,7.382,0,0,1,.324.812,1.762,1.762,0,0,1-.162.548l.853-.081.243.3a4.75,4.75,0,0,1,.487.3c.122.1.2.1.467.264s.325.141.447.263a8.151,8.151,0,0,0,1.36.406,1.691,1.691,0,0,0-.183.508c0,.162-.629.182,0,.365a6.425,6.425,0,0,0,1.035.224,3.181,3.181,0,0,0,.325.061c.061,0,1.117.04,1.117.04l.02-.325.649-.649.158-.466"/><path class="cls-19" d="M68.045,67.661l.67.244s.183.055.244-.026a2.614,2.614,0,0,1,.589-.244,2.079,2.079,0,0,1,.405-.162,4.984,4.984,0,0,0,.661-.324"/><path class="cls-19" d="M67.493,70.33l.329.594.589-.02.243-.426a2.384,2.384,0,0,1,.569-.3h.609s.02-.264.02-.345.2-.285.02-.366-.527-.933-.527-.933l.649.061h.325l.426-.122"/><path class="cls-19" d="M63.779,50.387a6.225,6.225,0,0,1,1,.1c.06.061.974.325,1.075.427a4.424,4.424,0,0,0,.467.324c.2.142.223.1.508.142a2.388,2.388,0,0,0,.71-.061l.122-.405.223-.264a.76.76,0,0,1,.305-.061c.1.02.75.2.75.2l.447-.041a1.443,1.443,0,0,1,.1.386c.04.264-.65.467.08.467s.61.467.61.467v.162l.365.1.325.1s.061-.122.3.082A9.136,9.136,0,0,0,72.8,53.1a2.181,2.181,0,0,0-.324.527,2.712,2.712,0,0,0-.1.691c0,.2.182.3-.2.3h-.893l-.141.62"/><path class="cls-19" d="M83.351,56.451a1.333,1.333,0,0,1,.183-.182c.08-.062.568-.326.568-.326l.568-.182.162-.345s.284-.3.345-.3H85.5a3.912,3.912,0,0,1-.2.549c-.06.081-.163.263-.081.344s.163.041.223.1.1.04.2.2a1.657,1.657,0,0,1,.1.609l-.081.365"/><path class="cls-19" d="M62.256,52.61l-.036.593s-.426.386.02.386a1.263,1.263,0,0,0,.609-.1l.629.2c.467.041.873.041.873.041l.447-.243s.792-.041.832.081a1.348,1.348,0,0,0,.162.345c.061.081.244-.061.2.264s-.183.446-.1.588.223.285.263.366.021.183-.2.183-.609.161-.63.324a1.729,1.729,0,0,1-.243.487l.426.122h.325l.092.229"/><path class="cls-19" d="M64.54,53.63a.582.582,0,0,0,.238.223c.161.081.466.325.466.487s-.264.325-.223.467a2.5,2.5,0,0,1,.04.467,1.292,1.292,0,0,0,.194.5"/><path class="cls-19" d="M62.119,53.554l-.264.177-.589.426-.386.2s-.528,0-.264.264a1.268,1.268,0,0,1,.3.691.381.381,0,0,0,.021.365c.122.142.487.467.487.467l-.081.162-.061.325s.832-.183,1.1.386.3.588.609.446a.871.871,0,0,0,.406-.345l.183-.041h.629l.284.1.5.239"/><path class="cls-19" d="M64.3,58.928s-.249-.021-.331-.021h-.69c-.122,0-.284.223-.284.223l-.244.062-.2-.143h-.3l-.406-.122a3.4,3.4,0,0,0-.406-.121c-.061,0-.264.02-.264.02h-.2v-.467a7.875,7.875,0,0,0,.183-.913v-.467l.284-.528"/><path class="cls-2" d="M67.538,64.956s-.528.122-.69.163-.447.1-.447.1-.426.243-.325.345.062-.081.1.1-.081.365.04.446.731-.061.731-.061l.021-.345a1.258,1.258,0,0,1,.324-.142c.081,0,.386-.1.386-.2A1.8,1.8,0,0,0,67.538,64.956Z"/><path class="cls-19" d="M67.676,44.8l-.179.467a1.534,1.534,0,0,1-.142.487c-.081.081-.1.507-.1.507s-.284.325-.284.406a2.21,2.21,0,0,0,.121.386l.163.243.345.082.446.182.325.1s-.04.284-.04.386-.325.71-.264.73-.041-.3.3.143a2.308,2.308,0,0,1,.406.669l.122.1-.3.223s-.223.061-.243.122-.061.325-.061.243c0-.177,0-.461,0,.3"/><path class="cls-19" d="M65.758,45.211A2.466,2.466,0,0,0,66,45.45c.081.06.183.324.3.385l.812.406.122.082"/><path class="cls-19" d="M64.665,45.713l.457.325s0,.182.1.223.3-.061.3-.061l.061-.243.447-.142.148-.01"/><path class="cls-19" d="M64.235,48.7a2.38,2.38,0,0,1,.5.1c.121.061-.041.04.121.061s.549-.244.549-.244l.243-.548.61-.269"/><path class="cls-19" d="M59.516,52.214l-.037.523-.629.344a.584.584,0,0,0-.1.325c.02.142.081.569.081.569s.162.162.244.223a1.8,1.8,0,0,0,.426.1,2.518,2.518,0,0,0,.385.082c.061,0,.528.02.528.02l.138.051"/><path class="cls-19" d="M54.218,51.285l.43.5a4.61,4.61,0,0,1,.65.1c.061.04-.1.183-.142.3s-.406.3-.406.3l-.182.361"/><path class="cls-19" d="M55.208,52.062l.557-.138.568.366.629-.061s.2-.061.244-.183a1.59,1.59,0,0,1,.284-.365l.245-.228"/><path class="cls-19" d="M56.517,54.132s.263.208.3.005.1-.67.1-.751a1.462,1.462,0,0,0-.2-.487,7.168,7.168,0,0,0-.772-.406c-.061-.02-.466-.122-.466-.122l.031-.385"/><path class="cls-19" d="M56.922,53.386s-.021.406.751.183a2.666,2.666,0,0,1,1.076-.163"/><path class="cls-19" d="M59.287,52.869a1.224,1.224,0,0,0,.314.091c.163.02.568.02.568.02l.386-.142.65-.1.284-.021.752.168"/><path class="cls-19" d="M56.82,54.807l.67-.406s.386.041.427-.122a2.507,2.507,0,0,1,.223-.467l.3-.061.371-.014"/><polyline class="cls-19" points="58.119 56.715 58.078 55.883 57.856 55.558 57.774 55.152 57.917 54.847 58.018 54.807 58.769 55.051 59.317 55.355 59.479 55.497 59.642 55.639 59.824 55.233 59.784 54.787 59.79 54.376"/><polyline class="cls-19" points="58.404 57.04 58.951 56.593 59.662 56.39 59.642 56.147 59.642 55.639"/><path class="cls-19" d="M58.5,57.542a3.3,3.3,0,0,1,.9-.015,2.777,2.777,0,0,1,.244.365l.182.691a2.386,2.386,0,0,0-.1.264c-.02.08-.122.223-.122.283s-.02.528-.02.528l-.386.2-.081.183-.207.315"/><path class="cls-19" d="M59.653,58.958l.78.254s-.04,0,.142-.041a2.626,2.626,0,0,0,.589-.345"/><path class="cls-19" d="M53.471,55.8s-.284-.3-.284-.1-.2.325-.2.447-.081.142-.081.243-.224.183-.122.264a1.785,1.785,0,0,0,.264.162.159.159,0,0,1,0,.143,3.477,3.477,0,0,1-.528.284l-.244.365s-.263.081-.263.162-.061.346-.061.407-.183.466-.143.548.183.122.244.182a1.737,1.737,0,0,0,.487.1,1.955,1.955,0,0,1,.1-.426c.061-.122.162-.407.243-.63s.224-.69.224-.69l.081-.121L53.146,57v-.365l.244-.223Z"/><path class="cls-19" d="M56.373,33.8s-.2.467-.019.609a5.77,5.77,0,0,0,.852.406l.061.081a.664.664,0,0,0,0,.223c.02.122.69-.142.2.2s-.771.589-.771.589a2.562,2.562,0,0,1-.772.224c-.284,0-.527.019-.751,0a2.846,2.846,0,0,1-.791-.488s-.041-.061.06-.284-.344-.264.122-.467a1.715,1.715,0,0,0,.609-.365c.1-.082.345-.244.345-.244l.284-.142Z"/><path class="cls-19" d="M70.572,37.584s.914-.061.944.121a.421.421,0,0,0,.213.274l.153.061.518.183s.426.3.517.4.274.335.274.335-.183-.153.274.121a.92.92,0,0,1,.487.64l-.213.365-.518.061H71.943l-.092-.122-.517-.365s-.4-.213-.366-.122-.061.244.152.4a2.532,2.532,0,0,1,.4.365l-.182.518L71.3,41.3l.244.183.335.213.456.3s.305.031.275-.182a1.931,1.931,0,0,0-.244-.548l.335-.092a1.812,1.812,0,0,1,.335.213,3.665,3.665,0,0,0,.609.3s.183-.061.121-.213a2.3,2.3,0,0,0-.182-.335s-.213-.274,0-.426.456-.3.456-.3l.4-.152.244.091.152.061h.244V39.5s-.213-.457.213-.365.578-.549.426.091-.03.487-.03.487l.7.183s-.426.091.061-.335.548-.548.639-.579.7-.487.7-.487a.934.934,0,0,0,.273.457c.214.183.275-.031.427-.031s.487-.213.578-.213.853-.061.853-.061l-.518-.4.518-.121.335.3.03-.457s-.03-.548.122-.517a6.285,6.285,0,0,0,.67.03l.822.031a.282.282,0,0,0,.152.274c.183.122.152.182.274.3l.122.122.3-.457a9.872,9.872,0,0,0-.671-.761,4.912,4.912,0,0,1-.517-.822l.091-.64s.092-.426.335-.395.884.213.884.335-.183.243-.153.4.061.03.335.608a3.522,3.522,0,0,0,1.035,1.1l.03.3s-.06.913-.06,1.005.213.426.365.335.487-.366.487-.366a1.607,1.607,0,0,0,.031-.243c0-.091-.122-.792-.152-.914a2,2,0,0,0-.183-.365l.669.122s-.243.3.4.457.334-.214.334-.214l-.426-.578s-.273-.244-.365-.244-.822.122-.822.122l-.518-.335-.426-.639-.152-.366h.791l.183-.03-.488-.579.153-.152s1.005-.213,1.1,0a4.228,4.228,0,0,0,.243.457l.366.213.487.335.061-.213s.061-.122-.152-.426a3.219,3.219,0,0,0-.7-.731,3.353,3.353,0,0,0-.761-.092c-.3,0-.7-.4-.7-.4s.274-.4.365-.4a3.477,3.477,0,0,0,.549-.213l-.153-.366s-.548-.4-.518-.517.64-1.127.64-1.127.457.152.487-.244a1.669,1.669,0,0,0-.426-.913s.335-.183.456-.152.427.335.61.182.365-.335.365-.335h.822s.488.244.518.335-.061-.121.152.366.213.548.274.7.213.67.213.67l.213-.274.213-.639s-.4-.4.03-.274a2.621,2.621,0,0,0,.549.121l-.061-.791.578.091.427-.061-.244-.517s-.213-.488-.122-.548,2.528.548,2.528.548-.122-.761-.335-.761-.426-.275-.213-.457a.359.359,0,0,0-.092-.609c-.243-.092-.792-.366-.792-.366l-.213-.517s.122-.244.244-.244a.853.853,0,0,0,.4-.122c.092-.061-.06-.852-.06-.852s-.944-.031-.487-.122a6.49,6.49,0,0,0,.73-.183s0-.578-.151-.578a3.722,3.722,0,0,1-.731-.274l-.213-.518-1.492-.03-.549-1.553s-.335-.4-.06-.365,1.339.213,1.339.213l.031.365s0,.091.243.213,2.071-.274,2.649.122a2.5,2.5,0,0,1,.792.761,1.725,1.725,0,0,0,.395.487c.305.275-.365.061.67.366s.762.03,1.035.3a7.253,7.253,0,0,0,1.157.731l.244.152c.487.3.487.031,1.035.4s.122.457-.121.4-.578-.152-.853-.213a6.232,6.232,0,0,1-1.127-.7,8.017,8.017,0,0,0,.61,1,2.228,2.228,0,0,0,.7.274c.273.061-.335-.183.273.061s.3,0,.884.335l.578.335.853.426s.334-.122.4.213-.031,1.523.152,1.645a12.772,12.772,0,0,0,1.248.487s-.121.091-.061.182a1.9,1.9,0,0,0,.457.609,3.2,3.2,0,0,1,.487.427c.244.243-.06-.214.426.426a7.973,7.973,0,0,0,.884,1.1.7.7,0,0,0,.395.213s.122.487.335.579,0,.152.213.091.336-.061.4.031.031.121.366.243.669.183.517.122a7.6,7.6,0,0,1-.822-.67s-.091-.64.092-.548a5.619,5.619,0,0,1,.578.4s.03-.122.274.091l.244.213s-.61-1.218-.3-1.035,1,.7,1,.7-.031.031.152.366.152.517.457.7.091-.031.426.213a2.718,2.718,0,0,1,.335.244c.426.334.487.243.762.578s-.062-.152.365.457.4.3.7.974,1.522,1.248,1.522,1.248.244,1.31.61,1.584.547.335.669.7.152.518,0,.4-.183.122-.639-.3-.488-.488-.914-.914a4.993,4.993,0,0,1-.64-.761.827.827,0,0,0-.213-.487c-.182-.152-.882-.761-.882-.761a.7.7,0,0,0-.122.609c.092.365.731.761.092.365l-.64-.4s-.366-.183-.457.031a1.174,1.174,0,0,0-.031.547s.153.427-.426-.152a6.071,6.071,0,0,0-.974-.822l-.488-.091s-.486-.487-.7-.244-.579.518-.579.67.244.4.366.579.3.122.486.395-.09.914.123,1.218a2.386,2.386,0,0,0,.608.548s.458.3.335.366-.091,0-.457.152a5.076,5.076,0,0,1-.882.244,1.967,1.967,0,0,0-.031.761c.061.457-.061,1.339-.274,1.309s-.639-.152-.609.091.488.366-.273.183-1.249-.3-1.371-.122a1.831,1.831,0,0,0-.153.64.53.53,0,0,1-.791.03c-.426-.4-.274-.365-.426-.4s-.4.4-.7.3-.456-.427-.456-.122-.731.639-.213,1.066.882.456.731.822a2.475,2.475,0,0,1-.579.73,4.83,4.83,0,0,0-.944-.152.849.849,0,0,0-.73.3c-.275.243-.579.335-.762.7s-.457.944-.457.944l-.335.213a.218.218,0,0,0-.213,0c-.121.061-.609.4-.882.03s-.4-.639-.61-.669a3.347,3.347,0,0,0-.882.213s-.183.548-.518.365a1.985,1.985,0,0,0-.7-.213s.213.457-.517-.152-.944-.944-1.309-1.1-.487-.457-.944-.335-1.066.852-1.279.639a1.307,1.307,0,0,0-.913-.365c-.214.061-.336.243-.579-.061s0-.579-.365-.426a7.91,7.91,0,0,1-.852.335,2.725,2.725,0,0,0-.61.3c-.274.152-.761.822-1.308.883s-1.554-.091-1.311.4.518.487.518.609-.365.3-.4.548-.73.792-.3.792,1.461-.244.883.3a1.633,1.633,0,0,1-.974.548l-.944-.122-1.005.092s.031.548-.274.365-.152-.213-.7-.426a5.978,5.978,0,0,0-1.339-.366,3.906,3.906,0,0,0-1.189.366c-.639.274-.669.456-.547.67s.06.547-.092.547.183-.547-.548-.4-.426.731-.426.913-.3,1.005,0,.974.487-.152.7.275.061.3.244.639a1.846,1.846,0,0,1,.213.548l-.142.213"/><path class="cls-19" d="M97.682,49.139s-.194.167.05.411a.456.456,0,0,1-.183.73c-.243.031-.579.335-.243.457s.548.243.487.4,0-.183-.365.182a3.167,3.167,0,0,1-.731.549s.731.334.578.7a3.1,3.1,0,0,1-.335.609l-.548.4s.213.334,0,.426a.333.333,0,0,0-.213.4c.03.121.456-.153.609.182a3.056,3.056,0,0,1,.182.883s.488.153,0,.335a5.271,5.271,0,0,1-.73.3c-.517.152-1.1.335-1.1.335s-.4-.335-.61-.274-.426.122-.426.122a1.343,1.343,0,0,0-.548.152c-.152.121,0,.3-.365.456a1.127,1.127,0,0,1-.67.153h-.852s-.213.061-.122.456-.02.427-.081.518"/><path class="cls-19" d="M106.243,41.878s.015.547.288.638a7.351,7.351,0,0,1,.944.64c.4.243.7.73.7.365s-.213-.914,0-.944.578-.061.7.213.426.061.153.518a.918.918,0,0,0-.091.822c0,.122-.122.822-.122.822l.305.944s-.64.152-.61.3a3.2,3.2,0,0,0,.761.853c.214.152.244-.609.214.152a12.735,12.735,0,0,1-.152,1.492c-.032.213-.3.365-.518.792s.122.639-.275,1.035-.486.4-.7.335-1.036-.4-1.31-.152a2.088,2.088,0,0,1-.64.365l-.944.913a3.734,3.734,0,0,1-.974-.456c-.669-.4-1.522-.7-1.826-.427s-.518.579-.731.335a2.5,2.5,0,0,0-.64-.578c-.487-.366-.547-.518-.791-.609s-.061-.4-.731-.426a2.014,2.014,0,0,1-.944-.214,1.3,1.3,0,0,0-.537.031"/><path class="cls-19" d="M86.964,64.546a4.553,4.553,0,0,1,.933.227.473.473,0,0,0,.64-.456c0-.274-.427-.548.03-.579s.426-.213.457-.487-.4-.213.122-.4A1.472,1.472,0,0,0,89.9,62.2"/><path class="cls-19" d="M87.319,69.523a3.429,3.429,0,0,0,1.339.366,5.079,5.079,0,0,0,1.309-.3c.153,0,.975.244,1.006-.244a2.46,2.46,0,0,1,.151-.821c.123-.457-.121-.853.336-.853s.03.335.457,0a3.346,3.346,0,0,0,.517-.457l.182-.3s.671.061.671-.274-.458-.488.06-1.066.7-.853.7-1.035a14.656,14.656,0,0,0-.122-1.7c-.061-.092-.335-1.31-.579-1.34s-.395-.213-.639.061a1.444,1.444,0,0,1-.731.548c-.487.213-.426.274-.64.274h-.761l-.156-.258"/><path class="cls-19" d="M91.973,59.293a3.736,3.736,0,0,1,.8.243,1.479,1.479,0,0,0,.67.244c.121-.03.639-.091.639-.091a.494.494,0,0,0,.488-.488c.03-.487-.427-1.035.181-.974s.427.4.914-.091.457-1.1.7-1.218a9.159,9.159,0,0,0,.791-.518l-.183-.609"/><path class="cls-19" d="M93.77,62.338a3.1,3.1,0,0,1,.643-.609,6.29,6.29,0,0,1,.974-.4s-.06,0,.122.243a1.252,1.252,0,0,0,.731.366,1.246,1.246,0,0,1,.517.213,4.433,4.433,0,0,0,.712.32"/><path class="cls-19" d="M94.287,59.643a.581.581,0,0,1,.247.228c.123.183.853.244.884.335a2.208,2.208,0,0,1-.061.518A1.242,1.242,0,0,0,95.3,61c0,.091-.457.517-.366.578"/><path class="cls-19" d="M97.469,62.475s-.073.532-.254.624-.458.213-.64.121-.731-.365-.639,0-.123.214.03.7a3.1,3.1,0,0,0,.4,1c.122.092.335.031.365.244a2.025,2.025,0,0,0,.335.609s-.122.579-.335,1.461-.3,1.31-.365,1.523-.183.944-.4.974-.914.092-.914.092-.426.365-.456.548-1.036.517-.488.822.914.518.914.518l.365.426.274.791s.64.335-.7.244-.944.365-.944.365l-.1.61"/><path class="cls-19" d="M97.409,62.49a1.213,1.213,0,0,0,.5-.152c.153-.122.64-.64.64-.64s.121-.456.3-.213a1.625,1.625,0,0,0,.67.4l-.274.792s-.579.487-.3.7.365.213.548.365.03-.274.183.152a.434.434,0,0,1-.213.579l-.214.335a5.7,5.7,0,0,1,.457.639l.365.305v.395c0,.092-.335.183.183.214l.517.03.275.03.182-.365h1.279s-.061-.3.122.031.913.487,1.1.517a3.784,3.784,0,0,0,.487.031,4.215,4.215,0,0,0,.883.061c.64,0,1.411-.6,1.533-.6a3.7,3.7,0,0,0,.69-.325s.365-.771.528-.69.65.365.65.365l.283-.933s.2-.487.325-.487.609-1.868,1.1-1.137a9.062,9.062,0,0,1,.649,1.055c.081.162,1.015-.2,1.015-.2a1.426,1.426,0,0,1,.406.812,11.742,11.742,0,0,1-.041,1.339c.041.244.446.894.446.609s0-.568.163-.324.609.974.609.974l.447.081.892.122s.853.082.853-.081-.771-.527-.608-.69.568-.163.731-.406a1.088,1.088,0,0,0,.243-.65,1.051,1.051,0,0,1,.365-.649s.081-.284.325,0,.6.66.6.66"/><path class="cls-19" d="M106.065,85.173a5.164,5.164,0,0,1-.691-1.1c0-.2-.487-1.015-.649-.731s-.406.447-.325.731a7.147,7.147,0,0,1,.162,1.259,3.534,3.534,0,0,0-.041.934c.082.284-.161.365.082.284s.731-.772.731-.772S106.024,85.661,106.065,85.173Z"/><path class="cls-19" d="M118.649,83.225a1.664,1.664,0,0,1-1.217-.366c-.731-.487-1.421-.933-1.421-.933s-.528-.163-.65-.041-.852-.162-.771.163-.284.649.2.649.894.041,1.015.325a7.215,7.215,0,0,0,.406.731l.244.365a2.93,2.93,0,0,0,.365.366,2.579,2.579,0,0,1,.651.852,2.946,2.946,0,0,0,.486,1.015c.284.284.488.325.65.649s.812.407.812.407.568-.407.568-.772.122-1.137.122-1.259-.61-.609-.61-.609.123-.486-.08-.649a7.2,7.2,0,0,0-.731-.447Z"/><path class="cls-19" d="M124.13,73.157s-.447-.2-.447.446-.08,2.436-.08,2.436-.488.406-.529.568-.69,1.665-.69,1.665a2.815,2.815,0,0,1-.081.609,1.557,1.557,0,0,1-.528.649s-.324.285-.324.487a3.5,3.5,0,0,0,.081,1.137,1.187,1.187,0,0,1,.2.894c-.082.365.406,1.1.609.73s.568-.934.568-.934.691-.487.691-.731a5.129,5.129,0,0,1,0-1.379c.121-.488.649-.813.649-1.178s-.081-1.787-.081-1.949.163-1.014.163-1.177S124.13,73.157,124.13,73.157Z"/><path class="cls-19" d="M114.9,74.091s.176-1.1.176-1.218a3.475,3.475,0,0,0-.528-1.016c-.243-.324-1.015-1.055-.731-1.583s.041-1.136.406-1.421.244-1.5.65-.73.447,1.3.649,1.624,0,.811.2.324.608-1.3.608-1.3,1.3.892,1.3,1.177a1.16,1.16,0,0,0,.2.771c.163.162.772.853.772.853l-.731.649s-.731.244-.609.569.488.771.488.974a8.012,8.012,0,0,0-.082,1.1"/><path class="cls-19" d="M123.034,62.439a.376.376,0,0,0-.366.488,16.2,16.2,0,0,0,.366,2.232,7.066,7.066,0,0,0,.812,1.015s-.243.933,0,1.177.812.041.852.447a12.914,12.914,0,0,0,.041,1.3c.081.324.2.933.2.933s-.081,0,.122.569.081,1.015.446.244.731-1.137.529-1.5a3.184,3.184,0,0,1-.488-1.176c-.122-.609-.284-.894-.284-1.138s-.569-.974-.69-1.38a16.238,16.238,0,0,0-.812-1.664Z"/><path class="cls-2" d="M123.642,83.631s.366.852-.2,1.258a.321.321,0,0,1-.03.021,2.525,2.525,0,0,1-1.269.385l-.041.487-.406.325s-.041.122-.081.244-.852.284-.852.284l-.568.731s-.488.405-.325.69.039.974.608.364,1.218-.973,1.259-1.257.771-.974,1.055-1.218.934-1.015,1.218-1.259-.366-1.664-.366-1.055"/><path class="cls-19" d="M110.911,63.937a2.032,2.032,0,0,1-.1.613,1.17,1.17,0,0,0-.162.852c.081.407-.609,1.056-.163,1.746s-.081.975.041,1.381.244.731.244.731a.4.4,0,0,1-.568-.285c-.163-.487.406-.609-.163-.487a1.325,1.325,0,0,0-.731.324s-.405.163-.405,0a3.1,3.1,0,0,1,.162-.609l.568-.892s.041.162-.406.2-.447.2-.691.121-.933-.08-.933-.324-.487-.447-.487-.447-.853-.081-.731-.081a2.415,2.415,0,0,0,1.583-.446c1.015-.569,1.381-.569,1.462-1.057s-.122-.487.162-1.1.539-1.359.539-1.359"/><path class="cls-19" d="M108.415,70.985a8.529,8.529,0,0,1-1.458-2.821,7.58,7.58,0,0,1-.081-1.057s0,.447-.405.487-1.015.122-1.381.122a3.281,3.281,0,0,1-1.461-.122c-.731-.243-1.786-.283-1.95-.405s-.893-.2-1.054-.447-.1-.354-.1-.354"/><path class="cls-19" d="M79.128,37.066s-.791-.457-.913-.761a2.318,2.318,0,0,1,0-.944s.091.091.213-.4a1.227,1.227,0,0,1,.365-.67,1.153,1.153,0,0,1,.609-.548.939.939,0,0,0,.64-.609c0-.122-.427.244-.427.244l-.548.213-.943.487a1.791,1.791,0,0,0-.244.579,1.156,1.156,0,0,1-.152.456l-.061.153.182.3s-.548.274-.548.64-.06.7.062.7a.83.83,0,0,1,.578.091c.183.152.426.426.518.426s.73-.091.73-.091Z"/><path class="cls-19" d="M76.844,37.919a1.743,1.743,0,0,0-.3.334c-.03.092-.426.4-.213.457s.365.122.487-.122a1.1,1.1,0,0,1,.487-.4S76.966,37.8,76.844,37.919Z"/><path class="cls-9" d="M72.43,30.915s-.7-.152-.7,0-.243.183-.243.183l-.3-.183s-.214.183-.336.183a1.926,1.926,0,0,1-.4-.091h-.609s-.335.244-.213.426-.092.67-.092.67l.183.091-.153.64s-.121.426.153.152.518-.548.761-.761a.307.307,0,0,0,0-.457.724.724,0,0,0,.244.243,1.929,1.929,0,0,1,.4.579s.366-.152.4-.274a1.926,1.926,0,0,0-.152-.578l-.487-.214.305-.121h.426l.213.091h.456S73.252,31.037,72.43,30.915Z"/><path class="cls-2" d="M84.152,29.789s-.457-.183-.639-.061a.271.271,0,0,0-.122.3s-.061.334-.091.243a2.456,2.456,0,0,0-.366-.4s-.639-.4-.639-.243a1.237,1.237,0,0,1-.031.274,5.34,5.34,0,0,1-.578-.457c-.061-.091-.67-.152-.548.122s.67.395.67.395l.273.092.3.152a.9.9,0,0,0,.183.091c.092.031.913.214.913.214l.244-.4S84.639,30.215,84.152,29.789Z"/><path class="cls-19" d="M88.6,26.653a5.979,5.979,0,0,0-.548-.3c-.152-.06-.456.335-.365.457s-.183.244-.061.487.274.518.274.518.3.182.427.061a1.026,1.026,0,0,0,.3-.518C88.628,27.2,88.6,26.653,88.6,26.653Z"/><path class="cls-19" d="M53.1,27.049A14.163,14.163,0,0,0,54.953,25.8a1.01,1.01,0,0,1,.639-.517,2.131,2.131,0,0,0,.914-.366c.061-.121.487-.639.609-.4s-.427.609.06.518.427.213.731.213.244-.182.7-.4a4.377,4.377,0,0,1,1.31-.4c.122.03,1.248-.274.883-.457a3.467,3.467,0,0,0-1.37-.03l.274-.457a7,7,0,0,1-1.127.274c-.822.152-1.157.152-.914.03s1.31-.426,1.31-.426a4.578,4.578,0,0,1,.426-.883c.122-.092,1.979-.244,2.466-.365a16.594,16.594,0,0,1,3.015-1.036c.761,0,1.552-.4,1.979-.4s1.8-.182,1.8-.182-1.035.426-.548.456a3.26,3.26,0,0,0,.974.061c.579-.061,2.01,0,2.132-.213s1.248-.487,1.37-.213.457.213-.031.457-2.009.122-1.735.3,1.279.183,1.127.335-.335.213-.335.3-.548-.122-.7-.213a2.867,2.867,0,0,0-.669-.366c-.183-.03-.64-.243-.823-.122a4.739,4.739,0,0,1-1.309.366c-.122-.031-.273-.244-.609-.122s-1.461.152-1.035.457.548.061.426.3,0,.366,0,.366-.852.609-.426.609.7-.457.7-.031.153.335.153.335a3.536,3.536,0,0,1,.639-.152,10.731,10.731,0,0,1,1.888-.091c.152.06.122.273.243.487s.518.395.457.7-.4.518-.609.639-.426.457-.761.4a3.352,3.352,0,0,1-.975-.4c-.121-.091-.152.031-.609-.152a.888.888,0,0,1-.547-.548.547.547,0,0,1-.67-.122.932.932,0,0,1-.031-.822l-.609-.03s-.426.517-.73.365.182-.548.182-.548.609-.243.609-.4-.122-.122-.243-.122-.427-.334-.427-.334a.861.861,0,0,1,.609-.183c.305.061.335-.122.335-.274s.122-.579-.517-.579a3.726,3.726,0,0,0-1.4.487c-.152.031-.7.183-.731.274s.67.183.761.061.64,0,.761.183.062.518-.152.518-.944-.244-1.065-.244a3.879,3.879,0,0,0-.64.213l-.3-.152s-.457-.183-.548-.122-.822.213-.914.274-.791.122-.609.335a.956.956,0,0,0,.64.3,5.444,5.444,0,0,0,.7,0c.122-.031.67-.7.974-.518s1.736.3,1.188.518a6.59,6.59,0,0,0-1.644.7c-.213.243-.031.578-.579.518a1.753,1.753,0,0,0-.913.121l-1.644.762a13.044,13.044,0,0,1-1.4.3,4.526,4.526,0,0,0-1.1.548l-.975.457s-1.156.274-.883,0,1.066-.427,1.066-.518-.639-.061-.852.061a5.37,5.37,0,0,1-1.492.487C53.461,27.018,52.608,27.414,53.1,27.049Z"/><path class="cls-19" d="M50.782,26.257s1.1.183,1.37-.091a7.23,7.23,0,0,1,1.735-.67s.974-.244.7-.031-.791,1-1.1,1a3.106,3.106,0,0,0-1.157.244c-.152.121-1.218.426-1.309.517s-.578.426-.548.609.091.366-.061.518-.852.365-1.035.548a2,2,0,0,1-.822.609c-.4.122-.64.274-.579.122s.609-.579.213-.609a2.383,2.383,0,0,0-1.248.639c-.03.091-.518.183-.639.457a2.419,2.419,0,0,1-.609.883c-.4.4-1.31.791-1.31.883s-.578.274-.761.487-.518.243-.213,0,.427-.792.67-.944a1.584,1.584,0,0,0,.426-.639,5.539,5.539,0,0,1,.64-.518c.426-.3.7-.974.882-1.035s1.858-1.1,2.193-1.218S50.782,26.257,50.782,26.257Z"/><path class="cls-19" d="M47.432,30.215a.249.249,0,0,0-.457-.03c-.274.335-.426.335-.761.67s-1.218,1-1.309,1.126-.335.092-.213.335.639-.091.731-.3a2.828,2.828,0,0,1,1.065-1c.3-.061.64-.487.883-.487S48.376,30.093,47.432,30.215Z"/><path class="cls-9" d="M43.048,33.382a.871.871,0,0,0-.457.091c-.274.122-.609-.152-.731.3a2.283,2.283,0,0,1-.365.761,1.579,1.579,0,0,0-.3.365c-.152.244-.822.457-.456.639s.3.214.578-.03a13.382,13.382,0,0,0,.914-1.1c.182-.213.792-.609.974-.792S43.84,33.047,43.048,33.382Z"/><path class="cls-20" d="M67.236,47.444a.284.284,0,0,1-.006-.05c0-.009-.006-.02-.009-.028s.008-.014.015-.023,0-.019.006-.026a.015.015,0,0,0,0-.02s-.01-.014-.009-.019,0-.006-.005-.014l0-.017s-.012.007-.014,0,0-.008,0-.009,0-.005,0-.012.005,0,.007-.011.007,0,.01-.006l.009,0,.006-.014,0-.006-.006-.009c0-.007-.021-.011-.03-.013s-.01-.014-.008-.02-.008-.029-.006-.04a.136.136,0,0,0,.008-.039.078.078,0,0,0-.016-.024c-.007-.007,0-.008-.01-.02s-.011-.006-.009-.015-.006-.006,0-.014.006-.006.008-.009,0-.007.009-.007.012,0,.012-.007a.012.012,0,0,1,0-.014c0-.006.009,0,.014-.007s0,0,0-.013l0-.012-.027.006c-.011,0-.007,0-.007-.013s.007-.018.005-.023l0-.01,0-.008-.01,0s-.012,0-.012,0l-.006.005-.016,0c-.011,0-.015,0-.018,0a.014.014,0,0,1-.013,0c-.009,0-.012.009-.015.007s-.007.005-.013.005a.047.047,0,0,1-.016,0l0-.01c0-.006.007-.015.012-.018s0-.017.01-.025,0-.015.01-.011.01,0,.015,0,.012,0,.012,0a.391.391,0,0,1,.019-.05.158.158,0,0,1,.016-.021l-.028-.008.006-.008c.009-.012.006-.016.015-.025s0-.019.007-.022a.021.021,0,0,0,.012-.01s0-.005,0-.005l-.007,0s-.007,0-.006-.009,0-.009.007,0,.01,0,0,0,0-.008,0-.01,0-.005,0-.005l.015-.008.013,0s.012,0,.012,0,.006-.008.006-.011l.005-.006V46.6s0,0,0-.008a.012.012,0,0,1,0-.014.017.017,0,0,0,.009-.016c0-.006,0-.007.006-.01l.015-.013v-.014l0-.011a.027.027,0,0,0,0-.013c0-.007,0-.009,0-.012l-.005-.011,0-.011a.03.03,0,0,0-.017-.008c-.009,0-.012,0-.009-.005s.008-.011,0-.014l-.01-.009c0-.005,0-.007-.007-.01l-.014-.013a.019.019,0,0,1,0-.018c0-.006-.008-.011-.014-.014l-.008-.008,0-.006s0-.01-.011-.009-.013,0-.015-.005,0-.011-.009-.01,0,0,0,0l.015-.027c.006,0,.006,0,.007-.007l0-.009s0,0,0-.012.006-.006.008-.009,0-.006,0-.009,0,0-.006,0,0,0,0-.007,0-.008,0-.009c-.021-.007-.025-.009-.026-.007h-.025s-.011.007-.012,0-.006,0-.008-.007,0-.009-.009-.007-.006.006-.006.006-.007,0-.007,0l-.009-.005s0,0-.007-.011-.009-.008-.011-.008l-.006-.009s0-.007-.009-.006,0-.008-.021-.007-.012-.011-.028-.016l-.007-.005-.015-.014-.007,0s0-.006-.01-.009-.009,0,0-.01-.008-.014-.013-.014a.016.016,0,0,1-.01-.008l-.008,0s-.01.009-.014,0,.01-.007,0-.014.007-.008-.008-.015a.01.01,0,0,0-.013,0c-.007.009-.008,0-.014.006s-.005.01-.007.012,0,.008-.008.01-.009.009-.015,0a.015.015,0,0,0-.012,0s0,.014-.005,0,0,0,0,0-.007.017-.011.01.01-.007,0-.014-.007-.016-.014-.01,0,.007,0,.011,0,0-.01,0,0-.007-.011,0-.007-.007-.009,0,0,.01-.007.005-.009-.005-.011,0,0,.005-.011.008,0,0-.007.011l0,.013a.022.022,0,0,1-.007-.02c0-.011,0-.012,0-.015l0,.005s-.009,0-.009.009,0,.01-.006.01,0,0-.014-.008-.016-.008-.011-.04,0-.018-.014-.022-.016,0-.026-.008l-.015-.011,0,0-.005,0h0s0-.005,0-.005,0,0,0-.005,0-.009-.008-.006l0,0s0,0,0-.007-.007-.008,0-.013,0-.006,0-.008V46l0-.007s.006,0,0-.007l0,0,0-.009,0-.01v-.009l0-.006-.006-.006s0-.008.007-.015a.017.017,0,0,0-.008-.016.021.021,0,0,1-.012-.015c0-.009,0-.01-.005-.015a.072.072,0,0,1-.018-.017s0,.005-.008,0l0-.009c0-.006-.009-.005-.006-.017a.112.112,0,0,1,.018-.03.145.145,0,0,0,.011-.024l-.014,0s0-.01-.009-.012a.048.048,0,0,0-.021.006l-.011-.007s-.006,0-.012,0-.008,0-.008,0v-.018a.019.019,0,0,1-.024,0c-.009-.012,0-.027-.008-.032s0-.013,0-.015-.007,0-.012-.011-.009-.007-.015,0l-.011.005h0l-.007,0s.006-.006,0-.009-.007-.015-.008-.02l-.019-.014s-.008,0,0-.013,0-.01,0-.013-.005,0-.007,0,0,0,0,0-.009-.006-.012-.007-.008.006-.009,0,.007,0,0-.009-.008.007-.014-.005a.1.1,0,0,0-.013-.02l.009,0s0-.012-.01-.019-.01-.014-.022-.015-.007-.013-.012-.022-.009-.005-.006-.015l-.008-.018c0-.007-.008,0-.009.005s-.01,0-.011.008.006,0,.01.023a.034.034,0,0,1-.006.026l0,.017s-.014,0-.017-.008,0-.01-.009-.012v-.011s.013,0,.006-.005h-.007V45.5s.008,0,.008-.006,0,0,0-.006,0,0,0,0,0,0,.006-.011,0-.014-.008-.011-.016,0-.017,0l-.017-.007s-.008,0-.01.009,0-.009-.016,0a.333.333,0,0,1-.033.027c-.006,0-.007,0-.01,0a.011.011,0,0,1-.011,0l-.019,0-.049.018a.008.008,0,0,1-.008,0h0l0-.016-.034,0,0,.019-.011,0-.01.009s-.006.009-.009,0l0-.008-.012-.005v.008l-.006,0c-.006,0-.011,0-.008-.006s-.006-.008-.007-.01l-.007,0s0,0-.01,0-.005,0-.011,0-.007,0-.008,0-.007,0-.007,0-.006,0-.014,0-.01,0-.015.007,0,0,0,.011a.022.022,0,0,0,0,.019.081.081,0,0,1-.02.008.01.01,0,0,1-.01,0c0-.005-.016-.007-.02-.01h0l0,0v0c-.009.007-.006.01-.006.014l0,.009a.093.093,0,0,0-.011.03v0l0,.007c0,.007,0,.008,0,.012s-.011.036-.018.053a.047.047,0,0,0,0,.033.083.083,0,0,1,0,.036.02.02,0,0,0,0,.017v.01a.04.04,0,0,1-.007.012l0,.011,0,.011a.033.033,0,0,0-.007.015l0,.015s-.005.008,0,.012,0,.018,0,.033-.006.038-.012.051a.123.123,0,0,0,0,.029.284.284,0,0,1-.011.046l0,.01h0l-.007.034-.009.037a.081.081,0,0,1-.035.045.183.183,0,0,1-.054.033c-.028.01-.028.024-.056.034s-.023.01-.037.014a.194.194,0,0,1-.047.008l-.01.007c0-.007-.009,0-.015.01a.1.1,0,0,1-.032.014l-.021.006a.531.531,0,0,1-.1,0,.09.09,0,0,1-.049-.019.082.082,0,0,1-.024-.021c-.008-.015,0-.022-.008-.036s.01-.015-.026-.027a.116.116,0,0,1-.054-.04s-.023-.035-.021-.051l0-.018a.025.025,0,0,1,0-.018.078.078,0,0,0,0-.022.042.042,0,0,1,0-.019.057.057,0,0,0,0-.028.028.028,0,0,1,0-.024c0-.01.006-.013,0-.017a.028.028,0,0,1,0-.021.053.053,0,0,0,0-.032h0s0-.015,0-.016,0-.007,0-.009v-.006l.007-.008s0-.01-.008-.01-.012-.009-.019-.015-.017-.014-.017-.019-.011-.009-.013-.015a.024.024,0,0,0-.009-.015L65,45.741c-.007-.007-.007-.03-.007-.03,0-.021-.014-.038-.013-.041l-.011-.017c0-.01,0,.005-.015-.025a.314.314,0,0,1-.035-.046A.135.135,0,0,1,64.9,45.5a.133.133,0,0,1,.014-.065.07.07,0,0,1,.023-.036c.009-.007.007-.011-.02-.011a.27.27,0,0,0-.069.012c-.015,0-.06.008-.082.014a.267.267,0,0,1-.045.007l-.026,0a.287.287,0,0,0-.038.008.161.161,0,0,1-.106-.01.047.047,0,0,0-.031,0,.346.346,0,0,0-.039,0c-.013,0-.026.007-.031.023s-.012.018-.018.026-.021.019-.032.03l-.008.009a.138.138,0,0,1-.027.027l-.016.009-.006,0,0,.006,0,.006,0,0-.007,0-.007.008a.268.268,0,0,1-.024.021.183.183,0,0,0-.02.017c-.007.008-.031.016-.037.033s-.013.049-.016.054-.018.036-.02.042a.187.187,0,0,0-.007.033.077.077,0,0,1-.009.027.152.152,0,0,1-.011.032c0,.009-.01.012-.014.02s-.014.011-.016.016a.04.04,0,0,1-.017.017c-.005,0-.01.007-.016.01h0l-.006,0a.162.162,0,0,0-.032.017.11.11,0,0,1-.033.02c-.011,0-.019.01-.026.007s-.009,0-.013,0l-.018.005c-.007,0-.01.007-.014.01a.064.064,0,0,1-.019.005c-.007,0-.015.006-.02.031a.378.378,0,0,1-.014.042c0,.007-.012.031-.014.038a.094.094,0,0,1-.014.032.144.144,0,0,0-.019.031.039.039,0,0,1-.011.021l-.01.01a.044.044,0,0,0-.011.018.018.018,0,0,1-.007.011.071.071,0,0,0-.011.017l-.006.017,0,.006,0,0s0,0-.005.008a.086.086,0,0,1,0,.017l-.006.016a.122.122,0,0,0-.009.029.218.218,0,0,1-.022.036.1.1,0,0,0-.019.041.418.418,0,0,1-.016.059.36.36,0,0,0-.017.046.156.156,0,0,0,0,.027c0,.007,0,.019,0,.029s0,.043,0,.052,0,.037,0,.045v0h.016a.081.081,0,0,0,.031,0c.006,0,.007,0,.01.007a.007.007,0,0,0,.012.005l.01-.012.006-.006,0-.005c0-.005,0,0,0,0l.006,0,0-.011s0,0,0-.007l0-.012c0-.005,0-.01.009-.008s.007,0,.01,0l.013,0,.007-.009s.008,0,.009-.007l.014-.01a.018.018,0,0,1,.013,0,.061.061,0,0,1,.014,0l.023,0s.013,0,.016,0l.014,0a.022.022,0,0,0,.012-.013c0-.006.011-.011.013-.015l.01,0s0,0,.008,0,.012,0,.013,0l.008-.007a.009.009,0,0,1,.01-.005l.007-.006h.008a.008.008,0,0,1,.008,0s.005,0,.007,0l.008.005s0,0,.006.006l.006,0s.006,0,.011,0,0,0,.009,0a.037.037,0,0,0,.014-.009s.008,0,.011,0,.009,0,.013,0,0,0,.008-.005,0,0,.007-.006h.008l.011,0,.012.012c.005,0,.01,0,.016,0s.006,0,.009,0h.019a0,0,0,0,1,.006,0c.005,0,.009-.005.009-.005l0-.007c0-.006.007-.005.009-.009l0,0s0,0,.007,0,.012,0,.015,0,0,0,.009,0,0-.005.006,0,.008,0,.01,0h.02l0,0,.011.011s0,0,.01,0,0,0,.008,0l0,.006a.011.011,0,0,0,0,.01c.006.01.012.012.015.012h.018l.008,0,0,0,.006.008s0,.009.011,0,.011.005.022,0,.015,0,.021.008.013,0,.015.006.01.008.013.011.01.005.016.011.009.007.013,0,0,0,.006.005.013,0,.014.011a.048.048,0,0,0,.007.016l.007.006,0,.01s.01.005.015,0,.014-.008.015-.007.006,0,.008,0,.006,0,.007.006l.017,0a.027.027,0,0,0,.015,0l.012.005a.009.009,0,0,0,.009,0l.012,0s.012,0,.013,0l.009-.006v-.006h0l0,0h0l.009,0,.01-.01.008,0,.005.011.01,0,0,.03c0,.006-.006,0-.007.006s0,.018,0,.022,0,.013,0,.014l.007.011.011,0,.006.01v.008h.01s0-.006.012-.006.01-.007.021-.008.011-.007.01-.012.005-.008,0-.011,0-.005.015,0,.036.014.038.013.013-.006.029,0l.024.009.005,0-.005,0,.005,0s.006,0,.007.013.008.014.014.017.012.006.016.015.011,0,.016.011.018,0,.023,0a.184.184,0,0,1,.028,0c.011,0,.025,0,.033,0a.172.172,0,0,1,.034.006c.008,0,.008.006.006.011a.077.077,0,0,1-.013.017c0,.008,0,.006,0,.012s0,.014.008,0,.016-.009.025,0l.015,0h0l.025.007,0,.007.044.014c.011,0,.013,0,.006.02,0,.008.011.012,0,.029s0,.008.006.01.017,0,.015.006,0,.01,0,.012l0,.013c0,.005.01,0,.012,0l.017.006.007-.005c0-.006.023-.008.031-.009s.005.005.009,0l.009,0,.009,0,0-.007a.047.047,0,0,1,.021.007s0,.007,0,.01v.013h.016c.009,0,.008,0,.011.015a.015.015,0,0,0,.018.009l0,0s.054-.006.059,0,.007,0,.009,0,0-.005,0-.011,0-.014,0-.013l.007,0,.007,0,.012,0c.006,0,.01-.008.009-.013s.006-.007.007-.011.006,0,.008,0l.015.007c.01.005.016-.007.017-.013L65.54,46.9l.008.007v.006c0-.007,0-.007,0-.006l0,0,0,0h.012s.006,0,.009,0l.011-.006s0-.01,0-.006,0,.015.008.012.012,0,.016,0a.009.009,0,0,0,0-.014c0-.006,0-.005.006-.007s0-.009.011-.006.012,0,.012.013a.01.01,0,0,1-.007.009s-.007,0-.006.007l0,.012,0,.005a.013.013,0,0,1,0,.007s0,.01,0,.015,0,0,0,.01l0,.005s0,.006,0,.012a.029.029,0,0,0-.005.014l0,.01s0,.007,0,.012,0,0,0,0l.006.012a.029.029,0,0,1,.007.018c0,.007.006.008.008.014s0,.007,0,.012a.012.012,0,0,0,0,.013s0,.006,0,.009v.012a.027.027,0,0,1,0,.013s0,.01,0,.013l0,.007.007,0,0,0s.007,0,.013.008a.026.026,0,0,0,.014.01c.007,0,0,0,.009,0s.006,0,.012,0,.012-.008.014-.005l0,.005s0,0,0,.009,0,0,0,.007l.005.008c0,.005,0,.008.008.013l0,.009a.035.035,0,0,1,.016,0l.013,0h0l.008,0,.011,0,0,.006.009,0,0-.007.013,0v.008a.022.022,0,0,0,.013.006c.011,0,.012,0,.018-.007s.019-.008.02,0l0,.015a.013.013,0,0,0,.009.01l.023.009.01,0,.012-.008.005.006-.005.009s0,0,0,.009l0,.014c0,.007,0,.007,0,.007l-.008.006,0,.008.012.008.012.011c0,.006.007.012.013.013s.015.009.017.009a.042.042,0,0,0,0,.007s0,0,0,.01l.006.011.007.009,0,.008,0,0,0,.01.018,0,.023.022c.006.006.014.023.017.026s.007,0,.011,0,.011.007.008.015,0,.005,0,.017a.27.27,0,0,0,.012.043.024.024,0,0,0,.013.017c.008,0,.009.006.012.013s.006,0,.009,0a.2.2,0,0,1,.011.021.054.054,0,0,1,0,.031c0,.007,0,.021.008.053s.017.026.017.026a.031.031,0,0,1,.012.007.036.036,0,0,1,.006.019c0,.007,0,.008,0,.013s0,0,.008,0,.014.006.024.008.012.014.018.022.009,0,.011.01.008.006.018.007.006.005.008.006h.008c.006,0,0,0,.012,0s.011,0,.012,0,0-.007,0-.008,0-.008.007-.005l.025.012.014.023.01,0s.011,0,.015,0,.013-.011.018-.011,0-.005.008,0l.008,0s0,0,.008,0,.006,0,.009-.005.007-.007,0-.012,0,0,.017-.023.02-.02.025-.019a0,0,0,0,0,.007,0l.009-.008a.033.033,0,0,1,.015-.011v0l0,0c.007,0,.007,0,.007,0s0-.007.011,0,0,0,.011,0,.013.012.022.01.01-.012.012-.011l.014,0,.01,0s.007,0,.006,0a.013.013,0,0,0,.007.01s.009.006.01.013.012.023.011.027,0,.006.006.007a.019.019,0,0,1,.009.009s0,.005.015,0,.012-.006.018,0,.006,0,.009,0H66.7c0,.015.009,0,.021.019s.017.005.024.013a.232.232,0,0,0,.069.023l.031-.057,0-.042.018-.014,0-.016s.047-.022.054-.027.009,0,.012,0h.009s.008,0,.008,0,0,0,0-.007a.13.13,0,0,1,0-.021s0,0,.006,0,0,0,.006,0l.006,0s0-.008,0-.013,0,0,0-.008.008,0,.014,0,.008,0,.014,0,.01,0,.01,0l.008,0c0,.006.006,0,.007,0s.006,0,.01-.009.007,0,.009-.012.006-.006.01-.013.008-.005.012-.011l.007-.007c.006-.005.005,0,.015,0s.007,0,.012.007.007,0,.007,0l.008-.007h.012l.007,0,0,0c0-.005,0-.005.008-.008s0-.006.009-.008h.007l.006,0c.005,0,.007,0,.011,0s.006,0,.008-.007,0,0,.007-.008,0-.007,0-.011,0,0,.01,0,.007,0,0-.007-.006-.006.017-.027S67.236,47.454,67.236,47.444Zm-.847-1.739h0Zm.127,2.006v0Z"/><path class="cls-21" d="M69.707,131.945a20.351,20.351,0,0,0-9.842,3.461,11.16,11.16,0,0,0-4.372,6.755s7.662,3.11,20.211,3.221,16.546-3,16.546-3-.512-2.9-4.847-6.85C82.4,130.974,69.707,131.945,69.707,131.945Z"/><path class="cls-21" d="M70.262,127.059l-.111,7.773a5.114,5.114,0,0,0,3.554,1,13.216,13.216,0,0,0,3.775-.667l.223-8.106Z"/><polygon class="cls-21" points="51.53 113.039 50.718 116.954 53.716 118.508 56.12 115.398 51.53 113.039"/><polygon class="cls-21" points="102.142 19.471 99.143 23.913 102.586 25.245 104.474 20.582 102.142 19.471"/><path class="cls-21" d="M101.424,14.727l-2.086,3.8a54.806,54.806,0,1,1-52.616,95.962l-2.085,3.8a59.137,59.137,0,1,0,56.787-103.57Z"/><path class="cls-22" d="M110.439,34.52a46.407,46.407,0,0,1,3.955,18.792c0,26.256-21.8,47.54-48.687,47.54A49.147,49.147,0,0,1,32.012,87.626a48.738,48.738,0,0,0,44.732,28.748c26.889,0,48.687-21.285,48.687-47.541A46.873,46.873,0,0,0,110.439,34.52Z"/><path class="cls-23" d="M46.211,76.621c.11-1.3,1.183-.856,1.48.112.429,1.4.751,2.659,2.525,9.678a.417.417,0,0,1-.765.18l-.591-2.364-2.34.441a22.691,22.691,0,0,0-.309,2.552c-.037.346-.837.36-.818.1Zm.346,6.605c-.019.1-.037.651-.037.764l2.174-.376-1.689-6.135C46.934,78.329,46.611,82.349,46.557,83.226Z"/><path class="cls-23" d="M51.325,81.692c-.076-1.622-.287-3.644-.287-5.145,0-.324,1.071-.2,1.489-.187.538.049,1.227-.072,1.227.564,0,.049,0,.184-1.938.033l.19,2.5,1.3.022a.434.434,0,0,1,.357.4c0,.331-1.217.179-1.608.224l.044.735c.1,1.82.087,2.351.087,4.172a.352.352,0,0,1-.336.348c-.132.013-.37,0-.43-.126C51.415,84.5,51.355,82.412,51.325,81.692Z"/><path class="cls-23" d="M54.945,85.137c0-2.681.1-5.384.18-8.053.025-.544.242-.524.742-.477l.124.011a1.8,1.8,0,0,1,1.783,1.819v.123a2.62,2.62,0,0,1-.986,2.271,4.637,4.637,0,0,1,.376.441c.519.654.394,2.264.451,3.034,0,.067.068.577.068.644v.09c0,.19-.183.232-.332.247l-.012,0c-.128.013-.28.029-.327-.125-.011-.374-.117-2.11-.141-2.5-.047-.558-.166-1.321-.905-1.311l-.2,0a6.28,6.28,0,0,0-.074.68c-.013.106-.076,2.715-.088,3.714,0,.223.038.465-.278.5a.426.426,0,0,1-.383-.12Zm.984-4.607c.859,0,1.177-1.482,1.177-2s-.259-1.235-.944-1.289a.258.258,0,0,0-.308.279c.013,1.017-.086,1.866-.086,2.908C55.768,80.517,55.854,80.529,55.929,80.53Z"/><path class="cls-23" d="M59.168,77.464c.075-.21.127-.216.347-.2.3.026.3.164.3.473,0,.032-.011.169-.011.19l-.31,7.314c-.022.474-.615.59-.615.275Z"/><path class="cls-23" d="M60.819,77.3a.249.249,0,0,1,.271-.275c.192.018.278.149.287.416l.095,3.416A20.513,20.513,0,0,0,62.7,77.793c.071-.27.08-.664.4-.634.121.012.352.092.233.508l-1.444,3.657,1.657,3.328a.318.318,0,0,1-.213.459c-.112.014-.155.019-.225-.1-.492-.944-.979-2.226-1.611-3.253v.082c0,.469.122,2.132.122,3.413-.1.288-.5.45-.523.04Z"/><path class="cls-23" d="M64.754,82.981l-.047.059-.136,1.07c-.016.142-.008.545-.242.571-.106.012-.179-.227-.179-.322.833-6.815.84-6.832.84-6.832.039-.173.094-.427.287-.407a.307.307,0,0,1,.237.161l.061.2A57.822,57.822,0,0,1,66.4,83.8l.043.574c0,.009-.007.01-.007.019-.05.174-.079.249-.217.265l-.022,0c-.044,0-.117.013-.125-.049l-.184-1.7Zm.119-.585.957-.018-.506-4.27Z"/><path class="cls-23" d="M44.555,73.89c1.135.173,2.234.208,3.28.337l1.053.131c.186.023.213.174.213.342,0,.263-.324.131-.484.113l-3.149-.3-.793.048-.033,0c-.186-.021-.274-.226-.274-.4C44.368,74.028,44.412,73.9,44.555,73.89Z"/><path class="cls-24" d="M81.456,57.477V55.354c0-1.533-.121-2.517-.121-4.049v-.546c1.394-.186,1.553-.072,1.553.168a.412.412,0,0,1-.106.274l-.955.027c-.06,0-.06.055-.06.087,0,1.14.086,1.978.138,3.152a7.988,7.988,0,0,0,1.018.016c.3.012.508.647.1.643l-1.116-.013.018,2.52c.209.073,1.329-.158,1.329.322,0,.131-.053.26-.169.277l-.044,0c-.328.019-1.566.084-1.575-.227Z"/><path class="cls-24" d="M84.4,50.748c.064-.222.11-.235.3-.242.267-.009.267.136.267.458,0,.033-.01.177-.01.2l-.276,7.578c-.018.486-.529.5-.529.184Z"/><path class="cls-24" d="M86.031,54.319c0-.348-.047-2.388-.066-2.914,0-.112-.056-1.1-.066-1.219v-.045c0-.257.245-.334.434-.342,1.324-.053,1.8,1.061,1.8,2.376a2.627,2.627,0,0,1-.962,2.216c1.119.589,1.395,2.464,1.395,3.75a.241.241,0,0,1-.286.275c-.118,0-.167-.007-.216-.192-.049-.859-.235-3.283-1.353-3.293-.01,0-.077.01-.1.01-.1,1.272-.019,2.559-.085,3.842a.281.281,0,0,1-.5-.023C86.04,58.087,86.04,54.992,86.031,54.319Zm.521-.269c.679-.158,1.057-1.046,1.057-1.763,0-.6-.213-1.849-.905-1.826-.038,0-.333.012-.333.1Z"/><path class="cls-24" d="M90.063,50.721c.061-1.074.675-.817.85-.025.259,1.169.457,2.238,1.6,8.541,0,.262-.318.448-.508.059l-.378-2.146-1.395.193c-.081.546-.152,1.58-.173,2.068-.02.279-.455.186-.445-.022Zm.194,5.432c-.01.082-.021.537-.021.63l1.29-.179-1.014-5.229C90.471,52.089,90.287,55.43,90.257,56.153Z"/><path class="cls-24" d="M93.5,58.875a5.972,5.972,0,0,1,.195-.966c.436-2.33.645-4.725,1.086-7.208l-1.6.046c-.172.005-.4-.024-.417-.2a.366.366,0,0,1,.331-.406c.736-.025,1.4-.073,2.124-.1.191-.006.246.065.269.248L94.2,58.616c.341.014.75-.128,1.107-.113.156.006.438.066.438.336,0,.368-.761.321-.95.348a4.725,4.725,0,0,1-.912.115.442.442,0,0,1-.38-.367Z"/><path class="cls-24" d="M97.194,50.345c.082-.251.139-.265.383-.273.338-.012.338.151.338.513,0,.037-.011.2-.011.225l-.35,8.53c-.023.547-.67.563-.67.2Z"/><path class="cls-24" d="M98.6,58.886l.059,0c.476.045.166.46.571.479,1.148.053.965-7.613,1.063-8.367.061-.5-.073-.7.305-.864l.049,0c.443.011.48.241.493.639L101,53.112c-.234,5.084-.381,6.907-1.821,6.834l-.1,0a.87.87,0,0,1-.806-.806C98.291,58.935,98.421,58.878,98.6,58.886Z"/><path class="cls-24" d="M102.907,57.243l-.077.076-.216,1.463c-.025.194-.012.753-.378.737-.164-.008-.277-.349-.277-.479,1.318-9.422,1.331-9.449,1.331-9.449.063-.251.153-.621.475-.634a.462.462,0,0,1,.4.181l.1.272a70.617,70.617,0,0,1,1.475,9.283l.08.871c0,.013-.013.013-.013.026-.094.249-.147.353-.4.341l-.039,0c-.079,0-.212-.01-.225-.1l-.329-2.532Zm.191-.8,1.617.073-.872-6.152Z"/><path class="cls-24" d="M88.764,48.488c.809-.007,1.639-.154,2.473-.2l.888-.046c.162-.008.186.157.186.347,0,.3-.282.2-.419.21l-2.48.175-.565.164-.023,0c-.128,0-.189-.187-.189-.36C88.635,48.656,88.666,48.516,88.764,48.488Z"/></svg>