<svg id="word" xmlns="http://www.w3.org/2000/svg" viewBox="0 0 160 160"><defs><style>.cls-1{fill:#fab216;stroke:#471246;}.cls-1,.cls-4,.cls-5,.cls-6,.cls-7{stroke-miterlimit:10;}.cls-1,.cls-4,.cls-5{stroke-width:1.002px;}.cls-2{fill:#581e57;}.cls-3{fill:#e43e31;}.cls-4,.cls-5{fill:none;}.cls-4{stroke:#ea2127;}.cls-5{stroke:#632762;}.cls-6{fill:#a7dff8;}.cls-6,.cls-7{stroke:#9c4c9c;stroke-width:0.401px;}.cls-7{fill:#ec3225;}.cls-8{fill:#016938;}</style></defs><path class="cls-1" d="M15.613,74.44s-.44,10.4,1.172,13.92,2.637,5.275,4.982,6.74S24.4,97.737,24.4,97.737v2.784h115.46a23.089,23.089,0,0,1,0-4.688,10.977,10.977,0,0,1,2.344-5.422c1.466-1.758,4.1-14.212,4.1-14.212s1.172-2.638,0-2.784-31.063-1.319-43.224,0-30.623,2.491-43.224,2.637-33.408-2.344-36.924-2.491A28.3,28.3,0,0,0,15.613,74.44Z"/><path class="cls-2" d="M27.042,97.884c9.18-.262,18.362-.4,27.545-.5,4.592-.07,9.183-.066,13.776-.078,4.589.006,9.19-.018,13.782.117,9.165.175,18.355.122,27.534.193l13.773.093,13.775.177c-9.182.26-18.364.4-27.546.5s-18.361.134-27.559.037c-9.167-.281-18.353-.184-27.533-.273l-13.773-.092Z"/><path class="cls-3" d="M99.867,73.746c-.443,1.207,1.461,10.292,4.245,16.885s3,8.865,4.209,9.89,3.118,0,3.118,0a5.294,5.294,0,0,1-2.491-.952c-.733-.733-3.59-9.964-3.59-9.964s-2.2-6.74-2.491-8.278-1.66-7.585-1.319-7.685,1.465-.587,1.465-.587S100.31,72.539,99.867,73.746Z"/><line class="cls-4" x1="23.885" y1="73.642" x2="25.576" y2="48.17"/><line class="cls-4" x1="137.227" y1="46.99" x2="137.227" y2="73.055"/><path class="cls-5" d="M12.822,45.841s48.039,11.738,75.586,9.54a366.219,366.219,0,0,0,53.507-8.78s.658,1.483,5.019,2.128,1.955-2.263,1.955-2.263"/><path class="cls-6" d="M121.161,76.472a10.024,10.024,0,0,0-8.178,4.173,9.548,9.548,0,0,0-1.788,5.569,9.969,9.969,0,1,0,9.966-9.742Zm.023,15.947c-3.78,0-6.845-2.8-6.845-6.241s3.065-6.241,6.845-6.241,6.845,2.794,6.845,6.241S124.964,92.419,121.184,92.419Z"/><polygon class="cls-7" points="115.361 82.898 117.164 81.128 114.687 78.809 112.543 80.853 115.361 82.898"/><polygon class="cls-7" points="116.003 90.254 113.478 92.419 116.003 94.551 118.493 91.917 116.003 90.254"/><polygon class="cls-7" points="126.673 78.098 124.502 80.853 126.86 82.689 128.782 79.937 126.673 78.098"/><polygon class="cls-7" points="124.502 91.636 126.642 90.254 129.16 92.027 126.642 94.352 124.502 91.636"/><path class="cls-2" d="M20.833,85.984l6.967-3.8.131-.072.077.135a49.375,49.375,0,0,0,4.8,6.985l-.434,0a33.766,33.766,0,0,1,3.96-4.071q1.072-.934,2.225-1.774a12.721,12.721,0,0,1,1.216-.82,1.461,1.461,0,0,1,1.724.168c1.474,1.244,2.837,2.5,4.211,3.8s2.707,2.622,4.018,3.975l-.614-.036,8.7-7.652.334-.294.325.283,8.271,7.23-.565-.04q5.6-3.612,10.868-7.718l.213-.165.237.119a25.482,25.482,0,0,1,9.333,8.047l-.473-.016a44.539,44.539,0,0,1,6.558-6.306,4.168,4.168,0,0,1,1-.618,1.448,1.448,0,0,1,1.216.02,2.859,2.859,0,0,1,.861.805l.709.884,2.82,3.55-2.97-3.425-.739-.859a2.651,2.651,0,0,0-.8-.71c-.639-.307-1.333.161-1.876.625a49.367,49.367,0,0,0-6.319,6.417l-.242.3-.23-.313a24.89,24.89,0,0,0-9.223-7.636l.449-.047Q72.311,87.1,66.691,90.782l-.3.194-.269-.234-8.3-7.2.658-.01-8.789,7.629-.317.275-.3-.311q-1.94-2.028-3.964-3.975c-1.344-1.289-2.739-2.585-4.1-3.8a.7.7,0,0,0-.891-.108,12.413,12.413,0,0,0-1.13.734q-1.143.8-2.215,1.691a33.12,33.12,0,0,0-3.968,3.915l-.224.261-.21-.265a45.265,45.265,0,0,1-4.64-7.19l.208.064Z"/><path class="cls-3" d="M48.873,100.521s-4.424,2.5-5.724,0c-2.051-3.939-5.118-10.842-6.144-16.888s.441-8.764.441-8.764.438-.575.951-.5a3.856,3.856,0,0,1,1.3.694,3.78,3.78,0,0,0-1.371,2.6c-.293,1.905.293,11.062,2.124,14.945s2.711,7.473,4.323,7.912A11.738,11.738,0,0,0,48.873,100.521Z"/><polygon class="cls-8" points="22.84 46.99 22.84 50.748 27.042 52.636 28.493 48.17 22.84 46.99"/><rect class="cls-8" x="8.155" y="44.392" width="8.951" height="3.779"/><polygon class="cls-8" points="134.285 46.655 135.574 50.184 140.168 50.517 140 45.824 134.285 46.655"/><rect class="cls-8" x="147.712" y="45.101" width="6.618" height="3.779"/></svg>