<svg id="word" xmlns="http://www.w3.org/2000/svg" viewBox="0 0 160 160"><defs><style>.cls-1{fill:none;}.cls-1,.cls-2,.cls-3{stroke:#9c4c9c;stroke-miterlimit:10;}.cls-2{fill:#a7dff8;}.cls-3{fill:#ec3225;}</style></defs><path class="cls-1" d="M74.636,17.254c-.148,14.281,3.321,53.7,3.237,59.36-.221,15-22.075,12.127-21.6-.675.14-3.756,7.546-45.064,18.362-58.685,2.554,4,16.4,14.722,28.5,12.273,15.753-3.19-15.62-10.12,8.3-18.985"/><path class="cls-1" d="M74.636,17.254c.411,10.952,6.8,30.751,10.374,41.112A91.5,91.5,0,0,1,89.424,98.29c-1.814,16.125-7.93,32.139-5.28,48.147"/><path class="cls-2" d="M80,30.737A48.562,48.562,0,0,0,40.374,50.955a46.262,46.262,0,0,0-8.663,26.982c0,26.069,21.62,47.2,48.289,47.2s48.289-21.132,48.289-47.2S106.669,30.737,80,30.737ZM80.109,108c-18.315,0-33.163-13.538-33.163-30.238S61.794,47.523,80.109,47.523s33.163,13.538,33.163,30.238S98.425,108,80.109,108Z"/><polygon class="cls-3" points="51.896 61.869 60.63 53.295 48.628 42.058 39.374 52.247 51.896 61.869"/><polygon class="cls-3" points="55.008 97.51 42.77 107.999 55.008 118.332 67.07 105.569 55.008 97.51"/><polygon class="cls-3" points="106.706 38.612 96.187 51.964 107.611 60.858 116.925 47.523 106.706 38.612"/><polygon class="cls-3" points="96.187 104.209 106.556 97.51 118.753 106.1 106.556 117.364 96.187 104.209"/></svg>