<svg id="word" xmlns="http://www.w3.org/2000/svg" viewBox="0 0 160 160"><defs><style>.cls-1{fill:#403a3e;}.cls-1,.cls-10,.cls-14,.cls-15,.cls-16,.cls-17,.cls-18,.cls-19,.cls-2,.cls-20,.cls-21,.cls-22,.cls-23,.cls-24,.cls-25,.cls-3,.cls-4,.cls-5,.cls-7,.cls-8,.cls-9{stroke:#9d4b9c;}.cls-1,.cls-10,.cls-11,.cls-14,.cls-15,.cls-16,.cls-17,.cls-18,.cls-19,.cls-2,.cls-20,.cls-21,.cls-22,.cls-23,.cls-24,.cls-25,.cls-3,.cls-4,.cls-5,.cls-7,.cls-8,.cls-9{stroke-miterlimit:10;stroke-width:0.253px;}.cls-2{fill:#fdebe2;}.cls-3{fill:#231f20;}.cls-4{fill:#fff;}.cls-5{fill:#c3996b;}.cls-6{fill:#9d4b9c;}.cls-7{fill:#353435;}.cls-8{fill:#b3c4da;}.cls-9{fill:#3b3833;}.cls-10{fill:#f9a533;}.cls-11{fill:#595046;stroke:#63b1e2;}.cls-12{fill:#aecbdc;}.cls-13{fill:#f9f3a6;}.cls-14{fill:none;}.cls-15{fill:#2a2823;}.cls-16{fill:#2e2b26;}.cls-17{fill:#14191f;}.cls-18{fill:#686f79;}.cls-19{fill:#323031;}.cls-20{fill:#2b2f33;}.cls-21{fill:#374353;}.cls-22{fill:#6f7062;}.cls-23{fill:#303338;}.cls-24{fill:#3e383c;}.cls-25{fill:#3b2314;}</style></defs><path class="cls-1" d="M113.1,116.1s6.139,7.5,7.673,9.037,2.217,4.007,3.326,4.007,1.875.341,1.875.938-.682,1.364-.426,2.132.6,1.875.6,1.875l6.479.171s0-1.364,1.365-.682,5.541.511,6.991.511,5.286-.937,4.6-2.131-7.247-2.9-8.185-3.5-8.7-7.332-9.634-8.781-6.31-7.588-6.31-7.588Z"/><path class="cls-1" d="M88.152,116.016s-.66,6.068-1.1,8.96-.88,6.985-.88,7.268a16.177,16.177,0,0,1,.22,1.975,16.182,16.182,0,0,0-.073,1.693s-.734.353-.66.988.293,4.516.293,4.516,5.136.211,5.209,0-.367-1.2.734-.847,2.641.423,3.008.776a7.588,7.588,0,0,0,2.641.635c.293,0,5.723-.353,6.31-.494s.733-.987.733-.987-.073-.988-.66-1.2-5.062-.635-6.236-1.411a18.208,18.208,0,0,1-3.228-3.1c-.147-.283.22-.847,0-1.553s-.661-.564-.441-.987.294-.776.514-1.129,1.247-9.878,1.247-9.878l1.541-6.209a28.6,28.6,0,0,0-4.182.071C91.16,115.31,88.152,116.016,88.152,116.016Z"/><path class="cls-2" d="M101.317,39.627a2.958,2.958,0,0,0-1.048,1.048c-.23.557-.492,1.377-.492,1.377l-5.669-3.54,1.54-3.736Z"/><path class="cls-3" d="M103.775,31.368l-.033.754a14.512,14.512,0,0,0,2.72.229c.459-.131.918-.459.82-.786s-1.639-.459-1.868-.492A12.515,12.515,0,0,0,103.775,31.368Z"/><path class="cls-2" d="M103.983,30.7s-.175,1.66.218,2.185,1.143,1.039,1.187,1.389-1.362,1.057-1.362,1.057.242.73.275.861-.224.256-.224.256.42.186.256.416a7.919,7.919,0,0,1-.951.827,1.4,1.4,0,0,1-.459,2,2.663,2.663,0,0,1-1.8.361,13.276,13.276,0,0,1-3.867-2.1c-.459-.491-2.131-2.261-2.131-3.015s-.327-3.015.394-3.9,2.556-2.359,3.605-2.359S103.983,30.7,103.983,30.7Z"/><path class="cls-4" d="M101.121,32.122s-.2.754.262,1.016,1.114-.557,1.114-.951a.9.9,0,0,0-.59-.917C101.448,31.073,101.121,32.122,101.121,32.122Z"/><path class="cls-5" d="M99.351,29.5s-1.475,1.082-1.7,1.7a10.847,10.847,0,0,1-.793,2.087c-.164.033-.928-1.267-.928-1.53s-.361,3.605-.492,3.933-.721,1.573-.721,1.573A33.481,33.481,0,0,1,92.8,34.383a19.253,19.253,0,0,1-.623-4.752c.164-.622,1.606-1.147,1.606-1.147l4.85.131,1.016.066Z"/><path class="cls-2" d="M96.155,31.794s-1.147-1.409-1.573-.852-.933,1.868-.442,2.556a13.4,13.4,0,0,1,.689,1.344c.262.36.819.524,1.015.2a1.977,1.977,0,0,0,.23-.754"/><path class="cls-6" d="M101.628,32.259s-.117.448.156.6.663-.331.663-.565a.534.534,0,0,0-.351-.547C101.823,31.634,101.628,32.259,101.628,32.259Z"/><path class="cls-7" d="M97.909,29.041a16.2,16.2,0,0,0,3.113,2.294,7.381,7.381,0,0,0,2.557.295,13.918,13.918,0,0,1,2.785-.229c.787.131.885.36.885.36s.393-.491.164-.622-2.556-1.934-2.556-1.934Z"/><path class="cls-8" d="M92.076,29.8a38.656,38.656,0,0,1,5.079-.623c1.508.033,7.865.164,7.865.164l-.163-3.113s-6.981.262-7.734.262-5.932.492-5.932.492l.852,2.687Z"/><path class="cls-9" d="M104.857,25.994s.458-3.015-.23-3.081-3.769-.852-4.162-.95-4.883-.2-6.063-.328-4.751-.95-4.751.819,1.54,4.523,1.54,4.523,5.637-.361,6.947-.361,6.719-.393,6.719-.393Z"/><path class="cls-3" d="M96.4,27.894s2.195.3,3.047.3,5.44-.2,5.44-.2l.131,1.212s-5.964,0-6.619-.065-2.163-.3-2.163-.3Z"/><path class="cls-3" d="M96.074,27.665a.545.545,0,0,0-.525.688c.132.656.623.787.951.524S97.09,28.091,96.074,27.665Z"/><path class="cls-10" d="M96.143,28.009a.284.284,0,0,0-.274.36c.068.342.325.411.5.274S96.674,28.232,96.143,28.009Z"/><path class="cls-11" d="M92.666,36.874l-1.311,3.572s1.278.786,2.228,1.311,5.08,3.179,5.506,3.473,1.049.558,1.049.23-.361-.885.065-1.606.983-1.147.852-1.639-2.72-1.573-2.982-1.769S93.19,35.759,92.666,36.874Z"/><path class="cls-12" d="M96.107,39.823l4.1,2.786s-.492,1.9-.819,1.8-4.392-2.622-4.392-2.622Z"/><rect class="cls-13" x="97.86" y="39.755" width="0.066" height="4.954" transform="translate(-6.805 62.355) rotate(-34.216)"/><path class="cls-9" d="M100.4,43.377s4.008,2.047,5.031,5.2,2.046,14.324,2.046,14.665.256,5.115.256,5.115,3.41,18.928,3.41,19.866A20.125,20.125,0,0,0,112,91.805c.085.341-6.48-12.7-9.72-14.835s-8.526-7.759-8.526-8.7-.085-13.215,0-14.664-6.906-9.976-6.906-9.976l4.6-3.581A66.335,66.335,0,0,1,100.4,43.377Z"/><path class="cls-14" d="M97.376,64.01l10.371.768.335,3.58s2.007-.426-2.677-.511-9.367-.085-9.367-.085l-.753-3.752Z"/><path class="cls-9" d="M90,70.916s-1.961,9.72-2.729,12.533S83.349,112.1,83.007,113.29s-.767,4.178-.767,4.178l2.558,1.7.341-2.472,1.364.085s-.17,2.9,1.108,2.984,4.69.511,5.2.511a41.889,41.889,0,0,0,7.759-1.705c3.41-1.108,6.053.512,11.51-1.108a39.154,39.154,0,0,0,9.975-4.775s-4.945-8.44-5.8-11-4.69-11.681-5.8-13.812-5.8-10.316-6.565-11.595S90,70.916,90,70.916Z"/><path class="cls-15" d="M88.294,91.293l-3.411,24.981,1.961.853s.6-2.473.938-4.093.512-14.408.512-15.6Z"/><path class="cls-16" d="M89.828,104.082S91.278,115,91.874,116.53s1.365,3.5,1.365,3.5l-2.984-.086s-.683-4.945-.683-6.65-.341-12.533-.341-12.533Z"/><path class="cls-17" d="M98.5,52.543s-2.373-.035-2.512-.524-1.186-20.792-1.186-20.792l3-.419,3.105,20.758s0,.314-.768.523S98.5,52.543,98.5,52.543Z"/><path class="cls-17" d="M97.344,54.051l-.3-1.674a9.856,9.856,0,0,1,1.605-.07,4.505,4.505,0,0,0,1.767-.372l.406,2.154Z"/><path class="cls-18" d="M96.62,31.3l-2.128.069s-.489-.244.035-.383,2.3-.489,2.651-.524.733-.174.8.07-.1.628-.209.558A5.26,5.26,0,0,0,96.62,31.3Z"/><path class="cls-18" d="M94.876,30.6s-.7-.384.034-.384.7-.418.7-.418l1.047-.07s.384.174.593.244.349.523.349.523l-2.861.349Z"/><polygon class="cls-18" points="95.538 28.157 95.608 29.797 96.62 29.971 96.411 28.122 95.538 28.157"/><path class="cls-19" d="M94.841,27.424s-.245.768.209.838a8.682,8.682,0,0,0,1.744-.175l.349-.279s0-.244.175-.279,1.43-.279,1.43-.279l.244.977L97.527,30.18a.438.438,0,0,0,.279.279c.244.105,1.709-2.023,1.919-2.3s1.011-1.012.453-1.256S94.841,27.424,94.841,27.424Z"/><path class="cls-18" d="M94.387,18.668l.907,8.826,1.186-.244-1.116-8.722S94.562,18.458,94.387,18.668Z"/><path class="cls-20" d="M91.282,6.423A16.651,16.651,0,0,0,90.968,8.9c-.035,1.151,1.221,8.163,1.221,8.163a.369.369,0,0,0-.383.244,3.257,3.257,0,0,0,.174,1.186l1.709-.279L92.434,9.737A15.046,15.046,0,0,0,91.282,6.423Z"/><path class="cls-21" d="M93.759,15.633l.349,2.546,1.43-.139-.314-2.407a1.011,1.011,0,0,0-1.465,0Z"/><path class="cls-22" d="M90.759,18.7s5.2-1.082,5.3-.663-.07.418-.07.418l-5.268.768Z"/><path class="cls-23" d="M92.076,18.877a4.929,4.929,0,0,1,.183.907,19.829,19.829,0,0,0,.314,4.047,7.173,7.173,0,0,1,.558,2.686c-.174.07-.244.244-.174.558a7.1,7.1,0,0,1,.1.838l2.059-.279-.244-1.326s-.349.035-.245-.489a27.016,27.016,0,0,0-.244-4.674c-.174-.7-.628-1.954-.628-1.954l.105-.453Z"/><path class="cls-17" d="M96.99,53.609l5.2-.938,1.449,15.261.853,11.169-3.837-1.023L99.292,65.715s-2.387.256-2.984-.852S95.541,56,95.541,56Z"/><path class="cls-17" d="M102.7,51.733s2.132-1.449,2.132,1.961,1.876,7.844,1.876,7.844L103.3,65.545l-.682-3.837s1.535.853,1.535-.938a78.051,78.051,0,0,0-.6-8.184c-.171-.256-1.79-.256-1.79-.256Z"/><path class="cls-24" d="M101.85,77.567a29.371,29.371,0,0,1,3.666,1.108c.853.426,2.387,4.178,1.79,4.178a8.553,8.553,0,0,1-2.3-1.024s-.17,1.876.256,2.388.256.767-.6,1.364-3.836,1.62-5.286.17A25.853,25.853,0,0,1,96.478,82Z"/><path class="cls-9" d="M106.369,54.8s2.813,1.62,3.666,3.752a29.746,29.746,0,0,0,1.7,3.581c.256.511.511.255-1.108.852s-3.07,1.194-3.07,1.194Z"/><path class="cls-24" d="M110.717,62.22s2.643,2.131,2.217,3.666-3.24,3.41-3.752,3.41-1.7-6.053-1.7-6.053Z"/><path class="cls-9" d="M95.029,43.8s-4.6-3.837-7.076-1.535-3.326,6.224-3.837,9.038a19.566,19.566,0,0,0-.512,6.906c.171,4.433,2.643,10.742,3.411,11.68s6.479,12.278,6.479,12.278,2.814.17,4.263-.768,5.116-3.751,5.116-3.751-4.945-3.5-4.945-5.372.682-3.922-.767-4.945-2.985-1.193-2.643-2.728a24.48,24.48,0,0,0,.426-4.689c0-1.109,1.62-10.231,1.279-11.766S95.029,43.8,95.029,43.8Z"/><path class="cls-1" d="M55.7,118.363s3.765,8.025,4.787,9.668,1.692,4.073,2.694,4.08.973.581.831,1.217-.94,1.447-.891,2.266.093,2,.093,2l5.815.222s.324-1.452,1.395-.718,4.886.579,6.2.588,5-.966,4.667-2.241-7.939-2.055-9.985-5.188c-.522-.8-3.781-7.6-4.285-9.144s-2.815-6.964-2.815-6.964Z"/><path class="cls-9" d="M52.869,47.427s1.534,6.31,3.495,7.162,2.643,2.217,3.752,2.814,1.961,1.279,1.961,2.3v6.224a2.64,2.64,0,0,1-.768,1.961c-.341.17-.426.6-.682-1.961s-.767-3.581-1.535-4.093-1.961-.085-2.557,0-2.814,0-2.814,0Z"/><path class="cls-24" d="M55.512,63.073s1.961-2.558,3.069-2.217,2.046,2.558,2.3,4.433-1.023,3.581-2.046,3.325a3.052,3.052,0,0,1-2.473-1.79c-.341-1.108-1.193-3.837-1.193-3.837Z"/><path class="cls-9" d="M53.465,68.87s3.24,14.409,4.6,18.246S69.92,114.569,69.92,114.569s-7.588,2.643-12.192,4.093-11.851,2.131-11.851,1.875a24.226,24.226,0,0,0-.767-2.3s-3.325,1.109-4.775.768-6.309-.256-6.991-.512.256-4.945.256-4.945,1.961-25.919,2.387-27.965,1.7-10.828,1.7-11.425,1.194-6.224,1.194-6.224Z"/><path class="cls-9" d="M48.094,43.761s4.007,2.046,5.03,5.2S55.17,63.286,55.17,63.627s.256,5.115.256,5.115,3.41,18.928,3.41,19.866a20.257,20.257,0,0,0,.853,3.581c.085.341-6.48-12.7-9.72-14.836S34.793,66.483,34.793,65.545s1.194-11.851,1.279-13.3-1.534-8.227-1.534-8.227l4.6-3.581A66.24,66.24,0,0,1,48.094,43.761Z"/><path class="cls-14" d="M44.6,64.394l10.572.767.341,3.581s2.046-.426-2.728-.511-9.549-.086-9.549-.086l-.768-3.751Z"/><path class="cls-1" d="M34.825,116.913s-.66,6.068-1.1,8.961-.88,6.984-.88,7.267a16.376,16.376,0,0,1,.22,1.975,15.981,15.981,0,0,0-.074,1.694s-.733.352-.66.987.293,4.516.293,4.516,5.136.211,5.21,0-.367-1.2.733-.847,2.641.423,3.008.776a7.594,7.594,0,0,0,2.641.635c.294,0,5.723-.353,6.31-.494s.734-.987.734-.987-.074-.988-.661-1.2-5.062-.635-6.236-1.411a18.244,18.244,0,0,1-3.228-3.1c-.147-.283.22-.847,0-1.553s-.66-.564-.44-.987.293-.776.513-1.129,1.248-9.878,1.248-9.878L44,115.925a28.6,28.6,0,0,0-4.182.071C37.834,116.208,34.825,116.913,34.825,116.913Z"/><path class="cls-16" d="M37.437,90.611l7.588,27.283s-3.24,1.109-3.922.682-.6-7.076-.938-9.8S37.437,90.611,37.437,90.611Z"/><polygon class="cls-16" points="37.607 102.207 36.584 118.321 34.708 117.98 36.754 87.286 37.607 102.207"/><path class="cls-24" d="M43.319,75.179a31.941,31.941,0,0,1,4.008,1.961c.938.682,2.216,1.876,2.216,2.814s-1.534-.341-1.364.938,1.023,1.279,1.279,1.62-.256,2.643-1.193,2.728-4.86.085-6.224-1.62a20.737,20.737,0,0,1-2.473-5.457Z"/><path class="cls-9" d="M39.483,44.23s-2.217-1.62-4.093-.682S33,50.284,32.15,52.074A40.953,40.953,0,0,0,29.763,60.6c0,1.108-1.364,4.689-.511,7.162s5.456,7.247,5.968,8.611,2.046,4.263,2.387,4.007,1.535-2.3,1.961-2.558,4.689-2.3,4.689-2.3-4.348-5.627-5.03-6.479-2.728-3.581-2.046-4.6,2.217-1.109.938-2.217,1.193-2.643,1.534-3.666.938-3.325,1.279-4.519S41.87,46.362,39.483,44.23Z"/><path class="cls-2" d="M49.011,40.01a2.964,2.964,0,0,0-1.049,1.049c-.229.557-.492,1.376-.492,1.376L41.8,38.9l1.54-3.736Z"/><path class="cls-3" d="M51.469,31.752l-.033.753a14.491,14.491,0,0,0,2.72.23c.459-.131.917-.459.819-.787s-1.638-.458-1.868-.491A12.527,12.527,0,0,0,51.469,31.752Z"/><path class="cls-2" d="M51.676,31.085s-.175,1.661.219,2.185a5.354,5.354,0,0,1,.8,1.837c.043.35-.978.61-.978.61s.114,1.05.146,1.181-.415.224-.415.224a.876.876,0,0,1-.128.543,2.848,2.848,0,0,0-.248.412,1.4,1.4,0,0,1-.459,2,2.664,2.664,0,0,1-1.8.36,13.3,13.3,0,0,1-3.867-2.1c-.459-.492-2.13-2.261-2.13-3.015s-.328-3.015.393-3.9,2.556-2.36,3.6-2.36S51.676,31.085,51.676,31.085Z"/><path class="cls-4" d="M49.166,32.729s-.2.754.262,1.016,1.114-.557,1.114-.95a.9.9,0,0,0-.59-.918C49.493,31.681,49.166,32.729,49.166,32.729Z"/><path class="cls-25" d="M47.044,29.884s-1.474,1.081-1.7,1.7a10.751,10.751,0,0,1-.792,2.086c-.164.033-.929-1.267-.929-1.529s-.36,3.6-.491,3.933-.721,1.573-.721,1.573a33.452,33.452,0,0,1-1.917-2.884,19.348,19.348,0,0,1-.623-4.752c.164-.623,1.606-1.147,1.606-1.147l4.85.131,1.016.065Z"/><path class="cls-2" d="M43.778,32.773s-.821-1.484-1.247-.927a2.039,2.039,0,0,0-.16,2.27c.491.688-.111.749.151,1.11s.819.524,1.016.2a1.987,1.987,0,0,0,.229-.754"/><path class="cls-6" d="M49.705,32.642s-.117.449.156.6.663-.332.663-.566a.533.533,0,0,0-.351-.546C49.9,32.018,49.705,32.642,49.705,32.642Z"/><path class="cls-7" d="M45.6,29.425a16.179,16.179,0,0,0,3.114,2.294,7.42,7.42,0,0,0,2.556.3,13.778,13.778,0,0,1,2.785-.229c.787.131.885.36.885.36s.394-.492.164-.623-2.556-1.933-2.556-1.933Z"/><path class="cls-8" d="M39.769,30.179a38.478,38.478,0,0,1,5.08-.623c1.507.033,7.865.164,7.865.164l-.164-3.113s-6.98.262-7.734.262-5.932.491-5.932.491l.852,2.688Z"/><path class="cls-9" d="M52.55,26.377s.459-3.015-.229-3.08-3.769-.852-4.162-.951-4.883-.2-6.063-.327-4.752-.951-4.752.819,1.54,4.522,1.54,4.522S44.521,27,45.832,27s6.718-.393,6.718-.393Z"/><path class="cls-3" d="M44.1,28.278s2.2.3,3.048.3,5.44-.2,5.44-.2l.131,1.213s-5.965,0-6.62-.066-2.163-.295-2.163-.295Z"/><path class="cls-3" d="M43.767,28.049a.544.544,0,0,0-.524.688c.131.655.623.786.95.524S44.783,28.475,43.767,28.049Z"/><path class="cls-10" d="M43.836,28.393a.284.284,0,0,0-.274.359c.069.343.326.412.5.275S44.368,28.615,43.836,28.393Z"/><path class="cls-11" d="M40.359,37.257l-1.311,3.572s1.278.787,2.229,1.311,5.079,3.179,5.5,3.474,1.049.557,1.049.23-.361-.885.065-1.606.984-1.147.852-1.639-2.72-1.573-2.982-1.77S40.883,36.143,40.359,37.257Z"/><path class="cls-12" d="M43.8,40.207l4.1,2.785s-.491,1.9-.819,1.8-4.391-2.622-4.391-2.622Z"/><rect class="cls-13" x="45.553" y="40.139" width="0.066" height="4.954" transform="translate(-16.073 33.009) rotate(-34.216)"/><path class="cls-17" d="M41.849,52.159s-2.372-.035-2.512-.523-1.186-20.793-1.186-20.793l3-.418,3.1,20.757s0,.314-.767.523S41.849,52.159,41.849,52.159Z"/><path class="cls-17" d="M40.689,53.668l-.3-1.675a9.939,9.939,0,0,1,1.6-.069,4.517,4.517,0,0,0,1.767-.373l.407,2.154Z"/><path class="cls-18" d="M39.965,30.913l-2.128.07s-.488-.244.035-.384,2.3-.488,2.651-.523.733-.175.8.07-.105.627-.21.558A5.215,5.215,0,0,0,39.965,30.913Z"/><path class="cls-18" d="M38.221,30.215s-.7-.383.035-.383.7-.419.7-.419L40,29.343s.384.175.593.244.349.524.349.524l-2.861.348Z"/><polygon class="cls-18" points="38.884 27.773 38.953 29.413 39.965 29.587 39.756 27.738 38.884 27.773"/><path class="cls-19" d="M38.186,27.041s-.244.767.209.837a8.607,8.607,0,0,0,1.744-.175l.349-.279s0-.244.175-.279,1.43-.279,1.43-.279l.244.977L40.872,29.8a.44.44,0,0,0,.279.279c.244.1,1.71-2.024,1.919-2.3s1.012-1.011.453-1.256S38.186,27.041,38.186,27.041Z"/><path class="cls-18" d="M37.732,18.284l.907,8.826,1.186-.244-1.116-8.721S37.907,18.075,37.732,18.284Z"/><path class="cls-20" d="M34.627,6.039a16.674,16.674,0,0,0-.314,2.477c-.034,1.151,1.221,8.163,1.221,8.163a.369.369,0,0,0-.383.245,3.257,3.257,0,0,0,.174,1.186l1.71-.279L35.779,9.353A15.046,15.046,0,0,0,34.627,6.039Z"/><path class="cls-21" d="M37.1,15.249l.349,2.547,1.431-.14-.314-2.407a1.013,1.013,0,0,0-1.466,0Z"/><path class="cls-22" d="M34.1,18.319s5.2-1.081,5.3-.663-.07.419-.07.419l-5.268.767Z"/><path class="cls-23" d="M35.421,18.493a4.929,4.929,0,0,1,.183.907,19.819,19.819,0,0,0,.314,4.047,7.18,7.18,0,0,1,.558,2.687c-.174.069-.244.244-.174.558a7.183,7.183,0,0,1,.1.837l2.058-.279-.244-1.326s-.349.035-.245-.488a27.032,27.032,0,0,0-.244-4.675c-.174-.7-.628-1.954-.628-1.954l.105-.453Z"/><path class="cls-17" d="M40.335,53.225l5.2-.938,1.449,15.262.853,11.169L44,77.694,42.637,65.332s-2.387.256-2.984-.853-.767-8.867-.767-8.867Z"/><path class="cls-17" d="M46.048,51.349s2.131-1.449,2.131,1.961,1.876,7.844,1.876,7.844l-3.411,4.007-.682-3.836s1.535.852,1.535-.938a78.074,78.074,0,0,0-.6-8.185c-.17-.256-1.79-.256-1.79-.256Z"/></svg>