<svg id="word" xmlns="http://www.w3.org/2000/svg" viewBox="0 0 160 160"><defs><style>.cls-1,.cls-6{fill:#434345;}.cls-1,.cls-2,.cls-3,.cls-4,.cls-5,.cls-7{stroke:#9d4b9c;stroke-miterlimit:10;stroke-width:0.709px;}.cls-2{fill:#f7ac9d;}.cls-3{fill:#fff0de;}.cls-4{fill:#8d8573;}.cls-5{fill:#c3996b;}.cls-7{fill:#fff;}.cls-8{fill:#9c4a9b;}.cls-9{fill:#9d4b9c;}</style></defs><path class="cls-1" d="M150.9,88.271c-1.112.858-5.277,4.24-6.422,5.047a11.05,11.05,0,0,1-1.838.915,2.964,2.964,0,0,1-.721.083c.224-.269.321-.412.443-.527.5-.477,1.016-.945,1.525-1.417a7.135,7.135,0,0,0,1.769-2.861,4.891,4.891,0,0,0-.531-4.568,10.691,10.691,0,0,1-1.283-2.263,5.408,5.408,0,0,1-.169-3.028c.114-.517.25-1.03.394-1.54a2.108,2.108,0,0,1,1.135-1.407c.4-.195.739-.511,1.128-.729a1.9,1.9,0,0,1,2.329.289,11.633,11.633,0,0,1,2.957,3.427c.161.335.263.7.392,1.053C153.763,82.373,152.512,86.324,150.9,88.271Z"/><path class="cls-2" d="M109.524,93.4s-1.318,3.087-.728,3.992,2.949,1.035,2.949,1.035l1.235-4.565Z"/><path class="cls-2" d="M116.258,96.148s-1.82,5.178,0,5.907a1.679,1.679,0,0,0,2.478-.953c.029-.226.893-5.086.893-5.086Z"/><path class="cls-3" d="M137.757,98.43s.295,6.855,1.965,8.719c2.643,2.95,3.441,2.676,2.23,4.974a33.167,33.167,0,0,0-2.13,5.863l-6.759-1.758,1.483-12.6Z"/><path class="cls-4" d="M134.023,115.274a14.3,14.3,0,0,1,4.223.407c1.685.547,2.293.74,2.293.74l-2.654,5.79s-2.176,1.468-3.673,1.222a3.522,3.522,0,0,1-2.226-1.308Z"/><path class="cls-3" d="M23.3,35.539s-14.225,5.51-11.685,8,3.44,2.136,5.013,1.4S26.317,40.9,26.317,40.9l1.649-5.6Z"/><path class="cls-5" d="M28.836,33.564A8.353,8.353,0,0,1,25.045,29.1c-.887-2.948.442-8.305-1.027-7.331-2.01,1.332-2.38,4.365-1.824,7.843s2.284,7.205,3.394,6.789S28.836,33.564,28.836,33.564Z"/><path class="cls-3" d="M54.336,85.514s1.792,22.636,1.9,26.27a23.954,23.954,0,0,1-2.3,9.88c-.94,1.8-3.547,6.828-3.547,6.828a42.245,42.245,0,0,1,5.586.313c1,.3,1.729.5,1.993.614s2.684-4.971,2.684-4.971.989,1.391.137-2.183-.527-8.2.346-9.8,1.268-8.83,1.626-10.077,1.614-6.469,1.614-6.469Z"/><path class="cls-2" d="M107.414,92.149a43.394,43.394,0,0,0,3.91,3.242,8.462,8.462,0,0,0,6.482,2c3.579-.218,10.273-5.066,10.419-5.246s-4.876-9.247-4.876-9.247l-1.791-1.426-3.8,2.312-10.922,7.577Z"/><path class="cls-2" d="M112.14,93.284s-2.611,5.3-1.2,6.708,2.883.363,2.726,0,2.215-6.02,2.215-6.02S113.665,92.562,112.14,93.284Z"/><path class="cls-2" d="M119.629,94.61s.211,6.784,2.111,6.827,1.318-4.544,1.318-4.544l-.528-3.49A3.258,3.258,0,0,0,119.629,94.61Z"/><path class="cls-3" d="M31.263,59.094s2.729,2.112,3.937,3.222,3.025.4,4.119,2.059,2.837,4.992,3.547,5.924-.419,1.039,2.048,1.73,3.3,3.637,4.088,4.98,3.684,9.449,6.021,12.6,7.744,7.3,9.823,7.83,7.2,2.5,7.2,2.5l5.509,7.054s7.1,11.561,7.768,13.8,1.05,4.009,0,5.371-5.2,5.566-5.2,5.566l6.51.827,1.382.62a10.156,10.156,0,0,1,3.023-5.342c2.407-2.009,3.069-4.6,1.528-5.71s-3.57-3-2.932-4.454-2.2-8.636-2.918-11.677a86.618,86.618,0,0,1-1.213-9.358s9.965.575,17.984-3.262A180.574,180.574,0,0,0,121.386,82.98s1.444,5.421,3.939,8.619,5.567,5.278,5.989,7.14-2.431,10.413-2.18,13.611.07,4.878-.906,6.114-3.793,5.273-3.793,5.273l-1.293,2.087s4.507,1.132,5.086,1.132,3.086-.376,3.086-.376,1.41-3.631,1.967-4.53.651-.3.817-2.678.177-5.688.391-6.805a92.931,92.931,0,0,1,4.223-12.05,70.2,70.2,0,0,0,3.223-9.289c.845-2.556-2.192-3.068-2.587-6.319s1.432-14.074,2.386-17.439c.73-2.579,2.257-17.945.933-21.888S137,34.391,130.881,33.521s-22.736,3.011-28.305,4.553S80.889,43,74.832,43.305s-15.7-.262-15.7-.262L45.388,41.479s-2.044,7.714-2.372,9.287-1.309,4.516-3.165,4.969S31.263,59.094,31.263,59.094Z"/><path class="cls-4" d="M80.879,130.521a14.921,14.921,0,0,1,4.362.47c2.414.617,3.162.852,3.162.852s-.605,5.1-1.706,5.834a11.043,11.043,0,0,1-5.818,1,13.652,13.652,0,0,1-3.856-2.05S79.489,131.6,80.879,130.521Z"/><path class="cls-4" d="M123.547,124.684s-3.766,6.666-3.425,7.343,1.527,1.219,3.425,1.005,6.5-.358,7.253-2.108a29.647,29.647,0,0,0,1.186-5.982,25.013,25.013,0,0,0-4.781-1.043A8.091,8.091,0,0,0,123.547,124.684Z"/><path class="cls-4" d="M50.69,127.863a11.589,11.589,0,0,1,5.173-.562,11.211,11.211,0,0,1,3.033.659l-.61,7.023a17.1,17.1,0,0,1-4.9,1.6c-2.6.378-5.229-1.95-5.229-1.95S48.928,128.992,50.69,127.863Z"/><path class="cls-6" d="M115.074,35.505a1.93,1.93,0,0,1,.073.358,22.265,22.265,0,0,0,.682,4.194c.349,1.7.656,3.4.945,5.11a3.358,3.358,0,0,1-.281,1.977c-.29.63-.61,1.245-.927,1.861A3.661,3.661,0,0,0,115.1,50.8a2.508,2.508,0,0,0,.7,1.758c.627.645,1.256,1.288,1.874,1.943a1.368,1.368,0,0,1,.282,1.826,19.457,19.457,0,0,1-2.11,3.309,70.428,70.428,0,0,1-4.863,5.857A7.554,7.554,0,0,0,109.1,71.4a1,1,0,0,0,.046.284,9.288,9.288,0,0,1,.34,4c-.138,1.928-.777,2.7-2.748,3.467a16.066,16.066,0,0,1-2.643.65,2.8,2.8,0,0,1-2.372-.532,8.359,8.359,0,0,0-1.49-.915,7.246,7.246,0,0,1-2.768-2.865,10.058,10.058,0,0,1-1.4-3.437,7.482,7.482,0,0,0-1.316-2.689,4.273,4.273,0,0,0-2.4-1.516,18.732,18.732,0,0,0-2.182-.468,2.721,2.721,0,0,1-1.711-1.007c-.358-.443-.759-.847-1.133-1.276a3.652,3.652,0,0,1-.932-2.424,16.341,16.341,0,0,1,.56-4.423,13.752,13.752,0,0,0,.268-5.591,11.617,11.617,0,0,0-1.3-3.412,23.293,23.293,0,0,0-2.673-3.77c-.363-.468-.738-.929-1.068-1.423-.382-.571-.253-1.323.386-1.426,2.131-.346,11.573-2.047,14.3-2.774,1.371-.365,10.051-2.512,11.6-2.927,2.042-.546,4.119-.956,6.182-1.419A2.188,2.188,0,0,1,115.074,35.505Z"/><path class="cls-6" d="M49.959,44.874a9.075,9.075,0,0,1,2.045.6,23.448,23.448,0,0,0,3.272.408c.768.036,3.125-1.635,3.953-2.492.657.1,2.077-.081,2.877.034.572.083,4.867.207,5.579.287,2.674.1,7.116-.037,8.109-.151.94-.107.719.231,1.18,1.1a4.586,4.586,0,0,1,.228,2.893c-.112.883-.3,1.754-.413,2.636a5.785,5.785,0,0,1-.874,2.26c-.465.776-.893,1.576-1.331,2.37a3.743,3.743,0,0,0-.416,2.164c.059.721.106,1.443.189,2.16a2.23,2.23,0,0,1-.424,1.553,10.161,10.161,0,0,1-3.847,3.357,7.924,7.924,0,0,0-3.3,3.212c-1.039,1.908-1.16,3.086.164,5.193.608.968,1.235,1.922,1.851,2.885a4.036,4.036,0,0,1,.125,3.933A1.638,1.638,0,0,1,67.349,80.3a9.287,9.287,0,0,1-4.292-.689,3.082,3.082,0,0,1-1.584-2,9.209,9.209,0,0,1-.415-3.136,5,5,0,0,0-1.869-4.217,9.658,9.658,0,0,0-2.967-1.978c-.712-.282-1.463-.46-2.19-.7a8.467,8.467,0,0,1-2.544-1.312,2.6,2.6,0,0,1-1.052-2.1A18.784,18.784,0,0,1,50.66,61.3a22.071,22.071,0,0,1,1.168-3.775c.361-1.093.721-2.19,1-3.308a6.474,6.474,0,0,0-.188-3.693A19.782,19.782,0,0,0,50.142,45.3,3.1,3.1,0,0,1,49.959,44.874Z"/><path class="cls-6" d="M140.629,70.786c-.3-.639-.706-1.827-1.033-2.335a9.994,9.994,0,0,1-1.437-4.473,12.337,12.337,0,0,1,.047-2.155,3.8,3.8,0,0,0-.2-2.188,2.817,2.817,0,0,0-1.778-1.508c-.514-.141-1.033-.268-1.55-.4a2.052,2.052,0,0,1-1.657-2.107,7.83,7.83,0,0,1,.413-3.057c.17-.474.33-.954.464-1.44a3.85,3.85,0,0,0-.116-2.683c-.227-.5-.444-1.009-.689-1.5a4.435,4.435,0,0,0-1.183-1.4,16.2,16.2,0,0,0-3.114-1.888c-.852-.438-1.68-.928-2.5-1.431a3.817,3.817,0,0,1-1.345-1.439c-.573-1.048-1.156-2.09-1.706-3.151a3.42,3.42,0,0,1,.5-3.393,1.166,1.166,0,0,1,.6-.308c6.259-.781,8.663.473,9.763.922a24.21,24.21,0,0,1,5.94,5.994,20.751,20.751,0,0,1,2.158,4.594c1.171,2.316.6,10.841.168,14.616a35.873,35.873,0,0,1-.806,5.94c-.247.824-.186.843-.385,1.684A19.415,19.415,0,0,1,140.629,70.786Z"/><path class="cls-6" d="M82.317,72.751a11.156,11.156,0,0,1-.665,3.534,21.665,21.665,0,0,0-.8,3.726c-.17,1.312-.4,2.616-.609,3.921a11.414,11.414,0,0,0,.409,4.713,17.448,17.448,0,0,1,.374,2.562,25.788,25.788,0,0,0,.391,2.629,5.975,5.975,0,0,1,.009,3.062c-.166.537-.346.628-.826.385a4.637,4.637,0,0,1-.914-.647,6.773,6.773,0,0,1-1.653-2.013c-.825-1.587-1.707-3.145-2.632-4.672a7.138,7.138,0,0,1-.854-4.727,9.409,9.409,0,0,1,1-3.43,29.515,29.515,0,0,0,1.445-3.2,7.173,7.173,0,0,0,.569-3.095c-.066-1.057-.129-2.119-.1-3.176a6.415,6.415,0,0,1,1.617-3.758.773.773,0,0,1,.54-.229c1.231-.028,1.734.359,2.167,1.595a14.317,14.317,0,0,1,.471,1.813A6.982,6.982,0,0,1,82.317,72.751Z"/><path class="cls-6" d="M125.169,73.414c.068-.62.138-1.24.2-1.861.038-.358.062-.719.109-1.076a12.415,12.415,0,0,0-.542-3.76c-.081-.473-.223-.935-.292-1.409a38.945,38.945,0,0,0-1.183-4.074c-.4-1.539-.94-3.021-1.433-4.524a15.047,15.047,0,0,1-.454-2.258,5.044,5.044,0,0,1,.345-2.265c.393-1.31.833-2.606,1.268-3.9a3.108,3.108,0,0,1,.378-.769.775.775,0,0,1,1.3-.054,3.458,3.458,0,0,0,1.233,1.011,1.841,1.841,0,0,1,.836.923,4.94,4.94,0,0,1,.312,2.892,26.394,26.394,0,0,0-.56,3.269,8.457,8.457,0,0,0,.175,2.436,14.644,14.644,0,0,0,2.39,5.567c.86,1.194,1.784,2.349,2.539,3.611a14.43,14.43,0,0,1,1.954,3.648,4.551,4.551,0,0,1,.19,1.059c.023,1.348-.008,2.7.017,4.046.031,1.734.106,3.466.144,5.2a6.7,6.7,0,0,1-.081,1.432,1.348,1.348,0,0,1-1.317,1.178,3.131,3.131,0,0,1-2.685-.85,10.815,10.815,0,0,1-2.255-3.152c-.46-.944-.927-1.891-1.476-2.78A7.224,7.224,0,0,1,125.169,73.414Z"/><path class="cls-6" d="M91.148,77.483a13.6,13.6,0,0,1,.015-1.443,1.179,1.179,0,0,1,.33-.738.631.631,0,0,1,.832.146A17.835,17.835,0,0,1,93.7,77.154a2.415,2.415,0,0,1,.272.883c.089.42.133.851.217,1.272a4.648,4.648,0,0,0,2.738,3.313,8.85,8.85,0,0,1,2.006,1.408,3.72,3.72,0,0,1,.991,2.695c0,.12-.005.241-.011.361-.045.969-.046.951-.977,1.018-.735.052-1.466.153-2.2.234a2.163,2.163,0,0,1-1.855-.552,10.913,10.913,0,0,1-3-4.185,9.831,9.831,0,0,1-.567-2.3c-.15-1.262-.182-2.54-.265-3.811Z"/><path class="cls-3" d="M44.643,36.355s-5.882-6.934-11.054-5.021-7.7,4.912-8.022,5.863.275,3.348-1.146,4.85S18.026,50.9,18.026,50.9s-3.474,1.849-2.449,5.152,3.718,3.439,6.383,3.667c3.706.316,5.566,2.943,5.416,1.893s5.737-1.26,6.518-1.6,6.6-.3,9.14-5.929,1.97-9.022,2.638-9.5,6.129.85,7.063,1.336,6.121-.7,6.765-3.88-1.966-6.6-5.164-5.692a51.809,51.809,0,0,1-9.362,1.085Z"/><path class="cls-5" d="M38.147,33.521s.375,2.816,2.23,2.84a13.862,13.862,0,0,0,3.875-.644,14.614,14.614,0,0,0,.562-7.228c-.787-3.564-.249-6.221-1.73-6.729s-.872,5.419-1.844,7.3S38.963,31.884,38.147,33.521Z"/><path class="cls-2" d="M22.47,50.766s-5.885.987-7.93,2.686-2.183,6.1.43,7.867,5.523-2.023,8.086.348,5.966,1.176,7.722-.076,2.028-6.007.593-7.627S24.818,50.822,22.47,50.766Z"/><path class="cls-7" d="M36.706,42.921s-.174-1.4-.864-1.677c-1.442-.574-3.016,1.314-2.8,3.272s1.062,2.7,1.766,2.316A3.9,3.9,0,0,0,36.706,42.921Z"/><path class="cls-7" d="M27.255,41.978s-.841-2.29-2.295-1.362-2.181,3.031-1.513,3.955a1.882,1.882,0,0,0,2.562.236C26.637,44.369,27.255,41.978,27.255,41.978Z"/><path class="cls-8" d="M18,54.754l-.343-.09a6.341,6.341,0,0,0-.887-.171c-.346-.044-.813-.034-.971.175a.57.57,0,0,0-.094.186c-.038.129-.068.238-.121.372-.091.246-.214.5-.248.659-.036.121.006.225.14.419.13.174.279.362.434.535.052.065.16.159.231.24a2.633,2.633,0,0,0,.214.179,1.8,1.8,0,0,0,.473.246A1.709,1.709,0,0,0,18,57.429a1.106,1.106,0,0,1-.279.233,1.619,1.619,0,0,1-.964.243,1.794,1.794,0,0,1-.67-.191,3.052,3.052,0,0,1-.339-.2c-.1-.076-.169-.131-.283-.237a4.725,4.725,0,0,1-.54-.564,1.627,1.627,0,0,1-.24-.412,1.015,1.015,0,0,1-.04-.569,6.323,6.323,0,0,1,.3-.752l.132-.327a1.174,1.174,0,0,1,.283-.426,1.134,1.134,0,0,1,.841-.269,2.246,2.246,0,0,1,.662.143A3.8,3.8,0,0,1,18,54.754Z"/><path class="cls-8" d="M26.514,55.816a.374.374,0,0,0,.038-.343c-.051-.23-.3-.39-.682-.4a1.777,1.777,0,0,0-1.148.188.83.83,0,0,0-.219.508l-.029.187-.008.164-.019.413-.015.207,0,.052V56.8c-.007-.11,0-.023,0-.045l0,.026.012.1a1.549,1.549,0,0,0,.085.314,1.89,1.89,0,0,0,.339.575,1.706,1.706,0,0,0,1.033.587.67.67,0,0,0,.733-.306.5.5,0,0,0,.066-.35.525.525,0,0,1,.064.4.775.775,0,0,1-.252.428,1.04,1.04,0,0,1-.612.24,1.946,1.946,0,0,1-1.479-.56,2.206,2.206,0,0,1-.667-1.23l-.015-.1,0-.026-.005-.069v-.013l0-.052.01-.207.032-.413.021-.247.04-.218a1.239,1.239,0,0,1,1.4-1.086,3.19,3.19,0,0,1,.706.126,1.141,1.141,0,0,1,.562.315.694.694,0,0,1,.184.471A.409.409,0,0,1,26.514,55.816Z"/><path class="cls-6" d="M35.573,31.322a19.183,19.183,0,0,0-2.495.513c-.791.271-3.9,1.621-4.2,1.836a9.4,9.4,0,0,0-1.359,1.359,2.517,2.517,0,0,0,.381,2.762,5.768,5.768,0,0,1,1.674,3.523c0,1.19.909.445,1.531-1.093s.335-2.3,2.535-3.778,1.535-1.841,2.859-2.5a3.228,3.228,0,0,0,1.644-1.9A4.636,4.636,0,0,0,35.573,31.322Z"/><path class="cls-9" d="M17,60.034s.234-.077.648-.189a15.779,15.779,0,0,1,1.742-.385,8.771,8.771,0,0,1,2.565-.054,5.885,5.885,0,0,1,1.419.391c.436.184.893.41,1.325.567a4.509,4.509,0,0,0,4.617-1.133,5.323,5.323,0,0,0,1-1.4,5.921,5.921,0,0,0,.263-.616,3.545,3.545,0,0,1-.135.665,4.7,4.7,0,0,1-2.948,3.13,4.766,4.766,0,0,1-3.029.018c-.482-.184-.9-.4-1.342-.6a6.154,6.154,0,0,0-1.276-.413,9.645,9.645,0,0,0-2.418-.164c-.721.039-1.332.079-1.757.125Z"/><path class="cls-9" d="M35.234,43.831s.43-.272-.377-.791-1.9.756-1.767,1.882.67,1.553,1.115,1.332A2.05,2.05,0,0,0,35.234,43.831Z"/><path class="cls-9" d="M25.556,42.429s.431-.272-.376-.791-1.905.756-1.768,1.882.671,1.553,1.116,1.332A2.049,2.049,0,0,0,25.556,42.429Z"/><path class="cls-9" d="M80.061,138.511s.076-.487.251-1.221a27.127,27.127,0,0,1,.774-2.617,23.455,23.455,0,0,1,1.037-2.51,11.93,11.93,0,0,1,.59-1.081,12.122,12.122,0,0,0-.488,1.125,23.19,23.19,0,0,0-.8,2.569c-.237.948-.425,1.906-.526,2.626s-.136,1.2-.136,1.2Z"/><path class="cls-9" d="M52.113,136.8c-.007.006.078-.149.16-.359a5.708,5.708,0,0,0,.288-.984,12.367,12.367,0,0,0,.194-1.49c.046-.552.067-1.166.175-1.764a20.322,20.322,0,0,1,.817-3.2,5.943,5.943,0,0,1,.628-1.358,5.942,5.942,0,0,0-.54,1.386,20.229,20.229,0,0,0-.61,3.212,11.946,11.946,0,0,0-.039,1.739,12.954,12.954,0,0,1-.06,1.563,6.347,6.347,0,0,1-.22,1.119c-.086.286-.139.4-.139.407Z"/><path class="cls-9" d="M124.7,133.1a2.544,2.544,0,0,1-.056-.436,4.053,4.053,0,0,1,.119-1.1,22.121,22.121,0,0,1,.979-3c.838-2.117,1.806-4.168,1.806-4.168s-.813,2.122-1.484,4.281a20.231,20.231,0,0,0-.728,2.99,3.461,3.461,0,0,0-.021.941,1.989,1.989,0,0,0,.074.331Z"/><path class="cls-9" d="M47.046,39.808l.674.063a16.812,16.812,0,0,0,1.766.047c.363-.007.756-.029,1.168-.075.377-.054.841-.167,1.287-.236l1.377-.24a5.682,5.682,0,0,1,1.544-.193,2.128,2.128,0,0,1,1.533.746,1.612,1.612,0,0,1,.137.2,1.663,1.663,0,0,1,.088.182,1.646,1.646,0,0,1,.108.442,1.992,1.992,0,0,1-1.081,1.965,2.64,2.64,0,0,1-1.262.276,4.043,4.043,0,0,1-1.755-.53,6.668,6.668,0,0,1-.586-.347l.64.22a4.429,4.429,0,0,0,1.69.258,2.187,2.187,0,0,0,1.016-.326,1.525,1.525,0,0,0,.646-.875,1.138,1.138,0,0,0-.175-1.041,1.448,1.448,0,0,0-1.045-.466,5.1,5.1,0,0,0-1.358.155c-.523.085-.965.125-1.431.188s-.88.111-1.343.133c-.431.006-.838-.012-1.211-.042a10.606,10.606,0,0,1-1.776-.309C47.277,39.9,47.046,39.808,47.046,39.808Z"/><path class="cls-1" d="M136.26,36.141s5.233-2.94,7.585.353,6.409,10.937,4.527,18.7.289,21.073.289,21.073l-.994-.317a83.757,83.757,0,0,1-1.941-16.17c0-7.761,3.293-11.759-.47-16.228s-2.176-5.645-4-6.292a3.729,3.729,0,0,0-3.763.412Z"/></svg>