<svg id="word" xmlns="http://www.w3.org/2000/svg" viewBox="0 0 160 160"><defs><style>.cls-1{fill:#9d4b9c;}.cls-2{fill:#ffd68c;stroke-width:0.75px;}.cls-2,.cls-3{stroke:#9d4b9c;}.cls-3{fill:#ee60a2;stroke-width:0.709px;}.cls-4{fill:#fff;}</style></defs><path class="cls-1" d="M85.825,66.162a2.027,2.027,0,0,1,1,.433c1.4,1.015,5.024,4.8,4.058,16.111-1.362,15.961-3.7,17.128-7.4,19.659s-10.316,4.671-11.873,3.7-3.309-1.557-1.363,1.752,6.229,7.98,13.236,4.087,17.193-10.575,18.166-23.032S99.644,71.417,96.53,69.081Z"/><path class="cls-2" d="M76.677,63.631c-7.786,1.557-14.793,7.981-17.518,16.35-2.328,7.151-3.995,17.866,3.568,25.887,6.423,6.813,10.623,7.774,15.7,8.175,7.4.584,17.088-3.709,21.216-15.182C112.88,62.074,84.462,62.074,76.677,63.631Zm9.148,47.3c-5.565,4.058-14.476-2.713-16.934-11.678-3.309-12.068.557-18.619,5.255-24.785,6.229-8.175,18.88-5.19,18.88-5.19s8.305,7.072,6.943,18.166A35.341,35.341,0,0,1,85.825,110.929Z"/><path class="cls-2" d="M69.734,60.452s-9.407,2.011-5.9,7.656c2.662,4.288,9.538.779,9.538.779s-3.634,4.8.259,7.915,7.656-4.152,7.656-4.542.074,9.227,7.915,7.267c6.748-1.687,1.039-9.473,1.039-9.473s4.411,7.137,8.3,4.8-3.114-8.435-3.114-8.435,7.786,4.217,9.083-1.233-8.564-4.476-8.564-4.476Z"/><path class="cls-3" d="M82.377,46.942s-8.8.614-10.841,6.75-2.045,10.432,4.3,13.3a17.428,17.428,0,0,0,16.977-1.432c4.091-2.863,5.272-6.471,2.659-11.25C91.275,46.635,86.264,46.942,82.377,46.942Z"/><path class="cls-4" d="M80.332,50.829s-5.318.409-4.909,3.477,1.227,3.068,3.886,1.432S83.605,52.056,80.332,50.829Z"/><polygon class="cls-4" points="77.607 52.451 76.232 45.154 78.818 52.537 85.262 47.605 79.87 53.38 86.201 55.881 78.703 53.725 78.807 63.974 77.688 54.505 66.35 58.475 77.553 53.298 67.813 49.887 77.607 52.451"/></svg>