<svg id="word" xmlns="http://www.w3.org/2000/svg" xmlns:xlink="http://www.w3.org/1999/xlink" viewBox="0 0 160 160"><defs><style>.cls-1,.cls-16{fill:none;}.cls-2{clip-path:url(#clip-path);}.cls-3{fill:#dcc4b5;}.cls-3,.cls-8{stroke:#bd4d9b;}.cls-10,.cls-11,.cls-12,.cls-14,.cls-15,.cls-16,.cls-3,.cls-5,.cls-6,.cls-7,.cls-8,.cls-9{stroke-miterlimit:10;stroke-width:0.77px;}.cls-4{fill:#ffd589;}.cls-11,.cls-12,.cls-14,.cls-15,.cls-16,.cls-5,.cls-6,.cls-7,.cls-9{stroke:#9c4c9c;}.cls-5{fill:url(#radial-gradient);}.cls-6{fill:#2a3b8e;}.cls-7{fill:#c9c9c9;}.cls-8{fill:#48484a;}.cls-9{fill:#cecfd1;}.cls-10,.cls-11{fill:#fad7c6;}.cls-10{stroke:#9b4b9c;}.cls-12{fill:#d6d6d6;}.cls-13{fill:#9c4c9c;}.cls-14{fill:#c18064;}.cls-15{fill:#74bfa8;}</style><clipPath id="clip-path"><path class="cls-1" d="M145.666,145.342H22.76a11.78,11.78,0,0,1-11.78-11.78V12.063C10.98,5.558,32.25.283,38.756.283h106.91a11.78,11.78,0,0,1,11.779,11.78v121.5A11.78,11.78,0,0,1,145.666,145.342Z"/></clipPath><radialGradient id="radial-gradient" cx="48.91" cy="96.52" r="14.316" gradientUnits="userSpaceOnUse"><stop offset="0.276" stop-color="#fcf5ad"/><stop offset="1" stop-color="#ecb46d"/></radialGradient></defs><g class="cls-2"><path class="cls-3" d="M28.109,91.973S11.215,101.148,14.94,102.63s34.447,1.77,39.79,1.626S70.454,92.464,70.454,92.464Zm1.39,4.551c-.742.931-5.491,4.123-6.53,2.4-.809-1.342,2.7-2.69,4.294-3.222.288-.1.5-.161.628-.2-.059.018-.113.027-.174.048l.3-.085-.124.037C29.323,95.068,30.212,95.629,29.5,96.524Z"/><path class="cls-4" d="M33.962,94.1a11.606,11.606,0,0,1,4.575-1.122c2.251.031,5.95-1.127,6.968-1.058s5.36-.123,5.95,0,4.181-.337,4.877,0,6.556,1.218,7.022,1.526,2.626,1.208,2.626,1.208.777.616-.16.767,2.626,2.029-2.091,2.09-30.016-1.277-30.016-1.277Z"/><path class="cls-5" d="M33.848,93.641a8.242,8.242,0,0,0-3.134,1.387c-.8.852-1.965,1.687-.772,3.117s5.211,2.465,9.131,3.192c4.5.835,11.261.783,15.919.567,4.61-.215,10.647-1.75,12.1-3.092,1.409-1.3,1.708-2.151.715-3.2a7.851,7.851,0,0,0-2.053-1.555,5.431,5.431,0,0,1-.325,1.367,10.788,10.788,0,0,1-.829,1.462l-.247-3.536a2.513,2.513,0,0,0-1.643-1.143c-.626-.139-1.606-.292-1.606-.292s-.244,1.5-.344,2.149a10.509,10.509,0,0,1-.454,1.612,12.2,12.2,0,0,1,.014-2.512,4.558,4.558,0,0,0,.123-1.258s-2.229-.6-2.593-.739a11.267,11.267,0,0,0-2.021-.088,17.317,17.317,0,0,1,.364,3.244,14.019,14.019,0,0,1-.233,1.768,11.482,11.482,0,0,0-.935-2.65,6.238,6.238,0,0,1-.694-2.16s-1.743.233-2.064-.145-2.572.142-2.572.142.367,2.763.314,3.021a13.559,13.559,0,0,0,.5,2.087s-.466-2.353-.975-2.548-1.521-2.473-1.521-2.473a1.419,1.419,0,0,0-1.184-.322c-.882.048-3.536.514-3.536.514A16.1,16.1,0,0,1,44.482,93.7c.1.431.455,2.807.455,2.807a6.35,6.35,0,0,0-1.254-2.2,8.309,8.309,0,0,0-2.5-1.978s-1.028-.086-2.239-.157a4.551,4.551,0,0,0-2.456.815L38,96.053s.8.056-.813-.635A28.479,28.479,0,0,1,33.848,93.641Z"/><path class="cls-6" d="M135.11,111.318s2.621,35.637,4.068,42.492a47.511,47.511,0,0,0,4.041,11.643l-17.473,8.652s2.263-51.956,4.921-58.478S135.11,111.318,135.11,111.318Z"/><path class="cls-7" d="M135.914,130.26s-8.563,29.273-8.352,30.047.745,6.255,1,8.242-1.537,4.27-1,5.235,1.37,3.691,1.2,10.609-.342,18.656-.342,18.656H118.124s1.032-47.888,1.936-52.742,3.98-9.648,5.686-12.543,9.513-11.256,9.513-11.256Z"/><path class="cls-8" d="M69.661,88.519l-.8,3.216a8.884,8.884,0,0,0,3.457.739c1.286-.177,8.12.306,9.246.949s3.939,1.769,4.5,2.975,3.537.622,3.458-1.769-2.734-3.618-4.1-3.618S69.661,88.519,69.661,88.519Z"/><path class="cls-9" d="M67.249,88.036,43.611,83.775a4.543,4.543,0,0,0,2.171,4.744c2.894,1.929,11.658,2.814,14.632,3.457s6.352,1.286,6.835,1.125a29.5,29.5,0,0,0,2.572-1.447l.906-2.952Z"/><path class="cls-10" d="M79.791,89.966a16.62,16.62,0,0,1-1.608.563c-.4.08-4.342.8-4.342.8s-3.618.8-3.055,2.331,4.824.885,5.467.724a7.963,7.963,0,0,1,3.538-.081c1.688.322,1.447,1.589,4.02.353S88.876,92.217,90,92.137s1.744-.066,1.744-.066l.17-6.347s-2.477-.261-4.246-.261-6.271-.723-8.763-.723-6.875,4.185-6.875,4.185l5.186,1.04Z"/><path class="cls-10" d="M76.437,101.1a11.365,11.365,0,0,0-5.258-.6,18.2,18.2,0,0,0-8.2,5.472c-1.608,2.247-4.985,4.763-1.93,5.354s5.73-2.028,7.077-1.714a21.811,21.811,0,0,1,4.291,2.238Z"/><path class="cls-11" d="M92.033,33.19a12.823,12.823,0,0,1-.056,5.428c-.694,2.719-2.37,5.69-.882,6.779.886.648,3.006.121,3.006.121s.688-.477.868.972l.321,2.592,1.85-.161s-.671,1.478-.151,1.742a10.183,10.183,0,0,0,2.161.858,8.321,8.321,0,0,0,3.323,2.629c2.144.909,3.622-2.88,6.124-2.214,3.067.818,3.055-1.407,3.055-1.407l-3.069-8.579s2.383-4.643,1.521-6.941a2.507,2.507,0,0,0-3.162-1.551l-1.354.375s-3.165-2.055-4.051-4.083-2.44-4.457-5.469-2.117A12.541,12.541,0,0,0,92.033,33.19Z"/><path class="cls-12" d="M102.044,118.054s-.138,51.578-.137,53.571a5.494,5.494,0,0,0,1.608,4.41c1.317,1.5.014,5.517,0,7.879s-.559,11.706.354,14.354-1.256,6.961-1.256,6.961,2.334-.875,3.054,0,7.7,1.11,10.478.686,3.915.205,3.915.205,1.514-15.328.665-20.008-1.653-8.088-.665-10.077a5.918,5.918,0,0,0,.537-3.77l-.038-1.143s3.007-14.614,3.824-17.312,4.113-12.514,5.876-14.92,6.187-7.028,6.317-11.806-1.466-15.766-1.466-15.766Z"/><path class="cls-6" d="M92.033,107.287s-1.228,30.563.211,35.586,1.06,6.606.731,12.561-3.956,21.244-3.956,21.244l16.648,2.09s-1.86-20.743-2.152-25.728.648-25.829,2.71-30.145,9.542-5.12,10.682-5.325,18.352-3.08,18.352-3.08l-.149-3.172-31.5-.011.474-8.452Z"/><path class="cls-13" d="M130.917,112.477c-1.968,1.48-3.916,2.984-5.767,4.594a36.239,36.239,0,0,0-2.678,2.5,12.894,12.894,0,0,0-1.162,1.373,2.6,2.6,0,0,0-.615,1.427.435.435,0,0,0,.336.359,1.064,1.064,0,0,0,.609-.084,5.518,5.518,0,0,0,1.441-.911,25.318,25.318,0,0,0,2.576-2.543c.814-.906,1.594-1.847,2.353-2.8s1.5-1.936,2.217-2.921l.766.465a28.909,28.909,0,0,0-1.216,2.811,21.985,21.985,0,0,0-.883,2.922,8.182,8.182,0,0,0-.18,2.943,2.775,2.775,0,0,0,.507,1.263c.257.337.719.673.882.529a.862.862,0,0,0,.343-.431,3.546,3.546,0,0,0,.235-.679,10.833,10.833,0,0,0,.253-1.494c.111-1.019.131-2.054.154-3.089C131.122,116.631,131.028,114.554,130.917,112.477Zm0,0c.3,2.06.481,4.135.584,6.221a28.657,28.657,0,0,1-.025,3.142,11.417,11.417,0,0,1-.21,1.586,4.137,4.137,0,0,1-.247.8,1.467,1.467,0,0,1-.614.755.977.977,0,0,1-.582.1,1.529,1.529,0,0,1-.48-.186c-.07-.043-.082-.044-.2-.122l-.171-.144a2.092,2.092,0,0,1-.312-.319,3.485,3.485,0,0,1-.707-1.572,8.927,8.927,0,0,1,.125-3.25,20.642,20.642,0,0,1,.873-3.057c.364-.994,1.491-3,1.964-3.959l1.2-.635c-1.445,2.019-4.138,6.092-5.806,7.937a23.509,23.509,0,0,1-2.713,2.6,6.205,6.205,0,0,1-1.691,1.01,1.663,1.663,0,0,1-1.19.044,1.184,1.184,0,0,1-.755-.99,3.1,3.1,0,0,1,.811-1.9,13.375,13.375,0,0,1,1.272-1.4,36.54,36.54,0,0,1,2.81-2.435c.972-.762,1.973-1.484,2.983-2.19S129.87,113.126,130.917,112.477Z"/><path class="cls-13" d="M123.048,140.428c.031-2.114.151-4.226.3-6.337.074-1.056.181-2.11.312-3.162s.282-2.1.508-3.152c.046-.263.124-.524.189-.786a5.669,5.669,0,0,1,.238-.784l.14-.392.212-.393.11-.2c.018-.035.068-.105.1-.155l.217-.331a25.273,25.273,0,0,0,1.329-2.789c.8-1.936,1.483-3.933,2.112-5.932l.836.182-.485,4.31-.466,4.31c-.139,1.435-.276,2.878-.328,4.3-.021.374,0,.668-.008,1.08a7.267,7.267,0,0,1-.1,1.141,19.6,19.6,0,0,1-.538,2.154c-.883,2.788-2.066,5.438-2.871,8.195-.2.687-.35,1.381-.491,2.094s-.251,1.418-.35,2.133q-.29,2.146-.407,4.318a39.457,39.457,0,0,1,.135-4.348c.06-.724.134-1.446.235-2.17a17.044,17.044,0,0,1,.405-2.154c.729-2.831,1.817-5.531,2.6-8.289a18.763,18.763,0,0,0,.493-2.063,6.263,6.263,0,0,0,.079-1.019c0-.312-.023-.742,0-1.092.038-1.471.159-2.914.283-4.362.246-2.893.586-5.77.964-8.646l.836.181c-.661,2.023-1.372,4.017-2.2,5.981a20.039,20.039,0,0,1-1.46,2.895l-.228.324-.121.174-.086.149-.175.3-.137.35a5.3,5.3,0,0,0-.246.723c-.069.248-.152.492-.2.748a61.071,61.071,0,0,0-1.047,6.214C123.457,136.222,123.251,138.324,123.048,140.428Z"/><path class="cls-14" d="M104.273,13.031a39.617,39.617,0,0,0-5.847,0A10.005,10.005,0,0,0,94.1,15.394c-.419.4-4,1.689-5.021,2.953s-4.081,5.972-4,7.821S86.366,24.8,86.366,24.8a22.422,22.422,0,0,0-1.608,4.949,21.554,21.554,0,0,0,0,3.091l1.589-2.829s-.3,3.231.823,4.6,1.068-1.935,1.068-1.935,1.746,2.176,2.47,3.3.161-2.1.08-3.216.831,3.184,1.489,3.883.714-1.43,1.637-3.745a30.773,30.773,0,0,1,1.7-3.656s1.071,4.543,1.581,4.915.188-4.408.188-4.408a7.088,7.088,0,0,1,1.769,1.483,7.845,7.845,0,0,1,1.491,3.056l-.763-3.538a16.518,16.518,0,0,1,2.584,3.3,22.136,22.136,0,0,1,.467,4.739s1.363-1.69,2.01-2.655.132-2.285,1.513-2.544c1.863-.351,3.232.132,3.632,2.7.268,1.721-1.849,4.743-1.849,4.743l1.586,4.806.774,2.436.347,1.093s2.765-.371,5.376-.546a8.543,8.543,0,0,0,4.175-1.316s-1.247-.234-.922-1.81.271-4.979,1.141-6.509,3.04-9.41,2.558-13.35-1.678-10.187-4.087-11.5-6.365-.482-6.365-.482L113.3,12.1l-1.427,1.848-1.288-2.994.357,2.915-2.594-3.478,1.325,2.24A6.4,6.4,0,0,0,104.273,13.031Z"/><path class="cls-13" d="M94.268,39a3.652,3.652,0,0,0,1.218.12,5.967,5.967,0,0,0,1.148-.2l1.2-.31a1.971,1.971,0,0,0,1.1-.457c-.019.492-.519.837-.89,1.019a5.568,5.568,0,0,1-1.225.494,3.125,3.125,0,0,1-1.386.05A1.843,1.843,0,0,1,94.268,39Z"/><path class="cls-15" d="M125.2,51.735l-19.612,5.039s-6.067,5.506-6.392,6.9-5.407,9.785-6.431,14.541S90.481,91.9,90.284,92.947,87.99,94.716,88.537,95.9s2.775.87-.091,1.289-2.409.272-2.16.962-1.026.925-2.851.943-5.314-.117-5.314-.117-3.36,4.209-3.733,4.7-2.339,5.529-1.5,8.158,2.925,2.07,4.3,2.07,15.4-2.539,18.423-3.216,7.521-4.074,7.521-4.074v5.789s11.775.4,15.527.351,7.178.144,9.469-.491a45.2,45.2,0,0,1,6.5-.953s.627-23.67.626-25.921-.467-18.85-3.627-25.193S125.2,51.735,125.2,51.735Z"/><path class="cls-6" d="M121.9,46.027l4.476,5.708s-.938,1.528-4.074,2.105c-.748.137-13.114,1.547-13.507,2.464s-3.859,1.069-3.859,1.069,3.171-4.223,3.544-4.624,2.817-3.2,2.817-3.2S120.041,47.428,121.9,46.027Z"/><path class="cls-13" d="M111.025,77.574a34.242,34.242,0,0,1,.464,7.7,38.028,38.028,0,0,1-3.845,14.919,34.225,34.225,0,0,1-4.129,6.516,51.382,51.382,0,0,0,3.592-6.764A48.387,48.387,0,0,0,110.9,85.232,51.074,51.074,0,0,0,111.025,77.574Z"/><path class="cls-16" d="M107.2,35.758a1.375,1.375,0,0,1,.9,1.42,2.32,2.32,0,0,1-.774,1.667"/><path class="cls-16" d="M105.768,41.627a2.006,2.006,0,0,0,2.575-1.056"/></g></svg>