<svg id="word" xmlns="http://www.w3.org/2000/svg" xmlns:xlink="http://www.w3.org/1999/xlink" viewBox="0 0 160 160"><defs><style>.cls-1,.cls-14,.cls-22,.cls-27{fill:none;}.cls-2{clip-path:url(#clip-path);}.cls-10,.cls-3{fill:#fff;}.cls-10,.cls-12,.cls-13,.cls-14,.cls-15,.cls-16,.cls-17,.cls-18,.cls-19,.cls-21,.cls-22,.cls-23,.cls-3,.cls-4,.cls-5,.cls-9{stroke:#9c4c9c;}.cls-23,.cls-24,.cls-26,.cls-27,.cls-3,.cls-4,.cls-5,.cls-9{stroke-miterlimit:10;}.cls-3,.cls-4,.cls-5{stroke-width:0.77px;}.cls-4{fill:#445c80;}.cls-5{fill:#595959;}.cls-6{fill:#7c7b5f;}.cls-7{fill:#a07358;}.cls-8{fill:#9f6c55;}.cls-9{fill:#fde1d3;}.cls-10,.cls-12,.cls-13,.cls-14,.cls-15,.cls-16,.cls-17,.cls-18,.cls-19,.cls-21,.cls-22,.cls-23,.cls-24,.cls-26,.cls-27,.cls-9{stroke-width:0.67px;}.cls-11{fill:#9c4c9c;}.cls-12{fill:#f7ea2f;}.cls-13{fill:#406590;}.cls-14,.cls-15{stroke-linecap:round;}.cls-15{fill:#c1976b;}.cls-16{fill:#c7c8c9;}.cls-17{fill:#9a91a0;}.cls-18{fill:#26a7df;}.cls-19{fill:#ef81b1;}.cls-20{fill:#f29ac1;}.cls-21{fill:#a3577d;}.cls-23{fill:#754d29;}.cls-24{fill:#c17240;}.cls-24,.cls-26,.cls-27{stroke:#9c4a9b;}.cls-25{fill:#9c4a9b;}.cls-26{fill:#c08bbd;}</style><clipPath id="clip-path"><path class="cls-1" d="M145.666-64.658H22.76a11.78,11.78,0,0,1-11.78-11.78v-121.5c0-6.5,21.27-11.78,27.776-11.78h106.91a11.78,11.78,0,0,1,11.779,11.78v121.5A11.78,11.78,0,0,1,145.666-64.658Z"/></clipPath></defs><g class="cls-2"><path class="cls-3" d="M127.562-8.076s-1.219,3.216,0,5.467.03,6.513,0,6.754-5.755,0-5.755,0L118.98-6.307l.87-1.769Z"/><path class="cls-4" d="M119.839-5.425s1.258,4.5,2.1,5.71a26.427,26.427,0,0,1,1.97,4.7l-9-.182L113.9-4.136Z"/><path class="cls-5" d="M116.822,4.805l11.672.3s-.144,2.267-.689,2.607-4.072-.051-4.826,0-7.588.141-7.588.141Z"/><path class="cls-3" d="M115.222-5.271s2.4,6.667,2.075,8.025.437,4.634-1.023,5.888-12.141.644-12.141.644L101.694.763s3.754-1.366,4.369-3.236,1.557-4.478,1.557-4.478Z"/><path class="cls-4" d="M101.907-.395a26.448,26.448,0,0,1,3.027,4.177,41.073,41.073,0,0,1,.733,6.152s-8.929.16-11.824,0-10.13-1.292-10.13-1.292.9-6.245,4.9-7.4,13.29-1.278,13.29-1.278Z"/><path class="cls-5" d="M116.822,8.969s1.459,4,0,3.618-27.8-.359-27.8-.359-4.73-1.182-5.092-1.941a3.107,3.107,0,0,1-.214-1.645s20.27.8,21.954,1.292S114.955,9.478,116.822,8.969Z"/></g><path class="cls-6" d="M125.04,140.518a5.066,5.066,0,0,1-2.715-.07c-.988-.482-1.729.07-2.635.552s-4.281.69-3.622,1.033,2.306-.208,3.622.62,4.446,2.205,4.858.552S122.571,141.619,125.04,140.518Z"/><path class="cls-6" d="M133.108,137.417s.74-2.413,1.809-2.689.413.207,2.8.413A12.826,12.826,0,0,0,142,134.8a9.92,9.92,0,0,0-2.88,1.861c-.575.827-1.482,1.033-2.717.55A3.279,3.279,0,0,0,133.108,137.417Z"/><path class="cls-6" d="M132.037,138.242a2.034,2.034,0,0,0-2.388-.895,26.2,26.2,0,0,1-4.69.414,2.512,2.512,0,0,0,1.728,1.1C127.757,138.932,130.143,137.9,132.037,138.242Z"/><path class="cls-6" d="M134.261,142.1s3.949-.278,4.855.55a19.083,19.083,0,0,0,3.952,2,14.478,14.478,0,0,1-4.527.619C136.4,145.134,137.142,142.928,134.261,142.1Z"/><path class="cls-6" d="M103.064,143.136a25.344,25.344,0,0,0,3.868.207c.988-.138,3.622,1.239,3.869,1.929s2.222,1.86,2.222,1.86a35.574,35.574,0,0,0-3.621-.275c-1.482,0-5.681.688-5.681-.9A6.662,6.662,0,0,0,103.064,143.136Z"/><path class="cls-6" d="M104.2,140.2a7.668,7.668,0,0,0,3.35-.068c1.223-.484,2.137.068,3.254.549s5.284.69,4.472,1.035-2.846-.206-4.472.619-5.488,2.207-6,.552S107.245,141.3,104.2,140.2Z"/><path class="cls-6" d="M94.237,137.1s-.914-2.41-2.236-2.688-.509.206-3.455.414a19.519,19.519,0,0,1-5.284-.345s2.844,1.033,3.557,1.861,1.828,1.034,3.352.553A4.877,4.877,0,0,1,94.237,137.1Z"/><path class="cls-6" d="M95.557,137.924a2.719,2.719,0,0,1,2.946-.9,39.926,39.926,0,0,0,5.793.413,3.16,3.16,0,0,1-2.133,1.1C100.841,138.61,97.893,137.577,95.557,137.924Z"/><path class="cls-6" d="M92.816,141.782s-4.879-.276-6,.549a26.191,26.191,0,0,1-4.878,2,21.764,21.764,0,0,0,5.587.62C90.171,144.812,89.258,142.608,92.816,141.782Z"/><path class="cls-6" d="M131.329,142.815a38.611,38.611,0,0,1-4.776.206c-1.22-.138-4.472,1.242-4.778,1.93s-2.743,1.862-2.743,1.862,2.644-.277,4.473-.277,7.01.69,7.01-.9A5.68,5.68,0,0,1,131.329,142.815Z"/><path class="cls-7" d="M103.93,136.317s.037.009.1.028A23.792,23.792,0,0,1,108,137.8c1.041.628,3.052,1.732,3.071,1.383s-.4-.974.1-.927a7.916,7.916,0,0,1,2.307,1.49,3.709,3.709,0,0,0,2.17.751c.648-.062.655-.481.484-.733a2.633,2.633,0,0,1-.6-.645c-.08-.229-.482-.6.274-.452a8.242,8.242,0,0,1,1.8.773c.369.156.751.221.965-.034s.671.131,1.611.493,2.337,1.319,2.821.823-.009-.8.719-.724,3.671.291,3.427-.891-1.985-1.263-3.255-1.394-2.917-.281-2.693-.628.059-.738,1.119-.56,2.449.876,2.529.564-.059-.552.531-.322,2.735.8,3.058.316-.664-.625-.055-.837,3.124-.724,2.168-1.393-4,.006-4.415-.4,1-.847,1.847-.836,1.706-.261,1.367-.621a.868.868,0,0,0-.677-.322s2.3-.568,1.215-1.314a2.6,2.6,0,0,0-2.374-.152s.031-1.568-.879-.839-1.845,2.126-2.084,1.414.613-1.733-.726-1.648-1.253,1.467-1.781,1.581-.527-.571-.912.4-.524,1.875-1.305,1.714.916-2.86.628-3.538-.862-1.7-1.627-.8-.773,1.392-1.28,1.392a1.046,1.046,0,0,0-1.113.961c-.009.632.244,1.043-.138,1.049s-.642.012-.745.646-.676,2.143-1.332,1.778.874-1.274.461-1.676-1.322-1.388-2.091-.278-1.332,2.319-1.888,2.354-.042-.385-.528-.5-.8.894-1.593,1.108a11.816,11.816,0,0,1-3.694.029,13.216,13.216,0,0,0-1.654-.2Z"/><path class="cls-8" d="M105.926,143.211s-.023.008-.067.018a16.256,16.256,0,0,0-2.711.99c-.71.429-2.082,1.182-2.094.945s.275-.665-.066-.633a5.383,5.383,0,0,0-1.575,1.014,2.523,2.523,0,0,1-1.48.514c-.444-.043-.447-.327-.33-.5a1.744,1.744,0,0,0,.411-.441c.057-.156.33-.412-.187-.307a5.66,5.66,0,0,0-1.228.527c-.252.107-.512.152-.659-.021s-.458.089-1.1.334-1.595.9-1.927.564.006-.548-.488-.5-2.506.2-2.339-.61,1.353-.859,2.22-.949,1.99-.192,1.836-.429-.041-.5-.763-.383-1.67.6-1.725.387.041-.379-.362-.22-1.867.547-2.086.215.453-.426.039-.571-2.134-.5-1.481-.952,2.728,0,3.012-.269-.68-.579-1.259-.571-1.164-.177-.934-.424a.594.594,0,0,1,.46-.219s-1.563-.387-.826-.9a1.777,1.777,0,0,1,1.619-.1s-.019-1.07.6-.571,1.258,1.45,1.422.964-.42-1.185.5-1.125.856,1,1.215,1.078.359-.388.621.271.355,1.278.892,1.17-.625-1.952-.43-2.414.586-1.161,1.112-.549.526.95.872.95a.715.715,0,0,1,.759.655c0,.432-.167.712.095.717s.435.008.508.441.462,1.463.906,1.213-.6-.869-.312-1.143.9-.946,1.427-.189.906,1.582,1.289,1.6.026-.263.357-.339.545.609,1.09.755a8.048,8.048,0,0,0,2.521.018,8.645,8.645,0,0,1,1.125-.131Z"/><path class="cls-9" d="M72.625,14.79s2,2.412,1.267,4.824-2.861,4.77-2.262,6.176c.613,1.44,1.736,2.979.854,3.435-.485.253-2.239-.008-2.406.842s.167,1.424-.454,1.629c-.135.045-1.382-.924-1.495-.761-.275.4,1.085,1.307.707,1.843-.121.17-1.066.325-1.213.545-.645.971-.649,2.309-1.052,2.749-.892.972-1.939-.9-3.211-1.149s-1.6.438-2.39,1.783-1.208,4.928.209,6.59c1.257,1.469.7,2.607-1.173,1.8s-9.4-6.922-9.4-6.922,7.5-7.969,7.887-12.211-1-12.607,2.113-14.119,6.5-.855,7.444.207S72.625,14.79,72.625,14.79Z"/><path class="cls-10" d="M69.543,22.689S71.1,22.5,70.775,24.06c-.225,1.069-.519,1.3-.987,1.536C68.628,26.182,67.612,24.445,69.543,22.689Z"/><path class="cls-11" d="M69.328,24.472c-.188.446-.1.908.193,1.03s.682-.137.87-.584.1-.907-.193-1.03S69.516,24.026,69.328,24.472Z"/><path class="cls-12" d="M77.155,53.967s.812,1.105-1.976,1.918-2.789,1.626-2.789,1.626l-3.137-4.184,5-6.914"/><path class="cls-13" d="M59.819,86.408s3.366,16.654,3.1,19.536-.48,9.511.639,13.856,3.4,8.876,3.954,8.782,3.622-1.428,3.309-3.27-.547-12.7-.766-13.993.4-23.652.277-24.389S59.819,86.408,59.819,86.408Z"/><path class="cls-13" d="M59.509,86.564s-.236,18.017-2.309,21.393-7.127,12.556-7.127,12.556-6.289,6.364-8.107,3.46,2.021-9.231,3.851-11.809a31.555,31.555,0,0,0,4.086-7.15c.909-2.424-.464-19.688-.464-19.688Z"/><polyline class="cls-14" points="132.451 130.434 132.451 126.947 110.895 112.904"/><polyline class="cls-14" points="131.463 132.99 131.347 127.876 110.023 113.292"/><polyline class="cls-14" points="130.011 134.791 129.721 129.735 109.5 113.409"/><polyline class="cls-14" points="128.384 136.65 128.268 131.769 108.512 114.048"/><polyline class="cls-14" points="126.176 138.335 125.77 133.047 107.583 114.222"/><polyline class="cls-14" points="122.98 140.66 123.271 135.372 106.421 114.687"/><polyline class="cls-14" points="120.269 141.803 120.578 136.843 105.665 114.802"/><polyline class="cls-14" points="116.879 143.042 117.518 137.58 104.852 115.268"/><polyline class="cls-14" points="113.916 143.623 114.265 138.683 103.341 115.326"/><polyline class="cls-14" points="95.032 115.326 84.166 135.372 83.992 140.775"/><polyline class="cls-14" points="96.891 115.501 87.943 137.406 87.71 142.229"/><polyline class="cls-14" points="98.053 115.791 92.765 138.567 92.417 143.913"/><line class="cls-14" x1="96.775" y1="144.437" x2="99.099" y2="116.081"/><line class="cls-14" x1="101.597" y1="144.843" x2="100.493" y2="115.849"/><polyline class="cls-14" points="105.723 144.553 105.665 137.463 101.482 115.791"/><polyline class="cls-14" points="110.08 144.146 110.255 138.51 102.45 115.616"/><path class="cls-15" d="M97.181,97.8,69.755,38.452a1.321,1.321,0,0,0-1.7-1.006c-1.395.387.464,2.711.464,2.711L95.09,99.27A3.455,3.455,0,0,1,97.181,97.8Z"/><path class="cls-16" d="M89.57,125.146a77.846,77.846,0,0,0,19,.581c7.358-.624,14.119-5.288,14.119-5.288l1.045.7s-8.076,5-16.5,5.636a100.413,100.413,0,0,1-18.129-.7l.793-1.085"/><path class="cls-16" d="M97.026,97.411l4.107,8.366L111,112.843a23.129,23.129,0,0,1-8.548,2.773c-5.424.774-7.669-.077-7.669-.077l3.254-8.755L95.09,99.27s-1.065-2.034.464-2.422A1.288,1.288,0,0,1,97.026,97.411Z"/><path class="cls-12" d="M76.3,63.507s.066-.084.165-.228A4.207,4.207,0,0,0,77.3,60.9c-.065-1.3.22-4.664.732-4.559,2.393.487,1.263,4.559,1.263,4.559s.267,0,.8-.733a5.037,5.037,0,0,1,2.062-1.711c.8-.325,2.26-.081,1.927,1.222s-.133,1.548-.133,1.548a1.289,1.289,0,0,1,.931,1.383,2.253,2.253,0,0,1-.532,1.549s1.3.647,1.264,1.385c-.094,1.822-1.2,1.872-1.2,1.872s1.537,1.033.309,2.188a11.437,11.437,0,0,1-4.429,1.556c-1.532.244-4.388.817-4.72-1.22s-.269-5.212.8-6.514"/><path class="cls-12" d="M68.478,43.83s-.361.939,1.082,2.6c1.251,1.439,1.115,2.23.216,3.529a33.931,33.931,0,0,0-2.283,5.516l3.668,3.681,2.146-3.249s1.582-.936-.714-6.156C71.123,46.41,70.345,41.667,68.478,43.83Z"/><path class="cls-12" d="M77.4,54.392s1.453-4.477,1.109-6.137.136-3.322-1.247-3.97-2.907-2.021-4.43-2.021-3.392-.143-2.839,1.155a1.728,1.728,0,0,0,2.146,1.226,17.064,17.064,0,0,1,3.393.361s-1.454-.073-2.425,0S71.875,45,72,46.325c.086.919.553.9.9.993.475.122-.9.262-.9.739,0,1.7,1.708,1.573,1.461,1.638-1.625.433-.679,1.315-.213,1.521.968.433,1.049-.7,1.729.361C76.776,54.392,77.261,54.826,77.4,54.392Z"/><path class="cls-17" d="M75.161,58.674s-3.255-1.86-3.875-4.029-1.394-4.338-2.168-3.718-6.2,7.9-6.2,7.9l2.788,7.437S67.566,62.7,70.2,62.238,76.244,60.224,75.161,58.674Z"/><path class="cls-17" d="M45.078,72.4c.02-.109.384-3.4.382-3.566-.041-2.541-1.1-6.533-1.262-13.625-.169-7.541,5.078-13.65,5.078-13.65s4.233,3.594,8.293,3.594,1.525-2.7,1.525-2.7a7.821,7.821,0,0,1,3.044.9c1.016.72,3.525,9.232,4.383,14.739,1.627,10.459,3.37,14.991,3.37,14.991s4.091,9.756.78,18.286c0,0-6.239-1.273-8.021-.127s-5.22.255-8.659.382-7.386.127-7.386.127l.892-2.8a38.24,38.24,0,0,1-2.165-3.438C43.677,82.711,44.274,76.5,45.078,72.4Z"/><path class="cls-18" d="M63.93,44.335s-3.465-1.877-1.083-2.527c2.431-.663,1.444-3.681,1.444-3.681s-11.225-1.321-13.085-4.911-3.471,8.978-3.471,8.978-.678,3.055,4.909,3.593S63.93,46.849,63.93,44.335Z"/><path class="cls-18" d="M53.319,42.194c-1.661-2.912-3.61-7.533-8.374-5.583-2.309.944-2.006,5.747-5.054,7.363s-.108,9-1.124,9.356.507,13.291.507,13.291,5.414-.9,6.938,1.077,0-5.568,0-8.443c0-7.156-.54-16.458,1.692-14.724,6.764,5.252,8.681,1.708,8.681,1.708A13.1,13.1,0,0,1,53.319,42.194Z"/><path class="cls-17" d="M76.758,63.993s-.243-1.717-1.521-1.717-10.807.7-11.854,1.395-5.577.814-6.972-.7-3.138-11.738-2.905-12.552-1.86-7.438-4.532-8.25-4.416,2.208-2.906,10.11,3.254,15.107,5.463,16.269,9.761,1.859,11.736,2.673,9.645,3.835,11.854,3.021,4.3-.7,3.486-2.673-2.789-3.253-2.557-4.648A26.386,26.386,0,0,1,76.758,63.993Z"/><path class="cls-19" d="M61.238,112.054a6.411,6.411,0,0,0,3.748,1.809,40.024,40.024,0,0,0,6.454-.222c.239-.131.382-1.015.382-1.015s.426.091.285,1.37-.334,14.513-.285,15.395.285,4.058,2.136,6a10.083,10.083,0,0,0,3.7,2.781,7.19,7.19,0,0,1,2.42,1.5c.141.352-2.183,1.9-4.224,1.853s-4.983-.31-7.121-1.765a23.742,23.742,0,0,0-5.125-2.427,3.3,3.3,0,0,1-.047-2.074,11.5,11.5,0,0,0-.238-5.073c-.475-1.5-2.9-9-2.278-13.41S60.429,112.362,61.238,112.054Z"/><path class="cls-20" d="M68.5,128.951c-.046-.486-.143-5.823-.238-8.251s-.9-4.367.238-4.94,1.044,2.073,1.044,3.793a63.217,63.217,0,0,1-.664,7.234A8.662,8.662,0,0,1,68.5,128.951Z"/><path class="cls-20" d="M68.784,131.64s-.049,5.074,1.472,6.664,3.132,2.425,4.081,2.425a14.1,14.1,0,0,0,4.273-.661c.615-.4-2.66.661-5.126-.75A9.74,9.74,0,0,1,68.784,131.64Z"/><path class="cls-20" d="M61.664,116.245s.285,5.294.665,6.926,1.566,6.044,1.852,6.706a6.774,6.774,0,0,1,.236,3.221c-.189,1.233-.427,2.249-.427,2.249s.759-3.8.142-4.677-2.753-8.293-2.753-10.9A14,14,0,0,1,61.664,116.245Z"/><path class="cls-21" d="M63.457,136.747l.13.828a.228.228,0,0,0,0,.353c.189.2.141.992.189,1.3s.094.861.332.861.332-.087.476.154.19.286.472.286.454-.133.665.069.38.175.666.24.427-.618.427-.618a12.055,12.055,0,0,1,1.4.905c.38.331,1.473.859,1.519,1.037s-.095.376.308.418.688.111.688.244,0,.156.332.156.475-.045.569.064-.117.2.333.266.38-.266.593-.111a.87.87,0,0,0,.594.243c.214-.023.523-.507.736-.288a.935.935,0,0,0,.806.243c.332-.022.144-.264.617-.243s.38.221,1.165.243a7.69,7.69,0,0,0,2.822-.55A4.281,4.281,0,0,0,80.6,142.1l.119-1.235-.4-.243s.071-.86-.238-.948-.214.286-1.14.75a10.459,10.459,0,0,1-4.3.925,11.216,11.216,0,0,1-2.657-.329c-.878-.354-2.965-1.523-3.893-1.986A36.727,36.727,0,0,0,63.457,136.747Z"/><path class="cls-19" d="M64.132,138a30.234,30.234,0,0,1,3.086,1.5,21.307,21.307,0,0,0,4.1,2.383,18.014,18.014,0,0,0,4.984.2c1.021-.221,3.513-.991,3.726-1.1a.634.634,0,0,0,.286-.353l.26.286a5.405,5.405,0,0,1-1.923,1.06c-.925.2-5.5.883-6.81.353s-4.533-2.559-5.411-3.067-2.847-1.19-2.847-1.323S63.229,137.6,64.132,138Z"/><path class="cls-21" d="M62.542,111.831s-1.9-.049-1.78.635.285,1.285.285,1.285.594-.417,1.517.222,3.325.463,5.008.573a12.849,12.849,0,0,0,3.776-.133,1.27,1.27,0,0,0,.838-1.013c.18-1.016-1.539-.988-1.539-.988s.961,1.362-1.293,1.209a54.309,54.309,0,0,1-6.79-.773C61.474,112.538,61.9,112.207,62.542,111.831Z"/><path class="cls-19" d="M47.974,105.958a6.416,6.416,0,0,0,2.245,3.5,40.321,40.321,0,0,0,5.614,3.193c.273.013.857-.666.857-.666s.316.3-.474,1.315-7.888,12.19-8.309,12.965-1.883,3.607-1.323,6.231a10.091,10.091,0,0,0,1.7,4.307,7.145,7.145,0,0,1,1.275,2.545c-.063.374-2.852.473-4.568-.634s-4.083-2.874-5.141-5.234a23.66,23.66,0,0,0-3.093-4.752,3.29,3.29,0,0,1,1.045-1.79,11.477,11.477,0,0,0,2.455-4.447c.381-1.526,2.248-9.182,5.084-12.617S47.126,105.8,47.974,105.958Z"/><path class="cls-20" d="M45.308,124.155c.215-.437,2.929-5.035,4.119-7.152s1.52-4.193,2.791-4.084-.2,2.312-1.1,3.779a63.39,63.39,0,0,1-4.358,5.813C45.279,124.292,45.308,124.155,45.308,124.155Z"/><path class="cls-20" d="M44.141,126.6s-2.7,4.3-2.235,6.447,1.4,3.707,2.2,4.2a14.078,14.078,0,0,0,3.985,1.676c.732-.016-2.611-.83-3.973-3.325A9.742,9.742,0,0,1,44.141,126.6Z"/><path class="cls-20" d="M46.141,109.752s-2.53,4.659-3.06,6.247-1.834,5.97-1.936,6.683a6.763,6.763,0,0,1-1.486,2.866c-.807.953-1.541,1.693-1.541,1.693s2.633-2.834,2.57-3.911,2-8.5,3.364-10.722A14.066,14.066,0,0,1,46.141,109.752Z"/><path class="cls-21" d="M36.981,128.017l-.376.912a.224.224,0,0,0-.183.3c.056.271-.4.92-.522,1.21s-.37.781-.167.906.328.1.324.38.012.345.254.492.455.125.53.408.231.348.44.553.686-.3.686-.3a11.955,11.955,0,0,1,.72,1.5,18.348,18.348,0,0,1,.752,1.679c-.052.177-.278.27.042.519s.528.455.458.567-.081.132.2.307.428.211.451.353-.2.109.145.4.463-.027.564.217a.878.878,0,0,0,.376.519c.194.091.713-.159.779.139a.941.941,0,0,0,.559.631c.3.153.26-.151.653.115s.208.387.865.817a7.68,7.68,0,0,0,2.692,1.009,4.242,4.242,0,0,0,1.506.045l.748-.99-.216-.419s.511-.694.293-.931-.33.132-1.363.042a10.453,10.453,0,0,1-4.143-1.462c-.788-.664-1.527-.914-2.092-1.673s-1.6-2.939-2.275-3.731C38.578,131.224,38.281,128.951,36.981,128.017Z"/><path class="cls-19" d="M36.851,129.57a30.312,30.312,0,0,1,1.844,2.9,21.209,21.209,0,0,0,2.247,4.179,18,18,0,0,0,4.142,2.781c.984.345,3.51.994,3.752,1.012a.634.634,0,0,0,.427-.153l.072.382a5.414,5.414,0,0,1-2.193-.1c-.892-.317-5.152-2.134-5.987-3.269s-2.519-4.554-3-5.445-1.8-2.507-1.731-2.621S36.29,128.759,36.851,129.57Z"/><path class="cls-21" d="M49.2,106.451s-1.591-1.036-1.848-.391-.431,1.244-.431,1.244.725-.045,1.177.985,2.588,2.136,3.965,3.112a12.879,12.879,0,0,0,3.285,1.863,1.274,1.274,0,0,0,1.246-.423c.684-.772-.8-1.649-.8-1.649s.106,1.663-1.734.351a54,54,0,0,1-5.377-4.213C47.923,106.494,48.459,106.436,49.2,106.451Z"/><path class="cls-22" d="M70.671,88.058C63.412,87.346,54.6,86.34,47.751,89.2"/><path class="cls-23" d="M65.523,22.755a4.951,4.951,0,0,0-2.168,4.108c-.228,3.08-1.141,6.047-.456,7.758s1.392,3.506,1.392,3.506-.023,1.629-5.842.145-11.067-3.308-11.295-4.107,1.026-.913,2.4-4.108,2.834-7.21,2.834-7.21l12.683-.206Z"/><path class="cls-24" d="M52.657,19.247s-3.4-10.064,6.879-12.881S73.93,15.43,73.93,15.43L61.862,20.017c-3.661,1.392-9.185.494-9.185.494Z"/><path class="cls-25" d="M64.9,15.609l.536.317s.421-.811.172-.885-.265.51-.265.51-.473-.5-.546-.2S64.9,15.609,64.9,15.609Z"/><path class="cls-25" d="M63.374,14.426l.536.317s.42-.81.172-.885-.265.51-.265.51-.473-.5-.546-.2S63.374,14.426,63.374,14.426Z"/><path class="cls-25" d="M66.087,13.837l.536.317s.421-.811.172-.885-.265.51-.265.51-.473-.5-.546-.2S66.087,13.837,66.087,13.837Z"/><path class="cls-26" d="M53.276,18.946a41.652,41.652,0,0,0,7.708-.477c2.819-.617,9.451-2.729,9.451-2.729l3.208-1.22a1.194,1.194,0,0,1,1.458.309c.535.751,2.427,4.574,1.356,5.617s-6.18,2.531-7.116,2.7-6.137,1.424-9.253,2.018-8.067.3-8.722-.637S48.658,19.975,53.276,18.946Z"/><path class="cls-27" d="M56.045,25.523a12.72,12.72,0,0,1-1.056-3,5.006,5.006,0,0,1,.349-3.129"/><path class="cls-27" d="M58.4,25.369q-.42-1.207-.773-2.437a6.026,6.026,0,0,1-.215-3.629"/><path class="cls-27" d="M60.54,25.133a4.055,4.055,0,0,0,0-1.564A26.293,26.293,0,0,0,59.507,19.1"/><path class="cls-27" d="M62.912,24.591c.085.026.13-.1.127-.183a14.355,14.355,0,0,0-1.391-5.774"/><path class="cls-27" d="M65.285,24.039a7.512,7.512,0,0,0-.572-4.328A4.288,4.288,0,0,0,64,18.261"/><path class="cls-27" d="M67.666,23.378a9.253,9.253,0,0,0-.427-6.362"/><path class="cls-27" d="M70.332,22.866Q70.25,21.429,70.088,20a12.764,12.764,0,0,0-.8-3.579"/><path class="cls-27" d="M72.973,22.085a13.176,13.176,0,0,0-.24-3.432,5.011,5.011,0,0,0-1.78-2.892"/><path class="cls-27" d="M74.55,21.564c.305-.237.3-.67.393-1.032.085-.318.267-.607.354-.924a2.582,2.582,0,0,0,.006-1.117,6.612,6.612,0,0,0-2-3.684"/><path class="cls-25" d="M70.862,14.114l.536.317s.421-.81.172-.885-.265.511-.265.511-.473-.5-.546-.2S70.862,14.114,70.862,14.114Z"/><path class="cls-25" d="M69.337,12.932l.536.316s.42-.81.172-.885-.265.511-.265.511-.473-.5-.546-.2S69.337,12.932,69.337,12.932Z"/><path class="cls-25" d="M71.63,12.315l.536.317s.2-.774-.047-.848-.046.473-.046.473-.473-.5-.546-.2S71.63,12.315,71.63,12.315Z"/><path class="cls-27" d="M53.745,25.187a3.706,3.706,0,0,1-1.361-2.34,4.722,4.722,0,0,1,.415-2.708,1.5,1.5,0,0,1,.6-.741"/><path class="cls-25" d="M67.626,12.266l.536.317s.42-.811.172-.885-.265.51-.265.51-.473-.5-.546-.2S67.626,12.266,67.626,12.266Z"/><path class="cls-25" d="M58.233,17.544l.536.316s.42-.81.172-.885-.265.511-.265.511-.473-.5-.546-.2S58.233,17.544,58.233,17.544Z"/><path class="cls-25" d="M56.708,16.361l.536.317s.42-.811.171-.885-.264.51-.264.51-.473-.5-.546-.2S56.708,16.361,56.708,16.361Z"/><path class="cls-25" d="M59.558,15.6l.536.317s.421-.811.172-.886-.265.511-.265.511-.473-.5-.546-.2S59.558,15.6,59.558,15.6Z"/><path class="cls-25" d="M61.652,14.015l.536.316s.421-.81.172-.885-.265.511-.265.511-.473-.5-.546-.2S61.652,14.015,61.652,14.015Z"/><path class="cls-25" d="M52.2,17.015l.422.291s.42-.81.172-.885-.265.511-.265.511-.336-.627-.409-.326S52.2,17.015,52.2,17.015Z"/><path class="cls-25" d="M53.626,15.418l.537.317s.42-.81.171-.885-.264.511-.264.511-.473-.5-.546-.2S53.626,15.418,53.626,15.418Z"/><path class="cls-25" d="M57.528,14.37l.536.316s.421-.81.172-.885-.265.511-.265.511-.472-.5-.546-.2S57.528,14.37,57.528,14.37Z"/><path class="cls-25" d="M64.6,12.649l.536.317s.42-.811.172-.885-.265.51-.265.51-.473-.5-.546-.2S64.6,12.649,64.6,12.649Z"/><path class="cls-25" d="M70.129,11.414l.536.316s.42-.81.172-.885-.265.511-.265.511-.473-.5-.546-.2S70.129,11.414,70.129,11.414Z"/><path class="cls-26" d="M59.243,7.288a6.844,6.844,0,0,1-1.287.1c-.271-.058.259-.2.259-.2S57.2,7.091,57,6.865s.324-.135.324-.135A6.566,6.566,0,0,1,56.4,5.625c-.094-.273.182-.124.182-.124a8.9,8.9,0,0,1,.025-1.351l.072-.168s.686-.952.891-.912.111.194.111.194a2.241,2.241,0,0,1,1.183-.672c.849-.228.294.154.294.154a4.2,4.2,0,0,1,1.113.084c.505.125.339.263.339.263s.377-.213.477.077a2.629,2.629,0,0,1,.107.687s.142-.138.273.2a1.256,1.256,0,0,1,.014.723s.154.053.159.425-.391.685-.415.728.675-.014.245.326a10.239,10.239,0,0,1-1.392.8s-.018.191-.347.28A.524.524,0,0,1,59.243,7.288Z"/></svg>