<svg id="word" xmlns="http://www.w3.org/2000/svg" xmlns:xlink="http://www.w3.org/1999/xlink" viewBox="0 0 160 160"><defs><style>.cls-1{fill:#e6d1be;stroke:#231f20;}.cls-1,.cls-2,.cls-45{stroke-width:0.491px;}.cls-2{fill:#85b6cd;stroke-miterlimit:10;}.cls-10,.cls-11,.cls-12,.cls-13,.cls-14,.cls-15,.cls-16,.cls-17,.cls-18,.cls-19,.cls-2,.cls-20,.cls-21,.cls-22,.cls-23,.cls-24,.cls-25,.cls-26,.cls-27,.cls-28,.cls-29,.cls-3,.cls-30,.cls-31,.cls-32,.cls-33,.cls-34,.cls-35,.cls-36,.cls-37,.cls-38,.cls-39,.cls-4,.cls-40,.cls-41,.cls-42,.cls-43,.cls-44,.cls-45,.cls-5,.cls-6,.cls-7,.cls-8,.cls-9{stroke:#9d4b9c;}.cls-3{fill:#44b549;}.cls-10,.cls-11,.cls-12,.cls-13,.cls-14,.cls-15,.cls-16,.cls-17,.cls-18,.cls-19,.cls-20,.cls-21,.cls-22,.cls-23,.cls-24,.cls-25,.cls-26,.cls-27,.cls-28,.cls-29,.cls-3,.cls-30,.cls-31,.cls-32,.cls-33,.cls-34,.cls-35,.cls-36,.cls-37,.cls-38,.cls-39,.cls-4,.cls-40,.cls-41,.cls-42,.cls-43,.cls-44,.cls-5,.cls-6,.cls-7,.cls-8,.cls-9{stroke-width:0.197px;}.cls-4{fill:#4f5aa7;}.cls-5{fill:#fcf9d3;}.cls-6{fill:#8a4f21;}.cls-7{fill:#f59268;}.cls-8{fill:#ed2524;}.cls-9{fill:#be707e;}.cls-10{fill:#174d48;}.cls-11{fill:#89c540;}.cls-12{fill:#b07e63;}.cls-13{fill:#4254a4;}.cls-14{fill:#e88b53;}.cls-15{fill:#e8e9bc;}.cls-16{fill:#a2ddf5;}.cls-17{fill:#ed2c24;}.cls-18{fill:#279546;}.cls-19{fill:#2790a5;}.cls-20{fill:#5cbe8b;}.cls-21{fill:#f0e7b4;}.cls-22{fill:#972b90;}.cls-23{fill:#dcc132;}.cls-24{fill:#6f62ab;}.cls-25{fill:#fdf1d7;}.cls-26{fill:#7bc377;}.cls-27{fill:#d5dfde;}.cls-28{fill:#a6a7a4;}.cls-29{fill:#4653a3;}.cls-30{fill:#f8e3dd;}.cls-31{fill:#90cde2;}.cls-32{fill:#aab4a6;}.cls-33{fill:#67b67c;}.cls-34{fill:#f2787d;}.cls-35{fill:#daa743;}.cls-36{fill:#d71f26;}.cls-37{fill:#39203d;}.cls-38{fill:#66a1bb;}.cls-39{fill:#ccacd1;}.cls-40{fill:#c8886a;}.cls-41{fill:#fcc074;}.cls-42{fill:#a3cd4d;}.cls-43{fill:#ffd179;}.cls-44{fill:#487370;}.cls-45{fill:#ffe88e;}.cls-46{fill:#144a91;}.cls-47{fill:#6877a8;}.cls-48{fill:#1d5f9c;}.cls-49{fill:#4688c7;}.cls-50{fill:#ec2224;}.cls-51{fill:url(#linear-gradient);}.cls-52{fill:url(#linear-gradient-2);}.cls-53{fill:url(#linear-gradient-3);}.cls-54{fill:url(#linear-gradient-4);}.cls-55{fill:url(#linear-gradient-5);}.cls-56{fill:url(#linear-gradient-6);}.cls-57{fill:url(#linear-gradient-7);}.cls-58{fill:url(#linear-gradient-8);}.cls-59{fill:url(#linear-gradient-9);}.cls-60{fill:url(#linear-gradient-10);}.cls-61{fill:#e6c310;}.cls-62{fill:#faec00;}.cls-63{fill:#f9ee53;}.cls-64{fill:url(#linear-gradient-11);}.cls-65{fill:url(#linear-gradient-12);}.cls-66{fill:url(#linear-gradient-13);}.cls-67{fill:url(#linear-gradient-14);}.cls-68{fill:url(#linear-gradient-15);}.cls-69{fill:url(#linear-gradient-16);}.cls-70{fill:url(#linear-gradient-17);}.cls-71{fill:url(#linear-gradient-18);}.cls-72{fill:url(#linear-gradient-19);}.cls-73{fill:url(#linear-gradient-20);}.cls-74{fill:url(#linear-gradient-21);}.cls-75{fill:url(#linear-gradient-22);}.cls-76,.cls-84{fill:#fff;}.cls-77{fill:none;}.cls-78{opacity:0.57;}.cls-79{opacity:0.42;}.cls-80{fill:#b3d9a3;}.cls-81{fill:#a4b827;}.cls-82{fill:#f8f07f;}.cls-83{fill:#e31e25;}.cls-84{opacity:0.21;}.cls-85{fill:#4c74b8;}.cls-86{fill:#2f5d2d;}.cls-87{fill:#0e1c10;}.cls-88{fill:#f9ec2e;}.cls-89{fill:#8b4599;}</style><linearGradient id="linear-gradient" x1="120.541" y1="184.667" x2="121.441" y2="184.667" gradientTransform="matrix(0.999, 0.046, 0, 1.001, 3.47, -137.668)" gradientUnits="userSpaceOnUse"><stop offset="0.018" stop-color="#f27121"/><stop offset="0.989" stop-color="#cc171e"/></linearGradient><linearGradient id="linear-gradient-2" x1="121.238" y1="184.209" x2="120.615" y2="184.035" gradientTransform="matrix(0.01, 1, -1, 0.056, 307.129, -79.078)" xlink:href="#linear-gradient"/><linearGradient id="linear-gradient-3" x1="122.555" y1="184.607" x2="123.454" y2="184.607" xlink:href="#linear-gradient"/><linearGradient id="linear-gradient-4" x1="123.251" y1="184.15" x2="122.629" y2="183.975" gradientTransform="matrix(0.01, 1, -1, 0.056, 309.06, -81.056)" xlink:href="#linear-gradient"/><linearGradient id="linear-gradient-5" x1="126.602" y1="184.867" x2="127.501" y2="184.867" xlink:href="#linear-gradient"/><linearGradient id="linear-gradient-6" x1="127.299" y1="184.409" x2="126.676" y2="184.235" gradientTransform="matrix(0.01, 1, -1, 0.056, 313.32, -84.672)" xlink:href="#linear-gradient"/><linearGradient id="linear-gradient-7" x1="130.88" y1="185.123" x2="131.779" y2="185.123" xlink:href="#linear-gradient"/><linearGradient id="linear-gradient-8" x1="131.576" y1="184.665" x2="130.954" y2="184.491" gradientTransform="matrix(0.01, 1, -1, 0.056, 317.804, -88.512)" xlink:href="#linear-gradient"/><linearGradient id="linear-gradient-9" x1="128.727" y1="184.975" x2="129.626" y2="184.975" xlink:href="#linear-gradient"/><linearGradient id="linear-gradient-10" x1="129.423" y1="184.517" x2="128.801" y2="184.343" gradientTransform="matrix(0.01, 1, -1, 0.056, 315.528, -86.598)" xlink:href="#linear-gradient"/><linearGradient id="linear-gradient-11" x1="121.082" y1="189.713" x2="122.048" y2="189.713" gradientTransform="matrix(0.999, 0.046, 0, 1.001, 3.47, -137.668)" gradientUnits="userSpaceOnUse"><stop offset="0.018" stop-color="#ffde00"/><stop offset="0.773" stop-color="#dc8334"/><stop offset="1" stop-color="#d16644"/></linearGradient><linearGradient id="linear-gradient-12" x1="121.828" y1="189.423" x2="121.164" y2="189.237" gradientTransform="matrix(-0.001, 1, -1, 0.045, 314.35, -72.619)" gradientUnits="userSpaceOnUse"><stop offset="0.018" stop-color="#ffde00"/><stop offset="1" stop-color="#df883e"/></linearGradient><linearGradient id="linear-gradient-13" x1="122.829" y1="189.933" x2="123.794" y2="189.933" xlink:href="#linear-gradient-11"/><linearGradient id="linear-gradient-14" x1="123.575" y1="189.643" x2="122.911" y2="189.457" gradientTransform="matrix(-0.001, 1, -1, 0.045, 316.316, -74.075)" xlink:href="#linear-gradient-12"/><linearGradient id="linear-gradient-15" x1="122.566" y1="188.448" x2="123.531" y2="188.448" xlink:href="#linear-gradient-11"/><linearGradient id="linear-gradient-16" x1="123.312" y1="188.158" x2="122.648" y2="187.972" gradientTransform="matrix(-0.001, 1, -1, 0.045, 314.568, -75.244)" xlink:href="#linear-gradient-12"/><linearGradient id="linear-gradient-17" x1="124.221" y1="188.669" x2="125.186" y2="188.669" xlink:href="#linear-gradient-11"/><linearGradient id="linear-gradient-18" x1="124.967" y1="188.379" x2="124.303" y2="188.193" gradientTransform="matrix(-0.001, 1, -1, 0.045, 316.443, -76.612)" xlink:href="#linear-gradient-12"/><linearGradient id="linear-gradient-19" x1="124.049" y1="187.417" x2="125.015" y2="187.417" xlink:href="#linear-gradient-11"/><linearGradient id="linear-gradient-20" x1="124.795" y1="187.126" x2="124.131" y2="186.941" gradientTransform="matrix(-0.001, 1, -1, 0.045, 315.019, -77.647)" xlink:href="#linear-gradient-12"/><linearGradient id="linear-gradient-21" x1="125.56" y1="187.519" x2="126.526" y2="187.519" xlink:href="#linear-gradient-11"/><linearGradient id="linear-gradient-22" x1="126.306" y1="187.229" x2="125.642" y2="187.043" gradientTransform="matrix(-0.001, 1, -1, 0.045, 316.632, -78.991)" xlink:href="#linear-gradient-12"/></defs><rect class="cls-1" x="24.298" y="18.909" width="114.426" height="100.842"/><rect class="cls-2" x="138.147" y="19.547" width="3.22" height="95.838"/><polygon class="cls-3" points="73.619 26.085 73.984 26.256 79.255 28.302 83.906 46.283 81.491 62.653 71.382 25.015 73.619 26.085"/><rect class="cls-2" x="22.688" y="18.909" width="3.22" height="95.838"/><path class="cls-4" d="M51.791,62.206l5.547-1.163L50.27,26.6s-3.041-2.147-4.2-1.252-1.7,1.342-1.7,1.342Z"/><path class="cls-5" d="M57.7,62.6l4.115-.838L53.133,26.245s-1.7-.358-2.281,0-.391,1.284-.391,1.284Z"/><path class="cls-6" d="M61.81,61.759l3.758.447L56.89,24.634s-1.52-.894-2.415,0a10.2,10.2,0,0,0-1.342,1.611Z"/><path class="cls-7" d="M44.814,62.206l-.448-37.969s-1.342-1.213-1.968-.676-.626,2.524-.626,2.524V62.653h3.042Z"/><path class="cls-8" d="M57.7,26.085a2.424,2.424,0,0,1,1.521-.953c2.058-.117,2.237,3.259,2.237,3.259l7.6,33.368-3.488.447Z"/><path class="cls-9" d="M61.721,26.871s-.114-1.739,1.073-1.739c1.969,0,2.237,5.317,2.237,5.317l7.693,30.684-3.041,1.073Z"/><path class="cls-10" d="M65.031,27.586s-.09-1.163,1.61-1.073a11.522,11.522,0,0,1,2.952.534l7.872,34.712-4.025.894L64.315,28.138Z"/><path class="cls-11" d="M69.056,26.085s-.089-1.709,1.432-1.848,1.878.778,1.878.778l8.767,36.744-3.668.894Z"/><polygon class="cls-12" points="85.01 62.206 87.753 26.508 85.01 26.508 81.133 62.206 85.01 62.206"/><path class="cls-13" d="M90.884,24.237,87.753,62.206h-3.31l3.31-37.191S89.453,22.129,90.884,24.237Z"/><polygon class="cls-14" points="90.168 27.855 94.104 27.855 90.168 62.206 87.665 62.653 90.168 27.855"/><path class="cls-15" d="M94.552,23.424,90.168,62.206H92.36L97.5,24.222S95.8,21.951,94.552,23.424Z"/><polygon class="cls-16" points="99.74 27.318 96.251 27.855 91.868 62.653 95.804 62.653 99.74 27.855 99.74 27.318"/><polygon class="cls-17" points="102.603 25.529 99.74 25.132 95.178 62.653 97.951 62.653 102.603 25.529"/><polygon class="cls-18" points="106.181 24.237 102.961 24.222 97.504 62.206 101.082 62.206 106.181 24.237"/><polygon class="cls-19" points="107.702 27.318 105.018 27.855 100.366 62.206 104.034 62.653 107.702 27.318"/><polygon class="cls-20" points="111.817 27.318 107.702 26.508 103.572 62.597 106.897 62.206 111.817 27.318"/><path class="cls-21" d="M115.485,23.424,109.67,62.653l-4.026-.447,6.173-38.782S114.053,21.855,115.485,23.424Z"/><path class="cls-22" d="M118.437,25.015l-5.726,37.638H108.6l6.262-38.868S117.989,22.534,118.437,25.015Z"/><polygon class="cls-23" points="32.647 66.828 32.643 67.216 32.2 104.788 26.743 104.788 25.908 66.232 32.647 66.828"/><polygon class="cls-24" points="37.389 69.631 37.389 104.788 32.2 104.788 32.647 69.631 37.389 69.631"/><polygon class="cls-25" points="42.846 69.631 41.772 104.788 37.389 104.788 37.389 69.631 42.846 69.631"/><path class="cls-17" d="M46.692,69.631l-.626,35.157H41.772L42.4,69.094S46.245,68.468,46.692,69.631Z"/><path class="cls-26" d="M49.465,68.926,52.6,104.788H49.465l-3.6-35.721S47.766,66.521,49.465,68.926Z"/><path class="cls-27" d="M51.7,70.794l3.882,33.994H52.6L48.929,70.794S49.465,68.11,51.7,70.794Z"/><polygon class="cls-28" points="54.573 72.914 57.338 75.267 61.184 104.788 55.584 104.788 51.702 70.794 53.133 72.136 54.573 72.914"/><path class="cls-29" d="M86.322,104.251,91.6,70.794s2.862-2.215,3.936-1.868,1.431,1.868,1.431,1.868l-5.323,33.994Z"/><path class="cls-30" d="M101.35,68.926s-2.5-1.341-3.31-1.033S96.7,71.331,96.7,71.331l-5.726,33.457,5.189.626Z"/><path class="cls-31" d="M106.434,68.926s-3.026-1.43-3.831-1.033-2.02,1.033-2.02,1.033l-5.852,36.488h4.562Z"/><path class="cls-32" d="M112.89,68.926s-3.846-1.39-5.188-1.1l-1.342.287-7.693,37.751,4.562-.447Z"/><polygon class="cls-33" points="114.679 78.845 110.264 78.845 103.229 105.414 107.344 104.788 114.679 78.845"/><path class="cls-34" d="M120.8,68.926s-3.351-2.414-3.8-1.033-9.661,36.895-9.661,36.895h4.115L120.226,69.6Z"/><path class="cls-35" d="M123.625,69.631a13.449,13.449,0,0,0-2.326-.7c-.5,0-1.878,1.212-1.878,1.212l-7.515,34.65h3.221Z"/><path class="cls-36" d="M127.114,69.6s-3.489-1.38-3.489-.675-8.5,35.862-8.5,35.862h3.22Z"/><path class="cls-37" d="M130.513,67.893s-1.252-1.25-2.415-.427-10.735,37.322-10.735,37.322H120.8Z"/><path class="cls-38" d="M134.271,68.926s-1.123-1.528-2.5-1.033-10.646,37.521-10.646,37.521l4.384-.626Z"/><path class="cls-39" d="M135.076,68.926s-.269-1,1.252-.637,1.61,1.312,1.61,1.312l-9.393,35.187h-3.489Z"/><rect class="cls-2" x="18.458" y="104.788" width="125.295" height="2.684"/><path class="cls-40" d="M41.638,62.206l-.447-37.969s-1.342-1.213-1.968-.676-.627,2.524-.627,2.524V62.653h3.042Z"/><path class="cls-41" d="M38.865,62.087l-.448-30.949s-1.341-.988-1.968-.551-.626,2.058-.626,2.058V62.451h3.042Z"/><path class="cls-42" d="M35.689,62l-.447-37.969s-1.342-1.213-1.968-.676-.627,2.524-.627,2.524V62.451h3.042Z"/><path class="cls-43" d="M32.647,61.786,32.2,26.156s-1.342-1.138-1.968-.634-.626,2.369-.626,2.369V62.206h3.041Z"/><path class="cls-44" d="M29.472,61.786l-.448-35.63s-1.341-1.138-1.968-.634-.626,2.369-.626,2.369V62.206h3.042Z"/><rect class="cls-2" x="16.247" y="17.06" width="127.506" height="3.698"/><rect class="cls-2" x="16.247" y="62.653" width="127.267" height="2.475"/><rect class="cls-45" x="129.975" y="135.485" width="9.855" height="7.15"/><rect class="cls-45" x="29.542" y="135.79" width="9.855" height="7.15"/><polygon class="cls-2" points="22.325 111.194 22.707 138.388 143.534 138.388 142.891 111.719 22.325 111.194"/><polygon class="cls-45" points="28.019 114.637 28.214 134.63 137.235 135.092 136.505 114.637 28.019 114.637"/><ellipse class="cls-2" cx="85.396" cy="122.231" rx="1.969" ry="1.94"/><path class="cls-46" d="M119.5,49.623v12.99s-.126.063,1.01-.049c2.082-.207,17.43-.126,17.43-.126a71.321,71.321,0,0,1-.333-8.407,26.2,26.2,0,0,0-.316-5.426Z"/><path class="cls-47" d="M115.4,47.3l4.1,2.327v12.99s-4.242.37-4.368-.175.394-3.759.268-5.123S115.4,47.3,115.4,47.3Z"/><polygon class="cls-48" points="132.621 46.447 137.289 48.605 119.499 49.623 115.398 47.296 132.621 46.447"/><path class="cls-49" d="M121.626,50.43s.883,4.919.63,6.724a16.631,16.631,0,0,1-1.577,4.293,27.772,27.772,0,0,1,7.444-1.369c3.092.071,8.328-.074,8.328-.074s.315-5.581,0-6.792a17.267,17.267,0,0,1-.126-3.879s-7.76.672-9.148.638S121.626,50.43,121.626,50.43Z"/><path class="cls-50" d="M122.653,53.43v2.454s9.8.662,10.492.665a17.309,17.309,0,0,1,2.109.258l-.1-2.258Z"/><polygon class="cls-50" points="135.807 53.548 124.503 52.15 122.739 53.134 122.653 53.43 135.15 54.549 135.807 53.548"/><path class="cls-50" d="M135.807,53.548s.1,1.206.1,1.432v.6l-.657,1.226-.1-2.258Z"/><path class="cls-51" d="M123.867,52.289v.675a.516.516,0,0,0,.45.3.432.432,0,0,0,.449-.263v-.776l-.9-.035Z"/><ellipse class="cls-52" cx="124.317" cy="52.205" rx="0.245" ry="0.45" transform="translate(65.236 173.405) rotate(-86.792)"/><path class="cls-53" d="M125.879,52.321V53a.516.516,0,0,0,.449.3.432.432,0,0,0,.449-.263v-.777l-.9-.035Z"/><ellipse class="cls-54" cx="126.328" cy="52.238" rx="0.245" ry="0.45" transform="translate(67.102 175.444) rotate(-86.792)"/><path class="cls-55" d="M129.921,52.766v.675a.514.514,0,0,0,.449.3.434.434,0,0,0,.45-.263V52.7l-.9-.035Z"/><ellipse class="cls-56" cx="130.37" cy="52.682" rx="0.245" ry="0.45" transform="translate(70.474 179.9) rotate(-86.792)"/><path class="cls-57" d="M134.194,53.217v.675a.516.516,0,0,0,.449.3.435.435,0,0,0,.45-.263v-.777l-.9-.035Z"/><ellipse class="cls-58" cx="134.643" cy="53.133" rx="0.245" ry="0.45" transform="translate(74.058 184.592) rotate(-86.792)"/><path class="cls-59" d="M132.044,52.971v.675a.514.514,0,0,0,.449.3.432.432,0,0,0,.449-.263v-.776l-.9-.036Z"/><ellipse class="cls-60" cx="132.493" cy="52.887" rx="0.245" ry="0.45" transform="translate(72.274 182.213) rotate(-86.792)"/><path class="cls-61" d="M126.372,59.221l.14,2.18a28.137,28.137,0,0,1,2.473-2.839,15.138,15.138,0,0,0,1.331-1.252l.327-1.705s-1.751,1.431-2.136,1.808S126.372,59.221,126.372,59.221Z"/><polygon class="cls-62" points="123.268 58.554 123.384 60.734 126.512 61.401 126.512 59.096 123.268 58.554"/><polygon class="cls-63" points="127.889 55.496 123.268 58.554 126.518 59.1 130.643 55.605 127.889 55.496"/><path class="cls-64" d="M124.407,57.5v.466a.583.583,0,0,0,.483.214c.37.023.482-.175.482-.175v-.538l-.965-.038Z"/><ellipse class="cls-65" cx="124.89" cy="57.446" rx="0.169" ry="0.483" transform="translate(61.889 179.628) rotate(-87.424)"/><path class="cls-66" d="M126.152,57.8v.467a.583.583,0,0,0,.482.213c.37.023.482-.175.482-.175v-.538l-.964-.038Z"/><ellipse class="cls-67" cx="126.634" cy="57.746" rx="0.169" ry="0.483" transform="translate(63.255 181.657) rotate(-87.424)"/><path class="cls-68" d="M125.889,56.3v.467a.583.583,0,0,0,.483.214c.37.023.482-.176.482-.176v-.537l-.965-.038Z"/><ellipse class="cls-69" cx="126.372" cy="56.248" rx="0.169" ry="0.483" transform="translate(64.501 179.964) rotate(-87.424)"/><path class="cls-70" d="M127.543,56.6v.467a.583.583,0,0,0,.482.213c.37.023.482-.175.482-.175v-.537l-.964-.038Z"/><ellipse class="cls-71" cx="128.025" cy="56.545" rx="0.169" ry="0.483" transform="translate(65.784 181.899) rotate(-87.424)"/><path class="cls-72" d="M127.371,55.334V55.8a.584.584,0,0,0,.483.213c.37.023.482-.175.482-.175V55.3l-.965-.038Z"/><ellipse class="cls-73" cx="127.854" cy="55.283" rx="0.169" ry="0.483" transform="translate(66.881 180.523) rotate(-87.424)"/><path class="cls-74" d="M128.881,55.505v.467a.582.582,0,0,0,.482.214c.37.023.482-.176.482-.176v-.537l-.964-.038Z"/><ellipse class="cls-75" cx="129.363" cy="55.454" rx="0.169" ry="0.483" transform="translate(68.151 182.194) rotate(-87.424)"/><polygon class="cls-76" points="126.718 53.281 126.715 51.645 127.981 51.948 128.114 53.561 126.718 53.281"/><polygon class="cls-76" points="127.981 51.948 128.937 51.055 129.045 52.752 128.114 53.561 127.981 51.948"/><polygon class="cls-76" points="126.715 51.645 127.582 50.776 128.937 51.055 127.981 51.948 126.715 51.645"/><path class="cls-76" d="M127.381,50.725v.668a.51.51,0,0,0,.445.3.429.429,0,0,0,.446-.26V50.66l-.891-.035Z"/><ellipse class="cls-76" cx="127.826" cy="50.643" rx="0.242" ry="0.446" transform="translate(70.123 175.441) rotate(-86.798)"/><path class="cls-77" d="M115.711,47.226a.841.841,0,0,0,.624.26q2.22.249,4.425.654a3.456,3.456,0,0,1-1.2,1.421"/><path class="cls-77" d="M121.175,48.086c2.577.392,5.111-.646,7.7-.594a14.259,14.259,0,0,0,2.637.014"/><g class="cls-78"><path class="cls-76" d="M120.28,50.685l0,1.167.476-.06a.094.094,0,0,1,.088.027.142.142,0,0,1,.031.093.162.162,0,0,1-.03.1.123.123,0,0,1-.088.048l-.567.072a.114.114,0,0,1-.11-.033.242.242,0,0,1-.034-.148l0-1.235a.3.3,0,0,1,.032-.152.11.11,0,0,1,.084-.06.086.086,0,0,1,.086.038A.242.242,0,0,1,120.28,50.685Z"/><path class="cls-76" d="M121.792,50.574l-.529.067v.394l.487-.061a.084.084,0,0,1,.08.023.122.122,0,0,1,.027.085.154.154,0,0,1-.026.092.11.11,0,0,1-.08.045l-.487.061v.457l.547-.07a.093.093,0,0,1,.084.025.135.135,0,0,1,.028.092.16.16,0,0,1-.028.1.114.114,0,0,1-.083.046l-.638.081a.112.112,0,0,1-.11-.034.237.237,0,0,1-.034-.147l0-1.206a.387.387,0,0,1,.015-.117.136.136,0,0,1,.047-.07.164.164,0,0,1,.081-.031l.62-.078a.087.087,0,0,1,.083.024.12.12,0,0,1,.028.086.159.159,0,0,1-.027.1A.11.11,0,0,1,121.792,50.574Z"/><path class="cls-76" d="M123.168,51.1v.307a.448.448,0,0,1-.008.1.186.186,0,0,1-.032.07.351.351,0,0,1-.059.065.986.986,0,0,1-.2.14.629.629,0,0,1-.212.063.481.481,0,0,1-.244-.026.436.436,0,0,1-.188-.141.716.716,0,0,1-.119-.248,1.246,1.246,0,0,1-.043-.339,1.472,1.472,0,0,1,.039-.348.906.906,0,0,1,.118-.279.634.634,0,0,1,.19-.189.608.608,0,0,1,.255-.09.45.45,0,0,1,.207.017.362.362,0,0,1,.146.09.4.4,0,0,1,.085.128.344.344,0,0,1,.029.127.194.194,0,0,1-.032.109.115.115,0,0,1-.079.053.078.078,0,0,1-.049-.01.119.119,0,0,1-.039-.041,1.124,1.124,0,0,0-.074-.133.2.2,0,0,0-.211-.087.308.308,0,0,0-.145.057.394.394,0,0,0-.11.127.676.676,0,0,0-.069.189,1.21,1.21,0,0,0-.023.241.774.774,0,0,0,.095.423.257.257,0,0,0,.262.119.457.457,0,0,0,.153-.049.79.79,0,0,0,.144-.1v-.26l-.182.023a.151.151,0,0,1-.1-.015.1.1,0,0,1-.033-.089.149.149,0,0,1,.027-.092.107.107,0,0,1,.077-.045l.266-.034a.249.249,0,0,1,.083,0,.084.084,0,0,1,.055.047A.267.267,0,0,1,123.168,51.1Z"/><path class="cls-76" d="M123.9,50.029a.451.451,0,0,1,.31.062.523.523,0,0,1,.2.263,1.216,1.216,0,0,1,.068.43,1.476,1.476,0,0,1-.035.343.944.944,0,0,1-.109.278.6.6,0,0,1-.178.193.549.549,0,0,1-.242.09.465.465,0,0,1-.244-.03.431.431,0,0,1-.18-.149.73.73,0,0,1-.109-.252,1.368,1.368,0,0,1-.038-.331,1.5,1.5,0,0,1,.037-.344.966.966,0,0,1,.11-.277.627.627,0,0,1,.177-.188A.543.543,0,0,1,123.9,50.029Zm.336.783a.944.944,0,0,0-.042-.3.353.353,0,0,0-.118-.18.23.23,0,0,0-.175-.044.269.269,0,0,0-.13.053.378.378,0,0,0-.1.119.686.686,0,0,0-.067.188,1.186,1.186,0,0,0-.024.248,1.123,1.123,0,0,0,.025.244.509.509,0,0,0,.072.174.269.269,0,0,0,.1.1.226.226,0,0,0,.13.02.3.3,0,0,0,.165-.084.5.5,0,0,0,.12-.208A1.043,1.043,0,0,0,124.235,50.812Z"/></g><g class="cls-79"><polygon class="cls-76" points="116.397 59.817 116.395 58.181 117.661 58.485 117.794 60.098 116.397 59.817"/><polygon class="cls-76" points="117.661 58.485 118.616 57.592 118.725 59.289 117.794 60.098 117.661 58.485"/><polygon class="cls-76" points="116.395 58.181 117.262 57.313 118.616 57.592 117.661 58.485 116.395 58.181"/><path class="cls-76" d="M117.06,57.262v.668a.514.514,0,0,0,.446.3.429.429,0,0,0,.445-.26V57.2l-.891-.035Z"/><ellipse class="cls-76" cx="117.506" cy="57.179" rx="0.242" ry="0.446" transform="translate(53.853 171.308) rotate(-86.798)"/></g><g class="cls-79"><polygon class="cls-76" points="116.414 57.481 116.412 55.845 117.677 56.149 117.81 57.762 116.414 57.481"/><polygon class="cls-76" points="117.677 56.149 118.633 55.256 118.742 56.952 117.81 57.762 117.677 56.149"/><polygon class="cls-76" points="116.412 55.845 117.278 54.977 118.633 55.256 117.677 56.149 116.412 55.845"/><path class="cls-76" d="M117.077,54.926v.667a.51.51,0,0,0,.445.295.429.429,0,0,0,.446-.26V54.86l-.891-.035Z"/><ellipse class="cls-76" cx="117.522" cy="54.843" rx="0.242" ry="0.446" transform="translate(56.201 169.119) rotate(-86.798)"/></g><g class="cls-79"><polygon class="cls-76" points="116.498 52.233 116.496 50.597 117.762 50.901 117.895 52.514 116.498 52.233"/><polygon class="cls-76" points="117.762 50.901 118.718 50.008 118.826 51.704 117.895 52.514 117.762 50.901"/><polygon class="cls-76" points="116.496 50.597 117.363 49.729 118.718 50.008 117.762 50.901 116.496 50.597"/><path class="cls-76" d="M117.161,49.678v.667a.512.512,0,0,0,.446.3.427.427,0,0,0,.445-.26v-.768l-.891-.035Z"/><ellipse class="cls-76" cx="117.607" cy="49.595" rx="0.242" ry="0.446" transform="translate(61.521 164.248) rotate(-86.798)"/></g><g class="cls-79"><polygon class="cls-76" points="116.343 54.892 116.341 53.256 117.607 53.56 117.74 55.173 116.343 54.892"/><polygon class="cls-76" points="117.607 53.56 118.562 52.667 118.671 54.363 117.74 55.173 117.607 53.56"/><polygon class="cls-76" points="116.341 53.256 117.208 52.388 118.562 52.667 117.607 53.56 116.341 53.256"/><path class="cls-76" d="M117.006,52.337V53a.512.512,0,0,0,.446.3.429.429,0,0,0,.445-.26v-.768l-.891-.035Z"/><ellipse class="cls-76" cx="117.452" cy="52.254" rx="0.242" ry="0.446" transform="translate(58.719 166.604) rotate(-86.798)"/></g><polygon class="cls-80" points="63.152 89.83 63.376 104.213 82.627 104.094 83.46 88.552 63.152 89.83"/><polygon class="cls-81" points="61.989 88.552 63.152 89.83 63.376 104.213 62.481 103.072 61.989 88.552"/><polygon class="cls-82" points="82.031 87.73 61.989 88.552 63.152 89.83 83.46 88.552 82.031 87.73"/><path class="cls-83" d="M76.042,99.735,78.723,93.8s-1.406-2.246-.825-3.371.988-1.141,2.569-.883,2.075,1.6,1.292,2.98a5.769,5.769,0,0,1-1.509,1.444l1.33,6.625a4.724,4.724,0,0,1-3.242.44C76.369,100.664,76.042,99.735,76.042,99.735Z"/><ellipse class="cls-84" cx="79.522" cy="90.674" rx="0.946" ry="1.095" transform="translate(-22.324 155.273) rotate(-81.135)"/><path class="cls-85" d="M73.825,100.716l1.066-3.855s-1.066-1.23-.82-1.968.492-.787,1.476-.779,1.411.774,1.066,1.687a3.55,3.55,0,0,1-.779,1.019l1.435,3.9a2.9,2.9,0,0,1-1.927.574C74.112,101.249,73.825,100.716,73.825,100.716Z"/><ellipse class="cls-84" cx="75.08" cy="94.886" rx="0.673" ry="0.581"/><path class="cls-86" d="M63.6,98.672l1.066-3.855s-1.066-1.231-.82-1.969.492-.786,1.476-.779,1.411.775,1.067,1.687a3.557,3.557,0,0,1-.78,1.02l1.435,3.9a2.9,2.9,0,0,1-1.927.574C63.885,99.205,63.6,98.672,63.6,98.672Z"/><ellipse class="cls-84" cx="64.853" cy="92.841" rx="0.673" ry="0.581"/><path class="cls-87" d="M69.877,96.9l1.066-3.855s-1.066-1.23-.82-1.968.492-.786,1.476-.779,1.411.774,1.067,1.687A3.547,3.547,0,0,1,71.886,93l1.435,3.9a2.9,2.9,0,0,1-1.927.574C70.164,97.43,69.877,96.9,69.877,96.9Z"/><ellipse class="cls-84" cx="71.132" cy="91.067" rx="0.673" ry="0.581"/><path class="cls-88" d="M71,101.879l1.066-3.855s-1.066-1.231-.82-1.969.492-.786,1.476-.779,1.412.775,1.067,1.687a3.56,3.56,0,0,1-.779,1.02l1.434,3.9a2.9,2.9,0,0,1-1.927.574C71.289,102.412,71,101.879,71,101.879Z"/><ellipse class="cls-84" cx="72.257" cy="96.048" rx="0.673" ry="0.581"/><path class="cls-89" d="M67.042,101.489l1.066-3.855s-1.066-1.231-.82-1.969.492-.786,1.476-.779,1.412.775,1.067,1.687a3.56,3.56,0,0,1-.779,1.02l1.434,3.9a2.9,2.9,0,0,1-1.927.574C67.329,102.022,67.042,101.489,67.042,101.489Z"/><ellipse class="cls-84" cx="68.297" cy="95.658" rx="0.673" ry="0.581"/></svg>