<svg id="word" xmlns="http://www.w3.org/2000/svg" viewBox="0 0 160 160"><defs><style>.cls-1{fill:#cdeafa;}.cls-1,.cls-10,.cls-11,.cls-12,.cls-13,.cls-14,.cls-2,.cls-3,.cls-4,.cls-5,.cls-6,.cls-7,.cls-8,.cls-9{stroke:#9c4c9c;}.cls-1,.cls-10,.cls-11,.cls-12,.cls-13,.cls-2,.cls-3,.cls-4,.cls-5,.cls-6,.cls-7,.cls-8,.cls-9{stroke-width:0.596px;}.cls-2{fill:#fde6db;}.cls-3{fill:#f17657;}.cls-14,.cls-4{fill:#fff;}.cls-5{fill:#6a6a6c;}.cls-6{fill:#d5dd26;}.cls-7{fill:#ece7c5;}.cls-8{fill:#fdf9d5;}.cls-9{fill:none;}.cls-10{fill:#26a7df;}.cls-11{fill:#00a59b;}.cls-12{fill:#ffe496;}.cls-13{fill:#d0ebfa;}.cls-14{stroke-width:0.575px;}.cls-15{fill:#9c4c9c;}</style></defs><path class="cls-1" d="M94.822,114.823v2.659l24.883,18.512,21.313-10.841s1.626-1.6-.753-1.907-20.164,8.759-20.164,8.759-14.474-10.227-16.853-12.477a53.447,53.447,0,0,0-7.137-5.114Z"/><path class="cls-2" d="M49.319,50.286s-.5,11.557-1.09,12.785a45.787,45.787,0,0,0-1.586,5.523l1.09,10.125,5.453,9.614,6.642-.1s.594-7.875-.2-10.534a48.957,48.957,0,0,0-2.874-6.648l3.569-4.808Z"/><path class="cls-2" d="M50.984,85.888l9.437.218s.742,3.064-.212,4.7-3.711,9.3-3.711,9.3a25.071,25.071,0,0,1-2.439-4.486C52.893,92.889,50.984,85.888,50.984,85.888Z"/><path class="cls-3" d="M59.034,70.844s.144-.017.4-.023a9.13,9.13,0,0,1,4.759,1.25c2.577,1.534,4.857,8.08,6.939,11.046s4.362,6.035,4.461,5.523S73.6,74.986,73.6,74.986l8-2.214S85.6,96,85.206,97.947s1.19,10.023-4.263,6.443-15.564-9.306-15.564-9.306"/><path class="cls-3" d="M42.578,68.7l-5.749,3.171L39.6,116.05l17.943-1.125s0-7.671,3.173-10.432,5.75-3.068,5.65-7.569-2.676-12.579-2.676-12.579l-5.849-13.3,2.046,14.4s-.955,3.7-1.352,5.133-2.28,8.387-2.28,8.387a9.485,9.485,0,0,1-2.479-6.853c.4-3.886-4.461-13.3-4.461-13.3L45.453,67.264Z"/><path class="cls-4" d="M46.849,62.7s-2.586-.955-1.99,5.387a73.118,73.118,0,0,1-.1,14.113,8.977,8.977,0,0,1-.991,2.047l7.633.817a7.961,7.961,0,0,0,1.289,1.33c.3.1-.694-7.364-1.983-9.614s-3.568-8.182-2.776-9.206.614-5.312.614-5.312Z"/><path class="cls-4" d="M59.361,67.947a19.924,19.924,0,0,1,1.557,6.272c0,2.659,3.965,10.228,3.965,10.228s-3.072-1.125-3.668.2a7.982,7.982,0,0,1-1.982,2.455s.4-7.977-.892-10.432a17.556,17.556,0,0,1-1.586-5.625Z"/><path class="cls-2" d="M80.4,73.644s-.893-6.751,0-9.308,3.073-5.727,2.478-8.694S79.906,44.9,79.906,44.9a17.872,17.872,0,0,0-1.288,6.75c.2,3.17-.3,7.057-1.388,6.648-.353-.132-.812-1.853-.786-2.3.222-3.731,0-2.625-.53-1.7-.191.334-1.46,2.768-1.46,2.768s-.641,5.717.409,6.972a3.463,3.463,0,0,1,.945,2.348l-.561,4.182v2.658Z"/><path class="cls-3" d="M36.829,71.867s2.7,2.862,3.766,10.944c.628,4.77-1.487,18.307-1.387,20.045s-.794,1.534,0,2.25.4,1.33,1.685,1.229,6.84-.206,8.03,1.329,4.56,2.556,4.56,2.556l-.892,8.592s-22.8-1.228-23.792-2.966-.1-17.387-.1-21.171S29.246,70.025,36.829,71.867Z"/><path class="cls-5" d="M72.418,112.624l9.021,2.1s6.146.153,7.93.512,3.867,1.686,2.578,2.607S80.4,124.13,80.4,124.13L63,119.579s-2.231-1.177-.892-1.893S72.418,112.624,72.418,112.624Z"/><path class="cls-6" d="M81.885,116.357l.248.008c1.121.038,5.633.234,5.155.862-.545.716-7.781,4.871-7.781,4.871s-3.287-1.2-3.57-.985C75.156,121.718,81.885,116.357,81.885,116.357Z"/><path class="cls-2" d="M58.737,111.908s4.164.2,5.156-.2,5.4-1.994,5.6-1.994,2.726-1.637,3.718-1.79,2.032.511,1.14,1.33a15.143,15.143,0,0,1-2.528,1.687s3.073-.819,4.758-.1,3.916,2.25,3.569,2.915-.595.92-1.14.46a15.986,15.986,0,0,0-3.965-1.278c-.3,0-2.032.2-2.032.2a16.87,16.87,0,0,1,2.924,1.177c1.041.613,2.924,2.71,2.379,3.272s-1.239.051-1.487-.2-2.18-1.79-2.18-1.79l-2.975-.511s2.231,1.534,2.677,1.943,2.717,2.778,1.338,3.273c-.608.219-4.064-3.222-4.064-3.222L69.2,116s3.843,3.254,2.528,4.091c-.283.18-3.42-2.608-3.42-2.608s-1.586.153-3.272.153-6.443-.767-6.443-.767S55.862,113.544,58.737,111.908Z"/><path class="cls-7" d="M43.019,128.2s.661,1.3.33,1.774-.991.818-.925,1.158.066-.2-.2.683,0,.272.4,1.227.4.75.331,1.3a4.209,4.209,0,0,0,.4,1.569l-.132,1.295a23.64,23.64,0,0,0-2.842-.2,34.337,34.337,0,0,0-5.485.954c-1.586.341-4.759.069-6.609.682s-3.3,1.16-3.3,1.16a16.348,16.348,0,0,1,.728-2.319c.528-1.363.066-1.841.727-3.341s1.454-3.546,1.454-3.546,2.18-.478,3.634-.75,6.675-1.159,7.2-1.159S43.019,128.2,43.019,128.2Z"/><path class="cls-7" d="M19.756,123.291a6.463,6.463,0,0,1,3.767,1.909c1.388,1.636,3.7,3.955,3.7,3.955l1.189,1.5s-2.048,5.318-2.378,6.409-.86,3.069-.86,3.069-.463-.2-1.52-1.977a37.679,37.679,0,0,0-3.834-4.842c-.727-.818.066-.75.066-.75Z"/><path class="cls-8" d="M21.8,123.018a23.767,23.767,0,0,0,4.5-.683,8.153,8.153,0,0,0,3.172-1.908,15.537,15.537,0,0,0,4.758,3.818c2.512,1.091,4.561.955,6.543,2.045a14.452,14.452,0,0,0,3.635,1.432,7.46,7.46,0,0,1-1.983.887c-1.057.272-14.209,2.864-14.209,2.864s-1.454-1.842-2.313-2.8a33.13,33.13,0,0,0-3.833-3.818c-.727-.409-2.313-1.568-2.313-1.568Z"/><path class="cls-9" d="M41.962,132.36c-2.649-.81-6.581,1.285-9.451,1.295"/><path class="cls-9" d="M26.761,136.655c4.589-.015,8.693-1.311,13.152-1.773"/><path class="cls-9" d="M43.283,135.359c-2.394-.11-4.8.571-7.2.682"/><path class="cls-9" d="M42.49,132.973c-2.833.659-5.975.491-8.657,1.5"/><path class="cls-9" d="M42.755,130.518c-3.89.909-7.9.782-11.764,1.568"/><path class="cls-9" d="M26.7,133.518c-.91-1.527-2.9-2.186-4.3-3.205"/><path class="cls-9" d="M21.54,126.631c.545,1.366,4.545,3.76,6.146,4.569"/><path class="cls-9" d="M25.968,135.087a22.375,22.375,0,0,1-6.147-3.546"/><path class="cls-10" d="M112.468,107.97s11.7,6.444,13.978,7.774,11.5,5.011,13.086,6.136,1.884,1.739.792,1.739-20.223,9.716-20.223,9.716-8.3-5.741-11.275-8.5-12.021-8.475-12.021-8.475l-2.453-1.972s9.095-2.63,11.275-3.755A65.063,65.063,0,0,1,112.468,107.97Z"/><path class="cls-9" d="M136.359,121.471s0-1.943,1.587-1.534a2.068,2.068,0,0,1,1.586,1.943"/><path class="cls-9" d="M114.075,110.064c-1.407-2.576,4.025-2.781,3.074.273"/><path class="cls-9" d="M118.582,111.857c-.536-2.586,2.935-2.13,2.378.818"/><path class="cls-9" d="M122.084,114.517c.823-2.239,2.806-2.046,2.753.087"/><path class="cls-9" d="M126.248,116.766c.02-2.436,3.042-2,2.46-.029"/><path class="cls-9" d="M130.085,119.035c.566-2.241,2.924-2.852,3.022-.329"/><path class="cls-9" d="M134.046,120.721a3.313,3.313,0,0,1-.236-1.706c1.056-.763,2.15-.4,2.087.956"/><path class="cls-11" d="M88.092,104.4a10.306,10.306,0,0,1-.877-4.111c0-2.319.877-3.163.877-3.163l45.865-.738.437,7.7Z"/><path class="cls-4" d="M95.871,103.56s-.037-1.686-.037-3.163a14.539,14.539,0,0,1,.583-3.413l7.23-.119s-1.7.87-1.825,5.746a5.585,5.585,0,0,0,.237,1.648H95.978Z"/><path class="cls-4" d="M126.216,97.656c1.775,0,3.213,1.015,3.213,2.266s-1.438,2.268-3.213,2.268S123,101.175,123,99.922,124.442,97.656,126.216,97.656Z"/><path class="cls-11" d="M91.513,97.23a10.309,10.309,0,0,1-.876-4.111c0-2.319.876-3.162.876-3.162l45.865-.739.438,7.7Z"/><path class="cls-4" d="M99.292,96.388s-.037-1.687-.037-3.164a14.526,14.526,0,0,1,.583-3.412l7.231-.119s-1.7.87-1.825,5.746a5.562,5.562,0,0,0,.236,1.647H99.4Z"/><path class="cls-4" d="M129.637,90.484c1.775,0,3.213,1.014,3.213,2.266s-1.438,2.268-3.213,2.268S126.422,94,126.422,92.75,127.863,90.484,129.637,90.484Z"/><path class="cls-11" d="M88.092,89.935a10.308,10.308,0,0,1-.877-4.112c0-2.319.877-3.162.877-3.162l45.865-.739.437,7.7Z"/><path class="cls-4" d="M95.871,89.092s-.037-1.687-.037-3.163a14.539,14.539,0,0,1,.583-3.413l7.23-.119s-1.7.87-1.825,5.746a5.575,5.575,0,0,0,.237,1.647H95.978Z"/><path class="cls-4" d="M126.216,83.187c1.775,0,3.213,1.016,3.213,2.267s-1.438,2.267-3.213,2.267S123,86.706,123,85.454,124.442,83.187,126.216,83.187Z"/><path class="cls-11" d="M91.513,82.5a10.317,10.317,0,0,1-.876-4.112c0-2.319.876-3.162.876-3.162l45.865-.738.438,7.695Z"/><path class="cls-4" d="M99.292,81.658s-.037-1.687-.037-3.163a14.539,14.539,0,0,1,.583-3.413l7.231-.119s-1.7.87-1.825,5.746a5.562,5.562,0,0,0,.236,1.647H99.4Z"/><path class="cls-4" d="M129.637,75.754c1.775,0,3.213,1.015,3.213,2.266s-1.438,2.267-3.213,2.267-3.215-1.015-3.215-2.267S127.863,75.754,129.637,75.754Z"/><path class="cls-11" d="M94.024,75.064a10.316,10.316,0,0,1-.876-4.111c0-2.32.876-3.163.876-3.163l45.866-.738.437,7.7Z"/><path class="cls-4" d="M101.8,74.221s-.037-1.686-.037-3.163a14.539,14.539,0,0,1,.583-3.413l7.231-.118s-1.7.869-1.825,5.745a5.555,5.555,0,0,0,.236,1.647h-6.08Z"/><path class="cls-4" d="M132.148,68.317c1.775,0,3.213,1.015,3.213,2.266s-1.438,2.267-3.213,2.267-3.214-1.015-3.214-2.267S130.374,68.317,132.148,68.317Z"/><path class="cls-11" d="M92.776,68.013A10.323,10.323,0,0,1,91.9,63.9c0-2.319.876-3.163.876-3.163L138.642,60l.437,7.7Z"/><path class="cls-4" d="M100.555,67.169s-.037-1.686-.037-3.162a14.54,14.54,0,0,1,.583-3.414l7.231-.119s-1.7.87-1.825,5.747a5.575,5.575,0,0,0,.237,1.647h-6.081Z"/><path class="cls-4" d="M130.9,61.265c1.775,0,3.212,1.016,3.212,2.267S132.676,65.8,130.9,65.8s-3.215-1.015-3.215-2.266S129.126,61.265,130.9,61.265Z"/><path class="cls-11" d="M96.335,60.686a10.322,10.322,0,0,1-.876-4.111c0-2.32.876-3.163.876-3.163l45.865-.738.438,7.7Z"/><path class="cls-4" d="M104.114,59.843s-.037-1.687-.037-3.163a14.539,14.539,0,0,1,.583-3.413l7.231-.12s-1.7.871-1.825,5.748a5.56,5.56,0,0,0,.236,1.646h-6.081Z"/><path class="cls-4" d="M134.459,53.939c1.775,0,3.213,1.015,3.213,2.267s-1.438,2.266-3.213,2.266-3.215-1.015-3.215-2.266S132.685,53.939,134.459,53.939Z"/><path class="cls-12" d="M76.432,33.213c9.617,3.307-3.087,13.938,6.229,17.422-4.045-5.119,5.395-10.9-2.252-16.273"/><path class="cls-4" d="M74.012,68.17s5.353.613,6.245-.2a4.418,4.418,0,0,1,1.685-1.022s2.578,10.534,2.676,11.148-1.882,2.352-4.46,2.25S72.62,77.83,72.62,77.83Z"/><path class="cls-4" d="M53.186,109.2l6.543,1.943s-2.28,3.068-1.686,4.5a6.287,6.287,0,0,1,.595,2.045l-9.616,2.762s-.3-4.091.793-5.727a24.142,24.142,0,0,0,2.081-4.807l.678-1.928Z"/><path class="cls-13" d="M44.462,119.323s4.312,3.274,6.939,3.887,4.66.255,8.873,2.352,5.6,3.887,6.444,5.114,4.312,3.682,4.312,3.682l-10.31,1.534s-3.47-5.983-6.692-6.75-5.055-.512-6.443-1.432-11.55-6.034-11.55-6.034Z"/><path class="cls-9" d="M40.434,122.59c1.424-.446,2.753-.857,4.188-1.2"/><path class="cls-9" d="M42.607,123.794c1.786-.233,3.419-1.561,5.248-1.423"/><path class="cls-9" d="M45.523,125.216a15.628,15.628,0,0,1,3.658-1.7"/><path class="cls-9" d="M47.219,126.036c1.369-.492,2.786-.819,4.136-1.367"/><path class="cls-9" d="M49.075,126.364a24.753,24.753,0,0,1,6.892-1.859"/><path class="cls-9" d="M52.521,127.13a23.573,23.573,0,0,1,4.507-.984"/><path class="cls-9" d="M53.9,128.552c1.946-.639,4.1-.474,6.044-1.2"/><path class="cls-9" d="M56.975,129.865c1.768-.4,3.611-.326,5.354-.82"/><path class="cls-9" d="M59.361,132a48.127,48.127,0,0,1,5.885-.329"/><path class="cls-9" d="M60.156,134.241a29.286,29.286,0,0,0,5.779-.329"/><path class="cls-13" d="M84.993,126.838a5.654,5.654,0,0,0,3.469-2.1,32.386,32.386,0,0,0,2.529-3.58s1.536,4.092,3.42,4.552.794-.511,4.51.153,4.065,2.353,4.461,2.915a15.333,15.333,0,0,0,2.479,1.892s-2.23,1.176-3.817,1.944a25.142,25.142,0,0,0-2.924,1.687s-1.19-3.017-2.924-2.864a2.385,2.385,0,0,0-2.082,1.842,1.9,1.9,0,0,1-3.024.357c-1.685-1.636-2.925-3.937-3.767-4.858A16.624,16.624,0,0,0,84.993,126.838Z"/><path class="cls-9" d="M91.33,123.958a15.443,15.443,0,0,1-2.7,3.227"/><path class="cls-9" d="M91.808,125.872a15.567,15.567,0,0,1-3.818,3.173"/><path class="cls-9" d="M94.617,126.638c-1.322,1.743-3.693,2.273-5.037,3.938"/><path class="cls-9" d="M96.314,127.677a29.122,29.122,0,0,0-4.136,3.665"/><path class="cls-9" d="M99.442,126.966c-1.192.67-3.288,2.08-3.712,3.5"/><path class="cls-9" d="M97.374,131.4c1.377.071,2.047-1.584,3.552-1.8"/><path class="cls-9" d="M98.911,132.6a19.231,19.231,0,0,1,5.78-1.914"/><path class="cls-13" d="M65.069,127.346a5.561,5.561,0,0,0,3.953-.76,31.311,31.311,0,0,0,3.554-2.483s.1,4.386,1.723,5.477.914-.2,4.193,1.722,3.052,3.634,3.239,4.3a15.85,15.85,0,0,0,1.711,2.648s-2.485.326-4.229.493a24.817,24.817,0,0,0-3.306.565s-.128-3.254-1.81-3.716a2.324,2.324,0,0,0-2.564,1,1.892,1.892,0,0,1-2.962-.721c-1.048-2.128-1.459-4.726-1.948-5.887A17.233,17.233,0,0,0,65.069,127.346Z"/><path class="cls-9" d="M71.977,126.851a14.938,14.938,0,0,1-3.6,2.09"/><path class="cls-9" d="M71.8,128.818a15.126,15.126,0,0,1-4.633,1.652"/><path class="cls-9" d="M74.189,130.522c-1.816,1.177-4.221.848-6.032,1.945"/><path class="cls-9" d="M75.444,132.093a28.348,28.348,0,0,0-5.095,2"/><path class="cls-9" d="M78.621,132.518c-1.342.213-3.777.806-4.642,2"/><path class="cls-9" d="M75.22,135.963c1.272.548,2.447-.774,3.935-.456"/><path class="cls-9" d="M76.271,137.632a19.1,19.1,0,0,1,6.066.22"/><path class="cls-12" d="M63.836,20.174c.63-5.119-8.907-8.2-14.7-2.738-2.909,2.744-4.112,7.841-.76,10.894"/><path class="cls-2" d="M76.923,34.057S80.1,42.649,79.5,46.331s-4.56,7.568-4.659,9.511S70.084,64.229,68.2,66.274s-8.624,3.682-10.806,2.762-9.087-11.848-9.781-15.223,3.833-26.2,8.294-26.915S72.364,24.136,76.923,34.057Z"/><path class="cls-12" d="M68,28.637s2.18,2.25,4.956,5.42,7.237,7.057,7.435,9.2-2.379,5.625-2.379,5.625,3.074-1.124,4.065-3.579,2.577-3.785,2.874-4.6,1.983-1.534,1.191-4.807-2.182-4.909-3.073-7.466-4.76-5.319-7.436-6.341a13.976,13.976,0,0,0-6.245-.41,7.686,7.686,0,0,0-5.651-2.454c-3.47.1-9.715,2.046-11,3.477s-2.974,1.33-4.56,3.785-1.586,4.3-1.983,6.136-3.139,4.677-3.139,7.951.056,5.818,2.863,7.768c.758.526,1.59,5.847,1.59,6.563s.173-14.611,2.949-15.634,5.75-3.988,10.706-4.909A9.466,9.466,0,0,0,67.9,29.046"/><path class="cls-12" d="M69.191,27.716s1.289,4.091-.5,6.341S58.385,37.33,56.8,37.944s-5.354,2.454-5.552,6.443.6,7.671-1.289,11.659A10.115,10.115,0,0,1,44.11,61.16s6.365-8.222,2.082-18.1c-1.238-2.856-.1-9.819,7.039-10.228s9.584-.265,12.094-1.637A10.851,10.851,0,0,0,69.191,27.716Z"/><path class="cls-9" d="M68.2,49.5s-1.586,3.273-1.586,4.909.694,2.557-.2,2.967-2.182-.819-2.182-.819"/><path class="cls-9" d="M59.382,58.681a4.855,4.855,0,0,0,5.037,3.173"/><path class="cls-9" d="M69.032,48.781c2.309-1.881,5.157-2.125,7.422-.329"/><path class="cls-9" d="M65.374,43.092c-1.478-.9-2.494-2.242-3.993-3.122a5.241,5.241,0,0,0-5.073.333"/><path class="cls-12" d="M69.244,26.136s-.425,4.375.53,6.563,2.863,2.955,2.863,5.8-3.5,7.548-4.454,8.423,4.348-1.2,5.408-3.61,2.863-5.032,1.8-8.533-5.09-8.751-5.09-8.751"/><ellipse class="cls-14" cx="59.874" cy="48.261" rx="3.173" ry="2.285" transform="translate(-13.48 71.352) rotate(-56.344)"/><path class="cls-15" d="M59.958,47.885s-1.477,1.186-.8,2.33,1.571.231,1.928.01c.644-.4,1.122-2.025.43-2.427A1.447,1.447,0,0,0,59.958,47.885Z"/><ellipse class="cls-14" cx="71.013" cy="53.481" rx="3.173" ry="2.285" transform="translate(-12.859 82.951) rotate(-56.344)"/><path class="cls-15" d="M71.1,53.1s-1.477,1.186-.8,2.331,1.571.231,1.928.01c.644-.4,1.122-2.026.43-2.427A1.446,1.446,0,0,0,71.1,53.1Z"/></svg>