<svg id="word" xmlns="http://www.w3.org/2000/svg" viewBox="0 0 160 160"><defs><style>.cls-1{fill:#dab3cd;}.cls-2{fill:#aa75ab;}.cls-3{fill:#e7eacf;}.cls-4{fill:#976899;opacity:0.5;}.cls-5{fill:#fff;}.cls-6{fill:#daac62;}.cls-7{fill:#dbc683;}.cls-8{fill:#9d4b9c;}.cls-9{fill:#a7854b;opacity:0.25;}.cls-10{fill:#fff8b3;}</style></defs><polygon class="cls-1" points="19.569 26.996 46.925 47.517 46.83 100.677 21.493 128.878 18.628 128.878 18.628 26.524 19.569 26.996"/><rect class="cls-2" x="46.711" y="47.046" width="76.51" height="53.821"/><polygon class="cls-1" points="141.066 36.46 123.221 47.163 123.221 100.011 140.745 109.682 141.066 36.46"/><polygon class="cls-3" points="19.512 26.862 46.604 47.517 123.221 47.046 141.066 37.08 140.942 26.721 19.512 26.862"/><path class="cls-4" d="M46.746,58.361S66.9,51.6,83.961,51.17c20.07-.5,38.8,10.369,38.8,10.369l.457-14.493-76.558.528Z"/><polygon class="cls-5" points="20.85 26.639 46.607 46.598 122.764 46.263 140.827 36.117 140.939 38.235 123.433 48.159 46.719 48.605 18.628 26.524 20.85 26.639"/><polygon class="cls-6" points="141.191 118.291 141.398 127.503 137.712 127.516 130.105 118.291 141.191 118.291"/><polygon class="cls-7" points="140.997 109.928 141.191 118.291 130.105 118.291 123.207 109.928 140.997 109.928"/><polygon class="cls-6" points="140.97 108.737 140.997 109.928 123.207 109.928 117.875 103.465 131.416 103.465 140.97 108.737"/><polygon class="cls-7" points="130.105 118.291 137.712 127.516 121.675 127.577 115.862 118.291 130.105 118.291"/><polygon class="cls-7" points="131.416 103.465 117.875 103.465 114.336 99.177 123.442 99.063 131.416 103.465"/><polygon class="cls-6" points="130.105 118.291 115.862 118.291 110.623 109.928 123.207 109.928 130.105 118.291"/><polygon class="cls-7" points="117.875 103.465 123.207 109.928 110.623 109.928 106.582 103.465 117.875 103.465"/><polygon class="cls-6" points="115.862 118.291 121.675 127.577 105.351 127.63 102.24 118.291 115.862 118.291"/><polygon class="cls-6" points="114.336 99.177 117.875 103.465 106.582 103.465 103.973 99.304 114.336 99.177"/><polygon class="cls-7" points="110.623 109.928 115.862 118.291 102.24 118.291 99.457 109.928 110.623 109.928"/><polygon class="cls-6" points="106.582 103.465 110.623 109.928 99.457 109.928 97.303 103.465 106.582 103.465"/><polygon class="cls-7" points="106.582 103.465 97.303 103.465 95.945 99.404 103.973 99.304 106.582 103.465"/><polygon class="cls-7" points="102.24 118.291 105.351 127.63 90.037 127.684 88.74 118.291 102.24 118.291"/><polygon class="cls-6" points="99.457 109.928 102.24 118.291 88.74 118.291 87.589 109.928 99.457 109.928"/><polygon class="cls-7" points="99.457 109.928 87.589 109.928 86.699 103.465 97.303 103.465 99.457 109.928"/><polygon class="cls-6" points="97.303 103.465 86.699 103.465 86.157 99.525 95.945 99.404 97.303 103.465"/><polygon class="cls-6" points="88.74 118.291 90.037 127.684 77.393 127.731 78.022 118.291 88.74 118.291"/><polygon class="cls-7" points="87.589 109.928 88.74 118.291 78.022 118.291 78.584 109.928 87.589 109.928"/><polygon class="cls-6" points="86.699 103.465 87.589 109.928 78.584 109.928 79.012 103.465 86.699 103.465"/><polygon class="cls-7" points="86.157 99.525 86.699 103.465 79.012 103.465 79.266 99.605 86.157 99.525"/><polygon class="cls-6" points="79.266 99.605 79.012 103.465 70.93 103.465 71.914 99.699 79.266 99.605"/><polygon class="cls-7" points="79.012 103.465 78.584 109.928 69.238 109.928 70.93 103.465 79.012 103.465"/><polygon class="cls-6" points="78.584 109.928 78.022 118.291 67.05 118.291 69.238 109.928 78.584 109.928"/><polygon class="cls-7" points="78.022 118.291 77.393 127.731 64.568 127.777 67.05 118.291 78.022 118.291"/><polygon class="cls-7" points="71.914 99.699 70.93 103.465 61.765 103.465 63.384 99.806 71.914 99.699"/><polygon class="cls-6" points="70.93 103.465 69.238 109.928 58.901 109.928 61.765 103.465 70.93 103.465"/><polygon class="cls-7" points="69.238 109.928 67.05 118.291 55.195 118.291 58.901 109.928 69.238 109.928"/><polygon class="cls-6" points="67.05 118.291 64.568 127.777 50.974 127.824 55.195 118.291 67.05 118.291"/><polygon class="cls-6" points="63.384 99.806 61.765 103.465 52.72 103.465 55.135 99.906 63.384 99.806"/><polygon class="cls-7" points="61.765 103.465 58.901 109.928 48.331 109.928 52.72 103.465 61.765 103.465"/><polygon class="cls-6" points="58.901 109.928 55.195 118.291 42.651 118.291 48.331 109.928 58.901 109.928"/><polygon class="cls-7" points="55.195 118.291 50.974 127.824 36.141 127.878 42.651 118.291 55.195 118.291"/><polygon class="cls-7" points="55.135 99.906 52.72 103.465 43.735 103.465 46.846 100.007 55.135 99.906"/><polygon class="cls-6" points="52.72 103.465 48.331 109.928 37.921 109.928 43.735 103.465 52.72 103.465"/><polygon class="cls-7" points="48.331 109.928 42.651 118.291 30.395 118.291 37.921 109.928 48.331 109.928"/><polygon class="cls-6" points="42.651 118.291 36.141 127.878 21.717 127.931 30.395 118.291 42.651 118.291"/><path class="cls-8" d="M55.023,135.581a.464.464,0,0,1-.276-.489.545.545,0,0,1,.5-.52,9.885,9.885,0,0,0,6.971-3.52,18.87,18.87,0,0,0,4.015-7.682.511.511,0,0,1,.58-.4.471.471,0,0,1,.3.614,20.065,20.065,0,0,1-4.283,8.168,10.847,10.847,0,0,1-7.665,3.85A.409.409,0,0,1,55.023,135.581Z"/><path class="cls-8" d="M62.291,128.42a.4.4,0,0,1-.171-.124.565.565,0,0,1,.058-.73,41.26,41.26,0,0,0,4.5-5.6c.248-.37.573-.412.784-.293a.592.592,0,0,1,.271.544,59.487,59.487,0,0,1-.2,7.3.545.545,0,0,1-.5.515.444.444,0,0,1-.412-.518,58.38,58.38,0,0,0,.225-6.164,42.221,42.221,0,0,1-4.071,4.942A.448.448,0,0,1,62.291,128.42Z"/><path class="cls-9" d="M46.455,100.007l76.714-.558,14.719,8.363s-25.19-6.527-51.069-6.244c-20.46.223-45.827,5.24-45.827,5.24Z"/><polygon class="cls-10" points="19.512 128.776 46.607 98.781 123.098 98.224 140.716 107.59 140.827 110.266 123.218 100.008 46.71 100.717 22.411 128.999 19.512 128.776"/></svg>