<svg id="word" xmlns="http://www.w3.org/2000/svg" viewBox="0 0 160 160"><defs><style>.cls-1{fill:#eaebec;}.cls-1,.cls-2,.cls-4,.cls-6{stroke:#9d4b9c;stroke-width:0.75px;}.cls-2,.cls-6{fill:#fff;}.cls-3{fill:#383638;}.cls-4{fill:#ef4935;}.cls-5{fill:#9d4b9c;}.cls-6{stroke-miterlimit:10;}</style></defs><path class="cls-1" d="M73.662,75.187s-4.051-8.419-4.051-11.358-2.78-20.094-3.733-21.921-3.1-4.686-3.415-4.209a2.8,2.8,0,0,0-.4,1.032s-4.13-3.177-3.971.08a16.713,16.713,0,0,0,.953,5.162S54.362,40,54.52,42.226a16.937,16.937,0,0,0,.954,4.289s-4.845-3.1-3.972-.239,1.351,4.687,1.351,4.687-3.733-1.351-3.019,1.509.08,3.018.795,5.321,7.545,20.889,7.545,20.889l-.238,3.494s7.466-2.7,9.292-3.494,7.149-2.463,7.149-2.463Z"/><path class="cls-2" d="M67.943,75.981a12.933,12.933,0,0,1,11.6.159,43.277,43.277,0,0,0,11.914,3.812c4.289.477,32.405-5.877,32.405-5.877s6.513-3.336,8.737-3.5a11.775,11.775,0,0,1,5.559.8c1.43.635,1.112,3.335.636,4.765s-2.224,1.906-3.5,1.747a137.206,137.206,0,0,0-15.885,1.589c-3.018.635-15.09,5.083-17.791,5.242s-18.9,2.065-21.286,3.177-4.13,5.56-9.689,8.26-23.192,8.737-26.369,9.372-5.719,3.5-11.914,3.5-8.578,3.971-10.007,3.971-4.289-.794-2.224-2.224a3.675,3.675,0,0,0,.714-1.271,3.558,3.558,0,0,1,1.033-1.429,4.242,4.242,0,0,0,1.033-1.192,1.6,1.6,0,0,1,1.191-.714s-.636-.318,0-1.033a2.866,2.866,0,0,1,1.191-.874s-.715-1.27.08-1.668,3.812-1.112,6.115-1.906,5.4-3.256,8.181-5.083S53.409,86.148,57.3,83.209,67.943,75.981,67.943,75.981Z"/><path class="cls-1" d="M49.04,91.231c-.476.238-6.671,2.78-7.625,2.3s-.635-2.462-.635-2.462-1.827-.08-1.827-.953.159-.715-.794-1.35a3.623,3.623,0,0,1-1.35-2.224c0-.239-3.574-.556-3.892-2.224a7.5,7.5,0,0,1,0-2.939S31.408,79.476,31.487,79a3.691,3.691,0,0,0-.158-1.27s-3.733-.874-3.5-2.542,1.112-.874.079-2.065-1.747-1.986-2.3-2.78a3.377,3.377,0,0,1-.4-2.3c.079-.238-1.35-1.43-1.112-1.986s-1.35-2.939-1.191-3.336-3.1-4.209-2.066-4.845l1.033-.635s-3.574-2.224-2.939-2.859l.636-.636s-2.939-4.527-1.827-5.242,1.668-.317,1.668-.317-2.859-4.13-.953-4.13-2.621-3.575-.08-3.654l2.542-.079S17.35,37.7,19.494,37.3s4.21,1.35,4.21,1.35-3.415-4.369-.953-4.448,4.765,2.462,4.765,2.462-3.336-4.686,0-3.812,5.878,5.4,5.878,5.4-2.78-5.719-.556-5.56a18.346,18.346,0,0,1,3.574,4.051C38.794,40,42.527,48.9,44.275,51.2s5.8,6.671,8.5,8.26,3.971,4.924,6.592,7.942,8.578,9.611,10.008,9.77a36.909,36.909,0,0,1,4.924,1.35"/><path class="cls-3" d="M139.425,73a3.043,3.043,0,0,0-1.271-1.628c-.847-.371-.953-.106-2.118.053s-4.262.98-4.037,1.654c.477,1.43,2.5-.066,3.3,1.523s1.959,2.753,2.489,2.382S139.425,73,139.425,73Z"/><path class="cls-4" d="M136.7,75.981s-.384-1.31.146-1.946.278-2.131.913-2.131,1.483.953,2.065,1.536a8.234,8.234,0,0,0,3.283,1.588,4.946,4.946,0,0,1,2.542,1.165c.159.371-.847.688-2.012.688s-6.037.106-6.778-.688S136.7,75.981,136.7,75.981Z"/><path class="cls-5" d="M40.7,96.314s1.032.953.476,1.43-3.653,3.256-3.892,4.13A10.523,10.523,0,0,1,34.426,106a14.937,14.937,0,0,1-4.448,1.985,14.943,14.943,0,0,0-3.733,1.748,44.093,44.093,0,0,1-4.765,1.668c-.238,0-.636-.874.635-1.271s1.35-1.43,2.145-1.668.079-.794,2.144-1.747a28.666,28.666,0,0,1,4.289-1.748,8.78,8.78,0,0,0,4.13-3.018C35.617,100.841,40.7,96.314,40.7,96.314Z"/><path class="cls-6" d="M134.536,72.783s-1.425-.782-1.425.5.718,1.421,1.268,1.136S134.536,72.783,134.536,72.783Z"/><ellipse class="cls-5" cx="134.342" cy="73.658" rx="0.516" ry="0.735"/></svg>