<svg id="word" xmlns="http://www.w3.org/2000/svg" viewBox="0 0 160 160"><defs><style>.cls-1{fill:#028fce;}.cls-1,.cls-10,.cls-2,.cls-4,.cls-5,.cls-6,.cls-7,.cls-8,.cls-9{stroke:#9d4b9c;stroke-width:0.75px;}.cls-2{fill:#fffbd4;}.cls-3{fill:#c3996b;opacity:0.25;}.cls-4{fill:#fde7dd;}.cls-5{fill:none;}.cls-6{fill:#f0be56;}.cls-7{fill:#98d1b0;}.cls-8{fill:#facec8;}.cls-9{fill:#e45a70;}.cls-10{fill:#f0dfd3;}</style></defs><polyline class="cls-1" points="67.04 76.454 83.734 78.957 76.12 97.732 59.866 86.78"/><path class="cls-2" d="M37.393,82.118s-6.757,4.012-10.617,6.419S19.7,100.8,17.552,101.255s-2.1,2.245.149,3.849,1.138,1.538,4.784,6.121S33,119.476,48.011,116.954s23.808-5.844,25.845-7.334,8.472-2.864,3.862-11.114S53.373,77.191,49.4,78.338,37.393,82.118,37.393,82.118Z"/><path class="cls-3" d="M21.162,104.87s2.573,7.562,16.194,7.677,19.2-1.145,20.806-1.6,4.718-1.376,4.718-1.376-3.861,2.636-11.9.345-12.656-3.668-17.695-3.668A79.107,79.107,0,0,1,21.162,104.87Z"/><path class="cls-4" d="M41.039,85.328s4.718,3.437,6.006,5.5,5.577,6.531,10.189,5.385,9.758-2.406,11.582-9.739,1.823-17.3-1.18-20.512S51.978,61.378,44.15,67.108,36.964,81.2,41.039,85.328Z"/><path class="cls-5" d="M53.8,84.3c2.347.037,3.81-1.9,3.646-4.47"/><path class="cls-5" d="M49.4,87.619c.569,1.781-.534,3.059-2.359,3.209"/><path class="cls-5" d="M49.833,78.682a2.537,2.537,0,0,1,2.681-2.75"/><path class="cls-5" d="M45.662,83.808c-.956.112-1.435,1.26-1.977,2.033"/><path class="cls-6" d="M45.543,56.909S51.334,49.92,58.2,53.7,69.352,61.837,70,65.5a47.331,47.331,0,0,1,.644,8.479c0,1.719.108,3.323-.965.917s-3.861-4.468-5.256-4.24a10.293,10.293,0,0,1-4.182.115,15.974,15.974,0,0,1-2.788-1.032,4.412,4.412,0,0,0,2.144,2.407c1.717.916,1.073,1.719-1.18.458a33.149,33.149,0,0,1-3.86-2.521s1.715,1.489,1.715,2.521a5.322,5.322,0,0,1-.643,2.178,2.554,2.554,0,0,0-1.1-3.026,9.848,9.848,0,0,0-3.4-1.558s1.608,1.031,1.286,2.291-.106.688-1.5-.8-2.895.114-2.895.114-.215,1.719-.215,2.75-2.039-2.52-2.039-2.52a6.085,6.085,0,0,1-.106,3.666c-.644,2.407-1.608,3.095-1.608,6.991a18.764,18.764,0,0,0,1.285,7.1c.215.459-2.859-2.721-3.181-5.128-.142-1.067-.22-2.191-.465-4.038,0,0,.644,7.1,1.181,7.677s.849,1.221-2.583-1.644S33.819,83.7,33.6,79.114,33,68.139,36.213,64.93a47.836,47.836,0,0,1,6.006-5.27C43.72,58.514,45.543,56.909,45.543,56.909Z"/><path class="cls-7" d="M71.946,75.828s-1.7-7.634.732-6.337c4.394,2.347,5.147.482,7.613-.664s5.47-2.062,8.258-1.261,3.218.458,3.218.458,7.754-9.9,15.69-10.815,16.153-.319,21.087,10.8,3.761,13.542,9.767,20.875,10.725,14.553,11.046,16.5.721,3.327-.459,4.243-5.776,3.527-3.095,4.9-3.953.251-14.035,1.97-31.53.114-39.465,1.031-20.873,2.438-24.09-1.8.818-5.074,3.927-8.856-3.432-3.9-1.393-11.459S75.894,82.464,76,80.63,71.946,75.828,71.946,75.828Z"/><path class="cls-5" d="M111.606,75.244c-11.083,3.82-13.8,22.807-6.434,40.22"/><path class="cls-5" d="M93.8,77.306c-.954-3.225-2.563-5.775-2.036-9.282"/><path class="cls-5" d="M136.488,94.5c.566,10.093-7.266,17.556-15.873,20.053"/><path class="cls-5" d="M142.923,101.714c-4.191,3.163-5.68,4.905-11.158,6.032"/><path class="cls-5" d="M73.428,104.923c.314-5.806,4.541-9.233,9.651-10.314"/><path class="cls-8" d="M61.037,93.43c-.948.014-2.1-1.071-1.6-1.65s2.266-.221,2.7,1.05a2.269,2.269,0,0,1-1.094.6"/><path class="cls-5" d="M54.594,91.591c-.326-1.08.4-1.474,1.281-1.095"/><path class="cls-5" d="M41.952,63.989c6.169,3.956,1.625,10.843,1.659,16.376"/><path class="cls-5" d="M45.734,72c.146-2.026.464-4-1.1-5.477"/><path class="cls-5" d="M41.634,80.756a20.211,20.211,0,0,1,.6-9.407c.763-2.231,2.935-5.482.1-7.2"/><path class="cls-5" d="M40.1,63.311c.284,3.713-2.433,7.226-2.893,10.85-.443,3.491,1.009,5.872,2.893,8.473"/><path class="cls-5" d="M41.415,61.825c3.352-.183,8.516,5.414,9.706,8.377"/><path class="cls-5" d="M54.886,70.274c-2.625-2.557-5.44-6.736-9.371-7.511"/><path class="cls-5" d="M57.669,69.882c-3.6-5.994-7.533-9.3-14.5-9.309"/><path class="cls-5" d="M48.1,71.916c-1.053-2.729-2.391-7.17-5.712-7.51"/><path class="cls-6" d="M39.218,62.372c-4.3-10.014,4.672-16.33,12.2-16.272,4.207.033,10.694,1.643,12.789,6.05,1.39,2.923.916,7.23,1.557,10.321.61,2.942,2.288,5.914,4.983,6.995A9.665,9.665,0,0,1,60.793,65.5c-3.905-5.528-3.417-9.179-9.177-9.7-3.376-.306-7.81,3.442-7.81,3.442Z"/><path class="cls-9" d="M44.2,59.191s-.2,1.094-1.952,1.929a19.884,19.884,0,0,0-3.857,2.4,12.214,12.214,0,0,0-3.344,3.037,12.752,12.752,0,0,0-1.28,4.186,16.63,16.63,0,0,0-1.331-3.051c-1.122-2.034.049-3.051.049-3.051a8.977,8.977,0,0,1,2.3-3.208c1.854-1.825,3.172.366,4.929-1.2A5.846,5.846,0,0,1,44.2,59.191Z"/><path class="cls-9" d="M44.637,58.852c-3.408,0-8.748-3.679-11.556-.026-1.759,2.287-3.139,9.06-7.7,4.328L22.744,67.77s3.661,1.643,6.077-1.095,3.442-6.415,6.59-7.432,8.127,1.095,8.127,1.095Z"/><path class="cls-2" d="M24.845,96.786s3.968-3.552,14.908-3.552,12.44,1.261,16.193,2.75a46.383,46.383,0,0,1,6.222,2.98"/><path class="cls-10" d="M79.223,106.327s-.363.05-1.3.115-1.362.054-1.486.452a1.056,1.056,0,0,0,.617,1.246,6.542,6.542,0,0,0,1.513.1l1.717-1.862Z"/><path class="cls-10" d="M82.02,90.219l3.647-3.552,4.56,4.964s-.7,2.713-1.235,5.578a16.809,16.809,0,0,1-1.157,2.974c-.879,1.826-1.946,4.571-1.946,4.571a2.586,2.586,0,0,1-.248,2.077,9.073,9.073,0,0,1-.86,1.6c-.338.513-.723,1.1-.781,1.224s.21,1.364.2,1.605.436,2.1-.173,2.282-1.086-1.426-1.064-1.628-.315-1.927-.315-1.927a1.341,1.341,0,0,0-.463.91,15.9,15.9,0,0,0-.291,2.2c.023.464-.771,1.407-1.33,1.036s-.125-1.933.025-2.442.564-2.439.564-2.439A4.387,4.387,0,0,0,80,110.488,9.422,9.422,0,0,0,79.309,113c-.043.737-.48,1.224-1.038,1.168-.99-.1-.31-1.169-.341-1.486a17.754,17.754,0,0,1,.342-2.085,7.11,7.11,0,0,1-1.027,1.391c-.442.376-.888.956-1.4.272s.561-1.2.924-1.582.542-1.24.948-1.692,1.038-2.167,1.5-2.654a6.975,6.975,0,0,1,1.857-.981,14.307,14.307,0,0,1,1.355-.479,6.274,6.274,0,0,0,1.007-1.136,18.531,18.531,0,0,0,.683-2.087c.244-.991,1.61-5.007,1.513-6.154s.781-2.3-1.513-4.276a3.818,3.818,0,0,0-1.9-.992"/><path class="cls-10" d="M78.272,110.592c.449-1.031.269-2.336,1.488-2.692"/><path class="cls-1" d="M71.711,76.39a1.227,1.227,0,0,1,.305-.385,2.9,2.9,0,0,1,2.592-.418c2.359.459,8.149,4.584,9.007,6.3s2.485.845,3.488,2.231c1.723,2.384,2.358,2.548,0,4.381-1.6,1.241-2.754.048-3.947,1.146a7.049,7.049,0,0,0-1.256,1.41c-.752,1.261-.858,4.01-1.824,1.719s-1.286-4.124-3.109-5.271-8.853-8.5-5.178-11.3"/></svg>