<svg id="word" xmlns="http://www.w3.org/2000/svg" viewBox="0 0 160 160"><defs><style>.cls-1{fill:none;}.cls-1,.cls-2,.cls-3,.cls-4{stroke:#9c4c9c;stroke-miterlimit:10;stroke-width:1.157px;}.cls-2{fill:#fbed25;}.cls-3{fill:#d4de37;}.cls-4{fill:#4d833e;}.cls-5{fill:#9c4c9c;}</style></defs><path class="cls-1" d="M81.685,34.216s2.356,9.517-.328,23.975-6.021,20.07-5.273,30.785,5.712,18.933,5.9,27.02.445,12.538.751,21.156S83.764,157.5,83.764,157.5"/><path class="cls-1" d="M42.688,52.991s1.495,20.925,9.631,29.752,20.689,21.37,24.7,25.38,5.444,12.437,5.444,12.437"/><path class="cls-1" d="M113.066,38.087s-9.988,29.968-10.208,33.037S98.525,91.732,95.43,94.3,85.345,107.784,84.818,109s-2.163,5.889-2.163,5.889"/><path class="cls-1" d="M89.5,57.261s-7.346,9.721-8.624,15.9S76.977,93.431,77.1,94.3"/><polyline class="cls-1" points="70.134 65.84 75.559 82.59 76.138 88.313"/><path class="cls-1" d="M34.08,44.837s3.255,10.145,9.241,7.731,10.2-17.01,10.2-17.01"/><line class="cls-1" x1="73.781" y1="122.103" x2="82.887" y2="134.825"/><path class="cls-2" d="M30.205,45.7s4.389-.717,5.693-1.566,1.552-3.558,1.294-4.888-.333-2.573-2.667-3.091-6.278,1.548-6.244,5.06S30.205,45.7,30.205,45.7Z"/><path class="cls-2" d="M53.747,35.185a7.3,7.3,0,0,1-2.186-4.243c-.3-2.587.568-5.922,3.859-5.458s6.158,2.308,4.531,5.82S55.411,36.478,53.747,35.185Z"/><path class="cls-2" d="M80.115,19.847s.418-10.478,4.641-7.586-1.99,9.8-1.99,9.8,4.122-4.589,7.336-3.63,3.654,5.616.957,7.329-8.023-.894-8.023-.894,5.454,4.178,3.669,6.2-3.68,4.11-6.342,2.917-2.517-6.575-2.517-6.575-1.418,4.522-3.1,5.177-5.2.192-5.8-2.448,2.264-5.8,3.545-6.206a16.915,16.915,0,0,1,4.063-.316s-5.013,1.079-5.346-2.909,1.625-7.182,4.476-6.614S80.115,19.847,80.115,19.847Z"/><path class="cls-3" d="M81.91,20.992s-2.581-.631-3.829.524-1.953,5.823,1.838,6.2S84.042,21.247,81.91,20.992Z"/><path class="cls-4" d="M42.034,54.284s-4.1-.359-4.75,1.8a10.806,10.806,0,0,1-3.432,5.649,15.915,15.915,0,0,1-3,1.811s6.169-.7,8.193-3.29A19.986,19.986,0,0,0,42.034,54.284Z"/><path class="cls-4" d="M43.256,53.018s2.957-2.24,4.776-3.309,2.844-2.1,3.633-1.73,2.845-1.151,2.845-1.151-1.152,4.125-3.291,5.089S43.256,53.018,43.256,53.018Z"/><path class="cls-4" d="M43.256,53.766s1.975-1.733,4.285.956,1.546,6.684,1.928,9.217S48.6,65.392,47.73,62.51,46.834,55.474,43.256,53.766Z"/><path class="cls-5" d="M32.856,46s-1.522,3.049-1.137,3.694,1.262-1.847,1.262-1.847L34.4,45.7s1.177-.008,2.045,0,4.434-1.974,4.434-1.974Z"/><path class="cls-5" d="M52.083,33.893s-2.763.9-2.84,2.262a11.827,11.827,0,0,0,0,1.932l3.419-3.034a1.392,1.392,0,0,1,1.462,1.613,11.989,11.989,0,0,0,.629,3.625s-.34-2.413.17-3.145a1.509,1.509,0,0,0,.22-1.4Z"/><path class="cls-2" d="M67.866,60.764s-3.619.078-3.126,2.912,3.565,2.926,4.689,2.432,1.507-.852,1.981-.852,3.31-.821,3.755-2.967,1.17-4.769-1.866-4.853S67.866,60.764,67.866,60.764Z"/><path class="cls-4" d="M75.6,86s-.447-.822-3.366-3.212-3.053-5.627-6.1-7.027S70.7,77.273,72.3,79.1,75.6,86,75.6,86Z"/><path class="cls-4" d="M78.762,84.275a11.883,11.883,0,0,1,2.312-5.7c2.175-3.05,7.422-5.851,7.422-5.851s-.1,5.37-3.373,7.974A22.072,22.072,0,0,1,78.762,84.275Z"/><path class="cls-4" d="M82.054,116.513s.392-4.549,3.407-4.764,5.7,2.362,9.38,2.382-.18.894-3.455,1.469S82.054,116.513,82.054,116.513Z"/><path class="cls-4" d="M84.16,135.262s2.606-1.025,6.168,1.065,4,3.953,5.162,7.494a26.639,26.639,0,0,0,2.79,5.976s-5.075-3.991-7.078-6.875-7.438-7.27-7.438-7.27"/><path class="cls-4" d="M81.508,134.785a11.923,11.923,0,0,0-6.957,3.767c-3.014,3.355-5.316,7.218-6.26,7.6a12.492,12.492,0,0,1-2.417.585s8.222-1.547,10.264-3.765S81.508,134.785,81.508,134.785Z"/><path class="cls-4" d="M74.534,122.6s-5.449-4.05-8.66-6.875-6.636-6.1-7.118-7,1.994.051,2.628,0-.454-3.093-1.381-4.7S55.885,99.923,55.29,98.2a8.257,8.257,0,0,0-1.111-2.345s7.23,2.484,8.869,3.93a54.107,54.107,0,0,1,4.921,6.05l.234,1.847L69.454,103a16.01,16.01,0,0,1,3,5.629,82.527,82.527,0,0,1,1.3,8.606C73.768,117.717,74.534,122.6,74.534,122.6Z"/><path class="cls-4" d="M62.218,114.125s-2.242-2-5.339-4.644-2.951-3.363-5.332-3.251-4.927.316-4.927.316,1.988,3.624,3.739,3.839a18.476,18.476,0,0,0-4.857-.1c-3.083.3-6.457,3.712-8,5.044s-5.687,2.752-5.687,2.752,6.16,2.074,8.779,2.19,6.422-1.553,6.422-1.553-3.779,7.607-3.441,9.749a32.227,32.227,0,0,1,.386,3.52s.292-2.629,3.936-5.205,1.938-2.468,5.218-3.5,3.612.045,6.418-.882,3.382-1.333,4.767-1.414a18.951,18.951,0,0,1,3.374.25h3.181Z"/><path class="cls-4" d="M69.548,122.9a14.067,14.067,0,0,0-3.4,7.41,19.553,19.553,0,0,1-1.719,6.8l-2.45-3.705s.137,5.911-1.063,8.214-7.412,11.76-7.412,11.76a30.046,30.046,0,0,1-.675-6.646c0-3.957.322-6.775,1.525-9.593a44.1,44.1,0,0,1,3.1-5.739s-3.085,2.184-3.853,2.966a45.155,45.155,0,0,0-2.533,4.167c-.265.289.264-5.426,2.3-8.686s5.671-5.486,9.626-6.548a27.123,27.123,0,0,1,7.374-.915l-1.438.533Z"/><path class="cls-4" d="M80.305,115.328s-1.729-.7-2.124,1.594a11.159,11.159,0,0,1-1.217,3.638V122.6s1.9,1.383,2.907-1.363A12.857,12.857,0,0,0,80.305,115.328Z"/><path class="cls-2" d="M91.171,50.864s-1.272-8.373.813-9.587,4.966-2.243,5.7.95a9.83,9.83,0,0,1-1.3,6.94c-.529.887-3.548,5.095-3.548,5.095Z"/><path class="cls-2" d="M99.628,45.007s3.144.16,2.939,4.686-.122,5.725-1.7,6.45a7.922,7.922,0,0,1-3.948.288l-4.586-1.292S97.738,43.976,99.628,45.007Z"/><path class="cls-2" d="M94.337,57.261s.452,3.206,3.523,3.587,4.537,1.006,4.216-1.794-1.2-4.646-1.433-4.14-7,.593-7,.593Z"/><path class="cls-4" d="M90.291,51.743s-3.031,3.329-2.316,5.492,5.912.421,5.912.421S94.5,52.571,90.291,51.743Z"/><path class="cls-3" d="M110.42,34.335s-.267-5.937,3.412-6.005,2.825,7.759,2.825,7.759-3.719-.537-4.7-.531-.981-1.223-.981-1.223l-.66.586Z"/><path class="cls-2" d="M116.971,31.719s9.6-5.76,12.106-3.452,2.546,3.511,0,4.966S115.8,35.055,115.8,35.055Z"/><path class="cls-2" d="M110.286,32.738s-4.7-3-6.395-3.258-9.607.314-6.717,2.729,3.21.979,5.638,1.643,5.143,1.517,5.811,1.669a12.545,12.545,0,0,0,2.353.043Z"/><path class="cls-2" d="M112.581,36.079s-2.485-.582-3.745.01-4.2,2.163-4.56,4.109-4.045,2.911-2.2,4.741a3.871,3.871,0,0,0,6.113-1.583c.64-2.351,3.977-5.626,3.977-5.626Z"/><path class="cls-2" d="M115.094,35.055a26.167,26.167,0,0,0,6.694,1.337c2.7-.018,4.985.444,5.222,3.869s2.247,7.452-3.177,5.283-9.381-3.826-10.02-4.963-.71-4.979-.71-4.979Z"/><path class="cls-4" d="M102.956,78.47s-.463-2.7,3.691-4.763,6.419-3.127,6.419-3.127-1.627,4.784-3.748,5.91A30.949,30.949,0,0,1,102.956,78.47Z"/><path class="cls-4" d="M100.3,78.908a7.731,7.731,0,0,0-1.548-4.526,14.4,14.4,0,0,0-4.416-3.8s-1.885,1.1,0,4.816A6.635,6.635,0,0,0,100.3,78.908Z"/><path class="cls-4" d="M102.119,79.467s2.911-1.745,5.421,0,3.161,4.326,4.485,5.156A17.9,17.9,0,0,0,114.813,86s-4.5,1.928-6.347,0S102.119,79.467,102.119,79.467Z"/><path class="cls-5" d="M70.129,66.062a3.861,3.861,0,0,1-2-2.652,8.28,8.28,0,0,1,0-3.083,7.988,7.988,0,0,0,.551,2.9,3,3,0,0,0,1.86,1.753Z"/><path class="cls-5" d="M53.208,34.466a9.435,9.435,0,0,1-.193-3.723,11.263,11.263,0,0,1,1.495-3.326,10.96,10.96,0,0,0-.921,3.4,8.658,8.658,0,0,0,.735,3.344Z"/><path class="cls-5" d="M54.009,33.439a2.889,2.889,0,0,0,.658.131.468.468,0,0,0,.431-.185,5.93,5.93,0,0,0,.931-1.216A8.065,8.065,0,0,0,57.1,29.126a8.354,8.354,0,0,1-.547,3.295,6.5,6.5,0,0,1-.82,1.558,1.531,1.531,0,0,1-.4.4,1.569,1.569,0,0,1-.559.2,3.651,3.651,0,0,1-.976,0Z"/></svg>