<svg id="word" xmlns="http://www.w3.org/2000/svg" viewBox="0 0 160 160"><defs><style>.cls-1{fill:#fff;}.cls-1,.cls-10,.cls-2,.cls-3,.cls-5,.cls-6,.cls-7,.cls-8,.cls-9{stroke:#9d4b9c;stroke-miterlimit:10;stroke-width:0.601px;}.cls-2{fill:#eea376;}.cls-3{fill:#fde6d8;}.cls-4{fill:#9d4b9c;}.cls-5{fill:#f9ec31;}.cls-6{fill:#03688b;}.cls-7{fill:#603813;}.cls-8{fill:#f1f1f2;}.cls-9{fill:#3d5ba8;}.cls-10{fill:#00a9d0;}</style></defs><polygon class="cls-1" points="94.727 59.742 96.719 65.004 94.228 78.943 92.435 84.685 91.492 61.631 94.727 59.742"/><path class="cls-1" d="M74.7,106.71a16.8,16.8,0,0,1-.4,5.365c-.7,2.823-1.594,8.377-2.69,11.3s-6.775,14.306-6.775,14.306a8.619,8.619,0,0,1,0,3.106,10.65,10.65,0,0,1-1.195,3.389s-11.856-.565-12.852-1.506-5.48-4.142-3.387-4.989,3.487.471,4.981,1.13a6.1,6.1,0,0,0,5.978-.565,6.569,6.569,0,0,0,3.188-4.612c.4-1.506,5.28-23.531,5.28-23.531s1-4.518,1.793-5.365S74.7,106.71,74.7,106.71Z"/><path class="cls-1" d="M88.749,107.654a14.083,14.083,0,0,0,1.968,4.233c1.22,1.506,15.965,21.93,15.865,22.5S103,139.747,101.6,140.5s-7.074,2.259-5.878,3.2,7.173,1.883,9.166,0,4.981-4.141,6.077-4.235,3.985-1.318,2.59-3.389-4.343-5.958-4.343-5.958-3.926-11.643-5.321-13.714-7.073-8.183-7.173-8.75-1.638-4.545-1.638-4.545Z"/><path class="cls-2" d="M73.307,28.776s.8,2.164-.4,3.106-3.686,1.788-2.789,2.447,1.962.565,1.628,1.318-.762,1.694,0,1.882.533.941,0,1.13.065.753.464,1.035a2.88,2.88,0,0,1,.7,2.165c-.1.753,0,1.577,2.292.847,2.645-.843,4.582-.708,5.081.022s2.093,3.435,2.093,3.435h5.514s1.16-6.093,1.16-6.563V30.564l-1.16-4.706H79.882Z"/><path class="cls-3" d="M77.112,31.864s-.241-2.009-1.234-2.17-2.031,1.977-1.761,2.415.948,1.362,1.716.96A3.908,3.908,0,0,0,77.112,31.864Z"/><ellipse class="cls-4" cx="75.123" cy="31.148" rx="0.833" ry="1.112"/><path class="cls-5" d="M90.8,47.642s1.532.711,2.927,4.853,2.591,8,2.591,8l-4.783,2.071Z"/><path class="cls-6" d="M75.4,82.426s-8.18,23.24-8.379,23.993-8.745,28.355-8.745,28.355,4.633,1.412,6.227,3.577,13.388-30.7,13.388-30.7L83.817,95.04l5.53-15.155H77.093Z"/><path class="cls-6" d="M56.164,134.3s-1.594,1.693-.4,2.54,6.874,2.358,7.97,3.014a32.757,32.757,0,0,0,3.089,1.5L67.97,139.1a12.943,12.943,0,0,0-2.54-1.883c-2.391-1.6-6.1-3.085-6.675-2.916s-2.192-.849-2.192-.849Z"/><path class="cls-6" d="M75.3,81.2s3.188,10.825,4.982,15.342c.647,1.632,5.155,9.991,5.951,11.6.413.835,3.213,5.265,3.577,5.962.877,1.677,13.382,19.477,13.382,19.477s10.1-2.217,10.6-2.782-10.732-15.767-10.732-15.767-7.685-8.348-7.754-14.187a41.912,41.912,0,0,0-1.2-6.889c-.077-.8-2.614-13.413-2.614-13.413Z"/><path class="cls-6" d="M101.174,133.174l1.694,2.071s6.188-.471,8.051-1.506,4.054-2.165,4.054-2.165l-1.3-2.446a9.689,9.689,0,0,1-4.829,2.54C106.305,131.951,101.174,133.174,101.174,133.174Z"/><path class="cls-7" d="M81.893,27.552a35.054,35.054,0,0,1,0,3.577c-.118.941,1.277-1.789,1.277-1.789s-.985,2.165-.642,3.389a30.059,30.059,0,0,0,1.289,3.281s-1.133-3.564.455-3.94,4.776.188,4.776,1.6-3.537,4.706-3.537,4.706a19.464,19.464,0,0,1-.448,2.165c-.2.565,1.594-1.224,1.594-1.224l-.3,3.012,1.318-1.223.212,2.447s-.5-.732.928-2.437,3.622-2.488,5.814-3.511,4.653-5.72,5.051-7.226A39.86,39.86,0,0,1,101,26.611l-15.492.941Z"/><path class="cls-8" d="M73.459,21.175s13.2,8.165,16.784,9.86,4.747,2.133,4.747,2.133L98.1,34.423l.806-2.164-3.6-2.574a4.93,4.93,0,0,1,3.74-2.36c2.392-.048,1.956.838,1.956.838s1.531-5.51-2.019-7.427C96.29,19.282,90.9,13.222,83.9,13.975S73.459,21.175,73.459,21.175Z"/><path class="cls-8" d="M71.713,22.281,62.647,24.54a15.962,15.962,0,0,0,1.2,1.977c1,1.506,1.893,2.917,8.269,2.917a54.527,54.527,0,0,0,12.161-1.505L73.459,21.175Z"/><path class="cls-5" d="M91.837,63.023c-.008-.576-.023-1.205-.044-1.872-5.992-.583-12.081.011-18.081-.52-.08.644-.158,1.323-.232,2.022C79.6,62.471,85.73,62.6,91.837,63.023Z"/><path class="cls-5" d="M91.516,55.233q-.033-.589-.067-1.135c-5.3-.3-10.675.114-15.893-.666-.28.563-.529,1.13-.741,1.688Q83.163,55.365,91.516,55.233Z"/><path class="cls-5" d="M91.717,59.163c-.027-.627-.057-1.262-.089-1.889a116.28,116.28,0,0,0-17.265-.668c-.134.59-.264,1.309-.388,2.117A129.616,129.616,0,0,0,91.717,59.163Z"/><path class="cls-9" d="M91.793,61.151c-.021-.639-.047-1.309-.076-1.988a129.616,129.616,0,0,1-17.742-.44q-.135.888-.263,1.908C79.712,61.162,85.8,60.568,91.793,61.151Z"/><path class="cls-9" d="M91.374,52.922c-4.995-.2-9.969-1.279-14.949-1.1-.3.523-.6,1.061-.869,1.607,5.218.78,10.592.369,15.893.666C91.423,53.68,91.4,53.286,91.374,52.922Z"/><path class="cls-9" d="M91.628,57.274c-.036-.7-.074-1.386-.112-2.041q-8.349.132-16.7-.113c-.073.193-.145.385-.207.575-.084.254-.165.561-.245.911A116.28,116.28,0,0,1,91.628,57.274Z"/><path class="cls-9" d="M89.95,46.847a2.694,2.694,0,0,0-.472-.9l-6.128-.427c-2.126.86-3.661,1.513-3.661,1.513s-.114.142-.3.382l10.737-.011C90.059,47.209,90,47.02,89.95,46.847Z"/><path class="cls-5" d="M91.374,52.922c-.01-.146-.02-.292-.029-.427a14.747,14.747,0,0,0-.252-1.9L77.3,50.4c-.291.453-.586.931-.874,1.428C81.405,51.643,86.379,52.717,91.374,52.922Z"/><path class="cls-5" d="M88.157,44.682s-1.3-.564-3.886.471l-.921.37,6.128.427A6.678,6.678,0,0,0,88.157,44.682Z"/><path class="cls-9" d="M90.721,49.125q-6.275-.084-12.55-.031c-.276.4-.57.833-.872,1.3l13.794.193A14.338,14.338,0,0,0,90.721,49.125Z"/><path class="cls-5" d="M90.721,49.125c-.21-.682-.427-1.242-.593-1.718l-10.737.011c-.272.354-.708.939-1.22,1.676Q84.446,49.043,90.721,49.125Z"/><path class="cls-5" d="M77.052,69.584c5.1-.04,10.261,1.048,15.268.243-.058-.547-.113-1.088-.165-1.614A15.122,15.122,0,0,0,90.08,67.9c-.733-.062-1.47-.059-2.206-.056-4.793.022-10.033-.018-14.871,0-.04.5-.078,1-.115,1.488A16.368,16.368,0,0,0,77.052,69.584Z"/><path class="cls-9" d="M82.442,76.187c1.065-.142,2.121-.344,3.19-.455,2.425-.253,4.874-.052,7.313-.108-.055-.537-.119-1.136-.189-1.772-3.233-.443-6.556.285-9.833.6a48.948,48.948,0,0,1-10.365-.21c-.046.761-.085,1.464-.119,2.093A55.77,55.77,0,0,0,82.442,76.187Z"/><path class="cls-9" d="M77.483,80.664c1.592-.163,3.162-.512,4.76-.626,3.7-.264,7.436.722,11.114.3-.11-.851-.191-1.612-.212-2.116-4.23-.234-8.479.194-12.721.308-2.7.073-5.393.014-8.089-.052-.008.179-.014.344-.019.473a10.6,10.6,0,0,1-.227,1.788A40.278,40.278,0,0,0,77.483,80.664Z"/><path class="cls-5" d="M80.424,78.532c4.242-.114,8.491-.542,12.721-.308,0-.077-.007-.158-.007-.222,0-.388-.077-1.254-.193-2.378-2.439.056-4.888-.145-7.313.108-1.069.111-2.125.313-3.19.455a55.77,55.77,0,0,1-10,.15c-.047.884-.082,1.616-.1,2.143C75.031,78.546,77.728,78.605,80.424,78.532Z"/><path class="cls-9" d="M88.669,83.268c-.781-.179-1.522-.486-2.293-.7a20.584,20.584,0,0,0-6.958-.313L71.5,82.8a15.235,15.235,0,0,1-.828,1.886S77.2,82.8,83.275,84.308a37.67,37.67,0,0,0,10.86,1.13s-.147-.86-.328-2.007A22.457,22.457,0,0,1,88.669,83.268Z"/><path class="cls-5" d="M82.243,80.038c-1.6.114-3.168.463-4.76.626a40.278,40.278,0,0,1-5.394.077A14.723,14.723,0,0,1,71.5,82.8l7.923-.546a20.584,20.584,0,0,1,6.958.313c.771.216,1.512.523,2.293.7a22.457,22.457,0,0,0,5.138.163c-.148-.941-.318-2.072-.45-3.091C89.679,80.76,85.945,79.774,82.243,80.038Z"/><path class="cls-9" d="M91.892,65.075c-.03-.5-.049-.939-.049-1.285,0-.24,0-.5-.006-.767-6.107-.425-12.237-.552-18.357-.37q-.075.694-.144,1.413c3.3.055,6.6.291,9.892.581A69.014,69.014,0,0,0,91.892,65.075Z"/><path class="cls-5" d="M82.923,74.454c3.277-.317,6.6-1.045,9.833-.6-.074-.682-.154-1.4-.234-2.144-1.764,0-3.528.225-5.289.377a50.58,50.58,0,0,1-14.481-.85c-.073,1.064-.138,2.076-.194,3.009A48.948,48.948,0,0,0,82.923,74.454Z"/><path class="cls-9" d="M87.874,67.848c.736,0,1.473-.006,2.206.056a15.122,15.122,0,0,1,2.075.309c-.05-.508-.095-.994-.135-1.461a37.751,37.751,0,0,0-8.261-.571l-10.622.051c-.046.537-.091,1.076-.134,1.614C77.841,67.83,83.081,67.87,87.874,67.848Z"/><path class="cls-5" d="M92.02,66.752c-.053-.609-.1-1.176-.128-1.677a69.014,69.014,0,0,1-8.664-.428c-3.29-.29-6.589-.526-9.892-.581-.07.711-.136,1.437-.2,2.166l10.622-.051A37.751,37.751,0,0,1,92.02,66.752Z"/><path class="cls-9" d="M87.233,72.085c1.761-.152,3.525-.381,5.289-.377-.068-.624-.136-1.254-.2-1.881-5.007.805-10.166-.283-15.268-.243a16.368,16.368,0,0,1-4.164-.25c-.048.645-.093,1.281-.136,1.9A50.58,50.58,0,0,0,87.233,72.085Z"/><path class="cls-2" d="M82.4,64.018s-2.311,3.725-2.913,5.042-5.882,6.213-8.672,7.813A34.74,34.74,0,0,0,66.632,79.6s-.5,3.483-1,3.765-2.988.649-3.088,2.113-.4,3.535-.7,3.817-.8-1.788-.8-1.788.61,2.153,0,2.4a.674.674,0,0,1-1.022-.494c-.112-.424-.411-2.012-.411-2.012s-.149,3.106-.6,2.929-.6-2.223-.6-2.612.672-3.67.672-3.67-.261-.248-.672.282a7.6,7.6,0,0,0-.448,2.682s-.449.989-.86.106a6.456,6.456,0,0,1,.561-4.165,25.661,25.661,0,0,1,3.549-2.929A16.323,16.323,0,0,0,64.7,77.179c1.383-1.424,8.481-10.036,9.154-10.778s.672.142,1.569-1.729,1.98-4.483,1.98-4.483Z"/><path class="cls-5" d="M75.9,59.648s3.088-6.871,4.384-9.036,4.981-5.177,6.675-2.635.7,11.577,0,13.742a17,17,0,0,0-.8,3.285s-3.288-.461-4.683-1.5S75.9,59.648,75.9,59.648Z"/><path class="cls-10" d="M50.676,137.889c-.127.719,1.141,1.2.634,2.575-.547,1.485-1.458,1.677-1.458,1.677l-3.77-3.122a1.211,1.211,0,0,0,.093,1.5,11.461,11.461,0,0,0,3.423,2.935,38.623,38.623,0,0,0,5.452,1.328c2.219.469,9.89,1.068,10.08.648s-1.487-1.264-1.487-1.264l-9.673-.925s.193-1.165.256-2a8.318,8.318,0,0,0-.182-1.965S50.8,137.17,50.676,137.889Z"/><path class="cls-10" d="M99.808,140.4s1.9.42,1.966,2.1a5.275,5.275,0,0,1-.435,2.575l-5.4-.905s-1.395.126-.38.905,6.72,1.258,7.544.958a22.484,22.484,0,0,0,4.818-3.473c.507-.719,3.487-2.037,4.438-2.157s2.282-.539,2.472-1.437.054-1.522-.57-1.228-6.4,3.081-7.164,3.919a6.079,6.079,0,0,1-2.047,1.322s-.832-3.985-1.39-4.478S99.935,139.985,99.808,140.4Z"/><path class="cls-2" d="M85.672,31.962c2.6-1.248,3.362,3.708,2.869,4.326s-.36.324-1.109.825-.061,1.3-1.416,1.511-1.91.481-1.91-.55v-1.03"/><path class="cls-1" d="M76.957,60.708s-1.457,3.047-2.385,4.637-9.01,10.6-9.01,10.6,2.253.928,2.518,2.253.8,1.325.8,1.325,4.8-4.943,6.625-6.095c5.034-3.18,6.9-9.41,6.9-9.41Z"/></svg>