<svg id="word" xmlns="http://www.w3.org/2000/svg" viewBox="0 0 160 160"><defs><style>.cls-1{fill:#b8babc;}.cls-2{fill:#281e18;}.cls-10,.cls-11,.cls-2,.cls-3,.cls-4,.cls-5,.cls-6,.cls-7{stroke:#9d4b9c;stroke-miterlimit:10;stroke-width:0.493px;}.cls-3{fill:#515254;}.cls-4{fill:#fff229;}.cls-5,.cls-8{fill:#fff;}.cls-6{fill:#f6921e;}.cls-7{fill:#66cdf5;}.cls-9{fill:#9d4b9c;}.cls-10{fill:#7a7c7f;}.cls-11{fill:#c4c5c7;}</style></defs><path class="cls-1" d="M34.447,70.589a13.472,13.472,0,0,1,4.715-5.038,41.388,41.388,0,0,1,6.083-3.416A90.931,90.931,0,0,1,58.372,57.4,169.175,169.175,0,0,1,85.8,52.289a173.74,173.74,0,0,1,27.9-.865,99.183,99.183,0,0,1,13.874,1.665,49.69,49.69,0,0,1,6.765,1.816,19.566,19.566,0,0,1,6.2,3.3,6.661,6.661,0,0,1,2.052,2.929,4.918,4.918,0,0,1-.283,3.566,9.709,9.709,0,0,1-2.1,2.864,19.564,19.564,0,0,1-2.742,2.214,55.283,55.283,0,0,1-12.636,5.967A147.124,147.124,0,0,1,97.633,82a188.782,188.782,0,0,1-27.844,1.853,130.469,130.469,0,0,1-13.929-.9,63.658,63.658,0,0,1-13.611-2.97,63.6,63.6,0,0,0,13.625,2.85,130.47,130.47,0,0,0,13.918.774,189.246,189.246,0,0,0,27.8-1.936,146.915,146.915,0,0,0,27.1-6.315,54.859,54.859,0,0,0,12.515-5.952,13.226,13.226,0,0,0,4.672-4.9,4.434,4.434,0,0,0,.254-3.228,6.211,6.211,0,0,0-1.915-2.7,19.124,19.124,0,0,0-6.04-3.227,49.33,49.33,0,0,0-6.7-1.819,98.882,98.882,0,0,0-13.807-1.7,173.293,173.293,0,0,0-27.839.781,169.707,169.707,0,0,0-27.4,5.017A90.707,90.707,0,0,0,45.3,62.244,41.413,41.413,0,0,0,39.2,65.6,13.455,13.455,0,0,0,34.447,70.589Z"/><path class="cls-1" d="M42.242,83.8a46.872,46.872,0,0,1-6.729-2.359,22.152,22.152,0,0,1-6.033-3.776,10.444,10.444,0,0,1-2.189-2.822,7.031,7.031,0,0,1-.779-3.483,10.528,10.528,0,0,1,3.075-6.357,28.44,28.44,0,0,1,5.538-4.518,52.627,52.627,0,0,1,6.264-3.442,98.353,98.353,0,0,1,13.343-5.082,167.677,167.677,0,0,1,27.945-5.777,182.092,182.092,0,0,1,28.513-1.351,129.008,129.008,0,0,1,14.231,1.28,72.469,72.469,0,0,1,13.894,3.335,33.175,33.175,0,0,1,6.459,3.1,12.262,12.262,0,0,1,4.853,5.236,6.983,6.983,0,0,1,.5,3.585,8.891,8.891,0,0,1-1.223,3.4,19.284,19.284,0,0,1-4.912,5.2,55.6,55.6,0,0,1-12.525,6.838,113.91,113.91,0,0,1-13.545,4.512,176.257,176.257,0,0,1-28.087,4.941,176.126,176.126,0,0,0,28.024-5.174,114.831,114.831,0,0,0,13.5-4.544,55.283,55.283,0,0,0,12.434-6.833,18.937,18.937,0,0,0,4.811-5.122,8.506,8.506,0,0,0,1.167-3.267,6.609,6.609,0,0,0-.48-3.4,11.9,11.9,0,0,0-4.724-5.05,32.746,32.746,0,0,0-6.388-3.041,71.947,71.947,0,0,0-13.82-3.273,129.169,129.169,0,0,0-14.182-1.236,181.63,181.63,0,0,0-28.445,1.265,167.352,167.352,0,0,0-27.9,5.683A98.213,98.213,0,0,0,41.511,57.3a52.666,52.666,0,0,0-6.243,3.407,28.539,28.539,0,0,0-5.5,4.458,10.331,10.331,0,0,0-3.072,6.2,6.852,6.852,0,0,0,.733,3.407,10.278,10.278,0,0,0,2.137,2.8,22.069,22.069,0,0,0,5.976,3.808A46.744,46.744,0,0,0,42.242,83.8Z"/><path class="cls-1" d="M34.69,61.859a112.49,112.49,0,0,1,17.623-6.1c6.013-1.613,12.117-2.871,18.253-3.913q9.225-1.45,18.538-2.2,4.653-.369,9.316-.557,4.665-.148,9.33-.1-4.663.071-9.319.338-4.656.234-9.3.643-9.284.828-18.486,2.355c-6.131.986-12.234,2.187-18.249,3.744q-4.517,1.146-8.949,2.594C40.487,59.61,37.556,60.651,34.69,61.859Z"/><path class="cls-2" d="M119.325,98.762a6.043,6.043,0,0,1-1.548-2.315c-.391-1.275-1.873-5.017-1.873-5.017s1.659-1.8.217-2.02-3.462.087-3.238.748,1.376,1.123,1.376,1.123,3.285,6.5,2.656,7.041S96.041,99.9,96.041,99.9L92.814,94.5l-.08-1.306s1.327-.923.192-1.229-2.8-.086-2.957.4S90.7,93.4,90.7,93.4l3.562,6.634-11.213.4s-.182.807.9,1.066S121.471,99.7,121.471,99.7s11.936-1.047,13.232-1.23,4.6-1.358,4.673-2.154-1.65-.2-2.358.08a25.153,25.153,0,0,1-4.039,1.144C131.532,97.794,119.325,98.762,119.325,98.762Z"/><path class="cls-3" d="M96.672,60.3l48.317-3.718s3.52.486,1.99.956-50.5,3.939-50.5,3.939Z"/><polygon class="cls-3" points="97.301 65.491 96.609 59.671 93.611 60.184 94.105 65.077 97.301 65.491"/><path class="cls-3" d="M99.118,59.523a9.225,9.225,0,0,0-3.551-.8,9.609,9.609,0,0,0-3.934,1.659Z"/><path class="cls-3" d="M93.611,60.184l-64.57,4.2a1.934,1.934,0,0,0,1.678.988c1.27.082,62.861-4.45,62.861-4.45Z"/><path class="cls-4" d="M99.147,69.2s-1.055-4.206-2.565-4.579-9.161.924-9.161.924-14.284,1.231-14.929,2.137.681,4.664.681,4.664L23.526,79.56l-.507,3.311s31.149-2.932,33.1-2.393,6.51,3.024,8.062,3.814a5.113,5.113,0,0,1,2.168,2.726s16.7-11.676,20.239-13.084S99.147,69.2,99.147,69.2Z"/><path class="cls-4" d="M127.5,74.012a32.439,32.439,0,0,0-20.058-5.969c-11.609.645-22.068,5.382-24.785,6.6S66.168,86.3,66.168,86.3s-.268,2.551.795,3.706,11.231,8.121,19.654,8.218,25.288-1.605,34.489-5.268,12.509-6.31,12.609-10.527S127.5,74.012,127.5,74.012Z"/><path class="cls-4" d="M12.163,62.828,24.422,80.1l-1.4,2.77L19.312,94.078l-1.749.386s-.051-10.932-1.616-14.981S8.852,63.372,8.852,63.372Z"/><polygon class="cls-4" points="12.576 59.631 12.163 62.828 8.915 63.471 6.233 56.17 9.47 55.948 12.576 59.631"/><path class="cls-5" d="M127.871,90.17a3.8,3.8,0,0,1,2.938,2.018,2.982,2.982,0,0,1-1.9,4.083,2.883,2.883,0,0,1-3.833-1.507C123.6,91.6,126.747,90.494,127.871,90.17Z"/><path class="cls-5" d="M127.266,89.39s2.429,3.226,1.7,4.351-2.405.137-2.405.137l-1.855-2.757Z"/><path class="cls-6" d="M108.245,90.573l-7.73-17.729s.03-.74-2.453-.331-5.459,1.655-6.078,2.821-.425,7.247-.315,7.815,1.169,9.5,1.169,9.5Z"/><path class="cls-7" d="M94.816,74.733s3.06-1.465,4.065-.883,4.986,10.329,5.059,11.058.824,1.389-1.122,1.9-7.261,1.521-7.913.8-1.966-10.634-1.966-10.634S92.51,75.334,94.816,74.733Z"/><path class="cls-6" d="M105.631,71.434a9.85,9.85,0,0,1,3.982-.665c5.523.021,10.345,7.159,10.345,7.159l.77,11.28-9.448,1.217s-4.649-6.472-5.8-8.986S102.524,72.956,105.631,71.434Z"/><path class="cls-7" d="M106.127,73.224s.733-1.073,3.227-.851a13.425,13.425,0,0,1,6.515,3.076c.49.686,2.9,2.7,2.692,6.353s-.881,4.822-4.369,4.648-7.1-6.751-7.665-7.693S104.915,74.24,106.127,73.224Z"/><path class="cls-7" d="M110.444,68.582l.074,1.254s-3.311.019-4.42-.027a32.144,32.144,0,0,0-3.956.4l-.262-1.025S108.423,68.365,110.444,68.582Z"/><path class="cls-7" d="M111.6,68.57l.174,1.718s5.119,2.27,6.135,3.482,2.992,4.116,2.992,4.116l9.1-.972a68.141,68.141,0,0,0-6.9-4.772C119.061,70.079,111.6,68.57,111.6,68.57Z"/><path class="cls-7" d="M130.942,77.872l-9.052.965a9.928,9.928,0,0,1,1.415,4.643,28.837,28.837,0,0,1-1.037,5.363l1.579,1.576s6.652-1.828,8.21-5.141S130.942,77.872,130.942,77.872Z"/><line class="cls-8" x1="82.601" y1="66.238" x2="83.503" y2="74.139"/><path class="cls-9" d="M82.6,66.238a30.645,30.645,0,0,1,.7,3.923,28.812,28.812,0,0,1,.206,3.978,28.828,28.828,0,0,1-.7-3.922A30.488,30.488,0,0,1,82.6,66.238Z"/><line class="cls-8" x1="82.402" y1="71.569" x2="72.871" y2="72.478"/><path class="cls-9" d="M82.4,71.569a43.89,43.89,0,0,1-4.742.7,41.524,41.524,0,0,1-4.789.21,41.576,41.576,0,0,1,4.742-.7A43.929,43.929,0,0,1,82.4,71.569Z"/><line class="cls-8" x1="79.202" y1="72.68" x2="82.004" y2="97.322"/><path class="cls-9" d="M79.2,72.68c.669,4.084,1.149,8.19,1.645,12.294.439,4.11.894,8.218,1.157,12.348-.671-4.083-1.151-8.189-1.646-12.293C79.92,80.919,79.466,76.81,79.2,72.68Z"/><line class="cls-8" x1="79.281" y1="85.45" x2="66.892" y2="86.7"/><path class="cls-9" d="M79.281,85.45c-2.045.411-4.108.633-6.17.87-2.065.2-4.135.364-6.219.38,2.045-.4,4.106-.653,6.17-.87C75.129,85.651,77.2,85.456,79.281,85.45Z"/><path class="cls-2" d="M115.706,102.493a6.04,6.04,0,0,1-1.549-2.315c-.391-1.275-1.873-5.017-1.873-5.017s1.659-1.8.217-2.02-3.462.086-3.238.747,1.376,1.124,1.376,1.124,3.285,6.5,2.656,7.041-20.874,1.58-20.874,1.58l-3.227-5.406-.08-1.307s1.327-.922.192-1.228-2.8-.086-2.957.4.735,1.03.735,1.03l3.562,6.634-11.213.4s-.182.807.9,1.066,37.522-1.788,37.522-1.788,11.936-1.046,13.232-1.23,4.6-1.357,4.673-2.154-1.65-.2-2.358.08a25.049,25.049,0,0,1-4.039,1.144C127.912,101.524,115.706,102.493,115.706,102.493Z"/><polygon class="cls-10" points="26.102 72.78 20.151 77.376 22.006 79.082 27.364 74.861 26.102 72.78"/><polygon class="cls-10" points="15.243 83.971 17.306 85.656 11.376 91.513 9.896 89.349 14.722 84.024 15.243 83.971"/><polygon class="cls-11" points="20.151 77.376 19.175 80.209 22.006 79.082 20.151 77.376"/><polygon class="cls-11" points="14.722 84.024 17.49 82.272 17.306 85.656 14.722 84.024"/><ellipse class="cls-10" cx="18.145" cy="81.47" rx="1.883" ry="1.674" transform="translate(-8.087 2.233) rotate(-5.761)"/></svg>