<svg id="word" xmlns="http://www.w3.org/2000/svg" xmlns:xlink="http://www.w3.org/1999/xlink" viewBox="0 0 160 160"><defs><style>.cls-1{fill:#a6a044;}.cls-2{fill:#7a875c;stroke:#60663b;}.cls-10,.cls-14,.cls-15,.cls-16,.cls-17,.cls-18,.cls-19,.cls-2,.cls-20,.cls-22,.cls-23,.cls-24,.cls-25,.cls-26,.cls-27,.cls-28,.cls-29,.cls-3,.cls-30,.cls-31,.cls-32,.cls-33,.cls-34,.cls-35,.cls-36,.cls-37,.cls-38,.cls-39,.cls-40,.cls-41,.cls-42,.cls-43,.cls-45,.cls-46,.cls-47,.cls-48,.cls-49,.cls-5,.cls-50,.cls-51,.cls-52,.cls-53,.cls-54,.cls-55,.cls-56,.cls-57,.cls-58,.cls-6,.cls-7,.cls-9{stroke-width:0.5px;}.cls-3{fill:#bed757;stroke:#2f6c4e;}.cls-4{fill:#9e9c8b;}.cls-5{fill:#f3dcae;}.cls-10,.cls-14,.cls-22,.cls-23,.cls-24,.cls-25,.cls-26,.cls-27,.cls-28,.cls-29,.cls-30,.cls-31,.cls-32,.cls-33,.cls-34,.cls-35,.cls-36,.cls-37,.cls-38,.cls-39,.cls-40,.cls-41,.cls-42,.cls-43,.cls-45,.cls-46,.cls-47,.cls-48,.cls-49,.cls-5,.cls-50,.cls-51,.cls-52,.cls-53,.cls-54,.cls-55,.cls-56,.cls-57,.cls-58,.cls-6,.cls-7,.cls-9{stroke:#9d4b9c;}.cls-10,.cls-14,.cls-5{stroke-miterlimit:10;}.cls-6{fill:#a4c0cf;}.cls-7{fill:#ca9977;}.cls-8{fill:#5685ad;opacity:0.25;}.cls-17,.cls-9{fill:none;}.cls-10{fill:#eb9265;}.cls-11{fill:#f05a22;}.cls-12{fill:#ffc906;}.cls-13{fill:#c8cacb;}.cls-14{fill:#eae2a2;}.cls-15{fill:#d06c59;}.cls-15,.cls-16,.cls-17,.cls-18,.cls-19,.cls-20{stroke:#973693;}.cls-16{fill:#c4e1ef;}.cls-18{fill:#9b5b3a;}.cls-19{fill:#884c31;}.cls-20{fill:#6c2f1f;}.cls-21,.cls-53{fill:#fff;}.cls-22{fill:#b7b9bb;}.cls-23{fill:url(#radial-gradient);}.cls-24{fill:#3e3e3f;}.cls-25{fill:url(#linear-gradient);}.cls-26{fill:#569ad3;}.cls-27{fill:#dfe0e1;}.cls-28{fill:#fdc367;}.cls-29{fill:#f59182;}.cls-30{fill:#4d8abc;}.cls-31{fill:#4881b0;}.cls-32{fill:url(#radial-gradient-2);}.cls-33{fill:#c0c1c3;}.cls-34{fill:#6a6d74;}.cls-35{fill:url(#radial-gradient-3);}.cls-36{fill:url(#radial-gradient-4);}.cls-37{fill:#434345;}.cls-38{fill:#ba362d;}.cls-39{fill:#ba4a40;}.cls-40{fill:#a55e59;}.cls-41{fill:#ec1c24;}.cls-42{fill:#5a5b5d;}.cls-43{fill:#1a0f07;}.cls-44{fill:#9d4b9c;}.cls-45{fill:url(#Radial_Gradient_3);}.cls-46{fill:#312620;}.cls-47{fill:#353435;}.cls-48{fill:#b15c20;}.cls-49{fill:#f47e31;}.cls-50{fill:#fce3da;}.cls-51{fill:#580032;}.cls-52{fill:#d6de23;}.cls-54{fill:#231f20;}.cls-55{fill:#26a9e0;opacity:0.28;}.cls-56{fill:url(#Radial_Gradient_3-2);}.cls-57{fill:url(#Linear_Gradient_2);}.cls-58{fill:url(#Radial_Gradient_3-3);}</style><radialGradient id="radial-gradient" cx="4487.306" cy="311.612" r="1.312" gradientTransform="matrix(-0.738, 0, 0, 0.646, 3344.571, -87.527)" gradientUnits="userSpaceOnUse"><stop offset="0" stop-color="#fff"/><stop offset="1" stop-color="#4e4f51"/></radialGradient><linearGradient id="linear-gradient" x1="735.514" y1="94.411" x2="736.383" y2="113.815" gradientTransform="translate(-686.168)" gradientUnits="userSpaceOnUse"><stop offset="0" stop-color="#0097d5"/><stop offset="1" stop-color="#0068a0"/></linearGradient><radialGradient id="radial-gradient-2" cx="4433.729" cy="311.875" r="1.312" xlink:href="#radial-gradient"/><radialGradient id="radial-gradient-3" cx="-1614.913" cy="32.456" r="2.502" gradientTransform="matrix(1, -0.015, 0.015, 1, 1738.01, 27.384)" gradientUnits="userSpaceOnUse"><stop offset="0" stop-color="#fff"/><stop offset="1" stop-color="#606163"/></radialGradient><radialGradient id="radial-gradient-4" cx="-1610.753" cy="33.195" r="2.939" gradientTransform="matrix(1, -0.015, 0.015, 1, 1738.01, 27.384)" gradientUnits="userSpaceOnUse"><stop offset="0" stop-color="#fff"/><stop offset="1" stop-color="#5d5e60"/></radialGradient><radialGradient id="Radial_Gradient_3" cx="-1601.76" cy="37.052" r="1.087" gradientTransform="matrix(1, -0.015, 0.015, 1, 1738.01, 27.384)" gradientUnits="userSpaceOnUse"><stop offset="0" stop-color="#fff"/><stop offset="1" stop-color="#231f20"/></radialGradient><radialGradient id="Radial_Gradient_3-2" cx="-1616.329" cy="26.585" r="0.985" xlink:href="#Radial_Gradient_3"/><linearGradient id="Linear_Gradient_2" x1="-1616.925" y1="26.412" x2="-1615.665" y2="26.412" gradientTransform="matrix(1, -0.015, 0.015, 1, 1738.01, 27.384)" xlink:href="#Radial_Gradient_3"/><radialGradient id="Radial_Gradient_3-3" cx="-1616.295" cy="26.132" r="0.448" xlink:href="#Radial_Gradient_3"/></defs><path class="cls-1" d="M105.765,72.983c-.446-1.076-16.067,1.076-7.587,4.3s43.8,4.934,49.6.63S105.765,72.983,105.765,72.983Z"/><path class="cls-2" d="M138.941,75.412s-7.141-3.048-7.475-6.813-.67-5.469.781-3.856,2.454,1.525,2.231-.807-3.459-9.324-.111-8.158,3.682,1.165,3.235-.269-3.235-11.028-1.673-9.952,2.9,2.959,2.566,1.166,1.339-17.394,5.133-17.214,1.115,16.138,2.343,15.152,2.9-4.035,3.347-.987-2.231,4.3,0,4.3,1.451,1.255.447,2.421-3.013,3.586-1.563,3.675,2.232-1.255,2.455.359-4.24,7.621-3.459,8.159,2.567-1.614,2.678.269-1.674,5.648-1.674,5.648,3.013-1.345,2.12.807-5.355,6.007-7.475,6.186A18.714,18.714,0,0,1,138.941,75.412Z"/><path class="cls-3" d="M105.653,65.945s-.027-.054-.067-.146c-.213-.483-.8-2.011.235-2.274A4.481,4.481,0,0,1,107.5,63.3s-1.172-1.7-.335-1.793a1.169,1.169,0,0,1,1.171.628s-2.343-3.81.781-3.407,2.567,1.614,2.567,1.614.613-1.524,1.673-.717,1.06,1.344,1.06,1.524-.557-2.78,1.9-2.107,2.4,1.165,2.4,1.165,1.9-3.451,3.124-2.2a2.77,2.77,0,0,1,.614,2.824,1.3,1.3,0,0,1,1.9-.359c1.227.762-.223,2.466-.558,2.466s2.678,1.479,1.4,2.331a6.2,6.2,0,0,1-3.013.852s2.622-.225,1.451,1.658a6.083,6.083,0,0,1-2.288,2.376L105.6,69.487S103.087,67.335,105.653,65.945Z"/><path class="cls-3" d="M123.562,61.642s.725-3.138,3.068-2.286,1.73,2.017,1.73,2.017-.056-1.973,1.562-1.211,1,1.39,1,1.39.279-2.51,1.73-1.883.836,2.331.836,2.331,1.507-1.344,2.288-.582a1.457,1.457,0,0,1,.39,1.613s2.288-1.524,2.846-.224-1.9,1.793-1.9,1.793,3.124.269,2.789,2.2-2.733,1.121-2.733,1.121,2.677,1.434,1.673,2.51-3.849,0-3.849,0,3.514,2.466,1.562,2.959-4.91-.493-4.965-.852-12.776-.448-12.776-.448-5.133-7.038-1.172-7.666,3.85-.09,3.85-.09-1.841-1.389-.558-2.151A4.25,4.25,0,0,1,123.562,61.642Z"/><path class="cls-3" d="M105.207,76.435s-1.395.045-1.395-.583A1.528,1.528,0,0,1,103.98,75s-2.79.225-2.511-.538a3.586,3.586,0,0,1,.558-1.075s-2.51.089-2.176-1.076a1.018,1.018,0,0,1,1.339-.807s-2.733-2.421-1.171-3.317,2.008-.045,2.008-.045-1.227-3.5,1.116-3.407,2.845.986,2.845.986.725-2.107,1.841-1.3.279,2.466.279,2.466l2.678-.4s.167-3.183,1.953-2.2a1.722,1.722,0,0,1,.948,2.42s2.957-1.255,4.073.135a1.373,1.373,0,0,1-.5,2.2s2.678-1.076,2.9.224-2.288,2.018-2.288,2.018,2.846-.09,2.567,1.927-4.24,1.524-4.24,1.524,1.227,2.959-.5,3.273-3.794-1.345-3.794-1.345-.893,1.793-2.343.9A3.062,3.062,0,0,1,108,75.449S105.43,78.9,105.207,76.435Z"/><path class="cls-3" d="M119.043,78.945s-1.953.449-1.953-.493a2.272,2.272,0,0,1,.726-1.569s-4.464-1.21-3.4-2.555a2.449,2.449,0,0,1,2.232-1.121,1.591,1.591,0,0,1,.279-2.734,3.093,3.093,0,0,1,3.57.224s.056-2.51.726-2.645,1.171-.852,1.785-.358a7.556,7.556,0,0,1,1.283,1.613s-.111-2.958.67-2.734,1.394,2.376,1.394,2.376-.111-2.78,1.674-2.018a2.964,2.964,0,0,1,1.785,2.6s-.223-5.2,2.4-2.958.335,3.855.168,3.855,3.514-1.031,2.566.717L134,72.894s1.785-.987,1.841.762-2.176,2.017-2.176,2.017,2.678,1.883-.056,1.524a9.89,9.89,0,0,1-3.347-.762,12.181,12.181,0,0,1-3.515,1.21c-1.116,0-.446,1.211-2.455.718S119.433,81.142,119.043,78.945Z"/><rect class="cls-4" x="11.105" y="77.6" width="140.788" height="5.227"/><path class="cls-5" d="M54.61,50.808a112.551,112.551,0,0,1,31.226-4.236c21.969.313,31.384,3.922,31.384,3.922V56.3H54.767Z"/><rect class="cls-6" x="96.229" y="61.742" width="26.833" height="16.498"/><rect class="cls-7" x="94.465" y="60.38" width="30.04" height="2.156"/><polygon class="cls-8" points="95.972 71.226 123.024 64.51 123.014 62.607 95.972 62.692 95.972 71.226"/><line class="cls-9" x1="105.191" y1="62.592" x2="105.191" y2="77.73"/><rect class="cls-7" x="103.976" y="69.735" width="0.561" height="2.609"/><rect class="cls-7" x="105.882" y="69.679" width="0.561" height="2.608"/><rect class="cls-7" x="113.202" y="69.312" width="0.563" height="2.607"/><rect class="cls-7" x="115.108" y="69.253" width="0.562" height="2.609"/><line class="cls-9" x1="114.507" y1="62.536" x2="114.507" y2="77.785"/><path class="cls-10" d="M53.355,49.71,53.2,52.534S73.6,47,85.993,47.67c20.321,1.1,31.854,4.707,31.854,4.707l-.314-3.3s-20.559-3.6-30.755-3.3C65.594,46.415,53.355,49.71,53.355,49.71Z"/><rect class="cls-11" x="70.184" y="50.181" width="28.363" height="4.943"/><path class="cls-12" d="M76.623,52.3a.877.877,0,0,1-.44.811,2.071,2.071,0,0,1-1.079.262c-.078,0-.133,0-.166-.005,0,.288.009.669.027,1.141h-.7q.031-.664.032-1.566,0-.827-.032-1.427H74.7c.061,0,.179,0,.352-.007s.323-.007.451-.007a1.5,1.5,0,0,1,.8.2A.654.654,0,0,1,76.623,52.3Zm-.639.126q0-.492-.7-.492a2.158,2.158,0,0,0-.372.035c.018.289.028.617.028.983.04,0,.089,0,.143,0Q75.984,52.958,75.984,52.427Z"/><path class="cls-12" d="M80.308,54.51h-.793a4.6,4.6,0,0,0-.226-.86H78.144a4.189,4.189,0,0,0-.233.86h-.746a15.165,15.165,0,0,1,.579-1.472,11.008,11.008,0,0,0,.579-1.521h.936a12.13,12.13,0,0,0,.524,1.5A12.4,12.4,0,0,1,80.308,54.51Zm-.89-3.726-.03.4H78.139l.027-.4Zm-.255,2.427a12.116,12.116,0,0,1-.424-1.283H78.7a12.76,12.76,0,0,1-.438,1.283Z"/><path class="cls-12" d="M83.811,54.51h-.733a4.372,4.372,0,0,0-.441-1,.6.6,0,0,0-.5-.191c-.095,0-.187,0-.275,0q0,.59.022,1.193H81.2q.032-.694.032-1.566,0-.837-.032-1.427h.428c.05,0,.153,0,.311-.007s.3-.007.438-.007q1.137,0,1.137.722a.819.819,0,0,1-.649.8v.035a.754.754,0,0,1,.438.362A7.6,7.6,0,0,1,83.811,54.51ZM82.882,52.4q0-.458-.634-.458a2.284,2.284,0,0,0-.412.033c.018.237.027.547.027.928.091,0,.168,0,.231,0Q82.882,52.9,82.882,52.4Z"/><path class="cls-12" d="M86.988,51.517l-.018.494q-.5-.035-.934-.034c0,.289,0,.612,0,.967q0,.828.027,1.566h-.693q.032-.732.032-1.566c0-.349,0-.672-.01-.967q-.35,0-.959.036l.02-.5Z"/><path class="cls-12" d="M88.608,54.51h-.7c.021-.476.032-1,.032-1.566s-.011-1.035-.032-1.427h.7q-.031.579-.032,1.427Q88.576,53.811,88.608,54.51Z"/><path class="cls-12" d="M92.437,54.51h-.811a2.832,2.832,0,0,0-.418-.729q-.447-.664-.632-.664H90.5q0,.524.028,1.393h-.7q.032-.694.032-1.566,0-.837-.032-1.427h.7q-.028.636-.028,1.2h.055c.072,0,.256-.188.55-.565a2.706,2.706,0,0,0,.429-.63h.738a2.365,2.365,0,0,1-.453.572,4.5,4.5,0,0,1-.685.653v.034a3.085,3.085,0,0,1,.8.908A3.971,3.971,0,0,1,92.437,54.51Z"/><path class="cls-12" d="M96.141,54.51h-.793a4.559,4.559,0,0,0-.225-.86H93.977a4.228,4.228,0,0,0-.232.86H93a15.29,15.29,0,0,1,.578-1.472,11.008,11.008,0,0,0,.579-1.521h.937a11.931,11.931,0,0,0,.524,1.5A12.28,12.28,0,0,1,96.141,54.51ZM95,53.211a12.116,12.116,0,0,1-.424-1.283h-.039a12.637,12.637,0,0,1-.439,1.283Z"/><rect class="cls-6" x="45.7" y="59.859" width="22.571" height="16.498"/><polygon class="cls-8" points="45.484 69.343 68.238 62.627 68.23 60.724 45.484 60.809 45.484 69.343"/><line class="cls-9" x1="53.238" y1="60.709" x2="53.238" y2="75.847"/><line class="cls-9" x1="61.074" y1="60.653" x2="61.074" y2="75.902"/><rect class="cls-6" x="71.069" y="59.859" width="22.571" height="16.498"/><polygon class="cls-8" points="70.853 69.343 93.608 62.627 93.6 60.724 70.853 60.809 70.853 69.343"/><line class="cls-9" x1="78.607" y1="60.709" x2="78.607" y2="75.847"/><line class="cls-9" x1="86.444" y1="60.653" x2="86.444" y2="75.902"/><rect class="cls-13" x="11.105" y="82.51" width="140.788" height="44.98"/><polygon class="cls-14" points="11.331 37.37 11.331 78.337 43.82 78.337 43.82 35.109 28.376 23.624 11.331 37.37"/><polygon class="cls-15" points="11.042 37.676 14.468 23.816 43.014 23.816 45.231 37.073 28.304 24.677 11.042 37.676"/><path class="cls-16" d="M25.819,36.642h4.97l-.2-4.218s-.807-3.128-2.217-3.184c-2.149-.087-2.619,3.357-2.619,3.357Z"/><path class="cls-15" d="M10.37,38.02s-1.276,1.55.4,1.721S28.3,24.677,28.3,24.677L45.365,38.623s1.276-.6.94-1.55-6.717-5.337-6.717-5.337l-10.343-8.35s-.538-1.291-1.21-.947a34.841,34.841,0,0,0-3.358,3.013Z"/><line class="cls-17" x1="28.215" y1="29.297" x2="28.215" y2="36.757"/><line class="cls-17" x1="25.752" y1="32.97" x2="30.633" y2="32.97"/><rect class="cls-18" x="25.394" y="36.586" width="5.776" height="0.803"/><rect class="cls-16" x="15.676" y="40.947" width="5.194" height="7.604"/><line class="cls-17" x1="17.624" y1="40.99" x2="17.624" y2="48.608"/><rect class="cls-18" x="15.318" y="48.378" width="5.776" height="0.803"/><rect class="cls-16" x="25.196" y="40.947" width="5.194" height="7.604"/><line class="cls-17" x1="27.144" y1="40.99" x2="27.144" y2="48.608"/><rect class="cls-18" x="24.838" y="48.378" width="5.777" height="0.803"/><rect class="cls-16" x="34.717" y="40.947" width="5.194" height="7.604"/><line class="cls-17" x1="36.664" y1="40.99" x2="36.664" y2="48.608"/><rect class="cls-18" x="34.358" y="48.378" width="5.776" height="0.803"/><rect class="cls-16" x="15.676" y="61.293" width="5.194" height="7.604"/><line class="cls-17" x1="17.624" y1="61.335" x2="17.624" y2="68.953"/><rect class="cls-18" x="15.318" y="68.724" width="5.776" height="0.803"/><rect class="cls-16" x="25.331" y="60.948" width="5.194" height="3.644"/><line class="cls-17" x1="27.278" y1="60.991" x2="27.278" y2="64.649"/><rect class="cls-18" x="24.972" y="64.42" width="5.777" height="0.803"/><rect class="cls-16" x="34.717" y="61.293" width="5.194" height="7.604"/><line class="cls-17" x1="36.664" y1="61.335" x2="36.664" y2="68.953"/><rect class="cls-18" x="34.358" y="68.724" width="5.776" height="0.803"/><rect class="cls-18" x="24.476" y="66.417" width="6.784" height="11.793"/><rect class="cls-19" x="25.483" y="67.737" width="4.836" height="3.329"/><rect class="cls-19" x="25.483" y="73.261" width="4.836" height="3.214"/><path class="cls-20" d="M25.752,72.228a.45.45,0,1,1-.437-.56A.511.511,0,0,1,25.752,72.228Z"/><rect class="cls-19" x="23.938" y="77.78" width="7.702" height="1.033"/><rect class="cls-16" x="15.771" y="51.211" width="5.194" height="7.604"/><line class="cls-17" x1="17.718" y1="51.254" x2="17.718" y2="58.873"/><rect class="cls-18" x="15.413" y="58.643" width="5.776" height="0.803"/><rect class="cls-16" x="25.291" y="51.211" width="5.194" height="7.604"/><line class="cls-17" x1="27.239" y1="51.254" x2="27.239" y2="58.873"/><rect class="cls-18" x="24.932" y="58.643" width="5.777" height="0.803"/><rect class="cls-16" x="34.811" y="51.211" width="5.194" height="7.604"/><line class="cls-17" x1="36.759" y1="51.254" x2="36.759" y2="58.873"/><rect class="cls-18" x="34.453" y="58.643" width="5.776" height="0.803"/><rect class="cls-21" x="11.572" y="100.645" width="19.825" height="1.544"/><rect class="cls-21" x="41.006" y="100.645" width="19.825" height="1.544"/><rect class="cls-21" x="70.44" y="100.645" width="19.825" height="1.544"/><rect class="cls-21" x="99.874" y="100.645" width="19.825" height="1.544"/><rect class="cls-21" x="129.308" y="100.645" width="19.825" height="1.544"/><path class="cls-22" d="M27.811,114.014a4.241,4.241,0,1,0,4.24-4.318A4.28,4.28,0,0,0,27.811,114.014Zm6.5.723L32.4,113.563l1.3-1.175s.865.44,1.009,1.028A1.968,1.968,0,0,1,34.312,114.737ZM31.9,116.6l.5-2.092,1.549.623s-.108.991-.9,1.211A7.97,7.97,0,0,1,31.9,116.6Zm0-3.4-1.405-1.358a3.762,3.762,0,0,1,1.549-.4,1.21,1.21,0,0,1,.973.55Zm-2.306,1.945,1.946-.514-.18,1.8s-.9.147-1.153-.146A6.448,6.448,0,0,1,29.592,115.141Zm-.216-1.872a1.294,1.294,0,0,1,.577-.954l1.26,1.211-1.765.844A4.374,4.374,0,0,1,29.376,113.269Z"/><path class="cls-23" d="M31.066,113.808a.907.907,0,1,0,.907-.9A.9.9,0,0,0,31.066,113.808Z"/><path class="cls-24" d="M27.08,114a4.816,4.816,0,1,0,4.815-4.93A4.874,4.874,0,0,0,27.08,114Zm1.062,0A3.754,3.754,0,1,1,31.9,117.84,3.8,3.8,0,0,1,28.142,114Z"/><path class="cls-25" d="M78.014,113.955a7.077,7.077,0,0,0,2.059-.612c.4-.34,1.157-1.909.451-4.62-.738-2.831-.783-3.609-4.7-4.969s-9.7-2.176-10.626-2.584-6.376-4.42-7.107-4.964.067-1.768-3.254-1.768-5.446-.476-9.963-.476-5.114,0-7.04.952-6.642,5.576-6.642,5.576-.332.34-2.391.544a35.949,35.949,0,0,0-5.313.68c-1.063.34-1.993.068-2.325,1.768a30.075,30.075,0,0,1-1.262,4.692c-.4.953-1.062,2.517,0,3.945s5.779,2.38,5.779,2.38l1.062.068s.93-4.488,4.517-5.032,5.712,4.216,5.712,4.216l28.559.612s2.391-7.141,7.107-5.441,4.25,5.1,4.25,5.1Z"/><path class="cls-26" d="M38.629,114.7s.2-6.937-6.243-6.732c-4.846.153-4.052.68-5.38,2.108s-1.395,5.236-1.395,5.236l1-.068s1.13-6.733,6.543-5.508c2.986.675,3.885,4.964,3.885,4.964S38.762,116.267,38.629,114.7Z"/><path class="cls-27" d="M53.772,95.934s8.17,5.168,6.575,5.372-11.556-.2-11.556-.2l-2.059-5.508S51.713,94.1,53.772,95.934Z"/><path class="cls-27" d="M45.4,95.8l1.328,4.964-13.283.136,3.984-2.992a6.064,6.064,0,0,1,2.923-2.176A22.27,22.27,0,0,1,45.4,95.8Z"/><path class="cls-27" d="M56.628,95.05s-1.594-.068-.664.816,6.442,4.964,6.442,4.964l2.126-.2-7.24-5.236Z"/><path class="cls-27" d="M37.367,95.118s1.129.34.465.884-6.044,4.828-6.044,4.828l-1.328-.068Z"/><path class="cls-26" d="M57.292,100.558s1.329-1.224,1.66-.068,1.263,2.312.465,2.652S57.226,101.51,57.292,100.558Z"/><path class="cls-9" d="M48.193,101.374s.332,8.3.332,9.045-.265,1.5,0,1.972a1.3,1.3,0,0,0,1.129.68H60.613"/><path class="cls-28" d="M74.561,104.3a1.665,1.665,0,0,0,1.062,2.175c1.661.748,3.122,1.224,2.458-.068S76.354,103.754,74.561,104.3Z"/><path class="cls-28" d="M80.64,109.106s-1.46.024-1.46,1.18a2.364,2.364,0,0,0,1.395,1.972c.2,0,.531-.68.531-.68Z"/><path class="cls-29" d="M21.028,103.822s2.524.2,2.524,1.632-3.387,1.5-3.387,1.5Z"/><path class="cls-9" d="M32.718,101.986l.2,4.964s.266.544,1.262.544,3.321,1.565,3.985,2.925a18.57,18.57,0,0,1,1,2.448l9.232-.068"/><path class="cls-30" d="M53.017,103.15s.845,1.761-.417,1.761-2.771-.036-2.771-.036-.706-1.869.224-1.869A17.262,17.262,0,0,1,53.017,103.15Z"/><rect class="cls-31" x="49.389" y="103.89" width="4.782" height="0.272"/><polyline class="cls-9" points="73.498 103.822 68.052 102.666 63.469 102.462"/><path class="cls-22" d="M67.363,114.184a4.24,4.24,0,1,0,4.239-4.318A4.28,4.28,0,0,0,67.363,114.184Zm6.5.723-1.91-1.174,1.3-1.175s.864.44,1.008,1.028A1.97,1.97,0,0,1,73.864,114.907Zm-2.415,1.86.5-2.092,1.549.623s-.108.991-.9,1.211A7.97,7.97,0,0,1,71.449,116.767Zm0-3.4-1.4-1.358a3.756,3.756,0,0,1,1.548-.4,1.21,1.21,0,0,1,.973.55Zm-2.306,1.945,1.946-.514-.18,1.8s-.9.147-1.153-.146A6.448,6.448,0,0,1,69.143,115.311Zm-.215-1.872a1.294,1.294,0,0,1,.576-.954l1.261,1.211L69,114.54A4.318,4.318,0,0,1,68.928,113.439Z"/><path class="cls-32" d="M70.617,113.978a.907.907,0,1,0,.907-.9A.9.9,0,0,0,70.617,113.978Z"/><path class="cls-24" d="M66.631,114.168a4.816,4.816,0,1,0,4.815-4.93A4.874,4.874,0,0,0,66.631,114.168Zm1.063,0a3.754,3.754,0,1,1,3.752,3.842A3.8,3.8,0,0,1,67.694,114.168Z"/><path class="cls-26" d="M78.214,114.363s-.425-7.039-6.343-7c-5.812.034-6.874,7.073-6.874,7.073l1.527.544s1.86-6.121,5.247-5.712,4.317,5.372,4.915,5.372A7.064,7.064,0,0,0,78.214,114.363Z"/><path class="cls-30" d="M37.675,103.184s.845,1.762-.417,1.762-2.771-.037-2.771-.037-.707-1.869.223-1.869A17.28,17.28,0,0,1,37.675,103.184Z"/><rect class="cls-31" x="34.046" y="103.925" width="4.782" height="0.272"/><path class="cls-33" d="M121.61,83.764s-2.188.048-2.741,1.866a3.728,3.728,0,0,0,.53,3.564c.428.478,1.018,1.05,1.27.594a13.315,13.315,0,0,1,.789-1.175,1.166,1.166,0,0,1-.309-1.223,5.63,5.63,0,0,1,.913-1.533l-.488-.218-1.324,2.088-.479.362s-.7-1.249-.193-2a8.044,8.044,0,0,1,2.139-1.649Z"/><path class="cls-34" d="M132.32,83.909s-2.993,5.3-3.084,5.506-.891.594-1.119.429a13.246,13.246,0,0,1-1.21-.656,4.464,4.464,0,0,1,.038-1.164A8.1,8.1,0,0,0,128.4,86.9c.319-.416,1.956-3,1.956-3a16.558,16.558,0,0,1,1.912-1.286,5.787,5.787,0,0,1,1.012-.016Z"/><path class="cls-35" d="M121.179,83.06s-.987,3.02.31,3.355a17.317,17.317,0,0,0,3.751.233s1.955-3.132,1.53-3.48S121.179,83.06,121.179,83.06Z"/><path class="cls-36" d="M125.035,85.908s-.356,2.041.488,2.319a5.281,5.281,0,0,0,2.261-.067l3.25-5.026-4.3-.418Z"/><path class="cls-22" d="M119.234,76.37s-.29-.012-.325-.108-.674-.8-.819-.8-.344-.253-.551-.072-.222.294-.027.339a.723.723,0,0,0,.388-.006c.048-.017.161-.034.245.223s.008.516.251.529,1.3.178,1.3.178l.051-.375Z"/><path class="cls-37" d="M121.016,75.691a.5.5,0,1,1-.505-.508A.507.507,0,0,1,121.016,75.691Z"/><polyline class="cls-9" points="137.066 85.152 136.969 89.171 136.731 93.415"/><polyline class="cls-9" points="133.63 86.656 137.197 89.487 140.521 92.097"/><polyline class="cls-9" points="138.2 85.246 136.912 89.65 135.549 93.259"/><polyline class="cls-9" points="134.376 92.639 136.879 89.555 139.564 85.831"/><polyline class="cls-9" points="136.047 85.215 137.055 89.616 137.883 93.637"/><polyline class="cls-9" points="134.54 85.733 137.02 89.377 139.086 93.108"/><polyline class="cls-9" points="133.568 91.966 137.02 89.377 140.421 86.63"/><polyline class="cls-9" points="132.976 87.686 137.083 89.384 141.331 90.81"/><polyline class="cls-9" points="132.687 88.568 137.083 89.384 141.644 89.433"/><polyline class="cls-9" points="141.415 88.034 136.955 89.315 132.963 90.987"/><line class="cls-9" x1="132.355" y1="89.8" x2="137.083" y2="89.384"/><path class="cls-24" d="M136.767,83.453a5.838,5.838,0,1,0,6.077,5.743A5.913,5.913,0,0,0,136.767,83.453Zm.145,9.421a3.588,3.588,0,1,1,3.644-3.643A3.643,3.643,0,0,1,136.912,92.874Z"/><path class="cls-9" d="M139.824,89.371a2.853,2.853,0,1,1-2.883-2.573A2.736,2.736,0,0,1,139.824,89.371Z"/><path class="cls-34" d="M138.7,89.35a1.712,1.712,0,1,1-1.737-1.654A1.695,1.695,0,0,1,138.7,89.35Z"/><polygon class="cls-38" points="114.079 84.623 112.033 87.046 112.775 88.02 115.288 85.493 114.079 84.623"/><polyline class="cls-9" points="111.856 84.138 111.758 88.158 111.521 92.402"/><polyline class="cls-9" points="108.419 85.642 111.986 88.473 115.311 91.084"/><polyline class="cls-9" points="112.989 84.232 111.702 88.637 110.339 92.245"/><polyline class="cls-9" points="109.165 91.625 111.669 88.542 114.353 84.817"/><polyline class="cls-9" points="110.836 84.202 111.845 88.603 112.672 92.624"/><polyline class="cls-9" points="109.33 84.72 111.809 88.364 113.876 92.095"/><polyline class="cls-9" points="108.358 90.952 111.809 88.364 115.211 85.617"/><polyline class="cls-9" points="107.766 86.673 111.873 88.371 116.12 89.796"/><polyline class="cls-9" points="107.476 87.554 111.873 88.371 116.434 88.42"/><polyline class="cls-9" points="116.205 87.021 111.745 88.301 107.752 89.973"/><line class="cls-9" x1="107.144" y1="88.787" x2="111.873" y2="88.371"/><path class="cls-24" d="M111.557,82.44a5.838,5.838,0,1,0,6.076,5.743A5.911,5.911,0,0,0,111.557,82.44Zm.145,9.42a3.587,3.587,0,1,1,3.643-3.642A3.644,3.644,0,0,1,111.7,91.86Z"/><path class="cls-9" d="M114.614,88.357a2.853,2.853,0,1,1-2.883-2.572A2.737,2.737,0,0,1,114.614,88.357Z"/><path class="cls-34" d="M113.494,88.336a1.713,1.713,0,1,1-1.738-1.653A1.695,1.695,0,0,1,113.494,88.336Z"/><path class="cls-22" d="M119.748,76.152a4.443,4.443,0,0,0-.243,1,.709.709,0,0,0,.219.595c.181.207.365.608.43.639s.132.176.308.092.4-.183.091-.373a1.4,1.4,0,0,1-.58-.976,2.172,2.172,0,0,1,.2-.94l0-.162-.229-.174Z"/><path class="cls-39" d="M120.951,78.767s-1.574.573-1.554,1.9a5.448,5.448,0,0,0,.913,2.6s.253-.327,1.519.074a7.416,7.416,0,0,0,3.783.135c.545-.267.932-.3.987-.887s1.006-1.858-.592-2.77a7.4,7.4,0,0,0-3.505-1.076C121.823,78.721,120.951,78.767,120.951,78.767Z"/><path class="cls-40" d="M121.544,79.5s-1.314.7-1.368,1.346a4.939,4.939,0,0,0,.643,1.9l2.586.122.926-2.825A10.475,10.475,0,0,0,121.544,79.5Z"/><path class="cls-38" d="M117.967,76.955a4.532,4.532,0,0,0-.634,1.8,22.485,22.485,0,0,0,.168,2.582,2.674,2.674,0,0,0,1.42-.119,1.689,1.689,0,0,0,.936-1.1c.218-.552.8-.642.174-1.311S118.711,77.008,117.967,76.955Z"/><path class="cls-22" d="M117.707,76.862s-.034-.08-.388-.01-1.383.36-1.454,2.025a5.644,5.644,0,0,0,.707,2.929s1.267-.6,1.315-.634a2.677,2.677,0,0,1-.453-1.8,8.874,8.874,0,0,1,.605-1.969c.111-.147.38-.474.38-.474Z"/><path class="cls-41" d="M119.953,77.942s-.028.037-.078.1a18.288,18.288,0,0,1-1.414,1.62c-.478.428-3.1,3.1-3.1,3.1s-.973.807-.692,1.206a6.651,6.651,0,0,0,1.082,1l4.825-6.568-.619-.378"/><path class="cls-41" d="M108.649,82.365a5.531,5.531,0,0,1,4.726-.429,8.131,8.131,0,0,1,4.429,3.276c.88,1.421.636,4.626.609,4.934s-.132.89-.2.374-.644-1.96-.747-2.347a14.7,14.7,0,0,0-2.139-3.569,10.9,10.9,0,0,0-3.014-1.633,19.048,19.048,0,0,0-3.611-.542Z"/><polygon class="cls-41" points="130.99 85.187 136.431 88.495 135.986 88.954 130.019 86.702 130.99 85.187"/><path class="cls-41" d="M134.5,83.969l2.247,4.327.469.009-.944-4.638a1.708,1.708,0,0,0-.956-.179A3.989,3.989,0,0,0,134.5,83.969Z"/><path class="cls-42" d="M130.4,83.063a1.507,1.507,0,0,1,1.4-1.249,29.384,29.384,0,0,1,3.957-.077,3.85,3.85,0,0,0,2.129-.179c.738-.318,1.214-.357,1.211-.567s-1.034-.729-2.259-.565a5.574,5.574,0,0,1-2.3,0,6.284,6.284,0,0,0-2.421.15c-.176.116-2.666-.072-3.134,0s-6.575.325-6.405.872.755,1.444,1.419,1.547a21.526,21.526,0,0,0,2.672.411A22.9,22.9,0,0,0,130.4,83.063Z"/><path class="cls-42" d="M130.04,84.684s.218.5.662-.075.6-1.608,1.7-1.8,3.1-.048,3.971-.207a4.215,4.215,0,0,0,2.04-.726c.382-.377.955-.935.456-.831a11.511,11.511,0,0,1-2.786.593c-.969-.034-3.36.021-4.167.048-1.092.036-1.917,1.386-2,1.565A7.438,7.438,0,0,0,130.04,84.684Z"/><polygon class="cls-38" points="119.112 81.112 120.378 89.792 120.863 89.785 119.793 80.258 119.112 81.112"/><polygon class="cls-34" points="127.475 89.069 126.946 90.37 123.037 90.43 122.71 88.044 127.395 88.069 127.475 89.069"/><path class="cls-43" d="M124.064,89.994a3.794,3.794,0,0,1-.049.97,2.3,2.3,0,0,1-.559.64s-.429.247-.56.153a4.124,4.124,0,0,0-.747-.247l-.006-.42A4.544,4.544,0,0,0,121,90.558a3.86,3.86,0,0,1-1.268-.5c-.294-.189-1-.572-.566-1.122a1.037,1.037,0,0,1,1.259-.251c.455.186,1.6.65,1.6.65l1.6-.242Z"/><path class="cls-44" d="M129.005,85.645a.106.106,0,0,1-.1.107l-1.874.029a.1.1,0,0,1-.106-.1h0a.1.1,0,0,1,.1-.106l1.873-.029a.105.105,0,0,1,.107.1Z"/><path class="cls-44" d="M128.767,85.955a.121.121,0,0,1-.119.123l-2,.031a.121.121,0,0,1-.123-.119h0a.122.122,0,0,1,.12-.123l2-.031a.121.121,0,0,1,.122.119Z"/><path class="cls-44" d="M128.714,86.482a.137.137,0,0,1-.136.139l-1.97.03a.137.137,0,0,1-.139-.135h0a.136.136,0,0,1,.135-.139l1.97-.03a.137.137,0,0,1,.14.135Z"/><path class="cls-44" d="M128.4,86.9a.107.107,0,0,1-.1.107l-1.873.029a.105.105,0,0,1-.107-.1h0a.1.1,0,0,1,.1-.106l1.874-.029a.106.106,0,0,1,.107.1Z"/><path class="cls-44" d="M128.286,87.231a.1.1,0,0,1-.095.1l-1.922.029a.1.1,0,0,1-.1-.095h0a.1.1,0,0,1,.095-.1l1.922-.029a.1.1,0,0,1,.1.095Z"/><path class="cls-44" d="M128.058,87.571a.106.106,0,0,1-.1.107l-1.76.027a.106.106,0,0,1-.107-.1h0a.1.1,0,0,1,.1-.106l1.76-.027a.105.105,0,0,1,.107.1Z"/><path class="cls-45" d="M138.09,89.2a1.038,1.038,0,1,1-1.051-1.122A1.089,1.089,0,0,1,138.09,89.2Z"/><path class="cls-46" d="M126.905,79.754s-.928.143-1.347.246-2.942-.1-3.025.778-.786,5.6-.745,6.15.756.828.146,1.128-.621,1.625-.361,1.685,1.653.33,2.107.485.946.567.869-.239-.218-3.648-.228-4.294-.362-2.514.024-2.65a14.6,14.6,0,0,1,2.58-.3c.936-.047,3.005.051,3.74-.51s.085-2.877.085-2.877l-3.615.25Z"/><path class="cls-47" d="M128.559,71.428a4.265,4.265,0,0,1,1.061.679,9.241,9.241,0,0,1,1.654,3.56c.03.856.011,2.827.018,3.263a1.43,1.43,0,0,1-.293.909,7.962,7.962,0,0,1-1.469.039c-.566.009-2.394-.173-2.538-.106a.931.931,0,0,0-.286.327,3.957,3.957,0,0,0,.22-1.441,7.591,7.591,0,0,0-.126-1.888c-.135-.418-.848-1.586-.563-1.994s.509-.476.519-.864-.172-.66-.061-.807a5.424,5.424,0,0,0,.326-.877A5,5,0,0,1,128.559,71.428Z"/><path class="cls-48" d="M121.4,75.141l0,.066-.057,1.26s.436.009.517.008a1.907,1.907,0,0,1,.307.06l.206-1.3s-.017-.112-.211-.126S121.4,75.141,121.4,75.141Z"/><path class="cls-49" d="M128.53,75.839s-.6,2.982-.643,3.338a2.006,2.006,0,0,1-.152.583l2.1.155a7.171,7.171,0,0,1-.209-1.928c.05-.954-.035-3.328-.035-3.328Z"/><path class="cls-50" d="M121.393,75.207a2.671,2.671,0,0,0-.339-.222c-.13-.063-.231-.3-.376-.3a1.364,1.364,0,0,0-.611.155,1.874,1.874,0,0,0-.345.667c-.031.13.115.16.215.352s.362.463.426.365a.213.213,0,0,0-.021-.274,2.1,2.1,0,0,1-.213-.223l.043-.324.208-.132s.277.109.439.187.232.368.088.435a2.4,2.4,0,0,0-.368.248s-.545.234-.543.364.083.176.291.043a.969.969,0,0,1,.546-.169,1.232,1.232,0,0,0,.483-.153c.1-.05.079-.286.079-.286Z"/><path class="cls-47" d="M122.234,75s-.176,1.15-.171,1.521-.169.552.3.545,1.632.039,1.891.068a10.909,10.909,0,0,1,1.132.095c.712.1,1.331.4,1.618.2a14.809,14.809,0,0,0,2.235-1.747,4.234,4.234,0,0,0,.586-1.8c.024-.549-.3-1.724-.866-1.682s-1.464.378-1.555.751a6.588,6.588,0,0,1-.675,1.319c-.126.195-.707.221-.623.445s.037.29-.027.291-.2-.174-.2-.11-.275-.011-.339.022.08-.034-.241.068.018.113-.776-.02-.5.169-1.081.081S122.21,74.531,122.234,75Z"/><path class="cls-49" d="M127.277,72.046s.227.061.47.154.359.237.329.318a2.556,2.556,0,0,0-.187.472c-.061.243-.267.488-.2.6s-.158.2-.2.359-.011.388-.186.52-.388-.011-.385.151.054.371-.092.373-.067-.193-.226.02-.238.23-.576.315-.567-.088-.679-.038-.367.329-.479.363-.63-.006-1,0-1.666-.185-1.666-.185l-.13,1.052a7.644,7.644,0,0,0,2.248.143,7.533,7.533,0,0,1,1.869-.287,3.409,3.409,0,0,0,.577-.332c.32-.183.3-.118.543-.364s.194-.019.672-.43a2.083,2.083,0,0,0,.82-1.289,6.439,6.439,0,0,0,.157-1.343.878.878,0,0,0-.089-.532c-.068-.241-.605-.468-.605-.468Z"/><path class="cls-50" d="M125.228,69.429a2.158,2.158,0,0,1-.022.695c-.078.162-.456.815-.5.864s-.125.26.085.257a3.4,3.4,0,0,0,.355-.022s-.063.066.019.194a.221.221,0,0,0,.244.077s-.255.214-.158.244a1.152,1.152,0,0,0,.275.029,1.127,1.127,0,0,0,.021.306c.034.129.087.419.407.188s.429-.443.558-.429.488.654.478.607c-.041-.206.831-.819.831-.819s.418-.978.417-1.074-.7-2.187-.7-2.251a8.237,8.237,0,0,0-2.367.5c0,.177.027.694.027.694"/><path class="cls-51" d="M124.382,69.605a2.127,2.127,0,0,1,.442-1.51,3.013,3.013,0,0,1,2.536-1.129,1.849,1.849,0,0,1,1.931,1.048,2.673,2.673,0,0,1,.23,1.113,1.612,1.612,0,0,1-.089.241c-.025.093.084.291.072.4s-.126.44-.151.534-.235.3-.273.4a1.035,1.035,0,0,0,.006.359s-.725.477-.948.639a4.488,4.488,0,0,1-1.161.617,5.088,5.088,0,0,1-1.643.371c-.162-.1-.221-.515-.279-.807s-.115-.61-.115-.61a2.492,2.492,0,0,0,1.018-.321c.237-.23.393-.392.551-.554s.615-.621.109-.68-1.531-.136-1.718-.133S124.382,69.605,124.382,69.605Z"/><path class="cls-52" d="M129.28,69.024a8.36,8.36,0,0,0-.658,1.313,1.425,1.425,0,0,1-.494.753,7.18,7.18,0,0,1-1.027.627c-.211.11.1-.24.308-.709a9.4,9.4,0,0,0,.423-1c.05-.2.144-.215-.031-.319a4.734,4.734,0,0,0-.789-.267c-.174-.05-1.161-.274-1.161-.274s1.439.2,1.905.2.534.125.862-.093.659-.409.751-.49S129.28,69.024,129.28,69.024Z"/><path class="cls-53" d="M125.3,69.821a3.739,3.739,0,0,0,.534.045c.1-.017.056.129-.065.207s-.417.143-.425.1S125.3,69.821,125.3,69.821Z"/><path class="cls-54" d="M125.589,70.037a.151.151,0,1,1-.148-.19C125.521,69.845,125.587,69.93,125.589,70.037Z"/><path class="cls-55" d="M124.407,68.8s-.425,1.749-.5,2.322-.368,1.149,0,1.143a11.259,11.259,0,0,0,1.353-.286c.344-.059.343-.165.774-.651s.952-1.185,1.1-1.36.023-.266-.405-.393-1.865-.223-2.013-.314A1.4,1.4,0,0,1,124.407,68.8Z"/><path class="cls-56" d="M123.7,78.958c0,.13-.611.244-1.369.256s-1.374-.084-1.376-.213.611-.244,1.369-.256S123.7,78.829,123.7,78.958Z"/><path class="cls-57" d="M121.724,78.536l.088.443a1.3,1.3,0,0,0,.582.107,1.578,1.578,0,0,0,.549-.125l.041-.444"/><path class="cls-58" d="M122.984,78.517a2.774,2.774,0,0,1-1.26.019,1.431,1.431,0,0,1,.629-.082A1.4,1.4,0,0,1,122.984,78.517Z"/><path class="cls-41" d="M129.879,86.786s1.659-3.434,4.06-3.842,3.48-.571,4.943.021a7.9,7.9,0,0,1,3.28,2.146,6.411,6.411,0,0,1,.943,1.471l-.484-.008a4.916,4.916,0,0,0-1.264-1.289c-.9-.665-3.227-1.873-4.918-1.491s-3.474.958-4.179,2.407S129.879,86.786,129.879,86.786Z"/></svg>