<svg id="word" xmlns="http://www.w3.org/2000/svg" viewBox="0 0 160 160"><defs><style>.cls-1{fill:#f9b17b;}.cls-1,.cls-10,.cls-2,.cls-3,.cls-4,.cls-6,.cls-7,.cls-8{stroke:#9d4b9c;}.cls-1,.cls-10,.cls-2,.cls-3,.cls-4,.cls-6,.cls-7,.cls-8,.cls-9{stroke-miterlimit:10;}.cls-2{fill:#d2b772;}.cls-3,.cls-5{fill:#fff;}.cls-4{fill:#8ad6f7;}.cls-6{fill:#5e74b7;}.cls-7,.cls-9{fill:none;}.cls-8{fill:#fff100;}.cls-9{stroke:#fff;}.cls-10{fill:#ffdd87;}</style></defs><path class="cls-1" d="M34.81,59.809s33.242-34.04,43.347-35.1,35.1,25.8,37.5,27.125,14.36,13.828,14.36,13.828L32.949,70.712S29.492,61.936,34.81,59.809Z"/><polygon class="cls-2" points="31.353 63.798 130.014 64.595 123.366 99.698 47.841 98.103 31.353 63.798"/><polygon class="cls-3" points="38.799 58.479 41.459 23.908 111.931 39.864 113.792 89.593 79.487 107.942 37.736 92.518 38.799 58.479"/><path class="cls-4" d="M41.459,23.908,101.825,53.16s-2.393,68.345-3.191,68.079S39.6,103.422,39.6,103.422L38,71.51Z"/><path class="cls-5" d="M93.481,55.124a2.756,2.756,0,0,1-.009-1,1.154,1.154,0,0,1,.569-.793,1.213,1.213,0,0,1,1.485.6,3.517,3.517,0,0,1,.319,1.716,2.82,2.82,0,0,1,.376-1.622,1.318,1.318,0,0,1,1.457-.583,1.334,1.334,0,0,1,.793,1.23,3.163,3.163,0,0,1-.409,1.483c-.346.7-1.82,3.487-2.747,3.192-.48-.153-.989-1.508-1.175-1.935A9.161,9.161,0,0,1,93.481,55.124Z"/><path class="cls-6" d="M82.223,54.236c1.131-1.727,2.772-3.392,4.834-3.484a4.3,4.3,0,0,1,4.75,3.178c1.126,3.513-.274,9-1.15,11.481-1.544,4.378-4.273,7.181-7.749,2.549A11.876,11.876,0,0,1,82.223,54.236Z"/><path class="cls-6" d="M83.714,74.344a14.042,14.042,0,0,1,4.681.422,12.352,12.352,0,0,0-.543-2.378,3.733,3.733,0,0,0-1.718-1.854C84.3,69.946,83.728,73.075,83.714,74.344Z"/><path class="cls-7" d="M82.886,86.989a3.325,3.325,0,0,1,.539-3.2,6.331,6.331,0,0,1,2.1-1.474A7.315,7.315,0,0,0,87.663,80.9a2.364,2.364,0,0,0,.612-2.37,3.355,3.355,0,0,0-1.136-1.307,3.836,3.836,0,0,1-1.184-1.27,1.258,1.258,0,0,1,.313-1.573"/><path class="cls-5" d="M96.233,63.338a2.07,2.07,0,0,1,.3-.7.874.874,0,0,1,.637-.379.921.921,0,0,1,.85.869,2.672,2.672,0,0,1-.3,1.291,2.141,2.141,0,0,1,.756-1.013,1,1,0,0,1,1.191.039,1.014,1.014,0,0,1,.177,1.1,2.408,2.408,0,0,1-.737.906c-.456.385-2.33,1.871-2.884,1.383-.288-.253-.228-1.35-.227-1.7A6.975,6.975,0,0,1,96.233,63.338Z"/><path class="cls-8" d="M42.953,37.369c.417-1.707,1.26-3.509,2.888-4.17a3.659,3.659,0,0,1,4.715,1.2c1.9,2.5,2.338,7.3,2.341,9.539.006,3.952-1.386,6.977-5.492,4.248A10.108,10.108,0,0,1,42.953,37.369Z"/><path class="cls-8" d="M49.867,53.078a11.964,11.964,0,0,1,3.875-.992,10.518,10.518,0,0,0-1.111-1.754,3.183,3.183,0,0,0-1.906-1C49.088,49.383,49.517,52.056,49.867,53.078Z"/><path class="cls-7" d="M51.856,52.471c.835,1.482-.131,3.413-1.517,4.4s-3.1,1.367-4.631,2.114-2.988,2.12-2.95,3.821a4.585,4.585,0,0,0,1.981,3.263,27.734,27.734,0,0,1,3.111,2.416,6.2,6.2,0,0,1,1.156,6.525"/><path class="cls-5" d="M52.793,35.08a2.734,2.734,0,0,1-.008-1,1.148,1.148,0,0,1,.569-.794,1.213,1.213,0,0,1,1.485.6,3.54,3.54,0,0,1,.319,1.716,2.808,2.808,0,0,1,.375-1.621,1.32,1.32,0,0,1,1.458-.584,1.338,1.338,0,0,1,.793,1.23,3.187,3.187,0,0,1-.409,1.483c-.346.705-1.821,3.487-2.747,3.192-.481-.153-.989-1.507-1.175-1.935A9.168,9.168,0,0,1,52.793,35.08Z"/><path class="cls-5" d="M43.6,52.538a2.059,2.059,0,0,1-.458-.609.872.872,0,0,1-.009-.742.921.921,0,0,1,1.177-.3,2.68,2.68,0,0,1,.968.906,2.139,2.139,0,0,1-.5-1.161,1,1,0,0,1,.628-1.013,1.014,1.014,0,0,1,1.039.394,2.414,2.414,0,0,1,.418,1.091c.106.587.458,2.952-.241,3.189-.362.123-1.283-.476-1.59-.653A6.949,6.949,0,0,1,43.6,52.538Z"/><path class="cls-5" d="M62.32,68.226a2.734,2.734,0,0,1-.008-1,1.148,1.148,0,0,1,.569-.794,1.214,1.214,0,0,1,1.485.6,3.54,3.54,0,0,1,.319,1.716,2.808,2.808,0,0,1,.375-1.621,1.321,1.321,0,0,1,1.458-.584,1.338,1.338,0,0,1,.793,1.23,3.187,3.187,0,0,1-.409,1.483c-.346.7-1.821,3.487-2.747,3.193-.481-.154-.989-1.508-1.175-1.936A9.168,9.168,0,0,1,62.32,68.226Z"/><path class="cls-5" d="M68.835,74.053a2.077,2.077,0,0,1,.3-.7.874.874,0,0,1,.638-.379.922.922,0,0,1,.85.87,2.683,2.683,0,0,1-.3,1.29,2.141,2.141,0,0,1,.756-1.013,1,1,0,0,1,1.192.039,1.016,1.016,0,0,1,.176,1.1,2.407,2.407,0,0,1-.736.906c-.456.385-2.33,1.871-2.884,1.383-.288-.253-.229-1.35-.228-1.7A6.976,6.976,0,0,1,68.835,74.053Z"/><path class="cls-5" d="M54.562,69.786a2.734,2.734,0,0,1-.009-1,1.154,1.154,0,0,1,.569-.793,1.213,1.213,0,0,1,1.485.6,3.515,3.515,0,0,1,.319,1.716,2.82,2.82,0,0,1,.376-1.622,1.318,1.318,0,0,1,1.457-.583,1.336,1.336,0,0,1,.793,1.23,3.166,3.166,0,0,1-.409,1.483C58.8,71.516,57.322,74.3,56.4,74c-.48-.153-.989-1.508-1.175-1.935A9.161,9.161,0,0,1,54.562,69.786Z"/><path class="cls-9" d="M54.393,78.116a3.73,3.73,0,0,1,1.736-6.884c2.532-.164,4.651,2.2,7.188,2.239,1.733.025,3.262-1.036,4.84-1.754s3.673-1.013,4.853.257.782,3.408,1.768,4.838a4.7,4.7,0,0,0,3.376,1.68A22.094,22.094,0,0,1,82,79a5.674,5.674,0,0,1,3.584,7.477"/><polygon class="cls-10" points="66.19 85.338 31.353 63.798 30.556 125.494 84.54 93.848 66.19 85.338"/><polygon class="cls-10" points="126.557 65.659 80.551 94.38 129.216 126.026 130.014 64.33 126.557 65.659"/><path class="cls-10" d="M56.883,126.292l72.333-.266S97.57,88.529,83.742,86.4s-53.984,37.5-53.186,39.092S56.883,126.292,56.883,126.292Z"/></svg>