<svg id="word" xmlns="http://www.w3.org/2000/svg" viewBox="0 0 160 160"><defs><style>.cls-1{fill:#a6a044;}.cls-2{fill:#7a875c;stroke:#60663b;}.cls-10,.cls-14,.cls-15,.cls-16,.cls-17,.cls-18,.cls-19,.cls-2,.cls-20,.cls-3,.cls-5,.cls-6,.cls-7,.cls-9{stroke-width:0.5px;}.cls-3{fill:#bed757;stroke:#2f6c4e;}.cls-4{fill:#9e9c8b;}.cls-5{fill:#f3dcae;}.cls-10,.cls-14,.cls-22,.cls-24,.cls-25,.cls-26,.cls-27,.cls-28,.cls-29,.cls-31,.cls-32,.cls-33,.cls-34,.cls-35,.cls-36,.cls-37,.cls-38,.cls-39,.cls-40,.cls-41,.cls-42,.cls-43,.cls-44,.cls-5,.cls-6,.cls-7,.cls-9{stroke:#9d4b9c;}.cls-10,.cls-14,.cls-22,.cls-29,.cls-36,.cls-37,.cls-38,.cls-39,.cls-40,.cls-41,.cls-42,.cls-43,.cls-44,.cls-5{stroke-miterlimit:10;}.cls-6{fill:#a4c0cf;}.cls-7{fill:#ca9977;}.cls-8{fill:#5685ad;opacity:0.25;}.cls-17,.cls-22,.cls-28,.cls-35,.cls-44,.cls-9{fill:none;}.cls-10{fill:#eb9265;}.cls-11{fill:#f05a22;}.cls-12{fill:#ffc906;}.cls-13{fill:#c8cacb;}.cls-14{fill:#eae2a2;}.cls-15{fill:#d06c59;}.cls-15,.cls-16,.cls-17,.cls-18,.cls-19,.cls-20{stroke:#973693;}.cls-16{fill:#c4e1ef;}.cls-18{fill:#9b5b3a;}.cls-19{fill:#884c31;}.cls-20{fill:#6c2f1f;}.cls-21,.cls-29,.cls-34{fill:#fff;}.cls-23{fill:#808072;}.cls-24{fill:#dfd7ea;}.cls-24,.cls-25,.cls-26,.cls-27,.cls-28,.cls-29,.cls-31,.cls-32,.cls-33,.cls-34,.cls-35,.cls-36,.cls-37,.cls-38,.cls-39,.cls-40,.cls-41,.cls-42,.cls-43,.cls-44{stroke-width:0.283px;}.cls-25{fill:#fde2d4;}.cls-26{fill:#ee5ba0;}.cls-27{fill:#c3996b;}.cls-28,.cls-41,.cls-44{stroke-linecap:round;}.cls-30{fill:#9d4b9c;}.cls-31{fill:#8bc53f;}.cls-32{fill:#009345;}.cls-33{fill:#454e69;}.cls-36,.cls-41{fill:#fcdacb;}.cls-37{fill:#7a6b65;}.cls-38{fill:#76aadb;}.cls-39{fill:#f1ba36;}.cls-40{fill:#ffe260;}.cls-42{fill:#5a4a42;}.cls-43{fill:#fff100;}</style></defs><path class="cls-1" d="M105.768,80.881c-.45-1.086-16.22,1.086-7.659,4.344s44.221,4.981,50.078.637S105.768,80.881,105.768,80.881Z"/><path class="cls-2" d="M139.261,83.333s-7.209-3.077-7.547-6.879-.676-5.521.789-3.892,2.478,1.539,2.253-.814-3.492-9.413-.113-8.237,3.717,1.177,3.267-.271-3.267-11.133-1.69-10.047,2.929,2.987,2.591,1.177,1.351-17.559,5.181-17.378,1.127,16.292,2.366,15.3,2.929-4.073,3.379-1-2.253,4.345,0,4.345,1.464,1.267.451,2.444-3.042,3.62-1.577,3.711,2.253-1.268,2.478.362-4.281,7.693-3.492,8.236,2.591-1.629,2.7.272-1.689,5.7-1.689,5.7,3.041-1.358,2.14.814-5.407,6.065-7.547,6.246A18.861,18.861,0,0,1,139.261,83.333Z"/><path class="cls-3" d="M105.656,73.776s-.028-.055-.069-.148c-.215-.487-.8-2.03.238-2.3a4.493,4.493,0,0,1,1.689-.226s-1.182-1.72-.338-1.811a1.181,1.181,0,0,1,1.183.634s-2.365-3.847.789-3.439,2.59,1.629,2.59,1.629.62-1.539,1.69-.724,1.07,1.357,1.07,1.538-.563-2.806,1.915-2.127,2.422,1.177,2.422,1.177,1.915-3.485,3.154-2.218a2.8,2.8,0,0,1,.62,2.852,1.312,1.312,0,0,1,1.915-.363c1.239.77-.226,2.49-.564,2.49s2.7,1.493,1.408,2.353a6.256,6.256,0,0,1-3.041.86s2.647-.227,1.464,1.674a6.136,6.136,0,0,1-2.309,2.4L105.6,77.351S103.065,75.179,105.656,73.776Z"/><path class="cls-3" d="M123.735,69.431s.732-3.168,3.1-2.308,1.746,2.037,1.746,2.037-.057-1.992,1.577-1.222,1.013,1.4,1.013,1.4.282-2.535,1.746-1.9.845,2.353.845,2.353,1.521-1.357,2.309-.588a1.472,1.472,0,0,1,.4,1.629s2.309-1.539,2.872-.226-1.915,1.81-1.915,1.81,3.154.272,2.816,2.217-2.759,1.132-2.759,1.132,2.7,1.448,1.689,2.534-3.886,0-3.886,0,3.548,2.489,1.577,2.987-4.956-.5-5.013-.86-12.9-.452-12.9-.452-5.182-7.105-1.183-7.739,3.886-.091,3.886-.091-1.859-1.4-.563-2.172A4.292,4.292,0,0,1,123.735,69.431Z"/><path class="cls-3" d="M105.205,84.365s-1.408.046-1.408-.588a1.546,1.546,0,0,1,.169-.86s-2.816.227-2.534-.543A3.624,3.624,0,0,1,102,81.288s-2.535.091-2.2-1.086a1.028,1.028,0,0,1,1.352-.815s-2.76-2.443-1.183-3.349S102,75.993,102,75.993s-1.239-3.53,1.126-3.439,2.873,1,2.873,1,.732-2.127,1.858-1.312.282,2.489.282,2.489l2.7-.407s.169-3.213,1.972-2.218a1.74,1.74,0,0,1,.957,2.444s2.985-1.267,4.112.136a1.386,1.386,0,0,1-.507,2.217s2.7-1.086,2.928.227-2.309,2.036-2.309,2.036,2.873-.09,2.591,1.946-4.28,1.539-4.28,1.539,1.239,2.987-.507,3.3-3.83-1.357-3.83-1.357-.9,1.81-2.366.905a3.094,3.094,0,0,1-1.577-2.127S105.43,86.854,105.205,84.365Z"/><path class="cls-3" d="M119.173,86.9s-1.971.452-1.971-.5a2.3,2.3,0,0,1,.732-1.584s-4.506-1.222-3.436-2.58a2.472,2.472,0,0,1,2.253-1.131,1.607,1.607,0,0,1,.282-2.761,3.124,3.124,0,0,1,3.6.227s.057-2.535.732-2.67,1.183-.86,1.8-.362a7.633,7.633,0,0,1,1.3,1.629s-.112-2.987.676-2.761,1.408,2.4,1.408,2.4-.113-2.806,1.69-2.037a2.992,2.992,0,0,1,1.8,2.625s-.225-5.25,2.422-2.987.338,3.892.169,3.892,3.548-1.041,2.591.724l-.958,1.765s1.8-1,1.859.77-2.2,2.036-2.2,2.036,2.7,1.9-.056,1.539a9.952,9.952,0,0,1-3.379-.77,12.294,12.294,0,0,1-3.549,1.222c-1.126,0-.45,1.222-2.478.724S119.567,89.117,119.173,86.9Z"/><rect class="cls-4" x="9.947" y="85.542" width="141.361" height="5.276"/><path class="cls-5" d="M54.1,58.494a113.627,113.627,0,0,1,31.524-4.277c22.178.317,31.683,3.96,31.683,3.96v5.862H54.255Z"/><rect class="cls-6" x="96.113" y="69.533" width="27.089" height="16.655"/><rect class="cls-7" x="94.332" y="68.158" width="30.326" height="2.176"/><polygon class="cls-8" points="95.854 79.106 123.163 72.326 123.154 70.406 95.854 70.491 95.854 79.106"/><line class="cls-9" x1="105.16" y1="70.39" x2="105.16" y2="85.673"/><rect class="cls-7" x="103.934" y="77.602" width="0.566" height="2.634"/><rect class="cls-7" x="105.858" y="77.545" width="0.566" height="2.633"/><rect class="cls-7" x="113.247" y="77.174" width="0.569" height="2.632"/><rect class="cls-7" x="115.172" y="77.115" width="0.567" height="2.634"/><line class="cls-9" x1="114.565" y1="70.334" x2="114.565" y2="85.728"/><path class="cls-10" d="M52.829,57.385l-.158,2.852s20.6-5.587,33.108-4.911c20.515,1.109,32.158,4.752,32.158,4.752l-.317-3.326S96.865,53.12,86.571,53.425C65.186,54.059,52.829,57.385,52.829,57.385Z"/><rect class="cls-11" x="69.819" y="57.861" width="28.633" height="4.99"/><path class="cls-12" d="M76.32,60a.887.887,0,0,1-.444.819,2.1,2.1,0,0,1-1.09.265c-.078,0-.134,0-.168-.005,0,.291.01.674.028,1.151h-.7q.033-.671.033-1.58,0-.836-.033-1.441h.435c.062,0,.181,0,.356-.007s.326-.007.455-.007a1.516,1.516,0,0,1,.8.2A.663.663,0,0,1,76.32,60Zm-.646.127q0-.5-.71-.5a2.1,2.1,0,0,0-.376.035q.029.438.028.993c.041,0,.09.005.145.005Q75.675,60.665,75.674,60.128Z"/><path class="cls-12" d="M80.04,62.231h-.8a4.6,4.6,0,0,0-.228-.868H77.855a4.266,4.266,0,0,0-.235.868h-.753a15.579,15.579,0,0,1,.584-1.485,11.1,11.1,0,0,0,.585-1.536h.945a12.126,12.126,0,0,0,.529,1.514A12.607,12.607,0,0,1,80.04,62.231Zm-.9-3.762-.03.4H77.85l.028-.4Zm-.257,2.451a12.154,12.154,0,0,1-.428-1.3h-.04a13.079,13.079,0,0,1-.443,1.3Z"/><path class="cls-12" d="M83.577,62.231h-.741a4.367,4.367,0,0,0-.445-1.014.6.6,0,0,0-.5-.193c-.1,0-.189,0-.277,0q0,.6.022,1.2h-.7q.031-.7.032-1.58,0-.846-.032-1.441h.433c.05,0,.154,0,.314-.007s.306-.007.441-.007q1.149,0,1.149.728a.827.827,0,0,1-.656.8v.035a.774.774,0,0,1,.443.366A7.8,7.8,0,0,1,83.577,62.231ZM82.639,60.1q0-.462-.641-.462a2.319,2.319,0,0,0-.415.033c.018.239.027.552.027.937.092,0,.17.005.233.005Q82.638,60.609,82.639,60.1Z"/><path class="cls-12" d="M86.783,59.21l-.017.5q-.5-.034-.943-.034,0,.438,0,.977,0,.835.027,1.58h-.7q.033-.738.032-1.58,0-.53-.01-.977-.352,0-.968.037l.02-.5Z"/><path class="cls-12" d="M88.419,62.231h-.708q.033-.72.033-1.58t-.033-1.441h.708q-.032.583-.032,1.441Q88.387,61.526,88.419,62.231Z"/><path class="cls-12" d="M92.284,62.231h-.818a2.9,2.9,0,0,0-.423-.736q-.45-.67-.638-.67H90.33q0,.528.028,1.406h-.7q.032-.7.032-1.58,0-.846-.032-1.441h.7q-.029.642-.028,1.206h.055q.111,0,.556-.571a2.694,2.694,0,0,0,.432-.635h.746a2.356,2.356,0,0,1-.458.577,4.491,4.491,0,0,1-.69.659v.035a3.11,3.11,0,0,1,.8.917A3.97,3.97,0,0,1,92.284,62.231Z"/><path class="cls-12" d="M96.024,62.231h-.8A4.6,4.6,0,0,0,95,61.363H93.84a4.2,4.2,0,0,0-.235.868h-.753a15.579,15.579,0,0,1,.584-1.485,11.168,11.168,0,0,0,.584-1.536h.946a12.126,12.126,0,0,0,.529,1.514A12.48,12.48,0,0,1,96.024,62.231ZM94.868,60.92a12.44,12.44,0,0,1-.428-1.3H94.4a12.888,12.888,0,0,1-.442,1.3Z"/><rect class="cls-6" x="45.101" y="67.632" width="22.786" height="16.655"/><polygon class="cls-8" points="44.883 77.206 67.855 70.426 67.847 68.505 44.883 68.59 44.883 77.206"/><line class="cls-9" x1="52.711" y1="68.489" x2="52.711" y2="83.772"/><line class="cls-9" x1="60.622" y1="68.433" x2="60.622" y2="83.827"/><rect class="cls-6" x="70.713" y="67.632" width="22.786" height="16.655"/><polygon class="cls-8" points="70.495 77.206 93.467 70.426 93.459 68.505 70.495 68.59 70.495 77.206"/><line class="cls-9" x1="78.323" y1="68.489" x2="78.323" y2="83.772"/><line class="cls-9" x1="86.234" y1="68.433" x2="86.234" y2="83.827"/><rect class="cls-13" x="9.947" y="90.499" width="141.361" height="18.387"/><polygon class="cls-14" points="10.405 44.928 10.405 86.286 43.204 86.286 43.204 42.646 27.612 31.051 10.405 44.928"/><polygon class="cls-15" points="10.113 45.237 13.571 31.245 42.39 31.245 44.628 44.628 27.54 32.113 10.113 45.237"/><path class="cls-16" d="M25.031,44.193h5.018l-.2-4.258s-.815-3.158-2.238-3.215c-2.17-.088-2.645,3.389-2.645,3.389Z"/><path class="cls-15" d="M9.435,45.584s-1.289,1.564.407,1.738,17.7-15.209,17.7-15.209L44.764,46.192s1.288-.608.949-1.564-6.781-5.388-6.781-5.388L28.489,30.81s-.542-1.3-1.22-.956A35.224,35.224,0,0,0,23.878,32.9Z"/><line class="cls-17" x1="27.449" y1="36.777" x2="27.449" y2="44.309"/><line class="cls-17" x1="24.963" y1="40.486" x2="29.891" y2="40.486"/><rect class="cls-18" x="24.602" y="44.136" width="5.832" height="0.811"/><rect class="cls-16" x="14.792" y="48.539" width="5.244" height="7.676"/><line class="cls-17" x1="16.758" y1="48.582" x2="16.758" y2="56.273"/><rect class="cls-18" x="14.43" y="56.041" width="5.832" height="0.811"/><rect class="cls-16" x="24.402" y="48.539" width="5.244" height="7.676"/><line class="cls-17" x1="26.369" y1="48.582" x2="26.369" y2="56.273"/><rect class="cls-18" x="24.041" y="56.041" width="5.832" height="0.811"/><rect class="cls-16" x="34.013" y="48.539" width="5.244" height="7.676"/><line class="cls-17" x1="35.98" y1="48.582" x2="35.98" y2="56.273"/><rect class="cls-18" x="33.652" y="56.041" width="5.831" height="0.811"/><rect class="cls-16" x="14.792" y="69.079" width="5.244" height="7.677"/><line class="cls-17" x1="16.758" y1="69.121" x2="16.758" y2="76.812"/><rect class="cls-18" x="14.43" y="76.581" width="5.832" height="0.811"/><rect class="cls-16" x="24.538" y="68.731" width="5.244" height="3.679"/><line class="cls-17" x1="26.504" y1="68.774" x2="26.504" y2="72.467"/><rect class="cls-18" x="24.176" y="72.236" width="5.832" height="0.81"/><rect class="cls-16" x="34.013" y="69.079" width="5.244" height="7.677"/><line class="cls-17" x1="35.98" y1="69.121" x2="35.98" y2="76.812"/><rect class="cls-18" x="33.652" y="76.581" width="5.831" height="0.811"/><rect class="cls-18" x="23.675" y="74.252" width="6.849" height="11.905"/><rect class="cls-19" x="24.692" y="75.584" width="4.882" height="3.36"/><rect class="cls-19" x="24.692" y="81.161" width="4.882" height="3.245"/><path class="cls-20" d="M24.963,80.118a.454.454,0,1,1-.441-.565A.514.514,0,0,1,24.963,80.118Z"/><rect class="cls-19" x="23.132" y="85.723" width="7.776" height="1.043"/><rect class="cls-16" x="14.887" y="58.901" width="5.244" height="7.676"/><line class="cls-17" x1="16.853" y1="58.944" x2="16.853" y2="66.636"/><rect class="cls-18" x="14.525" y="66.404" width="5.832" height="0.811"/><rect class="cls-16" x="24.497" y="58.901" width="5.244" height="7.676"/><line class="cls-17" x1="26.464" y1="58.944" x2="26.464" y2="66.636"/><rect class="cls-18" x="24.136" y="66.404" width="5.832" height="0.811"/><rect class="cls-16" x="34.108" y="58.901" width="5.244" height="7.676"/><line class="cls-17" x1="36.075" y1="58.944" x2="36.075" y2="66.636"/><rect class="cls-18" x="33.747" y="66.404" width="5.831" height="0.811"/><rect class="cls-21" x="10.689" y="98.013" width="19.905" height="1.559"/><rect class="cls-21" x="40.243" y="98.013" width="19.905" height="1.559"/><rect class="cls-21" x="69.797" y="98.013" width="19.905" height="1.559"/><rect class="cls-21" x="99.35" y="98.013" width="19.905" height="1.559"/><rect class="cls-21" x="128.904" y="98.013" width="19.905" height="1.559"/><rect class="cls-4" x="9.947" y="107.932" width="141.361" height="14.139"/><line class="cls-22" x1="9.947" y1="107.767" x2="151.151" y2="108.087"/><path class="cls-23" d="M39.026,117.36s-6.955.24-3.957,1.559,10.792,1.319,9.833-.12S39.026,117.36,39.026,117.36Z"/><path class="cls-23" d="M83.4,116.041s-6.955.24-3.957,1.559,10.793,1.319,9.833-.12S83.4,116.041,83.4,116.041Z"/><path class="cls-23" d="M62.41,117.12s-6.955.24-3.958,1.559,10.793,1.319,9.834-.12S62.41,117.12,62.41,117.12Z"/><path class="cls-23" d="M106.475,117.874s-6.934.6-3.872,1.76,10.846.762,9.814-.626S106.475,117.874,106.475,117.874Z"/><path class="cls-24" d="M55.65,99.529a28.317,28.317,0,0,1-2.182,6.875,21.14,21.14,0,0,1-3.536,5.479,20.532,20.532,0,0,0-2.611,2.5s-1.343,1.878-1.849,1.166a37.678,37.678,0,0,1-2.931-4.477c0-.245,3.423-2.931,4.113-3.908s3.7-4.722,3.7-4.722l.326-2.911Z"/><path class="cls-24" d="M43.843,100.3s-.888,2.788.737,4.334,5.044,3.557,5.631,4.289,1.71,3.822,3.5,5.776a7.112,7.112,0,0,0,2.913,2.231,28.974,28.974,0,0,1,2.867-2.919c.977-.733,1.837-1.29,1.837-1.29s-1.349.037-4.32-3.269c-2.89-3.215-2.809-5.088-3.541-6.39a10.062,10.062,0,0,1-.628-4.045Z"/><path class="cls-25" d="M46.976,83.836l.472,2.658s2.812.884,3.538.491,1.055-4.277,1.055-4.277Z"/><path class="cls-26" d="M46.041,86.729l-2.2,2.623,1.1,10.076a22.32,22.32,0,0,0,3.949,1.3,13.913,13.913,0,0,0,6.021-.489c.41-.325.98-.651.9-1.546s.5,0,.008-1.791-.421-4.478-.906-6.187S51.8,85.671,51.8,85.671s-.813,1.314-3.153.732a2.825,2.825,0,0,1-1.344-.732Z"/><path class="cls-25" d="M44.58,101.138l1.136,2.6s2.361-.326,2.686-1.3l.326-.976-1.442-1.16A21.917,21.917,0,0,1,44.58,101.138Z"/><path class="cls-25" d="M54.82,73.831a16,16,0,0,0,.751,3.174c.346.52,1.385,3.116.346,4.386s-1.486,3.16-2.582,3.506-6.415-.274-7.457-.563-4.446-1.962-4.619-3.751,2.484-5.309,3.926-6.983,3.172-4.039,5.134-4.039,3.232.519,3.4,1.327A26.405,26.405,0,0,0,54.82,73.831Z"/><path class="cls-27" d="M48.011,73.158s1.7.308,1.853,1.308.456,2.445.456,2.445a2.884,2.884,0,0,0,.846-1.637,22.691,22.691,0,0,0,0-2.391A8.835,8.835,0,0,1,52.2,75.62a5.9,5.9,0,0,0,0,1.291,8.819,8.819,0,0,0,.612-2.483V73.235s.577,2.731.577,2.885a5.85,5.85,0,0,0,.591-2.539c-.129-.885.255,1.847.255,1.847s.462-2.616.462-2.924a23.306,23.306,0,0,0,.815,2.5,3.212,3.212,0,0,1,.4.461s-.159-.961-.4-2.039a9.891,9.891,0,0,0-.853-2.462c-.347-.692-1.174-.163-1.905-.605a6.367,6.367,0,0,0-3.254-.8c-1.228.046-3.34,1.848-4.323,2.686s-4.33,5-4.6,6.324A3.893,3.893,0,0,0,41.76,81.7c.5.549,1.327,1.614,1.634,1.844a1.874,1.874,0,0,1,.462.907,3.723,3.723,0,0,0,.126-.973c-.08-.046-.241-1.819.451-2.088s.582-.077,1.445.115.022-.091,0-1.219,1.44-1.272,1.633-2.546a12.937,12.937,0,0,0,.038-3.006c-.038-.23.635,2.809.635,2.809s.058-1.154,0-2.155S48.011,73.158,48.011,73.158Z"/><path class="cls-25" d="M45.878,81.853s-2.2-1.193-2.3-.347-.256,1.424.86,1.924,1.885.731,2.193.231"/><path class="cls-28" d="M53.335,79.439c.153-.125.217-.345.388-.443a.487.487,0,0,1,.469.023,1.461,1.461,0,0,1,.364.325"/><ellipse class="cls-29" cx="54.504" cy="77.007" rx="0.745" ry="1.11" transform="translate(-16.551 14.944) rotate(-13.574)"/><ellipse class="cls-30" cx="54.852" cy="77.049" rx="0.511" ry="0.718" transform="translate(-16.552 15.026) rotate(-13.574)"/><ellipse class="cls-29" cx="50.638" cy="78.099" rx="0.745" ry="1.11" transform="translate(-16.916 14.067) rotate(-13.574)"/><ellipse class="cls-30" cx="50.986" cy="78.141" rx="0.511" ry="0.718" transform="translate(-16.916 14.15) rotate(-13.574)"/><path class="cls-31" d="M41.9,82.279s-2.269-4.193-2.269-6.771,2.577-5.54,3.847-6a10.547,10.547,0,0,1,5.04-1.078,10.138,10.138,0,0,1,4.616,1.5s-6.886,5.347-7.81,6.425A58.632,58.632,0,0,0,41.9,82.279Z"/><path class="cls-32" d="M51.812,71s2.971-2.193,4.933-2.27,2.155.649,1.462,1.594-2.687,3.105-2.687,3.105a2.335,2.335,0,0,0-2.239-1.583A13.626,13.626,0,0,0,48.9,73.226Z"/><path class="cls-28" d="M52.8,80.676a1.453,1.453,0,0,0,2.552-.276"/><path class="cls-26" d="M45.472,88.52s2.36,1.547,1.546,3.46a10.478,10.478,0,0,0-.688,5.169,12.4,12.4,0,0,0,1.5,2.442,2.53,2.53,0,0,1-1.953,2.2,8.964,8.964,0,0,1-1.71,0,5.138,5.138,0,0,1-2.117-3.582c-.162-2.279-1.383-3.582-.244-5.535S43.436,87.543,45.472,88.52Z"/><path class="cls-33" d="M44.106,117.924a5.253,5.253,0,0,0,2.059.315.408.408,0,0,0-.024-.154c-.285-.651-1.18-1.18-1.221-1.872A3.768,3.768,0,0,1,45.038,115L42.8,111.166s-1.283.529-1.476.61c-.058.025-.186.047-.316.107a29.37,29.37,0,0,0,1.53,4.818C43.048,117.393,43.78,117.6,44.106,117.924Z"/><path class="cls-34" d="M44.106,117.924c-.326-.325-1.058-.531-1.565-1.223a29.37,29.37,0,0,1-1.53-4.818c-.3.139-.615.486-.161,1.562.651,1.547.771,4.131,1.953,4.64,2.163.932,3.387.7,3.362.154A5.253,5.253,0,0,1,44.106,117.924Z"/><path class="cls-33" d="M59.9,116.172c.325-.407,2.483-2.035,2.849-2.605a6,6,0,0,0,.538-1.225,2.418,2.418,0,0,0-.66,0,13.65,13.65,0,0,0-4.076,1.878l-1.785,2.155a6.966,6.966,0,0,0,1.259,1.31A16.836,16.836,0,0,0,59.9,116.172Z"/><path class="cls-34" d="M63.286,112.342a6,6,0,0,1-.538,1.225c-.366.57-2.524,2.2-2.849,2.605a16.836,16.836,0,0,1-1.875,1.517,1.134,1.134,0,0,0,.532.234c.692.04,1.506-1.262,2.157-1.832s2.279-1.3,2.686-2.239C63.73,113.092,64,112.461,63.286,112.342Z"/><path class="cls-35" d="M43.616,115.188a2.19,2.19,0,0,0,.648.031.711.711,0,0,1,.588.222"/><path class="cls-35" d="M43.913,116.425a1.889,1.889,0,0,1,.465-.092.639.639,0,0,1,.5.136"/><path class="cls-35" d="M60.456,113.215a1.551,1.551,0,0,0,.164.867"/><path class="cls-35" d="M61.23,112.726a2.318,2.318,0,0,0,.224.979"/><path class="cls-34" d="M47.182,85l-1.141,1.73a13.142,13.142,0,0,0,2.687.951,7.632,7.632,0,0,0,4.075-.657l-.839-1.585s-.287.9-3.067.614C46.8,85.833,47.182,85,47.182,85Z"/><path class="cls-36" d="M93.273,90.352l-.077,2.7s.386,2.395,1.7,2.318a1.428,1.428,0,0,0,1.391-1.314l.077-3.323Z"/><path class="cls-37" d="M87.95,111.344s-2.215-1.345-2.69-.316.475,2.848.712,3.481-.316,1.344.712,1.977,2.294,1.82,2.294.633-1.187-.158-.949-1.74a11.726,11.726,0,0,1,.554-2.374Z"/><path class="cls-38" d="M96.731,108.892s-1.424,3.639-2.769,4.351-5.379.949-5.379.949a4.476,4.476,0,0,1-1.187-2.373,1.957,1.957,0,0,1,.475-1.5,7.042,7.042,0,0,0,1.424.237,7.161,7.161,0,0,0,2.135-.791,5.151,5.151,0,0,0,1.583-2.452C93.013,107.072,96.731,108.892,96.731,108.892Z"/><path class="cls-37" d="M101.873,117.04a3.846,3.846,0,0,0,1.028,1.978c.712.474,2.373-.633,3.164-.95s3.956-.791,2.453-1.819-2.136-.554-2.848-.633a6.537,6.537,0,0,1-2.057-1.107l-1.9,1.028Z"/><path class="cls-38" d="M89.611,103.433s-1.108,1.662.633,3.718,3.8,1.266,4.746,1.978,3.56.949,3.8,1.424-.792.475.553,1.9a8.3,8.3,0,0,1,1.662,3.56,1.144,1.144,0,0,0,1.186.632c.633-.158,1.82-1.424,2.373-1.424s-.158-3.243-1.74-5.774a8.791,8.791,0,0,0-4.351-3.639,2.135,2.135,0,0,1-.87-2.215s-.158-.475-2.136-.712-5.379-.238-5.379-.238Z"/><path class="cls-39" d="M88.77,83.958s-3.783,5.337-1.621,6.553,4.932-1.757,4.932-1.757l.945-6.823Z"/><path class="cls-36" d="M103.777,95.5a4.075,4.075,0,0,0,.87-1.582c.158-.791-.712-1.266.158-1.978s1.9-.712,2.373.317,1.029,2.294.4,2.294a3.927,3.927,0,0,1-1.345-.317l-1.186,1.583Z"/><path class="cls-40" d="M97.047,93.94a5.843,5.843,0,0,1,2.294,1.108,2.965,2.965,0,0,0,3.56,0,15.352,15.352,0,0,1,1.266-1.266,7.308,7.308,0,0,0,1.107,1.582c.317.159.475.95.475.95a10.5,10.5,0,0,1-1.978,1.424,12.879,12.879,0,0,1-4.746.87A3.51,3.51,0,0,1,97.364,97.5Z"/><path class="cls-36" d="M84.051,98.512l-.791,1.582s-2.215.791-1.107,2.294,1.424,1.029,1.582.475,0-1.5.237-1.5,1.108-1.978,1.108-1.978Z"/><path class="cls-41" d="M101,82.4s.609,2.162.811,3.108.135,3.242-.405,3.918-3.581,2.838-5.54,2.5-5.337-1.014-5.405-3.851,0-5.878,2.027-6.486,7.026-.2,7.026-.2Z"/><path class="cls-40" d="M93.25,92.2s.87,2.452,1.74,2.373,1.345-1.819,1.345-1.819a4.182,4.182,0,0,0,1.187,1.028c.554.237,0,1.187.633,2.057s1.028,7.2,1.186,7.673-.712.159-3.164.633-7.041-1.5-7.041-1.5,1.9-5.379,1.978-5.616-1.978.474-2.69.474a4.046,4.046,0,0,0-2.452,1.662,3.59,3.59,0,0,0-.633,1.5,3.72,3.72,0,0,1-2.057-1.187c-.553-.87-.237-2.532,1.5-3.4s3.4-2.373,5.063-3.006A17.544,17.544,0,0,1,93.25,92.2Z"/><path class="cls-42" d="M100.8,80.107A16.756,16.756,0,0,1,103.16,82.2c.473.676-.608.406-1.081-.067s.271.675.271,1.148-.743.608-1.419-.27-.946-.878-.946-.473-1.013,0-1.216-.27-1.689-.946-.878.067,2.094,1.149.81,1.014.136-1.081-1.891-.406-1.757,1.689-2.3,1.824-1.081-1.621-1.081-1.621-.068,1.419-.541,1.486-.473-.067-.743.338-.811.473-.811,1.149.811,1.756-.27,1.351-1.418-.541-1.418-1.149-.946-.337-.946-.337l-.338-.406-.166-.662s-.145-.187.463-1.133-.223-2.419,1.8-3.3.6.228,1.818-.042a15.83,15.83,0,0,1,3.581-.744A38.473,38.473,0,0,1,100.8,80.107Z"/><path class="cls-43" d="M88.5,84.5a20.323,20.323,0,0,1,4.8-2.3,35.666,35.666,0,0,1,7.161-1.148h1.216s-.405-3.919-3.04-5.067-5.234.451-7.4,1.668S88.3,83.755,88.5,84.5Z"/><path class="cls-36" d="M90.865,86.12s-1.96-1.149-1.757.675,1.351,2.3,1.689,2.23.473-.811.473-.811"/><path class="cls-29" d="M100.936,84.275s.917,0,.679,1.357c-.159.908-1.474,1.1-1.474-.109C100.141,84.78,100.054,84.5,100.936,84.275Z"/><path class="cls-30" d="M101.188,84.857s.595,0,.441.719c-.1.481-.9.5-.9.1S100.615,84.976,101.188,84.857Z"/><path class="cls-29" d="M96.738,85.205s.916,0,.679,1.358c-.159.907-1.474,1.1-1.474-.11C95.943,85.71,95.855,85.431,96.738,85.205Z"/><path class="cls-30" d="M96.99,85.787s.595,0,.44.719c-.1.481-.9.5-.9.1S96.417,85.907,96.99,85.787Z"/><path class="cls-44" d="M98.521,87.532a.862.862,0,0,1,1.173-.281"/><path class="cls-44" d="M97,88.618a2.234,2.234,0,0,0,2.994.224"/><path class="cls-44" d="M95.925,84.141a1.129,1.129,0,0,1,.926-.5"/><path class="cls-44" d="M99.95,83.122h.689"/><path class="cls-36" d="M84.411,100.34s.344,1.248.043,1.593a.333.333,0,0,1-.559-.043l-.6-1.119"/></svg>