<svg id="word" xmlns="http://www.w3.org/2000/svg" viewBox="0 0 160 160"><defs><style>.cls-1,.cls-12{fill:none;}.cls-2{fill:#526981;}.cls-10,.cls-11,.cls-2,.cls-4,.cls-5,.cls-9{stroke:#9d4b9c;}.cls-10,.cls-11,.cls-12,.cls-13,.cls-14,.cls-15,.cls-2,.cls-4,.cls-5,.cls-7,.cls-8,.cls-9{stroke-miterlimit:10;stroke-width:0.699px;}.cls-3{fill:#b1a9ad;}.cls-4{fill:#3b5b73;}.cls-5{fill:#fff;}.cls-6{fill:#873f85;}.cls-7,.cls-9{fill:#b5b7b9;}.cls-12,.cls-13,.cls-14,.cls-7,.cls-8{stroke:#873f85;}.cls-11,.cls-8{fill:#cfd0d1;}.cls-10{fill:#aaabae;}.cls-13{fill:#52b756;}.cls-14{fill:#e4eba0;}.cls-15{fill:#059fd8;stroke:#9b4d9c;}</style></defs><rect class="cls-1" x="14" y="14" width="132" height="132"/><polygon class="cls-2" points="53.135 60.627 146.445 86.7 146.445 119.869 17.578 76.334 53.135 60.627"/><path class="cls-3" d="M64.771,76.21s-17.132.579-19.071,1.321-3.071,1.22-.809,2.435a108.126,108.126,0,0,1,11.045,5.807c6.465,4.136,19.179,5.657,20.31,6.271s23.92,8.371,24.405,9.018,21.5,7.111,21.5,7.111l23.144,9.164,1.817-1.994V89.885l-16.233-6.117L92.085,73.675Z"/><polygon class="cls-4" points="146.445 119.869 146.445 132.798 17.578 83.377 17.578 76.334 146.445 119.869"/><path class="cls-5" d="M106.146,81.631s-10.667.45-13.576,0-12.414.31-14.975.812c-1.585.311-12.824.81-8.3,3.33s28.123,9.955,29.416,10.278,12.283,6.142,18.1,6.142,22.3-2.263,23.6-2.1,4.849-7.256,0-8.4S106.146,81.631,106.146,81.631Z"/><path class="cls-6" d="M106.5,81.638c-.1,2.777-.179,5.559-.173,8.338,0,1.394.061,2.769.152,4.166a21.075,21.075,0,0,1-.167,4.172,21.114,21.114,0,0,0-.007-4.161c-.148-1.376-.273-2.778-.327-4.168-.123-2.787-.165-5.571-.177-8.361Z"/><path class="cls-7" d="M71.721,66.151s6.95,2.463,6.95,3.575V81.2l-5.327-1.406Z"/><path class="cls-8" d="M77.054,72.447s-6.141-.154-6.949.007a6.382,6.382,0,0,1-4.2-1.131l-1.131-.97,7.435-.627Z"/><polygon class="cls-9" points="78.671 69.726 85.782 68.266 85.782 81.199 78.671 81.199 78.671 69.726"/><polygon class="cls-8" points="72.206 66.151 78.284 65.698 85.782 68.266 78.671 69.726 72.206 66.151"/><path class="cls-10" d="M64.394,70.353l.592,6.519s4.634,2.694,4.634,1.4.485-5.819.485-5.819l-5.334-2.1Z"/><path class="cls-9" d="M67.115,61.464l.565,8.919s2.906.445,3.391.122-.966-2.239-.966-2.239l-1.388-6.8A.94.94,0,0,0,67.115,61.464Z"/><polygon class="cls-11" points="77.371 72.454 77.595 77.643 68.717 78.569 70.105 72.454 77.371 72.454"/><path class="cls-11" d="M78.509,67.121A3.78,3.78,0,0,0,81.1,68.252a7.212,7.212,0,0,0,2.1-.558L84,35.6s.323-7.434,1.455-9.374,4.364-6.141,9.212-6.465,8.982,1.293,10.875,3.718,1.732,7.111,1.732,12.606.808,17.132.808,17.132.646,1.132,2.909.808,2.909-.484,3.071-1.131,0-11.313,0-11.313-.485-13.415-2.1-17.941-5.334-11.8-16.971-11.152S79.8,22.19,78.509,28.816s-1.131,31.146-1.131,31.146Z"/><path class="cls-12" d="M107.605,45.191a1.1,1.1,0,0,0,.766.4q.615.129,1.232.251a6.417,6.417,0,0,0,1.425.17,6.615,6.615,0,0,0,1.775-.389,1.9,1.9,0,0,0,1.01-.575"/><path class="cls-12" d="M107.793,51.156a4.036,4.036,0,0,0,2.329,1.026,5.243,5.243,0,0,0,1.539.154,5.175,5.175,0,0,0,1.065-.26l1.31-.419"/><path class="cls-13" d="M93.2,70.462S95.8,77.3,96.449,77.3a16.671,16.671,0,0,1,6.3,0c4.364.647,9.374-.323,10.183,0s-.113-.292-1.431-2.57a25.4,25.4,0,0,1-1.8-3.623Z"/><path class="cls-14" d="M93.055,73.675l-.97,2.449,4.687,3.669a20.352,20.352,0,0,0,5.334,0c2.909-.389,10.182.173,10.182.173l.647-2.663L97.1,76.124,93.38,70.991Z"/><path class="cls-12" d="M97.137,76.006q-.093,1.617-.032,3.236"/><path class="cls-12" d="M80.974,89.973c.4-1.68,2.925-2.36,4.26-2.387a5.152,5.152,0,0,1,1.931.239,3.879,3.879,0,0,1,2.071,2.157,10.068,10.068,0,0,1,.642,2.991"/><path class="cls-12" d="M87.808,92.334a3.86,3.86,0,0,0-.214-1.565,2.221,2.221,0,0,0-1.009-1.186,3.019,3.019,0,0,0-1.428-.261,2.346,2.346,0,0,0-.838.125,2.75,2.75,0,0,0-1.238,1.394"/><path class="cls-14" d="M118.826,81.117s.372-11.7.735-13.071c.41-1.546.67-3.834,3.58-4.8s4.34-1.208,6.6.57,2.5,6.515,2.819,8.94.616,9.949.616,9.949-1.761,2.026-6.251,1.938C119.7,84.5,118.877,81.905,118.826,81.117Z"/><path class="cls-15" d="M123.44,59.1s-.7,3.813,0,4.446c1.421,1.29,3.329,1.3,3.862-.761.336-1.3-.791-5.11-.791-5.11S123.741,57.089,123.44,59.1Z"/><path class="cls-15" d="M127.364,55.192l1.894,1.509s-4.2,2.526-5.818,2.394a5.565,5.565,0,0,0-3.071.8c-.882,1.827-2.616,1.194-2.1,0a13.08,13.08,0,0,1,3.61-3.523C123.817,55.246,127.364,55.192,127.364,55.192Z"/></svg>