<svg id="word" xmlns="http://www.w3.org/2000/svg" viewBox="0 0 160 160"><defs><style>.cls-1{fill:#6698a0;}.cls-1,.cls-10,.cls-11,.cls-13,.cls-2,.cls-3,.cls-4,.cls-5,.cls-6,.cls-7,.cls-8,.cls-9{stroke:#9c4c9c;}.cls-1,.cls-10,.cls-11,.cls-2,.cls-3,.cls-4,.cls-6,.cls-7,.cls-8{stroke-miterlimit:10;}.cls-1,.cls-10,.cls-11,.cls-2,.cls-3,.cls-4,.cls-5,.cls-6,.cls-7,.cls-8,.cls-9{stroke-width:0.825px;}.cls-2{fill:#e3deab;}.cls-3{fill:#3f3f40;}.cls-4{fill:#29494e;}.cls-5{fill:#fde1d3;}.cls-5,.cls-9{stroke-linecap:round;}.cls-6{fill:#3a2416;}.cls-7{fill:#41676d;}.cls-8{fill:#244247;}.cls-11,.cls-9{fill:none;}.cls-10{fill:#87d4f6;}.cls-12{fill:#9c4c9c;}.cls-13{fill:#fff;stroke-width:0.701px;}</style></defs><path class="cls-1" d="M81.8,70.72s-6.889,3.229-7.966,7.965S66.3,99.568,66.3,99.568s9.9,10.118,10.549,10.333S81.8,96.123,81.8,96.123l4.736-18.945Z"/><path class="cls-1" d="M117.546,57s14.889,2.454,21.249,15.943c1.923,4.079,4.175,73.231,4.175,73.231l-66.786.759s5.5-7.969,5.5-12.333-3.605-52.935-3.605-52.935l7.21-12.9,4.364,12.712,4.631-.42,16.24-16.087Z"/><path class="cls-1" d="M80.169,58.515s-7.088,6.97-7.088,8.868v7.858s1.775-4.014,4.242-4.2a6.559,6.559,0,0,1,3.169.869,20.038,20.038,0,0,1,3.092,1.977l-7.59,6.451s12.9,3.8,13.851,8.728A39.768,39.768,0,0,0,93.5,98.953l.14-1.353.949-4.554.559-14.9s-7-5.275-7.769-9.2c-.231-1.177-5.692-10.625-5.692-10.625Z"/><path class="cls-2" d="M75.574,109.489S57.251,78.34,55.236,75.408s-7.879-8.428-7.879-8.428-8.1-2.514-13.559,1.832c-9.694,7.72-23.9,7.5-23.9,7.5s14.442,26.5,18.04,29.874c10.162,9.523,13.559,28.584,13.559,28.584l37.562-16.308Z"/><path class="cls-3" d="M88.584,123.414,74.108,95.2l-3.847,1.832L84,125.063S88.4,127.812,88.584,123.414Z"/><path class="cls-3" d="M69.711,98.312s-5.888.179-8.8-2.932c-1.877-2.008-6.389-9.224-7.534-11.313-3.905-7.125,1.854-11.041,2.587-11.59s5.68-1.649,5.68-1.649L74.372,94.185A9.169,9.169,0,0,1,69.711,98.312Z"/><path class="cls-4" d="M102.936,37.075s12.523-9.866,14.42-9.107-6.547,13.581-6.547,13.581,1.118-6.62-.969-6.62S102.936,37.075,102.936,37.075Z"/><path class="cls-5" d="M78.461,48.459s2.656,12.333,4.364,12.9S86.05,65.345,87,67.432s3.415,4.933,6.451,5.123,9.3-2.656,12.522-7.21,4.933-15.747,5.312-20.87-3.415-10.246-3.415-10.246Z"/><path class="cls-6" d="M111.4,38.965,110.61,31.6l-8.158,5.313s2.846,8.728,2.846,10.245.949,2.467,1.328,1.329,1.971-3.294,2.73-5a6.759,6.759,0,0,0,2.422-4.682"/><path class="cls-7" d="M77.892,42.2s-3.036-22.2-.38-24.475,12.9-3.036,14.8-3.415,6.451-3.416,9.866,1.707,5.882,14.61,5.882,14.61.759.758,3.8-1.139,6.193-5.365,6.261-2.087S94.4,42.2,89.845,43.716,67.646,53.962,64.99,53.772,77.892,42.2,77.892,42.2Z"/><path class="cls-8" d="M76.564,37.645l.569,5.5s11-4.743,15.937-7.21,15.1-5.26,15.1-5.26l-.646-2.476s-13.507,3.182-17.681,4.321S76.564,37.645,76.564,37.645Z"/><path class="cls-1" d="M123.878,38.013s-21.442,7.947-20.873,11.932a61.194,61.194,0,0,0,2.746,9.85l-9.486,5.692L93.8,97.931s.19-12.9,8.728-18.973,13.091-12.143,14.04-14.23,3.605-6.641,3.605-6.641S127.483,39.531,123.878,38.013Z"/><path class="cls-9" d="M83.794,49.875a13,13,0,0,1,1.4,2.723c.657,1.608,1.251,3.41.665,5.045-.231.645-.635,1.22-.85,1.87a1.813,1.813,0,0,0,.322,1.914,2.389,2.389,0,0,0,1.1.446,1.411,1.411,0,0,0,.731.029c.234-.076,1.5-.422,1.416-.655"/><path class="cls-10" d="M59.817,71.194s6.046-1.649,8.978,2.016,9.344,11.177,7.879,16.124S74.841,96.3,71.91,96.846s-7.329-4.214-9.162-6.779S51.755,76.691,59.817,71.194Z"/><path class="cls-5" d="M89.5,104.908s-2.566-7.329-6.413-7.329S75.941,96.3,76.674,97.4a11.307,11.307,0,0,0,2.2,2.2s-.733-.917-3.3-.917-5.68,1.65-5.13,3.3,1.282,0,.55,1.649-1.1,5.13-.55,6.229,1.832,1.833,1.282,2.932-.916,1.649-.549,2.382a14.186,14.186,0,0,0,1.832,2.2c.916,1.1,4.214,2.748,7.879,2.748s10.078-2.382,10.078-2.382l.549-12.459Z"/><path class="cls-1" d="M127.341,71.9s10.078-4.4,10.078,3.665-4.948,30.965-7.7,36.829-10.627,10.993-14.842,10.993-22.9.367-22.9.367-3.3-5.864-2.932-11.177a96.964,96.964,0,0,1,1.832-11.91s20.156,1.466,21.621,1.466,4.4-7.7,4.4-7.7S117.813,75.743,127.341,71.9Z"/><path class="cls-11" d="M26.714,91.041l11.544-3.8a36.631,36.631,0,0,1,9.093-2.15"/><path class="cls-11" d="M32.6,93.288a50.084,50.084,0,0,1,10.7-4,54.7,54.7,0,0,0,5.715-1.171c1.36-.439,2.758-1.113,4.152-.8"/><path class="cls-11" d="M39.2,95.512a40.5,40.5,0,0,1,9.642-5.044"/><path class="cls-11" d="M41.755,96.767a17.144,17.144,0,0,1,6.926-4.192"/><path class="cls-11" d="M44.231,101.182a21.345,21.345,0,0,1,7.233-4.8"/><path class="cls-11" d="M35.963,110.372a64.036,64.036,0,0,0,16.914-8.324,16.093,16.093,0,0,1,5.456-2.925"/><path class="cls-11" d="M42.032,114.591a83.506,83.506,0,0,0,20.233-10.423"/><path class="cls-11" d="M49.5,116.1a161.462,161.462,0,0,0,19.422-5.667"/><path class="cls-11" d="M46.929,121.226a28.3,28.3,0,0,0,15.453-5.355"/><path class="cls-12" d="M24.612,78.717c.072-.418.463-.195.608-.088,1.152,1.511,2.126,3.114,3.43,4.653L28.3,81.861c-.3-1.285-.642-2.369-1.06-3.616a.387.387,0,0,1,.3-.371.31.31,0,0,1,.32.038c.521,2.2,1.186,4.508,1.862,6.812l.032.133c0,.056-.087.236-.176.265a.484.484,0,0,1-.34-.1c-1.22-1.654-2.507-3.243-3.712-4.913l1.777,5.676c-.059.591-.494.436-.6.142Z"/><path class="cls-12" d="M30.905,83.9c-.729-2.232-1.385-4.509-2.054-6.761-.13-.462.039-.517.436-.647l.1-.032a1.471,1.471,0,0,1,1.977.978l.036.11a2.491,2.491,0,0,1-.186,2.289,4.131,4.131,0,0,1,.444.283c.637.439.991,1.893,1.265,2.561.019.06.227.5.247.556l.026.08c.055.168-.1.24-.226.282l-.01,0c-.109.036-.238.078-.323-.048-.117-.324-.7-1.812-.832-2.143-.2-.473-.514-1.1-1.119-.908l-.159.052a5.876,5.876,0,0,0,.128.595c.02.092.689,2.311.954,3.157.062.188.16.387-.088.468a.376.376,0,0,1-.343-.042Zm-.48-4.091c.7-.23.548-1.617.4-2.073s-.565-.991-1.131-.806a.244.244,0,0,0-.163.339c.291.86.449,1.61.737,2.492C30.293,79.837,30.365,79.824,30.425,79.805Z"/><path class="cls-12" d="M34.467,82.766a.473.473,0,0,1,.606.34c.071.218-.128.316-.316.377a.4.4,0,0,1-.53-.31C34.185,83.044,34.348,82.805,34.467,82.766Z"/><path class="cls-12" d="M37.318,76.094l-.012-.106c-.1-.769-.166-2.053.638-2.316,1.259-.411,1.857.612,2.312,1.638.17.384.615,1.446.638,1.515.042.129.432,1.626.551,2.125.2.836.238,2.107-.734,2.424-.684.224-1.311-.384-1.661-.917a11,11,0,0,1-1.427-2.992A5.556,5.556,0,0,1,37.318,76.094Zm3.28,4.8c.467-.152.31-1.44.262-1.754l-.109-.535a10.174,10.174,0,0,0-.423-1.53,13.193,13.193,0,0,0-.732-1.77c-.224-.487-.76-1.42-1.464-1.19-.268.087-.255,1.235-.246,1.463a7.888,7.888,0,0,0,.231,1.582c0,.01.071.251.1.341C38.405,78.077,39.646,81.206,40.6,80.9Z"/><path class="cls-12" d="M41.457,74.742l-.013-.105c-.1-.77-.166-2.054.638-2.316,1.26-.411,1.857.612,2.313,1.637.169.384.615,1.446.637,1.516.042.129.432,1.626.552,2.125.2.836.238,2.106-.734,2.424-.685.223-1.311-.385-1.661-.918a10.982,10.982,0,0,1-1.427-2.991A5.509,5.509,0,0,1,41.457,74.742Zm3.28,4.8c.466-.152.309-1.439.262-1.753l-.11-.535a10.219,10.219,0,0,0-.422-1.531,13.247,13.247,0,0,0-.732-1.77c-.225-.486-.76-1.42-1.464-1.19-.268.088-.255,1.236-.247,1.464a7.911,7.911,0,0,0,.232,1.582c0,.009.07.251.1.34C42.543,76.725,43.785,79.854,44.737,79.543Z"/><path class="cls-12" d="M47.26,77.918c.367-.12.535.429.872.319.784-.256.567-2.029-.29-4.219-.537-1.372-1.266-.849-2.238-.532-.188.062-.354.16-.458.008l-.058-.179c-.188-.575-.446-1.095-.631-1.66-.042-.129-.064-.3.115-.356l1.874-.612a.349.349,0,0,1,.4.243c.052.159.065.2-.143.267l-1.419.463c-.079.026-.02.138-.007.178l.373,1.042c1.568-.71,2.186-.264,2.587.527.31.952,2,4.813.105,5.432a.98.98,0,0,1-1.2-.575C47.125,77.974,47.171,77.947,47.26,77.918Z"/><path class="cls-11" d="M59.279,73.364c3.492-.439,6.9,1.6,9.172,4.285,2.852,3.371,4.3,7.676,5.693,11.868"/><path class="cls-13" d="M94.424,52.028a4.954,4.954,0,0,0,.674-4.165c-.776-2.142-3.9-1.13-4.321-.88-.924.552-.013,4.553.847,5.14S94.223,53.114,94.424,52.028Z"/><path class="cls-12" d="M93.2,49.781s-.276-2.055-1.728-2.073-1.105,1.342-1.1,1.8c.009.829,1.263,2.2,2.031,1.776A1.583,1.583,0,0,0,93.2,49.781Z"/><path class="cls-13" d="M83.024,54.7a4.95,4.95,0,0,0,.674-4.165c-.776-2.142-3.9-1.13-4.321-.88-.924.552-.012,4.553.847,5.14S82.823,55.782,83.024,54.7Z"/><path class="cls-12" d="M81.8,52.449s-.275-2.055-1.728-2.073-1.105,1.342-1.1,1.8c.01.829,1.264,2.2,2.031,1.776A1.583,1.583,0,0,0,81.8,52.449Z"/><path class="cls-9" d="M89.08,64.42a2.457,2.457,0,0,0,1.773-.221c.333-.182.617-.439.932-.649a3.917,3.917,0,0,1,3.32-.463"/><path class="cls-9" d="M91.6,65.86A6.475,6.475,0,0,1,94.53,65.3"/><path class="cls-9" d="M89.283,44.579a10.755,10.755,0,0,1,4.993-.318"/></svg>