<svg id="word" xmlns="http://www.w3.org/2000/svg" viewBox="0 0 160 160"><defs><style>.cls-1{fill:#c3996b;}.cls-1,.cls-2,.cls-3,.cls-4,.cls-5,.cls-6,.cls-7,.cls-8,.cls-9{stroke:#9d4b9c;stroke-miterlimit:10;stroke-width:0.322px;}.cls-2{fill:#ec1c24;}.cls-3{fill:#3bbfc2;}.cls-4{fill:#7dc142;}.cls-5{fill:#8fadda;}.cls-6{fill:#bace32;}.cls-7{fill:#2b388f;}.cls-8{fill:#fff;}.cls-9{fill:none;}</style></defs><polygon class="cls-1" points="88.271 7.864 90.812 53.165 91.125 106.66 90.505 128.465 92.367 128.465 92.367 77.865 91.746 43.361 90.319 14.567 88.891 5.879 88.271 7.864"/><path class="cls-2" d="M88.891,5.879s-4.84-1.49-8.564.868a10.826,10.826,0,0,1-5.212,1.986c-2.11.124-4.469,0-4.469,0s2.2,1.091,3.6,1.614c2.978,1.117,7.557-2.094,9.06-2.234,2.482-.232,4.965,1.737,4.965,1.737Z"/><path class="cls-3" d="M93.111,42.244s2.979,30.533,4.1,37.731-.621,44.806-.621,44.806l-.115,2.791,30.648-5.149s-5.337-12.288-7.571-17.873S107.136,78.61,105.274,73.4,93.111,42.244,93.111,42.244Z"/><polygon class="cls-1" points="45.079 115.72 45.079 118.079 91.168 118.079 91.125 116.217 45.079 115.72"/><path class="cls-3" d="M90.448,69.248,90.267,43.46,88.643,10.843S80.7,12.829,76.976,17.421c-2.865,3.533-10.724,24.4-14.65,35.708,4.4.63,8.419,3.1,12.2,5.541Q82.557,63.853,90.448,69.248Z"/><path class="cls-4" d="M89.848,95.816l.6-26.568q-7.9-5.385-15.923-10.578c-3.78-2.439-7.8-4.911-12.2-5.541-1.176,3.388-2,5.919-2.229,6.864-.411,1.7-2.778,11.617-5.411,22.666,8.539.87,16.657,4.213,24.571,7.6A62.211,62.211,0,0,1,89.848,95.816Z"/><path class="cls-5" d="M79.257,90.255c-7.914-3.383-16.032-6.726-24.571-7.6C53.3,88.5,51.83,94.645,50.539,100.065c7.217-.463,14.354,1.759,21.267,3.963,6.17,1.967,12.467,4.006,17.68,7.832l.362-16.044A62.211,62.211,0,0,0,79.257,90.255Z"/><path class="cls-6" d="M50.539,100.065c-2.17,9.109-3.847,16.152-3.847,16.152h42.7l.1-4.357c-5.213-3.826-11.51-5.865-17.68-7.832C64.893,101.824,57.756,99.6,50.539,100.065Z"/><path class="cls-7" d="M130.1,126.022l-35,1.613-60.568,2.979,1.053,2.188,92.726-4.073A18.839,18.839,0,0,0,130.1,126.022Z"/><path class="cls-8" d="M35.582,132.8l2.174,4.514s74.717-1.489,78.937-1.489,7.447-1.738,10.178-5.213c.574-.731,1.044-1.351,1.437-1.885Z"/><line class="cls-9" x1="89.848" y1="11.705" x2="93.231" y2="43.461"/><line class="cls-9" x1="94.518" y1="127.664" x2="92.643" y2="37.944"/><line class="cls-9" x1="86.739" y1="128.046" x2="88.643" y2="10.843"/></svg>