<svg id="word" xmlns="http://www.w3.org/2000/svg" viewBox="0 0 160 160"><defs><style>.cls-1{fill:#d5ccb1;}.cls-1,.cls-2,.cls-3,.cls-4,.cls-5{stroke:#9b4b9c;}.cls-1,.cls-2,.cls-3,.cls-4,.cls-5,.cls-7{stroke-miterlimit:10;}.cls-1,.cls-3,.cls-4,.cls-5{stroke-width:0.753px;}.cls-2,.cls-7{fill:none;}.cls-2{stroke-linecap:round;stroke-width:1.505px;}.cls-3{fill:#00a59b;}.cls-4{fill:#5f83c2;}.cls-5{fill:#00807b;}.cls-6{fill:#9b4b9c;}.cls-7{stroke:#9b4d9c;stroke-width:0.782px;}</style></defs><path class="cls-1" d="M65.351,52.662s-5.675-1.891,2.67-4.937,8.346-4.985,13.966-4.985,7.834,3.184,10.729,5.123,14.587,10.469,16.29,12.13,2.959,6.507,2.108,8.169-2.9-1.052-5.965-3.267S95.1,56.171,81.817,55.617s-22.87,10.006-29.342,8.9S58.928,54.133,65.351,52.662Z"/><path class="cls-2" d="M78.332,27.094s-3.6-6.7,4.007-7.658c7.823-.985,8.389,4.764,7.748,7.718s-6.145,6.724-6.946,9.24A57.238,57.238,0,0,0,81.7,42.74"/><path class="cls-3" d="M73.022,49.4,46.15,83.422s2.356,20.739,2.44,32.328S47.7,130.5,51.138,132.982s29.442,1.181,29.442,1.181l-.721-82.512Z"/><path class="cls-4" d="M73.022,49.4s-12.555.585-21.036,7.049-16.962,24.31-18.658,27.2S21.454,109.889,21.212,115.4s1.938,6.823,1.938,6.823,5.491,7.554,10.42,2.887c10.81-10.237,11.389-26.5,12.358-28.866s1.18-8.476,1.18-8.476Z"/><path class="cls-5" d="M22.423,118.156,20,125.372a13.913,13.913,0,0,0,3.392,3.674c1.939,1.312,4.483,3.018,4.483,3.018l4.847-8.266A10.836,10.836,0,0,0,22.423,118.156Z"/><path class="cls-5" d="M51.017,132.064v6.167s-.848.918,7.875.918,16.841.263,20.476,0,1.2-6.037,1.2-6.037S55.378,132.851,51.017,132.064Z"/><path class="cls-6" d="M21,126.667a17.211,17.211,0,0,0,.887-1.984q.45-1.037,1-2.02A21.961,21.961,0,0,1,25.439,119a21.708,21.708,0,0,0-2.224,3.835c-.3.671-.571,1.358-.806,2.053a17.289,17.289,0,0,1-.758,2.152Z"/><path class="cls-6" d="M22.8,128.275a5.082,5.082,0,0,1,1.649-1.937,10.172,10.172,0,0,0,1.567-1.743,27.635,27.635,0,0,0,2.325-4.175,27.794,27.794,0,0,1-2.011,4.383,10.668,10.668,0,0,1-1.493,1.945,4.538,4.538,0,0,0-1.323,1.766Z"/><path class="cls-6" d="M25.372,130.025c.928-1.358,2.208-2.271,3.169-3.442a11.159,11.159,0,0,0,2.111-4.052,11.35,11.35,0,0,1-1.812,4.28c-.905,1.294-2.11,2.331-2.83,3.612Z"/><polygon class="cls-6" points="53.505 138.958 53.869 132.917 54.258 138.948 53.505 138.958"/><path class="cls-6" d="M56.377,138.669a19.539,19.539,0,0,0,.524-2.842l.379-2.913,0,2.938a19.981,19.981,0,0,1-.164,2.976Z"/><path class="cls-6" d="M59.524,139.183a36.884,36.884,0,0,1,.358-5.942,36.439,36.439,0,0,0,.392,5.879Z"/><path class="cls-6" d="M62.4,138.953l.182-2.9.092-1.448a4.178,4.178,0,0,1,.24-1.432,4.1,4.1,0,0,0-.052,1.432l.1,1.448.194,2.9Z"/><path class="cls-6" d="M64.782,138.649a25.672,25.672,0,0,1,.569-5.408,25.245,25.245,0,0,0,.182,5.355Z"/><path class="cls-6" d="M67.322,138.75a27.019,27.019,0,0,0,.9-5.7,27.373,27.373,0,0,1-.162,5.851Z"/><polygon class="cls-6" points="70.312 139.129 71.209 133.248 71.064 139.167 70.312 139.129"/><polygon class="cls-6" points="73.479 139.149 73.855 133.835 74.232 139.149 73.479 139.149"/><polygon class="cls-6" points="78.768 138.734 79.418 133.244 79.52 138.772 78.768 138.734"/><polygon class="cls-6" points="79.032 139.019 79.133 133.491 79.783 138.982 79.032 139.019"/><path class="cls-6" d="M73.282,55.306c-.651,1.363-1.385,2.675-2.031,4.018-.311.676-.638,1.344-.875,2.028a4.775,4.775,0,0,0-.255,1c-.033.343-.043.736-.051,1.094a6.04,6.04,0,0,0,.254,2.1,14.954,14.954,0,0,0,.864,2.015c.656,1.341,1.374,2.654,2.094,3.98a26.878,26.878,0,0,1-2.6-3.705,11.514,11.514,0,0,1-1.031-2.066,6.582,6.582,0,0,1-.329-2.341c.015-.393.028-.751.072-1.155a4.859,4.859,0,0,1,.32-1.172,15.075,15.075,0,0,1,1.033-2.051A36.772,36.772,0,0,1,73.282,55.306Z"/><path class="cls-6" d="M72.5,62.354a13.7,13.7,0,0,1,2.626,4.094,9.709,9.709,0,0,1,.691,4.89,8.21,8.21,0,0,1-.7,2.414A8.545,8.545,0,0,1,73.7,75.8c-1.1,1.224-2.362,2.208-3.478,3.375.876-1.367,2.073-2.5,3.034-3.745a8.227,8.227,0,0,0,1.814-4.193,10.567,10.567,0,0,0-.486-4.6A20.07,20.07,0,0,0,72.5,62.354Z"/><path class="cls-6" d="M71.34,69.736a4.353,4.353,0,0,1-.212,1.957c-.2.628-.42,1.226-.585,1.845a16.872,16.872,0,0,0-.649,3.732,9.2,9.2,0,0,0,.516,3.675,16.6,16.6,0,0,0,1.917,3.314,10.44,10.44,0,0,1-2.45-3.087,8.162,8.162,0,0,1-.734-3.937A12.581,12.581,0,0,1,70,73.357c.238-.614.522-1.213.789-1.794A4.919,4.919,0,0,0,71.34,69.736Z"/><path class="cls-6" d="M73.506,76.215a1.126,1.126,0,0,1,.662.781c.108.328.228.653.318.988a14.119,14.119,0,0,1,.364,2.05,13.153,13.153,0,0,1-1.83,8.038A10.889,10.889,0,0,1,70.3,91.177a16.96,16.96,0,0,0,3.553-7.144,17.607,17.607,0,0,0,.427-3.969,14.59,14.59,0,0,0-.148-2.009c-.033-.336-.1-.669-.15-1A1.134,1.134,0,0,0,73.506,76.215Z"/><path class="cls-6" d="M70.53,82.374c-.156,1.281-.391,2.543-.638,3.8a9.794,9.794,0,0,0-.288,3.675,12.146,12.146,0,0,0,1.158,3.52c.541,1.14,1.207,2.235,1.812,3.375a20.09,20.09,0,0,1-2.322-3.1,9.953,9.953,0,0,1-1.393-3.69,7.3,7.3,0,0,1,.005-2.014,13.778,13.778,0,0,1,.468-1.9C69.7,84.808,70.073,83.581,70.53,82.374Z"/><path class="cls-6" d="M73.432,87.034a22.066,22.066,0,0,1,.629,7.412,13.39,13.39,0,0,1-.905,3.657,9.385,9.385,0,0,1-2.041,3.129,16.356,16.356,0,0,0,2.2-6.866A67.629,67.629,0,0,0,73.432,87.034Z"/><path class="cls-6" d="M70.7,93.862a17.827,17.827,0,0,1-.321,1.866c-.145.611-.3,1.214-.39,1.817a11.009,11.009,0,0,0-.131,1.812,7.713,7.713,0,0,0,.223,1.78,23.366,23.366,0,0,0,1,3.531c.469,1.082,1.391,2.106,1.59,3.387-.5-1.169-1.456-1.972-2.108-3.127a15.03,15.03,0,0,1-1.215-3.638,7.868,7.868,0,0,1-.2-1.945,8.458,8.458,0,0,1,.277-1.918C69.762,96.176,70.284,95.053,70.7,93.862Z"/><path class="cls-6" d="M72.675,98.052a20.254,20.254,0,0,1,1.313,1.8,8.517,8.517,0,0,1,.8,2.111,10.317,10.317,0,0,1-.014,4.506,14.311,14.311,0,0,1-1.681,4.156,22.047,22.047,0,0,1-2.63,3.567c.735-1.279,1.489-2.534,2.12-3.84a18.493,18.493,0,0,0,1.456-4.043,11.865,11.865,0,0,0,.183-4.237,8.27,8.27,0,0,0-.564-2.062C73.389,99.339,72.983,98.725,72.675,98.052Z"/><path class="cls-6" d="M71.362,106.228c-.519,2.292-1.453,4.494-1.339,6.726a7.438,7.438,0,0,0,.888,3.19A19.226,19.226,0,0,0,72.868,119a10.328,10.328,0,0,1-2.465-2.558,6.826,6.826,0,0,1-1.131-3.449,9.327,9.327,0,0,1,.622-3.551A26.465,26.465,0,0,1,71.362,106.228Z"/><path class="cls-6" d="M73.37,110.422c.142-.143.36.012.45.146a1.335,1.335,0,0,1,.187.488c.089.326.16.657.22.991a13.5,13.5,0,0,1,.148,2.031,14.376,14.376,0,0,1-.639,4.023,17.418,17.418,0,0,1-1.663,3.7,24.985,24.985,0,0,1-2.3,3.3c.594-1.2,1.224-2.376,1.786-3.574a27.087,27.087,0,0,0,1.456-3.653,19.945,19.945,0,0,0,.783-3.834,13.859,13.859,0,0,0,.063-1.966c0-.33-.017-.661-.05-.991a1.246,1.246,0,0,0-.088-.465C73.666,110.5,73.535,110.324,73.37,110.422Z"/><path class="cls-6" d="M70.264,116.849a29.081,29.081,0,0,0-.03,6.676,15.08,15.08,0,0,0,2.634,6.046,10.657,10.657,0,0,1-2.194-2.644,9.672,9.672,0,0,1-1.181-3.278A14.343,14.343,0,0,1,70.264,116.849Z"/><path class="cls-6" d="M72.829,120.361c-.154.018-.1.211-.059.3l.19.352c.123.242.234.492.336.747a7.66,7.66,0,0,1,.395,1.6,10.2,10.2,0,0,1-.109,3.285,10.749,10.749,0,0,0-.135,3.09,5.53,5.53,0,0,1-.579,3.18,7.516,7.516,0,0,0-.006-3.129,8.626,8.626,0,0,1-.019-3.283,13.767,13.767,0,0,0,.265-3.091,10.73,10.73,0,0,0-.166-1.552c-.044-.258-.1-.516-.167-.772l-.113-.39C72.636,120.575,72.657,120.334,72.829,120.361Z"/><path class="cls-6" d="M70.5,126.151a16.1,16.1,0,0,0-.967,3.354,15.79,15.79,0,0,0-.14,3.486,5.383,5.383,0,0,1-.6-3.607A5.465,5.465,0,0,1,70.5,126.151Z"/><path class="cls-6" d="M71.729,50.984a1.136,1.136,0,0,1,.806.63c.174.3.357.591.515.9a14.285,14.285,0,0,1,.779,1.928,13.1,13.1,0,0,1-.119,8.232,10.744,10.744,0,0,1-2.034,3.59,16.643,16.643,0,0,0,2-7.708,17.371,17.371,0,0,0-.409-3.964,14.641,14.641,0,0,0-.559-1.933c-.1-.322-.233-.635-.353-.952A1.154,1.154,0,0,0,71.729,50.984Z"/><path class="cls-6" d="M61.4,62.068a13.727,13.727,0,0,1,2.627,4.093,9.721,9.721,0,0,1,.69,4.89,8.171,8.171,0,0,1-.7,2.414A8.6,8.6,0,0,1,62.6,75.518c-1.1,1.223-2.363,2.208-3.479,3.374.876-1.367,2.073-2.5,3.034-3.745a8.228,8.228,0,0,0,1.814-4.192,10.572,10.572,0,0,0-.486-4.6A20.086,20.086,0,0,0,61.4,62.068Z"/><path class="cls-6" d="M60.241,69.45a4.356,4.356,0,0,1-.212,1.957c-.2.627-.419,1.225-.585,1.845a16.793,16.793,0,0,0-.648,3.731,9.215,9.215,0,0,0,.515,3.675,16.568,16.568,0,0,0,1.917,3.314,10.443,10.443,0,0,1-2.45-3.087,8.158,8.158,0,0,1-.734-3.937A12.587,12.587,0,0,1,58.9,73.07c.238-.613.522-1.213.79-1.793A4.936,4.936,0,0,0,60.241,69.45Z"/><path class="cls-6" d="M62.407,75.929a1.122,1.122,0,0,1,.662.78c.108.328.228.653.319.988a14.117,14.117,0,0,1,.363,2.05,13.158,13.158,0,0,1-1.83,8.039A10.9,10.9,0,0,1,59.2,90.891a16.952,16.952,0,0,0,3.553-7.145,17.49,17.49,0,0,0,.427-3.968,14.578,14.578,0,0,0-.148-2.009c-.033-.337-.1-.67-.15-1.005A1.132,1.132,0,0,0,62.407,75.929Z"/><path class="cls-6" d="M59.431,82.087c-.155,1.282-.391,2.543-.638,3.8a9.816,9.816,0,0,0-.288,3.675,12.146,12.146,0,0,0,1.158,3.52c.542,1.14,1.207,2.236,1.812,3.375a20.106,20.106,0,0,1-2.322-3.1,9.947,9.947,0,0,1-1.393-3.69,7.3,7.3,0,0,1,.005-2.014,13.764,13.764,0,0,1,.468-1.9C58.6,84.521,58.974,83.294,59.431,82.087Z"/><path class="cls-6" d="M62.334,86.748a22.086,22.086,0,0,1,.628,7.411,13.388,13.388,0,0,1-.9,3.657,9.407,9.407,0,0,1-2.042,3.13,16.364,16.364,0,0,0,2.2-6.867A67.86,67.86,0,0,0,62.334,86.748Z"/><path class="cls-6" d="M59.6,93.575a17.827,17.827,0,0,1-.321,1.866c-.145.612-.3,1.214-.39,1.818a11.224,11.224,0,0,0-.131,1.812,7.782,7.782,0,0,0,.223,1.78,23.669,23.669,0,0,0,1,3.531c.469,1.081,1.391,2.106,1.59,3.386-.5-1.169-1.456-1.972-2.107-3.127A15.04,15.04,0,0,1,58.249,101a7.97,7.97,0,0,1-.2-1.945,8.523,8.523,0,0,1,.277-1.919C58.663,95.889,59.185,94.767,59.6,93.575Z"/><path class="cls-6" d="M61.576,97.765a20.254,20.254,0,0,1,1.313,1.8,8.493,8.493,0,0,1,.8,2.111,10.322,10.322,0,0,1-.014,4.507,14.314,14.314,0,0,1-1.68,4.155,22.009,22.009,0,0,1-2.631,3.567c.735-1.278,1.489-2.534,2.12-3.84a18.466,18.466,0,0,0,1.456-4.042,11.87,11.87,0,0,0,.183-4.238,8.239,8.239,0,0,0-.564-2.062C62.29,99.052,61.884,98.439,61.576,97.765Z"/><path class="cls-6" d="M60.263,105.941c-.519,2.292-1.453,4.5-1.339,6.726a7.422,7.422,0,0,0,.889,3.19,19.143,19.143,0,0,0,1.956,2.853,10.306,10.306,0,0,1-2.464-2.558,6.824,6.824,0,0,1-1.132-3.449,9.3,9.3,0,0,1,.623-3.55A26.321,26.321,0,0,1,60.263,105.941Z"/><path class="cls-6" d="M62.271,110.135c.143-.143.36.012.45.146a1.342,1.342,0,0,1,.188.489c.089.325.159.657.22.99a13.646,13.646,0,0,1,.147,2.032,14.363,14.363,0,0,1-.639,4.022,17.418,17.418,0,0,1-1.663,3.7,24.9,24.9,0,0,1-2.3,3.3c.594-1.2,1.224-2.377,1.787-3.574a27.226,27.226,0,0,0,1.455-3.654,19.935,19.935,0,0,0,.783-3.833,13.873,13.873,0,0,0,.064-1.967c0-.329-.018-.66-.051-.991a1.222,1.222,0,0,0-.088-.464C62.568,110.209,62.436,110.037,62.271,110.135Z"/><path class="cls-6" d="M59.165,116.562a29.032,29.032,0,0,0-.029,6.677,15.064,15.064,0,0,0,2.633,6.046,10.636,10.636,0,0,1-2.193-2.645,9.668,9.668,0,0,1-1.182-3.277A14.358,14.358,0,0,1,59.165,116.562Z"/><path class="cls-6" d="M61.73,120.075c-.154.018-.1.21-.059.3l.19.352c.123.242.234.492.336.747a7.669,7.669,0,0,1,.395,1.6,10.2,10.2,0,0,1-.109,3.284,10.753,10.753,0,0,0-.135,3.09,5.519,5.519,0,0,1-.579,3.18,7.5,7.5,0,0,0-.006-3.129,8.6,8.6,0,0,1-.018-3.282,13.777,13.777,0,0,0,.264-3.091,10.855,10.855,0,0,0-.165-1.552c-.045-.259-.1-.517-.168-.773l-.113-.39C61.538,120.289,61.558,120.048,61.73,120.075Z"/><path class="cls-6" d="M59.4,125.865a16.142,16.142,0,0,0-.967,3.354,15.788,15.788,0,0,0-.14,3.486,5.39,5.39,0,0,1-.6-3.607A5.462,5.462,0,0,1,59.4,125.865Z"/><path class="cls-3" d="M86.978,49.65,113.85,83.669s-2.356,20.739-2.44,32.328.892,14.752-2.548,17.233-29.442,1.181-29.442,1.181L80.141,51.9Z"/><path class="cls-4" d="M86.978,49.65s12.555.584,21.036,7.049,16.962,24.309,18.658,27.2,11.874,26.242,12.116,31.753-1.938,6.822-1.938,6.822-5.491,7.554-10.42,2.887c-10.81-10.237-11.389-26.5-12.358-28.866s-1.18-8.476-1.18-8.476Z"/><path class="cls-5" d="M137.577,118.4,140,125.62a13.916,13.916,0,0,1-3.392,3.673c-1.939,1.312-4.483,3.018-4.483,3.018l-4.847-8.266A10.836,10.836,0,0,1,137.577,118.4Z"/><path class="cls-5" d="M108.983,132.311v6.167s.848.919-7.875.919-16.841.262-20.476,0-1.2-6.037-1.2-6.037S104.622,133.1,108.983,132.311Z"/><path class="cls-6" d="M138.349,127.284a17.232,17.232,0,0,1-.758-2.152c-.235-.7-.5-1.381-.806-2.053a21.708,21.708,0,0,0-2.224-3.835,21.961,21.961,0,0,1,2.561,3.666c.365.654.7,1.33,1,2.02a17.152,17.152,0,0,0,.887,1.985Z"/><path class="cls-6" d="M136.487,128.761A4.538,4.538,0,0,0,135.164,127a10.668,10.668,0,0,1-1.493-1.945,27.753,27.753,0,0,1-2.011-4.383,27.635,27.635,0,0,0,2.325,4.175,10.172,10.172,0,0,0,1.567,1.743,5.078,5.078,0,0,1,1.649,1.938Z"/><path class="cls-6" d="M133.99,130.67c-.72-1.281-1.925-2.318-2.83-3.612a11.35,11.35,0,0,1-1.812-4.28,11.159,11.159,0,0,0,2.111,4.052c.961,1.172,2.241,2.085,3.169,3.442Z"/><polygon class="cls-6" points="105.742 139.195 106.131 133.164 106.495 139.206 105.742 139.195"/><path class="cls-6" d="M102.888,139.075a19.973,19.973,0,0,1-.164-2.976l0-2.938.379,2.913a19.539,19.539,0,0,0,.524,2.842Z"/><path class="cls-6" d="M99.726,139.367a36.427,36.427,0,0,0,.392-5.878,36.864,36.864,0,0,1,.358,5.941Z"/><path class="cls-6" d="M96.851,139.2l.194-2.9.1-1.448a4.091,4.091,0,0,0-.052-1.431,4.17,4.17,0,0,1,.24,1.432l.092,1.448L97.6,139.2Z"/><path class="cls-6" d="M94.467,138.843a25.245,25.245,0,0,0,.182-5.355,25.686,25.686,0,0,1,.569,5.408Z"/><path class="cls-6" d="M91.941,139.146a27.371,27.371,0,0,1-.162-5.851,27.028,27.028,0,0,0,.9,5.7Z"/><polygon class="cls-6" points="88.936 139.415 88.791 133.495 89.688 139.376 88.936 139.415"/><polygon class="cls-6" points="85.768 139.396 86.145 134.083 86.521 139.396 85.768 139.396"/><polygon class="cls-6" points="80.48 139.019 80.582 133.491 81.232 138.982 80.48 139.019"/><polygon class="cls-6" points="80.217 139.229 80.867 133.739 80.968 139.266 80.217 139.229"/><path class="cls-6" d="M86.718,55.553A36.786,36.786,0,0,1,89.257,59.3a15,15,0,0,1,1.033,2.05,4.868,4.868,0,0,1,.32,1.173c.044.4.057.761.072,1.154a6.591,6.591,0,0,1-.329,2.342,11.581,11.581,0,0,1-1.031,2.066,26.878,26.878,0,0,1-2.6,3.7c.72-1.327,1.438-2.64,2.094-3.981a14.9,14.9,0,0,0,.864-2.015,6.04,6.04,0,0,0,.254-2.1c-.008-.357-.018-.751-.051-1.094a4.79,4.79,0,0,0-.255-1c-.237-.684-.564-1.352-.875-2.028C88.1,58.229,87.369,56.917,86.718,55.553Z"/><path class="cls-6" d="M87.5,62.6a20.063,20.063,0,0,0-2.085,4.29,10.572,10.572,0,0,0-.486,4.6,8.228,8.228,0,0,0,1.814,4.192c.961,1.248,2.158,2.378,3.034,3.745C88.664,78.26,87.4,77.275,86.3,76.052A8.571,8.571,0,0,1,84.887,74a8.21,8.21,0,0,1-.7-2.414,9.709,9.709,0,0,1,.691-4.89A13.7,13.7,0,0,1,87.5,62.6Z"/><path class="cls-6" d="M88.66,69.984a4.914,4.914,0,0,0,.555,1.826c.267.581.551,1.18.789,1.794a12.587,12.587,0,0,1,.853,3.878,8.158,8.158,0,0,1-.734,3.937,10.427,10.427,0,0,1-2.45,3.087,16.568,16.568,0,0,0,1.917-3.314,9.2,9.2,0,0,0,.516-3.675,16.853,16.853,0,0,0-.649-3.731c-.165-.62-.381-1.218-.585-1.845A4.356,4.356,0,0,1,88.66,69.984Z"/><path class="cls-6" d="M86.494,76.463a1.132,1.132,0,0,0-.471.835c-.052.335-.117.668-.15,1a14.567,14.567,0,0,0-.148,2.009,17.6,17.6,0,0,0,.427,3.968,16.964,16.964,0,0,0,3.553,7.145A10.916,10.916,0,0,1,86.98,88.32a13.158,13.158,0,0,1-1.83-8.039,14.119,14.119,0,0,1,.364-2.05c.09-.335.21-.66.318-.988A1.122,1.122,0,0,1,86.494,76.463Z"/><path class="cls-6" d="M89.47,82.621c.457,1.207.833,2.434,1.2,3.664a13.814,13.814,0,0,1,.468,1.9,7.3,7.3,0,0,1,.005,2.014,9.953,9.953,0,0,1-1.393,3.69,20.09,20.09,0,0,1-2.322,3.1c.605-1.139,1.271-2.235,1.812-3.375A12.146,12.146,0,0,0,90.4,90.1a9.794,9.794,0,0,0-.288-3.675C89.861,85.164,89.626,83.9,89.47,82.621Z"/><path class="cls-6" d="M86.568,87.282a67.607,67.607,0,0,0,.119,7.331,16.364,16.364,0,0,0,2.2,6.867,9.389,9.389,0,0,1-2.041-3.13,13.39,13.39,0,0,1-.905-3.657A22.06,22.06,0,0,1,86.568,87.282Z"/><path class="cls-6" d="M89.3,94.109c.419,1.191.941,2.314,1.275,3.565a8.459,8.459,0,0,1,.277,1.919,7.873,7.873,0,0,1-.2,1.945,15.037,15.037,0,0,1-1.215,3.637c-.652,1.155-1.612,1.958-2.108,3.127.2-1.28,1.121-2.305,1.59-3.386a23.433,23.433,0,0,0,1-3.531,7.728,7.728,0,0,0,.223-1.781,11.017,11.017,0,0,0-.131-1.812c-.088-.6-.245-1.2-.39-1.817A17.827,17.827,0,0,1,89.3,94.109Z"/><path class="cls-6" d="M87.325,98.3c-.308.674-.714,1.287-.982,1.956a8.27,8.27,0,0,0-.564,2.062,11.87,11.87,0,0,0,.183,4.238,18.485,18.485,0,0,0,1.456,4.042c.631,1.306,1.385,2.561,2.12,3.84a22,22,0,0,1-2.63-3.567,14.317,14.317,0,0,1-1.681-4.155,10.322,10.322,0,0,1-.014-4.507,8.517,8.517,0,0,1,.8-2.111A20.254,20.254,0,0,1,87.325,98.3Z"/><path class="cls-6" d="M88.638,106.475a26.478,26.478,0,0,1,1.468,3.212,9.322,9.322,0,0,1,.622,3.55,6.823,6.823,0,0,1-1.131,3.449,10.328,10.328,0,0,1-2.465,2.558,19.226,19.226,0,0,0,1.957-2.853,7.434,7.434,0,0,0,.888-3.19C90.091,110.969,89.157,108.767,88.638,106.475Z"/><path class="cls-6" d="M86.63,110.669c-.165-.1-.3.074-.354.2a1.241,1.241,0,0,0-.088.464c-.033.33-.047.662-.05.991A13.873,13.873,0,0,0,86.2,114.3a19.935,19.935,0,0,0,.783,3.833,27.034,27.034,0,0,0,1.456,3.653c.562,1.2,1.192,2.371,1.786,3.575a25.061,25.061,0,0,1-2.3-3.3,17.418,17.418,0,0,1-1.663-3.7,14.365,14.365,0,0,1-.639-4.023,13.511,13.511,0,0,1,.148-2.031c.06-.333.131-.665.22-.99a1.34,1.34,0,0,1,.187-.489C86.27,110.681,86.488,110.526,86.63,110.669Z"/><path class="cls-6" d="M89.736,117.1a14.343,14.343,0,0,1,.771,6.8,9.664,9.664,0,0,1-1.181,3.278,10.662,10.662,0,0,1-2.194,2.645,15.086,15.086,0,0,0,2.634-6.046A29.089,29.089,0,0,0,89.736,117.1Z"/><path class="cls-6" d="M87.171,120.609c.172-.027.193.214.167.335l-.113.39c-.068.256-.123.514-.167.773a10.7,10.7,0,0,0-.166,1.551,13.781,13.781,0,0,0,.265,3.092,8.621,8.621,0,0,1-.019,3.282,7.516,7.516,0,0,0-.006,3.129,5.527,5.527,0,0,1-.579-3.18,10.753,10.753,0,0,0-.135-3.09,10.2,10.2,0,0,1-.109-3.284,7.654,7.654,0,0,1,.395-1.6c.1-.255.213-.5.336-.747l.19-.352C87.274,120.819,87.325,120.626,87.171,120.609Z"/><path class="cls-6" d="M89.505,126.4a5.468,5.468,0,0,1,1.709,3.233,5.386,5.386,0,0,1-.6,3.608,15.8,15.8,0,0,0-.14-3.487A16.1,16.1,0,0,0,89.505,126.4Z"/><path class="cls-6" d="M88.271,51.231a1.154,1.154,0,0,0-.631.723c-.12.316-.25.63-.353.951a14.641,14.641,0,0,0-.559,1.933,17.379,17.379,0,0,0-.409,3.965,16.642,16.642,0,0,0,2,7.707,10.735,10.735,0,0,1-2.034-3.59,13.1,13.1,0,0,1-.119-8.232,14.285,14.285,0,0,1,.779-1.928c.158-.308.341-.6.515-.9A1.136,1.136,0,0,1,88.271,51.231Z"/><path class="cls-6" d="M98.6,62.315a20.086,20.086,0,0,0-2.085,4.29,10.573,10.573,0,0,0-.486,4.6,8.22,8.22,0,0,0,1.814,4.192c.961,1.249,2.158,2.378,3.034,3.745-1.116-1.166-2.377-2.15-3.479-3.374a8.6,8.6,0,0,1-1.414-2.053,8.171,8.171,0,0,1-.7-2.414,9.721,9.721,0,0,1,.69-4.89A13.727,13.727,0,0,1,98.6,62.315Z"/><path class="cls-6" d="M99.759,69.7a4.936,4.936,0,0,0,.554,1.827c.268.58.552,1.18.79,1.794a12.574,12.574,0,0,1,.853,3.878,8.156,8.156,0,0,1-.734,3.936,10.46,10.46,0,0,1-2.45,3.088,16.6,16.6,0,0,0,1.917-3.315,9.212,9.212,0,0,0,.515-3.674,16.812,16.812,0,0,0-.648-3.732c-.166-.619-.381-1.218-.585-1.845A4.354,4.354,0,0,1,99.759,69.7Z"/><path class="cls-6" d="M97.593,76.176a1.132,1.132,0,0,0-.471.835c-.052.335-.117.669-.15,1.005a14.578,14.578,0,0,0-.148,2.009,17.478,17.478,0,0,0,.427,3.968,16.952,16.952,0,0,0,3.553,7.145,10.889,10.889,0,0,1-2.725-3.105,13.154,13.154,0,0,1-1.83-8.039,14.165,14.165,0,0,1,.363-2.05c.091-.335.211-.66.319-.987A1.124,1.124,0,0,1,97.593,76.176Z"/><path class="cls-6" d="M100.569,82.334c.457,1.208.833,2.435,1.2,3.665a13.8,13.8,0,0,1,.468,1.9,7.311,7.311,0,0,1,0,2.015,9.942,9.942,0,0,1-1.393,3.689,20.163,20.163,0,0,1-2.322,3.1c.6-1.14,1.27-2.236,1.812-3.376a12.14,12.14,0,0,0,1.158-3.519,9.82,9.82,0,0,0-.288-3.676C100.96,84.878,100.724,83.616,100.569,82.334Z"/><path class="cls-6" d="M97.666,87a67.86,67.86,0,0,0,.12,7.331,16.364,16.364,0,0,0,2.2,6.867,9.413,9.413,0,0,1-2.042-3.129,13.4,13.4,0,0,1-.9-3.658A22.088,22.088,0,0,1,97.666,87Z"/><path class="cls-6" d="M100.4,93.823c.419,1.191.941,2.313,1.275,3.565a8.506,8.506,0,0,1,.277,1.918,7.965,7.965,0,0,1-.2,1.945,15.047,15.047,0,0,1-1.216,3.638c-.651,1.154-1.612,1.958-2.107,3.127.2-1.281,1.121-2.306,1.59-3.387a23.669,23.669,0,0,0,1-3.531,7.782,7.782,0,0,0,.223-1.78,11.224,11.224,0,0,0-.131-1.812c-.088-.6-.245-1.206-.39-1.818A17.809,17.809,0,0,1,100.4,93.823Z"/><path class="cls-6" d="M98.424,98.012c-.308.674-.714,1.287-.982,1.957a8.216,8.216,0,0,0-.564,2.062,11.866,11.866,0,0,0,.183,4.237,18.493,18.493,0,0,0,1.456,4.043c.631,1.3,1.385,2.561,2.12,3.839a22.044,22.044,0,0,1-2.631-3.566,14.309,14.309,0,0,1-1.68-4.156,10.317,10.317,0,0,1-.014-4.506,8.485,8.485,0,0,1,.8-2.112A20.4,20.4,0,0,1,98.424,98.012Z"/><path class="cls-6" d="M99.737,106.189A26.238,26.238,0,0,1,101.2,109.4a9.308,9.308,0,0,1,.623,3.551A6.821,6.821,0,0,1,100.7,116.4a10.31,10.31,0,0,1-2.464,2.559,19.2,19.2,0,0,0,1.956-2.854,7.421,7.421,0,0,0,.889-3.189C101.19,110.683,100.256,108.48,99.737,106.189Z"/><path class="cls-6" d="M97.729,110.383c-.165-.1-.3.074-.354.2a1.227,1.227,0,0,0-.088.465c-.033.33-.047.661-.051.991a13.859,13.859,0,0,0,.064,1.966,19.961,19.961,0,0,0,.783,3.834,27.213,27.213,0,0,0,1.455,3.653c.563,1.2,1.193,2.37,1.787,3.574a24.956,24.956,0,0,1-2.3-3.3,17.463,17.463,0,0,1-1.663-3.7,14.376,14.376,0,0,1-.639-4.023,13.633,13.633,0,0,1,.147-2.031c.061-.334.131-.665.22-.991a1.349,1.349,0,0,1,.188-.489C97.369,110.4,97.586,110.239,97.729,110.383Z"/><path class="cls-6" d="M100.835,116.809a14.36,14.36,0,0,1,.771,6.8,9.661,9.661,0,0,1-1.182,3.277,10.636,10.636,0,0,1-2.193,2.645,15.064,15.064,0,0,0,2.633-6.046A29.032,29.032,0,0,0,100.835,116.809Z"/><path class="cls-6" d="M98.27,120.322c.172-.027.192.214.167.336l-.113.389c-.068.256-.123.515-.168.773a10.855,10.855,0,0,0-.165,1.552,13.777,13.777,0,0,0,.264,3.091,8.607,8.607,0,0,1-.018,3.283,7.5,7.5,0,0,0-.006,3.128,5.517,5.517,0,0,1-.579-3.179,10.758,10.758,0,0,0-.135-3.091,10.2,10.2,0,0,1-.109-3.284,7.669,7.669,0,0,1,.395-1.6c.1-.255.213-.5.336-.747l.19-.351C98.373,120.532,98.424,120.34,98.27,120.322Z"/><path class="cls-6" d="M100.6,126.112a5.462,5.462,0,0,1,1.709,3.233,5.39,5.39,0,0,1-.6,3.607,15.79,15.79,0,0,0-.14-3.486A16.142,16.142,0,0,0,100.6,126.112Z"/><path class="cls-5" d="M76.726,50.621v88.892a6.4,6.4,0,0,0,2.694,1.08c2.132.524,3.4-1.593,3.4-1.593l.9-88.352Z"/><path class="cls-5" d="M59.648,50.315,68.1,44.966a11.882,11.882,0,0,0,4.8,3.382L79.735,50.6,72.9,60.287C72.066,61.337,59.648,50.315,59.648,50.315Z"/><ellipse class="cls-6" cx="80.085" cy="59.636" rx="1.736" ry="1.64"/><path class="cls-5" d="M100.541,50.315l-8.453-5.349a11.882,11.882,0,0,1-4.8,3.382L80.454,50.6l6.836,9.69C88.123,61.337,100.541,50.315,100.541,50.315Z"/><ellipse class="cls-6" cx="80.085" cy="75.929" rx="1.736" ry="1.64"/><ellipse class="cls-6" cx="80.085" cy="94.381" rx="1.736" ry="1.64"/><ellipse class="cls-6" cx="79.735" cy="112.86" rx="1.736" ry="1.64"/><ellipse class="cls-6" cx="79.735" cy="132.311" rx="1.736" ry="1.64"/><path class="cls-6" d="M133.374,8.4s-3.029-3.233-1.257-4.1,2.551,3.386,2.551,3.386,1.093-4.523,2.6-3.843c2.776,1.248-1.762,4.55-1.762,4.55s4.175-2.272,4.475.021-4.2.467-4.2.467,4.573,1.619,4.114,3.564-4.53-2.28-4.53-2.28,2.976,4.458.746,4.6c-2,.129-1.79-4.25-1.79-4.25s-1.165,4.732-3.088,3.683c-2.255-1.231,2.175-4.211,2.175-4.211s-5.2,1.095-4.6-1.49C129.3,6.367,133.374,8.4,133.374,8.4Z"/><path class="cls-6" d="M29.763,7.521S30.08,3.1,31.921,3.814s-.753,4.171-.753,4.171,4.062-2.268,4.589-.7c.968,2.885-4.537,1.8-4.537,1.8s4.5,1.523,3.023,3.3-3.2-2.771-3.2-2.771,1.916,4.457.178,5.441-1.4-4.875-1.4-4.875-1.253,5.212-2.873,3.673c-1.451-1.379,1.905-4.2,1.905-4.2s-4.265,2.358-4.8.233c-.628-2.491,4.568-1.261,4.568-1.261s-4.332-3.073-2.029-4.389C28.492,3.149,29.763,7.521,29.763,7.521Z"/><path class="cls-7" d="M32.759,10.218C50.136,20.7,78.6,23.1,95.673,20.1c24.979-4.382,39.888-11.383,39.888-11.383"/></svg>