<svg id="word" xmlns="http://www.w3.org/2000/svg" xmlns:xlink="http://www.w3.org/1999/xlink" viewBox="0 0 160 160"><defs><style>.cls-1,.cls-3,.cls-4{fill:none;}.cls-2{clip-path:url(#clip-path);}.cls-3{stroke:#9c4c9c;stroke-width:3.028px;}.cls-3,.cls-4{stroke-miterlimit:10;}.cls-4{stroke:#534741;stroke-linecap:round;stroke-width:6.056px;}.cls-5{fill:#534741;}.cls-6{fill:#a82e34;}.cls-6,.cls-7{stroke:#9d4b9c;}.cls-7{fill:#bba243;}.cls-8{fill:#a06b84;}</style><clipPath id="clip-path"><rect class="cls-1" x="14" y="224" width="132" height="132"/></clipPath></defs><g class="cls-2"><line class="cls-3" x1="131.698" y1="158.298" x2="134.319" y2="253.761"/><line class="cls-4" x1="225.505" y1="-5.393" x2="53.13" y2="295.955"/><polygon class="cls-5" points="242.121 78.848 248.104 68.415 242.121 68.411 242.121 68.404 224.478 68.404 224.478 80.082 224.142 80.664 213.002 80.664 213.002 98.258 205.127 98.258 205.127 115.836 203.796 115.902 194.623 115.902 194.832 133.672 193.609 133.545 183.147 133.545 183.147 151.188 173.811 151.188 173.811 167.834 173.235 168.832 163.308 168.832 163.308 186.025 163.048 186.475 151.832 186.475 151.832 204.118 143.01 204.118 143.01 221.179 142.674 221.762 132.507 221.762 132.507 239.37 132.487 239.405 121.031 239.405 121.031 256.999 113.156 256.999 113.156 272.885 113.164 274.643 102.653 274.643 102.653 291.076 102.636 292.286 91.177 292.286 91.177 309.929 81.84 309.929 81.84 327.121 81.58 327.573 71.337 327.573 71.337 344.362 70.807 345.216 59.861 345.216 59.861 362.859 77.504 362.859 79.255 362.859 119.726 292.286 129.843 274.643 150.05 239.405 150.15 239.405 150.15 239.23 160.168 221.762 160.654 220.914 180.403 186.475 190.52 168.832 200.791 150.922 210.755 133.545 212.267 130.91 220.873 115.902 222.77 112.594 241.08 80.664 242.121 78.848"/><line class="cls-3" x1="151.117" y1="122.615" x2="154.613" y2="214.367"/></g><polygon class="cls-6" points="50 45.926 74.952 111.116 144 119 115.447 63.601 50 45.926"/><path class="cls-6" d="M30.973,110.777c0-1.941,20.644-58.193,20.644-58.193L50,45.926,25.309,111.094Z"/><path class="cls-7" d="M23.333,109.644l23.58-58.815s.922-7.276,2.767-6.168,2.239,4.586,2.239,4.586l23.448,62-3.029,1.265L49.811,50.2,25.44,111.568Z"/><path class="cls-8" d="M57.057,58.144l2.683.507c1.7.344,4.144.795,7.058,1.407s6.321,1.292,9.955,2.093L88.14,64.656,99.5,67.29c3.626.837,6.993,1.695,9.888,2.391s5.291,1.343,6.976,1.765l2.641.7-2.683-.506c-1.7-.344-4.145-.794-7.058-1.406s-6.322-1.29-9.955-2.094L87.92,65.63,76.562,63c-3.626-.839-6.993-1.7-9.888-2.391S61.382,59.262,59.7,58.84Z"/><path class="cls-8" d="M61.206,70.956l2.745.451c1.742.307,4.239.707,7.221,1.258s6.468,1.158,10.189,1.883l11.658,2.265,11.632,2.395c3.713.76,7.164,1.547,10.129,2.182s5.423,1.232,7.149,1.618l2.706.641-2.744-.45c-1.743-.307-4.24-.706-7.222-1.257s-6.468-1.156-10.188-1.884L92.823,77.792,81.191,75.4c-3.713-.763-7.164-1.547-10.129-2.183s-5.423-1.231-7.149-1.618Z"/><path class="cls-8" d="M71.778,99.9l2.8.261c1.78.187,4.328.414,7.377.759s6.609.71,10.415,1.178l11.926,1.459,11.909,1.589c3.8.5,7.339,1.051,10.376,1.481s5.56.856,7.33,1.124l2.777.453-2.8-.26c-1.78-.187-4.328-.413-7.376-.758s-6.61-.709-10.415-1.179l-11.926-1.46-11.909-1.59c-3.8-.506-7.339-1.051-10.376-1.481s-5.561-.856-7.33-1.123Z"/><path class="cls-8" d="M65.751,86.14l2.725.256c1.732.184,4.21.407,7.176.745s6.429.7,10.13,1.16l11.6,1.437,11.582,1.568c3.7.5,7.137,1.037,10.091,1.462s5.407.846,7.128,1.109l2.7.449-2.726-.256c-1.731-.183-4.21-.4-7.175-.744s-6.429-.7-10.131-1.16l-11.6-1.438L85.671,89.16c-3.7-.5-7.137-1.038-10.092-1.463s-5.407-.845-7.128-1.109Z"/><path class="cls-8" d="M62.392,51.027l1.218,2.612c.756,1.671,1.872,4.043,3.146,6.916s2.792,6.213,4.35,9.82,3.222,7.453,4.886,11.3c1.622,3.864,3.244,7.728,4.764,11.351s2.875,7.032,4.069,9.939,2.126,5.358,2.808,7.06l1.039,2.689L87.454,110.1c-.756-1.671-1.874-4.041-3.147-6.915s-2.794-6.212-4.349-9.82l-4.885-11.3c-1.622-3.865-3.244-7.729-4.764-11.352s-2.875-7.031-4.069-9.939-2.126-5.357-2.808-7.06C62.77,52.005,62.392,51.027,62.392,51.027Z"/><path class="cls-8" d="M78.1,55.179,79.528,57.7c.89,1.616,2.2,3.906,3.7,6.688s3.289,6.01,5.135,9.5,3.82,7.219,5.791,10.946c1.931,3.747,3.863,7.494,5.674,11.007s3.438,6.824,4.865,9.646,2.555,5.2,3.373,6.858c.8,1.663,1.255,2.614,1.255,2.614l-1.427-2.524c-.89-1.616-2.2-3.906-3.7-6.688s-3.291-6.009-5.135-9.5S95.24,89.03,93.268,85.3c-1.931-3.747-3.862-7.5-5.673-11.007s-3.437-6.825-4.864-9.647-2.557-5.2-3.374-6.857Z"/><path class="cls-8" d="M96.774,61.7l1.325,2.31c.825,1.48,2.038,3.575,3.431,6.123s3.048,5.5,4.755,8.706,3.533,6.617,5.356,10.031l5.238,10.093c1.676,3.219,3.17,6.26,4.486,8.848s2.352,4.777,3.105,6.3l1.153,2.4L124.3,114.2c-.825-1.48-2.04-3.574-3.431-6.122s-3.051-5.5-4.756-8.707l-5.354-10.031-5.238-10.093c-1.674-3.22-3.17-6.261-4.485-8.849s-2.353-4.776-3.106-6.294Z"/></svg>