<svg id="word" xmlns="http://www.w3.org/2000/svg" viewBox="0 0 160 160"><defs><style>.cls-1{fill:#94ad58;}.cls-2{fill:#80a85b;}.cls-3{fill:#89af77;}.cls-4{fill:#f3e49c;}.cls-4,.cls-5,.cls-6{stroke:#9d4b9c;stroke-width:0.934px;}.cls-5{fill:#f1c880;}.cls-6{fill:none;}.cls-7{fill:#4d4d4f;}.cls-8{fill:#9d4b9c;}</style></defs><path class="cls-1" d="M152.728,100.259l-.105-.024a20.825,20.825,0,0,0-4.6-.588c-1.418.142-4.061.279-3.781-.143s1.172-.917.709-1.153-2.522.225-3.218.424a3.258,3.258,0,0,1-2.483-.371c-.5-.444-.14-.945.217-1.143a3.774,3.774,0,0,0,1.06-.414c.268-.224.921-.438.154-.694a7.627,7.627,0,0,0-2.179-.131c-.449-.028-.828-.173-.79-.6s-.679-.229-1.785-.347-3.1.206-3.087-.665.689-.941.007-1.274-3.355-1.78-2.14-3.039,2.753-.34,3.941.243,2.705,1.355,2.811.817.579-.906-.467-1.313-2.819-.384-2.621-.8.522-.618-.175-.684-3-.641-2.855-1.4,1.091-.355.758-.959-2.034-2.669-.651-2.908,3.379,2.329,4.076,2.094-.121-1.58-.853-2.059-1.221-1.3-.625-1.528.844.013.844.013-1.459-2,.091-2.258a2,2,0,0,1,2.137,1.2s1.309-1.87,1.463-.484-.253,3.585.556,2.881.962-2.408,2.019-1.53-.189,2.465.162,2.9.932-.369.435,1S140.6,87.839,141.4,88.1s1.662-3.914,2.486-4.548,2.174-1.516,2.058-.006-.531,2.095-.1,2.389a1.234,1.234,0,0,1,.126,1.781c-.534.75-1.092,1.091-.776,1.319s.531.389.079,1.2-1.251,2.924-.387,2.872.346-2.013,1.039-2.25,2.3-.875,2.006.885-.851,3.515-.408,3.878.364-.432.875-.285-.09,1.52.405,2.235a8.617,8.617,0,0,0,3.1,2.178,9.414,9.414,0,0,1,1.567.721Z"/><path class="cls-2" d="M81.86,91.74s-.028.027-.076.083A23.043,23.043,0,0,0,78.9,95.651c-.61,1.325-1.858,3.739-2.078,3.3s-.182-1.455-.627-1.15a9.512,9.512,0,0,0-1.3,3.057,3.576,3.576,0,0,1-1.6,2.042c-.644.242-.891-.3-.877-.707a3.819,3.819,0,0,0,.19-1.13c-.056-.337.1-1.016-.517-.446a8.187,8.187,0,0,0-1.238,1.879c-.257.382-.581.656-.93.434s-.547.5-1.222,1.43-1.427,2.855-2.169,2.45-.457-1.037-1.09-.58-3.274,2.184-3.732.54,1.129-2.606,2.247-3.4,2.569-1.8,2.159-2.135-.484-.924-1.374-.176-1.789,2.339-2.042,1.978-.264-.745-.687-.156-2.1,2.384-2.684,1.913.262-1.132-.43-1.107-3.354.61-2.845-.73,3.753-1.958,3.91-2.681-1.421-.606-2.216-.17-1.75.5-1.637-.128.442-.748.442-.748-2.479.4-1.894-1.1a2.153,2.153,0,0,1,2.131-1.363s-.934-2.009.339-1.52,2.961,1.838,2.777.8-1.586-1.936-.278-2.483,2.027,1.274,2.589,1.161.16-1,1.084.06,1.575,2.161,2.214,1.57S63,93.12,62.878,92.1s-.182-2.618,1.058-1.835,1.532,1.414,2.009,1.161a1.171,1.171,0,0,1,1.6.691c.377.813.377,1.466.74,1.284s.608-.294,1.073.472,1.875,2.427,2.282,1.635-1.562-1.214-1.405-1.937.434-2.437,1.8-1.388,2.589,2.339,3.13,2.108-.182-.517.209-.905,1.262.759,2.134.642a9.392,9.392,0,0,0,3.48-1.777,10.656,10.656,0,0,1,1.436-1.073Z"/><path class="cls-3" d="M132.576,97.313s-.025.013-.075.033a18.111,18.111,0,0,0-3.061,1.645c-.805.665-2.37,1.853-2.37,1.52s.339-.954-.045-.879a7.383,7.383,0,0,0-1.8,1.57,2.817,2.817,0,0,1-1.671.86c-.488-.016-.475-.42-.337-.667a2.808,2.808,0,0,0,.478-.653c.071-.228.383-.61-.195-.417a6.374,6.374,0,0,0-1.386.857c-.287.173-.575.258-.735.031s-.511.167-1.232.572-1.817,1.413-2.169.97.035-.765-.517-.644-2.8.515-2.566-.628,1.545-1.332,2.515-1.543,2.214-.455,2.055-.773-.017-.7-.824-.462-1.888,1-1.934.706.062-.533-.391-.274-2.1.945-2.33.5.526-.637.072-.8-2.345-.487-1.6-1.189,3.026-.252,3.356-.667-.726-.74-1.371-.672-1.283-.138-1.016-.5.525-.356.525-.356-1.722-.391-.875-1.17a1.646,1.646,0,0,1,1.8-.3s.03-1.5.694-.858,1.327,1.907,1.531,1.214-.405-1.617.6-1.62.9,1.319,1.3,1.393.421-.58.678.318.333,1.753.931,1.548-.6-2.668-.356-3.336.708-1.676,1.258-.87.538,1.279.924,1.247a.752.752,0,0,1,.809.843c-.014.606-.218,1.012.069.99s.488-.026.546.57.44,2,.949,1.611-.624-1.16-.292-1.57,1.046-1.413,1.595-.4.928,2.129,1.346,2.121.044-.369.418-.508.575.8,1.172.954a7.286,7.286,0,0,0,2.794-.21,8.214,8.214,0,0,1,1.26-.3Z"/><path class="cls-3" d="M40.824,89.721s-.043.016-.124.043a25.013,25.013,0,0,0-4.953,2.341c-1.275,1.01-3.757,2.791-3.8,2.23s.44-1.567-.2-1.5-2.291,1.777-2.825,2.391a3.933,3.933,0,0,1-2.714,1.223.778.778,0,0,1-.664-1.18,3.636,3.636,0,0,0,.719-1.044c.088-.369.566-.971-.386-.727a8.754,8.754,0,0,0-2.23,1.244c-.463.253-.944.359-1.24-.051s-.842.21-2.009.792-2.879,2.13-3.537,1.324-.051-1.291-.972-1.164-4.659.467-4.434-1.433S13.883,92.18,15.5,91.97s3.689-.457,3.375-1.014-.13-1.184-1.465-.9-3.057,1.41-3.174.91c-.133-.5.027-.894-.7-.517s-3.43,1.293-3.878.5.8-1,.011-1.346-4.045-1.165-2.873-2.244,5.095.009,5.594-.64S11.05,85.361,9.967,85.38s-2.2-.415-1.793-1,.839-.523.839-.523-2.973-.911-1.646-2.112a2.711,2.711,0,0,1,3.01-.245s-.163-2.524,1.056-1.351,2.514,3.425,2.766,2.28-.919-2.8.8-2.656,1.713,2.363,2.395,2.546.627-.919,1.192.635.809,3.021,1.8,2.756-1.393-4.6-1.075-5.695.964-2.739,2.01-1.293,1.094,2.241,1.743,2.244a1.553,1.553,0,0,1,1.488,1.546c.061,1.02-.228,1.68.256,1.685s.822.028,1.006,1.048,1.023,3.442,1.833,2.858-1.217-2.052-.718-2.7,1.578-2.234,2.648-.449,1.875,3.738,2.582,3.787.022-.618.641-.8,1.081,1.441,2.115,1.787a12.135,12.135,0,0,0,4.708.045,13.051,13.051,0,0,1,2.094-.32Z"/><path class="cls-4" d="M58.784,98.705c-9.349-1.6-15.271-4.1-19.77-7.4-9.94-7.29-10.271-24.188-7.62-29.82s9.277-13.253,17.229-15.241,35.452-5.964,35.452-5.964c38.1,0,43.074,14.909,46.718,30.813s-19.88,25.513-36.446,28.5a47.4,47.4,0,0,1-10.382,1.1l-1.1-21.2Z"/><polygon class="cls-5" points="59.226 67.45 58.563 98.926 82.75 80.04 82.087 57.178 59.226 67.45"/><path class="cls-6" d="M58.784,67.56s-13.033-4.2-12.812-10.382,7.731-10.6,17.671-11.486,25.623-2.209,34.9,0,16.124,3.755,18.775,8.615,1.546,8.835-7.51,11.044S82.2,69.99,82.2,69.99V57.178Z"/><path class="cls-7" d="M54.717,71.44s2.76-1.782,3.028-1.025-2.288,1.732-2.9,1.911S53.461,72.139,54.717,71.44Z"/><path class="cls-7" d="M67.776,57.694s2.115.033,2.108.8-1.81.181-2.23,0S66.84,57.588,67.776,57.694Z"/><path class="cls-7" d="M69.721,54.651s2.6-.241,2.51.39-2.248.379-2.745.282S68.58,54.682,69.721,54.651Z"/><path class="cls-7" d="M71.547,56.794s1.478.8,1.193,1.335-1.342-.537-1.57-.82S70.927,56.375,71.547,56.794Z"/><path class="cls-7" d="M84.215,54.526s-2.717,1.848-3,1.1,2.246-1.786,2.853-1.981S85.453,53.8,84.215,54.526Z"/><path class="cls-7" d="M67.811,51.62s-2.115.018-2.127-.745,1.806-.225,2.23-.052S68.749,51.7,67.811,51.62Z"/><path class="cls-7" d="M65.939,54.708s-2.592.3-2.518-.329,2.238-.433,2.737-.347S67.08,54.65,65.939,54.708Z"/><path class="cls-7" d="M64.062,52.61s-1.5-.763-1.224-1.306,1.354.5,1.589.783S64.693,53.014,64.062,52.61Z"/><path class="cls-7" d="M49.564,58.068s2.761-1.783,3.029-1.026-2.289,1.732-2.9,1.912S48.308,58.766,49.564,58.068Z"/><path class="cls-7" d="M58.813,58.568s2.115.033,2.109.8-1.811.181-2.231,0S57.877,58.462,58.813,58.568Z"/><path class="cls-7" d="M40.837,64.468s2.6-.242,2.51.389-2.248.38-2.746.282S39.7,64.5,40.837,64.468Z"/><path class="cls-7" d="M62.585,57.669s1.477.8,1.192,1.335-1.342-.538-1.57-.821S61.964,57.25,62.585,57.669Z"/><path class="cls-7" d="M61.516,54.374s-2,1.155-2.36.473,1.617-1.175,2.1-1.247S62.447,53.944,61.516,54.374Z"/><path class="cls-7" d="M49.514,69.9s-2.115.019-2.127-.745,1.806-.225,2.23-.052S50.452,69.987,49.514,69.9Z"/><path class="cls-7" d="M56.314,61.381s-2.593.3-2.519-.329,2.239-.433,2.738-.347S57.454,61.323,56.314,61.381Z"/><path class="cls-7" d="M55.1,53.485s-1.5-.764-1.224-1.306,1.355.5,1.59.782S55.73,53.888,55.1,53.485Z"/><path class="cls-7" d="M59.341,50.205s1.555-.635,1.788-.075-1.267.7-1.63.693S58.623,50.419,59.341,50.205Z"/><path class="cls-7" d="M61.207,63.312s-2.114.018-2.126-.746,1.806-.224,2.229-.051S62.146,63.4,61.207,63.312Z"/><path class="cls-7" d="M76.783,48.683s-1.666-.218-1.591-.82,1.445.021,1.76.2S77.513,48.851,76.783,48.683Z"/><path class="cls-7" d="M63.333,90.073s2.847-1.838,3.123-1.058S64.1,90.8,63.465,90.986,62.038,90.793,63.333,90.073Z"/><path class="cls-7" d="M76.5,61.789s2.181.034,2.174.821-1.867.187-2.3,0S75.529,61.679,76.5,61.789Z"/><path class="cls-7" d="M68.4,74.224s2.681-.249,2.589.4-2.319.391-2.831.29S67.218,74.256,68.4,74.224Z"/><path class="cls-7" d="M48.079,74.446s1.524.824,1.23,1.377-1.384-.555-1.619-.847S47.439,74.014,48.079,74.446Z"/><path class="cls-7" d="M79.619,73.712s-2.8,1.906-3.1,1.132S78.839,73,79.465,72.8,80.9,72.96,79.619,73.712Z"/><path class="cls-7" d="M76.2,70.1s-2.181.019-2.193-.769,1.862-.232,2.3-.053S77.167,70.19,76.2,70.1Z"/><path class="cls-7" d="M37.989,75.608s-2.674.314-2.6-.339,2.308-.447,2.823-.359S39.164,75.548,37.989,75.608Z"/><path class="cls-7" d="M67.2,70.794s-1.543-.788-1.263-1.347,1.4.521,1.64.807S67.848,71.21,67.2,70.794Z"/><path class="cls-7" d="M42.186,80.932s2.847-1.837,3.124-1.057-2.361,1.786-2.991,1.971S40.891,81.653,42.186,80.932Z"/><path class="cls-7" d="M39.42,70.477s2.181.034,2.174.821-1.867.187-2.3,0S38.455,70.367,39.42,70.477Z"/><path class="cls-7" d="M44.905,89.7s2.68-.249,2.589.4-2.319.391-2.831.29S43.728,89.736,44.905,89.7Z"/><path class="cls-7" d="M43.309,69.549s1.524.825,1.23,1.377-1.384-.554-1.619-.846S42.669,69.117,43.309,69.549Z"/><path class="cls-7" d="M73.352,80.4s-2.066,1.191-2.433.488,1.667-1.212,2.164-1.287S74.312,79.955,73.352,80.4Z"/><path class="cls-7" d="M64.637,80.614s-2.181.019-2.193-.769,1.862-.231,2.3-.053S65.605,80.7,64.637,80.614Z"/><path class="cls-7" d="M52.767,84.462s-2.673.314-2.6-.34,2.308-.447,2.823-.358S53.943,84.4,52.767,84.462Z"/><path class="cls-7" d="M35.59,65.234s-1.543-.787-1.263-1.346,1.4.52,1.64.807S36.24,65.651,35.59,65.234Z"/><path class="cls-7" d="M52.6,94.122s1.6-.655,1.844-.077-1.306.718-1.681.715S51.859,94.343,52.6,94.122Z"/><path class="cls-7" d="M90.868,48.233s-2.181.019-2.193-.769,1.862-.232,2.3-.053S91.836,48.319,90.868,48.233Z"/><path class="cls-7" d="M114.384,78.025s-1.718-.224-1.641-.845,1.491.021,1.815.21S115.136,78.2,114.384,78.025Z"/><path class="cls-7" d="M105.576,81.049s2.761-1.782,3.029-1.026-2.289,1.732-2.9,1.912S104.32,81.748,105.576,81.049Z"/><path class="cls-7" d="M109.673,68.177s2.114.033,2.108.8-1.811.181-2.23,0S108.737,68.071,109.673,68.177Z"/><path class="cls-7" d="M91.7,74.076s2.6-.241,2.51.39-2.248.38-2.745.282S90.555,74.107,91.7,74.076Z"/><path class="cls-7" d="M102.361,76.033s-2.114.018-2.126-.745,1.805-.225,2.229-.052S103.3,76.117,102.361,76.033Z"/><path class="cls-7" d="M107.173,70.99s-2.592.3-2.518-.329,2.238-.434,2.737-.348S108.314,70.931,107.173,70.99Z"/><path class="cls-7" d="M112.067,72.92s-2.115.019-2.127-.745,1.806-.225,2.23-.052S113.005,73,112.067,72.92Z"/><path class="cls-7" d="M98.939,84.054s1.523.825,1.23,1.377-1.384-.554-1.62-.846S98.3,83.622,98.939,84.054Z"/><path class="cls-7" d="M88.848,85.217s-2.674.313-2.6-.34,2.308-.447,2.823-.358S90.024,85.156,88.848,85.217Z"/><path class="cls-7" d="M93.046,90.541s2.847-1.838,3.123-1.058-2.36,1.786-2.991,1.972S91.751,91.262,93.046,90.541Z"/><path class="cls-7" d="M90.28,80.086s2.18.033,2.174.821-1.868.187-2.3,0S89.314,79.976,90.28,80.086Z"/><path class="cls-7" d="M87.978,95.668s2.681-.249,2.589.4-2.319.391-2.831.29S86.8,95.7,87.978,95.668Z"/><path class="cls-7" d="M94.169,79.158s1.524.824,1.23,1.377-1.384-.555-1.62-.847S93.529,78.726,94.169,79.158Z"/><path class="cls-7" d="M103.627,94.07s-2.674.314-2.6-.339,2.309-.447,2.823-.358S104.8,94.01,103.627,94.07Z"/><path class="cls-7" d="M86.45,74.843s-1.544-.787-1.263-1.347,1.4.521,1.639.807S87.1,75.259,86.45,74.843Z"/><path class="cls-7" d="M113.233,86.17s1.6-.655,1.844-.077-1.306.718-1.681.715S112.493,86.391,113.233,86.17Z"/><path class="cls-3" d="M105.479,60.858h-.08a17.142,17.142,0,0,0-3.406.328c-.988.3-2.856.794-2.731.483s.676-.759.3-.841a6.991,6.991,0,0,0-2.231.761,2.725,2.725,0,0,1-1.847.143c-.433-.211-.27-.582-.05-.762a2.785,2.785,0,0,0,.687-.423c.149-.182.579-.415-.018-.465a6.171,6.171,0,0,0-1.584.25c-.326.048-.623.014-.675-.261s-.53-.041-1.339.05-2.189.6-2.337.047.324-.7-.223-.806-2.721-.624-2.08-1.608,1.911-.634,2.866-.446,2.184.45,2.164.093.251-.66-.571-.761-2.093.186-2.024-.105.264-.474-.248-.412-2.266.049-2.3-.455.716-.388.371-.721-1.938-1.385-.99-1.746,2.841.961,3.3.707-.371-.982-.98-1.177-1.111-.635-.723-.874.6-.119.6-.119-1.4-1.05-.337-1.446a1.584,1.584,0,0,1,1.745.432s.6-1.386.957-.528.468,2.315.921,1.744.253-1.675,1.174-1.277.308,1.593.639,1.818.6-.377.489.567-.371,1.773.248,1.818.484-2.737.962-3.263,1.282-1.292,1.471-.315,0,1.407.358,1.532a.775.775,0,0,1,.412,1.108c-.249.558-.59.863-.318.956s.448.165.274.749-.371,2.045.24,1.879-.118-1.327.338-1.583,1.49-.9,1.6.257.026,2.36.407,2.522.181-.328.576-.311.212.974.689,1.355a7.005,7.005,0,0,0,2.62.91,7.585,7.585,0,0,1,1.252.223Z"/><path class="cls-8" d="M135.905,173.105a9.07,9.07,0,0,1-.767-.837,10.694,10.694,0,0,1-1.55-2.519,7.567,7.567,0,0,1-.559-1.908,6.846,6.846,0,0,1,.012-2.212,14.217,14.217,0,0,1,1.2-4.547,4.571,4.571,0,0,1,1.621-1.8,4.987,4.987,0,0,1,2.228-.682,17.8,17.8,0,0,1,2.154,0c.683.033,1.326.09,1.918.156a24.419,24.419,0,0,1,3.892.74,24.307,24.307,0,0,0-3.9-.623c-.591-.049-1.233-.086-1.911-.1a17.83,17.83,0,0,0-2.125.064,4.742,4.742,0,0,0-2.088.7,4.236,4.236,0,0,0-1.451,1.714,13.842,13.842,0,0,0-1.029,4.44,6.275,6.275,0,0,0,.046,2.051,7.01,7.01,0,0,0,.57,1.747,10,10,0,0,0,1.52,2.313,8.372,8.372,0,0,0,.726.748Z"/></svg>