<svg id="word" xmlns="http://www.w3.org/2000/svg" viewBox="0 0 160 160"><defs><style>.cls-1{fill:#ddba31;}.cls-1,.cls-2,.cls-3{stroke:#9c4c9c;stroke-width:1.154px;}.cls-2{fill:#d79431;}.cls-3{fill:#a1c860;}.cls-4{fill:#dfd589;}.cls-5{fill:#9c4c9c;}</style></defs><path class="cls-1" d="M24.279,48.568s-2.289-3.3,7.661-3.7S52.713,51.169,61.959,56.52,82.535,69.968,92.645,74.281s36.5,5.634,49.577,26.248c9.093,14.335,3.208,21.679-6.872,26.842s-30.564.343-55.045-13.164S32.1,78.166,28.526,73.9,20.133,52.107,24.279,48.568Z"/><path class="cls-2" d="M13.33,47.07a6.98,6.98,0,0,1,6.326-1.4A38.378,38.378,0,0,1,27.208,48.5s2.97,3.038,1.448,6.119-2.669,4.612-4.535,3.752-5.89-2.53-5.89-2.53-7.039-1-7.756-3.389S13.33,47.07,13.33,47.07Z"/><path class="cls-3" d="M17.03,48.249s3.177,3.543-.608,5.587c-1.706.922-7,1.664-6.176-2.035S14.932,44.616,17.03,48.249Z"/><path class="cls-4" d="M141.243,122.863a85.867,85.867,0,0,1-8.924-3.407c-3.929-1.833-36.28-17.918-57.243-31.151S31.107,57.652,31.107,57.652s-3.38-2.323-1.336.033c3.959,4.56,27.992,20.6,34.2,25.3a268.385,268.385,0,0,0,31.5,19.99C106.579,108.738,137.159,124.019,141.243,122.863Z"/><path class="cls-4" d="M142.433,120.582c-5.871-28.62-40.41-35.814-53.136-43.18C72.968,67.951,50,49.793,31.9,49.019c0,0-5.071.516-1.179,1.591,4.6,1.272,19.544,7.058,24.069,9.677S77.094,71.66,89.8,80.553s28.464,14.354,40.521,23.838C138.385,110.732,142.961,123.158,142.433,120.582Z"/><path class="cls-4" d="M122.5,122.352C93.879,110.31,43.219,90.075,28.651,61.436c0,0-1.895-3.078-1.373-.355s7.983,14.455,15.013,20.346c16.981,14.227,64.134,38.35,69.467,40.425,18,7.012,22.909,5.342,24.655,4.593S122.5,122.352,122.5,122.352Z"/><path class="cls-4" d="M141.762,121.514c-6.981-5.045-17.049-15.731-24.7-20.567-7.187-4.54-27.738-15.6-35.066-19.855C66.185,71.921,50.149,62.849,33.831,54.755c0,0-2.558-1.481-1.068.482S74.77,80.212,78.108,81.7s34.01,16.386,38.753,20.451,12.654,12.162,15.314,13.92S141.762,121.514,141.762,121.514Z"/><path class="cls-5" d="M34.62,62.691A47.45,47.45,0,0,0,40.8,68.247c2.2,1.68,4.476,3.261,6.789,4.8,4.593,3.11,9.384,6.048,13.6,9.753-2.366-1.491-4.77-2.889-7.149-4.34-2.389-1.434-4.761-2.9-7.091-4.455a68.1,68.1,0,0,1-6.716-5.063A30.1,30.1,0,0,1,34.62,62.691Z"/><path class="cls-5" d="M29.152,51.5A39.624,39.624,0,0,0,38.1,54.036c1.525.327,3.052.67,4.564,1.117a27.3,27.3,0,0,1,4.379,1.776c5.635,2.64,11.248,5.447,16.63,8.6S74.5,71.719,79.76,75.079c2.627,1.686,5.223,3.425,7.752,5.256,2.507,1.862,4.974,3.779,7.3,5.863-2.487-1.882-5.012-3.7-7.618-5.4-2.585-1.73-5.222-3.377-7.9-4.965-5.339-3.19-10.763-6.242-16.193-9.306-2.694-1.586-5.367-3.127-8.13-4.562-2.747-1.452-5.549-2.808-8.315-4.243C41.323,54.56,34.666,54.576,29.152,51.5Z"/><path class="cls-5" d="M38.827,59.959,61.448,72.435c7.544,4.145,15.087,8.288,22.749,12.2,3.826,1.949,7.637,4.028,11.384,6.135s7.51,4.227,11.2,6.457q2.77,1.663,5.517,3.374a51.094,51.094,0,0,1,5.351,3.687c3.3,2.87,5.491,6.715,9.074,9.179-3.739-2.252-6.107-6.111-9.437-8.745a51.815,51.815,0,0,0-5.369-3.5q-2.774-1.642-5.584-3.229c-7.5-4.22-14.973-8.489-22.665-12.335Q72.218,79.652,61.014,73.205L49.871,66.664C46.186,64.434,42.489,62.228,38.827,59.959Z"/><path class="cls-5" d="M52.592,85.629a31.33,31.33,0,0,0,8.482,5.541c3.03,1.509,6.156,2.958,9.1,4.669,2.985,1.627,5.954,3.274,9.02,4.713,1.532.735,3.072,1.384,4.656,2.052,1.583.7,3.109,1.455,4.634,2.224,6.052,3.147,12.031,6.406,18.036,9.6,1.5.791,3,1.6,4.537,2.284s3.13,1.286,4.73,1.857c3.186,1.177,6.457,2.2,9.54,3.662-3.183-1.219-6.458-2.126-9.721-3.126-1.627-.514-3.245-1.073-4.835-1.722s-3.121-1.418-4.655-2.165c-6.106-3.037-12.083-6.306-18.156-9.361-1.507-.78-3.025-1.551-4.55-2.242-1.547-.671-3.139-1.361-4.669-2.115q-4.615-2.253-9.006-4.892c-2.893-1.8-5.912-3.307-8.923-4.938-1.49-.832-2.967-1.7-4.375-2.673A19.162,19.162,0,0,1,52.592,85.629Z"/><path class="cls-5" d="M25.833,58.6a15.853,15.853,0,0,0,2.5,7.334,55.61,55.61,0,0,0,4.446,6.449A80.687,80.687,0,0,0,43.428,83.855,97.635,97.635,0,0,0,56,93.229c2.2,1.416,4.448,2.779,6.745,4.051,2.275,1.312,4.607,2.526,6.944,3.74-2.447-.976-4.835-2.093-7.21-3.241-2.361-1.175-4.667-2.46-6.946-3.8-2.29-1.319-4.473-2.816-6.63-4.346s-4.236-3.176-6.233-4.919A74.9,74.9,0,0,1,32.079,72.911,54.939,54.939,0,0,1,27.842,66.2C26.711,63.83,25.63,61.262,25.833,58.6Z"/><path class="cls-5" d="M28.421,55.254c.735.249,1.474.5,2.2.78l2.153.919c1.4.68,2.78,1.421,4.132,2.2a74.5,74.5,0,0,1,7.709,5.3q3.683,2.876,7.163,5.97l3.484,3.086,3.452,3.128c-1.3-.853-2.549-1.781-3.811-2.69l-3.692-2.84-7.3-5.742q-3.651-2.854-7.473-5.46L34.5,58.641l-1.985-1.19L30.5,56.31C29.805,55.963,29.111,55.618,28.421,55.254Z"/><path class="cls-5" d="M27.645,48.426a4.993,4.993,0,0,1,2.727-1.5,11.646,11.646,0,0,1,3.16-.222,33.866,33.866,0,0,1,6.2,1.115c2.036.525,4,1.158,6.006,1.752a51,51,0,0,1,5.877,2.271A78.605,78.605,0,0,1,62.537,58c1.73,1.171,3.438,2.371,5.094,3.641,1.636,1.3,3.263,2.6,4.794,4.015-1.7-1.211-3.384-2.421-5.124-3.556-1.714-1.17-3.467-2.28-5.24-3.351a107.253,107.253,0,0,0-10.927-5.858A53.021,53.021,0,0,0,45.4,50.609L39.487,48.67a33.969,33.969,0,0,0-6-1.405C31.492,47.01,29.261,47.026,27.645,48.426Z"/></svg>