<svg id="word" xmlns="http://www.w3.org/2000/svg" viewBox="0 0 160 160"><defs><style>.cls-1{fill:#597a65;}.cls-2{fill:#5c6eb3;}.cls-2,.cls-3,.cls-4{stroke:#9d4b9c;stroke-width:0.25px;}.cls-2,.cls-3,.cls-4,.cls-6,.cls-7{stroke-miterlimit:10;}.cls-3{fill:#354d9b;}.cls-4{fill:#5d70b5;}.cls-5{fill:#9d4b9c;}.cls-6{fill:#9db988;}.cls-6,.cls-7{stroke:#9c4c9c;stroke-width:0.75px;}.cls-7{fill:none;}</style></defs><path class="cls-1" d="M99.2,116.411s.7.17,1.925.492,2.97.776,5.055,1.361,4.517,1.272,7.113,2.037l4,1.191,4.12,1.256,4.11,1.29c1.357.42,2.684.863,3.973,1.275,2.574.834,4.971,1.634,7.02,2.337s3.747,1.317,4.94,1.733,1.867.682,1.867.682-.7-.17-1.926-.492-2.97-.775-5.055-1.361-4.517-1.27-7.113-2.036c-1.3-.388-2.641-.772-4-1.192l-4.12-1.257L117,122.437l-3.973-1.276c-2.575-.835-4.971-1.634-7.02-2.337s-3.747-1.316-4.941-1.732S99.2,116.411,99.2,116.411Z"/><path class="cls-1" d="M137.63,120.113a12.66,12.66,0,0,1-1.1,1.15c-.342.327-.754.691-1.208,1.063s-.947.757-1.454,1.122-1.028.712-1.526,1.022-.973.587-1.392.807a12.575,12.575,0,0,1-1.441.673,12.578,12.578,0,0,1,1.1-1.151c.342-.327.754-.691,1.208-1.062s.948-.757,1.455-1.121,1.029-.711,1.527-1.022.973-.587,1.392-.807A12.794,12.794,0,0,1,137.63,120.113Z"/><path class="cls-1" d="M133.834,134.87a8.761,8.761,0,0,1-1.152-1.1,12.534,12.534,0,0,1-1.01-1.276c-.164-.248-.346-.5-.5-.767s-.316-.545-.47-.823-.29-.565-.415-.852-.237-.573-.35-.848a12.592,12.592,0,0,1-.485-1.553,8.836,8.836,0,0,1-.26-1.574s.093.134.237.372.345.578.571.987.491.883.759,1.395l.849,1.595.837,1.6c.271.51.515,1,.724,1.414s.376.772.493,1.028S133.834,134.87,133.834,134.87Z"/><path class="cls-1" d="M127.486,113.457c-.08.21-.175.417-.244.63s-.142.418-.188.637-.109.429-.144.649-.086.432-.11.654c-.129.875-.18,1.76-.222,2.647s-.041,1.779-.06,2.675-.031,1.8-.1,2.712l-.727-.492.7-.379.689-.4.677-.423.66-.45c.43-.315.858-.633,1.276-.965l.612-.516.6-.537.582-.554.561-.577.546-.593.526-.614.51-.63.49-.649c.32-.44.63-.888.935-1.345l-.314.763-.358.744c-.258.487-.531.968-.829,1.435s-.624.916-.964,1.356l-.531.642-.557.623c-.383.4-.787.788-1.2,1.163l-.636.545-.663.512-.685.484-.7.456c-.475.3-.971.556-1.469.81l-.808.41.08-.9c.077-.874.113-1.768.177-2.664s.123-1.8.238-2.7c.055-.45.123-.9.21-1.348s.18-.9.311-1.333c.056-.221.138-.437.208-.654s.167-.426.252-.637.2-.413.307-.614S127.364,113.647,127.486,113.457Z"/><path class="cls-1" d="M121.834,134.721a13.418,13.418,0,0,1,.215-1.627c.085-.482.206-1.037.356-1.625s.324-1.211.522-1.826.415-1.223.638-1.788.445-1.087.656-1.528a13.367,13.367,0,0,1,.775-1.448,13.518,13.518,0,0,1-.214,1.628c-.085.481-.206,1.036-.357,1.624s-.325,1.211-.522,1.826-.418,1.223-.64,1.788-.445,1.087-.656,1.528A13.516,13.516,0,0,1,121.834,134.721Z"/><path class="cls-1" d="M122.222,111.568s.278.771.56,1.945c.146.587.3,1.274.432,2.013s.27,1.529.378,2.323.194,1.59.256,2.34.105,1.451.12,2.055a20.208,20.208,0,0,1-.022,2.024,20.109,20.109,0,0,1-.561-1.945c-.147-.587-.3-1.274-.432-2.013s-.269-1.529-.377-2.323-.192-1.591-.255-2.34-.105-1.451-.12-2.055C122.16,112.385,122.222,111.568,122.222,111.568Z"/><path class="cls-1" d="M122.031,125.741a22.176,22.176,0,0,1-.626,2.428c-.256.8-.54,1.586-.871,2.356s-.687,1.531-1.079,2.273-.822,1.466-1.27,2.176l-.964,1.53.033-1.833c.008-.44,0-.885-.028-1.335s-.088-.9-.156-1.357-.135-.911-.216-1.368l-.242-1.379c-.16-.923-.309-1.857-.394-2.8-.04-.472-.063-.948-.062-1.422,0-.238.02-.476.03-.712s.06-.471.089-.7c.042.471.1.933.179,1.392s.176.912.283,1.364c.21.9.454,1.8.686,2.711s.453,1.825.622,2.765c.079.471.144.948.189,1.431.025.241.031.487.046.73s-.01.494-.015.741l-.93-.3c.454-.681.872-1.384,1.3-2.084q.314-.53.612-1.067l.6-1.078.571-1.094.552-1.108C121.33,127.25,121.675,126.5,122.031,125.741Z"/><path class="cls-1" d="M120.906,109.879a4.3,4.3,0,0,0-.275,1.387c-.01.236-.015.472-.014.71s0,.491-.008.725-.039.492-.059.739c-.037.242-.063.488-.11.728-.078.484-.2.956-.321,1.427-.239.941-.541,1.849-.779,2.76-.113.456-.236.906-.317,1.359-.048.226-.08.453-.11.679s-.043.452-.066.678l-.324,3.118-.684-3.038c-.219-.971-.424-1.945-.636-2.917-.189-.978-.4-1.95-.573-2.932s-.35-1.961-.511-2.945-.3-1.972-.406-2.969c.332.945.616,1.9.906,2.857s.548,1.916.8,2.88.491,1.929.739,2.894c.226.969.457,1.937.676,2.908l-1.008.079a13.333,13.333,0,0,1,.591-2.918c.3-.93.627-1.831.947-2.723.157-.447.3-.9.432-1.346.072-.225.121-.452.183-.679.046-.228.1-.445.138-.685s.079-.465.11-.707.072-.481.128-.72A3.78,3.78,0,0,1,120.906,109.879Z"/><path class="cls-1" d="M125.017,134.057a17.553,17.553,0,0,1-1-1.59c-.281-.486-.588-1.061-.9-1.687s-.625-1.3-.918-1.98-.566-1.373-.8-2.028-.448-1.273-.607-1.811a17.326,17.326,0,0,1-.462-1.822,17.521,17.521,0,0,1,1,1.59c.281.485.588,1.061.9,1.686s.624,1.3.917,1.981.565,1.374.8,2.029.447,1.273.606,1.811A17.47,17.47,0,0,1,125.017,134.057Z"/><path class="cls-1" d="M126.731,111.672s-.095.191-.274.516-.439.782-.76,1.322-.694,1.168-1.105,1.831-.843,1.372-1.279,2.079l-1.3,2.069c-.411.663-.807,1.276-1.15,1.8s-.639.962-.849,1.267-.342.475-.342.475a15.95,15.95,0,0,1,.667-2.012c.229-.593.533-1.268.888-1.976.185-.35.36-.721.573-1.078l.638-1.088.692-1.054c.227-.348.481-.671.713-.992.478-.632.947-1.2,1.377-1.671A15.815,15.815,0,0,1,126.731,111.672Z"/><path class="cls-1" d="M105.594,132.6l.448-.682.483-.662c.334-.43.678-.855,1.033-1.268.713-.826,1.464-1.613,2.217-2.391l1.134-1.157,1.119-1.16q.555-.582,1.085-1.178c.348-.4.694-.8,1.027-1.215l1.644-2.027-.764,2.485q-.2.638-.362,1.285c-.1.433-.213.865-.3,1.3s-.168.876-.236,1.317-.133.884-.184,1.329-.083.892-.119,1.34-.042.9-.06,1.349,0,.9,0,1.357.023.908.045,1.365c-.117-.442-.222-.888-.306-1.339s-.144-.906-.2-1.363-.078-.916-.1-1.377-.022-.922-.009-1.384.041-.923.08-1.385.108-.919.178-1.377.156-.914.263-1.366.226-.9.355-1.345l.88.458c-.341.436-.692.863-1.064,1.269s-.749.8-1.134,1.191c-.772.775-1.577,1.506-2.38,2.232l-2.417,2.157c-.4.363-.8.728-1.186,1.1S105.977,132.215,105.594,132.6Z"/><path class="cls-1" d="M109.531,111.416c.236.805.408,1.629.572,2.449s.3,1.646.425,2.471.248,1.649.366,2.471.225,1.645.367,2.451l.043.244-.178.19c-.64.685-1.309,1.341-1.962,2.013-.327.335-.666.658-1,.988s-.666.659-1.009.979q-1.016.972-2.06,1.917c-.7.624-1.4,1.249-2.141,1.839.564-.757,1.164-1.48,1.763-2.2s1.218-1.428,1.842-2.127c.307-.355.628-.7.943-1.043s.628-.7.952-1.034c.648-.676,1.28-1.368,1.941-2.031l-.135.434c-.124-.84-.234-1.67-.3-2.5s-.146-1.665-.194-2.5C109.656,114.754,109.593,113.091,109.531,111.416Z"/><path class="cls-1" d="M114.136,111.153a12.121,12.121,0,0,1,.157,1.547c.025.462.033,1,.018,1.573s-.042,1.184-.1,1.792-.129,1.215-.219,1.782-.188,1.094-.3,1.545a11.985,11.985,0,0,1-.428,1.494,11.959,11.959,0,0,1-.158-1.546c-.026-.462-.033-1-.019-1.573s.044-1.184.1-1.792.131-1.215.22-1.782.189-1.094.3-1.545A12.094,12.094,0,0,1,114.136,111.153Z"/><path class="cls-1" d="M101.883,128.5l.028-.128a3.05,3.05,0,0,1,.093-.357,4.822,4.822,0,0,1,.2-.543,6.225,6.225,0,0,1,.35-.666,9.884,9.884,0,0,1,1.122-1.491c.448-.506.947-1.01,1.433-1.5.246-.251.47-.494.695-.743s.437-.5.623-.751.368-.5.517-.744.278-.484.391-.711.19-.445.259-.643.112-.377.139-.528c.065-.3.086-.484.086-.484l.035.125a2.253,2.253,0,0,1,.083.363,3.347,3.347,0,0,1,.044.585,4.087,4.087,0,0,1-.086.764,5.672,5.672,0,0,1-.719,1.778,9.283,9.283,0,0,1-1.334,1.705c-.507.517-1.039.986-1.527,1.422s-.93.846-1.3,1.214a11.829,11.829,0,0,0-.839.944Z"/><path class="cls-1" d="M104.67,118.332s.227.9.432,2.264c.108.68.212,1.476.3,2.329.039.427.095.868.125,1.317l.1,1.361.066,1.363c.028.449.025.893.038,1.322.017.858.011,1.66-.014,2.348-.037,1.377-.153,2.3-.153,2.3s-.229-.9-.434-2.264c-.108-.68-.212-1.475-.3-2.329-.039-.427-.1-.867-.124-1.317l-.1-1.36-.066-1.364c-.025-.449-.023-.893-.036-1.322-.016-.858-.011-1.66.013-2.348C104.555,119.255,104.67,118.332,104.67,118.332Z"/><path class="cls-2" d="M112.033,117.927a1.7,1.7,0,0,0-.623,3.011,1.614,1.614,0,0,0,1.314.286,1.447,1.447,0,0,0,1.012-.868C114.2,119.147,113.471,117.586,112.033,117.927Z"/><path class="cls-3" d="M114.7,118.909a3.219,3.219,0,0,0-1.183,5.71,3.066,3.066,0,0,0,2.493.544,2.744,2.744,0,0,0,1.921-1.647C118.8,121.222,117.424,118.262,114.7,118.909Z"/><path class="cls-4" d="M122.34,122a4.142,4.142,0,0,0-3.237,2.875,3.57,3.57,0,0,0,1.648,3.747,4.639,4.639,0,0,0,3.35.631,3.582,3.582,0,0,0,2.581-1.91A3.78,3.78,0,0,0,122.34,122Z"/><path class="cls-5" d="M124.094,124.507a5.11,5.11,0,0,1,.4.425c.224.26.5.612.762.971s.511.731.689,1.024a4.954,4.954,0,0,1,.28.513,2.733,2.733,0,0,1-.5-.316,4.649,4.649,0,0,1-1.486-2.045A2.642,2.642,0,0,1,124.094,124.507Z"/><path class="cls-5" d="M125.8,124.393a2.482,2.482,0,0,1-.178.519,4.511,4.511,0,0,1-.631,1,4.457,4.457,0,0,1-.868.8,2.524,2.524,0,0,1-.48.268,3.874,3.874,0,0,1,.269-.473,10.031,10.031,0,0,1,.686-.922,10.237,10.237,0,0,1,.785-.839A3.928,3.928,0,0,1,125.8,124.393Z"/><path class="cls-5" d="M115.018,122.085a3.869,3.869,0,0,1,.309.317c.173.193.385.456.588.723s.394.544.531.763a3.731,3.731,0,0,1,.217.381,2.094,2.094,0,0,1-.386-.235,3.5,3.5,0,0,1-.682-.685,3.422,3.422,0,0,1-.464-.838A1.958,1.958,0,0,1,115.018,122.085Z"/><path class="cls-5" d="M116.333,122a1.837,1.837,0,0,1-.138.387,3.352,3.352,0,0,1-.486.743,3.457,3.457,0,0,1-.67.595,1.986,1.986,0,0,1-.37.2,2.856,2.856,0,0,1,.207-.353,7.737,7.737,0,0,1,.529-.686,7.835,7.835,0,0,1,.606-.625A3.086,3.086,0,0,1,116.333,122Z"/><path class="cls-6" d="M76.689,137.294a7,7,0,0,1-2.447-.1,2.282,2.282,0,0,0-1.6-.1c-.844.1-.759.2-1.6-.5a7.649,7.649,0,0,0-3.205-1.2c-.422,0-1.519-1-1.519-1a4.462,4.462,0,0,1,1.012.1c.253.1,1.6,0-.168-1.1a7.782,7.782,0,0,1-2.447-2.2l1.181.4s.422-.1-1.012-1.9-2.446-2.1-2.952-3.395-1.266-2.6-.422-1.7,1.687,1.7,1.687,1.4-1.6-2.9-1.94-4.593-.591-3.794-.591-3.794l-.421-1.3.675.5a3.93,3.93,0,0,0-1.266-2.5,20.031,20.031,0,0,1-2.868-3.3s.591-1.3.928-.7a2.483,2.483,0,0,0,1.181.9,29.832,29.832,0,0,1-1.771-3.3,14.624,14.624,0,0,1-.76-3.694l1.6,1.4-1.181-3.494s-.253-1.5.422-.7,0-4.094,0-4.094l2.024,4.194-.421-7.588,2.277,2.1s-4.3-8.387-3.374-8.786,1.1,1.1,1.434,1.5-2.024-3.495-2.024-6.29-.253-5.392-.253-5.392a3.911,3.911,0,0,1,1.1,1.5c.253.8-.759-3.1-.759-4.194s-.591-4.692,0-4.093a5.314,5.314,0,0,0,.928.8s-1.012-5.691-.506-4.992a13.622,13.622,0,0,1,1.1,2.9l-.084-3.595s.59,2.8.928,2.2-.085-6.39-.085-6.39a11.692,11.692,0,0,0,.928,2.5c.253.1-.59-5.691-.337-6.59s1.265,1.7,1.35,2.6-.253-3.894-.253-5.192,1.1-.5,1.012.1a21.119,21.119,0,0,1-.338-4.992c.253-.2,1.013,1.2.928,1.5s-.253-6.291.506-6.291.338,1.9.507,2.2.421-9.585.759-10.184.337,2.6.337,3.3,1.6-4.693,1.519-5.392-.675-3.494-.169-3.195.843.8.759,2.2.169-.3.084-1.4.338-6.19.844-4.593a29.216,29.216,0,0,1,.759,2.9,22.339,22.339,0,0,1-.169-5.192c.338-1.5,1.013,2.5,1.266,3.095s.421-1.8.168-3-2.024-6.79-1.1-5.891a6.333,6.333,0,0,1,1.771,2.7,26.375,26.375,0,0,0,1.1,3s-.759-3.195-.759-3.694,1.518-1.2,1.518.3a6.756,6.756,0,0,0,.59,2.7s.591-3.4-.168-4.593-1.35-4.992-1.35-4.992a3.667,3.667,0,0,1,2.193,3.295c.085,2.5.844-2.5.844-3.994s-.422-5.092.59-4.593.506,4.893.506,4.893l-.168,4.992s1.434-4.992,1.771-4.793-.59,5.092-.843,5.991-.76,3.395-.338,2.795,1.94-2.5,1.94-2.5-1.518,3-1.518,4.493a13.755,13.755,0,0,0,.337,3.794c.253.5,1.772-1.4,1.941-2.895s.674-1.4.674-.6-1.434,4.693-1.181,4.992,2.025-4.353,2.447-3.674.253,3.075.253,3.874-.253,3.994-.253,3.994.928-5.692,1.771-4.993-.422,5.492-.422,5.492v3.494s.591-3.694,1.1-3.794.506.9.506,1.6.675-1.3.844-.5-.253,1.8-.253,4.892.084,5.391.084,5.391,1.518-5.591,1.687-4.892-.844,4.992-.928,5.791,2.278-4.493,2.615-2.995-2.362,7.388-2.446,7.688,4.639-2.7,3.711-2.4,2.109.1,1.35.6-5.4,4.093-5.4,4.093,5.23-2.995,5.4-2.2-3.374,3.394-3.374,3.394,2.109,1.9,2.446,1.2,2.025-4.093,1.94-1.8-2.783,8.886-2.109,8.886,1.519-3.494,1.856-2.9,0,4.193.253,3.894,1.1-4.294,1.519-3.794,0,3.894.337,3.794.759-3.495,1.1-3.3S92.885,69.5,92.632,70.3s2.446-.9,2.868.4-2.953,1.2-2.953,1.2,5.736,1.2,4.808,2.1-4.639-.6-4.639-.6,4.893,2.4,4.471,2.995-2.953-.3-2.953-.3-.506,5.191.928,4.592,3.374-2.4,2.193-.8-1.94,2-2.277,2.895-2.025,4.094-1.772,4.094,4.134-3.794,3.881-3.2a40.855,40.855,0,0,1-2.362,3.594c-.759,1.1-1.687,3.095-.844,2.4s2.362-1.8,2.362-1.8a21.731,21.731,0,0,0-1.518,3.4,20.27,20.27,0,0,0,.169,3.3c.084.5-.338-1.3.927-1.6s.591-.4-.084,3.994l-.675,4.393s1.687-4.393,1.94-4.293-.506,3.3-.759,4.493-.675,3.794-.675,3.794.675-3.095,1.181-2.1-.421,3.5-.759,4.094-1.94,3.694-1.94,3.694,3.374-2.2,3.29-1.3-2.278,2.7-2.278,2.7l-1.518,4.093s4.218-4.992,4.218-3.095-2.953,5.092-2.953,5.392,2.025-1.8,1.94-.9-3.88,5.192-3.88,5.192l-4.808,4.194s6.411-4.593,6.073-3.5-3.374,2.2-3.542,3.2,0,1.5.337,1.7-1.434,1.2-1.687,1.7-1.6,1.6-1.856,2.2,1.1-.3,1.012.4-.253.7-.928,1.4-4.892.7-4.892.7,3.965,1.3,3.627,1.5-.422-.1-3.121.3A54.742,54.742,0,0,1,76.689,137.294Z"/><path class="cls-7" d="M66.06,96.957a72.309,72.309,0,0,0-1.771-7.588c-.675-1.7-1.687-5.492-1.1-5.192a8.6,8.6,0,0,1,1.687,1.9s-3.374-6.29-1.687-6.091,1.687,2.2,1.687,2.2-2.109-8.986-1.434-8.487,1.772,3.7,1.772,3.994-.253-6.19,0-5.891a34.95,34.95,0,0,1,1.012,4.992"/><path class="cls-7" d="M67.208,118.847l-3.024-5.521c-.336-.614-.647-1.512-.179-1.991a.811.811,0,0,1,1.215.257,3.464,3.464,0,0,1,.447,1.519l-1.254-3.791c-.221-.666-.4-1.548.074-1.995a.876.876,0,0,1,1.237.182,3.624,3.624,0,0,1,.643,1.4,32.641,32.641,0,0,1-2.429-8.075,2.978,2.978,0,0,1-.026-1.2c.1-.389.4-.735.743-.7.377.04.612.488.786.885l1.669,3.8-.173-4.623.7,3.839"/><path class="cls-7" d="M83.272,129.608l1.332-3.749c.111-.314.276-.676.563-.7s.5.318.514.648a2.114,2.114,0,0,1-.252.932l1.833-4.663a1.908,1.908,0,0,1,.525,2.029,6.551,6.551,0,0,1,1.877-3.463,4.874,4.874,0,0,1,.319,2.865"/><path class="cls-7" d="M71.3,42.641l-.027-4.635a1.829,1.829,0,0,1,.132-.858c.132-.251.443-.393.638-.209l.087.9a17.837,17.837,0,0,1,.233-3.126,2.337,2.337,0,0,1,.284-.9.613.613,0,0,1,.72-.307.538.538,0,0,1,.167.78,6.154,6.154,0,0,1,1.009-3.59l.221,2.969"/><path class="cls-7" d="M78.273,64a5.194,5.194,0,0,0-.089-2.7c-.119-.91.256-2.136,1.031-2.057.506.051.847.7.847,1.3a4.136,4.136,0,0,1-.486,1.688l1.433-.615-.856,7.569.767-.317c-.155,4.476-.529,8.941-1.121,13.365"/><path class="cls-7" d="M81.066,53.166l1.048-2.319a15.725,15.725,0,0,1,.2,5.628l2.041-3a14.39,14.39,0,0,1-1.283,7.462l2.1-1.811-1.24,9.185"/><path class="cls-7" d="M67.705,65.045a9.817,9.817,0,0,1-1.618-5.206,2.9,2.9,0,0,1,.172-1.225.872.872,0,0,1,.856-.6.691.691,0,0,1,.434.93l-.926-6.909.518.752L67.058,47A1.538,1.538,0,0,1,68,48.628l.519-.731.664,4.33"/><path class="cls-7" d="M75,76a25.063,25.063,0,0,1-1.976-13.684l.422,1.454.667-6.518.915,2.8.216-.553A22.127,22.127,0,0,1,75.09,69.2"/><path class="cls-7" d="M77.779,129.762l-1.934-8.368,1.283,1.051.39-7.015.214.629,1.289-3.884a7.83,7.83,0,0,1,1.207,3.687l.954-5.649a35.064,35.064,0,0,1-1.3,10.6"/><path class="cls-7" d="M82.151,102.658a18.9,18.9,0,0,1-.67-9.975l.433,4.3,1.869-4.134a10.625,10.625,0,0,1-.649,8.458l2.843-2.142-.751,8.425,2-1.71A44.453,44.453,0,0,1,85.7,118.728l-.069-2.5"/><path class="cls-7" d="M73.717,94.166,72.256,86.5l1.481,1.525-.973-6.091.619,1.056.477-3.867.818,2.043.568-1.278.44,10.249,1.366-3.176-.669,14.191"/><path class="cls-7" d="M86.726,95.043a20.57,20.57,0,0,1,.6-8.591l.161,3.763,1.65-2.741-.426,5.161,1.128-.47a10.667,10.667,0,0,1-2.245,8.461l2.8-3.01a10.2,10.2,0,0,1-1.268,8.071l3.718-1.223-1.995,7.1"/><path class="cls-7" d="M72.281,127.123a23.479,23.479,0,0,1-1.87-9.523,1.691,1.691,0,0,1,.647,1.536l.089-7.558.673,1.406.315-5.846.549,2.316a17.154,17.154,0,0,1,1.986-7.01l-.008,7.792"/></svg>