<svg id="word" xmlns="http://www.w3.org/2000/svg" viewBox="0 0 160 160"><defs><style>.cls-1{fill:#48484a;}.cls-1,.cls-10,.cls-2,.cls-3,.cls-4,.cls-5,.cls-6,.cls-7,.cls-8,.cls-9{stroke:#9d4b9c;stroke-miterlimit:10;}.cls-2{fill:#5d5e61;}.cls-3{fill:#8bc2e9;}.cls-4{fill:none;}.cls-5{fill:#434345;}.cls-6{fill:#77c179;}.cls-7{fill:#cfd0d1;}.cls-8{fill:#3c1711;}.cls-9{fill:#414141;}.cls-10{fill:#302d2f;}</style></defs><path class="cls-1" d="M41.979,35.727s2.377,43.24,2.675,47.1S49.111,123.4,49.111,123.4l8.47-.743,4.309-6.389,41.606.594L97.7,63.514,71.252,36.421l-8.173-3.369L44.505,31.864S41.087,33.052,41.979,35.727Z"/><path class="cls-2" d="M59.216,37.51S61,47.168,62.187,54.45,64.119,64.7,67.24,65s11.887,2.971,23.774,2.228,12.928-3.269,12.928-3.269,3.417-12.036,4.606-17.682a93.5,93.5,0,0,0,1.532-12.3H59.216Z"/><path class="cls-3" d="M45.706,38.4s3.793-.595,5.686,0a5,5,0,0,0,3.527-.265s-3.863,20.622-4.606,25.971-.892,18.871-.892,18.871l-2.675-.743Z"/><path class="cls-4" d="M61,106.457s-2.824.594-1.04,3.566,12.927,6.092,28.678,5.646,19.763-3.077,20.8-4.585,3.269-2.7-.595-4.627S61,106.457,61,106.457Z"/><path class="cls-5" d="M59.216,112.4a23.418,23.418,0,0,0-1.932,5.795c-.446,2.824.446,6.687,1.932,8.173s6.686,1.932,8.024,4.458,3.12,4.606,6.24,4.755S81.8,133.8,81.8,133.8s6.24.3,11.887.445,19.911-5.052,19.911-5.052,4.161,1.486,4.9,1.04,1.931-5.349,0-8.767-8.424-13.076-8.424-13.076,1.577,2.405-1.972,3.895-18.842,3.844-25.118,3.429-16.567-2.25-16.567-2.25l-6.464-3.439Z"/><path class="cls-6" d="M97.255,119.83s-4.012,1.337-2.08,3.566,7.429-.3,9.807,0,3.269-2.229.743-3.566S97.255,119.83,97.255,119.83Z"/><path class="cls-7" d="M100.946,73.023s5.733,6.836,6.3,9.213,2.049,15.3,2.049,16.494-.446,7.727-.446,7.727.273,2.08-3.727,3.714S91.46,113.143,85.962,113s-20.654-3.566-22.289-4.607-3.417-2.377-3.12-3.714l.3-1.338-.33-4.458s-.561-10.7,2.856-16.79a34.6,34.6,0,0,1,6.984-9.065h30.586Z"/><path class="cls-8" d="M62.533,83.871s8.124,1.188,16.743,1.634A120.523,120.523,0,0,0,97.7,84.688l2.211-.817,2.373,21.84v2.677s-13.879.33-17.4,0c-15.318-1.434-24.038-5.052-24.038-5.052s-.677-7.2-.125-11.217A54,54,0,0,1,62.533,83.871Z"/><path class="cls-9" d="M111.371,33.8s-10.1,1.486-14.859,1.635-26.895,1.337-30.758.891-6.093-.643-6.687-1.213A14.162,14.162,0,0,0,57.284,33.8s-3.121-.594-4.9,0-12.036,1.181-12.036,1.181v-4.9s4.161-2.377,14.265-4.16,22.438-1.783,31.056-1.04,23.329,1.337,24.963,4.606S111.371,33.8,111.371,33.8Z"/><path class="cls-5" d="M91.042,73.277s4.746,5.366,5.65,10.594,3.165,30.654,3.165,30.654a31.237,31.237,0,0,0,6.538-1.685c2.163-1.027,5.117.194,4.367-3.434s-2.729-22.03-2.729-22.03-.2-6.749-2.55-9.746a33.82,33.82,0,0,0-5.739-5.483Z"/><path class="cls-5" d="M71.252,69.16s-4.458,1.337-.892,3.863,17.534,1.784,19.168,1.784,8.753.148,9.206-1.784,3.987-1.873.237-3.863S79.041,66.922,71.252,69.16Z"/><path class="cls-10" d="M99.633,69.16s-6.55,3.418-4.984,4.755,10.63,1.932,13.6,5.944A17.4,17.4,0,0,1,111.614,91.6c-.243,3.418-5.146,8.916-5.889,9.51s-4.209,2.586-4.779,4.562a9.936,9.936,0,0,0,0,4.354s4.9,2.607,7.156,0a8.216,8.216,0,0,0,1.978-5.647s5.6-2.526,7.532-6.835,3.418-7.429,0-15.453-9.15-9.956-10.37-10.55a11.389,11.389,0,0,0-3.746-.595A5.761,5.761,0,0,1,99.633,69.16Z"/><path class="cls-10" d="M60.661,100.777l-.175,4.821s-.2,1.186,3.819,3.079,9.446,5.3,22.443,4.944,12.85-1.96,12.85-1.96l-.488-5.286s-15.695,1.813-20.16,1.257A47.339,47.339,0,0,1,60.661,100.777Z"/></svg>