<svg id="word" xmlns="http://www.w3.org/2000/svg" viewBox="0 0 160 160"><defs><style>.cls-1{fill:#f9ec31;}.cls-1,.cls-2,.cls-3,.cls-5{stroke:#9d4b9c;stroke-miterlimit:10;stroke-width:0.868px;}.cls-2{fill:#231f20;}.cls-3{fill:#fff;}.cls-4{fill:#9d4b9c;}.cls-5{fill:#7d7e80;}</style></defs><path class="cls-1" d="M86.686,104.164s.126,3.459,0,3.9-.629.692-.377,1.824.629,1.7.755,2.516.188,9.245,0,9.686-1.447,1.572-2.076,2.453-1.824,1.383-1.824,1.823,1.635-.943,3.271-.817,2.327,1.132,4.277,1.824,8.742,1.383,10.692,1.383,5.786-.125,4.78-.44a9.573,9.573,0,0,0-2.956-.629c-1.07,0-6.73-.377-6.73-.377s7.987-.252,8.428-.629-5.849-.692-6.982-.629-4.276-.063-4.276-.063,8.126-.528,8.113-.755c-.063-1.132-9.183.629-10.629-.754s-1.321-4.466-1.447-6.541-.44-5.787-.44-5.787a27.1,27.1,0,0,0,.88-3.711c-.062-.5-.125-2.075-.125-2.075l-.144-2.2s-.045-1.07-1.429-.818A2.685,2.685,0,0,0,86.686,104.164Z"/><path class="cls-2" d="M36.515,86.2c-7.233.692-14.655,1.2-14.655,1.2s-7.421.755-5.283,1.51,13.806-.331,10.976.989-3.68.772-5.693,1.086-2.452,1.573.189,1.573,9.507.046,10.576.046-4.1.394-5.67,1.086-2.013,1.258.566,1.132,8.4-1.255,12.488-1.067,11.726-.065,11.726-.065,1.573-5.157,1.07-5.22,3.019-4.4,3.019-4.4Z"/><path class="cls-3" d="M115.2,33.324s-4.811-2.7-5.707-3.271-6.105-2.1-9.576-1.415c-3.653.72-6.793,3.16-7.312,5.9s.095,12.5,0,14.671-1.792,13.443-2.877,15.236a14.815,14.815,0,0,1-3.113,3.349c-.425.425-3.3,1.116-8.208,3.381S65.321,78.229,62.05,79.354s-10.943,1.287-14.214,2.9-6.918,3.471-6.918,3.471l9.308-1.486s-8.051,2.972-8.8,3.378-5.032,2.292-5.032,2.292h3.522s-2.893,3.57-3.522,3.735l-.629.165s7.3,1.258,8.68,1.635,12.453,3.9,16.227,4.906,10.594,4.906,12.152,5.66,7.974.629,7.974.629l.88,2.177s2.642,1.723,4.026-.919,9.434-2.893,10.566-3.9,13.126-6.659,15.179-12.009,4.822-11.262,3.752-17.8-5.22-18.995-5.346-21.762-1.892-8.931-1.892-8.931,1.389-1.132,2.647-2.264,1.62-1.7,3.648-2.217,4.025-.979,4.025-.979V35.275Z"/><path class="cls-1" d="M115.574,33.638s1.745,1.651,1.368,1.887-3.208.425-4.01.849-2.028.9-1.226.943a26.7,26.7,0,0,1,3.585,1.18,6.738,6.738,0,0,0,.99,0,33.655,33.655,0,0,1,4.67.566c.944.33,1.415.519,1.415.519a4.616,4.616,0,0,1,2.217-.425,9.981,9.981,0,0,0,2.076-.141,5.054,5.054,0,0,0-3.066-3.868A43.558,43.558,0,0,0,115.574,33.638Z"/><path class="cls-4" d="M111.7,36.883c2.573.032,5.15.063,7.72.043.65.006,1.267-.046,1.938-.039a9.4,9.4,0,0,1,1.939.28,8.571,8.571,0,0,1,1.831.665,6.751,6.751,0,0,1,1.531,1.184,6.673,6.673,0,0,0-1.582-1.081,8.353,8.353,0,0,0-1.829-.544,9.2,9.2,0,0,0-1.891-.161l-1.919.147c-2.577.159-5.15.267-7.727.375Z"/><path class="cls-5" d="M86.705,68.861s11.186-1.091,10.432,5.446S91.359,84.63,87.208,87.02s-.88-4.277-6.164,2.139-3.691,5.929-9.937,7.673a6.748,6.748,0,0,1-6.793-1.761s0,.88-4.151.5.252-1.384-5.66-1.384-2.768-.377-5.283-1.384-3.019.929-4.026.842-.377-1.219-2.138-2.225-1.887-1.481-1.761-2.642,4.945-3.052,4.945-3.052,2.206-.786,4.845-1.766C54,82.88,57.447,81.56,59.031,80.8c3.019-1.447,15.221-7.211,15.221-7.211S79.409,68.564,86.705,68.861Z"/><path class="cls-1" d="M82.239,108.341s.126,3.46,0,3.9-.629.692-.377,1.824.629,1.7.755,2.516.189,9.245,0,9.685-1.447,1.573-2.076,2.453-1.824,1.384-1.824,1.824,1.636-.943,3.271-.817,2.327,1.132,4.277,1.824,8.742,1.383,10.692,1.383,5.786-.125,4.78-.44a9.567,9.567,0,0,0-2.956-.629c-1.069,0-6.73-.377-6.73-.377s7.988-.252,8.428-.629-5.849-.692-6.981-.629-4.277-.063-4.277-.063,8.126-.528,8.113-.755c-.063-1.132-9.182.629-10.629-.755s-1.321-4.465-1.447-6.541-.44-5.786-.44-5.786a27.118,27.118,0,0,0,.881-3.711c-.063-.5-.126-2.075-.126-2.075l-.144-2.2s-.045-1.069-1.428-.817A2.683,2.683,0,0,0,82.239,108.341Z"/><ellipse class="cls-1" cx="106.172" cy="33.638" rx="1.315" ry="1.27"/><ellipse class="cls-4" cx="106.349" cy="33.638" rx="0.589" ry="0.602"/><path class="cls-4" d="M55.315,94.2s2.167-.373,3.246-.5a13.457,13.457,0,0,0,3.926-1.084,13.625,13.625,0,0,0,3.454-2.244,12.384,12.384,0,0,0,1.32-1.357l-.317.416a11.256,11.256,0,0,1-.907,1.041,13.863,13.863,0,0,1-3.353,2.543,14.035,14.035,0,0,1-4.008,1.427,11.9,11.9,0,0,1-1.41.194c-.332.024-.145-.388-.145-.388Z"/><path class="cls-4" d="M64.257,94.5l1.664-.563,1.69-.574a15.821,15.821,0,0,0,1.864-.806,5.758,5.758,0,0,0,1.58-1.22,16.434,16.434,0,0,0,1.107-1.4,14,14,0,0,1,1.1-1.376,13.876,13.876,0,0,0-.983,1.453,16.436,16.436,0,0,1-1.009,1.509,6.084,6.084,0,0,1-1.567,1.42,15.96,15.96,0,0,1-1.853.984l-1.672.72-1.617.694Z"/><path class="cls-4" d="M70.979,94.149s2.235-.915,2.7-1.028a8.255,8.255,0,0,0,1.968-.79,10.807,10.807,0,0,0,2.416-1.859,16.51,16.51,0,0,0,2.18-2.8,59.6,59.6,0,0,0,3.129-5.977,22.719,22.719,0,0,0,1.1-2.87,22.8,22.8,0,0,1-.969,2.924A59.816,59.816,0,0,1,80.624,87.9a17.07,17.07,0,0,1-2.118,2.994,11.511,11.511,0,0,1-2.479,2.089,9.026,9.026,0,0,1-2.122.963,7.613,7.613,0,0,1-.858.207Z"/><path class="cls-4" d="M47.029,91.861l.832.069c.529.041,1.281.1,2.179.117.449.007.934,0,1.444-.036a7.5,7.5,0,0,0,1.575-.241l1.71-.421c.55-.124,1.151-.335,1.723-.507a89.374,89.374,0,0,0,9.1-3.452,89.481,89.481,0,0,1-8.952,3.873c-.585.2-1.126.428-1.738.6l-1.69.5a8.205,8.205,0,0,1-1.66.332c-.532.062-1.037.092-1.5.106-.929.028-1.7,0-2.233-.017l-.839-.032Z"/><path class="cls-4" d="M42.44,91.048a12.107,12.107,0,0,1,1.68.117c.321.073.682.077,1.113.129s.925.034,1.46.058c.538-.019,1.125-.028,1.741-.1s1.266-.149,1.934-.276,1.356-.275,2.044-.47c.693-.18,1.384-.409,2.075-.638a40.249,40.249,0,0,0,7.248-3.445,21.491,21.491,0,0,0,2.206-1.473,5.963,5.963,0,0,0,.737-.685,5.971,5.971,0,0,1-.711.716,21.069,21.069,0,0,1-2.155,1.564,40.581,40.581,0,0,1-7.169,3.743c-.692.258-1.385.517-2.083.727-.693.225-1.391.4-2.068.558s-1.343.277-1.979.359-1.241.129-1.8.169c-.564,0-1.073.044-1.54,0s-.881-.035-1.191-.094l-.635-.092Z"/></svg>