<svg id="word" xmlns="http://www.w3.org/2000/svg" viewBox="0 0 160 160"><defs><style>.cls-1{fill:#c4d72e;stroke:#9d4b9c;stroke-width:0.845px;}.cls-2{fill:#fff;}.cls-3{fill:#002939;}.cls-4{fill:#8f4a73;}.cls-5{fill:#9398a2;}.cls-6{fill:#8e939e;}.cls-7{fill:#231f20;}.cls-8{fill:#223262;}.cls-9{fill:#046988;}.cls-10{fill:#5dacae;}</style></defs><polygon class="cls-1" points="21.065 21.075 137.612 21.075 138.935 133.986 22.079 134.389 21.065 21.075"/><rect class="cls-2" x="27.25" y="29.521" width="107.358" height="97.474"/><path class="cls-3" d="M38.73,104.391v-.506l.514-.625c1.236-1.473,1.8-2.257,1.8-3.175,0-.619-.237-1.193-.958-1.2a1.472,1.472,0,0,0-1.028.508l-.207-.585a1.873,1.873,0,0,1,1.37-.607c1.041.009,1.48.914,1.479,1.784,0,1.127-.65,2.032-1.67,3.261l-.388.447v.02l2.173.018v.685Z"/><path class="cls-3" d="M45.765,101.335c0,2.074-.613,3.214-1.685,3.205-.945-.008-1.584-1.13-1.6-3.148,0-2.046.7-3.165,1.684-3.157C45.188,98.244,45.767,99.391,45.765,101.335Zm-2.627.072c0,1.586.385,2.49.98,2.494.67.006.991-.976.992-2.533,0-1.5-.3-2.491-.98-2.5C43.558,98.866,43.14,99.746,43.138,101.407Z"/><path class="cls-3" d="M51.916,104.5v-.507l.514-.624c1.237-1.473,1.8-2.257,1.8-3.176,0-.618-.237-1.192-.959-1.2a1.468,1.468,0,0,0-1.027.508l-.208-.585a1.874,1.874,0,0,1,1.37-.607c1.041.009,1.479.913,1.478,1.783,0,1.128-.649,2.033-1.67,3.261l-.387.448v.02l2.172.018v.684Z"/><path class="cls-3" d="M57.161,99.214h-.015l-.842.566-.126-.63,1.057-.7.558,0-.006,6.1-.631-.006Z"/><path class="cls-3" d="M65.1,104.61V104.1l.515-.624c1.236-1.473,1.8-2.257,1.8-3.176,0-.618-.236-1.193-.958-1.2a1.471,1.471,0,0,0-1.027.508l-.207-.584a1.863,1.863,0,0,1,1.369-.607c1.041.009,1.48.913,1.479,1.783,0,1.127-.649,2.033-1.669,3.261l-.388.447v.021l2.173.018v.684Z"/><path class="cls-3" d="M68.92,104.642v-.506l.514-.624c1.236-1.474,1.8-2.258,1.8-3.176,0-.618-.237-1.193-.959-1.2a1.47,1.47,0,0,0-1.028.508l-.207-.584a1.865,1.865,0,0,1,1.37-.607c1.041.008,1.479.913,1.478,1.783,0,1.127-.649,2.033-1.67,3.261l-.387.447v.02l2.172.018v.685Z"/><path class="cls-3" d="M78.286,104.72v-.506l.514-.624c1.236-1.474,1.8-2.258,1.8-3.176,0-.619-.237-1.193-.96-1.2a1.47,1.47,0,0,0-1.027.508l-.207-.584a1.863,1.863,0,0,1,1.369-.607c1.041.008,1.479.913,1.479,1.783,0,1.127-.649,2.033-1.67,3.261l-.387.447v.02l2.172.018v.685Z"/><path class="cls-3" d="M82.262,103.807a1.892,1.892,0,0,0,1.071.393,1.063,1.063,0,0,0,1.095-1.174,1.175,1.175,0,0,0-1.249-1.229l-.364,0v-.62l.364,0a1.019,1.019,0,0,0,1.08-1.022.827.827,0,0,0-.847-.928,1.539,1.539,0,0,0-.967.4l-.171-.6a1.971,1.971,0,0,1,1.265-.458,1.354,1.354,0,0,1,1.383,1.464,1.491,1.491,0,0,1-.894,1.428v.02a1.525,1.525,0,0,1,1.076,1.574,1.693,1.693,0,0,1-1.765,1.818,2.089,2.089,0,0,1-1.256-.426Z"/><path class="cls-4" d="M91.472,104.83v-.506l.514-.625c1.236-1.473,1.8-2.257,1.8-3.176,0-.618-.237-1.192-.958-1.2a1.47,1.47,0,0,0-1.028.508l-.207-.585a1.873,1.873,0,0,1,1.37-.607c1.041.009,1.48.913,1.479,1.784,0,1.127-.65,2.032-1.67,3.261l-.388.447v.02l2.173.018v.685Z"/><path class="cls-4" d="M97.314,104.878l0-1.661-2.247-.019v-.544l2.161-3.875.707.005,0,3.792.677.005v.647l-.677-.006v1.662Zm0-2.307,0-2.036c0-.321.007-.639.023-.957H97.32c-.15.355-.269.616-.4.9l-1.185,2.061v.02Z"/><path class="cls-4" d="M104.658,104.94v-.507l.514-.624c1.236-1.473,1.8-2.257,1.8-3.176,0-.618-.237-1.193-.958-1.2a1.48,1.48,0,0,0-1.028.508l-.207-.584a1.869,1.869,0,0,1,1.37-.607c1.041.009,1.48.913,1.479,1.783,0,1.128-.65,2.033-1.67,3.261l-.388.447v.021l2.173.018v.684Z"/><path class="cls-4" d="M111.368,99.591l-1.846-.015-.187,1.565a2,2,0,0,1,.4-.035,1.744,1.744,0,0,1,1.04.337,2.105,2.105,0,0,1-1.112,3.643,2.013,2.013,0,0,1-1.2-.387l.164-.627a1.85,1.85,0,0,0,1.034.347,1.192,1.192,0,0,0,1.147-1.314,1.255,1.255,0,0,0-1.39-1.362,3.992,3.992,0,0,0-.67.06l.316-2.926,2.313.019Z"/><path class="cls-4" d="M117.843,105.049v-.506l.514-.624c1.237-1.473,1.8-2.258,1.8-3.176,0-.618-.237-1.193-.958-1.2a1.468,1.468,0,0,0-1.027.508l-.208-.584a1.867,1.867,0,0,1,1.37-.607c1.041.008,1.48.913,1.479,1.783,0,1.127-.65,2.033-1.67,3.261l-.388.447v.02l2.173.019v.684Z"/><path class="cls-4" d="M124.427,99.588a1.788,1.788,0,0,0-.492.034,2.281,2.281,0,0,0-1.683,2.151h.023a1.348,1.348,0,0,1,1.168-.692c.856.007,1.458.79,1.456,1.981,0,1.117-.6,2.145-1.609,2.137-1.034-.009-1.71-1.03-1.708-2.615a4.4,4.4,0,0,1,.821-2.741,2.415,2.415,0,0,1,1.548-.888,2.512,2.512,0,0,1,.476-.044Zm-.189,3.517c0-.873-.393-1.4-1-1.408a1.081,1.081,0,0,0-.938.743.875.875,0,0,0-.075.366c.015,1.005.378,1.749,1.063,1.754C123.857,104.565,124.237,103.975,124.238,103.105Z"/><path class="cls-3" d="M40.169,85.77h-.015l-.842.566-.125-.63,1.057-.7.558,0-.006,6.1-.632-.005Z"/><path class="cls-3" d="M42.718,90.175a1.888,1.888,0,0,0,1.071.393,1.062,1.062,0,0,0,1.095-1.174,1.174,1.174,0,0,0-1.249-1.229l-.365,0v-.621l.365,0a1.018,1.018,0,0,0,1.079-1.022.826.826,0,0,0-.847-.928,1.536,1.536,0,0,0-.967.4l-.171-.6A1.974,1.974,0,0,1,44,84.931,1.353,1.353,0,0,1,45.378,86.4a1.487,1.487,0,0,1-.894,1.427v.021a1.525,1.525,0,0,1,1.077,1.573A1.692,1.692,0,0,1,43.8,91.235a2.1,2.1,0,0,1-1.257-.425Z"/><path class="cls-3" d="M53.355,85.879h-.014l-.842.566-.126-.63,1.057-.7.558,0-.006,6.1-.633-.005Z"/><path class="cls-3" d="M57.771,91.247l0-1.662-2.247-.019v-.544l2.16-3.875.707.006,0,3.791.677.006V89.6l-.677-.006,0,1.662Zm0-2.308,0-2.036c0-.32.008-.638.023-.956h-.022c-.149.355-.269.616-.4.9l-1.186,2.061v.021Z"/><path class="cls-3" d="M66.542,85.989h-.015l-.842.565-.126-.629,1.057-.7.558,0-.006,6.1-.631-.005Z"/><path class="cls-3" d="M71.825,85.959l-1.845-.015-.187,1.566a1.857,1.857,0,0,1,.394-.035,1.732,1.732,0,0,1,1.041.337,2.1,2.1,0,0,1-1.112,3.642,2.008,2.008,0,0,1-1.2-.387l.164-.627a1.846,1.846,0,0,0,1.033.347,1.192,1.192,0,0,0,1.148-1.314,1.256,1.256,0,0,0-1.39-1.362,3.981,3.981,0,0,0-.67.06l.316-2.926,2.313.019Z"/><path class="cls-3" d="M79.725,86.1h-.014l-.842.565-.125-.629,1.056-.7.558,0-.006,6.1-.632-.006Z"/><path class="cls-3" d="M84.883,85.956a1.821,1.821,0,0,0-.491.034,2.28,2.28,0,0,0-1.683,2.151h.022a1.35,1.35,0,0,1,1.169-.692c.856.007,1.457.791,1.456,1.981,0,1.118-.6,2.146-1.609,2.137-1.034-.008-1.71-1.029-1.708-2.614a4.409,4.409,0,0,1,.82-2.742,2.415,2.415,0,0,1,1.549-.888,2.512,2.512,0,0,1,.476-.044Zm-.189,3.517c0-.872-.393-1.4-1-1.407a1.08,1.08,0,0,0-.938.742.844.844,0,0,0-.075.366c.014,1,.379,1.749,1.063,1.755C84.312,90.933,84.693,90.344,84.694,89.473Z"/><path class="cls-3" d="M92.912,86.208H92.9l-.842.566-.125-.63,1.057-.7.558,0-.006,6.1-.632,0Z"/><path class="cls-3" d="M98.449,85.486v.545l-2.111,5.537-.677-.006,2.1-5.377v-.02l-2.367-.02v-.684Z"/><path class="cls-4" d="M106.1,86.318h-.016l-.842.565-.125-.629,1.057-.7.558.005-.006,6.1-.632,0Z"/><path class="cls-4" d="M108.431,90.121a1.734,1.734,0,0,1,.961-1.625l-.007-.028a1.566,1.566,0,0,1-.765-1.376,1.5,1.5,0,0,1,1.5-1.611,1.408,1.408,0,0,1,1.405,1.513,1.583,1.583,0,0,1-.8,1.419v.028a1.689,1.689,0,0,1,.973,1.585,1.641,1.641,0,0,1-1.645,1.76A1.593,1.593,0,0,1,108.431,90.121Zm2.6-.016a1.337,1.337,0,0,0-1.062-1.342,1.265,1.265,0,0,0-.872,1.249,1.034,1.034,0,0,0,.965,1.174A.977.977,0,0,0,111.035,90.105Zm-1.8-3.066a.868.868,0,1,0,1.66.034c0-.488-.23-1-.817-1A.868.868,0,0,0,109.237,87.039Z"/><path class="cls-4" d="M119.283,86.428h-.015l-.842.565-.126-.629,1.057-.7.558.005-.006,6.1-.632,0Z"/><path class="cls-4" d="M122.054,91.2a2.141,2.141,0,0,0,.529-.024,1.66,1.66,0,0,0,1.012-.582,2.958,2.958,0,0,0,.642-1.618h-.023a1.313,1.313,0,0,1-1.139.647c-.87-.007-1.428-.836-1.427-1.879,0-1.153.665-2.16,1.655-2.152s1.6,1.026,1.6,2.583a4.432,4.432,0,0,1-.836,2.856,2.212,2.212,0,0,1-1.407.8,2.325,2.325,0,0,1-.6.044Zm.242-3.507c0,.761.363,1.3.929,1.3a1.043,1.043,0,0,0,.953-.631.65.65,0,0,0,.059-.3c0-1.04-.3-1.839-.987-1.845C122.692,86.214,122.3,86.829,122.3,87.692Z"/><path class="cls-3" d="M45.339,72.324a1.86,1.86,0,0,0-.491.034,2.279,2.279,0,0,0-1.683,2.152h.022a1.348,1.348,0,0,1,1.169-.693c.855.007,1.457.791,1.456,1.982,0,1.117-.6,2.145-1.61,2.136-1.034-.008-1.71-1.029-1.708-2.614a4.4,4.4,0,0,1,.821-2.741,2.411,2.411,0,0,1,1.548-.888,2.454,2.454,0,0,1,.477-.045Zm-.189,3.518c0-.873-.393-1.4-1-1.408a1.081,1.081,0,0,0-.937.743.85.85,0,0,0-.076.365c.015,1.006.379,1.749,1.063,1.755C44.768,77.3,45.149,76.712,45.15,75.842Z"/><path class="cls-3" d="M58.905,71.854V72.4l-2.11,5.537-.677-.006,2.1-5.377v-.02l-2.366-.02v-.684Z"/><path class="cls-3" d="M68.888,76.489a1.732,1.732,0,0,1,.961-1.625l-.007-.028a1.565,1.565,0,0,1-.766-1.375,1.5,1.5,0,0,1,1.5-1.611,1.407,1.407,0,0,1,1.4,1.513,1.581,1.581,0,0,1-.8,1.418v.028a1.691,1.691,0,0,1,.974,1.586,1.642,1.642,0,0,1-1.646,1.759A1.592,1.592,0,0,1,68.888,76.489Zm2.6-.016a1.337,1.337,0,0,0-1.063-1.342,1.263,1.263,0,0,0-.871,1.25,1.034,1.034,0,0,0,.965,1.173A.977.977,0,0,0,71.492,76.473Zm-1.8-3.066a.868.868,0,1,0,1.659.034c0-.488-.23-1-.817-1A.865.865,0,0,0,69.694,73.407Z"/><path class="cls-3" d="M82.51,77.567a2.078,2.078,0,0,0,.528-.023,1.667,1.667,0,0,0,1.013-.582,2.953,2.953,0,0,0,.641-1.618H84.67a1.315,1.315,0,0,1-1.14.647c-.869-.007-1.427-.836-1.426-1.879,0-1.153.665-2.16,1.654-2.152s1.6,1.026,1.6,2.584a4.442,4.442,0,0,1-.836,2.855,2.22,2.22,0,0,1-1.408.8,2.315,2.315,0,0,1-.6.043Zm.241-3.507c0,.761.363,1.3.929,1.3a1.042,1.042,0,0,0,.953-.631.634.634,0,0,0,.06-.3c0-1.041-.3-1.84-.988-1.846C83.147,72.583,82.752,73.2,82.751,74.06Z"/><path class="cls-3" d="M92.925,72.906H92.91l-.842.565-.125-.629,1.057-.7.558,0-.006,6.1-.632-.005Z"/><path class="cls-3" d="M98.534,75.169c0,2.073-.613,3.213-1.685,3.2-.945-.008-1.583-1.131-1.595-3.149,0-2.045.7-3.164,1.683-3.156C97.957,72.077,98.536,73.225,98.534,75.169Zm-2.627.072c0,1.585.385,2.489.98,2.494.67.006.991-.976.993-2.534,0-1.5-.3-2.491-.981-2.5C96.327,72.7,95.909,73.579,95.907,75.241Z"/><path class="cls-4" d="M106.111,73.016H106.1l-.842.566-.126-.63,1.057-.7.558,0-.006,6.1-.632,0Z"/><path class="cls-4" d="M109.928,73.047h-.014l-.842.566-.125-.63,1.056-.7.558.005-.006,6.1-.632,0Z"/><path class="cls-4" d="M119.3,73.125h-.015l-.842.566-.126-.63,1.057-.7.558,0-.006,6.1-.631,0Z"/><path class="cls-4" d="M121.688,78.476V77.97l.514-.625c1.236-1.473,1.8-2.257,1.8-3.175,0-.619-.237-1.193-.959-1.2a1.472,1.472,0,0,0-1.028.508l-.207-.585a1.873,1.873,0,0,1,1.37-.607c1.041.009,1.479.913,1.478,1.784,0,1.127-.649,2.032-1.67,3.261l-.387.447v.02l2.172.018V78.5Z"/><path class="cls-5" d="M53.454,63.538a1.888,1.888,0,0,0,1.071.393,1.063,1.063,0,0,0,1.095-1.174,1.174,1.174,0,0,0-1.249-1.229l-.364,0V60.9l.364,0a1.018,1.018,0,0,0,1.079-1.022.826.826,0,0,0-.846-.928,1.534,1.534,0,0,0-.968.4l-.171-.6a1.971,1.971,0,0,1,1.265-.458,1.353,1.353,0,0,1,1.383,1.465,1.49,1.49,0,0,1-.894,1.427v.021A1.525,1.525,0,0,1,56.3,62.78,1.693,1.693,0,0,1,54.531,64.6a2.1,2.1,0,0,1-1.256-.425Z"/><path class="cls-5" d="M60.332,61.427c0,2.074-.613,3.214-1.685,3.205-.945-.008-1.583-1.13-1.595-3.148,0-2.046.7-3.165,1.683-3.157C59.755,58.336,60.334,59.483,60.332,61.427Zm-2.627.073c0,1.585.385,2.489.98,2.494.67.005.991-.977.993-2.534,0-1.5-.3-2.491-.981-2.5C58.125,58.959,57.707,59.838,57.705,61.5Z"/><path class="cls-3" d="M70.386,59.416H70.37l-.841.566-.126-.63,1.057-.7.558,0-.006,6.1-.632-.006Z"/><path class="cls-3" d="M82.143,64.844v-.506l.514-.624c1.236-1.474,1.8-2.258,1.8-3.176,0-.619-.237-1.193-.96-1.2a1.47,1.47,0,0,0-1.027.508l-.207-.584a1.863,1.863,0,0,1,1.369-.607c1.041.008,1.479.913,1.478,1.783,0,1.127-.648,2.033-1.669,3.261l-.387.447v.02l2.172.018v.685Z"/><path class="cls-3" d="M95.487,64.009a1.892,1.892,0,0,0,1.071.393,1.062,1.062,0,0,0,1.094-1.174A1.175,1.175,0,0,0,96.4,62l-.365,0v-.62l.364,0a1.019,1.019,0,0,0,1.08-1.022.827.827,0,0,0-.847-.928,1.541,1.541,0,0,0-.968.4l-.171-.6a1.968,1.968,0,0,1,1.266-.457,1.354,1.354,0,0,1,1.383,1.464,1.49,1.49,0,0,1-.9,1.428v.02a1.526,1.526,0,0,1,1.077,1.574,1.692,1.692,0,0,1-1.765,1.817,2.086,2.086,0,0,1-1.257-.425Z"/><path class="cls-4" d="M110.538,65.08l0-1.661-2.247-.019v-.544l2.16-3.875.708,0,0,3.792.677.005v.647l-.677-.006v1.662Zm0-2.307,0-2.036c0-.321.007-.639.023-.957h-.023c-.149.355-.268.616-.4.9l-1.185,2.061v.02Z"/><path class="cls-4" d="M124.591,59.793l-1.845-.016-.187,1.566a2,2,0,0,1,.395-.035,1.744,1.744,0,0,1,1.04.337,2.1,2.1,0,0,1-1.111,3.642,2,2,0,0,1-1.2-.386l.164-.627a1.854,1.854,0,0,0,1.034.347,1.192,1.192,0,0,0,1.147-1.314,1.256,1.256,0,0,0-1.39-1.363,4.086,4.086,0,0,0-.67.061l.316-2.926,2.313.019Z"/><polygon class="cls-6" points="47.883 80.01 46.564 79.999 46.566 78.336 47.884 78.347 47.883 80.01"/><polygon class="cls-6" points="47.87 93.313 46.551 93.302 46.553 91.639 47.871 91.65 47.87 93.313"/><polygon class="cls-6" points="47.856 106.616 46.538 106.605 46.539 104.942 47.858 104.953 47.856 106.616"/><polygon class="cls-6" points="61.068 80.119 59.75 80.109 59.751 78.446 61.07 78.457 61.068 80.119"/><polygon class="cls-6" points="61.055 93.422 59.737 93.411 59.738 91.749 61.057 91.76 61.055 93.422"/><polygon class="cls-6" points="61.042 106.725 59.723 106.714 59.725 105.051 61.044 105.062 61.042 106.725"/><polygon class="cls-6" points="74.267 66.926 72.948 66.915 72.95 65.252 74.269 65.263 74.267 66.926"/><polygon class="cls-6" points="74.254 80.229 72.935 80.218 72.937 78.555 74.255 78.566 74.254 80.229"/><polygon class="cls-6" points="74.241 93.532 72.922 93.521 72.924 91.858 74.242 91.869 74.241 93.532"/><polygon class="cls-6" points="74.227 106.835 72.909 106.824 72.91 105.161 74.229 105.172 74.227 106.835"/><polygon class="cls-6" points="87.453 67.036 86.134 67.025 86.136 65.362 87.454 65.373 87.453 67.036"/><polygon class="cls-6" points="87.44 80.339 86.121 80.328 86.123 78.665 87.441 78.676 87.44 80.339"/><polygon class="cls-6" points="87.426 93.642 86.108 93.631 86.109 91.968 87.428 91.979 87.426 93.642"/><polygon class="cls-6" points="87.413 106.945 86.095 106.934 86.096 105.271 87.415 105.282 87.413 106.945"/><polygon class="cls-6" points="100.638 67.146 99.32 67.135 99.321 65.472 100.64 65.483 100.638 67.146"/><polygon class="cls-6" points="100.625 80.449 99.307 80.438 99.308 78.775 100.627 78.786 100.625 80.449"/><polygon class="cls-6" points="100.612 93.752 99.293 93.741 99.295 92.078 100.614 92.089 100.612 93.752"/><polygon class="cls-6" points="100.599 107.054 99.28 107.043 99.282 105.381 100.6 105.392 100.599 107.054"/><polygon class="cls-6" points="113.824 67.255 112.505 67.244 112.507 65.582 113.825 65.593 113.824 67.255"/><polygon class="cls-6" points="113.811 80.558 112.492 80.547 112.494 78.884 113.812 78.895 113.811 80.558"/><polygon class="cls-6" points="113.797 93.861 112.479 93.85 112.481 92.187 113.799 92.198 113.797 93.861"/><polygon class="cls-6" points="113.784 107.164 112.466 107.153 112.467 105.49 113.786 105.501 113.784 107.164"/><path class="cls-4" d="M38.716,117.694v-.507l.514-.624c1.236-1.473,1.8-2.257,1.8-3.176,0-.618-.237-1.193-.958-1.2a1.478,1.478,0,0,0-1.028.508l-.207-.584a1.869,1.869,0,0,1,1.37-.607c1.041.009,1.48.913,1.479,1.783,0,1.128-.65,2.033-1.67,3.261l-.388.447v.021l2.173.018v.684Z"/><path class="cls-4" d="M45.68,111.652v.545l-2.111,5.537-.677-.006,2.1-5.377v-.02l-2.367-.02v-.684Z"/><path class="cls-3" d="M51.9,117.8V117.3l.514-.624c1.236-1.473,1.8-2.258,1.8-3.176,0-.618-.237-1.193-.959-1.2a1.472,1.472,0,0,0-1.028.508l-.207-.584a1.865,1.865,0,0,1,1.37-.607c1.041.008,1.479.913,1.478,1.783,0,1.127-.649,2.033-1.67,3.261l-.387.447v.02l2.172.019v.684Z"/><path class="cls-3" d="M55.663,116.288a1.734,1.734,0,0,1,.961-1.626l-.007-.028a1.564,1.564,0,0,1-.765-1.375,1.5,1.5,0,0,1,1.5-1.611,1.407,1.407,0,0,1,1.4,1.513,1.58,1.58,0,0,1-.8,1.418v.028a1.693,1.693,0,0,1,.974,1.586,1.642,1.642,0,0,1-1.647,1.759A1.592,1.592,0,0,1,55.663,116.288Zm2.6-.017a1.337,1.337,0,0,0-1.063-1.342,1.264,1.264,0,0,0-.871,1.25,1.034,1.034,0,0,0,.965,1.173A.977.977,0,0,0,58.267,116.271Zm-1.8-3.066a1.153,1.153,0,0,0,.922,1.135,1.156,1.156,0,0,0,.738-1.1c0-.488-.231-1-.818-1A.866.866,0,0,0,56.469,113.205Z"/><path class="cls-3" d="M65.089,117.913v-.506l.514-.625c1.237-1.473,1.8-2.257,1.8-3.175,0-.619-.237-1.193-.958-1.2a1.468,1.468,0,0,0-1.027.508l-.208-.585a1.874,1.874,0,0,1,1.37-.607c1.041.009,1.48.914,1.479,1.784,0,1.127-.65,2.033-1.67,3.261l-.388.447v.02l2.173.018v.685Z"/><path class="cls-3" d="M69.287,117.365a2.085,2.085,0,0,0,.529-.023,1.668,1.668,0,0,0,1.012-.582,2.953,2.953,0,0,0,.641-1.618h-.022a1.314,1.314,0,0,1-1.139.647c-.87-.008-1.428-.837-1.427-1.88,0-1.153.665-2.16,1.654-2.152s1.6,1.026,1.6,2.584A4.426,4.426,0,0,1,71.3,117.2a2.22,2.22,0,0,1-1.407.8,2.323,2.323,0,0,1-.6.043Zm.242-3.507c0,.761.363,1.3.928,1.3a1.04,1.04,0,0,0,.953-.63.641.641,0,0,0,.06-.3c0-1.041-.3-1.84-.988-1.846C69.925,112.381,69.529,113,69.529,113.858Z"/><path class="cls-3" d="M78.43,117.077a1.888,1.888,0,0,0,1.071.394A1.062,1.062,0,0,0,80.6,116.3a1.175,1.175,0,0,0-1.249-1.23l-.365,0v-.621l.365,0a1.017,1.017,0,0,0,1.079-1.021.826.826,0,0,0-.847-.928,1.539,1.539,0,0,0-.967.4l-.171-.6a1.968,1.968,0,0,1,1.266-.457A1.353,1.353,0,0,1,81.09,113.3a1.489,1.489,0,0,1-.894,1.428v.02a1.526,1.526,0,0,1,1.077,1.574,1.692,1.692,0,0,1-1.765,1.817,2.086,2.086,0,0,1-1.257-.425Z"/><path class="cls-3" d="M85.309,114.967c0,2.074-.614,3.214-1.685,3.2-.945-.008-1.584-1.131-1.6-3.149,0-2.045.7-3.164,1.685-3.156C84.732,111.876,85.31,113.023,85.309,114.967Zm-2.627.072c0,1.585.384,2.489.98,2.494.669.006.99-.976.992-2.533,0-1.5-.3-2.492-.98-2.5C83.1,112.5,82.684,113.378,82.682,115.039Z"/><path class="cls-4" d="M109.415,112.845H109.4l-.842.566-.126-.63,1.057-.7.558,0-.006,6.1-.631,0Z"/><path class="cls-4" d="M121.173,118.274v-.506l.514-.625c1.236-1.473,1.8-2.257,1.8-3.175,0-.619-.237-1.193-.958-1.2a1.47,1.47,0,0,0-1.028.508l-.207-.585a1.873,1.873,0,0,1,1.37-.607c1.041.009,1.48.913,1.479,1.784,0,1.127-.65,2.032-1.67,3.261l-.388.447v.02l2.173.018v.685Z"/><path class="cls-2" d="M36.026,50.481a1.326,1.326,0,0,1,.284-.026.416.416,0,0,1,.322.122.452.452,0,0,1,.1.3.5.5,0,0,1-.089.31.426.426,0,0,1-.352.155.48.48,0,0,1-.119-.014v.58h-.148Zm.148.7a.357.357,0,0,0,.123.017.27.27,0,0,0,.287-.306.254.254,0,0,0-.271-.287.528.528,0,0,0-.139.014Z"/><path class="cls-2" d="M37.081,50.472V51.92l-.149,0,0-1.447Z"/><path class="cls-2" d="M37.341,50.494a1.212,1.212,0,0,1,.285-.028.409.409,0,0,1,.332.12.427.427,0,0,1,.09.276.377.377,0,0,1-.217.369v0c.089.039.141.144.168.294a2.56,2.56,0,0,0,.089.4h-.154a2.363,2.363,0,0,1-.076-.347c-.033-.2-.095-.276-.23-.282h-.139v.626H37.34Zm.148.661h.151a.249.249,0,0,0,.26-.273.244.244,0,0,0-.264-.272.587.587,0,0,0-.146.014Z"/><path class="cls-2" d="M39.225,51.3c-.009-.2-.019-.443-.016-.623H39.2c-.04.167-.088.348-.146.548l-.2.7h-.113l-.185-.691c-.054-.2-.1-.393-.131-.564h0c0,.181-.013.423-.023.639l-.031.62h-.141l.081-1.447.19,0,.2.7c.047.178.086.339.114.489h0c.03-.145.071-.3.122-.488l.205-.7.189,0,.07,1.448h-.145Z"/><path class="cls-2" d="M39.629,50.513a1.646,1.646,0,0,1,.315-.028.582.582,0,0,1,.465.185.766.766,0,0,1,.161.52.878.878,0,0,1-.165.561.62.62,0,0,1-.508.205,1.691,1.691,0,0,1-.269-.02Zm.147,1.281a.878.878,0,0,0,.151.012c.315,0,.488-.22.489-.609,0-.341-.151-.561-.465-.564a.656.656,0,0,0-.173.019Z"/><path class="cls-2" d="M40.914,50.5l0,1.448-.148,0V50.5Z"/><path class="cls-2" d="M41.766,51.279l-.446,0V51.8l.5,0v.158l-.646-.005,0-1.448.619.005v.158l-.471,0v.458l.445,0Z"/><path class="cls-2" d="M42.011,51.961V50.513h.163l.366.736a4.491,4.491,0,0,1,.205.473l0,0c-.014-.193-.017-.369-.017-.6v-.605h.139l0,1.448h-.149l-.364-.739a5.247,5.247,0,0,1-.214-.482H42.14c.008.184.012.359.012.6v.618Z"/><path class="cls-2" d="M43.32,51.516l-.12.455-.153,0,.392-1.444h.178l.39,1.451h-.158l-.123-.457Zm.376-.142-.111-.418c-.027-.094-.043-.181-.06-.265h0c-.017.086-.035.175-.057.261l-.113.419Z"/><path class="cls-2" d="M50.5,51.293c0,.5-.241.759-.534.757s-.515-.3-.514-.737c0-.461.226-.759.533-.757S50.5,50.863,50.5,51.293Zm-.89.016c0,.31.131.586.365.588s.368-.269.368-.6c0-.288-.118-.589-.365-.591S49.612,50.991,49.612,51.309Z"/><path class="cls-2" d="M50.873,50.747l-.35,0v-.16l.849.007v.16l-.35,0v1.288l-.151,0Z"/><path class="cls-2" d="M51.5,50.612a1.166,1.166,0,0,1,.285-.028.406.406,0,0,1,.331.12.414.414,0,0,1,.091.275.378.378,0,0,1-.217.37v.005a.367.367,0,0,1,.168.294,2.77,2.77,0,0,0,.088.4H52.1a2.363,2.363,0,0,1-.076-.347c-.035-.2-.095-.276-.23-.282H51.65v.626H51.5Zm.148.66.151,0a.25.25,0,0,0,.26-.273.244.244,0,0,0-.264-.272.6.6,0,0,0-.147.014Z"/><path class="cls-2" d="M52.419,50.62a1.646,1.646,0,0,1,.315-.028.585.585,0,0,1,.465.184.769.769,0,0,1,.161.521.888.888,0,0,1-.165.561.619.619,0,0,1-.508.2,1.573,1.573,0,0,1-.269-.02Zm.147,1.281a.786.786,0,0,0,.15.011c.316,0,.489-.22.489-.609,0-.341-.15-.561-.464-.563a.727.727,0,0,0-.174.018Z"/><path class="cls-2" d="M53.7,50.61v1.448h-.148V50.609Z"/><path class="cls-2" d="M54.556,51.386l-.446,0V51.9l.5,0v.157l-.646,0,0-1.448.619,0v.158l-.471,0v.458l.446,0Z"/><path class="cls-2" d="M54.8,52.067V50.619l.162,0,.367.735a4.918,4.918,0,0,1,.2.473l0,0c-.014-.193-.017-.369-.016-.595v-.606h.14l0,1.448h-.149l-.365-.738a5.13,5.13,0,0,1-.213-.483H54.93c.008.183.012.359.011.6v.618Z"/><path class="cls-2" d="M56.109,51.623l-.119.454h-.153l.391-1.445.179,0,.39,1.451-.158,0-.123-.456Zm.377-.142-.112-.419c-.026-.094-.042-.181-.059-.265h0c-.017.087-.035.175-.058.262l-.112.419Z"/><path class="cls-2" d="M75.02,52.187a.588.588,0,0,1-.3.066c-.324,0-.567-.262-.567-.735,0-.453.244-.759.6-.756a.528.528,0,0,1,.273.066l-.037.153a.456.456,0,0,0-.231-.061c-.269,0-.448.213-.448.592,0,.354.161.584.44.586a.464.464,0,0,0,.242-.059Z"/><path class="cls-2" d="M75.8,51.562l-.446,0v.521l.5.005v.157l-.646,0V50.789l.621,0v.158l-.473,0v.458l.446,0Z"/><path class="cls-2" d="M76.293,50.958l-.349,0V50.8l.849.007v.161l-.35,0v1.287h-.151Z"/><path class="cls-2" d="M77.072,50.805v.857c0,.323.113.462.267.463.17,0,.279-.138.279-.458v-.858h.15v.845c0,.445-.186.625-.435.622s-.411-.171-.411-.621V50.8Z"/><path class="cls-2" d="M78.026,50.833a1.163,1.163,0,0,1,.284-.028.4.4,0,0,1,.332.12.414.414,0,0,1,.091.275.379.379,0,0,1-.218.37v.005a.365.365,0,0,1,.169.294,2.805,2.805,0,0,0,.088.4l-.153,0a2.286,2.286,0,0,1-.077-.346c-.034-.2-.094-.276-.229-.282h-.14v.626l-.149,0Zm.148.66h.151a.248.248,0,0,0,.259-.272.243.243,0,0,0-.264-.272.507.507,0,0,0-.146.014Z"/><path class="cls-2" d="M79.177,50.982l-.349,0v-.16l.849.007v.161l-.35,0v1.287h-.15Z"/><path class="cls-2" d="M79.806,50.848a1.646,1.646,0,0,1,.315-.028.581.581,0,0,1,.465.184.769.769,0,0,1,.161.521.882.882,0,0,1-.165.561.619.619,0,0,1-.508.2,1.691,1.691,0,0,1-.269-.02Zm.147,1.281a.8.8,0,0,0,.151.011c.316,0,.488-.22.489-.609,0-.341-.151-.561-.465-.564a.7.7,0,0,0-.173.019Z"/><path class="cls-2" d="M81.091,50.838l0,1.448h-.148V50.837Z"/><path class="cls-2" d="M81.943,51.614l-.446,0v.521l.5.005v.157l-.645-.005V50.84l.619,0V51L81.5,51v.458l.446,0Z"/><path class="cls-2" d="M82.188,52.3V50.847l.163,0,.366.735a4.942,4.942,0,0,1,.206.473l0,0c-.014-.193-.017-.369-.017-.595v-.606h.139l0,1.448H82.9l-.364-.738a5.144,5.144,0,0,1-.214-.483h-.005c.008.183.012.359.012.6V52.3Z"/><path class="cls-2" d="M83.5,51.85l-.12.455h-.153l.392-1.445.178,0,.39,1.451-.158,0-.123-.456Zm.376-.142-.111-.418c-.027-.094-.043-.181-.06-.265h0c-.017.086-.035.175-.057.262l-.113.419Z"/><path class="cls-2" d="M88.456,50.917a1.329,1.329,0,0,1,.285-.026.415.415,0,0,1,.321.123.447.447,0,0,1,.1.3.5.5,0,0,1-.089.31.422.422,0,0,1-.351.155.4.4,0,0,1-.12-.014v.58h-.148Zm.148.7a.36.36,0,0,0,.123.016.271.271,0,0,0,.288-.306.256.256,0,0,0-.272-.287.576.576,0,0,0-.139.014Z"/><path class="cls-2" d="M89.511,50.908v1.448h-.148V50.907Z"/><path class="cls-2" d="M90.365,51.684l-.446,0V52.2l.5,0v.157l-.646-.005,0-1.448.619.005v.158l-.471,0v.458l.446,0Z"/><path class="cls-2" d="M90.61,50.917h.148v.7h.006c.031-.055.061-.109.09-.154l.351-.542.184,0-.416.612.447.836-.175,0-.378-.713-.109.157v.552h-.149Z"/><path class="cls-2" d="M91.788,51.087l-.349,0v-.16l.85.007v.16l-.35,0v1.287h-.15Z"/><path class="cls-2" d="M92.418,50.953a1.628,1.628,0,0,1,.314-.028.577.577,0,0,1,.465.184.769.769,0,0,1,.161.521.882.882,0,0,1-.165.561.617.617,0,0,1-.507.2,1.714,1.714,0,0,1-.27-.02Zm.147,1.281a.779.779,0,0,0,.15.011c.316,0,.488-.22.489-.609,0-.341-.151-.561-.465-.564a.708.708,0,0,0-.173.019Z"/><path class="cls-2" d="M93.7,50.943l0,1.448h-.148l0-1.448Z"/><path class="cls-2" d="M94.555,51.718l-.446,0v.521l.5.005V52.4l-.645-.005V50.945l.621.005v.158l-.472,0v.458l.446,0Z"/><path class="cls-2" d="M94.8,52.4V50.952h.163l.366.736a4.835,4.835,0,0,1,.206.473l0,0c-.014-.193-.017-.369-.017-.595v-.606h.139v1.448h-.15l-.363-.739a5,5,0,0,1-.215-.482h-.005c.008.183.012.359.012.6V52.4Z"/><path class="cls-2" d="M96.108,51.955l-.12.455h-.153l.392-1.445h.179l.389,1.452-.158,0-.122-.456Zm.376-.142-.111-.418c-.026-.094-.042-.181-.059-.265h0c-.017.086-.035.175-.057.262l-.113.419Z"/><path class="cls-2" d="M101.9,52.233a.463.463,0,0,0,.266.1.226.226,0,0,0,.24-.245c0-.137-.061-.214-.216-.289a.438.438,0,0,1-.3-.415.364.364,0,0,1,.372-.389.448.448,0,0,1,.254.074l-.042.152a.389.389,0,0,0-.218-.071.2.2,0,0,0-.216.215c0,.135.07.2.228.282a.434.434,0,0,1,.292.427.378.378,0,0,1-.4.411.493.493,0,0,1-.292-.094Z"/><path class="cls-2" d="M103.358,51.792l-.445,0v.522l.5,0v.158l-.645-.006V51.018l.619.006v.157l-.471,0v.458l.446,0Z"/><path class="cls-2" d="M103.582,52.247a.46.46,0,0,0,.265.1.227.227,0,0,0,.241-.245c0-.137-.062-.214-.216-.289a.436.436,0,0,1-.3-.415.362.362,0,0,1,.37-.389.452.452,0,0,1,.255.074l-.042.152a.389.389,0,0,0-.218-.071.2.2,0,0,0-.216.215c0,.135.069.2.228.282a.436.436,0,0,1,.292.427.379.379,0,0,1-.4.411.493.493,0,0,1-.292-.094Z"/><path class="cls-2" d="M104.662,51.194l-.349,0v-.161l.849.007V51.2l-.35,0v1.287h-.151Z"/><path class="cls-2" d="M105.292,51.06a1.646,1.646,0,0,1,.315-.028.581.581,0,0,1,.465.184.769.769,0,0,1,.161.521.888.888,0,0,1-.165.561.619.619,0,0,1-.508.2,1.691,1.691,0,0,1-.269-.02Zm.147,1.281a.786.786,0,0,0,.15.011c.316,0,.489-.22.489-.609,0-.341-.15-.561-.464-.564a.772.772,0,0,0-.174.019Z"/><path class="cls-2" d="M106.576,51.05V52.5h-.148V51.049Z"/><path class="cls-2" d="M107.429,51.826l-.446,0v.522l.5,0v.157l-.646-.005,0-1.448.62.005v.158l-.472,0v.458l.446,0Z"/><path class="cls-2" d="M107.674,52.507V51.059l.162,0,.367.735a4.918,4.918,0,0,1,.205.473l0,0c-.014-.193-.017-.369-.016-.595v-.606h.139v1.448h-.149l-.364-.738a4.9,4.9,0,0,1-.214-.483H107.8c.008.183.012.359.011.6v.618Z"/><path class="cls-2" d="M108.981,52.062l-.119.455h-.153l.391-1.445.179,0,.39,1.451-.158,0-.123-.456Zm.377-.141-.112-.419c-.026-.094-.042-.181-.059-.265h0c-.017.087-.036.175-.058.262l-.112.419Z"/><path class="cls-2" d="M114.831,52.34a.449.449,0,0,0,.266.1.225.225,0,0,0,.24-.244c0-.138-.061-.215-.216-.29a.436.436,0,0,1-.3-.414.364.364,0,0,1,.372-.389.449.449,0,0,1,.254.073l-.042.153a.389.389,0,0,0-.218-.071.2.2,0,0,0-.216.215c0,.134.07.2.228.281a.436.436,0,0,1,.292.428.379.379,0,0,1-.4.411.507.507,0,0,1-.292-.094Z"/><path class="cls-2" d="M115.945,52.576l-.373-1.451h.159l.179.714c.049.2.092.372.122.543h0c.033-.167.081-.348.131-.538l.2-.713h.158l-.412,1.444Z"/><path class="cls-2" d="M117.239,51.907l-.446,0v.521l.5,0v.158l-.646-.005V51.134l.621.005V51.3l-.473,0v.458l.446,0Zm-.077-1.013v.119l-.409,0v-.12Z"/><path class="cls-2" d="M117.73,51.3l-.349,0v-.16l.849.007v.16l-.35,0v1.288h-.151Z"/><path class="cls-2" d="M118.359,51.168a1.651,1.651,0,0,1,.315-.027.578.578,0,0,1,.465.184.767.767,0,0,1,.161.521.877.877,0,0,1-.165.56.62.62,0,0,1-.508.2,1.691,1.691,0,0,1-.269-.02Zm.147,1.282a.8.8,0,0,0,.151.011c.315,0,.488-.22.489-.609,0-.341-.151-.561-.465-.564a.717.717,0,0,0-.174.019Z"/><path class="cls-2" d="M119.644,51.159l0,1.448-.148,0V51.158Z"/><path class="cls-2" d="M120.5,51.934l-.446,0v.521l.5,0v.158l-.646,0,0-1.448.619,0v.158l-.471,0v.458l.446,0Z"/><path class="cls-2" d="M120.741,52.616V51.168h.163l.366.736a4.583,4.583,0,0,1,.2.473l0,0c-.014-.193-.016-.369-.016-.595v-.606h.14l0,1.448h-.149l-.365-.739a5.231,5.231,0,0,1-.213-.482h0c.008.183.012.358.012.6v.618Z"/><path class="cls-2" d="M122.049,52.171l-.12.455-.153,0,.392-1.444h.178l.39,1.451h-.158l-.122-.456Zm.376-.142-.112-.418c-.026-.094-.042-.181-.059-.265h0c-.017.086-.035.175-.058.261l-.112.419Z"/><path class="cls-2" d="M62.259,50.842l-.349,0v-.161l.85.007v.161l-.35,0V52.13h-.15Z"/><path class="cls-2" d="M62.889,50.707a1.147,1.147,0,0,1,.284-.028.408.408,0,0,1,.332.12.419.419,0,0,1,.09.275.38.38,0,0,1-.217.37v0c.089.039.141.144.168.294a2.757,2.757,0,0,0,.089.4l-.154,0a2.337,2.337,0,0,1-.076-.346c-.033-.2-.094-.276-.23-.282h-.139v.626l-.149,0Zm.147.66h.152a.248.248,0,0,0,.259-.272.244.244,0,0,0-.264-.272.5.5,0,0,0-.146.014Z"/><path class="cls-2" d="M64.4,51.468l-.446,0v.521l.5.005v.157l-.646,0,0-1.448.619,0v.158l-.471,0v.458l.446,0Z"/><path class="cls-2" d="M64.625,51.922a.451.451,0,0,0,.265.1.226.226,0,0,0,.24-.245c0-.137-.061-.214-.215-.289a.438.438,0,0,1-.3-.415.364.364,0,0,1,.372-.389.446.446,0,0,1,.254.073l-.041.153a.392.392,0,0,0-.218-.071.2.2,0,0,0-.216.215c0,.135.069.2.227.282a.435.435,0,0,1,.293.427.379.379,0,0,1-.4.411.506.506,0,0,1-.293-.094Zm.275-1.3-.179-.245h.126l.109.151h0l.107-.15h.121l-.174.243Z"/><path class="cls-2" d="M65.486,50.729A1.569,1.569,0,0,1,65.8,50.7a.578.578,0,0,1,.465.184.767.767,0,0,1,.161.521.882.882,0,0,1-.165.561.622.622,0,0,1-.508.2,1.7,1.7,0,0,1-.269-.02Zm.147,1.281a.8.8,0,0,0,.151.011c.315,0,.488-.22.489-.609,0-.341-.151-.561-.465-.564a.717.717,0,0,0-.174.019Z"/><path class="cls-2" d="M66.771,50.719l0,1.448-.148,0V50.718Z"/><path class="cls-2" d="M67.623,51.494l-.446,0v.521l.5,0v.158l-.646-.005,0-1.448.62.005v.158l-.472,0v.458l.445,0Z"/><path class="cls-2" d="M67.868,52.176V50.728h.163l.366.736a4.583,4.583,0,0,1,.2.473l0,0c-.013-.193-.016-.369-.016-.595v-.606h.14l0,1.448H68.58l-.363-.739A4.769,4.769,0,0,1,68,50.961h0c.008.183.012.358.012.6v.618Z"/><path class="cls-2" d="M69.176,51.731l-.12.455-.153,0L69.3,50.74h.178l.39,1.451h-.158l-.123-.456Zm.376-.142-.112-.418c-.026-.094-.042-.181-.059-.265h0c-.017.086-.035.175-.058.262l-.112.418Z"/><path class="cls-7" d="M53.683,40a13.585,13.585,0,0,1,2.014-.152,4.2,4.2,0,0,1,2.973.915A3.38,3.38,0,0,1,59.7,43.4a3.879,3.879,0,0,1-1.056,2.852A4.522,4.522,0,0,1,55.4,47.31a15.129,15.129,0,0,1-1.72-.088Zm.947,6.49a5.939,5.939,0,0,0,.958.054,2.82,2.82,0,0,0,3.125-3.113c.011-1.732-.969-2.832-2.972-2.832a5.422,5.422,0,0,0-1.111.1Z"/><path class="cls-7" d="M64.738,43.8H61.886v2.646h3.179v.8H60.938V39.905H64.9v.8H61.886v2.32h2.852Z"/><path class="cls-7" d="M71.427,47.005a4.7,4.7,0,0,1-1.938.348,3.43,3.43,0,0,1-3.626-3.713,3.653,3.653,0,0,1,3.832-3.855,3.933,3.933,0,0,1,1.743.327l-.229.774a3.438,3.438,0,0,0-1.481-.3,2.729,2.729,0,0,0-2.864,3.026,2.668,2.668,0,0,0,2.821,2.951,3.793,3.793,0,0,0,1.546-.3Z"/><path class="cls-7" d="M76.417,43.8H73.565v2.646h3.179v.8H72.617V39.905h3.964v.8H73.565v2.32h2.852Z"/><path class="cls-7" d="M84.162,44.021c-.055-1.024-.12-2.253-.109-3.168H84.02c-.25.86-.555,1.775-.925,2.787L81.8,47.2H81.08l-1.186-3.495c-.349-1.035-.643-1.983-.85-2.853h-.021C79,41.768,78.946,43,78.881,44.1l-.2,3.146h-.9l.512-7.339H79.5l1.253,3.55c.3.9.555,1.709.74,2.472h.033c.185-.741.446-1.546.773-2.472l1.307-3.55h1.208l.458,7.339h-.926Z"/><path class="cls-7" d="M86.736,40a9.2,9.2,0,0,1,1.732-.152,3.027,3.027,0,0,1,2.014.534,1.536,1.536,0,0,1,.61,1.3,1.743,1.743,0,0,1-1.241,1.612v.021a1.893,1.893,0,0,1,1.513,1.841,1.976,1.976,0,0,1-.621,1.47,3.687,3.687,0,0,1-2.537.686,10.971,10.971,0,0,1-1.47-.088Zm.948,3.006h.86c1,0,1.589-.523,1.589-1.231,0-.86-.653-1.2-1.611-1.2a4.035,4.035,0,0,0-.838.065Zm0,3.516a4.987,4.987,0,0,0,.8.045c.979,0,1.883-.36,1.883-1.427,0-1-.86-1.416-1.894-1.416h-.784Z"/><path class="cls-7" d="M92.641,40a9.871,9.871,0,0,1,1.819-.152,3,3,0,0,1,2.123.6,1.827,1.827,0,0,1,.577,1.394,1.926,1.926,0,0,1-1.383,1.872v.033a1.828,1.828,0,0,1,1.078,1.481,11.777,11.777,0,0,0,.566,2.014h-.98a9.549,9.549,0,0,1-.49-1.753c-.218-1.012-.61-1.393-1.47-1.426h-.892v3.179h-.948Zm.948,3.343h.969c1.012,0,1.655-.555,1.655-1.394,0-.947-.686-1.361-1.688-1.371a3.934,3.934,0,0,0-.936.086Z"/><path class="cls-7" d="M99.45,39.905v7.339H98.5V39.905Z"/><path class="cls-7" d="M100.975,46.09a3.364,3.364,0,0,0,1.7.48c.969,0,1.535-.513,1.535-1.253,0-.686-.392-1.078-1.382-1.459-1.2-.424-1.939-1.045-1.939-2.08a2.113,2.113,0,0,1,2.374-1.993,3.332,3.332,0,0,1,1.622.36l-.261.773a2.92,2.92,0,0,0-1.394-.348c-1,0-1.383.6-1.383,1.1,0,.687.447,1.023,1.459,1.416,1.242.479,1.873,1.077,1.873,2.156,0,1.132-.838,2.112-2.569,2.112a3.8,3.8,0,0,1-1.873-.468Z"/><path class="cls-4" d="M92.461,117.368a2.017,2.017,0,0,0,1.111.378,1.076,1.076,0,0,0,1.135-1.163,1.182,1.182,0,0,0-1.3-1.2h-.378v-.609h.378a1.046,1.046,0,0,0,1.119-1.015.824.824,0,0,0-.88-.9,1.653,1.653,0,0,0-1,.4l-.178-.59a2.117,2.117,0,0,1,1.312-.462,1.352,1.352,0,0,1,1.435,1.43,1.474,1.474,0,0,1-.926,1.412v.018a1.5,1.5,0,0,1,1.119,1.541,1.719,1.719,0,0,1-1.829,1.8,2.249,2.249,0,0,1-1.3-.405Z"/><path class="cls-4" d="M97.729,113.059h-.016l-.872.563L96.71,113l1.1-.7h.578v6h-.655Z"/><path class="cls-5" d="M40.175,64.79v-.506l.514-.624c1.236-1.474,1.8-2.258,1.8-3.176,0-.619-.237-1.193-.958-1.2a1.472,1.472,0,0,0-1.028.508l-.207-.584a1.865,1.865,0,0,1,1.37-.607c1.041.008,1.48.913,1.479,1.783,0,1.127-.65,2.033-1.67,3.261l-.388.447v.02l2.173.018v.685Z"/><path class="cls-5" d="M44.373,64.242a2.078,2.078,0,0,0,.528-.023,1.667,1.667,0,0,0,1.013-.582,2.953,2.953,0,0,0,.641-1.618h-.022a1.315,1.315,0,0,1-1.14.647c-.869-.008-1.427-.837-1.426-1.88,0-1.153.665-2.16,1.654-2.152s1.6,1.026,1.6,2.584a4.438,4.438,0,0,1-.836,2.855,2.22,2.22,0,0,1-1.408.8,2.315,2.315,0,0,1-.6.043Zm.241-3.506c0,.76.363,1.3.929,1.3a1.041,1.041,0,0,0,.953-.63.641.641,0,0,0,.06-.3c0-1.041-.3-1.84-.988-1.845C45.01,59.258,44.615,59.873,44.614,60.736Z"/><ellipse class="cls-8" cx="81.007" cy="25.481" rx="2.044" ry="2.194"/><path class="cls-9" d="M79.953,24.952l1.718-.379s1.71-2.864,3.3-2.183-.191,1.654-.191,1.654,1.437,1.011.19,1.616a3.539,3.539,0,0,1-2.781-.179l-1.915.681S78.963,25.746,79.953,24.952Z"/><ellipse class="cls-10" cx="84.97" cy="24.143" rx="0.982" ry="1.754"/></svg>