<svg id="word" xmlns="http://www.w3.org/2000/svg" viewBox="0 0 160 160"><defs><style>.cls-1,.cls-2{fill:#868398;}.cls-2,.cls-3{stroke:#9d4b9c;stroke-miterlimit:10;stroke-width:0.577px;}.cls-3{fill:#fff;}</style></defs><path class="cls-1" d="M23.408,72.207S6.283,76.949,9.844,79.938s3.549,2.643-.869,4.871-7.013,7.158-3.2,7.372,11.075.308,16.661,1.844,19.519,4.511,16.494,7.036-1.4,9.385,6.194,9.122,13.148.236,22.985,4.737,19.913,5.881,27.88,6.3,19.793,2.427,22.544,1.986-8.515-6.275-1.323-8.253,32.834-.444,38-.969-4.347-5.728-9.35-10.395,7.908-1.311,9.98-1.383-3.5-11.289-11.268-15.862-20.163-13.133-28.488-13.882-25.57-9.489-14.221-11.265,21.067-.729,20.245-4.5-23.39-6.452-34.936-5.361-32.183,4.226-33.208,4.607S23.408,72.207,23.408,72.207Z"/><path class="cls-2" d="M64.036,54.723s15.809-7.808,19.31-11.56,6.289-10.591,11.274-1.427,6.111,11.717,13.953,13.521,10.933,1.178,10.933,1.178"/><path class="cls-2" d="M25.1,71.111s11.771-4.556,18.737-13.1,8.68-18.972,14.183-9.826S74.151,64.746,74.151,64.746"/><path class="cls-2" d="M55.551,81.814S74.669,64.728,78.617,58.887s3.5-18.793,8.555-7.558,15.372,22.03,15.372,22.03"/><path class="cls-2" d="M11.221,89.745s31.385-7.31,35.314-13.67,6.9,4.429,10.738,10.52,4.856,2.944,4.856,2.944"/><path class="cls-2" d="M46.5,105.121S68.955,79.449,75.35,84.414s12.222,23.436,22.28,29.312a98.757,98.757,0,0,0,19.49,8.661"/><path class="cls-2" d="M146.807,100.959S132.818,86.4,127.476,81.919s-3.7-16.988-12.024-17.737S82.819,95.393,82.819,95.393"/><path class="cls-2" d="M104.739,109.33s11.949-14.417,17.986-19.812,8.432,3.857,15.936,10.859a85.616,85.616,0,0,0,13.327,10.431"/><path class="cls-3" d="M73.037,64.8s2.573-3.616,5.316-8.276,3.172-10.277,5.252-10.142,4.56,5.86,5.933,9.547,5.275,8.533,5.275,8.533a9.318,9.318,0,0,1-3.188-2.172c-1.929-1.8-2.809-3.223-2.723-.736s1.352,9.083-.435,5.41-2.516-6.76-3.188-8.19S81.992,65.737,80.656,69.1s-3.595-1.951-2.5-6.139-1.214,6.89-4.68,8.669,1.5-4.616,1.5-4.616L65.2,72.129Z"/><path class="cls-3" d="M43.935,57.3s7.017-13.108,9.718-12.994,5.847,7.06,6.94,8.682-.986,1.487-1.636.679-1.208-4.938-2.909-.106-3.043,7.99-3.108,6.125-.058-7.676-.058-7.676-4.43,9.906-6.674,11.021,1.822-7.326,2.2-8.376-7.4,7.933-7.4,7.933Z"/><path class="cls-3" d="M41,80.436s7.225-7.1,8.468-7.141,2.795,2.809,4.361,6.074.121,3.524-1.423.88-2.437-4.481-3.416-2.787-3.3,6.547-4.352,6.168.286-3.745.286-3.745Z"/><path class="cls-3" d="M106.591,69.036s3.95-5.912,8.861-4.854,5.418,3.738,6.769,6.8,4.461,8.975,1.438,5.553-4.475-9.391-5.876-7.89-1.657,6.075-3.687,7.39-1.823-4.709-1.065-6.81-.436,5.41-4.945,7.018-.751-3.709.028-5.188-6.561,2.3-6.561,2.3Z"/><path class="cls-3" d="M63.278,88.588s6.009-6.226,10.19-5.333S81.9,93.131,81.9,93.131a71.1,71.1,0,0,1-5.961-4.359c-1.5-1.4-.292,3.538,0,6.017s-2.308-.75-2.859-4.673-2.48.293-3.845,2.83.172-1.043.908-3.766-16.622,11.365-14.857,8.4S63.278,88.588,63.278,88.588Z"/></svg>