<svg id="word" xmlns="http://www.w3.org/2000/svg" viewBox="0 0 160 160"><defs><style>.cls-1{fill:#9c4c9c;}.cls-2{fill:#ffdb9c;}.cls-3{fill:#171717;}.cls-4{fill:#262626;}.cls-5{fill:#ffd62e;}.cls-6{fill:#bfc0c2;stroke:#9c4c9c;stroke-miterlimit:10;stroke-width:1.645px;opacity:0.53;}.cls-7{fill:#fff;}</style></defs><path class="cls-1" d="M57.908,49.48s5.106-7.975,5.508-9.779,1.5-6.43,1.5-6.43-3.765.272-1.976-4.392,4.42-3.542,4.749-2.168-1.681,9.33-1.681,9.33L61.291,50.533H57.872Z"/><path class="cls-1" d="M54.436,73.154s-5.564,7.547-7.811,9.975-4.868,1.974-1.3,2.83S52.546,81.5,52.546,81.5l4.215-7.425Z"/><path class="cls-1" d="M69.562,91.645s-5.067,20.091-3.235,22.046S71.3,95.333,71.3,95.333Z"/><path class="cls-1" d="M80.793,104.232s-5.91,23.257-3.372,23.816,3.589-5.563,4.023-7.434S82.676,106.7,82.676,106.7Z"/><path class="cls-2" d="M88.267,108.164s2.951,4.138,5.676,3.688a5.07,5.07,0,0,1,4.37,1.324l1.888-2.126,4,1.6,1.761-.8s3.445,3.2,3.814,1.25a50.671,50.671,0,0,1,1.894-6.15c.507-1.479-.869,1.726,1.751-1.74a12.98,12.98,0,0,1,5.812-4.464l.865-4.557s5.08-.319,4.3-3.286-.2-7.6-.2-7.6-1.231-3.5-1.115-4.876-1.191-6.043-2.73-6.188-18.82,7.247-18.82,7.247L88.478,100.363Z"/><path class="cls-3" d="M80.793,94.365s-2.322,10.03.546,13.333a35.779,35.779,0,0,1,4.293,5.99v-8.1l4.35,7.2v-8.758s-1.064-.972.938.487,2.194-6.929,2.194-6.929l3.072,5.983,3.1-10.17,3.625,1.02,1.148-6.821,3.217,2.238,1.437-3.46,5.064-1.693-1.315-2.5,4.26-2,6.449-4.155s-6.2-12.8-14.259-11.058S86.15,86.627,86.15,86.627Z"/><path class="cls-4" d="M62.23,59.154s2.6-9.294-3.307-10.489-13.741,3.208-15.369,5.244-5.206,8.74-1.645,14.27,7.442,7.9,9.683,4.734S62.23,59.154,62.23,59.154Z"/><path class="cls-5" d="M58.124,59.017a20.371,20.371,0,0,0-6.834,9.537,35.875,35.875,0,0,0-1.123,7.433l3.677-4.021-1.236,4.1,2.213-2.5-.675,5.481,3.3-5.26-.557,6.637s5.377-7.826,4.9-8.582.966,1.18.966,1.18l2.639-3.51,1.621.459-.168-3.613,6.083-1.633-2.52-1.547,5.28-3.143L72.3,59.462l5.117-6.268L70.193,56.57l1.726-1.738-8.125.745,4.178-3.862Z"/><path class="cls-1" d="M41.128,62.444s-4.02.892-3.052,3.462,3.052.379,3.052.379Z"/><path class="cls-1" d="M51.9,49.48s5.106-7.975,5.509-9.779,1.5-6.43,1.5-6.43-3.764.272-1.976-4.392,4.421-3.542,4.749-2.168S60,36.041,60,36.041L55.147,49.48l-2.461.789Z"/><path class="cls-4" d="M71.792,58.486s5.572-2.2,9.875-.465a41.356,41.356,0,0,1,6.538,3.19L68.126,92.505a66.823,66.823,0,0,1-7.088-7.58c-2.141-3.02-6.221-9.132-3.129-13.581S71.792,58.486,71.792,58.486Z"/><path class="cls-5" d="M96.847,63.022a64.588,64.588,0,0,0,7.3,0c2.337-.26,8.318,2.21,8.318,2.21l-5.467,2.981,4.877,1.769-8.889,2.931,4.377,1.214-5.7,1.508,3.131,1.876-7.853,1.815,3.309,2.078-5.905.828,1.3,6.965-3.06-3.511-2.142,4.885-1.2-2.555-1.1,6.156L86.3,90.179l-2.084,7.406-.728-4.038-2.813,7.937-1.668-3.718-3.16,7.818V99.008L71.3,104.425a16.462,16.462,0,0,1-1.4-7.933c.253-4.805,2.034-11.119,4.374-14.165S88.582,64.276,88.582,64.276,94.324,63.971,96.847,63.022Z"/><path class="cls-6" d="M76.17,61.569S80.976,41.3,99.018,34.041s33.771-10.339,36.76-2.769S133.166,46.1,122.424,47.5,78.693,61.869,78.693,61.869Z"/><path class="cls-7" d="M48.517,53.831s-5.075.458-4.711,5.019,4.9,1.291,4.9,1.291S49.339,54.087,48.517,53.831Z"/><path class="cls-3" d="M73.844,68.944S81.387,61.585,84.8,61.4a60.971,60.971,0,0,0,7.2-.933l3.639.332-7.052,3.479,3.114.633-6.133,4.66,5.13,1-8.629,3.415,4.473,3H78.655l-.906,6.591-1.135-4.3-1.761,7.926-1.432-4.789L71.157,97.585s-3.445-1.2-4.1-2.787-2.3,2.787-2.3,2.787S65.67,75.451,73.844,68.944Z"/><path class="cls-1" d="M47.965,53.831s-4.021.892-3.053,3.462,3.053.379,3.053.379Z"/><path class="cls-6" d="M66.1,73.154S47.915,85.481,45.2,95.384s-8.282,33.888,4.072,36.827S68.3,74.231,68.3,74.231,68.165,73.983,66.1,73.154Z"/></svg>