<svg id="word" xmlns="http://www.w3.org/2000/svg" xmlns:xlink="http://www.w3.org/1999/xlink" viewBox="0 0 160 160"><defs><style>.cls-1{fill:#c5c7cb;}.cls-1,.cls-4,.cls-6{stroke:#9c54a0;}.cls-2{fill:#e4e7e8;opacity:0.63;}.cls-3{fill:#b9bcc0;}.cls-4{fill:url(#linear-gradient);}.cls-5{fill:#ec3a29;stroke:#9e3b93;}.cls-6{fill:#c1976b;}.cls-7{opacity:0.36;fill:url(#linear-gradient-2);}</style><linearGradient id="linear-gradient" x1="-1825.021" y1="1138.68" x2="-1820.125" y2="1138.68" gradientTransform="matrix(-1.174, -1.466, 1.309, -1.048, -3551.85, -1398.004)" gradientUnits="userSpaceOnUse"><stop offset="0" stop-color="#b2b4b6"/><stop offset="0.352" stop-color="#fff"/><stop offset="1" stop-color="#221f1f"/></linearGradient><linearGradient id="linear-gradient-2" x1="-1824.965" y1="1141.915" x2="-1823.085" y2="1141.886" gradientTransform="matrix(-1.174, -1.466, 1.309, -1.048, -3551.85, -1398.004)" gradientUnits="userSpaceOnUse"><stop offset="0" stop-color="#fff"/><stop offset="1" stop-color="#fff" stop-opacity="0"/></linearGradient></defs><path class="cls-1" d="M76.641,86.513l-7.763,4.23s-4.583,1.4-5.035,4.315,1.368,7.564.238,10.74c-.95,2.666-6.785,9.408-11.477,11.461s-13.864,5-18.666-.523-.462-13.464,2.843-18.6c3.013-4.685,10.789-9.53,13.432-9.337,4.711.344,7.984,2.691,9.456,2.789s2.908-.484,4.684-1.905,7.554-8.605,7.554-8.605Z"/><path class="cls-2" d="M46.844,117.188s4.16-1.451,2.972-5.467c-.616-2.08-4.446-2.863-5.5-5.284s2.155-7.121,5.07-7.752,6.919-.855,5.133-3.4S45.666,92.3,40.483,98.01s-7.682,10.977-4.651,15.079S43.442,118.635,46.844,117.188Z"/><path class="cls-3" d="M63.967,102.038s-1.17-4.013-1.514-5.867.731-3.3,4.784-6.528c2.708-2.157,6.926-5.137,6.926-5.137l1.7,1.83s-9,4.741-9.773,5.36-2.41,1.7-2.541,3.65A54.274,54.274,0,0,0,63.967,102.038Z"/><path class="cls-4" d="M85.378,80.651l-6.492,5.341s-1.99,1.6-2.434,1.275c-.764-.559-4.654-5.535-4.654-5.535s-1.062-.853.482-2.089,7.574-6.207,7.574-6.207Z"/><path class="cls-5" d="M103.756,67.957s17.641-10.331,19.568-14.57,2.3-5.8-.234-9.075c-3.594-4.645-8.645-1.735-10.584-.041-1.32,1.154-1.55,1.029-23.812,20.7l-9.418,8.572L85.391,81.1S101.834,69.354,103.756,67.957Z"/><path class="cls-6" d="M79.119,73.19a.791.791,0,0,1,1.1.186l5.661,7.07a.789.789,0,0,1-.059,1.111h0a.79.79,0,0,1-1.1-.184L79.06,74.3a.791.791,0,0,1,.059-1.113Z"/><path class="cls-7" d="M82.761,77.62a.4.4,0,0,1,.555-.02l2.338,2.92a.4.4,0,0,1-.14.537h0a.4.4,0,0,1-.555.02l-2.338-2.92a.4.4,0,0,1,.14-.537Z"/></svg>