<svg id="word" xmlns="http://www.w3.org/2000/svg" viewBox="0 0 160 160"><defs><style>.cls-1{fill:#e6b584;stroke:#9d4b9c;stroke-width:0.75px;}.cls-2{fill:#fff;opacity:0.37;}.cls-3{fill:#5a4030;}.cls-4{fill:#967b5b;opacity:0.35;}</style></defs><path class="cls-1" d="M93.785,51.992C78.626,53.519,84.5,49.339,75.76,48.437s-15.5,2.035-21.513,6.115-16.171,22.216-8.7,36.417,19.194,16.718,32.319,16.19,41.6,2.46,52.007-19.038c5.919-12.222-3.449-18.175-6.494-24.92S106.641,50.689,93.785,51.992Z"/><path class="cls-2" d="M79.291,55.944s-8.81-1.766-11.447-1.348c-13.257,2.11-17.958,9.873-18.281,12.057s2.273,8.964,10.17,10.7,5.016-2.05,15.062-5.766S94.086,65.6,88.924,60.94,79.291,55.944,79.291,55.944Z"/><path class="cls-3" d="M67.437,69.526s-3.056,1.157-3.317,2.453a1.573,1.573,0,0,0,2.537,1.54C68.049,72.556,69.763,69.2,67.437,69.526Z"/><path class="cls-3" d="M71.948,80.631s-3.408,2.852-.375,3.281S74.031,80.024,71.948,80.631Z"/><path class="cls-3" d="M81.572,73.195s-4.652.549-2.8,1.828S83.707,73.473,81.572,73.195Z"/><path class="cls-3" d="M75.064,62.2s-2.534.533-1.38,1.257S76.874,62.69,75.064,62.2Z"/><path class="cls-3" d="M54.7,62.92s-3.22.176-1.139,1.544S56.629,63.4,54.7,62.92Z"/><path class="cls-3" d="M52.025,81.131s-4.081.72-2.582,1.624S54.623,81.679,52.025,81.131Z"/><path class="cls-3" d="M66.434,91.793s-5.876.619-3.022,1.846S69.134,92.336,66.434,91.793Z"/><path class="cls-3" d="M100.179,85.3s-1.3.663-.38,1.208S101.875,85.706,100.179,85.3Z"/><path class="cls-3" d="M87.438,94.789s-3.751.7-1.7,1.477S89.481,95.465,87.438,94.789Z"/><path class="cls-3" d="M83.593,87.7s-.586,1.513,1.3,1.411S86.191,86.268,83.593,87.7Z"/><path class="cls-3" d="M108.075,91.093s-.62.822.724.947S111.271,90.421,108.075,91.093Z"/><path class="cls-3" d="M115.2,80.729s-1.854.694-.5,1.115S120.677,81.019,115.2,80.729Z"/><path class="cls-3" d="M99.163,74.894s-1.522.68.173,1.079S101.282,74.878,99.163,74.894Z"/><path class="cls-3" d="M109.747,70.759s-1.377,1.26.515,1.259S112.187,70.531,109.747,70.759Z"/><path class="cls-3" d="M106.282,60.386s.081,1.478,1.191,1.415S109.034,59.741,106.282,60.386Z"/><path class="cls-3" d="M91.784,58.221s-.164,1,1.483.61S94.044,56.709,91.784,58.221Z"/><path class="cls-3" d="M63.231,82.2s-2.19.712-.833,1.036S65.818,82.646,63.231,82.2Z"/><path class="cls-3" d="M53.949,91.787s-1.776.2-.074.7S55.628,91.893,53.949,91.787Z"/><path class="cls-3" d="M75.073,99.021s-3.027-.428-2.321.325S77.755,101.145,75.073,99.021Z"/><path class="cls-3" d="M102.823,98.978s-.932,1.24.716.855S106.056,99,102.823,98.978Z"/><path class="cls-4" d="M122.508,67.623s6.236,22.425-.574,26.822-14.99,8.679-23.162,8.928-35.552,2.751-38.751-1.708-3.665-4.633,11.762-5.277,23.761-2.106,31.432-7.358S108.7,60.526,122.508,67.623Z"/></svg>