<svg id="word" xmlns="http://www.w3.org/2000/svg" viewBox="0 0 160 160"><defs><style>.cls-1{fill:#fffad4;}.cls-1,.cls-10,.cls-11,.cls-13,.cls-2,.cls-3,.cls-9{stroke:#9c4c9c;stroke-miterlimit:10;}.cls-1,.cls-2,.cls-3{stroke-width:0.25px;}.cls-2{fill:#b4cc34;}.cls-3{fill:#a23824;}.cls-4{fill:#fbca9c;}.cls-5{fill:#9c519e;}.cls-6{fill:#fff;}.cls-7{fill:#5d8344;}.cls-8,.cls-9{fill:#a06d45;}.cls-10,.cls-11,.cls-13,.cls-9{stroke-width:0.709px;}.cls-10{fill:#96a24c;}.cls-11{fill:#c5c346;}.cls-12{fill:#9c4c9c;}.cls-13{fill:#742a29;}</style></defs><path class="cls-1" d="M114.332,122.418s-.2-2.564.854-2.293a6.141,6.141,0,0,1,2.877,2.22c.361.66,2.859,4.84,2.859,4.84l1.526,2.445s-4.64-4.957-6.1-5.176a2.961,2.961,0,0,1-2.013-1.036Z"/><path class="cls-1" d="M112.666,126.815s-2.631-.848-2.308.37,2.306,3.232,4.308,4.149,4.851,2.253,5.755,2.153,4.057-.276,4.057-.276a30.471,30.471,0,0,1-6.088-1.852,43.405,43.405,0,0,1-5.774-4.409Z"/><path class="cls-2" d="M128.762,133.3s.145.035.363.1a9.34,9.34,0,0,1,1.364.479c.707.331,1.461.443,1.766.208a2.025,2.025,0,0,1,1.292-.342c.6,0,1.609-1.272,1.876-1.049a10.613,10.613,0,0,1,.982,1.413,9.858,9.858,0,0,0-1.751.623c-1.072.477-.19.552-1.5.881s-1.221.5-2,.089-.771-.953-1.365-1.067a3.577,3.577,0,0,1-1.129-.467Z"/><path class="cls-3" d="M115.619,122.71a4.011,4.011,0,0,0-1.927,1.531,9.473,9.473,0,0,0-.808,2.944,18.2,18.2,0,0,0,2.706,2.561c2.093,1.529,5.485,2.219,6.191,2.678a6.523,6.523,0,0,0,2.5.487,46.13,46.13,0,0,0-3.778-4.889C119.457,127.113,115.619,122.71,115.619,122.71Z"/><path class="cls-4" d="M116.345,124.454s-1.252-.9-1.349.036,1.359,2.549,1.811,2.289-.325-2.073-.325-2.073Z"/><path class="cls-2" d="M115.892,119.805l2.713.446s-.713-.522-.2-1.734.918-2.328.918-2.328-.586,2.561-.1,2.942a6.634,6.634,0,0,1,.959,1.01,10.6,10.6,0,0,1,1.707.3c.006.1-.6-.3.155-1.1a7.436,7.436,0,0,0,1.052-1.352l.021,2.979a2.434,2.434,0,0,1,1.369.53,4.6,4.6,0,0,1,1.1,1.437,7.149,7.149,0,0,0,1.272-1.442,5.5,5.5,0,0,1-.4,1.81l-.212.345.677,1,2.874-.575-2.117,1.411-.18.582s.079.768.513.628a14.674,14.674,0,0,1,2.318-.106l-2.656.893s-.352.6.068.622,1.749.191,1.749.191-1.7.43-1.8.695a2.325,2.325,0,0,0-.033.8s.344.11.681.245.657.707.657.707-1.649-.069-1.432.3a2.572,2.572,0,0,1,.033,1.989,6.29,6.29,0,0,1-1.237,1.923l.758,2.037a18.991,18.991,0,0,1-1.49-1.256.833.833,0,0,0-1.14.231c-.137.357.377,1.335.244,2.1s-.321,1.561-.321,1.561a6.592,6.592,0,0,0-.66-2.45,3.535,3.535,0,0,0-.941-.653l-1.4.662a6.092,6.092,0,0,1-.151,1.84,2.9,2.9,0,0,1-.5,1.022s-.348-1.437-.53-1.872-1.214.579-1.111,1.2-1.144,1.08-1.2,1.044,1.093-2.789.717-3.055c-1.01-.714-2.125-.345-2.255-.707s-1.154-.832-1.154-.832-.082.63-1.035.878a2.541,2.541,0,0,0-1.437,1.1,25.124,25.124,0,0,0,.927-2.721c.209-.929-1.089-2.276-1.089-2.276a7.325,7.325,0,0,1-1.679.688,2.98,2.98,0,0,1-1.545-.053,10.214,10.214,0,0,0,2.189-1.053c.289-.349-.482-1.489-.482-1.489a13.73,13.73,0,0,1-1.936-.81,5.559,5.559,0,0,1-.842-.642s2.274-.089,2.291-.458.022-1.822.022-1.822,4.629,3.6,6.13,4.606,7.409.922,7.409.922L117.1,122.208l-1.917-2.083Z"/><path class="cls-2" d="M128.08,132.2s1.236.323,1.087,1.229a1.846,1.846,0,0,1-1.562,1.3c-.172-.079-.619-.351-.619-.351l.73-2.117Z"/><path class="cls-5" d="M121.42,134.987c.058-.03.049-.094.044-.161a.176.176,0,0,1,.021-.111.1.1,0,0,0,.015-.118c-.02-.048-.034-.1-.053-.145s-.072-.1-.124-.088c-.035.01-.068.071-.074.115a2.165,2.165,0,0,1-.1.4,1.233,1.233,0,0,0-.128.421c0,.011,0,.025-.008.03a.936.936,0,0,0-.154.262,1.489,1.489,0,0,1-.229.255,2.943,2.943,0,0,1-.248.239c-.09.073-.192.131-.288.2-.064.044-.125.095-.193.135a.635.635,0,0,1-.132.039,1.127,1.127,0,0,1,.017-.337,2.956,2.956,0,0,1,.141-.362c.05-.136.114-.265.172-.4a.874.874,0,0,1,.267-.37.265.265,0,0,0,.01-.254.391.391,0,0,0-.253-.176,1.716,1.716,0,0,1-.053.164c-.009.022-.033.039-.037.065-.03.051-.063.1-.089.153-.079.16-.161.32-.23.485a3.032,3.032,0,0,0-.181.521,1.513,1.513,0,0,0-.033.536.625.625,0,0,0,.183.378.175.175,0,0,0,.109.042.378.378,0,0,0,.252-.076,1.985,1.985,0,0,1,.325-.206,1.022,1.022,0,0,0,.352-.314.5.5,0,0,1,.093-.076.53.53,0,0,0,.042-.052c.041-.049.084-.095.123-.146s.063-.095.094-.143a.5.5,0,0,1,.082-.122c.092-.075.087-.193.125-.292.05-.133.1-.268.142-.4A.342.342,0,0,0,121.42,134.987Z"/><path class="cls-5" d="M114.883,131.953c-.024.019-.051.036-.075.057a.714.714,0,0,1-.117.11,1.22,1.22,0,0,0-.324.279,2.184,2.184,0,0,1-.224.227.638.638,0,0,1-.2.109.661.661,0,0,0-.253.189c-.045.046-.1.088-.081.172a.041.041,0,0,1,0,.031c-.061.069-.027.139,0,.215a.263.263,0,0,0,.218.195.435.435,0,0,1,.168.074,1.088,1.088,0,0,0,.674.2.971.971,0,0,1,.117.017c.056,0,.112,0,.168,0s.1-.012.152-.008a.559.559,0,0,0,.353-.078c.072-.043.162-.056.239-.092s.174-.1.26-.148c.014-.007.026-.023.04-.024.107,0,.141-.1.2-.163s.019-.163-.072-.2a.22.22,0,0,0-.206.011c-.137.076-.275.15-.413.225a.429.429,0,0,1-.05.019c-.044.015-.087.032-.132.044a.6.6,0,0,1-.22.049,2.021,2.021,0,0,1-.614-.1c-.015-.007-.035,0-.054,0a.241.241,0,0,1-.184-.07,1.413,1.413,0,0,0-.172-.134c-.047-.038-.04-.068,0-.1.133-.111.262-.225.391-.339.09-.08.176-.164.268-.241a.19.19,0,0,1,.119-.057c.151.019.2-.112.287-.181.067-.054,0-.129-.024-.188-.012-.033-.066-.059-.105-.076A.788.788,0,0,0,114.883,131.953Z"/><path class="cls-5" d="M117.167,133.292a.594.594,0,0,1-.015-.094.4.4,0,0,1,.009-.084c0-.02.021-.043.015-.058-.028-.07-.062-.137-.1-.213-.082.069-.138.129-.112.244a1.089,1.089,0,0,1,0,.242c0,.01,0,.021.005.031a.82.82,0,0,1,.018.146,1.35,1.35,0,0,1-.032.307.414.414,0,0,0,.08.324.172.172,0,0,0,.2.081.882.882,0,0,0,.456-.357c.054-.08.125-.148.186-.224s.134-.166.195-.253c.041-.057-.02-.195-.1-.238a.155.155,0,0,0-.2.073.433.433,0,0,1-.072.089s-.009.007-.01.011c-.053.185-.229.27-.327.419-.024.036-.083.046-.134.073A1.219,1.219,0,0,0,117.167,133.292Z"/><path class="cls-5" d="M125.447,127.387c-.151.144-.3.292-.454.43-.1.092-.219.168-.327.254-.064.05-.122.108-.185.16s-.148.127-.229.182a4.611,4.611,0,0,0-.619.638.253.253,0,0,0-.064.3c.033.08.084.091.141.033.084-.086.174-.166.256-.254a.863.863,0,0,0,.084-.126c0-.006.005-.015.01-.02.131-.119.26-.241.4-.355.093-.079.2-.145.292-.222.126-.1.249-.207.372-.313.139-.121.274-.245.414-.365.12-.1.252-.191.363-.3a.6.6,0,0,0,.165-.369.7.7,0,0,0,.017-.2.336.336,0,0,0-.335-.227c-.1.011-.2.006-.307.015a.736.736,0,0,0-.216.038c-.226.095-.449.2-.671.3-.126.06-.265.084-.394.135-.074.029-.144.068-.215.1-.007,0-.014.011-.021.011-.15,0-.249.124-.384.159-.161.042-.252.181-.38.266-.038.025-.059.072-.094.1a.557.557,0,0,1-.111.072.189.189,0,0,0-.042.176c.012.023.018.067.006.08-.044.044-.01.071.014.1s.053.042.088.013a.08.08,0,0,1,.058-.015.137.137,0,0,0,.165-.091.379.379,0,0,1,.193-.175,1.048,1.048,0,0,0,.137-.1,2.34,2.34,0,0,1,.237-.148c.063-.03.139-.034.2-.06.084-.033.163-.077.245-.117a1.318,1.318,0,0,1,.265-.122,2.961,2.961,0,0,0,.455-.2,1.359,1.359,0,0,1,.608-.146c.03,0,.082.015.086.031a.147.147,0,0,1-.013.112c-.061.079-.132.15-.2.224Z"/><path class="cls-5" d="M122.981,122.9c0,.065.019.118,0,.15a1.036,1.036,0,0,0-.062.512c0,.085.02.172.024.258,0,.036-.02.072-.021.108,0,.178,0,.356-.011.533,0,.087-.025.173-.035.26a2.1,2.1,0,0,1-.148.5.215.215,0,0,0,.105.257.155.155,0,0,0,.178-.085,1.368,1.368,0,0,0,.107-.419c.035-.218.084-.434.112-.653a2.8,2.8,0,0,0,0-.378c0-.122,0-.243,0-.365s0-.255,0-.382a.483.483,0,0,1,.041-.178c.044-.091.032-.205.117-.281.043-.038-.023-.231-.083-.271a.229.229,0,0,0-.29.006,1.093,1.093,0,0,1-.168.083c-.009,0-.022,0-.029.01a2.026,2.026,0,0,0-.415.447,4.709,4.709,0,0,0-.289.513,1.061,1.061,0,0,0-.157.543.067.067,0,0,1,0,.031c-.045.121-.092.242-.136.364s-.1.267-.138.4c-.012.038.017.093,0,.126-.046.1.012.161.068.223a.114.114,0,0,0,.1.024.167.167,0,0,0,.076-.087c.039-.11.071-.223.1-.336s.061-.25.091-.376c0-.015,0-.031.007-.046.039-.133.079-.267.119-.4a.752.752,0,0,1,.039-.1c.045-.1.094-.192.14-.29.071-.151.2-.266.271-.41.051-.1.168-.119.2-.227C122.892,122.942,122.935,122.931,122.981,122.9Z"/><path class="cls-5" d="M126.441,129.795a.349.349,0,0,0-.25-.045,2.565,2.565,0,0,0-.712.142,2.83,2.83,0,0,1-.279.065c-.085.024-.168.057-.252.085s-.185.058-.274.092c-.065.025-.126.059-.188.09-.014.006-.026.022-.039.021-.094-.009-.107.06-.107.125a.137.137,0,0,0,.1.133c.068.025.124.058.2.008a.7.7,0,0,1,.211-.062c.007,0,.016-.009.022-.006.115.041.2-.037.308-.05a1.394,1.394,0,0,0,.239-.091c.109-.036.222-.064.332-.1a3.166,3.166,0,0,1,.4-.042,1.416,1.416,0,0,1,.3-.028.544.544,0,0,1,.4.209c.009.01.02.033.016.036a1.059,1.059,0,0,1-.167.155c-.023.015-.076-.018-.116-.03l0-.027c-.063.055-.124.113-.191.163a.439.439,0,0,1-.116.046l-.111.039a1.579,1.579,0,0,0-.458.265,1.28,1.28,0,0,1-.252.185,1.569,1.569,0,0,0-.285.221.053.053,0,0,0-.009.044c.016.106.084.157.182.126a.834.834,0,0,0,.23-.1c.12-.083.229-.181.343-.273a3.246,3.246,0,0,1,.4-.316c.2-.113.418-.195.629-.288.024-.011.06-.022.078-.011.1.057.163-.029.244-.044.041-.007.062-.16.028-.2-.087-.109-.172-.219-.266-.321a.7.7,0,0,0-.154-.107,1.129,1.129,0,0,0-.177-.1.909.909,0,0,0-.193-.048C126.494,129.754,126.472,129.778,126.441,129.795Z"/><path class="cls-5" d="M118.817,123.062a.988.988,0,0,0,.158-.092c.069-.06.127-.131.194-.194a.128.128,0,0,1,.069-.021c.032,0,.075.007.094-.009s.048-.045.09-.027c.007,0,.031-.02.035-.035a.379.379,0,0,1,.025-.09l.029.071a1.258,1.258,0,0,0,.112-.1c.007-.009-.012-.042-.022-.074,0,.006,0,0,0,0,.119,0,.174-.1.257-.164a.218.218,0,0,1,.052-.021.149.149,0,0,1,.018.051c0,.186.008.371,0,.556a.777.777,0,0,1-.057.242c-.036.087.023.141.064.195a.117.117,0,0,0,.155.027c.078-.039.146-.074.139-.187a1.418,1.418,0,0,1,.034-.239c0-.027-.021-.056-.023-.085-.01-.15-.017-.3-.025-.451,0-.013.007-.026.008-.039,0-.03.015-.068,0-.088-.087-.126-.036-.264-.063-.395a.645.645,0,0,1,0-.076c0-.036.007-.078-.009-.105a.777.777,0,0,1-.069-.337.668.668,0,0,0-.065-.244.613.613,0,0,0-.175-.155c-.015-.01-.052,0-.072.014a.926.926,0,0,0-.1.079l-.017.014c.041.093-.057.118-.08.179a3.863,3.863,0,0,1-.39.768,2.306,2.306,0,0,1-.3.45,1.9,1.9,0,0,0-.159.152.215.215,0,0,0-.055.113c-.008.073.051.141.031.224C118.7,122.985,118.784,123.034,118.817,123.062Zm1-1.429c.015.053.029.1.04.146.015.067.029.134.041.2a.188.188,0,0,1,.008.095.445.445,0,0,1-.095.131,1.506,1.506,0,0,1-.185.171,1.821,1.821,0,0,0-.237.221c-.028.026-.058.051-.088.075a.633.633,0,0,1-.054.036c0-.024-.008-.053,0-.07.08-.129.164-.256.247-.383.037-.057.074-.114.109-.172a.432.432,0,0,0,.068-.189.794.794,0,0,1,.113-.249Z"/><path class="cls-5" d="M123.847,124.179c-.053.068-.107.134-.158.2-.035.046-.1.065-.1.138a.269.269,0,0,0,.063.2.206.206,0,0,0,.209-.052,2.408,2.408,0,0,1,.17-.266c.157-.183.28-.393.439-.572.027-.03.083-.032.126-.047a.494.494,0,0,1,.008.114,3.073,3.073,0,0,1-.066.314.586.586,0,0,0-.038.225.246.246,0,0,1-.032.1c-.057.146-.114.293-.173.439-.009.021-.031.035-.046.054a.3.3,0,0,0,.01.292.1.1,0,0,0,.082.021c.176-.038.214-.2.282-.334a2.524,2.524,0,0,0,.123-.335.7.7,0,0,0,.009-.093c.046-.213.093-.425.139-.638.011-.053.011-.109.026-.161a1.369,1.369,0,0,1,.059-.13.361.361,0,0,0-.086-.333.184.184,0,0,0-.217-.026,1.193,1.193,0,0,0-.364.227,2.445,2.445,0,0,0-.222.233,1.919,1.919,0,0,0-.111.187c-.029.044-.066.081-.095.125a.632.632,0,0,0-.047.1Z"/><path class="cls-6" d="M119.816,121.633l-.031.014a.794.794,0,0,0-.113.249.432.432,0,0,1-.068.189c-.035.058-.072.115-.109.172-.083.127-.167.254-.247.383-.01.017,0,.046,0,.07a.633.633,0,0,0,.054-.036c.03-.024.06-.049.088-.075a1.821,1.821,0,0,1,.237-.221,1.506,1.506,0,0,0,.185-.171.445.445,0,0,0,.095-.131.188.188,0,0,0-.008-.095c-.012-.068-.026-.135-.041-.2C119.845,121.733,119.831,121.686,119.816,121.633Z"/><path class="cls-7" d="M64.241,37.951s-1.876,5.387-3.067,6.328-5.464,3.4-3.436,5.689.6,1.629,1.153,6.006S64.316,61.9,63.7,64.259s-5.431,6.78-.894,8.214,4.847-.133,6.749,2.752,6.948,4.068,7.294,3.687a2.214,2.214,0,0,1,3.506.069c1.516,1.815,7.6,6,9.8,2.037s-1.312-3.921,2.2-6.054,8.618.752,8.911-4.409-2.029-4.4.594-11.661,3.922-12.163-1.059-12.918-17.872-2.8-18.735-3.144-4.585-2.316-6.287-2.316S66.773,35.057,64.241,37.951Z"/><path class="cls-8" d="M63.7,43.447s1.318,8.258,2.258,10.81,1.456,7.232,2.679,11.064,3.335,11.6,3.335,11.6l4.357-1.477-2.084-8.577S69.4,56.1,69.873,55.127s-1.333-4.982-.679-4.711,4.884-4.44,4.884-4.44l.875-4.012-.875-1.448s-2.518,4.406-3.051,4.914a20.306,20.306,0,0,1-3.489,1.61L67,40.9Z"/><path class="cls-8" d="M81.546,50.684s-.048,4.585.194,6.786-.3,3.251-.115,5.169,1.215,6.346.465,7.957-.465,6.151-.465,6.151l5.1,2.948a22.117,22.117,0,0,0,.449-4.842c-.144-1.97-.1-8.08.95-9.532s4.8-3.557,5.2-5.7,3.793-6.58,3.793-6.58l-2.113-4.217a14.873,14.873,0,0,1-2.372,5.234c-1.672,2.088-4.586,5.833-4.586,5.833s-1.714,1.594-1.631.665,1.656-5.88.865-7.123-1.163-4.609-1.163-4.609L82.066,51.2Z"/><path class="cls-9" d="M74.953,92.224s1.287,9.946.66,12.47.836,6.2.719,7.637.365,2.887,0,4.678,1.052,2.695.9,3.7a39.025,39.025,0,0,1-1.449,4.054c-.523,1.574-1.382,1.652.257,3.939s1.318,2.714.843,4.008-1.991,1.567-1.972,4.781-.085,3.414-1.047,4.341-3.774,4.386-3.774,4.386,6.9-.774,8.2-.819,2.8,1.326,3.188,1.692,3.087-.366,6.067,0a37.871,37.871,0,0,0,5.843.1c1.684.05,3.741-.1,3.741-.1a19.894,19.894,0,0,0-3.113-4.426c-1.865-1.908-2.779-1.63-4.027-5.617s-2.035-8.789-1.272-12.588,1.266-20.55,1.266-20.55L90.13,84.88Z"/><path class="cls-10" d="M66.588,31.446s-8.3-2.234-6.8-5.608,2.781-3.492,2.781-3.492-.307-3.92.889-3.482a6.235,6.235,0,0,0,2.881.076s-1.172-7.054,2.929-5.935,3.818,3.007,3.818,3.007,2.466-2.853,4.229-.433,3.919-2.034,5.346.188S84.944,18.1,84.944,18.1s.555-6.966,5.3-3.7,2.176,8.446,1.549,7.5,1.3-.957-1.469,2.072a16.1,16.1,0,0,1-4.851,3.914Z"/><path class="cls-10" d="M74.5,29.348A3.3,3.3,0,0,0,71.891,27.5c-2.13-.437-4.459,1.144-4.756,2.119s.877.769.957,2.282a6.03,6.03,0,0,1-1.263,3.24s-1.767,1.634,0,2.813L68.6,39.13s-.613,3.286,1.126,3.322,2.434-.9,2.468.247-.422,5.488,1.45,5.693a8.657,8.657,0,0,0,2.693,0s-1.661,3.778-.02,3.406a4.325,4.325,0,0,1,2.412-.048s2.133,1.866,4.346,1,2.052-.222,2.62-1.579,3.608-1.116,3.824-.751l.216.366s-1.466,1.331.2,1.506a22.757,22.757,0,0,0,3.682,0,1.233,1.233,0,0,0,.257,2.245A17.717,17.717,0,0,0,97.5,55.9s1.652,2.626,2.111,2.767,4.2,1.942,6.088.485.629-3.406.355-3.836,1.662-2.277,1.662-2.277,4.667,3.256,5.786-.745a29.929,29.929,0,0,0,1.122-4.627s4.794-.158,6.15-1.618,2.023-3.09-.478-3.948a9.893,9.893,0,0,1-3.907-2.444s6.774-1.666,5.905-4.145a3.211,3.211,0,0,0-3.05-2.361s4.38-4,1.368-4.083-4.137,1.629-4.137,1.629,1.33-2.441-.685-3.035a3.816,3.816,0,0,0-3.265.348s3.285-1.108.977-1.354a2.507,2.507,0,0,0-2.84,1.677l-2.278-.048s2.617-4.585.045-4.317a26.336,26.336,0,0,0-4.247.761s3.069-2.605-.285-1.535-2.825.535-3.186,1.865-1.908,2.028-2,2.991-1.338-.42-.754,1.722.934,3.234-.966,2.178S96.291,29.9,95,29.424a1.831,1.831,0,0,1-.7-3.058c1.015-.976,3.338-2.51,1.768-3.916s-2.347-3.043-3.8-1.573a9.233,9.233,0,0,1-2.936,2.032s-3.285-1.37-3.636-.07-1.055,1.37-1.055,1.37-1.777-.635-2.279-.109-.555-.358-2,.525l-1.442.883s-1.459-3.246-2.064-2.039.752,2.086.752,2.086-1.494-.979-2.12-.352.3,1.454.3,1.454a5.452,5.452,0,0,0-1.7-.666C73.3,25.886,74.5,29.348,74.5,29.348Z"/><path class="cls-10" d="M68.519,28.545l-2.973,1.439S66.5,26.63,63.171,27.7a15.453,15.453,0,0,1-8.069.621C52.75,27.9,49.54,24.447,47.585,25s-3.747.149-2.813,1.45-1.93.752-2.227,2.7a2.478,2.478,0,0,0,.887,2.64s-3.267.34-1.727,1.814,2.527.905,2.527.905-3.487,1.405-.83,2.154,5.683-2.1,6.128.572-1.945,2.345-1.945,2.345-6.885-1-6.8.386,3.548,1.231,1.956,2.761-6.33,3.283-2.63,3.7,4.334-.057,4.334-.057-1.308,1.607-.055,1.024.3.41.764.975-1.77,3.442,1.109,3.525,2.951-3.373,2.951-3.373,1.932,2.69,2.591,2.349,7.4,1.181,7.311.226a23.845,23.845,0,0,1,.2-3.337s1,2.51,1.617-.717,1.342-3.505,1.342-3.505,3.717.61,4.461-1.169A9.067,9.067,0,0,0,66.9,37.91s2.838,1.747,2.6-1.258S74.927,29.075,68.519,28.545Z"/><path class="cls-10" d="M42.065,69.6s-5.909,4.3-5.891,7.385S41.531,75.9,41.531,75.9s-4.369,2.817-1.339,4.528,3.563.023,3.3.867-2.71,3.162.03,3.565,3.3-1.757,3.2.293-.8,4.022.272,4.237,4.473-2.977,4.473-2.977-1.374,4.011.567,3.722,1.831-.845,1.831-.845a3.453,3.453,0,0,0,2.887,1.518c1.734-.192,3.785.78,3.111-1.479A9.792,9.792,0,0,0,58.151,85.9a5.83,5.83,0,0,1,3.872-2.721,14.443,14.443,0,0,0,8.232-4.955c1.97-2.637,5.272-4.047,2.954-4.67a3.618,3.618,0,0,1-2.656-3.338c-.052-.576-.495-2.664-2.214-3.087S62.614,64.051,59.5,64.8s-3.164.276-5.5,1.258S42.065,69.6,42.065,69.6Z"/><path class="cls-10" d="M64.241,80.46a4.629,4.629,0,0,1-2.54,1.674c-1.825.544-4.537,1.076-2.81,2.842a4.33,4.33,0,0,0,3.663,1.4s-5.034,2.115-5.074,4.165.689.775-.041,2.05-1.61,1.412-.581,2.229,2.5-1.561,2.31.429,1.167,3.841,1.661,3.673,1.179-1.818,1.179-1.818,1.179,2.981,2.893,2.465,2.951-2.725,2.951-2.725-.2,1.663,1.273.565,1.324-1.925,2.153-2.184a17.356,17.356,0,0,1,3.368-.188s.555,2.166,1.686.487a6.774,6.774,0,0,0,1.229-2.916s.074,1.209,1.622-.115,5.169-1.206,5.169-1.206,3.091,4.45,3.68,2.2a13.5,13.5,0,0,1,2.889-4.673s.152,3.02,2.458,2.384,7.23-3.549,2.352-4.818a48,48,0,0,0-7.04-1.448s2.156-1.977,1.173-2.3,1-1.742-.937-2.593S88.741,77,86.043,76.958l-2.7-.038s2.108-3.105-.553-2.757A3.988,3.988,0,0,0,79.435,76.5a2.249,2.249,0,0,0-1.425-3.587c-3.131-.936-3.132-1.319-3.932-.561s-4.645.326-4.828,1.255-.731,2.34-.031,2.874-1.728-1.251-3.425.27S63.359,79.308,64.241,80.46Z"/><path class="cls-10" d="M80.509,92.978s-2.464.878-1.155,2.383,2.318,1.426,2.318,1.426-3.571,4.514-.981,4.483,4.867-3.829,2.59-.032-1.64,6.232.474,7.786,4.435-2.719,4.435-2.719-.592,4.717,1.587,3.06,2.173-2.806,2.173-2.806,1.267,4.729,2.258,2.758-.457-5.55.8-4.728,3.16,3.782,4.333,3.231a11.065,11.065,0,0,0,2.523-1.947s3.179,2.931,3.458.794l.279-2.138s2.409-.2,1.972-1.452-2.359-1.429-2.359-1.429.658-3.6-2.239-4.678-3.809-.707-3.809-.707l.29-3.216a5.53,5.53,0,0,0,2.389.41c1.136-.127,2.735.519,2.755,1.136s2.338,2.09,3.7,1.888a3.8,3.8,0,0,0,1.876-.658s1.2,4.267,2.488,3.566,1.308-1.225,1.308-1.225.692,1.109,2,.063a6.925,6.925,0,0,0,1.851-2.2A18.785,18.785,0,0,0,121,94.962,4.014,4.014,0,0,0,123.365,92s5.046-4.792,1.716-6.108a9,9,0,0,0-6.62.3s-.931-.87.254-2.154,4.332-2.372,1.322-2.673-3.2-1.12-3.2-1.12a20.322,20.322,0,0,0,2.6-4.245c.5-1.558,2.8-4.817-.2-6.156s-8.94-3.69-11.778-2.83-10.446.544-10.337,2.751-2.9,2.809-5.413,3.847-2.78,6.437-2.78,6.437-1.014,5.715-1.391,6.542-2.357,2.9-4.094,2.639S78.488,90.665,80.509,92.978Z"/><path class="cls-10" d="M98.988,58.452s-5.064,3.892-5.863,4.534-2.312,1.626-.792,1.681a15.753,15.753,0,0,0,3.354-.354s-3.549,1.946-2.154,3.319a3.788,3.788,0,0,0,2.617,1.3s-4.493,4.2-.909,5.565S99.8,72.078,99.8,71.211s1.564-2.75,1.564-2.75a2.482,2.482,0,0,0,2.55.779,4.372,4.372,0,0,0,2.46-2.127s2.042,1.3,3.206.519-.692,3.6,1.11,2.742,4.956-2.218,5.06-1.385-.954,3.593,1.378,3.743a3.69,3.69,0,0,0,3.379-2.007s1.64,5.171,2.975,4.052.5-3.918.5-3.918,2.837,4,4.9,2.173,1.685-4.1.5-4.469,4.4-2.325.281-3.252-4.848,0-4.848,0,5.108-2.139,3.646-3.242a3.8,3.8,0,0,0-3.33-.409s5.977-4.455,3.736-6.043-3.123-1.127-3.123-1.127,3.89-4.632,1.3-4.878a9.523,9.523,0,0,0-4.689.8s2.46-3.544-1.228-4.517-5.079-1.1-6.384-.151-2.132,4.574-2.132,4.574a27.93,27.93,0,0,0-3.781.161c-3.76.237-6.695-.315-5.187,2.837s1.275,4.7.945,4.281-2.928-4.1-3.984-1.985-.893,2.633-.893,2.633-2.711-3.3-2.449-1.708A2.352,2.352,0,0,0,98.988,58.452Z"/><path class="cls-10" d="M48.28,46.529a20.416,20.416,0,0,0-1.513,3.915c-.02.836-1.551.643-2.1.943s-4.331.027-2.791,1.761,1.971,1.406,1.539,1.733-6.143.275-5.431,1.769,1.644,1.732.979,2.1-5.825,2.622-4.651,3.428,1.965,1.283,1.965,1.283-4.94,4.766-2.847,5.047l2.094.281s-.335,1.954.1,1.655S37.14,69.5,37.14,69.5s1.6,2.268,2.92,1.419,1.081-1.359,1.643-.366-.1,3.851,4.142,1.871,5.143-4.963,5.143-4.963-1.4,4.661,1.227,3.526S55,66.564,55,66.564a12.216,12.216,0,0,0,3.732-.781c1.685-.711,2.3.261,3.039,1.449s2.339,4.748,4.986,2.62,4.633-3.808,5.586-4.069,7.506.331,6.27-2.321-6.27-1.807-6.27-1.807,2.711-6.146,0-4.887a13.1,13.1,0,0,0-4.578,4s-1.393-3.6-4.093-2.429a11.427,11.427,0,0,1-3.852,1.174,1.684,1.684,0,0,0-.289-2.011c-.9-1.109-1.137-.431-1.2-2.444s1.865-2.925,2.111-3.793,1.32-4.562-1.469-4.28A17.269,17.269,0,0,1,55,47.068s-.438-2.607-2.437-1.911-1.276,2.888-1.276,2.888S50.263,44.986,48.28,46.529Z"/><path class="cls-11" d="M106.031,80.349s-3.427.849-2.9,3.395,2.608,3.915,5.1,2.464S110.5,80.918,106.031,80.349Z"/><path class="cls-12" d="M104.264,80.211s.078.123.175.3.223.409.353.637.261.456.362.632.165.3.165.3a1.446,1.446,0,0,1-.3-.2,2.28,2.28,0,0,1-.489-.6,2.533,2.533,0,0,1-.169-.375,1.9,1.9,0,0,1-.086-.347A1.344,1.344,0,0,1,104.264,80.211Z"/><path class="cls-12" d="M106.663,81.558a1.281,1.281,0,0,1-.1-.275,2.259,2.259,0,0,1,.033-1.238,1.281,1.281,0,0,1,.117-.269,1.842,1.842,0,0,1,.05.286,4.566,4.566,0,0,1,.023.608,4.63,4.63,0,0,1-.056.606A1.9,1.9,0,0,1,106.663,81.558Z"/><path class="cls-12" d="M104.1,83.341a2.08,2.08,0,0,0-.291.1,1.567,1.567,0,0,0-.252.136,1.19,1.19,0,0,0-.124.094,1.241,1.241,0,0,0-.117.111c-.154.158-.306.352-.453.477a.968.968,0,0,1-.271.177l.137-.276a2.3,2.3,0,0,1,.375-.573,1.252,1.252,0,0,1,.155-.131.814.814,0,0,1,.174-.1.9.9,0,0,1,.342-.076.755.755,0,0,1,.24.029A.553.553,0,0,1,104.1,83.341Z"/><path class="cls-12" d="M104.642,85.046a1.776,1.776,0,0,1,.038.316,3.675,3.675,0,0,1-.036.68,3.613,3.613,0,0,1-.16.662,1.794,1.794,0,0,1-.128.293,1.758,1.758,0,0,1-.038-.316,3.665,3.665,0,0,1,.036-.679,3.7,3.7,0,0,1,.161-.663A1.853,1.853,0,0,1,104.642,85.046Z"/><path class="cls-12" d="M106.7,85.822c0,.006-.016-.018.014-.022a.086.086,0,0,1,.038.008c.018.007.029.031.036.04a2.268,2.268,0,0,1,.134.232,3.2,3.2,0,0,1,.261.755,3.156,3.156,0,0,1,.067.8,1.874,1.874,0,0,1-.051.364,3.556,3.556,0,0,1-.117-.346c-.06-.207-.126-.481-.186-.756s-.107-.551-.135-.765c-.015-.1-.023-.2-.028-.261,0-.02,0-.025,0-.032a.047.047,0,0,0-.018-.019C106.7,85.806,106.7,85.822,106.7,85.822Z"/><path class="cls-12" d="M105.709,83.442a1.215,1.215,0,0,1,.077.241,2.21,2.21,0,0,1,.05.527,2.308,2.308,0,0,1-.075.524,1.251,1.251,0,0,1-.09.237,1.208,1.208,0,0,1-.079-.241,2.266,2.266,0,0,1-.049-.527,2.242,2.242,0,0,1,.076-.524A1.143,1.143,0,0,1,105.709,83.442Z"/><path class="cls-12" d="M107.292,83.227a1.7,1.7,0,0,1,.207.175,3.86,3.86,0,0,1,.37.425,3.714,3.714,0,0,1,.3.473,1.562,1.562,0,0,1,.106.246,1.2,1.2,0,0,1-.236-.141,2.089,2.089,0,0,1-.408-.411,2.048,2.048,0,0,1-.276-.506A1.087,1.087,0,0,1,107.292,83.227Z"/><path class="cls-12" d="M108.269,82.627a.148.148,0,0,1,.024-.128.95.95,0,0,1,.26-.224,8.1,8.1,0,0,1,1.764-.921,3.871,3.871,0,0,1,.44-.138,3.749,3.749,0,0,1-.361.282,8.1,8.1,0,0,1-1.764.921,1.73,1.73,0,0,0-.3.117A.14.14,0,0,0,108.269,82.627Z"/><path class="cls-12" d="M109.112,83.292a.09.09,0,0,1,.056-.053.293.293,0,0,1,.211.015c.042.017.074.03.113.05s.077.037.115.06c.08.043.158.1.237.15a2.258,2.258,0,0,1,.386.356,1.2,1.2,0,0,1,.142.2,1.176,1.176,0,0,1-.243-.074,2.3,2.3,0,0,1-.461-.259,2.747,2.747,0,0,1-.215-.178c-.034-.029-.063-.061-.092-.091a1.02,1.02,0,0,1-.075-.084.326.326,0,0,0-.112-.094A.09.09,0,0,0,109.112,83.292Z"/><path class="cls-12" d="M108.505,85.032a1.694,1.694,0,0,1,.337.15,2.846,2.846,0,0,1,.629.489,2.75,2.75,0,0,1,.462.64,1.591,1.591,0,0,1,.132.336s-.117-.093-.269-.241-.347-.343-.539-.541-.381-.4-.522-.557S108.505,85.032,108.505,85.032Z"/><path class="cls-12" d="M107.806,81.56a1.3,1.3,0,0,1,.026-.266,2.564,2.564,0,0,1,.451-1.027,1.385,1.385,0,0,1,.18-.2,1.244,1.244,0,0,1-.025.266,2.529,2.529,0,0,1-.168.537,2.607,2.607,0,0,1-.284.49A1.385,1.385,0,0,1,107.806,81.56Z"/><path class="cls-11" d="M91.905,96.871s-3.427.85-2.9,3.4,2.607,3.914,5.1,2.464a2.885,2.885,0,0,0,.088-5.11A5.658,5.658,0,0,0,91.905,96.871Z"/><path class="cls-13" d="M92.322,99.523l1.869-1.9a1.79,1.79,0,0,1,1.353,1.617c.253,1.458.119,1.287.119,1.287h-4.7Z"/><path class="cls-12" d="M92.217,97.258a.964.964,0,0,1-.119-.15,1.846,1.846,0,0,1-.173-.333,1.763,1.763,0,0,1-.1-.359.892.892,0,0,1-.014-.19.6.6,0,0,1,.162.113.948.948,0,0,1,.226.335.916.916,0,0,1,.061.395A.563.563,0,0,1,92.217,97.258Z"/><path class="cls-12" d="M90.939,98.2s-.158-.032-.376-.094l-.79-.23-.788-.234c-.217-.066-.366-.125-.366-.125a1.87,1.87,0,0,1,.392-.037,3.075,3.075,0,0,1,.848.124,3.009,3.009,0,0,1,.775.355A1.792,1.792,0,0,1,90.939,98.2Z"/><path class="cls-12" d="M89.858,99.186s-.137.083-.341.181-.478.222-.751.341-.551.232-.765.312-.367.124-.367.124a1.942,1.942,0,0,1,.283-.265,3.372,3.372,0,0,1,1.549-.667A2.009,2.009,0,0,1,89.858,99.186Z"/><path class="cls-12" d="M89.215,100.6a.086.086,0,0,1,.044.058.24.24,0,0,1-.053.186,2.043,2.043,0,0,1-.144.176c-.052.06-.112.118-.169.178a3.341,3.341,0,0,1-.353.3,1.4,1.4,0,0,1-.194.125.736.736,0,0,1,.06-.223,1.276,1.276,0,0,1,.279-.406,1.462,1.462,0,0,1,.207-.166,1.068,1.068,0,0,1,.2-.106.31.31,0,0,0,.11-.072A.072.072,0,0,0,89.215,100.6Z"/><path class="cls-12" d="M91.476,101.809s-.07.149-.177.353-.242.475-.364.75-.234.555-.315.771-.145.366-.145.366a1.582,1.582,0,0,1-.02-.4,2.17,2.17,0,0,1,.06-.405,2.9,2.9,0,0,1,.151-.446,2.975,2.975,0,0,1,.233-.412,2.228,2.228,0,0,1,.264-.319A1.657,1.657,0,0,1,91.476,101.809Z"/><path class="cls-12" d="M90.755,101.068a.4.4,0,0,1,.021.15.57.57,0,0,1-.091.282.579.579,0,0,1-.226.2.413.413,0,0,1-.149.044.625.625,0,0,1,.019-.147.83.83,0,0,1,.109-.249.857.857,0,0,1,.187-.2A.687.687,0,0,1,90.755,101.068Z"/><path class="cls-12" d="M92.247,101.6a.655.655,0,0,1,.084.156,1.012,1.012,0,0,1,.063.342.983.983,0,0,1-.063.342.63.63,0,0,1-.084.156.63.63,0,0,1-.084-.156.974.974,0,0,1,0-.684A.655.655,0,0,1,92.247,101.6Z"/><path class="cls-12" d="M93.5,101.634a.1.1,0,0,1,.095,0,.382.382,0,0,1,.17.176,2.173,2.173,0,0,1,.248.615,2.142,2.142,0,0,1,.049.658,1.272,1.272,0,0,1-.06.3,2.39,2.39,0,0,1-.108-.283c-.055-.169-.114-.39-.167-.613s-.095-.447-.12-.622a.452.452,0,0,0-.046-.186A.088.088,0,0,0,93.5,101.634Z"/><path class="cls-12" d="M93.137,102.808s.095.089.181.185a.645.645,0,0,1,.151.321.626.626,0,0,1-.089.344,2.56,2.56,0,0,1-.144.215.731.731,0,0,1-.248-.106.533.533,0,0,1-.074-.809A.651.651,0,0,1,93.137,102.808Z"/><path class="cls-12" d="M94.633,101.41a.786.786,0,0,1,.218.013,1.352,1.352,0,0,1,.424.16,1.258,1.258,0,0,1,.342.291.722.722,0,0,1,.113.182,1.115,1.115,0,0,1-.21-.049,2.1,2.1,0,0,1-.745-.439A1.086,1.086,0,0,1,94.633,101.41Z"/><path class="cls-12" d="M92.966,97.646a.937.937,0,0,1,0-.226,1.763,1.763,0,0,1,.1-.457,1.79,1.79,0,0,1,.221-.415,1,1,0,0,1,.153-.17.933.933,0,0,1,.005.226,1.763,1.763,0,0,1-.326.871A1,1,0,0,1,92.966,97.646Z"/><path class="cls-11" d="M97.264,84.782s-3.427.849-2.9,3.4,2.607,3.915,5.1,2.465S100.085,83.808,97.264,84.782Z"/><path class="cls-12" d="M97.719,85.351a1.664,1.664,0,0,1-.072-.247,3.795,3.795,0,0,1-.073-1.063,1.609,1.609,0,0,1,.04-.255,1.068,1.068,0,0,1,.127.23,1.748,1.748,0,0,1,.073,1.091A.975.975,0,0,1,97.719,85.351Z"/><path class="cls-12" d="M96.52,86.2s-.1-.084-.236-.213-.3-.3-.47-.471-.334-.345-.459-.482-.2-.242-.2-.242a1.315,1.315,0,0,1,.308.112,2.146,2.146,0,0,1,.569.417,2.059,2.059,0,0,1,.395.575A1.216,1.216,0,0,1,96.52,86.2Z"/><path class="cls-12" d="M94.862,87.458s-.126.028-.3.056-.4.064-.619.107-.442.089-.614.127-.3.057-.3.057a1.013,1.013,0,0,1,.23-.206,1.671,1.671,0,0,1,.627-.257,2,2,0,0,1,.365-.03,1.533,1.533,0,0,1,.316.039A1.042,1.042,0,0,1,94.862,87.458Z"/><path class="cls-12" d="M95.363,88.639a1.014,1.014,0,0,1-.127.271,1.638,1.638,0,0,1-.462.465c-.2.129-.388.224-.512.322a.786.786,0,0,0-.188.2.335.335,0,0,1-.007-.084.487.487,0,0,1,.063-.22.936.936,0,0,1,.2-.247,2.611,2.611,0,0,1,.275-.208c.183-.12.363-.246.506-.342S95.363,88.639,95.363,88.639Z"/><path class="cls-12" d="M96.7,87.313a1.15,1.15,0,0,1-.093.2,2.266,2.266,0,0,1-.261.358,2.368,2.368,0,0,1-.325.305,1.138,1.138,0,0,1-.187.118.751.751,0,0,1,.05-.214,1.3,1.3,0,0,1,.24-.394,1.326,1.326,0,0,1,.366-.289A.794.794,0,0,1,96.7,87.313Z"/><path class="cls-12" d="M97.8,88.8a.42.42,0,0,1,.083.111.523.523,0,0,1,.063.244.535.535,0,0,1-.062.245.436.436,0,0,1-.084.111.411.411,0,0,1-.084-.111.523.523,0,0,1-.063-.245.535.535,0,0,1,.063-.244A.436.436,0,0,1,97.8,88.8Z"/><path class="cls-12" d="M96.915,88.3a.471.471,0,0,1,.084.117.558.558,0,0,1,0,.513.46.46,0,0,1-.085.117.471.471,0,0,1-.084-.117.558.558,0,0,1,0-.513A.454.454,0,0,1,96.915,88.3Z"/><path class="cls-12" d="M96.842,89.9a.368.368,0,0,1,.084.061.2.2,0,0,1,.063.135.2.2,0,0,1-.063.134.317.317,0,0,1-.084.061.335.335,0,0,1-.084-.061A.2.2,0,0,1,96.7,90.1a.2.2,0,0,1,.062-.135A.368.368,0,0,1,96.842,89.9Z"/><path class="cls-12" d="M98.734,87.326a1.178,1.178,0,0,1,.22.179,2.021,2.021,0,0,1,.353.488,1.974,1.974,0,0,1,.19.566,1.089,1.089,0,0,1,.015.278,1.874,1.874,0,0,1-.172-.219,4.758,4.758,0,0,1-.3-.5,4.663,4.663,0,0,1-.233-.529A1.82,1.82,0,0,1,98.734,87.326Z"/><path class="cls-12" d="M99.4,86.453a.588.588,0,0,1-.018-.125.874.874,0,0,1,.057-.335,3.393,3.393,0,0,1,.537-.847,3.639,3.639,0,0,1,.727-.7,1.8,1.8,0,0,1,.41-.22l-.3.34c-.173.2-.391.475-.612.752-.113.136-.226.276-.337.4s-.206.238-.28.343A1.171,1.171,0,0,0,99.4,86.453Z"/><path class="cls-12" d="M98.452,85.354a.074.074,0,0,0,.049-.03.306.306,0,0,0,.04-.129,1.932,1.932,0,0,1,.4-.885,1.1,1.1,0,0,1,.169-.169,1.049,1.049,0,0,1-.015.235,1.853,1.853,0,0,1-.144.467,1.994,1.994,0,0,1-.259.421.275.275,0,0,1-.168.111A.092.092,0,0,1,98.452,85.354Z"/><path class="cls-12" d="M100.033,87.919a.7.7,0,0,1,.2-.053,1.154,1.154,0,0,1,.438.037,1.1,1.1,0,0,1,.389.2.636.636,0,0,1,.142.153,1.14,1.14,0,0,1-.207,0,2.36,2.36,0,0,1-.407-.077,2.332,2.332,0,0,1-.384-.15A1.214,1.214,0,0,1,100.033,87.919Z"/><path class="cls-12" d="M99.656,89.7a.641.641,0,0,1,.195.054,1.019,1.019,0,0,1,.338.242.986.986,0,0,1,.209.354.585.585,0,0,1,.033.2.956.956,0,0,1-.17-.1,1.928,1.928,0,0,1-.521-.569A1.056,1.056,0,0,1,99.656,89.7Z"/><path class="cls-12" d="M98.449,90.72a.828.828,0,0,1,.1.215,1.407,1.407,0,0,1-.064.973.859.859,0,0,1-.124.2,1.293,1.293,0,0,1-.042-.228,2.8,2.8,0,0,1-.007-.472,2.917,2.917,0,0,1,.07-.468A1.352,1.352,0,0,1,98.449,90.72Z"/><path class="cls-12" d="M95.9,90.12a.619.619,0,0,1,0,.178,1,1,0,0,1-.1.341,1.056,1.056,0,0,1-.215.287.682.682,0,0,1-.149.106.625.625,0,0,1,0-.179,1.029,1.029,0,0,1,.1-.34,1.058,1.058,0,0,1,.216-.287A.691.691,0,0,1,95.9,90.12Z"/><path class="cls-11" d="M87.317,29.349s-3.427.849-2.9,3.395,2.343,3.2,4.834,1.745S91.786,29.918,87.317,29.349Z"/><path class="cls-12" d="M86.93,34.232a1.877,1.877,0,0,1,.139.291,3.8,3.8,0,0,1,.187.661,3.748,3.748,0,0,1,.063.683c0,.089-.01.189-.009.213s.012.018.024.009a.012.012,0,0,0,0-.017s.014,0,.012.023a.05.05,0,0,1-.022.031.056.056,0,0,1-.061-.008.27.27,0,0,1-.062-.1c-.016-.035-.034-.076-.05-.12a3.716,3.716,0,0,1-.186-.661,3.661,3.661,0,0,1-.063-.683A1.885,1.885,0,0,1,86.93,34.232Z"/><path class="cls-12" d="M88.256,33.6s.13.127.3.325.386.467.6.739.414.548.562.763.237.371.237.371a2.672,2.672,0,0,1-.363-.262,4.606,4.606,0,0,1-.67-.7,4.458,4.458,0,0,1-.5-.823A2.506,2.506,0,0,1,88.256,33.6Z"/><path class="cls-12" d="M89.854,33.075a.9.9,0,0,1,.229.048,1.6,1.6,0,0,1,.433.224,1.543,1.543,0,0,1,.34.342.839.839,0,0,1,.11.2,1.222,1.222,0,0,1-.219-.076,2.393,2.393,0,0,1-.408-.24,2.3,2.3,0,0,1-.349-.316A1.162,1.162,0,0,1,89.854,33.075Z"/><path class="cls-12" d="M90.353,31.8a1.245,1.245,0,0,1,.22-.136,2.444,2.444,0,0,1,1.055-.254,1.3,1.3,0,0,1,.26.021,1.211,1.211,0,0,1-.22.137,2.424,2.424,0,0,1-1.055.253A1.285,1.285,0,0,1,90.353,31.8Z"/><path class="cls-12" d="M88.446,31.533a.189.189,0,0,1,.095-.047.2.2,0,0,1,.173.042.189.189,0,0,1,.061.162.2.2,0,0,1-.04.1s-.055,0-.1-.009a.159.159,0,0,1-.17-.149C88.455,31.587,88.446,31.533,88.446,31.533Z"/><path class="cls-12" d="M88.591,31.006a.814.814,0,0,1,.214-.086,1.413,1.413,0,0,1,.486-.037,1.38,1.38,0,0,1,.469.134.781.781,0,0,1,.19.129,1.4,1.4,0,0,1-.226.03,2.942,2.942,0,0,1-.463-.01,3.038,3.038,0,0,1-.456-.083A1.369,1.369,0,0,1,88.591,31.006Z"/><path class="cls-12" d="M88.6,32.626a.434.434,0,0,1,.185.011.678.678,0,0,1,.329.2.649.649,0,0,1,.16.344.407.407,0,0,1-.014.18,1.315,1.315,0,0,1-.137-.109,2.89,2.89,0,0,1-.23-.228,3.108,3.108,0,0,1-.2-.251A1.541,1.541,0,0,1,88.6,32.626Z"/><path class="cls-12" d="M87.383,32.284a1.3,1.3,0,0,1,.083.244,2.4,2.4,0,0,1,.061.535c0,.1-.006.2-.018.286s-.028.171-.037.237a.512.512,0,0,0,0,.162.273.273,0,0,0,.019.066.189.189,0,0,1-.068-.035.366.366,0,0,1-.117-.17,1,1,0,0,1-.055-.261,2.629,2.629,0,0,1-.017-.285,2.376,2.376,0,0,1,.064-.535A1.211,1.211,0,0,1,87.383,32.284Z"/><path class="cls-12" d="M86.694,31.824a1.466,1.466,0,0,1-.065.253,2.918,2.918,0,0,1-.232.5,2.953,2.953,0,0,1-.322.448,1.451,1.451,0,0,1-.19.184,1.146,1.146,0,0,1,.041-.259,2.142,2.142,0,0,1,.216-.514,2.2,2.2,0,0,1,.344-.442A1.183,1.183,0,0,1,86.694,31.824Z"/><path class="cls-12" d="M84.927,31.649a1.618,1.618,0,0,1-.186.079c-.108.039-.242.08-.377.115a3.907,3.907,0,0,1-.386.079,1.525,1.525,0,0,1-.2.019.544.544,0,0,1,.125-.164.913.913,0,0,1,.389-.209.929.929,0,0,1,.445,0A.579.579,0,0,1,84.927,31.649Z"/><path class="cls-12" d="M85.172,33.336a1.716,1.716,0,0,1-.18.239,3.368,3.368,0,0,1-.469.433,1.186,1.186,0,0,0-.124.1.762.762,0,0,0-.09.091.431.431,0,0,0-.073.217,1.038,1.038,0,0,1-.042.213.318.318,0,0,1-.038.077.631.631,0,0,0-.02-.079c-.015-.048-.042-.111-.068-.2a.476.476,0,0,1,.014-.35.607.607,0,0,1,.119-.167,1.585,1.585,0,0,1,.141-.124,3.32,3.32,0,0,1,.547-.337A1.649,1.649,0,0,1,85.172,33.336Z"/><path class="cls-12" d="M87.1,30.367a1.66,1.66,0,0,1,.038-.319,3.1,3.1,0,0,1,.219-.658,3.18,3.18,0,0,1,.359-.6,1.75,1.75,0,0,1,.221-.241,2.094,2.094,0,0,1-.07.314,4.951,4.951,0,0,1-.573,1.242A2.193,2.193,0,0,1,87.1,30.367Z"/><path class="cls-12" d="M88.013,29.778a1.158,1.158,0,0,1,.106-.144,1.916,1.916,0,0,1,.535-.433,1.044,1.044,0,0,1,.166-.075.483.483,0,0,1-.037.18.779.779,0,0,1-.229.307.807.807,0,0,1-.352.162A.507.507,0,0,1,88.013,29.778Z"/><path class="cls-12" d="M89.271,30.339a.849.849,0,0,1,.133-.167,1.591,1.591,0,0,1,.352-.264,1.656,1.656,0,0,1,.415-.158.889.889,0,0,1,.215-.024.843.843,0,0,1-.132.166,1.623,1.623,0,0,1-.353.264,1.7,1.7,0,0,1-.415.158A.926.926,0,0,1,89.271,30.339Z"/><path class="cls-12" d="M85.73,30.7a.941.941,0,0,1-.258.019,1.622,1.622,0,0,1-1-.41.948.948,0,0,1-.165-.194,1.7,1.7,0,0,1,.249.052,4.457,4.457,0,0,1,.962.4A1.711,1.711,0,0,1,85.73,30.7Z"/><path class="cls-12" d="M86.416,30.543a1.035,1.035,0,0,1-.082-.217,1.866,1.866,0,0,1,.006-.954,1,1,0,0,1,.086-.216,1,1,0,0,1,.083.217,1.837,1.837,0,0,1-.008.954A.975.975,0,0,1,86.416,30.543Z"/><path class="cls-11" d="M110.712,59.834s-2.6,2.325-.9,4.324,4.208,2.247,5.693-.176a2.92,2.92,0,0,0-2.42-4.539A5.681,5.681,0,0,0,110.712,59.834Z"/><path class="cls-13" d="M112.374,61.977l.716-2.534a1.848,1.848,0,0,1,1.982.8c.936,1.167.733,1.078.733,1.078l-4.136,2.162Z"/><path class="cls-12" d="M111.176,60.032a1.086,1.086,0,0,1-.179-.078,1.938,1.938,0,0,1-.314-.213,1.912,1.912,0,0,1-.265-.271.964.964,0,0,1-.1-.16.626.626,0,0,1,.2.024,1,1,0,0,1,.362.191.944.944,0,0,1,.247.32A.578.578,0,0,1,111.176,60.032Z"/><path class="cls-12" d="M110.511,61.45s-.155.044-.377.09l-.807.161-.809.156c-.224.042-.383.059-.383.059a1.779,1.779,0,0,1,.326-.213,3.035,3.035,0,0,1,.808-.281,3.1,3.1,0,0,1,.856-.045A1.869,1.869,0,0,1,110.511,61.45Z"/><path class="cls-12" d="M110.04,62.814s-.08.136-.212.316-.312.416-.494.646-.372.457-.521.627-.262.278-.262.278a1.854,1.854,0,0,1,.119-.363,3.22,3.22,0,0,1,.432-.716,3.316,3.316,0,0,1,.606-.585A2.008,2.008,0,0,1,110.04,62.814Z"/><path class="cls-12" d="M110.163,64.351a.085.085,0,0,1,.067.03.248.248,0,0,1,.045.189c-.01.079-.025.143-.042.221s-.04.155-.061.234a3.541,3.541,0,0,1-.162.431,1.437,1.437,0,0,1-.11.2.737.737,0,0,1-.057-.224,1.246,1.246,0,0,1,.048-.486,1.36,1.36,0,0,1,.1-.241,1.03,1.03,0,0,1,.124-.186.291.291,0,0,0,.061-.114A.07.07,0,0,0,110.163,64.351Z"/><path class="cls-12" d="M112.747,64.379s.01.164.016.392.019.53.046.828.065.6.1.824.052.389.052.389a1.613,1.613,0,0,1-.213-.342,2.174,2.174,0,0,1-.145-.384,2.478,2.478,0,0,1-.081-.933,2.231,2.231,0,0,1,.076-.4A1.6,1.6,0,0,1,112.747,64.379Z"/><path class="cls-12" d="M111.749,64.058a.4.4,0,0,1,.092.123.551.551,0,0,1-.043.569.407.407,0,0,1-.11.108.626.626,0,0,1-.055-.138.814.814,0,0,1-.026-.27.826.826,0,0,1,.067-.263A.694.694,0,0,1,111.749,64.058Z"/><path class="cls-12" d="M113.322,63.838a.649.649,0,0,1,.15.1,1.032,1.032,0,0,1,.222.273.964.964,0,0,1,.112.33.609.609,0,0,1,0,.175.674.674,0,0,1-.15-.1,1.016,1.016,0,0,1-.222-.273.993.993,0,0,1-.112-.33A.609.609,0,0,1,113.322,63.838Z"/><path class="cls-12" d="M114.442,63.294a.1.1,0,0,1,.082-.047.392.392,0,0,1,.236.078,2.226,2.226,0,0,1,.518.426,2.179,2.179,0,0,1,.365.557,1.249,1.249,0,0,1,.094.293,2.659,2.659,0,0,1-.233-.2c-.131-.123-.291-.291-.446-.462s-.3-.35-.411-.493a.46.46,0,0,0-.131-.142A.089.089,0,0,0,114.442,63.294Z"/><path class="cls-12" d="M114.7,64.494s.127.033.248.075a.659.659,0,0,1,.291.211.646.646,0,0,1,.09.347,2.126,2.126,0,0,1-.022.259.726.726,0,0,1-.269.025.559.559,0,0,1-.384-.232.568.568,0,0,1-.075-.444A.669.669,0,0,1,114.7,64.494Z"/><path class="cls-12" d="M115.331,62.575a.805.805,0,0,1,.2-.089,1.357,1.357,0,0,1,.451-.055,1.333,1.333,0,0,1,.443.1.784.784,0,0,1,.189.109,1.1,1.1,0,0,1-.21.053,2.141,2.141,0,0,1-.437.023,2.111,2.111,0,0,1-.432-.066A1.1,1.1,0,0,1,115.331,62.575Z"/><path class="cls-12" d="M112.024,60.028a1.023,1.023,0,0,1-.115-.2,1.792,1.792,0,0,1-.131-.449,1.726,1.726,0,0,1-.008-.468.942.942,0,0,1,.051-.22.938.938,0,0,1,.115.2,1.748,1.748,0,0,1,.131.45,1.725,1.725,0,0,1,.008.468A.942.942,0,0,1,112.024,60.028Z"/><path class="cls-11" d="M81.021,52.99s.443,3.405,3.112,3.214,4.326-2.025,3.152-4.6S82.158,48.756,81.021,52.99Z"/><path class="cls-12" d="M80.662,54.674s.134-.06.327-.131.445-.165.695-.261.5-.195.69-.271.332-.121.332-.121a1.381,1.381,0,0,1-.243.259,2.286,2.286,0,0,1-.672.4,2.771,2.771,0,0,1-.4.116,2.135,2.135,0,0,1-.366.04A1.453,1.453,0,0,1,80.662,54.674Z"/><path class="cls-12" d="M82.336,52.53a1.358,1.358,0,0,1-.293.065,2.507,2.507,0,0,1-.644-.01,2.428,2.428,0,0,1-.618-.176,1.34,1.34,0,0,1-.261-.146,2.076,2.076,0,0,1,.3-.013,5.1,5.1,0,0,1,.625.054,5.149,5.149,0,0,1,.612.129A2.17,2.17,0,0,1,82.336,52.53Z"/><path class="cls-12" d="M83.841,55.218a1.882,1.882,0,0,0,.064.293,1.532,1.532,0,0,0,.108.26,1.21,1.21,0,0,0,.081.13,1.134,1.134,0,0,0,.1.127c.142.168.322.338.431.5a.921.921,0,0,1,.147.283l-.264-.166a2.351,2.351,0,0,1-.54-.432,1.328,1.328,0,0,1-.115-.165.822.822,0,0,1-.079-.181.854.854,0,0,1-.035-.338.719.719,0,0,1,.06-.228A.5.5,0,0,1,83.841,55.218Z"/><path class="cls-12" d="M85.651,54.91a1.966,1.966,0,0,1,.329,0,4.133,4.133,0,0,1,.69.119,3.955,3.955,0,0,1,.657.237,1.92,1.92,0,0,1,.284.159,1.952,1.952,0,0,1-.328,0,3.921,3.921,0,0,1-.69-.119,4.047,4.047,0,0,1-.657-.237A1.971,1.971,0,0,1,85.651,54.91Z"/><path class="cls-12" d="M86.7,53.021c.006,0-.02.013-.021-.016a.072.072,0,0,1,.013-.036c.01-.017.035-.024.046-.03a2.294,2.294,0,0,1,.253-.1,3.477,3.477,0,0,1,.8-.158,3.442,3.442,0,0,1,.82.035,1.945,1.945,0,0,1,.366.094s-.149.038-.368.069-.507.062-.8.085-.578.035-.8.036c-.109,0-.2,0-.27-.005-.021,0-.026,0-.033,0a.044.044,0,0,0-.021.016C86.684,53.022,86.7,53.021,86.7,53.021Z"/><path class="cls-12" d="M84.144,53.684a1.279,1.279,0,0,1,.256-.045,2.439,2.439,0,0,1,.545.017,2.473,2.473,0,0,1,.526.138,1.279,1.279,0,0,1,.231.116,1.3,1.3,0,0,1-.256.046,2.505,2.505,0,0,1-.545-.018,2.551,2.551,0,0,1-.526-.138A1.279,1.279,0,0,1,84.144,53.684Z"/><path class="cls-12" d="M84.121,52.133a1.654,1.654,0,0,1,.2-.178,3.946,3.946,0,0,1,.48-.3,3.987,3.987,0,0,1,.522-.231,1.738,1.738,0,0,1,.264-.072,1.139,1.139,0,0,1-.173.21,2.107,2.107,0,0,1-.471.342,2.162,2.162,0,0,1-.551.2A1.254,1.254,0,0,1,84.121,52.133Z"/><path class="cls-12" d="M83.629,51.117a.159.159,0,0,1-.129-.039.932.932,0,0,1-.2-.278,7.675,7.675,0,0,1-.723-1.813,3.552,3.552,0,0,1-.086-.441,3.517,3.517,0,0,1,.243.382,7.827,7.827,0,0,1,.42.885,7.718,7.718,0,0,1,.3.928,1.511,1.511,0,0,0,.083.3A.143.143,0,0,0,83.629,51.117Z"/><path class="cls-12" d="M84.413,50.388a.1.1,0,0,1-.048-.061.275.275,0,0,1,.043-.2,1.152,1.152,0,0,1,.064-.1c.024-.034.048-.07.076-.1a2.709,2.709,0,0,1,.183-.209,2.254,2.254,0,0,1,.412-.328,1.215,1.215,0,0,1,.227-.111,1.148,1.148,0,0,1-.106.225,2.211,2.211,0,0,1-.322.411c-.069.065-.137.13-.208.185-.034.029-.071.053-.1.078a1.116,1.116,0,0,1-.095.061.324.324,0,0,0-.111.1A.084.084,0,0,0,84.413,50.388Z"/><path class="cls-12" d="M86.117,51.188a1.618,1.618,0,0,1,.195-.3,2.756,2.756,0,0,1,.578-.545,2.875,2.875,0,0,1,.712-.366,1.776,1.776,0,0,1,.359-.086s-.109.1-.279.23-.394.291-.62.452-.456.316-.635.433S86.117,51.188,86.117,51.188Z"/><path class="cls-12" d="M82.48,51.43a1.4,1.4,0,0,1-.268-.058,2.679,2.679,0,0,1-1-.562,1.333,1.333,0,0,1-.183-.2,1.343,1.343,0,0,1,.268.057,2.715,2.715,0,0,1,.528.229,2.647,2.647,0,0,1,.466.334A1.382,1.382,0,0,1,82.48,51.43Z"/><path class="cls-11" d="M85.1,77.019s.443,3.405,3.112,3.214,4.326-2.024,3.152-4.6a3.056,3.056,0,0,0-5.213-.719A5.3,5.3,0,0,0,85.1,77.019Z"/><path class="cls-13" d="M87.864,76.947l-1.712-2.036a1.81,1.81,0,0,1,1.821-1.1c1.522-.063,1.33.046,1.33.046l-.583,4.524Z"/><path class="cls-12" d="M85.536,76.767a1.066,1.066,0,0,1-.169.1,2.024,2.024,0,0,1-.361.125,2.072,2.072,0,0,1-.381.052,1.1,1.1,0,0,1-.195-.01.6.6,0,0,1,.136-.143.98.98,0,0,1,.37-.175,1,1,0,0,1,.412-.011A.605.605,0,0,1,85.536,76.767Z"/><path class="cls-12" d="M86.341,78.115s-.052.148-.143.35l-.333.731-.338.73c-.094.2-.173.337-.173.337a1.733,1.733,0,0,1,.011-.381,2.806,2.806,0,0,1,.233-.8,2.869,2.869,0,0,1,.458-.7A1.766,1.766,0,0,1,86.341,78.115Z"/><path class="cls-12" d="M87.214,79.278s.067.142.142.351.168.487.256.765.168.559.224.775.081.369.081.369a1.929,1.929,0,0,1-.236-.3,3.157,3.157,0,0,1-.49-1.575A1.867,1.867,0,0,1,87.214,79.278Z"/><path class="cls-12" d="M88.575,80.071a.09.09,0,0,1,.064-.035.263.263,0,0,1,.184.074c.061.054.107.1.162.161s.106.122.161.185a3.389,3.389,0,0,1,.267.377,1.434,1.434,0,0,1,.1.2.8.8,0,0,1-.221-.085,1.337,1.337,0,0,1-.38-.319,1.536,1.536,0,0,1-.144-.22,1.015,1.015,0,0,1-.084-.206.289.289,0,0,0-.06-.115A.076.076,0,0,0,88.575,80.071Z"/><path class="cls-12" d="M90.1,78.045s.143.086.338.214.456.293.722.444.538.294.749.4.357.185.357.185a1.738,1.738,0,0,1-.411-.03,2.35,2.35,0,0,1-.406-.108,2.65,2.65,0,0,1-.83-.476,2.2,2.2,0,0,1-.294-.294A1.625,1.625,0,0,1,90.1,78.045Z"/><path class="cls-12" d="M89.249,78.648a.42.42,0,0,1,.156,0,.593.593,0,0,1,.277.123.576.576,0,0,1,.176.241.4.4,0,0,1,.027.15.676.676,0,0,1-.148-.037.879.879,0,0,1-.242-.136.858.858,0,0,1-.181-.2A.69.69,0,0,1,89.249,78.648Z"/><path class="cls-12" d="M89.976,77.276a.669.669,0,0,1,.169-.061A1.092,1.092,0,0,1,90.5,77.2a1.066,1.066,0,0,1,.342.1.664.664,0,0,1,.148.1.626.626,0,0,1-.169.061,1.04,1.04,0,0,1-.358.018,1.066,1.066,0,0,1-.342-.1A.643.643,0,0,1,89.976,77.276Z"/><path class="cls-12" d="M90.169,76.076a.1.1,0,0,1,.008-.093.382.382,0,0,1,.2-.141,2.294,2.294,0,0,1,.659-.163,2.331,2.331,0,0,1,.679.035,1.313,1.313,0,0,1,.3.095,2.621,2.621,0,0,1-.3.068c-.179.032-.413.062-.647.085S90.6,76,90.414,76a.483.483,0,0,0-.2.021A.082.082,0,0,0,90.169,76.076Z"/><path class="cls-12" d="M91.324,76.569s.1-.083.209-.157a.682.682,0,0,1,.351-.11.661.661,0,0,1,.342.133,2.34,2.34,0,0,1,.2.171.732.732,0,0,1-.144.232.554.554,0,0,1-.829-.029A.682.682,0,0,1,91.324,76.569Z"/><path class="cls-12" d="M90.081,74.955a.711.711,0,0,1,.04-.208,1.261,1.261,0,0,1,.216-.389,1.274,1.274,0,0,1,.34-.293.76.76,0,0,1,.2-.086,1.037,1.037,0,0,1-.076.2,1.977,1.977,0,0,1-.235.359,2.081,2.081,0,0,1-.306.3A1.077,1.077,0,0,1,90.081,74.955Z"/><path class="cls-12" d="M86.025,76.094a1.038,1.038,0,0,1-.232-.024,1.915,1.915,0,0,1-.454-.156,1.875,1.875,0,0,1-.4-.265,1.006,1.006,0,0,1-.155-.169,1.058,1.058,0,0,1,.231.023,1.921,1.921,0,0,1,.454.157,1.887,1.887,0,0,1,.4.265A.989.989,0,0,1,86.025,76.094Z"/><path class="cls-11" d="M91.833,52.216s.443,3.405,3.112,3.214,4.326-2.025,3.152-4.6S91.188,49.378,91.833,52.216Z"/><path class="cls-12" d="M92.471,51.848a1.785,1.785,0,0,1-.262.039,4.107,4.107,0,0,1-.55.006,4.258,4.258,0,0,1-.545-.068,1.687,1.687,0,0,1-.256-.069,1.075,1.075,0,0,1,.251-.094,1.877,1.877,0,0,1,.568-.053,1.911,1.911,0,0,1,.557.117A1.066,1.066,0,0,1,92.471,51.848Z"/><path class="cls-12" d="M93.191,53.108s-.1.091-.247.2-.345.254-.54.394-.394.278-.55.381-.273.167-.273.167a1.24,1.24,0,0,1,.153-.282,2.113,2.113,0,0,1,.5-.5,2.186,2.186,0,0,1,.638-.309A1.285,1.285,0,0,1,93.191,53.108Z"/><path class="cls-12" d="M94.271,54.861s.013.125.02.294.016.391.032.609.037.437.054.608.022.294.022.294a1.019,1.019,0,0,1-.183-.246,1.578,1.578,0,0,1-.185-.636,1.886,1.886,0,0,1,.015-.355,1.436,1.436,0,0,1,.079-.3A.992.992,0,0,1,94.271,54.861Z"/><path class="cls-12" d="M95.541,54.526a1.044,1.044,0,0,1,.261.155,1.634,1.634,0,0,1,.418.5c.107.207.181.4.266.533a.793.793,0,0,0,.184.206.358.358,0,0,1-.087,0,.52.52,0,0,1-.217-.087.94.94,0,0,1-.227-.227,2.435,2.435,0,0,1-.179-.29c-.1-.192-.207-.38-.287-.53S95.541,54.526,95.541,54.526Z"/><path class="cls-12" d="M94.351,53.072a1.263,1.263,0,0,1,.19.113,2.416,2.416,0,0,1,.334.3,2.345,2.345,0,0,1,.271.351,1.144,1.144,0,0,1,.1.2.828.828,0,0,1-.213-.075,1.368,1.368,0,0,1-.373-.28,1.321,1.321,0,0,1-.251-.388A.769.769,0,0,1,94.351,53.072Z"/><path class="cls-12" d="M96.007,52.2a.458.458,0,0,1,.124-.067.554.554,0,0,1,.5.06.441.441,0,0,1,.1.095.439.439,0,0,1-.124.067.55.55,0,0,1-.5-.061A.45.45,0,0,1,96.007,52.2Z"/><path class="cls-12" d="M95.389,52.988a.491.491,0,0,1,.13-.066.622.622,0,0,1,.27-.028.611.611,0,0,1,.255.092.456.456,0,0,1,.108.1.461.461,0,0,1-.129.067.626.626,0,0,1-.27.028.634.634,0,0,1-.255-.092A.492.492,0,0,1,95.389,52.988Z"/><path class="cls-12" d="M97.016,53.258a.337.337,0,0,1,.073-.073.21.21,0,0,1,.145-.044.208.208,0,0,1,.13.077.335.335,0,0,1,.052.088.331.331,0,0,1-.073.074.189.189,0,0,1-.275-.034A.335.335,0,0,1,97.016,53.258Z"/><path class="cls-12" d="M94.617,51.116a1.21,1.21,0,0,1,.21-.19,2.125,2.125,0,0,1,.542-.279,2.154,2.154,0,0,1,.6-.113,1.248,1.248,0,0,1,.286.02,1.9,1.9,0,0,1-.245.139,5.077,5.077,0,0,1-.546.222,5,5,0,0,1-.569.159A2.022,2.022,0,0,1,94.617,51.116Z"/><path class="cls-12" d="M93.807,50.365a.6.6,0,0,1-.131,0,.959.959,0,0,1-.335-.1,3.49,3.49,0,0,1-.8-.623,3.552,3.552,0,0,1-.622-.786,1.69,1.69,0,0,1-.174-.422l.311.326c.185.192.437.435.693.682.124.126.254.253.367.375s.218.228.316.312A1.231,1.231,0,0,0,93.807,50.365Z"/><path class="cls-12" d="M92.565,51.143a.068.068,0,0,0-.025-.051.312.312,0,0,0-.126-.054,2.09,2.09,0,0,1-.459-.2,2.027,2.027,0,0,1-.4-.3,1.083,1.083,0,0,1-.152-.183,1.1,1.1,0,0,1,.238.043,2.034,2.034,0,0,1,.858.5.262.262,0,0,1,.093.176A.082.082,0,0,1,92.565,51.143Z"/><path class="cls-12" d="M95.384,49.939a.641.641,0,0,1-.029-.2,1.07,1.07,0,0,1,.093-.418,1.086,1.086,0,0,1,.253-.35.661.661,0,0,1,.173-.117.982.982,0,0,1-.028.2,2.056,2.056,0,0,1-.13.382,2.207,2.207,0,0,1-.2.352A1.112,1.112,0,0,1,95.384,49.939Z"/><path class="cls-12" d="M97.156,50.523a.591.591,0,0,1,.08-.182,1,1,0,0,1,.29-.3,1.04,1.04,0,0,1,.387-.158.648.648,0,0,1,.2-.006,1.086,1.086,0,0,1-.125.151,1.958,1.958,0,0,1-.3.247,2.1,2.1,0,0,1-.346.184A1.141,1.141,0,0,1,97.156,50.523Z"/><path class="cls-12" d="M98.052,51.812a.856.856,0,0,1,.232-.066,1.538,1.538,0,0,1,.509.008,1.522,1.522,0,0,1,.477.175.859.859,0,0,1,.19.144,1.419,1.419,0,0,1-.238.012,3.185,3.185,0,0,1-.954-.177A1.4,1.4,0,0,1,98.052,51.812Z"/><path class="cls-12" d="M97.121,54.193a.726.726,0,0,1,.183.02,1.108,1.108,0,0,1,.335.142,1.079,1.079,0,0,1,.267.244.634.634,0,0,1,.09.156.726.726,0,0,1-.183-.02,1.1,1.1,0,0,1-.335-.143,1.072,1.072,0,0,1-.266-.243A.66.66,0,0,1,97.121,54.193Z"/><path class="cls-11" d="M62.755,35.293s.442,3.406,3.111,3.215,3.558-1.859,2.384-4.439S63.891,31.06,62.755,35.293Z"/><path class="cls-12" d="M67.7,36.271a1.97,1.97,0,0,1,.315-.1,4.041,4.041,0,0,1,.7-.1,4.144,4.144,0,0,1,.706.024c.091.009.191.033.216.036s.02-.01.012-.023a.012.012,0,0,0-.017-.005s0-.013.026-.008a.046.046,0,0,1,.013.082.29.29,0,0,1-.112.047c-.039.011-.082.024-.129.034a4.075,4.075,0,0,1-.7.1,4.128,4.128,0,0,1-.7-.024A2.005,2.005,0,0,1,67.7,36.271Z"/><path class="cls-12" d="M67.221,34.917s.146-.11.37-.248.525-.313.829-.482.612-.331.85-.446.408-.183.408-.183a2.642,2.642,0,0,1-.313.317,4.7,4.7,0,0,1-.8.559,4.83,4.83,0,0,1-.9.383A2.74,2.74,0,0,1,67.221,34.917Z"/><path class="cls-12" d="M66.879,33.312a.863.863,0,0,1,.078-.215,1.536,1.536,0,0,1,.283-.388,1.564,1.564,0,0,1,.392-.286.917.917,0,0,1,.219-.081,1.073,1.073,0,0,1-.105.2,2.318,2.318,0,0,1-.3.363,2.416,2.416,0,0,1-.367.3A1.2,1.2,0,0,1,66.879,33.312Z"/><path class="cls-12" d="M65.639,32.674a1.228,1.228,0,0,1-.112-.229,2.26,2.26,0,0,1-.127-.517,2.3,2.3,0,0,1,0-.531,1.13,1.13,0,0,1,.055-.247,1.2,1.2,0,0,1,.112.228,2.224,2.224,0,0,1,.126.517,2.3,2.3,0,0,1,0,.531A1.191,1.191,0,0,1,65.639,32.674Z"/><path class="cls-12" d="M65.128,34.477a.183.183,0,0,1-.037-.1.193.193,0,0,1,.065-.161.207.207,0,0,1,.174-.039.212.212,0,0,1,.094.051.852.852,0,0,1-.021.1.214.214,0,0,1-.056.107.225.225,0,0,1-.117.037C65.185,34.475,65.128,34.477,65.128,34.477Z"/><path class="cls-12" d="M64.607,34.272a.762.762,0,0,1-.061-.217,1.292,1.292,0,0,1,.023-.473,1.274,1.274,0,0,1,.194-.435.784.784,0,0,1,.156-.167,1.261,1.261,0,0,1,0,.222,2.674,2.674,0,0,1-.068.444,2.729,2.729,0,0,1-.142.429A1.31,1.31,0,0,1,64.607,34.272Z"/><path class="cls-12" d="M66.265,34.467a.4.4,0,0,1,.034-.178A.664.664,0,0,1,66.544,34a.683.683,0,0,1,.371-.111.441.441,0,0,1,.182.036,1.558,1.558,0,0,1-.127.119,3.19,3.19,0,0,1-.262.192,3.052,3.052,0,0,1-.282.163C66.342,34.438,66.265,34.467,66.265,34.467Z"/><path class="cls-12" d="M65.764,35.594a1.322,1.322,0,0,1,.26-.05,2.543,2.543,0,0,1,.555.008,2.866,2.866,0,0,1,.29.053c.094.022.171.048.237.064a.58.58,0,0,0,.166.021.284.284,0,0,0,.07-.011.188.188,0,0,1-.045.062.383.383,0,0,1-.188.092,1.113,1.113,0,0,1-.273.02c-.095,0-.195-.01-.294-.019a2.583,2.583,0,0,1-.54-.128A1.315,1.315,0,0,1,65.764,35.594Z"/><path class="cls-12" d="M65.208,36.2a1.548,1.548,0,0,1,.25.094,3.062,3.062,0,0,1,.9.65,1.451,1.451,0,0,1,.165.207,1.256,1.256,0,0,1-.26-.072,2.2,2.2,0,0,1-.5-.272,2.232,2.232,0,0,1-.41-.386A1.212,1.212,0,0,1,65.208,36.2Z"/><path class="cls-12" d="M64.81,37.88a1.5,1.5,0,0,1,.058.189c.027.108.051.243.071.377s.029.271.033.382a1.457,1.457,0,0,1-.006.2.559.559,0,0,1-.153-.141.851.851,0,0,1-.112-.829A.544.544,0,0,1,64.81,37.88Z"/><path class="cls-12" d="M66.565,37.854a1.659,1.659,0,0,1,.222.2,3.252,3.252,0,0,1,.384.506,1.416,1.416,0,0,0,.084.131.66.66,0,0,0,.081.1.462.462,0,0,0,.213.1,1.175,1.175,0,0,1,.213.067.379.379,0,0,1,.074.046s-.032,0-.083.01-.12.027-.211.04a.52.52,0,0,1-.357-.056.624.624,0,0,1-.155-.136,1.44,1.44,0,0,1-.11-.151,3.228,3.228,0,0,1-.277-.569A1.586,1.586,0,0,1,66.565,37.854Z"/><path class="cls-12" d="M63.769,35.631a1.768,1.768,0,0,1-.322-.076,3.4,3.4,0,0,1-.646-.293,3.29,3.29,0,0,1-.565-.42,1.71,1.71,0,0,1-.219-.242,2.341,2.341,0,0,1,.312.106,5.115,5.115,0,0,1,.624.313,5.167,5.167,0,0,1,.575.393A2.229,2.229,0,0,1,63.769,35.631Z"/><path class="cls-12" d="M63.28,34.676a1.2,1.2,0,0,1-.134-.12,2.046,2.046,0,0,1-.215-.268,1.985,1.985,0,0,1-.161-.3,1.01,1.01,0,0,1-.056-.169.515.515,0,0,1,.179.058.8.8,0,0,1,.285.258.763.763,0,0,1,.123.36A.479.479,0,0,1,63.28,34.676Z"/><path class="cls-12" d="M64.009,33.534a.871.871,0,0,1-.153-.149,1.508,1.508,0,0,1-.336-.79.834.834,0,0,1,0-.211.863.863,0,0,1,.154.148,1.557,1.557,0,0,1,.226.373,1.5,1.5,0,0,1,.109.418A.834.834,0,0,1,64.009,33.534Z"/><path class="cls-12" d="M63.936,36.988a.88.88,0,0,1-.013.251,1.547,1.547,0,0,1-.544.912.93.93,0,0,1-.218.135,1.643,1.643,0,0,1,.084-.233,4.068,4.068,0,0,1,.235-.454,4.359,4.359,0,0,1,.289-.424A1.78,1.78,0,0,1,63.936,36.988Z"/><path class="cls-12" d="M63.864,36.309a1.148,1.148,0,0,1-.232.052,2.111,2.111,0,0,1-.5,0,2.024,2.024,0,0,1-.479-.123,1.043,1.043,0,0,1-.21-.109,1.1,1.1,0,0,1,.232-.053,2.024,2.024,0,0,1,.975.126A1.043,1.043,0,0,1,63.864,36.309Z"/><path class="cls-11" d="M60.628,45.935s2.053,2.794,4.31,1.4,2.819-3.773.526-5.5A3.04,3.04,0,0,0,60.523,43.6,5.2,5.2,0,0,0,60.628,45.935Z"/><path class="cls-13" d="M63.025,44.6l-2.5-1a1.746,1.746,0,0,1,1.064-1.809c1.31-.756,1.194-.572,1.194-.572l1.7,4.251Z"/><path class="cls-12" d="M60.887,45.513a.986.986,0,0,1-.1.162,1.965,1.965,0,0,1-.258.277,1.873,1.873,0,0,1-.309.22.96.96,0,0,1-.177.081.575.575,0,0,1,.05-.187.932.932,0,0,1,.24-.325.977.977,0,0,1,.358-.2A.62.62,0,0,1,60.887,45.513Z"/><path class="cls-12" d="M62.255,46.329s.026.155.045.374l.064.8.059.8c.016.22.013.376.013.376a1.745,1.745,0,0,1-.177-.341,2.789,2.789,0,0,1-.126-1.642A1.7,1.7,0,0,1,62.255,46.329Z"/><path class="cls-12" d="M63.591,46.952s.129.094.3.243.386.352.6.557.421.414.576.578.252.288.252.288a1.989,1.989,0,0,1-.357-.16,3.324,3.324,0,0,1-.678-.5,3.243,3.243,0,0,1-.522-.656A1.845,1.845,0,0,1,63.591,46.952Z"/><path class="cls-12" d="M65.177,47.024a.089.089,0,0,1,.04-.061.266.266,0,0,1,.2-.019c.08.019.144.041.221.067s.153.059.232.088a3.727,3.727,0,0,1,.42.21,1.52,1.52,0,0,1,.19.131.834.834,0,0,1-.236.026,1.347,1.347,0,0,1-.49-.106,1.5,1.5,0,0,1-.235-.127,1.081,1.081,0,0,1-.174-.142.294.294,0,0,0-.109-.074A.077.077,0,0,0,65.177,47.024Z"/><path class="cls-12" d="M65.527,44.539s.169.011.4.033.544.048.852.059.618.011.855.007.4,0,.4,0a1.726,1.726,0,0,1-.376.163,2.415,2.415,0,0,1-.411.092,2.72,2.72,0,0,1-.963-.038,2.311,2.311,0,0,1-.4-.123A1.687,1.687,0,0,1,65.527,44.539Z"/><path class="cls-12" d="M65.076,45.46a.414.414,0,0,1,.136-.073.6.6,0,0,1,.577.112.412.412,0,0,1,.1.12.672.672,0,0,1-.148.036.913.913,0,0,1-.279-.009.9.9,0,0,1-.26-.1A.671.671,0,0,1,65.076,45.46Z"/><path class="cls-12" d="M65.045,43.918a.668.668,0,0,1,.119-.132,1.043,1.043,0,0,1,.658-.247.684.684,0,0,1,.18.02.637.637,0,0,1-.119.132,1.041,1.041,0,0,1-.307.18,1.068,1.068,0,0,1-.351.067A.684.684,0,0,1,65.045,43.918Z"/><path class="cls-12" d="M64.629,42.772a.093.093,0,0,1-.038-.084.371.371,0,0,1,.108-.218,2.211,2.211,0,0,1,.5-.446,2.264,2.264,0,0,1,.614-.282,1.352,1.352,0,0,1,.311-.055,2.544,2.544,0,0,1-.234.2c-.142.111-.333.244-.528.373s-.395.247-.555.333a.482.482,0,0,0-.161.109A.079.079,0,0,0,64.629,42.772Z"/><path class="cls-12" d="M65.887,42.676s.051-.121.112-.236a.548.548,0,0,1,.621-.3,2.107,2.107,0,0,1,.255.06.747.747,0,0,1-.019.271.552.552,0,0,1-.746.357A.692.692,0,0,1,65.887,42.676Z"/><path class="cls-12" d="M64,41.827a.744.744,0,0,1-.067-.2,1.252,1.252,0,0,1,0-.441,1.274,1.274,0,0,1,.156-.415.749.749,0,0,1,.135-.167,1,1,0,0,1,.028.208,1.951,1.951,0,0,1-.03.424,2.012,2.012,0,0,1-.122.408A1.015,1.015,0,0,1,64,41.827Z"/><path class="cls-12" d="M60.989,44.7a1,1,0,0,1-.216.086,1.915,1.915,0,0,1-.955.021,1.032,1.032,0,0,1-.219-.077,1,1,0,0,1,.216-.086,1.918,1.918,0,0,1,.476-.071,1.971,1.971,0,0,1,.479.051A1.069,1.069,0,0,1,60.989,44.7Z"/><path class="cls-11" d="M86.545,57.263s-3.427.849-2.9,3.4,2.608,3.915,5.1,2.464S91.014,57.832,86.545,57.263Z"/><path class="cls-12" d="M84.778,57.125s.078.123.175.3.223.409.353.637.261.456.363.632.164.3.164.3a1.446,1.446,0,0,1-.3-.2,2.28,2.28,0,0,1-.489-.6,2.427,2.427,0,0,1-.168-.375,1.832,1.832,0,0,1-.087-.347A1.344,1.344,0,0,1,84.778,57.125Z"/><path class="cls-12" d="M87.178,58.472a1.311,1.311,0,0,1-.1-.275,2.259,2.259,0,0,1,.033-1.238,1.281,1.281,0,0,1,.117-.269,1.907,1.907,0,0,1,.051.286,4.756,4.756,0,0,1,.022.608,4.823,4.823,0,0,1-.055.606A2.066,2.066,0,0,1,87.178,58.472Z"/><path class="cls-12" d="M84.616,60.255a2.08,2.08,0,0,0-.291.1,1.61,1.61,0,0,0-.252.136,1.083,1.083,0,0,0-.123.094,1.254,1.254,0,0,0-.118.111c-.154.158-.306.352-.453.477a.972.972,0,0,1-.27.177l.136-.276a2.325,2.325,0,0,1,.375-.573,1.252,1.252,0,0,1,.155-.131.814.814,0,0,1,.174-.1.9.9,0,0,1,.342-.076.755.755,0,0,1,.24.029A.5.5,0,0,1,84.616,60.255Z"/><path class="cls-12" d="M85.156,61.96a1.826,1.826,0,0,1,.039.316,3.683,3.683,0,0,1-.037.68,3.633,3.633,0,0,1-.16.662,1.853,1.853,0,0,1-.127.293,1.807,1.807,0,0,1-.039-.316,3.753,3.753,0,0,1,.036-.679,3.7,3.7,0,0,1,.161-.663A1.853,1.853,0,0,1,85.156,61.96Z"/><path class="cls-12" d="M87.218,62.736c0,.006-.016-.018.014-.022a.084.084,0,0,1,.038.008c.018.007.029.031.036.04a2.268,2.268,0,0,1,.134.232,3.239,3.239,0,0,1,.262.755,3.2,3.2,0,0,1,.066.795,1.784,1.784,0,0,1-.051.364,3.556,3.556,0,0,1-.117-.346c-.06-.207-.126-.481-.185-.756s-.108-.552-.136-.765c-.015-.1-.023-.2-.028-.261,0-.02,0-.025,0-.032a.047.047,0,0,0-.018-.019C87.215,62.72,87.218,62.736,87.218,62.736Z"/><path class="cls-12" d="M86.223,60.356a1.215,1.215,0,0,1,.077.241,2.21,2.21,0,0,1,.05.527,2.253,2.253,0,0,1-.075.524,1.251,1.251,0,0,1-.09.237,1.173,1.173,0,0,1-.078-.241,2.21,2.21,0,0,1-.05-.527,2.242,2.242,0,0,1,.076-.524A1.143,1.143,0,0,1,86.223,60.356Z"/><path class="cls-12" d="M87.806,60.141a1.7,1.7,0,0,1,.207.175,3.757,3.757,0,0,1,.37.425,3.714,3.714,0,0,1,.3.473,1.656,1.656,0,0,1,.107.245,1.156,1.156,0,0,1-.236-.14,2.046,2.046,0,0,1-.409-.412,1.988,1.988,0,0,1-.275-.5A1.125,1.125,0,0,1,87.806,60.141Z"/><path class="cls-12" d="M88.783,59.541a.148.148,0,0,1,.024-.128.949.949,0,0,1,.26-.224,8.1,8.1,0,0,1,1.764-.921,3.845,3.845,0,0,1,.441-.138,3.749,3.749,0,0,1-.361.282,8.142,8.142,0,0,1-1.765.921,1.6,1.6,0,0,0-.3.117A.14.14,0,0,0,88.783,59.541Z"/><path class="cls-12" d="M89.626,60.206a.1.1,0,0,1,.057-.053.294.294,0,0,1,.211.015c.041.017.073.03.112.05s.077.037.115.06c.08.043.158.1.237.15a2.258,2.258,0,0,1,.386.356,1.2,1.2,0,0,1,.142.2,1.176,1.176,0,0,1-.243-.074,2.269,2.269,0,0,1-.46-.259,2.591,2.591,0,0,1-.216-.178c-.034-.029-.063-.061-.092-.091A1.02,1.02,0,0,1,89.8,60.3a.334.334,0,0,0-.112-.095A.093.093,0,0,0,89.626,60.206Z"/><path class="cls-12" d="M89.019,61.946a1.694,1.694,0,0,1,.337.15,2.846,2.846,0,0,1,.629.489,2.75,2.75,0,0,1,.462.64,1.591,1.591,0,0,1,.132.336s-.117-.093-.269-.241-.347-.343-.539-.541-.38-.4-.522-.557S89.019,61.946,89.019,61.946Z"/><path class="cls-12" d="M88.32,58.474a1.3,1.3,0,0,1,.026-.266,2.588,2.588,0,0,1,.168-.537,2.554,2.554,0,0,1,.284-.49,1.319,1.319,0,0,1,.18-.2,1.293,1.293,0,0,1-.026.266,2.547,2.547,0,0,1-.452,1.027A1.319,1.319,0,0,1,88.32,58.474Z"/><path class="cls-11" d="M69.235,79.248s-3.427.849-2.9,3.395,2.607,3.915,5.1,2.464A2.885,2.885,0,0,0,71.521,80,5.643,5.643,0,0,0,69.235,79.248Z"/><path class="cls-13" d="M69.652,81.9,71.521,80a1.792,1.792,0,0,1,1.354,1.618c.253,1.457.118,1.286.118,1.286H68.3Z"/><path class="cls-12" d="M69.547,79.635a1.028,1.028,0,0,1-.119-.15,1.915,1.915,0,0,1-.173-.333,1.789,1.789,0,0,1-.1-.36.97.97,0,0,1-.014-.189.609.609,0,0,1,.162.112.957.957,0,0,1,.226.335.918.918,0,0,1,.061.4A.563.563,0,0,1,69.547,79.635Z"/><path class="cls-12" d="M68.269,80.578s-.158-.033-.376-.095l-.789-.229-.788-.235c-.218-.066-.367-.125-.367-.125a1.882,1.882,0,0,1,.392-.037,3.042,3.042,0,0,1,.848.125,3.009,3.009,0,0,1,.775.354A1.763,1.763,0,0,1,68.269,80.578Z"/><path class="cls-12" d="M67.188,81.562s-.137.083-.341.181-.478.222-.751.341-.55.232-.764.312-.368.125-.368.125a1.91,1.91,0,0,1,.283-.266,3.349,3.349,0,0,1,.73-.431,3.463,3.463,0,0,1,.819-.236A2.011,2.011,0,0,1,67.188,81.562Z"/><path class="cls-12" d="M66.545,82.972a.081.081,0,0,1,.045.057.251.251,0,0,1-.053.187c-.048.065-.092.115-.145.175s-.111.118-.168.178a3.467,3.467,0,0,1-.354.3,1.526,1.526,0,0,1-.194.125.784.784,0,0,1,.06-.224,1.278,1.278,0,0,1,.279-.405,1.448,1.448,0,0,1,.207-.166,1.113,1.113,0,0,1,.2-.107.3.3,0,0,0,.11-.072A.07.07,0,0,0,66.545,82.972Z"/><path class="cls-12" d="M68.807,84.186s-.071.148-.178.352-.242.476-.364.75-.233.555-.315.771-.144.367-.144.367a1.555,1.555,0,0,1-.021-.4,2.158,2.158,0,0,1,.06-.405A2.87,2.87,0,0,1,68,85.175a2.975,2.975,0,0,1,.233-.412,2.228,2.228,0,0,1,.264-.319A1.657,1.657,0,0,1,68.807,84.186Z"/><path class="cls-12" d="M68.085,83.444a.378.378,0,0,1,.021.15.56.56,0,0,1-.091.282.6.6,0,0,1-.225.2.441.441,0,0,1-.15.044.62.62,0,0,1,.019-.147.8.8,0,0,1,.3-.45A.663.663,0,0,1,68.085,83.444Z"/><path class="cls-12" d="M69.577,83.974a.635.635,0,0,1,.084.155.988.988,0,0,1,.063.342.971.971,0,0,1-.063.343.6.6,0,0,1-.084.155.635.635,0,0,1-.084-.155.994.994,0,0,1-.062-.343.965.965,0,0,1,.063-.342A.614.614,0,0,1,69.577,83.974Z"/><path class="cls-12" d="M70.829,84.011a.1.1,0,0,1,.1,0,.38.38,0,0,1,.17.177,2.166,2.166,0,0,1,.248.614,2.144,2.144,0,0,1,.049.658,1.289,1.289,0,0,1-.06.3,2.49,2.49,0,0,1-.107-.284c-.056-.168-.115-.39-.168-.612s-.095-.448-.12-.623a.446.446,0,0,0-.046-.185A.084.084,0,0,0,70.829,84.011Z"/><path class="cls-12" d="M70.467,85.184s.095.09.181.185a.64.64,0,0,1,.151.321.626.626,0,0,1-.089.344,2.308,2.308,0,0,1-.144.215.715.715,0,0,1-.248-.106.533.533,0,0,1-.074-.809A.68.68,0,0,1,70.467,85.184Z"/><path class="cls-12" d="M71.963,83.787a.793.793,0,0,1,.219.013,1.341,1.341,0,0,1,.424.159,1.307,1.307,0,0,1,.342.291.755.755,0,0,1,.112.182,1.115,1.115,0,0,1-.21-.049,2.125,2.125,0,0,1-.4-.181,2.027,2.027,0,0,1-.348-.257A1.061,1.061,0,0,1,71.963,83.787Z"/><path class="cls-12" d="M70.3,80.022a.933.933,0,0,1-.005-.226,1.782,1.782,0,0,1,.325-.872,1,1,0,0,1,.153-.17.933.933,0,0,1,0,.226,1.708,1.708,0,0,1-.1.456,1.8,1.8,0,0,1-.221.416A1,1,0,0,1,70.3,80.022Z"/><path class="cls-11" d="M74.594,67.158s-3.426.85-2.9,3.4,2.607,3.914,5.1,2.464S77.415,66.185,74.594,67.158Z"/><path class="cls-12" d="M75.05,67.727a1.588,1.588,0,0,1-.073-.247,3.81,3.81,0,0,1-.074-.529,3.769,3.769,0,0,1,0-.534,1.524,1.524,0,0,1,.039-.254,1,1,0,0,1,.127.229,1.751,1.751,0,0,1,.073,1.092A1,1,0,0,1,75.05,67.727Z"/><path class="cls-12" d="M73.851,68.576s-.105-.084-.237-.212-.3-.3-.47-.472-.333-.345-.458-.482-.205-.242-.205-.242a1.337,1.337,0,0,1,.307.113,2.119,2.119,0,0,1,.569.416,2.073,2.073,0,0,1,.395.575A1.25,1.25,0,0,1,73.851,68.576Z"/><path class="cls-12" d="M72.193,69.834s-.127.028-.3.056-.4.064-.619.107-.441.089-.614.127-.3.057-.3.057a1.019,1.019,0,0,1,.229-.206,1.671,1.671,0,0,1,.627-.257,2,2,0,0,1,.365-.03,1.533,1.533,0,0,1,.316.039A1.042,1.042,0,0,1,72.193,69.834Z"/><path class="cls-12" d="M72.693,71.016a.964.964,0,0,1-.127.27,1.625,1.625,0,0,1-.462.465c-.2.129-.388.225-.511.322a.782.782,0,0,0-.188.2.326.326,0,0,1-.007-.084.477.477,0,0,1,.062-.219.939.939,0,0,1,.2-.248,2.611,2.611,0,0,1,.275-.208c.183-.12.363-.246.506-.342S72.693,71.016,72.693,71.016Z"/><path class="cls-12" d="M74.032,69.689a1.15,1.15,0,0,1-.093.2,2.317,2.317,0,0,1-.261.359,2.361,2.361,0,0,1-.325.3,1.193,1.193,0,0,1-.187.119.751.751,0,0,1,.05-.214,1.288,1.288,0,0,1,.24-.395,1.36,1.36,0,0,1,.366-.289A.794.794,0,0,1,74.032,69.689Z"/><path class="cls-12" d="M75.125,71.176a.459.459,0,0,1,.084.111.535.535,0,0,1,.062.245.528.528,0,0,1-.062.244.087.087,0,1,1-.168,0,.528.528,0,0,1-.063-.244.548.548,0,0,1,.063-.245A.459.459,0,0,1,75.125,71.176Z"/><path class="cls-12" d="M74.246,70.678a.454.454,0,0,1,.083.117.567.567,0,0,1,.063.257.579.579,0,0,1-.062.256.471.471,0,0,1-.084.117.444.444,0,0,1-.084-.117.566.566,0,0,1-.063-.256.58.58,0,0,1,.063-.257A.471.471,0,0,1,74.246,70.678Z"/><path class="cls-12" d="M74.172,72.278a.354.354,0,0,1,.084.062.175.175,0,0,1,0,.268.35.35,0,0,1-.085.062.354.354,0,0,1-.084-.062.175.175,0,0,1,0-.268A.338.338,0,0,1,74.172,72.278Z"/><path class="cls-12" d="M76.065,69.7a1.143,1.143,0,0,1,.219.179,2.014,2.014,0,0,1,.353.487,1.943,1.943,0,0,1,.19.566,1.089,1.089,0,0,1,.015.278,1.874,1.874,0,0,1-.172-.219,4.851,4.851,0,0,1-.528-1.026A1.928,1.928,0,0,1,76.065,69.7Z"/><path class="cls-12" d="M76.732,68.829a.539.539,0,0,1-.019-.125.877.877,0,0,1,.057-.335,3.393,3.393,0,0,1,.537-.847,3.639,3.639,0,0,1,.727-.7,1.8,1.8,0,0,1,.41-.22l-.3.34c-.173.2-.39.475-.611.753-.114.135-.227.276-.338.4s-.206.239-.279.343A1.147,1.147,0,0,0,76.732,68.829Z"/><path class="cls-12" d="M75.782,67.73a.072.072,0,0,0,.049-.03.288.288,0,0,0,.04-.129,1.922,1.922,0,0,1,.143-.466,1.942,1.942,0,0,1,.259-.419,1.036,1.036,0,0,1,.168-.168,1,1,0,0,1-.014.234,1.92,1.92,0,0,1-.145.468,1.986,1.986,0,0,1-.259.42.269.269,0,0,1-.168.111A.087.087,0,0,1,75.782,67.73Z"/><path class="cls-12" d="M77.363,70.3a.7.7,0,0,1,.2-.053,1.153,1.153,0,0,1,.438.037,1.134,1.134,0,0,1,.39.2.663.663,0,0,1,.142.153,1.2,1.2,0,0,1-.208,0,2.293,2.293,0,0,1-.407-.078,2.332,2.332,0,0,1-.384-.15A1.118,1.118,0,0,1,77.363,70.3Z"/><path class="cls-12" d="M76.986,72.074a.633.633,0,0,1,.195.054,1.022,1.022,0,0,1,.339.243.984.984,0,0,1,.209.354.594.594,0,0,1,.032.194,1,1,0,0,1-.17-.1,1.866,1.866,0,0,1-.29-.259,1.91,1.91,0,0,1-.231-.31A1.015,1.015,0,0,1,76.986,72.074Z"/><path class="cls-12" d="M75.78,73.1a.828.828,0,0,1,.095.215,1.4,1.4,0,0,1-.064.972.859.859,0,0,1-.124.2,1.293,1.293,0,0,1-.042-.227,2.9,2.9,0,0,1,.063-.941A1.26,1.26,0,0,1,75.78,73.1Z"/><path class="cls-12" d="M73.229,72.5a.625.625,0,0,1,0,.179,1.025,1.025,0,0,1-.1.34,1.058,1.058,0,0,1-.216.287.691.691,0,0,1-.148.106.645.645,0,0,1,0-.179,1.029,1.029,0,0,1,.1-.34,1.052,1.052,0,0,1,.216-.286A.677.677,0,0,1,73.229,72.5Z"/><path class="cls-11" d="M99,54.346s-3.427.849-2.9,3.4,2.343,3.2,4.834,1.745S103.469,54.915,99,54.346Z"/><path class="cls-12" d="M98.613,59.229a1.877,1.877,0,0,1,.139.291,3.786,3.786,0,0,1,.187.662,3.738,3.738,0,0,1,.063.682c0,.089-.01.189-.009.213s.012.018.024.009a.012.012,0,0,0,0-.017s.014,0,.012.024a.049.049,0,0,1-.022.03.057.057,0,0,1-.061-.007.281.281,0,0,1-.062-.1c-.016-.035-.034-.075-.05-.12a3.716,3.716,0,0,1-.186-.661,3.661,3.661,0,0,1-.063-.683A1.885,1.885,0,0,1,98.613,59.229Z"/><path class="cls-12" d="M99.939,58.6s.13.127.3.325.386.468.6.739.414.548.562.763.237.371.237.371a2.672,2.672,0,0,1-.363-.262,4.559,4.559,0,0,1-.67-.7,4.486,4.486,0,0,1-.5-.822A2.533,2.533,0,0,1,99.939,58.6Z"/><path class="cls-12" d="M101.537,58.072a.9.9,0,0,1,.229.048,1.6,1.6,0,0,1,.433.224,1.565,1.565,0,0,1,.34.342.839.839,0,0,1,.11.2,1.222,1.222,0,0,1-.219-.076,2.329,2.329,0,0,1-.408-.24,2.3,2.3,0,0,1-.349-.316A1.162,1.162,0,0,1,101.537,58.072Z"/><path class="cls-12" d="M102.036,56.8a1.245,1.245,0,0,1,.22-.136,2.444,2.444,0,0,1,1.055-.254,1.3,1.3,0,0,1,.26.021,1.211,1.211,0,0,1-.22.137,2.424,2.424,0,0,1-1.055.253A1.3,1.3,0,0,1,102.036,56.8Z"/><path class="cls-12" d="M100.129,56.53a.189.189,0,0,1,.095-.047.2.2,0,0,1,.173.042.19.19,0,0,1,.061.163.2.2,0,0,1-.04.1s-.055,0-.1-.009a.159.159,0,0,1-.17-.149C100.138,56.584,100.129,56.53,100.129,56.53Z"/><path class="cls-12" d="M100.274,56a.814.814,0,0,1,.214-.086,1.438,1.438,0,0,1,.486-.037,1.373,1.373,0,0,1,.469.134.781.781,0,0,1,.19.129,1.4,1.4,0,0,1-.226.03,2.942,2.942,0,0,1-.463-.01,3.038,3.038,0,0,1-.456-.083A1.369,1.369,0,0,1,100.274,56Z"/><path class="cls-12" d="M100.281,57.623a.434.434,0,0,1,.185.011.681.681,0,0,1,.329.2.643.643,0,0,1,.16.343.407.407,0,0,1-.014.18,1.315,1.315,0,0,1-.137-.109,2.89,2.89,0,0,1-.23-.228,3.108,3.108,0,0,1-.2-.251A1.541,1.541,0,0,1,100.281,57.623Z"/><path class="cls-12" d="M99.066,57.282a1.268,1.268,0,0,1,.083.243,2.4,2.4,0,0,1,.061.535c0,.1-.006.2-.018.286s-.028.171-.037.237a.511.511,0,0,0,0,.162.292.292,0,0,0,.019.067.207.207,0,0,1-.068-.036.36.36,0,0,1-.117-.17,1,1,0,0,1-.055-.26,2.663,2.663,0,0,1-.017-.286,2.376,2.376,0,0,1,.064-.535A1.185,1.185,0,0,1,99.066,57.282Z"/><path class="cls-12" d="M98.377,56.821a1.466,1.466,0,0,1-.065.253,2.918,2.918,0,0,1-.232.5,2.953,2.953,0,0,1-.322.448,1.451,1.451,0,0,1-.19.184,1.146,1.146,0,0,1,.041-.259,2.136,2.136,0,0,1,.216-.513,2.233,2.233,0,0,1,.344-.443A1.183,1.183,0,0,1,98.377,56.821Z"/><path class="cls-12" d="M96.61,56.646a1.725,1.725,0,0,1-.186.08c-.107.039-.242.079-.377.114a3.907,3.907,0,0,1-.386.079,1.525,1.525,0,0,1-.2.019.544.544,0,0,1,.125-.164.913.913,0,0,1,.389-.209.929.929,0,0,1,.445,0A.579.579,0,0,1,96.61,56.646Z"/><path class="cls-12" d="M96.855,58.333a1.716,1.716,0,0,1-.18.239,3.312,3.312,0,0,1-.469.433,1.186,1.186,0,0,0-.124.1.762.762,0,0,0-.09.091.431.431,0,0,0-.073.217.975.975,0,0,1-.042.213.318.318,0,0,1-.038.077.631.631,0,0,0-.02-.079c-.015-.048-.042-.111-.068-.2a.476.476,0,0,1,.014-.35.607.607,0,0,1,.119-.167,1.615,1.615,0,0,1,.142-.124,3.341,3.341,0,0,1,.546-.337A1.649,1.649,0,0,1,96.855,58.333Z"/><path class="cls-12" d="M98.78,55.365a1.673,1.673,0,0,1,.038-.32,3.1,3.1,0,0,1,.219-.658,3.234,3.234,0,0,1,.359-.6,1.774,1.774,0,0,1,.221-.24,2.1,2.1,0,0,1-.07.313,4.951,4.951,0,0,1-.573,1.242A2.16,2.16,0,0,1,98.78,55.365Z"/><path class="cls-12" d="M99.7,54.776a1.124,1.124,0,0,1,.106-.145,1.916,1.916,0,0,1,.535-.433,1.044,1.044,0,0,1,.166-.075.483.483,0,0,1-.037.18.779.779,0,0,1-.229.307.807.807,0,0,1-.352.162A.522.522,0,0,1,99.7,54.776Z"/><path class="cls-12" d="M100.954,55.336a.849.849,0,0,1,.133-.167,1.582,1.582,0,0,1,.352-.263,1.624,1.624,0,0,1,.415-.159.889.889,0,0,1,.215-.024.864.864,0,0,1-.132.167,1.59,1.59,0,0,1-.353.263,1.656,1.656,0,0,1-.415.158A.926.926,0,0,1,100.954,55.336Z"/><path class="cls-12" d="M97.413,55.693a.941.941,0,0,1-.258.019,1.625,1.625,0,0,1-.537-.12,1.592,1.592,0,0,1-.463-.29.919.919,0,0,1-.165-.194,1.881,1.881,0,0,1,.249.052,4.308,4.308,0,0,1,.493.171,4.521,4.521,0,0,1,.469.225A1.861,1.861,0,0,1,97.413,55.693Z"/><path class="cls-12" d="M98.1,55.54a1.035,1.035,0,0,1-.082-.217,1.879,1.879,0,0,1-.059-.477,1.858,1.858,0,0,1,.065-.477,1,1,0,0,1,.086-.216,1,1,0,0,1,.083.217,1.879,1.879,0,0,1,.059.477,1.9,1.9,0,0,1-.066.477A1,1,0,0,1,98.1,55.54Z"/><path class="cls-11" d="M86.929,76.2s-2.6,2.325-.895,4.324,4.208,2.247,5.693-.176a2.921,2.921,0,0,0-2.42-4.539A5.681,5.681,0,0,0,86.929,76.2Z"/><path class="cls-13" d="M88.591,78.343l.716-2.534a1.848,1.848,0,0,1,1.982.8c.935,1.167.733,1.078.733,1.078l-4.136,2.162Z"/><path class="cls-12" d="M87.392,76.4a1.1,1.1,0,0,1-.178-.078,1.988,1.988,0,0,1-.315-.213,1.957,1.957,0,0,1-.264-.271.964.964,0,0,1-.1-.16.628.628,0,0,1,.2.024,1,1,0,0,1,.362.191.97.97,0,0,1,.247.32A.559.559,0,0,1,87.392,76.4Z"/><path class="cls-12" d="M86.728,77.816s-.155.044-.377.09l-.808.161-.808.156c-.224.042-.383.059-.383.059a1.779,1.779,0,0,1,.326-.213,3.04,3.04,0,0,1,.807-.281,3.108,3.108,0,0,1,.857-.045A1.869,1.869,0,0,1,86.728,77.816Z"/><path class="cls-12" d="M86.257,79.18s-.08.136-.212.316-.312.416-.5.646-.371.457-.52.627-.262.278-.262.278a1.854,1.854,0,0,1,.119-.363,3.182,3.182,0,0,1,.432-.716,3.285,3.285,0,0,1,.606-.585A2.008,2.008,0,0,1,86.257,79.18Z"/><path class="cls-12" d="M86.38,80.717a.085.085,0,0,1,.067.03.244.244,0,0,1,.044.189c-.01.079-.024.143-.041.221s-.041.155-.061.234a3.377,3.377,0,0,1-.163.431,1.322,1.322,0,0,1-.11.2.756.756,0,0,1-.056-.224,1.264,1.264,0,0,1,.047-.486,1.441,1.441,0,0,1,.1-.241,1.03,1.03,0,0,1,.124-.186.291.291,0,0,0,.061-.114A.07.07,0,0,0,86.38,80.717Z"/><path class="cls-12" d="M88.964,80.745s.01.164.016.392.019.53.046.828.065.6.1.824.052.389.052.389a1.613,1.613,0,0,1-.213-.342,2.145,2.145,0,0,1-.145-.384,2.811,2.811,0,0,1-.085-.463,2.942,2.942,0,0,1,0-.47,2.227,2.227,0,0,1,.077-.4A1.6,1.6,0,0,1,88.964,80.745Z"/><path class="cls-12" d="M87.966,80.424a.4.4,0,0,1,.092.123.551.551,0,0,1-.043.569.423.423,0,0,1-.11.108.657.657,0,0,1-.056-.138.812.812,0,0,1-.025-.27.826.826,0,0,1,.067-.263A.694.694,0,0,1,87.966,80.424Z"/><path class="cls-12" d="M89.539,80.2a.674.674,0,0,1,.15.1,1.032,1.032,0,0,1,.222.273.964.964,0,0,1,.112.33.609.609,0,0,1,0,.175.649.649,0,0,1-.15-.1,1.016,1.016,0,0,1-.222-.273.985.985,0,0,1-.112-.33A.609.609,0,0,1,89.539,80.2Z"/><path class="cls-12" d="M90.659,79.66a.1.1,0,0,1,.082-.047.392.392,0,0,1,.236.078,2.226,2.226,0,0,1,.518.426,2.179,2.179,0,0,1,.365.557,1.249,1.249,0,0,1,.094.293,2.659,2.659,0,0,1-.233-.2c-.131-.123-.291-.291-.447-.462s-.3-.35-.41-.493a.46.46,0,0,0-.131-.142A.089.089,0,0,0,90.659,79.66Z"/><path class="cls-12" d="M90.914,80.86s.127.033.248.075a.531.531,0,0,1,.381.558,2.126,2.126,0,0,1-.022.259.726.726,0,0,1-.269.025.539.539,0,0,1-.459-.676A.669.669,0,0,1,90.914,80.86Z"/><path class="cls-12" d="M91.548,78.941a.805.805,0,0,1,.2-.089A1.354,1.354,0,0,1,92.2,78.8a1.333,1.333,0,0,1,.443.1.81.81,0,0,1,.189.109,1.123,1.123,0,0,1-.21.053,2.141,2.141,0,0,1-.437.023,2.1,2.1,0,0,1-.432-.066A1.1,1.1,0,0,1,91.548,78.941Z"/><path class="cls-12" d="M88.241,76.394a.985.985,0,0,1-.115-.2,1.773,1.773,0,0,1-.14-.917.971.971,0,0,1,.052-.22.993.993,0,0,1,.115.2,1.748,1.748,0,0,1,.131.45,1.725,1.725,0,0,1,.008.468A.942.942,0,0,1,88.241,76.394Z"/><path class="cls-8" d="M80.5,104c-.3.129-.239.317-.187.52a3.563,3.563,0,0,1,.181.892c-.011,1.181-.026,2.363-.105,3.541a13.938,13.938,0,0,0,.122,3.259,5.087,5.087,0,0,0,.838,2.342,5.286,5.286,0,0,1,.939,3.3c0,.657-.113,1.313-.161,1.971-.089,1.24-.138,2.482-.258,3.72a48.1,48.1,0,0,0-.275,5.145c.007.752.02,1.5-.021,2.255a44.162,44.162,0,0,0-.021,5.933,7.165,7.165,0,0,0,.576,2.648c.037.075.179.176.242.162.16-.036.095-.148.055-.259A5.587,5.587,0,0,1,82,138.112c-.122-1.3-.19-2.6-.232-3.9-.02-.61.089-1.223.1-1.835.032-1.778.033-3.557.071-5.336.017-.842.079-1.684.141-2.525.048-.657.142-1.312.189-1.969.1-1.393.128-2.792.289-4.179A6.223,6.223,0,0,0,81.51,114a2.869,2.869,0,0,1-.389-.893,11.4,11.4,0,0,1-.253-1.454,15.157,15.157,0,0,1-.162-2.013c.018-.964.136-1.926.2-2.89.034-.536.053-1.073.05-1.61A1.554,1.554,0,0,0,80.5,104Zm5.349,39.58.145-.015c-.017-.3-.037-.595-.049-.892a4.058,4.058,0,0,0-.394-1.656c-.214-.435-.47-.854-.7-1.283a1.336,1.336,0,0,1-.151-.384c-.09-.513-.2-1.026-.238-1.543a23.13,23.13,0,0,1-.157-3.118c.092-1.606.334-3.2.5-4.807.061-.595.056-1.2.138-1.788a12.307,12.307,0,0,0-.038-3.759,10.325,10.325,0,0,1-.13-1.458,24.333,24.333,0,0,1,.845-6.235c.167-.7.28-1.417.384-2.13a1.568,1.568,0,0,0-.091-.674c-.021-.068-.215-.093-.33-.138-.043.092-.135.189-.12.273a4.633,4.633,0,0,1-.015,1.685c-.178.906-.391,1.807-.535,2.716-.173,1.092-.3,2.191-.428,3.288a13.349,13.349,0,0,0,.091,3.256,13.462,13.462,0,0,1,.077,2.662c-.15,2.064-.385,4.124-.573,6.187a20.08,20.08,0,0,0,.085,4.59,6.679,6.679,0,0,0,.713,2.294,8.434,8.434,0,0,1,.9,2.582C85.8,143.347,85.83,143.462,85.853,143.578Zm-5.692-15.231c-.078-.338-.185-.674-.229-1.015-.1-.807-.2-1.615-.256-2.424a20.722,20.722,0,0,1,.091-4.5c.163-1.064.34-2.128.434-3.2a16.569,16.569,0,0,0,.016-2.481,20.587,20.587,0,0,0-.52-3.737c-.2-.807-.471-1.6-.631-2.416-.231-1.175-.341-2.365-.545-3.546a10.679,10.679,0,0,1,.054-2.567,15.732,15.732,0,0,0-.24-4.171c-.039-.2-.051-.423-.31-.552-.165.147-.117.3-.091.444.05.287.112.573.146.862a18.986,18.986,0,0,1,.112,4.086,7.728,7.728,0,0,0,.188,3.287,2.993,2.993,0,0,1,.15.769,12.224,12.224,0,0,0,.693,3.149,11.716,11.716,0,0,1,.433,1.889c.11.7.166,1.4.215,2.107a16.519,16.519,0,0,1,.09,2.3c-.077,1.116-.291,2.224-.4,3.339a20.188,20.188,0,0,0-.233,3.255c.08,1.27.171,2.539.288,3.806A1.946,1.946,0,0,0,80.161,128.347Zm7.76,7.054.18-.012a5.867,5.867,0,0,0,.107-.613,6.07,6.07,0,0,0-.448-2.482,8.51,8.51,0,0,1-.542-3.209c.039-1.179.04-2.36.047-3.54,0-.474-.048-.948-.025-1.421a48.58,48.58,0,0,0-.076-5.148,6.806,6.806,0,0,0-.18-1.044c-.033-.15-.065-.329-.332-.372a1.987,1.987,0,0,0,0,.248,21.327,21.327,0,0,1,.234,3.3c-.018.689,0,1.38.031,2.069a47.051,47.051,0,0,1-.022,5.608,8.85,8.85,0,0,0,.378,3.413c.189.6.345,1.217.474,1.833a9.457,9.457,0,0,1,.083,1.054A1.747,1.747,0,0,0,87.921,135.4Z"/><path class="cls-5" d="M80.5,104a1.554,1.554,0,0,1,.448,1.14c0,.537-.016,1.074-.05,1.61-.06.964-.178,1.926-.2,2.89a15.157,15.157,0,0,0,.162,2.013,11.4,11.4,0,0,0,.253,1.454,2.869,2.869,0,0,0,.389.893,6.223,6.223,0,0,1,1.052,4.367c-.161,1.387-.189,2.786-.289,4.179-.047.657-.141,1.312-.189,1.969-.062.841-.124,1.683-.141,2.525-.038,1.779-.039,3.558-.071,5.336-.011.612-.12,1.225-.1,1.835.042,1.3.11,2.6.232,3.9a5.587,5.587,0,0,0,.425,1.311c.04.111.105.223-.055.259-.063.014-.2-.087-.242-.162a7.165,7.165,0,0,1-.576-2.648,44.162,44.162,0,0,1,.021-5.933c.041-.75.028-1.5.021-2.255a48.1,48.1,0,0,1,.275-5.145c.12-1.238.169-2.48.258-3.72.048-.658.161-1.314.161-1.971a5.286,5.286,0,0,0-.939-3.3,5.087,5.087,0,0,1-.838-2.342,13.938,13.938,0,0,1-.122-3.259c.079-1.178.094-2.36.105-3.541a3.563,3.563,0,0,0-.181-.892C80.265,104.315,80.207,104.127,80.5,104Z"/><path class="cls-5" d="M85.853,143.578c-.023-.116-.049-.231-.069-.347a8.434,8.434,0,0,0-.9-2.582,6.679,6.679,0,0,1-.713-2.294,20.08,20.08,0,0,1-.085-4.59c.188-2.063.423-4.123.573-6.187a13.462,13.462,0,0,0-.077-2.662,13.349,13.349,0,0,1-.091-3.256c.129-1.1.255-2.2.428-3.288.144-.909.357-1.81.535-2.716a4.633,4.633,0,0,0,.015-1.685c-.015-.084.077-.181.12-.273.115.045.309.07.33.138a1.568,1.568,0,0,1,.091.674c-.1.713-.217,1.427-.384,2.13a24.333,24.333,0,0,0-.845,6.235,10.325,10.325,0,0,0,.13,1.458,12.307,12.307,0,0,1,.038,3.759c-.082.592-.077,1.193-.138,1.788-.166,1.6-.408,3.2-.5,4.807a23.13,23.13,0,0,0,.157,3.118c.041.517.148,1.03.238,1.543a1.336,1.336,0,0,0,.151.384c.23.429.486.848.7,1.283a4.058,4.058,0,0,1,.394,1.656c.012.3.032.595.049.892Z"/><path class="cls-5" d="M80.161,128.347a1.946,1.946,0,0,1-.546-1.317c-.117-1.267-.208-2.536-.288-3.806a20.188,20.188,0,0,1,.233-3.255c.11-1.115.324-2.223.4-3.339a16.519,16.519,0,0,0-.09-2.3c-.049-.7-.1-1.409-.215-2.107a11.716,11.716,0,0,0-.433-1.889,12.224,12.224,0,0,1-.693-3.149,2.993,2.993,0,0,0-.15-.769,7.728,7.728,0,0,1-.188-3.287,18.986,18.986,0,0,0-.112-4.086c-.034-.289-.1-.575-.146-.862-.026-.147-.074-.3.091-.444.259.129.271.352.31.552a15.732,15.732,0,0,1,.24,4.171,10.679,10.679,0,0,0-.054,2.567c.2,1.181.314,2.371.545,3.546.16.813.428,1.609.631,2.416a20.587,20.587,0,0,1,.52,3.737,16.569,16.569,0,0,1-.016,2.481c-.094,1.069-.271,2.133-.434,3.2a20.722,20.722,0,0,0-.091,4.5c.052.809.153,1.617.256,2.424C79.976,127.673,80.083,128.009,80.161,128.347Z"/><path class="cls-5" d="M87.921,135.4a1.747,1.747,0,0,1-.089-.315,9.457,9.457,0,0,0-.083-1.054c-.129-.616-.285-1.23-.474-1.833a8.85,8.85,0,0,1-.378-3.413,47.051,47.051,0,0,0,.022-5.608c-.026-.689-.049-1.38-.031-2.069a21.327,21.327,0,0,0-.234-3.3,1.987,1.987,0,0,1,0-.248c.267.043.3.222.332.372a6.806,6.806,0,0,1,.18,1.044,48.58,48.58,0,0,1,.076,5.148c-.023.473.028.947.025,1.421-.007,1.18-.008,2.361-.047,3.54a8.51,8.51,0,0,0,.542,3.209,6.07,6.07,0,0,1,.448,2.482,5.867,5.867,0,0,1-.107.613Z"/></svg>