<svg id="word" xmlns="http://www.w3.org/2000/svg" viewBox="0 0 160 160"><defs><style>.cls-1{fill:#fce3da;}.cls-1,.cls-10,.cls-11,.cls-12,.cls-13,.cls-2,.cls-3,.cls-4,.cls-5,.cls-6,.cls-7,.cls-9{stroke:#9d4b9c;stroke-width:0.283px;}.cls-2{fill:#fde2d4;}.cls-3{fill:#9595c9;}.cls-4{fill:#bc281f;}.cls-5{fill:#f7e09c;}.cls-6{fill:#a66d4f;}.cls-7{fill:#fff;}.cls-8{fill:#9d4b9c;}.cls-10,.cls-9{fill:none;}.cls-9{stroke-linecap:round;}.cls-11{fill:#ed342a;}.cls-12{fill:#ffc724;}.cls-13{fill:#cc2c23;}.cls-14{fill:#00adee;}.cls-15{fill:#a2ddf8;stroke:#a6cfee;stroke-miterlimit:10;stroke-width:0.5px;}</style></defs><path class="cls-1" d="M43.892,54.387s3.94,1.359,5.3,1.086,4.213,1.5,6.249,3.262,8.153,5.3,9.783,6.25,3.446,5.083,3.446,5.083L67.939,74s-2.037-3.99-5.57-5.62S51.5,61.723,51.5,61.723s-3.262,1.629-2.037,3.533,4.21,6.658,5.434,7.064-14.892,6.121-14.892,6.121-4.946-7.75-5.082-9.516S33.837,62.4,33.837,62.4a42.451,42.451,0,0,1-.676,8.015c-.517,2.179,3.8,10.192,3.8,10.192l-.813,4.345a9.961,9.961,0,0,1-4.347-5.3c-1.087-3.533-2.99-9.918-2.581-14.672s.758-7.942,2.525-8.35,1.416-.889,3.179-1.433,3.263-.679,3.4-1.495.679-3.94.679-3.94l5.571.952Z"/><path class="cls-2" d="M38.378,51.048a9.748,9.748,0,0,1-.17-4.1c.19-1.573,2.852-5.774,3.612-6.21s4.358-.591,4.358-.591l.12.161s.827,1.256.7,1.8-.4,1.048-.1,1.557A3.491,3.491,0,0,0,48.433,44.8c.343.1.41.71.134.793s-.519.591-.519.591.782.477.452.753c-.855.716-1.3,1.041-1.3,1.041s1.047.984.849,1.217a1.543,1.543,0,0,1-.57.369l.374.824a.941.941,0,0,1-.717,1.119c-.906.225-3.47-.267-3.718.41"/><path class="cls-3" d="M36.283,54.523s3.7,4.725,4.51,7.17,4.078,5.064,5.845,2.754.642-5.92.505-6.464-.8-2.917-.8-2.917l1.221.136s2.671,5.676,3.35,6.491a5.124,5.124,0,0,1,1.074,3.022c0,.951-1.163,1.491-.618,2.987S54.9,72.32,54.9,72.32L44.706,77.756l-5.3,1.494L34.875,68.434a3.432,3.432,0,0,0,2.83-1.548c1.085-1.63,1.3-3.8.345-6.386a22.936,22.936,0,0,0-3.126-5.3Z"/><path class="cls-1" d="M88.456,50.446s.408,4.484-1.224,4.484-3.667-.407-5.976,1.223-7.608,9.1-7.608,9.509-1.225,2.583.134,3.263a46.782,46.782,0,0,0,5.843,1.766l2.65-2.927-3.321-.878L81.8,62.674l2.037,2.582,14.811-.68.543-4.076,1.63,4.348,4.362,2.513s-2.732-10.257-4.362-11.344-6.657-.68-6.657-.68l-.68-1.63-5.163-4.89Z"/><path class="cls-4" d="M80.032,67.565s-5.025,6.115-6.522,5.979-6.791,2.173-9.239,2.173-21.194,1.9-21.059,3.94-6.248,8.831,8.016,9.918,28.8,3.8,33.151-2.037,7.065-14.131,6.793-16.44S89.272,61.723,80.032,67.565Z"/><path class="cls-1" d="M105.846,67.294s3.668-3.942,5.571-3.532,2.853,1.766,3.123,6.113a53.176,53.176,0,0,1-.27,8.695l-5.842-6.113Z"/><path class="cls-1" d="M56.663,72.457s5.216-6.7,7.608-7.2c3.627-.764,5.476,5.333,6.155,8.458s2.715,9.122,2.715,9.122,2.617-5.188,4.925-4.1,1.831,2.688.334,4.86-4.48,3.707-6.247,3.163-3.262-3.706-4.621-6.286S64,73,64,73L61.869,83.949s-7.244-5.515-7.244-6.466S56.663,72.457,56.663,72.457Z"/><path class="cls-1" d="M43.486,77.347s10.188-6.385,13.991-4.755,3.942,8.424,4.485,10.055a45.459,45.459,0,0,1,1.077,5.593l-6.346-.1a6.813,6.813,0,0,1-2.748-4.679c-.134-2.854.409-4.348-.407-3.4s-1.631,4.619-2.853,4.346S43.486,77.347,43.486,77.347Z"/><path class="cls-5" d="M44.3,38.219s-3.94-1.358-5.842-.408-4.211,4.076-4.211,4.076a16.491,16.491,0,0,0,.814,4.484C35.876,48.952,39,51.126,39,51.126s.68-.271,1.086-3.533.816-5.842,1.9-5.842a33.858,33.858,0,0,0,4.212-.679Z"/><path class="cls-1" d="M82.46,45.208c-1.783-.311-1.073.882-1,1.591.052.506-.175.716.229,1.27.336.46.482.587,1.027.244"/><path class="cls-1" d="M87.459,38.805s-4.058,1.4-4.35,1.807-1.323,2.279-.968,3.11a3.218,3.218,0,0,1,.1,2.346c-.211,1.213.935,4.182,3.07,5.98a9.253,9.253,0,0,0,3.775,2.1,2.909,2.909,0,0,0,1.886.432c1.058-.287,1.588-.953,1.849-.889A6.12,6.12,0,0,0,95.612,51.6,7.043,7.043,0,0,0,97.5,48.311c.142-.937.3-3.565-.777-5s-3.393-3.758-4.268-4.054S88.8,38.2,87.459,38.805Z"/><path class="cls-6" d="M88.817,39.206s.172,1.295,1.215,1.556a6.473,6.473,0,0,1,2.239,1.123,3.2,3.2,0,0,1,.89,1.306.752.752,0,0,0,.11-.923l-.641-1.133s1,1.3,1.671,1.434.839-.015,1.252.582-.438,1.187.177,1.348,1.192.328,1.246.692a8.177,8.177,0,0,1-.21,1.595s1.091-1.106,1-1.363c-.559-1.588.206,1.335.513,1.416s1.2-1.583.86-2.178-.925-2.169-.925-2.169l.674,1.144s-.1-2.031-1.235-2.573a2.048,2.048,0,0,1-1.018-1.1l-.686-.621a3.492,3.492,0,0,1,1.15.846,4.552,4.552,0,0,0,1.291.963,16.8,16.8,0,0,1-1.882-2.448,4.226,4.226,0,0,0-2.823-2,8.246,8.246,0,0,0-3.519.1,4.778,4.778,0,0,0-1.953.872,3.9,3.9,0,0,1,1.514-.888,4.9,4.9,0,0,0,1.748-1.145,7.438,7.438,0,0,0-2.456.59,2.41,2.41,0,0,0-1.405,1.239l-.018.429a.668.668,0,0,1-.187-.973,3.091,3.091,0,0,0,.365-1.418s-1.658.632-1.625,1.285a3.337,3.337,0,0,0,.463,1.346,7.147,7.147,0,0,0-1.343-1.184,2.486,2.486,0,0,0-2.276-.051s1.326.248,1.485.532a3.992,3.992,0,0,0,1.024.758,2.622,2.622,0,0,0-1.757-.242,2.71,2.71,0,0,0-2.356,1.5c-.084.132-.338,1.891-.338,1.891L82.8,39.522s-1.368,1.541-1.32,2.15a2.263,2.263,0,0,1-.5,1.291l1.782-1.791a7.366,7.366,0,0,1-.737,1.089c-.982,1.161-.251,1.49-.211,1.824s.391,2.3.391,2.3a10.65,10.65,0,0,1,.257-1.649,7.946,7.946,0,0,1,1.65-2.909,15.182,15.182,0,0,1,2.031-1.667c.632-.268.542.366.09.558s-.723,1.359-.723,1.359a5.835,5.835,0,0,0,1.566-1.189,2.3,2.3,0,0,1,1.015-.782C89.009,39.546,88.817,39.206,88.817,39.206Z"/><path class="cls-7" d="M85.612,48.075s-1.076-.651-.846-1.452a.912.912,0,0,1,1.428-.57c.631.459.929,1.587.6,1.881A1.1,1.1,0,0,1,85.612,48.075Z"/><path class="cls-8" d="M85.766,46.849a.5.5,0,0,1-.146.745.662.662,0,0,1-.771-.355A.5.5,0,0,1,85,46.494.665.665,0,0,1,85.766,46.849Z"/><path class="cls-7" d="M92.286,46.191s-.877-1.494.3-1.57A1.562,1.562,0,0,1,94.2,46.1a.912.912,0,0,1-1.241.606A3.508,3.508,0,0,1,92.286,46.191Z"/><path class="cls-8" d="M93.1,45.643a.527.527,0,0,1-.337.7.617.617,0,0,1-.658-.5.528.528,0,0,1,.337-.7A.616.616,0,0,1,93.1,45.643Z"/><path class="cls-9" d="M83.538,45.353c.618-.772,1.675-1.8,2.753-1.485"/><path class="cls-9" d="M93.455,43.562c-.577-.485-2.1-1.236-2.652-.28"/><path class="cls-1" d="M97.3,44.542a.873.873,0,0,1,1.1.078c.373.489-.039,1-.039,1.433,0,.4.114.451.1.868-.021.527-.488,1.174-.993.621"/><path class="cls-9" d="M92.849,49.158c-1.3,1.548-2.913,2.318-4.768,1"/><path class="cls-5" d="M43.21,37.526c3.067-.674,4.757,3.132,4.153,5.779A9.748,9.748,0,0,0,46.3,42.1a2.933,2.933,0,0,1-.366,1.889c-.081-.458-.229-.891-.293-1.334a5.334,5.334,0,0,1-.187,1.614,1.823,1.823,0,0,1-.324-.016c-.079-.363-.3-.748-.391-1.045a2.739,2.739,0,0,1-.809,2.2,8.393,8.393,0,0,1-.337-2.18c-.786,4.021-3.7,7.248-1.691,11.491-.964-.507-2.027-.954-2.973-1.56a6.656,6.656,0,0,1,.941,1.516c-4.832-2.121-9.919-2.882-8.809-9.87.969-6.095,6.735-8.836,11.984-7.388"/><path class="cls-10" d="M45.571,44.72c.131-.606.566-.809,1.179-.618"/><path class="cls-11" d="M74.066,86.085s2.359-5.283,4.157-6.295,3.877-2.641,4.833-.562-.337,5.508-.337,5.508l-9.1,1.911Z"/><path class="cls-12" d="M94.571,105.064s-25.951,1.494-30.163,1.494-11.276-1.223-13.45-2.173-5.026.134-10.326-.409-21.469-5.433-21.469-5.433-1.764-.136-2.036-2.99.951-12.228,2.173-14.4.816-3.805,3.533-3.669,6.929-.272,6.658,1.494S26.773,88.761,28,90.118s4.892,4.485,5.841,1.087.952-11.955,3.4-12.635,7.746-2.989,10.326-.271.68,6.929,6.252,8.83S71.2,86.858,73.1,86.722s10.408-.922,12.908-4.213c3.4-4.482,6.593-11.919,3.261-13.721-2.568-1.388-9.763-1.446-8.8-2.2A19.716,19.716,0,0,1,91.852,62.4c4.078-.136,9.1-2.31,13.45,3.668s7.2,8.423,11.957,12.772,12.9,5.162,16.3,6.112,13.585,1.5,13.45,3.126-3.125,11.141-3.4,12.092-10.462.407-16.438.272-19.836,1.9-21.06,1.9S94.571,105.064,94.571,105.064Z"/><path class="cls-13" d="M49.784,101.821s15.175-5.226,19.053-5.9,8.43.843,12.139.843,8.768-1.18,14.164-3.035,9.1-2.866,18.209-2.866,20.232,1.518,24.786,1.18,6.237-.337,6.237-.337,1.35,1.686-7.08,3.709-9.274,2.529-19.9,2.529-11.634-1.854-21.92.675-16.017,3.709-23.6,4.215S49.784,101.821,49.784,101.821Z"/><path class="cls-9" d="M88.375,44.331a5.272,5.272,0,0,1,.825,2.1c0,.834-.639,1.429-.413,1.987s1.045.451,1.045.451"/><path class="cls-9" d="M89.186,38.95c-.041.252-.1.5-.152.75a13.017,13.017,0,0,0-.109,3.038"/><path class="cls-9" d="M88.637,39.171A15.2,15.2,0,0,0,87.5,43.377"/><path class="cls-9" d="M88.224,38.8c-.506,1.622-1.6,2.989-2.306,4.534"/><path class="cls-9" d="M90,38.353a31.86,31.86,0,0,0,.092,4.2"/><path class="cls-9" d="M87.225,38.892a4.625,4.625,0,0,0-.815,1.13L84.536,43.27"/><path class="cls-8" d="M41.037,51.883c-.014.059-.027.1-.027.1S41.024,51.941,41.037,51.883Z"/><path class="cls-8" d="M44.114,39.927a4.431,4.431,0,0,0-.468-1.956,2.129,2.129,0,0,0-.416-.521c-.019-.061-.034-.1-.03-.094l-.053.019-.011-.01-.018.021-.227.082a.647.647,0,0,1,.02-.1L42.58,37.3l-.046.229a2.526,2.526,0,0,1-.233.569,5.007,5.007,0,0,1-1.612,1.626,21.1,21.1,0,0,1-2.957,1.555c-1.114.507-2.405.823-3.576,1.472a4.328,4.328,0,0,0-1.478,1.315,3.659,3.659,0,0,0-.6,1.813,3.584,3.584,0,0,0,1.352,2.987,10.056,10.056,0,0,1,1.08.8,3.872,3.872,0,0,1,.585.848,8.362,8.362,0,0,0,.455.781,8.561,8.561,0,0,1-.442-.787,3.864,3.864,0,0,0-.575-.864,9.866,9.866,0,0,0-1.07-.814,3.506,3.506,0,0,1-1.278-2.939,3.551,3.551,0,0,1,.61-1.742A4.187,4.187,0,0,1,34.239,42.9c1.147-.614,2.446-.912,3.584-1.406a21.4,21.4,0,0,0,3.024-1.53,5.3,5.3,0,0,0,1.735-1.706,2.583,2.583,0,0,0,.3-.779c.005.016.021.054.04.121l-.013.015.023.019a1.553,1.553,0,0,1,.038.432,3.708,3.708,0,0,1-.456,1.622,13.805,13.805,0,0,1-1.473,2A11.213,11.213,0,0,0,39.291,44a6.415,6.415,0,0,0-.659,2.815,7.427,7.427,0,0,0,.421,2.482,8.9,8.9,0,0,0,.748,1.615c.219.37.362.57.362.57s-.138-.2-.349-.577a8.889,8.889,0,0,1-.709-1.625,7.356,7.356,0,0,1-.363-2.463,6.284,6.284,0,0,1,.7-2.736,11.037,11.037,0,0,1,1.778-2.229,14.157,14.157,0,0,0,1.547-2.01,4,4,0,0,0,.53-1.763c0-.017,0-.028,0-.044.022.033.044.058.067.1a4.149,4.149,0,0,1,.463,1.813,2.9,2.9,0,0,1-.059,1.234,2.714,2.714,0,0,1-.982.958l-1.266.914a7.384,7.384,0,0,0-1.257,1.037,1.917,1.917,0,0,0-.52,1.539,3.106,3.106,0,0,0,.861,1.317,1.2,1.2,0,0,1,.252,1.309,12.147,12.147,0,0,0-.53,1.2,1.335,1.335,0,0,0,.2,1.07,5.385,5.385,0,0,1,.421.739,1.014,1.014,0,0,1,.083.623.815.815,0,0,0,.017-.09,1.133,1.133,0,0,0-.086-.538,5.4,5.4,0,0,0-.408-.749,1.291,1.291,0,0,1-.18-1.041,12.124,12.124,0,0,1,.552-1.182,1.3,1.3,0,0,0-.241-1.4,3.011,3.011,0,0,1-.809-1.273,1.766,1.766,0,0,1,.51-1.406,7.307,7.307,0,0,1,1.246-.984l1.284-.89a2.9,2.9,0,0,0,1.089-1.048A3.113,3.113,0,0,0,44.114,39.927Z"/><path class="cls-14" d="M94.213,72.851a3.311,3.311,0,0,1,3.415-1.416,4.652,4.652,0,0,1,2.9,1.749s1.124-2.733,2.729-2.469a23.027,23.027,0,0,1,4.709,1.9s-5.1-1.245-6.062-.055a4.465,4.465,0,0,0-1.055,1.862,9.184,9.184,0,0,1-1.391-.768C99.243,73.43,97.745,71.636,94.213,72.851Z"/><path class="cls-14" d="M87.592,87.249a3.725,3.725,0,0,1,2.522-3.306,5.235,5.235,0,0,1,3.808.064s-.45-3.293,1.261-3.942a25.874,25.874,0,0,1,5.651-.815s-5.663,1.668-5.927,3.37a5.018,5.018,0,0,0,.024,2.406,10.327,10.327,0,0,1-1.786.039C92.812,84.972,90.342,84.073,87.592,87.249Z"/><path class="cls-14" d="M105.846,82.458a3.726,3.726,0,0,1,4.035-1.006,5.236,5.236,0,0,1,2.934,2.428s1.7-2.853,3.447-2.291a25.9,25.9,0,0,1,4.922,2.893s-5.464-2.234-6.734-1.07a5.008,5.008,0,0,0-1.484,1.895,10.415,10.415,0,0,1-1.42-1.086C111.345,83.94,109.977,81.695,105.846,82.458Z"/><path class="cls-15" d="M47.964,104.1a10.753,10.753,0,0,0,6.7.386c.826-.273,1.788-2.613,3.3-1.925s1.65-.446,3.989-.154a21.966,21.966,0,0,0,5.914-.05c.826-.209,3.989-1.309,5.365-.622a3.236,3.236,0,0,0,3.576-.223c1.1-.739,3.714-.361,4.814,0s2.338-.8,4.677-.424,3.851,2.272,4.264,2.01,2.338-.563,5.777,0,4.814,1.388,6.189,1.388,4.4,1.806,7.015.7,5.227-2.373,8.528-2.085,7.978-.2,8.941.18,1.375.658,3.713,1.483,2.2.463,5.227.782,2.751-.869,6.052,0,12.242,1.144,12.242,1.144-5.639,1.1-6.74,1.1-2.613-1.513-4.264,0a2.09,2.09,0,0,1-3.163,0c-.413-.275-.275.651-2.614.738s-1.238-.875-3.576-1.425a23.4,23.4,0,0,0-5.364-.963c-1.651,0-3.164-1.238-5.777-.688s-6.878,1.788-7.565,2.063a2.4,2.4,0,0,1-2.339-.137c-1.1-.55-2.613.8-3.026,1.156s-2.063-.468-2.338-.881-.138-.539-2.338.968-2.2,4.534-4.539,2.333-3.714-1.926-3.989-.963.275,3.714-1.788,3.989a6.009,6.009,0,0,1-5.227-2.25c-.963-1.326-3.576-4.622-5.227-4.212s-1.513,2.886-2.889,3.161-2.063-2.476-2.063-2.476-1.925.138-1.1,1.1-1.513,3.438-2.614,2.063a8.03,8.03,0,0,1-1.237-3.849l-1.1,2.748a4.587,4.587,0,0,1-1.65,1.376c-.963.412,0-2.2-.413-3.3s-.138,2.613-1.926,2.613-2.063-.55-3.026-1.788.138-.688-3.163-.55-2.476-.275-3.3.137-3.714-.407-3.852-1.235,1.651-.96-.963,0a6.021,6.021,0,0,1-4.951-.553s-1.376-1.513-2.064-.825-2.063,1.65-3.163.688a4.66,4.66,0,0,0-2.293-1.1s-1.558.275-3.484.413a16.48,16.48,0,0,0-3.851.825c-1.1.275-3.026,1.1-4.264-.137s-2.476-1.926-3.577-1.788-7.866-1.917-7.866-1.917,11.172-2.458,14.06-1.5,1.251,2.455,4.965,2.042S46.864,103.137,47.964,104.1Z"/><path class="cls-15" d="M11.75,100.25c1.309-1.806,5.286-3.619,7.321-2.707s3.9,2.377,6.121,2.6c2.3.232,4.681-.921,6.884-.219,2.621.836,3.988,3.991,6.624,4.778,1.909.569,3.913-.262,5.824-.827s4.272-.749,5.611.726"/><path class="cls-15" d="M121.219,102.136l9.7-1.643a11.491,11.491,0,0,1,5.711,0c1.736.611,3.459,2.076,5.175,1.414,1.532-.591,2.08-2.6,3.552-3.329,1.711-.845,3.676.405,5.157,1.609s3.391,2.5,5.142,1.739"/></svg>