<svg id="word" xmlns="http://www.w3.org/2000/svg" viewBox="0 0 160 160"><defs><style>.cls-1{fill:#fffbde;}.cls-1,.cls-2,.cls-3,.cls-4,.cls-5,.cls-7{stroke:#9d4b9c;}.cls-1,.cls-2,.cls-7{stroke-width:1.208px;}.cls-2{fill:#f69546;}.cls-3,.cls-7{fill:none;}.cls-3,.cls-4,.cls-5{stroke-width:1.198px;}.cls-4{fill:#d6a1a5;}.cls-5{fill:#fff;}.cls-6{fill:#9d4b9c;}</style></defs><path class="cls-1" d="M38.387,53.565c.329-1.2.438-3.836,1.2-5.042s1.316,2.083,1.316,4.056,1.206-3.508,1.425-5.042,0,3.507,0,5.59.658,3.069,1.644-.11a8.689,8.689,0,0,1,1.543-2.9c.342-1.451.715-2.775,1.088-3.894,1.973-5.919.219-7.673.219-11.181s-3.946-9.426-5.919-11.619,1.1,1.754.438,8.331A42.58,42.58,0,0,1,37,46.082,20.02,20.02,0,0,1,37.51,49.4C37.51,50.825,38.058,54.771,38.387,53.565Z"/><path class="cls-2" d="M45.293,69.9c-2.134-4.978-1.24-13.559.227-19.783a8.689,8.689,0,0,0-1.543,2.9c-.986,3.179-1.644,2.193-1.644.11s.219-7.125,0-5.59-1.425,7.015-1.425,5.042-.548-5.262-1.316-4.056-.876,3.837-1.2,5.042-.877-2.74-.877-4.165A20.02,20.02,0,0,0,37,46.082c-.516,1.048-1.044,2.057-1.577,2.989-2.631,4.6-2.85,12.935-1.1,17.977s3.727,12.277,3.727,12.277l12.5-.658S47.923,76.036,45.293,69.9Z"/><path class="cls-2" d="M73.136,104.755s-5.92-8.988-7.235-13.373-1.973-9.646-8.331-12.715-6.577-2.192-8.112-2.192-7.892-.439-12.5,2.411-12.716,8.77-11.62,17.758-.662,9.076-1.535,8.988c-2.74-.274-2.411,7.673,0,15.785s5.981,7.457,7.893,8.111c4.165,1.425,4.494-1.863,4.494-1.863s-.109,1.644,2.083,1.206a10.594,10.594,0,0,0,3.508-1.316,4.6,4.6,0,0,0,.877-4.384l4.385-4.549s-2.851,2.356,2.63,6.083,7.235,3.289,11.4,3.07a17.066,17.066,0,0,1,7.673,1.534,57.835,57.835,0,0,0,9.866,6.577c4.6,2.192,12.716,1.1,14.689.438a4.431,4.431,0,0,0,2.631-2.192s1.973,1.1,3.507.219a3.814,3.814,0,0,0,1.754-2.63s1.973.877,1.973-1.1-.657-4.166-2.63-4.824-13.374-.876-15.128-1.534S72.7,112.428,73.136,104.755Z"/><path class="cls-3" d="M42.771,99.494c5.052,2.941,7.794,14.926,4.056,19.4"/><path class="cls-3" d="M89.031,128.542c2.99-.2,7.352,2.341,6.906,5.7"/><path class="cls-3" d="M101.089,132.488c.365-3.36-3.872-5.782-6.8-5.81"/><path class="cls-3" d="M35.975,128.432c1.313-3.408-3.3-6.476-6.358-6.467"/><path class="cls-3" d="M40.743,127.994c.658-2.138.036-3.566-1.753-4.33"/><path class="cls-2" d="M105.293,118.238s9.647-.767,11.51-1.863,4.714-2.741,8-2.631,6.029,2.3,6.029,3.617a3.1,3.1,0,0,1-.767,2.083s1.644,1.863-.11,3.4-2.74,1.1-2.74,1.1-2.412,2.96-5.919,2.96-9.757-1.535-13.045-1.864-19.333-2.457-19.333-2.457,5.3-1.16,9.248-2.037A41.435,41.435,0,0,0,105.293,118.238Z"/><path class="cls-2" d="M119.324,119.005c3.278-.95,8.167,1.151,7.893,4.823"/><path class="cls-2" d="M122.394,116.265c2.966-.207,6.663.123,7.728,3.069"/><path class="cls-3" d="M27.462,114.622c2.117,3.834,8.9,10.357,15.145,8.384"/><path class="cls-3" d="M26,105.414c-1.1,2.119-.476,6.011,1.461,9.208"/><path class="cls-2" d="M105.305,96.954s2.3-7.139,1.292-11.414a35.732,35.732,0,0,0-3.07-6.944s-6.259,4.454-7.207,5.285a10.627,10.627,0,0,0-1.864,2.969"/><path class="cls-2" d="M102.362,91.782s-7.41-7.609-14.273-6.025-12.3,3.932-16.247,7.157a14.945,14.945,0,0,0-4.922,6.531s-2.582,1.224-3.958.639,2.594,2.194,3.948,2.913-6.963-1.865-4.386.218a16.48,16.48,0,0,1,4.015,5.16s-5.3-2.144-4.513-1.009,2.563,6.254,3.654,7.789-1.039-.061.419,2.148,2.47,3.345,4.415,3.929-.12,3.25,4.421,4.3,16.895,1.15,19.314.257,6.776-7.353,6.776-7.353,1.771,2.123,3.927.987,2.474-5.3,2.474-5.3,3.674-.89,3.592-2.263,1.711-4.756.735-7.356-4.9-4.68-4.9-4.68S103.681,91.792,102.362,91.782Z"/><path class="cls-2" d="M71.071,97.984S70.3,90.73,72.432,87c1.322-2.318,4.966-6.973,4.966-6.973s4.156,7.749,4.743,8.837,1.374,2.988,1.374,2.988"/><path class="cls-4" d="M104.391,111.351a45.462,45.462,0,0,1-4.68-2.512c-.087-.283-.5-1.889,1.84-3.068s5.33-.2,5.827,1.376S104.391,111.351,104.391,111.351Z"/><path class="cls-5" d="M93.576,99.057s-3.436,0-4.327,2-1.557,5.621,1.019,6.73,4.518-1.484,4.848-2.888C95.642,102.655,94.883,99.588,93.576,99.057Z"/><path class="cls-6" d="M91.31,102.1a2.017,2.017,0,1,0,.682-3.135A2.31,2.31,0,0,0,91.31,102.1Z"/><path class="cls-3" d="M104.346,111.551a3.2,3.2,0,0,0,5.531,1.468"/><path class="cls-3" d="M90.619,114.243a8.574,8.574,0,0,0,4.363,2.4,3.484,3.484,0,0,0,2.056-.075c.47-.2.952.343,1.46.393,2.762.273,4.877-4.239,5.029-5.607"/><path class="cls-7" d="M76.886,81.409c.456.848-.029,1.863-.293,2.789a11.859,11.859,0,0,0-.336,2.269c-.292,3.543-.549,7.284,1,10.483"/><path class="cls-5" d="M103.757,95.176s-2.371,1.191-2.3,2.894.851,4.468,3.009,4.349,2.609-2.6,2.356-3.7C106.416,96.973,104.841,95.094,103.757,95.176Z"/><path class="cls-6" d="M103.235,98.084a1.762,1.762,0,0,0,2.47.053,1.814,1.814,0,0,0-.6-2.425,1.767,1.767,0,0,0-2.471-.054A1.818,1.818,0,0,0,103.235,98.084Z"/><path class="cls-6" d="M109.237,106.759c1.766-.584,3.531-1.187,5.35-1.608a47.671,47.671,0,0,1,5.517-.949,42.643,42.643,0,0,1,11.162.185c-3.723.094-7.4.252-11.068.665-1.833.194-3.657.459-5.48.751S111.083,106.5,109.237,106.759Z"/><path class="cls-6" d="M109.418,108.693a34.136,34.136,0,0,0,3.489-.972,20.753,20.753,0,0,1,3.627-.492,69.463,69.463,0,0,1,14.494.687,59.728,59.728,0,0,1,7.1,1.5c-2.4-.3-4.786-.619-7.181-.844s-4.788-.413-7.187-.522-4.8-.158-7.2-.164a21.054,21.054,0,0,0-3.563.246A24.252,24.252,0,0,1,109.418,108.693Z"/><path class="cls-6" d="M108.5,105.8a29.453,29.453,0,0,1,19.794-5.712A53.317,53.317,0,0,0,108.5,105.8Z"/><path class="cls-6" d="M98.132,113.359a14.335,14.335,0,0,0-6.183,2.9c-1.82,1.392-3.551,2.95-5.3,4.47a54.3,54.3,0,0,0-4.958,4.81,23.1,23.1,0,0,0-3.791,5.757,17.952,17.952,0,0,1,3.284-6.178,37.979,37.979,0,0,1,4.9-5.032,57.591,57.591,0,0,1,5.486-4.363,18.29,18.29,0,0,1,3.119-1.663A10.42,10.42,0,0,1,98.132,113.359Z"/><path class="cls-6" d="M96.6,111.228l-6.587-.141c-2.19-.03-4.375-.066-6.551.037a50.93,50.93,0,0,0-6.488.657,36.953,36.953,0,0,0-6.329,1.671,24.01,24.01,0,0,1,6.2-2.316,35.05,35.05,0,0,1,6.584-.867,54.309,54.309,0,0,1,6.619.164C92.244,110.623,94.43,110.837,96.6,111.228Z"/><path class="cls-6" d="M97.252,111.8a14.242,14.242,0,0,0-2.519.681l-2.488.812-4.979,1.632c-3.327,1.072-6.658,2.127-10.055,3.026A86.763,86.763,0,0,1,87,114.114c1.665-.548,3.343-1.058,5.04-1.511A16.553,16.553,0,0,1,97.252,111.8Z"/><path class="cls-7" d="M92.268,93.889a4.985,4.985,0,0,0-4.7,4.227"/><path class="cls-7" d="M99.046,91.851a6.007,6.007,0,0,1,4.45.337"/></svg>