<svg id="word" xmlns="http://www.w3.org/2000/svg" viewBox="0 0 160 160"><defs><style>.cls-1{fill:#fcded0;}.cls-1,.cls-10,.cls-11,.cls-12,.cls-13,.cls-14,.cls-15,.cls-2,.cls-3,.cls-4,.cls-5,.cls-6,.cls-8,.cls-9{stroke:#9c4c9c;stroke-width:0.568px;}.cls-1,.cls-10,.cls-2,.cls-3,.cls-4,.cls-5,.cls-6,.cls-8,.cls-9{stroke-miterlimit:10;}.cls-2{fill:#6d6f70;}.cls-3{fill:#716c2d;}.cls-4{fill:#00c0f2;}.cls-5{fill:#cba432;}.cls-6{fill:#dba880;}.cls-7{fill:#9c4c9c;}.cls-8{fill:#242424;}.cls-14,.cls-9{fill:#fff;}.cls-10,.cls-13,.cls-15{fill:none;}.cls-11{fill:#a48775;}.cls-12{fill:#fde1d3;}.cls-15{stroke-linecap:round;}</style></defs><path class="cls-1" d="M34.193,72.438a16.893,16.893,0,0,0-4.423-.8c-1.448.123-5.208.407-3.659.782a30.75,30.75,0,0,0,3.133.562s-8.166.452-7.428,1.64,3.619,2.186,5.5,2.524,2.584-.4,4.962-.932a20.308,20.308,0,0,1,5.19-.3s-.065-2.282-.2-3.1a6.869,6.869,0,0,0-.483-1.548Z"/><polyline class="cls-2" points="71.451 106.973 72.252 124.809 82.944 124.663 85.563 111.454 94.976 124.663 105.949 124.663 99.039 101.764"/><path class="cls-3" d="M76.822,55.269s-1.2-.171-2.507,2.221-7.943,4.446-9.182,6.045-29.444,7.1-29.444,7.1-1.238,6.456,0,7.442,34.57-3.194,34.57-3.194l4.056-1.965Z"/><path class="cls-1" d="M78.737,47.241s1.237,5.942.9,6.625a17.1,17.1,0,0,1-3.028,2.554L81.727,71.5,95.749,54.94l-4.477-.716a25.351,25.351,0,0,1-.179-5.014c.228-2.049.716-6.8.716-6.8Z"/><path class="cls-3" d="M90.885,54.054l7.648,1.212a90.317,90.317,0,0,0-2.068,12.643,49.315,49.315,0,0,0,1.612,16.578c1.708,7.174.438,8.531,1.121,12.289s2.449,12.118,2.449,12.118a51.417,51.417,0,0,0-10.762.606c-10.358,1.635-20.626-2.527-20.626-2.527s3.78-13.349,3.78-20.523-2.588-6.064-2.588-12.29c0-3.434,5.371-18.891,5.371-18.891l2.468-1.481a64.71,64.71,0,0,1,.559,7.032,25.5,25.5,0,0,0,1.072,7.089Z"/><path class="cls-4" d="M79.64,53.39l-2.22,1.2a32.262,32.262,0,0,1,.9,4.868c.3,2.776.214,4.014.555,5.85s1.58,3.758,1.666,4.271a4.274,4.274,0,0,1,0,1.11,13.106,13.106,0,0,0,2.853-3.374c.734-1.58,2.869-3.163,3.937-4.935a29.407,29.407,0,0,1,3.558-5.1c1.025-.949,3.193-2.873,3.193-2.873l-2.746-1.194a26.837,26.837,0,0,1-3.491,5.079c-1.71,1.721-6.493,8.767-6.493,8.767S79.61,58.063,79.6,56.645,79.64,53.39,79.64,53.39Z"/><path class="cls-1" d="M101.839,109.1a16.916,16.916,0,0,0-1.442,4.255c-.093,1.451-.37,5.212.23,3.735a30.6,30.6,0,0,0,1.022-3.014s-.765,8.141.52,7.588,2.7-3.254,3.311-5.064-.012-2.614-.185-5.045a20.289,20.289,0,0,1,.469-5.178s-2.267-.274-3.093-.257a6.887,6.887,0,0,0-1.6.248Z"/><path class="cls-3" d="M97.3,55.239s1.179-1.857,5.849,2.268.735,25.369,2.055,27.226c2.729,3.842,1.407,23.51,1.407,23.51l-6.8-.955S96.555,79.3,96.016,71.367A65.074,65.074,0,0,1,97.3,55.239Z"/><polygon class="cls-5" points="24.707 119.137 134.555 119.137 153.02 133.694 142.642 133.694 130.781 126.416 26.766 126.416 16.954 133.694 6.036 133.694 24.707 119.137"/><path class="cls-6" d="M74.892,97.561s4.607-1.626,5.76-2.289,3.038.318,4.228,1.946,2.062,2.975,1.664,4.473-1.78,1.614-2.052,1.894-.927-.065-.927-.065a1.533,1.533,0,0,1-.806,1.193c-.8.5-1.3.587-1.322.082s-.5-.145-.67-1.227-.449-2.429-.449-2.429l-6.065,1.714L73.34,97.79Z"/><path class="cls-6" d="M38.364,113.555s-2.31.641-3.614-.627-2.78-4.355-1.581-6.854a13.512,13.512,0,0,1,2.959-4.475,12.053,12.053,0,0,1,3.887-1.043c1-.08,1.325-.412,1.152-.71s-.872-.429-.872-.429a4.105,4.105,0,0,0,2.592-.251c.888-.612-2.323-1.521-2.323-1.521s4.993-1.091,5.468-1.053-1.291-1.839-3.574-1.868-2.969-.623-6.138.294A12.824,12.824,0,0,0,31.6,97.3l-.872.528,1.556-3.2s-2.373,1.474-3,2.935A14.469,14.469,0,0,0,28.448,101V97.834a27.364,27.364,0,0,0-2.045,4.212c-.4,1.4-1.138,1.389-.648,2.348s-1.148-.843-1.148-.843.66,3.651,1.092,5.385,1.195,5.6,1.91,6.14,3.375,1.913,5.539,1.45,3.1-.866,4.108-.835a23.228,23.228,0,0,1,2.623.325Z"/><path class="cls-6" d="M57.418,78s1.061-3.709,4.611-3.884,6.246.211,7.553-.353,3.559-1.467,3.559-1.467,1.812.414,3.843.85c3.649.784,2.441,3.366,2.441,3.366l-.978,2.07a10.565,10.565,0,0,1-2.649.412,5.055,5.055,0,0,1-2.255-.512,7.806,7.806,0,0,1,1.85,1.853,2.925,2.925,0,0,0,2.585,1.224s.45,2.884-1.449,2.6a9.893,9.893,0,0,0-4.316.709s1.491,3.017,1.715,3.472a31.813,31.813,0,0,1,.183,4.442l-.556-.982c-.067,1.116-.3,1.326-.293,1.741a16.851,16.851,0,0,0,.078,2.415c.127.7.836,6.473.836,6.473s-.719-.753-.43,1.751-.126,2.539-.126,2.539l-1.189-1.152a10.907,10.907,0,0,1,.29,3.2c-.227.871-.357,1.379-.357,1.379l-1.9-1.8,2.051,7.427s2.307-.842,3.522.463.871,4.21.871,4.21l-.854.317a4.518,4.518,0,0,1-1.536.476c-1.255.258-3.452.971-5.017.78s-.923.447-1.488-2.183-.956-2.744-1.974-3.748-1.028-.483-1.468-.938a2.106,2.106,0,0,1-.46-1.237L60.172,116.1s2.069,2.14,2.339,3.6c.3,1.619-.416,2.111-.416,2.111s-.558.2-1.341.421a3.2,3.2,0,0,1-1.876-.328s-5.379.187-6.384.29-6.682-1-7.922-.35-1.967-1.36-1.967-1.36a25.333,25.333,0,0,1-3.344-2.913c-.963-1.16-3.032-6.544-.1-8.984a94.114,94.114,0,0,1,9.51-6.411c1.028-.609,7.479-4,6.731-5.2s-2.022-7.2-1.217-10.146S57.418,78,57.418,78Z"/><path class="cls-6" d="M57.082,79.228s-4.368,2.593-3.355,8.655c.49,2.935,1.765,10.248,2.373,10.962a3.5,3.5,0,0,0,1.766.933s2.1,2.1,2.5,2-.333-.583,1.251.248,1.493.687,2.086.653a5.271,5.271,0,0,0,2.209-.651c.343-.313,1.269-.327,1.223-1.348s.131-1.235.723-2.937a21.233,21.233,0,0,1,1.4-3.124,3.4,3.4,0,0,1-.456-1.439c.012-.644.748-2.009.3-3.069s-1.743-.745-1.967-2.118a3.319,3.319,0,0,0-2.151-2.44,15.6,15.6,0,0,1-2.495-1.142,3.978,3.978,0,0,1-1.408-2.451,12.607,12.607,0,0,0-1.5-3.033"/><path class="cls-7" d="M50.614,107.6a7.21,7.21,0,0,1,2.845.67,4.032,4.032,0,0,1,1.224.893,2.912,2.912,0,0,1,.668,1.4,9.469,9.469,0,0,1,.028,2.976,19.635,19.635,0,0,1-.635,2.872l-.3-.32a28.6,28.6,0,0,1,3.128-.47,4.935,4.935,0,0,1,1.615.028,2.55,2.55,0,0,1,1.249.972,2.668,2.668,0,0,0-1.306-.777,6.172,6.172,0,0,0-1.514.118c-1.026.172-2.047.409-3.065.624l-.409.087.113-.408a22.185,22.185,0,0,0,.563-2.8,8.982,8.982,0,0,0,.044-2.8,2.865,2.865,0,0,0-.51-1.22,3.654,3.654,0,0,0-1.051-.879A8.76,8.76,0,0,0,50.614,107.6Z"/><path class="cls-7" d="M63.806,108.281c.048.494.048.977.049,1.459s-.02.958-.025,1.433c-.021.475-.026.948-.027,1.415a3.516,3.516,0,0,0,.05.692,1,1,0,0,0,.257.629.961.961,0,0,1-.523-.545,3.646,3.646,0,0,1-.218-.729,6.479,6.479,0,0,1-.106-1.479,9.238,9.238,0,0,1,.159-1.457A7.556,7.556,0,0,1,63.806,108.281Z"/><path class="cls-8" d="M73.34,71.968s2.311-3.408,3.789-2.438c2.075,1.36,1.438,4.412,1.438,4.412a3.58,3.58,0,0,1-2.841,0A16.213,16.213,0,0,1,73.34,71.968Z"/><path class="cls-9" d="M66.93,77.168s-1.782,0-1.891,1.34a2.211,2.211,0,0,0,1.474,2.56C67.552,81.4,69.353,78.844,66.93,77.168Z"/><path class="cls-10" d="M83.131,99.6a10.227,10.227,0,0,1,.145,4.255"/><path class="cls-10" d="M85.1,99.721c.139.051.194.214.231.356a7.294,7.294,0,0,1,.284,1.587,2.721,2.721,0,0,1-.366,1.548"/><ellipse class="cls-7" cx="66.726" cy="78.18" rx="0.924" ry="0.952"/><path class="cls-10" d="M58.683,122.143a2.214,2.214,0,0,0-.214-2.017,6.527,6.527,0,0,0-1.434-1.535"/><path class="cls-10" d="M61.7,122.307a4.508,4.508,0,0,0-1.126-2.855"/><path class="cls-10" d="M75.293,120.685c-.033.261.308-2.22-.38-3.24"/><path class="cls-7" d="M64.954,74.871c.118.587.114.675-.276.874a2.922,2.922,0,0,0-1.438,1.817,2.267,2.267,0,0,1-.181.453.507.507,0,0,1-.575.253c-.27-.057-.384-.243-.256-.485a11.84,11.84,0,0,1,1.118-2.227.9.9,0,0,1,.563-.409C64.261,75.087,64.6,74.967,64.954,74.871Z"/><polygon class="cls-7" points="137.629 121.371 143.017 121.565 142.863 125.837 148.655 126.046 148.52 129.781 153.964 130.055 153.627 133.694 137.629 121.371"/><polygon class="cls-7" points="23.437 120.254 18.049 120.448 18.203 124.72 12.411 124.929 12.546 128.664 7.102 128.938 7.439 132.578 23.437 120.254"/><path class="cls-11" d="M71.11,22.3s-4.062,1.176-2.46,3.608A35.822,35.822,0,0,1,71.358,31.5,15.678,15.678,0,0,0,72.5,33.192s.71-3.624.335-4.921.912-5.187.912-5.187Z"/><path class="cls-12" d="M72.408,25.789a71.429,71.429,0,0,1-.045,9.184,17.831,17.831,0,0,0,3.351,11.58c2.649,3.481,5.105,6.631,7.166,5.745s6.957-2.979,8.539-5.85,3.715-1.172,4.2-8.166,1.515-15.112-2.528-16.741-2.276-2.527-8.921-1.473a37.221,37.221,0,0,0-10.422,3.016Z"/><path class="cls-11" d="M93.122,35.064a15.429,15.429,0,0,1-1.7-5.608c-.047-2.5.644-3.951-.647-4.156s-4.439-.743-4.91-.7-1.89-1.191-3.188-1.008-1.934.656-3.741,1.082-1.51.276-3.732.115-2.431.607-3.926-.891-2.225-2.349-2.574-3.889-1.23-2.25,1.011-2.513a20.538,20.538,0,0,1,5.325.39c.994.1-.869-1,1.754-1.28A38.045,38.045,0,0,1,83.8,16.8c1.287.11.715.469,1.974-.185s4.067-2.625,4.924-1.329,3.083.266,2.92,2.727,6.2,1.1,6.58,4.081,1.545,4.669.443,6.532-2.7,2.58-3,3.289c-1.093,2.623-1.346,3.9-1.656,1.84-.222-1.472-2.985,3.7-2.985,3.7Z"/><path class="cls-12" d="M94.442,34.207s1.173-3.654,2.946-2.494,2.417,2.894,1.226,4.783-2.654,2.291-2.548,3.322-1.472,1.585-1.6.464"/><path class="cls-13" d="M78.081,31.841s.561,6.817-.111,7.494-1.47,2.26-.577,2.677,2.942-.175,2.942-.175"/><path class="cls-13" d="M91.6,25.444a3.775,3.775,0,0,1,.369-2.142,6.655,6.655,0,0,1,.87-1.247q.873-1.045,1.842-2.006"/><path class="cls-7" d="M90.7,22.9a6.767,6.767,0,0,1-2.555,1.407,3.709,3.709,0,0,1-.745.156,1.231,1.231,0,0,1-.793-.266,3.418,3.418,0,0,0-1.262-.414,1.836,1.836,0,0,1-.711-.337,2.679,2.679,0,0,1-.5-.572c-.268-.39-.514-.785-.893-.873a3.316,3.316,0,0,0-1.3.2,2.964,2.964,0,0,0-1.21.587l-.542.455a2.144,2.144,0,0,1-.669.326,2.838,2.838,0,0,1-1.455.02A4.28,4.28,0,0,1,76.758,23c-.2-.129-.393-.269-.58-.416a1,1,0,0,0-.571-.3c-.89.054-1.61,1.025-2.634.853-.5-.1-.789-.539-1.063-.9l-.845-1.131.872,1.108c.282.36.583.786,1.049.857.977.147,1.616-.816,2.622-.925a1.129,1.129,0,0,1,.668.314,6.965,6.965,0,0,0,.576.393,4.094,4.094,0,0,0,1.266.529,2.635,2.635,0,0,0,1.335-.05,2.976,2.976,0,0,0,1.113-.77,3.251,3.251,0,0,1,1.292-.667,3.478,3.478,0,0,1,1.465-.236,2.115,2.115,0,0,1,1.132.993,1.521,1.521,0,0,0,1,.723,3.8,3.8,0,0,1,1.407.438.749.749,0,0,0,.515.177A3.355,3.355,0,0,0,88,23.835a6.222,6.222,0,0,0,2.319-1.352Z"/><path class="cls-7" d="M92.5,22.125l-2.277.3A3.05,3.05,0,0,1,89,22.387a8.182,8.182,0,0,1-1.1-.423c-1.5-.474-2.613-1.7-4.013-2.155a2.671,2.671,0,0,0-2.123.095c-.317.175-.584.457-.917.67a3.889,3.889,0,0,1-1.077.443,2.845,2.845,0,0,1-2.256-.181,5.739,5.739,0,0,1-1.6-1.624,5.725,5.725,0,0,0,1.637,1.562,2.741,2.741,0,0,0,2.182.107,3.747,3.747,0,0,0,1.019-.455c.3-.206.561-.5.907-.706a2.915,2.915,0,0,1,2.314-.182c1.538.468,2.627,1.63,4.094,2.033a7.782,7.782,0,0,0,1.046.369,2.6,2.6,0,0,0,1.047,0l2.249-.372Z"/><path class="cls-7" d="M94.43,19.99a1.359,1.359,0,0,1-1.109.375,4.681,4.681,0,0,1-1-.2l-1.87-.519a6.538,6.538,0,0,1-1.825-.778,9.258,9.258,0,0,0-1.648-.957,6.27,6.27,0,0,0-3.747-.116,18.932,18.932,0,0,0-3.586,1.424,19.019,19.019,0,0,1,3.55-1.561,6.483,6.483,0,0,1,3.882-.013,9.526,9.526,0,0,1,1.733.919,6.182,6.182,0,0,0,1.752.671l1.883.449c.6.16,1.285.269,1.565-.071Z"/><ellipse class="cls-14" cx="83.885" cy="33.871" rx="2.599" ry="1.872" transform="translate(49.686 117.622) rotate(-89.775)"/><path class="cls-7" d="M84.716,34.293s.462,1.48-.517,1.952-1.174-.561-1.316-.874c-.255-.565.163-1.889.816-1.847A1.186,1.186,0,0,1,84.716,34.293Z"/><ellipse class="cls-14" cx="75.103" cy="35.059" rx="2.599" ry="1.872" transform="translate(39.75 110.024) rotate(-89.775)"/><path class="cls-7" d="M75.934,35.481s.463,1.481-.517,1.952-1.174-.56-1.316-.874c-.255-.565.163-1.889.816-1.846A1.184,1.184,0,0,1,75.934,35.481Z"/><path class="cls-15" d="M77.842,44.815a5.955,5.955,0,0,1,1.367.467,3.717,3.717,0,0,0,3.276-.409c.946-.638,2-1.267,2.042-2.408"/><path class="cls-15" d="M80.615,30.622c.593-.229,1.128-.585,1.708-.843a5.74,5.74,0,0,1,4.4-.095"/><path class="cls-15" d="M76.641,31.013a4.176,4.176,0,0,0-3.931-.72"/></svg>