<svg id="word" xmlns="http://www.w3.org/2000/svg" viewBox="0 0 160 160"><defs><style>.cls-1{fill:#295f8e;}.cls-1,.cls-10,.cls-11,.cls-2,.cls-4,.cls-6,.cls-8{stroke:#9d4b9c;stroke-width:0.567px;}.cls-2{fill:#a4c0cf;}.cls-3,.cls-4{fill:#fff;}.cls-3{opacity:0.4;}.cls-5{fill:#5685ad;opacity:0.25;}.cls-6{fill:none;}.cls-7{fill:#9d4b9c;}.cls-8{fill:#f9ec31;}.cls-9{fill:#4f4997;}.cls-10{fill:#d5df40;}.cls-11{fill:#e4e66c;}</style></defs><rect class="cls-1" x="16.08" y="68.191" width="122.267" height="68"/><polygon class="cls-2" points="52.001 79.179 105.361 79.801 105.361 121.565 54.009 121.565 52.001 79.179"/><polygon class="cls-3" points="104.66 82.373 57.319 106.298 102.148 80.195 104.862 80.269 104.66 82.373"/><rect class="cls-4" x="51.603" y="119.384" width="54.954" height="2.723"/><polygon class="cls-5" points="53.909 108.163 104.66 83.231 104.862 102.634 54.415 118.992 53.909 108.163"/><line class="cls-6" x1="80.889" y1="79.179" x2="80.889" y2="119.229"/><rect class="cls-7" x="51.061" y="33.691" width="1.418" height="12.75"/><rect class="cls-7" x="103.061" y="35.191" width="1.418" height="12.75"/><rect class="cls-8" x="46.187" y="12.69" width="60.667" height="24.667" rx="2.211"/><path class="cls-9" d="M52.1,19.284h2.417v4.77h.032c.239-.416.5-.8.752-1.185l2.432-3.585h3.01l-3.569,4.594,3.745,6.194H58.087L55.43,25.414l-.912,1.137v3.521H52.1Z"/><path class="cls-9" d="M64.374,19.284V30.072H61.94V19.284Z"/><path class="cls-9" d="M71.062,30.248c-3.185,0-5.074-2.417-5.074-5.49,0-3.234,2.08-5.651,5.25-5.651,3.314,0,5.122,2.482,5.122,5.459,0,3.553-2.129,5.682-5.282,5.682Zm.128-1.936c1.649,0,2.593-1.553,2.593-3.666,0-1.937-.912-3.6-2.593-3.6s-2.625,1.633-2.625,3.649c0,2.033.976,3.618,2.609,3.618Z"/><path class="cls-9" d="M78.036,27.56a6.164,6.164,0,0,0,2.7.671c1.12,0,1.713-.463,1.713-1.168,0-.672-.513-1.056-1.809-1.5-1.792-.641-2.977-1.633-2.977-3.2,0-1.84,1.553-3.233,4.081-3.233a6.321,6.321,0,0,1,2.754.544l-.545,1.953a5.042,5.042,0,0,0-2.24-.513c-1.057,0-1.57.5-1.57,1.041,0,.688.593.993,2,1.521,1.906.7,2.786,1.7,2.786,3.217,0,1.808-1.376,3.345-4.338,3.345a7.047,7.047,0,0,1-3.057-.671Z"/><path class="cls-9" d="M86.6,19.284h2.417v4.77h.032c.239-.416.5-.8.752-1.185l2.432-3.585h3.01L91.67,23.878l3.745,6.194H92.582l-2.657-4.658-.912,1.137v3.521H86.6Z"/><path class="cls-9" d="M96.5,27.56a6.164,6.164,0,0,0,2.7.671c1.12,0,1.713-.463,1.713-1.168,0-.672-.513-1.056-1.81-1.5-1.792-.641-2.976-1.633-2.976-3.2,0-1.84,1.553-3.233,4.081-3.233a6.321,6.321,0,0,1,2.754.544l-.545,1.953a5.042,5.042,0,0,0-2.24-.513c-1.057,0-1.57.5-1.57,1.041,0,.688.593.993,2,1.521,1.906.7,2.785,1.7,2.785,3.217,0,1.808-1.377,3.345-4.337,3.345A7.047,7.047,0,0,1,96,29.561Z"/><polygon class="cls-10" points="16.08 46.357 137.479 46.357 151.354 85.941 11.744 84.691 16.08 46.357"/><path class="cls-11" d="M11.6,85.024s-1.156,10.167,11.562,10.5,13.73-6.333,13.73-6.333,6.07,7.333,19.222,6.166S68.4,89.524,68.4,89.524s3.9,6,13.585,5.833,13.3-5,13.3-5,5.492,6,15.754,5.667,11.417-6.167,11.417-6.167,6.648,6.334,16.186,5.667,12.43-5.333,12.43-5.333l.144-5.167Z"/></svg>