<svg id="word" xmlns="http://www.w3.org/2000/svg" viewBox="0 0 160 160"><defs><style>.cls-1{fill:#b8d556;}.cls-1,.cls-10,.cls-11,.cls-2,.cls-4,.cls-5,.cls-6,.cls-7,.cls-8,.cls-9{stroke:#9c4c9c;}.cls-1,.cls-10,.cls-2,.cls-4,.cls-5,.cls-6,.cls-7,.cls-8,.cls-9{stroke-width:0.734px;}.cls-2{fill:#fde7e1;}.cls-3{fill:#9c4c9c;}.cls-4{fill:#e3d33c;}.cls-5{fill:#aaabae;}.cls-6{fill:#f9a53b;}.cls-7{fill:#ed472e;}.cls-8{fill:#898b8e;}.cls-9{fill:none;}.cls-10{fill:#964b8e;}.cls-11{fill:#fff;stroke-miterlimit:10;stroke-width:0.732px;}</style></defs><path class="cls-1" d="M57.245,98.155c2.346-2.723,2.794-1.676,2.794-1.676l-3.074,24.173s-10.48,4.192-13.833,8.942-5.45.42-8.524-6.846S28.6,103.523,28.322,99.612s6.006-.339,9.36-1.178,4.262,3.074,4.541,5.031,6.777,1.817,7.9,1.817,5.17-3.634,5.17-3.634A25.651,25.651,0,0,1,57.245,98.155Z"/><path class="cls-1" d="M60.039,96.479s-3.353,19.841-4.472,25.431-4.616,21.279-4.616,21.279h52.631L101.12,96.758Z"/><path class="cls-2" d="M69.47,85.229s-4.12,14.742.072,17.257S80.161,106.4,84.912,105s5.518-20.19,5.518-20.19Z"/><path class="cls-1" d="M101.12,96.758c-7.753,3.877-1.955,16.7-1.676,22.008s4.4,15.09,8.384,18.234c6.207,4.9,3.423.141,6.5-2.933s0-11.319,0-11.319,3.772-6.079.489-9.782a21.1,21.1,0,0,1-3.633-8.384,25.828,25.828,0,0,0-2.3-6.986S102.8,95.919,101.12,96.758Z"/><path class="cls-3" d="M134.286,67.63a2.8,2.8,0,0,0-2.146-.217c-1.036.407-4,2.55-2.608,3.689.983.8,3.65-.585,3.7-.79s.817-.965.873-.61.491,7.83.491,8.95-.329,3.66.327,3.458.127-10.68.164-11.239C135.187,69.423,134.9,67.668,134.286,67.63Z"/><path class="cls-3" d="M117.017,26.911a5.883,5.883,0,0,0,2.239-.814c.818-.611,2.02-2.34.491-2.643a4.207,4.207,0,0,0-3.717,1.169c-.434.663-1.254.713-1.089,2.035s.215,10.016.215,10.016l1.148.407-.544-9.457s.165-.66.435-.66S117.017,26.911,117.017,26.911Z"/><path class="cls-3" d="M39.045,36.57a2.911,2.911,0,0,1,2.458.458c.982.863.544,1.88.654,2.846s.109,10.932.109,11.088-.818.813-.873-.054-.11-11.745-.219-12-.875.458-1.694.965-2.677,1.172-3.168-.05S37.405,36.773,39.045,36.57Z"/><path class="cls-3" d="M61.609,25.489s-.057-8.34-.057-8.594a4.683,4.683,0,0,1,1.369-2.8,4.221,4.221,0,0,1,3.385-.761c.985.306.713,2.186-.657,2.643s-3,.61-3.058,1.069.055,9.155.055,9.155a8.736,8.736,0,0,1,1.038-1.528,6.58,6.58,0,0,0,1.367-1.983c0-.3.492-2.592.437-3a3.645,3.645,0,0,1,.161-1.88c.276-.358.441,0,.385.61s.11,2.185.11,2.642a3.553,3.553,0,0,1-.82,2.644,18.826,18.826,0,0,0-2.239,3.355l-1.7.763Z"/><path class="cls-3" d="M28.422,61.569s-.051-8.223-.051-8.474a3.413,3.413,0,0,1,.945-2.7,4.08,4.08,0,0,1,3.547-1.119c.905.3.437,2.3-.818,2.747s-2.668.767-2.72,1.216.05,9.027.05,9.027a14.506,14.506,0,0,0,1.138-1.09,6.581,6.581,0,0,0,1.26-1.984c0-.3.049-3,0-3.408A3.73,3.73,0,0,1,32.14,54c.253-.351.227.376.178.977s.278,1.779.278,2.233-.076,3.069-.88,3.872c-1.975,1.968-1.165,2.415-1.967,4.017l-1.532-1.22Z"/><path class="cls-3" d="M134.237,36.393s-5.628,2.694-6.174,2.645-1.42-1.017-.384-1.221c0,0,2.626-1.169,3.335-1.372s3.223-1.372,3.388-1.171S134.237,36.393,134.237,36.393ZM135.384,34l-8.9,3v.1l.273,8.7s.054.864-.218.864a7.141,7.141,0,0,0-2.951.866c-.821.609-2.238,2.643-.437,3.253s3.606-1.423,3.771-1.778.818-.409.6-2.849-.218-5.848-.218-5.848l7.1-2.8.163,7.374a5.683,5.683,0,0,0-3.06.609c-1.093.766-3.426,2.98-.928,3.712,2.075.611,4.862-2.135,4.862-2.846S135.384,34,135.384,34Z"/><path class="cls-1" d="M105.633,111.069s-1.438,4.537-1.844,6.827-1.663,6.9-.716,9.535,3.888,11.853,6.984,12.377,5.513-.939,6.457-5.571,3.042-15.2,2.816-18.285-2.446-9.125-2.446-9.125l-9.651,1.909Z"/><path class="cls-1" d="M30.276,100.112s-2.1,1.537-.558,8.523a85.335,85.335,0,0,0,5.588,17.187c1.817,3.772,2.515,6.008,3.773,6.148s2.236,1.258,4.053-2.376,6.986-3.911,5.589-12.994-7.266-18.166-7.266-18.166Z"/><path class="cls-4" d="M57.426,54.438s-6.2-.405-8.53,3.452-6.784,8.325-3.3,14.416S57.643,78.4,57.643,78.4l4.823-21.116Z"/><path class="cls-5" d="M57.813,61.139s-5.427.2-5.815,4.467-2.326,6.7-.388,8.528,6.59-7.108,6.978-7.919S62.271,60.733,57.813,61.139Z"/><path class="cls-2" d="M60.139,52.408s.388,6.5-1.939,10.558-1.666,16.637,1.56,20.4C64.8,89.23,63.047,95.048,75.647,95.048s20.934,2.435,23.454-6.7,9.5-38.983-3.683-42.233-25.392-5.076-28.882-2.437S60.139,52.408,60.139,52.408Z"/><path class="cls-6" d="M96.581,52.611s-2.908,6.294-6.4,6.5-6.2.812-7.365,1.825a11.984,11.984,0,0,0-1.745,1.828l.581-3.248s-1.356.2-2.714,2.233a9.505,9.505,0,0,0-1.55,3.858V59.92L77,63.981s-3.3-3.248-3.3-5.887.97,6.5.97,6.5-2.521-2.031-2.521-7.716.775-6.9.775-6.9-3.682,4.67-4.071,6.7-1.355-4.466-1.355-5.482-2.133,3.655-3.1,5.076S61.5,60.328,61.5,60.328a9.645,9.645,0,0,1-2.909-5.281c-.388-3.045.775,5.888.775,5.888s-5.427-3.451-5.427-9.948-.969-.406-.969-.406-2.167-11.886,5.621-13c5.808-.828,11.4-11.7,28.688-6.294,9.589,3,12.6,8.121,14.538,8.121s11.63,6.9,12.8,13-.469,7.758-.469,11.616,2.987,5.642-2.246,8.892-11.242,6.9-12.211,8.121-.582.2-1.164-3.655-.775-8.121-.775-8.121l-.775,5.076s-1.551-6.5-1.164-8.731-1.744,5.481-1.744,5.481-3.3-5.887-1.743-9.542S96.581,52.611,96.581,52.611Z"/><path class="cls-4" d="M117.841,72.839s-5.947-4.189-12.344-2.36-12.4,7.513-12.017,14.214,2.869,10.014,8.142,11.979C111.951,100.518,128.308,88.473,117.841,72.839Z"/><path class="cls-7" d="M116.158,79.616s-7.366-6.3-11.629-4.264-9.11,6.294-7.173,13.4,10.079,10.153,14.15,6.7S120.423,86.316,116.158,79.616Z"/><path class="cls-5" d="M110.731,80.225s-2.908-2.029-5.623,2.031-5.037,7.511-.192,9.339S116.353,85.3,110.731,80.225Z"/><path class="cls-8" d="M106.854,72.1s2.908-19.9,0-27S96.775,28.245,88.44,29.871s-14.863,2.243-14.863,2.243L65.33,34.053s11.285-7.229,23.3-7.229,18.8,7.514,22.293,17.26S113.252,71.7,113.252,71.7,111.506,72.712,106.854,72.1Z"/><path class="cls-9" d="M68.36,75.131a4.071,4.071,0,0,1,5.553,1.234"/><path class="cls-4" d="M109.042,72.093s2.908-21.056,0-28.577-8.7-16.339-18.413-16.112a54.67,54.67,0,0,0-14.864,2.373L65.33,34.053s4.376-8.815,25.492-9.873c12-.6,18.8,7.949,22.292,18.262s2.326,29.22,2.326,29.22S113.7,72.736,109.042,72.093Z"/><path class="cls-9" d="M62.468,76.894c4.721,7.753,12.957,7.357,20.366,4.408"/><path class="cls-9" d="M63.479,60.91c.274-2.6,3.05-3.248,5.274-3.057"/><path class="cls-9" d="M86.368,63.377a3.727,3.727,0,0,1,4.824,2.233"/><path class="cls-3" d="M43.979,15.8s-5.628,2.695-6.174,2.645-1.421-1.018-.383-1.222c0,0,2.625-1.169,3.334-1.372s3.223-1.371,3.388-1.17S43.979,15.8,43.979,15.8Zm1.147-2.39-8.905,3v.1l.273,8.695s.055.864-.218.864a7.149,7.149,0,0,0-2.952.866c-.82.61-2.237,2.642-.436,3.253s3.606-1.423,3.77-1.778.819-.409.6-2.849-.218-5.848-.218-5.848l7.1-2.8.163,7.374a5.663,5.663,0,0,0-3.06.609c-1.093.766-3.427,2.979-.928,3.713,2.075.611,4.862-2.136,4.862-2.846S45.126,13.411,45.126,13.411Z"/><path class="cls-2" d="M40.591,103.193l-.067-5.79s1.71-3.156,1.71-5.26,2.237-4.012,3.355-4.736,2.7-2.7.725-2.894-5.593,2.17-6.907,1.841-5-2.5-5.2-2.961-1.712-1.842-2.3-2.894-4.143-6.773-5.065-6.642-.854,2.894-.13,4.012,2.04,3.223,2.04,3.223-2.434-3.881-3.291-4.8-2.1-3.158-3.025-2.564-.592,3.091-.131,4.274,1.71,3.552,1.71,3.552S22.041,78.066,21.122,78a1.3,1.3,0,0,0-1.251,1.644,8.64,8.64,0,0,0,.986,2.171,7.746,7.746,0,0,0,.132,3.486,8.435,8.435,0,0,0,2.763,3.815c1.25,1.119,1.986,4.361,3.17,5.546s3.934,2.02,4.657,2.612,1.316.524,1.053,1.446-.262,6.907-.262,6.907,3.945-.133,5-.659S40.591,103.193,40.591,103.193Z"/><path class="cls-2" d="M24.081,81.158c1.592,1.328,3.645,2.671,4.933,4.407"/><path class="cls-2" d="M28.092,80.171c1.205.756,1.888,2.021,2.894,2.959"/><path class="cls-2" d="M20.593,81.158c1.9-1.609,2.956,1.544,3.556,2.812.758,1.605,1.713,2.367,3.155,3.764"/><path class="cls-2" d="M35.461,85.893c-2.01,1.791-.267,5.56,1.051,7.236"/><path class="cls-2" d="M33.091,97.142a4.466,4.466,0,0,0,5.329-1.119"/><path class="cls-2" d="M118.482,108.146a14.648,14.648,0,0,0,3.682-6.214c1.149-3.911,1.84-6.212,3.682-7.363s4.536-5.329,3.221-5.754c-2.236-.721-4.6,1.38-4.6,1.38s-.919-4.6-2.76-5.981-2.992-.92-2.073,1.84a16.2,16.2,0,0,1,.462,6.213s-1.653-5.309-3.222-7.593c-1.777-2.588-5.983-3.681-4.372-1.151s1.611,3.453,1.611,3.453-2.072-4.833-3.222-2.762.69,5.522.69,5.522-2.912-4.437-4.142-2.992c-1.648,1.937,1.151,7.135,1.151,7.135a13.1,13.1,0,0,0-1.841,5.752c0,2.762,1.381,5.753,5.984,6.9a57.668,57.668,0,0,0,6.674,1.38Z"/><path class="cls-9" d="M124.456,90.19a10.277,10.277,0,0,1-.7,5.17"/><path class="cls-9" d="M113.976,86.7a18.307,18.307,0,0,1,1.4,7.965"/><path class="cls-9" d="M111.578,89.736c1.152,1.8.378,3.6.582,5.624"/><path class="cls-10" d="M107.269,101.579s5.728,3.491,9.083,2.8,6.846-1.257,6.146,1.117.141,4.331-.837,5.31-1.815,5.03-3.633,2.794-6.567-2.793-10.061-4.75-3.353-3.215-3.353-3.215A3.4,3.4,0,0,1,107.269,101.579Z"/><polygon class="cls-10" points="72.827 120.865 78.06 115.337 83.722 121.352 72.827 120.865"/><path class="cls-10" d="M64.855,96.464s.353,3.927,1.891,6.163,9.922,6.289,16.349,5.17,5.586-2.676,6.708-4.611c2.4-4.142,1.833-6.619,1.833-6.619l-2.374-.98A6.961,6.961,0,0,1,82.4,100.95c-5.727,0-11.457-.7-12.435-2.516s-2.1-3.632-2.1-3.632S65.887,94.09,64.855,96.464Z"/><path class="cls-10" d="M29.437,97.806s5.241,2.1,7.547,1.257a31.518,31.518,0,0,0,5.889-3.528s.878.361,1.865,4.157c.355,1.361,1.048,2.306-1.676,4.193s-2.1,3.562-8.384,3.353l-6.288-.21S24.617,98.853,29.437,97.806Z"/><ellipse class="cls-11" cx="63.668" cy="66.338" rx="4.227" ry="2.837" transform="translate(-18.522 107.56) rotate(-72.813)"/><ellipse class="cls-3" cx="62.335" cy="66.415" rx="2.736" ry="1.949" transform="translate(-19.534 106.34) rotate(-72.813)"/><ellipse class="cls-11" cx="85.686" cy="70.464" rx="4.227" ry="2.837" transform="translate(-6.951 131.501) rotate(-72.813)"/><ellipse class="cls-3" cx="84.353" cy="70.54" rx="2.736" ry="1.949" transform="translate(-7.963 130.282) rotate(-72.813)"/></svg>