<svg id="word" xmlns="http://www.w3.org/2000/svg" viewBox="0 0 160 160"><defs><style>.cls-1{fill:#cedc45;}.cls-1,.cls-10,.cls-11,.cls-12,.cls-13,.cls-14,.cls-15,.cls-16,.cls-19,.cls-3,.cls-4,.cls-5,.cls-6,.cls-7,.cls-8,.cls-9{stroke:#9b4d9c;}.cls-1,.cls-10,.cls-11,.cls-12,.cls-13,.cls-14,.cls-15,.cls-16,.cls-19,.cls-2,.cls-3,.cls-4,.cls-5,.cls-6,.cls-7,.cls-8,.cls-9{stroke-miterlimit:10;}.cls-1,.cls-3,.cls-4{stroke-width:0.622px;}.cls-19,.cls-2{fill:none;}.cls-2{stroke:#9b4b9c;stroke-linecap:round;stroke-width:1.244px;}.cls-16,.cls-3{fill:#eb72a8;}.cls-4{fill:#6dccf2;}.cls-5{fill:#f8ed3e;}.cls-10,.cls-11,.cls-12,.cls-13,.cls-14,.cls-15,.cls-16,.cls-5,.cls-6,.cls-7,.cls-8,.cls-9{stroke-width:0.249px;}.cls-6{fill:#d4dc27;}.cls-7{fill:#27ade4;}.cls-8{fill:#a8d079;}.cls-9{fill:#ef6692;}.cls-10{fill:#44445a;}.cls-11{fill:#8abfe7;}.cls-12{fill:#fcf28f;}.cls-13{fill:#fff;}.cls-14{fill:#d7326f;}.cls-15{fill:#f5a3b1;}.cls-17{fill:#9b4d9c;}.cls-18{fill:#9b4b9c;}.cls-19{stroke-width:0.56px;}</style></defs><path class="cls-1" d="M43.96,35.864s2.241-7.86,8-8.664,29.417.661,34.079,0,21.232,0,25.6,3.041a15.524,15.524,0,0,1,5.666,7.914s-26.749-4-34.946-4.613-33,1.625-34.376,1.607S44.043,36.877,43.96,35.864Z"/><path class="cls-2" d="M77.575,17.737s-2.378-4.425,2.646-5.058c5.166-.65,5.54,3.146,5.116,5.1s-4.057,4.44-4.587,6.1a37.834,37.834,0,0,0-.952,4.19"/><path class="cls-3" d="M61.458,25.435l10.526-.055s.577,14.2,9.308,16.113S91.477,25.717,91.477,25.717l12.978,1.227a52.184,52.184,0,0,0-3.221,13.912c-.339,6.593,2.024,14.472,2.024,14.472s-13.181,5.2-20.3,3.767-21.588-4.711-21.588-4.711,1.975-11.331,1.181-16.8S61.458,25.435,61.458,25.435Z"/><path class="cls-4" d="M61.718,48.535s.025-8.2-.787-9.483-3.508-.626-6.869,1.617-7.829.835-4.775,3.759,12.431,7.9,12.431,7.9Z"/><path class="cls-4" d="M60.2,54.21S44.942,58.62,44.26,58.243s-1.125-4.308-1.312-7.61-3.5-6.947,1.966-5.607,15.352,6.515,15.352,6.515S62.608,53.163,60.2,54.21Z"/><path class="cls-4" d="M56.705,56.146S51.3,65.934,49.133,71.214,38.247,94.351,35.669,98.062s-11.415,6.806-11.415,6.806a61.844,61.844,0,0,1,4.716,6.7c1.642,2.9,2.255,4.831,2.927,4.545s1.218-3.016,3.172-4.424S45.256,94.346,46.583,89.749s4.893-20.114,8.688-25.044a53.875,53.875,0,0,0,6.1-10.321Z"/><path class="cls-4" d="M52.053,57.963s-7.541,8.711-10.7,11.553-11.579,8.9-16.179,10.952-11.1,1.426-11.1,1.426.307,7.081,2.659,10.75,4.642,4.372,4.642,4.372,2.173-1.568,7.45-6.058A181.9,181.9,0,0,0,47.157,71.826C50.142,67.874,58.743,55,58.743,55Z"/><path class="cls-5" d="M52.146,82.234c.055-.277.108-.55.159-.811"/><path class="cls-5" d="M42.031,135.931c.105-.228.21-.455.311-.684Z"/><polygon class="cls-6" points="102.032 98.575 107.499 86.535 103.433 74.847 97.878 87.079 102.032 98.575"/><polygon class="cls-7" points="103.433 74.847 99.364 63.152 93.718 75.563 97.878 87.079 103.433 74.847"/><polygon class="cls-8" points="93.066 97.678 97.878 87.079 93.718 75.563 89.123 85.661 93.066 97.678"/><polygon class="cls-9" points="93.718 75.563 89.61 64.194 85.29 73.977 89.123 85.661 93.718 75.563"/><polygon class="cls-10" points="106.185 110.071 111.566 98.223 107.499 86.535 102.032 98.575 106.185 110.071"/><polygon class="cls-7" points="100.93 121.646 105.225 134.737 110.662 122.462 106.185 110.071 100.93 121.646"/><polygon class="cls-11" points="102.032 98.575 96.998 109.662 100.93 121.646 106.185 110.071 102.032 98.575"/><polygon class="cls-12" points="83.707 97.567 89.123 85.661 85.29 73.977 79.895 86.192 83.707 97.567"/><polygon class="cls-13" points="110.662 122.462 115.891 110.655 111.566 98.223 106.185 110.071 110.662 122.462"/><path class="cls-7" d="M46.7,141.228a14.428,14.428,0,0,1,6.268,2l.678.448-3.4-10.263Z"/><polygon class="cls-12" points="61.414 108.819 58.357 100.05 53.093 111.619 56.165 120.378 61.414 108.819"/><polygon class="cls-10" points="55.117 90.757 49.578 101.598 53.093 111.619 58.357 100.05 55.117 90.757"/><path class="cls-11" d="M47.267,124.424l-4.832,10.618,2.1,6.036c.711.021,1.435.068,2.159.15l3.547-7.811Z"/><polygon class="cls-10" points="56.165 120.378 53.093 111.619 47.267 124.424 50.245 133.417 56.165 120.378"/><polygon class="cls-8" points="63.541 88.657 60.583 80.061 55.117 90.757 58.357 100.05 63.541 88.657"/><polygon class="cls-7" points="68.211 78.394 65.545 70.349 60.583 80.061 63.541 88.657 68.211 78.394"/><polygon class="cls-10" points="71.172 87.328 76.411 75.792 73.435 66.912 68.211 78.394 71.172 87.328"/><polygon class="cls-6" points="85.29 73.977 81.911 63.679 76.411 75.792 79.895 86.192 85.29 73.977"/><polygon class="cls-11" points="74.697 97.962 79.895 86.192 76.411 75.792 71.172 87.328 74.697 97.962"/><polygon class="cls-14" points="91.682 121.369 95.662 133.247 100.93 121.646 96.998 109.662 91.682 121.369"/><polygon class="cls-14" points="73.435 66.912 71.006 59.661 65.545 70.349 68.211 78.394 73.435 66.912"/><polygon class="cls-10" points="83.707 97.567 79.895 86.192 74.697 97.962 78.419 109.189 83.707 97.567"/><polygon class="cls-12" points="71.172 87.328 68.211 78.394 63.541 88.657 66.571 97.462 71.172 87.328"/><polygon class="cls-14" points="93.066 97.678 89.123 85.661 83.707 97.567 87.702 109.491 93.066 97.678"/><polygon class="cls-6" points="70.227 108.085 74.697 97.962 71.172 87.328 66.571 97.462 70.227 108.085"/><polygon class="cls-15" points="73.972 118.965 78.419 109.189 74.697 97.962 70.227 108.085 73.972 118.965"/><path class="cls-5" d="M54.014,144.8l.3-.674c-.214-.143-.437-.29-.668-.443Z"/><polygon class="cls-13" points="102.032 98.575 97.878 87.079 93.066 97.678 96.998 109.662 102.032 98.575"/><polygon class="cls-13" points="63.038 62.787 57.78 71.917 60.583 80.061 65.545 70.349 63.038 62.787"/><polygon class="cls-14" points="114.452 132.951 119.664 121.501 115.891 110.655 110.662 122.462 114.452 132.951"/><polygon class="cls-15" points="61.414 108.819 56.165 120.378 59.987 131.272 65.159 119.561 61.414 108.819"/><polygon class="cls-9" points="83.707 97.567 78.419 109.189 82.394 121.181 87.702 109.491 83.707 97.567"/><polygon class="cls-13" points="68.865 130.19 72.964 141.948 78.037 130.776 73.972 118.965 68.865 130.19"/><polygon class="cls-8" points="73.972 118.965 78.037 130.776 82.394 121.181 78.419 109.189 73.972 118.965"/><polygon class="cls-11" points="82.394 121.181 86.349 133.113 91.682 121.369 87.702 109.491 82.394 121.181"/><polygon class="cls-6" points="93.066 97.678 87.702 109.491 91.682 121.369 96.998 109.662 93.066 97.678"/><polygon class="cls-13" points="63.541 88.657 58.357 100.05 61.414 108.819 66.571 97.462 63.541 88.657"/><polygon class="cls-7" points="70.227 108.085 66.571 97.462 61.414 108.819 65.159 119.561 70.227 108.085"/><polygon class="cls-10" points="59.987 131.272 63.638 141.679 68.865 130.19 65.159 119.561 59.987 131.272"/><polygon class="cls-14" points="70.227 108.085 65.159 119.561 68.865 130.19 73.972 118.965 70.227 108.085"/><path class="cls-8" d="M85.29,73.977l4.32-9.783-2.155-5.965c-1.156.138-2.24.237-3.2.281l-2.347,5.169Z"/><path class="cls-13" d="M76.411,75.792l5.5-12.113-1.762-5.37c-.834-.1-1.718-.222-2.632-.368l-4.082,8.971Z"/><path class="cls-7" d="M73.435,66.912l4.082-8.971c-1.664-.266-3.423-.6-5.144-.955l-1.367,2.675Z"/><path class="cls-14" d="M56.165,120.378l-5.92,13.039,3.4,10.263c.231.153.454.3.668.443l5.675-12.851Z"/><path class="cls-10" d="M67.058,55.805c-3.3-.779-5.69-1.421-5.69-1.421s-.235.547-.625,1.478l2.295,6.925Z"/><path class="cls-11" d="M65.545,70.349l5.461-10.688-1.072-3.2c-1.007-.223-1.974-.446-2.876-.659l-4.02,6.982Z"/><path class="cls-14" d="M92.58,57.469c-1.74.3-3.5.566-5.125.76l2.155,5.965Z"/><path class="cls-10" d="M93.718,75.563l5.646-12.411L97.1,56.633c-1.409.278-2.951.568-4.516.836l-2.97,6.725Z"/><path class="cls-14" d="M99.364,63.152l4.069,11.695,4.574-10.074a89.458,89.458,0,0,0-4.749-9.445s-2.66.615-6.162,1.3l2.268,6.519"/><path class="cls-14" d="M84.258,58.51c-.163.008-.325.015-.479.019a26.469,26.469,0,0,1-3.63-.22l1.762,5.37Z"/><path class="cls-11" d="M107.5,86.535l4.244-9.346c-.392-1.969-.755-3.649-1.089-4.92a54.761,54.761,0,0,0-2.647-7.5l-4.574,10.074Z"/><path class="cls-14" d="M63.038,62.787l-2.295-6.925c-.952,2.27-2.831,6.842-4.531,11.5l1.568,4.555Z"/><path class="cls-5" d="M42.433,135.035c-.031.071-.06.142-.091.212l.093-.205Z"/><path class="cls-7" d="M44.539,141.078l-2.1-6.036-.093.205c-.1.229-.206.456-.311.684l-.078.171.078-.171a57.841,57.841,0,0,1-2.887,5.427A36.082,36.082,0,0,1,44.539,141.078Z"/><path class="cls-7" d="M56.212,67.362a76.833,76.833,0,0,0-3.246,10.631c-.159.853-.386,2.024-.661,3.43l5.475-9.506Z"/><path class="cls-16" d="M88.5,139.6l-.06-.054a5.682,5.682,0,0,0-4.522-1.086L83.45,139.5l.469-1.033a16.428,16.428,0,0,0-3.014.648l.355,1.03-.355-1.03a53.417,53.417,0,0,0-7.779,3.3l.1.289-.1-.289-.484.241-.226.5.226-.5a67.275,67.275,0,0,1-7.448,3.461l.325.926-.325-.926c-.065.022-.134.047-.2.067a17.251,17.251,0,0,1-3.789.834l-.2.451.2-.451c-2.315.159-3.731-.79-6.9-2.9l-.3.674-.37-1.117-.678-.448a14.428,14.428,0,0,0-6.268-2l-.416.915.416-.915c-.724-.082-1.448-.129-2.159-.15l.173.494-.173-.494a36.082,36.082,0,0,0-5.4.28,75.567,75.567,0,0,1-6.439,9.127s9.231-1.673,13.635-1.553,4.411,4.565,7.646,6.722,7.181-.622,10.006-2.231,9.5-3.509,15.043-3.724,6.437,2.359,8.244,3.4,9.105-1.117,12.731-2.617,7.263-.784,7.479,0,4.667,1.911,7.244-.538,7.793-2.3,12.491-3,11.25-2.3,11.25-2.3-5.451-4.111-8.674-7.217a10.516,10.516,0,0,0-3.277,1.767,3.949,3.949,0,0,1-.545.455"/><path class="cls-16" d="M125.978,139.647a5.883,5.883,0,0,1-4.841.569l-.31.694.31-.694a13.509,13.509,0,0,1-2.2-.721,2.939,2.939,0,0,0-2.21-.248l.323.895-.323-.895c-1.328.507-1.6,2.531-2.729,3.985a3.673,3.673,0,0,1-4.723,1.089l-.217.476.217-.476a4.888,4.888,0,0,1-1.2-.9l.3.9-.3-.9a6.758,6.758,0,0,1-.866-1.084c-1.892-2.908-3.356-.272-6.318,2.187l-.443,1,.443-1c-.342.284-.7.567-1.085.837-.023.017-.046.026-.07.043l.272.81-.272-.81c-2.836,1.932-5.109-.027-8.231-3l-.34.749.34-.749c-.917-.873-1.9-1.828-3-2.8"/><path class="cls-7" d="M47.267,124.424l-1.7-5.127c-.327,2.5-.559,4.7-.654,6.447a27.727,27.727,0,0,1-2.481,9.291l0,.007Z"/><path class="cls-7" d="M55.117,90.757l-2.971-8.523c-.851,4.347-2.092,10.637-3.312,17.244l.744,2.12Z"/><polyline class="cls-10" points="52.146 82.234 55.117 90.757 60.583 80.061 57.78 71.917 52.305 81.423"/><path class="cls-6" d="M53.093,111.619,49.578,101.6l-1.743,3.413c-.9,5.1-1.718,10.106-2.267,14.286l1.7,5.127Z"/><path class="cls-14" d="M48.834,99.478c-.338,1.834-.674,3.688-1,5.533l1.743-3.413Z"/><path class="cls-14" d="M72.373,56.986c-.827-.171-1.644-.346-2.439-.522l1.072,3.2Z"/><path class="cls-6" d="M82.394,121.181l-4.357,9.6,2.868,8.336a16.428,16.428,0,0,1,3.014-.648l2.43-5.351Z"/><path class="cls-7" d="M83.919,138.464a5.682,5.682,0,0,1,4.522,1.086l.06.054-2.152-6.491Z"/><path class="cls-12" d="M111.566,98.223l2.9-6.394c-1.013-5.4-1.928-10.624-2.726-14.64L107.5,86.535Z"/><path class="cls-15" d="M91.5,142.405c3.122,2.972,5.395,4.931,8.231,3l-4.073-12.157Z"/><path class="cls-13" d="M100.93,121.646l-5.268,11.6L99.735,145.4c.024-.017.047-.026.07-.043.386-.27.743-.553,1.085-.837l4.335-9.787Z"/><path class="cls-7" d="M72.964,141.948l.162.467a53.417,53.417,0,0,1,7.779-3.3l-2.868-8.336Z"/><path class="cls-13" d="M61.208,147.018A17.251,17.251,0,0,0,65,146.184c.063-.02.132-.045.2-.067l-1.556-4.438Z"/><path class="cls-7" d="M59.987,131.272l-5.675,12.851c3.165,2.105,4.581,3.054,6.9,2.9l2.43-5.339Z"/><path class="cls-5" d="M72.642,142.656l.484-.241-.162-.467Z"/><path class="cls-15" d="M68.865,130.19l-5.227,11.489,1.556,4.438a67.275,67.275,0,0,0,7.448-3.461l.322-.708Z"/><path class="cls-6" d="M91.682,121.369l-5.333,11.744L88.5,139.6c1.1.973,2.086,1.928,3,2.8l4.158-9.158Z"/><path class="cls-12" d="M125.978,139.647a3.949,3.949,0,0,0,.545-.455,10.516,10.516,0,0,1,3.277-1.767,17.278,17.278,0,0,1-1.82-1.978,22.255,22.255,0,0,1-2.434-5.075l-1.573,3.513Z"/><path class="cls-12" d="M119.664,121.5l1.522-3.342c-.341-.918-.694-1.858-1.073-2.838a72.034,72.034,0,0,1-2.522-8.5l-1.7,3.839Z"/><path class="cls-7" d="M100.89,144.524c2.962-2.459,4.426-5.095,6.318-2.187a6.758,6.758,0,0,0,.866,1.084l-2.849-8.684Z"/><path class="cls-6" d="M115.891,110.655l1.7-3.839c-1.118-4.587-2.163-9.87-3.122-14.987l-2.9,6.394Z"/><path class="cls-7" d="M123.973,133.885l1.573-3.513c-1.157-3.067-2.488-7.169-4.36-12.213l-1.522,3.342Z"/><path class="cls-10" d="M110.662,122.462l-5.437,12.275,2.849,8.684a4.888,4.888,0,0,0,1.2.9l5.177-11.37Z"/><path class="cls-7" d="M121.137,140.216a5.883,5.883,0,0,0,4.841-.569l-2-5.762Z"/><path class="cls-7" d="M109.275,144.321A3.673,3.673,0,0,0,114,143.232c1.125-1.454,1.4-3.478,2.729-3.985l-2.275-6.3Z"/><path class="cls-13" d="M119.664,121.5l-5.212,11.45,2.275,6.3a2.939,2.939,0,0,1,2.21.248,13.509,13.509,0,0,0,2.2.721l2.836-6.331Z"/><path class="cls-17" d="M65.227,35.553c.227-.22,1.453-1.536,1.638,0s-1.91,2.632-2.509,1.974S65.227,35.553,65.227,35.553Z"/><path class="cls-17" d="M67.13,41.805c.133-.285.809-1.952,1.53-.584s-.846,3.141-1.64,2.739S67.13,41.805,67.13,41.805Z"/><path class="cls-17" d="M70.206,36.833c.16-.155,1.025-1.084,1.156,0s-1.348,1.858-1.771,1.393S70.206,36.833,70.206,36.833Z"/><path class="cls-17" d="M71.993,40.193c.227-.219,1.453-1.535,1.638,0s-1.91,2.633-2.509,1.975S71.993,40.193,71.993,40.193Z"/><path class="cls-17" d="M64.509,46.255c.106-.228.644-1.554,1.218-.465s-.673,2.5-1.305,2.18S64.509,46.255,64.509,46.255Z"/><path class="cls-17" d="M70.206,44.552c.16-.155,1.025-1.084,1.156,0s-1.348,1.858-1.771,1.394S70.206,44.552,70.206,44.552Z"/><path class="cls-17" d="M75.306,43.191c.227-.22,1.453-1.536,1.638,0s-1.91,2.632-2.509,1.974S75.306,43.191,75.306,43.191Z"/><path class="cls-17" d="M76.4,49.443c.134-.286.81-1.953,1.531-.584S77.088,52,76.294,51.6,76.4,49.443,76.4,49.443Z"/><path class="cls-17" d="M79.48,44.47c.16-.154,1.025-1.083,1.156,0s-1.349,1.858-1.771,1.394S79.48,44.47,79.48,44.47Z"/><path class="cls-17" d="M81.267,47.831c.226-.219,1.452-1.535,1.638,0s-1.911,2.633-2.509,1.974S81.267,47.831,81.267,47.831Z"/><path class="cls-17" d="M73.783,53.893c.106-.228.644-1.555,1.218-.465s-.674,2.5-1.306,2.18S73.783,53.893,73.783,53.893Z"/><path class="cls-17" d="M79.48,52.19c.16-.155,1.025-1.084,1.156,0s-1.349,1.858-1.771,1.393S79.48,52.19,79.48,52.19Z"/><path class="cls-17" d="M86.74,42.151c.227-.219,1.453-1.535,1.638,0s-1.91,2.633-2.509,1.975S86.74,42.151,86.74,42.151Z"/><path class="cls-17" d="M87.837,48.4c.134-.286.81-1.953,1.531-.584s-.846,3.14-1.64,2.739S87.837,48.4,87.837,48.4Z"/><path class="cls-17" d="M90.914,43.431c.16-.155,1.025-1.084,1.156,0s-1.349,1.858-1.771,1.394S90.914,43.431,90.914,43.431Z"/><path class="cls-17" d="M92.7,46.792c.226-.219,1.453-1.535,1.638,0s-1.911,2.632-2.509,1.974S92.7,46.792,92.7,46.792Z"/><path class="cls-17" d="M85.217,52.853c.106-.227.644-1.554,1.218-.465s-.673,2.5-1.306,2.181S85.217,52.853,85.217,52.853Z"/><path class="cls-17" d="M90.914,51.151c.16-.155,1.025-1.084,1.156,0s-1.349,1.858-1.771,1.393S90.914,51.151,90.914,51.151Z"/><path class="cls-17" d="M93.314,28.448c.226-.22,1.452-1.536,1.638,0s-1.911,2.632-2.509,1.974S93.314,28.448,93.314,28.448Z"/><path class="cls-17" d="M94.411,34.7c.133-.286.809-1.953,1.53-.584s-.846,3.14-1.64,2.739S94.411,34.7,94.411,34.7Z"/><path class="cls-17" d="M97.487,29.727c.16-.154,1.025-1.083,1.156,0s-1.348,1.858-1.771,1.394S97.487,29.727,97.487,29.727Z"/><path class="cls-17" d="M99.274,33.088c.227-.219,1.453-1.535,1.638,0S99,35.721,98.4,35.062,99.274,33.088,99.274,33.088Z"/><path class="cls-17" d="M91.79,39.15c.106-.228.644-1.555,1.218-.465s-.673,2.5-1.3,2.18S91.79,39.15,91.79,39.15Z"/><path class="cls-17" d="M97.487,37.447c.16-.155,1.025-1.084,1.156,0S97.3,39.305,96.872,38.84,97.487,37.447,97.487,37.447Z"/><path class="cls-17" d="M95.866,41.7c.227-.219,1.453-1.536,1.638,0S95.594,44.327,95,43.669,95.866,41.7,95.866,41.7Z"/><path class="cls-17" d="M96.963,47.947c.133-.285.809-1.952,1.53-.584s-.846,3.141-1.64,2.74S96.963,47.947,96.963,47.947Z"/><path class="cls-17" d="M100.039,42.975c.16-.155,1.026-1.084,1.156,0s-1.348,1.858-1.771,1.393S100.039,42.975,100.039,42.975Z"/><path class="cls-17" d="M71.445,49.274c.227-.22,1.453-1.536,1.638,0s-1.91,2.632-2.509,1.974S71.445,49.274,71.445,49.274Z"/><path class="cls-17" d="M94.342,52.4c.107-.228.645-1.554,1.218-.465s-.673,2.5-1.305,2.18S94.342,52.4,94.342,52.4Z"/><path class="cls-17" d="M100.039,50.694c.16-.155,1.026-1.084,1.156,0s-1.348,1.858-1.771,1.394S100.039,50.694,100.039,50.694Z"/><path class="cls-17" d="M63.583,27.272c.227-.219,1.453-1.535,1.638,0s-1.91,2.632-2.509,1.974S63.583,27.272,63.583,27.272Z"/><path class="cls-17" d="M66,31c.133-.285.809-1.952,1.53-.584s-.846,3.141-1.64,2.74S66,31,66,31Z"/><path class="cls-17" d="M69.073,26.032c.16-.155,1.025-1.084,1.156,0s-1.348,1.858-1.771,1.393S69.073,26.032,69.073,26.032Z"/><path class="cls-17" d="M66.033,50.483c.226-.219,1.452-1.535,1.638,0s-1.911,2.632-2.509,1.974S66.033,50.483,66.033,50.483Z"/><path class="cls-17" d="M63.653,40.981c.106-.227.644-1.554,1.218-.465s-.673,2.5-1.3,2.181S63.653,40.981,63.653,40.981Z"/><path class="cls-17" d="M69.073,33.751c.16-.155,1.025-1.084,1.156,0s-1.348,1.858-1.771,1.394S69.073,33.751,69.073,33.751Z"/><path class="cls-17" d="M39.735,142.1c.167-.162,1.072-1.134,1.209,0s-1.41,1.943-1.852,1.457S39.735,142.1,39.735,142.1Z"/><path class="cls-17" d="M38.514,146.53c.1-.211.6-1.442,1.129-.432s-.624,2.319-1.21,2.023S38.514,146.53,38.514,146.53Z"/><path class="cls-17" d="M42.816,143.046c.118-.115.757-.8.853,0s-.995,1.371-1.307,1.028S42.816,143.046,42.816,143.046Z"/><path class="cls-17" d="M45.119,145.983c.167-.162,1.072-1.133,1.209,0s-1.41,1.944-1.852,1.458S45.119,145.983,45.119,145.983Z"/><path class="cls-17" d="M45.964,142.348c.079-.168.476-1.147.9-.343s-.5,1.846-.964,1.61S45.964,142.348,45.964,142.348Z"/><path class="cls-17" d="M41.676,146.754c.118-.114.757-.8.854,0s-1,1.372-1.308,1.029S41.676,146.754,41.676,146.754Z"/><path class="cls-17" d="M53.052,144.727c.227-.22,1.453-1.536,1.638,0s-1.91,2.632-2.509,1.974S53.052,144.727,53.052,144.727Z"/><path class="cls-17" d="M53.005,150.106c.133-.286.809-1.953,1.53-.584s-.846,3.14-1.64,2.739S53.005,150.106,53.005,150.106Z"/><path class="cls-17" d="M57.225,146.007c.16-.155,1.026-1.084,1.157,0s-1.349,1.858-1.772,1.393S57.225,146.007,57.225,146.007Z"/><path class="cls-17" d="M64.841,146.82c.227-.219,1.453-1.535,1.638,0s-1.91,2.632-2.509,1.974S64.841,146.82,64.841,146.82Z"/><path class="cls-17" d="M56,153.866c.106-.227.644-1.554,1.218-.465s-.673,2.5-1.305,2.18S56,153.866,56,153.866Z"/><path class="cls-17" d="M49.007,146.622c.16-.155,1.025-1.084,1.156,0s-1.349,1.858-1.771,1.393S49.007,146.622,49.007,146.622Z"/><path class="cls-17" d="M72.528,142.682c.227-.219,1.453-1.535,1.638,0s-1.91,2.633-2.509,1.975S72.528,142.682,72.528,142.682Z"/><path class="cls-17" d="M107.435,144.856c.133-.286.809-1.953,1.53-.585s-.846,3.141-1.64,2.74S107.435,144.856,107.435,144.856Z"/><path class="cls-17" d="M90.677,142.833c.16-.155,1.025-1.084,1.156,0s-1.348,1.858-1.771,1.393S90.677,142.833,90.677,142.833Z"/><path class="cls-17" d="M81.153,139.5c.227-.219,1.453-1.536,1.638,0s-1.91,2.632-2.509,1.974S81.153,139.5,81.153,139.5Z"/><path class="cls-17" d="M69.056,146.46c.107-.228.645-1.555,1.218-.465s-.673,2.5-1.305,2.18S69.056,146.46,69.056,146.46Z"/><path class="cls-17" d="M100.219,145.2c.16-.155,1.026-1.084,1.157,0s-1.349,1.857-1.772,1.393S100.219,145.2,100.219,145.2Z"/><path class="cls-17" d="M76.489,143.145c.176-.17,1.127-1.191,1.271,0s-1.482,2.043-1.947,1.532S76.489,143.145,76.489,143.145Z"/><path class="cls-17" d="M73.682,146.7c.1-.222.628-1.515,1.187-.453s-.656,2.437-1.272,2.125S73.682,146.7,73.682,146.7Z"/><path class="cls-17" d="M79.727,143.571c.124-.12.8-.841.9,0s-1.046,1.441-1.374,1.081S79.727,143.571,79.727,143.571Z"/><path class="cls-17" d="M85.343,142.783c.176-.17,1.127-1.192,1.271,0s-1.482,2.042-1.947,1.532S85.343,142.783,85.343,142.783Z"/><path class="cls-17" d="M66.761,149.853c.082-.176.5-1.206.945-.361s-.523,1.94-1.013,1.692S66.761,149.853,66.761,149.853Z"/><path class="cls-17" d="M79,147.492c.124-.12.8-.841.9,0s-1.047,1.441-1.375,1.081S79,147.492,79,147.492Z"/><path class="cls-17" d="M90.032,146.318c.227-.22,1.453-1.536,1.638,0s-1.91,2.632-2.509,1.974S90.032,146.318,90.032,146.318Z"/><path class="cls-17" d="M95.344,148.679c.227-.219,1.453-1.535,1.638,0s-1.91,2.633-2.509,1.974S95.344,148.679,95.344,148.679Z"/><path class="cls-17" d="M59.743,147.646c.16-.155,1.025-1.084,1.156,0s-1.348,1.858-1.771,1.394S59.743,147.646,59.743,147.646Z"/><path class="cls-17" d="M61.1,151.388c.226-.219,1.452-1.536,1.638,0s-1.911,2.632-2.51,1.974S61.1,151.388,61.1,151.388Z"/><path class="cls-17" d="M104.716,143.8c.106-.227.644-1.554,1.218-.465s-.673,2.5-1.3,2.181S104.716,143.8,104.716,143.8Z"/><path class="cls-17" d="M88.254,150.663c.176-.17,1.127-1.191,1.271,0s-1.482,2.043-1.947,1.532S88.254,150.663,88.254,150.663Z"/><path class="cls-17" d="M102.345,146.7c.1-.222.628-1.515,1.187-.453s-.656,2.437-1.272,2.125S102.345,146.7,102.345,146.7Z"/><path class="cls-17" d="M56.721,149.8c.124-.12.8-.841.9,0s-1.046,1.441-1.374,1.081S56.721,149.8,56.721,149.8Z"/><path class="cls-17" d="M85.343,147.328c.176-.17,1.127-1.192,1.271,0s-1.482,2.042-1.947,1.532S85.343,147.328,85.343,147.328Z"/><path class="cls-17" d="M109.6,149.058c.082-.176.5-1.206.945-.36s-.522,1.939-1.013,1.691S109.6,149.058,109.6,149.058Z"/><path class="cls-17" d="M36.3,147.145c.124-.12.8-.841.9,0s-1.046,1.441-1.374,1.081S36.3,147.145,36.3,147.145Z"/><path class="cls-17" d="M114.846,145.865c.226-.22,1.452-1.536,1.638,0s-1.911,2.632-2.509,1.974S114.846,145.865,114.846,145.865Z"/><path class="cls-17" d="M122.1,143.178c.226-.219,1.453-1.535,1.638,0s-1.911,2.633-2.509,1.975S122.1,143.178,122.1,143.178Z"/><path class="cls-17" d="M111.1,146.007c.16-.155,1.026-1.084,1.156,0s-1.348,1.858-1.771,1.393S111.1,146.007,111.1,146.007Z"/><path class="cls-17" d="M130.729,140c.226-.219,1.452-1.535,1.638,0s-1.911,2.632-2.51,1.974S130.729,140,130.729,140Z"/><path class="cls-17" d="M116.222,140.276c.106-.227.644-1.554,1.218-.465s-.673,2.5-1.3,2.181S116.222,140.276,116.222,140.276Z"/><path class="cls-17" d="M126.065,143.642c.176-.171,1.127-1.192,1.271,0s-1.483,2.042-1.947,1.531S126.065,143.642,126.065,143.642Z"/><path class="cls-17" d="M118.043,144.537c.1-.222.627-1.515,1.187-.454s-.656,2.437-1.273,2.126S118.043,144.537,118.043,144.537Z"/><path class="cls-17" d="M129.3,144.067c.124-.12.8-.841.9,0s-1.046,1.442-1.374,1.081S129.3,144.067,129.3,144.067Z"/><path class="cls-17" d="M134.919,143.279c.176-.17,1.127-1.192,1.271,0s-1.482,2.042-1.947,1.532S134.919,143.279,134.919,143.279Z"/><path class="cls-17" d="M120.127,140.889c.082-.176.5-1.206.945-.361s-.522,1.94-1.013,1.692S120.127,140.889,120.127,140.889Z"/><path class="cls-17" d="M127.844,140.32c.124-.12.8-.841.9,0s-1.046,1.441-1.374,1.081S127.844,140.32,127.844,140.32Z"/><path class="cls-18" d="M118.742,5.574s-2.167-2.312-.9-2.933,1.824,2.421,1.824,2.421.782-3.234,1.863-2.748c1.985.893-1.26,3.254-1.26,3.254s2.986-1.625,3.2.015-3.007.334-3.007.334,3.271,1.158,2.943,2.549-3.241-1.631-3.241-1.631,2.129,3.188.534,3.291c-1.429.093-1.28-3.039-1.28-3.039s-.833,3.384-2.209,2.634c-1.613-.88,1.556-3.012,1.556-3.012s-3.717.783-3.29-1.065C115.829,4.119,118.742,5.574,118.742,5.574Z"/><path class="cls-18" d="M44.641,4.945s.227-3.161,1.544-2.652-.539,2.983-.539,2.983,2.905-1.622,3.282-.5c.692,2.064-3.245,1.284-3.245,1.284s3.22,1.089,2.162,2.36-2.287-1.981-2.287-1.981,1.37,3.187.127,3.891-1-3.486-1-3.486-.9,3.727-2.054,2.626c-1.038-.986,1.362-3,1.362-3s-3.05,1.686-3.433.166c-.449-1.781,3.267-.9,3.267-.9s-3.1-2.2-1.451-3.139C43.732,1.817,44.641,4.945,44.641,4.945Z"/><path class="cls-19" d="M46.784,6.873c12.427,7.5,32.782,9.213,45,7.071C109.643,10.81,120.306,5.8,120.306,5.8"/></svg>