<svg id="word" xmlns="http://www.w3.org/2000/svg" viewBox="0 0 160 160"><defs><style>.cls-1{fill:#f2869d;}.cls-1,.cls-10,.cls-11,.cls-2,.cls-3,.cls-4,.cls-5,.cls-6,.cls-7,.cls-8,.cls-9{stroke:#9d4b9c;stroke-miterlimit:10;}.cls-1,.cls-2,.cls-3,.cls-4,.cls-5,.cls-6,.cls-7,.cls-8,.cls-9{stroke-width:1.085px;}.cls-2{fill:#da4c73;}.cls-3{fill:#d293c0;}.cls-4{fill:#75cac3;}.cls-5{fill:#009599;}.cls-10,.cls-6{fill:#fff357;}.cls-7{fill:#b7d565;}.cls-8{fill:#6b9c51;}.cls-9{fill:#8bc53f;}.cls-10,.cls-11{stroke-width:1.377px;}.cls-11{fill:#bcc052;}</style></defs><polygon class="cls-1" points="117.523 68.023 117.523 93.821 141 86.104 141 62.364 117.523 68.023"/><polygon class="cls-2" points="99.804 60.159 99.804 86.324 117.523 93.821 117.523 68.023 99.804 60.159"/><polygon class="cls-3" points="99.804 60.159 121.481 55.177 141 62.364 117.523 68.51 99.804 60.159"/><polygon class="cls-4" points="69.794 59.999 97.587 77.595 101.71 53.084 75.61 36.814 69.794 59.999"/><polygon class="cls-5" points="51.337 73.153 77.548 89.748 97.587 77.595 69.794 59.999 51.337 73.153"/><polygon class="cls-6" points="51.986 73.452 57.984 50.371 76.259 37.113 70.443 60.298 51.986 73.452"/><polygon class="cls-7" points="38.691 76.755 38.795 103.527 66.307 97.928 66.207 72.072 38.691 76.755"/><polygon class="cls-8" points="16.323 69.291 17.984 95.827 38.795 103.527 38.691 76.755 16.323 69.291"/><polygon class="cls-9" points="16.323 69.291 41.236 63.281 66.207 72.072 38.691 76.755 16.323 69.291"/><polygon class="cls-10" points="105.368 87.841 105.479 121.183 133.631 111.331 133.263 80.157 105.368 87.841"/><polygon class="cls-11" points="79.525 79.252 79.63 110.697 105.479 121.183 105.368 87.841 79.525 79.252"/><polygon class="cls-10" points="79.525 79.252 107.433 71.781 133.263 80.157 105.368 87.841 79.525 79.252"/></svg>