<svg id="word" xmlns="http://www.w3.org/2000/svg" viewBox="0 0 160 160"><defs><style>.cls-1{fill:#f28c59;}.cls-2{fill:#fbb03b;}.cls-3{fill:#ffdf39;}.cls-4{fill:#a87c4f;}</style></defs><path class="cls-1" d="M48.44,73.74a78.652,78.652,0,0,0-4.771,9.384c-2.386,5.539-3.369,19.231,5.192,27.077s15.859,5.692,20.35,5.692,10.385-2,12.49-4.462a9.2,9.2,0,0,1,5.052-2.923l-3.087-1.077a7.634,7.634,0,0,0,6.034-3.846c2.386-3.846,2.807-6.153,3.228-6.461s-3.789.154-3.789.154a44.376,44.376,0,0,0,5.894-3.692c3.649-2.616,3.509-7.231,4.211-9.385s3.227-2.615,5.192-3.846,2.947-5.384,5.333-7.538a21.279,21.279,0,0,1,5.333-3.385l-6.315,1.539s8.7-3.077,9.122-6.616-.14-3.076.982-7.538,4.772-8,6.456-9.692,5.473-8.769,4.35-7.846-1.964,1.539-2.385,1.385,1.122-4.462,5.052-8.769,8.28-8.769,7.3-9.231-2.246-.308-.281-2S156.5,8.2,157.2,7.126s-8.7,5.077-10.666,6-5.192,4.154-3.929,1.692,7.578-7.077,4.771-6.615-4.912,5.231-9.823,7.538a22.354,22.354,0,0,0-7.579,6c-.421.308,1.825-2,2.1-4.923s-4.631,4-9.543,6.461-9.964,8.616-9.964,8.616,1.824-3.077,2.666-4.769-3.227,1.692-5.192,3.384-5.333,5.538-6.737,6.769-1.964,3.385-3.368,3.385-2.245.769-.7-1.693,1.824-4.153-.421-1.846S93.77,42.2,91.1,43.279s-7.3,6.308-7.3,6.308,3.509-3.846,2.667-4.616S82.4,47.894,81.28,49.74s-1.4,4.308-5.052,6.769-5.053,3.539-6.6,3.385,4.771-4.154,2.806-5.077-5.894,1.846-8.981,3.539S57.7,61.74,57.141,62.817L54.9,67.125a7.639,7.639,0,0,1-1.825-1.846c-.7-1.077.281,1.23-.842,2.923S48.44,73.74,48.44,73.74Z"/><path class="cls-2" d="M47.576,84.135a59.887,59.887,0,0,0-3.209,6.9c-1.6,4.073-2.265,14.142,3.492,19.912s10.666,4.187,13.687,4.187,6.984-1.471,8.4-3.281a6.033,6.033,0,0,1,3.4-2.15l-2.076-.792a5.047,5.047,0,0,0,4.058-2.828c1.605-2.829,1.888-4.526,2.171-4.752s-2.548.113-2.548.113a29.483,29.483,0,0,0,3.964-2.715c2.454-1.924,2.36-5.318,2.832-6.9S83.916,89.905,85.237,89s1.982-3.96,3.587-5.544a14.132,14.132,0,0,1,3.586-2.489L88.163,82.1s5.852-2.262,6.135-4.864-.094-2.263.661-5.544,3.209-5.883,4.342-7.128,3.681-6.449,2.926-5.77-1.322,1.132-1.605,1.018.755-3.281,3.4-6.448,5.569-6.449,4.908-6.789-1.51-.226-.188-1.47,11.515-9.165,11.987-9.957-5.852,3.734-7.174,4.413-3.492,3.054-2.642,1.244,5.1-5.2,3.209-4.865-3.3,3.847-6.607,5.544a15.438,15.438,0,0,0-5.1,4.412,9.443,9.443,0,0,0,1.415-3.62c.189-2.15-3.114,2.942-6.418,4.752s-6.7,6.336-6.7,6.336,1.228-2.263,1.794-3.508-2.171,1.245-3.493,2.489-3.586,4.073-4.53,4.978S83.16,59.81,82.217,59.81s-1.511.566-.472-1.244,1.227-3.055-.284-1.358-3.4,3.734-5.191,4.526-4.908,4.638-4.908,4.638,2.36-2.828,1.793-3.394-2.737,2.15-3.492,3.507-.944,3.168-3.4,4.979-3.4,2.6-4.436,2.489,3.209-3.055,1.887-3.734-3.964,1.358-6.04,2.6-3.87,2.489-4.248,3.281l-1.51,3.168a5.374,5.374,0,0,1-1.227-1.358c-.472-.792.189.9-.566,2.15S47.576,84.135,47.576,84.135Z"/><path class="cls-3" d="M77.5,57.661s8.023-10.183,9.816-11.2.284,1.7-.566,2.6S77.4,58.113,77.4,58.113Z"/><path class="cls-3" d="M89.768,48.949s6.607-7.919,8.4-9.616,3.021-2.942,3.115-.906-1.416,2.829-2.926,3.621S89.768,48.949,89.768,48.949Z"/><path class="cls-3" d="M105.814,56.416s8.117-10.408,10.1-12.332,9.628-10.408,10.477-8.938S105.814,56.416,105.814,56.416Z"/><path class="cls-3" d="M94.959,81.193s12.082-15.386,12.837-15.16.377,3.62-1.982,5.657S94.959,81.193,94.959,81.193Z"/><path class="cls-3" d="M51.54,82.212a24.789,24.789,0,0,1,4.437-2.15,58.437,58.437,0,0,0,7.456-2.828c1.888-.906,1.227-2.15,2.36,0s6.7-3.395,9.533-6a115.387,115.387,0,0,1,11.044-8.6c1.415-.792-.755.452-1.416,1.923s-4.153,5.657-3.3,5.883S93.543,59.132,96.092,58s-2.171,4.073-3.3,5.318-4.625,4.638-5.946,6.109S82.5,72.6,84.293,72.821s3.776-1.357,2.926.34S84.1,77.007,84.01,78.139s2.454.905,2.36,1.244a44.7,44.7,0,0,1-3.4,5.883,19.319,19.319,0,0,0-4.437,6.562c-1.793,4.186-3.964,7.467-5.663,10.635s-1.793,5.431-3.587,6.675-3.964,1.81-3.87,2.489.567,1.584-3.02,1.584-9.722-1.244-10.949-2.6S43.9,100.766,45.5,94.091A32.259,32.259,0,0,1,51.54,82.212Z"/><path class="cls-4" d="M60.035,83.23s-8.4,1.244-9.344,2.828-4.059,3.508-3.492,5.091.471.906.377,3.508-.472,4.186.094,5.77,1.228,2.149,1.888,4.073.378,3.394,1.038,3.62.189-.339,1.133.453a27.618,27.618,0,0,0,3.021,1.7c1.038.678,3.586,1.131,4.341.339s1.794-2.15,1.794-2.15,5.852.679,7.079.566,2.171-5.657,2.832-7.806,1.415-5.544.472-7.354.283-3.281-1.133-6S64.188,81.193,60.035,83.23Z"/></svg>