<svg id="word" xmlns="http://www.w3.org/2000/svg" viewBox="0 0 160 160"><defs><style>.cls-1{fill:#c4c5c7;}.cls-1,.cls-10,.cls-2,.cls-3,.cls-4,.cls-7,.cls-9{stroke:#9d4b9c;stroke-miterlimit:10;stroke-width:0.542px;}.cls-2,.cls-5,.cls-8{fill:#fff;}.cls-3{fill:#cccecf;}.cls-4{fill:#b1b3b5;}.cls-6{fill:#9d4b9c;}.cls-7{fill:#4993cf;}.cls-8{opacity:0.39;}.cls-9{fill:#fff365;}.cls-10{fill:#ec1c24;}</style></defs><path class="cls-1" d="M98.537,32.839s9.063,4.13,10.9,8.948,3.1,20.651,2.868,29.485,2.18,11.014-1.951,14.8S94.292,92.84,93.374,92.611s-32.008-.574-33.385-.688-2.18-4.475-2.639-9.293S56.662,63.241,56.2,57.505,55.285,40.3,58.842,37.887,69.855,32.38,80.525,32.38,98.537,32.839,98.537,32.839Z"/><path class="cls-2" d="M60.1,77.582s1.721,19.044,1.95,21.912,2.18,10.67,2.18,14.341.344,14.456.344,14.456a24.515,24.515,0,0,1-5.048.8c-2.065,0-7,.229-7.916,4.359s-2.18,9.064,1.032,11.014,20.651,2.639,22.372,2.294,7.342-1.032,8.6-5.048,1.951-6.654.23-9.178-2.639-3.786-2.639-3.786l-2.18-16.864-.8-13.423,4.13.688s2.18,10.67,3.1,12.964,4.474,18.242,4.36,21-2.41,15.832-.574,18.7,7.916,3.557,13.193,3.327,7.228-.8,8.605-3.1-1.262-11.014-1.262-11.014l-4.7-9.063s-3.9-25.584-4.015-27.534-2.868-13.079-2.868-13.079,2.524-3.9,2.179-7-2.7-7.658-2.7-7.658-18.557,2.38-19.36,2.151S60.1,77.582,60.1,77.582Z"/><path class="cls-2" d="M62.169,86.989s4.933,2.639,7.457,5.966,6.425,4.589,8.6,5.507a9.007,9.007,0,0,0,4.13.688"/><path class="cls-3" d="M83.508,103.4a53.833,53.833,0,0,0,8.375.8c4.015,0,8.489-3.442,8.489-3.442l.689,3.672a19.536,19.536,0,0,1-7.343,2.868,23.086,23.086,0,0,1-9.522-.8Z"/><path class="cls-4" d="M89.588,114.065s.459,8.03,1.721,8.489,7.457.918,8.6-1.376a10.072,10.072,0,0,0,.574-6.425c-.344-1.147-2.294-2.18-4.818-2.065A26.6,26.6,0,0,0,89.588,114.065Z"/><path class="cls-4" d="M63.545,115.556s-1.376-1.721.689-1.721,5.965-.918,5.965.8.8,6.31.115,7.457-6.424,1.033-6.654.115S63.545,115.556,63.545,115.556Z"/><path class="cls-3" d="M62.054,102.936s3.442,2.409,6.31,2.295,10.325-2.18,10.325-2.18l.23,3.212s-6.081,1.721-10.1,1.492a9.718,9.718,0,0,1-6.195-2.524Z"/><path class="cls-5" d="M51.843,139.648s7.6,3.433,13.538,4.016c11.989,1.176,17.668-3.471,17.668-3.471"/><path class="cls-6" d="M51.843,139.648a80.734,80.734,0,0,0,7.694,2.588,32.659,32.659,0,0,0,7.948,1.306,33.14,33.14,0,0,0,8.036-.525,23.029,23.029,0,0,0,3.894-1.054,16.127,16.127,0,0,0,3.634-1.77,18.74,18.74,0,0,1-7.443,3.233,31.509,31.509,0,0,1-8.145.657,31.17,31.17,0,0,1-8.04-1.448A53.948,53.948,0,0,1,51.843,139.648Z"/><path class="cls-5" d="M89.818,147.22s-1.119,2.324,6.912,3.127,10.87-.6,11.788-1.865,1.835-2.753,1.835-2.753"/><path class="cls-6" d="M89.818,147.22a1.236,1.236,0,0,0,.549,1.255,4.629,4.629,0,0,0,1.285.68,14.206,14.206,0,0,0,2.864.68,46.3,46.3,0,0,0,5.906.467,18.739,18.739,0,0,0,5.828-.6c2.025-.405,2.846-2.458,4.1-3.973-.5.86-1.03,1.7-1.546,2.56a4.367,4.367,0,0,1-2.422,1.807,17.924,17.924,0,0,1-5.972.748,39.991,39.991,0,0,1-5.969-.6,14.279,14.279,0,0,1-2.893-.844,4.846,4.846,0,0,1-1.279-.818A1.265,1.265,0,0,1,89.818,147.22Z"/><path class="cls-2" d="M63.316,37.313s-2.18-10.9-1.95-18.7S70.257,5.19,79.091,4.846s16,3.212,18.643,8.26,1.491,24.551,1.491,24.551-12.276-1.376-19.5-1.262-16.406,2.41-16.406,2.41Z"/><path class="cls-7" d="M65.324,32.036s-1.549-5.851.057-10.784A13.9,13.9,0,0,1,77.2,11.844C82.59,11.5,87.982,11.5,90.85,14.483s3.327,11.243,3.327,15.947-3.04,3.5-5.793,3.5-21.512.172-21.512.172Z"/><path class="cls-8" d="M74.33,14.827s-4.131-.688-5.622,1.836-3.556,4.244-.115,4.13S76.28,16.548,74.33,14.827Z"/><path class="cls-8" d="M89.932,29.856s-4.474,1.721-2.753,2.983,3.212,1.147,3.671-.459S91.768,29.741,89.932,29.856Z"/><path class="cls-2" d="M62.4,41.214s-5.392.229-6.195,2.065-4.13,2.983-5.392,3.556-9.178,3.1-9.178,3.1l-1.147-.574-1.492.8s1.377-2.868,0-3.556-2.409,1.262-2.409,1.262a89.3,89.3,0,0,1-9.063.229C25,47.868,22.7,43.623,22.7,43.623s-3.442-1.032-2.294,3.671,2.753,5.622,3.1,5.507,5.163,10.44,12.161,11.817S58.5,59,58.5,59s1.951-11.816,2.066-13.308S64.119,42.361,62.4,41.214Z"/><path class="cls-2" d="M61.136,41.9S57.465,59.226,58.5,63.7a44.489,44.489,0,0,1,1.033,8.834s-1.721-.172-1.262,3.04a4.424,4.424,0,0,0,3.786,3.614,158.4,158.4,0,0,1,16.635.8c8.834.918,15.546.4,18.3-1.663s2.581-3.27,2.237-5.335a3.8,3.8,0,0,0-1.606-2.754l1.262-30.746a6.547,6.547,0,0,0-3.1-1.606c-1.835-.344-20.421,0-25.469.573a29.908,29.908,0,0,0-9.522,2.983Z"/><path class="cls-2" d="M62.857,37.313s-2.065,2.409-1.262,3.212,4.13-.114,9.981-.917,14.685-1.262,15.947-.8,10.67,2.179,10.67,2.179,3.441,1.148,2.409-1.262S95.1,36.166,86.261,35.363s-20.421,0-22.945,1.95S62.857,37.313,62.857,37.313Z"/><path class="cls-3" d="M88.785,64.962s-.912.371.158,1.836c1.635,2.237,2.581.43,2.581.43s1.85.832,1.506,1.979a2.9,2.9,0,0,1-2.452,1.979c-.564.1-3.17.315-3.743-.947a32.839,32.839,0,0,1-1.262-4.015Z"/><path class="cls-2" d="M96.7,41.787s4.761-2.81,6.138-.631.975,1.435,3.5,4.532,1.606,1.721,2.3,1.721,1.032.918,1.032.918.344-.918.8-.689-.688.115.459.23,1.606.229,1.95-.23,2.3-1.491,2.3-1.95.344-3.786,1.262-3.786h2.18s-2.41,4.589.688,8.375,9.637,3.557,9.637,3.557a2.016,2.016,0,0,1-1.032,2.868,4.122,4.122,0,0,1-3.557.459s-.688,5.048-8.6,5.162a21.882,21.882,0,0,1-14.456-4.7c-1.606-1.377-3.327-2.983-3.327-2.983S94.521,44.2,96.7,41.787Z"/><path class="cls-2" d="M119.743,51.913s-3.145-2.887-3.118-5.108,1.764-3.651,1.835-5.814-.976-7.676.61-8.35,2.88.526,3.109,2.365a25.831,25.831,0,0,0,1.356,4.726s.691.658,1.5-.427,3.781-8.873,5.177-9.676,1.892-.636,2.256.549-4.456,9.3-3.562,9.987,10.144-9.294,11.442-7.731.178,3.436-1.385,4.734-6.591,4.995-6.169,6.135,11.666-6.254,12.648-3.438-6.852,5.012-7.024,5.145-3.47.846-3.327,1.744,9.321-.506,9.607,1.289-4.833,3-7.645,3.152-4.811.415-4.811.415-2.6,3.75-5.014,3.594A11.471,11.471,0,0,1,119.743,51.913Z"/><path class="cls-2" d="M32.971,49.726s4.2-.747,5.372-2.634.474-4.027,1.575-5.89,4.945-5.951,3.969-7.372-2.712-1.1-3.892.326a25.894,25.894,0,0,1-3.682,3.258s-.936.184-1.039-1.167S36.85,26.731,36.1,25.3s-1.254-1.552-2.2-.748S32.668,34.8,31.547,34.894s-3.566-13.288-5.5-12.666-2,2.8-1.374,4.737,2.878,7.753,1.909,8.488-6.482-11.54-8.822-9.692,3.088,7.908,3.162,8.112,2.473,2.577,1.871,3.258-7.593-5.433-8.8-4.072,2.468,5.124,4.757,6.765,3.836,2.933,3.836,2.933.183,4.562,2.3,5.725A11.471,11.471,0,0,0,32.971,49.726Z"/><path class="cls-2" d="M87.408,45.573S80.64,45,75.247,44.656s-10.9-.574-12.275,1.606S61.939,55.784,61.939,59s-.8,4.016.918,7,12.849,1.032,15.029,1.032a51.233,51.233,0,0,0,9.981-.918,6.082,6.082,0,0,0,4.245-3.671c.344-1.147.344-10.44.344-11.7S87.408,45.573,87.408,45.573Z"/><path class="cls-9" d="M69.626,47.524s-5.392-1.033-5.736.8a35.711,35.711,0,0,0-.459,4.015s11.816.689,11.931-.229.459-4.13.459-4.13Z"/><path class="cls-9" d="M68.593,54.178s-4.474-1.262-4.474.459-.344,9.063.459,9.292,4.245,1.033,4.474-.114S69.511,54.751,68.593,54.178Z"/><ellipse class="cls-10" cx="83.049" cy="50.507" rx="3.442" ry="3.212"/><ellipse class="cls-9" cx="78.861" cy="58.078" rx="2.122" ry="2.409"/><ellipse class="cls-9" cx="83.68" cy="60.66" rx="2.581" ry="2.467"/><ellipse class="cls-10" cx="82.934" cy="50.449" rx="1.95" ry="1.893"/><path class="cls-6" d="M23.4,52.434a5.556,5.556,0,0,0,3.2.954,21.747,21.747,0,0,0,3.4-.215,25.888,25.888,0,0,0,6.583-1.85,14.809,14.809,0,0,1-3.115,1.547,16.551,16.551,0,0,1-3.394.84,15.187,15.187,0,0,1-3.5.093A4.881,4.881,0,0,1,23.4,52.434Z"/><path class="cls-6" d="M124.166,57.04c-.987-.442-1.949-.937-2.906-1.441s-1.9-1.034-2.842-1.57a11.784,11.784,0,0,1-2.705-1.866,5.437,5.437,0,0,1-1.091-3.09,6.608,6.608,0,0,0,1.392,2.8,16.533,16.533,0,0,0,2.685,1.69c.929.545,1.858,1.09,2.766,1.673S123.285,56.4,124.166,57.04Z"/><path class="cls-6" d="M90.388,67.5a1.249,1.249,0,0,1,.582-1.353,1.845,1.845,0,0,1,1.584-.082,2.969,2.969,0,0,1,1.25.982,5.354,5.354,0,0,1,.771,1.356,2.823,2.823,0,0,1-.5,3.031,1.828,1.828,0,0,1-1.49.537,1.5,1.5,0,0,1-1.221-.853,1.547,1.547,0,0,0,2.407.03,2.526,2.526,0,0,0,.294-2.557,4.049,4.049,0,0,0-1.676-2.144,1.524,1.524,0,0,0-1.3-.067A1.172,1.172,0,0,0,90.388,67.5Z"/></svg>