<svg id="word" xmlns="http://www.w3.org/2000/svg" viewBox="0 0 160 160"><defs><style>.cls-1{fill:#48843e;}.cls-2{fill:#89c182;}.cls-11,.cls-13,.cls-14,.cls-17,.cls-18,.cls-2,.cls-3,.cls-4,.cls-5,.cls-6,.cls-7{stroke:#9d4b9c;}.cls-11,.cls-13,.cls-14,.cls-2,.cls-3,.cls-4,.cls-5,.cls-6,.cls-7{stroke-width:0.567px;}.cls-3,.cls-9{fill:#6db164;}.cls-4{fill:#bab84b;}.cls-17,.cls-18,.cls-4,.cls-5,.cls-6{stroke-miterlimit:10;}.cls-5{fill:#59a04e;}.cls-6{fill:#7dbd74;}.cls-12,.cls-7{fill:#a9712b;}.cls-8{fill:#92c07b;}.cls-10,.cls-13{fill:#569845;}.cls-11,.cls-14{fill:none;}.cls-13,.cls-14{stroke-linecap:round;}.cls-15{fill:#bad28f;}.cls-15,.cls-16{opacity:0.52;}.cls-16{fill:#d1dca8;}.cls-17{fill:#abd3e3;}.cls-17,.cls-18{stroke-width:0.5px;}.cls-18{fill:#eecb95;}</style></defs><path class="cls-1" d="M20.527,48.621s5.95-3.166,8.419-1.963,3.545,1.709,3.545,1.709,3.925-2.342,5-1.2,5.254-1.14,7.153-.95S48,48.367,48.253,48.621s.254,1.076.254,1.076.633-1.14,1.392-.633.127,2.152.127,2.152.57-.823,1.393.253a1.876,1.876,0,0,1,.189,2.089s-2.215,3.229,1.33,3.165,4.747,1.963,5.57,3.482,4.178,2.849,5.508,4.558a4.036,4.036,0,0,1,.823,3.418s-8.8.7-10,.633-5.444-.76-8.229-1.2-9.053-1.456-10.572-1.519-12.787-.7-12.787-.7l-3.1.126Z"/><path class="cls-2" d="M22.553,51.343s2.025.253,2.532-.127S23.565,54,25.4,55.267s2.849.76,2.849.76-.317,2.216,2.469,3.1,3.545-.443,3.545-.443a5.711,5.711,0,0,0,3.481.506,5.763,5.763,0,0,0,2.722-2.216,3.57,3.57,0,0,0,3.1-.253c1.456-.949,1.709-4.241,1.709-4.241l-.19-.823a2.221,2.221,0,0,0,.317-2.279,7.131,7.131,0,0,0-1.646-1.836s.886-2.025-.19-3.291A5.106,5.106,0,0,0,41.48,42.67a4.231,4.231,0,0,0-2.532-3.228,12.881,12.881,0,0,0-7.153-.38,16.2,16.2,0,0,0-3.1,1.772,9.545,9.545,0,0,0-5.317,1.393C21.033,43.81,18.311,48.431,22.553,51.343Z"/><path class="cls-3" d="M36.669,58.5s-1.456,1.582.38,3.671a5.444,5.444,0,0,0,4.621,1.646,2.679,2.679,0,0,0,2.152.823c1.33-.127,1.836-.19,1.836-.19a5.811,5.811,0,0,0,2.152-.063c1.266-.253,1.456-.823,1.456-.823A11.846,11.846,0,0,0,51.482,64c.7,0-.063.506,1.329,1.266a5.537,5.537,0,0,0,3.545.127,1.1,1.1,0,0,0,1.013,1.076,6.235,6.235,0,0,0,1.709,0s-.7.443,3.229,1.266S69.4,65.712,69.143,64s-2.975-2.469-2.975-2.469-.19-1.519-.95-1.962.823-2.659-.126-3.229-1.456-.886-1.456-.886a1.84,1.84,0,0,0-1.709-2.405c-2.279-.19-2.532-.19-2.532-.19a2.793,2.793,0,0,0-1.963-.823,7.8,7.8,0,0,0-2.595.38,4.475,4.475,0,0,0-3.545.443c-1.456,1.076-2.216,1.582-2.216,1.582s-2.215-1.139-3.735.254-2.848.633-5.064.886S36.669,58.5,36.669,58.5Z"/><path class="cls-3" d="M63.525,55.327a4.4,4.4,0,0,1-1.983,4.553"/><path class="cls-3" d="M54.473,52.375a7.243,7.243,0,0,1,3.7,3.093"/><path class="cls-4" d="M20.021,64.953s8.292-.633,11.964-.38S42.936,65.965,44.9,66.409s8.04,2.4,10.319,2.4,9.622-.76,13.293-.95,6.077.95,8.525.95a21.067,21.067,0,0,1,7.849,1.857c2.955,1.182,4.558,2.11,7.09,2.11s18.063.169,18.063.169l.486,2.224a36.807,36.807,0,0,0-12.641-.367c-3.016.4-77.65-.169-77.65-.169Z"/><path class="cls-5" d="M91.362,67.928s-.379-2.026,1.33-2.279,2.025-.253,2.025-.253a1.991,1.991,0,0,1,2.343-1.583,9.252,9.252,0,0,1,3.228.95s.077-1.45,1.836-.7a2.774,2.774,0,0,1,1.772,2.912s1.773-1.329,2.406-.063a4.926,4.926,0,0,1,.633,1.646s2.722-1.266,4.431.19a5.51,5.51,0,0,1,1.962,2.848l-6.2,2.279s-9.749-.886-12.534-.759S91.362,67.928,91.362,67.928Z"/><path class="cls-6" d="M80.348,69.32s2.279-1.519,3.228-.759l.95.759s.7-1.392,1.835-1.2l1.14.19s-.063-1.077.886-.95l.95.127a2.38,2.38,0,0,1,1.519.063c.76.316,1.329-1.076,2.469.57s.443,2.468.443,2.468,1.266-.886,1.772.064a5.14,5.14,0,0,1,.254,2.595s-4.052.317-5.824-.253-4.811-1.9-5.7-2.152S80.348,69.32,80.348,69.32Z"/><path class="cls-7" d="M112.542,72.22s-.1-4.834-.1-5.752a40.679,40.679,0,0,0-1.18-4.986l2.886-4.4.525.853.262,4.658,2.69-2.624.525.656s-2.573,1.507-2.77,3.737.973,7.779.973,7.779Z"/><path class="cls-8" d="M106.11,52.642c2.244.449,3.067-3.066,4.488-2.131s3.627,2.767,4.375,1.346.486-2.655,2.356-1.047,4.43-.1,4.75-.486c.777-.942.4-2.329.01-3.227a1.557,1.557,0,0,0-1.207.01.581.581,0,0,0-.524-.86,5.736,5.736,0,0,0-1.72.075s.075-1.421-.673-1.571a15.867,15.867,0,0,0-2.954.113s-.973-.748-1.534-.412a3.854,3.854,0,0,0-1.047,1.309s-1.234-.262-1.758.225a3.849,3.849,0,0,0-.673.747,2.826,2.826,0,0,0-2.917.3,7.836,7.836,0,0,0-2.224,2.027C104.663,50.368,104.627,52.346,106.11,52.642Z"/><path class="cls-9" d="M127.8,55.41c-.412-2.506-3.89-3.254-3.89-3.254s-.112-1.084-.636-1.384.711-1.757-.3-2.991a2.192,2.192,0,0,0-.887-.684c.387.9.767,2.285-.01,3.227-.32.387-2.88,2.094-4.75.486s-1.608-.374-2.356,1.047-2.954-.411-4.375-1.346-2.244,2.58-4.488,2.131c-1.483-.3-1.447-2.274-1.252-3.582a5.889,5.889,0,0,0-.394.59s-3.665.412-4.375,2.88-.711,3.029-.374,4.413a3.067,3.067,0,0,0,1.021,1.36,9.1,9.1,0,0,0,3.8.959c2.132-.075,2.543,1.009,3.815,1.009s2.356-.149,1.346-1.084-2.618-2.02-1.159-2.281,4,1.383,5.871.561,5.348-3.179,4.974-1.833-2.169,3.1-.374,3.029,3.1-1.159,3.216-.561a.927.927,0,0,0,1.608.412c.748-.636,1.87-1.2,1.459-.038s-.037,1.945.71,1.683c.231-.08.489-.189.737-.3A6.9,6.9,0,0,0,127.8,55.41Z"/><path class="cls-10" d="M125.3,58.476c.411-1.159-.711-.6-1.459.038a.927.927,0,0,1-1.608-.412c-.112-.6-1.421.487-3.216.561s0-1.683.374-3.029-3.1,1.01-4.974,1.833-4.413-.823-5.871-.561.149,1.346,1.159,2.281-.075,1.084-1.346,1.084-1.683-1.084-3.815-1.009a9.1,9.1,0,0,1-3.8-.959,15.65,15.65,0,0,0,2.607,1.744s-1.048.561.186,1.982a4.225,4.225,0,0,0,2.843,1.459s.112.561,1.383.935a2.5,2.5,0,0,0,2.543-1.272,2.087,2.087,0,0,0,.075-.449,1.335,1.335,0,0,0,1.421-.411,2.691,2.691,0,0,0,.674-1.683,1.607,1.607,0,0,0,.972-.711,2.006,2.006,0,0,0,.449-1.009l.785-.225.075,3.777,1.608.561s-.112.674.935.711a3.185,3.185,0,0,0,1.982-.86s.374.673,1.571.187a2.721,2.721,0,0,0,1.533-1.384,5.858,5.858,0,0,0,3.44-.785,4.4,4.4,0,0,0,.924-1.013c-.248.113-.506.222-.737.3C125.258,60.421,124.884,59.636,125.3,58.476Z"/><path class="cls-11" d="M103.342,60.047s-1.047.561.187,1.982a4.223,4.223,0,0,0,2.843,1.459s.112.561,1.383.935a2.5,2.5,0,0,0,2.543-1.272,2.087,2.087,0,0,0,.075-.449,1.335,1.335,0,0,0,1.421-.411,2.694,2.694,0,0,0,.673-1.683,1.607,1.607,0,0,0,.973-.711,2.006,2.006,0,0,0,.449-1.009l.785-.225.075,3.777,1.608.561s-.112.674.935.711a3.185,3.185,0,0,0,1.982-.86s.374.673,1.57.187a2.721,2.721,0,0,0,1.534-1.384,5.858,5.858,0,0,0,3.44-.785,6.446,6.446,0,0,0,1.982-5.46c-.411-2.506-3.889-3.254-3.889-3.254s-.112-1.084-.636-1.384.711-1.757-.3-2.991a1.712,1.712,0,0,0-2.094-.674.582.582,0,0,0-.524-.86,5.736,5.736,0,0,0-1.72.075s.075-1.421-.673-1.571a15.879,15.879,0,0,0-2.955.113s-.972-.748-1.533-.412a3.854,3.854,0,0,0-1.047,1.309s-1.234-.262-1.758.225a3.849,3.849,0,0,0-.673.747,2.826,2.826,0,0,0-2.917.3,7.753,7.753,0,0,0-2.618,2.617s-3.665.412-4.375,2.88-.711,3.029-.374,4.413S103.342,60.047,103.342,60.047Z"/><path class="cls-12" d="M114.225,62.16s.673.037,1.122-.935a25.7,25.7,0,0,1,1.833-2.88l.561,1.347s-1.5,2.468-1.8,3.029-.673,1.309-.673,1.309a.5.5,0,0,1-.748-.412C114.412,62.908,114.225,62.16,114.225,62.16Z"/><path class="cls-13" d="M112.038,57.414a1.67,1.67,0,0,0,.748.971,2.622,2.622,0,0,0,3.558-.647"/><path class="cls-13" d="M117.306,57.344a1.54,1.54,0,0,0-.087,1.106,3.976,3.976,0,0,0,.478,1.026,1.934,1.934,0,0,0,.468.581,1.845,1.845,0,0,0,.592.258,10.333,10.333,0,0,0,1.751.346"/><path class="cls-14" d="M104.52,49.545a2.109,2.109,0,0,0-.366.95,8.805,8.805,0,0,1-.188,1.01"/><path class="cls-14" d="M109.887,46.649a2.46,2.46,0,0,1,1.249.99"/><path class="cls-14" d="M123.176,50.291a4.149,4.149,0,0,1-1.184,2.129"/><path class="cls-14" d="M103.268,59.954a1.743,1.743,0,0,0,1,.251,8.688,8.688,0,0,1,1.046.006"/><path class="cls-7" d="M33.314,64.826a58.4,58.4,0,0,0-.063-6.583c-.253-.76-1.33-4.432-1.33-4.432l1.14-.253s.253,3.165.823,2.849a11.481,11.481,0,0,0,1.836-2.153l1.012-.063s-2.089,2.279-2.089,3.165.064,7.6.064,7.6A1.586,1.586,0,0,1,33.314,64.826Z"/><path class="cls-2" d="M25.338,45.962a4.845,4.845,0,0,0,.19,5.444c1.962,3.038,4.684,2.469,5.76,2.532a8.469,8.469,0,0,0,2.786-.633s-.127,1.329,3.228,1.646,4.115-.57,4.115-.57"/><path class="cls-15" d="M56.9,54.791a8.325,8.325,0,0,0-2.581-1.982,4.547,4.547,0,0,0-3.141.636c-.3.374-1.945.486.149,1.683S57.381,55.315,56.9,54.791Z"/><path class="cls-15" d="M62.729,54.08s-1.16-.86-2.057-.523-.449,1.271.636,2.094A1.06,1.06,0,0,0,62.729,54.08Z"/><path class="cls-15" d="M41.749,55.988a7.53,7.53,0,0,0-2.768.9c-.673.6-2.244,1.16-1.084,2.207s5.759,1.72,5.647-.187A3.265,3.265,0,0,0,41.749,55.988Z"/><path class="cls-16" d="M39.71,41.571a5.121,5.121,0,0,0-2.973-2.076c-1.963-.448-6.675,0-6.4,1.459S38.2,45.442,39.654,44.6,39.71,41.571,39.71,41.571Z"/><path class="cls-3" d="M45.73,58.314a1.265,1.265,0,0,0-.173,1.146,3.031,3.031,0,0,0,.611,1.031,3.843,3.843,0,0,0,1.7,1.318"/><path class="cls-17" d="M20.021,73.6s54.1,1.036,70.256,1.372,20.867.337,24.905,4.712,7.7,1.429,19.857,6.058c7.25,2.762,15.247,8.932,13.246,17.826-.92,4.092-5.382,7.8-8.512,10.241-4.043,3.154-8.8,4.84-13.647,6.492-8.933,3.047-25.487,3.158-34.92,3.492-20.583.728-34.1.887-54.47-2.143q-5.536-.824-11.042-1.83c-2.412-.441-4.837-.459-5.548-3.131-.7-2.621-.125-6.015-.125-8.7V73.6Z"/><path class="cls-18" d="M70.07,74.352s24.628-.551,32.9,2.39,11.211,5.146,15.806,5.881,13.968,1.47,18.195,3.86a57.385,57.385,0,0,1,9.19,7.167,28.876,28.876,0,0,0-6.617-13.784c-5.514-6.065-14.336-9.741-20.584-9.741s-8.822-.735-14.887.184-17.644,3.676-20.585,3.124S70.07,74.352,70.07,74.352Z"/></svg>