<svg id="word" xmlns="http://www.w3.org/2000/svg" viewBox="0 0 160 160"><defs><style>.cls-1{fill:#006d8a;}.cls-1,.cls-4,.cls-5,.cls-6,.cls-9{stroke:#9b4d9c;}.cls-1,.cls-2,.cls-3,.cls-4,.cls-5,.cls-6,.cls-9{stroke-miterlimit:10;}.cls-1,.cls-2,.cls-4,.cls-5,.cls-6{stroke-width:0.716px;}.cls-2{fill:#d5ccb1;}.cls-2,.cls-3{stroke:#9b4b9c;}.cls-3,.cls-5,.cls-9{fill:none;}.cls-3{stroke-linecap:round;stroke-width:1.432px;}.cls-4{fill:#bebfc0;}.cls-6{fill:#885872;}.cls-7{fill:#9b4d9c;}.cls-8{fill:#9b4b9c;}.cls-9{stroke-width:0.701px;}</style></defs><path class="cls-1" d="M69.625,39.675s1.023-1.6,8.772-1.749a81.927,81.927,0,0,1,16.375,1.755l2.485,2.631-10.234,9.65L80.3,68.629,72.11,49.038l-6.563-7.164Z"/><path class="cls-2" d="M56.73,44.971a121.67,121.67,0,0,0,14.292-5.1c6.154-2.79,6.042-4.261,10.3-4.584s6.124,1.965,8.432,3.268,15.562,8.219,16.95,9.382,3.967,4.346,3.416,5.655-7.5-1.332-9.958-2.836-8.122-6.037-18.229-5.693-19.9,4.784-24.874,4.317S51.943,46.457,56.73,44.971Z"/><path class="cls-3" d="M77.655,23.634s-3.117-4.874,2.6-6.039c5.876-1.2,6.636,3.131,6.319,5.408S82.3,28.456,81.837,30.41a43.654,43.654,0,0,0-.729,4.9"/><path class="cls-4" d="M116.093,49.444s7.275,21.865,8.055,28.1,6.043,39.538,6.238,42.285,0,6.84-.974,7.424.194,2.535.194,2.535l.848,4.873-9.815,1.949-.974-6.627s-3.509.194-3.509-1.365-2.145-21.833-3.314-25.147-4.473-21.443-4.473-21.443-1.828-18.259,3.5-27.1a8.482,8.482,0,0,0,.521-7.207Z"/><path class="cls-5" d="M129.523,127.491a6.8,6.8,0,0,1-4.281,2.15c-1.317.134-2.66-.12-3.966.1"/><path class="cls-4" d="M64.508,42.458s-8.383,1.56-11.892,2.73A28.782,28.782,0,0,0,45.4,49.281a179.411,179.411,0,0,1,3.9,20.274c1.17,9.747,2.73,28.461,3.119,31.97s.2,13.45-.584,16.764,1.364,10.332.974,11.112a15.257,15.257,0,0,0-.779,2.339s3.119-1.17,5.653,4.678,9.552,9.357,15.4,9.942,8.382,0,8.382,0V128.036l1.755,18.584s14.23-1.234,17.934-3.379,2.144-9.942,4.289-12.086a19.042,19.042,0,0,1,6.043-3.509s-3.9-14.035-4.094-16.569-2.729-20.469-1.754-22.028a53.478,53.478,0,0,0,2.729-7.018s-.39-19.689,1.949-24.367a79.742,79.742,0,0,1,4.873-8.383s-12.476-6.433-13.84-6.823S96.088,40.7,96.088,40.7L81.662,54.74,80.3,65.461,77.374,50.646,67.627,40.7Z"/><path class="cls-5" d="M80.3,67.605s.779,18.33.974,24.565,2.729,13.058,1.56,21.246a117.886,117.886,0,0,0-1.114,15.6"/><path class="cls-4" d="M55.3,69.8H69.479s1.023,9.211,1.315,10.966a51.8,51.8,0,0,1,0,6.871H55.3Z"/><path class="cls-4" d="M89.655,69.8H103.69s1.17,11.258,1.17,12.574v3.363l-14.474.877Z"/><path class="cls-6" d="M84.708,47.727,81.662,54.74l7.993-2.925s2.191-3.621,0-4.852S84.708,47.727,84.708,47.727Z"/><path class="cls-4" d="M94.772,39.681s3.8-.147,5.555,1.023a28.583,28.583,0,0,1,3.476,2.847,2.692,2.692,0,0,0-1.867,3.147c.292,2.632-.585,4.971.877,6.433a17.635,17.635,0,0,1,2.047,2.34,20.613,20.613,0,0,1-6.141,0c-4.386-.439-8.333-1.609-9.064-3.656a25.009,25.009,0,0,0-2.047-4.145H85.122Z"/><path class="cls-4" d="M43.844,51.231c-1.6,3.509-7.212,20.078-7.992,26.316s-6.043,39.538-6.238,42.285,0,6.84.974,7.424-.194,2.535-.194,2.535l-.848,4.873,9.815,1.949.974-6.627s3.509.194,3.509-1.365,2.145-21.833,3.314-25.147,3.956-16.026,3.956-16.026-3.176-28.42-2.981-32.514a29.34,29.34,0,0,0-.521-7.207S45.448,47.722,43.844,51.231Z"/><path class="cls-5" d="M30.477,127.491a6.8,6.8,0,0,0,4.281,2.15c1.317.134,2.66-.12,3.966.1"/><path class="cls-6" d="M76.911,48.7l1.808,8.765-6.71-4.619s-1.978-3.621,0-4.853S76.911,48.7,76.911,48.7Z"/><path class="cls-4" d="M67.391,40.71s-3.431-.146-5.014,1.023a15.673,15.673,0,0,1-3.132,1.787,5.064,5.064,0,0,1,1.681,4.208c-.264,2.631.527,4.971-.792,6.433A17.364,17.364,0,0,0,58.287,56.5a16.807,16.807,0,0,0,5.541,0c3.959-.439,7.521-1.608,8.181-3.655A26.171,26.171,0,0,1,73.856,48.7H76.1Z"/><ellipse class="cls-7" cx="78.719" cy="69.23" rx="1.125" ry="1.17"/><ellipse class="cls-7" cx="78.719" cy="83.558" rx="1.125" ry="1.17"/><ellipse class="cls-7" cx="80.298" cy="99.478" rx="1.125" ry="1.17"/><ellipse class="cls-7" cx="81.423" cy="113.676" rx="1.125" ry="1.17"/><ellipse class="cls-7" cx="122.401" cy="132.682" rx="1.125" ry="1.17"/><ellipse class="cls-7" cx="37.599" cy="132.682" rx="1.125" ry="1.17"/><path class="cls-8" d="M128.06,7.828s-2.717-2.9-1.127-3.677,2.287,3.035,2.287,3.035.979-4.055,2.335-3.445c2.489,1.119-1.58,4.079-1.58,4.079s3.743-2.037,4.012.019-3.77.418-3.77.418,4.1,1.452,3.689,3.2-4.062-2.044-4.062-2.044,2.668,4,.669,4.126c-1.791.116-1.605-3.81-1.605-3.81s-1.044,4.242-2.768,3.3c-2.022-1.1,1.95-3.776,1.95-3.776s-4.659.982-4.124-1.335C124.408,6,128.06,7.828,128.06,7.828Z"/><path class="cls-8" d="M35.167,7.038s.284-3.962,1.935-3.324-.676,3.74-.676,3.74,3.642-2.033,4.115-.624c.868,2.587-4.068,1.609-4.068,1.609s4.037,1.366,2.71,2.959-2.866-2.484-2.866-2.484,1.717,4,.158,4.878-1.257-4.371-1.257-4.371-1.123,4.673-2.575,3.293c-1.3-1.237,1.708-3.765,1.708-3.765s-3.824,2.113-4.3.209c-.563-2.234,4.1-1.132,4.1-1.132s-3.884-2.754-1.819-3.934C34.027,3.118,35.167,7.038,35.167,7.038Z"/><path class="cls-9" d="M37.853,9.456c15.579,9.4,41.1,11.55,56.406,8.864C116.654,14.391,130.02,8.114,130.02,8.114"/></svg>