<svg id="word" xmlns="http://www.w3.org/2000/svg" xmlns:xlink="http://www.w3.org/1999/xlink" viewBox="0 0 160 160"><defs><style>.cls-1,.cls-10,.cls-11{fill:none;}.cls-2{clip-path:url(#clip-path);}.cls-3{fill:#a3805b;}.cls-10,.cls-11,.cls-12,.cls-13,.cls-14,.cls-15,.cls-16,.cls-17,.cls-3,.cls-4,.cls-5,.cls-6,.cls-7,.cls-9{stroke:#9b4d9c;stroke-width:1.261px;}.cls-10,.cls-12,.cls-13,.cls-14,.cls-15,.cls-16,.cls-17,.cls-3,.cls-4,.cls-5,.cls-6,.cls-7,.cls-9{stroke-miterlimit:10;}.cls-4,.cls-6{fill:#fde1d3;}.cls-5{fill:#f8ed3c;}.cls-10,.cls-11,.cls-6{stroke-linecap:round;}.cls-7{fill:#fff;}.cls-8{fill:#9b4d9c;}.cls-9{fill:#c1966a;}.cls-12{fill:#8ac340;}.cls-13{fill:#27b173;}.cls-14{fill:#27a8e0;}.cls-15{fill:#1487c9;}.cls-16{fill:#d4dc27;}.cls-17{fill:#824c9b;}</style><clipPath id="clip-path"><rect class="cls-1" x="14.5" y="13.5" width="132" height="132"/></clipPath></defs><g class="cls-2"><path class="cls-3" d="M67.035,42.853s-1,18.619,3.006,25.009S82.229,81.6,82.229,81.6a51.585,51.585,0,0,0,17.365,5.759c10.227,1.492,20.627-.145,22.286-.3s12.687-6.782,12.687-6.782L144.429,61.3s-17.953-.74-26.636-.74S67.035,42.853,67.035,42.853Z"/><path class="cls-4" d="M92.545,67.862s-.592,10.059-3.255,11.243-12.426-2.071-12.426-2.071-4.717,18.3,3.862,23.331,21.708-2.9,21.708-2.9l9.259-5.747s-8.5-3.663-6.131-7.8,4.911-8.655,4.911-8.655Z"/><path class="cls-5" d="M28.462,83.909c4.023,0,15.215,25.45,18.225,19.456A98.913,98.913,0,0,1,65.516,78.05s-12.239,49.042-15.871,49.871-12.13,2.959-12.426-4.438-8.757-24.414-8.757-24.414S24.439,83.909,28.462,83.909Z"/><path class="cls-4" d="M34.7,86.205s.444-1.634-2.219-2.3-2.514-.514-3.55-1.846-3.7-2.125-7.84-1.654S2.16,83.832,1.124,83.909s-5.917,1.7-4.142,3.775,14.2.148,14.054,1.036S7.189,91.087,5.562,93.6s-7.84,11.538-7.988,14.053.444,3.994,1.479,3.254,6.361-10.516,7.4-10.953,1.479.894.148,2.965S.533,114.756,2.012,116.827,8.521,108.1,10,106.176a14.32,14.32,0,0,1,3.4-3.107s-5.473,13.209-3.846,16.22,2.219,2.462,2.811,0,5.03-15.585,5.917-13.831-.74,9.889.444,11.221,2.219,2.514,2.663.443,1.775-9.911,2.367-10.946,3.254-2.663,4.881-3.994,4.494-7.249,6.093-9.764S34.7,86.205,34.7,86.205Z"/><path class="cls-4" d="M12.82,90.655c.026.353.44.521.785.6a18.6,18.6,0,0,0,11.262-.975,4.35,4.35,0,0,0,2.271-1.719"/><path class="cls-4" d="M9.184,95.115a12.429,12.429,0,0,1,1.953,2c2.5,2.9,5.691,5.573,9.5,5.911"/><path class="cls-4" d="M74.417,24.566s-3.4,18.292-1.276,26.8S91.859,70.51,97.176,74.126s8.508,2.978,18.506,1.276,28.289-9.571,29.991-16.591,7.87-27.864,4.041-37.223,1.7-17.016-17.654-18.08S89.094,9.464,85.478,13.931,74.417,24.566,74.417,24.566Z"/><path class="cls-5" d="M80.277,78.05s-8.147-7.525-13.472-1.608S53.2,101.294,49.941,110.761s-6.509,33.728-5.621,37.575.3,2.071-.148,7.988-3.4,5.029-1.036,6.509c0,0,2.367,1.479,16.864,1.479,10.983,0,40.237-1.479,40.237-1.479s-3.55-8.876-4.142-13.018-1.775-13.906,2.367-19.527,8.876-10.651,12.426-15.385S124.2,97.127,124.2,93.954s-16.275-5.393-16.275-5.393-4.677,7.087-11.178,8.522c-6.048,1.334-16.974.591-17.811-8.522A28.362,28.362,0,0,1,80.277,78.05Z"/><path class="cls-5" d="M124.2,93.954s11.194,13.128,14.269,14.311a4.746,4.746,0,0,0,5.811-2.367c.34-.986,4.953-5.917,4.953-5.917a10.3,10.3,0,0,0,3.417,5.917c2.905,2.367,6.663.4,6.663.4s-2.562,14.2-4.271,18.146-7.347,5.72-17.085.789-28.144-8.938-28.144-8.938Z"/><path class="cls-6" d="M105.386,47.475a3.056,3.056,0,0,1,5.087,1.357"/><path class="cls-7" d="M101.218,35.106s3.483-6.571-1.341-9.064-8.554,2.748-8.8,6.169S95.022,41.321,101.218,35.106Z"/><ellipse class="cls-8" cx="94.797" cy="29.671" rx="3.988" ry="3.01" transform="translate(10.82 82.726) rotate(-49.664)"/><path class="cls-7" d="M132.254,39.806s3.484-6.571-1.34-9.064-8.554,2.748-8.8,6.169S126.059,46.021,132.254,39.806Z"/><ellipse class="cls-8" cx="125.834" cy="34.371" rx="3.988" ry="3.01" transform="translate(18.185 108.042) rotate(-49.664)"/><path class="cls-9" d="M140.143,7.762s-8.721,14.039-18.08,16.8-23.4,4.041-27.865,3.19-4.679-2.339-4.679-2.339,8.934.212,15.1-2.127a57.125,57.125,0,0,0,11.7-6.382s-13.613,4.467-18.931,5.531-18.5,4.895-18.5,4.895,4.061-4.044,7.664-7.022,7.219-6.594,7.219-6.594-15.315,11.369-17.016,14.3-2.542,16.388-2.542,16.388-1.731,13.175-.668,18.752c1.272,6.679,9.669,14.893,9.669,14.893S71.7,78.188,66.972,71.7c-9.454-12.974-11.49-35.01-9.788-42.03a47.2,47.2,0,0,1,3.832-10.848L53.359,32.436S50.807,18.819,64.42,3.4s22.81-21.119,39.515-22.984c17.945-2,36.945,1.276,39.611,11.606a12.342,12.342,0,0,1-.123,3.755,17.734,17.734,0,0,1,13.1,6.029c7.363,8.4,6.168,21.7,6.168,31.906s-1.914,25.312-8.082,34.033-12.55,14.3-21.058,17.148-20.42,2.446-20.42,2.446,13.106-5.474,19.841-16.677,11.66-20.254,13.31-26.047c1.891-6.637,8.121-19.223,3.863-18.555C139.937,27.661,140.143,7.762,140.143,7.762Z"/><path class="cls-4" d="M162.449,90.157s2.035-14.6,1.443-17.752-7.3-6.509-10.059-8.087S140.815,56.034,136.87,58.8,120.5,69.447,124.247,72.011s8.087-6.509,13.215-4.34,9.468,7.44,11.637,9.341,7.3,3.875,7.3,3.875-3.55,9.158-4.734,12.172-4.733,9.327-4.733,9.327,2.958,6.114,6.114,6.114h5.325Z"/><path class="cls-10" d="M129.173,21.74a5.326,5.326,0,0,1,3.706-.138,10.443,10.443,0,0,1,3.3,1.822,10.73,10.73,0,0,1,4.064,5.438"/><path class="cls-11" d="M91.068,45.366s3.774,8.494,12.858,11.305c12.031,3.723,24.847-1.895,24.847-1.895"/><ellipse class="cls-12" cx="77.246" cy="80.273" rx="3.031" ry="2.93"/><ellipse class="cls-13" cx="74.215" cy="86.132" rx="3.031" ry="2.93"/><ellipse class="cls-14" cx="74.215" cy="91.714" rx="3.09" ry="2.986"/><ellipse class="cls-15" cx="77.246" cy="97.903" rx="4.086" ry="3.949"/><ellipse class="cls-16" cx="108.694" cy="89.192" rx="2.93" ry="3.031" transform="translate(-26.243 128.71) rotate(-55.695)"/><ellipse class="cls-12" cx="107.896" cy="95.115" rx="2.93" ry="3.031" transform="translate(-31.484 130.635) rotate(-55.695)"/><ellipse class="cls-13" cx="104.75" cy="100.351" rx="2.986" ry="3.09" transform="translate(-37.182 130.321) rotate(-55.695)"/><ellipse class="cls-14" cx="98.757" cy="103.755" rx="3.949" ry="4.086" transform="translate(-42.609 126.857) rotate(-55.695)"/><ellipse class="cls-15" cx="91.996" cy="104.828" rx="3.974" ry="4.112" transform="translate(-46.446 121.741) rotate(-55.695)"/><ellipse class="cls-17" cx="83.779" cy="103.995" rx="5.273" ry="5.096"/></g></svg>