<svg id="word" xmlns="http://www.w3.org/2000/svg" viewBox="0 0 160 160"><defs><style>.cls-1{fill:#9c86be;}.cls-1,.cls-2,.cls-3,.cls-4,.cls-5,.cls-6{stroke:#9d4b9c;stroke-miterlimit:10;stroke-width:1.081px;}.cls-2{fill:#a79ec3;}.cls-3{fill:#b6abd3;}.cls-4{fill:#c6bcdd;}.cls-5{fill:#faaf40;}.cls-6{fill:#618d41;}</style></defs><path class="cls-1" d="M54.727,56.979s2.384,8.106,2.225,14.464-3.5,26.386-3.5,26.386l-1.907,13.193L53.3,110.7l6.835-39.9s1.431-4.928,3.02-6.994a20.54,20.54,0,0,1,3.5-3.5Z"/><path class="cls-2" d="M60.608,49.349s-3.974-15.895-.954-22.571,4.61-9.378,8.9-6.993,10.013,3.179,6.2,15.418-8.584,17.961-8.584,17.961Z"/><path class="cls-3" d="M55.363,57.774S42.17,53.8,38.2,47.6,32,33.454,35.971,33.3s4.45,4.769,9.219,9.537S58.86,59.681,58.86,59.681Z"/><path class="cls-4" d="M53.455,50.621S46.62,43.627,46.143,35.68s3.974-12.24,9.379-8.9,6.993,12.081,7.788,17.485a86.48,86.48,0,0,1,.8,10.968S62.039,59.2,61.4,59.2,53.455,50.621,53.455,50.621Z"/><path class="cls-4" d="M65.218,48.4s2.861-8.425,4.927-12.716,6.517-7.948,10.014-5.882,5.881,9.378,1.589,15.26S72.211,55.866,70.463,56.343a3.453,3.453,0,0,1-2.113-.42c-1.852-.848-3.927-2.621-3.927-3.4A27.069,27.069,0,0,1,65.218,48.4Z"/><path class="cls-4" d="M79.046,52.687c4.133-1.271,6.517-5.881,7.63-6.835s4.451-.317,1.43,4.292-8.9,8.424-13.033,8.424S67.6,58.41,67.6,58.41s5.086-2.385,7.312-3.5S79.046,52.687,79.046,52.687Z"/><path class="cls-1" d="M67.761,60.635a33.487,33.487,0,0,0,12.08-1.272c6.04-1.907,9.7-4.927,10.491-7.153s3.974-9.854,1.589-10.808-5.4,2.543-6.994,7.153-6.04,7.629-7.629,8.424S67.761,60.635,67.761,60.635Z"/><path class="cls-3" d="M61.88,61.589a20.982,20.982,0,0,1-7.153-3.179c-2.861-2.226-9.378-8.266-3.02-9.379s8.9-2.7,12.239-2.066,11.127,6.04,9.7,10.014S68.4,61.747,66.33,61.747,61.88,61.589,61.88,61.589Z"/><path class="cls-5" d="M63.946,45.217s.318-10.809,1.589-10.968,1.113,1.431.954,4.769a68.4,68.4,0,0,1-1.112,8.106l-1.431-.159Z"/><path class="cls-5" d="M61.562,46.488s.953-7.312-1.59-7.47-.318,7.47-.318,7.47Z"/><path class="cls-5" d="M67.125,47.283s1.907-4.927,4.61-4.61.794.954-.636,1.908-2.543,3.656-2.543,3.656Z"/><path class="cls-6" d="M55.681,139.315s-4.292-7.788-7.471-11.6-9.06-5.245-12.557-7.153a22.8,22.8,0,0,0-6.994-2.384s8.265.159,12.239,1.907,10.173,8.107,10.173,8.107-4.292-7.63-8.9-11.921-17.326-10.809-17.326-10.809,12.4,3.5,15.895,6.04,9.378,12.239,9.378,12.239-3.338-11.6-4.609-16.531A93.746,93.746,0,0,1,43.6,93.379c0-.477,7.153,22.412,7.153,22.412S48.528,99.419,47.1,94.332,42.17,68.423,42.17,68.423s7.47,20.823,7.47,23.366,2.067,9.06,2.067,9.06S48.528,81.616,47.892,73.51s-2.7-20.346-2.7-20.346,4.133,17.962,5.086,23.207,3.974,23.684,3.974,23.684-.477,19.233-.318,20.981,2.543,18.438,2.543,18.438Z"/><path class="cls-4" d="M68.873,78.119a6.787,6.787,0,0,1-.142-.665c-.212-1.272-.361-3.977,2.05-4.58,3.179-.8,4.609-1.272,4.133,5.086s-.159,15.578-.159,15.578,5.086-19.074,6.676-20.028,6.517-2.225,5.245,2.7-12.557,26.863-12.557,26.863L69.986,88.928Z"/><path class="cls-1" d="M70.622,107.048s-.159-22.729.636-25.591,2.225-7.947,6.517-6.993,5.245,2.066,5.086,8.265-5.086,18.279-5.086,18.279l-6.994,9.855Z"/><path class="cls-3" d="M70.145,127.076l-1.113-19.71s.477-9.378-1.907-13.669S61.4,76.689,64.9,74.94s2.861-3.655,4.45,1.272,2.7,13.352,2.7,23.048-.476,7.471-.476,7.471,5.4-5.723,6.358-11.922.635-13.511,3.5-15.577,5.086-5.4,7.629-1.589.318,11.285-3.02,15.577S75.073,106.254,74.6,108a110.958,110.958,0,0,0-2.385,11.921,74.422,74.422,0,0,0-.476,7.789l-1.749,1.113Z"/><path class="cls-6" d="M71.258,140.269,69.827,135.5s-3.974-6.676-5.4-9.855a45.727,45.727,0,0,1-2.384-8.425s3.814,6.2,4.609,7.471-1.113-5.245-.954-9.06.318-12.716.318-12.716l4.133,24.16s3.815-7.629,4.133-9.219,1.112-4.133,1.112-4.133.8,9.7-.794,14.624a55.373,55.373,0,0,0-1.908,11.921Z"/><path class="cls-4" d="M99.71,80.981s-3.02-15.26-3.02-20.346,4.133-14.942,9.219-14.942,7.789,3.179,7.789,8.425-1.749,16.372-1.749,16.372,5.722-10.014,11.286-10.65,8.583-4.609,9.537.318-5.882,14.306-12.24,15.736-20.186,15.895-20.186,15.895Z"/><path class="cls-2" d="M115.923,56.343s3.656-3.179,6.2-1.907,4.768,3.02,3.338,5.722-13.193,15.736-13.193,15.736Z"/><path class="cls-1" d="M88.9,111.976s4.451-12.4,5.405-14.306,3.179-10.808,3.338-13.034.635-9.7-1.908-14.3S90.809,61.112,92.4,56.184a27.928,27.928,0,0,1,6.994-10.491,10.252,10.252,0,0,1,1.748-.794S96.213,54.277,97.8,61.112s2.544,17.007,2.7,18.12a20.564,20.564,0,0,1-.318,3.974s1.907-5.4,2.066-7.63-1.748-14.146,1.908-18.12,10.49-5.722,12.716-2.7,3.179,10.49,1.112,14.623-7.788,11.6-7.788,11.6S99.392,95.922,98.438,97.035s-7.153,13.51-8.742,16.371a29.58,29.58,0,0,0-2.384,5.723Z"/><path class="cls-1" d="M97.008,101.326A28.974,28.974,0,0,0,102.73,96.4c2.861-3.179,6.358-10.332,11.285-12.875s8.266-2.543,14.465-7.153,6.676-7.471,6.676-10.491-.318-3.974-1.59-3.974-.476,4.133-4.927,5.723-11.6,3.179-13.034,5.722-7.948,8.424-11.6,15.418S97.008,101.326,97.008,101.326Z"/><path class="cls-6" d="M81.59,139.951s.794-15.895,2.861-26.227,9.06-29.564,9.06-29.564l-7.63,29.882-1.589,9.537S89.06,108.32,89.537,106.1s-1.589,15.736-1.907,16.69-.8,3.179-.8,3.179a167.611,167.611,0,0,0,8.742-14.783c3.338-6.676,20.664-22.571,20.664-22.571L97.008,113.724s6.2-4.768,8.265-6.04,8.107-3.02,8.107-3.02S99.392,112.612,96.372,117.7s-11.445,23.048-11.445,23.048S83.5,141.859,81.59,139.951Z"/></svg>