<svg id="word" xmlns="http://www.w3.org/2000/svg" viewBox="0 0 160 160"><defs><style>.cls-1,.cls-5{fill:#759942;}.cls-1,.cls-2,.cls-3,.cls-4,.cls-7,.cls-8{stroke:#9c4c9c;stroke-miterlimit:10;stroke-width:0.577px;}.cls-2{fill:#f6aca0;}.cls-3{fill:#d9e59a;}.cls-4{fill:#7a853f;}.cls-6{fill:#9c4c9c;}.cls-7{fill:#fff;}.cls-8{fill:none;}.cls-9{fill:#9c519e;}</style></defs><path class="cls-1" d="M58.045,85.365,54.365,87.6a14.158,14.158,0,0,0-2.456,1.036c-.119.232-2.086,1,.36,1.093,1.618.061,1.726-.253,1.726-.253s-2.351,2.479-1.487,2.636c.433.078,1.5-.761,2.036-1.014a14.016,14.016,0,0,1,2.036-.558A10.554,10.554,0,0,1,56.1,92.2c-.238.5.714.26,1.034-.017a10.043,10.043,0,0,1,1.6-1.082,10.092,10.092,0,0,1,2.455-.558c1.078-.05,2.994-.27,3.713-1.275s-.12-1.614-.359-1.969"/><path class="cls-2" d="M30.367,83.3s-8.774,3.776-7.539,4.885c.6.542,6.481-.017,7.955-.425s13.254-3.477,13.254-3.477L50.459,82.8s5.368-2.686,2.327-2.637-13.8,1.927-14.229,1.758S30.367,83.3,30.367,83.3Z"/><path class="cls-3" d="M73.592,90.858s2.63,2.729,10.674,2.245,12.777-1.477,15.164-2.47,5.926-4.628,5.926-4.628,2.448-2.232-.7-3.023-15.225,1.371-18.277,1.753-13.8.783-13.8.783-2.216-.554-2.341.714S73.592,90.858,73.592,90.858Z"/><path class="cls-3" d="M110.089,89.59s9.156,1.673,21.62-1.122c4.057-.91,10.41-5.145,11.459-6.939a72.984,72.984,0,0,0,4-7.786c1.427-3.282.866-2.549,2.926-5.285,1.158-1.537,4.832-3.426,4.832-3.426s-3.306-2.995-10.046,1.989c-1.974,1.461-4.606,10.733-6.118,12.189s1.365.8-4.842,2.971-10.138,2.61-11.675,3.337a7.242,7.242,0,0,1-3.466.489Z"/><path class="cls-4" d="M66.847,73.33s6.279-4.5,6.792-4.873.036,2.375,0,2.714-.026,1.011-.026,1.011,4.34-1.148,4.441-1.673,6.449-5.6,6.817-4.239A17.354,17.354,0,0,1,85,70.509l5.707-.553s.38-1.593,3.337-2.626,4.2-2.623,4.038-.791a19.019,19.019,0,0,1-.636,3.417l4.412.227s.112.492,2.5-.305,6.534-3.238,6.727-1.788-1.494,4.12-1.494,4.12l4.043,1.12s4.872-1.236,6.07-2.1,1.816-1.1,1.837.587,0,2.511,0,2.511l5.662.742a9.444,9.444,0,0,0,1.708-2.6c.968-1.937.5-3.832,1.689-2.1a10.934,10.934,0,0,1,1.481,2.756l3.619-1.844a4.563,4.563,0,0,0,.723-2.31c0-1.254.581-5.818.953-5.4s2.347,2.271,2.347,2.271a9.963,9.963,0,0,1,2.549-1.317c.78-.1,1.126-3.551,2.415-5.132,1.517-1.86,1.64,2.854,1.64,2.854a12.09,12.09,0,0,1,3.175-.983c.789.068,3.5-2.079,4.151-1.825s1.4,3.379,1.463,3.756c0,0-7.972.271-9.846,1.118s-7.978,9.635-10.352,10.413-23.148,1.257-25.223,0S104.44,72.1,91.109,72.952s-26.047,1.307-26.047,1.307Z"/><path class="cls-1" d="M113.215,87.077s15.343-.087,18.727-2.46,5.954-2.443,7.427-4.33,3.5-8.1,5.754-10.768,3.719-4.424,7.577-4.812,4.09,1.349,4.281,0-4.737-3.541-6.265-3.435-7.074.66-10.759,4c-1.414,1.281-3.974,7.034-8.873,8.42s-12.979,1.217-15.849-.24S97.7,70.079,91.823,69.695,68.375,73.164,68.2,73.545s-4.451.327-4.451.327a64.614,64.614,0,0,1-6.676-3.136c-1.69-1.092-6.15-.44-7.385-.227s-4.478,2.774-4.478,2.774a11.124,11.124,0,0,1-3.815,1.171c-2.1.22-11.034,2.327-12.756,2.744S23.7,78.25,23.7,78.25s-2.577-1.8-4.748-.586-6.977,4.5-5.737,5.751,6.033,2.194,8.958,1.99,13.312-2.348,16.008-2.4,3.616-.65,5.87-1.466,8.735-1.385,8.735-1.385A10.233,10.233,0,0,1,48.11,83c-1.037.27-16.584,4.578-17.327,4.76s-6.686,1.048-7.531.418-.486-.072.418,1.693,5.014-.421,8.165-.459,11.626-3.589,13.926-3.251,4.393-.535,7.151.416,8.617.192,9.3,1.126,2.5.888,2.5.888-5,3.112-6.41,3.832a10.047,10.047,0,0,0-2.766,2.559c1.677,2.454,5.52,1.654,6.025,1.4s1.568.32,2.213-.271S67.869,94.73,70,94.157s3.8-.45,2.722-2.346a10.976,10.976,0,0,1-1.089-4.593s6.194,1.463,9.525.581,9.291-2.75,12.267-3.467,9.853-1.8,10.187-.307a13.386,13.386,0,0,0,.851,2.575,7.049,7.049,0,0,0,2.48,3.215"/><path class="cls-5" d="M49.687,73.006a5.809,5.809,0,0,1,6.4-3.594c4.86.7,5.636,3.667,6.195,4.506s.471,4.05.471,4.05"/><path class="cls-6" d="M49.687,73.006a6.158,6.158,0,0,1,1.3-2.173,5.624,5.624,0,0,1,4.726-1.717,9.822,9.822,0,0,1,2.522.528,6.652,6.652,0,0,1,3.813,3.363l.275.565c.046.1.091.166.142.266a1.621,1.621,0,0,1,.139.326,5.692,5.692,0,0,1,.21,1.278,18.026,18.026,0,0,1-.053,2.526c-.051-.838-.1-1.676-.229-2.5a5.6,5.6,0,0,0-.27-1.184,1.321,1.321,0,0,0-.121-.244c-.05-.085-.125-.189-.173-.279l-.31-.547a6.351,6.351,0,0,0-3.619-3.033,9.271,9.271,0,0,0-2.373-.547,5.9,5.9,0,0,0-2.388.2A6.073,6.073,0,0,0,49.687,73.006Z"/><path class="cls-7" d="M51.937,75.118s1.985-3.436,3.8-2.733,2.925,3.842,2.925,3.842a9.252,9.252,0,0,0-3.117-.668,11.857,11.857,0,0,0-3.55.257Z"/><path class="cls-6" d="M28.762,76.875A6.8,6.8,0,0,1,32.2,77.964a17.461,17.461,0,0,1,1.473.991c.459.338,1.01.726,1.11,1.334-.151-.593-.706-.912-1.19-1.215-.5-.308-1.007-.6-1.53-.856a6.382,6.382,0,0,0-3.279-.767Z"/><path class="cls-6" d="M34.564,75.77a12.425,12.425,0,0,1,3.486,1.437,9.485,9.485,0,0,1,2.8,2.448,9.364,9.364,0,0,0-2.939-2.2,12.006,12.006,0,0,0-3.461-1.124Z"/><path class="cls-6" d="M40.812,74.476c.718.531,1.432,1.045,2.152,1.59.09.077.185.147.267.229l.206.283.381.551.753,1.1L43.7,77.215l-.434-.5-.212-.236c-.083-.065-.175-.117-.261-.176-.751-.45-1.534-.894-2.3-1.342Z"/><path class="cls-8" d="M20.713,81.525a1.14,1.14,0,0,1,1.472,1.2.3.3,0,0,1-.073.191.326.326,0,0,1-.194.068,6.978,6.978,0,0,1-.991.05c-.23,0-.534-.1-.518-.328"/><path class="cls-8" d="M16.063,81.308a1.07,1.07,0,0,1,.869.337.881.881,0,0,1,.375.6c.008.4-.516.642-.9.513a1.923,1.923,0,0,1-.872-.812"/><path class="cls-6" d="M23.532,77.9a5.645,5.645,0,0,1,1.138.844,12.722,12.722,0,0,1,.932,1.022c.293.349.583.692.9,1.018a2.27,2.27,0,0,1,.713,1.154,2.2,2.2,0,0,0-.812-1.049c-.35-.292-.683-.611-1.009-.925a12.62,12.62,0,0,0-1-.892,5.13,5.13,0,0,0-1.124-.661Z"/><path class="cls-6" d="M81.527,87.631c-.046.1.316.519.441.854a4.981,4.981,0,0,1,.34,1.092,12.266,12.266,0,0,1,.155,2.215,12.078,12.078,0,0,0-.435-2.143,4.541,4.541,0,0,0-.442-.961,3.493,3.493,0,0,0-.3-.416,1.088,1.088,0,0,1-.331-.626Z"/><path class="cls-6" d="M87.135,85.877a1.014,1.014,0,0,1,.485.813l.1.73a11.684,11.684,0,0,1,.089,1.473,5.6,5.6,0,0,1-.7,2.821,5.441,5.441,0,0,0,.407-2.81,10.923,10.923,0,0,0-.227-1.412c-.1-.421-.222-1.08-.393-1.087Z"/><path class="cls-6" d="M95.272,83.936a.81.81,0,0,1,.409.489c.053.148.1.289.14.435a7.319,7.319,0,0,1,.187.879,13.066,13.066,0,0,1,.121,1.759,9.062,9.062,0,0,1-.086,1.753,2.2,2.2,0,0,1-.889,1.468,2.137,2.137,0,0,0,.747-1.49,8.991,8.991,0,0,0-.06-1.716,12.611,12.611,0,0,0-.258-1.693,6.6,6.6,0,0,0-.242-.8c-.085-.243-.247-.587-.286-.546Z"/><path class="cls-6" d="M138.85,81.226a.493.493,0,0,0,.154.47,2.309,2.309,0,0,0,.56.44,4.2,4.2,0,0,0,1.414.536,4.328,4.328,0,0,1-1.539-.276,2.665,2.665,0,0,1-.732-.386,1,1,0,0,1-.425-.886Z"/><path class="cls-6" d="M132.22,84.539a4.8,4.8,0,0,0,1.664,2.8,5.1,5.1,0,0,1-2.22-2.64Z"/><path class="cls-6" d="M124.983,86.846a4.339,4.339,0,0,0,.024,2.744,4.626,4.626,0,0,1-.588-2.865Z"/><ellipse class="cls-6" cx="54.972" cy="74.458" rx="1.253" ry="1.167"/><path class="cls-1" d="M119.245,84.832c-.071,1.338-2.985,2.385-3.624,2.734s-1.919.931-1.279,1.163,1.634,2.676,2.2,4.13-.5,1.28-1.065,1.862a3.909,3.909,0,0,1-1.99.7s-1.35.64-2.274,1.047-1.208,1.629-1.634,2.211-1.777.407-1.919,0,1.208-2.735.995-2.676-3.553,1.977-3.553,2.268-1.208.117-1.208-.7a5.925,5.925,0,0,1,1.208-2.327,16.424,16.424,0,0,1-3.695.873c-1.208,0,.213-1.338.64-1.629s2.7-1.629,2.7-1.629-3.056-1.8-3.411-3.723.142-3.9.853-4.595,2.2-2.152,2.2-2.152"/><path class="cls-1" d="M59.571,91.715l-3.68,2.238a14.148,14.148,0,0,0-2.456,1.035c-.119.232-2.086,1,.36,1.094,1.618.061,1.726-.254,1.726-.254s-2.351,2.48-1.487,2.636c.433.079,1.5-.76,2.036-1.014a13.976,13.976,0,0,1,2.036-.557,10.552,10.552,0,0,1-.479,1.656c-.238.5.714.26,1.034-.016a10.086,10.086,0,0,1,1.6-1.083,10.112,10.112,0,0,1,2.455-.557c1.078-.051,2.994-.27,3.713-1.276s-.12-1.614-.359-1.968"/><path class="cls-9" d="M76.093,73.34a6.531,6.531,0,0,0-.593.405c-.807.69-1.6,1.393-2.408,2.084-.275.237-.567.453-.875.7l.124.2c-.174.279-.49.276-.759.361a.873.873,0,0,1-.332.042.478.478,0,0,1-.293-.108.276.276,0,0,1,.019-.264,3.782,3.782,0,0,1,.593-.631c.575-.441,1.184-.838,1.76-1.279a9.618,9.618,0,0,0,.823-.769c.186-.181.347-.391.546-.555.324-.267.672-.506,1.005-.762a1.7,1.7,0,0,0,.2-.213.582.582,0,0,1,.965.149,2.449,2.449,0,0,1,.166,1.94c-.222.626-.352,1.284-.553,1.918a1.631,1.631,0,0,1-.364.586.474.474,0,0,1-.392.08.408.408,0,0,1-.251-.254.786.786,0,0,1,.039-.424c.2-.592.415-1.177.612-1.769A1.609,1.609,0,0,0,76.093,73.34Z"/><path class="cls-9" d="M100.471,75.9l-.119.011c-.437.046-.633-.144-.576-.589a1.483,1.483,0,0,1,.155-.494,6.58,6.58,0,0,0,.506-1.473,2.1,2.1,0,0,0-.115-1.2,1.75,1.75,0,0,0-.805.165c-1.012.51-2.051.968-3.052,1.5-.665.353-1.283.794-1.922,1.194a3.555,3.555,0,0,1-.374.224c-.138.065-.416-.026-.452-.147a.327.327,0,0,1,.135-.374,11.3,11.3,0,0,1,1.386-.872c.9-.555,1.824-1.058,2.752-1.558.42-.227.869-.4,1.309-.589.282-.118.572-.215.858-.322a.705.705,0,0,1,1.026.487,3.249,3.249,0,0,1-.036,2.091c-.191.562-.374,1.127-.564,1.69C100.556,75.721,100.515,75.8,100.471,75.9Z"/><path class="cls-9" d="M83.038,75.508c-.286-.206-.291-.372-.121-.615a16.19,16.19,0,0,1,1.8-1.915,4.887,4.887,0,0,1,1.25-.917c.367-.191.732-.394,1.108-.573.314-.149.632-.29.95-.429a1.03,1.03,0,0,1,.289-.085c.351-.037.47.03.507.374a3.069,3.069,0,0,1-.015,1.371c-.221.658-.343,1.349-.521,2.022a2.184,2.184,0,0,1-.219.474.386.386,0,0,1-.445.2.357.357,0,0,1-.275-.395,2.577,2.577,0,0,1,.086-.6c.158-.588.345-1.169.494-1.759a5.633,5.633,0,0,0,.074-.809c-.4.158-.731.268-1.044.412a8.18,8.18,0,0,0-2.1,1.373A13.017,13.017,0,0,0,83.8,74.8c-.169.2-.293.43-.574.506C83.159,75.319,83.114,75.422,83.038,75.508Z"/><path class="cls-9" d="M107.262,76.49a.444.444,0,0,1,.238-.483,6.527,6.527,0,0,1,1.437-.8c.213-.061.383-.269.595-.345a6.845,6.845,0,0,0,1.255-.758,4.932,4.932,0,0,1,1.8-.83.6.6,0,0,1,.72.384,3.714,3.714,0,0,1,.448,2.43c-.038.258-.023.523-.05.783-.031.3-.13.381-.418.367-.328-.017-.557-.183-.565-.426a1.188,1.188,0,0,1,.043-.3,3.54,3.54,0,0,0,.044-1.631c-.026-.109-.009-.228-.027-.34-.059-.367-.259-.512-.609-.374a10.333,10.333,0,0,0-1.494.692,11.272,11.272,0,0,1-1.577.818,2.274,2.274,0,0,0-.551.408,2.572,2.572,0,0,1-.908.489A.337.337,0,0,1,107.262,76.49Z"/><path class="cls-9" d="M80.905,77.415c-.208.086-.371.106-.459.2a16.808,16.808,0,0,1-1.782,1.36,2.4,2.4,0,0,0-.8,1.017c-.067.18-.143.391-.414.382-.217-.007-.325-.1-.306-.319a.749.749,0,0,1,.072-.3,3.117,3.117,0,0,1,1.14-1.336c.628-.335,1.149-.812,1.76-1.162a2.208,2.208,0,0,0,.5-.463.52.52,0,0,1,.819.014,1.4,1.4,0,0,1,.3,1.062c-.056.547-.178,1.087-.264,1.631a6.2,6.2,0,0,0-.084.767c0,.139-.037.231-.164.269a2.373,2.373,0,0,1-.424.091.226.226,0,0,1-.279-.253,6.075,6.075,0,0,1,.1-.773c.089-.454.217-.9.289-1.358A5.091,5.091,0,0,0,80.905,77.415Z"/><path class="cls-9" d="M65.252,82.631c-.185-.286-.19-.3.044-.49.646-.512,1.284-1.034,1.949-1.52.57-.416,1.175-.785,1.762-1.179a1.785,1.785,0,0,0,.217-.192.576.576,0,0,1,.99.269,2.29,2.29,0,0,1,.036.779c-.038.327-.152.644-.2.97a2.964,2.964,0,0,0-.017.639c.022.364-.1.505-.448.541a3.851,3.851,0,0,0-.5.119.618.618,0,0,1-.044-.783,4.69,4.69,0,0,0,.359-1.43,1.255,1.255,0,0,0-.038-.3,1.746,1.746,0,0,0-.421.129c-.587.374-1.177.747-1.742,1.154a7.822,7.822,0,0,0-.9.806A2.37,2.37,0,0,1,65.252,82.631Z"/><path class="cls-9" d="M120.476,78.191a.8.8,0,0,1,.389-.733c.4-.307.836-.574,1.245-.873.3-.22.583-.469.881-.695a8.512,8.512,0,0,1,.817-.574,1.108,1.108,0,0,1,1.326.153,1.228,1.228,0,0,1,.491,1.375c-.092.38-.137.771-.194,1.158-.028.2-.1.325-.323.338-.391.022-.509-.031-.577-.305a.533.533,0,0,1,.021-.455,1.612,1.612,0,0,0,.209-.57,1.964,1.964,0,0,0,0-.64c-.042-.253-.2-.341-.461-.35a1.442,1.442,0,0,0-.876.337c-.442.3-.9.586-1.332.9a4.156,4.156,0,0,0-.75.661A.8.8,0,0,1,120.476,78.191Z"/><path class="cls-9" d="M92.545,79.633c-.549.252-.908,0-.857-.6.023-.273.1-.542.12-.815a1.79,1.79,0,0,0-.049-.56c-.051-.207-.185-.26-.365-.148a24.436,24.436,0,0,0-2.307,1.405,6.332,6.332,0,0,0-.983,1.1l-.547.067c-.009-.12-.064-.256-.018-.33a3.189,3.189,0,0,1,.6-.828A18.878,18.878,0,0,1,89.9,77.67c.558-.359,1.149-.668,1.729-.992a1.084,1.084,0,0,1,.328-.114.437.437,0,0,1,.527.333,3.4,3.4,0,0,1,.157,1.423c-.029.318-.095.633-.131.951A1.893,1.893,0,0,0,92.545,79.633Z"/><path class="cls-9" d="M104.916,80.507c-.7.221-.889.067-.953-.656-.039-.434-.054-.87-.092-1.3-.043-.495-.121-.558-.606-.413a5.654,5.654,0,0,0-.923.38q-.872.443-1.721.928a5.123,5.123,0,0,0-.546.427c-.125.095-.259.144-.387,0s-.065-.24.021-.384a2.617,2.617,0,0,1,1.234-.974c.532-.257,1.052-.536,1.582-.8.155-.076.327-.118.489-.18a3.152,3.152,0,0,0,.471-.195.666.666,0,0,1,1.069.384,4.314,4.314,0,0,1,.166.854,4.454,4.454,0,0,1,.049,1.079A1.4,1.4,0,0,0,104.916,80.507Z"/><path class="cls-9" d="M119.188,81.009a.733.733,0,0,1-.839.2.563.563,0,0,1-.343-.6c0-.258-.031-.519-.007-.775a.651.651,0,0,0-.365-.592.554.554,0,0,0-.487-.021,5.092,5.092,0,0,0-.971.649c-.423.374-.8.8-1.2,1.2a.935.935,0,0,1-.931.26,1.685,1.685,0,0,1,.186-.356c.132-.151.3-.275.443-.415.476-.457.933-.936,1.432-1.366a5.041,5.041,0,0,1,1.106-.748c.438-.206.587-.155.933.158a1.9,1.9,0,0,1,.675,1.071,1.846,1.846,0,0,1,.038.255A1.407,1.407,0,0,0,119.188,81.009Z"/><path class="cls-9" d="M132.967,76.885a1.312,1.312,0,0,1,.33-1.059,5.724,5.724,0,0,1,.52-.686,6.626,6.626,0,0,1,.793-.743,5.96,5.96,0,0,0,.919-.919c.25-.3.541-.3.748.012a3.8,3.8,0,0,1,.628,1.515c.051.329.124.655.2.979.047.2,0,.342-.215.4-.268.068-.5.01-.568-.17a2.669,2.669,0,0,1-.09-.423c-.076-.384-.137-.772-.235-1.151-.086-.332-.311-.394-.588-.184-.4.305-.8.618-1.2.93-.033.025-.082.062-.083.095-.006.359-.261.6-.411.892a1.418,1.418,0,0,0-.087.291c-.078.314-.077.315-.411.271C133.129,76.92,133.047,76.9,132.967,76.885Z"/><path class="cls-9" d="M140.146,72.4l-.511.131a.812.812,0,0,1-.107-.171,7.273,7.273,0,0,1-.357-1.916,1.867,1.867,0,0,1,.27-1.035,5.146,5.146,0,0,1,.731-.918.7.7,0,0,1,1.118.306,3.652,3.652,0,0,1,.457,1.543,2.91,2.91,0,0,0,.086.425c.058.3-.026.494-.229.528a.438.438,0,0,1-.541-.422,1.748,1.748,0,0,1,.038-.342,1.532,1.532,0,0,0-.3-1.19.4.4,0,0,0-.664-.006,2.033,2.033,0,0,0-.434,1.993,5.477,5.477,0,0,0,.323.7C140.07,72.137,140.1,72.249,140.146,72.4Z"/><path class="cls-9" d="M130.439,78.745a1.875,1.875,0,0,0-.822.678,2.421,2.421,0,0,0-.441.691.741.741,0,0,1-.759.475.363.363,0,0,1-.014-.48c.273-.371.515-.769.82-1.11a11.586,11.586,0,0,1,1.159-1.111.626.626,0,0,1,.487-.077c.1.024.189.2.225.326.157.542.3,1.089.433,1.635.051.2.205.422.046.617s-.382.021-.577.022a.3.3,0,0,1-.322-.29c-.038-.257-.057-.518-.1-.774C130.543,79.152,130.488,78.96,130.439,78.745Z"/><path class="cls-9" d="M144.478,65.92a1.408,1.408,0,0,1,.314-.947c.226-.335.443-.677.689-1a8.921,8.921,0,0,1,.8-.917c.279-.272.506-.237.709.089a9.427,9.427,0,0,1,.614,1.1,2.591,2.591,0,0,1,.124.679c.025.164-.059.249-.217.26s-.265-.033-.275-.2a1.68,1.68,0,0,0-.409-.99c-.23-.283-.347-.308-.646-.095a2.8,2.8,0,0,0-.94,1.388c-.036.095-.055.2-.088.292C145.014,65.98,144.961,66.008,144.478,65.92Z"/><path class="cls-9" d="M125.959,82.144c-.17.236-.308.317-.556.161a2.746,2.746,0,0,1-.5-.585c-.216.154-.46.325-.7.5-.141.1-.272.22-.419.312a.371.371,0,0,1-.5-.091.357.357,0,0,1,.117-.492c.19-.129.4-.226.584-.364.343-.26.682-.527,1-.815a.451.451,0,0,1,.509-.13c.2.079.254.238.276.446C125.808,81.425,125.889,81.761,125.959,82.144Z"/><path class="cls-9" d="M75.4,83.819a1.527,1.527,0,0,0-1.136.069c-.314.1-.633.193-.952.278a.922.922,0,0,1-.246,0c-.115-.394-.107-.406.209-.535.4-.162.794-.346,1.2-.492a1.66,1.66,0,0,1,1.269.06.865.865,0,0,1,.547.8.431.431,0,0,1-.339.4.318.318,0,0,1-.415-.217C75.481,84.072,75.444,83.949,75.4,83.819Z"/><path class="cls-9" d="M94.408,81.034c.54-.232,1.022-.456,1.517-.645a3.522,3.522,0,0,1,.914-.234c.323-.029.452.2.368.526-.068.258-.11.524-.178.862-.163.133-.35.044-.5-.131l-.1-.605-1.754.755C94.344,81.406,94.344,81.406,94.408,81.034Z"/><path class="cls-9" d="M84.148,82.658c-.195.116-.391.237-.592.35-.137.077-.281.187-.427.017a.5.5,0,0,1,0-.568,6.977,6.977,0,0,1,1.565-.7.486.486,0,0,1,.442.545,6.189,6.189,0,0,0,.008.639c.016.227-.15.295-.3.381a.275.275,0,0,1-.388-.078A5.84,5.84,0,0,1,84.148,82.658Z"/><path class="cls-9" d="M110.231,82.876a.757.757,0,0,1-1.047-.059c-.253-.237-.3-.246-.6-.106l-1,.468c-.2-.3-.219-.409-.01-.576a4.2,4.2,0,0,1,1.612-.82.384.384,0,0,1,.3.121c.26.284.5.587.746.885C110.244,82.806,110.231,82.845,110.231,82.876Z"/></svg>