<svg id="word" xmlns="http://www.w3.org/2000/svg" xmlns:xlink="http://www.w3.org/1999/xlink" viewBox="0 0 160 160"><defs><style>.cls-1{fill:none;}.cls-2{clip-path:url(#clip-path);}.cls-3{fill:#8fc8e9;}.cls-4{fill:#61b9d3;}.cls-5{fill:#6ac9e4;}.cls-6{fill:#fff;}.cls-7{fill:#94d4e0;}.cls-8{fill:#c0b399;stroke-width:0.813px;}.cls-11,.cls-8{stroke:#9c4c9c;}.cls-11,.cls-9{fill:#90c9e1;}.cls-10{fill:#9c4c9c;}.cls-11{stroke-width:0.406px;}</style><clipPath id="clip-path"><rect class="cls-1" x="14" y="14" width="132" height="132"/></clipPath></defs><g class="cls-2"><path class="cls-3" d="M42.324,55.951a23.643,23.643,0,0,1-10.307-1.937c-5.826-2.385-3.025-1.872-8.627-2.88s-4.817,1.68-11.987,3.66-3.922.709-8.851-1.532-8.291.785-16.693,3.025-11.54-.784-11.54-.784-.439-2.473-6.039,1.933,2.914,3.285-13.892,5.078-14.564,3.645-12.772,5.928-5.153,5.875,6.723,6.023,15.834.8,32.49,0,15.461-.748,40.557-4.557,24.647-4.133,34.282-4.419,25.768,2.7,12.548-2.6A119.21,119.21,0,0,0,42.324,55.951Z"/><path class="cls-4" d="M-6.721,61.339C-4.953,61.3-3.474,62.845-1.712,63c2.935.262,14.85,1.18,17.5-.118s-3.544-4.88-.67-4.229c1.991.451,3.669,1.757,5.546,2.559s4.341.97,5.7-.551c.653-.729.933-1.725,1.536-2.5,1.26-1.609,3.557-1.868,5.6-1.968,1.9-.093,1.722,3.038,3.575,3.464C43.056,61.039,49.6,64.1,55.743,63.973a16.982,16.982,0,0,0,6.412-1.884s12.6-7.3,20.087-4.7,11.495,2.017,18.341-1.612,34.406-6.765,35.079-6.765,35.113,2.015,35.113,2.015,33.587,4.927,35.156,7.753-26.576,6.141-38,7.261-32.042,9.635-52.881,11.652S60.2,81.841,49.756,81.111s-11.117,3.3-30.611,3.751S-29.264,82.193-32.4,77.654-44.463,62.239-6.721,61.339Z"/><path class="cls-5" d="M170.775,60.8c-4.541-1.62-8.184-5.277-13-4.986s-9.377,2.159-13.754,4.18a30.855,30.855,0,0,1-5.889,2.287c-7.841,1.82-16.007-3.15-23.907-1.609-3.347.653-6.947,2.419-9.942.792-.721-.391-1.337-.957-2.063-1.338-2.2-1.153-4.874-.4-7.235.379L83.2,64.379s-31.959,7.7-33.441,9.387S55,83.069,72.7,83.518s36.523,2.688,47.055-.449,23.527-7.618,37.2-7.842,20.839,1.344,24.2-.224S177.431,63.171,170.775,60.8Z"/><path class="cls-6" d="M-25.555,61.831c.321-1.082,1.732-1.465,2.822-1.169a15.565,15.565,0,0,1,2.984,1.575,7.61,7.61,0,0,0,3.105.858,4.628,4.628,0,0,0,3.43-1.034c.953-.887,1.609-2.446,2.909-2.382A3.666,3.666,0,0,1-8.454,60.7c.573.431,1.4.752,1.975.319a7.783,7.783,0,0,0,.6-.67c.918-.881,2.4-.032,3.357.808a2.274,2.274,0,0,1,.879-2.389A2.274,2.274,0,0,1,.9,58.785c.516.366.9.965,1.514,1.111.874.208,1.622-.583,2.4-1.035A6.944,6.944,0,0,1,8.7,58.307a1.238,1.238,0,0,1,.665.163c.5.357.216,1.125.241,1.736a2.105,2.105,0,0,0,1.777,1.785,6.147,6.147,0,0,0,2.68-.263,4.535,4.535,0,0,1-.183-2.607,1.566,1.566,0,0,1,2.074-1.034c.714.418.947,1.584,1.773,1.635a2.55,2.55,0,0,1,.779-3.181c1.034-.6,2.673.35,2.38,1.509l1.625-2.409,1.792,1.5a2.756,2.756,0,0,1,3.386-2.87,2.755,2.755,0,0,1,1.105,4.3c.627.581,1.675.248,2.31-.324a12.152,12.152,0,0,1,1.837-1.774,2.5,2.5,0,0,1,3.084.574,8.1,8.1,0,0,0,.775,1.027c1.257,1.122,3.41-.345,4.888.463a12.7,12.7,0,0,1,1.392,1.241c1.424,1.081,3.627.375,5.117,1.364.439.681-.553,1.383-1.347,1.544a15.113,15.113,0,0,1-7.123-.287c.086.719-.787,1.227-1.5,1.126a6.6,6.6,0,0,1-1.962-.9,1.911,1.911,0,0,0-2.048-.03c-.226.19-.375.465-.617.633a1.268,1.268,0,0,1-1.541-.252,3.7,3.7,0,0,1-.79-1.479,3.753,3.753,0,0,0-.416,2.425c-1.9.328-3.7-1.007-4.876-2.53a2.194,2.194,0,0,0-.809-.76,1.388,1.388,0,0,0-1.681.939,4.03,4.03,0,0,0,.028,2.126,1.313,1.313,0,0,1-1.623-.2,6.3,6.3,0,0,0-1.38-1.111c-.549-.228-1.365.052-1.357.645.006.445.469.87.275,1.27-.343-.366-.993.05-1.092.542a9.007,9.007,0,0,0,.082,1.5,1.889,1.889,0,0,1-2.946,1.312,5.127,5.127,0,0,1-1.115-2.183c-.3-.769-.945-1.569-1.768-1.479-1.149.125-1.839,1.9-2.943,1.559-.984-.307-.868-1.966-1.809-2.385-.7-.313-1.521.359-1.66,1.113a3.86,3.86,0,0,0,.494,2.21A7.773,7.773,0,0,1,2,64.946c-.318.791.8,1.4,1.048,2.216a1.455,1.455,0,0,1-1.445,1.712A2.25,2.25,0,0,1-.331,67.362a6.093,6.093,0,0,0-.55-1.4c-.294-.41-.941-.638-1.3-.283a1.743,1.743,0,0,0-.313.625,2.183,2.183,0,0,1-3.2.87l.123-3.141A4.367,4.367,0,0,1-9.6,62.9a7.979,7.979,0,0,1-10.3,2.164c-1.036-.628-1.912-1.494-2.946-2.124a3.944,3.944,0,0,0-3.457-.552"/><path class="cls-6" d="M83.816,63.816a18.056,18.056,0,0,0,7.664-3.894,17.72,17.72,0,0,1,2.054-1.683c.647-.408,1.686-.585,2.025.1.228.459-.031,1.049.2,1.508a1.156,1.156,0,0,0,1.6.257,8.586,8.586,0,0,0,1.31-1.257,3.687,3.687,0,0,1,2.981-.942.712.712,0,0,1,.45.189.943.943,0,0,1,.1.712,2.97,2.97,0,0,0,2.318,2.94,4.332,4.332,0,0,0,3.766-1.1,1.544,1.544,0,0,1,.744-.465,1.99,1.99,0,0,1,.993.3,2.191,2.191,0,0,0,2.064-.239,7.62,7.62,0,0,0,1.464-1.9,1.591,1.591,0,1,1,2.973,1.135,8.423,8.423,0,0,0-.212,2.437c1.319.664,2.872-.435,4.343-.3a14.023,14.023,0,0,1,2.839,1.077,14.848,14.848,0,0,0,2.336.388,9.416,9.416,0,0,1,2.041.556c.492.2,1.015.861.566,1.141a.758.758,0,0,1-.4.075l-10.843.006c.065.653.622,1.124,1.053,1.619s.758,1.263.346,1.774c-1.036.557-2.286-.2-3.113-1.042s-1.683-1.858-2.859-1.913c-1.058-.05-2.031.73-3.087.649-1.2-.092-2.07-1.253-3.243-1.54a6.016,6.016,0,0,0-3,.464,2.932,2.932,0,0,1-2.906-.365c-.554-.57-.7-1.539-1.426-1.869-.739-.338-1.57.22-2.13.809s-1.153,1.295-1.965,1.328c-1.181.048-1.858-1.3-2.23-2.421-2.442,2.084-6.031,2.1-9.183,1.486"/><path class="cls-7" d="M84.474,80.141c-2.82.142-5.755-.1-8.049-1.745-2.842-2.04-4.511-5.4-7.341-7.459-3.849-2.8-9.037-2.669-13.774-2.215-8.062.772-16.364,2.26-23.019,6.875-2.688,1.864-5.259,4.292-8.513,4.626-2.761.283-5.408-1.022-8.131-1.565A23.7,23.7,0,0,0,9.8,78.373c-5.021.256-23.8,2.024-28.58,3.582,0,0,6.212,10.513,84.365,5.26,16.32-1.1,40.592.6,40.435-2.107S93.562,79.684,84.474,80.141Z"/><path class="cls-6" d="M29.014,78.6c1.145-1.138,1.63-2.761,2.433-4.161s2.252-2.709,3.838-2.412a1.578,1.578,0,0,0,.655.059c.585-.141.607-.943.638-1.544a3.951,3.951,0,0,1,3.1-3.567,1.137,1.137,0,0,1,.618.012c.668.255.549,1.321,1.108,1.767.653.521,1.56-.162,2.121-.78a7.617,7.617,0,0,1,2.713-2.14,2.957,2.957,0,0,1,3.231.541c.188.209.357.468.628.544.588.166.959-.584,1.3-1.092a2.5,2.5,0,0,1,3.156-.788,5.878,5.878,0,0,0,1.109.618,3.717,3.717,0,0,0,1.6-.119,9.406,9.406,0,0,1,3.526.321,12.12,12.12,0,0,1,4.456,1.624,12.1,12.1,0,0,1,1.522,1.351l3.74,3.718-6.364-2.395a11.52,11.52,0,0,0-4.222-1,3.917,3.917,0,0,0-3.571,2.077,2.915,2.915,0,0,1-.632,1.194c-.609.5-1.528.091-2.13-.416s-1.238-1.147-2.023-1.085c-1.418.112-1.887,2.354-3.3,2.487-1.389.131-2.07-1.835-3.415-2.206-1.037-.287-2.047.463-2.875,1.151-1.8,1.494-3.78,2.979-6.1,3.25a12.837,12.837,0,0,0-2.133.252c-1.788.524-2.842,2.48-4.6,3.093"/><path class="cls-8" d="M60.244,33.691S73.146,22.222,79.6,23.656s16.486,6.451,18.636,9.318.717,7.885-6.451,7.885S58.81,38.708,60.244,33.691Z"/><path class="cls-8" d="M126.726,37.992s12.9-9.319,21.5-3.584,13.261,10.752,8.243,12.185-21.145,2.867-21.145,2.867S113.823,48.744,126.726,37.992Z"/><path class="cls-9" d="M64.9,42.113s11.11-5.2,15.231-5.376,4.839,4.122,8.064,4.839,1.971-.717,7.527-2.868,7.347-3.225,9.855-1.433,2.688,6.093,7.885,5.376,7.885-3.226,9.856-1.255.358,5.556,5.734,6.093,1.977-4.007,12.544-3.046a14.424,14.424,0,0,1,10.393,5.734c1.434,1.792,3.584,3.763,7.168,2.867s6.631-3.046,8.96-.179,6.989,4.48,6.989,4.48"/><path class="cls-10" d="M64.9,42.113Q68.477,40.448,72.151,39A36.078,36.078,0,0,1,79.7,36.727a4.851,4.851,0,0,1,3.751,1.008c1.056.817,1.845,1.9,2.841,2.733a4.97,4.97,0,0,0,3.574,1.159,3.857,3.857,0,0,0,1.68-.875A16.689,16.689,0,0,1,93.23,39.7a33.667,33.667,0,0,1,3.628-1.579c1.223-.482,2.437-.987,3.692-1.41a5.719,5.719,0,0,1,3.951-.2,5.508,5.508,0,0,1,1.7,1.086,9.688,9.688,0,0,1,1.256,1.558A8.363,8.363,0,0,0,110.027,42a5.589,5.589,0,0,0,3.727.433,24.2,24.2,0,0,0,3.8-.945,17.082,17.082,0,0,1,3.853-1.02,2.635,2.635,0,0,1,1.948.69,4.105,4.105,0,0,1,1.08,1.741c.424,1.257.645,2.6,1.656,3.393a6.266,6.266,0,0,0,3.608,1.059,4.021,4.021,0,0,0,1.844-.31,6.535,6.535,0,0,0,1.512-1.174,6.458,6.458,0,0,1,3.651-1.575,20.054,20.054,0,0,1,3.971-.073A15.06,15.06,0,0,1,148.2,46.5a14.81,14.81,0,0,1,3.019,2.574,18.679,18.679,0,0,0,2.681,2.849,5.75,5.75,0,0,0,3.592,1.226,12.415,12.415,0,0,0,3.795-.865,13.735,13.735,0,0,1,3.842-.93,3.57,3.57,0,0,1,1.92.488,5.942,5.942,0,0,1,1.432,1.365,17.8,17.8,0,0,0,6.624,4.136,17.84,17.84,0,0,1-6.691-4.075,5.866,5.866,0,0,0-1.424-1.326,3.441,3.441,0,0,0-1.858-.444,13.645,13.645,0,0,0-3.781.973,12.451,12.451,0,0,1-3.857.9,5.988,5.988,0,0,1-3.737-1.255,18.774,18.774,0,0,1-2.727-2.867,14.551,14.551,0,0,0-2.978-2.514,14.767,14.767,0,0,0-7.4-2.21,19.863,19.863,0,0,0-3.9.087,6.115,6.115,0,0,0-3.468,1.509,6.781,6.781,0,0,1-1.591,1.235,4.359,4.359,0,0,1-2,.353,6.6,6.6,0,0,1-3.839-1.125,3.945,3.945,0,0,1-1.176-1.675c-.251-.63-.4-1.276-.618-1.879a3.808,3.808,0,0,0-.97-1.58,2.227,2.227,0,0,0-1.667-.6,17.037,17.037,0,0,0-3.752.984,24.522,24.522,0,0,1-3.855.94,5.922,5.922,0,0,1-3.948-.491,8.648,8.648,0,0,1-2.666-2.955,9.256,9.256,0,0,0-1.207-1.514,5.243,5.243,0,0,0-1.6-1.031,5.447,5.447,0,0,0-3.754.194c-1.24.411-2.457.911-3.683,1.387a33.471,33.471,0,0,0-3.609,1.55,16.475,16.475,0,0,0-1.665,1.027,4.056,4.056,0,0,1-1.786.906,5.176,5.176,0,0,1-3.736-1.224c-1.023-.86-1.784-1.956-2.808-2.764a4.692,4.692,0,0,0-3.64-1.024,35.98,35.98,0,0,0-7.539,2.212Q68.492,40.47,64.9,42.113Z"/><path class="cls-8" d="M95.545,46.593s11.23-12.424,24.371.717c5.218,5.218,1.434,7.168-6.451,7.168S95.545,54.478,95.545,46.593Z"/><path class="cls-6" d="M139.718,64.707a4.033,4.033,0,0,0,1.634-.8l5.81-4.022a7.533,7.533,0,0,0,1.745-1.492c.346-.445.589-.965.947-1.4A3.428,3.428,0,0,1,153.4,55.92c.01.659.17,1.5.819,1.618a1.222,1.222,0,0,0,1.118-.672,11.78,11.78,0,0,1,1.357-2.3c.65-.615,2.026-.535,2.141.352.072.555-.335,1.3.15,1.577a.824.824,0,0,0,.492.062,24.887,24.887,0,0,0,3.648-1.01,3.913,3.913,0,0,1,3.6.528,2.515,2.515,0,0,1,.387,3.154c-.878,1.311-2.761,1.458-4.308,1.143s-3.087-.953-4.647-.718a1.346,1.346,0,0,0-.683.258c-.6.5-.19,1.45-.148,2.23a2.415,2.415,0,0,1-2.253,2.4,2.89,2.89,0,0,1-2.768-1.976c-.246-.735-.314-1.685-1.024-2a1.506,1.506,0,0,0-1.488.349c-.417.338-.742.78-1.175,1.1-1.175.858-2.8.589-4.217.931-1.708.413-3.08,1.718-4.765,2.218"/><path class="cls-9" d="M40.711,87.092s12.544-6.81,20.787-5.018,4.3,6.81,11.827,6.093,7.168-6.451,15.052-3.942,8.96,3.942,11.469,4.3,6.81-8.243,13.261-5.734a20.711,20.711,0,0,1,9.318,6.809"/><path class="cls-10" d="M40.711,87.092a56.336,56.336,0,0,1,10.54-4.307,32.073,32.073,0,0,1,5.612-1.05,15.2,15.2,0,0,1,5.688.478A10.559,10.559,0,0,1,65.2,83.325a7.467,7.467,0,0,1,2.108,1.968,8.11,8.11,0,0,0,1.827,2.093,4.807,4.807,0,0,0,2.632.668,12.206,12.206,0,0,0,5.451-1.119c1.718-.755,3.093-2.119,4.867-2.954a6.825,6.825,0,0,1,2.852-.57,8.1,8.1,0,0,1,1.445.142,9.163,9.163,0,0,1,1.407.319c1.84.531,3.623,1.179,5.4,1.87s3.481,1.574,5.222,2.264a7.1,7.1,0,0,0,1.348.354,1.743,1.743,0,0,0,1.246-.327,16.956,16.956,0,0,0,2.184-1.781,18.612,18.612,0,0,1,4.619-3.359,6.645,6.645,0,0,1,5.6-.081,21.373,21.373,0,0,1,9.011,6.789A21.283,21.283,0,0,0,113.34,83a6.441,6.441,0,0,0-5.432.112,18.351,18.351,0,0,0-4.534,3.345,17.081,17.081,0,0,1-2.217,1.825,2.032,2.032,0,0,1-1.441.375,7.347,7.347,0,0,1-1.4-.361c-1.794-.7-3.466-1.569-5.244-2.235s-3.562-1.315-5.374-1.825a7.847,7.847,0,0,0-5.44.119c-1.682.772-3.095,2.144-4.876,2.921a12.558,12.558,0,0,1-5.617,1.119,5.123,5.123,0,0,1-2.8-.74,8.307,8.307,0,0,1-1.89-2.176,7.2,7.2,0,0,0-2.017-1.907,10.283,10.283,0,0,0-2.576-1.1,14.949,14.949,0,0,0-5.595-.5A32.4,32.4,0,0,0,51.3,82.976,56.27,56.27,0,0,0,40.711,87.092Z"/><path class="cls-11" d="M-56.533,76.7s16.247-5.495,20.548-2.867,7.168,6.929,11.946,5.734,10.513-5.256,15.531.478S1.766,88.884,7.261,87.689s6.929-6.451,12.185.239,12.425,10.513,14.1,7.885,1.673-8.363,11.23-.956"/><path class="cls-3" d="M97.016,104.36a23.643,23.643,0,0,1-10.307-1.937c-5.826-2.385-3.025-1.872-8.627-2.881S73.265,101.223,66.1,103.2s-3.922.709-8.851-1.532-8.291.784-16.693,3.025-11.54-.784-11.54-.784-.439-2.473-6.039,1.933,2.914,3.285-13.892,5.077-14.564,3.646-12.772,5.929-5.153,5.875,6.723,6.023,15.834.8,32.49,0,15.461-.748,40.557-4.557,24.647-4.133,34.282-4.42,25.769,2.7,12.548-2.6A119.21,119.21,0,0,0,97.016,104.36Z"/><path class="cls-4" d="M47.971,109.747c1.768-.042,3.247,1.507,5.009,1.665,2.935.262,14.85,1.18,17.5-.118s-3.544-4.88-.67-4.229c1.991.451,3.669,1.756,5.546,2.559s4.341.97,5.7-.551c.653-.73.933-1.725,1.537-2.5,1.26-1.608,3.556-1.867,5.6-1.967,1.9-.093,1.722,3.038,3.575,3.463,5.985,1.375,12.531,4.434,18.672,4.309a17,17,0,0,0,6.412-1.884s12.6-7.3,20.087-4.7,11.5,2.017,18.341-1.612,34.406-6.766,35.079-6.766,35.113,2.016,35.113,2.016,33.587,4.927,35.156,7.752-26.576,6.141-38,7.262-32.042,9.635-52.881,11.651-54.846,4.149-65.291,3.419-11.117,3.3-30.611,3.752-48.409-2.669-51.546-7.208S10.229,110.647,47.971,109.747Z"/><path class="cls-5" d="M225.467,109.205c-4.541-1.62-8.184-5.277-13-4.985s-9.377,2.158-13.754,4.18a30.988,30.988,0,0,1-5.889,2.287c-7.841,1.819-16.007-3.15-23.907-1.609-3.347.653-6.947,2.419-9.942.792-.721-.392-1.337-.958-2.063-1.338-2.2-1.153-4.874-.4-7.235.379l-11.792,3.876s-31.959,7.7-33.441,9.388,5.24,9.3,22.942,9.751,36.523,2.689,47.055-.448,23.527-7.618,37.195-7.842,20.839,1.344,24.2-.224S232.123,111.58,225.467,109.205Z"/><path class="cls-6" d="M29.137,110.239c.321-1.082,1.733-1.465,2.822-1.169a15.565,15.565,0,0,1,2.984,1.575,7.627,7.627,0,0,0,3.105.859,4.632,4.632,0,0,0,3.43-1.034c.953-.887,1.609-2.446,2.909-2.382a3.666,3.666,0,0,1,1.851,1.023c.573.431,1.4.752,1.975.318a7.636,7.636,0,0,0,.6-.67c.918-.88,2.4-.032,3.357.809a2.216,2.216,0,0,1,3.425-2.375c.516.367.9.965,1.514,1.112.874.207,1.622-.583,2.4-1.036a6.937,6.937,0,0,1,3.884-.553,1.229,1.229,0,0,1,.665.163c.5.356.216,1.124.242,1.736A2.1,2.1,0,0,0,66.07,110.4a6.162,6.162,0,0,0,2.68-.263,4.536,4.536,0,0,1-.183-2.607,1.566,1.566,0,0,1,2.074-1.034c.714.417.947,1.584,1.773,1.634a2.548,2.548,0,0,1,.779-3.18c1.034-.6,2.673.35,2.38,1.508L77.2,104.05l1.793,1.5a2.619,2.619,0,1,1,4.491,1.428c.627.581,1.674.248,2.309-.324a12.112,12.112,0,0,1,1.838-1.774,2.5,2.5,0,0,1,3.083.574,8.186,8.186,0,0,0,.775,1.026c1.257,1.123,3.41-.345,4.888.464a12.5,12.5,0,0,1,1.392,1.241c1.424,1.081,3.627.375,5.117,1.364.439.68-.553,1.383-1.347,1.543a15.1,15.1,0,0,1-7.123-.286c.086.719-.787,1.227-1.5,1.125a6.618,6.618,0,0,1-1.962-.9A1.909,1.909,0,0,0,88.9,111c-.226.189-.375.464-.617.633a1.268,1.268,0,0,1-1.541-.252,3.7,3.7,0,0,1-.79-1.479,3.751,3.751,0,0,0-.416,2.424c-1.9.329-3.7-1.006-4.876-2.529a2.178,2.178,0,0,0-.809-.76,1.388,1.388,0,0,0-1.681.939A4.03,4.03,0,0,0,78.2,112.1a1.313,1.313,0,0,1-1.623-.2,6.3,6.3,0,0,0-1.38-1.111c-.548-.228-1.365.051-1.357.645.006.445.469.869.275,1.27-.343-.366-.993.05-1.092.542a8.995,8.995,0,0,0,.082,1.5,1.889,1.889,0,0,1-2.946,1.312,5.121,5.121,0,0,1-1.115-2.183c-.3-.769-.945-1.568-1.767-1.479-1.15.125-1.84,1.905-2.944,1.56-.984-.307-.868-1.966-1.809-2.386-.7-.312-1.521.359-1.66,1.114a3.86,3.86,0,0,0,.494,2.21,7.767,7.767,0,0,1-4.662-1.539c-.318.791.8,1.4,1.048,2.217a1.455,1.455,0,0,1-1.445,1.712,2.25,2.25,0,0,1-1.936-1.513,6.067,6.067,0,0,0-.55-1.4c-.294-.41-.94-.638-1.3-.284a1.758,1.758,0,0,0-.314.626,2.184,2.184,0,0,1-3.2.87l.123-3.141a4.368,4.368,0,0,1-4.033-1.127,7.98,7.98,0,0,1-10.3,2.165c-1.036-.629-1.912-1.494-2.946-2.125a3.947,3.947,0,0,0-3.457-.551"/><path class="cls-6" d="M138.508,112.225a18.068,18.068,0,0,0,7.665-3.895,17.617,17.617,0,0,1,2.053-1.682c.647-.408,1.686-.586,2.025.1.228.459-.031,1.049.2,1.507a1.156,1.156,0,0,0,1.6.257,8.531,8.531,0,0,0,1.31-1.256,3.684,3.684,0,0,1,2.981-.942.71.71,0,0,1,.45.189.942.942,0,0,1,.1.712,2.97,2.97,0,0,0,2.318,2.94,4.333,4.333,0,0,0,3.766-1.1,1.552,1.552,0,0,1,.744-.465,2,2,0,0,1,.993.3,2.188,2.188,0,0,0,2.064-.238,7.607,7.607,0,0,0,1.464-1.9,1.591,1.591,0,1,1,2.973,1.136,8.413,8.413,0,0,0-.212,2.436c1.319.664,2.872-.435,4.343-.3a13.964,13.964,0,0,1,2.839,1.077,14.839,14.839,0,0,0,2.337.387,9.422,9.422,0,0,1,2.04.556c.492.2,1.015.861.566,1.141a.75.75,0,0,1-.4.076l-10.843.006c.065.653.622,1.124,1.054,1.619s.757,1.263.345,1.773c-1.036.558-2.286-.2-3.113-1.041s-1.683-1.858-2.859-1.913c-1.058-.05-2.031.73-3.087.649-1.2-.092-2.07-1.254-3.243-1.54a6.016,6.016,0,0,0-3,.464,2.932,2.932,0,0,1-2.906-.365c-.554-.571-.7-1.539-1.426-1.87s-1.57.221-2.13.809-1.153,1.3-1.965,1.329c-1.181.048-1.858-1.3-2.23-2.421-2.442,2.083-6.031,2.094-9.183,1.486"/><path class="cls-7" d="M139.166,128.55c-2.82.142-5.755-.1-8.049-1.746-2.842-2.039-4.511-5.4-7.341-7.458-3.849-2.8-9.037-2.669-13.774-2.215-8.062.772-16.364,2.259-23.019,6.875-2.687,1.864-5.259,4.292-8.513,4.626-2.761.283-5.408-1.023-8.131-1.565a23.7,23.7,0,0,0-5.849-.285c-5.02.256-23.8,2.023-28.58,3.581,0,0,6.212,10.513,84.366,5.26,16.319-1.1,40.591.605,40.434-2.106S148.254,128.092,139.166,128.55Z"/><path class="cls-6" d="M83.707,127.008c1.144-1.138,1.629-2.761,2.432-4.161s2.252-2.71,3.838-2.412a1.6,1.6,0,0,0,.655.059c.585-.141.607-.943.638-1.544a3.951,3.951,0,0,1,3.1-3.568,1.127,1.127,0,0,1,.618.013c.668.255.549,1.321,1.108,1.767.653.52,1.56-.162,2.121-.781a7.626,7.626,0,0,1,2.713-2.139,2.957,2.957,0,0,1,3.231.541c.189.209.357.467.628.544.588.165.959-.584,1.3-1.093a2.5,2.5,0,0,1,3.156-.787,5.909,5.909,0,0,0,1.109.618,3.718,3.718,0,0,0,1.6-.12,9.386,9.386,0,0,1,3.526.322,9.069,9.069,0,0,1,5.978,2.975l3.74,3.718-6.364-2.395a11.515,11.515,0,0,0-4.221-1,3.917,3.917,0,0,0-3.572,2.077,2.911,2.911,0,0,1-.632,1.193c-.609.5-1.528.091-2.13-.415s-1.238-1.147-2.023-1.086c-1.417.112-1.887,2.355-3.3,2.488-1.389.131-2.07-1.835-3.414-2.206-1.038-.287-2.048.462-2.876,1.15-1.8,1.495-3.78,2.979-6.1,3.251a12.732,12.732,0,0,0-2.133.252c-1.788.524-2.842,2.48-4.6,3.093"/><path class="cls-8" d="M114.936,82.1s12.9-11.469,19.353-10.035,16.486,6.451,18.636,9.318.717,7.884-6.451,7.884S113.5,87.117,114.936,82.1Z"/><path class="cls-9" d="M119.6,90.522s11.11-5.2,15.231-5.376,4.839,4.121,8.064,4.838,1.972-.717,7.527-2.867,7.347-3.225,9.855-1.433,2.688,6.092,7.885,5.375,7.885-3.225,9.856-1.254.358,5.555,5.734,6.093,1.977-4.007,12.544-3.047a14.428,14.428,0,0,1,10.393,5.735c1.434,1.792,3.584,3.763,7.168,2.867s6.631-3.046,8.96-.179,6.989,4.48,6.989,4.48"/><path class="cls-10" d="M119.6,90.522q3.576-1.666,7.248-3.115a36.078,36.078,0,0,1,7.548-2.271,4.847,4.847,0,0,1,3.751,1.008c1.056.817,1.846,1.9,2.841,2.733a4.97,4.97,0,0,0,3.574,1.159,3.862,3.862,0,0,0,1.68-.875,16.7,16.7,0,0,1,1.685-1.05,33.859,33.859,0,0,1,3.628-1.578c1.223-.482,2.438-.987,3.692-1.411a5.725,5.725,0,0,1,3.951-.2,5.53,5.53,0,0,1,1.7,1.087,9.645,9.645,0,0,1,1.256,1.558,8.372,8.372,0,0,0,2.569,2.842,5.591,5.591,0,0,0,3.728.433,24.3,24.3,0,0,0,3.8-.945,17.082,17.082,0,0,1,3.853-1.02,2.635,2.635,0,0,1,1.948.69,4.089,4.089,0,0,1,1.08,1.741c.424,1.256.645,2.6,1.657,3.392a6.261,6.261,0,0,0,3.607,1.06,4.009,4.009,0,0,0,1.844-.311,6.508,6.508,0,0,0,1.512-1.174A6.471,6.471,0,0,1,191.4,92.7a20.129,20.129,0,0,1,3.971-.072,15.06,15.06,0,0,1,7.53,2.288,14.81,14.81,0,0,1,3.019,2.574,18.726,18.726,0,0,0,2.681,2.849,5.75,5.75,0,0,0,3.592,1.226,12.445,12.445,0,0,0,3.8-.865,13.735,13.735,0,0,1,3.842-.93,3.56,3.56,0,0,1,1.92.487,5.98,5.98,0,0,1,1.432,1.365,17.792,17.792,0,0,0,6.624,4.137,17.84,17.84,0,0,1-6.691-4.075,5.829,5.829,0,0,0-1.424-1.326,3.432,3.432,0,0,0-1.858-.444,13.61,13.61,0,0,0-3.781.973,12.45,12.45,0,0,1-3.857.9,5.981,5.981,0,0,1-3.737-1.254,18.82,18.82,0,0,1-2.727-2.867,14.556,14.556,0,0,0-2.978-2.515,14.766,14.766,0,0,0-7.4-2.209,19.787,19.787,0,0,0-3.9.087,6.12,6.12,0,0,0-3.468,1.508,6.8,6.8,0,0,1-1.59,1.236,4.365,4.365,0,0,1-2.006.353,6.6,6.6,0,0,1-3.838-1.125,3.948,3.948,0,0,1-1.177-1.676c-.251-.629-.4-1.275-.618-1.879a3.814,3.814,0,0,0-.97-1.58,2.23,2.23,0,0,0-1.667-.595,16.981,16.981,0,0,0-3.752.984,24.522,24.522,0,0,1-3.855.94,5.928,5.928,0,0,1-3.948-.491,8.651,8.651,0,0,1-2.666-2.956,9.3,9.3,0,0,0-1.207-1.514,5.21,5.21,0,0,0-1.6-1.03,5.435,5.435,0,0,0-3.754.194c-1.24.411-2.457.91-3.683,1.387a33.471,33.471,0,0,0-3.609,1.55,16.466,16.466,0,0,0-1.665,1.026,4.046,4.046,0,0,1-1.786.906,5.176,5.176,0,0,1-3.736-1.223c-1.023-.86-1.784-1.956-2.808-2.764a4.692,4.692,0,0,0-3.64-1.025,36.04,36.04,0,0,0-7.539,2.212Q123.184,88.88,119.6,90.522Z"/><path class="cls-8" d="M150.237,95s11.23-12.425,24.371.717c5.219,5.218,1.434,7.167-6.451,7.167S150.237,102.886,150.237,95Z"/><path class="cls-9" d="M95.4,135.5s12.544-6.809,20.787-5.017,4.3,6.809,11.827,6.092,7.168-6.451,15.053-3.942,8.959,3.942,11.468,4.3,6.81-8.243,13.261-5.734a20.7,20.7,0,0,1,9.318,6.809"/><path class="cls-10" d="M95.4,135.5a56.4,56.4,0,0,1,10.54-4.306,32.167,32.167,0,0,1,5.612-1.051,15.238,15.238,0,0,1,5.688.478,10.562,10.562,0,0,1,2.652,1.113A7.453,7.453,0,0,1,122,133.7a8.105,8.105,0,0,0,1.827,2.092,4.808,4.808,0,0,0,2.632.669,12.2,12.2,0,0,0,5.451-1.119c1.718-.755,3.093-2.119,4.867-2.954a6.8,6.8,0,0,1,2.853-.57,8.1,8.1,0,0,1,1.444.141,9.049,9.049,0,0,1,1.407.32c1.84.53,3.623,1.178,5.4,1.869s3.481,1.574,5.222,2.264a7.1,7.1,0,0,0,1.348.355,1.739,1.739,0,0,0,1.246-.328,16.948,16.948,0,0,0,2.184-1.78A18.561,18.561,0,0,1,162.5,131.3a6.642,6.642,0,0,1,5.6-.081,21.372,21.372,0,0,1,9.011,6.788,21.281,21.281,0,0,0-9.085-6.6,6.438,6.438,0,0,0-5.432.112,18.347,18.347,0,0,0-4.534,3.344,17.17,17.17,0,0,1-2.217,1.826,2.027,2.027,0,0,1-1.441.374,7.345,7.345,0,0,1-1.4-.36c-1.794-.7-3.466-1.57-5.244-2.235s-3.562-1.315-5.374-1.826a7.847,7.847,0,0,0-5.44.12c-1.682.771-3.095,2.143-4.876,2.921a12.558,12.558,0,0,1-5.617,1.119,5.123,5.123,0,0,1-2.8-.74,8.323,8.323,0,0,1-1.89-2.176,7.182,7.182,0,0,0-2.017-1.907,10.322,10.322,0,0,0-2.576-1.1,14.968,14.968,0,0,0-5.6-.5A32.5,32.5,0,0,0,106,131.384,56.364,56.364,0,0,0,95.4,135.5Z"/><path class="cls-11" d="M-1.841,125.107s16.247-5.5,20.548-2.867,7.168,6.929,11.946,5.734,10.513-5.256,15.531.478,10.274,8.84,15.769,7.646,6.929-6.451,12.185.239,12.425,10.512,14.1,7.884,1.673-8.362,11.23-.955"/></g></svg>