<svg id="word" xmlns="http://www.w3.org/2000/svg" viewBox="0 0 160 160"><defs><style>.cls-1{fill:#cfd0d2;}.cls-1,.cls-2,.cls-5{stroke:#9d4b9c;stroke-miterlimit:10;stroke-width:0.75px;}.cls-2{fill:none;}.cls-3{fill:#26a9e0;}.cls-4{fill:#ec1c24;}.cls-5{fill:#b3d9ec;}</style></defs><path class="cls-1" d="M131.016,74.9c.081,1.52.342,3.325,1.713,3.984a4.3,4.3,0,0,0,2.4.159l5.544-.689a16.112,16.112,0,0,0,4.147-.892c1.313-.536,2.974-.012,3.514-1.323s-.2-4.475-1.336-5.321"/><path class="cls-1" d="M43.884,63.255c.319-.318,1.061,38.4,1.061,38.4S43.036,120,50.993,121.165s19.852,1.409,22.292-1.032,1.472-23.671,2.957-28.021-3.288-5.2,4.456-6.684,48.8-9.312,54.64-10.479a74.646,74.646,0,0,0,12.412-3.82c.425-.212,2.547-7.532-6.047-9.23s-48.7,6.766-49.865,6.66-11.034.425-13.9-.954S72.423,60.5,72.423,60.5Z"/><path class="cls-1" d="M62.769,65.483a32.959,32.959,0,0,1-10.185-.319c-5.3-1.06-7.957-.742-9.867-3.288s-.318-9.443,5.835-15.065S65,37.156,79.637,38.111s23.553,4.668,24.083,5.517a1.694,1.694,0,0,1-.424,2.546c-1.061.743-4.032,3.5-5.729,2.758s-14.959-4.986-18.354-4.668-4.031.743-4.031.743l.106,15.065S67.119,65.271,62.769,65.483Z"/><path class="cls-2" d="M49.519,51.065c1.563-2.923,5.086-4.085,8.279-4.97,6.435-1.785,12.95-3.507,19.62-3.839S91,43.079,96.633,46.672"/><path class="cls-2" d="M59.338,69.225c1.513,4.132,5.86,6.689,10.214,7.335s8.769-.276,13.073-1.194c9.054-1.93,45.057-8.5,54.111-10.436,2.611-.556,5.423-1.1,7.871-.031"/><path class="cls-1" d="M56.285,118.1c.328-4.619,2.462-22.862,5.849-26.021a18.75,18.75,0,0,1,12.623-4.981"/><path class="cls-1" d="M55.5,60.78a10.347,10.347,0,0,1,2.15-8.369,16.764,16.764,0,0,1,7.2-5.081,45.646,45.646,0,0,1,8.634-2.2"/><path class="cls-1" d="M53.842,74.107c-.818-1.247-2.907-1.139-4.039-.141a6.635,6.635,0,0,0-1.784,3.984,37.873,37.873,0,0,0-.392,10.317,12.736,12.736,0,0,0,1.01,4.247,5.841,5.841,0,0,0,3.127,3.039,6.463,6.463,0,0,0,6.048-1.327,18.173,18.173,0,0,0,3.877-4.966,16.965,16.965,0,0,1,3.938-4.915,12.294,12.294,0,0,1,6.18-2.217,37.26,37.26,0,0,1,6.678.1"/><path class="cls-3" d="M73.393,55.485a2.789,2.789,0,0,1-1.278,1.86l-.033-.079-.212-6.383c.066-.006.126-.006.192-.006C75,50.95,73.975,53.512,73.393,55.485Z"/><path class="cls-4" d="M72.082,57.266l.033.079a.984.984,0,0,1-.265.093,1.785,1.785,0,0,1-1.834-1.1,5.253,5.253,0,0,1-.318-2.265,3.438,3.438,0,0,1,.841-2.741,2.177,2.177,0,0,1,1.331-.45Z"/><path class="cls-2" d="M72.115,57.345a2.789,2.789,0,0,0,1.278-1.86c.582-1.973,1.6-4.535-1.331-4.608-.066,0-.126,0-.192.006a2.177,2.177,0,0,0-1.331.45,3.438,3.438,0,0,0-.841,2.741,5.253,5.253,0,0,0,.318,2.265,1.785,1.785,0,0,0,1.834,1.1A.984.984,0,0,0,72.115,57.345Z"/><polyline class="cls-2" points="71.863 50.758 71.87 50.883 72.082 57.266"/><path class="cls-5" d="M142.021,80.5a8.868,8.868,0,0,0-1.986,6.963c.632,4.16,4.784,2.351,4.333.814S142.021,80.5,142.021,80.5Z"/><path class="cls-5" d="M140.072,94.014a6.733,6.733,0,0,0-1.5,5.269c.476,3.147,3.6,1.779,3.263.615S140.072,94.014,140.072,94.014Z"/></svg>