<svg id="word" xmlns="http://www.w3.org/2000/svg" viewBox="0 0 160 160"><defs><style>.cls-1{fill:#cec7b4;}.cls-1,.cls-10,.cls-11,.cls-2,.cls-3,.cls-4,.cls-5,.cls-6,.cls-7,.cls-8,.cls-9{stroke:#9d4b9c;stroke-miterlimit:10;stroke-width:0.6px;}.cls-2{fill:#f0e6ce;}.cls-3{fill:#d2cab7;}.cls-4{fill:#fff230;}.cls-5{fill:#f58835;}.cls-6{fill:#f1728f;}.cls-7{fill:#6dbd45;}.cls-8{fill:#e23e33;}.cls-9{fill:#353435;}.cls-10{fill:#570200;}.cls-11{fill:#46b8ea;}</style></defs><path class="cls-1" d="M21.07,67S19.294,68.7,19.422,74.61s4.866,9.5,4.678,10.561S40.861,107.35,45.471,107.35a60.647,60.647,0,0,0,16.167-2.535c5.887-1.69,84.862-29.281,84.862-29.281V68.5Z"/><path class="cls-2" d="M42.461,62.641l59.75-11.918s8.722-3.529,12.211-1.323,26.186,15.7,26.186,15.7,10.48,1.986,3.486,6.074-85.5,29.371-85.5,29.371-6.542,4.161-13.084,0S24.579,76.3,24.579,76.3s-8.722-9.958,0-11.2S42.461,62.641,42.461,62.641Z"/><path class="cls-3" d="M36.342,79.891l81.339-20.066s3.707-2.324,3.489,1.056-9.813,4.224-10.686,4.435S40.7,83.059,40.7,83.059,27.837,84.96,36.342,79.891Z"/><ellipse class="cls-4" cx="105.814" cy="56.128" rx="8.661" ry="3.908"/><ellipse class="cls-5" cx="85.373" cy="61.62" rx="8.661" ry="3.908"/><ellipse class="cls-6" cx="124.005" cy="69.435" rx="8.661" ry="3.908"/><ellipse class="cls-7" cx="39.303" cy="71.227" rx="8.661" ry="3.908"/><ellipse class="cls-8" cx="61.778" cy="65.528" rx="8.661" ry="3.908"/><ellipse class="cls-9" cx="58.017" cy="88.602" rx="9.711" ry="4.381"/><ellipse class="cls-10" cx="81.942" cy="81.372" rx="9.845" ry="3.937"/><ellipse class="cls-11" cx="104.069" cy="75.135" rx="8.661" ry="3.908"/></svg>