<svg id="word" xmlns="http://www.w3.org/2000/svg" viewBox="0 0 160 160"><defs><style>.cls-1{fill:#e4d5a2;}.cls-1,.cls-2,.cls-3{stroke:#9d4b9c;stroke-miterlimit:10;stroke-width:0.696px;}.cls-2{fill:none;}.cls-3{fill:#f49022;}</style></defs><path class="cls-1" d="M93.194,95.991s2.171,31.041,2.5,33.087c.516,3.2,2.455,3.258,3.544,3.259,1.9,0,.3-16.346.3-16.346L98.428,95.464Z"/><polygon class="cls-1" points="74.473 103.727 114.284 99.967 114.059 104.238 74.165 108.593 74.473 103.727"/><path class="cls-1" d="M112.551,91.47s3.11,27.245,3.029,29.411,1.318,23.416,4.329,23.5c3.661.1,2.15-11.834,2.15-11.834L119,89.506Z"/><polygon class="cls-1" points="61.084 98.469 69.417 102.078 68.62 109.299 60.677 103.821 61.084 98.469"/><path class="cls-1" d="M52.372,35.665s3.375,25.276,3.978,29.322,1.6,14.331,1.6,14.331L62.169,76.9s-3.045-20.865-4.218-30.307C57.206,40.6,57,29.234,57,29.234H51.866Z"/><path class="cls-1" d="M102.864,25.27,99.672,66.7l-3.25.1s2.508-30.185,2.547-31.408c.114-3.618.114-11.584.114-11.584Z"/><line class="cls-2" x1="68.62" y1="27.278" x2="72.153" y2="72.705"/><line class="cls-2" x1="78.191" y1="26.009" x2="79.328" y2="72.654"/><line class="cls-2" x1="87.77" y1="23.807" x2="86.971" y2="69.732"/><path class="cls-1" d="M56.7,87.662s-6.9,33.572-7.127,35.19c-.674,4.853-3.1,12.983-.505,13.752,4.565,1.352,8.45-20.275,8.45-20.275l6.049-26.823Z"/><path class="cls-1" d="M70.2,90.947l-4.809,41.141s-3.678,15.946.112,17.5,3.24-5.552,3.24-5.552l5.033-33.365,2.834-16.763Z"/><path class="cls-1" d="M55.551,84.565l1.146,3.1s11.419,2.655,17.18,5.4c2.15,1.025,9.623,3.885,21.331,3s23.131-4.2,24.274-6.563S122.554,78.2,122.554,78.2,109.982,89.247,98.659,89.48s-33.635-6.595-35.984-7.629a57.435,57.435,0,0,0-6.128-2.088Z"/><path class="cls-3" d="M56.547,79.763s-2.958-6.547,16.665-7.48c12.5-.595,15.74-5.315,23.21-5.484s15.1.414,20.539,4.106,5.981,3.587,5.593,7.3-2.566,4.212-2.566,4.212-10.9,6.861-22.752,7.052C81.716,89.715,56.547,79.763,56.547,79.763Z"/><path class="cls-3" d="M57.3,75.914s-3.766-.45-5.676.787a89.63,89.63,0,0,0-6.969,5.957L46.9,85.3s2.979-5.788,5.451-6.688,4.721-1.686,4.721-1.686Z"/><path class="cls-3" d="M57.62,75.919a2.047,2.047,0,0,0-1.349-1.653,6.012,6.012,0,0,0-2.216-.307c-1.035-.013-2.239-.737-3.22-.406-1.368.463-2.3,2.255-3.642,2.8a10.5,10.5,0,0,1-3.76.531c-1.71.032-3.614-.007-4.848-1.191L37.347,77.15s4.072,2.341,6.632,2.136A8.58,8.58,0,0,0,49.711,76.7c1.236-1.237,3.2-2.417,5.114-1.967A7.226,7.226,0,0,1,57.62,75.919Z"/><path class="cls-1" d="M104.656,14.329c-2.073-2.343-15.5-5.128-28.043-3.789s-25.962,5.128-25.9,8.113,1.659,14.3,1.659,14.3a66.646,66.646,0,0,1,25.819-6.945c14.372-.7,24.673-.739,24.673-.739S106.728,16.673,104.656,14.329ZM91.13,19.49c-2.7-.674-24.5,2.248-24.5,2.248s-1.8-2.7,2.7-4.945,15.062-3.372,18.883-1.8S93.827,20.164,91.13,19.49Z"/></svg>