<svg id="word" xmlns="http://www.w3.org/2000/svg" xmlns:xlink="http://www.w3.org/1999/xlink" viewBox="0 0 160 160"><defs><style>.cls-1{fill:none;}.cls-2{clip-path:url(#clip-path);}.cls-3{fill:#bb9f82;}.cls-3,.cls-4,.cls-5,.cls-7,.cls-8{stroke:#9c4c9c;stroke-miterlimit:10;}.cls-3,.cls-4,.cls-5{stroke-width:0.638px;}.cls-4{fill:#e2cdb3;}.cls-5{fill:#cead8e;}.cls-6{fill:#005d4d;}.cls-7{fill:#fff;}.cls-7,.cls-8{stroke-width:0.255px;}.cls-8{fill:#e8e7e7;}</style><clipPath id="clip-path"><rect class="cls-1" x="14" y="14" width="132" height="132"/></clipPath></defs><g class="cls-2"><rect class="cls-3" x="14.956" y="133.114" width="25.876" height="5.409"/><polygon class="cls-4" points="14.483 -104.487 15.238 133.551 131.495 54.965 131.495 -103.592 14.483 -104.487"/><polygon class="cls-5" points="131.495 54.965 148.481 54.982 40.906 134.468 15.189 132.892 131.495 54.965"/><path class="cls-3" d="M148.687,54.748c-.536-1.152-107.893,78.519-107.893,78.519l.063,5.255L147.921,60.073S149.631,56.775,148.687,54.748Z"/><polygon class="cls-6" points="18.875 -100.085 19.584 121.109 127.773 55.385 128.165 -100.112 18.875 -100.085"/><path class="cls-7" d="M55.571,104.883s-17.774,3.123-17.726,4.18,5.477,4.179,5.477,4.179,20.608-5.332,20.848-6.005S55.571,104.883,55.571,104.883Z"/><path class="cls-8" d="M37.413,114.4l.72,3.939c1.9,1.081,4.224,3.232,5.525,2.834l-.048-7.878s-4.708-5.092-5.717-4.324S37.413,114.4,37.413,114.4Z"/><polygon class="cls-8" points="64.074 107.477 62.489 115.115 43.475 121.272 43.466 113.242 64.074 107.477"/></g></svg>