<svg id="word" xmlns="http://www.w3.org/2000/svg" viewBox="0 0 160 160"><defs><style>.cls-1{fill:#37c2f2;}.cls-1,.cls-4{stroke:#9c4c9c;}.cls-2{fill:#4591ce;}.cls-3{fill:#fff;stroke:#221f1f;}.cls-4{fill:#4dabde;}</style></defs><path class="cls-1" d="M116.974,52.747s1.435,5.738-1.844,6.148-4.918-10.246-3.074-13.73,6.353-5.124,14.14-2.664,12.705,5.533,11.681,18.034-9.222,21.926-15.37,25-12.91,3.484-13.114,7.173.409,8.812-1.845,8.812-1.434-14.55-1.434-14.55,13.525-4.3,18.032-10.247,10.247-19.056,7.993-24.18-9.017-5.943-11.476-4.918S116.974,52.747,116.974,52.747Z"/><path class="cls-1" d="M36.484,38.705,48.326,113.2l3.279,13.731s7.581,9.834,24.18,10.244S99.352,130,100.376,126.315,113.7,40.657,113.7,40.657Z"/><path class="cls-2" d="M39.21,52.123c-.277-.057-.047.36-.228.041C39.093,52.049,39.2,51.974,39.21,52.123Z"/><path class="cls-2" d="M108.169,54.674c-1.78,2.665-6.285,2.772-7.258,3.523-3.943,2.958-6.04,2.27-10.776,3.218-.243-.877-6.344,2.347-5.649-.1-1.331.707-1.188,1.322-1.917,1.272.029.634-.849.291-.617-.266-.413.025-1.089.6-.584.464-1.5.8-2.065.507-4.369.7-.236.865-.906-.315-.149-.107-.85.575-.767-.46-1.258-.034-1.136,1.047-.089-.863-1.46.469-1.33-.9-3.034.147-2.837-.84-.536-.612-.665,1.164-1.028.35-.88.326-2.411-.086-1.963-.574-1.3,1.186-1.255-.45-2.074-.144-.246-.517.135.449-.287.5-.018-.757-.8.233-.625-.34.234.31.2-.451-.055-.2-.144.485-.394.582-.106.092-.553-.048-1.959.465-2.106-.632-.294.784-3.157.993-2.99-.407-.329.117-.313,1.277-1.117.374-.486-.033-3.027-.392-4.807-.542.279-1.169-.351-.318-.831-.064-.3-.589.729-1.086.38-1.642.492-1.527-.473.978-.944,1,1.006-.865-.995.048-.678.264-.771.46-.073-.476-.218-.838-.557,1.309-.434-.126-.917.435-.013-.545-1.351-.9-.59.007-.184-.3-.391-.094-.758.017.217-.364,0-.286-.1-.026-.238-.063-.145-.682.087-.693-.375-.563-.485.741-.872.393,1.192-1.646-1.9.842-.325-2.16-1.429,1.034-.508,1.632-1.515.638-.22.345-.164.772-.594.587.095-.7.882-.684.6-1.293-.859.13-.009.4-.945.534.378.77-.208.393-.669.562-.311-.8,1.338-.412.083-.785.737-1.215-.57.042-1.111-.151-.046-.732,1.477.219,1.42-1.589-.993,1.1-.987.561-2.092-.228-.294.145-.634,1.5-.445.831-.62-.106,1.219-1.748-.8-1.361-.129-.5-.776-.4-1.059-.527-.042-.261.273-.616.162-.772-.181-.093-.109.515-.268.179l.069-.067c-.132.049-.327-.549-.727-.01L40.8,54.3c-.026-.068-.127.007-.194.031.078-.145.094-.307.225-.356.009-.393-.363-.143-.545-.231l-.034.323c-.414.031-.469-.339-.811-.414l.154-.247-.259.052c.184-.219.118-.466-.092-.314l.8-.362c.037.219-.311.227-.378.519-.059.255.249.339.431.121-.087-.087-.123-.034-.255.012.168-.37.316-.269.526-.46-.062-.016-.076-.165-.151-.06a.449.449,0,0,1,.5.011c-.2.071-.06.254-.162.33.191-.3.409-.3.575-.1-.047.448.53,0,.723.239a1.723,1.723,0,0,1-.766.481c.071.247.18.09.25.34.206-.193.457-.524.738-.553,10.239,5.1,23.3,5.168,34.873,6.928,3.749-.469,15.053-2.9,19.6-2.887C97.913,56.731,109.163,51.975,108.169,54.674Z"/><path class="cls-2" d="M39.511,52.244c-.06.214.044.409-.232.582Z"/><path class="cls-2" d="M42.9,56.608c.133.014-.127.327-.168.148C42.8,56.771,42.833,56.675,42.9,56.608Z"/><path class="cls-2" d="M44.024,57.315c-.1.168-.42.178-.579.122Z"/><path class="cls-2" d="M44.839,58.532c.034.191-.029.26-.161.2Z"/><path class="cls-2" d="M45.1,58.169c.1.037.1.161.1.282C45.26,58.3,44.935,58.448,45.1,58.169Z"/><path class="cls-2" d="M47.4,59.716c.067.009.256-.091.239.129C47.627,59.682,47.253,59.961,47.4,59.716Z"/><path class="cls-2" d="M48.689,59.881c.16.042.108.218-.044.239Z"/><path class="cls-2" d="M70.885,63.438l-.14.086C70.776,63.393,70.751,63.274,70.885,63.438Z"/><path class="cls-2" d="M80.7,63.552c.127-.125.1.176.124.2C80.708,63.78,80.86,63.518,80.7,63.552Z"/><path class="cls-2" d="M85.876,62.211c-.081.08-.047-.375-.067-.382Z"/><path class="cls-2" d="M40.65,61.1c-.207-.165-.052.187-.175-.085C40.566,61,40.649,61.006,40.65,61.1Z"/><path class="cls-2" d="M109.1,61.783c-.6.8-1.838.774-2.56,1.465-7.787,3.681-15.9,4.813-22.327,5.775-8.138,1.708-16.173.924-25.43-.789-1.975-.183-4.359.331-3.675-1.3-.576.684-1.854,1.391-1.733.493-.571.7-1.333-.552-1.734.227-.858-.153-.237-.647-1.178-.2.575-.561-.528-.287-.587-.126-.6-.624.063-1.57-.9-.341-.595-.932-.354-.063-.969-.11.953-1.038-.535-.713-.348-.107-1.122-.091.17-.914-1.81-.623-.408-.581,1.408.5.908-.747-.761.861-1.412-.647-2.3-.2.417.654-.252.21.081-.327-.383-.366-2.156-.461-2.045-1.366-.177-.1-.008.287-.209.043l.051-.023c-.112,0-.382-.412-.659-.192l.231-.152-.169-.031c.046-.066.037-.158.147-.155-.067-.211-.315-.211-.454-.36l-.011.209c-.315-.177-.372-.461-.635-.681l.118-.086-.2-.095c.141-.053.095-.242-.069-.249l.608.15c.027.159-.231,0-.283.161-.045.139.2.348.325.284-.066-.1-.092-.079-.191-.112.124-.166.234-.03.384-.063-.045-.038-.054-.142-.109-.108a.556.556,0,0,1,.357.227c-.137-.037-.038.145-.108.152.139-.128.261-.011.419.165.022.252.464.122.663.306a1.048,1.048,0,0,1-.6.108c.1.164.173.1.275.263,19.435,5.216,41.427,7.91,62.829-.86A17.222,17.222,0,0,0,109.67,60.8,1.271,1.271,0,0,1,109.1,61.783Z"/><path class="cls-2" d="M40.87,61.308c-.054.1.02.27-.194.245C40.746,61.48,40.778,61.348,40.87,61.308Z"/><path class="cls-2" d="M44.245,65.064c.142.052-.056.158-.12.066Z"/><path class="cls-2" d="M45.456,65.586c-.051.083-.344.055-.506.007Z"/><path class="cls-2" d="M46.5,66.383c.079.1.038.139-.1.1Z"/><path class="cls-2" d="M46.642,66.2a.234.234,0,0,1,.164.154C46.826,66.27,46.564,66.341,46.642,66.2Z"/><path class="cls-2" d="M49.139,67.12c.064.008.215-.035.249.083C49.34,67.114,49.06,67.245,49.139,67.12Z"/><path class="cls-2" d="M50.366,67.232c.137-.012.165.117.012.124Z"/><path class="cls-2" d="M72.094,69.982l-.134.042C71.967,69.908,72.017,69.942,72.094,69.982Z"/><path class="cls-2" d="M81.718,69.729c.124-.073.1.08.119.093C81.722,69.843,81.872,69.7,81.718,69.729Z"/><path class="cls-2" d="M86.813,68.743c-.073.061-.036-.169-.051-.187Z"/><path class="cls-2" d="M41.078,68.615c-.236-.08.023.2-.179-.014C40.97,68.552,41.043,68.526,41.078,68.615Z"/><path class="cls-2" d="M105.568,68.981c-7.938,2.893-16.578,6.142-22.179,5.576a16.044,16.044,0,0,1-8.142,1.38,35.475,35.475,0,0,1-8.543-.456c-.49.33-4.746-.4-6.706-.387-1.274-.83-5.572.1-4.889-1.474.484-.921-1.02,1.046-.462.339-.666-.1-.533.282-1.176.318.564-1.135-.543.344-.18-.336-1.17-.095-.8-.367-1.628.026-.517-.306.058-.594-.817-.182.628-.587-.582-.226-.54-.131-.535-.662.093-1.535-.819-.331-.363-1.014-1.078.6-.709-.524.595-.053-.236-.364-.641.032.449.4-.1.214-.446.29-.277-.586.3-.007.358-.363-.746.142.023-.357-.678-.354-1.135.417-.823.027.243-.125-.136-.075-2.422-1.241-2.189-.109-.267-.448.279-1.038-.992-.972-.226-.3-.745-.3-1.012-.4-.1-.151.085-.327-.046-.424-.175-.065.03.283-.185.081l.043-.032c-.1.018-.4-.333-.621-.061l.185-.2-.158,0c.032-.075.008-.165.108-.183-.083-.222-.325-.142-.493-.222l.038.191c-.333-.05-.454-.285-.749-.388l.08-.122-.2-.013a.122.122,0,0,0-.134-.2l.589-.082c.071.137-.21.084-.21.248,0,.144.27.247.375.145-.087-.067-.107-.04-.2-.035.066-.195.2-.11.338-.191-.053-.019-.093-.111-.134-.061a.539.539,0,0,1,.405.087c-.143.012,0,.145-.064.174.092-.152.267-.119.44.034.058.257.446.04.661.19a.98.98,0,0,1-.534.215c.117.144.173.064.291.209.129-.093.264-.261.494-.257,10.247,3.157,21.259,4.167,32.158,4.366C84.022,75.428,99.822,68.288,105.568,68.981Z"/><path class="cls-2" d="M41.344,68.736c-.012.116.108.249-.086.306Z"/><path class="cls-2" d="M45.113,71.639c.129.033-.039.165-.107.075Z"/><path class="cls-2" d="M46.242,72.058c-.046.086-.315.082-.464.047Z"/><path class="cls-2" d="M47.206,72.773c.071.106.034.141-.091.1Z"/><path class="cls-2" d="M47.341,72.587l.15.151C47.51,72.657,47.268,72.735,47.341,72.587Z"/><path class="cls-2" d="M49.63,73.453c.059.007.2-.04.229.077C49.817,73.443,49.554,73.578,49.63,73.453Z"/><path class="cls-2" d="M50.762,73.563c.132-.009.144.12.007.123Z"/><path class="cls-2" d="M70.969,75.984l-.123.045C70.853,75.92,70.892,75.939,70.969,75.984Z"/><path class="cls-2" d="M79.905,75.916c.117-.065.09.086.111.1C79.907,76.03,80.049,75.9,79.905,75.916Z"/><path class="cls-2" d="M84.634,74.9c-.067.058-.036-.174-.05-.188Z"/><path class="cls-2" d="M43.1,76.066c-.239-.063.039.2-.178,0C42.99,76.011,43.06,75.979,43.1,76.066Z"/><path class="cls-2" d="M105.475,78.157c-7.117,4.247-16.054,6.375-21.408,5.726a17.756,17.756,0,0,1-7.989,1.141,36.055,36.055,0,0,1-8.339-.623,28.623,28.623,0,0,1-6.982-.871c-.918.213-3.754-1.025-4.061-.718-.946-.02.135-.715-.1-1.1-1.015.9-.708.493-1.77.824.51-.841-.6-.01-1.083-.768-.684.089.391.187-.38.293-.449-.239-.361-.131-.552-.6-.66.668.006.144-.468-.154-.587.4-.888-.052-.556-.787-.766.884-1.267-.236-1.151.419-1.091.219.29-.415-.129-.617-.653-.068-.641.984-1.233.215.609.1.36-.218-.18-.483-.2.341-1.034.143-.789-.151.472.671,1.375-.3.738-.43-.4.622-2.026-.722-1.769,0,.136-1.061-1.643-.94-2.009-1.707-.1.014-.378-.35-.595-.084l.184-.19-.151,0c.033-.074.013-.166.111-.18-.074-.224-.327-.121-.494-.191l.039.182c-.332-.026-.453-.245-.747-.324l.074-.126-.2,0a.119.119,0,0,0-.141-.191l.579-.123c.077.13-.206.1-.2.259,0,.14.274.221.377.115-.088-.059-.107-.033-.2-.02.06-.195.2-.121.334-.209-.054-.016-.1-.1-.137-.051a.548.548,0,0,1,.413.061c-.145.019,0,.14-.063.172.092-.153.272-.13.451.008C60.552,85.177,87.932,84.557,105.475,78.157Z"/><path class="cls-2" d="M43.374,76.168c0,.117.122.241-.066.312Z"/><path class="cls-2" d="M47,79.076c.018-.027.042.067.048.089C46.9,79.187,46.845,79.147,47,79.076Z"/><path class="cls-2" d="M48.033,79.627c-.052.081-.308.045-.447-.006Z"/><path class="cls-2" d="M48.893,80.409c.059.106.019.139-.1.095Z"/><path class="cls-2" d="M49.046,80.232a.2.2,0,0,1,.13.16C49.2,80.314,48.959,80.371,49.046,80.232Z"/><path class="cls-2" d="M51.189,81.269c.057.012.2-.023.215.095C51.372,81.274,51.1,81.387,51.189,81.269Z"/><path class="cls-2" d="M52.279,81.494c.131.006.125.136-.007.123Z"/><path class="cls-2" d="M71.9,84.935l-.122.04C71.789,84.866,71.826,84.887,71.9,84.935Z"/><path class="cls-2" d="M80.622,85.051c.115-.063.085.088.106.1C80.622,85.165,80.762,85.033,80.622,85.051Z"/><path class="cls-2" d="M85.267,84.254c-.068.057-.028-.175-.042-.189Z"/><path class="cls-2" d="M43.556,83.207c-.2-.1-.018.2-.164-.03C43.469,83.138,43.541,83.119,43.556,83.207Z"/><path class="cls-2" d="M101.646,85.788c-7.366,3.364-15.111,5.1-20.589,4.526-2.033,1.045-5.406.959-6.971.747a27.278,27.278,0,0,1-7.709-.906c-.515.246-4.608-.633-6.348-.749-1.322-.665-4.653.117-4.052-1.312.3-.671-.747.679-.931.614-.119-.484-.169.212-.543.109.466-1.088-.463.321-.168-.331-1.065-.048-.739-.316-1.481.114-.5-.3.121-.6-.75-.153.649-.888-1.15.341-.721-.775.243-.793-.394.062-.529.372-.333.009-.041-.717-.468-.361-.1.764-.648-.146-.019-.043.111-.491-.608-.419-.347-.049-.645-.2.017.36-.827.286-.244-.571.275-.016.34-.364-.506.246-.265-.871-.718-.143-1.331-.133-.289-.038.33-.332a3.764,3.764,0,0,0-2.1-.515c.2.818-.022-.09-.048-.53a1.7,1.7,0,0,1-.735-.032c-.178-.309-.654-.341-.892-.456-.072-.154.12-.316.01-.418-.153-.075-.008.277-.182.068l.045-.03c-.1.011-.33-.348-.57-.1l.2-.179-.147-.007c.041-.071.032-.159.128-.17-.045-.218-.276-.164-.418-.255l0,.189c-.3-.079-.372-.318-.627-.445l.095-.11-.186-.031c.119-.087.056-.248-.088-.209l.558-.026c.041.138-.208.063-.237.221-.025.138.207.263.32.173-.068-.072-.09-.049-.182-.052.094-.182.208-.087.343-.155-.045-.023-.066-.115-.111-.07a.447.447,0,0,1,.354.118c-.132,0-.023.14-.088.163.11-.139.263-.093.395.07.014.251.4.062.577.219a.937.937,0,0,1-.52.179c.087.146.15.072.239.22.131-.083.278-.239.486-.224l-.054.122c.187.021.278-.155.454-.021C54.286,88,63.5,87.172,71.786,89.48,80.039,90.966,95.417,86.073,101.646,85.788Z"/><path class="cls-2" d="M43.779,83.346c-.033.11.053.248-.138.284Z"/><path class="cls-2" d="M46.861,86.4c.116.032-.046.164-.106.072Z"/><path class="cls-2" d="M47.882,86.845c-.047.084-.3.074-.434.036Z"/><path class="cls-2" d="M48.751,87.538c.064.1.028.137-.088.1Z"/><path class="cls-2" d="M48.883,87.348l.134.148C49.037,87.416,48.81,87.494,48.883,87.348Z"/><path class="cls-2" d="M50.985,88.163c.054,0,.185-.051.211.063C51.157,88.142,50.915,88.293,50.985,88.163Z"/><path class="cls-2" d="M52.026,88.227c.126-.011.128.118.007.123Z"/><path class="cls-2" d="M70.2,90.888l-.115.032C70.1,90.816,70.13,90.831,70.2,90.888Z"/><path class="cls-2" d="M78.3,91.247c.109-.061.077.089.1.1C78.292,91.361,78.426,91.232,78.3,91.247Z"/><path class="cls-2" d="M82.624,90.64c-.067.052-.021-.178-.035-.191Z"/><path class="cls-2" d="M47.265,92.463c-.181-.1-.049.176-.154-.034C47.192,92.4,47.265,92.384,47.265,92.463Z"/><path class="cls-2" d="M100.877,93.823c-5.339,2.056-8.833,3.5-13.87,3.848-.783,0-4.678,1.375-4.682.2a12.867,12.867,0,0,1-6.979.679,48.207,48.207,0,0,1-6.937-.946,28.878,28.878,0,0,1-5.8-.425c-.627.234-2.948-.129-3.649-.075-.539.377-.017-.613-.175-.984-.731,1.056-.505.585-1.358,1.126.242-.551-.1-.564-.167-.028-.051-.546-.55-.06-.867-.444-.57.227.343.111-.277.37-.4-.144-.331-.028-.56-.459-.442.752.023.183-.421-.045-.456.521-.737.115-.586-.638-.507,1.05-1.089-.012-.922.628-.889.385.181-.449-.192-.587-.566.051-.451,1.065-1.034.422.579.01.234-.239-.209-.444-.114.372-.9.293-.7-.024.929.833.814-1.312.583-.212-.758-.262-1.732-.39-1.546-.026-.393-.036.143-.405-.158-.75-1.306.215-1.81-1.027-2.146-.977.062-.47-.86-.342-.972-1.006.292.057.826-.151.287.2.293.361.331-.42.942.224,5.568,2.814,15.9,1.328,24.181,3.057C79.633,99.383,94.981,93.419,100.877,93.823Z"/><path class="cls-2" d="M47.457,92.6c-.049.1.016.232-.173.258Z"/><path class="cls-2" d="M50.259,95.422c.107.018-.035.168-.1.08Z"/><path class="cls-2" d="M51.226,95.774c-.04.088-.274.1-.4.073Z"/><path class="cls-2" d="M52.061,96.4c.063.094.031.133-.077.109Z"/><path class="cls-2" d="M52.175,96.2l.13.135C52.32,96.256,52.114,96.353,52.175,96.2Z"/><path class="cls-2" d="M54.153,96.857c.05,0,.167-.065.2.047C54.311,96.825,54.094,96.992,54.153,96.857Z"/><path class="cls-2" d="M55.114,96.833c.123-.02.117.109.013.122Z"/><path class="cls-2" d="M71.918,98.216l-.106.034C71.828,98.155,71.848,98.154,71.918,98.216Z"/><path class="cls-2" d="M79.334,98.885c.1-.055.068.093.085.108C79.328,99,79.455,98.877,79.334,98.885Z"/><path class="cls-2" d="M83.341,98.324c-.062.051-.019-.181-.032-.192Z"/><path class="cls-2" d="M48.184,99.723c-.185-.082-.042.173-.156-.024C48.109,99.665,48.181,99.647,48.184,99.723Z"/><path class="cls-2" d="M101.69,99.417c-7.817,4.27-16.528,4.6-21.133,5.5-4.694,1.015-9.208-.573-12.694.083-.645-.366-2.446.815-3.16-.285-.521.542-1.87.367-2.653-.138a2.411,2.411,0,0,1-2.363-.177c-.276.175.43-1.583-.092-.41-.881.409-.337.208-1.25.587.294-.53-.068-.57-.163-.04-.013-.548-.54-.1-.828-.5-.585.187.332.133-.3.35-.094-.216-.657.064-.335-.387-.29-.309-.3.389-.572.23.684-.849-1.2.317-.545-.73-.079-.718-.311-.076-.593.363-.143-.256-.547-.746-.382-.131-.931.5.516-1.033-.442-.471.191.363-.175-.127-.308.185.382.378-.082.215-.38.312-.232-.428.732-.281-.082-.406.379-.68-.529.08-.822-.037-.272-.45,1.1.18.727-.867-.5,1.065-1.761-.893-1.733.527-.28-.321.363-1.149-.824-.876a17.2,17.2,0,0,1-2.307-1.586c-.607-.233.625-.46.046-.046.367.142.459-.206,1.526.255,6.261,3.029,19.108,1.839,27.555,3.053C84.352,104.064,96.967,99.247,101.69,99.417Z"/><path class="cls-2" d="M48.381,99.841c-.044.1.027.227-.159.266Z"/><path class="cls-2" d="M51.334,102.456c.1.016-.03.17-.093.08Z"/><path class="cls-2" d="M52.283,102.813c-.04.088-.269.1-.4.071Z"/><path class="cls-2" d="M53.091,103.434c.059.1.027.134-.079.107Z"/><path class="cls-2" d="M53.21,103.238l.123.141C53.351,103.3,53.145,103.387,53.21,103.238Z"/><path class="cls-2" d="M55.128,103.969c.049,0,.168-.056.191.057C55.285,103.943,55.062,104.1,55.128,103.969Z"/><path class="cls-2" d="M56.079,104.005c.123-.013.108.116,0,.122Z"/><path class="cls-2" d="M72.942,105.015l-.1.039C72.85,104.96,72.87,104.954,72.942,105.015Z"/><path class="cls-2" d="M80.4,105.279c.1-.064.073.087.091.1C80.4,105.394,80.523,105.26,80.4,105.279Z"/><path class="cls-2" d="M84.366,104.459c-.058.053-.033-.179-.046-.189Z"/><path class="cls-2" d="M49.391,107.169c-.2-.021.044.191-.149.029C49.294,107.134,49.351,107.091,49.391,107.169Z"/><path class="cls-2" d="M101.612,106.772c-5.069,2.315-8.411,3.618-13.262,4.344-.9.028-4.221,1.693-4.516.519a10.247,10.247,0,0,1-6.6,1.023c-.631.184-2.8.154-3.155-.26a7.106,7.106,0,0,1-3.725-.213,21.687,21.687,0,0,1-5.691-.339c-.618.226-2.879-.361-3.558-.361-.468.362,0-.628-.076-.989-.814.987-.54.564-1.417,1.011.282-.519-.043-.577-.158-.045,0-.546-.516-.128-.792-.527-.569.181.314.139-.3.348-.372-.174-.313-.045-.5-.5-.484.707.006.2-.4-.074-.666.82-.328-.563-.752-.635-.3,1.117-.411,0-1.05.639.618-1.125-.081-.629-.429-.056-.921-.091.416-.37-.376-.423.461-.753-1.076.411-.836-.316.494.378.881-.066.753-.592-.1.19-1.044.63-.706.187-1.281-.477-.683.39-1.229.141.862-.832-2.606-1.033-1.939-1.57-.458-.071-1.778-.1-.792-.6-.287.808.257-.274.833.163,5.7,2.189,16.584,2.285,24.212,3.488C82.439,112.645,95.938,106.53,101.612,106.772Z"/><path class="cls-2" d="M49.625,107.223c0,.114.116.213-.037.313Z"/><path class="cls-2" d="M52.853,109.414c.1.009-.025.17-.088.085Z"/><path class="cls-2" d="M53.77,109.717c-.038.089-.258.111-.38.091Z"/><path class="cls-2" d="M54.545,110.325c.055.1.024.135-.077.106Z"/><path class="cls-2" d="M54.66,110.129l.118.144C54.8,110.191,54.6,110.278,54.66,110.129Z"/><path class="cls-2" d="M56.5,110.867c.047,0,.164-.056.184.057C56.653,110.842,56.435,111,56.5,110.867Z"/><path class="cls-2" d="M57.423,110.906c.122-.01.1.118,0,.123Z"/><path class="cls-2" d="M73.788,112.625l-.1.041C73.7,112.573,73.715,112.565,73.788,112.625Z"/><path class="cls-2" d="M81,112.848c.1-.064.072.087.089.1C81,112.962,81.12,112.83,81,112.848Z"/><path class="cls-2" d="M84.855,112.02c-.055.051-.034-.18-.047-.189Z"/><path class="cls-2" d="M50.63,113.872c-.161-.09-.059.172-.14-.03C50.568,113.809,50.636,113.794,50.63,113.872Z"/><path class="cls-2" d="M97.671,115.833c-4.9,1.917-7.567,3.67-12.112,4.363-.611.082-4.18,1.618-4.147.423a10.107,10.107,0,0,1-6.106.83c-.507.141-2.695.024-2.905-.383-1.416.432-2.459-.166-3.423-.421.105-.206-.331,0,.03.132-.206.221-.408-.284-.591.046-.189-.114.264-.21-.092-.244-.1.235-.263.285-.071.042-.371-.042-1.289.165-1.431-.4-1.106.715-2.206-.5-2.837-.2-.834-.83-4.231-.145-3.459-1.59.261-.78-.279.495-.566.484.518-.381-.607-.028-.421.124-.405.261-.109-.227-.2-.424-.379.61-.169-.02-.56.22-.641-.594-.325-.022-.867.011.045-.2-.115.092-.24-.285.328-.335-.165-.1-.219.184.1-.833-1.122.321-.586-1.15-.577,1-.973-.076-.895.566-.821.334.2-.422-.1-.586-.506.029-.545,1.015-.97.342.494.081.206-.31-.136-.461-.13.33-.843.255-.631-.052,2,.37-.239-.839-.9-.511.085.8.019-.07,0-.521-1.664.2-1.5-1.668-2.083-1.206-.251-.074-.278-.3-.484-.422l.1-.1-.16-.032c.121-.079.1-.227-.041-.193l.5-.021c.011.128-.194.059-.248.2-.047.127.139.247.252.161-.048-.067-.071-.045-.152-.048.114-.17.2-.082.325-.147,4.163,2.529,15.909,3.958,22.559,5.2C80.881,121.963,92.644,115.03,97.671,115.833Z"/><path class="cls-2" d="M50.8,114c-.053.1,0,.224-.181.254Z"/><path class="cls-2" d="M53.09,116.775c.091.017-.045.167-.1.072Z"/><path class="cls-2" d="M53.918,117.19c-.046.091-.255.082-.369.048Z"/><path class="cls-2" d="M54.6,117.824c.046.1.013.135-.082.1Z"/><path class="cls-2" d="M54.727,117.635l.1.146C54.85,117.7,54.655,117.78,54.727,117.635Z"/><path class="cls-2" d="M56.415,118.409c.045,0,.156-.049.169.064C56.558,118.389,56.347,118.536,56.415,118.409Z"/><path class="cls-2" d="M57.27,118.48c.118-.007.083.12,0,.122Z"/><path class="cls-2" d="M72.12,121.283l-.1.038C72.04,121.235,72.05,121.216,72.12,121.283Z"/><path class="cls-2" d="M78.768,121.676c.09-.058.062.091.077.106C78.764,121.79,78.876,121.664,78.768,121.676Z"/><path class="cls-2" d="M82.343,121.061c-.053.046-.028-.183-.04-.191Z"/><path class="cls-2" d="M51.354,119.514c-.166-.093-.059.17-.144-.033C51.289,119.45,51.36,119.437,51.354,119.514Z"/><path class="cls-2" d="M98.084,121.607c-3.239,3.089-8.016,4.472-11.825,4.884-.712-.007-4.149,1.581-4.219.414a9.924,9.924,0,0,1-6.128,1.242c-.568.222-2.676.19-2.97-.265a5.951,5.951,0,0,1-3.476-.365c.1-.206-.334,0,.031.134-.207.22-.413-.29-.6.04-.192-.116.266-.208-.095-.246-.094.232-.263.286-.072.042-.373-.045-1.3.152-1.449-.419-1.067.621-2.149-.189-2.807-.3-.776-.349-4.429-.288-3.576-1.565.331-.6-.75.587-.887.5-.013-.477-.174.177-.473.052.334-.837-.136.113-.361-.455-.067.34-.542-.506-.669-.063.5.16-.343.171-.278-.021-.427.372.048-.389-.222-.366-.148.2-.234.366-.411.275.661-.76-1.233.233-.314-1.148-.73.933-.96-.228-.979.432-.5.282-.322-.5,0-.274.084-1.139-1.012.874-1.04-.144.482.148.256-.272-.07-.473-.177.307-.878.138-.624-.138,1.935.636-.123-.86-.823-.635-.136,1,.511-.825-.546-.609-1-.45-.914-1.761-1.328-1.353-.259-.079-.279-.3-.488-.421l.109-.1-.165-.035c.127-.073.1-.219-.038-.19l.517-.006c.011.125-.2.052-.261.192-.052.123.137.243.259.164-.049-.066-.074-.045-.158-.051.124-.162.208-.074.345-.132,3.864,3.394,15.523,5.495,22.342,6.377C81.455,127.4,92.742,122.974,98.084,121.607Z"/><path class="cls-2" d="M51.529,119.643c-.054.095,0,.221-.187.246Z"/><path class="cls-2" d="M53.625,122.614c.088.029-.065.161-.1.058Z"/><path class="cls-2" d="M54.387,123.147c-.059.085-.265.047-.371-.005Z"/><path class="cls-2" d="M54.982,123.866c.032.1-.006.135-.1.09Z"/><path class="cls-2" d="M55.133,123.7l.08.159C55.247,123.78,55.041,123.83,55.133,123.7Z"/><path class="cls-2" d="M56.714,124.732c.045.009.166-.03.165.084C56.863,124.73,56.628,124.849,56.714,124.732Z"/><path class="cls-2" d="M57.578,124.909c.119.009.074.132-.018.121Z"/><path class="cls-2" d="M72.662,128.1l-.1.037C72.58,128.046,72.592,128.032,72.662,128.1Z"/><path class="cls-2" d="M79.44,128.158c.087-.065.071.085.087.1C79.445,128.271,79.549,128.137,79.44,128.158Z"/><path class="cls-2" d="M82.993,127.3c-.053.05-.031-.181-.044-.189Z"/><path class="cls-3" d="M114.064,39.01c0,5.353-17.3,9.693-38.648,9.693s-38.649-4.34-38.649-9.693,17.3-9.691,38.649-9.691S114.064,33.659,114.064,39.01Z"/><path class="cls-4" d="M75.365,28.587c-21.474,0-38.881,4.53-38.881,10.118S53.891,48.823,75.365,48.823s38.88-4.529,38.88-10.118S96.839,28.587,75.365,28.587Z"/></svg>