<svg id="word" xmlns="http://www.w3.org/2000/svg" viewBox="0 0 160 160"><defs><style>.cls-1{fill:#ffd17f;}.cls-1,.cls-2,.cls-3,.cls-4{stroke:#9d4b9c;stroke-miterlimit:10;stroke-width:0.567px;}.cls-2{fill:#f7edeb;}.cls-3{fill:#a29e9f;}.cls-4{fill:#ffd294;}</style></defs><polygon class="cls-1" points="110.411 122.654 21.983 110.131 22.778 50.366 110.411 55.04 110.411 122.654"/><polygon class="cls-2" points="108.027 56.343 108.027 74.807 24.567 69.543 24.964 52.035 108.027 56.343"/><path class="cls-3" d="M60.978,56.84s10.534.454,11.089,1.361S61.809,59.41,60.423,59.259s-8.039-.6-8.039-1.361C52.384,56.529,60.978,56.84,60.978,56.84Z"/><polygon class="cls-1" points="110.411 55.04 110.014 122.488 137.189 104.626 138.017 41.519 110.411 55.04"/><polygon class="cls-4" points="138.017 41.519 48.114 37.346 22.778 50.366 110.411 55.04 138.017 41.519"/><polygon class="cls-2" points="108.027 76.778 108.027 96.244 24.567 88.774 24.964 71.267 108.027 76.778"/><path class="cls-3" d="M59.984,76.374s10.534.453,11.089,1.36-10.257,1.21-11.643,1.058-8.04-.6-8.04-1.36C51.39,76.063,59.984,76.374,59.984,76.374Z"/><polygon class="cls-2" points="107.629 98.113 107.629 119.649 24.368 108.841 24.169 91.334 107.629 98.113"/><path class="cls-3" d="M59.073,97.018s10.488.948,10.981,1.88-10.322.725-11.695.509-7.987-.982-7.937-1.736C50.514,96.3,59.073,97.018,59.073,97.018Z"/></svg>