<svg id="word" xmlns="http://www.w3.org/2000/svg" viewBox="0 0 160 160"><defs><style>.cls-1{fill:#e3a466;}.cls-1,.cls-2,.cls-3,.cls-4,.cls-8,.cls-9{stroke:#9c4c9c;stroke-miterlimit:10;stroke-width:1.181px;}.cls-2,.cls-7{fill:#7e7e80;}.cls-3{fill:#f49fc4;}.cls-4{fill:#fff;}.cls-5{fill:#9c4c9c;}.cls-6{fill:#9c519e;}.cls-8{fill:#eeb88f;}.cls-9{fill:#939598;}</style></defs><path class="cls-1" d="M56.776,80.448s-.216-9.841,4.983-13.142,7.046-1.875,7.046-1.875,3.063-1.895,5.468-1.656a3.969,3.969,0,0,1,3.215,1.884s1.812-3.746,15.071-1.912,13.565,5.086,13.565,5.086,1.988-4.62,5.385.13,4.182,11.75,4.182,11.75a14.865,14.865,0,0,0,3.3.828c1.307.082.551,4.236.551,4.236s5.177-1.338,4.152.52-.29,1.038,3.419,2.08a10.621,10.621,0,0,1,5.576,3.817s.726-1.094,4.271,1.765a44,44,0,0,1,7.04,8.028l-1.041,3.9a28.06,28.06,0,0,1-13.381,3.907c-8.287.431-18.007.852-19.611-.746s-5.508-2.6-8.669-1.911-4.343.181-6.2,2.6-5.643,2.935-5.643,2.935l-1.866.58s-3.059,2.036-8.41-1.143-4-2.071-10.017-1.859-21.595,4.137-25.072,3.687-5.757-2.917-5.8-5.131-.6-6.86-6.748-6.075a27.351,27.351,0,0,1-10.437-.518s6.107-6.2,10.418-7.341,5.838-1.4,5.838-1.4-1.213-4.3,4.593-5.837,7.545.508,7.545.508-5.083-2.735-.971-5.188L52.64,80.5S47.615,77.4,56.776,80.448Z"/><path class="cls-1" d="M43.484,99.245s.567-4.911,4.865-5.208S59.591,97.7,59.591,97.7"/><path class="cls-1" d="M33.564,107.178s-2.126-2.349-4.334-1.879-11.373,1.306-10.539,3.882,11.378.971,12.3.343A23.817,23.817,0,0,0,33.564,107.178Z"/><path class="cls-1" d="M91.088,103.153s.99-6.449,6.032-6.566,8.106.64,8.479,3.162-6.432,5.229-7.256,5.759S90.555,105.511,91.088,103.153Z"/><path class="cls-1" d="M70.387,114.138a15.215,15.215,0,0,0-5.189-1.159c-3.634-.337-10.585,2.086-7.582,4.074S70.032,116.767,70.387,114.138Z"/><path class="cls-1" d="M79.342,116.176s-7.54.817-4.388,3.687,7.8-1.195,7.259-1.984S80.582,115.983,79.342,116.176Z"/><path class="cls-1" d="M105.992,111.287s-7.992-.471-6.358,2.682,8.06.728,8.771-.036S107.382,112.1,105.992,111.287Z"/><path class="cls-1" d="M124.726,115.106s-9.145.141-7.252,2.7,11.935.831,7.911-2.365S124.726,115.106,124.726,115.106Z"/><path class="cls-1" d="M56.437,100.591s5.449-7.813,12.869-6.57,7.731,7.347,7.731,7.347"/><path class="cls-1" d="M73.453,104.488s2.609-4.279,10.014-3.889,7.857.211,7.857.211"/><path class="cls-1" d="M104.713,98.71s7.617-6.883,16.639-4.934a32.454,32.454,0,0,1,14.238,6.8"/><path class="cls-1" d="M59.876,88.646s-8.551.95-5.856,3.577S60.973,91.036,59.876,88.646Z"/><path class="cls-1" d="M62.173,78.527s-6.092,2.913-3.21,4.952S65.874,80.839,62.173,78.527Z"/><path class="cls-1" d="M89.167,92.338s-8.078-.444-7.89.609,4.8,3.794,7.259,2.613S89.167,92.338,89.167,92.338Z"/><path class="cls-1" d="M138.231,112.777s-8.463-.587-4.92,2.765S140.836,115.84,138.231,112.777Z"/><path class="cls-2" d="M65.242,42.287s4.8,3.029,9.489,1.213c5.277-2.047,6.069-2.028,11.127.419s6.381,9.334,7.737,12.393,1.934,5.311,4.49,8.128c3.423,3.774,3.423,7.2,3.423,7.2a36.744,36.744,0,0,1-21.853,6.092c-5.147-.332-17.9-1.183-17.9-1.183s1.7-11.592,1.781-13.453a3.411,3.411,0,0,1,1.136-2.614,1.873,1.873,0,0,1-1.733-2.344c.36-2.213-.418-3.15-.418-3.15s-2.948-1.7-3.5-4.029a24.3,24.3,0,0,1-.427-5.435S63.882,41.587,65.242,42.287Z"/><path class="cls-3" d="M58.022,43.38s-1.784-3.948,1.574-4.539,6.135,3.091,6.135,3.091.562,3.173-2.464,3.6-4.687.658-4.687.658Z"/><path class="cls-4" d="M77.09,48s-5.519-1.95-5.717-.453-.227,3.875,3.455,4.428S78.941,49.7,77.09,48Z"/><path class="cls-5" d="M61.486,53.678a7.244,7.244,0,0,0,2.544.571c.878.112,1.734.253,2.585.32a13.083,13.083,0,0,0,5.115-.406,5.078,5.078,0,0,1-2.422,1.369,8.013,8.013,0,0,1-2.8.213,11.848,11.848,0,0,1-2.689-.6,9.9,9.9,0,0,1-1.279-.521A2.432,2.432,0,0,1,61.486,53.678Z"/><path class="cls-5" d="M68.2,43.4A65.972,65.972,0,0,1,70.861,36.4a65.371,65.371,0,0,0-1.848,7.2Z"/><path class="cls-5" d="M69.387,43.4c.589-.389.749-1.4,1.106-2.29A13.926,13.926,0,0,1,71.8,38.557a14.878,14.878,0,0,1,1.779-2.216,11.336,11.336,0,0,0,1.748-2.19,11.369,11.369,0,0,1-1.59,2.327,14.674,14.674,0,0,0-1.578,2.294,13.4,13.4,0,0,0-1.07,2.542c-.139.439-.224.878-.364,1.36a2.722,2.722,0,0,1-.828,1.392Z"/><path class="cls-5" d="M70.754,43.791a20.434,20.434,0,0,1,4.534-7.111,20,20,0,0,0-3.737,7.367Z"/><path class="cls-5" d="M66,48a13.049,13.049,0,0,1-1.49,1.653l-1.558,1.493c-.514.5-1.022,1-1.5,1.534a6.289,6.289,0,0,0-1.193,1.764,6.409,6.409,0,0,1,1.029-1.9c.426-.585.888-1.141,1.355-1.69l1.4-1.633a12.532,12.532,0,0,0,1.24-1.668Z"/><path class="cls-5" d="M67.7,48.826a4.573,4.573,0,0,1-1.076,1.627c-.416.448-.85.859-1.277,1.274s-.848.829-1.229,1.279a3.06,3.06,0,0,0-.809,1.539,3.162,3.162,0,0,1,.641-1.664c.334-.5.712-.973,1.088-1.437s.758-.92,1.1-1.39a3.987,3.987,0,0,0,.744-1.413Z"/><path class="cls-5" d="M69.155,49.723a6.494,6.494,0,0,1-.586,1.745c-.24.529-.5,1.044-.747,1.559s-.5,1.028-.727,1.551a5.241,5.241,0,0,0-.487,1.628,5.315,5.315,0,0,1,.29-1.7c.163-.553.35-1.1.538-1.641s.377-1.082.546-1.622a6.09,6.09,0,0,0,.336-1.551Z"/><ellipse class="cls-6" cx="73.22" cy="48.733" rx="1.814" ry="1.825"/><path class="cls-7" d="M82.52,51.668l1.7-.165c1.608-.155,3.345-.286,4.612.46a5.667,5.667,0,0,1,2.068,2.85,2.025,2.025,0,0,1,.245.991A1.919,1.919,0,0,1,89.9,57.21a5.056,5.056,0,0,1-1.991.3,18.774,18.774,0,0,1-2.271-.151,5.237,5.237,0,0,1-1.552-.384,5.128,5.128,0,0,1-1.395-1.092l-1.8-1.788"/><path class="cls-5" d="M82.52,51.668c.953-.218,1.9-.407,2.875-.549a6.969,6.969,0,0,1,3.046.154,4.311,4.311,0,0,1,2.393,2.106,14.1,14.1,0,0,1,.662,1.356,2.561,2.561,0,0,1,.237.9,1.834,1.834,0,0,1-.272,1.017,3.519,3.519,0,0,1-3.02,1.4,12.992,12.992,0,0,1-1.5-.1c-.5-.046-.99-.09-1.481-.163a5.324,5.324,0,0,1-1.5-.458,4.409,4.409,0,0,1-1.209-.994c-.639-.743-1.264-1.478-1.861-2.254.779.587,1.523,1.221,2.263,1.836a3.667,3.667,0,0,0,2.432.956c.941,0,1.9.1,2.812.056a2.464,2.464,0,0,0,2.059-.9c.158-.265.152-.42-.02-.855s-.376-.87-.577-1.268a3.517,3.517,0,0,0-1.738-1.782C86.5,51.472,84.443,51.774,82.52,51.668Z"/><path class="cls-8" d="M83.016,82.612s-4.449,7.682-7.166,8.166c-1.047.187-1.764.521-1.844-.319s1.81-6.322,1.81-6.322l6.11-1.115Z"/><path class="cls-8" d="M70.906,83.022s-1.59,3.559-1.652,5.459c-.069,2.069.394,4.262,1.652,2.436s5.42-7.123,5.42-7.123Z"/><path class="cls-8" d="M66.573,81.856s-3.281,6.245-3.316,7.552,3.535-.622,5.016-2.3c1.083-1.227,3.048-3.738,3.048-3.738Z"/><path class="cls-8" d="M61.506,79.705s-2.628,4.414-2.575,5.842-1.541,3.07,1.3,2.125,6.981-5.816,6.981-5.816Z"/><path class="cls-9" d="M61.247,79.18s5.447-8.656,11.707-8.653c3.254,0,8.509,1.062,9.325,4.728s1.349,7.357,1.349,7.357-1.413,3.115-11.191,1.15C68.652,83,61.506,79.705,61.506,79.705Z"/></svg>