<svg id="word" xmlns="http://www.w3.org/2000/svg" viewBox="0 0 160 160"><defs><style>.cls-1{fill:#fcf075;}.cls-1,.cls-2,.cls-3,.cls-4{stroke:#9c4c9c;stroke-miterlimit:10;stroke-width:1.203px;}.cls-2{fill:#fff;}.cls-3{fill:#16bcef;}.cls-4{fill:#fdf9d1;}.cls-5{fill:#9c4c9c;}</style></defs><path class="cls-1" d="M51.435,42.253s4.468-3.447,9.288-.889,19.261,9.108,22.211,9.366,24.62,12.038,24.62,12.038l-15.61,6.469S71.584,71.2,63.478,65.012c-2.4-1.835-12.043-12.838-12.043-12.838S45.6,44.081,51.435,42.253Z"/><path class="cls-2" d="M45.113,67.15a4.778,4.778,0,0,0,1.722,3.793c1.951,1.78,10.215,7.229,14,9.786s12.626,9.564,15.955,10.453,5.165,2.669,15.151,3.336,26.4.334,31.909-.778,13.315-2.891,15.84-5.338a6.354,6.354,0,0,0,2.193-5.338c-.012-.556-3.8,1.335-4.374,1.557s-20.2,5.672-29.269,5.672-35.927-7.01-37.3-9.288-2.984-7.5-8.838-9.95-16.433-6.043-16.433-6.043Z"/><path class="cls-3" d="M48.442,41.364a43.117,43.117,0,0,0-2.755,7.784c-.459,2.78-1.836,12.01-.459,14.79s-.574,1.779,3.214,4.225,11.248,3,14.348,7.117,7.575,9.786,11.822,11.676,5.854,4,16.069,5,29.907-.394,37.534-2.447c8.264-2.224,10.454-5.752,12.511-6.338,1.951-.556,2.3-1.335,0-5.894s-11.134-10.342-13.774-10.9S114.1,61.269,114.1,61.269s-18.71,6.45-26.285,7.45-20.087-1.556-23.3-4.337-15.954-14.233-16.3-16.235A35.582,35.582,0,0,1,48.442,41.364Z"/><path class="cls-4" d="M54.64,39.473s11.019.556,19.283,4.893S92.288,54.819,96.88,57.043s14.872,5.018,14.916,5-7,0-7,0-14.233-5.67-17.792-7.894-13.314-7.228-19.742-8.674S55.1,42.92,53.377,43.143s-3.443,2.669-3.443,2.669S44.769,38.7,54.64,39.473Z"/><path class="cls-5" d="M113.408,66.162s-15.725,3.084-15.954,5.99-1.722,4.8,3.673,3.462,12.281-8.007,12.281-8.007-5.641,3-8.158,4-7.108.1-5.042-.505S113.408,66.162,113.408,66.162Z"/><path class="cls-5" d="M115.819,68.052a47.506,47.506,0,0,0-1.493,5.783A5.123,5.123,0,0,1,111.8,77.5s-2.75-.111-1.028-2.224,3.329-7.228,3.329-7.228Z"/><path class="cls-5" d="M117.54,64.049s-1.148-2,4.706-1a43.756,43.756,0,0,1,9.183,2.447s1.287.934-2.411.667-10.674-1.15-10.674-1.15Z"/><path class="cls-5" d="M112.49,64.489l2.625-1.472a1.617,1.617,0,0,1,2.425,1.032c.689,2,1.081,3.447-.091,4a6.393,6.393,0,0,1-3.352,0S108.243,64.817,112.49,64.489Z"/><path class="cls-4" d="M55.9,44.7s2.525-8.34-2.3-8.785-7.8-.667-7.231,2.446,3.44,8.605,3.44,8.605Z"/><path class="cls-1" d="M24.482,61.735s4.468-3.447,9.289-.89,19.26,9.108,22.21,9.366S80.6,82.249,80.6,82.249L64.249,88.811s-22.306,2.395-27.724-4.317c-1.9-2.354-12.043-12.839-12.043-12.839S18.651,63.562,24.482,61.735Z"/><path class="cls-2" d="M18.16,86.631a4.78,4.78,0,0,0,1.722,3.794c1.951,1.779,10.216,7.228,14,9.786s12.626,9.563,15.955,10.453,5.165,2.669,15.151,3.336,26.4.333,31.909-.779,13.315-2.891,15.84-5.337a6.355,6.355,0,0,0,2.193-5.338c-.012-.556-3.8,1.334-4.374,1.557s-20.2,5.671-29.269,5.671-35.926-7.01-37.3-9.287-2.984-7.5-8.838-9.951-16.433-6.042-16.433-6.042Z"/><path class="cls-3" d="M21.489,60.845a43.117,43.117,0,0,0-2.755,7.784c-.459,2.78-1.836,12.01-.459,14.79S17.7,85.2,21.489,87.645s11.249,3,14.348,7.117,7.575,9.786,11.822,11.676,5.854,4,16.07,5,29.906-.394,37.533-2.446c8.264-2.224,10.454-5.753,12.511-6.339,1.952-.556,2.3-1.334,0-5.894S102.639,86.422,100,85.866,87.144,80.75,87.144,80.75,68.435,87.2,60.859,88.2s-20.087-1.557-23.3-4.337S21.6,69.63,21.259,67.628A35.586,35.586,0,0,1,21.489,60.845Z"/><path class="cls-4" d="M27.687,58.955s11.019.556,19.283,4.893S65.335,74.3,69.927,76.525s14.872,5.017,14.916,5-7,0-7,0-14.233-5.671-17.791-7.9S46.741,66.405,40.313,64.96,28.146,62.4,26.425,62.624s-3.444,2.669-3.444,2.669S17.816,58.176,27.687,58.955Z"/><path class="cls-5" d="M86.455,85.643S70.73,88.728,70.5,91.634s-1.722,4.8,3.673,3.461,12.281-8.006,12.281-8.006-5.641,3-8.158,4-7.108.1-5.042-.5S86.455,85.643,86.455,85.643Z"/><path class="cls-5" d="M88.866,87.534a47.348,47.348,0,0,0-1.492,5.782,5.129,5.129,0,0,1-2.531,3.67s-2.749-.111-1.028-2.224,3.329-7.228,3.329-7.228Z"/><path class="cls-5" d="M90.587,83.53s-1.147-2,4.706-1a43.725,43.725,0,0,1,9.183,2.446s1.287.934-2.41.667-10.675-1.149-10.675-1.149Z"/><path class="cls-5" d="M85.537,83.97,88.162,82.5a1.618,1.618,0,0,1,2.425,1.032c.689,2,1.081,3.448-.091,4a6.393,6.393,0,0,1-3.352,0S81.29,84.3,85.537,83.97Z"/><path class="cls-4" d="M28.95,64.181s2.525-8.34-2.3-8.785-7.8-.667-7.231,2.447,3.44,8.6,3.44,8.6Z"/></svg>