<svg id="word" xmlns="http://www.w3.org/2000/svg" viewBox="0 0 160 160"><defs><style>.cls-1{fill:#919295;}.cls-1,.cls-2,.cls-3,.cls-4,.cls-5,.cls-6,.cls-7,.cls-8{stroke:#9d4b9c;stroke-width:0.352px;}.cls-1,.cls-4,.cls-6,.cls-8{stroke-miterlimit:10;}.cls-2{fill:#3b54a4;}.cls-3{fill:#fff;}.cls-4{fill:#afd3da;}.cls-5{fill:#d9dbdc;}.cls-6{fill:#a3a3a8;}.cls-7{fill:none;}.cls-8{fill:#3e3e3f;}.cls-9{fill:#ed3324;}.cls-10{fill:#a52012;}</style></defs><polygon class="cls-1" points="132.695 82.62 139.012 82.62 148.297 85.617 148.297 86.558 148.106 89.469 147.387 89.135 147.421 86.216 139.088 83.619 139.316 87.586 138.593 87.358 138.745 83.619 132.695 83.405 132.695 82.62"/><path class="cls-2" d="M114.887,68.579l1.826-21.12s-.457,0-.4-.342.114-1.313.114-1.313l.285-.514.931-1.484V69.149Z"/><path class="cls-2" d="M116.061,71.85a9.314,9.314,0,0,1,2.077.293A11.327,11.327,0,0,1,120.2,73q.8.406,1.589.844c-.948-1.988-2-4.1-2.62-4.58-.8-.628-1.6-1.656-2.4-1.941a13.576,13.576,0,0,0-2.283-.457l-.97,4.738-.129.732A4.816,4.816,0,0,1,116.061,71.85Z"/><path class="cls-3" d="M122.592,75.542c-.249-.524-.522-1.106-.8-1.7Q121,73.408,120.2,73a11.327,11.327,0,0,0-2.06-.857,9.314,9.314,0,0,0-2.077-.293,4.816,4.816,0,0,0-2.673.486l-1.355,7.715h11.073A7.279,7.279,0,0,0,122.592,75.542Z"/><path class="cls-3" d="M96.336,80.451l26.941-1.142a33.131,33.131,0,0,1,6.735,1.142c2.055.8,3.425,1.427,3.425,1.427l-.342,7.591L105.24,83.476Z"/><polygon class="cls-4" points="127.273 80.594 127.273 83.619 124.076 83.448 124.219 80.594 127.273 80.594"/><polygon class="cls-4" points="123.363 80.594 123.256 83.419 116.285 83.505 116.656 80.451 123.363 80.594"/><polygon class="cls-4" points="115.72 80.451 115.571 83.219 112.976 83.333 113.146 80.451 115.72 80.451"/><polygon class="cls-4" points="112.232 80.594 112.033 83.333 109.364 83.11 109.721 80.594 112.232 80.594"/><polygon class="cls-4" points="128.072 80.851 128.072 83.762 129.356 84.389 129.356 81.222 128.072 80.851"/><polygon class="cls-4" points="130.241 81.678 130.241 84.618 131.582 85.131 131.582 81.978 130.241 81.678"/><path class="cls-2" d="M60.319,78.054l1.028-2.8s.171-1.941.342-1.8.913,0,.913,0L67,31.592s.172-3.026.4-3.026,0,3.653,0,3.653l-3.881,41.24h1.255l1.484,4.024Z"/><path class="cls-3" d="M52.785,79.575s10.046-3.062,17.009-2.948a91.017,91.017,0,0,1,16.325,1.712c3.2.685,7.648,1.236,7.648,1.236l59.02,13.376h.628v7.573l-26.884-2.036-46.577-6.05L75.445,89.7a29.122,29.122,0,0,1-7.82-2.74c-3.253-1.884-5.879-5.251-6.735-5.423s-8.105-1.2-8.105-1.2v-.762h0"/><path class="cls-3" d="M16.14,74.914V75.6s3.425,9.019,4.452,12.329,7.192,13.7,7.877,15.526,5.252,14.155,5.252,14.155,10.5-.913,17.351,0,37.1-.685,39.956-.685,16.667-2.739,24.429-2.739,20.32-2.4,23.631-2.626,9.361-1.028,11.758-2.283,4.11-2.335,4.11-2.335v-5.314l-2.854-.114-.158-1.1L136.2,99.192s-17.2-2.055-27.55-3.577S82.161,91.505,81.4,91.277s-.837-1.294-.837-1.294-8.524-1.522-10.2-3.2-5.479-5.708-5.479-5.708Z"/><path class="cls-5" d="M107.7,86.216a6.108,6.108,0,0,0-.343,3c.286,1.427,1.484,4.651,4.053,5.736s13.242,2,13.242,2V90.1Z"/><polygon class="cls-4" points="89.658 82.848 89.658 87.358 92.512 87.814 92.512 83.134 89.658 82.848"/><polygon class="cls-4" points="93.596 83.476 93.596 87.814 96.678 88.613 96.678 83.876 93.596 83.476"/><polygon class="cls-4" points="97.592 84.275 97.592 88.613 99.989 89.07 99.989 84.732 97.592 84.275"/><polygon class="cls-6" points="26.322 78.4 26.295 80.451 32.456 81.018 32.489 79.078 26.322 78.4"/><path class="cls-7" d="M32.478,76.98,66.334,37.912s14.648,4.467,20.926,6.522,30.2,5.594,30.2,5.594"/><path class="cls-7" d="M52.3,79.238,57.59,60.975c.484-1.67.967-3.342,1.551-4.98.634-1.78,1.385-3.516,2.134-5.25,1.775-4.106,3.474-8.591,5.249-12.7A14.9,14.9,0,0,0,68,42.49c2.906,6.232,6.576,12.133,8.783,18.645,1.884,5.561,2.7,11.555,5.625,16.646"/><line class="cls-7" x1="107.352" y1="89.213" x2="124.647" y2="92.295"/><line class="cls-7" x1="116.285" y1="88.298" x2="116" y2="95.777"/><polyline class="cls-3" points="133.009 85.617 153.186 90.554 152.958 92.951"/><path class="cls-2" d="M154.956,106.308s-3.023,2.066-15.98,2.18c-12.569.111-29.255-.011-29.255-.011l-2.928,3.119s-15.08,2.817-27.067,1.447a308.034,308.034,0,0,0-37.1-1.37c-9.019.228-11.416-.841-11.416-.841l2.512,6.777s9.589-.007,13.013.282,16.642-.289,20.764,0,44.078-2.337,47.389-2.565,30.251-3.082,32.763-3.767a46.031,46.031,0,0,0,7.306-3.425Z"/><path class="cls-8" d="M63.909,102.54l-2.22,2.055s36.873,3.882,42.923,4.452a172.842,172.842,0,0,0,18.751.816c8.076-.016,23.2-1.166,24.934-1.512,2.707-.54,6.659-1.41,6.659-1.41l.2-2.431s-32.412,2.715-43.637,2.431C99.989,106.65,63.909,102.54,63.909,102.54Z"/><polygon class="cls-4" points="128.928 91.087 128.928 94.245 130.031 94.473 130.031 91.277 128.928 91.087"/><ellipse class="cls-6" cx="57.522" cy="93.062" rx="1.316" ry="0.866" transform="translate(-43.228 50.414) rotate(-35.336)"/><ellipse class="cls-6" cx="63.909" cy="93.644" rx="1.316" ry="0.866" transform="translate(-42.388 54.215) rotate(-35.336)"/><ellipse class="cls-6" cx="69.966" cy="94.101" rx="1.316" ry="0.866" transform="translate(-41.536 57.802) rotate(-35.336)"/><ellipse class="cls-6" cx="77.994" cy="95.156" rx="1.154" ry="0.768" transform="translate(-45.028 96.982) rotate(-51.511)"/><ellipse class="cls-6" cx="85.091" cy="96.178" rx="1.154" ry="0.768" transform="translate(-43.147 102.924) rotate(-51.511)"/><polygon class="cls-4" points="132.143 91.715 132.143 94.873 133.247 95.101 133.247 91.905 132.143 91.715"/><polygon class="cls-4" points="134.959 92.057 134.959 95.215 136.063 95.444 136.063 92.247 134.959 92.057"/><polygon class="cls-4" points="137.461 92.599 137.461 95.758 138.374 95.986 138.374 92.79 137.461 92.599"/><path class="cls-9" d="M110.877,90.3c-.639,0-1.156.773-1.156,1.727s.517,1.726,1.156,1.726,1.156-.773,1.156-1.726S111.515,90.3,110.877,90.3Zm.071,2.854c-.315,0-.571-.5-.571-1.127s.256-1.128.571-1.128.571.5.571,1.128S111.263,93.151,110.948,93.151Z"/><polygon class="cls-10" points="110.877 89.841 110.877 91.087 111.176 91.087 111.39 89.932 110.877 89.841"/><path class="cls-9" d="M114.132,90.92c-.638,0-1.156.773-1.156,1.727s.518,1.726,1.156,1.726,1.156-.773,1.156-1.726S114.77,90.92,114.132,90.92Zm.071,2.854c-.315,0-.57-.5-.57-1.127s.255-1.128.57-1.128.571.5.571,1.128S114.519,93.774,114.2,93.774Z"/><polygon class="cls-10" points="114.132 90.464 114.132 91.71 114.432 91.71 114.646 90.555 114.132 90.464"/><path class="cls-9" d="M116.947,91.353c-.638,0-1.156.773-1.156,1.726s.518,1.727,1.156,1.727,1.156-.773,1.156-1.727S117.585,91.353,116.947,91.353Zm.071,2.854c-.315,0-.57-.5-.57-1.128s.255-1.127.57-1.127.571.5.571,1.127S117.334,94.207,117.018,94.207Z"/><polygon class="cls-10" points="116.947 90.896 116.947 92.142 117.247 92.142 117.461 90.988 116.947 90.896"/><path class="cls-9" d="M121.408,92.252c-.639,0-1.156.773-1.156,1.727s.517,1.726,1.156,1.726,1.156-.773,1.156-1.726S122.046,92.252,121.408,92.252Zm.071,2.854c-.315,0-.571-.5-.571-1.127s.256-1.128.571-1.128.571.5.571,1.128S121.794,95.106,121.479,95.106Z"/><polygon class="cls-10" points="121.408 91.796 121.408 93.041 121.707 93.041 121.921 91.887 121.408 91.796"/><path class="cls-9" d="M124.076,92.48c-.638,0-1.156.773-1.156,1.727s.518,1.726,1.156,1.726,1.156-.773,1.156-1.726S124.715,92.48,124.076,92.48Zm.072,2.854c-.316,0-.571-.505-.571-1.127s.255-1.128.571-1.128.57.505.57,1.128S124.463,95.334,124.148,95.334Z"/><polygon class="cls-10" points="124.076 92.024 124.076 93.27 124.376 93.27 124.59 92.115 124.076 92.024"/><path class="cls-9" d="M119.167,91.771c-.638,0-1.155.773-1.155,1.727s.517,1.726,1.155,1.726,1.156-.773,1.156-1.726S119.806,91.771,119.167,91.771Zm.072,2.854c-.315,0-.571-.5-.571-1.127s.256-1.127.571-1.127.571.5.571,1.127S119.554,94.625,119.239,94.625Z"/><polygon class="cls-10" points="119.167 91.315 119.167 92.561 119.467 92.561 119.681 91.406 119.167 91.315"/><path class="cls-9" d="M136.063,87.115c-.639,0-1.156.773-1.156,1.726s.517,1.727,1.156,1.727,1.156-.773,1.156-1.727S136.7,87.115,136.063,87.115Zm.071,2.854c-.315,0-.571-.5-.571-1.128s.256-1.127.571-1.127.571.5.571,1.127S136.449,89.969,136.134,89.969Z"/><polygon class="cls-10" points="136.063 86.658 136.063 87.904 136.362 87.904 136.576 86.75 136.063 86.658"/><polygon class="cls-4" points="140.144 92.994 140.144 96.152 141.096 96.381 141.096 93.184 140.144 92.994"/><polygon class="cls-4" points="142.919 93.622 142.919 96.78 143.871 97.009 143.871 93.812 142.919 93.622"/><polygon class="cls-4" points="145.349 93.964 145.349 97.123 146.302 97.351 146.302 94.155 145.349 93.964"/><polygon class="cls-4" points="147.508 94.507 147.508 97.559 148.297 97.779 148.297 94.69 147.508 94.507"/><polygon class="cls-4" points="149.854 94.806 149.854 97.858 150.642 98.079 150.642 94.99 149.854 94.806"/></svg>