<svg id="word" xmlns="http://www.w3.org/2000/svg" viewBox="0 0 160 160"><defs><style>.cls-1{fill:#689e42;}.cls-1,.cls-2,.cls-3,.cls-4{stroke:#9d4b9c;stroke-miterlimit:10;stroke-width:0.801px;}.cls-2{fill:#dde798;}.cls-3{fill:#adc93d;}.cls-4{fill:#75aa42;}.cls-5{fill:#d4e17a;}</style></defs><path class="cls-1" d="M46.844,44.471s-2.227,5.037-7.221,1.425-4.36-8.671-7.632-6.023,3.336,3.039-2.918,4.077S17.892,45.334,19.05,49.172s4.289,4.074,4.457,6.727.847,3.953-1.582,7.667-4.732,3.4-1.2,10.337,2.7,5.532,6.007,9.578S35.975,94.32,35.975,94.32s-5.06-14.433-.85-24.166S47.773,50.108,50.986,49.693,51.47,44.426,46.844,44.471Z"/><path class="cls-1" d="M117.9,111.25s-5.216,2.135-2.374,5.929,7.863,2.944,4.835,5.765-2.51-2.493-4.374,2.63,1.228,8.767-2.357,8.087-7.489-2.835-10.053-2.794-3.74-.42-7.692,1.79-3.964,4.05-10.244,1.656-5.028-1.813-8.523-4.214-9.312-6.741-9.312-6.741,13.386,3.125,23.451-.926,21.272-11.556,22.113-14.179S118.572,107.51,117.9,111.25Z"/><path class="cls-1" d="M123.638,91.124c.032-.019,5.5-3.639,5.641-8.728s-.557-9.337.7-11.929,4.46-5.683-1.482-9.948-10.1-9.269-10.637-10.614,1.865-4.623-1.158-8.809-5.212-9.373-8.793-8.721-10.244,1.656-11.544,1.27-4.263-2.773-7.848-3.452-8.226-5.227-13.227-2.554-2.894,6.41-8.932,7.038-4.906-3.22-9.919.294-4.208,7.922-4.739,10.3,1.145,9.039.85,9.716,3.368,1.477,18.4,5.78,27.89,8.746,36.324,20.518,11.469,17.451,11.469,17.451Z"/><path class="cls-2" d="M87.8,42.631s6.721,3.129,9.412,3.346,2.97-.952,5.513,1.855,6.3,13.558,6.3,13.558-6.976.527-7.779,1.693-12.891,3.73-13.348,2.5S85.328,47.62,85.328,47.62,81.672,37.812,87.8,42.631Z"/><path class="cls-3" d="M47,50.319s6.766-9.071,16.871-10.144,24.165-3.022,27.679.2,5.923,3.442,3.3,5.02S91,45.376,92.809,48.126s4.027,2.414,2.028,3.616,1.242,1.909.637,6.948.616,11.142-6.461,9.394-15.267-4.662-22.734-5.676-15.667-2.087-21-1.714S46.128,51.372,47,50.319Z"/><path class="cls-3" d="M91.509,59.413a7.147,7.147,0,0,1,5.752-2.125c3.678.291,2.178,1.192,5.678-.911s4.334-5.608,7.623-4.584a10.275,10.275,0,0,0,5.352.451,8.369,8.369,0,0,0,.468,5.222,112.936,112.936,0,0,1,4.634,12.889c1.611,5.368,4.075,8.056,3.953,15.3s2.782,10.334-5.416,16.431-13.125,19.23-13.034,6-.638-21.234-3.427-26.008S91.509,59.413,91.509,59.413Z"/><path class="cls-4" d="M48.323,111.224s-8.437-7.267-11.94-12.332S29.46,78.541,31.131,71.533,38.939,54.5,41.453,52.487s3.3-.816,6.963-.017,6-2.274,10.7-1.762,6.934,6.837,12.833,6.792S90.1,54.088,93.112,56.281s2.278,3.466,6.152,6.974,6.9,3.859,10.519,7.516,6.081,9.518,7.106,12.4,3.356,8.821,1.857,15.559-3.753,12.6-7.873,16.407-20.1,14.251-26.922,13.684-24.38-6.854-26.8-9.736S48.323,111.224,48.323,111.224Z"/><path class="cls-5" d="M91.085,64.324s-.19.168-.518.5a13.755,13.755,0,0,0-1.275,1.531A16,16,0,0,0,87.763,69a39.149,39.149,0,0,0-1.436,3.7c-.473,1.383-.939,2.918-1.591,4.528a25.456,25.456,0,0,1-1.125,2.46,19.607,19.607,0,0,1-1.536,2.421,54.064,54.064,0,0,1-3.78,4.485c-.666.73-1.351,1.47-2.076,2.2-.364.364-.73.719-1.123,1.078l-.574.515-.579.5A21.492,21.492,0,0,0,69.9,94.858c-1.059,1.486-1.935,3.183-2.982,4.81a17.407,17.407,0,0,1-1.752,2.306,18.976,18.976,0,0,1-2.029,1.917,17.8,17.8,0,0,1-4.382,2.622,31.134,31.134,0,0,0-3.737,1.64,12.414,12.414,0,0,0-2.4,1.921c-.6.618-1.083,1.115-1.4,1.463l-.486.531-.109-.076.435-.568c.286-.369.7-.913,1.279-1.574a12.852,12.852,0,0,1,2.343-2.144,25.492,25.492,0,0,1,3.7-1.888,17.95,17.95,0,0,0,4.062-2.651A17.278,17.278,0,0,0,65.9,99.088c.977-1.571,1.794-3.312,2.928-4.926a22.543,22.543,0,0,1,4.219-4.244,43.58,43.58,0,0,0,4.275-4.148c1.335-1.444,2.664-2.852,3.791-4.331a21.194,21.194,0,0,0,2.679-4.591c.682-1.547,1.223-3.053,1.772-4.426a31.368,31.368,0,0,1,1.689-3.676,16.656,16.656,0,0,1,1.753-2.608,12.081,12.081,0,0,1,1.43-1.458c.361-.306.563-.455.563-.455Z"/><path class="cls-5" d="M56.1,106.757l-.35-.487a13.107,13.107,0,0,1-.916-1.443,24.659,24.659,0,0,1-1.144-2.39,31.627,31.627,0,0,1-1.156-3.216c-.37-1.189-.737-2.479-1.113-3.829s-.822-2.746-1.336-4.143c-.132-.333-.278-.728-.423-1.065s-.294-.7-.452-1.06q-.486-1.071-.982-2.165l-2.1-4.449c-.68-1.514-1.336-3.08-1.885-4.629-.566-1.555-1-3.078-1.507-4.5a31.941,31.941,0,0,0-1.649-3.98c-.308-.608-.654-1.159-1.005-1.763a8.567,8.567,0,0,1-.858-1.926c-.023-.091-.044-.159-.066-.268l-.044-.228c-.031-.184-.051-.357-.063-.519a5.19,5.19,0,0,1,.02-.954,9.4,9.4,0,0,1,.352-1.649c.3-.988.614-1.8.815-2.478a11.594,11.594,0,0,0,.386-1.594,5.634,5.634,0,0,0,.058-.58l.135-.008a5.528,5.528,0,0,1,.005.595,9.382,9.382,0,0,1-.228,1.658c-.147.706-.4,1.545-.61,2.518A6.2,6.2,0,0,0,40,65.474a22.7,22.7,0,0,0,1.984,3.453,28.391,28.391,0,0,1,1.868,4.063c.553,1.444,1.053,2.959,1.614,4.476s1.208,3.03,1.9,4.527c1.366,3,2.839,5.968,3.85,8.9s1.515,5.767,2.115,8.152c.291,1.2.6,2.28.911,3.23a24.153,24.153,0,0,0,.931,2.417c.3.652.555,1.156.756,1.49l.294.517Z"/><path class="cls-5" d="M66.973,97.549l-.936-1.8c-.3-.569-.658-1.257-1.1-2.03s-.963-1.633-1.525-2.568-1.22-1.919-1.915-2.954-1.486-2.093-2.3-3.175-1.75-2.179-2.62-3.376a32.066,32.066,0,0,1-2.492-3.81c-.182-.341-.348-.694-.509-1.048l-.236-.547c-.068-.176-.134-.326-.2-.522a21.064,21.064,0,0,1-.68-2.2,31.223,31.223,0,0,1-.708-4.272,15.866,15.866,0,0,1-.151-2.125,5.03,5.03,0,0,1,.166-1.178l.049-.166.04-.114c.032-.091.077-.208.113-.289.077-.177.161-.342.245-.5.169-.306.339-.576.483-.822a6.387,6.387,0,0,0,.366-.717,5.727,5.727,0,0,0,.4-1.45,15.034,15.034,0,0,0,.061-2.85,11.414,11.414,0,0,1,.024-2.367,3.377,3.377,0,0,1,.543-1.462,2.632,2.632,0,0,1,.26-.322l.095-.1.106.08-.078.107a2.557,2.557,0,0,0-.206.324,3.38,3.38,0,0,0-.358,1.4,10.835,10.835,0,0,0,.181,2.27,13.409,13.409,0,0,1,.182,2.984,6.62,6.62,0,0,1-.339,1.689,12.93,12.93,0,0,1-.8,1.66,3.655,3.655,0,0,0-.421,1.816,17.4,17.4,0,0,0,.213,1.984,35.2,35.2,0,0,0,.791,4.12,17.97,17.97,0,0,0,1.574,4.031,64.951,64.951,0,0,0,4.885,7.123A55.088,55.088,0,0,1,64.137,90.8c1.024,1.953,1.757,3.636,2.24,4.823s.723,1.878.723,1.878Z"/><path class="cls-5" d="M67.053,57.4l.182.364a8.528,8.528,0,0,1,.475,1.055c.1.235.186.5.279.783s.185.6.271.936a21.812,21.812,0,0,1,.473,2.277c.133.835.259,1.741.36,2.686s.246,1.926.389,2.921a21.437,21.437,0,0,0,.679,2.962,19.528,19.528,0,0,0,1.194,2.927c.458,1.005.926,2.029,1.392,3.006s.908,1.944,1.393,2.843c.239.456.486.876.728,1.324s.5.908.713,1.4a5.793,5.793,0,0,1,.461,1.539l.021.2,0,.049c.01.083,0,.029,0,.05v.115c0,.115,0,.209,0,.34a4.451,4.451,0,0,1-.092.775,5.733,5.733,0,0,1-1.068,2.278,10.306,10.306,0,0,1-1.238,1.381c-.362.356-.679.6-.884.776l-.321.263-.1-.086.273-.3c.175-.2.435-.486.744-.869a11.825,11.825,0,0,0,1.019-1.44,5.557,5.557,0,0,0,.771-2.1,4.243,4.243,0,0,0,.033-.619,4.841,4.841,0,0,0-.075-.646,5.182,5.182,0,0,0-.472-1.285c-.433-.846-1.039-1.677-1.559-2.6-1.064-1.823-2.018-3.852-2.98-5.871a20.408,20.408,0,0,1-1.212-3.118,18.968,18.968,0,0,1-.61-3.168c-.228-2.078-.257-4.022-.381-5.679-.067-.828-.135-1.587-.24-2.254-.045-.334-.1-.645-.158-.931s-.106-.55-.17-.783c-.109-.47-.222-.836-.306-1.084l-.121-.381Z"/><path class="cls-5" d="M67.061,97.134l.564.134c.366.091.912.2,1.589.39l2.454.649,1.508.4c.526.137,1.064.292,1.618.393a10.657,10.657,0,0,0,3.583-.023c1.311-.191,2.689-.531,4.18-.833a25.319,25.319,0,0,1,4.793-.651c.844-.017,1.648.014,2.427.02.388,0,.769,0,1.139-.015.3-.017.8-.052,1.131-.094a23.936,23.936,0,0,0,4.42-.948l4.405-1.361c.733-.214,1.457-.432,2.189-.593s1.439-.3,2.1-.44a17.625,17.625,0,0,0,3.55-1.029c1.051-.464,2.048-.958,2.933-1.362l2.287-1.07c.63-.3,1.145-.509,1.487-.663l.529-.231.069.112L114.116,91l-2.18,1.242c-.846.473-1.78,1.038-2.851,1.581a16.558,16.558,0,0,1-3.668,1.284c-1.343.321-2.741.686-4.163,1.162s-2.88,1-4.389,1.468a25.185,25.185,0,0,1-4.691,1.053,42.654,42.654,0,0,1-4.805.045,26.946,26.946,0,0,0-4.588.526c-1.479.269-2.912.55-4.293.69a10.784,10.784,0,0,1-3.9-.2c-1.175-.307-2.194-.718-3.118-1.029l-2.382-.838-2.075-.73Z"/><path class="cls-5" d="M110.443,77.859l-.247.4a12.671,12.671,0,0,1-.733,1.113,19.346,19.346,0,0,1-1.31,1.641c-.277.3-.564.623-.886.949s-.669.663-1.052.99a25.867,25.867,0,0,1-2.558,2.034,31.046,31.046,0,0,1-3.1,1.946,38.358,38.358,0,0,1-3.509,1.748c-1.236.53-2.455,1.041-3.788,1.5a10.427,10.427,0,0,1-2.217.479c-.21.018-.377.028-.628.029l-.249,0-.32-.018a9.7,9.7,0,0,1-1.126-.157c-.717-.134-1.352-.334-1.951-.494-.3-.081-.584-.152-.863-.209l-.1-.021c-.01,0-.05-.01-.036-.008l-.059-.01-.234-.04-.409-.055c-1.148-.126-2.394-.155-3.625-.353a13.2,13.2,0,0,1-1.709-.408,5.829,5.829,0,0,0-1.34-.263,4.224,4.224,0,0,0-2.2.756,15.687,15.687,0,0,1-1.875,1.026,3.354,3.354,0,0,1-1.405.3,2.186,2.186,0,0,1-.374-.036l-.126-.024.016-.128.119.007a1.9,1.9,0,0,0,.346-.007,3.193,3.193,0,0,0,1.245-.418,17.275,17.275,0,0,0,1.712-1.166,8.477,8.477,0,0,1,1.1-.686,3.407,3.407,0,0,1,1.407-.393,22.83,22.83,0,0,1,3.209.475c1.133.134,2.348.085,3.608.188a32.326,32.326,0,0,1,3.8.746,6.731,6.731,0,0,0,1.941.109,8.992,8.992,0,0,0,1.916-.442c1.254-.422,2.492-.913,3.7-1.415s2.367-1.048,3.47-1.613,2.14-1.164,3.1-1.761,1.833-1.218,2.609-1.823,1.457-1.193,2.042-1.734,1.064-1.041,1.439-1.467c.391-.413.665-.769.86-1l.3-.362Z"/><path class="cls-5" d="M102.931,70.44l-.151.246c-.1.158-.236.4-.432.689s-.437.645-.735,1.033-.628.831-1.024,1.284-.818.954-1.3,1.448-.99,1.023-1.557,1.526-1.136,1.044-1.771,1.529-1.268.991-1.927,1.467S92.68,80.57,92,81s-1.377.8-2.046,1.174a7.442,7.442,0,0,1-2.3.919,3.909,3.909,0,0,1-.685.056l-.206-.006-.124-.015c-.065-.005-.213-.033-.328-.056a3.722,3.722,0,0,1-1.1-.449,6.074,6.074,0,0,1-1.36-1.158c-.169-.183-.328-.355-.456-.511a2.911,2.911,0,0,0-.364-.37,1.187,1.187,0,0,0-.619-.31.642.642,0,0,0-.258.025l-.069-.111.072-.035a.814.814,0,0,1,.225-.067,1.336,1.336,0,0,1,.83.192,7.012,7.012,0,0,1,1.017.76,6.932,6.932,0,0,0,1.344.889,2.7,2.7,0,0,0,1.84.218,6.9,6.9,0,0,0,1.915-.931c1.278-.78,2.61-1.66,3.9-2.588a63.763,63.763,0,0,0,6.79-5.489c.874-.806,1.57-1.509,2.058-2l.756-.783Z"/><path class="cls-5" d="M117.643,94.868l-.2.183c-.134.117-.319.3-.584.506a19.191,19.191,0,0,1-2.267,1.589c-.489.3-1.033.611-1.626.9s-1.222.6-1.9.863-1.372.547-2.107.757-1.47.424-2.246.606a21.716,21.716,0,0,1-2.362.353,9.767,9.767,0,0,1-1.2.044c-.2,0-.39-.011-.6-.022l-.573-.045a14.556,14.556,0,0,1-2.119-.378c-.653-.149-1.247-.333-1.79-.5-1.089-.328-1.987-.652-2.613-.89-.315-.113-.557-.226-.724-.292l-.256-.107.025-.127,3.719.653a30.644,30.644,0,0,0,3.821.509,16.391,16.391,0,0,0,4.368-.456,40.041,40.041,0,0,0,7.827-2.574c1.025-.458,1.858-.884,2.434-1.192s.9-.494.9-.494Z"/><path class="cls-5" d="M111.011,109.383l-.611.175c-.4.11-.98.294-1.73.482l-2.7.7c-1.041.275-2.216.583-3.505.883s-2.676.652-4.174.965a47.483,47.483,0,0,1-4.788.819,32.332,32.332,0,0,1-5.273.188,35.511,35.511,0,0,1-5.415-.69c-.884-.2-1.725-.413-2.525-.555a11.281,11.281,0,0,0-1.171-.151l-.257-.013-.327,0c-.229,0-.371.013-.562.017-1.557.109-3.215.517-4.965.733a11.365,11.365,0,0,1-2.664.028,12.87,12.87,0,0,1-2.469-.567c-1.519-.5-2.793-1.1-4.013-1.6s-2.317-1-3.294-1.443l-2.532-1.135a5.087,5.087,0,0,1-1.583-.918,1.5,1.5,0,0,1-.292-.4,1.36,1.36,0,0,1-.067-.151l.124-.053a1.051,1.051,0,0,0,.073.129,1.3,1.3,0,0,0,.293.326,5.226,5.226,0,0,0,1.582.738l5.987,2.177c1.242.439,2.57.973,4.015,1.393a12,12,0,0,0,2.264.44,10.923,10.923,0,0,0,2.409-.09c1.628-.225,3.279-.707,5.035-.847a17.374,17.374,0,0,1,5.237.684,34.261,34.261,0,0,0,10.277.629c1.644-.149,3.224-.392,4.717-.65l4.2-.768,8.674-1.605Z"/><path class="cls-5" d="M62.19,57.336l-.04.185c-.03.12-.061.3-.094.524a5.658,5.658,0,0,0-.061.81c-.008.156.007.323.011.5s-.016.356-.005.547a11.531,11.531,0,0,0,.4,2.6c.121.471.264.954.423,1.444a8.991,8.991,0,0,0,.559,1.425,4.719,4.719,0,0,0,.92,1.2,10.478,10.478,0,0,0,1.182.952,20.882,20.882,0,0,1,2.231,1.669,3.7,3.7,0,0,1,.417.425,5.325,5.325,0,0,1,.3.446,4.247,4.247,0,0,1,.366.78,2.887,2.887,0,0,1,.123.53l.022.189-.069-.178a3.7,3.7,0,0,0-.733-1.123c-.107-.115-.227-.233-.36-.35s-.246-.264-.4-.391A20.182,20.182,0,0,0,65.2,67.881a10.939,10.939,0,0,1-1.235-1,5.141,5.141,0,0,1-1.007-1.311,9.315,9.315,0,0,1-.589-1.5c-.161-.495-.307-.987-.431-1.47a12.012,12.012,0,0,1-.41-2.7,4.606,4.606,0,0,1,.009-.579c.034-.183.057-.356.1-.515A6.03,6.03,0,0,1,61.88,58a3.523,3.523,0,0,1,.223-.495Z"/><path class="cls-5" d="M82.734,58s-.095.349-.275.943l-.3,1.054c-.118.4-.227.865-.362,1.355-.119.5-.231,1.032-.352,1.591-.1.563-.191,1.156-.27,1.762s-.093,1.236-.123,1.865c-.018.315.008.631.007.948.033.314.043.633.092.944a9.084,9.084,0,0,0,.131.934,8.678,8.678,0,0,0,.209.912l.058.218.073.237.134.446c.1.3.2.611.313.919A16.15,16.15,0,0,1,82.631,74c.046.182.064.3.1.456s.062.314.076.461c.038.3.06.584.079.857a14.534,14.534,0,0,1-.092,2.6c-.03.309-.081.552-.1.717l-.041.254-.135.01-.086-.951c-.061-.6-.142-1.469-.341-2.489a13.007,13.007,0,0,0-.425-1.62c-.189-.564-.436-1.145-.694-1.749a17.783,17.783,0,0,1-.722-1.9,9.814,9.814,0,0,1-.262-1.012,10.309,10.309,0,0,1-.174-1.038c-.048-.348-.049-.7-.074-1.048.008-.349-.009-.7.02-1.041A14.24,14.24,0,0,1,80,64.5a17.279,17.279,0,0,1,.458-1.836c.18-.575.376-1.11.574-1.6s.4-.928.59-1.311.368-.714.511-.987c.3-.536.481-.837.481-.837Z"/><path class="cls-5" d="M97.665,68.166a4.154,4.154,0,0,1-.248.514,7.877,7.877,0,0,1-.826,1.218,7.6,7.6,0,0,1-.652.729,8.347,8.347,0,0,1-.8.74l-.451.362a5.125,5.125,0,0,1-.513.362,6.65,6.65,0,0,1-1.216.616,4.927,4.927,0,0,1-1.473.31c-.064.005-.13.005-.195.005h-.217l-.018,0-.289-.036-.4-.066-.329-.08a6.173,6.173,0,0,1-1.089-.416c-.318-.138-.586-.291-.834-.418s-.466-.235-.67-.328-.384-.157-.545-.2a3.281,3.281,0,0,0-.389-.088l-.15-.029-.042-.123.141-.037a2.368,2.368,0,0,1,.4-.078,4.241,4.241,0,0,1,1.448.114c.584.128,1.237.352,1.951.482.179.032.359.052.539.067a3.864,3.864,0,0,0,.561-.009,4.149,4.149,0,0,0,1.1-.269,9.927,9.927,0,0,0,1.985-1.075c.607-.4,1.156-.8,1.616-1.148.924-.7,1.506-1.209,1.506-1.209Z"/><path class="cls-5" d="M46.19,59.281l.109.216c.07.141.18.344.3.612s.271.595.42.976a4.756,4.756,0,0,1,.226.612c.057.221.117.454.179.7a26.26,26.26,0,0,1,.609,3.368,26.583,26.583,0,0,1,.164,3.914c-.027.667-.064,1.334-.142,1.987a19.047,19.047,0,0,1-.289,1.913,13.161,13.161,0,0,1-.486,1.755c-.093.268-.175.531-.254.789s-.189.495-.279.729c-.372.931-.7,1.7-.976,2.224a4.364,4.364,0,0,1-.49.786,4.307,4.307,0,0,0,.373-.833c.2-.543.443-1.336.7-2.3.067-.239.124-.492.207-.748l.266-.792a12.605,12.605,0,0,0,.471-1.7,18.435,18.435,0,0,0,.283-1.873c.076-.641.113-1.3.139-1.953a26.14,26.14,0,0,0-.161-3.85,25.86,25.86,0,0,0-.6-3.312q-.089-.36-.186-.684c-.059-.217-.094-.428-.135-.626-.075-.4-.163-.735-.227-1.019Z"/><path class="cls-5" d="M33.443,81.8l.111.33c.069.217.188.531.306.934s.275.888.448,1.447l.587,1.849c.223.67.483,1.384.772,2.12a24.221,24.221,0,0,0,1.048,2.229c.2.366.421.742.665,1.106s.5.725.759,1.095c.53.74,1.126,1.479,1.73,2.238q.448.6.9,1.2.4.6.8,1.192c.536.785,1.014,1.59,1.5,2.351l.358.569.176.282.182.308c.217.385.439.782.631,1.2.1.209.184.423.26.641l.057.173.042.143c.034.116.059.231.08.334a11.171,11.171,0,0,1,.164,1.177,18.434,18.434,0,0,0,.229,1.875,11.832,11.832,0,0,0,.38,1.411c.14.386.252.7.345.9l.142.316L46,109.3l-.2-.288a9.7,9.7,0,0,1-1.113-2.241,13.067,13.067,0,0,1-.471-1.905,7.039,7.039,0,0,0-.713-2.166,25.334,25.334,0,0,0-1.423-2.17l-1.6-2.291c-.272-.39-.545-.784-.82-1.178l-.884-1.143a26.721,26.721,0,0,1-3.148-4.729A21.1,21.1,0,0,1,34.1,86.522c-.3-1.4-.479-2.584-.6-3.409s-.186-1.3-.186-1.3Z"/><path class="cls-1" d="M43.486,106.783a27.087,27.087,0,0,0-.233,4.665c.167,1.681-.556,2.3-2.439,3.427l-4.438,2.668s-2.844.813-.169,6.024,6.66,8.176,8.712,7.3,1.233-3.589,5.153-5.049,10.118-4.679,10.118-4.679-3.317-10.129-7.844-11.291A65.915,65.915,0,0,1,43.486,106.783Z"/></svg>