<svg id="word" xmlns="http://www.w3.org/2000/svg" xmlns:xlink="http://www.w3.org/1999/xlink" viewBox="0 0 160 160"><defs><style>.cls-1,.cls-3,.cls-4,.cls-6{fill:none;}.cls-2{clip-path:url(#clip-path);}.cls-3{stroke:#9c4c9c;}.cls-3,.cls-4,.cls-6{stroke-miterlimit:10;}.cls-3,.cls-6{stroke-width:3.028px;}.cls-4,.cls-6{stroke:#534741;}.cls-4{stroke-linecap:round;stroke-width:6.056px;}.cls-5{fill:#534741;}</style><clipPath id="clip-path"><rect class="cls-1" x="14" y="14" width="132" height="132"/></clipPath></defs><g class="cls-2"><line class="cls-3" x1="131.698" y1="-51.702" x2="134.319" y2="43.761"/><line class="cls-4" x1="225.505" y1="-215.393" x2="53.13" y2="85.955"/><polygon class="cls-5" points="242.121 -131.152 248.104 -141.585 242.121 -141.589 242.121 -141.596 224.478 -141.596 224.478 -129.918 224.142 -129.336 213.002 -129.336 213.002 -111.742 205.127 -111.742 205.127 -94.164 203.796 -94.098 194.623 -94.098 194.832 -76.328 193.609 -76.455 183.147 -76.455 183.147 -58.812 173.811 -58.812 173.811 -42.166 173.235 -41.168 163.308 -41.168 163.308 -23.975 163.048 -23.525 151.832 -23.525 151.832 -5.882 143.01 -5.882 143.01 11.179 142.674 11.762 132.507 11.762 132.507 29.37 132.487 29.405 121.031 29.405 121.031 46.999 113.156 46.999 113.156 62.885 113.164 64.643 102.653 64.643 102.653 81.076 102.636 82.286 91.177 82.286 91.177 99.929 81.84 99.929 81.84 117.121 81.58 117.573 71.337 117.573 71.337 134.362 70.807 135.216 59.861 135.216 59.861 152.859 77.504 152.859 79.255 152.859 119.726 82.286 129.843 64.643 150.05 29.405 150.15 29.405 150.15 29.23 160.168 11.762 160.654 10.914 180.403 -23.525 190.52 -41.168 200.791 -59.078 210.755 -76.455 212.267 -79.09 220.873 -94.098 222.77 -97.406 241.08 -129.336 242.121 -131.152"/><line class="cls-6" x1="70.544" y1="55.394" x2="73.165" y2="146.54"/><line class="cls-3" x1="151.117" y1="-87.385" x2="154.613" y2="4.367"/><line class="cls-6" x1="112.075" y1="-21.409" x2="114.696" y2="74.054"/><line class="cls-6" x1="90.351" y1="19.497" x2="92.972" y2="112.125"/></g></svg>