<svg id="word" xmlns="http://www.w3.org/2000/svg" viewBox="0 0 160 160"><defs><style>.cls-1,.cls-17{fill:#fde6d8;}.cls-1,.cls-10,.cls-11,.cls-12,.cls-13,.cls-15,.cls-16,.cls-17,.cls-19,.cls-2,.cls-20,.cls-21,.cls-22,.cls-23,.cls-24,.cls-25,.cls-26,.cls-27,.cls-28,.cls-29,.cls-3,.cls-30,.cls-31,.cls-32,.cls-33,.cls-34,.cls-36,.cls-37,.cls-38,.cls-39,.cls-4,.cls-40,.cls-41,.cls-42,.cls-43,.cls-44,.cls-45,.cls-5,.cls-6,.cls-7,.cls-8,.cls-9{stroke:#9d4b9c;stroke-width:0.677px;}.cls-1,.cls-10,.cls-11,.cls-12,.cls-13,.cls-15,.cls-16,.cls-17,.cls-19,.cls-2,.cls-20,.cls-21,.cls-22,.cls-23,.cls-24,.cls-25,.cls-26,.cls-27,.cls-28,.cls-29,.cls-3,.cls-30,.cls-31,.cls-32,.cls-36,.cls-37,.cls-38,.cls-39,.cls-4,.cls-40,.cls-41,.cls-42,.cls-43,.cls-44,.cls-45,.cls-5,.cls-6,.cls-7,.cls-8,.cls-9{stroke-miterlimit:10;}.cls-2{fill:#fdbc30;}.cls-3{fill:#00a9e5;}.cls-4{fill:#00adee;}.cls-5{fill:#9a8479;}.cls-6{fill:#9e9539;}.cls-7{fill:#ea5c25;}.cls-8{fill:#8bc53f;}.cls-9{fill:#fff;}.cls-10{fill:#ec1c24;}.cls-11{fill:#797b7d;}.cls-12{fill:#4e4f51;}.cls-13{fill:#26a9e0;}.cls-14{fill:#1b75bb;}.cls-15{fill:#fde0ce;}.cls-16{fill:#ffd66f;}.cls-17,.cls-19{stroke-linecap:round;}.cls-18{fill:#9d4b9c;}.cls-19{fill:none;}.cls-20{fill:#f2869d;}.cls-21{fill:#da4c73;}.cls-22{fill:#d293c0;}.cls-23{fill:#f499a9;}.cls-24{fill:#793641;}.cls-25{fill:#b87473;}.cls-26{fill:#b65968;}.cls-27{fill:#8f5959;}.cls-28{fill:#75cac3;}.cls-29{fill:#009599;}.cls-30{fill:#fff357;}.cls-31{fill:#b7d565;}.cls-32{fill:#6b9c51;}.cls-33{fill:#f9ec31;}.cls-34{fill:#ffd340;}.cls-35{fill:#00b3f0;opacity:0.23;}.cls-36{fill:#5da1c8;}.cls-37{fill:#6cbbe8;}.cls-38{fill:#f49fc4;}.cls-39{fill:#0083b2;}.cls-40{fill:#ec2a90;}.cls-41{fill:#e6e75e;}.cls-42{fill:#50c7ed;}.cls-43{fill:#7956a3;}.cls-44{fill:#ffc735;}.cls-45{fill:#f7b3c1;}</style></defs><path class="cls-1" d="M99.672,71.439c-1.462-.737-4.475-1.257-4.826-2.333s5.706.133,6.226-1.167-4.536-1.594-6.456-1.918-2.832-3.414-2.68-4.283,1.648-4.3-.021-4.523-2.332,3.818-2.452,4.118-2.129,4.1-2.129,4.1l-3.12,1.194h0S72.447,67.7,71.167,68.391s-8.3-1.55-8.3-1.55l-2.105,7.2s3.309.083,6.111-.089,7.057-.316,8.548-.576c1.185-.2,5.559-1.051,7.31-1.39l1.722.165a2.578,2.578,0,0,1,1.76.724c.769.762,2.916.52,2.916.52s1.061,1.251,1.576,1.917,1.907,2.309,3.029,2.188-1.479-3.868-1.359-4.168,1.655,1.111,2.245,1.586,2.1,1.713,2.617.413S94.5,72.962,94.39,71.713c-.087-.944,2.385.779,4.322,1.305C99.766,73.3,101.585,72.4,99.672,71.439Z"/><path class="cls-2" d="M73.716,66.448a7.413,7.413,0,0,0-1.379,4.426,24.388,24.388,0,0,0,.515,5.075,3.345,3.345,0,0,0-2.935,0c-1.209.822-2.62-.565-3.518-.164s-10.247-.338-12.221-2.756c-3.1-3.8-.381-7.783,3.3-8.262s11.311,1.652,12.7,1.554A25.572,25.572,0,0,1,73.716,66.448Z"/><path class="cls-3" d="M74.581,65.263s-2.635-.26-3.216-.2-1.181,1.256-1.181,1.256.17,5.643-.325,6.881a8.283,8.283,0,0,0-.4,2.959A3.959,3.959,0,0,0,72.3,77.329a6.788,6.788,0,0,0,2.855-1.2l-.232-1.762a25.125,25.125,0,0,0,.518-4.892A9.238,9.238,0,0,0,74.581,65.263Z"/><path class="cls-4" d="M64.306,117.283l1.027,5.3,4.911-1.046,2.052-1.872a11.311,11.311,0,0,1,.532-2.309c.216-.2-.97-3.03-.97-3.03l-3.241-1.112-4.311,4.069"/><path class="cls-5" d="M71.412,113.116s1.491-.155,3.236-.518c1.045-.217,5.687-.949,6.544,2.77s-3.782,5.515-6.254,7.051-5.616,3.174-7.538,2.667a2.774,2.774,0,0,1-2.374-3.106,8.769,8.769,0,0,0,5.222-1.159,4.16,4.16,0,0,0,1.61-6.5Z"/><path class="cls-5" d="M75.316,117.984s-2.312,1.5-3.361.233a6.247,6.247,0,0,1-.73-4.481,9.06,9.06,0,0,1,1.379-.8l2.044-.337s-1.258.926.31,2.893A3.959,3.959,0,0,1,75.316,117.984Z"/><path class="cls-4" d="M33.9,122.375l-1.87,5.057,4.723,1.724,2.715-.5a11.064,11.064,0,0,1,1.648-1.682c.289-.058.744-3.1.744-3.1L39.678,121.2,32.591,123"/><path class="cls-5" d="M42.108,122.608s1.35.662,3.023,1.282c1,.371,5.331,2.218,4.137,5.839s-6.075,2.682-8.974,2.675-6.424-.287-7.8-1.742c-2.009-2.128-.413-3.907-.413-3.907a8.808,8.808,0,0,0,5.045,1.792,4.112,4.112,0,0,0,4.733-4.671Z"/><path class="cls-5" d="M42.911,128.829s-2.746.051-2.981-1.59a6.211,6.211,0,0,1,1.7-4.2,8.934,8.934,0,0,1,1.588.052l1.915.8s-1.55.119-1.234,2.627A3.929,3.929,0,0,1,42.911,128.829Z"/><path class="cls-6" d="M36.719,94.029s-3.2,11.858-2.869,13.377-1.171,15.631-1.171,15.631,7.983.387,9.249-.086-.143-9.221.491-11.3.886-5.549,3.419-7.732a71.591,71.591,0,0,1,7.093-5.008l.76,3.595s8.42,14.864,8.546,15.226,3.293.415,5.447-1.024a6.5,6.5,0,0,0,2.659-3.454s-2.7-9.839-5-13.83c-2.822-4.89-4.389-14.407-4.389-14.407L49.511,86.838,38.745,85.425Z"/><path class="cls-2" d="M54.109,59.813a7.056,7.056,0,0,1,4.6,5.8c.619,4.59,3.228,21.913,3.228,21.913s-5.933,5.329-10.4,4.4S31.36,89.95,31.36,89.95,34.744,73.712,36.514,70.2s6.158-10.3,6.158-10.3Z"/><path class="cls-7" d="M10.984,101.65s.879,2.939,2.539,3.435,6.665-.723,6.665-.723l30.88-7.332,9.382-2.121-1.242-5.645L30.693,95.712s-1.913-3.054-5.051-2.867-7.06,3.863-7.137,5.274a19.159,19.159,0,0,1-.543,3.173s-2.753.884-4.19-.011a32.6,32.6,0,0,0-3.191-1.692Z"/><path class="cls-8" d="M23.118,83.133s4.258,2.435,5.03,3.83,2.136,9.713,2.136,9.713-3.238-4.148-6.324-3.015-5.125,5.255-5.052,5.587l.457,2.076s-3.882,2.1-4.988,1.65A21.867,21.867,0,0,1,10.6,99.907s-.36-3.753,1.509-5.832a15.683,15.683,0,0,1,3.958-3.16s-1.467-4.2.16-5.266S23.118,83.133,23.118,83.133Z"/><path class="cls-9" d="M19.675,87.223a4.334,4.334,0,0,0-1.281,2.991c.181,1.528.339,2.95.339,2.95l8.791-1.988a4.994,4.994,0,0,0-.6-2.728c-.752-1.3-.6-2.729-1.783-2.461Z"/><path class="cls-9" d="M17.167,86.047l1.326,1.443a10.327,10.327,0,0,0-.8,3.046l.35,1.588-1.972-1.209s-.269-3.338.12-4.036A1.667,1.667,0,0,1,17.167,86.047Z"/><path class="cls-10" d="M10.942,96.311s1.766,1.9,3.058,2.13,2.383-.8,2.584.113-1.076,2.16-2.016,1.763a42.136,42.136,0,0,1-3.922-2.476Z"/><ellipse class="cls-11" cx="25.974" cy="103.343" rx="4.885" ry="5.328" transform="translate(-18.627 6.569) rotate(-10.636)"/><ellipse class="cls-12" cx="25.862" cy="103.195" rx="2.157" ry="2.539" transform="translate(-20.112 7.255) rotate(-11.535)"/><path class="cls-13" d="M50.952,75.705S26,80.737,24.875,81.6s-2.054,1.2-.223,2.469,3.934,3.83,4.368,5.918-.5,5.77,1.756,6.044,32.23-7.127,32.23-7.127l-5.142-8.925-2.308.086Z"/><path class="cls-14" d="M25.717,82.022s-.986.571.438,1.992,1.9,2.533,4.3,2.165,24.747-5.6,24.747-5.6l-4.567-4.2Z"/><ellipse class="cls-11" cx="54.059" cy="98.115" rx="4.885" ry="5.328" transform="translate(-17.18 11.663) rotate(-10.636)"/><ellipse class="cls-12" cx="53.948" cy="97.967" rx="2.157" ry="2.539" transform="translate(-18.5 12.766) rotate(-11.535)"/><path class="cls-15" d="M32.413,86.315s1.14,6.106,1.393,6.825a.977.977,0,0,1-1.393,1.077c-.76-.359-2.28-2.873-2.28-2.873s-.127,4.909,0,5.268.666,1.382-.057,1.8a1.861,1.861,0,0,1-1.716,0s-1.014,1.317-1.647.719l-.633-.6s-.887.838-1.393.239l-.507-.6s-.507.479-1.267-.6-1.266-4.55-.506-7.184.38-5.508,3.419-5.628S31.865,83.448,32.413,86.315Z"/><path class="cls-2" d="M42.337,62.91S36.75,60.48,28.993,73.867c-2.873,4.958-7.9,12.111-6.962,13.1a1.13,1.13,0,0,0,1.769,0s3.04-1.8,4.686-.9a35.232,35.232,0,0,0,5.364,1.926s-3.084-1.027.969-5.265,6.333-5.778,7.6-10.273S44.743,64.066,42.337,62.91Z"/><path class="cls-1" d="M64.017,50.4s1.53-.936,1.242-1.229-.652-.222-1.436-.725-1.746-1.187-1.746-1.187,2.542-.257,2.76-.328.8-.159,1.021-.666-.138-1.165-.5-1.968,1.028-1.3.923-2.431c-.1-1.092-1-.582-2.523-1.408-1.628-.883-1.054-1.343-1.331-3.382s-3.306-5.405-3.306-5.405-2.814-2.709-3.972-3.153-7.926,2.06-8.442,3.294-1.524,11.631-1.524,11.631a63.464,63.464,0,0,0,2.55,7.559l-1.522,7.712,7.894,1.1L55.76,55c.333.012.533.012.533.012a22.239,22.239,0,0,0,6.042.169C64.951,54.76,64.017,50.4,64.017,50.4Z"/><path class="cls-16" d="M49.248,32.485s5.59-.037,7.406-.244a8.107,8.107,0,0,1,5.506,1.781,14.985,14.985,0,0,1,1.943,2.7,6.792,6.792,0,0,0-.486-3.568,29.35,29.35,0,0,0-3.023-4.093,3.242,3.242,0,0,1,2.827.527,17.38,17.38,0,0,1,2.958,3s-.63-3.714-2.15-4.379.515-1.233,1.018-.284a4.254,4.254,0,0,0,1.539,1.513s.258-2.424-3.1-3.148-7.347-1.55-11.116-2.446-10.822.877-12.567,1.3a24.123,24.123,0,0,0-4.806,2.3s-.511.506.373-1.526A36.233,36.233,0,0,0,36.9,22.44s-2.265,2.387-2.563,3.549-.449,2.18-.449,2.18-.86-1.752-.494-2.259a2.114,2.114,0,0,1,.658-.65,2.17,2.17,0,0,0-1.037,3.194c.574,1.168-1.079-1.534-1.146-2.335a11.767,11.767,0,0,1,.158-2.181s-.9,4.505-.033,5.383l.865.879-3.119-.384L32.411,31.8s-2.183.714-3.266-.093-2.012-.89.348.956c1.651,1.292,1.351,1.031,1.351,1.031a24.12,24.12,0,0,1-2.659.553c-.8.068,2.569.349,2.569.349s-3.035,4.45-2.833,7,1.09-.212,1.09-.212,2.945,5.039,3.584,7.3,5.189,6.144,7.8,6.6,5.887-.2,6.756.093,1.007-3.447,1.007-3.447-1.824-6.139-.667-5.4a14.324,14.324,0,0,1,2.179,1.772,11.978,11.978,0,0,0-.429-2.925c-.289-.293,1.5,3.429,1.5,3.865a13.372,13.372,0,0,0,.9-3.923c.082-1.527.863,1.315.863,1.315s.624-2.064-.706-6.531S49.248,32.485,49.248,32.485Z"/><path class="cls-17" d="M47.254,46.438a1.294,1.294,0,0,0-2.115.941c-.449,2.034-.156,4.21,2,4.377s1.943,1.374,3.148,1.66.7-.688.7-.688"/><path class="cls-9" d="M60.126,38.054a1.747,1.747,0,0,0-1.379,2.2c.149.905.837,2.126,2.085,1.709S61.364,38.15,60.126,38.054Z"/><path class="cls-18" d="M60.894,39.612s-1.019.076-.819,1.3c.087.538.5,1.263,1.238,1.015S61.629,39.668,60.894,39.612Z"/><path class="cls-19" d="M57.481,37.2q.426-.488.866-.963A3.04,3.04,0,0,1,59,35.663a3.144,3.144,0,0,1,1.876-.229"/><path class="cls-18" d="M41.247,28.709a12.791,12.791,0,0,0,4.8,1.283,17.926,17.926,0,0,0,5.023-.431,14.952,14.952,0,0,1,2.539-.454,9.49,9.49,0,0,1,2.563.306,14.018,14.018,0,0,1,4.736,1.9,13.919,13.919,0,0,0-4.772-1.731,9.205,9.205,0,0,0-2.512-.218,14.608,14.608,0,0,0-2.476.529,18.328,18.328,0,0,1-5.127.609,13.372,13.372,0,0,1-5.066-1.178Z"/><path class="cls-18" d="M34.783,30.793a17.8,17.8,0,0,1,6.941,2.222,9.874,9.874,0,0,1,4.487,5.546,9.7,9.7,0,0,0-4.655-5.252,17.293,17.293,0,0,0-6.846-1.843Z"/><path class="cls-18" d="M42.7,32.345a6.675,6.675,0,0,1,3.4,1.672,11.363,11.363,0,0,1,2.53,2.722,6.37,6.37,0,0,1,.9,3.573,18.769,18.769,0,0,1-.539,3.63,18.69,18.69,0,0,0,.37-3.629,6.118,6.118,0,0,0-1.016-3.391,10.943,10.943,0,0,0-2.557-2.5,6.123,6.123,0,0,0-3.143-1.4Z"/><path class="cls-18" d="M34.724,33.2a12.935,12.935,0,0,0-1.855,5.029,14.48,14.48,0,0,0,.747,5.374,14.607,14.607,0,0,1-1.084-5.4,13.385,13.385,0,0,1,1.594-5.322Z"/><path class="cls-18" d="M36.819,35.4A17.237,17.237,0,0,0,39.8,49.94a17.574,17.574,0,0,1-3.641-14.7Z"/><path class="cls-18" d="M36.589,27.374a15.1,15.1,0,0,0,4.786.367,3.894,3.894,0,0,0,1.486-.315c.413-.224.771-.678,1.238-1.013a6.772,6.772,0,0,1,1.468-.839,9.652,9.652,0,0,1,3.257-.689,21.657,21.657,0,0,1,3.3.146c1.087.124,2.179.216,3.258.441a8.347,8.347,0,0,1,3.036,1.245,21.27,21.27,0,0,1,2.542,2.073,21.332,21.332,0,0,0-2.588-2,8.236,8.236,0,0,0-3.023-1.15c-1.067-.194-2.16-.259-3.248-.355a21.559,21.559,0,0,0-3.252-.061,9.3,9.3,0,0,0-3.109.74,6.369,6.369,0,0,0-1.351.818,14.722,14.722,0,0,1-1.272,1.087,4.329,4.329,0,0,1-1.684.422,16,16,0,0,1-1.667.093,15.808,15.808,0,0,1-3.322-.348Z"/><path class="cls-18" d="M39.042,29.643a22.567,22.567,0,0,0,9.444,1.9,20.678,20.678,0,0,1,4.915.226A5.237,5.237,0,0,1,57.2,34.638a5.153,5.153,0,0,0-3.83-2.706,20.527,20.527,0,0,0-4.869-.053,23.068,23.068,0,0,1-9.716-1.612Z"/><path class="cls-18" d="M49.776,32.374c.007.378,1,.7,1.447,1.3.491.567.923,1.127,1.387,1.691a2.366,2.366,0,0,1,.524,1.016l.168,1.079.329,2.149-.495-2.117-.249-1.053a2.089,2.089,0,0,0-.531-.851c-.5-.518-1-1.068-1.5-1.559a3.17,3.17,0,0,0-.825-.581,1.58,1.58,0,0,1-.92-.935Z"/><path class="cls-18" d="M57.634,28.435c.836.2,1.74.272,2.636.5a7.33,7.33,0,0,1,2.477,1.189A15.6,15.6,0,0,1,66.3,34.155,15.456,15.456,0,0,0,62.556,30.4a6.879,6.879,0,0,0-2.4-.972c-.85-.163-1.744-.176-2.661-.333Z"/><path class="cls-3" d="M43.353,57.573a15.934,15.934,0,0,0,3.793,1.3c3.246.419,5.965.526,5.965.526l.52,4.771s-4.434-3.014-6.77-2.994c-.643.006-6.342,1.562-6.342,1.562S40.692,58.617,43.353,57.573Z"/><path class="cls-3" d="M34.425,84.412v4.157a46.974,46.974,0,0,1-6.485,0,34.075,34.075,0,0,0-6.025.122s-1.186-3.492,0-4.28S34.425,84.412,34.425,84.412Z"/><path class="cls-18" d="M28.081,98.6a6.366,6.366,0,0,1-.793-2.6,10.42,10.42,0,0,1,.073-2.637,10.25,10.25,0,0,0,.261,2.581,5.875,5.875,0,0,0,1.016,2.271Z"/><path class="cls-18" d="M26.02,98.719a14.881,14.881,0,0,1-.468-4.686A14.528,14.528,0,0,0,26.661,98.5Z"/><path class="cls-18" d="M23.928,98.209a17.388,17.388,0,0,1,.04-3.838,17.1,17.1,0,0,0,.625,3.712Z"/><polygon class="cls-3" points="55.036 57.108 54.699 60.054 56.485 64.71 57.994 61.92 55.036 57.108"/><path class="cls-18" d="M54.593,60.208a24.928,24.928,0,0,0,.386,3.716l.8,3.652c.555,2.433,1.038,4.9,1.455,7.368.364,2.478.694,4.963.887,7.461s.306,5,.275,7.5c-.25-2.491-.486-4.976-.793-7.452s-.623-4.949-1.037-7.407c-.359-2.47-.847-4.908-1.295-7.372l-.616-3.711A20.621,20.621,0,0,1,54.593,60.208Z"/><polygon class="cls-20" points="94.698 56.779 94.698 73.231 79.932 68.309 79.932 53.17 94.698 56.779"/><polygon class="cls-21" points="105.842 51.764 105.842 68.45 94.698 73.231 94.698 56.779 105.842 51.764"/><polygon class="cls-22" points="105.842 51.764 92.208 48.588 79.932 53.17 94.698 57.09 105.842 51.764"/><path class="cls-23" d="M81.682,126.951c0,3.743,1.67,6.779,3.728,6.779s3.726-3.036,3.726-6.779-1.668-6.781-3.726-6.781S81.682,123.206,81.682,126.951Z"/><path class="cls-24" d="M82.917,127.178c0,2.815,1.213,5.1,2.71,5.1s2.71-2.281,2.71-5.1-1.213-5.1-2.71-5.1S82.917,124.363,82.917,127.178Z"/><path class="cls-25" d="M149.428,85.693v24.715s-5.219,7.309-7.88,11.541-10.234,13.272-12.689,10.868c-1.616-1.583-1.024-33.467-1.024-33.467Z"/><path class="cls-26" d="M148.643,85.757,133.088,99.991,80.693,94.733s-2.388-2.885,9.688-6.925a37.138,37.138,0,0,0,11.871-6.539Z"/><polygon class="cls-27" points="145.027 86.558 131.928 97.81 129.063 98.868 133.088 99.991 149.325 85.5 145.027 86.558"/><polygon class="cls-27" points="102.456 81.941 84.855 92.136 79.124 93.001 102.456 80.114 102.456 81.941"/><polygon class="cls-27" points="149.325 85.5 102.456 80.114 102.456 81.941 145.027 86.558 149.325 85.5"/><path class="cls-23" d="M142.875,118.226c-.391,3.833.592,7.057,2.195,7.2s3.221-2.845,3.611-6.679-.592-7.057-2.2-7.2S143.266,114.393,142.875,118.226Z"/><path class="cls-24" d="M143.812,118.546c-.293,2.88.414,5.3,1.58,5.407s2.349-2.146,2.643-5.028-.413-5.3-1.579-5.407S144.106,115.665,143.812,118.546Z"/><path class="cls-23" d="M133.784,130.5c-.334,3.731,1.057,6.888,3.108,7.05s3.985-2.731,4.319-6.462-1.058-6.888-3.108-7.05S134.118,126.773,133.784,130.5Z"/><path class="cls-24" d="M134.993,130.829c-.251,2.8.754,5.173,2.246,5.291s2.9-2.06,3.156-4.865-.754-5.174-2.247-5.292S135.244,128.023,134.993,130.829Z"/><polygon class="cls-20" points="114.592 88.3 114.592 98.323 106.678 95.324 106.678 86.101 114.592 88.3"/><polygon class="cls-21" points="120.565 85.245 120.565 95.41 114.592 98.323 114.592 88.3 120.565 85.245"/><polygon class="cls-22" points="120.565 85.245 113.258 83.309 106.678 86.101 114.592 88.489 120.565 85.245"/><polygon class="cls-28" points="92.541 84.696 83.173 91.532 81.783 82.01 90.581 75.689 92.541 84.696"/><polygon class="cls-29" points="98.763 89.807 89.928 96.254 83.173 91.532 92.541 84.696 98.763 89.807"/><polygon class="cls-30" points="98.544 89.923 96.523 80.956 90.362 75.805 92.323 84.812 98.544 89.923"/><polygon class="cls-31" points="102.286 85.405 102.251 95.806 92.977 93.631 93.011 83.585 102.286 85.405"/><polygon class="cls-32" points="109.826 82.505 109.266 92.815 102.251 95.806 102.286 85.405 109.826 82.505"/><polygon class="cls-8" points="109.826 82.505 101.428 80.17 93.011 83.585 102.286 85.405 109.826 82.505"/><path class="cls-33" d="M119.074,73.885s.191-6.243-4.718-5.82c-3.434.3-4.1,4.045-4.1,5.2s1.954,7.235-1.362,8.6a4.466,4.466,0,0,1-5.329-1.638,13.116,13.116,0,0,0-.474,3.27c.118,1.029,2.369,7.717,5.566,8.332s6.573,1.091,8.823-1.843,3.02-8.667,2.309-10.783A20.644,20.644,0,0,1,119.074,73.885Z"/><path class="cls-34" d="M115.106,74.908s.829-2.047,1.9-1.433,1.481.137,2.073.41,1.184-.183,2.072.249.3,1.935.3,1.935a2.093,2.093,0,0,1-1.125,2.047,7.225,7.225,0,0,1-4.085.409A4.519,4.519,0,0,1,114.1,77.3s-.888,0-.355-.682S115.106,74.908,115.106,74.908Z"/><path class="cls-35" d="M110.665,83.5s0-1.564,1.244-1.223,1.776,2.525.651,4.231-2.309,2.116-3.849,1.5-2.546-3.344-2.546-3.344"/><path class="cls-18" d="M121.538,76.222A16.144,16.144,0,0,1,118.2,77.5a6.409,6.409,0,0,1-3.511-.446,6.245,6.245,0,0,0,3.431.118,15.77,15.77,0,0,0,3.111-1.547Z"/><ellipse class="cls-18" cx="117.558" cy="72.387" rx="0.478" ry="0.591"/><ellipse class="cls-18" cx="113.654" cy="72.769" rx="0.478" ry="0.591"/><polygon class="cls-36" points="117.64 92.259 120.845 98.111 124.181 99.695 120.103 91.696 117.64 92.259"/><polygon class="cls-37" points="138.017 77.119 141.564 84.078 124.181 99.695 120.103 91.696 138.017 77.119"/><polygon class="cls-38" points="130.448 85.487 132.542 89.596 135.363 87.097 133.296 83.043 130.448 85.487"/><path class="cls-3" d="M114.856,89.058s.686-.538,2.014.184,3.467,3.917,3.467,3.917l18.957-16.9s-1.47-3.279-3.4-3.3-4.908,2.292-4.908,2.292Z"/><path class="cls-39" d="M114.707,91.9l5.63,1.257s-1.769-3.982-3.27-4.345a2.341,2.341,0,0,0-2.392.514A18.884,18.884,0,0,0,114.707,91.9Z"/><path class="cls-40" d="M129.1,75.933l.762,1.494s.8.542,1.41.131a1.182,1.182,0,0,0,.4-.857l-.617-2.088Z"/><ellipse class="cls-41" cx="130.196" cy="75.52" rx="1.2" ry="0.988" transform="translate(-10.78 128.246) rotate(-50.622)"/><ellipse class="cls-42" cx="134.656" cy="93.1" rx="3.138" ry="2.771" transform="translate(11.624 201.095) rotate(-75.936)"/><ellipse class="cls-43" cx="134.821" cy="93.487" rx="1.825" ry="2.117" transform="translate(-3.257 4.881) rotate(-2.049)"/><ellipse class="cls-44" cx="134.845" cy="93.471" rx="0.691" ry="0.799" transform="translate(-1.823 2.687) rotate(-1.134)"/><polygon class="cls-38" points="134.571 81.894 136.666 86.003 139.486 83.504 137.419 79.45 134.571 81.894"/><ellipse class="cls-42" cx="140.303" cy="87.241" rx="2.932" ry="2.583" transform="translate(32.959 212.832) rotate(-81.353)"/><ellipse class="cls-43" cx="140.459" cy="87.605" rx="1.692" ry="1.99" transform="translate(-7.827 14.022) rotate(-5.56)"/><ellipse class="cls-44" cx="140.481" cy="87.59" rx="0.64" ry="0.751" transform="translate(-6.835 12.06) rotate(-4.799)"/><polygon class="cls-38" points="126.261 89.403 128.356 93.512 131.176 91.013 129.109 86.959 126.261 89.403"/><polygon class="cls-38" points="122.427 92.723 124.522 96.832 127.342 94.333 125.275 90.278 122.427 92.723"/><ellipse class="cls-42" cx="129.156" cy="98.087" rx="3.138" ry="2.771" transform="translate(2.623 199.535) rotate(-75.936)"/><ellipse class="cls-43" cx="129.321" cy="98.474" rx="1.825" ry="2.117" transform="translate(-3.439 4.687) rotate(-2.049)"/><ellipse class="cls-44" cx="129.344" cy="98.457" rx="0.691" ry="0.799" transform="translate(-1.923 2.579) rotate(-1.134)"/><path class="cls-40" d="M119.914,84.208l.761,1.494s.8.542,1.41.131a1.177,1.177,0,0,0,.4-.857l-.617-2.088Z"/><ellipse class="cls-41" cx="121.014" cy="83.795" rx="1.2" ry="0.988" transform="matrix(0.634, -0.773, 0.773, 0.634, -20.533, 124.174)"/><path class="cls-23" d="M133.157,99.35s-16.1-1.668-18.011-1.924S87.927,92.785,85.367,92.52c-7.471-.769-6.038.545-6.038,4.906s1.637,24.715.819,28.177c-.77,3.256,17.873,3.623,24.151,4.906s28.039,7.5,28.243-.129C132.679,125.247,133.157,99.35,133.157,99.35Z"/><polygon class="cls-45" points="132.133 97.426 83.832 92.136 78.988 93.129 133.225 100.15 132.236 97.521 132.133 97.426"/></svg>