<svg id="word" xmlns="http://www.w3.org/2000/svg" viewBox="0 0 160 160"><defs><style>.cls-1{fill:#c2d840;}.cls-1,.cls-10,.cls-11,.cls-12,.cls-13,.cls-14,.cls-15,.cls-2,.cls-3,.cls-4,.cls-5,.cls-8,.cls-9{stroke:#9d4b9c;stroke-width:0.732px;}.cls-1,.cls-10,.cls-15,.cls-4,.cls-5,.cls-8,.cls-9{stroke-miterlimit:10;}.cls-2{fill:#c3996b;}.cls-3{fill:#c2bf3c;}.cls-4{fill:#fde0ce;}.cls-5{fill:#8ad6f7;}.cls-6{fill:#32ba9f;}.cls-7{fill:#9d4b9c;}.cls-8{fill:#e0903f;}.cls-9{fill:#fff;}.cls-10,.cls-12,.cls-15{fill:none;}.cls-10{stroke-linecap:round;}.cls-11{fill:#8a5d3b;}.cls-13{fill:#f6921e;}.cls-14{fill:#ffc50a;}</style></defs><path class="cls-1" d="M95.833,102.992s-3.035,6.984-5.32,11.907-.936,10.872-.936,10.872,26.932,5.914,39.27,1.465c4.686-1.69,9.936-7.345,9.936-7.345s-4.969-11.169-8.753-15.375a74.833,74.833,0,0,0-6.989-6.973l-25.7,2.778Z"/><path class="cls-2" d="M52.049,113.09c-.487-1.483-13.433-1.974-14.448-1.958l-7.529.258c-.1,0-8.388.716-8.848,1.7s.31,3.145.31,3.145l1.238.262a46.154,46.154,0,0,0,1.393,6.76,16.055,16.055,0,0,0,3.328,5.084s-1.471.446-.93,1.442.017.968,5.964,1.432h8.229c5.937-.464,5.419-.449,5.954-1.432s-.93-1.442-.93-1.442a16.037,16.037,0,0,0,3.328-5.084A46.154,46.154,0,0,0,50.5,116.5l1.238-.262A7.37,7.37,0,0,0,52.049,113.09Z"/><path class="cls-3" d="M32.427,107.628a11.8,11.8,0,0,1-4.012-9.053c.279-5.56,1.905-10.032,2-11.355s3.025-1.072,4.42,3.618,1.954,8.316,1.4,11.038a13.184,13.184,0,0,1-3.092,5.346v6.892h-.711Z"/><path class="cls-3" d="M36.637,96.557q.156-4.4.056-8.794s5.029,8.06,5.205,10.024c.67,7.5-2.3,8.092-2.592,10.388S36.637,96.557,36.637,96.557Z"/><path class="cls-4" d="M71.583,75.511s-1,5.853-3.014,7.062-2.69,2.562-3.777,1.043-5.664-7.165-4.507-8.105,7.636-3.2,8.49-2.254A20.172,20.172,0,0,0,71.583,75.511Z"/><path class="cls-1" d="M105.516,75.081s-11.335,7.353-18.979,0a12.718,12.718,0,0,0-7.071-3.721s-3.01,5.907-3.01,7.768.258,9.31,11.4,14.16c5.163,2.248,13.856,3.254,15.807-1.568s4.112-17.18,4.112-17.18Z"/><path class="cls-5" d="M52.3,80.849s5.318-8.168,8.187-6.838,8.947,3.3,8.288,6.838.05,10.234.05,10.234-2.942,1.861-3.128-1.116-.372-10.978-2.047-11.63-7.07,2.14-8.187,3.257a34.006,34.006,0,0,1-4.279,3.061S50.469,83.36,52.3,80.849Z"/><path class="cls-5" d="M50.085,79.514,73.537,92.829s2.534,7.09-1.954,12.776c-5.4,6.837-9.21,6.01-10.7,6.01S42.252,91.657,42.252,91.657,42.642,82.677,50.085,79.514Z"/><path class="cls-5" d="M47.453,90.772,33.5,96.913s-.255,3.154,2.233,3.349c1.76.138,15.031-1.507,15.031-1.507S52.344,92.254,47.453,90.772Z"/><path class="cls-4" d="M63.436,76.473s-3.468-.595-3.5,2.319S64.277,79.909,63.436,76.473Z"/><path class="cls-6" d="M84.384,82.033s-3.153-4.353-.5-5.551,2.334,2.144,2.334,2.144,4.352-.693,3.154,1.388S84.384,82.033,84.384,82.033Z"/><path class="cls-6" d="M86.49,90.667s-4.989-6.435-1.9-6.813,2.9,2.4,2.9,2.4,2.144-2.46,2.081,0S86.49,90.667,86.49,90.667Z"/><path class="cls-6" d="M100.353,85.425s-3.847-5.3-1.1-6.308,2.617,2.334,2.617,2.334,1.829-2.4,2.776-.252S100.353,85.425,100.353,85.425Z"/><path class="cls-6" d="M96.752,93.878s-5.119-2.693-3.81-3.785,3.2.729,3.2.729,1.013-4.006,1.906-.822S96.752,93.878,96.752,93.878Z"/><path class="cls-6" d="M91.9,85.763s-2.523-4.235-.757-4.988S93.7,82.3,93.7,82.3s3.619-1.428,3.3.889S91.9,85.763,91.9,85.763Z"/><path class="cls-4" d="M77.419,71.36a21.031,21.031,0,0,0-8.187-1.675c-4.651,0-11.35,4.652-10.792,6.7s4.466-1.675,6.513-1.3,5.21,2.912,7.07,1.921,4.433,1.335,4.433,1.335S81.8,72.672,77.419,71.36Z"/><path class="cls-7" d="M48.706,80.617a1.921,1.921,0,0,1,1.2,1.23,4.017,4.017,0,0,1,.188,1.77,9.635,9.635,0,0,1-1,3.343,4.724,4.724,0,0,1-2.542,2.48,3.241,3.241,0,0,1-1.8.071,2.126,2.126,0,0,1-1.389-1.022,2.136,2.136,0,0,0,1.452.668,3.154,3.154,0,0,0,1.537-.251,4.643,4.643,0,0,0,2.091-2.276,12.061,12.061,0,0,0,1.092-3.087,4.192,4.192,0,0,0,.033-1.6A1.893,1.893,0,0,0,48.706,80.617Z"/><path class="cls-7" d="M34.37,96.951a1.271,1.271,0,0,1,1.263-.191,1.807,1.807,0,0,1,1.093.865,1.549,1.549,0,0,1-.207,1.413,10.792,10.792,0,0,1-.718.983,3.661,3.661,0,0,1,.192-1.206,1.458,1.458,0,0,0,.073-.872,1.879,1.879,0,0,0-.664-.662A1.725,1.725,0,0,0,34.37,96.951Z"/><path class="cls-4" d="M63.8,77.558s-2.269.021-2.484,1.855.731,2.184,1.087,2.022S65.428,78.773,63.8,77.558Z"/><path class="cls-4" d="M64.812,78.863s-2.264-.149-2.615,1.664.566,2.232.933,2.1S66.343,80.195,64.812,78.863Z"/><path class="cls-4" d="M66.058,79.514s-2.268.021-2.483,1.854.73,2.185,1.087,2.023S67.684,80.729,66.058,79.514Z"/><path class="cls-4" d="M108.2,68.815s1.023,3.9.791,5.431-1.162,2.937,1.193,4.256,10.517-1,11-3.493a35.543,35.543,0,0,0,0-12.781Z"/><path class="cls-1" d="M109.207,73.032S99.763,83.259,98.066,92.944c-.592,3.379-2.233,10.048-2.233,10.048h28.283a66.74,66.74,0,0,0,10.073-.526s.184-27.324-5.235-29.618c-4.534-1.919-7.3-1.488-7.3-1.488s-6.465,4.465-9.442,4.093S109.207,73.032,109.207,73.032Z"/><path class="cls-1" d="M128.954,72.848s-4.094,2.977-6.326,9.676,1.091,14.292-1.489,15.63a21.528,21.528,0,0,0-6.326,4.838v3.721s3.349,3.349,3.349,5.954,5.095,3.905,9.189,2.416,8.745-10.79,10.606-18.572S139.213,73.75,128.954,72.848Z"/><path class="cls-8" d="M90.727,51.348c-1.225,2.145-3.855,3.037-1.98,10.194,2.469,9.421,11.84,8.263,13.239,7.5s-.832-3.066-.832-3.066S99.1,57.134,98.962,51.842s-4.727-16.56-4.727-16.56S93.612,46.3,90.727,51.348Z"/><path class="cls-4" d="M92.959,37.777s-.787,9.15.042,11.4a13.51,13.51,0,0,1-.167,9.11c-1.284,3.323,1.3,6.649,3.328,8.2s9.992,4.807,14.593,4.055c7.38-1.206,18.624-12.239,20.072-17.214s-.115-16.78-2.625-19.985-10.754-11.28-16.452-9.733S93.2,34.014,92.959,37.777Z"/><path class="cls-8" d="M111.6,30.733a14.734,14.734,0,0,0,1.827,5.856c1.624,2.727,7.113,3.517,6.622,9.311s1.578,4.156,1.405.927a51.263,51.263,0,0,0-.963-6.874s3.429,11.6,2.318,14.6-4.131,11.405-4.131,11.405,2.008,1.1,4.03-1.056a19.56,19.56,0,0,1,4.532-3.482s-1.915,5.213-3.373,5.737,1.9,1.808,5.134-.771,5.037-7.965,5.037-7.965l-2.268,7.908S140,60.763,141.04,55.009s1.6-10.969-1.8-13.72-2.021-8-2.711-11.158-4.855-5.907-7.338-7.905c-8.819-7.095-14.753-4.387-14.753-4.387s-.089-2.306-8.111-.332-8.254,2.027-10.151,5.117-2.246,2.966-5.434,5.741-5.325,3.644-4.811,7,3.26,4.908,3.282,7.159,1.512-3.222.629-5.355c-.564-1.361-.189,2.995.46,6.478.368,1.974.824,3.668,1.248,3.884,1.171.594-.155-3.277,2.342-7.385a54.315,54.315,0,0,1,4.281-6.225s-.386,2.31,1.15,6.358.569-5.28,4.185-8.45c1.245-1.092-.884,6.225-.263,7.17S111.6,30.733,111.6,30.733Z"/><path class="cls-9" d="M110.364,47.283s-.93-2.5,1.383-3.118,4.632-.022,4.874,3.374S113,51.64,112.2,51.154,110.364,47.283,110.364,47.283Z"/><path class="cls-10" d="M116.1,39.908a2.971,2.971,0,0,0-1.843-.646,8.6,8.6,0,0,0-1.973.234,10.194,10.194,0,0,0-4.827,1.89"/><path class="cls-10" d="M107.457,54.7a3.1,3.1,0,0,0-1.9-.882,2.414,2.414,0,0,0-2.1,1.45c-.384.813-.536.868-.395,1.756"/><path class="cls-7" d="M112.06,48.778s-.553-1.476.8-1.836,2.718,0,2.87,2.007a2.071,2.071,0,0,1-2.58,2.12C112.682,50.779,112.06,48.778,112.06,48.778Z"/><path class="cls-9" d="M94.236,50.736s-.458-2.636,1.383-3.118c2.316-.607,4.632-.023,4.873,3.373s-3.617,4.1-4.417,3.615S94.236,50.736,94.236,50.736Z"/><path class="cls-7" d="M95.968,52.369s-.553-1.477.8-1.836,2.718,0,2.87,2.007a2.071,2.071,0,0,1-2.58,2.12C96.59,54.37,95.968,52.369,95.968,52.369Z"/><path class="cls-10" d="M97.343,43.284a3.244,3.244,0,0,0-2.5.752,5.92,5.92,0,0,0-1.574,2.156"/><path class="cls-7" d="M116.5,18.2a15.7,15.7,0,0,0-6.267,3.811,44.3,44.3,0,0,0-4.855,5.73,44.416,44.416,0,0,1,4.6-5.99,16.227,16.227,0,0,1,6.3-4.249Z"/><path class="cls-7" d="M117.153,17.411c-.787,1.149-.547,2.809-.2,4.257a12.322,12.322,0,0,0,1.908,4.143c.89,1.251,2.034,2.348,2.861,3.692a5.01,5.01,0,0,1,.661,4.486,4.917,4.917,0,0,0-.815-4.386c-.861-1.286-2.034-2.324-3-3.574a12.774,12.774,0,0,1-2.144-4.217,10.6,10.6,0,0,1-.433-2.362A4.129,4.129,0,0,1,116.545,17Z"/><path class="cls-7" d="M117.376,17l4.716,7.851c1.554,2.624,3.207,5.2,4.568,7.954a21.009,21.009,0,0,1,2.442,8.809,11.806,11.806,0,0,1-2.939,8.463,11.71,11.71,0,0,0,2.756-8.458,20.735,20.735,0,0,0-2.586-8.649c-1.4-2.7-3.1-5.237-4.709-7.832l-4.872-7.755Z"/><path class="cls-7" d="M117.026,16.568a14.067,14.067,0,0,1,6.451,2.122,18.8,18.8,0,0,1,4.977,4.556,26.991,26.991,0,0,1,3.409,5.791,9.634,9.634,0,0,1,.668,6.555,9.55,9.55,0,0,0-.836-6.483,26.745,26.745,0,0,0-3.527-5.634,18.324,18.324,0,0,0-4.971-4.313,13.448,13.448,0,0,0-6.206-1.863Z"/><path class="cls-7" d="M123.791,42.251a40.483,40.483,0,0,1,.447,6.659,20.57,20.57,0,0,1-.978,6.6,14.319,14.319,0,0,1-3.612,5.561,13.326,13.326,0,0,1-2.665,1.986,2.714,2.714,0,0,1-1.606.375,1.464,1.464,0,0,1-1.248-.967,1.442,1.442,0,0,0,1.254.921,2.655,2.655,0,0,0,1.557-.409,13.285,13.285,0,0,0,2.58-2.036,14.063,14.063,0,0,0,3.393-5.548,20.092,20.092,0,0,0,.775-6.48,39.882,39.882,0,0,0-.619-6.538Z"/><path class="cls-7" d="M93.936,52.413a1.1,1.1,0,0,1,.28.658,3.13,3.13,0,0,1,.015.543,8.085,8.085,0,0,1-.123,1,4.82,4.82,0,0,1-.819,1.862A5.925,5.925,0,0,1,90.437,59.2a2.949,2.949,0,0,1-2,.017,5.323,5.323,0,0,1-1.7-.99,2.628,2.628,0,0,1-1.006-1.655,1.279,1.279,0,0,1,1.055-1.427,1.233,1.233,0,0,0-.96,1.416,2.487,2.487,0,0,0,1.032,1.518,3.473,3.473,0,0,0,3.446.764,5.474,5.474,0,0,0,2.494-2.651,4.249,4.249,0,0,0,.655-1.677,7.126,7.126,0,0,0,.082-.918,1.379,1.379,0,0,0-.1-.645Z"/><path class="cls-10" d="M113.362,58.186a7.9,7.9,0,0,1-11.176,2.567"/><path class="cls-10" d="M111.458,62.228a3.446,3.446,0,0,1-5.207,2.26"/><path class="cls-6" d="M129.569,82.033s-3.154-4.353-.5-5.551,2.334,2.144,2.334,2.144,4.352-.693,3.154,1.388S129.569,82.033,129.569,82.033Z"/><path class="cls-6" d="M117.9,89.755s-4.811-2.994-3.048-4.36a2.1,2.1,0,0,1,3.08.565s2.815-2.933,2.373.152S117.9,89.755,117.9,89.755Z"/><path class="cls-6" d="M106.464,89.657s-4.594-3.318-2.741-4.559a2.1,2.1,0,0,1,3.034.776s3.011-2.732,2.357.315S106.464,89.657,106.464,89.657Z"/><path class="cls-6" d="M114.2,82.888s-8.012-1.451-5.966-3.8S112,78.933,112,78.933s-.049-3.263,1.548-1.391S114.2,82.888,114.2,82.888Z"/><path class="cls-6" d="M127.291,91.3s-4.812-2.994-3.049-4.36a2.1,2.1,0,0,1,3.08.565s2.816-2.933,2.373.152S127.291,91.3,127.291,91.3Z"/><path class="cls-6" d="M113.18,96.288s-4.594-3.319-2.741-4.56a2.1,2.1,0,0,1,3.034.776s3.011-2.731,2.357.316S113.18,96.288,113.18,96.288Z"/><path class="cls-6" d="M106.211,100.506s-8.012-1.452-5.966-3.8,3.761-.157,3.761-.157-.049-3.263,1.548-1.391S106.211,100.506,106.211,100.506Z"/><path class="cls-4" d="M116.391,105.78s-5.407.51-6.758,0-12.165,5.78-12.5,6.46-1.352,1.53,1.014,2.55a2.747,2.747,0,0,0,3.548-1.36s-2.2,6.97-.676,7.65,1.858,0,1.858,0a2.6,2.6,0,0,0,2.846.637c.659-.178,1.439-1.777,1.439-1.777a3.084,3.084,0,0,0,2.812.29c1.351-.68,3.041-3.23,3.041-3.23s.576-1.088,3.379-2.21a11.6,11.6,0,0,0,4.562-3.57S118.9,105.606,116.391,105.78Z"/><path class="cls-7" d="M102.837,121.316a18.358,18.358,0,0,0,.119-2.523,6.157,6.157,0,0,1,.171-1.338,11.492,11.492,0,0,1,.481-1.236,9.113,9.113,0,0,1,1.371-2.23,4.93,4.93,0,0,1,2.109-1.487,4.832,4.832,0,0,0-1.966,1.6,8.832,8.832,0,0,0-1.175,2.254,11.323,11.323,0,0,0-.375,1.2,5.618,5.618,0,0,0-.066,1.231,18.394,18.394,0,0,1,.054,2.645Z"/><path class="cls-7" d="M101.139,113.7a7.022,7.022,0,0,1,5.691-4.374,6.656,6.656,0,0,0-5,4.607Z"/><path class="cls-7" d="M106.677,120.617a19.021,19.021,0,0,1,1.283-4,13.171,13.171,0,0,1,.888-1.895,1.9,1.9,0,0,1,1.756-.973,1.808,1.808,0,0,0-1.6,1.068,13.112,13.112,0,0,0-.7,1.926,18.471,18.471,0,0,0-.9,3.973Z"/><ellipse class="cls-11" cx="36.637" cy="113.615" rx="13.869" ry="2.009"/><path class="cls-12" d="M22.446,116.217c4.438,1.125,9.272,1.25,14.008,1.363,1.075.025,2.151.051,3.224.016a56.372,56.372,0,0,0,6.615-.734"/><path class="cls-12" d="M27.579,128.315a70.326,70.326,0,0,0,7.666,1.018,23.828,23.828,0,0,0,7.686-.652"/><path class="cls-3" d="M38.379,113.25l.906-5.263s2.525-4.263,4.4-5.2,2.282-2.006,2.792-1.128,2.716,9.412,4.528,11.225a16.96,16.96,0,0,0,4.59,3s.647-6.079-1.489-9.212-6.8-6.832-7.9-6.33A22.2,22.2,0,0,0,42,103.411c-.583.626-2.719,3.509-2.719,3.509l-1.748,6.73.689.744Z"/><path class="cls-13" d="M22.6,97.058s-.152-2.832-2.177-2.619,1.316,2.886,1.316,2.886-3.595-2.031-4,0,3.342.785,3.342.785-4.507,2.047-3.748,3.811,3.444-2.245,3.444-2.245-2.38,3.634-1.215,5.077,1.9-3.153,1.9-3.153-.991,5.558,1.592,4.7,0-4.542,0-4.542,2.477,4.7,4.049,2.725-2.125-3.848-2.125-3.848,4.788,1.978,5.306-.908-3.927-.748-3.927-.748,5.256-1.5,4.395-4.329-4.172,2.979-4.172,2.979,5.221-6.749,1.126-6.548-2.424,5.653-2.424,5.653.355-6.359-1.671-5.451S22.9,97,22.9,97Z"/><path class="cls-14" d="M22.56,98.308s-.294-1.783-1.468-1.512.982,1.739.982,1.739-2.258-1.044-2.349.268,2.019.273,2.019.273-2.5,1.6-1.924,2.664,1.859-1.652,1.859-1.652-1.134,2.46-.346,3.3.889-2.123.889-2.123-.18,3.585,1.275,2.87-.329-2.876-.329-2.876,1.794,2.811,2.574,1.454-1.525-2.293-1.525-2.293,2.953.93,3.049-.931-2.36-.21-2.36-.21,2.977-1.3,2.267-3.035-2.234,2.166-2.234,2.166,2.577-4.624.188-4.221-1.014,3.741-1.014,3.741-.252-4.05-1.376-3.339,0,3.668,0,3.668Z"/><path class="cls-14" d="M22.661,98.774s-.139-.843-.694-.714.464.821.464.821-1.067-.493-1.11.127.954.129.954.129-1.18.755-.909,1.259.879-.781.879-.781-.537,1.163-.164,1.558.42-1,.42-1-.085,1.694.6,1.356-.155-1.359-.155-1.359.848,1.329,1.217.687-.721-1.083-.721-1.083,1.395.439,1.441-.44-1.115-.1-1.115-.1,1.406-.614,1.071-1.434-1.056,1.024-1.056,1.024,1.218-2.185.089-1.995-.479,1.768-.479,1.768-.119-1.914-.65-1.578,0,1.733,0,1.733Z"/><path class="cls-12" d="M26.348,101.12a5.773,5.773,0,0,1,2.568,3.165,22.915,22.915,0,0,1,2.319,9.739"/><path class="cls-3" d="M38.566,110.054s-1.319-2.86-3.273-2.757-4.141,2.066-4.257,3.178-1.883,5.149,0,8.837a23.148,23.148,0,0,1,1.455,4.642s-.454-6.025,2.157-9.2C36.707,112.247,38.566,110.054,38.566,110.054Z"/><path class="cls-3" d="M29.663,107.664a20.174,20.174,0,0,0-5.28.895c-2.07.789-5.17,2.289-5.17,2.289s6.077.533,7.194-.484,4.119-.656,4.119-.656A1.889,1.889,0,0,0,29.663,107.664Z"/><path class="cls-15" d="M33.145,99.736a.727.727,0,0,0-.321.451,10.585,10.585,0,0,0-.462,1.741"/><path class="cls-15" d="M34.759,99.29a6.417,6.417,0,0,0-.636,3.149"/><path class="cls-15" d="M34.937,101.749a8.1,8.1,0,0,0-.528,2.179"/><path class="cls-15" d="M32.775,102.823q-.561,2.063-1.139,4.121"/><path class="cls-15" d="M30.542,105.6l-.651,1.86"/><path class="cls-15" d="M29.843,110.533a5.931,5.931,0,0,1-.178,1.536"/><path class="cls-15" d="M33.34,109.324q-.036,1.908.028,3.815"/><path class="cls-15" d="M34.832,105.09q.07,1.559.036,3.117"/><path class="cls-15" d="M33.227,104.95l.161,3.957"/><path class="cls-15" d="M32.439,110.682a32.754,32.754,0,0,0-.709,3.336"/><path class="cls-15" d="M30.476,111.565l-1.07,3.334"/><path class="cls-15" d="M28.372,112.027a4.563,4.563,0,0,1-.435.877"/><path class="cls-15" d="M31.357,107.142q-.191.82-.447,1.622"/><path class="cls-6" d="M121.206,109.167s-4.988-6.435-1.9-6.813,2.9,2.4,2.9,2.4,2.145-2.46,2.082,0S121.206,109.167,121.206,109.167Z"/><path class="cls-6" d="M134.236,95.774s-5.119-2.693-3.81-3.784,3.2.728,3.2.728,1.014-4.006,1.907-.822S134.236,95.774,134.236,95.774Z"/><path class="cls-6" d="M127.145,101.86s-2.523-4.236-.757-4.988,2.563,1.529,2.563,1.529,3.619-1.429,3.3.889S127.145,101.86,127.145,101.86Z"/><path class="cls-6" d="M118.957,124.8s-4.989-6.434-1.9-6.813,2.9,2.4,2.9,2.4,2.144-2.46,2.081,0S118.957,124.8,118.957,124.8Z"/><path class="cls-6" d="M129.261,111.72s-5.119-2.693-3.81-3.784,3.2.729,3.2.729,1.014-4.007,1.907-.823S129.261,111.72,129.261,111.72Z"/><path class="cls-6" d="M128.9,122.341s-2.523-4.236-.757-4.988,2.564,1.529,2.564,1.529,3.618-1.429,3.3.889S128.9,122.341,128.9,122.341Z"/><path class="cls-6" d="M99.579,126.712s-3.849-5.183-1.464-5.488a1.8,1.8,0,0,1,2.238,1.931s1.655-1.982,1.606,0S99.579,126.712,99.579,126.712Z"/><path class="cls-6" d="M113.93,126.86s-3.949-2.17-2.939-3.05,2.468.588,2.468.588.782-3.228,1.471-.663S113.93,126.86,113.93,126.86Z"/><path class="cls-6" d="M97.018,109.213s-1.946-3.413-.584-4.019,1.977,1.232,1.977,1.232,2.792-1.151,2.549.716S97.018,109.213,97.018,109.213Z"/></svg>