<svg id="word" xmlns="http://www.w3.org/2000/svg" viewBox="0 0 160 160"><defs><style>.cls-1{fill:#71796a;}.cls-1,.cls-2,.cls-3,.cls-4,.cls-5{stroke:#9c4c9c;stroke-width:0.334px;}.cls-2{fill:#555e4f;}.cls-3{fill:#d7ae86;}.cls-4{fill:#90a060;}.cls-5{fill:#778964;}</style></defs><path class="cls-1" d="M140.661,61.276s-37.294,3.333-46.32,4.591S45.329,71.127,37.974,71.8s-21.693,2.725-24.126,3.407-2.731.8,2.017,1.755,37.05,6.367,51.926,6.81,46.841-2.376,58.766-5.932,20.182-11.975,20.488-13.052-.587-1.828-2.9-2.591C142.576,61.676,140.661,61.276,140.661,61.276Z"/><path class="cls-2" d="M140.7,61.312l-.256,9.116s5.442-2.7,6.162-4.434,1.947-2.012-.153-2.956A37.337,37.337,0,0,0,140.7,61.312Z"/><polygon class="cls-3" points="40.39 74.674 52.923 73.34 74.876 83.491 54.489 82.184 40.39 74.674"/><polygon class="cls-2" points="29.345 74.613 39.564 80.233 16.208 76.365 29.345 74.613"/><polygon class="cls-3" points="124.79 65.426 142.459 70.543 129.941 75.842 109.684 67.021 124.79 65.426"/><polygon class="cls-3" points="76.204 72.35 93.885 69.808 116.38 79.306 95.686 81.539 76.204 72.35"/><path class="cls-4" d="M13.9,78.352s3.568,6.769,6.136,10.885a79.75,79.75,0,0,0,7.352,9.312s39.93-.581,53.631-1.847,31.214-5.46,39.139-7.329,16.448-8.085,18.526-9.2,3.645-4.9,4.906-7.1a68.587,68.587,0,0,0,4.067-8.893s-9.017,12.911-37.923,16.662C68.422,86.2,29.867,79.2,24.113,78.186s-12.082-2.4-12.082-2.4Z"/><path class="cls-5" d="M65.077,83.427h0c-16.088-.922-44.65-5.135-48.938-6-3.646-.733-4.232-.909-4.254-1.71-.023-.757.627-.939,2.2-1.378,2.585-.723,17.08-2.771,24.231-3.424,7.859-.719,47.391-4.68,56.339-5.931S140.623,60.423,141,60.392l.088-.01.085.02c.079.015,1.965.415,3.546.935,1.861.615,2.822,1.22,3.215,2.024a1.948,1.948,0,0,1,.1,1.424c-.368,1.291-8.757,9.877-20.923,13.507-12.232,3.647-44.135,5.716-58.854,5.277-.987-.029-2.05-.078-3.179-.142Zm-50.7-7.762c.711.163,1.513.325,1.988.419,4.271.861,32.738,5.059,48.774,5.979h.005c1.118.064,2.169.113,3.148.141,14.7.439,46.751-1.729,58.482-5.228,11.707-3.494,19.608-11.576,20.061-12.622a.46.46,0,0,0-.024-.352c-.144-.3-.691-.771-2.469-1.357-1.335-.442-2.955-.8-3.338-.885-2.03.18-37.505,3.366-46.2,4.581-8.963,1.251-48.529,5.217-56.392,5.935-7.463.681-21.728,2.746-24.021,3.385l-.01,0Z"/></svg>