<svg id="word" xmlns="http://www.w3.org/2000/svg" viewBox="0 0 160 160"><defs><style>.cls-1{fill:none;stroke:#9c4c9c;stroke-width:0.834px;}.cls-1,.cls-3,.cls-5,.cls-6,.cls-7{stroke-miterlimit:10;}.cls-2{fill:#9c4a9b;}.cls-3{fill:#fdbf0f;}.cls-3,.cls-7{stroke:#36342e;stroke-width:0.701px;}.cls-4{fill:#99b25a;}.cls-5{fill:#e0606e;}.cls-5,.cls-6{stroke:#a0424f;stroke-width:0.28px;}.cls-6{fill:#e16b80;}.cls-7{fill:#ffce01;}</style></defs><path class="cls-1" d="M15.646,24.652s-3.954,2.569,66.88,8.9c21.268,1.9,41.7-3.56,64.231-4.958"/><path class="cls-2" d="M14.911,23.364s.719-4.667,2.614-3.752-1.162,4.366-1.162,4.366,4.512-2.058,4.936-.342c.779,3.149-4.975,1.514-4.975,1.514s4.652,2.008,2.926,3.768-3.158-3.22-3.158-3.22,1.65,4.9-.282,5.795-1.068-5.3-1.068-5.3-1.782,5.429-3.37,3.653c-1.422-1.591,2.387-4.3,2.387-4.3s-4.734,2.136-5.119-.168c-.452-2.7,4.962-.945,4.962-.945S9.266,20.8,11.826,19.6C13.939,18.609,14.911,23.364,14.911,23.364Z"/><path class="cls-3" d="M82.194,34.8,49.64,28.874s-.81.737,2.647,10.194c3.014,8.243,1.483,11.967-.768,15.26-.859,1.256-1.818,2.451-2.675,3.807a52.981,52.981,0,0,0-3.46,6.321c-4.184,9.167-3.217,16.071-.3,25.713.144.476.284.946.437,1.436,3.929,12.566,2.516,28.064,2.778,28.213s3.534-3.806,14.413-15.237c.6-.629,1.17-1.255,1.731-1.88C74.079,91.963,78.256,81.77,80.1,72.012,82.05,61.687,82.194,34.8,82.194,34.8Z"/><path class="cls-4" d="M51.343,73.406a1.361,1.361,0,0,0-1.173,1.067,3.881,3.881,0,0,0-.047,1.551s.34-.28.958-.878S51.343,73.406,51.343,73.406Z"/><path class="cls-4" d="M54.373,71.434S54,73.579,54.76,74.6s2.95,1.258,2.95,1.258.427-.317-.592-1.731A14.816,14.816,0,0,0,54.373,71.434Z"/><path class="cls-4" d="M50.646,70.157a2.326,2.326,0,0,0-2.444.817,10.944,10.944,0,0,0-1.028,1.809,2.528,2.528,0,0,0,2.744.229,2.979,2.979,0,0,0,1.648-2S51.647,70.641,50.646,70.157Z"/><path class="cls-4" d="M54.86,68.013a2.326,2.326,0,0,0,1.532-2.072,10.845,10.845,0,0,0-.2-2.071,2.526,2.526,0,0,0-2.378,1.388,2.977,2.977,0,0,0-.2,2.583S53.763,68.191,54.86,68.013Z"/><path class="cls-5" d="M54.144,69.219a.643.643,0,0,1-.027.763,1.1,1.1,0,0,1-.647.513l-.689-.827.4-1.159Z"/><path class="cls-5" d="M53.185,70.573s.479-.76.932-.591a7.821,7.821,0,0,1,.919.432l.04.951-.583.175Z"/><path class="cls-5" d="M54.974,69.213s-1.344-.086-1.028.746a3.523,3.523,0,0,0,1.13,1.406Z"/><path class="cls-5" d="M52.727,67.057A2.752,2.752,0,0,0,50.706,69.4c-.147,1.873.473,2.207.765,2.258s.474-.64.474-.64a2.03,2.03,0,0,0,1.571-1.233A2.341,2.341,0,0,0,53.391,68S54.113,66.8,52.727,67.057Z"/><path class="cls-5" d="M56.366,68.8A2.753,2.753,0,0,0,54,66.806c-1.875-.121-2.2.5-2.248.8s.647.464.647.464a2.029,2.029,0,0,0,1.254,1.554,2.34,2.34,0,0,0,1.783-.149S56.64,70.177,56.366,68.8Z"/><path class="cls-5" d="M51.114,71.427A2.753,2.753,0,0,0,53.649,73.2c1.878-.042,2.148-.692,2.17-.988s-.685-.407-.685-.407a2.029,2.029,0,0,0-1.383-1.44,2.338,2.338,0,0,0-1.763.3S50.722,70.074,51.114,71.427Z"/><path class="cls-5" d="M55.807,72.811a2.75,2.75,0,0,0,1.424-2.748c-.291-1.856-.972-2.038-1.268-2.02s-.312.733-.312.733a2.029,2.029,0,0,0-1.243,1.563,2.337,2.337,0,0,0,.535,1.707S54.519,73.38,55.807,72.811Z"/><path class="cls-4" d="M55.97,105.51a1.36,1.36,0,0,0-.4,1.535,3.86,3.86,0,0,0,.811,1.323s.13-.421.319-1.259S55.97,105.51,55.97,105.51Z"/><path class="cls-4" d="M57.423,102.2s.862,2,2.057,2.432,3.156-.565,3.156-.565.183-.5-1.444-1.123A14.817,14.817,0,0,0,57.423,102.2Z"/><path class="cls-4" d="M53.605,103.175A2.323,2.323,0,0,0,52.01,105.2a10.824,10.824,0,0,0,.132,2.076,2.523,2.523,0,0,0,2.419-1.313,2.976,2.976,0,0,0,.282-2.576S54.708,103.031,53.605,103.175Z"/><path class="cls-4" d="M55.954,99.071A2.324,2.324,0,0,0,56.1,96.5a10.769,10.769,0,0,0-1.3-1.624,2.525,2.525,0,0,0-1.227,2.464,2.979,2.979,0,0,0,1.248,2.271S55.134,99.822,55.954,99.071Z"/><path class="cls-5" d="M56.017,100.472a.645.645,0,0,1,.395.654,1.1,1.1,0,0,1-.26.783l-1.03-.313-.3-1.191Z"/><path class="cls-5" d="M55.956,102.131s-.015-.9.456-1a7.784,7.784,0,0,1,1.005-.143l.555.773-.392.466Z"/><path class="cls-5" d="M56.707,100.012s-1.171.666-.451,1.188a3.517,3.517,0,0,0,1.716.556Z"/><path class="cls-5" d="M53.646,99.441a2.753,2.753,0,0,0-.406,3.069c.905,1.646,1.606,1.586,1.879,1.469s.045-.8.045-.8a2.029,2.029,0,0,0,.638-1.892,2.34,2.34,0,0,0-1.083-1.424S54.665,98.468,53.646,99.441Z"/><path class="cls-5" d="M57.642,98.9a2.752,2.752,0,0,0-3.074-.364c-1.634.927-1.564,1.628-1.443,1.9s.8.034.8.034a2.03,2.03,0,0,0,1.9.612,2.341,2.341,0,0,0,1.409-1.1S58.629,99.905,57.642,98.9Z"/><path class="cls-5" d="M54.693,103.98a2.752,2.752,0,0,0,3.094.1c1.548-1.065,1.418-1.757,1.273-2.016s-.8.035-.8.035a2.031,2.031,0,0,0-1.947-.446,2.337,2.337,0,0,0-1.308,1.22S53.623,103.064,54.693,103.98Z"/><path class="cls-5" d="M59.377,102.565a2.753,2.753,0,0,0-.316-3.079c-1.262-1.393-1.93-1.172-2.168-.994s.141.784.141.784a2.029,2.029,0,0,0-.183,1.988,2.338,2.338,0,0,0,1.383,1.135S58.611,103.747,59.377,102.565Z"/><path class="cls-4" d="M55.149,58.418A1.359,1.359,0,0,0,54,59.511a3.892,3.892,0,0,0-.013,1.551s.334-.288.938-.9S55.149,58.418,55.149,58.418Z"/><path class="cls-4" d="M58.134,56.379s-.326,2.152.458,3.152,2.976,1.192,2.976,1.192.42-.327-.63-1.717A14.8,14.8,0,0,0,58.134,56.379Z"/><path class="cls-4" d="M54.379,55.185a2.325,2.325,0,0,0-2.425.871,10.89,10.89,0,0,0-.987,1.832,2.526,2.526,0,0,0,2.748.167,2.976,2.976,0,0,0,1.6-2.036S55.391,55.646,54.379,55.185Z"/><path class="cls-4" d="M58.545,52.947a2.325,2.325,0,0,0,1.485-2.105,10.866,10.866,0,0,0-.244-2.067,2.526,2.526,0,0,0-2.346,1.441A2.978,2.978,0,0,0,57.3,52.8S57.451,53.15,58.545,52.947Z"/><path class="cls-5" d="M57.856,54.169a.645.645,0,0,1-.011.764,1.1,1.1,0,0,1-.635.527l-.708-.811.378-1.169Z"/><path class="cls-5" d="M56.927,55.544s.462-.77.918-.611a7.7,7.7,0,0,1,.929.411l.061.95-.579.187Z"/><path class="cls-5" d="M58.685,54.145s-1.346-.056-1.011.769a3.522,3.522,0,0,0,1.161,1.38Z"/><path class="cls-5" d="M56.391,52.039a2.752,2.752,0,0,0-1.969,2.389c-.1,1.875.522,2.2.816,2.24s.459-.651.459-.651A2.029,2.029,0,0,0,57.24,54.75a2.336,2.336,0,0,0-.165-1.781S57.77,51.753,56.391,52.039Z"/><path class="cls-5" d="M60.067,53.7a2.752,2.752,0,0,0-2.415-1.936c-1.877-.079-2.188.552-2.229.846s.657.451.657.451a2.029,2.029,0,0,0,1.288,1.525,2.336,2.336,0,0,0,1.779-.189S60.372,55.071,60.067,53.7Z"/><path class="cls-5" d="M54.876,56.444a2.752,2.752,0,0,0,2.573,1.72c1.877-.084,2.133-.739,2.148-1.036s-.694-.391-.694-.391a2.029,2.029,0,0,0-1.415-1.409,2.34,2.34,0,0,0-1.756.342S54.453,55.1,54.876,56.444Z"/><path class="cls-5" d="M59.6,57.723a2.752,2.752,0,0,0,1.362-2.779c-.333-1.849-1.017-2.016-1.313-1.991s-.3.74-.3.74a2.029,2.029,0,0,0-1.208,1.59,2.34,2.34,0,0,0,.573,1.7S58.323,58.321,59.6,57.723Z"/><path class="cls-4" d="M53.908,83.945a.892.892,0,0,0,.751.719,2.542,2.542,0,0,0,1.017-.039s-.2-.21-.618-.587S53.908,83.945,53.908,83.945Z"/><path class="cls-4" d="M52.481,82.051a3.361,3.361,0,0,0,2.051-.4,3.389,3.389,0,0,0,.689-1.986s-.226-.265-1.1.465A9.705,9.705,0,0,0,52.481,82.051Z"/><path class="cls-4" d="M51.813,84.548a1.526,1.526,0,0,0,.646,1.562,7.122,7.122,0,0,0,1.23.59,1.657,1.657,0,0,0,.025-1.805,1.954,1.954,0,0,0-1.383-.988S52.085,83.871,51.813,84.548Z"/><path class="cls-4" d="M50.22,81.888a1.525,1.525,0,0,0-1.424-.909,7.174,7.174,0,0,0-1.347.223,1.655,1.655,0,0,0,1.016,1.492,1.952,1.952,0,0,0,1.7.015S50.387,82.6,50.22,81.888Z"/><path class="cls-5" d="M51.042,82.3a.422.422,0,0,1,.5-.016.72.72,0,0,1,.365.4l-.51.488-.777-.211Z"/><path class="cls-5" d="M51.971,82.868s-.519-.279-.429-.583a5.141,5.141,0,0,1,.241-.621L52.4,81.6l.14.374Z"/><path class="cls-5" d="M51,81.759s.005.883.535.639a2.309,2.309,0,0,0,.869-.8Z"/><path class="cls-5" d="M49.691,83.326a1.805,1.805,0,0,0,1.625,1.217c1.232.011,1.423-.41,1.443-.6s-.44-.281-.44-.281a1.332,1.332,0,0,0-.878-.972,1.536,1.536,0,0,0-1.162.162S49.462,82.431,49.691,83.326Z"/><path class="cls-5" d="M50.664,80.867a1.8,1.8,0,0,0-1.194,1.642c.006,1.232.429,1.416.623,1.434s.274-.444.274-.444a1.331,1.331,0,0,0,.96-.891,1.532,1.532,0,0,0-.178-1.16S51.556,80.625,50.664,80.867Z"/><path class="cls-5" d="M52.623,84.184a1.8,1.8,0,0,0,1.048-1.739c-.112-1.226-.549-1.374-.744-1.375s-.235.467-.235.467a1.331,1.331,0,0,0-.88.97,1.536,1.536,0,0,0,.278,1.14S51.756,84.5,52.623,84.184Z"/><path class="cls-5" d="M53.317,81.051a1.805,1.805,0,0,0-1.863-.807c-1.2.274-1.289.728-1.264.921s.494.171.494.171a1.33,1.33,0,0,0,1.078.742,1.535,1.535,0,0,0,1.093-.427S53.747,81.868,53.317,81.051Z"/><path class="cls-4" d="M48.677,94.077s.237,1.98,1.177,2.658,2.93.28,2.93.28.292-.4-.979-1.349A13.363,13.363,0,0,0,48.677,94.077Z"/><path class="cls-4" d="M48.2,90.949A2.166,2.166,0,0,0,49,88.71a9.748,9.748,0,0,0-.721-1.757,2.374,2.374,0,0,0-1.727,1.876,2.7,2.7,0,0,0,.506,2.316S47.282,91.41,48.2,90.949Z"/><path class="cls-5" d="M47.89,92.2a.581.581,0,0,1,.177.675c-.136.472-1.477.987-1.477.987l-.183-.928-.395-1.393Z"/><path class="cls-5" d="M47.4,93.654s.221-.8.664-.776a7.164,7.164,0,0,1,.924.122l.286.821-.467.315Z"/><path class="cls-5" d="M48.619,91.967s-1.207.3-.708.939a3.164,3.164,0,0,0,1.366.915Z"/><path class="cls-6" d="M49.735,91.214a2.49,2.49,0,0,0-2.615-1.08c-1.683.416-1.585.514-1.436.742a2.744,2.744,0,0,1,.36.806,1.827,1.827,0,0,0,1.515,1.011,2.191,2.191,0,0,0,1.531-.627S50.341,92.347,49.735,91.214Z"/><path class="cls-6" d="M46.867,95.848s0,.538,1.64-.021,1.709-1.2,1.65-1.468-.711-.166-.711-.166a1.83,1.83,0,0,0-1.6-.875,1.787,1.787,0,0,0-1.317.6Z"/><path class="cls-6" d="M50.3,94.883a2.55,2.55,0,0,0,.528-2.8c-.748-1.542-1.4-1.512-1.651-1.413s-.081.727-.081.727a1.893,1.893,0,0,0-.682,1.713,2.1,2.1,0,0,0,.922,1.345S49.319,95.739,50.3,94.883Z"/><path class="cls-7" d="M103.523,101.708c-.021-.186-.026-.381-.052-.563a34.53,34.53,0,0,0-4.186-11.482c-.578-1.073-1.183-2.136-1.8-3.194-.874-1.506-1.763-3-2.617-4.506-.065-.115-.132-.23-.2-.345-.575-1.02-1.131-2.07-1.657-3.14-2.7-5.494-4.509-11.556-2.905-17.354a23.426,23.426,0,0,1,4.312-7.981c2.374-3.065,5.227-5.914,7.659-8.859a27.089,27.089,0,0,0,4.162-6.437,13.5,13.5,0,0,0,1.139-6.4q-4.6.474-9.226.676a158.807,158.807,0,0,1-18.409-.264,158.164,158.164,0,0,1-21.27-3c.552-.126-4.21-.878-7.592-.315-4.84.8,2.46,1.476,4.6,6.993,3.022,7.807,2.852,14.423,1.633,21.97a74.4,74.4,0,0,0-1.348,14.766A40.443,40.443,0,0,0,58.325,85.1a49.43,49.43,0,0,0,3.543,7.494c.041.071.075.14.116.211a44.971,44.971,0,0,0,8.852,10.223c1.783,1.639,3.608,3.248,5.365,4.916.875.829,1.734,1.672,2.56,2.542,3.214,3.388,5.918,9.37,8.032,15.124,1.27,3.454,2.327,6.826,3.154,9.505a30.5,30.5,0,0,0,4.979-5.478,44.674,44.674,0,0,0,3.5-5.679c.553-1.066,1.062-2.166,1.542-3.281a50.155,50.155,0,0,0,1.919-5.219,44.5,44.5,0,0,0,1.2-4.879,35.106,35.106,0,0,0,.573-4.874A25.469,25.469,0,0,0,103.523,101.708Z"/><path class="cls-4" d="M99.7,113.511a.891.891,0,0,0,.751.719,2.542,2.542,0,0,0,1.017-.039s-.2-.21-.618-.587S99.7,113.511,99.7,113.511Z"/><path class="cls-4" d="M98.275,111.618a3.361,3.361,0,0,0,2.051-.4,3.4,3.4,0,0,0,.69-1.987s-.227-.265-1.106.466A9.675,9.675,0,0,0,98.275,111.618Z"/><path class="cls-4" d="M97.608,114.114a1.524,1.524,0,0,0,.645,1.562,7.1,7.1,0,0,0,1.23.591,1.657,1.657,0,0,0,.025-1.8,1.951,1.951,0,0,0-1.383-.988S97.879,113.437,97.608,114.114Z"/><path class="cls-4" d="M96.014,111.454a1.522,1.522,0,0,0-1.424-.908,7.141,7.141,0,0,0-1.347.222,1.657,1.657,0,0,0,1.016,1.493,1.951,1.951,0,0,0,1.7.015S96.181,112.164,96.014,111.454Z"/><path class="cls-5" d="M96.836,111.868a.423.423,0,0,1,.5-.016.717.717,0,0,1,.364.4l-.51.488-.777-.211Z"/><path class="cls-5" d="M97.765,112.435s-.519-.28-.428-.583a5.038,5.038,0,0,1,.24-.621l.621-.07.14.374Z"/><path class="cls-5" d="M96.794,111.325s.005.884.535.639a2.309,2.309,0,0,0,.869-.8Z"/><path class="cls-5" d="M95.485,112.893a1.805,1.805,0,0,0,1.625,1.217c1.232.011,1.423-.41,1.443-.6s-.44-.28-.44-.28a1.333,1.333,0,0,0-.878-.973,1.533,1.533,0,0,0-1.162.163S95.256,112,95.485,112.893Z"/><path class="cls-5" d="M96.458,110.434a1.8,1.8,0,0,0-1.194,1.641c.006,1.232.429,1.417.623,1.434s.274-.444.274-.444a1.334,1.334,0,0,0,.961-.89,1.535,1.535,0,0,0-.179-1.16S97.35,110.192,96.458,110.434Z"/><path class="cls-5" d="M98.418,113.751a1.8,1.8,0,0,0,1.047-1.739c-.112-1.227-.549-1.375-.744-1.375s-.235.466-.235.466a1.331,1.331,0,0,0-.88.97,1.534,1.534,0,0,0,.278,1.14S97.55,114.069,98.418,113.751Z"/><path class="cls-5" d="M99.111,110.617a1.807,1.807,0,0,0-1.863-.807c-1.2.275-1.289.728-1.264.921s.494.171.494.171a1.332,1.332,0,0,0,1.079.743,1.534,1.534,0,0,0,1.092-.427S99.541,111.435,99.111,110.617Z"/><path class="cls-4" d="M96.447,98.115a1.95,1.95,0,0,0,2.177-.549,5.351,5.351,0,0,0,1.086-1.88s-.612.123-1.782.456S96.447,98.115,96.447,98.115Z"/><path class="cls-4" d="M91.341,98.565s1.889-2.4,1.608-4.15-2.866-3.479-2.866-3.479-.746.112-.4,2.52A20.459,20.459,0,0,0,91.341,98.565Z"/><path class="cls-4" d="M95.17,102.576a3.34,3.34,0,0,0,3.606.59,15.491,15.491,0,0,0,2.487-1.558,3.585,3.585,0,0,0-3.29-2.075,4.239,4.239,0,0,0-3.391,1.388S94.235,101.324,95.17,102.576Z"/><path class="cls-4" d="M88.465,102.463s-2.362-.32-3.293,1.553a15.051,15.051,0,0,0-1.124,2.682,3.632,3.632,0,0,0,3.9-.157,4.13,4.13,0,0,0,1.963-3.053S89.96,102.961,88.465,102.463Z"/><path class="cls-5" d="M90.161,101.445a.893.893,0,0,1,.541-.923,1.578,1.578,0,0,1,1.15-.209l.317,1.47L90.9,102.948Z"/><path class="cls-5" d="M92.261,100.4s-1.1.624-1.559.119a10.734,10.734,0,0,1-.867-1.133l.579-1.2.847.166Z"/><path class="cls-5" d="M89.117,100.91s1.629.984,1.784-.248a4.855,4.855,0,0,0-.487-2.471Z"/><path class="cls-6" d="M90.507,105.036a3.937,3.937,0,0,0,4.088-1.568c1.423-2.212.867-3.029.534-3.284s-1.018.48-1.018.48a2.917,2.917,0,0,0-2.786.492,3.232,3.232,0,0,0-1.025,2.282S88.6,104.445,90.507,105.036Z"/><path class="cls-6" d="M87.094,100.515a3.812,3.812,0,0,0,1.657,4c2.272,1.374,3.094.818,3.347.487s-.5-1-.5-1a2.8,2.8,0,0,0-.543-2.736,3.355,3.355,0,0,0-2.335-.98S87.666,98.632,87.094,100.515Z"/><path class="cls-6" d="M95.424,100.7a3.822,3.822,0,0,0-2-3.847c-2.384-1.176-3.153-.552-3.376-.2s.589.949.589.949a2.8,2.8,0,0,0,.781,2.679,3.357,3.357,0,0,0,2.412.779S95.02,102.628,95.424,100.7Z"/><path class="cls-6" d="M90.454,95.93a3.9,3.9,0,0,0-3.6,2.457c-.863,2.478-.131,3.147.253,3.318s.877-.7.877-.7a2.9,2.9,0,0,0,2.594-1.114,3.215,3.215,0,0,0,.459-2.454S92.447,96.071,90.454,95.93Z"/><path class="cls-4" d="M61.818,66.606a1.359,1.359,0,0,0-1.173,1.067,3.876,3.876,0,0,0-.047,1.55s.34-.28.958-.877S61.818,66.606,61.818,66.606Z"/><path class="cls-4" d="M64.848,64.634s-.374,2.144.387,3.161,2.95,1.259,2.95,1.259.427-.318-.592-1.731A14.779,14.779,0,0,0,64.848,64.634Z"/><path class="cls-4" d="M61.121,63.356a2.325,2.325,0,0,0-2.444.818,10.869,10.869,0,0,0-1.028,1.808,2.526,2.526,0,0,0,2.744.229,2.979,2.979,0,0,0,1.648-2S62.122,63.84,61.121,63.356Z"/><path class="cls-4" d="M65.335,61.213a2.326,2.326,0,0,0,1.532-2.072,10.867,10.867,0,0,0-.2-2.072,2.528,2.528,0,0,0-2.378,1.388,2.979,2.979,0,0,0-.2,2.584S64.237,61.391,65.335,61.213Z"/><path class="cls-5" d="M64.619,62.418a.646.646,0,0,1-.027.764,1.1,1.1,0,0,1-.647.512l-.69-.826.4-1.16Z"/><path class="cls-5" d="M63.66,63.773s.479-.761.932-.591a7.644,7.644,0,0,1,.919.432l.04.95-.584.175Z"/><path class="cls-5" d="M65.449,62.413s-1.344-.086-1.028.746a3.516,3.516,0,0,0,1.13,1.4Z"/><path class="cls-5" d="M63.2,60.256A2.753,2.753,0,0,0,61.18,62.6c-.146,1.873.474,2.207.766,2.259s.474-.641.474-.641a2.03,2.03,0,0,0,1.571-1.232,2.34,2.34,0,0,0-.125-1.785S64.588,60,63.2,60.256Z"/><path class="cls-5" d="M66.841,62a2.754,2.754,0,0,0-2.371-1.99c-1.875-.12-2.2.5-2.248.8s.647.465.647.465a2.03,2.03,0,0,0,1.254,1.554,2.334,2.334,0,0,0,1.782-.15S67.115,63.377,66.841,62Z"/><path class="cls-5" d="M61.589,64.627A2.753,2.753,0,0,0,64.124,66.4c1.878-.042,2.148-.692,2.17-.988s-.685-.407-.685-.407a2.029,2.029,0,0,0-1.383-1.44,2.338,2.338,0,0,0-1.763.3S61.2,63.274,61.589,64.627Z"/><path class="cls-5" d="M66.282,66.011a2.754,2.754,0,0,0,1.424-2.749c-.292-1.856-.972-2.037-1.268-2.019s-.312.733-.312.733a2.029,2.029,0,0,0-1.243,1.562,2.339,2.339,0,0,0,.535,1.708S64.993,66.58,66.282,66.011Z"/><path class="cls-4" d="M78.954,56.929a1,1,0,0,0,.641.983,2.872,2.872,0,0,0,1.129.218s-.165-.282-.529-.8S78.954,56.929,78.954,56.929Z"/><path class="cls-4" d="M77.869,54.479a3.8,3.8,0,0,0,2.358.09c.834-.437,1.27-2.009,1.27-2.009s-.182-.349-1.336.229A10.946,10.946,0,0,0,77.869,54.479Z"/><path class="cls-4" d="M76.494,57.054a1.724,1.724,0,0,0,.309,1.884,8,8,0,0,0,1.2.966,1.871,1.871,0,0,0,.491-1.98,2.205,2.205,0,0,0-1.268-1.442S76.967,56.379,76.494,57.054Z"/><path class="cls-4" d="M75.424,53.718a1.722,1.722,0,0,0-1.335-1.365,7.983,7.983,0,0,0-1.538-.1,1.871,1.871,0,0,0,.734,1.9,2.209,2.209,0,0,0,1.866.453S75.425,54.542,75.424,53.718Z"/><path class="cls-5" d="M76.222,54.384a.478.478,0,0,1,.555.111.816.816,0,0,1,.3.534l-.686.406-.8-.432Z"/><path class="cls-5" d="M77.1,55.246s-.5-.44-.322-.751a5.647,5.647,0,0,1,.424-.621l.7.083.059.447Z"/><path class="cls-5" d="M76.315,53.776s-.221.974.425.841a2.606,2.606,0,0,0,1.161-.66Z"/><path class="cls-5" d="M74.472,55.165a2.039,2.039,0,0,0,1.476,1.756c1.353.329,1.671-.085,1.743-.293s-.413-.422-.413-.422a1.5,1.5,0,0,0-.716-1.3,1.735,1.735,0,0,0-1.32-.12S74.449,54.122,74.472,55.165Z"/><path class="cls-5" d="M76.174,52.709a2.038,2.038,0,0,0-1.735,1.5c-.31,1.358.108,1.67.317,1.739s.416-.419.416-.419a1.5,1.5,0,0,0,1.285-.733,1.736,1.736,0,0,0,.1-1.322S77.218,52.672,76.174,52.709Z"/><path class="cls-5" d="M77.479,56.862a2.039,2.039,0,0,0,1.6-1.644c.192-1.379-.252-1.654-.466-1.7s-.379.452-.379.452a1.506,1.506,0,0,0-1.217.842,1.736,1.736,0,0,0,.014,1.326S76.443,56.989,77.479,56.862Z"/><path class="cls-5" d="M79.046,53.592A2.039,2.039,0,0,0,77.2,52.226c-1.392-.006-1.606.47-1.627.689s.5.315.5.315a1.5,1.5,0,0,0,1,1.094,1.733,1.733,0,0,0,1.312-.19S79.31,54.6,79.046,53.592Z"/><path class="cls-4" d="M81.356,72.713a1.36,1.36,0,0,0-.4,1.535,3.87,3.87,0,0,0,.81,1.322s.131-.421.32-1.259S81.356,72.713,81.356,72.713Z"/><path class="cls-4" d="M82.808,69.4s.863,2,2.058,2.431,3.156-.564,3.156-.564.183-.5-1.444-1.123A14.772,14.772,0,0,0,82.808,69.4Z"/><path class="cls-4" d="M78.991,70.377A2.327,2.327,0,0,0,77.4,72.4a10.877,10.877,0,0,0,.133,2.077,2.525,2.525,0,0,0,2.419-1.313,2.976,2.976,0,0,0,.282-2.576S80.094,70.233,78.991,70.377Z"/><path class="cls-4" d="M81.34,66.274a2.326,2.326,0,0,0,.145-2.573,10.845,10.845,0,0,0-1.3-1.624,2.525,2.525,0,0,0-1.227,2.464,2.979,2.979,0,0,0,1.248,2.271S80.52,67.025,81.34,66.274Z"/><path class="cls-5" d="M81.4,67.675a.644.644,0,0,1,.4.653,1.1,1.1,0,0,1-.26.784l-1.03-.314-.3-1.191Z"/><path class="cls-5" d="M81.342,69.333s-.016-.9.456-1a7.689,7.689,0,0,1,1-.142l.555.773-.392.466Z"/><path class="cls-5" d="M82.093,67.215s-1.171.665-.451,1.188a3.529,3.529,0,0,0,1.716.556Z"/><path class="cls-5" d="M79.032,66.644a2.752,2.752,0,0,0-.406,3.068c.905,1.647,1.606,1.587,1.879,1.469s.045-.8.045-.8a2.03,2.03,0,0,0,.638-1.892,2.34,2.34,0,0,0-1.083-1.424S80.05,65.67,79.032,66.644Z"/><path class="cls-5" d="M83.028,66.1a2.753,2.753,0,0,0-3.074-.363c-1.634.927-1.564,1.627-1.443,1.9s.8.034.8.034a2.03,2.03,0,0,0,1.9.613,2.341,2.341,0,0,0,1.409-1.1S84.015,67.108,83.028,66.1Z"/><path class="cls-5" d="M80.079,71.183a2.752,2.752,0,0,0,3.094.1c1.548-1.065,1.418-1.756,1.273-2.016s-.8.035-.8.035a2.031,2.031,0,0,0-1.947-.446A2.337,2.337,0,0,0,80.4,70.073S79.009,70.267,80.079,71.183Z"/><path class="cls-5" d="M84.763,69.767a2.752,2.752,0,0,0-.317-3.079c-1.261-1.392-1.929-1.171-2.167-.994s.14.784.14.784a2.032,2.032,0,0,0-.182,1.989A2.339,2.339,0,0,0,83.62,69.6S84,70.95,84.763,69.767Z"/><path class="cls-4" d="M63.7,86.2a1.36,1.36,0,0,0-.4,1.535,3.893,3.893,0,0,0,.811,1.323s.131-.421.32-1.259S63.7,86.2,63.7,86.2Z"/><path class="cls-4" d="M65.155,82.889s.863,2,2.057,2.432,3.157-.565,3.157-.565.183-.5-1.444-1.123A14.821,14.821,0,0,0,65.155,82.889Z"/><path class="cls-4" d="M61.337,83.864a2.325,2.325,0,0,0-1.6,2.024,10.837,10.837,0,0,0,.132,2.076,2.527,2.527,0,0,0,2.42-1.313,2.98,2.98,0,0,0,.282-2.576S62.44,83.72,61.337,83.864Z"/><path class="cls-4" d="M63.686,79.761a2.326,2.326,0,0,0,.145-2.573,10.9,10.9,0,0,0-1.3-1.624A2.527,2.527,0,0,0,61.3,78.029a2.978,2.978,0,0,0,1.249,2.27S62.866,80.512,63.686,79.761Z"/><path class="cls-5" d="M63.749,81.162a.645.645,0,0,1,.4.654,1.1,1.1,0,0,1-.26.783l-1.029-.314-.3-1.19Z"/><path class="cls-5" d="M63.689,82.82s-.016-.9.455-1a7.616,7.616,0,0,1,1.006-.143l.554.773-.391.466Z"/><path class="cls-5" d="M64.44,80.7s-1.172.665-.451,1.188a3.524,3.524,0,0,0,1.715.556Z"/><path class="cls-5" d="M61.378,80.131a2.751,2.751,0,0,0-.405,3.068c.9,1.647,1.606,1.587,1.878,1.469s.045-.8.045-.8a2.03,2.03,0,0,0,.638-1.892,2.336,2.336,0,0,0-1.083-1.424S62.4,79.158,61.378,80.131Z"/><path class="cls-5" d="M65.374,79.589a2.751,2.751,0,0,0-3.073-.363c-1.634.927-1.565,1.628-1.443,1.9s.8.033.8.033a2.029,2.029,0,0,0,1.9.613,2.337,2.337,0,0,0,1.409-1.1S66.361,80.6,65.374,79.589Z"/><path class="cls-5" d="M62.426,84.67a2.751,2.751,0,0,0,3.093.1c1.548-1.064,1.418-1.756,1.274-2.016s-.8.035-.8.035a2.03,2.03,0,0,0-1.946-.446,2.341,2.341,0,0,0-1.309,1.221S61.355,83.754,62.426,84.67Z"/><path class="cls-5" d="M67.109,83.254a2.753,2.753,0,0,0-.316-3.079c-1.261-1.392-1.93-1.171-2.168-.993s.141.784.141.784a2.029,2.029,0,0,0-.183,1.988,2.339,2.339,0,0,0,1.384,1.134S66.344,84.437,67.109,83.254Z"/><path class="cls-4" d="M77.747,83.192a.892.892,0,0,0,.751.719,2.542,2.542,0,0,0,1.017-.039s-.2-.21-.618-.587S77.747,83.192,77.747,83.192Z"/><path class="cls-4" d="M76.32,81.3a3.361,3.361,0,0,0,2.051-.4,3.4,3.4,0,0,0,.69-1.987s-.227-.265-1.106.466A9.675,9.675,0,0,0,76.32,81.3Z"/><path class="cls-4" d="M75.653,83.8a1.524,1.524,0,0,0,.645,1.562,7.1,7.1,0,0,0,1.23.591,1.658,1.658,0,0,0,.025-1.806,1.951,1.951,0,0,0-1.383-.987S75.924,83.118,75.653,83.8Z"/><path class="cls-4" d="M74.059,81.135a1.522,1.522,0,0,0-1.424-.908,7.141,7.141,0,0,0-1.347.222A1.657,1.657,0,0,0,72.3,81.942a1.951,1.951,0,0,0,1.7.015S74.226,81.845,74.059,81.135Z"/><path class="cls-5" d="M74.881,81.549a.424.424,0,0,1,.5-.017.721.721,0,0,1,.364.4l-.51.488-.776-.212Z"/><path class="cls-5" d="M75.81,82.115s-.519-.279-.428-.583a5.064,5.064,0,0,1,.24-.62l.621-.07.14.374Z"/><path class="cls-5" d="M74.839,81.006s0,.884.535.639a2.309,2.309,0,0,0,.869-.8Z"/><path class="cls-5" d="M73.53,82.574a1.8,1.8,0,0,0,1.625,1.216c1.232.011,1.423-.409,1.443-.6s-.44-.281-.44-.281a1.332,1.332,0,0,0-.878-.972,1.533,1.533,0,0,0-1.162.163S73.3,81.679,73.53,82.574Z"/><path class="cls-5" d="M74.5,80.114a1.806,1.806,0,0,0-1.194,1.642c.006,1.232.429,1.417.623,1.434s.274-.444.274-.444a1.334,1.334,0,0,0,.961-.89,1.535,1.535,0,0,0-.179-1.16S75.4,79.873,74.5,80.114Z"/><path class="cls-5" d="M76.463,83.431a1.8,1.8,0,0,0,1.047-1.738c-.112-1.227-.549-1.375-.744-1.375s-.235.466-.235.466a1.331,1.331,0,0,0-.88.97,1.536,1.536,0,0,0,.278,1.14S75.6,83.749,76.463,83.431Z"/><path class="cls-5" d="M77.156,80.3a1.807,1.807,0,0,0-1.863-.807c-1.2.275-1.289.728-1.264.921s.494.171.494.171a1.332,1.332,0,0,0,1.079.743,1.534,1.534,0,0,0,1.092-.427S77.586,81.116,77.156,80.3Z"/><path class="cls-4" d="M99.567,41.119a.892.892,0,0,0,.751.719,2.566,2.566,0,0,0,1.017-.039s-.2-.21-.618-.587S99.567,41.119,99.567,41.119Z"/><path class="cls-4" d="M98.14,39.225a3.358,3.358,0,0,0,2.05-.4,3.385,3.385,0,0,0,.69-1.986s-.226-.265-1.1.465A9.675,9.675,0,0,0,98.14,39.225Z"/><path class="cls-4" d="M97.472,41.722a1.526,1.526,0,0,0,.646,1.562,7.144,7.144,0,0,0,1.229.59,1.656,1.656,0,0,0,.026-1.8,1.954,1.954,0,0,0-1.383-.988S97.744,41.045,97.472,41.722Z"/><path class="cls-4" d="M95.879,39.061a1.526,1.526,0,0,0-1.425-.908,7.146,7.146,0,0,0-1.346.223,1.655,1.655,0,0,0,1.016,1.492,1.952,1.952,0,0,0,1.7.015S96.046,39.772,95.879,39.061Z"/><path class="cls-5" d="M96.7,39.475a.422.422,0,0,1,.5-.016.72.72,0,0,1,.365.4l-.51.488-.777-.211Z"/><path class="cls-5" d="M97.63,40.042s-.519-.279-.429-.583a5.141,5.141,0,0,1,.241-.621l.62-.069.141.374Z"/><path class="cls-5" d="M96.659,38.933s0,.883.535.639a2.31,2.31,0,0,0,.868-.8Z"/><path class="cls-5" d="M95.35,40.5a1.805,1.805,0,0,0,1.625,1.217c1.232.011,1.423-.41,1.443-.6s-.441-.281-.441-.281a1.33,1.33,0,0,0-.877-.972,1.534,1.534,0,0,0-1.162.162S95.12,39.6,95.35,40.5Z"/><path class="cls-5" d="M96.323,38.041a1.8,1.8,0,0,0-1.194,1.641c0,1.232.429,1.417.622,1.435s.275-.444.275-.444a1.331,1.331,0,0,0,.96-.891,1.532,1.532,0,0,0-.178-1.16S97.215,37.8,96.323,38.041Z"/><path class="cls-5" d="M98.282,41.358a1.8,1.8,0,0,0,1.048-1.739c-.112-1.227-.55-1.374-.744-1.375s-.236.466-.236.466a1.331,1.331,0,0,0-.879.971,1.536,1.536,0,0,0,.278,1.14S97.415,41.676,98.282,41.358Z"/><path class="cls-5" d="M98.976,38.225a1.805,1.805,0,0,0-1.863-.807c-1.2.274-1.289.728-1.264.921s.494.171.494.171a1.328,1.328,0,0,0,1.078.742,1.535,1.535,0,0,0,1.093-.427S99.406,39.042,98.976,38.225Z"/><path class="cls-4" d="M68.565,48.692a1.25,1.25,0,0,0,1.015,1.037,3.244,3.244,0,0,0,1.379-.062s-.269-.3-.835-.847S68.565,48.692,68.565,48.692Z"/><path class="cls-4" d="M66.639,45.956s1.925.207,2.783-.584.947-2.882.947-2.882-.307-.382-1.5.68A14.039,14.039,0,0,0,66.639,45.956Z"/><path class="cls-4" d="M65.721,49.576a2.279,2.279,0,0,0,.867,2.259,9.314,9.314,0,0,0,1.665.85,2.54,2.54,0,0,0,.044-2.616,2.61,2.61,0,0,0-1.871-1.423S66.093,48.594,65.721,49.576Z"/><path class="cls-4" d="M63.574,45.731s-.6-1.456-1.928-1.309a9.146,9.146,0,0,0-1.827.33,2.409,2.409,0,0,0,1.37,2.157,2.5,2.5,0,0,0,2.3.012S63.8,46.759,63.574,45.731Z"/><path class="cls-5" d="M64.686,46.326a.547.547,0,0,1,.679-.026,1.022,1.022,0,0,1,.492.577l-.694.71-1.052-.3Z"/><path class="cls-5" d="M65.943,47.142s-.7-.4-.578-.842a7.609,7.609,0,0,1,.33-.9l.841-.1.189.54Z"/><path class="cls-5" d="M64.632,45.54s0,1.28.722.923A3.261,3.261,0,0,0,66.536,45.3Z"/><path class="cls-5" d="M62.849,47.818a2.477,2.477,0,0,0,2.2,1.754c1.671.009,1.932-.6,1.96-.881s-.6-.405-.6-.405-.239-1.174-1.184-1.4a1.982,1.982,0,0,0-1.577.242S62.542,46.523,62.849,47.818Z"/><path class="cls-5" d="M64.181,44.25a2.6,2.6,0,0,0-1.628,2.384c0,1.785.574,2.051.837,2.075s.375-.645.375-.645a1.861,1.861,0,0,0,1.307-1.3,2.333,2.333,0,0,0-.236-1.679S65.392,43.9,64.181,44.25Z"/><path class="cls-5" d="M66.821,49.045a2.637,2.637,0,0,0,1.431-2.524c-.146-1.777-.739-1.988-1-1.988s-.322.677-.322.677a1.887,1.887,0,0,0-1.2,1.41,2.31,2.31,0,0,0,.372,1.649S65.643,49.51,66.821,49.045Z"/><path class="cls-5" d="M67.778,44.5a2.39,2.39,0,0,0-2.522-1.16c-1.631.4-1.752,1.061-1.719,1.341s.668.245.668.245.488,1.082,1.459,1.07a2.042,2.042,0,0,0,1.485-.624S68.358,45.685,67.778,44.5Z"/><path class="cls-4" d="M66.839,35.846a.892.892,0,0,0,.751.719,2.542,2.542,0,0,0,1.017-.039s-.2-.21-.618-.587S66.839,35.846,66.839,35.846Z"/><path class="cls-4" d="M65.412,33.953a3.357,3.357,0,0,0,2.051-.4,3.385,3.385,0,0,0,.69-1.986s-.227-.265-1.106.465A9.7,9.7,0,0,0,65.412,33.953Z"/><path class="cls-4" d="M64.745,36.449a1.524,1.524,0,0,0,.645,1.562,7.122,7.122,0,0,0,1.23.59,1.657,1.657,0,0,0,.025-1.8,1.954,1.954,0,0,0-1.383-.988S65.016,35.772,64.745,36.449Z"/><path class="cls-4" d="M63.151,33.789a1.524,1.524,0,0,0-1.424-.909,7.174,7.174,0,0,0-1.347.223A1.659,1.659,0,0,0,61.4,34.6a1.953,1.953,0,0,0,1.7.014S63.318,34.5,63.151,33.789Z"/><path class="cls-5" d="M63.973,34.2a.423.423,0,0,1,.5-.016.721.721,0,0,1,.364.4l-.51.488-.776-.211Z"/><path class="cls-5" d="M64.9,34.769s-.519-.279-.428-.583a5.038,5.038,0,0,1,.24-.621l.621-.069.14.374Z"/><path class="cls-5" d="M63.931,33.66s.005.883.535.639a2.309,2.309,0,0,0,.869-.8Z"/><path class="cls-5" d="M62.622,35.228a1.8,1.8,0,0,0,1.625,1.216c1.232.011,1.423-.409,1.443-.6s-.44-.281-.44-.281a1.332,1.332,0,0,0-.878-.972,1.533,1.533,0,0,0-1.162.163S62.393,34.333,62.622,35.228Z"/><path class="cls-5" d="M63.6,32.768A1.806,1.806,0,0,0,62.4,34.41c.006,1.232.429,1.417.623,1.434s.274-.444.274-.444a1.334,1.334,0,0,0,.961-.891,1.531,1.531,0,0,0-.179-1.159S64.487,32.526,63.6,32.768Z"/><path class="cls-5" d="M65.555,36.085A1.806,1.806,0,0,0,66.6,34.347c-.113-1.227-.55-1.375-.745-1.376s-.235.467-.235.467a1.331,1.331,0,0,0-.88.97,1.536,1.536,0,0,0,.278,1.14S64.687,36.4,65.555,36.085Z"/><path class="cls-5" d="M66.248,32.952a1.805,1.805,0,0,0-1.863-.807c-1.2.275-1.289.728-1.264.921s.494.171.494.171a1.332,1.332,0,0,0,1.079.743,1.537,1.537,0,0,0,1.092-.428S66.679,33.77,66.248,32.952Z"/><path class="cls-4" d="M90.171,86.778a.891.891,0,0,0,.751.719,2.539,2.539,0,0,0,1.017-.039s-.2-.21-.617-.587S90.171,86.778,90.171,86.778Z"/><path class="cls-4" d="M88.744,84.885a3.361,3.361,0,0,0,2.051-.4,3.387,3.387,0,0,0,.69-1.987s-.227-.265-1.106.466A9.714,9.714,0,0,0,88.744,84.885Z"/><path class="cls-4" d="M88.077,87.381a1.524,1.524,0,0,0,.645,1.562,7.14,7.14,0,0,0,1.23.591,1.656,1.656,0,0,0,.026-1.805,1.952,1.952,0,0,0-1.383-.988S88.348,86.705,88.077,87.381Z"/><path class="cls-4" d="M86.484,84.721a1.524,1.524,0,0,0-1.425-.908,7.113,7.113,0,0,0-1.346.222,1.657,1.657,0,0,0,1.015,1.493,1.954,1.954,0,0,0,1.7.015S86.65,85.431,86.484,84.721Z"/><path class="cls-5" d="M87.305,85.135a.423.423,0,0,1,.5-.016.717.717,0,0,1,.364.4l-.509.488-.777-.211Z"/><path class="cls-5" d="M88.234,85.7s-.518-.28-.428-.583a4.959,4.959,0,0,1,.241-.621l.62-.069.141.373Z"/><path class="cls-5" d="M87.264,84.592s0,.884.534.64a2.308,2.308,0,0,0,.869-.8Z"/><path class="cls-5" d="M85.955,86.16a1.805,1.805,0,0,0,1.625,1.217c1.232.011,1.422-.41,1.442-.6s-.44-.28-.44-.28a1.333,1.333,0,0,0-.877-.973,1.537,1.537,0,0,0-1.162.163S85.725,85.265,85.955,86.16Z"/><path class="cls-5" d="M86.927,83.7a1.8,1.8,0,0,0-1.194,1.641c.006,1.232.429,1.417.623,1.435s.275-.445.275-.445a1.329,1.329,0,0,0,.96-.89,1.535,1.535,0,0,0-.179-1.16S87.819,83.459,86.927,83.7Z"/><path class="cls-5" d="M88.887,87.018a1.806,1.806,0,0,0,1.048-1.739c-.112-1.227-.55-1.374-.745-1.375s-.235.466-.235.466a1.333,1.333,0,0,0-.88.97,1.532,1.532,0,0,0,.279,1.14S88.019,87.336,88.887,87.018Z"/><path class="cls-5" d="M89.58,83.885a1.8,1.8,0,0,0-1.862-.808c-1.2.275-1.289.728-1.264.921s.493.171.493.171a1.332,1.332,0,0,0,1.079.743,1.535,1.535,0,0,0,1.093-.427S90.011,84.7,89.58,83.885Z"/><path class="cls-4" d="M87.707,44.908a1.229,1.229,0,0,0,1.036.992,3.5,3.5,0,0,0,1.4-.054s-.274-.29-.852-.81S87.707,44.908,87.707,44.908Z"/><path class="cls-4" d="M85.737,42.3s1.959.2,2.83-.547.952-2.74.952-2.74-.313-.366-1.525.642A13.39,13.39,0,0,0,85.737,42.3Z"/><path class="cls-4" d="M84.817,45.74a2.105,2.105,0,0,0,.89,2.155,9.846,9.846,0,0,0,1.7.815,2.285,2.285,0,0,0,.035-2.491,2.694,2.694,0,0,0-1.908-1.363S85.192,44.806,84.817,45.74Z"/><path class="cls-4" d="M82.619,42.07a2.1,2.1,0,0,0-1.966-1.253,9.859,9.859,0,0,0-1.857.307,2.284,2.284,0,0,0,1.4,2.059,2.7,2.7,0,0,0,2.345.021S82.849,43.05,82.619,42.07Z"/><path class="cls-5" d="M83.752,42.641a.583.583,0,0,1,.691-.023,1,1,0,0,1,.5.552l-.7.674-1.072-.292Z"/><path class="cls-5" d="M85.034,43.423s-.716-.386-.591-.8a7.025,7.025,0,0,1,.332-.856l.856-.1.194.516Z"/><path class="cls-5" d="M83.7,41.892s.007,1.219.738.882a3.184,3.184,0,0,0,1.2-1.108Z"/><path class="cls-5" d="M81.889,44.055a2.49,2.49,0,0,0,2.242,1.678c1.7.016,1.963-.565,1.99-.832s-.607-.387-.607-.387A1.835,1.835,0,0,0,84.3,43.173a2.117,2.117,0,0,0-1.6.224S81.572,42.82,81.889,44.055Z"/><path class="cls-5" d="M83.231,40.662a2.49,2.49,0,0,0-1.647,2.265c.008,1.7.591,1.954.859,1.979s.379-.613.379-.613a1.837,1.837,0,0,0,1.325-1.229,2.119,2.119,0,0,0-.247-1.6S84.461,40.328,83.231,40.662Z"/><path class="cls-5" d="M85.935,45.238a2.49,2.49,0,0,0,1.445-2.4c-.155-1.693-.758-1.9-1.027-1.9s-.325.644-.325.644a1.834,1.834,0,0,0-1.213,1.338A2.119,2.119,0,0,0,85.2,44.5S84.738,45.677,85.935,45.238Z"/><path class="cls-5" d="M86.891,40.916a2.491,2.491,0,0,0-2.57-1.114c-1.657.379-1.778,1-1.743,1.271s.681.236.681.236a1.834,1.834,0,0,0,1.488,1.024,2.117,2.117,0,0,0,1.507-.589S87.485,42.044,86.891,40.916Z"/><path class="cls-4" d="M82.206,96.276a.891.891,0,0,0,.751.719,2.535,2.535,0,0,0,1.016-.039s-.2-.21-.617-.587S82.206,96.276,82.206,96.276Z"/><path class="cls-4" d="M80.778,94.383a3.361,3.361,0,0,0,2.051-.4A3.387,3.387,0,0,0,83.519,92s-.227-.265-1.105.466A9.7,9.7,0,0,0,80.778,94.383Z"/><path class="cls-4" d="M80.111,96.879a1.526,1.526,0,0,0,.645,1.562,7.14,7.14,0,0,0,1.23.591,1.656,1.656,0,0,0,.026-1.8,1.952,1.952,0,0,0-1.383-.988S80.383,96.2,80.111,96.879Z"/><path class="cls-4" d="M78.518,94.219a1.524,1.524,0,0,0-1.425-.908,7.113,7.113,0,0,0-1.346.222,1.657,1.657,0,0,0,1.016,1.493,1.952,1.952,0,0,0,1.7.015S78.684,94.929,78.518,94.219Z"/><path class="cls-5" d="M79.339,94.633a.423.423,0,0,1,.5-.016.722.722,0,0,1,.365.4l-.51.488-.777-.211Z"/><path class="cls-5" d="M80.269,95.2s-.519-.28-.429-.583A4.959,4.959,0,0,1,80.081,94l.62-.069.141.373Z"/><path class="cls-5" d="M79.3,94.09s0,.884.535.64a2.31,2.31,0,0,0,.868-.8Z"/><path class="cls-5" d="M77.989,95.658a1.805,1.805,0,0,0,1.625,1.217c1.232.011,1.422-.41,1.443-.6s-.441-.28-.441-.28a1.331,1.331,0,0,0-.877-.973,1.537,1.537,0,0,0-1.162.163S77.759,94.763,77.989,95.658Z"/><path class="cls-5" d="M78.962,93.2a1.806,1.806,0,0,0-1.2,1.641c.006,1.232.429,1.417.623,1.435s.275-.445.275-.445a1.329,1.329,0,0,0,.96-.89,1.537,1.537,0,0,0-.178-1.16S79.853,92.957,78.962,93.2Z"/><path class="cls-5" d="M80.921,96.516a1.806,1.806,0,0,0,1.048-1.739c-.112-1.227-.55-1.374-.744-1.375s-.236.466-.236.466a1.331,1.331,0,0,0-.879.97,1.529,1.529,0,0,0,.278,1.14S80.054,96.834,80.921,96.516Z"/><path class="cls-5" d="M81.614,93.383a1.8,1.8,0,0,0-1.862-.808c-1.2.275-1.289.728-1.264.921s.493.171.493.171a1.332,1.332,0,0,0,1.079.743,1.535,1.535,0,0,0,1.093-.427S82.045,94.2,81.614,93.383Z"/><path class="cls-4" d="M90.815,52.215s1.889-2.4,1.607-4.15-2.865-3.479-2.865-3.479-.746.112-.4,2.52A20.459,20.459,0,0,0,90.815,52.215Z"/><path class="cls-4" d="M87.939,56.113s-2.362-.32-3.293,1.553a14.946,14.946,0,0,0-1.124,2.682,3.632,3.632,0,0,0,3.9-.157,4.13,4.13,0,0,0,1.963-3.053S89.434,56.611,87.939,56.113Z"/><path class="cls-5" d="M89.635,55.1a.893.893,0,0,1,.54-.923c.659-.362,2.667.535,2.667.535l-.807,1.2-1.082,1.936Z"/><path class="cls-5" d="M91.735,54.053s-1.1.624-1.56.119a10.808,10.808,0,0,1-.866-1.133l.579-1.2.847.166Z"/><path class="cls-5" d="M88.591,54.56s1.629.984,1.783-.248a4.848,4.848,0,0,0-.486-2.471Z"/><path class="cls-6" d="M86.568,54.165a3.812,3.812,0,0,0,1.657,4c2.272,1.374,2.273,1.162,2.358.754a4.164,4.164,0,0,1,.485-1.262,2.8,2.8,0,0,0-.543-2.736,3.362,3.362,0,0,0-2.336-.981S87.139,52.282,86.568,54.165Z"/><path class="cls-6" d="M94.693,52.26s.586-.577-1.8-1.753-3.153-.552-3.376-.2.59.949.59.949a2.8,2.8,0,0,0,.781,2.679,2.742,2.742,0,0,0,2.076.78Z"/><path class="cls-6" d="M89.928,49.58a3.9,3.9,0,0,0-3.605,2.457c-.864,2.478-.131,3.147.253,3.318s.877-.7.877-.7a2.9,2.9,0,0,0,2.593-1.114,3.218,3.218,0,0,0,.46-2.454S91.921,49.721,89.928,49.58Z"/><path class="cls-4" d="M70.17,99.118s1.226,1.573,2.381,1.668,2.654-1.274,2.654-1.274.045-.491-1.535-.65A13.375,13.375,0,0,0,70.17,99.118Z"/><path class="cls-4" d="M68.147,96.685a2.168,2.168,0,0,0-.47-2.331,9.822,9.822,0,0,0-1.525-1.131,2.372,2.372,0,0,0-.51,2.5,2.693,2.693,0,0,0,1.629,1.721S67.6,97.555,68.147,96.685Z"/><path class="cls-5" d="M68.528,97.92a.584.584,0,0,1,.5.487c.127.474-.756,1.607-.756,1.607l-.635-.7-1.058-.988Z"/><path class="cls-5" d="M68.861,99.414s-.223-.8.168-1.007a7.041,7.041,0,0,1,.854-.373l.669.554-.237.512Z"/><path class="cls-5" d="M69.031,97.341s-.879.879-.122,1.17a3.171,3.171,0,0,0,1.643.077Z"/><path class="cls-6" d="M69.6,96.12a2.489,2.489,0,0,0-2.8.426c-1.226,1.226-1.092,1.26-.847,1.377a2.726,2.726,0,0,1,.725.5,1.828,1.828,0,0,0,1.82.083,2.193,2.193,0,0,0,.987-1.328S70.7,96.776,69.6,96.12Z"/><path class="cls-6" d="M69.536,101.57s.274.462,1.392-.866.843-1.913.655-2.11-.694.226-.694.226a1.829,1.829,0,0,0-1.821.077,1.789,1.789,0,0,0-.818,1.195Z"/><path class="cls-6" d="M71.98,98.967a2.549,2.549,0,0,0-1-2.67c-1.436-.935-1.975-.574-2.143-.358s.306.665.306.665a1.894,1.894,0,0,0,.3,1.819,2.1,2.1,0,0,0,1.485.675S71.579,100.209,71.98,98.967Z"/><path class="cls-4" d="M87.932,120.109s.884,2.386,2.252,2.946,3.719-.526,3.719-.526.244-.579-1.617-1.382A17.041,17.041,0,0,0,87.932,120.109Z"/><path class="cls-4" d="M86.409,116.37a2.763,2.763,0,0,0,.326-3.016,12.547,12.547,0,0,0-1.418-1.964,3.025,3.025,0,0,0-1.583,2.842,3.44,3.44,0,0,0,1.318,2.722S85.406,117.217,86.409,116.37Z"/><path class="cls-5" d="M86.4,118.019a.744.744,0,0,1,.422.785c-.029.625-1.539,1.664-1.539,1.664l-.5-1.095-.906-1.61Z"/><path class="cls-5" d="M86.225,119.965s.036-1.056.593-1.161A9.081,9.081,0,0,1,88,118.68l.6.932-.486.531Z"/><path class="cls-5" d="M87.231,117.509s-1.408.731-.6,1.376a4.039,4.039,0,0,0,1.968.727Z"/><path class="cls-6" d="M88.39,116.242a3.177,3.177,0,0,0-3.566-.56c-1.964,1.018-1.813,1.111-1.56,1.349a3.5,3.5,0,0,1,.687.893,2.33,2.33,0,0,0,2.181.8,2.8,2.8,0,0,0,1.712-1.234S89.48,117.466,88.39,116.242Z"/><path class="cls-6" d="M86.215,122.846s.156.668,2.027-.516,1.763-2,1.61-2.313-.931.007-.931.007a2.337,2.337,0,0,0-2.245-.609,2.282,2.282,0,0,0-1.456,1.138Z"/><path class="cls-6" d="M90.19,120.623a3.252,3.252,0,0,0-.18-3.631c-1.388-1.69-2.181-1.46-2.47-1.262s.116.928.116.928a2.415,2.415,0,0,0-.334,2.328,2.677,2.677,0,0,0,1.545,1.392S89.224,121.979,90.19,120.623Z"/><path class="cls-4" d="M77.771,34.752s-2.5-.447-3.682.448-1.431,3.472-1.431,3.472.375.5,2.01-.692A17.045,17.045,0,0,0,77.771,34.752Z"/><path class="cls-4" d="M81.765,35.335a2.763,2.763,0,0,0,2.434,1.81,12.509,12.509,0,0,0,2.413-.227,3.027,3.027,0,0,0-1.647-2.8,3.44,3.44,0,0,0-3.015-.244S81.544,34.041,81.765,35.335Z"/><path class="cls-5" d="M80.351,34.488a.745.745,0,0,1-.891-.035c-.524-.341-.654-2.17-.654-2.17l1.2.122,1.847.035Z"/><path class="cls-5" d="M78.76,33.354s.892.566.7,1.1a8.979,8.979,0,0,1-.492,1.082l-1.108.045-.211-.688Z"/><path class="cls-5" d="M80.367,35.466s.084-1.584-.882-1.214A4.041,4.041,0,0,0,77.86,35.58Z"/><path class="cls-6" d="M80.871,37.107a3.175,3.175,0,0,0,2.291-2.789c.118-2.209-.039-2.127-.372-2.029a3.456,3.456,0,0,1-1.118.139,2.333,2.333,0,0,0-1.8,1.474,2.8,2.8,0,0,0,.2,2.1S79.264,37.427,80.871,37.107Z"/><path class="cls-6" d="M76.281,31.884s-.654-.2-.583,2.01.833,2.534,1.178,2.56.467-.806.467-.806a2.335,2.335,0,0,0,1.662-1.627,2.279,2.279,0,0,0-.243-1.831Z"/><path class="cls-6" d="M76.182,36.438A3.253,3.253,0,0,0,79.4,38.123c2.16-.339,2.364-1.14,2.339-1.489s-.858-.37-.858-.37A2.418,2.418,0,0,0,79.048,34.8a2.68,2.68,0,0,0-1.984.627S75.5,34.918,76.182,36.438Z"/><path class="cls-2" d="M146.927,25.762s.718-4.668,2.613-3.753-1.162,4.367-1.162,4.367,4.512-2.058,4.937-.343c.779,3.15-4.976,1.515-4.976,1.515s4.652,2.008,2.926,3.768-3.157-3.221-3.157-3.221,1.649,4.9-.283,5.8-1.068-5.3-1.068-5.3-1.782,5.428-3.37,3.652c-1.422-1.59,2.388-4.3,2.388-4.3s-4.735,2.135-5.12-.168c-.452-2.7,4.963-.945,4.963-.945S141.281,23.2,143.842,22C145.954,21.006,146.927,25.762,146.927,25.762Z"/></svg>