<svg id="word" xmlns="http://www.w3.org/2000/svg" viewBox="0 0 160 160"><defs><style>.cls-1{fill:#d27230;}.cls-1,.cls-2,.cls-3,.cls-4,.cls-6,.cls-7,.cls-8{stroke:#9d4b9c;stroke-miterlimit:10;stroke-width:0.67px;}.cls-2{fill:#c75928;}.cls-3{fill:#f0e4cb;}.cls-4{fill:#242424;}.cls-5{fill:#9d4b9c;}.cls-6{fill:none;}.cls-7{fill:#fff;}.cls-8{fill:#d18171;}</style></defs><path class="cls-1" d="M94.536,120.993s6.18-1.129,9.9-3.9,5-9.16,3.471-12.994-5.418-11.259-1.9-19.972,6.3-8.023,7.33-11.609,2.7-8.531,2.7-8.531-.111,6.942,3.976,11.448,11.156,19.639,9.831,28.476-3.754,19.017-12.418,23.208-15.855,6.216-19.5,4.284-8.842-4.959-8.842-4.959Z"/><path class="cls-2" d="M47.712,129.372s-2.069,2.084,1.264,2.977S64.9,130.86,64.9,130.86s7.061-5.791,6.9-6.344.93-27.568.93-27.568L59.145,95.633l-5.62,7.233Z"/><path class="cls-1" d="M71.4,74.522s4,6.847,8.582,10.881,12.816,7.822,14.6,16.753,3.838,15.447.215,20.418-9.158,6.268-10.687,7.29-2.165,1.376-1.724,2.946-.7,2.678-3.63,2.075-14.275.527-15.968.167a34.762,34.762,0,0,0-6.406.072s-.94-2.527,1.871-4.939a15.916,15.916,0,0,1,4.382-2.952l2.661.643a31.419,31.419,0,0,1-1.63-5.581c-.494-2.8-3.766-5.8-1.321-8.857a41.8,41.8,0,0,0,3.933-5.862,4.719,4.719,0,0,0-3.979,1.642c-1.568,1.939-3.092,7.566-4.243,10.035s-1.279,5.689-3.452,5.086-1.812-5.208-1.284-7.047,1.17-6.375,1.658-9.211,1.559-5.914,3.768-6.871a8.16,8.16,0,0,1,3.379-.873L55.942,85.4,56.728,75.2Z"/><path class="cls-1" d="M47.29,102.1,45.7,123.526l-4.176,4.316s-4.8,2.132-4.584,4.231,1.361,2.055,3.612,2.058,5.371,1.785,6.622-1.571,2.464-8.476,3.338-12.024,3.33-19.059,3.33-19.059L48.21,94.849Z"/><path class="cls-3" d="M52.969,75.66s-4.884,2.5-5.919,6.969a40.324,40.324,0,0,0-1.118,6.587l1.848-2.629S45.174,93.635,45.6,96.9a19.642,19.642,0,0,1-.709,7l3.432-4.86s.191,4.229.047,6.112a20.533,20.533,0,0,0,.452,4.663l2.042-5.915s-1.006,5.579-.945,6.6,2.885-4.264,3.627-7.144.708,2.637.708,2.637,2.354-5.232,5.336-6.953c1.37-.791,3.866,1.721,3.866,1.721a22.525,22.525,0,0,0-2.108-7.437A60.353,60.353,0,0,1,58.482,85.4l4.2,6.739-.347-6.59.054-2.04,1.066,2.943-.986-11.522-6.415-.411Z"/><path class="cls-3" d="M104.779,94.325l2.318-7.113a67.282,67.282,0,0,0,1.337,8.864,36.333,36.333,0,0,1,1.021,6.757l1.945-9.348s2.238,6.264,2.716,8.4a19.621,19.621,0,0,0,1.5,4.117l2.076-14.331a88.316,88.316,0,0,1,2.751,8.769c.346,2.132.445,3.469.445,3.469a19.76,19.76,0,0,0,.7-6.2,54.811,54.811,0,0,1,.257-7.656s2.547,6.485,2.68,6.914a15.413,15.413,0,0,1-.237,2.8s1.788-4.243,2.458-5.241a25.439,25.439,0,0,0,1.375-2.43s-.857-10.027-3.584-12.15-4.073-5.832-5.289-8.353-3.358-11.06-3.358-11.06-2.175,7.228-2.949,9.314-2.074,4.237-3.4,6.888-4.5,4.288-5.217,6.535C103.232,86.686,104.779,94.325,104.779,94.325Z"/><path class="cls-1" d="M59.587,40.961s-2.886-3.5-1.483-6.887,5.832-10.055,6.581-11.134,2.1-3.753,2.1-3.753,1.156,5.521,2.233,9.7a27.628,27.628,0,0,1,.513,9.7c-.168.936-1.194,3.982-1.194,3.982s-5.689-.991-6.667-1.2S59.587,40.961,59.587,40.961Z"/><path class="cls-1" d="M42.245,52.3S40.578,62.312,43.6,66.1s5.632,7.115,13.131,9.093,13.773,1.05,15.95.106,1.768.6,6.179-1.85,9.829-3.769,11.985-6.4,6.618-4.834,6.618-4.834L93.69,57s-4.116.307-6.82-1.148A60.241,60.241,0,0,1,74.451,45.5c-3.377-3.89-6.4-4.356-11.266-5.355a18.62,18.62,0,0,0-11.44,1.229C48.652,42.6,42.245,52.3,42.245,52.3Z"/><path class="cls-1" d="M45.316,57.421s-.974-.38-5.079-4.793-3.471-7.042-3.99-12.675-1.97-8.174-1.97-8.174,5.629,2.867,7.509,3.645,3.767.625,7.3,3.121,3.881,2.97,4.763,6.055S55.5,51.486,55.5,51.486"/><path class="cls-3" d="M54.649,74.3s1.172-7.836,4.678-9.208,4-2.995,11.144-2.431,10.337,2.434,14.631.83A61.136,61.136,0,0,1,93.69,61.05l1.113-.092.888,2.909s-6.118,4.621-8.157,5.582-9.442,4.253-11.2,5.193-11.094,2.12-13.732,2.084S55.172,76.057,54.649,74.3Z"/><path class="cls-4" d="M92.33,57.023A43.043,43.043,0,0,0,94.4,62.57c.82,1.453,1.29,1.3,1.29,1.3s6.238-3.417,6.514-5.609.051-5.71-3.388-5.413S92.33,57.023,92.33,57.023Z"/><path class="cls-5" d="M86.2,55.854s-.043-.185-.086-.514a7.3,7.3,0,0,1-.028-1.39,7.611,7.611,0,0,1,.417-1.936,7.736,7.736,0,0,1,.456-1.029,8.66,8.66,0,0,1,.62-.987,9.042,9.042,0,0,1,.763-.875,11.146,11.146,0,0,1,.834-.742c.554-.452,1.087-.833,1.531-1.175s.808-.633,1.044-.861l.376-.358a3.905,3.905,0,0,1-.279.442,8.955,8.955,0,0,1-.888,1.061c-.395.413-.891.856-1.4,1.331-.255.234-.51.493-.753.742a8.337,8.337,0,0,0-.7.83,9.643,9.643,0,0,0-1.65,3.614,9.742,9.742,0,0,0-.218,1.328Z"/><path class="cls-5" d="M87.868,55.988l.011-.169a2.881,2.881,0,0,1,.054-.477,5.329,5.329,0,0,1,.577-1.637,9.9,9.9,0,0,1,1.452-1.975c.6-.664,1.294-1.3,1.95-1.957a44.463,44.463,0,0,0,3.432-3.786c.438-.547.81-1,1.053-1.332l.4-.513a18.5,18.5,0,0,1-1.14,2.067,21.377,21.377,0,0,1-1.411,1.971,24.116,24.116,0,0,1-1.865,2.065c-.682.66-1.376,1.282-2,1.889A12.849,12.849,0,0,0,88.833,53.9a5.867,5.867,0,0,0-.775,1.468,4.687,4.687,0,0,0-.143.454Z"/><path class="cls-5" d="M79.234,59.763l-.788.223c-.5.129-1.22.338-2.087.543s-1.889.432-2.921.762a21.406,21.406,0,0,0-3.113,1.442l-8.482,4.274s.237-.181.666-.479,1.04-.723,1.8-1.187,1.651-1.012,2.628-1.551,2.028-1.1,3.082-1.646a17.789,17.789,0,0,1,3.245-1.41,29.83,29.83,0,0,1,3.018-.57c.879-.145,1.62-.227,2.135-.3Z"/><path class="cls-5" d="M81.277,60.987l-.489.622c-.321.383-.774.951-1.378,1.569s-1.314,1.338-2.126,2.054c-.415.348-.833.722-1.287,1.065s-.914.692-1.378,1.036c-.48.323-.954.653-1.437.953s-.967.582-1.434.857c-.946.526-1.858.964-2.647,1.317s-1.468.6-1.94.772l-.75.253.7-.371c.449-.223,1.073-.577,1.825-.988.377-.2.778-.436,1.2-.686s.856-.53,1.316-.8c.9-.569,1.857-1.191,2.786-1.848s1.835-1.345,2.674-2.006c.408-.344.822-.654,1.194-.973s.731-.614,1.047-.9c.64-.571,1.179-1.04,1.542-1.39Z"/><path class="cls-5" d="M79.363,60.525s-.229.234-.665.611a20.628,20.628,0,0,1-1.9,1.448c-.822.548-1.8,1.164-2.872,1.766s-2.22,1.233-3.392,1.834c-.587.3-1.182.58-1.773.85s-1.186.506-1.763.732a22.156,22.156,0,0,1-3.253.948,13.243,13.243,0,0,1-1.337.209c-.4.055-.751.06-1.037.086-.577.014-.9.006-.9.006l.89-.135c.281-.058.625-.1,1.01-.2s.819-.206,1.289-.328c.468-.137.971-.3,1.5-.485s1.067-.415,1.63-.643c1.119-.478,2.294-1.035,3.454-1.631l3.414-1.756c1.089-.562,2.108-1.075,2.953-1.568s1.546-.909,2.017-1.235Z"/><path class="cls-6" d="M89.079,68.625a6.628,6.628,0,0,1-6.517-1.812"/><path class="cls-7" d="M72.255,55.078s.453-4.176-3.843-3.355-2.235,5.448-1.033,6.328,3.552.429,3.866-.073A23.3,23.3,0,0,0,72.255,55.078Z"/><path class="cls-8" d="M54.251,52.058l-2.646-1.746-.435,2.252-1.3-3.145-1.03,5.607s-1.587.147-3.264-3.266-4.436-7.8-4.79-10.382a14.651,14.651,0,0,0-.858-3.681s2.649,1.891,4.658,2.083a7.98,7.98,0,0,1,3.73,1.593s-.7-1.518,1.693,1.2,3.785,7.785,4.636,8.351S54.251,52.058,54.251,52.058Z"/><path class="cls-6" d="M66.335,107.339A3.984,3.984,0,0,0,68.387,107a3.163,3.163,0,0,0,1.113-1.243,7.57,7.57,0,0,0,.942-4.308"/><path class="cls-6" d="M65.418,128.021a4.665,4.665,0,0,1,2.284,1.236l2.5,2.041"/><path class="cls-6" d="M40.065,133.913a.625.625,0,0,1-.614-.314,1.432,1.432,0,0,1-.17-.7,4.266,4.266,0,0,1,.619-2.366"/><path class="cls-6" d="M43.285,134.7a1.55,1.55,0,0,1-.64-1.059,6.879,6.879,0,0,1,.006-3.209"/><path class="cls-6" d="M60.077,134.968a2.839,2.839,0,0,1-.643-2.271,4.612,4.612,0,0,1,.993-2.194"/><path class="cls-6" d="M63.669,135.042a1.722,1.722,0,0,1-.264-1.109,3.325,3.325,0,0,1,.446-1.184q.468-.876.967-1.735"/><ellipse class="cls-5" cx="70.335" cy="54.685" rx="1.934" ry="2.361"/></svg>