<svg id="word" xmlns="http://www.w3.org/2000/svg" viewBox="0 0 160 160"><defs><style>.cls-1{fill:#d179b0;}.cls-1,.cls-10,.cls-11,.cls-2,.cls-3,.cls-4,.cls-5,.cls-6,.cls-7,.cls-9{stroke:#9c4c9c;stroke-miterlimit:10;stroke-width:0.617px;}.cls-2{fill:#ebdbd0;}.cls-3,.cls-6{fill:#fde1d3;}.cls-4{fill:#ffd78d;}.cls-5{fill:#26b3e8;}.cls-6,.cls-9{stroke-linecap:round;}.cls-7{fill:#fff;}.cls-8{fill:#9c4c9c;}.cls-10,.cls-9{fill:none;}.cls-11{fill:#f2704d;}</style></defs><path class="cls-1" d="M48.724,94.413s-5.064,4.9-6.753,9.434S34.3,117.433,35.679,120.5s6.139,6.6,7.52,5.678a17.668,17.668,0,0,0,2.76-2.454l3.94-14.806,1.438-6.594Z"/><path class="cls-1" d="M68.972,87.778s-12.266,2.231-15.336,3.613a20.95,20.95,0,0,0-4.912,3.022l-.076,47.535,50.916-.363s4.408-36.736,4.562-38.885.767-4.162,0-5.687-4.451-4.9-4.451-4.9L85.71,95.948S84.175,98.1,82.794,98.1s-6.875-.362-7.675-1.083A45.941,45.941,0,0,1,71.9,92.79Z"/><path class="cls-2" d="M54.4,99.017l4.3-2s19.945,2.618,23.478,4.306,6.756,4.144,8.6,4.3,5.372-.46,6.446-1.688,7.221-4.2,12.895-4.4,8.9,0,8.9,0h3.07s-1.689-.037,0,1.8l1.688,1.835s-7.52,1.381-10.129,1.841S92,110.681,92,110.681l-15.388-5.525-24.053-3.377Z"/><path class="cls-3" d="M70.823,89.809s1.688,7.98,8.441,9.055,8.748-3.837,8.748-4.528S70.823,89.809,70.823,89.809Z"/><path class="cls-3" d="M109.037,57.12s-.154,10.129.767,14.887-4.6,17.188-10.129,20.1S85.1,98.71,78.036,96.1,67.651,88.09,63.968,81.8,56.7,61.878,59.927,55.432s.461-14.426,18.109-15.04,27.011,2.916,28.238,5.832S109.037,57.12,109.037,57.12Z"/><path class="cls-4" d="M78.036,43.769s5.832,7.673,10.129,9.208,5.372,1.534,5.372,1.534a22.306,22.306,0,0,1-3.223-3.069,6.671,6.671,0,0,1-1.381-3.223s8.44,5.372,11.51,7.06,4.6,3.683,4.6,5.064.614-1.688,0-4.6,3.954-.164,3.98,2.917.348,10.011.348,10.011,3.192-2.032,3.959-4.794,0,2.148,0,2.148,4.6-2.608,4.6-6.6-2.609-15.653-2.609-15.653l2.609,1.841s.46-7.673-4.6-9.515A53.5,53.5,0,0,1,107.2,33.64s2.464-1.381,2.92-2.149-2,1.688-4.454,0S95.992,23.718,88.319,25,70.67,31.645,70.67,31.645s-7.367-1.535-8.9.767S56.7,35.481,55.783,36.1s-9.821,6.139-9.361,12.738S47.8,62.645,50.566,65.561s7.98,5.832,8.594,6.906a23.97,23.97,0,0,1,1.534,4.3c.307,1.075-.46-8.134.461-11.51s3.223-4.45,3.683-5.832-.614,5.218-.614,5.218,7.06-6.6,9.055-8.287,3.224-4.34,4.757-7.52S78.036,43.769,78.036,43.769Z"/><path class="cls-5" d="M51.947,99.528,45.5,129.1s20.872,2.762,25.322,4.6,6.753,2.762,6.753,2.762a1.961,1.961,0,0,0,2.762,1.381c2.3-.767,2.609-1.841,2.609-1.841s9.208-5.372,15.347-5.678a71.012,71.012,0,0,0,10.9-1.382l14.58-25.782s-17.8.921-21.486,2.3-7.673,2.609-7.673,2.609a2.831,2.831,0,0,1-2.609.767,6.367,6.367,0,0,1-3.069-1.86s-19.03-5.66-23.481-6.12S51.947,99.528,51.947,99.528Z"/><path class="cls-3" d="M47.189,111.262s-3.033,2.184-.784,3.07,6.784,4.065,7.7,2.723S50.566,110.955,47.189,111.262Z"/><path class="cls-3" d="M45.575,114.978s-1.8,1.688.83,3.069,7.375,4.785,7.819,2.763S47.643,114.671,45.575,114.978Z"/><path class="cls-3" d="M45.575,119.582s-.417.792,1.6,1.854,5.7,3.057,5.39,1.982a6.581,6.581,0,0,0-2.951-3.53C48.184,118.993,45.752,118.2,45.575,119.582Z"/><path class="cls-3" d="M47.062,121.938s-1.923.589.241,2.124,3.813,2.268,4.034,1.491C52.1,122.878,47.874,121.607,47.062,121.938Z"/><path class="cls-3" d="M120.264,109.36s-11.534,5.157-8.925,6.232,6.446-1.723,7.366-1.859S122.744,109.267,120.264,109.36Z"/><path class="cls-3" d="M112.26,116.8s-1.121,1.919.767,1.97,6.753-.916,6.906-1.97-.022-3.582-1.228-3.066S112.26,116.8,112.26,116.8Z"/><path class="cls-3" d="M111.93,120.349s2.656.767,4.025,0a2.216,2.216,0,0,0,1.175-2.15S110.583,118.98,111.93,120.349Z"/><path class="cls-3" d="M111.892,122.77s2.019,1.193,2.93,0,.92-2.269.61-2.191S110.96,120.668,111.892,122.77Z"/><path class="cls-6" d="M88.052,82.23a5.607,5.607,0,0,1,5.209.472"/><path class="cls-7" d="M82.177,73.741s-1.768-6.927-5.563-3.668-2.5,6.316,0,8.15S82.634,78.019,82.177,73.741Z"/><ellipse class="cls-8" cx="78.601" cy="76.383" rx="2.089" ry="2.926"/><path class="cls-7" d="M105.18,72.943s-1.768-6.927-5.563-3.667-2.5,6.316,0,8.149S105.637,77.222,105.18,72.943Z"/><ellipse class="cls-8" cx="101.604" cy="75.586" rx="2.089" ry="2.926"/><path class="cls-9" d="M79.443,84.031a14.919,14.919,0,0,0,18.272.421"/><path class="cls-9" d="M98.29,63.084l6.414,3.2"/><path class="cls-10" d="M74.986,66.7a7.028,7.028,0,0,0,4.672-1.025,13.327,13.327,0,0,1,4.5-1.813"/><path class="cls-4" d="M56.36,87.86C55.6,85.405,51.913,84.3,49.9,82.7c-2.823-2.239-4.732-2.192-4.658-5.794.067-3.239,2.739-5.914,3.121-9.131.319-2.681-1-5.273-2.477-7.532s-3.192-4.46-3.831-7.083a18.129,18.129,0,0,1-.365-4.176A36.122,36.122,0,0,1,42,43.075c1.3-8.157,7.582-14.659,14.437-19.267A18.57,18.57,0,0,1,61.53,21.2a20.286,20.286,0,0,1,5.97-.536,54.962,54.962,0,0,1,8,.58,12.108,12.108,0,0,1,4.735,1.6,5.4,5.4,0,0,1,2.582,4.1l-.6,3.906s-10.832,2.292-13.589,4.36-6.9,11.373-6.377,16.2-8.1,18.707-5.686,24.173,5.17,5.466,3.791,10.807a21.814,21.814,0,0,1-3.618,8.02S57.948,92.988,56.36,87.86Z"/><path class="cls-4" d="M79.766,31.046c-3.6-.763-7.219.9-10.522,2.517a33.723,33.723,0,0,0-7.07,4.213,11.324,11.324,0,0,0-4.164,6.908c-.6,4.485,2.438,8.928,1.593,13.373-.661,3.479-3.534,6.085-4.963,9.325a11.97,11.97,0,0,0-.634,7.748c1.327,5.148,6.077,8.892,11.2,10.32l3.079.943-5.468-4.7a17.139,17.139,0,0,1-4.48-12.786c.348-4.633,5.238-7.459,6.339-11.973.507-2.08-.528-5.389.852-13.8S79.766,31.046,79.766,31.046Z"/><path class="cls-8" d="M77.756,136.175a32.464,32.464,0,0,1,1.931-7.355,39.236,39.236,0,0,1,3.516-6.754l1.008-1.6a14.588,14.588,0,0,0,.944-1.627,31.725,31.725,0,0,0,1.461-3.46c.844-2.369,1.444-4.829,2.105-7.273a54.261,54.261,0,0,1-1.655,7.423,24.644,24.644,0,0,1-1.408,3.56,14.765,14.765,0,0,1-.933,1.666l-.991,1.624A43.116,43.116,0,0,0,80.124,129,43.588,43.588,0,0,0,77.756,136.175Z"/><path class="cls-8" d="M82.933,136.32a5.325,5.325,0,0,1,.515-3.875c.568-1.2,1.172-2.369,1.755-3.556l3.616-7.044,3.743-6.979c1.256-2.3,2.609-4.619,2.866-7.277,0,2.688-1.28,5.165-2.446,7.5l-3.617,7.044-3.743,6.978-1.9,3.467A5.378,5.378,0,0,0,82.933,136.32Z"/><path class="cls-11" d="M72.436,34.381s8.126-1.751,9.741-2.785,5.835-5.686,5.835-5.686a12.082,12.082,0,0,0-4.773-4.235,8.536,8.536,0,0,0-5.716,0,10.911,10.911,0,0,1-2.537,5.786c-2.4,2.929-5.582,9.171-5.947,9.527S72.436,34.381,72.436,34.381Z"/><path class="cls-8" d="M78.029,33.755a3.662,3.662,0,0,0,.388,3.123,9.645,9.645,0,0,0,2.212,2.589A26.256,26.256,0,0,0,86.556,43.1a61.266,61.266,0,0,1,6.255,3.222,14.291,14.291,0,0,1,4.977,4.885,14.2,14.2,0,0,0-5.058-4.753,61.208,61.208,0,0,0-6.305-3.075,26.563,26.563,0,0,1-6.1-3.564,10.155,10.155,0,0,1-2.384-2.678,4.229,4.229,0,0,1-.488-3.616Z"/><path class="cls-8" d="M80.486,31.907a4.774,4.774,0,0,0,2.537,3.073A20.675,20.675,0,0,0,87.01,36.6a70.288,70.288,0,0,1,8.176,3.1,22.562,22.562,0,0,1,7.109,5.04,13.938,13.938,0,0,1,3.774,7.732,13.862,13.862,0,0,0-3.887-7.627,22.336,22.336,0,0,0-7.126-4.866,70.261,70.261,0,0,0-8.188-2.938,21.04,21.04,0,0,1-4.113-1.587,5.347,5.347,0,0,1-2.874-3.42Z"/><path class="cls-8" d="M74.7,34.845a36.762,36.762,0,0,1,1.556,6.373,31.528,31.528,0,0,1,.353,6.543A6.476,6.476,0,0,1,75.54,50.87a17.429,17.429,0,0,1-2.129,2.488,37.858,37.858,0,0,1-4.961,4.229,37.753,37.753,0,0,0,4.85-4.336,17.24,17.24,0,0,0,2.045-2.506,6.189,6.189,0,0,0,.958-3.011,31.215,31.215,0,0,0-.5-6.442,36.2,36.2,0,0,0-1.681-6.24Z"/><path class="cls-8" d="M82.428,31.2a5.368,5.368,0,0,0,3.632,2.256c1.475.348,3.026.432,4.564.673A45.483,45.483,0,0,1,99.648,36.4a8.186,8.186,0,0,1,3.691,2.822,17.207,17.207,0,0,1,2.174,4.113,21.8,21.8,0,0,1,1.393,9.117,21.732,21.732,0,0,0-1.536-9.061,17.084,17.084,0,0,0-2.214-4.028,7.917,7.917,0,0,0-3.622-2.676,45.156,45.156,0,0,0-8.974-2.1c-1.52-.213-3.073-.268-4.62-.6a8.671,8.671,0,0,1-2.256-.8A4.812,4.812,0,0,1,81.9,31.512Z"/></svg>