<svg id="word" xmlns="http://www.w3.org/2000/svg" viewBox="0 0 160 160"><defs><style>.cls-1{fill:#ad9075;stroke:#9d4b9c;stroke-width:0.695px;}.cls-2{fill:#972c2f;}.cls-3{fill:#fbfcfc;}.cls-4{fill:#771d1e;}</style></defs><path class="cls-1" d="M128.618,78.743l.424,74.384h-3.686l-.837-44.426.227-21.3-.79-10.673A14.21,14.21,0,0,1,128.618,78.743Z"/><path class="cls-2" d="M129.844,34.206l.57-23.748a11.009,11.009,0,0,0-11.954.339c-13.22,8.368-12.055,10.857-26.051,10.857s-57.734-2.342-57.734-2.342,3.287,64.53,2.121,70.975S59.562,79.311,66.559,74.9s9.913,9.157,18.079,7.461,20.992-6.784,27.99-6.444,16.037,7.123,16.037,7.123Z"/><path class="cls-3" d="M110.88,36.913c-8.6,3.125-10.789,5.767-19.827,6.106s-17.2-3.052-22.163-5.427-33.209-.048-33.209-.048L36.462,54.2S58,44.49,69.766,47.767c4.337,1.209,18.559,8.708,31.783,4.071,5.5-1.93,9.623-9.158,17.785-9.158s9.915,5.766,9.915,5.766l.595-11.527S120.209,33.522,110.88,36.913Z"/><polyline class="cls-4" points="70.832 72.074 74.527 51.5 76.277 77.275 70.832 72.981"/><polygon class="cls-4" points="118.847 77.051 125.065 45.169 126.62 80.216 118.847 77.051"/><path class="cls-4" d="M118.068,11.7a106.676,106.676,0,0,0-4.278,10.854c-1.554,4.974-4.47,11.307-9.331,12.21s-11.466-8.816-13.218-10.4.512-1.863,7.585-2.035C108.156,22.1,118.068,11.7,118.068,11.7Z"/></svg>