<svg id="word" xmlns="http://www.w3.org/2000/svg" viewBox="0 0 160 160"><defs><style>.cls-1,.cls-7{fill:#f1af5f;}.cls-1,.cls-3,.cls-4,.cls-5,.cls-6,.cls-8{stroke:#9d4b9c;stroke-miterlimit:10;stroke-width:0.645px;}.cls-2{fill:#9d4b9c;}.cls-3{fill:#83421d;}.cls-4{fill:#955724;}.cls-5{fill:#fde0c3;}.cls-6{fill:#fff;}.cls-8{fill:#48484a;}</style></defs><path class="cls-1" d="M115.362,58.752s3.285.571,4.726,4.743,5.014,18.483,6.185,22.968,2.35,8.732,7.107,9.718,9.365.051,10.927-.988,2.455-2.638,3.252-1.5-2.259,3.225-3.906,3.927-8.849,2.12-10.2,1.471-7.217-.334-8.886-5.263-9.556-35.078-9.556-35.078Z"/><path class="cls-1" d="M38.415,80.536l3.711,31.906-.375,3.183s-2.937.867-4.315,1.461-3.8,1.82-4.1,3.139,1.727,2.078,1.727,2.078a24.063,24.063,0,0,0,2.556.515c.393-.015,3.2,0,3.2,0l6.621-4.866,2.451-5.391L46.607,82.408Z"/><path class="cls-2" d="M41.272,115.469a2.86,2.86,0,0,1,2.457.8,2.54,2.54,0,0,0-2.287-.178Z"/><path class="cls-2" d="M35.21,122.607a3.008,3.008,0,0,1,.387-2.151,2.848,2.848,0,0,1,1.657-1.237,2.69,2.69,0,0,0-1.372,1.387,2.524,2.524,0,0,0-.049,1.832Z"/><path class="cls-1" d="M90.776,81.392s3.505,11.031,5.073,14.788,4.624,8.807,4.266,10.093-5.695,9.066-5.695,9.066a9.69,9.69,0,0,1-1.924.5c-.7.051-6.144.235-7.4.9s-2.794,1.2-2.618,2.677c.082.692,1.768.759,1.768.759s1.733,1.843,2.764,1.966l1.031.123a30.43,30.43,0,0,1,5.634-.363c2.914.11,1.752.612,2.615-.692s3.918-6.991,5.975-7.832,5.893-2.2,6.4-4.045.929-3.995.221-4.978-2.105-9.344-2.105-9.344l-.078-8.556-6.029-8.825Z"/><path class="cls-2" d="M89.256,122.221a1.055,1.055,0,0,1-.952-.762,3.45,3.45,0,0,1-.147-1.005,4.265,4.265,0,0,1,.406-1.883,4.084,4.084,0,0,0-.085,1.852,3.09,3.09,0,0,0,.269.842c.119.234.348.352.475.312Z"/><path class="cls-2" d="M84.4,120.826a4.26,4.26,0,0,1,.235-2.1,1.881,1.881,0,0,1,.72-.787,4.822,4.822,0,0,1,.932-.42,2.434,2.434,0,0,0-1.353,1.326,3.841,3.841,0,0,0,.105,1.891Z"/><path class="cls-1" d="M61.665,54.948a130.4,130.4,0,0,0,17.775,1.77c7.354-.011,12.048-1.477,15.73-1.819s11.144-1.918,16.941,1.3,7.77,10.382,8.451,13.074,3.57,19.534,4.721,21.984.939,4.866,3.5,5.871,4.112-.858,4.663,1.968-.377,14.753-.377,14.753.641,5.323-.541,6.029-.46.243-1.6.485c-.835.177-3.048.8-3.711.616s-.875-1.242-.875-1.242a6.713,6.713,0,0,1-2.752,1.046c-.456.081-1.255-1.036-1.255-1.036s-2.45-.406-2.222-1.464,2.016-3.552,3.662-3.88,2.907-.711,2.907-.711-.7-8.329-.79-9.891-9.515-5.425-11.007-7.409-10.15-8.135-11.776-10.109a47.664,47.664,0,0,1-3.91-6.521,56.659,56.659,0,0,1-5.778,2.673c-3.093,1.207-12.032,8.244-15.614,8.461s-12.643,1.077-17.271.466c-.725-.1-5.469-1.279-5.469-1.279s-2.157,10.791-1.911,13.387a26.439,26.439,0,0,0,2.5,8.423,3.831,3.831,0,0,1-.883,4.622c-1,.907-2,7.414-2,7.414s-2.243,1.427-3.054,1.374-3.529-.461-3.529-.461-.361.5-2.3.324c-3.118-.274-2.447-1.276-2.447-1.276a2.672,2.672,0,0,1-2.017,0c-1.241-.416-1.333-1.8-.282-3.018a12.016,12.016,0,0,1,5.229-3.326c1.421-.293,2.2-.174,1.989-2.237s-3.124-26.77-3.124-26.77Z"/><path class="cls-2" d="M43.337,117.717a.81.81,0,0,1,.453-.43,1.421,1.421,0,0,1,.487-.091,7.119,7.119,0,0,1,.829.057,5.362,5.362,0,0,1,1.6.388,2.526,2.526,0,0,1,.691.445c.207.174.429.333.619.516l1.177,1.068-1.279-.944c-.21-.164-.435-.291-.65-.437a2.281,2.281,0,0,0-.675-.348,4.939,4.939,0,0,0-1.509-.2,7.084,7.084,0,0,0-.757.022c-.234.026-.39.128-.382.193Z"/><path class="cls-2" d="M41.16,123.747a6.357,6.357,0,0,1,2.393-2.333,6.03,6.03,0,0,0-1.812,2.614Z"/><path class="cls-2" d="M46.661,124.811a.367.367,0,0,1-.054.234.345.345,0,0,1-.264.16.4.4,0,0,1-.224-.05.468.468,0,0,1-.219-.247l-.058-.247a3.269,3.269,0,0,1,.05-1.43,3.134,3.134,0,0,1,.93-1.555,2.972,2.972,0,0,0-.612,1.609,2.9,2.9,0,0,0,.058.834,2.845,2.845,0,0,0,.117.391l.078.178a.169.169,0,0,0-.064-.092.175.175,0,0,0-.117-.023.292.292,0,0,0-.218.134.284.284,0,0,0-.044.18Z"/><path class="cls-2" d="M126.1,120.19a6.055,6.055,0,0,1,.069-2.183,5.185,5.185,0,0,1,.329-1.027c.148-.316.42-.662.8-.656a.9.9,0,0,0-.645.715,5.008,5.008,0,0,0-.16,1.013,5.581,5.581,0,0,0,.241,1.995Z"/><path class="cls-2" d="M123.108,120.64a.416.416,0,0,1-.311.016.444.444,0,0,1-.184-.126.649.649,0,0,1-.129-.234c-.035-.135-.042-.2-.065-.3l-.113-.558a1.807,1.807,0,0,1-.044-.642,1.632,1.632,0,0,1,.24-.588,3.378,3.378,0,0,1,1.663-1.548,3.218,3.218,0,0,0-1.376,1.7,1.052,1.052,0,0,0-.017.954l.191.535.09.246c.006.011.022.025.014.01.019-.01-.134-.1-.242-.041Z"/><path class="cls-2" d="M126.582,113.3a9.612,9.612,0,0,1,1.543.116,3.063,3.063,0,0,1,1.412.595,4.481,4.481,0,0,0-2.9-.068Z"/><path class="cls-2" d="M99.3,80.64a5.6,5.6,0,0,0-.638-1.569c-.263-.548-.511-1.106-.72-1.679a9.323,9.323,0,0,1-.647-3.564,9.179,9.179,0,0,0,.944,3.44c.253.539.544,1.061.849,1.575a5.859,5.859,0,0,1,.85,1.7Z"/><path class="cls-3" d="M51.5,28.507s-2.95-3.3-4.641-4.224-6.248-1.515-6.248-1.515l2.3,2.28s-.818-.166-4.353-.587a22.084,22.084,0,0,0-7.385.659l4.883.159A72.4,72.4,0,0,0,28.4,27.411c-1.848.806-3.344,2.343-5.428,3.1s3.285-.36,3.285-.36-4.971,1.3-6.191,4.2-2.97,6.029-3.046,6.628,2.5-2.211,2.5-2.211-2.174,4.273-3.174,6.383a33.925,33.925,0,0,1-2.357,4.086l5.46-4.762s-3.94,6.939-4.245,7.595-.684,1.7-.684,1.7l2.427-3.147s-2.292,6.292-1.374,10.389a44.356,44.356,0,0,0,2.436,7.49s-.737-5.028-.111-6.275,1.567-2.785,1.567-2.785S18.2,65.639,19.192,69s2.162,7.719,2.162,7.719-.637-1.6.684-5.558A45.852,45.852,0,0,0,23.744,64.9s-.549,8.636,1.787,11.77,6.193,5,6.143,5.368-2.636-3.9-2.289-5.419a14.214,14.214,0,0,0,.339-2.882A52.354,52.354,0,0,0,34.3,82.056c2.287,3.074,2.546,6.764,2.8,7.065s1.485-6.521,1.079-8.02-.745-3.89-.745-3.89S40.2,86.042,39.91,88.836a65.966,65.966,0,0,1-1.218,6.738s2.819-5.971,2.661-7.236-.105-5.712-.105-5.712.828,7.411,2.131,9.535S46.533,97.4,46.533,97.4a43.011,43.011,0,0,1-.5-5.537,26.826,26.826,0,0,1,.97-4.095s1.407,5.485,1.487,6.61,1.985-5.4,2.246-6.534-.377,5.418-.627,6.349,2.636-3.5,3.882-5.82a33.33,33.33,0,0,0,2.163-5.535l-.424,5.708a22.377,22.377,0,0,0,4.391-5.378,23.714,23.714,0,0,0,2-6.307,30.766,30.766,0,0,1-.578,5.75c-.455,1.289,2.427-.9,2.579-3.029a50.8,50.8,0,0,0-.15-5.818s1.136,3.538.984,4.3a22.255,22.255,0,0,0,1.517-6.3c.379-3.489-1.441-8.037-1.441-8.037a9.392,9.392,0,0,1,1.847,2.728c.276,1.062,1.054-5.613,0-8a54.642,54.642,0,0,0-2.986-5.495s3.322,2.779,3.937,4.385.387-1.044.387-2.752-2.489-7.549-2.489-7.549l2.53,3.165s-1.9-8.654-3.627-9.607a19.473,19.473,0,0,1-3.929-3.5s3.126-.3,3.8.422a2.964,2.964,0,0,0,1.284.879,9.194,9.194,0,0,0-1.668-3.156c-1.29-1.622-5.919-5.241-6.75-4.728S51.5,28.507,51.5,28.507Z"/><path class="cls-4" d="M41.6,31.059s-1.5-2.823-3.444-3.29-3.334-.724-3.334-.724l5.041,5.717a31.672,31.672,0,0,1-5.561-.269,7.249,7.249,0,0,0-3.124.091l1.848.844s-6.432,4.236-6.952,7.443a45.955,45.955,0,0,0-.555,6.015,20.82,20.82,0,0,0,2.469-3.253c.241-.753-1.549,7.027-1.688,7.958s-.56,4.932-.56,4.932,1.141-4.327,1.908-4.5.2,6.133.307,7.905.587,4.418.587,4.418,1.126-2.625,1.469-3.408a15.786,15.786,0,0,1,1.167-1.973s.889,7.339.911,7.881.265,2.029.265,2.029l.952-3.64.664-1.682A35.487,35.487,0,0,0,36,67.59a16.6,16.6,0,0,1,1.289,3.6c.137.414.248-1.714.825-3.394a7.763,7.763,0,0,0,.475-2.887s1.286,3.348,1.48,4.376.987,3.3.546,4.139.768-2.289,1.093-3.337.657-2.2.657-2.2-.111,3.709-.191,5.033-.292,4.3-.292,4.3a26.647,26.647,0,0,0,1.448-3.732c.461-1.682,1.261-4.141,1.261-4.141s-1.8,6.44-.8,7.859a22.917,22.917,0,0,1,1.857,3.325,23.059,23.059,0,0,1,.594-3.969c.353-.823,1.288-3.747,1.288-3.747l-.093,4.818s1.357-3.855,1.49-4.413.873-3.987.873-3.987l.088,4.091s2.749-5.967,2.952-6.422,1.423-3.014,1.938-4.55a13.679,13.679,0,0,0,.34-4.126,18.458,18.458,0,0,1,.683,4.353,3.163,3.163,0,0,0,0,1.517s1.717-3.475,2.1-4.505a23.76,23.76,0,0,0,1.062-5.806,10.5,10.5,0,0,0-1.247-3.946s2.136,3.382,2.081,4.368l-.055.985a23.44,23.44,0,0,0,.51-5.174c0-3.137-.076-4.806-.91-6.019s-2.149-3.331-2.149-3.331l2.225,1.484A10.03,10.03,0,0,1,57.369,39a31.66,31.66,0,0,0-2.588-4.323l-5.124-4.168a8.586,8.586,0,0,1,.61-4.179,10.6,10.6,0,0,0,1.023-2.346s-3.435,3.33-3.606,3.684-1.026,2.841-1.026,2.841l-.623-2.878-.354-2.965s-.6,3.558-.595,4.359a19.517,19.517,0,0,0,.192,2.035l-1.212-1.768-1.35-2.351.7,3.261-3.554-4.853Z"/><path class="cls-1" d="M41.89,35.519s-5.558-.36-7.01,1.379a11.453,11.453,0,0,0-2.964,9.756,14.053,14.053,0,0,0,5.532,9.688c1.947,1.237,11.965.952,13.084-.273A17.869,17.869,0,0,0,53,51.644c.13-.405-.242-11.36-.746-12.9s-1.168-4.365-4.411-4.342S43.082,35.325,41.89,35.519Z"/><path class="cls-1" d="M48.233,32.991s2.914-5.243,4.61-5.027,4.369,1.106,3.695,3.057-3.273,4.658-3.928,5.348a3.861,3.861,0,0,1-2.246.716s-.734-2.133-1.629-2.408A5.276,5.276,0,0,0,47.2,34.42Z"/><path class="cls-1" d="M33.807,35.236s-3.429-4.277-4.267-4.447-4.815-1.513-5.652,1.726,2.338,5.517,2.766,5.877a8.4,8.4,0,0,1,1.115,1.565,42.827,42.827,0,0,1,3.839-3.423C32.313,36.18,33.807,35.236,33.807,35.236Z"/><path class="cls-5" d="M40.819,59.6s1.035,4.282,4.862,4.078,4.863-4.852,4.863-4.852l-2.7-3.065Z"/><path class="cls-6" d="M38.784,44.623A10.779,10.779,0,0,0,36.3,43.444c-.915-.189-1.268.5-1.416,1.513S37.685,48,38.415,47.2,39.321,45.159,38.784,44.623Z"/><path class="cls-2" d="M25.826,33.841a2.573,2.573,0,0,1,.6-2.332,1.09,1.09,0,0,1,.722-.268,2.505,2.505,0,0,1,.649.131,3.866,3.866,0,0,1,1.136.506,1.937,1.937,0,0,1,.473.5,3.323,3.323,0,0,1,.276.563,8.666,8.666,0,0,1,.35,1.135,6.965,6.965,0,0,1,.223,2.328,10.187,10.187,0,0,0-.616-2.209,10.823,10.823,0,0,0-.439-1.039,3.928,3.928,0,0,0-.264-.461,1.16,1.16,0,0,0-.35-.3,4.459,4.459,0,0,0-.982-.409c-.38-.125-.609-.189-.829-.03a2.247,2.247,0,0,0-.6.815A4.044,4.044,0,0,0,25.826,33.841Z"/><path class="cls-2" d="M54.79,31.221c-.071-.348-.1-.7-.156-1.044l.1.138a6.6,6.6,0,0,0-1.86-.269,1.657,1.657,0,0,0-1.384.763,12.622,12.622,0,0,0-.563,1.8,6.682,6.682,0,0,1-.909,1.79,17.659,17.659,0,0,0,.455-1.906,6.886,6.886,0,0,1,.464-1.993,2.083,2.083,0,0,1,1.921-1.038,4.684,4.684,0,0,1,1.973.571l.111.052-.012.087C54.883,30.523,54.855,30.872,54.79,31.221Z"/><path class="cls-3" d="M138.57,94.24a3.62,3.62,0,0,1,2.259-2.948A39.9,39.9,0,0,1,146,90.068L144.039,91.6s2.645-.933,4.5-1.652a18.68,18.68,0,0,0,3.048-1.488s-1.952,2.376-2.341,2.748,3.384-1.079,3.883-2.165,1.1-2.468,1.1-2.468,1.4,2.844.474,4.741-2.586,4.511-3.041,4.663,2.567-.91,2.567-.91a47.907,47.907,0,0,1-3.728,3.317c-.843.524-2.879,1.24-7.1.55S136.855,98.642,138.57,94.24Z"/><path class="cls-5" d="M41.41,49.389s-4.879,4.633-4.42,5.793.392,3.937,1.55,4.646,4.878.436,5.9-.336,2.4-2.371,2.169-3.735S41.41,49.389,41.41,49.389Z"/><path class="cls-5" d="M47.406,49.33l-1.371,6.427s.84,3.788,3.088,3.839,4.667-1.376,4.758-2.529a6.819,6.819,0,0,0-2.487-5.807C50.741,50.638,49.273,48.892,47.406,49.33Z"/><path class="cls-7" d="M40.613,43.633s.689,3.48.8,5.225a41.886,41.886,0,0,0,.818,4.875s5.244-.149,6.135-.616.492-2.835-.209-4.041a42.01,42.01,0,0,1-2.8-6.919"/><path class="cls-2" d="M40.613,43.633a40.193,40.193,0,0,1,.982,5.039,23.172,23.172,0,0,0,.39,2.506c.167.831.333,1.667.526,2.49l-.291-.225c1.489-.06,2.986-.158,4.458-.312.368-.037.732-.086,1.084-.152a2.857,2.857,0,0,0,.459-.131.6.6,0,0,0,.227-.27,3.636,3.636,0,0,0-.02-2.025,9.046,9.046,0,0,0-.827-2.021c-.313-.69-.6-1.385-.875-2.084s-.533-1.405-.772-2.118a13.214,13.214,0,0,1-.6-2.173,38.33,38.33,0,0,0,1.706,4.148c.31.68.629,1.357.968,2.016l.544.992a6.121,6.121,0,0,1,.4,1.1A4.1,4.1,0,0,1,49,52.82a1.187,1.187,0,0,1-.493.567,3.1,3.1,0,0,1-.613.2c-.384.078-.762.135-1.139.18-1.509.171-3.008.215-4.514.26l-.242.007-.049-.233A31.475,31.475,0,0,1,41.2,48.7C41.082,47.02,40.841,45.323,40.613,43.633Z"/><path class="cls-8" d="M47.841,51.087a1.714,1.714,0,0,1,.522,2.03,23.333,23.333,0,0,1-1.756,3.261,19.188,19.188,0,0,1-2.206-.992c-.7-.418-2.075-.188-2.389-1.715-.377-1.832,1.428-1.766,2.427-1.666C46,52.162,46.579,50.51,47.841,51.087Z"/><path class="cls-6" d="M48.186,42.3a9.2,9.2,0,0,1,2.364-1.173c.915-.189.97.586,1.119,1.595s-2.8,3.038-3.536,2.242A2.091,2.091,0,0,1,48.186,42.3Z"/><ellipse class="cls-2" cx="40.819" cy="56.916" rx="0.217" ry="0.322"/><ellipse class="cls-2" cx="42.012" cy="56.378" rx="0.217" ry="0.322"/><ellipse class="cls-2" cx="41.577" cy="58.148" rx="0.217" ry="0.322"/><ellipse class="cls-2" cx="43.139" cy="56.916" rx="0.217" ry="0.322"/><ellipse class="cls-2" cx="42.216" cy="57.238" rx="0.217" ry="0.322"/><ellipse class="cls-2" cx="48.403" cy="56.246" rx="0.217" ry="0.322"/><ellipse class="cls-2" cx="49.596" cy="55.708" rx="0.217" ry="0.322"/><ellipse class="cls-2" cx="49.161" cy="57.478" rx="0.217" ry="0.322"/><ellipse class="cls-2" cx="50.723" cy="55.386" rx="0.217" ry="0.322"/><ellipse class="cls-2" cx="49.8" cy="56.568" rx="0.217" ry="0.322"/><ellipse class="cls-2" cx="50.288" cy="43.317" rx="1.127" ry="1.161"/><ellipse class="cls-2" cx="37.969" cy="45.771" rx="1.127" ry="1.161"/></svg>