<svg id="word" xmlns="http://www.w3.org/2000/svg" viewBox="0 0 160 160"><defs><style>.cls-1,.cls-7{fill:#7fad51;}.cls-1,.cls-6{stroke:#9c4c9c;stroke-width:0.75px;}.cls-1,.cls-10,.cls-6,.cls-9{stroke-miterlimit:10;}.cls-2{fill:#586e31;}.cls-3{fill:#5c7333;}.cls-10,.cls-4,.cls-6{fill:#d49f71;}.cls-5{fill:#a8b156;}.cls-8{fill:#9c4c9c;}.cls-9{fill:#8da93d;}.cls-10,.cls-9{stroke:#9c519e;stroke-width:0.25px;}.cls-11{fill:#9c519e;}</style></defs><path class="cls-1" d="M36.245,46.435s-3.026-.158-3.043,1.526A2.625,2.625,0,0,0,34.724,50.3s-8.247,4.661-7.752,6.983,3.539,3.935,3.539,3.935l3.581-1.346s-1.952,4.5.1,5.638,2.622-.483,2.622-.483-1.861,3.283.141,3.259,3.066.329,2.265.792a2.833,2.833,0,0,0-1.111,1.158s-4.261,7.089-3.185,9.081S38.71,82.3,39.492,81.71s-4.085,4.841-2.167,6.864a2.023,2.023,0,0,0,3.357-.027s-3.776,11.109-1.205,10.989,5.89-4.365,5.89-4.365-2.636,5.889-.5,6.288,4.146-3.7,4.146-3.7.533,4.17,1.683,4.656,2.584-1.163,2.584-1.163,2.807,1.492,3.471.839,3.445.724,4.145,1.3,3.642,6.275,6.689,7.047,6.773,4.395,7.594,0,1.258-10.158,1.258-10.158,1.278,4.148,4.207,2.8l2.929-1.348s2,3.3,3.494,2.479-1.141,5.461-1.141,5.461-2.83,5.467.594,5.239,6.172-5.623,6.172-5.623-3.792,5.44,2.549,4.265S101,107.869,101,107.869s4.62-.055,5.655-.957.9-1.406.9-1.406,4.681-3.81,4.22-4.974-1.337-2.791-1.337-2.791a3.8,3.8,0,0,0,4.048-2.669,2.5,2.5,0,0,0-.018-1.325,2.937,2.937,0,0,0,3.48-.216c2.051-1.364,1.943-2.216,1.943-2.216s2.09,1.7,2.844.948,1.388-4.568,1.388-4.568l4.1-5.368-.787-2.815s3.39-4.41,2.927-5.1a11.006,11.006,0,0,0-2.492-1.835s4.159-4.807,1.374-6.156-6.6.7-6.6.7,4.851-7.316,3.125-8.527a16.324,16.324,0,0,1-2.513-2.077s4.245-4.284,3.415-4.412a3.986,3.986,0,0,1-1.7-.949s2.114-2.472,2.115-4.014-2.433-2.151-2.433-2.151,5.19-4.988,2.093-6.109a14.272,14.272,0,0,0-3.77-1.087s2.122-3.869-.109-4.325a17.181,17.181,0,0,0-5.121,0s.316-4.072-1.877-3.976-5.815,2.818-5.815,2.818l-.922.331-.753-1.884-1.191.152s.789-2.128.061-2.509-3.479,1.51-3.479,1.51.555-5.057-.594-4.976a9.973,9.973,0,0,1-2.513-.237s-.116-3.471-1.25-4.051-2.736,1.577-2.736,1.577a2.714,2.714,0,0,0-2.959-2.413,4.305,4.305,0,0,0-3.5,2.151s.67-1.772-3.138-2.292-7.085,5.414-7.085,5.414.5-1.016-.82-1.243a6.172,6.172,0,0,0-2.694.255s.962-1.741-1.425-2.249a2.49,2.49,0,0,0-2.993,1.807s-.279-3.29-1.884-2.257S68,26.264,68,26.264s-.022-3.3-2.279-3.432-4.84,3.8-4.84,3.8-1.79-4.38-4.509-3.8-4.747,8.236-4.747,8.236-.114-2.142-1.365-.866a8.6,8.6,0,0,0-1.8,3.179S46.692,29.768,45.624,31a17.76,17.76,0,0,0-1.958,2.942s-.608-2.529-2.4-1.633-3.045,3.555-3.045,3.555-2.5-.065-3.438,1.381-3.558,3.876-2.207,6.124A7.753,7.753,0,0,0,36.245,46.435Z"/><path class="cls-2" d="M87.488,51.046s-.182.221-.267.318a6.125,6.125,0,0,0,.741-.44.413.413,0,0,1-.213.56c-.392.2.4-.208.461-.095s-.178.741-.17.857a1.284,1.284,0,0,0,.1.32s-.094-.254.209-.64a1.873,1.873,0,0,1,.542-.505,1.311,1.311,0,0,0,.066.465.385.385,0,0,0,.23.14s-.083-.085.095-.37a4.068,4.068,0,0,0,.484-1.062c0-.169.054-.629.054-.629a5.845,5.845,0,0,1-1.38.627A2.6,2.6,0,0,0,87.488,51.046Z"/><path class="cls-3" d="M86.459,46.792s-.439.5-.673.723a3,3,0,0,1-.524.386l.27-.057-.307.528s.578-.338.521-.217a1.957,1.957,0,0,1-.252.59c-.146.153.633-.3.633-.3l1.04-1.776Z"/><path class="cls-4" d="M88.681,46.786a5.288,5.288,0,0,0-1.8.095,2.862,2.862,0,0,0-.96,1.588,15.976,15.976,0,0,0,.047,1.691c.012.194-.006.338.361.6a2.781,2.781,0,0,0,2.084.3c.807-.222,1.917-1.235,1.951-1.771S90.988,47.1,88.681,46.786Z"/><path class="cls-3" d="M89.68,46.954a.9.9,0,0,0-.457-.465,3.854,3.854,0,0,0-1.411-.126,3.083,3.083,0,0,1-.891.111,8.713,8.713,0,0,1-.954-.092s.707.1.5.28a1.141,1.141,0,0,0-.29.37s.9-.411.652-.173-.128.256-.128.256.5-.216.528-.1-.13.229-.13.229a1.491,1.491,0,0,1,.715-.229c.288.033.814.141.814.141s-.067.173-.4.117a1.262,1.262,0,0,1-.45-.139l.116.188-.668.136s.943-.115.911.017a.413.413,0,0,1-.382.364,3.336,3.336,0,0,1-.66.044s.622-.029.478.163a2.367,2.367,0,0,1-.484.411s.77-.169.922-.037.037.415-.019.575a.73.73,0,0,0,.023.389s-.125-.565.331-.556.865.333,1.228.322a2.421,2.421,0,0,0,.644-.109,1.377,1.377,0,0,1-.313.659c-.211.157-.608.5-.608.5l.321-.074-.152.518.15-.114s.125.356-.084.552-.405.418-.405.418l.676-.449a1.987,1.987,0,0,0,0,.664c.072.126.046-.537.208-.873a11.127,11.127,0,0,0,.6-1.226,2.679,2.679,0,0,0-.04-1.586c-.171-.248-.118-.005-.118-.005a.857.857,0,0,1,.031-.354,1,1,0,0,0,.226-.587,1.373,1.373,0,0,0-.1-.606c-.069-.086-.323-.2-.328-.069s.16.3.188.56a1.01,1.01,0,0,1-.15.545,2.677,2.677,0,0,0-.37-.327A1.6,1.6,0,0,1,89.68,46.954Z"/><path class="cls-3" d="M76.8,52.631a5.678,5.678,0,0,1,.985-.135.89.89,0,0,0,.426-.094l-.2.214a.652.652,0,0,0,.348.023c.139-.049-.363.21-.363.21s.286.078.4.125-.162.008-.25-.011a1.013,1.013,0,0,0-.3.033,2.841,2.841,0,0,1,.593.307c.09.1-.128-.022-.379-.033s-1.524.183-1.524.183-.064-.408.068-.536A1.024,1.024,0,0,0,76.8,52.631Z"/><path class="cls-3" d="M78.027,55.609a.727.727,0,0,0,.439-.01.67.67,0,0,1,.588-.09c.193.1.017-.162-.125-.159s-.348-.01-.348-.01a1.748,1.748,0,0,1,.277-.183,3.119,3.119,0,0,0,.464-.373l-.548.276.364-.419-.571.235Z"/><path class="cls-4" d="M76.415,53.23a3.455,3.455,0,0,1,1.042-.222,2.214,2.214,0,0,1,1.162.6,1.236,1.236,0,0,1,.291.574,2.139,2.139,0,0,1-.523,1.158c-.346.341-.87.729-1.137.659s-1.077-.126-1.267-.752.4-1.661.4-1.732A2.643,2.643,0,0,1,76.415,53.23Z"/><path class="cls-3" d="M76.217,54.455s.267-.223.378-.346.15-.12.322-.088a2.235,2.235,0,0,0,.354.03l-.133-.139a1.792,1.792,0,0,0,.409-.214c.263-.171-.286.1-.251-.108a.417.417,0,0,1,.252-.3s-.237.062-.207-.1a3.754,3.754,0,0,1,.19-.521s-.354.458-.505.506-.449.126-.449.126l.436-.224-.231-.029a1.875,1.875,0,0,1,.261-.23c.15-.107-.249.061-.162-.089a1.645,1.645,0,0,1,.4-.351s-.428.3-.368.092.16-.458.16-.458-.714.909-.769.958a2.35,2.35,0,0,0-.452.484c-.208.292-.4.6-.338.7a.788.788,0,0,1,.062.324l-.112.224a.261.261,0,0,0,.005.31c.084.1.417.145.418.218a.946.946,0,0,0,.21.535.571.571,0,0,0,.387.111s-.06.015.206.21.259.271.627.094.519-.433.629-.334l.11.1a.2.2,0,0,0-.014-.184c-.059-.068-.218-.014-.357.035a1.993,1.993,0,0,1-.711.1,1.939,1.939,0,0,1-.14-.146,2.431,2.431,0,0,1,.5-.076,3.39,3.39,0,0,0,.465-.008s-.253.015-.327-.14.173-.359.254-.308a1.428,1.428,0,0,0,.381.1c.038,0-.067-.063-.174-.2s.2-.051.293-.124-.3-.137-.4-.2a2.271,2.271,0,0,0-.425-.127,1.494,1.494,0,0,0,.2-.24,1.152,1.152,0,0,0,.047-.407s.007.078-.195.305-.522.35-.618.252S76.347,54.34,76.217,54.455Z"/><path class="cls-2" d="M75.227,58.122s-.007.2-.013.293a4.344,4.344,0,0,0,.225-.565.291.291,0,0,1,.122.405c-.135.278.136-.29.217-.251s.219.49.273.552a.874.874,0,0,0,.192.137s-.162-.1-.158-.447a1.325,1.325,0,0,1,.086-.516s.148.2.237.232a.276.276,0,0,0,.189-.02s-.083-.012-.106-.248a2.886,2.886,0,0,0-.186-.8c-.071-.1-.24-.375-.24-.375a4.125,4.125,0,0,1-.5.944A1.828,1.828,0,0,0,75.227,58.122Z"/><path class="cls-3" d="M72.824,56.185s-.031.467-.066.694a2.125,2.125,0,0,1-.127.441l.127-.148.055.427s.178-.437.2-.345a1.372,1.372,0,0,1,.112.438c-.015.149.224-.441.224-.441l-.181-1.44Z"/><path class="cls-4" d="M74.064,55.227s-.836.53-.966.827a2.016,2.016,0,0,0,.146,1.3A11.271,11.271,0,0,0,74,58.28c.09.1.142.192.459.181a1.965,1.965,0,0,0,1.3-.727,2.252,2.252,0,0,0,.33-1.828C75.869,55.591,75.489,54.412,74.064,55.227Z"/><path class="cls-5" d="M74.695,54.892a.637.637,0,0,0-.455-.063,2.709,2.709,0,0,0-.844.535,2.144,2.144,0,0,1-.45.445,6.117,6.117,0,0,1-.573.359s.436-.251.4-.058a.808.808,0,0,0,0,.332s.326-.616.29-.377.039.2.039.2.184-.333.251-.283.027.184.027.184a1.044,1.044,0,0,1,.3-.435c.176-.106.516-.271.516-.271s.037.126-.171.236a.883.883,0,0,1-.312.115l.146.055-.315.364s.477-.47.516-.382a.289.289,0,0,1-.057.367,2.311,2.311,0,0,1-.35.308s.336-.283.337-.113a1.638,1.638,0,0,1-.094.437s.359-.425.5-.417.2.217.236.33a.518.518,0,0,0,.18.208s-.312-.263-.053-.454.626-.185.825-.347a1.719,1.719,0,0,0,.313-.337.965.965,0,0,1,.108.5c-.051.179-.126.54-.126.54l.147-.18.138.355.035-.128s.222.146.19.345-.047.408-.047.408l.185-.542s.191.333.285.371-.2-.319-.258-.577a7.772,7.772,0,0,0-.189-.945,1.9,1.9,0,0,0-.7-.87c-.2-.065-.068.048-.068.048a.591.591,0,0,1-.135-.211.7.7,0,0,0-.126-.426c-.138-.159-.24-.277-.316-.3s-.267.027-.214.1.219.1.346.232a.71.71,0,0,1,.15.37,1.818,1.818,0,0,0-.347-.024A1.1,1.1,0,0,1,74.695,54.892Z"/><path class="cls-2" d="M75.636,52.627s.271.084.392.125a6.054,6.054,0,0,0-.683-.511.409.409,0,0,1,.593-.017c.328.284-.343-.29-.262-.386s.745-.118.849-.169a1.235,1.235,0,0,0,.256-.209s-.2.182-.664.05a1.849,1.849,0,0,1-.667-.3,1.291,1.291,0,0,0,.4-.237.382.382,0,0,0,.042-.263s-.047.108-.375.053a4.017,4.017,0,0,0-1.154-.041c-.156.061-.6.188-.6.188a5.789,5.789,0,0,1,1.095,1.025A2.57,2.57,0,0,0,75.636,52.627Z"/><path class="cls-3" d="M72.134,55.178s.621.212.915.341a2.9,2.9,0,0,1,.551.334l-.154-.226.6.081s-.528-.4-.4-.394a1.917,1.917,0,0,1,.635.008c.2.075-.516-.465-.516-.465l-2.018-.28Z"/><path class="cls-4" d="M71.288,53.146a5.216,5.216,0,0,0,.768,1.612,2.827,2.827,0,0,0,1.816.278,15.944,15.944,0,0,0,1.528-.682c.173-.084.312-.122.413-.557a2.759,2.759,0,0,0-.511-2.021,3.16,3.16,0,0,0-2.358-1.114C72.441,50.834,70.7,50.918,71.288,53.146Z"/><path class="cls-3" d="M71.065,52.17a.891.891,0,0,0-.253.593A3.818,3.818,0,0,0,71.23,54.1a3.047,3.047,0,0,1,.439.772,8.622,8.622,0,0,1,.276.908s-.18-.683.068-.561a1.123,1.123,0,0,0,.448.126s-.716-.666-.405-.531.283.02.283.02-.385-.371-.292-.444.259.031.259.031a1.469,1.469,0,0,1-.48-.566c-.079-.276-.179-.8-.179-.8s.184,0,.257.318a1.231,1.231,0,0,1,.043.464l.128-.177.377.56s-.462-.818-.329-.839a.406.406,0,0,1,.477.211,3.21,3.21,0,0,1,.29.587s-.261-.558-.031-.5a2.337,2.337,0,0,1,.558.286s-.445-.64-.382-.828.366-.191.533-.2a.714.714,0,0,0,.348-.167s-.47.327-.634-.093-.023-.917-.17-1.245a2.39,2.39,0,0,0-.343-.548,1.364,1.364,0,0,1,.721.037c.224.134.685.369.685.369l-.19-.266.532-.057-.161-.094s.279-.249.537-.132.535.212.535.212l-.666-.448a1.969,1.969,0,0,0,.607-.251c.088-.113-.508.161-.877.14a10.914,10.914,0,0,0-1.35-.09,2.654,2.654,0,0,0-1.435.637c-.163.25.04.11.04.11a.838.838,0,0,1-.336.105.979.979,0,0,0-.622.015,1.355,1.355,0,0,0-.516.322c-.053.1-.061.371.06.326s.216-.26.442-.384a1,1,0,0,1,.555-.069,2.648,2.648,0,0,0-.16.463A1.6,1.6,0,0,1,71.065,52.17Z"/><path class="cls-6" d="M51.479,87.866s1.308,5.968,3.388,8.7,3.739,7.895,6.684,10.412,4.6,4.4,6.678,6.378a13.515,13.515,0,0,0,4.4,2.765l2.445,8.746s3.493,1.091,4.066.436.142-5.921.142-5.921-.339-8.562-1.028-13.4.2-18.435.2-18.435l.451-6.6-1.483-1.905s-.343,4.686-.4,6.364-.812,18.976-.931,19.661.265,4.412-1.777,3.148-4.624-7.779-5.067-9.483-2.017-17.565-2.017-17.565l-3.162-.133s.538,9.7,1.077,12.915a122.92,122.92,0,0,0,3.661,12.674,44.217,44.217,0,0,0,2.811,5.218s-6.71-8.283-8.652-9.817S58.8,95.9,58.5,93.562s-3.262-9.84-3.262-9.84L50,85.017Z"/><path class="cls-6" d="M88.631,89.929s-2.047,13.349-3.188,17.673-3.476,13.385-3.428,14.566.182,2.472.182,2.472a8.083,8.083,0,0,0,4,.868c2.434-.057,3.218-1.541,2.46-2.053s.362-2.586,1.39-4.673,5.46-11.017,6.727-13.6,3.749-9.057,3.749-9.057l-1.911-2.12s-2.346,5.86-2.952,7.128-6.051,11.36-6.326,11.8-2.821,1.675-2.7.114,3.1-14.553,3.1-14.553l1.632-7.715Z"/><path class="cls-7" d="M76.6,74.748s-.1,5.915,2.314,6.193,2.595-1.71,2.595-1.71.237,4.036,2.024,3.363,2.461-2.207,2.34-2.549,1.33,2.486,3.139,1.245a1.964,1.964,0,0,0,.586-2.885"/><path class="cls-8" d="M76.6,74.748a20.138,20.138,0,0,0,.343,2.6,8.1,8.1,0,0,0,.827,2.411,2.478,2.478,0,0,0,.371.464,1.586,1.586,0,0,0,.448.32c.082.032.172.039.255.063a.9.9,0,0,0,.115.027l.165,0a3.33,3.33,0,0,0,.6-.021,1.7,1.7,0,0,0,.981-.466,1.653,1.653,0,0,0,.308-.445,1.8,1.8,0,0,0,.152-.511l.7.011a8.993,8.993,0,0,0,.333,1.8,4.149,4.149,0,0,0,.331.8c.134.231.3.435.477.477a.974.974,0,0,0,.677-.127,4.026,4.026,0,0,0,.75-.437A3.292,3.292,0,0,0,85.5,80.394a.791.791,0,0,0,.065-.278l0-.014-.008-.05c-.073-.058.153-.4.319-.345.131.015.1.024.121.028l.038.021c.126.1.072.072.1.1l.042.059.066.1.132.188a4.3,4.3,0,0,0,.593.672,1.564,1.564,0,0,0,1.53.457,2.4,2.4,0,0,0,.76-.447,1.882,1.882,0,0,0,.532-.694,2.041,2.041,0,0,0-.192-1.78A2.048,2.048,0,0,1,90,80.262a2.158,2.158,0,0,1-.536.869,2.376,2.376,0,0,1-.838.58,1.715,1.715,0,0,1-1.074.054,2.611,2.611,0,0,1-.931-.489,4.774,4.774,0,0,1-.72-.715l-.156-.2-.073-.1-.03-.036c.015.009-.05-.038.061.05l.032.016c.018,0-.014.009.117.028.165.061.39-.282.317-.338-.017-.091,0-.023-.008-.043l0,.015a1.119,1.119,0,0,1-.068.655,3.938,3.938,0,0,1-1.267,1.641,4.763,4.763,0,0,1-.89.542,1.676,1.676,0,0,1-1.164.168,1.638,1.638,0,0,1-.9-.785,3.815,3.815,0,0,1-.4-.965,9.7,9.7,0,0,1-.322-1.967l.7.012a2.415,2.415,0,0,1-.231.745,2.324,2.324,0,0,1-.453.624,2.353,2.353,0,0,1-1.367.627,3.34,3.34,0,0,1-.719.006l-.165-.016a1.111,1.111,0,0,1-.2-.049,2.893,2.893,0,0,1-.375-.125,2.144,2.144,0,0,1-.593-.475,3,3,0,0,1-.413-.59A7.375,7.375,0,0,1,76.64,77.4,14.965,14.965,0,0,1,76.6,74.748Z"/><path class="cls-7" d="M46.8,82.34s-.849,4.906,2.017,4.346,2.345.322,2.837-.939,1.739.748,3.1-.125a4.185,4.185,0,0,0,1.722-2.07s1.59.348,2.3-.253a20.568,20.568,0,0,0,1.837-1.987s1.82-1.635,2.752-1,1.158,3.01,3.877.852,2.607.1,3.934-.217,4.775-1.173,4.549-3.166,2.963-2.224,1.772-4.644-5.611-6.393-5.611-6.393,4.887-.367,1.888-2.11-4.727.091-4.727.091"/><path class="cls-8" d="M46.8,82.34a9.686,9.686,0,0,0-.052,1.887,3.677,3.677,0,0,0,.493,1.766,1.3,1.3,0,0,0,.669.538,3.236,3.236,0,0,0,.428.07l.443-.05a10.383,10.383,0,0,1,1.907-.255l.459-.007c.079-.006.063-.012.083-.028a.732.732,0,0,0,.076-.155l.173-.459a2.456,2.456,0,0,1,.114-.219.718.718,0,0,1,.255-.235.8.8,0,0,1,.611-.039,3.534,3.534,0,0,1,.474.171,3.561,3.561,0,0,0,.845.274,1.127,1.127,0,0,0,.762-.143,3.9,3.9,0,0,0,.7-.538,4.129,4.129,0,0,0,.573-.681,3.339,3.339,0,0,0,.39-.766l.078-.239.252.045a4.751,4.751,0,0,0,1.183.068,2.126,2.126,0,0,0,.542-.113,1.04,1.04,0,0,0,.222-.108,1.649,1.649,0,0,0,.206-.171,20.739,20.739,0,0,0,1.667-1.848l.019-.023.016-.013a5.8,5.8,0,0,1,1.82-1.128,1.576,1.576,0,0,1,1.246.035l.079.042a.491.491,0,0,1,.079.058l.1.079a2.77,2.77,0,0,1,.22.224c.123.148.225.288.323.428.384.564.749.985,1.263.873a3.958,3.958,0,0,0,1.591-.874,3.933,3.933,0,0,1,1.982-.958,1.78,1.78,0,0,1,1.161.411,1.22,1.22,0,0,0,.673.345l.165-.02.245-.058.48-.122c.319-.083.632-.179.942-.281a7.376,7.376,0,0,0,1.729-.812,1.718,1.718,0,0,0,.893-1.344l0-.5a1.951,1.951,0,0,1,.144-.617,2.821,2.821,0,0,1,.65-.923,4.7,4.7,0,0,0,1.2-1.414,2.039,2.039,0,0,0-.386-1.648,20.577,20.577,0,0,0-2.424-3.116c-.9-.985-1.845-1.94-2.819-2.852l-.35-.327.476-.041a7.709,7.709,0,0,0,2.306-.474c.157-.086.326-.185.373-.308.084-.113,0-.257-.091-.4a2.268,2.268,0,0,0-.42-.38,4.644,4.644,0,0,0-.5-.32,5.4,5.4,0,0,0-1.092-.489,4.066,4.066,0,0,0-1.173-.206,3.271,3.271,0,0,0-2.229.772,3.286,3.286,0,0,1,2.228-.907,4.2,4.2,0,0,1,1.227.16,5.657,5.657,0,0,1,1.151.456,4.853,4.853,0,0,1,.541.316,2.4,2.4,0,0,1,.5.415,1.131,1.131,0,0,1,.179.315.545.545,0,0,1-.023.4,1.106,1.106,0,0,1-.512.49,7.506,7.506,0,0,1-2.431.586l.126-.368q1.516,1.347,2.923,2.8a20.484,20.484,0,0,1,2.593,3.174,2.643,2.643,0,0,1,.448,2.162,5.024,5.024,0,0,1-1.337,1.669,2.152,2.152,0,0,0-.5.713,1.218,1.218,0,0,0-.09.356l.006.509a2.4,2.4,0,0,1-1.177,1.918,8.05,8.05,0,0,1-1.9.918c-.327.11-.656.214-.986.3l-.5.13-.245.061a3.079,3.079,0,0,1-.334.043,1.873,1.873,0,0,1-1.121-.481,1.044,1.044,0,0,0-.687-.273,2.084,2.084,0,0,0-.788.264,6.521,6.521,0,0,0-.8.535,4.517,4.517,0,0,1-1.93.992,1.522,1.522,0,0,1-1.207-.336,3.909,3.909,0,0,1-.712-.842,2.035,2.035,0,0,0-.561-.63.926.926,0,0,0-.71.007,5.22,5.22,0,0,0-1.592.975l.035-.036A20.612,20.612,0,0,1,59.1,83.425a2.11,2.11,0,0,1-.29.225,1.683,1.683,0,0,1-.352.162,2.764,2.764,0,0,1-.7.129,5.283,5.283,0,0,1-1.346-.113l.33-.194a3.752,3.752,0,0,1-.487.909,4.612,4.612,0,0,1-.665.75,4.354,4.354,0,0,1-.816.592,1.62,1.62,0,0,1-1.068.173,3.914,3.914,0,0,1-.947-.33c-.274-.122-.588-.257-.719-.168-.043.01-.061.051-.1.075a1.833,1.833,0,0,0-.109.2l-.172.425a.924.924,0,0,1-.148.259.463.463,0,0,1-.34.148c-.188.006-.331-.01-.488-.011a9.986,9.986,0,0,0-1.855.169l-.5.033a3.124,3.124,0,0,1-.5-.1,1.517,1.517,0,0,1-.753-.655,3.782,3.782,0,0,1-.44-1.864A9.819,9.819,0,0,1,46.8,82.34Z"/><path class="cls-7" d="M86.714,84.538s-.652,3.8.954,5.315a3.742,3.742,0,0,0,3.767.636s0,4.861,1.538,4.931S97.3,91.044,97.3,91.044s-.252,4.865,1.848,5.353a3.569,3.569,0,0,0,3.725-2.012c.045-.393,2.056,1.286,3.4,1.035s1.843-2.826,1.609-3.106,1.584.971,3.152,0,2.64-3.259,1.236-4.724a4.242,4.242,0,0,0-3.729-.9s2.942-1.807,1.2-2.148a3,3,0,0,0-2.812,1.048"/><path class="cls-8" d="M86.714,84.538a11.782,11.782,0,0,0-.039,2.389,5.4,5.4,0,0,0,.63,2.248,2.4,2.4,0,0,0,.347.451,2.8,2.8,0,0,0,.437.378,3.1,3.1,0,0,0,1.029.449,3.939,3.939,0,0,0,2.235-.164l.289-.108.009.308a16.4,16.4,0,0,0,.317,2.872c.055.231.112.461.187.681a2.942,2.942,0,0,0,.271.619,1.043,1.043,0,0,0,.38.416.851.851,0,0,0,.188.045c.115-.02.265-.023.321-.074a2.543,2.543,0,0,0,.524-.317,5.868,5.868,0,0,0,.524-.457,11.858,11.858,0,0,0,.963-1.058,24.843,24.843,0,0,0,1.69-2.352l.646-1.009-.023,1.206a10.668,10.668,0,0,0,.459,3.678,1.937,1.937,0,0,0,.979,1.24,2.286,2.286,0,0,0,1.617-.063,3.777,3.777,0,0,0,1.417-1.006,3.676,3.676,0,0,0,.269-.34c.035-.056.077-.119.1-.167l.151-.309c.3-.222.387-.1.457-.115a1.21,1.21,0,0,1,.168.053c.095.038.172.075.249.113l.437.227a6.472,6.472,0,0,0,1.687.688,1.887,1.887,0,0,0,.4.036l.153-.013.228-.069a1.527,1.527,0,0,0,.541-.5,3.955,3.955,0,0,0,.625-1.641,1.493,1.493,0,0,0,.016-.377c0-.041,0,0,.023.021-.007-.009.027.031-.012-.02l-.009-.012s0,.016-.051-.1a.373.373,0,0,1-.016-.135.351.351,0,0,1,.178-.267c.137-.057.1-.028.133-.038h.061a.242.242,0,0,1,.061.01l.057.016.243.092a4.684,4.684,0,0,0,.866.255,2.488,2.488,0,0,0,1.666-.225,3.946,3.946,0,0,0,1.3-1.215,3.143,3.143,0,0,0,.571-1.66,2.062,2.062,0,0,0-.647-1.552,3.945,3.945,0,0,0-3.439-.822l-.846.139.722-.436a8.184,8.184,0,0,0,1.273-.92,1.545,1.545,0,0,0,.439-.583.224.224,0,0,0-.07-.258.859.859,0,0,0-.322-.145,3.106,3.106,0,0,0-.385-.069,2.756,2.756,0,0,0-.386-.007,2.626,2.626,0,0,0-.767.148,3.127,3.127,0,0,0-1.311.873,3.171,3.171,0,0,1,1.276-.966,2.6,2.6,0,0,1,.792-.2,3.2,3.2,0,0,1,.416-.01,3.359,3.359,0,0,1,.406.054,1.024,1.024,0,0,1,.408.168.586.586,0,0,1,.151.2.56.56,0,0,1,0,.251,1.711,1.711,0,0,1-.472.715,8.479,8.479,0,0,1-1.278,1.017l-.123-.3a5.155,5.155,0,0,1,2-.066,3.54,3.54,0,0,1,1.827.87,2.543,2.543,0,0,1,.847,1.887,3.669,3.669,0,0,1-.607,1.966,4.553,4.553,0,0,1-1.462,1.444,3.033,3.033,0,0,1-2.081.325,5.4,5.4,0,0,1-.988-.279l-.209-.079c-.01,0,0,0,0,0l.032,0h.046c.03-.01-.015.015.119-.036a.329.329,0,0,0,.168-.256.3.3,0,0,0-.012-.121.391.391,0,1,1-.036-.076l.009.012c-.033-.042,0,.007,0,.007a.61.61,0,0,1,.1.249,2.007,2.007,0,0,1-.008.585,4.587,4.587,0,0,1-.726,1.945,2.032,2.032,0,0,1-.892.764l-.233.073a1.555,1.555,0,0,1-.326.044,2.543,2.543,0,0,1-.557-.042,7.1,7.1,0,0,1-1.891-.74l-.423-.215c-.068-.032-.136-.064-.192-.085l-.061-.02c0-.032-.013.077.225-.1.14-.261.015.019.071-.143l-.03.117a1.1,1.1,0,0,1-.068.161,2.6,2.6,0,0,1-.146.249,4.274,4.274,0,0,1-.325.421,4.378,4.378,0,0,1-1.7,1.216,3.014,3.014,0,0,1-2.158.042,2.62,2.62,0,0,1-1.374-1.673,8.413,8.413,0,0,1-.408-1.972,14.4,14.4,0,0,1-.058-1.983l.623.2a25.3,25.3,0,0,1-1.762,2.405A12.678,12.678,0,0,1,94.8,94.735a5.663,5.663,0,0,1-.6.494,2.742,2.742,0,0,1-.751.4,1.381,1.381,0,0,1-.394.076,1.115,1.115,0,0,1-.517-.116,1.581,1.581,0,0,1-.6-.652,3.531,3.531,0,0,1-.3-.732c-.076-.246-.129-.494-.181-.741a16.814,16.814,0,0,1-.246-2.974l.3.2a4.451,4.451,0,0,1-1.239.241,3.794,3.794,0,0,1-1.249-.13A3.4,3.4,0,0,1,87.9,90.24a3.1,3.1,0,0,1-.45-.427,2.757,2.757,0,0,1-.359-.514,5.567,5.567,0,0,1-.552-2.363A11.051,11.051,0,0,1,86.714,84.538Z"/><path class="cls-3" d="M64.669,79.778a8.167,8.167,0,0,1,1.392-.191,1.25,1.25,0,0,0,.6-.133l-.285.3a.909.909,0,0,0,.491.033c.2-.069-.514.3-.514.3s.405.11.564.176-.229.012-.354-.016a1.469,1.469,0,0,0-.424.046,4.062,4.062,0,0,1,.839.435c.127.146-.181-.031-.537-.046s-2.154.258-2.154.258-.09-.578.095-.757A1.443,1.443,0,0,0,64.669,79.778Z"/><path class="cls-3" d="M66.4,83.989a1.031,1.031,0,0,0,.622-.014.947.947,0,0,1,.831-.128c.273.139.024-.228-.176-.223s-.493-.015-.493-.015a2.5,2.5,0,0,1,.392-.259,4.314,4.314,0,0,0,.656-.527l-.775.39.515-.592-.808.332Z"/><path class="cls-4" d="M64.118,80.626a4.887,4.887,0,0,1,1.475-.314,3.133,3.133,0,0,1,1.642.849,1.726,1.726,0,0,1,.411.811,3.008,3.008,0,0,1-.74,1.637c-.488.482-1.229,1.031-1.606.931s-1.523-.177-1.793-1.062.568-2.349.566-2.45A3.949,3.949,0,0,1,64.118,80.626Z"/><path class="cls-3" d="M63.838,82.357a7.239,7.239,0,0,0,.535-.488c.158-.174.213-.17.456-.125a3.321,3.321,0,0,0,.5.043l-.188-.2a2.474,2.474,0,0,0,.577-.3c.372-.242-.4.147-.355-.153a.592.592,0,0,1,.356-.419s-.334.088-.292-.139a5.178,5.178,0,0,1,.269-.737s-.5.647-.715.715-.634.178-.634.178l.616-.317-.326-.041a2.686,2.686,0,0,1,.369-.325c.211-.151-.353.087-.23-.126a2.347,2.347,0,0,1,.564-.5s-.6.43-.52.132.227-.649.227-.649-1.01,1.286-1.088,1.355a3.3,3.3,0,0,0-.639.684c-.294.413-.569.846-.478.991a1.1,1.1,0,0,1,.088.458s-.084.166-.159.317a.369.369,0,0,0,.007.437c.119.136.591.206.592.308a1.335,1.335,0,0,0,.3.757.8.8,0,0,0,.546.157s-.083.022.291.3.368.384.887.133.735-.612.89-.473l.156.139a.282.282,0,0,0-.02-.259c-.084-.1-.308-.021-.506.048a2.814,2.814,0,0,1-1.005.144c-.078-.07-.2-.207-.2-.207a3.445,3.445,0,0,1,.712-.108,4.632,4.632,0,0,0,.658-.011s-.358.022-.462-.2.244-.508.359-.437a2.029,2.029,0,0,0,.538.148c.055,0-.094-.09-.246-.284s.279-.073.414-.175-.426-.194-.567-.277a3.143,3.143,0,0,0-.6-.18,2.1,2.1,0,0,0,.288-.34,1.639,1.639,0,0,0,.066-.576s.011.111-.275.432-.738.494-.874.356S64.023,82.2,63.838,82.357Z"/><path class="cls-2" d="M62.44,87.543s-.011.285-.019.414a6.116,6.116,0,0,0,.318-.8.412.412,0,0,1,.172.573c-.19.393.192-.41.307-.356s.31.694.387.782a1.276,1.276,0,0,0,.27.194s-.228-.144-.223-.633a1.849,1.849,0,0,1,.122-.729s.209.282.335.327a.383.383,0,0,0,.267-.028s-.118-.017-.151-.351a4.025,4.025,0,0,0-.262-1.133c-.1-.136-.339-.53-.339-.53a5.874,5.874,0,0,1-.71,1.334A2.593,2.593,0,0,0,62.44,87.543Z"/><path class="cls-3" d="M59.041,84.8s-.044.661-.093.981a2.958,2.958,0,0,1-.179.623l.179-.209.078.6s.251-.618.279-.488a1.972,1.972,0,0,1,.16.62c-.023.21.316-.624.316-.624l-.256-2.036Z"/><path class="cls-4" d="M60.8,83.45s-1.183.748-1.367,1.169a2.85,2.85,0,0,0,.206,1.839A16.1,16.1,0,0,0,60.7,87.766c.127.146.2.271.65.256a2.776,2.776,0,0,0,1.832-1.028,3.181,3.181,0,0,0,.466-2.585C63.346,83.965,62.81,82.3,60.8,83.45Z"/><path class="cls-5" d="M61.686,82.976a.9.9,0,0,0-.643-.09,3.855,3.855,0,0,0-1.193.757,3.065,3.065,0,0,1-.636.63,8.83,8.83,0,0,1-.811.506s.618-.354.564-.081a1.139,1.139,0,0,0,0,.47s.461-.872.41-.534.055.28.055.28.26-.471.355-.4.038.26.038.26a1.478,1.478,0,0,1,.425-.615c.248-.149.729-.384.729-.384s.053.178-.242.334a1.255,1.255,0,0,1-.44.164l.2.077-.445.515s.675-.665.73-.541a.411.411,0,0,1-.081.52,3.221,3.221,0,0,1-.495.436s.475-.4.477-.161a2.355,2.355,0,0,1-.133.618s.507-.6.707-.589.281.306.334.466a.732.732,0,0,0,.254.294s-.441-.371-.075-.641.886-.262,1.166-.492a2.446,2.446,0,0,0,.444-.477,1.373,1.373,0,0,1,.152.711c-.072.253-.179.763-.179.763l.209-.254.2.5.049-.181s.315.206.269.488-.066.576-.066.576l.261-.765s.27.47.4.524-.289-.452-.365-.816a11.023,11.023,0,0,0-.267-1.336,2.669,2.669,0,0,0-.995-1.23c-.287-.093-.1.067-.1.067a.836.836,0,0,1-.19-.3,1,1,0,0,0-.178-.6c-.2-.225-.34-.392-.448-.417s-.377.038-.3.144.31.142.489.329a1,1,0,0,1,.213.522,2.631,2.631,0,0,0-.492-.034A1.594,1.594,0,0,1,61.686,82.976Z"/><path class="cls-2" d="M106.61,108.058s.108.262.154.381a6,6,0,0,0-.042-.852.408.408,0,0,1,.391.446c-.009.434,0-.449.13-.448s.567.5.672.546a1.267,1.267,0,0,0,.324.063s-.265-.035-.462-.479a1.86,1.86,0,0,1-.192-.708,1.276,1.276,0,0,0,.438.157.379.379,0,0,0,.229-.136s-.113.033-.28-.254a4.028,4.028,0,0,0-.7-.915c-.147-.081-.526-.338-.526-.338a5.794,5.794,0,0,1-.089,1.5A2.574,2.574,0,0,0,106.61,108.058Z"/><path class="cls-3" d="M102.411,106.991s.234.614.322.923a2.949,2.949,0,0,1,.095.637l.075-.263.321.513s-.029-.662.05-.556.334.294.4.494.027-.694.027-.694l-1.072-1.732Z"/><path class="cls-4" d="M103.434,105.044a5.223,5.223,0,0,0-.75,1.62,2.83,2.83,0,0,0,.946,1.574,15.624,15.624,0,0,0,1.5.741c.175.08.293.162.692-.038a2.758,2.758,0,0,0,1.229-1.684,3.161,3.161,0,0,0-.648-2.526C105.95,104.454,104.776,103.17,103.434,105.044Z"/><path class="cls-3" d="M104.043,104.248a.894.894,0,0,0-.618.185,3.815,3.815,0,0,0-.763,1.175,3.057,3.057,0,0,1-.314.832,8.642,8.642,0,0,1-.523.792s.411-.575.475-.306a1.114,1.114,0,0,0,.19.425s.056-.976.15-.651.165.231.165.231.04-.533.155-.509.141.22.141.22a1.474,1.474,0,0,1,.13-.731c.162-.237.5-.648.5-.648s.121.14-.081.4a1.217,1.217,0,0,1-.33.329l.218-.014-.19.648s.335-.879.436-.79a.408.408,0,0,1,.142.5,3.227,3.227,0,0,1-.267.6s.263-.558.364-.343a2.36,2.36,0,0,1,.136.613s.208-.752.394-.823.381.16.494.282a.716.716,0,0,0,.351.16s-.551-.152-.333-.547.691-.6.85-.925a2.452,2.452,0,0,0,.2-.614s.391.32.431.578.154.763.154.763l.083-.316.384.373-.031-.184s.369.056.444.33.179.547.179.547l-.081-.8a1.97,1.97,0,0,0,.581.307c.144,0-.448-.289-.667-.586a10.92,10.92,0,0,0-.793-1.1,2.648,2.648,0,0,0-1.406-.7c-.3.034-.06.1-.06.1a.835.835,0,0,1-.3-.191c-.079-.106-.141-.346-.409-.469a1.358,1.358,0,0,0-.577-.192c-.107.021-.324.191-.213.255s.339,0,.578.095a1,1,0,0,1,.407.383,2.654,2.654,0,0,0-.457.173A1.591,1.591,0,0,1,104.043,104.248Z"/><path class="cls-8" d="M57.865,69.053a8.355,8.355,0,0,1,.433-6.091,8.661,8.661,0,0,1,.8-1.363,3.564,3.564,0,0,1,.545-.635,1.223,1.223,0,0,1,.441-.246.821.821,0,0,1,.583.053,1.1,1.1,0,0,1,.518.9c.032.3.03.531.047.794L61.308,64l-.672-.058.6-2.874a3.132,3.132,0,0,1,.275-.778,2.009,2.009,0,0,1,.248-.358,1.948,1.948,0,0,1,.346-.311,3.015,3.015,0,0,1,1.581-.455,7.557,7.557,0,0,1,.769.009,2.729,2.729,0,0,1,.836.133.863.863,0,0,1,.444.4,1.113,1.113,0,0,1,.1.517l-.009.735-.042,2.925h-.62a2.689,2.689,0,0,1,1.221-2.139,2.455,2.455,0,0,1,1.177-.419,1.455,1.455,0,0,1,1.233.392,1.152,1.152,0,0,1,.268.6,2.465,2.465,0,0,1,.007.612c-.04.386-.1.767-.18,1.144a10.7,10.7,0,0,1-.7,2.187,13.357,13.357,0,0,0,.485-2.222c.045-.376.076-.752.084-1.126a1.29,1.29,0,0,0-.262-.941,1.062,1.062,0,0,0-.891-.2,2,2,0,0,0-.934.386,2.13,2.13,0,0,0-.89,1.722h-.62l-.014-2.925,0-.727c-.018-.237-.009-.2-.122-.27a2.3,2.3,0,0,0-.605-.07,6.681,6.681,0,0,0-.694,0,2.3,2.3,0,0,0-1.193.345,1.54,1.54,0,0,0-.2.172,1.192,1.192,0,0,0-.173.238,2.415,2.415,0,0,0-.217.595l-.64,2.845-.589,2.622-.082-2.681-.047-1.537c-.01-.249-.01-.531-.03-.742a.707.707,0,0,0-.148-.419c-.1-.072-.21-.042-.393.087a3.037,3.037,0,0,0-.475.51,8.064,8.064,0,0,0-.819,1.243,9.159,9.159,0,0,0-.935,2.846A8.854,8.854,0,0,0,57.865,69.053Z"/><path class="cls-8" d="M52.964,60.17c.128-.261-.146-.493-.326-.626a1.545,1.545,0,0,0-.714-.24,4.57,4.57,0,0,0-.776,0c-.273.019-.537.04-.554.151a4.649,4.649,0,0,0-.223.7c-.065.253-.114.51-.157.766a7.75,7.75,0,0,0-.115,1.545,1.367,1.367,0,0,0,.136.63,3.535,3.535,0,0,0,.422.6,2.763,2.763,0,0,0,1.047.927,1.022,1.022,0,0,0,.593.021,5.688,5.688,0,0,0,.715-.246,1.709,1.709,0,0,0,1.048-.815l.353-.985.165,1a4.347,4.347,0,0,1-.024,1,1.1,1.1,0,0,0,.033.387.5.5,0,0,0,.206.256,1.684,1.684,0,0,0,.85.095c.314-.012.63-.013.946-.013-.308.07-.617.138-.926.194a1.9,1.9,0,0,1-1.009.027.78.78,0,0,1-.432-.407,1.463,1.463,0,0,1-.111-.538,4.145,4.145,0,0,0-.055-.88l.518.015a1.608,1.608,0,0,1-.534.815,3.291,3.291,0,0,1-.762.461,6.042,6.042,0,0,1-.806.319,1.657,1.657,0,0,1-1.006-.017,3.25,3.25,0,0,1-1.392-1.15,4.23,4.23,0,0,1-.495-.738,2.094,2.094,0,0,1-.2-.943A8.314,8.314,0,0,1,49.59,60.8a7.489,7.489,0,0,1,.245-.806,4.172,4.172,0,0,1,.364-.81.69.69,0,0,1,.509-.273c.164-.012.289-.007.433,0a3.364,3.364,0,0,1,.84.118,1.757,1.757,0,0,1,.758.4,1.088,1.088,0,0,1,.252.346A.369.369,0,0,1,52.964,60.17Z"/><path class="cls-8" d="M78.508,65.014a12.609,12.609,0,0,1,.846-3.051,5.848,5.848,0,0,1,1.988-2.518,4.381,4.381,0,0,1,1.507-.685,1.958,1.958,0,0,1,.913-.054.725.725,0,0,1,.448.4,1.531,1.531,0,0,1,.12.464l.105,1.593.08,1.574-.626-.119a6.612,6.612,0,0,1,1.783-2.367,6.7,6.7,0,0,1,1.245-.826,6.785,6.785,0,0,1,.687-.3,3.639,3.639,0,0,1,.762-.2,2.278,2.278,0,0,1,.843.032,1.483,1.483,0,0,1,.784.48,1.959,1.959,0,0,1,.375.788,5.563,5.563,0,0,1,.125.752,6.313,6.313,0,0,1-.413,2.946l-.631-.264A7.188,7.188,0,0,1,90.4,62a2.6,2.6,0,0,1,1.781-.984,1.772,1.772,0,0,1,1.066.253,2.169,2.169,0,0,1,.7.769,4.531,4.531,0,0,1,.56,1.85,4.443,4.443,0,0,1-4.57,4.878A4.5,4.5,0,0,0,93.084,67.2a4.262,4.262,0,0,0,.95-3.27,4.006,4.006,0,0,0-.561-1.612,1.234,1.234,0,0,0-1.24-.678,1.95,1.95,0,0,0-1.324.773,6.657,6.657,0,0,0-.835,1.524l-.632-.264a5.6,5.6,0,0,0,.329-2.62,2.3,2.3,0,0,0-.341-1.127,1.045,1.045,0,0,0-.97-.273,2.845,2.845,0,0,0-.609.149,5.916,5.916,0,0,0-3.364,3.081l-.576,1.252-.05-1.371L83.8,61.191l-.036-1.558c-.023-.258-.069-.392-.167-.42a1.653,1.653,0,0,0-.647.035,3.906,3.906,0,0,0-1.371.557,5.94,5.94,0,0,0-2,2.266A14.5,14.5,0,0,0,78.508,65.014Z"/><path class="cls-8" d="M94.664,60.1a1.942,1.942,0,0,1-.259-1.5,3.756,3.756,0,0,1,.686-1.411,12.893,12.893,0,0,1,1-1.206,2.429,2.429,0,0,1,1.435-.786,1.613,1.613,0,0,1,.869.121,1.515,1.515,0,0,1,.658.6,4.143,4.143,0,0,1,.466,1.57,6.726,6.726,0,0,1-.352,3.178l-.587-.253a5.586,5.586,0,0,1,4.675-3.123l.318-.017.049.321a7.753,7.753,0,0,1-.036,2.57l-.724-.166a2.207,2.207,0,0,1,.755-1.132,3.077,3.077,0,0,1,1.172-.587,4.239,4.239,0,0,1,.615-.108,5.819,5.819,0,0,1,.616-.028c.405,0,.8.04,1.182.075l.2.019.085.173a7.414,7.414,0,0,1,.96,3.014,3.684,3.684,0,0,1-.019.423,3.62,3.62,0,0,1-.074.416,3.112,3.112,0,0,1-.309.788,2.271,2.271,0,0,1-1.321,1.089l-.082-.568,1.309.039.654.02a2.006,2.006,0,0,1,.377.029.5.5,0,0,1,.4.421,1.308,1.308,0,0,1-.273.743l-.345.565A12.168,12.168,0,0,1,108,66.469a6.717,6.717,0,0,1-2.012,1.736,4.16,4.16,0,0,1-2.553.523,4.306,4.306,0,0,0,2.453-.7,6.455,6.455,0,0,0,1.817-1.787,12.735,12.735,0,0,0,.7-1.084l.315-.565c.1-.189.219-.405.193-.459-.008,0,.02.007-.033-.007a2.245,2.245,0,0,0-.277,0l-.654.007-1.31.012-1.891.019,1.809-.587a1.7,1.7,0,0,0,.936-.842,2.5,2.5,0,0,0,.236-.628,2.943,2.943,0,0,0,.055-.334,3.022,3.022,0,0,0,.01-.337,6.8,6.8,0,0,0-.927-2.723l.281.191c-.383-.03-.758-.059-1.122-.057a5.272,5.272,0,0,0-.538.031,3.446,3.446,0,0,0-.52.1,2.346,2.346,0,0,0-.871.451,1.57,1.57,0,0,0-.511.757l-.725-.167a7.03,7.03,0,0,0,.064-2.329l.367.3a4.914,4.914,0,0,0-4.13,2.689l-.586-.253a6.407,6.407,0,0,0,.422-2.891,3.7,3.7,0,0,0-.343-1.388A1.067,1.067,0,0,0,98.2,55.7a1.193,1.193,0,0,0-.637-.11,2.192,2.192,0,0,0-1.251.619,12.915,12.915,0,0,0-1.044,1.107,3.591,3.591,0,0,0-.741,1.3A1.912,1.912,0,0,0,94.664,60.1Z"/><path class="cls-8" d="M99.965,68.388a10.211,10.211,0,0,0-.25,1.69,3.56,3.56,0,0,0,.259,1.65,2.289,2.289,0,0,0,1.156,1.128,5.59,5.59,0,0,0,1.616.422,5.806,5.806,0,0,0,1.659.017,3.124,3.124,0,0,0,1.479-.6,5.94,5.94,0,0,0,1.76-2.74l.431.235a.266.266,0,0,0,.026.28.461.461,0,0,0,.3.22,3.13,3.13,0,0,0,1.054-.035,3.589,3.589,0,0,0,.531-.107,1.8,1.8,0,0,0,.24-.088,1.342,1.342,0,0,0,.213-.115.913.913,0,0,0,.448-.713l.581.13a.8.8,0,0,0,.318.868,1.158,1.158,0,0,0,.494.231,2.382,2.382,0,0,0,.61.049,6.123,6.123,0,0,0,1.276-.185,1.164,1.164,0,0,0,.443-.317,6.493,6.493,0,0,0,.431-.507,6.953,6.953,0,0,0,1.4-4.99l-.081-.692.609.34a2.01,2.01,0,0,0,2.27-.464,2.41,2.41,0,0,0,.389-.508,2.851,2.851,0,0,0,.258-.588,4.128,4.128,0,0,0,.188-1.326,4.8,4.8,0,0,0-.718-2.581,2.211,2.211,0,0,0-.966-.794,1.63,1.63,0,0,0-1.178-.063l-.224-.654a2.8,2.8,0,0,0,1.635-1.636,4.848,4.848,0,0,0,.317-1.209,9.849,9.849,0,0,0,.08-1.294,9.187,9.187,0,0,0-.048-1.26.586.586,0,0,0-.25-.363,3.4,3.4,0,0,0-.525-.3,4.7,4.7,0,0,0-2.457-.424l-.541.054.269-.461a1.933,1.933,0,0,0,.169-1.408A2.579,2.579,0,0,0,114.9,48a3.141,3.141,0,0,0-.629-.452,3.862,3.862,0,0,0-.719-.3,5.435,5.435,0,0,0-1.569-.229l.13-.34a.283.283,0,0,0,.319,0,.63.63,0,0,0,.262-.353,9.705,9.705,0,0,0,.249-1.1,16.771,16.771,0,0,0,.251-2.292c.016-.385.018-.771.007-1.156a4.463,4.463,0,0,0-.119-1.132.732.732,0,0,0-.366-.391,1.81,1.81,0,0,0-.548-.15,3.163,3.163,0,0,1-1.127-.263,3.153,3.153,0,0,0,1.133.213,1.1,1.1,0,0,1,1,.551,4.563,4.563,0,0,1,.177,1.164c.028.388.042.778.043,1.167a17.213,17.213,0,0,1-.154,2.335,9.653,9.653,0,0,1-.215,1.172.976.976,0,0,1-.406.565.659.659,0,0,1-.769-.034l-.389-.332.519-.008a5.868,5.868,0,0,1,1.693.206,4.275,4.275,0,0,1,.809.318,3.628,3.628,0,0,1,.722.491,3.062,3.062,0,0,1,.929,1.516,2.462,2.462,0,0,1-.184,1.8l-.272-.408a5.3,5.3,0,0,1,2.776.411,3.846,3.846,0,0,1,.645.351,1.234,1.234,0,0,1,.493.718,3.467,3.467,0,0,1,.067.737l.01.677a10.39,10.39,0,0,1-.074,1.381,5.522,5.522,0,0,1-.353,1.381,3.466,3.466,0,0,1-2.046,2.036l-.224-.655a2.328,2.328,0,0,1,1.687.061,2.923,2.923,0,0,1,1.281,1.031,5.486,5.486,0,0,1,.874,2.984,4.821,4.821,0,0,1-.214,1.568,3.625,3.625,0,0,1-.34.749A3.02,3.02,0,0,1,118.3,65.4a2.42,2.42,0,0,1-1.676-.222l.528-.352a7.636,7.636,0,0,1-1.583,5.489,7.2,7.2,0,0,1-.478.552,1.82,1.82,0,0,1-.694.472,3.633,3.633,0,0,1-.753.149c-.234.029-.476.056-.727.063a2.969,2.969,0,0,1-.777-.071,1.77,1.77,0,0,1-.753-.366,1.589,1.589,0,0,1-.493-.7,1.2,1.2,0,0,1,.028-.913l.628-1.344-.048,1.474a1.5,1.5,0,0,1-.74,1.193,2.036,2.036,0,0,1-.3.156,2.661,2.661,0,0,1-.312.105,4.316,4.316,0,0,1-.616.11,3.5,3.5,0,0,1-1.269-.01,1,1,0,0,1-.6-.472.761.761,0,0,1,.019-.824l1.168-1.581-.737,1.816a6.36,6.36,0,0,1-1.979,2.895,3.45,3.45,0,0,1-1.675.636,6.126,6.126,0,0,1-1.755-.091,5.9,5.9,0,0,1-1.667-.515,2.478,2.478,0,0,1-1.192-1.267,3.665,3.665,0,0,1-.2-1.714A10.445,10.445,0,0,1,99.965,68.388Z"/><path class="cls-8" d="M49.39,36.994a3.228,3.228,0,0,1,.077,1.376,2.1,2.1,0,0,0,.2,1.267.828.828,0,0,0,1.007.346,4.041,4.041,0,0,0,.618-.207,5.146,5.146,0,0,0,.59-.294,6.834,6.834,0,0,0,1.975-1.724,3.434,3.434,0,0,0,.807-2.317l-.061-.8.621.5a.984.984,0,0,1,.352.942l-.149-.359a2.921,2.921,0,0,0,2,.41,3.9,3.9,0,0,0,1.031-.267,3.81,3.81,0,0,0,.914-.533,4.726,4.726,0,0,0,.774-.782,5.87,5.87,0,0,0,.595-.934,9.289,9.289,0,0,0,.744-2.126l.4-1.735.165,1.75a1.053,1.053,0,0,0,.933.9,1.108,1.108,0,0,0,1.114-.778,10.554,10.554,0,0,0,.152-1.708c.027-.587.064-1.173.107-1.759.038.587.07,1.173.092,1.76l.038.879a3.6,3.6,0,0,1-.033.921,1.519,1.519,0,0,1-1.506,1.158,1.577,1.577,0,0,1-1.469-1.3l.57.015a8.048,8.048,0,0,1-.722,2.314,6.478,6.478,0,0,1-.643,1.053,5.5,5.5,0,0,1-.853.9,4.519,4.519,0,0,1-1.091.669,4.467,4.467,0,0,1-1.226.34,3.642,3.642,0,0,1-2.484-.569l-.206-.143.057-.216a.292.292,0,0,0-.093-.27l.561-.291a4.085,4.085,0,0,1-1,2.756,7.1,7.1,0,0,1-2.245,1.756,5.747,5.747,0,0,1-.66.283,4.465,4.465,0,0,1-.7.188,1.408,1.408,0,0,1-.78-.052,1.088,1.088,0,0,1-.564-.553,2.313,2.313,0,0,1-.1-1.424A3.538,3.538,0,0,0,49.39,36.994Z"/><path class="cls-8" d="M65.078,44.347a5.814,5.814,0,0,0-1.653,2.6,4.056,4.056,0,0,0-.181,1.489,1.866,1.866,0,0,0,.572,1.26,2.246,2.246,0,0,0,1.286.508,9.185,9.185,0,0,0,1.519-.007,2.455,2.455,0,0,0,.682-.115.924.924,0,0,0,.448-.372c.129-.183.24-.415.387-.661a1.792,1.792,0,0,1,.673-.694l1.961-1.048-1.553,1.6a.841.841,0,0,0-.184.727,1.093,1.093,0,0,0,.428.7,1.975,1.975,0,0,0,.846.348,2.385,2.385,0,0,0,.24.031l.1.007.139,0a2.4,2.4,0,0,0,.483-.054,3.02,3.02,0,0,0,1.649-1.032,2.351,2.351,0,0,0,.535-1.808l.611.078a.722.722,0,0,0,.173.741,1.366,1.366,0,0,0,.88.365,2.552,2.552,0,0,0,1.059-.145,2.864,2.864,0,0,0,.94-.555,3.042,3.042,0,0,0,.975-1.967,22.807,22.807,0,0,1,.264-2.352c-.088.789.014,1.57-.029,2.374a3.2,3.2,0,0,1-.925,2.249,3.3,3.3,0,0,1-1.053.7,3,3,0,0,1-1.261.239,2.29,2.29,0,0,1-.662-.114,1.69,1.69,0,0,1-.617-.365,1.3,1.3,0,0,1-.331-1.434l.42-.989.191,1.067a3.011,3.011,0,0,1-.633,2.342,3.712,3.712,0,0,1-2.025,1.312,3.249,3.249,0,0,1-.617.082l-.139.007-.177-.006a3.008,3.008,0,0,1-.312-.035,2.481,2.481,0,0,1-1.18-.5,1.828,1.828,0,0,1-.681-1.164,1.546,1.546,0,0,1,.4-1.332l.408.558c-.312.139-.5.634-.834,1.125a1.6,1.6,0,0,1-.768.6,3.042,3.042,0,0,1-.871.141,7.544,7.544,0,0,1-1.638-.06,2.76,2.76,0,0,1-1.562-.736,2.335,2.335,0,0,1-.628-1.583,3.877,3.877,0,0,1,.308-1.614A5.588,5.588,0,0,1,65.078,44.347Z"/><path class="cls-8" d="M80.965,28.707a9.681,9.681,0,0,0-.76,2.619,10.721,10.721,0,0,0-.088,1.349,5.61,5.61,0,0,0,.124,1.3.891.891,0,0,0,.292.458.943.943,0,0,0,.481.189,2.825,2.825,0,0,0,1.206-.2l.15-.056a.543.543,0,0,0,.055-.023l.077-.038.309-.152.619-.3,1.236-.61,1.05-.517-.6,1.01a9.327,9.327,0,0,0-1.279,4.324,1.789,1.789,0,0,0,.129.956.545.545,0,0,0,.659.2,1,1,0,0,0,.387-.208,1.426,1.426,0,0,0,.287-.379,4.844,4.844,0,0,0,.354-1.042l.562.212a2.1,2.1,0,0,0-.261,1.256,2.272,2.272,0,0,0,.161.644,2.063,2.063,0,0,0,.344.557,2.041,2.041,0,0,0,.527.428,2.5,2.5,0,0,0,.636.256,2.25,2.25,0,0,0,1.377-.087l-.04.037a2.527,2.527,0,0,0,.381-1.479,2.432,2.432,0,0,1-.223,1.569L89.1,41l-.03.016a2.5,2.5,0,0,1-1.516.241,2.462,2.462,0,0,1-.756-.232,2.431,2.431,0,0,1-1.121-1.13,2.735,2.735,0,0,1-.243-.774,2.657,2.657,0,0,1,.242-1.613l.967-1.907-.405,2.119a4.427,4.427,0,0,1-.372,1.208,2.061,2.061,0,0,1-.418.567,1.683,1.683,0,0,1-.641.363,1.385,1.385,0,0,1-.773.018,1.149,1.149,0,0,1-.66-.492,2.377,2.377,0,0,1-.259-1.348,9.1,9.1,0,0,1,1.405-4.664l.445.492-1.248.586-.624.293-.312.146-.078.037a1,1,0,0,1-.1.042l-.173.06a3.149,3.149,0,0,1-1.5.156,1.463,1.463,0,0,1-.757-.371,1.416,1.416,0,0,1-.4-.712,5.826,5.826,0,0,1-.06-1.44,7.82,7.82,0,0,1,.2-1.39A8.539,8.539,0,0,1,80.965,28.707Z"/><path class="cls-8" d="M92.369,34.916a9.423,9.423,0,0,0,.338,3.932,9.609,9.609,0,0,0,.767,1.8,1.946,1.946,0,0,0,.536.694,1.224,1.224,0,0,0,.815.174,9.868,9.868,0,0,0,1.865-.506,7.851,7.851,0,0,0,1.734-.812,4.485,4.485,0,0,0,.367-.272,3.611,3.611,0,0,0,.335-.322,3.288,3.288,0,0,0,.511-.747,2.254,2.254,0,0,0,.181-1.684l.658.042a2.72,2.72,0,0,0-.208,1.461,2.834,2.834,0,0,0,.192.721,3.1,3.1,0,0,0,.166.331c.06.1.14.219.2.3a2.977,2.977,0,0,0,.257.283,3.269,3.269,0,0,0,.286.237,2.828,2.828,0,0,0,.662.348,2.716,2.716,0,0,0,1.473.124l-.276.351a1.581,1.581,0,0,1,1.1-1.52l1.068-.338-.7.862a.413.413,0,0,0-.009.439.919.919,0,0,0,.408.423,3.873,3.873,0,0,0,1.483.165,6.632,6.632,0,0,0,1.565.043.857.857,0,0,0,.287-.124.9.9,0,0,0,.227-.222.485.485,0,0,0,.075-.514l-.3-.526.567.178a2.525,2.525,0,0,0,2.829-1.085,2.449,2.449,0,0,0-.619-3.075,2.361,2.361,0,0,1,1.021,1.416,2.654,2.654,0,0,1,.085.9,2.439,2.439,0,0,1-.24.889,2.833,2.833,0,0,1-3.206,1.405l.266-.347a.965.965,0,0,1-.056,1.036,1.4,1.4,0,0,1-.341.367,1.363,1.363,0,0,1-.228.138,1.561,1.561,0,0,1-.226.085,6.589,6.589,0,0,1-1.712.046,3.945,3.945,0,0,1-1.759-.192,1.568,1.568,0,0,1-.724-.728,1.082,1.082,0,0,1,.07-1.124l.368.524a.906.906,0,0,0-.6.856l.017.287-.293.064a3.434,3.434,0,0,1-1.861-.127,3.523,3.523,0,0,1-.838-.427,3.748,3.748,0,0,1-.37-.3,3.889,3.889,0,0,1-.318-.337,3.559,3.559,0,0,1-.28-.4,3.909,3.909,0,0,1-.206-.428,3.544,3.544,0,0,1-.23-.914,3.435,3.435,0,0,1,.292-1.845l.39-.83.268.871a2.944,2.944,0,0,1-.249,2.2,3.952,3.952,0,0,1-.629.893,4.063,4.063,0,0,1-.392.367,5.193,5.193,0,0,1-.441.32,7.242,7.242,0,0,1-1.907.837,10.129,10.129,0,0,1-2.02.448,1.731,1.731,0,0,1-1.1-.29,2.3,2.3,0,0,1-.659-.89,8.326,8.326,0,0,1-.7-1.92A8.95,8.95,0,0,1,92.369,34.916Z"/><path class="cls-8" d="M52.381,39.848a6.326,6.326,0,0,0-.022.948,8.859,8.859,0,0,0,.49,2.413c.309.976.832,2.058,1.348,3.252s1.053,2.466,1.586,3.744C56.835,52.77,57.8,55.348,58.72,57.2c.461.922.859,1.688,1.176,2.2l.495.815A17.132,17.132,0,0,1,58.349,57.4,33.953,33.953,0,0,1,56.7,54.232c-.55-1.183-1.072-2.467-1.606-3.743-.518-1.283-1.039-2.566-1.5-3.778a28.96,28.96,0,0,1-1.143-3.386,7.822,7.822,0,0,1-.231-2.533,4.351,4.351,0,0,1,.109-.7Z"/><path class="cls-8" d="M57.782,36.564s.056.175.136.483a7.458,7.458,0,0,1,.209,1.317,13.156,13.156,0,0,1-.412,4.008c-.35,1.418-.818,2.782-1.165,3.8l-.428,1.239c-.1.3-.167.473-.167.473a14.015,14.015,0,0,1,.177-1.815c.165-1.082.517-2.489.854-3.877A26.637,26.637,0,0,0,57.7,38.36a11.362,11.362,0,0,0,.076-1.294C57.773,36.748,57.782,36.564,57.782,36.564Z"/><path class="cls-8" d="M80.888,35.349s-.036.382-.048,1.046a14.2,14.2,0,0,0,.22,2.72,17.585,17.585,0,0,0,1.149,3.659c.539,1.308,1.187,2.69,1.716,4.144a17.623,17.623,0,0,1,.887,8.391,15.96,15.96,0,0,1-.605,2.716c-.2.64-.349.992-.349.992l.207-1.027a21.393,21.393,0,0,0,.327-2.721,20.235,20.235,0,0,0-.142-3.84,19.915,19.915,0,0,0-1.031-4.259c-.5-1.415-1.133-2.8-1.624-4.157a16.072,16.072,0,0,1-.951-3.84,11.785,11.785,0,0,1,.051-2.789A9.013,9.013,0,0,1,80.888,35.349Z"/><path class="cls-8" d="M97.714,40.88s.144.9.253,2.269a45.319,45.319,0,0,1-.4,10c-.217,1.352-.434,2.242-.434,2.242s-.009-.23-.008-.629l.013-1.65c.025-1.363.086-3.174.156-4.983s.159-3.618.242-4.979l.118-1.646C97.686,41.108,97.714,40.88,97.714,40.88Z"/><path class="cls-8" d="M86.741,40.66l-.13.383c-.09.237-.188.588-.305,1s-.225.894-.311,1.413c-.046.259-.074.529-.105.8l-.079.867-.051.432a2.482,2.482,0,0,1-.122.46c-.082.278-.179.529-.271.8-.191.511-.384.983-.563,1.384-.359.8-.647,1.321-.647,1.321s.065-.586.235-1.444c.086-.428.2-.924.342-1.449.063-.247.125-.534.2-.8a2.113,2.113,0,0,0,.09-.374l.039-.434.1-.854a7.253,7.253,0,0,1,.18-.852,7.009,7.009,0,0,1,.555-1.429A5.969,5.969,0,0,1,86.741,40.66Z"/><path class="cls-8" d="M103.331,41.655s-.072.742-.287,1.836a16.177,16.177,0,0,1-1.289,3.9,10.584,10.584,0,0,1-1.2,1.877,8.3,8.3,0,0,1-1.377,1.363,13.443,13.443,0,0,1-1.544,1.044s.122-.142.344-.379l.906-.979a13.824,13.824,0,0,0,2.2-3.261c.645-1.283,1.148-2.654,1.548-3.684.206-.515.377-.944.5-1.245S103.331,41.655,103.331,41.655Z"/><path class="cls-8" d="M108.537,71.067a29.985,29.985,0,0,1-1.171,3.582,20.334,20.334,0,0,1-1.692,3.515,8.024,8.024,0,0,1-1.5,1.686,9.767,9.767,0,0,1-1.94,1.276,11.585,11.585,0,0,1-2.168.81c-.781.186-1.511.185-2.171.307a2.013,2.013,0,0,0-1.506.868c-.35.488-.639,1.055-.925,1.531a17.724,17.724,0,0,1-1.453,2.319,4.948,4.948,0,0,1-.713.756,6.459,6.459,0,0,0,.594-.84,25.494,25.494,0,0,0,1.2-2.431c.26-.509.486-1.054.848-1.645A2.641,2.641,0,0,1,96.693,82a2.991,2.991,0,0,1,1.075-.4c.721-.15,1.458-.2,2.117-.36a10.965,10.965,0,0,0,2.015-.78,9.048,9.048,0,0,0,1.81-1.16,8.057,8.057,0,0,0,1.423-1.507,23.416,23.416,0,0,0,1.848-3.308c.481-1.013.886-1.86,1.141-2.465Z"/><path class="cls-8" d="M107.942,75.676a2.968,2.968,0,0,1,1.973-.275,1.377,1.377,0,0,1,.842.666,2.131,2.131,0,0,1,.18,1.058,6.614,6.614,0,0,1-1.336,3.826l-.4-.488a8.357,8.357,0,0,1,2.672-.842,7.347,7.347,0,0,1,1.421-.066,2.829,2.829,0,0,1,1.458.457,1.806,1.806,0,0,1,.765,1.429,2.84,2.84,0,0,1-.383,1.475c-.5.871-1.231,1.437-1.68,2.139l-.428-.427a5.841,5.841,0,0,1,1.747-.665,1.717,1.717,0,0,1,.519-.05.7.7,0,0,1,.532.344,1.33,1.33,0,0,1,.165.511,3.862,3.862,0,0,1,.033.463,3.651,3.651,0,0,1-.479,1.782,3.388,3.388,0,0,1-1.253,1.286,3.577,3.577,0,0,0,1.34-3.05,3.309,3.309,0,0,0-.058-.423.9.9,0,0,0-.126-.327.23.23,0,0,0-.2-.111,1.407,1.407,0,0,0-.361.068,5.247,5.247,0,0,0-1.535.7l-1.149.768.722-1.2c.5-.833,1.229-1.423,1.6-2.138a2.169,2.169,0,0,0,.273-1.111,1.167,1.167,0,0,0-.13-.479,1.1,1.1,0,0,0-.348-.38,3.715,3.715,0,0,0-2.364-.3,7.655,7.655,0,0,0-2.472.723l-1.324.645.927-1.133a6.343,6.343,0,0,0,1.427-3.455,2.031,2.031,0,0,0-.071-.884,1.091,1.091,0,0,0-.616-.59A3.1,3.1,0,0,0,107.942,75.676Z"/><path class="cls-3" d="M95.851,89.971a9.676,9.676,0,0,1-1.066,1.31,1.515,1.515,0,0,0-.42.613l0-.5a1.083,1.083,0,0,0-.458.374c-.117.222.206-.683.206-.683s-.445.235-.64.308.192-.2.324-.277a1.758,1.758,0,0,0,.335-.388,4.93,4.93,0,0,1-1.094.307c-.232-.024.184-.122.509-.4s1.68-2,1.68-2,.553.434.538.744A1.719,1.719,0,0,0,95.851,89.971Z"/><path class="cls-3" d="M90.875,87.693a1.238,1.238,0,0,0-.534.522c-.108.3-.27.691-.625.8s.166.22.339.051.444-.391.444-.391a3.117,3.117,0,0,1-.131.549,5.247,5.247,0,0,0-.144,1l.361-.979.033.943.438-.956Z"/><path class="cls-4" d="M95.638,88.774A5.857,5.857,0,0,1,94.6,90.261a3.765,3.765,0,0,1-2.14.6,2.074,2.074,0,0,1-1.027-.375,3.626,3.626,0,0,1-.7-2.045c.034-.824.233-1.915.646-2.137s1.483-1.095,2.447-.539,1.43,2.529,1.515,2.616A4.606,4.606,0,0,1,95.638,88.774Z"/><path class="cls-3" d="M94.462,87.024s-.072.586-.068.868-.047.324-.3.484a3.8,3.8,0,0,0-.474.374l.327.018a2.961,2.961,0,0,0-.259.739c-.129.518.232-.46.437-.157a.712.712,0,0,1,.03.66s.222-.352.371-.117a6.134,6.134,0,0,1,.369.868,3.9,3.9,0,0,1,.04-1.215c.133-.237.411-.677.411-.677l-.28.784.32-.232a3.27,3.27,0,0,1-.057.589c-.062.306.239-.366.3-.078a2.8,2.8,0,0,1-.087.9s.178-.873.349-.543.334.756.334.756-.17-1.959-.158-2.082a4,4,0,0,0,0-1.127c-.081-.6-.195-1.209-.394-1.262a1.321,1.321,0,0,1-.452-.33s-.063-.215-.122-.408-.148-.355-.365-.379-.688.3-.773.216a1.6,1.6,0,0,0-.882-.421.965.965,0,0,0-.609.311s.056-.088-.5-.022-.638-.035-.889.611-.142,1.141-.392,1.146l-.251.006s.075.2.23.212.288-.235.4-.458.64-.95.765-.952.343.02.343.02a4.172,4.172,0,0,1-.536.68,5.58,5.58,0,0,0-.57.55s.3-.314.568-.206.2.646.044.677a2.433,2.433,0,0,0-.594.313c-.051.042.156,0,.45.047s-.186.293-.221.494.534-.179.726-.222a3.8,3.8,0,0,0,.674-.336,2.52,2.52,0,0,0,.027.535,1.957,1.957,0,0,0,.414.56s-.1-.088-.113-.605.242-1.039.476-1.03S94.434,87.318,94.462,87.024Z"/><path class="cls-3" d="M89.327,81.711a5.777,5.777,0,0,1,.985-.135.878.878,0,0,0,.426-.094l-.2.214a.641.641,0,0,0,.348.023c.139-.048-.363.211-.363.211s.286.078.4.125-.162.008-.25-.012a1.049,1.049,0,0,0-.3.033,2.854,2.854,0,0,1,.593.308c.09.1-.128-.023-.379-.033s-1.524.183-1.524.183S89,82.125,89.127,82A1.021,1.021,0,0,0,89.327,81.711Z"/><path class="cls-3" d="M90.549,84.689a.73.73,0,0,0,.44-.01.67.67,0,0,1,.588-.09c.193.1.017-.161-.125-.158s-.348-.011-.348-.011a1.843,1.843,0,0,1,.277-.183,3.07,3.07,0,0,0,.464-.372l-.549.275.365-.418-.572.234Z"/><path class="cls-4" d="M88.938,82.311a3.446,3.446,0,0,1,1.042-.223,2.215,2.215,0,0,1,1.162.6,1.232,1.232,0,0,1,.291.574,2.14,2.14,0,0,1-.523,1.157c-.346.341-.87.729-1.137.659s-1.077-.126-1.267-.751.4-1.661.4-1.733A2.616,2.616,0,0,1,88.938,82.311Z"/><path class="cls-3" d="M88.74,83.535s.266-.223.378-.345.15-.12.322-.089a2.235,2.235,0,0,0,.354.03l-.133-.139a1.752,1.752,0,0,0,.409-.213c.263-.171-.286.1-.251-.109a.419.419,0,0,1,.252-.3s-.237.063-.207-.1a3.754,3.754,0,0,1,.19-.521s-.354.458-.5.506-.449.125-.449.125l.436-.224-.231-.029a1.952,1.952,0,0,1,.261-.23c.15-.106-.249.062-.162-.089a1.646,1.646,0,0,1,.4-.351s-.427.3-.367.093.16-.459.16-.459-.714.91-.769.958a2.4,2.4,0,0,0-.453.484c-.207.292-.4.6-.337.7a.786.786,0,0,1,.062.324s-.06.117-.112.224a.259.259,0,0,0,0,.309c.084.1.417.146.418.218a.939.939,0,0,0,.21.535.564.564,0,0,0,.387.111s-.06.016.2.21.26.272.628.095.519-.434.629-.335l.11.1a.2.2,0,0,0-.014-.183c-.059-.069-.218-.015-.357.034a2.02,2.02,0,0,1-.711.1c-.056-.05-.14-.147-.14-.147a2.431,2.431,0,0,1,.5-.076,3.234,3.234,0,0,0,.465-.008s-.253.016-.327-.139.173-.359.254-.309a1.391,1.391,0,0,0,.381.1c.038,0-.067-.063-.175-.2s.2-.051.294-.123-.3-.138-.4-.2a2.2,2.2,0,0,0-.425-.127,1.471,1.471,0,0,0,.2-.241,1.152,1.152,0,0,0,.047-.407s.007.079-.2.306-.522.349-.618.251S88.87,83.42,88.74,83.535Z"/><path class="cls-2" d="M87.75,87.2s-.007.2-.013.292a4.322,4.322,0,0,0,.225-.564.291.291,0,0,1,.122.405c-.135.278.136-.29.217-.252s.219.491.273.553a.912.912,0,0,0,.192.137s-.162-.1-.158-.448a1.322,1.322,0,0,1,.086-.515s.148.2.237.231a.27.27,0,0,0,.189-.02s-.083-.012-.107-.248a2.863,2.863,0,0,0-.185-.8c-.071-.095-.24-.374-.24-.374a4.122,4.122,0,0,1-.5.943A1.83,1.83,0,0,0,87.75,87.2Z"/><path class="cls-3" d="M85.347,85.266s-.031.467-.066.693a2.1,2.1,0,0,1-.127.441l.127-.148.055.428s.178-.438.2-.346a1.379,1.379,0,0,1,.112.439c-.015.148.224-.442.224-.442l-.181-1.44Z"/><path class="cls-4" d="M86.587,84.308s-.836.529-.966.827a2.013,2.013,0,0,0,.146,1.3,10.938,10.938,0,0,0,.752.925c.09.1.142.192.459.181a1.963,1.963,0,0,0,1.3-.726,2.254,2.254,0,0,0,.33-1.829C88.392,84.672,88.012,83.492,86.587,84.308Z"/><path class="cls-5" d="M87.218,83.973a.635.635,0,0,0-.455-.064,2.746,2.746,0,0,0-.844.535,2.169,2.169,0,0,1-.45.446,6.241,6.241,0,0,1-.573.358s.436-.251.4-.057a.81.81,0,0,0,0,.332s.326-.617.29-.378.039.2.039.2.184-.334.251-.284.026.184.026.184a1.049,1.049,0,0,1,.3-.435c.176-.105.516-.271.516-.271s.037.126-.171.236a.876.876,0,0,1-.312.116l.146.055-.315.363s.477-.469.516-.382a.29.29,0,0,1-.057.368,2.311,2.311,0,0,1-.35.308s.336-.284.337-.114a1.681,1.681,0,0,1-.094.437s.358-.425.5-.416.2.216.236.329a.51.51,0,0,0,.18.208s-.312-.262-.053-.453.626-.186.824-.348a1.676,1.676,0,0,0,.314-.337.969.969,0,0,1,.108.5c-.051.179-.126.539-.126.539l.147-.18.138.356L88.717,86s.222.145.19.345-.047.407-.047.407l.185-.541s.191.332.285.371-.2-.32-.258-.578a7.967,7.967,0,0,0-.189-.945,1.89,1.89,0,0,0-.7-.869c-.2-.066-.068.047-.068.047a.591.591,0,0,1-.135-.211.694.694,0,0,0-.126-.425c-.138-.16-.24-.278-.317-.3s-.266.028-.213.1.219.1.346.233a.707.707,0,0,1,.15.369,1.911,1.911,0,0,0-.347-.024A1.14,1.14,0,0,1,87.218,83.973Z"/><path class="cls-3" d="M49.379,58.612a9.676,9.676,0,0,1-1.066,1.31,1.515,1.515,0,0,0-.42.613l0-.5a1.083,1.083,0,0,0-.458.374c-.117.222.206-.683.206-.683s-.445.235-.64.308.192-.2.325-.277a1.773,1.773,0,0,0,.334-.389,4.876,4.876,0,0,1-1.094.307c-.232-.023.185-.121.509-.4s1.68-2,1.68-2,.553.434.538.744A1.725,1.725,0,0,0,49.379,58.612Z"/><path class="cls-3" d="M44.4,56.334a1.238,1.238,0,0,0-.534.522c-.108.3-.27.691-.625.8s.166.22.339.051.444-.391.444-.391a3.117,3.117,0,0,1-.131.549,5.247,5.247,0,0,0-.144,1l.361-.979.033.943.438-.956Z"/><path class="cls-4" d="M49.166,57.415A5.857,5.857,0,0,1,48.13,58.9a3.765,3.765,0,0,1-2.14.6,2.074,2.074,0,0,1-1.027-.375,3.626,3.626,0,0,1-.7-2.045c.034-.824.233-1.915.646-2.137s1.483-1.095,2.447-.539,1.43,2.529,1.515,2.616A4.606,4.606,0,0,1,49.166,57.415Z"/><path class="cls-3" d="M47.99,55.665s-.072.586-.068.868-.047.324-.3.484a3.8,3.8,0,0,0-.474.374l.327.018a2.961,2.961,0,0,0-.259.739c-.129.518.232-.46.437-.157a.712.712,0,0,1,.03.66s.222-.352.372-.117a6.217,6.217,0,0,1,.368.868,3.88,3.88,0,0,1,.041-1.215c.132-.237.41-.677.41-.677l-.28.784.32-.232a3.276,3.276,0,0,1-.057.589c-.062.306.239-.366.3-.078a2.8,2.8,0,0,1-.087.9s.178-.873.349-.543.334.756.334.756-.17-1.959-.158-2.083a4.016,4.016,0,0,0,0-1.126c-.082-.6-.2-1.209-.394-1.262a1.318,1.318,0,0,1-.453-.33s-.063-.215-.122-.408-.148-.355-.365-.379-.688.3-.773.216a1.6,1.6,0,0,0-.882-.421A.965.965,0,0,0,46,54.2s.056-.088-.5-.022-.638-.035-.889.611-.142,1.141-.392,1.146l-.251.006s.075.2.23.212.288-.235.4-.458.64-.95.765-.952.343.02.343.02a4.172,4.172,0,0,1-.536.68,5.58,5.58,0,0,0-.57.55s.3-.314.568-.206.2.646.044.677a2.433,2.433,0,0,0-.594.313c-.051.042.156,0,.45.047s-.186.293-.221.494.534-.179.726-.222a3.8,3.8,0,0,0,.674-.336,2.52,2.52,0,0,0,.027.535,1.957,1.957,0,0,0,.414.56s-.1-.088-.113-.6.242-1.039.476-1.03S47.962,55.959,47.99,55.665Z"/><path class="cls-3" d="M108.512,56.041a5.778,5.778,0,0,1,.984-.135.9.9,0,0,0,.427-.094l-.2.214a.639.639,0,0,0,.347.023c.14-.049-.363.211-.363.211s.286.078.4.124-.162.009-.25-.011a1.049,1.049,0,0,0-.3.033,2.916,2.916,0,0,1,.593.307c.09.1-.128-.022-.379-.032s-1.524.183-1.524.183-.064-.409.067-.536A1.012,1.012,0,0,0,108.512,56.041Z"/><path class="cls-3" d="M109.734,59.019a.73.73,0,0,0,.44-.01.669.669,0,0,1,.588-.09c.193.1.017-.161-.125-.159s-.348-.01-.348-.01a1.843,1.843,0,0,1,.277-.183,3.138,3.138,0,0,0,.464-.372l-.549.275.365-.419-.572.235Z"/><path class="cls-4" d="M108.123,56.64a3.455,3.455,0,0,1,1.042-.222,2.219,2.219,0,0,1,1.162.6,1.229,1.229,0,0,1,.291.573,2.135,2.135,0,0,1-.524,1.158c-.345.341-.869.729-1.136.659s-1.077-.126-1.268-.751.4-1.662.4-1.733A2.857,2.857,0,0,1,108.123,56.64Z"/><path class="cls-3" d="M107.925,57.865s.266-.223.378-.345.15-.121.322-.089a2.235,2.235,0,0,0,.354.03l-.133-.139a1.747,1.747,0,0,0,.408-.214c.264-.17-.285.105-.25-.108a.419.419,0,0,1,.252-.3s-.237.063-.207-.1a3.673,3.673,0,0,1,.19-.521s-.354.459-.505.507-.449.125-.449.125l.436-.224-.231-.029a1.875,1.875,0,0,1,.261-.23c.149-.107-.249.061-.163-.089a1.645,1.645,0,0,1,.4-.351s-.427.3-.368.093.161-.459.161-.459-.714.91-.769.958a2.314,2.314,0,0,0-.453.484c-.207.292-.4.6-.338.7a.765.765,0,0,1,.062.323s-.059.118-.111.225a.261.261,0,0,0,0,.309c.085.1.418.146.419.218a.939.939,0,0,0,.21.535.568.568,0,0,0,.386.111s-.059.016.206.21.26.272.627.095.52-.434.63-.335l.11.1a.2.2,0,0,0-.014-.183c-.06-.069-.218-.015-.358.034a2.012,2.012,0,0,1-.71.1c-.056-.05-.14-.147-.14-.147a2.419,2.419,0,0,1,.5-.076,3.245,3.245,0,0,0,.466-.008s-.253.016-.327-.139.173-.36.254-.309a1.422,1.422,0,0,0,.38.1c.039,0-.066-.063-.174-.2s.2-.051.294-.123-.3-.138-.4-.2a2.171,2.171,0,0,0-.424-.127,1.484,1.484,0,0,0,.2-.241,1.152,1.152,0,0,0,.047-.407s.008.078-.194.306-.522.349-.619.251S108.055,57.75,107.925,57.865Z"/><path class="cls-2" d="M106.935,61.532s-.007.2-.013.293a4.344,4.344,0,0,0,.225-.565.292.292,0,0,1,.122.405c-.135.279.136-.289.217-.251s.219.49.273.553a.915.915,0,0,0,.191.137s-.161-.1-.157-.448a1.322,1.322,0,0,1,.086-.515s.148.2.237.231a.267.267,0,0,0,.188-.02s-.083-.012-.106-.248a2.863,2.863,0,0,0-.185-.8c-.071-.1-.24-.375-.24-.375a4.125,4.125,0,0,1-.5.944A1.828,1.828,0,0,0,106.935,61.532Z"/><path class="cls-3" d="M104.532,59.6s-.031.467-.066.693a2.1,2.1,0,0,1-.127.441l.127-.148.055.427s.178-.437.2-.345a1.372,1.372,0,0,1,.112.438c-.015.149.224-.441.224-.441l-.181-1.44Z"/><path class="cls-4" d="M105.772,58.637s-.837.53-.966.828a2.013,2.013,0,0,0,.145,1.3,11.123,11.123,0,0,0,.753.925c.089.1.142.192.459.181a1.961,1.961,0,0,0,1.3-.727,2.247,2.247,0,0,0,.329-1.828C107.577,59,107.2,57.822,105.772,58.637Z"/><path class="cls-5" d="M106.4,58.3a.639.639,0,0,0-.456-.063,2.734,2.734,0,0,0-.843.535,2.144,2.144,0,0,1-.45.445,6.263,6.263,0,0,1-.573.359s.436-.251.4-.057a.8.8,0,0,0,0,.331s.326-.616.29-.377.038.2.038.2.185-.333.252-.283.026.184.026.184a1.049,1.049,0,0,1,.3-.435c.175-.105.516-.271.516-.271s.037.126-.171.236a.856.856,0,0,1-.312.115l.146.056-.316.363s.478-.47.517-.382a.29.29,0,0,1-.057.368,2.377,2.377,0,0,1-.35.308s.335-.284.337-.114a1.681,1.681,0,0,1-.094.437s.358-.425.5-.416.2.216.236.329a.51.51,0,0,0,.18.208s-.312-.262-.054-.453.627-.186.825-.348a1.707,1.707,0,0,0,.314-.337.965.965,0,0,1,.108.5c-.051.179-.127.54-.127.54l.148-.18.138.355.034-.128s.223.146.191.346-.047.407-.047.407l.185-.542s.19.333.285.372-.2-.32-.259-.578a7.758,7.758,0,0,0-.188-.945,1.89,1.89,0,0,0-.7-.869c-.2-.066-.068.047-.068.047a.591.591,0,0,1-.135-.211.7.7,0,0,0-.126-.426c-.138-.159-.24-.277-.317-.295s-.266.027-.213.1.219.1.346.233a.714.714,0,0,1,.15.369,1.911,1.911,0,0,0-.347-.024A1.1,1.1,0,0,1,106.4,58.3Z"/><path class="cls-2" d="M118.166,52.13s.27.083.391.125a6.021,6.021,0,0,0-.682-.512.409.409,0,0,1,.593-.017c.328.285-.343-.289-.262-.385s.745-.118.849-.169a1.265,1.265,0,0,0,.256-.209s-.2.181-.664.05a1.85,1.85,0,0,1-.668-.3,1.3,1.3,0,0,0,.4-.236.385.385,0,0,0,.041-.263s-.046.108-.375.053a4.021,4.021,0,0,0-1.154-.042c-.156.062-.595.189-.595.189a5.789,5.789,0,0,1,1.095,1.025A2.57,2.57,0,0,0,118.166,52.13Z"/><path class="cls-3" d="M114.663,54.68s.622.213.916.342a2.969,2.969,0,0,1,.551.333l-.154-.225.6.081s-.527-.4-.395-.394a1.942,1.942,0,0,1,.635.007c.2.076-.517-.464-.517-.464l-2.017-.28Z"/><path class="cls-4" d="M113.818,52.649a5.226,5.226,0,0,0,.768,1.612,2.823,2.823,0,0,0,1.815.277,16.14,16.14,0,0,0,1.529-.681c.173-.084.311-.123.413-.557a2.758,2.758,0,0,0-.512-2.021,3.159,3.159,0,0,0-2.357-1.115C114.97,50.337,113.233,50.42,113.818,52.649Z"/><path class="cls-3" d="M113.594,51.672a.893.893,0,0,0-.252.594,3.826,3.826,0,0,0,.417,1.338,3.056,3.056,0,0,1,.439.773,8.766,8.766,0,0,1,.277.907s-.181-.683.068-.56a1.13,1.13,0,0,0,.448.125s-.716-.666-.405-.531.282.021.282.021-.384-.372-.292-.445.259.032.259.032a1.475,1.475,0,0,1-.48-.567c-.078-.276-.179-.8-.179-.8s.185,0,.258.319a1.231,1.231,0,0,1,.043.464l.127-.177.378.56s-.462-.819-.329-.84a.409.409,0,0,1,.477.212,3.251,3.251,0,0,1,.29.587s-.262-.558-.031-.5a2.366,2.366,0,0,1,.558.287s-.445-.64-.382-.829.366-.191.533-.2a.721.721,0,0,0,.347-.168s-.469.327-.634-.093-.022-.917-.17-1.245a2.409,2.409,0,0,0-.342-.548,1.353,1.353,0,0,1,.72.038c.225.134.686.368.686.368l-.19-.266.531-.057-.16-.094s.278-.248.537-.131.535.212.535.212l-.666-.448a1.969,1.969,0,0,0,.607-.251c.087-.114-.509.16-.877.139a10.923,10.923,0,0,0-1.35-.089,2.64,2.64,0,0,0-1.435.636c-.163.251.039.11.039.11a.831.831,0,0,1-.335.1.984.984,0,0,0-.623.016A1.359,1.359,0,0,0,112.8,51c-.053.1-.061.371.06.327s.216-.261.441-.384a1,1,0,0,1,.556-.069,2.625,2.625,0,0,0-.16.462A1.539,1.539,0,0,1,113.594,51.672Z"/><path class="cls-9" d="M132.208,113.717s-3.141-1.6-3.584-2.876a6.355,6.355,0,0,0-1.052-1.974l-1.154,4.127a16.012,16.012,0,0,1-1.432-1.958,6.366,6.366,0,0,0-.9-1.252s-1.229.051-1.155,2.031a6.882,6.882,0,0,0,.6,2.911s.371.146-2.247-1.687a15.121,15.121,0,0,1-4-4.172s-1.387,2.007-.891,3.229,2.265,4.2,2.265,4.2-2.165-.45-2.658-1.52a3.366,3.366,0,0,0-1.788-1.515,11.491,11.491,0,0,1,1.322,2.246c.129.6,1.775,1.5,1.775,1.5a17.192,17.192,0,0,0-3.831.379,10.876,10.876,0,0,1-2.58.474l4.816.472s-4.215,1.852-4.1,2.464,1.246.084,2.43.651a7.739,7.739,0,0,0,2.487.655s-3,1.422-3.519,2.588a16.973,16.973,0,0,1-1.711,2.715l2.593-.637s-2.439,3.79-2.669,5.249-.376,2.1-.376,2.1.2-.754,2.485-2.18,2.047-2.552,2.047-2.552a23.171,23.171,0,0,0,.261,6.039,15.856,15.856,0,0,0,1.084,3.608,22.524,22.524,0,0,0,1.273-3.34,10.534,10.534,0,0,1,1.217-2.869,29.42,29.42,0,0,0,1.861,4.354c.986,1.725,2.1-3.964,2.1-3.964s1.718,3.211,2.322,4.346S126,139,126,139a20.03,20.03,0,0,0,1.566-3.064c.245-.9,4.458-3.211,4.458-3.211l3.706-6.643-1.491-10.252Z"/><path class="cls-10" d="M133.585,115.023a20.919,20.919,0,0,0-8.833-.393c-4.5.883-8.316,3.418-8.214,7.474s1.374,7.282,3.858,9.418,10.785.7,11.63,1.205,7.918-9.4,7.918-9.635S133.585,115.023,133.585,115.023Z"/><path class="cls-9" d="M136.3,125a37.9,37.9,0,0,1-3.92-3.8,9.092,9.092,0,0,1-1.613-3.912L133.2,118.6s-1.656-2.2-1.614-3.593,1.7-4.78,1.7-4.78-.482,4.093,2.752,6.02,3.6,1.631,4.883,4.035a12.172,12.172,0,0,1,1.24,5.251s1.848.716-1.023,3.048-4.589,1.894-6.426,3.275-3.1,1.207-3.73,2.556-2.058,2.868-2.177,3.459a3.813,3.813,0,0,1-.346,1s-2.2-1.487-1.015-3.386,1.91-2.847,1.91-2.847l-3.029,1.585,5.252-3.924-7.166.026a12.82,12.82,0,0,0,5.363-1.653c3.3-1.682,4.35-1.59,4.35-1.59s-5.479.3-5.892-1.68a14.112,14.112,0,0,0-.811-3.3,32.082,32.082,0,0,0,4.161,1.858C133.132,124.312,136.3,125,136.3,125Z"/><path class="cls-11" d="M119.5,118.6c.149.145.039.256.029.366a1.543,1.543,0,0,0-.018.438c.064.3.168.6.246.9a2.982,2.982,0,0,0,.484.943c.311-.095.65-.172.961-.3a6.055,6.055,0,0,1,1.5-.474,2.907,2.907,0,0,0,.6-.221c.149-.057.294-.125.448-.168.124-.035.224.05.169.149a.908.908,0,0,1-.284.329,7.365,7.365,0,0,1-.78.405c-.255.121-.518.23-.782.335-.3.117-.6.223-.9.335-.256.1-.509.2-.769.292a.222.222,0,0,0-.172.261c.015.248,0,.5.037.744a2.248,2.248,0,0,0,.19.444,3.2,3.2,0,0,1,.278.99,1.213,1.213,0,0,0,.186.445,3.824,3.824,0,0,1,.4.734,1.739,1.739,0,0,0,.484.792c.116.117.255.217.412.348-.014.148-.054.186-.213.117a1.331,1.331,0,0,1-.7-.506c-.025-.044-.043-.1-.086-.127a1.534,1.534,0,0,1-.572-.91,1.109,1.109,0,0,0-.137-.273,3.376,3.376,0,0,1-.539-1.188,3.6,3.6,0,0,1-.2-1.126,1.226,1.226,0,0,0-.091-.361c-.4.095-.566.48-1,.52a.292.292,0,0,1,.058-.3c.223-.294.434-.595.679-.875a.45.45,0,0,0,.128-.466c-.134-.485-.247-.976-.338-1.468A1.563,1.563,0,0,1,119.5,118.6Z"/></svg>