<svg id="word" xmlns="http://www.w3.org/2000/svg" viewBox="0 0 160 160"><defs><style>.cls-1,.cls-10,.cls-11{fill:#fde1d3;}.cls-1,.cls-10,.cls-11,.cls-12,.cls-14,.cls-15,.cls-16,.cls-2,.cls-3,.cls-4,.cls-5,.cls-6,.cls-7,.cls-8,.cls-9{stroke:#9d4b9c;}.cls-1,.cls-10,.cls-11,.cls-12,.cls-14,.cls-15,.cls-2,.cls-3,.cls-4,.cls-6,.cls-8{stroke-miterlimit:10;}.cls-1,.cls-2,.cls-3,.cls-4,.cls-5,.cls-6,.cls-7,.cls-9{stroke-width:0.399px;}.cls-2{fill:#ee392c;}.cls-12,.cls-3,.cls-9{fill:#fff;}.cls-15,.cls-16,.cls-4,.cls-8{fill:none;}.cls-5{fill:#7b8069;}.cls-6{fill:#ef5a8e;}.cls-7{fill:#d3de48;}.cls-8{stroke-width:0.998px;}.cls-10,.cls-11,.cls-12,.cls-14,.cls-15,.cls-16{stroke-width:0.499px;}.cls-11,.cls-15,.cls-16{stroke-linecap:round;}.cls-13{fill:#9c4c9c;}.cls-14{fill:#c2976a;}</style></defs><path class="cls-1" d="M84.453,111.432s2.028,5.746,1.606,7.1-3.633,10.054-4.225,11.575a9.538,9.538,0,0,0-.591,4.309,13.753,13.753,0,0,0,.845,3.464l-4.309,1.268a40.989,40.989,0,0,0-.423-5.154c-.338-1.606-.422-7.1.423-9.463s2.2-5.83,2.2-5.83l-2.861-8.2Z"/><path class="cls-1" d="M79.169,143.032a4.607,4.607,0,0,1-1.027-.868,6.308,6.308,0,0,1-.753-1.247L75.8,137.751a4.736,4.736,0,0,0-.046.888c.084,1.093,1.507,3.524,2.937,4.88C78.83,143.371,78.993,143.206,79.169,143.032Z"/><path class="cls-2" d="M81.243,134.414s.253,1.183-.423,1.352-2.7.338-2.7.338a12.048,12.048,0,0,1-.685-1.69c-.076-.422-.738-.737-1,.338a26.694,26.694,0,0,0-.63,3l1.592,3.166a6.308,6.308,0,0,0,.753,1.247,4.607,4.607,0,0,0,1.027.868,8.1,8.1,0,0,1,2.447-1.858,3.556,3.556,0,0,1,2.232.042,4.976,4.976,0,0,0-.24-.972C83.1,138.808,81.243,134.414,81.243,134.414Z"/><path class="cls-3" d="M79.169,143.032c-.176.174-.339.339-.481.487l.02.02c1.436,1.352,3.549,2.113,4.394.761a4.445,4.445,0,0,0,.746-3.084,3.556,3.556,0,0,0-2.232-.042,8.1,8.1,0,0,0-2.447,1.858"/><path class="cls-4" d="M78.768,137.293a5.358,5.358,0,0,1,2.174-.506,1.746,1.746,0,0,1,.76.119"/><path class="cls-4" d="M79.14,138.832c-.027-.035.024-.077.066-.091a8.016,8.016,0,0,1,2.787-.42"/><path class="cls-1" d="M95.566,109.816s2.028,5.746,1.605,7.1-3.633,10.054-4.224,11.575a9.539,9.539,0,0,0-.592,4.309,13.8,13.8,0,0,0,.845,3.464l-4.309,1.268a40.925,40.925,0,0,0-.422-5.154c-.338-1.605-.423-7.1.422-9.463s2.2-5.83,2.2-5.83l-2.861-8.2Z"/><path class="cls-1" d="M90.281,141.416a4.629,4.629,0,0,1-1.027-.868A6.3,6.3,0,0,1,88.5,139.3l-1.592-3.166a4.751,4.751,0,0,0-.047.888c.084,1.093,1.508,3.524,2.937,4.88C89.943,141.755,90.105,141.59,90.281,141.416Z"/><path class="cls-2" d="M92.355,132.8s.254,1.183-.422,1.352-2.7.338-2.7.338a12.173,12.173,0,0,1-.685-1.69c-.075-.422-.737-.737-1,.338a26.85,26.85,0,0,0-.629,3L88.5,139.3a6.3,6.3,0,0,0,.752,1.247,4.629,4.629,0,0,0,1.027.868,8.1,8.1,0,0,1,2.447-1.858,3.556,3.556,0,0,1,2.232.042,5.062,5.062,0,0,0-.239-.972C94.214,137.192,92.355,132.8,92.355,132.8Z"/><path class="cls-3" d="M90.281,141.416c-.176.174-.338.339-.481.487l.02.02c1.437,1.352,3.549,2.113,4.394.761a4.435,4.435,0,0,0,.746-3.084,3.556,3.556,0,0,0-2.232-.042,8.1,8.1,0,0,0-2.447,1.858"/><path class="cls-4" d="M89.88,135.677a5.366,5.366,0,0,1,2.174-.506,1.765,1.765,0,0,1,.761.119"/><path class="cls-4" d="M90.253,137.216c-.027-.035.024-.077.065-.091a8.019,8.019,0,0,1,2.787-.42"/><path class="cls-5" d="M75.077,96.947a12.318,12.318,0,0,0-.316,6.748c.948,3.268,2.214,9.489,2.214,9.489a27.09,27.09,0,0,0,5.588.633c1.476-.211,3.585-.422,3.585-.422s-1.055-8.013-1.055-8.435c0-2.741.844-.422,1.055.106s2.741,8.013,2.741,8.013a31.482,31.482,0,0,0,5.693-.317c1.687-.421,3.374-1.054,3.374-1.054s-3.8-8.435-3.69-9.595.1-5.377.1-5.377Z"/><path class="cls-6" d="M48.976,81.607l1.516,3.98s2.188,5.905,2.528,6.159,1.777.591,2.03,0a3.6,3.6,0,0,0-.116-1.806l-2.926-8.925A1.968,1.968,0,0,0,48.976,81.607Z"/><path class="cls-1" d="M81.75,67.835l-1.437,4.731s6.337,5.239,8.365,3.549.507-5.6.507-5.6l.547-2.678Z"/><path class="cls-7" d="M81.074,70.538c-.254-.084-4.647-.507-5.661,1.69a43.912,43.912,0,0,1-5.477,7.6c-.607.507-6.183,2.308-7.788,2.971a17.225,17.225,0,0,1-4.648.747,5.347,5.347,0,0,0,0,3.549,20.375,20.375,0,0,1,.845,2.957s.423.591,5.746,0a12.982,12.982,0,0,0,9.547-4.985c2.113-2.366,2.535-2.957,2.535-2.957a13.087,13.087,0,0,1,.085,6.759A75.828,75.828,0,0,0,74.314,98a73.35,73.35,0,0,0,9.725,1.69,30.059,30.059,0,0,0,11.232-1.352S95,92.2,94.582,86.087c-.189-2.744-.074-6.255-.074-6.255a65.133,65.133,0,0,0,8.2,4.394c3.379,1.352,8.787-.169,8.871-.422a8.967,8.967,0,0,1,2.028-1l.423-3.562s.338.253-4.563-.422-6.168,0-7.52-1.352a69.506,69.506,0,0,0-6.672-5.915c-1.354-.845-6.086-1.039-6.086-1.039s1.846,4.972-2.852,4.82C82.4,75.206,81.074,70.538,81.074,70.538Z"/><path class="cls-1" d="M57.3,84.256s-1.493.7-2,0-3.211-4.677-3.3-3.241S53.4,85.252,53.4,85.252l1.258,3.368L57.3,88.2Z"/><path class="cls-1" d="M49.787,83.735s-2.14.18-1.269.927,3.576.98,3.914.22-.155-1.019-.747-1.019S49.787,83.735,49.787,83.735Z"/><path class="cls-1" d="M49.051,85.216a1.052,1.052,0,0,0,.307,1.365c.76.507,3.36.42,3.343-.256S49.584,85.035,49.051,85.216Z"/><path class="cls-1" d="M52.7,87.038s-2.889-.7-2.72.568,2.23.507,2.72.422S53.985,87.061,52.7,87.038Z"/><path class="cls-1" d="M52.732,88.014s-2.035.458-1.712,1.3,1.9-.289,2.435-.651S53.717,87.676,52.732,88.014Z"/><path class="cls-8" d="M50.492,80.8a100.338,100.338,0,0,1,3.9-12.967c2.267-5.661,3.356-24.89,2.811-30.46S56.909,9.22,79.553,7.192s26.277,24.027,26.615,25.6,2.7,18.074,4.731,25.839S118.281,74.1,118.281,74.1"/><path class="cls-9" d="M79.553,70.45l1.581-.587s1.54,4.314,4.208,4.773,3.589-.7,3.589-1.331.254-2.792.254-2.792l1.136.07s1.652,4.513-.249,5.868-6.464.783-8.048-.8S79.553,70.45,79.553,70.45Z"/><path class="cls-9" d="M58.641,82.937a22.865,22.865,0,0,0,1.014,4.651,13.03,13.03,0,0,1,.887,3.017H58.261a21.744,21.744,0,0,1-1.584-4.167c-.254-1.473-.444-3.5-.444-3.5Z"/><path class="cls-6" d="M119.636,74.061l.158,4.256s.29,6.291.076,6.657-1.405,1.238-1.87.793a3.6,3.6,0,0,1-.6-1.709l-.789-9.358A1.967,1.967,0,0,1,119.636,74.061Z"/><path class="cls-1" d="M113,79.75s1.65.066,1.841-.781,1.132-5.559,1.77-4.269.374,4.442.374,4.442l.157,3.592L113,83.379Z"/><path class="cls-1" d="M119.721,76.337s2.04-.669,1.53.359-2.91,2.3-3.518,1.729-.255-1,.29-1.229S119.721,76.337,119.721,76.337Z"/><path class="cls-1" d="M120.976,77.413a1.053,1.053,0,0,1,.251,1.377c-.5.764-2.931,1.7-3.179,1.069S120.414,77.455,120.976,77.413Z"/><path class="cls-1" d="M118.326,80.515s2.388-1.771,2.727-.538-1.856,1.337-2.34,1.45S117.153,81.038,118.326,80.515Z"/><path class="cls-1" d="M118.679,81.426s2.052-.373,2.084.531-1.863.477-2.5.351S117.64,81.5,118.679,81.426Z"/><path class="cls-9" d="M112,78.5l-.317,6.178,2.35-.475s.438-3.422.438-4.309V78.5Z"/><path class="cls-10" d="M75.423,57.633s.252,5.12,1.363,7.265,6.235,3.941,7.891,4.572,2.47.257,5.041-.835S96.692,64.27,96.7,62.28s.337-7.97-1.285-10.235-.626-4.669-5.882-3.723S78.4,52.652,77.712,54.079A27.962,27.962,0,0,1,75.423,57.633Z"/><path class="cls-11" d="M85.182,61.8a.842.842,0,0,1,1.45.04"/><path class="cls-12" d="M83.278,58.754s.515-1.983-.936-2.345-2.118,1.281-1.966,2.214S82.013,60.814,83.278,58.754Z"/><ellipse class="cls-13" cx="82.546" cy="58.293" rx="1.099" ry="0.829" transform="translate(-6.857 105.4) rotate(-63.014)"/><path class="cls-12" d="M92.105,59.517s.516-1.983-.936-2.345-2.118,1.281-1.966,2.214S90.84,61.577,92.105,59.517Z"/><ellipse class="cls-13" cx="91.162" cy="58.885" rx="1.099" ry="0.829" transform="translate(-2.677 113.402) rotate(-63.014)"/><path class="cls-14" d="M91.972,48.948S90.528,53.266,88.2,54.6a23.477,23.477,0,0,1-7.266,2.628c-1.252.056-1.4-.329-1.4-.329a13.3,13.3,0,0,0,3.912-1.531,15.733,15.733,0,0,0,2.73-2.455S82.8,54.978,81.446,55.6,76.8,58.091,76.8,58.091s.832-1.343,1.608-2.37,1.516-2.227,1.516-2.227S76.54,57.516,76.27,58.41s.361,4.554.361,4.554a24.509,24.509,0,0,0,1.014,5.069c.766,1.709,3.539,3.377,3.539,3.377s-3.078.769-4.758-.669c-3.359-2.876-.278-5.28-.268-7.269s-5.752-8.6-3.084-13.6,4.26-5.159,8.619-6.722c4.683-1.678,8.818-1.236,10.19,1.363a3.4,3.4,0,0,1,.206,1.015,4.885,4.885,0,0,1,3.894.783c2.509,1.784,3.034,5.423,3.683,8.16s-2.641,7.062-3.739,9.792,1.284,4.476-.816,5.78A19.333,19.333,0,0,1,89.793,72s4.645-4.3,5.738-7.735.357-4.168.43-5.826c.085-1.9.955-5.669-.144-5.219C93.183,54.3,91.972,48.948,91.972,48.948Z"/><path class="cls-15" d="M89.792,54.461a1.466,1.466,0,0,1,.984-.273,2.868,2.868,0,0,1,1,.279,2.954,2.954,0,0,1,1.435,1.2"/><path class="cls-16" d="M81.861,63.27s.9.916,3.515,1.092c3.461.232,4.631-.988,4.631-.988"/><path class="cls-7" d="M74.655,61.969a4.242,4.242,0,0,0,1.424-.316l.316-.237.712,3.084s-1.661.474-2.136,0S74.655,61.969,74.655,61.969Z"/><path class="cls-7" d="M95.768,62.76,94.345,66s1.265.712,1.5,0,1.028-3.242,1.028-3.242Z"/></svg>