<svg id="word" xmlns="http://www.w3.org/2000/svg" viewBox="0 0 160 160"><defs><style>.cls-1{fill:#64b0c8;stroke-width:0.394px;}.cls-1,.cls-2,.cls-3,.cls-5,.cls-6,.cls-7{stroke:#9d4b9c;stroke-miterlimit:10;}.cls-2,.cls-4{fill:#9b4a9a;}.cls-2{stroke-width:0.398px;}.cls-3{fill:#fff;}.cls-3,.cls-5,.cls-6,.cls-7{stroke-width:0.282px;}.cls-5{fill:#fbef5f;}.cls-6{fill:#f89c38;}.cls-7{fill:#ea242c;}</style></defs><path class="cls-1" d="M57.869,11.491s24.649-1.35,30.881-.862c2.2.172,10.8.189,12.958.835s1.587,5.223,1.873,9.409c.375,5.5.215,22.78.109,24.041s-1.727,2.919-1.727,2.919l-45.109.426s-.67-28.356-.589-29.65S55.544,12.354,57.869,11.491Z"/><path class="cls-1" d="M81.606,149.209l16.115-1.168s5.124-.466,5.969-3.485.265-25.34-.109-33.587-.1-58.355.045-59.509.269-3.817-2.223-3.676-44.549.475-44.549.475.4,32.731,0,35.942-1.988,57.266,0,62.694C58.225,150.64,81.606,149.209,81.606,149.209Z"/><path class="cls-2" d="M79.873,43.634v1.28s14.965-.709,16.536-.64c4.432.2,4.372-1.65,3.682-2.517S79.873,43.634,79.873,43.634Z"/><path class="cls-3" d="M72.578,66.867s3.578.4,5.831.4,7.82.133,7.82.133-1.59,4.9-1.59,6.362-.133,4.374,0,4.771-1.591,1.458-3.446,1.325-8.748-.662-8.748-.662,1.061-5.567.53-7.952A17.151,17.151,0,0,1,72.578,66.867Z"/><path class="cls-4" d="M98.855,63.582h0c.6-.12,1.12.534,1.118,1.4l-.128,48.172c0,.79-.445,1.45-.994,1.481l-.538.03c-.568.032-1.029-.619-1.017-1.436l.667-48.2A1.414,1.414,0,0,1,98.855,63.582Z"/><path class="cls-5" d="M77.558,84.857s1.2,3.4,1.406,4.3,1.024,7.926,1.024,7.926,9.18-2.614,9.851-2.695c3.149-.383,1.676-2.158,1.307-3.161s-1.164-9.118-1.164-9.118Z"/><polygon class="cls-6" points="82.939 68.665 81.466 68.067 80.139 68.941 80.252 67.355 79.011 66.363 80.554 65.981 81.114 64.493 81.954 65.843 83.542 65.916 82.518 67.132 82.939 68.665"/><polygon class="cls-7" points="90.526 83.347 88.617 83.659 87.402 82.222 88.096 80.472 90.004 80.16 91.219 81.598 90.526 83.347"/></svg>