<svg id="word" xmlns="http://www.w3.org/2000/svg" viewBox="0 0 160 160"><defs><style>.cls-1{fill:gold;}.cls-1,.cls-10,.cls-2,.cls-3,.cls-5,.cls-7,.cls-8,.cls-9{stroke:#9d4b9c;stroke-miterlimit:10;}.cls-2,.cls-9{fill:#ffd083;}.cls-3{fill:#f16322;}.cls-4{fill:#ed4f9b;}.cls-5{fill:#ee3f5f;}.cls-6{fill:#231f20;}.cls-7{fill:#f9ec31;}.cls-8{fill:#f16e81;}.cls-10,.cls-9{stroke-linecap:round;}.cls-10{fill:none;}</style></defs><path class="cls-1" d="M79.449,139.072a7.854,7.854,0,0,1-2.607-.109c-.074-.02-.143-.057-.215-.082.476,4.033,1.112,7.617,1.96,9.564,2.767,6.354,6.61,4.892,7.887,1.948.492-1.135.726-6.222.829-12.042a8.825,8.825,0,0,1-2.047.318Zm5.41,4.9a4.294,4.294,0,0,1-.533,1.621,2.007,2.007,0,0,1-1.356.964,2.034,2.034,0,0,1-1.591-.548,4.714,4.714,0,0,1-1-1.406c-.471-.914-.6-.394-.868-1.389l-.232-1.784,5.687.186A10.38,10.38,0,0,1,84.859,143.969Z"/><path class="cls-2" d="M75.3,118.312s.252,11.438,1.33,20.569c.072.025.141.062.215.082a7.854,7.854,0,0,0,2.607.109l5.807-.4a8.825,8.825,0,0,0,2.047-.318c.164-9.282-.007-20.435-.007-20.435Z"/><path class="cls-2" d="M79.507,143.211c.264.995.4.475.868,1.389a4.714,4.714,0,0,0,1,1.406,2.034,2.034,0,0,0,1.591.548,2.007,2.007,0,0,0,1.356-.964,4.294,4.294,0,0,0,.533-1.621,10.38,10.38,0,0,0,.1-2.356l-5.687-.186Z"/><path class="cls-2" d="M85.692,58.371,81.979,63.94s2.6,5.2,5.755,5.2,5.754-2.6,5.754-2.6a32.614,32.614,0,0,0,0-4.359C93.3,60.97,85.692,58.371,85.692,58.371Z"/><path class="cls-2" d="M77.524,32.013S75.3,47.358,75.3,49.585s1.98,9.653,13.612,12.128a19.17,19.17,0,0,0,19.8-7.425c1.238-1.98,6.93-22.275,6.93-22.275S105,25.083,99.552,25.083,77.524,32.013,77.524,32.013Z"/><path class="cls-3" d="M98.871,16.791s-5.2-5.383-12.251-3.9-15.778,7.673-16.149,12.19S75.3,37.953,75.3,37.953s.928-6.869,2.227-5.94S93.74,27.335,96.4,25.293,98.871,16.791,98.871,16.791Z"/><path class="cls-3" d="M98.871,16.791s10.89-5.011,16.768-.371,10.89,14.108,8.663,19.119-12.679,10.249-12.679,10.249l.7-7.835s-7.139-6.107-9.737-7.88-6.183-4.78-6.183-4.78Z"/><polygon class="cls-4" points="92.374 38.324 89.219 45.677 93.571 46.491 92.374 38.324"/><path class="cls-2" d="M51.537,69.139s-11.509,3.711-9.1,7.8S54.878,75.82,54.878,75.82Z"/><path class="cls-2" d="M111.32,90.484l8.341-4.527s6.868,10.653,1.114,11.767-9.455-5.884-9.455-5.884Z"/><path class="cls-5" d="M83.148,62.187l-15.3-1.8L48.494,69.137a8.545,8.545,0,0,1,3.043,3.527c.743,2.042,1.856,5.012,1.856,5.012l17.059-6.868L65.821,84.173s10.59,6.545,16.158,7.727,13.489,2.482,13.489,2.482l4.7-17L110.38,91.9,120.4,87.2S111.576,73.859,110.05,71.87s-15.634-6.445-15.634-6.445h-.877s-3.681,2.227-5.764,1.671S83.148,62.187,83.148,62.187Z"/><ellipse class="cls-6" cx="82.671" cy="38.324" rx="1.991" ry="2.042"/><ellipse class="cls-7" cx="84.448" cy="73.407" rx="1.919" ry="1.856"/><path class="cls-1" d="M48.659,132.677a7.855,7.855,0,0,1-2.172-1.446c-.053-.055-.093-.122-.142-.181-1.683,3.695-3,7.09-3.282,9.194-.928,6.869,3.116,7.611,5.735,5.755,1.009-.716,3.846-4.944,6.951-9.867a8.837,8.837,0,0,1-1.915-.789Zm2.088,6.993a4.287,4.287,0,0,1-1.3,1.108,2,2,0,0,1-1.659.122,2.031,2.031,0,0,1-1.076-1.294,4.678,4.678,0,0,1-.13-1.722c.071-1.026-.312-.651-.022-1.638l.726-1.645,4.766,3.107A10.4,10.4,0,0,1,50.747,139.67Z"/><path class="cls-2" d="M55.871,112.772s-5.714,9.912-9.526,18.278c.049.059.089.126.142.181a7.855,7.855,0,0,0,2.172,1.446l5.175,2.666a8.837,8.837,0,0,0,1.915.789c4.953-7.852,10.588-17.479,10.588-17.479Z"/><path class="cls-2" d="M46.564,136.246c-.29.987.093.612.022,1.638a4.678,4.678,0,0,0,.13,1.722,2.031,2.031,0,0,0,1.076,1.294,2,2,0,0,0,1.659-.122,4.287,4.287,0,0,0,1.3-1.108,10.4,10.4,0,0,0,1.309-1.962L47.29,134.6Z"/><path class="cls-8" d="M78.44,84.36a77.776,77.776,0,0,1-1.723,11.08c-2.044,8.811-5.6,17.223-8.077,25.906a62.564,62.564,0,0,0,6.164,1.163,211.011,211.011,0,0,0,6.01-37.531Z"/><path class="cls-8" d="M76.722,83.912l-3.831-1a208.1,208.1,0,0,1-21.3,30.232,35.268,35.268,0,0,0,6.323,4.3c.063.033.131.061.2.094,4.141-7.055,9.644-13.381,13.421-20.675A93.293,93.293,0,0,0,76.722,83.912Z"/><path class="cls-5" d="M78.44,84.36l-1.718-.448a93.293,93.293,0,0,1-5.194,12.952c-3.777,7.294-9.28,13.62-13.421,20.675a46.949,46.949,0,0,0,10.533,3.807c2.48-8.683,6.033-17.095,8.077-25.906A77.776,77.776,0,0,0,78.44,84.36Z"/><path class="cls-5" d="M65.522,81.619S59.4,84.9,51.581,88.673c-5.589,2.7-11.675,9.838-11.675,9.838s.687,1.382,2,3.439Q54.366,91.59,67.14,81.619Z"/><path class="cls-5" d="M69.83,82.116a208.147,208.147,0,0,1-24.142,25.028,46.532,46.532,0,0,0,5.9,6,208.1,208.1,0,0,0,21.3-30.232Z"/><path class="cls-8" d="M69.83,82.116l-1.9-.5H67.14Q54.373,91.594,41.91,101.95a53.923,53.923,0,0,0,3.778,5.194A208.147,208.147,0,0,0,69.83,82.116Z"/><path class="cls-5" d="M83.083,85.569l-2.269-.591a211.011,211.011,0,0,1-6.01,37.531,70.1,70.1,0,0,0,7.4.607A211.11,211.11,0,0,0,83.083,85.569Z"/><path class="cls-8" d="M92.905,88.13l-3.735-.974.519,4.962c.281,2.691.563,5.386,1.073,8.043,1.408,7.346,4.544,14.461,5.639,21.769,2.06-.438,3.969-.874,5.689-1.287-1.051-8.515-3.832-16.786-6.608-24.94Z"/><path class="cls-8" d="M111.928,118a57.628,57.628,0,0,0-5.568-14.725,162.62,162.62,0,0,0-8.787-13.931l-2.121-.552a197.853,197.853,0,0,1,13.8,29.99C110.973,118.3,111.928,118,111.928,118Z"/><path class="cls-5" d="M95.452,88.794l-2.547-.664L95.482,95.7c2.776,8.154,5.557,16.425,6.608,24.94,3.022-.726,5.469-1.382,7.165-1.859A197.853,197.853,0,0,0,95.452,88.794Z"/><path class="cls-5" d="M89.689,92.118l-.519-4.962-3.352-.873a206.88,206.88,0,0,0,2.84,28.913,67.8,67.8,0,0,1,1.055,7.73,49.689,49.689,0,0,0,5.963-.841c.247-.051.482-.1.725-.155-1.095-7.308-4.231-14.423-5.639-21.769C90.252,97.5,89.97,94.809,89.689,92.118Z"/><path class="cls-8" d="M85.818,86.283l-2.735-.714a211.11,211.11,0,0,1-.881,37.547,67.027,67.027,0,0,0,7.511-.19,67.8,67.8,0,0,0-1.055-7.73A206.88,206.88,0,0,1,85.818,86.283Z"/><ellipse class="cls-6" cx="102.09" cy="40.366" rx="1.991" ry="2.042"/><path class="cls-9" d="M86.415,48.084a6.8,6.8,0,0,0,3.9,3.378A4.245,4.245,0,0,0,95,49.9"/><path class="cls-3" d="M73.069,37.953S49.681,46.306,49.5,50.389s.928,5.384,3.527,3.9,4.826-5.012,4.826-5.012-9.838,12.086-7.61,12.911,11.034-7.714,11.034-7.714S53.393,63.94,55.435,66.91s7.611-8.539,7.611-8.539S59.7,68.952,62.118,69.137s8.334-14.849,8.334-14.849S65.83,65.982,68.986,66.91,75.3,37.953,75.3,37.953l-2.042-1.671Z"/><path class="cls-3" d="M114.278,46.677S125.972,56.886,128.2,60.784s3.155,8.725,2.042,9.653a1.757,1.757,0,0,1-2.228,0s-1.519,8.167-3.172,7.61-2.346-3.526-2.346-3.526,1.249,9.652-1.35,9.652-5.507-9.467-5.507-9.467,2.537,6.5-1.361,5.383-3.527-10.952-3.527-10.952-1.3,7.24-3.341,4.641,1.3-19.49,1.3-19.49l3.9-7.611Z"/><path class="cls-10" d="M96.252,25.845l-.314,7.327"/><path class="cls-10" d="M97.758,27.116a15.372,15.372,0,0,1,.863,6.331"/><path class="cls-10" d="M88.463,32.9a5.643,5.643,0,0,1,2.227-3.969,17.822,17.822,0,0,1,4.824-2.6,18.611,18.611,0,0,0-2.176,3.149,6.236,6.236,0,0,0-.72,3.7"/><path class="cls-10" d="M100.811,33.748a20.355,20.355,0,0,0-1.33-4.34,6.847,6.847,0,0,0-3.025-3.284"/><path class="cls-7" d="M114.856,44.87a27.78,27.78,0,0,1,6.775-2.877c3.62-.929,8.632.415,8.632.415l-.372,4.057a36.3,36.3,0,0,1-4.455-.677C122.838,45.241,115.6,44.591,114.856,44.87Z"/><path class="cls-7" d="M114.856,44.634a27.768,27.768,0,0,1,7.266,1.174c3.558,1.143,7.084,4.95,7.084,4.95l-2.476,3.236a36.234,36.234,0,0,1-3.409-2.946C121.413,49.2,115.632,44.794,114.856,44.634Z"/><path class="cls-7" d="M73.044,36.4A29.132,29.132,0,0,0,66.7,32.844c-3.465-1.348-8.6-.83-8.6-.83l-.152,3.735a39.22,39.22,0,0,0,4.5.008C65.093,35.624,72.344,36.046,73.044,36.4Z"/><path class="cls-7" d="M73.817,34.973a27.8,27.8,0,0,1-7.031-2.179c-3.363-1.629-6.323-5.891-6.323-5.891l2.9-2.858a36.143,36.143,0,0,1,2.964,3.394C67.962,29.535,73.07,34.706,73.817,34.973Z"/><path class="cls-7" d="M76.339,35.588l-3.448-2.072a11.9,11.9,0,0,1-1.657,2.766c-.743.7-.782,2.642-.782,2.642l5.33,2.326Z"/><path class="cls-7" d="M111.928,43.635l-.608,5.555a8.232,8.232,0,0,0,2.515,0,6.887,6.887,0,0,0,2.027-1.106,6.5,6.5,0,0,0-.223-2.3,5.737,5.737,0,0,1-.213-2.153Z"/></svg>