<svg id="word" xmlns="http://www.w3.org/2000/svg" viewBox="0 0 160 160"><defs><style>.cls-1{fill:#fff;}.cls-1,.cls-2,.cls-3,.cls-4,.cls-5,.cls-6{stroke:#9d4b9c;stroke-miterlimit:10;stroke-width:0.524px;}.cls-2{fill:#e3e4e5;}.cls-3{fill:#eaebec;}.cls-4{fill:#bc80b7;}.cls-5{fill:none;}.cls-6{fill:#231f20;}</style></defs><path class="cls-1" d="M99.315,74.584l-7.3-20.566s-2-6.846-3.107-6.846H83.579V72.626Z"/><path class="cls-2" d="M103,99.73l-8.877-1.984-5.914-1.439s-5.517,3.533-5.517,3.423v2.9l3.884,1.183s-.063,2.319,1.633,3.092,12.35,1.1,12.35,1.1,1.221.773,2.441-2.54A7.644,7.644,0,0,0,103,99.73Z"/><ellipse class="cls-3" cx="101.24" cy="103.726" rx="1.444" ry="3.291"/><path class="cls-1" d="M48.734,66.274l34.29,5.742,42.725,6.735s12.651,2.871,15.425,4.637,5.549,3.644,5.549,3.644l4.882,3.644s4,1.766,1.665,4.195a9.973,9.973,0,0,1-6.88,2.871c-1.665.111-24.081-2.1-27.3-2.429s-52.6-8.723-52.6-8.723S38.524,77.647,35.75,75.438A26,26,0,0,0,29.2,71.905s-6.547-4.858-6.769-5.631,1.887-1.656,1.887-1.656Z"/><path class="cls-4" d="M61.828,71.243s-14.981-4.2-19.642-8.834S23.654,44.964,23.654,44.964a17.611,17.611,0,0,0-4.772-2.244c-2.22-.516-4.994-2.464-4.217,0S26.539,66.164,26.539,66.164s13.539,3.643,20.974,4.416S62.954,71.573,61.828,71.243Z"/><path class="cls-1" d="M32.753,72.126s1.887.3,1.665-.735-5.549-2.909-5.549-2.909l-6.436-2.208L4.566,77.536s3.219,1.546,5.1,1.436,2.73-1.215,4.86-1.657S32.753,72.126,32.753,72.126Z"/><path class="cls-1" d="M105.219,92.553s2.441-.994-1.221-1.877-15.647-3.2-20.419-3.754S66.714,84.588,68.6,85.928s8.212-.884,5.215,4.416-18.532,18.219-20.419,19.213-11.43,7.729-11.208,8.833,8.989,1.435,8.989,1.435S84.689,100.061,85.355,99.4s6.081-1.648,6.092-1.652,7.868,2.094,7.868,2.094a1.61,1.61,0,0,0-.977-1.325c-1-.552-7.546-2.319-7.546-2.319l7.546-2.981S106.661,93.215,105.219,92.553Z"/><path class="cls-5" d="M135.071,89.019s.11,3.534,0,4.2,1.22,1.767,0,1.877-2.775.111-3-1.214-.333-5.3,0-5.852S135.036,87.583,135.071,89.019Z"/><path class="cls-5" d="M90.237,82.726v4.306l-3.218-.883s-1.22-4.236,0-4.327A8.427,8.427,0,0,1,90.237,82.726Z"/><polygon class="cls-6" points="129.799 89.903 129.725 92.185 128.468 91.89 128.468 89.903 129.799 89.903"/><polygon class="cls-6" points="146.556 88.357 144.725 89.682 146.223 91.062 148.11 89.461 146.556 88.357"/><polygon class="cls-6" points="144.337 90.234 145.446 91.427 143.393 91.89 142.561 90.234 144.337 90.234"/><polygon class="cls-6" points="141.84 90.731 142.561 92.332 140.453 92.332 140.453 90.731 141.84 90.731"/><polygon class="cls-6" points="127.339 89.682 127.339 91.669 126.23 91.493 126.23 89.682 127.339 89.682"/><polygon class="cls-6" points="125.157 89.439 125.157 91.427 124.047 91.251 124.047 89.439 125.157 89.439"/><polygon class="cls-6" points="118.221 88.446 118.221 90.433 117.111 90.257 117.111 88.446 118.221 88.446"/><polygon class="cls-6" points="115.817 88.062 115.817 90.05 114.707 89.874 114.707 88.062 115.817 88.062"/><polygon class="cls-6" points="120.533 88.762 120.533 90.749 119.423 90.573 119.423 88.762 120.533 88.762"/><polygon class="cls-6" points="122.919 89.056 122.919 91.044 121.809 90.868 121.809 89.056 122.919 89.056"/><polygon class="cls-6" points="113.674 87.757 113.674 89.745 112.564 89.569 112.564 87.757 113.674 87.757"/><polygon class="cls-6" points="106.738 86.763 106.738 88.751 105.628 88.575 105.628 86.763 106.738 86.763"/><polygon class="cls-6" points="104.333 86.38 104.333 88.368 103.224 88.192 103.224 86.38 104.333 86.38"/><polygon class="cls-6" points="109.05 87.08 109.05 89.067 107.94 88.891 107.94 87.08 109.05 87.08"/><polygon class="cls-6" points="111.436 87.374 111.436 89.362 110.326 89.186 110.326 87.374 111.436 87.374"/><polygon class="cls-6" points="101.24 85.387 101.24 87.374 100.13 87.198 100.13 85.387 101.24 85.387"/><polygon class="cls-6" points="94.304 84.393 94.304 86.38 93.194 86.204 93.194 84.393 94.304 84.393"/><polygon class="cls-6" points="91.9 84.01 91.9 85.997 90.79 85.821 90.79 84.01 91.9 84.01"/><polygon class="cls-6" points="96.616 84.709 96.616 86.696 95.506 86.521 95.506 84.709 96.616 84.709"/><polygon class="cls-6" points="99.002 85.003 99.002 86.991 97.892 86.815 97.892 85.003 99.002 85.003"/><polygon class="cls-6" points="85.114 82.851 85.114 84.839 84.063 84.663 84.063 82.851 85.114 82.851"/><polygon class="cls-6" points="78.547 81.858 78.547 83.845 77.496 83.669 77.496 81.858 78.547 81.858"/><polygon class="cls-6" points="76.27 81.474 76.27 83.462 75.219 83.286 75.219 81.474 76.27 81.474"/><polygon class="cls-6" points="80.736 82.174 80.736 84.161 79.685 83.985 79.685 82.174 80.736 82.174"/><polygon class="cls-6" points="82.995 82.468 82.995 84.456 81.944 84.28 81.944 82.468 82.995 82.468"/><polygon class="cls-6" points="74.099 80.877 74.099 82.864 73.048 82.688 73.048 80.877 74.099 80.877"/><polygon class="cls-6" points="67.532 79.883 67.532 81.87 66.481 81.695 66.481 79.883 67.532 79.883"/><polygon class="cls-6" points="65.255 79.5 65.255 81.487 64.204 81.311 64.204 79.5 65.255 79.5"/><polygon class="cls-6" points="69.721 80.199 69.721 82.187 68.67 82.011 68.67 80.199 69.721 80.199"/><polygon class="cls-6" points="71.98 80.494 71.98 82.481 70.929 82.305 70.929 80.494 71.98 80.494"/><polygon class="cls-6" points="63.14 78.902 63.14 80.89 62.089 80.714 62.089 78.902 63.14 78.902"/><polygon class="cls-6" points="56.572 77.909 56.572 79.896 55.522 79.72 55.522 77.909 56.572 77.909"/><polygon class="cls-6" points="54.296 77.525 54.296 79.513 53.245 79.337 53.245 77.525 54.296 77.525"/><polygon class="cls-6" points="58.762 78.225 58.762 80.212 57.711 80.036 57.711 78.225 58.762 78.225"/><polygon class="cls-6" points="61.021 78.519 61.021 80.507 59.97 80.331 59.97 78.519 61.021 78.519"/><polyline class="cls-4" points="66.378 110.587 52.895 109.98 48.012 113.366 59.942 114.488 66.378 110.587"/><polygon class="cls-4" points="89.297 47.323 83.712 47.323 83.712 50.816 91.096 51.671 89.297 47.323"/><polygon class="cls-4" points="91.551 52.969 83.712 51.92 83.712 56.889 93.419 58.416 91.939 54.276 91.551 52.969"/><path class="cls-4" d="M55.484,116.9,45.2,115.537l-2.294,2.025s-.628.533-.517.717a4.705,4.705,0,0,0,1.054.608l7.638.754,4.624-2.7Z"/></svg>