<svg id="word" xmlns="http://www.w3.org/2000/svg" xmlns:xlink="http://www.w3.org/1999/xlink" viewBox="0 0 160 160"><defs><style>.cls-1{fill:#f48138;}.cls-1,.cls-2,.cls-3,.cls-4{stroke:#9d4b9c;stroke-miterlimit:10;stroke-width:0.75px;}.cls-2{fill:url(#linear-gradient);}.cls-3{fill:#fbb53b;}.cls-4{fill:#fff23e;}</style><linearGradient id="linear-gradient" x1="111.437" y1="120.534" x2="111.155" y2="121.981" gradientUnits="userSpaceOnUse"><stop offset="0.004" stop-color="#ffea70"/><stop offset="0.632" stop-color="#d88f3c"/><stop offset="1" stop-color="#c0571d"/></linearGradient></defs><path class="cls-1" d="M120.792,76.161c-5.476,17.387-1.944,33.416-.842,51.6-11.733-.871-28.918.575-35.141.788-4.586.16-13.807-3.087-22.34-2.27-7.165-12.729-9.926-23.1-10.477-37.694.817,2.168,1.368,3.431,1.368,2.969,0-1.8,2.312-17,1.547-23.183s.765-14.169.765-14.169,9.973,17.263,12.657,23.7,12.285,6.187,12.285,4.64,4.213-11.858,4.978-19.573a54.445,54.445,0,0,1,4.213-15.2s5.387,11.858,3.84,18.542c-1.529,6.7,13.049,27.307,13.049,26.009,0-1.28,4.6-6.951,6.133-17,1.547-10.044,5-11.84,5-11.84s1.458,5.423,2.969,12.658Z"/><path class="cls-2" d="M111.239,120.137c.071,1.369.107,2.276.107,2.276A9.61,9.61,0,0,1,111.239,120.137Z"/><path class="cls-3" d="M120.892,60.6c-2.595,9.423-8.711,20.356-7.84,23.183.871,2.809,2.614,12.711,2.614,12.711s1.949,3.68,2.8,1.938c-2.258,7.609-5.239,10.488-6.146,18.364a6.137,6.137,0,0,0-1.084,3.271c-.178-4.16-.533-12.533-.533-14.133,0-2.134-.8-8.373-.8-8.373s-.96,11.253-2.934,12.906c-1.991,1.654-6.008,10.489-6.008,10.489S99.826,111.8,99.452,105.9a28.153,28.153,0,0,0-2.9-10.524s1.191,7.875.142,11.04c-1.031,3.2-5.938,7.075-4.622,10.24s-4.551-5.956-6.525-10.7c-1.955-4.747,2.329-11.734-4.569-17.44-.409-.338-.64-.569-.764-.676.338.569,1.369,2.933-1.333,7.022-4.2,6.329-2.134,14.862-1.405,17.28.693,2.436-6.631-14.506-7.5-17.315s-2.969,3.537.142,11.04a57.557,57.557,0,0,1,3.822,12.053l-9.76-13.653c.658,1.1,3.414,6.026,3.289,10.186-.071,2.756-3.911,6.347-7.111,8.871-2.258-6.844-8.107-10.631-8.853-17.777.622,2.595,5.333,1.1,5.333,1.1s-.036-11.485-.355-18.667S61.017,71.8,61.355,68.333s-.516-16.925-.516-16.925,1.689,2.649,3.218,9.174c1.138,4.889.551,14.4.195,18.862.587-5.44,2.454-18.436,7.005-23.609,5.831-6.631,1.084-1.422,7.982-12.764,8.267-13.547,6.027-16.231,5.778-16.463.249.054,4.711,1.387,3.68,12.765-1.067,11.7-6.507,19.964-7.5,23.964-1,4.018-.534,13.725.124,15.307s4.729-2.169,5.227-5.245c.5-3.057,1.066-9.546,1.066-9.546s4.16,6.453,3.716,12.5c-.462,6.044-1.351,9.617-.96,13.368.391,3.769,5-6.133,6.169-11.466C97.461,74.146,97,67.3,97,67.3a67.177,67.177,0,0,1,3.591,14.969,50.447,50.447,0,0,0,3.058,13.066s-1.013-13.866.142-21.742c1.174-7.893,12.16-7.822,10.969-19.947-1.191-12.106-2.489-19.537-2.489-19.537S123.488,51.177,120.892,60.6Z"/><path class="cls-4" d="M73.573,44.824c1.2-2.141,2.1-4.623,1.574-7.019a46.783,46.783,0,0,1,2.281,9.93c.23,2.87-1.026,14-6.028,12.078C65.416,57.509,71.934,47.76,73.573,44.824Z"/><path class="cls-4" d="M95.394,52.994c-.884-7.575,3.066-14.792,6.991-21.331a46.91,46.91,0,0,0,.349,29.153c.381,1.11,2.371,5.352,1.486,6.416-1.2,1.442-2.775-.924-3.46-1.816A26.322,26.322,0,0,1,95.394,52.994Z"/><path class="cls-4" d="M87.479,108.885c-.885-7.575,3.065-14.792,6.991-21.331a46.9,46.9,0,0,0,.348,29.153c.381,1.11,2.371,5.352,1.486,6.416-1.2,1.441-2.774-.924-3.459-1.817A26.3,26.3,0,0,1,87.479,108.885Z"/></svg>