<svg id="word" xmlns="http://www.w3.org/2000/svg" xmlns:xlink="http://www.w3.org/1999/xlink" viewBox="0 0 160 160"><defs><style>.cls-1,.cls-10,.cls-11,.cls-12,.cls-2,.cls-3,.cls-4,.cls-5,.cls-7,.cls-8,.cls-9{stroke:#9a4d9c;stroke-width:0.563px;}.cls-1{fill:url(#linear-gradient);}.cls-2{fill:url(#linear-gradient-2);}.cls-3{fill:url(#linear-gradient-3);}.cls-4{fill:url(#linear-gradient-4);}.cls-5{fill:url(#linear-gradient-5);}.cls-6,.cls-7{fill:#717174;}.cls-6{opacity:0.52;}.cls-8{fill:url(#linear-gradient-6);}.cls-9{fill:url(#linear-gradient-7);}.cls-10{fill:url(#linear-gradient-8);}.cls-11{fill:url(#linear-gradient-9);}.cls-12{fill:#57c4f1;}</style><linearGradient id="linear-gradient" x1="152.857" y1="2624.716" x2="179.419" y2="2624.716" gradientTransform="translate(1316.644 -2238.091) rotate(30.299)" gradientUnits="userSpaceOnUse"><stop offset="0" stop-color="#bfbfc0"/><stop offset="0.976" stop-color="#6d7171"/></linearGradient><linearGradient id="linear-gradient-2" x1="31.536" y1="2602.869" x2="91.04" y2="2602.869" xlink:href="#linear-gradient"/><linearGradient id="linear-gradient-3" x1="52.051" y1="2611.305" x2="109.855" y2="2611.305" xlink:href="#linear-gradient"/><linearGradient id="linear-gradient-4" x1="123.227" y1="2619.544" x2="167.606" y2="2619.544" xlink:href="#linear-gradient"/><linearGradient id="linear-gradient-5" x1="86.438" y1="2617.555" x2="129.992" y2="2617.555" xlink:href="#linear-gradient"/><linearGradient id="linear-gradient-6" x1="72.309" y1="2695.699" x2="93.274" y2="2695.699" gradientTransform="translate(1316.644 -2238.091) rotate(30.299)" gradientUnits="userSpaceOnUse"><stop offset="0" stop-color="#77bf45"/><stop offset="0.558" stop-color="#d1de7c"/><stop offset="1" stop-color="#68bb47"/></linearGradient><linearGradient id="linear-gradient-7" x1="63.081" y1="2591.305" x2="143.915" y2="2591.305" xlink:href="#linear-gradient-6"/><linearGradient id="linear-gradient-8" x1="73.876" y1="2584.386" x2="45.746" y2="2588.316" gradientTransform="translate(1316.644 -2238.091) rotate(30.299)" gradientUnits="userSpaceOnUse"><stop offset="0" stop-color="#d1de7c"/><stop offset="1" stop-color="#68bb47"/></linearGradient><linearGradient id="linear-gradient-9" x1="135.605" y1="2606.756" x2="179.626" y2="2606.756" xlink:href="#linear-gradient-8"/></defs><path class="cls-1" d="M133.211,90.215c-.595,8.616-1.894,25.256-3.448,31.493-.776,3.112-1.143,4.872-1.3,5.866.106.113.163.177.163.177s.837-4.3,6.911-3.627,8.619.006,8.619.006S140.769,103.405,133.211,90.215Z"/><path class="cls-2" d="M75.945,41.629c4.282-.73,9.731-.384,13.992.117-5.895-5.265-11.671-9.731-16.8-12.536-19.242-10.526-29.89-7.882-32.165-8.5a37.5,37.5,0,0,0-7.385-.482S39.4,29.14,39.666,36.48a96.713,96.713,0,0,1-.65,14.232s.155.05.433.155C47.067,48.78,69.157,42.788,75.945,41.629Z"/><path class="cls-3" d="M103.828,55.264c-4.534-4.731-9.247-9.372-13.891-13.518-4.261-.5-9.71-.847-13.992-.117-6.788,1.159-28.878,7.151-36.5,9.238,1.833.7,9.217,3.969,15.367,13.391,6.326,9.688,6.91,15.435,6.965,16.553,3.487-3.158,13.482-11.993,20.534-16.056C88.084,61.428,97.9,57.516,103.828,55.264Z"/><path class="cls-4" d="M133.211,90.215a37.116,37.116,0,0,0-2.87-4.342c-3.558-4.571-9.714-12.116-17.031-20.331-3.025,7.1-9.671,23.015-12.038,31.133a40.962,40.962,0,0,1-5.911,12.7,51.912,51.912,0,0,1,19.7,7.569c8.575,5.645,12.6,9.755,13.407,10.626.156-.994.523-2.754,1.3-5.866C131.317,115.471,132.616,98.831,133.211,90.215Z"/><path class="cls-5" d="M101.272,96.675c2.367-8.118,9.013-24.031,12.038-31.133-3-3.365-6.192-6.843-9.482-10.278-5.93,2.252-15.744,6.164-21.513,9.491-7.052,4.063-17.047,12.9-20.534,16.056,0,.134,0,.216,0,.216s8.92-1.735,18.366,8.336a111.836,111.836,0,0,1,14.918,19.976s.118.014.292.04A40.962,40.962,0,0,0,101.272,96.675Z"/><path class="cls-6" d="M33.59,20.232S52.236,31.369,56.3,35.9s4.793,3.28,8.29,5.084,11.3,4.445,15.757,9.928,2.566,13.237,2.566,13.237,9.827-.007,16.358,6.444S106.9,82.952,106.9,82.952a14.6,14.6,0,0,1,7.887,4.13c4.017,3.784,16.034,18.474,20.943,25.651s8.506,11.68,8.506,11.68-8.045-30.094-24.393-48.033-54.59-45.553-65.3-51.814A33.006,33.006,0,0,0,33.59,20.232Z"/><polygon class="cls-7" points="98.179 58.376 39.58 125.796 41.231 127.479 100.293 60.089 98.179 58.376"/><path class="cls-8" d="M16.305,130.642s4.343-7.844,6.273-6.637.985,2.414-.936,4.883-3.568,5.422-1.381,7.419,6.188,2.257,9.365-.995,9.975-11.74,10.9-11.678,3.1,1.808,2.469,2.879-8.709,9.443-10.522,11.179-8.141,6.822-13.124,3.189C12.828,136.134,16.305,130.642,16.305,130.642Z"/><path class="cls-7" d="M113.074,43.681s6.674-5.681,8.459-4.637-5.767,7.41-5.767,7.41Z"/><path class="cls-9" d="M131.01,59.785q-.285-.349-.588-.695c-3.451-3.933-10.723-9.915-14.849-13.948-8.539-8.342-10.546-13.108-14.013-15.373a15.482,15.482,0,0,0-1.594-.868c-3.373-.367-8.079-.838-11.446-1-4.588-.226-20.648,5.185-27.25,7.489a70.711,70.711,0,0,1,19,9.49C89.827,51.9,112.538,73.4,115.773,77.6a79.8,79.8,0,0,1,7.583,11.618l.05.055c1.642-4.615,5.955-17.1,6.607-22.515C130.375,63.749,130.726,61.449,131.01,59.785Z"/><path class="cls-10" d="M88.52,27.9c3.367.165,8.073.636,11.446,1-5.826-2.849-22.206-8.756-31.24-10.175,0,0-16.584-1.546-22.674-.552-4.331.7-12.969,1.284-12.969,1.284s15.554,7.412,19.555,9.991a41.882,41.882,0,0,1,6.7,5.349s.714.192,1.936.589C67.872,33.083,83.932,27.672,88.52,27.9Z"/><path class="cls-11" d="M144.231,124.413s2.094-30.637-3.419-44.16c-5.19-12.726-6.757-16.76-9.8-20.468-.284,1.664-.635,3.964-1,6.971-.652,5.419-4.965,17.9-6.607,22.515.529.558,7.84,8.357,12.31,16.511A175.1,175.1,0,0,1,144.231,124.413Z"/><path class="cls-12" d="M91.945,43.254s-.782-4.759,3.416-3.426,3.246,4.759,3.246,4.759,4.569-3.427,7.234,0-.761,6.28-.761,6.28,3.743,1.368,1.776,4.4-6.563-.969-6.563-.969-6.635.762-6.254-2.475-5.128-2.574-5.128-5.366C88.911,42.873,91.945,43.254,91.945,43.254Z"/><path class="cls-12" d="M127.447,58.581s-3.989-.574-4.041,2A3.591,3.591,0,0,0,125.427,64s-2.257.951-2.022,3.14,3.281,2.761,3.281,2.761-1.428,1.891-.1,2.278,1.6-1.371,2.474-3.135S130.4,60.2,130.4,60.2,128.589,57.442,127.447,58.581Z"/><path class="cls-12" d="M110.085,67.315s1.676-3.148,4.2-.673,0,4.06,0,4.06,2.666-.321,3.154,1.868a2.834,2.834,0,0,1-1.51,3.141s2.767,1.975,2,2.855-9.434-8.548-9.434-8.548S106.412,65.693,110.085,67.315Z"/><path class="cls-12" d="M132.457,77.393s1.329-3.723,3.554-1.3a3.324,3.324,0,0,1,.279,4.58s4.306-.9,4.721,2.516a3.958,3.958,0,0,1-2.924,4.29s1.914,2.294-.54,3.806-3.909-2.985-3.909-2.985-4.624-1.756-3.125-3.97-2.352-3.65-1.273-5.675C130.624,76.062,132.457,77.393,132.457,77.393Z"/><path class="cls-12" d="M144.35,100.745s-.437-2.191-2.055-2.476-1.713,3.807-1.713,3.807-2.951-1.032-2.665,2.394,3.321,1.984,3.321,1.984-2.2,2.189-.191,3.522a2.7,2.7,0,0,0,3.575-.6Z"/><path class="cls-12" d="M56.633,20.6s-.1-3.616,4.283-1.332,3.046,3.521,3.046,3.521,3.045-4.131,6.757-2.161.952,4.065.952,4.065,2.951.476,1.809,2.855-5.521.762-5.521.762,1.024,3.046-3.39,2.094-4.1-3.466-4.1-3.466-5.073,3.387-5.929,0,2.5-3.1,2.5-3.1-3.355-.19-3.26-1.9S56.633,20.6,56.633,20.6Z"/></svg>