<svg id="word" xmlns="http://www.w3.org/2000/svg" viewBox="0 0 160 160"><defs><style>.cls-1{fill:#a6cf6a;}.cls-1,.cls-2,.cls-3,.cls-4,.cls-5,.cls-6,.cls-8{stroke:#9a4a99;}.cls-1,.cls-11,.cls-2,.cls-3,.cls-4,.cls-5,.cls-6,.cls-8{stroke-miterlimit:10;}.cls-1,.cls-2,.cls-4,.cls-5,.cls-6{stroke-width:0.622px;}.cls-2{fill:#d4cbaf;}.cls-11,.cls-3,.cls-5,.cls-8{fill:none;}.cls-3,.cls-8{stroke-linecap:round;}.cls-3{stroke-width:1.244px;}.cls-4{fill:#f7eb4b;}.cls-6{fill:#f7eb63;}.cls-7{fill:#9a4a99;}.cls-8{stroke-width:0.877px;}.cls-9{fill:#26265f;}.cls-10{fill:#9b4b9c;}.cls-11{stroke:#9b4d9c;stroke-width:0.701px;}</style></defs><path class="cls-1" d="M64.36,30.43c-1.066-2.035-.2-4.983,1.346-6.423s3.544-1.756,5.447-1.986a71.248,71.248,0,0,1,17.44-.3c3.01.379,9.917.643,12.212,3.169s-.45,7.834-2.346,10.857c-1.326,2.113,3.823-2.62,1.747-2.1-1.994.5-1.508,10.761-3.5,11.259L82.8,79.284,69.685,44.119Z"/><path class="cls-2" d="M57.84,41.489a105.918,105.918,0,0,0,12.409-4.426c5.343-2.423,5.246-3.7,8.947-3.981s5.318,1.706,7.321,2.838,13.512,7.136,14.717,8.145,3.444,3.774,2.966,4.911-6.516-1.157-8.646-2.462S88.5,41.271,79.727,41.57s-17.28,4.154-21.6,3.748S53.684,42.779,57.84,41.489Z"/><path class="cls-3" d="M76.008,22.963S73.3,18.731,78.264,17.72c5.1-1.039,5.761,2.718,5.487,4.7s-3.71,4.734-4.112,6.431a37.893,37.893,0,0,0-.633,4.251"/><path class="cls-4" d="M64.789,36.957S52.352,43.773,48.862,49.2,35.968,80.223,28.068,96.124c0,0,.075.245,4.059,2.363s14.908,2.76,14.908,2.76l-5.393,39.316s31.03,4.953,43.106,3.287L81.7,68.724Z"/><path class="cls-5" d="M63.2,50.3c-2.661,1.317-5.88,6.344-7.487,9.816-1.374,2.969-3.3,11.459-4.24,14.592a69.369,69.369,0,0,0-1.938,9.772l-5.719,38.436"/><polygon class="cls-6" points="44.468 103.075 60.109 103.741 59.309 122.042 42.51 120.231 44.468 103.075"/><path class="cls-7" d="M31.583,89.332A20.1,20.1,0,0,0,34.824,92.3a19.84,19.84,0,0,0,7.947,3.419,20.056,20.056,0,0,0,4.381.317,13.744,13.744,0,0,1-4.454.156,15.831,15.831,0,0,1-8.166-3.516A13.78,13.78,0,0,1,31.583,89.332Z"/><path class="cls-4" d="M99.211,36.6s14.147,11.119,17.636,16.547,11.185,26.719,19.085,42.619c0,0-.075.246-4.059,2.364s-14.908,2.759-14.908,2.759l5.393,39.317s-31.213,6.17-40.655,3.641L82.3,68.37Z"/><path class="cls-5" d="M100.805,49.944c2.661,1.316,5.88,6.344,7.487,9.816,1.374,2.969,3.3,11.458,4.24,14.591a69.425,69.425,0,0,1,1.938,9.772l5.719,38.437"/><polygon class="cls-6" points="119.532 102.721 103.891 103.387 104.691 121.688 121.49 119.877 119.532 102.721"/><path class="cls-7" d="M132.417,88.977a13.785,13.785,0,0,1-2.949,3.342,15.831,15.831,0,0,1-8.166,3.516,13.772,13.772,0,0,1-4.454-.156,20.118,20.118,0,0,0,4.381-.317,19.84,19.84,0,0,0,7.947-3.419A20.058,20.058,0,0,0,132.417,88.977Z"/><path class="cls-6" d="M93.341,22.252s6.333.955,6.231,6.22-6.189,7.569-6.231,11.516,2.619,3.4-.781,6.691-8.481,14.458-8.77,15.569S81.7,68.724,81.7,68.724s9.87-19.3,14.148-21.387,1.1-6.538,6.8-4.936a24.292,24.292,0,0,1,10.039,5.906s4.219-13.254,1.148-18.08S103.993,19.433,93.341,22.252Z"/><path class="cls-8" d="M90.624,50.814a7.4,7.4,0,0,0-1.632,3.733c-.48,4.212,3.264,7.71,4.135,11.859.921,4.392-1.481,8.97-.587,13.367"/><path class="cls-9" d="M92.8,78.962a.794.794,0,0,0-.927.082c-.548.371-.421.558-.421.558L92.547,87a2.441,2.441,0,0,0,1.6-.15,2.768,2.768,0,0,0,.8-.879Z"/><path class="cls-6" d="M71.145,22.061s-6.333.984-6.231,6.406,6.189,7.8,6.231,11.86-2.619,3.5.781,6.891,8.481,14.89,8.77,16.033,2.087,6.67,2.087,6.67S72.913,50.041,68.635,47.9s.423-5.847-5.44-6.726S51.31,46.782,51.31,46.782s-3.733-11.538-.662-16.508S60.493,19.158,71.145,22.061Z"/><path class="cls-8" d="M75.56,54.393c.861,1.074-.156,7.115,0,8.482.481,4.212-.817,8.459-1.687,12.608-.921,4.392,1.481,8.969.586,13.367"/><path class="cls-9" d="M74.2,88.039a.79.79,0,0,1,.926.082c.548.371.422.558.422.558l-1.1,7.394a2.445,2.445,0,0,1-1.6-.149,2.769,2.769,0,0,1-.8-.879Z"/><path class="cls-10" d="M126.06,7.828s-2.717-2.9-1.127-3.677,2.287,3.035,2.287,3.035.979-4.055,2.335-3.445c2.489,1.119-1.58,4.079-1.58,4.079s3.743-2.037,4.012.019-3.77.418-3.77.418,4.1,1.452,3.689,3.2-4.062-2.044-4.062-2.044,2.668,4,.669,4.126c-1.791.116-1.605-3.81-1.605-3.81s-1.044,4.242-2.768,3.3c-2.022-1.1,1.95-3.776,1.95-3.776s-4.659.982-4.124-1.335C122.408,6,126.06,7.828,126.06,7.828Z"/><path class="cls-10" d="M33.167,7.038s.284-3.962,1.935-3.324-.676,3.74-.676,3.74,3.642-2.033,4.115-.624c.868,2.587-4.068,1.609-4.068,1.609s4.037,1.366,2.71,2.959-2.866-2.484-2.866-2.484,1.717,4,.158,4.878-1.257-4.371-1.257-4.371-1.123,4.673-2.575,3.293c-1.3-1.237,1.708-3.765,1.708-3.765s-3.824,2.113-4.3.209c-.563-2.234,4.1-1.132,4.1-1.132s-3.884-2.754-1.819-3.934C32.027,3.118,33.167,7.038,33.167,7.038Z"/><path class="cls-11" d="M35.853,9.456c15.579,9.4,41.1,11.55,56.406,8.864C114.654,14.391,128.02,8.114,128.02,8.114"/></svg>