<svg id="word" xmlns="http://www.w3.org/2000/svg" viewBox="0 0 160 160"><defs><style>.cls-1{fill:#72cef3;stroke:#9d4b9c;stroke-width:0.423px;}.cls-2{fill:#fff;}.cls-3{fill:none;stroke:#9c4c9c;stroke-linecap:round;stroke-width:0.522px;}.cls-4{fill:#9c4c9c;}</style></defs><path class="cls-1" d="M10.128,82.547,10.982,71.7s.214-4.15,3.471-4.569,17.277.434,17.277.434L142.2,70.418s4.765-.541,5.918.734a5.942,5.942,0,0,1,1.095,3.593L149,89.68a2.963,2.963,0,0,1-2.736,2.232c-2.379.272-10.085.028-10.085.028L20.513,89.5s-7.637.306-9.225-1.993A8.121,8.121,0,0,1,10.128,82.547Z"/><path class="cls-2" d="M12.072,70.979s1.347-3.477,4.156-3.242,126.755,3.852,126.755,3.852,3.237.084,3.969.849a4.669,4.669,0,0,1,.8,2.51,5.157,5.157,0,0,0-3.191-1.908c-2.256-.471-123.081-3.757-123.081-3.757S12.471,68.419,12.072,70.979Z"/><line class="cls-3" x1="16.581" y1="80.318" x2="16.401" y2="88.856"/><line class="cls-3" x1="23.407" y1="83.963" x2="23.301" y2="89.001"/><line class="cls-3" x1="30.378" y1="80.609" x2="30.198" y2="89.146"/><line class="cls-3" x1="37.204" y1="84.254" x2="37.098" y2="89.292"/><line class="cls-3" x1="44.176" y1="80.899" x2="43.996" y2="89.437"/><line class="cls-3" x1="51" y1="84.544" x2="50.894" y2="89.583"/><line class="cls-3" x1="57.971" y1="81.19" x2="57.791" y2="89.728"/><line class="cls-3" x1="64.798" y1="84.835" x2="64.692" y2="89.874"/><line class="cls-3" x1="71.769" y1="81.481" x2="71.589" y2="90.019"/><line class="cls-3" x1="78.595" y1="85.126" x2="78.489" y2="90.164"/><line class="cls-3" x1="85.566" y1="81.772" x2="85.386" y2="90.31"/><line class="cls-3" x1="92.391" y1="85.417" x2="92.285" y2="90.455"/><line class="cls-3" x1="99.364" y1="82.063" x2="99.184" y2="90.601"/><line class="cls-3" x1="106.189" y1="85.708" x2="106.083" y2="90.746"/><line class="cls-3" x1="113.159" y1="82.353" x2="112.979" y2="90.891"/><line class="cls-3" x1="119.986" y1="85.998" x2="119.879" y2="91.037"/><line class="cls-3" x1="126.956" y1="82.644" x2="126.776" y2="91.182"/><line class="cls-3" x1="133.782" y1="86.289" x2="133.676" y2="91.328"/><line class="cls-3" x1="140.754" y1="82.935" x2="140.574" y2="91.473"/><path class="cls-4" d="M16.637,72.12l-.111,5.315-1.469-.03.073-3.485a4.414,4.414,0,0,1-.7.425,5.448,5.448,0,0,1-.843.3l.025-1.19a3.532,3.532,0,0,0,1.163-.55,2.36,2.36,0,0,0,.659-.814Z"/><path class="cls-4" d="M31.283,77.747l-4.356-.092a2.715,2.715,0,0,1,.479-1.2,6.1,6.1,0,0,1,1.453-1.314,4.249,4.249,0,0,0,.832-.7.818.818,0,0,0,.188-.462.545.545,0,0,0-.168-.413.673.673,0,0,0-.9-.012,1.057,1.057,0,0,0-.25.61l-1.452-.148a2.3,2.3,0,0,1,.334-.95,1.446,1.446,0,0,1,.655-.514,2.894,2.894,0,0,1,1.154-.16,3.258,3.258,0,0,1,1.188.2,1.458,1.458,0,0,1,.659.551,1.409,1.409,0,0,1,.226.815,1.668,1.668,0,0,1-.3.908,3.837,3.837,0,0,1-1.038.934c-.3.2-.5.334-.6.411s-.218.183-.354.311l2.267.048Z"/><path class="cls-4" d="M42.316,74.262l-1.366-.274A1.716,1.716,0,0,1,41.628,73a2.347,2.347,0,0,1,1.385-.32,2.313,2.313,0,0,1,1.473.413,1.2,1.2,0,0,1,.435.969,1.074,1.074,0,0,1-.2.609,1.6,1.6,0,0,1-.57.47,1.566,1.566,0,0,1,.459.185,1.119,1.119,0,0,1,.4.43,1.263,1.263,0,0,1,.131.628,1.747,1.747,0,0,1-.257.872,1.6,1.6,0,0,1-.7.63,2.626,2.626,0,0,1-1.185.2,3.056,3.056,0,0,1-1.121-.19,1.672,1.672,0,0,1-.666-.505,2.223,2.223,0,0,1-.392-.819l1.456-.162a1.116,1.116,0,0,0,.253.613.679.679,0,0,0,.944-.024.821.821,0,0,0,.207-.568.8.8,0,0,0-.175-.566.669.669,0,0,0-.5-.21,1.839,1.839,0,0,0-.473.075l.1-1.035a1.555,1.555,0,0,0,.188.022.665.665,0,0,0,.481-.173.572.572,0,0,0,.2-.427.519.519,0,0,0-.134-.384.528.528,0,0,0-.389-.15.569.569,0,0,0-.42.144A.935.935,0,0,0,42.316,74.262Z"/><path class="cls-4" d="M57.144,77.314,54.5,77.258l.025-1.193,2.712-3.09L58.5,73l-.068,3.214.656.013-.024,1.126-.656-.013-.02.977-1.266-.027Zm.024-1.127.035-1.644-1.432,1.615Z"/><path class="cls-4" d="M69.125,73.315l3.447.072-.025,1.159L70.213,74.5l-.141.782a2.394,2.394,0,0,1,.482-.161,1.951,1.951,0,0,1,.471-.047,1.742,1.742,0,0,1,1.262.5,1.6,1.6,0,0,1,.463,1.2,2.034,2.034,0,0,1-.271.968,1.7,1.7,0,0,1-.729.7,2.494,2.494,0,0,1-1.186.221,3.544,3.544,0,0,1-.884-.116,1.846,1.846,0,0,1-.622-.306,1.762,1.762,0,0,1-.409-.449,2.312,2.312,0,0,1-.255-.619l1.473-.13a.882.882,0,0,0,.239.542.65.65,0,0,0,.462.194.635.635,0,0,0,.506-.22,1.031,1.031,0,0,0,.213-.683.985.985,0,0,0-.186-.687.685.685,0,0,0-.528-.229.834.834,0,0,0-.407.1,1.19,1.19,0,0,0-.328.264l-1.233-.2Z"/><path class="cls-4" d="M86.514,74.859l-1.449.147a.78.78,0,0,0-.181-.432.479.479,0,0,0-.326-.132.609.609,0,0,0-.558.346,3.184,3.184,0,0,0-.233,1.093,1.843,1.843,0,0,1,.543-.379,1.507,1.507,0,0,1,.637-.113,1.586,1.586,0,0,1,1.172.524,1.754,1.754,0,0,1,.455,1.276,1.868,1.868,0,0,1-.263.94,1.606,1.606,0,0,1-.692.632,2.381,2.381,0,0,1-1.089.2,2.56,2.56,0,0,1-1.254-.294,1.861,1.861,0,0,1-.739-.87,3.583,3.583,0,0,1-.251-1.558,3.025,3.025,0,0,1,.64-2.059,2.1,2.1,0,0,1,1.664-.624,2.7,2.7,0,0,1,.983.165,1.527,1.527,0,0,1,.591.434A1.91,1.91,0,0,1,86.514,74.859Zm-2.725,2.27a.97.97,0,0,0,.2.67.67.67,0,0,0,.52.252.613.613,0,0,0,.482-.208.95.95,0,0,0,.2-.644.994.994,0,0,0-.185-.677.629.629,0,0,0-.49-.243.656.656,0,0,0-.513.215A.919.919,0,0,0,83.789,77.129Z"/><path class="cls-4" d="M96.158,73.886l4.238.088-.022.981a5.328,5.328,0,0,0-.944,1.061,6.291,6.291,0,0,0-.743,1.557,7.407,7.407,0,0,0-.311,1.587l-1.448-.03a8.361,8.361,0,0,1,.584-2.136,7.977,7.977,0,0,1,1.2-1.828l-2.58-.054Z"/><path class="cls-4" d="M110.753,76.61a1.375,1.375,0,0,1-.49-.416,1.19,1.19,0,0,1-.2-.711,1.247,1.247,0,0,1,.64-1.059,2.235,2.235,0,0,1,1.277-.3,2.474,2.474,0,0,1,1.542.432,1.236,1.236,0,0,1,.48,1.015,1.21,1.21,0,0,1-.213.657,1.657,1.657,0,0,1-.48.43,1.49,1.49,0,0,1,.622.553,1.393,1.393,0,0,1,.191.745,1.544,1.544,0,0,1-.194.73,1.471,1.471,0,0,1-.454.516,1.794,1.794,0,0,1-.657.26,3.817,3.817,0,0,1-.836.069,3.245,3.245,0,0,1-1.264-.222,1.449,1.449,0,0,1-.655-.592,1.62,1.62,0,0,1-.209-.857,1.36,1.36,0,0,1,.229-.774A1.375,1.375,0,0,1,110.753,76.61Zm.674-1.012a.582.582,0,0,0,.161.44.613.613,0,0,0,.446.175.539.539,0,0,0,.414-.156.583.583,0,0,0,.17-.42.6.6,0,0,0-.158-.443.579.579,0,0,0-.425-.179.566.566,0,0,0-.608.583Zm-.126,2.247a.782.782,0,0,0,.2.57.647.647,0,0,0,.476.229.615.615,0,0,0,.471-.213.871.871,0,0,0,.023-1.131.64.64,0,0,0-.478-.231.624.624,0,0,0-.477.2A.81.81,0,0,0,111.3,77.845Z"/><path class="cls-4" d="M123.706,78.52l1.448-.15a.763.763,0,0,0,.183.431.475.475,0,0,0,.331.132.6.6,0,0,0,.552-.342,3.346,3.346,0,0,0,.237-1.1,1.789,1.789,0,0,1-.543.379,1.5,1.5,0,0,1-.638.113,1.59,1.59,0,0,1-1.175-.524,1.747,1.747,0,0,1-.457-1.273,1.873,1.873,0,0,1,.267-.942,1.617,1.617,0,0,1,.69-.634,2.378,2.378,0,0,1,1.089-.2,2.539,2.539,0,0,1,1.252.3,1.9,1.9,0,0,1,.741.87,3.63,3.63,0,0,1,.251,1.556,3.024,3.024,0,0,1-.64,2.061,2.108,2.108,0,0,1-1.663.622,2.681,2.681,0,0,1-.982-.165,1.515,1.515,0,0,1-.591-.435A1.9,1.9,0,0,1,123.706,78.52Zm2.723-2.275a.962.962,0,0,0-.2-.669.664.664,0,0,0-.515-.251.607.607,0,0,0-.484.206.966.966,0,0,0-.2.649,1.011,1.011,0,0,0,.184.675.625.625,0,0,0,.49.242.657.657,0,0,0,.514-.214A.923.923,0,0,0,126.429,76.245Z"/><path class="cls-4" d="M138.385,74.686,138.273,80,136.8,79.97l.073-3.483a4.319,4.319,0,0,1-.7.423,5.268,5.268,0,0,1-.842.305l.026-1.192a3.532,3.532,0,0,0,1.163-.549,2.326,2.326,0,0,0,.658-.814Z"/><path class="cls-4" d="M139.907,77.4a3.141,3.141,0,0,1,.579-2.075,2.1,2.1,0,0,1,1.648-.56,2.432,2.432,0,0,1,.865.149,1.614,1.614,0,0,1,.545.349,1.827,1.827,0,0,1,.327.446,2.286,2.286,0,0,1,.186.541,4.914,4.914,0,0,1,.121,1.222,3.563,3.563,0,0,1-.526,2.072,1.915,1.915,0,0,1-1.67.624,2.321,2.321,0,0,1-1.062-.232,1.751,1.751,0,0,1-.655-.631,2.369,2.369,0,0,1-.276-.8A5.307,5.307,0,0,1,139.907,77.4Zm1.44.034A3.535,3.535,0,0,0,141.5,78.8a.551.551,0,0,0,.5.376.528.528,0,0,0,.386-.147.951.951,0,0,0,.249-.484,5.126,5.126,0,0,0,.1-1.044,3.7,3.7,0,0,0-.146-1.4.571.571,0,0,0-.523-.369.543.543,0,0,0-.529.354A3.893,3.893,0,0,0,141.347,77.434Z"/></svg>