<svg id="word" xmlns="http://www.w3.org/2000/svg" xmlns:xlink="http://www.w3.org/1999/xlink" viewBox="0 0 160 160"><defs><style>.cls-1,.cls-10,.cls-16,.cls-18{fill:none;}.cls-2{clip-path:url(#clip-path);}.cls-3{fill:#f3dcae;}.cls-10,.cls-12,.cls-13,.cls-3,.cls-4,.cls-5,.cls-6,.cls-8{stroke:#9d4b9c;}.cls-12,.cls-13,.cls-3{stroke-miterlimit:10;}.cls-10,.cls-3,.cls-4,.cls-6,.cls-8{stroke-width:0.861px;}.cls-4{fill:#ca9977;}.cls-5{fill:#f8e8c6;stroke-width:0.431px;}.cls-6{fill:#a4c0cf;}.cls-12,.cls-7,.cls-8{fill:#fff;}.cls-7{opacity:0.4;}.cls-9{fill:#5685ad;opacity:0.25;}.cls-11{fill:#9ec986;}.cls-13{fill:#ffdd87;}.cls-14{fill:#9a8479;}.cls-14,.cls-15,.cls-16,.cls-17,.cls-18{stroke:#973693;}.cls-14,.cls-15,.cls-16,.cls-17{stroke-width:0.75px;}.cls-15{fill:#e1f3fc;}.cls-17{fill:#9b5b3a;}.cls-18{stroke-width:2px;}.cls-19{fill:#973693;}</style><clipPath id="clip-path"><rect class="cls-1" x="224" y="14" width="132" height="132"/></clipPath></defs><g class="cls-2"><rect class="cls-3" x="96.335" y="20.579" width="286.027" height="122.565"/><polygon class="cls-4" points="382.886 22.45 90.294 22.45 105.309 7.883 382.573 7.883 382.886 22.45"/><rect class="cls-5" x="92.398" y="76.501" width="289.851" height="7.019"/><polygon class="cls-6" points="129.056 95.081 182.519 95.659 182.519 134.471 131.067 134.471 129.056 95.081"/><polygon class="cls-7" points="181.817 98.05 134.384 120.284 179.3 96.026 182.019 96.094 181.817 98.05"/><rect class="cls-8" x="128.658" y="132.444" width="55.061" height="2.531"/><polygon class="cls-9" points="130.967 122.017 181.817 98.847 182.019 116.879 131.475 132.08 130.967 122.017"/><line class="cls-10" x1="130.067" y1="115.646" x2="183.121" y2="115.646"/><line class="cls-10" x1="158" y1="95.081" x2="158" y2="132.301"/><line class="cls-10" x1="145.742" y1="94.936" x2="145.742" y2="115.502"/><polygon class="cls-6" points="127.031 33.089 180.494 33.666 180.494 72.479 129.042 72.479 127.031 33.089"/><polygon class="cls-7" points="179.792 36.057 132.359 58.291 177.275 34.033 179.994 34.102 179.792 36.057"/><rect class="cls-8" x="126.632" y="70.452" width="55.061" height="2.531"/><polygon class="cls-9" points="128.942 60.024 179.792 36.854 179.994 54.886 129.449 70.088 128.942 60.024"/><line class="cls-10" x1="128.042" y1="53.653" x2="181.096" y2="53.653"/><line class="cls-10" x1="155.975" y1="33.089" x2="155.975" y2="70.308"/><line class="cls-10" x1="143.717" y1="32.944" x2="143.717" y2="53.509"/></g><path class="cls-11" d="M19.869,123.664c-.674,2.673-1.049,5.592.059,8.115,1.828,4.161,6.868,5.717,11.357,6.424,8.715,1.373,17.581,1.346,26.4,1.315l66.377-.229c6.076-.021,12.961-.4,16.907-5.017,3.024-3.543,3.39-8.65,2.808-13.272-.96-7.622-4.555-15.412-11.294-19.1-5.031-2.755-11.036-2.868-16.773-2.913l-47.6-.378c-7.933-.063-15.868-.084-23.8-.19-3.354-.044-5.582.3-8.453,2.219a33.97,33.97,0,0,0-6.156,5.355A40.059,40.059,0,0,0,19.869,123.664Z"/><path class="cls-12" d="M41.772,99.555v32.9h83.41v-32.9S41.772,99.977,41.772,99.555Z"/><polygon class="cls-13" points="125.471 99.555 41.772 99.555 41.772 57.994 59.666 42.986 82.178 23.937 109.02 42.697 125.471 54.819 125.471 99.555"/><polygon class="cls-14" points="39.478 58.801 48.341 22.943 122.201 22.943 127.935 57.242 84.141 25.169 39.478 58.801"/><path class="cls-14" d="M37.74,59.692s-3.3,4.009,1.042,4.454S84.141,25.169,84.141,25.169l44.143,36.082s3.3-1.559,2.432-4.009-17.379-13.809-17.379-13.809l-26.763-21.6s-1.39-3.34-3.128-2.449-8.689,7.795-8.689,7.795Z"/><rect class="cls-15" x="58.547" y="61.648" width="16.054" height="23.501"/><line class="cls-16" x1="64.567" y1="61.778" x2="64.567" y2="85.323"/><rect class="cls-17" x="57.441" y="84.615" width="17.853" height="2.482"/><rect class="cls-15" x="77.314" y="39.054" width="13.44" height="9.429"/><line class="cls-16" x1="82.353" y1="39.165" x2="82.353" y2="48.629"/><rect class="cls-17" x="76.387" y="48.037" width="14.946" height="2.077"/><rect class="cls-15" x="91.367" y="61.921" width="16.053" height="23.501"/><line class="cls-16" x1="97.387" y1="62.052" x2="97.387" y2="85.597"/><rect class="cls-17" x="90.26" y="84.889" width="17.852" height="2.482"/><polyline class="cls-18" points="41.843 105.651 46.168 105.651 46.168 111.08 52.793 111.08 52.793 117.061 59.234 117.061 59.234 122.49 65.491 122.49 65.491 127.551 71.932 127.551 71.932 132.06"/><rect class="cls-19" x="100.361" y="103.884" width="6.999" height="6.999"/><rect class="cls-19" x="114.359" y="103.884" width="6.999" height="6.999"/></svg>