<svg id="word" xmlns="http://www.w3.org/2000/svg" xmlns:xlink="http://www.w3.org/1999/xlink" viewBox="0 0 160 160"><defs><style>.cls-1{fill:url(#Linear_Gradient_2);}.cls-2{fill:#85878a;}.cls-3{fill:#9a9c9f;}.cls-4{fill:#757779;}.cls-5{fill:#ec1c24;}.cls-6{fill:#47465d;}.cls-7{fill:#7a7c7f;}.cls-8{fill:#8ac64d;}</style><linearGradient id="Linear_Gradient_2" x1="81.107" y1="125.193" x2="86.927" y2="125.193" gradientUnits="userSpaceOnUse"><stop offset="0" stop-color="#fff"/><stop offset="1" stop-color="#231f20"/></linearGradient></defs><rect class="cls-1" x="81.107" y="103.927" width="5.82" height="42.532"/><path class="cls-2" d="M100.852,24.023l5.218-.531S103.284,41.2,103.284,42.6s-1.99,5.174-1.99,5.174Z"/><path class="cls-2" d="M101.493,53.144h3.781s-1.592,8.159-1.99,11.94a27.866,27.866,0,0,1-2.125,7.538Z"/><path class="cls-2" d="M100.9,83.592l4.378.4s-1.946,13.15-2.985,15.92c-1.591,4.239-2.206,3.317-2.206,3.317Z"/><polygon class="cls-3" points="68.458 14.935 74.229 111.453 100.697 110.657 101.692 13.542 68.458 14.935"/><polygon class="cls-4" points="58.308 16.328 68.458 14.935 74.229 111.453 68.259 109.065 58.308 16.328"/><ellipse class="cls-5" cx="60.879" cy="39.17" rx="3.76" ry="11.144" transform="matrix(0.955, -0.297, 0.297, 0.955, -8.893, 19.871)"/><path class="cls-3" d="M53.93,25.88l12.14-.6s1,12.537,1.393,16.319-1.791,8.159-1.791,8.159-.6-8.358-3.185-13.334S53.93,25.88,53.93,25.88Z"/><ellipse class="cls-6" cx="62.272" cy="68.423" rx="3.76" ry="11.144" transform="translate(-17.527 21.608) rotate(-17.296)"/><path class="cls-3" d="M55.323,55.134l12.14-.6s1,12.537,1.393,16.318-1.791,8.16-1.791,8.16-.6-8.359-3.184-13.334S55.323,55.134,55.323,55.134Z"/><ellipse class="cls-6" cx="63.665" cy="97.677" rx="3.76" ry="11.144" transform="translate(-26.161 23.345) rotate(-17.296)"/><path class="cls-3" d="M56.716,84.388l12.14-.6s1,12.537,1.393,16.318-1.791,8.16-1.791,8.16-.6-8.359-3.184-13.334S56.716,84.388,56.716,84.388Z"/><ellipse class="cls-6" cx="87.164" cy="37.422" rx="9.95" ry="10.746"/><path class="cls-7" d="M75.11,35.852s.728-12.6,11.521-12.535C100.826,23.409,98.706,37.6,98.706,37.6H97.324s-2.212-9.771-10.508-9.955c-6.728-.149-10.692,8.3-10.692,8.3Z"/><ellipse class="cls-6" cx="87.164" cy="64.798" rx="9.95" ry="10.746"/><path class="cls-7" d="M75.11,63.227s.728-12.6,11.521-12.535c14.195.093,12.075,14.288,12.075,14.288H97.324s-2.212-9.771-10.508-9.955c-6.728-.149-10.692,8.3-10.692,8.3Z"/><ellipse class="cls-8" cx="87.164" cy="96.171" rx="9.95" ry="10.746"/><path class="cls-7" d="M75.11,94.6S75.838,82,86.631,82.066c14.195.092,12.075,14.288,12.075,14.288H97.324S95.112,86.582,86.816,86.4c-6.728-.149-10.692,8.3-10.692,8.3Z"/></svg>