<svg id="word" xmlns="http://www.w3.org/2000/svg" viewBox="0 0 160 160"><defs><style>.cls-1{fill:#e6e763;}.cls-1,.cls-2,.cls-3,.cls-4,.cls-5{stroke:#9d4b9c;stroke-width:0.475px;}.cls-2{fill:#e0b559;}.cls-3{fill:none;}.cls-4{fill:#fdf7b9;}.cls-5{fill:#fdfade;}</style></defs><path class="cls-1" d="M103.044,92.032s-1.84-18.894-21.2-18.941-21.338,19.98-21.338,19.98S67.732,90.7,83.275,90.7c7.638,0,19.906,2.226,19.906,2.226Z"/><ellipse class="cls-2" cx="81.843" cy="93.071" rx="21.338" ry="3.857"/><path class="cls-3" d="M95.136,89.807c.017-8.11-3.564-13.412-6.612-15.873"/><path class="cls-3" d="M83.684,88.917c-.135-5.292-.552-10.451-.955-15.576"/><path class="cls-3" d="M78.571,73.341c-3.733,3.335-7.059,6.991-7.772,16.614"/><path class="cls-4" d="M83.888,89.214s.954,1.472,1.227,1.932.685,3.882-1.977,4.6c-3.409.92-4.345-1.274-4.567-2.852a4.854,4.854,0,0,1,1.363-3.588Z"/><path class="cls-3" d="M89.212,91.137a16.767,16.767,0,0,1,3.885.148"/><path class="cls-3" d="M87.128,94.705c1.173.626,4.593,2.2,5.657,3.446"/><path class="cls-3" d="M85.018,98.382c.591,1.391,2.66,2.689,2.843,4.51"/><path class="cls-3" d="M81.727,98.5c0,2.035.033,4.053.068,6.083"/><path class="cls-3" d="M79.29,97.786c-.682,1.112-3.441,4.043-3.648,6.383"/><path class="cls-3" d="M77.091,95.778c-.863.767-3.857,2.829-4.732,3.649"/><path class="cls-3" d="M75.837,92.436c-.862-.053-5.373-.658-6.213-.3"/><path class="cls-5" d="M85.855,66.782a6.426,6.426,0,0,1,2.189,2.553,28.076,28.076,0,0,1,.912,4.742s-4.56.365-7.113.365-5.289-.183-5.289-.183S74.183,64.594,85.855,66.782Z"/><path class="cls-1" d="M57.633,86.561s-1.84-18.894-21.2-18.941S15.094,87.6,15.094,87.6s7.226-2.373,22.77-2.373c7.637,0,19.905,2.225,19.905,2.225Z"/><ellipse class="cls-2" cx="36.432" cy="87.599" rx="21.338" ry="3.857"/><path class="cls-3" d="M49.725,84.336c.017-8.11-3.565-13.412-6.612-15.873"/><path class="cls-3" d="M38.273,83.446c-.135-5.292-.552-10.451-.955-15.576"/><path class="cls-3" d="M33.16,67.87c-3.733,3.335-7.059,6.991-7.772,16.614"/><path class="cls-4" d="M38.477,83.743s.954,1.471,1.227,1.932.684,3.882-1.977,4.6c-3.409.92-4.345-1.274-4.567-2.852a4.856,4.856,0,0,1,1.362-3.589Z"/><path class="cls-3" d="M43.8,85.666a16.771,16.771,0,0,1,3.885.148"/><path class="cls-3" d="M41.717,89.233c1.173.627,4.593,2.2,5.657,3.446"/><path class="cls-3" d="M39.607,92.91c.59,1.391,2.659,2.69,2.843,4.511"/><path class="cls-3" d="M36.316,93.03c0,2.035.032,4.053.068,6.082"/><path class="cls-3" d="M33.878,92.315c-.681,1.112-3.441,4.042-3.647,6.383"/><path class="cls-3" d="M31.68,90.307c-.863.767-3.858,2.829-4.732,3.649"/><path class="cls-3" d="M30.425,86.965c-.862-.053-5.372-.658-6.212-.3"/><path class="cls-5" d="M40.444,61.311a6.427,6.427,0,0,1,2.188,2.553,28.076,28.076,0,0,1,.912,4.742s-4.559.365-7.112.365-5.289-.183-5.289-.183S28.772,59.122,40.444,61.311Z"/><path class="cls-5" d="M72.711,55.471c-1.122,2.1-4.086,2.088-6.448,1.787L53.551,55.639c-3.585-.457-7.267-.909-10.779-.055s-6.675,2.486-7.52,6c0,0,2.462,3.1,4.924.456,1.631-1.752.456-4.377,7.2-4.924,3.181-.258,8.936,2.553,14.134,2.918s9.392-.092,11.581-1a9.581,9.581,0,0,0,3.738-3.557Z"/><path class="cls-5" d="M79.387,54.837l1,13.131s.456.821,2.1.638,1.55-1.368,1.55-1.368l-.273-13.313S80.025,51.372,79.387,54.837Z"/><path class="cls-1" d="M105.421,85.832s1.84-18.894,21.2-18.942S147.96,86.87,147.96,86.87,140.733,84.5,125.19,84.5c-7.638,0-19.906,2.226-19.906,2.226Z"/><ellipse class="cls-2" cx="126.622" cy="86.87" rx="21.338" ry="3.857"/><path class="cls-3" d="M113.328,83.606c-.017-8.109,3.565-13.412,6.613-15.873"/><path class="cls-3" d="M124.781,82.716c.134-5.292.551-10.451.954-15.576"/><path class="cls-3" d="M129.894,67.14c3.733,3.336,7.058,6.992,7.771,16.615"/><path class="cls-4" d="M124.576,83.013s-.954,1.472-1.226,1.932-.685,3.882,1.977,4.6c3.408.92,4.344-1.273,4.567-2.852a4.854,4.854,0,0,0-1.363-3.588Z"/><path class="cls-3" d="M119.253,84.936a16.778,16.778,0,0,0-3.886.148"/><path class="cls-3" d="M121.336,88.5c-1.172.626-4.593,2.2-5.657,3.446"/><path class="cls-3" d="M123.446,92.181c-.59,1.391-2.659,2.69-2.843,4.511"/><path class="cls-3" d="M126.738,92.3c0,2.034-.033,4.052-.069,6.082"/><path class="cls-3" d="M129.175,91.585c.682,1.112,3.441,4.043,3.647,6.383"/><path class="cls-3" d="M131.373,89.577c.864.767,3.858,2.829,4.732,3.649"/><path class="cls-3" d="M132.628,86.236c.862-.054,5.372-.658,6.213-.305"/><path class="cls-5" d="M122.609,60.581a6.433,6.433,0,0,0-2.188,2.554,28.07,28.07,0,0,0-.912,4.741s4.559.365,7.113.365,5.289-.182,5.289-.182S134.281,58.393,122.609,60.581Z"/><path class="cls-5" d="M90.342,54.742c1.122,2.1,4.086,2.088,6.448,1.787l12.712-1.62c3.586-.457,7.267-.909,10.779-.054s6.676,2.486,7.52,6c0,0-2.462,3.1-4.924.456-1.631-1.752-.456-4.377-7.2-4.924-3.181-.258-8.936,2.553-14.134,2.918s-9.392-.091-11.58-1a9.58,9.58,0,0,1-3.739-3.556Z"/><path class="cls-5" d="M66.159,43.591s0-1.723-2.846-2.635-10.73-1.824-15.548-2.433-9.2-.962-8.979-1.874a45.319,45.319,0,0,0-.1-5.705s6.891.334,44.555.739c25.276.272,25.36.2,41.385-.006l-.653,4.87a27.2,27.2,0,0,1-7.584,1.536c-5.256.507-8.622.44-11.908,1.454a54.549,54.549,0,0,0-8.538,4.1Z"/><path class="cls-3" d="M41.633,35.433s13.139-1.774,40.511-1.622,38.761,1.774,38.761,1.774"/><path class="cls-5" d="M106.671,45.617c0-1.539-11.863-2.787-26.5-2.787s-26.5,1.248-26.5,2.787S65.54,48.4,80.174,48.4,106.671,47.157,106.671,45.617Z"/><path class="cls-5" d="M95.064,45.972s-4.5-1.1-14.357-.994a92.536,92.536,0,0,0-14.548.994v9.07s9.48.676,15.133.676,13.772-.676,13.772-.676Z"/></svg>