<svg id="word" xmlns="http://www.w3.org/2000/svg" viewBox="0 0 160 160"><defs><style>.cls-1{fill:#b89166;}.cls-1,.cls-2,.cls-3,.cls-4,.cls-5,.cls-6{stroke:#9c4c9c;stroke-miterlimit:10;stroke-width:0.498px;}.cls-2{fill:#c1976b;}.cls-3{fill:#fff;}.cls-4{fill:#292929;}.cls-5{fill:none;}.cls-6{fill:#9c4c9c;}</style></defs><path class="cls-1" d="M45.875,88.064s4.562,3.594,4.413,5.889-.6,8.989-.6,10.278-.248,4.657,1.68,5.433,10.658.084,11.5.221,7.3.156,7.3.156a6.875,6.875,0,0,0-.452-4c-.905-2.5-1.615-3.524-2.714-3.729s-2.649-.682-2.455-1.3,4.349-7.16,4.5-7.5S72.5,84.994,72.5,84.994s-7.043-3.067-10.79-2.658S49.3,84.627,49.3,84.627Z"/><path class="cls-1" d="M106.108,82.55s.47,7.006,1.423,8.993a9.271,9.271,0,0,0,4.6,3.829c.62.047,3.582-.154,4.815.429a5.89,5.89,0,0,1,1.62.992L117.3,94.934a12.055,12.055,0,0,0,3.28,1.459c2.125.634,2.072-.691,2.072-.691l-1.439-.955s3.942.955,4.976,1.3a6.405,6.405,0,0,1,2.209,1.932s-.8,4.461.241,5.662,1.727.734,1.727.734a2.94,2.94,0,0,0,1.591-.914c.435-.664,2.854-1.856,3.324-2.692s.9-.472,2.232-3.29,1.907-8.084,1.074-10.282-6.583-5.061-8.844-5.879a27.962,27.962,0,0,1-7.466-4.595,12.751,12.751,0,0,1-1.9-3.725,14.564,14.564,0,0,0-7.434,1.228C108.81,76,106.3,81.963,106.3,81.963l-.526.646Z"/><path class="cls-2" d="M138.941,45.818s2.4-4.695,5.1-2.977.755,5.441.525,6.3a7.085,7.085,0,0,1-.851,1.774s-2.2-2.5-2.872-3.278A21.659,21.659,0,0,0,138.941,45.818Z"/><path class="cls-2" d="M118.634,41.273s5.914,1.5,8.463,2.077,8.4.191,10.414.76,4.655,2.212,6.2,6.805.8,7.174,2.315,9.685a20.673,20.673,0,0,0,4.372,4.713s-.373,4.032-1.821,5.022-6.366.97-6.366.97a3.161,3.161,0,0,1-2.4.844c-1.756.036-6.705-1.5-6.705-1.5s-7.6.458-8.863,1.286a45.5,45.5,0,0,1-5.735,3.457,36.143,36.143,0,0,1-5.156,1.625l1.223-1.511s-3.62,5.249-4.528,5.511-4.08,1.7-4.929,3.062-.518-.451-.518-.451l-4.3,3.093.623-1.073-4.979,1.149s-.446,7.985-.683,10.16-1.1,6.576-1.1,6.576.66-.253,3.147.848,3.618,3.327,4.394,4.35,1.263,1.085,1.019,2.52-2.616,1.475-2.616,1.475-1.312,1.353-2.022.929a27.831,27.831,0,0,0-2.585-1.174s-2.768,2.578-4.523,1.256-4.489-3.913-4.2-4.068-.67-1.463-1.318-2.138-3.14-2.044-3.2-3.15a26.376,26.376,0,0,0-.793-5.4c-.584-2.111-1.322-5.17-3-6.149s-3.731-1.443-4.542-3.22,0-2.428,0-2.428-.541-.65-1.745-.068a27.1,27.1,0,0,0-2.7,1.582l1.492-2.469A10.376,10.376,0,0,0,66.423,88.3c-2.3,1.788-3.9,1.877-3.6,1.673a9.831,9.831,0,0,0,1.077-1.91s-3.669,1.079-3.4.754,2.967-4.041,1.167-2.322-3.63,3-3.581,2.046,1.866-3.554,1.3-3.035-6.365,2.825-5.321,1.362,2.53-1.805,1.044-1.464-6.72,2.318-6.72,2.318a42.5,42.5,0,0,1-6.139,4.228c-3.526,1.986-9.927,3.29-11.338,3.751s-3.674.387-4.018,2.035a22.364,22.364,0,0,0-.137,5.9c.19.716-.238,1,1.236,1.522s2.582.207,3.488,1.678,1.562,2.092.788,3.155-.595,1.771-1.445,1.277a6.577,6.577,0,0,0-2.466-.63c-.194,0-1.421.273-2,.273a8.863,8.863,0,0,1-2.326,0,29.568,29.568,0,0,0-3.812-.341S9.367,110.976,8.463,109s1.059-6.936,2.4-8.676,1.206-4.155,2.018-6.536,2.72-9.566,4.685-12.7,5.163-7.114,6.143-10.265,1.809-7.516,1.809-7.516-1.765.495-1.486-1.091.516-3.1,4.222-7.833,7.562-8.992,10-10.028,18.465-2.733,28.613-3.55,15.8-.963,19.643-2.182,9.207-3.864,16.412-2.271A126.62,126.62,0,0,1,118.634,41.273Z"/><path class="cls-2" d="M125.311,48.9s-1.066-6.288,1.2-7.141,2.566.026,3.9.988a5.2,5.2,0,0,1,2.238,3.573,10.192,10.192,0,0,1,.232,3.505"/><path class="cls-3" d="M140.117,55.792s-.96-2.916-1.947-1.707-1.945,4.519-.721,5.22,1.9.082,2.082-.643S140.117,55.792,140.117,55.792Z"/><path class="cls-4" d="M148.453,65.562l.128,4.773a21.705,21.705,0,0,1,2.083-1.637c.6-.337,2.468-1.932,1.34-3.136S148.552,63.926,148.453,65.562Z"/><path class="cls-5" d="M134.527,63.925s.883,3.595,3.487,5.235a20.509,20.509,0,0,0,4.2,2.145"/><path class="cls-5" d="M135.5,61.68l-.543,1.577a2.041,2.041,0,0,1-.52.932,2.512,2.512,0,0,1-.909.373,3.43,3.43,0,0,0-.956.479"/><path class="cls-5" d="M131.352,68.112c1.36.407,1.957,2.212,3.273,2.758"/><path class="cls-5" d="M117.778,40.912l2.6,3.172a14.039,14.039,0,0,0-3.342.324,15.974,15.974,0,0,0-2.3,1.2l3.519.94s-3.266,1.484-3.645,2.522-.778.959-.778.959l2.664-.2s-2.2,2.257-2.664,2.845,1.467,0,1.467,0a17.062,17.062,0,0,0-1.837,2.756c-.7,1.393-1.465,3.364-1.465,3.364l2.406-1.892a20.214,20.214,0,0,0-1.525,2.366,8.258,8.258,0,0,0-.37,1.778l1.533-1.432a24.739,24.739,0,0,0-1.421,3.085c-.269.936-.623,4.091-.623,4.091v.826s.788-.075,1.416-1.678a5.885,5.885,0,0,1,1.08-2.012,9.376,9.376,0,0,1-.143,2.671c-.285.774-.935,1.685-.618,2.236"/><path class="cls-5" d="M127.534,48.585a5.906,5.906,0,0,1-.019-1.7,2.486,2.486,0,0,1,.756-1.474,2.649,2.649,0,0,1,1.119-.526,1,1,0,0,1,.426-.037c.361.071.565.466.718.818"/><path class="cls-5" d="M93.107,107.932a3.2,3.2,0,0,1,1.7,2.013,8.47,8.47,0,0,1,.319,2.747"/><path class="cls-5" d="M97.562,108.1c.112.1.225.211.334.32a7.507,7.507,0,0,1,2.093,4.328"/><path class="cls-5" d="M132.19,96.235c.074-.022.135.059.172.13a7.5,7.5,0,0,1,.08,6.55"/><path class="cls-5" d="M134.667,94.128l.518,1.076a3.777,3.777,0,0,1,.447,1.532l.182,1.376a3.506,3.506,0,0,1-.116,1.958"/><path class="cls-5" d="M22.752,106.045a3.54,3.54,0,0,1,1.612,1.921,6,6,0,0,1,.281,1.55c.034.463.047.928.039,1.392"/><path class="cls-5" d="M26.36,106.735a1.142,1.142,0,0,1,.824.413,4.146,4.146,0,0,1,1.128,3.478"/><path class="cls-5" d="M30.75,110.909c.086.053.178-.06.218-.158a3.672,3.672,0,0,0-.253-3.2"/><path class="cls-5" d="M62.867,104.231a4.674,4.674,0,0,1,1.948,1.511,3.1,3.1,0,0,1,.579,1.178,4.573,4.573,0,0,1,.08.875l.058,2.09"/><path class="cls-5" d="M66.354,104.5c.028-.1.175-.054.251.016a5.5,5.5,0,0,1,1.6,4.032,2.856,2.856,0,0,1-.334,1.5"/><path class="cls-5" d="M77.084,76.131s0,4.494-1.421,6.168-1.745,4.879-1.745,4.879"/><path class="cls-5" d="M55.805,75.642a24.379,24.379,0,0,0-1.354,3.6,25.708,25.708,0,0,1-.941,3.035,11.308,11.308,0,0,1-5.945,5.536"/><path class="cls-6" d="M140.049,55.569s-.52-1.7-1.056-.993-1.055,2.63-.391,3.038,1.031.048,1.13-.374S140.049,55.569,140.049,55.569Z"/></svg>