<svg id="word" xmlns="http://www.w3.org/2000/svg" xmlns:xlink="http://www.w3.org/1999/xlink" viewBox="0 0 160 160"><defs><style>.cls-1{fill:none;}.cls-2{clip-path:url(#clip-path);}.cls-3{fill:#9c4c9c;}.cls-4{fill:#fdf9d0;stroke-width:0.783px;}.cls-4,.cls-5,.cls-6{stroke:#9c4c9c;}.cls-4,.cls-6{stroke-miterlimit:10;}.cls-5{stroke-width:0.345px;fill:url(#linear-gradient);}.cls-6{fill:#fff;stroke-width:0.391px;}</style><clipPath id="clip-path"><rect class="cls-1" x="14.5" y="13.5" width="132" height="132"/></clipPath><linearGradient id="linear-gradient" x1="88.168" y1="100.803" x2="89.329" y2="54.763" gradientUnits="userSpaceOnUse"><stop offset="0" stop-color="#fff"/><stop offset="0.982" stop-color="#62a3bf"/></linearGradient></defs><g class="cls-2"><path class="cls-3" d="M48.339,23.221s-5.188,1.482-4.447,3.335A2.751,2.751,0,0,0,46.3,28.409s.927,3.891-.556,3.335-4.447.186-1.667,1.483,3.706,1.853,4.447-.556-.186-4.077,1.667-2.965,2.78,7.042,2.78,7.042L52.787,38.6s-4.818,3.335-5.93,5.929a7.022,7.022,0,0,0-.556,4.447h6.115v5.374L52.6,274.459s.3,3.778,5.525,3.778c5.584,0,5.408-3.778,5.408-3.778L64.09,48.608h5.374s.967-6.839-3.706-9.081c-2.467-1.183-3.336-1.112-3.336-2.594s.371-5.559,2.409-5.559,2.409,2.038,5.374,1.853-.185-3.521-.185-3.521-2.965-2.779-.556-2.038,3,1.672,3.15,0c.37-4.262-5.189-4.818-5.189-4.818s-9.635-.741-13.156-.556A27.045,27.045,0,0,0,48.339,23.221Z"/><path class="cls-3" d="M97.073,47.03s-.864-1.4,2.039-2.224a3.794,3.794,0,0,1,4.817,2.409s-.37-2.224,2.78-2.038,5.188,2.038,4.632,2.038,3.15.185,3.15.185,3.706-1.853,3.336,0-6.486,1.112-6.486,1.112-.926,3.891-4.076,3.335-3.15-2.964-3.15-2.964-1.483,2.779-4.262,1.667S96.7,48.7,96.7,48.7H62.422v-3.15S97.536,46.566,97.073,47.03Z"/><path class="cls-3" d="M25.177-16.619l13.2-8.153,8.359-5.744s2.932-7.968,7.478-8.894,6.159.185,8.066,1.853S68.29-29.59,68.29-29.59L89.847-16.433l-6.893,3.891L73.716,28.409l-34.168-.926L31.189-11.8Z"/><polygon class="cls-4" points="35.295 -10.318 42.774 -15.136 46.88 22.48 41.748 25.074 35.295 -10.318"/><polygon class="cls-4" points="47.467 -16.063 67.264 -16.248 63.451 20.071 52.159 20.071 47.467 -16.063"/><polygon class="cls-4" points="72.249 -14.766 68.29 20.812 72.983 23.221 79.582 -9.392 72.249 -14.766"/><path class="cls-5" d="M92.312,68.487c-1.361.18,4.188,13.49.523,13.1-1.162-.124,1.651,3.768,1.067,5.739a11.564,11.564,0,0,0-.777,4.839c-.1,3.225-1.361,4.658-1.652,5.737s.1,3.583.1,7.7-1.165,3.943-1.458,5.2,0,4.3-.1,8.064-.487,1.076-.875.182-.2-6.634-.487-8.962a21.366,21.366,0,0,1-.194-6.633c.388-2.689.388-2.33-.292-4.122a10.7,10.7,0,0,1-.778-4.84c0-2.33.293-2.509-.485-3.224s-1.031-2.505-.351-5.015,1.824-10.224-1.257-9.079c-4.188,1.556.612-13.965-.942-12.712,0,0-1.047,1.686-1.571-1.816a19.52,19.52,0,0,1,.419-7,7.091,7.091,0,0,1-1.047-4.54c.314-2.594.419-4.41.419-4.41l13.507.26s1.361,3.891.105,6.874-1.885.519-1.885.519a18.8,18.8,0,0,1,.838,8.95C94.3,67.839,92.312,68.487,92.312,68.487Z"/><path class="cls-6" d="M78.292,45.063s3.227-5.709,6.7-5.709,3.723,1.986,5.213,1.489,3.474-2.978,4.715-.744,4.716-.249,5.213,1.241,1.985,3.226,1.985,3.971-3.723.744-3.723.744A3.361,3.361,0,0,1,95.418,47.3c-2.234,0-8.935.5-13.155.5A156.587,156.587,0,0,1,66.13,46.055C66.875,46.055,73.824,42.581,78.292,45.063Z"/></g></svg>