<svg id="word" xmlns="http://www.w3.org/2000/svg" viewBox="0 0 160 160"><defs><style>.cls-1{fill:#26a7df;}.cls-1,.cls-11,.cls-12,.cls-13,.cls-2,.cls-3,.cls-4,.cls-5,.cls-6,.cls-7,.cls-8,.cls-9{stroke:#9c4c9c;stroke-width:0.739px;}.cls-1,.cls-11,.cls-2,.cls-5,.cls-6{stroke-linecap:round;}.cls-1,.cls-11,.cls-12,.cls-13,.cls-2,.cls-5,.cls-6,.cls-7,.cls-8,.cls-9{stroke-miterlimit:10;}.cls-2{fill:#ededed;}.cls-3,.cls-7{fill:#fde6db;}.cls-11,.cls-4{fill:none;}.cls-5{fill:#757779;}.cls-6{fill:#c1d840;}.cls-8{fill:#fde1d3;}.cls-9{fill:#ffeec0;}.cls-10{fill:#9c4c9c;}.cls-12{fill:#fff;}.cls-13{fill:#ebc2bf;}</style></defs><path class="cls-1" d="M108.614,135.153a18.462,18.462,0,0,0,1.259-1.608,8.147,8.147,0,0,1,3.484-2.007,28.793,28.793,0,0,1,4.824-1.461c-1.1-3.408-6.537-11.516-10.481-13.153-4.055-1.683-7.051,2.557-7.051,2.557-1.058,3.343,2.468,12.522,3.754,14.471a12.158,12.158,0,0,0,2.656,2.544,2.247,2.247,0,0,1,.226-.3C107.675,135.792,108.2,135.537,108.614,135.153Z"/><path class="cls-2" d="M118.181,130.077a28.793,28.793,0,0,0-4.824,1.461,8.147,8.147,0,0,0-3.484,2.007,18.462,18.462,0,0,1-1.259,1.608c-.414.384-.939.639-1.329,1.047a2.247,2.247,0,0,0-.226.3c2.241,1.68,5.283,3.253,7.339,2.911,3.173-.529,4.76-5.817,3.878-9.043C118.252,130.277,118.212,130.172,118.181,130.077Z"/><path class="cls-1" d="M89.114,144.172a7.453,7.453,0,0,1,1.569.235,16.047,16.047,0,0,0,.135-3.124c-.176-3.35-2.467-7.228-3.525-10.365s-7.228-3.341-8.232-3.613-1.41,3.613-1.41,3.613a20.448,20.448,0,0,0,0,5.476,60.537,60.537,0,0,0,2.54,10.034A14.931,14.931,0,0,1,89.114,144.172Z"/><path class="cls-2" d="M89.114,144.172a14.931,14.931,0,0,0-8.923,2.256c.2.561.391,1.093.58,1.553,1.234,3,4.583,2.644,7.051,1.41,1.692-.846,2.542-2.778,2.861-4.984A7.453,7.453,0,0,0,89.114,144.172Z"/><path class="cls-3" d="M97.013,60.274c4.762-.623,6.046-3.634,8.4-5.771s8.169-6.025,8.169-6.025-.31-5.237.825-7.036,1.693-2.152,2.826-3.834,1.348-5.81,2.8-5.29,1.124,4.039-.02,6.205-.411,2.122-.411,2.122l.6.318s1.561.949,4.2-3.447c.892-1.487,5.066-5.888,6.432-4.982s-6.142,7.487-5,8.025,8.869-4.573,9.755-3.5-7.951,6.045-7.084,6.922,9.782-2,9.251-.022-8.805,2.962-8.407,4.206,4.148,2.011,3.447,3.112-5.769.024-5.769.024a18.538,18.538,0,0,1-3.51,1.9c-4.292,1.485-6.132-.626-8.263,2.249s-10.212,10.346-14.893,12.8"/><path class="cls-4" d="M119.5,41.822c.151,2.2,1.293,5.058-1.028,6.569"/><path class="cls-4" d="M124.119,41.771c1.6,1.113,3.362,3.546,3.1,5.661"/><path class="cls-3" d="M57.449,57.957c-4.761-.623-6.045-3.634-8.4-5.771a101.466,101.466,0,0,0-8.168-6.025s.31-5.237-.826-7.036-1.692-2.152-2.825-3.834-1.349-5.81-2.8-5.29-1.124,4.039.019,6.205.412,2.122.412,2.122l-.6.318s-1.561.949-4.2-3.447c-.892-1.487-5.067-5.888-6.433-4.982s6.143,7.487,5,8.025-8.868-4.573-9.755-3.5,7.951,6.045,7.084,6.922-9.782-2-9.251-.022,8.806,2.962,8.407,4.206-4.147,2.011-3.446,3.112,5.769.024,5.769.024a18.552,18.552,0,0,0,3.509,1.9c4.293,1.485,6.133-.626,8.264,2.249S47.9,60.972,52.584,63.422"/><path class="cls-4" d="M34.958,39.505c-.15,2.2-1.293,5.058,1.028,6.569"/><path class="cls-4" d="M30.343,39.454c-1.6,1.113-3.361,3.546-3.1,5.661"/><path class="cls-5" d="M59.036,104.54a47.658,47.658,0,0,0,3.625,27.718c6.61,14.712,7.462,16.417,10.021,15.778a14.386,14.386,0,0,0,8.164-4.929c2.089-2.566,5.695-3.958,3.776-6.124s-3.28-5.791-4.625-4.725a20.058,20.058,0,0,1-4.33,2.132l.64-11.087s6.23,9.381,8.872,12.366,6.693,9.382,12.023,9.169,8.061-3.625,8.082-5.757a50.961,50.961,0,0,1,1.726-9.872c.64-1.855,2.985-7.612,0-8.891s-5.33,0-5.33.639-2.772,5.387-2.772,5.387-2.559-3.681-2.132-6.453.852-9.553.213-9.361-2.772-5.99-2.772-5.99l-20.256,3.243Z"/><path class="cls-6" d="M53.427,52.412s16.7,11.363,21.387,14.264,24.057-10.7,24.057-10.7.78,10.271,3.552,11.991,2.544,1.99.625,3.27-8.529,4.975-8.529,4.975S88.673,77.68,89.313,82.8s.569,8.793,2.488,13.271,6.041,7.619,4.761,9.538-13.859,9.123-20.895,7.973S55.2,107.525,55.411,103.9,57.97,97.464,58.4,92.58s2.771-8.5,3.624-10.636a25.557,25.557,0,0,0,1.066-6.183s-5.762-6.4-7.678-7.25-7.543-1.907-5.837-4.466S53.427,52.412,53.427,52.412Z"/><path class="cls-7" d="M72.578,58.129,70.83,66.605a8,8,0,0,0,8.525,3.182c5.783-1.252,4.727-11.5,4.727-11.5Z"/><path class="cls-8" d="M94.824,44.857s4.715-1.65,3.471,2.5c-.707,2.354-1.042,1.346-1.363,2.9s-.7,3.694-2.241,4.212c-.935.314-1.42-1.437-1.42-1.437"/><path class="cls-8" d="M63.135,42.441s-4.362-2.349-3.862,1.931c.283,2.431.791,1.487.836,3.067s.041,3.751,1.471,4.5c.868.453,1.653-1.2,1.653-1.2"/><path class="cls-8" d="M94.447,49.223s-1.531,8.236-3.719,9.967-7.239,6.1-12,5.533c-9.293-1.1-14.986-9.182-15.741-11.753s.839-17.547,1.277-19.014,3.458-7.007,12.733-7.82S92.934,29.9,93.6,31.384s3,2.924,3.1,5.662S94.447,49.223,94.447,49.223Z"/><path class="cls-9" d="M60.741,41.3c-.711-.6-3.391-.912-3.391-.912a17.965,17.965,0,0,1-2.136-6.077c-.213-2.729,2.25-9.428,4.3-10.048A35.1,35.1,0,0,0,63.6,22.694s-4.063-.413-4.782-1.119-.491-2.478-.491-2.478.529,2.016,3.807,2.187c1.187.062,3.359.145,3.917.206s-.854.405-1.236-1.65a9.642,9.642,0,0,1,.334-4.2s-.551,2.466.83,3.334a21.725,21.725,0,0,1,2.21,1.565,4.092,4.092,0,0,1-.163-2.074,6.118,6.118,0,0,0-.2-2.51,19.006,19.006,0,0,1,1.372,3.4c.06.764,1.562-2.665,1.772-4.221s.622-4.78.622-4.78a6.4,6.4,0,0,1,1.195,3.961c-.294,1.894.9-1.617,4.8-1.08s7.732,1.41,8.942,2.733a4.884,4.884,0,0,0,4.144,2.054c2.106.035,4.271-1.094,7.192.688a5.617,5.617,0,0,1,2.823,5.358,7.756,7.756,0,0,0-3.573-2.934c-2.638-1.2-2.88-.017-2.88-.017A47.4,47.4,0,0,0,98.6,26c1.54,1.294,7.416,1.438,7.416,1.438s.212,1.3-2.079,1.721a21.494,21.494,0,0,1-3.508.417l3.231,1.7a11.7,11.7,0,0,1,2.827,2.17s-3.181-1.04-4.424-1.371,2.237,1.876,2.443,4.495a19.474,19.474,0,0,1-.549,5.56c-.076.446-1.542-4.151-1.542-4.151s.679,3.017-.63,4.671-3.046,1.269-4.885,2.626-3.2,6.23-3.2,6.23,1.825-12.484,1.419-13.437-.138-3.175-3.378-4.979-3.63-3.968-5.5-3.8a18.025,18.025,0,0,1-6.442-.314,17.946,17.946,0,0,0-5.361-.629c-.659.057-4.159.584-5.7,2.147s-3.666,4.058-3.8,5.169-1.5,13.14-1.5,13.14S61.452,41.9,60.741,41.3Z"/><path class="cls-9" d="M82.24,30.4c-.414-.146-3.636-1.22-4.214-4.357s1.28-6.266,3.368-6.449,8.709,1,8.709,1-8.692-.777-9.366,1.92S82.451,29.4,82.451,29.4s.929,1.109.886.022-1.393-3.715.226-5.778c1.266-1.613,2.331-1.69,4.9-1.366a18.6,18.6,0,0,1,7.26,2.221,13.691,13.691,0,0,0,5.864,1.464s-5.562,1.037-7.9.8-5.176-2.514-6.426-1.525-3.04,4.992-3.04,4.992A2.4,2.4,0,0,1,82.24,30.4Z"/><path class="cls-9" d="M85.572,29a20.979,20.979,0,0,1,5.569-.807,16.58,16.58,0,0,1,4.927,1.212c1.7.5,4.294,1.558,4.294,1.558s-.882.565-4.552.337-4.245-1.169-5.7-1.269A30.053,30.053,0,0,1,85.572,29Z"/><path class="cls-10" d="M74.88,28.641a7.438,7.438,0,0,1-3.089-3.927,10.19,10.19,0,0,1-.24-2.481,8.239,8.239,0,0,1,.28-2.465,3.414,3.414,0,0,1,1.476-2,6.466,6.466,0,0,1,2.353-.721,20.983,20.983,0,0,1,4.852-.232,20.817,20.817,0,0,0-4.819.415A6.234,6.234,0,0,0,73.457,18a3.087,3.087,0,0,0-1.271,1.867,7.852,7.852,0,0,0-.173,2.352,9.752,9.752,0,0,0,.308,2.331A6.829,6.829,0,0,0,75.256,28Z"/><path class="cls-10" d="M70.992,26.673l-3.793.281c-1.241.136-2.614.009-3.5.816a3.582,3.582,0,0,0-.871,1.571,8.579,8.579,0,0,0-.353,1.839,22.114,22.114,0,0,0,.107,3.787,22.1,22.1,0,0,1-.291-3.8,8.8,8.8,0,0,1,.27-1.9,3.9,3.9,0,0,1,.878-1.758,3.261,3.261,0,0,1,1.8-.851c.647-.115,1.27-.17,1.9-.254l3.776-.465Z"/><path class="cls-10" d="M72.117,28.872a2.828,2.828,0,0,1-.828-1.11,11.029,11.029,0,0,1-.5-1.157,11.211,11.211,0,0,1-.594-2.431,6.962,6.962,0,0,1-.066-1.253,5.08,5.08,0,0,1,.277-1.222c.251-.785.538-1.548.8-2.322-.207.79-.438,1.58-.626,2.37a4.821,4.821,0,0,0-.179,1.18,6.7,6.7,0,0,0,.153,1.187A10.811,10.811,0,0,0,71.3,26.4a10.3,10.3,0,0,0,.555,1.056,2.2,2.2,0,0,0,.667.8Z"/><path class="cls-10" d="M91.828,31.242a6.289,6.289,0,0,0,2.856,1.465,11.4,11.4,0,0,0,3.331.05,6.184,6.184,0,0,1,3.4.512,2.318,2.318,0,0,1,.875,1.483,5.339,5.339,0,0,1,.118,1.7,5.308,5.308,0,0,0-.207-1.68,2.2,2.2,0,0,0-.876-1.345,5.929,5.929,0,0,0-3.279-.3,11.894,11.894,0,0,1-3.468.126A6.939,6.939,0,0,1,91.347,31.8Z"/><path class="cls-11" d="M79.987,51.735a1.857,1.857,0,0,0-1.571-1.8A3.845,3.845,0,0,0,75.9,50.5"/><path class="cls-12" d="M74.069,45.176s-.536-4.618-3.372-4.246-3.577,3.995-2.547,5.378S73.541,49.272,74.069,45.176Z"/><path class="cls-12" d="M83.29,46.758s-.184-4.649,2.77-4.785a3.654,3.654,0,0,1,3.45,4.853C88.678,48.372,84.477,50.7,83.29,46.758Z"/><path class="cls-11" d="M90.638,39.613a4.076,4.076,0,0,0-4.573-2.4"/><path class="cls-11" d="M73.3,37.011a8.109,8.109,0,0,1-1.385.013,6.409,6.409,0,0,0-.988-.045,4.667,4.667,0,0,0-2.449,1.292"/><ellipse class="cls-10" cx="84.769" cy="45.656" rx="1.602" ry="1.884" transform="translate(-2.336 4.632) rotate(-3.087)"/><ellipse class="cls-10" cx="69.474" cy="44.352" rx="1.602" ry="1.884" transform="translate(-2.288 3.806) rotate(-3.087)"/><path class="cls-13" d="M71.7,53.215s7.519,1.316,10.527,0,2.443-.416,2.067,1.766-2.7,6.378-6.145,6.536S71.7,53.215,71.7,53.215Z"/><path class="cls-11" d="M110.13,126.125a7.454,7.454,0,0,1-2.177,2.319"/><path class="cls-11" d="M111.544,127.191a11.076,11.076,0,0,1-2.978,2.92"/><path class="cls-11" d="M83.718,141.505A8.586,8.586,0,0,0,86,141.429"/><path class="cls-11" d="M83.574,142.935a26.259,26.259,0,0,0,2.632-.031"/></svg>