<svg id="word" xmlns="http://www.w3.org/2000/svg" xmlns:xlink="http://www.w3.org/1999/xlink" viewBox="0 0 160 160"><defs><style>.cls-1,.cls-17{fill:none;}.cls-2{clip-path:url(#clip-path);}.cls-3{fill:#4f62a5;}.cls-10,.cls-11,.cls-12,.cls-14,.cls-15,.cls-16,.cls-17,.cls-18,.cls-19,.cls-20,.cls-21,.cls-3,.cls-4,.cls-5,.cls-6,.cls-7,.cls-8,.cls-9{stroke:#9d4b9c;stroke-miterlimit:10;}.cls-3,.cls-4,.cls-5,.cls-6{stroke-width:0.815px;}.cls-4{fill:#f38235;}.cls-5{fill:#fcee4b;}.cls-6{fill:#fcc145;}.cls-7{fill:#26a7df;}.cls-10,.cls-11,.cls-12,.cls-14,.cls-15,.cls-16,.cls-17,.cls-18,.cls-19,.cls-20,.cls-21,.cls-7,.cls-8,.cls-9{stroke-width:0.652px;}.cls-10,.cls-8{fill:#fdeadf;}.cls-9{fill:#c2976a;}.cls-10,.cls-11{stroke-linecap:round;}.cls-11{fill:#d999a8;}.cls-12{fill:#fff;}.cls-13{fill:#9c4c9c;}.cls-14{fill:#fde1d3;}.cls-15{fill:#9d1d20;}.cls-16{fill:#fab365;}.cls-18{fill:#52a37b;}.cls-19{fill:#895d3b;}.cls-20{fill:#5b4a42;}.cls-21{fill:#d8e14e;}.cls-22{fill:#2a3b8e;}</style><clipPath id="clip-path"><rect class="cls-1" x="14" y="14" width="132" height="132"/></clipPath></defs><g class="cls-2"><path class="cls-3" d="M184.876,90.042H-70.22V105.19h255.1S186,89.054,184.876,90.042Z"/><path class="cls-3" d="M184.909,71.81H-53.426V86.959H184.909S185.954,70.823,184.909,71.81Z"/><path class="cls-4" d="M148.448,86.566l-23.812-.078.584-15.074c.1-2.544,1.3-4.6,2.69-4.6l17.418.057c2.144.007,3.759,3.2,3.606,7.131Z"/><path class="cls-4" d="M118.063,86.566l-23.812-.078.584-15.074c.1-2.544,1.3-4.6,2.69-4.6l17.418.057c2.144.007,3.759,3.2,3.606,7.131Z"/><path class="cls-5" d="M87.678,86.566l-23.812-.078.584-15.074c.1-2.544,1.3-4.6,2.69-4.6l17.418.057c2.144.007,3.759,3.2,3.606,7.131Z"/><path class="cls-6" d="M57.293,86.566l-23.812-.078.584-15.074c.1-2.544,1.3-4.6,2.69-4.6l17.418.057c2.144.007,3.759,3.2,3.606,7.131Z"/><path class="cls-6" d="M26.908,86.566,3.1,86.488,3.68,71.414c.1-2.544,1.3-4.6,2.69-4.6l17.418.057c2.144.007,3.758,3.2,3.606,7.131Z"/><path class="cls-7" d="M87.071,29.717s.808,12.12,1.212,14.645S91.212,56.987,91.515,58.2s2.727,8.889,2.727,8.889,2.727-2.727,3.232-5.353,1.414-4.714,1.313-6.431S94.343,42.14,94.04,41.029s-1.717-11.312-1.717-11.312Z"/><path class="cls-7" d="M122.22,30.525S120.4,40.12,120.4,41.433a34.574,34.574,0,0,1-2.323,8.989c-1.212,2.727-5.858,10.2-5.858,10.2S115.15,68,116.059,68.7s3.434.606,4.242-2.424,4.141-13.737,4.141-13.737l2.828-21.816Z"/><path class="cls-7" d="M98.922,55.035,94.444,67.694l1.01,18.382a18.031,18.031,0,0,1,5.151.505c3.333.707,17.474.5,17.474.5s.707-13.029,1.212-15.756,2.053-8.484,2.053-8.484l-7.3-6.263Z"/><path class="cls-8" d="M96.565,43.251S97.609,53.9,100.5,58.4c3.03,4.714,8.148,5.219,10.067,3.7s6.2-9.764,6.3-12.39.909-8.787.1-9.393A21.783,21.783,0,0,0,106.261,37.6a22.613,22.613,0,0,0-8.787,2.323Z"/><path class="cls-9" d="M115.015,41.332a33.013,33.013,0,0,0-4.545,2.727c-.808.808-.5-1.212.3-2.121s-4.04,1.818-4.848,2.323a3.612,3.612,0,0,1-1.717.5l2.323-2.828-5.454,2.222,2.323-2.424-4.041,2.222s-1.717,3.838-1.616,5.05.3,2.525.3,2.525-3.131-6.565-2.929-8.686.808-4.848,1.414-5.555-1.818.606-1.818.606,3.03-2.02,3.939-2.121-3.03-.707-3.03-.707.909-.909,5.152-.909-1.516-2.424-1.516-2.424,5.859-.1,7.273.606,3.131,1.616,3.131,1.616l-.707-1.818s3.434,1.515,3.737,2.02,2.121-1.717,2.121-1.717a14.323,14.323,0,0,0,.2,3.434c.3.505,3.636.4,3.636.4a15.159,15.159,0,0,0-.1,3.131,10.281,10.281,0,0,1-.3,3.535c-.3,1.919.3,2.525-.3,4.343s-1.313,3.771-1.313,3.771.707-3.771.2-5.084-1.818-4.141-1.818-4.141Z"/><path class="cls-10" d="M105.965,53.582a1.787,1.787,0,0,1,1.929-.055"/><path class="cls-11" d="M111.081,53.926a8.993,8.993,0,0,1-3.3,1.866,8.449,8.449,0,0,1-1.991.15,2.152,2.152,0,0,1-1.837-.637c-.081-.12-.261-.263-.329-.135,0,0,2.838,3.806,3.68,3.871,1.313.1,2.895-1.919,3.1-2.895A17.426,17.426,0,0,1,111.081,53.926Z"/><path class="cls-10" d="M99.248,48.149c.321-.077.425-.468.624-.731a1.57,1.57,0,0,1,.354-.321,3.871,3.871,0,0,1,3.442-.481"/><ellipse class="cls-12" cx="101.75" cy="50.826" rx="1.481" ry="2.054"/><ellipse class="cls-13" cx="101.222" cy="51.079" rx="0.886" ry="1.229"/><ellipse class="cls-12" cx="111.143" cy="50.288" rx="1.481" ry="2.054"/><ellipse class="cls-13" cx="110.616" cy="50.54" rx="0.886" ry="1.229"/><path class="cls-10" d="M113.465,47.273c-.32-.076-.425-.468-.623-.73a1.556,1.556,0,0,0-.355-.322,3.869,3.869,0,0,0-3.441-.48"/><path class="cls-14" d="M48.3,57.14a21.907,21.907,0,0,0,0,2.923c.128.5-1.024,2.061-1.024,2.061s.01,3.062.517,4.009a25.536,25.536,0,0,0,2.748,3.229s3.456-4.4,3.84-5.178A28.215,28.215,0,0,0,55.4,60.946L54.122,57.14Z"/><path class="cls-15" d="M45.673,87.235A29.906,29.906,0,0,1,40.1,85.008s-1.349.473-.261-5.82a23.881,23.881,0,0,0-1.291-11.962s5.2-4.713,5.329-5.381l.128-.668a3.874,3.874,0,0,1,.938-.218c1.726-.129,2.412-.34,2.636-.129,0,0-.118-.043.138,1.8s2.305,4.9,2.305,4.9a8.351,8.351,0,0,0,3.328-2.562,28.236,28.236,0,0,0,1.892-4.11l1.628-.233s4.078,4.738,4.4,7.467S58.667,77.1,60.2,79.941s2.035,6.831,1.843,7.165-2.582-.173-2.582-.173-10.783,1.138-13.791.3"/><path class="cls-14" d="M40.078,40.3s-.614,5.679-.55,6.069-1.439,1.278.273,4.676,6.64,7.407,8.5,7.685a9.022,9.022,0,0,0,7.1-1.621c2.819-2,5.955-3.056,6.019-6.954S59.883,39.74,57.771,37.457,52.2,32.891,48.3,34.84A54.121,54.121,0,0,0,40.078,40.3Z"/><path class="cls-16" d="M55.4,36.678s0,.946-1.854.946-6.721-1.5-7.233.39-.384,3.9.256,4.566.136.835-.572,0a12.541,12.541,0,0,1-1.405-2.395s.121,2.228.7,2.729,0,1.225-1.792-.557-1.472-1.726-1.792-.724-1.281,1.671-1.281,2.506.129,2.3-.64,2.951-1.088.557-1.088.557.169,1.641-.555-1.157-3.029-2.852-2-5.247,2.56-2.784,2.56-4.176.275-3.506,4.755-5.009a13.6,13.6,0,0,1,7.576-.726c3.854.218,3.031,1.893,3.287,2.06s1.792-.222,1.792-.222c4.609.668,5.149-.214,7.326,3.461S68,39.952,66.02,43.237s-1.721,4.855-2.361,6.247-1.833-.115-1.833-.115-2.769,2.14-2.961,0,1.018-1.611.25-4.4a16.337,16.337,0,0,0-3.073-5.735A5.12,5.12,0,0,1,55.4,36.678Z"/><path class="cls-12" d="M43.085,45.7c2.4,1,1.507,2.655,1.507,2.655s-.967,1.41-2.311.908S40.689,44.7,43.085,45.7Z"/><path class="cls-17" d="M43.451,51.528a7.011,7.011,0,0,0,5.788,2.078,17.182,17.182,0,0,0,6.142-1.838"/><path class="cls-17" d="M46.4,51.162a1.247,1.247,0,0,1,1.284-.838,2.238,2.238,0,0,1,1.5.7"/><path class="cls-14" d="M61.378,48.753s2.473-.9,2.921,0-.192.946-.576,1.868.209,2.169-1.9,2.816-2.274-.906-2.21-1.24"/><ellipse class="cls-13" cx="42.897" cy="46.718" rx="1.283" ry="1.178"/><path class="cls-12" d="M52.51,45.7c2.4,1,1.507,2.655,1.507,2.655s-.968,1.41-2.312.908S50.114,44.7,52.51,45.7Z"/><ellipse class="cls-13" cx="52.322" cy="46.718" rx="1.283" ry="1.178"/><path class="cls-17" d="M50.138,43.092a3.288,3.288,0,0,1,3.494.3"/><path class="cls-17" d="M40.981,44.419a2.531,2.531,0,0,1,2.611-.714"/><path class="cls-18" d="M32.149,30.9S33.9,47.984,34.285,50.417,37.107,62.58,37.4,63.748s2.627,8.563,2.627,8.563,2.628-2.627,3.114-5.157,1.363-4.541,1.265-6.195-4.184-10.735-4.476-11.8-2.064-18.43-2.064-18.43Z"/><path class="cls-18" d="M65.735,30.367s-1.883,10.8-1.883,12.065a33.292,33.292,0,0,1-2.238,8.66c-1.168,2.627-5.644,9.828-5.644,9.828s2.822,7.1,3.7,7.785,3.308.583,4.087-2.336,3.989-13.234,3.989-13.234l2.815-22.59Z"/><path class="cls-6" d="M178.833,86.566l-23.812-.078.584-15.074c.1-2.544,1.3-4.6,2.69-4.6l17.418.057c2.144.007,3.759,3.2,3.607,7.131Z"/><path class="cls-19" d="M46.005,83.584s-5.533-5.323-7.089-.761.173,21.291.173,21.291l9.42.6S50.673,88.336,46.005,83.584Z"/><path class="cls-19" d="M55.3,83.584s-5.533-5.323-7.089-.761.173,21.291.173,21.291l9.42.6S59.963,88.336,55.3,83.584Z"/><path class="cls-20" d="M103.888,83.226S95.7,79.758,94.141,84.32s2.831,19.437,2.831,19.437l9.421.6S108.557,87.979,103.888,83.226Z"/><path class="cls-20" d="M114.508,83.248s-6.863-5.344-8.419-.782.173,21.291.173,21.291l9.421.6S119.176,88,114.508,83.248Z"/><path class="cls-3" d="M184.842,108.273H-87.728v15.149h272.57S186.037,107.285,184.842,108.273Z"/><path class="cls-3" d="M184.833,126.5H-92.373v15.149H184.833S186.049,125.516,184.833,126.5Z"/><path class="cls-3" d="M184.776,144.735h-306.09v15.149h306.09S186.119,143.747,184.776,144.735Z"/><path class="cls-6" d="M163.817,104.8l-23.812-.078.584-15.074c.1-2.544,1.3-4.6,2.69-4.6L160.7,85.1c2.144.007,3.758,3.2,3.606,7.131Z"/><path class="cls-4" d="M133.432,104.8l-23.812-.078.584-15.074c.1-2.544,1.3-4.6,2.69-4.6l17.417.057c2.145.007,3.759,3.2,3.607,7.131Z"/><path class="cls-4" d="M103.047,104.8l-23.812-.078.584-15.074c.1-2.544,1.3-4.6,2.69-4.6l17.417.057c2.145.007,3.759,3.2,3.607,7.131Z"/><path class="cls-5" d="M72.662,104.8l-23.812-.078.584-15.074c.1-2.544,1.3-4.6,2.69-4.6l17.417.057c2.144.007,3.759,3.2,3.607,7.131Z"/><path class="cls-6" d="M42.277,104.8l-23.812-.078.583-15.074c.1-2.544,1.3-4.6,2.691-4.6l17.417.057c2.144.007,3.759,3.2,3.607,7.131Z"/><path class="cls-6" d="M11.892,104.8l-23.812-.078.583-15.074c.1-2.544,1.3-4.6,2.691-4.6L8.771,85.1c2.144.007,3.759,3.2,3.607,7.131Z"/><path class="cls-6" d="M177.761,123.028l-23.812-.078.583-15.074c.1-2.544,1.3-4.6,2.691-4.6l17.417.057c2.144.007,3.759,3.2,3.607,7.131Z"/><path class="cls-6" d="M147.376,123.028l-23.812-.078.583-15.074c.1-2.544,1.3-4.6,2.691-4.6l17.417.057c2.144.007,3.759,3.2,3.607,7.131Z"/><path class="cls-4" d="M116.99,123.028l-23.811-.078.583-15.074c.1-2.544,1.3-4.6,2.691-4.6l17.417.057c2.144.007,3.759,3.2,3.607,7.131Z"/><path class="cls-4" d="M86.605,123.028l-23.811-.078.583-15.074c.1-2.544,1.3-4.6,2.691-4.6l17.417.057c2.144.007,3.759,3.2,3.607,7.131Z"/><path class="cls-5" d="M56.22,123.028l-23.811-.078.583-15.074c.1-2.544,1.3-4.6,2.691-4.6l17.417.057c2.144.007,3.759,3.2,3.607,7.131Z"/><path class="cls-6" d="M25.835,123.028,2.024,122.95l.583-15.074c.1-2.544,1.3-4.6,2.691-4.6l17.417.057c2.144.007,3.759,3.2,3.607,7.131Z"/><path class="cls-6" d="M159.527,141.259l-23.812-.078.583-15.074c.1-2.544,1.3-4.6,2.691-4.6l17.417.057c2.144.007,3.759,3.2,3.607,7.132Z"/><path class="cls-6" d="M129.141,141.259l-23.811-.078.583-15.074c.1-2.544,1.3-4.6,2.691-4.6l17.417.057c2.144.007,3.759,3.2,3.607,7.132Z"/><path class="cls-4" d="M98.756,141.259l-23.811-.078.583-15.074c.1-2.544,1.3-4.6,2.691-4.6l17.417.057c2.144.007,3.759,3.2,3.607,7.132Z"/><path class="cls-4" d="M68.371,141.259l-23.811-.078.583-15.074c.1-2.544,1.3-4.6,2.691-4.6l17.417.057c2.144.007,3.759,3.2,3.607,7.132Z"/><path class="cls-5" d="M37.986,141.259l-23.811-.078.583-15.074c.1-2.544,1.3-4.6,2.691-4.6l17.417.057c2.144.007,3.759,3.2,3.607,7.132Z"/><path class="cls-6" d="M7.6,141.259l-23.812-.078.584-15.074c.1-2.544,1.3-4.6,2.69-4.6l17.418.057c2.144.007,3.759,3.2,3.607,7.132Z"/><path class="cls-6" d="M175.615,159.49l-23.811-.078.583-15.074c.1-2.544,1.3-4.6,2.691-4.6l17.417.057c2.144.007,3.759,3.2,3.607,7.132Z"/><path class="cls-6" d="M145.23,159.49l-23.811-.078L122,144.338c.1-2.544,1.3-4.6,2.691-4.6l17.417.057c2.144.007,3.759,3.2,3.607,7.132Z"/><path class="cls-6" d="M114.845,159.49l-23.811-.078.583-15.074c.1-2.544,1.3-4.6,2.691-4.6l17.417.057c2.144.007,3.759,3.2,3.607,7.132Z"/><path class="cls-4" d="M84.46,159.49l-23.812-.078.584-15.074c.1-2.544,1.3-4.6,2.691-4.6l17.417.057c2.144.007,3.759,3.2,3.607,7.132Z"/><path class="cls-4" d="M54.075,159.49l-23.812-.078.584-15.074c.1-2.544,1.3-4.6,2.69-4.6l17.418.057c2.144.007,3.759,3.2,3.607,7.132Z"/><path class="cls-5" d="M23.69,159.49l-23.812-.078.584-15.074c.1-2.544,1.3-4.6,2.69-4.6l17.418.057c2.144.007,3.759,3.2,3.606,7.132Z"/><path class="cls-21" d="M23.706,20.626s-.1,5.959,0,7.879-1.741,5.077-1.741,5.077,63.74-1.934,67.174-1.429,25.779,1.072,30.728,1.072,16.436,2.5,16.436,2.5l-2.367-15Z"/><path class="cls-8" d="M91.111,19.347s-.741-.741-1.01,0-.472,3.569.337,3.569S91.582,19.886,91.111,19.347Z"/><path class="cls-8" d="M89.562,19.145s-1.616-.943-1.414.673,0,3.3.875,3.1.741-1.212.741-1.886A15.551,15.551,0,0,0,89.562,19.145Z"/><path class="cls-8" d="M87.407,19.347A1.415,1.415,0,0,0,86.4,20.9c.023.877-.134,1.818.741,1.683S88.35,19.953,87.407,19.347Z"/><path class="cls-8" d="M85.993,19.953s-1.01.606-.942,1.414.606,1.885,1.01,1.212S87,20.357,85.993,19.953Z"/><path class="cls-8" d="M122.23,19.347s.741-.741,1.01,0,.471,3.569-.337,3.569S121.759,19.886,122.23,19.347Z"/><path class="cls-8" d="M123.779,19.145s1.616-.943,1.414.673,0,3.3-.876,3.1-.74-1.212-.74-1.886A15.551,15.551,0,0,1,123.779,19.145Z"/><path class="cls-8" d="M125.933,19.347a1.416,1.416,0,0,1,1.011,1.549c-.023.877.134,1.818-.741,1.683S124.991,19.953,125.933,19.347Z"/><path class="cls-8" d="M127.348,19.953s1.01.606.942,1.414-.606,1.885-1.01,1.212S126.338,20.357,127.348,19.953Z"/><path class="cls-8" d="M35.371,18.632s-.741-.74-1.01,0S33.89,22.2,34.7,22.2,35.843,19.171,35.371,18.632Z"/><path class="cls-8" d="M33.822,18.43s-1.616-.942-1.414.674,0,3.3.876,3.1.74-1.212.74-1.885A15.55,15.55,0,0,0,33.822,18.43Z"/><path class="cls-8" d="M31.668,18.632a1.414,1.414,0,0,0-1.01,1.549c.022.878-.135,1.818.74,1.683S32.61,19.238,31.668,18.632Z"/><path class="cls-8" d="M30.254,19.238s-1.01.606-.943,1.414.606,1.886,1.01,1.212S31.264,19.642,30.254,19.238Z"/><path class="cls-8" d="M66.49,18.632s.741-.74,1.01,0,.472,3.569-.336,3.569S66.019,19.171,66.49,18.632Z"/><path class="cls-8" d="M68.039,18.43s1.616-.942,1.414.674,0,3.3-.875,3.1-.741-1.212-.741-1.885A15.55,15.55,0,0,1,68.039,18.43Z"/><path class="cls-8" d="M70.194,18.632a1.415,1.415,0,0,1,1.01,1.549c-.022.878.134,1.818-.741,1.683S69.251,19.238,70.194,18.632Z"/><path class="cls-8" d="M71.608,19.238s1.01.606.943,1.414-.606,1.886-1.01,1.212S70.6,19.642,71.608,19.238Z"/><path class="cls-22" d="M40.647,30.593V27.729A5.037,5.037,0,0,0,42.755,29.1a8.528,8.528,0,0,0,2.963.494q1.7,0,1.7-.456a.285.285,0,0,0-.228-.287,6.35,6.35,0,0,0-1.1-.14l-1.248-.1a11.561,11.561,0,0,1-3.078-.523q-1.431-.574-1.432-1.625a1.724,1.724,0,0,1,.961-1.549,5.269,5.269,0,0,1,2.649-.561,8.84,8.84,0,0,1,2.914.448l.239.084,1.6-.494v2.416a8.612,8.612,0,0,0-4.79-1.466q-1.532,0-1.532.457,0,.213.372.322a8.3,8.3,0,0,0,1.4.193l1.214.1a10.21,10.21,0,0,1,3.061.553,1.873,1.873,0,0,1,1.3,1.658,1.657,1.657,0,0,1-1.028,1.48,5.869,5.869,0,0,1-2.761.55,12.63,12.63,0,0,1-3.81-.615Z"/><path class="cls-22" d="M60.786,24.651l-1.369,1.043,2.391,3.337,2.16,1.336h-7.2l1.985-1.173-.26-.393H55.2l-.255.393,1.725,1.173H51.331l1.683-1.336,2.354-3.337-1.34-1.043Zm-4.02,1.658-1.009,1.549h2.085Z"/><path class="cls-22" d="M65.311,24.651h6.925l1.047,0,1.34.088a3.673,3.673,0,0,1,1.637.555,1.211,1.211,0,0,1,.628.994q0,1.089-2.483,1.378a3.079,3.079,0,0,1,1.292.6,3.786,3.786,0,0,1,.856,1.275l1.386.83H73.886a9.812,9.812,0,0,0-.934-1.826q-.26-.369-1.2-.369H70.36v.867l2.1,1.328H65.311l2.1-1.328V25.987Zm5.049,2.391h1.872l.582-.008q.947,0,.946-.624a.542.542,0,0,0-.309-.547,3.431,3.431,0,0,0-1.211-.14H70.36Z"/><path class="cls-22" d="M88.593,24.651l-1.369,1.043,2.391,3.337,2.161,1.336h-7.2l1.984-1.173L86.3,28.8H83.008l-.256.393,1.725,1.173H79.139l1.683-1.336,2.353-3.337-1.34-1.043Zm-4.019,1.658-1.009,1.549H85.65Z"/><path class="cls-22" d="M105.65,24.651l-2.1,1.332v2.445a1.794,1.794,0,0,1-1,1.681,6.683,6.683,0,0,1-3.08.546,7.735,7.735,0,0,1-3.337-.619q-1.29-.62-1.29-1.608V25.983l-2.1-1.332H99.7L97.8,25.983V28.16a1.131,1.131,0,0,0,.486,1.022,2.918,2.918,0,0,0,1.553.318,3.057,3.057,0,0,0,1.6-.321,1.121,1.121,0,0,0,.5-1.019V25.983l-1.905-1.332Z"/><path class="cls-22" d="M107.474,27.829l2.148-.28c-.016.083-.029.148-.037.192a3.99,3.99,0,0,0-.1.683q0,1.075,1,1.076a.785.785,0,0,0,.706-.274,2.211,2.211,0,0,0,.178-1.083v-2.16l-2.1-1.332h7.147l-2.1,1.332v2.428a1.616,1.616,0,0,1-.415,1.248,4.849,4.849,0,0,1-3.341,1,4.922,4.922,0,0,1-2.475-.525,1.611,1.611,0,0,1-.9-1.447A1.674,1.674,0,0,1,107.474,27.829Z"/><path class="cls-22" d="M119.766,28.83a1.571,1.571,0,0,1,.873.247.6.6,0,0,1,0,1.126,1.676,1.676,0,0,1-1.748,0,.609.609,0,0,1,0-1.13A1.586,1.586,0,0,1,119.766,28.83Zm.038-.419H119.7l-1.08-2.562a1,1,0,0,1-.088-.39.841.841,0,0,1,.358-.676,1.344,1.344,0,0,1,.857-.283,1.3,1.3,0,0,1,.862.289.913.913,0,0,1,.343.729.823.823,0,0,1-.067.331Z"/></g></svg>