<svg id="word" xmlns="http://www.w3.org/2000/svg" viewBox="0 0 160 160"><defs><style>.cls-1{fill:#9c4c9c;}.cls-2{fill:#fffdef;stroke-width:0.664px;}.cls-2,.cls-3{stroke:#9c4c9c;stroke-miterlimit:10;}.cls-3{fill:#829748;stroke-width:0.266px;}.cls-4{fill:#9c519e;}.cls-5{fill:none;stroke:#4b6931;stroke-width:0.93px;}</style></defs><path class="cls-1" d="M62.987,120.994c-.149-.481-.194-.5-.814-.367l-.054.267c-.458.086-.57.163-.55.369.013.139.243.292.427.284.225-.011.332-.124.365-.368ZM61.5,122.966c0,.157.227.315.458.32a.347.347,0,0,0,.382-.361c.007-.175-.132-.294-.337-.29C61.741,122.64,61.5,122.8,61.5,122.966Zm5.513,1.193a.775.775,0,0,0-.285-.157.388.388,0,0,0-.46.346c.009.156.217.283.432.265A.438.438,0,0,0,67.011,124.159Zm-3.591-1.374c-.536-.18-.66-.153-.922.162.217.29.217.287.42.271C63.226,123.2,63.305,123,63.42,122.785Zm-2.415-4.051c-.228.006-.422.139-.413.282s.223.289.428.263c.177-.022.381-.044.386-.251C61.41,118.875,61.2,118.729,61.005,118.734Zm1.509,1.146c.012-.151-.127-.258-.366-.266-.19-.007-.377.012-.42.211-.031.143.207.332.421.343A.37.37,0,0,0,62.514,119.88Zm1.08,2.036c-.105.454.083.632.472.521a.312.312,0,0,0,.2-.2.259.259,0,0,0-.133-.229A3.018,3.018,0,0,0,63.594,121.916Zm.046,1.443a5.444,5.444,0,0,0-.567.035.23.23,0,0,0-.2.3c.018.081.1.2.179.212a.459.459,0,0,0,.322-.107A2.139,2.139,0,0,0,63.64,123.359Zm2.908,2.2c.064.107.1.169.139.228.081.117.2.227.356.129a.385.385,0,0,0,.164-.311c-.018-.157-.187-.226-.375-.189A1.316,1.316,0,0,0,66.548,125.563Zm-3.929-1.272c-.261.007-.365.086-.353.256.009.142.113.19.26.193.215,0,.387-.1.388-.248C62.916,124.326,62.786,124.287,62.619,124.291Z"/><path class="cls-2" d="M85.914,15.575s1.4-2.262.8-2.814a1.719,1.719,0,0,0-2-.256c-.5.338-.722,1.943-.722,1.943s-1.631-.482-2,.23A2.511,2.511,0,0,0,82.12,16.5s-1.96.26-2,1.021a3.534,3.534,0,0,0,.242,1.408s-1.357-.053-1.332.68a1.527,1.527,0,0,0,.388,1.059s-.707,1.218-.388,1.365.147.869.1,1.051-1.088-.455-1.046.659.718.895.718.895-1.509.239-1.489,1.117l.02.878s-1.833-.439-2.25.622a4.259,4.259,0,0,0,0,2.414s-1.2,1.716-.75,2.317a6.867,6.867,0,0,0,1.1,1.106,11.092,11.092,0,0,0-2.178,1.152,2.636,2.636,0,0,0-.726,2.682c.386.873,1.524.342.726,1.594S71.59,40.283,72.4,41s1.048.331,1.266.927-.8.819,0,1.342a9.725,9.725,0,0,0,1.18.7.88.88,0,0,0,.07,1.121c.513.482.329,1.246,1.115,1.573s-.927.95-.113,2.157a5.517,5.517,0,0,0,1.2,1.447V51.4a7.118,7.118,0,0,1,1.027.6c.28.238-1.429,1.609-.49,2.836s.622,1.756,1.821.731a2.785,2.785,0,0,0,.724-2.707,3.721,3.721,0,0,0,.379-1.942,2.883,2.883,0,0,0-.379-.911s.143-1.4.17-1.869.324-1.05,1.044-.706,2.394-1.017,2.124-1.947a1.658,1.658,0,0,0-.877-1.149A1.193,1.193,0,0,0,83,42.972a1.973,1.973,0,0,0-1.315-1.09s1.8-.27,1.756-.955-.893-.83-.893-.83,2.149-.332,2.33-1.026a.723.723,0,0,0-.413-.91s1.751.363,2.085-.734-.625-2.985-.625-2.985,1.405-.362,1.535-1.207A2.054,2.054,0,0,0,87,31.72s1.192-1.539,1.075-2.361-1.046-.473-1.046-.473.54-1,.151-1.551-1.539-.193-1.539-.193,1.4-1.312,1.109-2.117-1.314-.774-1.314-.774,1-1.229.469-1.508a3.122,3.122,0,0,0-.738-.315s1.19-1.035.916-2.056-.875-.486-.875-.486,1.934-1.2,1.863-1.964-1.154-.866-1.154-.866S87.242,15.783,85.914,15.575Z"/><path class="cls-2" d="M89.58,53.369s-1.619-.718-.952-1.581,1.282-1.275,1.2-1.526a3.671,3.671,0,0,1,.5-2.19c.422-.343-.561-1.377.452-1.457l1.013-.079s-1.454-1.508-.966-2.378.79-1,.79-1-.574-1.294.176-1.847l.75-.552s-.351-2.158.741-2.232,1.349-1.023,1.763-.425-.129,1.086,0,1.816.886,1.786.441,2.868a2.182,2.182,0,0,1-1.068,1.3,11.507,11.507,0,0,1,.229,1.755.913.913,0,0,1-.537.952s-.689,1.524-.863,2.048a.791.791,0,0,1-.8.476,9.569,9.569,0,0,1,0,1.756,3.211,3.211,0,0,1-.833,1.756s-.338.89-.882.812A8.581,8.581,0,0,1,89.58,53.369Z"/><path class="cls-3" d="M88.892,53.575a7.49,7.49,0,0,0-2.532.065A7.1,7.1,0,0,0,84.5,54.4a36.993,36.993,0,0,0,4.231-.223,4.777,4.777,0,0,1,.811-.3,1.475,1.475,0,0,0-.32,2.206,23.89,23.89,0,0,1,1.572,2.37,19.59,19.59,0,0,0-.061-3.1,11.764,11.764,0,0,0-.406-1.743Z"/><path class="cls-3" d="M73.086,64.092s-2.811.887-3.259,2.4-.681,2.816-.681,2.816a10.583,10.583,0,0,0,2.348-2.416A18.5,18.5,0,0,1,73.086,64.6s-1.642,3.522-1.592,4.709,0,2.394,0,2.394a16.544,16.544,0,0,0,1.592-2.531c.671-1.355.834-5.226.834-5.226s-.19.8,1.25.654a4.2,4.2,0,0,0,2.458-1.345,3.347,3.347,0,0,0-1.752-.311A18.481,18.481,0,0,0,73.086,64.092Z"/><path class="cls-3" d="M82.27,67.309s-1.442-.019-1.947.873a5.461,5.461,0,0,0-.389,2.494l2.886-3.054a25.156,25.156,0,0,0,.212,3.494c.179.3.77.99.77.99a14.36,14.36,0,0,0,.065-3.173,2.958,2.958,0,0,0-.556-1.473A10.775,10.775,0,0,0,84.9,68.689c.7.394,1.855-.507,1.855-.507s.294-.5-1.127-.867A9.381,9.381,0,0,0,82.27,67.309Z"/><path class="cls-3" d="M82.82,82.605s-4.013-.177-6.02.695-4.621,2.192-5.306,2.525-1.874.918-.349.971,9.108-2.835,9.775-3.019a10.889,10.889,0,0,0,1.9-.938A56.053,56.053,0,0,1,76.612,86.8c-1.589.64-4.245,3.641-4.874,4.234s-.61,1.086.807.683,9.208-7.15,9.208-7.15l1.288-1.52s-3.777,5.851-4.536,7.114-2,3.647-2,3.647a15.673,15.673,0,0,0,3.4-3.776c.989-1.849,3.508-6.8,3.508-6.8a3.986,3.986,0,0,0,1.517,2.129c1.32,1.054,4.329,2.774,5.418,2.842s2.254.268,2.254.268-2.965-3.8-4.732-4.236A34.737,34.737,0,0,1,83.8,82.839a34.775,34.775,0,0,0,6.006-.141,38.73,38.73,0,0,0,5.963-2.049l.435-.408a10.5,10.5,0,0,0-4.122.317c-2.312.627-5.145.807-5.914,1.166A25.387,25.387,0,0,1,82.82,82.605Z"/><path class="cls-2" d="M87.392,99.328s-1.568-.848-1.479-1.652,1.048-.8,1.173-1.133.84.183.941-.292.345-.019.327-.8-.49-1.524.6-1.864a5.55,5.55,0,0,1,1.5-.329s.245-.774.586-.685l.342.088a2.765,2.765,0,0,1,.792-1.557,2.148,2.148,0,0,1,1.447-.716c.594-.068.313-1.27,1.219-.982a1.021,1.021,0,0,1,.567,1.7,4.65,4.65,0,0,0-1.049,1.3c-.191.371.2.469-.737,1.061a13.688,13.688,0,0,0-2.072,1.976c-.375.329-.354-.225-.76,1.037a4.107,4.107,0,0,1-.95,1.861A12.352,12.352,0,0,1,87.392,99.328Z"/><path class="cls-2" d="M93.378,111.725c0-.11-1.119-1.259-.233-2.248s1.189-1.1,1.34-1.494-.523-.209-.419-.9a2.374,2.374,0,0,1,.288-.951s-1.421-.644-1.246-1.027a5.932,5.932,0,0,1,.669-.972,1.016,1.016,0,0,1-.316-1.4c.5-.883.964-.918.964-.918a.968.968,0,0,1-.071-.967,1.109,1.109,0,0,1,.765-.681s-.283-2.084.821-2.249.882-1.323,1.994-1.2.3.509.684,1.632a2.575,2.575,0,0,1,.044,2.5c-.476,1.242-.95,2-.825,2.634s-.376,1.007-.591,1.534a6.6,6.6,0,0,0-.076,2.065,11.566,11.566,0,0,1-.964,2.817c-.439,1.094-2.429,1.678-2.429,1.678Z"/><path class="cls-3" d="M79.605,112.169s-8.408,1.22-9.311,1.523a7.234,7.234,0,0,0-1.668.85s-.915.512,1.919.365,7.875-2.018,8.375-2.143a6.145,6.145,0,0,0,.958-.337s-3.518,2.4-4.152,2.8-3.39,1.935-3.765,2.726-1.3,1.724.618.609,4.314-2,5.716-3.433a11.053,11.053,0,0,0,1.81-2.411c.1-.187.148-.295.148-.295s-.375,2.554-.417,4.2S79.5,120.9,79.5,120.9s.543,1.108,1.335-.5a8.708,8.708,0,0,0,.538-4.353,8.043,8.043,0,0,0-.637-2.341,30.425,30.425,0,0,0,3.675,3.552c1.16.737,3.642,1.913,3.642,1.913s1.55-.061-1.145-2.249a66.942,66.942,0,0,0-6.172-4.313,15.084,15.084,0,0,0,4.933.356,6.173,6.173,0,0,0,3.243-1.347s1.383-.826-1.826-.54S79.605,112.169,79.605,112.169Z"/><path class="cls-2" d="M69.836,125.211s-.414-.108-.528-.323.295-.945-.347-1.618a2.524,2.524,0,0,0-1.4-.758l-1.054.277-.75.442a2.583,2.583,0,0,0,0-1.263,2.375,2.375,0,0,0-.792-.7,2.055,2.055,0,0,0-.333-1.058c-.33-.458-.663-.33-.663-.33s.728-1.336-.556-1.67a2.943,2.943,0,0,0-2.272.21,2.453,2.453,0,0,0-1.717-.7,4.819,4.819,0,0,0-1.542.493s-1.2-.007-1.322.912A1.389,1.389,0,0,0,58,120.733a2.342,2.342,0,0,0,1.753-1.128s.107.537.167.882a1.394,1.394,0,0,0,.458.666s-.75.185-.375.815a1.208,1.208,0,0,0,1.333.544s-1.5.553-.657,1.806a1.286,1.286,0,0,0,1.433.57s-.784.255.351.921c.884.518,2-.472,2-.472s-.372.3.544.509,1.044.128,1.044.128-1.023.429-.8,1.324,1.593.957,1.568.7,1.059.642,1.442.134.733-.9.733-.9a3.124,3.124,0,0,0,.017-.678C68.961,126.358,70.586,126.37,69.836,125.211Z"/><path class="cls-3" d="M82.42,130.6a33.176,33.176,0,0,0-5.749,1.872A34.108,34.108,0,0,0,70,137.023c-.824.882-2.9,2.285-1.785,2.285s3.876-3.181,6.709-4.354,8.916-3.7,8.916-3.807A7.706,7.706,0,0,0,82.42,130.6Z"/><path class="cls-3" d="M80.1,133.509s-4.428,2.341-5.347,4.189-1.928,3.951-2.174,4.536-1.526,1.411.053,1.035,4.745-4.379,5.506-5.1,4.682-5.37,4.682-5.37l1.23-1.792Z"/><path class="cls-3" d="M83.67,130.6a27.656,27.656,0,0,1,7.041-1.22c2.826.084,6-.954,7.708-1.293s3.422-.387,2.417.2a20.156,20.156,0,0,1-7.435,2.264c-3.189.237-5.224.561-7.124.543a19.456,19.456,0,0,1-3.1-.242Z"/><path class="cls-3" d="M84.378,131.479a29.321,29.321,0,0,0,3.789,2.088,36.9,36.9,0,0,0,6.086,1.653,24.553,24.553,0,0,0,5.053.356c.614-.036,2.2-.626-.24-1.043s-4.837-2.295-7.56-2.4-7.67-.809-7.67-.809Z"/><path class="cls-3" d="M84.6,132.306a2.477,2.477,0,0,1,2.02,2.508c.019,2.189-.015,4.311-.107,5.006s.265,1.885-.268,1.711S85.461,141.2,85,139.82a54.009,54.009,0,0,1-.953-6.362l-.214-2.311Z"/><path class="cls-2" d="M103.322,52.271a1.525,1.525,0,0,0-1.236-.943,1.61,1.61,0,0,0-1.541.943c.041.008-.5.74-.709.74s-.147-.558-.875-.439a1.661,1.661,0,0,0-1.083.922l-.292.634a.417.417,0,0,0-.725-.193,1.394,1.394,0,0,0-.582,1.6c.26.453-.68.761-.68.761s-.8.163-.948.652-.459.266,0,1.182,1.286.491.528,1.307-2.1,1.036-1.928,1.878l.169.841s-1.41.7-1.372,1.358-.1.8,0,1.087-.23-.08-.429.6a1.586,1.586,0,0,1-1,1.129c-.437.193.02-.57-.611.3s-.928.743-.821,1.262.565-.029.107.52a2.531,2.531,0,0,0-.478,1.382,6.27,6.27,0,0,0-.083,1.471,3.156,3.156,0,0,0,.374,1.283c.187.29-1.35.856.437.477a4.928,4.928,0,0,0,2.268-.86s-.339-1.393.639-1.45,1.084-.4,1.258-.679a9.916,9.916,0,0,0,.448-1.638V67.46s-.608.751.651.885,1.422-.277,1.412-.453,1.172-1,1.172-1-.473-1.573.443-2.022,1.3-.717.86-1.259A14.75,14.75,0,0,1,97.688,62.1s-.965-.661-.3-1.4a2.735,2.735,0,0,0,.632-1.756,2.833,2.833,0,0,0,1.561-.807,4.417,4.417,0,0,0,1.709-2.486c0-.621-.709-1.02.458-1.516A3.164,3.164,0,0,0,103.322,52.271Z"/><path class="cls-2" d="M66.586,45.328s-.5-1.714-1.6-.857-1.188,1.749-.522,2.144l.667.4s-2.266.734-1.667,1.683,2.75.475,1.042,1.1a1.854,1.854,0,0,0-.917,2.744c.25.366.314.168.525.476s.285-.183.21.307-.485.863.057,1.522.954.345,1.245.871-.87.811-.87,1.653.377,1.776,1.417,1.646,1.353-.631,1.278-.126S66.3,59.193,67.086,60s.625.493,1.08.69.657.015.579.427a6.726,6.726,0,0,0,.4,1.8,6.119,6.119,0,0,1,2.311-.16c1.689.093,1.18.268,1.509.347s-.222.489.7-.667-.573-1.863-.573-1.863a.865.865,0,0,0-.423-1.268,2.855,2.855,0,0,0-1.416-.4s-.922-.036-.169-1.536,1.62-2.431.586-2.561a2.035,2.035,0,0,1-1.417-.675l-1.365-.251s3.212-1.959,1.685-2.346-1.685-.423-1.685-.423,1.225-1.371,0-1.426-1.343.109-1.343.109.208-1.024.208-1.134.414-1.33-.518-1.56S67.42,46.023,66.586,45.328Z"/><path class="cls-4" d="M80.554,42.621c.008.3-.137.465-.416.465s-.473-.147-.45-.392.072-.49.114-.735a.27.27,0,0,1,.325-.247c.18.014.309.073.326.252C80.473,42.184,80.519,42.4,80.554,42.621Z"/><path class="cls-4" d="M78.55,44.063c.08.2.307.365.161.623a.619.619,0,0,1-.742-.114c-.113-.124-.156-.247-.044-.381A.512.512,0,0,1,78.55,44.063Z"/><path class="cls-4" d="M82.612,36.759c-.006-.2-.435-.311-.184-.571a.439.439,0,0,1,.491-.112.533.533,0,0,1,.242.557C83.114,36.752,83.063,36.764,82.612,36.759Z"/><path class="cls-4" d="M79.834,37.838a3.886,3.886,0,0,1-.579-.177.287.287,0,0,1-.172-.393c.091-.178.29-.157.472-.111C79.9,37.246,79.982,37.418,79.834,37.838Z"/><path class="cls-4" d="M79.617,39.977c-.3.125-.561.235-.854.042-.248-.163-.223-.333.07-.437a.5.5,0,0,1,.64.165A2.33,2.33,0,0,1,79.617,39.977Z"/><path class="cls-4" d="M77.4,37.993c.123-.239.307-.4.583-.327.127.035.214.226.267.361.019.048-.1.169-.185.2C77.81,38.33,77.646,38.264,77.4,37.993Z"/><path class="cls-4" d="M80.144,44.276c.254-.007.459.121.472.3.011.149-.194.3-.406.3-.182,0-.423-.171-.427-.3S79.967,44.281,80.144,44.276Z"/><path class="cls-4" d="M77.689,42.6c.217.1.538.084.519.366-.006.078-.185.176-.307.214-.165.051-.362.083-.47-.1C77.31,42.863,77.452,42.738,77.689,42.6Z"/><path class="cls-4" d="M78.384,40.736c.264.011.385.092.372.251a.444.444,0,0,1-.413.36.379.379,0,0,1-.367-.338C77.978,40.832,78.135,40.727,78.384,40.736Z"/><path class="cls-4" d="M78.648,41.517c.233,0,.31.095.309.241s-.19.292-.413.3c-.2,0-.376-.119-.384-.264C78.151,41.622,78.372,41.508,78.648,41.517Z"/><path class="cls-4" d="M80.107,39.761c-.175-.005-.342-.025-.355-.213s.16-.3.433-.3c.243,0,.374.1.354.258S80.365,39.768,80.107,39.761Z"/><path class="cls-4" d="M83.7,28.441a3.481,3.481,0,0,0-.415.1c-.205.075-.36.012-.353-.147.005-.1.168-.222.3-.273S83.56,28.2,83.7,28.441Z"/><path class="cls-4" d="M81.875,41.044c.37-.342.541-.306.759.148A.687.687,0,0,1,81.875,41.044Z"/><path class="cls-4" d="M79.426,30.645a2.747,2.747,0,0,1-.4-.007.231.231,0,0,1-.144-.133c-.016-.039.025-.133.056-.138a1.028,1.028,0,0,1,.374-.012C79.445,30.385,79.523,30.477,79.426,30.645Z"/><path class="cls-4" d="M80.42,30.456c0,.036.008.055,0,.062-.19.172-.413.22-.539.1a.159.159,0,0,1-.009-.179A.415.415,0,0,1,80.42,30.456Z"/><path class="cls-4" d="M81.093,30.334c.362-.2.423-.194.637.093A.5.5,0,0,1,81.093,30.334Z"/><path class="cls-4" d="M82.984,30.79c-.08.046-.124.092-.159.088a2.6,2.6,0,0,1-.4-.083c-.014,0,.007-.137.013-.137a2.5,2.5,0,0,1,.367.018C82.848,30.681,82.882,30.721,82.984,30.79Z"/><path class="cls-4" d="M95.466,58.714c.129.239.245.484.391.716a.279.279,0,0,0,.39.066.318.318,0,0,0,.1-.285,1.22,1.22,0,0,0-.181-.47.774.774,0,0,0-.333-.24C95.653,58.425,95.516,58.519,95.466,58.714Zm-2.5,7.365a4.288,4.288,0,0,0-.47-.235c-.15-.054-.332-.019-.372.116a.41.41,0,0,0,.072.37C92.439,66.577,92.722,66.5,92.966,66.079Zm.919-2.227c.245-.072.5-.169.446-.423-.018-.092-.229-.2-.371-.222a.308.308,0,0,0-.384.191C93.5,63.64,93.624,63.77,93.885,63.852ZM92.6,67.163c-.261,0-.5.132-.486.272s.234.265.451.267.372-.1.378-.258C92.954,67.268,92.826,67.163,92.6,67.163Zm-1.641.98a3.2,3.2,0,0,0,.531.089c.25,0,.382-.16.26-.336a.784.784,0,0,0-.417-.237.25.25,0,0,0-.31.2C91,67.942,90.989,68.022,90.962,68.143Zm-.283.445c-.035.158-.262.3-.075.482a.5.5,0,0,0,.542.051c.092-.1.186-.267.144-.363C91.2,68.545,90.949,68.534,90.679,68.588Zm-.3,1.907c.242.046.481.143.615-.05.058-.084-.016-.265-.092-.37a.341.341,0,0,0-.442-.054C90.248,70.137,90.338,70.306,90.383,70.5Zm8.506-14.553c0-.187-.167-.308-.4-.3s-.268.147-.284.287.172.269.373.269S98.873,56.094,98.889,55.942Zm-1.937,1.519a.451.451,0,0,0-.556.042.306.306,0,0,0-.079.292.3.3,0,0,0,.224.175.474.474,0,0,0,.3-.165A1.065,1.065,0,0,0,96.952,57.461Zm-.905,4.789,0-.11a1.409,1.409,0,0,0-.3-.131c-.213-.039-.442.084-.449.226a.22.22,0,0,0,.28.222A2.1,2.1,0,0,0,96.047,62.25ZM94.8,62.178c.072-.366.028-.488-.169-.493a.213.213,0,0,0-.251.2C94.355,62.09,94.4,62.128,94.8,62.178Z"/><path class="cls-5" d="M79.471,55.571S83.3,62.46,83.305,64.96a17.382,17.382,0,0,1-.411,5.056c-.474,2.273.06,11.031.459,16.383s-3.61,14.717-3.272,18.375-.312,7.478.172,7.653,2.936,7.426,3.052,10.568a38.374,38.374,0,0,1-.485,9.808c-.734,3.285.575,21.723.575,21.723"/><path class="cls-5" d="M72.966,63.1s1.2.794,4.662,6.527a71.653,71.653,0,0,1,5.331,10.777"/><path class="cls-5" d="M88.734,54.178s.249,5.454-1.949,7.686a26.707,26.707,0,0,0-3.965,5.758"/><path class="cls-5" d="M89.108,72.548s-1.965,3.91-3.327,6.142-2.74,4.354-2.74,4.354"/><path class="cls-5" d="M87.392,99.328s-.806-2.163-2.889,2.959a85.543,85.543,0,0,1-4.9,9.882"/><path class="cls-5" d="M93.777,111.574s-1.531,6.872-2.944,9.693-6.783,8.2-6.783,8.2l-.87,1.222a18.634,18.634,0,0,0-5.227-1.167c-2.633-.129-8.95-2.966-8.95-2.966"/><path class="cls-4" d="M82.683,24.558c-.424-.5-.432-.8-.1-1.239a1.637,1.637,0,0,0,.1-.192.512.512,0,0,1,.566-.22.321.321,0,0,1,.251.405,6.086,6.086,0,0,1-.408.931C83.02,24.364,82.84,24.44,82.683,24.558Z"/><path class="cls-4" d="M84.974,17.35a1.7,1.7,0,0,1-.894,1.057.229.229,0,0,1-.332-.159,1.135,1.135,0,0,1,.777-1.2C84.789,16.973,84.978,17.1,84.974,17.35Z"/><path class="cls-4" d="M84.677,24.362a.875.875,0,0,1,.12-1.2A.744.744,0,0,1,84.677,24.362Z"/><path class="cls-4" d="M82.88,19.238c.347.389.259.709-.237.955C82.309,19.841,82.391,19.475,82.88,19.238Z"/><path class="cls-4" d="M84.287,21.17c-.377-.6-.282-.839.318-.834C84.776,20.686,84.549,20.924,84.287,21.17Z"/><path class="cls-4" d="M84.08,15.327c-.045-.453-.518-.523-.876-.487a.8.8,0,0,0-.713.66.642.642,0,0,0,.509.761,1.755,1.755,0,0,0,1.08-.367,1.528,1.528,0,0,1-1.1.569.854.854,0,0,1-.746-1.008,1.022,1.022,0,0,1,.962-.845,1.2,1.2,0,0,1,.631.156A.528.528,0,0,1,84.08,15.327Z"/><path class="cls-4" d="M85.253,16.494c.351-.223.2-.589-.031-.794a.885.885,0,0,0-.87-.126c-.3.074-.53.39-.409.632a1.656,1.656,0,0,0,.827.539,1.362,1.362,0,0,1-1-.434c-.257-.434.144-.877.5-.983a1.081,1.081,0,0,1,1.12.209.81.81,0,0,1,.226.544A.45.45,0,0,1,85.253,16.494Z"/><path class="cls-4" d="M82.74,17.85a.406.406,0,0,0,.175-.5.974.974,0,0,0-.152-.233.735.735,0,0,0-.107-.113.752.752,0,0,0-.125-.071.981.981,0,0,0-.687-.013.585.585,0,0,0-.431.432.347.347,0,0,0,.043.253.7.7,0,0,0,.2.2,2.266,2.266,0,0,0,.6.3l-.193-.027a1.7,1.7,0,0,1-.5-.153.907.907,0,0,1-.287-.214.463.463,0,0,1-.113-.382.818.818,0,0,1,.573-.629,1.2,1.2,0,0,1,.913.04.859.859,0,0,1,.19.126.818.818,0,0,1,.123.143.892.892,0,0,1,.13.308.429.429,0,0,1-.181.454A.529.529,0,0,1,82.74,17.85Z"/><path class="cls-4" d="M82.593,18.737a.261.261,0,0,0,.112-.317.635.635,0,0,0-.1-.148.444.444,0,0,0-.068-.071.516.516,0,0,0-.079-.046.616.616,0,0,0-.436-.007.371.371,0,0,0-.275.273.225.225,0,0,0,.028.161.436.436,0,0,0,.128.125,1.426,1.426,0,0,0,.381.189l-.123-.017a1.116,1.116,0,0,1-.315-.1.6.6,0,0,1-.182-.136A.3.3,0,0,1,81.6,18.4a.52.52,0,0,1,.364-.4.769.769,0,0,1,.58.026.546.546,0,0,1,.12.08.527.527,0,0,1,.078.091.547.547,0,0,1,.083.2.272.272,0,0,1-.115.288A.358.358,0,0,1,82.593,18.737Z"/><path class="cls-4" d="M81.545,19.2a.258.258,0,0,0,.112-.316.615.615,0,0,0-.1-.148.493.493,0,0,0-.068-.072.445.445,0,0,0-.079-.045.621.621,0,0,0-.436-.008.373.373,0,0,0-.274.274.221.221,0,0,0,.027.161.449.449,0,0,0,.128.125,1.465,1.465,0,0,0,.381.189l-.123-.017a1.124,1.124,0,0,1-.315-.1.577.577,0,0,1-.182-.135.294.294,0,0,1-.071-.243.517.517,0,0,1,.363-.4.765.765,0,0,1,.58.026.576.576,0,0,1,.121.08.493.493,0,0,1,.077.091.542.542,0,0,1,.083.2.273.273,0,0,1-.115.289A.337.337,0,0,1,81.545,19.2Z"/><path class="cls-4" d="M81.048,20.463a.407.407,0,0,0,.175-.5.974.974,0,0,0-.152-.233.735.735,0,0,0-.107-.113.752.752,0,0,0-.125-.071.981.981,0,0,0-.687-.013.588.588,0,0,0-.432.432.352.352,0,0,0,.044.253.691.691,0,0,0,.2.2,2.266,2.266,0,0,0,.6.3l-.193-.027a1.709,1.709,0,0,1-.5-.153.915.915,0,0,1-.286-.214.464.464,0,0,1-.113-.382.821.821,0,0,1,.573-.63,1.21,1.21,0,0,1,.913.041.859.859,0,0,1,.19.126.818.818,0,0,1,.123.143.871.871,0,0,1,.129.308.427.427,0,0,1-.18.454A.529.529,0,0,1,81.048,20.463Z"/><path class="cls-4" d="M81.636,21.217a.26.26,0,0,0,.111-.317.6.6,0,0,0-.1-.148.444.444,0,0,0-.068-.071.434.434,0,0,0-.079-.046.627.627,0,0,0-.436-.007.371.371,0,0,0-.274.274.223.223,0,0,0,.027.16.44.44,0,0,0,.129.125,1.429,1.429,0,0,0,.38.189l-.123-.017a1.116,1.116,0,0,1-.315-.1.578.578,0,0,1-.181-.136.291.291,0,0,1-.072-.243.519.519,0,0,1,.364-.4.762.762,0,0,1,.579.025.552.552,0,0,1,.121.08.632.632,0,0,1,.078.091.562.562,0,0,1,.082.2.272.272,0,0,1-.115.288A.348.348,0,0,1,81.636,21.217Z"/><path class="cls-4" d="M80.4,21.963a.259.259,0,0,0,.112-.316.615.615,0,0,0-.1-.148.493.493,0,0,0-.068-.072.445.445,0,0,0-.079-.045.621.621,0,0,0-.436-.008.373.373,0,0,0-.274.274.221.221,0,0,0,.027.161.449.449,0,0,0,.128.125,1.465,1.465,0,0,0,.381.189l-.123-.017a1.124,1.124,0,0,1-.315-.1.577.577,0,0,1-.182-.135.294.294,0,0,1-.071-.243.517.517,0,0,1,.363-.4.769.769,0,0,1,.58.026.576.576,0,0,1,.121.08.493.493,0,0,1,.077.091.542.542,0,0,1,.083.2.273.273,0,0,1-.115.289A.337.337,0,0,1,80.4,21.963Z"/><path class="cls-4" d="M79.028,26.29a.408.408,0,0,0,.176-.5.95.95,0,0,0-.153-.233.692.692,0,0,0-.107-.113.7.7,0,0,0-.124-.072.987.987,0,0,0-.687-.012.587.587,0,0,0-.432.432.343.343,0,0,0,.044.252.682.682,0,0,0,.2.2,2.3,2.3,0,0,0,.6.3l-.193-.027a1.774,1.774,0,0,1-.5-.153.931.931,0,0,1-.286-.214.462.462,0,0,1-.113-.383.821.821,0,0,1,.573-.629,1.21,1.21,0,0,1,.913.041.883.883,0,0,1,.19.126.813.813,0,0,1,.122.143.848.848,0,0,1,.13.308.428.428,0,0,1-.18.454A.538.538,0,0,1,79.028,26.29Z"/><path class="cls-4" d="M78.882,27.176a.258.258,0,0,0,.111-.316.609.609,0,0,0-.1-.148.631.631,0,0,0-.068-.072.517.517,0,0,0-.079-.045.624.624,0,0,0-.437-.008.373.373,0,0,0-.274.274.221.221,0,0,0,.028.161.424.424,0,0,0,.128.125,1.468,1.468,0,0,0,.38.189l-.122-.017a1.1,1.1,0,0,1-.315-.1.577.577,0,0,1-.182-.135.3.3,0,0,1-.072-.243.52.52,0,0,1,.364-.4.767.767,0,0,1,.579.026.529.529,0,0,1,.121.08.462.462,0,0,1,.078.091.539.539,0,0,1,.082.2.271.271,0,0,1-.114.289A.337.337,0,0,1,78.882,27.176Z"/><path class="cls-4" d="M77.126,27.49a.259.259,0,0,0,.111-.316.586.586,0,0,0-.1-.148.493.493,0,0,0-.068-.072.383.383,0,0,0-.079-.045.621.621,0,0,0-.436-.008.373.373,0,0,0-.274.274.218.218,0,0,0,.028.16.44.44,0,0,0,.128.126,1.468,1.468,0,0,0,.38.189l-.122-.018a1.08,1.08,0,0,1-.316-.1A.574.574,0,0,1,76.2,27.4a.29.29,0,0,1-.072-.243.52.52,0,0,1,.364-.4.762.762,0,0,1,.579.026.552.552,0,0,1,.121.08.524.524,0,0,1,.16.286.272.272,0,0,1-.114.288A.33.33,0,0,1,77.126,27.49Z"/><path class="cls-4" d="M76.728,28.814a.409.409,0,0,0,.176-.5.969.969,0,0,0-.153-.233.732.732,0,0,0-.107-.112.644.644,0,0,0-.124-.072.976.976,0,0,0-.687-.012.586.586,0,0,0-.432.431.346.346,0,0,0,.044.253.7.7,0,0,0,.2.2,2.318,2.318,0,0,0,.6.3l-.193-.027a1.774,1.774,0,0,1-.5-.153.931.931,0,0,1-.286-.214.462.462,0,0,1-.113-.383.818.818,0,0,1,.573-.629,1.21,1.21,0,0,1,.913.04.883.883,0,0,1,.19.126.893.893,0,0,1,.122.143.855.855,0,0,1,.13.308.429.429,0,0,1-.18.455A.566.566,0,0,1,76.728,28.814Z"/><path class="cls-4" d="M77.924,28.239a.259.259,0,0,0,.112-.317.635.635,0,0,0-.1-.148.444.444,0,0,0-.068-.071.516.516,0,0,0-.079-.046.621.621,0,0,0-.436-.008.373.373,0,0,0-.274.274.22.22,0,0,0,.027.161.449.449,0,0,0,.128.125,1.465,1.465,0,0,0,.381.189l-.123-.017a1.116,1.116,0,0,1-.315-.1A.6.6,0,0,1,77,28.148a.294.294,0,0,1-.071-.243.519.519,0,0,1,.363-.4.769.769,0,0,1,.58.026.576.576,0,0,1,.121.08.529.529,0,0,1,.077.091.542.542,0,0,1,.083.195.273.273,0,0,1-.115.289A.358.358,0,0,1,77.924,28.239Z"/><path class="cls-4" d="M76.688,30.4a.259.259,0,0,0,.111-.316.609.609,0,0,0-.1-.148.553.553,0,0,0-.068-.072.445.445,0,0,0-.079-.045.624.624,0,0,0-.437-.008.373.373,0,0,0-.274.274.218.218,0,0,0,.028.16.452.452,0,0,0,.128.126,1.465,1.465,0,0,0,.381.189l-.123-.018a1.066,1.066,0,0,1-.315-.1.566.566,0,0,1-.182-.136.293.293,0,0,1-.072-.243.52.52,0,0,1,.364-.4.762.762,0,0,1,.579.026.529.529,0,0,1,.121.08.486.486,0,0,1,.078.09.573.573,0,0,1,.083.2.274.274,0,0,1-.115.289A.337.337,0,0,1,76.688,30.4Z"/><path class="cls-4" d="M81,24.014l-.07-.172a1.781,1.781,0,0,0-.236-.4.852.852,0,0,0-.213-.188.523.523,0,0,0-.274-.077.926.926,0,0,0-.33.056,1.225,1.225,0,0,0-.337.154.728.728,0,0,0-.232.207.535.535,0,0,0-.083.258.664.664,0,0,0,.251.477,1.239,1.239,0,0,0,.428.222l.2.047a1.979,1.979,0,0,1-.21.032,1.256,1.256,0,0,1-.572-.111.881.881,0,0,1-.5-.64.861.861,0,0,1,.464-.83,1.659,1.659,0,0,1,.458-.189,1.217,1.217,0,0,1,.516-.038.806.806,0,0,1,.449.2.846.846,0,0,1,.224.311,1.306,1.306,0,0,1,.089.5A.878.878,0,0,1,81,24.014Z"/><path class="cls-4" d="M81.569,25.189a.41.41,0,0,0,.175-.5.994.994,0,0,0-.152-.233.913.913,0,0,0-.107-.113.752.752,0,0,0-.125-.071.976.976,0,0,0-.687-.012.586.586,0,0,0-.432.431.346.346,0,0,0,.044.253.678.678,0,0,0,.2.2,2.291,2.291,0,0,0,.6.3l-.193-.027a1.748,1.748,0,0,1-.5-.154.911.911,0,0,1-.286-.213A.465.465,0,0,1,80,24.663a.818.818,0,0,1,.573-.629,1.2,1.2,0,0,1,.913.04.859.859,0,0,1,.19.126.952.952,0,0,1,.123.143.871.871,0,0,1,.129.308.429.429,0,0,1-.18.455A.568.568,0,0,1,81.569,25.189Z"/><path class="cls-4" d="M81.422,26.075a.26.26,0,0,0,.111-.317.65.65,0,0,0-.1-.148.493.493,0,0,0-.068-.071.516.516,0,0,0-.079-.046.63.63,0,0,0-.437-.007.371.371,0,0,0-.274.274.218.218,0,0,0,.028.16.452.452,0,0,0,.128.126,1.44,1.44,0,0,0,.381.188l-.123-.017a1.1,1.1,0,0,1-.315-.1.581.581,0,0,1-.182-.136.294.294,0,0,1-.072-.243.519.519,0,0,1,.364-.4.762.762,0,0,1,.579.025.478.478,0,0,1,.2.171.565.565,0,0,1,.083.2.272.272,0,0,1-.115.288A.358.358,0,0,1,81.422,26.075Z"/><path class="cls-4" d="M80.374,26.544a.26.26,0,0,0,.111-.317.6.6,0,0,0-.1-.148.493.493,0,0,0-.068-.071.516.516,0,0,0-.079-.046.624.624,0,0,0-.437-.008.373.373,0,0,0-.274.274.225.225,0,0,0,.028.161.436.436,0,0,0,.128.125,1.465,1.465,0,0,0,.381.189l-.123-.017a1.116,1.116,0,0,1-.315-.1.6.6,0,0,1-.182-.136.3.3,0,0,1-.072-.243.52.52,0,0,1,.364-.4.769.769,0,0,1,.58.026.546.546,0,0,1,.12.08.492.492,0,0,1,.078.091.542.542,0,0,1,.083.2.273.273,0,0,1-.115.289A.358.358,0,0,1,80.374,26.544Z"/><path class="cls-4" d="M79.876,27.8a.406.406,0,0,0,.176-.5.969.969,0,0,0-.153-.233.735.735,0,0,0-.107-.113.7.7,0,0,0-.124-.071.976.976,0,0,0-.687-.012.584.584,0,0,0-.432.431.346.346,0,0,0,.044.253.7.7,0,0,0,.2.2,2.3,2.3,0,0,0,.6.3l-.193-.027a1.748,1.748,0,0,1-.5-.154.911.911,0,0,1-.286-.213.462.462,0,0,1-.113-.383.818.818,0,0,1,.573-.629,1.2,1.2,0,0,1,.913.04.883.883,0,0,1,.19.126.855.855,0,0,1,.252.451.429.429,0,0,1-.18.455A.545.545,0,0,1,79.876,27.8Z"/><path class="cls-4" d="M80.464,28.555a.259.259,0,0,0,.112-.317.631.631,0,0,0-.1-.147.322.322,0,0,0-.147-.117.621.621,0,0,0-.436-.008.373.373,0,0,0-.274.274.218.218,0,0,0,.027.16.466.466,0,0,0,.128.126,1.44,1.44,0,0,0,.381.188l-.123-.017a1.116,1.116,0,0,1-.315-.1.566.566,0,0,1-.182-.136.293.293,0,0,1-.071-.243.519.519,0,0,1,.364-.4.767.767,0,0,1,.579.025.576.576,0,0,1,.121.08.632.632,0,0,1,.078.091.57.57,0,0,1,.082.2.271.271,0,0,1-.115.288A.33.33,0,0,1,80.464,28.555Z"/><path class="cls-4" d="M79.228,29.3a.26.26,0,0,0,.111-.317.6.6,0,0,0-.1-.148.493.493,0,0,0-.068-.071.516.516,0,0,0-.079-.046.624.624,0,0,0-.437-.008.373.373,0,0,0-.274.274.221.221,0,0,0,.028.161.436.436,0,0,0,.128.125,1.465,1.465,0,0,0,.381.189l-.123-.017a1.107,1.107,0,0,1-.315-.1.6.6,0,0,1-.182-.136.3.3,0,0,1-.072-.243.52.52,0,0,1,.364-.4.769.769,0,0,1,.58.026.546.546,0,0,1,.12.08.492.492,0,0,1,.078.091.542.542,0,0,1,.083.2.273.273,0,0,1-.115.289A.358.358,0,0,1,79.228,29.3Z"/><path class="cls-4" d="M76.789,34.189a.409.409,0,0,0,.175-.5.994.994,0,0,0-.152-.233.732.732,0,0,0-.107-.112.687.687,0,0,0-.125-.072.975.975,0,0,0-.687-.012.584.584,0,0,0-.431.431.351.351,0,0,0,.043.253.7.7,0,0,0,.2.2,2.291,2.291,0,0,0,.6.3l-.193-.027a1.744,1.744,0,0,1-.5-.154.889.889,0,0,1-.286-.213.462.462,0,0,1-.113-.383.815.815,0,0,1,.573-.629,1.2,1.2,0,0,1,.912.04.859.859,0,0,1,.19.126.845.845,0,0,1,.253.451.431.431,0,0,1-.181.455A.557.557,0,0,1,76.789,34.189Z"/><path class="cls-4" d="M76.642,35.075a.26.26,0,0,0,.112-.317.631.631,0,0,0-.1-.147.409.409,0,0,0-.068-.072.445.445,0,0,0-.079-.045.621.621,0,0,0-.436-.008.371.371,0,0,0-.274.274.218.218,0,0,0,.027.16.466.466,0,0,0,.128.126,1.44,1.44,0,0,0,.381.188l-.123-.017a1.116,1.116,0,0,1-.315-.1.581.581,0,0,1-.182-.136.293.293,0,0,1-.071-.243.516.516,0,0,1,.363-.4.769.769,0,0,1,.58.025.576.576,0,0,1,.121.08.57.57,0,0,1,.077.091.547.547,0,0,1,.083.2.272.272,0,0,1-.115.288A.33.33,0,0,1,76.642,35.075Z"/><path class="cls-4" d="M74.886,35.389A.26.26,0,0,0,75,35.072a.6.6,0,0,0-.1-.148.444.444,0,0,0-.068-.071.516.516,0,0,0-.079-.046.618.618,0,0,0-.437-.007.37.37,0,0,0-.274.273.225.225,0,0,0,.028.161.436.436,0,0,0,.128.125,1.426,1.426,0,0,0,.381.189l-.123-.017a1.116,1.116,0,0,1-.315-.1.6.6,0,0,1-.182-.136.3.3,0,0,1-.072-.243.52.52,0,0,1,.364-.4.769.769,0,0,1,.58.026.546.546,0,0,1,.12.08.527.527,0,0,1,.078.091.547.547,0,0,1,.083.2.272.272,0,0,1-.115.288A.358.358,0,0,1,74.886,35.389Z"/><path class="cls-4" d="M74.489,36.712a.406.406,0,0,0,.175-.5.974.974,0,0,0-.152-.233.735.735,0,0,0-.107-.113.828.828,0,0,0-.125-.072.987.987,0,0,0-.687-.012.585.585,0,0,0-.431.432.347.347,0,0,0,.043.253.7.7,0,0,0,.2.2,2.266,2.266,0,0,0,.6.3l-.193-.027a1.7,1.7,0,0,1-.5-.153.923.923,0,0,1-.287-.214.46.46,0,0,1-.112-.382.818.818,0,0,1,.573-.63,1.207,1.207,0,0,1,.912.041.859.859,0,0,1,.19.126.818.818,0,0,1,.123.143.892.892,0,0,1,.13.308.429.429,0,0,1-.181.454A.529.529,0,0,1,74.489,36.712Z"/><path class="cls-4" d="M75.685,36.137a.259.259,0,0,0,.111-.316.586.586,0,0,0-.1-.148.493.493,0,0,0-.068-.072.383.383,0,0,0-.079-.045.621.621,0,0,0-.436-.008.373.373,0,0,0-.274.274.218.218,0,0,0,.028.16.44.44,0,0,0,.128.126,1.468,1.468,0,0,0,.38.189l-.122-.018a1.08,1.08,0,0,1-.316-.1.574.574,0,0,1-.181-.136.29.29,0,0,1-.072-.243.52.52,0,0,1,.364-.4.762.762,0,0,1,.579.026.488.488,0,0,1,.121.08.524.524,0,0,1,.16.286.271.271,0,0,1-.114.288A.33.33,0,0,1,75.685,36.137Z"/><path class="cls-4" d="M74.448,38.3a.259.259,0,0,0,.112-.317.635.635,0,0,0-.1-.148.444.444,0,0,0-.068-.071.471.471,0,0,0-.079-.046.621.621,0,0,0-.436-.007.37.37,0,0,0-.274.273.22.22,0,0,0,.027.161.449.449,0,0,0,.128.125,1.426,1.426,0,0,0,.381.189l-.123-.017a1.116,1.116,0,0,1-.315-.1.581.581,0,0,1-.182-.136.294.294,0,0,1-.071-.243.52.52,0,0,1,.364-.4.767.767,0,0,1,.579.026.576.576,0,0,1,.121.08.632.632,0,0,1,.078.091.562.562,0,0,1,.082.2.272.272,0,0,1-.115.288A.358.358,0,0,1,74.448,38.3Z"/><path class="cls-4" d="M77,31.913l-.069-.172a1.781,1.781,0,0,0-.236-.4.856.856,0,0,0-.213-.189.542.542,0,0,0-.274-.077.9.9,0,0,0-.33.057,1.209,1.209,0,0,0-.337.153.73.73,0,0,0-.232.208.535.535,0,0,0-.083.258.66.66,0,0,0,.251.476,1.226,1.226,0,0,0,.428.223l.2.046a1.921,1.921,0,0,1-.21.032,1.265,1.265,0,0,1-.571-.11.878.878,0,0,1-.5-.641.86.86,0,0,1,.464-.83,1.7,1.7,0,0,1,.458-.189,1.217,1.217,0,0,1,.516-.037.806.806,0,0,1,.449.2.838.838,0,0,1,.224.311,1.276,1.276,0,0,1,.088.5A.812.812,0,0,1,77,31.913Z"/><path class="cls-4" d="M79.329,33.087a.408.408,0,0,0,.175-.5.926.926,0,0,0-.152-.233.692.692,0,0,0-.107-.113.676.676,0,0,0-.124-.072.989.989,0,0,0-.688-.012.587.587,0,0,0-.431.432.349.349,0,0,0,.043.252.706.706,0,0,0,.2.2,2.3,2.3,0,0,0,.6.3l-.193-.027a1.769,1.769,0,0,1-.5-.153.908.908,0,0,1-.286-.214.462.462,0,0,1-.113-.383.818.818,0,0,1,.573-.629,1.207,1.207,0,0,1,.912.041.859.859,0,0,1,.19.126.818.818,0,0,1,.123.143.884.884,0,0,1,.13.308.43.43,0,0,1-.181.454A.529.529,0,0,1,79.329,33.087Z"/><path class="cls-4" d="M79.182,33.973a.257.257,0,0,0,.112-.316.615.615,0,0,0-.1-.148.493.493,0,0,0-.068-.072.472.472,0,0,0-.079-.045.621.621,0,0,0-.436-.008.373.373,0,0,0-.274.274.221.221,0,0,0,.027.161.449.449,0,0,0,.128.125,1.465,1.465,0,0,0,.381.189l-.123-.017a1.124,1.124,0,0,1-.315-.1.577.577,0,0,1-.182-.135.294.294,0,0,1-.071-.243.519.519,0,0,1,.363-.4.769.769,0,0,1,.58.026.576.576,0,0,1,.121.08.54.54,0,0,1,.078.091.558.558,0,0,1,.082.2.273.273,0,0,1-.115.289A.337.337,0,0,1,79.182,33.973Z"/><path class="cls-4" d="M78.134,34.442a.258.258,0,0,0,.112-.316.615.615,0,0,0-.1-.148.493.493,0,0,0-.068-.072A.412.412,0,0,0,78,33.861a.621.621,0,0,0-.436-.008.373.373,0,0,0-.274.274.218.218,0,0,0,.027.16.466.466,0,0,0,.128.126,1.465,1.465,0,0,0,.381.189l-.123-.018a1.084,1.084,0,0,1-.315-.1.566.566,0,0,1-.182-.136.292.292,0,0,1-.071-.243.52.52,0,0,1,.364-.4.762.762,0,0,1,.579.026.507.507,0,0,1,.121.08.524.524,0,0,1,.16.286.271.271,0,0,1-.115.288A.321.321,0,0,1,78.134,34.442Z"/><path class="cls-4" d="M77.637,35.7a.409.409,0,0,0,.175-.5.97.97,0,0,0-.152-.232.519.519,0,0,0-.232-.185.987.987,0,0,0-.687-.012.586.586,0,0,0-.431.431.346.346,0,0,0,.043.253.694.694,0,0,0,.2.2,2.3,2.3,0,0,0,.6.3l-.193-.027a1.769,1.769,0,0,1-.5-.153.923.923,0,0,1-.287-.214.461.461,0,0,1-.112-.383.818.818,0,0,1,.573-.629,1.2,1.2,0,0,1,.912.041.825.825,0,0,1,.19.126.849.849,0,0,1,.123.142.9.9,0,0,1,.13.309.43.43,0,0,1-.181.454A.529.529,0,0,1,77.637,35.7Z"/><path class="cls-4" d="M78.225,36.454a.26.26,0,0,0,.111-.317.6.6,0,0,0-.1-.148.326.326,0,0,0-.147-.117.621.621,0,0,0-.436-.008.373.373,0,0,0-.274.274.221.221,0,0,0,.028.161.424.424,0,0,0,.128.125,1.468,1.468,0,0,0,.38.189L77.8,36.6a1.13,1.13,0,0,1-.315-.1.6.6,0,0,1-.182-.136.3.3,0,0,1-.072-.243.52.52,0,0,1,.364-.4.767.767,0,0,1,.579.026.529.529,0,0,1,.121.08.492.492,0,0,1,.078.091.558.558,0,0,1,.082.2.272.272,0,0,1-.114.289A.358.358,0,0,1,78.225,36.454Z"/><path class="cls-4" d="M76.988,37.2a.258.258,0,0,0,.112-.316.615.615,0,0,0-.1-.148.493.493,0,0,0-.068-.072.412.412,0,0,0-.079-.045.621.621,0,0,0-.436-.008.373.373,0,0,0-.274.274.218.218,0,0,0,.027.16.466.466,0,0,0,.128.126,1.465,1.465,0,0,0,.381.189l-.123-.018a1.084,1.084,0,0,1-.315-.1.566.566,0,0,1-.182-.136.292.292,0,0,1-.071-.243.52.52,0,0,1,.364-.4.762.762,0,0,1,.579.026.54.54,0,0,1,.121.08.524.524,0,0,1,.16.286.271.271,0,0,1-.115.288A.321.321,0,0,1,76.988,37.2Z"/><path class="cls-4" d="M94.327,40.468a.407.407,0,0,0,.175-.5.974.974,0,0,0-.152-.233.735.735,0,0,0-.107-.113.752.752,0,0,0-.125-.071.981.981,0,0,0-.687-.013.585.585,0,0,0-.431.432.347.347,0,0,0,.043.253.691.691,0,0,0,.2.2,2.266,2.266,0,0,0,.6.3l-.193-.027a1.709,1.709,0,0,1-.5-.153.915.915,0,0,1-.286-.214.464.464,0,0,1-.113-.382.821.821,0,0,1,.573-.63,1.21,1.21,0,0,1,.913.041.859.859,0,0,1,.19.126.818.818,0,0,1,.123.143.892.892,0,0,1,.13.308.429.429,0,0,1-.181.454A.529.529,0,0,1,94.327,40.468Z"/><path class="cls-4" d="M94.18,41.355a.26.26,0,0,0,.111-.317.6.6,0,0,0-.1-.148.444.444,0,0,0-.068-.071.516.516,0,0,0-.079-.046.624.624,0,0,0-.437-.008.373.373,0,0,0-.274.274.225.225,0,0,0,.028.161.436.436,0,0,0,.128.125,1.465,1.465,0,0,0,.381.189l-.123-.017a1.116,1.116,0,0,1-.315-.1.6.6,0,0,1-.182-.136.3.3,0,0,1-.072-.243.52.52,0,0,1,.364-.4.769.769,0,0,1,.58.026.546.546,0,0,1,.12.08.492.492,0,0,1,.078.091.542.542,0,0,1,.083.2.273.273,0,0,1-.115.289A.358.358,0,0,1,94.18,41.355Z"/><path class="cls-4" d="M93.042,43.864a.26.26,0,0,0,.111-.317.6.6,0,0,0-.1-.148.493.493,0,0,0-.068-.071.516.516,0,0,0-.079-.046.629.629,0,0,0-.437-.007.371.371,0,0,0-.274.274.223.223,0,0,0,.028.16.436.436,0,0,0,.128.125,1.426,1.426,0,0,0,.381.189l-.123-.017a1.116,1.116,0,0,1-.315-.1.581.581,0,0,1-.182-.136.3.3,0,0,1-.072-.243.519.519,0,0,1,.364-.4.765.765,0,0,1,.58.025.546.546,0,0,1,.12.08.527.527,0,0,1,.078.091.547.547,0,0,1,.083.2.272.272,0,0,1-.115.288A.358.358,0,0,1,93.042,43.864Z"/><path class="cls-4" d="M92.645,45.06a.409.409,0,0,0,.175-.5.994.994,0,0,0-.152-.233.732.732,0,0,0-.107-.112.687.687,0,0,0-.125-.072.975.975,0,0,0-.687-.012.584.584,0,0,0-.431.431.346.346,0,0,0,.043.253.69.69,0,0,0,.2.2,2.291,2.291,0,0,0,.6.3l-.193-.027a1.769,1.769,0,0,1-.5-.153.923.923,0,0,1-.287-.214.461.461,0,0,1-.112-.383.815.815,0,0,1,.573-.629,1.207,1.207,0,0,1,.912.04.859.859,0,0,1,.19.126.845.845,0,0,1,.253.451.431.431,0,0,1-.181.455A.557.557,0,0,1,92.645,45.06Z"/><path class="cls-4" d="M93.223,42.417a.26.26,0,0,0,.111-.317.635.635,0,0,0-.1-.148.444.444,0,0,0-.068-.071.471.471,0,0,0-.079-.046.621.621,0,0,0-.436-.007.371.371,0,0,0-.274.273.224.224,0,0,0,.027.161.44.44,0,0,0,.129.125,1.414,1.414,0,0,0,.38.189l-.123-.017a1.116,1.116,0,0,1-.315-.1.578.578,0,0,1-.181-.136.291.291,0,0,1-.072-.243.521.521,0,0,1,.364-.4.767.767,0,0,1,.579.026.576.576,0,0,1,.121.08.632.632,0,0,1,.078.091.562.562,0,0,1,.082.2.272.272,0,0,1-.115.288A.348.348,0,0,1,93.223,42.417Z"/><path class="cls-4" d="M66.774,48.262a.258.258,0,0,0,.112-.316.615.615,0,0,0-.1-.148.493.493,0,0,0-.068-.072.445.445,0,0,0-.079-.045.621.621,0,0,0-.436-.008.373.373,0,0,0-.274.274.218.218,0,0,0,.027.16.466.466,0,0,0,.128.126,1.465,1.465,0,0,0,.381.189l-.123-.018a1.084,1.084,0,0,1-.315-.1.566.566,0,0,1-.182-.136.292.292,0,0,1-.071-.243.519.519,0,0,1,.363-.4.765.765,0,0,1,.58.026.507.507,0,0,1,.121.08.521.521,0,0,1,.077.09.554.554,0,0,1,.083.2.271.271,0,0,1-.115.288A.33.33,0,0,1,66.774,48.262Z"/><path class="cls-4" d="M79.09,30.641l-.069-.172a1.784,1.784,0,0,0-.236-.405.911.911,0,0,0-.213-.188A.535.535,0,0,0,78.3,29.8a.931.931,0,0,0-.331.056,1.235,1.235,0,0,0-.336.154.728.728,0,0,0-.232.207.531.531,0,0,0-.083.259.659.659,0,0,0,.25.476,1.247,1.247,0,0,0,.429.223l.2.046a1.979,1.979,0,0,1-.21.032,1.256,1.256,0,0,1-.572-.111.877.877,0,0,1-.5-.64.861.861,0,0,1,.465-.83,1.671,1.671,0,0,1,.457-.189,1.217,1.217,0,0,1,.516-.037.806.806,0,0,1,.449.2.843.843,0,0,1,.224.31,1.306,1.306,0,0,1,.089.5A.9.9,0,0,1,79.09,30.641Z"/><path class="cls-4" d="M75.42,39.734a.409.409,0,0,0,.175-.5A.934.934,0,0,0,75.443,39a.732.732,0,0,0-.107-.112.676.676,0,0,0-.124-.072.976.976,0,0,0-.687-.012.586.586,0,0,0-.432.431.351.351,0,0,0,.043.253.706.706,0,0,0,.2.2,2.3,2.3,0,0,0,.6.3l-.194-.027a1.769,1.769,0,0,1-.5-.153.919.919,0,0,1-.286-.214.462.462,0,0,1-.113-.383.815.815,0,0,1,.573-.629,1.207,1.207,0,0,1,.912.04.894.894,0,0,1,.191.127.844.844,0,0,1,.122.142.889.889,0,0,1,.13.309.429.429,0,0,1-.181.454A.529.529,0,0,1,75.42,39.734Z"/><path class="cls-4" d="M76.173,40.294a.259.259,0,0,0,.111-.316.586.586,0,0,0-.1-.148.493.493,0,0,0-.068-.072.383.383,0,0,0-.079-.045.621.621,0,0,0-.436-.008.373.373,0,0,0-.274.274.218.218,0,0,0,.028.16.44.44,0,0,0,.128.126,1.468,1.468,0,0,0,.38.189l-.122-.018a1.08,1.08,0,0,1-.316-.1.574.574,0,0,1-.181-.136.29.29,0,0,1-.072-.243.52.52,0,0,1,.364-.4.762.762,0,0,1,.579.026.529.529,0,0,1,.121.08.486.486,0,0,1,.078.09.57.57,0,0,1,.082.2.273.273,0,0,1-.114.289A.337.337,0,0,1,76.173,40.294Z"/><path class="cls-4" d="M92.779,48.6a.261.261,0,0,0,.112-.317.656.656,0,0,0-.1-.148.444.444,0,0,0-.068-.071.516.516,0,0,0-.079-.046.627.627,0,0,0-.436-.007.371.371,0,0,0-.274.274.218.218,0,0,0,.027.16.466.466,0,0,0,.128.126,1.44,1.44,0,0,0,.381.188l-.123-.017a1.116,1.116,0,0,1-.315-.1.581.581,0,0,1-.182-.136.293.293,0,0,1-.071-.243.516.516,0,0,1,.363-.4.769.769,0,0,1,.58.025.576.576,0,0,1,.121.08.57.57,0,0,1,.077.091.547.547,0,0,1,.083.2.272.272,0,0,1-.115.288A.33.33,0,0,1,92.779,48.6Z"/><path class="cls-4" d="M92.027,47.971a.407.407,0,0,0,.175-.5.974.974,0,0,0-.152-.233.735.735,0,0,0-.107-.113.828.828,0,0,0-.125-.072.987.987,0,0,0-.687-.012.585.585,0,0,0-.431.432.343.343,0,0,0,.043.252.682.682,0,0,0,.2.2,2.266,2.266,0,0,0,.6.3l-.193-.027a1.709,1.709,0,0,1-.5-.153.931.931,0,0,1-.286-.214.464.464,0,0,1-.113-.382.821.821,0,0,1,.573-.63,1.21,1.21,0,0,1,.913.041.859.859,0,0,1,.19.126.818.818,0,0,1,.123.143.871.871,0,0,1,.129.308.427.427,0,0,1-.18.454A.529.529,0,0,1,92.027,47.971Z"/><path class="cls-4" d="M94.33,42.094a.258.258,0,0,0,.111-.316.581.581,0,0,0-.1-.148.553.553,0,0,0-.068-.072.445.445,0,0,0-.079-.045.624.624,0,0,0-.437-.008.373.373,0,0,0-.274.274.221.221,0,0,0,.028.161.436.436,0,0,0,.128.125,1.465,1.465,0,0,0,.381.189l-.123-.017a1.114,1.114,0,0,1-.315-.1A.577.577,0,0,1,93.4,42a.3.3,0,0,1-.072-.243.52.52,0,0,1,.364-.4.765.765,0,0,1,.58.026.546.546,0,0,1,.12.08.486.486,0,0,1,.078.09.554.554,0,0,1,.083.2.273.273,0,0,1-.115.289A.337.337,0,0,1,94.33,42.094Z"/><path class="cls-4" d="M66.434,46.083a.26.26,0,0,0,.111-.317.635.635,0,0,0-.1-.148.444.444,0,0,0-.068-.071A.434.434,0,0,0,66.3,45.5a.627.627,0,0,0-.436-.007.371.371,0,0,0-.274.274.223.223,0,0,0,.027.16.44.44,0,0,0,.129.125,1.429,1.429,0,0,0,.38.189L66,46.225a1.116,1.116,0,0,1-.315-.1.578.578,0,0,1-.181-.136.291.291,0,0,1-.072-.243.519.519,0,0,1,.364-.4.762.762,0,0,1,.579.025.552.552,0,0,1,.121.08.632.632,0,0,1,.078.091.562.562,0,0,1,.082.2.272.272,0,0,1-.115.288A.348.348,0,0,1,66.434,46.083Z"/><path class="cls-4" d="M65.33,51.345a.452.452,0,0,0-.214-.5.966.966,0,0,0-.258-.092.684.684,0,0,0-.147-.024.611.611,0,0,0-.132.018.78.78,0,0,0-.471.4.59.59,0,0,0,0,.6.4.4,0,0,0,.2.173.661.661,0,0,0,.268.034,1.912,1.912,0,0,0,.6-.126l-.149.095a1.391,1.391,0,0,1-.436.177.8.8,0,0,1-.335,0,.518.518,0,0,1-.332-.233.841.841,0,0,1-.033-.838.962.962,0,0,1,.641-.516.778.778,0,0,1,.212-.015.838.838,0,0,1,.178.039.95.95,0,0,1,.293.164.48.48,0,0,1,.181.466A.466.466,0,0,1,65.33,51.345Z"/><path class="cls-4" d="M67.021,52.709a.29.29,0,0,0-.136-.316.658.658,0,0,0-.164-.058.42.42,0,0,0-.094-.015.372.372,0,0,0-.083.011.5.5,0,0,0-.3.256.377.377,0,0,0,0,.38.253.253,0,0,0,.126.109.409.409,0,0,0,.17.022,1.221,1.221,0,0,0,.382-.08l-.094.06a.9.9,0,0,1-.278.113.518.518,0,0,1-.212,0,.331.331,0,0,1-.211-.148.532.532,0,0,1-.021-.532.61.61,0,0,1,.407-.328.5.5,0,0,1,.135-.009.48.48,0,0,1,.113.025.592.592,0,0,1,.186.1.307.307,0,0,1,.115.3A.3.3,0,0,1,67.021,52.709Z"/><path class="cls-4" d="M66.047,54.009a.286.286,0,0,0-.136-.316.644.644,0,0,0-.164-.058.288.288,0,0,0-.177,0,.5.5,0,0,0-.3.256.375.375,0,0,0,0,.379.255.255,0,0,0,.126.11.409.409,0,0,0,.17.022,1.221,1.221,0,0,0,.382-.08l-.094.06a.884.884,0,0,1-.277.112.5.5,0,0,1-.213,0,.329.329,0,0,1-.21-.148.534.534,0,0,1-.022-.532.611.611,0,0,1,.408-.328.491.491,0,0,1,.134-.009.519.519,0,0,1,.113.024.6.6,0,0,1,.186.1.3.3,0,0,1,.115.3A.3.3,0,0,1,66.047,54.009Z"/><path class="cls-4" d="M67.378,55.287a.454.454,0,0,0-.215-.5.989.989,0,0,0-.258-.092.74.74,0,0,0-.147-.024.594.594,0,0,0-.131.018.781.781,0,0,0-.471.4.59.59,0,0,0,0,.6.393.393,0,0,0,.2.172.657.657,0,0,0,.267.035,1.912,1.912,0,0,0,.6-.126l-.148.094a1.421,1.421,0,0,1-.437.178.815.815,0,0,1-.335,0,.512.512,0,0,1-.331-.233.838.838,0,0,1-.034-.838.957.957,0,0,1,.642-.515.737.737,0,0,1,.212-.015.847.847,0,0,1,.178.038.976.976,0,0,1,.293.165.48.48,0,0,1,.181.465A.466.466,0,0,1,67.378,55.287Z"/><path class="cls-4" d="M67.084,54.118a.286.286,0,0,0-.136-.316.644.644,0,0,0-.164-.058.411.411,0,0,0-.093-.015.388.388,0,0,0-.084.011.5.5,0,0,0-.3.256.375.375,0,0,0,0,.379.255.255,0,0,0,.126.11.409.409,0,0,0,.17.022,1.221,1.221,0,0,0,.382-.08l-.094.06a.906.906,0,0,1-.277.113.522.522,0,0,1-.213,0,.329.329,0,0,1-.21-.148.534.534,0,0,1-.022-.532.611.611,0,0,1,.408-.328.491.491,0,0,1,.134-.009.519.519,0,0,1,.113.024.6.6,0,0,1,.186.1.3.3,0,0,1,.115.3A.3.3,0,0,1,67.084,54.118Z"/><path class="cls-4" d="M67.695,56.56a.285.285,0,0,0-.136-.315.608.608,0,0,0-.164-.059.476.476,0,0,0-.093-.015.339.339,0,0,0-.084.012.5.5,0,0,0-.3.255.377.377,0,0,0,0,.38.253.253,0,0,0,.126.109.409.409,0,0,0,.17.022,1.188,1.188,0,0,0,.382-.08l-.094.06a.882.882,0,0,1-.277.113.522.522,0,0,1-.213,0,.322.322,0,0,1-.21-.148.532.532,0,0,1-.022-.532.607.607,0,0,1,.408-.327.454.454,0,0,1,.134-.01.522.522,0,0,1,.113.025.6.6,0,0,1,.186.1.3.3,0,0,1,.115.3A.294.294,0,0,1,67.695,56.56Z"/><path class="cls-4" d="M66.435,45.367l-.162-.093a1.853,1.853,0,0,0-.428-.177.791.791,0,0,0-.269-.019.417.417,0,0,0-.236.1.739.739,0,0,0-.185.243,1.056,1.056,0,0,0-.124.322.7.7,0,0,0-.018.3.617.617,0,0,0,.116.253.7.7,0,0,0,.487.224,1.042,1.042,0,0,0,.436-.082l.166-.083a1.663,1.663,0,0,1-.12.151,1,1,0,0,1-.459.256.864.864,0,0,1-.766-.2.943.943,0,0,1-.241-.931,1.476,1.476,0,0,1,.182-.423.986.986,0,0,1,.323-.339.674.674,0,0,1,.438-.11.863.863,0,0,1,.358.11,1.5,1.5,0,0,1,.391.337A1.077,1.077,0,0,1,66.435,45.367Z"/><path class="cls-4" d="M65.977,48.325a.454.454,0,0,0-.215-.5.989.989,0,0,0-.258-.092.674.674,0,0,0-.147-.024.594.594,0,0,0-.131.018.78.78,0,0,0-.471.4.59.59,0,0,0,0,.6.4.4,0,0,0,.2.173.656.656,0,0,0,.267.034,1.912,1.912,0,0,0,.6-.126l-.148.095a1.4,1.4,0,0,1-.437.177.8.8,0,0,1-.335,0,.516.516,0,0,1-.331-.233.838.838,0,0,1-.034-.838.961.961,0,0,1,.642-.516.775.775,0,0,1,.212-.015.851.851,0,0,1,.178.039,1,1,0,0,1,.293.164.482.482,0,0,1,.181.466A.466.466,0,0,1,65.977,48.325Z"/><path class="cls-4" d="M66.137,50.524A.29.29,0,0,0,66,50.208a.658.658,0,0,0-.164-.058.42.42,0,0,0-.094-.015.372.372,0,0,0-.083.011.493.493,0,0,0-.3.256.375.375,0,0,0,0,.379.253.253,0,0,0,.125.11.414.414,0,0,0,.17.022,1.223,1.223,0,0,0,.383-.08l-.1.06a.882.882,0,0,1-.277.113.522.522,0,0,1-.213,0,.332.332,0,0,1-.21-.148.532.532,0,0,1-.021-.532A.61.61,0,0,1,65.628,50a.5.5,0,0,1,.135-.009.545.545,0,0,1,.113.024.615.615,0,0,1,.186.1.307.307,0,0,1,.115.3A.319.319,0,0,1,66.137,50.524Z"/><path class="cls-4" d="M66.573,49.123a.29.29,0,0,0-.136-.316.658.658,0,0,0-.164-.058.411.411,0,0,0-.093-.015.38.38,0,0,0-.084.011.5.5,0,0,0-.3.256.375.375,0,0,0,0,.379.255.255,0,0,0,.126.11.409.409,0,0,0,.17.022,1.221,1.221,0,0,0,.382-.08l-.094.06a.9.9,0,0,1-.277.113.523.523,0,0,1-.213,0,.331.331,0,0,1-.211-.148.532.532,0,0,1-.021-.532.612.612,0,0,1,.407-.328.5.5,0,0,1,.135-.009.519.519,0,0,1,.113.024.615.615,0,0,1,.186.105.3.3,0,0,1,.115.3A.3.3,0,0,1,66.573,49.123Z"/><path class="cls-4" d="M66.4,52.154a.452.452,0,0,0-.214-.5,1,1,0,0,0-.258-.092.752.752,0,0,0-.147-.024.611.611,0,0,0-.132.018.786.786,0,0,0-.471.4.592.592,0,0,0,0,.6.393.393,0,0,0,.2.172.645.645,0,0,0,.268.035,1.912,1.912,0,0,0,.6-.126l-.149.094a1.389,1.389,0,0,1-.436.178.815.815,0,0,1-.335,0A.514.514,0,0,1,65,52.683a.84.84,0,0,1-.033-.838.96.96,0,0,1,.641-.515.74.74,0,0,1,.212-.015.78.78,0,0,1,.178.039.93.93,0,0,1,.293.164.478.478,0,0,1,.181.465A.466.466,0,0,1,66.4,52.154Z"/><path class="cls-4" d="M69.006,52.843a.288.288,0,0,0-.136-.316.658.658,0,0,0-.164-.058.476.476,0,0,0-.093-.015.388.388,0,0,0-.084.011.5.5,0,0,0-.3.256.377.377,0,0,0,0,.38.258.258,0,0,0,.126.109.409.409,0,0,0,.17.022,1.221,1.221,0,0,0,.382-.08l-.094.06a.9.9,0,0,1-.277.113.523.523,0,0,1-.213,0,.328.328,0,0,1-.211-.148.532.532,0,0,1-.021-.532.608.608,0,0,1,.407-.327.463.463,0,0,1,.135-.01.469.469,0,0,1,.113.025.592.592,0,0,1,.186.1.3.3,0,0,1,.115.3A.3.3,0,0,1,69.006,52.843Z"/><path class="cls-4" d="M68.671,54.171a.285.285,0,0,0-.136-.315.608.608,0,0,0-.164-.059.476.476,0,0,0-.093-.015.339.339,0,0,0-.084.012.5.5,0,0,0-.3.255.377.377,0,0,0,0,.38.253.253,0,0,0,.126.109.409.409,0,0,0,.17.022,1.221,1.221,0,0,0,.382-.08l-.094.06a.882.882,0,0,1-.277.113.522.522,0,0,1-.213,0,.326.326,0,0,1-.21-.148.534.534,0,0,1-.022-.532.607.607,0,0,1,.408-.327.454.454,0,0,1,.134-.01.522.522,0,0,1,.113.025.6.6,0,0,1,.186.1.3.3,0,0,1,.115.3A.294.294,0,0,1,68.671,54.171Z"/></svg>