<svg id="word" xmlns="http://www.w3.org/2000/svg" viewBox="0 0 160 160"><defs><style>.cls-1{fill:none;stroke:#4b6931;stroke-width:0.992px;}.cls-2{fill:#ef4923;}.cls-2,.cls-3,.cls-4,.cls-5,.cls-6,.cls-7,.cls-8{stroke:#9c4c9c;stroke-miterlimit:10;stroke-width:0.709px;}.cls-3{fill:#829748;}.cls-4{fill:#d12f2b;}.cls-5{fill:#ee392c;}.cls-6{fill:#ef5134;}.cls-7{fill:#141414;}.cls-8{fill:#27b373;}</style></defs><path class="cls-1" d="M90.577,151.382c-.239-17.65-12.25-21.25-2.259-49.337C92.5,90.283,94.776,69.37,76.533,65.853,67.547,64.121,59.965,78.475,60.475,89.22"/><path class="cls-2" d="M59.9,90.684c-.57,5.029.778,11.125,2.406,16.224a5.4,5.4,0,0,1-3.837-.428C58.684,101.186,57.768,95.96,59.9,90.684Z"/><path class="cls-3" d="M55.3,97.981c.619-7.256,2.359-10.094,6.073-9.626a8.447,8.447,0,0,1,5.261,7.958c0,6.085.7,6.788-3.249,10.416-.072.066-.823,1.381-.929,1.4-1.628-5.1-3.134-12.42-2.564-17.449-2.128,5.276-1.238,11.746-1.458,17.04C55.792,106.283,54.872,103.032,55.3,97.981Z"/><path class="cls-1" d="M90.339,56.5s8.248,9.973,7.225,20.445S96.882,96.977,94,103.78s-5.385,11.045-3.28,24.879,2.487,21.6,2.487,21.6"/><path class="cls-4" d="M98.472,42.8s-1.1,9.833-8.353,13.833c-5.438,3-13.481,2.757-14.373,2.182s-5.836-.427-5.836-.427,11.89-13.8,17.719-15.016A41.751,41.751,0,0,1,99.215,42.8"/><path class="cls-5" d="M70.018,53.348S59.227,56.339,55.9,56.886s-7.177-.2-8-3.71-2-2.294-3.154-4.841,2.132-8.02,3.6-9.134a8.205,8.205,0,0,0,3.925-6.115c.618-3.839,1.595-7.973,9.094-5.493s6.837,7.568,10.877,9.328a12.362,12.362,0,0,1,5.734,5.024l-.943,11.732-7,.483Z"/><path class="cls-5" d="M58.438,30.88s-3.82-9.7.881-12.162,9.559-1.222,11.552-2.091,8.489-3.7,11.344-2.763,2.238,10.444,3.074,12.7.137,10.453.434,12.229.9,3.347,0,3.15-11.418,1.426-11.418,1.426Z"/><path class="cls-5" d="M86.705,15.066s4.751-3.022,5.738-2.164,1.752.472,2.712,1.072.807-.968,3.149,2.094,3.428,4.317,2.864,9.744-4.446,13.3-4.446,13.3l-5.177,6.667H85.5L83.8,19.268S84.14,15.393,86.705,15.066Z"/><path class="cls-6" d="M99.486,14.091s4.009-.193,5.022,6.228-4.2,15.376-4.8,16.128a54.967,54.967,0,0,1-4.932,3.76S96.3,31.09,98.158,27.546s1.225-10.269-.271-11.478a29.454,29.454,0,0,0-4.095-2.537S97.53,13.989,99.486,14.091Z"/><path class="cls-6" d="M45.294,44.149s3.754,8.465,8.074,9.528,14.185.623,14.185.623l2.465.772S59.962,56.9,57.034,57.645s-8.308-.236-9.082-2.006A32.272,32.272,0,0,0,43.883,49.2C43.02,48.406,43.617,46.466,45.294,44.149Z"/><path class="cls-7" d="M93.792,42.8c-.648-.926-4.442-4.141-5.572-4.163a10.841,10.841,0,0,0-3.317.638l-2.6.787a17.861,17.861,0,0,0-6.375,2.9c-1.811,1.5-3.22,7.435-2.5,9.673,0,0,6.728-.389,10.372-2.966S93.792,42.8,93.792,42.8Z"/><path class="cls-8" d="M81.2,49.931c-.5-2.417-2.8-6.707-2.667-9.215.086-1.592-.327-3.423.967-4.354a2.214,2.214,0,0,1,.907-.406,2.812,2.812,0,0,1,1.126.093,7.458,7.458,0,0,1,3.83,2.216c.993,1.122,2.4,6.543,2.254,8.034"/><path class="cls-6" d="M64.648,67.987s-2.727-7.343.089-10.515,1.856-4.071,4.747-5.323,8.912.007,11.118-2.535,8.14-5.755,9.7-6.815,3.966-4.06,7.405-3.448,5.268.842,4.876,4.2-8.036.091-10.97.954-5.318,6-6.32,6.576-5.652-.6-6.265,1.646S74.5,57.2,73.009,59.218s-6.711,5.2-6.976,5.672S64.648,67.987,64.648,67.987Z"/></svg>