<svg id="word" xmlns="http://www.w3.org/2000/svg" viewBox="0 0 160 160"><defs><style>.cls-1,.cls-2{fill:none;}.cls-1,.cls-2,.cls-3,.cls-5,.cls-6,.cls-7{stroke:#9d4b9c;stroke-miterlimit:10;}.cls-1{stroke-width:1.203px;}.cls-2,.cls-3,.cls-5,.cls-6,.cls-7{stroke-width:0.687px;}.cls-3{fill:#fff;}.cls-4{fill:#9d4b9c;}.cls-5{fill:#639e3e;}.cls-6{fill:#60993b;}.cls-7{fill:#6dac44;}</style></defs><path class="cls-1" d="M97.971,27.558a3.625,3.625,0,0,0-.5-.906,1.38,1.38,0,0,0-.921-.513,2.262,2.262,0,0,0-.605.054,12.679,12.679,0,0,0-2.488.742s-1.784,1.19-4.008,2.831A30.273,30.273,0,0,0,83.9,35.474a23.861,23.861,0,0,0-3.26,5.159,65.771,65.771,0,0,0-3.15,8.964c-.668,3.083-.206,7.159-.138,9.371s1.952,8.907,3.358,12.793,6.371,13.76,8.388,18.718"/><path class="cls-2" d="M94.965,30.738a2.132,2.132,0,0,0-.2-.737,2.948,2.948,0,0,0-.822-1.3A2.467,2.467,0,0,0,92,28.363a7.787,7.787,0,0,0-1.964.749"/><path class="cls-3" d="M97.461,28.2a1.576,1.576,0,0,1,2.149-.7c1.347.761.311,3.159-.216,3.592S96.14,30.3,97.461,28.2Z"/><path class="cls-3" d="M94.025,31.262s1.822-1.471,2.508-.781a3.291,3.291,0,0,1,.947,2.611c-.176.7-.778.4-1.238.8s-.945.75-1.271.538A3.938,3.938,0,0,1,93.9,33.205,1.735,1.735,0,0,1,94.025,31.262Z"/><path class="cls-3" d="M90.471,34.235s1.873-1.352,2.634-.484,1.1,2.054,1.423,2.059,1.33-.772,1.087-.039-1.538.65-1.513,1.27-1.17,1.335-1.823,1.471-1.238.243-1.238.243-1.347-.761-1.3-1.969S89.459,35.013,90.471,34.235Z"/><path class="cls-3" d="M88.524,38.769s2.559-1.222,2.91-.95,1.238.876,1.464,1.411.452,1.069.921.871,1.087-.6.9-.1-1.012.778-1.012.778a1.138,1.138,0,0,1-.618,1.522,3.394,3.394,0,0,1-1.848.291s.109,1-1.2,1.276-1.079-.314-1.079-.314-.694.784-1.355.713.468-.758.384-1.7S87.027,40.452,88.524,38.769Z"/><path class="cls-3" d="M87.539,45.207s2.417-1.372,3.078-.741,1.489.91,1.807,1.476.72,1.516,1.648,1.474,1.431.025.7.543a3.713,3.713,0,0,1-2.283.2s.6.865-.644,1.462a6.348,6.348,0,0,1-2.425.606s.41.6-.476,1.111-.97.13-1.054-.814-.712-1.31-.947-2.611A4.59,4.59,0,0,1,87.539,45.207Z"/><path class="cls-3" d="M85.986,52.165s2.082-1.231,2.961-.832a4.885,4.885,0,0,1,2.167,1.955,1.921,1.921,0,0,0,1.514.97c.41.036,1.531-.3.912.1a4.806,4.806,0,0,1-1.5.563s.008.207-.627.755A2.367,2.367,0,0,1,89.659,56,5.515,5.515,0,0,1,88.046,57.6a1.789,1.789,0,0,1-1.313.065s-.167.91-.669.843.384-1.7.384-1.7S83.444,54.36,85.986,52.165Z"/><path class="cls-3" d="M87.252,60.382a7.131,7.131,0,0,1,2.476-1.047c1.974.005,2.618,1.343,3.053,1.439s1.907-.526,1.974.006-2.09,1.584-2.09,1.584a1.6,1.6,0,0,1-.225,2.266,2.808,2.808,0,0,1-2.284.755,4.094,4.094,0,0,1-1.705,1.561c-1.071.453.058-.794-.227-1.654s-1.539-1.59-1.707-2.359A2.006,2.006,0,0,1,87.252,60.382Z"/><path class="cls-3" d="M88.343,69.863s2.024-.436,2.794.079,1.372,2.5,1.757,2.477,1.547-.444,1.43.026-1.162.981-1.162.981-.192,1.412-.794,1.666a4.354,4.354,0,0,1-1.673.147s-.008.354-1.011.778a1.411,1.411,0,0,1-1.623-.294s-1.371.86-1.572.385,1.145-.835.936-1.516S84.823,71.981,88.343,69.863Z"/><path class="cls-2" d="M90.757,33.975l-.688-1.621a1.285,1.285,0,0,0-.283-.467,1.578,1.578,0,0,0-1.211-.214,3.037,3.037,0,0,0-2.254.949"/><path class="cls-2" d="M89.026,38.383c-.008-.094-.015-.188-.027-.281a3.034,3.034,0,0,0-2.744-2.7,6.4,6.4,0,0,0-2.934.809,1.417,1.417,0,0,0-.489.31,1.246,1.246,0,0,0-.217.42l-.288.8"/><path class="cls-2" d="M78.914,44.582c.341-.384.492-.875.81-1.274a4.286,4.286,0,0,1,2.113-1.192,6.158,6.158,0,0,1,2.8-.409,3.634,3.634,0,0,1,2.1,1.219,9.677,9.677,0,0,1,1.276,2.007"/><path class="cls-2" d="M86.013,52.081a5.62,5.62,0,0,0-1.929-2.96,1.708,1.708,0,0,0-.859-.358,2.421,2.421,0,0,0-.831.133,6.629,6.629,0,0,0-3.841,2.248,17,17,0,0,0-1.624,3.66"/><path class="cls-2" d="M87.217,60.394c-1.376-.113-2.409-1.12-3.751-1.37a3.829,3.829,0,0,0-2.53.436A5.131,5.131,0,0,0,78.6,63.209a1.8,1.8,0,0,1-.415,1.089"/><path class="cls-2" d="M79.477,68.838c-.3-.45.014-1.116.515-1.457a4.556,4.556,0,0,1,1.72-.56,7.873,7.873,0,0,1,2.651-.261,3.98,3.98,0,0,1,1.7.747,5.608,5.608,0,0,1,2.115,2.972"/><path class="cls-4" d="M90.129,28.825A3.573,3.573,0,0,1,91.305,28a9.9,9.9,0,0,1,2.933-.4A22.737,22.737,0,0,1,91.255,29a13.033,13.033,0,0,0-1.745.6Z"/><path class="cls-4" d="M82.832,36.52s.106-.827,1.712-1.506,2.236-.432,2.236-.432-2.548,2.058-3.49,2.689a15.558,15.558,0,0,1-1.594.954Z"/><line class="cls-4" x1="79.15" y1="44.016" x2="79.061" y2="44.801"/><path class="cls-4" d="M78.821,45.229s-1.065-1.277-.374-2.129a4.481,4.481,0,0,1,2.124-1.692,15.1,15.1,0,0,1,3.105-1.359,14.873,14.873,0,0,0,1.712-.3s-1.177.824-2.358,1.511-.72-.21-2.3,1.9S78.821,45.229,78.821,45.229Z"/><path class="cls-4" d="M76.978,51.936a11.371,11.371,0,0,1,.635-2.229,3.368,3.368,0,0,1,1.733-1.246,5.091,5.091,0,0,1,1.946-.123s-2.023.436-2.151,1.377-1.381,4.691-1.381,4.691l-.491.581Z"/><path class="cls-4" d="M78.321,63.691s-1.238-.316-1.228-1.161a4.17,4.17,0,0,1,1.053-2.359A27.545,27.545,0,0,0,79.668,57.8s.881.1.636,1.879a8.816,8.816,0,0,1-.8,3.09,4.124,4.124,0,0,1-1.165,1.1Z"/><path class="cls-4" d="M79.739,69.533a1.377,1.377,0,0,1-1.16-1c-.3-.949.741-2.227,1.393-2.55a12.856,12.856,0,0,0,1.99-1.635,10.939,10.939,0,0,1,2,.134c.323.144-1.154.255-1.734.873s-.881,1.026-.708,1.56S79.739,69.533,79.739,69.533Z"/><path class="cls-5" d="M87.817,84.061S94.7,72.049,97.925,67.947s11.865-14.355,14.941-18.9,3.809-12.452,5.42-6.446,8.057,17.725,5.86,28.711-8.5,20.948-15.821,28.272-15.967,19.776-18.6,24.61-3.662,7.324-3.662,7.324Z"/><path class="cls-1" d="M114.524,50.369a3.609,3.609,0,0,0-.238-1.007,1.378,1.378,0,0,0-.749-.743,2.277,2.277,0,0,0-.6-.111,12.661,12.661,0,0,0-2.6.045s-2.039.666-4.623,1.647a30.238,30.238,0,0,0-6.884,4,23.863,23.863,0,0,0-4.529,4.091,65.878,65.878,0,0,0-5.447,7.785c-1.473,2.789-2.126,6.838-2.657,8.987s-.518,9.1-.21,13.225,2.43,14.967,3.038,20.286a15.732,15.732,0,0,1-1.557,9.03"/><path class="cls-2" d="M110.773,52.622a2.155,2.155,0,0,0,.006-.764,2.955,2.955,0,0,0-.441-1.474,2.472,2.472,0,0,0-1.778-.847,7.713,7.713,0,0,0-2.092.193"/><path class="cls-3" d="M113.86,50.848a1.577,1.577,0,0,1,2.258-.094c1.093,1.095-.551,3.126-1.175,3.4S112.023,52.514,113.86,50.848Z"/><path class="cls-3" d="M109.726,52.873s2.151-.926,2.626-.076a3.289,3.289,0,0,1,.208,2.769c-.358.631-.856.174-1.408.44s-1.112.468-1.369.175a3.947,3.947,0,0,1-.7-1.47A1.737,1.737,0,0,1,109.726,52.873Z"/><path class="cls-3" d="M105.5,54.779s2.168-.8,2.667.244.511,2.275.816,2.366,1.488-.386,1.058.254-1.657.213-1.8.816-1.486.971-2.151.926-1.258-.1-1.258-.1a2.551,2.551,0,0,1-.727-2.248C104.473,55.886,104.319,55.256,105.5,54.779Z"/><path class="cls-3" d="M102.407,58.622s2.793-.488,3.059-.132a5.046,5.046,0,0,1,1.03,1.753c.073.576.147,1.152.651,1.087s1.209-.285.9.145-1.184.477-1.184.477a1.138,1.138,0,0,1-1.005,1.3A3.389,3.389,0,0,1,104,63.034s-.165,1-1.5.907-.955-.593-.955-.593-.879.567-1.5.321.655-.6.828-1.536S100.512,59.839,102.407,58.622Z"/><path class="cls-3" d="M99.725,64.556s2.7-.67,3.164.115,1.189,1.278,1.343,1.909.285,1.654,1.19,1.863,1.371.409.531.712a3.708,3.708,0,0,1-2.252-.427s.347,1-1.013,1.235a6.352,6.352,0,0,1-2.5-.07s.234.685-.758.942-.97-.136-.8-1.068S98.3,68.314,98.427,67A4.586,4.586,0,0,1,99.725,64.556Z"/><path class="cls-3" d="M96.356,70.839s2.336-.624,3.075,0a4.891,4.891,0,0,1,1.561,2.466,1.919,1.919,0,0,0,1.2,1.342c.384.146,1.554.126.85.346a4.793,4.793,0,0,1-1.594.139s-.047.2-.807.559a2.366,2.366,0,0,1-1.778-.162,5.526,5.526,0,0,1-1.983,1.1,1.79,1.79,0,0,1-1.282-.291s-.406.832-.871.632.828-1.537.828-1.537S93.317,72.269,96.356,70.839Z"/><path class="cls-3" d="M95.362,79.093a7.127,7.127,0,0,1,2.666-.341c1.9.537,2.16,2,2.553,2.208s1.978.007,1.9.537-2.44.963-2.44.963a1.593,1.593,0,0,1-.827,2.121,2.807,2.807,0,0,1-2.4.113,4.092,4.092,0,0,1-2.063,1.044c-1.153.148.27-.749.227-1.654s-1.054-1.946-1.009-2.732A2.007,2.007,0,0,1,95.362,79.093Z"/><path class="cls-3" d="M93.86,88.518s2.066.125,2.669.828.649,2.778,1.025,2.86,1.61-.012,1.371.409-1.384.632-1.384.632-.564,1.308-1.213,1.391a4.36,4.36,0,0,1-1.65-.309s-.1.339-1.184.477a1.412,1.412,0,0,1-1.484-.72s-1.552.459-1.618-.053,1.328-.5,1.31-1.208S89.9,89.61,93.86,88.518Z"/><path class="cls-2" d="M105.848,54.606l-.225-1.747a1.3,1.3,0,0,0-.147-.526,1.577,1.577,0,0,0-1.109-.531,3.034,3.034,0,0,0-2.426.306"/><path class="cls-2" d="M102.994,58.385c.018-.093.036-.185.051-.278a3.036,3.036,0,0,0-1.916-3.34,6.391,6.391,0,0,0-3.044-.011,1.42,1.42,0,0,0-.554.167,1.247,1.247,0,0,0-.322.346l-.493.694"/><path class="cls-2" d="M91.587,61.632c.431-.278.709-.71,1.123-1.009a4.3,4.3,0,0,1,2.356-.579,6.169,6.169,0,0,1,2.8.358,3.635,3.635,0,0,1,1.693,1.74,9.74,9.74,0,0,1,.689,2.276"/><path class="cls-2" d="M96.4,70.766A5.614,5.614,0,0,0,95.343,67.4a1.711,1.711,0,0,0-.73-.576,2.457,2.457,0,0,0-.837-.1,6.631,6.631,0,0,0-4.3,1.131,16.965,16.965,0,0,0-2.55,3.088"/><path class="cls-2" d="M95.325,79.1c-1.3-.478-2.018-1.727-3.243-2.329a3.827,3.827,0,0,0-2.555-.261,5.134,5.134,0,0,0-3.258,2.981,1.8,1.8,0,0,1-.693.938"/><path class="cls-2" d="M85.6,85.143c-.173-.515.313-1.071.888-1.264a4.546,4.546,0,0,1,1.806-.076,7.889,7.889,0,0,1,2.625.463,3.982,3.982,0,0,1,1.44,1.178,5.617,5.617,0,0,1,1.237,3.432"/><path class="cls-4" d="M106.63,49.477A3.592,3.592,0,0,1,107.985,49a9.916,9.916,0,0,1,2.932.405,22.756,22.756,0,0,1-3.25.546,12.839,12.839,0,0,0-1.841.106Z"/><path class="cls-4" d="M97.531,54.923s.325-.768,2.054-.99,2.27.187,2.27.187-3.008,1.3-4.085,1.65a15.747,15.747,0,0,1-1.793.489Z"/><line class="cls-4" x1="91.966" y1="61.151" x2="91.669" y2="61.882"/><path class="cls-4" d="M91.323,62.23s-.682-1.516.213-2.151a4.474,4.474,0,0,1,2.5-1.057,15.056,15.056,0,0,1,3.356-.474,14.722,14.722,0,0,0,1.731.169s-1.355.477-2.678.82-.637-.4-2.725,1.216S91.323,62.23,91.323,62.23Z"/><path class="cls-4" d="M87.742,68.193a11.33,11.33,0,0,1,1.211-1.975,3.367,3.367,0,0,1,2.006-.734,5.085,5.085,0,0,1,1.907.406s-2.067-.126-2.443.746-2.594,4.147-2.594,4.147l-.628.427Z"/><path class="cls-4" d="M85.869,79.876s-1.107-.639-.869-1.449a4.166,4.166,0,0,1,1.65-1.989,27.747,27.747,0,0,0,2.1-1.873s.823.328.107,1.98a8.822,8.822,0,0,1-1.6,2.762,4.108,4.108,0,0,1-1.418.745Z"/><path class="cls-4" d="M85.663,85.884a1.379,1.379,0,0,1-.848-1.279c-.029-.993,1.313-1.945,2.028-2.08A12.877,12.877,0,0,0,89.2,81.486a10.918,10.918,0,0,1,1.892.668c.273.225-1.18-.066-1.905.374s-1.124.751-1.1,1.311S85.663,85.884,85.663,85.884Z"/><path class="cls-6" d="M88.7,109.7S72.583,65.6,67.9,61.062a41.037,41.037,0,0,0-17.431-9.521c-5.567-1.319-14.8-5.274-14.942-2.344s-1.172,6.006,6.885,18.9,14.8,25.488,22.266,35.3,10.693,12.451,14.062,18.75a42.543,42.543,0,0,1,4.248,10.986s3.662.733,3.955.147S88.7,109.7,88.7,109.7Z"/><path class="cls-7" d="M83.276,132.254s-5.127-20.215-9.961-25.488-11.133-30.03-11.133-35.6S67.163,44.07,69.36,40.7s2.344-5.274,4.395-1.611,12.89,27.246,16.406,33.838S95,95.047,93.237,103.25s-5.273,21.387-5.566,23.584-.733,5.86-.733,5.86S85.181,135.33,83.276,132.254Z"/><path class="cls-1" d="M51.862,45.09a4.612,4.612,0,0,1,.109-1.168,1.554,1.554,0,0,1,.654-.945,2.086,2.086,0,0,1,.583-.211,11.353,11.353,0,0,1,2.6-.324s2.124.456,4.834,1.189a28.769,28.769,0,0,1,7.4,3.515A24.311,24.311,0,0,1,73.1,51.1a72.272,72.272,0,0,1,6.445,7.984c1.831,2.93,3,7.4,3.809,9.741s1.684,10.181,1.9,14.868-.513,17.212-.44,23.292.806,26.88.806,26.88"/><path class="cls-2" d="M55.9,47.087a2.728,2.728,0,0,1-.1-.86,3.74,3.74,0,0,1,.252-1.723,2.5,2.5,0,0,1,1.67-1.211,6.949,6.949,0,0,1,2.117-.085"/><path class="cls-3" d="M52.588,45.535a1.471,1.471,0,0,0-2.271.22c-.952,1.391.952,3.442,1.611,3.662S54.638,47.146,52.588,45.535Z"/><path class="cls-3" d="M56.982,47.22s-2.27-.733-2.637.292a4.163,4.163,0,0,0,.147,3.15c.439.659.879.073,1.465.293s1.172.366,1.391,0a4.864,4.864,0,0,0,.513-1.758C57.861,48.758,57.861,47.659,56.982,47.22Z"/><path class="cls-3" d="M61.45,48.758s-2.271-.586-2.637.659-.219,2.637-.512,2.783-1.539-.22-1.026.439,1.685,0,1.9.66,1.612.879,2.271.732,1.245-.293,1.245-.293a3.171,3.171,0,0,0,.44-2.637C62.622,49.856,62.7,49.124,61.45,48.758Z"/><path class="cls-3" d="M65.039,52.639s-2.857-.146-3.076.293a6.113,6.113,0,0,0-.806,2.124c0,.66,0,1.319-.513,1.319s-1.245-.147-.879.293,1.246.366,1.246.366,0,1.318,1.171,1.318a3.149,3.149,0,0,0,1.831-.512,1.252,1.252,0,0,0,1.612.8c1.318-.293.879-.8.879-.8s.952.512,1.538.146-.733-.586-1.026-1.611S67.09,53.738,65.039,52.639Z"/><path class="cls-3" d="M68.481,58.938s-2.783-.366-3.149.586-1.026,1.612-1.1,2.344-.073,1.9-.952,2.271-1.318.659-.439.878,2.2-.8,2.2-.8-.22,1.172,1.172,1.245a5.77,5.77,0,0,0,2.49-.44s-.146.806.879.953.952-.293.659-1.319.147-1.684-.146-3.149A5.189,5.189,0,0,0,68.481,58.938Z"/><path class="cls-3" d="M72.656,65.53s-2.417-.366-3.076.44a5.879,5.879,0,0,0-1.245,3,2.188,2.188,0,0,1-1.026,1.684c-.366.22-1.538.366-.8.513a4.335,4.335,0,0,0,1.611-.073s.073.219.879.512a2.191,2.191,0,0,0,1.758-.439,5.239,5.239,0,0,0,2.124.952,1.71,1.71,0,0,0,1.245-.513s.513.879.952.586-1.025-1.611-1.025-1.611S75.879,66.7,72.656,65.53Z"/><path class="cls-3" d="M74.707,74.686a6.392,6.392,0,0,0-2.71,0c-1.831.878-1.9,2.563-2.271,2.856s-1.977.293-1.831.879,2.564.732,2.564.732-.44,1.758,1.1,2.271a2.565,2.565,0,0,0,2.417-.22,3.885,3.885,0,0,0,2.2.879c1.172,0-.366-.806-.44-1.831s.806-2.344.66-3.223S76.318,75.271,74.707,74.686Z"/><path class="cls-3" d="M77.417,85.086s-2.051.439-2.564,1.318-.293,3.223-.659,3.369-1.611.22-1.318.66,1.465.512,1.465.512.732,1.392,1.391,1.392a4.078,4.078,0,0,0,1.612-.586s.146.366,1.245.366a1.463,1.463,0,0,0,1.391-1.025s1.612.293,1.612-.293-1.392-.366-1.465-1.172S81.518,85.745,77.417,85.086Z"/><path class="cls-2" d="M61.083,48.612v-2a1.647,1.647,0,0,1,.08-.614,1.6,1.6,0,0,1,1.041-.758,2.75,2.75,0,0,1,2.466-.006"/><path class="cls-2" d="M64.421,52.457c-.03-.1-.06-.2-.086-.3a3.638,3.638,0,0,1,1.488-4.04,5.783,5.783,0,0,1,3.043-.451,1.292,1.292,0,0,1,.576.108,1.316,1.316,0,0,1,.366.344l.582.711"/><path class="cls-2" d="M76.246,54.47c-.467-.251-.8-.7-1.252-.975a3.881,3.881,0,0,0-2.43-.312,5.673,5.673,0,0,0-2.757.808,4.126,4.126,0,0,0-1.47,2.2,12.291,12.291,0,0,0-.4,2.663"/><path class="cls-2" d="M72.6,65.455a7.086,7.086,0,0,1,.63-3.951,1.862,1.862,0,0,1,.656-.754,2.245,2.245,0,0,1,.825-.229c1.525-.21,3.216-.268,4.449.653A18.147,18.147,0,0,1,82.1,64.285"/><path class="cls-2" d="M74.745,74.683c1.233-.726,1.8-2.237,2.945-3.093a3.521,3.521,0,0,1,2.521-.662,5.236,5.236,0,0,1,3.641,2.888,1.959,1.959,0,0,0,.813.956"/><path class="cls-2" d="M85.248,80.092a1.255,1.255,0,0,0-1.05-1.3,4.093,4.093,0,0,0-1.817.175,7.326,7.326,0,0,0-2.565.9,4.365,4.365,0,0,0-1.29,1.536,7.038,7.038,0,0,0-.8,4.044"/><path class="cls-4" d="M59.643,42.947a3.286,3.286,0,0,0-1.416-.342,9.144,9.144,0,0,0-2.881.879,20.464,20.464,0,0,0,3.321.147,11.516,11.516,0,0,1,1.855-.147Z"/><path class="cls-4" d="M69.442,47.769s-.424-.818-2.181-.818-2.247.537-2.247.537,3.174,1.025,4.3,1.27a14.132,14.132,0,0,0,1.856.293Z"/><line class="cls-4" x1="75.806" y1="53.982" x2="76.196" y2="54.764"/><path class="cls-4" d="M76.587,55.105s.488-1.806-.488-2.392a4.147,4.147,0,0,0-2.637-.83c-1.221,0-2.539-.342-3.418-.049a13.5,13.5,0,0,1-1.709.439s1.416.342,2.783.537.586-.537,2.881.977S76.587,55.105,76.587,55.105Z"/><path class="cls-4" d="M80.933,61.307a12.787,12.787,0,0,0-1.465-2.051,3.1,3.1,0,0,0-2.1-.537,4.783,4.783,0,0,0-1.855.732s2.05-.439,2.539.488,3.125,4.3,3.125,4.3l.683.391Z"/><path class="cls-4" d="M84.3,74.2s1.025-.879.683-1.758a4.452,4.452,0,0,0-1.9-2,28.138,28.138,0,0,1-2.344-1.806s-.781.488.147,2.246a9.927,9.927,0,0,0,1.953,2.881,3.872,3.872,0,0,0,1.514.635Z"/><path class="cls-4" d="M85.278,80.936a1.6,1.6,0,0,0,.684-1.563,2.8,2.8,0,0,0-2.3-2.051,11.94,11.94,0,0,1-2.49-.83,10.564,10.564,0,0,0-1.807,1.026c-.244.293,1.172-.245,1.953.146s1.221.684,1.27,1.318S85.278,80.936,85.278,80.936Z"/></svg>