<svg id="word" xmlns="http://www.w3.org/2000/svg" viewBox="0 0 160 160"><defs><style>.cls-1{fill:#c0b399;}.cls-1,.cls-10,.cls-12,.cls-13,.cls-14,.cls-2,.cls-3,.cls-4,.cls-5,.cls-6,.cls-7,.cls-8,.cls-9{stroke:#9c4c9c;stroke-width:0.429px;}.cls-2,.cls-9{fill:none;}.cls-3{fill:#f7ea2f;}.cls-12,.cls-13,.cls-14,.cls-3,.cls-4,.cls-5,.cls-7{stroke-miterlimit:10;}.cls-4{fill:#ea2127;}.cls-5{fill:#c08866;}.cls-6{fill:#fde1d3;}.cls-7{fill:#045675;}.cls-8{fill:#998379;}.cls-9{stroke-linecap:round;}.cls-10,.cls-14{fill:#fff;}.cls-11{fill:#9c4c9c;}.cls-12{fill:#3a2416;}.cls-13{fill:#7c7b31;}.cls-15{fill:#4b7485;}</style></defs><path class="cls-1" d="M58.4,71.875s12.574-16.129,21.35-23.142,28.7-18.779,44.722-22.095,26.938-5.89,26.025-4.249a2.413,2.413,0,0,1-2.868.956s-19.1,2.421-28.989,6.5S96,38.662,86.762,45.547C64.886,61.856,60.311,72.316,60.311,72.316Z"/><path class="cls-2" d="M60.358,72.453a21.15,21.15,0,0,0,8.819-4.139c3.875-3.259,2.288-8.639,2.288-8.639S82.908,56.843,85.31,53.3a14.092,14.092,0,0,0,1.983-8.178s9.743-.586,14-3.711,4.8-6.7,4.8-6.7,3.276,1.815,11.249-.97,9.466-6.359,9.466-6.359,2.566.811,10.1-.517,9.117-3.573,9.117-3.573l2.141.038s1.026-1.229-2.944,7.182-9.2,9.785-8.5,23.12,4.844,16.522,2.3,24.17-4.78,14.978-4.78,14.978"/><path class="cls-3" d="M129.784,99.1s.885-3.4,3.924-2.761c2.789.59,1.929,3.974,1.929,3.974a7.86,7.86,0,0,1-4.245-.087C129.554,99.526,129.784,99.1,129.784,99.1Z"/><path class="cls-4" d="M132.758,97.577s0-7.234,1.527-6.43-.241,6.752-.241,6.752S133.964,99.024,132.758,97.577Z"/><ellipse class="cls-5" cx="71.106" cy="59.569" rx="0.757" ry="0.717"/><circle class="cls-5" cx="87.24" cy="45.069" r="0.637"/><circle class="cls-5" cx="106.401" cy="34.751" r="0.757"/><circle class="cls-5" cx="126.81" cy="27.275" r="0.744"/><circle class="cls-5" cx="146.302" cy="23.398" r="0.584"/><polygon class="cls-6" points="53.108 77.155 49.973 81.074 52.619 82.347 57.713 78.82 59.084 73.726 55.753 74.118 53.108 77.155"/><path class="cls-5" d="M37.042,80.29s2.939,8.131,4.6,7.543S49.973,79.8,49.973,79.8l4.017,3.233s-7.641,9.8-10.286,10.874-4.115,1.763-5.78-.98S37.042,80.29,37.042,80.29Z"/><path class="cls-5" d="M25.351,77.416S21.5,79.9,21.172,82.053s-.719,7.9.065,10.123,1.5,2.939.588,4.245-1.111,2.352-.719,2.939.131.588.066,1.96-.066,2.677-.066,3.2-2.351,1.306,2.743.914,17.177-5.094,17.177-5.094-1.241-10.711-1.372-12.605a54.094,54.094,0,0,0-2.416-9.013c-.457-1.045-3.429-1.567-3.429-1.567Z"/><path class="cls-6" d="M26.2,75.849s1.764,5.225,3.984,6.074,3-.262,3.2-1.829.457-4.833.457-4.833Z"/><path class="cls-7" d="M22.086,103.344s-.042.1-.108.27c-.444,1.161-1.975,5.794.7,8.351,3.069,2.939,9.8,4.441,12.147,3.2s14.238-5.029,14.957-5.487,2.22-1.894,2.22-.522.2,7.315.2,8.229,1.763.327,3.2,1.241a11.181,11.181,0,0,0,2.547,1.241s1.7-5.617,2.352-7.707,3.069-7.445,2.285-9.274-9.012-2.873-10.711-2.547-13.584.2-13.584.2Z"/><path class="cls-7" d="M27.245,101.516s7.119-9.405,10.581-7.25,5.42,8.491,6.335,11.756,4.18,14.826,4.18,14.826,3.265,2.939,3.331,4.963-3.593,3.984-5.813,3.919-4.376-6.727-4.7-7.576-4.833-13.585-4.833-13.585-.915,7.184-4.637,6.923-8.491-.784-9.209-4.049S27.245,101.516,27.245,101.516Z"/><path class="cls-6" d="M41.317,56a6.5,6.5,0,0,1,1.124,4.227c-.045,2.891-1.074,4.015-.614,5.468s.421,6.047-2.3,8.238a18.491,18.491,0,0,1-7.906,3.3c-1.369.22-4.113-1.043-5.329-1.351s-4.778-1.631-6.322-4.659-3.49-8.166-3.44-10.366,3.97-7.489,6.878-8.569,12.49-2.621,14.9-.56A9.531,9.531,0,0,1,41.317,56Z"/><path class="cls-8" d="M21.781,54.662s3.268.562,4.95-.183,3.721-2.341,4.841-.99,1.877,2.229,3.272,2.427-.258.029-.766-1.409.474-.523,1.331.165a5.579,5.579,0,0,0,2.323,1.449,6.963,6.963,0,0,0,1.956.436l-1.263-1.614s3.734,2.867,3.746,2.913a9.537,9.537,0,0,0,2.1.245c1.075.033-.273-.02-.98-1.075s-.681-.975,1.424-.886a7.193,7.193,0,0,0,3.972-1.257s-4.518.034-5.263-1.478l-.745-1.513s.893,1.475,2,1.6a4.583,4.583,0,0,0,1.963-.2,18.437,18.437,0,0,1-2.411-3.073A8.9,8.9,0,0,0,41.837,47.2a10.61,10.61,0,0,1,1.82.7c.11.178-2.071-2.169-3.736-2.548a7.812,7.812,0,0,0-2.873-.156l1.883-1.289s-2.9.92-4.706-.056-5.091-1.106-7.589-.582-5.564,3.465-5.564,3.465-1.2.753-1.063.177a5.576,5.576,0,0,0-.434-2.047s-.1,3.228-.62,3.766-1.613,1.469-1.613,1.469a6.175,6.175,0,0,0-.213-1.851c-.247-.614-.758,2.318-.745,2.527s-.059-.354-.758-.879.164,1.866.164,1.866a5.35,5.35,0,0,0-2.332.738c-.66.582-1.087.93-1.087.93l2.556-.862a7.467,7.467,0,0,0-2.668,2.176,13.448,13.448,0,0,0-1.2,2.086l2.719-1.511s-.757.3-1.181,2.836a5.091,5.091,0,0,0,1.3,4.873c.9.961-.138,4.26.332,5.212s2.844,2.562,2.844,2.562,1.691-4.424,2.328-4.093.62.444.56-.923.134-3.452-.16-4.211.964,3.047.964,3.047a3.35,3.35,0,0,0,1.287-2.161,6.669,6.669,0,0,0-.364-3.508c-.3-.6.963,2.2.963,2.2a9.252,9.252,0,0,0,.384-3.425A11.722,11.722,0,0,0,21.781,54.662Z"/><path class="cls-9" d="M35.9,65.8a.691.691,0,0,0,.054-.86,1.025,1.025,0,0,0-.8-.409,2.073,2.073,0,0,0-.905.2A.656.656,0,0,0,34,64.9c-.135.162-.117.431-.289.555"/><path class="cls-6" d="M19,65.457s-.892-2.967-3.055-1.164a3.509,3.509,0,0,0-.432,5.038,8.5,8.5,0,0,0,2.425,2c.884.413,2.794.341,2.793-.4"/><path class="cls-10" d="M41.19,61.351s-1.535-2.253-2.7-.365c-.81,1.315-.548,3.285.776,3.913S41.974,64.089,41.19,61.351Z"/><path class="cls-11" d="M41.374,61.873s-.924-1.356-1.623-.22a1.682,1.682,0,0,0,.466,2.354C41.014,64.385,41.846,63.52,41.374,61.873Z"/><path class="cls-10" d="M30.556,60.943s-1.536-2.252-2.7-.365c-.81,1.315-.548,3.285.776,3.913S31.34,63.681,30.556,60.943Z"/><path class="cls-11" d="M30.74,61.465s-.924-1.355-1.624-.219a1.683,1.683,0,0,0,.467,2.354C30.38,63.978,31.212,63.112,30.74,61.465Z"/><path class="cls-9" d="M30.223,57.382a1.918,1.918,0,0,0-1.639-.278,2.945,2.945,0,0,0-1.418.933"/><path class="cls-9" d="M41.353,58.863a3.8,3.8,0,0,0-2.7-.912"/><path class="cls-9" d="M17.5,65.652a1.406,1.406,0,0,0-1.108,2,.774.774,0,0,0,.5.456c.1.021.2.014.3.039.313.08.45.444.508.761a1.289,1.289,0,0,0,.37.868.9.9,0,0,0,.623.118.638.638,0,0,0,.359-.128.274.274,0,0,0,.068-.348"/><path class="cls-9" d="M28.7,67.335a7.935,7.935,0,0,0,4.128,2.824A5.274,5.274,0,0,0,37.6,69.118"/><path class="cls-12" d="M34.3,105.173,61.142,66.966s.783-.783,2.743,0-.784,2.352-.784,2.352L36.324,108.569S32.209,109.81,34.3,105.173Z"/><path class="cls-6" d="M52.325,79.18V77.351c0-.784,2.351-3.984,2.873-4.245s2.939-1.7,2.809-.588-1.372,1.306-1.764,3.069,0,3.593-1.5,4.05A2.462,2.462,0,0,1,52.325,79.18Z"/><path class="cls-6" d="M60.815,73.432s-3.331-.522-3.331.719S61.8,75.13,60.815,73.432Z"/><path class="cls-6" d="M60.423,75.065s-3.331-.523-3.331.718S61.4,76.763,60.423,75.065Z"/><path class="cls-6" d="M60.031,76.306s-3.331-.523-3.331.718S61.011,78,60.031,76.306Z"/><path class="cls-6" d="M59.394,77.921s-2.955-.437-2.955.6S60.264,79.342,59.394,77.921Z"/><path class="cls-6" d="M42.789,88.388l1.96-1.371s3.265-4.376,4.571-4.572,3.592-.457,3.984-.065,1.437.457,1.437.979A4.923,4.923,0,0,1,54.61,84.4a2.588,2.588,0,0,1,.2.849,1.37,1.37,0,0,1-.391.784s.587.98.13,1.437l-.457.457s-.653,1.633-.98,2.286a.833.833,0,0,1-1.371.327,1.058,1.058,0,0,1-.131-1.045,5.232,5.232,0,0,0-1.306.457,4.939,4.939,0,0,1-3,.261c-1.111-.327-2.351-.718-2.351-.718l-2.025.979Z"/><path class="cls-2" d="M51.319,86.5a2.109,2.109,0,0,1,.993-.606,3.773,3.773,0,0,1,1.012-.1,2.257,2.257,0,0,1,.586.058.825.825,0,0,1,.479.323"/><path class="cls-2" d="M54.624,84.709a.836.836,0,0,0-.524-.361,2.48,2.48,0,0,0-.65-.049l-.687.008a.749.749,0,0,0-.189.019.8.8,0,0,0-.246.14,5.322,5.322,0,0,1-.625.392"/><path class="cls-2" d="M54.281,82.716a2.411,2.411,0,0,0-2.373.651"/><path class="cls-2" d="M51.654,89.439c-.04-.186.085-.362.162-.537a1.134,1.134,0,0,0,.078-.643"/><path class="cls-5" d="M26.527,82.314s.261-4.375-2.612-4.375-3.462,4.571-2.286,9.4,6.465,9.862,8.817,9.078,4.408-1.665,7.674-2.71a17.52,17.52,0,0,0,6.171-3.429c0-.2-1.175-2.808-1.175-2.808s-4.9.2-6.531.849-4.768,1.437-5.682.457a25.386,25.386,0,0,1-2.613-4.572A7.181,7.181,0,0,0,26.527,82.314Z"/><path class="cls-3" d="M51.8,134.982c.841.1,1.671.3,2.516.352a11.381,11.381,0,0,0,4.809-.89,15.126,15.126,0,0,1,.034-2.283,6.523,6.523,0,0,1,.686-2.356,7.753,7.753,0,0,1-3.316-.442c-2.511-.8-3.045-3.793-5.075-3.365a2.932,2.932,0,0,0-2.4,2.4c-.107.374-1.6.32-2.03.374s-2.725-.107-2.725-.107.374,2.912.684,4.741c1.479.334,2.886,1.046,4.389,1.316C50.167,134.87,50.987,134.884,51.8,134.982Z"/><path class="cls-13" d="M59.121,134.444a11.381,11.381,0,0,1-4.809.89c-.845-.056-1.675-.25-2.516-.352-.809-.1-1.629-.112-2.432-.256-1.5-.27-2.91-.982-4.389-1.316.061.357.119.677.171.922.321,1.5,4.221,1.442,5.61,2.137a10.668,10.668,0,0,0,6.677.213c2.3-.694,7.372-2.885,7.372-4.006a3.076,3.076,0,0,0-.18-.993,13.968,13.968,0,0,1-2.819,1.6c-.878.407-1.773.817-2.685,1.164"/><path class="cls-14" d="M61.814,129.737c-.829-.019-1.424.034-1.973.068a6.523,6.523,0,0,0-.686,2.356,15.126,15.126,0,0,0-.034,2.283c.912-.347,1.807-.757,2.685-1.164a13.968,13.968,0,0,0,2.819-1.6A2.856,2.856,0,0,0,61.814,129.737Z"/><path class="cls-3" d="M55.9,124.22c.609.342,1.181.749,1.807,1.058a9.39,9.39,0,0,0,3.945.831,12.362,12.362,0,0,1,.743-1.73,5.354,5.354,0,0,1,1.262-1.58,6.4,6.4,0,0,1-2.389-1.378c-1.663-1.4-1.131-3.846-2.813-4.158a2.416,2.416,0,0,0-2.586,1.078c-.2.252-1.323-.258-1.665-.352s-2.043-.936-2.043-.936-.629,2.337-.967,3.828c1.022.719,1.872,1.7,2.933,2.381C54.694,123.623,55.315,123.891,55.9,124.22Z"/><path class="cls-13" d="M61.653,126.109a9.39,9.39,0,0,1-3.945-.831c-.626-.309-1.2-.716-1.807-1.058-.586-.329-1.207-.6-1.773-.958-1.061-.678-1.911-1.662-2.933-2.381-.066.291-.122.554-.159.756-.225,1.241,2.765,2.424,3.6,3.39a8.8,8.8,0,0,0,5.023,2.258c1.969.191,6.525.114,6.877-.741a2.522,2.522,0,0,0,.174-.813,11.545,11.545,0,0,1-2.65.333c-.8.035-1.608.066-2.412.045"/><path class="cls-14" d="M65.183,123.366c-.626-.275-1.1-.422-1.525-.567a5.354,5.354,0,0,0-1.262,1.58,12.362,12.362,0,0,0-.743,1.73c.8.021,1.615-.01,2.412-.045a11.545,11.545,0,0,0,2.65-.333A2.353,2.353,0,0,0,65.183,123.366Z"/><path class="cls-15" d="M129.734,97.8a18.1,18.1,0,0,0-3.281.381,3.285,3.285,0,0,0-1.435.608c-.388.322-.112.814.257,1.174a6.624,6.624,0,0,0,2.794,1.5,18.013,18.013,0,0,0,3.212.609,23.432,23.432,0,0,0,6.544-.113,3.949,3.949,0,0,0,1.475-.511c.084-.083.154-.136.165-.247l.029-.167-.031-.166a1.289,1.289,0,0,0-.421-.6,8.486,8.486,0,0,0-2.937-1.416,7.989,7.989,0,0,1,3.108,1.216,1.539,1.539,0,0,1,.54.718l.051.239-.026.246a.74.74,0,0,1-.261.44,4.2,4.2,0,0,1-1.607.653,22.305,22.305,0,0,1-6.688.243,18.474,18.474,0,0,1-3.3-.677,6.583,6.583,0,0,1-2.95-1.686,1.979,1.979,0,0,1-.475-.781.875.875,0,0,1,.288-.922,3.471,3.471,0,0,1,1.613-.617A15.768,15.768,0,0,1,129.734,97.8Z"/></svg>