<svg id="word" xmlns="http://www.w3.org/2000/svg" viewBox="0 0 160 160"><defs><style>.cls-1{fill:#c0b399;}.cls-1,.cls-2,.cls-3,.cls-4,.cls-5,.cls-6{stroke:#9c4c9c;stroke-width:0.445px;}.cls-2{fill:none;}.cls-3{fill:#f7ea2f;}.cls-3,.cls-4,.cls-5,.cls-6{stroke-miterlimit:10;}.cls-4{fill:#ea2127;}.cls-5{fill:#c08866;}.cls-6{fill:#3a2416;}.cls-7{fill:#4b7485;}</style></defs><path class="cls-1" d="M46.949,75.823S59.987,59.1,69.085,51.83s29.761-19.47,46.369-22.909,27.93-6.107,26.984-4.406a2.5,2.5,0,0,1-2.973.992s-19.8,2.51-30.057,6.734S85.929,41.388,76.355,48.526C53.674,65.436,48.93,76.281,48.93,76.281Z"/><path class="cls-2" d="M48.978,76.423a21.927,21.927,0,0,0,9.144-4.291c4.019-3.379,2.373-8.958,2.373-8.958s11.864-2.936,14.355-6.609a14.612,14.612,0,0,0,2.055-8.48s10.1-.606,14.52-3.847S96.4,37.292,96.4,37.292s3.4,1.882,11.663-1.006,9.814-6.594,9.814-6.594,2.661.841,10.469-.535,9.453-3.7,9.453-3.7l2.22.039s1.064-1.274-3.052,7.447-9.537,10.145-8.809,23.971,5.023,17.13,2.379,25.06-4.956,15.53-4.956,15.53"/><path class="cls-3" d="M120.961,104.056s.918-3.53,4.069-2.863c2.892.611,2,4.12,2,4.12a8.149,8.149,0,0,1-4.4-.09C120.723,104.493,120.961,104.056,120.961,104.056Z"/><path class="cls-4" d="M124.045,102.473s0-7.5,1.583-6.667-.25,7-.25,7S125.3,103.973,124.045,102.473Z"/><ellipse class="cls-5" cx="60.123" cy="63.064" rx="0.785" ry="0.743"/><circle class="cls-5" cx="76.85" cy="48.03" r="0.661"/><circle class="cls-5" cx="96.717" cy="37.333" r="0.785"/><circle class="cls-5" cx="117.877" cy="29.582" r="0.771"/><circle class="cls-5" cx="138.088" cy="25.562" r="0.606"/><path class="cls-6" d="M21.96,110.348,49.791,70.735s.813-.813,2.844,0-.812,2.437-.812,2.437l-27.764,40.7S19.793,115.156,21.96,110.348Z"/><path class="cls-7" d="M120.909,102.708a18.792,18.792,0,0,0-3.4.394,3.413,3.413,0,0,0-1.488.631c-.4.334-.116.844.267,1.217a6.867,6.867,0,0,0,2.9,1.558,18.677,18.677,0,0,0,3.33.631,24.277,24.277,0,0,0,6.785-.117,4.087,4.087,0,0,0,1.53-.53c.087-.086.16-.141.17-.256l.03-.173L131,105.89a1.349,1.349,0,0,0-.437-.624,8.8,8.8,0,0,0-3.045-1.468,8.286,8.286,0,0,1,3.222,1.261,1.6,1.6,0,0,1,.56.744l.054.249-.028.254a.762.762,0,0,1-.271.456,4.351,4.351,0,0,1-1.665.678,23.125,23.125,0,0,1-6.935.251,19.132,19.132,0,0,1-3.418-.7,6.833,6.833,0,0,1-3.058-1.748,2.044,2.044,0,0,1-.492-.81.908.908,0,0,1,.3-.956,3.586,3.586,0,0,1,1.672-.639A16.264,16.264,0,0,1,120.909,102.708Z"/></svg>