<svg id="word" xmlns="http://www.w3.org/2000/svg" viewBox="0 0 160 160"><defs><style>.cls-1{fill:#c0b399;}.cls-1,.cls-10,.cls-12,.cls-13,.cls-14,.cls-2,.cls-3,.cls-4,.cls-5,.cls-6,.cls-7,.cls-8,.cls-9{stroke:#9c4c9c;stroke-width:0.387px;}.cls-2,.cls-9{fill:none;}.cls-3{fill:#f7ea2f;}.cls-12,.cls-13,.cls-14,.cls-3,.cls-4,.cls-5,.cls-7{stroke-miterlimit:10;}.cls-4{fill:#ea2127;}.cls-5{fill:#c08866;}.cls-6{fill:#fde1d3;}.cls-7{fill:#045675;}.cls-8{fill:#998379;}.cls-9{stroke-linecap:round;}.cls-10,.cls-14{fill:#fff;}.cls-11{fill:#9c4c9c;}.cls-12{fill:#3a2416;}.cls-13{fill:#7c7b31;}.cls-15{fill:#4b7485;}</style></defs><path class="cls-1" d="M59.418,69.059S70.754,54.518,78.665,48.2s25.877-16.93,40.318-19.92,24.285-5.31,23.463-3.83a2.177,2.177,0,0,1-2.586.862s-17.219,2.182-26.134,5.855-20.415,7.953-28.74,14.16C65.265,60.027,61.14,69.457,61.14,69.457Z"/><path class="cls-2" d="M61.182,69.58a19.063,19.063,0,0,0,7.951-3.731c3.494-2.938,2.063-7.788,2.063-7.788s10.316-2.554,12.481-5.747a12.7,12.7,0,0,0,1.788-7.373s8.783-.528,12.625-3.346,4.325-6.04,4.325-6.04,2.954,1.637,10.141-.874,8.534-5.733,8.534-5.733,2.313.731,9.1-.466,8.219-3.221,8.219-3.221l1.93.034s.925-1.108-2.654,6.475-8.292,8.821-7.66,20.843S134.4,67.508,132.1,74.4s-4.31,13.5-4.31,13.5"/><path class="cls-3" d="M123.771,93.607s.8-3.07,3.538-2.49c2.514.532,1.739,3.583,1.739,3.583a7.082,7.082,0,0,1-3.828-.079C123.564,93.987,123.771,93.607,123.771,93.607Z"/><path class="cls-4" d="M126.452,92.23s0-6.521,1.377-5.8-.217,6.087-.217,6.087S127.539,93.534,126.452,92.23Z"/><ellipse class="cls-5" cx="70.873" cy="57.965" rx="0.682" ry="0.646"/><circle class="cls-5" cx="85.417" cy="44.893" r="0.575"/><circle class="cls-5" cx="102.691" cy="35.591" r="0.682"/><circle class="cls-5" cx="121.09" cy="28.852" r="0.67"/><circle class="cls-5" cx="138.663" cy="25.356" r="0.527"/><polygon class="cls-6" points="54.647 73.819 51.821 77.352 54.205 78.5 58.798 75.32 60.034 70.728 57.032 71.081 54.647 73.819"/><path class="cls-5" d="M40.163,76.645s2.649,7.331,4.151,6.8S51.821,76.2,51.821,76.2l3.621,2.914s-6.889,8.832-9.273,9.8-3.71,1.59-5.211-.883S40.163,76.645,40.163,76.645Z"/><path class="cls-5" d="M29.624,74.055s-3.474,2.237-3.769,4.18-.647,7.124.059,9.126,1.355,2.65.53,3.827-1,2.12-.647,2.65.117.53.058,1.766-.058,2.414-.058,2.885-2.12,1.178,2.472.824,15.485-4.592,15.485-4.592-1.118-9.656-1.236-11.364a48.85,48.85,0,0,0-2.178-8.125c-.413-.942-3.092-1.413-3.092-1.413Z"/><path class="cls-6" d="M30.389,72.641s1.59,4.711,3.592,5.476,2.708-.235,2.885-1.648.412-4.357.412-4.357Z"/><path class="cls-7" d="M26.68,97.429s-.038.087-.1.243c-.4,1.047-1.78,5.224.628,7.529,2.767,2.65,8.831,4,10.951,2.885S51,103.553,51.644,103.14s2-1.707,2-.471.177,6.595.177,7.419,1.589.294,2.885,1.119a10.042,10.042,0,0,0,2.3,1.118s1.531-5.063,2.12-6.947,2.767-6.712,2.06-8.361-8.125-2.591-9.656-2.3-12.246.176-12.246.176Z"/><path class="cls-7" d="M31.331,95.781s6.418-8.479,9.538-6.536,4.887,7.654,5.712,10.6,3.768,13.366,3.768,13.366,2.944,2.649,3,4.474-3.239,3.592-5.241,3.533-3.944-6.064-4.239-6.83-4.357-12.246-4.357-12.246-.824,6.476-4.18,6.241-7.654-.707-8.3-3.651S31.331,95.781,31.331,95.781Z"/><path class="cls-6" d="M44.017,54.747a5.858,5.858,0,0,1,1.013,3.81c-.04,2.606-.968,3.62-.553,4.93s.38,5.451-2.069,7.427A16.685,16.685,0,0,1,35.28,73.89c-1.234.2-3.707-.941-4.8-1.218s-4.308-1.471-5.7-4.2-3.145-7.362-3.1-9.346,3.58-6.752,6.2-7.725,11.26-2.362,13.433-.5A8.59,8.59,0,0,1,44.017,54.747Z"/><path class="cls-8" d="M26.4,53.542s2.947.506,4.463-.166,3.355-2.11,4.364-.892,1.693,2.01,2.95,2.188-.232.026-.69-1.27.427-.472,1.2.148a5.038,5.038,0,0,0,2.094,1.307,6.269,6.269,0,0,0,1.763.393L41.41,53.8s3.366,2.584,3.377,2.625a8.468,8.468,0,0,0,1.894.222c.97.029-.246-.019-.883-.97s-.614-.879,1.284-.8a6.482,6.482,0,0,0,3.581-1.132s-4.073.031-4.745-1.333l-.672-1.364s.806,1.33,1.8,1.447a4.137,4.137,0,0,0,1.77-.176,16.61,16.61,0,0,1-2.174-2.77,8.032,8.032,0,0,0-2.159-2.727,9.584,9.584,0,0,1,1.641.633c.1.161-1.867-1.955-3.368-2.3a7.045,7.045,0,0,0-2.591-.141l1.7-1.162s-2.619.829-4.242-.05-4.591-1-6.843-.525S25.766,46.4,25.766,46.4s-1.082.678-.958.159a5.031,5.031,0,0,0-.392-1.845s-.088,2.909-.559,3.395S22.4,49.434,22.4,49.434a5.547,5.547,0,0,0-.192-1.668c-.223-.554-.683,2.089-.672,2.278s-.053-.32-.683-.793S21,50.933,21,50.933a4.83,4.83,0,0,0-2.1.666c-.594.524-.98.838-.98.838l2.3-.777a6.73,6.73,0,0,0-2.406,1.962,12.162,12.162,0,0,0-1.086,1.88l2.451-1.362s-.682.274-1.064,2.557A4.588,4.588,0,0,0,19.3,61.09c.815.866-.124,3.84.3,4.7A10.868,10.868,0,0,0,22.161,68.1s1.524-3.988,2.1-3.689.559.4.5-.833a20.488,20.488,0,0,0-.144-3.8c-.265-.685.869,2.746.869,2.746a3.02,3.02,0,0,0,1.161-1.948,6.043,6.043,0,0,0-.328-3.162c-.267-.54.867,1.983.867,1.983a8.336,8.336,0,0,0,.346-3.087A10.531,10.531,0,0,0,26.4,53.542Z"/><path class="cls-9" d="M39.137,63.583a.622.622,0,0,0,.049-.775.925.925,0,0,0-.725-.368,1.845,1.845,0,0,0-.816.183.576.576,0,0,0-.228.149c-.122.146-.105.389-.26.5"/><path class="cls-6" d="M23.9,63.273s-.8-2.675-2.753-1.05a3.163,3.163,0,0,0-.39,4.542,7.647,7.647,0,0,0,2.186,1.806c.8.373,2.519.308,2.518-.364"/><path class="cls-10" d="M43.9,59.571s-1.385-2.031-2.433-.329c-.731,1.186-.494,2.962.7,3.528S44.609,62.04,43.9,59.571Z"/><path class="cls-11" d="M44.069,60.042s-.833-1.222-1.464-.2a1.515,1.515,0,0,0,.421,2.122C43.744,62.307,44.494,61.527,44.069,60.042Z"/><path class="cls-10" d="M34.316,59.2s-1.385-2.031-2.433-.329c-.731,1.185-.494,2.962.7,3.528S35.022,61.672,34.316,59.2Z"/><path class="cls-11" d="M34.482,59.674s-.833-1.221-1.464-.2a1.516,1.516,0,0,0,.421,2.122C34.157,61.939,34.907,61.16,34.482,59.674Z"/><path class="cls-9" d="M34.016,55.993a1.733,1.733,0,0,0-1.478-.25,2.646,2.646,0,0,0-1.278.841"/><path class="cls-9" d="M44.049,57.329a3.42,3.42,0,0,0-2.437-.823"/><path class="cls-9" d="M22.546,63.449a1.267,1.267,0,0,0-1,1.805.7.7,0,0,0,.452.411c.089.019.181.013.269.035.282.072.406.4.458.686a1.159,1.159,0,0,0,.333.782.809.809,0,0,0,.562.107.579.579,0,0,0,.324-.116.246.246,0,0,0,.061-.313"/><path class="cls-9" d="M32.644,64.966a7.148,7.148,0,0,0,3.721,2.546,4.754,4.754,0,0,0,4.305-.939"/><path class="cls-12" d="M37.69,99.078l24.2-34.444s.707-.707,2.473,0-.707,2.12-.707,2.12L39.515,102.14S35.806,103.258,37.69,99.078Z"/><path class="cls-6" d="M53.94,75.644V74c0-.707,2.12-3.592,2.591-3.827s2.65-1.531,2.532-.53-1.237,1.177-1.59,2.767,0,3.238-1.354,3.65A2.219,2.219,0,0,1,53.94,75.644Z"/><path class="cls-6" d="M61.6,70.463s-3-.471-3,.648S62.478,71.994,61.6,70.463Z"/><path class="cls-6" d="M61.241,71.935s-3-.471-3,.648S62.125,73.466,61.241,71.935Z"/><path class="cls-6" d="M60.888,73.054s-3-.471-3,.647S61.771,74.584,60.888,73.054Z"/><path class="cls-6" d="M60.314,74.509s-2.664-.394-2.664.542S61.1,75.791,60.314,74.509Z"/><path class="cls-6" d="M45.344,83.946l1.767-1.236s2.943-3.945,4.121-4.122,3.238-.412,3.592-.059,1.3.412,1.3.883a4.462,4.462,0,0,1-.118.943,2.323,2.323,0,0,1,.177.765,1.232,1.232,0,0,1-.353.706s.529.884.117,1.3l-.412.412s-.589,1.472-.883,2.061a.751.751,0,0,1-1.236.294.952.952,0,0,1-.118-.942,4.753,4.753,0,0,0-1.178.412,4.454,4.454,0,0,1-2.708.236c-1-.3-2.12-.648-2.12-.648l-1.825.883Z"/><path class="cls-2" d="M53.034,82.24a1.9,1.9,0,0,1,.9-.546,3.367,3.367,0,0,1,.913-.087,2.032,2.032,0,0,1,.528.052.736.736,0,0,1,.431.291"/><path class="cls-2" d="M56.013,80.629a.752.752,0,0,0-.472-.325,2.214,2.214,0,0,0-.586-.044l-.619.007a.7.7,0,0,0-.171.017.727.727,0,0,0-.221.126,4.847,4.847,0,0,1-.564.354"/><path class="cls-2" d="M55.7,78.832a2.177,2.177,0,0,0-2.139.587"/><path class="cls-2" d="M53.335,84.894c-.035-.169.078-.327.147-.485a1.02,1.02,0,0,0,.07-.58"/><path class="cls-5" d="M30.683,78.47s.236-3.944-2.355-3.944-3.12,4.121-2.06,8.478S32.1,91.9,34.216,91.188s3.974-1.5,6.918-2.443A15.808,15.808,0,0,0,46.7,85.654c0-.177-1.059-2.532-1.059-2.532s-4.416.176-5.888.765-4.3,1.3-5.123.412a22.889,22.889,0,0,1-2.355-4.121A6.478,6.478,0,0,0,30.683,78.47Z"/><path class="cls-3" d="M53.464,125.951c.758.092,1.506.266,2.268.318a10.251,10.251,0,0,0,4.335-.8,13.723,13.723,0,0,1,.031-2.058,5.883,5.883,0,0,1,.619-2.124,7.012,7.012,0,0,1-2.99-.4c-2.263-.723-2.745-3.42-4.575-3.034a2.642,2.642,0,0,0-2.167,2.167c-.1.337-1.445.289-1.83.337s-2.457-.1-2.457-.1.337,2.625.617,4.274c1.333.3,2.6.943,3.957,1.186C52,125.85,52.734,125.862,53.464,125.951Z"/><path class="cls-13" d="M60.067,125.466a10.251,10.251,0,0,1-4.335.8c-.762-.052-1.51-.226-2.268-.318-.73-.089-1.469-.1-2.192-.231-1.355-.243-2.624-.885-3.957-1.186.054.322.107.61.154.831.289,1.348,3.805,1.3,5.057,1.926a9.62,9.62,0,0,0,6.02.193c2.071-.626,6.646-2.6,6.646-3.612a2.747,2.747,0,0,0-.163-.895,12.662,12.662,0,0,1-2.541,1.44c-.791.367-1.6.736-2.421,1.049"/><path class="cls-14" d="M62.5,121.223c-.747-.018-1.284.03-1.778.061a5.883,5.883,0,0,0-.619,2.124,13.723,13.723,0,0,0-.031,2.058c.822-.313,1.63-.682,2.421-1.049a12.662,12.662,0,0,0,2.541-1.44A2.572,2.572,0,0,0,62.5,121.223Z"/><path class="cls-3" d="M57.165,116.249c.549.308,1.064.676,1.629.954a8.466,8.466,0,0,0,3.556.749,11.32,11.32,0,0,1,.669-1.56,4.835,4.835,0,0,1,1.139-1.424A5.782,5.782,0,0,1,62,113.726c-1.5-1.261-1.02-3.468-2.536-3.749a2.181,2.181,0,0,0-2.332.972c-.179.227-1.192-.233-1.5-.317s-1.842-.844-1.842-.844-.567,2.106-.872,3.451c.922.648,1.687,1.535,2.644,2.146C56.077,115.711,56.636,115.952,57.165,116.249Z"/><path class="cls-13" d="M62.35,117.952a8.466,8.466,0,0,1-3.556-.749c-.565-.278-1.08-.646-1.629-.954-.529-.3-1.088-.538-1.6-.864-.957-.611-1.722-1.5-2.644-2.146-.059.262-.11.5-.143.682-.2,1.118,2.492,2.185,3.25,3.055a7.932,7.932,0,0,0,4.528,2.036c1.775.173,5.882.1,6.2-.668a2.281,2.281,0,0,0,.157-.733,10.414,10.414,0,0,1-2.389.3c-.719.032-1.45.06-2.175.041"/><path class="cls-14" d="M65.532,115.479c-.564-.248-.988-.38-1.374-.511a4.835,4.835,0,0,0-1.139,1.424,11.32,11.32,0,0,0-.669,1.56c.725.019,1.456-.009,2.175-.041a10.414,10.414,0,0,0,2.389-.3A2.123,2.123,0,0,0,65.532,115.479Z"/><path class="cls-15" d="M123.726,92.434a16.379,16.379,0,0,0-2.958.344,2.96,2.96,0,0,0-1.293.548c-.35.291-.1.734.232,1.059a5.962,5.962,0,0,0,2.518,1.353,16.234,16.234,0,0,0,2.9.55,21.148,21.148,0,0,0,5.9-.1,3.553,3.553,0,0,0,1.33-.461c.076-.075.139-.123.148-.223l.027-.15-.028-.15a1.167,1.167,0,0,0-.38-.543,7.633,7.633,0,0,0-2.648-1.276,7.187,7.187,0,0,1,2.8,1.1,1.385,1.385,0,0,1,.487.647.766.766,0,0,1-.212.834,3.8,3.8,0,0,1-1.449.589,20.1,20.1,0,0,1-6.03.219,16.778,16.778,0,0,1-2.971-.61,5.928,5.928,0,0,1-2.659-1.52,1.775,1.775,0,0,1-.428-.7.786.786,0,0,1,.259-.831,3.128,3.128,0,0,1,1.454-.556A14.2,14.2,0,0,1,123.726,92.434Z"/></svg>