<svg id="word" xmlns="http://www.w3.org/2000/svg" xmlns:xlink="http://www.w3.org/1999/xlink" viewBox="0 0 160 160"><defs><style>.cls-1,.cls-6,.cls-9{fill:none;}.cls-2{clip-path:url(#clip-path);}.cls-3{fill:#e0903f;}.cls-10,.cls-3,.cls-4,.cls-5,.cls-6,.cls-8,.cls-9{stroke:#9d4b9c;stroke-miterlimit:10;}.cls-3,.cls-4,.cls-5,.cls-6,.cls-8{stroke-width:0.75px;}.cls-10,.cls-4{fill:#fdeae0;}.cls-5{fill:#f1e934;}.cls-6,.cls-9{stroke-linecap:round;}.cls-7{fill:#9d4b9c;}.cls-8{fill:#fff;}.cls-10,.cls-9{stroke-width:1.099px;}</style><clipPath id="clip-path"><rect class="cls-1" x="14.5" y="13.5" width="132" height="132"/></clipPath></defs><g class="cls-2"><path class="cls-3" d="M98.575,20.038a4.268,4.268,0,0,0-2.422-3.37,12.6,12.6,0,0,0-4.179-1.094c-5.009-.71-10.185-1.411-15.067-.082a33.923,33.923,0,0,0-5.635,2.25C63.056,21.661,54.907,26.385,49.36,33.6S41.378,51.046,45.4,59.21c1.144,2.322,2.786,5.034,1.474,7.265-.774,1.317-2.327,1.908-3.653,2.666a8.651,8.651,0,0,0-4.187,4.947A5.427,5.427,0,0,0,40.968,80c1.315.869,2.97.974,4.5,1.344s3.169,1.226,3.545,2.757c.456,1.858-1.141,3.533-1.726,5.355a5.412,5.412,0,0,0,2.969,6.42c2.252.936,4.805.207,7.244.185s5.386,1.332,5.355,3.771a16.471,16.471,0,0,0-.14,1.739c.126,1.338,3.849,4.092,5.062,3.514a25.131,25.131,0,0,0,19.561,5.923c12.179-1.367,17.8-2.278,17.8-2.278a12.649,12.649,0,0,0,4.725-3.774,3.438,3.438,0,0,0,5.106-3.666,11.892,11.892,0,0,0-1.546-3.047A3.129,3.129,0,0,1,113.25,95c.932-1.277,2.9-.907,4.4-1.419a3.8,3.8,0,0,0,1.222-6.116c-.691-.611-1.591-.938-2.3-1.523a4.173,4.173,0,0,1-.27-5.947c1.873-1.844,5.246-1.609,6.852-3.691a4.662,4.662,0,0,0,.6-4.047,11.775,11.775,0,0,0-2-3.71,14.933,14.933,0,0,0-2.516-2.832c-2.215-1.817-5.483-2.74-6.451-5.436-.729-2.03.214-4.288,1.48-6.033s2.884-3.267,3.784-5.227a12.3,12.3,0,0,0,.808-6.218c-.521-5.851-3.213-11.276-6.157-16.359a12.788,12.788,0,0,0-3.426-4.276c-2-1.4-8.251-1.975-10.689-2.123"/><path class="cls-4" d="M102.733,104.829c-1.147.007-3.271-.918-4.363-1.177a8.339,8.339,0,0,1-2.5-1.085,10.83,10.83,0,0,1-5.036-8.254c-.3-3.1.5-6.189,1.3-9.237L70.876,81.061c2.967,4.223,2.584,6.266,2.673,11.033.039,2.125-.589,6.473-2.374,8.128-1.394,1.293-1.238,2.675-3.421,2.986l-3.215,2.228s7.015,3.833,11.441,5.74c4.7,2.025,14.883.506,16.5,0S102.733,104.829,102.733,104.829Z"/><path class="cls-5" d="M98.292,183.577c2.605,9.769,6.543,25.232,6.543,25.232S75.774,211.3,63.218,206.74s-28.091-15.3-28.091-15.3,7.745-8.074,11.238-11.225,8.2-16.708,7.138-24.054S46,124.333,46,124.333s.061-16.062,4.466-17.277,17.306-3.533,17.306-3.533,1.715,6.55,13.617,7.291c14.435.9,19.345-6.887,19.345-6.887a34.865,34.865,0,0,1,12.15,6.015c5.467,4.4,7.9,11.542,7.9,11.542s-11.68,11.229-14.345,14.5-11.776,34.706-9.8,41.541c.326,1.13.636,2.266.945,3.4"/><path class="cls-4" d="M58.059,47.827s-2.582,21.11,8.96,30.374,18.377,9.7,26.426,6.37,13.516-20.494,13.972-25.809-1.063-21.11-3.341-24.3-11.846-5.7-17.314-3.839S58.059,47.827,58.059,47.827Z"/><path class="cls-6" d="M85.092,50.258s-1.063,5.036,1.063,8.213,4.4,3.025,3.493,5-3.493,2.278-3.493,2.278"/><path class="cls-3" d="M104,28.862a22.673,22.673,0,0,1-4.869,8.352c-3.352,3.332-8.112,4.734-12.661,6.017A19.249,19.249,0,0,0,94.2,32.944C91.436,39.486,84,43.111,76.9,43.27a7.564,7.564,0,0,0,5.084-4.413C81,41.316,78.322,42.571,75.879,43.6l-11.99,5.037c-3.135,1.317-6.5,2.838-8.114,5.83-1.151,2.134-1.2,4.668-1.229,7.093a12.361,12.361,0,0,1-5.32-7.391,29.793,29.793,0,0,1-.791-9.261,25.045,25.045,0,0,1,.689-5.716,28.536,28.536,0,0,1,3.8-7.593"/><path class="cls-7" d="M105.069,28.7A13.716,13.716,0,0,0,102.2,36.7a13.389,13.389,0,0,0,.534,4.282,16.434,16.434,0,0,0,1.834,3.953c1.517,2.511,3.461,4.945,4.294,7.939a8.832,8.832,0,0,1,.174,4.6,10.82,10.82,0,0,1-2.264,3.97,16.284,16.284,0,0,0-2.483,3.628,5.01,5.01,0,0,0-.389,2.085,5.624,5.624,0,0,0,.558,2.071c1.289,2.628,3.619,4.747,4.687,7.619a7.2,7.2,0,0,1,.275,4.474,4.873,4.873,0,0,1-1.137,1.958,10.891,10.891,0,0,1-1.752,1.417,8.138,8.138,0,0,0-3.154,3.067,5.4,5.4,0,0,0-.151,4.338,5.44,5.44,0,0,1,.088-4.368,8.249,8.249,0,0,1,3.138-3.15,10.76,10.76,0,0,0,1.706-1.421,4.684,4.684,0,0,0,1.064-1.9,6.962,6.962,0,0,0-.334-4.319c-1.079-2.785-3.4-4.818-4.8-7.539a6.063,6.063,0,0,1-.632-2.221,5.474,5.474,0,0,1,.389-2.292,16.646,16.646,0,0,1,2.5-3.788,10.278,10.278,0,0,0,2.1-3.78,8.2,8.2,0,0,0-.235-4.254c-.824-2.816-2.733-5.148-4.336-7.7a17.238,17.238,0,0,1-1.986-4.127,14.277,14.277,0,0,1-.641-4.566,14.742,14.742,0,0,1,2.968-8.645Z"/><ellipse class="cls-8" cx="73.658" cy="55.724" rx="3.979" ry="5.58"/><ellipse class="cls-7" cx="72.053" cy="54.579" rx="2.591" ry="3.348"/><ellipse class="cls-8" cx="96.694" cy="54.912" rx="3.979" ry="5.58"/><ellipse class="cls-7" cx="95.543" cy="53.766" rx="2.591" ry="3.348"/><path class="cls-6" d="M76.784,67.231a16.236,16.236,0,0,0,8.2,3.72c2.94.424,6.3-.151,8.127-2.492"/><path class="cls-9" d="M90.426,45.864c.553-1.074,2.058-1.065,3.167-1.545.387-.168.738-.407,1.111-.6a5.714,5.714,0,0,1,6.316.783"/><path class="cls-9" d="M77.988,45.921a13.206,13.206,0,0,0-6.57-.876"/><path class="cls-7" d="M60.265,45.147c-.3,2.812-1.953,5.022-3.133,7.232a16.415,16.415,0,0,0-2.038,7.182c-.013,1.233-.129,2.622.606,3.434a6.762,6.762,0,0,0,1.454,1.1,11.414,11.414,0,0,1,1.572,1.225,10.161,10.161,0,0,1,2.341,3.2,6.76,6.76,0,0,1,.6,3.93A7.756,7.756,0,0,1,59.923,76a25.8,25.8,0,0,0-2.282,3.075,4.146,4.146,0,0,0-.587,1.734,2.764,2.764,0,0,0,.476,1.718,6.16,6.16,0,0,0,3.038,2.121c1.19.431,2.487.638,3.7,1.095a5.216,5.216,0,0,1,3.04,2.334,4.683,4.683,0,0,1,.064,3.793A14.09,14.09,0,0,1,65.5,95.242a14.061,14.061,0,0,0,1.808-3.4,4.584,4.584,0,0,0-.12-3.707,5.053,5.053,0,0,0-2.988-2.2c-1.209-.43-2.483-.607-3.727-1.03a6.458,6.458,0,0,1-3.23-2.188,3.125,3.125,0,0,1-.568-1.931,4.53,4.53,0,0,1,.6-1.91,25.935,25.935,0,0,1,2.261-3.169,7.248,7.248,0,0,0,1.582-3.338c.352-2.472-1.034-4.9-2.861-6.543A10.616,10.616,0,0,0,56.768,64.7a7.3,7.3,0,0,1-1.633-1.2,3.366,3.366,0,0,1-.8-1.978,15.433,15.433,0,0,1-.064-1.988,17.318,17.318,0,0,1,2.012-7.6c1.2-2.3,2.69-4.468,2.888-6.882Z"/><path class="cls-10" d="M31.026,147.909s-2.978,20.047-1.565,25.97,33.913,11.846,36.192,12.909,9.567.607,11.238,2.582,7.59,2.232,11.39,1.974c5.974-.405,5.326-3.526,5.326-3.526s5.052-1.992,5.457-3.308c.189-.616-.456-1.367-.456-1.367s5.236-2.885,3.909-3.949-6.187,1.026-6.187,1.026l-5.771.949s10.479-4.4,10.631-4.86.759-2.886-1.215-2.43-12.453,3.8-12.909,3.8-3.341.3-3.341.3,3.645-2.734,4.1-3.8,1.974-2.886-.456-2.126S77.5,175.094,76.587,175.7s-4.556,2.734-4.556,2.734-12-4.4-13.364-5.315-12.15-5.771-12.909-6.986a16.356,16.356,0,0,1-1.367-3.493Z"/><path class="cls-5" d="M120.781,121.484s-.658,3.725,0,16.315-1.468,23.984,0,26.994,7.525,18.35,7.525,18.35a42.368,42.368,0,0,0-8.053,3.021c-4.645,2.241-6.132,5.263-6.132,5.263s-3.109-4.641-4.577-12.917-7.839-32.312-7.839-32.312a35.487,35.487,0,0,1,5.793-14.406C114.913,120.826,120.781,121.484,120.781,121.484Z"/><path class="cls-5" d="M50.466,107.056S46.137,111,41.56,122.749s-8.174,21.343-10.513,23.74-1.966,17.387-1.966,17.387,11.318,6.162,15.31-1.235,10.278-20.9,10.278-20.9,2.435-10.088,0-18.707C51.071,110.291,50.466,107.056,50.466,107.056Z"/></g></svg>