<svg id="word" xmlns="http://www.w3.org/2000/svg" viewBox="0 0 160 160"><defs><style>.cls-1{fill:#f58a1f;}.cls-2{fill:#dd651e;}.cls-3{fill:#f26e21;}.cls-4{fill:none;}.cls-4,.cls-5,.cls-6{stroke:#9d4b9c;stroke-miterlimit:10;}.cls-5{fill:#215a2d;}.cls-6{fill:#276030;}.cls-7{fill:#9d4b9c;}.cls-8{fill:#f16d22;}.cls-9{fill:#fcb74c;}.cls-10{opacity:0.34;}.cls-11{fill:#e2671f;}</style></defs><path class="cls-1" d="M105.091,63.785c5.189,2.882,9.8,14.033,9.8,20.952q0,.726-.035,1.383h-.092C106,98.862,96.443,103.89,81.164,106.3c-8.856,1.407-18.346.588-26.06-3.967A26.111,26.111,0,0,1,43.711,88.519c-.934-4.9-.392-10.3,3.148-14.356,5.385-6.147,9.8-10.182,13.653-11.14S73.38,58.6,76.079,57.638,87.99,58.792,87.99,58.792C92.983,61.294,99.9,60.9,105.091,63.785Z"/><path class="cls-2" d="M85.073,110.809c5.523-1.177,10.159-4.774,14.933-7.8,4.716-2.987,5.616-5.178,11-4.094-2.526,4.3-14.034,11.843-17.251,12.915-3.459,1.153-19.222,2.306-28.447-.381a28.087,28.087,0,0,1-4.717-1.856l.127-.265c6.584.323,8.187,1.522,14.772,1.845A36.515,36.515,0,0,0,85.073,110.809Z"/><path class="cls-3" d="M114.858,86.12c-.277,5.87-2.352,8.118-3.425,11.878a3.423,3.423,0,0,1-.426.922c-5.385-1.084-6.285,1.107-11,4.094-4.774,3.021-9.41,6.618-14.933,7.8a36.515,36.515,0,0,1-9.582.369c-6.585-.323-8.188-1.522-14.772-1.845l-.127.265A33.84,33.84,0,0,1,46.1,95.5a25.585,25.585,0,0,1-2.387-6.976A26.111,26.111,0,0,0,55.1,102.333c7.714,4.555,17.2,5.374,26.06,3.967,15.279-2.41,24.838-7.438,33.6-20.18Z"/><path class="cls-4" d="M114.858,86.12q.034-.657.035-1.383c0-6.919-4.613-18.07-9.8-20.952s-12.108-2.491-17.1-4.993c0,0-9.225-2.111-11.911-1.154s-11.727,4.417-15.567,5.385-8.268,4.993-13.653,11.14c-3.54,4.059-4.082,9.455-3.148,14.356A25.585,25.585,0,0,0,46.1,95.5a33.84,33.84,0,0,0,14.494,14.1,28.087,28.087,0,0,0,4.717,1.856c9.225,2.687,24.988,1.534,28.447.381,3.217-1.072,14.725-8.614,17.251-12.915a3.423,3.423,0,0,0,.426-.922C112.506,94.238,114.581,91.99,114.858,86.12Z"/><path class="cls-5" d="M79.92,61.1l2.69.193s1.73-5,2.883-8.072,5.574-7.88,5.574-7.88L89.913,44.19A10.479,10.479,0,0,0,85.685,49C84.532,52.07,79.92,61.1,79.92,61.1Z"/><path class="cls-6" d="M74.731,50.148S62.046,46.881,55.7,46.881,43.6,53.223,41.1,54.76A79.7,79.7,0,0,1,33.026,58.6a84.859,84.859,0,0,0,14.607,1.153,41.729,41.729,0,0,0,19.795-5A66.8,66.8,0,0,0,74.731,50.148Z"/><path class="cls-7" d="M68.212,64.231s.335-.189.931-.5c.3-.159.665-.329,1.1-.519a14.437,14.437,0,0,1,1.466-.6c.541-.211,1.14-.4,1.781-.581.637-.2,1.325-.342,2.035-.5.717-.12,1.455-.278,2.218-.342.758-.1,1.535-.128,2.31-.18.777,0,1.554-.014,2.318.04.765.017,1.511.132,2.233.208.719.113,1.415.217,2.062.375.651.141,1.26.294,1.813.473a14.03,14.03,0,0,1,1.5.51c.441.162.822.311,1.128.453.616.274.96.443.96.443s-.377-.086-1.023-.259-1.578-.383-2.7-.589c-.557-.115-1.167-.2-1.809-.3s-1.327-.148-2.028-.235c-.706-.048-1.434-.1-2.176-.118-.741-.042-1.494-.01-2.247-.006-.751.04-1.5.054-2.242.14-.74.058-1.463.158-2.165.248-.694.129-1.377.21-2.01.356s-1.24.256-1.789.4c-1.106.273-2.018.53-2.655.751S68.212,64.231,68.212,64.231Z"/><path class="cls-7" d="M75.818,58.837s.24.083.649.248,1,.4,1.679.711c1.375.614,3.166,1.508,4.92,2.472s3.462,2.009,4.714,2.846c.63.412,1.133.793,1.5,1.042s.555.418.555.418-.24-.082-.649-.247-.995-.4-1.679-.71c-1.375-.614-3.166-1.509-4.919-2.474s-3.461-2.01-4.714-2.847c-.629-.412-1.133-.793-1.5-1.042S75.818,58.837,75.818,58.837Z"/><path class="cls-8" d="M70.695,79.48s-1.3.216-.649.937S71.56,79.985,70.695,79.48Z"/><path class="cls-8" d="M68.389,80.922s-1.874-.072-.865.648S69.253,81.426,68.389,80.922Z"/><path class="cls-8" d="M69.614,82.219s-1.874.648-.649,1.153S70.767,82.363,69.614,82.219Z"/><path class="cls-8" d="M67.668,77.967s-2.6-.144-1.586.5S68.821,78.832,67.668,77.967Z"/><path class="cls-8" d="M66.01,82.8s-1.8.433-.937.721S67.452,83.876,66.01,82.8Z"/><path class="cls-8" d="M69.326,84.813s-1.658-.216-.793.433S70.839,86.111,69.326,84.813Z"/><path class="cls-8" d="M59.02,85.318s-1.37.576-.577.865S60.749,86.687,59.02,85.318Z"/><path class="cls-9" d="M100.787,73.53s-11.066,2.659-13.335,12.3c-.812,3.449,1.015,5.688,7.51,4.971S107,75.55,100.787,73.53Z"/><path class="cls-8" d="M63.584,75.54s-1.3.217-.649.937S64.449,76.045,63.584,75.54Z"/><path class="cls-8" d="M61.278,76.982s-1.874-.072-.865.648S62.143,77.486,61.278,76.982Z"/><path class="cls-8" d="M62.5,78.279s-1.874.649-.649,1.153S63.656,78.423,62.5,78.279Z"/><path class="cls-8" d="M60.557,74.027s-2.594-.144-1.586.5S61.71,74.892,60.557,74.027Z"/><path class="cls-8" d="M58.9,78.856s-1.8.432-.936.72S60.341,79.937,58.9,78.856Z"/><path class="cls-8" d="M62.215,80.874s-1.658-.217-.793.432S63.728,82.171,62.215,80.874Z"/><path class="cls-8" d="M51.909,81.378s-1.37.577-.577.865S53.638,82.747,51.909,81.378Z"/><path class="cls-8" d="M62.037,92.489s1.292.249.934-.653S61.4,91.716,62.037,92.489Z"/><path class="cls-8" d="M64.7,91.94s1.732.719,1.036-.307S64.065,91.166,64.7,91.94Z"/><path class="cls-8" d="M64,90.3s1.983.043,1.01-.856S62.972,89.761,64,90.3Z"/><path class="cls-8" d="M64.349,94.961s2.382,1.038,1.662.078S63.569,93.749,64.349,94.961Z"/><path class="cls-8" d="M67.582,91.01s1.84.222,1.129-.35S66.607,89.5,67.582,91.01Z"/><path class="cls-8" d="M65.176,87.965s1.479.78.894-.129S64.208,86.223,65.176,87.965Z"/><path class="cls-8" d="M75.014,91.077s1.484-.065.841-.611S73.869,89.191,75.014,91.077Z"/><g class="cls-10"><path class="cls-8" d="M94.91,79.48s-1.3.216-.648.937S95.775,79.985,94.91,79.48Z"/><path class="cls-8" d="M92.6,80.922s-1.874-.072-.865.648S93.469,81.426,92.6,80.922Z"/><path class="cls-8" d="M93.829,82.219s-1.874.648-.648,1.153S94.982,82.363,93.829,82.219Z"/><path class="cls-8" d="M91.883,77.967s-2.594-.144-1.585.5S93.036,78.832,91.883,77.967Z"/><path class="cls-8" d="M90.226,82.8s-1.8.433-.937.721S91.667,83.876,90.226,82.8Z"/><path class="cls-8" d="M93.541,84.813s-1.658-.216-.793.433S95.054,86.111,93.541,84.813Z"/><path class="cls-8" d="M83.235,85.318s-1.369.576-.577.865S84.965,86.687,83.235,85.318Z"/></g><path class="cls-4" d="M74.247,49.957a68.8,68.8,0,0,0,11.033-.723"/><path class="cls-11" d="M92.213,94.85s-1.3.216-.648.937S93.078,95.355,92.213,94.85Z"/><path class="cls-11" d="M89.907,96.292s-1.874-.072-.865.648S90.772,96.8,89.907,96.292Z"/><path class="cls-11" d="M91.132,97.589s-1.874.648-.648,1.153S92.285,97.733,91.132,97.589Z"/><path class="cls-11" d="M89.186,93.337s-2.594-.144-1.585.5S90.339,94.2,89.186,93.337Z"/><path class="cls-11" d="M87.529,98.165s-1.8.433-.937.721S88.97,99.246,87.529,98.165Z"/><path class="cls-11" d="M90.844,100.183s-1.658-.216-.793.433S92.357,101.481,90.844,100.183Z"/><path class="cls-11" d="M80.538,100.688s-1.369.576-.577.865S82.268,102.057,80.538,100.688Z"/><path class="cls-11" d="M85.1,90.91s-1.3.217-.648.937S85.967,91.415,85.1,90.91Z"/><path class="cls-11" d="M82.8,92.352s-1.874-.072-.865.648S83.661,92.856,82.8,92.352Z"/><path class="cls-11" d="M84.021,93.649s-1.874.649-.648,1.153S85.174,93.793,84.021,93.649Z"/><path class="cls-11" d="M82.075,89.4s-2.594-.144-1.585.5S83.228,90.262,82.075,89.4Z"/><path class="cls-11" d="M80.418,94.226s-1.8.432-.937.72S81.859,95.307,80.418,94.226Z"/><path class="cls-11" d="M83.733,96.244s-1.658-.217-.793.432S85.246,97.541,83.733,96.244Z"/><path class="cls-11" d="M73.427,96.748s-1.369.577-.577.865S75.157,98.117,73.427,96.748Z"/><path class="cls-11" d="M83.556,107.859s1.291.249.934-.653S82.92,107.085,83.556,107.859Z"/><path class="cls-11" d="M86.219,107.31s1.732.719,1.037-.307S85.584,106.536,86.219,107.31Z"/><path class="cls-11" d="M85.522,105.668s1.982.043,1.009-.856S84.491,105.131,85.522,105.668Z"/><path class="cls-11" d="M85.867,110.331s2.383,1.038,1.662.078S85.087,109.119,85.867,110.331Z"/><path class="cls-11" d="M89.1,106.38s1.839.222,1.129-.35S88.125,104.865,89.1,106.38Z"/><path class="cls-11" d="M86.694,103.335s1.479.78.894-.129S85.727,101.593,86.694,103.335Z"/><path class="cls-11" d="M96.532,106.447s1.485-.065.842-.611S95.387,104.561,96.532,106.447Z"/></svg>