<svg id="word" xmlns="http://www.w3.org/2000/svg" viewBox="0 0 160 160"><defs><style>.cls-1{fill:#4b6931;}.cls-2{fill:#fff;}.cls-2,.cls-3{stroke:#9d4b9c;stroke-miterlimit:10;stroke-width:0.5px;}.cls-3{fill:#fdc455;}.cls-4{fill:#fff46b;}</style></defs><path class="cls-1" d="M70.616,116.056s.785-6.434-1.137-9.112S65.366,97.9,65.529,95.65s-.922-4.1-.478-6.41-.5-6.713-.786-8.414.786-5.975.786-5.975.429,4.267,1.65,6.485a5.154,5.154,0,0,1,.407,4.189s1.091-1.946,1.188-.676.682,5.564.682,5.564l.97-1.173s.011,2.268.455,7.153.754,9.9.955,11.131-.552,9.17-.552,9.17Z"/><path class="cls-1" d="M72.136,129.222s2.676-10.908,3.368-14.385,3.319-6.174,3.091-7.052.669,1.6.669,1.6,3.236-7.373,5.157-9.595a36.564,36.564,0,0,1,6.3-4.994s5.959-6.813,6.991-7.753,6.673-4.829,6.887-5.357-3.291,5.3-3.291,5.3a28.4,28.4,0,0,1-1.276,4.373c-.481.793-5.23,7.573-5.23,7.573l-1.6,2.238,1.6-.487s-3.782,6.439-4.917,8.7a40.451,40.451,0,0,1-3.576,5.464c-.592.808-8.759,8.371-10.478,11.05s-3.967,7.317-3.967,7.317A5.689,5.689,0,0,1,72.136,129.222Z"/><path class="cls-1" d="M71.617,146.22c-.09-.337-2.165-8.285-1.04-11.316.667-1.795.54-9.081.438-14.934-.06-3.427-.111-6.385-.018-8.055.252-4.451.947-15.906,1.175-17.842C72.39,92.236,73.38,75.3,73.39,75.126l1.69.055c-.04.7-1,17.141-1.222,19.005-.221,1.89-.926,13.487-1.168,17.783-.093,1.634-.038,4.719.018,7.984.109,6.244.23,13.322-.5,15.295-.843,2.274.486,8.512,1.07,10.723Z"/><path class="cls-2" d="M75.685,34.5s-3.449-13.244-3.549-14.02-2.717-7.247-3.6-3.83,1.742,16.181,1.742,16.181l.68,2.087Z"/><path class="cls-2" d="M69.925,35.94S65.438,23.79,64.689,22.8s-3.5-4.3-4.983-2.594-.379,4.79,1.909,7.955,7.178,8.723,7.178,8.723Z"/><path class="cls-2" d="M77.069,34.652s.782-8.405,1.066-9.756,3.021-5.263,3.857-2.1-1.706,12.827-1.706,12.827Z"/><path class="cls-2" d="M81.51,35.625s4.494-6.937,7.643-8.1S94.236,24.85,95,26.189s-3.177,4.751-5.045,6.03a31.631,31.631,0,0,0-4.426,4.236Z"/><path class="cls-2" d="M86.6,37.192s11.431-8.762,16.1-8.771,9.616.03,9.68,2.214-2.173,4.945-6.9,4.9-15.515,2.883-15.515,2.883Z"/><path class="cls-2" d="M68.039,37.7s-7.378-11.254-8.333-12.03S51.7,20.215,51.6,23.6c-.092,3.23,8.263,9.3,9.9,11.057s6.174,4.206,6.174,4.206Z"/><path class="cls-2" d="M68.793,37.825s-6.708-3.156-9.988-3.615S49.969,31.9,47.024,32.736,43.29,34.346,45.5,36.7s5.257,3.621,11.162,4.07a35.951,35.951,0,0,0,10.669-.8l1.972.036Z"/><path class="cls-2" d="M68.533,40.863S48.872,44.492,47.756,44.9s-7.658,1.436-5.525,4.33,19.552-.307,22.751-2.155,6.484-3.91,6.484-3.91Z"/><path class="cls-2" d="M66.089,53.193s-4.159,14.079-3.2,15.784,4.315-1.654,6.093-6.154,4.669-18.11,4.669-18.11Z"/><path class="cls-2" d="M72.662,42.72S57.669,52.188,56.171,54.077s-7.42,8.452-4.743,10.5S66.4,55.41,66.4,55.41l9.281-10.7Z"/><path class="cls-2" d="M75.294,46.188s-6.925,21-6.2,23.915,2.657,5.557,5.136,5.06,4.9-11.9,4.755-13.95,0-14.2,0-14.2Z"/><path class="cls-2" d="M79.615,47.589s-2.33,16.87-1.549,19.378.673,5.712,2.22,4.75,3.537-10.282,3.466-12.234-1.591-11.894-1.591-11.894Z"/><path class="cls-2" d="M82.161,47.589s-1.528,15.2-.962,18.6,3.7,6.9,6.815,5.451c1.318-.615.309-8.52.556-9.989S84.992,49.36,84.992,49.36Z"/><path class="cls-2" d="M91.5,39.187s13.409-.716,17.632,0,11.217,2.8,11.233,4.479-5.646,1.767-11.091,1.3-15.961-3.245-15.961-3.245Z"/><path class="cls-2" d="M92.125,44.509s17.945,2.9,20.133,4.725,3.433,3.945,1.781,4.742-4.12,1.576-8.1-.427-14.8-7.994-14.8-7.994Z"/><path class="cls-2" d="M88.24,47.305,92.4,45.3s9.815,4.561,12.313,6.213,8.522,6.671,8.655,8.68.8,2.889-1.111,3.243-9.6-1.343-11.512-3.243S88.24,47.305,88.24,47.305Z"/><path class="cls-2" d="M85.531,48.5l2.709-1.2s6.666,6.622,7.67,8.661,5.806,5.412,7.056,8.254,2.436,6.6,0,6.5-8.02-4.125-9.26-5.888S85.531,48.5,85.531,48.5Z"/><path class="cls-2" d="M84.25,48.882s1.121,8.914,2.63,11.4,4.036,6.454,4.906,7.653,1.706-.427,1.92-3.106-6.475-14.677-6.475-14.677l-.815-2.368Z"/><path class="cls-3" d="M80.805,33.481a55.659,55.659,0,0,0-5.732.05,12.312,12.312,0,0,0-6.28,3.351c-1.689,1.842.09,4.634,3.225,7.186a19.3,19.3,0,0,0,8.812,4.073c9.645,2.254,10.807-1.878,11.88-2.93s1.93-2.773.621-4.412-1.975-1.7-5.026-3.917A29.98,29.98,0,0,0,80.805,33.481Z"/><path class="cls-4" d="M85.956,39.736S79,36.183,75.294,38.7c-1.366.928-.188,2.625,3.175,3.9s6.846,1.768,8.411.913S91.075,40.305,85.956,39.736Z"/></svg>