<svg id="word" xmlns="http://www.w3.org/2000/svg" viewBox="0 0 160 160"><defs><style>.cls-1{fill:#e6752a;}.cls-1,.cls-2,.cls-3,.cls-4,.cls-5{stroke:#9d4b9c;stroke-miterlimit:10;}.cls-2{fill:#ebb06e;}.cls-3{fill:#fff;}.cls-4{fill:#231f20;}.cls-5{fill:none;stroke-width:1.5px;}</style></defs><path class="cls-1" d="M68.3,66.385s1.527-2.443-7.33-4.887-17.256-8.093-17.866-5.344,5.039,15.27,6.108,18.019,10.078,9.009,10.078,9.009Z"/><path class="cls-2" d="M67.435,67.3s-7.329,8.552-7.635,11-4.428-2.6-6.566-5.956S45.141,61.651,50.027,61.8,67.435,67.3,67.435,67.3Z"/><path class="cls-1" d="M100.168,66.792s-1.527-2.443,7.33-4.886,17.256-8.094,17.867-5.345-5.04,15.27-6.109,18.019-10.078,9.01-10.078,9.01Z"/><path class="cls-2" d="M101.034,67.708s7.33,8.552,7.635,11,4.428-2.6,6.566-5.955,8.094-10.69,3.207-10.537S101.034,67.708,101.034,67.708Z"/><path class="cls-1" d="M87.036,60.989S74.514,62.975,70.849,64.5,60.924,75.954,58.328,80.841,54.51,89.85,53.136,91.988a19.271,19.271,0,0,1-4.581,4.276l4.581-.458a6.1,6.1,0,0,1-1.069,3.97c-1.375,2.138-8.552,6.261-8.552,6.261l9.468-.611-10.842,4.429s10.689-.611,19.393,1.374,6.414.764,15.118,2.6,21.379,1.832,24.127.458a37.872,37.872,0,0,1,14.813-3.054,46.9,46.9,0,0,0,12.216-1.985l-10.689-2.291,7.482-1.374a12.145,12.145,0,0,1-10.078-5.243c-3.818-5.6-2.444-20.411-7.025-27.283S101.7,61.906,87.036,60.989Z"/><path class="cls-1" d="M80.012,99.013s-4.887,13.132-5.956,17.866.764,8.552,3.665,10.384,6.872-1.527,6.872-1.527a2.047,2.047,0,0,0,2.748,1.68,8.537,8.537,0,0,0,6.108-10.384c-1.374-6.719-6.26-18.325-6.26-18.325"/><path class="cls-3" d="M75.43,94.737S76.583,85.626,69,87s-9.858,12.827-9.858,12.827,13.9,3.512,15.672,2.291S75.43,94.737,75.43,94.737Z"/><path class="cls-4" d="M83.066,125.278s-7.941-2.749-5.345-6.261,9.926-4.123,11.6-1.833S87.647,126.958,83.066,125.278Z"/><path class="cls-3" d="M110.656,95.7s-2.379,0-1.378,2.634,3.506,1.369,3.131.948A34.489,34.489,0,0,1,110.656,95.7Z"/><path class="cls-3" d="M91.691,92.345s-1.77-7.33,5.814-5.956,9.858,12.827,9.858,12.827-13.9,3.513-15.672,2.291S91.691,92.345,91.691,92.345Z"/><path class="cls-3" d="M55.413,90.258s2.267,0,1.313,3.011-3.341,1.566-2.983,1.084A43.217,43.217,0,0,0,55.413,90.258Z"/><path class="cls-5" d="M108.749,98.1c13.007-2.3,22.846-11.06,25.813-23.488a21.9,21.9,0,0,0-.729-13.723,22.171,22.171,0,0,0-9.625-10.065A49.489,49.489,0,0,0,110.712,46a117.433,117.433,0,0,0-44.175-1.551,65.564,65.564,0,0,0-19.164,5.626C41.414,53.044,36.087,57.433,32.858,63.1s-4.182,12.678-1.786,18.718A17.922,17.922,0,0,0,46.146,93.034c2.881.172,7.266-.3,10.151-.37"/></svg>