<svg id="word" xmlns="http://www.w3.org/2000/svg" viewBox="0 0 160 160"><defs><style>.cls-1{fill:#6f7073;}.cls-1,.cls-2,.cls-3,.cls-4,.cls-5,.cls-6{stroke:#9d4b9c;stroke-miterlimit:10;}.cls-2,.cls-5,.cls-6{fill:none;}.cls-2{stroke-width:2px;}.cls-3{fill:#c683b8;}.cls-4{fill:#00536f;}.cls-6{stroke-linecap:round;}</style></defs><path class="cls-1" d="M55.263,100.177s-.254-5.7-1.987-4.851-.1,5.105-.1,5.105Z"/><path class="cls-1" d="M49.866,101.744s.424-5.417-1.4-4.831-.438,4.965-.438,4.965Z"/><path class="cls-2" d="M53.471,106.959c-.2,2.277,5.7,4.454,7.936,4.936s4.552.025,6.837.027,4.829.647,6.019,2.6c1.326,2.177.381,5.111-1.323,7.007s-4.025,3.1-6.041,4.663-3.843,3.757-3.824,6.306a6.508,6.508,0,0,0,2.7,4.95,11.909,11.909,0,0,0,5.386,2.092,21.138,21.138,0,0,0,20.737-9.4"/><path class="cls-3" d="M56.617,97.829s3.374,4.9.874,8.115-5.557,3.369-8.023,2.124-3.66-7.557-3.66-7.557Z"/><path class="cls-4" d="M103.827,87.224a19.1,19.1,0,0,0-2.1,1.688c-1.112,1.03-5.258,4.755-3.7,5.8a10.268,10.268,0,0,0,3.02,1.393l5.142-8.472A1.867,1.867,0,0,0,103.827,87.224Z"/><path class="cls-3" d="M105.568,72.966s2.825,2.662,2.138,8.435-11.613,19.066-12.755,26.851-1.683,10.519-1.683,10.519.139,3.891,5.493,2.678,16.026-9.5,20.638-20.747A98.109,98.109,0,0,0,125.34,77.56Z"/><path class="cls-3" d="M94.031,117.786s-5.724,12.276-4.978,13.958,4.489,3.161,4.489,3.161-2.015-1.876,2.7-6.74,6.171-7.358,5.033-7.924S94.031,117.786,94.031,117.786Z"/><path class="cls-5" d="M30.187,32.238a3.807,3.807,0,0,1,6.554-2.1c1.167,1.248,1.45,3.22,2.835,4.221,1.735,1.254,4.142.332,6.062-.615s4.334-1.861,6.061-.6c1.917,1.4,1.53,4.436,2.879,6.392a4.081,4.081,0,0,0,7.085-.653"/><path class="cls-5" d="M24.879,38.53c.106-2.191,2.833-3.435,4.964-2.913s3.763,2.175,5.372,3.666,3.5,2.962,5.7,2.961c2.7,0,5.249-2.254,7.846-1.511,1.715.491,2.792,2.127,3.875,3.546s2.618,2.843,4.386,2.6"/><path class="cls-3" d="M81.542,41.907l22.287,4.807s4.391-1.8,16.528.031,18.364,10.28,20.61,18.168-4.37,11.749-9.329,13.268-22.545-2.642-27.447-4.862S98.52,69.243,91.978,66.7s-17.131-6.173-17.131-6.173,6.136-3.445,7-9.24A22.332,22.332,0,0,0,81.542,41.907Z"/><path class="cls-1" d="M76.943,37.872l-6.962-4.445a69.049,69.049,0,0,0-6.446,11.912c-3.1,8.025,3.12,17.827,3.12,17.827l11.317-3.215s6.725-4.409,6.516-10.245-.781-7.541-.781-7.541Z"/><path class="cls-5" d="M102.352,67.387c-1.9-2.41-3.864-4.959-4.376-7.985s1-6.631,3.981-7.353a9.273,9.273,0,0,1,4.64.488l7.748,2.189c6.758,1.91,13.325,5.3,14.315,13.083.647,5.092-1.135,8.027-6.808,9.117"/><path class="cls-6" d="M131.689,60.241a16.256,16.256,0,0,1,9.527,5.6"/><path class="cls-6" d="M130.785,62.65a43.88,43.88,0,0,0,10.26,6.437"/><path class="cls-6" d="M131.228,66.116A2.71,2.71,0,0,0,132.4,67.8a22.71,22.71,0,0,0,7.862,4.166"/><path class="cls-6" d="M130.664,70.286a9.821,9.821,0,0,0,7.443,4.668"/><path class="cls-6" d="M129.734,73.309a9.894,9.894,0,0,0,5,3.922"/></svg>