<svg id="word" xmlns="http://www.w3.org/2000/svg" viewBox="0 0 160 160"><defs><style>.cls-1{fill:#54c5d4;}.cls-2,.cls-9{fill:#fff;}.cls-3,.cls-8{fill:#434345;}.cls-3,.cls-4,.cls-5,.cls-6,.cls-7,.cls-9{stroke:#9d4b9c;stroke-miterlimit:10;stroke-width:0.59px;}.cls-4{fill:#f7ac9d;}.cls-5{fill:#fff0de;}.cls-6{fill:#8d8573;}.cls-7{fill:#c3996b;}.cls-10{fill:#9c4a9b;}.cls-11{fill:#9d4b9c;}</style></defs><path class="cls-1" d="M40.862,67.148S60.746,88.281,51,101.292s-25.214,6.195-28.858,2.4S19.7,88.661,28.459,83.865,46.591,77.066,40.862,67.148Z"/><path class="cls-2" d="M33.72,88.785l-1.274,1.72q-.882,1.236-1.361,1.235a.484.484,0,0,1-.394-.255,3.487,3.487,0,0,1-.351-.773q-.18-.521-.253-.788a3.88,3.88,0,0,0-.222-.7l-.195.994q-.091.481-.187.885c-.064.269-.133.593-.208.97s-.121.661-.139.853c-.006.063-.066.132-.182.206a.568.568,0,0,1-.266.111.467.467,0,0,1-.342-.17.5.5,0,0,1-.159-.327,3.715,3.715,0,0,1,.153-.933q.631-2.317.721-2.917a6.971,6.971,0,0,0,.09-1,.349.349,0,0,1,.18-.317.88.88,0,0,1,.469-.112.422.422,0,0,1,.314.207,1.184,1.184,0,0,1,.207.383l0-.008.531,1.487q.317.891.424,1.131A19.438,19.438,0,0,0,32.5,89.11Q33.306,88,33.6,87.687c.2-.211.339-.317.42-.317a.763.763,0,0,1,.417.156c.153.105.229.2.229.269q0,.084-.148,1.15-.1.753-.188,1.686t-.084,1.1a1.818,1.818,0,0,0,.053.425,1.407,1.407,0,0,1,.039.317.759.759,0,0,1-.132.516.541.541,0,0,1-.408.138q-.5,0-.5-.753a14.133,14.133,0,0,1,.13-1.738q.131-1.028.237-1.577C33.7,88.928,33.712,88.836,33.72,88.785Z"/><path class="cls-2" d="M37.914,93.25a2.383,2.383,0,0,1-.955-.256,1.744,1.744,0,0,1-.854-.87A3.028,3.028,0,0,1,35.81,90.8a5.733,5.733,0,0,1,.107-.959l.123-.708c.018-.119.037-.237.057-.352.031-.175.058-.345.081-.508a1.587,1.587,0,0,1,.187-.633.455.455,0,0,1,.413-.212c.091,0,.186.073.281.216a.69.69,0,0,1,.143.331q0,.081-.183.841-.047.19-.159.935a8.325,8.325,0,0,0-.113,1.007,1.626,1.626,0,0,0,.426,1.315,1.26,1.26,0,0,0,.721.341A1.748,1.748,0,0,0,39.236,92a2.421,2.421,0,0,0,.474-1.355c.013-.115.028-.223.046-.326q.037-.39.065-.745a5.664,5.664,0,0,1,.266-1.69.54.54,0,0,1,.495-.34q.4,0,.4.516a7.872,7.872,0,0,1-.148,1.139,8.8,8.8,0,0,0-.119.983,5.018,5.018,0,0,1-.318,1.7,2.307,2.307,0,0,1-.9.956A2.875,2.875,0,0,1,37.914,93.25ZM40.2,86.105a.282.282,0,0,1-.046.156.4.4,0,0,1-.126.124.667.667,0,0,1-.191.082.886.886,0,0,1-.242.031h-.738c-.038,0-.08,0-.127.006a.824.824,0,0,0-.194.048,1.455,1.455,0,0,1-.215.053,1.128,1.128,0,0,1-.159.016A.4.4,0,0,1,38,86.586a.439.439,0,0,1-.131-.089.384.384,0,0,1-.086-.129.361.361,0,0,1-.031-.145.272.272,0,0,1,.1-.23.67.67,0,0,1,.274-.114,1.921,1.921,0,0,1,.192-.046c.066-.013.138-.023.218-.031s.167-.013.266-.017.209-.007.334-.009l.271-.006c.067,0,.114,0,.142-.006s.048-.009.066-.011l.06-.008a.445.445,0,0,1,.065,0h.08a.379.379,0,0,1,.281.1A.355.355,0,0,1,40.2,86.105Z"/><path class="cls-2" d="M42.047,92.9a.523.523,0,0,1-.338-.09c-.073-.06-.109-.217-.109-.473a2.217,2.217,0,0,1,.018-.326c.013-.075.075-.135.186-.178a1.362,1.362,0,0,1,.48-.065.52.52,0,0,1,.355.108.32.32,0,0,1,.123.239.672.672,0,0,1-.067.33,1.128,1.128,0,0,1-.291.284A.666.666,0,0,1,42.047,92.9Z"/><path class="cls-2" d="M44,92.9a.528.528,0,0,1-.339-.09c-.072-.06-.108-.217-.108-.473a2.217,2.217,0,0,1,.018-.326c.013-.075.075-.135.186-.178a1.362,1.362,0,0,1,.48-.065.52.52,0,0,1,.355.108.32.32,0,0,1,.123.239.672.672,0,0,1-.067.33,1.145,1.145,0,0,1-.291.284A.669.669,0,0,1,44,92.9Z"/><path class="cls-2" d="M45.946,92.9a.527.527,0,0,1-.338-.09c-.072-.06-.109-.217-.109-.473a2.19,2.19,0,0,1,.019-.326c.013-.075.075-.135.186-.178a1.362,1.362,0,0,1,.48-.065.52.52,0,0,1,.355.108.32.32,0,0,1,.123.239.672.672,0,0,1-.067.33,1.145,1.145,0,0,1-.291.284A.668.668,0,0,1,45.946,92.9Z"/><path class="cls-2" d="M33.72,98.18,32.446,99.9q-.882,1.235-1.361,1.235a.484.484,0,0,1-.394-.255,3.477,3.477,0,0,1-.351-.774q-.18-.52-.253-.787a3.88,3.88,0,0,0-.222-.7l-.195.994q-.091.481-.187.885c-.064.269-.133.593-.208.97s-.121.661-.139.852c-.006.064-.066.133-.182.207a.564.564,0,0,1-.266.11.467.467,0,0,1-.342-.17.492.492,0,0,1-.159-.326,3.715,3.715,0,0,1,.153-.933q.631-2.318.721-2.917a6.983,6.983,0,0,0,.09-1,.35.35,0,0,1,.18-.317.889.889,0,0,1,.469-.111.422.422,0,0,1,.314.207,1.19,1.19,0,0,1,.207.382l0-.008.531,1.488q.317.891.424,1.131A19.315,19.315,0,0,0,32.5,98.505q.81-1.1,1.109-1.422c.2-.211.339-.317.42-.317a.763.763,0,0,1,.417.156c.153.105.229.194.229.268q0,.084-.148,1.151-.1.753-.188,1.686t-.084,1.1a1.818,1.818,0,0,0,.053.425,1.4,1.4,0,0,1,.039.316.762.762,0,0,1-.132.517.545.545,0,0,1-.408.138q-.5,0-.5-.754a14.118,14.118,0,0,1,.13-1.737q.131-1.028.237-1.577C33.7,98.323,33.712,98.231,33.72,98.18Z"/><path class="cls-2" d="M37.914,102.646a2.4,2.4,0,0,1-.955-.256,1.744,1.744,0,0,1-.854-.87,3.028,3.028,0,0,1-.295-1.325,5.754,5.754,0,0,1,.107-.96l.123-.707c.018-.119.037-.237.057-.352.031-.175.058-.345.081-.508a1.582,1.582,0,0,1,.187-.633.455.455,0,0,1,.413-.212c.091,0,.186.072.281.216a.69.69,0,0,1,.143.331q0,.081-.183.841-.047.191-.159.935a8.3,8.3,0,0,0-.113,1.007,1.626,1.626,0,0,0,.426,1.315,1.26,1.26,0,0,0,.721.341,1.752,1.752,0,0,0,1.342-.415,2.422,2.422,0,0,0,.474-1.356c.013-.114.028-.222.046-.325q.037-.39.065-.745a5.664,5.664,0,0,1,.266-1.69.539.539,0,0,1,.495-.34q.4,0,.4.516a7.872,7.872,0,0,1-.148,1.139,8.8,8.8,0,0,0-.119.983,5.018,5.018,0,0,1-.318,1.7,2.307,2.307,0,0,1-.9.956A2.875,2.875,0,0,1,37.914,102.646ZM40.2,95.5a.282.282,0,0,1-.046.156.414.414,0,0,1-.126.124.667.667,0,0,1-.191.082.886.886,0,0,1-.242.031h-.738c-.038,0-.08,0-.127.006a.824.824,0,0,0-.194.048,1.455,1.455,0,0,1-.215.053,1.128,1.128,0,0,1-.159.016A.417.417,0,0,1,38,95.982a.424.424,0,0,1-.131-.09.37.37,0,0,1-.086-.128.362.362,0,0,1-.031-.146.27.27,0,0,1,.1-.229.67.67,0,0,1,.274-.114,1.921,1.921,0,0,1,.192-.046,2.04,2.04,0,0,1,.218-.031c.079-.007.167-.014.266-.017s.209-.007.334-.01l.271-.005.142-.006c.025,0,.048-.009.066-.011l.06-.009c.02,0,.042,0,.065,0h.08a.379.379,0,0,1,.281.1A.353.353,0,0,1,40.2,95.5Z"/><path class="cls-2" d="M42.047,102.291a.523.523,0,0,1-.338-.091c-.073-.059-.109-.217-.109-.472a2.242,2.242,0,0,1,.018-.327c.013-.074.075-.134.186-.178a1.385,1.385,0,0,1,.48-.065.52.52,0,0,1,.355.109.319.319,0,0,1,.123.239.665.665,0,0,1-.067.329,1.112,1.112,0,0,1-.291.285A.666.666,0,0,1,42.047,102.291Z"/><path class="cls-2" d="M44,102.291a.528.528,0,0,1-.339-.091c-.072-.059-.108-.217-.108-.472a2.242,2.242,0,0,1,.018-.327c.013-.074.075-.134.186-.178a1.385,1.385,0,0,1,.48-.065.52.52,0,0,1,.355.109.319.319,0,0,1,.123.239.665.665,0,0,1-.067.329,1.128,1.128,0,0,1-.291.285A.669.669,0,0,1,44,102.291Z"/><path class="cls-2" d="M45.946,102.291a.527.527,0,0,1-.338-.091c-.072-.059-.109-.217-.109-.472a2.215,2.215,0,0,1,.019-.327c.013-.074.075-.134.186-.178a1.385,1.385,0,0,1,.48-.065.52.52,0,0,1,.355.109.319.319,0,0,1,.123.239.665.665,0,0,1-.067.329,1.128,1.128,0,0,1-.291.285A.668.668,0,0,1,45.946,102.291Z"/><path class="cls-3" d="M144.183,85.839c-.925.714-4.392,3.529-5.345,4.2a9.171,9.171,0,0,1-1.53.762,2.432,2.432,0,0,1-.6.069c.186-.223.267-.343.369-.439.42-.4.846-.786,1.269-1.179a5.943,5.943,0,0,0,1.473-2.381,4.07,4.07,0,0,0-.443-3.8,8.835,8.835,0,0,1-1.067-1.884,4.488,4.488,0,0,1-.141-2.519c.095-.43.208-.858.328-1.282a1.752,1.752,0,0,1,.944-1.171c.331-.162.615-.426.939-.607a1.58,1.58,0,0,1,1.939.241,9.661,9.661,0,0,1,2.461,2.852c.134.278.219.583.326.876C146.565,80.93,145.523,84.219,144.183,85.839Z"/><path class="cls-4" d="M109.744,90.11s-1.1,2.57-.605,3.323,2.454.862,2.454.862l1.028-3.8Z"/><path class="cls-4" d="M115.349,92.4s-1.515,4.31,0,4.916a1.4,1.4,0,0,0,2.063-.793c.024-.188.743-4.233.743-4.233Z"/><path class="cls-5" d="M133.242,94.3s.246,5.7,1.636,7.256c2.2,2.455,2.864,2.228,1.856,4.14a27.6,27.6,0,0,0-1.773,4.879l-5.625-1.463,1.234-10.484Z"/><path class="cls-6" d="M130.135,108.313a11.907,11.907,0,0,1,3.514.339c1.4.455,1.909.616,1.909.616l-2.209,4.819s-1.811,1.222-3.057,1.017a2.929,2.929,0,0,1-1.852-1.089Z"/><path class="cls-5" d="M37.983,41.951s-11.84,4.586-9.725,6.661,2.863,1.778,4.172,1.163,8.062-3.361,8.062-3.361l1.372-4.659Z"/><path class="cls-7" d="M42.589,40.307a6.95,6.95,0,0,1-3.155-3.713c-.739-2.453.367-6.912-.855-6.1C36.906,31.6,36.6,34.126,37.061,37.02s1.9,6,2.825,5.651A11.992,11.992,0,0,0,42.589,40.307Z"/><path class="cls-5" d="M63.812,83.545s1.492,18.839,1.577,21.863a19.909,19.909,0,0,1-1.913,8.223c-.781,1.5-2.951,5.684-2.951,5.684a35.119,35.119,0,0,1,4.649.26c.831.249,1.439.415,1.659.511s2.233-4.137,2.233-4.137.823,1.157.115-1.817-.439-6.821.288-8.158,1.055-7.349,1.353-8.387S72.165,92.2,72.165,92.2Z"/><path class="cls-4" d="M107.988,89.066a36.3,36.3,0,0,0,3.255,2.7,7.045,7.045,0,0,0,5.4,1.668c2.978-.182,8.55-4.216,8.671-4.367s-4.058-7.7-4.058-7.7l-1.491-1.186-3.166,1.924-9.09,6.306Z"/><path class="cls-4" d="M111.922,90.011s-2.173,4.408-.994,5.583,2.4.3,2.268,0,1.844-5.01,1.844-5.01S113.191,89.41,111.922,90.011Z"/><path class="cls-4" d="M118.155,91.115s.176,5.646,1.757,5.682,1.1-3.782,1.1-3.782l-.439-2.905A2.714,2.714,0,0,0,118.155,91.115Z"/><path class="cls-5" d="M44.609,61.555s2.271,1.758,3.276,2.682,2.518.33,3.429,1.714,2.361,4.154,2.952,4.93-.349.865,1.7,1.44,2.749,3.027,3.4,4.145,3.067,7.865,5.012,10.487,6.445,6.075,8.175,6.517,6,2.079,6,2.079l4.585,5.871s5.913,9.623,6.466,11.487.874,3.337,0,4.47-4.329,4.632-4.329,4.632l5.419.689,1.15.516a8.458,8.458,0,0,1,2.516-4.447c2-1.672,2.554-3.83,1.272-4.752s-2.971-2.492-2.44-3.707-1.83-7.187-2.429-9.719A72.121,72.121,0,0,1,89.756,92.8s8.293.479,14.967-2.715a150.281,150.281,0,0,0,14.894-8.65,24.087,24.087,0,0,0,3.279,7.173c2.077,2.66,4.633,4.393,4.984,5.943s-2.023,8.666-1.814,11.328.058,4.059-.755,5.089-3.156,4.388-3.156,4.388l-1.076,1.737s3.751.943,4.232.943,2.569-.314,2.569-.314,1.174-3.022,1.637-3.77.542-.248.68-2.229.148-4.734.326-5.663a77.28,77.28,0,0,1,3.515-10.03A58.385,58.385,0,0,0,136.72,88.3c.7-2.127-1.825-2.553-2.153-5.259s1.192-11.714,1.985-14.515c.609-2.146,1.879-14.935.777-18.217S132.61,41,127.519,40.271,108.6,42.777,103.962,44.06s-18.05,4.1-23.091,4.354S67.8,48.2,67.8,48.2L56.365,46.9s-1.7,6.42-1.974,7.729-1.09,3.759-2.635,4.136S44.609,61.555,44.609,61.555Z"/><path class="cls-6" d="M85.9,121a12.426,12.426,0,0,1,3.63.391c2.009.514,2.632.71,2.632.71s-.5,4.247-1.42,4.855a9.2,9.2,0,0,1-4.842.834,11.341,11.341,0,0,1-3.209-1.706S84.747,121.9,85.9,121Z"/><path class="cls-6" d="M121.416,116.146s-3.135,5.547-2.851,6.111,1.271,1.014,2.851.836,5.41-.3,6.036-1.754a24.623,24.623,0,0,0,.988-4.979,20.814,20.814,0,0,0-3.98-.868A6.727,6.727,0,0,0,121.416,116.146Z"/><path class="cls-6" d="M60.777,118.791a9.665,9.665,0,0,1,4.306-.468,9.32,9.32,0,0,1,2.525.549l-.509,5.845a14.243,14.243,0,0,1-4.078,1.33c-2.165.314-4.352-1.623-4.352-1.623S59.311,119.731,60.777,118.791Z"/><path class="cls-8" d="M114.364,41.922a1.775,1.775,0,0,1,.061.3,18.542,18.542,0,0,0,.567,3.491c.291,1.411.546,2.831.786,4.253a2.8,2.8,0,0,1-.233,1.646c-.242.524-.508,1.036-.772,1.548a3.057,3.057,0,0,0-.387,1.493,2.087,2.087,0,0,0,.58,1.463c.522.537,1.046,1.072,1.56,1.617a1.138,1.138,0,0,1,.235,1.52A16.156,16.156,0,0,1,115,62.005a58.768,58.768,0,0,1-4.046,4.874,6.286,6.286,0,0,0-1.569,4.918.845.845,0,0,0,.039.236,7.747,7.747,0,0,1,.283,3.331c-.115,1.6-.647,2.251-2.288,2.886a13.4,13.4,0,0,1-2.2.54,2.328,2.328,0,0,1-1.975-.442,6.871,6.871,0,0,0-1.24-.762,6.039,6.039,0,0,1-2.3-2.384,8.406,8.406,0,0,1-1.166-2.861A6.216,6.216,0,0,0,97.444,70.1a3.561,3.561,0,0,0-1.993-1.262,15.721,15.721,0,0,0-1.816-.389,2.27,2.27,0,0,1-1.425-.838c-.3-.369-.631-.706-.942-1.063a3.038,3.038,0,0,1-.776-2.017,13.615,13.615,0,0,1,.466-3.681,11.433,11.433,0,0,0,.223-4.653A9.7,9.7,0,0,0,90.1,53.359a19.42,19.42,0,0,0-2.224-3.137c-.3-.39-.615-.774-.889-1.184-.319-.476-.211-1.1.321-1.187,1.774-.288,9.632-1.7,11.9-2.309,1.141-.3,8.365-2.091,9.653-2.436,1.7-.455,3.428-.8,5.145-1.181A1.767,1.767,0,0,1,114.364,41.922Z"/><path class="cls-8" d="M60.169,49.72a7.573,7.573,0,0,1,1.7.5,19.625,19.625,0,0,0,2.723.34c.638.03,2.6-1.361,3.289-2.074.547.086,1.729-.067,2.395.028.476.069,4.051.173,4.644.239,2.225.086,5.922-.031,6.748-.126.783-.089.6.192.983.915a3.829,3.829,0,0,1,.19,2.408c-.094.734-.251,1.46-.344,2.194a4.826,4.826,0,0,1-.728,1.88c-.387.647-.743,1.313-1.108,1.973a3.118,3.118,0,0,0-.346,1.8c.049.6.088,1.2.158,1.8a1.861,1.861,0,0,1-.353,1.292,8.457,8.457,0,0,1-3.2,2.794,6.608,6.608,0,0,0-2.75,2.674,3.544,3.544,0,0,0,.137,4.322c.506.8,1.028,1.6,1.54,2.4a3.356,3.356,0,0,1,.105,3.273,1.364,1.364,0,0,1-1.31.855,7.723,7.723,0,0,1-3.572-.573,2.56,2.56,0,0,1-1.318-1.664,7.641,7.641,0,0,1-.346-2.61,4.164,4.164,0,0,0-1.556-3.51,8.032,8.032,0,0,0-2.469-1.646c-.593-.235-1.217-.383-1.823-.585a7.043,7.043,0,0,1-2.117-1.091,2.164,2.164,0,0,1-.876-1.749,15.56,15.56,0,0,1,.187-2.388,18.292,18.292,0,0,1,.972-3.141c.3-.91.6-1.824.829-2.754a5.379,5.379,0,0,0-.156-3.073,16.435,16.435,0,0,0-2.077-4.347A2.825,2.825,0,0,1,60.169,49.72Z"/><path class="cls-8" d="M135.633,71.286c-.249-.532-.588-1.52-.86-1.943a8.327,8.327,0,0,1-1.2-3.723,10.247,10.247,0,0,1,.039-1.793,3.166,3.166,0,0,0-.169-1.822,2.34,2.34,0,0,0-1.479-1.254c-.429-.118-.86-.224-1.291-.333a1.709,1.709,0,0,1-1.379-1.754,6.534,6.534,0,0,1,.344-2.544c.142-.395.274-.794.386-1.2a3.2,3.2,0,0,0-.1-2.233c-.189-.418-.37-.84-.574-1.249a3.686,3.686,0,0,0-.984-1.167,13.47,13.47,0,0,0-2.592-1.571c-.709-.365-1.4-.773-2.079-1.192a3.178,3.178,0,0,1-1.12-1.2c-.476-.872-.961-1.74-1.419-2.622a2.844,2.844,0,0,1,.416-2.824.971.971,0,0,1,.5-.257c5.21-.65,7.21.394,8.125.768a20.1,20.1,0,0,1,4.945,4.989,17.232,17.232,0,0,1,1.795,3.823c.975,1.927.5,9.023.141,12.165a29.893,29.893,0,0,1-.671,4.943c-.206.686-.156.7-.321,1.4A16.18,16.18,0,0,1,135.633,71.286Z"/><path class="cls-8" d="M87.1,72.922a9.24,9.24,0,0,1-.553,2.941,18.058,18.058,0,0,0-.669,3.1c-.142,1.092-.33,2.178-.507,3.264a9.51,9.51,0,0,0,.34,3.922,14.473,14.473,0,0,1,.312,2.133,21.448,21.448,0,0,0,.325,2.188,4.958,4.958,0,0,1,.007,2.548c-.138.447-.287.523-.687.321a3.872,3.872,0,0,1-.76-.539,5.629,5.629,0,0,1-1.376-1.675c-.687-1.321-1.421-2.618-2.191-3.889A5.938,5.938,0,0,1,80.63,83.3a7.831,7.831,0,0,1,.832-2.854,24.547,24.547,0,0,0,1.2-2.664,5.954,5.954,0,0,0,.474-2.576c-.055-.88-.107-1.764-.082-2.644A5.337,5.337,0,0,1,84.4,69.438a.642.642,0,0,1,.45-.19c1.025-.024,1.443.3,1.8,1.327a11.924,11.924,0,0,1,.392,1.508A5.686,5.686,0,0,1,87.1,72.922Z"/><path class="cls-8" d="M122.766,73.474c.057-.517.115-1.033.17-1.549.032-.3.052-.6.091-.9a10.343,10.343,0,0,0-.451-3.129c-.067-.394-.186-.778-.243-1.173a32.188,32.188,0,0,0-.985-3.39c-.33-1.281-.782-2.515-1.192-3.766a12.381,12.381,0,0,1-.378-1.879,4.194,4.194,0,0,1,.287-1.885c.327-1.091.693-2.169,1.056-3.248a2.539,2.539,0,0,1,.314-.64.646.646,0,0,1,1.084-.045,2.881,2.881,0,0,0,1.026.842,1.527,1.527,0,0,1,.695.768,4.1,4.1,0,0,1,.26,2.407,22.116,22.116,0,0,0-.466,2.72,7.057,7.057,0,0,0,.146,2.028,12.209,12.209,0,0,0,1.989,4.634c.716.993,1.485,1.954,2.113,3.005a12.011,12.011,0,0,1,1.627,3.036,3.821,3.821,0,0,1,.158.881c.019,1.123-.007,2.246.013,3.368.027,1.443.089,2.885.121,4.328a5.643,5.643,0,0,1-.068,1.192,1.122,1.122,0,0,1-1.1.98,2.6,2.6,0,0,1-2.234-.708,8.98,8.98,0,0,1-1.877-2.623c-.383-.785-.772-1.574-1.229-2.314A6,6,0,0,1,122.766,73.474Z"/><path class="cls-8" d="M94.451,76.86a11.178,11.178,0,0,1,.012-1.2.983.983,0,0,1,.275-.614.525.525,0,0,1,.692.121,14.81,14.81,0,0,1,1.147,1.421,2.016,2.016,0,0,1,.227.734c.074.35.11.708.18,1.059a3.868,3.868,0,0,0,2.279,2.757,7.4,7.4,0,0,1,1.669,1.172,3.1,3.1,0,0,1,.825,2.243c0,.1,0,.2-.009.3-.037.806-.038.792-.813.847-.612.043-1.22.128-1.83.195a1.8,1.8,0,0,1-1.545-.46,9.093,9.093,0,0,1-2.5-3.482,8.25,8.25,0,0,1-.472-1.916c-.124-1.051-.152-2.114-.22-3.172Z"/><path class="cls-5" d="M55.745,42.63s-4.9-5.771-9.2-4.179-6.408,4.088-6.677,4.88.229,2.787-.954,4.036-5.322,7.371-5.322,7.371-2.892,1.539-2.039,4.288,3.1,2.862,5.313,3.052c3.084.263,4.632,2.449,4.508,1.576s4.774-1.049,5.424-1.33,5.491-.247,7.608-4.935,1.64-7.509,2.2-7.9,5.1.707,5.879,1.112,5.094-.585,5.63-3.23-1.636-5.494-4.3-4.737a43.08,43.08,0,0,1-7.791.9Z"/><path class="cls-7" d="M50.339,40.271s.311,2.344,1.855,2.364a11.534,11.534,0,0,0,3.225-.536,12.16,12.16,0,0,0,.468-6.015c-.655-2.967-.207-5.179-1.439-5.6s-.727,4.51-1.536,6.076S51.018,38.909,50.339,40.271Z"/><path class="cls-4" d="M37.29,54.624s-4.9.822-6.6,2.236-1.817,5.077.357,6.548,4.6-1.685,6.73.289,4.966.979,6.427-.064,1.688-5,.494-6.347S39.245,54.671,37.29,54.624Z"/><path class="cls-9" d="M49.139,48.1s-.145-1.167-.719-1.4c-1.2-.478-2.51,1.094-2.33,2.723s.884,2.248,1.47,1.928A3.249,3.249,0,0,0,49.139,48.1Z"/><path class="cls-9" d="M41.273,47.31s-.7-1.906-1.91-1.134S37.547,48.7,38.1,49.468a1.566,1.566,0,0,0,2.132.2C40.759,49.3,41.273,47.31,41.273,47.31Z"/><path class="cls-10" d="M33.569,57.943a3.931,3.931,0,0,0-1.582-.211c-.234.074-.285.131-.356.39-.079.279-.237.581-.279.762-.1.2.454.783.762,1.08a1.36,1.36,0,0,0,1.455.206,1.307,1.307,0,0,1-.8.392,1.572,1.572,0,0,1-.915-.224,3.187,3.187,0,0,1-.7-.585,2.073,2.073,0,0,1-.292-.391.854.854,0,0,1-.094-.606c.11-.363.238-.556.327-.816a1.179,1.179,0,0,1,.3-.465.86.86,0,0,1,.526-.19A2.607,2.607,0,0,1,33.569,57.943Z"/><path class="cls-10" d="M40.656,58.827a.413.413,0,0,0-.335-.593,2.4,2.4,0,0,0-.836-.014c-.263.063-.4.158-.459.379a3.22,3.22,0,0,0-.09.809,1.442,1.442,0,0,0,.657,1.328,1.136,1.136,0,0,0,.743.212.489.489,0,0,0,.471-.549.609.609,0,0,1-.4.83,1.48,1.48,0,0,1-1.031-.1,1.779,1.779,0,0,1-1.027-1.716,3.31,3.31,0,0,1,.156-1.008.987.987,0,0,1,.939-.639,2.6,2.6,0,0,1,.982.2C40.758,58.1,40.953,58.617,40.656,58.827Z"/><path class="cls-8" d="M48.2,38.441a15.912,15.912,0,0,0-2.077.427c-.658.225-3.245,1.349-3.492,1.528A7.826,7.826,0,0,0,41.5,41.527a2.1,2.1,0,0,0,.317,2.3,4.8,4.8,0,0,1,1.394,2.932c0,.99.756.371,1.273-.909s.279-1.913,2.11-3.145,1.278-1.532,2.38-2.08a2.688,2.688,0,0,0,1.369-1.581A3.869,3.869,0,0,0,48.2,38.441Z"/><path class="cls-11" d="M32.74,62.338a11.323,11.323,0,0,1,3.229-.584,5.5,5.5,0,0,1,1.676.237c.545.18,1,.442,1.5.62a3.753,3.753,0,0,0,2.923-.251A4.327,4.327,0,0,0,44.039,60a3.881,3.881,0,0,1-5.083,3.175c-.521-.2-1.01-.475-1.488-.651a6.268,6.268,0,0,0-1.515-.314A21.252,21.252,0,0,0,32.74,62.338Z"/><path class="cls-11" d="M47.914,48.852s.358-.226-.314-.658-1.585.629-1.471,1.566.558,1.293.929,1.109A1.707,1.707,0,0,0,47.914,48.852Z"/><path class="cls-11" d="M39.859,47.685s.358-.226-.313-.658-1.585.629-1.471,1.566.558,1.293.928,1.109A1.707,1.707,0,0,0,39.859,47.685Z"/><path class="cls-11" d="M85.222,127.658a20.25,20.25,0,0,1,.854-3.2,16.3,16.3,0,0,1,1.354-2.989,16.188,16.188,0,0,0-1.072,3.074,19.884,19.884,0,0,0-.55,3.184Z"/><path class="cls-11" d="M61.965,126.222a5.423,5.423,0,0,0,.482-1.83c.08-.644.076-1.322.2-1.988a17.631,17.631,0,0,1,.45-1.951,7.413,7.413,0,0,1,.753-1.843,7.32,7.32,0,0,0-.633,1.874,17.541,17.541,0,0,0-.325,1.952c-.083.649-.013,1.3-.034,1.984a5.889,5.889,0,0,1-.349,2.042Z"/><path class="cls-11" d="M122.38,123.154a4.152,4.152,0,0,1,.236-1.989c.183-.613.4-1.208.63-1.8.463-1.176.979-2.325,1.5-3.469-.437,1.18-.864,2.365-1.235,3.563-.185.6-.353,1.2-.485,1.807A3.639,3.639,0,0,0,122.95,123Z"/><path class="cls-11" d="M57.745,45.5a13.186,13.186,0,0,0,3.232-.007c.529-.113,1.058-.2,1.585-.291a8.539,8.539,0,0,1,1.688-.23,1.526,1.526,0,0,1,.882,2.8,2.216,2.216,0,0,1-1.711.324A4.746,4.746,0,0,1,61.9,47.42a5.621,5.621,0,0,0,1.557.4,1.865,1.865,0,0,0,1.39-.393,1.193,1.193,0,0,0,.374-1.2,1.063,1.063,0,0,0-1.014-.655,8.845,8.845,0,0,0-1.548.19c-.551.065-1.1.145-1.65.193A8.712,8.712,0,0,1,57.745,45.5Z"/><path class="cls-3" d="M132,42.452s4.356-2.447,6.313.294,5.334,9.1,3.768,15.562.241,17.539.241,17.539l-.828-.264a69.731,69.731,0,0,1-1.615-13.458c0-6.46,2.741-9.788-.391-13.507s-1.811-4.7-3.328-5.236a3.1,3.1,0,0,0-3.132.342Z"/></svg>