<svg id="word" xmlns="http://www.w3.org/2000/svg" viewBox="0 0 160 160"><defs><style>.cls-1,.cls-4{fill:#fad7c6;}.cls-1,.cls-3,.cls-6,.cls-7{stroke:#9c4c9c;stroke-miterlimit:10;stroke-width:0.75px;}.cls-2{fill:#00a59b;}.cls-3{fill:#d4ac81;}.cls-5{fill:#9c4c9c;}.cls-6{fill:#fff;}.cls-7{fill:none;}</style></defs><path class="cls-1" d="M84.348,104.518,81.48,118.561s-1.87,5.829-7.87,4.489-5.189-7.509-4.849-8.569.6-15.707.6-15.707Z"/><path class="cls-2" d="M84.828,110.872s8.185,1.673,10.6,3.28c4.862,3.23,8.446,9.912,8.944,10.908s5.648,7.964,5.648,7.964-7.391,1.992-9.88,3.734a19.692,19.692,0,0,1-4.922,2.489s.442-1.494-6.527,0-13.726,4.729-19.806,2.987S63.057,139,56.337,138s-15.26.474-15.26.474-1.3-8.21,2.685-14.93,4.7-11.575,10.086-14.416c2.372-1.25,15.04-1.1,15.04-1.1s-.172,4.891,5.868,5.331C83.286,113.984,84.828,110.872,84.828,110.872Z"/><path class="cls-1" d="M108.689,50.137s3.655,5.731,1.823,11.807.2,14.325.654,17.276,3.807,13.309-7.411,20.582-16.775,7.08-21.809,7.1-15.653-5.138-20.178-9.98S55.116,84.84,55.116,84.84s-3.339-18.357,2.312-29.053S70.172,37.2,75.847,34.809s21.5-4.327,25.774.553S108.689,50.137,108.689,50.137Z"/><path class="cls-3" d="M78.971,37.1s6.548,0,8.083,5.048,2.454,7.3,2.454,7.3,1.572-4.971,1.2-6.5a11.332,11.332,0,0,0-2.319-4.029s6.534,2.013,6.026,6.877a32.691,32.691,0,0,0-.09,7.569s3.1.528,5.655-4.148a18.8,18.8,0,0,0,2.436-8.687s3.582,8.514,5.838,14.965-.221,10.607.443,14.287c.332,1.84,2.466,9.441,2.466,9.441s6.28-5,7.09-11.169a42,42,0,0,0-.348-12.035l3.749,4.71A43.167,43.167,0,0,0,119.568,47.2,46.331,46.331,0,0,0,115.3,37.53l3.1-1.487s1.816-7.08-12.085-9.214S91.036,23.9,91.036,23.9l11.125-2.977S80.4,20.254,76.729,22.584s-2.662-3.87-2.662-3.87l-2.085,7.374L68.458,19.58l.8,5.166A22.412,22.412,0,0,0,59.171,26.3c-5.96,2.18-9.1,7.953-9.1,7.953l8.344-3.052s-7.624,4.452-11.614,9.6-7.465,15.256-7.465,15.256L46.3,52.218s-2,9.879-1.62,12.339,1.48,6.319,1.48,6.319l6.6-1.271s6.975,5.975,7.033,7.981,3.5,1.474,3.5,1.474a142.732,142.732,0,0,0,2.222-18.225c.392-8.875,7.257-14.973,8.731-18.474a23.952,23.952,0,0,1,3.49-5.828Z"/><path class="cls-1" d="M55.4,72.015s-1.864-5.552-6.726-2.787-3.876,5.888-2.852,9.256,3.438,7.91,5.342,8.493c2.857.874,6.243-1.972,6.243-1.972"/><path class="cls-4" d="M93.355,83.694c-1.18-2.481-7.2-3.21-8.629-.585"/><path class="cls-5" d="M93.355,83.694A5.021,5.021,0,0,0,91.3,82.58a11.5,11.5,0,0,0-2.227-.422,9.824,9.824,0,0,0-2.243.045,3.992,3.992,0,0,0-2.106.906,2.808,2.808,0,0,1,1.807-1.914,5.7,5.7,0,0,1,2.662-.379,6.107,6.107,0,0,1,2.543.813A3.123,3.123,0,0,1,93.355,83.694Z"/><path class="cls-4" d="M98.678,88.4c-4.517,1.045-6.267,4.023-13.418,3.491-.617-.046-10.223-4.034-12.583-6.916"/><path class="cls-5" d="M98.678,88.4c-2.28.764-4.12,2.236-6.415,3.171a13.747,13.747,0,0,1-3.582.929,15.616,15.616,0,0,1-1.844.1c-.309.014-.613-.007-.919-.017l-.458-.018-.23-.009a2.878,2.878,0,0,1-.353-.072,42.7,42.7,0,0,1-6.569-3.066,18.185,18.185,0,0,1-5.631-4.448,14.18,14.18,0,0,0,2.949,1.943c1.037.559,2.1,1.068,3.164,1.571,1.077.481,2.143.98,3.232,1.43,1.068.456,2.2.941,3.226,1.276.03,0,.032.018.081.028l.216.011.431.025c.288.014.577.04.863.031.576.013,1.146-.019,1.715-.055a15.034,15.034,0,0,0,3.351-.648c1.1-.342,2.174-.822,3.292-1.261A14.384,14.384,0,0,1,98.678,88.4Z"/><path class="cls-4" d="M105.364,62.377l-2.981-2.695a9.074,9.074,0,0,0-2.3-1.676,3.073,3.073,0,0,0-2.75,0"/><path class="cls-5" d="M105.364,62.377a11.805,11.805,0,0,1-2.155-1.242,22.954,22.954,0,0,1-1.9-1.5,8.959,8.959,0,0,0-1.782-1.277,3.552,3.552,0,0,0-2.2-.351,2.624,2.624,0,0,1,2.518-.649,5.343,5.343,0,0,1,2.334,1.253,17.645,17.645,0,0,1,1.723,1.749A11.811,11.811,0,0,1,105.364,62.377Z"/><path class="cls-4" d="M80.844,54.224a20.241,20.241,0,0,0-10.79,6.666"/><path class="cls-5" d="M80.844,54.224c-1.963,1.012-3.811,1.925-5.577,3.039-1.784,1.083-3.427,2.326-5.213,3.627a12.728,12.728,0,0,1,10.79-6.666Z"/><path class="cls-6" d="M73.43,64.757s4.018-1.666,5.307.748,4.007,6.175-1.156,9.324S68.332,69.221,73.43,64.757Z"/><ellipse class="cls-5" cx="78.002" cy="69.459" rx="2.536" ry="2.817" transform="translate(-9.689 12.721) rotate(-8.78)"/><path class="cls-6" d="M100.064,64.188s4.018-1.666,5.307.748,4.007,6.175-1.156,9.324S94.966,68.652,100.064,64.188Z"/><ellipse class="cls-5" cx="104.286" cy="68.8" rx="2.765" ry="2.817" transform="translate(-9.28 16.725) rotate(-8.78)"/><path class="cls-7" d="M41.077,138.476s-1.3-8.21,2.685-14.93,4.7-11.575,10.086-14.416c2.372-1.25,15.04-1.1,15.04-1.1s-.172,4.891,5.868,5.331c8.53.623,8.869-2.736,8.869-2.736s9.388,1.92,11.806,3.527c4.862,3.23,8.446,9.912,8.944,10.908s5.648,7.964,5.648,7.964"/><path class="cls-7" d="M60.674,123.065q-.147,7.383.08,14.766"/></svg>