<svg id="word" xmlns="http://www.w3.org/2000/svg" viewBox="0 0 160 160"><defs><style>.cls-1{fill:#fad7c6;}.cls-1,.cls-10,.cls-11,.cls-2,.cls-3,.cls-4,.cls-6,.cls-7,.cls-8,.cls-9{stroke:#9c4c9c;stroke-miterlimit:10;stroke-width:0.907px;}.cls-2{fill:#aecce9;}.cls-3{fill:#fff;}.cls-4{fill:#fcf5ad;}.cls-5{fill:#9c4c9c;}.cls-6{fill:none;}.cls-7{fill:#245234;}.cls-8{fill:#518051;}.cls-9{fill:#f7ea2f;}.cls-10{fill:#8c8c8c;}.cls-11{fill:#36b24a;}.cls-12{fill:#5f8bc8;}</style></defs><path class="cls-1" d="M75.986,52.556s.261,6.687,0,8.9-5.272,3.55-5.272,3.55A14.652,14.652,0,0,0,76.1,70.191c3.257,1.546,7.595,2.456,9.972-.65a68.766,68.766,0,0,1,5.909-6.491s-5.212.326-5.046-1.592-.068-7.049-.068-7.049Z"/><path class="cls-2" d="M63.759,113.662s-14.57,11.985-14.525,14.14-3,8.121,5.031,8.284,56.124-.466,56.124-.466,8.107,1.63,8.316-4.738-10.2-29.241-10.2-29.241H70.714l-7.348,11.726"/><path class="cls-1" d="M72.366,39.438s-1.313-4.306-3.522-3.038S64.56,40.325,66.939,43,70.7,44.732,70.7,44.732s-.029,5.608,4.244,8.478S78.573,58.389,83,57.075s10.977-3.188,11.737-6.746,3.552-7.523,3.552-10.386.622-7.715-.581-10.917-2.949-8.764-8.527-8.384S79.22,22.256,76.4,26.511,72.366,39.438,72.366,39.438Z"/><path class="cls-3" d="M83.986,39.436a2.719,2.719,0,0,0-2.6-1.9c-1.931.15-3.455,3.146-2.589,4.642s2.446.658,3.053,0C82.338,41.648,83.986,39.436,83.986,39.436Z"/><path class="cls-3" d="M95.533,39.579a3.076,3.076,0,0,0-2.664-.541c-1.232.537-1.876,3.581-.745,4.9s1.7,1.454,2.387.388S96.319,40.363,95.533,39.579Z"/><path class="cls-4" d="M81.846,23.807s4.138.168,4.743,3.153a13.86,13.86,0,0,0,1.982,4.9,2.834,2.834,0,0,0,.249-3.02c-.907-1.531-1.064-5.421-1.064-5.421a22.615,22.615,0,0,1,1.914,3.565,32.437,32.437,0,0,0,1.867,3.744s.014-1.615,0-3.089a23.38,23.38,0,0,0-.187-2.715s.662,1.048,1.707,3.025,1.988,3.911,1.988,3.911l.757-1.956A22.355,22.355,0,0,1,97.168,33.2c.262,1.1,1.148,6.285,1.122,6.747s-1.1,4.036-1.1,4.036,1.566.392,2.021-2.2,3.41-8.646,3.615-12.431a20.9,20.9,0,0,0-.77-6.811l-.824-1.916,1.622,2.594a16.2,16.2,0,0,0-1.622-4.96,27.61,27.61,0,0,0-3.568-5.335c-1.395-1.647-5.008-2.67-7.772-2.333a49.437,49.437,0,0,0-7.741,2.125A17.6,17.6,0,0,1,84.2,9.933c.43-.2,1.19-1.544,1.19-1.544s-3.561,1.1-4.11,2.391-1.016,2.344-1.016,2.344l-.5-2.695-.708,2.287a8.95,8.95,0,0,1-3.485-1.544,4.568,4.568,0,0,0-3.532-.781l4.343,2.923-5.421.546s3.34.117,4.181.774-2.2-.408-4.181.793a19.038,19.038,0,0,0-6.726,6.731c-1.944,3.413-2.431,5.351-2.425,8.265s.24,1.186.768.685a6.467,6.467,0,0,1,1.373-.912,28.124,28.124,0,0,0-.017,7.624,14.019,14.019,0,0,0,1.253,4.113s.665.007.692-1.392-.757-3.424,1.477-3.9,3.218-.129,3.647.858a23,23,0,0,0,1.57,3.583c.527.663,1.132-2.466,1.19-4.093s.245-3.686.245-3.686l1.005,4.89s.462-.353,1.024-4.507,2.653-8.035,2.5-8.76a23.329,23.329,0,0,1,.36,3.114,11.289,11.289,0,0,0,.23,2.42,19.8,19.8,0,0,1,1.183-4.575A8.462,8.462,0,0,1,81.846,23.807Z"/><path class="cls-5" d="M80.023,34.888a2.561,2.561,0,0,1,1.112-1.348,4.873,4.873,0,0,1,1.631-.645,20.478,20.478,0,0,1,3.322-.235,4.321,4.321,0,0,1-1.541.749c-.54.166-1.081.258-1.6.373a12.011,12.011,0,0,0-1.5.389A5.613,5.613,0,0,0,80.023,34.888Z"/><path class="cls-5" d="M92.451,33.811a2.339,2.339,0,0,1,1.225.261,6.335,6.335,0,0,1,1.012.621,5.609,5.609,0,0,1,1.6,1.762,5.615,5.615,0,0,1-2.142-1.037,8.533,8.533,0,0,1-.868-.765Z"/><path class="cls-5" d="M85.029,46.06a1.751,1.751,0,0,1,.7-1.326,2.1,2.1,0,0,1,1.965-.409.94.94,0,0,1,.493.35,3.684,3.684,0,0,1,.31.691,5.692,5.692,0,0,1,.349,1.379,5.743,5.743,0,0,1-.97-1.04c-.137-.158-.287-.434-.369-.506-.036-.023-.006,0-.069-.026a2.061,2.061,0,0,0-.242-.027,2.462,2.462,0,0,0-1.1.188A3.172,3.172,0,0,0,85.029,46.06Z"/><path class="cls-5" d="M80.952,48.819c1.078.332,2.022.666,3.018.889a8.652,8.652,0,0,0,1.465.257,2.223,2.223,0,0,0,1.434-.323,1.681,1.681,0,0,1-1.378,1.028,4.2,4.2,0,0,1-1.729-.08A4.854,4.854,0,0,1,80.952,48.819Z"/><path class="cls-6" d="M70.321,40.313c-.323-.073-.622.2-.8.478a1.733,1.733,0,0,0-.193,1.525,1.126,1.126,0,0,0,1.279.694"/><path class="cls-5" d="M78.313,17.655a15.081,15.081,0,0,0,1.736,1.51,4.948,4.948,0,0,1,.835.906,2,2,0,0,1,.4,1.225c-.63-.578-1.213-.914-1.831-1.447a4.346,4.346,0,0,1-.827-.937A1.837,1.837,0,0,1,78.313,17.655Z"/><path class="cls-5" d="M81.629,17a7.337,7.337,0,0,1,2.467.216,7.24,7.24,0,0,1,2.291.941A5.884,5.884,0,0,1,81.629,17Z"/><path class="cls-5" d="M73.558,26.9a12.458,12.458,0,0,0,.144-2.458,5.155,5.155,0,0,1,.467-2.563,9.582,9.582,0,0,1,.439,2.564,4.015,4.015,0,0,1-.225,1.348A2.143,2.143,0,0,1,73.558,26.9Z"/><path class="cls-5" d="M71.217,20.185a12.34,12.34,0,0,0-1.64,2.883,12.472,12.472,0,0,0-.758,3.229,4.594,4.594,0,0,1,2.4-6.112Z"/><path class="cls-7" d="M90.514,62.084s.774-.716,5.288-1.043c6.726-.488,11.385,1.605,13.584,3.166s5.98,1.217,5.98,1.217l-4.061,13.8s-7.9-2-8.069-2.68-5.006-3.262-3.981-.911,3.6,22.528,3.6,22.528l-11.51,9.578-23.179,1.025.572-20.1H65.329s-.569-6.546-3.809-7.738-11.95-2.1-11.95-2.1a73.707,73.707,0,0,0,9.536-7.952c3.242-3.538,5.292-5.261,7.833-5.722s6.37-1.372,6.37-1.372a5.9,5.9,0,0,0,3.957,5.045c3.777,1.313,7.619.309,9.6-2.059S90.514,62.084,90.514,62.084Z"/><path class="cls-8" d="M108.505,82.721s-3.594-3.791-1.689-7.665,2.645-7.026,3.6-8.419,7.388-5.323,9.049-4.695a10.132,10.132,0,0,1,5.3,5.594c1.461,3.28,2.659,5.585,1.77,6.986a7.4,7.4,0,0,0-1.043,2.172,3.38,3.38,0,0,0-.3-2.584c-.721-1.647-4.262-4.908-6.476-2.613a14.193,14.193,0,0,0-3.351,7.451,27.364,27.364,0,0,0-.274,4.74s-1.968,1.343-3.191,0a1.771,1.771,0,0,0-2.664-.107C108.928,83.787,108.505,82.721,108.505,82.721Z"/><path class="cls-8" d="M47.192,90.375s-3.622-.663-2.6-5.138,1.259-6.117,2.6-6.019,2.519-.4,4.163-.189,3.652-.019,6.674.859,4.61-.812,6.215,2.731,2.267,4.9,1.638,6.044-3.3,1.277-3.577,1.532a8.8,8.8,0,0,1-2.276,1.215A1.626,1.626,0,0,1,58.145,90c.082-.69-.272-3.841-3.208-3.553a15.676,15.676,0,0,0-5.367,1.316A14.614,14.614,0,0,0,47.192,90.375Z"/><path class="cls-9" d="M61.52,112.046a8.355,8.355,0,0,0,2.6,5.4c2.488,2.248,2.091,4.665,4.721,3.09a20.243,20.243,0,0,0,5.377-4.339,26.213,26.213,0,0,1,3.287-3.093s5.951-5.043,7.731-3.683,4.771.636,4.771.636l2.609-6.677-1.278-3.516-8.564,4.267-19.229,5.264S60.768,109.05,61.52,112.046Z"/><path class="cls-10" d="M40.058,138.334s.74-20.574,1.486-22.138,6.144-9.049,9.124-5.41,3.872,7.918,3.477,9.227.534,4.664.534,4.664,1.006,1.215,4,1.349,2-6.624,2-6.624-.664-9.828-1.716-11.664-4.275-5.049-8.3-5.152-9.981,1.141-12.526,5.646-4.231,22.458-4.231,22.458l-.747,8.257s3.095,1.4,4.533,1.2A3.845,3.845,0,0,0,40.058,138.334Z"/><ellipse class="cls-3" cx="91.983" cy="113.215" rx="21.199" ry="9.091" transform="translate(-50.871 83.698) rotate(-39.233)"/><path class="cls-3" d="M103.505,102.863c2.35,2.878-.227,9.815-7.182,15.494s-14.5,7.95-16.849,5.072"/><path class="cls-11" d="M66.284,107.091s-6.66.4-4.764,3.357,6.529,8.4,9.194,5.981a40.873,40.873,0,0,1,6.019-4.367l6.9-4.324s8.227-3.989,8.349-6.1-.672-5.96-4.181-6.616-6.772-.571-7.493.973-1.825,2.586-2.184,3.747-5.759,4.8-5.759,4.8Z"/><path class="cls-1" d="M58.029,88.417V91.7s3.613,2.238,5.782,3.552c2.326,1.41,4.359,3.643,5.643,3.588a37.7,37.7,0,0,1,7.812,1.9c.779.412,4.787.759,5.2,2.439a12.8,12.8,0,0,1,0,5.591,6.152,6.152,0,0,1-1.627,3.283,6.38,6.38,0,0,1-2.751,1.169c-.869-.026-1.125-.38-1.69-2.073a20.677,20.677,0,0,0-2.608-4.343s-1.339-1.742-1.426-1.639-2.34.534-2.912.679a6.413,6.413,0,0,1-4.192-2.017c-.811-1.242-3.688-1.236-4.821-1.545s-8.017-2.882-9.773-4.426a8.608,8.608,0,0,1-2.506-5.27c.132-.6.516-4.164.516-4.164s3.945-2.464,6.259-1.971A4.535,4.535,0,0,1,58.029,88.417Z"/><path class="cls-1" d="M119.337,70.807s-3.971,4.031-4.174,9.081c-.108,2.684-2.838,10.614-2.838,10.614l-.424,2.079a23.675,23.675,0,0,0-4.834-.281c-1.413.233-3.09.761-3.831,1.948s-3.468,6.477-4.028,6.943-.742,1.232.926,1.486,3.752-4.045,3.752-4.045l2.373.2a19.121,19.121,0,0,0-.345,6.5c.543,2.592-.55,7.02-.55,7.02s1.09-.935,2.386-1.9,5.377-7.384,5.234-8.807.065-4.2.576-4.924,4.091-4.666,4.922-6.212,5.615-9.525,5.878-10.414,1.735-6.706-.194-8.189S119.9,70.041,119.337,70.807Z"/><ellipse class="cls-5" cx="93.67" cy="43.085" rx="1.386" ry="1.437"/><ellipse class="cls-5" cx="80.952" cy="41.648" rx="1.386" ry="1.437"/><path class="cls-6" d="M76.615,105.964a8.932,8.932,0,0,1,2.045,6.925"/><path class="cls-6" d="M78.961,105.037l.768,1.328a4.376,4.376,0,0,1,.754,2.761l.077,3.086"/><path class="cls-6" d="M80.4,103.667c-.164.233.038.539.21.766a3.218,3.218,0,0,1,.653,1.453c.061.41.018.83.064,1.242.032.291.107.574.158.862a10.822,10.822,0,0,1,.064,2.441"/><path class="cls-6" d="M53.968,120.01a8.372,8.372,0,0,0,2.9,1.273,2.493,2.493,0,0,0,1.141.051,2.938,2.938,0,0,0,.681-.3l2.074-1.125"/><path class="cls-12" d="M101.417,132.469a6.239,6.239,0,0,1-.833-.985,2.581,2.581,0,0,0-3.073-.918,4.265,4.265,0,0,0-1.764,1.14c-.2-.171-.375-.3-.53-.451a6,6,0,0,0-1.666-1.212,1.752,1.752,0,0,0-1.762.071c-.365.225-.75.423-1.094.676a2.812,2.812,0,0,0-.711.7.972.972,0,0,1-.773.536.584.584,0,0,1-.117-.892,3.9,3.9,0,0,1,1.809-1.662.725.725,0,0,0,.215-.163,2.452,2.452,0,0,1,2.7-.653,5.023,5.023,0,0,1,1.717,1.011,6.089,6.089,0,0,0,.506.366c.509-.264.989-.553,1.5-.77a3.322,3.322,0,0,1,2.3-.064,3.065,3.065,0,0,1,1.668,1.227c.31.429.368.43.832.191a3.225,3.225,0,0,1,2.369-.429c.518.14,1.012.37,1.519.554a3.6,3.6,0,0,1,1.762,1.595,10.294,10.294,0,0,1-.683.8.279.279,0,0,1-.47-.081,3.21,3.21,0,0,0-1.544-1.332,2.4,2.4,0,0,0-2.246-.112C102.543,131.887,102.033,132.148,101.417,132.469Z"/><path class="cls-12" d="M76.525,133.1a3.019,3.019,0,0,1-2.7-1.3,1.563,1.563,0,0,0-1.334-.793A1.152,1.152,0,0,0,72,131.1a3.841,3.841,0,0,0-1.515,1.119.412.412,0,0,1-.664.078,3.141,3.141,0,0,1-.327-.305c-.657-.683-1.333-1.349-1.962-2.056a2.565,2.565,0,0,0-3.367-.274,6.778,6.778,0,0,0-1.825,1.63.31.31,0,0,1-.575-.152,1.414,1.414,0,0,1,.173-.9,7.515,7.515,0,0,1,3.16-2.368,3.168,3.168,0,0,1,2.935.276,6.884,6.884,0,0,1,1.174,1.1c.38.381.742.78,1.119,1.164a.4.4,0,0,0,.515.057c.244-.136.5-.26.729-.412a1.9,1.9,0,0,1,1.385-.3,10.279,10.279,0,0,1,1.038.181,1.126,1.126,0,0,1,.448.3c.213.208.408.436.6.665a3.7,3.7,0,0,0,2.226,1.182,1.151,1.151,0,0,1,.317.1c.235.129.257.284.09.5C77.417,133.021,77.26,133.078,76.525,133.1Z"/><path class="cls-12" d="M108.251,123.893c-.236.058-.39.1-.545.134-.436.1-.87.216-1.308.309a.889.889,0,0,1-.9-.323,3.975,3.975,0,0,0-2.111-1.269,5.2,5.2,0,0,0-2.159-.105,2.915,2.915,0,0,0-1.779.856c-.241.26-.472.529-.72.782a1.226,1.226,0,0,1-.434.337.533.533,0,0,1-.442-.106c-.068-.06-.033-.268,0-.4a.643.643,0,0,1,.185-.277c.695-.678,1.383-1.363,2.1-2.016a1.629,1.629,0,0,1,.726-.374,6.91,6.91,0,0,1,3.165.062,7.7,7.7,0,0,1,2.227,1.145.993.993,0,0,0,.677.2,3.208,3.208,0,0,0,2.409-1.106,1.659,1.659,0,0,1,1.263-.636,6.9,6.9,0,0,1,.892-.063.821.821,0,0,1,.514.249c.062.072,0,.351-.1.445a1.742,1.742,0,0,1-.712.484,2.449,2.449,0,0,0-1.133.66,5.021,5.021,0,0,0-1.419,2.6,1.25,1.25,0,0,1-.338.561.3.3,0,0,1-.539-.168,1.825,1.825,0,0,1,.038-.713,7.256,7.256,0,0,1,.306-.781C108.159,124.252,108.189,124.113,108.251,123.893Z"/><path class="cls-12" d="M69.593,127.024c-.361.41-.677.152-.934-.013a12.875,12.875,0,0,1-1.428-1.064,4.506,4.506,0,0,0-1.766-.923c-.431-.12-.852-.278-1.27-.439a1.935,1.935,0,0,0-1.626.069A6.094,6.094,0,0,1,61.8,125c-.283.094-.431-.036-.409-.337a.881.881,0,0,1,.444-.791c.508-.274,1-.58,1.517-.834a1.145,1.145,0,0,1,.6-.063,4.577,4.577,0,0,1,.93.179c.708.225,1.405.488,2.111.723a1.34,1.34,0,0,1,.83.6c.049.088.169.136.281.221.41-.3.807-.605,1.212-.9a3.4,3.4,0,0,1,2.518-.685,5.172,5.172,0,0,0,.671.027,1.137,1.137,0,0,1,1.038.735.587.587,0,0,1-.678.86,2.919,2.919,0,0,1-.926-.364,1.792,1.792,0,0,0-1.763-.081,14.188,14.188,0,0,0-1.376.85.321.321,0,0,0-.082.524c.216.278.446.547.644.838A3.028,3.028,0,0,1,69.593,127.024Z"/><path class="cls-12" d="M104.1,125.6a1.957,1.957,0,0,1,1.763,1.021c.138.264.272.531.4.8a.674.674,0,0,1-.258.818c-.235.117-.634-.1-.753-.405a1.385,1.385,0,0,0-1.8-.963,4.26,4.26,0,0,0-1.828.921c-.042.036-.089.067-.13.105-.186.174-.4.338-.636.136a.464.464,0,0,1-.022-.664,5.2,5.2,0,0,1,.953-.911A4.926,4.926,0,0,1,104.1,125.6Z"/></svg>