<svg id="word" xmlns="http://www.w3.org/2000/svg" viewBox="0 0 160 160"><defs><style>.cls-1{fill:#ed75aa;}.cls-2{fill:none;}.cls-2,.cls-3,.cls-4,.cls-6,.cls-7{stroke:#9c4c9c;stroke-miterlimit:10;stroke-width:0.75px;}.cls-3{fill:#fad7c6;}.cls-4{fill:#fcf5ad;}.cls-5{fill:#9c4c9c;}.cls-6{fill:#fff;}.cls-7{fill:#ee68a4;}</style></defs><path class="cls-1" d="M92.81,90.935s11.019.935,13.6,3.343c2.639,2.46,8.948,11.024,10.555,14.736s4.7,10.349,5.047,10.461-.34,10.6-5.583,15.583c-3.449,3.279-3.794,5.677-5.358,5.677a8.231,8.231,0,0,0-4.432,2.025c-.688.675,1.148,1.35-10.325,1.687a130.139,130.139,0,0,1-19.618-.9c-.8,0-.8-.225-5.048-.563s-9.68-5.062-11.953-5.174-10.467-1.146-10.467-1.146-.511-2.853,1.514-15.938c.73-4.721,1.4-15,4.766-18.9,4.255-4.932,12.288-8.691,14.009-9.816S76.111,89.7,76.111,89.7s.5,4.51,4.055,5.185,9.363,1.83,11.306-.082A4.012,4.012,0,0,0,92.81,90.935Z"/><path class="cls-2" d="M49.146,136.665s-.511-2.853,1.513-15.938c.731-4.721,1.4-15,4.766-18.9,4.255-4.932,12.289-8.691,14.01-9.816s6.59-2.314,6.59-2.314.5,4.51,4.056,5.185,9.363,1.83,11.3-.082a4.012,4.012,0,0,0,1.338-3.863s11.02.935,13.6,3.343c2.638,2.46,8.948,11.024,10.554,14.736s4.7,10.349,5.048,10.461"/><path class="cls-3" d="M72.713,77.63S76.384,88.654,75.7,90.454s1.922,3.32,5.048,4.5c2.141.808,9.991,2.284,11.738-1.487,1.155-2.491.242-8.645.242-8.645Z"/><path class="cls-4" d="M105.524,20.833s8.031-2.354,14,0,12.62,6.853,13.308,8.653-1.836-.9-5.736-1.575-4.819-2.7-1.377.675,4.589,10.124,4.818,11.7-2.982-1.125-7.342-3.825-5.277-2.7-5.277-2.7l7.572,6.991a51.149,51.149,0,0,1-7.343-2.716c-5.277-2.25-6.579-3.368-6.579-3.368l-.246,1.734,5.367,4.317L93.134,26.336Z"/><path class="cls-4" d="M57.34,35.56s-9.453-4.606-15.376-3.984c-7.354.773-12.606,7.593-12.846,10.508-.542,6.585,2.935,11.637,4.642,14.985,1.469,2.881.853-2.4,1.375-7.6.544-5.41,2.473-5.59,2.473-5.59s-1.108,6.78-.459,10.124c1.138,5.87,3.441,6.524,3.441,6.524A37.283,37.283,0,0,0,42.2,51.983a10.251,10.251,0,0,1,1.032-5.046V57.608l1.491,2.924s3.442-8.653,4.589-11.863,8.031-5.01,8.031-5.01Z"/><path class="cls-3" d="M106.672,46.134s2.294,18.448,2.294,21.148-3.212,13.048-7.572,16.2-4.818,5.174-10.325,4.274-20.421-6.3-23.863-11.474-8.153-18.6-7.457-22.272C64.958,26.523,106.672,46.134,106.672,46.134Z"/><path class="cls-4" d="M76.155,22.737s4.818-3.6,15.373-.9,17.438,8.549,18.815,13.723,1.334,10.634.646,13.109-2.023,7.139-2.023,7.139-2.065-11.474-2.753-13.049S107.479,52.8,107.479,52.8s-1.994-1.575-5.895,0-4.09.538-4.09.538l-1.148-4.274c-1.147-4.275-2.774-4.95-2.774-4.95V55.867A105.144,105.144,0,0,0,90.84,45.009c-1.606-4.949-.23,6.074-.23,7.649s-1.835,2.7-2.983,1.35-5.965-10.8-5.965-10.8l2.86,9.281-6.073-6.356,5.144,8.531s-6.076,2.117-7.223,2.792a24.727,24.727,0,0,1-4.908,1.382s1.07.85.181-4.174-3.519-5.831-3.519-5.831l2.065,11.923H66.748l-2.754-5.849s4.36,14.623,5.507,17.323a43.092,43.092,0,0,1,1.606,4.274s-2.524-.674-4.359-4.274-5.383-8.966-5.383-8.966L65.82,73.919S59.387,71.477,55.068,62.5c-4.335-9.012-1.858-13.214-1.858-18.839s4.819-15.523,11.7-18A53.128,53.128,0,0,1,76.155,22.737Z"/><path class="cls-5" d="M95.29,68.684l-.244-.059a3.019,3.019,0,0,0-.611-.076,4.814,4.814,0,0,0-1.74.278,9.068,9.068,0,0,0-.9.363l-.8.375c-.484.219-.836.342-.836.342a5.709,5.709,0,0,1,.589-.7,4.939,4.939,0,0,1,.722-.595,4.351,4.351,0,0,1,.982-.5,3.043,3.043,0,0,1,2.08.013A1.773,1.773,0,0,1,95.29,68.684Z"/><path class="cls-5" d="M100.762,72.449l-.184.178a6.178,6.178,0,0,1-.539.486,11.029,11.029,0,0,1-2.177,1.427,12.062,12.062,0,0,1-5.632,1.329,10.38,10.38,0,0,1-2.158-.313,41.367,41.367,0,0,1-7.327-2.819l-3.189-1.564.926.312,2.416.893c.991.385,2.149.829,3.4,1.26a37.831,37.831,0,0,0,3.939,1.2,10.758,10.758,0,0,0,2.026.284A12.457,12.457,0,0,0,94.237,75a14.641,14.641,0,0,0,3.432-.891,15.94,15.94,0,0,0,2.273-1.135C100.467,72.656,100.762,72.449,100.762,72.449Z"/><path class="cls-6" d="M101.19,54.818s2.758-.773,3.349,1.159,1.97,5.021-1.674,6.759S97.457,57.536,101.19,54.818Z"/><ellipse class="cls-5" cx="103.155" cy="58.325" rx="2.072" ry="2.106"/><path class="cls-6" d="M80.188,58.477s2.758-.772,3.348,1.159,1.97,5.022-1.674,6.76S76.455,61.2,80.188,58.477Z"/><ellipse class="cls-5" cx="82.153" cy="61.984" rx="2.072" ry="2.106"/><path class="cls-2" d="M69.247,115.037c-1.865,4.515-2.424,8.891-2.866,13.743a61.8,61.8,0,0,0,.19,12.476"/><path class="cls-2" d="M107.072,142.716a17.762,17.762,0,0,0,1.294-8.233c-.178-2.145-.745-4.24-1.031-6.373-.839-6.251.687-12.989-2.14-18.652"/><path class="cls-2" d="M91.142,35.312a22.182,22.182,0,0,0-2.333-4.132c-.97-1.259-7.185-6.042-8.728-6.486"/><path class="cls-2" d="M105.7,42.329c-1.439-3.443-3.04-6.947-5.795-9.506a35.19,35.19,0,0,0-14.377-7.716"/><path class="cls-2" d="M77.2,43.922a42.525,42.525,0,0,1-2.411-15.114,5.823,5.823,0,0,1,1.005-3.7"/><path class="cls-2" d="M81.441,43.3c.546-2.9-.975-5.737-1.658-8.608-.408-1.717-.518-3.489-.854-5.221a9.534,9.534,0,0,0-2.146-4.778"/><path class="cls-7" d="M58.742,30.269l-6.237-3.162s-1.21,0,0,3.739c.541,1.671,1.173,4.466,1.173,4.466s-4.413,2.114-4.59,4.042.936.71,1.889,1.4a12.645,12.645,0,0,1,2.233,2.908S54.433,32.184,58.742,30.269Z"/><path class="cls-7" d="M102.2,23.718s-3.089-4.867-4.836-6.113-2.078,4.7-2.078,4.7S101.6,25.9,102.2,26.279,106.909,30,106.909,30s5.869-5.313,2.692-6.285S102.2,23.718,102.2,23.718Z"/></svg>