<svg id="word" xmlns="http://www.w3.org/2000/svg" viewBox="0 0 160 160"><defs><style>.cls-1{fill:#fae2d5;}.cls-1,.cls-11,.cls-12,.cls-13,.cls-2,.cls-3,.cls-4,.cls-5,.cls-6,.cls-7,.cls-8,.cls-9{stroke:#9b4d9c;}.cls-1,.cls-13,.cls-2,.cls-8{stroke-miterlimit:10;}.cls-1,.cls-11,.cls-12,.cls-2,.cls-3,.cls-4,.cls-5,.cls-6,.cls-7,.cls-9{stroke-width:0.799px;}.cls-2{fill:#db7477;}.cls-3{fill:#faee52;}.cls-4{fill:#fff;}.cls-5{fill:#7788c2;}.cls-6{fill:#fde5da;}.cls-7{fill:#d46434;}.cls-7,.cls-9{stroke-linecap:round;}.cls-8{fill:#f9decd;}.cls-13,.cls-8{stroke-width:0.639px;}.cls-12,.cls-9{fill:none;}.cls-10{fill:#9b4d9c;}.cls-11{fill:#7e71b3;}.cls-13{fill:#e2a0a7;}</style></defs><path class="cls-1" d="M76.839,101.578s-1.461,7.836,0,10.643a36.7,36.7,0,0,1,2.789,9.474c.332,2.105,1.107,11.93,1.328,14.035s-2.435,5.731-2.877,6.666-3.919,3.3-3.034,4.7,4.355,1.373,6.444.788a4.266,4.266,0,0,0,2.9-4.2c0-1.52.442-7.485.553-8.421s1.66-11.7,1.66-16.023-2.749-7.254-3.3-9.944.426-7.717.426-7.717Z"/><path class="cls-2" d="M85.605,138.654s1.681,3.637.574,4.689-1.583,3.039-2.248,4.325a4.023,4.023,0,0,1-4.2,2.366c-2.1-.351-4.381-.646-5.156-1.291a1.91,1.91,0,0,1-.12-2.933c1.037-1.015,2.389-2.176,2.389-2.176l.465,1.309a8.868,8.868,0,0,1,2.823,0,18.013,18.013,0,0,1,2.379.611l1.931-3.284.264-4.113Z"/><path class="cls-2" d="M80.318,137.165a7.885,7.885,0,0,1,3.074.436c1.309.556,2.213,1.053,2.213,1.053v1.169a20.322,20.322,0,0,0-3.431-1.234,10.114,10.114,0,0,0-2.047.205Z"/><path class="cls-1" d="M83.23,102.49s-1.461,7.837,0,10.644a36.664,36.664,0,0,1,2.79,9.473c.332,2.106,1.107,11.93,1.328,14.035s-2.435,5.731-2.878,6.667-3.919,3.3-3.033,4.7,4.354,1.373,6.444.789a4.266,4.266,0,0,0,2.9-4.2c0-1.521.443-7.486.554-8.421s1.66-11.7,1.66-16.024-2.75-7.254-3.3-9.944.425-7.717.425-7.717Z"/><path class="cls-2" d="M92,139.566s1.68,3.637.573,4.69-1.583,3.038-2.247,4.325a4.025,4.025,0,0,1-4.206,2.365c-2.1-.351-4.381-.645-5.155-1.29a1.91,1.91,0,0,1-.12-2.933c1.036-1.016,2.388-2.177,2.388-2.177l.465,1.309a8.868,8.868,0,0,1,2.823,0,17.954,17.954,0,0,1,2.38.612l1.93-3.285.265-4.112Z"/><path class="cls-2" d="M86.709,138.078a7.885,7.885,0,0,1,3.074.436c1.31.556,2.214,1.052,2.214,1.052v1.17a20.325,20.325,0,0,0-3.432-1.235,10.1,10.1,0,0,0-2.047.206Z"/><path class="cls-3" d="M90.779,60.385s.782.106,1.906.3c.868.148,1.94.347,3.014.589a16.831,16.831,0,0,1,4.573,1.62c3.445,2.2,3.745,12.382,3.745,12.382l-1.3.415s.918,8.57.459,11.324-4.964,5.5-6.54,5.018a20.625,20.625,0,0,0-4.841-.384S80.981,65.61,81.057,65.472,80.521,59.965,90.779,60.385Z"/><path class="cls-4" d="M92.2,94.361c-1.391-7.879-1.579-23.975-1.579-23.975l3.155,4.621,3.876-2.285S94.2,66.539,92.982,65.1c-1.938-2.285-7.038-2.146-7.038-2.146a5.28,5.28,0,0,1-4.77,4.095C77,67.575,77,63.98,77,63.98s.3-.736-2.484.315-3,26.384-2.9,30.165Z"/><path class="cls-5" d="M75.216,64.048,75.7,77.223l11.084-1.269,1.044-12.9,2.143-.1S88.781,72.5,89.4,73.043s1.4,4.11,1.4,4.11S93.074,89.574,94.453,93.8s1.638,11.4,1.638,11.4a55.57,55.57,0,0,1-10.438.914c-4.826-.162-15.238-.914-15.238-.914l-1.588-1.474S70.327,84.7,71.6,81.326s1.062-10.868,1.062-10.868l.541-4.694Z"/><path class="cls-4" d="M74.309,64.481a3.53,3.53,0,0,0-1.11,1.283c-1.786,3.092-2.3,6.713-3.665,10.034-.8-.279-.8-.988-.929-1.864-.291-2.025-1.067-3.477-2.39-3.676,0,0-.187,1.46-1.084,1.815a8.572,8.572,0,0,1-2.368.665c-.49,0-.687.243,0,1.988s1.6,4.44,2.368,6.1,1.474,4.392,3.723,2.559,2.739-1.834,3.622-4.736S74.309,64.481,74.309,64.481Z"/><path class="cls-6" d="M77.93,59.514s-.062,6.931,1.053,7.877,7.014-.229,6.773-2.774c-.189-2-.735-6.549-.735-6.549a20.191,20.191,0,0,1-3.591,1.043Z"/><path class="cls-7" d="M95.689,34.562c1.547,1.218,2.147,4.692,2,7.974a16.758,16.758,0,0,1-.742,3.13,5.874,5.874,0,0,0,.106,3.557A2.41,2.41,0,0,0,99.6,50.884c-.577.027-1.134.284-1.711.288A1.233,1.233,0,0,1,96.6,50.129a3.161,3.161,0,0,0,2.635,2.907,4.854,4.854,0,0,1-2.16.106,2.024,2.024,0,0,1-1.512-1.6,6.072,6.072,0,0,0,1.82,5.413,2.823,2.823,0,0,1-1.9-.345,3.622,3.622,0,0,1-.953-1.366L93.4,52.934a6.471,6.471,0,0,1-1.828,6.133,10.03,10.03,0,0,0,1.071-3.381,6.292,6.292,0,0,1-4.7,3.391c.943-1.237,2.543-1.758,3.2-3.217a34.272,34.272,0,0,1-5.106,1.682l-.011-.387"/><path class="cls-7" d="M67.959,49.477a8.048,8.048,0,0,0,.293,3.784c.3.688.781,1.254,1.036,1.962a2.81,2.81,0,0,1-.84,3.172,1.714,1.714,0,0,0,1.261-.432,1.429,1.429,0,0,0,.391-1.384,2.791,2.791,0,0,1-.97,3.367,2.462,2.462,0,0,0,2.228-2.523A6.784,6.784,0,0,1,70.93,61a3.18,3.18,0,0,0,1.328-2.888,4.955,4.955,0,0,1,.116,3.546,10.669,10.669,0,0,0,2.239-2.07A5.067,5.067,0,0,0,75.7,56.591"/><path class="cls-8" d="M90.948,38.581s3.215,7.406,2.062,11.679-1.569,5.505-5.444,7.31-6.1,4.88-11.547,1.8c-2.218-1.254-6.989-4.915-7.154-9.187s1.629-10.563,2.948-13.411,5.841-8.659,13.526-4.368C88.234,34.026,90.948,38.581,90.948,38.581Z"/><path class="cls-7" d="M86.664,31.08s-1.054,5.633-2.044,6.487-.117,4.317-3.649,5.951a18.854,18.854,0,0,1-8.822,1.359c-.33.095,1.153-.41,1.4-1.359S74.7,40.1,74.7,40.1a18.724,18.724,0,0,0-3.3,3.7,17.714,17.714,0,0,0-1.65,4.273l.742-5.318a6.564,6.564,0,0,0-1.4,3.7c-.249,5.5,1.834,8.6,1.834,8.6s-4.068-1-3.656-6.507,0-3.418,0-3.418-.577,7.025-.824,6.646a15.755,15.755,0,0,1-.99-9.875c1.072-5.6,2.3-9.621,5.773-12.913C75.632,24.837,82.832,24.555,84.189,25a4.584,4.584,0,0,1,2.805,2.469A5.337,5.337,0,0,1,91.118,28.8c1.979,1.709,4.868,4.273,5.278,8.736s.387,7.059-.718,10.855a8.746,8.746,0,0,1-3.506,4.683,18.778,18.778,0,0,0,.513-4.524,40.086,40.086,0,0,0-.99-6.932s.164,5.6.082,7.975a6.7,6.7,0,0,1-.659,3.229,23.968,23.968,0,0,0-.165-7.405,17.389,17.389,0,0,0-1.9-5.508l.33,5.7s-2.189-4.435-2.622-5.885a24.565,24.565,0,0,1-.855-4.077Z"/><path class="cls-4" d="M84.7,47.481s.618-2.492,2-1.543c.737.507,1.887,1.915.413,3.133C85.505,50.4,84.289,49.333,84.7,47.481Z"/><path class="cls-9" d="M80.6,50.19c-.469-1.384-2.6-1.42-2.557,0"/><path class="cls-10" d="M84.659,48.193c0,.6.35,1.092.783,1.092s.784-.488.784-1.092-.35-1.091-.784-1.091S84.659,47.591,84.659,48.193Z"/><path class="cls-4" d="M73.69,47.125s.618-2.492,2-1.543c.737.506,1.886,1.915.412,3.133C74.494,50.045,73.278,48.976,73.69,47.125Z"/><path class="cls-10" d="M73.648,47.837c0,.6.35,1.092.783,1.092s.785-.488.785-1.092-.351-1.091-.785-1.091S73.648,47.235,73.648,47.837Z"/><path class="cls-9" d="M87.917,44.218a3.052,3.052,0,0,0-1.5-1.376,1.609,1.609,0,0,0-.524-.217,1.452,1.452,0,0,0-.974.319,7.605,7.605,0,0,0-.741.551"/><path class="cls-4" d="M85.623,60.683s.522-.027-.18,1a4.424,4.424,0,0,1-2.567,1.79,6.646,6.646,0,0,1-3.859.277c-.946-.213-1.034-1.66-1.034-1.66s-.479-.172-.769.485-.539.484-.4,1.555.958,4.009,2.2,4.389a7.557,7.557,0,0,0,7.209-2.143,6.8,6.8,0,0,0,1.6-3.33,1.494,1.494,0,0,1-.847-1.162,1.776,1.776,0,0,0-.757-1.417C85.852,60.193,85.623,60.683,85.623,60.683Z"/><path class="cls-11" d="M65.694,69.133s.261,1.59-.793,1.713a17.8,17.8,0,0,0-2.579.669c-.276.052,0,.631,0,.631l.12.57s1.2,1.32,2.307.729a3.612,3.612,0,0,0,1.768-2.08A7.362,7.362,0,0,0,65.694,69.133Z"/><path class="cls-6" d="M65.674,68.553a2.462,2.462,0,0,1-.458-2.251c.307-1.512.211-2.919-.589-2.419s-.938,2.617-.907,2.852-.484.125-1.349-1.263c-.956-1.533-1.945-3.144-2.419-3.039-.457.1-.559.52-.13,1.376s1.7,2.779,1.7,2.779a18.309,18.309,0,0,1-2.769-2.37c-.518-.752-1.63-1.473-1.64-.535A3.291,3.291,0,0,0,58.19,65.6s-1.234-.808-1.731-.431c-.3.23.368,1.2,1.046,1.83.579.537,2.227,2.1,2.227,2.1a.908.908,0,0,1-.992.095c-.646-.256-2.119-1.863-2.657-1.261-.481.537.87,1.472,1.988,2.051a13.548,13.548,0,0,1,2.319,1.481c.322.282,1.244,1.031,1.95.948a2.693,2.693,0,0,0,1.675-.663c.778-.552.5-.42.778-.552A2.316,2.316,0,0,0,65.674,68.553Z"/><path class="cls-6" d="M58.068,65.472A13.461,13.461,0,0,0,60.394,67.8"/><path class="cls-12" d="M63.031,66.964a1.99,1.99,0,0,0-1.62.63,5.68,5.68,0,0,0-1.017,1.539"/><path class="cls-13" d="M83.222,51.794A7.1,7.1,0,0,1,79.4,53.166a3.156,3.156,0,0,1-2.182-.608,9.33,9.33,0,0,1,.937,1.166c.21.381-.523,1.45,1.2,1.679s2.252-1.166,2.985-1.8A3.246,3.246,0,0,0,83.222,51.794Z"/><path class="cls-6" d="M91.733,80.941s-3.97-4.713-4.947-4.987c-.38-.107-.781-.749-1.023-1.228s-1.958-1.988-2.723-1.988c-.968,0,.7,1.988.7,1.988a33.78,33.78,0,0,1-3.612-.668c-1.342-.525-2.468-.347-2.427.15s3.8,1.479,3.8,1.479-.563.014-1.307.011-2.89-.734-2.976.058a.767.767,0,0,0,.186.618l4.151,1.06-3.11.07s-1.189-.464-1.21.111,1.3.955,1.3.955l3.37.622-1.12.388a6.086,6.086,0,0,1-1.669.173c-.482-.1-.964-.075-.991.428s2.015.7,2.291.663a14.057,14.057,0,0,1,1.746-.172,2.51,2.51,0,0,0,1.409.657,6.464,6.464,0,0,0,2.194-.487l2.7.849S92.353,81.887,91.733,80.941Z"/><path class="cls-4" d="M90.229,63.513s-.382.094.815-.045,2.551.54,4.021,2.355c1.156,1.429,2,3.94,2.782,5.6s3.148,4.7,3.728,6.151c1.243,3.11.291,5.381-4.251,8.148s-6.855.7-7.446-.476-1.526-1.328-1.254-2.212c.621-2.01.975-1.1,1.6-1.014.905.116.555-.437.751-1.336a6.1,6.1,0,0,0,0-2,5.407,5.407,0,0,1,3.074-1.244c1.766-.069-2.9-5.105-3.419-6.07S90.229,63.513,90.229,63.513Z"/><path class="cls-11" d="M89.581,77.956a2.975,2.975,0,0,1,0,1.8c-.327.83-.066,1.037-.687,1.279a6.381,6.381,0,0,1-1.594.294l1.071.605A2.29,2.29,0,0,0,91.216,81a1.822,1.822,0,0,0-.393-2.385A3.894,3.894,0,0,0,89.581,77.956Z"/><path class="cls-3" d="M89.846,64.019c-.272,2.456.69,9.276.9,11.62a6.59,6.59,0,0,0,.753,3.068l-3.138-1.484s-1.174-8.08-1.057-9.182c.53-4.992,2.484-7.358,2.484-7.358l2.526.365S90.031,62.352,89.846,64.019Z"/><path class="cls-3" d="M76.776,62.428a5.153,5.153,0,0,0-2.344,3.044c-.393,1.944-.969,7.266-.969,7.266l1.753-2.63,1.094-3.964L77,63.98Z"/></svg>