<svg id="word" xmlns="http://www.w3.org/2000/svg" viewBox="0 0 160 160"><defs><style>.cls-1,.cls-7{fill:#f9d6c5;}.cls-1,.cls-10,.cls-11,.cls-12,.cls-2,.cls-3,.cls-4,.cls-5,.cls-6,.cls-7,.cls-8{stroke:#9d4b9c;stroke-miterlimit:10;stroke-width:0.75px;}.cls-2{fill:#eddf5a;}.cls-3{fill:#faf4ad;}.cls-4{fill:#d91474;}.cls-5{fill:#ed6792;}.cls-6{fill:#f2a9c7;}.cls-7,.cls-8{stroke-linecap:round;}.cls-8{fill:none;}.cls-9{fill:#9d4b9c;}.cls-10{fill:#5d5894;}.cls-11{fill:#9a4a99;}.cls-12{fill:#fff;}.cls-13{fill:#9c4c9c;}</style></defs><path class="cls-1" d="M126.42,83.653l1.821-2.391s-.627-2.986.235-4.47,1.138-1.6,1.174-2.589-.285-4.823,1.242-4.064c1.647.819,1.1,1.622,1.066,2.351a3.522,3.522,0,0,0,.612,2.118c.283.459.722-.16,1.177-.216s2.588-4.81,3.858-4.428.612,1.632,0,2.687c-.355.612-2.447,3.537-1.929,3.7a7.248,7.248,0,0,0,1.787-1.255c.344-.316,3.766-3.578,4.518-2.839.959.941-2.042,3.371-2.306,3.67s-2.312,2.231-1.98,2.608,4.534-2.684,5.168-2.032-3.219,3.471-3.046,3.894a6.334,6.334,0,0,1,.235.659s2.049-.8,2.71-.225-3.192,2.227-3.322,2.3a16.831,16.831,0,0,1-4.763,2.164c-.92.141-4.912,4.914-4.912,4.914a26.331,26.331,0,0,0-1.571-3.953A23.605,23.605,0,0,0,126.42,83.653Z"/><path class="cls-1" d="M41.9,82.237s-2.342-4.21-5.517-2.884-12.553,5.437-13.394,5.68-7.579,1.659-5.533,2.979,5.555.467,7.377,0,8.437-2.733,7.764-1.921-4.626,3.21-3.4,3.884,3.764-.694,4.8-1,3.452-1.331,3.658-.751,3.391,2.511,3.391,2.511l3.4-3.323S43.7,83.7,41.9,82.237Z"/><path class="cls-1" d="M48.4,133.51s-3.97,4.766-2.234,9.728,4.041,5.958,8.638,5.529a51.113,51.113,0,0,0,9.4-1.976s3.414-7.724,1-10.1S48.4,133.51,48.4,133.51Z"/><path class="cls-1" d="M64.521,139.661s-2.646,7.36.68,10.654,9.091,2.358,11.433,1.71,18.184-6.815,21.415-8.262,11.981-6.687,11.981-6.687,2.111-.9,0-3.617-7.55-3.429-7.55-3.429Z"/><path class="cls-2" d="M104.214,123.043s3.078-3.081,5.279.182,1.55,3.079,3.867,2.239,10.108-2.976,11.822-1.761,3.729,1.42,1.7,4.178-17.392,9.808-17.392,9.808,1.671-1.21-.4-3.468-6.119-3.62-6.119-3.62Z"/><path class="cls-1" d="M76.682,66.467c-.568,1.428-2.867,3.4-4.351,3.276a3.325,3.325,0,0,0-2.559,1.226s4.243,4.886,10.772,4.17,9.415-6.793,9.415-6.793a6.065,6.065,0,0,1-2.554-3.24,17.042,17.042,0,0,1-.816-6.007s-8.8-.134-9.323-.286-.039,1.454-.039,1.454S77.249,65.039,76.682,66.467Z"/><path class="cls-1" d="M63.18,49.053S67.2,56.23,74.195,59.145s11.163.1,14.323-.643,11.334-8.973,11.294-11.846,1.774-18.684-2.708-21.884S72.568,14.7,66.6,18.7s-5.826,12.47-5.711,15.105S63.18,49.053,63.18,49.053Z"/><path class="cls-3" d="M65.11,25.03s-.569,6.157,1.927,8.961,4.024,3.095,4.024,3.095,2.66,1.116,1.079-.131c-1.718-1.354-.845-5.264-.7-6.118s.113,3.883,3.218,5.06,4.446.921,6.921,1.862,3.127,1.2,3.127,1.2-2.41-3.441-2.9-4.252-.923-5.757-.923-5.757,3.519,4.663,7.3,6.552,4.445.47,6.542,4.354,3,3.991,3.167,7.185a7,7,0,0,1-1.725,5.481,36.089,36.089,0,0,1-5.544,4.892,24.071,24.071,0,0,1-3.345,1.373,16.8,16.8,0,0,0,2.048,3.584c1.226,1.547,2.265,3.051,2.265,3.051s-1.443-1.186.047-3.669l1.49-2.482s.917,3.158,2.139,3.9a10.943,10.943,0,0,1,2.072,1.638,20.5,20.5,0,0,1-.715-3.522c.114-.482.241-1.932.241-1.932s1.159,3.4,2.411,3.889a20.939,20.939,0,0,0,3.953.766s-5.141-4.064-3.28-6.3,6.182-10.394,7.731-14.15,2.733-16.3,1.084-20.6S98.553,11.505,96.622,10.092s-11.3-3.4-15.045-2.552a13.31,13.31,0,0,0-5.5,2.374A38.859,38.859,0,0,0,66.938,11.1c-3.465,1.124-7.71,2.712-9.421,6.386s-5.29,6.48-5.264,9.847,1.443,5.4,0,7.535a8.141,8.141,0,0,0-1.5,2.8A6.157,6.157,0,0,0,54.035,35.5a13.908,13.908,0,0,0,1.539-3.85,55.489,55.489,0,0,0-1.007,7.99,14.54,14.54,0,0,0,1.82,7.562,8,8,0,0,1,1.191,4.475s1.1.449,1.179-2.029.252-3.692.252-3.692a6.162,6.162,0,0,1,1.785,2.807c.86,2.186,1.242,6.876,1.759,9.323a32.654,32.654,0,0,1,.627,4.349s.712-1.645,2.041-4.443,1.148-8.52.863-9.86-2.5-4.111-2-4.572,2.68,2.4,2.68,2.4-1.909-3.7-2.1-5.524-.6-6.314-.582-7.473S65.11,25.03,65.11,25.03Z"/><path class="cls-4" d="M64.385,20.67s3.972-6.93,12.11-7.947a21.03,21.03,0,0,1,15.1,3.774c1.252.746,2.518,4.18,2.518,4.18s-8.88-2.277-11.673-2.453C71.347,17.527,65.8,20.827,64.385,20.67Z"/><path class="cls-5" d="M62.505,74.454a4.306,4.306,0,0,1,2.635-2.843,58.711,58.711,0,0,1,9.729-2.938s2.722,4.872,5.287,5.091c7.236.616,8.079-3.187,8.079-3.187l1.179-2.832s8.231-1.418,9.86-.739a39.41,39.41,0,0,1,4.894,2.969s-2.075,15.113-2.388,17.611.482,11.251.482,11.251-13.427,3.482-17.322,3.482-17.235-3.8-17.235-3.8a60.889,60.889,0,0,0-.12-11.1c-.657-4.858-4.74-12.424-4.74-12.424Z"/><path class="cls-2" d="M105.66,70.579s6.441,7.863,8.7,9.5,3.586.6,3.451,1.811.61,1.492.784.815,2.309-.915,2.349,0,.479.987,1.416.106,4.611-.967,4.611-.967,2.528,2.8,2.864,4.344.872,5.057.872,5.057-8.128,3.7-8.818,4.209-.74.659-2.636.141a35.19,35.19,0,0,1-7.9-3.748c-1.834-1.292-9.965-6.036-9.965-6.036l2.223-15.832S104.283,69.73,105.66,70.579Z"/><path class="cls-6" d="M101.377,98.517s4.277,5.062,4.979,6.219,3.168,7.3,2.733,11.615-6.151,22.117-6.151,22.117-5.69-2.568-7.251-.49-2.657,5.642-6.579,4.331-6.947-4.552-11.086-3.778-11.3,5.309-13.5,2.664-3.693-3.944-6.478-3.859-5.045,3.1-7.321,1.42-2.657-3.722-5.889-4.03-12.914.02-12.914.02a131.938,131.938,0,0,1,6.325-13.007c2.529-4.065,8.982-9.7,16.836-13.93s11.671-4.791,12.2-6.08a8.82,8.82,0,0,0,.42-3.212,42.2,42.2,0,0,0,9.1,2.39c3.952.382,12.619.152,16.568-1.053A35.011,35.011,0,0,1,101.377,98.517Z"/><path class="cls-2" d="M38.244,91.843a13.371,13.371,0,0,0,3.651-3.4c1.535-2.156,2.895-3.689,2.895-3.689s3.332,5.127,6.148,4.7,4.669-1.774,4.822-3.267,3.917-7.291,4.745-8.377a30.459,30.459,0,0,0,2-3.353s4.479,7.929,4.725,10.116a12.991,12.991,0,0,1-.427,4.469S62.73,95.348,60.884,97.7s-7.564,5.46-9.842,3.3-6.636-3.773-8.127-5.085S38.244,91.843,38.244,91.843Z"/><path class="cls-7" d="M78.794,47.319s.2-1.061,1.848-1.073a2.076,2.076,0,0,1,1.776,1.131"/><path class="cls-8" d="M74.526,49.866s2.035,2.379,6.841,2.346c2.509-.017,5.734-2.346,5.734-2.346"/><path class="cls-9" d="M71.688,100.37a4.331,4.331,0,0,1-.106.837,6.467,6.467,0,0,1-.862,2.073,10.289,10.289,0,0,1-2.137,2.371c-.442.357-.936.727-1.439,1.056l-1.541.979a32.919,32.919,0,0,0-2.948,1.942,21.721,21.721,0,0,0-2.322,2.015c-.632.645-1.151,1.2-1.485,1.613l-.534.646s.136-.274.416-.732a15.5,15.5,0,0,1,1.291-1.812,17.629,17.629,0,0,1,2.223-2.246,24.3,24.3,0,0,1,2.967-2.066c1.045-.629,2.068-1.252,2.972-1.919a11,11,0,0,0,2.192-2.088,7.348,7.348,0,0,0,1.068-1.872A6.409,6.409,0,0,0,71.688,100.37Z"/><path class="cls-9" d="M76.482,101.083s.018.3-.008.829a12.883,12.883,0,0,1-.289,2.178,24.938,24.938,0,0,1-.871,2.98c-.38,1.068-.846,2.177-1.285,3.287a25.824,25.824,0,0,0-1.844,6.226,11.873,11.873,0,0,0-.091,2.146c.025.522.06.823.06.823a6.683,6.683,0,0,1-.2-.805,9.283,9.283,0,0,1-.185-2.2,15.006,15.006,0,0,1,.445-3.092,27.048,27.048,0,0,1,1.124-3.381c.911-2.234,1.917-4.39,2.446-6.1a18.977,18.977,0,0,0,.551-2.086Z"/><path class="cls-9" d="M81.169,101.743l.258.751c.146.479.376,1.173.554,2.022a29.366,29.366,0,0,1,.505,2.927,27.826,27.826,0,0,1-.058,6.808,29.008,29.008,0,0,1-.556,2.918c-.192.847-.434,1.532-.59,2.012l-.271.747.13-.783c.1-.494.192-1.207.316-2.055s.214-1.845.314-2.908c.077-1.065.137-2.2.146-3.339s-.029-2.275-.087-3.342c-.08-1.064-.14-2.064-.264-2.913s-.192-1.561-.281-2.06Z"/><path class="cls-9" d="M87.625,100.952s.3,1.246.662,3.128c.169.942.39,2.039.584,3.22s.389,2.442.578,3.7.351,2.529.49,3.717a16.01,16.01,0,0,1,.121,3.314,5.822,5.822,0,0,1-.65,2.262,3.58,3.58,0,0,1-.362.547l-.143.181a4.913,4.913,0,0,0,.373-.789,6.416,6.416,0,0,0,.36-2.222,18.647,18.647,0,0,0-.353-3.2c-.2-1.179-.388-2.442-.577-3.7-.174-1.264-.35-2.528-.489-3.716s-.244-2.3-.348-3.254C87.688,102.232,87.625,100.952,87.625,100.952Z"/><path class="cls-9" d="M94.491,99.722l.444.545a16.412,16.412,0,0,1,1.07,1.52,22.961,22.961,0,0,1,1.27,2.307,21.759,21.759,0,0,1,1.78,5.768,22.442,22.442,0,0,1,.251,2.622,16.211,16.211,0,0,1-.028,1.858l-.06.7-.085-.7c-.04-.443-.139-1.073-.247-1.822s-.29-1.615-.48-2.537c-.212-.919-.459-1.891-.756-2.85s-.638-1.9-.98-2.781c-.361-.869-.688-1.692-1.033-2.366s-.6-1.252-.823-1.644Z"/><path class="cls-9" d="M98.374,98.6a.8.8,0,0,1,.185.063,1.251,1.251,0,0,1,.434.352c.3.387.645.95,1.065,1.637s.908,1.484,1.4,2.355,1.015,1.806,1.528,2.744a26.463,26.463,0,0,1,1.387,2.855,9.015,9.015,0,0,1,.6,2.742,14.79,14.79,0,0,1-.034,1.958c-.036.469-.07.736-.07.736s-.028-.267-.076-.734-.119-1.132-.24-1.911a9.83,9.83,0,0,0-.79-2.538c-.4-.889-.923-1.811-1.437-2.753-.5-.944-1-1.889-1.448-2.786s-.843-1.747-1.194-2.469-.587-1.362-.813-1.751A1.078,1.078,0,0,0,98.374,98.6Z"/><path class="cls-10" d="M67.937,96.748l-.652,4.981s10.814,2.021,16.051,1.9,12.541-.862,14.523-1.9,5.654-.646,5.654-.646l-1.674-8a36.736,36.736,0,0,1-18.5,5.514C77.791,98.644,67.937,96.748,67.937,96.748Z"/><path class="cls-11" d="M68.9,80.412c.049-.794.784-1.664,1.213-1.564.231.053.578.287.594.464.063.721-.735,1.551-1.35,1.442C69.154,80.718,68.987,80.481,68.9,80.412Z"/><path class="cls-11" d="M93.022,72.992a12.883,12.883,0,0,1,1.015-1.277c.088-.088.5.009.652.145.678.605-.252.993-.289,1.523-.006.09-.635.176-.978.179C93.32,73.563,93.214,73.277,93.022,72.992Z"/><path class="cls-11" d="M87.033,77.932a9.317,9.317,0,0,1,.847-1.075.571.571,0,0,1,.563.021c.162.188.346.54.27.714a9.918,9.918,0,0,1-.84,1.359Z"/><path class="cls-11" d="M66.994,75.532c-.825-.44-.778-.985-.563-1.421a1.021,1.021,0,0,1,.879-.4c.235.045.614.581.548.724A5.393,5.393,0,0,1,66.994,75.532Z"/><path class="cls-11" d="M83.181,88.786a2.315,2.315,0,0,1-.145.8.969.969,0,0,1-.6.4c-.145.02-.476-.24-.467-.357a7.255,7.255,0,0,1,.288-1.483.658.658,0,0,1,.543-.018A2.56,2.56,0,0,1,83.181,88.786Z"/><path class="cls-11" d="M90.854,84.236a1.948,1.948,0,0,1-.655.5c-.368.109-.95-.607-.871-1.091a1.225,1.225,0,0,1,.475-.616C90.219,83.25,90.867,83.255,90.854,84.236Z"/><path class="cls-11" d="M77.5,85.115c.294.278.73.5.731.731A2.531,2.531,0,0,1,77.8,87.07a.7.7,0,0,1-.679.049.848.848,0,0,1-.262-.716A7.308,7.308,0,0,1,77.5,85.115Z"/><path class="cls-11" d="M91.618,77.582c.565-.526.936-.887,1.341-1.2.021-.017.468.331.491.534.064.579-.474,1.294-.881,1.22A4.052,4.052,0,0,1,91.618,77.582Z"/><path class="cls-11" d="M98.065,70.146a5.41,5.41,0,0,1,1.376-.565c.175-.015.389.411.585.637a5.149,5.149,0,0,1-1.06.827C98.861,71.093,98.51,70.6,98.065,70.146Z"/><path class="cls-11" d="M70.723,75.679c-.521.075-.567-.233-.591-.652-.04-.691.508-.723.908-.762.2-.019.6.358.614.568A.761.761,0,0,1,70.723,75.679Z"/><path class="cls-11" d="M71.935,86.915c-.492.416.348,1.366-.745,1.37-.419,0-.884-.8-.716-1.195C70.783,86.37,71.305,86.732,71.935,86.915Z"/><path class="cls-11" d="M92.855,69.311a6.649,6.649,0,0,1,.788-1.023c.064-.058.651.227.673.4a3.7,3.7,0,0,1-.189,1.138L93.015,69.6Z"/><path class="cls-11" d="M72.133,83.106c.451-.3.734-.612,1.061-.67.187-.034.447.34.674.53l-.883,1.017Z"/><path class="cls-11" d="M74.672,77.222a4.392,4.392,0,0,1,.941.671c.105.122-.067.7-.121.7a16.913,16.913,0,0,1-1.716-.113Z"/><path class="cls-11" d="M97.031,72.877c.647.6.679.98.156,1.468-.314.293-.651.47-.979.052C95.932,74.045,96.321,73.33,97.031,72.877Z"/><path class="cls-11" d="M94.174,79.4c.362-.285.67-.634.766-.583.294.156.692.46.7.717s-.386.554-.6.833Z"/><path class="cls-11" d="M77.854,81.947c-.253-.479-.6-.971.052-1.317.217-.115.817.017.884.181C79.1,81.565,78.6,81.847,77.854,81.947Z"/><path class="cls-11" d="M90.661,75.055a3.963,3.963,0,0,1-.109-1.118c.024-.147.476-.359.666-.3.209.06.523.471.472.589a4.434,4.434,0,0,1-.709.925Z"/><path class="cls-11" d="M98.03,79.576c.54-.267,1.118-.6,1.442.228a.786.786,0,0,1-.307.7C98.712,80.723,98.221,80.283,98.03,79.576Z"/><path class="cls-11" d="M80.052,79.732a6.776,6.776,0,0,1,1.255.368.693.693,0,0,1,.113.656,1.318,1.318,0,0,1-.8.331c-.119.007-.3-.3-.38-.5A5.008,5.008,0,0,1,80.052,79.732Z"/><path class="cls-11" d="M86.228,84.867a4.768,4.768,0,0,1-.969.8c-.118.051-.395-.266-.6-.416a8.283,8.283,0,0,1,.784-.913A4.548,4.548,0,0,1,86.228,84.867Z"/><path class="cls-11" d="M81.048,76.425l1.006.717c-.418.58-.863.97-1.374.535-.182-.154.041-.784.08-1.2Z"/><path class="cls-11" d="M82.652,81.528l1.378-.07c.232.514.405.972-.322,1.132S82.912,82.156,82.652,81.528Z"/><path class="cls-11" d="M72.479,76.249c.3.449.621.727.57.892a3.328,3.328,0,0,1-.625.883c-.188-.24-.521-.478-.525-.721C71.9,77.028,72.186,76.749,72.479,76.249Z"/><path class="cls-11" d="M84.426,76.808l.727,1.036c-.274.169-.538.435-.827.467-.157.018-.506-.364-.5-.563C83.825,77.509,84.109,77.273,84.426,76.808Z"/><path class="cls-11" d="M98.669,75.355a3.669,3.669,0,0,1,1.005-.335c.116-.006.373.442.35.66s-.385.621-.469.59a4.444,4.444,0,0,1-.923-.592Z"/><path class="cls-11" d="M94.93,83.548c.261.446.516.715.548,1.008.016.151-.41.521-.554.483-.286-.076-.516-.367-.768-.569Z"/><path class="cls-11" d="M92.75,88.862c.223-.6.581-.969,1.174-.666.186.095.354.692.252.805C93.72,89.5,93.216,89.338,92.75,88.862Z"/><path class="cls-11" d="M71.255,93.623c.346-.055.908-.263,1-.133a3.083,3.083,0,0,1,.288,1.155C71.655,94.844,71.342,94.452,71.255,93.623Z"/><path class="cls-11" d="M91.849,80.061v1.2c-.3-.041-.691.009-.921-.159a1,1,0,0,1-.158-.78A4.441,4.441,0,0,1,91.849,80.061Z"/><path class="cls-11" d="M87.862,81.781c-.444.214-.923.53-1.237-.094a.843.843,0,0,1,.283-.771C87.588,80.714,87.77,81.216,87.862,81.781Z"/><path class="cls-11" d="M89.537,91.769c.369-.309.586-.6.863-.677.135-.038.381.319.577.5a9.181,9.181,0,0,1-.837.78A6.382,6.382,0,0,1,89.537,91.769Z"/><path class="cls-11" d="M76.881,79.571c.356-.267.569-.553.774-.547.239.007.471.268.7.419a4.572,4.572,0,0,1-.734.755C77.569,80.237,77.241,79.88,76.881,79.571Z"/><path class="cls-11" d="M86.541,87.985c.245-.106.53-.345.723-.285.249.077.425.393.632.606-.218.162-.446.465-.65.449-.255-.019-.49-.3-.734-.468Z"/><path class="cls-11" d="M97.034,76.527c-.252.158-.523.463-.749.433s-.445-.379-.56-.636c-.031-.07.333-.449.513-.447a2.225,2.225,0,0,1,.79.345Z"/><path class="cls-11" d="M79.839,93.065c.266.418.56.677.528.888a.816.816,0,0,1-.6.519c-.2.012-.609-.369-.579-.485A3.462,3.462,0,0,1,79.839,93.065Z"/><path class="cls-11" d="M102.174,68.991a8.291,8.291,0,0,1,.335,1.037.617.617,0,0,1-.442.24c-.23-.068-.595-.273-.591-.41a2.647,2.647,0,0,1,.349-.868Z"/><path class="cls-11" d="M88.357,73.939c.329.4.7.666.664.856-.044.231-.406.468-.678.555-.095.031-.445-.365-.468-.589C87.854,74.558,88.116,74.324,88.357,73.939Z"/><path class="cls-11" d="M96.669,69.825l-1.007-.378.389-.83.88.789Z"/><path class="cls-11" d="M76.152,82.638a4.8,4.8,0,0,1,.14,1.013c0,.1-.379.3-.513.256-.2-.072-.519-.378-.484-.482a3.774,3.774,0,0,1,.552-.855Z"/><path class="cls-11" d="M101.02,72.691a3.7,3.7,0,0,1,.524,1.02c.017.152-.405.511-.447.484a1.55,1.55,0,0,1-.663-.64C100.382,73.416,100.707,73.133,101.02,72.691Z"/><path class="cls-11" d="M92.259,71.368c-.391.243-.622.5-.822.481-.257-.029-.488-.284-.731-.441.2-.211.39-.587.59-.591C91.558,70.812,91.825,71.1,92.259,71.368Z"/><path class="cls-11" d="M68.215,77.194c.216-.115.472-.364.639-.314.262.078.464.358.691.553-.187.154-.383.443-.56.431a2.265,2.265,0,0,1-.781-.38Z"/><path class="cls-11" d="M69.705,85.43a4,4,0,0,1-1.033-.448c-.078-.064.1-.671.214-.689C69.459,84.2,69.689,84.567,69.705,85.43Z"/><path class="cls-11" d="M75.37,87.942c-1.115-.049-1.22-.188-.858-1.109C75.147,86.9,75.573,87.129,75.37,87.942Z"/><path class="cls-6" d="M70.574,128.124c.051.917.265,1.206.909,1.09a.727.727,0,0,0,.471-.508C71.973,128.166,71.457,127.969,70.574,128.124Z"/><path class="cls-6" d="M104,119.085l-.847.833c.222.213.516.641.65.595a1.8,1.8,0,0,0,.77-.7C104.612,119.759,104.293,119.45,104,119.085Z"/><path class="cls-6" d="M83.653,131.417l-.121-.432a4.735,4.735,0,0,0-1.1,0c-.116.024-.247.433-.2.628s.382.5.449.473A7.025,7.025,0,0,0,83.653,131.417Z"/><path class="cls-6" d="M44.28,126.615c.36-.461.657-.7.747-1.01a.754.754,0,0,0-.415-.62.66.66,0,0,0-.8.675C43.8,125.9,44.033,126.14,44.28,126.615Z"/><path class="cls-6" d="M54.982,133.774a4.413,4.413,0,0,0-1-.59c-.084-.022-.366.379-.418.616-.11.5.324.669.675.683C54.419,134.49,54.611,134.144,54.982,133.774Z"/><path class="cls-6" d="M100.863,134.464c.307-.366.615-.637.576-.7a2.01,2.01,0,0,0-.7-.755c-.11-.059-.428.27-.651.422Z"/><path class="cls-6" d="M91.335,131.954l-1.355-.386-.243.206c.15.339.209.837.469.986C90.979,133.2,90.894,132.29,91.335,131.954Z"/><path class="cls-6" d="M71.081,135.12l.087.221a3.829,3.829,0,0,0,1.023.117c.179-.025.4-.305.453-.509a.659.659,0,0,0-.214-.573.672.672,0,0,0-.579.08A6.6,6.6,0,0,0,71.081,135.12Z"/><path class="cls-6" d="M93.845,135.3l.33-.206a3.937,3.937,0,0,0-.18-1.078c-.051-.114-.56-.162-.726-.046s-.343.575-.254.705A3.1,3.1,0,0,0,93.845,135.3Z"/><path class="cls-6" d="M105.585,123.8c.357-.37.758-.629.721-.783-.068-.284-.392-.507-.61-.755a2.658,2.658,0,0,0-.585.74C105.061,123.155,105.344,123.416,105.585,123.8Z"/><path class="cls-6" d="M98.5,127.408c.389-.577.318-1.056-.24-1.319-.168-.079-.711.173-.728.316C97.455,127.032,97.931,127.258,98.5,127.408Z"/><path class="cls-6" d="M68.249,132.237c-.1.791-.412,1.41.585,1.695.137-.3.451-.679.364-.887C69.074,132.744,68.659,132.564,68.249,132.237Z"/><path class="cls-6" d="M65.99,130.652c-.32.4-.615.666-.574.74a1.714,1.714,0,0,0,.668.715c.129.061.433-.244.658-.382Z"/><path class="cls-6" d="M47.672,118.744c.451.477.911.753,1.328.184a.9.9,0,0,0-.246-.841C48.119,117.743,47.969,118.384,47.672,118.744Z"/><path class="cls-6" d="M81.868,126.408c-.551-.022-1.146-.354-1.262.467a.784.784,0,0,0,.475.606C81.764,127.571,81.838,127.059,81.868,126.408Z"/><path class="cls-6" d="M86.135,139.162a5.1,5.1,0,0,0,.042-1.215c-.025-.119-.527-.293-.649-.208a3.583,3.583,0,0,0-.664.836Z"/><path class="cls-6" d="M76.982,129.7l.04-.345c-.215-.175-.488-.533-.635-.487-.29.091-.511.4-.761.626.179.194.349.537.539.548C76.429,130.054,76.709,129.822,76.982,129.7Z"/><path class="cls-6" d="M46.3,131.283c.314-.373.7-.7.646-.792a2.988,2.988,0,0,0-.718-.693c-.18.243-.456.469-.5.736C45.7,130.7,46.015,130.927,46.3,131.283Z"/><path class="cls-6" d="M105.06,116.251c.4.291.665.625.892.6a.872.872,0,0,0,.6-.615c.016-.2-.362-.588-.576-.6C105.731,115.635,105.476,115.956,105.06,116.251Z"/><path class="cls-6" d="M91.894,138.145c-.426-.3-.688-.632-.916-.611a1.154,1.154,0,0,0-.7.587c-.048.083.333.589.474.57A4.358,4.358,0,0,0,91.894,138.145Z"/><path class="cls-6" d="M73.241,133.434c.369.335.626.727.809.695a.988.988,0,0,0,.648-.637c.038-.169-.337-.59-.559-.615S73.642,133.168,73.241,133.434Z"/><path class="cls-6" d="M85.4,123.945l-.994.65.662.766a3.171,3.171,0,0,0,.669-.682C85.8,124.559,85.56,124.279,85.4,123.945Z"/><path class="cls-6" d="M52.493,130.83c.344-.379.732-.665.686-.783a1.246,1.246,0,0,0-.668-.665c-.122-.045-.545.337-.575.56S52.213,130.411,52.493,130.83Z"/><path class="cls-6" d="M59.975,132.146c-.373-.286-.6-.581-.858-.616-.177-.023-.4.317-.607.5a5.478,5.478,0,0,0,.778.726C59.34,132.785,59.635,132.451,59.975,132.146Z"/><path class="cls-6" d="M61.653,121.821c-.248.47-.508.737-.462.929a2.685,2.685,0,0,0,.547.8c.224-.211.649-.447.627-.629C62.329,122.611,62.01,122.336,61.653,121.821Z"/><path class="cls-6" d="M100.268,122.537l-.63.755c.246.2.47.511.749.576.164.037.416-.312.628-.487Z"/><path class="cls-6" d="M85.509,116.947l-.028.315a2.621,2.621,0,0,0,.736.536c.123.037.536-.363.506-.439a1.7,1.7,0,0,0-.578-.757C86.051,116.54,85.728,116.822,85.509,116.947Z"/><path class="cls-6" d="M96.061,119.331c-.359-.255-.663-.571-.756-.518a1.8,1.8,0,0,0-.646.719c-.035.068.383.512.472.477A4.606,4.606,0,0,0,96.061,119.331Z"/><path class="cls-6" d="M52.348,124.414l-.116-.291-1.352-.2c.219.587-.015,1.232.687,1.131C51.852,125.011,52.089,124.637,52.348,124.414Z"/><path class="cls-6" d="M99.664,120.06l-.723.855c.252.182.513.513.754.5.2-.011.466-.406.533-.673C100.263,120.6,99.933,120.371,99.664,120.06Z"/><path class="cls-6" d="M65.081,128.891l.688.732c.223-.237.547-.446.629-.725.047-.16-.3-.435-.469-.658Z"/><path class="cls-6" d="M92.381,124.281c.435-.207,1.128-.095.882-.934-.155-.527-.528-.379-.792-.262C91.85,123.36,92.063,123.8,92.381,124.281Z"/><path class="cls-6" d="M58.069,125.618a6.608,6.608,0,0,0-1.115-.659c-.1-.034-.316.27-.478.419a6.134,6.134,0,0,0,.838.739C57.386,126.163,57.654,125.9,58.069,125.618Z"/><path class="cls-6" d="M95.6,115.654c.408-.307,1.153-.183.942-.982-.119-.454-.467-.514-.841-.3C95.08,114.718,95.444,115.155,95.6,115.654Z"/><path class="cls-6" d="M83.328,136.326l.23.186a3.992,3.992,0,0,0,.93-.539c.089-.086-.025-.545-.179-.672s-.646-.137-.692-.047A4.794,4.794,0,0,0,83.328,136.326Z"/><path class="cls-6" d="M38.583,126.853a3.488,3.488,0,0,0,.552-1c.018-.134-.368-.451-.573-.453s-.642.339-.618.415A5.123,5.123,0,0,0,38.583,126.853Z"/><path class="cls-6" d="M73.846,124.686l.193.184a6.241,6.241,0,0,0,1.057-.362c.046-.024-.06-.612-.22-.694a.885.885,0,0,0-.8.089C73.9,124.05,73.914,124.416,73.846,124.686Z"/><path class="cls-6" d="M41.477,125.346c-.507.3-.881.521-.559,1a1.118,1.118,0,0,0,.561.456c.118.033.471-.267.451-.347A7.909,7.909,0,0,0,41.477,125.346Z"/><path class="cls-6" d="M45.073,123.425c.328-.751.56-1.255-.133-1.448-.22-.061-.536.22-.808.344Z"/><path class="cls-6" d="M95.837,123.377c-.216.656-.43,1.167.3,1.382.186.054.589-.041.621-.149C96.983,123.882,96.344,123.769,95.837,123.377Z"/><path class="cls-6" d="M55.972,129.494c.352.28.585.6.766.575.234-.035.612-.371.593-.538-.03-.259-.345-.484-.539-.723Z"/><path class="cls-6" d="M67.087,120.371l.077.4a5.027,5.027,0,0,0,.987.131c.121,0,.357-.346.322-.406-.149-.253-.389-.646-.579-.637C67.617,119.869,67.355,120.184,67.087,120.371Z"/><path class="cls-6" d="M41.133,121.163c-.271.3-.63.577-.587.667.128.272.4.627.64.65.2.02.444-.385.668-.6Z"/><path class="cls-6" d="M47.088,127.209c.366.227.623.5.765.451a2.952,2.952,0,0,0,.758-.585c-.238-.2-.47-.535-.717-.546C47.681,126.519,47.452,126.883,47.088,127.209Z"/><path class="cls-6" d="M92.465,128.015c-.207-.514-.363-1.1-.965-.737-.247.147-.26.686-.429,1.2Z"/><path class="cls-6" d="M55.8,115.85c-1,.567-1,.567-.095,1.34C56.537,116.762,56.557,116.468,55.8,115.85Z"/><path class="cls-6" d="M101.09,129.813l.088.3a6.635,6.635,0,0,0,1.107.116,1.066,1.066,0,0,0,.11-.681c-.048-.165-.4-.41-.487-.366A4.574,4.574,0,0,0,101.09,129.813Z"/><path class="cls-6" d="M80.85,133.558c-.43-.291-.675-.558-.954-.6-.137-.022-.474.372-.473.577s.326.564.494.556C80.182,134.078,80.435,133.813,80.85,133.558Z"/><path class="cls-6" d="M77.516,134.95c-.262.4-.543.646-.534.877s.321.427.5.639c.211-.242.515-.458.6-.738C78.122,135.575,77.791,135.312,77.516,134.95Z"/><path class="cls-6" d="M65.979,134.767c-.438-.252-.68-.5-.841-.458-.26.07-.467.335-.7.517.18.2.384.581.535.561C65.256,135.351,65.506,135.08,65.979,134.767Z"/><path class="cls-6" d="M54.729,111.08l.094.26,1.285-.152-.415-1.094-.259-.007Z"/><path class="cls-6" d="M80.8,136.873l-.08.261.933.932.334-.151c-.053-.378,0-.832-.2-1.1C81.68,136.668,81.141,136.842,80.8,136.873Z"/><path class="cls-6" d="M101.71,126.483c.313.3.545.63.646.594.259-.092.63-.339.64-.54.011-.227-.322-.471-.506-.708Z"/><path class="cls-6" d="M48.242,122.9a8.269,8.269,0,0,0,1.119.4c.078.016.342-.376.316-.408A12.344,12.344,0,0,0,48.79,122Z"/><path class="cls-6" d="M103.125,132.288c-.245.389-.536.651-.493.836.051.227.428.576.582.538a.966.966,0,0,0,.614-.619C103.861,132.884,103.468,132.638,103.125,132.288Z"/><path class="cls-6" d="M95.531,129.939c-.2-.5-.341-1.013-.951-.793a.781.781,0,0,0-.327.693C94.551,130.518,95.031,130.146,95.531,129.939Z"/><path class="cls-6" d="M98.254,130.453l-.413.216c-.146.237-.42.486-.4.709s.345.394.536.589c.2-.256.493-.487.569-.776C98.6,130.985,98.361,130.7,98.254,130.453Z"/><path class="cls-6" d="M86.455,128.281l-.314.021a4.751,4.751,0,0,0-.32.982c-.011.088.407.354.539.3.211-.08.486-.358.483-.549C86.839,128.784,86.6,128.533,86.455,128.281Z"/><path class="cls-6" d="M67.08,135.838c-.3.313-.586.54-.556.6a5.723,5.723,0,0,0,.606.811c.188-.171.549-.369.528-.507C67.616,136.474,67.358,136.242,67.08,135.838Z"/><path class="cls-6" d="M41.56,130.094l.12-.333a6.161,6.161,0,0,0-.864-.624c-.089-.045-.434.158-.445.268-.022.222.056.618.182.658A3.509,3.509,0,0,0,41.56,130.094Z"/><path class="cls-6" d="M36.739,129.68c.037.416-.292,1.018.5,1.014.211,0,.617-.327.6-.448C37.749,129.705,37.428,129.378,36.739,129.68Z"/><path class="cls-6" d="M58.284,119.306c-.318.436-.6.661-.629.915-.022.186.285.411.446.619.2-.216.494-.4.583-.657C58.74,120.019,58.5,119.753,58.284,119.306Z"/><path class="cls-6" d="M87.672,133.636c.372.332.641.694.757.651.261-.1.446-.4.662-.616-.2-.192-.371-.5-.595-.54C88.312,133.1,88.069,133.377,87.672,133.636Z"/><path class="cls-6" d="M80.643,121.179l-.34.985c1.022.31,1.022.31,1.218-.94Z"/><path class="cls-6" d="M61.144,129.718c.3-.315.633-.583.6-.652-.137-.258-.369-.564-.621-.624-.15-.037-.514.322-.57.554C60.513,129.147,60.859,129.389,61.144,129.718Z"/><path class="cls-6" d="M77.751,131.825l.124.353a3.9,3.9,0,0,0,.981.019c.107-.023.248-.439.18-.583-.089-.187-.431-.438-.558-.388A2.878,2.878,0,0,0,77.751,131.825Z"/><path class="cls-6" d="M46.39,117.446c-.383-.213-.622-.441-.873-.454-.173-.01-.362.276-.544.43a2.513,2.513,0,0,0,.71.537C45.814,118,46.05,117.705,46.39,117.446Z"/><path class="cls-6" d="M66.093,125.879a6.106,6.106,0,0,0,1.138.269c.152,0,.309-.209.464-.324a3.489,3.489,0,0,0-.848-.532C66.72,125.253,66.49,125.558,66.093,125.879Z"/><path class="cls-6" d="M49.313,113.74c-.266.393-.558.645-.512.8.07.234.37.4.573.593.147-.2.395-.4.411-.616C49.8,114.323,49.555,114.114,49.313,113.74Z"/><path class="cls-11" d="M70.574,128.124c.883-.155,1.4.042,1.38.582a.727.727,0,0,1-.471.508C70.839,129.33,70.625,129.041,70.574,128.124Z"/><path class="cls-11" d="M104,119.085c.293.365.612.674.573.73a1.8,1.8,0,0,1-.77.7c-.134.046-.428-.382-.65-.595Z"/><path class="cls-11" d="M83.653,131.417a7.025,7.025,0,0,1-.978.665c-.067.032-.405-.281-.449-.473s.087-.6.2-.628a4.735,4.735,0,0,1,1.1,0Z"/><path class="cls-11" d="M44.28,126.615c-.247-.475-.478-.717-.473-.955a.66.66,0,0,1,.8-.675.754.754,0,0,1,.415.62C44.937,125.91,44.64,126.154,44.28,126.615Z"/><path class="cls-11" d="M54.982,133.774c-.371.37-.563.716-.742.709-.351-.014-.785-.181-.675-.683.052-.237.334-.638.418-.616A4.413,4.413,0,0,1,54.982,133.774Z"/><path class="cls-11" d="M100.863,134.464l-.779-1.036c.223-.152.541-.481.651-.422a2.01,2.01,0,0,1,.7.755C101.478,133.827,101.17,134.1,100.863,134.464Z"/><path class="cls-11" d="M91.335,131.954c-.441.336-.356,1.25-1.129.806-.26-.149-.319-.647-.469-.986l.243-.206Z"/><path class="cls-11" d="M71.081,135.12a6.6,6.6,0,0,1,.77-.664.672.672,0,0,1,.579-.08.659.659,0,0,1,.214.573c-.055.2-.274.484-.453.509a3.829,3.829,0,0,1-1.023-.117Z"/><path class="cls-11" d="M93.845,135.3a3.1,3.1,0,0,1-.83-.625c-.089-.13.077-.582.254-.705s.675-.068.726.046a3.937,3.937,0,0,1,.18,1.078Z"/><path class="cls-11" d="M105.585,123.8c-.241-.385-.524-.646-.474-.8a2.658,2.658,0,0,1,.585-.74c.218.248.542.471.61.755C106.343,123.172,105.942,123.431,105.585,123.8Z"/><path class="cls-11" d="M98.5,127.408c-.566-.15-1.042-.376-.968-1,.017-.143.56-.395.728-.316C98.815,126.352,98.886,126.831,98.5,127.408Z"/><path class="cls-11" d="M68.249,132.237c.41.327.825.507.949.808.087.208-.227.582-.364.887C67.837,133.647,68.146,133.028,68.249,132.237Z"/><path class="cls-11" d="M65.99,130.652l.752,1.073c-.225.138-.529.443-.658.382a1.714,1.714,0,0,1-.668-.715C65.375,131.318,65.67,131.055,65.99,130.652Z"/><path class="cls-11" d="M47.672,118.744c.3-.36.447-1,1.082-.657a.9.9,0,0,1,.246.841C48.583,119.5,48.123,119.221,47.672,118.744Z"/><path class="cls-11" d="M81.868,126.408c-.03.651-.1,1.163-.787,1.073a.784.784,0,0,1-.475-.606C80.722,126.054,81.317,126.386,81.868,126.408Z"/><path class="cls-11" d="M86.135,139.162l-1.271-.587a3.583,3.583,0,0,1,.664-.836c.122-.085.624.089.649.208A5.1,5.1,0,0,1,86.135,139.162Z"/><path class="cls-11" d="M76.982,129.7c-.273.126-.553.358-.817.342-.19-.011-.36-.354-.539-.548.25-.222.471-.535.761-.626.147-.046.42.312.635.487Z"/><path class="cls-11" d="M46.3,131.283c-.288-.356-.606-.584-.576-.749.048-.267.324-.493.5-.736a2.988,2.988,0,0,1,.718.693C47,130.587,46.617,130.91,46.3,131.283Z"/><path class="cls-11" d="M105.06,116.251c.416-.3.671-.616.915-.608.214.008.592.4.576.6a.872.872,0,0,1-.6.615C105.725,116.876,105.463,116.542,105.06,116.251Z"/><path class="cls-11" d="M91.894,138.145a4.358,4.358,0,0,1-1.138.546c-.141.019-.522-.487-.474-.57a1.154,1.154,0,0,1,.7-.587C91.206,137.513,91.468,137.843,91.894,138.145Z"/><path class="cls-11" d="M73.241,133.434c.4-.266.669-.583.9-.557s.6.446.559.615a.988.988,0,0,1-.648.637C73.867,134.161,73.61,133.769,73.241,133.434Z"/><path class="cls-11" d="M85.4,123.945c.163.334.4.614.337.734a3.171,3.171,0,0,1-.669.682L84.4,124.6Z"/><path class="cls-11" d="M52.493,130.83c-.28-.419-.585-.676-.557-.888s.453-.605.575-.56a1.246,1.246,0,0,1,.668.665C53.225,130.165,52.837,130.451,52.493,130.83Z"/><path class="cls-11" d="M59.975,132.146c-.34.305-.635.639-.687.605a5.478,5.478,0,0,1-.778-.726c.2-.178.43-.518.607-.5C59.377,131.565,59.6,131.86,59.975,132.146Z"/><path class="cls-11" d="M61.653,121.821c.357.515.676.79.712,1.1.022.182-.4.418-.627.629a2.685,2.685,0,0,1-.547-.8C61.145,122.558,61.405,122.291,61.653,121.821Z"/><path class="cls-11" d="M100.268,122.537l.747.844c-.212.175-.464.524-.628.487-.279-.065-.5-.371-.749-.576Z"/><path class="cls-11" d="M85.509,116.947c.219-.125.542-.407.636-.345a1.7,1.7,0,0,1,.578.757c.03.076-.383.476-.506.439a2.621,2.621,0,0,1-.736-.536Z"/><path class="cls-11" d="M96.061,119.331a4.606,4.606,0,0,1-.93.678c-.089.035-.507-.409-.472-.477a1.8,1.8,0,0,1,.646-.719C95.4,118.76,95.7,119.076,96.061,119.331Z"/><path class="cls-11" d="M52.348,124.414c-.259.223-.5.6-.781.638-.7.1-.468-.544-.687-1.131l1.352.2Z"/><path class="cls-11" d="M99.664,120.06c.269.311.6.542.564.682-.067.267-.332.662-.533.673-.241.013-.5-.318-.754-.5Z"/><path class="cls-11" d="M65.081,128.891l.848-.651c.169.223.516.5.469.658-.082.279-.406.488-.629.725Z"/><path class="cls-11" d="M92.381,124.281c-.318-.48-.531-.921.09-1.2.264-.117.637-.265.792.262C93.509,124.186,92.816,124.074,92.381,124.281Z"/><path class="cls-11" d="M58.069,125.618c-.415.282-.683.545-.755.5a6.134,6.134,0,0,1-.838-.739c.162-.149.378-.453.478-.419A6.608,6.608,0,0,1,58.069,125.618Z"/><path class="cls-11" d="M95.6,115.654c-.156-.5-.52-.936.1-1.285.374-.211.722-.151.841.3C96.753,115.471,96.008,115.347,95.6,115.654Z"/><path class="cls-11" d="M83.328,136.326a4.794,4.794,0,0,1,.289-1.072c.046-.09.538-.08.692.047s.268.586.179.672a3.992,3.992,0,0,1-.93.539Z"/><path class="cls-11" d="M38.583,126.853a5.123,5.123,0,0,1-.639-1.035c-.024-.076.4-.417.618-.415s.591.319.573.453A3.488,3.488,0,0,1,38.583,126.853Z"/><path class="cls-11" d="M73.846,124.686c.068-.27.054-.636.226-.783a.885.885,0,0,1,.8-.089c.16.082.266.67.22.694a6.241,6.241,0,0,1-1.057.362Z"/><path class="cls-11" d="M41.477,125.346a7.909,7.909,0,0,1,.453,1.113c.02.08-.333.38-.451.347a1.118,1.118,0,0,1-.561-.456C40.6,125.867,40.97,125.647,41.477,125.346Z"/><path class="cls-11" d="M45.073,123.425l-.941-1.1c.272-.124.588-.405.808-.344C45.633,122.17,45.4,122.674,45.073,123.425Z"/><path class="cls-11" d="M95.837,123.377c.507.392,1.146.505.926,1.233-.032.108-.435.2-.621.149C95.407,124.544,95.621,124.033,95.837,123.377Z"/><path class="cls-11" d="M55.972,129.494l.82-.686c.194.239.509.464.539.723.019.167-.359.5-.593.538C56.557,130.1,56.324,129.774,55.972,129.494Z"/><path class="cls-11" d="M67.087,120.371c.268-.187.53-.5.807-.515.19-.009.43.384.579.637.035.06-.2.4-.322.406a5.027,5.027,0,0,1-.987-.131Z"/><path class="cls-11" d="M41.133,121.163l.721.715c-.224.217-.467.622-.668.6-.243-.023-.512-.378-.64-.65C40.5,121.74,40.862,121.46,41.133,121.163Z"/><path class="cls-11" d="M47.088,127.209c.364-.326.593-.69.806-.68.247.011.479.35.717.546a2.952,2.952,0,0,1-.758.585C47.711,127.71,47.454,127.436,47.088,127.209Z"/><path class="cls-11" d="M92.465,128.015l-1.394.46c.169-.511.182-1.05.429-1.2C92.1,126.919,92.258,127.5,92.465,128.015Z"/><path class="cls-11" d="M55.8,115.85c.753.618.733.912-.095,1.34C54.8,116.417,54.8,116.417,55.8,115.85Z"/><path class="cls-11" d="M101.09,129.813a4.574,4.574,0,0,1,.818-.627c.091-.044.439.2.487.366a1.066,1.066,0,0,1-.11.681,6.635,6.635,0,0,1-1.107-.116Z"/><path class="cls-11" d="M80.85,133.558c-.415.255-.668.52-.933.532-.168.008-.493-.357-.494-.556s.336-.6.473-.577C80.175,133,80.42,133.267,80.85,133.558Z"/><path class="cls-11" d="M77.516,134.95c.275.362.606.625.561.778-.081.28-.385.5-.6.738-.178-.212-.491-.42-.5-.639S77.254,135.354,77.516,134.95Z"/><path class="cls-11" d="M65.979,134.767c-.473.313-.723.584-1,.62-.151.02-.355-.361-.535-.561.23-.182.437-.447.7-.517C65.3,134.265,65.541,134.515,65.979,134.767Z"/><path class="cls-11" d="M54.729,111.08l.7-.993.259.007.415,1.094-1.285.152Z"/><path class="cls-11" d="M80.8,136.873c.343-.031.882-.2.987-.061.2.271.147.725.2,1.1l-.334.151-.933-.932Z"/><path class="cls-11" d="M101.71,126.483l.78-.654c.184.237.517.481.506.708-.01.2-.381.448-.64.54C102.255,127.113,102.023,126.781,101.71,126.483Z"/><path class="cls-11" d="M48.242,122.9l.548-.9a12.344,12.344,0,0,1,.887.889c.026.032-.238.424-.316.408A8.269,8.269,0,0,1,48.242,122.9Z"/><path class="cls-11" d="M103.125,132.288c.343.35.736.6.7.755a.966.966,0,0,1-.614.619c-.154.038-.531-.311-.582-.538C102.589,132.939,102.88,132.677,103.125,132.288Z"/><path class="cls-11" d="M95.531,129.939c-.5.207-.98.579-1.278-.1a.781.781,0,0,1,.327-.693C95.19,128.926,95.332,129.437,95.531,129.939Z"/><path class="cls-11" d="M98.254,130.453c.107.249.345.532.291.738-.076.289-.369.52-.569.776-.191-.2-.517-.379-.536-.589s.255-.472.4-.709Z"/><path class="cls-11" d="M86.455,128.281c.14.252.384.5.388.757,0,.191-.272.469-.483.549-.132.051-.55-.215-.539-.3a4.751,4.751,0,0,1,.32-.982Z"/><path class="cls-11" d="M67.08,135.838c.278.4.536.636.578.9.021.138-.34.336-.528.507a5.723,5.723,0,0,1-.606-.811C66.494,136.378,66.783,136.151,67.08,135.838Z"/><path class="cls-11" d="M41.56,130.094a3.509,3.509,0,0,1-1.007-.031c-.126-.04-.2-.436-.182-.658.011-.11.356-.313.445-.268a6.161,6.161,0,0,1,.864.624Z"/><path class="cls-11" d="M36.739,129.68c.689-.3,1.01.025,1.1.566.019.121-.387.447-.6.448C36.447,130.7,36.776,130.1,36.739,129.68Z"/><path class="cls-11" d="M58.284,119.306c.216.447.456.713.4.877-.089.255-.379.441-.583.657-.161-.208-.468-.433-.446-.619C57.685,119.967,57.966,119.742,58.284,119.306Z"/><path class="cls-11" d="M87.672,133.636c.4-.259.64-.54.824-.5.224.042.4.348.595.54-.216.218-.4.518-.662.616C88.313,134.33,88.044,133.968,87.672,133.636Z"/><path class="cls-11" d="M80.643,121.179l.878.045c-.2,1.25-.2,1.25-1.218.94Z"/><path class="cls-11" d="M61.144,129.718c-.285-.329-.631-.571-.595-.722.056-.232.42-.591.57-.554.252.06.484.366.621.624C61.777,129.135,61.439,129.4,61.144,129.718Z"/><path class="cls-11" d="M77.751,131.825a2.878,2.878,0,0,1,.727-.6c.127-.05.469.2.558.388.068.144-.073.56-.18.583a3.9,3.9,0,0,1-.981-.019Z"/><path class="cls-11" d="M46.39,117.446c-.34.259-.576.554-.707.513a2.513,2.513,0,0,1-.71-.537c.182-.154.371-.44.544-.43C45.768,117.005,46.007,117.233,46.39,117.446Z"/><path class="cls-11" d="M66.093,125.879c.4-.321.627-.626.754-.587a3.489,3.489,0,0,1,.848.532c-.155.115-.312.328-.464.324A6.106,6.106,0,0,1,66.093,125.879Z"/><path class="cls-11" d="M49.313,113.74c.242.374.486.583.472.773-.016.214-.264.411-.411.616-.2-.194-.5-.359-.573-.593C48.755,114.385,49.047,114.133,49.313,113.74Z"/><path class="cls-12" d="M72.4,38.83s-2.054-.6-2.494.9-1.467,3.884,1.247,5.229S75.175,40.932,72.4,38.83Z"/><ellipse class="cls-13" cx="71.004" cy="42.92" rx="1.672" ry="1.765"/><path class="cls-12" d="M89.467,37.886s-2.054-.6-2.494.9-1.467,3.884,1.247,5.228S92.247,39.989,89.467,37.886Z"/><ellipse class="cls-13" cx="88.003" cy="41.926" rx="1.672" ry="1.765"/><path class="cls-9" d="M94.132,21.211l.334.157a7.839,7.839,0,0,1,.93.472,12.346,12.346,0,0,1,2.928,2.343,14.614,14.614,0,0,1,1.538,2,13.124,13.124,0,0,1,1.248,2.536A13.609,13.609,0,0,1,101.9,34.8a15.232,15.232,0,0,1-.733,3.044c-.329.968-.7,1.893-1.018,2.791a21.68,21.68,0,0,0-.78,2.612,8.587,8.587,0,0,0-.149,2.4,5.994,5.994,0,0,0,1.244,3.354,4.67,4.67,0,0,0,.751.7l.3.209-.327-.174a4.164,4.164,0,0,1-.836-.638A5.963,5.963,0,0,1,98.8,45.7a9.1,9.1,0,0,1,.031-2.547,16.2,16.2,0,0,1,.7-2.727c.311-.919.663-1.848.969-2.8a14.82,14.82,0,0,0,.653-2.909,12.9,12.9,0,0,0-.66-5.778,15.977,15.977,0,0,0-1.1-2.475,14.179,14.179,0,0,0-1.388-2.006,14.79,14.79,0,0,0-1.428-1.5,11.369,11.369,0,0,0-1.256-1c-.354-.272-.677-.428-.876-.562Z"/><path class="cls-9" d="M88.73,20.087l.244.055a5.329,5.329,0,0,1,.687.179,8.467,8.467,0,0,1,1.04.4,8.182,8.182,0,0,1,1.263.714A10.663,10.663,0,0,1,93.3,22.524a9.646,9.646,0,0,1,2.816,5.381,11.188,11.188,0,0,1,.1,2.137c-.019.7-.092,1.37-.136,2.017a11.547,11.547,0,0,0,.107,3.472,5.483,5.483,0,0,0,.983,2.232,3.981,3.981,0,0,0,.665.676l-.214-.131a3.673,3.673,0,0,1-.56-.447,5.214,5.214,0,0,1-1.282-2.223,10.905,10.905,0,0,1-.358-3.614c.023-.649.047-1.32.071-2a10.537,10.537,0,0,0-.118-2A9.506,9.506,0,0,0,94,24.363a10.187,10.187,0,0,0-2.285-2.591,13.532,13.532,0,0,0-1.143-.806,8.325,8.325,0,0,0-.958-.508C89.061,20.206,88.73,20.087,88.73,20.087Z"/><path class="cls-9" d="M93,17.234s.518.245,1.4.731a33.968,33.968,0,0,1,3.534,2.211,23.977,23.977,0,0,1,4.379,3.986,16.655,16.655,0,0,1,3.257,6,13.707,13.707,0,0,1,.2,6.83,10.1,10.1,0,0,1-1.223,2.928c-.514.874-1.159,1.57-1.633,2.262a4.912,4.912,0,0,0-.93,2.039,2.951,2.951,0,0,0,.252,1.7,1.9,1.9,0,0,0,.747.834,1.93,1.93,0,0,0,.374.165,2.048,2.048,0,0,1-.393-.128,1.908,1.908,0,0,1-.856-.8,3.158,3.158,0,0,1-.4-1.8,4.824,4.824,0,0,1,.856-2.246c.465-.746,1.065-1.454,1.512-2.3a10.985,10.985,0,0,0,1.063-2.8,13.049,13.049,0,0,0-.29-6.476,15.931,15.931,0,0,0-3.039-5.789,26.212,26.212,0,0,0-4.131-4.062c-1.336-1.062-2.516-1.875-3.354-2.422Z"/><path class="cls-9" d="M64.706,21.27a5.33,5.33,0,0,0-.749.407,6.225,6.225,0,0,0-1.6,1.507,7.226,7.226,0,0,0-.76,1.246,9.641,9.641,0,0,0-.566,1.523,16.822,16.822,0,0,0-.536,3.53,28.086,28.086,0,0,0-.072,3.6,8.19,8.19,0,0,0,.759,2.978,22.4,22.4,0,0,0,1.056,1.976l.434.742s-.209-.234-.554-.659a14.3,14.3,0,0,1-1.311-1.867,7.994,7.994,0,0,1-1.041-3.105,21.8,21.8,0,0,1-.019-3.714,14.8,14.8,0,0,1,.655-3.675,7.99,7.99,0,0,1,1.632-2.843,5.674,5.674,0,0,1,1.851-1.366,3.585,3.585,0,0,1,.6-.22Z"/><path class="cls-9" d="M66.067,17.971l-.393.1a8.194,8.194,0,0,0-1.079.367,9.234,9.234,0,0,0-3.272,2.29,8.837,8.837,0,0,0-1.492,2.188,9.891,9.891,0,0,0-.8,2.833,30.469,30.469,0,0,0-.218,3.215c-.038,1.109-.067,2.23-.041,3.346a15.837,15.837,0,0,0,1.156,6.339,50.858,50.858,0,0,1,2.477,5.23,6.189,6.189,0,0,1-.026,4.108,3.806,3.806,0,0,1-.592.994l-.277.3.245-.323a4.181,4.181,0,0,0,.486-1.018,6.183,6.183,0,0,0-.234-3.919,15.23,15.23,0,0,0-1.191-2.413,30.142,30.142,0,0,1-1.484-2.7,13.283,13.283,0,0,1-.986-3.183,21.512,21.512,0,0,1-.323-3.4c-.01-1.141.038-2.276.092-3.386a31.29,31.29,0,0,1,.273-3.284,8.943,8.943,0,0,1,2.634-5.217A8.9,8.9,0,0,1,64.546,18.3a6.636,6.636,0,0,1,1.12-.27Z"/></svg>