<svg id="word" xmlns="http://www.w3.org/2000/svg" viewBox="0 0 160 160"><defs><style>.cls-1{fill:#1474ba;}.cls-1,.cls-2,.cls-3,.cls-4,.cls-5{stroke:#9d4b9c;stroke-miterlimit:10;stroke-width:1.213px;}.cls-2{fill:#195994;}.cls-3{fill:#1e3e75;}.cls-4{fill:none;stroke-linecap:round;}.cls-5{fill:#3362ad;}</style></defs><path class="cls-1" d="M101.075,74.249s.6-8.845,9.186-7.555,6.837,11.643,5.751,13.614c-2.273,4.121-9.212,2.741-10.917,2.651S100.024,78.42,101.075,74.249Z"/><path class="cls-2" d="M70.7,67.151s.6-8.844,9.186-7.554,6.837,11.642,5.75,13.613c-2.272,4.121-9.211,2.742-10.916,2.652S69.651,71.322,70.7,67.151Z"/><path class="cls-1" d="M76.306,73.814s.6-8.845,9.186-7.555,6.837,11.643,5.75,13.614c-2.272,4.12-9.211,2.741-10.916,2.651S75.255,77.985,76.306,73.814Z"/><path class="cls-2" d="M70.2,56.087S68.193,49.6,61.887,51.06s-11.155,5.432-7.526,11.953,8.663,3.4,10.9,3.331,5.732-6.527,5.552-7.4S70.2,56.087,70.2,56.087Z"/><path class="cls-3" d="M64.79,53.644s-6.043-.979-6.563.863,2.023,2.873,3.622,2.426S65.877,54.3,64.79,53.644Z"/><path class="cls-4" d="M61.263,55.224l.384-2.889c.238-1.781.475-3.563.694-5.346"/><path class="cls-5" d="M99.612,71.583s-8.136-1.1-9.939,2.367-6.461,9.934-2.452,14.877,8.348,2.7,11.779,1.329,6.039-3.7,6.032-7.654S107.438,71.448,99.612,71.583Z"/><path class="cls-3" d="M99.987,87.075s4.095-2.848,2.309-3.783-9.068-.581-8.983,1.892,2.215,3.424,4.366,3.282S99.987,87.075,99.987,87.075Z"/><path class="cls-4" d="M98.221,85.786a76.957,76.957,0,0,0,4.844,8.986"/><path class="cls-5" d="M122.547,75.371s-6.652-.938-9.911,1.855-4.765,7.76-3.068,10.716,8.708,6.119,11.73,3.987,7.795-9.063,6.477-10.577S124.233,75.505,122.547,75.371Z"/><path class="cls-3" d="M115.453,90.009s-3.522-2.573-1.557-3.307,8.053,2.076,6.94,2.915S115.453,90.009,115.453,90.009Z"/><path class="cls-4" d="M116.835,88.248a4.468,4.468,0,0,1-.856,2.036l-5,7.869"/><path class="cls-5" d="M53.709,84.208s-2.846-3.844-6.394-4.454-9.218,1.321-10.521,5.66,1.461,9.978,3.849,12.073,4.173,2.747,9.093-.485S54.145,85.428,53.709,84.208Z"/><path class="cls-3" d="M44.632,91.411s-2.6-4.975-4.011-4.7-.81,3.194-.216,5.444,2.738,4.39,3.541,2.894A8.106,8.106,0,0,0,44.632,91.411Z"/><path class="cls-4" d="M42.532,90.841a9.368,9.368,0,0,0-4.342.374,9.368,9.368,0,0,0-2.129,1.409L33.9,94.359c-.416.334-.834.669-1.219,1.038"/><path class="cls-1" d="M60.361,69.553s.6-8.845,9.186-7.555,6.837,11.643,5.75,13.614c-2.272,4.12-9.211,2.741-10.916,2.651S59.31,73.724,60.361,69.553Z"/><path class="cls-5" d="M47.265,71.087s1.966,6.528,8.047,7.236S65.99,72.5,65.448,68.982s-2.525-7.237-6.876-8.215-8.893,1.967-10.024,4.688S46.765,68.975,47.265,71.087Z"/><path class="cls-3" d="M56.465,71.777s-4.191-3.041-4.413-.643,1.866,2.872,3.832,4.394S61.036,74.87,56.465,71.777Z"/><path class="cls-5" d="M76.1,74.909s-9.447-.029-11.08,1.663S61.194,80.23,62.532,87s7.345,7.395,9.609,6.52,7.269-4.083,8.066-5.64.436-9.134-.067-10.3S76.1,74.909,76.1,74.909Z"/><path class="cls-3" d="M75.762,82s-8.207,3.337-6.272,6.77,4.664-.018,6.516-.644S79.574,81.007,75.762,82Z"/><path class="cls-4" d="M74.161,86.585l3.411,2.953c1.642,1.421,3.4,3.067,3.591,5.231"/></svg>