<svg id="word" xmlns="http://www.w3.org/2000/svg" viewBox="0 0 160 160"><defs><style>.cls-1{fill:#f6921e;}.cls-1,.cls-2,.cls-3,.cls-4{stroke:#9d4b9c;stroke-width:1.167px;}.cls-2{fill:#5397d1;}.cls-3{fill:#fff35c;}.cls-4{fill:#231f20;}</style></defs><path class="cls-1" d="M73.333,67.9s-1.728,37.108-.5,41.818c1.234,4.727.74,8.489,5.921,6.922s37.493-5.346,40.459-9.752,3.7-15.724,3.2-19.486c-.5-3.778,3.959-27.991-5.913-30.508S74.069,57.517,73.333,67.9Z"/><path class="cls-2" d="M70.6,64.744S48.65,38.65,47.175,44.318C45.7,49.969,42.488,90.212,48.413,97.76s26.4,24.543,27.127,17.3C76.291,107.825,77.767,74.809,70.6,64.744Z"/><path class="cls-3" d="M48.65,45.877s-2.593-3.609-.483-4.711c10.849-5.659,33.547-4.4,39.962-5.337,6.415-.957,19.494,3.762,21.713,8.159S125.63,60.347,119.947,62.55,77.027,72.309,70.118,68.2C63.216,64.118,48.65,45.877,48.65,45.877Z"/><path class="cls-4" d="M107.756,87.945c0,4.011-2.641,7.259-5.913,7.259-3.256,0-5.9-3.248-5.9-7.259s2.645-7.267,5.9-7.267C105.115,80.678,107.756,83.933,107.756,87.945Z"/><path class="cls-4" d="M57.774,66.5c0,4.285-1.737,7.766-3.883,7.766s-3.883-3.481-3.883-7.766,1.737-7.774,3.883-7.774S57.774,62.2,57.774,66.5Z"/><path class="cls-4" d="M68.582,91.152c0,4.663-1.588,8.441-3.545,8.441s-3.545-3.778-3.545-8.441,1.588-8.441,3.545-8.441S68.582,86.49,68.582,91.152Z"/><path class="cls-4" d="M72.638,46.56c0,2.251-2.946,4.068-6.588,4.068s-6.584-1.817-6.584-4.068c0-2.226,2.942-4.043,6.584-4.043S72.638,44.334,72.638,46.56Z"/><path class="cls-4" d="M99.146,44.205c0,2.227-2.946,4.052-6.58,4.052s-6.584-1.825-6.584-4.052,2.939-4.051,6.584-4.051S99.146,41.97,99.146,44.205Z"/><path class="cls-4" d="M84.117,60.749c0,2.235-2.95,4.052-6.583,4.052s-6.584-1.817-6.584-4.052S73.9,56.7,77.534,56.7,84.117,58.514,84.117,60.749Z"/><path class="cls-4" d="M110.634,58.386c0,2.234-2.963,4.052-6.588,4.052-3.642,0-6.592-1.818-6.592-4.052s2.95-4.044,6.592-4.044C107.671,54.342,110.634,56.159,110.634,58.386Z"/></svg>