<svg id="word" xmlns="http://www.w3.org/2000/svg" xmlns:xlink="http://www.w3.org/1999/xlink" viewBox="0 0 160 160"><defs><style>.cls-1{fill:#c0c1c3;}.cls-1,.cls-10,.cls-11,.cls-12,.cls-13,.cls-14,.cls-16,.cls-17,.cls-18,.cls-19,.cls-2,.cls-20,.cls-21,.cls-22,.cls-23,.cls-24,.cls-25,.cls-26,.cls-27,.cls-28,.cls-29,.cls-3,.cls-4,.cls-5,.cls-6,.cls-7,.cls-8,.cls-9{stroke:#9d4b9c;stroke-width:0.774px;}.cls-2{fill:#6a6d74;}.cls-3{fill:url(#radial-gradient);}.cls-4{fill:url(#radial-gradient-2);}.cls-5{fill:#b7b9bb;}.cls-6{fill:#434345;}.cls-7{fill:none;}.cls-8{fill:#3e3e3f;}.cls-9{fill:#ba362d;}.cls-10{fill:#ba4a40;}.cls-11{fill:#a55e59;}.cls-12{fill:#ec1c24;}.cls-13{fill:#5a5b5d;}.cls-14{fill:#1a0f07;}.cls-15{fill:#9d4b9c;}.cls-16{fill:url(#Radial_Gradient_3);}.cls-17{fill:#312620;}.cls-18{fill:#353435;}.cls-19{fill:#b15c20;}.cls-20{fill:#f47e31;}.cls-21{fill:#fce3da;}.cls-22{fill:#580032;}.cls-23{fill:#d6de23;}.cls-24{fill:#fff;}.cls-25{fill:#231f20;}.cls-26{fill:#26a9e0;opacity:0.28;}.cls-27{fill:url(#Radial_Gradient_3-2);}.cls-28{fill:url(#Linear_Gradient_2);}.cls-29{fill:url(#Radial_Gradient_3-3);}</style><radialGradient id="radial-gradient" cx="5304.031" cy="141.496" r="9.048" gradientTransform="matrix(-1, -0.015, -0.015, 1, 5387.434, 27.262)" gradientUnits="userSpaceOnUse"><stop offset="0" stop-color="#fff"/><stop offset="1" stop-color="#606163"/></radialGradient><radialGradient id="radial-gradient-2" cx="5319.074" cy="144.168" r="10.626" gradientTransform="matrix(-1, -0.015, -0.015, 1, 5387.434, 27.262)" gradientUnits="userSpaceOnUse"><stop offset="0" stop-color="#fff"/><stop offset="1" stop-color="#5d5e60"/></radialGradient><radialGradient id="Radial_Gradient_3" cx="5351.593" cy="158.114" r="3.932" gradientTransform="matrix(-1, -0.015, -0.015, 1, 5387.434, 27.262)" gradientUnits="userSpaceOnUse"><stop offset="0" stop-color="#fff"/><stop offset="1" stop-color="#231f20"/></radialGradient><radialGradient id="Radial_Gradient_3-2" cx="5298.911" cy="120.264" r="3.561" xlink:href="#Radial_Gradient_3"/><linearGradient id="Linear_Gradient_2" x1="5296.755" y1="119.641" x2="5301.311" y2="119.641" gradientTransform="matrix(-1, -0.015, -0.015, 1, 5387.434, 27.262)" xlink:href="#Radial_Gradient_3"/><radialGradient id="Radial_Gradient_3-3" cx="5299.033" cy="118.626" r="1.622" xlink:href="#Radial_Gradient_3"/></defs><path class="cls-1" d="M90.028,82.8s7.909.173,9.91,6.747-.374,11.158-1.918,12.888-3.681,3.8-4.591,2.147a48.757,48.757,0,0,0-2.855-4.249,4.218,4.218,0,0,0,1.12-4.423,20.314,20.314,0,0,0-3.3-5.541l1.765-.791,4.79,7.552,1.732,1.311s2.523-4.517.7-7.232-7.734-5.962-7.734-5.962Z"/><path class="cls-2" d="M51.3,83.328s10.826,19.156,11.154,19.908,3.222,2.151,4.044,1.554,4.03-1.837,4.377-2.374-.138-4.207-.138-4.207-4.087-2.567-5.241-4.073S58.418,83.3,58.418,83.3s-5.9-4.432-6.913-4.651a21.051,21.051,0,0,0-3.661-.056Z"/><path class="cls-3" d="M91.585,80.257s3.57,10.921-1.122,12.133-13.564.842-13.564.842S69.83,81.907,71.367,80.646,91.585,80.257,91.585,80.257Z"/><path class="cls-4" d="M77.64,90.556s1.288,7.381-1.764,8.385S67.7,98.7,67.7,98.7L55.949,80.525,71.51,79.013Z"/><path class="cls-5" d="M98.618,56.066s1.05-.043,1.174-.391,2.439-2.884,2.964-2.876,1.241-.914,1.991-.26.8,1.064.1,1.228a2.639,2.639,0,0,1-1.4-.022c-.175-.061-.582-.125-.888.8s-.029,1.869-.906,1.914-4.713.646-4.713.646l-.183-1.359Z"/><path class="cls-6" d="M92.174,53.611A1.8,1.8,0,1,0,94,51.774,1.832,1.832,0,0,0,92.174,53.611Z"/><polyline class="cls-7" points="34.136 87.822 34.488 102.355 35.346 117.703"/><polyline class="cls-7" points="46.562 93.259 33.663 103.496 21.642 112.937"/><polyline class="cls-7" points="30.037 88.161 34.692 104.087 39.621 117.136"/><polyline class="cls-7" points="43.864 114.895 34.812 103.744 25.104 90.276"/><polyline class="cls-7" points="37.822 88.05 34.174 103.965 31.184 118.504"/><polyline class="cls-7" points="43.27 89.923 34.303 103.102 26.831 116.592"/><polyline class="cls-7" points="46.784 112.461 34.303 103.102 22.003 93.168"/><polyline class="cls-7" points="48.926 96.986 34.073 103.127 18.715 108.28"/><polyline class="cls-7" points="49.972 100.173 34.073 103.127 17.581 103.304"/><polyline class="cls-7" points="18.409 98.244 34.538 102.875 48.973 108.92"/><line class="cls-7" x1="51.172" y1="104.63" x2="34.073" y2="103.127"/><path class="cls-8" d="M13.244,102.445C13.065,114.1,22.611,123.7,34.565,123.88s21.793-9.113,21.973-20.766S47.173,81.862,35.216,81.678,13.424,90.791,13.244,102.445Zm8.274.128A13.175,13.175,0,0,1,35.091,89.815a12.972,12.972,0,1,1-.4,25.929A13.175,13.175,0,0,1,21.518,102.573Z"/><path class="cls-7" d="M24.163,103.078c-.081,5.224,4.456,9.531,10.133,9.618s10.343-4.077,10.424-9.3-4.456-9.532-10.132-9.62S24.244,97.852,24.163,103.078Z"/><path class="cls-2" d="M28.211,103A6.192,6.192,0,1,0,34.5,97.023,6.134,6.134,0,0,0,28.211,103Z"/><polygon class="cls-9" points="117.258 85.911 124.658 94.67 121.976 98.192 112.887 89.056 117.258 85.911"/><polyline class="cls-7" points="125.298 84.157 125.65 98.691 126.509 114.039"/><polyline class="cls-7" points="137.725 89.595 124.827 99.831 112.804 109.273"/><polyline class="cls-7" points="121.199 84.497 125.854 100.423 130.784 113.472"/><polyline class="cls-7" points="135.028 111.231 125.974 100.079 116.266 86.612"/><polyline class="cls-7" points="128.985 84.387 125.338 100.3 122.347 114.84"/><polyline class="cls-7" points="134.433 86.259 125.466 99.437 117.994 112.928"/><polyline class="cls-7" points="137.947 108.797 125.466 99.437 113.166 89.505"/><polyline class="cls-7" points="140.088 93.322 125.235 99.463 109.879 104.616"/><polyline class="cls-7" points="141.135 96.508 125.235 99.463 108.744 99.64"/><polyline class="cls-7" points="109.572 94.581 125.7 99.211 140.136 105.256"/><line class="cls-7" x1="142.335" y1="100.966" x2="125.235" y2="99.463"/><path class="cls-8" d="M104.407,98.781c-.181,11.653,9.366,21.251,21.322,21.435S147.521,111.1,147.7,99.449,138.335,78.2,126.38,78.014,104.586,87.126,104.407,98.781Zm8.273.128a13.382,13.382,0,1,1,13.174,13.17A13.176,13.176,0,0,1,112.68,98.909Z"/><path class="cls-7" d="M115.326,99.413c-.081,5.224,4.456,9.531,10.132,9.618s10.344-4.076,10.425-9.3-4.456-9.531-10.133-9.619S115.406,94.188,115.326,99.413Z"/><path class="cls-2" d="M119.373,99.337a6.192,6.192,0,1,0,6.284-5.978A6.135,6.135,0,0,0,119.373,99.337Z"/><path class="cls-5" d="M96.761,55.278a16.112,16.112,0,0,1,.878,3.634,2.561,2.561,0,0,1-.792,2.151c-.655.749-1.32,2.2-1.555,2.311s-.478.635-1.115.334-1.45-.665-.329-1.349a5.073,5.073,0,0,0,2.1-3.53,7.847,7.847,0,0,0-.708-3.4l.009-.585.828-.63Z"/><path class="cls-10" d="M92.408,64.732s5.693,2.075,5.619,6.862-3.3,9.413-3.3,9.413-.917-1.183-5.495.266-11.706,1.454-13.677.489-3.371-1.1-3.572-3.209-3.635-6.716,2.141-10.014A26.8,26.8,0,0,1,86.8,64.645C89.257,64.566,92.408,64.732,92.408,64.732Z"/><path class="cls-11" d="M90.266,67.385s4.75,2.527,4.947,4.866-2.326,6.858-2.326,6.858l-9.352.44L80.188,69.333S88.052,66.885,90.266,67.385Z"/><path class="cls-9" d="M103.2,58.181s2.335,3.892,2.294,6.519-.372,9.048-.61,9.336-3.392.3-5.135-.428-2.6-1.968-3.384-3.966-2.884-2.323-.628-4.743S100.509,58.373,103.2,58.181Z"/><path class="cls-5" d="M104.14,57.844s.121-.289,1.4-.036,5,1.3,5.26,7.324a20.425,20.425,0,0,1-2.558,10.592s-4.581-2.173-4.755-2.292,2.4-2.981,1.636-6.5a32,32,0,0,0-2.184-7.121c-.4-.533-1.376-1.716-1.376-1.716Z"/><path class="cls-12" d="M96.018,61.75s.1.132.283.358a66.274,66.274,0,0,0,5.112,5.859c1.729,1.545,11.217,11.213,11.217,11.213s3.518,2.917,2.5,4.362a24.116,24.116,0,0,1-3.911,3.619L93.772,63.41l2.241-1.369"/><path class="cls-12" d="M136.894,77.743a20.006,20.006,0,0,0-17.09-1.548c-9.692,3.471-14,8.6-16.014,11.845-3.184,5.137-2.3,16.728-2.2,17.839s.475,3.221.738,1.356,2.328-7.09,2.7-8.488,5.306-10.84,7.734-12.906a39.375,39.375,0,0,1,10.9-5.907c3.935-1.4,13.057-1.959,13.057-1.959Z"/><polygon class="cls-12" points="56.109 87.947 36.432 99.909 38.042 101.569 59.619 93.426 56.109 87.947"/><path class="cls-12" d="M43.4,83.544,35.275,99.191l-1.7.032,3.413-16.77s2.237-1.076,3.456-.648A14.424,14.424,0,0,1,43.4,83.544Z"/><path class="cls-13" d="M58.232,80.269A5.447,5.447,0,0,0,53.16,75.75a106.844,106.844,0,0,0-14.307-.279c-2.693.31-5.032.507-7.7-.644s-4.389-1.291-4.377-2.05,3.738-2.637,8.169-2.044,5.375.556,8.3.016,8.119.125,8.754.544,9.643-.26,11.332,0S87.11,72.469,86.5,74.445s-2.728,5.224-5.13,5.6a78.233,78.233,0,0,1-9.66,1.486C67.26,81.81,58.232,80.269,58.232,80.269Z"/><path class="cls-13" d="M59.542,86.13s-.786,1.8-2.392-.271S54.964,80.042,51,79.339s-11.211-.173-14.358-.747-6-1.261-7.377-2.626-3.454-3.383-1.648-3,6.566,2.264,10.073,2.142,12.148.077,15.068.174c3.95.133,6.932,5.014,7.214,5.661S59.542,86.13,59.542,86.13Z"/><polygon class="cls-9" points="99.06 73.215 94.481 104.601 92.729 104.574 96.598 70.125 99.06 73.215"/><polygon class="cls-2" points="68.82 101.987 70.731 106.689 84.865 106.907 86.05 98.28 69.109 98.369 68.82 101.987"/><path class="cls-14" d="M81.151,105.331a13.718,13.718,0,0,0,.18,3.507,8.271,8.271,0,0,0,2.021,2.315s1.552.894,2.024.552a14.92,14.92,0,0,1,2.7-.894l.023-1.518s2.949-1.824,4.118-1.923a13.946,13.946,0,0,0,4.585-1.8c1.063-.685,3.6-2.068,2.049-4.059a3.754,3.754,0,0,0-4.553-.907c-1.647.675-5.8,2.352-5.8,2.352l-5.776-.875Z"/><path class="cls-15" d="M63.285,89.605a.38.38,0,0,0,.374.385l6.775.105a.38.38,0,0,0,.385-.374h0a.381.381,0,0,0-.373-.386l-6.775-.1a.38.38,0,0,0-.386.374Z"/><path class="cls-15" d="M64.144,90.727a.439.439,0,0,0,.431.445l7.243.112a.437.437,0,0,0,.444-.432h0a.436.436,0,0,0-.431-.444L64.589,90.3a.439.439,0,0,0-.445.431Z"/><path class="cls-15" d="M64.339,92.63a.5.5,0,0,0,.489.5l7.125.11a.5.5,0,0,0,.5-.487h0a.5.5,0,0,0-.489-.5l-7.125-.11a.5.5,0,0,0-.5.488Z"/><path class="cls-15" d="M65.493,94.136a.381.381,0,0,0,.374.387l6.775.1a.381.381,0,0,0,.386-.375h0a.382.382,0,0,0-.375-.385l-6.773-.1a.381.381,0,0,0-.387.373Z"/><path class="cls-15" d="M65.884,95.34a.35.35,0,0,0,.344.356l6.95.107a.352.352,0,0,0,.357-.345h0a.352.352,0,0,0-.346-.356L66.239,95a.35.35,0,0,0-.355.345Z"/><path class="cls-15" d="M66.711,96.569a.381.381,0,0,0,.375.386l6.364.1a.381.381,0,0,0,.386-.374h0a.379.379,0,0,0-.374-.385L67.1,96.2a.379.379,0,0,0-.386.373Z"/><path class="cls-16" d="M30.434,102.475a3.941,3.941,0,0,0,3.674,4.174,4.137,4.137,0,0,0,.127-8.234A3.942,3.942,0,0,0,30.434,102.475Z"/><path class="cls-17" d="M70.879,68.3s3.356.514,4.869.889S86.387,68.845,86.689,72s2.842,20.255,2.694,22.239-2.733,3-.53,4.08,2.245,5.876,1.307,6.1-5.976,1.192-7.62,1.752-3.419,2.05-3.142-.866.789-13.189.825-15.526,1.309-9.092-.087-9.581-5.944-.909-9.329-1.078S59.94,79.3,57.283,77.274s-.307-10.4-.307-10.4l13.071.9Z"/><path class="cls-18" d="M64.9,38.2a15.331,15.331,0,0,0-3.833,2.452c-1.6,1.494-5.876,9.781-5.983,12.876s-.04,10.221-.065,11.8a5.184,5.184,0,0,0,1.059,3.287c.346.3,3.27.11,5.314.141s8.654-.626,9.176-.383A3.337,3.337,0,0,1,71.6,69.551a14.339,14.339,0,0,1-.8-5.21c.048-3.154-.036-5.316.456-6.828S74.325,51.777,73.3,50.3s-1.843-1.722-1.879-3.125.622-2.385.22-2.917a19.728,19.728,0,0,1-1.177-3.173S67.226,38.642,64.9,38.2Z"/><path class="cls-19" d="M90.8,51.622l.011.238.207,4.556s-1.578.034-1.869.03a6.814,6.814,0,0,0-1.113.216l-.745-4.684s.063-.409.765-.456S90.8,51.622,90.8,51.622Z"/><path class="cls-20" d="M65,54.146s2.17,10.781,2.325,12.068a7.346,7.346,0,0,0,.551,2.112l-7.61.56a25.9,25.9,0,0,0,.757-6.974c-.18-3.45.128-12.032.128-12.032Z"/><path class="cls-21" d="M90.811,51.86a9.578,9.578,0,0,1,1.225-.8c.471-.227.835-1.1,1.36-1.089a4.959,4.959,0,0,1,2.21.559,6.785,6.785,0,0,1,1.249,2.415c.11.469-.419.578-.779,1.272s-1.311,1.675-1.539,1.32a.774.774,0,0,1,.074-.992,7.557,7.557,0,0,0,.771-.8l-.156-1.171-.752-.479s-1,.394-1.589.676-.839,1.331-.316,1.574a8.648,8.648,0,0,1,1.33.9s1.972.848,1.965,1.315-.3.638-1.053.159a3.494,3.494,0,0,0-1.977-.614,4.439,4.439,0,0,1-1.744-.554c-.348-.18-.286-1.034-.286-1.034Z"/><path class="cls-18" d="M87.77,51.109s.638,4.157.617,5.5.611,2-1.083,1.97-5.9.142-6.838.244a39.987,39.987,0,0,0-4.094.346c-2.575.369-4.812,1.444-5.852.727s-7.052-4.781-8.081-6.316a15.3,15.3,0,0,1-2.119-6.517c-.085-1.987,1.09-6.234,3.131-6.085s5.294,1.367,5.625,2.716a23.627,23.627,0,0,0,2.439,4.769c.456.708,2.557.8,2.253,1.612s-.134,1.049.1,1.053.712-.633.709-.4.992-.042,1.224.078-.29-.121.873.247-.064.408,2.8-.073,1.8.611,3.91.294S87.855,49.416,87.77,51.109Z"/><path class="cls-20" d="M69.534,40.43s-.821.22-1.7.558-1.3.856-1.187,1.15a9.081,9.081,0,0,1,.676,1.7c.218.88.966,1.766.725,2.172s.572.71.74,1.3.036,1.4.671,1.88,1.4-.038,1.394.547-.2,1.34.33,1.348.244-.7.816.072.864.831,2.084,1.141,2.052-.319,2.457-.138,1.326,1.19,1.732,1.313,2.278-.023,3.622,0,6.027-.666,6.027-.666l.467,3.8s-6.912,1.237-8.128.517-6.468-1.034-6.76-1.039a12.492,12.492,0,0,1-2.084-1.2c-1.159-.66-1.1-.427-1.966-1.316s-.7-.069-2.43-1.557a7.539,7.539,0,0,1-2.964-4.659,23.57,23.57,0,0,1-.568-4.858,3.2,3.2,0,0,1,.321-1.922C64.055,39.7,66,38.884,66,38.884Z"/><path class="cls-21" d="M76.945,30.966a7.763,7.763,0,0,0,.078,2.513c.282.588,1.648,2.946,1.821,3.124s.453.942-.306.931a12.619,12.619,0,0,1-1.285-.08s.231.238-.069.7a.794.794,0,0,1-.88.278s.922.773.57.885a4.094,4.094,0,0,1-.993.1,4.084,4.084,0,0,1-.076,1.108c-.125.466-.316,1.514-1.471.678s-1.552-1.6-2.021-1.55-1.762,2.366-1.728,2.194c.148-.743-3-2.962-3-2.962S66.07,35.355,66.075,35s2.518-7.9,2.522-8.139,8.568,1.184,8.559,1.827-.1,2.51-.1,2.51"/><path class="cls-22" d="M80,31.6a7.692,7.692,0,0,0-1.6-5.46c-1.984-2.242-4.17-4.007-9.17-4.084s-6.339,2.6-6.983,3.788a9.7,9.7,0,0,0-.832,4.026,5.583,5.583,0,0,0,.323.871c.091.337-.3,1.053-.262,1.439s.456,1.594.546,1.932.85,1.07.988,1.458a3.709,3.709,0,0,1-.02,1.3s2.619,1.724,3.427,2.313a16.227,16.227,0,0,0,4.2,2.23c1.723.555,5.359,1.717,5.943,1.342s.8-1.864,1.007-2.919.418-2.205.418-2.205S75.154,37.3,74.3,36.469s-1.421-1.417-1.99-2-2.225-2.246-.395-2.458,5.538-.49,6.212-.48S80,31.6,80,31.6Z"/><path class="cls-23" d="M62.291,29.5s2.389,4.076,2.378,4.749a5.19,5.19,0,0,0,1.786,2.722,26.291,26.291,0,0,0,3.716,2.268c.763.4-.372-.87-1.115-2.566a34.808,34.808,0,0,1-1.53-3.63c-.181-.723-.519-.777.113-1.152a16.8,16.8,0,0,1,2.852-.967c.629-.182,4.2-.992,4.2-.992s-5.2.736-6.888.71-1.93.452-3.12-.336-2.383-1.48-2.714-1.773S62.291,29.5,62.291,29.5Z"/><path class="cls-24" d="M76.7,32.383a13.562,13.562,0,0,1-1.931.163c-.359-.06-.2.466.236.748s1.507.52,1.537.354S76.7,32.383,76.7,32.383Z"/><path class="cls-25" d="M75.637,33.164a.546.546,0,1,0,.536-.687C75.884,32.472,75.643,32.779,75.637,33.164Z"/><path class="cls-26" d="M79.911,28.7s1.539,6.323,1.8,8.4,1.331,4.156-.016,4.135a40.429,40.429,0,0,1-4.89-1.036c-1.246-.213-1.24-.6-2.8-2.352s-3.444-4.285-3.964-4.919-.081-.962,1.466-1.42,6.745-.808,7.278-1.137A5.073,5.073,0,0,0,79.911,28.7Z"/><path class="cls-27" d="M82.468,65.425c-.007.469,2.21.882,4.95.924s4.97-.3,4.978-.771-2.21-.881-4.952-.923S82.474,64.957,82.468,65.425Z"/><path class="cls-28" d="M89.613,63.9,89.3,65.5a4.731,4.731,0,0,1-2.1.388,5.739,5.739,0,0,1-1.985-.451l-.15-1.609"/><path class="cls-29" d="M85.057,63.828a5.158,5.158,0,0,0,2.274.3,5.171,5.171,0,0,0,2.282-.228,5.181,5.181,0,0,0-2.275-.3A5.168,5.168,0,0,0,85.057,63.828Z"/><path class="cls-12" d="M60.127,93.732s-6-12.418-14.683-13.894-12.585-2.065-17.875.074-9.3,4.588-11.862,7.762a23.2,23.2,0,0,0-3.41,5.32l1.754-.031A17.761,17.761,0,0,1,18.619,88.3c3.25-2.4,11.671-6.77,17.783-5.391s12.563,3.464,15.112,8.7S60.127,93.732,60.127,93.732Z"/></svg>