<svg id="word" xmlns="http://www.w3.org/2000/svg" viewBox="0 0 160 160"><defs><style>.cls-1{fill:#98ca58;}.cls-1,.cls-2,.cls-3,.cls-4,.cls-5,.cls-6,.cls-7,.cls-9{stroke:#9c4c9c;stroke-width:0.713px;}.cls-2{fill:#efa3c6;}.cls-3{fill:#454547;}.cls-4{fill:#526d9f;}.cls-5{fill:#a0a537;}.cls-6{fill:#f4ef93;}.cls-7{fill:#dde34c;}.cls-8{fill:#a13d95;}.cls-9{fill:none;stroke-dasharray:2.516 1.258;}</style></defs><path class="cls-1" d="M58.381,23.075s-20.388-14.3-25.916,3.1c-1.534,4.831-10.661-.39-8.274,14.606s1.715,25.2,1.849,33.976-1.131,16.109,2.009,21.156c3.952,6.348,5.369,8.939,5.369,8.939l3.762,5.176L37.995,97.5S27.2,92.713,29.126,84.858s-1.259-44.935.468-49.076C37.334,17.227,46.21,25.647,46.21,25.647Z"/><path class="cls-2" d="M58.127,141.342s-.962,1.527-5.647-2.29c-4.7-3.808-6.718-3.573-9.251-3.484s-8.375-3.022-9.095-9.127,1.308-20.261,1.823-24.919-.5-23.85-.4-30.32-2.1-28.568-1.009-33.435c2.256-10.091,7.82-13.043,15.727-13.979S64.033,20.8,76.2,22.254c8.313.995,22.275,3.65,30.2,3.371s12.832-5.1,18.52,2.992,7.461,27.173,7.6,29.065c.473,6.3-.164,14.425-.659,24.216s10.577,47.319-.856,49.665c-7.925,1.626-32.45,1.891-39.843,3.144S64.033,145.941,58.127,141.342Z"/><path class="cls-3" d="M44.753,91.93l-.66-1.007c0-.1-1-9.234-1.427-15.925-.65-10.129,1.1-16.121,1.985-23.564.277-2.392,1.083-4.964,1.2-6.332.613-6.92,2.814-11.871,6.554-14.714a9.956,9.956,0,0,1,8.728-1.729l.1.124a11.8,11.8,0,0,0-8.3,2.3c-3.525,2.689-5.611,7.43-6.2,14.089-.122,1.376-1.15,6.2-1.434,8.606-.878,7.4-2.078,15-1.9,20.127a112.92,112.92,0,0,0,1.87,17.208Z"/><path class="cls-4" d="M52.372,121.659s-1.054,13.072,7.938,17.384c4.422,2.119,13.511-2.723,18.709-4.073,5.182-1.341,32.962-3.646,37.186-3.795s13.778-3.662,14.793-7.255c3.089-10.935-.846-47.432-1.056-53.387S127.8,38.3,123.014,32.164s-26.138-3.726-28.2-4.971-28.16-3.325-34.207,2.2-8.011,12.216-8.887,25.668S51.582,118.534,52.372,121.659Z"/><path class="cls-5" d="M73.551,42.727s-6.231.6-10.658,13.264c-2.707,7.7-3.183,29.614-4.372,38.932s-5.139,26.7,3.392,33.857S82.531,130.3,82.531,130.3s-17.43-1.963-16.979-18.052,2.808-49.819,4.476-54.855c1.689-5.024,3.637-10.678,6.989-14.207C79.724,40.331,73.551,42.727,73.551,42.727Z"/><path class="cls-6" d="M67.917,64.6s3.478-18.064,7.92-21.37S88.193,36.041,99.4,37.8s19.83,3.708,21.479,7.3c.955,2.076,3.01,2,4.514,16.949,0,0-8.732.5-15.02-.6s-24.046,3-28.9,4.16a134.945,134.945,0,0,0-13.539,4.657Z"/><path class="cls-7" d="M74.315,130.163s-7.385-2.72-8.814-9.632.467-44.426,1.135-49.257.369-3.994.369-3.994,6.87-1.566,12.9-2.939,18.846-8.491,37.314-4.795c9.149,1.831,8.749.864,8.749.864s-.044,20.871.924,24.316,9.658,34.46-4.343,39.6S80.863,133.742,74.315,130.163Z"/><path class="cls-8" d="M70.086,78.677l-6.714-1.689,3.765-9.935,1.949-.261Zm-1.73-2.059-.71-6.223-2.458,5.183Z"/><path class="cls-9" d="M43.5,101.316c-.742,5.874-1.282,12.6-1.448,18.608-.184,6.712,1.085,12.452,6.789,16.443"/><path class="cls-8" d="M46.678,102.414l-6.717-1.69,3.767-9.936,1.952-.261Zm-1.735-2.059-.7-6.219-2.467,5.177Z"/><path class="cls-9" d="M128.559,95.029c-8.626,1.226-18.009.793-26.776,1.1-8.436.3-17.191.159-25.527,1.5-3.523.565-6.982,2.152-10.54,2.162"/><path class="cls-9" d="M65.237,104.105c10.865-.674,19.048-5.609,30.11-6,11.02-.386,23.841,1.229,34.511,2.447"/><path class="cls-9" d="M69.046,68.785C78.18,67.8,86.79,64.106,95.622,61.99c10.5-2.521,14.6-1.318,24.68.372.817.135,4.735.552,5.548.6"/></svg>