<svg id="word" xmlns="http://www.w3.org/2000/svg" viewBox="0 0 160 160"><defs><style>.cls-1{fill:#fde1d3;}.cls-1,.cls-2,.cls-3,.cls-5{stroke:#9c4c9c;stroke-width:0.75px;}.cls-1,.cls-2,.cls-5{stroke-miterlimit:10;}.cls-2{fill:none;}.cls-3{fill:#cac2e0;}.cls-4{fill:#b2aacb;}.cls-5{fill:#ffeec0;}</style></defs><path class="cls-1" d="M112.2,99.729s1,7.336,1.333,12.669c.22,3.513,1.875,13.1,1,15.736s-5.391,16.354-6,18.014c-1.008,2.75-2.541,4.375-2.583,3.125s2.333-9.375,2.333-9.375-3.75,9-4.5,8.25,2.584-9.833,2.584-9.833-1.878,6.627-2.73,6.583c-1.6-.083,1.646-6.375,1.521-8a25.309,25.309,0,0,0-.75-3.875s-.5,5.625-1.625,6.75-2.416.625-2.083-1,1.708-4.125,1.583-5.125-.7-3.309.678-5.309a47.437,47.437,0,0,1,4.564-5.108s-1.365-4.041-1.223-11.333c.061-3.125-2.894-8.625-2.894-8.625Z"/><path class="cls-1" d="M107.526,137.137a3.241,3.241,0,0,1-2.935-3.83"/><path class="cls-2" d="M111.057,125.846c-2.981,3.523-4.606,7.461-2.4,13.009"/><path class="cls-3" d="M102.826,73.49a110.677,110.677,0,0,1,6.958,15.533,133.966,133.966,0,0,0,5.454,13.46l-13.7,5.628L97.368,95.9s.042-9.582.666-13.333S100.7,71.731,100.7,71.731,101.536,71.071,102.826,73.49Z"/><path class="cls-1" d="M55.084,45.784s-1.623-.61-2.313,1.434.157,4.058.791,6.261.849,4.786,3.1,4.827,2.513-.985,2.513-.985Z"/><path class="cls-1" d="M48.03,102.293s-1,7.336-1.333,12.669c-.22,3.513-1.875,13.1-1,15.736s5.391,16.354,6,18.014c1.009,2.75,2.541,4.375,2.583,3.125s-2.333-9.375-2.333-9.375,3.75,9,4.5,8.25-2.584-9.833-2.584-9.833,1.878,6.627,2.73,6.583c1.6-.083-1.646-6.375-1.521-8a25.309,25.309,0,0,1,.75-3.875s.5,5.625,1.625,6.75,2.416.625,2.083-1-1.708-4.125-1.583-5.125.7-3.309-.677-5.309a47.437,47.437,0,0,0-4.564-5.108s1.364-4.041,1.222-11.333c-.061-3.125,2.894-8.625,2.894-8.625Z"/><path class="cls-1" d="M52.706,139.7a3.242,3.242,0,0,0,2.934-3.83"/><path class="cls-2" d="M49.175,128.41c2.98,3.523,4.605,7.461,2.4,13.009"/><polygon class="cls-1" points="71.03 63.629 71.03 71.129 90.363 71.129 90.363 64.629 71.03 63.629"/><path class="cls-1" d="M102.792,44.784s1.623-.61,2.313,1.434-.157,4.058-.791,6.261-.849,4.786-3.1,4.827-2.513-.985-2.513-.985Z"/><path class="cls-3" d="M59.53,74.3s2.333,6.667,2.667,10.834.333,9.5.666,13.333-.449,37.409-.449,37.409,1.616,2.5,7.449,3.83,17-.739,21.667-.906a26.051,26.051,0,0,0,9.118-2.325S97.7,110.962,97.7,105.462,96.7,95.3,96.863,92.8,100.7,71.731,100.7,71.731s-13-2.769-23.338-1.769C72.052,70.476,63.7,71.129,59.53,74.3Z"/><path class="cls-3" d="M57.405,76.054a110.677,110.677,0,0,0-6.958,15.533,133.966,133.966,0,0,1-5.454,13.46l13.7,5.628,4.166-12.213s-.042-9.582-.666-13.333S59.53,74.3,59.53,74.3,58.7,73.635,57.405,76.054Z"/><path class="cls-4" d="M62.414,82.82c1.1,6.02,2.647,10.268,6.643,14.9.878,1.019,3.028,3.467,4.213,4.1s1.675.957,2.927.466,3.156-1.909,2.928-3.234A47.154,47.154,0,0,1,76.3,109.571c-1.472,3.325-6.125,20.112-9.385,21.724,8.434,7.086,22.193,4.31,27.615,4.576-8,4.275-21.851,2.174-27.615,1.915l-4.052-2.872s.834-31.119,1-34.952l.167-3.833Z"/><path class="cls-4" d="M61.572,88.276S58.7,99.526,57.322,102.4s-2.375,3.25-3.75,3a32.406,32.406,0,0,0-5.563,0c-.189.06,10.188,4.25,10.188,4.25.937-1.875,2.937-9.035,3.687-11.188S61.572,88.276,61.572,88.276Z"/><path class="cls-4" d="M99.322,83.712s3,9.5,5.25,13.5a32.237,32.237,0,0,0,4.774,6.5l-6.649,3s-2.148-2.378-4.125-9.394C96.994,91.719,99.322,83.712,99.322,83.712Z"/><path class="cls-5" d="M76.149,18.759s-6.709-.92-11.05.79-9.471,6.708-10.26,13.022a39.666,39.666,0,0,0,0,11.707c.263,1.579,2.449,10.107,4.867,13.681,3.157,4.666,5.525,5.13,8.024,7.366l2.5,2.236s5.521-1.105,6.968-.974-.379-1.131,2.9-.736.257.395,3.809.658,7.5.8,7.5.8,6.314-5.928,8.814-12.637,5.919-16.574,2.893-22.493-5.393-14.6-12.233-15A57.888,57.888,0,0,0,76.149,18.759Z"/><path class="cls-5" d="M92.6,21.006a6.027,6.027,0,0,0-5.149-.921s-.858-.391,1.328-1.208,3.768-3.723,3.768-3.723-2.712.837-4.742,1.595a14.749,14.749,0,0,0-3.415,1.812s2.131-5.246,1.918-6.768-3.749,4.25-3.749,4.25A15.851,15.851,0,0,1,81.2,13.349a44.419,44.419,0,0,1-1.107-5.814s-2.15,4.719-.377,7.081.933,3.922.933,3.922l-7.505-6.269,3.351,5.153s-4.275-2.271-6.011-2.156,3.143,2.695,3.143,2.695-3.553-.832-8.526,1.588"/><path class="cls-4" d="M97.368,83.712s-3.38,6.75-2.838,12.875,2.259,17.625,2.838,19.125-.755-10.125-.8-14.125C96.535,98.027,97.368,83.712,97.368,83.712Z"/></svg>