<svg id="word" xmlns="http://www.w3.org/2000/svg" viewBox="0 0 160 160"><defs><style>.cls-1{fill:#545456;}.cls-1,.cls-2,.cls-3,.cls-4,.cls-6{stroke:#9d4b9c;}.cls-1,.cls-3,.cls-4{stroke-width:0.937px;}.cls-2{fill:#5db2bb;}.cls-2,.cls-6{stroke-width:0.827px;}.cls-3,.cls-4{fill:#e2e3e4;}.cls-4{opacity:0.74;}.cls-5{fill:#9d4b9c;}.cls-6{fill:#9c9ea1;}</style></defs><path class="cls-1" d="M106.357,58.453s-15.464-4.511-21.528-5.012S57.541,59.456,55.115,62.63,44.5,72.32,48.748,74.994s16.828-3.342,26.379-3.342,14.7,2,20.163,1.17,6.367-1,6.822-5.013S108.631,60.458,106.357,58.453Z"/><path class="cls-2" d="M105.544,59.27s-1.173-2.29,1.6-2.29,6.011,2.254,6.794,4.126a5.829,5.829,0,0,1-.392,5.8,1.736,1.736,0,0,1-2.774.218"/><path class="cls-3" d="M85.684,50.216s-.151-.068-.43-.2C82.369,48.694,65.78,41.061,59.594,37.9c-6.783-3.467-21.407-4.663-25.619-3.825S22.393,37.9,23.8,42.086s2.925,9.8,8.074,9.924,14.037.12,21.174.6,16.963-.118,22.229,1.434S93.64,55.6,93.64,55.6Z"/><path class="cls-4" d="M91.768,56.193S75.624,53.922,72,52.13,53.629,48.184,46.843,48.3,29.412,52.489,25.786,55.6,13.5,66.237,17.127,69.464s5.266,5.142,14.274,2.393,23.047-7.771,30.886-7.771,15.91.476,20.589-.361S98.435,59.183,91.768,56.193Z"/><path class="cls-5" d="M85.609,71.6c-2.691.957-1.988,2.869-4.639,3.906s-6.394,3.426-6.941,4.3-1.247,6.855-.936,8.688-1.172,4.86-.548,5.9,1.329.639,1.329.639-3.042,3.506-2.419,4.543.157,1.194.157,1.194-1.717,2.95-1.56,3.188.388.639.388.639a16.752,16.752,0,0,0-2.026,2.072v.24s-1.952,1.2-1.718,2.472-2.261,1.353-2.105,2.07-2.1,2.154-2.574,2.473-1.87,1.593-.935,1.512,2.341-1.751,3.354-2.23l1.015-.481s1.4-.156,1.558-.8.313-1.433.313-1.433,1.714-.639,1.637-1.2a4.043,4.043,0,0,1,.545-1.672,6.88,6.88,0,0,0,1.327-1.675c.233-.636.466-1.2.466-1.2s1.407-.955,1.329-1.593a11.515,11.515,0,0,1,.311-2.392s.78.161,1.014-.877,1.482-5.42,1.482-5.42-.469-7.81-.469-9.722a11.5,11.5,0,0,1,2.262-5.82c.859-.957,7.254-3.109,8.657-4.224A12.659,12.659,0,0,0,88.3,72S88.3,70.639,85.609,71.6Z"/><path class="cls-5" d="M91.223,72.025s-6.865,5.5-7.8,5.818-14.038.321-15.052.321-8.268-.639-9.594.079-7.955,7.65-8.657,8.448-2.418,1.992-2.107,2.87-.312.717-.312.717S41.93,91,41.93,91.315s-.079,1.2-.079,1.2-6.942-.32-7.019.317a1.915,1.915,0,0,1-.466,1.037s-6.708-1.033-6.4-.4-5.147-1.037-4.524-.079S27.269,94.5,27.269,94.5s.234.48,1.091.4,6.24-.079,6.24-.079,0,.4,1.638.318a31.013,31.013,0,0,0,5.613-1.513,6.819,6.819,0,0,1,1.8-.32,38.859,38.859,0,0,0,6.864-2.073c1.013-.479,2.807-2.71,4.212-4.623s2.495-7.332,5.3-6.7a64.906,64.906,0,0,0,9.048,1.037c1.638.08,10.45-.16,11.853.16a4.7,4.7,0,0,0,3.667-.717c.936-.639,5.85-3.109,6.786-3.827S97.072,72.9,95.9,72.582C95.335,72.426,94.574,70.351,91.223,72.025Z"/><path class="cls-5" d="M99.5,73.891,95.872,77.6s-3.747,4.9-.937,6.816,7.252.239,8.19.239a26.5,26.5,0,0,1,4.444,1.315s-2.224,11.717-.583,13.27,1.753.719,1.753.719-.937,3.109.352,3.7l1.285.6a11.165,11.165,0,0,0,1.287,2.87c.585.6,1.054,3.227,1.755,3.227s.935,1.554,1.4,1.554.934,1.554,1.4,1.435,1.171-1.912.586-2.152-.936-1.675-1.637-1.913-1.054-2.511-1.405-2.631a14.762,14.762,0,0,1-1.755-2.631s-.934-2.031-1.286-3.106a2.874,2.874,0,0,0-1.521-1.555,34.994,34.994,0,0,0,.117-4.663c-.117-2.39-.233-9.087-1.169-10.282s-5.149-1.555-5.149-1.555-5.614-1.914-5.731-2.51-1.522-.6-.118-1.555,4.563-2.51,4.563-3.228S102.07,71.978,99.5,73.891Z"/><path class="cls-5" d="M112.357,66.6s5.735-1.675,7.02-.837,1.051,1.673,1.52,2.75,3.393,5.978,4.448,6.933,1.167,3.348,1.167,3.348a6.923,6.923,0,0,1,2.457,1.674,18.144,18.144,0,0,1,1.52,2.989s2.926.359,2.926,1.2A10.893,10.893,0,0,1,133.3,86.2s2.106,1.075,2.106,1.437,2.691,3.345,2.223,4.062-2.691-2.629-2.691-2.629-1.287.836-1.872-.24a15.939,15.939,0,0,1-1.054-3.11,1.635,1.635,0,0,1-1.754-.954l-.585-1.194s-1.872-.24-2.457-1.317-1.637-3.229-1.637-3.229A2.788,2.788,0,0,1,123,76.758c-.35-2.152-2.925-7.173-3.978-8.131a4.245,4.245,0,0,0-4.8-.6,15.852,15.852,0,0,1-3.743,1.316Z"/><path class="cls-6" d="M111.422,61.094s-3.276-3.106-5.031-2.509A11.064,11.064,0,0,0,103,60.736c-.819.122-2.107.838-2.573,3.229s-1.286,8.13.234,10.043,4.679,2.51,5.5,1.435a4.611,4.611,0,0,1,2.69-1.314s-.7,2.151.352,3.466a3.727,3.727,0,0,0,2.339,1.435,2.9,2.9,0,0,1-1.4-2.033,23.275,23.275,0,0,1,.234-3.826s1.755.241,2.224,1.555a12.887,12.887,0,0,1,.583,2.869s-.117-2.031-.117-3.944-2.338-2.989-2.338-2.989,2.222-3.826,2.338-6.815S111.422,61.094,111.422,61.094Z"/><path class="cls-2" d="M106.611,64.068s-1.493-4.144-4.374-2.835a6.942,6.942,0,0,0-3.52,9.486c2.026,4.689,4.265,5.781,6.934,4.362S108.212,66.358,106.611,64.068Z"/></svg>