<svg id="word" xmlns="http://www.w3.org/2000/svg" xmlns:xlink="http://www.w3.org/1999/xlink" viewBox="0 0 160 160"><defs><style>.cls-1,.cls-3{fill:#edbc85;}.cls-2{fill:#92543a;}.cls-10,.cls-11,.cls-13,.cls-14,.cls-15,.cls-16,.cls-17,.cls-18,.cls-19,.cls-2,.cls-20,.cls-21,.cls-22,.cls-23,.cls-24,.cls-25,.cls-26,.cls-27,.cls-28,.cls-29,.cls-3,.cls-30,.cls-31,.cls-32,.cls-4,.cls-5,.cls-6,.cls-7,.cls-8,.cls-9{stroke:#9c4c9c;}.cls-10,.cls-11,.cls-13,.cls-14,.cls-15,.cls-16,.cls-17,.cls-18,.cls-2,.cls-3,.cls-4,.cls-5,.cls-6,.cls-7,.cls-8,.cls-9{stroke-width:0.586px;}.cls-4{fill:#fde6db;}.cls-5{fill:#2a3b8e;}.cls-11,.cls-14,.cls-15,.cls-16,.cls-17,.cls-18,.cls-5,.cls-6,.cls-7,.cls-8{stroke-miterlimit:10;}.cls-11,.cls-13,.cls-6,.cls-7,.cls-8{fill:#fff;}.cls-6{opacity:0.19;}.cls-7{opacity:0.15;}.cls-8{opacity:0.16;}.cls-9{fill:#cc8d59;}.cls-10,.cls-32{fill:none;}.cls-12{fill:#9c4c9c;}.cls-14{fill:url(#linear-gradient);}.cls-15{fill:#231f20;}.cls-16{fill:#ec5ea0;}.cls-17{fill:#6e9ed3;}.cls-18{fill:#3a5f93;}.cls-19{fill:#ec4747;}.cls-19,.cls-20,.cls-21,.cls-22,.cls-23,.cls-24,.cls-25,.cls-26,.cls-27,.cls-28,.cls-29,.cls-30,.cls-31,.cls-32{stroke-width:0.333px;}.cls-20{fill:#e0c4a8;}.cls-21{fill:#be3939;}.cls-22{fill:#d54040;}.cls-23{fill:#b4467b;}.cls-24{fill:#8d393e;}.cls-25{fill:#007871;}.cls-26{fill:#02a9dc;}.cls-27{fill:#ede1be;}.cls-28{fill:#e0d5b6;}.cls-29{fill:#537ea7;}.cls-30{fill:#efe4c0;}.cls-31{fill:#5d8cbc;}.cls-33{fill:#6680aa;}.cls-34{fill:#fdf9ce;}</style><linearGradient id="linear-gradient" x1="237.973" y1="-294.529" x2="236.177" y2="-293.195" gradientTransform="translate(-280.751 103.12) rotate(49.64)" gradientUnits="userSpaceOnUse"><stop offset="0" stop-color="#7d7f80"/><stop offset="0.237" stop-color="#fff"/><stop offset="1" stop-color="#221f1f"/></linearGradient></defs><polygon class="cls-1" points="154.246 86.582 88.362 86.812 7.504 113.995 37.682 124.361 121.995 124.131 154.246 86.582"/><path class="cls-2" d="M21.673,63.718s-4.9.921-5.616,3.016-1.924,9.639,1.575,22.525c.811,2.989,3.908,17.308,3.908,17.308l6.114.813s-3.293-6.072-3.723-9.564-3.676-17.309-3.676-17.309Z"/><polygon class="cls-2" points="49.702 77.036 50.991 93.974 53.997 86.815 52.709 75.989 49.702 77.036"/><path class="cls-3" d="M51.85,56.87A112.536,112.536,0,0,1,54,68.705c.286,3.841,1.193,6.478,0,7.284A119.812,119.812,0,0,1,39.68,81.576c-2.72.7-18.183,5.937-19.9,4.191S17.345,71.5,17.345,71.5a6.112,6.112,0,0,1,2.864-7.032c4.3-2.445,11.41-3.864,16.894-5.413C50.989,55.13,51.85,56.87,51.85,56.87Z"/><path class="cls-4" d="M56.566,64.236l-2.793,8.046a3.3,3.3,0,0,1-4.191,0c-2.1-1.746-2.445-6.112-2.445-6.112l1.223-6.859Z"/><path class="cls-5" d="M56.566,67.043l4.017,1.747a84.223,84.223,0,0,0,0,9.6c.349,2.62,1.746,19.907,1.746,19.907s0,7.857-2.794,9.953-10.143,2.088-11.416,2.095c-4.016.021-14.848-3.413-14.848-3.413l-2.19.687s-1.056-.9-.008-3.936S33,81.187,33.346,78.219s5.584-9.429,7.68-10.477,6.111-3.054,6.111-3.054,1.048,6.2,3.842,6.895,4.478-4.151,4.478-4.151Z"/><path class="cls-6" d="M52.065,24.162s3.786,4.268,4.734,6.955,1.45,6.136,3.821,7.717a18.157,18.157,0,0,1,3.441,2.824A56.691,56.691,0,0,0,59.8,30.909C56.146,24.672,52.065,24.162,52.065,24.162Z"/><path class="cls-7" d="M53.682,22.905a28.3,28.3,0,0,1,13.2,3.228A19.777,19.777,0,0,1,75.6,37.148c.589,1.825,1.163,4.7,1.163,4.7S71.9,37.61,70.112,34.36C67.117,28.906,57.777,23.767,53.682,22.905Z"/><path class="cls-8" d="M60.708,28.8s4.7,4.908,5.546,7,5.66,7.48,5.66,7.48-1.787-.4-4.4-3.061C63.315,35.961,60.708,28.8,60.708,28.8Z"/><path class="cls-4" d="M42.935,37.28s-1.633-3.522-3.174-3.134-2.215,3.123-1.674,4.1,1.7.959,1.174,3.215-.333,3.218.142,3.5a2.236,2.236,0,0,0,2.439-.275"/><path class="cls-4" d="M77.6,48.5c1.786-.765,3.084-.944,3.348,1.083.289,2.224-1.166,3.189-2.506,3.924-.8.436-1.486.137-2.237.79-.376.327-.242,1.607-.778,2.14-1.451,1.444-3.195,1.779-2.686-.915"/><path class="cls-4" d="M78.431,47.2s-3.063,5.256-4.768,8.277c-1.5,2.667-3.246,6.062-9.666,7.663-4.949,1.235-9.253,1.978-10.972,1.53-3.052-.8-3.745-3.205-5.776-4.207s-6.725-5.9-7.306-8.543.644-10.451,2.114-12.257,6.391-13.3,9.831-14.277S61.961,24.4,66.36,28.353,81.566,38.715,78.431,47.2Z"/><path class="cls-9" d="M51.347,28.382s-.625,4.979.529,6.368a22.041,22.041,0,0,1,2.4,4.7l-.408-4.031s-.337,2.031,2.857,4.338a22.243,22.243,0,0,1,5.011,5.022l-1.571-4.011a44.825,44.825,0,0,0,6.408,4.45,26.666,26.666,0,0,0,6.665,2.41l-3.592-3.1s6.185,2.93,7.225,3.226-1.5,4.7-1.5,4.7,4.267-2.285,5.207-5.817,2.695-9.613.788-14.911-2.683-7.716-10.532-10.6S58.513,17.5,56.553,18.584A9.815,9.815,0,0,1,53,19.8l-.367-3.031L51.021,20.38s-.193-2.43-.785-3A7.653,7.653,0,0,1,49.165,16l.652,4.725s-1.266-2.48-1.48-2.756a25.4,25.4,0,0,0,.581,3.308c.041.336-.03-.419-1.336-.583s.724,1.5.724,1.5-1.092.112-2.919,2.122-1.8,1.766-2.818,5.95a40.769,40.769,0,0,0-1.053,7.746,17.773,17.773,0,0,0,0,3.317s0-.663,1.541-2.377,4.327-3.439,4.92-4.858.123,2.338.092,2.582.909-.633,1.531-2.3S51.347,28.382,51.347,28.382Z"/><path class="cls-10" d="M61.069,53.519a2.736,2.736,0,0,0-3.837-1.144"/><path class="cls-10" d="M69.644,44.52C65.472,41.091,63.816,39.431,62,33.9s-5.146-10.735-11.4-11.147"/><path class="cls-10" d="M76.981,46.185c-4.054-3.6-7.281-6.537-10.19-11.325a21.751,21.751,0,0,0-8.668-8.285"/><path class="cls-10" d="M53.337,22.411c3.868-2.523,15.619,1.409,19.111,4.485,2.961,2.609,3.927,5.74,4.851,9.46"/><path class="cls-10" d="M49.786,22.3c-2.227,4.589.077,8.656-4.381,12.471"/><path class="cls-10" d="M51.244,28.534c.008-2.089-.839-4.1-1.326-5.97"/><path class="cls-11" d="M69.577,50.478s.945-2.371-1.2-3.088-4.206,2.122-4.206,2.122,2.183,2.05,3.545,2.226A1.851,1.851,0,0,0,69.577,50.478Z"/><ellipse class="cls-12" cx="67.999" cy="50.188" rx="1.748" ry="1.427" transform="translate(1.102 101.836) rotate(-74.1)"/><path class="cls-11" d="M54.65,45.644s.889-2.378-1.259-3.1-3.9,2.369-3.9,2.369,1.931,1.81,3.293,1.986A1.85,1.85,0,0,0,54.65,45.644Z"/><ellipse class="cls-12" cx="53.071" cy="45.354" rx="1.748" ry="1.427" transform="translate(-5.086 83.97) rotate(-74.1)"/><path class="cls-10" d="M61.655,56.719a8.262,8.262,0,0,1-4.423.821c-2.4-.58-5.214-3.019-5.755-5.089"/><path class="cls-13" d="M133.921,90.966s-11.525-1.08-15.715-2.2-19.383-4.961-19.383-4.961L85.029,89.918l29.684,10.372a31.617,31.617,0,0,1,7.858-4.61C127.286,93.76,133.921,90.966,133.921,90.966Z"/><path class="cls-13" d="M113.666,101.792s-4.54-1.572-6.286,0-11.35,8.556-11.35,8.556L63.2,98.954l11.9-5.015,9.924-4.021,29.684,10.372S116.577,102.433,113.666,101.792Z"/><path class="cls-4" d="M89.251,79.79l7.477-1.309,2.532,6.373L96.641,92.8a5.971,5.971,0,0,0-2.008-2.881,22.554,22.554,0,0,1-2.991-2.93l-3.121-1Z"/><path class="cls-4" d="M70.638,97.108s6.144-.139,6.563,0,4.189-1.535,5.306-1.815,2.145-.271,1.98.912-1.54,1.462-1.54,1.462,4.3-.187,5.145-.14c1.214.069,2.135.293,3.261,2.328.949,1.713,1.941,3.258,1.137,3.467a9.939,9.939,0,0,1-2.443-.908s2.257,2.723,1.187,3.421c-.713.465-3.142-2.024-3.142-2.024s1.379,2.222.14,2.35-2.886-1.233-2.886-1.233,1.142,1.994,0,2.413-4.236-2.692-4.236-2.692a2.486,2.486,0,0,0-2.932-.28,6.833,6.833,0,0,1-5,0,2.631,2.631,0,0,1-1.7-1.955l-6-1.172.756-4.135Z"/><path class="cls-10" d="M88.092,103.811c-.006.1-1.714-1.976-2.117-2.389a2.591,2.591,0,0,0-1.5-.806,5,5,0,0,0-2.252-.021"/><path class="cls-10" d="M90.047,102.414c-.108-.072-.625-.824-.715-.918-.728-.757-.758-1.538-1.543-1.814a4.734,4.734,0,0,0-1.478-.189L85,99.465"/><path class="cls-10" d="M85.346,104.928c-.859-.838-1.462-1.952-2.263-2.251a5.087,5.087,0,0,0-2.534-.139"/><path class="cls-14" d="M98.589,91.7l-2.516,4.418-.556-.144.352-4.266.13-.939S97.854,90.434,98.589,91.7Z"/><path class="cls-15" d="M95.468,96.1a.716.716,0,0,0,.024.761c.275.313.531-.617.531-.617Z"/><path class="cls-16" d="M103.36,68.359s.957.947,1.4.986,1.55.066,1.55.066l-3.743,10.672L98.589,92.109s-.15-.839-1.536-.937a1.95,1.95,0,0,0-1.184.54l7.491-23.353"/><path class="cls-17" d="M106.836,64.707a.648.648,0,0,0-.825-.269c-.59.2-.859,1.722-.859,1.722l1.577.221S107.66,64.977,106.836,64.707Z"/><path class="cls-17" d="M104.466,66.525s-.759.2-1.341.312-1.366,2.235-1.366,2.235l-3.422,7.92s-.689,1.8-.092,1.469,1.637-2.582,1.637-2.582l2.535-6.131a8.339,8.339,0,0,1,.786-1.866c.241-.154.552.084.552.084Z"/><path class="cls-18" d="M105.457,72.028a13.519,13.519,0,0,0,1.676-3.608c.066-.31.359-1.657.359-1.657a5.3,5.3,0,0,0-.546-.437c-.241-.157-.565-.362-.879-.551-.616-.368-1.879.123-1.879.123l-1.663,4.958s.664-.839,2.089-.138A1.579,1.579,0,0,1,105.457,72.028Z"/><path class="cls-4" d="M102.605,90.835s0,1.575-2.272,1.5c-.634-.022-2.678-.552-1.811-1.182a6.739,6.739,0,0,1,1.936-.919S102.986,89.811,102.605,90.835Z"/><path class="cls-4" d="M93.15,79.107a7.378,7.378,0,0,1,2.543-2.555c1.381-.614,3.8-.146,4.11.851a17.388,17.388,0,0,1,0,4.064s-.741,2.285-.921,2.63c-.487.932-1.215.815-1.829.815S95.815,83,95.815,82.081s.691-2.448.231-2.336A13.932,13.932,0,0,1,93.15,79.107Z"/><path class="cls-4" d="M105.2,87.276s-.788,2.284-1.891,2.757-4.094.945-4.685,0A1.117,1.117,0,0,1,98.8,88.5S104.722,85.386,105.2,87.276Z"/><path class="cls-4" d="M103,80.234s2.757.63,2.757,2.914-3.151,4.884-4.805,5.356-3.737-.551-2.932-1.575,3.366-1.535,3.779-2.5S103,80.234,103,80.234Z"/><path class="cls-5" d="M60.583,68.79s7.508,7.333,8.032,7.683,19.239,3.055,20.636,2.881l1.513.171s-1.108,2.535-.671,4.281a7.14,7.14,0,0,1-.046,2.861s-4.26.543-9.5.632a35.681,35.681,0,0,1-13.68-2.619c-4.191-1.572-5.759-.874-5.759-.874A25.645,25.645,0,0,1,60.059,77C60.059,73.5,60.583,68.79,60.583,68.79Z"/><path class="cls-5" d="M43.822,70.4s1.045,3.275,1.918,6.069,5.588,13.445,6.112,13.445,3.492,2.27,6.461,2.881,6.46,2.357,8.032,2.183,3.841,1.535,3.841,1.535-2.619.473-2.619,2.437a5.218,5.218,0,0,0,1.921,3.491s-6.286,3.712-17.636-1.352c-2.711-1.209-13.1-7.159-13.969-10.127s-2.337-13.525-2.445-14.69c-.349-3.762,3.269-6.865,4.428-7.7S42.612,66.592,43.822,70.4Z"/><path class="cls-12" d="M112.3,98.621a5.387,5.387,0,0,1,1.737-3.428,10.846,10.846,0,0,1,3.306-2.087c1.209-.483,2.437-.863,3.665-1.224s2.464-.7,3.719-.991c-1.178.518-2.377.973-3.578,1.419s-2.425.826-3.579,1.336a11.521,11.521,0,0,0-3.229,1.878A6.1,6.1,0,0,0,112.3,98.621Z"/><path class="cls-12" d="M107.808,97.013a3.87,3.87,0,0,1,.491-3.2,6.183,6.183,0,0,1,2.469-2.239,16.047,16.047,0,0,1,3.065-1.175c1.038-.306,2.078-.6,3.14-.839-.983.466-1.986.87-2.993,1.266a27,27,0,0,0-2.934,1.264,6.735,6.735,0,0,0-2.372,1.969A4.291,4.291,0,0,0,107.808,97.013Z"/><path class="cls-12" d="M103.212,95.579a6.971,6.971,0,0,1,.558-2.708,7.621,7.621,0,0,1,3.8-3.989,6.934,6.934,0,0,1,2.679-.684,11.3,11.3,0,0,0-2.467,1.082,9.745,9.745,0,0,0-3.609,3.783A11.344,11.344,0,0,0,103.212,95.579Z"/><path class="cls-12" d="M109.434,99.2a10.05,10.05,0,0,0-3.927.689,40.043,40.043,0,0,0-3.473,2.064c-2.306,1.423-4.487,3.024-6.7,4.617a32.011,32.011,0,0,1,3.049-2.734c1.069-.851,2.2-1.625,3.34-2.378a29.944,29.944,0,0,1,3.61-1.981A8.135,8.135,0,0,1,109.434,99.2Z"/><path class="cls-12" d="M105.7,98.3a10.722,10.722,0,0,0-5.983,2.024c-.914.563-1.812,1.182-2.745,1.742s-1.861,1.131-2.83,1.638c.833-.709,1.7-1.364,2.577-2.011s1.758-1.277,2.689-1.867a11.781,11.781,0,0,1,3.007-1.394A6.358,6.358,0,0,1,105.7,98.3Z"/><path class="cls-12" d="M102.148,96.507a3.548,3.548,0,0,1-1.15.452,7.048,7.048,0,0,0-1.119.416A16.721,16.721,0,0,0,97.8,98.566c-.679.436-1.348.907-2.069,1.311a8.745,8.745,0,0,1-2.274.973A23.822,23.822,0,0,0,95.489,99.5c.649-.485,1.306-.967,1.994-1.424a9.7,9.7,0,0,1,2.233-1.118,6.915,6.915,0,0,1,1.227-.278A4.55,4.55,0,0,0,102.148,96.507Z"/><path class="cls-12" d="M94.192,97.236c.172.038.143.316.027.431s-.2.18-.3.269a4.1,4.1,0,0,1-1.305.721,2.852,2.852,0,0,1-.761.163,2.829,2.829,0,0,1,.544-.558,4.065,4.065,0,0,1,.62-.419,4,4,0,0,1,.686-.3l.344-.1A.152.152,0,0,0,94.192,97.236Z"/><path class="cls-12" d="M93.539,93.827a8.769,8.769,0,0,1-.959.994,13.622,13.622,0,0,1-1.052.869,9.246,9.246,0,0,1-1.154.754,2.443,2.443,0,0,1-1.367.341,4.863,4.863,0,0,0,1.12-.718c.334-.284.688-.573,1.051-.847a13.172,13.172,0,0,1,1.134-.759A8.61,8.61,0,0,1,93.539,93.827Z"/><path class="cls-12" d="M89.3,92.519a2.35,2.35,0,0,1-.678.981,10.051,10.051,0,0,1-1.827,1.445c-.34.205-.684.333-1.018.555a2.891,2.891,0,0,1,.756-.922,9.723,9.723,0,0,1,1.8-1.425A7.727,7.727,0,0,0,89.3,92.519Z"/><path class="cls-12" d="M99.33,93.938a.59.59,0,0,1-.062-.429.72.72,0,0,1,.186-.367.734.734,0,0,1,.354-.211.6.6,0,0,1,.433.036,2.619,2.619,0,0,1-.185.341,1.394,1.394,0,0,1-.175.235,1.339,1.339,0,0,1-.224.188A2.614,2.614,0,0,1,99.33,93.938Z"/><path class="cls-19" d="M143.155,56.405l-9.05-.47-.883,32.735s2.384.156,4.591.156a19.347,19.347,0,0,0,4.768-.783Z"/><polygon class="cls-20" points="136.136 51.55 143.023 56.3 134.634 56.248 129.071 51.445 136.136 51.55"/><polygon class="cls-21" points="129.071 51.445 128.276 84.232 133.222 88.67 134.105 56.353 129.071 51.445"/><path class="cls-22" d="M138.211,56.875c1.468,0,3.016-.053,4.335-.1.449-.018.874-.087.945-.471.067-.364-.273-.625-.482-.749L136.4,50.966l-.267.541,6.623,4.594.034.021c-.068.01-.153.017-.262.022-1.315.052-2.857.1-4.318.1a23.6,23.6,0,0,1-4-.606l-5.072-4.6-.323.5,5.171,4.692.06.014a24.251,24.251,0,0,0,4.159.633Z"/><path class="cls-19" d="M130.965,57.366l-9.05-.47-.883,32.735s2.384.156,4.591.156A19.347,19.347,0,0,0,130.391,89Z"/><polygon class="cls-20" points="123.946 52.511 130.833 57.261 122.444 57.209 116.881 52.406 123.946 52.511"/><polygon class="cls-21" points="116.881 52.406 116.087 85.193 121.032 89.631 121.915 57.314 116.881 52.406"/><path class="cls-22" d="M126.021,57.836c1.468,0,3.016-.053,4.336-.1.448-.018.873-.087.944-.471.067-.364-.273-.625-.482-.749l-6.607-4.584-.268.541,6.623,4.594.034.021c-.068.01-.153.017-.262.022-1.315.052-2.857.1-4.318.1a23.6,23.6,0,0,1-4-.606L116.954,52l-.323.5,5.171,4.692.06.014a24.251,24.251,0,0,0,4.159.633Z"/><path class="cls-23" d="M120.255,57.846l-7.529-.47-.734,32.736s1.983.156,3.82.156a13.691,13.691,0,0,0,3.966-.783Z"/><polygon class="cls-20" points="114.416 52.991 120.145 57.742 113.167 57.69 108.539 52.887 114.416 52.991"/><polygon class="cls-24" points="108.539 52.887 107.878 85.674 111.992 90.112 112.726 57.794 108.539 52.887"/><path class="cls-22" d="M116.142,58.316c1.222,0,2.509-.053,3.607-.105.373-.017.727-.086.786-.471a.817.817,0,0,0-.4-.749l-5.5-4.584-.223.541,5.51,4.594.028.022a1.894,1.894,0,0,1-.218.021c-1.094.052-2.376.1-3.592.1a16.582,16.582,0,0,1-3.323-.607l-4.22-4.6-.268.5,4.3,4.692.05.014a17.154,17.154,0,0,0,3.459.632Z"/><path class="cls-25" d="M90.53,109.3s.523,3.793.3,4.216a11.946,11.946,0,0,0-.5,1.937l2.678.046s.572-4.544.139-5.153a3.879,3.879,0,0,0-1.251-1.22C91.733,109.121,90.53,109.3,90.53,109.3Z"/><path class="cls-26" d="M43.47,108.14s-2.571.258-3.555.433-1.425.447-.389,1,23,11.443,23.437,11.749S65.8,122.733,67,122.527s3.833-1.008,5.911-1.42,17.19-4.113,17.738-4.473,2.627-.5,1.92-1.232a4.279,4.279,0,0,0-2.234-1.014c-.273-.032-41.342-6.822-41.342-6.822Z"/><path class="cls-27" d="M90.53,109.3s1.036.4,1.195,1.1a32.316,32.316,0,0,1-.481,4.721s-.805.213-1.462.391-19.706,4.8-20.2,4.913-3.45.889-3.45.889,0,.327.7-1.2c.016-.035.209-.671.224-.708.625-1.444.973-2,.5-2.711-.071-.109.171.015.078-.07A19.513,19.513,0,0,1,66.116,115l.532-.129L85.494,110.3Z"/><path class="cls-28" d="M67.043,115.221a6.077,6.077,0,0,0-2.072-.8c-1.637-.434-18.487-7.628-18.487-7.628L40.7,104.3s-.388,1.028,1.133,2.432.318,1.942.153,1.972a4.994,4.994,0,0,0-.766.389l24.909,12.212s.137-.012.74-.614,1.58-3.311,1.039-4.1S67.043,115.221,67.043,115.221Z"/><path class="cls-26" d="M92.06,109.366a7.526,7.526,0,0,1,.853,3.612,4,4,0,0,1-1.278,3.242c.219.031,2.026-.236,2.523-1.051s.4-3.818.029-4.881S91.954,108.85,92.06,109.366Z"/><path class="cls-26" d="M90.918,108.177a21.121,21.121,0,0,1,2.126,1.013c.382.275.763.429.217.395a8.981,8.981,0,0,0-3.335.072c-.987.388-10.95,2.906-11.334,3.025s-6.239,1.357-8.429,2.012a11.225,11.225,0,0,1-4.625.614c-1.093-.128-5.424-2.341-7.441-3.019s-15.6-6.671-16.578-7.131-3.928-1.327-3.6-1.75,2.412-.955,4.381-1.278,17.622-3.351,17.622-3.351,4.487-.733,6.671-.3,14.4,5.724,15.816,6.217S90.918,108.177,90.918,108.177Z"/><path class="cls-29" d="M85.476,102.405l-4.4,2.218s-12.578,5.01-13.223,5.01-.123-.849-.031-1.173S82.9,102.035,82.9,102.035A15.006,15.006,0,0,1,85.476,102.405Z"/><path class="cls-30" d="M83.728,95.888a3.849,3.849,0,0,0-.552,1.941,13.2,13.2,0,0,0,.092,2.5c.138.647.552,2.08.552,2.08l-13.243,5.5a7.61,7.61,0,0,1-2.116.37c-.367-.139-.735-.878-.735-3.1s-.874-2.264,1.931-3.7,13.519-5.224,13.519-5.224Z"/><path class="cls-31" d="M85.108,95.888a16.716,16.716,0,0,1-3.174,1.248c-1.609.416-12.442,4.3-12.718,4.578a3.385,3.385,0,0,1-.965.525s-1.4-.923-4.983-.969-13.8-2.147-13.8-2.147l-6.58-1.53s3.912-1.52,5.66-2.4,10.806-3.605,12.783-3.374S73.7,93.53,75.267,93.53,86.418,94.482,85.108,95.888Z"/><path class="cls-31" d="M68.554,101.712a15.26,15.26,0,0,0-.782,3.79c.091,1.109.782,4.021.782,4.021s-.276.37-1.61.416-5.656-1.34-6.9-1.571-13.289-2.45-13.933-2.635-3.449-.416-3.679-1.757a24.973,24.973,0,0,1-.322-5.592A1.1,1.1,0,0,1,43.4,97.6C43.953,97.737,68.554,101.712,68.554,101.712Z"/><path class="cls-30" d="M83.084,99.262c-3.192,1.683-6.9,4.168-10.668,4.391"/><path class="cls-30" d="M83.082,97.876c-3.267,1.855-5.521,4.287-9.379,4.668"/><path class="cls-32" d="M62.621,100.834c-1.142,1.173-1.114,4.537-.735,6.1"/><path class="cls-32" d="M59.892,100.381c-1.912.735-.668,4.805-.029,6.508"/><path class="cls-32" d="M48.873,98.43c-1.591,1.24-1.988,4.995-.874,6.425"/><path class="cls-32" d="M46.387,98.038c-1.833,1.225-1.239,4.686-.043,6.354"/><path class="cls-33" d="M132.823,45.572s2.189,1.532,2.626,2.626,1.24,2.407.365,3.866-1.823,2.456-2.553,2.448-29.029,0-29.029,0v-.7l1.24-.293s2.116-3.938,1.97-4.813-2.2-2.183-2.2-2.183l-1.01-.3s-.51-.511.365-.657S132.823,45.572,132.823,45.572Z"/><path class="cls-34" d="M132.6,46.229s3.166,1.9,2.388,4.814a3.474,3.474,0,0,1-3.434,2.771H105.108s2.334-3.112,1.556-4.473-1.556-3.112-1.556-3.112Z"/></svg>