<svg id="word" xmlns="http://www.w3.org/2000/svg" xmlns:xlink="http://www.w3.org/1999/xlink" viewBox="0 0 160 160"><defs><style>.cls-1{fill:none;}.cls-2{clip-path:url(#clip-path);}.cls-3{fill:#ceecfb;}.cls-4{fill:#abdbf6;}.cls-5{fill:#badbeb;}.cls-6{fill:#c5e7f9;}.cls-7{fill:#dbf1fc;}</style><clipPath id="clip-path"><rect class="cls-1" x="-195.5" y="13.5" width="132" height="132"/></clipPath></defs><g class="cls-2"><path class="cls-3" d="M-29.616,96.041s-117.063-26.059-134.647-22.5c-23.134,4.683-77.463,18.107-64.868,27.614s52.8,36.117,84.562,36.117S2.948,123.685,7.246,119.691C24.729,103.446-29.616,96.041-29.616,96.041Z"/><path class="cls-4" d="M-24.989,98.747c13.89,2.788,35.5,8.951,24.032,18.926a10.949,10.949,0,0,1-3.411,1.114l-64.394-13.358Z"/></g><path class="cls-5" d="M51.043,69.028A3.172,3.172,0,0,0,49.815,66.2c-1.473-1.105-4.543.737-4.543.737s-1.228-5.035-6.263-5.157-5.4,1.6-6.386,2.824-4.421,3.438-2.087,9.21,19.555,4.3,20.523,1.965S51.043,69.028,51.043,69.028Z"/><path class="cls-5" d="M99.085,52.421s3.561-3.192,6.14-2.7,3.93,3.684,3.93,3.684a6.355,6.355,0,0,1,5.28,0c3.193,1.228,2.456,3.561,2.456,3.561s3.807-2.579,7,0,2.948,9.578,2.948,9.578-.246,3.684-1.106,4.421-17.56,2.088-21.489-.982-7.737-12.771-7.737-12.771Z"/><path class="cls-6" d="M41.7,75.912s-1.6-.491-2.334,0-.122-2.456-3.07-2.825-4.175.86-4.175.86-.859-3.316-6.631-3.807S15.911,75.421,15.3,78a14.694,14.694,0,0,0,0,5.526s-4.912-.676-5.649,4.145a5.32,5.32,0,0,0,3.929,6.293h5.281a3.843,3.843,0,0,1,3.193,0c1.964.737,4.729-.491,4.729-.491s5.34,2.579,9.638,1.842,6.017-2.087,6.017-2.087,2.334,2.72,7.368,2.22,6.386-1.484,6.386-1.484S63.8,97.156,69.7,96.542a100.142,100.142,0,0,0,12.526-2.333,20.961,20.961,0,0,0,9.209,1.6c4.912-.368,6.263-1.719,6.263-1.719s3.991,1.228,11.236.983,9.824-3.193,9.824-3.193,6.508,3.561,11.911,1.842,6.509-2.825,6.509-2.825,7,2.579,10.806-.736,2.7-7,0-9.088a19.319,19.319,0,0,0-6.631-2.947s2.087-5.953-2.333-8.011-6.754-.953-6.754-.953,1.719-3.807-.86-5.9-6.14-.736-6.14-.736-1.228-2.088-5.035-1.842-5.771,5.157-5.771,5.157-.86-.368-2.211.614a2.975,2.975,0,0,0-1.35,2.211s-.614-1.106-2.579,0c-1.047-3.424-5.71-4.3-5.71-4.3a26.211,26.211,0,0,0-4.3-10.316c-3.438-4.666-11.052-5.894-11.052-5.894s-.368-4.052-8.718-5.035-11.421,4.053-11.421,4.053-6.631.245-9.7,4.052-1.965,11.543-1.965,11.543-1.719-.381-4.421,1.1-1.35,5.938-1.35,5.938S46,69.932,44.523,71,41.7,75.912,41.7,75.912Z"/><path class="cls-7" d="M43.784,104.037a20.061,20.061,0,0,1-7.022,1.146c-3.009-.286-4.872-.429-5.589-2.866s3.439-2.006,3.439-2.006-1.862-2.579,1.72-4.729,5.159-.716,5.159-.716,0-5.446,5.159-6.306a8.712,8.712,0,0,1,8.025,2.723s.86-4.3,3.582-5.159a6.28,6.28,0,0,1,4.443,0s2.293-6.448,7.738-7.881,10.6,1.289,10.6,1.289,2.437-8.884,11.895-9.458,13.9,1.863,16.766,5.589,2.579,7.738,2.579,9.458a8.163,8.163,0,0,1-1.146,3.583,9.159,9.159,0,0,1,5.589.573c3.009,1.29,3.3,6.878,3.3,6.878s2.866-1.289,5.159-.43,3.152,5.733,3.152,5.733,2.866-2.007,4.156-2.15,4.3,2.15,4.3,2.15a3.105,3.105,0,0,1,3.726-1.72c2.866.573,2.723,1.863,2.723,1.863s4.585-1.72,6.735,1.146-3.583,5.876-7.452,4.729-6.305-.646-9.744.25-10.032-1.969-10.032-1.969-4.872,2.71-9.171,2.143a21.9,21.9,0,0,1-7.308-2.287,119.488,119.488,0,0,1-12.9,2.365c-4.442.358-4.012-1.935-9.028-1.935s-10.461,3.583-14.9,1.935a33.255,33.255,0,0,1-6.162-2.795s-4.3,3.44-7.738,2.293S47.215,103.137,43.784,104.037Z"/></svg>