<svg id="word" xmlns="http://www.w3.org/2000/svg" viewBox="0 0 160 160"><defs><style>.cls-1{fill:#546d83;}.cls-1,.cls-2,.cls-3,.cls-4,.cls-5{stroke:#9d4b9c;stroke-miterlimit:10;stroke-width:0.5px;}.cls-2{fill:#221f1f;}.cls-3{fill:#e62f29;}.cls-4,.cls-5{fill:#fff;}.cls-4{opacity:0.63;}</style></defs><path class="cls-1" d="M103.637,63.606s-.637.5-1.739,1.357l-7.64,4.522C99.527,66.1,103.637,63.606,103.637,63.606Z"/><path class="cls-2" d="M109.091,88.846a9.218,9.218,0,0,1-3.339-1.157.525.525,0,0,1,.531-.906,8.41,8.41,0,0,0,7.26.53.525.525,0,1,1,.394.973A9.392,9.392,0,0,1,109.091,88.846Z"/><path class="cls-2" d="M101.986,110a.526.526,0,0,1-.361-.227,26.428,26.428,0,0,0-3.864-4.24c-.95-.9-1.934-1.839-2.811-2.853-.51-.591-.985-1.208-1.46-1.826a.525.525,0,1,1,.833-.64c.462.6.925,1.2,1.422,1.779.843.976,1.807,1.892,2.74,2.778a27.364,27.364,0,0,1,4.012,4.415.526.526,0,0,1-.511.814Z"/><path class="cls-2" d="M74.857,115.24a.555.555,0,0,1-.1-.026.525.525,0,0,1-.316-.673,53.206,53.206,0,0,0,1.585-5.214,5.669,5.669,0,0,0,.092-3.466.525.525,0,1,1,.967-.409,6.517,6.517,0,0,1-.04,4.128,54.231,54.231,0,0,1-1.616,5.318A.525.525,0,0,1,74.857,115.24Z"/><path class="cls-2" d="M78.8,49.757l-.026,0c-.287-.041-.443-.518-.388-.8a14.411,14.411,0,0,0-.02-4.161,11.8,11.8,0,0,1,.288-5.416.541.541,0,0,1,.68-.329.512.512,0,0,1,.307.664,10.653,10.653,0,0,0-.217,4.884,16.1,16.1,0,0,1-.007,4.562C79.364,49.43,79.076,49.8,78.8,49.757Z"/><path class="cls-2" d="M63.025,56.148a.558.558,0,0,1-.1-.023.525.525,0,0,1-.323-.669,1.269,1.269,0,0,0-.238-.851A21.06,21.06,0,0,0,57.2,48.36a.525.525,0,1,1,.664-.814A22.131,22.131,0,0,1,63.29,54.1a2.1,2.1,0,0,1,.306,1.7A.525.525,0,0,1,63.025,56.148Z"/><path class="cls-2" d="M38.888,74.142a.524.524,0,0,1-.14-1l5.211-2.334a8.569,8.569,0,0,1,1.538-.574,8.928,8.928,0,0,1,.907-.149c.2-.024.395-.049.59-.085s.412-.088.616-.137a7.324,7.324,0,0,1,1.172-.216,7.279,7.279,0,0,1,3.134.686.525.525,0,1,1-.378.979A6.49,6.49,0,0,0,48.86,70.7a6.343,6.343,0,0,0-1,.189c-.224.054-.448.108-.674.148s-.431.068-.648.095a5.634,5.634,0,0,0-2.147.638L39.178,74.1A.517.517,0,0,1,38.888,74.142Z"/><polygon class="cls-2" points="53.58 89.873 58.971 97.295 102.861 61.309 103.176 60.517 53.58 89.873"/><path class="cls-3" d="M102.316,59.453S100.292,52.035,84.352,49.2s-29.038,11.494-31.2,16.234S50.667,79.195,51.191,83.9s.978,8.726.978,8.726,15.638-8.241,25.045-15.323,24.994-16.544,24.994-16.544S70.424,85.542,66.933,88.829A141.556,141.556,0,0,1,55.241,97.8s2.244,1.985,10.768,5.909,25.761,2.71,34.608-8.018,9.253-22.407,7.012-27.206A62.639,62.639,0,0,0,102.316,59.453Z"/><path class="cls-4" d="M72.408,52.5a9.835,9.835,0,0,1,6.374-2.592c7.175.167,13.44,6.408,9.388,6.048S69.255,54.141,72.408,52.5Z"/><path class="cls-2" d="M76.11,60.021s-3.394-2.181-6.087-.274-5.266,6.663-1.57,8.262S79.482,65.548,76.11,60.021Z"/><path class="cls-2" d="M90,49.613s8.557-6.924,17.733-1.071,8.706,12.153,6.556,18.237-5.605,8.309-5.605,8.309-1.916-8.727-4.829-13.049-5.584-7.557-9.455-8.615C86.909,51.378,88.175,48.956,90,49.613Z"/><path class="cls-5" d="M104.944,48.817s-3.67-3.076-4.712-.622,1.209,4.1,2.583,4.3C105.533,52.882,105.3,49.455,104.944,48.817Z"/><path class="cls-5" d="M113.852,59.88s-3.4-2.181-3.648,1.5,2.488,4.87,3.57,3.438S115.16,60.926,113.852,59.88Z"/><path class="cls-2" d="M108.951,50.153a.47.47,0,0,1-.262-.079.475.475,0,0,1-.135-.657,24.18,24.18,0,0,0,3.907-15.045.474.474,0,0,1,.946-.072,25.137,25.137,0,0,1-4.06,15.639A.477.477,0,0,1,108.951,50.153Z"/><path class="cls-2" d="M112.85,34.958s-2.26-2.96-.482-3.794,2.611,1.181,2.258,2.249A3.044,3.044,0,0,1,112.85,34.958Z"/><path class="cls-2" d="M130.776,57.914a.569.569,0,0,1-.091-.008,29.175,29.175,0,0,1-3.57-1.014,18.458,18.458,0,0,0-5.035-1.171,18.819,18.819,0,0,0-3.5.307c-1.3.2-2.528.444-3.21,1.3a.474.474,0,0,1-.744-.589c.9-1.131,2.374-1.438,3.812-1.655a19.222,19.222,0,0,1,3.68-.316,19.454,19.454,0,0,1,5.3,1.218,28.116,28.116,0,0,0,3.452.983.474.474,0,0,1-.089.94Z"/><path class="cls-2" d="M131.278,56.981s4.864.465,3.444,2.484-3.32.007-3.678-.7S130.328,56.628,131.278,56.981Z"/><path class="cls-2" d="M114.215,61.389s-1.583-1.017-1.7.7,1.16,2.271,1.664,1.6A1.8,1.8,0,0,0,114.215,61.389Z"/><path class="cls-2" d="M104.7,49.074s-1.582-1.017-1.7.7,1.16,2.27,1.664,1.6S105.311,49.561,104.7,49.074Z"/><path class="cls-2" d="M95.606,82.279s-3.394-2.181-6.087-.274-5.266,6.664-1.57,8.262S98.978,87.806,95.606,82.279Z"/></svg>