<svg id="word" xmlns="http://www.w3.org/2000/svg" xmlns:xlink="http://www.w3.org/1999/xlink" viewBox="0 0 160 160"><defs><style>.cls-1,.cls-3,.cls-9{fill:none;}.cls-2{fill:#64a6d9;}.cls-3,.cls-4,.cls-5,.cls-6,.cls-8,.cls-9{stroke:#9c4c9c;}.cls-11,.cls-12,.cls-13,.cls-14,.cls-3,.cls-4,.cls-5,.cls-6,.cls-8,.cls-9{stroke-miterlimit:10;}.cls-3,.cls-4,.cls-5,.cls-6,.cls-8{stroke-width:0.75px;}.cls-4{fill:#fad7c6;}.cls-5{fill:#fcf5ad;}.cls-6{fill:#fff;}.cls-7{fill:#9c4c9c;}.cls-8{fill:#e80a89;}.cls-9{stroke-width:1.155px;}.cls-10{clip-path:url(#clip-path);}.cls-11{fill:#fdeae0;}.cls-11,.cls-12,.cls-13,.cls-14{stroke:#9d4b9c;stroke-width:1.099px;}.cls-12{fill:#c4706a;}.cls-13{fill:#eb008b;}.cls-14{fill:#1b75bb;}</style><clipPath id="clip-path"><rect class="cls-1" x="14.5" y="-196.5" width="132" height="132"/></clipPath></defs><path class="cls-2" d="M73.334,100.225s-5.518.99-8.3,1.386-10.308,5.94-14.466,9.108a42.218,42.218,0,0,1-8.514,4.95s6.534,4.158,9.5,7.722,5.019,5.94,5.019,5.94l5.277-1.584s.594,4.95.594,6.138-1.188-.2,8.513,0,25.74,2.178,29.7,2.178a108.6,108.6,0,0,0,11.347-1.188c.335,0,5.989-1.782,5.989-1.782l-4.862-8.91,6.411,8.312s7.449-3.362,8.835-5.54,5.474-3.246,5.474-3.246-17.336-25.431-21.847-28.155-15.109,0-15.109,0l-2.55,1.7s.966,7.524.174,8.514-6.329,2.97-10.193,2.574-8-9.306-8-9.306Z"/><path class="cls-3" d="M112.972,124.317l6.41,8.312s7.45-3.363,8.836-5.54,5.474-3.246,5.474-3.246-17.336-25.431-21.848-28.155-15.108,0-15.108,0l-2.55,1.7s.966,7.524.174,8.514-6.329,2.97-10.194,2.574-8-9.306-8-9.306l-2.987,1.188s-5.519.99-8.3,1.386-10.309,5.94-14.467,9.108a42.218,42.218,0,0,1-8.514,4.95s6.534,4.158,9.5,7.722,5.02,5.939,5.02,5.939l5.276-1.583"/><path class="cls-4" d="M76.9,89.137s2.178,7.524,1.188,8.712-4.752,2.376-4.752,2.376v10.494s19.4-.99,21.186-1.584,4.752-3.366,4.752-3.366V94.6s-4.356,1.725-4.752.951c-2.511-4.912-1.188-8.2-1.188-8.2Z"/><path class="cls-4" d="M56.109,72.7s.792,7.92,9.108,13.662,14.255,5.94,14.255,5.94,3.762,3.366,6.732,2.376a11.334,11.334,0,0,0,4.752-3.168s14.652-5.544,17.226-10.494S112.34,53.5,111.944,52.9s-13.068-9.3-29.3-9.5-33.659,2.573-33.659,7.325S56.109,72.7,56.109,72.7Z"/><path class="cls-5" d="M94.52,27.362S83.234,23.6,77.1,24.392s-17.621,6.93-22.373,12.276S39.873,52.507,38.487,63.2s-8.316,22.374-8.316,22.374A123.08,123.08,0,0,0,45.417,93.1c8.316,3.366,15.048,2.543,18.018,1.766a79.273,79.273,0,0,1,8.711-1.37l4.1-1.781s-14.6-5.941-17.169-14.653S55.372,62.476,57.3,53.893s-.99-10.493,6.732-15.641S94.52,31.52,94.52,31.52l3.366-1.782Z"/><path class="cls-5" d="M100.169,31.441s3.976-1.5,11.836,4.831,10.631,8.225,13.4,21.437-3.762,23.9-3.168,26.676a26.987,26.987,0,0,0,1.584,4.95H113.133l-18.613.7s7.039-3.871,9.96-7.124c8.864-9.868,5.975-24.863,5.828-26.051s-3.314-8.335-5.1-13.473S100.169,31.441,100.169,31.441Z"/><path class="cls-6" d="M69.906,61.014S67,60.375,65.813,62.458c-1.245,2.184-2.408,6.26,2.046,8.427S74.469,64.4,69.906,61.014Z"/><ellipse class="cls-7" cx="67.048" cy="65.385" rx="2.077" ry="2.626"/><path class="cls-5" d="M97.886,33.9,92.342,54.289H80.493c-5.773,0-14.286-1.98-18.84,0a73.45,73.45,0,0,1-11.088,3.42s2.178-8.766,6.336-15.3,7.664-13,17.831-15.6c11.2-2.865,23.558,1.3,23.154,2.931Z"/><path class="cls-5" d="M94.841,45.1l-.271,8.437s6.682,1.06,8.86,4.174,6.922,6.324,7.718,7.887a5.065,5.065,0,0,0,2.776,2.157s.99,6.732.99-3.366,6.93-7.524,0-17.622A74.721,74.721,0,0,0,97.886,29.738Z"/><path class="cls-8" d="M60.288,31.915s2.969-6.568,7.127-6.608,6.731-1.623,5.939,2.139a38.019,38.019,0,0,0-.791,7.722c0,.792,1.2,2.488-.99,1.188S60.288,31.915,60.288,31.915Z"/><path class="cls-8" d="M58.37,33.518s1.719-4.686-4.815-6.666-10.494-2.574-10.3,1.386.976,7.128-.007,8.118,6.8,3.564,7.661,1.188S58.37,33.518,58.37,33.518Z"/><path class="cls-6" d="M95.759,60.373s-3.37-.963-4.093,1.445-2.407,6.259,2.047,8.426S100.322,63.761,95.759,60.373Z"/><ellipse class="cls-7" cx="92.725" cy="64.745" rx="1.9" ry="2.626"/><path class="cls-7" d="M79.377,73.311a2.059,2.059,0,0,1,1.09-1.377,3.255,3.255,0,0,1,1.773-.373,4.447,4.447,0,0,1,1.66.478,4.736,4.736,0,0,1,1.352,1c-1.165.011-2.158-.281-3.094-.329a5.339,5.339,0,0,0-1.37.06A4.149,4.149,0,0,0,79.377,73.311Z"/><path class="cls-7" d="M71.5,74.937l.916.64a17.617,17.617,0,0,0,2.528,1.4,14.431,14.431,0,0,0,3.827,1.138,11.87,11.87,0,0,0,2.211.134A17.737,17.737,0,0,0,85.6,77.53a19.123,19.123,0,0,0,2.155-.751c1.383-.551,2.634-1.2,3.712-1.752s1.994-1.01,2.646-1.3,1.041-.414,1.041-.414-.354.2-.945.593c-.6.372-1.425.959-2.435,1.645a29.348,29.348,0,0,1-3.632,2.11,18.4,18.4,0,0,1-2.227.893,16.046,16.046,0,0,1-2.416.6,16.724,16.724,0,0,1-2.47.238,11.691,11.691,0,0,1-2.45-.205,12.2,12.2,0,0,1-3.991-1.553,12.512,12.512,0,0,1-2.344-1.862,6.682,6.682,0,0,1-.561-.613Z"/><path class="cls-7" d="M64.843,57.885a2.059,2.059,0,0,1,.589-1.654,3.257,3.257,0,0,1,1.559-.924,4.449,4.449,0,0,1,1.725-.081,4.76,4.76,0,0,1,1.6.515c-1.1.385-2.134.428-3.035.683a5.294,5.294,0,0,0-1.278.5A4.134,4.134,0,0,0,64.843,57.885Z"/><path class="cls-7" d="M92.278,56.509a2.061,2.061,0,0,1,1.395-1.066,3.261,3.261,0,0,1,1.811.075,4.452,4.452,0,0,1,1.491.872,4.761,4.761,0,0,1,1.063,1.3c-1.132-.277-2.022-.8-2.917-1.081a5.272,5.272,0,0,0-1.343-.279A4.114,4.114,0,0,0,92.278,56.509Z"/><path class="cls-3" d="M84.808,51.163c1.312-8.445,5.959-15.153,11.764-21.425-4.755.968-9.835,1.968-14.209,4.071A40.115,40.115,0,0,0,76.9,36.8a41.059,41.059,0,0,0-5.179,4.5,14.9,14.9,0,0,0-2.82,3.339,5.03,5.03,0,0,0-.471,4.219"/><path class="cls-9" d="M75.631,51.758a20.643,20.643,0,0,1,3.144-7.086A41.257,41.257,0,0,1,83.1,39.685"/><path class="cls-3" d="M105.505,55.947l-.035-8.056a21.1,21.1,0,0,0-.229-3.668,20.433,20.433,0,0,0-2.563-6.167q-2.214-3.978-4.555-7.884"/><g class="cls-10"><path class="cls-11" d="M53.807,76.462s-3.038,17.62,2.43,27.34,7.014,15.4,8.294,21.97a84.4,84.4,0,0,1,1.853,17.111c.18,3.847-2.407,6.075,0,8.1s7.258,6.277,9.186,6.682,6.492-.135,6.67-2.565.411-10.295-1.1-12.42c-3.232-4.556-8-12.352-8.909-17.414-.61-3.388-2.937-48.8-2.937-48.8Z"/><path class="cls-12" d="M67.54,147.135c-.6.524,3.474,3,8.03,2.32,6.431-.966,4.955-4.217,5.776-4.927s-.2-1.848-.2-1.848,3.118,5.7,3.139,8.962c.032,5.112-.1,9.125-2.329,8.959s-8.505-1.924-11.339-4.354-5.339-4.513-5.265-6.4c.2-5.2,1.035-6.961,1.035-6.961Z"/><path class="cls-13" d="M77.7,148.972s-6.107-1.424-5.28.658,3.63.345,3.63.345-2.987,1.812-1.414,3.711,2.3-2.58,2.3-2.58-.122,4.554,2.156,4.858-.38-4.936-.38-4.936,1.823,3.3,3.8,1.04-2.126-2.438-2.126-2.438,3.922-1.671,1.76-2.826C79.017,145.136,77.7,148.972,77.7,148.972Z"/><path class="cls-11" d="M101.935,70.6s8.408,15.78,6.263,26.723-1.835,16.822-.99,23.463a84.255,84.255,0,0,0,3.6,16.829c1.035,3.71,4.19,5.015,2.539,7.692s-4.925,8.236-6.629,9.225-6.207,1.907-7.138-.345-3.617-9.647-2.851-12.137c1.641-5.34,3.723-14.237,3-19.33-.483-3.408-12.51-47.265-12.51-47.265Z"/><path class="cls-12" d="M111.047,142.015c.738.308-2.358,3.942-6.9,4.72-6.41,1.1-6.028-2.452-7.029-2.868s-.387-1.818-.387-1.818-1.175,6.387-.172,9.493c1.572,4.864,2.957,8.633,5.02,7.778s7.473-4.493,9.4-7.689,3.655-5.959,2.993-7.731c-1.824-4.879-3.165-6.286-3.165-6.286Z"/><path class="cls-13" d="M101.976,146.943s5.354-3.267,5.22-1.03-3.338,1.465-3.338,1.465,3.405.785,2.506,3.081-3-1.728-3-1.728,1.543,4.286-.525,5.289-1.186-4.806-1.186-4.806-.7,3.7-3.28,2.178,1.255-2.983,1.255-2.983-4.248-.357-2.557-2.131C99.521,143.714,101.976,146.943,101.976,146.943Z"/><path class="cls-14" d="M102.733-11.354s.947,18.766,4.765,31.047,3.715,23.538,13.283,33.43a179.347,179.347,0,0,1,15.643,18.421S132.7,77,119.578,80.072s-40.865-.341-56.355-1.364-30.379-1.365-30.379-1.365a42.264,42.264,0,0,0,5.983-27.8C36.8,33,27.993,11.847,30.978.59s9.869-22.4,9.869-22.4Z"/><path class="cls-11" d="M128.109-17.1s.5,8.207,2.6,10.883,5.464,7.364,6.731,9.344,2.031,3.513,1.975,4.39a7.8,7.8,0,0,1-1.006,2.439,7.592,7.592,0,0,0-.9,2.137c-.2,1.024-1.381,1.069-1.381,1.069s.927,2.219-.066,3.6-4.544,2.584-5.759,1.376,3.245-2.484,2.82-4.263.635-1.772-1.349-4.538-2.712-4.71-3.1-3.559,1.044,7.592.537,8.292-2.616,2.957-3.143.751-.091-5.927-1.667-6.985A6.12,6.12,0,0,1,121.7,1.488c.564-3.179,1.825-4,.777-8.385s-5.735-11.977-6.866-14.7-4.436-8.245-4.436-8.245l13.616-4.5Z"/></g></svg>