<svg id="word" xmlns="http://www.w3.org/2000/svg" viewBox="0 0 160 160"><defs><style>.cls-1{fill:#9b4b9c;}.cls-2,.cls-4{fill:none;}.cls-2,.cls-5,.cls-6,.cls-8{stroke:#9b4d9c;}.cls-2,.cls-3,.cls-4,.cls-5,.cls-6,.cls-8{stroke-miterlimit:10;}.cls-2{stroke-width:0.752px;}.cls-3{fill:#d5ccb1;}.cls-3,.cls-4{stroke:#9b4b9c;}.cls-3,.cls-5,.cls-6,.cls-8{stroke-width:0.667px;}.cls-4{stroke-linecap:round;stroke-width:1.334px;}.cls-5{fill:#cbc03b;}.cls-6{fill:#ced1d2;}.cls-7{fill:#9b4d9c;}.cls-8{fill:#c69f3d;}</style></defs><path class="cls-1" d="M129.391,8.486s-2.913-3.108-1.209-3.944S130.634,7.8,130.634,7.8s1.051-4.348,2.505-3.694c2.668,1.2-1.694,4.374-1.694,4.374s4.014-2.184,4.3.02-4.043.449-4.043.449,4.4,1.557,3.956,3.426S131.3,10.18,131.3,10.18s2.861,4.286.717,4.425c-1.92.124-1.721-4.086-1.721-4.086s-1.119,4.549-2.968,3.54c-2.168-1.182,2.091-4.048,2.091-4.048s-5,1.053-4.422-1.432C125.475,6.529,129.391,8.486,129.391,8.486Z"/><path class="cls-1" d="M29.78,7.639s.3-4.248,2.075-3.564-.725,4.01-.725,4.01,3.906-2.181,4.413-.67c.931,2.774-4.362,1.726-4.362,1.726s4.329,1.465,2.906,3.173S31.013,9.65,31.013,9.65s1.842,4.285.17,5.231-1.348-4.687-1.348-4.687-1.2,5.011-2.761,3.531c-1.4-1.326,1.831-4.037,1.831-4.037s-4.1,2.266-4.615.224c-.6-2.4,4.392-1.213,4.392-1.213S24.517,5.745,26.731,4.48C28.558,3.435,29.78,7.639,29.78,7.639Z"/><path class="cls-2" d="M32.661,10.231c16.7,10.081,44.067,12.385,60.484,9.505,24.015-4.213,38.348-10.943,38.348-10.943"/><path class="cls-3" d="M57.639,45.692a113.534,113.534,0,0,0,13.153-5.157c5.646-2.775,5.5-4.14,9.457-4.564s5.756,1.651,7.941,2.8,14.72,7.2,16.044,8.24,3.818,3.93,3.343,5.164-7.023-1.022-9.348-2.351S90.5,44.438,81.1,45.051s-18.383,5.027-23.023,4.736S53.227,47.213,57.639,45.692Z"/><path class="cls-4" d="M76.5,25.231s-3.042-4.446,2.243-5.694c5.433-1.284,6.266,2.721,6.037,4.849s-3.818,5.2-4.193,7.03a40.727,40.727,0,0,0-.537,4.577"/><path class="cls-5" d="M71.729,46.991s-7.949-3.676-10.742,1.3-7.734,28.977-10.1,33.734-14.18,26.815-16.543,29.194a68.236,68.236,0,0,0-6.015,8l5.156,4.541,4.3,2.162-1.5,2.379a27.773,27.773,0,0,0,6.23,5.839c3.437,2.162,7.5-.444,7.5-.444L49.171,138s25.565,3.275,36.522,3.707a56.753,56.753,0,0,0,20.41-3.243v-2.379s6.015-1.514,8.808-4.974a24.9,24.9,0,0,1,4.726-4.757V124.84a8.555,8.555,0,0,0,4.3-2.595c1.5-1.946,7.734-4.973,7.734-4.973s-12.46-20.976-15.9-25.518-6.66-17.516-6.66-17.516-4.726-13.191-5.585-18.6.859-7.352-1.5-9.082-16.764-.876-16.764-.876Z"/><path class="cls-5" d="M49.171,135.544s8.164-17.732,11.171-28.76S68.936,70.67,68.936,70.67"/><path class="cls-5" d="M106.1,136.085s-8.809-41.736-9.238-43.9-3.008-19.03-3.008-19.03"/><path class="cls-5" d="M119.208,125.813S104.814,93.16,104.169,89.268s-3.115-12.327-3.115-12.327"/><path class="cls-5" d="M37.784,125.921s12.891-21.408,15.684-28.544,7.089-20.544,7.089-20.544"/><ellipse class="cls-6" cx="71.13" cy="83.936" rx="3.223" ry="2.919"/><ellipse class="cls-7" cx="69.671" cy="83.801" rx="0.664" ry="0.587"/><ellipse class="cls-7" cx="72.649" cy="83.936" rx="0.664" ry="0.587"/><ellipse class="cls-6" cx="91.328" cy="84.524" rx="3.223" ry="2.919"/><ellipse class="cls-7" cx="89.869" cy="84.388" rx="0.664" ry="0.587"/><ellipse class="cls-7" cx="92.846" cy="84.524" rx="0.664" ry="0.587"/><ellipse class="cls-6" cx="67.11" cy="103.351" rx="3.223" ry="2.919"/><ellipse class="cls-7" cx="65.651" cy="103.216" rx="0.664" ry="0.587"/><ellipse class="cls-7" cx="68.629" cy="103.351" rx="0.664" ry="0.587"/><ellipse class="cls-6" cx="93.857" cy="107.075" rx="3.223" ry="2.919"/><ellipse class="cls-7" cx="92.399" cy="106.94" rx="0.664" ry="0.587"/><ellipse class="cls-7" cx="95.376" cy="107.075" rx="0.664" ry="0.587"/><path class="cls-5" d="M102.988,46.544s9.238.217,12.03,8.866,6.016,16.652,8.164,19.03,2.578,8.65,2.578,8.65l-1.5,3.46-7.595,2.609S109.11,79.2,105.942,72.927,99.98,46.544,99.98,46.544Z"/><path class="cls-5" d="M117.035,89.764l1.492,3.247a21.633,21.633,0,0,0,4.619-.917A4.593,4.593,0,0,0,126.673,88l-1.968-2.694s-4.443,3.279-7.228,3.634A.58.58,0,0,0,117.035,89.764Z"/><path class="cls-7" d="M123.311,85.652c-.105-1.145-.14-2.234-.243-3.329-.085-1.1-.236-2.175-.324-3.322a8.242,8.242,0,0,1,.567,6.651Z"/><path class="cls-7" d="M121.587,86.691a8.462,8.462,0,0,1-.247-3.252,6.519,6.519,0,0,0-.457-3.066,2.718,2.718,0,0,1,.924,1.407,5.21,5.21,0,0,1,.2,1.682C121.956,84.584,121.711,85.594,121.587,86.691Z"/><path class="cls-7" d="M119.7,87.77a10.441,10.441,0,0,1-2.431-1.38,13.389,13.389,0,0,1-1.077-.886,2.319,2.319,0,0,1-.473-.587.9.9,0,0,1-.076-.742c.1.48.506.676.865.916a13.81,13.81,0,0,1,1.156.763A10.5,10.5,0,0,1,119.7,87.77Z"/><path class="cls-5" d="M61.494,45.937s-9.214-.7-12.842,7.627-7.619,15.972-9.991,18.125-3.414,8.352-3.414,8.352L36.4,83.633l7.3,3.352S52.2,77.822,55.966,71.9s8.521-25.661,8.521-25.661Z"/><path class="cls-5" d="M43.275,87.55l-1.8,3.082a21.686,21.686,0,0,1-4.507-1.371,4.6,4.6,0,0,1-3.108-4.423l2.222-2.485s4.1,3.7,6.836,4.335A.58.58,0,0,1,43.275,87.55Z"/><path class="cls-7" d="M37.433,82.833a8.234,8.234,0,0,1,1.217-6.561c-.2,1.132-.456,2.19-.648,3.273C37.792,80.625,37.65,81.705,37.433,82.833Z"/><path class="cls-7" d="M39.047,84.04c-.016-1.105-.161-2.134-.1-3.255a5.16,5.16,0,0,1,.363-1.654,2.718,2.718,0,0,1,1.058-1.31,6.5,6.5,0,0,0-.756,3.006A8.474,8.474,0,0,1,39.047,84.04Z"/><path class="cls-7" d="M40.819,85.3a10.46,10.46,0,0,1,2.214-1.7,13.768,13.768,0,0,1,1.225-.645c.382-.2.806-.357.95-.825a.894.894,0,0,1-.148.731,2.323,2.323,0,0,1-.528.537,13.412,13.412,0,0,1-1.158.774A10.449,10.449,0,0,1,40.819,85.3Z"/><path class="cls-8" d="M67.965,39.816s2.046,4.711,11.148,4.72a27.893,27.893,0,0,0,15.437-4.72l9.426,6.821S99.312,57.88,96.04,60.146a32.641,32.641,0,0,1-7.935,3.643L80.934,45.683,76.155,62.34s-4.661,2.21-9.84-2.982A148.9,148.9,0,0,1,55.6,46.919Z"/></svg>