<svg id="word" xmlns="http://www.w3.org/2000/svg" viewBox="0 0 160 160"><defs><style>.cls-1{fill:#699937;}.cls-2{fill:#6fa03a;}.cls-2,.cls-3,.cls-4,.cls-5,.cls-6,.cls-7,.cls-8{stroke:#9d4b9c;stroke-miterlimit:10;stroke-width:0.666px;}.cls-3{fill:#ffd955;}.cls-4{fill:#f6921e;}.cls-5{fill:#faab18;}.cls-6{fill:gold;}.cls-7{fill:#a9cf42;}.cls-8{fill:#8bc549;}</style></defs><path class="cls-1" d="M83.89,149.4s-4.175-51.695-7.933-57.75-11.066-18.373-7.934-16.7,10.857,11.691,12.736,16.7S90.88,150.086,90.88,150.086Z"/><path class="cls-1" d="M96.626,149.4S88.275,67.643,86.4,62.215,76.932,45.383,75.818,43.986s-.488,1.736,2.018,7.79S88.484,79.961,88.275,88.939s5.01,59.628,5.01,59.628Z"/><path class="cls-1" d="M92.033,149.194s7.307-68.606,9.812-74.243,7.934-24.636,8.56-19.417S103.1,84.763,102.054,90.4s-6.985,59.486-6.985,59.486Z"/><path class="cls-2" d="M91.279,149.986s2-83.158,2.294-84.953.4-10.773.4-10.773l1.9-.4s-.3,4.289-.3,8.18-2,88.045-2,88.045Z"/><path class="cls-3" d="M78.412,37.8S83.1,40.7,85.893,41.991s2.892,2.3,1.895,2.893-6.783,2.593-6.783,2.593l-5.087-.8-.6-7.781,1.1-2.892Z"/><path class="cls-4" d="M53.575,23.937s-4.09,0-2.893,1.6,1.3,2.494.3,2.693-1.8,1.1-.9,1.9,2.494-.3,1.5,1-3.192-.3-2.694,2.194.8,2.095.5,2.494-2.294-.6-1.3.8,2.394.7,1,1.4-2.394-.5-1.4.7,1.1,1.995.7,2.493-.3,1.2.7,1.2.4.6,3.192-.4,3.591-1.9,4.089-3.092,1-1.2,1.4-4.089.7-3.891.4-5.187a8.654,8.654,0,0,0-1-2.594A40.789,40.789,0,0,0,53.575,23.937Z"/><path class="cls-5" d="M75.22,35.608S65.145,30.72,63.649,29.822s-4.987-3.291-5.785-4.688-2.095-4.089-2.793-3.69-.7,1,0,2.393-.2,1.3-.4,2.2,1.3,1.5.7,1.8-2.394-1.1-1.795.4,3.092,1.9,2.792,3.392-.6,1-1.994,1.3-1.995,1.4-1.6,1.9.9,1.1.3,1.2-.5-2.2-1.2.4,2.992-.1,1.3,1.2S51.48,39.5,50.682,39s-1.3-.7-1,.2.8.9,1.4,1.5,0,1.1-.6,1.9-1.6,1.995-.6,1.795,2.095-1.2,2.194-.3-.9,1.8,0,1.7-.6-1.8,1.9-1.8a44.814,44.814,0,0,1,6.383.4c2.394.3,12.269,2.394,12.269,2.394s1.7-1.4,3.192-2.793S77.215,39.4,75.22,35.608Z"/><path class="cls-6" d="M73.823,35.907s-2.593-.9-3.89-5.287-.3-6.483-1.4-8.877l-2.2-4.788s-.6-1.3,1.3-.6a20.39,20.39,0,0,1,7.78,6.584c1.6,2.693,3.392,5.286,2.594,8.179S75.519,38.3,75.519,38.3Z"/><path class="cls-6" d="M70.432,45.483s-5.087-1.6-7.88-1.3-6.384,1.9-5.187,2.494,2.394,2.294,3.292,2.294,2.892,1.3,5.984-.1,3.99-1.9,4.988-2.394a1.671,1.671,0,0,0,1-1.4Z"/><path class="cls-6" d="M71.429,45.981s-2.892-1.6-4.089,2.594-.7,7.481-1.5,9.476-4.887,5.486-6.683,6.184,1,1.5,3.292.8,3.591-1.8,6.583-4.788,3.092-1.3,4.09-6.783a28.777,28.777,0,0,0,.5-8.678Z"/><path class="cls-6" d="M75.319,42.789s4.19,4.19,3.99,6.584a19.506,19.506,0,0,1-2.793,7.481c-1,1.4-1,4.389-2.892,4.189s-3.192-5.586-3.192-5.586a7.469,7.469,0,0,1,.1-6.982A16.775,16.775,0,0,1,75.319,42.789Z"/><path class="cls-6" d="M75.619,40.4s-2.793-5.585-.3-10.373a18.558,18.558,0,0,0,2.195-10.174c0-2.2-.8-8.479,1.5-5.985S82.7,18.152,82.7,23.039s-1.1,8.778-2.394,10.274A34.221,34.221,0,0,0,77.115,38.9Z"/><path class="cls-7" d="M96.964,54.46s-.4-6.783-1.6-8.479A10.073,10.073,0,0,0,90.78,42.59a23.9,23.9,0,0,0-5.187-1s.3.5-1.1,1.7a67.416,67.416,0,0,1-5.985,3.89,4.662,4.662,0,0,0,3.392,1.4c2.194,0,5.885-1.4,6.782-1.6s1,.4,1.7.9,0,1,1,2,1.1-.1,1.1,1.4.2,2.893.8,3.192l.6.3S96.765,55.258,96.964,54.46Z"/><path class="cls-8" d="M95.069,149.886S98.261,52.565,98.76,48.674s4.887-21.744,5.586-22.243,1.3,5.985.7,8.379-7.681,115.276-7.681,115.276Z"/><path class="cls-8" d="M88.9,150.029s-1.612-79.41-1.014-83.6,1.5-11.271,1.6-11.869,1.5-2.993,1.5-.9-.2,15.959-.2,19.949.1,76.475.1,76.475Z"/><path class="cls-8" d="M88.252,150.012s-3.99-86.611-3.99-88.726-.4-7.267-1.2-6.439S81.17,59.17,81.17,62.205s3.69,87.623,3.69,87.623Z"/><path class="cls-6" d="M76.792,44.678s-5.428-3.445-2.714-6.264,8.142-4.8,9.917-5.95,5.532-2.192,3.027.313-4.906,4.7-5.846,6.577S76.792,44.678,76.792,44.678Z"/></svg>