<svg id="word" xmlns="http://www.w3.org/2000/svg" xmlns:xlink="http://www.w3.org/1999/xlink" viewBox="0 0 160 160"><defs><style>.cls-1{fill:none;}.cls-2{clip-path:url(#clip-path);}.cls-3{fill:#fdf5a7;}.cls-4{fill:#cfd0d1;}.cls-4,.cls-5{stroke:#9d4b9c;stroke-miterlimit:10;stroke-width:1.237px;}.cls-5{fill:#4b4b4d;}</style><clipPath id="clip-path"><rect class="cls-1" x="-196" y="14" width="132" height="132"/></clipPath></defs><g class="cls-2"><path class="cls-3" d="M-137.566,26.8s-13.813,13.374-11.182,33.765,35.519,14.471,29.6,26.969-18.418,34.2-28.942,33.546-44.6,2.088-39.731,8.279,20,2.9,18.682,8.823-7.235,9.866,15.787,8.551,61.172.657,79.589.657,117.741-.657,107.874-18.417S2.066,105.8,2.066,93.306s-42.477-.692-26.5-17.612c17.174-18.185,1.218-77.849-3.606-91-4.253-11.6-64.315,25.933-82.342,7.906C-116.956-13.982-137.566,26.8-137.566,26.8Z"/></g><path class="cls-4" d="M102.135,48.618l14.228,15.591s-23.71,24.758-46.752,37.713a153.767,153.767,0,0,1-44.181,16.6L97.185,43.628Z"/><path class="cls-5" d="M124.329,14.845,93.749,48.274s6.2,4.374,7.435,5,4.352-.6,4.352-.6L133.289,27Z"/></svg>