<svg id="word" xmlns="http://www.w3.org/2000/svg" xmlns:xlink="http://www.w3.org/1999/xlink" viewBox="0 0 160 160"><defs><style>.cls-1{fill:none;}.cls-2{clip-path:url(#clip-path);}.cls-3{fill:#aad1e1;}.cls-4{fill:#80b158;}.cls-11,.cls-4,.cls-5,.cls-6,.cls-7{stroke:#9c4c9c;stroke-miterlimit:10;stroke-width:0.194px;}.cls-10,.cls-5{fill:#75a04f;}.cls-6{fill:#b59b67;}.cls-7,.cls-9{fill:#949d61;}.cls-8{opacity:0.42;}.cls-11{fill:#a1bc56;}.cls-12{fill:#fdf5a7;}</style><clipPath id="clip-path"><rect class="cls-1" x="14" y="14" width="132" height="132"/></clipPath></defs><g class="cls-2"><path class="cls-3" d="M9.49-7.225S157.439-13.359,169.77,0s-7.023,67.107-7.165,133.32c-.033,15.047-153.147,6.009-153.115-9.038Z"/><path class="cls-4" d="M99.917,117.849c3.014-2.631,14.341-21.058,24.353-32.2a52.849,52.849,0,0,0-7.483,7.187c-3.856,4.477-20,26.324-20,26.324S92.739,105.4,99.437,94.947c4.218-6.581,10.32-20.486,10.32-20.486-10.441,13.257-15.683,27.777-17.5,45.227,0,0-4.869,2.109-5.834-5s-2.893-29.75.481-37.91,5.353-22.838,5.353-22.838C83.845,74.6,81.8,98.066,83.171,120.484l-2.652-.395c-2.593-18.645-3.505-39.98-15.581-54.487,0,0,6.112,11.394,8.833,20.133,3.978,12.768,4.216,30.272,2.288,32.377a17.812,17.812,0,0,1-4.577,3.423s18.8.133,23.374.262c9.4.267,16.148,0,16.148,0S96.9,120.479,99.917,117.849Z"/><path class="cls-5" d="M59.434,113.244c-.973-4.952-2.839-46.029,13.188-63.015,0,0-5.48,2.86-10.541,14.707s-4.338,51.069-4.338,51.069.958-49.621-2.65-57.914C49.312,44.8,43.169,43.7,43.169,43.7,60.6,58.977,53.53,66.781,53.841,118.772c0,0-2.846-19.351-1.881-26.46s-.842-13.554-4.938-20a30.6,30.6,0,0,0-8.975-9.024C54.268,79.1,52.445,121.4,46.781,121.8c0,0,3.616-.392,9.157-.527a76.139,76.139,0,0,1,9.036.525A14.588,14.588,0,0,1,59.434,113.244Z"/><path class="cls-4" d="M41.752,117.707c0-22.13-4.076-50.625,11.953-67.611,0,0-5.482,2.86-10.543,14.707s-4.337,51.071-4.337,51.071,1.206-49.755-2.65-57.916S24.25,43.57,24.25,43.57C41.68,58.844,34.576,97.9,34.922,118.638c0,0-2.845-19.35-1.881-26.458s-2.651-21.586-7.951-25.8-5.961-3.23-5.961-3.23C35.35,78.972,32.562,99.29,30.515,121.4c0,0,1.927.133,7.71.395a71.721,71.721,0,0,0,7.829-.132Z"/><path class="cls-5" d="M20.29,115.5c.8-3.489,2.325-32.454-10.8-44.43,0,0,4.488,2.017,8.631,10.37s3.552,36.008,3.552,36.008-.785-34.987,2.169-40.832C28.576,67.245,33.6,66.473,33.6,66.473c-14.271,10.768-8.483,16.27-8.738,52.928,0,0,2.331-13.643,1.541-18.656s.688-9.557,4.042-14.1A23.891,23.891,0,0,1,37.8,80.28c-13.284,11.152-11.789,40.978-7.152,41.255,0,0-.176,1.147-4.713,1.054-3.212-.065-10.182-1.056-10.182-1.056A10.489,10.489,0,0,0,20.29,115.5Z"/><path class="cls-6" d="M85.066,55.446a21.762,21.762,0,0,1,1.747-2.965c.563-.609,1.22-.636,1.9-1.736s.711-1.132.905-1.156,1.4.053,1.814-.032a16.6,16.6,0,0,0,1.853-.42c.277-.126.961-.6.6-.584a15.046,15.046,0,0,0-1.75.436,2.411,2.411,0,0,1-1.345.3c-.895-.032-1.09-.007-.663-.24a4.5,4.5,0,0,0,1.136-.743,7.081,7.081,0,0,0,.431-.592,1.4,1.4,0,0,0,.66-.026,7.47,7.47,0,0,0,1.451-.636s-.832.167-.723-.173.4-1.18.4-1.18a9.18,9.18,0,0,1-1.218,1.465c-.221.06-.731.186-.731.186l-.988.841,1.068-1.564L89.78,48.557l-.82,1.058L87.6,50.775a20.419,20.419,0,0,0,1.555-2.225,13.03,13.03,0,0,0,.589-1.681c.164-.406.919-1.664.919-1.664l.691-1.248s1.072-.528,1.321-.62a5.952,5.952,0,0,0,1.214-.485c.2-.175.877-.709.877-.709a7.358,7.358,0,0,0-.952.244c-.121.075-1.038.55-1.038.55s1.717-1.857,1.532-1.981-.7.568-.7.568l-1.071.941.1-1.646a.97.97,0,0,0-.432,1.006,1.378,1.378,0,0,1-.015.923l-.861.618s-.3-.05-.138-.457a8.432,8.432,0,0,0,.55-1.5c.154-.672.522-1.878.522-1.878l.163-1.032-.943,1.134a2.645,2.645,0,0,1,.126-1.471,14.138,14.138,0,0,0,.668-1.781l-.811.7s-.2-1.844-.185-2.144-.625-.987-.625-.987L89.861,32.6l.609,1.7-.652-.745-.53-.406s.376,1.288.469,1.453.387,1.137.387,1.137l-.847-.72-.495-.588a6.022,6.022,0,0,0,1.1,1.874,1.235,1.235,0,0,1,.484.946s-.575-.281-.8-.428l-.891-.6a4.291,4.291,0,0,0,.5,1,3.22,3.22,0,0,1,.445.714l.432,1.013.058.764.126,1.378s-.745-.912-.7-1.245a9.753,9.753,0,0,0-.237-1.66s-.21.74-.237.981a1.258,1.258,0,0,0,.162.988c.277.5.579.9.533,1.238a5.075,5.075,0,0,1-.4,1.031,5.858,5.858,0,0,1-.544-1.711,10.783,10.783,0,0,0-.105-1.263,3.106,3.106,0,0,0-.088-.731,1.678,1.678,0,0,0-.238.567c-.03.24.06.764.039,1.061a9.459,9.459,0,0,0,.069,1.033s-.968-1.061-.883-1.162a8.856,8.856,0,0,0,.31-1.138s-.813.491-.644,1.123.448,1.129.459,1.395a4.171,4.171,0,0,0,.429,1.012s-.907-.088-1.021-.371a14.328,14.328,0,0,0-.812-1.319s.1,1.2.359,1.379a4.809,4.809,0,0,1,.726,1.21A14.083,14.083,0,0,1,86.161,42.2l-.419-.54s.971,1.478.881,1.727-.12.49.289.97a2.879,2.879,0,0,1,.8,1.469,3.215,3.215,0,0,1-.465,1.4c-.121.074-.332-.763-.212-1.046a.607.607,0,0,0-.082-.55s-.244,1.34-.236,1.606a8.851,8.851,0,0,1-.282,1.313s-.233-.622-.375-1.079l-.14-.457a9.559,9.559,0,0,0,.053,1.953c.139.249-.053.9-.053.9a17.157,17.157,0,0,0-.678,1.931c-.108.547.339,1.469.176,1.877-.1.251.1-1.08-.8,1.589Z"/><path class="cls-7" d="M84.312,79.6a6.181,6.181,0,0,0,.243-2.5,8.864,8.864,0,0,1-.568-2.442c0-.545-.521-1.011-.714-1.854a5.411,5.411,0,0,1-.147-1.6,10.552,10.552,0,0,1-.2-1.957c.112-.571-.428-2.913-1.615-3.316a1.5,1.5,0,0,0-1.764.448s1.2-.657,1.679-.324a3.269,3.269,0,0,1,1.293,1.631,7.362,7.362,0,0,1,.118,2.026,8.492,8.492,0,0,1-.123,1.675,7.574,7.574,0,0,0-.022,2.757,7.938,7.938,0,0,0,.432,2.183,26.492,26.492,0,0,1,1.343,3.63"/><path class="cls-7" d="M84.271,72.461a1.419,1.419,0,0,0,.915-.835c.382-.752,1.283-2.856,1.394-3.2s.69-1.443.889-1.847a8.009,8.009,0,0,1,1.5-1.787c.488-.394.75-.5,1.007-.749a8.81,8.81,0,0,1,1.282-.817,12.47,12.47,0,0,1,1.2-.656c.312-.117.86-.31.86-.31s.168,0,.387-.26a2.186,2.186,0,0,1,.75-.444s-.612.265-.935.453-1.4.655-1.716.771a22.956,22.956,0,0,0-2.274,1.273c-.554.363-1.36,1.284-1.876,1.6s-.76.988-1.28,1.394a5.9,5.9,0,0,0-1.257,2.3c-.188.62-.435,1.326-.489,1.616A8.245,8.245,0,0,0,84.271,72.461Z"/><path class="cls-7" d="M86.224,91.816a6.248,6.248,0,0,1,.523-2.467,9.41,9.41,0,0,0,1.281-2.213c.165-.525.808-.846,1.248-1.611a5.705,5.705,0,0,0,.623-1.508,10.721,10.721,0,0,0,.78-1.837c.064-.575,1.293-2.7,2.555-2.8a1.415,1.415,0,0,1,1.566.86s-.961-.926-1.522-.721a3.583,3.583,0,0,0-1.736,1.257,7.508,7.508,0,0,0-.723,1.921,8.534,8.534,0,0,0-.387,1.643,7.786,7.786,0,0,1-.81,2.66,8.452,8.452,0,0,1-1.073,2,28.233,28.233,0,0,0-2.389,3.17"/><path class="cls-6" d="M89.912,120.772h-.58c0-8.656-1.395-16.4-2.872-24.6-.468-2.6-.941-5.219-1.375-7.912-1.224-7.579-.955-15.649-.694-23.454.107-3.2.218-6.517.218-9.7h.579c0,3.189-.111,6.507-.218,9.715-.26,7.777-.529,15.819.687,23.343.434,2.689.907,5.311,1.373,7.9,1.482,8.227,2.882,16,2.882,24.7Z"/><path class="cls-5" d="M82.813,34.7a1.482,1.482,0,0,0-.5-1,21.689,21.689,0,0,1-1.676-2.168"/><path class="cls-6" d="M79.843,30.987s-.578-.583-.661-.64a.612.612,0,0,0-.29-.139,2.017,2.017,0,0,0-.372.085l-.558-.111.5-.335a3.379,3.379,0,0,1-.724-.668c-.1-.223,0-.389-.269-.389s-.372-.25-.682-.25-.58-.362-.58-.362a1.081,1.081,0,0,1,.641.055,2.451,2.451,0,0,0,.662.168.423.423,0,0,0-.165-.529,1.568,1.568,0,0,1-.5-.445s.91.223,1.056.5a6.059,6.059,0,0,0,.579.778s.063-.138-.145-.556-.5-.472-.559-.752a2.227,2.227,0,0,0-.475-.806c-.082-.056-.165-.278-.353-.278s-.309-.167-.7-.36-.331-.334-.725-.251a.49.49,0,0,1-.538-.334s.58-.168.745-.029a4.844,4.844,0,0,1,1.428.723c.558.529.952.724,1.1,1s.621.5.723.946.331.306.414.527.393,1.167.518,1.391.288-.168.288-.168.353,1.308.393,1.419a9.234,9.234,0,0,0,.58.751l1.116,1.5c.124.167.517,1,.517,1s-2.007-2.67-2.294-2.976A2.375,2.375,0,0,0,79.843,30.987Z"/><path class="cls-6" d="M82.45,33.129s-1.119-2.225-1.2-2.558-.457-1.03-.518-1.252-.786-.752-.992-1.306a2.478,2.478,0,0,0-.684-.891c-.062-.113-.847-.809-.993-.948s-.971-.611-1.032-.693-.394-.391-.207-.391a3.292,3.292,0,0,1,.661.166s-.5-.528-.642-.555a7.179,7.179,0,0,1-.93-.612s.558-.277.869.028.144-.222.268-.084a14.628,14.628,0,0,1,.932,1.307c.392.614-.765-2.474-.477-2.225s.413.028.477.279.5,1.92.5,1.92a4.115,4.115,0,0,1,.683.556c.144.193.6,1,.681,1.112s.415.946.538,1.224A8.721,8.721,0,0,1,81,29.486a15.269,15.269,0,0,0,.764,1.724C81.893,31.488,82.45,33.129,82.45,33.129Z"/><path class="cls-6" d="M83.09,34.354s.043-2.7.065-2.921.268-1,.35-1.419a4.84,4.84,0,0,0,0-1.113c0-.111-.123.308-.123.308a2.645,2.645,0,0,1,.083-1.085,2.792,2.792,0,0,0,.019-1.169v.416a7.7,7.7,0,0,0-.083-2.115c-.206-.36-.206.252-.206.252s-.249-1.78-.31-1.919-.124.3-.124.3-.271-.916-.414-1.278-.539-1.309-.539-1.309.02-1.056.02-1.194a1.313,1.313,0,0,0-.206-.445l-.1.945a3.051,3.051,0,0,0-.435-1.252c-.328-.417-.535-.583-.535-.8a4.665,4.665,0,0,0-.25-1.17,4.935,4.935,0,0,0-.557-1.168,3.182,3.182,0,0,1-.868-1.308,3.816,3.816,0,0,0-.579-1.335c-.146-.138.081.335.081.335a5.524,5.524,0,0,0-.683-1.419c-.267-.223-.806-.723-.806-.723s.041.277-.1.194a4.937,4.937,0,0,1-.7-.833,5.167,5.167,0,0,0-.643-.642l-.1.112s-.58-.694-.85-.694-.993-.168-.64.082.021.639.391.668.891.584.891.584-.622.112-.455.278.827.974.827.974l.62.389s.23.751-.061.528a3.51,3.51,0,0,0-.682-.528,2.574,2.574,0,0,0-.539-.111,1.5,1.5,0,0,1,.435.389c.145.223-.27.14-.1.362s.207.582.372.723.226.78.226.78.6.472.808.584a3.351,3.351,0,0,1,.538.3c.082.083.5.445.5.445a3.3,3.3,0,0,0-.848-.389c-.206,0-.31.139-.145.139s.434.306.434.306.023.027.185.167a1.092,1.092,0,0,1,.313.333c.1.167.328.557.328.557s-.908-.752-1.011-.835A.985.985,0,0,0,76.2,16.3c-.351,0-.847.165-.538.305a6.325,6.325,0,0,1,.685.362c.08.056.433.363.682.528s.5.306.5.306-.392.361-.622.278a1.031,1.031,0,0,0-.6.083s-.474.029-.393.252-.456.807-.456.807-.122.5.207.361,1.1-.585,1.262-.5a.991.991,0,0,1,.309.362l-.68.111s-.165.057.039.2-.1.083.126.333a7.877,7.877,0,0,1,.662,1.2,6.631,6.631,0,0,0-.807-.332c-.226-.057-.682-.2-.434-.03s.579.584.662.584-.166.2.143.307.416.807.559.835a2.91,2.91,0,0,1,.765.667c.229.252.249,1.14.394,1.53a8.831,8.831,0,0,0,1.054,1.392c.31.417.188.277.435.417a3.568,3.568,0,0,1,.682.834s.7,1.029.849,1.168a5.3,5.3,0,0,1,.453,1.363,1.278,1.278,0,0,0,.479.64c.1.112.248.112.225.444s.145.251.145.5-.02,1.476,0,1.67S83.09,34.354,83.09,34.354Z"/><path class="cls-5" d="M83.506,64.248s-.591-2.382-.279-3.222a12.53,12.53,0,0,0,.656-3.146c0-.7.6-1.3.824-2.389a7.811,7.811,0,0,0,.171-2.062,15.067,15.067,0,0,0,.227-2.523c-.129-.736.5-3.751,1.867-4.27a1.643,1.643,0,0,1,2.039.577s-1.389-.847-1.94-.419a4.188,4.188,0,0,0-1.5,2.1,10.457,10.457,0,0,0-.135,2.609,12.258,12.258,0,0,0,.14,2.159,10.819,10.819,0,0,1,.027,3.552,11.322,11.322,0,0,1-.5,2.812,36.516,36.516,0,0,0-1.554,4.677"/><path class="cls-5" d="M83.554,55.056s-.616-.111-1.056-1.077-1.482-3.677-1.61-4.117-.8-1.86-1.028-2.38a10.179,10.179,0,0,0-1.734-2.3c-.563-.507-.865-.637-1.164-.962a9.829,9.829,0,0,0-1.481-1.055,14.43,14.43,0,0,0-1.381-.844c-.36-.152-.994-.4-.994-.4s-.195,0-.447-.335a2.461,2.461,0,0,0-.867-.572s.709.34,1.081.584a21.852,21.852,0,0,0,1.983.994,25.381,25.381,0,0,1,2.626,1.638c.641.469,1.572,1.655,2.17,2.065s.876,1.276,1.477,1.8a7.894,7.894,0,0,1,1.452,2.967c.217.8.5,1.71.566,2.082A11.6,11.6,0,0,1,83.554,55.056Z"/><path class="cls-5" d="M81.3,79.991s-.076-2.453-.6-3.179a12.591,12.591,0,0,1-1.482-2.85c-.19-.678-.933-1.092-1.442-2.078a7.85,7.85,0,0,1-.721-1.939,15.157,15.157,0,0,1-.9-2.368c-.075-.741-1.494-3.476-2.952-3.6a1.648,1.648,0,0,0-1.81,1.107s1.112-1.192,1.759-.928a4.18,4.18,0,0,1,2.006,1.62,10.5,10.5,0,0,1,.835,2.473,12.211,12.211,0,0,1,.448,2.117,10.861,10.861,0,0,0,.935,3.428,11.4,11.4,0,0,0,1.238,2.573,35.593,35.593,0,0,1,2.762,4.083"/><path class="cls-6" d="M77.66,117.3h-.579c0-11.209,1.617-21.215,3.33-31.808.534-3.3,1.085-6.717,1.587-10.181,1.4-9.7,1.094-20.064.793-30.086-.124-4.135-.252-8.411-.252-12.521h.579c0,4.1.128,8.373.253,12.5.3,10.047.613,20.436-.8,30.188-.5,3.468-1.055,6.885-1.589,10.189-1.708,10.57-3.322,20.554-3.322,31.716Z"/><path class="cls-5" d="M71.188,44.422a1.535,1.535,0,0,0-.682-.873,25.846,25.846,0,0,1-2.095-1.886"/><path class="cls-6" d="M67.5,41.193s-.7-.507-.791-.556a.786.786,0,0,0-.322-.12,2.164,2.164,0,0,0-.371.077l-.6-.094.459-.3a4.375,4.375,0,0,1-.861-.579c-.144-.2-.065-.342-.342-.339s-.427-.217-.747-.215a1.2,1.2,0,0,1-.662-.313,1.366,1.366,0,0,1,.674.044,3.253,3.253,0,0,0,.711.143.386.386,0,0,0-.257-.46A2,2,0,0,1,63.8,38.1s.977.189,1.175.431a7.038,7.038,0,0,0,.73.679s.041-.122-.244-.486-.591-.41-.7-.654a2.536,2.536,0,0,0-.625-.7c-.1-.047-.218-.241-.412-.24s-.348-.143-.787-.312-.4-.29-.792-.214a.622.622,0,0,1-.612-.289s.573-.15.767-.03a6.5,6.5,0,0,1,1.6.625,9.389,9.389,0,0,1,1.3.87c.2.241.725.433.906.822s.393.266.516.46.6,1.018.766,1.213.271-.15.271-.15.583,1.143.644,1.24.54.485.724.654,1.249,1.161,1.4,1.307.7.873.7.873-2.522-2.324-2.871-2.589A3.137,3.137,0,0,0,67.5,41.193Z"/><path class="cls-6" d="M70.55,43.049s-1.528-1.94-1.666-2.229-.643-.9-.744-1.093-.938-.653-1.244-1.136a3.01,3.01,0,0,0-.855-.776c-.084-.1-1.01-.7-1.185-.822s-1.1-.528-1.184-.6-.472-.338-.279-.34a4.509,4.509,0,0,1,.712.142,4.179,4.179,0,0,0-.756-.482,9.471,9.471,0,0,1-1.064-.529,1.011,1.011,0,0,1,.9.018c.371.266.11-.2.263-.075s.671.605,1.18,1.137-1.2-2.159-.863-1.942.431.02.54.24.834,1.676.834,1.676a5.47,5.47,0,0,1,.8.482c.181.169.787.873.89.969s.586.826.76,1.068a9.044,9.044,0,0,1,.855,1.116,16,16,0,0,0,1.079,1.5C69.7,41.618,70.55,43.049,70.55,43.049Z"/><path class="cls-6" d="M71.417,44.117s-.405-2.361-.421-2.556.112-.879.126-1.243a3.729,3.729,0,0,0-.185-.975c-.018-.1-.075.27-.075.27a2.007,2.007,0,0,1-.095-.95,2.182,2.182,0,0,0-.174-1.023l.068.365a6.1,6.1,0,0,0-.438-1.849c-.273-.315-.171.221-.171.221s-.552-1.556-.639-1.677-.079.267-.079.267-.432-.8-.641-1.115-.775-1.141-.775-1.141-.154-.925-.176-1.047a1.414,1.414,0,0,0-.288-.387l.049.828a2.94,2.94,0,0,0-.659-1.093c-.409-.363-.652-.508-.689-.7a4.191,4.191,0,0,0-.451-1.022,5.34,5.34,0,0,0-.771-1.019,3.683,3.683,0,0,1-1.116-1.136A3.931,3.931,0,0,0,63,25.967c-.174-.119.14.293.14.293a5.854,5.854,0,0,0-.942-1.238c-.314-.192-.954-.626-.954-.626s.087.242-.075.169a5.958,5.958,0,0,1-.865-.724,6.328,6.328,0,0,0-.772-.557l-.086.1s-.717-.6-1-.6-1.054-.142-.647.076.127.559.515.581a2.667,2.667,0,0,1,1.018.505s-.624.1-.424.247,1.018.847,1.018.847l.706.337s.362.655.025.462a4.444,4.444,0,0,0-.794-.457,3.3,3.3,0,0,0-.575-.094,1.945,1.945,0,0,1,.514.337c.187.2-.256.124-.046.317s.311.509.5.631.365.68.365.68.7.41.932.506a4.288,4.288,0,0,1,.606.264c.1.072.589.385.589.385a4.452,4.452,0,0,0-.943-.335c-.212,0-.3.125-.125.123s.5.264.5.264a2.291,2.291,0,0,0,.217.145,1.347,1.347,0,0,1,.379.291c.135.146.434.484.434.484l-1.187-.723a1.316,1.316,0,0,0-.74-.287c-.364,0-.849.15-.505.27a7.854,7.854,0,0,1,.767.313c.093.048.509.313.794.457s.564.265.564.265-.345.317-.6.246A1.162,1.162,0,0,0,61.7,30s-.485.027-.364.222-.337.708-.337.708-.043.439.275.316,1.036-.519,1.22-.447a1.2,1.2,0,0,1,.381.315l-.685.1s-.162.05.074.17-.093.074.183.292a8.441,8.441,0,0,1,.885,1.042,9.217,9.217,0,0,0-.891-.286c-.243-.048-.737-.166-.453-.023s.7.507.783.507-.14.172.2.267.563.7.717.727a3.851,3.851,0,0,1,.9.579c.276.218.446,1,.661,1.335a10.57,10.57,0,0,0,1.322,1.212c.391.363.24.241.52.363a4.325,4.325,0,0,1,.844.724s.9.9,1.071,1.016a5.092,5.092,0,0,1,.7,1.191,1.534,1.534,0,0,0,.6.556c.125.1.275.095.308.387s.192.219.233.437.224,1.29.278,1.462S71.417,44.117,71.417,44.117Z"/><path class="cls-5" d="M76.824,70.27S75.815,68.19,76,67.452a8.755,8.755,0,0,0,.156-2.756c-.118-.615.405-1.144.455-2.1a5.823,5.823,0,0,0-.168-1.8,11.075,11.075,0,0,0-.184-2.209c-.256-.643-.111-3.286,1.221-3.747a2.119,2.119,0,0,1,2.2.491S78.1,54.6,77.6,54.976a2.915,2.915,0,0,0-1.195,1.848,8.012,8.012,0,0,0,.294,2.285A9.768,9.768,0,0,0,77.209,61a8.536,8.536,0,0,1,.616,3.107c-.022,1.22.222,1.634-.046,2.465a24.5,24.5,0,0,0-.827,4.1"/><path class="cls-5" d="M75.343,62.226a2.142,2.142,0,0,1-1.272-.936c-.619-.842-2.146-3.206-2.351-3.59s-1.137-1.623-1.46-2.076a12.066,12.066,0,0,0-2.177-2c-.665-.44-1-.552-1.363-.836a13.323,13.323,0,0,0-1.709-.913c-.285-.133-1.168-.6-1.569-.729s-1.094-.342-1.094-.342a.921.921,0,0,1-.518-.291,3.29,3.29,0,0,0-.993-.495s.79.293,1.216.5,1.818.726,2.216.856,2.25,1.011,2.991,1.418,1.9,1.437,2.586,1.792,1.12,1.111,1.829,1.562a8.434,8.434,0,0,1,2,2.589c.357.7.8,1.491.931,1.817A10.381,10.381,0,0,1,75.343,62.226Z"/><path class="cls-5" d="M77.16,84.058a7.829,7.829,0,0,0-1.153-2.778A13.623,13.623,0,0,1,74,78.8c-.309-.592-1.146-.95-1.837-1.81A7.777,7.777,0,0,1,71.094,75.3a15.294,15.294,0,0,1-1.325-2.066c-.2-.649-2.125-3.031-3.654-3.137s-1.687.982-1.687.982.951-1.05,1.664-.823a5.433,5.433,0,0,1,2.344,1.4,10.193,10.193,0,0,1,1.277,2.16,11.052,11.052,0,0,1,.815,1.849,10.122,10.122,0,0,0,1.538,2.991,12.052,12.052,0,0,0,1.71,2.243,41.879,41.879,0,0,1,3.536,3.555"/><path class="cls-6" d="M79.022,116.775c-1.867-9.813-1.86-18.582-1.852-27.865,0-2.892,0-5.883-.053-8.915-.161-8.489-2.206-17.548-4.184-26.309-.817-3.62-1.662-7.363-2.346-10.961l.568-.108c.684,3.589,1.527,7.326,2.344,10.941,1.983,8.789,4.035,17.878,4.2,26.425.058,3.04.056,6.032.054,8.928-.008,9.255-.015,18,1.84,27.756l-.568.108Z"/><g class="cls-8"><path class="cls-9" d="M75.241,59.065A21.931,21.931,0,0,1,76.988,56.1c.563-.608,1.22-.636,1.9-1.734s.712-1.134.905-1.158,1.4.053,1.815-.031a16.986,16.986,0,0,0,1.852-.42c.278-.126.961-.6.6-.585a14.878,14.878,0,0,0-1.75.438,2.417,2.417,0,0,1-1.344.3c-.9-.031-1.09-.006-.664-.24a4.45,4.45,0,0,0,1.135-.743,6.978,6.978,0,0,0,.433-.591,1.4,1.4,0,0,0,.658-.027,7.424,7.424,0,0,0,1.452-.636s-.832.168-.723-.172.4-1.181.4-1.181a9.088,9.088,0,0,1-1.219,1.466c-.22.06-.731.186-.731.186l-.987.842L81.8,50.243l-1.84,1.933-.82,1.059L77.77,54.4a20.7,20.7,0,0,0,1.556-2.224,13.3,13.3,0,0,0,.589-1.682c.165-.407.919-1.664.919-1.664l.69-1.248s1.074-.528,1.323-.62a6.027,6.027,0,0,0,1.213-.486c.2-.175.878-.709.878-.709a7.587,7.587,0,0,0-.954.244c-.12.075-1.036.55-1.036.55s1.716-1.855,1.531-1.98-.7.568-.7.568l-1.073.942.1-1.648a.974.974,0,0,0-.434,1.007,1.371,1.371,0,0,1-.014.924l-.86.617s-.305-.049-.138-.457a8.362,8.362,0,0,0,.549-1.5c.155-.672.521-1.879.521-1.879l.163-1.031-.941,1.134a2.65,2.65,0,0,1,.124-1.472A13.976,13.976,0,0,0,82.441,40l-.811.7s-.2-1.845-.185-2.144-.624-.987-.624-.987l-.784-1.353.608,1.7-.651-.745-.53-.407s.376,1.288.468,1.453.387,1.138.387,1.138l-.847-.721-.5-.588a6.039,6.039,0,0,0,1.1,1.875,1.235,1.235,0,0,1,.483.946s-.574-.281-.8-.428-.892-.6-.892-.6a4.3,4.3,0,0,0,.5,1,3.219,3.219,0,0,1,.446.714l.432,1.013.057.764.126,1.379s-.744-.913-.7-1.245a9.942,9.942,0,0,0-.238-1.66s-.21.739-.237.98a1.267,1.267,0,0,0,.161.989c.279.5.58.9.535,1.237a5.1,5.1,0,0,1-.395,1.032,5.844,5.844,0,0,1-.545-1.711,10.176,10.176,0,0,0-.106-1.264,3.054,3.054,0,0,0-.087-.73,1.679,1.679,0,0,0-.238.566c-.029.241.059.765.04,1.063a9.509,9.509,0,0,0,.068,1.032s-.968-1.061-.883-1.163a8.812,8.812,0,0,0,.31-1.138s-.813.492-.644,1.123.448,1.129.459,1.395a4.191,4.191,0,0,0,.43,1.014s-.908-.089-1.021-.372a14.7,14.7,0,0,0-.812-1.319s.1,1.2.357,1.379a4.758,4.758,0,0,1,.727,1.21,13.915,13.915,0,0,1-1.274-1.317l-.419-.539s.971,1.478.88,1.727-.121.489.29.971a2.884,2.884,0,0,1,.8,1.468,3.218,3.218,0,0,1-.466,1.4c-.121.073-.332-.763-.212-1.046a.6.6,0,0,0-.082-.549s-.245,1.338-.236,1.6a8.781,8.781,0,0,1-.281,1.315s-.233-.623-.375-1.08l-.141-.457a9.569,9.569,0,0,0,.054,1.953c.139.249-.054.9-.054.9a17.005,17.005,0,0,0-.677,1.929c-.11.548.338,1.469.175,1.877-.1.252.1-1.079-.795,1.591Z"/><path class="cls-9" d="M74.488,83.217a6.2,6.2,0,0,0,.242-2.5,8.874,8.874,0,0,1-.568-2.441c0-.546-.521-1.012-.713-1.856a5.381,5.381,0,0,1-.148-1.6,10.488,10.488,0,0,1-.2-1.958c.112-.571-.43-2.912-1.616-3.314a1.5,1.5,0,0,0-1.764.448s1.2-.658,1.679-.326A3.288,3.288,0,0,1,72.7,71.3a7.312,7.312,0,0,1,.117,2.025A8.406,8.406,0,0,1,72.691,75a7.562,7.562,0,0,0-.021,2.758,7.844,7.844,0,0,0,.432,2.183,26.444,26.444,0,0,1,1.343,3.63"/><path class="cls-9" d="M74.447,76.081a1.417,1.417,0,0,0,.914-.836c.382-.75,1.283-2.855,1.394-3.2s.69-1.443.89-1.847a7.929,7.929,0,0,1,1.5-1.787c.486-.393.749-.494,1.007-.748a8.685,8.685,0,0,1,1.282-.818,12.675,12.675,0,0,1,1.2-.655c.313-.118.86-.31.86-.31s.168,0,.388-.26a2.159,2.159,0,0,1,.749-.444s-.612.265-.935.453-1.4.654-1.716.772A22.683,22.683,0,0,0,79.7,67.676c-.555.365-1.36,1.286-1.878,1.6s-.759.99-1.279,1.394a5.925,5.925,0,0,0-1.256,2.3c-.188.62-.436,1.326-.49,1.616A8.067,8.067,0,0,0,74.447,76.081Z"/><path class="cls-9" d="M76.4,95.436a6.266,6.266,0,0,1,.523-2.467A9.506,9.506,0,0,0,78.2,90.756c.165-.526.807-.847,1.248-1.612a5.76,5.76,0,0,0,.623-1.506,10.6,10.6,0,0,0,.778-1.838c.066-.575,1.3-2.7,2.556-2.8a1.416,1.416,0,0,1,1.565.86s-.96-.926-1.52-.72A3.574,3.574,0,0,0,81.718,84.4,7.527,7.527,0,0,0,81,86.319a8.455,8.455,0,0,0-.388,1.642,7.783,7.783,0,0,1-.809,2.66,8.461,8.461,0,0,1-1.073,2,27.578,27.578,0,0,0-2.389,3.17"/><path class="cls-9" d="M80.111,124.392h-.628c0-8.655-1.4-16.4-2.873-24.6-.466-2.592-.94-5.216-1.374-7.907-1.225-7.582-.954-15.653-.694-23.458.108-3.2.218-6.517.218-9.7h.628c0,3.189-.11,6.508-.218,9.717-.26,7.775-.529,15.815.687,23.336.433,2.688.905,5.308,1.371,7.9,1.484,8.228,2.883,16,2.883,24.713Z"/><path class="cls-10" d="M73.191,40.078a1.482,1.482,0,0,0-.5-1,21.893,21.893,0,0,1-1.677-2.168"/><path class="cls-10" d="M70.221,36.364s-.578-.584-.662-.64a.589.589,0,0,0-.29-.141,1.981,1.981,0,0,0-.371.086l-.559-.111.5-.335a3.4,3.4,0,0,1-.724-.667c-.1-.224,0-.389-.269-.389s-.371-.251-.683-.251-.579-.363-.579-.363a1.085,1.085,0,0,1,.642.057,2.528,2.528,0,0,0,.66.168.423.423,0,0,0-.164-.529,1.552,1.552,0,0,1-.5-.447s.908.224,1.054.5a6.012,6.012,0,0,0,.581.778s.061-.138-.146-.557-.5-.473-.558-.751a2.267,2.267,0,0,0-.475-.807c-.084-.055-.166-.277-.353-.277s-.309-.167-.7-.362-.329-.334-.723-.25a.49.49,0,0,1-.539-.334s.581-.167.746-.028a4.79,4.79,0,0,1,1.428.723c.556.528.95.724,1.095,1s.621.5.724.946.332.307.414.528.392,1.167.517,1.391.289-.167.289-.167.352,1.307.394,1.419a9.367,9.367,0,0,0,.579.751l1.116,1.5c.124.166.518,1,.518,1s-2.007-2.67-2.3-2.976A2.329,2.329,0,0,0,70.221,36.364Z"/><path class="cls-10" d="M72.828,38.505s-1.119-2.225-1.2-2.557-.457-1.03-.518-1.254-.787-.751-.993-1.306a2.527,2.527,0,0,0-.683-.89c-.062-.112-.848-.809-1-.947s-.969-.611-1.031-.695-.393-.389-.208-.389a3.323,3.323,0,0,1,.662.165s-.5-.527-.641-.554a7.279,7.279,0,0,1-.93-.613s.556-.278.867.029.144-.223.27-.084a14.59,14.59,0,0,1,.931,1.307c.392.612-.766-2.476-.478-2.226s.415.029.478.279.5,1.921.5,1.921a4.187,4.187,0,0,1,.682.554c.145.2.6,1,.681,1.113s.414.947.539,1.225a8.9,8.9,0,0,1,.62,1.278,14.721,14.721,0,0,0,.765,1.725C72.271,36.864,72.828,38.505,72.828,38.505Z"/><path class="cls-10" d="M73.468,39.729s.043-2.7.064-2.919.269-1,.35-1.419a4.776,4.776,0,0,0,0-1.113c0-.111-.122.306-.122.306a2.645,2.645,0,0,1,.083-1.085,2.775,2.775,0,0,0,.019-1.169v.418a7.711,7.711,0,0,0-.084-2.116c-.2-.36-.2.252-.2.252s-.249-1.779-.31-1.92-.126.306-.126.306-.269-.917-.413-1.279-.539-1.308-.539-1.308.021-1.057.021-1.2A1.323,1.323,0,0,0,72,25.043l-.1.945a3.052,3.052,0,0,0-.436-1.251c-.329-.417-.536-.584-.536-.807a4.683,4.683,0,0,0-.249-1.168,4.956,4.956,0,0,0-.557-1.168,3.22,3.22,0,0,1-.869-1.308,3.734,3.734,0,0,0-.579-1.335c-.146-.138.082.334.082.334a5.543,5.543,0,0,0-.683-1.419c-.267-.223-.806-.723-.806-.723s.04.278-.1.194a5.005,5.005,0,0,1-.7-.834,5.01,5.01,0,0,0-.642-.641l-.1.113s-.58-.7-.848-.7-.995-.167-.641.083.021.64.392.667.89.584.89.584-.622.113-.455.279.826.974.826.974l.621.39s.23.75-.061.527a3.539,3.539,0,0,0-.682-.527,2.544,2.544,0,0,0-.538-.112,1.505,1.505,0,0,1,.434.389c.145.223-.27.139-.1.361s.207.584.371.724.228.78.228.78.6.472.806.584a3.394,3.394,0,0,1,.538.3c.083.085.5.446.5.446a3.318,3.318,0,0,0-.848-.389c-.206,0-.31.14-.145.14s.435.3.435.3a2.3,2.3,0,0,0,.184.167,1.068,1.068,0,0,1,.312.334c.1.167.33.556.33.556l-1.013-.835a.984.984,0,0,0-.662-.333c-.351,0-.846.166-.537.306a6.025,6.025,0,0,1,.684.362c.079.054.432.361.682.527s.5.306.5.306-.392.362-.621.278a1.037,1.037,0,0,0-.6.084s-.475.027-.392.251-.456.807-.456.807-.124.5.207.362,1.1-.585,1.26-.5a.961.961,0,0,1,.31.361l-.68.112s-.165.056.04.194-.1.083.124.333a7.772,7.772,0,0,1,.663,1.2,6.721,6.721,0,0,0-.808-.333c-.225-.056-.682-.2-.433-.029s.578.584.662.584-.165.194.144.3.414.808.557.835a2.942,2.942,0,0,1,.766.669c.229.25.249,1.139.394,1.529A8.856,8.856,0,0,0,70.1,31.607c.311.419.187.279.435.419a3.594,3.594,0,0,1,.682.833s.7,1.029.848,1.167a5.26,5.26,0,0,1,.454,1.365,1.278,1.278,0,0,0,.478.639c.1.112.248.112.227.445s.144.25.144.5-.021,1.476,0,1.67S73.468,39.729,73.468,39.729Z"/><path class="cls-10" d="M73.884,69.625s-.591-2.383-.28-3.224a12.463,12.463,0,0,0,.656-3.144c0-.7.6-1.3.825-2.39a7.845,7.845,0,0,0,.171-2.061,15.09,15.09,0,0,0,.226-2.524c-.129-.735.5-3.752,1.868-4.27a1.643,1.643,0,0,1,2.039.577s-1.39-.847-1.941-.418a4.177,4.177,0,0,0-1.494,2.1,10.506,10.506,0,0,0-.136,2.608,12.068,12.068,0,0,0,.142,2.159,10.848,10.848,0,0,1,.026,3.551,11.276,11.276,0,0,1-.5,2.813,36.039,36.039,0,0,0-1.553,4.678"/><path class="cls-10" d="M73.932,60.432s-.616-.11-1.057-1.078-1.482-3.677-1.61-4.116-.8-1.86-1.027-2.379a10.222,10.222,0,0,0-1.733-2.3c-.564-.507-.867-.636-1.165-.962a9.868,9.868,0,0,0-1.481-1.054,14.035,14.035,0,0,0-1.381-.844c-.361-.152-.994-.4-.994-.4s-.2,0-.448-.335a2.441,2.441,0,0,0-.865-.57s.707.339,1.08.583a21.44,21.44,0,0,0,1.982.993,25.51,25.51,0,0,1,2.628,1.64c.64.468,1.571,1.654,2.169,2.063s.877,1.277,1.478,1.8a7.931,7.931,0,0,1,1.451,2.969c.217.8.5,1.709.566,2.082A11.648,11.648,0,0,1,73.932,60.432Z"/><path class="cls-10" d="M71.676,85.367s-.076-2.453-.6-3.178a12.622,12.622,0,0,1-1.482-2.852c-.19-.676-.933-1.09-1.442-2.076a7.817,7.817,0,0,1-.719-1.94,14.89,14.89,0,0,1-.9-2.367c-.075-.743-1.494-3.476-2.953-3.606a1.645,1.645,0,0,0-1.808,1.107s1.11-1.192,1.758-.928a4.19,4.19,0,0,1,2.006,1.62,10.475,10.475,0,0,1,.835,2.474,12.181,12.181,0,0,1,.448,2.116,10.875,10.875,0,0,0,.935,3.428,11.309,11.309,0,0,0,1.239,2.573,35.944,35.944,0,0,1,2.762,4.083"/><path class="cls-10" d="M68.063,122.671h-.629c0-11.211,1.617-21.217,3.33-31.812.534-3.3,1.086-6.715,1.588-10.18,1.405-9.7,1.094-20.063.794-30.083-.125-4.136-.254-8.412-.254-12.52h.629c0,4.1.127,8.369.252,12.5.3,10.05.613,20.439-.8,30.195-.5,3.469-1.055,6.886-1.588,10.189-1.709,10.569-3.322,20.553-3.322,31.712Z"/><path class="cls-10" d="M61.565,49.8a1.521,1.521,0,0,0-.682-.873,26.269,26.269,0,0,1-2.094-1.888"/><path class="cls-10" d="M57.875,46.57s-.7-.507-.792-.557a.8.8,0,0,0-.322-.12,2.1,2.1,0,0,0-.37.076l-.6-.094.457-.294a4.436,4.436,0,0,1-.86-.58c-.144-.2-.065-.341-.343-.339s-.426-.217-.747-.215a1.185,1.185,0,0,1-.66-.312,1.34,1.34,0,0,1,.673.043,3.253,3.253,0,0,0,.711.143.387.387,0,0,0-.257-.461,1.993,1.993,0,0,1-.589-.388s.978.19,1.175.432a7.256,7.256,0,0,0,.731.679s.04-.122-.245-.487-.592-.41-.7-.653a2.545,2.545,0,0,0-.626-.7c-.1-.048-.217-.24-.413-.239s-.346-.144-.786-.312-.4-.291-.791-.214a.621.621,0,0,1-.612-.29s.571-.149.767-.029a6.5,6.5,0,0,1,1.6.623,9.613,9.613,0,0,1,1.3.87c.2.243.725.434.907.824s.392.265.514.458.6,1.02.768,1.213.27-.148.27-.148.583,1.143.644,1.239.541.484.724.655,1.248,1.161,1.4,1.306.7.873.7.873-2.521-2.324-2.871-2.59A3.136,3.136,0,0,0,57.875,46.57Z"/><path class="cls-10" d="M60.927,48.426S59.4,46.486,59.263,46.2s-.644-.9-.745-1.091-.939-.653-1.244-1.136a3.05,3.05,0,0,0-.855-.777c-.083-.1-1.011-.7-1.185-.821s-1.106-.53-1.184-.6-.473-.338-.278-.339a4.318,4.318,0,0,1,.711.141,4.3,4.3,0,0,0-.755-.482,9.712,9.712,0,0,1-1.066-.528,1.014,1.014,0,0,1,.905.018c.371.264.11-.2.264-.075s.67.6,1.18,1.136-1.2-2.16-.865-1.943.432.022.541.241.834,1.677.834,1.677a5.428,5.428,0,0,1,.8.482c.181.168.786.871.889.969s.586.824.76,1.068a9.133,9.133,0,0,1,.856,1.114,15.722,15.722,0,0,0,1.078,1.5C60.079,46.993,60.927,48.426,60.927,48.426Z"/><path class="cls-10" d="M61.8,49.493s-.405-2.362-.421-2.556.112-.879.127-1.243a3.743,3.743,0,0,0-.186-.974c-.018-.1-.075.269-.075.269a2,2,0,0,1-.1-.949,2.164,2.164,0,0,0-.174-1.023l.069.364a6.109,6.109,0,0,0-.438-1.849c-.272-.314-.171.22-.171.22s-.553-1.555-.64-1.676-.078.266-.078.266-.432-.8-.64-1.114-.776-1.142-.776-1.142-.153-.924-.177-1.045a1.381,1.381,0,0,0-.286-.387l.048.827a2.97,2.97,0,0,0-.658-1.093c-.41-.363-.653-.508-.69-.7a4.206,4.206,0,0,0-.452-1.021,5.207,5.207,0,0,0-.769-1.019A3.678,3.678,0,0,1,54.2,32.509a3.95,3.95,0,0,0-.823-1.166c-.174-.119.142.293.142.293A5.818,5.818,0,0,0,52.57,30.4c-.312-.194-.953-.627-.953-.627s.088.242-.074.17a6.041,6.041,0,0,1-.867-.725,6.231,6.231,0,0,0-.771-.557l-.087.1s-.716-.6-.994-.6-1.056-.14-.649.077.128.559.516.582a2.661,2.661,0,0,1,1.019.5s-.625.1-.425.247,1.019.847,1.019.847l.706.337s.362.655.025.462a4.664,4.664,0,0,0-.795-.458,3.465,3.465,0,0,0-.574-.093,1.906,1.906,0,0,1,.513.338c.187.194-.257.123-.046.316s.311.51.506.631.364.68.364.68.7.409.932.505a4.537,4.537,0,0,1,.606.264c.1.074.589.387.589.387a4.46,4.46,0,0,0-.942-.335c-.214,0-.3.125-.127.122s.5.265.5.265.027.024.217.145a1.327,1.327,0,0,1,.379.29c.135.147.433.484.433.484s-1.065-.651-1.186-.722a1.3,1.3,0,0,0-.74-.289c-.363,0-.849.151-.506.272a7.981,7.981,0,0,1,.768.312c.092.048.51.314.8.456s.562.266.562.266-.344.318-.6.247a1.151,1.151,0,0,0-.606.077s-.486.028-.364.223-.337.708-.337.708-.043.439.274.315,1.036-.519,1.221-.446a1.18,1.18,0,0,1,.38.314l-.685.1s-.162.05.074.17-.092.073.184.292a8.376,8.376,0,0,1,.885,1.041s-.646-.239-.89-.287-.738-.166-.455-.021.7.507.783.507-.138.172.2.267.563.7.716.726a3.776,3.776,0,0,1,.9.58c.277.217.447.995.662,1.335a10.572,10.572,0,0,0,1.322,1.21c.39.365.241.243.52.364a4.352,4.352,0,0,1,.844.725s.9.9,1.072,1.016a5.109,5.109,0,0,1,.7,1.189,1.514,1.514,0,0,0,.6.557c.124.1.275.1.308.388s.191.217.233.437.223,1.29.277,1.46S61.8,49.493,61.8,49.493Z"/><path class="cls-10" d="M67.2,75.646s-1.008-2.08-.826-2.818a8.747,8.747,0,0,0,.155-2.755c-.118-.617.406-1.145.456-2.1a5.838,5.838,0,0,0-.167-1.8,11.086,11.086,0,0,0-.186-2.21c-.254-.642-.11-3.285,1.221-3.748a2.124,2.124,0,0,1,2.206.493s-1.579-.734-2.078-.356A2.921,2.921,0,0,0,66.787,62.2a7.959,7.959,0,0,0,.294,2.284,9.8,9.8,0,0,0,.506,1.888A8.529,8.529,0,0,1,68.2,69.48c-.023,1.22.22,1.634-.047,2.464a24.639,24.639,0,0,0-.828,4.1"/><path class="cls-10" d="M65.721,67.6a2.145,2.145,0,0,1-1.273-.936c-.618-.844-2.145-3.208-2.35-3.591S60.961,61.453,60.637,61a12.049,12.049,0,0,0-2.175-2c-.667-.44-1-.552-1.365-.836a13.234,13.234,0,0,0-1.707-.912c-.287-.135-1.169-.6-1.57-.729s-1.094-.344-1.094-.344a.912.912,0,0,1-.519-.29,3.314,3.314,0,0,0-.991-.5s.788.294,1.215.5,1.817.727,2.216.857,2.249,1.009,2.99,1.417,1.9,1.438,2.587,1.793,1.121,1.11,1.829,1.561a8.449,8.449,0,0,1,2,2.589c.356.7.8,1.491.931,1.817A10.437,10.437,0,0,1,65.721,67.6Z"/><path class="cls-10" d="M67.537,89.433a7.781,7.781,0,0,0-1.153-2.777,13.679,13.679,0,0,1-2.007-2.484c-.309-.592-1.145-.949-1.836-1.808a7.778,7.778,0,0,1-1.069-1.692,15.1,15.1,0,0,1-1.324-2.066c-.2-.649-2.125-3.032-3.655-3.136s-1.687.982-1.687.982.95-1.051,1.664-.824a5.459,5.459,0,0,1,2.345,1.4,10.232,10.232,0,0,1,1.276,2.16,11.178,11.178,0,0,1,.816,1.849,10.079,10.079,0,0,0,1.537,2.993,12.041,12.041,0,0,0,1.71,2.242,41.582,41.582,0,0,1,3.536,3.556"/><path class="cls-10" d="M69.377,122.157c-1.868-9.815-1.861-18.583-1.852-27.866,0-2.892,0-5.884-.055-8.919-.16-8.488-2.206-17.549-4.185-26.311-.816-3.617-1.661-7.359-2.344-10.955l.616-.117c.684,3.587,1.526,7.323,2.343,10.934,1.984,8.793,4.037,17.884,4.2,26.436.058,3.041.056,6.036.055,8.932-.009,9.253-.015,17.992,1.839,27.748l-.615.118Z"/></g><g class="cls-8"><path class="cls-9" d="M89.645,68.72a14.861,14.861,0,0,0-1.521-2.468c-.532-.508-1.229-.536-1.831-1.45s-.628-.944-.831-.967-1.5.036-1.934-.037-1.648-.256-1.928-.362-.955-.5-.573-.488a17.678,17.678,0,0,1,1.816.376,2.948,2.948,0,0,0,1.4.252c.959-.019,1.162,0,.736-.193a4.3,4.3,0,0,1-1.127-.624,5.175,5.175,0,0,1-.393-.493,1.9,1.9,0,0,1-.7-.026,8.041,8.041,0,0,1-1.477-.536s.868.143.792-.14-.3-.981-.3-.981.9,1.174,1.133,1.225.758.158.758.158l.957.7-.961-1.3,1.74,1.614.754.882,1.324.971a14.82,14.82,0,0,1-1.4-1.853,8.335,8.335,0,0,1-.436-1.4,15,15,0,0,0-.789-1.384l-.592-1.039s-1.085-.445-1.34-.523a6.769,6.769,0,0,1-1.239-.41c-.2-.147-.854-.594-.854-.594a8.917,8.917,0,0,1,.989.21c.118.062,1.043.463,1.043.463s-1.617-1.552-1.405-1.654.682.476.682.476l1.036.787.087-1.364a.67.67,0,0,1,.347.837c-.23.551-.091.765-.091.765l.845.518a.252.252,0,0,0,.2-.378,5.3,5.3,0,0,1-.413-1.245c-.089-.558-.341-1.561-.341-1.561l-.055-.855.874.946a1.734,1.734,0,0,0,.039-1.22,8.692,8.692,0,0,1-.508-1.48l.784.586s.429-1.528.445-1.775.779-.814.779-.814l1-1.115-.847,1.406.782-.612.613-.334s-.551,1.065-.668,1.2-.545.94-.545.94l.987-.592.6-.484a5.921,5.921,0,0,1-1.395,1.545,1.12,1.12,0,0,0-.626.781s.645-.229.9-.348,1.02-.489,1.02-.489a3.955,3.955,0,0,1-.647.828,3.33,3.33,0,0,0-.558.588l-.576.835-.151.634L85.764,56.8s.9-.749.891-1.026A7.065,7.065,0,0,1,87.1,54.4a6.76,6.76,0,0,1,.138.813.916.916,0,0,1-.286.818c-.355.412-.723.745-.712,1.021a3.178,3.178,0,0,0,.3.858s.814-1.111.779-1.414.276-.893.259-1.046a2.179,2.179,0,0,1,.178-.6,1.082,1.082,0,0,1,.187.47c0,.2-.151.634-.165.881a6.572,6.572,0,0,1-.193.855s1.157-.874,1.078-.957a5.46,5.46,0,0,1-.2-.946s.813.413.56.934-.609.933-.652,1.153a3.73,3.73,0,0,1-.574.837s.978-.067,1.132-.3a14.2,14.2,0,0,1,1.017-1.087s-.242,1-.54,1.14a4.726,4.726,0,0,0-.914,1,16.857,16.857,0,0,0,1.512-1.083l.508-.444s-1.206,1.218-1.137,1.425.071.406-.422.8-.976.868-1.023,1.213a2.027,2.027,0,0,0,.332,1.161c.123.062.444-.63.348-.864s.15-.456.15-.456a11.222,11.222,0,0,1,.067,1.331A5.544,5.544,0,0,0,88.98,63s.321-.514.524-.892l.2-.378a6.377,6.377,0,0,1-.283,1.618c-.177.206-.046.745-.046.745a10.749,10.749,0,0,1,.5,1.6c.055.456-.531,1.217-.4,1.555.08.209.016-.895.666,1.323Z"/><path class="cls-9" d="M87.659,88.737s-.333-1.537.03-2.075a6.8,6.8,0,0,0,.889-2.019c.061-.453.673-.835.976-1.532a3.726,3.726,0,0,0,.343-1.325c.066-.423.489-1.148.436-1.621a3.543,3.543,0,0,1,2.106-2.734,1.689,1.689,0,0,1,1.833.382s-1.208-.553-1.755-.28a3.589,3.589,0,0,0-1.568,1.342,5.025,5.025,0,0,0-.361,1.678,5.445,5.445,0,0,0-.062,1.388,5,5,0,0,1-.3,2.286c-.353.894-.247,1.2-.712,1.8a22.454,22.454,0,0,0-1.854,3"/><path class="cls-9" d="M88.528,82.825a1.269,1.269,0,0,1-.882-.7c-.318-.626-1.037-2.375-1.115-2.658s-.573-1.2-.738-1.538A6.048,6.048,0,0,0,84.4,76.44c-.476-.328-.743-.414-.989-.626a8.45,8.45,0,0,0-1.273-.687c-.218-.1-.88-.452-1.2-.552s-.881-.262-.881-.262a.613.613,0,0,1-.385-.219,2.195,2.195,0,0,0-.748-.372s.624.224.946.383,1.422.55,1.743.649a23.756,23.756,0,0,1,2.278,1.07c.552.306,1.305,1.075,1.819,1.342s.7.826,1.2,1.165a3.967,3.967,0,0,1,1.075,1.916c.129.516.311,1.1.336,1.343S88.626,82.706,88.528,82.825Z"/><path class="cls-9" d="M84.208,98.847s.148-1.577-.274-2.047a6.329,6.329,0,0,1-1.111-1.843c-.115-.436-.765-.707-1.146-1.344a3.636,3.636,0,0,1-.491-1.251c-.117-.407-.619-1.05-.619-1.53a3.278,3.278,0,0,0-2.4-2.335,1.787,1.787,0,0,0-1.77.7s1.133-.76,1.707-.586a3.314,3.314,0,0,1,1.708,1.054,4.757,4.757,0,0,1,.549,1.6,5.312,5.312,0,0,1,.224,1.365,4.861,4.861,0,0,0,.557,2.208c.454.824.384,1.144.913,1.664a20.186,20.186,0,0,1,2.185,2.642"/><path class="cls-9" d="M76.9,122.814l.671.005c1-7.171,3.384-13.581,5.908-20.366.8-2.144,1.606-4.314,2.38-6.541,2.183-6.274,2.828-12.962,3.451-19.431.257-2.656.521-5.4.889-8.036l-.672,0c-.368,2.643-.633,5.394-.888,8.054-.621,6.445-1.263,13.107-3.429,19.33-.772,2.225-1.58,4.391-2.379,6.533C80.3,109.165,77.906,115.6,76.9,122.814Z"/><path class="cls-10" d="M94.028,53a1.319,1.319,0,0,1,.647-.825,23.358,23.358,0,0,0,2.039-1.785"/><path class="cls-10" d="M97.627,49.947s.685-.48.779-.527a.835.835,0,0,1,.327-.114,2.483,2.483,0,0,1,.385.074l.61-.089-.491-.28a4.162,4.162,0,0,0,.85-.549c.137-.183.045-.322.333-.32s.425-.206.757-.2a1.179,1.179,0,0,0,.659-.3,1.49,1.49,0,0,0-.689.042,3.565,3.565,0,0,1-.727.133.338.338,0,0,1,.237-.437,1.874,1.874,0,0,0,.583-.365s-1,.178-1.185.408a6.485,6.485,0,0,1-.709.641s-.05-.114.22-.459.583-.39.682-.621a2.235,2.235,0,0,1,.6-.664c.095-.045.209-.228.409-.227s.348-.136.793-.294.389-.275.8-.2a.613.613,0,0,0,.615-.274s-.6-.142-.795-.028a6.647,6.647,0,0,0-1.608.59,8.783,8.783,0,0,0-1.284.823c-.185.229-.722.409-.881.779s-.391.251-.5.433-.554.965-.713,1.15-.286-.141-.286-.141-.527,1.08-.585,1.173-.527.457-.7.618-1.214,1.1-1.366,1.237-.669.826-.669.826,2.452-2.2,2.794-2.451A3.112,3.112,0,0,1,97.627,49.947Z"/><path class="cls-10" d="M94.6,51.7s1.452-1.835,1.576-2.111.6-.849.7-1.033.926-.618,1.211-1.076a2.768,2.768,0,0,1,.831-.733c.08-.093,1-.664,1.173-.779s1.1-.5,1.18-.568.465-.32.266-.321a4.736,4.736,0,0,0-.726.134,3.888,3.888,0,0,1,.751-.455,9.925,9.925,0,0,0,1.062-.5,1.13,1.13,0,0,0-.93.018c-.368.252-.128-.185-.276-.071s-.655.572-1.148,1.076,1.1-2.046.768-1.84-.444.021-.542.228-.752,1.587-.752,1.587a5.3,5.3,0,0,0-.792.456c-.176.16-.755.825-.854.917s-.552.781-.716,1.01a7.964,7.964,0,0,0-.813,1.057,13.641,13.641,0,0,1-1.013,1.423C95.381,50.346,94.6,51.7,94.6,51.7Z"/><path class="cls-10" d="M93.772,52.712s.266-2.237.27-2.42-.171-.832-.211-1.179a3.148,3.148,0,0,1,.129-.921c.012-.092.094.255.094.255a1.731,1.731,0,0,0,.038-.9,1.85,1.85,0,0,1,.115-.969l-.05.346a5.147,5.147,0,0,1,.335-1.751c.26-.3.19.209.19.209s.471-1.473.552-1.588.1.254.1.254.4-.758.59-1.057.724-1.079.724-1.079.1-.877.118-.991.27-.367.27-.367l0,.783a2.567,2.567,0,0,1,.61-1.034c.4-.343.64-.48.666-.664a3.594,3.594,0,0,1,.4-.968,4.673,4.673,0,0,1,.731-.964,3.269,3.269,0,0,0,1.077-1.077,3.4,3.4,0,0,1,.772-1.1c.171-.113-.126.276-.126.276a5.083,5.083,0,0,1,.894-1.17c.311-.183.943-.594.943-.594s-.075.23.088.162a5.615,5.615,0,0,0,.846-.686,6.256,6.256,0,0,1,.761-.527l.1.094s.7-.571.986-.57,1.08-.133.674.073-.1.53-.5.55a2.622,2.622,0,0,0-1.017.478s.651.1.454.234-1,.8-1,.8l-.706.319s-.332.62,0,.437a4.485,4.485,0,0,1,.79-.432,3.8,3.8,0,0,1,.587-.09,1.911,1.911,0,0,0-.51.32c-.179.185.273.118.07.3s-.288.482-.481.6-.332.645-.332.645-.7.387-.928.477a4.47,4.47,0,0,0-.61.249c-.1.069-.58.367-.58.367a4.612,4.612,0,0,1,.949-.318c.218,0,.316.119.139.116a1.237,1.237,0,0,0-.5.251s-.027.022-.218.136a1.3,1.3,0,0,0-.37.274c-.13.139-.417.459-.417.459s1.058-.615,1.178-.683a1.315,1.315,0,0,1,.745-.272c.374,0,.885.143.538.256a8.14,8.14,0,0,0-.773.3c-.09.045-.5.3-.788.432s-.564.25-.564.25.377.3.632.234a1.3,1.3,0,0,1,.629.074s.5.026.389.209.395.673.395.673.073.415-.264.3-1.1-.491-1.288-.423a1.077,1.077,0,0,0-.372.3l.712.1s.171.049-.063.161.1.07-.173.276a7.582,7.582,0,0,0-.846.987,9.354,9.354,0,0,1,.9-.27c.248-.046.753-.158.467-.021s-.685.48-.774.479.153.162-.19.253-.535.665-.693.688a3.66,3.66,0,0,0-.893.548c-.273.206-.4.941-.6,1.265a9.618,9.618,0,0,1-1.286,1.145c-.38.344-.233.228-.514.344a3.961,3.961,0,0,0-.823.685s-.87.847-1.041.962a4.416,4.416,0,0,0-.642,1.127c-.132.3-.46.434-.585.526s-.277.091-.291.365-.184.209-.213.416-.148,1.221-.192,1.382S93.772,52.712,93.772,52.712Z"/><path class="cls-10" d="M89.873,77.48s.908-1.97.672-2.669a7.813,7.813,0,0,1-.338-2.612c.085-.581-.491-1.083-.6-1.985a5.012,5.012,0,0,1,.055-1.709,9.718,9.718,0,0,1,.049-2.092c.224-.609-.1-3.112-1.5-3.551a2.2,2.2,0,0,0-2.243.464s1.582-.692,2.121-.333a3.019,3.019,0,0,1,1.35,1.752,6.858,6.858,0,0,1-.155,2.161,8.381,8.381,0,0,1-.4,1.788,7.3,7.3,0,0,0-.438,2.944c.1,1.155-.121,1.547.207,2.333a22.714,22.714,0,0,1,1.118,3.888"/><path class="cls-10" d="M90.886,69.862a2.049,2.049,0,0,0,1.252-.885c.583-.8,2-3.037,2.192-3.4s1.07-1.536,1.374-1.966a11.058,11.058,0,0,1,2.115-1.894c.66-.416,1-.523,1.355-.791a13.135,13.135,0,0,1,1.7-.863c.287-.127,1.167-.566,1.572-.69s1.107-.324,1.107-.324a.906.906,0,0,0,.516-.274,3.281,3.281,0,0,1,.992-.468s-.8.277-1.222.476-1.828.687-2.232.809-2.253.955-2.993,1.34-1.868,1.36-2.554,1.7-1.081,1.05-1.784,1.478a7.35,7.35,0,0,0-1.892,2.449c-.325.66-.735,1.414-.845,1.721A8.759,8.759,0,0,0,90.886,69.862Z"/><path class="cls-10" d="M90.412,90.538a6.611,6.611,0,0,1,1.009-2.63,11.9,11.9,0,0,0,1.913-2.352c.281-.559,1.122-.9,1.779-1.709a6.711,6.711,0,0,0,.993-1.6,12.765,12.765,0,0,0,1.235-1.957c.165-.613,2-2.87,3.567-2.967s1.8.931,1.8.931-1.049-1-1.771-.781A5.268,5.268,0,0,0,98.614,78.8a8.743,8.743,0,0,0-1.178,2.044,9.3,9.3,0,0,0-.723,1.751,8.549,8.549,0,0,1-1.393,2.833c-.8,1.051-.833,1.466-1.619,2.124a37.281,37.281,0,0,0-3.422,3.364"/><path class="cls-10" d="M89.96,121.472l.67,0c1.294-9.288.727-17.591.121-26.382-.188-2.739-.382-5.572-.518-8.445-.378-8.047,1.15-16.63,2.63-24.932.607-3.426,1.24-6.967,1.714-10.371l-.671,0c-.473,3.4-1.1,6.933-1.711,10.355-1.483,8.323-3.017,16.931-2.635,25.022.134,2.879.329,5.713.518,8.455.6,8.767,1.172,17.051-.118,26.3Z"/><path class="cls-10" d="M105.314,61.137a1.586,1.586,0,0,1,.827-.718c.676-.327,2.453-1.549,2.453-1.549"/><path class="cls-10" d="M109.626,58.488s.8-.416.908-.456a1.141,1.141,0,0,1,.36-.1,2.882,2.882,0,0,1,.385.065l.648-.072-.454-.248a5.894,5.894,0,0,0,.984-.474c.176-.161.109-.283.4-.278s.481-.177.823-.174a1.622,1.622,0,0,0,.742-.254,1.817,1.817,0,0,0-.724.032,4.582,4.582,0,0,1-.775.113s-.061-.264.327-.379a2.631,2.631,0,0,0,.673-.318,4.526,4.526,0,0,0-1.3.349,8.558,8.558,0,0,1-.858.558s-.028-.1.317-.4.678-.336.827-.537a2.85,2.85,0,0,1,.748-.578c.106-.04.259-.2.467-.2a4.961,4.961,0,0,0,.875-.253c.488-.136.458-.238.87-.172a.822.822,0,0,0,.686-.235,2.007,2.007,0,0,0-.815-.03,9.144,9.144,0,0,0-1.777.5,12.967,12.967,0,0,0-1.489.713c-.236.2-.823.356-1.062.677s-.449.217-.6.376-.757.839-.956,1-.273-.125-.273-.125-.754.942-.83,1.022-.634.4-.848.538-1.468.952-1.652,1.072-.85.719-.85.719,2.96-1.909,3.364-2.126A4.22,4.22,0,0,1,109.626,58.488Z"/><path class="cls-10" d="M106.153,60s1.854-1.6,2.034-1.836.792-.739.921-.9a14.865,14.865,0,0,0,1.46-.933,3.753,3.753,0,0,1,1-.637c.1-.079,1.159-.574,1.36-.672s1.24-.431,1.334-.491.542-.276.335-.279a6.329,6.329,0,0,0-.774.112,5.832,5.832,0,0,1,.861-.4,12.557,12.557,0,0,0,1.2-.43,1.346,1.346,0,0,0-.967.01c-.428.217-.1-.163-.273-.064s-.786.5-1.391.934,1.535-1.782,1.147-1.605-.464.015-.605.2-1.084,1.383-1.084,1.383a7.285,7.285,0,0,0-.908.394c-.212.139-.94.717-1.06.8s-.722.68-.934.88a9.738,9.738,0,0,0-1.043.919,16.72,16.72,0,0,1-1.326,1.238C107.224,58.823,106.153,60,106.153,60Z"/><path class="cls-10" d="M105.1,60.882s.707-1.953.745-2.115-.018-.727.008-1.03a2.742,2.742,0,0,1,.313-.806c.03-.081.047.223.047.223s.3-.523.213-.786.3-.846.3-.846l-.115.3A4.711,4.711,0,0,1,107.3,54.3c.327-.259.156.183.156.183s.77-1.285.878-1.385.052.222.052.222.554-.659.813-.919.96-.941.96-.941.269-.765.309-.865.352-.319.352-.319l-.148.685a2.9,2.9,0,0,1,.828-.9c.481-.3.756-.416.818-.577a3.687,3.687,0,0,1,.6-.843,5.544,5.544,0,0,1,.94-.838,4.364,4.364,0,0,0,1.321-.935,4.164,4.164,0,0,1,1.014-.961c.2-.1-.185.242-.185.242a6.358,6.358,0,0,1,1.149-1.019c.357-.158,1.09-.513,1.09-.513s-.12.2.062.142a7.845,7.845,0,0,0,1.007-.595,8.3,8.3,0,0,1,.887-.455l.082.082a4.051,4.051,0,0,1,1.131-.491c.3,0,1.142-.11.683.066s-.2.462-.617.479a3.668,3.668,0,0,0-1.145.411s.655.089.424.208-1.185.693-1.185.693l-.793.277s-.462.538-.08.381a6.321,6.321,0,0,1,.9-.374,4.826,4.826,0,0,1,.625-.073,2.6,2.6,0,0,0-.588.276c-.22.16.26.1.014.263s-.391.419-.613.519-.466.56-.466.56-.8.335-1.055.414a5.817,5.817,0,0,0-.676.214c-.117.06-.676.316-.676.316a6.451,6.451,0,0,1,1.046-.272c.228,0,.3.105.12.1a1.736,1.736,0,0,0-.563.215s-.032.019-.249.119a1.71,1.71,0,0,0-.437.236c-.163.12-.52.4-.52.4s1.212-.533,1.35-.592a1.818,1.818,0,0,1,.823-.233c.388,0,.889.131.509.228s-.746.215-.857.254-.579.256-.9.373-.632.215-.632.215a.905.905,0,0,0,.609.208,1.5,1.5,0,0,1,.638.068s.515.028.364.188.278.59.278.59-.007.364-.331.259a4.649,4.649,0,0,0-1.251-.378,1.483,1.483,0,0,0-.443.258l.719.088s.168.043-.1.14.091.063-.23.24a9.652,9.652,0,0,0-1.065.858s.717-.2.984-.231.806-.133.488-.016-.8.417-.895.414.129.144-.244.22-.681.58-.849.6a5.207,5.207,0,0,0-1.029.475c-.323.179-.592.822-.863,1.1a12.782,12.782,0,0,1-1.549.995c-.459.3-.285.2-.6.3a5.5,5.5,0,0,0-.985.6s-1.062.735-1.26.835a5.066,5.066,0,0,0-.881.98,1.84,1.84,0,0,1-.708.457c-.142.08-.3.079-.372.32s-.23.18-.3.36-.388,1.067-.465,1.208S105.1,60.882,105.1,60.882Z"/><path class="cls-10" d="M96.311,82.514s1.317-1.717,1.208-2.329a5.649,5.649,0,0,1,.153-2.284c.2-.51-.3-.951-.244-1.742a4.1,4.1,0,0,1,.387-1.493c.175-.477.107-1.3.454-1.829s.5-2.721-.872-3.114a2.928,2.928,0,0,0-2.412.392s1.771-.595,2.261-.278a2.069,2.069,0,0,1,1.062,1.54,5.675,5.675,0,0,1-.579,1.89,7.711,7.711,0,0,1-.757,1.561,6.431,6.431,0,0,0-1.017,2.57c-.117,1.011-.425,1.352-.236,2.042a15.486,15.486,0,0,1,.411,3.4"/><path class="cls-10" d="M98.821,75.861a2.826,2.826,0,0,0,1.467-.768c.757-.694,2.66-2.643,2.922-2.958s1.4-1.338,1.8-1.71a14.617,14.617,0,0,1,2.556-1.645c.759-.36,1.131-.45,1.55-.682a18.486,18.486,0,0,1,1.929-.746c.32-.109,1.317-.488,1.758-.593s1.208-.276,1.208-.276a1.241,1.241,0,0,0,.588-.238,4.594,4.594,0,0,1,1.117-.4s-.878.238-1.357.409-2.025.588-2.464.694-2.518.821-3.355,1.153-2.2,1.179-2.969,1.468-1.324.912-2.133,1.281a9.2,9.2,0,0,0-2.429,2.131c-.463.576-1.032,1.231-1.2,1.5S98.777,75.725,98.821,75.861Z"/><path class="cls-10" d="M94.359,93.936a6.794,6.794,0,0,1,1.553-2.294A15.1,15.1,0,0,0,98.341,89.6c.4-.489,1.332-.779,2.17-1.487a7.86,7.86,0,0,0,1.335-1.394,15.263,15.263,0,0,0,1.653-1.7c.29-.536,2.619-2.5,4.264-2.574s1.687.825,1.687.825-.894-.877-1.682-.693a7.344,7.344,0,0,0-2.666,1.147,10.055,10.055,0,0,0-1.609,1.78,9.8,9.8,0,0,0-1.085,1.526,9.389,9.389,0,0,1-1.987,2.469,12.984,12.984,0,0,1-2.084,1.845,50.226,50.226,0,0,0-4.186,2.923"/><path class="cls-10" d="M88.617,121.036c3.127-8.119,4.133-15.383,5.2-23.074.332-2.4.674-4.877,1.087-7.391,1.153-7.032,4.383-14.525,7.505-21.771,1.29-2.991,2.624-6.085,3.769-9.061l-.643-.1c-1.143,2.966-2.475,6.055-3.765,9.043-3.133,7.272-6.375,14.791-7.535,21.875-.412,2.519-.756,5-1.089,7.4-1.06,7.667-2.064,14.907-5.17,22.977l.644.1Z"/></g><path class="cls-4" d="M60.672,121.876a58.641,58.641,0,0,1-.754-7.914c-.241-7.892,3.662-13.751,4.1-15.15S67.93,98,68.542,98.79s-.087,1.224-.612,2.273-3.585,6.471-3.673,9.794-1.311,10.757-1.311,10.757Z"/><path class="cls-11" d="M64.52,98.265a4.645,4.645,0,0,1,2.8-1.662,14.751,14.751,0,0,1,4.023.175s2.011,4.2,1.661,7.608a50.6,50.6,0,0,1-1.224,6.734s.437-4.81-1.137-7.433S67.405,97.041,64.52,98.265Z"/><path class="cls-5" d="M110.607,124.646H9.882v-2.635h.607a4.208,4.208,0,0,1,1.832-2.186c.969-.529,2.974.392,3.928.893-.176-.228-.08-.6,1.132-1.157,1.982-.912,3.961,1.725,4.457,2.45h.07c-.062-.346-.038-1.135,1.134-1.924,1.568-1.054,3.5,1.579,3.5,1.579a2.205,2.205,0,0,1,.481-2.235c.964-1.186,2.53,1.579,2.53,1.579a1.97,1.97,0,0,1,.363-1.844c.615-.784,2.272.811,2.753,1.305-.139-.207-.24-.67.5-1.569,1.083-1.317,1.687.264,1.687.264l.723-1.054c.723-1.054,2.169,1.579,2.169,1.579s.12-1.71,1.566-1.183,2.652,3.291,2.652,3.291.119-1.843,2.53-1.579a7.854,7.854,0,0,1,2.972.9c-.121-.222-.11-.549.281-1.029.717-.88,2.229.274,2.96.926-.168-.335-.144-.914.774-1.847,1.687-1.71,5.424,1.712,5.424,1.712a11.008,11.008,0,0,1,1.2-2.239c.315-.226,2.632,1.929,3.232,2.5-.208-.244-.471-.806.505-1.574,3.013-2.37,5.423,1.711,6.265,1.58a3.237,3.237,0,0,0,2.289-1.054c.962-.923,7.35,1.185,7.35,1.185s-1.206-.658-.121-1.447,4.941,1.71,4.941,1.71-.241-.525,1.084-1.448c1.22-.849,4.263,1.3,4.747,1.659-.215-.174-.775-.777.434-1.659,1.446-1.054,4.46,1.185,4.46,1.185a2.22,2.22,0,0,0,3.192-.955c.785-1.452,5.723.955,5.723.955s2.772-.658,4.218-1.052,4.337,1.579,4.337,1.579l5.384,3.049Z"/><path class="cls-12" d="M9.49,121.884s5.139,3.425,8.564,1.37,5.481-4.111,10.962-2.055,27.746,1.027,39.05.685,41.106-3.426,60.973,6.508,21.238,7.536,38.708,3.768,11.19,16.224-12.1,16.909-52.295,5.014-63.941,1.589-56.231-1.559-70.276-2.587S9.49,141.409,9.49,141.409Z"/></g></svg>