<svg id="word" xmlns="http://www.w3.org/2000/svg" viewBox="0 0 160 160"><defs><style>.cls-1,.cls-4{fill:#bcb2b9;}.cls-1,.cls-2,.cls-5{stroke:#9d4b9c;stroke-width:0.584px;}.cls-2{fill:#d3c7ce;}.cls-3{fill:#9d4b9c;}.cls-5{fill:#fff;}.cls-6{fill:#9d509e;}</style></defs><path class="cls-1" d="M132.552,62.015s.4-7.021,3.472-6.626,2.716,4.279,2.446,6.153-2.758,6.816-2.758,6.816-2.354-2.4-2.6-3.581S132.552,62.015,132.552,62.015Z"/><path class="cls-1" d="M23.273,70.858s-3.622,4.83-6.234,5.553-3.317,1.25-4.605.653-1.811-1.116-1.9-.53,1.945,2.247,3.444,2.582,5.823-1.209,6.911-1.953a34.489,34.489,0,0,0,3.029-2.6l1.372-5.128Z"/><path class="cls-1" d="M48.953,100.529s-.079,2.677-.8,3.405-2.025,1.476-.965,2.1,4.423,5.994,5.133,7.06,2.513,3.1,2.513,3.1a44.255,44.255,0,0,0,4.981.311c1.815-.061,4.846-.333,5.342-.828s1.857-.89.782-2.192-3.347-4.046-4.668-5.325-.439-3.784,0-4.26a8.91,8.91,0,0,0,1-1.814Z"/><path class="cls-2" d="M55.235,115.768s-.067-3.066,1.325-3.429,3.171,3.274,3.171,3.274l.079.9H56.56Z"/><path class="cls-1" d="M60.379,115.592s.129-2.487.978-2.694,3.266,2.79,3.266,2.79a2.674,2.674,0,0,1-2.122.9C61.3,116.43,60.492,116.074,60.379,115.592Z"/><path class="cls-1" d="M77.976,102.58s-.539,4.52-1.667,5.944-2.815,4.238-2.96,5.889.787,1.663,2.96,1.788,7.03.624,7.971-.588a38.065,38.065,0,0,0,3.351-6.6,18.615,18.615,0,0,0,.817-3.69l.473-5.6Z"/><path class="cls-1" d="M81.128,115.613s-.084-3.106,1.877-3.3a10.257,10.257,0,0,1,2.84,0s-.825,3.778-2.165,3.748-2.771-.09-2.771-.09Z"/><path class="cls-1" d="M79.454,50.418s.305.249,1.807-.074,8.024-2.055,10.761-1.188,4.771,2.035,6.6,2.367,1.263,1.1,3.156,1.893,4.615,2.3,5.838,2.372-.34.75,4.641,1.1,9.388.5,13.293,1.337,7.124,2.226,7.888,3.756,1.454,4.736,2.583,5.632,4.489,2.56,4.375,5.626-.626,9.559,0,11.186,1.16,5.049,2.4,5.334,4.264,2.209,4.183,4.232.308,4.413-.655,5.81a2.826,2.826,0,0,1-2.029,1.42,15.47,15.47,0,0,1-1.444,3.037c-.469.426-1.191.313-2.714.189a10.018,10.018,0,0,0-5.383.718c-2.032.945-4.029,2.446-6.869,1.815s-4.829-1.178-5.713-2.139-2.334-4.961-2.334-4.961a7.888,7.888,0,0,1-2.209-.158c-.473-.237-.3-.064-1.893.158s-1.223,2.426-3.1,2.5a8.209,8.209,0,0,1-4-1.322,4.376,4.376,0,0,1-3.569.4c-2.088-.628-4.685-2.736-7.1-2.35s-16.923,4.29-19.261,4.478-8.854.424-8.854.424-13.3-1.778-15.035-1.685-10.956-2.363-11.823-3.313-6-3.392-6-3.392a16.833,16.833,0,0,1-1.869,3.712c-.8.86-5.468,3.231-5.468,3.231s.511,3.39-.651,4.89a4.363,4.363,0,0,0-1.029,3.291,20.758,20.758,0,0,1,1.523,3.93,7.621,7.621,0,0,1-.494,3.425,8.34,8.34,0,0,1-5.187,1.631c-2.859-.206-7.415-1.577-7.258-2.314s.272-3.891.815-5.306,3.913-4.678,3.166-5.323-2.678-6.164-2.479-7.92,2.288-5.47,3.068-6.318,2.06-2.9,1.075-4.466-.4-10.535.349-13.924,6.708-11.831,8.695-13.64S43.21,50.441,46.012,49.786s14.492-2.231,18.611-1.35S78.364,50.7,79.454,50.418Z"/><path class="cls-2" d="M17.907,118.1s.074-4.159,1.765-3.94,1.481,4.989,1.481,4.989l-2.881-.649Z"/><path class="cls-2" d="M23.047,119.152s-.688-3.337,1.183-3.464,2.2,3.078,2.2,3.078a4.406,4.406,0,0,1-2.124.968A1.667,1.667,0,0,1,23.047,119.152Z"/><path class="cls-1" d="M27.188,118.382s-.052-2.077.884-2.769a4.559,4.559,0,0,0,1.315-1.458l-.365,3.948-1.834,1.029Z"/><path class="cls-3" d="M144.3,101.225a1.577,1.577,0,0,1-1.008.865,7.363,7.363,0,0,1-1.47.3,2.859,2.859,0,0,1-1.015-.093,2.6,2.6,0,0,1-.28-.113l-.213-.116-.439-.264a2.514,2.514,0,0,0-1.8-.5,7.583,7.583,0,0,0-2.2.635l-2.356,1.038a7.194,7.194,0,0,1-2.654.7,7.851,7.851,0,0,1-1.357-.242c-.434-.1-.867-.2-1.295-.314a14.22,14.22,0,0,1-2.454-.867,5.964,5.964,0,0,1-1.986-1.419,8.236,8.236,0,0,1-1.211-1.808,7.112,7.112,0,0,1-.628-1.723,1.6,1.6,0,0,1,.006-.768,3.028,3.028,0,0,0,.075-.634,5.734,5.734,0,0,0-.093-1.218,5.711,5.711,0,0,1,.134,1.218c.049.4-.193.862-.037,1.384a6.919,6.919,0,0,0,.674,1.673,8.047,8.047,0,0,0,1.239,1.728,5.735,5.735,0,0,0,1.951,1.3,13.891,13.891,0,0,0,2.422.767c.424.1.855.184,1.29.267a7.568,7.568,0,0,0,1.271.189,6.786,6.786,0,0,0,2.43-.738l2.322-1.116a8.245,8.245,0,0,1,2.384-.765,3.209,3.209,0,0,1,1.249.066,4.375,4.375,0,0,1,1.037.471l.409.229.207.1c.055.028.1.033.15.054a2.111,2.111,0,0,0,.7.032,6.466,6.466,0,0,0,1.272-.3,2.769,2.769,0,0,1,1.207-.166Z"/><path class="cls-3" d="M119.41,100.054s-.066-.184-.139-.478a7.556,7.556,0,0,1-.2-1.265,4.49,4.49,0,0,1,.218-1.834,3.965,3.965,0,0,1,.508-.9c.178-.266.354-.544.515-.827a7.761,7.761,0,0,0,.74-1.761,4.708,4.708,0,0,0,.264-1.645,4.061,4.061,0,0,0-.252-1.163,3.177,3.177,0,0,0-.187-.418,3.173,3.173,0,0,1,.224.4,4.149,4.149,0,0,1,.361,1.164,4.932,4.932,0,0,1-.121,1.73,8.183,8.183,0,0,1-.611,1.9c-.142.311-.3.612-.459.907a3.381,3.381,0,0,0-.372.807,3.8,3.8,0,0,0-.04,1.546,6.738,6.738,0,0,0,.278,1.1,8.324,8.324,0,0,1,.141,1.261Z"/><path class="cls-4" d="M78.842,83.806s-.807,7.353.646,9.94,3.546,7.779,4.192,8.088,3.008.574,2.469,1.834-.291,4,.721,4.856,2.754,2.258,2.639,3.87-.884,6.164.006,6.5,1.3,2.365,2.089,2.209,3.522,1.792,6.863,1.539,4.669-1.447,4.669-1.447-1.279-3.891-1.623-4.477-2-2.43-2.133-4.329,1.431-3.9-.175-5.482-2.631-2.529-2.631-2.529S95.6,99.828,95.4,98.307s-.814-9.626-.814-9.626"/><path class="cls-3" d="M78.842,83.806a37.7,37.7,0,0,0-.031,6.794,8.316,8.316,0,0,0,.865,3.221c.564.994,1.057,2.02,1.551,3.043s.974,2.053,1.486,3.061a14.078,14.078,0,0,0,.82,1.46,1.446,1.446,0,0,0,.22.252,1.611,1.611,0,0,0,.356.134l.821.24a4.582,4.582,0,0,1,.826.342,1.268,1.268,0,0,1,.661.746,1.729,1.729,0,0,1-.154.938,4.419,4.419,0,0,0-.134.794,5.692,5.692,0,0,0,.6,3.143,8.691,8.691,0,0,0,1.186,1.12,8.136,8.136,0,0,1,1.183,1.3,3.4,3.4,0,0,1,.672,1.694,15.9,15.9,0,0,1-.143,1.743c-.123,1.127-.251,2.254-.262,3.365a6.782,6.782,0,0,0,.042.814,1.235,1.235,0,0,0,.189.6.03.03,0,0,1,.015.019.858.858,0,0,0,.11.058,1.074,1.074,0,0,1,.226.147,2.08,2.08,0,0,1,.34.352,7.081,7.081,0,0,1,.485.744,5.683,5.683,0,0,0,.44.673.813.813,0,0,0,.225.2c.091.02.015.02.3.008a7.178,7.178,0,0,1,1.714.545,14.228,14.228,0,0,0,3.2.932,9.959,9.959,0,0,0,3.295-.121,7.441,7.441,0,0,0,3.01-1.173l-.075.284c-.5-1.483-.985-3.053-1.587-4.426a9.8,9.8,0,0,1-2.142-4.3c-.167-1.712.894-3.216.452-4.648-.219-.68-.9-1.16-1.449-1.733l-1.7-1.659-.044-.042-.009-.051-.725-3.9-.353-1.951c-.1-.653-.109-1.317-.168-1.975l-.567-7.907.769,7.883c.075.655.1,1.316.217,1.965l.4,1.938.777,3.876-.053-.093,1.73,1.639.865.82a2.844,2.844,0,0,1,.714,1.056,4.513,4.513,0,0,1-.078,2.466,6.749,6.749,0,0,0-.285,2.268,5.654,5.654,0,0,0,.769,2.126c.385.685.855,1.268,1.328,1.971.684,1.527,1.127,3,1.653,4.518l.062.18-.138.1a7.827,7.827,0,0,1-3.266,1.318,10.519,10.519,0,0,1-3.48.141,14.44,14.44,0,0,1-3.331-.955,7.625,7.625,0,0,0-1.51-.514l-.207.007a.749.749,0,0,1-.33-.073,1.325,1.325,0,0,1-.414-.352,5.845,5.845,0,0,1-.49-.751,6.513,6.513,0,0,0-.44-.685,1.514,1.514,0,0,0-.247-.261.491.491,0,0,0-.13-.085l-.076-.043a1.609,1.609,0,0,1-.156-.108,1.546,1.546,0,0,1-.378-.96,7.2,7.2,0,0,1-.042-.886c.017-1.161.153-2.294.282-3.423.056-.552.151-1.154.148-1.649a2.89,2.89,0,0,0-.571-1.431,7.722,7.722,0,0,0-1.1-1.219,8.444,8.444,0,0,1-1.265-1.226,5.971,5.971,0,0,1-.646-3.453,4.824,4.824,0,0,1,.162-.88c.1-.321.215-.523.162-.7-.1-.382-.688-.627-1.187-.8l-.81-.249a2.064,2.064,0,0,1-.435-.174,1.5,1.5,0,0,1-.347-.377,14.436,14.436,0,0,1-.827-1.519c-.5-1.024-.966-2.06-1.445-3.089s-.959-2.056-1.486-3.055a8.505,8.505,0,0,1-.81-3.33A37.79,37.79,0,0,1,78.842,83.806Z"/><path class="cls-3" d="M108.474,101.254s-.2.233-.689.091a7.255,7.255,0,0,1-1.942-.867,4.3,4.3,0,0,1-1.085-.982,11.926,11.926,0,0,1-.784-1.344,9.591,9.591,0,0,1-1.106-3.146,5.266,5.266,0,0,1,.051-1.714,4.9,4.9,0,0,0,.229-1.542,9.614,9.614,0,0,0-.582-2.733,18.016,18.016,0,0,0-1.089-2.54,18.049,18.049,0,0,1,1.226,2.489,9.806,9.806,0,0,1,.742,2.768,5.23,5.23,0,0,1-.15,1.623,4.865,4.865,0,0,0,.037,1.578,9.049,9.049,0,0,0,1.2,2.905,11.567,11.567,0,0,0,.785,1.2,3.545,3.545,0,0,0,.94.761,6.438,6.438,0,0,0,1.752.671,5.618,5.618,0,0,0,.7.126Z"/><path class="cls-3" d="M114.54,100.763s-.183-.145-.464-.4a11.324,11.324,0,0,1-1.108-1.169,6.3,6.3,0,0,1-.616-.917,2.462,2.462,0,0,1-.324-1.288,10.457,10.457,0,0,0,.117-1.208,8.925,8.925,0,0,0-.069-1.236c-.049-.416-.12-.833-.2-1.243s-.156-.825-.254-1.2a5.485,5.485,0,0,0-1.021-1.865,10.274,10.274,0,0,0-1.47-1.535,10.313,10.313,0,0,1,1.583,1.44,7.57,7.57,0,0,1,.649.82,4.412,4.412,0,0,1,.544,1.053c.132.4.229.787.342,1.2s.209.829.29,1.256a9.625,9.625,0,0,1,.162,1.3,10.883,10.883,0,0,1-.033,1.252,2.926,2.926,0,0,0,.9,1.654,10.517,10.517,0,0,0,1.093,1c.285.228.446.338.446.338Z"/><path class="cls-3" d="M117.1,99.726a16.15,16.15,0,0,1-.92-1.836,11.831,11.831,0,0,1-.773-2.3,3.842,3.842,0,0,1-.06-1.428,9.616,9.616,0,0,1,.515-1.312,2.983,2.983,0,0,0,.2-1.255,3.969,3.969,0,0,0-.334-1.22,13.34,13.34,0,0,0-1.1-2.054c-.737-1.159-1.291-1.892-1.291-1.892s.6.695,1.413,1.81a13.616,13.616,0,0,1,1.246,2.013,4.259,4.259,0,0,1,.443,1.3A3.407,3.407,0,0,1,116.3,93a10.225,10.225,0,0,0-.411,1.253,3.264,3.264,0,0,0,.135,1.2,11.107,11.107,0,0,0,.862,2.1c.627,1.195,1.361,2.309,1.361,2.309Z"/><path class="cls-3" d="M121.659,87.389A3.828,3.828,0,0,1,120.8,89.9a3.771,3.771,0,0,1-1.025.912,1.859,1.859,0,0,1-.677.247.743.743,0,0,1-.675-.2c.446.073.727-.255,1.014-.5a9.8,9.8,0,0,0,.789-.9C120.735,88.82,121.16,88.135,121.659,87.389Z"/><path class="cls-3" d="M126.437,93.772a3.283,3.283,0,0,1,.759-1.864,2.365,2.365,0,0,1,1.966-.739,4.044,4.044,0,0,1,3.376,2.328,4,4,0,0,1,.331,2.121,2.219,2.219,0,0,1-.154.562,1.5,1.5,0,0,1-.349.48c-.188.214-.38.491-.579.754a3.873,3.873,0,0,1-1.515,1.424.836.836,0,0,1-.587-.027,1.529,1.529,0,0,1-.43-.319c-.121-.115-.24-.23-.354-.353-.056-.062-.111-.126-.161-.193a.856.856,0,0,1-.07-.107c-.032-.03-.02-.114.038-.086-.108.012.035.117.072.155.062.053.128.1.195.15l.4.284a.7.7,0,0,0,.775.159,3.668,3.668,0,0,0,1.169-1.4,6.837,6.837,0,0,1,.562-.859.779.779,0,0,0,.219-.319,1.587,1.587,0,0,0,.082-.394,3.394,3.394,0,0,0-.31-1.732,3.7,3.7,0,0,0-2.769-2.072C127.88,91.431,126.8,92.509,126.437,93.772Z"/><path class="cls-4" d="M122.372,66.986s-.947-6.233-3.945-6.706-6.665-1.184-6.449,2.761,4.315,8.562,4.315,8.562"/><path class="cls-3" d="M122.372,66.986a19.387,19.387,0,0,0-.987-3.138,7.338,7.338,0,0,0-1.722-2.683,2.725,2.725,0,0,0-1.343-.647l-1.629-.23a6.919,6.919,0,0,0-3.129.15,1.805,1.805,0,0,0-1.052.926,3.422,3.422,0,0,0-.265,1.487,9.112,9.112,0,0,0,.71,3.113,18.826,18.826,0,0,0,1.483,2.913,28.819,28.819,0,0,0,1.855,2.726,20.385,20.385,0,0,1-3.753-5.465,8.683,8.683,0,0,1-.827-3.276,3.966,3.966,0,0,1,.293-1.739,2.38,2.38,0,0,1,1.343-1.229,7.4,7.4,0,0,1,3.409-.133l1.641.259a2.985,2.985,0,0,1,1.565.814C121.57,62.545,122.063,64.828,122.372,66.986Z"/><path class="cls-5" d="M122.871,76.411s.973,2.014,2.682,1.777,1.24-4.666,1.011-5.163c-.478-1.04-2.223-1.942-3.057-1.393S121.557,75.02,122.871,76.411Z"/><path class="cls-4" d="M129.552,80.267c.639.192.952.9,1.186,1.52.455,1.216.911,2.433,1.285,3.676a14.115,14.115,0,0,0,2.03,4.947"/><path class="cls-3" d="M129.552,80.267a1.7,1.7,0,0,1,1.119.9,10.328,10.328,0,0,1,.605,1.3c.366.872.693,1.761,1.012,2.651.58,1.817.821,3.64,1.765,5.294a6.557,6.557,0,0,1-1.559-2.4c-.373-.886-.6-1.8-.9-2.682s-.595-1.771-.848-2.673c-.136-.447-.235-.916-.391-1.336A1.715,1.715,0,0,0,129.552,80.267Z"/><path class="cls-4" d="M134.933,79.216a25.758,25.758,0,0,0,2.653,7.762,2.09,2.09,0,0,0,1.03,1"/><path class="cls-3" d="M134.933,79.216c.639,1.516,1.059,3.07,1.593,4.569q.382,1.131.849,2.225c.16.361.321.734.5,1.085a1.9,1.9,0,0,0,.745.886,1.791,1.791,0,0,1-1.043-.688,9.253,9.253,0,0,1-.705-1.023,12.16,12.16,0,0,1-1.032-2.246A17.517,17.517,0,0,1,134.933,79.216Z"/><path class="cls-4" d="M123.073,69.243a2.718,2.718,0,0,1,1.99.456q.739.4,1.452.862a6.3,6.3,0,0,1,1.208.944,7.242,7.242,0,0,1,1.376,2.679"/><path class="cls-3" d="M123.073,69.243a2.489,2.489,0,0,1,2.12.2,18.242,18.242,0,0,1,1.857,1.03,4.153,4.153,0,0,1,1.48,1.642,6.447,6.447,0,0,1,.569,2.065c-.362-.611-.685-1.232-1.06-1.775a4.873,4.873,0,0,0-1.4-1.33c-.559-.382-1.16-.726-1.717-1.134A3.132,3.132,0,0,0,123.073,69.243Z"/><path class="cls-3" d="M113.608,56.984s-1.433.6-1.62.619a7.322,7.322,0,0,0-.758.114,6.737,6.737,0,0,0-1.052.3l-1.213.5c-.411.179-.819.321-1.223.467l-.571.207a2.185,2.185,0,0,0-.472.233,1.929,1.929,0,0,0-.758.783,1.487,1.487,0,0,1,.131-.281,2.294,2.294,0,0,1,.54-.621,2.339,2.339,0,0,1,.462-.309l.536-.278c.365-.188.78-.4,1.165-.63l1.143-.66a7.475,7.475,0,0,1,1.1-.481,8.358,8.358,0,0,1,.824-.237l.316-.066Z"/><path class="cls-3" d="M82.084,50.313s-3.95,1.8-6.351,3c-2.409,1.176-4.693,2.608-4.693,2.608S73.189,54.3,75.507,52.9c1.154-.7,2.338-1.36,3.24-1.827l1.511-.761Z"/><path class="cls-3" d="M104.569,54.905s-1.721-.1-1.8-.156a1.161,1.161,0,0,0-.263-.121,2.269,2.269,0,0,0-1.268.083,16.687,16.687,0,0,0-1.944.828c-.719.334-1.485.692-2.251,1.049-1.53.719-3.049,1.462-4.176,2.043l-1.869.989,1.8-1.117c1.085-.659,2.552-1.508,4.032-2.333L99,54.966a16.9,16.9,0,0,1,1.98-1.006,3.092,3.092,0,0,1,1.742-.2,2.2,2.2,0,0,1,.53.2l.132.075Z"/><path class="cls-4" d="M112.219,62.729c-.009-.824.907-1.3,1.681-1.586a2.848,2.848,0,0,1,1.616-.254,2.554,2.554,0,0,1,1.319,1.042,11.9,11.9,0,0,1,2.305,8.674"/><path class="cls-3" d="M112.219,62.729a1.154,1.154,0,0,1,.3-.9,2.929,2.929,0,0,1,.765-.617,4.944,4.944,0,0,1,1.872-.641,2.3,2.3,0,0,1,1.823.992,11.834,11.834,0,0,1,1.091,1.6,10.464,10.464,0,0,1,1.068,7.441,15.007,15.007,0,0,0-.395-3.688,13.775,13.775,0,0,0-1.312-3.4,12.454,12.454,0,0,0-.988-1.524,1.827,1.827,0,0,0-1.29-.866,4.707,4.707,0,0,0-1.714.4C112.892,61.737,112.305,62.077,112.219,62.729Z"/><path class="cls-2" d="M94.01,120.986s-.011-2.089,1.75-1.7,1.761,3.148,1.761,3.148l-3.511-.789Z"/><path class="cls-1" d="M100.367,122.369s-1.059-2.128.362-3.089l1.421-.961.986,2.879A5.26,5.26,0,0,1,100.367,122.369Z"/><path class="cls-3" d="M36.785,96.035a3.085,3.085,0,0,1-.265-.172,6.051,6.051,0,0,1-.633-.527,9.7,9.7,0,0,1-1.732-2.242,13.035,13.035,0,0,1-.816-1.682,14.222,14.222,0,0,1-.633-1.974,24.747,24.747,0,0,1-.611-4.415,30.554,30.554,0,0,1,.072-4.432,17.564,17.564,0,0,1,.3-2.02,13.225,13.225,0,0,1,.518-1.754,15.51,15.51,0,0,1,1.643-3.372,15.483,15.483,0,0,0-1.5,3.419,12.958,12.958,0,0,0-.443,1.748,17.132,17.132,0,0,0-.214,2,30.157,30.157,0,0,0,.1,4.376,24.293,24.293,0,0,0,.763,4.281A13.546,13.546,0,0,0,34,91.129a12.367,12.367,0,0,0,.831,1.555A8.86,8.86,0,0,0,36.49,94.67a5.117,5.117,0,0,0,.555.427c.136.088,1.046.932,1.057.939Z"/><ellipse class="cls-6" cx="123.914" cy="74.986" rx="1.542" ry="1.895"/></svg>