<svg id="word" xmlns="http://www.w3.org/2000/svg" viewBox="0 0 160 160"><defs><style>.cls-1{fill:none;}.cls-2{fill:#5a5b5d;}.cls-2,.cls-3,.cls-4,.cls-5{stroke:#9c4c9c;stroke-miterlimit:10;stroke-width:0.567px;}.cls-3{fill:#231f20;}.cls-4{fill:#f7ea2f;}.cls-5{fill:#36b24a;}</style></defs><rect class="cls-1" x="14" y="14" width="132" height="132"/><path class="cls-2" d="M104.414,114.124a59.659,59.659,0,0,1-5.281-6.695,32.574,32.574,0,0,0-2.18-3.029c-1-1.168-2.211-2.152-3.273-3.269-1.789-1.882-3.144-4.123-4.963-5.978-2.97-3.029-6.956-4.81-11.05-6.073l27.7,28.6a3.25,3.25,0,0,0,.269-1.577A4.067,4.067,0,0,0,104.414,114.124Z"/><path class="cls-2" d="M71.58,79.35a5.141,5.141,0,0,0-.406-1.081A15.751,15.751,0,0,0,69.662,75.5a11.023,11.023,0,0,0-1.279-1.429c-1.389-1.333-2.989-2.434-4.47-3.668a12.991,12.991,0,0,1-3.665-4.376,7.686,7.686,0,0,1-2.191,2.8L71.331,82.535a13.523,13.523,0,0,0,.3-2.025A4.218,4.218,0,0,0,71.58,79.35Z"/><path class="cls-3" d="M34.388,41.135a2.272,2.272,0,0,0,.741,1.062c.428.415,1.04.865,1.556.6-.2.372-.8.326-1.059.655-.237.3-.068.76.19,1.063a4.393,4.393,0,0,1,.763.909,3.314,3.314,0,0,1,1.355-.814,1.624,1.624,0,0,1,1.53.346.984.984,0,0,1,.024,1.419c-.391.308-1.044.23-1.35.619l2.5,2.482a16.084,16.084,0,0,1,2.416-1.946l-7.777-8a2.7,2.7,0,0,0-.5.417A1.381,1.381,0,0,0,34.388,41.135Z"/><path class="cls-2" d="M147.55,119.989a3.673,3.673,0,0,0-2.851-1.165,24.24,24.24,0,0,1,2.189,8.592c0,.092,0,.184.007.276a6.55,6.55,0,0,0,.695-.3C150.949,125.637,149.985,122.836,147.55,119.989Z"/><path class="cls-4" d="M119.225,122.754c-3.918-.257-6.929-3.967-6.929-3.967L43.049,47.53a16.084,16.084,0,0,0-2.416,1.946l-2.5-2.482c.306-.389.959-.311,1.35-.619a.984.984,0,0,0-.024-1.419,1.624,1.624,0,0,0-1.53-.346,3.314,3.314,0,0,0-1.355.814,4.393,4.393,0,0,0-.763-.909c-.258-.3-.427-.762-.19-1.063.259-.329.864-.283,1.059-.655-.516.265-1.128-.185-1.556-.6a2.272,2.272,0,0,1-.741-1.062,1.381,1.381,0,0,1,.386-1.191,2.7,2.7,0,0,1,.5-.417L13.337,16.955,11.366,20.61,58.057,68.827a7.686,7.686,0,0,0,2.191-2.8A12.991,12.991,0,0,0,63.913,70.4c1.481,1.234,3.081,2.335,4.47,3.668A11.023,11.023,0,0,1,69.662,75.5a15.751,15.751,0,0,1,1.512,2.769,5.141,5.141,0,0,1,.406,1.081,4.218,4.218,0,0,1,.047,1.16,13.523,13.523,0,0,1-.3,2.025l6.336,6.545c4.094,1.263,8.08,3.044,11.05,6.073,1.819,1.855,3.174,4.1,4.963,5.978,1.062,1.117,2.27,2.1,3.273,3.269a32.574,32.574,0,0,1,2.18,3.029,59.659,59.659,0,0,0,5.281,6.695,4.067,4.067,0,0,1,1.221,1.983,3.25,3.25,0,0,1-.269,1.577l.719.742s5.986,7.856,12.136,10.941a7.69,7.69,0,0,0,.993.4l.023-7.012Z"/><path class="cls-5" d="M144.7,118.824a11.405,11.405,0,0,0-7.1,2.851c-1.291,1.508-14.431,1.335-18.362,1.079l-.023,7.012c6.645,2.232,23.141-.367,27.681-2.074-.005-.092,0-.184-.007-.276A24.24,24.24,0,0,0,144.7,118.824Z"/></svg>