<svg id="word" xmlns="http://www.w3.org/2000/svg" viewBox="0 0 160 160"><defs><style>.cls-1{fill:#231f20;}.cls-2{fill:#5c5a6a;}.cls-3{fill:#e2e3e4;stroke:#9d4b9c;stroke-width:0.976px;opacity:0.74;}.cls-4{fill:#43414f;}.cls-5{fill:#fff;}</style></defs><path class="cls-1" d="M100.017,72.129s.363-2.169,3.265-7.506,11.61-12.511,11.61-12.511l-8.711,9.872-5.66,10.376Z"/><path class="cls-1" d="M101.482,72.769c.553.243,1.082-.36,1.348-.867l2.6-4.964a18.224,18.224,0,0,1,2.151-3.444,15.926,15.926,0,0,1,3.455-2.859A45.113,45.113,0,0,1,123.765,54.9l-4.635,2.278-7.89,4.374-4.888,5.059L103.437,72.7l-1.029.772-.772-.429"/><path class="cls-2" d="M74.075,60.786s-9.433,5.171-16.327,8.674-13.6,12.51-15.42,16.847S38.7,96.482,38.7,96.482s9.252-.333,14.694-2.335S64.642,84.806,66.637,79.8s5.08-10.842,6.713-11.843,3.084-1.668,3.084-2.169-.363-5.671-.363-5.671Z"/><path class="cls-2" d="M92.216,61.787s-10.34-5.505-14.15-3.837-5.986,7.34-2.54,13.678S90.039,78.134,92.4,75.465,96.57,63.789,92.216,61.787Z"/><path class="cls-3" d="M78.792,59.452S67,46.441,63.553,43.272,56.116,34.431,56.3,32.1s2.177-2.336,5.987.166,12.88,9.508,15.964,13.845S84.914,60.1,84.914,60.1Z"/><path class="cls-3" d="M79.036,60.953S50.373,51.278,45.112,47.775,24.794,34.264,26.79,27.926s18.685.5,27.393,4.67S82.941,60.011,82.941,60.011Z"/><path class="cls-4" d="M101.468,69.627s-7.438-2.336-8.889.834-1.633,6.839.907,9.341,10.522,3,11.792,1.167S106.548,74.8,101.468,69.627Z"/><path class="cls-1" d="M50.311,109.493l-.363-4.337s7.437-7.172,8.707-8.006,10.159-7.673,10.159-7.673L82.6,65.29l-.907,8.674s-1.325-.746-1.068-1.6a5.32,5.32,0,0,0,.257-1.372L69.821,90.454,54.3,102.2l-3.516,3.515Z"/><path class="cls-1" d="M30.9,101.987l2.177-3.169L55.209,80.969,70.991,57.617l5.624,11.509a3.854,3.854,0,0,1-1.906-1.14c-.686-.857-3.259-7.632-4.2-7.117S56.1,81.621,56.1,81.621L34.833,98.6Z"/><path class="cls-4" d="M98.928,81.3l.907,3.336,2.177.5-.725,2.335,2.177-1,11.978,15.557s6.5,10.486,7.8,10.131-17.959-31.193-17.959-31.193Z"/><polygon class="cls-1" points="99.654 117.166 99.654 115.498 83.69 96.816 90.039 68.459 84.053 76.466 85.343 76.648 88.172 72.96 82.684 97.057 98.463 115.838 99.654 117.166"/><polygon class="cls-1" points="106.234 112.163 105.871 109.661 89.726 91.813 94.08 80.137 94.861 80.85 90.745 91.397 106.695 108.806 106.953 112.407 106.234 112.163"/><path class="cls-1" d="M80.969,78.3l-6.35,12.844-11.791,13.01-.363,3.837s1.182.385,1.182-1.33,1.715-3.688,1.715-3.688S75.566,91.14,75.91,91.14s5.831-12.348,5.831-12.348Z"/><ellipse class="cls-5" cx="96.933" cy="76.633" rx="1.633" ry="2.002"/><ellipse class="cls-1" cx="97.233" cy="77.147" rx="1.161" ry="1.144"/></svg>