<svg id="word" xmlns="http://www.w3.org/2000/svg" viewBox="0 0 160 160"><defs><style>.cls-1{fill:#8ea654;}.cls-1,.cls-2,.cls-3,.cls-5,.cls-6,.cls-7,.cls-8,.cls-9{stroke:#9c519e;}.cls-1,.cls-2,.cls-3,.cls-4,.cls-5,.cls-6,.cls-7,.cls-8,.cls-9{stroke-miterlimit:10;}.cls-1,.cls-2,.cls-3,.cls-4,.cls-5,.cls-6{stroke-width:0.75px;}.cls-2{fill:#d38d5c;}.cls-3{fill:#abbb4a;}.cls-4{fill:none;stroke:#93665f;stroke-linecap:round;}.cls-5{fill:#bec043;}.cls-6{fill:#bcc043;}.cls-7{fill:#d4bb80;}.cls-7,.cls-8,.cls-9{stroke-width:0.5px;}.cls-8{fill:#d7c66e;}.cls-9{fill:#8d8c56;}.cls-10{fill:#9c519e;}.cls-11{fill:#fff;opacity:0.46;}</style></defs><path class="cls-1" d="M57.474,30.349a2.6,2.6,0,0,0-1.723-2.64c-1.926-.715-4.151.605-4.151.605a4.319,4.319,0,0,0-2.49-.849c-1.283.077-.739,1.439-.739,1.439s-5.69.371-6.749,1.544.729,3.837.729,3.837-4.427.735-4.225,2a23.4,23.4,0,0,0,.561,2.49s-.878.55.284,1.452a6.011,6.011,0,0,0,2.091,1.117s-2.886-.269-3.383.328a3.262,3.262,0,0,0-.4,1.891s-3.781-1.095-4.478,0a5.976,5.976,0,0,0-.824,2.3s-1.92,3.367-.522,4.339a5.744,5.744,0,0,0,3.148.9s-1.146,3.024-.2,2.592,2.919-.048,2.279.521-.024.654-1.348.856-3.39.524-3.949,1.158-1.517,1.734-1.517,1.734-3.073-1.885-4.783-.811-2.23,3.3-2.78,3.843.294,1.174-.511,1.34-.947-.315-2.016,2.153a20.92,20.92,0,0,0-1.37,4.119,5.867,5.867,0,0,0-1.95,4.031c.038,2.323,1.436,3.8,1.825,2.472s1.184-1.433,2.411-.912,1.636,1.858,3.9.937,1.99-1.5,2.955-1.1,2.05.812,1.981-.3a5.935,5.935,0,0,1,1.168-2.793l2.024,3.562s.142-.69-.456.237.17-.286-1.485.634a8.319,8.319,0,0,1-3.3,1.3c-2.005.51-2.668,1.162-2.549,2.4l.12,1.241s-1.723,3.057-.275,4.689a3.883,3.883,0,0,1,.795,3.624c-.007.231-.664,1.939,1.271,2.1a3.5,3.5,0,0,0,2.645-.518l1.742.277s1.8-2.338,2.392-3.221a1.062,1.062,0,0,1,1.777-.1c.373.4-.431,2.3-.431,2.3s-1.7,1.141-.636,1.841a8.685,8.685,0,0,0,3.024.935s-4.089,3.557-2.792,4.536,3.306-.108,3.306-.108-.953,3.2.494,4.174,3.6.089,3.6.089-3.6,3.216-1.523,5.475a4.079,4.079,0,0,0,4.209,1.535,25.327,25.327,0,0,0,3.969-1.867s-.112,2.528,2.079,2.784a3.458,3.458,0,0,0,3.1-.844s1.725,2.2,2.718,2.045a5.12,5.12,0,0,0,1.788-.674s3.191,1.339,5.029,0a11.049,11.049,0,0,0,2.942-3.616l1.479-2.324s1.059-1.105,1.448-1.175A55.285,55.285,0,0,0,73.6,98.519s5.864-2.822,6.677-.534,4.22,5.234,5.877,4.764c0,0,5.7-6.455,5.779-8.346s4.133-2.587,4.133-2.587l2.916-.3s-1.879,3.084,0,4.378,5,.877,5,.877l3.638-2.683s.713,2.622,1.706,2.83a2.763,2.763,0,0,0,1.741-.194s-.43,1.744.535,1.721a9.489,9.489,0,0,0,2.209-.425A1.724,1.724,0,0,0,115.074,100c1.514.323,2.374.515,2.374.515a27.5,27.5,0,0,0,4.275.34c2.119-.025,4.162-2.274,4.162-2.274a2.5,2.5,0,0,0,2.211-.063,7.766,7.766,0,0,1,1.751-.861s1.22,2.186,3.238,1.423a10.482,10.482,0,0,1,2.429-.762s2.34.708,3.2-.449l.859-1.156s3.234-1.4,2.715-2.513,3.667-.718,3.985-1.429,1.864-1.188,2.126-2.306l.262-1.117s2.847-2.676,2.361-3.748a11.882,11.882,0,0,0-.887-1.656s2.307-4.232.285-5.163a61.07,61.07,0,0,0-5.827-2.085s1.25-4.506-.225-6.067-2.017-1.426-2.017-1.426,2.31-1.4,1.219-2.11a10.5,10.5,0,0,0-2.133-1.059s1.446-.194.241-.842l-1.2-.649s.738-2.126-1-2.481a8.634,8.634,0,0,0-2.635-.229s3.474-2.956,1.672-3.948a7.819,7.819,0,0,1-2.644-2.3s1.579-1.662-.186-2.754-.888-1.77-1.4-2.812,1.092-.931-.583-1.57-2.3-1.082-1.854-1.837l.445-.754s.325-3.071-1.595-3.4l-1.92-.329s-1.518-3.275-4.415-4.109-5.658,2.768-5.658,2.768-2.228.076-2.67.173a7.229,7.229,0,0,0-1.615,1.178s1.752-5.953-3.81-7.045-4.752.08-4.752.08a14.279,14.279,0,0,0-2.327-1.544c-.712-.263.924-3.582-.495-4.713s-1.5-5.081-4.562-5.594a14.6,14.6,0,0,0-7.236.792,6.43,6.43,0,0,1-1.008.544s-5.24.935-5.662,1.567.48,1.953.48,1.953a2.852,2.852,0,0,0-1.471,1.378c-.457,1-1.064-1.018-1.7-2.1a10.623,10.623,0,0,0-2.256-2.856c-.517-.26-2.582-2.542-4.291-1.413a6.762,6.762,0,0,0-2.208,2.063,3.691,3.691,0,0,1-2.447.358c-1.441-.264-1.743,1.848-1.743,1.848a16.134,16.134,0,0,0-2.892,1.106c-.706.473-.686-.233-2.378.065s-2.035.753-2.035.753-.544-.633-2.016.285S57.474,30.349,57.474,30.349Z"/><path class="cls-2" d="M65.538,38.137s.864,3.052,1.575,2.959.849.242-.233.555-2.558,2.2-3.256,1.731-1.442-1.365-2.6-.842a8.128,8.128,0,0,1-2.709.554,4.212,4.212,0,0,1,2.862.512c1.08.828,1.545,1.75,2.63,1.64s2.486-1.072,3.29-1.323,1.192-1.129,2.485-.36,1.269,1.819,2.346,1.8,2.922-1.711,4.121-.605,2.365,4.078,2.645,5.4.649,3.1.649,3.1l2.9.49s-.909-4.636-1.934-5.258-1.819-4.138-2.476-5.34a9,9,0,0,1-.285-4.489c.149,0-1.569-.353-1.569-.353s-.207,1.363-.46,2.52a14.679,14.679,0,0,0-.306,1.954s-1.143,1.14-1.769.368-3.473-1.572-4.423-2.471a5.225,5.225,0,0,1-1.26-2.409Z"/><path class="cls-2" d="M96.651,36.5s-2.383,3.981-1.885,5.489a21.251,21.251,0,0,1,1.008,3.668,24.853,24.853,0,0,1,.007,3.878c-.155.71-.939,3.091-.939,3.091l3.708.948a10.481,10.481,0,0,1-.441-4.433c.427-1.671.809-1.158,1.745-2.874a10.331,10.331,0,0,1,2.583-2.931l-1.453-.979s-.814,3.136-2.416,2.2-1.119-2.989-1.12-3.958.1-3.468.1-3.468Z"/><path class="cls-2" d="M80.528,72.958s-.358,5.768-.961,6.745-.747,5-.747,5.038.67,1.966-.447,1.664-.054-.773-1.194-1.155-1.464-.416-1.656-1.07-1.378-.822-1.428-1.874a4.349,4.349,0,0,0-1.652-2.974c-1.122-1.108-3.23-2.975-3.23-2.975l-2.332-.684-1.7,4.535,4.607,3.45a11.312,11.312,0,0,0,3.4,3.226c1.669.748,4.278,1.279,3.834,2.72s-2.473.362-.969,2.778,1.253,2.755,1.122,3.588-.489.17-1.929.2-1.641.806-2.816.838S70.086,99.8,70.086,99.8s-1.862.687-3.66,1.388-3.88.881-4.717,1.377-5.105,3.3-5.105,3.3a36.341,36.341,0,0,0,4.77-.509,11.037,11.037,0,0,1,4.6-1.045c1.955.092,3.974.058,4.6-1.256s.055-.794,1.462-1.765,1.642-2.915,2.686-2.439a3.853,3.853,0,0,0,2.756.329c1.5-.156.654,2.229.393,3.722a5.128,5.128,0,0,0,.411,3.452c.423.589-1.069,3.424-.231,5.991s.49,5.38,1,7.057a15,15,0,0,1,.491,5.716c-.212,1.894-2.7,1.715-2.919,3.279s-.508,1.562-1.884,2.16-4.657,2.906-4.911,3.711a3.407,3.407,0,0,1-2.94,1.977c-1.716.245-2.969.529-2.969.529s2.823.727,4.654,0a17.409,17.409,0,0,1,5.428-1.065c.946.035-.044,1.62,2.731,1.065s2.88-1.985,5.137-1.806,5.57.5,6.588.7,1.395-2.923,3.345-2.168,4.56.936,4.524,1.368,1.315,1.1,2.86.766.939-.243,3.8.346a21.709,21.709,0,0,0,4.788.508s-3.019-1.175-5.438-2.248-1.679-1.859-3.283-3.976-2.112-1.632-3.108-3.26-1.219-5.765-1.444-7.971.746-3.881.821-4.627.224-5,.224-5,2.611-2.1,2.391-3.429a5.855,5.855,0,0,0-2.443-3.549c-1.067-.63-.554-4.66-.554-4.66s2.952-3.86,3.892-4.393a24.349,24.349,0,0,1,3.6-1.266s.5.958,2.514.66,1.315-2.3,1.315-2.3l3.686-.94,2.35-1.708s3.418.032,3.952.116a4.439,4.439,0,0,0,3.015-.34c1.19-.683,2.431-2.6,3.017-2.344a7.4,7.4,0,0,0,2.393.013s1.359-2.034.666-2.417a4.2,4.2,0,0,0-2.146-.1s-2.466,1.149-3.3,1.369-1.777.428-1.777.428a5.912,5.912,0,0,0-2.266-.4,17.886,17.886,0,0,1-2.261.36s-1.115-1.449.939-2.788a14.849,14.849,0,0,0,3.552-3.508l-.614-1.9s-1.7,3.378-2.3,3.007-2.527.6-2.733,1.444a8.286,8.286,0,0,1-2.172,3.171c-.666.449-2.546,1.5-2.852,1.77a3.61,3.61,0,0,1-.926.489l-5.4,1.8s-1.323.65-1.694.345-.753-.461-.079-1.616,1.022-1.871,1.022-1.871l3.042-1.6.149-1.213s-1.544.792-1.929,1.059-1.379.705-1.666,1.152-.906,1.578-.906,1.578-1.323.8-1.826,1a5.4,5.4,0,0,0-2.357,1.116c-.912.851-1.773,2.816-2.289,2.389s-1.787-1.273-1.42-2.422-.391-1.386-.391-1.386a48.506,48.506,0,0,1,1.591-4.643,15.156,15.156,0,0,1,2.594-2.9s2.861-1.8,3.716-1.877,3.09-1.95,3.09-1.95a10.556,10.556,0,0,0,3.139-.711,7.916,7.916,0,0,0,3.887-3.128l-.383-.611s-1.968,2.464-3.185,2.453-3.224.046-2.851-.827a6.659,6.659,0,0,0,.363-2.195h-1.266s-.436,1.339-.724,2.024.777,1.513-.481,1.747-.833-.465-1.259.234a8.713,8.713,0,0,1-1.349,1.524,4.14,4.14,0,0,0-2.537-.082c-1.336.409-2.755.785-2.755.785l.747-3.37s-.421-2.2-1.143-2.257a36.93,36.93,0,0,0-8.343-.877C79.865,70.076,80.528,72.958,80.528,72.958Z"/><path class="cls-3" d="M89.443,34.485s2.067,3.546,3.27,2.818,2.825-1.777,2.825-1.777-.511,1.844,1.117,2.2a2.494,2.494,0,0,0,2.534-1.186s-.56,2.558.426,3.183-.756,1.336.418,2.3.93,2.557,1.968,2.173a16.538,16.538,0,0,1,2.863-.61s-.852,1.9,1.663,2.292,2-.308,2-.308-.414,1.647,1.993,1.212a2.351,2.351,0,0,0,1.93-2.839,6.552,6.552,0,0,0,2.987-2.05c.774-1.292-.345-4.264-.867-5.39s-3.732-2.073-5.523-2.495a10.428,10.428,0,0,0-3.857,0,41.323,41.323,0,0,0-.769-4.675c-.373-1.194-1.572-2.164-1.719-3.358s-3.654-5-5.818-4.4A31.5,31.5,0,0,0,92.09,23.5a7.728,7.728,0,0,0-4.187-.2c-1.919.593-2.725,3.22-2.725,3.22s-2.357,1.29-1.612,3.052a5.623,5.623,0,0,0,3.357,2.679C86.805,32.019,87.305,35.086,89.443,34.485Z"/><path class="cls-3" d="M79.417,54.107a2.734,2.734,0,0,1,1.742-1.492c1.243-.3,4.321.507,4.321.507s.722-3.969,3.052-3.231a4.554,4.554,0,0,1,2.957,2.425,9.24,9.24,0,0,1,4.942-.588,4.125,4.125,0,0,1,3.35,2.961,1.159,1.159,0,0,1,1.719.259,1.243,1.243,0,0,1,0,1.771,1.94,1.94,0,0,1,2.223,1.286c.544,1.624-1.286,1.774-1.286,1.774s3.332.513,2.208,2.57a5.285,5.285,0,0,1-3.736,2.355s-1,2.388-2.04,1.492-3.681,1.542-4.975,0"/><path class="cls-3" d="M141.876,91.717a4.791,4.791,0,0,1-3.507,1.755c-2.148-.015-4.167-3.537-4.167-3.537a7.1,7.1,0,0,1-1.952,1.483c-1.36.756-4.555-.553-5.536-2.092a1.806,1.806,0,0,1,.686-2.534s-1.105.075-2.734-1.529.348-3.665.348-3.665a4.891,4.891,0,0,1-3.3.276c-2.1-.433-.816-1.666-.816-1.666s-1.622.4-2.259-.431-1.8-2.72-1.693-4.143,4.334-1.068,4.334-1.068-2.61-3.806-.62-4.745,1.144,1.8,1.144,1.8,2.487-5.473,6.417-4.08,3.062,2.736,3.062,2.736,5.4-4.228,8.629-1.442,2.438,3.88,2.438,3.88,3.582-.938,4.676,1.8-.249,4.125-.249,4.125,1.941.4,1.344.945a4.65,4.65,0,0,1-1.741.814s1.969.778,1.855,1.574-1.607.15-1.607.15,6.965,5.422,5.224,7.661-5.771-1.642-5.771-1.642.05,2.139-.945,1.692a2.489,2.489,0,0,1-1.294-1.344s.9,2.084.15,2.211-1.543-1.066-1.543-1.066S144.438,93.906,141.876,91.717Z"/><path class="cls-3" d="M34.793,78.882a6.5,6.5,0,0,0-3.208.43c-1.045.653-.672,3.6-.672,3.6s-3.657-.342-3.657,1.641,2.911.7,2.911.7a2.387,2.387,0,0,0,1.567,2.512c1.791.6,2.537-3.955,2.609-2.512s3.068,1.544,3.883,1.02A9.23,9.23,0,0,0,40.1,83.824s2.163.885,3.226.49.872-2.288.872-2.288,2.572,1.649,4.283,1.255a1.519,1.519,0,0,0,1.11-2.077s.516-.274,2.122-1.2-.57-1.709.136-2.457,2.41,1.244,2.41,1.244a1.21,1.21,0,0,0,.825.936c.737.246,2.166-.563,2.166-.563s-.535.243.375,1.374,3.028.681,3.028.681a1.456,1.456,0,0,0-.382,2.47c1.372,1.671,4.245-.32,4.245-.32a6.11,6.11,0,0,0,.853,1.883c.562.729,2.08-1.383,2.08-1.383a3.459,3.459,0,0,0,1.563,1.465c1.019.412,2.886-1.594,2.555-3.017s-2.5-1.47-1.947-2.4-2.14-2.37-2.14-2.37,1.568-.422,3.557-1.188-1.244-3.445-1.244-3.445a20.484,20.484,0,0,0,.92-4.477c.05-1.791-3.459-4.464-4.018-4.62a10.96,10.96,0,0,0-2.3,0s.548-2.146-2.089-4.633-9.552-.922-9.552-.922a.939.939,0,0,0-1.194-.869c-1.094.248-.9,1.144-.9,1.144s-2.438-2.289-4.477-1.493a2.08,2.08,0,0,0-1.493,2.538s-3.084-2.09-4.925-.548.3,3.085.3,3.085-5.97,3.432-5.522,5.323a3.579,3.579,0,0,0,1.343,2.381s-3.035,1.1-1.542,2.743a3.727,3.727,0,0,0,2.885,1.492S34,75.25,34.445,76.693A5.711,5.711,0,0,1,34.793,78.882Z"/><path class="cls-3" d="M102.849,67.218s-3.284.861-1.965,2.656,4.073-1.14,4.073-1.14,1.474,1.263,2.22,1.054a2.438,2.438,0,0,0,1.222-1.109,1.806,1.806,0,0,0,.668,2.989,2.638,2.638,0,0,0,3.532-.938,3.418,3.418,0,0,0,2.544.137c1.12-.532,3.177-1.765,3.078-2.022s1.435-.725,1.435-.725,1.108-1.931,1.241-2.222,2.7,1.044,5.731-.548,1.543-3.681,1.543-3.681,2.125-.1,2.853-1.393-.316-3.98-.316-3.98"/><path class="cls-4" d="M92.093,119.134a2.919,2.919,0,0,1,.29.581c1.1,2.885-.649,6.308.557,9.151.854,2.012,3,3.232,3.921,5.214"/><path class="cls-4" d="M95.386,126.254c-.185-.013-.28.215-.313.4a10.659,10.659,0,0,0-.151,1.234,2.569,2.569,0,0,0,.171,1.3,2.822,2.822,0,0,0,.75.852,6.008,6.008,0,0,0,1.5,1.027c.787.338,1.793.431,2.221,1.172"/><path class="cls-4" d="M79.674,107.316c-.136,5.287,3.057,5.848,2.385,11.343-.534,4.347-3.664,8.372-2.635,13.14a5.9,5.9,0,0,0,.989,2.3"/><path class="cls-4" d="M82.561,104.328c-1.293,2.613-.674,6.937,2.893,7.491,4.067.632,2.149-7.125,1.166-9.611,0,0-1.382-1.611-.636-5.864a26.456,26.456,0,0,1,3.585-8.528"/><path class="cls-4" d="M94.714,102.893a.773.773,0,0,0-.656.387,1.95,1.95,0,0,0-.239.754,6.535,6.535,0,0,0,.075,2.654,4.115,4.115,0,0,0,1.4,2.224"/><path class="cls-4" d="M94.075,101.728a4.478,4.478,0,0,1-.535,1.374,8.374,8.374,0,0,0-1.261,3.853c.023,1.95,1.372,3.6,2.65,5.073"/><path class="cls-4" d="M92.861,102.8a38.516,38.516,0,0,0-1.678,4.355c-.586,1.847-1.026,3.88-.333,5.69.545,1.424,1.726,2.522,2.341,3.918a5.472,5.472,0,0,1,.345,3.3"/><path class="cls-4" d="M91.023,103.11a5.061,5.061,0,0,0-1.134,2.31c-.422,1.545-.5,3.106-.808,4.661-.242,1.221-1.052,2.289-1.356,3.539a13.785,13.785,0,0,0,.825,8.938c1.16,2.527,3.131,4.822,3.25,7.6A6.033,6.033,0,0,1,91.22,133"/><path class="cls-4" d="M81.015,107.094a8.348,8.348,0,0,0,.939,5.525,13.8,13.8,0,0,1,1.351,2.947c.682,2.882-1.486,5.733-1.354,8.692.142,3.188,2.919,5.908,2.693,9.091"/><path class="cls-4" d="M96.135,104.516a.759.759,0,0,0-.629.61,1.326,1.326,0,0,0,1.655,1.613"/><path class="cls-4" d="M79.336,100.086a2.5,2.5,0,0,1,.848,2.131,4.332,4.332,0,0,1-.272,1.748,2.057,2.057,0,0,1-1.239,1.2"/><path class="cls-4" d="M83.834,104.331a2.516,2.516,0,0,0,3.049,2.92"/><path class="cls-4" d="M85.618,74.781c-.168,3.982-2.953,7.421-3.531,11.365a40.422,40.422,0,0,0-.114,5.094,12.857,12.857,0,0,0,.236,4.113c.579,1.841,2.231,3.386,2.124,5.314"/><path class="cls-4" d="M86.8,73.658a20.87,20.87,0,0,1-1.894,9.21,13.6,13.6,0,0,0-.932,2.5c-.537,2.513.719,5.075,2.318,7.087"/><path class="cls-4" d="M92.166,90.694A4.391,4.391,0,0,0,93,94.651a4.549,4.549,0,0,0,2.156,1.64"/><path class="cls-4" d="M91.219,90.043a4.545,4.545,0,0,0-.615,2.516,7.808,7.808,0,0,0,.313,3.257,6.974,6.974,0,0,0,.819,1.406,8.02,8.02,0,0,0,2.315,2.392"/><path class="cls-3" d="M68.023,67.688s-1.613,2.538-.258,3.956,5.562-1.022,5.562-1.022-.312,1.237,1.658,1.5,2.4-2.1,2.4-2.1A2.4,2.4,0,0,0,78.9,72.688c1.94.97,6.33-.443,6.33-.443a4.2,4.2,0,0,0,1.787,1.189c1.008.279.487,1.193,2.027.971a13.944,13.944,0,0,0,3.356-1.1s-.1,1.542,1.709,1.134,3.059-4,3.059-4,1.955-.09,2.1-1.233-2.094-2.865-2.094-2.865l-.242-1.075s3.626-2.65,2.048-4.59-4.049-.6-4.049-.6-3.234-.134-3.574.742-.7.369-2.117-.764.652-2.983-2.06-4.531-3.4-1.725-5.317-1.947-4.286-.9-7.358,0A4.7,4.7,0,0,0,71.1,57.3s-3.622.313-4.294,2.4,1.866,4.111,1.866,4.111S65.06,65,68.023,67.688Z"/><path class="cls-3" d="M62.155,37.442a3.712,3.712,0,0,0,3.084.9c1.592-.448,1.891-.9,1.891-.9s.945,1.426,2.139.986a2.1,2.1,0,0,0,1.393-1.384s.4,1.12,2.089.734,2.935-2.525,2.935-2.525l-3.034-3.582s-3.234-2.641-4.876-2.488S63,30.029,63,30.925s-2.289,1.243-2.04,2.089-1.045,1.542-.348,1.99-1.941.311-.9,1.5A2.792,2.792,0,0,0,62.155,37.442Z"/><path class="cls-5" d="M87.327,36.5s-.97,2.232-2.688,2.155-1.218-.521-1.218-.521-1.625,1.349-2.893,1.22-.622-1.564-.622-1.564A3.441,3.441,0,0,0,78.07,39.1c-.607.979-3.567-1.139-5.166-1.7s.627-2.754.627-2.754a10.983,10.983,0,0,1-1.966.294c-1.133.07-.929-2.075-.929-2.075s.021.595-2.393,0a2.572,2.572,0,0,1-1.884-3.088s-1.247-1.99.334-2.736,2.321,0,2.321,0S71.1,24.95,72.1,25.1s1.443,2.289,1.443,2.289,2.537-2.388,5.323-1.642,2.985,5.024,2.985,5.024S83,28.487,86.581,29.78s1.741,3.035,1.741,3.035,1.145-.1.846.7a.968.968,0,0,1-1.045.67s.8.921.3,1.668A1.2,1.2,0,0,1,87.327,36.5Z"/><path class="cls-3" d="M102.545,67.312a2.129,2.129,0,0,1-.94-3.5c1.791-2.444,5.074-1.45,5.074-1.45a8.674,8.674,0,0,1,1.692-3.581c1.293-1.493,6.517-1.692,6.517-1.692l2.686.3a22.837,22.837,0,0,1,3.781-1.99c1.741-.647,4.726-1.741,4.925,0s.448.6,2.338.4,0,1.641,0,1.641l2.664.2"/><path class="cls-6" d="M132.6,54.306a2.589,2.589,0,0,1,0,2.239c-.547,1.343-2.975.807-2.975.807a4.98,4.98,0,0,1-2.049,2.775c-1.443.7-2.09-4.577-2.537-4.118s-3.126.471-3.126.471,1.981,3.945.712,5.882-2.765.992-2.765.992a4.687,4.687,0,0,1-1.786,1.9c-1.194.647-4.08-2.289-4.08-2.289s-.6,1.145-2.5.373-.105-4.218-.105-4.218-1.775.96-5.036-2.95,1.3-5.538,1.3-5.538-1.576-2.989.166-2.989,1.791,2.159,1.791,2.159.845-4.1,2.586-3.3a2.114,2.114,0,0,1,1.344,2.388s-.3-6.269,2.885-6.617,2.289,5.522,2.289,5.522,4.328-3.034,4.676-1.393a5.172,5.172,0,0,1-.846,3.4s4.03-3.7,5.124-1.264.149,3.135.149,3.135,4.085-2.687,3.46-.2,3.185-2.2,4.2.3S132.6,54.306,132.6,54.306Z"/><path class="cls-3" d="M55.911,40.3s2.643-.448,2.4.672a1.579,1.579,0,0,1-1.194,1.278s1.8-1.011,2.348.8S57.69,45.04,57.69,45.04,59.461,48.7,56.6,49.8s-3.9-1.065-3.9-1.065-2.985,2.3-4.179,1.377a5.371,5.371,0,0,1-1.642-2.2s-2.686-.363-2.836-1.973.971-1.609.971-1.609-5.3.7-5.373-1.493a4.653,4.653,0,0,1,1.418-3.473S38.9,36.957,40.241,36.5a1.454,1.454,0,0,1,1.865.74s.224-7.313,3.955-6.045,2.09,5.305,2.09,5.305,4.1-3.215,4.775-.753a2.657,2.657,0,0,1-1.641,3.284s2.686-2.761,4.029-1.567A2.51,2.51,0,0,1,55.911,40.3Z"/><path class="cls-3" d="M62.553,98.955s2.686,4.155-1.707,4.155a3.262,3.262,0,0,1-2.92-1.916s1.322,2.942,0,3.807a1.548,1.548,0,0,1-2.089,0s1.562,2.4,0,2.984-4.1-1.567-4.1-1.567-6,4.866-7.069,1.537,0-5.33,0-5.33-2.344-1.983-.473-2.789a1.7,1.7,0,0,1,2.467.831s-4.161-3.3-.746-5.443c2.761-1.731,4.266,2.537,4.266,2.537s1.032-5.221,4.913-4.289,2.014,2.349,2.014,2.349,4.105-2.089,4.328-.6-.97,1.642-.97,1.642,3.018-2.463,3.449-.224S62.553,98.955,62.553,98.955Z"/><path class="cls-7" d="M120.913,140.6s-.794,1.378.317,1.976,1.151-1.661,1.151-1.661Z"/><path class="cls-8" d="M116.185,125.821a11.436,11.436,0,0,0-.476,5.16c.616,2.595.64,8.871,6.2,9.884s8.366-12.652,8.366-12.652-1.861-1.259-4.118-2.988S116.185,125.821,116.185,125.821Z"/><path class="cls-9" d="M122.986,118.116a9.888,9.888,0,0,0-4.457,1.5,6.125,6.125,0,0,0-2.9,4.49,14.517,14.517,0,0,0,.037,3.319s3.586-3.02,7.339-2.2a16.9,16.9,0,0,1,6.967,3.928s1.482-.35,1.645-2.8c.307-4.585-2.376-7.657-4.162-7.833S122.986,118.116,122.986,118.116Z"/><path class="cls-9" d="M122.952,118.973a1.85,1.85,0,0,0,1.927.951c1.519-.069,1.29-1.991,1.538-3.087s-1.937-5.218-2.912-5.294a1.22,1.22,0,0,0-1.269.754s.81.271.956.827.993,2.274.922,3.3A6.771,6.771,0,0,1,122.952,118.973Z"/><path class="cls-10" d="M124.176,119.989a2.564,2.564,0,0,1,.2.311,1.248,1.248,0,0,0,1.145.761.846.846,0,0,0,.244-.054l.347-.077c.03.128.022.206-.091.252a1.493,1.493,0,0,1-1.341-.041,3.729,3.729,0,0,1-.53-.436c-.046.064-.1.125-.138.19-.132.2-.257.413-.394.613a1.178,1.178,0,0,1-.214.232.582.582,0,0,1-.989-.242c-.065-.166-.1-.342-.16-.551a1.67,1.67,0,0,0-.121.189,3.241,3.241,0,0,1-.664.919.754.754,0,0,1-1.25-.138,4.145,4.145,0,0,1-.337-1.236c-.022-.112-.03-.249.144-.26.107-.006.219.127.239.253.036.239.072.478.12.715a1.234,1.234,0,0,0,.1.3c.167.34.4.412.71.192a2.425,2.425,0,0,0,.923-1.206.963.963,0,0,1,.327-.58.337.337,0,0,1,.157.365,4.267,4.267,0,0,0,.01.6.838.838,0,0,0,.064.244c.143.362.331.412.619.156a2.456,2.456,0,0,0,.7-1.114A3.177,3.177,0,0,1,124.176,119.989Z"/><path class="cls-10" d="M126.553,122.463l.119.292c.078.2.144.4.236.587a.289.289,0,0,0,.468.133,1.294,1.294,0,0,0,.5-.516,1.4,1.4,0,0,1,.186-.293c.092-.106.18-.089.248.036.04.074.054.163.1.235a2.842,2.842,0,0,0,.307.473.594.594,0,0,0,.817.045c.13-.1.262-.2.439-.337,0,.1.011.154-.007.17a4.459,4.459,0,0,1-.567.5.728.728,0,0,1-1.071-.34,2.5,2.5,0,0,0-.133-.251c-.014-.024-.049-.035-.094-.065-.084.11-.166.216-.247.323a1.006,1.006,0,0,1-.562.391.582.582,0,0,1-.723-.3c-.04-.07-.081-.14-.147-.252-.147.152-.261.286-.392.4a.869.869,0,0,1-1.178.083.349.349,0,0,1-.186-.235c-.039-.185-.1-.365-.15-.549-.03-.114-.015-.224.124-.242.119-.016.16.074.171.181a1.7,1.7,0,0,0,.037.186c.116.52.551.593.978.314a.789.789,0,0,0,.442-.685C126.265,122.613,126.353,122.516,126.553,122.463Z"/><path class="cls-10" d="M119.955,123.551a3.992,3.992,0,0,1-1.076.473.986.986,0,0,1-1.044-.532c-.069-.111-.041-.151.178-.284.057.081.115.166.174.248a.708.708,0,0,0,.779.286,3.812,3.812,0,0,0,.616-.207A.351.351,0,0,1,119.955,123.551Z"/><path class="cls-10" d="M124.59,132.718c-.028.313-.046.627-.086.939-.09.7-.179,1.4-.293,2.1-.075.456-.19.906-.293,1.357-.082.359-.169.718-.261,1.074a6.58,6.58,0,0,1-.733,1.675.8.8,0,0,1-.239.249c-.058.039-.153.021-.232.029-.007-.088-.017-.175-.021-.263,0-.016.021-.036.036-.05a3.837,3.837,0,0,0,1.009-1.869q.409-1.492.716-3.013c.149-.737.221-1.49.327-2.236Z"/><path class="cls-10" d="M121,131.728a6.758,6.758,0,0,1,.19.757c.064.469.1.943.14,1.415s.058.968.1,1.45c.09.954.2,1.907.289,2.862a8.163,8.163,0,0,1,.024.977.713.713,0,0,1-.13.346.225.225,0,0,1-.212.063.25.25,0,0,1-.085-.208c.02-.2.092-.391.1-.588.012-.484.016-.97-.01-1.454-.047-.894-.121-1.787-.174-2.682-.024-.4,0-.793-.038-1.187-.037-.451-.113-.9-.167-1.349-.015-.133-.012-.268-.017-.4Z"/><path class="cls-10" d="M126.68,133.889c-.165.489-.311.985-.5,1.464-.274.7-.55,1.4-.876,2.069a5.373,5.373,0,0,1-1.312,1.883c-.111.092-.231.172-.336.25-.2-.126-.121-.236-.032-.333.158-.17.32-.337.488-.5a5.582,5.582,0,0,0,1.031-1.433,16.02,16.02,0,0,0,.994-2.222c.144-.405.32-.8.481-1.2Z"/><path class="cls-10" d="M118.15,133.324c.1.393.195.789.3,1.18a18,18,0,0,0,1.088,3.1,12.837,12.837,0,0,0,.768,1.3.909.909,0,0,0,.581.461c.075.015.137.1.207.155-.121.174-.241.166-.348.069a5.048,5.048,0,0,1-.586-.574,8.367,8.367,0,0,1-1.137-2.177,20.715,20.715,0,0,1-.608-2.058c-.133-.473-.227-.958-.339-1.437Z"/><path class="cls-10" d="M121.015,131.728l-.1-.306.08-.015c0,.107.007.214.011.321Z"/><ellipse class="cls-11" cx="119.135" cy="129.739" rx="1.778" ry="2.802"/></svg>