<svg id="word" xmlns="http://www.w3.org/2000/svg" xmlns:xlink="http://www.w3.org/1999/xlink" viewBox="0 0 160 160"><defs><style>.cls-1{fill:#f2d480;}.cls-1,.cls-10,.cls-11,.cls-12,.cls-13,.cls-14,.cls-16,.cls-17,.cls-2,.cls-3,.cls-4,.cls-5,.cls-6,.cls-7,.cls-8,.cls-9{stroke:#9d4b9c;stroke-width:0.586px;}.cls-2{fill:#d9b57a;}.cls-3{fill:#fce3da;}.cls-4{fill:#00adee;}.cls-5{fill:#d6de23;}.cls-6{fill:#f7ee6d;}.cls-7{fill:#81c6ed;}.cls-14,.cls-8{fill:#fff;}.cls-9{fill:#5a91cc;}.cls-10{fill:#fde2d4;}.cls-11{fill:#fde4d5;}.cls-12{fill:none;}.cls-12,.cls-14{stroke-linecap:round;}.cls-13{fill:url(#linear-gradient);}.cls-15{fill:#9d4b9c;}.cls-16{fill:#8b8bc3;}.cls-17{fill:#d67fb3;}</style><linearGradient id="linear-gradient" x1="5602.463" y1="-164.482" x2="5608.44" y2="-164.482" gradientTransform="matrix(-0.991, -0.133, -0.133, 0.991, 5609.541, 946.739)" gradientUnits="userSpaceOnUse"><stop offset="0" stop-color="#882922"/><stop offset="1" stop-color="#d24c56" stop-opacity="0"/></linearGradient></defs><polygon class="cls-1" points="23.098 115.084 6.487 118.366 22.415 122.837 25.601 117.47 23.098 115.084"/><polygon class="cls-2" points="21.961 96.298 22.415 122.837 60.645 128.205 60.645 97.791 21.961 96.298"/><polygon class="cls-2" points="60.645 97.791 85.22 92.721 85.22 118.066 60.645 128.205 60.645 97.791"/><polygon class="cls-1" points="85.22 92.721 38.799 92.124 21.961 96.298 60.645 97.791 85.22 92.721"/><polygon class="cls-2" points="68.923 99.8 69.377 128.699 107.608 134.543 107.608 101.424 68.923 99.8"/><polygon class="cls-2" points="107.608 101.424 132.182 95.904 132.182 123.503 107.608 134.543 107.608 101.424"/><polygon class="cls-1" points="132.182 95.904 85.761 95.256 68.923 99.8 107.608 101.424 132.182 95.904"/><path class="cls-2" d="M107.608,134.543l24.574-11.04s7.737,2.272,9.329,2.272h7.056L121.26,139.088Z"/><path class="cls-3" d="M60.623,56.165s-.5-.522-.783-.538a1.871,1.871,0,0,1-1.73-.2,8.477,8.477,0,0,0-1.258-.857,7.956,7.956,0,0,0-.9-.439c-.063.038-1.409.041-1.409.041s-1.23.025-1.255-.372,1.324-.771,1.545-.777a13.671,13.671,0,0,0,1.425-.4s-1.821.189-2.17.172-1.457-.352-1.416-.786.944-.342,1.3-.355,1.933-.17,1.933-.17a6.81,6.81,0,0,1-.8-.417c-.136-.113-.327-.1-.764-.224S52.335,50.3,52.4,49.78s1.065-.257,1.481-.125,1.345.023,1.611.128.792.3.792.3a5.311,5.311,0,0,0-.465-.626A8.921,8.921,0,0,1,54.6,47.814c-.064-.294-.044-.959.311-.972s.651.59.792.774,1.067,1.023,1.387,1.315,1.808,1.061,2.34,1.538,1.136.724,1.422,1.19.34.521.663.634.83.356.83.356a15.356,15.356,0,0,1-.722,2.407A5.225,5.225,0,0,1,60.623,56.165Z"/><path class="cls-3" d="M59.614,54.641a15.077,15.077,0,0,1-2.127-.994,3.486,3.486,0,0,0-1.378-.482c-.4-.079-1.566-.144-1.587-.855s1.156-.689,1.554-.637a8.7,8.7,0,0,0,1.5.114,5.378,5.378,0,0,1,1.281-.12,3.913,3.913,0,0,1,1.865.492,3.291,3.291,0,0,1,1.11.92"/><path class="cls-4" d="M74.611,47.211s-.567-.767-3.354,2.685c-2.348,2.907-5.926,3.8-8.051,2.683s-.781.671-2.124,1.341-3.355,2.907-1.677,3.915,1.788.334,2.348.558a12.356,12.356,0,0,0,8.5-1.788,20.368,20.368,0,0,0,5.032-4.921"/><path class="cls-5" d="M80.072,67.639s-10.052,7.51-10.134,9.1-1.461,3.327-3,6.1a7.041,7.041,0,0,1-3.675,3.4s-1.464,2.469-2.968,1.151-1.123-2.832.325-4.724,3.5-3.918,4.425-5.911.84-3.691,2.419-5.966,3.6-4.746,3.6-4.746"/><path class="cls-6" d="M63.727,85.714a1.81,1.81,0,0,1-.021,2.525c-.229.282-1.879,1.9-1.879,1.9s-2.7,1.657-3.29.824a18.968,18.968,0,0,1-1.324-3.822s1.143-.717,1.3-1.49,1.275-1.639,1.275-1.639-.4,1.777,1.157,2.266S63.31,86.478,63.727,85.714Z"/><path class="cls-7" d="M62.623,90.409s.132,3.4-2.024,3.664-3.712-.972-4.971-.918-4.594-1.852-5.141-2.63-2.068-3.454-1.337-4.382,1.356-.785,2.232-.4,2.862,1.732,3.6,1.55a5.139,5.139,0,0,1,1.705-.037s2.036-1.422,2.271-.093a7.2,7.2,0,0,1-.277,2.936l1.089.565a4.875,4.875,0,0,1,1.374-1.128,3.477,3.477,0,0,1,1.863-.06Z"/><path class="cls-8" d="M55.8,89.456a2.219,2.219,0,0,0-.16-1.466c-.373-.656-1.435-1.394-1.453-.8a3.476,3.476,0,0,0,.661,1.524S55.578,90.864,55.8,89.456Z"/><path class="cls-8" d="M57.007,89.4a5.373,5.373,0,0,0,.521-1.526c.022-.544-.135-.683-.569-.847a1.914,1.914,0,0,0-1.142.135s.095-.15.564.52.047,1.71.036,1.859S56.475,90.245,57.007,89.4Z"/><path class="cls-8" d="M61.841,93.327a6.581,6.581,0,0,1-2.07.341,9.472,9.472,0,0,1-2.979-.711c-.763-.462-2.057-.249-2.94-.769s-2.7-1.379-3.519-2.547a7.964,7.964,0,0,1-1.079-3.563s-.538-.232-.573,1.04a5.247,5.247,0,0,0,1.636,3.9c1.1.915,3.166,2.21,4.053,2.28a8.581,8.581,0,0,1,2.359.236,11.937,11.937,0,0,0,3.686.847C61.856,94.256,61.841,93.327,61.841,93.327Z"/><path class="cls-9" d="M63.008,89.475a1.925,1.925,0,0,0-1.482-.141c-.787.275-2.045,1.285-1.755,1.329s.8-.3,1.474-.329a5.009,5.009,0,0,1,1.353.159l.41-1.018"/><path class="cls-9" d="M50.333,89.641s-.42-1.389-.132-1.924,1.383-1.61.578-2.18c-.91-.645-1.525.541-1.525.541s.178,1.147.358,1.91A5.412,5.412,0,0,0,50.333,89.641Z"/><path class="cls-10" d="M97.359,60.024l1.482,1.624a3.359,3.359,0,0,0,.149,2.2c.511.992.332,1.762.053,2.019s-1.184,1.516-.148,1.783,1.875-1.76,2-2.162.392-1.146.966-.982,4.535,1.576,5.2,1.12.654-1.165-.049-1.261a20.239,20.239,0,0,1-3.124-1.318s3.935-.228,4.714-.448c1-.285.007-1.173.007-1.173l-4.242-.365s4.246-.123,4.393-.619c.233-.809-.686-1.013-1.119-.908a24.079,24.079,0,0,1-2.618.093s2.687-1.452,1.7-1.893c-.636-.284-2.19.669-2.19.669l-1.682.859a3.536,3.536,0,0,0-1.726-.028,3.529,3.529,0,0,1-1.24.3l-.57-.958Z"/><path class="cls-5" d="M88.048,66.327s1.786,9.475,3.19,10.228,2.94.7,4.786,3.283a20.807,20.807,0,0,1,2.528,4.469s1.608,2.38-.227,3.176-3.041-.2-4.13-2.315-4.085-3.549-5.49-5.237-3.658-1.906-5.039-4.306-6.221-7.8-6.221-7.8"/><path class="cls-11" d="M80.507,42.307s-.181,2.366-.272,3.878-1.812,5.2-3.628,4.444-1.452-3.783-1.452-3.783l.093-5.39"/><path class="cls-4" d="M80.961,45.048a5.424,5.424,0,0,1,4.9,4.921c.493,3.8,2.452,5.013,2.906,9.741.576,6.04.876,10.934.876,10.934s-6.929-3.075-8.564-2.506a19.387,19.387,0,0,1-7.213.355c-1.293-.355-3.74-.852-3.74-.852S71.815,62.9,71.815,60.7s1.023-6.98.751-8.257,1.161-5.3,1.161-5.3l1.43-1.149s-.154,3.438,2.31,2.886c2.754-.608,2.723-2.688,2.723-2.688l.139-1.307Z"/><path class="cls-11" d="M74.761,21.256s-3.3,4.09-3.759,5.413-.9,4.8-1.245,5.681-1.365,4.567-.139,7.307c.643,1.434,3.178,3.76,5.276,4.789a7.054,7.054,0,0,0,6.119-.465c2.826-1.89,6.09-7.856,6.367-10.187s-.221-8.951-2.855-10.7S76.5,20.268,74.761,21.256Z"/><path class="cls-12" d="M74.245,36.75c.478-.88,1.045-.745,1.56.226"/><path class="cls-13" d="M72.535,37.141a3.092,3.092,0,0,0,2.4,1.515,8.365,8.365,0,0,0,3.5-.559,9.144,9.144,0,0,0-1.047,1.509c-.407.78-1.759,1.906-2.859,1.293S72.535,37.141,72.535,37.141Z"/><path class="cls-14" d="M80.857,35.856s1.041-2.192-.605-2.6c-1.009-.25-2.688,1.113-1.725,2.482S80.857,35.856,80.857,35.856Z"/><path class="cls-14" d="M72.8,33.923s1.031-2.178-.6-2.58c-1-.252-2.665,1.1-1.712,2.457S72.8,33.923,72.8,33.923Z"/><path class="cls-12" d="M82.185,32.111a1.9,1.9,0,0,0-2.177-1"/><path class="cls-12" d="M73.837,30.113c-.151-.711-.906-.914-1.687-.68"/><path class="cls-6" d="M98.276,83.662a1.808,1.808,0,0,1,2.273,1.1c.155.327.912,2.512.912,2.512s.341,3.152-.661,3.324a19,19,0,0,1-4.021-.434,3.19,3.19,0,0,0-.794-1.811,3.864,3.864,0,0,1-.937-1.853,1.908,1.908,0,0,0,2.542-.078C98.7,85.223,98.788,84.364,98.276,83.662Z"/><path class="cls-7" d="M102.049,86.664s3.129,1.336,2.445,3.4-2.466,2.943-2.954,4.1-3.637,3.36-4.576,3.522-4,.392-4.533-.666-.128-1.56.592-2.188,2.79-1.845,2.94-2.592a5.111,5.111,0,0,1,.7-1.558s-.418-2.447.885-2.094a7.2,7.2,0,0,1,2.535,1.507l.977-.743a4.884,4.884,0,0,1-.431-1.724,3.467,3.467,0,0,1,.74-1.711Z"/><path class="cls-8" d="M98.272,92.422a2.211,2.211,0,0,0-1.4-.482c-.748.057-1.871.7-1.343.972a3.482,3.482,0,0,0,1.661.054S99.446,93.228,98.272,92.422Z"/><path class="cls-8" d="M98.734,91.309a5.459,5.459,0,0,0-1.158-1.123.7.7,0,0,0-1.011.151A1.95,1.95,0,0,0,96.2,91.43s-.09-.15.713-.289,1.567.689,1.7.764S99.27,92.152,98.734,91.309Z"/><path class="cls-8" d="M104.349,88.62a6.571,6.571,0,0,1-.575,2.016,9.421,9.421,0,0,1-1.916,2.39c-.745.491-1.1,1.752-1.95,2.327s-2.4,1.853-3.809,2.092a7.938,7.938,0,0,1-3.683-.547s-.438.387.7.965a5.262,5.262,0,0,0,4.223.188c1.3-.606,3.348-1.918,3.791-2.691a8.51,8.51,0,0,1,1.223-2.032,11.879,11.879,0,0,0,2.341-2.969C105.2,89,104.349,88.62,104.349,88.62Z"/><path class="cls-9" d="M101.367,85.917a1.927,1.927,0,0,0-.761,1.281c-.088.829.288,2.4.452,2.154s.07-.852.331-1.472a4.986,4.986,0,0,1,.724-1.157l-.746-.806"/><path class="cls-9" d="M96.1,97.445s-1.434-.211-1.8-.7-.863-1.941-1.723-1.458c-.973.55-.164,1.61-.164,1.61s1.113.33,1.883.494A5.326,5.326,0,0,0,96.1,97.445Z"/><path class="cls-15" d="M78.429,34.633c-.083.519.144.99.5,1.06s.718-.3.8-.82-.144-.992-.5-1.058S78.51,34.114,78.429,34.633Z"/><path class="cls-15" d="M70.251,32.645a.843.843,0,0,0,.522,1.036c.371.063.745-.294.827-.8s-.145-.974-.516-1.034S70.336,32.139,70.251,32.645Z"/><path class="cls-4" d="M83.558,46.541a3.63,3.63,0,0,1,4.136,1.117c1.566,2.125,3.913,8.5,5.479,9.169s7.156,2.013,7.156,2.013a4.594,4.594,0,0,1-2.683,3.131c-2.236.894-4.473,1.454-4.7.56s-3.517-2.958-4.249-3.8A20.96,20.96,0,0,1,83.558,46.541Z"/><path class="cls-16" d="M88.185,35.981c2.162.584,4.227-1.227,5.455-3.1s2.25-4.091,4.266-5.067c1.59-.771,3.452-.585,5.207-.787a11.627,11.627,0,0,0,6.675-3.143c-4.791,2.054-10.4.525-14.965-1.989-2.058-1.132-4.051-2.476-6.332-3.038a19.491,19.491,0,0,0-7.481.108c-3.365.5-7.252,1.411-8.655,4.509-.487,1.075-.92,2.568-2.1,2.572A13.888,13.888,0,0,1,77.128,24C85.736,24.365,88.185,35.981,88.185,35.981Z"/><path class="cls-17" d="M109.079,21.1s-2.552,1.742-2.148,2.694,1.256.232,1.024,1.489,1.76,1.5,1.76,1.5,1.251.547,1.68.029,1.588-.707,1.606-1.757.649-1.04.032-1.786-.393-1.582-1.333-1.914S109.313,19.734,109.079,21.1Z"/><path class="cls-16" d="M69.844,31.326s-2.469-2.239-2.421-4.97,4-6.443,4-6.443.84.809,4.386.894,7.236-.691,10.729,3.782,3.33,7.831,3.2,9.2,1.407,5.7,1.407,5.7l-7.226,1.7s4.1-7.144-1.922-11.241S74.206,26.93,71.318,27.86C69.119,28.568,69.844,31.326,69.844,31.326Z"/></svg>