<svg id="word" xmlns="http://www.w3.org/2000/svg" viewBox="0 0 160 160"><defs><style>.cls-1{fill:#916b52;}.cls-1,.cls-2,.cls-3,.cls-4{stroke:#9d4b9c;}.cls-2{fill:#f0c997;}.cls-3{fill:#d0a77a;}.cls-4{fill:#927756;}.cls-5{fill:#e3bc92;}</style></defs><path class="cls-1" d="M120.169,97.238s-18.533,1.244-23.614.739-24.037-.255-29.963-.49-23.336-.526-23.336-.526-4.857,1.125-6.479-1.273A12.157,12.157,0,0,0,32.931,92.1s81.112.7,81.533.617"/><path class="cls-2" d="M125.376,88.948l-3.124-24.283s-1.161-5.815-1.907-4.633-4.693,5.582-5.4,6.469-4.982,13.47-5.782,15.111-3.3,11.261-3.3,11.261,2.715,2.849,9.2,1.126A27.739,27.739,0,0,0,125.376,88.948Z"/><path class="cls-3" d="M119.589,59.544a44.017,44.017,0,0,1-11.145,1.682c-7.131.332-20.34.56-25.425.662s-26.173.02-27.382-.033-16.422-.043-16.422-.043a30.572,30.572,0,0,0-4.451,8.779c-1.843,5.549-1.055,12.882-1.055,12.882L32.931,92.1s8.232.129,15.3.4,61.258.513,61.258.513Z"/><path class="cls-4" d="M124.979,87.1s-.892,4.222-3.024,3.381-1.782-.376-2.968,1.087-.409,1.812-2.61,1.573-3.386,1.229-4.23,1.5-2.314-1-2.314-1l-3.969-.768L99,92.594s4.286,1.548,5.916,3.283,5.8,2.505,7.078,1.945,6.9-.025,8.179-.584,1.938-1.59,3.361-3.346c1.414-1.775,5.068-1.776,2.83-3.545S124.979,87.1,124.979,87.1Z"/><path class="cls-5" d="M39.235,66.926c25.5-4.271,50.541,3.638,75.73-2.449,0,0-23.943,2.483-31.516,1.272S61.508,63.766,54.4,64.393A126.377,126.377,0,0,0,39.235,66.926Z"/><path class="cls-5" d="M112.921,78.875c-7.523-.476-13.707,2.247-21.052,3.3-19.574,2.8-38.128-5.706-56.386-8.408,0,0,14.279,4.016,21.51,5.829,7.235,1.8,15.785,5.069,25.877,4.364a110.858,110.858,0,0,0,20.668-3.333C106.465,79.835,112.921,78.875,112.921,78.875Z"/><path class="cls-5" d="M115.057,74.4c-7.677-1.708-18.359-.432-26.714-.758-7.3-.292-23.867.868-21.925-.9,8.336-5.237,18.307-2.387,27.736-1.708,5.94.43,11.994.477,17.962.721,0,0-12.085-.785-16.7-1.783S71.763,67.842,65.2,70.5c-9.358,3.785-1.621,4.689,7.193,4.532s28.321-.489,31.437-.566S115.057,74.4,115.057,74.4Z"/><path class="cls-5" d="M38.847,89.4c10.246-1.975,19.6-2.162,30.14-1.539,6.622.39,13.381.95,20.031.482,6.943-.487,14.764-3.365,21.659-2.762,0,0-12.32.107-18.782,1.073a43.415,43.415,0,0,1-12.89.392c-4.15-.37-25.064-1.91-30.753-.716A41.834,41.834,0,0,0,38.847,89.4Z"/><path class="cls-5" d="M111.918,86.531c-1.208,2.9,1.234,3.973,4.627,3.844,4.38-.185,4.912-2.427,7.367-4.68,0,0-2.426,2.334-4.884,2.543s-3.66,1.265-4.654.514A28.677,28.677,0,0,1,111.918,86.531Z"/><path class="cls-5" d="M123.322,80.2c-3.985,6.189-9.6.4-7.243-4.13a14.729,14.729,0,0,0-1.564,5.508c-.018,2.528,3.555,4.4,6.16,2.878A5.339,5.339,0,0,0,123.322,80.2Z"/><path class="cls-5" d="M122.694,70.252c-2.96,1.945-5.184,3.948-4.625-2.106a6.725,6.725,0,0,0-1,4.012c.326,1.935,2.086,1.905,3.367,1.244S122.694,70.252,122.694,70.252Z"/></svg>