<svg id="word" xmlns="http://www.w3.org/2000/svg" viewBox="0 0 160 160"><defs><style>.cls-1{fill:#968ec4;}.cls-2{fill:#56caf4;}.cls-3{fill:#9fb1da;}.cls-4{fill:#a4d5b0;}.cls-5{fill:#a48dc2;}.cls-6{fill:#e1e671;}.cls-7{fill:#1fc3f3;}.cls-8{fill:#00bef2;}.cls-9{fill:#ec90bc;}.cls-10{fill:#a9d387;}.cls-11{fill:#c098c6;}.cls-12{fill:#a4d6b6;}</style></defs><path class="cls-1" d="M150.675,77.283c-1.236-4.337-38.8-27.53-41.6-28.3s-6.535,1.171-6.535,1.171L99.157,51.6,82.8,56.135l-5.206,1.442L63.83,61.389l-4.256,1.178L10.523,83.184v22.133l43.205.037h59.3l16.637.736,7.72.369,6.456-12.125,4.106-7.007S151.469,80.071,150.675,77.283Z"/><polygon class="cls-2" points="87.032 70.054 77.639 58.89 76.492 59.208 62.938 62.97 58.746 64.133 56.277 65.173 64.016 81.083 87.032 70.054"/><polygon class="cls-3" points="64.016 81.083 56.277 65.173 37.07 73.261 42.159 91.557 64.016 81.083"/><path class="cls-4" d="M120.337,76.76l13.99-10.6c-5.644-3.791-11.86-7.719-16.806-10.715L103.209,62.3Z"/><polygon class="cls-5" points="87.032 70.054 103.446 89.56 120.337 76.76 103.209 62.302 87.032 70.054"/><polygon class="cls-6" points="103.209 62.302 93.841 54.393 81.62 57.785 77.639 58.89 87.032 70.054 103.209 62.302"/><polygon class="cls-7" points="37.07 73.261 10.433 84.479 10.433 106.322 11.346 106.322 42.159 91.557 37.07 73.261"/><path class="cls-8" d="M117.521,55.444a83.95,83.95,0,0,0-9.094-5.1c-2.761-.76-6.276,1.742-6.276,1.742l-4.416,1.226-3.894,1.08,9.368,7.909Z"/><polygon class="cls-9" points="103.446 89.56 117.579 106.358 127.781 106.358 135.385 106.358 141.745 95.483 142 95.046 120.337 76.76 103.446 89.56"/><path class="cls-2" d="M149.593,78.351c-.51-1.791-7.318-6.854-15.266-12.192l-13.99,10.6L142,95.046l3.789-6.479S150.375,81.1,149.593,78.351Z"/><polygon class="cls-10" points="81.279 106.358 111.394 106.358 117.579 106.358 103.446 89.56 81.279 106.358"/><polygon class="cls-11" points="42.159 91.557 46.274 106.352 52.988 106.358 72.631 106.358 76.309 106.358 64.016 81.083 42.159 91.557"/><polygon class="cls-12" points="87.032 70.054 64.016 81.083 76.309 106.358 78.6 106.358 81.279 106.358 103.446 89.56 87.032 70.054"/><polygon class="cls-9" points="11.346 106.322 46.274 106.352 42.159 91.557 11.346 106.322"/></svg>