<svg id="word" xmlns="http://www.w3.org/2000/svg" viewBox="0 0 160 160"><defs><style>.cls-1{fill:#4a5495;}.cls-2{fill:#067153;}.cls-3{fill:#6f7b47;}.cls-4{fill:#2a5e2f;}.cls-5{fill:#554841;}.cls-6{fill:#22371b;}.cls-7{fill:#004c35;}.cls-8{fill:#e1bc97;}.cls-10,.cls-12,.cls-13,.cls-8,.cls-9{stroke:#9d4b9c;}.cls-10,.cls-8,.cls-9{stroke-width:0.392px;}.cls-9{fill:#8c59a2;}.cls-10{fill:#dcbf84;}.cls-11{fill:#fff;opacity:0.7;}.cls-12{fill:#e2c8a8;}.cls-12,.cls-13{stroke-width:0.381px;}.cls-13{fill:#ba9d7f;}</style></defs><rect class="cls-1" x="42.784" y="31.994" width="74.316" height="79.978"/><path class="cls-2" d="M66.763,73.492c-.052-.313-.418-.365-.418.314a10.227,10.227,0,0,1-.209,1.671s-1.045-.574-.575.1-.365.783,0,1.045-.939.313-.522.522-.574.261-.157.522,1.359.314.627.523-1.514-.105-1.1.209a1.35,1.35,0,0,1,.627.94c0,.261-1.1.157-.731.574s-.471.366.052.836.784.679.314.888-1.62-.105-1.15.418-.208.366.053.731.522.47.417.784-1.148-.157-.887.365.469.523.26.784a.734.734,0,0,1-.627.313c-.208,0-.626.366-.364-.261s.364-1.41-.053-1.515-1.619.052-.836-.522.261-.784.366-1.149.47-.209,0-.575a1.811,1.811,0,0,1-.627-1.358,2.544,2.544,0,0,0-.052-.626,8.471,8.471,0,0,1-.209-1.1c-.052-.627-.209-.941-.418-.836s-.47.522-.522,1.462-1.071,12.589-1.071,12.589l1.28.052,8.253.1,6.268-.1h3.969L76.74,83.522s.157-1.463-.47-1.933-1.515-.523-1.1-.627,1.567-.731.992-.888a10.78,10.78,0,0,1-1.515-.47c.314.052,1.1-.47.732-.731a3.678,3.678,0,0,1-.732-.836l.732-.261s-.941,0-.836-.418.261-.574.052-.836-.523.209-.575-.522-.156-2.351-.365-1.828a12.315,12.315,0,0,0-.313,2.246s-.732.417-.419.626.784.522.262.784-.888-.1-.523.261-.992.731-.417,1.045-.366.261,0,.522,1.148.1.365.261-1.41-.313-.783.157.731.522.365.836-.574.679-.679.209a10.963,10.963,0,0,0-.261-1.2c-.1-.261-.992-.313-.313-.47s.522-.47.261-.783S71.1,77.1,71.1,77.1s-.417-1.1-.47-.418.21,1.045-.157,1.515-.835.209-.365.47.366.47.105.679-.888.1-.523.365-.052.627-.052.627.731-.209-.1.627L68.7,81.8s-.993-1.254-.575-1.933.418-2.455.052-2.455-.992.47-.783.052.679-.261.418-.522a2.031,2.031,0,0,1-.314-.993.738.738,0,0,1-.313-.261,1.636,1.636,0,0,1-.209-.627Z"/><path class="cls-3" d="M46.18,89.791s20.685-2.4,30.715-1.671,21.624.1,27.475,1.149,10.551,1.41,10.551,1.41,5.217,24.124-2.3,24.124-70.777-.472-70.777-.472S44.4,90,46.18,89.791Z"/><path class="cls-4" d="M63.958,92.529s-.453-.577.9-.937,1.43-.433.827-1.153-.9-2.956-.075-2.667,1.129,1.008,1.731.216,1.129-1.3,1.431-.649.9.433.527,1.081-.376,1.874-.075,2.019-.151.216.451-.577.678-2.163,1.355-1.874,3.237-.937,2.935.792.677,2.091-.076,2.884.753,1.153-.375,1.658-1.13.72-1.807.216-.527-1.153-.979.072.9,1.226-.451,1.226-1.2-.073-1.431-.433.151.072-1.053-.072-.452-.073-1.2-.144-.3-.073-.3.649-.452.648-.452.648-1.2.289-.978,1.154.9,1.586.978.864.753-2.161.979-1.657.15.865.677.649,1.054-2.019,1.5-1.514a16.789,16.789,0,0,0,1.43,1.3s-.752-.216.527,0,1.655.865,1.581,1.225,1.807,1.082,1.054,2.812-.453,4.252-1.054,4.325,2.033.432-.6,1.009-3.537,0-3.161,1.081S71.41,108,69,108.964c-2.248.9.081,1.2-.52,1.2s-4.071.1-4.071.1a38.476,38.476,0,0,1-4.865.1c-1.468-.839-.78-2.691-.629-3.339a27.158,27.158,0,0,1,.6-3.028c.226-.432,1.431-.577,1.054-1.586s-.15-1.369.3-1.586.828-2.162.15-2.09-1.128.649-1.429.216-2.334-.432-2.936-.216-.6-.937-.978-1.009.3,1.3-.527.793a7.547,7.547,0,0,1-1.28-.793c-.3-.289-.753-2.018-1.129-1.442s-.376.5-.828.577-.151,1.586-.978,1.225-1.581.649-2.033-.216-.9-.072-1.128-.793,1.655-1.3.753-1.8-1.732-.432-1.883-.865-1.656-.649-1.2-.937-.527-.793-.527-1.226.6-.648.377-1.152-.6-2.452.451-2.091,2.334,1.513,1.807.865-.9-1.226-.226-1.442,1.279-.216,1.053-.288.152-1.081.527-1.153-1.731-.506-1.806-.794,1.129-1.513.828-1.729-1.5-1.37-.978-1.658.526-1.73,1.279-1.874a3.438,3.438,0,0,1,1.581.144c.452.072,1.053-.36,1.429.072s.3,1.442.979,1.3.077-1.081.829-1.3,2.031-.937,2.181-.432.6,1.3.9,1.3-.075.36.226.721,2.183-.073,2.108-.649,2.107-2.523,2.484-2.523.827.937.752,1.442,2.108.576,1.732,1.009a1.646,1.646,0,0,0-.377,1.3c.076.216.678.361.377.577s.827-1.442,1.2-1.442,1.882-.072,1.506.794,2.031,1.73,1.5,2.018-.376.72-1.053.936-1.2.217-1.13.433-.3.361-.6.577-.9.721-.9.721.6.36-.151.937-2.634.36-1.957,1.009a2.5,2.5,0,0,0,1.28.721Z"/><path class="cls-5" d="M55.3,110.061l-.448-6.576a12.156,12.156,0,0,0,1.128-1.657c.527-.938,2.711-2.668,2.937-4.4s-1.055,1.73-1.958,2.379a9.936,9.936,0,0,0-1.882,2.162,10.384,10.384,0,0,1-.376-4.18,50.491,50.491,0,0,0,1.129-4.974c.15-1.441.527-.865,1.28-2.378a6.219,6.219,0,0,0,.752-1.875s-.827,1.946-1.655,1.946-.829-.576-.829-1.225-.225-3.6-.225-3.6-.753,3.532-.377,4.613.451,1.082.227,2.091-.678,4.036-.678,4.036a3.472,3.472,0,0,1-.752-1.513,25.291,25.291,0,0,1-.753-2.739c-.151-.937-.3-3.028-.3-3.028s-.528,2.739-.227,3.388a3.2,3.2,0,0,1,.227,1.442s-.9,0-1.13-.433a9.988,9.988,0,0,0-1.128-1.369s.226,1.585.751,1.946a7.052,7.052,0,0,0,1.732.649l.9,2.45a8.618,8.618,0,0,0,.076,2.74,23.253,23.253,0,0,1,.452,3.892,3.849,3.849,0,0,0-1.958-2.667,6.456,6.456,0,0,0-2.709-.937s1.053.649,2.031,1.225,1.581,2.595,1.581,2.595l1.192,6Z"/><path class="cls-6" d="M88.109,93.69s-4.568-3.169-2.672-3.076,5.172.466,6.982,0,2.758-.093,3.706-1.211,3.361-2.331,2.068-1.958-5.6,1.305-4.481.093,1.723-1.4-.69-1.4-2.758-.745-.775-1.212,4.395-1.211,5.429-2.423-.517-1.025-1.034-.932-.862-.187.6-1.3,2.326-2.331-.948-1.119-5.172,2.331-4.914,1.492,2.845-1.585,1.38-1.4-5.654-.152-3.413-.525,1.844.082,4-1.037,5.184-1.234.793-1.234c-2.416,0-5.086-1.957-3.965-1.678a27.152,27.152,0,0,0,5.43.28c.948-.093,1.638.373,2.327-.746s4.309-2.051,1.293-1.957-4.741.279-3.19-.28a6.411,6.411,0,0,0,3.19-2.61c.172-.559-1.035-.186-2.672-.093s-3.275-.373-2.758-.652-2.241-.56-.776-.746,3.276-.373,3.793-.839-4.482-.746-4.482-.746a37.248,37.248,0,0,1,3.965-.838,6.519,6.519,0,0,0,2.93-1.026.835.835,0,0,0-.431-1.4c-.69-.093-.6.093.517-.652s1.81-1.492,1.206-1.585-3.878.186-4.136-.187,2.154-.372,3.188-.932S100,58.27,99.4,58.084s.431,0,.948-1.026.172-1.491-.43-1.4-1.9-.093-.863-.373,2.069-2.237,2.069-2.237-1.121.28-.862-.186a16.508,16.508,0,0,1,1.207-1.585,14.777,14.777,0,0,1,0-2.05c.086-.84.517-1.772.775-2.983s-.172-3.076.518-2.89.086,3.356.172,4.008a24.353,24.353,0,0,0,.689,2.7c.173.56-.775.932-.6,1.4a6.464,6.464,0,0,0,1.81,2.33c.6.279-1.379-.186-.776.279a15.986,15.986,0,0,0,2.328,1.865c.43.093-2.586.652-1.983,1.118s.689,1.4,1.638,1.678,2.5.28,1.465.652-2.672-.372-2.327.467,1.207,1.678,1.207,1.957-1.379.746-.777,1.212a3.414,3.414,0,0,0,3.017,1.212c2.155,0,2.931.559,1.811.932s-4.741.279-3.965.652,2.413,1.026,1.637,1.118-3.619-.559-2.413.28a8.638,8.638,0,0,0,4.223.932,3.842,3.842,0,0,1-2.068,1.026c-1.293.279-2.844-.373-1.983.466s-2.241,1.584-.776,1.957,2.931,1.4,5,1.025,3.275-.652,2.154.373-2.671,1.212-2.93,1.771-.862.653.259,1.119,2.327-.093,3.792-.093,1.12.839-.345,1.491a19.413,19.413,0,0,1-3.964,1.025s-2.586.559-1.035,1.119,3.017-.187,1.552.559-4.4.093-2.845.932a11.858,11.858,0,0,0,4.224.932s-2.069,1.492-3.362,1.212-1.9.186-.517,1.119a6.828,6.828,0,0,0,4.051,1.212c1.379,0,4.482-.373,3.017.279s-1.207,2.33-2.672,2.144a9.731,9.731,0,0,0-2.93-.187c-1.725.094-1.983.094-.863.746a8.923,8.923,0,0,0,2.759,1.026c.517.093,4.308-.28,4.308-.28s-4.826,2.144-3.188,2.237,3.706.28,4.051.28,1.034-.094,1.034-.094,1.81.373.776,1.026-2.413.652-1.552.932-.948,0,.862.279,2.586.933,1.983.933-3.1.745-.863.932,3.879-.28.431.373-3.964.838-3.188,1.211,1.982.28-1.121-.373-3.533-1.584-3.1-.652-.086,2.423,2.069,2.889,5.171.839,3.878,1.492-9.394.373-6.722,1.211a27.011,27.011,0,0,0,6.119,1.4c1.983.186,5.344.839,3.534,1.491a10.892,10.892,0,0,1-5.344.746c-2.327-.187-2.758,1.025-1.551,1.4s6.292,1.957,5.171,1.957-6.637-1.957-4.654-.186,4.051,4.567,5.344,4.567a14.652,14.652,0,0,0,2.327-.186s-6.033,1.4-8.533.839a51.118,51.118,0,0,0-8.1-1.4c-2.93-.187-5.516-.56-8.619.093s-8.274,1.025-7.067.093,1.723-2.61.948-2.051-1.121,1.026-3.189.653-1.121-1.025.344-1.492-1.81-.186-3.361-.186-4.051.466-.689-.652,1.982-1.585.172-1.585-5,.373-1.81,0,4.826-.559,5.688-.932A.98.98,0,0,0,86.9,104.5c-.948-.466.863.279,3.62-.932A20.235,20.235,0,0,0,95.35,100.5a2.67,2.67,0,0,0-1.983-.094c-1.12.373-1.638.28-.948-.466s-1.207-.093-1.9.28-3.1,2.144-2.068.559,3.362-3.728.948-3.076-4.913,1.864-3.965.746,1.035-1.4.173-1.305-2.5.932-3.706,1.212.172-1.678.947-1.958-2.326-.745-2.93-1.677,5.775-1.026,7.068-.933l1.293.094,3.706.839"/><path class="cls-7" d="M96.016,85.283c.118,0,.823-1.058.509-1.1s-1.763-.549-1.488-.627-.431-.353-.118-.392.51-.235.666-.156.157-.706.236-.588.626-.079.626-.235-.392-.275-.783-.235-1.685-.079-1.332-.314a6.456,6.456,0,0,1,.783-.431.4.4,0,0,0,.314-.222c.1-.208.261-.444.026-.47s-.993,0-1.071-.026-.314-.392-.026-.365.235-.261.339-.261.47.078.445-.105-.262-.157-.392-.235-.81-.235-.81-.313.314-.157.418-.183.287-.314.026-.314a1.16,1.16,0,0,1-.5-.13,2.181,2.181,0,0,1,.417-.183c.079,0,.053-.392-.051-.392s-.34-.34-.392-.548.025-.993-.027-1.071-.261-.993-.391-.575a9.6,9.6,0,0,0-.183,1.228,3.171,3.171,0,0,1-.235.626s-.287.157-.261.236-.313.209-.157.287.6.261.444.261-.784.314-.653.392-.052.183.131.235.7.078.392.261-.7.392-.7.392-.784.208-.288.47.574.026.5.261-.548.209-.365.418.287.549,0,.6-1.149.287-.784.026.417-.7.209-.81-.6-.182-.6-.313a2.638,2.638,0,0,1,.365-.627s.078-.6-.209-.731-.731-.339-.758-.6-.235-1.2-.235-1.437-.313-.261-.287.444.131,1.489-.1,1.646a10.526,10.526,0,0,0-1.071.81c-.209.209-.392.548-.1.574s.992-.13.574.105-.444.13-.418.235-.261.574-.261.574-.418-.183-.418.078-.47.314-.444.392-.47-.078-.026.262,1.044.574.627.678-1.515-.417-.993.105.993.679.836.757a4.61,4.61,0,0,1-.992.053L85.9,83.468s.679.052.522-.288-.678-.156-.392-.47.183-.522.053-.679a.845.845,0,0,1-.34-.626c-.026-.392-.078-2.586-.235-1.515a18.148,18.148,0,0,0-.156,1.88c-.027.183-.393.052-.288.34s-.052.208-.052.443.287.366.078.523-.47,0-.183.261-.522.183-.182.444.313.679,0,.731a3.726,3.726,0,0,1-1.072-.026c-.391-.052-1.018-.339-.626-.418s.679-.313.287-.574a5.9,5.9,0,0,1-.862-.784s.731.236.549-.208-.836-1.1-.836-1.306.027-.784.027-1.2-.367-2.612-.445-1.671-.261,2.48-.339,2.82a10.213,10.213,0,0,0-.053,1.437s-.391.052-.26.313-1.28.392-.392.653.209.627.574.784-.339.574-.339.574-1.228,3.161-.68,3.161,2.09.025,2.09.025S78.5,89.4,79.576,89.657s.731.183,3.133.183,5.485.209,7.679.444,6.895.183,6.895.183,1.044-.052.47-1.384S96.016,85.283,96.016,85.283Z"/><path class="cls-2" d="M98.117,87.383s-.753-2-1.066-1.92-.262.391-.47.052-.94-.629-1.149-.446-.106.783-.106.783-.782-.471-.992-.053-.758.521-.627.652-.679-.21-.68.182-.81.417-.575.757.233.94-.184.652-.7-1.019-1.017-1.072-.6-.81-.7-.81.68-.652-.679-.445-1.331-.524-1.54-.42-.7-.654-.992,0-.654.312-.367.783-.522.234-.236.653.391.287,0,.6-.549-.027-.392.313-.288.417-.184.575-.679.521-.757.442-.811.026-.68.365-.34.13-.679-.079-.521-.758-.835-.759-1.148-.732-1.279-.759-.156-.078-.679.287a22.276,22.276,0,0,0-2.2,2.012c-.148.395.452.258,1.81.39s4.466.006,5.85.008,6.5.4,7.565.4,1.956.039,1.956.039l2.468-.247Z"/><path class="cls-8" d="M39.4,30.864V115.8h83.163V30.864ZM70.306,36.39V54.519h-25.5V36.39Zm-25.5,21.684h25.5v52.2h-25.5Zm72.341,52.2H73.861V36.39H117.15Z"/><path class="cls-9" d="M23.3,20.164l-2.568,7.767s.395,5.76,9.545,6.54a14.775,14.775,0,0,0,10.144-3.185A15.008,15.008,0,0,0,49.861,34,18.238,18.238,0,0,0,59.3,31.05s5.426,3.893,10.027,3.421a23.326,23.326,0,0,0,8.847-3.185s6.488,3.3,10.971,3.185A15.508,15.508,0,0,0,97.4,31.286s3.067,2.595,9.791,2.831,9.319-2.595,9.319-2.595.472,3.185,8.965,2.831,11.885-2.006,11.885-2.006L135.5,20.2Z"/><path class="cls-10" d="M140.948,18.27a3.093,3.093,0,0,0-2.638,1.416H21.9a3.056,3.056,0,0,0-2.847-1.817A2.956,2.956,0,0,0,16,20.716a2.956,2.956,0,0,0,3.056,2.846A3.056,3.056,0,0,0,21.9,21.745h116.07a3.015,3.015,0,0,0,2.979,2.218A2.956,2.956,0,0,0,144,21.117,2.957,2.957,0,0,0,140.948,18.27Z"/><rect class="cls-11" x="11.541" y="10.518" width="136.917" height="107.46"/><polygon class="cls-12" points="38.847 115.708 30.399 121.729 131.94 121.729 122.827 115.278 38.847 115.708"/><rect class="cls-13" x="30.135" y="121.712" width="101.665" height="4.486"/></svg>