<svg id="word" xmlns="http://www.w3.org/2000/svg" viewBox="0 0 160 160"><defs><style>.cls-1{fill:#1b75ba;}.cls-1,.cls-10,.cls-11,.cls-12,.cls-13,.cls-15,.cls-16,.cls-2,.cls-3,.cls-4,.cls-5,.cls-6,.cls-7,.cls-8,.cls-9{stroke:#9c4c9c;stroke-width:0.649px;}.cls-12,.cls-2{fill:#fff;}.cls-3{fill:#555759;}.cls-12,.cls-13,.cls-15,.cls-16,.cls-3,.cls-4,.cls-5,.cls-6,.cls-7,.cls-8{stroke-miterlimit:10;}.cls-4{fill:#fde0ce;}.cls-5{fill:#7e63a9;}.cls-6{fill:#80c78b;}.cls-7{fill:#ee529b;}.cls-8{fill:#626467;}.cls-9{fill:#be612f;}.cls-10{fill:#ffc906;}.cls-11,.cls-13{fill:none;}.cls-13{stroke-linecap:round;}.cls-14{fill:#9c4c9c;}.cls-15{fill:#fbe4d6;}.cls-16{fill:#c1976b;}</style></defs><path class="cls-1" d="M48.617,128.979l-.679,3.746c-.482,0-.924-.006-1.3-.022-2.3-.1-7.8-1.852-10.576-2.782a11.13,11.13,0,0,1,1.051-3.029l2.677-5.361,5.1.925s2.669,3.139,4.6,3.843c.366.134.691.269,1,.407A4.137,4.137,0,0,0,48.617,128.979Z"/><path class="cls-2" d="M47.938,132.725c2.155,0,5.136-.142,7.118-.252a3.225,3.225,0,0,1-1.429,1.3c-1.484.615-7.97.678-7.97.678s-8.327-2.4-9.322-3.283a1.423,1.423,0,0,1-.275-1.249c2.774.93,8.279,2.684,10.576,2.782.378.016.82.022,1.3.022"/><path class="cls-2" d="M48.617,128.979a4.137,4.137,0,0,1,1.877-2.273,23.678,23.678,0,0,1,3.972,2.442,2.321,2.321,0,0,1,.59,3.325c-1.982.11-4.963.252-7.118.252Z"/><path class="cls-1" d="M31.177,130.264l-.679,3.747c-.483,0-.924-.007-1.3-.023-2.3-.1-7.8-1.852-10.576-2.781a11.118,11.118,0,0,1,1.052-3.029l2.677-5.362,5.1.926s2.669,3.139,4.6,3.843c.366.133.69.268,1,.407A4.132,4.132,0,0,0,31.177,130.264Z"/><path class="cls-2" d="M30.5,134.011c2.154,0,5.136-.143,7.117-.252a3.222,3.222,0,0,1-1.429,1.3c-1.484.616-7.97.679-7.97.679s-8.327-2.4-9.321-3.284a1.421,1.421,0,0,1-.276-1.248c2.775.929,8.279,2.684,10.576,2.781.379.016.82.023,1.3.023"/><path class="cls-2" d="M31.177,130.264a4.132,4.132,0,0,1,1.876-2.272,23.612,23.612,0,0,1,3.972,2.442,2.32,2.32,0,0,1,.59,3.325c-1.981.109-4.963.251-7.117.252Z"/><path class="cls-3" d="M17.761,79.563s.183,7.571,0,13.166,2.017,13.115,1.651,15.591.082,8.713.041,10.272a48.054,48.054,0,0,0,.784,5.98,57,57,0,0,0,6.879,1.724c1.192,0,1.926.642,2.109-.55a24.34,24.34,0,0,0,0-3.669c0-.733-.825-2.114.55-7.294a86.08,86.08,0,0,0,2.66-12.791c.825-5.778,1.009-16.325,2.476-12.107S38.4,103.016,38.4,103.016l1.284,8.881s-.826,5.411-.826,7.7-4.035,5.044,0,6.237,9.4-.222,9.4-.222.257-1.274.6-6.685-.28-8.56-.464-14.171-2.384-22.838-2.384-22.838Z"/><path class="cls-4" d="M42.839,38.026s-2.468,5.116-1.722,7.9,7.072,7.7,9.683,6.139S54.6,45.2,54.6,45.2Z"/><path class="cls-4" d="M73.065,72.46s3.852,2.659,4.4,3.026a10.422,10.422,0,0,0,3.394.551c1.192.091,4.952.091,5.411,1.467a1.161,1.161,0,0,1-1.193,1.651c-.366-.092-4.4-.377-4.585.408s-1.651,4.351-1.651,4.351-1.926-2.283-2.477-3.017a5.948,5.948,0,0,0-1.742-1.334L69.855,76.77Z"/><path class="cls-4" d="M83.8,116.85l-13.207,6.42H66.92s-1.521.275-1.586,1.467-.432,7.154,1.586,7.521,5.228-2.11,5.228-2.11L83.8,128.589l3.458-2.109Z"/><path class="cls-5" d="M67.837,121.986a2.835,2.835,0,0,1,.917,2.586c-.275,1.633-1.834,3.283-.917,5.026a23.317,23.317,0,0,1,1.376,3.118,31,31,0,0,0-4.494.895,2.648,2.648,0,0,1-1.835,0,17.28,17.28,0,0,1-2.292-5.022c-.459-2.293-3.951-8.713-3.947-9.905s-.272-4.219.828-4.494a4.48,4.48,0,0,1,4.861,2.66C63.251,119.326,66.186,121.894,67.837,121.986Z"/><path class="cls-4" d="M116.405,83.234s-1.55,5.552.936,8.046,6.934,2.711,9.481,1.41,4.373-9.456,4.373-9.456l-4.943-2.8Z"/><path class="cls-6" d="M43.349,39.626l-5.594.733s-5.137.826-8.347,4.036-9.079,16.233-9.171,17.059-1.651,4.219-1.651,5.87-1.742,4.744-2.476,6.316a7.288,7.288,0,0,0,0,5.24c.55.825-.367,1.192,5.594,3.76s26.689.55,26.689,0a91.4,91.4,0,0,1,.918-10.089c.55-2.568,1.559-7.337,2.292-8.346S58.549,48.8,58.549,48.8l-1.972-2.476-3.782.092s1.376,3.576-3.576,3.943-7.062-5.136-7.062-5.411S43.349,39.626,43.349,39.626Z"/><path class="cls-6" d="M58.88,49.806s3.638,8.438,5.2,10.272.458,1.651,2.109,4.127a30.332,30.332,0,0,0,6.053,6.053c.642.367,2.018,1.1,1.651,2.11s-3.21,7.062-3.668,7.154a5.96,5.96,0,0,1-4.494-1.559c-2.2-1.743-9.195-10-10.7-12.29a22.465,22.465,0,0,1-2.236-4.4L58.549,48.8Z"/><path class="cls-4" d="M51.7,70.9l2.293,2.74s3.485-1.3,5.32,0,5.913,1.5,5.961,2.947c.066,2.007-3.118-.55-4.219,0s-.182,3.453.277,3.687,4.023,1.174,3.982,2.183-4.145-.535-4.145-.535,4.553,1.727,4.146,2.461-2.883.009-4.037-.469c-.641-.266-2.344-1.229-2.115-.831s3.8,1.776,3.145,2.83c-.58.94-4-1.918-4.463-2s4.576,4.6.709,2.6c-3.682-1.907-4.956-4.42-4.942-4.787a12.354,12.354,0,0,0-.812-2.16L48.118,76.77s-.367-3.026,0-3.76S51.7,70.9,51.7,70.9Z"/><path class="cls-6" d="M32.894,46.321s5.5-1.559,6.328,1.559,2.935,11.464,3.852,13.39a10.762,10.762,0,0,0,3.669,4.219A47.907,47.907,0,0,1,51.7,70.9s-2.752,4.161-2.767,4.3-.81,1.57-.81,1.57a32.187,32.187,0,0,1-6.787-4.31,83.255,83.255,0,0,1-8.437-9.63C31.61,60.9,28.308,47.7,32.894,46.321Z"/><path class="cls-4" d="M94.8,82.548A66.923,66.923,0,0,0,88.656,79.1c-1.375-.495-6.878-.514-8.071,0s-1.467,4.253-1.742,4.814.642.744.642.744.092,1.1.458,1.192a1.7,1.7,0,0,0,.734,0s-.734.642.275.734a5.826,5.826,0,0,0,1.468,0s.091-1.743,1.284-2.293,5.136.448,6.97,2.333S94.8,82.548,94.8,82.548Z"/><path class="cls-4" d="M86.088,82.181s.04-1.467.708-.6a2.837,2.837,0,0,1,.457,2.568c-.249.409-1,.932-.884.6A14.754,14.754,0,0,0,86.088,82.181Z"/><path class="cls-4" d="M85.125,82.857s-.5-1.134.23-.905a1.648,1.648,0,0,1,1.014,1.7,2.318,2.318,0,0,1-.706,1.605c-.125,0-.171-.428-.217-.4S85.125,82.857,85.125,82.857Z"/><path class="cls-4" d="M84.254,83.588s-.183-.743.5-.731,1.019,1.046.905,1.2-.5,1.284-.7,1.65a1.738,1.738,0,0,1-.726.6Z"/><path class="cls-4" d="M83.153,84.245s0-1.269.551-.963.538,1.787.535,2.2.046.917-.543,1.009-1.28-.179-1.172-.537S83.153,84.245,83.153,84.245Z"/><path class="cls-7" d="M94.251,81.922l-3.577,4.7a6.222,6.222,0,0,0,1.788,3.307c1.6,1.651,5.824,5.595,7.888,6.145s5.319.872,6.237.551,4.218-1.055,4.218-1.055l1.926-.642,1.881-11.016s-7.246,2.755-9.4,3.079a6.516,6.516,0,0,1-5.641-1.418A49.5,49.5,0,0,0,94.251,81.922Z"/><path class="cls-7" d="M115.3,83.588l-5.183,21.8s13.207,12.382,14.674,14.308,9.447,8.9,9.447,8.9,4.769-.825,4.952-3.026-.092-12.565-.458-16.051S136.5,92.545,136.5,92.545s-.791-6.328-.883-6.7-5.136-2.993-5.136-2.993-1.1,7.762-6.328,9.321-7.154-4.8-6.97-4.879a32.29,32.29,0,0,0,1.1-3.711Z"/><path class="cls-8" d="M108.834,116.3s-16.968-1.1-18.16-1.467-8.161,1.467-8.161,1.467l3.575,11.556s9.814,1.651,13.941,2.935,16.3,1.394,17.312.936,4.241-2.036,4.241-2.036Z"/><path class="cls-4" d="M95.9,120.977a53.582,53.582,0,0,1-2.293,5.319c-.734,1.193-3.328,2.311-3.328,2.311s5.346,6.035,6.446,6.035a3.923,3.923,0,0,0,2.2-1.031,5.464,5.464,0,0,1,.533-2.989c.751-1.391,3.595-6.05,3.595-6.05Z"/><path class="cls-8" d="M94.8,119.418s3.669,4.147,5.136,4.779a16.23,16.23,0,0,0,3.577.907l5.774-6.6a49.874,49.874,0,0,0,4.04,8.346c1.926,2.751,5.5,6.741,10.547,6.764s10.189-6.6,10.189-6.6-16.884-19.663-21.654-21.285-8.894-1.163-10.363,1.13S94.8,119.418,94.8,119.418Z"/><path class="cls-4" d="M111.931,59.943a47.758,47.758,0,0,0-.621,6.81c.183,1.488-1.926,4.514-2.018,5.707s1.559,7.243,2.843,8.849,2.568,3.991,7.246,3.945,10.73-2.125,12.106-3.332,4.311-8.27,4.494-11.022,3.5-12.422.478-14.069-16.224-3.334-18.15-2.784S111.931,59.943,111.931,59.943Z"/><path class="cls-9" d="M140.932,56.883l-.167.081-4.682,2.279a13.384,13.384,0,0,1-3.979-1.5c-2.124-1.2-4.443-1.183-8.292-1.825a16.714,16.714,0,0,0-8.659,1.057,8.885,8.885,0,0,0-3.639,4.942,35.984,35.984,0,0,1-1.372,7.747,14.485,14.485,0,0,0-.242,6.128,10.393,10.393,0,0,0,2.032,3.635,11.051,11.051,0,0,1-2.976-2.41c-1.533-1.7-2.818-2.439-3.215-3.672s-1.587-3.361-1.528-3.568-.293-2.919-.293-2.919.634.926,2.545-.026,3.231-6.4,3.128-8.147,2.527-3.39,3.3-3.767a4.5,4.5,0,0,0,2.135-2.531c1.071-3.209,7.911-5,12.707-4.539s7.176,1.808,9.539,3.746,3.847,2.907,3.612,3.736A2.715,2.715,0,0,0,140.932,56.883Z"/><path class="cls-9" d="M142.067,56.831s3.565,1.382,3.373,3.642-1.839,6.5-.918,8.251-.208,7.853-1.25,9.424a19.081,19.081,0,0,1-6.766,5.177c-2.365.972-3.143,1.349-4.436,1.431a26.842,26.842,0,0,1-4.6-.631,10.019,10.019,0,0,0,4.61-3.1c2.115-2.461,3.579-1.3,3-5.048s-1.725-7.879-1.624-10.612a10.384,10.384,0,0,1,2.629-6.123c.828-.812,4.849-2.36,4.849-2.36Z"/><path class="cls-10" d="M113.418,53.348a5.013,5.013,0,0,0,1.555,2.68c1.176.855.931,1.458.931,1.458l-1.715.784a7.994,7.994,0,0,1-1.021-1.932c-.218-.808-.409-1.982-.409-1.982Z"/><path class="cls-11" d="M139.635,57.336c-2.694,1.424-2.829,6.18-1.969,8.616,1.326,3.753,6.9,6.8,4.056,11.34a7.579,7.579,0,0,1-3.126,2.481"/><path class="cls-11" d="M139.787,55.548c-2.651,1.63-7.118-1.381-9.651-2.26-2.781-.965-5.307-1.7-8.133-.826"/><path class="cls-11" d="M114.816,55.741c2.881.184,5.751-.994,8.58-.7,3.187.331,5.559,1.2,8.8.19"/><path class="cls-11" d="M137.2,59.066c-3.427,3.563-3.012,7.973-.45,11.787,1.632,2.428,3.376,8.344-1.538,8.788"/><path class="cls-11" d="M129.429,83.791c3.085.558,7.068-1.813,8.479-4.508"/><path class="cls-11" d="M112.97,57.049c-3.417.846-3.006,6.188-3.491,8.784-.4,2.131-3.3,5.494-5.322,2.95"/><path class="cls-11" d="M105.288,71.878c2.316,2.81,3.412-2.668,3.3-2.255"/><ellipse class="cls-12" cx="113.432" cy="67.779" rx="2.824" ry="1.735" transform="translate(17.742 158.906) rotate(-74.461)"/><path class="cls-13" d="M112.455,61.837a2.254,2.254,0,0,0,1.126-.514,5.555,5.555,0,0,1,3.033-.578,1.177,1.177,0,0,1,.982.343"/><path class="cls-13" d="M124.988,62.786a5.652,5.652,0,0,1,3.668,4.1"/><ellipse class="cls-14" cx="113.035" cy="66.648" rx="1.71" ry="1.268" transform="translate(18.541 157.697) rotate(-74.461)"/><ellipse class="cls-12" cx="125.343" cy="69.721" rx="2.824" ry="1.735" transform="translate(24.591 171.804) rotate(-74.461)"/><ellipse class="cls-14" cx="124.947" cy="68.591" rx="1.71" ry="1.268" transform="translate(25.389 170.595) rotate(-74.461)"/><path class="cls-13" d="M115.348,72.05a1.589,1.589,0,0,1,.357-.488.961.961,0,0,1,.371-.225.93.93,0,0,1,.857.249,2.742,2.742,0,0,1,.528.762"/><path class="cls-13" d="M115.366,75.79a1.5,1.5,0,0,0,.819.322,5.976,5.976,0,0,0,1.978.125,2.983,2.983,0,0,0,1.153-.448"/><path class="cls-15" d="M146.658,131.384c-1.11-.956-2.669-3.192-3.592-3.178s2.327,4.467,1.58,5.229-2.938-3.149-3.925-4.577-3.6-1.312-4.179-.957-2.5,2.464-3.315,1.206,1.879-2.873,2.052-3.048,2.167-2.79,2.167-2.79l.987-6.3-2.155.2s3.721-.769,4.157.7l.794,1.315a5.777,5.777,0,0,1,1.217,1.194c.767,1.017,1.52,2.16,1.52,2.16s1.33.5,2.018.726,2.433.881,2.783,1.8-3.406-.121-3.578.055,1.459,1,2.037,1.343,2.072,1.192,1.324,1.954-2.8-1.519-3.757-1.271c-.724.187,1.5,1.672,2.644,3.059C148.058,130.953,148.11,132.633,146.658,131.384Z"/><path class="cls-7" d="M134.147,86.956s1.284,9.166,3.76,12.284-.033,3.457,1.343,6.483-3.582,12.992-3.215,14.876,7.157-.073,7.157-.073a52.974,52.974,0,0,1,2.255-6.407c1-1.626,3.216-12.671,1.106-15.605s-2.629-7.483-4.243-9.176C138.854,85.715,135.614,83.471,134.147,86.956Z"/><path class="cls-5" d="M92.233,127.81a8.655,8.655,0,0,0-2.656.666c-.37.388-6.79,1.672-7.432,2.039s-2.018,3.1-2.018,3.1a2.859,2.859,0,0,0,1.467,2.5,15.584,15.584,0,0,0,7.8,2.109c2.66,0,7.612-.091,8.621-.825a6.1,6.1,0,0,0,1.559-2.752v-3.026s-1.375,1.972-2.384,1.4S94.343,128.406,92.233,127.81Z"/><path class="cls-4" d="M69.213,25.777a18.321,18.321,0,0,1-.734,6.512c-1.009,2.568-1.834,3.668-1.834,5.5a10.783,10.783,0,0,1-3.027,6.42c-1.467,1.193-9.08,3.577-11.373,3.027a18.891,18.891,0,0,1-8.8-6.053,16.88,16.88,0,0,1-2.476-11.006c.55-3.21,2.476-12.84,6.053-14.032s5.136-4.4,11.1-1.835,11.132,9.906,11.132,9.906Z"/><path class="cls-16" d="M52.612,16.514a70.857,70.857,0,0,0,6.512,5.594,30.185,30.185,0,0,0,6.053,3.3l-2.659-2.568s4.31,2.843,4.86,3.852a14.625,14.625,0,0,1,1.284,3.637c.149.891-.977,3.826-.977,3.826a27.338,27.338,0,0,1,2.537-4.437,14.563,14.563,0,0,0,2.384-7.7c-.183-1.926-3.577-8.07-6.6-9.63s-8.163-2.935-9.63-2.751A55.075,55.075,0,0,0,50.778,11.1l1.834-2.384-2.476,2.2L48.76,7.727v2.825L47.293,9.543l1.1,1.743s-5.617.169-7.577,2.056-3.061,6.932-3.061,9.5v3.852l1.467-2.476-.734,3.3,1.376-1.192s.367,4.035,1.376,5.595a10.8,10.8,0,0,0,2.935,2.751,5.436,5.436,0,0,1,.458-6.145c2.385-3.3,6.97-7.337,7.7-8.438S52.612,16.514,52.612,16.514Z"/><path class="cls-4" d="M41.7,28.9s-.917-1.376-2.384,0-1.284,2.476-.734,4.494S41.7,35.865,41.7,35.865"/><path class="cls-13" d="M57.84,37.608s1.284-1.009,1.834,0,0,1.284,0,1.284"/><path class="cls-13" d="M52.8,39.626c.577.426.85,1.179,1.443,1.583a2.661,2.661,0,0,0,.774.332,7.6,7.6,0,0,0,3.2.219"/><path class="cls-13" d="M54.6,24.716a6.871,6.871,0,0,1,1.33-.426,2.364,2.364,0,0,1,1.387.036,2.849,2.849,0,0,1,1.228,1.368"/><path class="cls-13" d="M64.346,27.605a1.648,1.648,0,0,1,1.463.605,4.884,4.884,0,0,1,.783,1.449"/><path class="cls-12" d="M55.657,31.1s1.7-3.117-.5-3.482-4.979,2.5-3.715,4.437S55.657,31.1,55.657,31.1Z"/><path class="cls-14" d="M55.593,31.217s.99-1.812-.289-2.024-2.893,1.453-2.159,2.579S55.593,31.217,55.593,31.217Z"/><path class="cls-12" d="M66.729,35.473s.653-3.491-1.551-3.157-3.96,3.919-2.158,5.37S66.729,35.473,66.729,35.473Z"/><path class="cls-14" d="M66.705,35.6s.379-2.029-.9-1.835-2.3,2.278-1.254,3.121S66.705,35.6,66.705,35.6Z"/></svg>