<svg id="word" xmlns="http://www.w3.org/2000/svg" xmlns:xlink="http://www.w3.org/1999/xlink" viewBox="0 0 160 160"><defs><style>.cls-1,.cls-2,.cls-3,.cls-6,.cls-7{stroke:#9d4b9c;stroke-width:0.5px;}.cls-1{fill:url(#radial-gradient);}.cls-2{fill:url(#linear-gradient);}.cls-3{fill:#817e4e;}.cls-4,.cls-8{opacity:0.34;}.cls-4{fill:url(#linear-gradient-2);}.cls-5{fill:#56585b;}.cls-6{fill:#787574;}.cls-7{fill:url(#linear-gradient-3);}.cls-8{fill:url(#linear-gradient-4);}.cls-9{fill:#6c6a69;}</style><radialGradient id="radial-gradient" cx="-1160.837" cy="109.116" r="50.299" gradientTransform="translate(994.566 -27.024) scale(0.798 0.969)" gradientUnits="userSpaceOnUse"><stop offset="0.004" stop-color="#fff1db"/><stop offset="0.201" stop-color="#f5dda2"/><stop offset="0.84" stop-color="#998b46"/><stop offset="0.978" stop-color="#857932"/></radialGradient><linearGradient id="linear-gradient" x1="-1207.314" y1="82.264" x2="-1195.309" y2="82.264" gradientTransform="translate(1304.333)" gradientUnits="userSpaceOnUse"><stop offset="0" stop-color="#b3b5b7"/><stop offset="0.352" stop-color="#fff"/><stop offset="1" stop-color="#231f20"/></linearGradient><linearGradient id="linear-gradient-2" x1="-1168.776" y1="63.544" x2="-1195.329" y2="79.99" gradientTransform="translate(1304.333)" gradientUnits="userSpaceOnUse"><stop offset="0" stop-color="#fff"/><stop offset="1" stop-color="#fff" stop-opacity="0"/></linearGradient><linearGradient id="linear-gradient-3" x1="-1281.976" y1="93.454" x2="-1194.651" y2="93.454" gradientTransform="translate(1304.333)" gradientUnits="userSpaceOnUse"><stop offset="0" stop-color="#fff"/><stop offset="0.655" stop-color="#76777a"/><stop offset="1" stop-color="#e5e6e7"/></linearGradient><linearGradient id="linear-gradient-4" x1="-1273.044" y1="88.217" x2="-1236.66" y2="88.217" xlink:href="#linear-gradient-2"/></defs><path class="cls-1" d="M22.733,93.511s-.939,4.441,1.784,10.7,4.219,10.365,11.534,14.807,14.351,7.745,31.424,7.972,25.231-6.036,29.826-9.339,9.755-11.162,10.6-16.514a28.486,28.486,0,0,0,.093-9.111l-83.385-.342Z"/><path class="cls-2" d="M97.676,79.559l3.846-2.79a46.232,46.232,0,0,1,4.69,2.562c1.688,1.139,2.812,2.164,2.812,3.872s0,2.675-.514,2.9a22.42,22.42,0,0,0-2.3,1.652,56.887,56.887,0,0,0-5.346-5.638,28.459,28.459,0,0,0-3.847-2.164Z"/><path class="cls-3" d="M142.745,56.382c-1.642-1.367-9.239.912-16.085,3.132s-13.555,8.029-15.947,9.851-9.285,7.859-9.285,7.859,4.221,2.107,5.394,3.929a13.705,13.705,0,0,1,1.453,5.068,7.994,7.994,0,0,0,1.36-.8,21.8,21.8,0,0,0,4.737-5.353c1.735-2.79,8.911-9.51,11.021-10.876s13.695-4.328,15.148-4.385,1.031-1.481,2.111-3.132S144.386,57.749,142.745,56.382Zm-9.566,4.954c-.941.273-6.613,2.335-7.646,1.025-.923-1.172,3.637-2.618,4.607-2.909.113-.034.178-.051.178-.051s4.877-1.823,6.613-1.311S135.336,60.709,133.179,61.336Z"/><path class="cls-4" d="M108.23,79.5s5.3-4.253,7.454-6.379c2.769-2.732,7.788-7,9.944-7.914s11.443-3.645,12.71-3.873,4.594-.113,2.859,1.537c-.809.771-1.312,1.823-3.517,1.823s-11.489,2.733-14.632,5.181-8.112,8.257-9.943,10.421-3.188,3.7-3.188,3.7S109.354,79.389,108.23,79.5Z"/><path class="cls-5" d="M107.431,92.542c0,11.039-18.75,19.987-41.879,19.987s-41.883-8.948-41.883-19.987S42.422,72.554,65.552,72.554,107.431,81.5,107.431,92.542Z"/><ellipse class="cls-6" cx="66.348" cy="102.621" rx="27.014" ry="11.503"/><path class="cls-7" d="M66.019,73.011c-24.113,0-43.662,9.152-43.662,20.443S41.906,113.9,66.019,113.9s43.663-9.153,43.663-20.443S90.134,73.011,66.019,73.011Zm.093,38.493c-22.4,0-40.566-8.413-40.566-18.791S43.71,73.921,66.112,73.921s40.568,8.414,40.568,18.792S88.517,111.5,66.112,111.5Z"/><path class="cls-8" d="M40.273,80.3s7.535-2.729,12.569-2.05c8.441,1.14,18.2,5.239,13.693,8.656s-13.506.91-19.51,3.644c-11.747,5.351-10.578,9.084-12.943,7.29C31.081,95.561,27.7,87.588,40.273,80.3Z"/><path class="cls-9" d="M61.752,93.4S77.6,95.218,80.417,98.522s3.752,6.149.749,7.857-10.785,4.1-10.785,4.1,14.256-.683,18.478-3.416,5.152-6.7,1.126-9.225C78.166,90.435,61.752,93.4,61.752,93.4Z"/></svg>