<svg id="word" xmlns="http://www.w3.org/2000/svg" viewBox="0 0 160 160"><defs><style>.cls-1{fill:#638c4e;}.cls-1,.cls-3,.cls-4{stroke:#9d4b9c;stroke-miterlimit:10;stroke-width:0.326px;}.cls-2{fill:#a5ac66;}.cls-3{fill:#81ae47;}.cls-4,.cls-5{fill:#a9b93f;}</style></defs><path class="cls-1" d="M56.741,141.5s-9.645-16.42-9.923-27.728,4.324-27.789,2.618-35.305S40.229,57.922,32.3,59.623,21.034,66.14,21.159,69.575s1.943,8.691,5.035,9.232,6.022.577,7.258-1.207,1.052-7.147-.8-6.416S30.08,72.7,31.28,73.846s.079,3.727-.485,1.962-1.37-4.288-1.563-2.281-.369,2.759-1.368,2.244-1.755-.273-1.482-2.028-1.254-3.491-1.825-1.362-2.7-1.5-1.259-3.073,3.166,1.212,4.146-.074-.686-2.143.379-3.6,2.95,1.838,2.95,1.838,1.363-1.826,2.766-3.525,5.619-.683,3.964,1.1-4.052,2.546-2.761,3.106,7.467-4.471,7.693-2.458-5.176,2.071-5.787,4.073-1.333,2.789,1.769,2.492,4.9-3.372,5.579-.81S39.849,75,38.789,76.033,36.418,78.181,38.208,79s6.8-4.814,7.123-3.8,1.608,1.987,1.129,3.531-8.565,1.9-8.9,4.788-1.131,3.419,2.32,2.038,7.1-5.187,7.037-3.639,1.628,3.789.4,4.737-7.511,1.288-9.5,3.315-3.23,3.811-.833,3.046,8.344-4.335,8.494-2.993-1.982,1.19-5.191,3.327-4.258,2.333-5.459,4.663-2.757,6.162-1.278,5.134,2.528-4.7,3.674-5.9,7.864-2.79,7.864-2.79.811,2.1.468,2.769-3.54-1.51-6.493,3.6-3.413,8.457-5.21,11.533-5.207,4.583-2.564,4.155,5.278-3.493,6.53-6.534,5.536-7.467,5.536-7.467l1.5-3.122s.633,6.33.376,6.83-2.034,1.9-5.183,5.964-6.413,7.331-7.413,10.292-1.794,3.06-2.779,5.118c-.416.869-.978,4,2.08.525s6.873-7.2,9.684-11.016a24.873,24.873,0,0,0,3.639-6.445s-1.208,6.224-.8,7.485a8.968,8.968,0,0,0,1.144,2.275s-4.277.533-5.151,3.453-3.821,7.614-6.6,8.5-4.156,1.551-3.995,2.055-1.848,3.148,1.31,1.722a41.411,41.411,0,0,0,9.444-5.242,27.3,27.3,0,0,0,6.5-7.5l1.309,5.836s-6.544,4.315-7.619,6.6-4.587,5.218-7.866,6.266-6.5.966-5.8,1.435,2.209.823,5.523.32,8.222-1.629,10.862-5.113,5.582-7.507,5.582-7.507l4.356,10.882C52.874,140,53.735,144.034,56.741,141.5Z"/><path class="cls-2" d="M117.949,65.582a9.3,9.3,0,0,1,4.268-1.537,11.418,11.418,0,0,0,5.4-1.921,5.152,5.152,0,0,0,1.11-1.177,9.4,9.4,0,0,0-3.392.577,33.891,33.891,0,0,1-5.225,1.041s-1.306.117-.215-.421,4.036-.746,5.282-1.525,5.184-2.02,3.916-2.034-4.6.042-6.141.663-3.138,1.153-3.138,1.153a42.235,42.235,0,0,0,3.408-2.875,27.147,27.147,0,0,1,3.561-2.695s-.77-.1-4.127,1.966c-1.075.66-1.189.3-1.638.378a3.729,3.729,0,0,1-1.092-.035s1.849-2.535,2.335-3.037,2.74-3.032,2.116-2.929A37.77,37.77,0,0,0,120,53.724a3.4,3.4,0,0,1,.874-1.819c.643-.456,3.046-2.853,2.734-2.945s-2.833,1.841-3.809,1.411-1.506-2.95-1.643-3.348-.13-7.916.277-9.3a14.539,14.539,0,0,1,1.4-3.6c.351-.327-.939-1.719-2.706,2.569-.826,2-.944,7.241-.726,9.1s2.074,4.477.338,4.038-3.787-2.117-3.766-1.61,4.587,3.141,4.587,3.141a1.1,1.1,0,0,1-1.793.331c-1.172-.918-4.55-3.845-3.689-2.16s4.941,4.82,4.805,4.995-4.023-3.619-3.845-2.206,4.842,4,3.341,4.206S110.36,51.6,110.44,53.06s7.362,6.392,6.135,6.818-6.992-6.5-7.615-6.108a2.352,2.352,0,0,0-.857.894,19.208,19.208,0,0,0,2.364,2.916c1.622,1.694,5.1,4.292,5.605,4.871a9.08,9.08,0,0,1,1.056,2.173s-.353-1.393-3.085-2.483-5.894-3.023-6.441-4.044-5.061-6.144-3.593-2.489,4.674,8.035,6.7,8.632,6.321,1.86,6.283,2.278-.367,2.4-.367,2.4-.642,1.028-2.379-.271-2.03-.883-3.709-2.093-5.621-3.373-7.964-4.922-2.616-2.059-2.616-2.059a10.7,10.7,0,0,0,4.2,5.891,39.311,39.311,0,0,0,7.885,4.326l3.708,1.807-.365,3.545s-3.665.067-5.755-1.765-4.861-3.078-6.286-4.285-4.8-2.988-6.657-4.752a41.52,41.52,0,0,1-3.106-3.277s-.956-.209-.155.814.9,3.273,4.184,6.817S101.5,73.346,105.426,75s8.663,3.409,8.663,3.409l-.7,2.086s-3.824-1.125-6.38-1.949-5.7-2.536-10.227-5.3a81.081,81.081,0,0,1-9.077-6.036c-1.484-1.3-1.893-.486-.232,1.65s7.289,8.948,10.118,10.282a88.352,88.352,0,0,0,9.581,3.463,43.943,43.943,0,0,0,5.539.771l-1.9,5.026s-3.2-1.515-6.87-3.454-9.249-4.011-11.923-5.585-6.249-4.99-7.85-6.177a7.5,7.5,0,0,0-2.478-1.374s2.033,3.176,3.948,5.888a24.407,24.407,0,0,0,8.182,7.063c3.025,1.534,6.833,4.731,8.668,5.7s7.1.943,7.1.943l-1.321,3.049-.62,2.109a36.18,36.18,0,0,1-4.43-1.948c-4.1-1.922-2.772-2.105-8.664-3.982s-8.178-4.483-11.126-6.281-5.274-5.706-5.274-5.706-.977-1-.467.436-.054,3.063,2.857,6.139A86.222,86.222,0,0,0,89.72,93.8c2.3,1.68,8.529,5.016,11.221,5.665a26.838,26.838,0,0,0,4.877.719s-1.422,1.372-2.239,2.133-3.154,3.226-3.154,3.226,1.052-.693-3.006-1.887-6.926-1.823-9.328-4.034S85.8,96.44,80.379,93.554A41.069,41.069,0,0,1,69.7,85.184c-.391-.688-1.7,0,.121,2.47s4.142,4.656,4.807,6.141,4.927,7.465,6.684,8.7a27.562,27.562,0,0,0,7.182,3.832c2.575.758,8.992,1.715,8.992,1.715s.722-.145.625.471a6.006,6.006,0,0,1-.6,2.329,45.619,45.619,0,0,0-1.982,4.143s-1.269-.874-4.216-2.673-6.986-3.058-10.812-5.329-6.714-3.408-9.409-6.35-8.051-10.1-8.635-9.272,2.033,2.6,4.341,7.15,8.93,11.435,11.293,13.2,5.955,4.831,9.057,5.816a23.583,23.583,0,0,0,6.417.957s-1.087,2.545-1.67,3.948a20.86,20.86,0,0,0-.949,3.8s-1.425-.921-5.506-3.768a149.952,149.952,0,0,0-13-8.266c-4.236-2.32-8.689-6.781-10.876-8.571s-3.458-4.1-3.749-3.108.589,2.608,2.465,5.165,13.5,14.356,15.882,17.206,6.659,5.611,9.057,5.529a31.4,31.4,0,0,1,5.383.438s-.19,3.238-.207,4.451a29.875,29.875,0,0,1-.462,3.587s-.31,1.342,1.269,1.162,1.032-.914,1.032-.914l-.164-5.2.71-7.024s2.4.778,6.145,1.88,12.018,3.25,16.871,1.742,11.383-2.953,12.494-3.557,4.52-2.393,3.057-2.609-5.068,1.087-9.749.569-5.657-.949-8.563-1.446a81.062,81.062,0,0,0-10.591-1.183,60.392,60.392,0,0,0-8.5.363c-.254,0,2.584-5.613,2.584-5.613s-1.835-1.543,4.876.432,15.763,4.066,19.914,2.638,13.582-5.814,14.751-6.33.076-1.123-2.2-.29-5.478.751-9.964.434a87.269,87.269,0,0,1-10.435-1.71c-2.828-.475-3.766-1.323-7.665-.752s-7.349,1.346-7.349,1.346a35.107,35.107,0,0,1,2.509-3.916c.74-.785,1.888-2.381,1.888-2.381s.7-.366,6.436.605,14.178,1.093,17.335.16,11.478-4.714,9.314-4.85-4.972.757-8.891.821a32.405,32.405,0,0,1-8.484-.563c-4.369-.713-5.54-1.63-7.7-.906s-6.372,2.35-6.372,2.35,3.483-4.633,3.638-5.16l.349-1.186a53.27,53.27,0,0,0,5.852,1.149c3.179.434,14.177.233,17.079-1.562s9.507-5.8,6.816-5.586-8.359,3.627-13,3.551-5.992-2.981-9.6-2.252a16.182,16.182,0,0,0-6.138,2.706l2.369-6.035a32.727,32.727,0,0,0,7.587.729c3.938-.13,10.275-.628,12.125-2.3s8.318-4.928,6.231-5.327-5.342.289-8.636,1.11a76.612,76.612,0,0,1-9.982,1.646,40.073,40.073,0,0,0-5.3,1.018l-.975.429,1.241-4.5a26.9,26.9,0,0,0,8.757.786c3.8-.528,7.677-3.9,10.151-5.105s7.367-2.845,4.383-3.078-7.5,1.587-10.059,2.2a52.731,52.731,0,0,1-6.8,1.507c-1.911.154-5.712.969-5.712.969l1.184-3.734s6.337.075,8.033-.5,5.691-2.05,7.073-3.576,4.6-3.517,2.568-3.255-4.3,4.248-8.5,4.375-2.419-.712-4.837-.85a5.219,5.219,0,0,0-3.548.818l.249-3.15s4.876,1.006,6.942.038,6.293-3.233,6.661-4.485,1.225-2.719-.315-1.811-4.3,2.242-6.275,2.307-4,.327-4.776.958a15.472,15.472,0,0,0-1.538,1.48Z"/><path class="cls-3" d="M67.707,45.529a9.7,9.7,0,0,0-3.641-3.155,11.764,11.764,0,0,1-4.612-3.965,6.592,6.592,0,0,1-.729-1.7,8.741,8.741,0,0,1,3.075,1.78A32.088,32.088,0,0,0,66.493,41.4s1.214.566.324-.405-3.641-2.185-4.612-3.48-2.832-2.993-1.619-2.589,2.832.567,4.127,1.78,2.67,2.347,2.67,2.347a15.066,15.066,0,0,1-2.751-3.56c-.728-1.619-1.214-2.59-1.214-2.59a7.259,7.259,0,0,1,2.266,1.133,7.923,7.923,0,0,0,1.457.971,3.243,3.243,0,0,0,1.052.324s-1.052-3.48-1.376-4.208-.243-1.618.324-1.3a18.1,18.1,0,0,1,1.942,1.619,4.688,4.688,0,0,0-.324-2.347c-.486-.728-2.166-3.53-1.842-3.53s2.247,2.316,3.3,2.155,2.266-2.833,2.509-3.237,2.346-8.9,2.346-10.6a20.2,20.2,0,0,0-.323-4.532c-.243-.485,1.025-.918,1.313,4.087a38.181,38.181,0,0,1-1.313,10.236c-.728,2.023-3.237,4.369-1.457,4.45S77.5,27,77.336,27.566s-5.259,2.023-5.259,2.023.242,1.618,1.618.971,5.421-2.832,4.127-1.214-6.069,3.8-5.988,4.046,4.855-2.751,4.288-1.214-5.745,2.913-4.369,3.641,7.121-3.56,6.635-1.942-8.82,4.774-7.768,5.664,8.5-5.016,8.982-4.369,2.137-.841,2.137-.841a29.205,29.205,0,0,1-4.646,4.644c-2.023,1.376-6.068,3.156-6.716,3.641a10.359,10.359,0,0,0-1.618,2.1s.728-1.456,3.641-1.78,6.474-1.457,7.283-2.428,6.554-5.259,4.126-1.618-6.716,7.525-8.819,7.525-6.555,0-6.636.486-.323,2.832-.323,2.832.323,1.376,2.346.485S72.562,49.9,74.5,49.09s6.312-1.942,8.982-2.913,3.075-1.457,3.075-1.457A11.4,11.4,0,0,1,80.9,49.98a33.779,33.779,0,0,1-8.739,2.265l-4.045.81-.648,4.126s3.48,1.3,5.988-.081,5.5-1.861,7.2-2.751,5.421-1.78,7.687-3.156a40.5,40.5,0,0,0,3.884-2.67s.971.081-.081.971-1.78,3.4-5.907,6.312-5.017,3.965-9.225,4.531-9.224.971-9.224.971l.081,2.589s3.965,0,6.635-.081,6.15-.971,11.247-2.589a71.9,71.9,0,0,0,10.358-3.8c1.78-.971,1.942.081-.243,1.942S86.4,67.053,83.324,67.62a74.54,74.54,0,0,1-10.115.728,37.4,37.4,0,0,1-5.5-.971l.405,6.311s3.479-.647,7.525-1.618,9.953-1.457,12.947-2.347,7.363-3.56,9.224-4.369a6.457,6.457,0,0,1,2.751-.728s-2.832,2.913-5.421,5.34-6.155,4.517-9.549,4.4c-8.325-.28-6.353,3.946-10.114,4.417-2.064.259-7.114-2.685-7.114-2.685l.479,5.274v2.59a30.642,30.642,0,0,0,4.774-.728c4.45-.81,3.237-1.457,9.386-1.619s9.063-2.346,12.381-3.4,6.635-4.694,6.635-4.694,1.214-.809.323.648-.809,3.479-4.45,5.988A81.4,81.4,0,0,1,86.722,86.8c-2.67,1.133-9.548,2.832-12.3,2.67s-5.292-3.453-5.292-3.453,1.408,4.667,1.975,5.8a51.568,51.568,0,0,1,1.682,5.653s-.388-2.093,3.82-2.093,7.121.243,10.034-1.456,3.074-2.833,9.062-4.289,11.976-5.26,12.542-5.907,1.619.566-.809,2.751-5.259,3.884-6.311,5.341-6.8,6.8-8.82,7.606a23.784,23.784,0,0,1-7.93,1.942,85.913,85.913,0,0,1-9.063-1.052s-.647-.405-.728.324a8.376,8.376,0,0,0-.081,2.832c.243.647.728,5.34.728,5.34s1.457-.566,4.774-1.618,7.526-1.133,11.814-2.428,7.364-1.618,10.762-4.045,10.519-8.739,10.843-7.607-2.67,2.266-6.15,6.636S95.542,109.7,92.791,110.91s-7.04,3.48-10.276,3.56a20.138,20.138,0,0,1-6.393-1.051s.324,3.236.486,5.016a29.067,29.067,0,0,1-.162,4.613s1.618-.567,6.312-2.428A131.83,131.83,0,0,1,97.484,115.6c4.694-1.213,10.2-4.774,12.785-6.068s4.451-3.48,4.451-2.266-1.3,2.751-3.8,5.017-16.912,11.733-19.987,14.16-7.93,4.127-10.2,3.237a27.022,27.022,0,0,0-5.26-1.295s-.728,3.722-1.052,5.1-1.557,8.5-1.557,8.5-.081,1.618-1.537.89S70.6,141.5,70.6,141.5l2.608-10.12,1.3-8.173s-2.508.081-6.392.081-12.381-.323-16.588-3.641S41.49,112.528,40.6,111.477s-3.641-4.208-2.185-3.965,4.531,2.913,9.144,3.884a75.582,75.582,0,0,0,8.577,1.213,69.271,69.271,0,0,1,10.438,2.185,54.089,54.089,0,0,1,8.011,3.237c.243.081-.89-7.2-.89-7.2s2.185-1.133-4.774-1.133-16.184-.647-19.744-3.641S37.849,94.969,36.878,94s.242-1.294,2.184.405,5.017,2.67,9.387,3.8,7.606,1.133,10.438,1.538,3.965-.243,7.525,1.7,6.636,3.965,6.636,3.965a47.541,47.541,0,0,0-1.3-5.26c-.486-1.133-1.133-3.317-1.133-3.317s-.566-.648-6.311-1.457S50.472,91.9,47.721,89.791s-9.63-9.144-7.526-8.577,4.532,2.508,8.254,3.884A28.069,28.069,0,0,0,56.7,87.282c4.37.648,5.745,0,7.607,1.538s5.421,4.774,5.421,4.774-2.023-6.393-2.023-7.04V85.1A44.947,44.947,0,0,1,61.8,84.45c-3.156-.566-13.594-4.45-15.86-7.444S38.5,67.3,41,68.429s6.959,6.878,11.41,8.334,6.554-1.375,9.791.648a17.374,17.374,0,0,1,5.1,5.1L66.736,74.9a28.061,28.061,0,0,1-7.444-1.7c-3.723-1.457-9.629-4.127-10.924-6.635s-6.554-8.335-4.451-8.092,5.017,2.1,7.93,4.127a71.693,71.693,0,0,0,9.063,5.178,38.109,38.109,0,0,1,4.774,2.913l.944,1.557L66.574,66s-5.1-.162-8.577-2.023-6.231-6.959-8.254-9.143-6.23-5.664-3.317-4.936,6.716,4.288,8.982,5.826a50.606,50.606,0,0,0,6.068,3.965,58.778,58.778,0,0,1,5.179,2.994l-.081-4.613s-6.069-2.023-7.525-3.236-4.855-4.208-5.745-6.393-3.4-5.5-1.538-4.531,2.913,6.231,6.878,7.768,2.509,0,4.855.647a5,5,0,0,1,3.129,3.082l.674-4.619s-4.935-.486-6.635-2.266-5.1-5.745-5.1-7.282-.4-3.48.81-1.942,3.479,3.965,5.34,4.693,3.722,1.7,4.289,2.67,1.39,2.779,1.39,2.779Z"/><path class="cls-4" d="M88.857,143.244s18.178-16.821,20.841-22.63c3.176-6.93,2.47-15.687,4.584-19.445s8.461-9.343,12.9-6.788,5.689,5.868,5.11,7.72-2.427,4.351-4.332,4.014-3.641-.918-4.108-2.147.431-4.121,1.416-3.342,1.3,1.356.419,1.736-.6,2.021,0,1.171,1.44-2.062,1.258-.926-.188,1.584.478,1.507,1.076.21,1.173-.805,1.255-1.651,1.279-.371,1.816-.266,1.2-1.421-2.049.014-2.438-.889.72-1.032.3-2.043-2.012.4-2.012.4-.536-1.276-1.114-2.492-3.217-1.525-2.5-.213,2.018,2.221,1.173,2.263-3.751-3.973-4.181-2.919,2.752,2.191,2.818,3.411.376,1.8-1.412,1-2.4-2.846-3.175-1.585,1.927,2.789,2.4,3.571,1.084,1.659-.093,1.74-3.307-4.024-3.646-3.539-1.242.757-1.186,1.7,4.777,2.794,4.547,4.438.165,2.1-1.67.639-3.428-4.288-3.619-3.43-1.519,1.737-.935,2.506,4.245,2.243,5.124,3.758,1.346,2.745.044,1.836-4.289-4.078-4.576-3.376,1,1.057,2.576,2.882,2.171,2.147,2.537,3.666.72,3.933,0,3.068-.8-3.086-1.3-3.977-4.233-3.136-4.233-3.136-.789.984-.684,1.418,2.313-.1,3.3,3.3.771,5.321,1.379,7.37,2.4,3.57.9,2.8-2.6-2.99-2.893-4.908a21.437,21.437,0,0,0-2.17-5.215l-.429-2.014a27.85,27.85,0,0,0-1.227,3.656c.079.325.921,1.455,2.182,4.321s2.708,5.32,2.863,7.142,1.666,3.6,1.507,4.121-.632,1.634-1.925-.893-3-5.343-4.1-8a15.058,15.058,0,0,1-1.2-4.267s-.2,3.648-.626,4.255a4.519,4.519,0,0,1-1.011,1.009s2.448,1.167,2.534,2.942,1.135,4.944,2.643,6,3.231,2.527,3.061,2.77-.377,1.27-2.032-.156a29.185,29.185,0,0,1-4.805-4.8,17.65,17.65,0,0,1-2.734-5.428l-2.081,2.5s3.678,4.123,3.976,5.595a10.022,10.022,0,0,0,3.722,5.035c1.782,1.244,3.7,1.86,3.211,1.972s-1.425,0-3.308-.957-4.747-1.678-6.285-3.847c-1.382-1.948-3.3-3.44-2.832-6.283l-14,12.777A24.964,24.964,0,0,0,88.857,143.244Z"/><path class="cls-5" d="M48.214,129.533a58.919,58.919,0,0,1,.959,6.3,15.63,15.63,0,0,0,.692,3.85,12.152,12.152,0,0,1-.781,4.173c.145.277,49.191.192,49.191.192l.3-.1-.908-.675-.1-1.444a19.238,19.238,0,0,0,.937-4.68c.016-1.5-.875-4.036-.835-4.875.038-.805.535-5.305.573-5.653-.052.467-.872,7.818-.868,8.922a28.009,28.009,0,0,1-.45,5.168c-.271.628-.381-.934-.381-.934l-.422-4.8,1.124-3.071.017-.4-2.457,3.5a15.039,15.039,0,0,1-.176,4.082,13.381,13.381,0,0,0-.467,2.467c-.079.166.007-3.225-.209-5.058s-.2-5.008-.527-6.068a10.456,10.456,0,0,0-1.071-2.2s.741,4.174.528,4.6.212,7.669.095,8a4.007,4.007,0,0,0,.221,1.422,8.748,8.748,0,0,0-.969-2.046,18.507,18.507,0,0,1-1.335-4.063s.363-6.155.467-6.686.746-5.146.746-5.146-.777,3.512-1.222,5.011-1.545,3.395-1.159,3.831a3.233,3.233,0,0,1,.405,1.593l.135.679a3.5,3.5,0,0,0-.683-1.113c-.307-.2-.373-1.768-.373-1.768s.06-6.091-.059-6.253a7.226,7.226,0,0,1-.1-1.523s-.54,2.74-.613,3.436-.155,6.58.192,7.254.693-.685.693-.685a5.917,5.917,0,0,1,.957,1.791,3.363,3.363,0,0,1,.195,1.456l.5,2.2s-1.112-2.563-1.433-3.085A7.815,7.815,0,0,0,88.2,135.8s.415-2.612-.142-3.134-3.236-5.275-3.236-5.275l2.2,5.082.95,2.094.1,2.054s.869,1.369.814,1.723a10.352,10.352,0,0,0,1.31,2.287l.788,1.665-.552-.023c-.234-.455-1.98-3.286-1.98-3.286l1.328,3.258h0L87.7,137.66l1.539,4.524s-2.442-5-2.409-5.184-.929-4.6-1-4.838.3,4.375.3,4.375L88,142.168l-1.032-.045c-.436-1.2-1.86-5.448-1.86-5.448l-.982-15.166.079,13.528a5.648,5.648,0,0,0-.58-1.872,14.351,14.351,0,0,1-.554-4.632c.051-.67.237-3.527.237-3.527s-.688,3.546-.938,4.865.988,7.095,1.14,7.959.595,2.375.649,2.742a3.921,3.921,0,0,1-.349,1.292,13.586,13.586,0,0,1-1.054-3.606c.032-1.081-1.668-6.126-1.668-6.126s.789,6.121.8,6.673.2,2.139.2,2.139-.986-4.551-1.727-5.761-.083-6.387.087-7.719.878-3.963.878-3.963-1.795,3.12-1.919,4.561.075,7.147.075,7.147-.883-6.575-.7-6.712-1.946-7.319-1.946-7.319l1.1,7.045,1.052,9.662-.219,3.886-.685-.03a8.393,8.393,0,0,1-.182-1.557c.076-.206.576-4.607.576-4.607l-.819,2.928-.285,3.206-.055,0-.69-2.78-.534-8.238-1.006-4.315.567,7.28.605,7.709-.923-4.4-.838-3.705-1.091-1.91-1.019,2.431,1.254-1.24.645,1.927a36.257,36.257,0,0,0,.619,5.3,3.266,3.266,0,0,1,.192,1.656,17.62,17.62,0,0,1-1.984-3.261c-.475-1.277-1.256-4.262-1.256-4.262l.655-6.384-1.128,6.038-1.407-6.619.759,10,.77,2.574.415,1.962-.325-.014c-.273-.433-.583-.916-.712-1.083a27.017,27.017,0,0,1-1.135-2.74s-.956-5.926-1.244-5.963,1.046-9.428,1.046-9.428L67.787,133.5l.262,1.711L66.64,130.86l1.48-10.933-1.96,11.294-.5,4.784,1.191,3.111-.263,2.131-.2-.009a1.741,1.741,0,0,1-.972-1.4c-.029-1.035.67-1.06.226-1.834a4.476,4.476,0,0,1-.766-2.383c.045-.813.036-4.759.036-4.759l-.9,3.725.889,4.13a11.754,11.754,0,0,1-.3,1.934c-.061.05.069.286.165.516l-.6-.026c-.344-.623-.585-1.629-.316-1.846.391-.317-.306-2.322-1.078-3.676s-.609-2.808-.516-4.979,1.406-2.9,1.676-4.968,1.02-5.415,1.02-5.415l-1.572,4.524-1.694,5.267.019,4.915.713,4.333.11.665-.467,1.052s-.088-.465-.223-1.17c-.41-2.151-1.251-6.543-1.345-6.842a22.858,22.858,0,0,0-1.918-4.053c-.715-.969-2.1-3.852-2.389-4.153a1.555,1.555,0,0,1-.266-.563l.464,2.028,3.787,6.931,1.45,7.542-2.3-5.137-1.7-4.96-.356-.909,1.417,6.019,1.628,5.229-1.072-.046c-.3-.675-.771-2.019-.771-2.019s.372-1.989-.022-2.556-.173,1.094-.173,1.094l-.035,3.438-.144-.006-1.117-4.427s-1.373-8.6-1.356-8.887c.007-.125.134-1.691.273-3.4-.075-.26-.13-.528-.159-.686l-.626,4.566.9,7.617s1.019,4.265.762,4.421-.845-2.494-.845-2.494l-.944-2.641-1.209-3.7-.1,1,2.061,6.052a13.816,13.816,0,0,1-.2,2.345,1.45,1.45,0,0,0-.126.118l-.539-.023a4.771,4.771,0,0,0,.12-2.763c-.527-1.291-1.436-5.769-1.714-6.642a3.922,3.922,0,0,1,.163-2.286,32.941,32.941,0,0,0-.032-4.383l-.343,2.629.15,6.067.685,5.594a3.259,3.259,0,0,1,.422,1.252c-.047.4-.707-.285-1.3-1.38s-.947-6.436-.947-6.436.382-6.936.284-7.263-1.254-3.611-1.254-3.611,1.09,3.743.8,4.307-.174,7.433-.326,8.388a36.5,36.5,0,0,0,.337,4.921s-1.175-5.175-1.892-6.2-1.36-2.753-1.834-3.171"/></svg>