<svg id="word" xmlns="http://www.w3.org/2000/svg" viewBox="0 0 160 160"><defs><style>.cls-1{fill:#de3e26;}.cls-1,.cls-2,.cls-3{stroke:#9d4b9c;}.cls-2{fill:#809056;}.cls-3{fill:none;}.cls-4{fill:#811517;opacity:0.21;}.cls-5{fill:#74844e;}.cls-6{fill:#9e9853;}</style></defs><path class="cls-1" d="M90.17,58.377a4.89,4.89,0,0,0-3.831-4.625c-3.832-.925-12.685.661-15.2,1.057s-7.8,1.718-9.646,1.718-9.248,2.378-11.758,5.02S44.982,72.514,44.718,88.9s.528,20.216,2.51,22.066,5.55,2.113,6.739,6.078,5.681,14.27,13.212,14.8,16.121-2.906,18.235-4.756,3.566-.792,5.153,1.058,8.587,3.567,13.344.924,8.589-7,9.645-9.91.265-12.023,4.626-18.233a27.382,27.382,0,0,0,5.153-15.856c0-3.7-5.947-12.948-7.664-12.948s-.4-1.454-1.321-3.832-10.967-5.946-14.4-7.663S91.36,58.64,90.17,58.377Z"/><path class="cls-2" d="M81.978,62.34S80,62.472,80,61.547s1.057-3.039.133-1.849a3.318,3.318,0,0,1-3.039,1.321c-.794-.132-3.172-1.85-2.907-1.189a14.636,14.636,0,0,0,.924,1.717s-5.285,1.586-3.3,2.643,1.321,1.453.661,1.717-.4,1.586.793,1.982-.291-.342,2.352,1.772,3.027.536,5.933,1.46,5.191,3.243,6.909,3.111.661-.793,4.228-.264,3.965-.661,5.418.66,1.586,0,1.586,0a1.8,1.8,0,0,1,1.453-.528c1.057,0,.132-2.643-.529-2.907s2.775-2.775,1.322-2.907-4.1-2.246-4.1-2.246,0-.793-1.718-.793S82.771,62.34,82.771,62.34Z"/><path class="cls-3" d="M56.608,87.709C54.145,91.686,54.849,98.543,54.5,103.1c-.4,5.125-1.11,6.895-1.11,12.1"/><path class="cls-4" d="M71.718,128.576c11.538-2.27,11.912-22.268,15.82-30.788,1.422-3.1,4.113-10.182,8.353-7.013,4.123,3.082,1.916,13.341.9,17.284-1.245,4.827-4.383,11.2.77,14.552,3.679,2.4,9.605.464,11.532-3.329.861,5.075-2.934,8.371-7.538,9.449-6.085,1.425-7.654-2.411-12.256-3.99-6.958-2.386-12.617,5.987-19.827,5.553"/><path class="cls-3" d="M62.555,62.472S72.729,70,77.618,71.986s13.742,3.038,16.913,3.3,7.4-.4,6.738,3.832S97.305,90.879,96.116,96.3a43.926,43.926,0,0,0-.925,10.439"/><path class="cls-4" d="M50.73,83.1s4.562,3.567,3.815,7.3-1.824,20.239-1.824,20.239.332,3.815-1.079,2.405-4.976-1.908-4.478-4.23S47.412,82.439,50.73,83.1Z"/><path class="cls-5" d="M98.92,72.32c0,1.855-4.653-.167-10.907-.167S75.2,67.788,75.2,65.933s6.562-.5,12.814-.5S98.92,70.464,98.92,72.32Z"/><path class="cls-2" d="M79.071,66.171s-1.981,2.115,1.982,3.04,5.285.661,6.606,1.453,7.267,2.114,7.664.529a13.373,13.373,0,0,0-.529-5.946c-.528-1.85-1.717-4.36.529-7.267s7-9.513,8.192-9.909,1.321-1.851,2.907-.793,4.888,3.435,6.606.66-1.85-6.738-4.1-7.8-3.832-4.493-9.248.793S88.321,56.394,86.866,58.64,79.071,66.171,79.071,66.171Z"/><path class="cls-6" d="M91.566,53.191s7.139-10,8.473-11.232,4-4.378,5.616-2.951,6.093,3.046,5.426,3.713-1.429,1.427-2.666.856-2.855-1.9-5.426.381-14.053,15.831-15.1,17.164S87.949,57,91.566,53.191Z"/></svg>