<svg id="word" xmlns="http://www.w3.org/2000/svg" xmlns:xlink="http://www.w3.org/1999/xlink" viewBox="0 0 160 160"><defs><style>.cls-1,.cls-18{fill:none;}.cls-2{clip-path:url(#clip-path);}.cls-3{fill:#f5abcb;}.cls-10,.cls-12,.cls-13,.cls-14,.cls-15,.cls-16,.cls-17,.cls-18,.cls-20,.cls-21,.cls-22,.cls-24,.cls-3,.cls-4,.cls-5,.cls-6,.cls-7,.cls-8,.cls-9{stroke:#9d4b9c;stroke-miterlimit:10;}.cls-15,.cls-16,.cls-17,.cls-18,.cls-22,.cls-3,.cls-4,.cls-6,.cls-7,.cls-8{stroke-width:0.854px;}.cls-16,.cls-4{fill:#fde2d4;}.cls-5{fill:#adafb1;}.cls-10,.cls-12,.cls-13,.cls-14,.cls-20,.cls-21,.cls-24,.cls-5,.cls-9{stroke-width:0.341px;}.cls-6{fill:#f9af18;}.cls-7{fill:#fcc136;}.cls-8{fill:#d8801a;}.cls-9{fill:#00c1f2;}.cls-10{fill:#ed342e;}.cls-11{fill:#9d4b9c;}.cls-12{fill:#6b5fa8;}.cls-13{fill:#f16b48;}.cls-14{fill:#eb008b;}.cls-15{fill:#f3b840;}.cls-16,.cls-18{stroke-linecap:round;}.cls-17,.cls-23,.cls-24{fill:#fff;}.cls-19{fill:#d89b2f;}.cls-20{fill:#6a63ab;}.cls-21{fill:#52ba7a;}.cls-22{fill:#ee62a3;}</style><clipPath id="clip-path"><rect class="cls-1" x="14" y="14" width="132" height="132"/></clipPath></defs><g class="cls-2"><path class="cls-3" d="M97.35,53.946c-1.9,3.9-6.121,23.949-6.121,23.949S117.4,82.961,121.2,84.86s13.056,7.88,13.056,7.88-4.251-20.333-6.948-31.1-13.764-14.353-13.764-14.353h0l-12.2,4.1Z"/><path class="cls-4" d="M44.547,56.958s-2.6-2.492-2.5-3.548.317-4.854-1.9-3.8-.422,7.347-.422,7.347l.124,1.169Z"/><path class="cls-4" d="M97.35,46.867s4.876,13.371,9.309,11.26S117.191,37.58,117.191,37.58Z"/><path class="cls-5" d="M53.9,55.291l-2.142-4.625s.211-.527,1.583,0,4.314,3.754,4.314,3.754Z"/><path class="cls-6" d="M115.87,151.581l-3.62,40.075a7,7,0,0,0,7.069,5.627c6.509-.036,6.467-6.9,6.467-6.9v-38.8Z"/><path class="cls-6" d="M88.276,133.473l-3.044,38.638s.026,5.771,5.2,6.2a6.723,6.723,0,0,0,6.9-3.872V141.93Z"/><path class="cls-7" d="M98.977,150.89l8.224,72.6a17.6,17.6,0,0,0,13.8,5.653c9.055-.269,8.623-11.892,8.623-11.892l-13.8-70.808Z"/><path class="cls-7" d="M61.327,161.879l1.409,17.5a23.611,23.611,0,0,0,10.57,4.1c6.7.992,8.456-7.616,8.456-7.616l-2.114-17.679Z"/><path class="cls-8" d="M-122.741,102.477s-8.473,12.431-3.163,24.444S-91.561,166.38,17.09,165.937s128.1-32.607,126.543-38.169-2.8-23.929-2.8-23.929Z"/><ellipse class="cls-7" cx="9.652" cy="109.496" rx="133.981" ry="45.508"/><polygon class="cls-3" points="93.973 55.521 79.94 68.08 59.236 69.927 61.177 77.262 91.904 73.462 93.973 63.12 97.35 53.946 93.973 55.521"/><path class="cls-3" d="M125.4,52.862a3.954,3.954,0,0,0-5.623,1.508c-2.111,3.648-4.7,9.064-5.331,12.495s-5.7,6.386-5.277,7.442,3.749,2.533-.025,2.533-4.83.844-8.84.844-6.373-2.119-7.6-2.111-3.588,3.588-3.588,3.588a30.476,30.476,0,0,1-1.478,5.066,5.222,5.222,0,0,1-2.11,2.533s2.744,3.588,4.221,5.91,21.952.633,27.44-2.111,8.654-6.754,10.764-14.353S128.99,56.661,125.4,52.862Z"/><path class="cls-9" d="M36.983,58.9s10.553-2.955,15.2-3.377a43.706,43.706,0,0,0,10.332-2.744,27.659,27.659,0,0,0-.675,12.377c1.266,6.332-3.114,4.509-1.214,8.308s6.332,15.2,6.332,15.2-7.81,3.8-10.976,3.8-4.854.633-9.709,0a59.2,59.2,0,0,0-9.287-.422s1.477-3.166,0-10.976S33.816,59.32,33.816,59.32Z"/><path class="cls-4" d="M33.816,57.21a2.061,2.061,0,0,0-1.423,2.551c.79,2.855,1.505,3.158,3.366,3.888,3.812,1.5,4.151-.452,2.405-2.553C37.4,60.17,33.816,57.21,33.816,57.21Z"/><path class="cls-4" d="M36.455,53.305a3.21,3.21,0,0,0-1.768,4.327c1.135,3.271,5.251,4.221,5.884,4.01s.981-3.846,0-4.531S38.038,53.094,36.455,53.305Z"/><path class="cls-4" d="M31.992,65.329s-.814,2.856.769,3.7,2.137,1.5,3.061,0C36.877,67.313,32.52,64.411,31.992,65.329Z"/><path class="cls-5" d="M68.389,69.191,57.655,62.808,46.8,54.37a19.383,19.383,0,0,0,.093,3.757c.2.78,1.644,3.454,5.5,6.3,1.822,1.346,7.364,3.376,8.133,3.654.256.092,1.051.472,2,.939,1.909.938,4.438,2.227,4.438,2.227Z"/><polygon class="cls-5" points="63.156 73.462 60.517 74.557 60.517 68.08 62.517 69.019 63.156 73.462"/><path class="cls-10" d="M69.171,68.924a2.632,2.632,0,0,0-2.216,2.955c.317,2.533,2.533,5.383,2.85,5.383a13.484,13.484,0,0,0,2.216-1.689s-2.744-4.17-1.267-4.882,3.483.555,3.483.555l3.694.633s-2.111-3.694-4.433-3.8A10.209,10.209,0,0,0,69.171,68.924Z"/><path class="cls-10" d="M66.928,74.729a7.36,7.36,0,0,0-3.772-1.267A4.043,4.043,0,0,0,59.251,77.9c.211,2.638,1.646,5.167,3.905,6.015a14.68,14.68,0,0,0,3.772.95l-2.4-2.308s-3.09-2.1-2.691-3.813,1.635-2.849,2.9-1.477.844,2.427.844,2.427a4.692,4.692,0,0,0,2.533-.528C68.96,78.528,67.638,75.153,66.928,74.729Z"/><path class="cls-4" d="M71.071,71.985s5.725-.431,7.717.682,5.063,5.168,5.063,5.168l5.242.568s.457,3.291-.181,5.085a6.289,6.289,0,0,1-2.838,2.886L81.73,85.282s-1.794,4.644-5.277,5.277a5.938,5.938,0,0,1-5.382-1.477,9.307,9.307,0,0,0-2.682-.739A3.49,3.49,0,0,1,66,86.234s-.628-1.587-1.051-2.635-1.138-2.805-1.138-2.805-.445-2.688.821-1.633.845,1.267,3.483,0a9.49,9.49,0,0,0,3.905-3.588L70.354,71.9Z"/><path class="cls-11" d="M71.1,88.464a6.84,6.84,0,0,0,4.126-1.991,7.269,7.269,0,0,1-3.96,2.829Z"/><path class="cls-11" d="M65.769,85.194a14.613,14.613,0,0,0,3.02.673,4.834,4.834,0,0,0,2.979-.642,5.036,5.036,0,0,1-2.982,1.068,15.152,15.152,0,0,1-3.2-.266Z"/><path class="cls-11" d="M64.66,81.983a13.073,13.073,0,0,0,3.651,1.106A4.388,4.388,0,0,0,71.855,82a4.6,4.6,0,0,1-3.562,1.516,13.7,13.7,0,0,1-3.915-.727Z"/><polygon class="cls-12" points="61.045 107.023 71.179 103.54 76.415 107.973 65.675 107.973 61.045 107.551 61.045 107.023"/><polygon class="cls-13" points="57.246 100.691 52.813 101.746 55.029 105.123 60.517 103.54 57.246 100.691"/><path class="cls-14" d="M49.014,101.43s-2.216,2.955-3.694,3.693a29.885,29.885,0,0,1-4.137,1.478V101.43Z"/><path class="cls-4" d="M32.761,61.642s-1.9,1.583-.633,3.061,4.644,3.27,4.96,2.162,1.161-1.872,0-2.439S32.761,61.642,32.761,61.642Z"/><circle class="cls-11" cx="61.177" cy="66.207" r="0.659"/><path class="cls-4" d="M81.557,3.89s.178,13.948,0,17.167-3.6,13.412.079,18.6,16.015,8.763,21.2,9.836,17.525-4.828,22.354-8.405,7.332-14.664,8.047-21.817S131.808-1.3,129.3-4.873s-6.127-8.226-22.645-6.438S81.557,3.89,81.557,3.89Z"/><path class="cls-15" d="M109.275-10.238S106.95-1.654,102.3,1.923a78.331,78.331,0,0,0-6.975,5.9s1.789-3.577,3.219-6.617-2.5,1.967-5.186,4.471a12.248,12.248,0,0,1-5.365,3.04L92.644-.76s-3.04,4.113-5.9,5.723a17.753,17.753,0,0,0-5.127,5.185S83.138,1.68,84.26.5s-4.148,11.621-4.32,14.84a55.937,55.937,0,0,1-1.066,7.332S74.4,8.182,76.728,3.353s-4.47,4.292-4.47,4.292.826-17.168,6.8-23.6c6.477-6.986,18.3-10.961,26.646-9.121,3.313.731,4.291.081,9.477-.138s23.606,4.609,27,11.405,3.4,35.765,1.43,42.382-5.365,11.266-5.543,13.77,2.5,0-1.968,1.43-18.908,4.2-18.908,4.2,9.581-5.92,10.207-12.426.654-8.224.3-11.264-.536-7.69-.536-7.69.715,5.544-.536,8.763-.358-1.252-.537-7.511-.536-11.087-.536-11.087.178,3.576-1.61,5.722-.894-4.828-1.609-8.226-1.073-7.689-2.683-3.755-3.4,5.007-3.4,5.007l1.073-8.226S111.314-1.3,108.6,1.386a23.643,23.643,0,0,0-3.97,5.007s.49-5.186,2.033-8.047S109.275-10.238,109.275-10.238Z"/><path class="cls-16" d="M94.616,34.786a14.812,14.812,0,0,0,11.261.556c1.645-.593,3.331-1.676,3.713-3.383"/><path class="cls-17" d="M87.691,16.672s5.074,3.761,3.069,7.137-6.631,1.906-7.669-.331S82.632,14.617,87.691,16.672Z"/><path class="cls-11" d="M86.059,21.132a2.725,2.725,0,0,1,1.055,3.386,2.111,2.111,0,0,1-3.152.507,2.725,2.725,0,0,1-1.055-3.386,2.111,2.111,0,0,1,3.152-.507"/><path class="cls-17" d="M110.047,16.3s5.074,3.761,3.069,7.137-6.631,1.906-7.668-.33S104.989,14.246,110.047,16.3Z"/><path class="cls-11" d="M108.415,20.761a2.725,2.725,0,0,1,1.056,3.385,2.111,2.111,0,0,1-3.152.507,2.724,2.724,0,0,1-1.055-3.386,2.11,2.11,0,0,1,3.151-.506"/><path class="cls-18" d="M84.5,13.685a5.229,5.229,0,0,1,6.346-1.748"/><path class="cls-18" d="M106.018,11.3c1.367.295,2.776-.122,4.172-.221s3.032.283,3.627,1.55"/><path class="cls-18" d="M95.4,29.131A2.058,2.058,0,0,1,97.5,27.253a4.075,4.075,0,0,1,2.752,1.343"/><path class="cls-11" d="M114.429-24.8a19.308,19.308,0,0,0,2.935,5.331c1.219,1.671,2.54,3.278,3.889,4.864,1.333,1.6,2.756,3.131,3.977,4.863,1.2,1.736,2.272,3.515,3.308,5.346a16.939,16.939,0,0,1,1.282,2.893,14.507,14.507,0,0,1,.607,3.105c.178,2.1.154,4.179.167,6.269a36.274,36.274,0,0,1-.5,6.244,16.987,16.987,0,0,1-2.138,5.854c2.139-3.645,2.452-7.972,2.407-12.1-.05-2.08-.066-4.177-.28-6.234a14.16,14.16,0,0,0-.646-3.014,16.572,16.572,0,0,0-1.3-2.8c-1.051-1.78-2.17-3.558-3.374-5.232-1.218-1.657-2.658-3.178-4.018-4.76-1.376-1.572-2.731-3.171-3.994-4.853a19.984,19.984,0,0,1-3.139-5.547Z"/><path class="cls-11" d="M116.288-25.1a82.563,82.563,0,0,1,6.168,6.406c1.957,2.214,3.862,4.471,5.739,6.749a37.355,37.355,0,0,1,4.867,7.45,26.616,26.616,0,0,1,2.508,8.527,69.488,69.488,0,0,1,.343,8.862,44.38,44.38,0,0,1-.757,8.826c-1.212,5.824-4.07,11.11-7.169,16.1,3.036-5.03,5.82-10.349,6.948-16.145a44.179,44.179,0,0,0,.64-8.782,69.206,69.206,0,0,0-.452-8.8c-.7-5.853-3.663-11.168-7.447-15.6-1.9-2.254-3.82-4.486-5.79-6.672a82.226,82.226,0,0,0-6.161-6.274Z"/><path class="cls-11" d="M104.058-25.659a6.135,6.135,0,0,1-1.855,1.926c-.68.509-1.383.966-2.095,1.405-1.425.882-2.891,1.655-4.305,2.5a85.741,85.741,0,0,0-8.216,5.536,18.764,18.764,0,0,0-3.578,3.356,10.2,10.2,0,0,0-1.923,4.46c-.605,3.249-.169,6.611-.595,9.9.35-3.3-.168-6.63.366-9.944a10.483,10.483,0,0,1,1.872-4.628A19.1,19.1,0,0,1,87.3-14.66a86.486,86.486,0,0,1,8.14-5.766c1.408-.9,2.874-1.677,4.254-2.565.692-.441,1.374-.9,2.014-1.392A5.629,5.629,0,0,0,103.278-26Z"/><path class="cls-19" d="M95.4,105.757H92.65L95.4,124.136l13.2-.271.7,6.967s18.966-6.3,19.729-6.7,10.04-4.632,10.04-4.632l-11.761-16.848Z"/><path class="cls-20" d="M106.109,111.667l5.172,12.031.844,4.01s8.443-1.9,14.142-3.905,16.991-8.548,17.941-9.392S146,112.933,146,112.933s-9.709-7.176-11.82-8.232-4.643-5.382-4.643-5.382l-24.38,8.865Z"/><path class="cls-21" d="M93.973,104.385s3.271,10.342,3.377,12.77.422,5.171.422,5.171a60.977,60.977,0,0,0,9.287-.422c3.2-.587,14.67-3.377,18.522-5.7s8.073-4.644,8.073-4.644-8.126-6.543-8.548-7.915-2.533-6.438-2.533-6.438-10.237,3.588-15.725,4.644S93.973,104.385,93.973,104.385Z"/><path class="cls-22" d="M87.951,78.279a19.15,19.15,0,0,1,0,4.375c-.311,1.573-2.421,3.583-2.421,3.583l1.07,1.949s4.77-.874,6.05-3.326-2.106-7.6-2.106-7.6Z"/><path class="cls-22" d="M100.055,52.777,97.35,53.946s.585,6.665,5.243,8.156,7.824-2.984,8.849-4.892,3.762-9.244,3.762-9.244H113.2s-4.418,9.047-7.359,9.244C101.754,57.483,100.055,52.777,100.055,52.777Z"/><circle class="cls-23" cx="98.279" cy="81.071" r="0.929"/><circle class="cls-23" cx="96.451" cy="87.133" r="1.053"/><circle class="cls-23" cx="103.061" cy="84.266" r="0.959"/><circle class="cls-23" cx="94.826" cy="79.289" r="0.853"/><circle class="cls-23" cx="92.512" cy="89.78" r="0.897"/><circle class="cls-23" cx="102.908" cy="90.138" r="0.805"/><circle class="cls-23" cx="107.984" cy="80.759" r="0.617"/><circle class="cls-23" cx="109.903" cy="87.075" r="0.603"/><circle class="cls-23" cx="114.467" cy="82.654" r="0.654"/><circle class="cls-23" cx="114.392" cy="74.864" r="0.807"/><circle class="cls-23" cx="118.377" cy="77.975" r="1.186"/><circle class="cls-23" cx="119.241" cy="70.791" r="0.864"/><circle class="cls-23" cx="120.414" cy="63.981" r="1.173"/><circle class="cls-23" cx="125.003" cy="69.003" r="0.923"/><circle class="cls-23" cx="124.006" cy="76.466" r="0.795"/><circle class="cls-23" cx="119.284" cy="85.173" r="0.907"/><circle class="cls-23" cx="114.94" cy="89.106" r="0.92"/><circle class="cls-23" cx="122.43" cy="57.51" r="0.843"/><circle class="cls-23" cx="124.796" cy="63.191" r="0.79"/><circle class="cls-23" cx="125.262" cy="54.831" r="0.461"/><circle class="cls-23" cx="107.852" cy="90.362" r="0.582"/><circle class="cls-23" cx="104.489" cy="79.938" r="0.776"/><circle class="cls-23" cx="115.599" cy="70.586" r="0.66"/><circle class="cls-23" cx="97.827" cy="61.471" r="0.929"/><circle class="cls-23" cx="95.679" cy="70.586" r="1.053"/><circle class="cls-23" cx="98.989" cy="67.298" r="0.959"/><circle class="cls-23" cx="98.835" cy="74.129" r="0.805"/><circle class="cls-23" cx="103.911" cy="64.749" r="0.617"/><circle class="cls-23" cx="105.831" cy="71.066" r="0.603"/><circle class="cls-23" cx="102.908" cy="70.586" r="0.654"/><circle class="cls-23" cx="109.718" cy="63.191" r="0.807"/><circle class="cls-23" cx="107.852" cy="67.54" r="1.186"/><circle class="cls-23" cx="112.721" cy="66.207" r="0.864"/><circle class="cls-23" cx="103.779" cy="74.353" r="0.582"/><circle class="cls-23" cx="100.417" cy="63.928" r="0.776"/><circle class="cls-23" cx="112.743" cy="59.883" r="0.66"/><circle class="cls-23" cx="80.811" cy="62.107" r="0.929"/><circle class="cls-23" cx="93.039" cy="59.223" r="1.053"/><circle class="cls-23" cx="85.594" cy="65.303" r="0.959"/><circle class="cls-23" cx="85.441" cy="71.175" r="0.805"/><circle class="cls-23" cx="90.516" cy="61.795" r="0.617"/><circle class="cls-23" cx="130.478" cy="87.075" r="0.603"/><circle class="cls-23" cx="97" cy="63.69" r="0.654"/><circle class="cls-23" cx="115.204" cy="55.183" r="0.807"/><circle class="cls-23" cx="89.724" cy="66.986" r="1.186"/><circle class="cls-23" cx="128.166" cy="82" r="0.864"/><circle class="cls-23" cx="90.385" cy="71.398" r="0.582"/><circle class="cls-23" cx="81.74" cy="70.015" r="0.776"/><circle class="cls-23" cx="98.132" cy="51.623" r="0.66"/><path class="cls-19" d="M51.194,117.436l-2.65-.73-2.226,18.45s7.518,2.3,12.8,3.242,29.419-2.986,29.419-2.986l-9.25-16.938Z"/><path class="cls-24" d="M49.806,114.3s.788,12.276.246,14.645-.966,5.1-.966,5.1a61.072,61.072,0,0,0,9.067,2.057c3.239.283,15.04.636,19.37-.58s9.016-2.335,9.016-2.335-6.1-8.465-6.142-9.9-2.1-8.24-2.1-8.24-9.566.935-15.137.5S49.806,114.3,49.806,114.3Z"/></g></svg>