<svg id="word" xmlns="http://www.w3.org/2000/svg" viewBox="0 0 160 160"><defs><style>.cls-1,.cls-2{fill:#bed757;}.cls-1,.cls-2,.cls-4,.cls-7{stroke:#2f6c4e;}.cls-1,.cls-3,.cls-4,.cls-7,.cls-8,.cls-9{stroke-width:0.209px;}.cls-2{stroke-width:0.238px;}.cls-3{fill:#7a875c;stroke:#60663b;}.cls-4{fill:#d9e143;}.cls-5{fill:#9a8479;stroke-miterlimit:10;stroke-width:0.295px;}.cls-5,.cls-8,.cls-9{stroke:#9d4b9c;}.cls-6{fill:#754c28;}.cls-7{fill:#bdb552;}.cls-8{fill:#c3996b;}.cls-9{fill:#fff;}.cls-10{fill:#a6a044;}.cls-11{fill:#783a14;}.cls-12{fill:#b55c2d;}.cls-13{fill:#914920;}.cls-14{fill:#60663b;}</style></defs><path class="cls-1" d="M13.746,64.447s.848-1.923,1.471-.905.282,1.527.282,1.527,1.245-1.244,1.471-.565-1.358,1.583-1.358,1.583,2.319-.961,1.867.057-2.093.679-2.093.679,2.659.678,1.81,1.3a2.753,2.753,0,0,1-2.093.282s.679,1.018.283,1.132a.731.731,0,0,1-.622-.057"/><path class="cls-2" d="M61.208,61.853s-2.068-4.592-.222-4.879,1.92,2.105,1.92,2.105-.369-2.3,1.108-2.392a1.316,1.316,0,0,1,1.476,1.339s.37-4.879,2.954-3.157a3.338,3.338,0,0,1,1.4,4.21s.664-5.932,2.436-4.975a3.242,3.242,0,0,1,1.773,2.678s1.329-2.87,2.953-1.53.812,3.731.812,3.731a2.962,2.962,0,0,1,1.551,2.487c.3,2.009-2.141,2.966-2.141,2.966s4.651-.287,4.5,2.583-2.363,2.392-2.363,2.392,2.289,3.444,1.4,4.5-3.544-.287-3.544-.287-.443,2.2-.887,2.2-16.1-.479-16.1-.479-1.772-4.5.3-5.357a9.065,9.065,0,0,1,2.954-.861s-4.578.191-3.692-2.583,1.994-.957,1.994-.957S57.368,65.106,61.208,61.853Z"/><path class="cls-1" d="M77.526,61.39S79,60.134,80.11,61.316s0-6.867,2.215-4.652.665,5.538.665,5.538,3.175-4.726,4.652-1.92-2.732,3.175-2.732,3.175,5.537-1.255,5.464.886-2.88,1.772-2.88,1.772,2.88,1.92,2.067,2.954-3.027.517-3.027.517.665,1.181.295,1.772-6.719.3-6.719.3-5.095-1.034-4.43-2.51,2.658-1.329,2.658-1.329-4.356-2.216-2.88-3.766,2.363,0,2.363,0S74.351,62.128,77.526,61.39Z"/><path class="cls-2" d="M48.286,69.794s-.886-3.923.443-3.445-.221-2.009,1.256-2.009A2.018,2.018,0,0,1,51.9,65.584s-1.181-4.114.739-4.114,2.141,2.105,2.141,2.105-.738-5.645,1.255-4.018a3.509,3.509,0,0,1,1.182,3.827s.516-2.679,1.919-.861.813,2.487.813,2.487-.074-2.966,1.107-1.722,1.182,2.392.517,2.966,2.067-3.062,1.846.287-1.551,3.731-1.551,3.731,2.954.191,2.289,2.1a3.134,3.134,0,0,1-2.067,2.2s1.92,2.392.591,2.392-14.916-.192-14.916-.192S44.373,71.133,48.286,69.794Z"/><path class="cls-1" d="M89.185,70.694l-4.638.113a2.263,2.263,0,0,1,.113-2.375A7.229,7.229,0,0,1,86.244,66.4s-2.319-1.018-1.753-2.714,3.9-3,4.129-2.772-1.471-1.583,0-2.884a1.385,1.385,0,0,1,2.318.282s1.81-3.789,3.9-3.45,2.149,1.754,2.149,1.754a1.308,1.308,0,0,1,2.15-.622c1.64,1.018.791,2.318.791,2.318a1.906,1.906,0,0,1,2.828-.282c1.527,1.357.622,2.545.622,2.545s2.319-2.545,3.79.4-.339,4.129-.339,4.129,1.923-1.245,1.866.905-2.545,2.545-2.545,2.545,1.414,0,.905.848-.566.622.452.622,1.641.4,1.075.735-1.64.114-2.828-.056-6.957.113-7.692.113S89.355,71.655,89.185,70.694Z"/><path class="cls-1" d="M89.072,68.149s-2.6-1.414-1.357-1.923,1.753,1.131,1.753,0-1.866-1.414-.848-2.149,1.244-.283,1.244-.283-1.358-1.3-.792-1.471-.509-1.414.339-1.47a1.012,1.012,0,0,1,1.018.848s-1.018-2.093-.113-2.206.792,2.545,1.018,1.584.566-1.584.905-.848.962.282,1.584.282.792.736,1.075,1.471-.227-.226,1.414,0,2.319.679,1.753,1.414-1.471,1.7.4,1.7,2.941.848,2.206,1.131,1.074.113.848.565,2.319-.848,2.149.623-1.244,2.432-2.036,1.979-.848.509-1.979.283-2.319.452-3.394.452"/><path class="cls-1" d="M95.8,60.287s-.849-2.093.339-2.093.961,1.358.961,1.358,1.3-1.7,1.867-.962-.735,1.188,0,1.527,1.7-1.244,2.149-.226-1.074,1.81-1.074,1.81,1.979-.283,1.809.283-1.753.905-1.753.905,1.867.735,1.7.961-1.244-.169-1.075.283,1.131.735,1.131.735"/><path class="cls-1" d="M102.646,62.38s.849-1.923,1.471-.905S104.4,63,104.4,63s1.244-1.244,1.47-.566-1.357,1.584-1.357,1.584,2.319-.962,1.866.057-2.093.678-2.093.678,2.659.679,1.81,1.3a2.753,2.753,0,0,1-2.092.283s.678,1.018.282,1.131a.734.734,0,0,1-.622-.056"/><path class="cls-3" d="M62.248,76.589a8.025,8.025,0,0,1-3.006-3.926c-.575-2.283-.044-1.827.663-1.416s1.282-.137.928-.776-1.458-2.922-.972-3.379,1.149.457,1.238.046-1.282-3.653-.442-4.977.928-.366.928-.366.707-3.653.8-4.885.972-1.416,1.017-2.01.4-2.785,1.149-1.689.619,7.534.619,7.671,1.37-2.009,1.326-.685-1.37,1.827-.354,2.192,1.813-.548,1.238.548-2.077,3.287-1.459,3.15,1.415,0,.973,1.462-2.652,1.826-1.547,2.6,1.459,0,1.282.731-.8,2.055-.487,2.694,1.5-.046.487,1.141S64.193,77.777,62.248,76.589Z"/><path class="cls-3" d="M52.1,80.2s-2.829-1.5-2.961-3.359-.266-2.7.309-1.9.972.751.884-.4-1.37-4.6-.044-4.022,1.458.575,1.281-.132-1.281-5.436-.663-4.906,1.149,1.459,1.017.575.53-8.574,2.033-8.485.442,7.955.928,7.468,1.149-1.988,1.326-.486-.884,2.122,0,2.122.574.618.176,1.193-1.193,1.767-.618,1.812.883-.619.972.176-1.679,3.757-1.37,4.022,1.016-.8,1.06.133A10.037,10.037,0,0,1,55.77,76.8s1.193-.663.839.4-2.121,2.96-2.961,3.049A5.987,5.987,0,0,1,52.1,80.2Z"/><path class="cls-3" d="M43.639,79.678s-2.829-1.5-2.961-3.359-.265-2.7.309-1.9.972.751.884-.4-1.37-4.6-.044-4.022,1.458.575,1.281-.132-1.281-5.436-.662-4.906,1.149,1.459,1.016.575.53-8.574,2.033-8.485.442,7.954.928,7.468,1.149-1.988,1.326-.486-.884,2.122,0,2.122.574.618.177,1.193-1.194,1.767-.619,1.812.884-.619.972.176-1.679,3.757-1.37,4.022,1.017-.8,1.061.133a10.065,10.065,0,0,1-.663,2.784s1.193-.663.839.4-2.121,2.961-2.96,3.05A5.993,5.993,0,0,1,43.639,79.678Z"/><path class="cls-4" d="M26.947,82.655s37.214-12.4,61.433-13S125.662,80.8,148.4,91.43s-7.679,10.633-21.561,12.4-69.77.085-81.289-.21S-17.06,92.7,26.947,82.655Z"/><path class="cls-5" d="M15.907,103.952s-2.32.566-1.049,2.073,5.722,1.461,6.421-.424S19.753,102.539,15.907,103.952Z"/><path class="cls-6" d="M16.494,80.331l-.253,4.445s-.633-1.055-.8-1.432-.421.377-.421.6a26.478,26.478,0,0,0,.843,3.239c.337.98,1.139,3.39,1.265,8.965s.211,8.362.211,8.362.717,1.054,1.392.979-.422-3.691-.422-3.691-.379-12.053-.337-12.581-.549-2.712-.169-4.444a32.047,32.047,0,0,0,.464-4.595Z"/><path class="cls-7" d="M5.571,70.212a1.24,1.24,0,0,0-1.477,1.62c.338,1.916.886,2.259.886,2.259s-2.109.1-1.434,1.277a1.8,1.8,0,0,0,2.025.786S4.179,77.332,5.4,77.873a1.253,1.253,0,0,0,1.729-.59.928.928,0,0,0,.633,1.326c1.1.393,1.1-.491,1.1-.491s.464,1.08,1.392,1.179.928-1.228.928-1.228-1.1,2.5.97,2.357,2.193-1.179,2.193-1.179a1.415,1.415,0,0,0,1.1,2.014,5.217,5.217,0,0,0,3.416-.589,5.565,5.565,0,0,0,1.055.294c.421.049.97-1.571.97-1.571s.632.884,1.434.393a1.578,1.578,0,0,0,.674-1.474s.506,1.474.928,1.13.464-1.326.464-1.326,1.139,2.5,1.982,1.768-.843-2.406-.843-2.406,1.307,1.571,1.94.442a2.091,2.091,0,0,0-.127-2.161s1.012,1.08,1.223.049a1.267,1.267,0,0,0-.506-1.424s1.687-.54,1.772-1.719-.3-1.326-.3-1.326,1.013-.884.844-1.571S28.26,67.9,28.26,67.9s-8.392-2.161-10.248-1.522S7.342,68.2,6.836,69.132,5.7,69.033,5.571,70.212Z"/><path class="cls-1" d="M7.511,67.953a1.508,1.508,0,0,1,.168-1.424c.506-.54.886-.491.886-.491s-1.054-.884-.211-1.375,1.012-.049,1.012-.049S8.438,62.6,9.7,61.962s2.361,1.179,2.361,1.179.043-.884.8-.393a3.256,3.256,0,0,1,.97.835s.211-1.621,1.223-1.277,1.1.933,1.1.933-.464-2.406,1.434-2.014,1.687,1.866,1.687,1.866a.689.689,0,0,1,.844.1c.337.393.548-.835,1.223-.442a1.007,1.007,0,0,1,.506,1.08s.8-.982,1.644-.3,1.9-1.08,2.32-.54-.337,1.572-.337,1.572a2.216,2.216,0,0,1,1.729.785,1.12,1.12,0,0,1-.127,1.523s2.235-.3,2.025,1.326-.97,1.718-.97,1.718,1.223.491.927,1.375S27.29,72.52,27.29,72.52s-.337,1.719-.843,1.375.759,2.308-.253,2.6a1.558,1.558,0,0,1-1.856-.835c0-.3-.127,1.866-1.434,1.473a3.057,3.057,0,0,1-1.687-.982s.591,2.062-.506,2.308a1.336,1.336,0,0,1-1.518-.491s-.759,2.455-1.687,1.62a4.567,4.567,0,0,1-1.223-2.111s-1.055,1.964-1.476,1.08a7.883,7.883,0,0,1-.422-2.6s-.506,1.13-1.054.639a3.8,3.8,0,0,1-.844-1.179s-1.054,2.5-2.193,1.572-1.139-1.572-1.139-1.572-2.91.639-3.078-1.375a7.893,7.893,0,0,1,.337-3.29S4.9,69.23,5.655,68.346A1.638,1.638,0,0,1,7.511,67.953Z"/><path class="cls-8" d="M148.458,89.827a6.434,6.434,0,0,1,.554,2.732,8.928,8.928,0,0,0-.111,1.587h1.219a12.894,12.894,0,0,1-.074-1.957,21.517,21.517,0,0,1,.7-2.325Z"/><path class="cls-8" d="M147.535,88.018s-1.181.074-.516,1.07a2.762,2.762,0,0,0,2.547,1.108c.775-.037,2.51-.148,2.658-1.071s.259-.923-1.329-1.255A8.335,8.335,0,0,0,147.535,88.018Z"/><circle class="cls-9" cx="149.585" cy="86.705" r="2.578"/><path class="cls-8" d="M126.307,80.966a6.438,6.438,0,0,1,.554,2.732,8.808,8.808,0,0,0-.111,1.588h1.219a12.894,12.894,0,0,1-.074-1.957A21.478,21.478,0,0,1,128.6,81Z"/><path class="cls-8" d="M125.384,79.157s-1.181.074-.517,1.071a2.762,2.762,0,0,0,2.548,1.107c.775-.037,2.51-.147,2.658-1.07s.258-.923-1.329-1.255A8.321,8.321,0,0,0,125.384,79.157Z"/><circle class="cls-9" cx="127.434" cy="77.844" r="2.578"/><path class="cls-8" d="M100.612,71.22a6.45,6.45,0,0,1,.554,2.732,8.8,8.8,0,0,0-.111,1.587h1.218a12.894,12.894,0,0,1-.074-1.957,21.47,21.47,0,0,1,.7-2.325Z"/><path class="cls-8" d="M99.689,69.411s-1.182.073-.517,1.07a2.762,2.762,0,0,0,2.547,1.108c.776-.037,2.511-.148,2.659-1.071s.258-.923-1.33-1.255A8.329,8.329,0,0,0,99.689,69.411Z"/><circle class="cls-9" cx="101.739" cy="68.098" r="2.578"/><path class="cls-10" d="M47.261,91.376s-6.694,0-8.356.175a39.076,39.076,0,0,0-4.025.525c-.306.131-10.886-1.742-14.824,1.31-1.914,1.483,13.687,1.577,15.3,1.577s6.606.788,8.356.394a32.137,32.137,0,0,1,6.65-.394c2.8,0,6.168-1.05,6.125-1.75S50.148,91.463,47.261,91.376Z"/><polygon class="cls-11" points="33.699 80.832 34.073 85.571 32.079 89.3 33.666 89.411 35.66 85.608 35.667 80.92 33.699 80.832"/><polygon class="cls-11" points="51.767 81.095 51.572 85.608 53.233 89.522 54.71 89.374 53.146 85.501 53.692 81.095 51.767 81.095"/><polygon class="cls-11" points="35.405 89.976 35.274 92.863 36.455 92.863 36.717 89.888 35.405 89.976"/><polygon class="cls-11" points="33.349 90.282 34.399 94.263 32.999 94.307 31.949 90.326 33.349 90.282"/><polygon class="cls-11" points="50.498 90.37 50.761 93.082 51.679 93.038 51.636 90.413 50.498 90.37"/><polygon class="cls-11" points="53.167 90.326 52.248 94.482 53.692 94.569 54.786 90.37 53.167 90.326"/><polygon class="cls-12" points="31.555 78.558 31.949 81.445 54.654 81.576 54.917 78.076 31.555 78.558"/><polygon class="cls-12" points="31.73 82.582 32.08 84.201 54.217 84.814 54.654 82.495 31.73 82.582"/><polygon class="cls-12" points="32.168 85.47 31.73 86.082 56.054 86.345 55.442 85.645 32.168 85.47"/><polygon class="cls-12" points="31.293 86.826 30.899 87.745 57.017 87.701 56.054 86.345 31.293 86.826"/><polygon class="cls-12" points="30.811 88.095 30.418 89.538 57.148 89.845 56.973 88.488 30.811 88.095"/><polygon class="cls-13" points="30.418 89.845 30.593 90.413 56.448 90.588 57.148 89.845 30.418 89.538 30.418 89.845"/><path class="cls-8" d="M23.458,89.026a6.439,6.439,0,0,1,.553,2.732,8.832,8.832,0,0,0-.11,1.587h1.218a12.894,12.894,0,0,1-.074-1.957,21.5,21.5,0,0,1,.7-2.326Z"/><path class="cls-8" d="M22.535,87.217s-1.182.073-.517,1.07A2.762,2.762,0,0,0,24.565,89.4c.776-.037,2.511-.148,2.658-1.071s.259-.923-1.329-1.255A8.329,8.329,0,0,0,22.535,87.217Z"/><circle class="cls-9" cx="24.584" cy="85.904" r="2.578"/><path class="cls-10" d="M93.173,97.337c-.3-.886-10.632.887-5.02,3.545s29.633,3.15,33.472-.394S93.173,97.337,93.173,97.337Z"/><path class="cls-3" d="M115.128,99.338s-4.726-2.51-4.947-5.612-.443-4.5.517-3.175,1.624,1.256,1.476-.664-2.289-7.679-.073-6.719,2.436.96,2.141-.222-2.141-9.082-1.108-8.2,1.92,2.437,1.7.96.886-14.324,3.4-14.177.738,13.291,1.551,12.479S121.7,70.689,122,73.2s-1.477,3.544,0,3.544.96,1.034.3,1.993-1.993,2.954-1.034,3.028,1.477-1.034,1.625.3-2.806,6.276-2.289,6.719,1.7-1.329,1.772.222a16.806,16.806,0,0,1-1.108,4.652s1.994-1.108,1.4.664-3.544,4.947-4.947,5.1A9.942,9.942,0,0,1,115.128,99.338Z"/><path class="cls-1" d="M93.1,91.541s-.018-.044-.045-.12c-.141-.4-.527-1.656.155-1.873a2.4,2.4,0,0,1,1.108-.185s-.775-1.4-.222-1.477a.781.781,0,0,1,.776.517s-1.551-3.138.517-2.806,1.7,1.329,1.7,1.329.406-1.255,1.107-.59.7,1.107.7,1.255-.369-2.289,1.255-1.735,1.588.96,1.588.96,1.255-2.843,2.067-1.809a2.734,2.734,0,0,1,.406,2.326.785.785,0,0,1,1.255-.3c.813.628-.147,2.031-.369,2.031s1.772,1.218.923,1.919a3.481,3.481,0,0,1-1.993.7s1.735-.185.959,1.366a4.57,4.57,0,0,1-1.513,1.957l-10.411-.554S91.4,92.686,93.1,91.541Z"/><path class="cls-1" d="M104.951,88s.479-2.584,2.03-1.883,1.145,1.662,1.145,1.662-.037-1.625,1.033-1,.665,1.144.665,1.144.184-2.067,1.144-1.55.554,1.919.554,1.919,1-1.107,1.514-.48a1.428,1.428,0,0,1,.258,1.33s1.514-1.256,1.883-.185-1.255,1.477-1.255,1.477,2.067.221,1.846,1.809-1.809.923-1.809.923,1.772,1.181,1.107,2.067-2.547,0-2.547,0,2.326,2.031,1.034,2.437-3.249-.406-3.286-.7-8.455-.369-8.455-.369-3.4-5.8-.775-6.313,2.548-.074,2.548-.074-1.219-1.144-.37-1.772A2.339,2.339,0,0,1,104.951,88Z"/><path class="cls-1" d="M92.8,100.18s-.923.037-.923-.48a1.5,1.5,0,0,1,.111-.7s-1.846.184-1.661-.443a3.2,3.2,0,0,1,.369-.886s-1.661.074-1.44-.886.886-.665.886-.665-1.809-1.993-.775-2.732S90.7,93.35,90.7,93.35s-.812-2.879.738-2.806,1.883.813,1.883.813.48-1.736,1.218-1.071.185,2.031.185,2.031l1.772-.333s.111-2.621,1.292-1.809a1.6,1.6,0,0,1,.628,1.994s1.957-1.034,2.7.111a1.243,1.243,0,0,1-.332,1.809s1.772-.886,1.92.184-1.514,1.662-1.514,1.662,1.883-.074,1.7,1.587-2.806,1.255-2.806,1.255.812,2.437-.332,2.695-2.51-1.107-2.51-1.107-.591,1.477-1.551.738a2.63,2.63,0,0,1-1.034-1.735S92.952,102.211,92.8,100.18Z"/><path class="cls-1" d="M101.96,102.248s-1.292.369-1.292-.406a2.049,2.049,0,0,1,.48-1.293s-2.954-1-2.252-2.1,1.477-.923,1.477-.923a1.483,1.483,0,0,1,.184-2.252,1.752,1.752,0,0,1,2.363.185s.037-2.068.48-2.179.775-.7,1.181-.3a6.258,6.258,0,0,1,.849,1.329s-.073-2.436.444-2.252.922,1.957.922,1.957-.073-2.289,1.108-1.662a2.578,2.578,0,0,1,1.181,2.142s-.147-4.283,1.588-2.437.221,3.175.111,3.175,2.326-.849,1.7.591l-.628,1.44s1.182-.813,1.219.627a1.672,1.672,0,0,1-1.44,1.662s1.772,1.55-.037,1.255a5.568,5.568,0,0,1-2.215-.628,7.1,7.1,0,0,1-2.326,1c-.738,0-.3,1-1.625.591S102.219,104.057,101.96,102.248Z"/><path class="cls-10" d="M134.818,99.479s-8.565-1.477-8.565-.222,1.919,1.4.3,1.7-10.116-.074-7.236,1.107,20.158.738,21.044-.96S134.818,99.479,134.818,99.479Z"/><path class="cls-3" d="M135.716,100.76s-3.335-2.254-4.123-5.386-.061-2.5.91-1.941,1.758-.188,1.273-1.065-2-4.008-1.334-4.634,1.576.626,1.7.062-1.759-5.01-.607-6.826,1.274-.5,1.274-.5.97-5.01,1.091-6.7,1.334-1.942,1.4-2.756.545-3.82,1.576-2.317.849,10.334.849,10.521,1.88-2.755,1.819-.939-1.88,2.5-.485,3.006,2.486-.751,1.7.752-2.85,4.509-2,4.321,1.94,0,1.334,2-3.638,2.5-2.122,3.57,2,0,1.758,1-1.091,2.818-.667,3.695,2.062-.063.667,1.565S138.384,102.388,135.716,100.76Z"/><path class="cls-14" d="M116.7,72.055c-.092.075-.084.2-.1.307s-.026.223-.032.335a4.913,4.913,0,0,0-.017.664A8.409,8.409,0,0,0,116.7,74.7a2.848,2.848,0,0,1-.35-1.33,3.334,3.334,0,0,1,.067-.692C116.482,72.463,116.492,72.192,116.7,72.055Z"/><path class="cls-14" d="M115.67,75.482a5.6,5.6,0,0,0,.758,2.641A2.669,2.669,0,0,1,115.67,75.482Z"/><path class="cls-14" d="M114.458,77.943c.055.475.032.944.117,1.393a2.7,2.7,0,0,0,.51,1.261,1.787,1.787,0,0,1-.716-1.227A3.778,3.778,0,0,1,114.458,77.943Z"/><path class="cls-14" d="M115.971,79.567a3.479,3.479,0,0,0,.29,1.488,8.34,8.34,0,0,0,.894,1.257,3.385,3.385,0,0,1-1.081-1.164A2.248,2.248,0,0,1,115.971,79.567Z"/><path class="cls-14" d="M115.514,81.339a8.881,8.881,0,0,0,.555,1.965A2.073,2.073,0,0,1,115.514,81.339Z"/><path class="cls-14" d="M117.638,67.95c.107.831.172,1.624.2,2.461A4.3,4.3,0,0,1,117.638,67.95Z"/><path class="cls-14" d="M119.19,74.94a6.9,6.9,0,0,1-.747,3.827A27.208,27.208,0,0,0,119.19,74.94Z"/><path class="cls-14" d="M120.978,77.646a4.834,4.834,0,0,1-.571,1.926A4.825,4.825,0,0,1,120.978,77.646Z"/><path class="cls-14" d="M117.635,74.94a1.681,1.681,0,0,1-.089,1.429A5.005,5.005,0,0,1,117.635,74.94Z"/><path class="cls-14" d="M119.5,80.454a1.888,1.888,0,0,1-.735,2.062A4.332,4.332,0,0,0,119.5,80.454Z"/><path class="cls-14" d="M120.658,83.46a3.1,3.1,0,0,1-.822,1.936A20.212,20.212,0,0,1,120.658,83.46Z"/><path class="cls-14" d="M117.936,80.158a4.207,4.207,0,0,1-.1,1.87A4.193,4.193,0,0,1,117.936,80.158Z"/><path class="cls-14" d="M114.362,84.776a15.861,15.861,0,0,1,1.186,2.385A5.782,5.782,0,0,1,114.362,84.776Z"/><path class="cls-14" d="M112.41,84.786a7.766,7.766,0,0,0,.9,2.062A2.312,2.312,0,0,1,112.41,84.786Z"/><path class="cls-14" d="M116.941,85.128a5.55,5.55,0,0,1-.38,2.12A5.527,5.527,0,0,1,116.941,85.128Z"/><path class="cls-14" d="M118.433,83.7a1.546,1.546,0,0,1-.459,1.569A14.233,14.233,0,0,0,118.433,83.7Z"/><path class="cls-14" d="M119.437,87.2a2.723,2.723,0,0,1-.969,2.305A8.4,8.4,0,0,0,119.437,87.2Z"/><path class="cls-14" d="M120.061,89.956a2.619,2.619,0,0,1-1.1,2.158A8.548,8.548,0,0,0,120.061,89.956Z"/><path class="cls-14" d="M120.136,92.919a2.36,2.36,0,0,1-1.009,1.673Z"/><path class="cls-14" d="M117.6,88.479a6.932,6.932,0,0,0-.123,2.81A2.971,2.971,0,0,1,117.6,88.479Z"/><path class="cls-14" d="M116.359,89.954a3.555,3.555,0,0,1,.1.884c-.008.146-.009.3-.025.439a.528.528,0,0,0,.071.4.449.449,0,0,1-.232-.395c-.017-.152-.015-.3-.023-.444A3.648,3.648,0,0,1,116.359,89.954Z"/><path class="cls-14" d="M116.547,94.338a8.935,8.935,0,0,1,.935,1.725A3.139,3.139,0,0,1,116.547,94.338Z"/><path class="cls-14" d="M115,96.513a20.866,20.866,0,0,1,.991,1.858l-.106.019a.728.728,0,0,0,.027-.361.663.663,0,0,1,.087.383l-.015.142-.092-.123A4.9,4.9,0,0,1,115,96.513Z"/><path class="cls-14" d="M117.491,93.1a1.2,1.2,0,0,1,0,.985A1.2,1.2,0,0,1,117.491,93.1Z"/><path class="cls-14" d="M120.558,94.879a3.067,3.067,0,0,1-1.59,2.508A6.435,6.435,0,0,0,120.558,94.879Z"/><path class="cls-14" d="M119.075,96.358a1.915,1.915,0,0,1-1.142,1.224C118.309,97.141,118.662,96.765,119.075,96.358Z"/><path class="cls-14" d="M115.742,95.755a1.469,1.469,0,0,0,1.2.632A.807.807,0,0,1,115.742,95.755Z"/><path class="cls-14" d="M117.154,96.865a7.41,7.41,0,0,0,1.169-1.055A1.358,1.358,0,0,1,117.154,96.865Z"/><path class="cls-14" d="M118.331,91.751c.249.1.322.386.537.45a.941.941,0,0,0,.645.041,2.476,2.476,0,0,0,1.087-.854,1.73,1.73,0,0,1-1.035,1.056,1.035,1.035,0,0,1-.775-.1.759.759,0,0,1-.264-.294A.606.606,0,0,0,118.331,91.751Z"/><path class="cls-14" d="M114.38,86.913a9.471,9.471,0,0,1,1.091.974,2.575,2.575,0,0,0,.224.236,1.491,1.491,0,0,0,.313.029l.364.02c.105.035.27-.012.187-.137.063.025.062.127,0,.174a.358.358,0,0,1-.188.065l-.363.039a.929.929,0,0,1-.406-.021,2.124,2.124,0,0,1-.294-.269A9.771,9.771,0,0,1,114.38,86.913Z"/><path class="cls-14" d="M118.119,63.43a1.673,1.673,0,0,1,.451,1.763A6.968,6.968,0,0,0,118.119,63.43Z"/><path class="cls-14" d="M117.471,64.941a7.206,7.206,0,0,1-.173,1.434A1.579,1.579,0,0,1,117.471,64.941Z"/><path class="cls-14" d="M118.674,69.476a4.626,4.626,0,0,1-.744,3.2A15,15,0,0,0,118.674,69.476Z"/><path class="cls-14" d="M116.361,68.541a5.261,5.261,0,0,1,.142,1.231A1.19,1.19,0,0,1,116.361,68.541Z"/><path class="cls-14" d="M120.824,73.958a2.308,2.308,0,0,1-.327,2.166A9.176,9.176,0,0,0,120.824,73.958Z"/><path class="cls-14" d="M113.535,76.264c0,.264-.038.5-.038.743-.014.12-.011.241-.016.364s-.021.238.07.335c-.143-.029-.209-.2-.231-.32a1.952,1.952,0,0,1-.032-.389A1.384,1.384,0,0,1,113.535,76.264Z"/><path class="cls-14" d="M136.686,78.5c-.083.059-.083.156-.093.251s-.027.187-.034.28a3.555,3.555,0,0,0-.018.555,5.949,5.949,0,0,0,.141,1.116,2.046,2.046,0,0,1-.35-1.111A2.469,2.469,0,0,1,136.4,79C136.466,78.828,136.488,78.589,136.686,78.5Z"/><path class="cls-14" d="M135.656,81.356a4.162,4.162,0,0,0,.758,2.2A1.994,1.994,0,0,1,135.656,81.356Z"/><path class="cls-14" d="M134.443,83.408c.055.408.032.807.122,1.181a2.154,2.154,0,0,0,.506,1.032,1.4,1.4,0,0,1-.711-.99A2.668,2.668,0,0,1,134.443,83.408Z"/><path class="cls-14" d="M135.956,84.763a2.342,2.342,0,0,0,.311,1.265,8.89,8.89,0,0,0,.874,1.023,2.923,2.923,0,0,1-1.051-.911,1.494,1.494,0,0,1-.224-.683A2.116,2.116,0,0,1,135.956,84.763Z"/><path class="cls-14" d="M135.5,86.24a6.632,6.632,0,0,0,.555,1.639A1.538,1.538,0,0,1,135.5,86.24Z"/><path class="cls-14" d="M137.623,75.075a17.422,17.422,0,0,1,.2,2.052A3.028,3.028,0,0,1,137.623,75.075Z"/><path class="cls-14" d="M139.175,80.905a4.949,4.949,0,0,1-.747,3.191A19.659,19.659,0,0,0,139.175,80.905Z"/><path class="cls-14" d="M140.964,83.161a3.5,3.5,0,0,1-.572,1.606A3.483,3.483,0,0,1,140.964,83.161Z"/><path class="cls-14" d="M137.62,80.905a1.2,1.2,0,0,1-.088,1.191A3.485,3.485,0,0,1,137.62,80.905Z"/><path class="cls-14" d="M139.486,85.5a1.447,1.447,0,0,1-.735,1.72A3.329,3.329,0,0,0,139.486,85.5Z"/><path class="cls-14" d="M140.643,88.009a2.349,2.349,0,0,1-.821,1.614A13.668,13.668,0,0,1,140.643,88.009Z"/><path class="cls-14" d="M137.921,85.255a2.935,2.935,0,0,1-.1,1.56A2.936,2.936,0,0,1,137.921,85.255Z"/><path class="cls-14" d="M134.347,89.106a11.663,11.663,0,0,1,1.187,1.99A4.443,4.443,0,0,1,134.347,89.106Z"/><path class="cls-14" d="M132.4,89.115a6.265,6.265,0,0,0,.9,1.719A1.793,1.793,0,0,1,132.4,89.115Z"/><path class="cls-14" d="M136.926,89.4a3.908,3.908,0,0,1-.38,1.767A3.911,3.911,0,0,1,136.926,89.4Z"/><path class="cls-14" d="M138.419,88.211a1.159,1.159,0,0,1-.459,1.309A11.607,11.607,0,0,0,138.419,88.211Z"/><path class="cls-14" d="M139.422,91.127a2.1,2.1,0,0,1-.969,1.923A6.716,6.716,0,0,0,139.422,91.127Z"/><path class="cls-14" d="M140.047,93.426a2.078,2.078,0,0,1-1.1,1.8A7.235,7.235,0,0,0,140.047,93.426Z"/><path class="cls-14" d="M140.121,95.9a1.9,1.9,0,0,1-1.009,1.395C139.452,96.8,139.771,96.379,140.121,95.9Z"/><path class="cls-14" d="M137.58,92.2a4.856,4.856,0,0,0-.122,2.343A2.126,2.126,0,0,1,137.58,92.2Z"/><path class="cls-14" d="M136.345,93.424a2.581,2.581,0,0,1,.1.744c-.009.123-.01.252-.025.369a.386.386,0,0,0,.071.324.346.346,0,0,1-.232-.318c-.018-.131-.015-.25-.023-.376A2.55,2.55,0,0,1,136.345,93.424Z"/><path class="cls-14" d="M136.532,97.081a6.476,6.476,0,0,1,.935,1.439A2.462,2.462,0,0,1,136.532,97.081Z"/><path class="cls-14" d="M134.983,98.894a14.312,14.312,0,0,1,.988,1.541l-.1.02a.486.486,0,0,0,.025-.3.483.483,0,0,1,.086.323l-.015.116-.087-.095A3.772,3.772,0,0,1,134.983,98.894Z"/><path class="cls-14" d="M137.476,96.051a.852.852,0,0,1,0,.822A.852.852,0,0,1,137.476,96.051Z"/><path class="cls-14" d="M140.543,97.532a2.539,2.539,0,0,1-1.59,2.091A5.582,5.582,0,0,0,140.543,97.532Z"/><path class="cls-14" d="M139.06,98.765a1.681,1.681,0,0,1-1.142,1.021A10.929,10.929,0,0,1,139.06,98.765Z"/><path class="cls-14" d="M135.727,98.262a1.322,1.322,0,0,0,.545.376,2.089,2.089,0,0,0,.658.151.82.82,0,0,1-.737.043A.707.707,0,0,1,135.727,98.262Z"/><path class="cls-14" d="M137.139,99.188a10.1,10.1,0,0,0,1.169-.881A1.252,1.252,0,0,1,137.139,99.188Z"/><path class="cls-14" d="M138.316,94.923c.244.075.335.332.546.368a1.165,1.165,0,0,0,.623.027,2.389,2.389,0,0,0,1.1-.7,1.631,1.631,0,0,1-1.06.9,1.186,1.186,0,0,1-.728-.086.717.717,0,0,1-.277-.249A.568.568,0,0,0,138.316,94.923Z"/><path class="cls-14" d="M134.366,90.888a8.428,8.428,0,0,1,1.11.817c.092.074.155.17.224.183.085.012.2.013.313.02l.342.022c.093.028.273.011.189-.106.069.015.056.127-.009.156a.491.491,0,0,1-.177.053l-.341.036a1.419,1.419,0,0,1-.37,0c-.16-.042-.228-.16-.318-.217A8.531,8.531,0,0,1,134.366,90.888Z"/><path class="cls-14" d="M138.1,71.306a1.244,1.244,0,0,1,.452,1.47A5.229,5.229,0,0,0,138.1,71.306Z"/><path class="cls-14" d="M137.457,72.566a5.088,5.088,0,0,1-.174,1.2A1.133,1.133,0,0,1,137.457,72.566Z"/><path class="cls-14" d="M138.66,76.348a3.357,3.357,0,0,1-.745,2.666A10.988,10.988,0,0,0,138.66,76.348Z"/><path class="cls-14" d="M136.346,75.568a3.675,3.675,0,0,1,.143,1.027A.859.859,0,0,1,136.346,75.568Z"/><path class="cls-14" d="M140.81,80.085a1.67,1.67,0,0,1-.328,1.806A6.538,6.538,0,0,0,140.81,80.085Z"/><path class="cls-14" d="M133.52,82.008c0,.228-.038.423-.038.626-.014.1-.01.2-.015.3a.326.326,0,0,0,.069.273c-.125,0-.209-.147-.229-.255a1.388,1.388,0,0,1-.034-.334A1.014,1.014,0,0,1,133.52,82.008Z"/></svg>