<svg id="word" xmlns="http://www.w3.org/2000/svg" viewBox="0 0 160 160"><defs><style>.cls-1{fill:#c0d851;}.cls-1,.cls-2,.cls-3,.cls-4,.cls-5,.cls-6,.cls-7,.cls-8,.cls-9{stroke:#9c4c9c;stroke-width:0.638px;}.cls-2{fill:#fff;}.cls-3{fill:#fde6db;}.cls-4{fill:#28aae1;}.cls-5,.cls-8{fill:none;}.cls-5{stroke-linecap:round;}.cls-6{fill:#b1b3b6;}.cls-7{fill:#d5b8b0;}.cls-9{fill:#998379;}.cls-10{fill:#9c4c9c;}</style></defs><path class="cls-1" d="M97.721,80.077s9.219,6.488,13.329,8.028a56.923,56.923,0,0,1,13.107,7.7c2.555,2.2,4.444,2.309,4.666,9.348s-1.778,18.474-2.555,19.354-3.888-3.188-8.775-3.519-4.555,2.86-4.887-.33-.667-13.856-2.223-15.4-2.221-1.1-4-1.869-10-5.28-10-5.28L86.4,75.35l6.752,2.228Z"/><path class="cls-2" d="M56.511,78.538s.778,22.983.111,29.252S57.955,132.2,57.955,132.2s47.208,8.58,48.208.881-7.221-32.991-7.887-36.841S85.5,74.578,85.5,74.578L63.509,72.6Z"/><path class="cls-3" d="M59.613,69.921l1.09,9.391S73.328,84.9,77.367,83.5s6.281-13.072,6.281-13.072"/><path class="cls-4" d="M55.51,73.093s-.7-3.934-2.819-5.71-5-1.9-5.577-2.094-4.038-2.158-4.038-2.158a5.5,5.5,0,0,0,2.5,5.458c3.2,2.221,9.486,5.774,9.486,5.774l.769-.19Z"/><path class="cls-3" d="M82.281,42.907s2.111,8.248,2.777,10.337S88.228,61.982,86.724,66c-.891,2.381-2,5.17-3.332,8.247s-5.573,8.624-10.553,4.84c-3.871-2.941-14.107-3.519-16.884-8.467s-6-16.5-4.332-20.235,2.111-13.637,11.553-12.1A154.87,154.87,0,0,1,82.281,42.907Z"/><path class="cls-5" d="M78.5,49.615s-1.221.659-1,3.738-.111,4.84.667,5.609,1.555.77,1,1.87a2.706,2.706,0,0,1-2.333,1.209"/><path class="cls-1" d="M58.843,77.438S47.513,88.545,45.181,91.954s-9.775,14.516-10.664,20.785-1.333,18.693,1.444,24.082,7.553,8.028,11.775,3.519,4.442-14.186,6.775-20.893,9.22-29.362,9.22-29.362Z"/><path class="cls-4" d="M54.956,76.559a113.464,113.464,0,0,0,4,11.326c1.666,3.518,11,5.609,16.106,5.939s7.22-1.211,10.774,1.65a30.786,30.786,0,0,1,5.888,6.487,57.008,57.008,0,0,0,.444-8.137c0-5.389.444-12.208-2-15.4a21.962,21.962,0,0,0-6.2-5.206s-1.8,9.055-9.907,8.065-17.217-5.938-17.217-5.938Z"/><path class="cls-4" d="M56.161,75.543s-4.554-5.5-7.887-5.279-5.109,1.98-8.886,2.421a16.741,16.741,0,0,1-7.427-1.093,23.518,23.518,0,0,0,5.094,6.481c3.221,2.749,7.665,5.059,11.441,3.189A36.055,36.055,0,0,0,56.161,75.543Z"/><path class="cls-6" d="M60.954,129.674s19.216,2.2,30.657-2.53,17.44-7.258,18.217-11.438,1.555-7.257-1.111-7.806,3.666-1.212,4.555,2.639-1.444,22.874-7.443,29.693-16.683,12.093-26.77,10.776c-20.115-2.626-23.77-15.065-24.548-17.265s6.554-3.629,6.554-3.629Z"/><path class="cls-2" d="M106.829,106.688s-20.7-.011-30.879,5.391c-5.211,2.766-23.327,5.5-17.662,12.536s11.3,11.113,27.214,6.159c24.45-7.613,29.436-18.805,26.659-21.445A8.515,8.515,0,0,0,106.829,106.688Z"/><path class="cls-7" d="M53.623,92.944s-.158-.051-.413-.119c-1.257-.336-4.879-1.122-3.586,1.438,1.555,3.079,6.776,6.489,9.331,7.808s14.662,11.106,17.328,14.406a31.881,31.881,0,0,1,3.887,5.939l4.554.111a29.874,29.874,0,0,0-4.665-6.489c-3.443-3.849-11.219-12.208-13.329-14.187s-13.265-8.958-13.265-8.958"/><path class="cls-3" d="M56.622,115.6s-.667-7.809.444-10.009,1.666-3.519,1.666-4.4.333-1.539,2.444-2.418,3.443-2.97,4.887-2.531a7.712,7.712,0,0,1,2.555,1.43s.889-.66,2.555.331a5.854,5.854,0,0,1,2.222,3.3s1.762-.448,1.984.982a15.892,15.892,0,0,1,.126,2.978s1.666-.441,1.444,1.209c-.3,2.244-.314,2.876-.672,5.269l-1.883-1.97s.111-1.1-.555-1.1a8,8,0,0,0-2.333.99,22.747,22.747,0,0,1-1.555,4.287c-1,1.981-4.554,4.621-5.443,4.949s-3.329,1.469-3.329,1.469Z"/><line class="cls-8" x1="63.176" y1="100.092" x2="68.457" y2="97.714"/><path class="cls-8" d="M65.73,102.4c2.572.575,5.143-1.268,7.665-1.1"/><path class="cls-8" d="M68.4,105.261c2.21.38,4.842-.054,7.109,0"/><path class="cls-5" d="M68.263,65.615c3.7,1.308,10.289,4.719,14.055-1.962"/><path class="cls-3" d="M113.494,120.217a5.146,5.146,0,0,1-2.777,1.868c-1.666.331-5.11.662-6.109-.88s-4.336-3.132-3.889-.658c.555,3.056,4.777,5.278,5.222,5.5s1,.659-2.111,1.979-10.735.981-11.663,2.42c-.845,1.308.555,2.088,2.221,2.529s8.488-.168,8.488-.168-3.711,2.808-6.377,2.808-4.444.439-3.111,1.758,4.111,1.32,4.888,1.211,2.111-.219,2.111-.219-3.555.769-2.333,1.539,7-.55,7-.55-3.777.988-2.222,1.98,5.221-.332,5.777-.55,4.776-1.65,6.664-3.081,2.332-2.638,3.555-5.277,3.887-9.568,3.887-9.568-3.11-2.97-4.776-2.97S113.494,120.217,113.494,120.217Z"/><path class="cls-8" d="M100.248,138.389c2.519-.644,5.253-1.232,7.243-3.045"/><path class="cls-8" d="M104.863,139.4a10.972,10.972,0,0,0,5.448-2.664"/><path class="cls-8" d="M103.132,132.742a6.111,6.111,0,0,0,5.256-2.539"/><path class="cls-4" d="M55.7,73.664A4.794,4.794,0,0,1,57.561,75c.577.826.9,1.4.9,1.4l-2.821,2.919a4.146,4.146,0,0,1-1.346-2.03,7.766,7.766,0,0,1-.384-2.538Z"/><path class="cls-5" d="M64.078,52.18c.81-1.833,6.171-2.345,7.481-1.065"/><path class="cls-5" d="M79.139,49.42a8.234,8.234,0,0,1,3.912-1.21"/><path class="cls-9" d="M65.3,47.148s-4.119,3.145-5.06,5.823-1.647,4.428-1.3,6.874.589,3.845.589,3.845-1.648-.235-2.118-1.4a14.131,14.131,0,0,0-1.883-3.26c-.588-.7-2.706-2.68-2.706.115a35.112,35.112,0,0,0,1.529,7.69s-2.588-5.593-4-9.088a15.3,15.3,0,0,1,0-10.251,8.175,8.175,0,0,1,2.353-3.961Z"/><path class="cls-3" d="M57.061,58.563s-2.707-3.027-3.883-2.328a2.629,2.629,0,0,0-.824,3.495c.706.931,1.648,1.746,1.648,2.8s.235,3.146,1.294,3.845a1.363,1.363,0,0,0,2-.816"/><path class="cls-2" d="M106.268,16.708c-2.5-3.821-6.837-3.587-10.765-4.428-6.642-1.422-5.173-1.523-11.1-4.264A36.688,36.688,0,0,0,53.438,7.69c-6.831,3.111-10.269,6.229-8.174,12.516,1.5,4.509,5.26,5.443,9.8,3.963l.048.009C54.821,26.39,53.677,35.1,53.29,37.3c-.445,2.529-.759,6.472-.759,6.472s11.755,4.084,18.753,4.084A58.1,58.1,0,0,0,84.5,46.206s-2.666-2.53-1.111-6.929A99.806,99.806,0,0,1,87.565,29.7c6.924.383,10.075,2.529,16.716-.367C107.8,27.8,109.049,20.955,106.268,16.708Z"/><path class="cls-10" d="M55.232,23.723a15.114,15.114,0,0,0,3.951-.5A6.088,6.088,0,0,0,62.5,21.27l.221-.294.136.333a4.237,4.237,0,0,0,2.383,2.461,6.694,6.694,0,0,0,3.545.205,13.925,13.925,0,0,0,3.456-1.136,16.61,16.61,0,0,0,3.12-1.906,16.646,16.646,0,0,1-3.075,2,14.068,14.068,0,0,1-3.462,1.246,6.941,6.941,0,0,1-3.693-.119,4.6,4.6,0,0,1-2.653-2.59l.357.039a6.529,6.529,0,0,1-3.505,2.223,15.717,15.717,0,0,1-4.091.632Z"/><path class="cls-10" d="M87.457,29.944a8.082,8.082,0,0,1-3.956-.652,8.863,8.863,0,0,1-3.084-2.5,6.512,6.512,0,0,1-1.706-3.528,9.613,9.613,0,0,1,.642-3.853,9.547,9.547,0,0,0-.484,3.834,6.293,6.293,0,0,0,1.787,3.337,8.483,8.483,0,0,0,3.036,2.272,7.517,7.517,0,0,0,3.71.455Z"/><path class="cls-10" d="M82.85,43.4a168.166,168.166,0,0,1-18.687,1.017A167.55,167.55,0,0,0,82.78,42.761Z"/><path class="cls-10" d="M72.2,44.066a26.373,26.373,0,0,0-.957-7.314c-.563-2.424-1.251-4.838-1.572-7.316.426,2.461,1.213,4.831,1.881,7.236A26.784,26.784,0,0,1,72.842,44.1Z"/><path class="cls-9" d="M77.476,47.557s2.706.464,4.824.814a11.129,11.129,0,0,0,5.119-.29c1.941-.584,2.235-2.971.823-3.613s-1.7.409-2,1.167-.823.64-1.412.7l-1.765.175Z"/><path class="cls-1" d="M34.74,134.953s1.665-8.468,6.553-12.426,9.109-7.368,10.775-7.7,3.443-.881,3.443-.881a47.594,47.594,0,0,1,4,3.739c2.221,2.31,4.554,5.829,4.776,6.929a5.664,5.664,0,0,0,1.222,2.2S62.731,130,61.4,131.544s-11.33,8.8-14.884,10.226-8.442,4.29-9.442,1.981S33.073,139.132,34.74,134.953Z"/><path class="cls-2" d="M77.594,124.442c-.269-2.808,4.035-2.891,5.52-1.633-.023-2.791,3.826-2.337,4.895-.52,1.4-3.763,7.858-1.308,9.059,1.57"/><path class="cls-2" d="M68.416,126.655c1.662-3.141,4.754-1.247,5.945,1.033.4-1.034,2.1-2.977,3.288-3.184,2.376-.416,3.192,2.589,4.416,4.073"/><path class="cls-2" d="M90.6,119.432c-.461-1.659,1.5-2.571,2.241-.826-.071-2.092.891-4.317,3.265-2.242a3.1,3.1,0,0,1,2.656-2.286c1.4.021,1.946,1.214,2.545,2.383"/><path class="cls-2" d="M82.947,119.548c-1.117-5.066,3.691-6.96,4.178-4.032-.114-3.444,1.906-5.044,4.527-1.863.534-2.775,5.445-1.94,6,.537"/><path class="cls-2" d="M78.711,120.306c-1.326-1.453-4.543-.6-4.87,1.355-1.107-1.405-3.182-2.14-4.094.022a2.65,2.65,0,0,0-3.332,2.817"/><path class="cls-2" d="M68.357,131.78c-.031-3.391,5.813-5.686,7.854-2.911.447-.673,1.976-1.772,2.9-1.576.718.152.839,1.136,1.42,1.368,1.437.572,1.149-.242,2.365-.96,2.072-1.221,6.686-2.245,8.049.294"/><path class="cls-2" d="M65.85,55.053s-1.006,3.178,1.094,4.2,2.528-1.194,2.835-1.867c.554-1.212-.333-4.061-1.737-3.975A2.548,2.548,0,0,0,65.85,55.053Z"/><path class="cls-10" d="M67.025,56.375s-.62,1.958.674,2.587,1.557-.736,1.747-1.15c.341-.747-.2-2.5-1.071-2.449A1.57,1.57,0,0,0,67.025,56.375Z"/><path class="cls-2" d="M80.852,53.229s-1.007,3.178,1.094,4.2,2.527-1.194,2.835-1.867c.554-1.212-.333-4.061-1.738-3.975A2.548,2.548,0,0,0,80.852,53.229Z"/><path class="cls-10" d="M82.027,54.551s-.621,1.958.674,2.587,1.557-.736,1.746-1.15c.342-.747-.2-2.5-1.07-2.449A1.569,1.569,0,0,0,82.027,54.551Z"/><path class="cls-10" d="M75.411,43.492c.633-5.012-.265-10.131-1.089-15.159C75.447,33.3,76.675,38.35,76.346,43.58Z"/><path class="cls-10" d="M79.467,43.6a14.091,14.091,0,0,1,.831-5.931l1.612-5.645-1.155,5.756a13.47,13.47,0,0,0-.366,5.643Z"/><path class="cls-10" d="M66.968,44.321a66.255,66.255,0,0,0-2.048-12.64A66.648,66.648,0,0,1,67.9,44.219Z"/></svg>