<svg id="word" xmlns="http://www.w3.org/2000/svg" xmlns:xlink="http://www.w3.org/1999/xlink" viewBox="0 0 160 160"><defs><style>.cls-1,.cls-11,.cls-20,.cls-22{fill:none;}.cls-2{clip-path:url(#clip-path);}.cls-3{fill:#aad1e1;}.cls-4{fill:#fdf5a7;}.cls-5{fill:#d9b988;opacity:0.58;}.cls-6,.cls-7{fill:#fbe4d6;}.cls-11,.cls-12,.cls-13,.cls-17,.cls-19,.cls-20,.cls-21,.cls-22,.cls-23,.cls-6,.cls-7,.cls-8,.cls-9{stroke:#9c4c9c;}.cls-11,.cls-12,.cls-13,.cls-19,.cls-22,.cls-6,.cls-7,.cls-8,.cls-9{stroke-miterlimit:10;}.cls-11,.cls-12,.cls-13,.cls-17,.cls-6,.cls-7,.cls-8,.cls-9{stroke-width:0.466px;}.cls-11,.cls-22,.cls-7{stroke-linecap:round;}.cls-8{fill:#fcf6bb;}.cls-16,.cls-9{fill:#fff;}.cls-10{fill:#9c4c9c;}.cls-12{fill:#00a8cf;}.cls-13{fill:#e5e319;}.cls-14{fill:#28aae1;}.cls-15{fill:#36b24a;}.cls-17{fill:#ed65a2;}.cls-18{fill:#c55188;}.cls-19{fill:#fac5ae;}.cls-19,.cls-20,.cls-21,.cls-22,.cls-23{stroke-width:0.373px;}.cls-21{fill:#716558;}.cls-23{fill:url(#linear-gradient);}</style><clipPath id="clip-path"><rect class="cls-1" x="14" y="14" width="132" height="132"/></clipPath><linearGradient id="linear-gradient" x1="39.177" y1="66.127" x2="44.791" y2="66.127" gradientUnits="userSpaceOnUse"><stop offset="0" stop-color="#882a21"/><stop offset="1" stop-color="#d24d57" stop-opacity="0"/></linearGradient></defs><g class="cls-2"><rect class="cls-3" x="4.357" y="0.656" width="159.971" height="159.971"/><path class="cls-4" d="M72.434,26.8S58.621,40.174,61.252,60.565s35.519,14.471,29.6,26.969-18.418,34.2-28.942,33.546-44.6,2.088-39.731,8.279,20,2.9,18.682,8.823-7.235,9.866,15.787,8.551,61.172.657,79.589.657,117.741-.657,107.874-18.417S212.066,105.8,212.066,93.306s-42.477-.692-26.5-17.612c17.174-18.185,1.218-77.849-3.606-91-4.253-11.6-64.315,25.933-82.342,7.906C93.044-13.982,72.434,26.8,72.434,26.8Z"/><path class="cls-5" d="M153.749,103.286s2.639,1.389.775,3.21-5.432,2.673-7.9,3.953-.829,3.326-.611,4.476-1.956,2.139-5.123,2.032-6.946-2-9.648.16c-6.835,5.474-20.285,2.274-27.088,1.6s-13.9-5.357-9.564-8.266a55.009,55.009,0,0,1,17.361-6.9c5.234-.972,13.645-3.343,23.076-3.113A86.8,86.8,0,0,1,153.749,103.286Z"/><path class="cls-6" d="M121.636,92.534s-12.592,10.312-13.42,11.351-2.7,3.945-1.117,5.952,6.189,1.038,6.189,1.038l14.21-13.7-.681-2.838L122,92.534Z"/><path class="cls-6" d="M128.015,95.642l-9.546,7.274s-5.9,4.845-5.613,7.267,3.67,4.291,6.045,3.945,13.457-6.021,15.832-7.2a10.791,10.791,0,0,0,5.037-6.437,14.874,14.874,0,0,0,0-6.229,71.7,71.7,0,0,0-8.085-.529A8.058,8.058,0,0,0,128.015,95.642Z"/><path class="cls-6" d="M124.874,69.278l.43,2.215-2.235,1.075s-.231,5.777,2.334,7.161,3.789-1.384,3.933-1.661,2.59-6.991,2.59-6.991l-1.871-.526-.273-1.273Z"/><path class="cls-6" d="M114.871,62.218s3.941,6.519,7.844,7.544a9.7,9.7,0,0,0,9-1.522c2.447-1.731,4.03-5.953,4.03-8.929s-.719-8.232-3.814-8.647-13.277,1.075-15.184,5.878A57.174,57.174,0,0,0,114.871,62.218Z"/><path class="cls-7" d="M123.4,63.106a.945.945,0,0,1,.8-1.17,1.409,1.409,0,0,1,.621.1,2.44,2.44,0,0,1,.807.5"/><path class="cls-7" d="M121.654,64.477a5.6,5.6,0,0,0,3.5.81,5.815,5.815,0,0,0,1.383-.122,5.97,5.97,0,0,0,2.733-1.97"/><path class="cls-8" d="M135.278,60.521a45,45,0,0,1-1.136,4.766c-.312.549-1.428,2.057-1.428,2.057h1.731a9.918,9.918,0,0,1,0,3.047c-.288,1.171.8,2.278.833,2.624s0-3.1,0-3.1.356,3.017,1.165,3.474,2.393,1.307,2.393,1.307a53.068,53.068,0,0,0-1.3-6.18,2.374,2.374,0,0,0-2.2-1.868s2.977-3.738,2.625-5.607-3.878-4.291-3.878-4.291Z"/><path class="cls-6" d="M122.449,72.568s-1.749.1-2.4,3.008S118.9,87.619,118.9,87.619s-3.814,4.292-4.678,5.676a35.2,35.2,0,0,1-2.374,3.184s-2.948,1.176-3.633,1.453-.973,2.561-.541,2.907,1.943-2.076,1.943-2.076a9.232,9.232,0,0,0,1.8.415,12.094,12.094,0,0,0,3.022-.761l.864-1.523a44,44,0,0,1,4.318-4.568,18.9,18.9,0,0,0,2.828-2.907l.62-5.7Z"/><ellipse class="cls-9" cx="119.63" cy="60.83" rx="1.378" ry="1.927" transform="translate(-13.449 43.463) rotate(-19.518)"/><ellipse class="cls-10" cx="119.01" cy="60.634" rx="0.835" ry="1.214" transform="translate(-13.361 42.811) rotate(-19.33)"/><ellipse class="cls-9" cx="129.722" cy="58.592" rx="1.378" ry="1.927" transform="translate(-12.121 46.706) rotate(-19.518)"/><ellipse class="cls-10" cx="129.102" cy="58.396" rx="0.835" ry="1.214" transform="translate(-12.052 46.025) rotate(-19.33)"/><path class="cls-11" d="M117.566,58.018a.627.627,0,0,1,.182-.549,4.742,4.742,0,0,1,.68-.783,1.658,1.658,0,0,1,.947-.422"/><path class="cls-12" d="M136.431,66.453s3.13-.686,4.094.766a6.263,6.263,0,0,0,3.038,2.059,6.178,6.178,0,0,0,2.673.643l-2.044,1.573s-.891.182-1.991-.943a35.6,35.6,0,0,0-4.209-3.594,11.366,11.366,0,0,0-2.252-.261Z"/><path class="cls-12" d="M133.661,67.344l.884.968s.142.134.808-.484a5.919,5.919,0,0,1,1.078-.839l-.691-.875S133.923,66.269,133.661,67.344Z"/><path class="cls-13" d="M121.947,72.858l1.822-.832s-.023,6.092,2.783,6.092,4.914-7.127,4.914-7.127l2.795.854s-2.311,2.12-1.808,4.819,3.886,7.406,4.894,9.206,2.447,8.444,2.447,8.444S133.1,93,130.87,94.037a25.945,25.945,0,0,0-4.533,2.907,9.61,9.61,0,0,0-1.921-2.629,21.4,21.4,0,0,0-2.757-1.732s2.878-3.253,2.807-5.675-.876-1.938-1.374-4.084S121.947,72.858,121.947,72.858Z"/><ellipse class="cls-14" cx="131.073" cy="84.703" rx="0.518" ry="0.473"/><path class="cls-15" d="M127,84.7l2.809,3.179a2.284,2.284,0,0,1-2.848-.113C125.6,86.675,127,84.7,127,84.7Z"/><path class="cls-16" d="M128.2,86.485l-1.137-1.33s-.457.641-.352.766A10.4,10.4,0,0,0,128.2,86.485Z"/><path class="cls-16" d="M128.2,86.587l-1.505-.289s-.05.6.107.792S128.2,86.587,128.2,86.587Z"/><path class="cls-16" d="M128.288,86.71l-1.149.82a1.776,1.776,0,0,0,.575.44C128.2,88.183,128.288,86.71,128.288,86.71Z"/><path class="cls-16" d="M128.414,86.788l-.126,1.217s.126.1.68-.022a2.919,2.919,0,0,0,.418-.177A9.759,9.759,0,0,0,128.414,86.788Z"/><path class="cls-15" d="M132.347,82.036l-4.442-.816a2.285,2.285,0,0,1,2.39-1.7C132.141,79.555,132.347,82.036,132.347,82.036Z"/><path class="cls-16" d="M130.159,81.344l1.827.366s-.064-.808-.234-.845A11.019,11.019,0,0,0,130.159,81.344Z"/><path class="cls-16" d="M130.09,81.261l1.418-.712s-.369-.521-.625-.575S130.09,81.261,130.09,81.261Z"/><path class="cls-16" d="M129.932,81.218l.377-1.388a1.947,1.947,0,0,0-.766,0C129.005,79.965,129.932,81.218,129.932,81.218Z"/><path class="cls-16" d="M129.777,81.234l-.725-1.067s-.172,0-.537.445a2.876,2.876,0,0,0-.219.406A10.684,10.684,0,0,0,129.777,81.234Z"/><path class="cls-15" d="M127.031,93.388,123,91.838a2.23,2.23,0,0,1,2.573-1.179C127.31,91.015,127.031,93.388,127.031,93.388Z"/><path class="cls-16" d="M125.1,92.352l1.651.665s.093-.772-.06-.836A10.622,10.622,0,0,0,125.1,92.352Z"/><path class="cls-16" d="M125.053,92.261l1.471-.42s-.248-.556-.478-.652S125.053,92.261,125.053,92.261Z"/><path class="cls-16" d="M124.913,92.193l.619-1.241a1.867,1.867,0,0,0-.722-.131C124.279,90.85,124.913,92.193,124.913,92.193Z"/><path class="cls-16" d="M124.764,92.181l-.48-1.133s-.161-.034-.59.325a2.868,2.868,0,0,0-.284.344A10.167,10.167,0,0,0,124.764,92.181Z"/><path class="cls-15" d="M132,89.723l.767-4.287a2.259,2.259,0,0,1,1.81,2.268C134.578,89.48,132,89.723,132,89.723Z"/><path class="cls-16" d="M132.682,87.607l-.347,1.763s.839-.076.874-.241A10.051,10.051,0,0,0,132.682,87.607Z"/><path class="cls-16" d="M132.768,87.538l.765,1.351s.535-.364.587-.611S132.768,87.538,132.768,87.538Z"/><path class="cls-16" d="M132.809,87.385l1.45.338a1.733,1.733,0,0,0-.019-.737C134.1,86.472,132.809,87.385,132.809,87.385Z"/><path class="cls-16" d="M132.79,87.237l1.1-.717s0-.165-.473-.508a3.044,3.044,0,0,0-.426-.2A9.673,9.673,0,0,0,132.79,87.237Z"/><path class="cls-15" d="M123.825,77.471l2.308,2.874a1.748,1.748,0,0,1-2.34-.1C122.676,79.254,123.825,77.471,123.825,77.471Z"/><path class="cls-16" d="M124.813,79.082l-.934-1.2s-.376.579-.29.693A8.187,8.187,0,0,0,124.813,79.082Z"/><path class="cls-16" d="M124.813,79.175l-1.237-.262a1.579,1.579,0,0,0,.088.716C123.793,79.8,124.813,79.175,124.813,79.175Z"/><path class="cls-16" d="M124.888,79.286l-.945.741a1.5,1.5,0,0,0,.473.4C124.813,80.617,124.888,79.286,124.888,79.286Z"/><path class="cls-16" d="M124.991,79.356l-.1,1.1s.1.092.558-.021a2.409,2.409,0,0,0,.344-.159A8.482,8.482,0,0,0,124.991,79.356Z"/><ellipse class="cls-14" cx="126.362" cy="82.709" rx="0.518" ry="0.473"/><ellipse class="cls-14" cx="130.309" cy="77.88" rx="0.518" ry="0.473"/><ellipse class="cls-14" cx="125.789" cy="88.889" rx="0.518" ry="0.473"/><ellipse class="cls-14" cx="129.401" cy="90.82" rx="0.518" ry="0.473"/><ellipse class="cls-14" cx="129.03" cy="83.135" rx="0.29" ry="0.265"/><ellipse class="cls-14" cx="130.827" cy="87.991" rx="0.518" ry="0.473"/><ellipse class="cls-14" cx="133.815" cy="91.276" rx="0.518" ry="0.473"/><ellipse class="cls-14" cx="133.444" cy="83.592" rx="0.29" ry="0.265"/><ellipse class="cls-14" cx="126.848" cy="94.471" rx="0.29" ry="0.265"/><ellipse class="cls-14" cx="128.288" cy="78.913" rx="0.29" ry="0.265"/><path class="cls-6" d="M134.157,71.562a4,4,0,0,0-1.808,3.134c.081,1.918.8,7.621,1.448,9.027a29.064,29.064,0,0,1,1.224,3.412,61.742,61.742,0,0,0-2.675,5.606c-.708,1.938-1.643,3.876-1.643,3.876A21.351,21.351,0,0,0,127.9,98a9.63,9.63,0,0,0-1.943,2.838c-.144.762-.935,1.246,0,1.523s1.545-2.007,1.545-2.007-.831,1.569,0,2.03,1.334-3,1.334-3-.792,3.107.36,3.041,1.07-2.9,1.07-2.9.3,2.077.441,2.423.72.761.791-.07a9.421,9.421,0,0,1,.432-1.868s1.008-.416,1.08-.9.216-1.384.216-1.384,3.742-5.191,4.245-5.953A11.338,11.338,0,0,0,138.835,87c.072-1.867-2.087-10.934-2.087-11.973S136.028,71.008,134.157,71.562Z"/><path class="cls-8" d="M118.063,66.441a10.1,10.1,0,0,1-6.487-8.686c-.342-3.811.287-6.564,2.814-9.439.5-.573,2.095-2.221,2.858-2.243l1.262-.386c.343-1.56,2.144-2.295,3.729-2.5a13.936,13.936,0,0,1,12.2,4.791c2.925,3.494,3.773,7.77.495,14.966,0,0,0-3.811-.959-5.517s-1.6-3.331-3.412-4.5-7.142-.853-8.741-.746-3.092,2.345-3.518,2.772-2.346,2.771-2.346,5.117S118.063,66.441,118.063,66.441Z"/><path class="cls-8" d="M118.547,49.436a3,3,0,0,0-2.718,2.079c-.72,2.078-.959,5.836-.24,7.355a14.93,14.93,0,0,1,.96,4s-.64-4.237.8-6.556a14.758,14.758,0,0,1,2.079-2.878,5.759,5.759,0,0,0,1.439,3.518c1.439,1.6,2.879,2.878,2.879,2.878s-2.8-6.4-2.559-7.276.879.959,2,2,2.878,2.558,3.038,2.8a31.354,31.354,0,0,0-1.439-3.518c-.64-1.359-1.119-1.2,1.6,0s4.478,1.759,4.8,2.159a25.885,25.885,0,0,0-2.318-3.2c-.72-.72,4.077,2.079,4.957,3.2s1.6-.56-.08-2.718-3.118-6.237-7.356-6.077C120.758,47.409,118.547,49.436,118.547,49.436Z"/><path class="cls-17" d="M94.459,87.491c-14.284,3.534-24.1,13.5-21.936,22.26s15.5,13,29.784,9.463,24.105-13.5,21.938-22.259S108.742,83.958,94.459,87.491Zm4.821,16.7c-6.9,1.706-13.1.6-13.861-2.475s4.213-6.943,11.109-8.649,13.1-.6,13.86,2.472S106.175,102.486,99.28,104.192Z"/><path class="cls-16" d="M75.522,100.661s-1.085,7.094,4.289,8.994S94.218,111.9,94.218,111.9s-9.346,2.22-12.449,1.144-8.267-5.242-7.58-8.732S75.522,100.661,75.522,100.661Z"/><path class="cls-16" d="M116.273,103.676c.334-.529,4.263-3.634,3.687-7a22.16,22.16,0,0,0-1.516-5.435c-.231-.588,2.337,1.451,2.53,3.618a11.054,11.054,0,0,1-1.8,6.626C118.014,103.062,115.1,105.535,116.273,103.676Z"/><path class="cls-18" d="M81.81,114.6a36.941,36.941,0,0,0,21.933-2.105c11.525-4.882,13.852-7.3,15.951-9.941s1.807-6.26,2.8-6.413,2.063,5.209-.184,8.993S107.5,117.93,97.413,119.6,73.54,116.648,81.81,114.6Z"/><path class="cls-19" d="M54.973,75.159c.7-.924,2.032-1.386,3.282-2.156s2.109-7.081,2.109-7.081A7.879,7.879,0,0,1,61.928,64.3a4.457,4.457,0,0,0,1.251-2.154s2.577,0,2.969-.848-3.163-.862-3.163-.862,2.928-1.755,2.382-2.447-3.424,1.078-3.424,1.078,2.018-4,1.157-4.235-2.736,3.233-2.736,3.233.783-4.387-.78-4.311-1.25,5.7-1.25,5.7a2.438,2.438,0,0,0-1.72-1.617c-1.406-.385-.938.615-.234,1.693s.313,1.54.391,2.618,1.484,2.309,1.484,2.309a64.787,64.787,0,0,0-3.125,5.7c-.392,1.155-2.345,1.848-4.611,2.233s-4.767.924-4.767.924l-.868.213-.832-3.412-5.412.359.08,3.379-1.8-.078s-3.282-.153-4.22-.692a4.75,4.75,0,0,1-1.954-1.617c-.235-.539-3.908-4.387-3.908-4.387l.47-1.54s2.97-2.156,2.5-3.234-1.171-.538-1.562-.307S25.9,63.3,25.9,63.3s-.859-2-1.172-2.925-1.608-4.338-2.156-3.646.516,4.415.516,4.415l-.157,1.078s-3.986-4.232-4.611-3,2.969,3.7,2.969,3.7l.08.692s-4.3-.154-3.752,1,3.517.77,3.517.77-.313,1.462-.782,1.616-2.189,1.386-1.094,1.925,3.2-.616,3.048-.847,1.719.616,2.188.539.078-.463,1.015,1.539S27.7,74.774,29.5,75.544s4.609,2.54,5.469,3a18.867,18.867,0,0,1,5.623-1.079c3.067-.087,8.85.351,10.865-.438A17.768,17.768,0,0,0,54.973,75.159Z"/><path class="cls-20" d="M58.933,58.672a3.42,3.42,0,0,1,3.7,3.536"/><path class="cls-20" d="M22.344,66.656a2.76,2.76,0,0,1,2.026-3.707"/><path class="cls-19" d="M45.888,58.463s1.656-.637,2.09.493-.107,1.049-.078,1.915a1.393,1.393,0,0,1-.912,1.22"/><path class="cls-19" d="M46.685,60.686A6.631,6.631,0,0,1,47.22,65c-.549,2.343-1.6,5.332-2.8,6.237s-4.826.867-6.242.831c-.759-.019-3.659-1.543-5.317-2.746s-4.778-4.874-4.422-7.06,4.939-9.826,7.523-9.358,8.688,3.266,9.253,4.12A24.507,24.507,0,0,1,46.685,60.686Z"/><path class="cls-21" d="M34.738,54.536a15.219,15.219,0,0,0,1.881,3.217,13.53,13.53,0,0,0,3.192,2.168,5.011,5.011,0,0,1-2.645-.585c-.926-.673-2.171-1.724-2.171-1.724a11,11,0,0,1,1.117,4.441,19.706,19.706,0,0,1-1.076,4.256s.586-4.908-.32-6.01-1.75-2.085-1.75-2.085a29.1,29.1,0,0,1,.873,5.672c.021,2.385-.168,4.248-.168,4.248s-.85-1.579-1.219-2.292-.083,3.133.406,3.48,1.93,1.3,1.93,1.3-4.284-.839-6.071-2.712c-9.128-9.564-.166-16.068.147-16.286a23.115,23.115,0,0,0,3.12-1.75c1.962-1.317,8.225-1.144,9.272-.532s2.2-.329,3.429,2.858,2.183,4.782,1.956,6.234a5.178,5.178,0,0,0,.044,2.255,27.614,27.614,0,0,0-3.2-4.172c-1.436-1.369-2.953-2.588-2.953-2.588a13.793,13.793,0,0,1,2.183,3.14c.545,1.358,1.143,3.274,1.143,3.274s-1.227-3.187-2.677-4.165a16.564,16.564,0,0,0-3.1-1.584l3.754,4.132s-3.967-3.545-4.991-4.288-1.519-.584-1.519-.584Z"/><path class="cls-22" d="M42.808,63.386a1.164,1.164,0,0,0-1.106.032,1.124,1.124,0,0,0-.541.951"/><path class="cls-22" d="M38.324,63.386a1.164,1.164,0,0,0-1.106.032,1.124,1.124,0,0,0-.541.951"/><path class="cls-22" d="M43.631,60.312a1.164,1.164,0,0,0-1.106.032,1.128,1.128,0,0,0-.541.951"/><path class="cls-19" d="M32.286,66.127S29.035,65.784,31,68.636c.69,1,1.625.431,2.345.723s.976-.512.976-.512"/><path class="cls-23" d="M39.177,66.294a14.207,14.207,0,0,0,3.3-1.043,14.691,14.691,0,0,0,2.313-1.831s-.636,1.607-.3,2.109.52.462-.169,2.061a2.04,2.04,0,0,1-3.256.726A14.069,14.069,0,0,1,39.177,66.294Z"/><path class="cls-3" d="M12.862,80.171s12.327-5.924,16.574-5,2.981,3.068,6.859,2.7,2.926-2.883,6.988-1.591,4.616,2.031,5.909,2.216,3.508-4.247,6.831-2.954a10.665,10.665,0,0,1,4.8,3.508"/><path class="cls-10" d="M12.862,80.171a65.919,65.919,0,0,1,12.3-4.76,14.627,14.627,0,0,1,3.289-.474,5.99,5.99,0,0,1,1.661.254,7.129,7.129,0,0,1,1.56.623c1.028.506,1.673,1.55,2.692,1.79a4.7,4.7,0,0,0,1.579.108,7.416,7.416,0,0,0,1.582-.261,5.1,5.1,0,0,0,1.432-.683A6.429,6.429,0,0,1,40.4,75.9a5.409,5.409,0,0,1,3.324.358,33.026,33.026,0,0,1,3.092,1.184c.506.221,1,.471,1.5.675a4.086,4.086,0,0,0,.765.226.845.845,0,0,0,.693-.155c.879-.6,1.619-1.461,2.541-2.084a3.988,3.988,0,0,1,3.173-.819,10.815,10.815,0,0,1,5.333,3.76,10.749,10.749,0,0,0-5.371-3.583,3.808,3.808,0,0,0-3.011.818c-.9.619-1.6,1.467-2.536,2.118a1.1,1.1,0,0,1-.867.2,4.3,4.3,0,0,1-.816-.232c-.521-.207-1.011-.45-1.514-.665-1-.436-2.034-.81-3.077-1.144a5.14,5.14,0,0,0-3.114-.331,6.132,6.132,0,0,0-1.36.841,5.476,5.476,0,0,1-1.527.743,7.785,7.785,0,0,1-1.667.26,4.992,4.992,0,0,1-1.693-.137,3.568,3.568,0,0,1-1.46-.879,7.14,7.14,0,0,0-1.289-.969,6.764,6.764,0,0,0-1.49-.61,5.668,5.668,0,0,0-1.584-.259,14.33,14.33,0,0,0-3.229.437,50.859,50.859,0,0,0-6.265,2Q15.868,78.806,12.862,80.171Z"/></g></svg>