<svg id="word" xmlns="http://www.w3.org/2000/svg" xmlns:xlink="http://www.w3.org/1999/xlink" viewBox="0 0 160 160"><defs><style>.cls-1{fill:#a3c0d8;}.cls-2{fill:#f8ed56;}.cls-10,.cls-2,.cls-5,.cls-6,.cls-7,.cls-8,.cls-9{stroke:#9d4b9c;stroke-width:0.806px;}.cls-3{fill:#fff;}.cls-4{fill:#f5d954;}.cls-5{fill:#fac5af;}.cls-5,.cls-9{stroke-miterlimit:10;}.cls-6{fill:#f49fc4;}.cls-7,.cls-9{fill:none;}.cls-8{fill:#f69453;}.cls-9{stroke-linecap:round;}.cls-10{fill:url(#linear-gradient);}</style><linearGradient id="linear-gradient" x1="73.554" y1="51.253" x2="82.339" y2="51.253" gradientUnits="userSpaceOnUse"><stop offset="0" stop-color="#882922"/><stop offset="1" stop-color="#d24c56" stop-opacity="0"/></linearGradient></defs><path class="cls-1" d="M45.953,83.627S16.5,92.414,22.868,108.716c2.961,7.579,14.784,15.427,28.5,19.011,17.329,4.529,35.27,5.822,48.458,4,26.427-3.645,45.851-22.79,31.659-33.532-10.149-7.681-14.069-15.853-35.524-23.276s-50,4.549-50,4.549"/><path class="cls-2" d="M81.115,61.786c-29.048,0-52.59,14.586-52.59,32.575s23.542,32.573,52.59,32.573,52.592-14.585,52.592-32.573S110.16,61.786,81.115,61.786Zm1.319,34.628c-14.022,0-25.389-5.116-25.389-11.426s11.367-11.42,25.389-11.42,25.389,5.116,25.389,11.42S96.457,96.414,82.434,96.414Z"/><path class="cls-3" d="M38.581,78.206s-5.442,13.21,3.956,19.459,26.544,11.242,26.544,11.242-18.962-.178-24.4-3.745S31.326,91.059,34.3,84.633,38.581,78.206,38.581,78.206Z"/><path class="cls-3" d="M115.242,103.551c.893-.864,9.893-4.991,10.384-11.779a44.708,44.708,0,0,0-.327-11.244c-.164-1.249,3.789,3.928,3.132,8.212a22.1,22.1,0,0,1-6.6,11.961C118.869,103.2,112.108,106.586,115.242,103.551Z"/><path class="cls-4" d="M44.021,108.2a72.322,72.322,0,0,0,43.028,6.426c24.4-3.93,30.007-7.5,35.281-11.6s6.43-11.25,8.408-11.07,1.484,11.07-4.617,17.315-34.455,17.667-54.567,16.062S27.205,108.2,44.021,108.2Z"/><path class="cls-5" d="M72.715,58.154l.124,5.368s6.046,11.766,8.98,11.4,1.9-6.7,1.9-6.7L81.182,57.584Z"/><path class="cls-5" d="M83.842,62.666s3.914-.857,7.459-1.468,6.6-1.712,7.215-3.546,4.891-9.048,4.891-9.048-2.2-1.957-2.323-3.668.49-2.448-.611-4.159-1.835-3.3.365-2.689a3.849,3.849,0,0,1,2.692,2.569s-.49-8.928,1.956-9.051,1.221,6.848,1.221,6.848,2.936-5.5,4.281-5.136-1.811,6.727-1.811,6.727,4.5-2.814,5.357-1.713-3.727,3.887-3.727,3.887,5.559.027,4.951,1.37-4.647,1.347-4.647,1.347-.613,2.446-1.957,3.422a12.433,12.433,0,0,0-2.447,2.569s-1.344,10.026-3.3,11.249-4.036,1.956-5.136,3.424-9.17,6.358-9.17,6.358Z"/><path class="cls-5" d="M70.026,63.4s-5.136-.243-6.6-1.1-2.691-1.712-3.058-2.568-6.115-6.97-6.115-6.97l.735-2.445s4.647-3.425,3.912-5.137-1.832-.855-2.444-.488-3.669,2.077-3.669,2.077-1.344-3.179-1.834-4.645-2.517-6.892-3.373-5.792.807,7.014.807,7.014l-.245,1.712s-6.237-6.723-7.216-4.769,4.646,5.87,4.646,5.87l.124,1.1s-6.727-.245-5.871,1.59,5.5,1.223,5.5,1.223-.49,2.322-1.223,2.567-3.426,2.2-1.712,3.057,5.012-.978,4.768-1.345,2.691.979,3.425.856.122-.735,1.588,2.446,3.426,7.336,6.237,8.559,7.213,4.035,8.558,4.769,3.671,3.3,3.671,4.4.366,4.646,2.445,3.3,2.443-1.956,1.955-5.015S70.026,63.4,70.026,63.4Z"/><path class="cls-6" d="M69.5,63.417l3.08-.906s6.55,11.764,9.24,10.418.435-10.509.435-10.509l1.588.246s4.138,7.726,6.04,8.723c.487.255.2,8.883.93,10.106s1.144,5.444,1.878,8.012a18.365,18.365,0,0,1,.453,5.707,73.685,73.685,0,0,1-11.99,1.2c-11.744-.022-16.092-3.193-16.092-3.193s4.6-4.022,5.454-7.446-.735-11.616-.735-11.616,4.037,4.524,4.28,1.468-1.833-5.87-2.079-6.972A43.924,43.924,0,0,0,69.5,63.417Z"/><path class="cls-7" d="M104.467,39.411c3.366-.418,5.669,2.419,5.8,5.617"/><path class="cls-7" d="M47.215,52.093c-.764-2.62.407-5.4,3.17-5.888"/><path class="cls-7" d="M70.975,83.06c6.353,5.537,13.339-1.527,19.81-.966"/><path class="cls-7" d="M70.251,86.08c5.059,4.392,15.332,1.847,21.741,1.932"/><path class="cls-7" d="M69.163,88.5C74.35,96.772,85.93,90.861,93.2,91.635"/><path class="cls-7" d="M70.855,79.195c3.136,5.843,14.053.013,19.447,0"/><path class="cls-7" d="M70.13,76.9c7.031,5.153,14-2.881,20.05.482"/><path class="cls-8" d="M60.069,27.331l.636-3.5a5.29,5.29,0,0,0-.057-3.068c-.486-1.1-2.834-2.553-3.945-3.014-2.613-1.083-4.392-.883-7.075.016-.929.311-1.794.8-2.728,1.1a11.658,11.658,0,0,1-2.89.463,7.281,7.281,0,0,1-3.574-.468,2.967,2.967,0,0,1-1.8-2.888,4.357,4.357,0,0,0,5.193,5.808c-1.649.96-3.431,1.911-5.337,1.833a6.494,6.494,0,0,1-4.58-2.441,11.57,11.57,0,0,1-2.216-4.81,17.159,17.159,0,0,0-.032,6.776,4.147,4.147,0,0,0,.914,1.879,4.577,4.577,0,0,0,1.42.931,17.724,17.724,0,0,0,6.234,1.632c-3.061.392-4.466,1.977-9.23-.105a8.893,8.893,0,0,0,6.48,4.813A10.2,10.2,0,0,0,45.358,30.2c.556-.436,1.069-.926,1.642-1.34a8.076,8.076,0,0,1,9.919.609"/><path class="cls-5" d="M84.055,39.08s2.592-1.012,3.27.783-.167,1.665-.121,3.041a2.206,2.206,0,0,1-1.427,1.938"/><path class="cls-5" d="M85.3,42.61a10.669,10.669,0,0,1,.837,6.853c-.858,3.721-2.5,8.469-4.386,9.907s-7.55,1.377-9.767,1.321c-1.187-.031-5.726-2.452-8.319-4.363s-7.477-7.742-6.92-11.215,7.729-15.606,11.772-14.865S82.113,35.436,83,36.793A39.248,39.248,0,0,1,85.3,42.61Z"/><path class="cls-8" d="M66.608,32.842a24.323,24.323,0,0,0,2.944,5.11A21.157,21.157,0,0,0,74.547,41.4s-2.69.137-4.139-.931-3.4-2.737-3.4-2.737S69,41.9,68.759,44.781a31.733,31.733,0,0,1-1.685,6.761s.918-7.8-.5-9.546-2.739-3.312-2.739-3.312A46.837,46.837,0,0,1,65.2,47.693c.033,3.789-.263,6.748-.263,6.748s-1.33-2.509-1.908-3.641-.129,4.978.636,5.528,3.02,2.059,3.02,2.059-6.7-1.332-9.5-4.306c-14.283-15.192-.26-25.524.23-25.869a36.151,36.151,0,0,0,4.882-2.78c3.071-2.092,12.87-1.817,14.509-.846s3.444-.523,5.364,4.539,3.417,7.6,3.061,9.9A8.344,8.344,0,0,0,85.3,42.61a43.891,43.891,0,0,0-5-6.627c-2.248-2.174-4.622-4.11-4.622-4.11a21.866,21.866,0,0,1,3.416,4.987c.853,2.158,1.789,5.2,1.789,5.2S78.962,37,76.693,35.446a25.624,25.624,0,0,0-4.854-2.517l5.875,6.563s-6.208-5.631-7.81-6.811-2.377-.927-2.377-.927Z"/><path class="cls-9" d="M79.235,46.9a1.757,1.757,0,0,0-2.577,1.56"/><path class="cls-9" d="M72.219,46.9a1.757,1.757,0,0,0-2.577,1.56"/><path class="cls-9" d="M80.524,42.017a1.757,1.757,0,0,0-2.577,1.56"/><path class="cls-5" d="M62.772,51.253s-5.087-.545-2.015,3.985c1.08,1.592,2.544.684,3.67,1.148s1.528-.812,1.528-.812"/><path class="cls-10" d="M73.554,51.518a21.972,21.972,0,0,0,5.165-1.656,23.1,23.1,0,0,0,3.62-2.909s-1,2.553-.469,3.35.815.733-.264,3.274a3.167,3.167,0,0,1-5.094,1.152A22.215,22.215,0,0,1,73.554,51.518Z"/></svg>