<svg id="word" xmlns="http://www.w3.org/2000/svg" viewBox="0 0 160 160"><defs><style>.cls-1{opacity:0.16;}.cls-2{fill:#9c4c9c;}.cls-3{fill:#fbe1d1;}.cls-10,.cls-11,.cls-13,.cls-14,.cls-3,.cls-4,.cls-5,.cls-6,.cls-7{stroke:#9d4b9c;}.cls-10,.cls-11,.cls-13,.cls-14,.cls-3,.cls-4,.cls-6,.cls-7{stroke-miterlimit:10;}.cls-11,.cls-3,.cls-4,.cls-5,.cls-6,.cls-7{stroke-width:0.419px;}.cls-4{fill:#a776b1;}.cls-5{fill:#0b73b8;}.cls-6{fill:#cedc28;}.cls-11,.cls-7{fill:none;}.cls-10,.cls-8{fill:#fff;}.cls-9{fill:#9bc4e7;}.cls-10,.cls-13,.cls-14{stroke-width:0.21px;}.cls-11{stroke-linecap:round;}.cls-12{opacity:0.38;}.cls-13{fill:#ffe98d;}.cls-14{fill:#356bad;}</style></defs><g class="cls-1"><path class="cls-2" d="M126.6,82.971c-5.355.368-10.113,3.57-15.385,4.575-11.21,2.139-17.571-12.478-41.34,1.662,0,0,14.9-4.139,19.394-3.075s8.4,4.139,15.846,5.322,14.191-1.762,19.335-3.542,21.4-.565,21.4-.565c-3.515-1.1-7.031-2.207-10.59-3.158A26.74,26.74,0,0,0,126.6,82.971Z"/><path class="cls-2" d="M79.819,94.185c4.769-1.7,10.761-3.385,14.387-2.383s10.307,2.383,10.307,2.383a33.7,33.7,0,0,0-17.8-4.574c-5.711.15-11.384,1.76-17.068,1.181C66.4,90.462,63.253,89.423,60,89.1a43.947,43.947,0,0,0-5.852-.056l-13.743.481S57.627,90.99,61.1,91.582,75.049,95.882,79.819,94.185Z"/><path class="cls-2" d="M100.2,56.315s-8.759,2.137-5.3,5.36C95.885,62.593,100.2,56.315,100.2,56.315Z"/><path class="cls-2" d="M94.637,66.324s-6.51-.311-4.407,3.691C91.057,71.59,94.637,66.324,94.637,66.324Z"/><path class="cls-2" d="M88.426,61.777s-9.008-.386-6.58,3.674C82.537,66.606,88.426,61.777,88.426,61.777Z"/><path class="cls-2" d="M109.112,103.934a.88.88,0,0,0,.442.343s1.229.08,2.776.161c-1.392.059-2.456.113-2.456.113a1.145,1.145,0,0,0-.2.077,2.8,2.8,0,0,0-.912-.515A2.011,2.011,0,0,0,109.112,103.934Zm-20.112.5h.1l-.04.056A.314.314,0,0,0,89,104.432Zm7.24.087s-.016.052-.036.129c-.234-.217-.81-.185-1.688-.217l-.215-.006c.817-.032,1.359-.007,1.583-.271.02.1.036.164.036.164a5.921,5.921,0,0,0,1.088.12A5.889,5.889,0,0,0,96.24,104.519Zm6.367-.025c-.927-.01-2.039-.047-3.09-.067.954-.027,1.937-.066,2.769-.078a8.808,8.808,0,0,0,1.14-.059,2.957,2.957,0,0,0-.221.216C103.037,104.5,102.843,104.5,102.607,104.494Zm16.309-.091c-.043-.013-.1-.024-.15-.036a.319.319,0,0,0,.031-.033h.142Zm17.4-.093h.065l-.027.038A.345.345,0,0,0,136.316,104.31Zm5.556-.017c.665-.02,1.11-.028,1.308-.261.02.1.035.164.035.164.084.021.184.038.291.054-.015.057-.033.13-.051.224A3.9,3.9,0,0,0,141.872,104.293Z"/></g><path class="cls-3" d="M65.585,74.9s4.848-.17,5.439-3.4,1.065-12.686,1.419-15.524,2.011-9.7,4.021-10.643a9.979,9.979,0,0,1,8.278,0c3.311,1.419,14.427,5.321,17.856,6.74s6.859,4.021,7.805,4.021,7.923,1.064,9.933,2.01,6.031,3.524,6.268,4.127-5.44.462-6.859,0-2.838-2-3.429-.579-.473,1.3,0,2.72,1.064,1.3.473,1.419-4.139-3.829-4.73-4.634a22.642,22.642,0,0,0-3.666-2.7s-.118-.473-5.44-1.655-11.944-1.774-14.427-2.72-6.74-3.193-7.332-1.538a42.406,42.406,0,0,0-1.3,7.923c0,1.183-1.893.828-.947,2.72a37.1,37.1,0,0,1,2.72,6.268c.237,1.3,1.288,4.612,1.288,4.612s3.324,6.017,3.679,5.965a33.618,33.618,0,0,1,4,1.7s-3.414,4.282-5.424,4.282-6.326,1.235-8.4-3.429c-1.088-2.451-13.126-4.73-13.6-4.73S63.959,75.136,65.585,74.9Z"/><path class="cls-3" d="M93.966,64.254a16.424,16.424,0,0,0-5.085,2.6c-1.084.994-3.126,1.209-4.316,4.645-.219.632-1.6,5.334-.651,7.226a6.841,6.841,0,0,0,6.054,3.792,23.6,23.6,0,0,0,9.437-2.3c2.129-1.183,6.268-.355,6.859-4.021s.355-9.7-2.365-10.643S97.1,63.191,93.966,64.254Z"/><path class="cls-4" d="M88.855,66.226s3.272-3.75,5.15-4.85a11.714,11.714,0,0,1,11.471-.219c3.784,2.022,5.282,5.225,5.4,7.354s.591,3.823-.828,6.188-3.9,5.164-5.558,5.282A9.485,9.485,0,0,1,101.3,79.6a9.693,9.693,0,0,0,1.711-5.081c-.118-2.484-.272-4.357-2.282-6.131s-3.406-2.986-5.988-3.311S89.565,66.226,88.855,66.226Z"/><path class="cls-5" d="M96.686,70.6a4.41,4.41,0,0,1-2.72.872,4.867,4.867,0,0,1-2.838-2.483c-.592-1.065-.71-2.484,0-2.72s2.853-.473,3.614,0,3.126,2.291,2.535,3.311Z"/><path class="cls-6" d="M65.585,74.9s-4.021,2.011-6.031,3.312-1.892,1.5-4.967,1.1-9.065-1.56-14.068-1.217c-7.391.507-11.1,6.8-9.937,6.933,0,0,16.2,3.177,20.931,3.089s26.252-1.153,28.617-.8,2.825.8,2.825.8l3.067-2.282s-12.4,1.311-7.666-5.795a28.135,28.135,0,0,1,4.755-5.684l-.77-2.3s-1.854,4.3-5.993,4.416S67.477,77.971,65.585,74.9Z"/><path class="cls-5" d="M98.065,72.815s-2.089-.087-2.089,3.027c0,1.183,1.344,3.419,2.113,3.656s2.262-.7,2.736-1.172S100.312,73.761,98.065,72.815Z"/><path class="cls-7" d="M65.758,76.592a11.558,11.558,0,0,1-5.483,3.447c-6.446,1.82-13.554-2.147-19.914-.047A21.93,21.93,0,0,0,34.177,83.7"/><path class="cls-8" d="M111.823,82.909c-3.515-1.1-7.031-2.206-10.59-3.157a26.713,26.713,0,0,0-8.659-1.219c-5.355.367-10.113,3.569-15.385,4.575-11.21,2.138-17.571-12.478-41.34,1.661,0,0,14.9-4.138,19.394-3.074s8.4,4.139,15.846,5.321,14.19-1.762,19.334-3.541S111.823,82.909,111.823,82.909Z"/><path class="cls-8" d="M70.486,89.747a33.7,33.7,0,0,0-17.8-4.575c-5.712.151-11.384,1.76-17.068,1.182-3.248-.331-6.392-1.369-9.641-1.689a44.13,44.13,0,0,0-5.853-.055c-4.581.16-8.648,6.486-13.229,6.646,0,0,16.7-4.7,20.173-4.112s13.954,4.3,18.723,2.6,10.762-3.385,14.388-2.383S70.486,89.747,70.486,89.747Z"/><path class="cls-8" d="M60.585,90a13.065,13.065,0,0,0,11.952,5.413,44.948,44.948,0,0,0,7.018-1.885,30.24,30.24,0,0,1,25.861,4.755s-9.643-3.592-18.158-3.119-13.776,3.153-18.319,1.892S60.585,90,60.585,90Z"/><path class="cls-9" d="M96.04,70.118a3.352,3.352,0,0,1-2.065.662A3.7,3.7,0,0,1,91.821,68.9c-.449-.808-.539-1.885,0-2.065a4.765,4.765,0,0,1,2.744,0c.577.359,2.372,1.739,1.923,2.514Z"/><path class="cls-9" d="M98.16,73.625s-1.586-.066-1.586,2.3a4.1,4.1,0,0,0,1.6,2.774c.583.18,1.717-.53,2.076-.889S99.865,74.343,98.16,73.625Z"/><path class="cls-5" d="M98.458,72.815s-1.5-1.348-1.417-1.762.236-1.478.236-1.478-.818.8-1.3,1.23a4.264,4.264,0,0,1-1.234.695s1.116-.092,1.234.44a25.871,25.871,0,0,1,.163,2.583s.618-1.686,1.53-1.472a5.411,5.411,0,0,1,1.671.753Z"/><polygon class="cls-5" points="91.45 65.991 89.763 65.225 88.855 66.226 90.639 66.855 91.45 65.991"/><polygon class="cls-5" points="100.342 78.714 102.119 79.181 100.167 79.897 99.34 79.306 100.342 78.714"/><path class="cls-10" d="M66.17,51.876s-8.76,2.138-5.3,5.361C61.858,58.155,66.17,51.876,66.17,51.876Z"/><path class="cls-10" d="M60.61,61.886s-6.51-.311-4.407,3.691C57.03,67.151,60.61,61.886,60.61,61.886Z"/><path class="cls-10" d="M54.4,57.339s-9.008-.386-6.58,3.673C48.51,62.168,54.4,57.339,54.4,57.339Z"/><path class="cls-11" d="M91.3,73.905a1.6,1.6,0,0,1,1.426,1.562"/><path class="cls-11" d="M88.658,74.392c.153,1.257.035,1.889,1.022,2.684.918.74,1.109.6,1.2.648.11.053,1.1.27,1.223.286"/><g class="cls-12"><path class="cls-13" d="M37.667,99.973s-.746,1.786.337,2.191a11.419,11.419,0,0,0,5.272.3c1.372-.4,1.942-.645,1.942-1.454s.128-1.075-1.244-1.075S37.667,99.973,37.667,99.973Z"/><path class="cls-14" d="M45.731,100.039s-1.155.293,0,1.183a6.307,6.307,0,0,0,3.828,1.436c1.661.113,4.406-.657,4.694-1.309s1.878-1.512-.361-1.562S45.731,100.039,45.731,100.039Z"/><path class="cls-13" d="M55.072,99.993a1.1,1.1,0,0,0,0,1.442,4.661,4.661,0,0,0,3.25,1.042c1.444,0,3.9-1.214,3.972-1.871s-.578-.568-1.806-.613S55.072,99.993,55.072,99.993Z"/><path class="cls-14" d="M62.213,100.081a2.463,2.463,0,0,0,0,1.577c.318.592,1.114,1.556,3.82,1.222a6.218,6.218,0,0,0,2.718-.829,2.059,2.059,0,0,0,.866-1.132c.236-.74,1.111-.839-1.038-.863A54.912,54.912,0,0,0,62.213,100.081Z"/><path class="cls-13" d="M72.4,102.142c2.745.194,3.684-.362,3.9-.868s-1.083-1.669-1.95-1.669H69.708s-1.783,1.214-.341,1.821A10.812,10.812,0,0,0,72.4,102.142Z"/><path class="cls-14" d="M75.847,100.113s-1.155.292,0,1.183a6.32,6.32,0,0,0,3.828,1.436c1.661.112,4.405-.658,4.694-1.31s1.878-1.512-.361-1.562S75.847,100.113,75.847,100.113Z"/><path class="cls-13" d="M84.963,99.76s-.747,1.786.337,2.191a11.4,11.4,0,0,0,5.272.3c1.372-.4,1.942-.645,1.942-1.454s.128-1.075-1.244-1.075S84.963,99.76,84.963,99.76Z"/><path class="cls-14" d="M93.027,99.9s-1.155.292,0,1.183a6.313,6.313,0,0,0,3.828,1.436c1.661.112,4.405-.658,4.694-1.31s1.878-1.512-.361-1.562S93.027,99.9,93.027,99.9Z"/><path class="cls-13" d="M102.368,99.853a1.1,1.1,0,0,0,0,1.442,4.66,4.66,0,0,0,3.249,1.043c1.445,0,3.9-1.214,3.973-1.872s-.578-.568-1.806-.613S102.368,99.853,102.368,99.853Z"/><path class="cls-14" d="M109.508,99.705a2.473,2.473,0,0,0,0,1.578c.319.592,1.115,1.556,3.82,1.222a6.242,6.242,0,0,0,2.719-.829,2.06,2.06,0,0,0,.865-1.132c.236-.74,1.112-.839-1.037-.864A55.384,55.384,0,0,0,109.508,99.705Z"/><path class="cls-13" d="M120.013,102.335c2.745.193,3.684-.363,3.9-.869s-1.083-1.669-1.95-1.669h-4.639s-1.783,1.214-.341,1.821A10.826,10.826,0,0,0,120.013,102.335Z"/></g><path class="cls-13" d="M37.347,100.016s-.747-2.267.337-2.78a9.09,9.09,0,0,1,5.272-.385c1.372.513,1.942.818,1.942,1.845s.128,1.364-1.244,1.364S37.347,100.016,37.347,100.016Z"/><path class="cls-14" d="M45.411,99.932s-1.155-.371,0-1.5a5.61,5.61,0,0,1,3.828-1.823c1.661-.142,4.405.835,4.694,1.662s1.878,1.919-.361,1.983S45.411,99.932,45.411,99.932Z"/><path class="cls-13" d="M54.752,99.991a1.678,1.678,0,0,1,0-1.83A4.079,4.079,0,0,1,58,96.838c1.444,0,3.9,1.541,3.972,2.375s-.578.721-1.806.778S54.752,99.991,54.752,99.991Z"/><path class="cls-14" d="M61.893,99.879a3.927,3.927,0,0,1,0-2c.318-.751,1.114-1.974,3.819-1.55a5.383,5.383,0,0,1,2.719,1.051,2.652,2.652,0,0,1,.865,1.438c.236.938,1.112,1.064-1.037,1.095S62.96,100.149,61.893,99.879Z"/><path class="cls-13" d="M72.4,96.543c2.745-.246,3.684.46,3.9,1.1s-1.083,2.118-1.95,2.118H69.708s-1.783-1.54-.341-2.311A8.913,8.913,0,0,1,72.4,96.543Z"/><path class="cls-14" d="M75.527,99.839s-1.156-.371,0-1.5a5.606,5.606,0,0,1,3.828-1.823c1.661-.142,4.405.835,4.694,1.662s1.878,1.919-.361,1.983S75.527,99.839,75.527,99.839Z"/><path class="cls-13" d="M84.642,99.894s-.746-2.267.337-2.78a9.091,9.091,0,0,1,5.272-.385c1.373.513,1.942.818,1.942,1.845s.129,1.364-1.244,1.364S84.642,99.894,84.642,99.894Z"/><path class="cls-14" d="M92.707,99.81s-1.156-.371,0-1.5a5.606,5.606,0,0,1,3.827-1.823c1.662-.142,4.406.835,4.695,1.662s1.878,1.919-.361,1.983S92.707,99.81,92.707,99.81Z"/><path class="cls-13" d="M102.047,99.869a1.678,1.678,0,0,1,0-1.83,4.081,4.081,0,0,1,3.25-1.323c1.445,0,3.9,1.541,3.972,2.375s-.577.721-1.805.778S102.047,99.869,102.047,99.869Z"/><path class="cls-14" d="M109.188,99.757a3.938,3.938,0,0,1,0-2c.319-.751,1.114-1.974,3.82-1.55a5.374,5.374,0,0,1,2.718,1.051,2.657,2.657,0,0,1,.866,1.438c.236.938,1.111,1.064-1.037,1.095S110.256,100.027,109.188,99.757Z"/><path class="cls-13" d="M119.693,96.421c2.744-.246,3.683.46,3.9,1.1s-1.083,2.118-1.95,2.118H117s-1.784-1.54-.342-2.311A8.915,8.915,0,0,1,119.693,96.421Z"/></svg>