<svg id="word" xmlns="http://www.w3.org/2000/svg" viewBox="0 0 160 160"><defs><style>.cls-1{fill:#90d4d6;}.cls-1,.cls-2,.cls-3,.cls-4,.cls-5,.cls-6,.cls-7{stroke:#9d4b9c;stroke-miterlimit:10;}.cls-2{fill:#3a469c;}.cls-3{fill:#7ea0d3;}.cls-4{fill:#fff7a5;}.cls-5,.cls-7{fill:none;}.cls-6{fill:#80bbbe;}.cls-7{stroke-linecap:round;}</style></defs><path class="cls-1" d="M122.358,80.843c-1.246-7.518-2.724-15.007-3.789-16.546C116.427,61.2,112.857,42.4,112.857,42.4a209.6,209.6,0,0,1-21.179,3.808,122.31,122.31,0,0,1-21.179,0C66.215,45.973,50.271,42.4,50.271,42.4l-1.19,6.188s-3.094,15.944-7.853,26.652-4.759,30.7-4.759,30.7,13.326,3.569,16.9,5.005,20.7,0,20.7,0A57.651,57.651,0,0,0,75.5,103.8c.714-4.76,4.283-12.613,4.283-12.613l6.426,19.76s6.876-.129,13.107-.11c2.491-2.548,10.587-10.891,12.594-13.7C113.807,94.474,119.961,84.673,122.358,80.843Z"/><path class="cls-2" d="M119.156,92.06a27.372,27.372,0,0,0,3.963-6.441c-.239-1.556-.5-3.165-.761-4.776-2.4,3.83-8.551,13.631-10.452,16.294-2.007,2.809-10.1,11.152-12.594,13.7,2.365.008,4.638.036,6.406.1.3.011.621.007.953,0,2.038-2.879,3.508-6.325,5.584-9.222C114.59,98.456,116.549,95.106,119.156,92.06Z"/><path class="cls-3" d="M124.756,97.613c-.055-.716-.3-2.726-.675-5.419a63.778,63.778,0,0,0-7.481,11.731c-.971,1.971-1.853,4-2.858,5.957,6.371-1.405,13.156-3.7,13.156-3.7A46.785,46.785,0,0,1,124.756,97.613Z"/><path class="cls-4" d="M124.081,92.194c-.265-1.915-.593-4.174-.962-6.575a27.372,27.372,0,0,1-3.963,6.441c-2.607,3.046-4.566,6.4-6.9,9.654-2.076,2.9-3.546,6.343-5.584,9.222a41.4,41.4,0,0,0,7.071-1.054c1-1.954,1.887-3.986,2.858-5.957A63.778,63.778,0,0,1,124.081,92.194Z"/><path class="cls-5" d="M49.081,48.591a14.9,14.9,0,0,0,5.528,3.967A48.021,48.021,0,0,0,66.517,54.4c3.383.095,6.8-.168,10.131.449,3.98.737,5.95,1.8,9.953,1.194,1.887-.283,5.551-.2,7.305-.949a130.751,130.751,0,0,1,19.836-6.507"/><path class="cls-5" d="M79.364,90.781a95.13,95.13,0,0,1-.1-30.3"/><ellipse class="cls-6" cx="84.856" cy="50.455" rx="1.111" ry="1.388"/><ellipse class="cls-6" cx="81.844" cy="49.899" rx="1.028" ry="1.309"/><path class="cls-7" d="M82.872,49.964a12.862,12.862,0,0,0-3.962.545,5.08,5.08,0,0,0-3.3,2.39,7.277,7.277,0,0,0-.41,2.944c-.068,2.9-.858,6.025-3.146,7.811A19.028,19.028,0,0,0,70.4,64.9a7.591,7.591,0,0,0-1.328,2l-1.869,3.591"/><path class="cls-7" d="M84.228,50.168c-.473,1.3-2.109,1.774-2.9,2.916a3.539,3.539,0,0,0-.376,2.868,9.777,9.777,0,0,0,1.292,2.677,5.933,5.933,0,0,1,.664,1.282,5.074,5.074,0,0,1,.2,1.176,23.021,23.021,0,0,1-1.384,9.824"/></svg>