<svg id="word" xmlns="http://www.w3.org/2000/svg" xmlns:xlink="http://www.w3.org/1999/xlink" viewBox="0 0 160 160"><defs><style>.cls-1{fill:#fbe3d4;}.cls-1,.cls-3,.cls-4,.cls-5{stroke:#9c4c9c;stroke-width:0.59px;}.cls-2{fill:#81d1f4;}.cls-3{fill:#d7af80;}.cls-4{fill:none;}.cls-5{fill:url(#linear-gradient);}</style><linearGradient id="linear-gradient" x1="-113.738" y1="-228.294" x2="-103.474" y2="-228.294" gradientTransform="translate(59.593 333.603) rotate(35.833)" gradientUnits="userSpaceOnUse"><stop offset="0" stop-color="#882a21"/><stop offset="1" stop-color="#d24d57" stop-opacity="0"/></linearGradient></defs><path class="cls-1" d="M89.856,80.211l-3.549,1.825s-1.44-.093-2.21-2.3-3.839-3.457-5.853-5.663-4.7-4.129-6.241-6.142S69.219,62.072,65,64.089s-10.172,8.637-10.172,8.637.288,1.729-3.169,1.632-6.815,3.167-7.967,5.471S39.656,85.108,42.44,85.2s7.582-1.15,8.736-1.92a8.372,8.372,0,0,1,2.688-1.056s-1.249,1.826-.386,1.921a2,2,0,0,0,2.21-1.058,49.811,49.811,0,0,0,.767-5.76c.1-1.148-.289-1.917,1.44-2.491a33.653,33.653,0,0,0,5.374-3.073c.96-.577,4.7-2.784,4.7-1.918s1.247,5.469,2.879,7a15.356,15.356,0,0,1,3.166,4.128c.191.577-2.78.863-7.293,1.728s-12.283,5.472-12.283,5.472,3.835,4.8,12.764,4.8,16.7-.577,18.717,0,8.639-1.058,8.639-1.058L90.242,80.118Z"/><path class="cls-2" d="M41.575,79.06s3.167-3.55,3.649-2.207-.96,3.454-1.729,4.894.481,3.457,1.152,1.633,1.92-6.43,2.3-4.031-1.825,3.072.385,3.072,4.32-2.3,4.226-.674-2.4,2.88.286,2.114,7.3-3.361,9.888-2.4,1.725,1.441.095,2.3-7.872,2.21-3.744,2.591,9.12-1.343,8.35.194-7.966,2.4-2.879,3.745S72.1,91.542,74.4,89.813s4.609-6.241,4.7-3.554-2.4,4.8-2.4,4.8,7.2-3.457,8.451-2.3-2.114,3.073-2.114,3.073,6.815-2.115,5.376-.482-.382,2.11,1.055.959,3.553-7.681,4.608-5.279-.1,3.647-.1,3.647,4.321-2.784,3.84-.671-1.725,2.3-1.725,2.3,6.333-.67,4.508.192-6.623,2.207-2.687,2.3,7.008-1.537,12.383-.289,12.479.67,5.47,2.017-17.086,1.344-23.421,1.344-20.06-.1-26.49-.385c0,0,3.166-1.726-8.639-1.922S38.5,95.188,34.09,95.477s-14.494.19-15.934,0,.286-1.729-1.346-3.457-8.926-.1-3.744-3.166,11.328-4.035,13.823-3.842,5.375.192,2.591-.767-15.165-3.938-8.158-4.9,14.3,5.567,15.069,3.838-3.164-9.117-.19-7.869,2.785,2.013,3.552,4.031S41.575,79.06,41.575,79.06Z"/><path class="cls-2" d="M41.959,105.649s1.152-.766-5.278-1.343-21.212-1.921-15.167-3.169,20.733-2.5,29.948-2.5,14.78-.671,13.822,1.055-9.887,2.784-4.031,3.742,8.735.485,11.517-.958,1.154-2.592,9.024-1.726,8.159,3.166,4.8,3.263-13.44.1-7.489,1.058,8.641,1.147,16.7.766,18.142-.288,21.407.288,5.279,2.592-2.209,2.592H89.09c-6.24,0-20.255-.482-23.806-.482s-4.894-.384-16.029.96-33.02-1.056-22.174-2.014S43.207,106.608,41.959,105.649Z"/><path class="cls-2" d="M92.255,95.861s6.146-.577,9.314-1.248,6.238-1.442,7.293-2.593,3.55-4.032,2.976-1.63.767.767,1.344.478,2.3-.866,1.536.481-2.5,3.743.959,1.822,9.694-5.66,12.189-4.127,1.826,2.787-.67,3.264-7.585,5.087-3.553,4.031,8.449-3.361,10.847-1.824-.286,2.494-2.208,3.168,1.152.482,6.721,1.344A46.752,46.752,0,0,1,149.37,102s-2.306.574-13.726-.481-19.2-2.11-29.277-2.11-21.418-1.318-21.418-1.318Z"/><path class="cls-2" d="M130.362,87.7s5.675-3.557,8.543-4.128c3.362-.67,6.333,2.495.768,2.88A66,66,0,0,0,130.362,87.7Z"/><path class="cls-2" d="M138.139,90.39s3.742-1.346,5.759,0,.094,2.5-2.687,1.918-6.721-.959-6.721-.959Z"/><path class="cls-2" d="M35.913,69.657s.1-6.623-2.686-7.2S29,65.047,31.5,66.2A14.571,14.571,0,0,1,35.913,69.657Z"/><path class="cls-2" d="M39.721,67.612s7.135-8.708,4.448-11.4-4.32,3.842-3.843,4.512-.605,6.884-.605,6.884"/><path class="cls-1" d="M91.885,62.79S87.6,73.2,88.128,78.1s7.036,14.365,9.222,14.975c6.123,1.708,8.589-1.447,10.977-3.461s7.965-7.417,9.743-12.49,3.093-10.174.593-14.213-14.193-9.149-17.818-8.067S91.885,62.79,91.885,62.79Z"/><path class="cls-3" d="M97.2,46.749s7.977-2.419,12.062-1.659,9,2.864,11.048,7.427,3.963,5.895,5.349,7.777a9.337,9.337,0,0,1,1.185,7.316c-.59,2.479-.259,2.911-1.439,3.957s-.813-1.808-1.419-2.234.139-.14-1.258,3.167a15.523,15.523,0,0,1-3.326,5.071,6.131,6.131,0,0,0,1.136-6.4,13.483,13.483,0,0,0-4.154-5.645s1.313,4.547,1.681,5.6-3.386-1.365-4.262-3.881.148,3.042.728,3.658-5.884.6-10.136-6.379-4.327-8.769-4.327-8.769.48,5.563-1.2,7.515-7.907,8.657-7.907,8.657l1.828-6.539a5.923,5.923,0,0,1-1.455,3.3,10.3,10.3,0,0,0-.969,2.274c.14,6.407-.882-.15-1.029.179-1.257,2.763-.765,5.614-.735,7.8.03,2.444-3.918-.542-4.8-5.419s-4.629-12.756-1-17.206,5.745-6.731,8.294-6.982a8.315,8.315,0,0,0,3.788-1.141l-2.832-.558A7.887,7.887,0,0,1,94,46.953a5.231,5.231,0,0,1,2.131.895l-1.907-2.335,2.255,2.032,0-4.454Z"/><path class="cls-4" d="M103.665,68.416s1.75-1.247,2.982-.312a6.585,6.585,0,0,1,1.739,1.85"/><path class="cls-1" d="M89.873,70.856s-1.831-2.907-3.522-1.5-2.08,2.9-1.5,3.524a3.365,3.365,0,0,1,.767,2.46c.014,1.087.466,2.385,1.337,2.533s2.077-1.086,2.077-1.086"/><path class="cls-4" d="M106.53,82.359s1.168-1.259,2.843.346c.743.713.339.973.339.973"/><path class="cls-2" d="M36.3,56.283S30.19,39.738,25.514,41.9s-2.158,5.755,2.518,7.912A27.433,27.433,0,0,1,36.3,56.283Z"/><path class="cls-5" d="M101.325,81.533c1.719,2.895,6.78,4.7,9.953,3.748-2.179.426-4.726,3.375-6.984,2.853-2.384-.55-1.94-3.869-2.421-5.761"/><path class="cls-4" d="M102.9,74.89c.392.018.674-.351.991-.582a2.057,2.057,0,0,1,2.2.023,4.623,4.623,0,0,1,1.529,1.727"/><path class="cls-4" d="M113.2,78.273a5.118,5.118,0,0,1,1.43-.46,1.726,1.726,0,0,1,1.4.4,2.592,2.592,0,0,1,.529,1.885"/></svg>