<svg id="word" xmlns="http://www.w3.org/2000/svg" viewBox="0 0 160 160"><defs><style>.cls-1{fill:#fce3da;}.cls-1,.cls-2,.cls-3,.cls-4{stroke:#9d4b9c;stroke-width:0.728px;}.cls-2{fill:none;}.cls-3{fill:#c3996b;}.cls-4{fill:#fff;}.cls-5{fill:#9d4b9c;}.cls-6{fill:#82b7d7;}</style></defs><path class="cls-1" d="M142.243,71.16a7.012,7.012,0,0,0,1.919.318c.958,0-1.281-3.356-2.239-4.637s-4.637-2.238-6.236-2.238a9.551,9.551,0,0,1-3.516-.96,67.3,67.3,0,0,0-7.994-10.391c-4.161-4.157-13.433-.96-15.19.319s-9.274,4.318-13.431,4.958S90.6,64.765,90.6,64.765l.138.277a18.144,18.144,0,0,0-2.054,1.481c-.641.64-.481,1.757-1.761,2.878s-6.395-1.279-6.395-1.279L80.206,78.2l-4.635,4L84.2,87.788s16.312-1.6,19.828-2.239S118.741,79.8,118.741,79.8l-13.128-8.284a17.237,17.237,0,0,0,.176-4.188c0-1.441,6.875-6.236,8.155-6.236s2.4.479,4.635.8,7.034,4.317,8.472,4.956.322.961.322.961a23.137,23.137,0,0,0-.8,4.317,6.122,6.122,0,0,1-.48,3.2c-.481.8.32,3.039,1.76,3.039s2.078-3.039,1.758-4.638.96-1.278,1.919-.958,5.116,1.118,5.916,2.078,4.955,2.877,6.235,2.558-2.558-3.678-2.558-3.678,1.918,1.12,2.879.318S142.243,71.16,142.243,71.16Z"/><path class="cls-2" d="M136.144,70.532c2.041.361,3.391,2.379,5.154,3.329"/><path class="cls-2" d="M137.056,69.031c2.238-.008,4.3,1.9,6.2,2.807"/><path class="cls-2" d="M137.905,66.617a24.1,24.1,0,0,1,5.742,3.067"/><path class="cls-1" d="M60.746,70.509s-2.313-.716-4.883-1.362a79.265,79.265,0,0,0-9.534-1.61,16.349,16.349,0,0,0-7.975,1.624A94.129,94.129,0,0,1,28.2,72.578s-6.139-.517-9.422-.905-4.853,2.2-6,3.23-6.14,4.524-2.854,4.524a9.6,9.6,0,0,0,6.422-2.069,5.768,5.768,0,0,1,5.283-.775c1.57.775,2.712,1.938,2,2.2s-4,2.069-4,3.618,2.951.529,4.238-.246,3.018-.933,4.017-1.451,1.438-2.689,2.011-3.463,8.425-1.413,10.771-2.446c7.909-3.484,12.1-.008,12.818-.008s11.684,4.254,11.684,4.254Z"/><path class="cls-1" d="M57.553,61.531s3.36,4.637,2.4,6.874-1.441,8.954,2.56,11.353,9.433,5.6,12.792,3.2,7.193-4.317,8.154-9.274,2.4-11.833,2.4-14.069S76.259,47.3,71.625,48.1a67.145,67.145,0,0,0-13.271,4C56.436,53.056,57.553,61.531,57.553,61.531Z"/><path class="cls-3" d="M63.97,59.805s4.138-.262,5.257-1.978,7.032-6.288,7.674-2.573-.8,4.289.641,4.431,4.5-1.176,4.179,1.113-.344,4.75,1.1,5.035,2.4-.43,2.4,1.571,1.12.715,1.6-1.287-.319-3.572,1.76-4.572,3.677-1.717,1.759-2.716,1.757-1,0-3.146,3.358-4-.322-4.858-2.4-4.577-4.954-4.719-3.039-4-5.6-4.289-1.6,1.572-4.637.143-4.317-2.286-5.118-.857a3.814,3.814,0,0,1-3.516,1.858c-1.279,0-2.238-1.285-4.316-.142s-3.839,1.857-5.118,3.144-.159,2.859-1.278,4.574-4.958-.716-2.879,3,2.558,3.86,2.237,5.147S53.4,63.117,54.358,64.4s5.566,1.586,5.566,1.586S56.6,60.4,57.713,59.257,59.652,60.664,63.97,59.805Z"/><path class="cls-4" d="M75.976,66.617s-2.159-4.3-3.654-3.263-2.192,4.89.653,5.482A2.344,2.344,0,0,0,75.976,66.617Z"/><path class="cls-4" d="M64.59,66.645s-2.055-3.422-3.838-.638c-.965,1.506,1.12,4.158,2.239,4.158S66.189,68.405,64.59,66.645Z"/><path class="cls-5" d="M62.8,67.269c0,1.046-.5,1.892-1.109,1.892s-1.11-.846-1.11-1.892.5-1.892,1.11-1.892S62.8,66.223,62.8,67.269Z"/><path class="cls-5" d="M73.5,65.7c0,1.046-.5,1.893-1.11,1.893s-1.11-.847-1.11-1.893.5-1.893,1.11-1.893S73.5,64.657,73.5,65.7Z"/><path class="cls-2" d="M66.189,72.816c.529-2.092,2.3-1.843,3.786-.261"/><path class="cls-1" d="M81.653,63.81s.979-2.675,2.481-1.631,1.958,1.763,1.3,2.676-1.045.848-.848,2.154-.31,2.936-.849,2.936c-2.021,0-1.827-2.088-1.827-2.284"/><path class="cls-2" d="M70.363,60.287a3.917,3.917,0,0,1,5.026.065"/><path class="cls-2" d="M59.074,63.093c.971-1.3,1.987-2.564,3.721-1.435"/><path class="cls-6" d="M59.012,79.518s-20.359-1.045-9.482,4.6c2.409,1.251,4.531,1.493,2.54,2.3s-23.738,0-20.32,3.322,21.608,2.555,18.957,3.623-9.782,1.934-.577,3.164,12.961.408,17.579.783,13.4-1,15.584-2.264,6.408-1.884,11.459-.834,17.654,3.838,14.38.685-4.548-3.257.858-2.657,11.955,2.9,14.819,1.2,13.228,1.073,10.355-1.084-8.856-5.531-5.215-4.917S143.3,89,142.192,86.827s-6.025-4.818-9.851-5.128-14.291-1.8-11.705-2.073,7.47-3.084,2.4-3.816-12.73.729-19.42,2.112S59.012,79.518,59.012,79.518Z"/><path class="cls-2" d="M65.066,75.24a5.11,5.11,0,0,1,2.059.361,6.869,6.869,0,0,0,7.639-3.408"/></svg>