<svg id="word" xmlns="http://www.w3.org/2000/svg" viewBox="0 0 160 160"><defs><style>.cls-1{fill:#9c4c9c;}.cls-2{fill:#c1c2c3;}.cls-2,.cls-3,.cls-4,.cls-5{stroke:#9c4c9c;stroke-miterlimit:10;stroke-width:0.85px;}.cls-3{fill:#fff;}.cls-4{fill:#ea898f;}.cls-5{fill:none;}</style></defs><path class="cls-1" d="M65.111,75.759a.73.73,0,0,0-.262-.2A1.782,1.782,0,0,0,64,75.438c-.736.041-1.731.069-2.719.06s-1.98-.055-2.721-.115-1.236-.131-1.236-.131.495-.059,1.238-.107,1.733-.069,2.723-.061,1.976.054,2.724.118a1.744,1.744,0,0,1,.88.287.768.768,0,0,1,.177.192Z"/><path class="cls-1" d="M64.371,76.585a.649.649,0,0,1-.259.191,3.191,3.191,0,0,1-.823.184c-.679.1-1.591.191-2.5.259a16.1,16.1,0,0,0-2.45.326,7.509,7.509,0,0,0-.787.226l-.3.108a4.169,4.169,0,0,1,1.012-.56,8.6,8.6,0,0,1,2.489-.512c.916-.066,1.826-.088,2.514-.083a3.979,3.979,0,0,0,.814-.024A.753.753,0,0,0,64.371,76.585Z"/><path class="cls-1" d="M63.492,78.124s0,.05.056.022.047-.1-.048-.105a2.289,2.289,0,0,0-.357.041l-.472.078-1.178.217-.656.125-.686.145c-.224.048-.478.081-.674.138-.216.065-.425.126-.629.2-.405.148-.779.31-1.1.451l-.78.345-.3.127s.369-.3.968-.682a8.262,8.262,0,0,1,1.076-.579,6.006,6.006,0,0,1,.653-.247c.248-.076.462-.105.7-.159l.69-.131c.249-.043.461-.064.685-.094.44-.054.855-.087,1.211-.094.178-.006.342,0,.487,0a2.117,2.117,0,0,1,.384.034.15.15,0,0,1,.115.117.089.089,0,0,1-.079.088C63.48,78.181,63.489,78.114,63.492,78.124Z"/><path class="cls-2" d="M107.749,97.359s3.074-2.7,3.182-5.521a26.633,26.633,0,0,0-1.4-10.617c-1.1-3.206-5.517-11.018-4.958-14.19s2.847-5.712,4.352-6.064,1.567-.787.723.433c-1.374,1.985-3.44,3.389-3.691,6.683s3.62,7.906,5.242,12.605c2.063,5.977,2.214,10.322,1.167,13.16s-4.785,6.934-4.785,6.934Z"/><path class="cls-2" d="M80.353,94.448s-3.152,3.121-4.1,2.75-5.813-.506-4.938,1.144,6.017,1.786,7.48.97a9.252,9.252,0,0,1,3.25-.97Z"/><path class="cls-2" d="M86.914,103.946s.742,3.223,0,2.957-4.241,2.254-3.768,2.676,4.126.1,5.926.086a50.908,50.908,0,0,0,5.572-.646l1.729-3.736-2.58-2.561Z"/><path class="cls-2" d="M79.5,91.517A27.832,27.832,0,0,0,81.475,99.4c1.51,3.063,2.2,3.992,3.707,4.968,2.919,1.9,6.812.487,6.812.487l1.964,2.009,2.435,1.462s-3.755,1.4-4.192,1.989-1.479,2.428-.724,2.71,6.074-1.2,6.687-1.378,2.283.122,3.327-.937a8.53,8.53,0,0,0,1.475-1.918,33.523,33.523,0,0,0,4.452-5.208c1.321-2.209.347-6.824.486-8.947s-2.87-5.3-5.546-6.4-8.486-3.26-8.486-3.26Z"/><path class="cls-2" d="M86.491,72.679a48.32,48.32,0,0,0-8.388-1.43c-3.808-.2-12.146,1.717-12.721,2.928s-2.919,2.992-2,4.979a5.157,5.157,0,0,0,1.981,2.508s-.635,1.76-.008,2.422a3.711,3.711,0,0,0,1.892.828s1.8,4.812,3.637,6.137S77.456,94.163,79.237,94s11.005-2.827,12.854-6.012,3.1-10.016.967-11.807A29.757,29.757,0,0,0,86.491,72.679Z"/><path class="cls-3" d="M81.824,73.289s-4.748-.172-4.15,2.118,3.621,1.245,3.865,1.136S84.208,74.135,81.824,73.289Z"/><path class="cls-4" d="M66.093,77.5s-1.517-3.079-.94-3.948c.988-1.488,2.54-3.118,4.637-1.869s.647,2.911-.18,4.106S66.093,77.5,66.093,77.5Z"/><path class="cls-2" d="M83.893,97.123s-4.732,5.781-4.886,6.177-1.558,1.433.794,1.063,7.435-5.183,7.435-5.183"/><path class="cls-1" d="M70.194,77.9s.639.516,1.565,1.325c.227.2.488.429.732.68s.514.516.77.8c.522.57,1.045,1.208,1.543,1.863s.96,1.339,1.367,1.995.755,1.286,1.048,1.827c.575,1.091.886,1.852.886,1.852l-1.087-1.735c-.657-1.035-1.566-2.389-2.544-3.69-.486-.653-1-1.287-1.486-1.873l-.715-.837c-.229-.27-.452-.5-.674-.718C70.742,78.512,70.194,77.9,70.194,77.9Z"/><path class="cls-1" d="M73.148,75.991l.376.194c.234.131.579.307.97.55s.853.523,1.33.848.972.69,1.462,1.063.961.769,1.393,1.152.82.757,1.152,1.077c.656.649,1.055,1.12,1.055,1.12s-.491-.374-1.21-.946l-2.643-2.077-2.669-2.045C73.633,76.373,73.148,75.991,73.148,75.991Z"/><path class="cls-1" d="M72.712,77.131a7.226,7.226,0,0,1,1.426,1.061c.391.366.832.8,1.283,1.29s.916,1.026,1.366,1.575.876,1.117,1.258,1.662.717,1.068,1,1.517c.56.9.876,1.54.876,1.54l-1.068-1.409c-.637-.845-1.5-1.956-2.389-3.049-.439-.55-.893-1.089-1.316-1.594s-.818-.984-1.176-1.369-.662-.7-.894-.906S72.712,77.131,72.712,77.131Z"/><path class="cls-2" d="M84.229,75.52s5.819-5.828,11.269-4.939,9.115,8.009,8.88,10.051S100.548,88.1,96.8,89.17s-7.065-2.713-7.065-2.713"/><path class="cls-2" d="M94.729,95.817,93.05,97.43a4.75,4.75,0,0,0-.854.988,4.689,4.689,0,0,0-.479,1.821c-.2,1.706-.336,3.6.709,4.968"/><path class="cls-1" d="M90.825,82.356l.71.677.114-.1-.095-.355a3.468,3.468,0,0,0,2.083.572,6.517,6.517,0,0,0,2.639-.605,5.082,5.082,0,0,0,2.4-2.235,2.751,2.751,0,0,0,.2-1.712,2.8,2.8,0,0,0-1.361-2.289,2.751,2.751,0,0,0-1.879-.322,7.041,7.041,0,0,0-1.184.226c-.531.21-1.253.334-.933,1.282a.98.98,0,0,1,.118-1.644,4.981,4.981,0,0,1,3.239-.6,2.68,2.68,0,0,1,2.041,1.252,3.953,3.953,0,0,1,.754,3.011,4.883,4.883,0,0,1-1.239,2.223A5.815,5.815,0,0,1,94.987,83.6a4.94,4.94,0,0,1-2.616-.026,7.312,7.312,0,0,1-1.368-.7c-.139-.084-.2-.3-.29-.462Z"/><path class="cls-5" d="M66.154,77.5a4.276,4.276,0,0,0-.016,2.294,6.454,6.454,0,0,0,.623,1.142,3.075,3.075,0,0,0,1.017,1.127,2.957,2.957,0,0,0,1.275.271,7.5,7.5,0,0,0,2.869-.241,2.867,2.867,0,0,0,1.946-1.972"/><path class="cls-5" d="M65.163,81.321a2.11,2.11,0,0,0,1.856,0"/><path class="cls-1" d="M80.78,73.517s-2.87-.1-2.509,1.269,2.189.746,2.336.68S82.221,74.024,80.78,73.517Z"/></svg>