<svg id="word" xmlns="http://www.w3.org/2000/svg" viewBox="0 0 160 160"><defs><style>.cls-1{fill:#9c7198;}.cls-1,.cls-2,.cls-3,.cls-4,.cls-5{stroke:#9d4b9c;stroke-miterlimit:10;stroke-width:0.991px;}.cls-2{fill:#ed589d;}.cls-3{fill:none;}.cls-4{fill:#c4c4c6;}.cls-5{fill:#71bfea;}.cls-6{fill:#808fc7;}.cls-7{fill:#c5a0ca;}.cls-8{fill:#467a95;}.cls-9{fill:#ffdfa5;}</style></defs><path class="cls-1" d="M29.471,79.064l2.82,12.276s8.809,7.9,14.008,11.994,9.965,9.736,21.951,8.748,34.227-13.828,39.426-16.932,23.685-12.277,26.14-19.05,1.733-13.122-.722-17.421C132.07,56.886,51.973,69.331,33.157,73.42,30.642,73.966,29.471,79.064,29.471,79.064Z"/><path class="cls-2" d="M29.835,79.91s-.722-5.043,5.055-2.169,20.652,18.82,25.995,19.808,9.243,3.386,19.93-2.54S103.2,79.205,112.153,75.4s22.24-11.7,20.941-16.716-1.878-7.413-9.243-11.505-16.464-10.442-22.818-9.313S64.5,53.881,57.708,55.96,32.532,70.041,30.846,71.585C28.536,73.7,29.835,79.91,29.835,79.91Z"/><path class="cls-3" d="M35.757,85.131s16.03,14.252,20.8,16.933,8.52,2.963,14.875,2.117S90.779,93.315,100.455,90.07s22.385-7.479,26.284-13.97a79.687,79.687,0,0,0,5.777-11.429"/><path class="cls-4" d="M34.457,80.193s-.289,13.969-3.611,15.38-7.509,2.54-5.776-2.116S32.579,79.064,34.457,80.193Z"/><path class="cls-5" d="M35.757,69.751S55.975,88.518,61.174,90.493s15.019.141,17.908-1.27,42.274-23.388,44.48-25.822,7.365-7.761,3.322-11.429S102.333,40.4,102.333,40.4Z"/><polygon class="cls-6" points="44.422 74.831 53.52 84.003 64.062 78.641 54.242 70.413 44.422 74.831"/><polygon class="cls-7" points="67.817 77.741 82.071 71.162 94.968 78.641 77.349 88.454 67.817 77.741"/><polygon class="cls-6" points="69.839 62.131 81.392 69.751 97.134 60.72 86.736 54.114 69.839 62.131"/><polygon class="cls-8" points="89.769 52.536 99.733 60.494 109.842 54.794 98.289 48.726 89.769 52.536"/><polygon class="cls-9" points="100.455 61.932 111.864 69.751 124.284 60.72 114.464 54.61 100.455 61.932"/></svg>