<svg id="word" xmlns="http://www.w3.org/2000/svg" viewBox="0 0 160 160"><defs><style>.cls-1{fill:#8b8bc3;}.cls-1,.cls-10,.cls-12,.cls-13,.cls-14,.cls-15,.cls-16,.cls-2,.cls-3,.cls-4,.cls-5,.cls-6,.cls-7,.cls-8,.cls-9{stroke:#9d4b9c;stroke-width:0.588px;}.cls-2{fill:#d6de23;}.cls-3{fill:#f7ee6d;}.cls-4{fill:#81c6ed;}.cls-10,.cls-5{fill:#fff;}.cls-6{fill:#5a91cc;}.cls-7{fill:#00adee;}.cls-8{fill:#fde4d5;}.cls-14,.cls-9{fill:none;}.cls-10,.cls-9{stroke-linecap:round;}.cls-11{fill:#9d4b9c;}.cls-12{fill:#d67fb3;}.cls-13{fill:#fde2d4;}.cls-15{fill:#d9b57a;}.cls-16{fill:#f2d480;}</style></defs><path class="cls-1" d="M48.862,22.62c4.063-1.814,12.112-2.537,16.242-.881a33.337,33.337,0,0,1,4.318,2.241,16.163,16.163,0,0,1,5.194,4.075A14.906,14.906,0,0,1,76.823,34.2a27.32,27.32,0,0,1,.506,9.326c-.774,4.821-3.709,9.037-4.885,13.776l-1.887-9.943a66.365,66.365,0,0,0-2.38-9.8,22.193,22.193,0,0,0-5.168-8.57c-2.9-2.839-6.722-4.507-10.451-6.115"/><path class="cls-2" d="M60.264,91.1s-1.068,6.154,0,8.027,1.737,4.413,2.006,8.691a113.316,113.316,0,0,1-.535,12.7s.135,3.88-2.539,3.477-3.345-2.406-3.075-5.614-1.94-10.451-2.34-13.391-3.182-4.882-3.045-8.627S48.2,88.632,48.2,88.632"/><path class="cls-3" d="M61.878,119.586a2.444,2.444,0,0,1,1.82,2.887c-.052.486-.754,3.53-.754,3.53s-1.867,3.862-3.144,3.339-4.294-3.38-4.294-3.38a4.31,4.31,0,0,0,.387-2.645,5.241,5.241,0,0,1,.252-2.795s.844,2.314,2.969,1.733S61.961,120.758,61.878,119.586Z"/><path class="cls-4" d="M64.052,125.732s2.631,3.772.371,5.646-4.934,1.607-6.332,2.587-6.575,1.245-7.769.759-4.874-2.421-4.72-4.012.972-1.882,2.248-2.086,4.52-.115,5.23-.862A6.925,6.925,0,0,1,55,126.477s1.277-3.1,2.518-1.764a9.712,9.712,0,0,1,1.823,3.543l1.654-.151a6.6,6.6,0,0,1,.741-2.288,4.694,4.694,0,0,1,2.076-1.429Z"/><path class="cls-5" d="M55.594,129.625a2.993,2.993,0,0,0-1.255-1.552c-.9-.472-2.649-.537-2.235.153a4.718,4.718,0,0,0,1.864,1.249S56.363,131.394,55.594,129.625Z"/><path class="cls-5" d="M56.922,128.682a7.3,7.3,0,0,0-.524-2.118.945.945,0,0,0-1.264-.551c-.619.127-1.2.988-1.2.988s0-.238,1.021.18,1.3,1.915,1.4,2.093S56.934,130.034,56.922,128.682Z"/><path class="cls-5" d="M65.288,129.623a8.865,8.865,0,0,1-2.106,1.9,12.742,12.742,0,0,1-3.909,1.368c-1.205.028-2.52,1.218-3.905,1.271s-4.08.4-5.862-.331a10.736,10.736,0,0,1-3.832-3.267s-.781.129.109,1.6a7.1,7.1,0,0,0,4.7,3.243c1.923.236,5.218.2,6.278-.365a11.589,11.589,0,0,1,2.857-1.453,16.151,16.151,0,0,0,4.813-1.727C65.985,130.672,65.288,129.623,65.288,129.623Z"/><path class="cls-6" d="M63.807,124.388a2.6,2.6,0,0,0-1.79.922c-.694.888-1.39,2.957-1.027,2.795s.689-.93,1.437-1.451a6.606,6.606,0,0,1,1.655-.807l-.275-1.459"/><path class="cls-6" d="M49.506,133.83s-1.5-1.273-1.561-2.093.4-2.841-.931-2.9c-1.507-.071-1.34,1.729-1.34,1.729s1.038,1.174,1.8,1.913A7.235,7.235,0,0,0,49.506,133.83Z"/><path class="cls-2" d="M67.67,92.724s-1.068,6.153,0,8.026,1.737,4.413,2.007,8.691a113.485,113.485,0,0,1-.536,12.7s.135,3.88-2.539,3.477-3.345-2.406-3.075-5.614-1.939-10.45-2.34-13.39-3.182-4.883-3.045-8.628-2.537-7.739-2.537-7.739"/><path class="cls-3" d="M69.284,121.206a2.444,2.444,0,0,1,1.82,2.887c-.052.486-.754,3.531-.754,3.531s-1.867,3.861-3.144,3.338-4.294-3.38-4.294-3.38a4.3,4.3,0,0,0,.387-2.645,5.251,5.251,0,0,1,.252-2.8s.844,2.314,2.97,1.733S69.367,122.378,69.284,121.206Z"/><path class="cls-4" d="M71.459,127.352s2.63,3.772.37,5.646S66.9,134.6,65.5,135.585s-6.576,1.245-7.769.759-4.875-2.42-4.721-4.012.972-1.881,2.248-2.086,4.52-.115,5.23-.862A6.95,6.95,0,0,1,62.4,128.1s1.277-3.1,2.518-1.764a9.712,9.712,0,0,1,1.823,3.543l1.654-.151a6.6,6.6,0,0,1,.741-2.288,4.694,4.694,0,0,1,2.076-1.429Z"/><path class="cls-5" d="M63,131.245a2.993,2.993,0,0,0-1.255-1.552c-.9-.472-2.649-.537-2.234.153a4.709,4.709,0,0,0,1.863,1.249S63.769,133.014,63,131.245Z"/><path class="cls-5" d="M64.328,130.3a7.327,7.327,0,0,0-.523-2.118.945.945,0,0,0-1.265-.55c-.619.126-1.2.987-1.2.987s0-.238,1.02.18,1.3,1.915,1.4,2.093S64.34,131.654,64.328,130.3Z"/><path class="cls-5" d="M72.694,131.243a8.865,8.865,0,0,1-2.106,1.9,12.742,12.742,0,0,1-3.909,1.368c-1.2.028-2.52,1.218-3.905,1.271s-4.08.4-5.862-.331a10.736,10.736,0,0,1-3.832-3.267s-.781.129.109,1.6a7.1,7.1,0,0,0,4.7,3.243c1.923.236,5.218.2,6.278-.365a11.589,11.589,0,0,1,2.857-1.453,16.151,16.151,0,0,0,4.813-1.727C73.391,132.292,72.694,131.243,72.694,131.243Z"/><path class="cls-6" d="M71.213,126.008a2.6,2.6,0,0,0-1.79.922c-.694.888-1.39,2.957-1.027,2.795s.69-.93,1.437-1.451a6.606,6.606,0,0,1,1.655-.807l-.275-1.459"/><path class="cls-6" d="M56.912,135.45s-1.5-1.273-1.56-2.093.4-2.841-.932-2.9c-1.507-.071-1.34,1.729-1.34,1.729s1.039,1.174,1.8,1.913A7.25,7.25,0,0,0,56.912,135.45Z"/><path class="cls-7" d="M45.173,84.007c-.718-6.485-12.876-7.089-5.308-15.646,2.064-2.341,2.422-2.686,4.38-5.215,2-2.585,5.215-5.945,9.287-4.948l-1.857,6.351c-3.36,3.874-12.111,7.19-4.91,11.835,0,0,1.33-1.871,1.725.133s-.533,4.813-.93,6.153S45.305,85.212,45.173,84.007Z"/><path class="cls-8" d="M59.075,52.325s-.242,3.2-.365,5.241S56.26,64.6,53.8,63.577s-1.965-5.115-1.965-5.115l.127-7.287"/><path class="cls-7" d="M59.69,56.032s8.142.553,8.96,6.859c.666,5.134.981,6.57,1.594,12.965.781,8.165-.658,7.354-.658,7.354s2.6,8.632.392,9.4S58.151,94.1,56.4,93.624,44.73,90.96,44.73,90.96s4.06-11.868,4.06-14.844,1.844-5.47,1.475-7.2-.354-10.059-.354-10.059l1.932-1.554s-.208,4.648,3.125,3.905c3.721-.825,3.681-3.636,3.681-3.636l.188-1.766Z"/><path class="cls-8" d="M51.308,23.862s-4.464,5.529-5.083,7.319-1.213,6.492-1.685,7.682-1.843,6.175-.186,9.878c.87,1.939,4.3,5.085,7.134,6.474a9.531,9.531,0,0,0,8.273-.628c3.822-2.555,8.235-10.62,8.607-13.774s-.3-12.1-3.857-14.469S53.657,22.524,51.308,23.862Z"/><path class="cls-9" d="M50.61,44.81c.647-1.188,1.412-1.005,2.11.3"/><path class="cls-10" d="M59.551,43.6s1.405-2.961-.821-3.514c-1.362-.337-3.632,1.5-2.331,3.356S59.551,43.6,59.551,43.6Z"/><path class="cls-10" d="M48.66,40.988s1.391-2.946-.813-3.489c-1.352-.339-3.6,1.488-2.316,3.324S48.66,40.988,48.66,40.988Z"/><path class="cls-9" d="M61.347,38.537A2.579,2.579,0,0,0,58.4,37.181"/><path class="cls-9" d="M50.059,35.835c-.206-.961-1.225-1.235-2.281-.917"/><path class="cls-11" d="M57.743,42.665c-.115.7.192,1.34.682,1.435s.971-.406,1.078-1.108-.194-1.342-.68-1.431S57.85,41.963,57.743,42.665Z"/><path class="cls-11" d="M46.949,40.014a1.143,1.143,0,0,0,.705,1.4c.5.085,1.006-.4,1.117-1.087a1.132,1.132,0,0,0-.7-1.4C47.565,38.845,47.064,39.332,46.949,40.014Z"/><path class="cls-12" d="M71.588,53.757s-3.5,2.275-2.987,3.575,1.692.352,1.339,2.044,2.333,2.083,2.333,2.083,1.674.778,2.27.092,2.169-.908,2.226-2.327.908-1.385.1-2.413-.482-2.151-1.742-2.628S71.946,51.923,71.588,53.757Z"/><path class="cls-1" d="M44.5,37.226a11.08,11.08,0,0,1-1.654-6.275c.149-3.689,2.893-7.984,2.893-7.984A35.224,35.224,0,0,1,53.47,22.6c4.79.224,9.8-.712,14.387,5.442S72.118,38.735,71.9,40.574a29.943,29.943,0,0,0,.508,5.914l-9.134,4.948S69.067,40.75,60.611,35.7c-7.866-4.694-8.5-3.579-12.433-2.41A5.649,5.649,0,0,0,44.5,37.226Z"/><path class="cls-13" d="M70.349,86.437l-.045.034a1.86,1.86,0,0,1-1.477.309,3.932,3.932,0,0,0-2.163.123c-1.38.544-2.377.2-2.679-.2s-1.848-1.77-2.341-.435,2.08,2.717,2.6,2.93,1.463.673,1.169,1.41-2.69,5.8-2.176,6.739,1.457,1.019,1.678.1,1.584-4.142,2.159-3.961-.221,5.239-.032,6.3c.244,1.361,1.551.163,1.551.163s.493-5.7,1.048-5.566-.4,5.637.234,5.9c1.042.419,1.432-.771,1.352-1.36s-.293-3.479.225-3.479,1.566,3.752,2.28,2.5c.461-.8-.592-2.989-.592-2.989l-.69-1.77a1.765,1.765,0,0,1-.069-1.091,3.452,3.452,0,0,0,.113-1.76,4.638,4.638,0,0,1-.227-1.682l1.343-.626-.642-1.07A1.8,1.8,0,0,0,70.349,86.437Z"/><path class="cls-7" d="M63.906,57.567s3.356-1.851,5.439,2.778,6.48,16.664,6.943,20.135-3.24,8.332-3.24,8.332l-5.092-3.7a75.864,75.864,0,0,0-.231-12.266C67.03,67.751,62.749,58.493,63.906,57.567Z"/><path class="cls-14" d="M49.356,47.21a3.231,3.231,0,0,0,4.719.591,3.873,3.873,0,0,0,.492-.508"/><rect class="cls-15" x="70.348" y="98.919" width="72.673" height="40.271"/><path class="cls-16" d="M70.348,98.919,84.7,82.718h49.529l8.795,16.2Z"/></svg>