<svg id="word" xmlns="http://www.w3.org/2000/svg" viewBox="0 0 160 160"><defs><style>.cls-1{fill:#006695;}</style></defs><path class="cls-1" d="M77.623,86.72a22.811,22.811,0,0,1-44.188,8.009L44.414,90.32a11.111,11.111,0,1,0,10.44-15.029,11.245,11.245,0,0,0-8.28,3.6l-9-7.111L43.064,39.2H74.023V50.812H52.694l-2.07,13.5a21.763,21.763,0,0,1,4.23-.36A22.738,22.738,0,0,1,77.623,86.72Z"/><path class="cls-1" d="M82.97,73.4c0-19.8,8.19-35.1,23.939-35.1s23.939,15.3,23.939,35.1c0,19.35-8.1,36.179-23.939,36.179S82.97,92.75,82.97,73.4Zm36.179,0c0-12.059-3.06-23.488-12.24-23.488S94.67,61.341,94.67,73.4c0,12.241,2.97,24.569,12.239,24.569S119.149,85.641,119.149,73.4Z"/></svg>