<svg id="word" xmlns="http://www.w3.org/2000/svg" viewBox="0 0 160 160"><defs><style>.cls-1{fill:#728044;}.cls-2{fill:#f2d312;}.cls-2,.cls-3{stroke:#eb9f23;stroke-width:0.449px;}.cls-3{fill:#fcef52;}.cls-4{fill:#606f3a;}</style></defs><polygon class="cls-1" points="69.043 55.415 100.95 138.896 102.556 138.532 73.458 51.219 69.043 55.415"/><path class="cls-2" d="M67.426,56.7s-.025.034-.07.1c-.348.565-2.033,3.24-2.258,3.489-.255.273-2.056,1.566-2.312,1.843-.1.1-.589.831-1.171,1.719A31.873,31.873,0,0,0,59.477,67.5a42.421,42.421,0,0,1-4.227,6.9c-.847.818-2.551,2.286-2.918,1.859s-1.346-.825-1.54-1.249.062-3.064,1.907-5.33,3.733-3.476,3.717-3.905-.843-1.544-.786-2.25.185-2.281-.089-2.364,1.317-2.587,1.731-2.952c.429-.367,3.927-5.584,3.927-5.584s-4.987,3-6.181,4.011-5.648,6.331-6.681,6.9-5.091,4.834-5.768,3.461.378-4.049.973-4.593,3.441-2.06,3.591-2.673,3.367-3.987,3.7-4.611a7.925,7.925,0,0,1,2.041-1.649,65.882,65.882,0,0,0-7.141,4.037c-1.792,1.375-4.708,3.505-5.837,3.722s-4.964,1.414-5.763,1.266-.67-1.544.91-1.6S41.4,56.8,42.6,55.97s-.083-2.184.793-2.217,1,.925,1.6.642a8.039,8.039,0,0,0,1.376-.933S45.061,51.5,46.192,51.2a14.509,14.509,0,0,1,3.421-.224c1.32-.049,3.021-1.6,3.021-1.6s-6.874,1.84-9.036,2.8-7.509,3.957-8.721,4.354-3.3,3.542-4.388,2.538-.679-3.827,1.139-4.772a25.68,25.68,0,0,0,3.6-2.419s-4.293,2.709-6.023,3.471-3.415-1.791-.815-3.031,5.521-2.836,5.521-2.836-6.229.407-7.758-.5-.879-2.147.887-2.125,5.99.47,5.99.47-11.837-3.583-8.383-5.461,7.386-.023,8.65.812-4.7-3.416-2.169-3.776,5.776,1.533,6.211,1.427.634.328.98.225-2.453-2.007-2.453-2.007l-1.525-.819s2.192-.17,2.72-.19a15.7,15.7,0,0,1,1.674.117s-.759-1.292-.227-1.313a17.8,17.8,0,0,1,2.037.453,2.7,2.7,0,0,0,1.578-.234s-2.669-.863-1.987-1.332a4.084,4.084,0,0,1,2.281-.166s.488-1.159,1.1-1.1S45.931,35.087,47,35.4s1-1.532,1-1.532-1.52-2.91-.021-2.888c1.495.04,2.1,2.031,2.625,2.01s-.847-1.548.806-1.968,2.592.959,3.3,1.024-.352-2.091,1.136-2.241c1.493-.135,1.4,2.144,1.4,2.144s1.694.632,1.665-.155-.8-2.594-.367-2.792S60,27.814,59.987,27.548s.736.932.779,2.07.066,1.75.412,1.656,1.237-4.428,1.664-4.708,1.318-2.588,1.7-1.82-.853,5.289.288,5.247.721-1.778,2.66-1.851a29.165,29.165,0,0,1,4.318.267s.044,1.143,1.008,1.105,1.461-.843,2.408-1.489.358-2.111,1.938-2.171.093,2.438.789,2.235.564-1.5,2.658-1.669S81.741,28.3,81.741,28.3s-.153.792,1.085.921-.8,2.129-.8,2.129,1.76-2.341,3.67-2.759,2.4-1.935,2.358-.619.48,1.116.741,1.107a8.8,8.8,0,0,0,1.048-.216s-.793-2.42-.264-2.357,1.08.662,1.3,1.888,1.319-.051,1.319-.051l.156,1.745s1.007-5.906,2.063-5.861.079,4.284.778,4.258a9.7,9.7,0,0,0,1.92-.423s.276.34.535.33.849-.909.7-.027a38.832,38.832,0,0,1-1.341,3.993.73.73,0,0,1,.848-.911c1.057.052.149,1.57.149,1.57l1.356-1.14.383.9,2.52-1.009s.009.219-.056,1.01.543-1.953,1.143-2.5,1.537-1.191,1.589.205a14.027,14.027,0,0,1-.092,2.367s4.069-1.9,4.09-1.332a2.883,2.883,0,0,0,.745,1.327l-1.872,1.472a6.359,6.359,0,0,0,2.478-1.843c.583-1.03,1.622-1.3,1.927-.252s-2.093,2.879-3.386,3.461-2.86,1.155-2.86,1.155-1.165,1.8-1.779,1.819-.761.733-.761.733a25.781,25.781,0,0,1,4.531-1.137c1.315-.049,2.935-1.516,4.408-2.009s2.293.178,2.31.617-3.328,2.666-3.328,2.666,2.2,0,2.99-.028,4.559-.257,2.993.152-1.117.563-1.117.563l3.169.139a.863.863,0,0,1-.849.913c-.474.019-2.235.1-3.777.192-1.308.068-2.454.135-2.454.135s-1.645.674-2.336,1.047-1.019.915-.145.88,3.908-1.462,4.691-1.58.3.865-.663,1.082A18.777,18.777,0,0,0,111,44.173s-.712,1.879-1.576,2.343-4.765,1.846-4.765,1.846,1.961.629,3.381,1.188c1.437.552,5.659,3.026,5.233,3.472s-2.374-.087-3.165-.056-1.219.4-1.757.067-4.234-2.728-5.636-2.674-5.88-1.791-5.88-1.791l-2.549,2.291s1.287,1.618,2.607,1.733,3.019.418,3.371.5,2.354-.442,2.11,0a7.9,7.9,0,0,1-3.445,1.974,16.032,16.032,0,0,1-3.612-.129,21.823,21.823,0,0,1-2.957-1.544l-.839.986s2.767,3.581,4.015,3.88,3.7,2.491,5.372,2.427c1.658-.063,2.987.147,2.3.522a14.681,14.681,0,0,1-3.928.761c-.793.031-4.759-.344-5.948-1.437s-7.4-7.337-7.4-7.337a13.854,13.854,0,0,1-2.374-.089,4.833,4.833,0,0,1-1.351-.642s1.42,2.482,2.754,2.955,2.379,2.45,3.079,2.424,4.342.8,3.217,1.283-3.177-.228-4.044.064-.322.886-.322.886,2.736,4.8,3.552,5.381,2.793,4.1,2.449,4.285,1.018,1.37-.208,1.417-2.506-1.139-3.858-1.958-9.422-11.9-9.422-11.9a2.584,2.584,0,0,1-1.508-.383c-.465-.417-1.5-.023-1.767-.187s-1.364-1.186-1.364-1.186A18.545,18.545,0,0,1,75.9,59.874a26.346,26.346,0,0,0,.7,4.354s2.169-.61,2.469.256.014,2.715-1.323,2.147-3.03-1.017-3.423-2.145.124-1.406-.7-2.164a7.265,7.265,0,0,1-1.4-2.046s.328,8.659.523,9.265.928,1.017.3.948A8.262,8.262,0,0,1,70.1,69.463a4.345,4.345,0,0,1-1.614-3.093,46.438,46.438,0,0,1-.03-5.6s-.779.378-1.157-.22a4.035,4.035,0,0,1-.165-2.006Z"/><path class="cls-3" d="M110.857,96.223a4.8,4.8,0,0,1,3.032-1.4c1.8-.066,2.988-.941,4.21-.794s2.181,1.643,3.459,1.47a2.578,2.578,0,0,0,1.652-.647l-.663-.546a8.878,8.878,0,0,0,2.651.543c1.291.01,7.065-.144,7.485.607s-.871-.8-.871-.8l-1.9-.694a6.1,6.1,0,0,0,3.384.96,4.554,4.554,0,0,0,2.095-.785,18.453,18.453,0,0,0-3.956-.809c-1.411-.008-10.038-1.985-10.038-1.985a14.322,14.322,0,0,0,4.012-1.055,47.849,47.849,0,0,1,6.1-1.959l-.342-.624s-.526-.238-2.052.271a21.8,21.8,0,0,1-3.376.705c-.768.157-5.016,1.6-5.016,1.6s3.323-2.3,4.135-2.647c.827-.367,2.784-1.329,3.413-1.672s4.471-2.476,3.756-2.831-4.043,1.882-4.043,1.882,2.112-1.75,1.464-2.034-1.081.416-1.081.416.366-.39-.394-.361-1.99,1.932-2.684,2.208-1.833.838-1.833.838,1.775-.574,1.495-1.208-1.37-.463-1.37-.463a8.2,8.2,0,0,0,.935-.8c.56-.529,6.154-2.281,5.565-2.509s-6.382,1.33-6.382,1.33-.474-.685.416-1.106a7.413,7.413,0,0,0,1.963-2.25s-.155-.76-.782-.225-4,2.775-4,2.775,3.889-5.783,3.118-5.752-4.095,5.464-4.548,5.482,3.666-5.07,2.265-4.95c-1.42.121-5.28,3.4-5.28,3.4s3.416-6.594,2.83-6.764-4.426,7.077-4.426,7.077-1.022-3.283-.279-4.208a4.148,4.148,0,0,0,.588-3.095c-.2-.247-1.794.2-1.905.575-.122.4-1.168,3.068-1.168,3.068L110.759,78.5s.4-1.3-.115-1.341-.677.731-.677.731-.077-2.045-.408-2.221-.862.8-.9,1.691a9.925,9.925,0,0,1-.494,2.258s-1.611-3.646-2.02-4.274-1.6-1.346-1.172-.336,1.952,5.623,1.952,5.623-.059.132-1.216.177a2.344,2.344,0,0,0-1.764.959s-.823-1.319-1.272-1.3-1.1-.014-1.211.241-.614.923-1.072.686-.679-1.135-.953-1.443-.694.093-.872.671-.988,2.729-.988,2.729-.345-5.68-.81-6.106-.631.145-.486.845.277,5.5.277,5.5a22.488,22.488,0,0,1-2.146-4.024c-.3-1.2-.044-4.6-1.106-3.8s1.186,7.577,1.186,7.577A10.535,10.535,0,0,1,93,81.156c-.362-.884-1.055-2.205-1.5-2.189s.894,3.3.894,3.3-1.411-1.682-1.623-2.051-.386-1.653-1.022-1.627a1.045,1.045,0,0,0-.886.478s1.465,1.165,1.373,2.062a3.528,3.528,0,0,0,.186,1.6L89.6,81.416l-.753.539.407.556L85.8,78.1s-.947.356-.8.8.845,1.883.845,1.883-1.086-1.36-1.6-1.465c-.526-.11-.7.406-.626.725a48.707,48.707,0,0,0,4.05,3.365s-1.871-.309-2.448-.416a12.447,12.447,0,0,1-1.634-.517s-2.532-2.461-3.109-2.38a1.17,1.17,0,0,0-1,.68,13.034,13.034,0,0,0,3.581,3c.582.041,4.486,2.9,4.486,2.9s-3.659.331-4.683.3-2.361.354-3.018.114c-.651-.225-3.718-1.518-4.556-1.486s-.495,2.008.146,1.984,3.737.365,3.737.365-4.035.278-3.64.648,3.238.578,3.238.578l2.007.31a24.678,24.678,0,0,0-3.248.826c-1.08.427-2.65,1.32-1.681,1.537s2.369-.345,3.617.249a6.665,6.665,0,0,0,4.607-.241c.891-.477,5.331-.262,6.353-.3s5.076,1.535,6.11,1.688,4.256,1.953,5.472,1.906,5.889,2.779,7.16,2.417A2.649,2.649,0,0,0,110.857,96.223Z"/><path class="cls-1" d="M103.425,110.214c-.611-.136-1.039-.241-1.039-.241s-4.012-1.766-3.723-4.175.68-7.423.181-7.878S98.3,96.2,96.83,95.586a19.768,19.768,0,0,0-4.58-1.259c-.875-.067-3.428,1.182-3.849.147a25.021,25.021,0,0,0-2.158-3.383l.572-.211s1.364,2.928,2.709,2.877a28.762,28.762,0,0,1,6.585.714A4.311,4.311,0,0,1,98.58,95.9s-.521-.935-3.486-2.838-2.621-2.877-3.707-3.7S84.022,85.8,84.022,85.8s8.089,2.387,8.416,3.429,4.486,3.766,4.968,3.936c.5.177,1.846,2.813,2.142,2.9s1.2,1.2,1.2,1.2A18.6,18.6,0,0,1,99.1,94.449c-.116-.574-1.312-1.679-1.836-2.714S92.3,85.68,92.3,85.68s5.812,5.638,6.017,6.108,3.039,3.728,3.039,3.728a4.832,4.832,0,0,0-.459-1.9c-.411-.66-2.823-3.258-2.823-3.258s3.455,2.171,3.865,2.929,1.881,3.864,1.881,3.864.91-4.065,2.512-5.188a4.289,4.289,0,0,0,1.844-2.175s.619,3.62.651,4.486.585,5.261.585,5.261a18.052,18.052,0,0,0,.514-4.061c-.131-1.143,1.776-9.376,1.776-9.376a36.183,36.183,0,0,1,.28,5.079c-.093,1.362-.132,5.836-.145,7.713-.006.523-.01.832-.01.832s1.035-.8,1.973-1.41-1.695,1.016-1.64,2.466c.054,1.434.839,5.363.606,5.924-1.555,3.779-5.335,4.039-6.88,3.905A20.638,20.638,0,0,1,103.425,110.214Z"/><path class="cls-1" d="M105.708,109.428s2.929-1.956,1.119,5.256-3.631,13.966-3.6,14.882l.392,10.359a3.9,3.9,0,0,1-2.783-.127c-1.646-.624-.69-5.972-.69-5.972l3.447-25.011Z"/><path class="cls-1" d="M44.975,78.038s-3.124,7.6-1.526,12.532-.218,11.106-2.364,15.435,6.386-3.707,6.386-3.707a16.83,16.83,0,0,0-2.76,12,77.937,77.937,0,0,1,.246,12.1l4.766-7.911s1.227,8.828,4.337,13.567,4.554-9.263,4.554-9.263,2.534,7.287,7.154,11.832,3.087-6.5,3.087-6.5S81.944,142.685,79.9,139.714c-1.2-1.748-1.325-5.66-1.325-5.66s4.333,5.754,8.592,5.887,6.559.412,9.227.173c3.476-.313,16.836,0,16.836,0s-17.381-5.029-19.292-8.019,6.351-2.612,6.351-2.612-13.512-1.034-15.948-3.305,7.838-1.956,7.838-1.956-15.367-5.858-18.078-7.409,10.828-1.366,10.828-1.366-13.4-4.575-16.59-6.877,8.582-1.681,8.582-1.681-7.88-5.555-9.34-6.157a80.313,80.313,0,0,0-7.691-2.682L73,96.26s-5.726-1.4-8.61-5.4S56.833,79.631,51.6,78.734s-5.223-1.508-6.555-2.892C43.574,74.318,44.975,78.038,44.975,78.038Z"/><path class="cls-4" d="M100.366,137.9c-16.246-4.123-35.46-18.231-45.681-33.555-4.8-7.208-6.187-13.235-7.607-20.961l-.492-4.806c1.393,7.557,4.706,18,9.358,24.969,10.038,15.045,32.524,31.313,48.442,35.349l-4.02-1Z"/></svg>