<svg id="word" xmlns="http://www.w3.org/2000/svg" xmlns:xlink="http://www.w3.org/1999/xlink" viewBox="0 0 160 160"><defs><style>.cls-1,.cls-8{fill:#21438e;}.cls-10,.cls-2{fill:#fff;}.cls-3{fill:#221f1f;}.cls-10,.cls-11,.cls-12,.cls-15,.cls-16,.cls-17,.cls-18,.cls-19,.cls-4,.cls-5,.cls-7,.cls-8,.cls-9{stroke:#9c4c9c;}.cls-10,.cls-11,.cls-12,.cls-4,.cls-5,.cls-7,.cls-8,.cls-9{stroke-miterlimit:10;stroke-width:0.283px;}.cls-4{fill:url(#linear-gradient);}.cls-5{fill:#888a8c;}.cls-6{fill:#edb41e;}.cls-7{fill:#4c69af;}.cls-9{fill:#d1d2d2;}.cls-11{fill:#1f4591;}.cls-12{fill:none;}.cls-13{fill:#9c4c9c;}.cls-14{fill:#5684ac;opacity:0.25;}.cls-15{fill:#f9ae41;}.cls-15,.cls-16,.cls-17,.cls-18,.cls-19{stroke-width:0.567px;}.cls-16,.cls-17{fill:#26a7df;}.cls-16{opacity:0.35;}.cls-18{fill:#c2976a;}.cls-19{fill:#a07f58;}</style><linearGradient id="linear-gradient" x1="28.836" y1="77.851" x2="31.716" y2="77.851" gradientUnits="userSpaceOnUse"><stop offset="0.004" stop-color="#fff1db"/><stop offset="1" stop-color="#aeafb2"/></linearGradient></defs><rect class="cls-1" x="5.634" y="44.068" width="23.095" height="22.556"/><polygon class="cls-2" points="10.861 47.555 9.021 47.555 9.021 63.47 24.782 63.47 24.782 47.315 10.861 47.555"/><path class="cls-3" d="M24.289,51.2c-.054-.453-.561-.4-.561-.4l-12.72.319L9.621,53.49a10,10,0,0,0,0,2.98H10.9s.24-1.57,1.494-1.543a1.663,1.663,0,0,1,1.546,1.251h5.2a1.914,1.914,0,0,1,1.76-1.544,1.231,1.231,0,0,1,1.306,1.384H23.3l.987-.452S24.342,51.653,24.289,51.2ZM12.821,53.635H10.314l.987-2.088h1.52Zm2.774,0H13.408V51.547l2.187-.08Zm2.507,0H16.261l-.106-2.168H18.1Zm2.746,0H18.715V51.467l2.133-.186Zm.454,0V51.467l2.293-.186.16,2.354Z"/><path class="cls-3" d="M12.488,57.6a1.118,1.118,0,1,1,1.147-1.118A1.135,1.135,0,0,1,12.488,57.6Zm0-1.784a.666.666,0,1,0,.693.666A.681.681,0,0,0,12.488,55.818Z"/><path class="cls-3" d="M20.822,57.335A1.136,1.136,0,1,1,21.848,56.2,1.084,1.084,0,0,1,20.822,57.335Zm0-1.809a.688.688,0,1,0,.573.678A.634.634,0,0,0,20.822,55.526Z"/><path class="cls-4" d="M31.33,111.633l-.925-.075c-.633,0-1.921.264-1.478-.276l.406-66.111a1.126,1.126,0,0,1,1.147-1.1h0a1.126,1.126,0,0,1,1.147,1.1v65.8C31.627,111.581,31.963,111.633,31.33,111.633Z"/><path class="cls-5" d="M28.569,47.723h.889s-.036.142.711.391a1.667,1.667,0,0,0,1.458-.391V48.93a5.84,5.84,0,0,1-1.316.355,2.173,2.173,0,0,1-.978-.5l-.764-.107Z"/><path class="cls-5" d="M28.729,70.363h.6a1.523,1.523,0,0,0,.978.78c.676.142,1.316-.78,1.316-.78v2.129s-.8.745-1.449.319a2.213,2.213,0,0,1-.845-1.158h-.6Z"/><rect class="cls-6" x="10.676" y="70.803" width="16.849" height="0.72"/><rect class="cls-7" x="5.676" y="66.546" width="4.177" height="3.339"/><rect class="cls-8" x="9.697" y="66.562" width="19.049" height="3.323"/><path class="cls-2" d="M13.411,68.389v-.251h.574v.789a1.04,1.04,0,0,1-.273.249.569.569,0,0,1-.29.083.54.54,0,0,1-.355-.128.851.851,0,0,1-.246-.372,1.684,1.684,0,0,1-.091-.589,1.818,1.818,0,0,1,.091-.606.853.853,0,0,1,.24-.38.528.528,0,0,1,.35-.122.467.467,0,0,1,.26.071.536.536,0,0,1,.184.2,1.085,1.085,0,0,1,.109.358l-.162.069a.889.889,0,0,0-.082-.268.376.376,0,0,0-.131-.14.336.336,0,0,0-.183-.051.378.378,0,0,0-.254.092.631.631,0,0,0-.172.286,1.522,1.522,0,0,0-.065.475,1.173,1.173,0,0,0,.139.638.417.417,0,0,0,.361.213.429.429,0,0,0,.218-.066.557.557,0,0,0,.176-.155v-.4Zm-.136,1.056.049-.256h.124l-.032.154a.18.18,0,0,1,.118.074.241.241,0,0,1,.041.143.279.279,0,0,1-.07.192.246.246,0,0,1-.192.078.5.5,0,0,1-.137-.017l.009-.168c.04,0,.07.006.091.006a.164.164,0,0,0,.11-.031.1.1,0,0,0,.035-.078.084.084,0,0,0-.031-.07A.2.2,0,0,0,13.275,69.445Z"/><path class="cls-2" d="M14.9,68.727l.172.033a.738.738,0,0,1-.156.371.356.356,0,0,1-.278.126.388.388,0,0,1-.338-.2,1.1,1.1,0,0,1-.129-.587,1.159,1.159,0,0,1,.13-.608.381.381,0,0,1,.33-.209.37.37,0,0,1,.319.2,1.143,1.143,0,0,1,.127.6v.069h-.734a.8.8,0,0,0,.094.391.241.241,0,0,0,.2.132Q14.822,69.042,14.9,68.727Zm-.547-.422H14.9a.7.7,0,0,0-.066-.3.236.236,0,0,0-.205-.144.226.226,0,0,0-.19.12A.615.615,0,0,0,14.348,68.305Z"/><path class="cls-2" d="M15.278,69.222V67.683h.15v.234a.721.721,0,0,1,.1-.216.143.143,0,0,1,.108-.052.252.252,0,0,1,.171.084l-.057.242a.181.181,0,0,0-.121-.057.132.132,0,0,0-.1.048.28.28,0,0,0-.062.133,1.536,1.536,0,0,0-.031.317v.806Z"/><path class="cls-2" d="M16.279,68.989l.023.23a.411.411,0,0,1-.125.023.217.217,0,0,1-.14-.044.224.224,0,0,1-.072-.121,1.5,1.5,0,0,1-.02-.306v-.885h-.122v-.2h.122V67.3l.166-.156v.537h.168v.2h-.168v.9a.532.532,0,0,0,.015.161.08.08,0,0,0,.08.052A.413.413,0,0,0,16.279,68.989Z"/><path class="cls-2" d="M16.436,69.222V67.683h.15v.234a.717.717,0,0,1,.106-.216.143.143,0,0,1,.108-.052.252.252,0,0,1,.17.084l-.056.242a.184.184,0,0,0-.121-.057.128.128,0,0,0-.1.048.271.271,0,0,0-.062.133,1.469,1.469,0,0,0-.032.317v.806Z"/><path class="cls-2" d="M17.711,69.222V69a.528.528,0,0,1-.136.2.266.266,0,0,1-.176.066.273.273,0,0,1-.2-.081.4.4,0,0,1-.11-.2,1.648,1.648,0,0,1-.027-.336v-.954h.165v.854a1.755,1.755,0,0,0,.019.318.26.26,0,0,0,.069.129.161.161,0,0,0,.115.048.226.226,0,0,0,.2-.126.837.837,0,0,0,.065-.4v-.825h.167v1.539Zm-.541-1.73v-.214h.578v.214Z"/><path class="cls-2" d="M18.758,69.222v-.194a.422.422,0,0,1-.116.17.24.24,0,0,1-.154.059.361.361,0,0,1-.3-.211,1.161,1.161,0,0,1-.127-.593,1.509,1.509,0,0,1,.057-.445.614.614,0,0,1,.15-.271.3.3,0,0,1,.209-.088.237.237,0,0,1,.153.056.42.42,0,0,1,.117.155V67.1h.168v2.124Zm-.527-.768a.936.936,0,0,0,.081.443c.054.1.116.145.188.145s.132-.046.184-.139a.885.885,0,0,0,.078-.42,1.062,1.062,0,0,0-.078-.471.229.229,0,0,0-.2-.149c-.07,0-.13.048-.18.143A.991.991,0,0,0,18.231,68.454Z"/><path class="cls-2" d="M19.847,68.727l.172.033a.737.737,0,0,1-.155.371.358.358,0,0,1-.278.126.389.389,0,0,1-.339-.2,1.1,1.1,0,0,1-.129-.587,1.159,1.159,0,0,1,.131-.608.381.381,0,0,1,.33-.209.37.37,0,0,1,.318.2,1.143,1.143,0,0,1,.128.6l0,.069H19.29a.81.81,0,0,0,.093.391.241.241,0,0,0,.2.132C19.712,69.042,19.8,68.937,19.847,68.727Zm-.547-.422h.549a.713.713,0,0,0-.067-.3.236.236,0,0,0-.2-.144.226.226,0,0,0-.191.12A.615.615,0,0,0,19.3,68.305Z"/><path class="cls-2" d="M20.166,68.761l.166-.04a.432.432,0,0,0,.08.242.211.211,0,0,0,.173.079.207.207,0,0,0,.167-.069.255.255,0,0,0,.059-.174.2.2,0,0,0-.05-.142.591.591,0,0,0-.17-.087,1.1,1.1,0,0,1-.259-.13.349.349,0,0,1-.1-.144.546.546,0,0,1-.036-.2.5.5,0,0,1,.1-.32.329.329,0,0,1,.272-.123.364.364,0,0,1,.193.051.34.34,0,0,1,.127.136.736.736,0,0,1,.061.244l-.163.035q-.023-.252-.213-.252a.215.215,0,0,0-.162.056.2.2,0,0,0-.053.142.179.179,0,0,0,.051.134.8.8,0,0,0,.181.092,1.24,1.24,0,0,1,.268.134.329.329,0,0,1,.094.137.638.638,0,0,1-.075.562.361.361,0,0,1-.3.137C20.34,69.257,20.2,69.091,20.166,68.761Z"/><path class="cls-2" d="M21.705,67.4v-.3h.166v.3Zm0,1.824V67.683h.166v1.539Z"/><path class="cls-2" d="M22.8,68.727l.172.033a.746.746,0,0,1-.155.371.359.359,0,0,1-.279.126.388.388,0,0,1-.338-.2,1.1,1.1,0,0,1-.129-.587,1.159,1.159,0,0,1,.13-.608.382.382,0,0,1,.331-.209.37.37,0,0,1,.318.2,1.143,1.143,0,0,1,.127.6v.069h-.733a.8.8,0,0,0,.093.391.241.241,0,0,0,.2.132Q22.725,69.042,22.8,68.727Zm-.547-.422H22.8a.7.7,0,0,0-.066-.3.236.236,0,0,0-.205-.144.226.226,0,0,0-.19.12A.615.615,0,0,0,22.251,68.305Z"/><path class="cls-2" d="M23.175,69.222V67.1h.166v2.124Z"/><path class="cls-2" d="M24.242,69.032a.666.666,0,0,1-.174.168.346.346,0,0,1-.187.057.293.293,0,0,1-.245-.119.511.511,0,0,1-.092-.32.626.626,0,0,1,.043-.237.392.392,0,0,1,.118-.16.523.523,0,0,1,.225-.086,1.027,1.027,0,0,0,.3-.091l0-.067a.409.409,0,0,0-.044-.221A.214.214,0,0,0,24,67.863a.226.226,0,0,0-.174.062.46.46,0,0,0-.085.232l-.163-.035a.647.647,0,0,1,.141-.36.4.4,0,0,1,.306-.113.365.365,0,0,1,.242.074.329.329,0,0,1,.112.185,1.716,1.716,0,0,1,.023.322v.347c0,.244,0,.4.01.46a.9.9,0,0,0,.043.185h-.174A.8.8,0,0,1,24.242,69.032Zm-.014-.582a.9.9,0,0,1-.272.1.424.424,0,0,0-.146.053.191.191,0,0,0-.065.084.306.306,0,0,0-.023.125.268.268,0,0,0,.053.176.177.177,0,0,0,.146.066.251.251,0,0,0,.162-.059.357.357,0,0,0,.109-.159.888.888,0,0,0,.036-.289Z"/><path class="cls-2" d="M8.119,69.222H7.854V67.784a.925.925,0,0,1-.343.289v-.346a.735.735,0,0,0,.229-.189.768.768,0,0,0,.165-.313h.214Z"/><rect class="cls-9" x="5.676" y="69.885" width="4.177" height="9.013"/><rect class="cls-10" x="9.853" y="69.885" width="18.893" height="8.2"/><rect class="cls-11" x="9.853" y="77.273" width="18.893" height="1.626"/><rect class="cls-12" x="10.685" y="70.644" width="16.84" height="4.046"/><path class="cls-13" d="M11.533,70.644s.023.253.039.632l.032,1.391-.032,1.391c-.016.379-.039.632-.039.632s-.022-.253-.038-.632l-.032-1.391.032-1.391C11.511,70.9,11.533,70.644,11.533,70.644Z"/><path class="cls-13" d="M12.365,70.644s.022.253.038.632l.033,1.391L12.4,74.058c-.015.379-.038.632-.038.632s-.022-.253-.038-.632l-.033-1.391.033-1.391C12.343,70.9,12.365,70.644,12.365,70.644Z"/><path class="cls-13" d="M13.2,70.644s.022.253.038.632l.032,1.391-.032,1.391c-.016.379-.038.632-.038.632s-.023-.253-.038-.632l-.033-1.391.033-1.391C13.174,70.9,13.2,70.644,13.2,70.644Z"/><path class="cls-13" d="M14.028,70.644s.023.253.038.632l.033,1.391-.033,1.391c-.015.379-.038.632-.038.632s-.022-.253-.038-.632l-.032-1.391.032-1.391C14.006,70.9,14.028,70.644,14.028,70.644Z"/><path class="cls-13" d="M14.86,70.644s.022.253.038.632l.033,1.391L14.9,74.058c-.016.379-.038.632-.038.632s-.023-.253-.038-.632l-.033-1.391.033-1.391C14.838,70.9,14.86,70.644,14.86,70.644Z"/><path class="cls-13" d="M15.692,70.644s.022.253.038.632l.032,1.391-.032,1.391c-.016.379-.038.632-.038.632s-.023-.253-.039-.632l-.032-1.391.032-1.391C15.669,70.9,15.692,70.644,15.692,70.644Z"/><path class="cls-13" d="M16.523,70.644s.022.253.038.632l.033,1.391-.033,1.391c-.015.379-.038.632-.038.632s-.022-.253-.038-.632l-.033-1.391.033-1.391C16.5,70.9,16.523,70.644,16.523,70.644Z"/><path class="cls-13" d="M17.355,70.644s.022.253.038.632l.032,1.391-.032,1.391c-.016.379-.038.632-.038.632s-.023-.253-.038-.632l-.033-1.391.033-1.391C17.332,70.9,17.355,70.644,17.355,70.644Z"/><path class="cls-13" d="M18.186,70.644s.023.253.038.632l.033,1.391-.033,1.391c-.015.379-.038.632-.038.632s-.022-.253-.038-.632l-.032-1.391.032-1.391C18.164,70.9,18.186,70.644,18.186,70.644Z"/><path class="cls-13" d="M19.018,70.644s.022.253.038.632l.033,1.391-.033,1.391c-.016.379-.038.632-.038.632s-.023-.253-.038-.632l-.033-1.391.033-1.391C19,70.9,19.018,70.644,19.018,70.644Z"/><path class="cls-13" d="M19.85,70.644s.022.253.038.632l.032,1.391-.032,1.391c-.016.379-.038.632-.038.632s-.023-.253-.039-.632l-.032-1.391.032-1.391C19.827,70.9,19.85,70.644,19.85,70.644Z"/><path class="cls-13" d="M20.681,70.644s.022.253.038.632l.033,1.391-.033,1.391c-.015.379-.038.632-.038.632s-.022-.253-.038-.632l-.033-1.391.033-1.391C20.659,70.9,20.681,70.644,20.681,70.644Z"/><path class="cls-13" d="M21.513,70.644s.022.253.038.632l.032,1.391-.032,1.391c-.016.379-.038.632-.038.632s-.023-.253-.038-.632l-.033-1.391.033-1.391C21.491,70.9,21.513,70.644,21.513,70.644Z"/><path class="cls-13" d="M22.344,70.644s.023.253.038.632l.033,1.391-.032,1.391c-.016.379-.039.632-.039.632s-.022-.253-.038-.632l-.032-1.391.032-1.391C22.322,70.9,22.344,70.644,22.344,70.644Z"/><path class="cls-13" d="M23.176,70.644s.022.253.038.632l.033,1.391-.033,1.391c-.016.379-.038.632-.038.632s-.023-.253-.038-.632l-.033-1.391.033-1.391C23.154,70.9,23.176,70.644,23.176,70.644Z"/><path class="cls-13" d="M24.008,70.644s.022.253.038.632l.032,1.391-.032,1.391c-.016.379-.038.632-.038.632s-.023-.253-.039-.632l-.032-1.391.033-1.391C23.985,70.9,24.008,70.644,24.008,70.644Z"/><path class="cls-13" d="M24.839,70.644s.022.253.038.632l.033,1.391-.033,1.391c-.015.379-.038.632-.038.632s-.022-.253-.038-.632l-.033-1.391.033-1.391C24.817,70.9,24.839,70.644,24.839,70.644Z"/><path class="cls-13" d="M25.671,70.644s.022.253.038.632l.032,1.391-.032,1.391c-.016.379-.038.632-.038.632s-.023-.253-.038-.632L25.6,72.667l.033-1.391C25.649,70.9,25.671,70.644,25.671,70.644Z"/><path class="cls-13" d="M26.5,70.644s.023.253.038.632l.033,1.391-.032,1.391c-.016.379-.039.632-.039.632s-.022-.253-.038-.632l-.032-1.391.032-1.391C26.48,70.9,26.5,70.644,26.5,70.644Z"/><path class="cls-3" d="M10.981,71.321l.045-.006a.179.179,0,0,0,.023.083.051.051,0,0,0,.043.027.063.063,0,0,0,.052-.038.223.223,0,0,0,.022-.106.186.186,0,0,0-.022-.1.059.059,0,0,0-.053-.035.053.053,0,0,0-.036.015.1.1,0,0,0-.026.042l-.04-.009.033-.3h.172v.069h-.138l-.019.157a.079.079,0,0,1,.141.015.253.253,0,0,1,.032.139.307.307,0,0,1-.032.147.1.1,0,0,1-.086.061.091.091,0,0,1-.076-.043A.234.234,0,0,1,10.981,71.321Z"/><path class="cls-3" d="M12.033,71.031l-.042.006a.185.185,0,0,0-.018-.064.049.049,0,0,0-.041-.028c-.025,0-.045.021-.06.064a.552.552,0,0,0-.019.163.149.149,0,0,1,.037-.058.07.07,0,0,1,.047-.02.085.085,0,0,1,.071.052.265.265,0,0,1,.031.139.353.353,0,0,1-.015.106.174.174,0,0,1-.04.071.076.076,0,0,1-.053.022.1.1,0,0,1-.086-.065.507.507,0,0,1-.034-.219.61.61,0,0,1,.034-.242c.024-.048.053-.072.089-.072a.076.076,0,0,1,.066.037A.216.216,0,0,1,12.033,71.031Zm-.173.254a.215.215,0,0,0,.021.1c.015.025.031.038.05.038s.032-.012.045-.036a.213.213,0,0,0,.02-.1.2.2,0,0,0-.02-.1.056.056,0,0,0-.048-.034.058.058,0,0,0-.048.034A.178.178,0,0,0,11.86,71.285Z"/><path class="cls-3" d="M12.647,70.965V70.9h.224v.056a.976.976,0,0,0-.088.235,1.323,1.323,0,0,0-.044.288H12.7a1.326,1.326,0,0,1,.017-.172,1.311,1.311,0,0,1,.044-.187,1.078,1.078,0,0,1,.06-.151Z"/><path class="cls-3" d="M13.541,71.156a.1.1,0,0,1-.038-.046.173.173,0,0,1-.013-.073.19.19,0,0,1,.028-.109.082.082,0,0,1,.143,0,.2.2,0,0,1,.028.111.185.185,0,0,1-.012.071.1.1,0,0,1-.038.046.122.122,0,0,1,.048.056.239.239,0,0,1,.016.095.227.227,0,0,1-.032.128.092.092,0,0,1-.163,0,.238.238,0,0,1-.032-.13.248.248,0,0,1,.017-.1A.107.107,0,0,1,13.541,71.156Zm-.022.149a.16.16,0,0,0,.021.087.06.06,0,0,0,.05.033.059.059,0,0,0,.05-.032.191.191,0,0,0,0-.172.06.06,0,0,0-.05-.033.056.056,0,0,0-.049.033A.152.152,0,0,0,13.519,71.305Zm.014-.271a.126.126,0,0,0,.017.069.044.044,0,0,0,.08,0,.122.122,0,0,0,.016-.065.126.126,0,0,0-.017-.067.043.043,0,0,0-.079,0A.111.111,0,0,0,13.533,71.034Z"/><path class="cls-3" d="M14.314,71.339l.041-.006c.006.061.025.092.057.092a.05.05,0,0,0,.039-.02.178.178,0,0,0,.029-.072.525.525,0,0,0,.013-.12V71.2a.151.151,0,0,1-.036.056.067.067,0,0,1-.046.021.087.087,0,0,1-.073-.052.277.277,0,0,1-.031-.14.281.281,0,0,1,.032-.145.09.09,0,0,1,.078-.053.085.085,0,0,1,.06.029A.207.207,0,0,1,14.52,71a.692.692,0,0,1,.015.166.823.823,0,0,1-.016.187.224.224,0,0,1-.045.1.084.084,0,0,1-.063.03.079.079,0,0,1-.066-.037A.216.216,0,0,1,14.314,71.339Zm.174-.259a.209.209,0,0,0-.02-.1c-.014-.024-.029-.036-.047-.036s-.034.013-.049.038a.216.216,0,0,0-.021.1.187.187,0,0,0,.02.092.058.058,0,0,0,.049.034.056.056,0,0,0,.048-.034A.2.2,0,0,0,14.488,71.08Z"/><path class="cls-3" d="M15.3,71.475h-.043v-.459a.232.232,0,0,1-.039.049.337.337,0,0,1-.045.038v-.07a.337.337,0,0,0,.062-.068.292.292,0,0,0,.037-.079H15.3Z"/><path class="cls-3" d="M15.408,71.185a.642.642,0,0,1,.029-.223c.019-.051.047-.076.084-.076a.087.087,0,0,1,.078.061.607.607,0,0,1,.034.238.671.671,0,0,1-.028.223c-.019.051-.047.076-.085.076s-.06-.022-.081-.067A.6.6,0,0,1,15.408,71.185Zm.043,0a.611.611,0,0,0,.02.192q.02.048.051.048c.019,0,.035-.016.048-.049a.574.574,0,0,0,.02-.191.611.611,0,0,0-.02-.192q-.02-.048-.051-.048c-.019,0-.035.016-.048.049A.607.607,0,0,0,15.451,71.185Z"/><path class="cls-3" d="M16.131,71.475h-.043v-.459a.321.321,0,0,1-.039.049A.339.339,0,0,1,16,71.1v-.07a.31.31,0,0,0,.062-.068.3.3,0,0,0,.038-.079h.028Z"/><path class="cls-3" d="M16.364,71.475h-.043v-.459a.232.232,0,0,1-.039.049.337.337,0,0,1-.045.038v-.07a.337.337,0,0,0,.062-.068.292.292,0,0,0,.037-.079h.028Z"/><path class="cls-3" d="M16.962,71.475H16.92v-.459a.278.278,0,0,1-.04.049.284.284,0,0,1-.045.038v-.07a.337.337,0,0,0,.062-.068.332.332,0,0,0,.038-.079h.027Z"/><path class="cls-3" d="M17.3,71.405v.07h-.229a.266.266,0,0,1,.019-.094.5.5,0,0,1,.07-.123.792.792,0,0,0,.078-.128.227.227,0,0,0,.018-.084.126.126,0,0,0-.019-.073.053.053,0,0,0-.046-.028.056.056,0,0,0-.049.031.161.161,0,0,0-.019.087l-.044-.008a.246.246,0,0,1,.035-.127.091.091,0,0,1,.078-.042.086.086,0,0,1,.08.049.233.233,0,0,1,.027.113.28.28,0,0,1-.021.107.775.775,0,0,1-.081.138c-.025.035-.041.06-.049.073a.339.339,0,0,0-.018.039Z"/><path class="cls-3" d="M17.794,71.475h-.043v-.459a.269.269,0,0,1-.039.049.339.339,0,0,1-.046.038v-.07a.31.31,0,0,0,.062-.068.3.3,0,0,0,.038-.079h.028Z"/><path class="cls-3" d="M17.9,71.319l.042-.009c.009.077.031.115.067.115a.061.061,0,0,0,.051-.034.168.168,0,0,0,.021-.089.153.153,0,0,0-.02-.082.056.056,0,0,0-.048-.031.067.067,0,0,0-.03.008l0-.064H18a.06.06,0,0,0,.051-.027.115.115,0,0,0,.02-.071.12.12,0,0,0-.017-.066.046.046,0,0,0-.04-.025.049.049,0,0,0-.041.026.183.183,0,0,0-.022.08l-.042-.013a.232.232,0,0,1,.036-.114.085.085,0,0,1,.068-.038.086.086,0,0,1,.072.043.194.194,0,0,1,.029.109.2.2,0,0,1-.012.071.125.125,0,0,1-.035.048.073.073,0,0,1,.034.026.16.16,0,0,1,.022.049.3.3,0,0,1,.008.069.231.231,0,0,1-.034.132.1.1,0,0,1-.082.051.087.087,0,0,1-.075-.044A.231.231,0,0,1,17.9,71.319Z"/><path class="cls-3" d="M18.626,71.475h-.043v-.459a.278.278,0,0,1-.04.049.284.284,0,0,1-.045.038v-.07a.337.337,0,0,0,.062-.068.3.3,0,0,0,.038-.079h.028Z"/><path class="cls-3" d="M18.87,71.475v-.141h-.149v-.066l.157-.38h.035v.38h.047v.066h-.047v.141Zm0-.207V71l-.108.264Z"/><path class="cls-3" d="M19.457,71.475h-.043v-.459a.232.232,0,0,1-.039.049.337.337,0,0,1-.045.038v-.07a.337.337,0,0,0,.062-.068.332.332,0,0,0,.038-.079h.027Z"/><path class="cls-3" d="M19.566,71.321l.045-.006a.179.179,0,0,0,.023.083.051.051,0,0,0,.042.027.061.061,0,0,0,.052-.038.212.212,0,0,0,.022-.106.186.186,0,0,0-.021-.1.06.06,0,0,0-.053-.035.053.053,0,0,0-.036.015.109.109,0,0,0-.027.042l-.04-.009.034-.3h.172v.069h-.138l-.019.157a.079.079,0,0,1,.141.015.253.253,0,0,1,.032.139.307.307,0,0,1-.032.147.1.1,0,0,1-.086.061.091.091,0,0,1-.076-.043A.234.234,0,0,1,19.566,71.321Z"/><path class="cls-3" d="M20.289,71.475h-.043v-.459a.321.321,0,0,1-.039.049.339.339,0,0,1-.046.038v-.07a.31.31,0,0,0,.062-.068.3.3,0,0,0,.038-.079h.028Z"/><path class="cls-3" d="M20.618,71.031l-.043.006a.189.189,0,0,0-.017-.064.049.049,0,0,0-.041-.028c-.025,0-.045.021-.06.064a.552.552,0,0,0-.019.163.149.149,0,0,1,.037-.058.069.069,0,0,1,.047-.02.085.085,0,0,1,.071.052.265.265,0,0,1,.031.139.353.353,0,0,1-.015.106.174.174,0,0,1-.04.071.076.076,0,0,1-.053.022.1.1,0,0,1-.086-.065A.507.507,0,0,1,20.4,71.2a.61.61,0,0,1,.034-.242c.023-.048.053-.072.089-.072a.076.076,0,0,1,.066.037A.216.216,0,0,1,20.618,71.031Zm-.174.254a.214.214,0,0,0,.022.1c.014.025.031.038.05.038s.032-.012.045-.036a.213.213,0,0,0,.02-.1.2.2,0,0,0-.02-.1.056.056,0,0,0-.048-.034.058.058,0,0,0-.048.034A.178.178,0,0,0,20.444,71.285Z"/><path class="cls-3" d="M21.12,71.475h-.042v-.459a.278.278,0,0,1-.04.049.284.284,0,0,1-.045.038v-.07a.337.337,0,0,0,.062-.068.332.332,0,0,0,.038-.079h.027Z"/><path class="cls-3" d="M21.232,70.965V70.9h.224v.056a.976.976,0,0,0-.088.235,1.323,1.323,0,0,0-.044.288H21.28A1.326,1.326,0,0,1,21.3,71.3a1.311,1.311,0,0,1,.044-.187.879.879,0,0,1,.06-.151Z"/><path class="cls-3" d="M21.952,71.475h-.043v-.459a.269.269,0,0,1-.039.049.339.339,0,0,1-.046.038v-.07a.31.31,0,0,0,.062-.068.3.3,0,0,0,.038-.079h.028Z"/><path class="cls-3" d="M22.126,71.156a.088.088,0,0,1-.038-.046.173.173,0,0,1-.013-.073.19.19,0,0,1,.028-.109.082.082,0,0,1,.143,0,.2.2,0,0,1,.028.111.185.185,0,0,1-.012.071.1.1,0,0,1-.039.046.118.118,0,0,1,.049.056.239.239,0,0,1,.016.095.236.236,0,0,1-.032.128.092.092,0,0,1-.163,0,.238.238,0,0,1-.032-.13.248.248,0,0,1,.017-.1A.107.107,0,0,1,22.126,71.156Zm-.022.149a.16.16,0,0,0,.021.087.055.055,0,0,0,.1,0,.191.191,0,0,0,0-.172.06.06,0,0,0-.05-.033.059.059,0,0,0-.05.033A.161.161,0,0,0,22.1,71.305Zm.014-.271a.126.126,0,0,0,.017.069.048.048,0,0,0,.04.026.046.046,0,0,0,.039-.026.114.114,0,0,0,.017-.065.126.126,0,0,0-.017-.067.043.043,0,0,0-.079,0A.111.111,0,0,0,22.118,71.034Z"/><path class="cls-3" d="M22.784,71.475h-.043v-.459a.321.321,0,0,1-.039.049.339.339,0,0,1-.046.038v-.07a.337.337,0,0,0,.062-.068.3.3,0,0,0,.038-.079h.028Z"/><path class="cls-3" d="M22.9,71.339l.041-.006c.006.061.025.092.057.092a.05.05,0,0,0,.039-.02.178.178,0,0,0,.029-.072.529.529,0,0,0,.012-.12V71.2a.138.138,0,0,1-.035.056.069.069,0,0,1-.046.021.086.086,0,0,1-.073-.052.277.277,0,0,1-.031-.14.281.281,0,0,1,.032-.145A.09.09,0,0,1,23,70.886a.086.086,0,0,1,.061.029.207.207,0,0,1,.043.088.692.692,0,0,1,.015.166.886.886,0,0,1-.016.187.224.224,0,0,1-.045.1.086.086,0,0,1-.063.03.079.079,0,0,1-.066-.037A.216.216,0,0,1,22.9,71.339Zm.174-.259a.209.209,0,0,0-.02-.1c-.014-.024-.029-.036-.047-.036s-.034.013-.049.038a.216.216,0,0,0-.021.1.187.187,0,0,0,.02.092.058.058,0,0,0,.049.034.056.056,0,0,0,.048-.034A.2.2,0,0,0,23.073,71.08Z"/><path class="cls-3" d="M23.679,71.405v.07H23.45a.266.266,0,0,1,.019-.094.5.5,0,0,1,.07-.123.792.792,0,0,0,.078-.128.227.227,0,0,0,.018-.084.126.126,0,0,0-.019-.073.053.053,0,0,0-.046-.028.056.056,0,0,0-.049.031.161.161,0,0,0-.019.087l-.044-.008a.246.246,0,0,1,.035-.127.092.092,0,0,1,.078-.042.086.086,0,0,1,.08.049.233.233,0,0,1,.027.113.28.28,0,0,1-.021.107.775.775,0,0,1-.081.138c-.025.035-.041.06-.049.073a.339.339,0,0,0-.018.039Z"/><path class="cls-3" d="M23.724,71.185a.667.667,0,0,1,.029-.223c.019-.051.047-.076.084-.076a.087.087,0,0,1,.078.061.6.6,0,0,1,.035.238.667.667,0,0,1-.029.223c-.019.051-.047.076-.085.076s-.06-.022-.081-.067A.6.6,0,0,1,23.724,71.185Zm.043,0a.611.611,0,0,0,.02.192q.02.048.051.048c.019,0,.035-.016.048-.049a.574.574,0,0,0,.02-.191.611.611,0,0,0-.02-.192q-.019-.048-.051-.048c-.019,0-.035.016-.048.049A.607.607,0,0,0,23.767,71.185Z"/><path class="cls-3" d="M24.511,71.405v.07h-.229a.243.243,0,0,1,.018-.094.538.538,0,0,1,.07-.123.667.667,0,0,0,.078-.128.23.23,0,0,0,.019-.084.134.134,0,0,0-.019-.073.055.055,0,0,0-.047-.028.053.053,0,0,0-.048.031.161.161,0,0,0-.019.087l-.044-.008a.247.247,0,0,1,.034-.127.092.092,0,0,1,.079-.042.086.086,0,0,1,.08.049.233.233,0,0,1,.027.113.28.28,0,0,1-.021.107.775.775,0,0,1-.081.138c-.025.035-.042.06-.049.073a.17.17,0,0,0-.018.039Z"/><path class="cls-3" d="M24.716,71.475h-.043v-.459a.321.321,0,0,1-.039.049.339.339,0,0,1-.046.038v-.07a.31.31,0,0,0,.062-.068.3.3,0,0,0,.038-.079h.028Z"/><path class="cls-3" d="M25.342,71.405v.07h-.228a.243.243,0,0,1,.018-.094.5.5,0,0,1,.07-.123.667.667,0,0,0,.078-.128.227.227,0,0,0,.018-.084.126.126,0,0,0-.019-.073.053.053,0,0,0-.046-.028.056.056,0,0,0-.049.031.17.17,0,0,0-.019.087l-.043-.008a.247.247,0,0,1,.034-.127.092.092,0,0,1,.078-.042.088.088,0,0,1,.081.049.233.233,0,0,1,.027.113.263.263,0,0,1-.022.107.775.775,0,0,1-.081.138c-.025.035-.041.06-.049.073a.339.339,0,0,0-.018.039Z"/><path class="cls-3" d="M25.611,71.405v.07h-.229a.266.266,0,0,1,.019-.094.5.5,0,0,1,.07-.123.792.792,0,0,0,.078-.128.227.227,0,0,0,.018-.084.126.126,0,0,0-.019-.073.053.053,0,0,0-.046-.028.056.056,0,0,0-.049.031.161.161,0,0,0-.019.087l-.044-.008a.246.246,0,0,1,.035-.127.092.092,0,0,1,.078-.042.086.086,0,0,1,.08.049.234.234,0,0,1,.028.113.281.281,0,0,1-.022.107.775.775,0,0,1-.081.138c-.025.035-.041.06-.049.073a.339.339,0,0,0-.018.039Z"/><path class="cls-3" d="M26.174,71.405v.07h-.229a.287.287,0,0,1,.018-.094.538.538,0,0,1,.07-.123.667.667,0,0,0,.078-.128.211.211,0,0,0,.019-.084.126.126,0,0,0-.019-.073.055.055,0,0,0-.047-.028.056.056,0,0,0-.048.031.161.161,0,0,0-.019.087l-.044-.008a.246.246,0,0,1,.035-.127.091.091,0,0,1,.078-.042.086.086,0,0,1,.08.049.233.233,0,0,1,.027.113.28.28,0,0,1-.021.107.775.775,0,0,1-.081.138c-.025.035-.042.06-.049.073a.339.339,0,0,0-.018.039Z"/><path class="cls-3" d="M26.219,71.319l.042-.009c.009.077.031.115.067.115a.061.061,0,0,0,.051-.034A.168.168,0,0,0,26.4,71.3a.163.163,0,0,0-.019-.082.058.058,0,0,0-.049-.031.061.061,0,0,0-.029.008l0-.064h.007a.06.06,0,0,0,.051-.027.115.115,0,0,0,.02-.071.12.12,0,0,0-.017-.066.046.046,0,0,0-.04-.025.049.049,0,0,0-.041.026.183.183,0,0,0-.022.08l-.042-.013a.243.243,0,0,1,.036-.114.081.081,0,0,1,.14,0,.194.194,0,0,1,.029.109.2.2,0,0,1-.012.071.115.115,0,0,1-.035.048.073.073,0,0,1,.034.026.16.16,0,0,1,.022.049.251.251,0,0,1,.008.069.231.231,0,0,1-.034.132.1.1,0,0,1-.082.051.087.087,0,0,1-.075-.044A.231.231,0,0,1,26.219,71.319Z"/><path class="cls-3" d="M27.005,71.405v.07h-.228a.243.243,0,0,1,.018-.094.538.538,0,0,1,.07-.123.667.667,0,0,0,.078-.128.227.227,0,0,0,.018-.084.134.134,0,0,0-.018-.073.055.055,0,0,0-.047-.028.056.056,0,0,0-.049.031.17.17,0,0,0-.019.087l-.043-.008a.247.247,0,0,1,.034-.127.092.092,0,0,1,.079-.042.086.086,0,0,1,.08.049.233.233,0,0,1,.027.113.28.28,0,0,1-.021.107.923.923,0,0,1-.081.138.689.689,0,0,0-.049.073.17.17,0,0,0-.018.039Z"/><path class="cls-3" d="M27.187,71.475v-.141h-.15v-.066l.157-.38h.035v.38h.047v.066h-.047v.141Zm0-.207V71l-.109.264Z"/><path class="cls-3" d="M11.706,72.063a.433.433,0,0,1,.024-.164.075.075,0,0,1,.07-.056.073.073,0,0,1,.066.045.4.4,0,0,1,.029.175.436.436,0,0,1-.024.164.072.072,0,0,1-.139.006A.384.384,0,0,1,11.706,72.063Zm.036,0a.39.39,0,0,0,.017.141c.011.024.025.035.042.035s.03-.012.041-.036a.625.625,0,0,0,0-.281c-.011-.024-.026-.036-.043-.036s-.03.012-.041.037A.394.394,0,0,0,11.742,72.063Z"/><path class="cls-3" d="M11.931,72.163l.037,0a.125.125,0,0,0,.02.061.042.042,0,0,0,.036.02.05.05,0,0,0,.043-.028.135.135,0,0,0,.019-.077.124.124,0,0,0-.018-.072.05.05,0,0,0-.075-.015.079.079,0,0,0-.022.031l-.034-.006.029-.222h.144V71.9h-.116l-.016.116a.072.072,0,0,1,.119.01.181.181,0,0,1,.026.1.222.222,0,0,1-.026.109.083.083,0,0,1-.073.045.079.079,0,0,1-.063-.032A.145.145,0,0,1,11.931,72.163Z"/><path class="cls-3" d="M11.893,72.947V73H11.7a.154.154,0,0,1,.015-.069.352.352,0,0,1,.059-.091.487.487,0,0,0,.065-.093.152.152,0,0,0,.015-.062.091.091,0,0,0-.015-.054.05.05,0,0,0-.039-.02.047.047,0,0,0-.041.022.108.108,0,0,0-.016.064l-.037,0a.166.166,0,0,1,.029-.094.083.083,0,0,1,.066-.031.075.075,0,0,1,.067.036.157.157,0,0,1,.023.083.179.179,0,0,1-.018.079.551.551,0,0,1-.068.1c-.021.026-.035.045-.041.054a.2.2,0,0,0-.015.029Z"/><path class="cls-3" d="M12.065,73H12.03v-.337q-.013.016-.033.036a.265.265,0,0,1-.039.028v-.052a.205.205,0,0,0,.052-.05.2.2,0,0,0,.032-.058h.023Z"/><path class="cls-3" d="M11.706,73.606l.035-.007c.008.057.026.085.056.085a.053.053,0,0,0,.043-.025.111.111,0,0,0,.018-.065.1.1,0,0,0-.017-.061.049.049,0,0,0-.04-.023.069.069,0,0,0-.025.006l0-.047h.006a.053.053,0,0,0,.042-.02.077.077,0,0,0,.017-.052.084.084,0,0,0-.014-.049.041.041,0,0,0-.068,0,.108.108,0,0,0-.018.058l-.036-.009a.155.155,0,0,1,.031-.083.07.07,0,0,1,.057-.029.076.076,0,0,1,.06.032.129.129,0,0,1,.024.08.121.121,0,0,1-.01.052.094.094,0,0,1-.029.036.054.054,0,0,1,.028.019.1.1,0,0,1,.019.036.2.2,0,0,1,.007.05.155.155,0,0,1-.029.1.082.082,0,0,1-.069.038.077.077,0,0,1-.063-.033A.151.151,0,0,1,11.706,73.606Z"/><path class="cls-3" d="M11.933,73.345V73.3h.188v.041a.69.69,0,0,0-.074.173.872.872,0,0,0-.036.211h-.037a.7.7,0,0,1,.014-.126.834.834,0,0,1,.037-.137.623.623,0,0,1,.05-.112Z"/><path class="cls-3" d="M11.706,74.329l.037,0a.119.119,0,0,0,.02.062.045.045,0,0,0,.035.02.054.054,0,0,0,.044-.028.145.145,0,0,0,.018-.078.126.126,0,0,0-.017-.071A.052.052,0,0,0,11.8,74.2a.043.043,0,0,0-.03.011.074.074,0,0,0-.023.031l-.033-.007.028-.221h.144v.05h-.116l-.015.116a.075.075,0,0,1,.055-.027.078.078,0,0,1,.063.038.171.171,0,0,1,.027.1.206.206,0,0,1-.027.108.081.081,0,0,1-.136.014A.155.155,0,0,1,11.706,74.329Z"/><path class="cls-3" d="M11.931,74.328l.036-.007c.007.057.026.085.056.085a.051.051,0,0,0,.042-.025.111.111,0,0,0,.018-.065.1.1,0,0,0-.016-.061.05.05,0,0,0-.041-.023.074.074,0,0,0-.025.006l0-.046h.006a.051.051,0,0,0,.043-.02.077.077,0,0,0,.016-.052.083.083,0,0,0-.013-.049.043.043,0,0,0-.034-.018.042.042,0,0,0-.035.019.133.133,0,0,0-.018.059l-.035-.01a.151.151,0,0,1,.03-.083.073.073,0,0,1,.117,0,.125.125,0,0,1,.025.08.121.121,0,0,1-.011.052.086.086,0,0,1-.029.036.064.064,0,0,1,.029.019.121.121,0,0,1,.018.036.161.161,0,0,1,.007.051.157.157,0,0,1-.029.1.083.083,0,0,1-.068.037.08.08,0,0,1-.064-.033A.151.151,0,0,1,11.931,74.328Z"/><path class="cls-3" d="M12.537,72.063a.433.433,0,0,1,.024-.164.076.076,0,0,1,.071-.056.071.071,0,0,1,.065.045.384.384,0,0,1,.03.175.458.458,0,0,1-.024.164.072.072,0,0,1-.139.006A.381.381,0,0,1,12.537,72.063Zm.037,0a.4.4,0,0,0,.016.141c.011.024.025.035.043.035s.03-.012.041-.036a.419.419,0,0,0,.016-.14.39.39,0,0,0-.017-.141c-.011-.024-.025-.036-.043-.036s-.029.012-.04.037A.394.394,0,0,0,12.574,72.063Z"/><path class="cls-3" d="M12.818,72.042a.077.077,0,0,1-.033-.034.126.126,0,0,1-.01-.055.124.124,0,0,1,.023-.079.074.074,0,0,1,.12,0,.13.13,0,0,1,.024.081.119.119,0,0,1-.011.053.081.081,0,0,1-.032.034.082.082,0,0,1,.04.04.171.171,0,0,1-.013.164.081.081,0,0,1-.136,0,.153.153,0,0,1-.027-.095.163.163,0,0,1,.014-.071A.075.075,0,0,1,12.818,72.042Zm-.019.109a.1.1,0,0,0,.018.064.049.049,0,0,0,.041.024.051.051,0,0,0,.042-.023.109.109,0,0,0,.017-.063.113.113,0,0,0-.017-.064.052.052,0,0,0-.043-.024.049.049,0,0,0-.041.024A.108.108,0,0,0,12.8,72.151Zm.012-.2a.088.088,0,0,0,.014.051.04.04,0,0,0,.033.018A.043.043,0,0,0,12.892,72a.08.08,0,0,0,.013-.048.077.077,0,0,0-.014-.049.04.04,0,0,0-.033-.02.041.041,0,0,0-.033.019A.079.079,0,0,0,12.811,71.952Z"/><path class="cls-3" d="M12.725,72.947V73h-.192a.187.187,0,0,1,.015-.069.415.415,0,0,1,.059-.091.5.5,0,0,0,.066-.093.152.152,0,0,0,.015-.062.085.085,0,0,0-.016-.054.047.047,0,0,0-.039-.02.046.046,0,0,0-.04.022.108.108,0,0,0-.016.064l-.037,0a.159.159,0,0,1,.029-.094.081.081,0,0,1,.066-.031.075.075,0,0,1,.067.036.157.157,0,0,1,.023.083.179.179,0,0,1-.018.079.609.609,0,0,1-.068.1c-.021.026-.035.045-.041.054a.1.1,0,0,0-.015.029Z"/><path class="cls-3" d="M12.763,72.884l.035-.007c.008.056.026.085.057.085a.052.052,0,0,0,.042-.026.107.107,0,0,0,.018-.065.1.1,0,0,0-.017-.06.047.047,0,0,0-.04-.024.069.069,0,0,0-.025.006l0-.046h.006a.052.052,0,0,0,.042-.02.08.08,0,0,0,.017-.053.078.078,0,0,0-.014-.048.04.04,0,0,0-.033-.018.041.041,0,0,0-.035.019.108.108,0,0,0-.018.058l-.036-.009a.163.163,0,0,1,.031-.084.073.073,0,0,1,.057-.028.076.076,0,0,1,.06.032.129.129,0,0,1,.024.08.124.124,0,0,1-.01.052.084.084,0,0,1-.029.035.063.063,0,0,1,.028.02.1.1,0,0,1,.019.036.2.2,0,0,1,.007.05.155.155,0,0,1-.029.1.085.085,0,0,1-.069.038.077.077,0,0,1-.063-.033A.154.154,0,0,1,12.763,72.884Z"/><path class="cls-3" d="M12.651,73.72v-.1h-.125v-.049l.132-.279h.029v.279h.04v.049h-.04v.1Zm0-.152v-.194l-.09.194Z"/><path class="cls-3" d="M12.9,73.72h-.036v-.337a.18.18,0,0,1-.033.036.261.261,0,0,1-.038.028V73.4a.205.205,0,0,0,.052-.05.2.2,0,0,0,.032-.058H12.9Z"/><path class="cls-3" d="M12.537,74.329l.038,0a.12.12,0,0,0,.019.062.045.045,0,0,0,.036.02.055.055,0,0,0,.044-.028.145.145,0,0,0,.018-.078.118.118,0,0,0-.018-.071.05.05,0,0,0-.044-.026.047.047,0,0,0-.031.011.082.082,0,0,0-.022.031l-.034-.007.029-.221h.144v.05H12.6l-.016.116a.071.071,0,0,1,.119.011.171.171,0,0,1,.027.1.206.206,0,0,1-.027.108.08.08,0,0,1-.073.045.078.078,0,0,1-.063-.031A.155.155,0,0,1,12.537,74.329Z"/><path class="cls-3" d="M12.818,74.208a.075.075,0,0,1-.033-.033.153.153,0,0,1,.013-.135.074.074,0,0,1,.06-.03.072.072,0,0,1,.06.031.13.13,0,0,1,.024.081.122.122,0,0,1-.011.053.078.078,0,0,1-.032.033.084.084,0,0,1,.04.041.148.148,0,0,1,.015.07.152.152,0,0,1-.028.094.082.082,0,0,1-.136,0,.155.155,0,0,1-.027-.095.16.16,0,0,1,.014-.071A.081.081,0,0,1,12.818,74.208Zm-.019.11a.105.105,0,0,0,.018.064.049.049,0,0,0,.041.024.051.051,0,0,0,.042-.023.109.109,0,0,0,.017-.063.11.11,0,0,0-.017-.064.053.053,0,0,0-.043-.025.05.05,0,0,0-.041.025A.106.106,0,0,0,12.8,74.318Zm.012-.2a.082.082,0,0,0,.014.05.039.039,0,0,0,.033.019.043.043,0,0,0,.034-.018.082.082,0,0,0,.013-.048.08.08,0,0,0-.014-.05.038.038,0,0,0-.066,0A.077.077,0,0,0,12.811,74.119Z"/><path class="cls-3" d="M13.5,72.276h-.036v-.337a.209.209,0,0,1-.033.035A.166.166,0,0,1,13.4,72v-.051a.247.247,0,0,0,.052-.05.2.2,0,0,0,.032-.058H13.5Z"/><path class="cls-3" d="M13.594,72.163l.038,0a.125.125,0,0,0,.019.061.044.044,0,0,0,.036.02.053.053,0,0,0,.044-.028.144.144,0,0,0,.018-.077.124.124,0,0,0-.018-.072.052.052,0,0,0-.044-.026.053.053,0,0,0-.031.011.091.091,0,0,0-.022.031l-.033-.006.028-.222h.144V71.9h-.116l-.015.116a.074.074,0,0,1,.054-.027.077.077,0,0,1,.064.037.174.174,0,0,1,.027.1.212.212,0,0,1-.027.109.082.082,0,0,1-.073.045.079.079,0,0,1-.063-.032A.159.159,0,0,1,13.594,72.163Z"/><path class="cls-3" d="M13.369,72.884l.035-.007c.008.056.027.085.057.085a.052.052,0,0,0,.042-.026.123.123,0,0,0,0-.125.049.049,0,0,0-.041-.024.069.069,0,0,0-.025.006l0-.046h.006a.055.055,0,0,0,.043-.02.08.08,0,0,0,.016-.053.078.078,0,0,0-.014-.048.04.04,0,0,0-.033-.018.041.041,0,0,0-.035.019.117.117,0,0,0-.018.058l-.036-.009a.163.163,0,0,1,.031-.084.072.072,0,0,1,.117,0,.129.129,0,0,1,.025.08.124.124,0,0,1-.011.052.084.084,0,0,1-.029.035.072.072,0,0,1,.029.02.121.121,0,0,1,.018.036.2.2,0,0,1,.007.05.155.155,0,0,1-.029.1.085.085,0,0,1-.069.038.077.077,0,0,1-.063-.033A.154.154,0,0,1,13.369,72.884Z"/><path class="cls-3" d="M13.782,72.947V73H13.59a.172.172,0,0,1,.016-.069.372.372,0,0,1,.058-.091.5.5,0,0,0,.066-.093.152.152,0,0,0,.015-.062.085.085,0,0,0-.016-.054.047.047,0,0,0-.039-.02.046.046,0,0,0-.04.022.108.108,0,0,0-.016.064l-.037,0a.166.166,0,0,1,.029-.094.081.081,0,0,1,.066-.031.075.075,0,0,1,.067.036.157.157,0,0,1,.023.083.179.179,0,0,1-.018.079.609.609,0,0,1-.068.1c-.021.026-.035.045-.041.054a.134.134,0,0,0-.015.029Z"/><path class="cls-3" d="M13.369,73.607l.037,0a.129.129,0,0,0,.02.062.045.045,0,0,0,.035.02.053.053,0,0,0,.044-.029.142.142,0,0,0,.018-.077.124.124,0,0,0-.017-.072.053.053,0,0,0-.045-.025.045.045,0,0,0-.03.011.067.067,0,0,0-.022.031l-.034-.007L13.4,73.3h.144v.05h-.115l-.016.116a.076.076,0,0,1,.055-.027.075.075,0,0,1,.063.038.171.171,0,0,1,.027.1.206.206,0,0,1-.027.108.081.081,0,0,1-.072.045.079.079,0,0,1-.064-.032A.149.149,0,0,1,13.369,73.607Z"/><path class="cls-3" d="M13.782,73.669v.051H13.59a.172.172,0,0,1,.016-.069.372.372,0,0,1,.058-.091.5.5,0,0,0,.066-.093.152.152,0,0,0,.015-.062.08.08,0,0,0-.016-.053.047.047,0,0,0-.079,0,.11.11,0,0,0-.016.065l-.037-.006a.165.165,0,0,1,.029-.093.079.079,0,0,1,.066-.032.074.074,0,0,1,.067.037.154.154,0,0,1,.023.083.178.178,0,0,1-.018.078.57.57,0,0,1-.068.1c-.021.027-.035.045-.041.054a.161.161,0,0,0-.015.029Z"/><path class="cls-3" d="M14.335,72.276H14.3v-.337a.209.209,0,0,1-.033.035.191.191,0,0,1-.038.028v-.051a.273.273,0,0,0,.052-.05.194.194,0,0,0,.031-.058h.024Z"/><path class="cls-3" d="M14.614,72.225v.051h-.192a.161.161,0,0,1,.015-.07.4.4,0,0,1,.059-.09.458.458,0,0,0,.065-.094.135.135,0,0,0,.016-.061.085.085,0,0,0-.016-.054.047.047,0,0,0-.08,0,.114.114,0,0,0-.016.064l-.037,0a.174.174,0,0,1,.029-.094.081.081,0,0,1,.066-.031.074.074,0,0,1,.067.036.148.148,0,0,1,.023.083.179.179,0,0,1-.018.079.551.551,0,0,1-.068.1c-.021.026-.034.044-.041.054a.2.2,0,0,0-.015.029Z"/><path class="cls-3" d="M14.315,73v-.1h-.126v-.049l.132-.279h.029v.279h.04V72.9h-.04V73Zm0-.152v-.194l-.091.194Z"/><path class="cls-3" d="M14.426,72.785a.433.433,0,0,1,.024-.164.078.078,0,0,1,.071-.056.072.072,0,0,1,.065.046.393.393,0,0,1,.029.174.433.433,0,0,1-.024.164.077.077,0,0,1-.071.056.078.078,0,0,1-.068-.049A.4.4,0,0,1,14.426,72.785Zm.036,0a.39.39,0,0,0,.017.141q.017.036.042.036c.017,0,.03-.013.041-.037a.384.384,0,0,0,.017-.14.39.39,0,0,0-.017-.141c-.011-.024-.025-.035-.043-.035s-.029.012-.04.036A.387.387,0,0,0,14.462,72.785Z"/><path class="cls-3" d="M14.2,73.607l.038,0a.119.119,0,0,0,.02.062.045.045,0,0,0,.035.02.053.053,0,0,0,.044-.029.142.142,0,0,0,.018-.077.124.124,0,0,0-.018-.072.05.05,0,0,0-.044-.025.043.043,0,0,0-.03.011.068.068,0,0,0-.023.031l-.033-.007.028-.221h.144v.05h-.116l-.015.116a.075.075,0,0,1,.055-.027.075.075,0,0,1,.063.038.171.171,0,0,1,.027.1.206.206,0,0,1-.027.108.081.081,0,0,1-.072.045.078.078,0,0,1-.064-.032A.156.156,0,0,1,14.2,73.607Z"/><path class="cls-3" d="M14.428,73.345V73.3h.188v.041a.69.69,0,0,0-.074.173.874.874,0,0,0-.037.211h-.036a.7.7,0,0,1,.014-.126.834.834,0,0,1,.037-.137.623.623,0,0,1,.05-.112Z"/><path class="cls-3" d="M15.032,72.161l.036-.007c.007.057.026.085.056.085a.051.051,0,0,0,.042-.025.109.109,0,0,0,.018-.065.1.1,0,0,0-.016-.061.05.05,0,0,0-.041-.023.074.074,0,0,0-.025.006l0-.046h.006a.053.053,0,0,0,.043-.019.08.08,0,0,0,.016-.053.072.072,0,0,0-.014-.048.041.041,0,0,0-.033-.019.043.043,0,0,0-.035.02.128.128,0,0,0-.018.058l-.035-.009a.154.154,0,0,1,.03-.084.072.072,0,0,1,.057-.028.073.073,0,0,1,.06.032.122.122,0,0,1,.025.08.127.127,0,0,1-.011.052.083.083,0,0,1-.029.035.073.073,0,0,1,.029.019.121.121,0,0,1,.018.036.17.17,0,0,1,.007.051.155.155,0,0,1-.029.1.085.085,0,0,1-.069.038.08.08,0,0,1-.063-.033A.157.157,0,0,1,15.032,72.161Z"/><path class="cls-3" d="M15.445,72.225v.051h-.192a.18.18,0,0,1,.016-.07.367.367,0,0,1,.059-.09.458.458,0,0,0,.065-.094.147.147,0,0,0,.015-.061.091.091,0,0,0-.015-.054.049.049,0,0,0-.039-.021.048.048,0,0,0-.041.023.106.106,0,0,0-.016.064l-.037,0a.166.166,0,0,1,.029-.094.081.081,0,0,1,.066-.031.075.075,0,0,1,.067.036.157.157,0,0,1,.023.083.179.179,0,0,1-.018.079.609.609,0,0,1-.068.1.636.636,0,0,0-.041.054.2.2,0,0,0-.015.029Z"/><path class="cls-3" d="M15.864,72.063a.433.433,0,0,1,.024-.164.076.076,0,0,1,.071-.056.073.073,0,0,1,.065.045.4.4,0,0,1,.029.175.436.436,0,0,1-.024.164.072.072,0,0,1-.139.006A.384.384,0,0,1,15.864,72.063Zm.036,0a.39.39,0,0,0,.017.141c.011.024.025.035.042.035s.03-.012.041-.036a.625.625,0,0,0,0-.281c-.011-.024-.026-.036-.043-.036s-.03.012-.041.037A.419.419,0,0,0,15.9,72.063Z"/><path class="cls-3" d="M16.089,72.163l.038,0a.116.116,0,0,0,.019.061.042.042,0,0,0,.036.02.053.053,0,0,0,.044-.028.144.144,0,0,0,.018-.077.124.124,0,0,0-.018-.072.05.05,0,0,0-.075-.015.079.079,0,0,0-.022.031l-.034-.006.029-.222h.144V71.9h-.116l-.016.116a.072.072,0,0,1,.119.01.174.174,0,0,1,.026.1.212.212,0,0,1-.026.109.082.082,0,0,1-.073.045.079.079,0,0,1-.063-.032A.151.151,0,0,1,16.089,72.163Z"/><path class="cls-3" d="M15.864,72.884l.035-.007c.008.056.026.085.056.085A.052.052,0,0,0,16,72.936a.107.107,0,0,0,.018-.065.1.1,0,0,0-.017-.06.047.047,0,0,0-.04-.024.069.069,0,0,0-.025.006l0-.046h.006a.053.053,0,0,0,.042-.02A.08.08,0,0,0,16,72.675a.078.078,0,0,0-.014-.048.041.041,0,0,0-.068,0,.108.108,0,0,0-.018.058l-.036-.009a.163.163,0,0,1,.031-.084.073.073,0,0,1,.057-.028.076.076,0,0,1,.06.032.129.129,0,0,1,.024.08.124.124,0,0,1-.01.052.084.084,0,0,1-.029.035.063.063,0,0,1,.028.02.1.1,0,0,1,.019.036.2.2,0,0,1,.007.05.155.155,0,0,1-.029.1.085.085,0,0,1-.069.038.077.077,0,0,1-.063-.033A.154.154,0,0,1,15.864,72.884Z"/><path class="cls-3" d="M16.089,72.885l.038-.005a.12.12,0,0,0,.019.062.045.045,0,0,0,.036.02.054.054,0,0,0,.044-.029.142.142,0,0,0,.018-.077.124.124,0,0,0-.018-.072.054.054,0,0,0-.044-.026.048.048,0,0,0-.031.012.069.069,0,0,0-.022.03l-.034-.006.029-.222h.144v.051h-.116l-.016.116a.078.078,0,0,1,.055-.027.077.077,0,0,1,.064.038.171.171,0,0,1,.026.1.206.206,0,0,1-.026.108.082.082,0,0,1-.073.045.079.079,0,0,1-.063-.032A.151.151,0,0,1,16.089,72.885Z"/><path class="cls-3" d="M16.7,72.063a.433.433,0,0,1,.024-.164.076.076,0,0,1,.071-.056.073.073,0,0,1,.066.045.4.4,0,0,1,.029.175.436.436,0,0,1-.024.164.072.072,0,0,1-.139.006A.381.381,0,0,1,16.7,72.063Zm.037,0a.4.4,0,0,0,.016.141c.011.024.025.035.043.035s.03-.012.041-.036a.394.394,0,0,0,.016-.14.369.369,0,0,0-.017-.141q-.016-.036-.042-.036c-.017,0-.03.012-.041.037A.394.394,0,0,0,16.732,72.063Z"/><path class="cls-3" d="M16.923,71.9V71.85h.188v.041a.706.706,0,0,0-.074.173.882.882,0,0,0-.037.212h-.036a.7.7,0,0,1,.014-.127.982.982,0,0,1,.036-.137.727.727,0,0,1,.051-.111Z"/><path class="cls-3" d="M16.7,72.884l.036-.007c.007.056.026.085.056.085a.052.052,0,0,0,.042-.026.107.107,0,0,0,.018-.065.1.1,0,0,0-.016-.06.049.049,0,0,0-.04-.024.078.078,0,0,0-.026.006l0-.046h0a.054.054,0,0,0,.043-.02.08.08,0,0,0,.016-.053.078.078,0,0,0-.013-.048.041.041,0,0,0-.069,0,.128.128,0,0,0-.018.058l-.035-.009a.154.154,0,0,1,.03-.084.075.075,0,0,1,.057-.028.073.073,0,0,1,.06.032.123.123,0,0,1,.025.08.142.142,0,0,1-.01.052.079.079,0,0,1-.03.035.066.066,0,0,1,.029.02.1.1,0,0,1,.018.036.159.159,0,0,1,.007.05.155.155,0,0,1-.028.1.088.088,0,0,1-.069.038.077.077,0,0,1-.063-.033A.154.154,0,0,1,16.7,72.884Z"/><path class="cls-3" d="M17.105,72.672l-.035,0a.1.1,0,0,0-.015-.047.043.043,0,0,0-.034-.02c-.021,0-.038.015-.05.047a.356.356,0,0,0-.017.12.122.122,0,0,1,.031-.043.064.064,0,0,1,.04-.015.073.073,0,0,1,.06.038.184.184,0,0,1,.026.1.236.236,0,0,1-.013.078.123.123,0,0,1-.033.052.072.072,0,0,1-.045.017.085.085,0,0,1-.073-.048.335.335,0,0,1-.028-.161.4.4,0,0,1,.029-.178.088.088,0,0,1,.075-.053.069.069,0,0,1,.055.027A.146.146,0,0,1,17.105,72.672Zm-.145.186a.139.139,0,0,0,.018.075.051.051,0,0,0,.042.029.047.047,0,0,0,.038-.027.143.143,0,0,0,.016-.074.131.131,0,0,0-.016-.071.046.046,0,0,0-.04-.025.049.049,0,0,0-.041.025A.124.124,0,0,0,16.96,72.858Z"/><path class="cls-3" d="M17.527,72.063a.433.433,0,0,1,.024-.164.076.076,0,0,1,.071-.056.073.073,0,0,1,.065.045.4.4,0,0,1,.029.175.436.436,0,0,1-.024.164.077.077,0,0,1-.071.056.08.08,0,0,1-.068-.05A.4.4,0,0,1,17.527,72.063Zm.036,0a.39.39,0,0,0,.017.141c.011.024.025.035.042.035s.03-.012.041-.036a.589.589,0,0,0,0-.281c-.011-.024-.025-.036-.043-.036s-.03.012-.04.037A.387.387,0,0,0,17.563,72.063Z"/><path class="cls-3" d="M17.752,72.163l.038,0a.125.125,0,0,0,.019.061.044.044,0,0,0,.036.02.053.053,0,0,0,.044-.028.144.144,0,0,0,.018-.077.124.124,0,0,0-.018-.072.052.052,0,0,0-.044-.026.048.048,0,0,0-.03.011.081.081,0,0,0-.023.031l-.033-.006.028-.222h.144V71.9h-.116l-.015.116a.074.074,0,0,1,.054-.027.077.077,0,0,1,.064.037.174.174,0,0,1,.027.1.212.212,0,0,1-.027.109.082.082,0,0,1-.073.045.079.079,0,0,1-.063-.032A.159.159,0,0,1,17.752,72.163Z"/><path class="cls-3" d="M17.527,72.884l.035-.007c.008.056.027.085.057.085a.052.052,0,0,0,.042-.026.123.123,0,0,0,0-.125.049.049,0,0,0-.041-.024.069.069,0,0,0-.025.006l0-.046h.006a.055.055,0,0,0,.043-.02.08.08,0,0,0,.016-.053.072.072,0,0,0-.014-.048.04.04,0,0,0-.033-.018.041.041,0,0,0-.035.019.128.128,0,0,0-.018.058l-.036-.009a.163.163,0,0,1,.031-.084.075.075,0,0,1,.057-.028.073.073,0,0,1,.06.032.129.129,0,0,1,.025.08.124.124,0,0,1-.011.052.084.084,0,0,1-.029.035.066.066,0,0,1,.029.02.121.121,0,0,1,.018.036.159.159,0,0,1,.007.05.155.155,0,0,1-.029.1.085.085,0,0,1-.069.038.08.08,0,0,1-.063-.033A.154.154,0,0,1,17.527,72.884Z"/><path class="cls-3" d="M17.866,73v-.1h-.125v-.049l.132-.279H17.9v.279h.04V72.9H17.9V73Zm0-.152v-.194l-.09.194Z"/><path class="cls-3" d="M18.358,72.063a.433.433,0,0,1,.024-.164c.017-.038.04-.056.071-.056a.073.073,0,0,1,.066.045.4.4,0,0,1,.029.175.436.436,0,0,1-.024.164.072.072,0,0,1-.139.006A.381.381,0,0,1,18.358,72.063Zm.037,0a.369.369,0,0,0,.017.141c.01.024.025.035.042.035s.03-.012.041-.036a.625.625,0,0,0,0-.281c-.011-.024-.026-.036-.043-.036s-.03.012-.041.037A.394.394,0,0,0,18.4,72.063Z"/><path class="cls-3" d="M18.7,72.276v-.1h-.126v-.049l.133-.279h.029v.279h.039v.049h-.039v.1Zm0-.152V71.93l-.091.194Z"/><path class="cls-3" d="M18.358,72.884l.036-.007c.007.056.026.085.056.085a.052.052,0,0,0,.043-.026.107.107,0,0,0,.017-.065.1.1,0,0,0-.016-.06.047.047,0,0,0-.04-.024.069.069,0,0,0-.025.006l0-.046h0a.054.054,0,0,0,.043-.02.08.08,0,0,0,.017-.053.078.078,0,0,0-.014-.048.042.042,0,0,0-.034-.018.04.04,0,0,0-.034.019.108.108,0,0,0-.018.058l-.036-.009a.163.163,0,0,1,.031-.084.072.072,0,0,1,.057-.028.076.076,0,0,1,.06.032.129.129,0,0,1,.024.08.124.124,0,0,1-.01.052.084.084,0,0,1-.029.035.063.063,0,0,1,.028.02.087.087,0,0,1,.018.036.159.159,0,0,1,.007.05.155.155,0,0,1-.028.1.085.085,0,0,1-.069.038.077.077,0,0,1-.063-.033A.162.162,0,0,1,18.358,72.884Z"/><path class="cls-3" d="M18.772,72.947V73H18.58a.154.154,0,0,1,.015-.069.381.381,0,0,1,.059-.091.487.487,0,0,0,.065-.093.139.139,0,0,0,.016-.062.085.085,0,0,0-.016-.054.05.05,0,0,0-.039-.02.048.048,0,0,0-.041.022.116.116,0,0,0-.016.064l-.036,0a.166.166,0,0,1,.028-.094.083.083,0,0,1,.066-.031.074.074,0,0,1,.067.036.148.148,0,0,1,.023.083.179.179,0,0,1-.018.079.591.591,0,0,1-.067.1c-.022.026-.035.045-.042.054a.2.2,0,0,0-.015.029Z"/><path class="cls-3" d="M19.19,72.063a.433.433,0,0,1,.024-.164.076.076,0,0,1,.071-.056.072.072,0,0,1,.065.045.386.386,0,0,1,.029.175.436.436,0,0,1-.024.164.072.072,0,0,1-.138.006A.381.381,0,0,1,19.19,72.063Zm.036,0a.39.39,0,0,0,.017.141c.011.024.025.035.043.035s.029-.012.04-.036a.589.589,0,0,0,0-.281c-.011-.024-.025-.036-.043-.036s-.029.012-.04.037A.387.387,0,0,0,19.226,72.063Z"/><path class="cls-3" d="M19.6,72.225v.051h-.192a.18.18,0,0,1,.016-.07.367.367,0,0,1,.059-.09.458.458,0,0,0,.065-.094.147.147,0,0,0,.015-.061.091.091,0,0,0-.015-.054.049.049,0,0,0-.039-.021.048.048,0,0,0-.041.023.106.106,0,0,0-.016.064l-.037,0a.166.166,0,0,1,.029-.094.081.081,0,0,1,.066-.031.075.075,0,0,1,.067.036.157.157,0,0,1,.023.083.179.179,0,0,1-.018.079.551.551,0,0,1-.068.1.636.636,0,0,0-.041.054.2.2,0,0,0-.015.029Z"/><path class="cls-3" d="M19.324,73h-.036v-.337a.32.32,0,0,1-.032.036.265.265,0,0,1-.039.028v-.052a.205.205,0,0,0,.052-.05.2.2,0,0,0,.032-.058h.023Z"/><path class="cls-3" d="M19.418,72.623v-.051h.188v.042a.69.69,0,0,0-.074.173A.821.821,0,0,0,19.5,73h-.036a.7.7,0,0,1,.014-.126.872.872,0,0,1,.036-.138.727.727,0,0,1,.051-.111Z"/><path class="cls-3" d="M19.19,73.606l.036-.007c.007.057.026.085.056.085a.053.053,0,0,0,.042-.025.111.111,0,0,0,.018-.065.1.1,0,0,0-.016-.061.05.05,0,0,0-.041-.023.074.074,0,0,0-.025.006l0-.047h.006a.054.054,0,0,0,.043-.02.077.077,0,0,0,.016-.052.083.083,0,0,0-.013-.049.043.043,0,0,0-.034-.018.042.042,0,0,0-.035.019.128.128,0,0,0-.018.058l-.035-.009a.148.148,0,0,1,.03-.083.071.071,0,0,1,.117,0,.123.123,0,0,1,.025.08.121.121,0,0,1-.011.052.086.086,0,0,1-.029.036.057.057,0,0,1,.029.019.121.121,0,0,1,.018.036.159.159,0,0,1,.007.05.155.155,0,0,1-.029.1.082.082,0,0,1-.068.038.08.08,0,0,1-.064-.033A.151.151,0,0,1,19.19,73.606Z"/><path class="cls-3" d="M19.6,73.669v.051h-.192a.172.172,0,0,1,.016-.069.352.352,0,0,1,.059-.091.487.487,0,0,0,.065-.093.152.152,0,0,0,.015-.062.086.086,0,0,0-.015-.053.049.049,0,0,0-.039-.021.047.047,0,0,0-.041.022.11.11,0,0,0-.016.065l-.037-.006a.165.165,0,0,1,.029-.093.081.081,0,0,1,.066-.032.074.074,0,0,1,.067.037.154.154,0,0,1,.023.083.178.178,0,0,1-.018.078.519.519,0,0,1-.068.1c-.021.027-.035.045-.041.054a.27.27,0,0,0-.015.029Z"/><path class="cls-3" d="M19.3,74.442v-.1h-.126v-.048l.133-.28h.029v.28h.039v.048H19.34v.1Zm0-.151V74.1l-.09.195Z"/><path class="cls-3" d="M19.471,74.208a.075.075,0,0,1-.033-.033.144.144,0,0,1,.013-.135.074.074,0,0,1,.06-.03.072.072,0,0,1,.06.031.13.13,0,0,1,.024.081.122.122,0,0,1-.011.053.078.078,0,0,1-.032.033.088.088,0,0,1,.04.041.148.148,0,0,1,.014.07.152.152,0,0,1-.027.094.082.082,0,0,1-.136,0,.155.155,0,0,1-.028-.095.147.147,0,0,1,.015-.071A.078.078,0,0,1,19.471,74.208Zm-.019.11a.113.113,0,0,0,.017.064.049.049,0,0,0,.084,0,.109.109,0,0,0,.017-.063.1.1,0,0,0-.018-.064.047.047,0,0,0-.083,0A.106.106,0,0,0,19.452,74.318Zm.012-.2a.076.076,0,0,0,.014.05.039.039,0,0,0,.033.019.04.04,0,0,0,.033-.018.076.076,0,0,0,.014-.048.087.087,0,0,0-.014-.05.038.038,0,0,0-.066,0A.071.071,0,0,0,19.464,74.119Z"/><path class="cls-3" d="M20.022,72.063a.433.433,0,0,1,.024-.164.076.076,0,0,1,.071-.056.073.073,0,0,1,.065.045.4.4,0,0,1,.029.175.436.436,0,0,1-.024.164.072.072,0,0,1-.139.006A.384.384,0,0,1,20.022,72.063Zm.036,0a.39.39,0,0,0,.017.141c.011.024.025.035.042.035s.03-.012.041-.036a.625.625,0,0,0,0-.281c-.011-.024-.026-.036-.043-.036s-.03.012-.041.037A.419.419,0,0,0,20.058,72.063Z"/><path class="cls-3" d="M20.361,72.276v-.1h-.125v-.049l.132-.279H20.4v.279h.039v.049H20.4v.1Zm0-.152V71.93l-.09.194Z"/><path class="cls-3" d="M20.209,72.947V73h-.191a.154.154,0,0,1,.015-.069.381.381,0,0,1,.059-.091.487.487,0,0,0,.065-.093.152.152,0,0,0,.015-.062.091.091,0,0,0-.015-.054.05.05,0,0,0-.039-.02.048.048,0,0,0-.041.022.108.108,0,0,0-.016.064l-.037,0a.174.174,0,0,1,.029-.094.083.083,0,0,1,.066-.031.074.074,0,0,1,.067.036.157.157,0,0,1,.023.083.179.179,0,0,1-.018.079.551.551,0,0,1-.068.1c-.021.026-.035.045-.041.054a.2.2,0,0,0-.015.029Z"/><path class="cls-3" d="M20.247,72.785a.433.433,0,0,1,.024-.164.078.078,0,0,1,.071-.056.071.071,0,0,1,.065.046.379.379,0,0,1,.029.174.433.433,0,0,1-.024.164.072.072,0,0,1-.138.007A.386.386,0,0,1,20.247,72.785Zm.037,0a.4.4,0,0,0,.016.141c.011.024.025.036.043.036s.029-.013.04-.037a.384.384,0,0,0,.017-.14.39.39,0,0,0-.017-.141c-.011-.024-.025-.035-.043-.035s-.029.012-.04.036A.394.394,0,0,0,20.284,72.785Z"/><path class="cls-3" d="M20.036,73.363a.086.086,0,0,1,.02-.057.059.059,0,0,1,.095,0,.085.085,0,0,1,.019.057.088.088,0,0,1-.019.058.059.059,0,0,1-.095,0A.089.089,0,0,1,20.036,73.363Zm.027,0a.051.051,0,0,0,.012.035.035.035,0,0,0,.028.015.035.035,0,0,0,.029-.015.051.051,0,0,0,.012-.035.053.053,0,0,0-.012-.035.034.034,0,0,0-.029-.014.034.034,0,0,0-.028.014A.053.053,0,0,0,20.063,73.363Z"/><path class="cls-3" d="M20.219,73.606l.036-.007c.007.057.026.085.056.085a.052.052,0,0,0,.042-.025.111.111,0,0,0,.018-.065.1.1,0,0,0-.016-.061.049.049,0,0,0-.04-.023.069.069,0,0,0-.025.006l0-.047h0a.054.054,0,0,0,.043-.02.077.077,0,0,0,.017-.052.084.084,0,0,0-.014-.049.041.041,0,0,0-.069,0,.128.128,0,0,0-.018.058l-.035-.009a.156.156,0,0,1,.03-.083.071.071,0,0,1,.117,0,.123.123,0,0,1,.025.08.121.121,0,0,1-.01.052.088.088,0,0,1-.03.036.053.053,0,0,1,.029.019.087.087,0,0,1,.018.036.159.159,0,0,1,.007.05.155.155,0,0,1-.028.1.085.085,0,0,1-.069.038.077.077,0,0,1-.063-.033A.159.159,0,0,1,20.219,73.606Z"/><path class="cls-3" d="M20.629,73.394l-.035,0a.108.108,0,0,0-.015-.047.042.042,0,0,0-.034-.02c-.021,0-.038.016-.05.047a.336.336,0,0,0-.016.12.1.1,0,0,1,.031-.043.059.059,0,0,1,.039-.014.071.071,0,0,1,.06.038.178.178,0,0,1,.026.1.247.247,0,0,1-.013.079.137.137,0,0,1-.033.052.071.071,0,0,1-.045.016.083.083,0,0,1-.072-.048.331.331,0,0,1-.029-.161.4.4,0,0,1,.029-.178.088.088,0,0,1,.075-.053.07.07,0,0,1,.055.028A.142.142,0,0,1,20.629,73.394Zm-.145.186a.136.136,0,0,0,.018.075.051.051,0,0,0,.042.029.047.047,0,0,0,.038-.027.139.139,0,0,0,.016-.073.127.127,0,0,0-.016-.071.048.048,0,0,0-.04-.026.052.052,0,0,0-.041.025A.124.124,0,0,0,20.484,73.58Z"/><path class="cls-3" d="M20.022,74.329l.037,0a.129.129,0,0,0,.02.062.045.045,0,0,0,.035.02.054.054,0,0,0,.044-.028.145.145,0,0,0,.018-.078.126.126,0,0,0-.017-.071.052.052,0,0,0-.045-.026.043.043,0,0,0-.03.011.065.065,0,0,0-.022.031l-.034-.007.028-.221H20.2v.05h-.116l-.015.116a.075.075,0,0,1,.055-.027.078.078,0,0,1,.063.038.171.171,0,0,1,.027.1.206.206,0,0,1-.027.108.08.08,0,0,1-.072.045.081.081,0,0,1-.064-.031A.155.155,0,0,1,20.022,74.329Z"/><path class="cls-3" d="M20.432,74.116l-.036,0a.1.1,0,0,0-.015-.047.04.04,0,0,0-.034-.021c-.021,0-.037.016-.05.047a.36.36,0,0,0-.016.12.1.1,0,0,1,.031-.043.064.064,0,0,1,.039-.014.071.071,0,0,1,.06.038.17.17,0,0,1,.026.1.222.222,0,0,1-.013.079.111.111,0,0,1-.033.052.069.069,0,0,1-.045.016.083.083,0,0,1-.072-.048.329.329,0,0,1-.029-.16.382.382,0,0,1,.03-.178.083.083,0,0,1,.074-.053.071.071,0,0,1,.056.027A.142.142,0,0,1,20.432,74.116Zm-.146.186a.132.132,0,0,0,.019.076.052.052,0,0,0,.042.028c.014,0,.026-.009.037-.027a.138.138,0,0,0,.017-.073.128.128,0,0,0-.017-.071.048.048,0,0,0-.04-.026.05.05,0,0,0-.04.025A.116.116,0,0,0,20.286,74.3Z"/><path class="cls-3" d="M21.685,72.063a.433.433,0,0,1,.024-.164.076.076,0,0,1,.071-.056.073.073,0,0,1,.065.045.4.4,0,0,1,.029.175.436.436,0,0,1-.024.164.077.077,0,0,1-.071.056.08.08,0,0,1-.068-.05A.4.4,0,0,1,21.685,72.063Zm.036,0a.39.39,0,0,0,.017.141c.011.024.025.035.042.035s.03-.012.041-.036a.589.589,0,0,0,0-.281c-.011-.024-.025-.036-.043-.036s-.029.012-.04.037A.387.387,0,0,0,21.721,72.063Z"/><path class="cls-3" d="M21.91,72.163l.038,0a.125.125,0,0,0,.019.061.044.044,0,0,0,.036.02.053.053,0,0,0,.044-.028.144.144,0,0,0,.018-.077.124.124,0,0,0-.018-.072A.052.052,0,0,0,22,72.036a.048.048,0,0,0-.03.011.081.081,0,0,0-.023.031l-.033-.006.028-.222h.144V71.9h-.116l-.015.116a.074.074,0,0,1,.054-.027.077.077,0,0,1,.064.037.174.174,0,0,1,.027.1.212.212,0,0,1-.027.109.081.081,0,0,1-.072.045.079.079,0,0,1-.064-.032A.159.159,0,0,1,21.91,72.163Z"/><path class="cls-3" d="M21.873,72.947V73h-.192a.154.154,0,0,1,.015-.069.381.381,0,0,1,.059-.091.487.487,0,0,0,.065-.093.139.139,0,0,0,.016-.062.085.085,0,0,0-.016-.054.05.05,0,0,0-.039-.02.048.048,0,0,0-.041.022.116.116,0,0,0-.016.064l-.037,0a.174.174,0,0,1,.029-.094.083.083,0,0,1,.066-.031.074.074,0,0,1,.067.036.148.148,0,0,1,.023.083.179.179,0,0,1-.018.079.551.551,0,0,1-.068.1c-.021.026-.034.045-.041.054a.2.2,0,0,0-.015.029Z"/><path class="cls-3" d="M22.045,73h-.036v-.337a.258.258,0,0,1-.033.036.329.329,0,0,1-.038.028v-.052a.223.223,0,0,0,.052-.05.194.194,0,0,0,.031-.058h.024Z"/><path class="cls-3" d="M21.685,73.606l.035-.007c.008.057.027.085.057.085a.053.053,0,0,0,.042-.025.111.111,0,0,0,.018-.065.108.108,0,0,0-.016-.061.05.05,0,0,0-.041-.023.069.069,0,0,0-.025.006l0-.047h.006a.055.055,0,0,0,.043-.02.093.093,0,0,0,0-.1.04.04,0,0,0-.033-.018.041.041,0,0,0-.035.019.128.128,0,0,0-.018.058l-.035-.009a.148.148,0,0,1,.03-.083.071.071,0,0,1,.117,0,.129.129,0,0,1,.025.08.121.121,0,0,1-.011.052.094.094,0,0,1-.029.036.057.057,0,0,1,.029.019.121.121,0,0,1,.018.036.159.159,0,0,1,.007.05.155.155,0,0,1-.029.1.082.082,0,0,1-.069.038.08.08,0,0,1-.063-.033A.151.151,0,0,1,21.685,73.606Z"/><path class="cls-3" d="M21.913,73.345V73.3H22.1v.041a.729.729,0,0,0-.074.173.872.872,0,0,0-.036.211h-.037A.878.878,0,0,1,22,73.457a.7.7,0,0,1,.05-.112Z"/><path class="cls-3" d="M21.685,74.329l.037,0a.129.129,0,0,0,.02.062.045.045,0,0,0,.036.02.054.054,0,0,0,.043-.028.145.145,0,0,0,.019-.078.118.118,0,0,0-.018-.071.052.052,0,0,0-.045-.026.045.045,0,0,0-.03.011.073.073,0,0,0-.022.031l-.034-.007.028-.221h.145v.05h-.116l-.016.116a.076.076,0,0,1,.055-.027.078.078,0,0,1,.063.038.171.171,0,0,1,.027.1.206.206,0,0,1-.027.108.08.08,0,0,1-.072.045.081.081,0,0,1-.064-.031A.155.155,0,0,1,21.685,74.329Z"/><path class="cls-3" d="M21.91,74.328l.036-.007c.007.057.026.085.056.085a.052.052,0,0,0,.043-.025.118.118,0,0,0,.017-.065.1.1,0,0,0-.016-.061.049.049,0,0,0-.04-.023.069.069,0,0,0-.025.006l0-.046h0a.051.051,0,0,0,.043-.02.077.077,0,0,0,.017-.052.084.084,0,0,0-.014-.049.041.041,0,0,0-.069,0,.133.133,0,0,0-.018.059l-.035-.01a.159.159,0,0,1,.03-.083.073.073,0,0,1,.117,0,.125.125,0,0,1,.025.08.121.121,0,0,1-.01.052.088.088,0,0,1-.03.036.059.059,0,0,1,.029.019.087.087,0,0,1,.018.036.161.161,0,0,1,.007.051.157.157,0,0,1-.028.1.087.087,0,0,1-.069.037.077.077,0,0,1-.063-.033A.159.159,0,0,1,21.91,74.328Z"/><path class="cls-3" d="M10.935,72.161l.035-.007c.008.057.026.085.057.085a.051.051,0,0,0,.042-.025.109.109,0,0,0,.018-.065.1.1,0,0,0-.017-.061.049.049,0,0,0-.04-.023.069.069,0,0,0-.025.006l0-.046h.006a.054.054,0,0,0,.043-.019.086.086,0,0,0,.016-.053.078.078,0,0,0-.014-.048.041.041,0,0,0-.033-.019.042.042,0,0,0-.035.02.108.108,0,0,0-.018.058l-.036-.009a.163.163,0,0,1,.031-.084.072.072,0,0,1,.057-.028.076.076,0,0,1,.06.032.143.143,0,0,1,.014.132.091.091,0,0,1-.029.035.07.07,0,0,1,.028.019.1.1,0,0,1,.019.036.209.209,0,0,1,.007.051.155.155,0,0,1-.029.1.085.085,0,0,1-.069.038.077.077,0,0,1-.063-.033A.157.157,0,0,1,10.935,72.161Z"/><path class="cls-3" d="M11.348,72.225v.051h-.192a.2.2,0,0,1,.015-.07.437.437,0,0,1,.059-.09.519.519,0,0,0,.066-.094.147.147,0,0,0,.015-.061.085.085,0,0,0-.016-.054.046.046,0,0,0-.039-.021.05.05,0,0,0-.041.023.114.114,0,0,0-.015.064l-.037,0a.159.159,0,0,1,.029-.094.077.077,0,0,1,.065-.031.076.076,0,0,1,.068.036.157.157,0,0,1,.023.083.179.179,0,0,1-.018.079.609.609,0,0,1-.068.1.636.636,0,0,0-.041.054.1.1,0,0,0-.015.029Z"/><path class="cls-3" d="M22.724,72.063a.433.433,0,0,1,.024-.164.076.076,0,0,1,.071-.056.073.073,0,0,1,.066.045.4.4,0,0,1,.029.175.436.436,0,0,1-.024.164.072.072,0,0,1-.139.006A.381.381,0,0,1,22.724,72.063Zm.037,0a.4.4,0,0,0,.016.141c.011.024.026.035.043.035s.03-.012.041-.036a.625.625,0,0,0,0-.281c-.011-.024-.026-.036-.043-.036s-.03.012-.041.037A.394.394,0,0,0,22.761,72.063Z"/><path class="cls-3" d="M22.95,72.163l.037,0a.125.125,0,0,0,.02.061.042.042,0,0,0,.036.02.051.051,0,0,0,.043-.028.144.144,0,0,0,.019-.077.124.124,0,0,0-.018-.072.054.054,0,0,0-.045-.026.05.05,0,0,0-.03.011.079.079,0,0,0-.022.031l-.034-.006.028-.222h.144V71.9h-.115L23,72.017a.071.071,0,0,1,.118.01.174.174,0,0,1,.027.1.212.212,0,0,1-.027.109.08.08,0,0,1-.136.013A.151.151,0,0,1,22.95,72.163Z"/><path class="cls-3" d="M22.724,72.884l.036-.007c.007.056.026.085.056.085a.053.053,0,0,0,.043-.026.107.107,0,0,0,.017-.065.1.1,0,0,0-.016-.06.047.047,0,0,0-.04-.024.069.069,0,0,0-.025.006l0-.046h0a.054.054,0,0,0,.043-.02.08.08,0,0,0,.017-.053.078.078,0,0,0-.014-.048.042.042,0,0,0-.034-.018.04.04,0,0,0-.034.019.108.108,0,0,0-.018.058l-.036-.009a.163.163,0,0,1,.03-.084.073.073,0,0,1,.118,0,.129.129,0,0,1,.024.08.124.124,0,0,1-.01.052.079.079,0,0,1-.03.035.061.061,0,0,1,.029.02.087.087,0,0,1,.018.036.159.159,0,0,1,.007.05.155.155,0,0,1-.028.1.086.086,0,0,1-.069.038.077.077,0,0,1-.063-.033A.162.162,0,0,1,22.724,72.884Z"/><path class="cls-3" d="M22.95,72.885l.037-.005a.129.129,0,0,0,.02.062.045.045,0,0,0,.036.02.053.053,0,0,0,.043-.029.141.141,0,0,0,.019-.077.124.124,0,0,0-.018-.072.054.054,0,0,0-.045-.026.046.046,0,0,0-.03.012.069.069,0,0,0-.022.03l-.034-.006.028-.222h.144v.051h-.115L23,72.739a.076.076,0,0,1,.055-.027.075.075,0,0,1,.063.038.171.171,0,0,1,.027.1.206.206,0,0,1-.027.108.08.08,0,0,1-.136.013A.151.151,0,0,1,22.95,72.885Z"/><path class="cls-3" d="M23.556,72.063a.433.433,0,0,1,.024-.164.076.076,0,0,1,.071-.056.073.073,0,0,1,.065.045.386.386,0,0,1,.029.175.436.436,0,0,1-.024.164.077.077,0,0,1-.071.056.08.08,0,0,1-.068-.05A.4.4,0,0,1,23.556,72.063Zm.036,0a.39.39,0,0,0,.017.141c.011.024.025.035.042.035s.03-.012.041-.036a.589.589,0,0,0,0-.281c-.011-.024-.025-.036-.043-.036s-.029.012-.04.037A.387.387,0,0,0,23.592,72.063Z"/><path class="cls-3" d="M23.784,71.9V71.85h.187v.041a.708.708,0,0,0-.073.173.836.836,0,0,0-.037.212h-.037a.943.943,0,0,1,.014-.127.983.983,0,0,1,.037-.137.727.727,0,0,1,.051-.111Z"/><path class="cls-3" d="M23.556,72.884l.035-.007c.008.056.027.085.057.085a.052.052,0,0,0,.042-.026.107.107,0,0,0,.018-.065.1.1,0,0,0-.016-.06.049.049,0,0,0-.041-.024.074.074,0,0,0-.025.006l0-.046h.006a.054.054,0,0,0,.043-.02.08.08,0,0,0,.016-.053.072.072,0,0,0-.014-.048.04.04,0,0,0-.033-.018.042.042,0,0,0-.035.019.128.128,0,0,0-.018.058l-.035-.009a.154.154,0,0,1,.03-.084.075.075,0,0,1,.057-.028.073.073,0,0,1,.06.032.136.136,0,0,1,.014.132.077.077,0,0,1-.029.035.066.066,0,0,1,.029.02.121.121,0,0,1,.018.036.159.159,0,0,1,.007.05.155.155,0,0,1-.029.1.085.085,0,0,1-.069.038.08.08,0,0,1-.063-.033A.154.154,0,0,1,23.556,72.884Z"/><path class="cls-3" d="M23.966,72.672l-.035,0a.135.135,0,0,0-.015-.047.043.043,0,0,0-.034-.02c-.021,0-.038.015-.05.047a.332.332,0,0,0-.017.12.111.111,0,0,1,.031-.043.064.064,0,0,1,.039-.015.073.073,0,0,1,.061.038.184.184,0,0,1,.025.1.213.213,0,0,1-.013.078.106.106,0,0,1-.033.052.067.067,0,0,1-.044.017.083.083,0,0,1-.073-.048.335.335,0,0,1-.028-.161.387.387,0,0,1,.029-.178.085.085,0,0,1,.075-.053.069.069,0,0,1,.055.027A.146.146,0,0,1,23.966,72.672Zm-.145.186a.139.139,0,0,0,.018.075.051.051,0,0,0,.042.029c.014,0,.026-.009.037-.027a.142.142,0,0,0,.017-.074.131.131,0,0,0-.016-.071.048.048,0,0,0-.041-.025.049.049,0,0,0-.04.025A.124.124,0,0,0,23.821,72.858Z"/><path class="cls-3" d="M24.388,72.063a.433.433,0,0,1,.024-.164.075.075,0,0,1,.07-.056.073.073,0,0,1,.066.045.4.4,0,0,1,.029.175.436.436,0,0,1-.024.164.072.072,0,0,1-.139.006A.384.384,0,0,1,24.388,72.063Zm.036,0a.39.39,0,0,0,.017.141c.011.024.025.035.042.035s.03-.012.041-.036a.625.625,0,0,0,0-.281c-.011-.024-.026-.036-.043-.036s-.03.012-.041.037A.394.394,0,0,0,24.424,72.063Z"/><path class="cls-3" d="M24.613,72.163l.037,0a.125.125,0,0,0,.02.061.042.042,0,0,0,.036.02.05.05,0,0,0,.043-.028.135.135,0,0,0,.019-.077.124.124,0,0,0-.018-.072.05.05,0,0,0-.075-.015.079.079,0,0,0-.022.031l-.034-.006.029-.222h.144V71.9h-.116l-.016.116a.072.072,0,0,1,.119.01.181.181,0,0,1,.026.1.222.222,0,0,1-.026.109.083.083,0,0,1-.073.045.079.079,0,0,1-.063-.032A.145.145,0,0,1,24.613,72.163Z"/><path class="cls-3" d="M24.388,72.884l.035-.007c.008.056.026.085.056.085a.052.052,0,0,0,.043-.026.107.107,0,0,0,.018-.065.1.1,0,0,0-.017-.06.047.047,0,0,0-.04-.024.069.069,0,0,0-.025.006l0-.046h.006a.053.053,0,0,0,.042-.02.08.08,0,0,0,.017-.053.078.078,0,0,0-.014-.048.041.041,0,0,0-.068,0,.108.108,0,0,0-.018.058l-.036-.009a.163.163,0,0,1,.031-.084.073.073,0,0,1,.057-.028.076.076,0,0,1,.06.032.129.129,0,0,1,.024.08.124.124,0,0,1-.01.052.084.084,0,0,1-.029.035.063.063,0,0,1,.028.02.1.1,0,0,1,.019.036.2.2,0,0,1,.007.05.155.155,0,0,1-.029.1.085.085,0,0,1-.069.038.077.077,0,0,1-.063-.033A.154.154,0,0,1,24.388,72.884Z"/><path class="cls-3" d="M24.727,73v-.1H24.6v-.049l.133-.279h.029v.279H24.8V72.9h-.039V73Zm0-.152v-.194l-.09.194Z"/><path class="cls-3" d="M25.115,72.161l.036-.007c.007.057.026.085.056.085a.051.051,0,0,0,.042-.025.109.109,0,0,0,.018-.065.1.1,0,0,0-.016-.061.05.05,0,0,0-.04-.023.078.078,0,0,0-.026.006l.005-.046h0a.053.053,0,0,0,.043-.019.08.08,0,0,0,.017-.053.078.078,0,0,0-.014-.048.04.04,0,0,0-.069,0,.128.128,0,0,0-.018.058l-.035-.009a.163.163,0,0,1,.03-.084.072.072,0,0,1,.057-.028.073.073,0,0,1,.06.032.122.122,0,0,1,.025.08.146.146,0,0,1-.01.052.085.085,0,0,1-.03.035.073.073,0,0,1,.029.019.1.1,0,0,1,.018.036.17.17,0,0,1,.007.051.155.155,0,0,1-.028.1.088.088,0,0,1-.069.038.077.077,0,0,1-.063-.033A.165.165,0,0,1,25.115,72.161Z"/><path class="cls-3" d="M25.528,72.225v.051h-.191a.161.161,0,0,1,.015-.07.4.4,0,0,1,.059-.09.458.458,0,0,0,.065-.094.15.15,0,0,0,.016-.061.091.091,0,0,0-.016-.054.047.047,0,0,0-.08,0,.106.106,0,0,0-.016.064l-.037,0a.174.174,0,0,1,.029-.094.081.081,0,0,1,.066-.031.074.074,0,0,1,.067.036.157.157,0,0,1,.023.083.179.179,0,0,1-.018.079.551.551,0,0,1-.068.1.636.636,0,0,0-.041.054.2.2,0,0,0-.015.029Z"/><path class="cls-3" d="M21.091,72.372h-.035v-.337a.339.339,0,0,1-.033.036.329.329,0,0,1-.038.028v-.052a.219.219,0,0,0,.051-.05.178.178,0,0,0,.032-.058h.023Z"/><path class="cls-3" d="M21.37,72.321v.051h-.191a.154.154,0,0,1,.015-.069.381.381,0,0,1,.059-.091.487.487,0,0,0,.065-.093.154.154,0,0,0,.016-.062A.091.091,0,0,0,21.318,72a.05.05,0,0,0-.039-.02.048.048,0,0,0-.041.022.108.108,0,0,0-.016.064l-.037-.005a.174.174,0,0,1,.029-.094.083.083,0,0,1,.066-.031.072.072,0,0,1,.067.037.151.151,0,0,1,.023.082.179.179,0,0,1-.018.079.551.551,0,0,1-.068.1c-.021.027-.035.045-.041.054a.2.2,0,0,0-.015.029Z"/><path class="cls-3" d="M21.071,73.094v-.1h-.125v-.049l.132-.279h.029v.279h.04v.049h-.04v.1Zm0-.152v-.194l-.09.194Z"/><path class="cls-3" d="M21.183,72.881a.433.433,0,0,1,.024-.164.077.077,0,0,1,.071-.056.074.074,0,0,1,.065.046.393.393,0,0,1,.029.174.433.433,0,0,1-.024.164.076.076,0,0,1-.071.056.077.077,0,0,1-.068-.049A.389.389,0,0,1,21.183,72.881Zm.036,0a.39.39,0,0,0,.017.141q.016.036.042.036c.016,0,.03-.012.041-.036a.629.629,0,0,0,0-.282c-.011-.023-.025-.035-.043-.035s-.03.012-.041.036A.419.419,0,0,0,21.219,72.881Z"/><path class="cls-3" d="M20.957,73.7,21,73.7a.12.12,0,0,0,.019.062.045.045,0,0,0,.036.02.055.055,0,0,0,.044-.028.145.145,0,0,0,.018-.078.118.118,0,0,0-.018-.071.05.05,0,0,0-.044-.026.053.053,0,0,0-.031.011.082.082,0,0,0-.022.031l-.034-.007.029-.221h.144v.05H21.02l-.015.116a.074.074,0,0,1,.054-.027.078.078,0,0,1,.064.038.171.171,0,0,1,.027.1.206.206,0,0,1-.027.108.081.081,0,0,1-.073.046.079.079,0,0,1-.063-.032A.155.155,0,0,1,20.957,73.7Z"/><path class="cls-3" d="M21.185,73.442v-.051h.188v.041a.69.69,0,0,0-.074.173.874.874,0,0,0-.037.211h-.036a.7.7,0,0,1,.014-.126.947.947,0,0,1,.036-.137.647.647,0,0,1,.051-.111Z"/><path class="cls-3" d="M25.947,72.159A.433.433,0,0,1,25.971,72a.077.077,0,0,1,.071-.056.072.072,0,0,1,.065.046.393.393,0,0,1,.029.174.433.433,0,0,1-.024.164.077.077,0,0,1-.071.056.078.078,0,0,1-.068-.049A.4.4,0,0,1,25.947,72.159Zm.036,0A.39.39,0,0,0,26,72.3q.017.036.042.036c.017,0,.03-.013.041-.036a.593.593,0,0,0,0-.282c-.011-.024-.025-.035-.043-.035s-.03.012-.04.036A.387.387,0,0,0,25.983,72.159Z"/><path class="cls-3" d="M26.175,72v-.051h.187v.042a.729.729,0,0,0-.074.173.864.864,0,0,0-.036.211h-.037a.947.947,0,0,1,.014-.126,1,1,0,0,1,.037-.138.73.73,0,0,1,.05-.111Z"/><path class="cls-3" d="M25.947,72.98l.035-.007c.008.057.027.085.057.085a.053.053,0,0,0,.042-.025.111.111,0,0,0,.018-.065.108.108,0,0,0-.016-.061.05.05,0,0,0-.041-.023.069.069,0,0,0-.025.006l0-.047h.006a.055.055,0,0,0,.043-.02.093.093,0,0,0,0-.1.04.04,0,0,0-.033-.018.041.041,0,0,0-.035.019.128.128,0,0,0-.018.058l-.036-.009a.155.155,0,0,1,.031-.083.071.071,0,0,1,.117,0,.129.129,0,0,1,.025.08.121.121,0,0,1-.011.052.094.094,0,0,1-.029.036.064.064,0,0,1,.029.019.121.121,0,0,1,.018.036.159.159,0,0,1,.007.05.155.155,0,0,1-.029.1.082.082,0,0,1-.069.038.08.08,0,0,1-.063-.033A.151.151,0,0,1,25.947,72.98Z"/><path class="cls-3" d="M26.357,72.768l-.035,0a.142.142,0,0,0-.015-.048.043.043,0,0,0-.035-.02c-.02,0-.037.016-.049.047a.332.332,0,0,0-.017.12.111.111,0,0,1,.031-.043.06.06,0,0,1,.039-.014.074.074,0,0,1,.061.038.178.178,0,0,1,.025.1.222.222,0,0,1-.013.079.117.117,0,0,1-.033.052.066.066,0,0,1-.044.016.083.083,0,0,1-.073-.048.333.333,0,0,1-.028-.161.39.39,0,0,1,.029-.178.085.085,0,0,1,.075-.053.07.07,0,0,1,.055.028A.142.142,0,0,1,26.357,72.768Zm-.145.186a.136.136,0,0,0,.018.075.051.051,0,0,0,.042.029c.014,0,.026-.009.037-.027a.138.138,0,0,0,.017-.073.126.126,0,0,0-.017-.071.048.048,0,0,0-.04-.026.05.05,0,0,0-.04.025A.116.116,0,0,0,26.212,72.954Z"/><polygon class="cls-14" points="35.084 92.044 129.587 92.044 154.072 114.781 48.261 115.357 35.084 92.044"/><rect class="cls-15" x="52.653" y="59.948" width="3.548" height="51.355"/><rect class="cls-15" x="38.463" y="42.379" width="3.548" height="51.355"/><rect class="cls-15" x="143.847" y="59.948" width="3.548" height="51.355"/><rect class="cls-15" x="124.843" y="44.153" width="3.548" height="51.355"/><polygon class="cls-16" points="38.97 58.765 52.484 73.631 52.653 100.829 38.294 82.753 38.97 58.765"/><polygon class="cls-16" points="127.281 61.553 143.657 76.418 143.862 103.616 126.462 85.541 127.281 61.553"/><path class="cls-17" d="M38.125,42.21,50.457,60.117a8.322,8.322,0,0,0,5.068,2.027c2.872,0,88.759,1.182,88.759,1.182s5.237,1.352,4.054-1.858-20.525-18.5-20.525-18.5l-88.5-.591"/><rect class="cls-18" x="99.584" y="79.397" width="4.174" height="12.944"/><rect class="cls-18" x="67.15" y="79.968" width="4.174" height="11.614"/><rect class="cls-15" x="73.853" y="97.001" width="2.732" height="13.033"/><rect class="cls-15" x="67.487" y="92.235" width="2.732" height="13.033"/><rect class="cls-15" x="116.778" y="97.001" width="2.732" height="13.033"/><rect class="cls-15" x="104.142" y="94.506" width="2.732" height="10.762"/><rect class="cls-18" x="63.725" y="82.502" width="43.211" height="3.928"/><rect class="cls-18" x="63.725" y="77.434" width="43.211" height="3.928"/><ellipse class="cls-13" cx="68.853" cy="79.397" rx="0.855" ry="0.887"/><ellipse class="cls-13" cx="69.237" cy="84.465" rx="0.855" ry="0.887"/><ellipse class="cls-13" cx="101.48" cy="79.397" rx="0.855" ry="0.887"/><ellipse class="cls-13" cx="101.863" cy="84.465" rx="0.855" ry="0.887"/><polygon class="cls-18" points="65.052 90.61 105.785 90.702 122.164 95.599 71.878 96.058 65.052 90.61"/><polygon class="cls-19" points="71.878 96.058 71.878 98.402 122.164 97.515 122.164 95.599 71.878 95.599 71.878 96.058"/><polygon class="cls-19" points="64.419 90.61 64.735 93.461 71.878 98.402 71.878 95.599 65.052 90.61 64.419 90.61"/><path class="cls-13" d="M69.708,93.461l1.767-.058,4.656-.141,6.584-.127,7.548-.084,7.549-.009,6.585.046c3.855.052,6.425.119,6.425.119s-2.569.1-6.423.2l-6.584.127-7.548.083-7.549.009-6.585-.046L71.475,93.5Z"/></svg>