<svg id="word" xmlns="http://www.w3.org/2000/svg" xmlns:xlink="http://www.w3.org/1999/xlink" viewBox="0 0 160 160"><defs><style>.cls-1{fill:#c4d9f1;}.cls-2{fill:#eed0c1;}.cls-10,.cls-11,.cls-12,.cls-13,.cls-14,.cls-15,.cls-2,.cls-3,.cls-4,.cls-5,.cls-6,.cls-7,.cls-9{stroke:#9c4c9c;stroke-width:0.567px;}.cls-3{fill:#c0b399;}.cls-10,.cls-3,.cls-5{stroke-linecap:round;}.cls-4{fill:#b1d135;}.cls-5{fill:#fdeaa4;}.cls-15,.cls-6,.cls-8{fill:#fff;}.cls-7{fill:#28aae1;}.cls-9{fill:#fde79c;}.cls-10{fill:none;}.cls-11{fill:#fcf06f;}.cls-12{fill:#ea4896;}.cls-13{fill:#42c5f1;}.cls-14{fill:url(#linear-gradient);}.cls-15{stroke-miterlimit:10;}.cls-16{fill:#9c4c9c;}</style><linearGradient id="linear-gradient" x1="-9509.299" y1="-445.93" x2="-9496.348" y2="-445.93" gradientTransform="matrix(-1.056, 0.118, 0.111, 0.994, -9921.937, 1619.174)" gradientUnits="userSpaceOnUse"><stop offset="0" stop-color="#882a21"/><stop offset="1" stop-color="#d24d57" stop-opacity="0"/></linearGradient></defs><rect class="cls-1" x="14" y="14" width="132" height="132"/><path class="cls-2" d="M59.683,63.889s1.167,5.834,4.667,6.5,7.166,1,7.166.334-.333-8-.333-8Z"/><path class="cls-3" d="M67.57,113.854a12.309,12.309,0,0,1-2.387,4.772c-1.589,1.591-6.76,7.557-6.76,7.557s-5.667-1.194-6.364-2.785-1.191-2.186-.1-3.678,4.97-6.86,4.97-6.86Z"/><path class="cls-3" d="M86.262,110.076a56.172,56.172,0,0,1,.695,6.661c.1,3.182-2.088,8.352-2.088,8.352l-8.649,1.094-3.082-1a22.6,22.6,0,0,1,2.783-3.976c1.492-1.591,1.79-1.2.895-4.077a26.249,26.249,0,0,1-.993-6.065Z"/><path class="cls-4" d="M79.7,65.434a60.386,60.386,0,0,0,9.545-2.982c3.378-1.592,9.544-.995,9.544-.995s2.584,1.393,1.589,5.171S99.983,70.8,96.8,71.2s-14.515,3.182-13.721,5.569S85.466,84.922,90.04,88.7s4.574,8.948,7.954,9.346,4.175,5.17-.8,8.55a32.326,32.326,0,0,1-18.492,5.568c-7.357,0-7.955,2.387-15.51,2.187s-11.532-.2-10.54-2.982,2.386.8,2.386-3.977,1.2-12.925.8-15.709,1.589-9.148.794-12.13-5.368-5.37-.794-6.165S79.7,65.434,79.7,65.434Z"/><path class="cls-5" d="M67.371,75.526a19.116,19.116,0,0,0,1-3.033c.4-1.689.2-1.391-.8-3.181s.7-1.491,2.385-2.684.6-2.883,2.487-3.877,2.933-2.089,4.324-2.287S79.4,57.637,79.3,58.326c-.547,3.977,6.166,1.591,2.189,8.749-.658,1.183-2.29.348-3.084.348s.6,1.095.2,3.381-1.59-.2-2.187.5.7,1.492-.8,3.381-1.391.8-2.088,1.591-4.225.3-4.225.3Z"/><path class="cls-4" d="M57.23,82.237c0,2.287-.895,3.977.2,4.275s1.394.7,2.587,2.087,3.677,1,2.185,2.786a37.05,37.05,0,0,0-4.273,6.263c-.6,1.391-2.687,2.088-4.276.2s-4.872-4.872-5.767-6.264-1.193-5.169,0-9.246,3.578-8.749,6.96-7.457S57.23,82.237,57.23,82.237Z"/><path class="cls-6" d="M120.62,53.319a4.061,4.061,0,0,1,2.039-.681c1.067,0,3.3-.113,3.689.681A14.445,14.445,0,0,1,127.8,57.18c.1,1.135,2.137,2.668.972,4.71s-2.425,4.373-6.02,4.145-5.145-.115-6.407-2.953-1.748-5.222.095-6.811A32.692,32.692,0,0,1,120.62,53.319Z"/><path class="cls-7" d="M102.668,61.059s5.865-.595,8.251.2,6.364,3.579,3.777,5.07-3.579-.5-4.075,1.193,1.589,2.586.3,2.685a8.383,8.383,0,0,1-3.878-.6c-1.093-.5-2.486-.7-2.784-1.891S101.374,62.452,102.668,61.059Z"/><path class="cls-5" d="M98.391,59.867s2.685-.994,3.778-.5,2.882.1,2.487,2.385-.3,2.585.4,4.077a6.967,6.967,0,0,1-.8,5.568c-.8.795-3.975.3-3.975.3a3.409,3.409,0,0,1-2.387.1c-.895-.5-.5-2.485-.995-4.772s-1.789-5.169-1.192-5.766A11.48,11.48,0,0,1,98.391,59.867Z"/><path class="cls-7" d="M64.687,91.881s1.69-.6,2.584-1,2.684-.3,1.592,1.095-3.083,1.492-1.79,2.783,2.785,3.48,3.479,3.182,2.066.671.474,2.859-3.256,2.809-6.439,2.311-6.66-2.783-6.264-3.678S64.687,91.881,64.687,91.881Z"/><path class="cls-5" d="M69.608,76.57s.25-.4-1.044-1.193.092-.92.9-2.238c1.641-2.683-.9-3.927-2.188-4.026s-2.484.5-2.386-.4-.7-1.492-1.689-1.592-2.387-3.281-2.883-1.292-2.09-2.783-5.469-2.287-3.382,2.088-3.382,2.088-.6-.5-2.088.6.5,1.095-.595,1.591-3.58.5-3.778,2.286,1.291,1.393.9,2.188-1.99,1.093-.9,2.485,1,1.592,1.988.8.8,2.287,1.492,1.491,1.292-1.193,1.59-1.193-1.193,1.89,1.593.3,2.979-3.381,2.882-2.187a2.666,2.666,0,0,0,1.242,2.066,1.475,1.475,0,0,0,2.038-.177c1.391-1.492,1.194-.6,2.286-.4S61.7,76.57,63.2,77.166,69.012,77.664,69.608,76.57Z"/><path class="cls-5" d="M60.411,89.2a3.213,3.213,0,0,1,2.982.1c1.492.895,3.381,1.69,1.79,3.181s-3.281,2.784-3.878,4.375-1.689,4.4-1.689,4.4a1.124,1.124,0,0,0-1.79.373c-.569,1.044-4.175-.348-4.771-1.938a3.96,3.96,0,0,1,1.391-4.226C55.541,94.565,60.411,89.2,60.411,89.2Z"/><path class="cls-8" d="M105.74,34.875c-.04.494-.825.46-1.086.888-.1.207.283.172.241.377a2.663,2.663,0,0,1-.342.035c.062.085.342.1.261.291a1.318,1.318,0,0,1-.4.446c.081.393,1.186.479.524.961.16-.037.26-.225.421-.173.181.136-.24.584.221.532.059-.051.142-.1.2-.018.2.155-.16.377.042.48.261-.189.642-.172.761-.48.222-.1.382.155.525.17.361.019.221-.427.562-.477a1.1,1.1,0,0,0,.806.221c-.2-.255.18-.308.3-.394-.344-.391.44-.582.2-.926.1.019.221.1.282,0-.122-.153-.464,0-.424-.29.062-.12-.159-.258,0-.378.062-.066.284.035.242-.1-.3-.1-.462-.448-.663-.688-.14-.137-.341.122-.4-.119.021-.1.2-.156.142-.29-.583-.087-1.408.035-1.972-.377A.571.571,0,0,0,105.74,34.875Z"/><path class="cls-8" d="M125.208,42.459a.9.9,0,0,0,.088,1.08c.219.3.7.113.829.485.089-.3.569-.074.745-.26.263-.262.613-.522.525-.932-.262-.373-.57-1.007-1.181-.9C125.733,41.937,125.515,42.273,125.208,42.459Z"/><path class="cls-8" d="M134.134,45.17c-.962.522-.831,1.268-.745,2.163.483.3.834.893,1.357,1,.394-.594,1.53.188,1.4-.706.744.222.568-.633.7-1.006a1.556,1.556,0,0,0-.7-1.193c-.306-.113-.655-.113-.875-.41C134.92,45.1,134.485,45.58,134.134,45.17Z"/><path class="cls-8" d="M86.649,61.06c-.48-.186-.437.413-.832.336-.043.634-1.049.67-.743,1.417-.262.82.962.595.789,1.417.874.072,1.923.855,2.929,0,.744-.225-.045-1.045.916-.934-.172-.149-.435-.333-.435-.631,0-.188.393-.337.263-.522-.35-.225-.919-.411-.658-.859-.436.189-.7-.112-.829-.446C87.653,61.582,87.086,60.354,86.649,61.06Z"/><path class="cls-8" d="M117.442,67.02a.579.579,0,0,0,.058.689c.14.191.446.07.529.307.057-.19.362-.046.474-.165.167-.166.39-.333.335-.594-.168-.237-.362-.641-.752-.571C117.779,66.686,117.64,66.9,117.442,67.02Z"/><path class="cls-8" d="M124.31,50.856c-.615.332-.529.807-.472,1.378.305.19.53.57.863.642.252-.38.976.118.893-.452.473.142.363-.4.446-.641a.99.99,0,0,0-.446-.761c-.2-.071-.417-.071-.559-.262C124.814,50.808,124.534,51.117,124.31,50.856Z"/><path class="cls-8" d="M128.877,44a.577.577,0,0,0,.053.69c.142.19.448.071.53.308.058-.189.364-.047.475-.165.168-.168.391-.333.335-.594-.167-.239-.362-.643-.752-.57C129.21,43.665,129.072,43.878,128.877,44Z"/><path class="cls-8" d="M128.545,50.981c-.614.332-.53.808-.473,1.378.307.191.53.57.862.643.252-.382.977.117.892-.452.474.143.363-.4.447-.641a.991.991,0,0,0-.447-.761c-.194-.071-.418-.071-.558-.262C129.047,50.935,128.766,51.242,128.545,50.981Z"/><path class="cls-8" d="M130.774,58.562c-.307-.116-.278.263-.529.216-.029.4-.671.427-.475.9-.167.524.615.379.5.9.558.047,1.226.546,1.867,0,.475-.143-.027-.665.586-.593-.111-.1-.279-.216-.279-.405,0-.117.252-.214.168-.331-.224-.145-.586-.263-.42-.547-.277.118-.445-.072-.528-.285C131.415,58.9,131.051,58.112,130.774,58.562Z"/><path class="cls-8" d="M123.534,61.387a.58.58,0,0,0,.056.69c.139.189.448.072.531.31.056-.191.361-.05.473-.168.168-.166.391-.331.335-.593-.167-.239-.36-.643-.752-.57C123.869,61.056,123.729,61.269,123.534,61.387Z"/><path class="cls-8" d="M136.088,75.485c-.04.5-.827.463-1.087.892-.1.2.282.17.242.378a2.844,2.844,0,0,1-.342.033c.058.086.342.1.261.293a1.3,1.3,0,0,1-.4.444c.079.393,1.185.479.522.959.16-.035.261-.223.42-.173.182.138-.239.583.222.533.062-.053.142-.1.2-.018.2.155-.163.378.039.481.262-.189.644-.173.763-.481.221-.1.381.155.524.172.361.017.22-.429.561-.479a1.106,1.106,0,0,0,.805.221c-.2-.256.18-.307.3-.393-.343-.394.442-.582.2-.925.1.017.22.1.281,0-.121-.154-.463,0-.423-.292.061-.118-.16-.256,0-.375.061-.07.283.033.241-.1-.3-.105-.462-.447-.662-.686-.143-.139-.342.12-.4-.119.021-.1.2-.156.142-.292-.585-.087-1.409.035-1.972-.377A.569.569,0,0,0,136.088,75.485Z"/><path class="cls-8" d="M118.922,48.066a.9.9,0,0,0,.09,1.081c.215.3.7.111.828.485.087-.3.569-.076.743-.261.264-.262.613-.522.526-.932-.262-.373-.567-1.007-1.182-.9C119.447,47.544,119.227,47.878,118.922,48.066Z"/><path class="cls-8" d="M110.788,43.83c-.964.522-.833,1.268-.744,2.161.482.3.832.9,1.355,1.007.395-.595,1.532.188,1.4-.707.744.222.568-.634.7-1.006a1.545,1.545,0,0,0-.7-1.193c-.305-.113-.654-.113-.873-.411C111.575,43.756,111.138,44.241,110.788,43.83Z"/><path class="cls-8" d="M113.554,20.169c-.479-.186-.436.411-.829.335-.043.634-1.05.671-.745,1.418-.261.82.964.594.788,1.415.874.074,1.925.856,2.932,0,.741-.225-.044-1.043.917-.93-.176-.15-.437-.337-.437-.635,0-.186.393-.336.261-.522-.349-.224-.919-.409-.655-.858-.438.188-.7-.109-.832-.445C114.562,20.693,113.991,19.463,113.554,20.169Z"/><path class="cls-8" d="M108.163,58.018c-.612.334-.529.809-.476,1.38.309.189.532.569.865.641.252-.381.976.119.894-.452.474.142.362-.405.447-.641a.991.991,0,0,0-.447-.76c-.195-.072-.421-.072-.557-.26C108.665,57.972,108.387,58.282,108.163,58.018Z"/><path class="cls-8" d="M107.148,49.846c-.309-.119-.279.262-.53.213-.029.405-.67.428-.474.9-.169.524.614.382.5.9.561.048,1.23.547,1.87,0,.474-.143-.029-.667.585-.593-.111-.095-.277-.214-.277-.405,0-.119.251-.215.166-.333-.223-.143-.586-.261-.418-.547-.278.121-.445-.07-.529-.284C107.789,50.179,107.427,49.4,107.148,49.846Z"/><path class="cls-8" d="M113.64,39.347c-.614.331-.53.806-.476,1.377.31.19.531.57.865.642.252-.381.976.119.892-.452.475.143.364-.4.448-.64a1,1,0,0,0-.448-.762c-.2-.07-.417-.07-.557-.261C114.142,39.3,113.861,39.606,113.64,39.347Z"/><path class="cls-8" d="M104.4,43.487c-.308-.116-.277.264-.529.217-.03.4-.669.426-.474.9-.168.524.613.38.5.9.555.046,1.224.547,1.868,0,.473-.144-.03-.666.584-.594-.111-.095-.278-.214-.278-.405,0-.119.251-.211.167-.331-.223-.144-.586-.262-.417-.547-.281.119-.447-.071-.531-.285C105.043,43.822,104.68,43.038,104.4,43.487Z"/><path class="cls-8" d="M131.324,70.829s-2.265-1.852-.8-2.453A1.29,1.29,0,1,1,131.324,70.829Z"/><path class="cls-8" d="M140.333,13.47c-.04.5-.824.463-1.085.892-.1.2.281.169.238.377a2.376,2.376,0,0,1-.34.033c.06.086.34.1.262.292a1.29,1.29,0,0,1-.4.445c.081.394,1.185.479.523.959.161-.035.26-.221.42-.17.183.135-.239.583.223.531.06-.051.142-.1.2-.017.2.153-.158.376.042.479.261-.189.643-.171.762-.479.221-.1.382.153.525.171.36.016.22-.429.561-.48a1.1,1.1,0,0,0,.805.224c-.2-.259.181-.31.3-.394-.343-.395.44-.583.2-.926.1.017.22.1.281,0-.122-.156-.461,0-.421-.291.06-.12-.161-.258,0-.377.06-.067.28.033.239-.1-.3-.1-.461-.447-.662-.684-.14-.139-.342.118-.4-.121.02-.1.2-.156.139-.292a4.2,4.2,0,0,1-1.969-.376A.568.568,0,0,0,140.333,13.47Z"/><path class="cls-8" d="M121.251,70.155a.9.9,0,0,0,.088,1.08c.22.3.7.111.833.485.086-.3.569-.075.742-.261.264-.262.613-.523.526-.933-.262-.371-.57-1-1.182-.894C121.778,69.632,121.559,69.969,121.251,70.155Z"/><path class="cls-8" d="M142.434,55.929c-.479-.185-.434.412-.828.337-.045.634-1.051.67-.743,1.417-.263.818.962.594.785,1.415.876.074,1.924.857,2.93,0,.742-.224-.044-1.043.918-.931-.176-.151-.438-.335-.438-.634,0-.186.4-.336.262-.521-.349-.224-.916-.41-.653-.859-.438.188-.7-.111-.832-.448C143.442,56.452,142.873,55.222,142.434,55.929Z"/><path class="cls-8" d="M125.1,38.787a.571.571,0,0,0,.057.69c.139.19.446.071.529.308.055-.189.362-.047.474-.165.169-.167.39-.334.336-.594-.167-.239-.364-.642-.755-.572C125.439,38.454,125.3,38.668,125.1,38.787Z"/><path class="cls-8" d="M134.53,33.6c-.612.333-.528.808-.473,1.379.308.189.531.567.863.641.251-.382.976.117.893-.452.474.141.363-.405.446-.641a.992.992,0,0,0-.446-.761c-.195-.071-.418-.071-.558-.261C135.033,33.555,134.754,33.864,134.53,33.6Z"/><path class="cls-8" d="M132.7,31.088a.578.578,0,0,0,.056.689c.139.189.447.071.532.307.054-.19.36-.047.471-.166.167-.166.391-.331.335-.594-.168-.236-.364-.641-.752-.57C133.032,30.754,132.891,30.969,132.7,31.088Z"/><path class="cls-8" d="M141.39,37.65c-.612.332-.53.807-.475,1.377.307.189.532.571.865.642.251-.381.976.12.893-.453.473.145.362-.4.447-.641a1,1,0,0,0-.447-.76c-.2-.071-.418-.071-.558-.261C141.891,37.6,141.612,37.911,141.39,37.65Z"/><path class="cls-8" d="M136.766,40.1c-.308-.117-.279.262-.53.216-.028.4-.67.426-.473.9-.168.522.612.379.5.9.558.046,1.226.546,1.866,0,.476-.144-.027-.667.588-.6-.112-.094-.279-.212-.279-.4,0-.119.251-.213.167-.331-.224-.145-.586-.263-.417-.548-.28.118-.447-.073-.532-.285C137.408,40.43,137.044,39.644,136.766,40.1Z"/><path class="cls-8" d="M111.92,63.622c-.613.332-.529.809-.475,1.378.308.189.53.57.865.641.25-.38.976.12.893-.452.474.144.362-.4.446-.639a.987.987,0,0,0-.446-.762c-.2-.07-.418-.07-.56-.261C112.423,63.575,112.143,63.885,111.92,63.622Z"/><path class="cls-8" d="M124.433,33.947c-.967.275-2.28-1.358-.913-1.941S126.483,33.363,124.433,33.947Z"/><path class="cls-8" d="M106.6,29.394c-.039.493-.824.462-1.085.889-.1.207.279.172.24.377a2.454,2.454,0,0,1-.342.034c.06.086.342.105.261.292a1.3,1.3,0,0,1-.4.446c.082.393,1.188.479.522.958.161-.035.261-.222.423-.17.181.135-.241.58.22.532.062-.051.142-.1.2-.019.2.155-.159.378.039.48.264-.188.645-.17.766-.48.221-.1.382.155.521.17.363.019.222-.426.564-.478a1.094,1.094,0,0,0,.8.223c-.2-.258.181-.309.3-.393-.34-.4.443-.585.2-.926.1.017.221.1.282,0-.118-.155-.462,0-.422-.292.061-.12-.161-.257,0-.377.061-.069.282.034.241-.1-.3-.1-.464-.448-.662-.686-.143-.139-.342.119-.4-.12.021-.1.2-.155.142-.292a4.173,4.173,0,0,1-1.969-.377A.57.57,0,0,0,106.6,29.394Z"/><path class="cls-8" d="M130.928,27.808a.57.57,0,0,0,.053.688c.14.191.448.073.531.31.054-.189.362-.047.474-.165.167-.167.39-.333.335-.594-.168-.239-.364-.642-.755-.572C131.261,27.475,131.121,27.691,130.928,27.808Z"/><path class="cls-8" d="M131.824,23.4c-.613.332-.531.808-.475,1.379.308.188.532.569.865.642.252-.381.975.117.892-.454.476.144.364-.4.448-.64a.994.994,0,0,0-.448-.76c-.194-.072-.417-.072-.558-.261C132.326,23.352,132.048,23.661,131.824,23.4Z"/><path class="cls-8" d="M128.4,24.344c-.307-.119-.278.261-.531.213-.026.4-.669.428-.474.9-.166.522.616.381.5.9.557.05,1.227.547,1.868,0,.473-.142-.027-.665.585-.593-.112-.094-.279-.214-.279-.4,0-.118.252-.212.167-.333-.225-.141-.584-.26-.418-.546-.278.119-.446-.071-.53-.287C129.042,24.675,128.68,23.892,128.4,24.344Z"/><path class="cls-8" d="M101.418,27.189a.577.577,0,0,0,.057.689c.138.188.447.07.53.309.055-.191.36-.048.471-.167.17-.167.39-.332.337-.594-.167-.237-.363-.641-.753-.571C101.753,26.855,101.613,27.07,101.418,27.189Z"/><path class="cls-8" d="M128.812,31.334c-.612.332-.528.808-.471,1.378.3.189.527.571.861.641.25-.382.977.119.891-.452.476.143.363-.4.448-.64a.985.985,0,0,0-.448-.76c-.194-.072-.417-.072-.556-.263C129.315,31.286,129.035,31.6,128.812,31.334Z"/><path class="cls-8" d="M114.974,10.122c-.307-.118-.279.261-.528.215-.028.4-.671.426-.473.9-.171.524.612.38.5.9.558.048,1.226.546,1.869,0,.473-.144-.031-.666.585-.595-.112-.094-.28-.212-.28-.4,0-.12.252-.214.168-.332-.223-.144-.586-.262-.42-.548-.278.118-.444-.071-.528-.284C115.616,10.456,115.255,9.67,114.974,10.122Z"/><path class="cls-8" d="M118.172,25.284a.576.576,0,0,0,.054.689c.142.191.447.073.533.31.054-.191.36-.048.472-.167.168-.166.386-.331.335-.595-.167-.237-.362-.64-.753-.568C118.505,24.953,118.368,25.167,118.172,25.284Z"/><path class="cls-8" d="M119.888,29.163c-.615.332-.532.808-.474,1.377.306.191.531.571.863.641.252-.379.975.12.893-.45.474.143.364-.4.446-.641a.993.993,0,0,0-.446-.761c-.194-.072-.418-.072-.558-.261C120.39,29.117,120.111,29.423,119.888,29.163Z"/><path class="cls-8" d="M120.917,14.9c-.963.522-.83,1.268-.744,2.163.482.3.833.895,1.357,1.007.393-.6,1.529.185,1.4-.711.744.225.571-.633.7-1a1.546,1.546,0,0,0-.7-1.193c-.306-.112-.655-.112-.875-.41C121.7,14.827,121.267,15.312,120.917,14.9Z"/><path class="cls-8" d="M115.53,30.835c-.612.335-.53.808-.473,1.38.3.189.529.568.864.64.249-.38.975.118.892-.451.473.144.361-.405.445-.64a.981.981,0,0,0-.445-.76c-.2-.074-.419-.074-.559-.263C116.033,30.79,115.754,31.1,115.53,30.835Z"/><path class="cls-8" d="M111.407,33.174c-.307-.117-.278.263-.53.214-.027.4-.668.427-.473.9-.167.522.613.381.5.9.561.047,1.227.546,1.869,0,.475-.144-.028-.666.585-.6-.11-.092-.277-.213-.277-.4,0-.12.251-.214.167-.333-.224-.143-.588-.26-.419-.548-.28.121-.448-.07-.529-.284C112.049,33.507,111.685,32.722,111.407,33.174Z"/><path class="cls-8" d="M111.764,29a.578.578,0,0,0,.055.689c.141.189.446.07.532.31.054-.191.361-.049.473-.169.166-.165.389-.331.335-.593-.169-.237-.363-.643-.754-.569C112.1,28.664,111.96,28.876,111.764,29Z"/><path class="cls-8" d="M127.821,13.625c-.041.5-.824.462-1.085.891-.1.205.279.171.238.377a2.7,2.7,0,0,1-.341.035c.061.084.341.1.263.292a1.335,1.335,0,0,1-.4.444c.08.394,1.185.479.521.959.162-.035.263-.223.424-.172.18.137-.242.583.22.534.06-.054.143-.1.2-.019.2.155-.161.376.042.48.261-.188.642-.172.762-.48.219-.105.382.155.522.171.361.018.221-.429.564-.479a1.108,1.108,0,0,0,.8.223c-.2-.258.182-.31.3-.395-.345-.393.441-.582.2-.924.1.017.22.1.281,0-.12-.154-.463,0-.422-.292.06-.12-.16-.258,0-.377.06-.068.281.035.241-.1-.3-.1-.464-.447-.664-.683-.14-.139-.34.117-.4-.12.021-.105.2-.157.141-.293a4.234,4.234,0,0,1-1.972-.376A.576.576,0,0,0,127.821,13.625Z"/><path class="cls-8" d="M122.932,4.316a.9.9,0,0,0,.09,1.08c.218.3.7.113.831.486.086-.3.567-.076.745-.261.26-.262.609-.523.522-.933-.262-.372-.568-1.006-1.181-.9C123.458,3.792,123.24,4.129,122.932,4.316Z"/><path class="cls-8" d="M139.168,30.547c-.616.332-.53.807-.474,1.378.305.19.529.568.862.641.253-.38.977.12.894-.451.475.143.364-.4.448-.64a1,1,0,0,0-.448-.763c-.194-.069-.418-.069-.558-.26C139.669,30.5,139.389,30.808,139.168,30.547Z"/><path class="cls-2" d="M75.362,39.291s3.21,6.921,3.482,11.672-5.107,11.572-6.18,13.069-1.951,2.067-4.822,2.663-8.734.5-11.942-1.266S46.447,54.67,45.753,53.475,42.2,42.742,43.946,39.167s6.88-7.99,11.49-9.6,13.231.173,14.962,2.676S75.362,39.291,75.362,39.291Z"/><path class="cls-9" d="M35.969,36.833s3.4,1.451,4.9,1.25a12.123,12.123,0,0,1,4.067.653,7.2,7.2,0,0,1,2-2.756c1.581-1.443,6.248-4.838,8.913-5.177s8.809-.157,10.734.632c7.376,3.033,10.376,11.929,10.376,11.929s.741-2.222-.7-5.744S72.3,25.519,63.331,24.587s-14.4-1.189-19.912,2.705A21.555,21.555,0,0,0,35.969,36.833Z"/><path class="cls-9" d="M36.423,35.913a7.48,7.48,0,0,0-1.149,3.426C34.886,41.853,39.3,48.708,38.88,52.7c-.65,6.279,1.772,7.88,4.723,7.953,4.38.106,10.346,6.072,10.346,6.072l-.889-3.939a32.672,32.672,0,0,1-6.437-9.736c-2.075-5.349-.36-1.069-1.059-5.659a58.545,58.545,0,0,1-.63-8.657s-2.974-1.778-3.174-1.91A8.378,8.378,0,0,0,36.423,35.913Z"/><path class="cls-10" d="M57.849,43.455c-1.739.127-4.406-.69-5.19,1.985"/><path class="cls-11" d="M65.856,25.432c1.194-.362,2.368-.7,3.538-1.064.324.309.62.6.9.864-10.577,3.307-17.936,9.586-26.53,15.923-2.368,1.749-9.351,6.514-11.146,9.416.025-.178.005-.286-.132-.25-.617.166-2.283-.6-1.466-2.023a9.754,9.754,0,0,0,.488-.941c5.9-3.958,10.384-8.689,16.923-12.293C54.579,31.666,59.049,27.513,65.856,25.432Z"/><path class="cls-12" d="M72.009,26.833c.492.937-.179,2.578.228,3.2-6.647,2.29-12.4,6.9-16.771,11.684-3.849,4.211-11.054,9.418-17.431,9.374a1.714,1.714,0,0,0-.782.254c.107-.765-1.524.31-3.307.878,3.629-5.2,12.738-5.014,17.1-9.828C56.869,35.968,61.593,27.863,72.009,26.833Z"/><path class="cls-7" d="M31.6,27.513c-.078-2.291,3.8-2.219,6.035-3.317a38.274,38.274,0,0,1,9.406-3.853c-5.059,2.8-9.923,8.469-15.8,9.848A5.509,5.509,0,0,0,31.6,27.513Z"/><path class="cls-7" d="M38.035,51.093c6.377.044,13.582-5.163,17.431-9.374,4.369-4.78,10.124-9.394,16.771-11.684a.655.655,0,0,0,.688.251c1.817-.184,1.47,2.522,1.47,2.522s-2.234,1.1-4.644,2.047-4.866,3.71-8.018,6.866S54.338,48.924,49,51.353A33.565,33.565,0,0,1,38.831,54.16c-2.086.658-2.757-.37-1.792-2.238a1.953,1.953,0,0,0,.214-.575A1.714,1.714,0,0,1,38.035,51.093Z"/><path class="cls-7" d="M43.76,41.155c8.594-6.337,15.953-12.616,26.53-15.923a11.427,11.427,0,0,0,1.333,1.174,1.043,1.043,0,0,1,.386.427c-10.416,1.03-15.14,9.135-20.964,15.564-4.361,4.814-13.47,4.625-17.1,9.828-.13.043-.257.089-.389.125-1.748.465-1.038-1.136-.943-1.779C34.409,47.669,41.392,42.9,43.76,41.155Z"/><path class="cls-13" d="M61.56,25.292a43,43,0,0,1,6.874-1.8c.336.3.661.6.96.879-1.17.366-2.344.7-3.538,1.064-6.807,2.081-11.277,6.234-17.429,9.632C41.888,38.668,37.406,43.4,31.5,47.357c.31-.74.189-1.185-.836-1.33,6.452-5.29,13.349-10.653,20.868-14.835C54.942,29.3,57.9,26.776,61.56,25.292Z"/><path class="cls-11" d="M29.788,31.719a4.214,4.214,0,0,0,1.448-1.528c5.879-1.379,10.743-7.05,15.8-9.848.592-.135,1.208-.256,1.852-.356,4.2-.648,6.162-.268,9.064-.238-5.5,1.687-11.226,3.745-15.12,7.255A88.654,88.654,0,0,0,36.287,33.6c-2.671,2.98-4.931,3.309-8.612,4.866a4.1,4.1,0,0,0-1.531-1.444C23.831,35.822,28.223,32.84,29.788,31.719Z"/><path class="cls-7" d="M42.834,27c3.894-3.51,9.622-5.568,15.12-7.255.807.008,1.674,0,2.693-.08a7.2,7.2,0,0,1,3.749.912c-5.252.287-9.693,2.306-14.48,5.381-6.875,4.416-12.837,13.086-21.364,14.617a6.426,6.426,0,0,0-.877-2.117c3.681-1.557,5.941-1.886,8.612-4.866A88.654,88.654,0,0,1,42.834,27Z"/><path class="cls-12" d="M49.916,25.962c4.787-3.075,9.228-5.094,14.48-5.381a19.745,19.745,0,0,1,4.038,2.908,43,43,0,0,0-6.874,1.8c-3.665,1.484-6.618,4.007-10.024,5.9-7.519,4.182-14.416,9.545-20.868,14.835-.129-.016-.245-.039-.4-.048-1.893-.1-2.02-2.077-1.649-3.182a4.646,4.646,0,0,0-.065-2.218C37.079,39.048,43.041,30.378,49.916,25.962Z"/><path class="cls-9" d="M45.835,52.668c.33,1.511.966,2.817,1.2,4.155.459,2.573,2.513,1.52,4.355,2.447,4.063,2.043-.157,8.381,5.4,9.164a3.875,3.875,0,0,1-2.176-3.49c.077-2.47,1.462-7.374-1.4-8.306s-4.146-1.095-3.572-2.818a3.978,3.978,0,0,0,.126-2.707Z"/><path class="cls-9" d="M65.041,38.256c2.23,4.349,4.591-4.445,7.566-2.514,1.3.84,1.889,2.215,3.442,2.936a2.857,2.857,0,0,0,4.146-2.9s-1.567,3.463-2.878,1.513-1.58-5.148-4.094-4.775a8.571,8.571,0,0,0-4.695,2.412c-1.006.954-2.157,2.028-2.157,2.028Z"/><path class="cls-14" d="M59.83,57.725c1.825,2.914,6.916,4.664,10.034,1.935,1.923-1.681,1.55-2.711,2.119-5.778l-.113-2.648s-3.882,3.608-6.107,4.114a23.931,23.931,0,0,1-6.594.563C57.511,55.753,59.83,57.725,59.83,57.725Z"/><path class="cls-6" d="M70.908,52.049a3.342,3.342,0,0,1-.308,2.5c-.905,1.73-2.827,2.457-5.238,2.9s-6.193-1.541-6.193-1.541,5.142.484,8.336-1.5S70.908,52.049,70.908,52.049Z"/><path class="cls-10" d="M71.954,53.626c.294,4.483-2.137,9.032-9.246,6.608"/><path class="cls-15" d="M71.065,40.367s4.21-.578,3.506,3.807c-.493,3.076-2.951,1.849-3.707.594S68.622,41.562,71.065,40.367Z"/><path class="cls-16" d="M72.722,41.917s2.407-.516,2.054,2.467c-.243,2.061-2.28,1.007-2.716.187S71.456,42.078,72.722,41.917Z"/><path class="cls-15" d="M54.958,48.435s4.234-.371,3.316,3.974c-.643,3.048-3.038,1.7-3.732.412S52.46,49.51,54.958,48.435Z"/><path class="cls-16" d="M56.538,50.065s2.429-.4,1.931,2.564c-.344,2.046-2.327.894-2.722.054S55.265,50.163,56.538,50.065Z"/><path class="cls-6" d="M91.431,144.079a6.3,6.3,0,0,0-.277-.6c-1.124,1.252-3.119,1.33-4.846,1.263-4.844-.185-9.8-.4-14.368-1.927.3.782.711,1.43,1.2,1.564,1.094.3,7.588,1,9.378,1.194S92.326,146.466,91.431,144.079Z"/><path class="cls-7" d="M91.154,143.478c-1.023-2.054-3.025-3.49-4.3-4.669-1.393-1.291-3.183-2.087-2.586-4.572a16.856,16.856,0,0,0,.4-5.171,9.474,9.474,0,0,1,1.49-3.878s.966-1.791-2.584-1.293c-4.946.7-7.457.3-7.955-.5a3.522,3.522,0,0,0-1.492-1.193s-2.365.284-2.584,3.952c-.1,1.7.847,3.058.746,6.338s-.944,6.314-.944,7.508a8.988,8.988,0,0,0,.591,2.811c4.567,1.531,9.524,1.742,14.368,1.927C88.035,144.808,90.03,144.73,91.154,143.478Z"/><path class="cls-6" d="M43.739,140.936a6.912,6.912,0,0,1-3.239-3.583c.135,2.941,2.482,6,5,5.731a3.94,3.94,0,0,0,2.65-1.612,4.38,4.38,0,0,1-1.455.262A6.267,6.267,0,0,1,43.739,140.936Z"/><path class="cls-7" d="M60.015,124.293a4.847,4.847,0,0,1-3.68-.2c-2.188-.895-2.486-1.79-3.381-2.983s.2-2.983.2-2.983a15.378,15.378,0,0,1-1.789.2c-.6,0-1.789,1.293-2.386,2.884s-3.978,5.766-5.57,6.959-2.483,5.07-2.882,8.252a5.539,5.539,0,0,0-.027.93,6.912,6.912,0,0,0,3.239,3.583,6.267,6.267,0,0,0,2.953.8,4.38,4.38,0,0,0,1.455-.262,17.866,17.866,0,0,0,2.421-5.049c1-2.783,2.939-6.9,6.065-6.462,3.729.522,3.729-2.536,3.729-2.536Z"/><path class="cls-10" d="M64.1,50.422A2.284,2.284,0,0,1,67.028,49.2"/><path class="cls-16" d="M69.262,75.8l.93,1.393c.589.889,1.431,2.158,2.441,3.68.986,1.538,2.181,3.3,3.371,5.259.592.98,1.186,2.006,1.745,3.075a34.955,34.955,0,0,1,1.528,3.322,40.932,40.932,0,0,1,1.936,6.931c.442,2.252.664,4.381.84,6.2s.239,3.344.3,4.408l.089,1.673s-.249-2.426-.709-6.046c-.222-1.811-.549-3.914-1.005-6.14a40.8,40.8,0,0,0-1.978-6.813,34.1,34.1,0,0,0-1.474-3.294c-.54-1.061-1.118-2.085-1.7-3.065l-3.219-5.342c-.932-1.572-1.709-2.881-2.252-3.8Z"/></svg>