<svg id="word" xmlns="http://www.w3.org/2000/svg" xmlns:xlink="http://www.w3.org/1999/xlink" viewBox="0 0 160 160"><defs><style>.cls-1{fill:#9c4c9c;}.cls-2{fill:#100f35;}.cls-3{fill:#cd2528;}.cls-3,.cls-4,.cls-5,.cls-6{stroke:#9d4b9c;stroke-width:1.021px;}.cls-3,.cls-4,.cls-5{stroke-miterlimit:10;}.cls-4{fill:#372d78;}.cls-5{fill:#616264;}.cls-6{fill:url(#linear-gradient);}</style><linearGradient id="linear-gradient" x1="233.59" y1="253.663" x2="233.657" y2="258.355" gradientTransform="translate(-97.446 -182.034) rotate(2.259)" gradientUnits="userSpaceOnUse"><stop offset="0" stop-color="#968768"/><stop offset="0.43" stop-color="#fff"/><stop offset="1" stop-color="#b8a57f"/></linearGradient></defs><path class="cls-1" d="M26.833,74.509s.563-1.863,3.618-2.188,35.579.67,35.579.67a1.805,1.805,0,0,1-1.372,2.135,71.724,71.724,0,0,1-8.38.283l-2.23-1.4-17.881-.144L34.4,75.78Z"/><path class="cls-2" d="M133.169,82.871c.061-.351-.02-.957.363-.974,1.211-.056,4.117.343,4.326,1.647.2,1.251-3.143,1.4-4.6,1.039-.513-.126-.168-1.245-.086-1.712Z"/><polygon class="cls-3" points="38.309 75.835 88.444 77.926 88.317 85.835 38.06 82.948 38.309 75.835"/><path class="cls-4" d="M25.355,73.718l12.954,2.117s2.389.681,1.3,4.035-.436,3.142-.436,3.142l-13.925-.268s-2.991-1.7-3.1-3.558C21.936,75.761,25.355,73.718,25.355,73.718Z"/><path class="cls-5" d="M119.616,78.869s-32.025-4.1-34.252-1.071c-1,1.354-1.317,5.977.537,7.9,3.982,4.128,33.793.74,33.793.74Z"/><path class="cls-6" d="M134.237,82.234l-14.621-3.365s-1.466-.1-1.986,3.159a4.324,4.324,0,0,0,2.064,4.408l14.517-2.056Z"/></svg>