<svg id="word" xmlns="http://www.w3.org/2000/svg" viewBox="0 0 160 160"><defs><style>.cls-1{fill:#231f20;}.cls-1,.cls-3,.cls-4,.cls-5{stroke:#9d4b9c;stroke-miterlimit:10;stroke-width:0.75px;}.cls-2{fill:#7a7c7f;}.cls-3{fill:#c3996b;}.cls-4{fill:#555658;}.cls-5{fill:none;}.cls-6{fill:#dbb98c;}</style></defs><path class="cls-1" d="M106.664,131.356s-.531-.038-1.557-.228-1.86-.456-2.81.19a4.753,4.753,0,0,0-2.278,2.924c-.152,1.253-.038,3.835.379,4.367a11.046,11.046,0,0,0,4.292,1.709,3.123,3.123,0,0,0,1.974-.418c.684-.3,1.1-.949,1.709-1.936s1.026-.95.836-2.469S108.905,132.419,106.664,131.356Z"/><path class="cls-2" d="M102.6,132.5s-1.481.873-1.709,1.861-.076,1.557.494,1.937a2.287,2.287,0,0,0,2.582-.76c.3-.759.608-1.747.38-2.127A2.213,2.213,0,0,0,102.6,132.5Z"/><path class="cls-3" d="M67.3,63.526s7.773,16.89,5.83,25.409-8.968,22.869-8.669,26.456,1.644,6.726,9.715,8.669,14.8,1.046,20.327,0,11.808-3.737,10.463-6.427S96.592,98.8,96.293,94.466A160.818,160.818,0,0,1,97.339,73.54c.6-4.035,3.737-9.416,3.288-10.911s-1.644-4.185-6.277-5.081-18.833-.449-22.719.9S66.1,62.031,67.3,63.526Z"/><path class="cls-3" d="M71.033,50.074s3.139,2.84,2.989,4.036a24.3,24.3,0,0,1-1.644,4.334,19.762,19.762,0,0,0,11.21,3.587c6.278-.149,11.659-1.793,11.808-3.736s-1.943-1.5-1.2-3.886,1.943-5.232,1.943-5.232Z"/><path class="cls-3" d="M72.976,37.519s1.345,3.438-.9,5.829S67.3,46.039,68.941,48.43,79.7,53.064,86.727,52.466s11.957-1.943,11.957-4.185-2.541-2.84-3.886-4.335-1.046-6.726-1.046-6.726Z"/><path class="cls-3" d="M80,14.95s-9.865,2.242-11.808,7.622a12.551,12.551,0,0,0,1.943,12.705c2.392,2.84,7.474,3.288,13.3,3.587s12.555-1.644,13.9-5.082,3.438-9.117-2.242-13.6S84.784,14.651,80,14.95Z"/><path class="cls-4" d="M79.4,12.558l.449,6.128a6.942,6.942,0,0,0,3.886,1.047,3.578,3.578,0,0,0,2.84-2.392l-.6-5.68a3.362,3.362,0,0,0-3.139-1.494A4.074,4.074,0,0,0,79.4,12.558Z"/><path class="cls-5" d="M71.239,66.855a28.674,28.674,0,0,0,22.348,1.114"/><path class="cls-5" d="M73.836,40.521a52.163,52.163,0,0,0,15.134,1.2"/><path class="cls-1" d="M106.178,99.816a3,3,0,0,0-.3,3.846,5.492,5.492,0,0,0,3.56,1.661,2.806,2.806,0,0,0,2.127-.211,2.183,2.183,0,0,0,.753-1.808C112.321,100.541,108.624,97.471,106.178,99.816Z"/><path class="cls-1" d="M114.555,104.853a3.06,3.06,0,0,0,.038,3.321,3.675,3.675,0,0,0,3,1.566,2.561,2.561,0,0,0,1.816-.622,3.264,3.264,0,0,0,.787-2c.172-1.427-.225-3.31-1.868-3.7A4.274,4.274,0,0,0,114.555,104.853Z"/><path class="cls-1" d="M126.967,107.084a3.375,3.375,0,0,0-1.12,2.29,3.091,3.091,0,0,0,.908,2.327,3.351,3.351,0,0,0,4.416.039,4.351,4.351,0,0,0,.88-4.752C131.066,105.343,128.122,106.04,126.967,107.084Z"/><path class="cls-1" d="M116.654,113.9a3.182,3.182,0,0,0-2.049,1.189,3.481,3.481,0,0,0-.7,1.571,3.563,3.563,0,0,0,1.194,3.255,3.622,3.622,0,0,0,3.411.654,3.679,3.679,0,0,0,2.362-2.552,2.867,2.867,0,0,0-.2-2.049A5.093,5.093,0,0,0,116.654,113.9Z"/><path class="cls-6" d="M72.294,22.63a7.412,7.412,0,0,0-2.245,5.621,5.346,5.346,0,0,0,3.531,4.693,4.584,4.584,0,0,0,2.24.111c2.6-.526,4.265-3.282,4.415-5.93.1-1.774-.269-5.968-2.019-6.992C76.434,19.09,73.456,21.452,72.294,22.63Z"/></svg>