<svg id="word" xmlns="http://www.w3.org/2000/svg" viewBox="0 0 160 160"><defs><style>.cls-1{fill:#f7ea30;}.cls-2{fill:none;stroke:#9c4c9c;stroke-miterlimit:10;stroke-width:0.684px;}</style></defs><path class="cls-1" d="M131.844,109.207l-.351-.619a7.327,7.327,0,0,0-1.051-1.866L80,17.4,29.558,106.722a7.252,7.252,0,0,0-1.054,1.866l-.348.619h.194a5.233,5.233,0,0,0-.194,1.2c0,8.946,23.21,16.194,51.844,16.194s51.844-7.248,51.844-16.194a5.291,5.291,0,0,0-.2-1.2Z"/><path class="cls-2" d="M131.844,109.207l-.351-.619a7.327,7.327,0,0,0-1.051-1.866L80,17.4,29.558,106.722a7.252,7.252,0,0,0-1.054,1.866l-.348.619h.194a5.233,5.233,0,0,0-.194,1.2c0,8.946,23.21,16.194,51.844,16.194s51.844-7.248,51.844-16.194a5.291,5.291,0,0,0-.2-1.2Z"/></svg>