<svg id="word" xmlns="http://www.w3.org/2000/svg" xmlns:xlink="http://www.w3.org/1999/xlink" viewBox="0 0 160 160"><defs><style>.cls-1{fill:none;}.cls-2{fill:#c27bb3;}.cls-2,.cls-3{stroke:#9c4c9c;stroke-width:0.974px;}.cls-2,.cls-3,.cls-6,.cls-7{stroke-miterlimit:10;}.cls-3{fill:#ccda40;}.cls-4{fill:#9c4c9c;}.cls-5{clip-path:url(#clip-path);}.cls-6{fill:#fde1d3;}.cls-6,.cls-7{stroke:#9b4d9c;stroke-width:1.507px;}.cls-7{fill:#de8c3d;}.cls-8{fill:#9b4d9c;}</style><clipPath id="clip-path"><rect class="cls-1" x="14.5" y="223.5" width="132" height="132"/></clipPath></defs><path class="cls-2" d="M59.911,50.736s1.17-5.685,4.664-6.56,7.489.647,10.185,2.292,8.992,5.041,8.992,5.041-1.944,6.912-3.643,8.645-7.05,7.112-7.05,7.112,2.173,18.211,2.121,22.2,3.286,17.2,3.733,19.345,0,4.958-2.089,5.506-7.518-10.677-7.929-12.651a40.039,40.039,0,0,0-2.068-5.7s-7.508,19.752-7.7,20.968-6.869,20.7-11.087,19.517,1.2-14.74,1.2-14.74,4.335-14.5,3.625-15.092-2.938,2.139-3.8,5.084-8.9,21.549-9.37,22.816-2.328,5.771-5.306,4.185.73-10.624,1.276-11.532,6.952-19.6,6.952-19.6.715-2.922-.512-2.457-3.283,4.718-3.283,4.718-8.627,17.2-9.167,18.14-2.578,3.866-4.163,3.314-2.4-6.561-.105-9.686,9.187-20.163,9.187-20.163,2.173-3.691.566-3.643-9.9,8.981-10.314,9.8-6.492,7.675-9.246,5.748,5.379-12.314,6.167-12.764S33.092,87.941,33.427,87.43,44.561,69.557,44.866,67.49s2.644-6.377,3.238-9.884-.7-16.769,1.218-17.462a10.854,10.854,0,0,1,6.978.313c1.645.834,3.472-.282,3.53,3.53S59.911,50.736,59.911,50.736Z"/><path class="cls-3" d="M58.171,59.335s3.551,6.558,4.121,5.76,5.735-5.753,5.606-7.785c0,0-4.628-3.155-5.568-2.371s-2.883,1.905-4.445.76-.617-2.961-4.729-5.616c-1.969-1.272-2.508.669-2.549,2.59s-2.915,6.49-1.188,7.013,6.2-1.291,6.2-1.291S56.849,60.051,58.171,59.335Z"/><ellipse class="cls-4" cx="57.565" cy="57.573" rx="0.972" ry="1.134" transform="translate(-10.525 12.94) rotate(-11.759)"/><ellipse class="cls-4" cx="56.31" cy="61.082" rx="0.972" ry="1.134" transform="translate(-11.267 12.758) rotate(-11.759)"/><ellipse class="cls-4" cx="55.176" cy="63.64" rx="0.66" ry="0.769" transform="translate(-11.812 12.581) rotate(-11.759)"/><ellipse class="cls-4" cx="53.914" cy="66.054" rx="0.66" ry="0.769" transform="translate(-12.33 12.374) rotate(-11.759)"/><path class="cls-2" d="M89.819,35.669s-2.373-5.3-5.974-5.394-7.171,2.253-9.447,4.443-7.686,6.868-7.686,6.868,3.394,6.327,5.427,7.651,8.423,5.417,8.423,5.417S82.384,72.9,83.3,76.788s.516,17.5.544,19.694,1.072,4.84,3.233,4.923,5.027-12.052,5-14.067a40.024,40.024,0,0,1,.785-6.011s11.607,17.658,12.054,18.8,11.188,18.719,15.049,16.652-4.36-14.13-4.36-14.13S108.232,89.431,108.8,88.7s3.331,1.452,4.806,4.141,13.354,19.111,14.088,20.246,3.523,5.13,6.087,2.936-3.013-10.213-3.743-10.981-11.03-17.627-11.03-17.627-1.332-2.7-.033-2.51S123.2,88.8,123.2,88.8s12.147,14.924,12.877,15.726,3.354,3.215,4.783,2.333.918-6.924-2-9.479-13.335-17.7-13.335-17.7-2.921-3.133-1.341-3.434,11.607,6.625,12.192,7.337,8,6.088,10.272,3.611-7.918-10.858-8.785-11.126-13.81-9.893-14.247-10.319S108.88,50.72,108.135,48.768s-3.962-5.654-5.3-8.948S99.882,23.3,97.863,23.036a10.858,10.858,0,0,0-6.745,1.816c-1.424,1.17-3.449.477-2.681,4.211S89.819,35.669,89.819,35.669Z"/><path class="cls-3" d="M93.38,43.687S91.333,50.859,90.6,50.2s-6.845-4.375-7.159-6.387c0,0,3.835-4.082,4.923-3.52s3.227,1.236,4.5-.22-.039-3.024,3.4-6.507c1.647-1.668,2.594.11,3.05,1.976s4.251,5.7,2.678,6.59-6.335.082-6.335.082S94.825,44.1,93.38,43.687Z"/><ellipse class="cls-4" cx="93.59" cy="41.836" rx="0.972" ry="1.134" transform="translate(-0.537 1.223) rotate(-0.746)"/><ellipse class="cls-4" cx="95.575" cy="44.99" rx="0.972" ry="1.134" transform="translate(-0.578 1.249) rotate(-0.746)"/><ellipse class="cls-4" cx="97.236" cy="47.241" rx="0.66" ry="0.769" transform="translate(-0.607 1.271) rotate(-0.746)"/><ellipse class="cls-4" cx="98.991" cy="49.325" rx="0.66" ry="0.769" transform="translate(-0.634 1.294) rotate(-0.746)"/><g class="cls-5"><path class="cls-6" d="M87.216,197.006s3.92,21.611,9.522,26.151,22.5,17.664,34.7,16.181c23.792-2.893,34.4-25.754,36.328-32.5s-2.148-46.038-3.27-49.887-8.851-18.384-32.595-20.517S91.089,146.318,89.376,150.2s-7.668,7.673-7.934,14.858S87.216,197.006,87.216,197.006Z"/><path class="cls-7" d="M118.466,147.624c1.06-.382,9.309-3.2,10.787-11.429s-3.276-16.441-8.621-16.921-22.294,2.61-22.294,2.61,22.25-2.038,23.976,5.038-4.389,18.062-4.389,18.062-2.377,2.908-2.269.058,3.568-9.748-.577-15.16c-3.241-4.232-5.966-4.435-12.546-3.584a46.784,46.784,0,0,0-18.585,5.827,34.346,34.346,0,0,1-15.013,3.841s14.239,2.721,20.235,2.106,13.25-6.594,16.451-4,7.781,13.1,7.781,13.1A6.01,6.01,0,0,0,118.466,147.624Z"/><path class="cls-7" d="M109.935,143.947s-8.28-2.446-14.254-2.118-8.264,1.863-12.614,3.182S72.076,149.1,72.076,149.1s2.258,1.482,11.651.884,10.869-3.067,14.6-3.329S109.935,143.947,109.935,143.947Z"/><path class="cls-8" d="M136.436,141.525a18.028,18.028,0,0,0,7.551-9.167c.115-.487.284-.965.36-1.461s.172-.977.2-1.509c.089-1.04.176-2.08.215-3.117a21.893,21.893,0,0,0-.422-6.141,9.445,9.445,0,0,0-1.133-2.8,8.076,8.076,0,0,0-2.053-2.2,14.909,14.909,0,0,0-5.775-2.09,52.126,52.126,0,0,0-12.491-1.061,52.293,52.293,0,0,1,12.562.691,15.35,15.35,0,0,1,6.026,2,8.687,8.687,0,0,1,2.286,2.3,10.175,10.175,0,0,1,1.307,2.967,22.655,22.655,0,0,1,.634,6.358c-.008,1.06-.064,2.115-.123,3.167-.012.518-.112,1.077-.167,1.616s-.231,1.067-.345,1.6a16.816,16.816,0,0,1-3.058,5.73,21.854,21.854,0,0,1-4.795,4.4Z"/><path class="cls-8" d="M147.428,136.126l9.785,1.179c1.631.214,3.254.344,4.921.658a7.872,7.872,0,0,1,4.548,2.311,10.811,10.811,0,0,1,2.137,4.566,24.535,24.535,0,0,1,.671,4.923,60.459,60.459,0,0,1-.708,9.84,60.291,60.291,0,0,0,.332-9.818,24.132,24.132,0,0,0-.84-4.8,10.185,10.185,0,0,0-2.147-4.2,7.037,7.037,0,0,0-4.16-1.894c-1.573-.236-3.236-.31-4.868-.461l-9.822-.8Z"/><path class="cls-8" d="M143.437,142.177a6.063,6.063,0,0,0,1.764-2.215,27.568,27.568,0,0,0,1.406-2.809,28.876,28.876,0,0,0,1.858-6.027,17.874,17.874,0,0,0,.366-3.128,11,11,0,0,0-.455-3.1l-1.677-6.2,2.039,6.092a11.5,11.5,0,0,1,.658,3.2,18.615,18.615,0,0,1-.187,3.259,29.826,29.826,0,0,1-1.552,6.325,28.825,28.825,0,0,1-1.293,3.012,7.289,7.289,0,0,1-2.084,2.843Z"/><path class="cls-8" d="M95.035,151.132a17.423,17.423,0,0,1-8.2,3.813c-3.022.562-6.025.035-8.9-.288A23.823,23.823,0,0,0,73.6,154.5a10.094,10.094,0,0,0-4.117,1.088,6.022,6.022,0,0,0-2.164,3.582,14.284,14.284,0,0,0-.491,4.34,14.361,14.361,0,0,1,.308-4.386,9.7,9.7,0,0,1,.716-2.1,4.352,4.352,0,0,1,1.429-1.751c2.65-1.555,5.808-1.551,8.718-1.36,2.935.208,5.849.576,8.618-.071A16.107,16.107,0,0,0,94.04,150Z"/><path class="cls-7" d="M143.859,142.8s-8.235-1.41-10.629,3.16-7.78,12.35-12.767,15.542-17.535,3.79-17.535,3.79,10.659-4.4,13.146-8.257,7.668-8.044,7.668-8.044-7.86,5.579-13.807,8.044-16.4,2.737-16.4,2.737,12.25-4.066,16.664-7.717,10.865-4.072,10.865-4.072l-31.92,5.733s2.516-7.293,17.079-10.7,21.422-5.781,27.01-4.053S143.859,142.8,143.859,142.8Z"/></g></svg>