<svg id="word" xmlns="http://www.w3.org/2000/svg" xmlns:xlink="http://www.w3.org/1999/xlink" viewBox="0 0 160 160"><defs><style>.cls-1{fill:#ece852;stroke:#9d4b9c;stroke-width:1.023px;}.cls-1,.cls-99{stroke-miterlimit:10;}.cls-2{fill:#00adee;}.cls-3{fill:#4a70b5;}.cls-4{fill:#dfe0e1;}.cls-5,.cls-95,.cls-97,.cls-99{fill:none;}.cls-6{fill:#ffcc6b;}.cls-7{fill:#3a81c3;}.cls-8{fill:#ec1c24;}.cls-9{fill:#faaf40;}.cls-10{fill:#383638;}.cls-11{fill:#a4a7a9;}.cls-12{fill:#545456;}.cls-13{fill:#b0a095;}.cls-14{fill:#f1f1e1;}.cls-15,.cls-29,.cls-87{fill:#fff;}.cls-16{fill:#231f20;}.cls-17{fill:#ee4245;}.cls-18,.cls-19,.cls-20,.cls-21,.cls-22,.cls-23,.cls-24,.cls-25,.cls-26,.cls-27,.cls-28,.cls-30,.cls-31,.cls-32,.cls-33,.cls-34,.cls-35,.cls-36,.cls-37,.cls-38,.cls-42,.cls-43,.cls-44,.cls-45,.cls-46,.cls-47,.cls-48,.cls-49,.cls-50,.cls-51,.cls-52,.cls-53,.cls-54,.cls-55,.cls-56,.cls-57,.cls-58,.cls-59,.cls-60,.cls-62,.cls-64,.cls-65,.cls-66,.cls-67,.cls-68,.cls-69,.cls-70,.cls-71,.cls-72,.cls-73,.cls-74,.cls-75,.cls-76,.cls-77,.cls-78,.cls-79,.cls-80,.cls-81,.cls-82,.cls-83{opacity:0.44;}.cls-18{fill:url(#radial-gradient);}.cls-19{fill:url(#radial-gradient-2);}.cls-20{fill:url(#radial-gradient-3);}.cls-21{fill:url(#radial-gradient-4);}.cls-22{fill:url(#radial-gradient-5);}.cls-23{fill:url(#radial-gradient-6);}.cls-24{fill:url(#radial-gradient-7);}.cls-25{fill:url(#radial-gradient-8);}.cls-26{fill:url(#radial-gradient-9);}.cls-27{fill:url(#radial-gradient-10);}.cls-28{fill:url(#radial-gradient-11);}.cls-29{opacity:0.19;}.cls-30{fill:url(#radial-gradient-12);}.cls-31{fill:url(#radial-gradient-13);}.cls-32{fill:url(#radial-gradient-14);}.cls-33{fill:url(#radial-gradient-15);}.cls-34{fill:url(#radial-gradient-16);}.cls-35{fill:url(#radial-gradient-17);}.cls-36{fill:url(#radial-gradient-18);}.cls-37{fill:url(#radial-gradient-19);}.cls-38{fill:url(#radial-gradient-20);}.cls-39{fill:#6e8c56;}.cls-40{fill:#829155;}.cls-41{fill:#587445;}.cls-42{fill:url(#radial-gradient-21);}.cls-43{fill:url(#radial-gradient-22);}.cls-44{fill:url(#radial-gradient-23);}.cls-45{fill:url(#radial-gradient-24);}.cls-46{fill:url(#radial-gradient-25);}.cls-47{fill:url(#radial-gradient-26);}.cls-48{fill:url(#radial-gradient-27);}.cls-49{fill:url(#radial-gradient-28);}.cls-50{fill:url(#radial-gradient-29);}.cls-51{fill:url(#radial-gradient-30);}.cls-52{fill:url(#radial-gradient-31);}.cls-53{fill:url(#radial-gradient-32);}.cls-54{fill:url(#radial-gradient-33);}.cls-55{fill:url(#radial-gradient-34);}.cls-56{fill:url(#radial-gradient-35);}.cls-57{fill:url(#radial-gradient-36);}.cls-58{fill:url(#radial-gradient-37);}.cls-59{fill:url(#radial-gradient-38);}.cls-60{fill:url(#radial-gradient-39);}.cls-61{fill:#5b7747;}.cls-62{fill:url(#radial-gradient-40);}.cls-63{fill:#ce313b;}.cls-64{fill:url(#radial-gradient-41);}.cls-65{fill:url(#radial-gradient-42);}.cls-66{fill:url(#radial-gradient-43);}.cls-67{fill:url(#radial-gradient-44);}.cls-68{fill:url(#radial-gradient-45);}.cls-69{fill:url(#radial-gradient-46);}.cls-70{fill:url(#radial-gradient-47);}.cls-71{fill:url(#radial-gradient-48);}.cls-72{fill:url(#radial-gradient-49);}.cls-73{fill:url(#radial-gradient-50);}.cls-74{fill:url(#radial-gradient-51);}.cls-75{fill:url(#radial-gradient-52);}.cls-76{fill:url(#radial-gradient-53);}.cls-77{fill:url(#radial-gradient-54);}.cls-78{fill:url(#radial-gradient-55);}.cls-79{fill:url(#radial-gradient-56);}.cls-80{fill:url(#radial-gradient-57);}.cls-81{fill:url(#radial-gradient-58);}.cls-82{fill:url(#radial-gradient-59);}.cls-83{fill:url(#radial-gradient-60);}.cls-84{fill:url(#radial-gradient-61);}.cls-85{fill:url(#radial-gradient-62);}.cls-86{fill:url(#radial-gradient-63);}.cls-87{opacity:0.18;}.cls-88{fill:#2e1b1d;}.cls-89{fill:#f9a51a;}.cls-90{opacity:0.43;fill:url(#linear-gradient);}.cls-91{fill:#885210;opacity:0.12;}.cls-92{fill:#9d4b9c;}.cls-93{fill:#1e3b1b;}.cls-94{fill:#d76faa;}.cls-95{stroke:#d878af;}.cls-95,.cls-97,.cls-99{stroke-linecap:round;}.cls-95,.cls-97{stroke-width:1.444px;}.cls-96{fill:#a6a0ce;}.cls-97{stroke:#a4afd8;}.cls-98{fill:#babadd;}.cls-99{stroke:#231f20;stroke-width:0.409px;}.cls-100{fill:#f06181;}.cls-101{fill:#8d5883;}.cls-102{fill:#3d52a3;}</style><radialGradient id="radial-gradient" cx="-1084.254" cy="4619.058" r="1.312" gradientTransform="matrix(0.404, -0.992, -0.942, -0.385, 4897.51, 745.107)" gradientUnits="userSpaceOnUse"><stop offset="0.048" stop-color="#d6b089"/><stop offset="0.57" stop-color="#c4545a"/><stop offset="0.661" stop-color="#c14451"/><stop offset="1" stop-color="#be2631"/></radialGradient><radialGradient id="radial-gradient-2" cx="-1082.677" cy="4619.965" r="1.659" xlink:href="#radial-gradient"/><radialGradient id="radial-gradient-3" cx="-1080.862" cy="4621.079" r="1.464" xlink:href="#radial-gradient"/><radialGradient id="radial-gradient-4" cx="-1083.125" cy="4622.372" r="1.433" xlink:href="#radial-gradient"/><radialGradient id="radial-gradient-5" cx="-1080.954" cy="4623.414" r="1.207" xlink:href="#radial-gradient"/><radialGradient id="radial-gradient-6" cx="-1079.054" cy="4622.052" r="1.463" xlink:href="#radial-gradient"/><radialGradient id="radial-gradient-7" cx="-1084.924" cy="4621.439" r="1.219" xlink:href="#radial-gradient"/><radialGradient id="radial-gradient-8" cx="-1082.97" cy="4624.45" r="1.303" xlink:href="#radial-gradient"/><radialGradient id="radial-gradient-9" cx="-1084.388" cy="4623.1" r="1.435" xlink:href="#radial-gradient"/><radialGradient id="radial-gradient-10" cx="-1085.837" cy="4623.146" r="1.248" xlink:href="#radial-gradient"/><radialGradient id="radial-gradient-11" cx="-1081.531" cy="4625.416" r="1.013" xlink:href="#radial-gradient"/><radialGradient id="radial-gradient-12" cx="-1079.811" cy="4624.396" r="1.165" xlink:href="#radial-gradient"/><radialGradient id="radial-gradient-13" cx="-1085.497" cy="4625.192" r="1.018" xlink:href="#radial-gradient"/><radialGradient id="radial-gradient-14" cx="-1086.45" cy="4624.427" r="0.888" xlink:href="#radial-gradient"/><radialGradient id="radial-gradient-15" cx="-1085.928" cy="4620.852" r="1.248" xlink:href="#radial-gradient"/><radialGradient id="radial-gradient-16" cx="-1084.501" cy="4625.631" r="1.057" xlink:href="#radial-gradient"/><radialGradient id="radial-gradient-17" cx="-1086.45" cy="4622.199" r="0.675" xlink:href="#radial-gradient"/><radialGradient id="radial-gradient-18" cx="-1083.46" cy="4626.413" r="0.745" xlink:href="#radial-gradient"/><radialGradient id="radial-gradient-19" cx="-1082.274" cy="4626.657" r="0.663" xlink:href="#radial-gradient"/><radialGradient id="radial-gradient-20" cx="-721.018" cy="4883.369" r="1.038" gradientTransform="matrix(0.234, -1.044, -0.998, -0.207, 5149.876, 291.05)" xlink:href="#radial-gradient"/><radialGradient id="radial-gradient-21" cx="2139.132" cy="131.736" r="1.311" gradientTransform="matrix(-1.437, -0.631, -0.519, 1.468, 3263.151, 1186.499)" xlink:href="#radial-gradient"/><radialGradient id="radial-gradient-22" cx="2140.708" cy="132.643" r="1.658" gradientTransform="matrix(-1.437, -0.631, -0.519, 1.468, 3263.151, 1186.499)" xlink:href="#radial-gradient"/><radialGradient id="radial-gradient-23" cx="2142.522" cy="133.757" r="1.464" gradientTransform="matrix(-1.437, -0.631, -0.519, 1.468, 3263.151, 1186.499)" xlink:href="#radial-gradient"/><radialGradient id="radial-gradient-24" cx="2140.259" cy="135.05" r="1.434" gradientTransform="matrix(-1.437, -0.631, -0.519, 1.468, 3263.151, 1186.499)" xlink:href="#radial-gradient"/><radialGradient id="radial-gradient-25" cx="2142.43" cy="136.093" r="1.207" gradientTransform="matrix(-1.437, -0.631, -0.519, 1.468, 3263.151, 1186.499)" xlink:href="#radial-gradient"/><radialGradient id="radial-gradient-26" cx="2144.33" cy="134.731" r="1.463" gradientTransform="matrix(-1.437, -0.631, -0.519, 1.468, 3263.151, 1186.499)" xlink:href="#radial-gradient"/><radialGradient id="radial-gradient-27" cx="2138.461" cy="134.118" r="1.22" gradientTransform="matrix(-1.437, -0.631, -0.519, 1.468, 3263.151, 1186.499)" xlink:href="#radial-gradient"/><radialGradient id="radial-gradient-28" cx="2140.413" cy="137.13" r="1.303" gradientTransform="matrix(-1.437, -0.631, -0.519, 1.468, 3263.151, 1186.499)" xlink:href="#radial-gradient"/><radialGradient id="radial-gradient-29" cx="2138.996" cy="135.779" r="1.435" gradientTransform="matrix(-1.437, -0.631, -0.519, 1.468, 3263.151, 1186.499)" xlink:href="#radial-gradient"/><radialGradient id="radial-gradient-30" cx="2137.547" cy="135.825" r="1.248" gradientTransform="matrix(-1.437, -0.631, -0.519, 1.468, 3263.151, 1186.499)" xlink:href="#radial-gradient"/><radialGradient id="radial-gradient-31" cx="2141.852" cy="138.094" r="1.013" gradientTransform="matrix(-1.437, -0.631, -0.519, 1.468, 3263.151, 1186.499)" xlink:href="#radial-gradient"/><radialGradient id="radial-gradient-32" cx="2143.573" cy="137.074" r="1.165" gradientTransform="matrix(-1.437, -0.631, -0.519, 1.468, 3263.151, 1186.499)" xlink:href="#radial-gradient"/><radialGradient id="radial-gradient-33" cx="2137.888" cy="137.87" r="1.018" gradientTransform="matrix(-1.437, -0.631, -0.519, 1.468, 3263.151, 1186.499)" xlink:href="#radial-gradient"/><radialGradient id="radial-gradient-34" cx="2136.935" cy="137.106" r="0.887" gradientTransform="matrix(-1.437, -0.631, -0.519, 1.468, 3263.151, 1186.499)" xlink:href="#radial-gradient"/><radialGradient id="radial-gradient-35" cx="2137.457" cy="133.531" r="1.248" gradientTransform="matrix(-1.437, -0.631, -0.519, 1.468, 3263.151, 1186.499)" xlink:href="#radial-gradient"/><radialGradient id="radial-gradient-36" cx="2138.884" cy="138.31" r="1.058" gradientTransform="matrix(-1.437, -0.631, -0.519, 1.468, 3263.151, 1186.499)" xlink:href="#radial-gradient"/><radialGradient id="radial-gradient-37" cx="2136.934" cy="134.877" r="0.675" gradientTransform="matrix(-1.437, -0.631, -0.519, 1.468, 3263.151, 1186.499)" xlink:href="#radial-gradient"/><radialGradient id="radial-gradient-38" cx="2139.924" cy="139.092" r="0.744" gradientTransform="matrix(-1.437, -0.631, -0.519, 1.468, 3263.151, 1186.499)" xlink:href="#radial-gradient"/><radialGradient id="radial-gradient-39" cx="2141.11" cy="139.336" r="0.663" gradientTransform="matrix(-1.437, -0.631, -0.519, 1.468, 3263.151, 1186.499)" xlink:href="#radial-gradient"/><radialGradient id="radial-gradient-40" cx="1671.859" cy="-94.948" r="1.038" gradientTransform="matrix(-1.505, -0.367, -0.262, 1.556, 2601.177, 791.921)" xlink:href="#radial-gradient"/><radialGradient id="radial-gradient-41" cx="-233.184" cy="1406.529" r="0.375" gradientTransform="matrix(-1.139, -3.961, -4.101, 0.641, 5630.999, -1784.364)" xlink:href="#radial-gradient"/><radialGradient id="radial-gradient-42" cx="-232.732" cy="1406.789" r="0.474" gradientTransform="matrix(-1.139, -3.961, -4.101, 0.641, 5630.999, -1784.364)" xlink:href="#radial-gradient"/><radialGradient id="radial-gradient-43" cx="-232.214" cy="1407.107" r="0.419" gradientTransform="matrix(-1.139, -3.961, -4.101, 0.641, 5630.999, -1784.364)" xlink:href="#radial-gradient"/><radialGradient id="radial-gradient-44" cx="-232.861" cy="1407.477" r="0.41" gradientTransform="matrix(-1.139, -3.961, -4.101, 0.641, 5630.999, -1784.364)" xlink:href="#radial-gradient"/><radialGradient id="radial-gradient-45" cx="-232.24" cy="1407.775" r="0.345" gradientTransform="matrix(-1.139, -3.961, -4.101, 0.641, 5630.999, -1784.364)" xlink:href="#radial-gradient"/><radialGradient id="radial-gradient-46" cx="-231.696" cy="1407.386" r="0.418" gradientTransform="matrix(-1.139, -3.961, -4.101, 0.641, 5630.999, -1784.364)" xlink:href="#radial-gradient"/><radialGradient id="radial-gradient-47" cx="-233.375" cy="1407.21" r="0.348" gradientTransform="matrix(-1.139, -3.961, -4.101, 0.641, 5630.999, -1784.364)" xlink:href="#radial-gradient"/><radialGradient id="radial-gradient-48" cx="-232.817" cy="1408.072" r="0.373" gradientTransform="matrix(-1.139, -3.961, -4.101, 0.641, 5630.999, -1784.364)" xlink:href="#radial-gradient"/><radialGradient id="radial-gradient-49" cx="-233.222" cy="1407.686" r="0.411" gradientTransform="matrix(-1.139, -3.961, -4.101, 0.641, 5630.999, -1784.364)" xlink:href="#radial-gradient"/><radialGradient id="radial-gradient-50" cx="-233.637" cy="1407.699" r="0.357" gradientTransform="matrix(-1.139, -3.961, -4.101, 0.641, 5630.999, -1784.364)" xlink:href="#radial-gradient"/><radialGradient id="radial-gradient-51" cx="-232.405" cy="1408.348" r="0.29" gradientTransform="matrix(-1.139, -3.961, -4.101, 0.641, 5630.999, -1784.364)" xlink:href="#radial-gradient"/><radialGradient id="radial-gradient-52" cx="-231.913" cy="1408.056" r="0.333" gradientTransform="matrix(-1.139, -3.961, -4.101, 0.641, 5630.999, -1784.364)" xlink:href="#radial-gradient"/><radialGradient id="radial-gradient-53" cx="-233.539" cy="1408.284" r="0.291" gradientTransform="matrix(-1.139, -3.961, -4.101, 0.641, 5630.999, -1784.364)" xlink:href="#radial-gradient"/><radialGradient id="radial-gradient-54" cx="-233.812" cy="1408.065" r="0.254" gradientTransform="matrix(-1.139, -3.961, -4.101, 0.641, 5630.999, -1784.364)" xlink:href="#radial-gradient"/><radialGradient id="radial-gradient-55" cx="-233.662" cy="1407.042" r="0.357" gradientTransform="matrix(-1.139, -3.961, -4.101, 0.641, 5630.999, -1784.364)" xlink:href="#radial-gradient"/><radialGradient id="radial-gradient-56" cx="-233.255" cy="1408.41" r="0.303" gradientTransform="matrix(-1.139, -3.961, -4.101, 0.641, 5630.999, -1784.364)" xlink:href="#radial-gradient"/><radialGradient id="radial-gradient-57" cx="-233.812" cy="1407.428" r="0.193" gradientTransform="matrix(-1.139, -3.961, -4.101, 0.641, 5630.999, -1784.364)" xlink:href="#radial-gradient"/><radialGradient id="radial-gradient-58" cx="-232.957" cy="1408.633" r="0.213" gradientTransform="matrix(-1.139, -3.961, -4.101, 0.641, 5630.999, -1784.364)" xlink:href="#radial-gradient"/><radialGradient id="radial-gradient-59" cx="-232.617" cy="1408.703" r="0.19" gradientTransform="matrix(-1.139, -3.961, -4.101, 0.641, 5630.999, -1784.364)" xlink:href="#radial-gradient"/><radialGradient id="radial-gradient-60" cx="-446.974" cy="1571.455" r="0.297" gradientTransform="matrix(-1.834, -3.789, -3.84, 1.32, 5336.436, -3733.716)" xlink:href="#radial-gradient"/><radialGradient id="radial-gradient-61" cx="818.579" cy="-430.34" r="11.478" gradientTransform="matrix(-0.196, 0.995, -0.972, -0.201, -214.616, -777.62)" gradientUnits="userSpaceOnUse"><stop offset="0.004" stop-color="#e7f0cc"/><stop offset="0.473" stop-color="#c1c88b"/><stop offset="0.982" stop-color="#4b6d36"/></radialGradient><radialGradient id="radial-gradient-62" cx="816.517" cy="-431.21" r="14.371" gradientTransform="matrix(-0.196, 0.995, -0.972, -0.201, -218.1, -775.967)" gradientUnits="userSpaceOnUse"><stop offset="0.004" stop-color="#e7f0cc"/><stop offset="0.473" stop-color="#c1c88b"/><stop offset="0.982" stop-color="#77a054"/></radialGradient><radialGradient id="radial-gradient-63" cx="815.947" cy="-438.423" r="19.001" gradientTransform="matrix(-0.196, 0.995, -0.972, -0.201, -227.953, -783.67)" gradientUnits="userSpaceOnUse"><stop offset="0.255" stop-color="#ee4555"/><stop offset="0.745" stop-color="#ef9da6"/><stop offset="1" stop-color="#e7f0cc"/></radialGradient><linearGradient id="linear-gradient" x1="21.806" y1="77.149" x2="34.741" y2="77.149" gradientUnits="userSpaceOnUse"><stop offset="0" stop-color="#fff"/><stop offset="1" stop-color="#fff" stop-opacity="0"/></linearGradient></defs><rect class="cls-1" x="14" y="14" width="132" height="132"/><circle class="cls-2" cx="81.331" cy="82.653" r="31.048"/><path class="cls-3" d="M48.843,23.509s.3-.128,1.08.427,8.194,7.683,8.194,7.683a29.616,29.616,0,0,1,3.538.513c.484.214,3.91.6,4.99,1.324s3.092,3.115,3.092,4.481.41,3.927.149,4.311a5.92,5.92,0,0,1-1.937,1.067,5.612,5.612,0,0,1-1.527.128s-.261-7.9-5.736-7.47-5.1,7.726-5.1,7.726l-16.8-.17s-.223-7.9-5.512-7.556-4.99,7.6-4.99,7.6l-2.421-.129a64.453,64.453,0,0,1,1.9-6.274,2.7,2.7,0,0,0,.485-1.922,15.012,15.012,0,0,1,.112-3.2c.223-.853,2.905-7.47,2.905-7.47s-.224-.47,1.042-.853S48.843,23.509,48.843,23.509Z"/><path class="cls-4" d="M52.231,28.925l.821,2.1H40.314l-.042-6.116s8.069-.452,9.807.857A10.209,10.209,0,0,1,52.231,28.925Z"/><path class="cls-4" d="M39.361,25.041l-.015,6.28-6.033-.085.819-3.416a3.485,3.485,0,0,1,1.091-1.785C36.191,25.1,39.361,25.041,39.361,25.041Z"/><path class="cls-4" d="M31.078,25.174s1.377-.47,1.416.725-1.6,4.953-1.6,4.953l-.558.725-1.9.17Z"/><path class="cls-5" d="M40.128,32.3s.075,7.426.485,8.366,1.042,1.238,2.494,1.323,10.913.043,10.913.043a6.476,6.476,0,0,0,.931-4.183c-.447-2.007-.746-5.208-.746-5.208"/><path class="cls-6" d="M67.851,34.437l-1.75.171,1.34,1.835a1.805,1.805,0,0,0,.633.555,5.778,5.778,0,0,0,1.639.085Z"/><path class="cls-5" d="M37.968,36.912s-2.384-2.56-5.028-2.347a6.442,6.442,0,0,0-4.468,1.921,6.143,6.143,0,0,0-1.155,2.177"/><path class="cls-7" d="M53.35,29.955l-.15,2.006s1.751.214,2.2-.384.448-1.2-.223-1.409A7.772,7.772,0,0,0,53.35,29.955Z"/><path class="cls-5" d="M67.949,42.419s-.1-6.781-5.474-7.427c-6.034-.726-6.407,2.134-7.337,4.311a7.561,7.561,0,0,0-.522,3.713"/><path class="cls-6" d="M69.568,38.386s-1.042,0-1.1.3.02.406.317.427a6.016,6.016,0,0,0,.95-.086Z"/><path class="cls-5" d="M43.182,33.071a.478.478,0,0,0-.354-.512c-.391-.086-1.452-.043-1.564.342s.149.34.149.34Z"/><path class="cls-8" d="M28.341,32.644s.651-.512.987-.448.968.234.744.64-1.657.257-1.657.257Z"/><path class="cls-9" d="M28.472,33.625s-.392.514.055.769,1.341.278,1.415-.064-.149-.725-.447-.725S28.472,33.625,28.472,33.625Z"/><path class="cls-10" d="M57.418,41.488a3.729,3.729,0,1,0,3.707-4.135A3.938,3.938,0,0,0,57.418,41.488Z"/><path class="cls-11" d="M62.107,37.754,61.2,40.849l-.521-.043-.783-3.265S61.363,37.135,62.107,37.754Z"/><path class="cls-11" d="M63.727,39.141l-2.383,1.814.168.812,2.793-.043a5.619,5.619,0,0,0-.149-1.665A6.9,6.9,0,0,0,63.727,39.141Z"/><path class="cls-11" d="M60.426,40.685l-2.558-1.729a3.237,3.237,0,0,0-.5,1.451c0,.684.039,1.217.039,1.217l3.1-.171Z"/><path class="cls-11" d="M63.715,43.758l-2.327-1.9-.447.277.782,3.052a3.77,3.77,0,0,0,.987-.448C62.989,44.505,63.715,43.758,63.715,43.758Z"/><path class="cls-11" d="M60.829,42.062l-.936,3.062a10.794,10.794,0,0,1-1.236-.634,3.053,3.053,0,0,1-.838-.985l2.492-1.838Z"/><path class="cls-11" d="M60.134,41.478a.773.773,0,1,0,.773-.8A.787.787,0,0,0,60.134,41.478Z"/><path class="cls-12" d="M56.074,41.4c0,3.006,2.16,5.442,4.823,5.442S65.72,44.41,65.72,41.4s-2.159-5.443-4.823-5.443S56.074,38.4,56.074,41.4Zm1.416,0a3.439,3.439,0,1,1,6.815,0,3.439,3.439,0,1,1-6.815,0Z"/><path class="cls-10" d="M29.987,41.488a3.938,3.938,0,0,0,3.707,4.135,4.16,4.16,0,0,0,0-8.27A3.939,3.939,0,0,0,29.987,41.488Z"/><path class="cls-11" d="M34.677,37.754l-.913,3.095-.521-.043-.782-3.265S33.932,37.135,34.677,37.754Z"/><path class="cls-11" d="M36.3,39.141l-2.383,1.814.166.812,2.794-.043a5.619,5.619,0,0,0-.149-1.665A7.141,7.141,0,0,0,36.3,39.141Z"/><path class="cls-11" d="M33,40.685l-2.559-1.729a3.237,3.237,0,0,0-.5,1.451c0,.684.04,1.217.04,1.217l3.1-.171Z"/><path class="cls-11" d="M36.284,43.758l-2.327-1.9-.447.277.782,3.052a3.755,3.755,0,0,0,.987-.448C35.558,44.505,36.284,43.758,36.284,43.758Z"/><path class="cls-11" d="M33.4,42.062l-.936,3.062a10.794,10.794,0,0,1-1.236-.634,3.053,3.053,0,0,1-.838-.985l2.492-1.838Z"/><path class="cls-11" d="M32.7,41.478a.773.773,0,1,0,.773-.8A.787.787,0,0,0,32.7,41.478Z"/><path class="cls-12" d="M28.643,41.4c0,3.006,2.16,5.442,4.824,5.442s4.822-2.436,4.822-5.442-2.159-5.443-4.822-5.443S28.643,38.4,28.643,41.4Zm1.416,0A3.682,3.682,0,0,1,33.466,37.5,3.683,3.683,0,0,1,36.874,41.4a3.683,3.683,0,0,1-3.408,3.906A3.682,3.682,0,0,1,30.059,41.4Z"/><path class="cls-13" d="M120.486,131.693s-.217,2.748-.178,3.248a6.1,6.1,0,0,0,.4,1.636c.139.25-.1.614-.1.614s.517,1.044.4,1.34-.555.182-.555.182.1.067-.377.135-1.071-.2-1.091-.59a3.366,3.366,0,0,0-.337-1.453c-.2-.183-.356-.479-.2-.66s.336-.158.218-.818-.14-3.5-.14-3.5Z"/><path class="cls-5" d="M120.618,137.206a1.986,1.986,0,0,0-1.39.3"/><path class="cls-13" d="M115.84,132.752a18.587,18.587,0,0,1,.054,2.556,18.422,18.422,0,0,0-.172,2.336,9.822,9.822,0,0,0,.412,2.247.809.809,0,0,1-.275,1.04c-.314.142-.394-.427-.569-.142s-.275.142-.669.118-.412-.8-.471-1.134a2.335,2.335,0,0,0-.333-.922,15.847,15.847,0,0,0,.589-1.844,8.377,8.377,0,0,0-.256-1.559,15.5,15.5,0,0,1,.059-2.719Z"/><path class="cls-5" d="M115.884,139.067a1.655,1.655,0,0,0-1.553.421"/><path class="cls-13" d="M128.792,132.48a15.524,15.524,0,0,0-.534,3.072,11.4,11.4,0,0,0,.449,3.546c.3.543,1.539,1.866.983,2.081s-1.111-.1-1.324.046-.3.165-.47.023-.77-.307-.9-.662a.959.959,0,0,0-.468-.566c-.065,0-.129-.425-.044-.946a11.075,11.075,0,0,0,.107-2.269,6.262,6.262,0,0,1-.085-1.891c.085-.5.064-2.624.064-2.624Z"/><path class="cls-5" d="M128.954,139.341c-.642-.345-1.138.367-1.665.631"/><path class="cls-13" d="M132.243,130.092s-.132,4.971-.093,5.471a6.117,6.117,0,0,0,.4,1.636c.139.249-.1.613-.1.613s.517,1.046.4,1.34-.557.182-.557.182.1.068-.376.137-1.071-.206-1.09-.592a3.384,3.384,0,0,0-.338-1.453c-.2-.182-.356-.479-.2-.659s.336-.158.218-.818-.386-6.391-.386-6.391Z"/><path class="cls-5" d="M132.461,137.828a1.985,1.985,0,0,0-1.391.3"/><path class="cls-14" d="M111.288,124.047a1.967,1.967,0,0,1-.683-.988c-.076-.513.607-1.105.38-1.105s-.343-1.184.113-2.369a4.993,4.993,0,0,0,.494-2.29,2.271,2.271,0,0,1,.418-1.974c.608-.553,1.026-.275,1.215-.553s-.568-.395.494-1.026a3.167,3.167,0,0,1,2.28-.276s-.114-.593.722-1.106,1.444.79,1.444.79-.206-.847.9-1.4,1.8.965,1.8.965a1.744,1.744,0,0,1,1.216-.947c.836-.119,1.557,1.066,1.557,1.066s.342-.158.759-.4,1.559.434,1.559.434a2.539,2.539,0,0,1,1.529-.743c.806,0,1.978,1.066,1.978,1.066s5.2-1.6,6.151-.837,3,2.435,3,2.435l.559.883s.8.986.532,1.618.494,1.342.266,1.777,1.254,1.619.3,2.053-.19,1.145-.95,1.381-.114,1.62-.949,1.383-.457,1.342-1.1,1.184-1.52,1.7-1.52,1.7.95,1.3-.19,1.7.152,1.619-.721,1.5-1.406,1.3-2.052.947a1.465,1.465,0,0,0-2.166.751c-.379,1.1-.418,1.816-1.291,1.7s-.722,0-.988-.276.456.276-.456.473-1.861.277-1.975-.118-.647-.632-.723-.869a4.994,4.994,0,0,0-1.541-1.337c-.227,0-.651.713-1.83,1.227a5.766,5.766,0,0,1-3.556.355,5.285,5.285,0,0,1-3.378.926c-1.611-.3-1.978-2.207-1.978-2.207s-1.977-1.827-1.977-2.588S109.3,124.09,111.288,124.047Z"/><path class="cls-13" d="M139.144,113.692a5.555,5.555,0,0,1,2.679-1.007c1.026.119,1.88.593,1.539,1.155a3.635,3.635,0,0,1-2.65,1.333,5.3,5.3,0,0,1-1.767-.267,12.37,12.37,0,0,1-.256,2.813c-.257.474-.484.563-.4,1.185s.37,2.724-.8,3.257-1.852.237-2.308-.681-.627-1.362-.627-1.362a11.509,11.509,0,0,1-1.595-2.576,5.405,5.405,0,0,1-.542-2.222c0-.147-.826,1.126-1.709.741s-2.393-.77-2.422-1.244.542-1.243,1.852-1.184a4.668,4.668,0,0,1,1.938.414s1.025-2.339,2.707-2.161,3.618-.3,3.817.237S139.144,113.692,139.144,113.692Z"/><path class="cls-15" d="M138.6,115.676s-.285-.059-.455.326-.371.652.142.5S139.031,115.706,138.6,115.676Z"/><path class="cls-5" d="M137.52,120.029s.2.622-.142.622-.4.237-.655.148-.8-.237-.8-.385v-.326"/><path class="cls-5" d="M135.868,121.184a1.3,1.3,0,0,0,2.08-.3"/><path class="cls-14" d="M136.466,114.329s.2.326.413.267.243-.386.243-.386.357.429.713.223.17-.459.17-.459.542.162.712,0a.337.337,0,0,0,.03-.4s.483.134.654-.163a.718.718,0,0,0-.071-.667s.327-.37.185-.71-.584-.252-.584-.252a.554.554,0,0,0-.271-.562.47.47,0,0,0-.569,0,.6.6,0,0,0-.371-.534.739.739,0,0,0-.655.045s-.414-.636-.969-.489a1.069,1.069,0,0,0-.7.43s-.584-.3-.841-.059-.213.384-.213.384-.769-.221-1.111.089a.576.576,0,0,0-.171.667s-.727-.444-.927.044a.581.581,0,0,0,.144.725s-.542.4-.385.77.413.371.413.371-.271.444.1.681a.6.6,0,0,0,.669.015s.014.266.384.4a.906.906,0,0,0,.77-.207s-.072.474.357.548.612-.429.612-.429.028.636.47.458a.7.7,0,0,0,.37-.725s0,.488.3.4S136.466,114.329,136.466,114.329Z"/><path class="cls-5" d="M142.35,114c.435-1.087-2.286-.673-2.706.03"/><path class="cls-5" d="M136.851,120.784c0,.287,0,.573.015.859"/><path class="cls-5" d="M133.546,116.076c1.191.068,1.095,1.7,1.311,2.457"/><path class="cls-5" d="M138.874,115.543c-.832-.046-.911.823-1,1.421"/><path class="cls-5" d="M131.951,115.232c.078-.741-.912-.83-1.394-.847-.644-.024-1.075-.072-1.513.447"/><path class="cls-5" d="M138.418,112.33c.536.218.164,1.043-.311.727.458.4-.14.5-.444.436.24.561-.442.717-.441.2.038.471-.525.582-.627.085"/><path class="cls-5" d="M134.258,112.182c-.242-.637.238-.848.758-.539-.169-.615.9-.844.938-.18-.028-.479.684-.245.613.186"/><path class="cls-5" d="M132.976,112.389a.388.388,0,0,0-.255.683.065.065,0,0,0,.02,0c-.436.174.113.838.423.488l0-.023c-.192.841,1.14.534,1.368.068"/><path class="cls-5" d="M122.163,128.08c.4.6.239,1.459-.6,1.435a.774.774,0,0,1-.686,1.091c.537,1.057-1.324,2.082-2.052,1.674a1.32,1.32,0,0,1-2.433-.253"/><path class="cls-16" d="M138.014,116.239a.266.266,0,1,0,.256-.338C138.128,115.9,138.014,116.052,138.014,116.239Z"/><path class="cls-15" d="M133.875,116.326s.286-.059.457.326.37.651-.143.5S133.448,116.356,133.875,116.326Z"/><path class="cls-16" d="M134.466,116.89a.267.267,0,1,1-.257-.339A.305.305,0,0,1,134.466,116.89Z"/><path class="cls-17" d="M109.652,37.505a3.831,3.831,0,0,1-.168,1.152c-.137.459.2.554.146.78s.026,1.032-.544,1.334a1.989,1.989,0,0,1-1.21.042s-.735.906-1.578.6c-.552-.2-.791-.325-.791-.325a.9.9,0,0,1-.777.117c-.266-.134-.788-.49-.788-.49a2.452,2.452,0,0,1-1.32-.272,1.239,1.239,0,0,1-.527-1.171s-.436-.3-.412-.587a1.754,1.754,0,0,1,.106-.494s-.387-.458-.322-.7a3.52,3.52,0,0,1,.126-.385.685.685,0,0,1-.083-.736,2.972,2.972,0,0,0,.232-.876c.092-.466.857-1.092.857-1.092l.52-.188a2.781,2.781,0,0,1,.632-1.082.581.581,0,0,1,.69-.051s.021-.442.647-.655a1.48,1.48,0,0,1,1.319.236,1.728,1.728,0,0,1,.74-.919c.487-.22,1.006-.357,1.411.209.148.207.218.457.392.678.3.391.423.454.478.816.031.208-.358.713-.122,1.005a1.506,1.506,0,0,1,.452.98c.02.52-.466.958-.478,1.119C109.271,36.639,109.653,37.229,109.652,37.505Z"/><path class="cls-18" d="M107.5,40.727a.685.685,0,0,1-.425-.913,1.927,1.927,0,0,1,1.656-1.1c.561.029.98.4.877.894a2.237,2.237,0,0,1-.415,1.054C108.889,40.943,107.879,40.846,107.5,40.727Z"/><path class="cls-19" d="M109.211,38.4a1.047,1.047,0,0,0,.438-.961c-.051-.658-.979-.918-1.5-.9a1.412,1.412,0,0,0-1.365,1.319c-.054.916.982.987.982.987a5.856,5.856,0,0,0,.668-.077C109.139,38.65,109.211,38.4,109.211,38.4Z"/><path class="cls-20" d="M107.155,36.533a1.405,1.405,0,0,1-.489-1.073c.06-.61.707-.763,1.509-.887,1.512-.236,1.516.518,1.556.9.085.806-.786.95-.786.95a6.572,6.572,0,0,1-.759.226A2.341,2.341,0,0,1,107.155,36.533Z"/><path class="cls-21" d="M106.611,36.11a2.381,2.381,0,0,0-1-.042c-.365.12-.926.324-.454,1.354a1.034,1.034,0,0,0,1.993.061A1.073,1.073,0,0,0,106.611,36.11Z"/><path class="cls-22" d="M106.923,34.8s-.285-.785-.851-.883-1.047.543-1.2,1.22.334.741.334.741a.652.652,0,0,0,.819.132c.424-.3.458-.3.636-.546S107.017,35.068,106.923,34.8Z"/><path class="cls-23" d="M108.175,34.573a1.967,1.967,0,0,0,.572-.353,1.229,1.229,0,0,0-.051-1.83,2.058,2.058,0,0,0-2.059,1.152c-.248.767.343.877.343.877S107.264,34.97,108.175,34.573Z"/><path class="cls-24" d="M106.715,38.429c-.239-.19-1-.124-1-.124a1.056,1.056,0,0,0-.513,1.03c.014.959,1.4.941,1.4.941s.229.06.592-.6S107.329,38.913,106.715,38.429Z"/><path class="cls-25" d="M104.7,35.493a6.707,6.707,0,0,0-1.483.365c-.336.2-.872.514-.074,1.277.584.558,1.714-.037,1.714-.037a1.019,1.019,0,0,0,.36-.489A.988.988,0,0,0,104.7,35.493Z"/><path class="cls-26" d="M104.807,39.289s-.962.177-1.355-.419.462-1.452.462-1.452a2.5,2.5,0,0,1,1.055-.2c.331.084.614.754.724,1.15.082.3-.376.768-.886.926"/><path class="cls-27" d="M103.67,39.193s-.678-.21-.352.628,1.372.694,1.372.694.794.007.755-.564-.233-.562-.435-.611S103.67,39.193,103.67,39.193Z"/><path class="cls-28" d="M104.723,34.214a2.431,2.431,0,0,0-1.075-.2c-.328.1-.476.072-.732.7s.058.794.058.794.041.135.588.158,1.042.056,1.217-.258.312-.609.095-.9S104.723,34.214,104.723,34.214Z"/><path class="cls-29" d="M108.746,39.963c-.319.019-.632.059-.628.313a.509.509,0,0,0,.586.43.555.555,0,0,0,.571-.492C109.272,39.96,109.067,39.947,108.746,39.963Z"/><path class="cls-29" d="M108.716,37.89c-.32.019-.691,0-.685.257a.51.51,0,0,0,.586.431.555.555,0,0,0,.569-.493C109.182,37.828,109.037,37.875,108.716,37.89Z"/><path class="cls-29" d="M106.58,39.344c-.318.019-.735,0-.731.256a.508.508,0,0,0,.585.43.552.552,0,0,0,.57-.5C107,39.28,106.9,39.329,106.58,39.344Z"/><path class="cls-29" d="M106.386,37.325c-.319.016-.707-.039-.7.215a.509.509,0,0,0,.586.43.554.554,0,0,0,.57-.492C106.837,37.22,106.706,37.306,106.386,37.325Z"/><path class="cls-29" d="M108.581,35.878c-.32.016-.718.055-.715.309s.19.267.509.248.677-.2.672-.45S108.9,35.859,108.581,35.878Z"/><path class="cls-30" d="M105.187,34.137l-.392-.209a1.137,1.137,0,0,1-.382-.628.871.871,0,0,1,.682-.892,2.046,2.046,0,0,1,.749.038s.7.036.835.525a.977.977,0,0,1-.6,1.163A.859.859,0,0,1,105.187,34.137Z"/><path class="cls-29" d="M105.938,33.436c-.267.017-.7.07-.7.248s.232.226.5.212.565-.144.56-.326S106.2,33.422,105.938,33.436Z"/><path class="cls-29" d="M108.2,33.41a.559.559,0,0,0-.514.56c0,.254.153.2.472.183s.547-.468.543-.722S108.522,33.394,108.2,33.41Z"/><path class="cls-29" d="M106.351,34.968c-.232.094-.53.145-.464.343a.4.4,0,0,0,.545.187.443.443,0,0,0,.3-.527C106.661,34.773,106.583,34.873,106.351,34.968Z"/><path class="cls-29" d="M104.571,36.547c-.3.118-.816.073-.736.31a.5.5,0,0,0,.69.221.57.57,0,0,0,.407-.645C104.852,36.2,104.875,36.429,104.571,36.547Z"/><path class="cls-29" d="M104.392,34.935c-.233.095-.533.147-.464.345a.4.4,0,0,0,.545.186.449.449,0,0,0,.3-.527C104.7,34.742,104.624,34.841,104.392,34.935Z"/><path class="cls-31" d="M103.368,38.684c.105.884-.49.727-.432.746.4.112-.983.148-1.127-.629-.084-.455-.051-.658.326-.721S103.473,37.958,103.368,38.684Z"/><path class="cls-32" d="M103.627,40.433a.7.7,0,0,1-.77.053c-.466-.225-.812-.584-.695-.872s.868-.3,1.1.066A3.842,3.842,0,0,1,103.627,40.433Z"/><path class="cls-33" d="M107.674,40.916a1.084,1.084,0,0,1-1.081.511,1.2,1.2,0,0,1-1.052-.816c-.2-.448-.2-.766.082-.669a13.2,13.2,0,0,0,1.261.417A1.9,1.9,0,0,1,107.674,40.916Z"/><path class="cls-34" d="M103.52,37.641s-.089.651-.4.521-1.335-.078-1.541-.429.167-.686.566-.807S103.514,37.187,103.52,37.641Z"/><path class="cls-35" d="M105.523,40.89a.554.554,0,0,1-.729.3,1.364,1.364,0,0,1-.772-.6c-.058-.207.1-.142.3-.063a1.961,1.961,0,0,0,.731-.037S105.627,40.36,105.523,40.89Z"/><path class="cls-29" d="M104.748,39.923c-.251.014-.582,0-.579.172s.21.291.463.28.455-.162.452-.332S105,39.91,104.748,39.923Z"/><path class="cls-29" d="M106.941,41c-.251.013-.6-.17-.595,0s.209.294.461.28.456-.162.452-.328S107.194,40.988,106.941,41Z"/><path class="cls-36" d="M102.9,36.737s-1.194.55-1.379.138a.826.826,0,0,1,.443-1.006c.329-.186.742-.217.8.109S102.9,36.737,102.9,36.737Z"/><path class="cls-29" d="M102.455,36.393c-.159.065-.365.1-.312.245a.283.283,0,0,0,.38.158.318.318,0,0,0,.19-.387C102.661,36.259,102.611,36.331,102.455,36.393Z"/><path class="cls-29" d="M105.127,38.465c-.3.118-.816.073-.736.31a.5.5,0,0,0,.691.221.563.563,0,0,0,.4-.642C105.409,38.114,105.429,38.35,105.127,38.465Z"/><path class="cls-29" d="M103.136,40.229c-.153-.065-.324-.169-.363-.07s.049.231.2.293.308.033.349-.065S103.288,40.291,103.136,40.229Z"/><path class="cls-29" d="M102.886,38.971c-.155-.065-.327-.171-.368-.07s.051.231.2.293.311.033.35-.065S103.038,39.034,102.886,38.971Z"/><path class="cls-29" d="M102.98,37.7c-.167,0-.366-.028-.369.078s.13.193.3.188.3-.091.3-.2S103.146,37.7,102.98,37.7Z"/><path class="cls-37" d="M102.839,35.839s-.695.067-.908-.154a.39.39,0,0,1-.022-.529c.131-.165.518-.691.793-.7s.042.519.092.709S103.122,35.652,102.839,35.839Z"/><path class="cls-29" d="M102.628,35.425c-.166,0-.366-.025-.368.081s.132.189.3.187.3-.091.306-.2S102.8,35.423,102.628,35.425Z"/><path class="cls-38" d="M108.352,32.088a.938.938,0,0,0-1.466-.158c-.122.143-.372.529-.343.679.109.548.338.468.338.468a4.034,4.034,0,0,1,.839-.594,1.432,1.432,0,0,1,.784-.121.37.37,0,0,0-.107-.245"/><path class="cls-29" d="M107.851,32c-.179.008-.478.047-.474.192s.157.18.338.172.383-.112.38-.257S108.033,31.992,107.851,32Z"/><path class="cls-39" d="M109.363,36.6c7.468,0,16.218-3.6,17-11.987l.374-.341a3.41,3.41,0,0,0-.108.841c-.009.509-1.28,4.5-2.382,5.7a16.611,16.611,0,0,1-5.285,4.038,35.373,35.373,0,0,1-7.74,1.868,6.635,6.635,0,0,1-1.731-.09"/><path class="cls-39" d="M108.761,38.594s-.038,1.994,1.153,2.433,3.42-.388,3.42-.388-2.553-.113-2.87-.864-.639-1.688-.639-1.688,1.319,1.48,2.76.486,1.825-1.287,1.825-1.287l-4.746-.27s-.341-.6,1.153-1.8a16.955,16.955,0,0,1,3.119-1.9l-4.4,1.842a7.058,7.058,0,0,1,1.252-2.869,14.515,14.515,0,0,0,1.453-1.763l-3.336,3.231a6.389,6.389,0,0,1,.511-2.577,18.288,18.288,0,0,0,.859-4.1s-2.863,4.283-2.077,6.336C110.712,39.967,108.329,34.057,108.761,38.594Z"/><path class="cls-40" d="M109.35,36.987a1.349,1.349,0,0,0-.395-.875,3.456,3.456,0,0,0-2.411-.9,5.407,5.407,0,0,1-2.97-.713,18.3,18.3,0,0,1-1.043-1.643A6.042,6.042,0,0,0,104.7,34c1.222.317,1.988.119,2.955.407S109.912,34.908,109.35,36.987Z"/><path class="cls-41" d="M116.331,28.085c.829-1.148.8-1.3,0-2.5-.894-1.342.035-1.983.23-3.249a5.208,5.208,0,0,0-1.235,6"/><path class="cls-39" d="M116.431,27.86a1.587,1.587,0,0,0-1.44-.788c-1.3-.035-1.37-.648-1.37-.648l-.013-.847-.378-7-.6.251s.731,5.507.409,6.9c-.171.727-.062,1.453.853,1.581.469.066,1.427.13,1.34.484s-.836.828-.836.828"/><path class="cls-39" d="M118.358,28.9s1.607.062,2.227-.746.928-.663.844-2.065c-.04-.689-.356-.71-.009-1.292a1.27,1.27,0,0,1,.98-.6s-.2-.384-1.084-.475-.916.823-1.012,1.37-.036,1.484-.9,1.2c-.884-.291-1.41-.912-1.756.063a8.411,8.411,0,0,0-.4,1.419s-1.421-.559-1.569-.05c-.351,1.2-.647.2-1.568-.054s-.815-.406-1.55-.238-1.391.273-1.741-.371.608-.765,1.038-1.311a3.566,3.566,0,0,0,.369-1.851s-.209,1.134-.93,1.406-1.306.163-1.51,1.006,1.034,1.831,1.034,1.831a1.531,1.531,0,0,1-1.658-.337c-.7-.748-.673-1.23-.566-1.525s.841-.613.893-1.032.172-.071-.679.292a1.851,1.851,0,0,0-1.182,1.983c.048.955,1.233,2.358,2.4,2.039a24.966,24.966,0,0,1,3.879-.775,6.7,6.7,0,0,1,1.7.231A9.555,9.555,0,0,0,118.358,28.9Z"/><path class="cls-17" d="M116.811,28.243a5.22,5.22,0,0,1,1.662.263c.661.216.781-.318,1.112-.223s1.477-.038,1.932.849a3.4,3.4,0,0,1,.1,1.888,2.639,2.639,0,0,1,.907,2.46c-.274.86-.439,1.232-.439,1.232a1.5,1.5,0,0,1,.2,1.216c-.181.411-.673,1.225-.673,1.225a4.071,4.071,0,0,1-.341,2.059,1.669,1.669,0,0,1-1.661.817s-.408.68-.827.642a2.392,2.392,0,0,1-.71-.166s-.643.6-.99.5a4.449,4.449,0,0,1-.558-.2.92.92,0,0,1-1.056.126,4.213,4.213,0,0,0-1.263-.36c-.669-.145-1.6-1.337-1.6-1.337l-.286-.814a4.086,4.086,0,0,1-1.575-.986.969.969,0,0,1-.1-1.075s-.639-.035-.963-1.012a2.411,2.411,0,0,1,.292-2.058,2.606,2.606,0,0,1-1.347-1.154c-.33-.76-.549-1.569.25-2.2.292-.229.643-.339.96-.607.549-.473.634-.66,1.151-.748.3-.047,1.034.564,1.446.2a2.022,2.022,0,0,1,1.389-.7c.747-.028,1.392.727,1.624.751C115.579,28.835,116.412,28.241,116.811,28.243Z"/><path class="cls-42" d="M121.505,31.607s-.333,1.082-1.288.66a3.123,3.123,0,0,1-1.636-2.584c.023-.875.542-1.53,1.251-1.364a3.139,3.139,0,0,1,1.526.646A4.126,4.126,0,0,1,121.505,31.607Z"/><path class="cls-43" d="M118.1,28.934a1.52,1.52,0,0,0-1.39-.687c-.942.08-1.287,1.524-1.236,2.331a2.207,2.207,0,0,0,1.943,2.129c1.313.089,1.377-1.529,1.377-1.529a9.113,9.113,0,0,0-.132-1.041C118.471,29.046,118.1,28.934,118.1,28.934Z"/><path class="cls-44" d="M115.5,32.137a1.9,1.9,0,0,1-1.518.757c-.877-.092-1.121-1.1-1.328-2.354-.395-2.356.69-2.359,1.239-2.424,1.154-.132,1.392,1.227,1.392,1.227a9.984,9.984,0,0,1,.352,1.184A3.872,3.872,0,0,1,115.5,32.137Z"/><path class="cls-45" d="M114.917,32.982a3.958,3.958,0,0,0-.022,1.561c.183.572.5,1.449,1.959.714a1.925,1.925,0,0,0,.881-2.362,1.839,1.839,0,0,0-.865-.749C116.212,31.834,115.494,32.032,114.917,32.982Z"/><path class="cls-46" d="M113.023,32.495s-1.118.442-1.235,1.322.813,1.636,1.791,1.869,1.047-.524,1.047-.524a1.053,1.053,0,0,0,.166-1.277c-.439-.66-.445-.71-.806-.991S113.412,32.347,113.023,32.495Z"/><path class="cls-47" d="M112.658,30.54a3.264,3.264,0,0,0-.525-.892,1.669,1.669,0,0,0-2.624.074c-.308.747.614,2.822,1.725,3.214s1.244-.533,1.244-.533S113.259,31.96,112.658,30.54Z"/><path class="cls-48" d="M118.24,32.824a3.509,3.509,0,0,0-.142,1.558,1.552,1.552,0,0,0,1.5.8c1.376-.021,1.3-2.18,1.3-2.18s.078-.357-.875-.923S118.916,31.868,118.24,32.824Z"/><path class="cls-49" d="M114.106,35.964a11.512,11.512,0,0,0,.574,2.315c.294.522.766,1.363,1.833.118.779-.908-.111-2.673-.111-2.673a1.542,1.542,0,0,0-.718-.561A1.339,1.339,0,0,0,114.106,35.964Z"/><path class="cls-50" d="M119.543,35.8s.285,1.5-.555,2.113-2.095-.727-2.095-.727a4.23,4.23,0,0,1-.332-1.642c.109-.516,1.058-.959,1.62-1.127.43-.128,1.114.587,1.362,1.383"/><path class="cls-51" d="M119.445,37.574s-.276,1.058.912.548.949-2.135.949-2.135-.023-1.237-.832-1.177-.8.363-.865.677S119.445,37.574,119.445,37.574Z"/><path class="cls-52" d="M112.27,35.92a3.979,3.979,0,0,0-.256,1.678c.154.511.12.742,1.038,1.143s1.134-.088,1.134-.088.193-.064.2-.918.046-1.624-.41-1.9-.886-.488-1.294-.153S112.27,35.92,112.27,35.92Z"/><path class="cls-29" d="M120.371,29.659c.036.5.105.987.47.982s.63-.416.593-.914-.36-.9-.725-.889S120.335,29.161,120.371,29.659Z"/><path class="cls-29" d="M117.4,29.7c.032.5.023,1.075.389,1.069s.633-.414.593-.915-.36-.895-.725-.889S117.36,29.205,117.4,29.7Z"/><path class="cls-29" d="M119.559,33.036c.037.5.025,1.148.39,1.142s.634-.417.6-.914-.365-.9-.73-.89S119.524,32.535,119.559,33.036Z"/><path class="cls-29" d="M116.667,33.333c.035.5-.031,1.1.335,1.093s.634-.413.6-.911-.365-.9-.73-.891S116.63,32.836,116.667,33.333Z"/><path class="cls-29" d="M114.514,29.911c.037.5.105,1.12.471,1.113s.373-.3.337-.793-.307-1.055-.672-1.049S114.478,29.411,114.514,29.911Z"/><path class="cls-53" d="M112.142,35.2l-.289.611a1.565,1.565,0,0,1-.882.593c-.83.1-1.189-.717-1.309-1.065a3.483,3.483,0,0,1,.032-1.165s.023-1.095.721-1.3,1.273.142,1.689.939A1.442,1.442,0,0,1,112.142,35.2Z"/><path class="cls-29" d="M111.108,34.027c.033.416.123,1.093.386,1.091s.309-.359.281-.775-.226-.877-.489-.873S111.08,33.613,111.108,34.027Z"/><path class="cls-29" d="M110.991,30.5a.85.85,0,0,0,.82.8c.366-.006.28-.238.248-.735s-.692-.854-1.057-.848S110.955,30,110.991,30.5Z"/><path class="cls-29" d="M113.291,33.385c.139.361.229.828.509.721a.626.626,0,0,0,.249-.845.649.649,0,0,0-.766-.463C113,32.9,113.147,33.022,113.291,33.385Z"/><path class="cls-29" d="M115.618,36.165c.182.474.132,1.269.473,1.147s.47-.6.292-1.077-.6-.754-.938-.632S115.44,35.691,115.618,36.165Z"/><path class="cls-29" d="M113.315,36.439c.143.362.229.831.509.724a.629.629,0,0,0,.249-.848.65.65,0,0,0-.767-.462C113.027,35.96,113.171,36.077,113.315,36.439Z"/><path class="cls-54" d="M118.726,38.044c1.267-.162,1.062.766,1.086.673.145-.623.249,1.534-.863,1.758-.649.129-.942.077-1.043-.509S117.679,37.879,118.726,38.044Z"/><path class="cls-55" d="M121.223,37.644a1.174,1.174,0,0,1,.105,1.2c-.3.726-.808,1.265-1.222,1.084s-.46-1.357.054-1.721A4.994,4.994,0,0,1,121.223,37.644Z"/><path class="cls-56" d="M121.773,31.333a1.778,1.778,0,0,1,.774,1.687,1.81,1.81,0,0,1-1.133,1.64c-.638.309-1.095.305-.964-.129s.562-1.792.552-1.967A2.956,2.956,0,0,1,121.773,31.333Z"/><path class="cls-57" d="M117.226,37.8s.935.143.764.63-.065,2.084-.564,2.405-.986-.264-1.175-.884S116.576,37.81,117.226,37.8Z"/><path class="cls-58" d="M121.813,34.688a.9.9,0,0,1,.463,1.134,2.028,2.028,0,0,1-.834,1.207c-.3.09-.208-.164-.1-.461a3.415,3.415,0,0,0-.08-1.139S121.05,34.525,121.813,34.688Z"/><path class="cls-29" d="M120.451,35.9c.032.393.03.907.27.9s.415-.327.384-.723-.245-.71-.486-.7S120.425,35.5,120.451,35.9Z"/><path class="cls-29" d="M121.919,32.477c.031.393-.216.935.025.932s.415-.329.384-.722-.25-.711-.486-.7S121.892,32.082,121.919,32.477Z"/><path class="cls-59" d="M115.949,38.763s.833,1.863.252,2.149-1.187-.179-1.465-.693-.335-1.153.129-1.244Z"/><path class="cls-29" d="M115.476,39.466c.1.242.149.564.363.482a.44.44,0,0,0,.21-.589.457.457,0,0,0-.563-.3C115.273,39.141,115.38,39.219,115.476,39.466Z"/><path class="cls-29" d="M118.352,35.3c.178.473.128,1.271.469,1.148s.47-.6.292-1.076-.6-.755-.938-.632S118.174,34.831,118.352,35.3Z"/><path class="cls-29" d="M120.952,38.409c-.088.238-.231.505-.09.566s.328-.076.417-.311.037-.485-.108-.549S121.037,38.17,120.952,38.409Z"/><path class="cls-29" d="M119.155,38.8c-.085.24-.232.508-.087.571s.328-.076.413-.316.037-.482-.108-.546S119.24,38.56,119.155,38.8Z"/><path class="cls-29" d="M117.332,38.648c.01.26-.025.573.126.574s.269-.2.26-.462-.139-.473-.293-.478S117.322,38.389,117.332,38.648Z"/><path class="cls-60" d="M114.666,38.863s.121,1.083-.189,1.414a.525.525,0,0,1-.756.037c-.241-.2-1.01-.812-1.027-1.237s.744-.067,1.01-.146S114.39,38.422,114.666,38.863Z"/><path class="cls-29" d="M114.078,39.189c.01.26-.025.574.13.578s.269-.2.261-.467-.143-.472-.3-.476S114.073,38.931,114.078,39.189Z"/><path class="cls-61" d="M118.275,28.1c1.307-.033,2.393-.337,2.495-1.737.047-.7-.385-1.8.452-2.139l.525-.027s-.679.152-.745.522a5.293,5.293,0,0,1-.065,2.42,1.494,1.494,0,0,1-1.344,1.125A3.468,3.468,0,0,1,118.275,28.1Z"/><path class="cls-62" d="M109.09,30.258a1.762,1.762,0,0,0-.581.92,1.97,1.97,0,0,0,.406,1.364c.211.194.768.583.985.536.784-.169.661-.526.661-.526a6.555,6.555,0,0,1-.882-1.307,2.454,2.454,0,0,1-.2-1.223.489.489,0,0,0-.344.169"/><path class="cls-29" d="M108.985,31.04c.02.279.088.744.293.74s.255-.244.231-.527-.17-.6-.375-.594S108.962,30.757,108.985,31.04Z"/><path class="cls-39" d="M126.2,37.851c5.5-2.141,9.022-11.1,3.381-15.447l-.249.3a8.613,8.613,0,0,1,2.217,2.694,8.035,8.035,0,0,1,.232,4.837,16.666,16.666,0,0,1-2.143,4.477c-.7.666-2.639,2.421-2.639,2.421l-1.076.529Z"/><path class="cls-39" d="M126.093,38.307a17.982,17.982,0,0,1,2.807,2.92c.579,1.025,1.382,1.291,1.937.6a4.1,4.1,0,0,1,2.109-1.11c.2.006.1-.531-1.061-.155s-1.792.886-1.819.35S129.7,40.13,129,39.4s-2-1.9-2-1.9a21.886,21.886,0,0,1,2.491,1.152c.545.372,2.362,1.2,2.857.63s.449-1.463.763-1.75.689-.628.689-.628a7.242,7.242,0,0,0-1.592.952c-.373.4-.817.682-1.839,0a4.486,4.486,0,0,0-2.08-.84,10.579,10.579,0,0,1-1.319-.335,6.29,6.29,0,0,0-.288-1.5,3.872,3.872,0,0,1,.451-2.647c.377-.343,1.136-.909,1.136-.909a1.742,1.742,0,0,0-1.431.308c-.563.513-1.011.735-.965,1.624s.318,2.683.318,2.683-1.054-1.7-1.343-2.187a3.9,3.9,0,0,1,.067-2.482,2.6,2.6,0,0,1,.7-.509s-1.687.416-1.625,1.6a3.727,3.727,0,0,0,1.066,2.756A6.519,6.519,0,0,1,126.093,38.307Z"/><path class="cls-63" d="M127.445,38.43a4.624,4.624,0,0,1,.666,1.147c.2.5.591.387.7.629s.762.925.438,1.524a2.138,2.138,0,0,1-1.121.726s-.053,1.241-1.077,1.434c-.673.129-.987.156-.987.156s-.207.512-.656.549c-.349.026-1.1,0-1.1,0a2.831,2.831,0,0,1-1.453.5,1.647,1.647,0,0,1-1.339-.766s-.627-.024-.814-.3a1.982,1.982,0,0,1-.253-.508s-.7-.2-.805-.456a4,4,0,0,1-.156-.423.876.876,0,0,1-.605-.625,3.415,3.415,0,0,0-.409-.93,2.743,2.743,0,0,1,.034-1.479l.363-.467a2.8,2.8,0,0,1-.174-1.345.623.623,0,0,1,.619-.44.8.8,0,0,1,.148-.965,1.73,1.73,0,0,1,1.425-.532,1.682,1.682,0,0,1,.047-1.258,1.135,1.135,0,0,1,1.493-.61c.289.1.532.292.859.395.567.186.727.173,1.039.473.178.171.168.85.6.984a2.049,2.049,0,0,1,1.132.635c.391.464.243,1.139.345,1.293C126.461,37.857,127.247,38.178,127.445,38.43Z"/><path class="cls-64" d="M127.7,42.589A.9.9,0,0,1,126.644,42a1.809,1.809,0,0,1,.791-1.941,1.049,1.049,0,0,1,1.473.319,2.375,2.375,0,0,1,.36,1.194C129.18,42,128.148,42.485,127.7,42.589Z"/><path class="cls-65" d="M127.661,39.494a1.066,1.066,0,0,0-.271-1.123c-.519-.571-1.588-.284-2.065.03a1.363,1.363,0,0,0-.355,1.977,1.311,1.311,0,0,0,1.642.341,5.477,5.477,0,0,0,.58-.449C127.774,39.766,127.661,39.494,127.661,39.494Z"/><path class="cls-66" d="M124.369,38.963a1.91,1.91,0,0,1-1.231-.7c-.383-.592.125-1.1.8-1.666,1.271-1.075,1.816-.387,2.131-.061A.882.882,0,0,1,126,37.85a6.108,6.108,0,0,1-.564.636A2.588,2.588,0,0,1,124.369,38.963Z"/><path class="cls-67" d="M123.546,38.887a2.585,2.585,0,0,0-.981.53c-.264.315-.652.822.536,1.493a1.449,1.449,0,0,0,1.912-.265,1.134,1.134,0,0,0,.031-.812C124.911,39.307,124.428,38.919,123.546,38.887Z"/><path class="cls-68" d="M122.9,37.513s-.833-.556-1.44-.323-.609,1.089-.266,1.789.848.486.848.486.687.167.877-.344a1.767,1.767,0,0,0,.215-.856C123.133,37.941,123.191,37.707,122.9,37.513Z"/><path class="cls-69" d="M123.936,36.6a1.8,1.8,0,0,0,.293-.647c.243-.758-.737-1.7-1.358-1.638a1.957,1.957,0,0,0-1.137,2.216c.315.842.955.6.955.6S123.356,37.477,123.936,36.6Z"/><path class="cls-70" d="M125.31,40.942c-.363-.036-1.041.453-1.041.453s-.33.514.247,1.23c.7.865,2.006.061,2.006.061s.261-.074.136-.875S126.241,41.035,125.31,40.942Z"/><path class="cls-71" d="M121.285,39.412a6.607,6.607,0,0,0-1.151,1.174c-.177.37-.465.964.842,1.2.956.177,1.61-1.006,1.61-1.006a.986.986,0,0,0-.01-.648A1.314,1.314,0,0,0,121.285,39.412Z"/><path class="cls-72" d="M124.108,42.808a1.718,1.718,0,0,1-1.592.387c-.8-.319-.6-1.585-.6-1.585s.48-.676.856-.786,1.127.336,1.514.637c.292.226.19.913-.18,1.347"/><path class="cls-73" d="M122.955,43.366s-.8.193.116.771a1.623,1.623,0,0,0,1.8-.147s.759-.442.316-.94-.626-.382-.853-.312S122.955,43.366,122.955,43.366Z"/><path class="cls-74" d="M120.4,38.231s-.932.145-1.172.425-.4.334-.192,1.057.624.69.624.69.136.1.672-.191,1.034-.539.977-.923-.139-.731-.552-.875S120.4,38.231,120.4,38.231Z"/><path class="cls-29" d="M128.342,41.185c-.291.2-.561.414-.375.643a.664.664,0,0,0,.867.06.536.536,0,0,0,.19-.775C128.838,40.883,128.635,40.988,128.342,41.185Z"/><path class="cls-29" d="M126.829,39.315c-.292.2-.656.392-.47.622a.66.66,0,0,0,.867.059.533.533,0,0,0,.189-.773C127.227,38.993,127.121,39.118,126.829,39.315Z"/><path class="cls-29" d="M125.836,41.853c-.291.2-.7.417-.514.646a.658.658,0,0,0,.866.059.532.532,0,0,0,.19-.772C126.192,41.556,126.131,41.656,125.836,41.853Z"/><path class="cls-29" d="M124.205,40.119c-.293.2-.7.365-.514.595a.66.66,0,0,0,.867.06.535.535,0,0,0,.19-.773C124.559,39.771,124.5,39.924,124.205,40.119Z"/><path class="cls-29" d="M125.258,37.556c-.291.2-.644.459-.458.689s.371.132.662-.063.5-.564.316-.794S125.551,37.359,125.258,37.556Z"/><path class="cls-75" d="M120.779,37.9l-.523.029a1.552,1.552,0,0,1-.811-.353.856.856,0,0,1,.009-1.2,2.259,2.259,0,0,1,.741-.391,1.205,1.205,0,0,1,1.171.006,1.008,1.008,0,0,1,.26,1.4A.947.947,0,0,1,120.779,37.9Z"/><path class="cls-29" d="M120.993,36.834c-.244.161-.619.461-.489.622s.382.074.625-.089.434-.452.3-.614S121.236,36.67,120.993,36.834Z"/><path class="cls-29" d="M123.131,35.524a.539.539,0,0,0-.087.8c.185.232.285.1.577-.1s.187-.735,0-.967S123.422,35.326,123.131,35.524Z"/><path class="cls-29" d="M122.483,37.991c-.155.22-.4.437-.2.579a.479.479,0,0,0,.653-.139.457.457,0,0,0-.1-.648C122.637,37.643,122.638,37.776,122.483,37.991Z"/><path class="cls-29" d="M121.919,40.443c-.2.279-.725.528-.479.7a.605.605,0,0,0,.817-.192.574.574,0,0,0-.075-.817C121.937,39.963,122.124,40.164,121.919,40.443Z"/><path class="cls-29" d="M120.6,39.077c-.153.216-.4.435-.195.576a.479.479,0,0,0,.653-.139.459.459,0,0,0-.1-.647C120.75,38.724,120.749,38.86,120.6,39.077Z"/><path class="cls-76" d="M122.3,43.075c.736.746.056.94.123.921.463-.123-.828.7-1.523.069-.405-.368-.519-.571-.206-.843S121.883,42.352,122.3,43.075Z"/><path class="cls-77" d="M123.8,44.518a.719.719,0,0,1-.7.487c-.6.06-1.191-.072-1.286-.4s.615-.764,1.1-.567A5.3,5.3,0,0,1,123.8,44.518Z"/><path class="cls-78" d="M128,42.661a1.033,1.033,0,0,1-.664,1.08,1.592,1.592,0,0,1-1.587-.145c-.51-.3-.736-.587-.4-.656s1.395-.27,1.5-.339A2.632,2.632,0,0,1,128,42.661Z"/><path class="cls-79" d="M121.7,42.037s.381.643-.009.7-1.329.688-1.779.486-.33-.72-.037-1.058S121.371,41.627,121.7,42.037Z"/><path class="cls-80" d="M125.935,43.858a.539.539,0,0,1-.475.692,1.812,1.812,0,0,1-1.166-.109c-.2-.155,0-.188.237-.225a2.062,2.062,0,0,0,.668-.448S125.655,43.32,125.935,43.858Z"/><path class="cls-29" d="M124.505,43.417c-.23.157-.551.337-.429.489a.5.5,0,0,0,.641-.012c.231-.154.318-.4.2-.555S124.736,43.263,124.505,43.417Z"/><path class="cls-29" d="M127.365,43.155c-.23.157-.69.189-.567.341a.5.5,0,0,0,.64-.009c.232-.157.318-.4.2-.556S127.6,43,127.365,43.155Z"/><path class="cls-81" d="M120.467,41.561s-.743,1.18-1.211.91a.867.867,0,0,1-.3-1.169c.182-.354.55-.617.839-.354S120.467,41.561,120.467,41.561Z"/><path class="cls-29" d="M119.8,41.505c-.105.148-.277.291-.121.4a.344.344,0,0,0,.473-.072.328.328,0,0,0-.1-.46C119.9,41.264,119.9,41.36,119.8,41.505Z"/><path class="cls-29" d="M123.823,41.876c-.206.279-.724.526-.479.7a.6.6,0,0,0,.814-.19.573.573,0,0,0-.073-.816C123.838,41.4,124.027,41.6,123.823,41.876Z"/><path class="cls-29" d="M123.189,44.614c-.191.028-.429.029-.4.142s.212.182.4.154.319-.147.288-.26S123.38,44.583,123.189,44.614Z"/><path class="cls-29" d="M122.049,43.608c-.191.03-.431.031-.4.145s.212.182.4.151.318-.144.287-.258S122.24,43.579,122.049,43.608Z"/><path class="cls-29" d="M121.231,42.4c-.158.1-.369.183-.295.281a.328.328,0,0,0,.419,0c.157-.1.225-.253.149-.352S121.386,42.3,121.231,42.4Z"/><path class="cls-82" d="M119.762,40.781s-.612.455-.973.376a.478.478,0,0,1-.4-.469c.008-.224,0-.926.257-1.086s.412.448.594.592S119.9,40.452,119.762,40.781Z"/><path class="cls-29" d="M119.266,40.524c-.157.1-.368.184-.294.282a.332.332,0,0,0,.419,0c.158-.095.223-.253.149-.352S119.423,40.425,119.266,40.524Z"/><path class="cls-83" d="M122.328,34.232a1.551,1.551,0,0,0-.863-.045,1.124,1.124,0,0,0-.645.734,1.448,1.448,0,0,0,.156.814c.5.437.66.237.66.237a3.679,3.679,0,0,1,.373-1.021c.111-.3.659-.555.659-.555a.484.484,0,0,0-.276-.16"/><path class="cls-29" d="M121.789,34.439c-.165.111-.419.316-.313.446s.279.076.444-.036.285-.32.18-.449S121.954,34.327,121.789,34.439Z"/><path class="cls-84" d="M56.268,117.311s-.329,8.926-1.709,11.249-1.89,5.082-7.985,7.357a13.2,13.2,0,0,1-11.187-.67c-.512-.085,11.1-5.3,14.382-10.1s3.905-7.714,3.905-7.714Z"/><path class="cls-85" d="M23.809,114.733s-.072,6.383,2.08,11.2,4.577,8.693,9.808,9.631,8.092.753,12.079-1.775,4.751-5.906,6.243-9.166a36.778,36.778,0,0,0,2.249-7.316l-3.125-.287Z"/><path class="cls-86" d="M24.553,114.8s.021,6.792,2.2,11.316,5.909,8.684,10.6,9.178,11.11-2.925,13.009-5.658S55.5,117.2,55.5,117.2l-30.783-2.419Z"/><path class="cls-87" d="M29.988,115.987s-1.346-.683-1.732-.233-.128,1.147-.061,1.619a3.22,3.22,0,0,1-.133,1.519c-.193.677-1.081,1.982-.511,2.254s1.17.246,1.592,1.468.651,2.216,1.482,2.282,1.58-.251,1.734-.669a17.189,17.189,0,0,1,2.481-3.2c.644-.531,2.069-1.8.521-1.313s-2.944,1.461-3.8.911-1.648-1-1.387-2.107A5.711,5.711,0,0,0,29.988,115.987Z"/><path class="cls-87" d="M37.845,117.944s-.413,3.084.373,4.437,2.729,4.721,3.435,5.812,1.183,2.623-.544,2.8-3.027,1.323-3.213-.179.632-3.809.412-5.422-.743-2.639-.761-3.864A33.7,33.7,0,0,1,37.845,117.944Z"/><path class="cls-87" d="M42.975,117.518s1.5,3.755,2.491,3.442,1.275-.976,1.8-1.756,1.84-1.237.887-1.306a16.437,16.437,0,0,0-2.478-.287C45.1,117.711,43.058,116.877,42.975,117.518Z"/><path class="cls-87" d="M33.785,125.3a8.8,8.8,0,0,1,.044,3.639,1.11,1.11,0,0,1-2.036.354c-.442-.641-.091-1.2.484-2.081S33.317,123.925,33.785,125.3Z"/><path class="cls-88" d="M45.461,124.573s.357,1.405,1.157,1.113S46.018,124.152,45.461,124.573Z"/><path class="cls-88" d="M31.512,117.108s-1.734-.11-1.9.393.157.894.71.72S32,117.241,31.512,117.108Z"/><path class="cls-88" d="M32.45,120.628s-1.9.394-1.094,1.166,1.992-1.53,1.218-1.287S32.45,120.628,32.45,120.628Z"/><path class="cls-88" d="M44.707,121.9a1.982,1.982,0,0,0,.559,1.014.493.493,0,0,0,.814-.5C45.915,122.009,44.763,121.428,44.707,121.9Z"/><path class="cls-88" d="M48.511,120.986a.742.742,0,0,0,.722.757C49.99,121.833,49.529,120.748,48.511,120.986Z"/><path class="cls-88" d="M40.9,122.089s-.418,1.384.417,1.557S41.6,122.024,40.9,122.089Z"/><path class="cls-88" d="M33.684,126.026s-1.644.56-1.61,1.092a.526.526,0,0,0,.925.4C33.444,127.143,34.184,125.966,33.684,126.026Z"/><path class="cls-88" d="M35.862,128.937s-1.61,1.091-.576,1.5,1.27-2.18.646-1.659S35.862,128.937,35.862,128.937Z"/><path class="cls-88" d="M43.341,126.427a1.98,1.98,0,0,0,.253,1.131.491.491,0,0,0,.923-.245C44.471,126.882,43.528,126,43.341,126.427Z"/><path class="cls-88" d="M35.442,122.058a.731.731,0,0,0-.667.8C34.766,123.629,35.785,123.061,35.442,122.058Z"/><path class="cls-88" d="M29.217,121.147s-1.434.486-1.413.92.4.622.8.309S29.652,121.088,29.217,121.147Z"/><path class="cls-88" d="M36.848,125.341s-1.414.92-.525,1.237,1.136-1.807.588-1.37S36.848,125.341,36.848,125.341Z"/><path class="cls-88" d="M40.527,128.118a1.517,1.517,0,0,0,.2.921.436.436,0,0,0,.8-.216C41.5,128.471,40.7,127.76,40.527,128.118Z"/><path class="cls-89" d="M31.753,70.959s-4.952-1.9-8.708,1.751-3,12.906,1.961,15.867a16.67,16.67,0,0,0,15.6.436C48.3,85.093,44.442,66.539,31.753,70.959Z"/><path class="cls-90" d="M30.519,71.833s-12.461-.345-7.579,8.419C26.8,87.189,42.017,75.989,30.519,71.833Z"/><path class="cls-91" d="M41.312,76.275s-2.281,7.872-6.809,8.6-9.648-.733-8.98.825,1.908,3.666,6.23,4.124S40,89.3,42.572,86.142C44.11,84.253,43.855,75.947,41.312,76.275Z"/><path class="cls-15" d="M97.747,96.08H90.92l-2.712-7.058H75.786L73.222,96.08H66.566l12.1-31.075h6.636ZM86.194,83.786,81.913,72.255l-4.2,11.531Z"/><circle class="cls-92" cx="19.054" cy="18.39" r="1.805"/><circle class="cls-92" cx="139.457" cy="18.028" r="1.805"/><circle class="cls-92" cx="19.415" cy="141.5" r="1.805"/><circle class="cls-92" cx="139.818" cy="141.139" r="1.805"/><path class="cls-93" d="M126.038,85.632c.214-.583.436-1.145.651-1.689A17.818,17.818,0,0,0,128.36,77.1h-.522a17.16,17.16,0,0,1-1.635,6.65c-.216.547-.439,1.112-.655,1.7l.49.181Z"/><path class="cls-93" d="M124.236,75.545s-3.351-.5-2.652.109,1.08.776,1.645.641a17.341,17.341,0,0,1,2.966.174s-1.53.2-1.968.291-1.69.569-1.381,1.049,1.173.2,1.742-.133a22.19,22.19,0,0,1,2.659-.962s-2.993,1.926-2.323,2.336,1.648-.709,1.91-1.026.764-.855.764-.855.3.706.056.927-2.228,1.926-1.192,2.4.743-.762.835-1.173a14.774,14.774,0,0,1,.927-1.882,2.233,2.233,0,0,1,.18,1.05c-.094.411.822.9,1.344,1.444s1.961,1.09,1.426.438S129.7,79.3,129.6,78.921s-.326-1.075-.326-1.075,1.673,1.532,2.089,1.867,1.132.717,1.312.091-1.292-1.338-1.574-1.616a8.4,8.4,0,0,0-.978-.724,28.2,28.2,0,0,1,3.237,1.667c.546.453,2.343,1.088,2.525.625s-1.352-.921-2.085-1.209-2.6-1.3-2.6-1.3a9.788,9.788,0,0,0,2.707.656c.528-.142,2.863-.369,2.217-.709s-1.076-.117-1.817-.045a7.6,7.6,0,0,1-2.536-.068,32.449,32.449,0,0,0-3.459-.521C127.573,76.44,124.236,75.545,124.236,75.545Z"/><path class="cls-94" d="M128.345,77.229s2.67.32,3.892.3a8.382,8.382,0,0,0,2.749-.192c.79-.293,1.935-.3,2.568-.584s1.346-.89.81-1.045a3.33,3.33,0,0,0-1.479.143s2.132-1.347,1.5-1.75-1.948.03-1.948.03,2.848-1.817,1.958-1.574a18.892,18.892,0,0,0-1.86.637s2.118-1.612,1.2-1.408a3.553,3.553,0,0,0-1.567.853s1.626-2.288.677-1.628a5.861,5.861,0,0,0-1.278,1.1s1.04-1.565.345-1.518-.743,1.089-.743,1.089-.1-1.561-.415-1.187a2.692,2.692,0,0,0-.332,1.291s.268-1.86-.336-1.865-.128,1.391-.128,1.391-.692-2.649-1.028-2.344-.045,1.21-.045,1.21-.544-1.639-1.012-1.422.5,1.662.5,1.662-1.508-2.753-1.8-2.145.451,1.688.451,1.688-1.238-1.92-1.391-1.583.484,1.4.484,1.4-.945-1.377-1.276-1.267.764,1.509.764,1.509-1.6-1.487-1.788-1.356.216,1.386.216,1.386-.868-1.364-1.321-1.375-.29.937-.29.937-.89-1.1-1.161-1.086.876,1.169.876,1.169-1.433-.9-1.682-.81.13.941.13.941-.95-.685-1.148-.655.159.981.159.981-.663-.934-.926-.617.138,1.075.138,1.075-.761-1.345-.862-.9.63,1.751.63,1.751-1-1.452-1.195-1.452.682,1.53.932,1.77.119.481-.13.4-1.121-1.767-1.406-1.684-.433.387.316.942-1.462-.084-1.462.409,1.74.723,1.74.723-2.519.361-1.835.872a6.566,6.566,0,0,0,1.907.816s-2.44-.315-1.118.238,2.287.321,2.692.719a3.221,3.221,0,0,0,2.076.912C126.379,76.336,127.2,77.069,128.345,77.229Z"/><path class="cls-95" d="M132.936,74.455c-.247,1.427-1.59,2.05-3.149,2.13"/><path class="cls-95" d="M123.42,72.941a4.389,4.389,0,0,0,2.6,2.644"/><path class="cls-95" d="M128.16,76.21a3.621,3.621,0,0,0,3.293-2.268"/><path class="cls-95" d="M127.58,76.08a10.746,10.746,0,0,0,1.352-2.927"/><path class="cls-95" d="M131.57,76.789c2.489.369,3.559-.805,3.93-2.72"/><path class="cls-95" d="M122.873,71.829c-.473,1.271-1.013,2.573.994,3.161"/><path class="cls-95" d="M125.342,71.361c-.418,1.525.641,2.858,1.837,3.8"/><path class="cls-95" d="M121.154,72.194c.516,1.105,1.007,2.657,2.59,3"/><path class="cls-95" d="M127.659,76.224a5.155,5.155,0,0,0,3.084-4.014"/><path class="cls-95" d="M131.311,76.745c1.585-.471,3.242-1.654,3.433-3.2"/><path class="cls-95" d="M134.213,76.876c1.244.3,2.665-1.044,2.863-2.047"/><path class="cls-95" d="M127.626,74.87a2.733,2.733,0,0,1-.587-3.945"/><path class="cls-95" d="M135.257,76.132a6.812,6.812,0,0,0,1.49-3.2"/><path class="cls-95" d="M135.986,76.618c1.422.369,2.369-1.26,3.054-2.047"/><path class="cls-95" d="M126.36,75.413c-.245-.594-1.186-1.091-1.641-1.692a4.07,4.07,0,0,1-.97-2.9"/><path class="cls-93" d="M122.753,93.706s-2.537-2.075-3.3-2.071-2.355-.367-1.547-.559a5.373,5.373,0,0,1,2.449.612s-2.2-2.708-1.175-2.533,3.414,3.571,3.626,3.969S122.753,93.706,122.753,93.706Z"/><path class="cls-93" d="M122.97,96.931s5.758-3.89,7.2-3.348-.731.7-1.46,1.066S122.97,96.931,122.97,96.931Z"/><path class="cls-93" d="M124.336,96.374s6.157,1.373,6.755,1.934.427.586-.388.362C129.317,98.289,124.336,96.374,124.336,96.374Z"/><path class="cls-93" d="M126.283,81.7s-.685-2.845-1.4-3.23-1.311.074-.622.718A24.074,24.074,0,0,1,126.283,81.7Z"/><path class="cls-93" d="M123.053,96.665s4.031,1.5,3.563,2.018-.826.107-1.515-.562A13.469,13.469,0,0,0,123.053,96.665Z"/><path class="cls-93" d="M124.241,95.783s1.772-3.941,2.451-4.419,1.193-.388.787.4-3.092,4.046-3.092,4.046Z"/><path class="cls-93" d="M124.339,96.1s-.7-2.618-.833-3.694-1.6-1.519-1.1-.514S124.339,96.1,124.339,96.1Z"/><path class="cls-93" d="M139.22,91.7s2.834,1.764,2.36,2.176-1.436.118-1.451-.313-2.081-1.9-2.081-1.9-.464,1.533.118,2.322,1.662,1.728.439,1.752-1.712-1.343-2.014-2.019a15.853,15.853,0,0,0-1.2-1.914s2.125,5.556,1.707,5.879a1.06,1.06,0,0,1-1.659-.741c-.179-1.05-.823-4.579-.823-4.579s-.85,4.919-1.361,4.308.5-5.209.5-5.209-1.071,3.7-1.621,3.112.5-3.368.5-3.368-3.014,6.886-3.609,6.16.13-3.595.772-4.407a17.022,17.022,0,0,0,1.5-2.9s-1.941,2.169-3.409,1.263-1.652-2.451-1.059-2.547,6.847.536,7.4,1.287,2.708,1.15,3.2,1.168A10.261,10.261,0,0,1,139.22,91.7Z"/><path class="cls-96" d="M125.755,84.943s-.659-1.3,0-1.183-.346-2.163.073-1.828.521-.965,1.128-.269.376-.824.855-.086a8.706,8.706,0,0,1,.782,1.579s-.724-3.673.246-2.917a3.742,3.742,0,0,1,1.2,2.078s.465-3.046.825-1.932a3.129,3.129,0,0,1,.188,1.676s.6-2.627,1.253-1.661a1.579,1.579,0,0,1,.28,1.624S133.96,79.5,134.4,80.1s-.427,1.7-.427,1.7,1.427-1.237,1.668-.966-.238,1.209-.26,1.305,1.072-1.528,1.675-.834-.1,1.627-.1,1.627.86-1.105,1.354-.594-.143.962-.143.962,1.573-.883,2.044-.277-.684,1-.684,1,1.541.592,1.712,1.015-1.158.559-1.158.559,1.987-.024,2.01.375-.87.311-.87.311,2.252.645,1.814,1.393-2.342.426-2.342.426,1.831.311,1.47.742a.944.944,0,0,1-.967.23s1.833.969,1.522,1.508-1.236.415-1.236.415,1.394.237,1.036.472-2.934-.333-2.934-.333,3.071,1.9,2.412,1.954a10.446,10.446,0,0,1-2.855-1.174s1.508,1.571.5,1.5-1.984-1.488-1.984-1.488.887,2.125.294,2.056-1.391-1.583-1.391-1.583.765,2.991.032,2.865-1.6-2.835-1.579-2.931-.848,2.223-1.211,1.472a4.54,4.54,0,0,1,.1-2.448c.057-.253-.185,1.645-.912,1a3.32,3.32,0,0,1-.743-2.1s.148,2.358-.776,1.577-1.444-1.362-1.459-2.121.017.923-1.042.053-1.845-1.595-1.7-2.229-1.051-.9-1.134-1.539A2.545,2.545,0,0,0,125.755,84.943Z"/><path class="cls-97" d="M139.112,87.143a4.481,4.481,0,0,1-3.394,2.711"/><path class="cls-97" d="M137.352,84.674a2.64,2.64,0,0,1-.175,3.62"/><path class="cls-97" d="M135.477,82.877a5.052,5.052,0,0,1,1.172,3.716"/><path class="cls-97" d="M128.718,84.13c.592-2.129,2.774-2.406,5.031-2.369"/><path class="cls-97" d="M129.675,85.28a3.419,3.419,0,0,1,3.174-1.9"/><path class="cls-97" d="M129.949,87.593c.354-.767.338-3.128,2.116-2.764"/><path class="cls-97" d="M135.221,85.5c1.262,1.135.326,2.83-.775,3.748"/><path class="cls-97" d="M134.292,85.4c.347,1.133-.735,2.456-1.818,3.145"/><path class="cls-97" d="M131.481,85.881c-.917,1.015-1.89,2.189-.369,3.292"/><path class="cls-97" d="M129.183,88.451c-.339-1.48-1.35-3.985.7-4.913"/><path class="cls-97" d="M134.059,89.771c2.251.567,4.373.893,6.052-.815"/><path class="cls-97" d="M132.337,89.314c1.518-.87,3.744-.111,4.2-2.246"/><path class="cls-97" d="M132.968,85.541c-1.333.731-1.062,2.494-.581,3.551"/><path class="cls-97" d="M128.178,83.151c-1.25.465-1.218,2.892-.087,3.569"/><path class="cls-97" d="M140,86.735a2.388,2.388,0,0,1-1.9,3"/><path class="cls-97" d="M130.073,89.391A2.9,2.9,0,0,0,133.053,87"/><path class="cls-97" d="M132.281,90.061c2.157.009,4.6,2.412,6.648.568"/><path class="cls-97" d="M131.177,87.047c.1,1.3.471,2.8,2.3,2.954"/><path class="cls-97" d="M128.075,85.632c-.593,1.382.9,3.133,2.4,3.5"/><path class="cls-97" d="M131.377,89.349c.895,1.221,4.419,2.938,5.839,1.45"/><path class="cls-93" d="M121.132,87.81s-4.443-.722-2.988.085a8.083,8.083,0,0,0,4,.481s-3.763.645-2.568.913a4.918,4.918,0,0,0,2.882-.794,1.605,1.605,0,0,1-.567.66,25.142,25.142,0,0,1-3.637,1.257c-.225-.005-.542.37-.064.451a7.193,7.193,0,0,0,2.831-.9c.257-.287,1.63-1.467,1.63-1.467s-.335,2.147-.761,2.337-.789.622-.276.545a1.6,1.6,0,0,0,1.117-1.225c.127-.569.478-1.6.478-1.6s-.873,2.32-.379,2.665.869,1.365.94.39a22.218,22.218,0,0,0-.236-3.164s1.424,3.3,1.9,3.216-1.106-2.161-1.21-2.539,1.413,1.652,1.964,1.745,2.143.462,1.156-.229-2.66-1.867-2.66-1.867,5.38,2.293,5.284,1.718-1.558-1.019-2.871-1.44S121.132,87.81,121.132,87.81Z"/><path class="cls-98" d="M116.965,87.714s-1.093-.537-.6-.725-1.332-1.191-.887-1.148-.146-.795.6-.6-.174-.652.518-.385a8.67,8.67,0,0,1,1.319.663s-2.35-1.968-1.332-1.883a3.662,3.662,0,0,1,1.853.8s-1.254-2.045-.451-1.5a2.737,2.737,0,0,1,.982.951s-.951-1.841-.028-1.5,1.012.888,1.012.888-.392-2.085.2-1.887.589,1.21.589,1.21.3-1.313.6-1.242.463.833.5.9-.081-1.353.672-1.163a1.1,1.1,0,0,1,.761,1.037s0-1.01.584-.89a.475.475,0,0,1,.4.645s.578-1.155,1.2-.966.063.881.063.881a4.357,4.357,0,0,1,1.639-.046c.328.192-.47.794-.47.794s1.288-.79,1.506-.555-.411.531-.411.531,1.806-.483,1.9.146-1.319,1.172-1.319,1.172,1.362-.523,1.342-.117-.516.519-.516.519,1.7-.123,1.77.33-.6.736-.6.736,1.035-.4.919-.114-2.092.937-2.092.937,2.985-.031,2.579.259a9.276,9.276,0,0,1-2.472.392s1.793.373,1.092.723a3.455,3.455,0,0,1-2.06-.139s1.666.956,1.243,1.145-1.719-.429-1.719-.429,2.027,1.534,1.485,1.744-2.5-1.115-2.534-1.18.58,1.691-.041,1.372a3.717,3.717,0,0,1-1.185-1.539c-.092-.178.72,1.08-.089.965a3.137,3.137,0,0,1-1.559-1s1.3,1.386.3,1.268a3.028,3.028,0,0,1-2.044-.73c-.4-.459.488.557-.651.437s-2.024-.258-2.254-.7-1.15-.143-1.531-.5A2.47,2.47,0,0,0,116.965,87.714Z"/><path class="cls-97" d="M126.844,83.861A2.781,2.781,0,0,1,126,86.843"/><path class="cls-97" d="M124.428,83.034a2.15,2.15,0,0,1,1.732,2.285"/><path class="cls-97" d="M122.279,82.662a4.747,4.747,0,0,1,2.668,1.822"/><path class="cls-97" d="M118.494,86.062c-.7-1.535.585-2.554,2.086-3.41"/><path class="cls-97" d="M119.707,86.393a2.139,2.139,0,0,1,1.112-2.4"/><path class="cls-97" d="M121.067,87.705c-.16-.609-1.376-2.048-.025-2.517"/><path class="cls-97" d="M123.452,84.367a1.931,1.931,0,0,1,1.407,2.6"/><path class="cls-97" d="M122.794,84.674a2.2,2.2,0,0,1,.417,2.633"/><path class="cls-97" d="M121.2,86.06c-.081.977-.121,2.076,1.44,2.159"/><path class="cls-97" d="M121,88.528c-.976-.775-2.921-1.914-2.052-3.281"/><path class="cls-97" d="M124.872,87.438c1.767-.529,3.322-1.155,3.551-2.855"/><path class="cls-97" d="M123.511,87.829c.549-1.123,2.4-1.526,1.609-3.013"/><path class="cls-97" d="M122,85.273c-.5.967.58,1.941,1.435,2.4"/><path class="cls-97" d="M117.638,85.674c-.583.77.681,2.244,1.766,2.219"/><path class="cls-97" d="M127.22,83.264a1.623,1.623,0,0,1,.288,2.577"/><path class="cls-97" d="M122.068,88.757a1.833,1.833,0,0,0,.731-2.622"/><path class="cls-97" d="M121.594,86.891c.729.757,1.735,1.53,3.013.916"/><path class="cls-97" d="M118.836,87.232c.319,1.076,2.2,1.567,3.36,1.21"/><path class="cls-93" d="M122.036,98.846c1.6-1.972,1.345-4.717,1.118-7.139a21.6,21.6,0,0,1-.146-2.761l-.521-.021a21.627,21.627,0,0,0,.148,2.831c.228,2.435-.141,6.2-1.628,7.012l1.029.078Z"/><path class="cls-93" d="M122.494,97.954a22.351,22.351,0,0,1,3.7-2.688,17.025,17.025,0,0,0,4.9-4l-.421-.309a16.649,16.649,0,0,1-4.758,3.868,22.765,22.765,0,0,0-3.785,2.756l.364.374Z"/><path class="cls-99" d="M79,123.15a4.3,4.3,0,0,0,1.543-1.929c.231-1,.617-3.4,2.623-3.317s1.621,4.012.232,5.4S81,125.851,81,126.545s.077,1.775.077,1.775"/><path class="cls-100" d="M81.662,133.856a18.375,18.375,0,0,0-2.661-2.2c-1.951-1.409-3.282-4.052-1.33-4.581a3.753,3.753,0,0,1,3.458,1.145s1.008-2.963,3.016-2.026C87.175,127.606,81.662,133.856,81.662,133.856Z"/><ellipse class="cls-101" cx="81.996" cy="134.724" rx="0.955" ry="0.926"/><ellipse class="cls-102" cx="81.794" cy="136.517" rx="0.752" ry="0.81"/><ellipse class="cls-100" cx="81.678" cy="137.877" rx="0.579" ry="0.55"/><path class="cls-99" d="M88.94,126.055A4.3,4.3,0,0,0,91,124.685c.525-.886,1.618-3.048,3.506-2.365s.327,4.314-1.418,5.216-3.052,1.7-3.263,2.362-.464,1.714-.464,1.714"/><path class="cls-100" d="M88.231,137.064a18.374,18.374,0,0,0-1.867-2.906c-1.432-1.935-1.9-4.857.122-4.769a3.755,3.755,0,0,1,2.949,2.141s1.859-2.518,3.488-1.016C95.381,132.782,88.231,137.064,88.231,137.064Z"/><ellipse class="cls-101" cx="88.286" cy="137.992" rx="0.926" ry="0.955" transform="translate(-69.99 180.241) rotate(-72.335)"/><ellipse class="cls-102" cx="87.549" cy="139.64" rx="0.81" ry="0.752" transform="matrix(0.303, -0.953, 0.953, 0.303, -72.074, 180.687)"/><ellipse class="cls-100" cx="87.026" cy="140.901" rx="0.55" ry="0.579" transform="translate(-73.639 181.067) rotate(-72.335)"/></svg>