<svg id="word" xmlns="http://www.w3.org/2000/svg" xmlns:xlink="http://www.w3.org/1999/xlink" viewBox="0 0 160 160"><defs><style>.cls-1,.cls-16{fill:none;}.cls-2{clip-path:url(#clip-path);}.cls-13,.cls-3{fill:#fde2d4;}.cls-10,.cls-13,.cls-14,.cls-16,.cls-17,.cls-3,.cls-4,.cls-5,.cls-6,.cls-7,.cls-8,.cls-9{stroke:#9d4b9c;stroke-miterlimit:10;}.cls-3{stroke-width:0.719px;}.cls-4{fill:#00acaa;}.cls-10,.cls-13,.cls-14,.cls-16,.cls-17,.cls-4,.cls-5,.cls-6,.cls-7,.cls-8,.cls-9{stroke-width:0.899px;}.cls-5{fill:#554c77;}.cls-6{fill:#004c4b;}.cls-7{fill:#f9af18;}.cls-8{fill:#d8801a;}.cls-9{fill:#fcc136;}.cls-10{fill:#006462;}.cls-11{fill:#006838;}.cls-12{fill:#6a992f;}.cls-14{fill:#ffeec0;}.cls-15{fill:#9d4b9c;}.cls-16{stroke-linecap:round;}.cls-17,.cls-18{fill:#fff;}.cls-19{fill:#d89b2f;}.cls-20{fill:#31accd;}.cls-21{fill:#278ba6;}.cls-22{fill:#c28ebf;}.cls-23{fill:#d692c0;}.cls-24{fill:#d46ca9;}.cls-25{fill:#9e1f63;}.cls-26{fill:#801150;}.cls-27{fill:#545456;}.cls-28{fill:#3b3a3c;}</style><clipPath id="clip-path"><rect class="cls-1" x="14.5" y="13.5" width="132" height="132"/></clipPath></defs><g class="cls-2"><path class="cls-3" d="M79.843,58.463l5.834-1.944S88.45,51.884,89.92,49.8c2.122-3.006,4.6-2.829,3.536,0s-1.084,5.127.254,4.419,9.47-5.657,11.414-4.95S100,54.928,100,54.928s9.37-.354,10.077,1.591-10.43,1.414-9.723,2.475,7.425,1.237,7.779,2.828-8.309.531-8.486,2.122,5.3.427,4.42,2.423-5.481.479-7.779,0S87.8,64.121,87.8,64.121l-7.072,2.246S77.191,61.292,79.843,58.463Z"/><path class="cls-4" d="M43.685,60.465s-20.572-4.234-20.332,4.666c.206,7.621,5.094,9.789,17.823,12.97s27.613-4.553,31.149-5.968S82.579,68.3,82.579,68.3L80.457,57.283s-1.1.424-2.795,1.06C72.435,60.3,61.522,64.259,59.477,64,56.767,63.648,48.315,61.14,43.685,60.465Z"/><path class="cls-5" d="M18.588,56.646s-.626.158-1.629.428c-3.524.949-11.7,3.274-13.719,4.941C.648,64.157-.379,66.9,3.765,68.278s14.7,2.491,17.387,0S32.946,63.7,32.946,63.7l-.078-4.019-.824-3.037Z"/><path class="cls-6" d="M45.687,105.756s26.386,6.533,29.133,11.9,12.85,26.916,12.85,26.916l-2.786,10.8-1.415,4.261-11.6-26.792Z"/><path class="cls-7" d="M29.006,159.633l-.775,24.652s1.007,5.236,7.43,5.319c7.541.1,7.429-6,7.429-6l-1.947-23.968Z"/><path class="cls-7" d="M52.5,159.633l2.139,37.638s2.224,5.781,9.214,4.593c5.2-.882,5.9-6.078,5.9-6.078l-5-42.057Z"/><path class="cls-8" d="M-25.61,132.841v15.711s25.43,21.1,33.376,21.541,62.188-10.835,62.087-13.6,0-12.3,0-12.3Z"/><path class="cls-9" d="M37.634,121.313s17.256,7.129,26.338,13.241c6.7,4.511,10.483,10.547,5.86,11.91s-50.94,13.169-66.38,7.265-31.787-15.893-29.062-20.888S9.48,119.043,37.634,121.313Z"/><path class="cls-10" d="M16.581,111.27a17.248,17.248,0,0,0,1.734,14.283c4.438,7.333,8.349,8.06,19.738,10.04,5.189.9,18.472-5.023,18.472,2.5s3.667,21.228,5.4,24.894a11.254,11.254,0,0,1,1.133,6.562,10.48,10.48,0,0,0,5.621,1.93c3.474.193,14.281-3.088,14.281-3.088s-8.3-39.755-8.3-41.1-18.334-10.229-18.334-10.229l-5.21-3.666-34.544-4.439Z"/><path class="cls-3" d="M29.968,52.1s-5.1,12.775,9.686,16.757,9.3-5.8,9.3-5.8l-.911-8.532Z"/><path class="cls-9" d="M91.283,136.1,82.872,161.43a21.867,21.867,0,0,0,8.061,9.893c6,4,12.545-7.514,12.545-7.514l7.822-25.857Z"/><path class="cls-9" d="M103.189,141.408,91.944,213.752s3.091,11.527,13.623,10.454c7.889-.8,8.627-5.67,8.627-5.67l5-73.8Z"/><path class="cls-8" d="M68.639,91.082s-8.923,13.092-3.33,25.745,36.171,41.56,150.6,41.093,134.919-34.342,133.28-40.2-2.952-25.2-2.952-25.2Z"/><ellipse class="cls-9" cx="208.08" cy="98.475" rx="141.112" ry="47.93"/><path class="cls-11" d="M97.838,44.651a46.028,46.028,0,0,0-1.3,7.663c0,2.479,0,11.712,3.211,18.069,2.254,4.463,5.221,9.991,5.707,10.293s4.058,2.851,5.841-.233a6.029,6.029,0,0,0-.652-6.881c-.811-.908-4.717-8.958-5.513-13.623S106.27,46.77,106.27,46.77s.41-2.6-3.081-3.633C98.974,41.888,97.838,44.651,97.838,44.651Z"/><path class="cls-12" d="M98.045,44.729a3.966,3.966,0,0,0,3.22,2.753c1.5.271,4.317.574,4.564-1.277C106.254,43.008,99.218,41.228,98.045,44.729Z"/><path class="cls-13" d="M9.269,31.451S.689,29.944,4,36.727c1.881,3.852,2.174,2.021,3.164,4.6s2.245,6.161,5.045,6.617c1.7.276,2.038-2.874,2.038-2.874"/><path class="cls-13" d="M63.122,18.347s6.843-5.273,7.191,2.233c.2,4.264-.943,2.783-.574,5.514s.99,6.467-1.262,8.156c-1.364,1.024-3.183-1.6-3.183-1.6"/><path class="cls-13" d="M11.15,38.858s4.96,13.743,9.215,16.1S42.584,61.093,50.72,59.14,65.782,41.061,66.355,36.423s-6.4-29.96-7.566-32.36S50.86-7.019,34.669-5.8,8.3,5.185,7.565,7.92,3.236,13.8,3.831,18.54,11.15,38.858,11.15,38.858Z"/><path class="cls-14" d="M66.918,15.7c1.054-1.229,5.578-2.527,5.578-2.527s2.362-6.3,1.96-11.06S67.923-13.474,64.213-13.96A61.243,61.243,0,0,1,56.746-15.5s6.876-1.858,7.914-3.276.145-4.4.145-4.4-.341,3.62-5.934,4.84c-2.026.442-5.739,1.2-6.682,1.46s1.583.456,1.66-3.188a16.8,16.8,0,0,0-1.763-7.143s1.645,4.089-.486,5.972a38.009,38.009,0,0,0-3.361,3.317,7.146,7.146,0,0,0-.306-3.615c-.688-1.288-.371-4.376-.371-4.376s-1.515,4.9-1.4,6.233-3.44-4.145-4.241-6.765S39.5-34.5,39.5-34.5s-1.98,3.978-.939,7.154-2-2.53-8.561-.5-12.908,4.61-14.617,7.228-2.939,4.05-6.552,4.7S1.172-16.592-3.353-12.7A9.794,9.794,0,0,0-6.7-2.684,13.52,13.52,0,0,1-1.378-8.742c4.2-2.806,4.952-.842,4.952-.842S-.275-2.594-2.56.067-14.916,4.636-14.916,4.636s0,2.3,4.063,2.374A37.437,37.437,0,0,0-4.7,6.738L-9.78,10.567A20.437,20.437,0,0,0-14.031,15.1s5.179-2.687,7.225-3.607-3.32,3.859-2.934,8.425a33.956,33.956,0,0,0,2.514,9.412c.256.747,1.482-7.578,1.482-7.578s-.317,5.384,2.4,7.86,5.6,1.324,9.147,3.14,7.266,9.818,7.266,9.818S6.407,21.6,6.837,19.846s-.659-5.5,4.407-9.522,5.127-7.853,8.389-8.1,8.041-.8,11-2.36a31.327,31.327,0,0,1,9.048-2.6C40.83-2.818,47-2.9,50.088-.643s7.454,5.948,8,7.822,6.3,22.189,6.3,22.189S65.863,16.932,66.918,15.7Z"/><path class="cls-14" d="M26.844,3.022c.672-.367,5.914-3.126,6.022-8.686S28.9-16.087,25.249-15.812s-14.706,4.171-14.706,4.171,14.739-3.79,16.66.66S26.2,1.35,26.2,1.35s-1.285,2.17-1.519.288,1.35-6.787-2.019-9.88c-2.634-2.418-4.488-2.25-8.82-.967A32.445,32.445,0,0,0,1.972-3.337,23.9,23.9,0,0,1-7.708.838s9.865.214,13.83-.85S14.32-5.8,16.751-4.45s6.64,7.732,6.64,7.732A4.18,4.18,0,0,0,26.844,3.022Z"/><path class="cls-14" d="M20.714,1.551S14.884.86,10.9,1.734,5.548,3.867,2.766,5.212-4.183,9.105-4.183,9.105s1.677.723,7.928-.7S10.721,5.189,13.2,4.606A52.463,52.463,0,0,0,20.714,1.551Z"/><path class="cls-15" d="M45.078-7.662,51.7-7.976c1.107-.042,2.2-.131,3.332-.124a5.572,5.572,0,0,1,3.288.913,6.717,6.717,0,0,1,2,2.729,15.254,15.254,0,0,1,1.022,3.18,38.52,38.52,0,0,1,.618,6.607,38.391,38.391,0,0,0-.837-6.557,15.006,15.006,0,0,0-1.107-3.085A6.336,6.336,0,0,0,58.062-6.82a5.078,5.078,0,0,0-3.028-.718c-1.077.029-2.189.155-3.289.235l-6.61.538Z"/><path class="cls-15" d="M11.419,7.88a11.928,11.928,0,0,1-5.057,3.393,20.557,20.557,0,0,1-5.96.8,10.392,10.392,0,0,0-5.58,1.509,3.869,3.869,0,0,0-1.122,2.6,9.329,9.329,0,0,0,.141,2.952,9.333,9.333,0,0,1-.252-2.962,4.012,4.012,0,0,1,1.093-2.763A10.708,10.708,0,0,1,.369,11.627,20.058,20.058,0,0,0,6.13,10.64,11.134,11.134,0,0,0,10.73,7.3Z"/><path class="cls-16" d="M36.744,39.1a3.236,3.236,0,0,1,2.2-3.535,6.705,6.705,0,0,1,4.493.25"/><path class="cls-17" d="M45.077,26.14s-.382-8.1,4.6-8.259,7.283,5.867,5.9,8.537S47.143,33.041,45.077,26.14Z"/><path class="cls-17" d="M29.655,31.466s-1-8.051-6.118-7.451-6.435,6.9-4.567,9.325S28.725,38.593,29.655,31.466Z"/><path class="cls-16" d="M14.993,21.245a7.106,7.106,0,0,1,7.19-5.426"/><path class="cls-16" d="M44.1,11.871a14.039,14.039,0,0,0,2.387-.368,11.125,11.125,0,0,1,1.689-.356c1.627-.138,3.162.711,4.578,1.531"/><path class="cls-16" d="M26.817,42.571a21.834,21.834,0,0,0,15.529.394A21.339,21.339,0,0,0,53.975,32.853"/><ellipse class="cls-15" cx="27.798" cy="31.988" rx="2.795" ry="3.286" transform="translate(-3.307 3.205) rotate(-6.229)"/><ellipse class="cls-15" cx="53.752" cy="25.426" rx="2.795" ry="3.286" transform="translate(-2.442 5.983) rotate(-6.229)"/><path class="cls-3" d="M83.307,67.5l5.834-1.945s2.772-4.635,4.243-6.718c2.121-3.005,4.6-2.829,3.536,0s-1.084,5.127.253,4.42,9.47-5.657,11.415-4.95-5.127,5.657-5.127,5.657,9.37-.354,10.077,1.591-10.431,1.415-9.724,2.475,7.426,1.238,7.779,2.829-8.309.53-8.486,2.121,5.3.428,4.42,2.424-5.48.479-7.779,0-8.486-2.247-8.486-2.247L84.191,75.4S80.655,70.326,83.307,67.5Z"/><path class="cls-5" d="M36.907,66.027c-1.121-.475-2.156-.973-3.066-1.451a70.35,70.35,0,0,0-5.043,22.5c-.188,3.409-.127,6.829-.332,10.237a102.683,102.683,0,0,1-2.775,17.143,65.672,65.672,0,0,0,7.456.324A209.294,209.294,0,0,1,36.907,66.027Z"/><path class="cls-4" d="M39.922,67.143c-1.051-.331-2.062-.712-3.015-1.116a209.294,209.294,0,0,0-3.76,48.748c1.54,0,3.189-.015,4.9-.05q-.055-1.138-.1-2.275C37.349,97.305,36.786,81.921,39.922,67.143Z"/><path class="cls-5" d="M43.857,68.05a24.5,24.5,0,0,1-3.935-.907c-3.136,14.778-2.573,30.162-1.974,45.307q.045,1.135.1,2.275c2.479-.05,5.076-.134,7.624-.235A290.912,290.912,0,0,1,43.857,68.05Z"/><path class="cls-4" d="M28.8,87.071a70.35,70.35,0,0,1,5.043-22.5c-1.151-.6-2.092-1.16-2.759-1.575-4.969,9.047-6.46,19.69-7.82,29.993l-2.679,20.292a26.653,26.653,0,0,0,4.982,1.151l.126.014a102.683,102.683,0,0,0,2.775-17.143C28.671,93.9,28.61,90.48,28.8,87.071Z"/><path class="cls-5" d="M31.082,63C30.4,62.577,30,62.3,30,62.3a99.917,99.917,0,0,0-9.057,13.142c-3.593,6.534-6.483,34.235-6.483,34.235s1.711,2.111,6.125,3.612l2.679-20.292C24.622,82.691,26.113,72.048,31.082,63Z"/><path class="cls-5" d="M64.611,101.048s-5.244-26.657-7.858-28.617a14.642,14.642,0,0,1-2.019-1.964A60.8,60.8,0,0,0,57,90.734c1.217,4.223,2.893,8.31,3.953,12.575a66.737,66.737,0,0,1,1.572,10.3l.744-.049Z"/><path class="cls-4" d="M57,90.734a60.8,60.8,0,0,1-2.266-20.267,60.492,60.492,0,0,1-4.487-6.006c.173.273,1.017,1.754-.024,2.779,1.58,15.684,7.129,31.057,7.611,46.654,2.136-.123,3.8-.228,4.691-.285a66.737,66.737,0,0,0-1.572-10.3C59.893,99.044,58.217,94.957,57,90.734Z"/><path class="cls-4" d="M50.247,64.461l-.029-.044Z"/><path class="cls-5" d="M46.553,68.23a74.1,74.1,0,0,0,2.5,21.533,104.1,104.1,0,0,1,2.8,10.88c.693,4.46.405,9.037.625,13.54,1.978-.1,3.8-.2,5.362-.289-.482-15.6-6.031-30.97-7.611-46.654C49.669,67.786,48.571,68.2,46.553,68.23Z"/><path class="cls-4" d="M49.048,89.763a74.1,74.1,0,0,1-2.5-21.533c-.118,0-.217.011-.341.011a17.841,17.841,0,0,1-2.355-.191,290.912,290.912,0,0,0,1.814,46.44c2.357-.092,4.665-.2,6.8-.307-.22-4.5.068-9.08-.625-13.54A104.1,104.1,0,0,0,49.048,89.763Z"/><path class="cls-4" d="M47.148,69.5s-20.572-4.234-20.331,4.665c.206,7.622,5.094,9.79,17.822,12.97s27.614-4.553,31.15-5.967S86.042,77.33,86.042,77.33L83.921,66.317s-1.1.424-2.8,1.059C75.9,69.333,64.986,73.293,62.94,73.03,60.231,72.681,51.779,70.174,47.148,69.5Z"/><path class="cls-18" d="M28.231,77.106s12.315,4.022,19.51,4.563,12.82-.965,18.053-2.633,18.575-6.769,18.575-6.769v1.439s-8.5,4.579-11.512,5.756-20.8,6.565-24.723,5.572S34.32,81.9,31.651,81.218s-2.532-1.625-2.532-1.625Z"/><path class="cls-4" d="M47.153,66.525c-3.719-1.191-12.185-1.42-15.315-3.464s-4.334,1.515-9.717,3.464S3.085,69.366,3.24,65s19.193-8.663,19.193-8.663l.548.314-4.128-2.361S-2.1,59.644-2.1,65.531,4.769,73.576,7.123,79.07s11.257,7.652,13.183,4.513,6.084-12.27,8.813-13.493,22.142-.4,23.233-.279-5.2-3.286-5.2-3.286"/><path class="cls-4" d="M51.548,69.66s-2.379-1.115-2.171-2.083-.532-5.562-.532-5.562L48.6,59.683h1.928s1.627,3.207,2.895,5.263,1.275,2.449,1.223,2.743a3.244,3.244,0,0,0,.015.785Z"/><path class="cls-19" d="M87.85,97.692s-2.061.392-1.57,1.668,2.158,1.124,3.924,1.249a73.941,73.941,0,0,1,10.891,1.105c4.022.883,6.377.277,7.947,2.837s.981,3.446,3.63,4.453,5.557-.226,5.3-1.893,1.073-1.57-4.713-4.808-9.415-4.317-13.634-4.611S87.85,97.692,87.85,97.692Z"/><path class="cls-20" d="M91.331,92.8c0-.606-3.936.757-3.936,3.179s-.6,3.632,3.028,4.087,11.2-.152,14.077,1.059,4.692.757,5.9,3.179a12.914,12.914,0,0,0,4.087,4.238,3.415,3.415,0,0,0,3.443-2.27c1.1-2.574,1.7-6.358-.87-7.115s-10.506-4.15-14.486-4.648S91.331,92.8,91.331,92.8Z"/><path class="cls-21" d="M116.609,100.609s-2.422,1.428-2.573,3.4-.549,4.514,1.316,4.488S121.419,101.482,116.609,100.609Z"/><path class="cls-19" d="M111.3,94.179s-4.869,2.06-2.966,2.747,6.286,2.943,10.815,2.943,10.51-.609,11.493-1.58,2.161-2.835.787-3.522S111.3,94.179,111.3,94.179Z"/><path class="cls-22" d="M125.582,90.462s-2.876,2.466-4.844.855-2.876-1.309-4.238-.855-5.752.337-6.509-.361-1.514-1.455-1.514-1.455-.665,3.481.878,5.3a26.573,26.573,0,0,0,2.6,2.724l12.564.757s7.473-.259,5.9-2.422A19.418,19.418,0,0,1,128,89.251Z"/><path class="cls-23" d="M129.517,83.348s-6.088-2.92-10.029-1.06c-2.326,1.1-3.14,2.422-5.41,2.876s-4.828-.012-5.706,2.87c-.612,2.009,1.622,4.137,4.875,3.283s1.9-.9,4.846.284,5.521.213,7.034-.084S128,89.251,128,89.251l2.271-5Z"/><path class="cls-24" d="M130.274,84.256l-2.271,5s1.363,5.147,1.136,5.9-1.287,1.362-3.557.908-9.234.605-9.688.605h-3.936a24.877,24.877,0,0,0,9.158,1.514c1.746-.07,4.466.606,7.644-.757S133,95,133,92.43,130.274,84.256,130.274,84.256Z"/><path class="cls-19" d="M76.073,105.733s-2.346,1.163-1.3,1.723,5.3.655,7.417.655,9.254.32,11.221.961a33.425,33.425,0,0,0,7.725,1.692,5.823,5.823,0,0,0,4.944-1.839c.357-.632,1.025-.791-1.038-1.409S76.073,105.733,76.073,105.733Z"/><path class="cls-25" d="M84.613,101.142s-7.662-1.467-8.982,1.158c-1.055,2.1-.958,5.178,2.118,4.446,2.391-.568,24.084,3.387,25.772,2.784s3.561-6.959.862-7.718S84.613,101.142,84.613,101.142Z"/><path class="cls-26" d="M102.919,101.569s-2.025,1.95-1.717,3.9.51,4.518,2.319,4.061S107.8,101.306,102.919,101.569Z"/><path class="cls-19" d="M85.121,111.446s-2.551.589-1.668,1.374,5,1.864,7.064,2.354,8.928,2.453,10.694,3.532a33.453,33.453,0,0,0,7.123,3.434,5.826,5.826,0,0,0,5.236-.645c.494-.532,1.181-.532-.684-1.611S85.121,111.446,85.121,111.446Z"/><path class="cls-27" d="M94.492,108.956s-7.114-3.2-9.005-.952c-1.514,1.8-2.132,4.816,1.03,4.816,2.458,0,22.646,8.868,24.429,8.672s5.074-5.945,2.624-7.309S94.492,108.956,94.492,108.956Z"/><path class="cls-28" d="M112.2,113.609s-2.422,1.428-2.574,3.4-.549,4.514,1.317,4.487S117.013,114.482,112.2,113.609Z"/></g></svg>