<svg id="word" xmlns="http://www.w3.org/2000/svg" viewBox="0 0 160 160"><defs><style>.cls-1{fill:#f5abcb;}.cls-1,.cls-3{stroke:#9d4b9c;stroke-miterlimit:10;stroke-width:0.709px;}.cls-2{fill:#9d4b9c;}.cls-3{fill:#aacf40;}</style></defs><path class="cls-1" d="M88.638,54.6s-2.357.945-4.821-2.577S79.96,44.8,80.174,43.254s2.25-.773,6.321.43,9.035,3.15,9.393,4.411S94.1,52.448,93.566,53.05,88.638,54.6,88.638,54.6Z"/><path class="cls-2" d="M91.606,36s1,1.593,2.662,4.428c.828,1.421,1.823,3.153,2.888,5.185a61.249,61.249,0,0,1,3.194,7.019,39.315,39.315,0,0,1,2.285,8.862,27.785,27.785,0,0,1-.519,10.229,23.619,23.619,0,0,1-5.043,9.731c-2.416,2.87-5.266,5.351-7.727,8.132a29.07,29.07,0,0,0-5.711,9.356,25.015,25.015,0,0,0-1.36,5.217A24.754,24.754,0,0,0,82,109.413a26.654,26.654,0,0,0,2.378,9.652c1.306,2.924,2.853,5.562,4.124,8.087a31.252,31.252,0,0,1,2.8,7.2,16.338,16.338,0,0,1,.355,5.934,11.24,11.24,0,0,1-1.12,3.649,8.822,8.822,0,0,1-.489.878l-.177.3.165-.3a8.752,8.752,0,0,0,.452-.9,11.564,11.564,0,0,0,.975-3.649,16.008,16.008,0,0,0-.523-5.821A33.155,33.155,0,0,0,88,127.411c-1.307-2.485-2.9-5.093-4.288-8.044a26.275,26.275,0,0,1-2.58-9.908,25.58,25.58,0,0,1,.251-5.436,25.981,25.981,0,0,1,1.374-5.4,29.983,29.983,0,0,1,5.841-9.7c2.538-2.831,5.4-5.288,7.761-8.071a22.7,22.7,0,0,0,4.916-9.342,28.264,28.264,0,0,0,.637-9.931,38.714,38.714,0,0,0-2.091-8.754,88.412,88.412,0,0,0-5.724-12.3Z"/><path class="cls-3" d="M97.1,80.03S86.888,82.808,81.96,74.9s-8.785-15.81-8.785-15.81,8.356,3.265,14.142,3.952,9.642,3.609,9.642,8.077S97.1,80.03,97.1,80.03Z"/><path class="cls-2" d="M95.673,83.324a9.1,9.1,0,0,1,4.929-1.375c3,0,6.856,2.578,6.856,2.578s-6.642-.172-9.213-.172a18.645,18.645,0,0,0-5.143.859Z"/><path class="cls-2" d="M69.96,93.291s1.072-1.2,7.071-1.547,7.714,4.021,7.714,4.021l-2.357,1.994s.857.653-3-1.994S74.889,92.775,69.96,93.291Z"/><path class="cls-3" d="M82.174,110.733c.214-.515,1.286-12.923,6.428-14.194s4.5-.619,13.5,0,11.143,0,11.143,0-8.571,2.681-11.143,6.118-6.642,11-9.856,11.341S82.174,110.733,82.174,110.733Z"/><path class="cls-1" d="M102.532,29.434a3.3,3.3,0,0,1,2.423-1.706,2.61,2.61,0,0,1,1.959.8,4.271,4.271,0,0,1,.911,1.672,15.11,15.11,0,0,1-1.611,12.881c-1.344,2.155-2.776-.062-3.745-1.153-.811-.912-2.062-1.737-2.5-2.825C98.812,36.241,100.815,31.921,102.532,29.434Z"/><path class="cls-1" d="M108.478,40.317a8.448,8.448,0,0,1,5.837,1.6,4.186,4.186,0,0,1,1.526,4.71,1.143,1.143,0,0,1-.84.791c-.686.1-1.125-.557-1.332-1.092a4.011,4.011,0,0,0-2.535-2.806c-1.853-.465-4.92.976-6.311-.688C103.407,41.136,107.08,40.429,108.478,40.317Z"/><path class="cls-3" d="M88.638,54.6a27.775,27.775,0,0,0,6.178,1.232c3,.172,5.286-.458,4.857-3.036s-3.785-4.7-3.785-4.7l-3.072,4.869Z"/><path class="cls-3" d="M99.744,40.533S97.209,44.8,98.28,47.722s2.964,2.607,4.679,1.232,3.214-4.64,3.214-4.64Z"/><path class="cls-2" d="M115.615,37.415c-.592.012-1.185.031-1.766.085s-1.161.155-1.735.261a15.822,15.822,0,0,0-1.693.427c-.555.171-1.1.38-1.63.6a13.539,13.539,0,0,0-1.55.769,12.326,12.326,0,0,0-1.445.939c-.238.162-.446.361-.668.541s-.419.389-.63.581a10.533,10.533,0,0,0-1.1,1.307l-.577-.352a6.052,6.052,0,0,0,.625-1.967,13.042,13.042,0,0,0,.178-2.135,26,26,0,0,0-.376-4.335,17.354,17.354,0,0,1,.829,4.322,8.763,8.763,0,0,1-.661,4.439l-.577-.352A11.129,11.129,0,0,1,104,41.132c.222-.208.426-.438.664-.627s.462-.4.715-.565a13,13,0,0,1,1.534-.972,14.184,14.184,0,0,1,1.648-.748,12.888,12.888,0,0,1,1.724-.528,16.143,16.143,0,0,1,1.768-.321,13.365,13.365,0,0,1,1.788-.094A13.584,13.584,0,0,1,115.615,37.415Z"/><path class="cls-2" d="M110.863,33.288s-.156.1-.437.245-.665.383-1.118.661a14.887,14.887,0,0,0-2.98,2.451c-.249.246-.461.524-.68.788-.2.28-.415.541-.583.822a10.1,10.1,0,0,0-.851,1.58,9.042,9.042,0,0,0-.438,1.214c-.079.3-.134.481-.134.481s-.008-.181,0-.5a6.466,6.466,0,0,1,.188-1.323,7.035,7.035,0,0,1,.7-1.769,8.65,8.65,0,0,1,1.28-1.772,9.637,9.637,0,0,1,1.655-1.419,9.361,9.361,0,0,1,1.656-.909,6.223,6.223,0,0,1,.706-.265c.212-.076.4-.127.551-.166C110.684,33.325,110.863,33.288,110.863,33.288Z"/><path class="cls-2" d="M96.635,80.245l-.358-.7c-.221-.451-.57-1.063-1.006-1.79A28.973,28.973,0,0,0,91.5,72.864a32.094,32.094,0,0,0-2.387-2.281c-.8-.685-1.564-1.318-2.257-1.809s-1.258-.924-1.681-1.188l-.648-.444.717.324a19.591,19.591,0,0,1,1.833.976A24.031,24.031,0,0,1,89.513,70.1c.421.337.858.687,1.273,1.073s.834.784,1.231,1.2a21.379,21.379,0,0,1,2.129,2.634c.319.437.572.9.827,1.32.232.439.47.841.647,1.235a15.846,15.846,0,0,1,.784,1.928Z"/><path class="cls-2" d="M82.615,110.834s.1-.27.293-.732c.091-.233.239-.5.4-.817a9.348,9.348,0,0,1,.6-1.027c.222-.376.518-.742.815-1.145.326-.376.645-.8,1.04-1.178a16.284,16.284,0,0,1,1.223-1.154c.444-.36.893-.734,1.373-1.062s.971-.639,1.463-.93,1-.538,1.49-.77a18.135,18.135,0,0,1,2.776-1.033,17,17,0,0,1,2.037-.449c.5-.078.782-.108.782-.108s-.266.116-.731.3c-.47.163-1.118.463-1.892.8a32.1,32.1,0,0,0-5.351,3.012c-.467.3-.9.653-1.333.988-.42.352-.847.681-1.226,1.041-.395.342-.742.708-1.093,1.038-.315.36-.653.671-.916,1a20.065,20.065,0,0,0-1.281,1.594C82.791,110.606,82.615,110.834,82.615,110.834Z"/></svg>