<svg id="word" xmlns="http://www.w3.org/2000/svg" viewBox="0 0 160 160"><defs><style>.cls-1{fill:#727c80;}.cls-1,.cls-2,.cls-3,.cls-32,.cls-33,.cls-34,.cls-4,.cls-5,.cls-6{stroke:#9c4c9c;stroke-miterlimit:10;}.cls-2{fill:#7c868c;}.cls-3{fill:#bcc4c9;}.cls-4{fill:#4da9c5;}.cls-5{fill:#22282c;}.cls-6{fill:#bbdfde;}.cls-7{fill:#d3d6d7;}.cls-8{fill:#141515;}.cls-9{fill:#434343;}.cls-10{fill:#414242;}.cls-11{fill:#fff;}.cls-12{fill:#abafb0;}.cls-13{fill:#585958;}.cls-14{fill:#535859;}.cls-15{fill:#343434;}.cls-16{fill:#999e9e;}.cls-17{fill:#999e9f;}.cls-18{fill:#555a5c;}.cls-19{fill:#e1e3e2;}.cls-20{fill:#c7caca;}.cls-21{fill:#565d5d;}.cls-22{fill:#9ea2a3;}.cls-23{fill:#74797b;}.cls-24{fill:#f1f2f2;}.cls-25{fill:#8e9394;}.cls-26{fill:#383b3c;}.cls-27{fill:#aeb3b5;}.cls-28{fill:#83898a;}.cls-29{fill:#767c7f;}.cls-30{fill:#c5c8c8;}.cls-31{fill:#d1d4d5;}.cls-32{fill:none;}.cls-33{fill:#4f5559;}.cls-34{fill:#c1c18c;}</style></defs><path class="cls-1" d="M42.12,105.276s1.311,20.592,1.594,21.307a2.773,2.773,0,0,0,2.34,1.465H87.805l26.91.281s3.636.31,4.649-2.461.953-18.914.953-18.914l-58.248.643Z"/><path class="cls-2" d="M40.7,106.5s27.7,6.549,41.56,6.006,38.054-4.913,38.054-4.913l.237-47.544-80.02.359Z"/><path class="cls-3" d="M114.094,32.994s.232-1.333-.557-1.333-65.612.217-65.612.217a8.6,8.6,0,0,0-2.408,2.933c-.8,1.745-7.214,11.467-6.211,11.773s9.608.564,9.608.564l63.374-.251s9.1,1.255,9,.066-4.239-7.591-4.239-7.591Z"/><path class="cls-4" d="M57.015,69.723s-8.2-.522-7.945,0a20.148,20.148,0,0,1-.016,3.934s-.947,30.757-.016,31.179a13.839,13.839,0,0,0,4.846.916c1.825,0,54.4-.365,55.572-.744s1.555-4.709,1.3-5.961.412-27.142-.038-27.966-19.431-.743-19.431-.743Z"/><path class="cls-5" d="M49.561,63.12s-.774,2.792-.17,3.7,4.738.406,4.738.406l.137-.763a51.86,51.86,0,0,0,5.656,1.075c2.04.187,15.9.92,22.072.837s26.1-1.665,26.1-1.665.182,1.215.808,1.215,4.206.547,4.23-.479.9-3.591,0-3.869a29.543,29.543,0,0,0-4.973-.02l-.736.8s-21.6,1.44-27.673,1.254-24.676-1.614-24.676-1.614a8.309,8.309,0,0,0-2-1.334C52.044,62.213,49.561,63.12,49.561,63.12Z"/><path class="cls-6" d="M52.668,74.643s-1.772-.311-1.785.7.4,27.529,1.329,27.586,7.788.057,7.788.057l46.579.257s2.511-1.155,2.06-2.585-.272-26-.272-26Z"/><path class="cls-2" d="M40.308,46.89s-1.5-.743-1.675.585-1.091,12.422,0,12.578,2.681.356,2.681.356l54.114-.356h25.126s.874-.022,1.049-1.3.7-11.722-.314-11.79S78.6,47.1,78.6,47.1Z"/><path class="cls-7" d="M57.345,34.149h2.836c.959.115,1.925.179,2.875.377A11,11,0,0,1,66.231,35.6a2.823,2.823,0,0,1,1.2,1.151,1.382,1.382,0,0,1-.7,1.73,8.52,8.52,0,0,1-3.14,1.291c-.522.123-1.054.194-1.578.308a16.992,16.992,0,0,1-2.32.173h-1.8a17.369,17.369,0,0,1-5.507-.93,4.647,4.647,0,0,1-2.048-1.268,1.191,1.191,0,0,1-.315-1.146,2.85,2.85,0,0,1,1.658-1.516A13.848,13.848,0,0,1,55.943,34.3C56.409,34.238,56.877,34.2,57.345,34.149Z"/><path class="cls-8" d="M67.984,39.581a2.982,2.982,0,0,1-1.931,1.661A15.642,15.642,0,0,1,60.789,42.4a23.476,23.476,0,0,1-7.924-.634,8.24,8.24,0,0,1-2.375-1.026,3.285,3.285,0,0,1-.8-.748,1.4,1.4,0,0,1-.157-1.13,1,1,0,0,1,.321-.623c.229.03.17.219.189.356a1.576,1.576,0,0,0,.855,1.263c.419.206.829.431,1.252.63a.754.754,0,0,1,.1.042c.131.065.273.107.409.16a5.48,5.48,0,0,0,.554.141,11.146,11.146,0,0,0,1.6.373c.164.02.322.069.486.087a.752.752,0,0,1,.124.023c.444.047.887.09,1.332.123.064,0,.128.006.192.015a.919.919,0,0,0,.444.051c.827-.014,1.657.044,2.482,0a16.662,16.662,0,0,0,5.6-1.092c.414-.172.786-.42,1.18-.627a1.147,1.147,0,0,0,.746-1.04c.023-.244,0-.492.011-.738.008-.131-.025-.3.183-.326C67.605,38.294,68.017,39.182,67.984,39.581Z"/><path class="cls-9" d="M67.593,37.686a3.342,3.342,0,0,0-.071,1.036,1.324,1.324,0,0,1-.812,1.162.227.227,0,0,1,.069-.216,1.605,1.605,0,0,0,.538-1.553,8.522,8.522,0,0,1-5.137,1.992.186.186,0,0,1-.117-.135c.792-.2,1.6-.3,2.384-.547A7.42,7.42,0,0,0,66.67,38.39a1.558,1.558,0,0,0,.756-1.641A1.51,1.51,0,0,1,67.593,37.686Z"/><path class="cls-10" d="M50.894,39.964a1.578,1.578,0,0,1-.959-1.356c-.018-.124.041-.266-.083-.366.153-.29.05-.6.082-.9.016-.146-.061-.311.084-.431a1.774,1.774,0,0,0,.942,1.575,9.229,9.229,0,0,0,3.349,1.255,20.012,20.012,0,0,0,3.5.412c-.044.216-.228.152-.365.182a1.609,1.609,0,0,1-.318,0h-.19l-.191,0a9.006,9.006,0,0,1-1.145-.135c-.1-.011-.209-.018-.312-.038-.162-.033-.325-.061-.489-.081a12.925,12.925,0,0,1-1.625-.375,2.488,2.488,0,0,1-.4-.111c-.158-.061-.32-.11-.479-.167-.07-.026-.138-.056-.207-.083a4.545,4.545,0,0,1-1.978-1.326,1.4,1.4,0,0,1,0,.262,1.668,1.668,0,0,0,.541,1.3C50.774,39.675,50.914,39.776,50.894,39.964Z"/><path class="cls-11" d="M64.366,35.187c-.8-.128-1.557-.3-2.339-.369-.455-.039-.905-.13-1.364-.126a24.762,24.762,0,0,0-4,.159,9.835,9.835,0,0,0-4.385,1.588,1.989,1.989,0,0,0-.528.576.963.963,0,0,0,.261,1.35.785.785,0,0,1,.3.311,3.391,3.391,0,0,1-1.574-1.134.978.978,0,0,1,.219-1.154,4.285,4.285,0,0,1,1.892-1.152,15.274,15.274,0,0,1,3.748-.791,18.974,18.974,0,0,1,2.19-.129,18.317,18.317,0,0,1,5.295.77C64.173,35.118,64.269,35.154,64.366,35.187Z"/><path class="cls-12" d="M55.158,39.622c1.515.1,3.025.065,4.531.027A12.711,12.711,0,0,0,64.727,38.6a3.268,3.268,0,0,0,1.231-.9,1.121,1.121,0,0,0-.081-1.617c-.071-.073-.137-.149-.235-.256a1.57,1.57,0,0,1,1.168,1.443,1.375,1.375,0,0,1-.7,1.118,7.673,7.673,0,0,1-3.011,1.19,20.311,20.311,0,0,1-5.472.378A11.344,11.344,0,0,1,55.158,39.622Z"/><path class="cls-13" d="M57.405,40.228c.132-.042.287.028.406-.08h1.9c.111.093.329-.09.382.15a.574.574,0,0,1-.436.133c-.6.008-1.2.012-1.794,0C57.694,40.425,57.49,40.451,57.405,40.228Z"/><path class="cls-9" d="M60.122,40.228c-.133-.041-.287.027-.407-.079l2.348-.177.091.071A2.666,2.666,0,0,1,60.122,40.228Z"/><path class="cls-14" d="M49.531,38.865c-.1,1.1.677,1.578,1.46,2.022a11.652,11.652,0,0,0,3.616,1.134,23.669,23.669,0,0,0,5.717.3,16.263,16.263,0,0,0,5.618-1.149,4.449,4.449,0,0,0,2.042-1.586c0,.406.022.812.006,1.217a1.486,1.486,0,0,1-.584,1.028,6.571,6.571,0,0,1-2.674,1.333,19.509,19.509,0,0,1-5.343.75,5.585,5.585,0,0,0-1.253,0A18.011,18.011,0,0,1,51.5,42.7a6.271,6.271,0,0,1-.865-.457,2.056,2.056,0,0,1-1.16-2.1A4.961,4.961,0,0,1,49.531,38.865Z"/><path class="cls-15" d="M58.136,43.909a2.486,2.486,0,0,1,1.253,0Z"/><path class="cls-16" d="M60.122,40.228a14.264,14.264,0,0,0,2.032-.185,14.6,14.6,0,0,0,2.922-.7A4.674,4.674,0,0,0,67.41,37.8a1.981,1.981,0,0,1-.7,2.086,11.931,11.931,0,0,1-5.171,1.609,28.252,28.252,0,0,1-4.194.131.335.335,0,0,1-.35-.411c.035-.329-.109-.68.121-.985h.289A11.277,11.277,0,0,0,60.122,40.228Z"/><path class="cls-17" d="M53.173,39.589l1.652.4a1.466,1.466,0,0,1,0,1.325,7.425,7.425,0,0,1-1.665-.383.14.14,0,0,1-.007-.17,8.384,8.384,0,0,1,1.244.274c-.223-.071-.488-.113-.742-.191-.205-.063-.444-.073-.57-.294A1.1,1.1,0,0,1,53.173,39.589Z"/><path class="cls-17" d="M50.894,39.964a2.11,2.11,0,0,1-.839-2.237,4.551,4.551,0,0,0,2.084,1.539.874.874,0,0,1,.083.7c-.159.259-.341.108-.5.012a4.328,4.328,0,0,1-1.442-1.419.88.88,0,0,0,.3.683,4.54,4.54,0,0,0,1.171.854,1.04,1.04,0,0,1,.425.274.193.193,0,0,1-.033.22A7.15,7.15,0,0,1,50.894,39.964Z"/><path class="cls-18" d="M55.6,40.064l1.2.153a1.718,1.718,0,0,1-.01,1.342,7.069,7.069,0,0,1-1.422-.147,1.7,1.7,0,0,0,.114-.756A.833.833,0,0,1,55.6,40.064Z"/><path class="cls-19" d="M54.824,41.31V39.985a.826.826,0,0,1,.47.067,1.451,1.451,0,0,1,0,1.341C55.124,41.433,54.98,41.333,54.824,41.31Z"/><path class="cls-20" d="M52.31,39.321c.153.057.334.045.455.184a1.444,1.444,0,0,1,.1,1.117.181.181,0,0,1-.254.16l-.394-.171A3.342,3.342,0,0,1,52.31,39.321Z"/><path class="cls-21" d="M52.607,40.782c.2-.047.159-.2.159-.344v-.933l.408.084-.009,1.02a.1.1,0,0,1,0,.158v.16A1.431,1.431,0,0,1,52.607,40.782Z"/><path class="cls-22" d="M55.292,41.393l0-1.341.3.012c.006.364,0,.729.021,1.093.011.2-.1.244-.254.255A.139.139,0,0,1,55.292,41.393Z"/><path class="cls-23" d="M57.116,40.228c0,.339.012.678-.015,1.014a.363.363,0,0,0,.244.382.528.528,0,0,1-.4-.071,2.463,2.463,0,0,1-.007-1.322Z"/><path class="cls-24" d="M52.31,39.321c0,.31-.007.619-.013.929,0,.126.036.262-.084.361a.088.088,0,0,1-.068-.017l-.02-.206a.254.254,0,0,1,.014-.331v-.791C52.2,39.265,52.267,39.257,52.31,39.321Z"/><path class="cls-25" d="M56.941,40.231l.007,1.322-.162.006.01-1.342Z"/><path class="cls-26" d="M59.26,43.415a6.088,6.088,0,0,0,2.026-.579,6.812,6.812,0,0,1,2.529-.813,7.108,7.108,0,0,0,3.82-1.8c.015-.015.047-.013.074-.019.255.753-.258,1.139-.75,1.5a8.2,8.2,0,0,1-3.41,1.343,19.823,19.823,0,0,1-2.959.333A11.125,11.125,0,0,1,59.26,43.415Z"/><path class="cls-27" d="M53.47,42.99a6.947,6.947,0,0,1-3.026-1.224,1.422,1.422,0,0,1-.735-1.558c.819,1.59,2.293,2.2,3.842,2.7C53.573,42.978,53.549,43.01,53.47,42.99Z"/><path class="cls-28" d="M53.47,42.99l.081-.087.717.165A1.544,1.544,0,0,1,53.47,42.99Z"/><path class="cls-29" d="M59.012,41.37a4.917,4.917,0,0,0,1.831-.527,7.1,7.1,0,0,1,2.578-.867,7.618,7.618,0,0,0,3.825-1.724,1.011,1.011,0,0,1-.23,1.024,7.01,7.01,0,0,1-3.35,1.626,17.97,17.97,0,0,1-3.059.43A13.474,13.474,0,0,1,59.012,41.37Z"/><path class="cls-30" d="M53.16,40.767l0-.158,1.41.428A4.219,4.219,0,0,1,53.16,40.767Z"/><path class="cls-31" d="M52.139,40.057l-.014.331a4.855,4.855,0,0,1-1.489-.926,1.152,1.152,0,0,1-.422-1.258A3.792,3.792,0,0,0,52.139,40.057Z"/><path class="cls-32" d="M67.984,39.417c.033-.4-.379-1.287-.391-1.9a1.507,1.507,0,0,0-.167-.936,2.811,2.811,0,0,0-1.2-1.151,10.944,10.944,0,0,0-3.175-1.072c-.95-.2-1.916-.262-2.875-.377H57.345c-.468.048-.936.088-1.4.146a13.822,13.822,0,0,0-4.267,1.095,2.845,2.845,0,0,0-1.658,1.515c-.145.121-.068.286-.084.431-.032.3.071.615-.082.906a1,1,0,0,0-.321.623,4.954,4.954,0,0,0-.058,1.281,2.056,2.056,0,0,0,1.16,2.1,6.388,6.388,0,0,0,.865.458,17.989,17.989,0,0,0,6.638,1.2h1.253A19.508,19.508,0,0,0,64.732,43a6.584,6.584,0,0,0,2.674-1.333,1.49,1.49,0,0,0,.584-1.028C68.006,40.23,67.987,39.823,67.984,39.417ZM54.4,40.867c-.015,0-.03-.007-.045-.01h.006Z"/><path class="cls-7" d="M100.223,34.959h2.836c.96.115,1.926.178,2.876.377a10.958,10.958,0,0,1,3.174,1.072,2.814,2.814,0,0,1,1.2,1.151,1.382,1.382,0,0,1-.7,1.73,8.549,8.549,0,0,1-3.14,1.29c-.522.123-1.054.2-1.578.309a17,17,0,0,1-2.32.172q-.9,0-1.805,0a17.365,17.365,0,0,1-5.507-.931,4.633,4.633,0,0,1-2.048-1.268,1.19,1.19,0,0,1-.315-1.146A2.849,2.849,0,0,1,94.554,36.2a13.857,13.857,0,0,1,4.267-1.1C99.288,35.047,99.756,35.007,100.223,34.959Z"/><path class="cls-8" d="M110.862,40.391a2.983,2.983,0,0,1-1.93,1.661,15.642,15.642,0,0,1-5.264,1.161,23.525,23.525,0,0,1-7.924-.634,8.242,8.242,0,0,1-2.375-1.027,3.3,3.3,0,0,1-.8-.747,1.4,1.4,0,0,1-.157-1.13,1.006,1.006,0,0,1,.322-.623c.228.03.169.218.189.356a1.577,1.577,0,0,0,.854,1.263c.42.206.829.431,1.253.629a1,1,0,0,1,.1.043c.131.065.272.106.408.16.18.066.37.092.555.141a10.981,10.981,0,0,0,1.6.372c.163.02.321.07.485.088a.656.656,0,0,1,.125.023c.443.047.887.089,1.331.122.065,0,.129.007.193.016a.916.916,0,0,0,.443.05c.828-.013,1.657.045,2.483,0a16.657,16.657,0,0,0,5.6-1.093c.415-.171.786-.419,1.18-.627a1.147,1.147,0,0,0,.747-1.039c.023-.245-.005-.493.01-.738.008-.131-.025-.3.184-.327C110.483,39.1,110.9,39.992,110.862,40.391Z"/><path class="cls-9" d="M110.472,38.495a3.316,3.316,0,0,0-.071,1.037,1.326,1.326,0,0,1-.812,1.162.225.225,0,0,1,.068-.217,1.6,1.6,0,0,0,.538-1.552,8.528,8.528,0,0,1-5.137,1.992.186.186,0,0,1-.116-.136c.791-.2,1.6-.3,2.384-.546a7.428,7.428,0,0,0,2.222-1.035,1.558,1.558,0,0,0,.757-1.641A1.521,1.521,0,0,1,110.472,38.495Z"/><path class="cls-10" d="M93.773,40.773a1.577,1.577,0,0,1-.959-1.355c-.018-.124.041-.266-.083-.366.153-.291.05-.6.082-.906.016-.145-.061-.31.084-.431a1.77,1.77,0,0,0,.942,1.575,9.231,9.231,0,0,0,3.349,1.256,19.9,19.9,0,0,0,3.5.411c-.044.217-.228.153-.365.182a1.7,1.7,0,0,1-.319,0h-.38A8.788,8.788,0,0,1,98.481,41c-.1-.01-.209-.017-.313-.037-.161-.034-.324-.061-.488-.081a13.117,13.117,0,0,1-1.626-.375,2.451,2.451,0,0,1-.4-.112c-.158-.061-.32-.109-.479-.166-.07-.027-.139-.056-.208-.084a4.524,4.524,0,0,1-1.977-1.326,1.408,1.408,0,0,1,0,.263,1.665,1.665,0,0,0,.541,1.3C93.652,40.485,93.793,40.585,93.773,40.773Z"/><path class="cls-11" d="M107.245,36c-.8-.128-1.558-.3-2.339-.369-.455-.04-.905-.131-1.365-.126a24.881,24.881,0,0,0-4,.158,9.831,9.831,0,0,0-4.384,1.588,1.988,1.988,0,0,0-.528.576.964.964,0,0,0,.261,1.351.8.8,0,0,1,.3.31,3.374,3.374,0,0,1-1.574-1.134A.976.976,0,0,1,93.83,37.2a4.274,4.274,0,0,1,1.892-1.152,15.257,15.257,0,0,1,3.748-.792,18.973,18.973,0,0,1,2.19-.128,18.31,18.31,0,0,1,5.294.77C107.052,35.928,107.148,35.963,107.245,36Z"/><path class="cls-12" d="M98.036,40.432c1.515.1,3.026.064,4.531.027a12.716,12.716,0,0,0,5.039-1.049,3.273,3.273,0,0,0,1.231-.9,1.121,1.121,0,0,0-.081-1.617c-.071-.073-.138-.15-.235-.256a1.569,1.569,0,0,1,1.168,1.443,1.379,1.379,0,0,1-.7,1.118,7.682,7.682,0,0,1-3.012,1.189,20.3,20.3,0,0,1-5.471.378A11.421,11.421,0,0,1,98.036,40.432Z"/><path class="cls-13" d="M100.283,41.038c.133-.043.287.028.407-.081l1.9,0c.11.093.328-.09.381.15a.567.567,0,0,1-.435.132c-.6.009-1.2.013-1.794,0C100.573,41.235,100.369,41.26,100.283,41.038Z"/><path class="cls-9" d="M103,41.038c-.132-.041-.286.026-.406-.079l2.348-.178.091.071A2.664,2.664,0,0,1,103,41.038Z"/><path class="cls-14" d="M92.409,39.675c-.1,1.1.678,1.578,1.461,2.021a11.645,11.645,0,0,0,3.616,1.135,23.613,23.613,0,0,0,5.716.294,16.267,16.267,0,0,0,5.619-1.148,4.441,4.441,0,0,0,2.041-1.586c0,.405.023.812.007,1.217a1.483,1.483,0,0,1-.585,1.028,6.571,6.571,0,0,1-2.674,1.333,19.5,19.5,0,0,1-5.343.749,5.7,5.7,0,0,0-1.252,0,17.986,17.986,0,0,1-6.638-1.2,6.57,6.57,0,0,1-.866-.457,2.058,2.058,0,0,1-1.16-2.1A5.046,5.046,0,0,1,92.409,39.675Z"/><path class="cls-15" d="M101.015,44.718a2.482,2.482,0,0,1,1.252,0Z"/><path class="cls-16" d="M103,41.038a14.292,14.292,0,0,0,2.033-.186,14.573,14.573,0,0,0,2.921-.7,4.669,4.669,0,0,0,2.335-1.545,1.981,1.981,0,0,1-.7,2.086,11.93,11.93,0,0,1-5.172,1.608,27.966,27.966,0,0,1-4.193.131.334.334,0,0,1-.35-.411c.035-.328-.109-.679.12-.984h.289A11.277,11.277,0,0,0,103,41.038Z"/><path class="cls-17" d="M96.051,40.4l1.652.4a1.466,1.466,0,0,1,0,1.325,7.506,7.506,0,0,1-1.665-.383.141.141,0,0,1-.006-.17,8.4,8.4,0,0,1,1.243.274c-.223-.071-.488-.113-.742-.191-.2-.064-.443-.073-.57-.3A1.1,1.1,0,0,1,96.051,40.4Z"/><path class="cls-17" d="M93.773,40.773a2.11,2.11,0,0,1-.84-2.237,4.563,4.563,0,0,0,2.084,1.54.87.87,0,0,1,.084.7c-.159.259-.341.108-.5.012a4.334,4.334,0,0,1-1.443-1.42.884.884,0,0,0,.3.684,4.569,4.569,0,0,0,1.172.854,1.044,1.044,0,0,1,.425.273.2.2,0,0,1-.033.221A7.12,7.12,0,0,1,93.773,40.773Z"/><path class="cls-18" d="M98.475,40.873l1.2.153a1.716,1.716,0,0,1-.01,1.343,7.067,7.067,0,0,1-1.421-.148,1.694,1.694,0,0,0,.114-.756A.835.835,0,0,1,98.475,40.873Z"/><path class="cls-19" d="M97.7,42.12V40.8a.813.813,0,0,1,.471.067,1.454,1.454,0,0,1,0,1.341C98,42.242,97.859,42.142,97.7,42.12Z"/><path class="cls-20" d="M95.188,40.131c.154.056.335.045.456.183a1.444,1.444,0,0,1,.1,1.117.181.181,0,0,1-.254.16l-.394-.171A3.317,3.317,0,0,1,95.188,40.131Z"/><path class="cls-21" d="M95.486,41.591c.2-.046.159-.2.158-.343v-.934l.407.085-.009,1.019a.1.1,0,0,1,0,.159l0,.16A1.432,1.432,0,0,1,95.486,41.591Z"/><path class="cls-22" d="M98.17,42.2l0-1.341.3.011c.006.365,0,.73.022,1.094.01.2-.1.243-.254.254A.134.134,0,0,1,98.17,42.2Z"/><path class="cls-23" d="M99.994,41.038c0,.338.012.678-.014,1.014a.362.362,0,0,0,.244.381.526.526,0,0,1-.4-.071,2.479,2.479,0,0,1-.007-1.321Z"/><path class="cls-24" d="M95.188,40.131c0,.309-.006.619-.012.929,0,.125.035.262-.084.36a.087.087,0,0,1-.068-.016L95,41.2a.255.255,0,0,1,.014-.33v-.791C95.081,40.075,95.146,40.067,95.188,40.131Z"/><path class="cls-25" d="M99.819,41.041l.007,1.321-.162.007.01-1.343Z"/><path class="cls-26" d="M102.139,44.224a6.088,6.088,0,0,0,2.026-.579,6.825,6.825,0,0,1,2.529-.813,7.1,7.1,0,0,0,3.819-1.8c.015-.015.047-.012.074-.019.256.753-.258,1.14-.749,1.5a8.2,8.2,0,0,1-3.411,1.344,19.81,19.81,0,0,1-2.958.333A11.134,11.134,0,0,1,102.139,44.224Z"/><path class="cls-27" d="M96.348,43.8a6.942,6.942,0,0,1-3.026-1.225,1.422,1.422,0,0,1-.735-1.557c.82,1.59,2.294,2.2,3.843,2.694C96.452,43.787,96.428,43.819,96.348,43.8Z"/><path class="cls-28" d="M96.348,43.8l.082-.088.717.166A1.549,1.549,0,0,1,96.348,43.8Z"/><path class="cls-29" d="M101.891,42.18a4.895,4.895,0,0,0,1.83-.528,7.1,7.1,0,0,1,2.578-.866,7.622,7.622,0,0,0,3.825-1.724,1.011,1.011,0,0,1-.23,1.024,7.01,7.01,0,0,1-3.35,1.626,17.844,17.844,0,0,1-3.058.429A13.479,13.479,0,0,1,101.891,42.18Z"/><path class="cls-30" d="M96.039,41.577l0-.159,1.41.429A4.238,4.238,0,0,1,96.039,41.577Z"/><path class="cls-31" d="M95.017,40.867,95,41.2a4.859,4.859,0,0,1-1.488-.925,1.151,1.151,0,0,1-.422-1.258A3.8,3.8,0,0,0,95.017,40.867Z"/><path class="cls-32" d="M110.862,40.227c.034-.4-.379-1.288-.39-1.895a1.524,1.524,0,0,0-.167-.937,2.82,2.82,0,0,0-1.2-1.151,10.988,10.988,0,0,0-3.174-1.072c-.95-.2-1.916-.262-2.876-.377h-2.836c-.467.049-.936.089-1.4.147a13.856,13.856,0,0,0-4.267,1.094A2.851,2.851,0,0,0,92.9,37.552c-.145.12-.068.285-.084.431-.032.3.071.615-.082.905a1.009,1.009,0,0,0-.322.623,5.052,5.052,0,0,0-.058,1.282,2.058,2.058,0,0,0,1.16,2.1,6.282,6.282,0,0,0,.866.457,18.007,18.007,0,0,0,6.638,1.2h1.252a19.536,19.536,0,0,0,5.343-.75,6.559,6.559,0,0,0,2.674-1.333,1.483,1.483,0,0,0,.585-1.028C110.885,41.039,110.866,40.633,110.862,40.227Zm-13.588,1.45c-.015,0-.03-.008-.045-.01h.007Z"/><ellipse class="cls-33" cx="56.146" cy="53.4" rx="4.649" ry="4.454"/><polygon class="cls-34" points="54.179 48.662 59.007 48.662 56.593 58.732 55.22 58.423 54.179 48.662"/><ellipse class="cls-33" cx="71.933" cy="53.687" rx="4.649" ry="4.454"/><polygon class="cls-34" points="69.966 48.949 74.794 48.949 72.38 59.019 71.007 58.709 69.966 48.949"/><ellipse class="cls-33" cx="100.878" cy="53.477" rx="4.454" ry="4.649" transform="translate(3.526 113.133) rotate(-59.428)"/><polygon class="cls-34" points="101.594 48.397 105.751 50.853 98.551 58.295 97.527 57.33 101.594 48.397"/></svg>