<svg id="word" xmlns="http://www.w3.org/2000/svg" xmlns:xlink="http://www.w3.org/1999/xlink" viewBox="0 0 160 160"><defs><style>.cls-1,.cls-3,.cls-4{stroke:#9d4b9c;}.cls-1{fill:url(#radial-gradient);}.cls-2{fill:#1f0c2e;opacity:0.21;}.cls-3{fill:#807363;}.cls-4{fill:none;}.cls-5,.cls-6{opacity:0.43;}.cls-5{fill:url(#linear-gradient);}.cls-6{fill:url(#linear-gradient-2);}</style><radialGradient id="radial-gradient" cx="-1113.803" cy="-2187.373" r="50.334" gradientTransform="matrix(0.721, 0.677, -0.594, 0.606, -421.944, 2148.961)" gradientUnits="userSpaceOnUse"><stop offset="0" stop-color="#9482bd"/><stop offset="1" stop-color="#592630"/></radialGradient><linearGradient id="linear-gradient" x1="-1126.976" y1="-2184.838" x2="-1118.943" y2="-2178.182" gradientTransform="translate(1898.346 1709.297) rotate(-21.05)" gradientUnits="userSpaceOnUse"><stop offset="0" stop-color="#fff"/><stop offset="1" stop-color="#fff" stop-opacity="0"/></linearGradient><linearGradient id="linear-gradient-2" x1="-1135.008" y1="-2196.8" x2="-1128.781" y2="-2190.572" xlink:href="#linear-gradient"/></defs><path class="cls-1" d="M104.673,45.828S94.687,42.112,91.7,41.744s-9.664-2.34-13.033-2.566-13.928,1.837-21.419,8.943S43.308,75.516,45.113,89.6,50.5,111,56.9,116.914c2.856,2.641,3.7,3.306,6.411,4.637s4.544,5.386,9.587,7.717a26.742,26.742,0,0,0,14.791,1.471c5.243-1.124,19.471-7.781,24.4-18.624s6.223-34.863,4.034-46.017S108.275,48.316,104.673,45.828Z"/><path class="cls-2" d="M75.907,41.9s1.531,3.4,6.129,2.308,6.411-.166,10.145.994,5.391-.755,1.8-1.539S76.481,38.9,75.907,41.9Z"/><path class="cls-3" d="M84.062,43.894l-.43-4.879s.4-4.142-2.636-1.145c-.518.513-3.6.291-4.48-1.945s-1.051-3.239-.625-3.827-1.214-2.536,1.055-2.324,5.038.022,7.718.722,3.426,1.486,3.542,4.009-.548,9.811-.548,9.811Z"/><path class="cls-4" d="M74.325,51.5S59.816,57.95,58.758,82.629c-.766,17.9-1.277,22.942.36,27.671"/><path class="cls-5" d="M77.736,52.582s-6.511,1-13.048,12.836c-2.547,4.615-6.336,16.623-4.783,31.128,1.633,15.264,8.669,1.629,10.254-3.246S85.646,50.871,77.736,52.582Z"/><path class="cls-6" d="M58.354,51.689S46.1,60.073,48.131,85.237c.561,6.953,3.7,12.629,5.056,5.485s6.3-21.844,8.72-26.82S74.822,38.654,58.354,51.689Z"/><path class="cls-2" d="M105.116,63.715s-10.24,24.8-14.355,30S67.72,116.47,76.924,123.762s28.908-5.068,33.255-16.7c4.973-13.318,6.935-58.892-3.492-50.758"/><path class="cls-4" d="M76.444,41.207c-.269,4.265,5.414,2.437,9.108,2.766,2.964.26,11.424,3.5,10.213.325"/></svg>