<svg id="word" xmlns="http://www.w3.org/2000/svg" viewBox="0 0 160 160"><defs><style>.cls-1,.cls-4{fill:#233c50;}.cls-1,.cls-10,.cls-11,.cls-12,.cls-13,.cls-15,.cls-2,.cls-3,.cls-4,.cls-5,.cls-6,.cls-7,.cls-8{stroke:#9c4c9c;stroke-width:0.599px;}.cls-1,.cls-10,.cls-12,.cls-15,.cls-7,.cls-8{stroke-miterlimit:10;}.cls-2{fill:#fde1d3;}.cls-15,.cls-3,.cls-9{fill:#fff;}.cls-5{fill:#fde6db;}.cls-12,.cls-6{fill:none;}.cls-7{fill:#e7aa3e;}.cls-8{fill:#525354;}.cls-10{fill:#81181a;}.cls-11{fill:#716558;}.cls-12{stroke-linecap:round;}.cls-13{fill:#3b5974;}.cls-14{fill:#939598;}.cls-16{fill:#9c4c9c;}</style></defs><path class="cls-1" d="M56.871,111.162l-1.852,35.809a112.364,112.364,0,0,1,11.936.03,59.414,59.414,0,0,0,10.148-.142l.8-16.413,5.514,16.815s10.877.063,14.611.279a61.038,61.038,0,0,0,6.825.006L99.665,112.8Z"/><path class="cls-2" d="M72.43,39.269l-.344,8.393S73.4,52.7,76.463,54.994s6.347,4.158,9.193,2.517,4.377-1.75,5.034-5.253S88.72,43.4,88.72,43.4"/><path class="cls-3" d="M69.679,52.586l7.879,32.829,6.894-4.924L95.286,53.9s-6.165,1.405-9.521.985S69.679,52.586,69.679,52.586Z"/><path class="cls-4" d="M56.294,54.6l15.921-3.63s3.631,13.965,4.608,17.457,3.213,13.824,3.213,13.824a25.783,25.783,0,0,1,3.351-5.446c2.235-2.792,4.329-10.055,5.167-13.825s4.329-11.871,4.329-11.871l12.01,6.285s.838,14.8.838,18.294-4.05,19.551-3.91,20.11.279,17.6-1.117,18.713a26.012,26.012,0,0,1-4.748,2.653c-1.676.839-14.245,3.91-18.574,3.91S69.561,119.4,62.3,118.145a92.331,92.331,0,0,1-13.826-3.632S54.9,91.331,54.9,85.885s-1.816-17.736-1.816-18.156S56.294,54.6,56.294,54.6Z"/><path class="cls-4" d="M104.893,57.4s5.866,3.213,6.424,7.262,1.118,6.564,3.771,12.848,4.609,7.542,4.469,12.15-3.212,6.284-3.771,9.077-2.933,5.307-5.167,6.982-6.982,6.983-6.7,2.235,1.257-8.518-.419-10.335-7.821-.558-5.446-3.491a53.9,53.9,0,0,0,6.563-10.473c1.257-2.934,1.257-5.307,1.257-10.2S104.893,57.4,104.893,57.4Z"/><path class="cls-5" d="M103.217,95.381l-2.234,2.654s-4.329,1.815-5.307,1.815-4.469.14-3.491,1.676,4.05,1.117,4.05,1.117-4.749-.14-3.91,1.676,5.446,1.258,5.446,1.258-6.145-.141-5.167,1.256,6.284,1.535,6.284,1.535-4.748-.278-3.771.978,6.006.28,6.006.28,2.094-1.536,3.631-2.793a6.763,6.763,0,0,0,2.513-5.029C107.128,100.27,105.173,95.66,103.217,95.381Z"/><path class="cls-4" d="M53.222,57.535S44.843,73.6,44.284,74.712,37.646,86.518,39.6,90.148s-.484,6.769.773,10.959,2.238,15.366,2.517,16.344,3.162,7.945,5.676,8.225,8.8-2.723,9.92-2.582-.1-9-.1-9a19.959,19.959,0,0,1-.7-5.866c.279-2.234-1.117-3.072-1.117-4.748s.419-3.491-.14-5.446-2.235-3.212-.7-7.681,1.536-10.614,1.536-11.87S56.294,54.6,56.294,54.6,53.5,55.021,53.222,57.535Z"/><path class="cls-6" d="M79.856,82.352c1.332,12.774-5.979,26.069-3.83,38.957"/><ellipse class="cls-7" cx="73.56" cy="115.207" rx="1.087" ry="1.112"/><polygon class="cls-4" points="74.647 79.931 74.647 90.749 64.029 93.153 58.982 90.749 58.982 77.965 74.647 79.931"/><polygon class="cls-4" points="58.66 74.121 58.162 80.131 66.233 82.335 75.748 80.532 75.748 74.922 58.66 74.121"/><ellipse class="cls-7" cx="66.513" cy="79.237" rx="1.382" ry="1.271"/><line class="cls-6" x1="67.895" y1="82.735" x2="67.895" y2="92.278"/><line class="cls-6" x1="64.412" y1="82.335" x2="63.829" y2="92.278"/><path class="cls-8" d="M46.587,71.634a9.806,9.806,0,0,1,4.669-.556,12.58,12.58,0,0,1,4.161,2.177,38.676,38.676,0,0,1-1.548,6.534c-.822,1.863-4.984,5.812-4.984,5.812s-.756-3.1-1.67-4.056-.783-4.755-1.007-5.82A16.962,16.962,0,0,1,46.587,71.634Z"/><path class="cls-9" d="M47.077,72.331a2.272,2.272,0,0,1,.42-.144.509.509,0,0,1,.435.031.474.474,0,0,1,.176.361.734.734,0,0,1-.094.445.7.7,0,0,1-.436.3.319.319,0,0,1-.108.02l.047.625-.31.077Zm.369.707a.4.4,0,0,0,.106-.015.319.319,0,0,0,.247-.353.188.188,0,0,0-.263-.188.422.422,0,0,0-.128.045Z"/><path class="cls-9" d="M48.955,73.667c-.408.073-.662-.276-.675-.778a.946.946,0,0,1,.651-1.038c.425-.078.668.286.681.772.017.574-.249.97-.652,1.042Zm.007-.32c.212-.037.328-.312.318-.652-.008-.314-.133-.567-.35-.527s-.33.324-.321.653.141.566.353.526Z"/><path class="cls-9" d="M49.935,71.732l.311,0-.108,1.434.548-.008-.025.338-.86.007Z"/><path class="cls-9" d="M51.473,71.885l-.4,1.741-.3-.071.4-1.744Z"/><path class="cls-9" d="M52.276,73.976a.707.707,0,0,1-.35-.047.816.816,0,0,1-.425-1.1c.172-.585.582-.791.972-.651a.646.646,0,0,1,.3.189l-.15.281a.644.644,0,0,0-.227-.151c-.231-.083-.466.038-.579.42-.1.343-.011.614.248.711a.591.591,0,0,0,.261.031Z"/><path class="cls-9" d="M53.308,72.574l-.6,1.666-.282-.131.6-1.671Z"/><path class="cls-9" d="M53.838,72.855l.274.154-.425,1.035c-.192.465-.426.533-.688.38a.7.7,0,0,1-.186-.153l.152-.278a.509.509,0,0,0,.13.107c.114.066.215.038.318-.214Z"/><path class="cls-9" d="M54.108,74.55l-.279.343-.271-.2,1.13-1.312.339.248-.418,1.822-.28-.2.111-.465Zm.424-.057.094-.383c.027-.106.064-.238.092-.344l-.005,0c-.061.082-.139.188-.2.266l-.233.28Z"/><polygon class="cls-10" points="83.502 54.383 84.657 57.364 82.885 60.184 80.675 60.184 79.249 57.056 80.624 54.383 83.502 54.383"/><polygon class="cls-10" points="85.421 73.498 82.885 60.184 80.675 60.184 77.823 72.124 80.217 81.855 85.421 73.498"/><polygon class="cls-4" points="98.026 83.207 96.32 92.763 87.842 93.44 84.372 90.629 86.388 79.338 98.026 83.207"/><polygon class="cls-4" points="86.75 75.898 85.421 81.139 91.23 84.185 98.771 83.888 99.656 78.933 86.75 75.898"/><ellipse class="cls-7" cx="91.932" cy="81.486" rx="1.141" ry="1.071" transform="translate(-4.448 157.66) rotate(-79.874)"/><line class="cls-6" x1="92.434" y1="84.765" x2="90.929" y2="93.193"/><line class="cls-6" x1="89.841" y1="83.937" x2="87.827" y2="92.639"/><ellipse class="cls-7" cx="75.222" cy="103.496" rx="1.087" ry="1.112"/><ellipse class="cls-7" cx="77.818" cy="92.639" rx="1.087" ry="1.112"/><path class="cls-4" d="M92.883,51.111l6.763,3.272-4.223,13.1-3.409-.514,1.872,2.879s-5.743,4.832-6.059,5.141-8.132,12.317-8.132,12.317,3.65-15.3,4.962-17.819S92.883,51.111,92.883,51.111Z"/><path class="cls-4" d="M71.512,50.519s5.87,16.225,5.591,17.067S81.44,83.637,81.44,83.637l-1.514,4.584S72.444,71.986,72.473,71.38s2.749-2.171,2.749-2.171L68.939,68.2s2.132-2.056.74-6.169-5.267-9.87-5.267-9.87Z"/><path class="cls-3" d="M82.482,53.722,78.621,60.6s-3-1.3-3.652-1.439-2.167-3.907-2.883-5.347-1.949-3.7-1.949-3.7l2-3.5s2.112,3.477,4.066,4.36S81.44,53.6,81.44,53.6Z"/><path class="cls-3" d="M90.8,46.612s-1.91,5.162-3.471,5.974a17.827,17.827,0,0,1-4.842,1.136l2.46,7.284a35.538,35.538,0,0,0,4.421-2.871c1.1-1.01,4.523-7.163,4.523-7.163Z"/><path class="cls-2" d="M54.667,123.079s4.117-.452,5.577,1.393,2.988,5.009,4.069,5.272,1.282,2.472-.928,2.122-4.425-2.9-4.425-2.9.387,3.1,1.8,4.38,4.34.692,3.946,2.639c-.218,1.075-4.143-.266-4.143-.266s3.717,1.213,2.8,2.358-6.033-1.657-6.033-1.657,5.169,2.254,3.363,2.68c-2.976.7-5.838-2.725-5.838-2.725s2.95,3.146.844,2.812c-2.229-.354-4.239-4.57-4.808-6.94s-.325-8.085-.325-8.085Z"/><path class="cls-6" d="M56.468,131.866a6.476,6.476,0,0,0,4.05,3.778"/><path class="cls-6" d="M55.056,132.95a7.028,7.028,0,0,0,2.3,3.661"/><path class="cls-6" d="M53.248,133.315a4.636,4.636,0,0,0,1.826,3.485"/><path class="cls-2" d="M92.48,29.24s2.627-.938,2.475.751.009,2.217-.822,3.688S92.54,36.5,91.9,36.558s.374-.728,0-1.313"/><path class="cls-2" d="M92.258,31.371s-.75,9.663-2.345,11.821-3.262,4.737-6.827,5.3S74.2,47.264,72.8,40.885s-2.96-11.108-2.96-13.078-1.783-8.725,3.659-9.476,15.385-.656,16.98,1.032S92.309,30.779,92.258,31.371Z"/><path class="cls-11" d="M91.039,17.883a10.28,10.28,0,0,1-3.377,2.887,12.7,12.7,0,0,1-5.348,1.314c-1.595.094-3.846-.188-5.066.657s-2.439.469-1.876,0,2.064-1.689,1.032-.845-3.284,2.252-3.94,2.815a4.5,4.5,0,0,0-1.595,3,12.512,12.512,0,0,0-.22,4.461c.275,1.154.318.323-1.091-.8s-.829-2.168-.735-4.326-1.39-7.865.111-10.68,3.342-4.6,5.969-5.351,3.632-1.22,6.225-1.22,4.845-1.313,6.346.563a22.243,22.243,0,0,0,2.158,2.454s-1.07-.816,1.275.779,3.03,5.25,2,9.284.385,7.075-.178,8.31-.694,4.5-.592,1.545-1.753-9.655-1.753-11.088A18.2,18.2,0,0,1,91.039,17.883Z"/><path class="cls-2" d="M69.805,31.577s-1.128-1.6-1.6-.657-1.126,1.561-.563,2.845,1.88,1.846,2.16,2.69.94,1.617,1.592,1.126,0-3.118,0-3.118"/><path class="cls-12" d="M83.354,28.7s-.082,5.286.27,6.195,1.717,1.367.2,2.113a4.069,4.069,0,0,1-2.184.623"/><path class="cls-12" d="M77.944,39.879a4.744,4.744,0,0,1,1.753.836,6.1,6.1,0,0,0,1.763.6,3.952,3.952,0,0,0,2.991-.335,4.715,4.715,0,0,0,1-1.032"/><path class="cls-12" d="M79.286,27.614a5.057,5.057,0,0,0-3.727-1.163,9.7,9.7,0,0,0-3.8,1.2"/><path class="cls-12" d="M90.664,27.291c-.991-.9-2.656-.929-3.99-.84a6.608,6.608,0,0,0-3.046,1.2"/><path class="cls-6" d="M76.724,13.238a7.166,7.166,0,0,0,2.26,3.612c2.288,1.914,5.692,1.448,8.3,2.041"/><path class="cls-6" d="M77.562,16.365c-.208.708-1.522,1.589-2.043,2.179a8.522,8.522,0,0,0-1.96,2.794c-.582,1.785-.106,3.857-.043,5.7"/><path class="cls-6" d="M77.423,13.092c-.007,2.21,3.015,2.745,4.347,3.017A28.613,28.613,0,0,1,88.3,18.453c2.668,1.246,4.369,2.872,4.166,6.414"/><path class="cls-13" d="M94.263,19.861s-4.526-3.02-8.868-.1-10.624,5.627-11.918,6.46-4.836,3.173-4.836,3.173-1.726-4.571-1.726-6.238.93-8.335,2.685-10.833,7.941-6,10.9-5.9,8.037,1.354,9.978,3.648S94.263,19.861,94.263,19.861Z"/><path class="cls-4" d="M70.905,24.091s5.2,3.915,6.3,3.4,6.2-2.377,9.1-2.248,6.35,1.09,7.651.963,4.25-.577,3.75-2.053-3.445-4.73-3.445-4.73-8.706-1.752-12.757-.725S70.905,24.091,70.905,24.091Z"/><path class="cls-14" d="M88.812,15.6c0,1.493-2.021,1.747-3.864,1.747s-4.52-.875-4.52-2.368,1.882-3.105,3.726-3.105C86.742,11.873,88.812,14.106,88.812,15.6Z"/><path class="cls-9" d="M80.565,9.454a1.709,1.709,0,0,1,.327-.1.543.543,0,0,1,.363.022.393.393,0,0,1,.188.245.388.388,0,0,1-.021.3.47.47,0,0,1-.323.2.39.39,0,0,1-.087.013l.116.418-.246.053Zm.39.477a.329.329,0,0,0,.086-.009.181.181,0,0,0,.16-.236.183.183,0,0,0-.24-.129.307.307,0,0,0-.1.031Z"/><path class="cls-9" d="M82.275,10.363a.6.6,0,0,1-.652-.526.525.525,0,0,1,.408-.694.591.591,0,0,1,.655.522c.085.386-.085.652-.408.7Zm-.035-.214c.171-.024.233-.209.182-.437-.045-.21-.179-.381-.353-.357s-.231.217-.183.436.185.382.354.358Z"/><path class="cls-9" d="M82.842,9.069H83.1l.087.964h.45l.021.225H82.95Z"/><path class="cls-9" d="M84.128,9.18l-.112,1.169-.257-.05.113-1.17Z"/><path class="cls-9" d="M85.045,10.592a.746.746,0,0,1-.293-.033.625.625,0,0,1-.486-.744.527.527,0,0,1,.72-.432.648.648,0,0,1,.267.131l-.089.186a.663.663,0,0,0-.2-.1.313.313,0,0,0-.425.279.394.394,0,0,0,.291.48.607.607,0,0,0,.219.022Z"/><path class="cls-9" d="M85.722,9.657l-.292,1.116-.247-.092.29-1.118Z"/><path class="cls-9" d="M86.193,9.848l.243.106-.22.692c-.1.312-.286.357-.521.252a.671.671,0,0,1-.172-.105l.091-.185a.6.6,0,0,0,.12.073c.1.045.182.026.236-.142Z"/><path class="cls-9" d="M86.624,10.988l-.188.23-.247-.133.768-.876.309.169L87.147,11.6l-.255-.138.034-.312Zm.342-.034L87,10.7c.009-.069.024-.159.034-.23h0c-.04.054-.091.124-.134.177l-.158.187Z"/><path class="cls-15" d="M77.666,29.934a1.312,1.312,0,0,0-2.25.834c-.567,2.17-.128,2.533,1,3.012s1.692-.228,1.833-1.219A3.624,3.624,0,0,0,77.666,29.934Z"/><ellipse class="cls-16" cx="77.103" cy="31.926" rx="1.155" ry="1.245"/><path class="cls-15" d="M88.687,29.8a1.312,1.312,0,0,0-2.25.835c-.568,2.17-.128,2.533,1,3.012s1.691-.229,1.833-1.219A3.633,3.633,0,0,0,88.687,29.8Z"/><ellipse class="cls-16" cx="88.123" cy="31.789" rx="1.155" ry="1.245"/></svg>