<svg id="word" xmlns="http://www.w3.org/2000/svg" xmlns:xlink="http://www.w3.org/1999/xlink" viewBox="0 0 160 160"><defs><style>.cls-1,.cls-10,.cls-11{fill:none;}.cls-2{clip-path:url(#clip-path);}.cls-3{fill:#9edcf8;}.cls-10,.cls-11,.cls-3,.cls-4,.cls-7,.cls-8,.cls-9{stroke:#9d4b9c;}.cls-10,.cls-3,.cls-4,.cls-7,.cls-8,.cls-9{stroke-miterlimit:10;stroke-width:0.645px;}.cls-4{fill:#76899c;}.cls-5{fill:#5d7ab4;}.cls-6{fill:#9d4b9c;}.cls-7{fill:#999aaa;}.cls-8{fill:#668ea1;}.cls-9{fill:#dcf1fc;}.cls-10,.cls-9{stroke-linecap:round;}.cls-11{stroke-width:0.807px;}</style><clipPath id="clip-path"><rect class="cls-1" x="14" y="14" width="132" height="132"/></clipPath></defs><g class="cls-2"><polygon class="cls-3" points="145.762 146.464 60.787 104.311 60.787 11.469 148.796 42.95 146.975 145.397 145.762 146.464"/><polygon class="cls-4" points="41.971 15.204 77.543 -20.546 147.236 -6.36 146.689 52.333 41.971 15.204"/><path class="cls-5" d="M82.331,41.777a18.609,18.609,0,0,1,3.218.769,6.549,6.549,0,0,1,3.216,1.962A4.927,4.927,0,0,1,89.881,47.6a3.014,3.014,0,0,1-.977,2.5,3.807,3.807,0,0,1-3.426.167,6.512,6.512,0,0,1-.812-.309l-.014,4.226-2.358-.744Zm2.341,6.11a4.1,4.1,0,0,0,.8.322c1.266.4,2.049-.074,2.053-1.284A2.394,2.394,0,0,0,85.669,44.6a3.732,3.732,0,0,0-.986-.2Z"/><path class="cls-5" d="M98.48,54.156c-.009,3.139-2,3.951-4.044,3.306A5.811,5.811,0,0,1,90.5,51.8c.009-2.771,1.64-4.03,4.093-3.256A5.778,5.778,0,0,1,98.48,54.156ZM92.95,52.5c-.005,1.473.538,2.751,1.554,3.072.923.29,1.519-.557,1.524-2.1,0-1.28-.43-2.716-1.507-3.056C93.38,50.055,92.954,51.237,92.95,52.5Z"/><path class="cls-5" d="M99.98,46.553l2.374.749-.04,12.452-2.374-.749Z"/><path class="cls-5" d="M106.725,50.173a.9.9,0,0,1-1.285.929,1.8,1.8,0,0,1-1.229-1.722.886.886,0,0,1,1.253-.956A1.852,1.852,0,0,1,106.725,50.173Zm-2.488,10.188.027-8.576,2.375.749-.028,8.576Z"/><path class="cls-5" d="M114.254,63.31a5.066,5.066,0,0,1-2.125-.285,5.726,5.726,0,0,1-4.033-5.66c.008-2.508,1.546-4.077,4.389-3.18a6.592,6.592,0,0,1,1.811.9l-.382,1.864a3.936,3.936,0,0,0-1.327-.682c-1.249-.394-2.065.349-2.054,1.757a3.082,3.082,0,0,0,2.085,3.063,3.206,3.206,0,0,0,1.361.166Z"/><path class="cls-5" d="M118.057,53.748a.9.9,0,0,1-1.286.928,1.805,1.805,0,0,1-1.229-1.722A.886.886,0,0,1,116.8,52,1.855,1.855,0,0,1,118.057,53.748Zm-2.488,10.187.027-8.576,2.375.749-.028,8.576Z"/><path class="cls-5" d="M118.268,66.366a1.6,1.6,0,0,0,1.407-.118c.346-.294.473-.939.479-2.64l.022-6.8,2.39.754-.024,7.436c-.006,1.877-.385,2.9-1.091,3.413a3.405,3.405,0,0,1-2.955.121Zm4.367-11.174a.9.9,0,0,1-1.285.929,1.823,1.823,0,0,1-1.229-1.722.9.9,0,0,1,1.269-.952A1.832,1.832,0,0,1,122.635,55.192Z"/><path class="cls-5" d="M128.742,68.09l-.139-.9-.046-.014a2.046,2.046,0,0,1-2.19.362,3.652,3.652,0,0,1-2.46-3.409c.008-2.228,1.792-2.736,4.495-1.866v-.123c0-.455-.216-1.173-1.387-1.543a3.453,3.453,0,0,0-2.112-.016l-.431-1.857a5.217,5.217,0,0,1,2.971.182,4.562,4.562,0,0,1,3.346,4.76l-.009,2.981a15.549,15.549,0,0,0,.1,2.122Zm-.268-4.14c-1.25-.411-2.219-.384-2.223.651a1.316,1.316,0,0,0,.934,1.313.93.93,0,0,0,1.237-.593,1.943,1.943,0,0,0,.05-.441Z"/><polygon class="cls-6" points="49.022 17.382 82.638 -17.345 49.488 17.828 49.022 17.382"/><polygon class="cls-6" points="62.211 22.332 93.867 -14.41 62.702 22.749 62.211 22.332"/><polygon class="cls-6" points="77.822 27.29 105.55 -11.476 78.349 27.662 77.822 27.29"/><polygon class="cls-6" points="90.412 32.231 117.386 -7.207 90.948 32.592 90.412 32.231"/><polygon class="cls-6" points="103.306 36.106 128.16 -2.138 103.85 36.454 103.306 36.106"/><polygon class="cls-6" points="119.572 42.209 143.517 4.629 120.119 42.552 119.572 42.209"/><polygon class="cls-6" points="137.251 48.659 161.196 11.079 137.798 49.001 137.251 48.659"/><polygon class="cls-7" points="41.971 15.204 42.578 18.939 146.828 57.697 146.98 52.361 41.971 15.204"/><polygon class="cls-8" points="108.535 128.144 108.332 82.079 141.917 96.663 141.513 144.33 108.535 128.144"/><path class="cls-9" d="M72.218,58.157l26,10.324v35.475l-26.394-11.4S72.016,59.313,72.218,58.157Z"/><line class="cls-10" x1="76.164" y1="58.335" x2="76.164" y2="95.863"/><line class="cls-10" x1="80.817" y1="59.757" x2="80.817" y2="98.887"/><line class="cls-10" x1="85.066" y1="61.358" x2="84.964" y2="100.132"/><line class="cls-10" x1="89.719" y1="62.781" x2="89.719" y2="101.91"/><line class="cls-10" x1="93.765" y1="65.627" x2="93.765" y2="103.155"/><line class="cls-11" x1="128.969" y1="91.328" x2="128.969" y2="137.393"/></g></svg>