<svg id="word" xmlns="http://www.w3.org/2000/svg" viewBox="0 0 160 160"><defs><style>.cls-1{fill:#fde2d4;}.cls-2,.cls-4{fill:none;stroke:#9d4b9c;stroke-miterlimit:10;}.cls-3{fill:#ecc6c0;}.cls-4{stroke-linecap:round;}.cls-5{fill:#9d4b9c;}</style></defs><path class="cls-1" d="M63.329,127.292a21.928,21.928,0,0,1-4.308.18,5.047,5.047,0,0,1-4.184-1.923,12.287,12.287,0,0,1-4.566-.844c-2.419-.945-2.137-4.544-2.137-4.544a5.808,5.808,0,0,1-1.451-3.509c-.326-2.52,6.512-3.869,9.1-3.982s7.334-4.96,9.246-5.466,5.7-7.829,6.85-11.034,8.694-13.228,10.685-17.108.99-16.68.99-16.68L84.6,50.8a32.491,32.491,0,0,1,32.674,3.127c-2.193,5.264-4.51,10.629-5.174,12.676-1.248,3.847-2.632,16.118-1.372,20.28s3.521,11.428,2.553,13.992-8.345,6.265-12.158,8.009-3.184,5.938-4.747,9.74a11.767,11.767,0,0,1-4.713,5.523,9.912,9.912,0,0,1-7.434,7.491A14.042,14.042,0,0,1,72.9,129.182l-4.521.2A7.012,7.012,0,0,1,63.329,127.292Z"/><path class="cls-2" d="M54.837,125.549a12.287,12.287,0,0,1-4.566-.844c-2.419-.945-2.137-4.544-2.137-4.544a5.808,5.808,0,0,1-1.451-3.509c-.326-2.52,6.512-3.869,9.1-3.982s7.334-4.96,9.246-5.466,5.7-7.829,6.85-11.034,8.694-13.228,10.685-17.108.99-16.68.99-16.68L84.6,50.8a32.491,32.491,0,0,1,32.674,3.127c-2.193,5.264-4.51,10.629-5.174,12.676-1.248,3.847-2.632,16.118-1.372,20.28s3.521,11.428,2.553,13.992-8.345,6.265-12.158,8.009-3.184,5.938-4.747,9.74a11.767,11.767,0,0,1-4.713,5.523,9.912,9.912,0,0,1-7.434,7.491A14.042,14.042,0,0,1,72.9,129.182l-4.521.2a7.012,7.012,0,0,1-5.051-2.092,21.928,21.928,0,0,1-4.308.18A5.047,5.047,0,0,1,54.837,125.549Z"/><path class="cls-2" d="M72.9,129.182s-3.554-4.792,2.047-7.458a17.253,17.253,0,0,0,5.017-3.588"/><path class="cls-2" d="M63.318,127.2a.965.965,0,0,1-.394-.7,6.372,6.372,0,0,1,.866-4.769,3.536,3.536,0,0,1,.957-1.046,4.668,4.668,0,0,1,1.405-.574c.777-.236,1.553-.472,2.34-.7"/><path class="cls-2" d="M54.837,125.549c-.056-.7.012-1.924-.022-2.621a1.663,1.663,0,0,1,.663-1.608,6.391,6.391,0,0,1,4.691-1.991"/><path class="cls-2" d="M48.3,120.892a3.209,3.209,0,0,1,.349-1.867,2.727,2.727,0,0,1,1.035-.81,8.918,8.918,0,0,1,4.78-.978"/><path class="cls-3" d="M102.921,88.049s.611,3.392,3.234,4.5c6.327,2.671,5.905,0,4.64-3.656a30.639,30.639,0,0,1-.985-6.467l.282-7.17-2.109,1.124s.789,7.766-1.082,9.507A9.111,9.111,0,0,1,102.921,88.049Z"/><path class="cls-4" d="M102.434,87.211a3.665,3.665,0,0,0,4.467-1.325,8.078,8.078,0,0,0,1.228-4.848,30.737,30.737,0,0,1,.068-5.079"/><path class="cls-5" d="M136.818,95.729a.779.779,0,0,1-.64.694.918.918,0,0,1-1.09-.534c-1.265-3.839-4.625-7.245-9.219-9.345a31.708,31.708,0,0,0-14.361-2.475.858.858,0,0,1-.934-.724.791.791,0,0,1,.828-.794A33.715,33.715,0,0,1,126.68,85.2c5.024,2.3,8.706,6.047,10.1,10.287A.659.659,0,0,1,136.818,95.729Z"/><path class="cls-5" d="M121.618,87.781a.673.673,0,0,1-.11.337.953.953,0,0,1-1.2.283,69.4,69.4,0,0,0-11.279-4.329c-.721-.207-.955-.7-.873-1.1a.994.994,0,0,1,.731-.713,99.727,99.727,0,0,1,11.786-3.427.915.915,0,0,1,1.084.543.746.746,0,0,1-.617.927,98.8,98.8,0,0,0-9.982,2.81,71.189,71.189,0,0,1,10,3.973A.758.758,0,0,1,121.618,87.781Z"/></svg>