<svg id="word" xmlns="http://www.w3.org/2000/svg" viewBox="0 0 160 160"><defs><style>.cls-1{fill:#fde6d8;}.cls-1,.cls-10,.cls-11,.cls-2,.cls-3,.cls-4,.cls-5,.cls-6,.cls-7,.cls-8{stroke:#9d4b9c;stroke-miterlimit:10;}.cls-1,.cls-10,.cls-2,.cls-3,.cls-4,.cls-5,.cls-6,.cls-7,.cls-8{stroke-width:0.817px;}.cls-2{fill:#be1e2d;}.cls-3{fill:#988c86;}.cls-4{fill:#dcb2b3;}.cls-5{fill:#837a74;}.cls-6{fill:#69605c;}.cls-7{fill:#ffe188;}.cls-8{fill:#fff;}.cls-9{fill:#9d4b9c;}.cls-10{fill:none;}.cls-11{fill:#590000;stroke-width:1.021px;}</style></defs><path class="cls-1" d="M119.889,30.417a16.3,16.3,0,0,0,.94-4.862c-.1-1.252-.742-5.094.247-5.291s.3,2.537,1.385,2.241,2.571-5.44,3.56-5.242-1.582,3.857-.494,4.055,2.274-3.857,3.263-3.462-2.479,4.117-1.285,4.451c.3.083,2.227-2.519,2.769-2.077.89.726-2.077,3.066-1.78,3.461s1.78-.791,2.373-.1S128.4,25.539,128.1,26a8.5,8.5,0,0,1-2.275,2.142,3.913,3.913,0,0,0-1.978,2.769,8.9,8.9,0,0,1-.494,2.374Z"/><path class="cls-1" d="M68.759,41.329a11.531,11.531,0,0,0,.692,5.736c1.187,2.868,3.659,5.044,5.242,3.857s3.164-5.044,3.164-5.044Z"/><path class="cls-2" d="M65.149,47.807s2.3-2.225,2.522-3.264.445-2.3.445-2.3a20.182,20.182,0,0,1,1.632,2.744c.3.816.519,1.632,2.744,2.374a8.744,8.744,0,0,0,4.228.3l.964-1.484,2.819.816A26.848,26.848,0,0,0,81.616,53.3c1.112,4.08-2.226,15.28-2.6,16.392s-5.414,10.83-5.414,10.83-6.453-11.126-6.973-18.173S65.149,47.807,65.149,47.807Z"/><path class="cls-1" d="M64.555,25.555s.421,10.755,2,13.722,5.168,4.327,6.354,5.514a8.6,8.6,0,0,0,5.217,1.829c1.484,0,3.758-1.483,3.857-3.56s2.325-4.154,1.632-7.418-1.9-6.379-2-6.873a6.043,6.043,0,0,0-.5-3.165c-.791-1.384-.2-4.945-5.439-4.945S64.555,25.555,64.555,25.555Z"/><path class="cls-3" d="M67.984,24.121a8.583,8.583,0,0,0,2.431.173c1.068-.133-.3-1.095,1.094-1.03s-.855-.56,2.349,0,3.2-1.351,3.952,0,1.6,1.252,1.922,1.945,1.744,2.843,1.958,1.458.264-2.117.371-3.338.172-2.175-.149-2.373-.578-1.088-1.326-2.176-1.174-1.384-1.5-1.384-.32-.693-.854-1.088-1.282.593-1.709.593-2.884-.692-4.272-.4a13.981,13.981,0,0,0-3.417,1.583s-2.457.692-3.1,1.483l-.961,1.187a4.405,4.405,0,0,0-3.1,4.154c0,3.264-.747,5.34.214,6.527S64.78,34.9,64.78,35.494s2.457,2.374,2.457,1.879,0-1.582.106-3.857.855-1.681.855-3.461S67.984,24.121,67.984,24.121Z"/><path class="cls-1" d="M76.275,28.522s.074,2.719.668,3.412,2.521.989,2.225,2.868-2.868.692-2.868.692"/><path class="cls-4" d="M74.866,39.2h4.6c.594,0-.148,1.36-1.038,2.448S74.866,39.2,74.866,39.2Z"/><path class="cls-5" d="M64.7,49.043s-10.385,2.868-11.67,3.165-4.649-1.483-5.44,2.374S42.946,86.13,42.946,86.13l9.2-.2,1.087-17.407,1.385,16.319,43.466,1.384S95.659,64.57,96.945,63.087s10.089-8.058,12.659-8.6c8.6-1.83,9.3-3.857,9.3-3.857l6.627-18.593s-4.846-3.66-6.033-4.55-3.758,8.7-4.253,10.286-6.23,4.945-6.23,5.835-3.264,2.571-3.858,2.373-6.032,1.682-6.032,1.682-2.77-1.583-5.341-.495-9.1.989-9.494.594-2.967,0-2.967,0-1.286,10.78-1.583,14.933S74.1,79.5,74.1,79.5,66.88,61.8,66.88,59.428s-.891-10.484-.891-10.484Z"/><path class="cls-5" d="M60.946,48.747s-.1,4.747.494,4.846a17.641,17.641,0,0,1,2.868,1.582L62.33,58.834s.4,8.11,1.978,10.484,9.3,13.45,9.3,13.45L74.1,79.5s-5.736-15.725-5.736-19.681-1.978-12.758-1.978-12.758Z"/><path class="cls-5" d="M79.835,47.065s0,11.176-.593,15.132S74.1,79.109,74.1,79.109l-.494,4.351a124.032,124.032,0,0,0,6.626-11.175c2.275-4.649,4.648-9.3,5.439-12.066s-2.077-3.857-2.077-3.857.693-3.165,1.385-3.659,1.681-3.561,1.681-3.561a11.511,11.511,0,0,1-.3-1.582C86.363,47.164,79.835,47.065,79.835,47.065Z"/><path class="cls-6" d="M61.341,66.647s-3.165-.3-3.165-2.769.2-5.835,3.363-5.143,3.956,2.77,3.363,4.649S61.341,66.647,61.341,66.647Z"/><path class="cls-7" d="M58.77,84.35s.89-12.263,1.187-14.142.2-7.813,1.483-7.319-.3,11.176-.3,11.868-.494,9.989-.494,9.989H58.77Z"/><path class="cls-8" d="M72.9,30.55a1.494,1.494,0,0,0-2-1.056,1.142,1.142,0,0,0-.638,1.377c.3,1.978.692,2.571,1.978,2.472C73.194,33.27,73.227,31.8,72.9,30.55Z"/><path class="cls-9" d="M73.02,31.374a.936.936,0,0,0-1.25-.662.716.716,0,0,0-.4.863c.186,1.239.434,1.611,1.24,1.549C73.205,33.079,73.225,32.154,73.02,31.374Z"/><path class="cls-8" d="M81.5,29.734a1.494,1.494,0,0,0-2-1.056,1.142,1.142,0,0,0-.638,1.377c.3,1.978.692,2.571,1.978,2.472C81.8,32.454,81.831,30.979,81.5,29.734Z"/><path class="cls-9" d="M81.625,30.558a.937.937,0,0,0-1.251-.662.716.716,0,0,0-.4.863c.186,1.24.434,1.611,1.24,1.549C81.809,32.263,81.829,31.338,81.625,30.558Z"/><path class="cls-1" d="M65.742,33.2s-1.78-.965-2,.148,0,3.115.965,3.486,1.854.816,1.854.816"/><path class="cls-10" d="M69.6,27.78a3.563,3.563,0,0,0,1.062-.583,4.8,4.8,0,0,1,.469-.362,2.9,2.9,0,0,1,1.8-.218"/><path class="cls-10" d="M78.348,26.557a10.837,10.837,0,0,1,1.709-.031"/><path class="cls-11" d="M34.836,91.965l.989-4.252s-1.088-.495,1.681-1.088,40.351-3.066,50.142-2.67,27.791,2.868,30.165,3.56,6.23,1.879,6.23,1.879L116,143.786l-78.261-.544Z"/></svg>