<svg id="word" xmlns="http://www.w3.org/2000/svg" viewBox="0 0 160 160"><defs><style>.cls-1{fill:#9c4c9c;}.cls-2{fill:#647f38;}.cls-2,.cls-3,.cls-4,.cls-5,.cls-7,.cls-8{stroke:#9c4c9c;}.cls-2,.cls-3,.cls-4,.cls-5{stroke-miterlimit:10;stroke-width:0.75px;}.cls-3{fill:#c97c36;}.cls-4{fill:#7a823c;}.cls-5{fill:#808f3c;}.cls-6{fill:#7f8a3d;}.cls-7{fill:#6b3515;}.cls-7,.cls-8{stroke-width:0.25px;}.cls-8,.cls-9{fill:#b69572;}</style></defs><path class="cls-1" d="M64.4,79.984l-.562-.05c.011-.132.3-3.245,1.445-4.252a16.82,16.82,0,0,1,3.609-1.969c.524-.237.976-.442,1.275-.6a2.219,2.219,0,0,0,.829-1.258,3.762,3.762,0,0,1,1.158-1.781,1.334,1.334,0,0,1,1.029-.262,3.857,3.857,0,0,1,2,1.449L75.1,73.5c-.227-.307-1.227-2.579-1.9-2.677-.225-.032-.525-.437-.708-.3a3.282,3.282,0,0,0-.972,1.537,2.678,2.678,0,0,1-1.087,1.548c-.316.169-1.262,1.091-1.8,1.332a13.574,13.574,0,0,0-3.107,1.539C64.72,77.194,64.473,79.148,64.4,79.984Z"/><path class="cls-2" d="M76.216,35.086a2.824,2.824,0,0,1-2.445-.617c-.828-.952-.421-1.979-.793-1.934s.269.553-.373.044-1.468-.736-2.032-1.147a7.815,7.815,0,0,1-1.843-3.29c.094-.493,1.639-4.731,2.374-5.013a40.23,40.23,0,0,1,9.021-1.79c2.825,0,5.162,2.166,7.242,3.3s2.227,2.909,3.3,3.606,1.106,3.328,1.832,3.353,1.581-2.16,2.552-.767,1.121-.79,2.846.181,1.174,1.434,2.214,1.935,1.073,1.49,2.355,1.077,1.332-.274,1.757.824,1.52,4.489.8,5.774-1.55,3.371-2.491,1.84.082-4.389-.754-2.49-1.5,2.6-2.92,1.589-2.077-2.489-3.33-1.379-4.767-.193-4.767-.193-3.917-1.742-5.994-1.888S76.216,35.086,76.216,35.086Z"/><path class="cls-2" d="M90.081,41.579s4.957,1.336,6,2.267,1.429,1.183,2.485,1.094,1.832-.815,3.075.821,1.523,3.133,2.527,3.811.805,2.856.671,3.458-.607,1.395-2.209.437-3.579-1.857-3.579-1.857-1.4.595-2.16.182S95.462,50.256,95,50.218s-4.2.856-5.784.3-7.211.008-7.588.008S76.216,49.5,76.216,49.5s-.9-6.51,0-7.917S90.081,41.579,90.081,41.579Z"/><path class="cls-3" d="M76.065,23.686l.693,12.254s-1.141,13.038-1.6,15.292-.438,17.969-.245,19.683.6,10.486.7,13.658-1.4,15.6-1.412,20.443-.317,7.409.032,10.413-.264-4.542-.569.309-.139,28.381-.139,28.381h5.665c.553,0-.553-5.052-.553-5.052a22.334,22.334,0,0,0,.528-5.642c-.128-3.006-.836-10.513-.929-10.766s.557-9.325,1.5-12.325l1.94-2.129s1.988-1.454,1.9-3.161a4.056,4.056,0,0,1,1.186-2.9s-.3-2.861-1.145-1.925-1.949,5.03-1.949,5.03l-2.2.757s.352-12.395.374-12.96-.341-10.019-.06-12.52a40.857,40.857,0,0,0-.073-8.908c-.352-1.3-.612-4.934-1.054-6.624s-1.375-12.624-.833-15.19S79.573,33.3,79.545,31.848s-.9-9.567-.9-9.567Z"/><path class="cls-4" d="M75.216,25.671s-.617,2.045-1.7,1.782-.5-.815-1.087-.263-.27,1.531-1.51,1.692-3.315,5.35-4.539,3.895a2.271,2.271,0,0,1-.225-2.808s-1.14,1.022-1.657.038-1.645,2.365-2.343,1.9-.535-3.073-.535-3.073-5.173,1.975-4.939-.338,5.035-5.623,5.035-5.623-2.37.3-.5-1.032a11.914,11.914,0,0,0,2.275-1.868,3.545,3.545,0,0,1,.25-2.309c.571-1.18,1.091-2.6,3.564-2.867s1.8.105,3.368-.788S73.42,10.935,74.3,10.55a19.242,19.242,0,0,1,3.96-.512s-.7-1.9,2.846-.338,2.61,2.882,3.39,3.578-.843,1.668-.843,1.668,2.88-3.871,6.176-3.023,2.556,1.066,2.769,2.537.3,1.965.3,1.965L95,16.984s-.844.9.536,1.3,2.686-1.465,2.4.325-1.7,2.376-.391,2.387,4.133-.017,4.081.814.531,1.481.412,1.913-.914,1.706-1.856,1.521-2.132-.052-2.246.427-.841,2.272-1.985,1.034-1.354-3.018-1.863-1.787.675,2.5-.82,2.721-2.937,2.2-4.183.874a5.014,5.014,0,0,0-2.234-1.545s-2.79,2.908-3.336.783a12.918,12.918,0,0,1-.526-3.007s-2.274,2.343-2.868,1.388-1.151.943-1.954,1.237S75.216,25.671,75.216,25.671Z"/><path class="cls-4" d="M66.1,37.839s-2.481-1.034-3.28-.3a4.177,4.177,0,0,0-.952,2.278s-3.868.194-2.789,1.139a1.246,1.246,0,0,1-.03,1.933s-2.741,2.2-3.245,2.233-3.631.026-4.667,1.439S47.8,54.522,49.8,53.339c1.183-.7,3.153-3.541,3.153-3.541a5.839,5.839,0,0,1,.257,2.146c-.2.559-1.97,5.665-.778,4.171S54.2,53.091,54.2,54.326s1.391,2.8,1.49,1.476,1.928-4.3,1.928-4.3-.369,3.7.753,2.036S60.2,51.8,60.2,51.8a1.288,1.288,0,0,0,2-.332,16.554,16.554,0,0,0,1.353-3.445s1.223,1.681,1.593.018,1.747.2,1.976.261,2.141.609,2.452-.518A8.65,8.65,0,0,1,70.7,45.505s-.857,2.187.331,2.644,3.356-2.569,3.356-2.569.189,1.3,1.125.808,2.428-1.918,2.389-1.6.649-1.015.956.377.637,1.425,2.257,1.2S86.434,44.1,86.434,44.1a2.173,2.173,0,0,0,1.7.6,18.641,18.641,0,0,1,3.27.476s.823.128.091-1.683,5.7-2.368,4.035-3.314S87.9,37.8,87.9,37.8l-3.6.382s.585-2.861-1.082-3.091-.85-1.307-2.282-1.693-2.9-1.2-3.985-.616-2.58.419-2.08,1.543a4.337,4.337,0,0,1,.181,2.451s-1.659-1.262-2.81-.672a1.772,1.772,0,0,0-.979,1.7c-.046.02-1.261-1.36-2.2-1.1S66.1,37.839,66.1,37.839Z"/><path class="cls-2" d="M88.882,54.135S95.846,56.2,97.8,56.757s3.618,4.007,4.251,4.728,1.538-.253,2.285,0a12.333,12.333,0,0,1,2.735,2.151,5.159,5.159,0,0,1,.624,2.525c.021.575-2.477.388-.426,2.973s.055,3.62.158,4.515-2.83,1.283-2.83,1.283l-1.533,1.548a20.06,20.06,0,0,0-1.56-2.312c-.478-.483-1.889.463-1.889.463l-7.867-5.256-5.5-5.769s-4.283-4.535-6.216-3.752-7.721,1.413-7.816,1.13-.056-3.726,1.3-4.6,6.4-1.713,7.587-1.713S88.882,54.135,88.882,54.135Z"/><path class="cls-4" d="M61.385,63.606s1.583,3.754.507,3.495-3.98,1.067-3.456,2.567.76,1.2.2,2.358-2.1,2.812-.836,3.4,3.4-.343,4.029-.955,3.4-.956,2.972-1.537,1.257-1.226,2.487-1.97a18.365,18.365,0,0,0,2.629-2.377c.691-.561,1.472-1.091,1.289-2.135s.6-1.511-.537-2.095,3.622-.6,3.868-2.031,3.561-3.438,1.277-5.263-6.72-.718-7.092,0S61.385,63.606,61.385,63.606Z"/><path class="cls-4" d="M73.783,59.966s-2.01,2.358,0,3.148a10.214,10.214,0,0,0,4.116.492c.531.086,1.5-.776,2.826.434s3.255,2.416,3.252,2.777-2.113.739-1.842,1.455-.918,2.455.762,2.275,1.764-.209,1.978.769,1.766.9,2.322,1.808a7.047,7.047,0,0,1,1,3.1c-.1.488.191,4.137.191,4.137s1.413-1.627,1.91.41-1.483,3.2.718,4.049a3.826,3.826,0,0,1,2.4,3.045l.052,1.56s.234,5.495,2.347,5,1.838-3.151,1.838-3.151.567-.74,1.269-1.9,1.968-.588,1.913-2.065-.093-3.254-.558-3.869-1.1-3.849-1.773-4.492-1.3-1.157-.672-1.18,1.353.651,1.271-.214a21.844,21.844,0,0,0-.514-2.507s2.5-.348,1.219-3.8-1.922-4.482-2.708-4.71-2.841-.612-3.277-1.189S92.631,62.4,91.745,62.3s-1.11.368-1.8-.338-.761-5.731-2.578-4.9a8.937,8.937,0,0,1-4.1.572,6.71,6.71,0,0,0-4.408-2.218c-2.477,0-2.446,2.191-3.991,2.383S73.783,59.966,73.783,59.966Z"/><path class="cls-4" d="M64.15,77.856s-2.919.416-3.659,1.491a13.545,13.545,0,0,1-1.33,1.751c-.386.412-3.839.258-4.7,1.066s-4.778,3.443-3.916,4.082.771.049.327,1.99-1.652,3.806-.807,5.352,3.639,1.4,3.639,1.4,1.9.455,2.5-.116,1.428-2.675,2.126-2.271,1.075,1.394,1.452.444,1.582-3.11,1.582-3.11-.241,2.822,1.725,2.334a2.2,2.2,0,0,0,1.778-2.318,2.759,2.759,0,0,0,1.53-1.212c.494-.919,1.738-1.8,1.5-2.753a3.322,3.322,0,0,1-.208-1.942,8.88,8.88,0,0,0-.6-2.845s1.066-1.537-.549-2.023-2.008-.108-2.008-.108S64.964,77.822,64.15,77.856Z"/><path class="cls-1" d="M79.729,82.125V80.092c.244-.308.592-.871.871-1.324.113-.183.217-.352.3-.487a7.583,7.583,0,0,0,.638-1.172c.051-.123.1-.25.146-.377a2.967,2.967,0,0,1,.9-1.465l.337.454a2.521,2.521,0,0,0-.71,1.209c-.05.133-.1.267-.153.4a8.171,8.171,0,0,1-.684,1.26c-.085.133-.379,1.476-.49,1.656C80.587,80.731,79.994,81.791,79.729,82.125Z"/><path class="cls-1" d="M79.947,88.657,79.4,87.3c.16-.6.5-.38.913-.8.133-.135.453-.661.576-.8.692-.794.964-.911.92-1.965l.564-.023a4.772,4.772,0,0,1-1.159,3.3c-.13.149-.271.292-.412.436A2.915,2.915,0,0,0,79.947,88.657Z"/><path class="cls-5" d="M75.74,51.454S75.035,55.3,74,53.482s-3.18-3.147-3.9-1.872-.962,2.672-1.129,2.207-.858-1.807-1.354-1.4-1.663-.973-2.8-.344-2.194,1.3-2.323,2.093-.283,2.207-.728,2.54-1.627-.162-2.148.095-.4,2.761-1.3,2.469-1.96.961-1.96.961-1.73,1.244-1.883,1.918.429,1.693,0,2.214-2.395,2.974-1.176,3.467,2.983-1.723,3.264-1.1.749.392,2.04-.462.807-.932,1.89-1.575,2.833-.215,4.706-1.73,3.173-2.637,3.421-3.307,1.473.438,1.473.438l1.971-1.835a2.866,2.866,0,0,1,1.638-.83c1.126-.208,2.764,1.079,3.235-.36s3.319-1.252,3.673-.567,1.55,3.874,4.138,1.98l2.587-1.894s1.442,1.692,4.4.481,1.508-3.067.249-3.518a13.818,13.818,0,0,1-2.466-1.23s1.7-.43.656-.649a31.684,31.684,0,0,1-3.718-1.379l2.745-1.411s-.423-2.207-4.769-1.05c-1.4.374-2.956,1.4-3.684,1.4a6.068,6.068,0,0,0-3.468.976Q75.742,51.454,75.74,51.454Z"/><path class="cls-6" d="M127.245,115.913a.5.5,0,0,1-.3-.179c-.117-.151-.185-.168-.372-.1-.139.052-.269.128-.408.182q-.812.319-1.628.632c-.189.074-.377.154-.572.21a1.518,1.518,0,0,1-.477.082,4.748,4.748,0,0,0-.931.062,5.394,5.394,0,0,0-.985.37,6.749,6.749,0,0,1-.826.28,19.376,19.376,0,0,0-1.983.53,3.334,3.334,0,0,1-.975.2,1.517,1.517,0,0,0-.715.2,5.512,5.512,0,0,1-.617.261,1.459,1.459,0,0,0-.609.354.713.713,0,0,1-.173.141.326.326,0,0,1-.187.058.417.417,0,0,0-.367.136c-.288.276-.584.541-.893.8a10.594,10.594,0,0,1-1.375,1.008.994.994,0,0,1-.151.055c-.012-.063-.022-.1-.026-.141-.028-.3-.048-.6-.087-.89s-.1-.614-.15-.921c-.073-.469-.142-.938-.213-1.407-.044-.288-.066-.581-.133-.863-.179-.751-.384-1.5-.566-2.247a15.526,15.526,0,0,0-.567-1.868c-.053-.138-.124-.27-.191-.4a.123.123,0,0,0-.073-.064.226.226,0,0,0-.149.018c-.025.017-.023.083-.023.127,0,.025.02.05.03.075a4.373,4.373,0,0,1,.192.446c.182.59.361,1.181.526,1.775a9.091,9.091,0,0,1,.233,1.031c.065.427.064.862.133,1.292.056.353.15.7.182,1.058a10.591,10.591,0,0,0,.234,1.113,3.072,3.072,0,0,1,.053.524c0,.168-.017.338-.031.507a.774.774,0,0,1-.058.144c-.095-.243-.18-.44-.248-.643-.12-.353-.213-.716-.346-1.064-.3-.779-.615-1.551-.925-2.326-.322-.806-.641-1.613-.971-2.416-.147-.357-.331-.7-.474-1.058-.3-.737-.572-1.481-.86-2.22a.35.35,0,0,0-.126-.178.679.679,0,0,1-.284-.405c-.07-.176-.122-.361-.2-.533-.209-.456-.417-.914-.648-1.359a3.765,3.765,0,0,0-.393-.539l-.134.081a.451.451,0,0,0,.063.126c.086.154.176.3.258.461.047.089.077.188.121.279.115.245.248.483.348.734.281.707.547,1.419.821,2.127.047.12.108.234.162.351.118.259.248.514.353.778.253.644.495,1.292.741,1.938.068.177.134.355.2.533.26.677.527,1.352.78,2.032.133.355.228.725.368,1.077a15.3,15.3,0,0,1,.6,1.572c.158.575.352,1.141.536,1.709a1.666,1.666,0,0,0,.144.309.206.206,0,0,1-.018.262,2.03,2.03,0,0,1-.2.17c-.043-.036-.07-.055-.094-.078-.215-.207-.422-.424-.646-.62a8.316,8.316,0,0,1-1.086-1.18c-.557-.717-1.125-1.425-1.689-2.136-.354-.445-.709-.89-1.067-1.331-.273-.337-.556-.665-.826-1-.324-.408-.63-.831-.962-1.232-.5-.606-1.018-1.2-1.527-1.8q-.269-.318-.532-.641c-.054-.067-.111-.127-.2-.076a.192.192,0,0,0-.047.24.394.394,0,0,0,.072.1c.251.265.511.522.754.8q.54.608,1.062,1.233c.407.489.8.986,1.2,1.481.157.2.307.395.461.593.217.277.431.556.652.83.246.306.5.605.747.91.17.209.332.425.5.637.239.3.48.6.718.907.163.208.327.415.484.627.209.282.413.567.615.855.02.029.009.082.013.134a.373.373,0,0,1-.1-.007c-.24-.11-.481-.218-.717-.334a3.065,3.065,0,0,1-.33-.2c-.174-.116-.344-.238-.517-.357-.234-.16-.482-.3-.7-.482-.46-.379-.9-.781-1.359-1.162a1.728,1.728,0,0,1-.457-.613c-.116-.245-.221-.5-.344-.737q-.483-.941-.977-1.875a8.923,8.923,0,0,0-.783-1.234c-.318-.422-.632-.846-.954-1.264-.132-.172-.28-.332-.419-.5a.137.137,0,0,0-.2-.021c-.078.048-.064.112-.029.176a.661.661,0,0,0,.1.173c.153.152.315.3.473.443a1.373,1.373,0,0,1,.145.14q.282.359.554.723c.081.108.149.225.224.337.189.281.382.559.566.843.11.17.21.348.306.527.185.346.369.692.544,1.043.131.26.249.527.367.793.03.069.072.149-.006.223a.274.274,0,0,1-.061-.027c-.212-.189-.411-.394-.637-.564-.433-.326-.827-.7-1.271-1.012-.463-.328-.885-.714-1.327-1.072-.188-.153-.336-.348-.537-.492-.363-.259-.708-.542-1.055-.822a4.065,4.065,0,0,0-.708-.4c-.067-.035-.136-.047-.173.034a.126.126,0,0,0,.066.171,1.486,1.486,0,0,1,.2.106c.292.218.587.434.87.663s.546.465.818.7.553.478.829.719c.168.147.338.292.5.445.211.2.414.409.622.613.315.307.63.615.948.92.24.229.487.451.727.681.313.3.648.575.989.843a.6.6,0,0,1,.163.2c.308.619.611,1.241.914,1.863.089.182.17.369.254.554s.176.4.263.595q.372.837.74,1.675c.019.043.026.128,0,.148-.106.088-.186.214-.341.255-.056-.115-.105-.226-.163-.332-.228-.414-.453-.831-.691-1.239-.191-.326-.4-.643-.6-.963-.187-.3-.379-.588-.568-.883-.15-.233-.285-.478-.454-.7-.151-.2-.339-.364-.51-.546-.1-.108-.2-.22-.3-.326a1.416,1.416,0,0,0-.7-.523c-.017,0-.032-.024-.046-.039-.086-.086-.174-.171-.256-.261a9.287,9.287,0,0,0-.95-.973c-.136-.111-.259-.239-.4-.336a1.6,1.6,0,0,1-.387-.292.456.456,0,0,0-.11-.09c-.176-.111-.355-.219-.532-.33-.246-.154-.486-.319-.739-.46a9.089,9.089,0,0,1-1.521-.969c-.147-.126-.233-.108-.367.044a1.19,1.19,0,0,0,.536.466c.318.182.655.33.969.517.441.262.861.562,1.306.817a8.147,8.147,0,0,1,1.533,1.232,13.633,13.633,0,0,1,.941,1.038,21.3,21.3,0,0,1,1.6,2.121c.343.521.689,1.04,1.019,1.568.147.235.26.49.384.738a.456.456,0,0,1,.023.136.488.488,0,0,1-.161-.144c-.174-.2-.352-.392-.522-.594-.144-.17-.275-.35-.416-.524a4.761,4.761,0,0,0-.65-.659,7.914,7.914,0,0,1-.664-.657,7.427,7.427,0,0,0-1.122-.989c-.111-.078-.229-.144-.335-.227-.282-.219-.551-.458-.842-.664-.447-.316-.91-.609-1.362-.916-.207-.141-.4-.3-.607-.44a.262.262,0,0,1-.111-.2.48.48,0,0,0-.316-.356.29.29,0,0,0-.29.1c-.045.1.012.17.068.239a.637.637,0,0,0,.1.1c.268.217.526.447.807.644.575.4,1.162.789,1.744,1.182a2.7,2.7,0,0,1,.249.174c.17.145.335.3.5.447.233.217.468.432.692.658.172.173.323.366.493.542.462.478.859,1.01,1.272,1.53.265.334.513.682.784,1.012a6.976,6.976,0,0,1,.748,1.109c.075.138.066.187-.051.3l-.376.369c-.265.262-.529.525-.8.785a.72.72,0,0,1-.106.077c-.213-.321-.4-.632-.619-.926-.276-.377-.572-.739-.858-1.108-.315-.407-.624-.819-.943-1.223q-.541-.686-1.1-1.359a5.654,5.654,0,0,0-.436-.479c-.244-.234-.5-.453-.747-.685s-.449-.449-.678-.67c-.137-.131-.283-.252-.424-.378-.267-.238-.532-.48-.8-.716-.377-.33-.76-.653-1.134-.986-.172-.152-.322-.329-.494-.481a.958.958,0,0,0-.283-.154c-.082-.033-.123.028-.14.1a.332.332,0,0,0,.161.364A1.2,1.2,0,0,1,98.1,119a.627.627,0,0,0,.457.367.263.263,0,0,1,.12.071c.112.1.219.2.331.3a4.921,4.921,0,0,1,.989,1.013.437.437,0,0,0,.042.044c.272.3.547.6.814.909.4.453.789.911,1.183,1.367.289.333.577.666.868,1q.576.656,1.157,1.308c.488.545.981,1.086,1.467,1.632a.787.787,0,0,1,.09.2c-.058.006-.086.018-.109.01a4.262,4.262,0,0,1-.419-.152c-.32-.147-.641-.3-.952-.46-.45-.237-.9-.48-1.334-.737-.4-.237-.792-.494-1.181-.75a.6.6,0,0,1-.2-.218c-.252-.5-.5-.991-.738-1.5a13.564,13.564,0,0,0-1.062-1.921c-.148-.217-.264-.455-.4-.681a.572.572,0,0,0-.128-.127.145.145,0,0,0-.2,0,.151.151,0,0,0-.065.194.7.7,0,0,0,.11.191,3.2,3.2,0,0,1,.289.28c.239.344.477.692.689,1.053.2.332.361.682.533,1.028.188.375.369.754.548,1.133.026.054.078.111.032.2-.189-.113-.364-.226-.547-.326a9.228,9.228,0,0,1-1.772-1.32c-.245-.225-.481-.459-.733-.675-.313-.268-.64-.519-.958-.78-.156-.129-.305-.268-.461-.4-.109-.091-.221-.178-.336-.26-.176-.126-.365-.235-.532-.371a5.338,5.338,0,0,0-.72-.521c-.069-.039-.138-.067-.2,0s-.022.123.073.2c.079.064.16.126.237.192.5.431,1,.874,1.515,1.291a14.66,14.66,0,0,1,1.6,1.41c.3.329.632.634.946.953a1.307,1.307,0,0,1,.129.186l-.035.032a1.123,1.123,0,0,1-.14-.1c-.12-.119-.228-.25-.353-.363-.322-.289-.645-.579-.979-.854-.313-.258-.642-.5-.963-.746-.235-.182-.465-.372-.7-.549-.294-.216-.595-.423-.895-.631a2.425,2.425,0,0,0-.313-.188.181.181,0,0,0-.149.009c-.027.015-.042.083-.035.122a.772.772,0,0,0,.562.5.345.345,0,0,1,.285.113.785.785,0,0,0,.23.165,1.513,1.513,0,0,1,.473.346,1.009,1.009,0,0,0,.093.078c.4.312.8.623,1.2.937.078.061.147.135.22.2l-.028.042a1.085,1.085,0,0,1-.148-.053c-.384-.2-.775-.391-1.148-.611a2.869,2.869,0,0,1-.89-.551.187.187,0,0,0-.287.011c-.051.093-.007.194.117.265.03.017.062.029.092.044.351.176.706.347,1.053.53.516.273,1.028.553,1.539.833a4.592,4.592,0,0,1,1.235.945c.394.438.778.886,1.167,1.328.367.417.752.819,1.1,1.253.385.482.734.992,1.1,1.491a.484.484,0,0,1,.036.116,1.575,1.575,0,0,1-.15-.083c-.344-.242-.682-.491-1.029-.726-.482-.326-.97-.644-1.458-.96-.425-.277-.854-.549-1.282-.82a3.828,3.828,0,0,0-.505-.3c-.628-.272-1.256-.545-1.9-.785a25.218,25.218,0,0,1-2.533-.991.365.365,0,0,0-.095-.036c-.1-.016-.157.043-.138.143a.308.308,0,0,0,.238.271c.215.056.429.12.638.2.356.13.706.278,1.061.41.33.122.666.229,1,.353q.543.2,1.076.43a6.123,6.123,0,0,1,.716.332c.316.181.617.39.923.588.6.389,1.208.774,1.8,1.172.366.244.71.52,1.078.76s.68.511,1.018.769a.307.307,0,0,1,.16.225c-.5-.1-.97-.2-1.447-.288-.239-.046-.479-.093-.721-.118-.323-.034-.649-.034-.972-.07a8.256,8.256,0,0,0-1.846.028,10.971,10.971,0,0,1-1.618.128c-.25-.009-.5-.03-.748-.046a.8.8,0,0,0-.161-.007c-.092.014-.121.078-.085.163a.285.285,0,0,0,.346.213c.128-.009.255-.027.383-.033.3-.015.591-.041.886-.033s.575-.161.879-.107c.03.006.065-.018.1-.021a7.713,7.713,0,0,1,.869-.064c.581.016,1.161.065,1.742.1a.9.9,0,0,1,.2.006c.357.107.733.1,1.092.21s.725.168,1.087.251a1.26,1.26,0,0,1,.142.055c-.052.034-.077.055-.106.07-.323.157-.643.323-.971.468-.639.283-1.283.552-1.924.832-.261.113-.511.254-.776.355-.474.181-.956.342-1.436.509a1.893,1.893,0,0,1-.236.059,9.47,9.47,0,0,0-1.79.453,1.393,1.393,0,0,1-.795.169c-.036.071-.074.134-.1.2-.016.041-.035.11-.016.128a.24.24,0,0,0,.155.063.741.741,0,0,0,.192-.062c.431-.143.858-.3,1.294-.424.416-.119.844-.2,1.265-.3.2-.049.388-.121.584-.175a6.4,6.4,0,0,0,1.26-.457,12.642,12.642,0,0,1,1.223-.549,17.48,17.48,0,0,0,1.768-.777c.049-.026.1-.048.184-.088a.683.683,0,0,1-.063.077c-.213.177-.425.357-.642.53a3.365,3.365,0,0,1-.381.27,14.227,14.227,0,0,0-1.549,1.009c-.069.054-.144.1-.216.148a10.841,10.841,0,0,0-1,.649,7.422,7.422,0,0,1-.687.469c-.209.138-.422.271-.628.412a9.143,9.143,0,0,0-.948.621c-.126.111-.265.207-.4.307-.076.056-.156.106-.242.163-.167-.023-.166-.023-.228.15a.163.163,0,0,1-.028.054c-.235.231-.471.461-.7.692a.864.864,0,0,0-.079.113c.064,0,.1,0,.125-.009.191-.114.382-.229.567-.351.107-.07.2-.154.307-.231s.2-.158.309-.23a10.907,10.907,0,0,1,.9-.629c.216-.117.407-.283.626-.405.306-.172.592-.379.9-.552.364-.206.76-.354,1.113-.582a1.234,1.234,0,0,1,.178-.1,7.011,7.011,0,0,0,1.306-.779,3.059,3.059,0,0,1,.318-.175l.033.041-.11.159c-.152.215-.311.426-.454.647-.107.163-.187.343-.289.509-.188.305-.385.6-.575.907a1.089,1.089,0,0,0-.079.181.892.892,0,0,1-.065.182c-.086.13-.186.25-.278.376a9.8,9.8,0,0,0-.782,1.113c-.089.166-.218.31-.32.469a4.227,4.227,0,0,1-.317.519,9.644,9.644,0,0,0-.583.828c-.158.227-.305.462-.456.694-.033.051-.067.1-.1.155a.3.3,0,0,0-.079.21l1.34-1.662c.042,0,.062,0,.082,0,.2.017.214.01.282-.173a.55.55,0,0,1,.051-.11c.23-.368.454-.738.693-1.1s.492-.713.741-1.068c.33-.472.656-.947.994-1.413.476-.658.961-1.311,1.444-1.965.119-.161.249-.313.374-.47l.036.024a2.147,2.147,0,0,1-.231.459c-.124.218-.254.432-.365.656-.093.188-.162.387-.24.582-.109.27-.219.539-.322.812-.112.3-.211.6-.325.9a2.445,2.445,0,0,0-.142.459,8.858,8.858,0,0,1-.425,1.439q-.16.45-.3.906c-.04.134-.037.282-.081.415-.1.294-.216.583-.324.874-.03.079-.084.161.024.258a2.146,2.146,0,0,0,.185-.141,1.126,1.126,0,0,0,.276-.579,15.672,15.672,0,0,1,.7-2.035c.2-.51.443-1,.668-1.5q.405-.9.811-1.8c.155-.346.308-.693.463-1.039.064-.143.133-.284.2-.426l.038.013c-.018.267-.028.534-.056.8-.031.282-.1.56-.114.842a7.937,7.937,0,0,1-.2,1.22c-.052.246-.088.49-.123.738a1.062,1.062,0,0,1-.131.544.43.43,0,0,0-.07.21c-.023.223-.2.4-.168.641,0,.018-.016.037-.023.056l-.285.76c-.025.068-.042.141-.073.206-.132.281-.277.556-.4.84a3.378,3.378,0,0,1-.574,1.064.243.243,0,0,0,.029.3.223.223,0,0,0,.246-.021.342.342,0,0,0,.074-.118c.1-.23.192-.462.29-.692.159-.372.325-.742.479-1.116.165-.4.338-.8.475-1.209.194-.584.376-1.173.527-1.768.11-.432.168-.876.238-1.317.055-.354.084-.713.142-1.067.095-.575.2-1.148.308-1.72q.064-.339.161-.671a.837.837,0,0,1,.356-.5c.177-.113.336-.251.5-.375a.334.334,0,0,0,.149-.232.506.506,0,0,1,.059-.128l.046.01c.009.1.015.21.028.315.047.389.1.778.143,1.169.042.418.066.837.1,1.256a22.3,22.3,0,0,1-.007,2.254c0,.289-.054.577-.084.865-.051.506-.1,1.012-.157,1.517a.242.242,0,0,0,.137.284c.167-.11.162-.285.175-.448.006-.086-.017-.174-.01-.26.05-.574.116-1.147.154-1.721.034-.5.043-1,.054-1.5.006-.264.006-.529-.013-.792-.057-.743-.128-1.486-.186-2.229a2.811,2.811,0,0,1,.03-1.03.319.319,0,0,1,.2-.234c.046.129.094.247.129.368q.269.928.531,1.858a24.5,24.5,0,0,1,.585,2.409c.133.755.228,1.514.315,2.275a.675.675,0,0,0,.049.194c.041.092.1.1.174.035a.283.283,0,0,0,.056-.318,2.983,2.983,0,0,1-.088-.313c-.065-.442-.114-.887-.184-1.328s-.142-.912-.247-1.36c-.162-.686-.352-1.366-.534-2.047-.137-.511-.28-1.02-.417-1.532a2,2,0,0,1-.034-.246l.051-.023a1.8,1.8,0,0,1,.126.136c.113.153.217.311.333.461.273.354.573.69.821,1.06.35.523.669,1.068.989,1.611a1.277,1.277,0,0,1,.14.42c.083.474.152.951.224,1.426s.144.925.2,1.389c.048.39.076.782.113,1.173a.366.366,0,0,1-.07.267c-.065.089-.038.161.052.22a.231.231,0,0,0,.266-.026c.085-.05.081-.129.067-.215-.039-.24-.076-.481-.107-.722-.059-.457-.1-.917-.177-1.371a2.187,2.187,0,0,1-.056-.64,1.144,1.144,0,0,1,.038.109c.125.521.256,1.039.371,1.562a9.436,9.436,0,0,0,.636,1.732.2.2,0,0,0,.224.106c.095-.005.136-.083.163-.162s-.037-.13-.1-.18a.826.826,0,0,1-.2-.217,6.429,6.429,0,0,1-.326-.7,16,16,0,0,1-.455-1.75c-.137-.525-.29-1.046-.433-1.569a3.772,3.772,0,0,1-.217-.843c-.027-.7-.066-1.394-.083-2.091-.013-.507,0-1.016.006-1.524a.725.725,0,0,1,.026-.136l.044,0c.025.1.056.207.076.312a6.416,6.416,0,0,0,.265,1.044c.218.6.418,1.2.63,1.8a6.418,6.418,0,0,0,.26.663,3.737,3.737,0,0,1,.31.92c.061.319.146.634.207.954.117.619.22,1.24.339,1.859a3.128,3.128,0,0,0,.157.483.4.4,0,0,0,.093.13c.063.069.135.046.2.006a.115.115,0,0,0,.047-.159,1.437,1.437,0,0,0-.106-.192.992.992,0,0,1-.134-.219q-.129-.482-.233-.968c-.141-.657-.269-1.316-.415-1.971-.094-.423-.213-.842-.319-1.263-.026-.1-.033-.212-.065-.314-.045-.142-.117-.275-.156-.418-.125-.457-.249-.914-.358-1.375-.147-.626-.283-1.254-.418-1.883-.068-.318-.123-.638-.182-.958-.012-.063-.013-.128-.02-.192a.185.185,0,0,1,.13.073c.075.121.151.242.215.369.3.579.586,1.162.883,1.74.245.476.5.949.747,1.422.08.149.18.288.25.441.249.543.491,1.088.73,1.635a7.736,7.736,0,0,1,.585,2.189c.009.074.014.149.024.223.029.215.069.428.089.644.013.147-.011.3,0,.445a.393.393,0,0,0,.082.194c.014.019.091.009.128-.01.078-.04.082-.116.065-.195s-.035-.159-.048-.239c-.064-.408-.117-.818-.193-1.223-.072-.38-.163-.756-.255-1.132a4.208,4.208,0,0,0-.179-.582c-.157-.39-.341-.768-.493-1.16-.25-.647-.582-1.254-.891-1.872q-.279-.555-.545-1.115c-.207-.434-.393-.88-.616-1.305-.257-.488-.546-.96-.823-1.442l1.945-2.111a.95.95,0,0,1,.039.234,4.466,4.466,0,0,0,.014,1.014c.02.277.023.556.056.831a10.559,10.559,0,0,0,.409,1.823,1.426,1.426,0,0,1,.049.259c.057.518.11,1.036.165,1.554a.422.422,0,0,0,.02.1c.053.139.131.162.261.079.028-.017.057-.031.086-.046.022.021.043.032.049.049.1.287.2.577.3.864q.2.555.4,1.107c.012.03.071.073.084.066.035-.019.081-.062.081-.1a1.033,1.033,0,0,0-.038-.259c-.1-.34-.2-.678-.3-1.016a9.779,9.779,0,0,0-.42-1.358,4.216,4.216,0,0,1-.158-.418c-.107-.322-.213-.644-.309-.968a3.022,3.022,0,0,1-.106-.5c-.058-.5-.11-1-.157-1.5-.028-.3-.044-.608-.062-.912a1.179,1.179,0,0,1,.026-.189,1.14,1.14,0,0,1,.212.171,5.688,5.688,0,0,1,.325.513c.1.183.192.373.278.565.12.266.243.531.342.8q.354.987.685,1.981c.111.334.2.677.3,1.015.015.052.014.118.106.149-.052-.258-.1-.5-.147-.731a14.948,14.948,0,0,0-.564-1.827c-.142-.417-.3-.829-.45-1.244a.261.261,0,0,1-.017-.253c.1.084.188.152.266.232.171.174.338.351.5.533a.9.9,0,0,1,.161.229c.256.576.513,1.151.755,1.733.255.614.5,1.23.735,1.853.167.451.309.912.444,1.374.115.39.2.789.306,1.18a1.679,1.679,0,0,0,.189.571c.189-.02.19-.02.2-.165a.492.492,0,0,0,0-.162c-.011-.045-.044-.11-.081-.121-.11-.034-.14-.115-.164-.21-.07-.269-.14-.538-.217-.8-.154-.541-.309-1.082-.517-1.607-.255-.643-.489-1.294-.732-1.942-.106-.279-.215-.557-.318-.837a1.785,1.785,0,0,1-.048-.222l.043-.025a.754.754,0,0,1,.159.108c.211.236.423.473.621.72.166.206.318.422.467.64a3.4,3.4,0,0,1,.349.567,19.74,19.74,0,0,1,.655,2.265.908.908,0,0,0,.158.383c-.02-.405-.152-.793-.166-1.2a.5.5,0,0,1,.155.2,8.782,8.782,0,0,0,.393,1,1.842,1.842,0,0,1,.074.232c.057.167.108.336.173.5.172.428.349.853.525,1.279a1.339,1.339,0,0,0,.088.183.112.112,0,0,0,.174.039.114.114,0,0,0,.046-.171,1.385,1.385,0,0,1-.065-.191c-.129-.357-.238-.724-.394-1.069a8.155,8.155,0,0,1-.473-1.468,6.2,6.2,0,0,0-.215-.739c-.019-.05-.036-.115-.075-.14a.587.587,0,0,1-.218-.335c-.156-.467-.471-.852-.653-1.305a1.914,1.914,0,0,0-.18-.317c-.2-.312-.407-.624-.618-.93-.234-.339-.465-.683-.722-1a4.083,4.083,0,0,0-.571-.575,2.267,2.267,0,0,1-.679-.841c-.293-.685-.619-1.356-.925-2.035a.55.55,0,0,1-.078-.385.662.662,0,0,1,.133.046c.091.055.179.115.266.176a.8.8,0,0,1,.155.128c.247.3.489.6.732.9a7.515,7.515,0,0,1,.558.822c.268.44.547.873.8,1.318.218.374.412.762.62,1.143a1.246,1.246,0,0,0,.12.157.365.365,0,0,0-.069-.339c-.173-.323-.349-.644-.522-.966-.125-.232-.242-.47-.375-.7q-.331-.572-.678-1.133a7.845,7.845,0,0,0-.912-1.267c-.112-.119-.225-.236-.332-.358s-.108-.238,0-.3a4.429,4.429,0,0,1,.575-.244c.03-.011.077.015.114.031a2.856,2.856,0,0,1,.371.238,3.519,3.519,0,0,1,.653.575c.2.2.386.418.574.631.161.182.317.369.473.556s.326.4.492.592a.352.352,0,0,0,.1.059l.028-.032c-.047-.071-.091-.145-.142-.215-.075-.1-.155-.2-.233-.3-.16-.209-.315-.422-.48-.628s-.354-.426-.531-.639a4.934,4.934,0,0,0-.8-.8c-.127-.1-.258-.19-.413-.3a.944.944,0,0,1,.606-.3.491.491,0,0,0,.327-.092,2.4,2.4,0,0,1,.711-.341,6,6,0,0,0,.663-.3,2.523,2.523,0,0,1,.941-.306,1.066,1.066,0,0,0,.465-.126,2.6,2.6,0,0,1,.881-.3,5.98,5.98,0,0,0,1.6-.515c.277-.152.382-.136.613.087.083.08.158.169.245.243a.279.279,0,0,0,.255.1c.2-.057.4-.118.6-.18a.334.334,0,0,0,.088-.05c.229-.169.46-.335.686-.508a1.325,1.325,0,0,1,.712-.275,4.344,4.344,0,0,0,1.262-.3,3.773,3.773,0,0,1,.421-.151c.5-.128,1-.256,1.5-.366a1.574,1.574,0,0,1,.723-.033c.157.038.252-.041.285-.211.048-.245.1-.491.136-.738a.4.4,0,0,0-.025-.217A.8.8,0,0,0,127.245,115.913Zm-27.428,8.559,1.344.739,2.348,4.278Zm4.357,5.1-2.236-3.786,3.672,2.1Zm4.455-1.425c.195.726.52,2.805.52,2.805s-1.749-3.131-2.273-3.263l.9-1.307A8.425,8.425,0,0,1,108.629,128.146Zm.635-.989.19.537-.069.788L108.5,126l.23-.336Zm-.034-2.691-2.163-4.384a15.383,15.383,0,0,0,1.254,1.113c.472.341,2.5,1.846,2.5,1.846Z"/><path class="cls-7" d="M133.759,131.577l2.73,1.886a8.375,8.375,0,0,1-1.364,1.2c-.43.211-2.084-1.774-2.084-1.774l.131,1.935s-2.752.14-2.612-.367a7.872,7.872,0,0,0-.752-2.472l-1.59,2.4-.526.565s-1.711-.516-1.5-1.185a8.944,8.944,0,0,0,.2-1.976L124,131.079s-.859-.365-.236-1.371a9.92,9.92,0,0,0,.964-2.606l-2.141,2.483L121,128.529l-1.9-1.6,1.736-1.507-2.482.386a8.348,8.348,0,0,1-.806-2.139c-.041-.679,1.085-3.723,2.43-4.645s7.95-2.895,9.662-3.168,4.709-1.087,4.848-.805-1.086,1.055-1.086,1.055l1.812.03a2.666,2.666,0,0,1-1.838,1.394,9.722,9.722,0,0,0-2.313.731l3.456-.473s.723,1.175.332,1.368,1.44.166.814.473a8.185,8.185,0,0,0-1.4,1s3.129-.748,3.031.437a9.1,9.1,0,0,0,.133,1.856,1.832,1.832,0,0,1-1.163,1.488,17.007,17.007,0,0,1-2.968.977l2.916-.294s2.043.7.9,1.348-1.9.976-1.9.976l1.607.7-.046.9s1.4,1.761.72,2.357S133.759,131.577,133.759,131.577Z"/><path class="cls-8" d="M133.255,130.577s-.619-1.039-1.049-1.025a21.834,21.834,0,0,1-2.19-.3,13.312,13.312,0,0,0-.74,2.792c.178.141.741.028,1.38-.155S133.659,130.806,133.255,130.577Z"/><path class="cls-8" d="M136.545,133.421a2.008,2.008,0,0,0-1.146-.257,3.493,3.493,0,0,1-.893.11l-.01,1.02s.6.921.952.681S137,133.526,136.545,133.421Z"/><path class="cls-8" d="M133.172,134.486s.205.719-1.069,1.016-1.7.54-1.824.141.4-2.59.983-2.745S133.172,134.486,133.172,134.486Z"/><path class="cls-8" d="M127.946,133.707s.831,1.1-.151,1.549a2.568,2.568,0,0,1-1.715.218l-.327-.3s1.1-2.735,1.332-2.554A8.754,8.754,0,0,1,127.946,133.707Z"/><path class="cls-8" d="M136.331,131.133s.112,1.19.728.888,1.3-.311,1.056-.814-.431-.8-.431-.8.708-.117.778-.644.1-1.13-.4-1.046-2.236.047-2.236.047-.364.67-.234.934-.382,1.6-.382,1.6Z"/><path class="cls-8" d="M137.076,127.751l-.144,1.119-1.1-.017-.624-1.442S137.063,127.43,137.076,127.751Z"/><path class="cls-8" d="M135.524,126.152s-.974,1.725-1.648,2.055-2.423,1.221-2.482.728-.491-2.186.3-2.575S135.838,125.672,135.524,126.152Z"/><path class="cls-8" d="M131.746,124.533a17.409,17.409,0,0,1-2.34,1.541c-1.3.7-2.747,1.971-2.592,1.173s1.221-2.926,1.933-3.111S132.257,124.019,131.746,124.533Z"/><path class="cls-8" d="M128.7,128.124s-3.079,2.332-3.666,2.62-1.364.635-1.558.24,1.145-2.562,1.609-2.954S129.167,127.666,128.7,128.124Z"/><path class="cls-8" d="M126.967,131.565a1.672,1.672,0,0,1-.582,1.041,10.371,10.371,0,0,1-1.868,1.243c-.335.131-1.069-.032-.749-.714s1.112-2.186,1.112-2.186l.652-.154S127,131.121,126.967,131.565Z"/><path class="cls-8" d="M138.177,124.95s1.258.857.584,1.189-2.32,1.137-2.545.527-.544-1.405-.544-1.405S137.947,124.407,138.177,124.95Z"/><path class="cls-8" d="M136.82,122.337s1.875.85.685,1.467-3.406,1.443-3.406,1.443l-.547-1.633s.255-.814.82-.927S136.82,122.337,136.82,122.337Z"/><path class="cls-8" d="M134.956,121.353a3.87,3.87,0,0,1-1.147.561c-.7.211-3.079,1.74-3.216,1.382s-.125-1.217.114-1.4-.2-1.082.695-1.327,1.483.126,1.858.074S136.331,120.152,134.956,121.353Z"/><path class="cls-8" d="M138.509,122.361l-.839.445s-.96-.545-1.278-.75a10.2,10.2,0,0,1-.906-.735s-.9-.937-.218-1.04,1.673-.3,2.024.121.213.878.33,1.117A5.273,5.273,0,0,0,138.509,122.361Z"/><path class="cls-8" d="M136.946,118.212s-1.516.843-1.706.9-1.092.373-1.231.015-.761-.511-.256-.891.579-.677,1.226-.765a6.881,6.881,0,0,1,1.642.079S137.418,117.914,136.946,118.212Z"/><path class="cls-8" d="M135.592,116.417s-.946.891-1.479.922a3.914,3.914,0,0,1-1.178-.175l-1.767.7a1.634,1.634,0,0,1,.35-1.22c.434-.376.835-.967,1.275-1.184s.686.582,1.145.553S136.137,115.822,135.592,116.417Z"/><path class="cls-8" d="M132.055,119.3s-1.675,1.116-2.643,1.591-3.133,1.7-2.943,1.053a6.81,6.81,0,0,1,2.788-2.779C130.173,118.88,132.586,118.679,132.055,119.3Z"/><path class="cls-8" d="M127.814,123.053a20.079,20.079,0,0,1-2.573,1.656c-.731.294-3.14,1.246-2.829.765s1.671-3.048,2.424-2.926S128.307,122.647,127.814,123.053Z"/><path class="cls-8" d="M124.142,126.625s.08.386-.535.69-2.183,1.563-2.727,1.567-.964-.182-.91-.668.642-.545,1.162-1.193.445-1.17.865-.982a5.072,5.072,0,0,0,1.6.3C123.844,126.314,124.211,126.4,124.142,126.625Z"/><path class="cls-8" d="M123.3,129.3a11.491,11.491,0,0,0-1.634,1.195c-.215.3-1.219.927-1.216.269a7.662,7.662,0,0,1,.253-1.565l1.441-.772Z"/><path class="cls-8" d="M120.581,126.046s.066,1.77-.887,1.975-1.247.057-.892-.479S120.262,125.546,120.581,126.046Z"/><path class="cls-8" d="M119.906,124.968s-.042.511-.821.927-1.651,1.236-1.818.892-1.006-1.08-.124-1.512,2.68-1.217,2.68-1.217Z"/><path class="cls-8" d="M122.087,121.968a29.442,29.442,0,0,1-3.535,1.7c-.43.015-.623-.676-.349-1.008a4.221,4.221,0,0,1,1.172-1.1C119.845,121.332,122.8,121.422,122.087,121.968Z"/><path class="cls-8" d="M126.519,119.794a4.333,4.333,0,0,0-2.273.49c-1.016.6-1.8,1.6-1.858,1.111a4,4,0,0,1,2.061-2.553C125.315,118.679,126.973,119.537,126.519,119.794Z"/><path class="cls-9" d="M130.934,116.573a9.27,9.27,0,0,0-2.374,1.1c-.789.618-1.781,1.268-1.509.708a5.04,5.04,0,0,1,1.463-1.767C128.909,116.452,131.3,116.2,130.934,116.573Z"/><path class="cls-8" d="M131.8,114.637s-.528-1.225-.74-.991-.738,1.095-1.253,1.084-.533-.2-1,.034-.379-.47-.85-.173-.605.624-1.062.586-1.008.168-1.132.065a2.756,2.756,0,0,0-1.918.262c-.492.405-2.254-3.335-2.254-3.335s-1.415,1.306-1.687,1.665c-.035.045,2.432,2.217,2.461,2.315.217.724-1.272.309-1.808,1.321a8.83,8.83,0,0,1-.775,1.166,7.727,7.727,0,0,0-.693.962c-.812,1.487-2.817.5-1.586,1.642.345.32,1.82-.347,1.82-.347l.685-.238a1.06,1.06,0,0,0,.767-.146,11.809,11.809,0,0,1,1.358-.51l.406-1.013,2.172-1.065s-.246.612.811.094.41-1.044.41-1.044l2.484-.683,1.713-.238,1.762-1.161C131.96,114.822,132.611,114.408,131.8,114.637Z"/><path class="cls-8" d="M133.178,114.914s.185-.811-1.078-.193a3.757,3.757,0,0,0-1.657,1.371Z"/></svg>