<svg id="word" xmlns="http://www.w3.org/2000/svg" viewBox="0 0 160 160"><defs><style>.cls-1{fill:#c4c5c7;}.cls-1,.cls-17,.cls-2,.cls-3,.cls-4,.cls-5,.cls-6,.cls-7{stroke:#9d4b9c;stroke-miterlimit:10;}.cls-2{fill:#dddfe0;}.cls-3{fill:#77787b;}.cls-4{fill:#a2a4a7;}.cls-5{fill:#bc6d92;}.cls-6{fill:#56a2c1;}.cls-7{fill:#949699;}.cls-8{fill:#29b473;}.cls-9{fill:#f6921e;}.cls-10{fill:#1b75bb;}.cls-11{fill:#f9ec31;}.cls-12{fill:#bf4555;}.cls-13{fill:#eb008b;}.cls-14{fill:#c4b774;}.cls-15{fill:#652d90;}.cls-16{fill:#c3996b;}.cls-17{fill:none;}</style></defs><path class="cls-1" d="M31.76,67.386s-1.193,21.275.4,24.257,75.355,23.064,82.911,25.052,13.918,5.368,15.508.6,4.573-29.427,4.573-29.427Z"/><path class="cls-2" d="M54.228,51.679S44.883,53.866,42.9,56.451,28.182,64.006,31.76,67.386,135.15,87.865,135.15,87.865s9.544-20.081,6.164-22.467S65.76,52.474,54.228,51.679Z"/><polygon class="cls-3" points="47.269 90.45 46.474 83.491 105.525 97.409 104.332 113.315 47.865 97.409 47.269 90.45"/><path class="cls-1" d="M50.45,90.052l-3.778-.4S28.579,99.4,27.386,100.789s-8.152.6,2.187,3.38S93.2,123.058,93.2,123.058L104.73,109.14v-5.17Z"/><path class="cls-4" d="M142.109,67.386s0,12.924-.4,20.082a53.657,53.657,0,0,1-5.766,20.678c-2.784,4.97-5.766,10.339-5.766,10.339l3.181-28.631Z"/><ellipse class="cls-5" cx="130.776" cy="83.093" rx="2.585" ry="1.591"/><ellipse class="cls-6" cx="124.612" cy="82.298" rx="1.988" ry="1.193"/><ellipse class="cls-7" cx="119.642" cy="81.205" rx="1.988" ry="0.895"/><path class="cls-8" d="M88.586,93.425l10.8,2.589s-5.786,8.356-8.965,10.343a21.016,21.016,0,0,1-3.263,1.5l-.143-.465a27.258,27.258,0,0,0-7.414-7.379,17.283,17.283,0,0,0,8.965-6.49Z"/><path class="cls-9" d="M87.011,107.4l.143.465c-1.091.423-2.32.871-3.614,1.366l-.161-.412a20.378,20.378,0,0,0-9.777-7.873,36.054,36.054,0,0,0,4.235-.478,14.824,14.824,0,0,0,1.76-.447A27.258,27.258,0,0,1,87.011,107.4Z"/><path class="cls-10" d="M79.6,100.016a14.824,14.824,0,0,1-1.76.447,36.054,36.054,0,0,1-4.235.478,20.378,20.378,0,0,0-12.579-.859,28.789,28.789,0,0,0-5.989,2.439c-.519-2.26.423-4.694,1.628-6.812,1.951-.137,3.9-.447,5.846-.554A28.2,28.2,0,0,1,79.6,100.016Z"/><path class="cls-11" d="M69.958,117.481l.012.012a76.221,76.221,0,0,0-6.794,7.355s-8.148-2.327-12.371-6.025a17.321,17.321,0,0,1,7.539-4.837,1.861,1.861,0,0,0,.275.668c.733,1.1,2.559.924,3.447-.066a3.6,3.6,0,0,0,.758-1.42c.107-.006.209-.011.316-.011a8.8,8.8,0,0,1,4.342.829A4.472,4.472,0,0,1,69.958,117.481Z"/><path class="cls-11" d="M61.023,100.082a20.378,20.378,0,0,1,12.579.859,27.612,27.612,0,0,0-4.384.572c-2.821.662-5.672,2.511-6.245,5.351a15.78,15.78,0,0,0,.054,3.966,7,7,0,0,1-.2,2.338,17.085,17.085,0,0,0-4.48.812c-.22-1.157.579-2.506.657-3.782.167-2.63-2.679-4.384-3.693-6.818a5.343,5.343,0,0,1-.274-.859A28.789,28.789,0,0,1,61.023,100.082Z"/><path class="cls-12" d="M67.482,113.986a8.8,8.8,0,0,0-4.342-.829c-.107,0-.209.005-.316.011a7,7,0,0,0,.2-2.338,15.78,15.78,0,0,1-.054-3.966c.573-2.84,3.424-4.689,6.245-5.351a27.612,27.612,0,0,1,4.384-.572,20.378,20.378,0,0,1,9.777,7.873l.161.412c-3.46,1.324-7.385,2.988-10.421,5.481-1.1.907-2.165,1.855-3.149,2.786l-.012-.012A4.472,4.472,0,0,0,67.482,113.986Z"/><path class="cls-13" d="M62.824,113.168a3.6,3.6,0,0,1-.758,1.42c-.888.99-2.714,1.169-3.447.066a1.861,1.861,0,0,1-.275-.668v-.006A17.085,17.085,0,0,1,62.824,113.168Z"/><path class="cls-14" d="M60.343,86.655l28.243,6.77-.024.1a17.283,17.283,0,0,1-8.965,6.49,28.2,28.2,0,0,0-17.089-4.861c-1.951.107-3.9.417-5.846.554.149-.256.3-.507.448-.751,1.562-2.547,3.406-5.219,3.209-8.2Z"/><path class="cls-9" d="M60.343,86.655l-.024.1c.2,2.983-1.647,5.655-3.209,8.2-.149.244-.3.5-.448.751-.572.036-1.145.066-1.718.066a11.01,11.01,0,0,1-7.127-2.129l-.191-.3c.68-.417,1.175-.733,1.431-.906,4.844-3.287,5.571-7.158,5.571-7.158Z"/><path class="cls-15" d="M55.308,103.38c1.014,2.434,3.86,4.188,3.693,6.818-.078,1.276-.877,2.625-.657,3.782v.006a17.321,17.321,0,0,0-7.539,4.837c-.054-.048-.1-.089-.155-.137-1.837-1.658-7.247-4.014-12.735-6.126l.054-.143q6.54-3.829,13.086-7.653c1.313-.769,2.631-1.539,3.979-2.243A5.343,5.343,0,0,0,55.308,103.38Z"/><path class="cls-16" d="M54.944,95.775c.573,0,1.146-.03,1.718-.066-1.2,2.118-2.147,4.552-1.628,6.812-1.348.7-2.666,1.474-3.979,2.243q-6.54,3.821-13.086,7.653l-.054.143c-6.991-2.7-14.107-5.01-14.107-5.01s18.2-10.743,23.818-14.2l.191.3A11.01,11.01,0,0,0,54.944,95.775Z"/><path class="cls-17" d="M60.343,86.655l-5.715-1.372s-.727,3.871-5.571,7.158c-.256.173-.751.489-1.431.906-5.613,3.46-23.818,14.2-23.818,14.2s7.116,2.308,14.107,5.01c5.488,2.112,10.9,4.468,12.735,6.126.053.048.1.089.155.137,4.223,3.7,12.371,6.025,12.371,6.025a76.221,76.221,0,0,1,6.794-7.355c.984-.931,2.046-1.879,3.149-2.786,3.036-2.493,6.961-4.157,10.421-5.481,1.294-.5,2.523-.943,3.614-1.366a21.016,21.016,0,0,0,3.263-1.5c3.179-1.987,8.965-10.343,8.965-10.343l-10.8-2.589Z"/><path class="cls-17" d="M58.344,113.986a1.861,1.861,0,0,0,.275.668c.733,1.1,2.559.924,3.447-.066a3.6,3.6,0,0,0,.758-1.42,7,7,0,0,0,.2-2.338,15.78,15.78,0,0,1-.054-3.966c.573-2.84,3.424-4.689,6.245-5.351a27.612,27.612,0,0,1,4.384-.572,36.054,36.054,0,0,0,4.235-.478,14.824,14.824,0,0,0,1.76-.447,17.283,17.283,0,0,0,8.965-6.49"/><path class="cls-17" d="M60.319,86.756c.2,2.983-1.647,5.655-3.209,8.2-.149.244-.3.5-.448.751-1.2,2.118-2.147,4.552-1.628,6.812a5.343,5.343,0,0,0,.274.859c1.014,2.434,3.86,4.188,3.693,6.818-.078,1.276-.877,2.625-.657,3.782"/><path class="cls-17" d="M37.969,112.417q6.54-3.829,13.086-7.653c1.313-.769,2.631-1.539,3.979-2.243a28.789,28.789,0,0,1,5.989-2.439,20.955,20.955,0,0,1,22.356,8.732"/><path class="cls-17" d="M47.817,93.646a11.01,11.01,0,0,0,7.127,2.129c.573,0,1.146-.03,1.718-.066,1.951-.137,3.9-.447,5.846-.554A28.2,28.2,0,0,1,79.6,100.016a27.258,27.258,0,0,1,7.414,7.379"/><path class="cls-17" d="M50.662,118.978c.047-.054.095-.107.143-.155a17.321,17.321,0,0,1,7.539-4.837v-.006a17.085,17.085,0,0,1,4.48-.812c.107-.006.209-.011.316-.011a8.8,8.8,0,0,1,4.342.829,4.472,4.472,0,0,1,2.476,3.495"/></svg>