<svg id="word" xmlns="http://www.w3.org/2000/svg" viewBox="0 0 160 160"><defs><style>.cls-1,.cls-12,.cls-8{fill:#fde6db;}.cls-1,.cls-10,.cls-11,.cls-12,.cls-13,.cls-2,.cls-3,.cls-6,.cls-8,.cls-9{stroke:#9c4c9c;}.cls-1,.cls-2,.cls-3,.cls-6,.cls-7{stroke-width:0.563px;}.cls-2,.cls-9{fill:#fff;}.cls-3{fill:#58745c;}.cls-4{fill:#231f20;}.cls-11,.cls-13,.cls-5,.cls-7{fill:none;}.cls-5,.cls-7{stroke:#221f1f;}.cls-5{stroke-width:0.282px;}.cls-6{fill:#e7bd6e;}.cls-10,.cls-11,.cls-12,.cls-13,.cls-8,.cls-9{stroke-width:0.543px;}.cls-10{fill:#c08f68;}.cls-12,.cls-13{stroke-linecap:round;}.cls-14{fill:#9c4c9c;}.cls-15{fill:#23292b;}.cls-16{fill:#383e40;}.cls-17{fill:#677172;}.cls-18{fill:#3f4547;}.cls-19{fill:#586262;}</style></defs><path class="cls-1" d="M48.067,66.513A22.774,22.774,0,0,0,50.4,68.827c.228,0,2.866.849,2.866.849s2.791,14.421,4.148,17.2a47.654,47.654,0,0,0,4.147,6.4s4-2.083,4.9-3.856.905-5.939.905-5.939a16.456,16.456,0,0,0-2.338-3.624A47.879,47.879,0,0,1,59.3,69.83a60.3,60.3,0,0,1-1.733-7.636c-.076-1.465-5.2-8.715-5.2-8.715Z"/><path class="cls-2" d="M65.713,80.858s2.412-.617,3.017.309a2.792,2.792,0,0,0,1.431,1.156s.83-.385,1.207,1.08,1.207,5.09.452,7.4-1.96,5.244-4.222,6.247-4.676,1.388-5.429-.078A20.947,20.947,0,0,1,60.283,92.5c0-.617,2.714.154,4.147-1.465s2.337-2.7,2.414-4.937A16.077,16.077,0,0,0,65.713,80.858Z"/><path class="cls-3" d="M36.135,42.156s-1.006-.073-1.795,1.691-5.894,15.8-5.751,16.463,1.223,1.1,2.3,1.618,17.967,6.615,18.543,6.688,3.88-9.7,3.88-9.7l2.73-8.747Z"/><polygon class="cls-4" points="41.674 59.617 39.278 58.948 39.316 58.806 41.664 59.461 42.941 58.932 43.789 56.261 43.688 55.513 42.083 54.893 42.071 54.866 39.4 48.959 39.943 47.368 39.845 46.738 38.415 46.409 38.07 45.311 38.299 44.843 38.427 44.908 38.224 45.322 38.527 46.283 39.972 46.616 40.09 47.381 39.554 48.951 42.19 54.777 43.818 55.406 43.934 56.275 43.056 59.043 41.674 59.617 41.674 59.617"/><polygon class="cls-4" points="38.434 52.861 38.292 52.84 38.407 52.06 39.108 51.832 39.431 51.338 37.831 47.81 37.962 47.748 39.596 51.35 39.199 51.957 38.535 52.171 38.434 52.861 38.434 52.861"/><polygon class="cls-4" points="38.334 61.086 36.762 60.694 37.505 58.377 37.641 58.423 36.947 60.589 38.321 60.931 40.331 60.051 42.023 60.345 43.305 59.883 44.861 56.413 44.558 55.622 43.051 54.778 40.368 49.028 41.194 47.264 40.685 46.117 39.457 45.889 39.732 45.001 39.869 45.045 39.642 45.773 40.785 45.987 41.354 47.266 40.527 49.03 43.161 54.672 44.673 55.518 45.017 56.418 43.411 60.001 42.035 60.496 40.349 60.203 38.334 61.086 38.334 61.086"/><polyline class="cls-5" points="44.221 46.971 43.789 48.147 44.795 50.351 43.789 53.182"/><path class="cls-4" d="M34.348,58.4,33.77,59.48l-1.3-.647-1.606.774a.46.46,0,0,0-.408-.252.478.478,0,1,0,.467.478.626.626,0,0,0-.008-.088L32.469,59l1.36.676.645-1.2Z"/><path class="cls-4" d="M33.335,53.49l-.794,1.685a.5.5,0,0,0-.431.468.542.542,0,0,0,1.077,0,.5.5,0,0,0-.485-.472l.7-1.489,1.66.742.058-.135Z"/><path class="cls-4" d="M36.061,48.881a.6.6,0,0,0-.538.644.675.675,0,0,0,.013.136l-1.252.486-.791,2.118,1.645.727.055-.136-1.516-.67.718-1.925,1.183-.459a.537.537,0,0,0,.483.365.653.653,0,0,0,0-1.286Z"/><path class="cls-4" d="M48.767,49.43,49,48.608l-.137-.04-.2.72-.857.037-.6,1.5,1.291,3.3-.246.417a.431.431,0,1,0,.165,0l.24-.409L47.354,50.83l.545-1.362Z"/><path class="cls-4" d="M46.534,52.715v-.01l-.018,0a.314.314,0,0,0-.2-.071.308.308,0,0,0-.075.01l-1.106-.247.665-2.042-.718-2.06.245-.934-.139-.038-.257.978.717,2.055-.7,2.15,1.119.25a.41.41,0,0,0-.094.264.344.344,0,1,0,.683,0A.411.411,0,0,0,46.534,52.715Z"/><polygon class="cls-4" points="35.81 52.851 34.301 57.15 39.008 58.878 40.23 53.916 35.81 52.851"/><path class="cls-4" d="M49.808,49.908l.23-.823-.137-.04-.2.722-.856.035-.6,1.505,1.292,3.3-.246.418a.429.429,0,1,0,.165,0l.24-.408L48.4,51.307l.545-1.362Z"/><path class="cls-4" d="M50.887,50.239l.23-.822-.139-.042-.2.722-.856.036-.6,1.5,1.29,3.3-.243.418a.423.423,0,0,0-.36.416.431.431,0,1,0,.525-.413l.239-.408-1.3-3.314.546-1.361Z"/><path class="cls-4" d="M52.36,50.79l.23-.823-.138-.04-.2.721-.857.036-.6,1.505,1.291,3.3-.245.418a.428.428,0,1,0,.166,0l.239-.408-1.3-3.313.547-1.362Z"/><path class="cls-4" d="M46.866,61.146l.011.005.009-.016a.328.328,0,0,0,.127-.169.457.457,0,0,0,.014-.077l.574-1,1.69,1.281,2.138-.058.792.529.078-.124-.828-.553-2.134.058-1.778-1.349-.582,1.011a.394.394,0,0,0-.217-.173.359.359,0,0,0-.465.212.37.37,0,0,0,.254.45A.374.374,0,0,0,46.866,61.146Z"/><path class="cls-4" d="M46.041,63.462l.009,0,.01-.017a.313.313,0,0,0,.126-.169.283.283,0,0,0,.014-.076l.575-1,1.69,1.282,2.138-.059.791.53.079-.123-.829-.556-2.133.06-1.778-1.35L46.151,63a.4.4,0,0,0-.217-.174.359.359,0,0,0-.465.213.37.37,0,0,0,.252.451A.389.389,0,0,0,46.041,63.462Z"/><path class="cls-4" d="M45.178,65.813l.01,0L45.2,65.8a.31.31,0,0,0,.126-.169.3.3,0,0,0,.015-.076l.575-1,1.69,1.282,2.138-.059.791.529.079-.122-.829-.555-2.134.058L45.87,64.344l-.583,1.011a.4.4,0,0,0-.215-.174.36.36,0,0,0-.466.212.371.371,0,0,0,.253.452A.382.382,0,0,0,45.178,65.813Z"/><path class="cls-4" d="M35.138,59.136l-.578,1.078-1.3-.646-1.605.775a.464.464,0,0,0-.877.225.468.468,0,1,0,.935,0,.422.422,0,0,0-.01-.087l1.555-.75,1.36.676.645-1.2Z"/><path class="cls-4" d="M36.255,59.465l-.523,1.106L37,61.278l.315,1.787a.463.463,0,0,1,.439.194.484.484,0,0,1-.11.666.457.457,0,0,1-.65-.112.484.484,0,0,1,.108-.666.693.693,0,0,1,.075-.043l-.3-1.73-1.329-.74.582-1.233Z"/><path class="cls-6" d="M35.907,42.645s.216-2.867,1.006-2.72,19.405,6.984,19.405,6.984.645,1.175-.073,1.91a2.59,2.59,0,0,0-.79,1.25Z"/><line class="cls-7" x1="37.558" y1="40.513" x2="36.841" y2="42.977"/><line class="cls-7" x1="39.067" y1="41.176" x2="38.277" y2="43.527"/><line class="cls-7" x1="40.24" y1="41.647" x2="39.484" y2="43.999"/><line class="cls-7" x1="41.317" y1="42.007" x2="40.564" y2="44.507"/><line class="cls-7" x1="42.594" y1="42.432" x2="41.84" y2="44.894"/><line class="cls-7" x1="43.645" y1="42.97" x2="42.926" y2="45.285"/><line class="cls-7" x1="44.825" y1="43.266" x2="44.142" y2="45.729"/><line class="cls-7" x1="45.891" y1="43.922" x2="45.029" y2="46.09"/><line class="cls-7" x1="47.292" y1="44.337" x2="46.513" y2="46.651"/><line class="cls-7" x1="48.338" y1="44.803" x2="47.653" y2="47.02"/><line class="cls-7" x1="49.878" y1="45.348" x2="49.117" y2="47.604"/><line class="cls-7" x1="51.152" y1="45.93" x2="50.315" y2="47.953"/><line class="cls-7" x1="52.712" y1="46.398" x2="51.666" y2="48.575"/><line class="cls-7" x1="54.175" y1="46.923" x2="52.863" y2="49.101"/><line class="cls-7" x1="55.621" y1="47.331" x2="54.385" y2="49.665"/><path class="cls-1" d="M56.135,63.737a8.39,8.39,0,0,1-2.186-1.311c-.98-.848-.528-2.623-.528-3.779a5.2,5.2,0,0,1,.528-2.159l-.905.386s-2.941,1.156-3.619-.386,4.524-4.473,5.052-4.7,3.092.386,3.092.386,2.035,1.773,2.186,2.93.981,4.164-.151,6.324a12.1,12.1,0,0,1-2.035,3.008"/><path class="cls-8" d="M93.312,54.729l1.434,11.062S87.03,74.3,84.359,75.767s-9.6-11.364-9.6-11.364Z"/><path class="cls-9" d="M94.826,62.591a6.544,6.544,0,0,1,2.89,1.079A6.924,6.924,0,0,1,99.4,66.541l-3.21,8.794s-1.752,2.17-1.836,1.813-8.079-3.723-8.079-3.723,5.892-5.058,6.593-6.354S94.826,62.591,94.826,62.591Z"/><path class="cls-9" d="M75.722,70.26l-2.664,7.911s2.537-5.243,4.371-4.92a27.246,27.246,0,0,1,4.277,1.291l-3.985-4.693Z"/><path class="cls-8" d="M66.386,31.959s.306,12.5-.174,14.932S69.848,62.933,71.86,64.78s6.679,3.266,8.769,2.653,10.983-4.166,12.323-7.411,1.128-8.077.6-16.5.841-15.456-5.834-16.452S66.386,31.959,66.386,31.959Z"/><path class="cls-10" d="M62.785,28.941s-3.419,3.478-2.3,7.418c1.595,5.6,1.37,5.269,2.636,7.864s3.346,5.894,3.346,5.894-.1-11.267-.225-15.18,1.119-2.733,1.126-3.262-.395-2.8-.395-2.8S65.374,25.967,62.785,28.941Z"/><path class="cls-11" d="M74.7,42.179s0,6.7,2.107,6.735,8.674,1.119,8.88-.245,1.717-5,.149-6.081S74.7,42.179,74.7,42.179Z"/><path class="cls-11" d="M71.688,42.23l1.235,6.938s-3.181,1.009-3.65,1.251-3.07,2.036-3.721-.178-1.727-5.114-.6-5.905S70.553,41.313,71.688,42.23Z"/><path class="cls-12" d="M72.941,43.644a9.654,9.654,0,0,1-.025,3.818c-.483,1.3-1.832,2.269-2.126,3.258s-.873,2.44.292,3.481a4.389,4.389,0,0,0,2.967.88"/><path class="cls-11" d="M71.9,44.529a2.217,2.217,0,0,1,2.967-.7"/><path class="cls-13" d="M75.478,39.309c2.243.03,5.1-.856,7.168.611"/><path class="cls-13" d="M69.3,39.646a6.345,6.345,0,0,0-2.354,1.527"/><path class="cls-13" d="M73.418,58.085c1.573,1.4,3.978.251,5.722-.51"/><path class="cls-13" d="M74.7,60.288c1.179.279,1.359-.368,2-.679"/><path class="cls-10" d="M66.408,32.673s3.858-3.78,6.488-.98,5.353,5.447,5.353,5.447-1.823-4.962-2.862-6.032,4.623.1,5.957.179S84,32.5,85.137,35.128a10.873,10.873,0,0,0,3.2,4.112s1.21-2.124,1.369,1.913a43.706,43.706,0,0,0,.949,7.4l2.053-.219s-.54-5.657.865-4.147.529,10.654.529,10.654,2-.995,2.719-1.3,1.835-6.74,3-10.169.527-12.873-2.986-18.882S86.4,16.431,81.519,16.919s-16.282,5.663-16.512,8.608S66.408,32.673,66.408,32.673Z"/><path class="cls-11" d="M86.028,45.733c2.035-.452,4.645-2.032,6.706-1.365"/><path class="cls-8" d="M92.974,44.8s.261-2.148,1.5-1.6a2.844,2.844,0,0,1,1.9,2.754c-.067,1.2-1.126,1.725-.943,2.8s.844,1.818.285,2.993-.99,1.415-1.562,1.341-.345-1.171-.345-1.171"/><path class="cls-11" d="M93.97,45.191c1.89.066.737,5.825-.569,5.281"/><path class="cls-9" d="M66.874,44.9s-.931,2.94,1.013,3.885,2.338-1.1,2.622-1.727c.513-1.121-.307-3.757-1.607-3.678A2.358,2.358,0,0,0,66.874,44.9Z"/><path class="cls-14" d="M67.961,46.125s-.574,1.812.624,2.394,1.441-.681,1.616-1.064c.316-.691-.19-2.315-.99-2.266A1.453,1.453,0,0,0,67.961,46.125Z"/><path class="cls-9" d="M77.916,43.887s-.931,2.94,1.012,3.885,2.339-1.1,2.623-1.727c.513-1.121-.308-3.757-1.608-3.678A2.358,2.358,0,0,0,77.916,43.887Z"/><path class="cls-14" d="M79,45.11s-.574,1.812.623,2.394,1.441-.681,1.617-1.064c.316-.691-.19-2.315-.991-2.266A1.451,1.451,0,0,0,79,45.11Z"/><ellipse class="cls-15" cx="79.666" cy="123.372" rx="30.604" ry="4.694"/><rect class="cls-16" x="21.546" y="58.413" width="117.347" height="59.706" rx="3.173"/><rect class="cls-15" x="34.23" y="67.049" width="92" height="46"/><polygon class="cls-17" points="22.401 60.102 34.23 67.049 126.417 67.049 135.993 60.102 22.401 60.102"/><polygon class="cls-18" points="22.401 61.712 22.964 115.302 35.544 113.049 35.544 67.049 22.401 60.102 22.401 61.712"/><polygon class="cls-18" points="71.405 87.89 69.903 123.372 90.556 123.372 89.43 87.89 71.405 87.89"/><polygon class="cls-17" points="69.903 84.98 71.405 87.89 89.43 87.89 86.519 84.98 69.903 84.98"/><polygon class="cls-19" points="68.448 121.917 69.903 123.372 71.405 87.89 69.903 84.98 68.448 121.917"/><path class="cls-18" d="M34.23,123.4s2.169-5.737,7.134-5.257c5.821.564,5.821,5.257,5.821,5.257Z"/></svg>