<svg id="word" xmlns="http://www.w3.org/2000/svg" xmlns:xlink="http://www.w3.org/1999/xlink" viewBox="0 0 160 160"><defs><style>.cls-1{fill:#648390;}.cls-2{fill:#89b0cd;}.cls-3{fill:#789bab;}.cls-4,.cls-5{fill:none;}.cls-4,.cls-5,.cls-7{stroke:#9d4b9c;stroke-width:0.75px;}.cls-4,.cls-7{stroke-miterlimit:10;}.cls-6{fill:#9d4b9c;}.cls-7{fill:#fcbf7f;}.cls-8{fill:#304878;}.cls-9{fill:#fff;}.cls-10{opacity:0.6;fill:url(#linear-gradient);}</style><linearGradient id="linear-gradient" x1="59.788" y1="79.618" x2="30.453" y2="104.668" gradientUnits="userSpaceOnUse"><stop offset="0" stop-color="#ffcb3d"/><stop offset="0.203" stop-color="#ffdc58"/><stop offset="0.543" stop-color="#fff581"/><stop offset="0.601" stop-color="#fff7a0"/><stop offset="0.677" stop-color="#fffac2"/><stop offset="0.754" stop-color="#fffcdd"/><stop offset="0.833" stop-color="#fffef0"/><stop offset="0.914" stop-color="#fffffb"/><stop offset="1" stop-color="#fff"/></linearGradient></defs><path class="cls-1" d="M145.312,63.734c.765,2.907.244,14.3.033,16-.224,1.76-19.229,24.5-21.754,25.708a19.973,19.973,0,0,1-5.247,1.78l-.026-.132c1.575-8.793,2.123-12.089,1.206-20.982l-1.74-.033c2.426-.112,4.885-1.114,8.774-4.252,5.709-4.614,18.457-18.015,18.457-18.015Z"/><path class="cls-2" d="M145.015,63.807s-12.748,13.4-18.457,18.015c-3.889,3.138-6.348,4.14-8.774,4.252a16.172,16.172,0,0,1-3.533-.3C110.3,85.118,47.23,62.923,47.23,62.923l-.29-.125c1.193-2.439,5.663-2.643,7.766-2.947,2.307-.329,19.775-7.363,23.948-8.793s14.285.771,14.285.771,51.417,9.229,52.294,11.648c.026.073.053.158.079.257Z"/><path class="cls-3" d="M119.524,86.107c.917,8.893.369,12.189-1.206,20.982l.026.132a12.061,12.061,0,0,1-3.652.093c-3.3-.442-54.825-19.117-58.563-20.33S49.1,84.242,47.56,81.051s-1.424-14.278-.877-17.468a2.99,2.99,0,0,1,.257-.785l.29.125S110.3,85.118,114.251,85.778a16.172,16.172,0,0,0,3.533.3Z"/><path class="cls-4" d="M145.312,63.734c-.026-.1-.053-.184-.079-.257-.877-2.419-52.294-11.648-52.294-11.648s-10.112-2.2-14.285-.771-21.641,8.464-23.948,8.793c-2.1.3-6.573.508-7.766,2.947a2.99,2.99,0,0,0-.257.785c-.547,3.19-.659,14.284.877,17.468s4.838,4.727,8.569,5.933,55.267,19.888,58.563,20.33a12.061,12.061,0,0,0,3.652-.093,19.973,19.973,0,0,0,5.247-1.78c2.525-1.206,21.53-23.948,21.754-25.708C145.556,78.032,146.077,66.641,145.312,63.734Z"/><path class="cls-5" d="M47.23,62.923S110.3,85.118,114.251,85.778a16.172,16.172,0,0,0,3.533.3c2.426-.112,4.885-1.114,8.774-4.252,5.709-4.614,18.457-18.015,18.457-18.015"/><path class="cls-4" d="M119.524,86.107c.917,8.893.369,12.189-1.206,20.982"/><polyline class="cls-5" points="118.316 57.324 103.813 65.894 121.721 70.618 134.136 60.401"/><polygon class="cls-6" points="90.091 82.703 114.8 90.589 114.603 92.232 90.091 83.952 90.091 82.703"/><path class="cls-7" d="M126.556,60.4s-7.911-.989-7.252,1.428,4.065,3.955,5.823,2.747S129.082,61.5,126.556,60.4Z"/><path class="cls-5" d="M64.262,72.486s-3.3-2.637-5.384-1.758-3.186,6.043.11,9.119,5.823,1.868,6.592-.879S64.262,72.486,64.262,72.486Z"/><path class="cls-8" d="M63.053,73.255s-1.868-2.087-3.735-.769-.769,4.395.659,6.043,2.983,1.494,3.625.109A5.152,5.152,0,0,0,63.053,73.255Z"/><path class="cls-9" d="M61.185,74.134a9.643,9.643,0,0,0-.11,2.637c.11,1.758-1.648,2.087-1.538-.44S60.2,71.387,61.185,74.134Z"/><path class="cls-10" d="M10.317,86.274l49.77-13.513a3.805,3.805,0,0,1,3.131,2.966c.824,2.8-11.042,45.979-11.042,45.979"/><polygon class="cls-6" points="89.697 85.003 114.406 92.889 114.208 94.532 89.697 86.252 89.697 85.003"/><polygon class="cls-6" points="89.5 87.238 114.208 95.123 114.011 96.766 89.5 88.486 89.5 87.238"/><polygon class="cls-6" points="89.322 90.065 114.031 97.95 113.834 99.593 89.322 91.313 89.322 90.065"/><polygon class="cls-6" points="88.928 92.364 113.637 100.25 113.439 101.893 88.928 93.613 88.928 92.364"/><polygon class="cls-6" points="88.731 94.599 113.439 102.484 113.242 104.127 88.731 95.847 88.731 94.599"/></svg>