<svg id="word" xmlns="http://www.w3.org/2000/svg" xmlns:xlink="http://www.w3.org/1999/xlink" viewBox="0 0 160 160"><defs><style>.cls-1,.cls-13{fill:none;}.cls-1,.cls-11,.cls-12,.cls-13,.cls-14,.cls-3,.cls-4,.cls-6,.cls-7,.cls-8,.cls-9{stroke:#9c4c9c;stroke-miterlimit:10;}.cls-1,.cls-12,.cls-14,.cls-3,.cls-4,.cls-6,.cls-9{stroke-width:0.176px;}.cls-2{fill:#9d4b9c;}.cls-3{fill:#94a4ad;}.cls-4{fill:#9ddaf7;}.cls-5{fill:#9c4c9c;}.cls-6,.cls-7{fill:#f7dcb8;}.cls-7{stroke-width:0.184px;}.cls-8{fill:#efdc9c;}.cls-11,.cls-8{stroke-width:0.07px;}.cls-11,.cls-9{fill:#dfba7f;}.cls-10{opacity:0.54;fill:url(#linear-gradient);}.cls-12{fill:#f17423;}.cls-13{stroke-linecap:round;stroke-width:0.246px;}.cls-14{fill:#ddebc3;}</style><linearGradient id="linear-gradient" x1="79.468" y1="143.415" x2="79.84" y2="107.261" gradientUnits="userSpaceOnUse"><stop offset="0" stop-color="#fff"/><stop offset="1" stop-color="#3497b9"/></linearGradient></defs><line class="cls-1" x1="122.113" y1="86.374" x2="122.07" y2="94.532"/><line class="cls-1" x1="120.484" y1="84.232" x2="120.375" y2="90.08"/><line class="cls-1" x1="118.687" y1="82.234" x2="118.432" y2="89.277"/><path class="cls-2" d="M44.183,98.5s1.928,16.011,4.16,19.927,5.581,7.948,12.176,9.33,16.437,3.938,17.857,4.722a4.526,4.526,0,0,1,1.928,2.189s-.305-1.728,3.754-2.995,17.654-4.953,21.713-6.8,7.3-9.79,7.711-12.67,2.435-14.513,2.435-14.513Z"/><path class="cls-3" d="M67.409,127.822l3.018.08c.011.73.2,4.276-.54,4.435s-1.073-.72-1.524-1.793a2.589,2.589,0,0,0-1.1-1.373S66.122,128.032,67.409,127.822Z"/><path class="cls-3" d="M66.154,128.665l-3.013.188c-.076-.726-.575-4.242.145-4.466s1.133.622,1.677,1.652a2.587,2.587,0,0,0,1.219,1.269S67.418,128.342,66.154,128.665Z"/><path class="cls-3" d="M66.639,127.338l.081-3.018c.729-.011,4.276-.2,4.435.541s-.72,1.073-1.794,1.524a2.585,2.585,0,0,0-1.372,1.1S66.85,128.626,66.639,127.338Z"/><path class="cls-3" d="M67.483,128.593l.045,3.252c-.726.076-4.1.336-4.323-.384s.622-1.132,1.651-1.677a2.589,2.589,0,0,0,1.27-1.218S67.159,127.33,67.483,128.593Z"/><ellipse class="cls-4" cx="67.075" cy="128.025" rx="1.202" ry="1.209"/><ellipse class="cls-5" cx="67.075" cy="128.025" rx="0.792" ry="0.797"/><path class="cls-3" d="M91.79,128.442l2.575,1.576c-.354.638-1.964,3.8-2.682,3.573s-.57-1.159-.425-2.314a2.588,2.588,0,0,0-.27-1.739S90.569,127.982,91.79,128.442Z"/><path class="cls-3" d="M90.281,128.547l-2.705-1.342c.3-.666,1.619-3.962,2.355-3.8s.671,1.1.629,2.268a2.58,2.58,0,0,0,.423,1.708S91.538,128.9,90.281,128.547Z"/><path class="cls-3" d="M91.364,127.639l1.576-2.575c.637.354,3.8,1.963,3.573,2.681s-1.159.571-2.315.426a2.587,2.587,0,0,0-1.739.269S90.9,128.859,91.364,127.639Z"/><path class="cls-3" d="M91.468,129.147l-1.583,2.841c-.667-.3-3.72-1.755-3.555-2.49s1.1-.671,2.268-.629a2.587,2.587,0,0,0,1.708-.423S91.819,127.891,91.468,129.147Z"/><ellipse class="cls-4" cx="91.399" cy="128.451" rx="1.209" ry="1.202" transform="translate(-65.525 143.556) rotate(-60.065)"/><ellipse class="cls-5" cx="91.399" cy="128.451" rx="0.797" ry="0.792" transform="translate(-65.525 143.556) rotate(-60.065)"/><rect class="cls-6" x="59.264" y="44.527" width="43.234" height="22.771"/><line class="cls-1" x1="41.21" y1="85.919" x2="41.254" y2="93.573"/><line class="cls-1" x1="42.916" y1="83.753" x2="43.025" y2="90.765"/><line class="cls-1" x1="44.974" y1="81.249" x2="45.229" y2="87.694"/><rect class="cls-7" x="46.073" y="67.387" width="71.381" height="17.985"/><polygon class="cls-8" points="115.558 33.107 114.361 31.603 90.71 31.732 90.508 33.08 115.558 33.107"/><line class="cls-1" x1="101.398" y1="33.573" x2="101.398" y2="44.088"/><rect class="cls-9" x="40.098" y="95.517" width="84.768" height="3.251"/><path class="cls-10" d="M145.407,107.127l2.71.244v1.654l.136,34.246H11.063V106.705l15.057.027a16.5,16.5,0,0,1,7.015,0,20.843,20.843,0,0,0,8.39,0c2.2-.29,4.127-.971,6.878.037s9.628.367,12.378-.067,3.714-.588,6.052.07,7.84.445,10.041,0,3.026-1.031,5.089-.535a57.8,57.8,0,0,0,11.554.728c1.926-.291,6.465-1.336,9.766-.639s7.152,1.5,9.215.98,1.376-1.386,7.428-.922,9.9,1.451,14.3.755,7.428-.929,10.591-.116"/><path class="cls-5" d="M35.075,111.22a7.626,7.626,0,0,1,5.767.648,23.337,23.337,0,0,0,5.62,1.87,22.779,22.779,0,0,0,11.716-.485c1.874-.6,3.626-1.63,5.608-1.992a34.585,34.585,0,0,1,5.934-.543,17.974,17.974,0,0,1,5.925.621,19.757,19.757,0,0,1,2.744,1.187,18.263,18.263,0,0,0,2.692,1.216,18.856,18.856,0,0,0,5.808.953,11.383,11.383,0,0,0,5.7-1.206c.861-.481,1.679-1.042,2.533-1.554a6.831,6.831,0,0,1,2.783-1.094,3.967,3.967,0,0,1,2.8.958,23.1,23.1,0,0,0,2.452,1.659,8.882,8.882,0,0,0,5.763.522,12.414,12.414,0,0,0,2.852-.758,13.13,13.13,0,0,0,2.507-1.567,2.542,2.542,0,0,1,1.464-.313,7.88,7.88,0,0,1,1.475.24c.962.255,1.9.565,2.844.883a33.11,33.11,0,0,1,5.461,2.346,33.065,33.065,0,0,0-5.48-2.288c-.942-.308-1.888-.609-2.846-.853a3.9,3.9,0,0,0-2.857.09,13.044,13.044,0,0,1-2.516,1.585,12.561,12.561,0,0,1-2.881.778,9.04,9.04,0,0,1-5.863-.518,23.31,23.31,0,0,1-2.476-1.663,3.788,3.788,0,0,0-2.685-.916,6.66,6.66,0,0,0-2.7,1.078c-.845.51-1.663,1.075-2.532,1.565a11.582,11.582,0,0,1-5.8,1.254A19.061,19.061,0,0,1,81,113.977a18.672,18.672,0,0,1-2.72-1.239,19.526,19.526,0,0,0-2.706-1.183,17.771,17.771,0,0,0-5.85-.631,34.319,34.319,0,0,0-5.9.518c-1.954.349-3.693,1.363-5.595,1.967a22.891,22.891,0,0,1-11.792.447,23.416,23.416,0,0,1-5.621-1.934A7.6,7.6,0,0,0,35.075,111.22Z"/><path class="cls-5" d="M35.075,117.428a35.425,35.425,0,0,1,10.637-5.265,21.776,21.776,0,0,1,5.9-.839,25.683,25.683,0,0,1,5.894.873,46.785,46.785,0,0,1,5.7,1.747,20.722,20.722,0,0,0,2.831.871,14.281,14.281,0,0,0,2.941.272,7.4,7.4,0,0,0,2.884-.43c.906-.356,1.616-1.092,2.544-1.527a7.058,7.058,0,0,1,2.943-.591,19.867,19.867,0,0,1,2.988.169,55.684,55.684,0,0,1,5.872,1.07,16.794,16.794,0,0,1,2.847.93c.463.2.88.494,1.308.723a5.338,5.338,0,0,0,1.372.493,43.68,43.68,0,0,0,5.894.7c1.978.137,3.961.254,5.943.2a18.616,18.616,0,0,0,5.841-.871,28.578,28.578,0,0,1,2.79-1.056,10.268,10.268,0,0,1,2.984-.112,36.169,36.169,0,0,1,5.862,1.066,36.9,36.9,0,0,1,5.641,1.9,37.028,37.028,0,0,0-5.656-1.843,36.174,36.174,0,0,0-5.856-1,10.256,10.256,0,0,0-2.945.121,29.121,29.121,0,0,0-2.771,1.061,18.761,18.761,0,0,1-5.886.9c-1.991.056-3.978-.054-5.961-.184a43.63,43.63,0,0,1-5.929-.687,5.49,5.49,0,0,1-1.422-.507c-.448-.238-.851-.517-1.3-.713A16.615,16.615,0,0,0,86.153,114a55.8,55.8,0,0,0-5.847-1.046,19.619,19.619,0,0,0-2.953-.178,6.832,6.832,0,0,0-2.852.559c-.88.4-1.6,1.145-2.559,1.522a7.579,7.579,0,0,1-2.967.436,14.356,14.356,0,0,1-2.98-.287,20.794,20.794,0,0,1-2.855-.887,46.453,46.453,0,0,0-5.676-1.762,25.546,25.546,0,0,0-5.857-.889,21.806,21.806,0,0,0-5.863.811A35.379,35.379,0,0,0,35.075,117.428Z"/><path class="cls-5" d="M36.008,118.918c3.806.359,7.627.61,11.448.632a34.62,34.62,0,0,0,5.707-.337,16.17,16.17,0,0,0,2.737-.808,15.255,15.255,0,0,1,2.815-.6,16.329,16.329,0,0,1,5.72.42c1.885.4,3.634,1.237,5.5,1.629a23.013,23.013,0,0,0,5.665.569,17.488,17.488,0,0,0,5.586-.975,12.975,12.975,0,0,0,2.506-1.333,7.012,7.012,0,0,1,2.658-1.136,12.793,12.793,0,0,1,5.684.756c1.832.577,3.6,1.311,5.429,1.847a35.8,35.8,0,0,0,5.582,1.236,21.19,21.19,0,0,0,5.7.074,10.867,10.867,0,0,0,2.745-.728c.87-.381,1.706-.859,2.6-1.2a4.739,4.739,0,0,1,2.842-.245,15.2,15.2,0,0,1,2.714.938,20.35,20.35,0,0,0,2.7.943,7.839,7.839,0,0,0,1.409.244,2.2,2.2,0,0,0,1.379-.266,2.209,2.209,0,0,1-1.38.282,7.906,7.906,0,0,1-1.416-.231,20.667,20.667,0,0,1-2.718-.915,15.019,15.019,0,0,0-2.709-.906,4.633,4.633,0,0,0-2.78.269c-.886.348-1.716.824-2.6,1.214a11.026,11.026,0,0,1-2.778.748,21.374,21.374,0,0,1-5.739-.053,36.118,36.118,0,0,1-5.613-1.221c-1.842-.533-3.619-1.264-5.437-1.828a12.6,12.6,0,0,0-5.583-.73c-1.891.285-3.263,1.853-5.116,2.477a17.757,17.757,0,0,1-5.668.97,23.2,23.2,0,0,1-5.718-.595c-1.888-.407-3.627-1.249-5.492-1.65a16.167,16.167,0,0,0-5.659-.437,15.191,15.191,0,0,0-2.788.585,16.319,16.319,0,0,1-2.757.8,34.483,34.483,0,0,1-5.733.316C43.628,119.608,39.811,119.317,36.008,118.918Z"/><path class="cls-5" d="M33.21,126.035a13.559,13.559,0,0,1,5.347-3.059,4.251,4.251,0,0,1,3.047.274c.926.472,1.8,1.034,2.679,1.574a21.717,21.717,0,0,0,5.543,2.7,9.358,9.358,0,0,0,6.041-.222,6.3,6.3,0,0,0,2.422-1.826,8.359,8.359,0,0,1,2.252-2.154,6.184,6.184,0,0,1,3.058-.606,17.749,17.749,0,0,1,3.1.369,80.934,80.934,0,0,1,11.887,3.6c.966.37,1.922.773,2.906,1.052a7.485,7.485,0,0,0,3.032.2c2.064-.2,3.784-1.485,5.588-2.474a15.08,15.08,0,0,1,5.876-1.978,21.935,21.935,0,0,1,6.2.3,20.682,20.682,0,0,1,3.017.768,22.281,22.281,0,0,1,2.849,1.25c.92.476,1.811,1,2.753,1.421a9.415,9.415,0,0,0,2.966.8,13.8,13.8,0,0,0,6.071-.886,16.253,16.253,0,0,0,5.293-3.157,16.288,16.288,0,0,1-5.274,3.2,13.9,13.9,0,0,1-6.1.942,9.254,9.254,0,0,1-3.007-.787c-.953-.418-1.848-.945-2.766-1.415a22.013,22.013,0,0,0-2.834-1.233,20.58,20.58,0,0,0-3-.751,21.719,21.719,0,0,0-6.153-.272,14.876,14.876,0,0,0-5.8,1.974c-1.784.983-3.524,2.3-5.662,2.52a7.706,7.706,0,0,1-3.118-.2c-1.01-.282-1.967-.683-2.933-1.049a81.821,81.821,0,0,0-11.839-3.628,17.565,17.565,0,0,0-3.059-.376,5.993,5.993,0,0,0-2.966.573,8.244,8.244,0,0,0-2.208,2.105,6.472,6.472,0,0,1-2.492,1.863,9.51,9.51,0,0,1-6.143.209,21.85,21.85,0,0,1-5.569-2.736c-.876-.55-1.741-1.119-2.656-1.6a4.176,4.176,0,0,0-2.992-.3A13.528,13.528,0,0,0,33.21,126.035Z"/><path class="cls-11" d="M113.876,33.512l.646,10.459-27.767-.077-.086.744,31.185-.053s.647-.064.712-.291a.652.652,0,0,0,0-.388l-1.779-.1-1.844-10.3h.615v-.405l-25.05-.027v.646Z"/><line class="cls-1" x1="87.665" y1="36.29" x2="114.056" y2="36.326"/><line class="cls-1" x1="87.378" y1="39.193" x2="114.237" y2="39.079"/><line class="cls-1" x1="87.135" y1="41.598" x2="114.361" y2="41.598"/><path class="cls-9" d="M115.861,59.144l.647,7.749-14.1-.057-.087.551,17.521-.039s.647-.048.711-.216a.36.36,0,0,0,0-.287l-1.779-.072-1.843-7.629h.614v-.3l-15.359-.021V59.3Z"/><path class="cls-12" d="M56.527,21.007l2.621,22.681.159.877H86.785l2.382-23.558ZM86.149,36.276c-.317,1.17-1.112,1.268-1.112,1.268H60.021s-1.516-12.315-1.6-14.071,3.264-1.49,3.264-1.49l24.063.292a3.763,3.763,0,0,1,1.906.78C88.135,23.64,86.467,35.106,86.149,36.276Z"/><line class="cls-1" x1="82.13" y1="42.749" x2="82.408" y2="51.68"/><line class="cls-1" x1="78.651" y1="48.705" x2="78.86" y2="58.27"/><path class="cls-5" d="M77.277,7.591c0-.28-.13-.507-.29-.507s-.29.227-.29.507.13.508.29.508S77.277,7.872,77.277,7.591Z"/><path class="cls-5" d="M77.277,1.448c0-.31-.13-.562-.29-.562s-.29.252-.29.562.13.562.29.562S77.277,1.758,77.277,1.448Z"/><path class="cls-5" d="M80.067,15.239H74.486V9.15l1.232-.689h1.269V8.1h-2.5V3.025h.58l.507-.617h1.7v-.4H72.1l-.232.4h.01v.109h1.051l.327.508h.616V8.1H71.605a.94.94,0,0,0,.126-.508c0-.34-.13-.616-.29-.616s-.29.276-.29.616a.94.94,0,0,0,.126.508h-.126v.326l1.994.036.725.689v6.089H69.194v.435H73.87v3.3h.616v-3.3h5.581Z"/><polygon class="cls-8" points="56.527 18.667 54.86 21.007 90.914 21.007 89.961 18.906 56.527 18.667"/><line class="cls-1" x1="103.59" y1="44.61" x2="103.59" y2="67.359"/><line class="cls-1" x1="107.187" y1="44.61" x2="107.187" y2="67.359"/><line class="cls-1" x1="103.489" y1="46.649" x2="107.187" y2="46.649"/><line class="cls-1" x1="103.489" y1="48.056" x2="107.187" y2="48.056"/><line class="cls-1" x1="103.489" y1="49.464" x2="107.187" y2="49.464"/><line class="cls-1" x1="103.489" y1="50.872" x2="107.187" y2="50.872"/><line class="cls-1" x1="103.489" y1="52.279" x2="107.187" y2="52.279"/><line class="cls-1" x1="103.489" y1="53.687" x2="107.187" y2="53.687"/><line class="cls-1" x1="103.489" y1="55.095" x2="107.187" y2="55.095"/><line class="cls-1" x1="103.489" y1="56.502" x2="107.187" y2="56.502"/><line class="cls-1" x1="103.489" y1="57.91" x2="107.187" y2="57.91"/><line class="cls-1" x1="103.489" y1="59.318" x2="107.187" y2="59.318"/><line class="cls-1" x1="103.489" y1="60.725" x2="107.187" y2="60.725"/><line class="cls-1" x1="103.489" y1="62.133" x2="107.187" y2="62.133"/><line class="cls-1" x1="103.489" y1="63.541" x2="107.187" y2="63.541"/><line class="cls-1" x1="103.489" y1="64.948" x2="107.187" y2="64.948"/><line class="cls-1" x1="103.489" y1="66.356" x2="107.187" y2="66.356"/><path class="cls-13" d="M90.508,33.08s-2.493-.278-3.626,1.426C86.015,35.808,72,60.3,72,60.3"/><path class="cls-13" d="M91.434,36.306s-2.493-.277-3.627,1.426c-.867,1.3-15.265,26.22-15.265,26.22"/><path class="cls-5" d="M34.049,130.519a7.622,7.622,0,0,1,5.767.648,23.364,23.364,0,0,0,5.62,1.869,22.769,22.769,0,0,0,11.716-.485c1.874-.6,3.626-1.63,5.607-1.992a34.487,34.487,0,0,1,5.935-.542,17.977,17.977,0,0,1,5.925.62,19.749,19.749,0,0,1,2.743,1.188,18.473,18.473,0,0,0,2.692,1.216,18.861,18.861,0,0,0,5.809.952,11.358,11.358,0,0,0,5.7-1.206c.861-.481,1.679-1.042,2.533-1.554a6.814,6.814,0,0,1,2.784-1.093,3.959,3.959,0,0,1,2.8.957,23.1,23.1,0,0,0,2.452,1.66,8.883,8.883,0,0,0,5.763.522,12.414,12.414,0,0,0,2.852-.758,13.192,13.192,0,0,0,2.508-1.568,2.53,2.53,0,0,1,1.463-.312,7.8,7.8,0,0,1,1.476.239c.962.255,1.9.565,2.844.884a33.015,33.015,0,0,1,5.46,2.346,33.034,33.034,0,0,0-5.48-2.289c-.941-.308-1.888-.609-2.846-.852a3.9,3.9,0,0,0-2.857.09,13.044,13.044,0,0,1-2.516,1.585,12.537,12.537,0,0,1-2.88.777,9.033,9.033,0,0,1-5.863-.518,23.214,23.214,0,0,1-2.477-1.662,3.778,3.778,0,0,0-2.684-.916,6.647,6.647,0,0,0-2.7,1.077c-.846.51-1.664,1.075-2.533,1.565a11.58,11.58,0,0,1-5.8,1.254,19,19,0,0,1-5.887-.946,18.655,18.655,0,0,1-2.719-1.238,19.425,19.425,0,0,0-2.707-1.184,17.8,17.8,0,0,0-5.85-.63,34.418,34.418,0,0,0-5.9.517c-1.953.349-3.692,1.363-5.594,1.967a22.87,22.87,0,0,1-11.792.447,23.384,23.384,0,0,1-5.621-1.933A7.593,7.593,0,0,0,34.049,130.519Z"/><path class="cls-5" d="M35.175,123.993a35.448,35.448,0,0,1,10.637-5.265,21.776,21.776,0,0,1,5.9-.839,25.7,25.7,0,0,1,5.9.874,46.6,46.6,0,0,1,5.7,1.747,20.549,20.549,0,0,0,2.832.87,14.2,14.2,0,0,0,2.94.272,7.378,7.378,0,0,0,2.884-.43c.906-.355,1.617-1.092,2.544-1.527a7.041,7.041,0,0,1,2.943-.59,19.866,19.866,0,0,1,2.988.168,55.9,55.9,0,0,1,5.872,1.071,16.8,16.8,0,0,1,2.848.93c.462.2.88.493,1.307.722a5.341,5.341,0,0,0,1.372.494,43.7,43.7,0,0,0,5.894.7c1.978.137,3.961.253,5.943.2a18.622,18.622,0,0,0,5.842-.871,28.72,28.72,0,0,1,2.789-1.056,10.3,10.3,0,0,1,2.984-.112,36.29,36.29,0,0,1,5.863,1.066,37.077,37.077,0,0,1,5.641,1.9,37.1,37.1,0,0,0-5.656-1.842,36.207,36.207,0,0,0-5.857-1,10.256,10.256,0,0,0-2.945.122,28.956,28.956,0,0,0-2.771,1.061,18.755,18.755,0,0,1-5.886.9c-1.99.056-3.978-.054-5.961-.184a43.773,43.773,0,0,1-5.928-.686,5.571,5.571,0,0,1-1.423-.507c-.448-.239-.851-.517-1.3-.713a16.539,16.539,0,0,0-2.81-.906,56.325,56.325,0,0,0-5.847-1.046,19.744,19.744,0,0,0-2.952-.177,6.833,6.833,0,0,0-2.853.558c-.88.4-1.6,1.145-2.559,1.523a7.578,7.578,0,0,1-2.967.435,14.43,14.43,0,0,1-2.98-.286,20.88,20.88,0,0,1-2.854-.888,46.463,46.463,0,0,0-5.677-1.761,25.493,25.493,0,0,0-5.857-.89,21.8,21.8,0,0,0-5.862.811A35.373,35.373,0,0,0,35.175,123.993Z"/><path class="cls-5" d="M35.832,128.362c3.806.359,7.626.61,11.448.633a34.73,34.73,0,0,0,5.707-.337,16.132,16.132,0,0,0,2.736-.808,15.29,15.29,0,0,1,2.815-.6,16.285,16.285,0,0,1,5.721.42c1.885.4,3.634,1.237,5.5,1.629a23.025,23.025,0,0,0,5.666.569,17.543,17.543,0,0,0,5.586-.975,12.975,12.975,0,0,0,2.506-1.333,7.032,7.032,0,0,1,2.657-1.137,12.8,12.8,0,0,1,5.685.757c1.832.576,3.6,1.311,5.429,1.847a35.8,35.8,0,0,0,5.582,1.236,21.273,21.273,0,0,0,5.7.074,10.867,10.867,0,0,0,2.745-.728c.87-.381,1.706-.859,2.605-1.2a4.731,4.731,0,0,1,2.842-.245,15.083,15.083,0,0,1,2.713.938,20.409,20.409,0,0,0,2.7.942,7.811,7.811,0,0,0,1.409.245,2.2,2.2,0,0,0,1.379-.266,2.215,2.215,0,0,1-1.38.281,7.8,7.8,0,0,1-1.416-.23,20.539,20.539,0,0,1-2.719-.916,15.058,15.058,0,0,0-2.708-.905,4.625,4.625,0,0,0-2.78.269c-.886.348-1.716.823-2.6,1.213a10.987,10.987,0,0,1-2.778.749,21.415,21.415,0,0,1-5.739-.053A35.981,35.981,0,0,1,97.23,129.2c-1.842-.532-3.619-1.263-5.437-1.827a12.619,12.619,0,0,0-5.583-.731c-1.891.286-3.263,1.854-5.116,2.477a17.732,17.732,0,0,1-5.669.971,23.249,23.249,0,0,1-5.717-.6c-1.888-.406-3.628-1.248-5.492-1.649a16.12,16.12,0,0,0-5.659-.437,15.191,15.191,0,0,0-2.788.585,16.412,16.412,0,0,1-2.757.8,34.375,34.375,0,0,1-5.733.315C43.452,129.053,39.635,128.761,35.832,128.362Z"/><polygon class="cls-14" points="46.073 84.471 40.098 95.517 125.114 95.667 117.396 84.471 46.073 84.471"/><polygon class="cls-11" points="38.501 94.647 38.501 88.856 46.073 79.255 45.892 80.372 39.478 88.857 39.312 94.597 38.501 94.647"/><polygon class="cls-5" points="87.083 44.639 87.56 43.806 87.083 43.806 87.083 43.805 85.675 43.805 85.675 44.737 85.649 44.783 84.76 44.783 84.76 46.187 84.131 46.187 84.131 47.411 84.025 47.595 83.293 47.595 83.293 48.862 83.213 49.003 82.378 49.003 82.378 50.41 81.633 50.41 81.633 51.738 81.587 51.818 80.795 51.818 80.795 53.19 80.774 53.226 79.879 53.226 79.879 54.633 79.176 54.633 79.176 55.994 79.149 56.041 78.338 56.041 78.338 57.446 78.336 57.449 77.422 57.449 77.422 58.852 76.794 58.852 76.794 60.12 76.713 60.26 75.956 60.26 75.956 61.571 75.9 61.668 75.04 61.668 75.04 63.075 74.295 63.075 74.295 64.447 74.274 64.483 73.457 64.483 73.457 65.822 73.415 65.891 72.542 65.891 72.542 67.298 73.949 67.298 74.089 67.298 77.318 61.668 78.125 60.26 79.737 57.449 79.745 57.449 79.745 57.435 80.544 56.041 80.583 55.973 82.159 53.226 82.966 51.818 83.786 50.389 84.581 49.003 84.701 48.792 85.388 47.595 85.539 47.331 87 44.783 87.083 44.639"/><line class="cls-1" x1="73.732" y1="57.284" x2="73.941" y2="66.214"/><line class="cls-1" x1="59.126" y1="61.136" x2="45.406" y2="61.163"/><line class="cls-1" x1="58.976" y1="63.215" x2="45.225" y2="63.215"/><line class="cls-1" x1="59.126" y1="65.093" x2="45.102" y2="65.093"/><path class="cls-9" d="M45.587,59.066l-.647,7.8,57.333-.057.087.554L41.608,67.32s-.647-.049-.711-.217a.367.367,0,0,1,0-.29l1.779-.072,1.843-7.675h-.614v-.3l59.584-.021v.482Z"/><polygon class="cls-5" points="80.128 134.664 80.304 107.934 80.48 134.664 80.128 134.664"/><line class="cls-1" x1="40.574" y1="89.516" x2="40.574" y2="95.013"/><line class="cls-1" x1="44.093" y1="89.516" x2="44.093" y2="95.013"/><line class="cls-1" x1="47.613" y1="89.516" x2="47.613" y2="95.013"/><line class="cls-1" x1="51.132" y1="89.516" x2="51.132" y2="95.013"/><line class="cls-1" x1="54.651" y1="89.516" x2="54.651" y2="95.013"/><line class="cls-1" x1="58.17" y1="89.516" x2="58.17" y2="95.013"/><line class="cls-1" x1="61.689" y1="89.516" x2="61.689" y2="95.013"/><line class="cls-1" x1="65.208" y1="89.516" x2="65.208" y2="95.013"/><line class="cls-1" x1="68.728" y1="89.516" x2="68.728" y2="95.013"/><line class="cls-1" x1="72.247" y1="89.516" x2="72.247" y2="95.013"/><line class="cls-1" x1="75.766" y1="89.516" x2="75.766" y2="95.013"/><line class="cls-1" x1="79.285" y1="89.516" x2="79.285" y2="95.013"/><line class="cls-1" x1="82.804" y1="89.516" x2="82.804" y2="95.013"/><line class="cls-1" x1="86.323" y1="89.516" x2="86.323" y2="95.013"/><line class="cls-1" x1="89.843" y1="89.516" x2="89.843" y2="95.013"/><line class="cls-1" x1="93.362" y1="89.516" x2="93.362" y2="95.013"/><line class="cls-1" x1="96.881" y1="89.516" x2="96.881" y2="95.013"/><line class="cls-1" x1="100.4" y1="89.516" x2="100.4" y2="95.013"/><line class="cls-1" x1="103.919" y1="89.516" x2="103.919" y2="95.013"/><line class="cls-1" x1="107.438" y1="89.516" x2="107.438" y2="95.013"/><line class="cls-1" x1="110.958" y1="89.516" x2="110.958" y2="95.013"/><line class="cls-1" x1="114.477" y1="89.516" x2="114.477" y2="95.013"/><line class="cls-1" x1="117.996" y1="89.516" x2="117.996" y2="95.013"/><line class="cls-1" x1="121.515" y1="89.516" x2="121.515" y2="95.013"/><rect class="cls-11" x="38.527" y="88.819" width="86.339" height="0.798"/><polygon class="cls-11" points="124.855 95.714 38.433 95.52 38.433 94.505 124.866 94.505 124.855 95.714"/><path class="cls-5" d="M33.311,137.083a13.545,13.545,0,0,1,5.346-3.06,4.251,4.251,0,0,1,3.047.275c.926.471,1.8,1.033,2.679,1.574a21.773,21.773,0,0,0,5.544,2.7,9.355,9.355,0,0,0,6.04-.223,6.291,6.291,0,0,0,2.422-1.826,8.359,8.359,0,0,1,2.253-2.153,6.157,6.157,0,0,1,3.058-.606,17.749,17.749,0,0,1,3.095.369,80.825,80.825,0,0,1,11.888,3.6c.966.37,1.921.772,2.9,1.051a7.488,7.488,0,0,0,3.032.2c2.064-.2,3.784-1.485,5.588-2.475a15.067,15.067,0,0,1,5.876-1.977,21.87,21.87,0,0,1,6.2.295,20.7,20.7,0,0,1,3.016.767,22.147,22.147,0,0,1,2.849,1.251c.921.476,1.812,1,2.754,1.421a9.373,9.373,0,0,0,2.965.8,13.771,13.771,0,0,0,6.072-.886,16.256,16.256,0,0,0,5.293-3.157,16.285,16.285,0,0,1-5.275,3.206,13.915,13.915,0,0,1-6.1.942,9.256,9.256,0,0,1-3.007-.788c-.953-.418-1.847-.944-2.766-1.415a22.086,22.086,0,0,0-2.834-1.232,20.583,20.583,0,0,0-3-.752,21.756,21.756,0,0,0-6.153-.272,14.883,14.883,0,0,0-5.8,1.975c-1.783.982-3.524,2.305-5.662,2.519a7.706,7.706,0,0,1-3.118-.194c-1.009-.282-1.966-.683-2.933-1.049a81.787,81.787,0,0,0-11.839-3.629,17.564,17.564,0,0,0-3.059-.375,5.982,5.982,0,0,0-2.966.573,8.222,8.222,0,0,0-2.207,2.1,6.48,6.48,0,0,1-2.492,1.864,9.513,9.513,0,0,1-6.144.208,21.867,21.867,0,0,1-5.569-2.736c-.876-.549-1.741-1.119-2.656-1.6a4.168,4.168,0,0,0-2.991-.3A13.529,13.529,0,0,0,33.311,137.083Z"/><polygon class="cls-11" points="124.855 95.602 124.866 88.819 117.521 79.811 117.454 80.928 123.94 88.819 124.098 94.532 124.855 95.602"/><polygon class="cls-5" points="122.113 87.201 122.113 85.443 124.866 88.819 123.35 88.819 122.113 87.201"/></svg>