<svg id="word" xmlns="http://www.w3.org/2000/svg" viewBox="0 0 160 160"><defs><style>.cls-1{fill:#d4c75d;stroke:#9c4c9c;stroke-miterlimit:10;}.cls-1,.cls-4,.cls-5,.cls-6,.cls-7{stroke-width:0.75px;}.cls-2{fill:#e1e7ac;}.cls-3{fill:#c0b555;}.cls-4{fill:#9a9266;}.cls-4,.cls-5,.cls-6,.cls-7{stroke:#9d4b9c;}.cls-5{fill:#958e64;}.cls-6{fill:#d2c55c;}.cls-7{fill:#73503b;}.cls-8{fill:#58441f;}.cls-9{fill:#231f20;}</style></defs><path class="cls-1" d="M144.764,94.989s-1.515-2.679-10.141-2.049c-3.476.252-8.024,3.7-8.173,6.7s1.287,4.726,4.844,5.595,12.107,1.338,14.905-2.6S146.578,96.014,144.764,94.989Z"/><path class="cls-2" d="M135.153,96.172s-3.178-.239-3.557-.395-3.331.472-2.045,1.97,6.963,1.734,8.478,1.025S138.557,96.014,135.153,96.172Z"/><path class="cls-3" d="M129.931,101.53s1.363,2.523,7.944,1.97,8.25-4.254,8.324-3.074-3.555,6.306-11.122,4.573S127.358,100.505,129.931,101.53Z"/><path class="cls-4" d="M68.219,90.222s15.664,1.183,20.774,4.492,9.08,4.611,14.869,5.911,12.712-1.065,18.16,6.265,6.358,7.683,7.153,12.412,1.361,8.985,1.135,10.168-3.178-.237-8.967-4.137-11.694-1.892-15.323-3.075-12.486-4.493-16.346-8.276S81.161,103.7,79.116,101.216,69.695,90.577,68.219,90.222Z"/><path class="cls-5" d="M30.762,68.943c1.816,1.3,8.172,2.837,12.147,2.246s13.732-2.6,18.16-1.418,4.88,2.483,9.877,1.537,12.485-2.482,18.16.235,9.08,5.44,13.393,3.428,12.032-1.891,16.458-.117,19.526.946,20.661.355,4.2-1.183,3.291.236-3.747,8.629-8.4,11.586-7.945,6.383-16.684,6.028-11.353-1.182-18.616-1.774-15.892.946-22.475-1.417-9.421-1.891-13.168-2.837-14.528-4.494-18.954-7.8S32.238,72.843,31.669,71.9a13.581,13.581,0,0,1-.907-3.546Z"/><path class="cls-6" d="M110.331,91.285s-6.81-2.39-6.81-6.5c0-4.609,6.7-8.155,13.4-6.737s12.03,5.556,9.192,9.339S117.142,93.1,110.331,91.285Z"/><path class="cls-6" d="M72.191,83.248s-3.329-7.331,5.792-8.277c5.848-.6,13.28,1.3,15.208,3.9s2.158,6.737-2.95,7.92S77.527,90.1,72.191,83.248Z"/><path class="cls-7" d="M31.669,69.534s7.152,6.62,11.578,8.275,12.148,6.265,17.14,7.685,7.719,1.183,16.12,10.52S86.835,111.5,91.148,114.693a54.956,54.956,0,0,0,9.536,5.437l5.9,2.009s-9.536-.946-14.3-4.609-7.944-8.277-10.1-10.048-13.393-4.848-16.684-6.266-8.175-4.257-11.353-5.557-9.646-2.482-12.6-5.437-9.762-11.7-10.9-15.013a39.823,39.823,0,0,1-1.589-6.975Z"/><path class="cls-2" d="M114.041,80.176s-3.178-.239-3.557-.4-3.331.474-2.045,1.973,6.961,1.733,8.478,1.024S117.445,80.018,114.041,80.176Z"/><path class="cls-2" d="M82.409,77.809s-3.178-.237-3.557-.395-3.329.474-2.043,1.97,6.961,1.736,8.476,1.027S85.815,77.653,82.409,77.809Z"/><path class="cls-3" d="M108.516,86.48s1.363,2.523,7.945,1.971,8.249-4.257,8.324-3.075-3.555,6.307-11.123,4.573S105.943,85.456,108.516,86.48Z"/><path class="cls-3" d="M76.581,83.013s1.361,2.524,7.947,1.971,8.248-4.257,8.324-3.074S89.3,88.216,81.727,86.482,74.008,81.986,76.581,83.013Z"/><path class="cls-8" d="M29.816,72.8s-1.476-.709.341-2.364,3.972-.945,3.177-1.774-2.611-1.537-3.177-2.6-2.612-5.911-4.316-5.319,0,3.311,1.251,4.845.568,3.194,1.02,4.257S28.455,72.685,29.816,72.8Z"/><path class="cls-1" d="M114.188,115.086s-13.621-.158-10.595-6.62,11.353-8.669,16.651-6.778,6.658,5.044,4.538,7.723S124.026,113.587,114.188,115.086Z"/><path class="cls-2" d="M119.183,105.785a11.159,11.159,0,0,0-3.406-.393,19.307,19.307,0,0,1-4.011-.316c-.907-.077-6.2-1.339-4.311.79s6.128,2.916,8.929,2.363S120.7,106.259,119.183,105.785Z"/><path class="cls-3" d="M107.681,110.043s.681,1.183,7.263.63,8.931-2.916,9.006-1.733-2.856,5.624-10.595,5.2C104.652,113.666,105.108,109.019,107.681,110.043Z"/><path class="cls-9" d="M119.183,112.17s-8.324-1.262-7.491,0S119.562,113.115,119.183,112.17Z"/></svg>