<svg id="word" xmlns="http://www.w3.org/2000/svg" viewBox="0 0 160 160"><defs><style>.cls-1{fill:#3f3f41;}.cls-1,.cls-10,.cls-11,.cls-12,.cls-13,.cls-14,.cls-15,.cls-17,.cls-2,.cls-3,.cls-4,.cls-5,.cls-6,.cls-7,.cls-8,.cls-9{stroke:#9a4d9c;stroke-miterlimit:10;stroke-width:0.331px;}.cls-2{fill:#96989b;}.cls-3{fill:#ee3c30;}.cls-4{fill:#69686d;}.cls-5{fill:#4a4a4c;}.cls-6{fill:#f8e0d4;}.cls-7{fill:#525354;}.cls-8{fill:#fff;}.cls-11,.cls-9{fill:none;}.cls-10{fill:#86888a;}.cls-11{stroke-linecap:round;}.cls-12{fill:#5d4a42;}.cls-13{fill:#ed7427;}.cls-14{fill:#686c39;}.cls-15{fill:#3b3a3c;}.cls-16{fill:#9a4d9c;}.cls-17{fill:#4b5128;}</style></defs><path class="cls-1" d="M102.781,105.712V91.732s-1.174-4.194-6.487-4.138a8.571,8.571,0,0,0-7.437,4.138l-.335,14.762v36.575a16.893,16.893,0,0,0,7.129,1.56,13.936,13.936,0,0,0,7.13-2.737v-36.18Z"/><path class="cls-2" d="M102.11,130.874H94.281v1.511h7.829S103.732,131.32,102.11,130.874Z"/><path class="cls-3" d="M93.107,129.254c.794.318,1.23,2.237.895,3.467s-2.684,1.174-2.684,1.174l-.839-4.138S92.268,128.918,93.107,129.254Z"/><path class="cls-4" d="M91.653,130.484s.615,3.058,0,3.4-1.461-.751-1.573-1.5-.44-2.348.4-2.628S91.653,130.484,91.653,130.484Z"/><path class="cls-3" d="M102.831,129.478s2.075-.1,2.355.23a2.853,2.853,0,0,1,0,3.013c-.839,1.006-3.076.839-3.076.839v-1.734a5.519,5.519,0,0,0-.335-1.4Z"/><path class="cls-2" d="M91.318,131.127l-1.909.168s-.4.881,0,1.09a3.974,3.974,0,0,0,1.6,0S91.7,131.63,91.318,131.127Z"/><path class="cls-2" d="M103.581,100.158H95.752v1.511h7.829S105.2,100.6,103.581,100.158Z"/><path class="cls-3" d="M94.578,98.537c.794.318,1.23,2.237.894,3.467s-2.684,1.175-2.684,1.175l-.839-4.138S93.739,98.2,94.578,98.537Z"/><path class="cls-4" d="M93.124,99.768s.615,3.058,0,3.4-1.462-.751-1.573-1.5-.44-2.349.4-2.628S93.124,99.768,93.124,99.768Z"/><path class="cls-3" d="M104.3,98.761s2.075-.1,2.354.23a2.849,2.849,0,0,1,0,3.013c-.838,1.007-3.075.839-3.075.839v-1.734a5.494,5.494,0,0,0-.336-1.4Z"/><path class="cls-2" d="M92.788,100.411l-1.908.167s-.4.881,0,1.091a3.993,3.993,0,0,0,1.6,0S93.166,100.914,92.788,100.411Z"/><path class="cls-3" d="M80.022,11.116s5.759,4.509,4.921,7.025a3.642,3.642,0,0,1-3.132,2.8c-1.454.066-3.523-4.026-3.523-4.026l.769-6.543Z"/><path class="cls-5" d="M78.009,30.667s6.095-.223,8.388.448,5.088,3.243,5.144,5.815a54.277,54.277,0,0,0,1.2,7.639s.692,16.407-.48,18.252-5.044,3.534-5.764,3.7-1.95.442-2.621-2.633-2.46-18.678-3.187-23.151S76.219,31.9,76.219,31.9,77.054,30.691,78.009,30.667Z"/><path class="cls-6" d="M60.226,60.421,60,62.262l3.02,7.1,1.4,3.858-1.4,5.257s-.615-4.809-2.516-6.375-4.138-9.283-4.306-9.786-.5-3.579-.5-3.579Z"/><path class="cls-7" d="M85.726,72.216s.833,11.966.948,13.364.338,16.105.729,19.572a67.275,67.275,0,0,1,0,9.227,8.49,8.49,0,0,0,.174.895H78.288L77.114,109.4,74.262,88.936l1.174,22.983-.112,2.963-8.667.392a19.551,19.551,0,0,0-.336-5.2c-.559-2.181-2.4-19.627-2.628-22.312s-1.118-8.891-1.118-8.891L64.7,71.656Z"/><path class="cls-6" d="M74.262,117.119s-.336,9.395-.28,11.408-.068,7.549-.006,9.115a13.2,13.2,0,0,0,.566,3.187,1.7,1.7,0,0,1,0,1.9c-.671.838-3.3,2.572-4.754,1.621s-2.516-3.019-2.236-3.019a4.471,4.471,0,0,0,2.236-2.741c.392-1.565-1.565-21.081-1.565-21.081Z"/><path class="cls-6" d="M78.9,117.678s1.119,11.632,1.9,14.372a51.836,51.836,0,0,1,1.565,9.562,33.2,33.2,0,0,1-.391,4.138s5.716.448,5.6,0-1.236-1.9-1.236-3.467v-24.6Z"/><path class="cls-3" d="M94.058,153.3c-.783.5-2.74,1.734-2.74,1.734a5.46,5.46,0,0,1-2.069-.28c-1.51-.391-3.468-2.4-4.81-3.523s-1.454-1.957-2.013-2.236c-.231-.116-.671-.317-1.109-.514-.087-.7-.177-1.539-.177-2a7.571,7.571,0,0,1,.671-2.348,2.7,2.7,0,0,0,.671.95c.372.256,1.5.8,1.5.8s1.573-.744,2.467-1.25,1.454.674,2.07,1.065,1.677,1.622,3.187,2.629,3.02,2.628,4.362,3.578a1.443,1.443,0,0,1,.651,1.079A6.113,6.113,0,0,0,94.058,153.3Z"/><path class="cls-8" d="M82.426,148.994c.559.279.671,1.118,2.013,2.236s3.3,3.132,4.81,3.523a5.46,5.46,0,0,0,2.069.28s1.957-1.23,2.74-1.734a6.113,6.113,0,0,1,2.664-.319,3.458,3.458,0,0,1-1.043,2.332c-.727.783-3.075.951-4.417,1.063s-4.083-1.51-5.2-2.237a51.355,51.355,0,0,1-4.585-4.473s-.078-.533-.159-1.185C81.755,148.677,82.2,148.878,82.426,148.994Z"/><path class="cls-3" d="M67.507,147.148a47.143,47.143,0,0,1-5.38,2.572,17.219,17.219,0,0,1-1.733,0,4.77,4.77,0,0,0-1.566-2.236c-.38-.255-.737-.517-1.045-.753,1.737-1.234,4.353-2,4.568-2.6.28-.783,5.2-2.8,5.2-2.8a3.772,3.772,0,0,1,1.509.894,12.328,12.328,0,0,1,1.007,1.286s2.46.336,3.467-.559a4.847,4.847,0,0,0,1.318-2.293,4.252,4.252,0,0,1,.807,1.566A19.341,19.341,0,0,1,75.7,145.8c-.942.167-3.229.564-3.671.564A18.35,18.35,0,0,0,67.507,147.148Z"/><path class="cls-8" d="M56.535,147.987a4.29,4.29,0,0,1,1.248-1.256c.308.236.665.5,1.045.753a4.77,4.77,0,0,1,1.566,2.236,17.219,17.219,0,0,0,1.733,0,47.143,47.143,0,0,0,5.38-2.572,18.35,18.35,0,0,1,4.518-.783c.442,0,2.729-.4,3.671-.564-.019.372-.036.62-.036.62a8.448,8.448,0,0,1-3.355,1.063c-1.342-.056-3.579.112-4.474.783s-4.7,2.684-6.822,2.516S55.361,150,56.535,147.987Z"/><path class="cls-9" d="M64.7,142.4a1.993,1.993,0,0,1,1.512.662,4.337,4.337,0,0,1,.852,1.461"/><path class="cls-9" d="M63.91,143.069a3.135,3.135,0,0,1,.927.606,6.31,6.31,0,0,1,1.057,1.48"/><path class="cls-9" d="M62.706,143.918q.459.25.907.521c.466.279.975.657,1,1.2"/><path class="cls-10" d="M88.935,114.379s.8,3.467,0,3.691-1.364-.112-1.979,0-4.082.391-5.816.391H76.778v-4.082H88.935Z"/><path class="cls-10" d="M75.759,114.1v4.138a33.223,33.223,0,0,0-3.454,0c-1.175.111-5.76.783-6.04.671s.224-.56.224-1.231-.47-1.062-.459-1.733-.173-1.342-.136-1.566a7.481,7.481,0,0,1,.483-1.062,6.189,6.189,0,0,0,2.629.615C70.963,114.1,75.759,114.1,75.759,114.1Z"/><path class="cls-6" d="M77.17,25.131s.223,3.957.223,5.166-.391,2.16.336,2.439a5.354,5.354,0,0,1,1.328.783A72.574,72.574,0,0,1,72.917,39c-2.01,1.4-4.638.168-5.309-.615s-1.175-4.026-1.175-4.026,1.7-.559,1.915-1.174a34.91,34.91,0,0,0,.21-4.362Z"/><path class="cls-6" d="M63.469,13.706s-.111,4.085,0,5.127.224,5.741,1.678,8.2,4.921,3.689,6.71,3.13,5.033-2.651,5.928-5.24,2.349-9.346,0-12.063-9.73-1.633-11.967-1.448A2.474,2.474,0,0,0,63.469,13.706Z"/><path class="cls-11" d="M68.055,19.6a5.6,5.6,0,0,1-.5,2.293c-.5.895-.616,1.622,0,1.677s2.013,0,2.013,0"/><path class="cls-12" d="M80.022,15.625V17.75s-1.524.535-1.342,1.51a2.3,2.3,0,0,1-.336,1.677l-.559-.266s-.112-1.467-.224-2.39a4.959,4.959,0,0,0-1.4-3.271c-1.006-.783-1.895-1.469-1.895-1.469L70.124,13l-6.7-.454a5.678,5.678,0,0,1,2.9-2.854c1.9-.607,7.438-.159,8.388.344s5.165,2.058,5.165,2.058Z"/><path class="cls-6" d="M79.057,18.324a2.514,2.514,0,0,1,1.971,0c1.175.432-.5,2.073-.671,2.679s-.447,1.835-.95,2.115a1.583,1.583,0,0,1-1.119.084"/><path class="cls-13" d="M88.913,38.33s-6.654-4.2-8-4.419a13.876,13.876,0,0,1-3.187-1.175s-3.691,4.7-5.368,5.369-2.293,1.342-3.132-.392a13.2,13.2,0,0,1-.881-4.529s-3.588,1.79-4.928,2.292c-4.48,1.678-4.879,6.463-4.879,6.463s5.165,8.8,4.879,11.991.553,11.352.553,12.19-1.119,6.319-1.119,6.319a65.059,65.059,0,0,0,9.171,1.51c4.418.336,15.043-1.062,15.043-1.062s-.727-8-1.119-12.918.837-10.792.725-13.253S88.913,38.33,88.913,38.33Z"/><path class="cls-14" d="M90.283,39.9s1.075,1.416,1.982,2.564c1.55,1.961,1.793,6.6,3.135,8.109s3.411,3.075.615,4.306-.895-.224-1.957,1.677a15.956,15.956,0,0,1-3.132,3.859c-.224.111-.447-1.734-1.845-4.642s-3.115-7.325-3.115-7.325l2.947-10.12Z"/><path class="cls-15" d="M84.5,34.526s-.167,5.648-.279,7.94.95,6.6,0,7.1-2.8.62-2.908-1.423,0-14.145,0-14.145Z"/><path class="cls-15" d="M84.614,48.619l3.852,9.058,2.348,3.3.651,2.763L88.04,65.673S86.732,64.666,85,60.193a89.976,89.976,0,0,1-3.116-10.676Z"/><path class="cls-14" d="M58.541,41.628S56.759,46.66,55.7,49.177s-1.79,7.94-2.014,8.723,1.4,1.454,1.4,1.454a10.424,10.424,0,0,1,2.741.783c2.125.783,3.578,2.069,3.634,1.23a18.332,18.332,0,0,0,0-4.221c-.223-2.937,1.9-2.769,1.964-3.216C64.251,47.948,58.541,41.628,58.541,41.628Z"/><path class="cls-6" d="M90.7,57.677s1.337,4.92,1.563,6.263.9,11.407,1.513,13.308,1.286,5.033.895,5.648a16.833,16.833,0,0,0-1.342,3.188c-.112.559-.429,1.971-.429,1.971l.82-.35.727-1.509a20.16,20.16,0,0,1-.112,3.075,5.7,5.7,0,0,0,.112,3.188c.447.671.853-2.852.853-2.852s-.238,3.97.154,3.97.727-2.293.727-2.293.111,2.293.671,1.622.293-3.551.293-3.551.434,2.489.881,1.706a7.04,7.04,0,0,0,.279-2.908c0-.336-.447-2.349-.615-3.355a31.468,31.468,0,0,1-.111-3.665s.5-15.572.391-16.858-2.8-9.9-2.8-9.9Z"/><path class="cls-9" d="M90.873,147.577a4.218,4.218,0,0,0-1.987.546l-1,.462c-.32.148-.68.346-.739.693"/><path class="cls-9" d="M89.409,146.4a8.141,8.141,0,0,1-1.745.617,4.951,4.951,0,0,0-1.044.3,1.187,1.187,0,0,0-.69.789"/><path class="cls-9" d="M88.192,145.431a2.448,2.448,0,0,0-1.116.139,9.768,9.768,0,0,0-1.145.488,1.517,1.517,0,0,0-.458.29,1.543,1.543,0,0,0-.32.7"/><path class="cls-3" d="M63.092,13.706s6.64.018,8.146,0,8.784.493,8.784.493a30.56,30.56,0,0,0-.157-5.83c-1.087-3.984-6.26-4.318-9.392-4.679s-4.491.678-6.444,3.086C61.666,9.689,63.092,13.706,63.092,13.706Zm1.831-1.487A4.293,4.293,0,0,1,68.39,9.756a3.412,3.412,0,0,1,3.8,1.956,10.271,10.271,0,0,1-2.572.828C69.061,12.475,64.923,12.219,64.923,12.219Z"/><path class="cls-8" d="M71.721,18.132s.248-.718,1.479-.382,1.342,2.628,0,3.187S71.528,18.961,71.721,18.132Z"/><ellipse class="cls-16" cx="72.425" cy="19.097" rx="0.755" ry="0.965"/><path class="cls-11" d="M72.555,24.242A3.419,3.419,0,0,1,67.7,24.9"/><path class="cls-11" d="M73.9,16.2a7.872,7.872,0,0,1-.742-.441,1.652,1.652,0,0,0-1.8.21"/><path class="cls-8" d="M64.485,17.89s.248-.718,1.478-.382,1.342,2.628,0,3.187S64.292,18.719,64.485,17.89Z"/><ellipse class="cls-16" cx="65.189" cy="18.854" rx="0.755" ry="0.965"/><path class="cls-11" d="M67.158,15.964a2.5,2.5,0,0,0-2.811-.008"/><path class="cls-11" d="M69.191,13.78a4.243,4.243,0,0,1-.6,2.057"/><path class="cls-11" d="M68.58,13.79a2.366,2.366,0,0,1-.9,1.266"/><path class="cls-11" d="M67.858,13.806a2.793,2.793,0,0,1-2.082.777"/><path class="cls-17" d="M62.169,59.075s.042,2.809,0,3.019a4.64,4.64,0,0,1-.293.713,4.109,4.109,0,0,0-2.055-1.166,48.127,48.127,0,0,0-4.656-1.56A4.151,4.151,0,0,1,52.9,59.075l.587-2.894s-.336.419,1.845.755A48.954,48.954,0,0,1,62.169,59.075Z"/><path class="cls-17" d="M97.357,51.106s-2.558,1.426-3.23,2.516-4.319,3.146-4.319,3.146l1.357,3.452s3.446-2.981,4.011-3.494,3.389-2.349,3.389-2.349S98.238,51.9,97.357,51.106Z"/></svg>