<svg id="word" xmlns="http://www.w3.org/2000/svg" viewBox="0 0 160 160"><defs><style>.cls-1{fill:#4e4d50;}.cls-1,.cls-10,.cls-11,.cls-12,.cls-2,.cls-3,.cls-4,.cls-5,.cls-6,.cls-7,.cls-9{stroke:#9a4d9c;stroke-width:0.368px;}.cls-1,.cls-10,.cls-11,.cls-12,.cls-2,.cls-3,.cls-4,.cls-6,.cls-7,.cls-9{stroke-linecap:round;}.cls-2{fill:#353435;}.cls-3{fill:none;}.cls-4{fill:#895d3b;}.cls-5{fill:#f8e0d4;stroke-miterlimit:10;}.cls-6{fill:#60382e;}.cls-7{fill:#fff;}.cls-8{fill:#9a4d9c;}.cls-9{fill:#c0b399;}.cls-10{fill:#5b809f;}.cls-11{fill:#618cad;}.cls-12{fill:#80b7e3;}</style></defs><path class="cls-1" d="M83.588,150.275c2.158.067,6.878-1.281,7.957-2.225.842-.737,2.939-2.2,3.827-2.813-.03-.39-.051-.721-.051-.9a15.164,15.164,0,0,0-.877-4.046,13.784,13.784,0,0,1-.472-3.776l.068-.809-6.272-.068s.405,3.372-.337,4.855S84.2,144,83.52,144.813a22.43,22.43,0,0,0-2.292,3.776,1.187,1.187,0,0,0-.043.163A2.675,2.675,0,0,0,83.588,150.275Z"/><path class="cls-2" d="M91.545,148.05c-1.079.944-5.8,2.292-7.957,2.225a2.675,2.675,0,0,1-2.4-1.523c-.359,1.143.867,2.749,1.189,3.007.337.269,2.225-.068,3.034.2s4.249-.944,5.193-.944,1.82-2.023,1.82-2.023l1.113.3,2.09-1.348s-.165-1.6-.252-2.712C94.484,145.849,92.387,147.313,91.545,148.05Z"/><path class="cls-3" d="M89.96,137.193a9.089,9.089,0,0,1-1.275,4.824,5.836,5.836,0,0,1-1.182,1.725,4.116,4.116,0,0,0-.707.661,1.225,1.225,0,0,0,.011,1.366c.339.477.973.644,1.387,1.057a1.582,1.582,0,0,1,.386,1.551"/><path class="cls-3" d="M94.973,142.019l-.5.241a2.293,2.293,0,0,0-1.5,2.582,3.462,3.462,0,0,0,.177,1.7"/><path class="cls-3" d="M87.555,139.367a.766.766,0,0,1,.536.111,3.336,3.336,0,0,0,1.733.267"/><path class="cls-3" d="M87.6,140.323l1.955.27"/><path class="cls-3" d="M86.8,141.289a7.692,7.692,0,0,0,2.048.5"/><path class="cls-3" d="M86.085,142.3a7.934,7.934,0,0,1,1.942.612"/><path class="cls-3" d="M84.972,143.313a3.51,3.51,0,0,1,2.312.574"/><path class="cls-3" d="M87.722,138.064a3.751,3.751,0,0,0,2.17.271"/><path class="cls-3" d="M87.9,137.021c-.008.044.04.075.081.093a4.381,4.381,0,0,0,1.742.347"/><path class="cls-4" d="M61.392,65.428s-2.933,10.924-3.338,13.15-1.012,4.855.3,5.664,4.653,3.945,6.069,4.349,2.023,2.023,2.023-.4,1.247-12.336,2.36-14.966.776-7.894.978-8.3.1-1.416-1.416-2.125a2.6,2.6,0,0,0-3.237.911C64.831,64.316,61.392,65.428,61.392,65.428Z"/><path class="cls-5" d="M76.665,34.679l.506,3.389s4.2.354,5.108.05,1.012-5.563,1.012-5.563Z"/><path class="cls-5" d="M68.675,21.934s1.315,3.136,1.112,4.957-.2,4.754,2.023,6.574,6.373,2.731,7.081,2.226,5.765-2.529,6.271-4.856,2.124-6.372,1.618-8.6-1.719-4.451-5.866-5.058S67.562,18.5,68.675,21.934Z"/><path class="cls-6" d="M77.576,10.353S77.07,10,79.194,10s4.653-.1,6.575.91,4.046,4.349,4.349,6.474a19.338,19.338,0,0,1-.91,6.878,16.859,16.859,0,0,1-2.529,2.023,5.285,5.285,0,0,0-1.618-2.731,32.653,32.653,0,0,0-2.832-1.821c-1.113-.708-2.125-1.416-2.125-1.416l1.72,1.922s.3,0-1.416-.809a17.492,17.492,0,0,1-2.428-1.315l.607,2.629a7.444,7.444,0,0,1-2.731-1.719c-.607-.91,1.619,2.731,1.619,2.731a7.063,7.063,0,0,1-3.136-.607A10.625,10.625,0,0,1,71.2,21.024c-.2-.405-.505,1.719-.505,1.719s-.506-1.011-.81-1.517-.3,3.338-.3,3.338-1.012,1.72-2.63-.1a12.775,12.775,0,0,1-2.023-2.731l.3,2.63s-1.821-.2-1.821-2.933,4.45-6.474,4.45-6.474A7.881,7.881,0,0,1,72.114,10.4,6.554,6.554,0,0,1,77.576,10.353Z"/><path class="cls-6" d="M84.555,9.493s.354-1.062,1.012-1.264.859.252,1.517,0a1.724,1.724,0,0,1,2.124.3c.708.759,0,1.062.91,1.618s.3-1.011,1.669,1.366,1.72,4.3.911,5.007-2.732.556-2.732.556-.96-3.186-2.377-4.4a15.938,15.938,0,0,0-3.337-2.073S83.8,9.645,84.555,9.493Z"/><path class="cls-6" d="M70.141,11.162s-1.568-2.681-2.882-2.124-1.113.758-1.214,1.669-.961.809-1.214,2.225-.354,2.832.3,3.388,1.366,0,1.72-.455,2.326-1.315,2.529-2.276A21.183,21.183,0,0,1,70.141,11.162Z"/><path class="cls-3" d="M75.654,29.318s-.1-.506.708-.607.961.455.961.455"/><path class="cls-3" d="M74.845,31.442a4.685,4.685,0,0,0,2.377.809,4.294,4.294,0,0,0,1.972-.91"/><path class="cls-5" d="M86.932,23.7s1.568-.5,1.871.3a3.274,3.274,0,0,1-.253,2.731c-.5.86-2.326.809-2.326.809Z"/><path class="cls-3" d="M68.472,24.665S70.141,27.042,69.787,28s-1.568,1.77-1.365,2.681,1.214,1.112,1.264,1.669-.4.708-.759,1.669a2.208,2.208,0,0,0,.456,2.275c.455.557-.456,2.175-.456,2.175"/><path class="cls-3" d="M85.921,24.564a11.371,11.371,0,0,1-.506,3.287c-.506,1.366-2.327,2.074-.961,3.237s2.427.4,2.073,1.619-.91.708-.758,1.77,1.618,1.517,1.618,1.517"/><path class="cls-7" d="M73.429,23.2s-1.821-1.113-2.276-.1-.961,2.226.607,2.984S74.036,24.362,73.429,23.2Z"/><ellipse class="cls-8" cx="71.639" cy="24.652" rx="0.759" ry="1.29"/><path class="cls-9" d="M74.339,39.079a44.756,44.756,0,0,0-5.513,2.326c-.758.607-1.163-.2-1.871,4.046S66.6,59.258,66.6,59.258s4.046-10.823,4.5-10.62S80,52.077,82.583,51.47,91.13,50,91.13,50s.253-.455,1.315.708,2.63,5.563,3.742,7.182.081.515-1.087,2.766a36.972,36.972,0,0,1-3.335,4.169,8.341,8.341,0,0,1,2.045,1.764,8.891,8.891,0,0,1,.759,2.023s1.517-1.417,3.186-3.237,4.248-4.35,4.653-7.738-2.681-9.559-4.5-12.239-3.035-5.816-5.007-6.777a8.759,8.759,0,0,0-4.7-.607,12.377,12.377,0,0,1-2.882-.506s-5.007,3.642-6.423,2.883-3.439-2.074-3.439-2.074Z"/><path class="cls-2" d="M70.546,47.576s7.181,1.668,8.041,2.124l.86.455s5.26-2.276,7.687-2.175a9.785,9.785,0,0,1,4.687,1.784s-2.158,5.3-2.209,6.308,1.046,2.747,1.1,3.809a4.621,4.621,0,0,1-.667,2.223s-12.062,1.251-12.82,1.4-6.878-1.568-6.878-1.568a3.758,3.758,0,0,1-.506-2.377,14.343,14.343,0,0,0-.658-4.451A8.617,8.617,0,0,1,69.636,50C70.192,48.688,70.546,47.576,70.546,47.576Z"/><path class="cls-10" d="M70.7,61.382s-1.214,5.564-2.731,7.89-2.529,13.251-2.934,18,3.237,28.422,3.945,32.064a38.966,38.966,0,0,1,.405,9.2c-.1,1.113,2.023,3.035,2.225,4.046s-1.113,1.113.1,1.416,7.485.405,7.485.405.708-4.855,1.517-8.5,3.743-17.7,3.743-18.712S82.734,62.5,82.734,62.5Z"/><path class="cls-1" d="M68.135,149.719c2.158.068,6.878-1.281,7.957-2.225.842-.737,2.94-2.2,3.828-2.813-.031-.39-.052-.721-.052-.9a15.157,15.157,0,0,0-.876-4.046,13.784,13.784,0,0,1-.472-3.776l.067-.809-6.271-.068s.405,3.372-.337,4.855-3.237,3.507-3.911,4.316a22.367,22.367,0,0,0-2.293,3.776,1.35,1.35,0,0,0-.043.163A2.678,2.678,0,0,0,68.135,149.719Z"/><path class="cls-2" d="M76.092,147.494c-1.079.944-5.8,2.293-7.957,2.225a2.678,2.678,0,0,1-2.4-1.523c-.359,1.143.867,2.749,1.189,3.007.338.269,2.226-.068,3.035.2s4.248-.944,5.192-.944,1.821-2.023,1.821-2.023l1.113.3,2.09-1.348s-.166-1.6-.252-2.712C79.032,145.294,76.934,146.757,76.092,147.494Z"/><path class="cls-3" d="M74.508,136.637a9.113,9.113,0,0,1-1.275,4.825,5.835,5.835,0,0,1-1.183,1.724,4.076,4.076,0,0,0-.706.662,1.223,1.223,0,0,0,.01,1.365c.339.477.973.644,1.387,1.057a1.583,1.583,0,0,1,.387,1.552"/><path class="cls-3" d="M79.52,141.463l-.5.241a2.292,2.292,0,0,0-1.5,2.582,3.462,3.462,0,0,0,.176,1.7"/><path class="cls-3" d="M72.1,138.811a.767.767,0,0,1,.536.111,3.334,3.334,0,0,0,1.732.267"/><path class="cls-3" d="M72.148,139.767l1.956.27"/><path class="cls-3" d="M71.345,140.733a7.661,7.661,0,0,0,2.049.5"/><path class="cls-3" d="M70.633,141.748a7.913,7.913,0,0,1,1.941.612"/><path class="cls-3" d="M69.519,142.758a3.506,3.506,0,0,1,2.313.573"/><path class="cls-3" d="M72.27,137.508a3.748,3.748,0,0,0,2.169.271"/><path class="cls-3" d="M72.448,136.466c-.008.043.041.074.081.092a4.381,4.381,0,0,0,1.742.347"/><path class="cls-4" d="M71.507,39.433s-1.416,3.844-2.63,7.687-2.731,12.947-2.731,12.947l1.719.2S71.3,47.424,71.911,45.5s1.72-6.474,1.72-6.474S72.822,37.815,71.507,39.433Z"/><path class="cls-5" d="M62.759,64.149s-1.164-.2-.405,1.011,2.124.961,2.327.506.758-.657.1-.961A11.668,11.668,0,0,0,62.759,64.149Z"/><path class="cls-5" d="M62.809,61.367s-.961,1.214-.607,2.074.253,1.264,2.023,1.365,2.226.152,2.276-.5.354-1.214-.2-1.366S62.809,61.367,62.809,61.367Z"/><path class="cls-5" d="M63.77,59.193c-.1-.152-1.568.2-1.315,1.315a2.369,2.369,0,0,0,1.517,1.972c.81.3,2.125.91,2.782.657s1.669-1.163.809-1.668-1.82-.81-1.922-.961S63.77,59.193,63.77,59.193Z"/><path class="cls-5" d="M65.641,57.271s-1.314-.658-1.517.556a2.339,2.339,0,0,0,.911,2.478A2.045,2.045,0,0,0,67.26,60c.152-.253.455-1.113-.405-1.214s-.961-.354-.961-.354Z"/><path class="cls-5" d="M69.94,58.586s-1.82.354-1.871,1.669-.1,2.276.759,1.972.607-1.011.607-1.467S70.648,59.092,69.94,58.586Z"/><path class="cls-7" d="M82.048,23.186s-1.82-1.112-2.275-.1-.961,2.225.606,2.984S82.655,24.35,82.048,23.186Z"/><ellipse class="cls-8" cx="80.259" cy="24.64" rx="0.759" ry="1.29"/><path class="cls-9" d="M76.16,36.247a8.227,8.227,0,0,0,3.944.91c1.821-.2,3.187-.86,3.187-1.618s.961-.658,1.669-.354.708,2.832.708,2.832-3.189,4.348-5.462,4.2c-6.033-.4-5.26-3.49-5.26-3.49s.91-.506.708-1.264S74.137,35.185,76.16,36.247Z"/><path class="cls-11" d="M70.293,131.378s.472.741.067,1.213.607.472.27,1.079-.742,1.012-.4,1.349a11.009,11.009,0,0,0,5.327,1.551,8.085,8.085,0,0,0,4.72-1.079c1.012-.674.405-.742.539-2.023s.54-2.09.27-2.293a1.29,1.29,0,0,0-1.214,0c-.337.2-3.1,1.753-4.855,1.551A26.052,26.052,0,0,1,70.293,131.378Z"/><path class="cls-10" d="M90.017,61.888l.708,2.681s3.237,11.48,4.653,14.211.91,15.274.91,19.117-1.213,11.43-.607,13.15,1.012,5.057,1.012,11.733a89.353,89.353,0,0,1-.506,10.519l-.3,1.518a63.967,63.967,0,0,1-6.474.1c-.91-.2-4.046-.809-4.046-.809S82.33,109.63,82.026,106.6s-.91-8.9-1.517-13.857S78.688,80.6,78.688,80.6a63.286,63.286,0,0,1-2.876-8.492c-.43-1.769-1.445-10.227-1.445-10.227Z"/><path class="cls-3" d="M94.164,81.511s.708,19.117-.1,22.455-.2,4.35.2,5.462-1.112.3-.5,2.023,1.719,2.327.91,3.642-1.821,0-.91,2.933,1.112,3.742.91,5.26-.405,8.294-.405,8.294"/><path class="cls-12" d="M88.4,65.327s-.3.152,1.112,3.035a11.057,11.057,0,0,0,3.793,4.3l.961,3.59s-5.31-4.45-5.816-6.878A9.287,9.287,0,0,1,88.4,65.327Z"/><path class="cls-11" d="M85.263,133.131s-1.011.674-.337,1.483,1.483.472,1.079,1.079-.607,1.079.067,1.214,1.214-.472,3.035.067a14.085,14.085,0,0,0,5.462.27c1.146-.2,1.416-.067,1.618-.2a.747.747,0,0,0,.2-1.214c-.539-.674.2-.337.2-1.483v-1.821a1.945,1.945,0,0,1-1.753,1.079c-1.349.067-5.732.809-6.811.4S85.263,133.131,85.263,133.131Z"/><path class="cls-5" d="M92.682,64.994a3.411,3.411,0,0,0-2.167.834,9.533,9.533,0,0,1-1.5,1.251,11.726,11.726,0,0,0,1.25,2.7,10.988,10.988,0,0,0,1.751,1.806l2.251-2.918S94.016,65.661,92.682,64.994Z"/><path class="cls-10" d="M70.421,61.215a48.236,48.236,0,0,1,4.947.166c2.223.167,6.781.223,9.727.167s5-.167,5-.167l.627,3.188s-1.683.147-5.074.147-7.56.556-10.117.556a16.453,16.453,0,0,1-5.558-1.334Z"/></svg>