<svg id="word" xmlns="http://www.w3.org/2000/svg" viewBox="0 0 160 160"><defs><style>.cls-1{fill:#ededee;}.cls-1,.cls-10,.cls-11,.cls-2,.cls-3,.cls-4,.cls-5,.cls-6,.cls-7,.cls-8,.cls-9{stroke:#9d4b9c;stroke-miterlimit:10;}.cls-2{fill:#58595b;}.cls-3{fill:#4d4d4f;}.cls-4{fill:#383738;}.cls-5{fill:#cfd0d2;}.cls-6{fill:#00bbf1;}.cls-7{fill:#6d6e70;}.cls-8{fill:#323031;}.cls-9{fill:#5a72b6;}.cls-10{fill:#2e76bb;}.cls-11{fill:none;}</style></defs><path class="cls-1" d="M72.883,109.846l.879,8.984a73.683,73.683,0,0,0,30.6,2.163,182.5,182.5,0,0,0,29.2-6.156s1.583-8.485.528-11.313a16.545,16.545,0,0,0-2.111-4.16s-18.468,6.988-25.679,7.986-24.448,3-27.086,1.83a18.037,18.037,0,0,1-4.573-2.994S71.828,105.354,72.883,109.846Z"/><path class="cls-2" d="M73.235,121.991s-1.231,3.66,2.99,5.657,9.322,3.993,22.337,3.494,18.82-1.664,23.393-3.161,11.08-5.823,11.08-5.823l1.056-8.985s-18.992,5.383-29.021,5.99c-21.986,1.331-32.011-2.828-32.011-2.828Z"/><path class="cls-3" d="M131.8,105.687s-7.211-2-10.729,2.828c-3.488,4.784-5.1,12.145-.7,17.636s9.322,4.824,12.839,1.5S140.247,113.007,131.8,105.687Z"/><ellipse class="cls-4" cx="131.189" cy="117" rx="5.189" ry="7.653"/><path class="cls-5" d="M77.28,26.992S62.77,53.279,58.021,64.925c-2.163,5.305-17.149,38.1-17.149,38.1l5.1,1.663S62.858,65.757,65.144,61.265,82.029,28.739,82.029,28.739Z"/><path class="cls-6" d="M127.583,90.047s-8.091-6.654-16.533-5.157-17.184,4.071-21.81,6.821c-12.312,7.321-16.533,13.643-16.357,15.14s4.573,6.156,12.84,5.491,22.517-2.905,27.086-4.825c6.332-2.662,13.367-5.158,15.477-5.823s4.749-1.331,4.749-1.331S134.442,93.209,127.583,90.047Z"/><path class="cls-7" d="M83.612,101.694s-3.869-8.069-2.638-16.555S91,42.8,91.527,39.3,96.1,27.657,91.7,25.827s-8.8,5.657-8.8,5.657L74.994,27.99S80.006,16.178,91.7,17.675c9.936,1.272,8.97,6.572,8.794,13.06S89.592,69.75,88.713,76.072s-3.342,12.644-1.232,16.637A71.4,71.4,0,0,0,91.7,99.7S88.361,106.186,83.612,101.694Z"/><path class="cls-8" d="M35.068,110.012l10.025,1s-1.758,5.157,2.99,5.823S58.2,117.665,60.131,120a20.4,20.4,0,0,1,2.639,3.826l-2.111,8.319s-16.973-1.5-21.722-1.5-23.568-1.165-23.568-1.165-1.759-1.5-1.055-4.658,1.055-8.985,6.156-8.485c4.387.429,8.442-1.831,11.08-2.829A6.326,6.326,0,0,0,35.068,110.012Z"/><path class="cls-9" d="M111.578,86.554s-.7-3.827,1.231-3.993,3.166,3.327,3.166,3.327S113.16,87.053,111.578,86.554Z"/><path class="cls-10" d="M125.3,93.541c-.555-.02-4.748.167-5.452,4.16s2.814,5.157,4.573,3.494S129.869,93.708,125.3,93.541Z"/><line class="cls-11" x1="15.017" y1="124.653" x2="58.548" y2="128.48"/><path class="cls-2" d="M39.289,103.357l-2.814,7.986,6.86.666,3.473-6.905S44.742,101.2,39.289,103.357Z"/><path class="cls-11" d="M91.714,25.66A6.165,6.165,0,0,1,93.967,20.4"/><path class="cls-11" d="M93.764,31.838a9.372,9.372,0,0,1,4.781-2.751"/><path class="cls-11" d="M93.385,27.613a4.669,4.669,0,0,1,3.592-2.633"/><path class="cls-11" d="M89.069,25.513l-1.133-4.494"/><path class="cls-11" d="M86.526,26.974a10.189,10.189,0,0,1-4.156-4.636"/><path class="cls-11" d="M91.988,37.663l4.105-.737a3.06,3.06,0,0,1,2.377.223"/><path class="cls-11" d="M91.545,40.935a8.83,8.83,0,0,1,5.639.129"/><path class="cls-11" d="M90.423,44.736a13.32,13.32,0,0,1,5.508-.587"/><path class="cls-11" d="M89.6,48.486a8.469,8.469,0,0,1,5.194.78"/><path class="cls-11" d="M80.974,92.959c.873-1.4,3.392-1.711,5.1-1.581"/><path class="cls-11" d="M82.332,97.624a2.36,2.36,0,0,1,1.846-1.967,7.59,7.59,0,0,1,2.948-.036"/><path class="cls-11" d="M80.58,88.529a4.617,4.617,0,0,1,5.285-1.889"/><path class="cls-11" d="M81.545,81.881a7.678,7.678,0,0,1,5.15-.841"/></svg>