<svg id="word" xmlns="http://www.w3.org/2000/svg" viewBox="0 0 160 160"><defs><style>.cls-1{fill:#696a6c;}.cls-1,.cls-2,.cls-3,.cls-4{stroke:#9d4b9c;stroke-miterlimit:10;}.cls-2{fill:none;}.cls-3{fill:#6dcef5;}.cls-4{fill:#717275;}</style></defs><polygon class="cls-1" points="57.641 97.528 64.694 81.218 67.118 82.21 60.947 98.409 57.641 97.528"/><path class="cls-1" d="M63.812,77.361l-.992,3.526a3.462,3.462,0,0,0,2.425,1.653c1.653.221,3.416.551,3.416.551l1.322-3.306Z"/><path class="cls-2" d="M57.824,97.675s-21.893,17.485-18.66,26.3S54,137.494,58.412,136.025s2.865-38.056,2.865-38.056"/><path class="cls-2" d="M60.175,98.116S56.5,127.943,54.3,130.441s-3.82,3.821-11.02,1.764c-5.4-1.543-11.608-9.992-8.229-16.016s22.922-19.1,22.922-19.1"/><path class="cls-1" d="M56.428,98.3l5.29,1.543s.11-1.433.11-2.535.551-3.967-1.1-3.967S56.428,98.3,56.428,98.3Z"/><polygon class="cls-1" points="61.939 100.173 68.991 83.863 71.416 84.855 65.245 101.054 61.939 100.173"/><path class="cls-1" d="M68.11,80.006l-.992,3.526a3.459,3.459,0,0,0,2.424,1.653c1.653.221,3.417.551,3.417.551l1.322-3.306Z"/><path class="cls-2" d="M62.122,100.32s-21.893,17.485-18.661,26.3S58.3,140.139,62.71,138.67s2.865-38.057,2.865-38.057"/><path class="cls-2" d="M64.473,100.76S60.8,130.588,58.6,133.086s-3.821,3.82-11.02,1.763c-5.4-1.542-11.608-9.991-8.229-16.016s22.922-19.1,22.922-19.1"/><path class="cls-1" d="M60.726,100.944l5.29,1.543s.11-1.433.11-2.535.551-3.967-1.1-3.967S60.726,100.944,60.726,100.944Z"/><path class="cls-3" d="M130.484,66.892c1.1-5.069,5.069-18.734-6.612-24.024A48.155,48.155,0,0,1,110.207,36.7C104.256,32.509,96.321,27,88.828,27S76.044,40.664,70.975,45.292,56.869,67.333,59.294,71.08s4.628,7.273,7.934,9.036,38.35,14.767,48.048,16.751,11.9.22,13.445-4.188,3.746-10.579,3.967-14.547S129.382,71.961,130.484,66.892ZM117.7,66.451c-4.187,4.849-18.954-1.1-27.33-9.7S84.42,39.562,87.285,36.7s14.106.661,14.106.661,11.681,7.714,18.073,13.665S121.888,61.6,117.7,66.451Z"/><path class="cls-4" d="M71.857,59.4l-1.764,4.629s3.527,3.306,7.274,3.306,7.493.22,4.408-1.323S71.857,59.4,71.857,59.4Z"/><path class="cls-2" d="M79.35,82.32s11.02,3.747,16.971,5.51,18.073,5.51,18.073,5.51"/><path class="cls-4" d="M69.983,65.129,68.22,69.757s3.526,3.306,7.273,3.306,7.494.221,4.408-1.322S69.983,65.129,69.983,65.129Z"/><path class="cls-4" d="M68.33,71.19l-1.763,4.628s3.526,3.306,7.273,3.306,7.494.221,4.408-1.322S68.33,71.19,68.33,71.19Z"/><path class="cls-2" d="M73.691,44.718a15.69,15.69,0,0,0,3.614,10.641c4.052,5.236,10.14,8.425,16.087,11.333A60.061,60.061,0,0,0,105.4,71.466a21.912,21.912,0,0,0,12.754-.345"/><path class="cls-2" d="M119.813,46.239a11.357,11.357,0,0,1,4.215,17.843"/><path class="cls-2" d="M126.2,75.854a23.963,23.963,0,0,1-1.431,14.08,8.171,8.171,0,0,1-1.837,2.878,3.577,3.577,0,0,1-3.154.982"/></svg>