<svg id="word" xmlns="http://www.w3.org/2000/svg" xmlns:xlink="http://www.w3.org/1999/xlink" viewBox="0 0 160 160"><defs><style>.cls-1{fill:none;}.cls-2{clip-path:url(#clip-path);}.cls-3{fill:#f9af18;}.cls-11,.cls-12,.cls-13,.cls-14,.cls-15,.cls-16,.cls-17,.cls-18,.cls-19,.cls-20,.cls-21,.cls-22,.cls-23,.cls-3,.cls-4,.cls-6,.cls-7,.cls-8,.cls-9{stroke:#9d4b9c;}.cls-11,.cls-12,.cls-13,.cls-14,.cls-15,.cls-16,.cls-17,.cls-18,.cls-19,.cls-20,.cls-3,.cls-4,.cls-6,.cls-7,.cls-8,.cls-9{stroke-miterlimit:10;}.cls-3,.cls-4{stroke-width:0.899px;}.cls-4,.cls-7{fill:#fcc136;}.cls-5{clip-path:url(#clip-path-2);}.cls-6{fill:#d8801a;}.cls-11,.cls-12,.cls-13,.cls-6,.cls-7,.cls-9{stroke-width:1.355px;}.cls-11,.cls-8{fill:#26a9e0;}.cls-14,.cls-15,.cls-16,.cls-17,.cls-18,.cls-19,.cls-20,.cls-8{stroke-width:0.542px;}.cls-9{fill:#fde0ce;}.cls-10{fill:#9d4b9c;}.cls-12,.cls-14{fill:#f05a28;}.cls-13{fill:#2b388f;}.cls-15{fill:#90d8f7;}.cls-16{fill:#f6921e;}.cls-17{fill:#fff8ad;}.cls-18{fill:#9dcb3b;}.cls-19{fill:#d6de23;}.cls-20{fill:#ee4628;}.cls-21{fill:#f9ec31;}.cls-21,.cls-22,.cls-23{stroke-width:0.478px;}.cls-22{fill:#00adee;}.cls-23{fill:#8bc53f;}</style><clipPath id="clip-path"><rect class="cls-1" x="14.5" y="-196.5" width="132" height="132"/></clipPath><clipPath id="clip-path-2"><rect class="cls-1" x="14.5" y="13.5" width="132" height="132"/></clipPath></defs><g class="cls-2"><path class="cls-3" d="M5.269-44.464,1.457-2.256A7.371,7.371,0,0,0,8.9,3.671c6.856-.038,6.811-7.266,6.811-7.266V-44.464Z"/><path class="cls-4" d="M103.189-68.592,91.944,3.752s3.091,11.527,13.623,10.454c7.889-.8,8.627-5.67,8.627-5.67l5-73.8Z"/></g><g class="cls-5"><path class="cls-6" d="M-122.751,77.9s-12.233,17.95-4.566,35.3,49.589,56.977,206.475,56.338,184.969-47.083,182.722-55.115-4.047-34.552-4.047-34.552Z"/><ellipse class="cls-7" cx="68.418" cy="112.039" rx="193.461" ry="65.711"/><path class="cls-8" d="M107.587,68.3l-9.6,3.124-2.528-2.014s-4.381,2.7-7.068.415c-3.4-2.886,3.256-4.792,3.256-4.792l-3.256-2.7,6.835-4.066Z"/><path class="cls-9" d="M142.448,26.41s.441,6.576-4.748,9.753c-1.906,1.168-33.618,6.641-33.618,6.641s2.905,8.508,2.49,12.036-3.327,9.342-3.327,9.342l-4.351-3.739s1.868.208,1.038-4.358-7.264-5.81-8.509-5.4-4.358,5.81-4.358,7.263,4.981,2.7,4.151,5.188-7.886,2.075-9.961,1.245-3.736-4.15-3.736-4.15-3.112-.83-4.15-2.283a6.407,6.407,0,0,1-1.038-3.32s-2.7-1.453-2.905-3.528,3.113-6.641,3.113-6.641l3.943-3.486s-10.057,1.8-7.982-.478,12.755-4.129,12.755-4.129,7.678-1.66,9.131-2.7,12.866-3.32,14.319-4.15,22.33-9.321,22.33-9.321Z"/><path class="cls-10" d="M77.38,61.174a16.286,16.286,0,0,1,4.111-12.328,15.609,15.609,0,0,0-2.769,12.138.678.678,0,0,1-1.331.263A.613.613,0,0,1,77.38,61.174Z"/><path class="cls-10" d="M71.871,56.458a15.362,15.362,0,0,1,7.063-11.219,14.684,14.684,0,0,0-5.71,11.305.679.679,0,0,1-1.358-.013C71.867,56.507,71.868,56.481,71.871,56.458Z"/><path class="cls-11" d="M130.672,12.148c-1.455,1.049-2.849,2.049-4.086,2.933,1.379.509,2.8.918,4.21,1.35,5.773,1.775,11.488,4.369,15.606,8.786a30.27,30.27,0,0,1,3.005,3.878.6.6,0,0,1,.311-.068c.3.11.974-2.009,2.043-4.82a39.239,39.239,0,0,0-9.219-5.944A116.655,116.655,0,0,1,130.672,12.148Z"/><path class="cls-12" d="M134.727,9.211c-1.347.981-2.719,1.974-4.055,2.937a116.655,116.655,0,0,0,11.87,6.115,39.239,39.239,0,0,1,9.219,5.944c.47-1.233,1.018-2.6,1.646-3.969a47.566,47.566,0,0,0-14.7-9.176A20.151,20.151,0,0,1,134.727,9.211Z"/><path class="cls-12" d="M156.122-1.768c.994.741,2.045,1.405,3.02,2.171a21.937,21.937,0,0,1,2.483,2.336c.314-1.641.559-3.256.751-4.749l-5.7-5.2a33.243,33.243,0,0,0-3.906,2.36A24.408,24.408,0,0,0,156.122-1.768Z"/><path class="cls-13" d="M130.8,16.431c-1.405-.432-2.831-.841-4.21-1.35-2.724,1.949-4.673,3.328-4.673,3.328s19.848,7.633,19.686,11.456c-.19,4.514,6.234-.16,7.808-.77a30.27,30.27,0,0,0-3.005-3.878C142.284,20.8,136.569,18.206,130.8,16.431Z"/><path class="cls-11" d="M159.142.4c-.975-.766-2.026-1.43-3.02-2.171a24.408,24.408,0,0,1-3.348-3.08c-.652.447-1.344.939-2.1,1.509,1.926,2.131,3.876,4.238,5.977,6.2,1.331,1.238,2.723,2.409,4.156,3.528.316-1.187.588-2.417.823-3.645A21.937,21.937,0,0,0,159.142.4Z"/><path class="cls-11" d="M138.667,6.314c-1.215.9-2.558,1.889-3.94,2.9a20.151,20.151,0,0,0,3.977,1.851,47.566,47.566,0,0,1,14.7,9.176,32.165,32.165,0,0,1,2.544-4.646,38.019,38.019,0,0,0-7.863-4.48A61.741,61.741,0,0,1,138.667,6.314Z"/><path class="cls-12" d="M150.669-3.339c-1,.749-2.122,1.638-3.326,2.628l5.309,4.573.9.777,6.1,5.256A30.694,30.694,0,0,0,160.8,6.384c-1.433-1.119-2.825-2.29-4.156-3.528C154.545.9,152.6-1.208,150.669-3.339Z"/><path class="cls-12" d="M150.981,7.51c-1.483-.8-3.112-1.29-4.629-2.023a15.928,15.928,0,0,1-3.527-2.36c-.949.772-2.414,1.889-4.158,3.187a61.741,61.741,0,0,0,9.421,4.8,38.019,38.019,0,0,1,7.863,4.48,16.678,16.678,0,0,1,1.555-1.987,7.984,7.984,0,0,0,.77-1l-4.54-3.285A25.01,25.01,0,0,0,150.981,7.51Z"/><path class="cls-11" d="M152.652,3.862,147.343-.711c-1.187.975-2.445,2.036-3.848,3.276-.174.154-.412.351-.67.562a15.928,15.928,0,0,0,3.527,2.36c1.517.733,3.146,1.224,4.629,2.023a25.01,25.01,0,0,1,2.755,1.812l4.54,3.285A14.951,14.951,0,0,0,159.655,9.9l-6.1-5.256Z"/><path class="cls-14" d="M94.909,87.718l2.837,2.476s3.04-.928,4.053-.464-2.026,2.632-2.026,2.632l4.457,2.167,12.361-3.87L106.054,86.17Z"/><polygon class="cls-15" points="111.323 99.019 118.213 103.663 140.3 98.4 125.913 94.22 116.389 93.755 111.323 99.019"/><path class="cls-8" d="M73.835,95.458l5.877-3.715,4.052,1.393s-.405-3.56,3.648-1.7,2.026,3.1,2.026,3.1L93.9,96.7l-5.674,5.574Z"/><path class="cls-16" d="M62.69,102.115l16.008-.464,1.014-5.728-6.485.155s.406,3.1-2.431,2.941-2.229-3.406-2.229-3.406H63.3Z"/><path class="cls-17" d="M105.852,95.923l5.471,3.1,6.484-.929s-2.431-1.548-.81-2.941,5.673,1.7,5.673,1.7l7.093-1.083L117.4,90.659l-13.172,3.87Z"/><path class="cls-8" d="M97.746,104.592l14.388-2.012-4.053-3.716s4.255-1.084,2.634-2.322-5.674-.774-5.674-.774l-3.647-2.323-8.308,1.549Z"/><path class="cls-18" d="M40.025,107.678l2.837,2.477s3.039-.929,4.052-.465-2.026,2.632-2.026,2.632l4.458,2.168,12.361-3.87-10.538-4.49Z"/><path class="cls-19" d="M48.3,103.2l5.876-3.715,4.053,1.393s-.405-3.56,3.647-1.7,2.027,3.1,2.027,3.1l4.458,2.167L62.69,110.01Z"/><path class="cls-19" d="M73.175,111.239l14.387-1.594L83.509,106.7s4.256-.857,2.634-1.839-5.674-.612-5.674-.612l-3.647-1.839-8.308,1.226Z"/><path class="cls-20" d="M31.139,113.624l11.992.289v-5.491l-3.179-.577s0-3.468-2.167-3.468-2.89,3.178-2.89,3.178l-3.756-.289Z"/><path class="cls-21" d="M24.678,112.187a1.412,1.412,0,0,0-.243-1.8c-.731-.611-.835.386-1.276-.3a1.9,1.9,0,0,1-.084-1.78c.153-.309,1.342-2.674,1.342-2.674l-5.5-5.785h0s-.045.091-.12.239l-1.3,2.625a1.876,1.876,0,0,0,.16,1.591c.444.68.548-.316,1.278.3a1.417,1.417,0,0,1,.243,1.8c-.175.384-.646,1.34-1.293.765s-.408-1.5-.847-1.883-.895.318-.895.318l-1.2,2.413-.048-.05-.02.044,5.568,5.789,1.2-2.414s.459-.7.9-.319.2,1.309.845,1.884S24.506,112.571,24.678,112.187Z"/><path class="cls-22" d="M75.139,82.981c.153-.462.409-1.381-.669-1.249s-1.023,1.03-1.734.858-.6-.988-.455-1.37S73.528,77.9,73.528,77.9l-8.35.042v0l0,0-.113.3-1.2,3.238c-.092.414-.076,1.009.52,1.151.712.171.656-.723,1.733-.855s.825.786.669,1.247-.59,1.64-1.551,1.731-.826-.868-1.478-.8-1.115,1.029-1.115,1.029l-1.1,2.982h-.075l-.021.053,8.442-.1,1.1-2.98s.467-.963,1.117-1.03.514.891,1.476.8S74.986,83.439,75.139,82.981Z"/><path class="cls-23" d="M10.7,87v5.63h19.82V90.966s.263-.536,1.735-.569,1.99.5,4.178.458,2.189-.7,2.149-.962-.239-.771-2.666-.7-1.512.57-3.342.47-2.269-.559-2.269-.771.045-1.854.045-1.854Z"/><path class="cls-21" d="M62.521,95.509c.5-.213,1.407-.664-.7-1.007s-2.412.215-3.69-.166-.682-.826-.241-1,3.882-1.5,3.882-1.5l-15.9-3.243,0,0h0l-.347.132L41.762,90.2c-.365.211-.606.573.464.893,1.278.38,1.578-.178,3.69.165s1.206.794.705,1.009a6.526,6.526,0,0,1-3.74.428c-1.872-.321-1.178-.841-2.445-1.056a6.605,6.605,0,0,0-2.593.18l-3.455,1.352-.142-.027-.063.025,16.1,3.244,3.456-1.352a6.576,6.576,0,0,1,2.594-.179c1.266.215.571.734,2.442,1.056A6.527,6.527,0,0,0,62.521,95.509Z"/><path class="cls-22" d="M56.059,82.038a6.245,6.245,0,0,0-3.656-.047c-1.687.5.175.709-1.448.968a8.318,8.318,0,0,1-3.51-.17c-.492-.162-4.263-1.415-4.263-1.415L28.2,84.946l0,0,0,0,.381.126,4.2,1.374a8.742,8.742,0,0,0,3.2.085c1.622-.258-.239-.473,1.448-.968a6.257,6.257,0,0,1,3.655.047c.626.188,2.156.688.6,1.122s-3.194.121-4.233.416,0,.752,0,.752l3.861,1.263-.132.032.071.022L56.29,85.59l-3.862-1.262s-1.044-.457,0-.751,2.676.018,4.232-.416S56.686,82.225,56.059,82.038Z"/><path class="cls-23" d="M-.179,96.053l7.114,7.086,6.433-6.459-2.105-2.1s-.591-.761-.158-1.281,1.283-.017,1.935-.786-.177-1.6-.516-1.909-1.052-.9-1.755-.02.23,1.212-.491,1.681a1.381,1.381,0,0,1-1.711-.231c-.269-.268-2.328-2.35-2.328-2.35Z"/></g></svg>