<svg id="word" xmlns="http://www.w3.org/2000/svg" viewBox="0 0 160 160"><defs><style>.cls-1{fill:#6489c6;}.cls-1,.cls-2,.cls-3,.cls-4,.cls-6{stroke:#9d4b9c;}.cls-1,.cls-6{stroke-width:0.556px;}.cls-2{fill:#8a5d3b;}.cls-2,.cls-3,.cls-4{stroke-width:0.392px;}.cls-3{fill:#468248;}.cls-4{fill:#599255;}.cls-5{fill:#67c08c;}.cls-6{fill:none;}</style></defs><path class="cls-1" d="M98.974,100.924c-.68-2.963-18.761-3.943-20.178-3.912l-10.515.515c-.141-.007-11.715,1.43-12.356,3.4-.648,1.988.432,6.279.432,6.279l1.73.524a128.015,128.015,0,0,0,1.945,13.5A34.958,34.958,0,0,0,64.68,131.38a2.28,2.28,0,0,0-1.3,2.879c.748,1.966.024,1.935,8.329,2.861H83.2c8.291-.925,7.568-.9,8.316-2.86a2.28,2.28,0,0,0-1.3-2.879,34.958,34.958,0,0,0,4.648-10.152,127.73,127.73,0,0,0,1.945-13.5l1.73-.524S99.441,102.959,98.974,100.924Z"/><ellipse class="cls-2" cx="77.45" cy="101.972" rx="19.369" ry="4.011"/><path class="cls-3" d="M82.962,99.588,84.475,90.8s4.215-7.12,7.35-8.69,3.811-3.349,4.662-1.884,7.227,16.97,10.254,20,4.972,3.76,4.972,3.76,1.081-10.152-2.486-15.385S97.878,77.19,96.04,78.027a37.218,37.218,0,0,0-7.025,5.129c-.973,1.046-4.54,5.861-4.54,5.861l-2.919,11.238,1.149,1.243Z"/><path class="cls-4" d="M83.286,88.284l10.16-33.805s-3.891-3.664-2.81-8.373,2.486-11.513,10.7-14.862,14.267-1.78,13.943,0-4.864,2.2-6.81,5.023-12.43,15.49-13.4,18.212-7.026,21.35-7.026,21.35,6.161-16.222,9.3-19.571,2.946-5.634,7.161-4.972c7.045,1.108,15.538,14.5,15.646,15.647s2.378,5.443,0,4.4S109.983,59.5,108.578,56.467a5.709,5.709,0,0,0-4.215-3.349s-4.54,1.675-5.837,4.4-8.863,16.118-8.863,16.118,1.82-7.222,8.314-7.117,13.413,5.047,15.79,8.686c2.836,4.344.653,17.537.437,18.1s-1.535-3.655-2.337-4.6-5.883-12.56-6.315-13.606-6.161-1.465-6.809-3.14a27.538,27.538,0,0,0-2.256-4.082S90.1,74.783,88.8,79.179a58.657,58.657,0,0,1-3.883,9.245l-3.36,11.831-1.3-.051Z"/><path class="cls-5" d="M94.664,50.312s-.395-5.642,3.949-9.144a98.24,98.24,0,0,1,11.593-7.479s-8.058,8.923-9.738,11.16a116.6,116.6,0,0,0-7.283,13.277c-.419,1.292-1.907,5.274-1.907,5.274s1.084-5.516,2.025-6.6c.781-.9,1.164-5.684,1.164-5.684Z"/><path class="cls-5" d="M95.641,59.288s3.917-6.352,6.686-7.4c1.563-.592,4.07.722,5.941,1.682.894.459,1.7.779,2.121,1.023,4.5,2.609,8.335,11.39,8.335,11.39S107.183,50.294,102.56,52.708C99.513,54.3,95.641,59.288,95.641,59.288Z"/><path class="cls-5" d="M108.835,77.265l.761,1.374h4.1l.093.775h-4l.191.81,3.936.576.053.838h-2.9a55.4,55.4,0,0,1,1.673,5.857,47.648,47.648,0,0,0,1.2,4.748s.833-8.567.8-11.019a14.77,14.77,0,0,0-1.994-6.407c-.6-1.168-4.857-4.926-6.4-5.65s-2.673-1.159-2.673-1.159,7.263,4.851,7.834,6.156a25.877,25.877,0,0,1,1.047,3.1Z"/><path class="cls-5" d="M87.718,78.76s3.141-8.474,4.71-9.974a7.4,7.4,0,0,1,4.677-2.24s-3.335,1.544-7.213,8.237C89,76.327,87.718,78.76,87.718,78.76Z"/><path class="cls-4" d="M78.747,53.641s4.323.617,5.188-3.041-2.394-13.9-3.043-16.936-5.611-11.8-6.152-12.948-3.451-5.485-4.208-6.741-3.351,5.023,0,10.884,7.35,26.375,7.35,26.375l-5.475,50.738h1.531Z"/><path class="cls-5" d="M71.065,18.831a26.439,26.439,0,0,0,3.783,7.745,58.906,58.906,0,0,1,5.513,9.315c1.009,2.083,3.251,9.652,2.962,8.064,0,0-1.885-9.186-4.369-14.748s-8.321-14.248-8.321-14.248Z"/><path class="cls-4" d="M87.718,43.515s-5.405-7.248-2.486-12.376,7.133-17.06,12.105-19.258,11.275-8.268,10.61-5.128-6.827,11.2-9.313,16.955S92.1,44.431,92.1,44.431L78.23,101.039l-.78-.417L89.892,45.9Z"/><path class="cls-4" d="M59.4,54.607s2.938,2.169,2.79-.975c-.3-6.3-4.972-11.191-7.566-13.235S39.4,24.454,43.6,35c3.1,7.8,12.559,16.65,12.559,16.65S60.908,59.912,62.2,64.1s10.368,36.713,10.368,36.713,1.912,4.513.777-.607c-1.5-6.77-6.982-23.253-7.782-27.395C64.155,65.534,59.4,54.607,59.4,54.607Z"/><path class="cls-4" d="M71.7,71.634s-4.756-9.11-4.756-8.951-4.107-12.191-4.107-12.191-4.324-8.582-1.514-9.21S68.026,53,70.188,56.458s6.965,8.554,3.891,11.2-.433,2.721-.433,2.721l3.345,32.445-1.646-.175Z"/><path class="cls-4" d="M58.842,57.621s-7.894-4.973-10.92-8.981-12.971-10.384-7.566-.916,16,14.959,16,14.959,3.29,8.951,4.023,11.882,11.3,28.258,11.3,28.258l-9.27-30.014L58.73,62.683S62.189,62.683,58.842,57.621Z"/><path class="cls-5" d="M43.626,31.427s2.54,1.8,5.636,4.422,7.1,5.644,8.867,8.294c1.7,2.551,3.181,5.828,1.361,2.8-4.076-6.78-9.5-8.188-11.089-9.589C47.757,36.786,41.178,32.007,43.626,31.427Z"/><path class="cls-5" d="M68.61,54.607a41.494,41.494,0,0,0,2.224,3.7c1.09,1.55,2.479,3.2,3.349,4.758a3.34,3.34,0,0,1-.032,3.767c-.678.829-2.164,2.81-2.164,2.81s1.466-2.36-.027-6.368S68.61,54.607,68.61,54.607Z"/><path class="cls-6" d="M57.631,107.167c6.2,2.248,12.949,2.5,19.564,2.722,1.5.051,3,.1,4.5.033a56.2,56.2,0,0,0,9.237-1.467"/><path class="cls-6" d="M64.8,131.329a70.616,70.616,0,0,0,10.706,2.033,23.659,23.659,0,0,0,10.734-1.3"/><path class="cls-2" d="M67.216,102.823c-.262-.287.928-1.631,1.262-1.837a1.087,1.087,0,0,1,1.12.06,2.047,2.047,0,0,1,.715.9c.6-.637,1.354-1.332,2.233-1.2s1.375.991,1.735,1.764a2.378,2.378,0,0,1,1.554-1.663,2.828,2.828,0,0,1,1.118-.275,1.889,1.889,0,0,1,1.851,1.776,1.915,1.915,0,0,1,1.783-2.151,2.319,2.319,0,0,1,2.3,1.809,2.251,2.251,0,0,1,.867-1.662.834.834,0,0,1,.866-.182.894.894,0,0,1,.324.391,8.605,8.605,0,0,1,.994,3.6,4.207,4.207,0,0,1,1.4-1.08,1.666,1.666,0,0,1,1.321,0,1.064,1.064,0,0,1,.62,1.076"/></svg>