<svg id="word" xmlns="http://www.w3.org/2000/svg" xmlns:xlink="http://www.w3.org/1999/xlink" viewBox="0 0 160 160"><defs><style>.cls-1,.cls-16{fill:#fff;}.cls-1,.cls-10,.cls-12,.cls-13,.cls-14,.cls-15,.cls-16,.cls-17,.cls-18,.cls-19,.cls-2,.cls-20,.cls-3,.cls-4,.cls-5,.cls-7,.cls-8,.cls-9{stroke:#9c4c9c;}.cls-1,.cls-15,.cls-16,.cls-17,.cls-18,.cls-19,.cls-2,.cls-20,.cls-3,.cls-4,.cls-5,.cls-7,.cls-8,.cls-9{stroke-width:0.592px;}.cls-2{fill:#fde1d3;}.cls-3{fill:#42506f;}.cls-4{fill:#fbe3d4;}.cls-20,.cls-5{fill:none;}.cls-6{fill:#9c4c9c;}.cls-7{fill:#d9bd4c;}.cls-8{fill:#c1c2c3;}.cls-9{fill:#fdf9ce;}.cls-10,.cls-12,.cls-13,.cls-14{stroke-width:0.615px;}.cls-10{fill:url(#radial-gradient);}.cls-11{fill:#38423a;}.cls-12{fill:url(#radial-gradient-2);}.cls-13{fill:url(#radial-gradient-3);}.cls-14{fill:url(#radial-gradient-4);}.cls-15{fill:#6a6a6c;}.cls-15,.cls-16{stroke-miterlimit:10;}.cls-17,.cls-18{fill:#fde6db;}.cls-18,.cls-20{stroke-linecap:round;}.cls-19{fill:#716558;}</style><radialGradient id="radial-gradient" cx="33.617" cy="-30.811" r="38.429" gradientTransform="matrix(0.989, -0.15, 0.149, 0.987, 71.408, 133.073)" gradientUnits="userSpaceOnUse"><stop offset="0.004" stop-color="#e5eecb"/><stop offset="0.406" stop-color="#c0c78a"/><stop offset="0.782" stop-color="#779f54"/><stop offset="0.982" stop-color="#52753b"/></radialGradient><radialGradient id="radial-gradient-2" cx="38.989" cy="-44.213" r="2.459" gradientTransform="matrix(0.989, -0.15, 0.149, 0.987, 71.469, 133.472)" gradientUnits="userSpaceOnUse"><stop offset="0" stop-color="#c0c78a"/><stop offset="0.982" stop-color="#7c7248"/></radialGradient><radialGradient id="radial-gradient-3" cx="-316.019" cy="92.827" r="38.429" gradientTransform="matrix(0.813, -0.123, 0.148, 0.977, 354.754, -23.399)" xlink:href="#radial-gradient"/><radialGradient id="radial-gradient-4" cx="-310.646" cy="79.425" r="2.459" gradientTransform="matrix(0.813, -0.123, 0.148, 0.977, 355.177, -20.6)" xlink:href="#radial-gradient-2"/></defs><path class="cls-1" d="M75.211,55.937c2.5.5,5.9,19.567,12.042,27.749,9.22,12.283-1.823,20.867-10.727,22.786L73.6,98.945s2.643-5.609,5.426-8.413-3.7-2.273-4.952-5.372S66.41,72.468,66.41,72.468l4.412-15.881"/><path class="cls-1" d="M37.4,52.685c.15-.758-5.869.275-8.317,4.344-1.913,3.181-10.7,15.166-12.925,18.561s-3.4,11.854-.741,15.089S30.957,92.194,31.1,91.1s-3.959-9.862-2.707-9.715a2.59,2.59,0,0,1,1.826,1.071s1.235-8.3,3.043-11.844,3.617-7.823,3.617-7.823"/><path class="cls-1" d="M60.419,47.86l14.792,8.077L65.539,91.49s-16.731-5.469-16.731-6.562-9.371-4.377-9.371-4.377-3.9-.921-4.343-2.988S34.068,57.22,33.956,56.734s-.542-3.348-.542-3.348L47.068,47.86"/><path class="cls-2" d="M47.156,38.969l-.078,9.848s10.093,10.871,13.2-.424C62.423,40.575,62.144,37.4,62.144,37.4Z"/><polygon class="cls-3" points="37.424 51.763 40.106 69.352 34.79 73.117 34.882 136.896 81.369 139.836 71.517 71.695 67.046 70 69.83 52.455 66.338 50.944 61.153 69.169 45.294 69.501 41.817 49.985 37.424 51.763"/><path class="cls-4" d="M28.939,81.268s2.126,2.388,2.584,2.831a38.925,38.925,0,0,1,3.45,3.445c.382.652,1.277,2.305,1.478,2.618A24.935,24.935,0,0,0,38.34,93.5c.348.16.844.5.576.914a.971.971,0,0,1-.934.529,3.465,3.465,0,0,1-.907-.418s.5,2.556.626,3.032.043,3.5-.783,3.937-.979-.224-.979-.224l-1.057-5.584s1.189,7.382.392,7.986-1.344-.192-1.358-.808-.774-3.2-.851-3.687-.87-3.658-.98-3.985-.545-1.439-.545-1.439.224,2.039.3,2.566.659,4.215.7,4.528.135,2.424-.683,2.735-1.037-.716-1.409-1.544a30.828,30.828,0,0,1-.858-4.2s-.567-4.55-.935-4.316A1.623,1.623,0,0,0,27.84,94.8c-.114.735-.6,4.373-.746,4.892a1.159,1.159,0,0,1-1.157.937c-.591-.05-1.1-.9-.866-1.856s-.122-1.857.1-3a23.551,23.551,0,0,0,.713-3.258c-.042-.685-1.124-1.342-.981-2.927s.4-2.314.081-2.927c-2.245-4.294-1.235-2.709-.765-4.314a4.457,4.457,0,0,1,1.93-1.439C27.807,80.2,27.235,81.136,28.939,81.268Z"/><path class="cls-5" d="M34.882,95.917c-.453-1.9-.619-3.263-1.719-4.821"/><path class="cls-5" d="M31.664,94.185c-.143-.555-.236-.593-.566-1.682"/><path class="cls-5" d="M37.053,94.709a7.675,7.675,0,0,0-1.551-4.03"/><path class="cls-4" d="M81.6,89.467A2.239,2.239,0,0,0,80,88.05c-.937-.218-2.227-.523-2.593-.637a36.274,36.274,0,0,0-4.567-1.34c-.724-.007-2.519.038-2.876.019s-3.356.251-3.672.022-.839-.507-1.035-.049a1.1,1.1,0,0,0,.058,1.122,3.618,3.618,0,0,0,.809.606s-2.322.868-2.768,1-2.844,1.78-2.766,2.754.689.772.689.772l5.047-1.941s-6.564,2.754-6.637,3.79.852,1.119,1.356.812,2.984-.961,3.412-1.142,3.4-1.11,3.719-1.18,1.443-.253,1.443-.253-1.759.857-2.224,1.06-3.738,1.589-4.011,1.714-2.024,1.136-1.849,2.04,1.115.568,1.974.475a26.564,26.564,0,0,0,3.83-1.4S71.3,94.448,71.3,94.905a1.668,1.668,0,0,1-.6,1.4c-.533.485-3.213,2.812-3.554,3.216a1.144,1.144,0,1,0,1.79,1.357c.649-.7,1.56-.853,2.37-1.649a21.8,21.8,0,0,1,2.255-2.337c.573-.317,1.665.323,2.866-.63s1.657-1.565,2.317-1.593C82.462,94.516,82.318,91.435,81.6,89.467Z"/><path class="cls-5" d="M61.634,89.888c1.766-.575,2.95-1.133,4.776-.945"/><path class="cls-5" d="M64.7,91.907c.521-.159.6-.095,1.649-.361"/><path class="cls-5" d="M61.48,87.292a6.633,6.633,0,0,1,4.052-.686"/><polygon class="cls-1" points="36.192 67.593 37.926 75.59 51.672 72.33 49.119 64.705 36.192 67.593"/><path class="cls-6" d="M37.518,70.729c-.033-.214-.065-.391-.094-.544l.383-.064.056.221h.005A.552.552,0,0,1,38.3,70c.313-.054.639.208.717.726.091.592-.193.928-.512.983a.421.421,0,0,1-.4-.122H38.1l.122.807-.44.076Zm.5.306a.551.551,0,0,0,.025.106.276.276,0,0,0,.294.195c.193-.033.278-.237.237-.512-.041-.26-.17-.438-.369-.405a.3.3,0,0,0-.225.3.315.315,0,0,0,0,.091Z"/><path class="cls-6" d="M40.547,70.916a2.389,2.389,0,0,0,.083.386l-.4.07-.051-.161-.01,0a.5.5,0,0,1-.376.27.464.464,0,0,1-.535-.42c-.064-.423.235-.679.738-.765l0-.022c-.014-.089-.071-.2-.291-.167a.753.753,0,0,0-.374.191l-.13-.313a1.076,1.076,0,0,1,.529-.241c.474-.083.672.213.731.6Zm-.506-1.788.043.282-.728.125-.042-.28Zm.02,1.483c-.231.041-.4.135-.374.327a.171.171,0,0,0,.2.165.26.26,0,0,0,.2-.227.376.376,0,0,0,0-.088Z"/><path class="cls-6" d="M40.79,70.154c-.037-.239-.064-.394-.094-.533l.378-.065.062.3.012,0a.441.441,0,0,1,.332-.405.432.432,0,0,1,.1-.008l.074.477a.685.685,0,0,0-.121.008.3.3,0,0,0-.264.308.8.8,0,0,0,.008.115l.126.825-.442.076Z"/><path class="cls-6" d="M43.057,68.46l.286,1.876c.029.182.062.375.086.484l-.393.066-.053-.232-.008,0A.507.507,0,0,1,42.57,71c-.337.06-.658-.223-.736-.729-.086-.549.165-.92.5-.979a.414.414,0,0,1,.4.119h.008l-.136-.879Zm-.225,1.5a.477.477,0,0,0-.02-.092.275.275,0,0,0-.3-.2c-.2.035-.273.258-.234.514.043.276.187.43.371.4a.284.284,0,0,0,.221-.287.7.7,0,0,0-.009-.12Z"/><path class="cls-6" d="M44.014,70.05c.042.206.24.276.446.24a1.087,1.087,0,0,0,.383-.138l.111.333a1.263,1.263,0,0,1-.5.192.725.725,0,0,1-.885-.7.807.807,0,0,1,.584-.993c.461-.079.7.3.759.7a1.084,1.084,0,0,1,.015.2Zm.465-.437c-.019-.123-.1-.32-.3-.286-.185.032-.233.241-.223.377Z"/><path class="cls-6" d="M45.37,68.814l.307.723c.056.134.1.257.142.38h.009c0-.137.007-.265.019-.411l.066-.787.467-.08L46.1,70.359l-.443.076L44.89,68.9Z"/><path class="cls-6" d="M47.028,69.529c.043.208.24.276.447.239a1.019,1.019,0,0,0,.383-.137l.11.333a1.24,1.24,0,0,1-.5.193.728.728,0,0,1-.888-.7.808.808,0,0,1,.586-.993c.459-.08.7.3.758.7a1.233,1.233,0,0,1,.017.2Zm.382-1.672.043.281-.727.126-.043-.281Zm.084,1.236c-.018-.122-.1-.321-.3-.286-.186.033-.233.242-.223.377Z"/><path class="cls-6" d="M48.079,70.345a.381.381,0,0,0,.247-.152c.051-.087.055-.22.005-.544l-.2-1.311.443-.075.219,1.432a1.009,1.009,0,0,1-.091.745.783.783,0,0,1-.517.294Zm.436-2.539a.245.245,0,0,1-.2.3.232.232,0,0,1-.268-.214.243.243,0,0,1,.194-.294A.231.231,0,0,1,48.515,67.806Z"/><path class="cls-6" d="M49.1,69.391a.785.785,0,0,0,.4.054c.133-.024.181-.082.168-.165s-.062-.119-.234-.155c-.316-.061-.457-.226-.483-.421a.552.552,0,0,1,.495-.634.876.876,0,0,1,.417.027l-.025.363a.641.641,0,0,0-.321-.039c-.108.018-.162.079-.149.159s.073.109.258.149a.506.506,0,0,1,.462.436c.045.306-.128.565-.534.634a.884.884,0,0,1-.477-.037Z"/><rect class="cls-7" x="27.047" y="127.11" width="111.279" height="18.344"/><rect class="cls-8" x="52.461" y="99.534" width="4.815" height="25.809"/><polygon class="cls-8" points="34.314 139.383 73.696 139.135 73.413 124.557 33.88 124.557 34.314 139.383"/><path class="cls-8" d="M66.558,106.682l5.4-15.517s2.272-8.285-1.7-10.7S42.7,79.114,42.7,79.114s-4.969,1.054-4.969,5.573c0,2.866,5.4,22.447,5.4,22.447Z"/><rect class="cls-9" x="44.264" y="86.285" width="21.65" height="7.591"/><path class="cls-6" d="M62.247,87.629c.862,0,1.476.868,1.476,2.445-.013,1.555-.574,2.415-1.4,2.415-.941,0-1.477-.882-1.477-2.481C60.842,88.511,61.352,87.629,62.247,87.629Zm.033.492c-.595,0-.863.759-.863,1.917,0,1.2.281,1.959.869,1.959.523,0,.863-.694.863-1.916C63.149,88.8,62.783,88.121,62.28,88.121Z"/><path class="cls-6" d="M58.894,87.629c.862,0,1.476.868,1.476,2.445-.013,1.555-.575,2.415-1.4,2.415-.941,0-1.477-.882-1.477-2.481C57.489,88.511,58,87.629,58.894,87.629Zm.032.492c-.594,0-.862.759-.862,1.917,0,1.2.281,1.959.869,1.959.523,0,.862-.694.862-1.916C59.8,88.8,59.43,88.121,58.926,88.121Z"/><path class="cls-6" d="M56.736,93.256a9.385,9.385,0,0,1-.621-1.757l.64.072a11.4,11.4,0,0,0,.392,1.728Z"/><path class="cls-6" d="M54.187,87.629c.863,0,1.477.868,1.477,2.445-.013,1.555-.575,2.415-1.405,2.415-.941,0-1.477-.882-1.477-2.481C52.782,88.511,53.292,87.629,54.187,87.629Zm.033.492c-.595,0-.863.759-.863,1.917,0,1.2.282,1.959.869,1.959.523,0,.863-.694.863-1.916C55.089,88.8,54.723,88.121,54.22,88.121Z"/><path class="cls-6" d="M50.834,87.629c.862,0,1.477.868,1.477,2.445-.014,1.555-.576,2.415-1.405,2.415-.941,0-1.477-.882-1.477-2.481C49.429,88.511,49.939,87.629,50.834,87.629Zm.032.492c-.594,0-.862.759-.862,1.917,0,1.2.281,1.959.869,1.959.523,0,.862-.694.862-1.916C51.735,88.8,51.37,88.121,50.866,88.121Z"/><path class="cls-10" d="M107.16,81.55s7.358.15,15.023,6.658c7.417,6.3,9.935,14.2,8.2,24.325s-9.815,20.46-18.086,22.521-20.181.977-25.516-5.695c-2.108-2.636-8.077-9-7.662-19.805s3.022-18.036,9.563-22.484S99.455,81.32,107.16,81.55Z"/><path class="cls-11" d="M106.813,85.28s3.635.921,4.415,2.569.978,3.456,1.521,3.521,2.749.1,1.937,1.252a2.309,2.309,0,0,0,.733,3.346c1.182.777,2.658.994,1.486,2.791s-1.988,1.919-1.1,3.256.884,3.323,1.83,3.547a1.272,1.272,0,0,1,.782,2.163c-.835,1.008-1.7,1.286-1.361,2.044s.949,1.254,1.41,2.288.758,1.5.486,2.207-.414-.232-.684,1.5a4.3,4.3,0,0,1-1.636,2.747c-.391.428-.336.787.3,1.5s.411,2.217-.36,3.144a2.169,2.169,0,0,0-.437,2.125,34.194,34.194,0,0,1-1.088,4.357,2.885,2.885,0,0,1-1.871,2.2,25.394,25.394,0,0,0-3.256,1.651s3.512-6.986,4.144-8.331.606-2.52-.33-3.187-2.742-1.055-1-2.056,2.189-2.1,1.5-3.169-1.535-1.606-.343-3.773.968-2.132-.055-3.375-2.448-1.615-1.41-2.288,2.2-.995.894-2.121-2.255-1.351-1.282-2.454.5-2.209.851-4.91-1.452-5.076-1.943-5.811-.412-2.218-.886-3.838S106.813,85.28,106.813,85.28Z"/><path class="cls-11" d="M104.014,85.852s-.359,3.144.4,3.618,1.626.709.8,1.79-2.793-.386-1.716,1.216,2.392.742,1.5,2.348-1.979,1.477-1.041,2.145,2.292.093,1.5.875-1.36-.455-1.308,1.89.673,1.443.466,2.577-.779,1.884-.84,2.482-1.013,1.329.627,2.627,4.624-.554,2.308,1.71-2.923,1.766-2.905,3.382a3.1,3.1,0,0,0,1.07,2.559c.458.519,1.576,1.38,1.3,2.6s1.735,1.429,1.324,2.226-5.214,14.41-5.214,14.41-.944-12.448.141-14.3,1.5-2.139.012-5.444-1.068-4.546-.681-6-1.267-3.853-1.267-3.853,1.873-1.682.668-3.117-3.37-1.182-2.874-1.919.515-1.623,1.613-2.893-.19-2.765.8-3.725,1.692,1.141,1.374-1.458-.878-2.3-.214-3.425A10.674,10.674,0,0,1,104.014,85.852Z"/><path class="cls-11" d="M99.248,85.984s-2.1,2.157-1.047,3.616,1.272,2.382-.829,2.553-1.982.447-1.869,2.2-.638,2.817-.8,4.239.19,2.252.742,2.389,1.737-1.072.819.392-1.92.365-1.842,1.381-.168.393.484,1.693.749,4.447.463,4.563.994,1.541,1.281,1.94-2.149,1.355-2.3,1.892.518,2.422.779,4.149-.905,2.049-1.207,3.566-.933,2.863-1,3.46-1.235-1.137-1.457-3.6-2.871-3.905-1.081-5.132.22-1.064.964-3.677a7.092,7.092,0,0,0,0-4.488c-.173-1.15-.353-.829.556-1.849s2.944-1.623.427-2.2-2.842-2.217-1.676-2.541,1.3-.419,1.806-2.113-.485-2.206.561-3.321,1.544-1.337,1.719-2.687-1.32-1.2.458-2.5A10.191,10.191,0,0,0,97.884,87Z"/><path class="cls-12" d="M103.253,82.807s-4.151.7-2.863,1.681,4.746.752,5.763-.064S106.815,82.606,103.253,82.807Z"/><path class="cls-11" d="M108.476,83.888s6.546,2.43,7.983,3.39,1.3,3.04,1.987,3.6,1.1-.24,1.644,2.325,2.569,2.922,2.946,4.409,1.444.517,2.1,1.816.054.36-.405,2.342-1.581,3.107.374,3.474.272,1.8.125,2.334a7.977,7.977,0,0,0,.416,3.248c.321.613,1.028,2.271.69,3.058s-2.121.027-1.351,1.6a3.221,3.221,0,0,0,2.172,1.8,2.506,2.506,0,0,0-1.246,1.806c-.186,1.279-.556,1.85-.436,2.64s-1.033,1.7-1.4,2.273-.514,1.622-.842,1.966a6.721,6.721,0,0,1-.878.722,5.979,5.979,0,0,1,.661-2.16c.4-.355-2.714.631-1.339-.313s2.564-1.123,2.421-2.573a5.592,5.592,0,0,0-.775-2.6c-.588-1.381-1.993.375-.729-2.317s1.379-2.93,1.1-3.256-1.265-.323-1.3-1.569a22.006,22.006,0,0,1,.528-3.537c.176-1.349-1.131-1.446-.669-2.915s2.23.178.6-2.518-2.665-3.569-2.731-4a20.079,20.079,0,0,1-.073-2.49c-.007-1.543-.281-3.856-1.334-4.8a16.465,16.465,0,0,1-2.871-3.224C114.6,86.7,108.476,83.888,108.476,83.888Z"/><path class="cls-11" d="M98.683,84.747A32.3,32.3,0,0,1,94.267,87.7c-1.77.857-1.661,1.575-1.868,2.71A2.233,2.233,0,0,1,90.59,92c-.372.056-1.753-.544-1.642.69s-.629,2.375-.71,3.344-1.287,2.033-.374,2.041,2.585-.979,1.583.424-2.394,1.244-2.621,2.751-2.217,6.44-1.31,7.406,1.275.4.684,1.514-1.406,1.243-1.165,3.34a13.482,13.482,0,0,0,1.357,4.944c.458.519-3.072-3.729-2.614-6.225s.019-3.387.023-5.373-1.23-2.094-.5-3.307a8.325,8.325,0,0,0,1.008-2.875c.082-.454,1.157.12,1.267-1.663s-.432-1.847.128-2.667.4-2.856,1.969-4.05S90.8,89.4,91.9,88.641s2.791-2.629,3.936-3.1A18.688,18.688,0,0,1,98.683,84.747Z"/><path class="cls-11" d="M110.807,83.058s4.224,1.343,5.87,1.682,5.687,4.348,6.306,4.917.495,1.34,1.164,1.753.361-.129.97.882,1.623,2.7,2.2,3.492.025.658.709,2.173,1.952,2.353,2.126,3.5-1.217.994-.9,3.079,1.186,1.807.948,3.756a29.19,29.19,0,0,0-.281,4.161,20.751,20.751,0,0,1-.372,2.557s-.324-7.159-.3-7.973-1.463-2.647-.832-3.993,1.449-1.47.169-2.894-1.947-1.323-2.232-3.708-1.964-2.939-2.38-3.686-3.541-1.816-3.93-3.376-.489-2.873-1.54-2.787-.648-.633-2.231-1.055A42.772,42.772,0,0,1,110.807,83.058Z"/><path class="cls-11" d="M97.155,84.105a4.77,4.77,0,0,0-1.309.535,8.841,8.841,0,0,1-2.14.922c-1.066.349-1.213.147-2.053.723s-.453,1.077-1.505,1.536-.777-.031-1.316.236-.337.836-1.009,1.238-.706.443-1.315.76-.03.3-.959,1.566a17.016,17.016,0,0,0-1.6,2.449,15.877,15.877,0,0,0-1.618,3.087,20.321,20.321,0,0,1-1.161,2.794,44.171,44.171,0,0,1,1.472-4.561c.5-1.012,1.918-3.918,2.245-4.305a19.321,19.321,0,0,1,4.227-3.967,18.012,18.012,0,0,1,5.645-2.763C96.733,83.869,97.155,84.105,97.155,84.105Z"/><path class="cls-13" d="M117.4,93.29s6.048.1,12.329,5.3c6.079,5.032,8.125,11.376,6.669,19.506s-8.129,16.456-14.934,18.135-16.591.844-20.957-4.5c-1.725-2.11-6.613-7.2-6.24-15.878s2.538-14.49,7.928-18.08S111.07,93.128,117.4,93.29Z"/><path class="cls-11" d="M117.107,96.286s2.985.729,3.622,2.049.793,2.772,1.239,2.823,2.259.07,1.588,1a1.824,1.824,0,0,0,.593,2.684c.969.621,2.182.791,1.214,2.237s-1.64,1.547-.916,2.617.716,2.665,1.493,2.843,1.326.921.637,1.734-1.405,1.038-1.126,1.646.777,1,1.153,1.832.619,1.2.393,1.77-.34-.184-.567,1.207a3.478,3.478,0,0,1-1.353,2.211c-.322.345-.279.633.245,1.2a2.107,2.107,0,0,1-.3,2.526,1.717,1.717,0,0,0-.367,1.707,26.922,26.922,0,0,1-.906,3.5,2.343,2.343,0,0,1-1.545,1.768,21.185,21.185,0,0,0-2.681,1.336s2.907-5.62,3.431-6.7.506-2.025-.262-2.557-2.251-.84-.812-1.648,1.806-1.691,1.238-2.549-1.256-1.285-.271-3.028.8-1.715-.034-2.71-2.008-1.289-1.152-1.833,1.814-.805.741-1.7-1.85-1.078-1.047-1.966.418-1.775.714-3.945-1.178-4.071-1.58-4.66-.332-1.779-.717-3.078S117.107,96.286,117.107,96.286Z"/><path class="cls-11" d="M114.8,96.753s-.3,2.526.315,2.9,1.334.565.655,1.435-2.3-.3-1.414.981,1.963.589,1.222,1.881-1.631,1.192-.863,1.725,1.884.068,1.229.7-1.116-.362-1.081,1.521.55,1.157.376,2.068-.646,1.515-.7,2-.837,1.07.507,2.107,3.8-.458,1.893,1.366-2.408,1.426-2.4,2.724a2.443,2.443,0,0,0,.872,2.051c.375.416,1.291,1.1,1.065,2.082s1.422,1.142,1.082,1.783-4.329,11.585-4.329,11.585-.739-9.991.159-11.484,1.239-1.722.025-4.372-.864-3.646-.542-4.817-1.03-3.089-1.03-3.089,1.545-1.356.559-2.5-2.767-.939-2.357-1.532a10.714,10.714,0,0,1,1.335-2.327c.907-1.023-.149-2.221.671-2.994s1.388.911,1.134-1.175-.715-1.84-.166-2.749A8.766,8.766,0,0,1,114.8,96.753Z"/><path class="cls-11" d="M110.886,96.874s-1.735,1.738-.871,2.906,1.039,1.908-.689,2.052-1.631.365-1.543,1.769-.533,2.263-.672,3.406.149,1.807.6,1.916,1.43-.866.671.312-1.579.3-1.518,1.114-.139.316.393,1.358.6,3.568.367,3.662.812,1.235,1.047,1.554-1.77,1.094-1.892,1.526a24.219,24.219,0,0,0,.628,3.328c.21,1.384-.75,1.648-1,2.867s-.775,2.3-.828,2.781-1.012-.909-1.187-2.889-2.348-3.127-.873-4.118.183-.854.8-2.954a5.563,5.563,0,0,0,.016-3.6c-.139-.923-.288-.665.462-1.486s2.425-1.311.358-1.766-2.33-1.772-1.37-2.035,1.072-.34,1.491-1.7-.393-1.77.471-2.668,1.273-1.078,1.421-2.163-1.082-.957.383-2.006a8.326,8.326,0,0,0,2.208-2.341Z"/><path class="cls-14" d="M114.188,94.311s-3.414.574-2.358,1.358,3.9.59,4.736-.068S117.117,94.139,114.188,94.311Z"/><path class="cls-11" d="M118.478,95.163a63.1,63.1,0,0,1,6.552,2.7c1.177.766,1.056,2.438,1.623,2.883s.907-.2,1.344,1.862,2.1,2.338,2.408,3.53,1.187.412,1.719,1.452.044.289-.34,1.882-1.308,2.5.3,2.788.219,1.442.1,1.874a6.261,6.261,0,0,0,.332,2.606c.262.491.839,1.82.559,2.453s-1.744.028-1.116,1.29a2.618,2.618,0,0,0,1.78,1.443,2.043,2.043,0,0,0-1.029,1.454,8.308,8.308,0,0,0-.366,2.121c.1.635-.855,1.369-1.161,1.829s-.427,1.3-.7,1.581a5.574,5.574,0,0,1-.724.582s.218-1.45.549-1.736-2.233.514-1.1-.247,2.111-.91,2-2.073a4.387,4.387,0,0,0-.629-2.089c-.479-1.107-1.639.307-.592-1.858s1.142-2.356.915-2.617-1.038-.256-1.065-1.256a17.423,17.423,0,0,1,.445-2.842c.149-1.083-.925-1.157-.541-2.338s1.832.137.5-2.023-2.181-2.858-2.233-3.2a15.445,15.445,0,0,1-.053-2c0-1.239-.219-3.1-1.083-3.85a13.182,13.182,0,0,1-2.35-2.58C123.5,97.4,118.478,95.163,118.478,95.163Z"/><path class="cls-11" d="M110.425,95.882a26.852,26.852,0,0,1-3.638,2.381c-1.458.692-1.37,1.269-1.544,2.18a1.843,1.843,0,0,1-1.492,1.289c-.305.046-1.439-.431-1.352.559s-.523,1.909-.593,2.686-1.064,1.637-.314,1.641,2.129-.794,1.3.335-1.971,1.006-2.162,2.216-1.842,5.177-1.1,5.95,1.047.315.558,1.214-1.16,1-.967,2.685a10.55,10.55,0,0,0,1.1,3.965c.375.416-2.514-2.984-2.13-4.99s.026-2.719.034-4.313-1-1.678-.4-2.654a6.622,6.622,0,0,0,.837-2.311c.069-.365.951.092,1.046-1.339s-.35-1.482.113-2.142.34-2.294,1.631-3.257,2.582-2.339,3.49-2.948,2.3-2.12,3.244-2.5A15.67,15.67,0,0,1,110.425,95.882Z"/><path class="cls-11" d="M120.4,94.49s3.469,1.066,4.82,1.334,4.662,3.473,5.169,3.929.4,1.073.953,1.4.3-.1.794.7,1.326,2.161,1.8,2.8.018.528.576,1.742,1.6,1.883,1.737,2.807-1,.8-.751,2.474.97,1.447.769,3.013a22.827,22.827,0,0,0-.244,3.341,16.4,16.4,0,0,1-.313,2.055s-.245-5.747-.22-6.4-1.2-2.12-.672-3.2,1.2-1.185.148-2.324-1.6-1.057-1.824-2.97-1.606-2.354-1.946-2.953-2.905-1.448-3.22-2.7-.394-2.3-1.258-2.233-.531-.506-1.831-.84A35.264,35.264,0,0,1,120.4,94.49Z"/><path class="cls-11" d="M109.172,95.371a4.023,4.023,0,0,0-1.079.434,7.391,7.391,0,0,1-1.761.746c-.878.283-1,.122-1.69.587s-.376.866-1.241,1.238-.639-.023-1.083.193-.279.672-.833,1-.582.358-1.083.614-.026.244-.793,1.26a13.733,13.733,0,0,0-1.322,1.971,12.8,12.8,0,0,0-1.339,2.484,16.322,16.322,0,0,1-.963,2.246,34.984,34.984,0,0,1,1.224-3.666c.417-.814,1.588-3.152,1.858-3.463a15.9,15.9,0,0,1,3.486-3.2,15.1,15.1,0,0,1,4.649-2.235C108.825,95.183,109.172,95.371,109.172,95.371Z"/><ellipse class="cls-15" cx="79.353" cy="139.479" rx="10.784" ry="1.725"/><rect class="cls-15" x="78.199" y="123.476" width="2.588" height="15.185"/><rect class="cls-16" x="63.587" y="112.757" width="30.843" height="11.647"/><path class="cls-6" d="M74.612,115.988l-.262.791h-.335l.854-2.515h.392l.858,2.515h-.347l-.269-.791Zm.824-.254-.246-.724c-.056-.164-.094-.314-.131-.459h-.007c-.037.149-.078.3-.127.455l-.246.728Z"/><path class="cls-6" d="M76.49,114.3a3.447,3.447,0,0,1,.623-.052,1.029,1.029,0,0,1,.728.2.627.627,0,0,1,.2.478.661.661,0,0,1-.474.642v.011a.629.629,0,0,1,.37.508,3.939,3.939,0,0,0,.194.69h-.336a3.237,3.237,0,0,1-.169-.6c-.074-.348-.208-.478-.5-.489h-.306v1.089H76.49Zm.325,1.146h.332c.347,0,.567-.19.567-.477,0-.325-.235-.467-.578-.47a1.291,1.291,0,0,0-.321.029Z"/><path class="cls-6" d="M78.5,114.3a3.225,3.225,0,0,1,.593-.052,1.035,1.035,0,0,1,.691.184.525.525,0,0,1,.208.443.6.6,0,0,1-.425.552v.008a.648.648,0,0,1,.519.631.68.68,0,0,1-.213.5A1.264,1.264,0,0,1,79,116.8a3.777,3.777,0,0,1-.5-.03Zm.325,1.03h.294c.344,0,.546-.179.546-.421,0-.3-.225-.41-.553-.41a1.521,1.521,0,0,0-.287.021Zm0,1.206a1.745,1.745,0,0,0,.272.015c.336,0,.646-.124.646-.489,0-.344-.3-.485-.65-.485h-.268Z"/><path class="cls-6" d="M80.848,114.264v1.489c0,.564.249.8.585.8.374,0,.613-.246.613-.8v-1.489h.328v1.466c0,.772-.407,1.09-.952,1.09-.515,0-.9-.295-.9-1.075v-1.481Zm1.044-.426v.205H81v-.205Z"/><path class="cls-6" d="M82.767,116.588l1.4-2.041v-.011H82.886v-.272h1.7v.2L83.2,116.5v.01H84.6v.273H82.767Z"/><path class="cls-6" d="M85.328,114.264v2.515H85v-2.515Z"/><path class="cls-6" d="M72.83,120.637c0,1.345-.525,2.269-1.6,2.269s-1.567-1.011-1.574-2.242c0-1.259.519-2.256,1.607-2.256C72.39,118.408,72.83,119.446,72.83,120.637Zm-2.183.027c-.006,1,.227,1.472.609,1.472s.589-.495.589-1.486c0-.964-.2-1.472-.595-1.472C70.887,119.178,70.641,119.653,70.647,120.664Z"/><path class="cls-6" d="M73.06,123.629a11.535,11.535,0,0,0,.466-1.9l1-.067a9.4,9.4,0,0,1-.816,1.908Z"/><path class="cls-6" d="M76.747,122.833V121.8H74.881v-.662l1.593-2.652h1.2v2.551h.5v.763h-.5v1.038Zm0-1.8v-.965c0-.26.012-.528.032-.81h-.026c-.136.282-.246.536-.389.81l-.563.952v.013Z"/><path class="cls-6" d="M78.913,122.1a2.151,2.151,0,0,0,.428,0,1.641,1.641,0,0,0,.829-.268,1.35,1.35,0,0,0,.53-.8l-.019-.006a1.1,1.1,0,0,1-.842.315,1.29,1.29,0,0,1-1.315-1.36,1.556,1.556,0,0,1,1.588-1.566c1.081,0,1.593.857,1.593,1.874a2.646,2.646,0,0,1-.739,2,2.452,2.452,0,0,1-1.606.609,3.3,3.3,0,0,1-.447,0Zm.6-2.181c0,.374.194.695.6.695a.615.615,0,0,0,.544-.287.5.5,0,0,0,.051-.256c0-.461-.168-.916-.614-.916C79.749,119.151,79.5,119.458,79.509,119.915Z"/><path class="cls-6" d="M84.617,120.938h.013c.072-.134.149-.268.227-.395l.641-.984h1.185l-1.133,1.326,1.3,1.948H85.634l-.764-1.346-.253.322v1.024h-.985V118.08h.985Z"/><path class="cls-6" d="M90.08,119.559c-.013.208-.026.482-.026.971v1.827a1.58,1.58,0,0,1-1.768,1.875,2.42,2.42,0,0,1-1.14-.254l.194-.77a1.907,1.907,0,0,0,.92.248.77.77,0,0,0,.823-.865v-.213H89.07a1,1,0,0,1-.855.428,1.425,1.425,0,0,1-1.341-1.6,1.547,1.547,0,0,1,1.438-1.72.946.946,0,0,1,.868.461h.013l.032-.388Zm-1.01,1.332a.819.819,0,0,0-.02-.187.544.544,0,0,0-.531-.448c-.356,0-.647.335-.647.93,0,.489.233.871.647.871a.539.539,0,0,0,.518-.416.888.888,0,0,0,.033-.268Z"/><path class="cls-17" d="M64.3,19.917s1.1,3.651.954,4.641a14.654,14.654,0,0,0,.02,3.9c.2.991,1.312,5.251.949,7.373s-3.406,9.913-4.189,10.5-5.2,1.2-7.151.612a27.687,27.687,0,0,1-5.714-2.716c-2.016-1.158-5.3-4.172-5.742-5.552S42,31.183,41.849,29.846s-.922-12.931,1.516-14.29,6.7-2.954,9.517-2.486,9.2,2.372,9.755,2.959A20.739,20.739,0,0,1,64.3,19.917Z"/><path class="cls-18" d="M58.463,25.533s.958,4.838,1.129,5.369.9,1.954.617,2.215-.905.068-1.638.313a5.77,5.77,0,0,1-1.873.229"/><path class="cls-19" d="M62.385,17.056a10.966,10.966,0,0,1,1.369,2.173,15.351,15.351,0,0,0,.669,1.869,14.954,14.954,0,0,1,.619,1.861l-.34-2.073.71.915s-.665-2.223-.849-2.656.575.137.575.137-.693-1.366-.85-1.642,1.335.044.788-.289-1.031-1.771-1.417-2.182.593-.317.192-.629.254-1.379-.525-1.494a8.7,8.7,0,0,1-1.715-.5s-.437-1.078-.583-1.1-.518-1.542-.835-1.083a2.137,2.137,0,0,1-1.118.846c-.475.182-.262-.6-1.34-1.361s-1.2-.279-1.2-.279A6.679,6.679,0,0,0,54.3,8.526c-.972-.144.514.228-.441.289s-1.415-.513-2.885-.326-.735.6-1.438.648a13,13,0,0,0-2.082.3c-.314.107,1.077.11-.3.361s-1.461.8-1.967,1.53-.757.747-.757.747-1.351.053-1.775.9-.622,1.527-1.064,1.815-1.683.965-1.683.965-1.018.507-1.244.675.452.977.452.977a3.493,3.493,0,0,0-1.415.5c-.607.416.865.533.865.533l-1.22.527,1.407.562-.759.09.892,1.7-1.634-.04,2.208,2.552-1.027.557.438.064,0,.657-.473.841s.849-.026.827.122a5.025,5.025,0,0,1-.569.827,2.011,2.011,0,0,1,1.058.914,14.729,14.729,0,0,1,.934,1.757c.395,1.019,1.154,1.941,1.248,2.309a11.55,11.55,0,0,0,.6,1.351l1.856.225a2.712,2.712,0,0,1-.536-2.76A9.029,9.029,0,0,0,45.1,26.381c-.1-1.33-.038-2.432-.169-3.565a16.663,16.663,0,0,1,.038-3.281c.073-.494.2-1.336.638-1.625s2.338-1.019,2.83-1.654,2.575-.935,4.115-1.264,2.246-.729,3.85-.491,2.346-.059,3.373.4S61.928,15.773,62.385,17.056Z"/><path class="cls-18" d="M64.722,24.783s-2.885-1.449-4.216-1.142"/><path class="cls-18" d="M54.462,24.153s-2.176.084-3.073.1a4.82,4.82,0,0,0-2.663.717"/><path class="cls-17" d="M41.991,30.574s-1.3-.6-2.025-.1-.714,1.463-.213,2.447a5.435,5.435,0,0,1,.921,2.513,9.255,9.255,0,0,0,1.047,3.341c.331.453,1.482,1.079,1.652.6s.482-1.244.482-1.244"/><path class="cls-1" d="M51.994,26.748a3.39,3.39,0,0,0-1.88,2.2C49.8,30.472,51.994,31,52.327,31c.737.006,1.631-2.659,1.338-3.308S52.5,26.185,51.994,26.748Z"/><path class="cls-6" d="M51.908,28.5s-.571,1.3.272,1.828,1.124-.391,1.285-.661c.29-.488.045-1.735-.554-1.763A1.086,1.086,0,0,0,51.908,28.5Z"/><path class="cls-1" d="M62.947,26.443a3.4,3.4,0,0,0-1.88,2.2c-.31,1.529,1.88,2.052,2.213,2.055.737.007,1.631-2.658,1.338-3.307S63.452,25.88,62.947,26.443Z"/><path class="cls-6" d="M62.862,28.194s-.572,1.3.271,1.828,1.125-.39,1.285-.661c.29-.488.045-1.734-.554-1.762A1.084,1.084,0,0,0,62.862,28.194Z"/><path class="cls-20" d="M55.064,36.556a3.63,3.63,0,0,0,2,1.1,8.219,8.219,0,0,0,2.313.1c.671-.046,1.459-.2,1.729-.82"/></svg>