<svg id="word" xmlns="http://www.w3.org/2000/svg" xmlns:xlink="http://www.w3.org/1999/xlink" viewBox="0 0 160 160"><defs><style>.cls-1{fill:#d6de23;}.cls-1,.cls-10,.cls-11,.cls-12,.cls-13,.cls-14,.cls-16,.cls-17,.cls-18,.cls-2,.cls-3,.cls-4,.cls-5,.cls-6,.cls-7,.cls-8,.cls-9{stroke:#9d4b9c;stroke-width:0.661px;}.cls-2{fill:#f7ee6d;}.cls-3{fill:#81c6ed;}.cls-14,.cls-4{fill:#fff;}.cls-5{fill:#5a91cc;}.cls-6{fill:#d9b57a;}.cls-7{fill:#d8ab77;}.cls-8{fill:#f2d480;}.cls-9{fill:#fde2d4;}.cls-10{fill:#00adee;}.cls-11{fill:#fde4d5;}.cls-12,.cls-16{fill:none;}.cls-12,.cls-14{stroke-linecap:round;}.cls-13{fill:url(#linear-gradient);}.cls-15{fill:#9d4b9c;}.cls-17{fill:#8b8bc3;}.cls-18{fill:#d67fb3;}</style><linearGradient id="linear-gradient" x1="5343.245" y1="474.538" x2="5349.921" y2="474.538" gradientTransform="matrix(-0.928, -0.373, -0.373, 0.928, 5216.87, 1590.636)" gradientUnits="userSpaceOnUse"><stop offset="0" stop-color="#882922"/><stop offset="1" stop-color="#d24c56" stop-opacity="0"/></linearGradient></defs><path class="cls-1" d="M74.633,61.831s-9.38.641-12.146,2.268S52.5,73.355,51.5,74.484s-3.5,3.02-4.124,3.1-3.1.38-1.8,1.732,2.965,3.5,4.406,2.118,6.183-5.328,8.934-7.314c4-2.9,3.534-6.108,6.1-6.147s10.521,1.772,10.521,1.772Z"/><path class="cls-2" d="M54.527,77.99a3.644,3.644,0,0,1-1.543,2.853c-.322.246-2.532,1.574-2.532,1.574s-3.369,1.1-3.788.036a21.118,21.118,0,0,1-.447-4.494s1.433-.482,1.8-1.279,2.327-1.427,2.327-1.427-1.411,1.8.153,2.734S53.875,78.711,54.527,77.99Z"/><path class="cls-3" d="M51.247,82.918s-.742,3.726-3.148,3.453-3.783-2.018-5.171-2.288-4.5-3.2-4.9-4.191-1.355-4.291-.317-5.107,1.676-.5,2.532.146,2.655,2.627,3.507,2.617a5.805,5.805,0,0,1,1.865.4s2.58-1.02,2.493.485a8.021,8.021,0,0,1-1.071,3.123l1.038.9a5.418,5.418,0,0,1,1.79-.871A3.79,3.79,0,0,1,51.9,82Z"/><path class="cls-4" d="M44.086,80.111a2.452,2.452,0,0,0,.2-1.636c-.233-.8-1.2-1.882-1.369-1.243a3.864,3.864,0,0,0,.321,1.824S43.477,81.579,44.086,80.111Z"/><path class="cls-4" d="M45.41,80.36a6.022,6.022,0,0,0,.959-1.521.786.786,0,0,0-.394-1.072,2.175,2.175,0,0,0-1.283-.147s.148-.139.479.709-.392,1.872-.444,2.031S44.609,81.139,45.41,80.36Z"/><path class="cls-4" d="M49.637,85.881a7.368,7.368,0,0,1-2.336-.162,10.657,10.657,0,0,1-3.056-1.545c-.7-.7-2.162-.807-2.987-1.6s-2.575-2.2-3.161-3.68a8.893,8.893,0,0,1-.252-4.155s-.524-.388-.886.981a5.838,5.838,0,0,0,.756,4.659c.965,1.281,2.873,3.223,3.815,3.533a9.5,9.5,0,0,1,2.5.861,13.156,13.156,0,0,0,3.785,1.881C49.414,86.9,49.637,85.881,49.637,85.881Z"/><path class="cls-5" d="M51.9,82a2.135,2.135,0,0,0-1.57-.54c-.93.1-2.557.868-2.254.994s.952-.123,1.689.021A5.6,5.6,0,0,1,51.2,83l.7-1"/><path class="cls-5" d="M38.1,78.9s-.1-1.622.352-2.128,1.921-1.388,1.194-2.22c-.819-.936-1.8.193-1.8.193s-.1,1.294-.1,2.168A5.891,5.891,0,0,0,38.1,78.9Z"/><path class="cls-1" d="M86.058,66.024l-10.167-2.1a15.425,15.425,0,0,1-1.048,1.258c-.419.419-4.507.734-4.507.734l.008.015c-2.611.09-5.595.46-6.781,1.62-2.3,2.246-5.554,12.288-6.245,13.623s-2.67,3.782-3.251,4S51.15,86.3,52.737,87.3s3.724,2.68,4.786.989,4.354-5.524,6.465-8.182,1.146-7.66,3.623-8.317c.965-.255,8.49,5.346,16.77-.524C85.717,70.318,86.058,66.024,86.058,66.024Z"/><polygon class="cls-6" points="43.389 125.298 30.732 117.304 50.384 113.974 43.389 125.298"/><path class="cls-6" d="M88.019,142.952s-.665-24.151-.665-25.15v-4.329L117,103.812l1,26.313Z"/><path class="cls-7" d="M84.69,143.284s-19.986-5.663-24.649-8.993S43.389,125.3,43.389,125.3L42.056,99.985s11.161,2.666,16.823,4.332,28.475,7.659,28.475,7.659l.665,30.976Z"/><polygon class="cls-8" points="44.72 98.986 76.029 92.323 116.998 103.812 87.187 113.974 42.056 99.985 44.72 98.986"/><path class="cls-6" d="M87.854,142.785,118,130.125s14.488,2,15.487,2a48.569,48.569,0,0,0,5.665-1.331s-10.326,8.994-14.324,9.661-22.649,10.325-22.649,10.325Z"/><path class="cls-2" d="M61.1,83.847a3.646,3.646,0,0,1-.809,3.146c-.249.316-2.075,2.137-2.075,2.137s-3,1.879-3.667.952a21.043,21.043,0,0,1-1.52-4.252s1.271-.814,1.432-1.677,1.913-1.946,1.913-1.946-.929,2.064.809,2.616C59.44,85.542,60.641,84.7,61.1,83.847Z"/><path class="cls-3" d="M59.11,89.425s.181,3.793-2.221,4.112-4.157-1.043-5.569-.967-5.144-2.02-5.765-2.886-2.351-3.833-1.542-4.877,1.506-.89,2.489-.472,3.217,1.906,4.039,1.69a5.8,5.8,0,0,1,1.906-.057s2.255-1.614,2.537-.133a8.055,8.055,0,0,1-.283,3.287l1.223.621a5.462,5.462,0,0,1,1.525-1.278,3.83,3.83,0,0,1,2.078-.087Z"/><path class="cls-4" d="M51.483,88.436a2.473,2.473,0,0,0-.2-1.64c-.421-.724-1.618-1.536-1.63-.874a3.867,3.867,0,0,0,.754,1.692S51.245,90.006,51.483,88.436Z"/><path class="cls-4" d="M52.826,88.356a6.022,6.022,0,0,0,.563-1.709c.019-.609-.156-.764-.642-.945a2.182,2.182,0,0,0-1.279.167s.106-.17.637.574.072,1.911.059,2.078S52.241,89.305,52.826,88.356Z"/><path class="cls-4" d="M58.264,92.689a7.3,7.3,0,0,1-2.306.406,10.638,10.638,0,0,1-3.337-.756c-.854-.513-2.3-.262-3.287-.829S46.3,90,45.375,88.7a8.874,8.874,0,0,1-1.246-3.969s-.6-.253-.627,1.167a5.843,5.843,0,0,0,1.867,4.336c1.243,1.009,3.564,2.434,4.553,2.5a9.628,9.628,0,0,1,2.633.232,13.094,13.094,0,0,0,4.127.908C58.294,93.727,58.264,92.689,58.264,92.689Z"/><path class="cls-5" d="M59.527,88.378a2.137,2.137,0,0,0-1.657-.142c-.878.316-2.269,1.458-1.946,1.507s.893-.349,1.643-.387a5.546,5.546,0,0,1,1.515.162l.445-1.14"/><path class="cls-5" d="M45.375,88.7s-.489-1.548-.173-2.149,1.529-1.811.625-2.445c-1.023-.709-1.7.625-1.7.625s.211,1.278.419,2.128A5.938,5.938,0,0,0,45.375,88.7Z"/><path class="cls-9" d="M59.617,51.091a8.506,8.506,0,0,1-3.095-.373,17.56,17.56,0,0,0-3.667-1.21c-.56-.02-4.019-1.2-3.757-.179s1.99,1.782,2.347,1.815-3.372.247-3.006.951,2.126,2.958,2.126,2.958,4.948-.688,5.664-1.145,4.418.921,5.427,1.507"/><path class="cls-9" d="M48.526,50.761s-.8-.051-.84.689.822,1.039,1.358.947,1.338-.333,1.205-.678C49.894,50.821,48.526,50.761,48.526,50.761Z"/><path class="cls-9" d="M50.187,52.163s1.145.149,1.025.641-1.564.682-2.24.69c-.945.012-1.651-1.084-.737-1.178S50.187,52.163,50.187,52.163Z"/><path class="cls-9" d="M50.749,53.466s1.023-.114,1.168.115.257.5-.417.739a3.63,3.63,0,0,1-2.169-.032c-.218-.181-.2-.889.357-.871S50.749,53.466,50.749,53.466Z"/><path class="cls-9" d="M50.125,54.691a.813.813,0,0,0,.658.844c.288.05,1.32.019,1.556-.356s.37-.671-.02-.725S50.164,54.1,50.125,54.691Z"/><path class="cls-10" d="M75.517,44.514s-1.3-.519-3.194,1.092-4.709,3.977-7.317,4.845a8.911,8.911,0,0,1-5.058.069s-2.434-1.526-2.263-.39-1.265,3.19-.7,4.872,3.834,2.113,5.822,1.3,7.087-1.892,8.769-2.457,4.4-3.726,4.4-3.726"/><path class="cls-11" d="M83.575,40.849s-.846,2.512-1.358,4.122-3.395,5.133-5.154,3.811-.529-4.494-.529-4.494l1.583-5.809"/><path class="cls-10" d="M83.313,43.943a6.054,6.054,0,0,1,3.95,6.673c-.511,4.247,1.274,6.1.462,11.347-1.039,6.7-2.026,5.757-2.026,5.757s-2.924-2.38-4.848-2.215a21.683,21.683,0,0,1-7.906-1.6c-1.3-.741-3.815-1.953-3.815-1.953S72.3,60.879,72.909,58.5s.174-4.7.233-6.153,1.764-8.127,1.764-8.127l1.864-.852s-1.116,3.681,1.708,3.766c3.146.095,3.686-2.164,3.686-2.164l.511-1.376Z"/><path class="cls-11" d="M83.154,16.477S78.455,20,77.6,21.3,75.3,26.255,74.681,27.11s-2.736,4.566-2.161,7.872c.3,1.728,2.4,4.946,4.392,6.637A7.893,7.893,0,0,0,83.665,42.8c3.578-1.269,8.755-6.828,9.7-9.276s2.224-9.751-.143-12.37S85.307,15.886,83.154,16.477Z"/><path class="cls-12" d="M78.327,33.107c.762-.82,1.337-.517,1.628.673"/><path class="cls-13" d="M76.37,33.06a3.451,3.451,0,0,0,2.178,2.3,9.325,9.325,0,0,0,3.949.358,10.256,10.256,0,0,0-1.549,1.348c-.656.732-2.429,1.581-3.454.613S76.37,33.06,76.37,33.06Z"/><path class="cls-14" d="M85.732,33.96s1.729-2.085.06-2.98c-1.02-.549-3.213.465-2.552,2.212S85.732,33.96,85.732,33.96Z"/><path class="cls-14" d="M77.544,29.648s1.718-2.072.059-2.956c-1.012-.549-3.185.457-2.528,2.188S77.544,29.648,77.544,29.648Z"/><path class="cls-12" d="M88.2,30.274a2.129,2.129,0,0,0-2.082-1.687"/><path class="cls-12" d="M79.714,25.809c.031-.809-.728-1.236-1.639-1.2"/><path class="cls-15" d="M84.587,32.916a.977.977,0,0,0,.252,1.288c.375.167.86-.129,1.091-.668a.97.97,0,0,0-.253-1.282C85.306,32.08,84.816,32.378,84.587,32.916Z"/><path class="cls-15" d="M76.44,28.7a.944.944,0,0,0,.279,1.269A1.09,1.09,0,1,0,76.44,28.7Z"/><path class="cls-9" d="M96.4,63.535c.266.642.151,2.187.526,2.8a3.037,3.037,0,0,1,.378,2.426,6.347,6.347,0,0,1-.571,1.066,5.6,5.6,0,0,1-1.089,1.125l-.47.75c-.174.275-.215,1.1-.628.846s-.461-1.931-.434-2.577.02-2.062-.869-2.617-1.222.279-1.478.688-1.139.771-1.539.177c-.177-.269.737-.871,1.12-1.486a7.662,7.662,0,0,1,1.621-2.124c.7-.511.626-1.6.875-2.3"/><path class="cls-16" d="M95.047,71.943a10.586,10.586,0,0,0,.147-3.57"/><path class="cls-16" d="M95.828,67.934a4.054,4.054,0,0,1-.141,2.947"/><path class="cls-16" d="M96.654,67.736a4.339,4.339,0,0,1-.131,2.419"/><path class="cls-10" d="M85.6,45.831s5.066,2.738,6.546,3.667,6.242,3.919,6.515,6.3-1.5,7.319-1.5,7.319-1.686,1.742-2.782.907a2.577,2.577,0,0,0-2.2-.5,8.049,8.049,0,0,0,1.326-2.114c.121-.662.935-3.838-.757-4.9A37.623,37.623,0,0,0,87.6,54.162S83.332,48.977,85.6,45.831Z"/><path class="cls-12" d="M96.788,72.926c12.159,5.662,13.256,12.517,15.988,20.983"/><path class="cls-12" d="M101.452,73.426c8.993,5.163,12.991,9.323,15.322,19.65"/><path class="cls-12" d="M45.077,93.41c-8.8,2.039-17.182,11.105-18.485,19.735"/><path class="cls-12" d="M42.829,91.412c-4.95,1.351-12.621,7.055-15.987,11.99"/><path class="cls-17" d="M94.189,31.976c2.168.546,4.2-1.3,5.39-3.188s2.174-4.121,4.169-5.13c1.573-.8,3.434-.644,5.182-.876a11.606,11.606,0,0,0,6.6-3.252c-4.745,2.133-10.366.7-14.967-1.724-2.073-1.094-4.086-2.4-6.371-2.921a19.447,19.447,0,0,0-7.463.238c-3.349.553-7.211,1.533-8.557,4.649-.467,1.081-.873,2.579-2.05,2.6a13.859,13.859,0,0,1,6.822-2.157C91.544,20.428,94.189,31.976,94.189,31.976Z"/><path class="cls-18" d="M114.778,16.76s-2.515,1.781-2.1,2.725,1.258.209,1.048,1.467,1.782,1.468,1.782,1.468,1.258.524,1.677,0,1.572-.734,1.572-1.782.629-1.048,0-1.782-.419-1.572-1.362-1.887S114.988,15.4,114.778,16.76Z"/><path class="cls-17" d="M74.284,27.451a11.716,11.716,0,0,1-.978-4.717c0-2.725,3.878-6.5,3.878-6.5s.852.793,4.392.816,7.208-.816,10.771,3.587,3.459,7.756,3.355,9.119,1.5,5.66,1.5,5.66l-6.429,2.725s3.215-8.106-2.865-12.089-7.826-2.865-10.691-1.886A5.316,5.316,0,0,0,74.284,27.451Z"/></svg>