<svg id="word" xmlns="http://www.w3.org/2000/svg" viewBox="0 0 160 160"><defs><style>.cls-1{fill:#9d509e;}.cls-2{fill:#5baa46;}.cls-10,.cls-11,.cls-12,.cls-13,.cls-14,.cls-15,.cls-16,.cls-17,.cls-18,.cls-2,.cls-3,.cls-4,.cls-5,.cls-6,.cls-7,.cls-8,.cls-9{stroke:#9d509e;stroke-miterlimit:10;}.cls-10,.cls-11,.cls-12,.cls-13,.cls-14,.cls-15,.cls-2,.cls-3,.cls-4,.cls-5,.cls-6,.cls-7,.cls-8,.cls-9{stroke-width:0.548px;}.cls-3{fill:#208c68;}.cls-4{fill:#076549;}.cls-5{fill:#8ab78b;}.cls-6{fill:#3d5fab;}.cls-7{fill:#6fa476;}.cls-8{fill:#409d74;}.cls-9{fill:#cdc8b5;}.cls-10{fill:#2589be;}.cls-11{fill:#02bce0;}.cls-12{fill:#fff;}.cls-13{fill:#c4e8fa;}.cls-14,.cls-18{fill:#2b388f;}.cls-15{fill:#bad1ec;}.cls-16{fill:#00a8c3;}.cls-16,.cls-17,.cls-18{stroke-width:0.274px;}.cls-17{fill:#ddba23;}</style></defs><path class="cls-1" d="M132.738,26.681a4.807,4.807,0,0,1,.882-1.824c.052-.072.092-.152.164-.273-.255-.258-.494-.53-.766-.767a6.292,6.292,0,0,0-2.717-1.276.63.63,0,0,0-.838.339,1.238,1.238,0,0,1-.453.5,1.076,1.076,0,0,1-1.295-.253.548.548,0,0,1-.066-.412,1.266,1.266,0,0,1,.235-.439,1.52,1.52,0,0,1,1.725-.245,1.1,1.1,0,0,0,.481.22,7.114,7.114,0,0,1,2.664.937.755.755,0,0,0,.556.192c-.2-.25-.352-.467-.53-.663-.35-.382-.7-.761-1.074-1.123-.227-.223-.487-.412-.734-.615a.266.266,0,0,0-.405.026c-.169.173-.344.418-.617.263a1.142,1.142,0,0,1-.661-.769c-.114-.674.33-1.053.827-.952a1.942,1.942,0,0,0,.276.011c.421.026.667.248.651.656a.75.75,0,0,0,.279.627c.809.76,1.6,1.535,2.409,2.3a2.953,2.953,0,0,0,.374.243,2.594,2.594,0,0,0-.107-.428,4.37,4.37,0,0,1-.351-1.586,13.411,13.411,0,0,0-.235-1.474.611.611,0,0,0-.6-.519.756.756,0,0,1-.648-1.154,1.181,1.181,0,0,1,.763-.678.492.492,0,0,1,.7.427,2.368,2.368,0,0,1,.012,1.123.65.65,0,0,0,.043.395,11.481,11.481,0,0,1,.566,2.522,1.354,1.354,0,0,0,.3.793c.186-.143.13-.323.133-.476a13.438,13.438,0,0,1,.207-2.532c.047-.221.12-.439.155-.662a2.488,2.488,0,0,0,.063-.759,1.087,1.087,0,0,1,.384-.971.637.637,0,0,1,.843-.077.62.62,0,0,1,.2.735,1.28,1.28,0,0,1-.724.836.451.451,0,0,0-.31.358,10.139,10.139,0,0,0-.249,3.647,1.112,1.112,0,0,0,.074.184,2.425,2.425,0,0,0,.135-.3,10.729,10.729,0,0,1,1.232-2.775,4.942,4.942,0,0,1,1.34-1.467,1.963,1.963,0,0,0,.712-.915,1.162,1.162,0,0,1,1.832-.262.565.565,0,0,1,.122.24c.174.668-.68,1.545-1.3,1.293a1,1,0,0,0-1.18.239,7.416,7.416,0,0,0-.891.964,12.956,12.956,0,0,0-.907,1.629,7.106,7.106,0,0,0-.4,1.156,3.182,3.182,0,0,0-.049.6c.35-.063.647-.119.944-.168a1.342,1.342,0,0,1,.885.154c.47.25.963.46,1.445.689a3.61,3.61,0,0,1,1.622,1.552"/><path class="cls-2" d="M28.49,108.3s-8.409,5.9-9.657,6.742-4.9,1.708-2.8,2.141,9.466-1.22,9.466-1.22-13.062,5.688-9.767,7.379,7.337-1.537,7.337-1.537-6.982,4.559-5.382,6.019,6.037-.794,6.037-.794-2.344,2.622,1.184,2.778,11.008-2.482,11.008-2.482-5.493,2.776-3.5,4.218,9.041-3.749,9.041-3.749-5.914,4.683-2.576,5.541,15.333-5.012,15.333-5.012-6.717,1.021-4.987-.891,3.645-9.191,3.645-9.191l-10.894,5.326s-7.4-3.839-6.46-6.842a24.119,24.119,0,0,0,.585-7.42l-7.061,1.936Z"/><path class="cls-3" d="M34.2,104.294s-12.355,7.77-9.286,8.736S32,111.375,32,111.375s-8.716,8.467-4.516,9.386,7.227-2.617,7.227-2.617-3.753,6.42-.453,7.172,6.968-4.24,6.968-4.24-3.59,2.609-.813,3.961,8.048-1.786,8.048-1.786-5.673,3.917-3.642,6.166c1.733,1.919,6.162,1.3,6.693.986s10.592-8.7,10.592-8.7l6.58-17-.654-2.923-9.915,8.911-16.451,7.527-.438-6.426.516-3.913-1.038-3.288Z"/><path class="cls-4" d="M48.825,99.9s-12.658,4.9-11.918,8.407,7.107,1.006,7.107,1.006l8.02-9.075,1.66-2.308Z"/><path class="cls-5" d="M88.611,65.74S79.983,68.1,77.589,69.283,66.19,73.1,63.9,74.275A21.87,21.87,0,0,0,59.71,77.2a4.243,4.243,0,0,0,3.143,0,5.153,5.153,0,0,1,3.286-.12,43.1,43.1,0,0,1-11.487,3.669,21.041,21.041,0,0,0-9.9,4.31s4.984-.344,6.184-.647-6.111,3.255-8.241,4.528-7.714,5.144-9.5,6.015-4.274,3.206-6.721,4.562-8.97,4.055-8.97,4.055,1.843-.121,2.638-.123,5.5.067,4.243.333-6.516,3.678-8.785,4.979-13.529,5.811-11.517,6.648,9.048-.064,11.124-.535,10.3-3.412,11.536-4.284,7.856-5.621,8.022-5.182-5.248,4.649-4.028,4.4,7.988-4.948,9.461-5.109S51.555,99.7,51.555,99.7l12.977-8.95,18.781-13.24L96.7,67.317Z"/><path class="cls-6" d="M108.347,76.238s-4.067,5.9-4.5,8.831-1.25,12.609-3.185,16.06a57.349,57.349,0,0,1-8.621,10.8c-2.567,2.459-8.556,4.673-9.552,6a46.317,46.317,0,0,1-4.589,4.341s5.665-7.494,8.05-9.554S95.5,102.2,95.519,101.281s-5.784,6.323-5.784,6.323-4.263,3.932-5.365,4.817-3.628,3.109-3.628,3.109,4.642-5.3,5.935-7.227a77.165,77.165,0,0,1,6.448-7.565c.415-.251.69-1.217.69-1.217s-1.187,1.515-5.219,3.822-9.852,6.389-9.852,6.389,5.776-13.017,6.64-13.591,13.05-15.108,13.05-15.6,10.349-11.756,10.349-11.756Z"/><path class="cls-7" d="M91.475,68.786l-5.957,5.856s-7.641,4.866-8.857,6.29-7.539,4.142-8.978,4.977-5.944,1.835-4.58,1.871,5.206-1.284,2.464.412-8.969,5.543-10.686,6.58A27.131,27.131,0,0,0,51.024,97.9l3.733-1.252S44.471,107.192,43.59,107.879s-10.749,6.081-8.915,6.377a13.238,13.238,0,0,0,4.861-.743s-2.413,2.811-3.9,4.492-7.471,4.929-8.409,5.359-17.619,4.993-16.63,6.078,3.7,1.388,7.054.89A105.539,105.539,0,0,0,32.074,126.2c2.587-1.017,16.014-9.494,15.556-8.455s-4.481,4.119-3.735,4.893,10.357-5.966,10.675-6.21,7.661-6.907,9.281-8.061S74.373,96.141,74.373,96.141s15.97-14.624,17.1-15.366,10.46-9.036,10.46-9.036l3.905-4.826Z"/><path class="cls-8" d="M101.3,68.427s-3.436,4.908-4.6,6.1S81.7,85.75,80.629,87.056a22.736,22.736,0,0,1-4.379,3.23l4.981-1.827s-11.457,8.774-13.409,11.13-5.367,6.069-5.367,6.069l4.644-1.912s-6.36,10.19-7.574,12.009-10.965,10.151-8.562,9.768,8.867-4.135,8.867-4.135a41.508,41.508,0,0,1-6.9,6.332c-3.633,2.492-18.461,12.837-16.473,12.594s6.781-2.334,9.632-3.412a62.932,62.932,0,0,0,11.331-6.1c2.353-1.807,6.183-7.233,6.183-7.233l-2.976,6.24s4.261-3.345,6.052-4.617,5.212-5.928,7.87-9.04a21.812,21.812,0,0,0,3.825-7.131l-.47,4.768a49.958,49.958,0,0,0,4.3-5.488c.688-1.39,6.593-14.489,6.593-14.489s-3.078,6.871-.521,6.082,6.571-13.2,6.571-13.2l.191,5.555s1.936-4.02,3.646-7.433,7.895-12.335,7.895-12.335l1.236-4.81Z"/><path class="cls-9" d="M107.844,79.5l-1.662,4.679a6.128,6.128,0,0,1-.875,1.975,1.03,1.03,0,0,0,0,1.69,10.04,10.04,0,0,1,1.758,2.084l3.305,6.905,2.364,4.89s.722.379-.568.652-2.522,2.133-2.522,2.133l-1.2.405a17.811,17.811,0,0,1,3.715-1.373c1.029-.078,1.416-.666,2.416.088a18.352,18.352,0,0,0,3.853,1.63l.906.263s-.921-1.34-1.629-1.6-2.523-.9-2.523-.9,2.185.306,2.523.389,3.973.591,3.973.591a3.226,3.226,0,0,0-1.839-1.01,24.632,24.632,0,0,1-3.561-.773c.473.056,3.306-.24,3.306-.24l2.142-.659s-5.768-.1-6.289-.19a5.559,5.559,0,0,0-.783-.093l-2.965-5.47s-3.659-6.657-3.574-7.745a19.351,19.351,0,0,1,1.021-3.523l2.145-4.315S108.013,78.845,107.844,79.5Z"/><path class="cls-9" d="M112.384,79.328s.417,3.837.324,4.594-1.094,2.424-.24,3.4a27.935,27.935,0,0,1,2.966,3.7,23.458,23.458,0,0,1,2.058,6.419c0,.568,0,1.449,0,1.449l-1.87,1.61a17.175,17.175,0,0,0,2.825-.624c.589-.293,2.343-.925,3.123-.439a9.46,9.46,0,0,0,2.481.929c.578.146,2.987.422,2.987.422s-1.128-.612-2.292-1.177a20.436,20.436,0,0,0-2.313-.94s2.963.2,3.671.127,2.332-.3,2.332-.3l-5.074-.426s-1.361-.38-.319-.407a26.4,26.4,0,0,0,3.872-.824l1.161-.532s-3.668.25-4.068.26-3.023.564-3.524.523-1.553-1.919-1.785-2.645-2.5-6.809-2.969-7.762-1.44-1.628-1.013-2.667.958-3.2,1.125-3.708.8-3.817.8-3.817Z"/><path class="cls-10" d="M87.076,63.3a41.269,41.269,0,0,0,6.162-1.383c1.634-.684,23.338-9.271,29.061-10.184s13.592-4.967,13.874-6,2.014-4.755.7-8-4.443-7.276-4.465-9.529a5.165,5.165,0,0,1,3.9-4.615c1.793-.375,4.4,2.316,4.4,2.316l.5.323s-2.357,3.2-1.878,3.907-.316,3.229.662,5,5.615,7.314,5.555,11.167-1.405,7.656-1.942,8.27-5.057,2.6-5.577,4.34S131.5,70.674,127.124,72.228c-1.955.694-7.644,3.686-7.838,4.258s-3.6,1.638-4.184,2.111-3.366,1.728-3.6,1.926-1.667,1.559-1.667,1.559l.44-1.53-1.395.223.147-1.048L107.3,80.855a8.533,8.533,0,0,1,.571-2.815,2.5,2.5,0,0,0,.333-1.554l-1.269.422s1.032-.979.764-1.85-2.71,1.226-2.71,1.226,1.3-1.9,1.619-2.248-2.222,1.327-2.222,1.327a16.519,16.519,0,0,1,1.657-2.953A16.437,16.437,0,0,1,107.7,71.5s-4.914,3.116-5.026,3.4a11.347,11.347,0,0,0,2.442-3.515,5.855,5.855,0,0,1,.773-1.88s-2.471,1-4.125,1.537l-1.655.54a35.391,35.391,0,0,0,3.314-1.918,5.766,5.766,0,0,0,.908-1.158,20.558,20.558,0,0,1-2.934,1.444c-1.117.371-2.647.9-2.647.9L100.712,69a10.643,10.643,0,0,1-3.587.954c-1.2-.107-4.447,1.125-4.447,1.125a5.432,5.432,0,0,1,2.931-1.885,31.7,31.7,0,0,0,3.677-.749,7.167,7.167,0,0,0-2.63-.108,45.407,45.407,0,0,0-7.005,1.638l-1.5.343s2.537-1.138,3.143-2.278a3.6,3.6,0,0,1,1.084-1.411s.437.835-2.163.146a12.025,12.025,0,0,0-3.837-.559s3.886-1.55,4.519-1.969a9.316,9.316,0,0,1,1.481-.753Z"/><path class="cls-11" d="M129.637,48.31s-5.871-1.516-7.761-.951-8.758,1.494-10.837,2.039-9.1,4.91-10.749,6.012-4.275,3.516-5.192,4.22a33.343,33.343,0,0,1-2.909,1.823,14.1,14.1,0,0,0,3.369.2c.831-.213-5.651,2.079-2.772,2.589a10.473,10.473,0,0,0,5.131-.363s-4.92,1.261-3.454,1.8,6.878-1.44,6.878-1.44-4.147,2.494-.123,2.743,7.243-3.248,7.243-3.248-2.8,2.4-.676,2.307,7.649-2.94,7.649-2.94l-2.143,2.634s1.18,1.428,6.545-.992,12.965-7.207,12.94-8.941S134.718,49.8,129.637,48.31Z"/><path class="cls-12" d="M134.7,27.991a5.118,5.118,0,0,1,1.053-1.783c.556-.419,2.013.109,2.013.109s-.011.908-.472,1.156A14.992,14.992,0,0,1,134.7,27.991Z"/><path class="cls-13" d="M139.725,25.379,137.7,26.818l.068,3.559,1.146-.242s.559-1.883.716-2.144,1.242-1.437,1.242-1.437Z"/><path class="cls-14" d="M133.432,28.485,137.7,27.2l.01,3.477a7.9,7.9,0,0,1-1.963-.7C135.382,29.652,132.971,29.329,133.432,28.485Z"/><path class="cls-15" d="M140.211,26.153a10.55,10.55,0,0,1,1.719.365c.372.176,1.825,1.252,2.44,1.7s.641.842.641.842a13.586,13.586,0,0,0-1.827,0,33.151,33.151,0,0,0-4.274,1.072,6.2,6.2,0,0,1,.372-2.054C139.608,27.547,139.406,26.2,140.211,26.153Z"/><path class="cls-1" d="M101.017,56.8s-4.736,2.221-3.052,3.635,4.782.157,4.782.157-1.007,2.1,1.609,1.739a10.992,10.992,0,0,0,4.508-1.739s-.277,1.578,2.175.251,6.01-3.723,6.01-3.723-3.81,2.19-5.253,1.951-1.613-.448-1.005-1.431a3.392,3.392,0,0,1,1.179-1.261s-3.125,3.217-5.429,3.176-.509-.976.122-1.434a7.676,7.676,0,0,0,1.122-1.017s-4.422,2.632-6.118,2.461S99.407,57.783,101.017,56.8Z"/><path class="cls-16" d="M65.825,80.722A62.339,62.339,0,0,0,58.3,82.69c-1.73.775-4.228,3.086-3.5,4.337s4.406-.256,7.04-1.486S67.172,81.48,65.825,80.722Z"/><path class="cls-17" d="M58.749,82.922s-1.614,2.291.03,2.774,3.66-.981,4.8-1.3,3.262-2.351,2.579-3.225S59.84,81.413,58.749,82.922Z"/><path class="cls-18" d="M61.789,81.908s-1.569,1.34-.315,1.905a4.8,4.8,0,0,0,3.836-.487c.27-.373,1.519-2.259.515-2.6A4.9,4.9,0,0,0,61.789,81.908Z"/><path class="cls-16" d="M82.05,71.054a58.527,58.527,0,0,0-6.688,2.605c-1.5.889-3.541,3.243-2.735,4.284s4.014-.719,6.3-2.118S83.368,71.585,82.05,71.054Z"/><path class="cls-17" d="M75.8,73.818s-1.231,2.237.331,2.488,3.25-1.289,4.261-1.706,2.736-2.475,2.014-3.184S76.635,72.341,75.8,73.818Z"/><path class="cls-18" d="M78.477,72.568s-1.293,1.379-.081,1.747a4.514,4.514,0,0,0,3.465-.865c.208-.365,1.147-2.2.189-2.4A4.586,4.586,0,0,0,78.477,72.568Z"/><path class="cls-16" d="M48.745,110.691s-2.877.677-3.89,1.629-3.163,1.814-3.047,3.435,1.9,1.529,3.771.672S49.892,111.31,48.745,110.691Z"/><path class="cls-17" d="M49.045,110.691a9.583,9.583,0,0,0-3.168,1.3c-.825.76-2.576,1.449-2.482,2.743s1.547,1.22,3.072.536S49.979,111.186,49.045,110.691Z"/><path class="cls-18" d="M48.869,110.691a6.794,6.794,0,0,0-2.26.936c-.589.547-1.838,1.042-1.77,1.973s1.1.878,2.191.386S49.535,111.047,48.869,110.691Z"/><path class="cls-16" d="M49.539,89.964s-2.877.677-3.89,1.629-3.163,1.814-3.047,3.434,1.9,1.529,3.771.672S50.686,90.583,49.539,89.964Z"/><path class="cls-17" d="M49.839,89.964a9.574,9.574,0,0,0-3.168,1.3c-.825.761-2.576,1.449-2.482,2.743s1.547,1.221,3.072.536S50.773,90.458,49.839,89.964Z"/><path class="cls-18" d="M49.662,89.964A6.8,6.8,0,0,0,47.4,90.9c-.589.547-1.838,1.043-1.77,1.974s1.1.878,2.19.385S50.329,90.319,49.662,89.964Z"/><path class="cls-16" d="M70.908,89.325s-2.877.677-3.89,1.629-3.163,1.814-3.047,3.435,1.9,1.528,3.771.671S72.055,89.944,70.908,89.325Z"/><path class="cls-17" d="M71.208,89.325a9.574,9.574,0,0,0-3.168,1.3c-.825.761-2.576,1.449-2.482,2.743s1.547,1.221,3.072.537S72.142,89.819,71.208,89.325Z"/><path class="cls-18" d="M71.031,89.325a6.8,6.8,0,0,0-2.259.935c-.589.547-1.838,1.043-1.77,1.974s1.1.878,2.19.386S71.7,89.68,71.031,89.325Z"/><path class="cls-16" d="M34.312,99.331a10.442,10.442,0,0,0-3.388.76c-.935.587-2.8.98-2.871,2.188s1.42,1.341,3.058.921S35.2,99.917,34.312,99.331Z"/><path class="cls-17" d="M34.56,99.365a8.61,8.61,0,0,0-2.756.6c-.76.467-2.281.776-2.333,1.741s1.159,1.074,2.492.743S35.285,99.835,34.56,99.365Z"/><path class="cls-18" d="M34.414,99.345a6.1,6.1,0,0,0-1.967.434c-.543.336-1.628.56-1.665,1.254s.825.772,1.776.532S34.93,99.682,34.414,99.345Z"/><path class="cls-16" d="M84.24,81.767s1.95-1.816,1.144-2.488-4.319.59-4.755,1.024-4.351,3.231-2.726,4.76S84.24,81.767,84.24,81.767Z"/><path class="cls-17" d="M84.454,81.29s1.449-1.349.85-1.849-3.21.438-3.534.761-3.234,2.4-2.026,3.537S84.454,81.29,84.454,81.29Z"/><path class="cls-18" d="M84.785,80.6s1.112-1.036.652-1.419-2.464.336-2.713.584-2.482,1.844-1.555,2.716S84.785,80.6,84.785,80.6Z"/><path class="cls-16" d="M67.752,117.868s1.448-2.237.5-2.692-4.044,1.626-4.361,2.154-3.431,4.2-1.481,5.282S67.752,117.868,67.752,117.868Z"/><path class="cls-17" d="M67.843,117.353s1.076-1.662.373-2-3,1.209-3.241,1.6-2.549,3.118-1.1,3.925S67.843,117.353,67.843,117.353Z"/><path class="cls-18" d="M68,116.6s.826-1.277.287-1.537-2.308.928-2.489,1.23-1.957,2.394-.845,3.013S68,116.6,68,116.6Z"/><path class="cls-16" d="M76.236,103.788a57.206,57.206,0,0,0-5.758,4.219c-1.215,1.246-2.566,4.062-1.521,4.882s3.674-1.7,5.508-3.644S77.642,103.98,76.236,103.788Z"/><path class="cls-17" d="M70.939,108.054s-.6,2.5.962,2.358,2.793-2.073,3.657-2.734,1.991-3.108,1.113-3.623S71.361,106.4,70.939,108.054Z"/><path class="cls-18" d="M73.192,106.162s-.887,1.674.374,1.733a4.413,4.413,0,0,0,3.11-1.71c.105-.41.533-2.442-.44-2.4A4.494,4.494,0,0,0,73.192,106.162Z"/><path class="cls-16" d="M100.285,75.64a11.31,11.31,0,0,0-3.374,2.031c-.8.992-2.671,2.081-2.327,3.485s1.986,1.049,3.6.008S101.44,76.007,100.285,75.64Z"/><path class="cls-17" d="M100.564,75.594a9.317,9.317,0,0,0-2.752,1.631c-.655.8-2.18,1.669-1.9,2.791s1.613.832,2.929,0S101.5,75.884,100.564,75.594Z"/><path class="cls-18" d="M100.4,75.621a6.614,6.614,0,0,0-1.962,1.171c-.466.57-1.553,1.2-1.355,2s1.152.6,2.09,0S101.07,75.831,100.4,75.621Z"/><path class="cls-16" d="M82.876,93.718S80.1,95.005,79.264,96.3s-2.84,2.683-2.4,4.586,2.221,1.493,3.945.162S84.158,94.26,82.876,93.718Z"/><path class="cls-17" d="M83.18,93.668a9.029,9.029,0,0,0-2.947,2.075c-.685,1.04-2.319,2.151-1.969,3.67s1.8,1.187,3.212.119S84.222,94.1,83.18,93.668Z"/><path class="cls-18" d="M83,93.7a6.417,6.417,0,0,0-2.1,1.489c-.487.748-1.653,1.545-1.4,2.638s1.288.856,2.291.089S83.745,94.007,83,93.7Z"/><path class="cls-16" d="M91.974,84.145a45.3,45.3,0,0,0-4.957,3.23c-1.061.988-2.3,3.32-1.473,4.1s3.119-1.209,4.723-2.752S93.13,84.41,91.974,84.145Z"/><path class="cls-17" d="M87.4,87.448s-.61,2.113.695,2.1,2.405-1.589,3.15-2.1,1.786-2.539,1.08-3.046S87.819,86.05,87.4,87.448Z"/><path class="cls-18" d="M89.347,85.976s-.808,1.381.235,1.521a3.487,3.487,0,0,0,2.652-1.254c.1-.346.548-2.068-.26-2.1A3.584,3.584,0,0,0,89.347,85.976Z"/><path class="cls-16" d="M59.845,99.663a45.412,45.412,0,0,0-4.957,3.229c-1.061.989-2.3,3.321-1.473,4.1s3.12-1.21,4.724-2.752S61,99.928,59.845,99.663Z"/><path class="cls-17" d="M55.268,102.966s-.61,2.113.7,2.1,2.406-1.589,3.151-2.1,1.785-2.539,1.08-3.045S55.691,101.567,55.268,102.966Z"/><path class="cls-18" d="M57.218,101.494s-.808,1.38.235,1.521a3.488,3.488,0,0,0,2.652-1.254c.105-.346.549-2.068-.26-2.1A3.586,3.586,0,0,0,57.218,101.494Z"/><path class="cls-16" d="M57.291,126.934a7.873,7.873,0,0,0-2.632,1.1c-.685.644-2.139,1.228-2.061,2.324s1.284,1.034,2.552.455S58.067,127.353,57.291,126.934Z"/><path class="cls-17" d="M57.5,126.934a6.486,6.486,0,0,0-2.144.88c-.558.514-1.743.98-1.679,1.856s1.046.826,2.078.363S58.127,127.268,57.5,126.934Z"/><path class="cls-18" d="M57.375,126.934a4.6,4.6,0,0,0-1.529.633c-.4.37-1.243.7-1.2,1.335s.747.594,1.483.261S57.826,127.175,57.375,126.934Z"/><path class="cls-16" d="M23.406,107.6a35.276,35.276,0,0,0-4.49.942c-1.045.417-2.6,1.753-2.217,2.552s2.595,0,4.187-.663S24.168,108.12,23.406,107.6Z"/><path class="cls-17" d="M19.17,108.705s-1.035,1.356-.088,1.714,2.185-.473,2.867-.631,2-1.334,1.636-1.9S19.868,107.813,19.17,108.705Z"/><path class="cls-18" d="M20.993,108.189s-.972.771-.257,1.165a2.7,2.7,0,0,0,2.269-.162c.173-.22.977-1.34.4-1.589A2.779,2.779,0,0,0,20.993,108.189Z"/><path class="cls-16" d="M34.538,122.349a35.15,35.15,0,0,0-4.491.943c-1.044.416-2.6,1.753-2.217,2.551s2.6,0,4.188-.662S35.3,122.866,34.538,122.349Z"/><path class="cls-17" d="M30.3,123.452s-1.034,1.356-.087,1.714,2.185-.473,2.866-.632,2-1.334,1.637-1.9S31,122.559,30.3,123.452Z"/><path class="cls-18" d="M32.124,122.935s-.971.771-.257,1.166a2.7,2.7,0,0,0,2.269-.162c.173-.221.978-1.34.4-1.59A2.784,2.784,0,0,0,32.124,122.935Z"/><path class="cls-1" d="M114.567,50.991a3.093,3.093,0,0,0-1.687.76c-.24.243-.263.347-.127.6.153.283.37.432.628.314a17.316,17.316,0,0,0,1.568-.836.615.615,0,0,0,.178-.621A.505.505,0,0,0,114.567,50.991Zm-7.046,3.075a3.066,3.066,0,0,0,1.853-.879.416.416,0,0,0-.2-.739,1.062,1.062,0,0,0-.492-.005,3.3,3.3,0,0,0-.6.221,2.026,2.026,0,0,0-.964.808C106.936,53.773,107.116,54.062,107.521,54.066ZM128.1,51.239c-.369-.335-.686-.612-1.14-.537a3.19,3.19,0,0,0-1.369.6.36.36,0,0,0-.074.554.584.584,0,0,0,.713.264c.523-.158,1.04-.338,1.549-.536C127.9,51.535,127.977,51.38,128.1,51.239Zm-6.5-1.423a2.955,2.955,0,0,0-1.441.523c-.279.231-.34.407-.225.664a.584.584,0,0,0,.727.322,2.088,2.088,0,0,0,.425-.168c.343-.166.693-.323,1.017-.52a.544.544,0,0,0,.267-.378c-.009-.123-.182-.264-.316-.341A1.6,1.6,0,0,0,121.609,49.816Zm-4.81,4.45a1.916,1.916,0,0,0-1.378.626c-.252.243-.294.493-.171.692.163.264.429.253.693.239a.3.3,0,0,0,.089-.02,3.664,3.664,0,0,0,1.335-.767.453.453,0,0,0,.13-.4.931.931,0,0,0-.382-.344C117.033,54.248,116.906,54.274,116.8,54.266Zm-10.416,1.209a1.753,1.753,0,0,0-.354.1c-.271.138-.537.29-.8.453a.8.8,0,0,0-.345.822.716.716,0,0,0,.827.206,2.933,2.933,0,0,0,1.194-.819c.3-.334.21-.572-.217-.7C106.606,55.516,106.515,55.5,106.383,55.475ZM126,54.255c-.049.012-.152.034-.253.064-.493.147-.611.589-.758.985-.081.217.1.405.347.425a.653.653,0,0,0,.316-.026c.356-.167.712-.338,1.05-.538a.307.307,0,0,0,.069-.477A1.01,1.01,0,0,0,126,54.255Zm-5.646,5.215a.462.462,0,0,0,.678.39,8.434,8.434,0,0,0,1.126-.608.391.391,0,0,0,.113-.524.513.513,0,0,0-.58-.255c-.3.118-.59.249-.884.376A.853.853,0,0,0,120.351,59.47ZM112.474,54.5a.828.828,0,0,0-1.013-.109,3.044,3.044,0,0,0-.671.456c-.315.284-.194.671.226.792A1.364,1.364,0,0,0,112.474,54.5Zm4.743,5.613c-.023.5.273.775.689.687a1.552,1.552,0,0,0,.891-.513.774.774,0,0,0,.152-.415c.018-.259-.155-.392-.409-.322-.352.1-.7.2-1.044.336A1.014,1.014,0,0,0,117.217,60.115Zm11.757-6.566c.605.27,1.083-.059,1.544-.369.1-.068.128-.3.123-.448,0-.063-.176-.162-.278-.171a3.144,3.144,0,0,0-.811.005C129.052,52.655,128.855,53.013,128.974,53.549Zm-2.628-4.2a.834.834,0,0,0,1.07-.255.373.373,0,0,0-.163-.6,1.164,1.164,0,0,0-1.458.655.387.387,0,0,0,.186.467C126.2,49.729,126.248,49.5,126.346,49.345ZM125.6,58.02c.206.02.551-.374.559-.64.006-.173-.44-.553-.684-.584a.682.682,0,0,0-.613.511C124.817,57.7,125.1,57.971,125.6,58.02Zm-3.944-2.961a.931.931,0,0,0-.743.392.428.428,0,0,0,.006.644.448.448,0,0,0,.586.043,3.749,3.749,0,0,0,.473-.359.382.382,0,0,0,.087-.493A.4.4,0,0,0,121.659,55.059Zm2.681,5.421c.131.039.253.163.441.053.234-.136.484-.244.722-.373a1.593,1.593,0,0,0,.337-.227c.056-.054.113-.178.087-.23a.405.405,0,0,0-.236-.176.44.44,0,0,0-.262.044c-.292.127-.586.254-.865.405A.369.369,0,0,0,124.34,60.48Zm-.158-7.564c-.395.162-.754.289-1.092.457a.318.318,0,0,0-.08.476.307.307,0,0,0,.477.005.717.717,0,0,1,.6-.27.457.457,0,0,0,.18-.029c.155-.059.3-.165.226-.336C124.449,53.106,124.305,53.03,124.182,52.916Zm-5.324-3.228a.748.748,0,0,0-1.273.026.7.7,0,0,0,.028.467.293.293,0,0,0,.265.094A2.756,2.756,0,0,0,118.858,49.688Zm1.016,2.955a.54.54,0,0,0-.543.5.547.547,0,0,0,.484.458c.261-.005.582-.274.581-.486A.54.54,0,0,0,119.874,52.643Zm9.876,4.234a1.385,1.385,0,0,0-.449-.091,1.075,1.075,0,0,0-.486.211.282.282,0,0,0,.1.453.466.466,0,0,0,.66-.188C129.63,57.172,129.664,57.072,129.75,56.877Z"/><path class="cls-1" d="M126.329,70.283a4.626,4.626,0,0,1-.654.5,3.327,3.327,0,0,1-3.452-.4,1.483,1.483,0,0,1-.266-.308c-.041-.077-.046-.256-.008-.276a.405.405,0,0,1,.324-.021,5.886,5.886,0,0,1,.516.371,3.039,3.039,0,0,0,2.339.375,7.477,7.477,0,0,0,.911-.293,1.271,1.271,0,0,1,.241-.031Z"/><path class="cls-1" d="M129.233,68.145a2.8,2.8,0,0,1-3.52,1.061c-.2-.1-.413-.2-.626-.287-.129-.053-.238-.126-.168-.262a.45.45,0,0,1,.265-.2.572.572,0,0,1,.305.069c.2.076.392.165.589.246a2.556,2.556,0,0,0,2.556-.382,3.859,3.859,0,0,1,.336-.238C129.021,68.121,129.1,68.145,129.233,68.145Z"/><path class="cls-1" d="M129.529,65.645c.014.1.032.144.019.159a4.134,4.134,0,0,1-1.791,1.437,1.42,1.42,0,0,1-1.723-.339,2.053,2.053,0,0,1-.281-.462c-.1-.223-.074-.257.261-.414l.254.36a1.088,1.088,0,0,0,1.281.446,2.915,2.915,0,0,0,.661-.3c.348-.22.675-.472,1.014-.707C129.307,65.762,129.4,65.718,129.529,65.645Z"/><path class="cls-1" d="M123.455,66.742a2.223,2.223,0,0,1-3.469-.272c.259-.335.311-.347.616-.068a2.07,2.07,0,0,0,2.457.342,2.406,2.406,0,0,1,.363-.1Z"/><path class="cls-1" d="M133.211,60.407c.1-.106.158-.27.44-.2a3.511,3.511,0,0,1-.231.421,3.1,3.1,0,0,1-2.965,1.248.9.9,0,0,1-.307-.088c-.09-.056-.216-.16-.213-.239.007-.176.166-.234.334-.231a.5.5,0,0,1,.133.037"/><path class="cls-1" d="M131.608,63.121a2.051,2.051,0,0,1-2.9.662c-.117-.065-.257-.143-.175-.316a.29.29,0,0,1,.419-.144c.184.072.375.127.558.2a1.471,1.471,0,0,0,1.318-.107c.243-.132.488-.261.732-.391Z"/><path class="cls-1" d="M125.061,72.479a4.2,4.2,0,0,1-1.215.921,1.989,1.989,0,0,1-1.64-.144c-.141-.07-.223-.18-.155-.33a.251.251,0,0,1,.377-.134,2.081,2.081,0,0,0,2.277-.3C124.816,72.417,124.9,72.282,125.061,72.479Z"/><path class="cls-1" d="M137.154,57.969a4.217,4.217,0,0,0,.484-.528c.279-.433.527-.885.784-1.331a2.819,2.819,0,0,0,.159-.327c.066-.155.159-.281.342-.191.147.072.147.212.086.355a4.719,4.719,0,0,1-1.395,1.988C137.484,58.036,137.351,58.151,137.154,57.969Z"/><path class="cls-1" d="M141.507,42.164a3.474,3.474,0,0,1-.046.446.215.215,0,0,1-.149.134.222.222,0,0,1-.17-.114,1.034,1.034,0,0,1-.061-.306,1.7,1.7,0,0,0-.464-1.143.23.23,0,0,1,.016-.386.251.251,0,0,1,.4.043A1.847,1.847,0,0,1,141.507,42.164Z"/><path class="cls-1" d="M143.7,49.539c-.1.4-.227.885-.351,1.366-.007.029-.01.067-.03.084-.075.063-.155.118-.234.176-.043-.085-.127-.172-.122-.254.018-.3.06-.6.1-.9.03-.208.084-.413.115-.621a.3.3,0,0,1,.338-.294C143.752,49.119,143.675,49.314,143.7,49.539Z"/><path class="cls-1" d="M140.439,54.615c.19-.472.352-.873.513-1.275a4.415,4.415,0,0,0,.162-.422c.067-.234.219-.306.5-.267a3.29,3.29,0,0,1-.6,1.614C140.9,54.514,140.821,54.541,140.439,54.615Z"/><path class="cls-1" d="M140.844,49.6a2.489,2.489,0,0,1,.006-.541,1.759,1.759,0,0,0-.02-1.072c-.051-.142-.074-.281.1-.34a.3.3,0,0,1,.381.17,2.06,2.06,0,0,1-.145,1.619C141.107,49.507,140.994,49.529,140.844,49.6Z"/><path class="cls-1" d="M143.328,46.386a4.009,4.009,0,0,1-.131.576c-.028.073-.148.112-.227.167-.046-.069-.133-.138-.131-.2a2.718,2.718,0,0,0-.254-1.227c-.079-.17-.075-.33.132-.412s.319.058.372.225C143.183,45.81,143.255,46.117,143.328,46.386Z"/><path class="cls-1" d="M141.686,55.21c.158-.294.3-.565.447-.833.124-.223.252-.445.386-.663a.652.652,0,0,1,.2-.231.3.3,0,0,1,.248.018.223.223,0,0,1,.057.2.874.874,0,0,1-.124.288c-.207.332-.413.666-.637.987C142.091,55.225,142.073,55.221,141.686,55.21Z"/><path class="cls-1" d="M127.233,63.567a1.351,1.351,0,0,1-1.881.588.275.275,0,0,1-.072-.233.321.321,0,0,1,.17-.18.312.312,0,0,1,.219.02,1.3,1.3,0,0,0,1.065-.052A4.752,4.752,0,0,1,127.233,63.567Z"/><path class="cls-1" d="M131.318,65.008c.148-.11.266-.268.4-.287.466-.064.745-.553,1.257-.514a3.006,3.006,0,0,1-.775.873A.674.674,0,0,1,131.318,65.008Z"/><path class="cls-1" d="M135.614,58.545c0,.09.036.2-.006.276-.227.387-.464.771-.722,1.139-.043.061-.226.072-.317.037-.057-.021-.12-.213-.085-.257.322-.412.663-.81,1-1.209C135.5,58.519,135.543,58.537,135.614,58.545Z"/><path class="cls-1" d="M139.865,52.184c.157-.548.279-.994.415-1.437a.438.438,0,0,1,.159-.21.172.172,0,0,1,.285.148,2.263,2.263,0,0,1-.548,1.357A1.441,1.441,0,0,1,139.865,52.184Z"/><ellipse class="cls-1" cx="136.956" cy="26.814" rx="0.539" ry="0.582"/></svg>