<svg id="word" xmlns="http://www.w3.org/2000/svg" viewBox="0 0 160 160"><defs><style>.cls-1{fill:#fde2d4;}.cls-1,.cls-2{stroke:#9d4b9c;stroke-miterlimit:10;}.cls-2{fill:none;stroke-width:0.992px;}</style></defs><path class="cls-1" d="M129.966,90.8s1.98,3.228,1.542,4.959a9.682,9.682,0,0,1-3.829,4.833,3.99,3.99,0,0,1-2.266.185l-.521-6.832Z"/><path class="cls-1" d="M121.959,87.879s3.9-4.085,4.955-4.454a11.053,11.053,0,0,1,2.339-.474s2.8,2.408,2.082,4.35-1.017,3-3.2,4.122a26.69,26.69,0,0,1-3.821,1.631Z"/><path class="cls-1" d="M125.318,99.69a20.316,20.316,0,0,1-1.358,3.753c-1.478,3.315-7.7,9.108-14.153,12.451-6.434,3.356-18.362,5.453-21.766,9.5s-8.032,9.886-14.331,10.4c-6.315.51-11.69-6.2-12.093-15.014s-.134-27.861-1.03-33.258-3.4-14.6-3.4-14.6-2.479-5.4-5.375-11.813A52.671,52.671,0,0,1,67.932,50.653,95.23,95.23,0,0,1,83.5,45.7c1.821,8.555,3.224,15.425,3.105,15.779-.3.978,2.821,15.779,2.821,15.779s-.089,1.7,1.777,1.063c.09-.029.179-.071.269-.1a10.335,10.335,0,0,0,1.537-.879c3.748-2.563,7.121-9.051,9.868-9.461,2.732-.411,3.986-6.36,6.554-8.641s6.315-2.578,9.286,1.7a7.324,7.324,0,0,1,.836,7.946c-.284.68-.612,1.36-.926,2.04-1.03,2.294-3.717,3.683-4.852,4.178-.313.142-.507.213-.507.213a1.813,1.813,0,0,1,.149.226c.448.666,1.851,2.734,3.508,5.284.418.623.836,1.26,1.269,1.926.343.524.687,1.062,1.045,1.615l.06.1c1.567,2.422,3.1,4.887,4.18,6.742.4.694.731,1.3.985,1.8,0,0-.015,0,0,.014.06.128.12.269.179.383.09.184.165.368.239.552A9.294,9.294,0,0,1,125.318,99.69Z"/><path class="cls-1" d="M118.126,82.825s4.359-3.37,4.955-4.454,2.034-3.839,3.186-3.18,2.81,3.632,2.119,5.854.271,2.991-3.092,4.207-4.67,1.041-4.67,1.041Z"/><path class="cls-1" d="M118.138,69.829a3.467,3.467,0,0,1,4.515-.557c2.534,1.676,3.722,3.839,2.758,5.236s-3.128,6-5.073,6.441a8.5,8.5,0,0,1-4.1-.324l-3.019-4.839Z"/><path class="cls-1" d="M97.1,102.622S105.379,99.7,109,96c6.812-6.96,3.532-16.862,3.532-16.862"/><path class="cls-1" d="M91.588,78.024a14.373,14.373,0,0,0-4.1,4.494A67.377,67.377,0,0,0,83.745,91.1"/><path class="cls-2" d="M70.741,130.629c-3.241-2.132-3.982-6.562-2.835-10.143s3.76-6.539,6.214-9.469,4.881-6.092,5.53-9.783"/></svg>