<svg id="word" xmlns="http://www.w3.org/2000/svg" viewBox="0 0 160 160"><defs><style>.cls-1{fill:#a57c52;}.cls-1,.cls-2,.cls-3,.cls-5,.cls-6{stroke:#9d4b9c;stroke-miterlimit:10;stroke-width:0.88px;}.cls-2{fill:#e8b785;}.cls-3{fill:#e9cdad;}.cls-4{fill:#9d4b9c;}.cls-5{fill:#85a178;}.cls-6{fill:#fff;}</style></defs><path class="cls-1" d="M67.015,74.058s-5.2,5.622-5.753,6.714a27.765,27.765,0,0,1-3.2,4.51c-.674.633-5.315,5.624-5.962,6.461s-1.543,1.849-2.528,1.186-8.224-6.75-8.868-7.968.579-7.391.584-8.554,1.032-3.327-.185-3.582-6.294-2.182-6.294-2.182l.5,11.25s2.465,6.125,3.176,8.3,9.528,9.55,10.662,10.374,3.836,1.388,3.827.516-1.216-1.144.829-2.117A99.886,99.886,0,0,0,64.57,91.991c.782-.806,3.318-2.733,3.318-2.733Z"/><path class="cls-1" d="M113.093,113.962s6.257-2.836,7.666-6.307,2.466-12.263,1.161-17.214S114.584,68.091,112.841,64s-7.854-16.545-7.4-23.406,4.35-10.577,13.68-12.371S134.729,36.1,134.24,42.757s-1.821,13.111-5.976,13.847-6.755-.812-4.205-2.741a14.253,14.253,0,0,0,4.786-7.075c.94-2.664.481-9.607-1.623-11.166s-1.6-3.475-8.185-2.685-9.645,8.537-7.484,16.855,12.64,29.694,13.435,34.573,1.268,17.9-.3,22.651-5.6,7.65-6.857,9.821-6.676,4.1-6.676,4.1Z"/><path class="cls-1" d="M93.91,67.4s3.007,5.829,3.486,9.3,1.2,7.235,2.9,10,6.345,4.593,7.01,5.22,3.347,3.376,3.347,3.376l-3.368-1s4.186,3.468,4.9,3.813,2.465,3.371,2.819,4.257.656,1.8.656,1.8l-2.176-.843s1.246,2.882,1.471,3.712.7,2.563.7,2.563l-1.165-1.369s1.932,4.594,1.165,5.592-2.028,5.863-3.108,7.123-8.287,7.14-11.059,6.993-7.935-2.238-9.53-2.281S78.849,128.1,78.849,128.1l-14.521-2.466s-2.033-3.936,2.233-3.718,11.941.787,14.2.446,5.841,1.487,4.554-.021S74.733,108.189,74.53,107.8s-5.409-12.813-6.689-15.335-1.7-13.932-1.546-14.7,1.562-5.244,1.562-5.244Z"/><path class="cls-1" d="M86.045,72.88S79.724,83.285,78.58,86.324s-1.907,8.451-3.512,10.128-5.607,6.162-7.084,6.735-6.427,5.222-7.277,5.8-3.239,2.241-5.447,3.447-2.595,3.714-2.958,4.55-1.411,5.743-.884,5.906,3.106-5.172,3.106-5.172a27.746,27.746,0,0,0-1.549,4.9c-.081.7-.127,3.7.951,3.728,1.166.025,1.239-5.615,1.239-5.615s.383,5.035,1.159,4.906c1.364-.227,1.591-4.905,1.591-4.905s-.775,4.009.56,3.945,1.8-6.508,1.891-6.784,1.127-2.715,1.127-2.715,6.973-5.513,9.148-5.78,6.789-6.553,7.442-7.309a28.179,28.179,0,0,0,3.677-4.6C82.8,95.6,88.706,81.739,88.706,81.739"/><path class="cls-1" d="M107.213,107.723S95.1,92.566,89.716,91.9s-7.1-3.918-7.406,4.465,1.864,19.336,3.656,21.253,1.824,4.2,2.143,5.985.243,3.556-.941,3.453-8.877-.474-10.487-.753-11.366-1.43-13.5-1.772-7.358,2.193-8.056,2.525-7.021,5.524-5.838,5.873,4.118-2.212,4.118-2.212-.851,1.81,1.578,1.426a36.161,36.161,0,0,0,4.234-1.724,4.773,4.773,0,0,0,2.748.633c1.891-.01,8.621.2,10.527.312s15.147.341,16.213.294,6.58.3,7.69-.585,1.583-1.583.547-2.582-1.846-1.32-.938-3.576,2.051-11.064,2.051-11.064"/><path class="cls-1" d="M92.023,45.459s-6.93-4.716-8.97-5.005-4.972-.427-6.979-.623-4.677.763-7.2,2.053-3.435,3.329-5.026,4.192-4.029,7.344-5.7,8.936-4.19,8.15-4.082,8.489,1.321-1.129,2.215-1.728,1.249-.82,1.249-.82a26.564,26.564,0,0,0-.853,4.118c-.279,2.263-.7,3.455-.032,4.154s.169-.849.943-1.9a18.5,18.5,0,0,1,1.36-1.659s-.951,4.4-.595,5.748a9.877,9.877,0,0,0,.83,2.178,18.5,18.5,0,0,1,.857-3.543c.418-.74,1.561.871,1.4,2.114s.157,1.226.157,1.226l1.386-2.2s.543,1,1.359,2.2,1.03-.421,1.03-.421a33.041,33.041,0,0,1,3.222,1.8C69.723,75.55,71,76.44,71,76.44a2.856,2.856,0,0,1,.111-1.673c.343-.841,2.473,1.274,3.218,1.438a1.329,1.329,0,0,1,.961.665V73.908l1.754,2.264.094-1.9,1.142,1.9a19.2,19.2,0,0,0,1.8-1.847c.847-1.009,1.45-.847,3.239-.507s.267-1.3.267-1.3A10.029,10.029,0,0,0,87.458,73c1.3-.324-.287-2.248-.287-2.248l3.111,1.175v-2l2.045.823.179-1.42A20.323,20.323,0,0,1,94.417,70.5a6.881,6.881,0,0,0,2.135.79s-1.72-2.866-1.6-3.582,1.242.8,1.242.8a5.2,5.2,0,0,0,.187-2.948c-.318-1.93-.459-3.852-.459-3.852l1.561,2.926a10.594,10.594,0,0,1-.423-3.277A12.773,12.773,0,0,0,94.839,55c-.9-1.015-1.67-8.491-1.67-8.491Z"/><path class="cls-2" d="M89.465,48.866s1.583,5.178,2.934,5.29,2.887-4.054,3.512-5.582.348-2.379-.855-2.765-2.6.85-3.483.957S89.465,48.866,89.465,48.866Z"/><path class="cls-2" d="M64.975,46.157s-2.579-2.4-5.3-1.308-2.131,3.717-1.073,5.323a17.055,17.055,0,0,0,2.184,2.681S63.322,48.57,63.7,48.2A15.456,15.456,0,0,0,64.975,46.157Z"/><path class="cls-2" d="M65.934,59.948s-2.371-6.343-.959-9.836,2.873-4.814,5.9-3.986,3.839,1.582,6.7,1.156,10.24-2.929,9.938,1.729-1.424,3.847-.9,7.312a23.311,23.311,0,0,1,.267,5.661Z"/><path class="cls-3" d="M63.418,61.569s-3.374,2.168.416,6.3,12.8,5.185,16.062,4.873,8.179-3.582,9.231-6.315,1.428-4.819-1.982-6.64-10-2.711-14.008-2.875S65.8,60.445,63.418,61.569Z"/><path class="cls-4" d="M67.91,48.73a1.984,1.984,0,0,0,.62-.4,6.108,6.108,0,0,1,.627-.481,3.381,3.381,0,0,1,.917-.365,3.084,3.084,0,0,1,1.8.134,2.008,2.008,0,0,1,.7.436l-.775.107c-.441.054-.984.156-1.511.273-.265.048-.529.13-.769.191-.254.077-.518.141-.764.2A1.094,1.094,0,0,1,67.91,48.73Z"/><path class="cls-4" d="M81.873,48.652a1.445,1.445,0,0,1,.776-.126,3.074,3.074,0,0,1,1.54.627,4.026,4.026,0,0,1,1.079,1.2,2.645,2.645,0,0,1,.293.705,5.355,5.355,0,0,1-.678-.314,10.96,10.96,0,0,1-1.27-.808c-.44-.323-.811-.666-1.139-.9A5.828,5.828,0,0,0,81.873,48.652Z"/><path class="cls-4" d="M68.721,61.414a1.822,1.822,0,0,1,.265-1.239,2.475,2.475,0,0,1,1-.949,2.627,2.627,0,0,1,1.633-.206,2.753,2.753,0,0,1,.792.306,2.685,2.685,0,0,1,.615.5,5.591,5.591,0,0,1,.721,1.061,2.119,2.119,0,0,1,.3.879.75.75,0,0,1-.045.348,1.156,1.156,0,0,0-.137-.294,3.088,3.088,0,0,0-.555-.6,4.073,4.073,0,0,0-1.887-1.251,2.305,2.305,0,0,0-2.012.539A2.772,2.772,0,0,0,68.721,61.414Z"/><path class="cls-4" d="M77.262,61.536a1.246,1.246,0,0,1,.045-.366,2.01,2.01,0,0,1,.476-.886,2.512,2.512,0,0,1,.554-.439,2.268,2.268,0,0,1,.728-.27,7.311,7.311,0,0,1,.812-.061,4.6,4.6,0,0,1,.846.017,1.425,1.425,0,0,1,.922.574,4.617,4.617,0,0,1,.378.708,4.992,4.992,0,0,1,.4,1.328,2.307,2.307,0,0,1-.072.993,1.276,1.276,0,0,1-.151.337,2.869,2.869,0,0,0-.306-1.184,7.513,7.513,0,0,0-.625-1.063l-.377-.554c-.114-.133-.143-.138-.347-.181a4.033,4.033,0,0,0-.668-.035c-.216,0-.575-.033-.657-.037a3.373,3.373,0,0,0-.6.076,1.824,1.824,0,0,0-.489.21A2.461,2.461,0,0,0,77.262,61.536Z"/><path class="cls-4" d="M63.936,64a3.829,3.829,0,0,0,.723.774,8.215,8.215,0,0,0,2.425,1.3,29.659,29.659,0,0,0,8.2,1.836c.76.064,1.526.095,2.276.091a8.284,8.284,0,0,0,2.089-.206c.667-.261,1.391-.463,1.95-.706l1.735-.721c1.06-.469,1.944-.867,2.533-1.207l.929-.533a15.869,15.869,0,0,1-3.221,2.233l-1.683.875c-.647.341-1.269.577-1.954.867a7.945,7.945,0,0,1-2.363.339c-.782.014-1.575,0-2.367-.061a22.5,22.5,0,0,1-8.343-2.308A7.406,7.406,0,0,1,64.526,64.9,3.21,3.21,0,0,1,63.936,64Z"/><path class="cls-4" d="M81.325,40.436s-.22-.413-.2-.038c-.123-.4-.366.078-.4.044-.039-.05.062.035-.171-.106a1.774,1.774,0,0,1-.4-.324,1.386,1.386,0,0,1-.283-.512,2.564,2.564,0,0,1-.054-1.017,5.3,5.3,0,0,1,.376-1.667,1.694,1.694,0,0,1,.454-.618,1.644,1.644,0,0,0-.273.678,4.953,4.953,0,0,0,.052,1.6,1.841,1.841,0,0,0,.214.71.463.463,0,0,0,.163.157,1.419,1.419,0,0,0,.2.076,2.855,2.855,0,0,1,.581.218,1.509,1.509,0,0,1,.222.154c.028.021.46.476.46.476Z"/><path class="cls-4" d="M79.486,40.133a1.619,1.619,0,0,1-.666-.08c-.229-.145-.533.011-.794-.3a4.094,4.094,0,0,1-.924-2.572,4.953,4.953,0,0,1,.2-1.376,6.232,6.232,0,0,1,.449-1.1,6.782,6.782,0,0,1,.605-.966,6.758,6.758,0,0,0-.43,1.04,6.036,6.036,0,0,0-.247,1.106,4.481,4.481,0,0,0,.027,1.264,3.274,3.274,0,0,0,1.052,1.889,2.154,2.154,0,0,0,.552.344c.168.065,1.223.628,1.223.628Z"/><path class="cls-4" d="M78.212,39.91a1.574,1.574,0,0,1-1.4.2,4.224,4.224,0,0,1-1-.718,2.827,2.827,0,0,1-.715-1.221,4.706,4.706,0,0,1-.16-.653l-.106-.61-.19-1.081-.184-1.055.368,1.006c.111.3.24.653.378,1.03l.213.581a4.009,4.009,0,0,0,.245.553,2.407,2.407,0,0,0,1.561,1.228c.561.176,1.594.634,1.594.634Z"/><path class="cls-4" d="M76.812,40.112a3.964,3.964,0,0,1-1.78-.477c-.579-.425-.328-.288-.938-.956a10.023,10.023,0,0,1-1.552-1.967,2.376,2.376,0,0,1-.307-1.09,2.335,2.335,0,0,0,.469.99,9.669,9.669,0,0,0,1.8,1.617A12.9,12.9,0,0,0,76.5,39.545a7.019,7.019,0,0,0,.966.4Z"/><path class="cls-4" d="M74.85,39.841s-.77.429-.929.327-.416-.281-.681-.487A9.85,9.85,0,0,1,71.5,37.919a9.526,9.526,0,0,1-1.211-2.1,3.063,3.063,0,0,1-.273-1.054,2.982,2.982,0,0,0,.442.966,9.1,9.1,0,0,0,1.493,1.775,9.008,9.008,0,0,0,1.85,1.313c.277.144.491.241.658.313s1.305.67,1.305.67Z"/><path class="cls-4" d="M73.3,40.289a2.171,2.171,0,0,1-1.4-.267A16.8,16.8,0,0,0,68.4,38.835a17.036,17.036,0,0,0-3.714-.39,15.917,15.917,0,0,0-1.713.094,15.977,15.977,0,0,1,1.7-.284,17.417,17.417,0,0,1,3.822-.021,17.6,17.6,0,0,1,3.777.834,16.644,16.644,0,0,1,1.642.649Z"/><path class="cls-4" d="M71.487,41.027s-.394-.162-.987-.347a14.789,14.789,0,0,0-2.254-.513,10.992,10.992,0,0,0-2.326-.127,1.936,1.936,0,0,0-.988.348,1.982,1.982,0,0,1,.95-.534,11.255,11.255,0,0,1,2.4-.3,15.4,15.4,0,0,1,2.435.117,19.742,19.742,0,0,1,2.3.613Z"/><path class="cls-4" d="M86.811,62.906a2.029,2.029,0,0,1,.288.721c.1.444.138,1.005.26,1.4-.031-.012.1.215.143.309a4.075,4.075,0,0,1,.162.377c0,.036.091.22.12.32l.123.331a3.636,3.636,0,0,1,.164.743,3.569,3.569,0,0,1-.621-.44l-.258-.241A1.357,1.357,0,0,1,86.9,66.1c-.076-.111-.169-.218-.237-.34a2,2,0,0,1-.234-.446,2.818,2.818,0,0,1,.125-1.706C86.694,63.2,86.811,62.906,86.811,62.906Z"/><path class="cls-5" d="M32.756,80.22s-.011,7.054,0,7.333,1.1,13.3,1.1,13.3l-.58,5.052a4.025,4.025,0,0,1,2.574,1.289,6.511,6.511,0,0,0,2.647,1.719s-2.157-6.49-1.864-9.3S34.89,78.348,34.89,78.348l3.927-10.359,5.806-12.8s2.613-4.085.526-4.234-3.473,4.073-3.473,4.073L34.805,70.643Z"/><path class="cls-4" d="M88.706,125.071a36.568,36.568,0,0,0,1.033-4.268l.207-1.6.31,1.606c.413,2.14.851,4.275,1.195,6.426l-.827-.122a17.406,17.406,0,0,0,1.429-4.887l.359-2.375.572,2.319,1.338,5.433-.8.11a11.633,11.633,0,0,1,.9-4.311l.156-.372.261.282a1.945,1.945,0,0,1,.411,1.082l.167,1.028c.116.684.223,1.37.317,2.059-.208-.663-.4-1.33-.59-2l-.285-1a1.711,1.711,0,0,0-.379-.809l.417-.09a10.983,10.983,0,0,0-.56,4.115l.216,3.836-1.015-3.726-1.472-5.4.931-.056a16.12,16.12,0,0,1-1.582,5.141l-.612,1.25-.215-1.372c-.337-2.152-.58-4.318-.848-6.481l.517,0A23.82,23.82,0,0,1,88.706,125.071Z"/><path class="cls-1" d="M33.274,71.293s-1.53-.181-1.3,1.224,5.79,3.206,6.362,2.956.937-.844-.089-1.8S34.574,71.205,33.274,71.293Z"/><path class="cls-1" d="M31.256,73.391s-.939,1.079.719,2.358c.974.751,4.117,3.086,4.707,2.5a1.217,1.217,0,0,0,.161-1.709C36.48,76.017,31.909,72.564,31.256,73.391Z"/><path class="cls-1" d="M31.256,76.205s-1.151,3.012.3,3.588,4.994,1.662,5.073,1.23.721-1.038-.391-2.035S32.313,75.888,31.256,76.205Z"/><path class="cls-6" d="M71.812,51.557s-1.269-1.8-2.335-1.422-2.659,2.962-1.315,4.021,2.35.1,2.944-.357S71.812,51.557,71.812,51.557Z"/><ellipse class="cls-4" cx="69.516" cy="51.906" rx="1.204" ry="1.316"/><path class="cls-6" d="M83.956,51.557s-1.27-1.8-2.336-1.422-2.659,2.962-1.315,4.021,2.351.1,2.945-.357S83.956,51.557,83.956,51.557Z"/><ellipse class="cls-4" cx="81.66" cy="51.906" rx="1.204" ry="1.316"/></svg>