<svg id="word" xmlns="http://www.w3.org/2000/svg" viewBox="0 0 160 160"><defs><style>.cls-1{fill:#607f8d;opacity:0.81;}.cls-1,.cls-2,.cls-4,.cls-5,.cls-6,.cls-7,.cls-8{stroke:#9d4b9c;stroke-miterlimit:10;}.cls-1,.cls-2,.cls-4,.cls-8{stroke-linecap:round;}.cls-1,.cls-2,.cls-4{stroke-width:0.709px;}.cls-2{fill:#fcb836;}.cls-3{fill:#f9aa4d;}.cls-4,.cls-8{fill:none;}.cls-5{fill:#fde2d4;}.cls-5,.cls-6,.cls-7,.cls-8{stroke-width:0.567px;}.cls-6{fill:#d2b5b9;}.cls-7{fill:#26a9e0;}</style></defs><path class="cls-1" d="M38.933,45.791s-5.041.2-6.091-4.514,6.3-4.715,6.3-4.715.1-5.116,4.305-7.122a9.543,9.543,0,0,1,7.667-.4,3.039,3.039,0,0,1,1.47-3.01,3.886,3.886,0,0,1,3.57,0s-.105-4.915,5.671-6.721S71.7,21.816,71.7,21.816a5.022,5.022,0,0,1,4.1-2.508,4.755,4.755,0,0,1,3.991,2.308,8.892,8.892,0,0,1,7.876-2.308c4.726,1,6.3,6.019,6.3,6.019s4.1-.9,6.826.6,1.89,5.216,1.89,5.216,4.1-1.906,7.982,2.107,3.045,7.022,3.045,7.022a5.163,5.163,0,0,1,6.091,1.3c3.046,3.009.735,6.219-1.05,7.924s-7.456,1.4-7.456,1.4a10.917,10.917,0,0,1-7.351,8.426c-3.328,1.241-10.5,0-10.5,0s-4.306,4.614-9.976,4.715a13.049,13.049,0,0,1-9.032-3.311s-10.4,2.608-14.177-1.4a8.626,8.626,0,0,1-2.415-4.815s-5.041.6-6.2-1.1a6.859,6.859,0,0,1-1.261-2.608s-7.036,2.909-9.766.2S38.933,45.791,38.933,45.791Z"/><path class="cls-2" d="M90.286,38.769s-9.557,5.818-13.127,8.125a73.89,73.89,0,0,0-8.4,6.922l6.3-1.3s-8.611,6.821-10.816,9.63-7.457,8.325-7.457,8.325L73.8,64.248A95.571,95.571,0,0,0,61.085,82.615c-2.786,5.489-11.849,21.41-12.67,23.568-.646,1.7,12.66-16.676,15.79-21.763,3.148-5.118,22.72-26.291,22.72-26.291L68.337,63.345,85.77,47.2,76.844,50.1Z"/><polygon class="cls-3" points="117.602 54.825 109.725 60.944 113.191 60.342 106.47 66.662 111.826 65.96 103.95 76.894 115.291 63.853 111.091 64.355 118.337 58.537 113.821 58.737 117.602 54.825"/><polygon class="cls-3" points="47.229 74.58 38.828 82.204 43.658 81.502 33.892 94.944 47.964 79.596 42.713 80.097 47.229 74.58"/><path class="cls-4" d="M55.63,50.806s6.931,2.107,12.077.1,4.516-7.624,4.516-7.624"/><path class="cls-4" d="M86.82,48.7s3.886,1.906,6.616.3,3.781-5.919,3.781-5.919"/><path class="cls-4" d="M80.069,55.774c1,.243,4.084-.988,4.6-1.274,3.987-2.2,4.427-3.839,5-4.829"/><path class="cls-4" d="M88.585,56.541a11.742,11.742,0,0,0,8.656-2.085,10.72,10.72,0,0,0,4.307-7.469"/><path class="cls-4" d="M103.2,52.939c.815.194,4.859-.642,8.059-3.75a7.023,7.023,0,0,0,1.682-4.5"/><path class="cls-4" d="M44.238,46.777A16.731,16.731,0,0,0,50.9,48.2a8.738,8.738,0,0,0,2.375-.137,7.172,7.172,0,0,0,2.111-.866c4.5-2.777,4.835-5.455,5.7-7.074"/><path class="cls-4" d="M57.626,39.328A24.536,24.536,0,0,0,63.95,40.36a24,24,0,0,0,4.316-.45c2.286-.574,4.127-2.149,5.872-3.672"/><path class="cls-5" d="M92.749,106.976a32.153,32.153,0,0,0,.322,6.268c.482,1.768,3.054,4.018,3.054,4.018s-.8,3.376-4.179,3.376-6.59.321-7.715-.322-3.05-1.954-3.05-1.954,3.21-.617,3.692-3.35a61.46,61.46,0,0,0,.483-7.876Z"/><path class="cls-6" d="M88.49,76.6s-1.447.4-4.822,1.045-5.867,3.455-7.8,4.9S72.336,88.17,70.649,90.5s.723,7.314-.965,9.564.241,2.732,1.206,3.617.562,1.366,2.732,2.009a23.338,23.338,0,0,0,5.867.562,32.428,32.428,0,0,1,4.5,0c3.3.161,9.966.241,11.814-.16s1.688-.161,4.1-.161,2.491-1.688,4.822-1.768,2.733,1.446,3.938-.563,2.331-2.33,1.527-4.018.241,2.491-1.848-4.661-1.126-8.76-3.054-10.448S96.366,75.391,88.49,76.6Z"/><path class="cls-5" d="M77.158,87.045s-1.125,7.554-.8,9.8.964,7.716,3.536,9.644,5.465,3.7,8.84,3.054,8.84-3.214,10.448-7.393,3.536-7.555,1.929-10.77a13.319,13.319,0,0,0-11.091-7.233C84.552,83.991,77.158,87.045,77.158,87.045Z"/><path class="cls-6" d="M81.337,79.57s-3.777,3.617-4.982,6.269-.483,3.375-.563,4.34a.773.773,0,0,0,1.125.8c.241-.161,1.286.884,2.331.08a5.333,5.333,0,0,1,3.423-1.179c.8.161,3.172-.852,4.457-.611s2.048-.848,2.932-.366,5.373.855,5.373.855A15.928,15.928,0,0,1,98.7,91.706a5.987,5.987,0,0,0,3.375,1.125s-.563-5.545-2.733-8.76S89.294,76.034,81.337,79.57Z"/><path class="cls-7" d="M82.058,131.946c-1.959-.274-4.291-1.426-6.226-1.821.58-5.664,1.275-11.065,1.275-11.065l5.447-1.464s1.947,1.946,8.054,1.946,5.465-2.893,5.465-2.893a40.575,40.575,0,0,0,3.858,1.768c1.045.321,6.59,1.607,6.59,1.607l-1.378,10.59a119.794,119.794,0,0,1-16.75,1.487A37.11,37.11,0,0,1,82.058,131.946Z"/><path class="cls-8" d="M89.013,99.083a2.244,2.244,0,0,0-2.724-.1"/><path class="cls-8" d="M86.861,78.721c-.153-.037-.263.143-.315.291a17.805,17.805,0,0,0-.538,10.022"/><path class="cls-8" d="M85.755,78.637c-1.775,3-2.346,6.551-2.642,10.024"/><path class="cls-8" d="M84.41,78.816c-2.188,3.2-4.428,6.51-5.165,10.313"/><path class="cls-8" d="M88.045,78.465c.782,1.526.65,3.335.837,5.04.18,1.649.67,3.343.183,4.929"/><path class="cls-8" d="M90.166,78.634A20.756,20.756,0,0,0,92.3,83.4a7.713,7.713,0,0,1,1.049,5.025"/><path class="cls-8" d="M92.3,79.087a17.232,17.232,0,0,0,2.479,4.746,10.371,10.371,0,0,1,1.955,4.942"/><path class="cls-8" d="M97.246,79.762,99.4,82.375c2.593,3.142,5.257,6.42,6.28,10.364a28.089,28.089,0,0,1,.5,7.971,4.251,4.251,0,0,1-.523,2.313"/><path class="cls-8" d="M102.734,88.5c1.083,1.839,1.176,4.075,1.239,6.209a19.173,19.173,0,0,1-.242,4.674c-.413,1.89-1.392,3.627-1.744,5.531"/><path class="cls-8" d="M75.8,84.925a33.062,33.062,0,0,0-1.791,7.989,16.708,16.708,0,0,0,1.22,8.034"/><path class="cls-8" d="M73.148,90.249a38.456,38.456,0,0,0-.453,6.2,12.889,12.889,0,0,0,1.526,5.968"/><path class="cls-8" d="M86.011,103a2.759,2.759,0,0,0,1.052,2.634,1.216,1.216,0,0,0,1.348.19,1.366,1.366,0,0,0,.474-.937c.17-.987.262-2.83-.708-3.48C87.107,100.689,86.175,102.062,86.011,103Z"/><path class="cls-8" d="M79.423,93.086a5.029,5.029,0,0,1,3.369-2.537"/><path class="cls-8" d="M93.113,90.493a14.182,14.182,0,0,1,3.8,2.676"/><path class="cls-5" d="M76.39,94.77a1.588,1.588,0,0,0-1.977.372,2.6,2.6,0,0,0-.511,2.064,7.73,7.73,0,0,0,.7,2.069,5.113,5.113,0,0,0,.887,1.487,1.729,1.729,0,0,0,1.563.572"/><path class="cls-5" d="M102.061,95.5a2.947,2.947,0,0,1,1.1,2.728,8.677,8.677,0,0,1-.988,2.909,3.63,3.63,0,0,1-1.067,1.5,1.25,1.25,0,0,1-1.676-.131"/><path class="cls-5" d="M58.286,101.751s.408-2.609,1.909-3.132a40.665,40.665,0,0,1,4.9-1.109c.392-.065,5.156-.326,6.462-.392s4.7-.587,4.829.2-1.24,1.436-2.48,1.567-3.72.065-3.916.783.653,1.109,1.175,1.7,1.175,1.109.326,1.762-1.7-.588-2.806-.457-1.5.783-2.806,1.044-4.177-1.436-4.177-1.436l-.914.2Z"/><path class="cls-5" d="M63,98.1s2.154-.848,2.872-.457a6.009,6.009,0,0,1,1.957,2.937,1.517,1.517,0,0,1-1.305,1.632c-1.044.131-2.872-.13-2.349-.783s1.3-.718,1.109-1.11-1.762-1.174-1.762-1.174"/><path class="cls-5" d="M66.2,97.053s1.044-1.044,2.023-.392,2.023,2.676,1.7,3.525-1.175,1.958-1.762.914-2.284-3.46-2.284-3.46S65.417,97.379,66.2,97.053Z"/><path class="cls-5" d="M68.68,96.27s1.3-.065,1.7.522,1.5,3.133,1.305,3.459-1.175,1.044-1.566.261-1.7-2.937-1.7-2.937S67.505,96.139,68.68,96.27Z"/><path class="cls-7" d="M61.3,97.883s-.366,4.275.855,5.252l1.221.977s-2.564,4.763-2.809,6.106-2.32,4.764-.854,6.107,3.663,0,3.419.977-.977,1.588.977,1.588,6.473.488,7.084-.122,6.717,0,6.717,0L76.32,130.125s-14.411-.488-17.953-2.32-10.625-6.351-8.427-10.747,5.618-12.58,6.473-14.289S59.833,94.342,61.3,97.883Z"/><path class="cls-5" d="M119.464,103.216s-.408-2.609-1.909-3.131a40.871,40.871,0,0,0-4.9-1.11c-.392-.065-5.156-.326-6.461-.391s-4.7-.588-4.83.2,1.24,1.436,2.48,1.566,3.72.065,3.916.783-.653,1.11-1.175,1.7-1.175,1.11-.326,1.762,1.7-.587,2.806-.457,1.5.784,2.807,1.045,4.177-1.436,4.177-1.436l.913.2Z"/><path class="cls-5" d="M114.748,99.563s-2.153-.849-2.871-.457a6,6,0,0,0-1.958,2.937,1.518,1.518,0,0,0,1.305,1.632c1.044.13,2.872-.131,2.35-.784s-1.306-.718-1.11-1.109,1.762-1.175,1.762-1.175"/><path class="cls-5" d="M111.55,98.519s-1.044-1.045-2.023-.392-2.023,2.676-1.7,3.524,1.175,1.958,1.762.914,2.285-3.459,2.285-3.459S112.334,98.845,111.55,98.519Z"/><path class="cls-5" d="M109.07,97.735s-1.3-.065-1.7.523-1.5,3.132-1.305,3.459,1.175,1.044,1.566.261,1.7-2.937,1.7-2.937S110.245,97.605,109.07,97.735Z"/><path class="cls-7" d="M116.452,99.349s.366,4.275-.855,5.252l-1.221.977s2.564,4.763,2.809,6.106,2.32,4.763.855,6.106-3.664,0-3.42.978.977,1.587-.977,1.587-6.473.489-7.083-.122-5.336-1.568-5.336-1.568l1.067,12.269s13.55.169,17.092-1.663,10.625-6.351,8.427-10.748-5.618-12.579-6.473-14.289S117.917,95.807,116.452,99.349Z"/><path class="cls-8" d="M79.482,96.157a4.413,4.413,0,0,1,4.787-.368"/><path class="cls-8" d="M90.807,95.654a3.17,3.17,0,0,1,4.411.577"/></svg>