<svg id="word" xmlns="http://www.w3.org/2000/svg" viewBox="0 0 160 160"><defs><style>.cls-1{fill:#f3763d;}.cls-1,.cls-2,.cls-3,.cls-4,.cls-5,.cls-6,.cls-7,.cls-9{stroke:#9c4c9c;stroke-width:0.67px;}.cls-2{fill:#c0b399;}.cls-3{fill:#fffbe3;}.cls-4{fill:#077041;}.cls-5{fill:#c1976b;}.cls-6{fill:#f8a85b;}.cls-7{fill:#e0d5b6;}.cls-8{fill:#9c4c9c;}.cls-9{fill:none;}</style></defs><path class="cls-1" d="M58.079,118.8a64.629,64.629,0,0,1-5.01,5.01c-1.193.835-2.385,2.5-1.55,3.936s-.955,1.908-1.67,1.908a11.824,11.824,0,0,0-6.918.716,28.5,28.5,0,0,1-8.588,1.55s2.386-1.908-.6-2.147-4.056-.715-3.936-1.431,3.936-.6,4.055-1.431-2.982-.239-.6-1.432,5.844,0,8.11,0,6.322.478,7.276-.715,6.322-6.68,6.322-6.68Z"/><path class="cls-1" d="M92.787,117.011s-1.312,6.56-.954,9.184,3.1,2.147.6,5.129.238,3.34-2.505,3.459-6.441-.119-8.23-.119a4.921,4.921,0,0,0-2.982.834c-.716.358.239-1.431-2.266-1.55s-4.055.119-4.175-.477,3.221-1.431,2.863-2.147-1.789-.835-.716-1.431,4.056.477,6.322.477,6.2,1.431,7.037-.954a25.9,25.9,0,0,0,.954-7.038c0-.954-.477-5.128-.477-5.128Z"/><path class="cls-2" d="M63.207,115.46s-2.5,2.505-3.22,3.1-2.624,2.147-2.982,1.431a1.763,1.763,0,0,0-1.908-.835c-.716.119-1.551,1.1-2.028-1.044s.119-5.039.119-6.47,3.7.357,4.652.835S63.207,115.46,63.207,115.46Z"/><path class="cls-3" d="M53.551,73.016a18.922,18.922,0,0,1-6.868,1.2,12.506,12.506,0,0,1-6.038-2.326c.3-2.858.616-5.69.616-5.69s-.022-.773-.04-2.054c2.261,1.025,5.936,2.4,8.986,2.173A8.45,8.45,0,0,0,54.47,65.1a41.3,41.3,0,0,0,2.914,5.307,5.4,5.4,0,0,1-.976,1.255A7.3,7.3,0,0,1,53.551,73.016Z"/><path class="cls-4" d="M41.221,64.146c-.079-5.444.659-19.821,1.829-24.067,1.521-5.516,3.578-11.331,6.888-13.657,2.086-1.466,3.131-1.968,7.187-1.968S65,27.078,65.831,30.06a20.843,20.843,0,0,1,.12,8.17,22.76,22.76,0,0,0,0,4.115s-3.578-1.431-5.487.239-2.624,5.725-3.339,6.083S52,57.016,52.354,59.282A27.737,27.737,0,0,0,54.47,65.1a8.45,8.45,0,0,1-4.263,1.221C47.157,66.548,43.482,65.171,41.221,64.146Z"/><path class="cls-2" d="M62.38,111.621a6.279,6.279,0,0,0,2.46-.283,2.129,2.129,0,0,0,1.431-1.859,2.767,2.767,0,0,0-.35-1.159,11.715,11.715,0,0,0-1.68-2.518,4.537,4.537,0,0,0,2.684.11c.851-.326,1.451-1.438.923-2.179-.3-.415-.856-.607-1.085-1.063-.383-.762.383-1.572,1.039-2.118s1.318-1.5.77-2.158c0,0,6.67-1.766,5.9-7.438a48.747,48.747,0,0,0-1.712-7.623,21.55,21.55,0,0,0,5.833,2.07c5.486.835,31.727,9.423,35.424,9.065s6.2-.477,7.872-1.55,4.533-2.267,3.7-.12-1.431,2.624.238,2.147,4.414-1.67,3.7,2.028a33.032,33.032,0,0,1-1.551,5.725L130,100.432s1.073,1.55-1.789,4.532-11.331,7.992-14.79,9.184-4.89,1.909-16.937,3.579-26.24,2.624-33.516-1.312L60.6,115.133a10.18,10.18,0,0,0,2.5-.547A5.046,5.046,0,0,0,62.38,111.621Z"/><path class="cls-5" d="M40.645,71.89a12.506,12.506,0,0,0,6.038,2.326,18.922,18.922,0,0,0,6.868-1.2,7.3,7.3,0,0,0,2.857-1.356,5.4,5.4,0,0,0,.976-1.255,20.54,20.54,0,0,0,1.291,1.759,71.173,71.173,0,0,0,5.844,6.2,65.75,65.75,0,0,0,8.242,4.967,48.747,48.747,0,0,1,1.712,7.623c.769,5.672-5.9,7.438-5.9,7.438.548.654-.115,1.612-.77,2.158s-1.422,1.356-1.039,2.118c.229.456.788.648,1.085,1.063.528.741-.072,1.853-.923,2.179a4.537,4.537,0,0,1-2.684-.11,11.715,11.715,0,0,1,1.68,2.518,2.767,2.767,0,0,1,.35,1.159,2.129,2.129,0,0,1-1.431,1.859,6.279,6.279,0,0,1-2.46.283,5.046,5.046,0,0,1,.721,2.965,10.18,10.18,0,0,1-2.5.547c-7.016-3.8-15.736-8.7-18.62-13.508-3.221-5.368-2.028-22.543-1.909-24.094C40.123,76.815,40.382,74.343,40.645,71.89Z"/><path class="cls-6" d="M66.428,43.061A9.771,9.771,0,0,0,70.483,47c2.624,1.193,5.845,2.386,3.221,5.367s-8.588.12-10.854-.954-2.863-2.862-3.459-2.982-2.386-2.862-1.193-3.936.954-1.67,2.624-2.862,4.055-2.982,4.532-1.432A26.769,26.769,0,0,0,66.428,43.061Z"/><path class="cls-7" d="M62.015,76.16s-2.416,6.8.119,11.629A36.716,36.716,0,0,0,70.6,97.927c4.056,3.34,8.111,8.588,13.24,9.781s16.7,2.624,16.46.6a6.22,6.22,0,0,0-1.312-3.22s8.23,3.339,10.138.715-2.147-4.413-2.147-4.413,14.909.954,12.285-1.67a14.311,14.311,0,0,0-6.8-3.339s7.753,2.027,4.89-1.074-9.184-4.413-11.689-6.441a28.056,28.056,0,0,0-14.194-6.44c-7.275-1.074-6.56-3.1-14.909-3.1A35.133,35.133,0,0,1,62.015,76.16Z"/><path class="cls-8" d="M99.467,93.275a7.338,7.338,0,0,1,1.883,1.658,1.756,1.756,0,0,1,.4,1.3,1.481,1.481,0,0,1-.977,1.007,6.943,6.943,0,0,1-2.536.4,10.5,10.5,0,0,1-1.267-.034,10.613,10.613,0,0,1-1.259-.143,19.026,19.026,0,0,1-4.781-1.538A20.173,20.173,0,0,1,86.7,93.275a33.964,33.964,0,0,0,4.433,2.171,21.065,21.065,0,0,0,4.685,1.35,9.98,9.98,0,0,0,1.2.166,9.581,9.581,0,0,0,1.209.062,7.785,7.785,0,0,0,2.356-.266,1.045,1.045,0,0,0,.751-.62,1.434,1.434,0,0,0-.263-1.026A8.365,8.365,0,0,0,99.467,93.275Z"/><path class="cls-8" d="M81.34,84.822a3.864,3.864,0,0,1,3.156.623,2.663,2.663,0,0,1,1.017,1.439,1.035,1.035,0,0,1-.331,1.032,1.654,1.654,0,0,1-.932.312c-1.1.017-2.129,0-3.2-.04a4.261,4.261,0,0,1-3.018-1.03,5.046,5.046,0,0,0,3.019.507c1.046-.062,2.138-.08,3.159-.105.509-.033.754-.176.685-.56a2.32,2.32,0,0,0-.726-1.154A4.394,4.394,0,0,0,81.34,84.822Z"/><path class="cls-8" d="M74.918,85.012a.911.911,0,0,1,1.052.017,4.726,4.726,0,0,1,.871.68,7.666,7.666,0,0,1,1.329,1.759,6.386,6.386,0,0,1,.735,2.129,1.213,1.213,0,0,1-.615,1.194,3.107,3.107,0,0,1-1.147.34,9.326,9.326,0,0,1-4.376-.235,15.141,15.141,0,0,1-3.812-2.069A25.265,25.265,0,0,0,72.913,90.4a8.349,8.349,0,0,0,2.048.268,16.5,16.5,0,0,0,2.1-.2c.687-.068,1.32-.271,1.239-.826a7.51,7.51,0,0,0-.587-1.944A7.4,7.4,0,0,0,76.6,85.931a4.545,4.545,0,0,0-.726-.752A.874.874,0,0,0,74.918,85.012Z"/><path class="cls-8" d="M95.752,97.213c.378.818.728,1.623,1.077,2.471a1.8,1.8,0,0,1,.111.728,1.1,1.1,0,0,1-.347.714,4.074,4.074,0,0,1-1.257.666,10.163,10.163,0,0,1-5.435.437,12.582,12.582,0,0,1-4.895-2.376c-1.443-1.061-2.871-2.132-4.262-3.264,1.548.9,3.054,1.871,4.552,2.838a12.89,12.89,0,0,0,4.736,2.146,10.144,10.144,0,0,0,5.136-.265,3.836,3.836,0,0,0,1.142-.493.935.935,0,0,0,.206-1.04Z"/><path class="cls-8" d="M63.7,92.956a1.344,1.344,0,0,1,1.09,1.257,4.786,4.786,0,0,1,.047.882,1.5,1.5,0,0,1-.075.484.744.744,0,0,1-.39.422,3.412,3.412,0,0,1-.918.181,3.01,3.01,0,0,1-.933-.036,1.621,1.621,0,0,1-1.338-1.436l.586-.139a3.439,3.439,0,0,1,.256.684,2.14,2.14,0,0,1,.08.8.646.646,0,0,1-.422.474,2.47,2.47,0,0,1-.371.093,6.472,6.472,0,0,1-.691.092,8.452,8.452,0,0,1-2.732-.255A16.5,16.5,0,0,1,53.09,94.08,26,26,0,0,0,58.017,95.9a7.888,7.888,0,0,0,2.539.168,5.862,5.862,0,0,0,.621-.1c.095-.025.226-.043.275-.062.059-.035-.006.024.01.015a1.97,1.97,0,0,0-.059-.515,2.733,2.733,0,0,0-.193-.563L61.8,94.7a1.043,1.043,0,0,0,.855.889,2.871,2.871,0,0,0,.772.084A3.339,3.339,0,0,0,64.2,95.6c.176-.049.249-.248.275-.531a7.94,7.94,0,0,0,.055-.833A1.267,1.267,0,0,0,63.7,92.956Z"/><path class="cls-3" d="M56.916,33.579a1.928,1.928,0,0,1,1.968,2.773c-.9,2.862-3.131,4.294-3.847,2.952A4.764,4.764,0,0,1,56.916,33.579Z"/><path class="cls-9" d="M69.883,51.918a6.453,6.453,0,0,1-3.636-1.126A12.559,12.559,0,0,1,63.4,48.877a10.568,10.568,0,0,1-2.1-3.312q-.573-1.282-1.035-2.611"/><path class="cls-8" d="M57.748,35.278a1.1,1.1,0,0,1,1.121,1.579c-.51,1.631-1.783,2.446-2.191,1.682A2.715,2.715,0,0,1,57.748,35.278Z"/><path class="cls-9" d="M63.884,43.6a2.893,2.893,0,0,0,.993,1.968"/></svg>