<svg id="word" xmlns="http://www.w3.org/2000/svg" viewBox="0 0 160 160"><defs><style>.cls-1,.cls-5{fill:#7d726a;}.cls-1,.cls-2,.cls-3,.cls-4,.cls-7,.cls-8,.cls-9{stroke:#9d4b9c;stroke-miterlimit:10;stroke-width:1.14px;}.cls-2{fill:#b4a17e;}.cls-3{fill:#5f5751;}.cls-4{fill:#f4d980;}.cls-6{fill:#9d509e;}.cls-7{fill:#c8bb9f;}.cls-8{fill:#f3e7c9;}.cls-9{fill:#fff;}.cls-10{fill:#9d4b9c;}</style></defs><path class="cls-1" d="M54.363,107.463a32.081,32.081,0,0,0,4.946,10.817c3.555,4.673,11.5,8.148,16.414,8.887s14.389,1.329,19.029.754,10.665-1.37,11.934-3.457,3.528-17.844,3.528-17.844L96.867,97.508,56.171,99l-1.022,9.153Z"/><path class="cls-2" d="M58.028,76.642s-4.77,3.594-5.27,7.137-1.418,6.961-1,10.447a22.3,22.3,0,0,1-.168,6.356l3.221-3.074s-.507,5.628-.444,8.72a12.554,12.554,0,0,0,2.238,6.711c.717.926,1.849-3.306,2.011-4.26s-.079,2.524,1.908,4.6a22.027,22.027,0,0,0,3.978,3.291l.183-2.358a33.494,33.494,0,0,0,7.31,5.008c3.312,1.4,3.973,1.362,3.973,1.362l.044-5.716,2.778,5.755.912-3.792,3.7,3.772.346-2.937L85,120.349l1.395-3.449,3.956,3.449s-.427-8.824-.471-13.338-1.3-25.564-1.3-25.564L72.086,79.8Z"/><path class="cls-3" d="M94.949,109.54s1.74,10.982,4.744,14a52.812,52.812,0,0,0,7.907,6.073l-2.378-8.445s4.521,8.116,5.845,9.107.589-9.494.194-10.294,6.137,6.653,8.692,7.589,2.15-1.593,0-6.948-12.6-22.719-12.6-22.719l-7.624-3.68-3.018,5.659Z"/><path class="cls-1" d="M88.022,82.02s-2.527,5.037-1.96,8.916.745,9.967,2.28,13.021a21.126,21.126,0,0,0,7.413,7.682c2.245,1.166,3.148,3.2,3.974,3.486s1.018-1.735,1.067-4.406-3.04,1.2,4.6,2.873,4.21-9.409,3.608-10.928,5.239,7.653,6.448,9.186,1.142-2.789,0-10.764-3.631-14.8-5.452-17.7-5.033-7.217-5.033-7.217L94.949,78.027Z"/><path class="cls-3" d="M42.549,98.656s-.692,8.01,0,10.485.822,6.371,1.647,4.719,1.971-3.926,1.971-3.926-1.123,5.836.592,8.632,2.779,1.056,2.537-1.12,2.224,6.149,3.095,6.266,1.972-4.512,1.972-4.512l4.538,4.937s1.353,1.121.408-5.857-1.754-12.434-2.16-14.323-6-8.845-6-8.845Z"/><path class="cls-1" d="M57.2,76.769a22.518,22.518,0,0,0-9.951,5.859c-4.581,4.643-6.043,11.874-5.668,14.78s.913,5.825.913,5.825,1.207-1.976,2.159-.971-.215,1.984,1.511,3.8,2.125,1.792,2.9-.229-1.029-2.449,1.489.668,3.459,8.9,3.808,6.441,1.794-4.651.121-10.968-2.069-16.943-1.726-18.192,5.27-7.137,5.27-7.137H56.035"/><path class="cls-4" d="M69.856,124.416s-1.493-1.569-2.888-.509a5.437,5.437,0,0,0-2.36,4.245,14.353,14.353,0,0,0,.984,4.014c.218.3.266-.31.967-1.821S69.856,124.416,69.856,124.416Z"/><path class="cls-4" d="M72.75,125.592s-2.75-1.47-3.48-.184-1.982,3.2-1.934,4.4a4.909,4.909,0,0,0,1.085,2.432s.753.411,1.011-.191S72.75,125.592,72.75,125.592Z"/><path class="cls-4" d="M75.308,126.179a2.218,2.218,0,0,0-2.973.77,7.851,7.851,0,0,0-1.6,4.291c.027.952.511,3.8,1.6,3.274s1.226-1.846,1.519-2.615S75.308,126.179,75.308,126.179Z"/><path class="cls-4" d="M82.288,127.573s-2.483-1.327-2.916,1.055a13.556,13.556,0,0,0,.461,5.886c.194.123.4,2.4,1,.813A66.111,66.111,0,0,0,82.288,127.573Z"/><path class="cls-4" d="M83.612,127.6a4.612,4.612,0,0,0-.321,3.229,38.359,38.359,0,0,1,.623,4.394s1.463.55,1.653-.7.155-6.362.155-6.362S84.652,126.363,83.612,127.6Z"/><path class="cls-4" d="M89.47,127.889s-1.253-1.073-1.972-.433-1.746,2.321-.873,3.3a14.165,14.165,0,0,1,1.717,3.823s1.128.348,1.128-2.631Z"/><path class="cls-5" d="M108.912,109.638l.01-.11c-.105-.048-.215-.089-.315-.146a1.055,1.055,0,0,1-.292-.2,7.116,7.116,0,0,1-.513-.686,10.852,10.852,0,0,1-1.007-2.233c-.251-.69-.46-1.4-.667-2.1a28.1,28.1,0,0,1-.792-2.833c-.129-.708-.379-1.394-.574-2.09a6.477,6.477,0,0,1-.27-3.294c-.412-.153-.508-.1-.56.291a2.751,2.751,0,0,0-.024.327,9.288,9.288,0,0,0,.423,2.784c.09.3.212.587.3.886.166.574.3,1.159.477,1.729.512,1.622,1.04,3.24,1.563,4.858a2.419,2.419,0,0,0,.128.3c.146.305.306.605.44.915a4.312,4.312,0,0,0,.816,1.257,2.428,2.428,0,0,0,.652.407C108.751,109.719,108.841,109.659,108.912,109.638Zm-16.026-11.6a2.9,2.9,0,0,0,0,.469,9.866,9.866,0,0,0,.811,2.4c.1.21.23.406.311.623a10.791,10.791,0,0,0,.916,2.008c.136.217.228.462.363.681.212.342.439.675.667,1.007.1.145.239.265.325.417a3.153,3.153,0,0,0,.85.815c.045.037.134.021.279.039-.106-.121-.158-.179-.209-.239-.273-.318-.569-.62-.816-.958a13.4,13.4,0,0,1-1.776-3.476,14.714,14.714,0,0,0-.647-1.636,7.68,7.68,0,0,1-.64-1.9C93.269,98.021,93.264,98.022,92.886,98.037Zm14.9,3.477a.7.7,0,0,0-.283.669,8.806,8.806,0,0,0,.437,2.244c.181.53.377,1.054.565,1.582a9.01,9.01,0,0,0,1.048,2.473c.094.126.193.248.3.393.174-.176.258-.279.119-.512a10.593,10.593,0,0,1-.708-1.423c-.209-.515-.353-1.057-.534-1.584-.218-.632-.439-1.263-.669-1.891a3.854,3.854,0,0,1-.268-1.725A1.433,1.433,0,0,0,107.79,101.514Z"/><path class="cls-6" d="M61.227,82.821a.6.6,0,0,1-.274.682,1.463,1.463,0,0,0-.486.686c-.131.358-.314.7-.439,1.058a4.588,4.588,0,0,0-.2.869,11.846,11.846,0,0,0-.106,1.958,6.165,6.165,0,0,0,.329,1.763A9.8,9.8,0,0,0,61.265,92.6a1.141,1.141,0,0,1,.063.259c-.15-.11-.254-.148-.3-.222-.291-.522-.592-1.04-.847-1.58a8.208,8.208,0,0,1-.81-4.485,10.709,10.709,0,0,1,.742-2.793,2.431,2.431,0,0,1,.87-.948C61.035,82.789,61.138,82.821,61.227,82.821Z"/><path class="cls-6" d="M70.738,103.7a2.671,2.671,0,0,1-1.08-.63,6.119,6.119,0,0,1-.591-.555,9.836,9.836,0,0,1-1.25-2.047c-.259-.616-.524-1.231-.741-1.861a4.5,4.5,0,0,1-.234-1.691c0-.08,0-.184.04-.234a.451.451,0,0,1,.263-.14c.037,0,.116.129.132.208.144.679.258,1.365.422,2.038a6.51,6.51,0,0,0,.388,1.021c.2.449.409.891.618,1.335.058.123.126.241.191.36a6.113,6.113,0,0,0,1.7,2.005A.844.844,0,0,1,70.738,103.7Z"/><path class="cls-6" d="M61.414,95.515a5.055,5.055,0,0,0,.119,2.37,6.314,6.314,0,0,0,.449,1.738c.079.158.15.321.237.476.163.293.346.562.736.568.042,0,.084.057.125.086a.494.494,0,0,1-.754.127,2.428,2.428,0,0,1-.471-.494,3.1,3.1,0,0,1-.6-1.286c-.166-.829-.339-1.658-.467-2.493a1.87,1.87,0,0,1,.1-.8C60.977,95.534,61.126,95.48,61.414,95.515Z"/><path class="cls-6" d="M64.307,92.036c-.141.156-.246.163-.328.02-.23-.4-.478-.79-.672-1.206a4.945,4.945,0,0,1-.448-2.3,10.027,10.027,0,0,1,.535-2.932c.036-.1.055-.211.083-.317.045-.176.132-.309.34-.273s.228.2.192.347a4.574,4.574,0,0,1-.3,1.012,4.339,4.339,0,0,0-.444,1.81,5.775,5.775,0,0,0,.272,2.346A3.852,3.852,0,0,0,64.307,92.036Z"/><path class="cls-6" d="M80.984,92.555c-.224-.053-.244-.216-.279-.352-.117-.464-.21-.934-.338-1.394a11.085,11.085,0,0,1-.247-2.522,4.822,4.822,0,0,1,.4-2.074.7.7,0,0,1,.587-.5c.125.17.054.315-.017.466a7.667,7.667,0,0,0-.344.784,3.829,3.829,0,0,0-.116.634c-.01.067.009.138,0,.2a13.486,13.486,0,0,0,.275,4.216C80.944,92.186,80.958,92.359,80.984,92.555Z"/><path class="cls-6" d="M78.8,102.794a1.49,1.49,0,0,1-.6-.927,5.879,5.879,0,0,1,.111-3.309,3.157,3.157,0,0,1,.615-1.281,2.1,2.1,0,0,1,.316-.317.2.2,0,0,1,.187,0,.2.2,0,0,1,.059.175.7.7,0,0,1-.124.253,3.4,3.4,0,0,0-.677,1.817.479.479,0,0,1-.03.161,3.953,3.953,0,0,0-.092,2.249,7.111,7.111,0,0,0,.232.905A1.54,1.54,0,0,1,78.8,102.794Z"/><path class="cls-6" d="M68.176,91.047a.179.179,0,0,1-.282-.1,9.229,9.229,0,0,1-.331-.965,5.922,5.922,0,0,1-.175-1.049,7.392,7.392,0,0,1,.23-2.838c.112-.34.2-.4.545-.374A10.071,10.071,0,0,0,68.176,91.047Z"/><path class="cls-6" d="M86.473,109.673c-.058.076-.1.187-.176.221a1.608,1.608,0,0,1-1.884-.316,1.9,1.9,0,0,1-.724-.962c-.036-.169-.082-.334.116-.42s.3.04.409.177q.309.376.64.734a1.49,1.49,0,0,0,1.553.485Z"/><path class="cls-6" d="M84.929,100.424c-.28.106-.4.067-.577-.187a1.9,1.9,0,0,1-.27-1.6,5.2,5.2,0,0,1,.457-1.046.445.445,0,0,1,.629-.2A2.621,2.621,0,0,0,84.929,100.424Z"/><path class="cls-6" d="M86.688,90.42a1.193,1.193,0,0,1-.459-.789,2.883,2.883,0,0,1,.116-1.692.34.34,0,0,1,.29-.252c.214-.024.3.079.249.291a6.658,6.658,0,0,0-.2,1.036,5.41,5.41,0,0,0,.082.971A.507.507,0,0,1,86.688,90.42Z"/><path class="cls-6" d="M69.722,87.283c-.058-.083-.13-.143-.144-.214-.138-.722-.272-1.444-.394-2.169-.038-.223.053-.326.245-.344s.271.095.286.267c.034.422.064.845.1,1.267.022.257.034.517.079.77A.356.356,0,0,1,69.722,87.283Z"/><path class="cls-6" d="M68.886,93.572l.415-.732c.176.008.293.106.237.254a2.188,2.188,0,0,1-.275.493C69.155,93.737,69.03,93.659,68.886,93.572Z"/><path class="cls-6" d="M108.912,109.638c-.071.021-.161.081-.207.057a2.428,2.428,0,0,1-.652-.407,4.312,4.312,0,0,1-.816-1.257c-.134-.31-.294-.61-.44-.915a2.419,2.419,0,0,1-.128-.3c-.523-1.618-1.051-3.236-1.563-4.858-.179-.57-.311-1.155-.477-1.729-.086-.3-.208-.588-.3-.886a9.288,9.288,0,0,1-.423-2.784,2.751,2.751,0,0,1,.024-.327c.052-.393.148-.444.56-.291a6.477,6.477,0,0,0,.27,3.294c.195.7.445,1.382.574,2.09a28.1,28.1,0,0,0,.792,2.833c.207.706.416,1.413.667,2.1a10.852,10.852,0,0,0,1.007,2.233,7.116,7.116,0,0,0,.513.686,1.055,1.055,0,0,0,.292.2c.1.057.21.1.315.146Z"/><path class="cls-6" d="M92.886,98.037c.378-.015.383-.016.438.251a7.68,7.68,0,0,0,.64,1.9,14.714,14.714,0,0,1,.647,1.636,13.4,13.4,0,0,0,1.776,3.476c.247.338.543.64.816.958.051.06.1.118.209.239-.145-.018-.234,0-.279-.039a3.153,3.153,0,0,1-.85-.815c-.086-.152-.225-.272-.325-.417-.228-.332-.455-.665-.667-1.007-.135-.219-.227-.464-.363-.681a10.791,10.791,0,0,1-.916-2.008c-.081-.217-.214-.413-.311-.623a9.866,9.866,0,0,1-.811-2.4A2.9,2.9,0,0,1,92.886,98.037Z"/><path class="cls-6" d="M107.79,101.514a1.433,1.433,0,0,1,.012.226,3.854,3.854,0,0,0,.268,1.725c.23.628.451,1.259.669,1.891.181.527.325,1.069.534,1.584a10.593,10.593,0,0,0,.708,1.423c.139.233.055.336-.119.512-.112-.145-.211-.267-.3-.393a9.01,9.01,0,0,1-1.048-2.473c-.188-.528-.384-1.052-.565-1.582a8.806,8.806,0,0,1-.437-2.244A.7.7,0,0,1,107.79,101.514Z"/><path class="cls-6" d="M94.656,124.658c-.083.065-.13.134-.179.135a.945.945,0,0,1-.32-.055c-.332-.119-.66-.249-.99-.374-.026-.01-.054-.035-.075-.029-.464.118-.771-.213-1.109-.413a6.567,6.567,0,0,1-1.163-.827,11.6,11.6,0,0,1-1-1.181.292.292,0,0,1,.442-.382c.162.185.325.369.482.558A7.263,7.263,0,0,0,93.254,124c.244.116.479.252.726.36.134.059.29.068.428.119A1.327,1.327,0,0,1,94.656,124.658Z"/><path class="cls-6" d="M83.256,124.259a1.829,1.829,0,0,1-1.067.163,4.421,4.421,0,0,1-1.949-.673,4.2,4.2,0,0,1-1.269-1.134.948.948,0,0,1-.168-.438c-.015-.178.133-.237.271-.119.165.142.306.314.474.452a7.7,7.7,0,0,0,.843.637,6.473,6.473,0,0,0,1.76.853C82.518,124.092,82.888,124.173,83.256,124.259Z"/><path class="cls-6" d="M95.122,119.378a3.192,3.192,0,0,0,3.161,1.954c.055.18-.029.24-.15.259a3.207,3.207,0,0,1-1.293-.081,4.088,4.088,0,0,1-.579-.146,2.346,2.346,0,0,1-1.339-1.4A.476.476,0,0,1,95.122,119.378Z"/><path class="cls-6" d="M53.022,108.963a5.071,5.071,0,0,1,.435,1.8c.035.526.008,1.058,0,1.587a1.129,1.129,0,0,1-.072.358.191.191,0,0,1-.155.093c-.048,0-.094-.075-.133-.123-.014-.017-.009-.054,0-.08.152-.6-.178-1.141-.24-1.716-.051-.472-.185-.935-.244-1.407C52.564,109.118,52.594,109.111,53.022,108.963Z"/><path class="cls-6" d="M50.266,105.115l-.027-.18.052-.012.055.165Z"/><path class="cls-7" d="M93.3,33.627a12.42,12.42,0,0,0-6.942-6.285c-5.153-1.9-6.527-2.479-6.527-2.479l7.139,6.366s-5.085-2.472-7.745-3.543a15.064,15.064,0,0,1-4.136-2.4L76.9,28.719a57.3,57.3,0,0,1-7.159-.083,39.807,39.807,0,0,0-6.852.163l6.3,1.53s-5.061,2.993-7.759,2.129a4.09,4.09,0,0,0-4.284.939L60.731,35s-5.352,2.2-5.036,2.942-2.724,2.1-2.724,2.1l3.064.7s-6.1,11.262-5.233,12.211,1.81,16.031,3.561,20.653S63.9,82.193,63.9,82.193l-1.564-4.08s4.051,5.6,7.506,5.7,1.446-1.939,1.446-1.939l6.466,3.651-.232-2.145s2.714.313,5.029.4,2.351-.6,3.774-1.216a15.1,15.1,0,0,1,3.4-.866c.947-.213,4.926,1.4,6.678.59s5.4-1.915,5.4-1.915,1.289,1.614,3.292-.961a9.5,9.5,0,0,0,2.261-5.364c.166-1.139.6-3.458.6-3.458l.774,3.772a8.822,8.822,0,0,0,.725-4.854c-.282-3.086-.725-5.893-.725-5.893l1.21.59s.377-.444.227-3.963,0-6.627,0-6.627l1.415,2.031a9.758,9.758,0,0,0-1.415-9.415,88.115,88.115,0,0,0-9.642-10.587s-1.209.2.572-1.793l1.78-2-4.369,2.815,2.582-7.113-4.222,4.588-1.608-5.286L94.4,34.088,91.773,28.3Z"/><path class="cls-8" d="M70.358,57.494a11.847,11.847,0,0,1,8.5-12.588c9.8-3.334,13.451-.267,16.4,2.407s5.34,5.971,5.975,8.332,1.818,4.937,2.855,4.782-5.929-1.583-5.929-1.583,4.963,4.494,6.58,4.855-6.028-1.049-6.028-1.049l3.582,4.874-4.488-1.191,1.923,5.446-3.041-.91a7.823,7.823,0,0,1-3.983,2.739c-2.453.611-11.788,1.736-14.048-.092s-5.3-2.983-6.093-4.383-3.075-6.942-3.075-6.942-1.965-1.867-2.858,0-5.3,6.671-5.3,6.671L58.9,71.888l-1.2-1.6-2.751,2.029-.591,1.287s-1.026-2.024-1.63-3.14a19.655,19.655,0,0,0-1.688-2.452l-1.212,3.09S48.494,67,49.165,64.339a31.514,31.514,0,0,1,1.492-4.523l-3.4,3.8s.215-4.724,1.62-7.2,2.213-4.1,2.213-4.1l-2.435.185s-.023-1.439,1.937-2.9-2.5-2.381-2.5-2.381,2.721-5.238,7.057-4.581,6.883.759,10.476,4.71S70.358,57.494,70.358,57.494Z"/><path class="cls-9" d="M87.5,52.409s-5.8-3.106-8.051-.08-2.147,8.906-.314,10.523,6.628.65,7.561-.292C87.8,61.442,90.348,55.93,87.5,52.409Z"/><path class="cls-10" d="M61.093,29.586a2.353,2.353,0,0,1,2.144-.544,2.951,2.951,0,0,0,.487.054.185.185,0,0,0,.143-.109.2.2,0,0,0-.072-.166.562.562,0,0,0-.227-.082,2.881,2.881,0,0,0-1.874.25A1,1,0,0,0,61.093,29.586Z"/><path class="cls-10" d="M59.461,32.062a2.334,2.334,0,0,0-.988.221c-.325.17-.666.312-1.007.449a1.851,1.851,0,0,0-.913.9c-.024.044.005.119.013.242.1-.09.189-.13.2-.189a1.13,1.13,0,0,1,.436-.528,4.6,4.6,0,0,1,1.5-.726A1.5,1.5,0,0,0,59.461,32.062Z"/><path class="cls-10" d="M91.055,25.016c-.531.078-.706.272-.728.7a6.026,6.026,0,0,0,.272,1.817c.008.03.047.053.147.161-.019-.232-.025-.371-.042-.509-.042-.339-.106-.676-.128-1.015a1.078,1.078,0,0,1,.324-.9A1.052,1.052,0,0,0,91.055,25.016Z"/><path class="cls-10" d="M85.277,24.346a2.733,2.733,0,0,0-.941-1.189.285.285,0,0,0-.432.049c-.1.179.025.275.158.36Z"/><path class="cls-10" d="M85.761,24.638l-.043.041a.47.47,0,0,0,.06.13,14.78,14.78,0,0,1,1.658,2.105.306.306,0,0,0,.367.183,27.215,27.215,0,0,0-1.829-2.32A.932.932,0,0,0,85.761,24.638Z"/><path class="cls-10" d="M69.463,28.3c.508.465.83.442,1.329-.063A2.349,2.349,0,0,0,69.463,28.3Z"/><path class="cls-10" d="M92.2,22.605a4.888,4.888,0,0,0,.48,2.065c-.091-.626-.181-1.253-.274-1.88a.259.259,0,0,0-.062-.143C92.311,22.617,92.25,22.618,92.2,22.605Z"/><path class="cls-10" d="M67.146,26.123c-.218-.366-.61-.322-.939-.416-.148-.043-.259.037-.294.247A1.7,1.7,0,0,0,67.146,26.123Z"/><path class="cls-10" d="M91.747,25.31l-.117-.125c-.036.043-.09.081-.1.13-.006.025.059.088.1.1S91.7,25.356,91.747,25.31Z"/><path class="cls-10" d="M67.934,26.421,68,26.392c-.013-.02-.029-.059-.037-.057a.425.425,0,0,0-.09.041Z"/><path class="cls-10" d="M60.4,31.907c.017-.019.044-.037.047-.058s-.029-.033-.045-.05c-.018.017-.045.032-.051.053S60.384,31.885,60.4,31.907Z"/><path class="cls-10" d="M91.747,25.31c-.051.046-.092.106-.119.1s-.106-.071-.1-.1c.012-.049.066-.087.1-.13Z"/><path class="cls-10" d="M67.933,26.421l-.057-.045a.425.425,0,0,1,.09-.041c.008,0,.024.037.037.057Z"/><path class="cls-10" d="M60.4,31.907c-.02-.022-.052-.043-.049-.055s.033-.036.051-.053c.016.017.047.036.045.05S60.421,31.888,60.4,31.907Z"/><path class="cls-10" d="M71.749,41.3c-.236.141-.22.352-.159.575-.062.066-.161.123-.18.2-.1.4-.179.8-.262,1.2-.11.533-.248,1.062-.316,1.6-.094.729-.143,1.464-.189,2.2a.71.71,0,0,0,.39.627c-.028-.321-.074-.588-.07-.854.008-.546.047-1.091.064-1.636a15.617,15.617,0,0,1,.559-3.343c.055-.19.109-.38.162-.573l.078-.415-.077,0Zm8.4.555-.025-.093c-.383.12-.771.228-1.15.362a16.9,16.9,0,0,0-2.515,1.254,8.925,8.925,0,0,0-.967.671,6.824,6.824,0,0,0-.563.469,5.011,5.011,0,0,0-.7.692,8.837,8.837,0,0,0-1.156,2.014.87.87,0,0,1-.512.59.242.242,0,0,0-.1.217c.042.138.179.132.268.059a2.572,2.572,0,0,0,.554-.526c.356-.55.683-1.119,1-1.693a3.829,3.829,0,0,1,.952-1.059c.519-.435,1.035-.88,1.59-1.268a11.3,11.3,0,0,1,1.319-.725c.371-.191.753-.361,1.13-.542Zm11.156.566.048-.067a2.541,2.541,0,0,0-.311-.295,4.592,4.592,0,0,0-1.826-.748c-.334-.055-.663-.136-1-.2a8.867,8.867,0,0,0-1.448-.244,10.644,10.644,0,0,0-2.888.241,2.339,2.339,0,0,0-.736.328.37.37,0,0,0-.136.5,3.085,3.085,0,0,1,.517-.268,8.934,8.934,0,0,1,3.766-.35c.889.118,1.766.322,2.649.483a1.928,1.928,0,0,1,1.193.56C91.167,42.405,91.244,42.406,91.3,42.425Zm-22.013-.731a11.879,11.879,0,0,0-.074,2.394c.047.8.128,1.6.166,2.409a16.317,16.317,0,0,1-.183,3.384.9.9,0,0,0,.126.76,1.279,1.279,0,0,0,.183-.323c.075-.414.143-.831.184-1.25.024-.241-.032-.49-.009-.732a8.737,8.737,0,0,0-.026-2.324c-.083-.483-.141-.972-.179-1.461C69.4,43.6,69.349,42.646,69.288,41.694Zm-6.556-1.678a2.013,2.013,0,0,1-.317-.076c-.131-.053-.246-.055-.327.067s.005.225.092.319c.25.269.5.539.738.817.2.226.376.464.562.7.254.32.53.625.754.965a12.6,12.6,0,0,1,1.175,1.816.289.289,0,0,0,.379.207,2.05,2.05,0,0,0-.052-.3,3.824,3.824,0,0,0-1.048-1.682,4.239,4.239,0,0,1-.324-.368c-.37-.434-.737-.871-1.109-1.3a1.3,1.3,0,0,1-.482-.994A.532.532,0,0,0,62.732,40.016Zm8.994,6.994.1.052a.9.9,0,0,0,.185-.236c.105-.309.183-.627.284-.938a1.747,1.747,0,0,1,.173-.356c.084-.139.184-.268.275-.4A4.032,4.032,0,0,1,73,44.758c.275-.322.544-.652.846-.947.407-.4.843-.766,1.263-1.151a1.026,1.026,0,0,0,.129-.208,1.6,1.6,0,0,0-.657.348,11.585,11.585,0,0,1-1,.9,5.691,5.691,0,0,0-1.449,1.645A2.5,2.5,0,0,0,71.726,47.01ZM76.4,34.918a13.136,13.136,0,0,1,2.117.766c.135-.223.078-.371-.115-.452a3.55,3.55,0,0,0-1.411-.385A1.12,1.12,0,0,0,76.4,34.918Zm4.31-.8c.274-.36.235-.489-.138-.591a3.285,3.285,0,0,1-.418-.146,1.63,1.63,0,0,0-.948-.152ZM67.79,35.441c-.209,0-.329,0-.45,0a.384.384,0,0,0-.12.025.347.347,0,0,0-.249.41.891.891,0,0,0,1.255.3,1.909,1.909,0,0,0-.187-.062,1.151,1.151,0,0,1-.319-.055.5.5,0,0,1-.235-.246c-.019-.058.095-.162.154-.242A1.164,1.164,0,0,1,67.79,35.441Zm7.675,6.8c.245.036.372-.125.551-.3C75.707,41.885,75.6,42.086,75.465,42.242Zm2.866-1.65-.04-.054-.254.185.037.049Zm-1.614.973c-.057-.038-.091-.078-.114-.072a.12.12,0,0,0-.072.08c-.005.025.032.058.05.087Z"/><path class="cls-10" d="M78.331,40.592l-.257.18-.037-.049.254-.185Z"/><path class="cls-10" d="M71.59,41.879c-.061-.223-.077-.434.159-.575v0q-.081.283-.162.571Z"/><path class="cls-10" d="M76.717,41.565l-.136.095c-.018-.029-.055-.062-.05-.087a.12.12,0,0,1,.072-.08C76.626,41.487,76.66,41.527,76.717,41.565Z"/><path class="cls-10" d="M87.975,52.59s-2.8-1.794-3.88-.047-1.035,5.143-.152,6.077,3.2.376,3.645-.168C88.122,57.806,89.348,54.623,87.975,52.59Z"/><path class="cls-9" d="M65.546,50.5s-5.8-3.106-8.051-.08-2.146,8.906-.314,10.523,6.628.649,7.561-.292C65.85,59.53,68.4,54.018,65.546,50.5Z"/><path class="cls-10" d="M66.022,50.678s-2.8-1.794-3.88-.047-1.035,5.143-.152,6.077,3.2.375,3.645-.168C66.169,55.894,67.4,52.711,66.022,50.678Z"/><path class="cls-4" d="M73.863,59.28a6.348,6.348,0,0,0-6.087-1.449c-3.7,1.034-6.337,3.312-6.553,6.521s1.7,6.813,1.7,6.813,1.719-2.8,4.105-2.563l2.386.238,2.41.34s-.393-.337.893-2.728S75.565,61.236,73.863,59.28Z"/><path class="cls-10" d="M65.194,68.69c.014-.4.392-.688.647-.9a6.178,6.178,0,0,1,.9-.608,7.479,7.479,0,0,1,2.037-.769,6.575,6.575,0,0,1,4.266.431c-1.438.24-2.729.394-4.026.683-.649.127-1.286.3-1.937.474-.323.092-.653.178-.982.281A1.739,1.739,0,0,0,65.194,68.69Z"/><path class="cls-10" d="M63.418,37.192a.434.434,0,0,0-.162-.451,1.109,1.109,0,0,0-.418-.22,4.258,4.258,0,0,0-1.01-.142c-.749-.041-1.49-.131-2.23-.216a23.529,23.529,0,0,1-4.431-.947,12.281,12.281,0,0,1,4.579-.183,15.413,15.413,0,0,1,2.24.473,3.17,3.17,0,0,1,1.135.536,1.331,1.331,0,0,1,.405.538A.529.529,0,0,1,63.418,37.192Z"/><path class="cls-10" d="M80.831,31.305a18.746,18.746,0,0,0-6.35-3.8c-2.308-.882-4.77-1.389-7.231-2.172a19.591,19.591,0,0,1,7.63,1.105,13.1,13.1,0,0,1,3.437,1.9A8.894,8.894,0,0,1,80.831,31.305Z"/><path class="cls-10" d="M100.71,37.924a1.184,1.184,0,0,1,.067-.934,2.424,2.424,0,0,1,.591-.751,6.072,6.072,0,0,1,1.505-.9,6.142,6.142,0,0,1,3.383-.494,16.848,16.848,0,0,1-2.935,1.542l-1.461.592A2.072,2.072,0,0,0,100.71,37.924Z"/><path class="cls-10" d="M95.708,34.941a4.11,4.11,0,0,1,.341-3.029c.418-.945.906-1.755,1.3-2.632.854-1.726,1.576-3.546,2.634-5.277a17.435,17.435,0,0,1-1.608,5.774,20.307,20.307,0,0,1-1.55,2.555A6.053,6.053,0,0,0,95.708,34.941Z"/><path class="cls-10" d="M91.538,34.054a17.776,17.776,0,0,0-1.681-2.829c-.625-.919-1.19-1.869-1.766-2.8L86.4,25.607l-1.765-2.816a16.088,16.088,0,0,1,4.435,5.042c.568.965,1.094,1.946,1.562,2.957A7.574,7.574,0,0,1,91.538,34.054Z"/></svg>