<svg id="word" xmlns="http://www.w3.org/2000/svg" xmlns:xlink="http://www.w3.org/1999/xlink" viewBox="0 0 160 160"><defs><style>.cls-1,.cls-3,.cls-5{fill:none;}.cls-2{clip-path:url(#clip-path);}.cls-3{stroke:#534741;stroke-linecap:round;stroke-width:6.056px;}.cls-10,.cls-11,.cls-12,.cls-13,.cls-3,.cls-5,.cls-7,.cls-8,.cls-9{stroke-miterlimit:10;}.cls-4{fill:#534741;}.cls-10,.cls-11,.cls-12,.cls-13,.cls-5,.cls-7,.cls-8,.cls-9{stroke:#9c4c9c;}.cls-5{stroke-width:3.028px;}.cls-6{fill:#ea2127;}.cls-7{fill:#ef9521;}.cls-10,.cls-11,.cls-12,.cls-13,.cls-7,.cls-8,.cls-9{stroke-width:1.085px;}.cls-8{fill:#e12e40;}.cls-9{fill:#9f54a0;}.cls-10{fill:#fbb617;}.cls-11{fill:#e24d4d;}.cls-12{fill:#b161a4;}.cls-13{fill:#fbe4d6;}</style><clipPath id="clip-path"><rect class="cls-1" x="-196" y="224" width="132" height="132"/></clipPath></defs><g class="cls-2"><line class="cls-3" x1="15.505" y1="-5.393" x2="-156.87" y2="295.955"/><polygon class="cls-4" points="32.121 78.848 38.104 68.415 32.121 68.411 32.121 68.404 14.478 68.404 14.478 80.082 14.142 80.664 3.002 80.664 3.002 98.258 -4.873 98.258 -4.873 115.836 -6.204 115.902 -15.377 115.902 -15.168 133.672 -16.391 133.545 -26.853 133.545 -26.853 151.188 -36.189 151.188 -36.189 167.834 -36.765 168.832 -46.692 168.832 -46.692 186.025 -46.952 186.475 -58.168 186.475 -58.168 204.118 -66.99 204.118 -66.99 221.179 -67.326 221.762 -77.493 221.762 -77.493 239.37 -77.513 239.405 -88.969 239.405 -88.969 256.999 -96.844 256.999 -96.844 272.885 -96.836 274.643 -107.347 274.643 -107.347 291.076 -107.364 292.286 -118.823 292.286 -118.823 309.929 -128.16 309.929 -128.16 327.121 -128.42 327.573 -138.663 327.573 -138.663 344.362 -139.193 345.216 -150.139 345.216 -150.139 362.859 -132.496 362.859 -130.745 362.859 -90.274 292.286 -80.157 274.643 -59.95 239.405 -59.85 239.405 -59.85 239.23 -49.832 221.762 -49.346 220.914 -29.597 186.475 -19.48 168.832 -9.209 150.922 0.755 133.545 2.267 130.91 10.873 115.902 12.77 112.594 31.08 80.664 32.121 78.848"/><line class="cls-5" x1="1.264" y1="21.259" x2="4.761" y2="113.01"/></g><polygon class="cls-6" points="118.866 97.011 114.161 108.638 124.593 103.906 118.866 97.011"/><polygon class="cls-6" points="105.629 120.095 114.161 108.638 99.787 114.063 105.629 120.095"/><path class="cls-7" d="M31.882,18.708,57.2,46.593s-7.125-6.9-12.033-1.61S34.43,57.194,34.43,57.194Z"/><path class="cls-8" d="M60.656,49.506l13.76,13.04s-21.1-.025-24.5,9.669S38.673,98.707,38.673,98.707L34.2,53.733s3.076-13.7,9.441-14.378S60.656,49.506,60.656,49.506Z"/><path class="cls-9" d="M90.529,82.549l-16.113-20s-16.859-2.957-22,4.055S38.673,98.707,38.673,98.707h0l74.26,9.938Z"/><path class="cls-10" d="M31.536,18.662,56.524,46.839s-6.093-7.828-.3-12.136,13.3-9.352,13.3-9.352Z"/><path class="cls-11" d="M59.046,50.593,70.524,65.681S72.778,44.7,82.782,42.37s27.551-8.318,27.551-8.318l-44.228-9.3s-13.949,1.578-15.313,7.833S59.046,50.593,59.046,50.593Z"/><path class="cls-12" d="M88.671,83.86,70.524,65.681s-1.119-17.08,6.407-21.43,33.4-10.2,33.4-10.2h0l1.861,74.9Z"/><line class="cls-13" x1="108.747" y1="103.502" x2="146.309" y2="156.211"/></svg>