<svg id="word" xmlns="http://www.w3.org/2000/svg" viewBox="0 0 160 160"><defs><style>.cls-1{fill:#85878a;}.cls-1,.cls-2,.cls-3,.cls-4,.cls-5,.cls-6,.cls-7{stroke:#9d4b9c;stroke-miterlimit:10;}.cls-2{fill:#c4c5c7;}.cls-3{fill:#fff;}.cls-4{fill:#aaacaf;}.cls-5{fill:#e6e7e8;}.cls-6{fill:#8bc53f;}.cls-7{fill:none;}</style></defs><path class="cls-1" d="M125.531,108.036s.136,5.17-1.223,5.442a48.828,48.828,0,0,1-5.572.272l-.136-5.17Z"/><path class="cls-1" d="M47.994,107.764s-.136,5.17,1.224,5.442a48.937,48.937,0,0,0,5.578.272l.136-5.17Z"/><path class="cls-2" d="M107.848,54.907c8.982,0,18.356.911,26.687,7.421s-.26,33.977-.911,37.232-3.775,9.763-7.42,10.024-73.814.13-77.589-.391a9.64,9.64,0,0,1-8.2-9.112c-.13-5.208-2.6-31.765-1.3-36.842s7.16-6.509,10.675-7.681c.1-.034.214-.067.331-.1,3.876-1.021,15.161-.162,15.161-.162Z"/><path class="cls-3" d="M81.421,66.493S59.68,65.842,58.9,68.316s-.521,13.8,1.692,15.752S84.024,86.8,90.664,86.8s20.178.13,21.87-2.474,6.249-14.58,1.563-16.012S81.421,66.493,81.421,66.493Z"/><polygon class="cls-1" points="90.273 41.759 111.883 36.291 112.534 37.983 90.794 43.581 90.273 41.759"/><polygon class="cls-1" points="51.325 51.132 91.291 40.717 92.202 44.232 52.236 55.298 51.325 51.132"/><path class="cls-1" d="M111.753,35.51l2.734-2.343a6.642,6.642,0,0,1,1.562,2.734,3.811,3.811,0,0,1-.52,2.864l-3.125.13Z"/><ellipse class="cls-4" cx="115.138" cy="98.128" rx="4.166" ry="4.036"/><ellipse class="cls-5" cx="115.529" cy="97.998" rx="2.343" ry="2.213"/><ellipse class="cls-6" cx="129.198" cy="63.564" rx="1.562" ry="1.497"/><path class="cls-1" d="M47.313,58.552s-1.432-7.16,1.692-8.071,4.817,7.681,4.817,7.681A7.331,7.331,0,0,1,47.313,58.552Z"/><ellipse class="cls-4" cx="101.794" cy="98.063" rx="4.166" ry="4.036"/><ellipse class="cls-5" cx="102.185" cy="97.933" rx="2.343" ry="2.213"/><path class="cls-7" d="M39.111,66.47s9.634,1.3,12.758,1.3,3.906,4.556,2.994,8.982-1.171,9.894-4.426,12.628S46.4,95.5,47.053,97.714"/><path class="cls-7" d="M38.748,69.518a36.669,36.669,0,0,0,14.283,1"/><path class="cls-7" d="M39.206,73.686a7.1,7.1,0,0,0,4.663,1.8,26.161,26.161,0,0,0,8.78-.658"/><path class="cls-7" d="M39.407,78.651a12.02,12.02,0,0,0,7.218,1.921,23.915,23.915,0,0,0,5.888-1.365"/><path class="cls-7" d="M39.152,82.672A13.438,13.438,0,0,0,50.43,84.056"/><path class="cls-7" d="M46.356,88.258a14.332,14.332,0,0,1-6.617-.94"/><line class="cls-7" x1="64.497" y1="76.778" x2="110.972" y2="76.778"/><line class="cls-7" x1="87.019" y1="68.837" x2="87.019" y2="84.589"/><line class="cls-7" x1="65.951" y1="74.297" x2="65.951" y2="79.875"/><line class="cls-7" x1="68.672" y1="74.297" x2="68.672" y2="79.875"/><line class="cls-7" x1="71.393" y1="74.297" x2="71.393" y2="79.875"/><line class="cls-7" x1="74.114" y1="74.297" x2="74.114" y2="79.875"/><line class="cls-7" x1="76.835" y1="74.297" x2="76.835" y2="79.875"/><line class="cls-7" x1="79.556" y1="74.297" x2="79.556" y2="79.875"/><line class="cls-7" x1="82.277" y1="74.297" x2="82.277" y2="79.875"/><line class="cls-7" x1="84.998" y1="74.297" x2="84.998" y2="79.875"/><line class="cls-7" x1="89.487" y1="74.433" x2="89.487" y2="80.011"/><line class="cls-7" x1="92.208" y1="74.433" x2="92.208" y2="80.011"/><line class="cls-7" x1="94.929" y1="74.433" x2="94.929" y2="80.011"/><line class="cls-7" x1="97.65" y1="74.433" x2="97.65" y2="80.011"/><line class="cls-7" x1="100.371" y1="74.433" x2="100.371" y2="80.011"/><line class="cls-7" x1="103.091" y1="74.433" x2="103.091" y2="80.011"/><line class="cls-7" x1="105.812" y1="74.433" x2="105.812" y2="80.011"/><line class="cls-7" x1="108.533" y1="74.433" x2="108.533" y2="80.011"/><path class="cls-7" d="M137.026,67.694S127.393,69,124.269,69s-3.906,4.557-3,8.983,1.172,9.894,4.427,12.627,4.035,6.119,3.384,8.332"/><path class="cls-7" d="M137.39,70.742a36.669,36.669,0,0,1-14.283,1"/><path class="cls-7" d="M136.931,74.91a7.1,7.1,0,0,1-4.662,1.805,26.2,26.2,0,0,1-8.781-.659"/><path class="cls-7" d="M136.731,79.875a12.028,12.028,0,0,1-7.218,1.922,23.861,23.861,0,0,1-5.888-1.366"/><path class="cls-7" d="M136.986,83.9a13.438,13.438,0,0,1-11.278,1.384"/><path class="cls-7" d="M129.782,89.483a14.345,14.345,0,0,0,6.617-.94"/></svg>