<svg id="word" xmlns="http://www.w3.org/2000/svg" viewBox="0 0 160 160"><defs><style>.cls-1{fill:#b1b3b4;}.cls-1,.cls-10,.cls-11,.cls-12,.cls-13,.cls-15,.cls-16,.cls-2,.cls-3,.cls-4,.cls-5,.cls-6,.cls-7,.cls-8,.cls-9{stroke:#9c4c9c;stroke-miterlimit:10;stroke-width:0.567px;}.cls-2{fill:#5a8246;}.cls-3{fill:#507941;}.cls-4{fill:#416635;}.cls-5{fill:#d5dd26;}.cls-6{fill:#f1a5c7;}.cls-7{fill:#ffc540;}.cls-8{fill:#1b75ba;}.cls-9{fill:#e5e6e6;}.cls-10{fill:#fde0ce;}.cls-11,.cls-16{fill:none;}.cls-11{stroke-linecap:round;}.cls-12{fill:#716558;}.cls-13{fill:#fff;}.cls-14{fill:#9c4c9c;}.cls-15{fill:#895d3b;}</style></defs><path class="cls-1" d="M27.157,86.8s55.514,44.839,59.784,46.5,10.676.238,11.862-4.27.949-8.541-1.423-9.015-4.982,2.135-7.355,2.135.237-4.508,2.373-4.745,8.066-2.135,10.913,2.373,2.846,11.15-3.8,15.9-14.946,1.9-17.556-.712S23.835,87.989,23.835,87.989Z"/><polygon class="cls-1" points="33.325 86.21 33.206 93.565 35.935 96.412 35.935 87.634 33.325 86.21"/><polygon class="cls-1" points="66.42 112.188 66.42 119.661 68.911 121.796 69.148 114.204 66.42 112.188"/><path class="cls-1" d="M92.16,107.443s23.384,15.542,27.4,16.132c8.066,1.187,14.827-3.8,15.539-9.252s.474-9.727-5.22-10.438-13.522,3.084-10.2,3.8,7.117-4.27,10.2,0,.238,11.151-2.846,11.862-7.118,1.187-10.913-.474-19.454-13.286-19.454-13.286Z"/><polygon class="cls-2" points="29.766 78.5 64.403 68.299 101.175 102.461 72.707 113.137 29.766 78.5"/><polygon class="cls-3" points="30.004 84.668 29.766 78.5 72.707 113.137 73.181 117.882 30.004 84.668"/><polygon class="cls-4" points="101.175 102.461 72.707 113.137 73.063 117.644 102.124 107.443 101.175 102.461"/><polygon class="cls-5" points="85.043 97.795 93.267 101.67 95.719 97.321 95.324 94.316 92.793 93.13 85.043 97.795"/><path class="cls-5" d="M73.972,106.1l4.112,5.456s2.452-3.4,2.926-4.191,1.977-3.242,1.977-3.242l-1.344-4.033s-4.745,1.107-5.852,1.977S73.972,106.1,73.972,106.1Z"/><path class="cls-6" d="M44,79.291s-2.531,8.857,1.423,12.494S55.23,97.954,59.5,97.954s5.061-.159,5.694,1.423a14.391,14.391,0,0,0,2.372,3.48c.475.632,7.908,6.168,7.908,6.168s.475-5.061,2.847-6.168a26.307,26.307,0,0,1,4.271-1.582s.474-2.056-2.215-5.852-6.484-8.857-8.066-9.49-9.489-6.168-9.489-6.168Z"/><path class="cls-6" d="M74.209,74.388s6.327,2.372,9.332,5.219,5.061,7.434,5.852,9.331,3.954,5.22,3.954,5.22a45.466,45.466,0,0,0-5.378,3.321,10.736,10.736,0,0,1-5.219,1.74S76.582,88.464,75,86.724s-12.178-6.959-12.178-6.959Z"/><path class="cls-7" d="M58.551,47.5s-4.27,1.423-8.066,7.591-8.7,26.571-8.7,26.571S41,82.928,47.8,83.877s15.341-2.214,16.448-3.321,11.546-5.694,11.546-5.694a32.311,32.311,0,0,1,2.214-9.648,64.774,64.774,0,0,0,3.005-8.382s-13.6,1.74-14.709-2.214a17.4,17.4,0,0,0-3.954-6.8Z"/><path class="cls-7" d="M63.375,58.572s-9.456-4.16-8.456,4.465c.455,3.929,4.148,9.6,6.125,12.125a24.375,24.375,0,0,0,6.285,5.473c1.5.87,4.982,5.3,4.982,5.3L80.852,83.8l-4.587-7.2S67.169,59.537,63.375,58.572Z"/><path class="cls-5" d="M81.88,85.933s4.033,5.615,4.587,6.169,1.9,2.056,1.028,2.056a6.161,6.161,0,0,1-2.452-1.266s3.321,3.559,2.214,4.982-4.507,1.108-6.405-.553-4.27-3.4-4.508-5.14-1.5-3.243.554-4.112S80.931,84.984,81.88,85.933Z"/><path class="cls-7" d="M83.382,56.674s4.666,6.089,4.508,8.7-1.423.79-.158,3.4S91.607,77,91.607,77l-8.066,2.61s-.712-1.661-1.661-4.033a14.354,14.354,0,0,0-2.689-5.061c-1.819-2.373-2.135-2.768-2.135-2.768l1.186-9.569Z"/><path class="cls-8" d="M94.928,93.683s2.056,2.214,4.191,1.661,4.049-3.527,4.745-3.875c2.373-1.186,4.824.87,4.824.87l-7.908,17.635a4.214,4.214,0,0,1-3.875-1.582c-1.423-1.977-5.219-6.959-5.219-6.959a5.774,5.774,0,0,0,1.107-2.372C92.951,97.874,90.9,93.92,94.928,93.683Z"/><path class="cls-9" d="M99.515,104.043s-2.689,4.507-.949,6.4,4.112-.474,4.9-1.344,2.609-4.033,3.637-4.745,4.113-7.117,3.875-9.252-1.423-3.164-3.479-2.847-3.717,2.609-4.112,4.112S99.515,104.043,99.515,104.043Z"/><path class="cls-10" d="M84.173,37.378s5.061,8.857,3.8,12.495-5.061,9.173-8.7,9.648-11.229-.317-14.55-3.8S60.449,41.016,63.3,40.542s18.189-4.429,18.189-4.429Z"/><path class="cls-11" d="M79.787,51.569l.794-.734a1.975,1.975,0,0,1,.639-.452,1.34,1.34,0,0,1,1.071.129,3.931,3.931,0,0,1,.86.7"/><path class="cls-11" d="M73.266,53.961l.627.579A8.171,8.171,0,0,0,75.8,55.981a8.189,8.189,0,0,0,3.935.481,4,4,0,0,0,2.5-.679"/><path class="cls-12" d="M78.154,39.988c.231.964-.688,1.806-1.571,2.257a9.655,9.655,0,0,1-3.837,1.038.9.9,0,0,0-.5.123c-.313.233-.177.723-.272,1.1-.148.588-.847.838-1.452.887a3.338,3.338,0,0,0-1.755.364l-.511-1.011a2.811,2.811,0,0,1-.629,2.111c-.809.726-2.095.29-3.15.552a1.524,1.524,0,0,0,.555,1.04c.251.2.609.41.55.726-.086.464-.89.338-1.133.742a.906.906,0,0,0-.084.451c-.033,1.1-.406,2.169-.5,3.269a3.135,3.135,0,0,0,1.111,2.946,9.128,9.128,0,0,1-3.247.378c-1,0-2.2-.123-2.661-1.01-.29-.556-.179-1.253-.457-1.815a2.126,2.126,0,0,0-1.066-.927c-1.31-.6-2.948-.513-4.024-1.471-1.095-.975-1.172-2.645-1.03-4.1l1.154-.431a4.2,4.2,0,0,0-.275-1.849A3.1,3.1,0,0,1,53.25,43.5a1.173,1.173,0,0,1,1.47-.795,2.331,2.331,0,0,1,3.311-2.66l.262-1.315.891-.011"/><path class="cls-12" d="M83.531,33.724a4.938,4.938,0,0,0,3.01,1.258,11.819,11.819,0,0,1,1.507.071,1.541,1.541,0,0,1,1.187.828c.312.761-.319,1.559-.921,2.118a1.173,1.173,0,0,0-.473.74c-.019.466.507.758.967.825a2.724,2.724,0,0,1,1.339.324,1.879,1.879,0,0,1,.477,1.538,2.144,2.144,0,0,1-.263,1.269,2.983,2.983,0,0,0-.341.457,1.2,1.2,0,0,0,.238,1.076,10.492,10.492,0,0,1,.955,1.663,2.258,2.258,0,0,1,0,1.861c-.612,1.145-3.2,1.549-3.5,2.813-.386-.891.733-2.608.534-3.559a15.079,15.079,0,0,0-1.127-3.736c-.425-.818-1.578-.717-2.079-1.491a4.648,4.648,0,0,0-.874-1.2.964.964,0,0,0-1.336.029c-.315.433-.027,1.084-.278,1.558a1.305,1.305,0,0,1-1.336.482,3.26,3.26,0,0,0-1.495-.018l-.059-.516-2.686-.8a9,9,0,0,1,4.874-6.309c.545-.26,1.207-.582,1.249-1.185"/><ellipse class="cls-13" cx="75.04" cy="48.529" rx="1.74" ry="2.293"/><ellipse class="cls-14" cx="75.713" cy="49.359" rx="0.99" ry="1.305"/><path class="cls-5" d="M61.4,27.414s-2.847,6.485-2.372,9.332a28.062,28.062,0,0,1,.316,5.535s11.862-.158,15.342-1.739,6.959-5.852,6.959-5.852-2.373-5.852-5.852-7.434S63.771,25.042,61.4,27.414Z"/><path class="cls-5" d="M61.715,10.649s-3.48-.316-4.113.317-3.637.158-3.321,1.107.158.949,0,2.53-1.74,2.689-.949,3.638.158,3.8,1.107,4.429.317.948,2.531,2.53,1.265,1.265,3.8,1.9,3.479,1.107,4.744.474a14.6,14.6,0,0,0,3.48-2.214c.791-.791.633-.791.949-2.688s1.265-4.113.949-5.22-.316-3.479-1.107-3.163-1.424-.474-2.373-1.582S65.036,7.17,61.715,10.649Z"/><path class="cls-5" d="M57.919,36.588s-.949-2.215,0-2.847,5.377,1.423,9.015.474,6.643-.949,9.015-2.214,2.531-5.219,4.745-3.163,4.428,3.637,3.163,6.642-7.275,6.8-9.964,7.434-13.127.633-13.918.316S56.653,41.174,57.919,36.588Z"/><path class="cls-14" d="M59.945,33.6a4,4,0,0,1,.062.411,7.212,7.212,0,0,1,.017,1.074,12.261,12.261,0,0,0,.137,3.1,11.188,11.188,0,0,0,.978,2.961A2.809,2.809,0,0,0,61.7,42a.974.974,0,0,0,.327.214.98.98,0,0,1-.342-.2,2.848,2.848,0,0,1-.622-.835A11.365,11.365,0,0,1,59.9,38.241a12.563,12.563,0,0,1-.328-3.165,6.843,6.843,0,0,0-.073-1,3.652,3.652,0,0,0-.078-.364Z"/><path class="cls-14" d="M62.247,34.025l.072-.018a.362.362,0,0,1,.272.079.641.641,0,0,1,.194.386,4.357,4.357,0,0,1,.112,1.022,11.834,11.834,0,0,0,.052,2.915,7.226,7.226,0,0,0,.636,1.414c.236.446.465.856.684,1.193a5.869,5.869,0,0,0,.83,1.051,5.864,5.864,0,0,1-.9-1c-.242-.326-.5-.725-.763-1.156a7.43,7.43,0,0,1-.746-1.423,11.935,11.935,0,0,1-.248-2.974,3.883,3.883,0,0,0-.155-.905c-.035-.14-.055-.127-.028-.1a.182.182,0,0,0,.138.035c.081-.022,0,0,.025,0Z"/><path class="cls-14" d="M65.086,34.852l0,0a.305.305,0,0,1,.269-.487.34.34,0,0,1,.306.3l.013.167a8.452,8.452,0,0,1,.007.939,20.206,20.206,0,0,0-.073,2.75A4.121,4.121,0,0,0,66,39.9a6.146,6.146,0,0,0,.692,1.072c.472.589.822.955.822.955s-.372-.34-.886-.9a6.278,6.278,0,0,1-.779-1.046,4.35,4.35,0,0,1-.506-1.425,20.35,20.35,0,0,1-.115-2.791,8,8,0,0,0-.066-.887l-.017-.126c-.008-.028,0,.116.188.139.151-.016.183-.053.227-.191a.257.257,0,0,0-.051-.188l0,0Z"/><path class="cls-14" d="M67.765,34.229l.153.291.081.153a1.9,1.9,0,0,1,.1.217l.188.452c.273.664.635,1.554.931,2.469a14.029,14.029,0,0,1,.6,2.568,9.412,9.412,0,0,1,.086,1.193,9.392,9.392,0,0,0-.169-1.179,13.827,13.827,0,0,0-.772-2.49c-.354-.88-.773-1.733-1.091-2.373l-.219-.436a1.681,1.681,0,0,0-.078-.151l-.091-.146-.173-.279Z"/><path class="cls-14" d="M71.249,33.2l.524,1.131.254.547c.089.2.185.386.282.626.172.435.345.912.49,1.392a9.593,9.593,0,0,1,.458,2.717,6.662,6.662,0,0,1-.054.905l-.055.339.032-.341a6.5,6.5,0,0,0-.007-.9,9.437,9.437,0,0,0-.629-2.634c-.175-.463-.373-.912-.573-1.334-.089-.187-.214-.4-.312-.582l-.29-.529-.6-1.092Z"/><path class="cls-14" d="M74.658,32.318s.3.409.73,1.052a9.132,9.132,0,0,1,1.234,2.557,8,8,0,0,1,.289,2.8,7.034,7.034,0,0,1-.2,1.259,7.028,7.028,0,0,0,.115-1.262,7.814,7.814,0,0,0-.461-2.714,8.776,8.776,0,0,0-1.348-2.378c-.459-.6-.788-.988-.788-.988Z"/><path class="cls-14" d="M77.721,30.359a7.894,7.894,0,0,1,.79.812,8.66,8.66,0,0,1,1.32,2.1,8.569,8.569,0,0,1,.654,2.366,7.607,7.607,0,0,1,.065,1.107,7.589,7.589,0,0,0-.148-1.094,8.244,8.244,0,0,0-2.225-4.173,7.617,7.617,0,0,0-.81-.714Z"/><ellipse class="cls-13" cx="85.556" cy="46.473" rx="1.74" ry="2.293"/><ellipse class="cls-14" cx="86.229" cy="47.303" rx="0.99" ry="1.305"/><path class="cls-11" d="M73.2,44.584a1.041,1.041,0,0,1,.68-.843,2.645,2.645,0,0,1,1.127-.126,4.479,4.479,0,0,0,1.14-.024"/><path class="cls-15" d="M75.079,82.138a20.627,20.627,0,0,1-2.689,1.028c-1.739.553-2.214,3.875-1.5,4.823s-.237,3.006,1.5,3.48a11.605,11.605,0,0,0,4.113.079s-1.332-2.674,1.041-3.386a42.9,42.9,0,0,1,6-1.121s-1.266-4.034-2.531-5.062S75.316,80.793,75.079,82.138Z"/><path class="cls-8" d="M76.107,109.736s3.638-.711,3.638-2.451.949-4.587,2.214-4.428,3.321,2.056,4.428,2.056,1.74-2.215,3.954-2.689,4.745,1.581,4.745,1.581-10.122,13.128-11.071,13.444-1.669,1.805-2.53,1.186c-3.085-2.214-5.378-8.778-5.378-8.778"/><path class="cls-9" d="M82.592,116.142s-2.056,1.344-.87,2.689,4.665-.238,5.3-.949,5.615-5.378,6.722-6.406,4.191-5.377,2.214-7.829c-1.4-1.734-4.033-1.107-4.9,1.187s-4.191,6.721-4.824,7.512S82.592,116.142,82.592,116.142Z"/><path class="cls-5" d="M86.862,84.51S89.234,89.729,89,91s-.949,2.056.158,2.214,1.424-2.847,1.424-3.163.237,4.033.237,4.744-.949,1.819,1.344,1.345,4.587-3.4,4.192-5.931S93.584,82.3,93.584,82.3s-3.163-.317-4.271.158A9.155,9.155,0,0,0,86.862,84.51Z"/><path class="cls-15" d="M87.257,86.961a6.665,6.665,0,0,0-1.344-1.028c-1.265-.869.4-.316-1.977-2.53s-2.531-3.8-1.74-4.35-.237-.79,1.977-1.028,3.875-1.66,4.587-1.66,3.242-.791,3.479-.237.87-.317,1.266,1.186.474.474.949,2.372a10.677,10.677,0,0,1,.632,3.48c-.079.949-.395,1.186-.395,1.186s-.554-1.345-1.424-1.582-5.535,1.186-5.535,1.186A3.208,3.208,0,0,0,87.257,86.961Z"/><path class="cls-16" d="M97.9,116.96a19.36,19.36,0,0,0-2.665-5.491c-1.181-1.51-2.8-2.653-3.877-4.239-1.882-2.766-1.829-6.367-2.754-9.582a4.652,4.652,0,0,0-1.968-2.974,6.738,6.738,0,0,0,4.029-1.665c-.192,1.736-.328,3.674.758,5.041a6.43,6.43,0,0,0,2.489,1.668,68.541,68.541,0,0,0,8.536,3.2,51.378,51.378,0,0,1,5.549,1.815c1.968.847,3.853,2.049,5.987,2.243a17.835,17.835,0,0,1,1.881.147,14.175,14.175,0,0,1,2.25.843c4.087,1.567,9.2-.193,12.752,2.367"/><path class="cls-16" d="M97.881,120.417a2.95,2.95,0,0,0,1.208-3.342"/><path class="cls-16" d="M134.127,106.024a3.178,3.178,0,0,1-.383,2.29,3.749,3.749,0,0,1-2.673,1.638"/></svg>