<svg id="word" xmlns="http://www.w3.org/2000/svg" viewBox="0 0 160 160"><defs><style>.cls-1{fill:#a6542a;}.cls-1,.cls-10,.cls-11,.cls-12,.cls-14,.cls-15,.cls-2,.cls-3,.cls-4,.cls-5,.cls-6,.cls-7,.cls-8,.cls-9{stroke:#9c4c9c;stroke-width:0.699px;}.cls-1,.cls-10,.cls-11,.cls-12,.cls-14,.cls-15,.cls-3,.cls-4,.cls-5,.cls-6,.cls-7,.cls-8,.cls-9{stroke-miterlimit:10;}.cls-2{fill:#adafb0;}.cls-3{fill:#998379;}.cls-4{fill:#73645b;}.cls-5{fill:#fbe4d6;}.cls-6{fill:#f05a2a;}.cls-7{fill:#f4f4c4;}.cls-8{fill:#f7ea2f;}.cls-9{fill:#21a19f;}.cls-10,.cls-14{fill:none;}.cls-11{fill:#a77c4f;}.cls-12{fill:#dfa069;}.cls-13{fill:#9c4c9c;}.cls-14{stroke-linecap:round;}.cls-15{fill:#fff;}</style></defs><path class="cls-1" d="M58.524,116.623c-1.08.992-2.782-1.159-4.164-.669a4.479,4.479,0,0,0-2.81,3.145,2.237,2.237,0,0,0-2.628-.425,6.545,6.545,0,0,0-2.137,1.875,3.109,3.109,0,0,0-3.951-2.537,1.52,1.52,0,0,0-1.773-1.23,2.682,2.682,0,0,0-1.813,1.488c.111-1.264-1.224-2.154-2.437-2.523a2.985,2.985,0,0,0-1.346-.164c-1.105.184-1.735,1.332-2.2,2.349-.735-.735-1.752-1.532-2.7-1.113a2.217,2.217,0,0,0-1.073,1.582,6.7,6.7,0,0,0-.013,3.183s-7.8.115-8.811,2.348a24.209,24.209,0,0,0-1.37,3.633,11.722,11.722,0,0,0-2.9,1.526,6.144,6.144,0,0,1-2.513,1.017,6.338,6.338,0,0,0,2.147.864c.558-.075,10.244,1.314,12.525,1.043s3.618-.338,10.3,2.473,5.418.937,12.381,1.735,19.346,3.441,20.042,3.858,18.09.757,20.317,1.909,7.1-.8,7.375-2.605-3.824-9.656-3.824-9.656a1.709,1.709,0,0,0-1.371-1.5,5.011,5.011,0,0,0-2.165.1,3.468,3.468,0,0,0-1.356-3.067,3.684,3.684,0,0,0-4.143-.455,2.507,2.507,0,0,0-4.319-1.43,3.078,3.078,0,0,0-5.48-1.665S61.64,113.759,58.524,116.623Z"/><path class="cls-2" d="M56.622,104.116s-2.769,6.74-4.376,11.039-2.091,7.246-1.913,10.278.435,4.594.435,4.594a47.749,47.749,0,0,1,4.717-2.034,47.992,47.992,0,0,0,10.579-4.785c3.62-2.428,8.92-9.236,8.92-9.236L58.108,102.908Z"/><path class="cls-3" d="M68.917,100.419a2.953,2.953,0,0,1-2.832.984c-1.736-.4-2.921-1.969-4.389-1.954s-3.588,2.587-3.588,2.587,3.67,3.624,4.867,4.553,8.1,5.634,8.1,5.634,2-2.446,2.076-3.18-.245-3.373-.089-3.969S68.917,100.419,68.917,100.419Z"/><path class="cls-3" d="M125.084,122.28s-7.265-1.166-9.314-1.324a13.679,13.679,0,0,0-5.052,1.145s-1.8,3.222-2.92,3.645-2.518,2.964-2.555,3.91c0,.041,0,.081-.008.121a41.427,41.427,0,0,0,7.243.493,63.98,63.98,0,0,0,8.039-.935,15.542,15.542,0,0,1,2.534-.656c.5-.661.819-1.16.819-1.16Z"/><path class="cls-4" d="M112.478,130.27a41.427,41.427,0,0,1-7.243-.493c-.068.886-.459,1.565.322,2.166.815.628,7.748.481,9.021.68a9.944,9.944,0,0,0,5.939-1.282,13.221,13.221,0,0,0,2.534-2.662,15.542,15.542,0,0,0-2.534.656A63.98,63.98,0,0,1,112.478,130.27Z"/><path class="cls-5" d="M83.9,39.752s4.626,4.69,5.467,5.415,2.094.669,2.862,1.042,3.893-.432,3.893-.432-1.444,7.461-3.261,8.371-5.373,2.569-6.321,2.569a7.13,7.13,0,0,1-2.64-1.109l-2.094-4.72.138-7.282Z"/><path class="cls-6" d="M120.517,51.588l6.309-6.106a1.541,1.541,0,0,1,2.7,0c1.5,1.832,2.422,3.96.712,5.026s-9.081,6.315-9.081,6.315Z"/><path class="cls-5" d="M62.858,46.859s6.067,6.724,10.844,7.172,8.924-.391,9.459-2.443,2.917-6.808,1.924-10.4-2.628-3.675-2.628-3.675-3.249-1.735-4.995-2.644-3.675-2.557-5.753-2.839-5.894-1.153-7.192-.52-1.917,6.445-2.393,8.016S61.75,45.717,62.858,46.859Z"/><path class="cls-7" d="M83.528,54.77A7.048,7.048,0,0,0,90,54.1a10.82,10.82,0,0,0,3.92-6.015,9.937,9.937,0,0,0-.372-1.815l4.941-2.557,10.933,12.5,7.449,13.626-16.82,3.985-14.266-7.7-3.5-9.024Z"/><path class="cls-7" d="M99.513,42.691s6.494-6.464,8.045-7.361,4.088-1.668,5.908-.318a12.665,12.665,0,0,1,5.155,6.473,57.265,57.265,0,0,1,1.485,5.648l-5.6,3.376s-1.066-5.421-1.339-6.21-2.047-3.808-3.119-1.582-2.8,6.635-3.185,7.122.142,2.55.142,2.55-2.652-1.907-4.765-3.61a17.627,17.627,0,0,1-3.754-5.07Z"/><path class="cls-8" d="M113.677,51.229a44.914,44.914,0,0,1-1.205,4.952,29.686,29.686,0,0,0-1,4.384l2.2-1.058s-.39-3.223.973-2.414.809,3.784.73,4.825-.547,2.592.768,1.672a16.987,16.987,0,0,0,2.8-2.806s-.2.365.715-.487,1.575-.916,1.927-2.445a8.353,8.353,0,0,0,.478-3.7c-.162-1.933-.021-2.809-.283-4.309s-.866-3.63-.866-3.63l-.4-2.95a9.847,9.847,0,0,1-3.725,3.207c-2.044.769-4.1,1.727-4.1,1.727Z"/><path class="cls-9" d="M82.641,56.434a17.4,17.4,0,0,1-2.022,3.616c-.933,1.033-.738,1.561-.738,1.561s7.051,9.557,7.645,10.431a39.9,39.9,0,0,1,1.949,5.033S78.893,83.534,76.7,84.853s-4.135,6.5-4.135,6.5-3.724,3.805-3.241,5.094-1.048,3.437-1.048,3.437l-.7.575s3.491,3.338,4.923,4.483,5.479,5.363,5.479,5.363l1.913-.065s2.117-3.855,3.27-6.588S84,96.6,87.439,94.535s1.155-2.529,4.4-2.857,4.528-1.032,5.7-1.09,4.732,0,4.732,0,2,2.035,1.659,3.375-2.881,4.347.04,6.5,3.607,1.691,2.89,3.9-1.373,2.811-.453,5.514,1.869,5,1.869,5l-1.235,5.057.81,4.056a13.985,13.985,0,0,1,8.674-1.7,31.243,31.243,0,0,1,8.976,1.994c.632.238,1.5,2.134,1.659.475a19.979,19.979,0,0,0-.72-6.275,3.258,3.258,0,0,0-1.36-1.88,7.252,7.252,0,0,0-.06-4.961c-1.02-2.608-2.466-7.349-2.258-9.562s-.645-12.247-.645-12.247L120.937,77.91l-1.246-1.044.166-8.122s-5.355-.916-6.531-1.126-5.3-8.671-7.291-10.418-4.07-9.187-4.07-9.187L99.448,41.2,95.1,45l4.287,11.716-10.9,7.153Z"/><polyline class="cls-10" points="94.577 73.818 91.266 67.231 100.609 60.393 104.081 63.87"/><path class="cls-11" d="M60.3,113.336,94.421,76.612l20.212-18.429a2.517,2.517,0,0,1,1.063,2.722,5.5,5.5,0,0,1-2,2.965L81.6,94.726l-16.562,19.28s-3.612,3.032-4.736,2.174S60.3,113.336,60.3,113.336Z"/><path class="cls-8" d="M84.246,90.54s-.773-1.343-1.6,0c-.545.88-.074,4.546.817,4.417S84.385,90.9,84.246,90.54Z"/><path class="cls-8" d="M81.7,91.834A6.278,6.278,0,0,0,80.244,96.3c.012,1.213,1.134,2.534,1.7,1.511s.693-5.082.693-5.082S82.238,91.71,81.7,91.834Z"/><path class="cls-8" d="M79.9,93.875s-1.008.718-.793,2.781c.087.836-.679,2.162.691,2.248s1.042-4.018,1.042-4.018S81.126,93.405,79.9,93.875Z"/><path class="cls-8" d="M78.1,95.92a5.312,5.312,0,0,0-1.319,3.106c-.1.87.772,3.024,1.243,2.338S80.435,95.879,78.1,95.92Z"/><path class="cls-10" d="M106.4,71.393a18.887,18.887,0,0,0,6.452,4.973c4.029,1.843,5.439,1.634,5.439,1.634l2.729.751"/><path class="cls-10" d="M118.24,79.355s3,10.162,3.221,14.608a78.517,78.517,0,0,1-.531,10.111c-.014,1.157.219,7.084.219,7.558a35.6,35.6,0,0,0,2.168,4.282"/><path class="cls-10" d="M118.439,61.611a19.618,19.618,0,0,0,.312-5.445"/><path class="cls-10" d="M120.038,59.557c-.046.059.092.076.144.023a1.978,1.978,0,0,0,.416-1.217,34.2,34.2,0,0,0,.14-4.885"/><path class="cls-12" d="M62.752,25.58s3.664,5.136,3.476,6.494.72,1.369.007,4.117-.314,4.82,0,5.009-1.574-1.723-1.6-2.25-.013.823-.115,2.263a27.689,27.689,0,0,0,.115,3.645L63.5,41.178s-.958,3.092-.2,4.57a21.2,21.2,0,0,0,4.273,5.382c1.226.863-.158,1.387-.565.918a34.027,34.027,0,0,0-5.564-2.8,10.713,10.713,0,0,1-4.538-4.583,12.609,12.609,0,0,1-1.43-3.467l.4,4.209s-1.6-3.576-1.107-5.206,1.107-4.012,1.107-4.012l-1.818,1.247s.294-.834,1.264-3.156.573-3.218,2.177-4.375a42.482,42.482,0,0,0,3.46-2.9l-2.16-1.427,3.049.831-.408-3.2.645,1.379a9.425,9.425,0,0,1,1.8-2.294c.789-.544-.534,2.7-.534,2.7s4.616-4.1,5.319-4.225,5.629-.766,9.344.922,5.057,2.69,5.88,5.5,1.534,6.78,1.047,7.083.636,3.472.838,3.867a3.426,3.426,0,0,1,.281.851l-.839,1.657s-.358-1.278-.954-1.525.286-5.724-1.292-5.8S80.3,35.012,80.3,35.012s.96,2.582.668,2.989a2.3,2.3,0,0,0-.352.949,11.709,11.709,0,0,0-2.162-2.574,11.768,11.768,0,0,0-5.084-1.259,13.207,13.207,0,0,1-4.394-.835c-.644-.273-2.188-2.85-2.188-2.85Z"/><path class="cls-8" d="M78.4,86.992a12.278,12.278,0,0,1-1.73,3.912c-1.036,1.191-4.06,2.879-4.169,4.053s1.907,1.8,2.55,1.554,3.094-3.154,3.094-3.154l6.1-5.514A31.455,31.455,0,0,0,83.7,84.53C83.537,84.293,78.4,86.992,78.4,86.992Z"/><path class="cls-7" d="M79.937,62.247s-1.02,5.509-1.63,8.365.812,8,.639,8.905-.743,4.376-.743,4.376l-.756,3.95,7.5-3.328.252-8.6.471-6.579Z"/><path class="cls-5" d="M80.865,37.453s-1.676-3.613.106-4.519,3.1,1.079,3.061,2.078.7,2.327.345,3.021-1.736.917-1.736.917"/><path class="cls-13" d="M63.935,27.638s-.56.287-1.364.751a12.95,12.95,0,0,0-1.317.867c-.223.171-.463.369-.678.571s-.436.426-.642.654A11.3,11.3,0,0,0,58.1,33.352a11.74,11.74,0,0,0-.553,1.465A11.787,11.787,0,0,1,58,33.31a11.53,11.53,0,0,1,1.659-3.057c.2-.252.4-.5.621-.728a9.165,9.165,0,0,1,.665-.647,13.753,13.753,0,0,1,1.3-1c.793-.535,1.329-.859,1.329-.859Z"/><path class="cls-13" d="M65.11,29.181l-.27.256a5.481,5.481,0,0,0-.628.719,3.179,3.179,0,0,0-.539,1.2c-.109.484-.165,1.048-.245,1.6l-.6,4.422.247-4.456c.037-.558.045-1.109.121-1.655a3.742,3.742,0,0,1,.515-1.436,6.162,6.162,0,0,1,.633-.857l.264-.294Z"/><path class="cls-13" d="M63.375,26.151l.34-.307.085-.076c.066-.059.075-.06.117-.094l.226-.172a5.774,5.774,0,0,1,.623-.384,6.279,6.279,0,0,1,1.673-.594,8.26,8.26,0,0,1,1.994-.153,10.213,10.213,0,0,1,3.586.83,5.271,5.271,0,0,1,1.04.619,4.2,4.2,0,0,1,.348.3,4.19,4.19,0,0,0-.366-.273,5.2,5.2,0,0,0-1.065-.541,9.969,9.969,0,0,0-3.546-.576,6.708,6.708,0,0,0-3.364.913,5.043,5.043,0,0,0-.513.362l-.213.187c-.025.022-.084.072-.076.068l-.08.083-.318.328Z"/><path class="cls-13" d="M64.6,27.689l.462,0a8.7,8.7,0,0,1,1.228.1,6.4,6.4,0,0,1,1.672.5,11.163,11.163,0,0,1,1.676,1.02l4.3,3-4.491-2.7a10.7,10.7,0,0,0-1.668-.868,5.834,5.834,0,0,0-1.562-.351,8.035,8.035,0,0,0-1.14-.017l-.437.032Z"/><path class="cls-14" d="M81.906,34.851a.634.634,0,0,1,.759.145,1.079,1.079,0,0,1,.176.34,2.688,2.688,0,0,1,.082,1.766"/><path class="cls-14" d="M107.879,117.419a27.594,27.594,0,0,1,17.953.5"/><ellipse class="cls-15" cx="68.401" cy="47.034" rx="1.611" ry="2.324" transform="translate(-13.592 59.995) rotate(-43.496)"/><ellipse class="cls-13" cx="68.722" cy="47.8" rx="0.976" ry="1.464" transform="translate(-14.032 60.426) rotate(-43.496)"/><ellipse class="cls-15" cx="76.168" cy="40.396" rx="1.611" ry="2.324" transform="translate(-6.89 63.518) rotate(-43.496)"/><ellipse class="cls-13" cx="76.488" cy="41.162" rx="0.976" ry="1.464" transform="translate(-7.33 63.949) rotate(-43.496)"/><path class="cls-14" d="M74.074,50.183a4.6,4.6,0,0,0,4.5-4.608"/><path class="cls-14" d="M72.959,46.789a1.213,1.213,0,0,1,.606-1.065,2.389,2.389,0,0,1,1.328-.17"/><path class="cls-14" d="M71.99,37.908A4.4,4.4,0,0,1,74.014,36.4a2.191,2.191,0,0,1,1.334.087"/><path class="cls-14" d="M65.325,44.1a5.112,5.112,0,0,1,.521-1.643,1.579,1.579,0,0,1,.352-.49,1.885,1.885,0,0,1,.85-.345"/><path class="cls-1" d="M50.522,127.641s3.34-2.505,4.488-1.252a16.42,16.42,0,0,1,1.879,2.5,3.048,3.048,0,0,1,2.191-1.878,13.625,13.625,0,0,1,4.07.451s-.106-3.269,2.556-3.582,3.5,1.461,3.5,1.461,1.685-1.132,2.825-.618a2.113,2.113,0,0,1,1.349,1.643c.209.54.731-1.338,2.5-.608a22.886,22.886,0,0,1,4.508,3.131s1.356,1.011,5.372,1.438,8.022,6.55,7.9,7.245-3.943,0-8.714,0S80.235,139.055,76,138.67s-2.193-1.506-11.549-2.447-27.28-3.3-29.295-3.2-.345-2.711,4.108-3.463,5.572.9,5.572.9,3.164-3.152,5.684-2.818"/><path class="cls-1" d="M51.9,131.788c-.938-.054.243-1.9-.029-2.8a2.284,2.284,0,0,0-1.99-1.726,1.2,1.2,0,0,1-.36-.026c-.541-.174-.284-1.015-.529-1.528a1.45,1.45,0,0,0-1.293-.6c-1.37-.089-2.987.223-3.593,1.455a3.116,3.116,0,0,0-2.769-1.306,4.481,4.481,0,0,0-3.7,1.734s-5.471-.669-6.584.576a3.788,3.788,0,0,0-.7,3.076s-7.9-1.017-6.279,1.177,2.68,2.872,6.576,3.692,4.865,1.258,10.57,2.439a50.045,50.045,0,0,0,15.2.29C58.191,137.855,57.719,132.123,51.9,131.788Z"/></svg>