<svg id="word" xmlns="http://www.w3.org/2000/svg" viewBox="0 0 160 160"><defs><style>.cls-1{fill:#fdeadf;}.cls-1,.cls-10,.cls-11,.cls-12,.cls-13,.cls-14,.cls-15,.cls-2,.cls-3,.cls-6,.cls-7,.cls-8,.cls-9{stroke:#9c4c9c;stroke-miterlimit:10;}.cls-1,.cls-2,.cls-3,.cls-6{stroke-width:0.584px;}.cls-15,.cls-2{fill:#f7ea2f;}.cls-3{fill:#fde0ce;}.cls-4{fill:#9c4c9c;}.cls-5{fill:#70c7f0;}.cls-6{fill:#dcacb3;}.cls-7{fill:none;stroke-linecap:round;stroke-width:0.663px;}.cls-8{fill:#5d6bb1;}.cls-10,.cls-11,.cls-12,.cls-13,.cls-14,.cls-15,.cls-8,.cls-9{stroke-width:0.39px;}.cls-9{fill:#fff;}.cls-10{fill:#36b24a;}.cls-11{fill:#ea2127;}.cls-12{fill:#ee70a9;}.cls-13{fill:#dee242;}.cls-14{fill:#1b75ba;}</style></defs><path class="cls-1" d="M66.33,47.992s2.829-1.46,4.367.638,0,5.174-.7,6.572A3.411,3.411,0,0,1,67.312,56.7"/><path class="cls-2" d="M58.533,71.442a9.583,9.583,0,0,1-9.545,2.48A44.581,44.581,0,0,0,35.96,72.791s-3.339,20.656-4.989,23.682,4.814,16.366,4.814,16.917,25.718,4.951,29.982,3.438,6.877-.413,6.877-.413l17.191-7.152s4.126-9.764-4.676-10.452a35.292,35.292,0,0,0-16.091,2.751s2.639-7.977-1.5-11.966-3.039-5.639-3.039-5.639l.825-14.578Z"/><path class="cls-3" d="M41.469,69.379s1.8,9.658,5.3,9.535,12.308-.109,12.035-3.791l-.273-3.681Z"/><path class="cls-2" d="M52.014,114.49s-7.152-7.977-12.791-8.527-14.441,2.2-14.441,6.6,3.576,11.469,10.452,11.855a110.71,110.71,0,0,1,15.954,2.558Z"/><path class="cls-4" d="M70.859,114.989a19.113,19.113,0,0,1,1.125-7.622,10.827,10.827,0,0,1,4.928-5.73,10.684,10.684,0,0,0-4.655,5.832,18.688,18.688,0,0,0-.815,7.491Z"/><path class="cls-4" d="M65.17,116.724a26.158,26.158,0,0,1-.259-5.477,8.776,8.776,0,0,1,1.969-5.033,8.629,8.629,0,0,0-1.678,5.052,25.769,25.769,0,0,0,.546,5.374Z"/><path class="cls-2" d="M39.085,83.682s-5.363,4.264-4.538,8.39a41.9,41.9,0,0,0,3.446,9.137s-7.3-1.3-9.5.49l-2.2,1.788s-4.814-5.639-1.788-16.229S33.772,72.133,35.96,72.791C39.147,73.748,41.974,78.043,39.085,83.682Z"/><path class="cls-1" d="M37.993,101.209a12.906,12.906,0,0,0,2.613,2.063c.963.412,5.914,2.888,3.713,4.263s-5.363-.687-6.326,1.238,1.1,5.639-.825,6.877-3.439-1.238-3.439-1.238S32.32,116.307,31.1,116s-2.182-3.509-2.182-3.509-.489,2.137-1.864,1.449-1.712-2.962-1.712-2.962-2.613.113-1.788-2.351,3.283-7.077,7-8.209S35.93,100.521,37.993,101.209Z"/><polygon class="cls-4" points="33.527 114.594 33.819 109.23 34.111 114.594 33.527 114.594"/><path class="cls-4" d="M28.678,111.906c.239-.68.42-1.405.675-2.109a7.389,7.389,0,0,1,1.033-1.974,7.228,7.228,0,0,0-.752,2.055c-.157.713-.239,1.442-.393,2.184Z"/><path class="cls-4" d="M25.048,110.966a7.053,7.053,0,0,1,.7-2.4,5.764,5.764,0,0,1,1.467-1.949,5.645,5.645,0,0,0-1.2,2.061,6.616,6.616,0,0,0-.387,2.3Z"/><path class="cls-2" d="M59.414,116.645s5.5-.275,6.6,3.855c.91,3.417-3.576,4.259-3.782,4.259s-2.407,2.751-3.645,3.164a17.208,17.208,0,0,1-5.923.282c-1.238-.275-3.213-3.171-3.488-5.371s-2.83-9.215.2-10.04,3.164-1.1,4.676-.275,1.746,1.925,2.455,2.75A7.458,7.458,0,0,0,59.414,116.645Z"/><path class="cls-2" d="M79.082,110.868a3.59,3.59,0,0,1-3.164,1.152c-1.925-.327-6.051,1.186-5.639,4.625s3.026,7.014,5.5,6.876a31.32,31.32,0,0,1,7.152,0c2.338.409,6.189-.141,7.839-2.2s2.613-7.289,2.888-8.252,1.788-5.5-.963-6.189-5.088.963-6.189,1.238-4.4.962-5.5,1.1S79.082,110.868,79.082,110.868Z"/><path class="cls-5" d="M57.9,94.126s-3.615-1.513-6.484-.55-6.867.55-7.343.55-4.511-3.163-2.082-4.4,3.409,0,3.409,0-3.561-4.4,0-5.364,4.159,2.063,4.159,2.063.226-5.776,4.489-4.126,1.343,5.42,1.343,5.42,3.781-2.863,4.864-.291-.927,3.4-.927,3.4S61.885,93.163,57.9,94.126Z"/><path class="cls-1" d="M64.343,36.271s4.056,8.53,2.8,11.187.7,4.475,1.538,8.95S67.14,67.176,62.106,70.532A27.491,27.491,0,0,1,40.29,73.748c-8.11-2.377-15.662-13.7-16.641-16.641S21.6,39.523,26.866,33.614c5.844-6.557,16.221-8.81,24.612-7.831S64.343,36.271,64.343,36.271Z"/><path class="cls-1" d="M26.958,59.419s-3.846-2.7-4.965-.183.3,7.007,2.254,7.706,2.607,2.223,4.249,1.427a4.048,4.048,0,0,0,1.958-2.8"/><path class="cls-6" d="M53.156,67.14s1.818-2.342,3.915-2.2,3.916,2.086,5.594-.006,1.259-4.608,0-7.405-5.034-2.157-6.013-1.009a4.124,4.124,0,0,1-4.755.869c-1.678-.839-8.67,1.167-9.229,3.73s1.177,6.478,3.245,6.9S51.581,68.586,53.156,67.14Z"/><path class="cls-7" d="M55.254,51.92s.839-1.211-1.119-1.718S51.9,51.92,51.9,51.92"/><path class="cls-7" d="M47.581,50.979a2.258,2.258,0,0,0-.8-.149,6.028,6.028,0,0,0-2.48.2,5.349,5.349,0,0,0-1.63,1.095q-.688.614-1.329,1.277"/><path class="cls-7" d="M63.693,50.765a3.546,3.546,0,0,1-.582-.529,3.024,3.024,0,0,0-2.7-.588,8.916,8.916,0,0,0-2.6,1.2"/><path class="cls-7" d="M61.4,43.659a7.34,7.34,0,0,1-3.876-.381,9.818,9.818,0,0,1-1.665-.858A9.031,9.031,0,0,1,54.274,41.2"/><path class="cls-7" d="M47.811,42.482a4.983,4.983,0,0,1-2.368,3.261,7.519,7.519,0,0,1-3.98.984"/><path class="cls-4" d="M59.4,63.265c-2.1-.174-4.171-.325-6.247-.315a4.322,4.322,0,0,0-2.806.715A14.2,14.2,0,0,0,48.11,65.8a8.384,8.384,0,0,1,1.928-2.547,4.067,4.067,0,0,1,1.477-.793,6.428,6.428,0,0,1,1.64-.171A19.561,19.561,0,0,1,59.4,63.265Z"/><path class="cls-4" d="M31.76,52.422s-2.167-1.351-3.846-.326-1.048,1.935,0,1.725A33.357,33.357,0,0,0,31.76,52.422Z"/><path class="cls-4" d="M37.494,55.219A7.513,7.513,0,0,0,35.885,57.6c-.139.839-.769,1.887-1.538,1.048a1.662,1.662,0,0,1,.42-2.447C35.4,55.918,37.494,55.219,37.494,55.219Z"/><path class="cls-4" d="M37.494,61.922s.279,5.464-.63,5.673-1.352-2.027-1.13-2.447S37.494,61.922,37.494,61.922Z"/><path class="cls-4" d="M64.833,55.54s3.153,2.254,2.7,3.414-.91,1.548-1.325.81A16.553,16.553,0,0,1,64.833,55.54Z"/><path class="cls-4" d="M65.072,51.638a17.7,17.7,0,0,1,3.916.35c.7.35,1.468,1.373.629,1.875S65.072,51.638,65.072,51.638Z"/><path class="cls-4" d="M39.062,27.85l.218-.021a5.239,5.239,0,0,1,.558-.018,8.846,8.846,0,0,1,2.063.3c.426.109.886.251,1.367.423a6.576,6.576,0,0,1,1.412.646,8.625,8.625,0,0,1,2.378,2.454,18.962,18.962,0,0,1,2.719,6.008,18.155,18.155,0,0,1,.415,2.159c.07.527.094.831.094.831s-.007-.3-.047-.836a18.25,18.25,0,0,0-.293-2.192,19.341,19.341,0,0,0-2.424-6.271A9.3,9.3,0,0,0,45.1,28.556a7.24,7.24,0,0,0-1.528-.809c-.493-.207-.97-.384-1.421-.525a9.882,9.882,0,0,0-2.271-.457,6.406,6.406,0,0,0-.677-.013l-.218.009Z"/><path class="cls-4" d="M40.126,26.577c-.013-.01,2.434.711,2.837.892s.94.4,1.593.662l1.041.428c.18.079.367.16.542.248l.242.13a2.95,2.95,0,0,1,.249.168,15.627,15.627,0,0,1,1.85,1.932c.319.369.7.685,1,1a8.554,8.554,0,0,1,.832,1.025,11.505,11.505,0,0,1,1.133,2.085,15.37,15.37,0,0,1,.756,2.216,15.418,15.418,0,0,0-.57-2.286,11.843,11.843,0,0,0-.981-2.23,8.9,8.9,0,0,0-.785-1.152c-.307-.39-.632-.7-.9-1.061a15.635,15.635,0,0,0-1.817-2.179c-.1-.091-.194-.158-.278-.22-.12-.081-.212-.137-.313-.193-.2-.114-.387-.208-.572-.3l-1.038-.494c-.64-.3-1.166-.545-1.516-.728a5.859,5.859,0,0,1-.52-.3Z"/><path class="cls-4" d="M37.494,27.146s1.248.935,1.512,1.118a8.553,8.553,0,0,1,.976.8,10.709,10.709,0,0,1,2.309,3.121,10.936,10.936,0,0,1,1.058,3.808,9.129,9.129,0,0,1,.03,1.322l-.029.5.075-.5a8.953,8.953,0,0,0,.094-1.334,11.287,11.287,0,0,0-.726-4.017,11.482,11.482,0,0,0-2.153-3.549,9.566,9.566,0,0,0-1-.982,1.769,1.769,0,0,1-.4-.686Z"/><path class="cls-4" d="M43.408,26.751l.706.081a14.828,14.828,0,0,1,1.776.364,18.608,18.608,0,0,1,5.09,2.317,18.839,18.839,0,0,1,2.424,1.8,5.321,5.321,0,0,1,1.474,2.121,9.746,9.746,0,0,1,.446,1.819l.108.708-.061-.714a9.879,9.879,0,0,0-.33-1.868,5.573,5.573,0,0,0-1.393-2.314,20.982,20.982,0,0,0-7.485-4.755,8.838,8.838,0,0,0-1.736-.273,12.039,12.039,0,0,0-1.421-.091Z"/><path class="cls-2" d="M64.833,69.536s4.011-1.76,8.072,7.419C74.359,80.243,80,89.108,80,93.261s-4.56,6.279-4.56,6.279l-5.453,1.169s1.457-9.862-2.41-12.6S64.64,82,64.64,82Z"/><path class="cls-1" d="M69.356,97.115a12.871,12.871,0,0,1-2.613,2.063c-.963.413-5.914,2.888-3.713,4.264s5.364-.688,6.326,1.237-1.1,5.639.825,6.877,3.439-1.238,3.439-1.238,1.409,1.895,2.631,1.585,2.183-3.51,2.183-3.51.488,2.137,1.863,1.45,1.712-2.963,1.712-2.963,2.614.113,1.788-2.35-3.283-7.078-7-8.209S71.419,96.427,69.356,97.115Z"/><polygon class="cls-4" points="73.238 110.5 73.53 105.137 73.822 110.5 73.238 110.5"/><path class="cls-4" d="M78.108,107.968c-.154-.741-.236-1.47-.392-2.183a7.256,7.256,0,0,0-.753-2.056A7.4,7.4,0,0,1,78,105.7c.255.7.436,1.429.675,2.109Z"/><path class="cls-4" d="M81.718,106.888a6.631,6.631,0,0,0-.388-2.3,5.641,5.641,0,0,0-1.2-2.062,5.774,5.774,0,0,1,1.467,1.949,7.059,7.059,0,0,1,.7,2.4Z"/><path class="cls-4" d="M21.6,56.754s-2.009-1.253-3.564-.3-.972,1.793,0,1.6A31.013,31.013,0,0,0,21.6,56.754Z"/><path class="cls-4" d="M20.967,76.166a6.953,6.953,0,0,0-1.49,2.2c-.13.778-.713,1.75-1.426.972a1.54,1.54,0,0,1,.389-2.267C19.023,76.814,20.967,76.166,20.967,76.166Z"/><path class="cls-4" d="M28.865,70.9s.259,5.062-.583,5.257-1.253-1.879-1.048-2.268S28.865,70.9,28.865,70.9Z"/><path class="cls-4" d="M75.642,60.03s2.922,2.089,2.5,3.164-1.369.582-1.472-.2A20.429,20.429,0,0,0,75.642,60.03Z"/><path class="cls-4" d="M73.747,53.851s3.58.291,3.768,1.431-.875,1.2-1.363.589A20.442,20.442,0,0,0,73.747,53.851Z"/><path class="cls-8" d="M131.443,89.362c-.585.685-1.123,1.411-1.642,2.151a86.666,86.666,0,0,0-7.086,12.767,29.779,29.779,0,0,0-2.768,7.76c.294-.133.569-.271.82-.41,2.063-1.151,2.909-2.306,4.893-3.212.2-.091.394-.173.586-.25l.458-1.282c.477-1.338.955-2.678,1.541-3.964.523-1.15,1.131-2.253,1.75-3.347q1.35-2.388,2.773-4.731a19.914,19.914,0,0,1,2.468-3.45c-.057-.235-.1-.417-.115-.52-.088-.5.208-3.314.2-4.961A19.257,19.257,0,0,0,131.443,89.362Z"/><path class="cls-9" d="M131.5,102.412c-.366.588-.767,1.152-1.1,1.763a17,17,0,0,0-.834,1.91L129,107.536a2.908,2.908,0,0,1,1.388.282,1.331,1.331,0,0,0,1.59-.049l.053.027a28.768,28.768,0,0,1,4.595-8.734,7.839,7.839,0,0,1,1.324-1.4l-.076-.252c-.1-.343-.225-.427-.962-1.357a5.456,5.456,0,0,1-.639-1.273,12.851,12.851,0,0,0-2.4,3.218C133.058,99.454,132.38,101,131.5,102.412Z"/><path class="cls-10" d="M130,99.575c-.619,1.094-1.227,2.2-1.75,3.347-.586,1.286-1.064,2.626-1.541,3.964l-.458,1.282a7.9,7.9,0,0,1,2.756-.632l.565-1.451a17,17,0,0,1,.834-1.91c.33-.611.731-1.175,1.1-1.763.882-1.414,1.56-2.958,2.374-4.417a12.851,12.851,0,0,1,2.4-3.218,30.377,30.377,0,0,1-1.039-3.383,19.914,19.914,0,0,0-2.468,3.45Q131.348,97.187,130,99.575Z"/><path class="cls-11" d="M134.631,108.416a1.845,1.845,0,0,0,.118-.179l1.107.758c.492.336,1.921.293,3.186-1.132s2.909-5.029,2.7-6.075-2.473-1.913-2.473-1.913.015-.026.038-.073a23.949,23.949,0,0,0-3.257,4.841A9.447,9.447,0,0,0,134.631,108.416Z"/><path class="cls-12" d="M136.628,99.062a28.768,28.768,0,0,0-4.595,8.734c.247.129,1.3.681,1.734.978.345.236.689-.123.864-.358a9.447,9.447,0,0,1,1.419-3.773,23.949,23.949,0,0,1,3.257-4.841,2.882,2.882,0,0,0,.216-.673c.1-.507-1.544-1.38-1.544-1.38l-.027-.09A7.839,7.839,0,0,0,136.628,99.062Z"/><path class="cls-13" d="M111.869,90.3a48.087,48.087,0,0,1,14.319-17.058,13.6,13.6,0,0,0-5.747,1.486c-2.523,1.394-6.842,7.176-7.349,7.639s-1.008.254-2.5,1.072c-.349.191-.622.343-.84.466a3.72,3.72,0,0,0-.785.932c-.2.343-.322.725-.509,1.073a12.9,12.9,0,0,1-.922,1.324c.023.244-.3.347-.3.857,0,.785.32,3.681.32,3.681a12.507,12.507,0,0,1-.686,1.754c-.635,1.472-2.2,10.22-1.905,12.586a9.923,9.923,0,0,0,1.876,3.859A49.187,49.187,0,0,1,111.869,90.3Z"/><path class="cls-11" d="M117.471,93.1a49.1,49.1,0,0,0-5.042,20.323c.153.022.312.045.481.071,1.8.275,4.91-.487,7.037-1.457a29.779,29.779,0,0,1,2.768-7.76A86.666,86.666,0,0,1,129.8,91.513c.519-.74,1.057-1.466,1.642-2.151a19.257,19.257,0,0,1,3.878-3.449,4.381,4.381,0,0,0-.084-1c-.278-.991-.7-6.645-1.943-8.207a7.741,7.741,0,0,0-.991-1.027A47.938,47.938,0,0,0,117.471,93.1Z"/><path class="cls-11" d="M108.968,84.832a3.72,3.72,0,0,1,.785-.932c-.714.4-.809.477-.809.477s-3.069-.716-3.4-.211.65,1.6,1.555,2.46c.316.3.426.472.438.6a12.9,12.9,0,0,0,.922-1.324C108.646,85.557,108.773,85.175,108.968,84.832Z"/><path class="cls-14" d="M111.869,90.3a49.187,49.187,0,0,0-5.022,19.671,20.228,20.228,0,0,0,1.931,2.341,48.974,48.974,0,0,1,5.054-21.035,47.856,47.856,0,0,1,15.091-17.608c-.167-.067-.332-.13-.494-.187a6.514,6.514,0,0,0-2.241-.24A48.087,48.087,0,0,0,111.869,90.3Z"/><path class="cls-9" d="M113.832,91.272a48.974,48.974,0,0,0-5.054,21.035,3.5,3.5,0,0,0,.5.439c.623.4,1.441.434,3.155.68A49.1,49.1,0,0,1,117.471,93.1,47.938,47.938,0,0,1,132.3,75.677a12.009,12.009,0,0,0-3.38-2.013A47.856,47.856,0,0,0,113.832,91.272Z"/><path class="cls-4" d="M145.6,119.767l-7.889,1.939s-2.013,1.4-.174,1.966,9.079-2.059,9.079-2.059Z"/><path class="cls-15" d="M152.857,112.883l-4.17,2.353s-3.959,1.33-4.5,3.367-.034,4.458.982,5.185,10.389.629,10.389.629a16.113,16.113,0,0,0-.361-5.423C154.488,116.155,153.479,112.531,152.857,112.883Z"/></svg>