<svg id="word" xmlns="http://www.w3.org/2000/svg" viewBox="0 0 160 160"><defs><style>.cls-1{fill:#faaf40;}.cls-2{fill:#8e9093;}.cls-2,.cls-3,.cls-4,.cls-5,.cls-6{stroke:#9d4b9c;stroke-miterlimit:10;stroke-width:0.837px;}.cls-3{fill:#fff;}.cls-4{fill:#737477;}.cls-5{fill:#caccce;}.cls-6{fill:#9edcf8;}</style></defs><path class="cls-1" d="M78.062,118.917s1.641,1.287,1.482,5.12S76.1,131.4,76.1,131.4s.809-1.923.447-2.528-.307,1.343-2.126,2.645-3.649,1.035-4.524,1.444.9-1.273,1.509-1.85-5.841,2.165-7.616,3.846-4.023,2.863-5.538,2.929a16.472,16.472,0,0,0-4.084,1.132l1.39-1.421s-4.837,1-6.89,2.947a8.223,8.223,0,0,1-4.221,2.209,25.853,25.853,0,0,0,2.823-4.462A30.981,30.981,0,0,1,51.6,132.3c.222-.21-3.042,2.566-3.042,2.566s.143.706,1.641-2.712a37.113,37.113,0,0,1,3.022-5.808,14.77,14.77,0,0,0-1.588.767,11.021,11.021,0,0,1,1.273-3.1,15.654,15.654,0,0,1,3.968-4.81,29.007,29.007,0,0,1,3.436-1.149l-3.623.064s-1.728-.047,2.613-2.686,4.341-2.638,5.8-2.652,6.01-.431,6.01-.431Z"/><path class="cls-2" d="M81.1,116.142l-2.834,3.105s-3.742-1.507-5.1-3.165a13.544,13.544,0,0,1-2.061-3.731l3.8-2.755Z"/><path class="cls-3" d="M95.091,104.788l-8.647,7.98-3.134,5.7a34.415,34.415,0,0,1-6.925-5.436c-3.047-3.218-3.582-5.657-3.582-5.657l5.323-2.726,7.234-7.694Z"/><path class="cls-3" d="M124.27,51.776s-8.979,13.679-10.527,18.933-4.143,25.179-4.009,28.209-3.13,7.8-5.343,9.69-2.984,2.405-2.984,2.405L79.353,95.282Z"/><path class="cls-2" d="M62.481,83.638l-4.209,2.444s1.184,5.472,2.655,7.025a5.335,5.335,0,0,0,3.415,1.606l3.229-3.479Z"/><path class="cls-2" d="M70.04,91.842l-4.116,4.319s2.4,3.2,3.344,4.2a13.337,13.337,0,0,0,3.188,2.032L76.233,98.6Z"/><path class="cls-1" d="M40.574,82.394s-1.2-1.708-5.032-1.758S28,83.674,28,83.674s1.964-.7,2.548-.309-1.357.233-2.756,1.978-1.232,3.588-1.688,4.44,1.32-.829,1.93-1.407-2.479,5.715-4.254,7.4-3.078,3.862-3.227,5.371a16.461,16.461,0,0,1-1.352,4.016l1.5-1.31s-1.265,4.775-3.317,6.719a8.222,8.222,0,0,0-2.435,4.095,25.842,25.842,0,0,1,4.609-2.577,30.961,30.961,0,0,0,6.216-3.992c.221-.21-2.727,2.9-2.727,2.9s-.7-.181,2.8-1.491a37.118,37.118,0,0,0,5.964-2.7,14.719,14.719,0,0,1-.852,1.544,11,11,0,0,0,3.164-1.1,15.625,15.625,0,0,0,5.019-3.7,28.993,28.993,0,0,0,1.334-3.368l-.26,3.614s-.047,1.728,2.823-2.464S45.9,97.13,46,95.674s.757-5.978.757-5.978Z"/><path class="cls-2" d="M43.51,79.508l-3.254,2.661s1.3,3.819,2.883,5.267a13.523,13.523,0,0,0,3.614,2.26l2.956-3.642Z"/><path class="cls-3" d="M55.607,66.158l-8.438,8.2L41.3,77.178a34.422,34.422,0,0,0,5.052,7.211c3.047,3.217,5.455,3.883,5.455,3.883l3.011-5.166L62.9,76.3Z"/><path class="cls-3" d="M65.3,79.5l49.047-46.872S122.9,24.105,127.591,22.4a41.615,41.615,0,0,1,9.353-2.123l6.069,6.037a44.594,44.594,0,0,1-1.862,6.182C138.878,37.942,125.3,50.867,122.3,54.136S79.988,95.679,79.988,95.679Z"/><path class="cls-3" d="M108.889,38.424s-12.909,9.7-18.24,10.961-25.366,2.769-28.385,2.471-7.963,2.7-9.966,4.809-2.563,2.848-2.563,2.848l14.51,22.876Z"/><path class="cls-3" d="M59.72,81.834S69.8,68.705,80.311,79.8s-2.846,21.215-2.846,21.215a43.092,43.092,0,0,1-4.985-3.486c-2.113-1.786-3.73-5.938-3.73-5.938s-5.68-1.775-6.8-4.292S59.72,81.834,59.72,81.834Z"/><path class="cls-4" d="M61.388,96.038,63.6,98.152S75.33,88.1,77.555,85.777s8.63-7.331,7.6-9.305S75.693,82.7,74.694,83.646,61.388,96.038,61.388,96.038Z"/><path class="cls-5" d="M133.918,20.261s2.3,3.017.964,4.278-3.97,2.918-2.522,5.335,4.08.976,5.2-.507,1.174-3.426,2.663-2.521a10.511,10.511,0,0,1,2.292,1.827,7.886,7.886,0,0,0,.786-7.688C141.358,16.933,133.918,20.261,133.918,20.261Z"/><ellipse class="cls-6" cx="121.487" cy="40.838" rx="8.404" ry="6.494" transform="translate(5.199 94.726) rotate(-43.443)"/></svg>