<svg id="word" xmlns="http://www.w3.org/2000/svg" viewBox="0 0 160 160"><defs><style>.cls-1{fill:#dba982;}.cls-1,.cls-3,.cls-4,.cls-5,.cls-6{stroke:#9d4b9c;stroke-miterlimit:10;stroke-width:0.923px;}.cls-2{fill:#9d4b9c;}.cls-3{fill:none;}.cls-4{fill:#a7715f;}.cls-5{fill:#242424;}.cls-6,.cls-8{fill:#fff;}.cls-7{fill:#54c5d4;}</style></defs><path class="cls-1" d="M71.423,102.751s-7.036-2.484-8.8-3.5-4.64.486-6.457,2.972-3.15,4.544-2.541,6.833,2.717,2.464,3.133,2.892,1.416-.1,1.416-.1a2.343,2.343,0,0,0,1.232,1.822c1.228.763,1.981.9,2.018.125s.76-.222,1.024-1.874.686-3.71.686-3.71l9.262,2.618,1.395-7.732Z"/><path class="cls-1" d="M127.213,127.179s3.529.978,5.519-.958,4.246-6.652,2.415-10.469-3.546-6.147-4.519-6.834-4.416-1.47-5.937-1.592-2.024-.631-1.76-1.086,1.333-.654,1.333-.654-2.6.552-3.959-.384,3.548-2.324,3.548-2.324-7.625-1.665-8.351-1.607,1.972-2.81,5.459-2.854,4.534-.95,9.373.45a19.568,19.568,0,0,1,7.209,3.481l1.332.806L136.5,98.263s3.625,2.251,4.576,4.483A22.106,22.106,0,0,1,142.359,108v-4.834a41.779,41.779,0,0,1,3.122,6.434c.611,2.145,1.738,2.121.99,3.586s1.753-1.287,1.753-1.287-1.008,5.575-1.667,8.224-1.825,8.559-2.917,9.378-5.156,2.921-8.46,2.213-4.735-1.322-6.274-1.274a35.182,35.182,0,0,0-4.006.5Z"/><path class="cls-1" d="M73.466,93.948c.1,1.7.452,2.025.447,2.659a25.772,25.772,0,0,1-.119,3.687c-.194,1.07-1.277,9.887-1.277,9.887s1.1-1.15.656,2.674.194,3.878.194,3.878l1.815-1.76s-.789,3.556-.442,4.886.545,2.107.545,2.107l2.9-2.75-3.133,11.343s-3.522-1.285-5.379.708-1.33,6.43-1.33,6.43l1.3.484a6.914,6.914,0,0,0,2.347.728c1.916.394,5.272,1.482,7.661,1.19s1.41.683,2.273-3.334,1.461-4.19,3.016-5.724,1.569-.737,2.241-1.432a3.22,3.22,0,0,0,.7-1.89l6.013,3.349s-3.16,3.269-3.572,5.5c-.456,2.473.636,3.223.636,3.223s.852.3,2.048.644a4.892,4.892,0,0,0,2.865-.5s8.216.285,9.751.443,10.2-1.533,12.1-.535,3-2.077,3-2.077a38.689,38.689,0,0,0,5.107-4.448c1.471-1.773,3.358-10.757,1.149-16.152-2.149-5.248-10.7-7.689-12.268-8.62s-13.248-7.089-14.754-8.621C96.1,95.992,89.03,96.942,85.548,90.145"/><path class="cls-2" d="M108.5,118.088a13.465,13.465,0,0,0-4.1,1.475,5.577,5.577,0,0,0-1.6,1.342,4.279,4.279,0,0,0-.765,1.857,14.583,14.583,0,0,0,.066,4.27,35.956,35.956,0,0,0,.867,4.272l.182.688-.679-.15c-1.55-.344-3.109-.708-4.674-.973a9.557,9.557,0,0,0-2.309-.189,4.1,4.1,0,0,0-2,1.179,3.877,3.877,0,0,1,1.906-1.494,7.479,7.479,0,0,1,2.47-.051,47.155,47.155,0,0,1,4.784.7l-.5.537a28.554,28.554,0,0,1-.963-4.4,13.748,13.748,0,0,1,.04-4.555,4.548,4.548,0,0,1,1.036-2.137,6.155,6.155,0,0,1,1.878-1.365A10.969,10.969,0,0,1,108.5,118.088Z"/><path class="cls-2" d="M88.355,119.123a13.239,13.239,0,0,1,.86,4.393,10.6,10.6,0,0,1-.16,2.263,4.963,4.963,0,0,1-.345,1.114,1.363,1.363,0,0,1-.818.826,1.5,1.5,0,0,0,.384-.958,9.026,9.026,0,0,0,.063-1.058c0-.714-.018-1.435-.046-2.159A35.031,35.031,0,0,1,88.355,119.123Z"/><path class="cls-3" d="M58.841,105.87a15.617,15.617,0,0,0-.222,6.5"/><path class="cls-3" d="M55.831,106.049c-.212.079-.3.327-.353.545a11.135,11.135,0,0,0-.434,2.423,4.163,4.163,0,0,0,.56,2.365"/><path class="cls-3" d="M96.18,140.295a3.384,3.384,0,0,1,.326-3.081,10.01,10.01,0,0,1,2.191-2.345"/><path class="cls-3" d="M91.578,140.545a6.879,6.879,0,0,1,1.72-4.36"/><path class="cls-3" d="M70.811,138.069c.05.4-.471-3.392.581-4.949"/><path class="cls-1" d="M88.737,62.508s7.443-.311,10.079-1.241,4.194-.294,6.978.775c7,2.689,8.512,8.5,4.022,8.79-2.188.141-11.93-1.811-15.032-2.9a37.7,37.7,0,0,1-6.978-3.722Z"/><path class="cls-4" d="M59.428,70.261S63,72.277,63,73.518s-2.016,4.807-2.016,4.807l-1.4,1.706s8.84-2.792,9.77-4.653,2.016-3.256.465-4.962-9.924-1.551-9.924-1.551Z"/><path class="cls-1" d="M85.48,90.73,84.4,87.474s-.931-4.652,2.326-6.358,3.256-2.171,4.032-4.5,2.481-12.871,0-15.042-8.064-3.1-10.39-2.946-8.219.93-10.855.31S64.856,52.428,63,51.653s-6.668.155-7.6,2.171-2.792,12.1-.776,14.266S62.53,69.8,65.166,70.726s6.2,2.016,3.877,3.412-7.289,3.256-9.46,4.5A4.194,4.194,0,0,0,58.5,84.683c1.4,1.55,1.861-3.257,4.187-3.257s4.5-.62,6.358.31a11.661,11.661,0,0,1,4.5,5.583,17.028,17.028,0,0,1,.31,3.877c0,1.24-.155,5.582-.155,5.582"/><path class="cls-1" d="M87.334,69.337S89.256,79.785,94.443,84s13.834,1.1,16.139-3.116,3.651-6.415-.384-9.531-12.681-4.033-16.139-4.766a39.967,39.967,0,0,1-6.148-1.833Z"/><path class="cls-5" d="M54.774,55.374a9.737,9.737,0,0,0,4.878,1.4c2.765,0,5.2-2.618,5.2-2.618s-1.464-5.76-4.228-5.76S54.774,55.374,54.774,55.374Z"/><path class="cls-6" d="M76.336,60.181s-5.767-.131-4.981,2.229,5.244,3.014,6.292,1.966S79.482,60.706,76.336,60.181Z"/><path class="cls-2" d="M76.147,59.947s-4.218-.1-3.643,1.63,3.835,2.2,4.6,1.438S78.448,60.331,76.147,59.947Z"/><path class="cls-7" d="M55.705,74.567S39.761,56.261,41.949,48.385s18.407-17.533,1.665-27.764C24.662,9.039-.927,24.261,13.51,49.7,22.7,65.886,55.705,74.567,55.705,74.567Z"/><path class="cls-8" d="M23.258,27.915a2.3,2.3,0,0,1-.316.5q-.5.7-.789,1.171T21.062,31.4c-.325.542-.535.886-.633,1.035a3.322,3.322,0,0,0-.482.914.585.585,0,0,1-.3.333,1.124,1.124,0,0,1-.553.128c-.1,0-.184-.071-.267-.214a5.4,5.4,0,0,1-.34-.807q-.265-.714-.739-1.906-.987-2.465-.988-2.55a.919.919,0,0,1,.148-.415.46.46,0,0,1,.416-.26.542.542,0,0,1,.381.156,1.812,1.812,0,0,1,.3.847,12.794,12.794,0,0,0,.609,1.81q.515,1.318.806,1.95c.042-.062.14-.23.29-.5.034-.06.057-.1.068-.115q.591-.944.983-1.7a17.589,17.589,0,0,1,1.207-2.051q.489-.675.814-.675a.417.417,0,0,1,.474.47v.034A.1.1,0,0,1,23.258,27.915Z"/><path class="cls-8" d="M23.9,32.4a7.969,7.969,0,0,1-.446.793,2.3,2.3,0,0,1-.52.684.611.611,0,0,1-.256.07.645.645,0,0,1-.37-.169.461.461,0,0,1-.215-.348,10.456,10.456,0,0,1,1.072-1.8q.585-.893,1.068-1.769.97-1.768,1.186-2.057a.584.584,0,0,1,.442-.288.656.656,0,0,1,.525.188c.055.04.081.135.081.286a1.03,1.03,0,0,1-.029.269q.782,2.385,1.224,3.373a4.873,4.873,0,0,0,.886,1.434,2.545,2.545,0,0,1,.272.3.375.375,0,0,1,.049.205.519.519,0,0,1-.171.395.574.574,0,0,1-.406.16.923.923,0,0,1-.66-.376A4.043,4.043,0,0,1,27,32.717a4.372,4.372,0,0,1-.3-.739c0-.011-.008-.017-.021-.017a6.86,6.86,0,0,0-1.029.163,12.518,12.518,0,0,0-1.278.316.775.775,0,0,1-.218.038A.383.383,0,0,1,23.9,32.4Zm2.461-1.307q-.1-.252-.607-1.8c-.031-.094-.052-.154-.064-.179l-1.214,2.307c.18-.031.364-.06.552-.085.125-.015.444-.074.957-.18C26.105,31.137,26.231,31.114,26.356,31.094Z"/><path class="cls-8" d="M31.838,34.067a2.655,2.655,0,0,1-1.066-.286,1.945,1.945,0,0,1-.955-.972,3.383,3.383,0,0,1-.329-1.48,6.347,6.347,0,0,1,.12-1.072l.136-.791c.02-.134.042-.265.065-.393.034-.2.063-.386.089-.569a1.773,1.773,0,0,1,.209-.707.508.508,0,0,1,.462-.237c.1,0,.207.081.314.242a.771.771,0,0,1,.16.37q0,.088-.2.939-.053.215-.178,1.045a9.216,9.216,0,0,0-.126,1.126,1.814,1.814,0,0,0,.476,1.47,1.413,1.413,0,0,0,.806.38,1.955,1.955,0,0,0,1.5-.464,2.705,2.705,0,0,0,.53-1.514c.015-.129.032-.25.052-.363q.042-.436.072-.834a6.379,6.379,0,0,1,.3-1.888.6.6,0,0,1,.554-.381c.3,0,.444.193.444.577a8.824,8.824,0,0,1-.167,1.274,9.944,9.944,0,0,0-.132,1.1,5.643,5.643,0,0,1-.355,1.9A2.6,2.6,0,0,1,33.6,33.6,3.212,3.212,0,0,1,31.838,34.067Z"/><path class="cls-8" d="M36.452,33.67a.587.587,0,0,1-.378-.1q-.121-.1-.122-.528a2.511,2.511,0,0,1,.021-.365c.015-.084.084-.151.208-.2a1.551,1.551,0,0,1,.536-.072.578.578,0,0,1,.4.121.355.355,0,0,1,.137.267.75.75,0,0,1-.074.368,1.294,1.294,0,0,1-.325.318A.749.749,0,0,1,36.452,33.67Z"/><path class="cls-8" d="M38.631,33.67a.587.587,0,0,1-.378-.1q-.122-.1-.122-.528a2.511,2.511,0,0,1,.021-.365c.015-.084.084-.151.208-.2a1.551,1.551,0,0,1,.536-.072.578.578,0,0,1,.4.121.355.355,0,0,1,.137.267.75.75,0,0,1-.074.368,1.294,1.294,0,0,1-.325.318A.749.749,0,0,1,38.631,33.67Z"/><path class="cls-8" d="M40.81,33.67a.587.587,0,0,1-.378-.1q-.122-.1-.122-.528a2.511,2.511,0,0,1,.021-.365c.015-.084.084-.151.208-.2a1.551,1.551,0,0,1,.536-.072.578.578,0,0,1,.4.121.355.355,0,0,1,.137.267.75.75,0,0,1-.074.368,1.294,1.294,0,0,1-.325.318A.749.749,0,0,1,40.81,33.67Z"/><path class="cls-8" d="M23.258,38.415a2.319,2.319,0,0,1-.316.505q-.5.7-.789,1.17T21.062,41.9c-.325.541-.535.886-.633,1.034a3.336,3.336,0,0,0-.482.914.586.586,0,0,1-.3.334,1.135,1.135,0,0,1-.553.128c-.1,0-.184-.072-.267-.214a5.421,5.421,0,0,1-.34-.808q-.265-.712-.739-1.905-.987-2.465-.988-2.551a.916.916,0,0,1,.148-.414.459.459,0,0,1,.416-.261.542.542,0,0,1,.381.156,1.817,1.817,0,0,1,.3.848,12.794,12.794,0,0,0,.609,1.81q.515,1.319.806,1.95c.042-.063.14-.231.29-.5.034-.06.057-.1.068-.116q.591-.944.983-1.7a17.676,17.676,0,0,1,1.207-2.051c.326-.449.6-.675.814-.675a.417.417,0,0,1,.474.47v.034A.087.087,0,0,1,23.258,38.415Z"/><path class="cls-8" d="M23.9,42.9a8,8,0,0,1-.446.792,2.273,2.273,0,0,1-.52.684.6.6,0,0,1-.256.07.645.645,0,0,1-.37-.169.461.461,0,0,1-.215-.347,10.413,10.413,0,0,1,1.072-1.8q.585-.894,1.068-1.769.97-1.77,1.186-2.058a.584.584,0,0,1,.442-.288.66.66,0,0,1,.525.188c.055.04.081.135.081.286a1.043,1.043,0,0,1-.029.27q.782,2.383,1.224,3.373a4.879,4.879,0,0,0,.886,1.433,2.545,2.545,0,0,1,.272.3.375.375,0,0,1,.049.205.522.522,0,0,1-.171.4.578.578,0,0,1-.406.16.926.926,0,0,1-.66-.376A4.079,4.079,0,0,1,27,43.218a4.409,4.409,0,0,1-.3-.739c0-.012-.008-.017-.021-.017a6.946,6.946,0,0,0-1.029.162,12.79,12.79,0,0,0-1.278.316.745.745,0,0,1-.218.039A.383.383,0,0,1,23.9,42.9Zm2.461-1.308q-.1-.252-.607-1.794c-.031-.094-.052-.154-.064-.18l-1.214,2.307q.27-.047.552-.085.188-.021.957-.179C26.105,41.637,26.231,41.614,26.356,41.594Z"/><path class="cls-8" d="M31.838,44.568a2.655,2.655,0,0,1-1.066-.286,1.949,1.949,0,0,1-.955-.972,3.384,3.384,0,0,1-.329-1.481,6.357,6.357,0,0,1,.12-1.072l.136-.791c.02-.134.042-.264.065-.392.034-.2.063-.386.089-.569a1.773,1.773,0,0,1,.209-.707.508.508,0,0,1,.462-.237c.1,0,.207.08.314.241a.771.771,0,0,1,.16.37q0,.09-.2.94c-.035.142-.094.491-.178,1.044a9.236,9.236,0,0,0-.126,1.126,1.811,1.811,0,0,0,.476,1.47,1.407,1.407,0,0,0,.806.38,1.955,1.955,0,0,0,1.5-.463,2.706,2.706,0,0,0,.53-1.515c.015-.128.032-.249.052-.363.028-.291.052-.568.072-.833a6.388,6.388,0,0,1,.3-1.889.6.6,0,0,1,.554-.38q.444,0,.444.577a8.816,8.816,0,0,1-.167,1.273,9.944,9.944,0,0,0-.132,1.1,5.638,5.638,0,0,1-.355,1.9A2.593,2.593,0,0,1,33.6,44.1,3.2,3.2,0,0,1,31.838,44.568Z"/><path class="cls-8" d="M36.452,44.17a.587.587,0,0,1-.378-.1c-.081-.067-.122-.242-.122-.528a2.521,2.521,0,0,1,.021-.365c.015-.084.084-.15.208-.2a1.524,1.524,0,0,1,.536-.073.579.579,0,0,1,.4.122.352.352,0,0,1,.137.267.746.746,0,0,1-.074.367,1.278,1.278,0,0,1-.325.319A.753.753,0,0,1,36.452,44.17Z"/><path class="cls-8" d="M38.631,44.17a.587.587,0,0,1-.378-.1c-.081-.067-.122-.242-.122-.528a2.521,2.521,0,0,1,.021-.365c.015-.084.084-.15.208-.2a1.524,1.524,0,0,1,.536-.073.579.579,0,0,1,.4.122.352.352,0,0,1,.137.267.746.746,0,0,1-.074.367,1.278,1.278,0,0,1-.325.319A.753.753,0,0,1,38.631,44.17Z"/><path class="cls-8" d="M40.81,44.17a.587.587,0,0,1-.378-.1c-.081-.067-.122-.242-.122-.528a2.521,2.521,0,0,1,.021-.365c.015-.084.084-.15.208-.2a1.524,1.524,0,0,1,.536-.073.579.579,0,0,1,.4.122.352.352,0,0,1,.137.267.746.746,0,0,1-.074.367,1.278,1.278,0,0,1-.325.319A.753.753,0,0,1,40.81,44.17Z"/></svg>