<svg id="word" xmlns="http://www.w3.org/2000/svg" xmlns:xlink="http://www.w3.org/1999/xlink" viewBox="0 0 160 160"><defs><style>.cls-1{fill:#454547;}.cls-1,.cls-2{stroke:#9c4c9c;stroke-miterlimit:10;stroke-width:1.339px;}.cls-2{fill:#727275;}.cls-3{fill:#626467;}.cls-4{opacity:0.5;fill:url(#linear-gradient);}</style><linearGradient id="linear-gradient" x1="58.08" y1="72.058" x2="75.642" y2="72.058" gradientUnits="userSpaceOnUse"><stop offset="0" stop-color="#fff"/><stop offset="1" stop-color="#fff" stop-opacity="0"/></linearGradient></defs><path class="cls-1" d="M57.158,70.622s-3.4.743-1.843,6.015A24.608,24.608,0,0,1,56.449,86.1c0,1.892-1.276,8.4,19.574,9.213s26.665-3.245,28.083-7.435-.142-9.078.284-10.43,1.418-4.056-.142-4.867"/><ellipse class="cls-2" cx="79.994" cy="73.799" rx="24.679" ry="9.012"/><path class="cls-3" d="M87.086,66.9s11.2-.27,16.594,5.408c2.774,2.922-6.941,8.321-14.325,9.057-15.6,1.555-23.119-.541-21.842-.946S88.148,77.805,91.2,75.286C95.454,71.771,91.766,67.31,87.086,66.9Z"/><path class="cls-4" d="M75.642,72.058c0,1.951-3.931,3.532-8.78,3.532s-8.782-1.581-8.782-3.532,3.932-3.531,8.782-3.531S75.642,70.108,75.642,72.058Z"/></svg>