<svg id="word" xmlns="http://www.w3.org/2000/svg" viewBox="0 0 160 160"><defs><style>.cls-1{fill:#fff;stroke-miterlimit:10;}.cls-1,.cls-11,.cls-13,.cls-7,.cls-9{stroke:#9d4b9c;stroke-width:0.283px;}.cls-2{fill:#37b34a;}.cls-3{fill:#b1b3b5;}.cls-4{fill:#ea2d23;}.cls-5{fill:#09d;}.cls-6{fill:#fff100;}.cls-7{fill:#ec1c24;}.cls-8{fill:#cb171e;}.cls-9{fill:#e0e21b;}.cls-10{fill:#bfa83a;}.cls-11{fill:#00adee;}.cls-12{fill:#008cc0;}.cls-13{fill:#77bf43;}.cls-14{fill:#658e49;}</style></defs><polygon class="cls-1" points="102.928 111.168 2.978 102.441 35.052 35.647 135.002 44.374 102.928 111.168"/><ellipse class="cls-2" cx="17.047" cy="91.332" rx="2.955" ry="1.821" transform="translate(-16.425 4.662) rotate(-10.544)"/><ellipse class="cls-3" cx="22.987" cy="88.529" rx="2.955" ry="1.821" transform="translate(-15.812 5.701) rotate(-10.544)"/><ellipse class="cls-3" cx="29.253" cy="85.919" rx="2.955" ry="1.821" transform="translate(-15.228 6.804) rotate(-10.544)"/><ellipse class="cls-3" cx="35.078" cy="83.357" rx="2.955" ry="1.821" transform="translate(-14.661 7.826) rotate(-10.544)"/><ellipse class="cls-3" cx="41.288" cy="80.867" rx="2.955" ry="1.821" transform="translate(-14.1 8.921) rotate(-10.544)"/><ellipse class="cls-3" cx="47.227" cy="78.065" rx="2.955" ry="1.821" transform="translate(-13.487 9.96) rotate(-10.544)"/><ellipse class="cls-3" cx="53.494" cy="75.454" rx="2.955" ry="1.821" transform="translate(-12.904 11.063) rotate(-10.544)"/><ellipse class="cls-3" cx="59.318" cy="72.892" rx="2.955" ry="1.821" transform="translate(-12.337 12.085) rotate(-10.544)"/><ellipse class="cls-4" cx="66.064" cy="70.107" rx="2.955" ry="1.821" transform="translate(-11.713 13.273) rotate(-10.544)"/><ellipse class="cls-3" cx="72.003" cy="67.304" rx="2.955" ry="1.821" transform="translate(-11.1 14.312) rotate(-10.544)"/><ellipse class="cls-3" cx="78.27" cy="64.694" rx="2.955" ry="1.821" transform="translate(-10.517 15.415) rotate(-10.544)"/><ellipse class="cls-3" cx="84.094" cy="62.132" rx="2.955" ry="1.821" transform="translate(-9.949 16.437) rotate(-10.544)"/><ellipse class="cls-3" cx="90.37" cy="59.654" rx="2.955" ry="1.821" transform="translate(-9.39 17.544) rotate(-10.544)"/><ellipse class="cls-3" cx="96.309" cy="56.852" rx="2.955" ry="1.821" transform="translate(-8.777 18.583) rotate(-10.544)"/><ellipse class="cls-3" cx="102.576" cy="54.242" rx="2.955" ry="1.821" transform="translate(-8.194 19.686) rotate(-10.544)"/><ellipse class="cls-3" cx="109.27" cy="51.755" rx="2.955" ry="1.821" transform="translate(-7.626 20.869) rotate(-10.544)"/><ellipse class="cls-3" cx="115.389" cy="48.908" rx="2.955" ry="1.821" transform="translate(-7.001 21.94) rotate(-10.544)"/><ellipse class="cls-3" cx="19.983" cy="94.786" rx="2.955" ry="1.821" transform="translate(-17.007 5.257) rotate(-10.544)"/><ellipse class="cls-2" cx="25.922" cy="91.984" rx="2.955" ry="1.821" transform="translate(-16.394 6.296) rotate(-10.544)"/><ellipse class="cls-2" cx="32.188" cy="89.373" rx="2.955" ry="1.821" transform="translate(-15.811 7.399) rotate(-10.544)"/><ellipse class="cls-2" cx="38.013" cy="86.811" rx="2.955" ry="1.821" transform="translate(-15.243 8.422) rotate(-10.544)"/><ellipse class="cls-2" cx="44.223" cy="84.321" rx="2.955" ry="1.821" transform="translate(-14.683 9.516) rotate(-10.544)"/><ellipse class="cls-2" cx="50.162" cy="81.519" rx="2.955" ry="1.821" transform="translate(-14.07 10.555) rotate(-10.544)"/><ellipse class="cls-2" cx="56.429" cy="78.909" rx="2.955" ry="1.821" transform="translate(-13.486 11.658) rotate(-10.544)"/><ellipse class="cls-2" cx="62.253" cy="76.346" rx="2.955" ry="1.821" transform="translate(-12.919 12.681) rotate(-10.544)"/><ellipse class="cls-5" cx="81.205" cy="68.148" rx="2.955" ry="1.821" transform="translate(-11.099 16.01) rotate(-10.544)"/><ellipse class="cls-5" cx="87.029" cy="65.586" rx="2.955" ry="1.821" transform="translate(-10.532 17.033) rotate(-10.544)"/><ellipse class="cls-5" cx="93.305" cy="63.108" rx="2.955" ry="1.821" transform="translate(-9.973 18.139) rotate(-10.544)"/><ellipse class="cls-5" cx="99.244" cy="60.306" rx="2.955" ry="1.821" transform="translate(-9.36 19.179) rotate(-10.544)"/><ellipse class="cls-5" cx="105.511" cy="57.696" rx="2.955" ry="1.821" transform="translate(-8.776 20.281) rotate(-10.544)"/><ellipse class="cls-5" cx="112.206" cy="55.209" rx="2.955" ry="1.821" transform="translate(-8.208 21.464) rotate(-10.544)"/><ellipse class="cls-3" cx="118.324" cy="52.362" rx="2.955" ry="1.821" transform="translate(-7.584 22.536) rotate(-10.544)"/><ellipse class="cls-3" cx="23.401" cy="98.106" rx="2.955" ry="1.821" transform="translate(-17.557 5.939) rotate(-10.544)"/><ellipse class="cls-3" cx="29.341" cy="95.304" rx="2.955" ry="1.821" transform="translate(-16.944 6.978) rotate(-10.544)"/><ellipse class="cls-3" cx="35.607" cy="92.693" rx="2.955" ry="1.821" transform="translate(-16.36 8.081) rotate(-10.544)"/><ellipse class="cls-3" cx="41.431" cy="90.131" rx="2.955" ry="1.821" transform="translate(-15.793 9.103) rotate(-10.544)"/><ellipse class="cls-3" cx="47.642" cy="87.641" rx="2.955" ry="1.821" transform="translate(-15.233 10.198) rotate(-10.544)"/><ellipse class="cls-3" cx="53.581" cy="84.839" rx="2.955" ry="1.821" transform="translate(-14.62 11.237) rotate(-10.544)"/><ellipse class="cls-3" cx="59.847" cy="82.229" rx="2.955" ry="1.821" transform="translate(-14.036 12.34) rotate(-10.544)"/><ellipse class="cls-3" cx="65.672" cy="79.666" rx="2.955" ry="1.821" transform="translate(-13.469 13.362) rotate(-10.544)"/><ellipse class="cls-6" cx="72.417" cy="76.881" rx="2.955" ry="1.821" transform="translate(-12.845 14.55) rotate(-10.544)"/><ellipse class="cls-3" cx="78.138" cy="74.535" rx="2.955" ry="1.821" transform="translate(-12.32 15.557) rotate(-10.544)"/><ellipse class="cls-3" cx="84.623" cy="71.468" rx="2.955" ry="1.821" transform="translate(-11.649 16.692) rotate(-10.544)"/><ellipse class="cls-3" cx="90.448" cy="68.906" rx="2.955" ry="1.821" transform="translate(-11.082 17.714) rotate(-10.544)"/><ellipse class="cls-3" cx="96.724" cy="66.429" rx="2.955" ry="1.821" transform="translate(-10.522 18.821) rotate(-10.544)"/><ellipse class="cls-3" cx="102.663" cy="63.626" rx="2.955" ry="1.821" transform="translate(-9.909 19.86) rotate(-10.544)"/><ellipse class="cls-3" cx="108.93" cy="61.016" rx="2.955" ry="1.821" transform="translate(-9.326 20.963) rotate(-10.544)"/><ellipse class="cls-3" cx="115.624" cy="58.53" rx="2.955" ry="1.821" transform="matrix(0.983, -0.183, 0.183, 0.983, -8.758, 22.146)"/><ellipse class="cls-5" cx="121.743" cy="55.682" rx="2.955" ry="1.821" transform="translate(-8.134 23.218) rotate(-10.544)"/><ellipse class="cls-6" cx="87.076" cy="104.295" rx="2.955" ry="1.821" transform="matrix(0.983, -0.183, 0.183, 0.983, -17.614, 17.695)"/><ellipse class="cls-3" cx="83.699" cy="100.941" rx="2.955" ry="1.821" transform="translate(-17.058 17.02) rotate(-10.544)"/><ellipse class="cls-3" cx="80.685" cy="97.34" rx="2.955" ry="1.821" transform="translate(-16.45 16.408) rotate(-10.544)"/><ellipse class="cls-3" cx="77.668" cy="94.018" rx="2.955" ry="1.821" transform="translate(-15.893 15.8) rotate(-10.544)"/><ellipse class="cls-3" cx="74.837" cy="90.432" rx="2.955" ry="1.821" transform="matrix(0.983, -0.183, 0.183, 0.983, -15.284, 15.221)"/><ellipse class="cls-3" cx="71.46" cy="87.079" rx="2.955" ry="1.821" transform="translate(-14.728 14.546) rotate(-10.544)"/><ellipse class="cls-3" cx="68.447" cy="83.478" rx="2.955" ry="1.821" transform="translate(-14.12 13.934) rotate(-10.544)"/><ellipse class="cls-3" cx="55.835" cy="69.32" rx="2.955" ry="1.821" transform="translate(-11.742 11.388) rotate(-10.544)"/><ellipse class="cls-3" cx="52.818" cy="65.998" rx="2.955" ry="1.821" transform="matrix(0.983, -0.183, 0.183, 0.983, -11.185, 10.779)"/><ellipse class="cls-3" cx="50.018" cy="62.367" rx="2.955" ry="1.821" transform="translate(-10.568 10.206) rotate(-10.544)"/><ellipse class="cls-3" cx="46.641" cy="59.013" rx="2.955" ry="1.821" transform="translate(-10.011 9.531) rotate(-10.544)"/><ellipse class="cls-3" cx="43.628" cy="55.413" rx="2.955" ry="1.821" transform="translate(-9.403 8.919) rotate(-10.544)"/><ellipse class="cls-3" cx="40.889" cy="51.511" rx="2.955" ry="1.821" transform="translate(-8.735 8.352) rotate(-10.544)"/><ellipse class="cls-3" cx="37.473" cy="48.049" rx="2.955" ry="1.821" transform="translate(-8.16 7.668) rotate(-10.544)"/><ellipse class="cls-3" cx="93.095" cy="101.762" rx="2.955" ry="1.821" transform="translate(-17.049 18.753) rotate(-10.544)"/><ellipse class="cls-6" cx="89.718" cy="98.408" rx="2.955" ry="1.821" transform="translate(-16.493 18.079) rotate(-10.544)"/><ellipse class="cls-6" cx="86.705" cy="94.807" rx="2.955" ry="1.821" transform="translate(-15.884 17.467) rotate(-10.544)"/><ellipse class="cls-6" cx="83.688" cy="91.485" rx="2.955" ry="1.821" transform="translate(-15.328 16.858) rotate(-10.544)"/><ellipse class="cls-6" cx="80.856" cy="87.899" rx="2.955" ry="1.821" transform="translate(-14.719 16.28) rotate(-10.544)"/><ellipse class="cls-6" cx="77.479" cy="84.545" rx="2.955" ry="1.821" transform="translate(-14.162 15.605) rotate(-10.544)"/><ellipse class="cls-6" cx="74.466" cy="80.945" rx="2.955" ry="1.821" transform="translate(-13.554 14.993) rotate(-10.544)"/><ellipse class="cls-4" cx="61.854" cy="66.787" rx="2.955" ry="1.821" transform="translate(-11.177 12.446) rotate(-10.544)"/><ellipse class="cls-4" cx="58.837" cy="63.465" rx="2.955" ry="1.821" transform="matrix(0.983, -0.183, 0.183, 0.983, -10.62, 11.838)"/><ellipse class="cls-4" cx="56.037" cy="59.834" rx="2.955" ry="1.821" transform="translate(-10.003 11.264) rotate(-10.544)"/><ellipse class="cls-4" cx="52.66" cy="56.48" rx="2.955" ry="1.821" transform="translate(-9.446 10.59) rotate(-10.544)"/><ellipse class="cls-4" cx="49.647" cy="52.879" rx="2.955" ry="1.821" transform="translate(-8.838 9.978) rotate(-10.544)"/><ellipse class="cls-4" cx="46.908" cy="48.978" rx="2.955" ry="1.821" transform="translate(-8.17 9.411) rotate(-10.544)"/><ellipse class="cls-3" cx="43.492" cy="45.516" rx="2.955" ry="1.821" transform="translate(-7.594 8.727) rotate(-10.544)"/><ellipse class="cls-3" cx="98.989" cy="98.938" rx="2.955" ry="1.821" transform="translate(-16.433 19.784) rotate(-10.544)"/><ellipse class="cls-3" cx="95.612" cy="95.585" rx="2.955" ry="1.821" transform="translate(-15.876 19.11) rotate(-10.544)"/><ellipse class="cls-3" cx="92.599" cy="91.984" rx="2.955" ry="1.821" transform="translate(-15.268 18.497) rotate(-10.544)"/><ellipse class="cls-3" cx="89.582" cy="88.662" rx="2.955" ry="1.821" transform="translate(-14.711 17.889) rotate(-10.544)"/><ellipse class="cls-3" cx="86.75" cy="85.076" rx="2.955" ry="1.821" transform="translate(-14.103 17.311) rotate(-10.544)"/><ellipse class="cls-3" cx="83.373" cy="81.722" rx="2.955" ry="1.821" transform="translate(-13.546 16.636) rotate(-10.544)"/><ellipse class="cls-3" cx="80.36" cy="78.121" rx="2.955" ry="1.821" transform="translate(-12.938 16.024) rotate(-10.544)"/><ellipse class="cls-5" cx="75.235" cy="71.014" rx="2.955" ry="1.821" transform="matrix(0.983, -0.183, 0.183, 0.983, -11.724, 14.966)"/><ellipse class="cls-3" cx="67.748" cy="63.964" rx="2.955" ry="1.821" transform="translate(-10.561 13.477) rotate(-10.544)"/><ellipse class="cls-3" cx="64.731" cy="60.642" rx="2.955" ry="1.821" transform="translate(-10.004 12.869) rotate(-10.544)"/><ellipse class="cls-3" cx="61.931" cy="57.011" rx="2.955" ry="1.821" transform="matrix(0.983, -0.183, 0.183, 0.983, -9.387, 12.295)"/><ellipse class="cls-3" cx="58.554" cy="53.657" rx="2.955" ry="1.821" transform="translate(-8.83 11.621) rotate(-10.544)"/><ellipse class="cls-3" cx="55.541" cy="50.056" rx="2.955" ry="1.821" transform="matrix(0.983, -0.183, 0.183, 0.983, -8.222, 11.008)"/><ellipse class="cls-3" cx="52.802" cy="46.155" rx="2.955" ry="1.821" transform="translate(-7.554 10.441) rotate(-10.544)"/><ellipse class="cls-4" cx="49.386" cy="42.693" rx="2.955" ry="1.821" transform="translate(-6.978 9.758) rotate(-10.544)"/><ellipse class="cls-2" cx="20.949" cy="79.091" rx="2.955" ry="1.821" transform="translate(-14.119 5.169) rotate(-10.544)"/><ellipse class="cls-2" cx="23.148" cy="74.511" rx="2.955" ry="1.821" transform="translate(-13.244 5.494) rotate(-10.544)"/><ellipse class="cls-2" cx="29.471" cy="75.289" rx="2.955" ry="1.821" transform="translate(-13.279 6.664) rotate(-10.544)"/><ellipse class="cls-2" cx="27.495" cy="79.404" rx="2.955" ry="1.821" transform="translate(-14.066 6.372) rotate(-10.544)"/><ellipse class="cls-4" cx="67.512" cy="47.878" rx="2.955" ry="1.821" transform="translate(-7.621 13.162) rotate(-10.544)"/><ellipse class="cls-4" cx="69.712" cy="43.298" rx="2.955" ry="1.821" transform="translate(-6.746 13.487) rotate(-10.544)"/><ellipse class="cls-4" cx="76.035" cy="44.076" rx="2.955" ry="1.821" transform="translate(-6.781 14.658) rotate(-10.544)"/><ellipse class="cls-4" cx="74.059" cy="48.191" rx="2.955" ry="1.821" transform="translate(-7.568 14.365) rotate(-10.544)"/><ellipse class="cls-5" cx="108.05" cy="72.829" rx="2.955" ry="1.821" transform="translate(-11.502 21.001) rotate(-10.544)"/><ellipse class="cls-5" cx="110.249" cy="68.249" rx="2.955" ry="1.821" transform="translate(-10.627 21.326) rotate(-10.544)"/><ellipse class="cls-5" cx="116.572" cy="69.027" rx="2.955" ry="1.821" transform="translate(-10.663 22.497) rotate(-10.544)"/><ellipse class="cls-5" cx="114.596" cy="73.142" rx="2.955" ry="1.821" transform="translate(-11.449 22.205) rotate(-10.544)"/><ellipse class="cls-6" cx="61.524" cy="102.731" rx="2.955" ry="1.821" transform="translate(-17.76 12.993) rotate(-10.544)"/><ellipse class="cls-6" cx="63.723" cy="98.151" rx="2.955" ry="1.821" transform="translate(-16.884 13.318) rotate(-10.544)"/><ellipse class="cls-6" cx="70.046" cy="98.929" rx="2.955" ry="1.821" transform="translate(-16.92 14.488) rotate(-10.544)"/><ellipse class="cls-6" cx="68.07" cy="103.044" rx="2.955" ry="1.821" transform="translate(-17.706 14.196) rotate(-10.544)"/><path class="cls-7" d="M127.94,85.066a1.54,1.54,0,0,0,.949-1.453,1.441,1.441,0,1,0-2.873,0,1.545,1.545,0,0,0,.889,1.428c-1.667,1.034-1.789,6.561-1.789,6.561a3.572,3.572,0,0,0,2.182.857,4.708,4.708,0,0,0,2.492-.782S129.39,86.158,127.94,85.066Z"/><path class="cls-8" d="M125.346,91.638s2.658.5,2.853-.34a16.479,16.479,0,0,0,0-4.36c-.2-.7-.567-1.924-.309-1.81.718.325,1.717,4.392,1.782,5.692s-.936,1.391-2.033,1.5A6.393,6.393,0,0,1,125.346,91.638Z"/><path class="cls-8" d="M126.4,84.556a1.382,1.382,0,0,0,1.553-.031,2.331,2.331,0,0,0,.746-1.161s.215,1.563-1.078,1.734A1.116,1.116,0,0,1,126.4,84.556Z"/><path class="cls-9" d="M121.72,93.52a1.542,1.542,0,0,0,.949-1.453,1.441,1.441,0,1,0-2.873,0,1.543,1.543,0,0,0,.888,1.427c-1.667,1.034-1.788,6.562-1.788,6.562a3.571,3.571,0,0,0,2.181.857,4.709,4.709,0,0,0,2.493-.782S123.169,94.611,121.72,93.52Z"/><path class="cls-10" d="M119.125,100.092s2.659.5,2.853-.34a16.4,16.4,0,0,0,0-4.36c-.194-.7-.566-1.925-.309-1.81.719.325,1.717,4.392,1.782,5.692s-.935,1.391-2.033,1.5A6.414,6.414,0,0,1,119.125,100.092Z"/><path class="cls-10" d="M120.175,93.01a1.381,1.381,0,0,0,1.552-.031,2.334,2.334,0,0,0,.746-1.161s.216,1.563-1.077,1.734A1.114,1.114,0,0,1,120.175,93.01Z"/><path class="cls-11" d="M119.63,83.428a1.371,1.371,0,1,0-.989-.022c-1.592.917-1.707,5.819-1.707,5.819a3.539,3.539,0,0,0,2.082.761,4.732,4.732,0,0,0,2.381-.694S121.014,84.4,119.63,83.428Z"/><path class="cls-12" d="M117.153,89.258s2.537.44,2.724-.3a13.606,13.606,0,0,0,0-3.867c-.187-.62-.541-1.707-.3-1.606.685.288,1.638,3.9,1.7,5.049s-.892,1.233-1.94,1.33A6.477,6.477,0,0,1,117.153,89.258Z"/><path class="cls-12" d="M118.155,82.975a1.4,1.4,0,0,0,1.482-.027,2.075,2.075,0,0,0,.713-1.029s.205,1.386-1.029,1.537A1.085,1.085,0,0,1,118.155,82.975Z"/><path class="cls-13" d="M115.617,94.481a1.542,1.542,0,0,0,.949-1.453,1.441,1.441,0,1,0-2.873,0,1.546,1.546,0,0,0,.888,1.428c-1.667,1.033-1.788,6.561-1.788,6.561a3.571,3.571,0,0,0,2.181.857,4.709,4.709,0,0,0,2.493-.782S117.066,95.573,115.617,94.481Z"/><path class="cls-14" d="M113.022,101.053s2.659.5,2.853-.34a16.4,16.4,0,0,0,0-4.36c-.194-.7-.566-1.924-.309-1.81.719.325,1.717,4.392,1.782,5.692s-.935,1.391-2.033,1.5A6.393,6.393,0,0,1,113.022,101.053Z"/><path class="cls-14" d="M114.072,93.971a1.381,1.381,0,0,0,1.552-.031,2.329,2.329,0,0,0,.746-1.161s.216,1.563-1.077,1.734A1.114,1.114,0,0,1,114.072,93.971Z"/><path class="cls-7" d="M138.665,86.755a1.542,1.542,0,0,0,.949-1.453,1.441,1.441,0,1,0-2.873,0,1.546,1.546,0,0,0,.888,1.428c-1.667,1.033-1.788,6.561-1.788,6.561a3.571,3.571,0,0,0,2.181.857,4.709,4.709,0,0,0,2.493-.782S140.114,87.847,138.665,86.755Z"/><path class="cls-8" d="M136.07,93.327s2.659.5,2.853-.34a16.4,16.4,0,0,0,0-4.36c-.194-.7-.566-1.924-.309-1.81.719.325,1.717,4.392,1.782,5.692s-.935,1.391-2.033,1.5A6.414,6.414,0,0,1,136.07,93.327Z"/><path class="cls-8" d="M137.12,86.245a1.381,1.381,0,0,0,1.552-.031,2.329,2.329,0,0,0,.746-1.161s.216,1.563-1.077,1.734A1.114,1.114,0,0,1,137.12,86.245Z"/><path class="cls-9" d="M132.445,95.208a1.541,1.541,0,0,0,.949-1.453,1.441,1.441,0,1,0-2.873,0,1.546,1.546,0,0,0,.888,1.428c-1.667,1.034-1.788,6.562-1.788,6.562a3.563,3.563,0,0,0,2.181.856,4.709,4.709,0,0,0,2.493-.782S133.894,96.3,132.445,95.208Z"/><path class="cls-10" d="M129.85,101.78s2.658.5,2.853-.34a16.479,16.479,0,0,0,0-4.36c-.195-.7-.566-1.924-.309-1.81.718.325,1.717,4.392,1.782,5.692s-.936,1.391-2.033,1.5A6.393,6.393,0,0,1,129.85,101.78Z"/><path class="cls-10" d="M130.9,94.7a1.38,1.38,0,0,0,1.552-.031,2.324,2.324,0,0,0,.746-1.161s.216,1.563-1.077,1.734A1.114,1.114,0,0,1,130.9,94.7Z"/><path class="cls-11" d="M77.855,104.181a1.371,1.371,0,1,0-.989-.022c-1.591.918-1.707,5.82-1.707,5.82a3.534,3.534,0,0,0,2.082.76,4.726,4.726,0,0,0,2.381-.693S79.239,105.149,77.855,104.181Z"/><path class="cls-12" d="M75.378,110.011s2.538.44,2.724-.3a13.534,13.534,0,0,0,0-3.867c-.186-.619-.541-1.707-.3-1.605.685.288,1.638,3.9,1.7,5.048s-.892,1.234-1.939,1.33A6.454,6.454,0,0,1,75.378,110.011Z"/><path class="cls-12" d="M76.38,103.729a1.4,1.4,0,0,0,1.482-.027,2.068,2.068,0,0,0,.713-1.03s.2,1.386-1.029,1.538A1.085,1.085,0,0,1,76.38,103.729Z"/><path class="cls-13" d="M126.933,95.954a1.539,1.539,0,0,0,.949-1.452,1.441,1.441,0,1,0-2.873,0,1.544,1.544,0,0,0,.889,1.427c-1.667,1.034-1.789,6.562-1.789,6.562a3.566,3.566,0,0,0,2.181.856,4.7,4.7,0,0,0,2.493-.782S128.382,97.046,126.933,95.954Z"/><path class="cls-14" d="M124.338,102.526s2.659.5,2.853-.34a16.4,16.4,0,0,0,0-4.36c-.194-.7-.566-1.924-.309-1.81.719.325,1.718,4.392,1.782,5.693s-.935,1.39-2.032,1.5A6.4,6.4,0,0,1,124.338,102.526Z"/><path class="cls-14" d="M125.388,95.444a1.379,1.379,0,0,0,1.552-.031,2.324,2.324,0,0,0,.746-1.161s.216,1.563-1.077,1.735A1.115,1.115,0,0,1,125.388,95.444Z"/><path class="cls-7" d="M142.813,97.681a1.539,1.539,0,0,0,1.676.45,1.44,1.44,0,1,0-.894-2.73,1.544,1.544,0,0,0-1.08,1.289c-1.5-1.263-6.792.344-6.792.344a3.564,3.564,0,0,0-.135,2.339,4.706,4.706,0,0,0,1.519,2.125S142.227,99.4,142.813,97.681Z"/><path class="cls-8" d="M135.76,97.263s.355,2.68,1.212,2.6a16.436,16.436,0,0,0,4.143-1.358c.6-.4,1.652-1.137,1.624-.857-.086.784-3.639,3-4.855,3.466s-1.613-.456-2.057-1.465A6.394,6.394,0,0,1,135.76,97.263Z"/><path class="cls-8" d="M142.817,96.055a1.379,1.379,0,0,0,.513,1.465,2.325,2.325,0,0,0,1.335.347s-1.418.692-1.983-.483A1.114,1.114,0,0,1,142.817,96.055Z"/><path class="cls-9" d="M137.3,80.218a1.542,1.542,0,0,0,1.677.449,1.44,1.44,0,1,0-.9-2.73A1.544,1.544,0,0,0,137,79.226c-1.5-1.262-6.792.344-6.792.344a3.565,3.565,0,0,0-.135,2.339,4.705,4.705,0,0,0,1.519,2.126S136.714,81.935,137.3,80.218Z"/><path class="cls-10" d="M130.247,79.8s.356,2.681,1.212,2.6a16.422,16.422,0,0,0,4.143-1.358c.6-.4,1.652-1.137,1.624-.857-.085.784-3.639,3-4.855,3.466s-1.612-.456-2.057-1.465A6.4,6.4,0,0,1,130.247,79.8Z"/><path class="cls-10" d="M137.3,78.591a1.381,1.381,0,0,0,.513,1.466,2.333,2.333,0,0,0,1.335.347s-1.418.692-1.983-.484A1.115,1.115,0,0,1,137.3,78.591Z"/><path class="cls-11" d="M135.36,101.806a1.371,1.371,0,1,0-.287-.947c-1.368-1.227-6.062.19-6.062.19a3.534,3.534,0,0,0-.074,2.216,4.725,4.725,0,0,0,1.4,2.046S134.871,103.422,135.36,101.806Z"/><path class="cls-12" d="M129.048,101.267s.373,2.549,1.136,2.494a13.505,13.505,0,0,0,3.674-1.2c.531-.369,1.454-1.045,1.434-.78-.06.741-3.192,2.77-4.268,3.188s-1.45-.464-1.868-1.429A6.458,6.458,0,0,1,129.048,101.267Z"/><path class="cls-12" d="M135.33,100.263a1.4,1.4,0,0,0,.487,1.4,2.078,2.078,0,0,0,1.2.357s-1.253.627-1.782-.5A1.086,1.086,0,0,1,135.33,100.263Z"/><path class="cls-13" d="M115.914,101.323a1.539,1.539,0,0,0,1.676.45,1.441,1.441,0,1,0-.9-2.73,1.547,1.547,0,0,0-1.08,1.289c-1.5-1.263-6.792.344-6.792.344a3.564,3.564,0,0,0-.135,2.339,4.712,4.712,0,0,0,1.52,2.125S115.328,103.041,115.914,101.323Z"/><path class="cls-14" d="M108.861,100.9s.355,2.681,1.211,2.606a16.422,16.422,0,0,0,4.143-1.358c.6-.4,1.653-1.137,1.624-.857-.085.784-3.639,3-4.854,3.466s-1.613-.456-2.057-1.465A6.4,6.4,0,0,1,108.861,100.9Z"/><path class="cls-14" d="M115.917,99.7a1.381,1.381,0,0,0,.513,1.465,2.329,2.329,0,0,0,1.336.347s-1.418.692-1.984-.483A1.114,1.114,0,0,1,115.917,99.7Z"/><path class="cls-7" d="M122.548,106.4a1.542,1.542,0,0,0,1.334,1.11,1.441,1.441,0,1,0,.33-2.854,1.541,1.541,0,0,0-1.52.718c-.836-1.775-6.313-2.53-6.313-2.53a3.567,3.567,0,0,0-1.1,2.069,4.711,4.711,0,0,0,.49,2.566S121.3,107.71,122.548,106.4Z"/><path class="cls-8" d="M116.317,103.064s-.8,2.583.011,2.873a16.4,16.4,0,0,0,4.331.5c.715-.113,1.976-.341,1.833-.1-.405.677-4.56,1.2-5.859,1.117s-1.274-1.089-1.255-2.192A6.4,6.4,0,0,1,116.317,103.064Z"/><path class="cls-8" d="M123.232,104.92a1.38,1.38,0,0,0-.148,1.545,2.334,2.334,0,0,0,1.068.875s-1.577.035-1.6-1.27A1.113,1.113,0,0,1,123.232,104.92Z"/><path class="cls-9" d="M50.662,106.613a1.542,1.542,0,0,0,1.677.45,1.44,1.44,0,1,0-.895-2.73,1.541,1.541,0,0,0-1.08,1.288c-1.5-1.262-6.792.344-6.792.344a3.567,3.567,0,0,0-.135,2.34,4.706,4.706,0,0,0,1.519,2.125S50.076,108.33,50.662,106.613Z"/><path class="cls-10" d="M43.609,106.194s.355,2.681,1.212,2.605a16.461,16.461,0,0,0,4.143-1.357c.6-.4,1.652-1.138,1.624-.858-.086.784-3.639,3-4.855,3.466s-1.613-.456-2.057-1.465A6.4,6.4,0,0,1,43.609,106.194Z"/><path class="cls-10" d="M50.666,104.986a1.38,1.38,0,0,0,.513,1.466,2.333,2.333,0,0,0,1.335.347s-1.418.692-1.983-.484A1.115,1.115,0,0,1,50.666,104.986Z"/><path class="cls-11" d="M113.421,86.858a1.371,1.371,0,1,0-.287-.946c-1.368-1.227-6.062.19-6.062.19A3.531,3.531,0,0,0,107,88.317a4.725,4.725,0,0,0,1.4,2.046S112.932,88.475,113.421,86.858Z"/><path class="cls-12" d="M107.109,86.32s.373,2.548,1.136,2.494a13.54,13.54,0,0,0,3.674-1.2c.531-.37,1.454-1.045,1.434-.78-.06.741-3.191,2.77-4.268,3.188s-1.45-.464-1.868-1.429A6.484,6.484,0,0,1,107.109,86.32Z"/><path class="cls-12" d="M113.391,85.316a1.4,1.4,0,0,0,.488,1.4,2.056,2.056,0,0,0,1.2.357s-1.253.627-1.782-.5A1.084,1.084,0,0,1,113.391,85.316Z"/><path class="cls-13" d="M154.934,101.929a1.54,1.54,0,0,0,1.341,1.1,1.441,1.441,0,1,0,.312-2.856,1.546,1.546,0,0,0-1.516.728c-.847-1.769-6.329-2.489-6.329-2.489a3.565,3.565,0,0,0-1.088,2.075,4.707,4.707,0,0,0,.507,2.563S153.691,103.251,154.934,101.929Z"/><path class="cls-14" d="M148.682,98.637s-.783,2.588.029,2.872a16.421,16.421,0,0,0,4.334.473c.714-.117,1.974-.354,1.833-.11-.4.679-4.553,1.23-5.852,1.154s-1.281-1.081-1.27-2.184A6.4,6.4,0,0,1,148.682,98.637Z"/><path class="cls-14" d="M155.608,100.448a1.381,1.381,0,0,0-.137,1.547,2.328,2.328,0,0,0,1.073.867s-1.577.045-1.607-1.259A1.115,1.115,0,0,1,155.608,100.448Z"/></svg>