<svg id="word" xmlns="http://www.w3.org/2000/svg" viewBox="0 0 160 160"><defs><style>.cls-1,.cls-2{fill:#949494;}.cls-1,.cls-4,.cls-5{stroke:#9d4b9c;stroke-miterlimit:10;}.cls-3{fill:#9d4b9c;}.cls-4{fill:#f492a4;}.cls-5{fill:#fff;}</style></defs><path class="cls-1" d="M40.236,88.33s-1.88,9.754-1.881,11.05,1.621,1.875-.874,2.48a21.44,21.44,0,0,1-6.07.132,4.065,4.065,0,0,0-1.662.608s-2.283.632-3.068.889-.95,1.322-.95,1.322-7.117.09-2.874,1.766a39.9,39.9,0,0,0,13.662,2.328c3.908-.02,5.771-.064,7.819-2.116a7.4,7.4,0,0,0,2.221-4.212"/><path class="cls-2" d="M29.313,102.713a5.177,5.177,0,0,0,4.4,1.55"/><path class="cls-3" d="M29.666,102.359l.133.162a3.837,3.837,0,0,0,.334.365,4.858,4.858,0,0,0,1.28.891,5.066,5.066,0,0,0,1.549.451,4.718,4.718,0,0,0,.753.035,4.642,4.642,0,0,1-.756.121,5.353,5.353,0,0,1-1.712-.136,5.535,5.535,0,0,1-1.631-.7,5.142,5.142,0,0,1-.493-.354l-.162-.131Z"/><path class="cls-2" d="M38.533,101.19a9.327,9.327,0,0,1-.99,4.41"/><path class="cls-3" d="M39.033,101.188s-.021.281-.092.738a10,10,0,0,1-.388,1.584,9.194,9.194,0,0,1-1.01,2.09,9.069,9.069,0,0,0,.521-2.2,9.207,9.207,0,0,0,.034-1.523c-.025-.4-.065-.688-.065-.688Z"/><path class="cls-2" d="M25.848,104.623a8.347,8.347,0,0,0,5.336,1.226"/><path class="cls-3" d="M26.106,104.194a8.2,8.2,0,0,0,.689.473,8.038,8.038,0,0,0,1.674.775,8.255,8.255,0,0,0,1.845.377,7.745,7.745,0,0,0,.87.03,7.5,7.5,0,0,1-.869.126,8.532,8.532,0,0,1-1.958-.046,8.782,8.782,0,0,1-1.933-.5c-.252-.095-.486-.206-.617-.269l-.217-.105Z"/><path class="cls-1" d="M34.115,49.941a15.031,15.031,0,0,0,4.6-2.777c1.789-1.748,6.683-7.8,11.926-9.415s9.013-1.547,12.73,1.772,5.687,7.34,6.579,15.139S69.779,71.6,71.087,74.076s3,5.769,5.34,6.04,11.119,1.535,14.353,2.323,17.012,8.668,19.431,10.992,6.21,3.513,9.706,3.7,11.177-2.963,12.827-3.4,7.607-1.368,9.293-1,7.014,1.964,7.546,2.712-.739.539-3.183,1.251-1.36,1.275-2.443.713-.972,1.067-2.158.962-.2,1.369-1.743,1.238-4.106,1.316-2.939,1.664a42.242,42.242,0,0,1,4.563,1.873c1.179.561,1.826-.654,3.335,1.2s2.428,1.991,3.291,2.989,8.27,4.41,2.534,4.58a81.062,81.062,0,0,1-16.24-1.143c-3.142-.729-6.3-1.448-8.3-1.826s-7.894-.578-10.384-.706-16.42-.319-18.656-.25-32.07,2.343-35.554,2.048a36.653,36.653,0,0,1-12.478-4.07c-3.1-1.829-7.816-7.527-8.672-10.635s-.187-12.606,1.02-16.156,2.878-7.932,3.217-10.265,1.582-5.476.527-6.08.162-1.818-1.36-1.83-2.614.628-3.159.436-1.58-1.82-1.58-1.82-4.818.687-6.182-.786-2.2-4.009-1.16-5.823A17.1,17.1,0,0,1,34.115,49.941Z"/><path class="cls-4" d="M33.558,54.367a6.06,6.06,0,0,0,1.776-2.185,11.876,11.876,0,0,0,.515-2.635s-3.223-.851-4.334.3c-1.582,1.642-1.7,4.084-1.218,4.924C31.411,56.716,33.558,54.367,33.558,54.367Z"/><path class="cls-5" d="M57.07,46.444s-.838-1.84-2.362-1.17c-.993.436-1.319,2.838-1.191,4.521s1.437,1.644,2.343,1.88S57.994,48.039,57.07,46.444Z"/><path class="cls-1" d="M39.225,59.874c1.059-.169,2.1-.405,3.151-.64a15.066,15.066,0,0,0,1.662-.443,14.94,14.94,0,0,0,3.48-1.974"/><path class="cls-1" d="M43.968,61.247a12.571,12.571,0,0,1,2.126-.013,2.428,2.428,0,0,0,1.922-.737"/><path class="cls-2" d="M70.854,73.836a5.634,5.634,0,0,1,.218,1.8,5.12,5.12,0,0,1-.217.967,11.015,11.015,0,0,1-2.714,4.981"/><path class="cls-3" d="M71.341,73.723l.062.369a6.745,6.745,0,0,1,.1,1.036,2.5,2.5,0,0,1-.088.739l-.2.7c-.089.309-.177.5-.277.766-.1.249-.205.5-.315.748a11.2,11.2,0,0,1-1.537,2.548,6.579,6.579,0,0,1-.943.956,6.632,6.632,0,0,0,.818-1.049A10.873,10.873,0,0,0,70.154,77.9c.078-.251.152-.5.218-.755.059-.232.144-.532.17-.711l.117-.713a1.724,1.724,0,0,0,0-.546,5.85,5.85,0,0,0-.19-.877l-.1-.347Z"/><path class="cls-2" d="M73.264,77.78a14.8,14.8,0,0,1-.031,3.668,4.976,4.976,0,0,1-1.744,3.142"/><path class="cls-3" d="M73.763,77.743l0,1.163a11.837,11.837,0,0,1-.282,2.585,5.775,5.775,0,0,1-1.128,2.325,3.607,3.607,0,0,1-.862.774,3.584,3.584,0,0,0,.736-.866,5.465,5.465,0,0,0,.762-2.32,11.238,11.238,0,0,0-.068-2.456c-.092-.679-.154-1.131-.154-1.131Z"/><path class="cls-2" d="M75.846,80.2c.257.061.4.332.5.577a10.71,10.71,0,0,1,.641,5.558"/><path class="cls-3" d="M75.987,79.717l.1.04a.968.968,0,0,1,.329.237,1.988,1.988,0,0,1,.394.831,10.61,10.61,0,0,1,.252,1.045,10.964,10.964,0,0,1,.161,1.21,11.125,11.125,0,0,1-.243,3.251,10.028,10.028,0,0,0,.025-1.007,10.711,10.711,0,0,0-.276-2.169,10.425,10.425,0,0,0-.327-1.108,9.531,9.531,0,0,0-.381-.921,1.071,1.071,0,0,0-.28-.453c-.016-.009-.034-.007-.007.008s-.05-.01-.033,0Z"/><path class="cls-2" d="M55.8,39.523a4.389,4.389,0,0,1,3.569,3.811"/><path class="cls-3" d="M55.8,39.523s.094-.023.256-.048a2.139,2.139,0,0,1,.69.02,2.974,2.974,0,0,1,.93.317,3.414,3.414,0,0,1,1.529,1.631,2.93,2.93,0,0,1,.255.949,2.193,2.193,0,0,1-.026.689,2.532,2.532,0,0,1-.065.253s-.054-.084-.131-.222-.189-.33-.323-.542a9.024,9.024,0,0,0-1.067-1.388,8.854,8.854,0,0,0-1.314-1.156c-.207-.149-.372-.269-.518-.357S55.8,39.523,55.8,39.523Z"/><path class="cls-3" d="M37.09,47.992l-.266-.409c-.175-.265-.4-.594-.73-1a14.84,14.84,0,0,0-2.736-2.643A15,15,0,0,0,30,42.064a13.843,13.843,0,0,0-1.678-.558,13.848,13.848,0,0,1,1.729.411,15.327,15.327,0,0,1,3.59,1.606,15.562,15.562,0,0,1,3.092,2.5c.375.387.687.765.874,1l.3.383Z"/><path class="cls-3" d="M39.635,51.938s.372.062.545.094.419.064.768.161a11.068,11.068,0,0,1,2.639,1.031A23,23,0,0,1,49.882,58.7a66.857,66.857,0,0,1,5,6.6c1.247,1.88,1.99,3.187,1.99,3.187s-.8-1.276-2.115-3.1a66.638,66.638,0,0,0-5.237-6.358,22.4,22.4,0,0,0-6.3-5.064,8.855,8.855,0,0,0-1.908-.906c-.288-.072-.967-.548-1.138-.575S39.7,52.1,39.7,52.1Z"/><path class="cls-3" d="M36.121,48.916s-.122-.187-.341-.455A7.67,7.67,0,0,0,34.7,47.4c-.245-.2-.523-.41-.828-.619s-.649-.431-.988-.625a16.863,16.863,0,0,0-2.283-1.116A17.248,17.248,0,0,0,25.953,43.9c-.655-.068-1.2-.083-1.591-.088l-.606.006.605-.049c.386-.022.938-.047,1.6-.025a17.6,17.6,0,0,1,7.253,1.815c.393.192.722.378,1.071.575s.646.4.927.6a8.681,8.681,0,0,1,1.28,1.093,6.342,6.342,0,0,1,.423.487Z"/><path class="cls-3" d="M34.936,49.47l-.1-.139a2.55,2.55,0,0,0-.262-.3,3.8,3.8,0,0,0-1.289-.826,7.345,7.345,0,0,0-2.26-.454c-.871-.056-1.831-.072-2.778-.108l-7.6-.257,7.6-.243c.953-.026,1.893-.073,2.8-.075a8.1,8.1,0,0,1,2.523.344,4.7,4.7,0,0,1,1.653.918,3.786,3.786,0,0,1,.4.4l.108.133Z"/><path class="cls-3" d="M39.635,53.2a17.316,17.316,0,0,1,2.948,1.7l2.263,1.693a14.908,14.908,0,0,1,2.449,2.2,18.63,18.63,0,0,1,1.8,2.729l1.417,2.443L51.9,66.347l-1.512-2.3-1.55-2.361a18.311,18.311,0,0,0-1.905-2.565,14.413,14.413,0,0,0-2.474-1.981c-.86-.572-1.663-1.105-2.35-1.563A11.374,11.374,0,0,1,39.8,53.5Z"/><path class="cls-3" d="M42.149,51.22a3.809,3.809,0,0,1,.622.085,5.672,5.672,0,0,1,.708.338,23.276,23.276,0,0,0,2.134,1.224l1.583.513a15.626,15.626,0,0,1,1.778.713,14.984,14.984,0,0,1,3.45,2.318,25.342,25.342,0,0,1,4.774,6c1.068,1.8,1.7,3.031,1.7,3.031s-.693-1.207-1.836-2.948a25.007,25.007,0,0,0-4.962-5.707,14.394,14.394,0,0,0-3.4-2.076,14.834,14.834,0,0,0-1.736-.608l-1.641-.455c-1.078-.414-1.34-.965-1.865-1.2-.255-.129-.6-.469-.716-.509a7.081,7.081,0,0,1-.889-.813Z"/><path class="cls-3" d="M121.042,103.513s.4.4.913,1.039a19.635,19.635,0,0,0,1.908,2.137,5.7,5.7,0,0,0,.571.479c.214.148.389.283.6.409.408.251.819.464,1.176.655.721.368,1.206.673,1.206.673a7.034,7.034,0,0,1-1.392-.129,6.231,6.231,0,0,1-1.394-.417,4.922,4.922,0,0,1-.747-.4,6.389,6.389,0,0,1-.7-.535,7.2,7.2,0,0,1-1.726-2.585A7.718,7.718,0,0,1,121.042,103.513Z"/><path class="cls-3" d="M118.848,97.752l.181-.045a3.516,3.516,0,0,1,.522-.1,6.849,6.849,0,0,1,1.912.047,15.588,15.588,0,0,1,2.589.691c.919.309,1.864.648,2.838.927,1.936.592,3.912,1.055,5.414,1.366l2.524.507a18.508,18.508,0,0,1-2.595.063,23.732,23.732,0,0,1-5.632-.979,27.28,27.28,0,0,1-2.861-1.063c-.885-.377-1.694-.722-2.41-.956a8.257,8.257,0,0,0-1.776-.409C119.114,97.752,118.848,97.752,118.848,97.752Z"/><path class="cls-2" d="M140.937,98.731a8.995,8.995,0,0,0-4.608-1.9,26.888,26.888,0,0,0-5.044-.073"/><path class="cls-3" d="M140.621,99.119S140.5,99,140.3,98.84a6.6,6.6,0,0,0-.871-.617,9.779,9.779,0,0,0-3.137-1.147,20.543,20.543,0,0,0-3.431-.309l-1.58-.012,1.575-.145a20.9,20.9,0,0,1,3.5-.03,10.449,10.449,0,0,1,3.467.9,7.592,7.592,0,0,1,1.061.6c.249.171.363.261.363.261Z"/><path class="cls-2" d="M144.339,97.519a1.841,1.841,0,0,0-.668-.75,3.673,3.673,0,0,0-.9-.369l-2.231-.689a10.228,10.228,0,0,0-3.638-.654"/><path class="cls-3" d="M143.893,97.744a1.749,1.749,0,0,0-.118-.235,1.393,1.393,0,0,0-.5-.477,9.475,9.475,0,0,0-1.137-.469l-1.384-.523a17.344,17.344,0,0,0-2.614-.849,5.617,5.617,0,0,0-1.243-.134,5.63,5.63,0,0,1,1.265-.021,17.66,17.66,0,0,1,2.739.526l1.439.348a9.95,9.95,0,0,1,1.3.362,2.308,2.308,0,0,1,.9.666,2.434,2.434,0,0,1,.242.355Z"/><path class="cls-2" d="M143.112,103.653a40.937,40.937,0,0,1-10.624.11"/><path class="cls-3" d="M143.178,104.148s-.661.067-1.677.123-2.355.081-3.695.033a42.231,42.231,0,0,1-5.318-.542,42.015,42.015,0,0,0,5.313.042c1.323-.076,2.637-.224,3.616-.373s1.629-.274,1.629-.274Z"/><path class="cls-2" d="M148.322,107.441A31.985,31.985,0,0,0,139.235,106c-2.319-.03-4.815.148-6.768-1.1"/><path class="cls-3" d="M148.177,107.919l-.658-.218c-.409-.132-1.009-.314-1.733-.5a31.922,31.922,0,0,0-5.426-.914,44.039,44.039,0,0,1-5.554-.426,7.126,7.126,0,0,1-1.739-.607,4.076,4.076,0,0,1-.446-.256l-.154-.1.159.087a4.015,4.015,0,0,0,.46.227,6.994,6.994,0,0,0,1.748.492,44.084,44.084,0,0,0,5.551.081,32.65,32.65,0,0,1,5.587.59c.755.148,1.378.3,1.818.408l.676.179Z"/><path class="cls-2" d="M65.8,94.974s-.933,9.591-.873,11.232-.605,3.7,2.73,6.488,11.457,3.718,16.3,3.235,9.125-.395,11.153-.847,3.736.022,3.7-1.19a2.481,2.481,0,0,0-1.359-2.138,13.719,13.719,0,0,0-2.787-.972,1.478,1.478,0,0,0-1.495-1.475c-1.5-.065-4.551-1.866-4.551-1.866s2.175.142-.709-1.031-7.095-.173-8.309-1.512-1.818-5.084-1.906-6.726a33.611,33.611,0,0,1,.128-3.972"/><path class="cls-3" d="M65.8,94.974l-.464,7.063c-.067,1.176-.137,2.356-.159,3.525,0,.56.021,1.186,0,1.765A5.43,5.43,0,0,0,67.17,111.8c.2.2.429.38.642.571.194.157.466.34.7.509a11.7,11.7,0,0,0,1.5.78,26.134,26.134,0,0,0,6.733,1.656c1.156.151,2.322.224,3.485.261a27.614,27.614,0,0,0,3.479-.1c2.349-.242,4.73-.373,7.078-.494,1.174-.069,2.353-.108,3.486-.254.551-.065,1.118-.224,1.755-.286.605-.073,1.217-.082,1.743-.158a1.093,1.093,0,0,0,.528-.176c.042-.034.07-.17.031-.475a1.738,1.738,0,0,0-.694-1.186,3.893,3.893,0,0,0-.647-.441,7.108,7.108,0,0,0-.764-.305c-.539-.185-1.1-.348-1.659-.493l-.329-.085-.007-.347a1.383,1.383,0,0,0-.055-.315,1.308,1.308,0,0,0-.137-.3.931.931,0,0,0-.488-.362,1.664,1.664,0,0,0-.345-.062c-.184-.024-.293-.023-.481-.062a6.275,6.275,0,0,1-.957-.267,19.851,19.851,0,0,1-3.34-1.637l-1.544-.906,1.77.174a2.044,2.044,0,0,0,.5-.017.3.3,0,0,0-.12.308c.011.078.054.09.01.058a1.39,1.39,0,0,0-.212-.148,9,9,0,0,0-1.2-.558,7.092,7.092,0,0,0-1.282-.362,13.438,13.438,0,0,0-1.341-.19c-.907-.089-1.831-.109-2.766-.181a9.922,9.922,0,0,1-1.414-.189,2.623,2.623,0,0,1-1.367-.661,4.341,4.341,0,0,1-.753-1.257,10.327,10.327,0,0,1-.452-1.342,20.572,20.572,0,0,1-.529-2.749,16.259,16.259,0,0,1-.128-2.789c.04-.928.12-1.851.225-2.771A24.186,24.186,0,0,0,78,99.721a20.081,20.081,0,0,0,.631,2.678,9.8,9.8,0,0,0,.488,1.27,3.943,3.943,0,0,0,.7,1.088,2.15,2.15,0,0,0,1.118.486,9.441,9.441,0,0,0,1.34.142c.914.047,1.843.043,2.782.111a13.894,13.894,0,0,1,1.411.164,7.875,7.875,0,0,1,1.4.356,9.608,9.608,0,0,1,1.334.582,1.968,1.968,0,0,1,.357.246.662.662,0,0,1,.216.33.5.5,0,0,1-.311.559,2.151,2.151,0,0,1-.87.1l.225-.731a21.984,21.984,0,0,0,3.222,1.507,5.742,5.742,0,0,0,.8.22c.109.029.305.036.422.052a2.44,2.44,0,0,1,.549.1,1.8,1.8,0,0,1,.95.7,2.128,2.128,0,0,1,.252.525,2.092,2.092,0,0,1,.1.58l-.336-.432c.587.148,1.158.307,1.736.5a7.668,7.668,0,0,1,.88.345,4.733,4.733,0,0,1,.819.543,2.682,2.682,0,0,1,1.04,1.791,1.473,1.473,0,0,1-.258,1.21,1.814,1.814,0,0,1-1.078.481c-.642.1-1.213.1-1.779.179-.539.052-1.114.217-1.734.3-1.207.159-2.387.225-3.569.28-2.364.1-4.7.21-7.044.432a29.115,29.115,0,0,1-3.591.071c-1.193-.049-2.385-.134-3.567-.3a24.477,24.477,0,0,1-6.934-1.832,12.183,12.183,0,0,1-1.612-.9c-.24-.187-.457-.336-.717-.554-.221-.209-.456-.4-.664-.622a6.751,6.751,0,0,1-1.9-3.127,6.627,6.627,0,0,1-.154-1.831c.036-.6.016-1.153.049-1.772.072-1.188.191-2.36.307-3.536C65.241,99.661,65.5,97.316,65.8,94.974Z"/><path class="cls-2" d="M94.666,110.782a2.16,2.16,0,0,0-.665-.27,18.3,18.3,0,0,0-7.156.014c-.271.036-.588.106-.7.357"/><path class="cls-3" d="M94.393,111.2l-.056-.042a1.214,1.214,0,0,0-.174-.1,6.308,6.308,0,0,0-.878-.281,12.538,12.538,0,0,0-2.9-.363c-1.081-.022-2.173.055-2.991.113a4.3,4.3,0,0,0-.972.121.447.447,0,0,0-.277.232.482.482,0,0,1,.259-.271,4.307,4.307,0,0,1,.97-.237c.807-.151,1.887-.354,2.992-.457a13.094,13.094,0,0,1,3.089.037,6.934,6.934,0,0,1,1.04.21,2.088,2.088,0,0,1,.33.136l.11.062Z"/><path class="cls-2" d="M89.551,107.84a20.951,20.951,0,0,0-9.913.092"/><path class="cls-3" d="M89.444,108.329s-.605-.182-1.493-.369a20.83,20.83,0,0,0-3.36-.419,21.09,21.09,0,0,0-3.411.142c-.929.116-1.542.249-1.542.249s.6-.193,1.516-.4a21.279,21.279,0,0,1,3.433-.488,21.65,21.65,0,0,1,3.494.085c.966.1,1.577.226,1.577.226Z"/><ellipse class="cls-3" cx="54.904" cy="48.806" rx="1.242" ry="1.907"/></svg>