<svg id="word" xmlns="http://www.w3.org/2000/svg" viewBox="0 0 160 160"><defs><style>.cls-1{fill:#f499a9;}.cls-1,.cls-10,.cls-11,.cls-12,.cls-13,.cls-14,.cls-15,.cls-16,.cls-17,.cls-18,.cls-19,.cls-2,.cls-20,.cls-21,.cls-22,.cls-25,.cls-26,.cls-27,.cls-28,.cls-29,.cls-3,.cls-30,.cls-31,.cls-32,.cls-33,.cls-34,.cls-35,.cls-36,.cls-37,.cls-38,.cls-39,.cls-4,.cls-40,.cls-41,.cls-42,.cls-5,.cls-6,.cls-7,.cls-8{stroke:#9d4b9c;}.cls-1,.cls-11,.cls-12,.cls-13,.cls-14,.cls-15,.cls-16,.cls-17,.cls-18,.cls-19,.cls-2,.cls-20,.cls-25,.cls-26,.cls-27,.cls-28,.cls-29,.cls-3,.cls-30,.cls-31,.cls-32,.cls-33,.cls-34,.cls-35,.cls-36,.cls-37,.cls-38,.cls-39,.cls-4,.cls-40,.cls-41,.cls-42,.cls-5,.cls-6,.cls-7,.cls-8{stroke-miterlimit:10;}.cls-1,.cls-11,.cls-12,.cls-13,.cls-14,.cls-15,.cls-16,.cls-17,.cls-18,.cls-19,.cls-2,.cls-20,.cls-21,.cls-22,.cls-25,.cls-26,.cls-27,.cls-28,.cls-29,.cls-3,.cls-30,.cls-31,.cls-32,.cls-33,.cls-34,.cls-35,.cls-36,.cls-37,.cls-38,.cls-39,.cls-4,.cls-40,.cls-41,.cls-42,.cls-5,.cls-6,.cls-7,.cls-8{stroke-width:0.49px;}.cls-2{fill:#793641;}.cls-3{fill:#b87473;}.cls-4{fill:#b65968;}.cls-5{fill:#8f5959;}.cls-6{fill:#e28e9e;}.cls-7{fill:#f6921e;}.cls-8{fill:#fde6d8;}.cls-9{fill:#231f20;}.cls-10{fill:none;stroke-width:0.346px;}.cls-11{fill:#00a9e5;}.cls-12{fill:#f2869d;}.cls-13{fill:#da4c73;}.cls-14{fill:#d293c0;}.cls-15{fill:#75cac3;}.cls-16{fill:#009599;}.cls-17{fill:#fff357;}.cls-18{fill:#b7d565;}.cls-19{fill:#6b9c51;}.cls-20{fill:#8bc53f;}.cls-21,.cls-42{fill:#f9ec31;}.cls-22{fill:#ffd340;}.cls-23{fill:#00b3f0;opacity:0.23;}.cls-24{fill:#9d4b9c;}.cls-25{fill:#5da1c8;}.cls-26{fill:#6cbbe8;}.cls-27{fill:#f49fc4;}.cls-28{fill:#0083b2;}.cls-29{fill:#ec2a90;}.cls-30{fill:#e6e75e;}.cls-31{fill:#50c7ed;}.cls-32{fill:#7956a3;}.cls-33{fill:#ffc735;}.cls-34{fill:#f7b3c1;}.cls-35{fill:#5d6bb1;}.cls-36{fill:#fff;}.cls-37{fill:#37b34a;}.cls-38{fill:#ec1c24;}.cls-39{fill:#f071aa;}.cls-40{fill:#dfe341;}.cls-41{fill:#1b75bb;}</style></defs><path class="cls-1" d="M98.552,101.133c0,4.349-2.235,7.876-4.99,7.876s-4.99-3.527-4.99-7.876,2.234-7.878,4.99-7.878S98.552,96.782,98.552,101.133Z"/><path class="cls-2" d="M96.9,101.4c0,3.27-1.624,5.92-3.628,5.92s-3.629-2.65-3.629-5.92,1.624-5.921,3.629-5.921S96.9,98.127,96.9,101.4Z"/><path class="cls-3" d="M7.848,53.2V81.915s6.987,8.492,10.55,13.408,13.7,15.418,16.989,12.625c2.164-1.84,1.371-38.879,1.371-38.879Z"/><path class="cls-4" d="M8.9,53.278,29.725,69.813l70.151-6.107s3.2-3.352-12.97-8.045a51.93,51.93,0,0,1-15.894-7.6Z"/><polygon class="cls-5" points="13.739 54.209 31.278 67.281 35.113 68.51 29.725 69.813 7.985 52.98 13.739 54.209"/><polygon class="cls-5" points="70.738 48.846 94.304 60.689 101.977 61.694 70.738 46.723 70.738 48.846"/><polygon class="cls-5" points="7.985 52.98 70.738 46.723 70.738 48.846 13.739 54.209 7.985 52.98"/><path class="cls-1" d="M16.622,91c.523,4.453-.794,8.2-2.94,8.366S9.37,96.057,8.847,91.6s.793-8.2,2.939-8.366S16.1,86.544,16.622,91Z"/><path class="cls-2" d="M15.366,91.37c.393,3.344-.554,6.158-2.115,6.28s-3.145-2.492-3.538-5.84.552-6.159,2.113-6.281S14.972,88.022,15.366,91.37Z"/><path class="cls-1" d="M28.793,105.26c.448,4.334-1.416,8-4.161,8.19s-5.335-3.173-5.783-7.507,1.416-8,4.162-8.19S28.345,100.926,28.793,105.26Z"/><path class="cls-2" d="M27.174,105.638c.336,3.256-1.009,6.009-3.007,6.146s-3.889-2.393-4.225-5.65,1.009-6.011,3.008-6.149S26.838,102.379,27.174,105.638Z"/><polygon class="cls-1" points="129.735 88.167 128.668 74.329 132.668 72.729 133.601 87.435 129.735 88.167"/><polygon class="cls-1" points="112.711 90.859 111.645 77.021 115.644 75.421 116.578 88.097 112.711 90.859"/><path class="cls-6" d="M122.822,104.5l-1.679,18.588a3.247,3.247,0,0,0,3.279,2.61c3.019-.017,3-3.2,3-3.2v-18Z"/><path class="cls-6" d="M133.275,101.9l-.341,10.856a3.139,3.139,0,0,0,3.272,2.342c3.321.043,3.272-2.643,3.272-2.643L138.62,101.9Z"/><path class="cls-6" d="M110.024,96.1l-1.412,17.921s.012,2.677,2.411,2.877a3.118,3.118,0,0,0,3.2-1.8V100.026Z"/><path class="cls-6" d="M143.619,101.9l.942,16.575a3.547,3.547,0,0,0,4.058,2.022,3.238,3.238,0,0,0,2.6-2.676l-2.2-18.521Z"/><path class="cls-3" d="M109.224,90.1v6.919s11.2,9.293,14.7,9.486,27.386-4.771,27.341-5.989,0-5.416,0-5.416Z"/><path class="cls-1" d="M137.075,85.028s7.6,3.139,11.6,5.831c2.951,1.986,4.617,4.644,2.581,5.244s-22.433,5.8-29.232,3.2-14-7-12.8-9.2S124.676,84.028,137.075,85.028Z"/><path class="cls-3" d="M107.379,64.889s1.733,11.865,2.4,12.665a2.679,2.679,0,0,0,1.867.8s-4.666,0-5.466-1.466-1.6-13.065-1.6-13.065Z"/><path class="cls-1" d="M104.579,63.1c.467-.879,20.63-5.462,25.9-5.462s4.033.792,4.033.792l-27.135,7S104.112,63.976,104.579,63.1Z"/><path class="cls-1" d="M113.111,78.354l20.6-5.129s1.606-.3,1.6-3.333c0-1.565-.8-11.465-.8-11.465s-27.555,3.666-27.129,6.462,1.729,11.917,2.4,12.665A2.6,2.6,0,0,0,113.111,78.354Z"/><path class="cls-7" d="M117.464,87.651c-2.4.114-3.955,3.356-2.517,6.473s6.113,4.915,6.713,3.716a3.369,3.369,0,0,1,2.517-1.8,16.984,16.984,0,0,0,3.237-1.438s-3.116-4.556-3.716-4.8-1.319-.6-1.319-.6A9.131,9.131,0,0,0,117.464,87.651Z"/><path class="cls-8" d="M120.581,97.6c-3.53-.885-6.8-5.891-3.6-7.821,3.659-2.208,6.518,4.114,4.5,6.442C121.48,96.222,121.06,97.721,120.581,97.6Z"/><path class="cls-7" d="M123.1,63.916s-3.836-3.476-6.713-2.038-5.513,6.834-1.318,8.751,5.873.24,5.873.24Z"/><path class="cls-8" d="M120.581,65.235s-3.356-2.038-3.716.119.84,3.957,1.8,3.118A11.281,11.281,0,0,0,120.581,65.235Z"/><path class="cls-7" d="M140.092,63.316s3.836-3.476,6.713-2.037,5.514,6.833,1.318,8.751-5.873.239-5.873.239Z"/><path class="cls-8" d="M142.61,64.635s3.356-2.038,3.715.12-.839,3.956-1.8,3.117A11.27,11.27,0,0,1,142.61,64.635Z"/><path class="cls-7" d="M138.682,93.525s3.836,1.2,4.915,2.158,3.117,1.917,4.2.6,3.663-7.568,2.516-8.931c-2.382-2.832-5.514-1.019-6.353-.06s-3.356-.479-3.356-.479Z"/><path class="cls-7" d="M123.7,77.822s-7.313,3.715-7.672,4.555-1.2,3,.959,4.2,6.593-.839,6.593-1.318a15.635,15.635,0,0,0-.12,2.278,5.315,5.315,0,0,1-.374,1.477,3.366,3.366,0,0,0,.014,2.718,7.08,7.08,0,0,0,5.994,3.956,37.59,37.59,0,0,0,8.151-.959c1.079-.36,3.118.6,3.357-2.758s.24-8.869.24-9.469.359,4.315,3.116,4.794,4.435-.6,4.316-2.517-8.152-8.031-8.152-8.031Z"/><path class="cls-7" d="M141.319,76.024s4.8-11.029-4.795-14.505S122.38,62.6,121.181,66.074s-2.637,11.987,5.394,13.665S139.762,78.661,141.319,76.024Z"/><path class="cls-8" d="M137.364,73.506s-3.957-2.4-6.354-2.278-5.394,3.836-2.757,5.634S140,79.021,137.364,73.506Z"/><path class="cls-9" d="M134.966,72.008c0,.827-1.02,1.5-2.278,1.5s-2.277-.671-2.277-1.5,1.02-1.5,2.277-1.5S134.966,71.18,134.966,72.008Z"/><path class="cls-9" d="M127.226,69.91a1.149,1.149,0,1,1-1.134-.959A1.057,1.057,0,0,1,127.226,69.91Z"/><path class="cls-10" d="M124.537,67.153a2.435,2.435,0,0,1,3.836-.839"/><path class="cls-11" d="M130.531,82.377a8,8,0,0,1-1.2,2.757c-.84,1.078-1.918,2.157-3,.839s-3.717-4.8-2.877-6.713a2.7,2.7,0,0,1,3.956-1.438,26.054,26.054,0,0,1,2.517,1.438s1.2.12,1.8.12a13,13,0,0,0,1.8-.24s7.193-1.2,7.552-1.318a4.1,4.1,0,0,0-.959,2.517c-.12,2.158.6,3.356-1.2,4.555s-2.037,1.679-3.116.839a11.37,11.37,0,0,1-2.158-2.757Z"/><path class="cls-8" d="M145.23,92.745s.045-4.555,1.3-4.974,3.416.06,3.176,1.678-1.693,6.713-3.581,6.263C145.237,95.5,144.99,93.7,145.23,92.745Z"/><path class="cls-10" d="M134.238,66.077a2.436,2.436,0,0,1,3.848.782"/><path class="cls-10" d="M128.253,74.285c2.744,1.855,5.724,2.372,8.212.06"/><path class="cls-10" d="M129.946,79.17a3.415,3.415,0,0,0,.629,3.371"/><path class="cls-10" d="M133.362,79.08c.747.61,1.11,3.123.36,3.866"/><path class="cls-10" d="M124.641,80.293c1.037-1.313,3.427-.535,4.72,0"/><path class="cls-10" d="M138.037,80.2a5.16,5.16,0,0,0-3.731.674"/><path class="cls-10" d="M126.8,82.451a4.229,4.229,0,0,1,3.147-1.214"/><path class="cls-10" d="M134.216,81.642c.833.747,2.084.709,2.922,1.618"/><path class="cls-10" d="M128.687,84.159a16.746,16.746,0,0,1,1.349-2.292"/><path class="cls-10" d="M135.565,83.8a7.385,7.385,0,0,1-1.394-1.394"/><path class="cls-9" d="M137.944,69.305a1.149,1.149,0,1,1-1.134-.959A1.058,1.058,0,0,1,137.944,69.305Z"/><polygon class="cls-12" points="54.489 56.233 54.489 67.876 65.085 64.393 65.085 53.678 54.489 56.233"/><polygon class="cls-13" points="46.492 52.683 46.492 64.492 54.489 67.876 54.489 56.233 46.492 52.683"/><polygon class="cls-14" points="46.492 52.683 56.276 50.435 65.085 53.678 54.489 56.452 46.492 52.683"/><polygon class="cls-15" points="84.013 52.046 96.556 59.988 98.417 48.925 86.638 41.582 84.013 52.046"/><polygon class="cls-16" points="75.683 57.983 87.512 65.472 96.556 59.988 84.013 52.046 75.683 57.983"/><polygon class="cls-17" points="75.975 58.118 78.682 47.701 86.931 41.717 84.306 52.181 75.975 58.118"/><polygon class="cls-18" points="70.966 52.869 71.013 64.952 83.43 62.425 83.385 50.756 70.966 52.869"/><polygon class="cls-19" points="60.871 49.5 61.621 61.477 71.013 64.952 70.966 52.869 60.871 49.5"/><polygon class="cls-20" points="60.871 49.5 72.115 46.788 83.385 50.756 70.966 52.869 60.871 49.5"/><path class="cls-21" d="M64.213,28.959s-.256-7.252,6.316-6.761c4.6.344,5.5,4.7,5.5,6.048s-2.616,8.4,1.823,9.989a6.407,6.407,0,0,0,7.136-1.9,13.4,13.4,0,0,1,.634,3.8c-.159,1.2-3.171,8.965-7.453,9.678s-8.8,1.269-11.813-2.14S62.31,37.6,63.261,35.143A20.955,20.955,0,0,0,64.213,28.959Z"/><path class="cls-22" d="M69.525,30.148s-1.11-2.378-2.537-1.665-1.982.159-2.775.476-1.586-.213-2.775.29-.4,2.247-.4,2.247a2.335,2.335,0,0,0,1.506,2.379,11.064,11.064,0,0,0,5.47.475,6.266,6.266,0,0,0,2.855-1.427s1.189,0,.475-.793S69.525,30.148,69.525,30.148Z"/><path class="cls-23" d="M75.471,40.132s0-1.818-1.665-1.421-2.379,2.933-.872,4.915,3.092,2.458,5.153,1.744S81.5,41.486,81.5,41.486"/><path class="cls-24" d="M61.22,31.1a22.517,22.517,0,0,0,4.281,1.75,9.694,9.694,0,0,0,4.585-.216,9.812,9.812,0,0,1-4.634.456,22.919,22.919,0,0,1-4.431-1.542Z"/><ellipse class="cls-24" cx="66.243" cy="27.219" rx="0.639" ry="0.687"/><ellipse class="cls-24" cx="71.469" cy="27.663" rx="0.639" ry="0.687"/><polygon class="cls-25" points="50.409 60.831 46.117 67.63 41.651 69.47 47.11 60.178 50.409 60.831"/><polygon class="cls-26" points="23.126 43.244 18.377 51.328 41.651 69.47 47.11 60.178 23.126 43.244"/><polygon class="cls-27" points="33.26 52.965 30.455 57.739 26.679 54.835 29.447 50.125 33.26 52.965"/><path class="cls-11" d="M54.135,57.113s-.918-.625-2.695.214-4.643,4.55-4.643,4.55L21.416,42.24s1.968-3.81,4.552-3.833,6.572,2.662,6.572,2.662Z"/><path class="cls-28" d="M54.336,60.417,46.8,61.877s2.368-4.626,4.378-5.047a3.456,3.456,0,0,1,3.2.6A19.159,19.159,0,0,1,54.336,60.417Z"/><path class="cls-29" d="M35.071,41.866,34.051,43.6a2.122,2.122,0,0,1-1.888.153,1.287,1.287,0,0,1-.528-1l.825-2.425Z"/><ellipse class="cls-30" cx="33.597" cy="41.386" rx="1.218" ry="1.514" transform="translate(-19.105 49.39) rotate(-59.566)"/><ellipse class="cls-31" cx="27.626" cy="61.809" rx="3.556" ry="3.803" transform="translate(-39.661 54.319) rotate(-59.566)"/><ellipse class="cls-32" cx="27.405" cy="62.258" rx="2.467" ry="2.437" transform="translate(-40.157 54.351) rotate(-59.566)"/><ellipse class="cls-33" cx="27.373" cy="62.239" rx="0.929" ry="0.923" transform="translate(-40.156 54.314) rotate(-59.566)"/><polygon class="cls-27" points="27.739 48.791 24.935 53.565 21.159 50.661 23.926 45.951 27.739 48.791"/><ellipse class="cls-31" cx="20.065" cy="55.002" rx="3.359" ry="3.508" transform="translate(-37.522 44.441) rotate(-59.566)"/><ellipse class="cls-32" cx="19.856" cy="55.425" rx="2.33" ry="2.248" transform="translate(-37.991 44.47) rotate(-59.566)"/><ellipse class="cls-33" cx="19.826" cy="55.408" rx="0.878" ry="0.851" transform="translate(-37.99 44.436) rotate(-59.566)"/><polygon class="cls-27" points="38.866 57.514 36.061 62.287 32.285 59.384 35.052 54.674 38.866 57.514"/><polygon class="cls-27" points="43.999 61.37 41.194 66.144 37.419 63.241 40.186 58.531 43.999 61.37"/><ellipse class="cls-31" cx="34.99" cy="67.602" rx="3.556" ry="3.803" transform="translate(-41.022 63.528) rotate(-59.566)"/><ellipse class="cls-32" cx="34.769" cy="68.051" rx="2.467" ry="2.437" transform="matrix(0.507, -0.862, 0.862, 0.507, -41.518, 63.559)"/><ellipse class="cls-33" cx="34.737" cy="68.032" rx="0.929" ry="0.923" transform="translate(-41.517 63.522) rotate(-59.566)"/><path class="cls-29" d="M47.364,51.479l-1.019,1.735a2.124,2.124,0,0,1-1.889.153,1.287,1.287,0,0,1-.528-1l.825-2.425Z"/><ellipse class="cls-30" cx="45.89" cy="50.999" rx="1.218" ry="1.514" transform="translate(-21.327 64.733) rotate(-59.566)"/><path class="cls-1" d="M29.633,69.069s21.557-1.938,24.115-2.235,36.444-5.392,39.871-5.7c10-.893,8.084.633,8.084,5.7s-2.192,28.712-1.1,32.734c1.03,3.781-23.931,4.208-32.336,5.7s-37.543,8.715-37.815-.149C30.272,99.153,29.633,69.069,29.633,69.069Z"/><polygon class="cls-34" points="31.003 66.834 95.674 60.689 102.16 61.843 29.541 69.999 30.866 66.945 31.003 66.834"/><path class="cls-35" d="M58.183,105.9c.729-.132,1.448-.313,2.163-.511a74.477,74.477,0,0,0,11.116-4.3,24.909,24.909,0,0,0,5.762-3.346c-.258-.059-.506-.108-.739-.143-1.923-.291-3.061,0-4.807-.4-.175-.04-.343-.084-.507-.13l-.952.553c-.994.577-1.989,1.155-3.026,1.649-.927.442-1.884.815-2.844,1.178q-2.1.792-4.215,1.523a17.412,17.412,0,0,1-3.362.9c-.083.168-.15.3-.192.367-.2.345-1.831,1.893-2.669,2.886A16.989,16.989,0,0,0,58.183,105.9Z"/><path class="cls-36" d="M64.83,98.026c.537-.179,1.086-.327,1.611-.537a14.456,14.456,0,0,0,1.518-.751l1.108-.6a2.28,2.28,0,0,1-.753-.831,1.107,1.107,0,0,0-1.052-.728l-.021-.042A24.61,24.61,0,0,1,59.8,97.6a6.847,6.847,0,0,1-1.574.213l-.08.188c-.109.255-.073.364-.073,1.273a3.933,3.933,0,0,1-.239,1.07,11.225,11.225,0,0,0,3.2-.79C62.307,99.061,63.536,98.456,64.83,98.026Z"/><path class="cls-37" d="M64.349,100.447c.96-.363,1.917-.736,2.844-1.178,1.037-.494,2.032-1.072,3.026-1.649l.952-.553a6.757,6.757,0,0,1-2.1-.931l-1.108.6a14.456,14.456,0,0,1-1.518.751c-.525.21-1.074.358-1.611.537-1.294.43-2.523,1.035-3.8,1.524a11.225,11.225,0,0,1-3.2.79,22.3,22.3,0,0,1-1.061,2.528,17.412,17.412,0,0,0,3.362-.9Q62.252,101.238,64.349,100.447Z"/><path class="cls-38" d="M65.879,92.926a1.723,1.723,0,0,0-.168.051l-.327-.983c-.145-.436-1.091-1.091-2.639-.836S58.29,92.8,57.89,93.522s.619,2.329.619,2.329-.024.008-.062.025a20.819,20.819,0,0,0,4.584-1.359A7.931,7.931,0,0,0,65.879,92.926Z"/><path class="cls-39" d="M59.8,97.6a24.61,24.61,0,0,0,7.442-3.061c-.094-.194-.492-1.029-.62-1.413-.1-.306-.508-.254-.742-.2a7.931,7.931,0,0,1-2.848,1.591,20.819,20.819,0,0,1-4.584,1.359,2.373,2.373,0,0,0-.484.3c-.328.255.291,1.564.291,1.564l-.029.067A6.847,6.847,0,0,0,59.8,97.6Z"/><path class="cls-40" d="M71.31,114.656a42.25,42.25,0,0,1-17.988,3.433,11.633,11.633,0,0,0,4.475,1.844c2.344.364,8.1-1.055,8.661-1.091s.781.327,2.164.545c.323.052.578.09.781.12a3.273,3.273,0,0,0,.985-.186c.3-.113.579-.282.878-.4a11.434,11.434,0,0,1,1.274-.357c.11-.157.369-.067.629-.374.4-.473,1.678-2.365,1.678-2.365a10.645,10.645,0,0,1,1.342-.727c1.164-.582,6.657-5.093,7.675-6.657a7.155,7.155,0,0,0,.764-3.212A40.291,40.291,0,0,1,71.31,114.656Z"/><path class="cls-38" d="M69.128,110.3a40.159,40.159,0,0,0,13.665-9.812c-.088-.087-.179-.176-.275-.272a12.809,12.809,0,0,0-5.294-2.476,24.909,24.909,0,0,1-5.762,3.346,74.477,74.477,0,0,1-11.116,4.3c-.715.2-1.434.379-2.163.511a16.989,16.989,0,0,1-4.272.226,3.362,3.362,0,0,0-.459.643c-.327.728-2.947,4.329-2.947,5.857a5.612,5.612,0,0,0,.114,1.09A42.153,42.153,0,0,0,69.128,110.3Z"/><path class="cls-38" d="M70.388,119.321a3.273,3.273,0,0,1-.985.186c.667.1.767.1.767.1s1.617,1.891,2.09,1.746.4-1.273.254-2.219c-.051-.331-.034-.487.026-.572a11.434,11.434,0,0,0-1.274.357C70.967,119.039,70.689,119.208,70.388,119.321Z"/><path class="cls-41" d="M71.31,114.656a40.291,40.291,0,0,0,13.318-9.43,14.4,14.4,0,0,0-.049-2.327,39.976,39.976,0,0,1-14.037,10.235,42.083,42.083,0,0,1-18.769,3.4c.074.12.149.236.224.347a5.179,5.179,0,0,0,1.325,1.212A42.25,42.25,0,0,0,71.31,114.656Z"/><path class="cls-36" d="M70.542,113.134A39.976,39.976,0,0,0,84.579,102.9a2.526,2.526,0,0,0-.1-.5c-.2-.534-.709-.948-1.69-1.911A40.159,40.159,0,0,1,69.128,110.3a42.153,42.153,0,0,1-18.509,3.411,8.835,8.835,0,0,0,1.154,2.819A42.083,42.083,0,0,0,70.542,113.134Z"/><path class="cls-24" d="M59.149,87.72,60.8,92.4s.994,1.145,1.245,0-1.8-5.392-1.8-5.392Z"/><path class="cls-42" d="M54.422,83.692l1.71,2.4s1.055,2.328,2.364,2.547,2.8-.219,3.2-.873-.182-6.33-.182-6.33a10.493,10.493,0,0,0-3.386.509C56.386,82.528,54.167,83.334,54.422,83.692Z"/></svg>