<svg id="word" xmlns="http://www.w3.org/2000/svg" xmlns:xlink="http://www.w3.org/1999/xlink" viewBox="0 0 160 160"><defs><style>.cls-1,.cls-8{fill:none;}.cls-2{clip-path:url(#clip-path);}.cls-12,.cls-3,.cls-6,.cls-7,.cls-8,.cls-9{stroke:#9c4c9c;}.cls-3,.cls-6{stroke-miterlimit:10;}.cls-12,.cls-3,.cls-7,.cls-8,.cls-9{stroke-width:0.21px;}.cls-3{fill:url(#radial-gradient);}.cls-4{fill:#43632e;}.cls-5{fill:#194f27;}.cls-6{fill:#f06b92;stroke-width:0.421px;}.cls-7{fill:#f9b717;}.cls-9{fill:#ea2127;}.cls-10{opacity:0.17;}.cls-11{fill:#fff;}.cls-12{fill:#9e489a;}.cls-13{fill:#d09633;stroke:#221f1f;stroke-width:0.186px;}.cls-14{fill:#fdf5ac;}.cls-15{fill:#b0e2f9;}.cls-16{fill:#f59183;}</style><clipPath id="clip-path"><rect class="cls-1" x="14" y="14" width="132" height="132"/></clipPath><radialGradient id="radial-gradient" cx="70.326" cy="37.774" r="121.797" gradientUnits="userSpaceOnUse"><stop offset="0" stop-color="#8fc64f"/><stop offset="1" stop-color="#51753f"/></radialGradient></defs><rect class="cls-1" x="14" y="14" width="132" height="132"/><g class="cls-2"><path class="cls-3" d="M25.792,115.841s-31.739,9.974-39.849,11.971-36.326-.669-29.976,4.32,4.233,3.994,10.228,5.327,8.113-2.666,10.576.657-5.991.665-2.821,5.325,10.937-.666,17.635-1,8.111-1.663,4.236.667-15.876,7.646-10.934,8.305,10.223-1.326,10.581,0-3.883,3.994,3.879,3,6.342-1,9.168-3.327,3.878-3.656,8.109-4.656,6.7-4.657,4.228-1-12.337,6.318-9.522,9.312c2.83,3,8.821,1,11.289,1.334s-.706,0,5.288,0,7.756-2.328,13.4-.334-4.231,4.322,8.819,3.656,5.994-3.656,16.928-2.328,6.7-.663,13.747,1.661,16.227,5.655,13.757,2-2.822-8.983,2.115-5.989,7.759,3,7.759,3-13.75-10.643-.353-6.323,11.993,5.326,19.745,7.982,9.525,1.663,14.462,1.333,7.4-.667,13.75,1.328,12.7,6.648,9.174,1-14.817-9.308-6-7.977,12.7,3.652,17.278,3.986,3.53-3.323-.351-4.984,5.646.661,11.286,1.661-.84-5.987-6.127-9.649-1.278.67,3.308.67-1.359-1.976.4-3.638,2.062-2.344-5.691-4.008-22.569-6.317-26.8-8.972-16.578-6.988-17.638-9.312-6.337-7.644-1.4-5.65,7.045,4.653,9.164,4.653-2.469-4.988,5.292-.664,19.041,3.653,13.047,0-15.865-10.314-10.231-9.312c5.649,1,1.769,3.329,10.231,3.659s11.286,1.329,8.11-1.327-4.232-1.336,1.411-1.336,10.225,1,5.641-1.331-1.761-2.991,3.527-3.654,13.045.669,6.349-2.328-16.928-5.982-24.338-6.316-17.979-3.989-23.625-9.31,3.177-2.327,3.177-2.327,2.116,5.319,4.582,2.658,6-1.664,8.465-1.664,10.934-1.661,3.521-4.652,19.754.334,12.7-3.324-17.634-3.325-22.921-4.987-19.4-6.985-21.864-9.974-4.935-7.981-1.059-5.318,8.462,5.318,7.756,2.659,1.763-2.659,3.527-2.659S136.171,56,133.351,55s-9.874-1.662-2.815-1,10.925,2.991,13.748.664,3.873-3.328-1.768-4.991-10.577-2.991-17.277-7.973-15.16-8.648-19.747-11.971-7.053-7.32-3.529-5.325,6.35,5.66,3.529,2,.706-6.982,2.821-4.324.7,3.324,4.936,3.991,3.531-.664,2.825-2.325.706-3.656,7.046-1c6.356,2.659,10.584-2.658,2.119-5.323s13.4.336,7.762-2.658-12-4.993-14.463-6.65S107.607,2.8,112.9,3.465s6.7.662,3.177-1.332-6-2.656-11.287-6.646-12.342-7.641-7.408-6.649,8.113,1.99,8.113,1.99-3.529-.994-1.058-1.99a10.836,10.836,0,0,1,4.939-.992c1.4,0,7.047.992,5.991-1.336s-4.932-3.658-8.109-4.986S97.027-24.13,94.912-26.128s-4.228-7.646-1.415-6.318,10.231,4.993,7.411,1-5.29-5.655-9.522-9.969-5.29-10.312-3.876-8.98,4.574,5.322,4.228,1.992S86.8-56.049,86.1-60.366s2.114-.672,4.588.661.348-3.993-3.88-8.979S84.193-80.85,82.781-84.84s-1.155-9.107-2.694-1.282C78.8-79.592,75.515-74,75.515-72s-9.806,8.608-5.818,9.356c2.052.384,10.406-3.04,7.228.281s-12.341,7.649-7.762,9.975c4.594,2.327,7.056-.331,4.594,2.327s-4.937,6.649-8.113,10.308-9.167,9.64-12,10.973c-2.814,1.33-6.695,4.985-.346,4.653s8.818-6.314,9.517-4.32-4.581,5.316-.353,4.988,7.761-5.985,5.994-1-5.994,6.981-11.636,10.3S42.72-1.19,39.544.809s-23.275,11.3-14.1,10.639,17.633-7.657,14.1-3.327-13.4,9.308-5.642,8.643S54,7.788,52.6,12.443s-6.7,9.309-11.286,12.632-28.212,3.987-26.8,8.312,8.11,3.662,11.283,2,4.586,1.988,2.469,3.321-11.637,3-2.821,3,9.522-1.668,13.048-2.331,1.762,1.664,7.049-.336,2.827-1.323-.7,1.332S34.257,43.031,39.9,44.024s11.282.668,5.64,4.326-13.393,5.319-20.8,8.31S11.685,66.967,7.1,67.3-13,70.625-9.83,72.292-.3,69.3.4,71.956s.705,2.988,5.645,2.323,16.215-2.323,10.928.665-20.456,2-14.461,4.993,14.11-1,13.049,1.325-8.459,3.33.358,3S28.613,76.611,28.613,80.6s-3.879,5.65.7,5.321,10.934-6.32,9.529-1.327S27.2,91.238,20.852,92.9s-31.733,5.32-27.506,8.645,12.7,1.993,11.635,3.985-8.107,3.327-3.874,3.99a61.17,61.17,0,0,0,17.28-.33c5.993-.994,13.757-5.319,10.226-.337s-18.686,4.992-15.516,5.66S25.792,115.841,25.792,115.841Z"/><path class="cls-4" d="M57.215-6.646c3.019-1.1,5.168-3.708,8.247-4.67a49.951,49.951,0,0,0-5.649,8.678c6.24-2.5,11.681-6.356,17.051-10.168l-3,14.891q5.644-8.877,10.49-18.143S78.034-6.594,77.521-7.6s1.111-7.645,1.111-8.108-3.759,3.475-6.407,4.787S64.964-5.59,66.331-9.065a30.584,30.584,0,0,1,2.548-5.25s-6.306,2.393-6.9,2.857S57.215-6.646,57.215-6.646Z"/><path class="cls-4" d="M105.948,2.156c-1.55.5-3.2-.35-4.574-1.166L92.8-4.094l9.048,8.329A101.2,101.2,0,0,1,90.576-2.377C93.71,2.294,92.425,8.428,94.8,13.452A166.858,166.858,0,0,1,80.458-6.015S90.676,8,90.847,6.07,88.637.124,88.375-1.652s-.421-5.1,0-4.363,4.864,4.363,4.18,3.359a10.105,10.105,0,0,1-1.281-2.857c0-.231-.756-2.239,1.929-.309s6.357,4.788,7.553,5.56A54.229,54.229,0,0,0,105.948,2.156Z"/><path class="cls-4" d="M85.138,26.752a70.221,70.221,0,0,1-5.832,15.057c-1.285,2.445-3.211,5.134-6.2,5.326a41.554,41.554,0,0,1,3.613-13.862l-4.923,5.5a18.858,18.858,0,0,1-3.631,3.394,7.191,7.191,0,0,1-4.915,1.239,29.768,29.768,0,0,1,5.871-8.332,24.721,24.721,0,0,1-12.011,5.617L54.2,40.044a21.669,21.669,0,0,0,7.774-2.162c4.1-2.008,9.14-5.714,9.14-4.633s-4.955,7.258-4.784,7.644,4.271-3.706,5.894-4.864,7.09-5.251,7.09-5.251-3.261,12.972-3.04,13.127,6.286-12.123,6.286-12.123Z"/><path class="cls-4" d="M128.986,39.552a52.278,52.278,0,0,1-22.465-8.381,50.313,50.313,0,0,1,6.751,10.4l-10.951-4.462c-2.153-.878-4.476-1.9-5.476-3.836a67.8,67.8,0,0,1,4.55,12.907,41.761,41.761,0,0,1-13.02-13.626s8.793,11.117,9.477,9.341-3.218-12.259-3.218-12.259,13.686,10.154,14.047,8.272S103.917,29,103.917,29s7.858,4.247,9.652,5.174S128.986,39.552,128.986,39.552Z"/><path class="cls-4" d="M59.849,11.111c-3.879,5.662-11.306,8.362-16.725,12.874a53.923,53.923,0,0,1,7.122-1.366,40.221,40.221,0,0,0,6.358-1,8.2,8.2,0,0,0,4.988-3.469A42.979,42.979,0,0,1,59.31,29.223c3.223-4.994,9.748-7.622,13.163-12.511q-1.305,6.057-2.793,12.081a81.673,81.673,0,0,0,8.171-9.809A24.622,24.622,0,0,0,80.7,28.993a91.286,91.286,0,0,0,3.843-9.866c.565,4.914,4.787,9.312,10.089,10.511A23.235,23.235,0,0,1,91.618,17.5s-.686,5.941-.6,7.331-.342,1.93-2.05-.618a53.113,53.113,0,0,1-4.354-8.262c-.174-.772-1.455.927-1.967,2.316S81.173,25.3,80.458,24.6s-1.4-8.88-1.228-9.575-5.04,6.255-5.553,7.259-1.964.926-1.452-.618,1.452-9.034,1.452-9.034-4.356,5.328-5.21,6.8-6.065,5.636-6.236,3.706,1.879-8.571,1.879-8.571-7,4.4-8.115,4.787-4.356,1.025-4.356,1.025a21.41,21.41,0,0,0,5.473-4.5A23.6,23.6,0,0,0,59.849,11.111Z"/><path class="cls-4" d="M84.614,49.915A67.159,67.159,0,0,0,101.478,61.98a30.638,30.638,0,0,0-4.793-6.967c3.057,2.122,6.456,4.348,10.309,4.232,0,0-2.48-1.442-3.932-2.291s-9.481-4.787-9.481-4.787,3.763,3.778,2.223,3.781S84.614,49.915,84.614,49.915Z"/><path class="cls-4" d="M35.1,66.964A88.427,88.427,0,0,0,53.15,60.8a57.885,57.885,0,0,0-3.326,6.676,64.066,64.066,0,0,0,11.619-8.326,33.723,33.723,0,0,0-3.356,8.871c3.71-.516,6.493-3.239,8.959-5.8L70.5,58.642c2.483-2.577,5.044-5.287,5.959-8.6,0,0-7.073,9.374-8.866,10.3s-5.894,3.823-5.062,1.68a16.371,16.371,0,0,0,.769-5.212s-6.855,5.849-8.521,6.023.064-3.3.064-3.475-11.339,4-12.172,4.343S35.1,66.964,35.1,66.964Z"/><path class="cls-5" d="M129.2,94.038a43.471,43.471,0,0,1-20.834-4.555c1.137,2.129,3.851,3.09,6.323,3.863a42.984,42.984,0,0,1-18.615-3.483Q100.895,93.4,106,96.607c-10.583-1.947-20.96-5.849-28.8-12.561L87.752,99.672a40.6,40.6,0,0,1-14.8-14.9s7.647,9.785,7.9,8.24-5.8-11.427-5.8-11.427,6.738,5.25,11.1,6.949S98.455,93.94,95.8,91.623s-13.477-7.181-3.622-4.246,15.408,4.4,15.92,4.015-5.808-5.946-2.819-5.174-.085-.077,7.432,2.471,16.823,5.374,16.823,5.374Z"/><path class="cls-5" d="M11.245,124.542a48.629,48.629,0,0,0,13.5-5.62c1.227-.748,2.516-1.7,2.694-3.027a43.894,43.894,0,0,1-2.546,8.577,27.868,27.868,0,0,1,5.861-7.244c1.971-1.746,4.374-3.545,4.531-6.035a22.787,22.787,0,0,1-.227,12.137c7.747-3.274,13.419-10.269,14.54-17.933,0,0-7.869,13.974-9.577,13.357s-4.357-10.347-4.357-10.347-2.562,7.027-4.783,7.335-2.819-1.158-2.819-1.853-2.392,3.166-5.3,4.942S11.245,124.542,11.245,124.542Z"/><path class="cls-5" d="M84.848,115.714a226.826,226.826,0,0,0-14,18.783,8.993,8.993,0,0,1-1.658,2.028,42.423,42.423,0,0,1-5.511,3.743c-4,1.492-5.369.474-9.517,1.574,2.344-.846,3.686-3.038,4.766-5.1a98.628,98.628,0,0,0,4.787-10.628c-3.378,2.142-5.136,5.829-8.188,8.339-4.792,3.938-11.849,4.362-17.85,6.563.9-.215,1.333-1.112,1.64-1.9q2.322-6,4.1-12.147A7.467,7.467,0,0,1,40.565,132a23.508,23.508,0,0,1-5.364,3.154,29.891,29.891,0,0,1-8.8,2.965,23.018,23.018,0,0,0,5.471-7.747L21.726,134.94a17.8,17.8,0,0,1-4.107,1.454c-2.653.476-5.414-.231-8.093.1a30.337,30.337,0,0,0,9.392-1.941c4.7-1.853,12.984-4.757,15.376-5.776s1.452,1.606-.6,3.228-4.015,4.169-1.794,2.7,5.553-3.444,7.347-5.93,5.21-9.821,5.381-6.578-3.673,14.168-2.135,14.535,4.441-.56,8.542-3.494S63.764,123.2,65.815,122.894s-1.709,6.1-2.563,8.34-6.065,6.949-2.477,6.872,6.938-4.029,10.26-8S84.848,115.714,84.848,115.714Z"/><path class="cls-5" d="M128.474,148.742a28.388,28.388,0,0,1-14.417-6.107l6.588,7.134a81.051,81.051,0,0,1-14.811-8.679l7.758,12.543-8.67-4.605c-3.962-2.1-8.276-4.618-9.377-8.65,0,0,8.542,6.531,10.336,7.226s1.794-.463.256-2.934a30.4,30.4,0,0,1-2.648-6.795s10.849,9.266,10.593,7.258-.769-4.633-.769-4.633a55.794,55.794,0,0,0,5.894,4.17C121.77,146.137,128.474,148.742,128.474,148.742Z"/><path class="cls-5" d="M92.418,101.922s11.669,12.628,12.609,11.009-2.9-13.259-2.9-13.259,7.6,6.549,8.2,6.7.854-1.624.769-2.319,3.331,2.625,6.919,3.861,9.636,2.761,9.636,2.761a61.965,61.965,0,0,1-14.274-2.628l4.691,3.943a40.56,40.56,0,0,1-13.438-8.08,37.483,37.483,0,0,1,4.749,14.306c-6.39-4.981-12.895-10.085-17.193-16.648"/><path class="cls-6" d="M52.512,99.21a11.34,11.34,0,1,1-11.34-11.341A11.338,11.338,0,0,1,52.512,99.21Z"/><path class="cls-7" d="M38.969,88.777l.139-2.217a1.124,1.124,0,0,1,1.065-.924c.922-.047,2.123-.047,2.123-.047a.735.735,0,0,1,.6.507,23.861,23.861,0,0,1,.232,2.681S39.757,89.148,38.969,88.777Z"/><path class="cls-8" d="M41.627,83.262s.262-2.5-1.091-1.51c-1.336.976-1.04,1.2-.158,2.605a10.823,10.823,0,0,1,.677,1.245"/><path class="cls-9" d="M37.73,83.321a12.25,12.25,0,0,1-2.108-.465,2.681,2.681,0,0,1-1.269-1.543,3.277,3.277,0,0,0-1.083.332.924.924,0,0,0-.247,1.2,1.863,1.863,0,0,0,1.454,1.077,18.562,18.562,0,0,0,3.4,0c1.5,0,2.547-.3,1.57-.506A15.979,15.979,0,0,0,37.73,83.321Z"/><path class="cls-9" d="M42.679,83.54a14.7,14.7,0,0,0,3.275-1.108c.518-.457.1-1.037.964-1.037s1.985.539,1.764,1.245-.264,1.075-1.223,1.283A26.452,26.452,0,0,1,42.679,83.54Z"/><path class="cls-9" d="M40.192,82.35A16.184,16.184,0,0,1,37.7,79.821c-.764-1.117-1.751-1.947-2.784-1.782s-.367.682-1.306,1.823a3.766,3.766,0,0,0-.738,2.736c.1.248.221-.788.91-.994s.791-.167,1.824.411,2.07.831,2.636,1.123a9.227,9.227,0,0,0,2.142.454Z"/><path class="cls-9" d="M41.4,82.432a8.58,8.58,0,0,0,2.072-2.238,5.476,5.476,0,0,1,2.855-2.363c.69-.165.665-.29,1.084.873s1.233,3.191,1.306,3.646-.467-.375-.862-.581-.96-.124-2.168.165-1.579.912-2.539,1.367a2.858,2.858,0,0,1-1.945.127Z"/><path class="cls-9" d="M41.719,83.428a22.437,22.437,0,0,0,4.211,0c1.43-.25,1.577.247,2.291.87s.763-.085,1.627,2.444a13.064,13.064,0,0,1,.86,3.563s-1.181-2.736-1.772-2.857-.887-.913-.788.121a24.077,24.077,0,0,1-.591,4.147c-.075.536.073-.248-.37-2.446s-.074-3.025-.96-4.02a2.55,2.55,0,0,0-2.243-1.037A7.99,7.99,0,0,1,41.719,83.428Z"/><path class="cls-9" d="M39.725,83.725a10.4,10.4,0,0,0-3.7.9,3.789,3.789,0,0,0-1.43,3.2A12.54,12.54,0,0,1,33.983,92c-.391.664.025-1.118-.1-2.484s-.22-2.528-.911-1.782A18.289,18.289,0,0,0,31.2,90.679a24.844,24.844,0,0,1,.762-3.313c.518-1.66,1.083-2.74,2.142-3.068a35.154,35.154,0,0,1,4.158-.664Z"/><path class="cls-9" d="M40.019,82.059a3.545,3.545,0,0,0-.221.868,4.5,4.5,0,0,1-.1.748l2.414.208s-.149-1.159-.2-1.412a.756.756,0,0,0-.3-.412A4.912,4.912,0,0,0,40.019,82.059Z"/><g class="cls-10"><path class="cls-11" d="M33.347,98.407a5.808,5.808,0,0,1,1.36-3.769c.073-.1.147-.209.22-.315L33.5,93.063a11.714,11.714,0,0,0-1.624,4.853A4.024,4.024,0,0,0,33.347,98.407Z"/><path class="cls-11" d="M33.8,99.049a6.459,6.459,0,0,0,.994,4.017l1.727-.8a3.559,3.559,0,0,1-.8-3.244c.026-.092.051-.182.076-.272a9.819,9.819,0,0,1-2,.075C33.8,98.9,33.8,98.975,33.8,99.049Z"/><path class="cls-11" d="M33.8,98.456a10.348,10.348,0,0,0,2.117-.111,21.424,21.424,0,0,1,.856-2.386l-1.5-1.325c-.055.078-.109.156-.164.233A5.526,5.526,0,0,0,33.8,98.456Z"/><path class="cls-11" d="M34.435,103.235a6.832,6.832,0,0,1-1.09-4.263c0-.066,0-.135,0-.2a4.836,4.836,0,0,1-1.446-.445,26.88,26.88,0,0,0,1.438,5.419Z"/></g><path class="cls-6" d="M123.126,68.341A11.34,11.34,0,1,1,111.786,57,11.339,11.339,0,0,1,123.126,68.341Z"/><path class="cls-7" d="M109.583,57.908l.139-2.217a1.124,1.124,0,0,1,1.065-.924c.922-.047,2.123-.047,2.123-.047a.735.735,0,0,1,.6.507,23.861,23.861,0,0,1,.232,2.681S110.371,58.279,109.583,57.908Z"/><path class="cls-8" d="M112.241,52.393s.262-2.5-1.091-1.51c-1.336.976-1.04,1.2-.158,2.6a10.823,10.823,0,0,1,.677,1.245"/><path class="cls-9" d="M108.344,52.452a12.25,12.25,0,0,1-2.108-.465,2.681,2.681,0,0,1-1.269-1.543,3.293,3.293,0,0,0-1.083.331.926.926,0,0,0-.247,1.2,1.863,1.863,0,0,0,1.454,1.077,18.562,18.562,0,0,0,3.4,0c1.5,0,2.546-.3,1.57-.506A15.979,15.979,0,0,0,108.344,52.452Z"/><path class="cls-9" d="M113.293,52.671a14.7,14.7,0,0,0,3.275-1.108c.518-.457.1-1.037.964-1.037s1.985.539,1.764,1.245-.264,1.075-1.223,1.283A26.452,26.452,0,0,1,113.293,52.671Z"/><path class="cls-9" d="M110.806,51.481a16.137,16.137,0,0,1-2.488-2.529c-.764-1.117-1.751-1.947-2.784-1.782s-.367.682-1.306,1.823a3.766,3.766,0,0,0-.738,2.736c.1.248.221-.788.91-.994s.791-.167,1.824.411,2.07.831,2.636,1.123a9.227,9.227,0,0,0,2.142.454Z"/><path class="cls-9" d="M112.012,51.563a8.58,8.58,0,0,0,2.072-2.238,5.472,5.472,0,0,1,2.855-2.363c.69-.165.665-.29,1.084.873s1.233,3.191,1.306,3.646-.467-.375-.862-.581-.96-.125-2.168.165-1.579.912-2.539,1.367a2.858,2.858,0,0,1-1.945.127Z"/><path class="cls-9" d="M112.333,52.559a22.437,22.437,0,0,0,4.211,0c1.43-.25,1.577.247,2.291.87s.763-.085,1.627,2.444a13.064,13.064,0,0,1,.86,3.563s-1.181-2.736-1.772-2.857-.887-.913-.788.121a24.077,24.077,0,0,1-.591,4.147c-.075.536.073-.248-.37-2.446s-.074-3.026-.96-4.02a2.55,2.55,0,0,0-2.243-1.037A7.99,7.99,0,0,1,112.333,52.559Z"/><path class="cls-9" d="M110.339,52.856a10.4,10.4,0,0,0-3.7.9,3.788,3.788,0,0,0-1.43,3.2,12.542,12.542,0,0,1-.616,4.182c-.391.664.025-1.118-.1-2.484s-.22-2.528-.911-1.783a18.33,18.33,0,0,0-1.772,2.943,24.844,24.844,0,0,1,.762-3.313c.518-1.66,1.083-2.74,2.142-3.068a35.154,35.154,0,0,1,4.158-.664Z"/><path class="cls-9" d="M110.633,51.19a3.545,3.545,0,0,0-.221.868,4.515,4.515,0,0,1-.1.748l2.414.207s-.149-1.158-.2-1.411a.756.756,0,0,0-.3-.412A4.912,4.912,0,0,0,110.633,51.19Z"/><g class="cls-10"><path class="cls-11" d="M103.961,67.538a5.808,5.808,0,0,1,1.36-3.769c.073-.1.147-.209.22-.315l-1.425-1.26a11.714,11.714,0,0,0-1.624,4.853A4.024,4.024,0,0,0,103.961,67.538Z"/><path class="cls-11" d="M104.416,68.18a6.459,6.459,0,0,0,.994,4.017l1.727-.8a3.559,3.559,0,0,1-.8-3.244c.025-.092.051-.183.076-.272a9.819,9.819,0,0,1-2,.075C104.415,68.029,104.416,68.106,104.416,68.18Z"/><path class="cls-11" d="M104.417,67.587a10.348,10.348,0,0,0,2.117-.111,21.424,21.424,0,0,1,.856-2.386l-1.5-1.325c-.055.078-.109.156-.164.233A5.526,5.526,0,0,0,104.417,67.587Z"/><path class="cls-11" d="M105.049,72.366a6.832,6.832,0,0,1-1.09-4.263c0-.066,0-.135,0-.2a4.836,4.836,0,0,1-1.446-.445,26.88,26.88,0,0,0,1.438,5.419Z"/></g><path class="cls-9" d="M110.027.466a8.958,8.958,0,1,1-8.958-8.96A8.957,8.957,0,0,1,110.027.466Z"/><g class="cls-10"><path class="cls-11" d="M95.247.338a5.1,5.1,0,0,0,.785,3.174L97.4,2.878A2.805,2.805,0,0,1,96.769.316c.019-.073.039-.145.059-.215A7.767,7.767,0,0,1,95.247.16C95.246.219,95.247.28,95.247.338Z"/><path class="cls-11" d="M95.747,3.645A5.39,5.39,0,0,1,94.886.278c0-.053,0-.107,0-.16a3.788,3.788,0,0,1-1.142-.352,21.2,21.2,0,0,0,1.136,4.282Z"/></g><path class="cls-12" d="M64.854,3.147a7.463,7.463,0,1,1-7.463-7.463A7.463,7.463,0,0,1,64.854,3.147Z"/><g class="cls-10"><path class="cls-11" d="M52.24,2.619a3.831,3.831,0,0,1,.9-2.481l.145-.207L52.343-.9A7.71,7.71,0,0,0,51.274,2.3,2.642,2.642,0,0,0,52.24,2.619Z"/><path class="cls-11" d="M52.54,3.041A4.254,4.254,0,0,0,53.2,5.686l1.136-.529a2.338,2.338,0,0,1-.523-2.134c.017-.061.033-.121.05-.179a6.552,6.552,0,0,1-1.318.049Z"/><path class="cls-11" d="M52.541,2.651a6.805,6.805,0,0,0,1.393-.073,14.017,14.017,0,0,1,.564-1.57L53.512.136l-.107.153A3.638,3.638,0,0,0,52.541,2.651Z"/><path class="cls-11" d="M52.957,5.8a4.5,4.5,0,0,1-.718-2.8c0-.044,0-.089,0-.133a3.155,3.155,0,0,1-.951-.293,17.657,17.657,0,0,0,.946,3.567Z"/></g><path class="cls-6" d="M143.272,130.316a11.34,11.34,0,1,1-11.34-11.341A11.339,11.339,0,0,1,143.272,130.316Z"/><path class="cls-7" d="M129.729,119.883l.139-2.216a1.124,1.124,0,0,1,1.065-.925c.922-.047,2.123-.047,2.123-.047a.735.735,0,0,1,.6.507,23.88,23.88,0,0,1,.232,2.681S130.517,120.254,129.729,119.883Z"/><path class="cls-8" d="M132.387,114.368s.262-2.5-1.092-1.509c-1.335.975-1.04,1.2-.157,2.605a10.728,10.728,0,0,1,.677,1.245"/><path class="cls-9" d="M128.489,114.428a12.279,12.279,0,0,1-2.107-.466,2.681,2.681,0,0,1-1.269-1.543,3.277,3.277,0,0,0-1.083.332.925.925,0,0,0-.247,1.2,1.864,1.864,0,0,0,1.454,1.076,18.562,18.562,0,0,0,3.4,0c1.5,0,2.546-.3,1.57-.506A15.932,15.932,0,0,0,128.489,114.428Z"/><path class="cls-9" d="M133.439,114.646a14.686,14.686,0,0,0,3.275-1.107c.518-.458.1-1.038.964-1.038s1.985.54,1.764,1.245-.264,1.075-1.223,1.283A26.452,26.452,0,0,1,133.439,114.646Z"/><path class="cls-9" d="M130.952,113.456a16.137,16.137,0,0,1-2.488-2.529c-.764-1.117-1.751-1.947-2.784-1.782s-.367.682-1.306,1.824a3.763,3.763,0,0,0-.738,2.735c.1.249.221-.787.91-.994s.791-.167,1.824.412,2.07.831,2.636,1.122a9.244,9.244,0,0,0,2.142.455Z"/><path class="cls-9" d="M132.157,113.539a8.594,8.594,0,0,0,2.073-2.238,5.47,5.47,0,0,1,2.855-2.364c.69-.164.665-.29,1.084.873s1.233,3.192,1.3,3.646-.466-.375-.861-.581-.96-.124-2.168.166-1.579.912-2.539,1.366a2.861,2.861,0,0,1-1.946.127Z"/><path class="cls-9" d="M132.478,114.534a22.449,22.449,0,0,0,4.212,0c1.43-.249,1.577.247,2.291.87s.763-.085,1.627,2.445a13.064,13.064,0,0,1,.86,3.562s-1.181-2.735-1.772-2.857-.887-.913-.788.122a24.079,24.079,0,0,1-.591,4.146c-.076.536.073-.248-.37-2.445s-.074-3.026-.96-4.02a2.549,2.549,0,0,0-2.243-1.038A7.968,7.968,0,0,1,132.478,114.534Z"/><path class="cls-9" d="M130.485,114.831a10.41,10.41,0,0,0-3.7.9,3.791,3.791,0,0,0-1.43,3.2,12.553,12.553,0,0,1-.615,4.182c-.391.663.025-1.119-.1-2.485s-.22-2.528-.911-1.782a18.289,18.289,0,0,0-1.772,2.942,24.844,24.844,0,0,1,.762-3.313c.518-1.659,1.083-2.74,2.142-3.068a35.1,35.1,0,0,1,4.158-.663Z"/><path class="cls-9" d="M130.779,113.165a3.557,3.557,0,0,0-.221.869,4.5,4.5,0,0,1-.1.747l2.413.208s-.148-1.159-.194-1.411a.756.756,0,0,0-.3-.413A4.912,4.912,0,0,0,130.779,113.165Z"/><g class="cls-10"><path class="cls-11" d="M124.106,129.513a5.818,5.818,0,0,1,1.361-3.769c.073-.1.147-.209.22-.315l-1.425-1.26a11.714,11.714,0,0,0-1.624,4.853A4.007,4.007,0,0,0,124.106,129.513Z"/><path class="cls-11" d="M124.562,130.155a6.46,6.46,0,0,0,.994,4.018l1.727-.8a3.559,3.559,0,0,1-.8-3.244c.025-.092.051-.182.076-.271a9.964,9.964,0,0,1-2,.075C124.561,130,124.562,130.082,124.562,130.155Z"/><path class="cls-11" d="M124.563,129.562a10.348,10.348,0,0,0,2.117-.111,21.424,21.424,0,0,1,.856-2.386l-1.5-1.325c-.054.078-.108.156-.163.233A5.525,5.525,0,0,0,124.563,129.562Z"/><path class="cls-11" d="M125.2,134.341a6.831,6.831,0,0,1-1.09-4.263c0-.066,0-.135,0-.2a4.838,4.838,0,0,1-1.446-.446,26.862,26.862,0,0,0,1.438,5.419Z"/></g><path class="cls-9" d="M89.884,82a8.958,8.958,0,1,1-8.958-8.959A8.957,8.957,0,0,1,89.884,82Z"/><path class="cls-7" d="M79.186,73.759l.11-1.751a.886.886,0,0,1,.84-.73c.729-.037,1.678-.037,1.678-.037a.58.58,0,0,1,.475.4,18.751,18.751,0,0,1,.183,2.118A12.094,12.094,0,0,1,79.186,73.759Z"/><path class="cls-8" d="M81.285,69.4s.207-1.973-.862-1.192-.821.946-.125,2.058a8.336,8.336,0,0,1,.535.983"/><path class="cls-9" d="M78.206,69.449a9.764,9.764,0,0,1-1.664-.367,2.12,2.12,0,0,1-1-1.22,2.6,2.6,0,0,0-.856.263.731.731,0,0,0-.2.949,1.475,1.475,0,0,0,1.149.851,14.693,14.693,0,0,0,2.686,0c1.187,0,2.012-.236,1.24-.4A12.581,12.581,0,0,0,78.206,69.449Z"/><path class="cls-9" d="M82.116,69.622a11.626,11.626,0,0,0,2.588-.875c.409-.361.079-.82.761-.82s1.569.427,1.394.984-.209.849-.967,1.014A20.918,20.918,0,0,1,82.116,69.622Z"/><path class="cls-9" d="M80.151,68.682a12.778,12.778,0,0,1-1.965-2c-.6-.883-1.383-1.538-2.2-1.408s-.29.539-1.032,1.441a2.974,2.974,0,0,0-.583,2.161c.078.2.175-.622.719-.785s.625-.132,1.441.325,1.635.656,2.083.886a7.29,7.29,0,0,0,1.692.359Z"/><path class="cls-9" d="M81.1,68.747a6.77,6.77,0,0,0,1.637-1.768A4.325,4.325,0,0,1,85,65.112c.545-.13.525-.229.856.689s.974,2.522,1.031,2.881-.368-.3-.681-.459-.757-.1-1.712.131-1.247.72-2.006,1.079a2.253,2.253,0,0,1-1.537.1Z"/><path class="cls-9" d="M81.358,69.533a17.649,17.649,0,0,0,3.327,0c1.129-.2,1.246.2,1.809.688s.6-.067,1.286,1.931a10.324,10.324,0,0,1,.679,2.814s-.933-2.161-1.4-2.257-.7-.721-.622.1a18.989,18.989,0,0,1-.467,3.276c-.06.423.058-.2-.292-1.932s-.059-2.39-.759-3.176a2.014,2.014,0,0,0-1.772-.819A6.3,6.3,0,0,1,81.358,69.533Z"/><path class="cls-9" d="M79.783,69.768a8.227,8.227,0,0,0-2.92.712A2.992,2.992,0,0,0,75.733,73a9.919,9.919,0,0,1-.486,3.3c-.309.524.019-.883-.078-1.963s-.173-2-.719-1.408a14.425,14.425,0,0,0-1.4,2.325,19.733,19.733,0,0,1,.6-2.618c.409-1.311.856-2.164,1.692-2.423a27.767,27.767,0,0,1,3.285-.524Z"/><path class="cls-9" d="M80.015,68.452a2.8,2.8,0,0,0-.175.686,3.582,3.582,0,0,1-.078.591l1.907.164s-.117-.916-.153-1.115a.6.6,0,0,0-.235-.326A3.888,3.888,0,0,0,80.015,68.452Z"/><g class="cls-10"><path class="cls-11" d="M74.744,81.367a4.589,4.589,0,0,1,1.075-2.978c.058-.082.116-.165.173-.249l-1.125-1a9.246,9.246,0,0,0-1.283,3.834A3.177,3.177,0,0,0,74.744,81.367Z"/><path class="cls-11" d="M75.1,81.874a5.1,5.1,0,0,0,.785,3.174l1.364-.634a2.81,2.81,0,0,1-.627-2.563c.019-.073.039-.144.059-.215a7.84,7.84,0,0,1-1.581.06C75.1,81.755,75.1,81.816,75.1,81.874Z"/><path class="cls-11" d="M75.105,81.405a8.064,8.064,0,0,0,1.672-.088,17.187,17.187,0,0,1,.676-1.884L76.27,78.386l-.129.184A4.361,4.361,0,0,0,75.105,81.405Z"/><path class="cls-11" d="M75.6,85.18a5.39,5.39,0,0,1-.861-3.367c0-.052,0-.106,0-.159A3.845,3.845,0,0,1,73.6,81.3a21.166,21.166,0,0,0,1.136,4.281Z"/></g><path class="cls-12" d="M98.247,29.981a7.463,7.463,0,1,1-7.463-7.464A7.462,7.462,0,0,1,98.247,29.981Z"/><path class="cls-7" d="M89.334,23.115l.091-1.459a.739.739,0,0,1,.7-.608c.607-.031,1.4-.031,1.4-.031a.483.483,0,0,1,.4.334,15.737,15.737,0,0,1,.153,1.764A10.083,10.083,0,0,1,89.334,23.115Z"/><path class="cls-8" d="M91.083,19.486s.172-1.645-.718-.994-.685.788-.1,1.714a7.147,7.147,0,0,1,.445.82"/><path class="cls-9" d="M88.518,19.525a8.044,8.044,0,0,1-1.387-.307A1.762,1.762,0,0,1,86.3,18.2a2.147,2.147,0,0,0-.713.218.609.609,0,0,0-.163.791,1.227,1.227,0,0,0,.957.709,12.3,12.3,0,0,0,2.238,0c.989,0,1.676-.2,1.033-.333A10.234,10.234,0,0,0,88.518,19.525Z"/><path class="cls-9" d="M91.775,19.668a9.668,9.668,0,0,0,2.156-.728c.341-.3.066-.683.634-.683s1.307.355,1.161.819-.174.708-.8.845A17.481,17.481,0,0,1,91.775,19.668Z"/><path class="cls-9" d="M90.138,18.885A10.644,10.644,0,0,1,88.5,17.221c-.5-.735-1.152-1.281-1.832-1.173s-.242.449-.86,1.2a2.476,2.476,0,0,0-.485,1.8c.064.163.145-.519.6-.655s.52-.11,1.2.271,1.362.547,1.735.739a6.068,6.068,0,0,0,1.41.3Z"/><path class="cls-9" d="M90.932,18.94A5.663,5.663,0,0,0,92.3,17.467a3.6,3.6,0,0,1,1.879-1.556c.454-.108.438-.191.713.575s.811,2.1.859,2.4-.307-.246-.567-.382-.631-.082-1.427.109-1.038.6-1.671.9a1.883,1.883,0,0,1-1.28.084Z"/><path class="cls-9" d="M91.143,19.6a14.825,14.825,0,0,0,2.772,0c.941-.165,1.038.162,1.507.572s.5-.056,1.071,1.609a8.587,8.587,0,0,1,.567,2.345s-.778-1.8-1.167-1.881-.583-.6-.519.08a15.843,15.843,0,0,1-.388,2.729c-.05.353.048-.163-.244-1.609s-.048-1.992-.632-2.646a1.679,1.679,0,0,0-1.476-.683A5.232,5.232,0,0,1,91.143,19.6Z"/><path class="cls-9" d="M89.831,19.79a6.863,6.863,0,0,0-2.433.593,2.494,2.494,0,0,0-.941,2.1,8.245,8.245,0,0,1-.4,2.753c-.257.436.016-.736-.064-1.636s-.145-1.664-.6-1.173a12.065,12.065,0,0,0-1.166,1.937,16.352,16.352,0,0,1,.5-2.181c.341-1.092.713-1.8,1.41-2.019a23.116,23.116,0,0,1,2.737-.436Z"/><path class="cls-9" d="M90.025,18.694a2.321,2.321,0,0,0-.146.571,2.964,2.964,0,0,1-.065.492l1.588.137s-.1-.763-.127-.929a.5.5,0,0,0-.2-.271A3.21,3.21,0,0,0,90.025,18.694Z"/><g class="cls-10"><path class="cls-11" d="M85.633,29.453a3.831,3.831,0,0,1,.9-2.481q.072-.1.144-.207l-.937-.829a7.7,7.7,0,0,0-1.069,3.193A2.642,2.642,0,0,0,85.633,29.453Z"/><path class="cls-11" d="M85.933,29.875a4.254,4.254,0,0,0,.654,2.644l1.137-.528a2.337,2.337,0,0,1-.523-2.135c.016-.06.033-.12.049-.178a6.54,6.54,0,0,1-1.317.049Z"/><path class="cls-11" d="M85.934,29.485a6.808,6.808,0,0,0,1.393-.073,14.094,14.094,0,0,1,.563-1.57l-.985-.872-.108.153A3.643,3.643,0,0,0,85.934,29.485Z"/><path class="cls-11" d="M86.35,32.63a4.493,4.493,0,0,1-.718-2.805c0-.044,0-.089,0-.133a3.183,3.183,0,0,1-.951-.293,17.626,17.626,0,0,0,.946,3.566Z"/></g><path class="cls-12" d="M36.713,51.487a7.463,7.463,0,1,1-7.463-7.464A7.463,7.463,0,0,1,36.713,51.487Z"/><path class="cls-7" d="M27.8,44.62l.091-1.458a.739.739,0,0,1,.7-.608c.607-.031,1.4-.031,1.4-.031a.483.483,0,0,1,.4.333,15.756,15.756,0,0,1,.153,1.764A10.042,10.042,0,0,1,27.8,44.62Z"/><path class="cls-8" d="M29.549,40.991s.172-1.644-.718-.993-.685.788-.1,1.714a7.091,7.091,0,0,1,.445.819"/><path class="cls-9" d="M26.984,41.03a8.11,8.11,0,0,1-1.387-.306,1.763,1.763,0,0,1-.835-1.016,2.155,2.155,0,0,0-.713.219.609.609,0,0,0-.163.791,1.228,1.228,0,0,0,.957.708,12.211,12.211,0,0,0,2.238,0c.989,0,1.676-.2,1.033-.333A10.492,10.492,0,0,0,26.984,41.03Z"/><path class="cls-9" d="M30.241,41.174a9.68,9.68,0,0,0,2.156-.729c.341-.3.066-.683.634-.683s1.307.355,1.161.82-.174.707-.8.844A17.406,17.406,0,0,1,30.241,41.174Z"/><path class="cls-9" d="M28.6,40.391a10.669,10.669,0,0,1-1.637-1.665c-.5-.735-1.152-1.281-1.832-1.173s-.242.45-.86,1.2a2.474,2.474,0,0,0-.485,1.8c.064.164.145-.518.6-.654s.52-.11,1.2.271,1.362.547,1.735.738a6.085,6.085,0,0,0,1.41.3Z"/><path class="cls-9" d="M29.4,40.445a5.663,5.663,0,0,0,1.364-1.473,3.6,3.6,0,0,1,1.879-1.555c.454-.109.438-.191.713.574s.811,2.1.859,2.4-.307-.247-.567-.383-.631-.081-1.427.109-1.038.6-1.671.9a1.88,1.88,0,0,1-1.28.083Z"/><path class="cls-9" d="M29.609,41.1a14.734,14.734,0,0,0,2.772,0c.941-.164,1.038.163,1.507.573s.5-.056,1.071,1.609a8.578,8.578,0,0,1,.567,2.344s-.778-1.8-1.167-1.88-.583-.6-.519.08a15.843,15.843,0,0,1-.388,2.729c-.05.353.048-.163-.244-1.61s-.048-1.991-.632-2.645a1.679,1.679,0,0,0-1.476-.683A5.256,5.256,0,0,1,29.609,41.1Z"/><path class="cls-9" d="M28.3,41.3a6.84,6.84,0,0,0-2.433.593,2.494,2.494,0,0,0-.941,2.1,8.239,8.239,0,0,1-.4,2.752c-.257.437.016-.736-.064-1.635s-.145-1.664-.6-1.173a12.068,12.068,0,0,0-1.166,1.936,16.356,16.356,0,0,1,.5-2.18c.341-1.092.713-1.8,1.41-2.019a23.175,23.175,0,0,1,2.737-.437Z"/><path class="cls-9" d="M28.491,40.2a2.333,2.333,0,0,0-.146.572,2.964,2.964,0,0,1-.065.492l1.588.137s-.1-.763-.127-.929a.5.5,0,0,0-.2-.272A3.239,3.239,0,0,0,28.491,40.2Z"/><g class="cls-10"><path class="cls-11" d="M24.1,50.959a3.827,3.827,0,0,1,.9-2.481q.072-.1.144-.207l-.937-.83a7.706,7.706,0,0,0-1.069,3.194A2.642,2.642,0,0,0,24.1,50.959Z"/><path class="cls-11" d="M24.4,51.381a4.254,4.254,0,0,0,.654,2.644L26.19,53.5a2.339,2.339,0,0,1-.523-2.135c.016-.061.033-.12.049-.179a6.467,6.467,0,0,1-1.317.049Z"/><path class="cls-11" d="M24.4,50.99a6.669,6.669,0,0,0,1.393-.073,14.129,14.129,0,0,1,.563-1.569l-.985-.873-.108.154A3.633,3.633,0,0,0,24.4,50.99Z"/><path class="cls-11" d="M24.816,54.136A4.5,4.5,0,0,1,24.1,51.33c0-.043,0-.088,0-.132a3.185,3.185,0,0,1-.951-.294,17.638,17.638,0,0,0,.946,3.567Z"/></g><path class="cls-9" d="M74.3,138.6a8.959,8.959,0,1,1-8.958-8.959A8.958,8.958,0,0,1,74.3,138.6Z"/><path class="cls-7" d="M63.605,130.354l.11-1.75a.887.887,0,0,1,.841-.73c.729-.038,1.677-.038,1.677-.038a.583.583,0,0,1,.476.4,18.976,18.976,0,0,1,.183,2.117A12.06,12.06,0,0,1,63.605,130.354Z"/><path class="cls-8" d="M65.705,126s.207-1.974-.862-1.193-.822.947-.125,2.058a8.389,8.389,0,0,1,.535.984"/><path class="cls-9" d="M62.626,126.045a9.7,9.7,0,0,1-1.665-.368,2.116,2.116,0,0,1-1-1.219,2.6,2.6,0,0,0-.856.262.731.731,0,0,0-.2.95,1.47,1.47,0,0,0,1.149.85,14.682,14.682,0,0,0,2.685,0c1.187,0,2.012-.235,1.241-.4A12.334,12.334,0,0,0,62.626,126.045Z"/><path class="cls-9" d="M66.536,126.217a11.609,11.609,0,0,0,2.587-.874c.41-.362.079-.82.761-.82s1.569.426,1.394.984-.209.849-.966,1.013A20.918,20.918,0,0,1,66.536,126.217Z"/><path class="cls-9" d="M64.571,125.278a12.754,12.754,0,0,1-1.965-2c-.6-.882-1.383-1.537-2.2-1.407s-.29.539-1.031,1.44a2.976,2.976,0,0,0-.583,2.162c.078.2.174-.623.719-.786s.625-.132,1.441.325,1.635.657,2.082.887a7.3,7.3,0,0,0,1.692.359Z"/><path class="cls-9" d="M65.524,125.343a6.809,6.809,0,0,0,1.637-1.768,4.329,4.329,0,0,1,2.256-1.868c.544-.13.525-.229.855.69s.974,2.521,1.032,2.881-.369-.3-.681-.46-.758-.1-1.713.131-1.247.721-2,1.08a2.26,2.26,0,0,1-1.537.1Z"/><path class="cls-9" d="M65.777,126.129a17.742,17.742,0,0,0,3.327,0c1.13-.2,1.246.195,1.81.687s.6-.067,1.285,1.931a10.321,10.321,0,0,1,.68,2.815s-.934-2.161-1.4-2.257-.7-.722-.623.1a19.126,19.126,0,0,1-.466,3.276c-.06.423.057-.2-.292-1.932s-.059-2.391-.759-3.176a2.014,2.014,0,0,0-1.772-.82A6.3,6.3,0,0,1,65.777,126.129Z"/><path class="cls-9" d="M64.2,126.363a8.227,8.227,0,0,0-2.92.712,3,3,0,0,0-1.129,2.525,9.927,9.927,0,0,1-.486,3.3c-.309.524.019-.884-.078-1.963s-.174-2-.719-1.408a14.412,14.412,0,0,0-1.4,2.324,19.7,19.7,0,0,1,.6-2.617c.41-1.311.856-2.165,1.693-2.424a27.728,27.728,0,0,1,3.284-.524Z"/><path class="cls-9" d="M64.435,125.047a2.8,2.8,0,0,0-.175.687,3.563,3.563,0,0,1-.078.59l1.906.164s-.117-.915-.153-1.115a.6.6,0,0,0-.234-.326A3.888,3.888,0,0,0,64.435,125.047Z"/><g class="cls-10"><path class="cls-11" d="M59.163,137.962a4.593,4.593,0,0,1,1.075-2.977q.087-.123.174-.249l-1.126-1A9.266,9.266,0,0,0,58,137.574,3.165,3.165,0,0,0,59.163,137.962Z"/><path class="cls-11" d="M59.523,138.469a5.106,5.106,0,0,0,.786,3.174l1.364-.634a2.808,2.808,0,0,1-.628-2.562c.02-.073.04-.145.06-.215a7.777,7.777,0,0,1-1.582.059C59.523,138.35,59.524,138.411,59.523,138.469Z"/><path class="cls-11" d="M59.524,138a8.217,8.217,0,0,0,1.673-.088,16.668,16.668,0,0,1,.676-1.884l-1.183-1.047-.129.184A4.364,4.364,0,0,0,59.524,138Z"/><path class="cls-11" d="M60.023,141.776a5.393,5.393,0,0,1-.861-3.368c0-.052,0-.106,0-.159a3.8,3.8,0,0,1-1.142-.352,21.166,21.166,0,0,0,1.136,4.281Z"/></g><path class="cls-9" d="M127.294,33.212a8.959,8.959,0,1,1-8.958-8.959A8.958,8.958,0,0,1,127.294,33.212Z"/><path class="cls-7" d="M116.6,24.97l.11-1.751a.887.887,0,0,1,.841-.73c.729-.037,1.677-.037,1.677-.037a.581.581,0,0,1,.476.4,18.957,18.957,0,0,1,.183,2.117A12.1,12.1,0,0,1,116.6,24.97Z"/><path class="cls-8" d="M118.7,20.614s.206-1.974-.862-1.193-.822.946-.125,2.058a8.389,8.389,0,0,1,.535.984"/><path class="cls-9" d="M115.616,20.66a9.668,9.668,0,0,1-1.665-.367,2.119,2.119,0,0,1-1-1.219,2.591,2.591,0,0,0-.855.262.73.73,0,0,0-.2.949,1.469,1.469,0,0,0,1.148.851,14.693,14.693,0,0,0,2.686,0c1.187,0,2.012-.236,1.241-.4A12.593,12.593,0,0,0,115.616,20.66Z"/><path class="cls-9" d="M119.526,20.833a11.621,11.621,0,0,0,2.587-.875c.41-.361.079-.819.761-.819s1.569.426,1.394.983-.209.85-.966,1.014A20.918,20.918,0,0,1,119.526,20.833Z"/><path class="cls-9" d="M117.561,19.893a12.778,12.778,0,0,1-1.965-2c-.6-.882-1.384-1.538-2.2-1.408s-.29.539-1.032,1.441a2.977,2.977,0,0,0-.582,2.161c.077.2.174-.622.719-.785s.624-.132,1.441.325,1.634.656,2.082.886a7.263,7.263,0,0,0,1.692.36Z"/><path class="cls-9" d="M118.514,19.958a6.776,6.776,0,0,0,1.636-1.768,4.33,4.33,0,0,1,2.256-1.867c.545-.13.526-.229.856.69s.974,2.521,1.032,2.88-.369-.3-.681-.459-.758-.1-1.713.131-1.247.72-2.005,1.079a2.256,2.256,0,0,1-1.537.1Z"/><path class="cls-9" d="M118.767,20.745a17.742,17.742,0,0,0,3.327,0c1.13-.2,1.246.2,1.81.687s.6-.067,1.285,1.931a10.311,10.311,0,0,1,.68,2.814s-.934-2.161-1.4-2.257-.7-.721-.623.1a18.989,18.989,0,0,1-.467,3.276c-.059.423.058-.2-.292-1.932s-.058-2.39-.758-3.176a2.015,2.015,0,0,0-1.773-.819A6.305,6.305,0,0,1,118.767,20.745Z"/><path class="cls-9" d="M117.192,20.979a8.227,8.227,0,0,0-2.92.712,3,3,0,0,0-1.13,2.525,9.891,9.891,0,0,1-.486,3.3c-.309.525.02-.883-.077-1.963s-.174-2-.72-1.408a14.5,14.5,0,0,0-1.4,2.325,19.733,19.733,0,0,1,.6-2.618c.409-1.31.856-2.164,1.692-2.423a27.767,27.767,0,0,1,3.285-.524Z"/><path class="cls-9" d="M117.424,19.663a2.813,2.813,0,0,0-.174.686,3.564,3.564,0,0,1-.078.591l1.906.164s-.117-.916-.153-1.115a.6.6,0,0,0-.235-.326A3.888,3.888,0,0,0,117.424,19.663Z"/><g class="cls-10"><path class="cls-11" d="M112.153,32.578a4.594,4.594,0,0,1,1.075-2.978l.174-.248-1.126-1a9.261,9.261,0,0,0-1.283,3.834A3.183,3.183,0,0,0,112.153,32.578Z"/><path class="cls-11" d="M112.513,33.085a5.107,5.107,0,0,0,.786,3.174l1.364-.634a2.81,2.81,0,0,1-.628-2.563c.02-.073.04-.144.059-.214a7.91,7.91,0,0,1-1.581.059Z"/><path class="cls-11" d="M112.514,32.616a8.139,8.139,0,0,0,1.673-.087,16.714,16.714,0,0,1,.676-1.885L113.68,29.6l-.129.184A4.367,4.367,0,0,0,112.514,32.616Z"/><path class="cls-11" d="M113.013,36.392a5.4,5.4,0,0,1-.861-3.368c0-.052,0-.106,0-.159a3.8,3.8,0,0,1-1.142-.352,21.166,21.166,0,0,0,1.136,4.281Z"/></g><polygon class="cls-11" points="120.022 98.672 120.022 96.762 120.451 98.672 122.121 95.524 120.815 98.804 122.935 97.695 121.115 99.089 123.472 99.089 121.072 99.463 130.675 102.947 121.029 100.012 121.908 101.68 120.665 100.253 122.103 106.54 120.258 100.231 119.315 102.273 119.787 100.121 116.194 104.077 119.53 99.748 117.409 100.012 119.358 99.331 114.188 97.822 119.594 98.87 117.817 95.524 119.915 98.628 120.022 98.672"/><polygon class="cls-11" points="73.227 2.055 73.227 0.145 73.655 2.055 75.325 -1.094 74.019 2.186 76.139 1.078 74.319 2.472 76.676 2.472 74.277 2.845 83.879 6.329 74.234 3.394 75.112 5.062 73.869 3.635 75.307 9.922 73.462 3.613 72.52 5.655 72.991 3.504 69.398 7.46 72.734 3.13 70.613 3.394 72.562 2.713 67.392 1.204 72.798 2.252 71.021 -1.094 73.12 2.011 73.227 2.055"/><polygon class="cls-11" points="96.697 134.05 98.377 133.14 96.901 134.427 100.466 134.396 96.959 134.81 98.943 136.146 96.851 135.209 97.973 137.282 96.502 135.349 98.011 145.452 95.999 135.573 94.95 137.14 95.613 135.368 90.77 139.625 95.439 134.999 93.195 135.142 95.311 134.532 90.121 133.257 95.517 134.129 94.275 132.389 95.802 133.779 94.667 128.514 96.32 133.767 98.416 130.611 96.685 133.935 96.697 134.05"/><polygon class="cls-11" points="97.823 -0.414 99.502 -1.323 98.027 -0.037 101.591 -0.067 98.085 0.346 100.069 1.682 97.976 0.746 99.099 2.818 97.628 0.886 99.137 10.989 97.125 1.109 96.076 2.676 96.739 0.904 91.896 5.162 96.564 0.536 94.32 0.679 96.437 0.069 91.247 -1.207 96.642 -0.335 95.401 -2.075 96.927 -0.684 95.793 -5.95 97.445 -0.696 99.542 -3.852 97.81 -0.529 97.823 -0.414"/><polygon class="cls-11" points="18.875 100.262 18.875 98.352 19.304 100.262 20.974 97.113 19.668 100.394 21.788 99.285 19.968 100.679 22.325 100.679 19.925 101.052 29.528 104.536 19.882 101.601 20.761 103.27 19.518 101.843 20.956 108.129 19.111 101.821 18.168 103.863 18.64 101.711 15.047 105.667 18.383 101.338 16.261 101.601 18.211 100.921 13.04 99.411 18.447 100.46 16.67 97.113 18.768 100.218 18.875 100.262"/><polygon class="cls-11" points="86.544 51.895 86.544 49.985 86.973 51.895 88.643 48.746 87.337 52.026 89.457 50.918 87.637 52.312 89.994 52.312 87.594 52.685 97.197 56.169 87.551 53.234 88.429 54.902 87.187 53.475 88.625 59.762 86.78 53.453 85.837 55.495 86.308 53.343 82.715 57.3 86.051 52.97 83.93 53.234 85.88 52.553 80.709 51.044 86.116 52.092 84.339 48.746 86.437 51.851 86.544 51.895"/><polygon class="cls-11" points="55.938 20.299 54.353 19.234 56.177 19.943 54.494 16.801 56.49 19.714 56.751 17.336 56.894 19.624 58.207 17.667 57.18 19.868 65.425 13.836 57.612 20.209 59.487 20.41 57.609 20.646 63.63 22.956 57.364 20.972 58.534 22.893 57.01 21.302 58.292 26.49 56.557 21.308 55.594 23.215 56.115 21.217 51.98 24.669 55.864 20.765 52.095 20.375 55.842 20.363 55.938 20.299"/><polygon class="cls-11" points="130.932 76.902 131.295 75.027 131.352 76.983 134.925 71.022 131.685 77.182 133.977 76.497 131.925 77.519 134.239 77.967 131.812 77.877 136.259 81.823 131.666 78.408 132.211 80.213 131.262 78.576 131.479 85.021 130.867 78.477 129.553 80.302 130.425 78.28 126.145 81.48 130.243 77.864 128.111 77.72 130.154 77.422 125.365 74.957 130.473 77.014 129.365 73.391 130.835 76.838 130.932 76.902"/><path class="cls-12" d="M26.5,137.449a7.463,7.463,0,1,1-7.463-7.463A7.463,7.463,0,0,1,26.5,137.449Z"/><path class="cls-7" d="M17.589,130.583l.092-1.459a.738.738,0,0,1,.7-.608c.607-.031,1.4-.031,1.4-.031a.483.483,0,0,1,.4.334,15.5,15.5,0,0,1,.153,1.764A10.082,10.082,0,0,1,17.589,130.583Z"/><path class="cls-8" d="M19.338,126.954s.172-1.644-.718-.994-.685.789-.1,1.715a7.016,7.016,0,0,1,.446.819"/><path class="cls-9" d="M16.773,126.993a8.044,8.044,0,0,1-1.387-.307,1.766,1.766,0,0,1-.835-1.015,2.178,2.178,0,0,0-.713.218.609.609,0,0,0-.162.791,1.225,1.225,0,0,0,.957.709,12.2,12.2,0,0,0,2.237,0c.989,0,1.676-.2,1.033-.333A10.492,10.492,0,0,0,16.773,126.993Z"/><path class="cls-9" d="M20.031,127.137a9.675,9.675,0,0,0,2.155-.729c.341-.3.066-.683.634-.683s1.307.355,1.161.819-.174.708-.805.845A17.393,17.393,0,0,1,20.031,127.137Z"/><path class="cls-9" d="M18.393,126.354a10.669,10.669,0,0,1-1.637-1.665c-.5-.735-1.152-1.281-1.832-1.173s-.242.449-.86,1.2a2.482,2.482,0,0,0-.485,1.8c.065.163.145-.519.6-.654s.52-.11,1.2.27,1.362.547,1.735.739a6.068,6.068,0,0,0,1.41.3Z"/><path class="cls-9" d="M19.187,126.408a5.644,5.644,0,0,0,1.364-1.473,3.605,3.605,0,0,1,1.879-1.556c.454-.108.438-.19.713.575s.812,2.1.86,2.4-.308-.247-.568-.383-.631-.082-1.426.109-1.039.6-1.671.9a1.883,1.883,0,0,1-1.281.083Z"/><path class="cls-9" d="M19.4,127.063a14.825,14.825,0,0,0,2.772,0c.941-.164,1.038.162,1.508.573s.5-.056,1.07,1.608a8.587,8.587,0,0,1,.567,2.345s-.778-1.8-1.167-1.88-.583-.6-.518.08a15.947,15.947,0,0,1-.389,2.729c-.05.352.048-.164-.243-1.61s-.049-1.991-.632-2.646a1.678,1.678,0,0,0-1.477-.682A5.269,5.269,0,0,1,19.4,127.063Z"/><path class="cls-9" d="M18.086,127.258a6.859,6.859,0,0,0-2.432.593,2.5,2.5,0,0,0-.941,2.1,8.269,8.269,0,0,1-.4,2.752c-.258.437.016-.736-.065-1.636s-.145-1.663-.6-1.172a12.019,12.019,0,0,0-1.167,1.936,16.453,16.453,0,0,1,.5-2.18c.341-1.093.713-1.8,1.41-2.019a22.922,22.922,0,0,1,2.736-.437Z"/><path class="cls-9" d="M18.28,126.162a2.333,2.333,0,0,0-.146.572,2.963,2.963,0,0,1-.065.491l1.589.137s-.1-.763-.128-.929a.5.5,0,0,0-.2-.271A3.245,3.245,0,0,0,18.28,126.162Z"/><g class="cls-10"><path class="cls-11" d="M13.889,136.921a3.826,3.826,0,0,1,.9-2.481l.145-.207-.938-.829a7.71,7.71,0,0,0-1.069,3.194A2.641,2.641,0,0,0,13.889,136.921Z"/><path class="cls-11" d="M14.188,137.343a4.254,4.254,0,0,0,.655,2.645l1.136-.529a2.338,2.338,0,0,1-.523-2.134c.017-.061.033-.121.05-.179a6.547,6.547,0,0,1-1.318.049C14.188,137.244,14.189,137.295,14.188,137.343Z"/><path class="cls-11" d="M14.189,136.953a6.818,6.818,0,0,0,1.394-.073,13.96,13.96,0,0,1,.563-1.57l-.986-.872-.107.153A3.638,3.638,0,0,0,14.189,136.953Z"/><path class="cls-11" d="M14.605,140.1a4.49,4.49,0,0,1-.717-2.805v-.133a3.155,3.155,0,0,1-.951-.293,17.657,17.657,0,0,0,.946,3.567Z"/></g><path class="cls-12" d="M102.578,114.185a7.463,7.463,0,1,1-7.463-7.464A7.462,7.462,0,0,1,102.578,114.185Z"/><path class="cls-7" d="M93.665,107.319l.092-1.459a.738.738,0,0,1,.7-.608c.608-.031,1.4-.031,1.4-.031a.484.484,0,0,1,.4.334,15.693,15.693,0,0,1,.152,1.764A10.082,10.082,0,0,1,93.665,107.319Z"/><path class="cls-8" d="M95.414,103.689s.173-1.644-.718-.993-.684.788-.1,1.714a6.978,6.978,0,0,1,.446.82"/><path class="cls-9" d="M92.85,103.728a8.09,8.09,0,0,1-1.387-.306,1.766,1.766,0,0,1-.836-1.016,2.162,2.162,0,0,0-.713.219.61.61,0,0,0-.162.791,1.225,1.225,0,0,0,.957.708,12.2,12.2,0,0,0,2.237,0c.989,0,1.676-.2,1.034-.333A10.5,10.5,0,0,0,92.85,103.728Z"/><path class="cls-9" d="M96.107,103.872a9.7,9.7,0,0,0,2.156-.729c.34-.3.065-.682.633-.682s1.307.355,1.162.819-.174.708-.806.844A17.393,17.393,0,0,1,96.107,103.872Z"/><path class="cls-9" d="M94.47,103.089a10.622,10.622,0,0,1-1.637-1.665c-.5-.735-1.153-1.281-1.833-1.172s-.241.449-.859,1.2a2.477,2.477,0,0,0-.486,1.8c.065.164.146-.518.6-.654s.521-.11,1.2.271,1.362.547,1.735.739a6.053,6.053,0,0,0,1.409.3Z"/><path class="cls-9" d="M95.264,103.143a5.651,5.651,0,0,0,1.363-1.473,3.609,3.609,0,0,1,1.88-1.555c.453-.108.437-.191.713.574s.811,2.1.859,2.4-.307-.247-.567-.383-.632-.081-1.427.11-1.039.6-1.671.9a1.883,1.883,0,0,1-1.28.084Z"/><path class="cls-9" d="M95.475,103.8a14.823,14.823,0,0,0,2.772,0c.941-.165,1.037.162,1.507.572s.5-.056,1.071,1.609a8.6,8.6,0,0,1,.566,2.345s-.777-1.8-1.166-1.881-.584-.6-.519.08a15.834,15.834,0,0,1-.389,2.729c-.049.353.048-.163-.243-1.609s-.049-1.992-.632-2.646a1.68,1.68,0,0,0-1.477-.683A5.234,5.234,0,0,1,95.475,103.8Z"/><path class="cls-9" d="M94.163,103.994a6.84,6.84,0,0,0-2.433.593,2.494,2.494,0,0,0-.941,2.1,8.264,8.264,0,0,1-.405,2.752c-.257.437.016-.736-.065-1.635s-.144-1.664-.6-1.173a12.019,12.019,0,0,0-1.167,1.936,16.453,16.453,0,0,1,.5-2.18c.341-1.092.713-1.8,1.41-2.019a23.167,23.167,0,0,1,2.736-.437Z"/><path class="cls-9" d="M94.356,102.9a2.346,2.346,0,0,0-.145.572,2.964,2.964,0,0,1-.065.492l1.588.137s-.1-.763-.128-.929a.5.5,0,0,0-.195-.272A3.245,3.245,0,0,0,94.356,102.9Z"/><g class="cls-10"><path class="cls-11" d="M89.965,113.657a3.824,3.824,0,0,1,.895-2.481c.049-.068.1-.137.145-.207l-.938-.83A7.72,7.72,0,0,0,89,113.333,2.648,2.648,0,0,0,89.965,113.657Z"/><path class="cls-11" d="M90.265,114.079a4.248,4.248,0,0,0,.654,2.644l1.137-.528a2.338,2.338,0,0,1-.523-2.135c.016-.061.033-.12.049-.179a6.541,6.541,0,0,1-1.317.05C90.264,113.98,90.265,114.031,90.265,114.079Z"/><path class="cls-11" d="M90.266,113.689a6.812,6.812,0,0,0,1.393-.073,14.094,14.094,0,0,1,.563-1.57l-.986-.872-.107.153A3.63,3.63,0,0,0,90.266,113.689Z"/><path class="cls-11" d="M90.681,116.834a4.492,4.492,0,0,1-.717-2.806c0-.043,0-.088,0-.132a3.2,3.2,0,0,1-.952-.293,17.636,17.636,0,0,0,.947,3.566Z"/></g><polygon class="cls-11" points="73.386 109.095 75.065 108.186 73.59 109.472 77.154 109.441 73.647 109.855 75.632 111.191 73.539 110.255 74.662 112.327 73.191 110.395 74.7 120.498 72.688 110.618 71.639 112.185 72.302 110.413 67.458 114.671 72.127 110.045 69.883 110.188 71.999 109.578 66.81 108.302 72.205 109.174 70.963 107.434 72.49 108.825 71.355 103.559 73.008 108.812 75.104 105.656 73.373 108.98 73.386 109.095"/><path class="cls-13" d="M52.022,56.382s-2.284-2.775-.486-4.826A4.254,4.254,0,0,1,56.4,50.28c1.211.308,3.365,1.676,3.23,3.77s-1.035,2.623-1.035,2.623S65,59.451,65.5,59.524s.5,1.26.08,2.125-.672,1.421-1.521,1.1-4.454-1.635-4.454-1.635S64.7,71.921,62.1,73s-4,.839-4.784-1.585-1.213-4.2-1.356-3.1-.245,4.917-2,5.126-3.929.29-4.021-1.639S51.2,61.216,51.2,61.216s-4.534,1.852-5.269.887-2.439-2.6-.955-3.177S52.022,56.382,52.022,56.382Z"/><path class="cls-14" d="M53.31,72.823c-.113-.016-.232-.035-.354-.056s-.26-.043-.4-.061a1.588,1.588,0,0,1-1-.656,4.248,4.248,0,0,1-.79-2.934c.06-.276.166-.609.278-.961a5.977,5.977,0,0,0,.441-2.3,2.661,2.661,0,0,1,.526-2.3,1.152,1.152,0,0,0,.154-1.334c-.055-.157-.119-.341-.186-.57-.187-.658-.061-.826.168-1.027a1.049,1.049,0,0,0,.364-.583.345.345,0,0,0,.023-.166,4.725,4.725,0,0,0-1.088.312,7.98,7.98,0,0,1-.989.309c-.513.1-1.055.241-1.531.365-.415.106-.772.2-1.045.251a1.383,1.383,0,0,1-.47.024c-.49-.071-.822-.486-1.3-1.28a.7.7,0,0,1-.092-.724c.243-.435,1.11-.46,1.944-.486.266-.007.523-.014.743-.035a1.41,1.41,0,0,0,1.183-.6c.065-.6.788-.788,1.553-.987A3.276,3.276,0,0,0,52.93,56.4c.367-.385.191-.677-.283-1.359a7.123,7.123,0,0,1-.857-1.518,1.811,1.811,0,0,1,.052-1.7,3.3,3.3,0,0,1,2.589-1.1,4.213,4.213,0,0,1,.934.03,6.553,6.553,0,0,1,3.848,2.25c.51.693-.164,2.054-.836,3.277-.108.2-.2.368-.232.446.048.258,1.594.919,2.251,1.2.17.073.334.142.482.208.342.149.848.338,1.381.539a14.6,14.6,0,0,1,3.257,1.482.629.629,0,0,1,.2.774,1.949,1.949,0,0,1-1.646.945.5.5,0,0,1-.308-.154c-.127-.142-.317-.142-.6-.145a4.508,4.508,0,0,1-.986-.094,3.784,3.784,0,0,1-2.327-1.211.267.267,0,0,0-.167-.14c-.148-.022-.438.168-.722.638-.191.314.119.78.478,1.32a5.7,5.7,0,0,1,.667,1.2,5.969,5.969,0,0,1,.255,1.482,16.626,16.626,0,0,0,.6,3.343c.215.773.376,1.314.5,1.715a4.014,4.014,0,0,1,.3,1.895c-.035.536-.375.763-1.015.669-.148-.021-.3-.056-.461-.092a3.352,3.352,0,0,0-.684-.1c-.775.03-1.157-.549-1.516-1.1l-.136-.2a8.464,8.464,0,0,1-.667-3.8c.075-.486-.684-.871-1.186-1.124-.115-.058-.21-.107-.29-.151a11.811,11.811,0,0,0-.4,2.339,9.02,9.02,0,0,1-.16.93,15.421,15.421,0,0,0-.359,2.617,1.161,1.161,0,0,1-.362.975,1.594,1.594,0,0,1-1.2.139Zm-.744-13.315a.461.461,0,0,1,.32.179.539.539,0,0,1,.044.5,1.382,1.382,0,0,1-.468.746c-.143.124-.2.176-.064.66.063.221.125.4.178.548a1.49,1.49,0,0,1-.183,1.645,2.328,2.328,0,0,0-.48,2.048,6.061,6.061,0,0,1-.452,2.469c-.11.345-.212.671-.271.932a3.912,3.912,0,0,0,.71,2.607,1.124,1.124,0,0,0,.686.474c.139.02.273.042.405.064.552.09,1,.16,1.223-.009a.867.867,0,0,0,.224-.7,15.834,15.834,0,0,1,.366-2.683c.077-.384.141-.715.153-.885.02-.289.2-2.822.794-2.736l.071.01.09.064a2.552,2.552,0,0,0,.347.192c.581.3,1.552.786,1.435,1.561a8.209,8.209,0,0,0,.6,3.52l.139.21c.324.493.59.9,1.094.883a3.538,3.538,0,0,1,.8.115c.146.032.29.065.424.084.408.06.539-.019.56-.338a3.676,3.676,0,0,0-.281-1.764c-.117-.4-.281-.946-.5-1.723a17.174,17.174,0,0,1-.609-3.409,5.73,5.73,0,0,0-.235-1.39,5.284,5.284,0,0,0-.617-1.1c-.416-.624-.808-1.213-.5-1.723.2-.336.619-.885,1.128-.812a.726.726,0,0,1,.506.355,3.463,3.463,0,0,0,2.021,1,3.9,3.9,0,0,0,.889.082,1.185,1.185,0,0,1,.959.308,1.665,1.665,0,0,0,1.23-.737.234.234,0,0,0-.069-.312,14.867,14.867,0,0,0-3.111-1.4c-.541-.2-1.051-.394-1.405-.55-.149-.064-.309-.134-.478-.2-1.65-.706-2.714-1.208-2.512-1.726.039-.1.131-.261.253-.485.382-.7.971-2.56.569-3.106a5.064,5.064,0,0,0-3.219-1.821,3.478,3.478,0,0,0-.824-.026,3.018,3.018,0,0,0-2.3.926,1.481,1.481,0,0,0-.021,1.373A6.6,6.6,0,0,0,53,54.849c.452.653.844,1.218.262,1.829a3.551,3.551,0,0,1-1.669.736c-.646.167-1.257.326-1.281.7l-.012.054a1.7,1.7,0,0,1-1.51.841c-.228.023-.5.031-.772.039-.621.019-1.473.044-1.615.3-.041.077-.016.194.079.351.505.838.732,1.021.953,1.053a.973.973,0,0,0,.315-.02c.262-.051.613-.141,1.02-.247.483-.125,1.029-.265,1.554-.371a7.545,7.545,0,0,0,.931-.291,3.325,3.325,0,0,1,1.307-.312Z"/><path class="cls-14" d="M55.637,56.193a3.684,3.684,0,0,1-2.193-1.25l.323-.23a3.149,3.149,0,0,0,2.035,1.1,2.022,2.022,0,0,0,1.621-.556l-.052.113c-.5.493-.817.9-1.566.838-.055,0-.112-.011-.168-.019Z"/><path class="cls-14" d="M54.785,53.389a.482.482,0,0,1-.571.437.584.584,0,0,1-.5-.593.48.48,0,0,1,.569-.437A.583.583,0,0,1,54.785,53.389Z"/><path class="cls-14" d="M57.386,53.493a.489.489,0,0,1-.6.409.59.59,0,0,1-.533-.572.488.488,0,0,1,.6-.41A.592.592,0,0,1,57.386,53.493Z"/><path class="cls-15" d="M56.578,59.247a.4.4,0,0,1-.432.407.484.484,0,0,1-.374-.525.4.4,0,0,1,.435-.407A.482.482,0,0,1,56.578,59.247Z"/><path class="cls-16" d="M56.7,60.675a.39.39,0,0,1-.48.327.478.478,0,0,1-.434-.459.392.392,0,0,1,.483-.327A.472.472,0,0,1,56.7,60.675Z"/><path class="cls-14" d="M56.6,62.246a.349.349,0,0,1-.4.337.424.424,0,0,1-.35-.447.351.351,0,0,1,.4-.337A.422.422,0,0,1,56.6,62.246Z"/></g></svg>