<svg id="word" xmlns="http://www.w3.org/2000/svg" xmlns:xlink="http://www.w3.org/1999/xlink" viewBox="0 0 160 160"><defs><style>.cls-1,.cls-10,.cls-12,.cls-13,.cls-14,.cls-16,.cls-17,.cls-18,.cls-20,.cls-21,.cls-4,.cls-5,.cls-6,.cls-7{stroke:#9c4c9c;}.cls-1,.cls-14,.cls-16,.cls-18,.cls-20,.cls-4{stroke-miterlimit:10;}.cls-1,.cls-10,.cls-21,.cls-5,.cls-6,.cls-7{stroke-width:0.23px;}.cls-1{fill:url(#radial-gradient);}.cls-2{fill:#43632e;}.cls-3{fill:#194f27;}.cls-4{fill:#f06b92;}.cls-12,.cls-13,.cls-14,.cls-16,.cls-17,.cls-18,.cls-20,.cls-4{stroke-width:0.46px;}.cls-5{fill:#f9b717;}.cls-6{fill:none;}.cls-7{fill:#ea2127;}.cls-8{opacity:0.17;}.cls-13,.cls-20,.cls-9{fill:#fff;}.cls-10{fill:#9e489a;}.cls-11{fill:url(#radial-gradient-2);}.cls-12{fill:#fde1d3;}.cls-14{fill:#f08cb9;}.cls-15{fill:#be7c34;}.cls-16{fill:#fde0ce;}.cls-17{fill:#eed0c1;stroke-linecap:round;}.cls-18{fill:#de8e3e;}.cls-19{fill:#9c4c9c;}.cls-21{fill:#28aae1;}</style><radialGradient id="radial-gradient" cx="94.605" cy="74.527" r="60.644" gradientUnits="userSpaceOnUse"><stop offset="0" stop-color="#8fc64f"/><stop offset="1" stop-color="#51753f"/></radialGradient><radialGradient id="radial-gradient-2" cx="97.556" cy="13.032" r="7.46" gradientUnits="userSpaceOnUse"><stop offset="0" stop-color="#fff"/><stop offset="1" stop-color="#ffc906"/></radialGradient></defs><path class="cls-1" d="M70.493,112.678s-15.51,4.874-19.473,5.85-17.752-.327-14.649,2.111,2.068,1.952,5,2.6,3.965-1.3,5.168.321-2.927.325-1.378,2.6,5.344-.325,8.618-.488,3.964-.813,2.07.326-7.758,3.736-5.344,4.059,5-.649,5.172,0-1.9,1.951,1.9,1.465,3.1-.489,4.48-1.626,1.9-1.787,3.963-2.275,3.275-2.276,2.066-.49-6.029,3.087-4.653,4.551,4.31.488,5.517.652-.345,0,2.584,0,3.79-1.138,6.549-.164-2.067,2.112,4.31,1.787,2.929-1.787,8.272-1.138,3.275-.323,6.718.812,7.93,2.764,6.723.977-1.379-4.39,1.034-2.926a8.333,8.333,0,0,0,3.792,1.464s-6.72-5.2-.173-3.089,5.861,2.6,9.649,3.9,4.655.813,7.067.651a14.34,14.34,0,0,1,6.72.65c3.105.973,6.207,3.248,4.483.487s-7.241-4.549-2.931-3.9,6.2,1.785,8.444,1.948,1.724-1.624-.172-2.436,2.759.324,5.515.812,3.964-.162,1.38-1.952-5-2.436-2.757-2.436,6.2-.324,7.064-1.137-5.86-1.786-9.649-2.6-11.029-3.087-13.1-4.385-8.1-3.415-8.619-4.55-3.1-3.736-.686-2.761,3.443,2.274,4.479,2.274-1.207-2.438,2.586-.325,9.305,1.785,6.376,0-7.753-5.04-5-4.55.864,1.626,5,1.787,5.515.65,3.963-.648-2.068-.653.689-.653,5,.489,2.757-.65-.86-1.462,1.724-1.786,6.375.327,3.1-1.138a37.7,37.7,0,0,0-11.893-3.086c-3.617-.164-8.787-1.95-11.546-4.55s1.553-1.137,1.553-1.137,1.034,2.6,2.239,1.3,2.933-.813,4.137-.813,5.343-.812,1.721-2.274,9.653.164,6.206-1.624-8.617-1.625-11.2-2.437-9.479-3.414-10.684-4.874-2.412-3.9-.518-2.6,4.135,2.6,3.79,1.3.862-1.3,1.724-1.3,2.068-1.139.69-1.626-4.826-.812-1.376-.486,5.339,1.461,6.719.324,1.893-1.626-.864-2.439a22.945,22.945,0,0,1-8.443-3.9c-3.275-2.439-7.409-4.226-9.65-5.85S106,67.021,107.717,68s3.1,2.765,1.725.977.345-3.412,1.378-2.113.344,1.624,2.412,1.95,1.726-.324,1.381-1.136.345-1.787,3.443-.488,5.173-1.3,1.036-2.6,6.549.164,3.793-1.3-5.862-2.44-7.068-3.25-5.342-2.6-2.757-2.275,3.274.324,1.553-.651a33.035,33.035,0,0,1-5.516-3.247c-2.586-1.951-6.031-3.735-3.62-3.25s3.965.973,3.965.973-1.725-.486-.517-.973a5.291,5.291,0,0,1,2.413-.485c.686,0,3.444.485,2.928-.652s-2.41-1.788-3.963-2.437a30.682,30.682,0,0,1-6.032-3.74c-1.036-.971-2.066-3.736-.691-3.087s5,2.44,3.621.489-2.585-2.764-4.653-4.872-2.585-5.039-1.894-4.389,2.235,2.6,2.066.974-2.411-3.736-2.757-5.846,1.033-.329,2.242.323.17-1.951-1.9-4.388-1.276-5.946-1.966-7.895-.564-4.451-1.316-.627c-.628,3.191-2.235,5.923-2.235,6.9S90,25.087,91.949,25.453c1,.188,5.085-1.486,3.532.137s-6.031,3.738-3.793,4.875,3.448-.162,2.245,1.137-2.413,3.249-3.965,5.038S85.489,41.351,84.106,42s-3.272,2.436-.169,2.274,4.309-3.086,4.651-2.111-2.239,2.6-.173,2.437,3.792-2.925,2.929-.489-2.929,3.412-5.686,5.035-6.892,6.338-8.444,7.315-11.375,5.522-6.893,5.2,8.617-3.741,6.893-1.626-6.551,4.549-2.757,4.224,9.823-4.386,9.135-2.111-3.277,4.549-5.516,6.173S64.29,70.27,64.98,72.384s3.963,1.789,5.513.977,2.242.971,1.207,1.623-5.687,1.464-1.379,1.464,4.653-.815,6.377-1.139.861.813,3.445-.164,1.381-.647-.342.65-5.171,1.3-2.415,1.787,5.513.326,2.757,2.114S73.6,82.3,69.976,83.757s-6.376,5.037-8.615,5.2-9.825,1.625-8.276,2.44,4.656-1.464,5-.164.344,1.46,2.758,1.135,7.924-1.135,5.34.325-10,.978-7.066,2.44,6.9-.488,6.376.647-4.133,1.628.175,1.464,6.2-3.736,6.2-1.788-1.9,2.761.343,2.6,5.344-3.088,4.657-.648-5.689,3.247-8.793,4.061-15.507,2.6-13.442,4.225,6.207.973,5.686,1.947-3.961,1.626-1.893,1.95a29.863,29.863,0,0,0,8.444-.162c2.929-.485,6.723-2.6,5-.164S62.74,111.7,64.29,112.03,70.493,112.678,70.493,112.678Z"/><path class="cls-2" d="M85.849,52.82c1.476-.54,2.526-1.812,4.03-2.282a24.424,24.424,0,0,0-2.76,4.241,41.071,41.071,0,0,0,8.332-4.969l-1.464,7.277q2.758-4.338,5.126-8.867s-3.09,4.626-3.34,4.135.542-3.736.542-3.962-1.836,1.7-3.13,2.339-3.549,2.6-2.881.906a14.953,14.953,0,0,1,1.245-2.566s-3.082,1.17-3.374,1.4S85.849,52.82,85.849,52.82Z"/><path class="cls-2" d="M109.664,57.122a2.878,2.878,0,0,1-2.235-.57l-4.191-2.485,4.421,4.07a49.459,49.459,0,0,1-5.507-3.231c1.532,2.283.9,5.281,2.063,7.736a81.626,81.626,0,0,1-7.007-9.514s4.993,6.849,5.077,5.906-1.08-2.906-1.208-3.773-.206-2.491,0-2.133,2.377,2.133,2.043,1.642a4.94,4.94,0,0,1-.626-1.4c0-.113-.37-1.094.942-.151s3.107,2.339,3.691,2.717A26.658,26.658,0,0,0,109.664,57.122Z"/><path class="cls-2" d="M99.5,69.141a34.34,34.34,0,0,1-2.85,7.358c-.628,1.2-1.569,2.509-3.029,2.6a20.3,20.3,0,0,1,1.766-6.774l-2.406,2.688A9.2,9.2,0,0,1,91.2,76.674a3.51,3.51,0,0,1-2.4.606,14.521,14.521,0,0,1,2.869-4.072,12.083,12.083,0,0,1-5.87,2.745l-1.422-.316a10.6,10.6,0,0,0,3.8-1.057c2-.981,4.467-2.792,4.467-2.264s-2.421,3.547-2.338,3.736,2.087-1.811,2.881-2.377,3.464-2.566,3.464-2.566-1.593,6.339-1.485,6.414S98.236,71.6,98.236,71.6Z"/><path class="cls-2" d="M120.923,75.4A25.545,25.545,0,0,1,109.944,71.3a24.56,24.56,0,0,1,3.3,5.083L107.892,74.2a4.9,4.9,0,0,1-2.676-1.874,33.159,33.159,0,0,1,2.224,6.308,20.4,20.4,0,0,1-6.363-6.66s4.3,5.433,4.631,4.565-1.572-5.99-1.572-5.99,6.688,4.962,6.864,4.042-2.328-4.353-2.328-4.353,3.84,2.075,4.717,2.528S120.923,75.4,120.923,75.4Z"/><path class="cls-2" d="M87.136,61.5c-1.895,2.767-5.525,4.086-8.173,6.291a26.189,26.189,0,0,1,3.48-.667,19.711,19.711,0,0,0,3.107-.488,4.01,4.01,0,0,0,2.438-1.7,21.006,21.006,0,0,1-1.115,5.41c1.575-2.441,4.764-3.725,6.432-6.114q-.638,2.96-1.364,5.9a39.964,39.964,0,0,0,3.993-4.793,12.024,12.024,0,0,0,1.393,4.891,44.627,44.627,0,0,0,1.878-4.821,6.319,6.319,0,0,0,4.931,5.137,11.366,11.366,0,0,1-1.475-5.931s-.334,2.9-.293,3.582-.167.944-1-.3a26.041,26.041,0,0,1-2.127-4.037c-.085-.377-.711.453-.962,1.132s-.72,3.434-1.069,3.094-.684-4.339-.6-4.679a27.2,27.2,0,0,0-2.714,3.547c-.25.491-.96.453-.709-.3s.709-4.415.709-4.415-2.129,2.6-2.546,3.321-2.964,2.754-3.047,1.811a21.1,21.1,0,0,1,.918-4.188s-3.423,2.15-3.966,2.339-2.129.5-2.129.5a10.457,10.457,0,0,0,2.675-2.2A11.566,11.566,0,0,0,87.136,61.5Z"/><path class="cls-2" d="M99.239,80.461a32.811,32.811,0,0,0,8.241,5.9,14.963,14.963,0,0,0-2.342-3.405c1.494,1.037,3.155,2.125,5.038,2.068,0,0-1.212-.7-1.922-1.12s-4.633-2.339-4.633-2.339,1.839,1.846,1.086,1.848S99.239,80.461,99.239,80.461Z"/><path class="cls-2" d="M75.044,88.792a43.16,43.16,0,0,0,8.819-3.011,28.412,28.412,0,0,0-1.626,3.263,31.36,31.36,0,0,0,5.679-4.069,16.473,16.473,0,0,0-1.641,4.335c1.814-.252,3.174-1.583,4.379-2.834l1.687-1.751a10.587,10.587,0,0,0,2.912-4.2S91.8,85.1,90.92,85.555s-2.881,1.868-2.474.821a8,8,0,0,0,.376-2.547s-3.35,2.858-4.164,2.943.031-1.613.031-1.7-5.541,1.953-5.948,2.123S75.044,88.792,75.044,88.792Z"/><path class="cls-3" d="M121.027,102.023A21.253,21.253,0,0,1,110.845,99.8c.556,1.041,1.882,1.51,3.09,1.888a21,21,0,0,1-9.1-1.7q2.357,1.73,4.851,3.3c-5.172-.951-10.243-2.858-14.075-6.138l5.158,7.636A19.83,19.83,0,0,1,93.539,97.5s3.737,4.782,3.862,4.027-2.834-5.584-2.834-5.584a29.911,29.911,0,0,0,5.422,3.4c2.129.83,6.014,2.641,4.718,1.509s-6.586-3.509-1.77-2.075,7.53,2.15,7.78,1.962-2.838-2.906-1.377-2.528a30.409,30.409,0,0,1,3.631,1.207c3.674,1.245,8.221,2.626,8.221,2.626Z"/><path class="cls-3" d="M63.384,116.93a23.784,23.784,0,0,0,6.6-2.746c.6-.366,1.229-.831,1.317-1.48a21.451,21.451,0,0,1-1.245,4.192,13.651,13.651,0,0,1,2.865-3.54c.963-.854,2.137-1.733,2.214-2.95a11.142,11.142,0,0,1-.111,5.931,11.689,11.689,0,0,0,7.105-8.763s-3.845,6.829-4.68,6.527-2.129-5.056-2.129-5.056-1.252,3.434-2.337,3.585-1.378-.566-1.378-.906-1.169,1.547-2.588,2.415S63.384,116.93,63.384,116.93Z"/><path class="cls-3" d="M99.353,112.616a110.748,110.748,0,0,0-6.841,9.179,4.4,4.4,0,0,1-.811.991,20.737,20.737,0,0,1-2.693,1.829c-1.952.729-2.623.231-4.651.769a4.682,4.682,0,0,0,2.329-2.492,48.334,48.334,0,0,0,2.34-5.194c-1.651,1.047-2.51,2.849-4,4.075-2.341,1.925-5.79,2.132-8.723,3.207.439-.105.652-.543.8-.93q1.134-2.93,2.006-5.936a3.654,3.654,0,0,1-1.4,2.463,11.521,11.521,0,0,1-2.622,1.541,14.618,14.618,0,0,1-4.3,1.449,11.251,11.251,0,0,0,2.673-3.786l-4.959,2.23a8.7,8.7,0,0,1-2.007.711c-1.3.232-2.645-.113-3.955.049a14.835,14.835,0,0,0,4.59-.948c2.3-.906,6.345-2.325,7.514-2.823s.71.785-.292,1.577-1.962,2.038-.877,1.321a13.75,13.75,0,0,0,3.59-2.9c.877-1.215,2.547-4.8,2.63-3.215s-1.8,6.924-1.043,7.1,2.17-.273,4.174-1.707,6.22-4.905,7.222-5.056-.835,2.981-1.253,4.075-2.963,3.4-1.21,3.358,3.391-1.969,5.014-3.909S99.353,112.616,99.353,112.616Z"/><path class="cls-3" d="M120.673,128.756a13.873,13.873,0,0,1-7.046-2.984l3.22,3.486a39.524,39.524,0,0,1-7.238-4.242l3.791,6.13-4.237-2.25c-1.936-1.028-4.044-2.257-4.582-4.228a55.889,55.889,0,0,0,5.051,3.532c.876.34.876-.226.125-1.434a14.848,14.848,0,0,1-1.294-3.32s5.3,4.528,5.176,3.546-.375-2.264-.375-2.264a27.311,27.311,0,0,0,2.88,2.038C117.4,127.483,120.673,128.756,120.673,128.756Z"/><path class="cls-3" d="M103.052,105.876s5.7,6.171,6.162,5.38-1.419-6.48-1.419-6.48,3.715,3.2,4.008,3.275.417-.793.375-1.133,1.628,1.283,3.381,1.887,4.709,1.349,4.709,1.349a30.253,30.253,0,0,1-6.975-1.284l2.293,1.927a19.825,19.825,0,0,1-6.568-3.949,18.3,18.3,0,0,1,2.321,6.991c-3.123-2.434-6.3-4.928-8.4-8.135"/><path class="cls-2" d="M94.6,32.592s-3.252,5.547-3.879,6.415,1.724-.606,2.26-1.19-.49,1.039-.373,2.246,1.092.113,1.4-.906.932.3,1.809,2.717S96.882,42.4,97,40.139s.574-1.434,1.618.15,4.788,6.189,3.479,2.151-1.692-6.829-1.813-7.018,0,3.66,0,4.641-1.218-1.4-1.943-2.246-1.376.26-1.844,1.1-1.2.945-1.232-.927-.369-2.646-.658-1.589a15.654,15.654,0,0,1-.832,2.2s.292-3.324-.125-2.459A2.39,2.39,0,0,1,92.439,37.3Z"/><path class="cls-4" d="M83.551,104.55a5.542,5.542,0,1,1-5.542-5.542A5.541,5.541,0,0,1,83.551,104.55Z"/><path class="cls-5" d="M76.933,99.452,77,98.369a.548.548,0,0,1,.52-.452c.451-.023,1.038-.023,1.038-.023a.36.36,0,0,1,.294.248,11.746,11.746,0,0,1,.113,1.31A7.493,7.493,0,0,1,76.933,99.452Z"/><path class="cls-6" d="M78.232,96.757s.128-1.221-.534-.738-.508.586-.077,1.273a5.239,5.239,0,0,1,.331.609"/><path class="cls-7" d="M76.327,96.786a6.017,6.017,0,0,1-1.03-.228,1.311,1.311,0,0,1-.62-.754,1.61,1.61,0,0,0-.529.162.453.453,0,0,0-.121.588.911.911,0,0,0,.711.526,9.123,9.123,0,0,0,1.661,0c.734,0,1.245-.146.767-.247A7.567,7.567,0,0,0,76.327,96.786Z"/><path class="cls-7" d="M78.746,96.893a7.167,7.167,0,0,0,1.6-.542c.254-.223.049-.507.471-.507s.971.264.862.609-.129.525-.6.627A12.983,12.983,0,0,1,78.746,96.893Z"/><path class="cls-7" d="M77.53,96.311a7.873,7.873,0,0,1-1.215-1.236c-.374-.546-.856-.951-1.361-.871s-.179.334-.638.892a1.839,1.839,0,0,0-.361,1.336c.048.122.108-.385.445-.485s.386-.082.891.2,1.012.406,1.289.548a4.481,4.481,0,0,0,1.046.222Z"/><path class="cls-7" d="M78.12,96.351a4.2,4.2,0,0,0,1.012-1.093,2.671,2.671,0,0,1,1.4-1.155c.337-.081.325-.142.529.426s.6,1.56.638,1.782-.228-.183-.421-.284-.469-.061-1.059.081-.772.446-1.241.668a1.4,1.4,0,0,1-.951.062Z"/><path class="cls-7" d="M78.276,96.838a10.95,10.95,0,0,0,2.059,0c.7-.122.77.121,1.119.425s.373-.041.8,1.195a6.371,6.371,0,0,1,.421,1.741s-.578-1.337-.867-1.4-.433-.446-.385.06a11.818,11.818,0,0,1-.288,2.026c-.037.262.035-.121-.181-1.2s-.036-1.479-.469-1.964a1.246,1.246,0,0,0-1.1-.507A3.905,3.905,0,0,1,78.276,96.838Z"/><path class="cls-7" d="M77.3,96.983a5.092,5.092,0,0,0-1.806.44,1.853,1.853,0,0,0-.7,1.562,6.121,6.121,0,0,1-.3,2.044c-.191.324.012-.547-.048-1.215s-.107-1.235-.445-.871a8.935,8.935,0,0,0-.866,1.438,12.252,12.252,0,0,1,.372-1.619c.254-.811.53-1.339,1.047-1.5a17.109,17.109,0,0,1,2.032-.324Z"/><path class="cls-7" d="M77.446,96.169a1.74,1.74,0,0,0-.108.424,2.226,2.226,0,0,1-.048.366l1.179.1s-.073-.566-.095-.689a.374.374,0,0,0-.145-.2A2.4,2.4,0,0,0,77.446,96.169Z"/><g class="cls-8"><path class="cls-9" d="M74.185,104.158a2.842,2.842,0,0,1,.665-1.842c.036-.051.072-.1.107-.154l-.7-.616a5.747,5.747,0,0,0-.794,2.372A1.957,1.957,0,0,0,74.185,104.158Z"/><path class="cls-9" d="M74.408,104.472a3.15,3.15,0,0,0,.486,1.963l.843-.392a1.737,1.737,0,0,1-.388-1.585c.012-.046.025-.09.037-.133a4.791,4.791,0,0,1-.978.036C74.407,104.4,74.408,104.436,74.408,104.472Z"/><path class="cls-9" d="M74.408,104.182a5.112,5.112,0,0,0,1.035-.054,10.234,10.234,0,0,1,.418-1.166l-.732-.648-.08.114A2.7,2.7,0,0,0,74.408,104.182Z"/><path class="cls-9" d="M74.717,106.517a3.338,3.338,0,0,1-.533-2.083c0-.032,0-.066,0-.1a2.389,2.389,0,0,1-.707-.218,13.168,13.168,0,0,0,.7,2.648Z"/></g><path class="cls-4" d="M118.059,89.465a5.542,5.542,0,1,1-5.542-5.542A5.541,5.541,0,0,1,118.059,89.465Z"/><path class="cls-5" d="M111.441,84.366l.068-1.083a.548.548,0,0,1,.52-.451c.451-.023,1.038-.023,1.038-.023a.36.36,0,0,1,.294.248,11.713,11.713,0,0,1,.113,1.309A7.453,7.453,0,0,1,111.441,84.366Z"/><path class="cls-6" d="M112.74,81.672s.128-1.221-.534-.738-.508.585-.077,1.273a5.184,5.184,0,0,1,.331.608"/><path class="cls-7" d="M110.835,81.7a6.017,6.017,0,0,1-1.03-.228,1.311,1.311,0,0,1-.62-.754,1.61,1.61,0,0,0-.529.162.452.452,0,0,0-.121.587.91.91,0,0,0,.711.527,9.123,9.123,0,0,0,1.661,0c.734,0,1.245-.146.767-.248A7.763,7.763,0,0,0,110.835,81.7Z"/><path class="cls-7" d="M113.254,81.807a7.155,7.155,0,0,0,1.6-.541c.254-.223.049-.507.471-.507s.971.264.862.609-.129.525-.6.627A12.97,12.97,0,0,1,113.254,81.807Z"/><path class="cls-7" d="M112.038,81.226a7.921,7.921,0,0,1-1.215-1.236c-.374-.546-.856-.951-1.361-.871s-.179.333-.638.891a1.842,1.842,0,0,0-.361,1.337c.048.121.108-.385.445-.486s.386-.081.892.2,1.011.406,1.288.549a4.481,4.481,0,0,0,1.046.222Z"/><path class="cls-7" d="M112.628,81.266a4.193,4.193,0,0,0,1.012-1.094,2.681,2.681,0,0,1,1.4-1.155c.337-.08.325-.141.529.427s.6,1.56.638,1.782-.228-.183-.421-.284-.469-.061-1.059.081-.772.445-1.241.668a1.4,1.4,0,0,1-.951.062Z"/><path class="cls-7" d="M112.784,81.753a11.041,11.041,0,0,0,2.059,0c.7-.122.77.12,1.119.425s.373-.042.8,1.194a6.38,6.38,0,0,1,.421,1.741s-.578-1.337-.867-1.4-.433-.446-.385.059a11.845,11.845,0,0,1-.288,2.027c-.037.262.035-.121-.181-1.195s-.036-1.479-.469-1.965a1.25,1.25,0,0,0-1.1-.507A3.914,3.914,0,0,1,112.784,81.753Z"/><path class="cls-7" d="M111.81,81.9a5.092,5.092,0,0,0-1.806.44,1.853,1.853,0,0,0-.7,1.562,6.115,6.115,0,0,1-.3,2.043c-.191.325.012-.546-.048-1.214s-.107-1.235-.445-.871a8.935,8.935,0,0,0-.866,1.438,12.127,12.127,0,0,1,.373-1.619c.253-.811.529-1.339,1.046-1.5a17.167,17.167,0,0,1,2.032-.325Z"/><path class="cls-7" d="M111.954,81.084a1.727,1.727,0,0,0-.108.424,2.207,2.207,0,0,1-.048.365l1.179.1s-.072-.567-.095-.69a.37.37,0,0,0-.145-.2A2.377,2.377,0,0,0,111.954,81.084Z"/><g class="cls-8"><path class="cls-9" d="M108.693,89.073a2.842,2.842,0,0,1,.665-1.842c.036-.051.072-.1.107-.154l-.7-.616a5.741,5.741,0,0,0-.794,2.372A1.976,1.976,0,0,0,108.693,89.073Z"/><path class="cls-9" d="M108.916,89.386a3.159,3.159,0,0,0,.486,1.964l.844-.392a1.738,1.738,0,0,1-.389-1.586c.012-.045.025-.089.037-.132a4.864,4.864,0,0,1-.978.036C108.915,89.313,108.916,89.35,108.916,89.386Z"/><path class="cls-9" d="M108.916,89.1a4.971,4.971,0,0,0,1.035-.054,10.481,10.481,0,0,1,.418-1.165l-.732-.648-.079.114A2.7,2.7,0,0,0,108.916,89.1Z"/><path class="cls-9" d="M109.225,91.432a3.338,3.338,0,0,1-.533-2.083c0-.032,0-.066,0-.1a2.344,2.344,0,0,1-.706-.217,13.11,13.11,0,0,0,.7,2.648Z"/></g><path class="cls-7" d="M111.658,56.3a4.378,4.378,0,1,1-4.378-4.378A4.377,4.377,0,0,1,111.658,56.3Z"/><path class="cls-5" d="M106.43,52.268l.053-.856a.435.435,0,0,1,.411-.357c.357-.018.82-.018.82-.018a.283.283,0,0,1,.232.2,9.239,9.239,0,0,1,.09,1.035A5.919,5.919,0,0,1,106.43,52.268Z"/><path class="cls-6" d="M107.456,50.139s.1-.965-.422-.583-.4.462-.061,1.005a4.1,4.1,0,0,1,.262.481"/><path class="cls-7" d="M105.951,50.161a4.718,4.718,0,0,1-.813-.179,1.034,1.034,0,0,1-.49-.6,1.279,1.279,0,0,0-.419.128.358.358,0,0,0-.095.464.72.72,0,0,0,.562.416,7.187,7.187,0,0,0,1.312,0c.58,0,.983-.115.606-.2A6.137,6.137,0,0,0,105.951,50.161Z"/><path class="cls-7" d="M107.862,50.246a5.681,5.681,0,0,0,1.264-.428c.2-.176.039-.4.372-.4s.767.208.681.481-.1.415-.472.495A10.233,10.233,0,0,1,107.862,50.246Z"/><path class="cls-7" d="M106.9,49.787a6.242,6.242,0,0,1-.961-.977c-.294-.431-.676-.751-1.075-.688s-.141.264-.5.7a1.458,1.458,0,0,0-.285,1.056c.038.1.086-.3.352-.383s.3-.065.7.158.8.321,1.018.434a3.547,3.547,0,0,0,.827.175Z"/><path class="cls-7" d="M107.367,49.818a3.314,3.314,0,0,0,.8-.864,2.116,2.116,0,0,1,1.1-.912c.266-.064.256-.112.418.337s.476,1.232.5,1.408-.18-.145-.333-.225-.37-.048-.837.064-.609.352-.98.528a1.1,1.1,0,0,1-.751.049Z"/><path class="cls-7" d="M107.491,50.2a8.7,8.7,0,0,0,1.626,0c.552-.1.609.095.884.336s.3-.033.628.943a5.032,5.032,0,0,1,.333,1.376s-.457-1.057-.685-1.1-.342-.353-.3.046a9.271,9.271,0,0,1-.228,1.6c-.029.207.028-.095-.143-.944s-.028-1.168-.37-1.552a.985.985,0,0,0-.866-.4A3.1,3.1,0,0,1,107.491,50.2Z"/><path class="cls-7" d="M106.721,50.317a4.028,4.028,0,0,0-1.427.348,1.465,1.465,0,0,0-.552,1.234,4.843,4.843,0,0,1-.237,1.614c-.151.257.009-.431-.038-.959s-.085-.976-.352-.688A7.057,7.057,0,0,0,103.431,53a9.672,9.672,0,0,1,.294-1.279c.2-.641.419-1.058.827-1.184a13.518,13.518,0,0,1,1.6-.257Z"/><path class="cls-7" d="M106.835,49.674a1.371,1.371,0,0,0-.085.335,1.748,1.748,0,0,1-.038.289l.931.08s-.057-.447-.075-.545a.3.3,0,0,0-.114-.159A1.9,1.9,0,0,0,106.835,49.674Z"/><g class="cls-8"><path class="cls-9" d="M104.259,55.985a2.245,2.245,0,0,1,.525-1.455c.029-.04.057-.08.085-.121l-.55-.487a4.536,4.536,0,0,0-.627,1.874A1.549,1.549,0,0,0,104.259,55.985Z"/><path class="cls-9" d="M104.435,56.233a2.5,2.5,0,0,0,.384,1.551l.666-.31a1.373,1.373,0,0,1-.306-1.252c.009-.036.019-.07.029-.105a3.784,3.784,0,0,1-.773.029Z"/><path class="cls-9" d="M104.435,56a3.989,3.989,0,0,0,.818-.043,8.156,8.156,0,0,1,.33-.921l-.578-.511-.063.09A2.135,2.135,0,0,0,104.435,56Z"/><path class="cls-9" d="M104.679,57.849a2.646,2.646,0,0,1-.421-1.646v-.077a1.894,1.894,0,0,1-.558-.172,10.351,10.351,0,0,0,.555,2.092Z"/></g><path class="cls-10" d="M89.582,57.606a3.647,3.647,0,1,1-3.647-3.648A3.646,3.646,0,0,1,89.582,57.606Z"/><path class="cls-5" d="M85.227,54.25l.044-.712a.363.363,0,0,1,.343-.3c.3-.015.683-.015.683-.015a.235.235,0,0,1,.193.163,7.708,7.708,0,0,1,.075.862A4.9,4.9,0,0,1,85.227,54.25Z"/><path class="cls-6" d="M86.081,52.477s.085-.8-.351-.486-.334.386-.05.838a3.4,3.4,0,0,1,.217.4"/><path class="cls-7" d="M84.828,52.5a3.989,3.989,0,0,1-.678-.15.863.863,0,0,1-.408-.5,1.049,1.049,0,0,0-.348.107.3.3,0,0,0-.08.386.6.6,0,0,0,.468.346,5.955,5.955,0,0,0,1.093,0c.484,0,.819-.095.5-.162A4.973,4.973,0,0,0,84.828,52.5Z"/><path class="cls-7" d="M86.42,52.566a4.693,4.693,0,0,0,1.053-.356c.167-.147.032-.334.31-.334s.639.174.567.4-.085.346-.393.412A8.5,8.5,0,0,1,86.42,52.566Z"/><path class="cls-7" d="M85.62,52.184a5.169,5.169,0,0,1-.8-.814c-.246-.359-.563-.626-.9-.573s-.118.219-.42.586a1.209,1.209,0,0,0-.237.88c.032.08.071-.253.293-.319s.254-.054.586.132.666.267.848.361a2.979,2.979,0,0,0,.689.146Z"/><path class="cls-7" d="M86.008,52.21a2.757,2.757,0,0,0,.666-.72,1.763,1.763,0,0,1,.919-.76c.221-.053.213-.093.348.281s.4,1.026.42,1.173-.15-.121-.277-.187-.309-.04-.7.053-.507.293-.816.439a.919.919,0,0,1-.626.041Z"/><path class="cls-7" d="M86.111,52.53a7.162,7.162,0,0,0,1.354,0c.46-.08.508.08.737.28s.246-.027.523.786A4.2,4.2,0,0,1,89,54.742s-.38-.88-.57-.919-.285-.294-.253.039a7.818,7.818,0,0,1-.19,1.334c-.025.172.023-.08-.119-.787s-.024-.973-.309-1.293a.819.819,0,0,0-.722-.333A2.565,2.565,0,0,1,86.111,52.53Z"/><path class="cls-7" d="M85.47,52.626a3.34,3.34,0,0,0-1.189.289,1.22,1.22,0,0,0-.46,1.028,4.029,4.029,0,0,1-.2,1.345c-.126.214.008-.359-.032-.8s-.07-.813-.292-.573a5.858,5.858,0,0,0-.57.946,7.834,7.834,0,0,1,.245-1.065c.166-.534.348-.882.689-.987A11.274,11.274,0,0,1,85,52.6Z"/><path class="cls-7" d="M85.564,52.09a1.143,1.143,0,0,0-.071.279,1.445,1.445,0,0,1-.032.241l.777.066s-.048-.372-.063-.453a.242.242,0,0,0-.095-.133A1.567,1.567,0,0,0,85.564,52.09Z"/><g class="cls-8"><path class="cls-9" d="M83.418,57.348a1.873,1.873,0,0,1,.438-1.213l.071-.1-.459-.405a3.777,3.777,0,0,0-.522,1.561A1.3,1.3,0,0,0,83.418,57.348Z"/><path class="cls-9" d="M83.565,57.554a2.069,2.069,0,0,0,.32,1.292l.555-.258a1.144,1.144,0,0,1-.256-1.043l.025-.087a3.238,3.238,0,0,1-.644.024Z"/><path class="cls-9" d="M83.565,57.363a3.314,3.314,0,0,0,.681-.035,7.156,7.156,0,0,1,.275-.768l-.481-.426-.053.075A1.783,1.783,0,0,0,83.565,57.363Z"/><path class="cls-9" d="M83.768,58.9a2.194,2.194,0,0,1-.35-1.371v-.064a1.571,1.571,0,0,1-.465-.144,8.637,8.637,0,0,0,.463,1.743Z"/></g><path class="cls-4" d="M127.9,119.752a5.542,5.542,0,1,1-5.541-5.543A5.541,5.541,0,0,1,127.9,119.752Z"/><path class="cls-5" d="M121.286,114.653l.068-1.083a.549.549,0,0,1,.52-.452c.451-.023,1.038-.023,1.038-.023a.36.36,0,0,1,.294.248,11.746,11.746,0,0,1,.113,1.31A7.493,7.493,0,0,1,121.286,114.653Z"/><path class="cls-6" d="M122.585,111.958s.128-1.221-.534-.738-.508.586-.077,1.273a5.239,5.239,0,0,1,.331.609"/><path class="cls-7" d="M120.68,111.987a6.085,6.085,0,0,1-1.03-.227,1.312,1.312,0,0,1-.62-.755,1.593,1.593,0,0,0-.529.163.451.451,0,0,0-.121.587.909.909,0,0,0,.711.526,9.034,9.034,0,0,0,1.661,0c.734,0,1.245-.146.767-.247A7.826,7.826,0,0,0,120.68,111.987Z"/><path class="cls-7" d="M123.1,112.094a7.229,7.229,0,0,0,1.6-.541c.253-.224.048-.507.47-.507s.971.263.863.608-.13.526-.6.627A12.9,12.9,0,0,1,123.1,112.094Z"/><path class="cls-7" d="M121.883,111.512a7.873,7.873,0,0,1-1.215-1.236c-.373-.546-.856-.951-1.361-.871s-.179.334-.638.892a1.84,1.84,0,0,0-.361,1.337c.048.121.108-.385.445-.486s.387-.082.892.2,1.011.406,1.288.548a4.513,4.513,0,0,0,1.047.223Z"/><path class="cls-7" d="M122.473,111.553a4.213,4.213,0,0,0,1.012-1.094,2.681,2.681,0,0,1,1.4-1.155c.337-.08.325-.142.529.426s.6,1.56.638,1.782-.228-.183-.421-.284-.469-.06-1.059.081-.772.446-1.241.668a1.4,1.4,0,0,1-.951.062Z"/><path class="cls-7" d="M122.63,112.039a10.939,10.939,0,0,0,2.058,0c.7-.122.77.121,1.119.425s.373-.041.8,1.2a6.371,6.371,0,0,1,.421,1.741s-.578-1.337-.867-1.4-.433-.447-.385.059a11.818,11.818,0,0,1-.288,2.026c-.037.262.035-.121-.181-1.195s-.036-1.478-.469-1.964a1.245,1.245,0,0,0-1.1-.507A3.9,3.9,0,0,1,122.63,112.039Z"/><path class="cls-7" d="M121.655,112.184a5.077,5.077,0,0,0-1.806.441,1.851,1.851,0,0,0-.7,1.561,6.121,6.121,0,0,1-.3,2.044c-.191.324.012-.547-.048-1.214s-.107-1.236-.445-.871a8.891,8.891,0,0,0-.866,1.438,12.16,12.16,0,0,1,.373-1.62c.253-.81.529-1.338,1.046-1.5a17.109,17.109,0,0,1,2.032-.324Z"/><path class="cls-7" d="M121.8,111.37a1.739,1.739,0,0,0-.108.425,2.225,2.225,0,0,1-.048.365l1.179.1s-.072-.566-.095-.689a.374.374,0,0,0-.145-.2A2.4,2.4,0,0,0,121.8,111.37Z"/><g class="cls-8"><path class="cls-9" d="M118.538,119.359a2.842,2.842,0,0,1,.665-1.842c.036-.05.072-.1.108-.154l-.7-.616a5.747,5.747,0,0,0-.794,2.372A1.963,1.963,0,0,0,118.538,119.359Z"/><path class="cls-9" d="M118.761,119.673a3.156,3.156,0,0,0,.486,1.963l.844-.392a1.737,1.737,0,0,1-.389-1.585c.013-.045.025-.089.037-.133a4.862,4.862,0,0,1-.978.037C118.76,119.6,118.761,119.637,118.761,119.673Z"/><path class="cls-9" d="M118.761,119.383a5.041,5.041,0,0,0,1.035-.054,10.529,10.529,0,0,1,.418-1.166l-.732-.648c-.026.039-.053.076-.079.114A2.7,2.7,0,0,0,118.761,119.383Z"/><path class="cls-9" d="M119.07,121.718a3.345,3.345,0,0,1-.533-2.083c0-.032,0-.066,0-.1a2.383,2.383,0,0,1-.706-.218,13.091,13.091,0,0,0,.7,2.648Z"/></g><path class="cls-7" d="M101.328,33.266a4.378,4.378,0,1,1-4.378-4.379A4.378,4.378,0,0,1,101.328,33.266Z"/><path class="cls-5" d="M96.1,29.238l.053-.856a.434.434,0,0,1,.411-.357c.356-.018.82-.018.82-.018a.283.283,0,0,1,.232.2,9.239,9.239,0,0,1,.09,1.035A5.919,5.919,0,0,1,96.1,29.238Z"/><path class="cls-6" d="M97.126,27.109s.1-.965-.422-.583-.4.462-.061,1.006a4.048,4.048,0,0,1,.262.48"/><path class="cls-7" d="M95.621,27.132a4.752,4.752,0,0,1-.813-.18,1.037,1.037,0,0,1-.491-.6,1.275,1.275,0,0,0-.418.128.358.358,0,0,0-.095.464.718.718,0,0,0,.561.416,7.2,7.2,0,0,0,1.313,0c.58,0,.983-.115.606-.2A6.076,6.076,0,0,0,95.621,27.132Z"/><path class="cls-7" d="M97.532,27.216a5.629,5.629,0,0,0,1.264-.428c.2-.176.039-.4.372-.4s.767.208.681.481-.1.415-.472.5A10.233,10.233,0,0,1,97.532,27.216Z"/><path class="cls-7" d="M96.571,26.757a6.253,6.253,0,0,1-.96-.977c-.3-.431-.676-.751-1.075-.688s-.141.264-.5.7a1.454,1.454,0,0,0-.285,1.057c.038.095.086-.305.352-.384s.3-.065.7.159.8.32,1.017.433a3.557,3.557,0,0,0,.827.175Z"/><path class="cls-7" d="M97.037,26.788a3.32,3.32,0,0,0,.8-.863,2.118,2.118,0,0,1,1.1-.913c.267-.063.257-.112.419.337s.476,1.232.5,1.408-.18-.145-.333-.225-.37-.048-.837.064-.609.352-.98.528a1.1,1.1,0,0,1-.751.049Z"/><path class="cls-7" d="M97.161,27.173a8.7,8.7,0,0,0,1.626,0c.552-.1.609.1.884.336s.295-.033.628.943a5.045,5.045,0,0,1,.332,1.376s-.456-1.056-.684-1.1-.342-.353-.3.047a9.3,9.3,0,0,1-.228,1.6c-.029.206.028-.1-.143-.945s-.028-1.168-.371-1.552a.984.984,0,0,0-.866-.4A3.087,3.087,0,0,1,97.161,27.173Z"/><path class="cls-7" d="M96.391,27.287a4.028,4.028,0,0,0-1.427.348,1.465,1.465,0,0,0-.552,1.234,4.843,4.843,0,0,1-.237,1.614c-.151.257.009-.431-.038-.959s-.085-.976-.352-.688a7.057,7.057,0,0,0-.684,1.136,9.71,9.71,0,0,1,.294-1.279c.2-.641.418-1.058.827-1.184a13.461,13.461,0,0,1,1.605-.256Z"/><path class="cls-7" d="M96.505,26.644a1.37,1.37,0,0,0-.086.336,1.747,1.747,0,0,1-.038.288l.932.08s-.057-.447-.075-.544a.3.3,0,0,0-.115-.16A1.9,1.9,0,0,0,96.505,26.644Z"/><g class="cls-8"><path class="cls-9" d="M93.929,32.956a2.248,2.248,0,0,1,.525-1.456c.028-.04.057-.08.085-.121l-.55-.487a4.536,4.536,0,0,0-.627,1.874A1.543,1.543,0,0,0,93.929,32.956Z"/><path class="cls-9" d="M94.105,33.2a2.492,2.492,0,0,0,.384,1.551l.666-.309a1.376,1.376,0,0,1-.307-1.253c.01-.035.02-.07.029-.1a3.774,3.774,0,0,1-.772.029C94.1,33.145,94.105,33.175,94.105,33.2Z"/><path class="cls-9" d="M94.105,32.974a3.985,3.985,0,0,0,.818-.042,8.076,8.076,0,0,1,.33-.921l-.578-.512-.063.09A2.135,2.135,0,0,0,94.105,32.974Z"/><path class="cls-9" d="M94.349,34.819a2.632,2.632,0,0,1-.421-1.645V33.1a1.865,1.865,0,0,1-.558-.172,10.332,10.332,0,0,0,.555,2.092Z"/></g><path class="cls-7" d="M101.814,96.141a4.378,4.378,0,1,1-4.377-4.379A4.377,4.377,0,0,1,101.814,96.141Z"/><path class="cls-5" d="M96.586,92.113l.054-.856a.434.434,0,0,1,.411-.357c.356-.018.819-.018.819-.018a.284.284,0,0,1,.233.2,9.2,9.2,0,0,1,.089,1.035A5.919,5.919,0,0,1,96.586,92.113Z"/><path class="cls-6" d="M97.612,89.984s.1-.965-.421-.583-.4.463-.061,1.006a4.217,4.217,0,0,1,.261.48"/><path class="cls-7" d="M96.108,90.007a4.757,4.757,0,0,1-.814-.18,1.038,1.038,0,0,1-.49-.6,1.268,1.268,0,0,0-.418.128.358.358,0,0,0-.095.464.715.715,0,0,0,.561.416,7.186,7.186,0,0,0,1.312,0c.581,0,.984-.115.607-.2A6.088,6.088,0,0,0,96.108,90.007Z"/><path class="cls-7" d="M98.018,90.091a5.674,5.674,0,0,0,1.265-.427c.2-.177.038-.4.372-.4s.766.208.681.481-.1.415-.473.5A10.241,10.241,0,0,1,98.018,90.091Z"/><path class="cls-7" d="M97.058,89.632a6.207,6.207,0,0,1-.96-.977c-.3-.431-.676-.751-1.075-.688s-.142.264-.5.7a1.454,1.454,0,0,0-.285,1.057c.038.095.085-.3.351-.384s.305-.065.7.159.8.32,1.018.433a3.557,3.557,0,0,0,.827.175Z"/><path class="cls-7" d="M97.524,89.664a3.335,3.335,0,0,0,.8-.864,2.114,2.114,0,0,1,1.1-.913c.266-.063.257-.112.418.337s.476,1.232.5,1.408-.18-.145-.332-.225-.371-.048-.837.064-.61.352-.981.528a1.1,1.1,0,0,1-.75.049Z"/><path class="cls-7" d="M97.648,90.048a8.686,8.686,0,0,0,1.625,0c.552-.1.609.095.885.336s.294-.033.628.943a5.045,5.045,0,0,1,.332,1.376s-.456-1.056-.684-1.1-.342-.353-.3.047a9.291,9.291,0,0,1-.229,1.6c-.029.206.029-.1-.142-.945s-.029-1.168-.371-1.552a.984.984,0,0,0-.866-.4A3.087,3.087,0,0,1,97.648,90.048Z"/><path class="cls-7" d="M96.878,90.162a4.024,4.024,0,0,0-1.427.348,1.465,1.465,0,0,0-.552,1.234,4.852,4.852,0,0,1-.238,1.615c-.151.256.01-.432-.038-.96s-.085-.976-.351-.688a7.085,7.085,0,0,0-.685,1.136,9.622,9.622,0,0,1,.3-1.279c.2-.64.418-1.058.827-1.184a13.461,13.461,0,0,1,1.6-.256Z"/><path class="cls-7" d="M96.991,89.519a1.383,1.383,0,0,0-.085.336,1.747,1.747,0,0,1-.038.288l.932.08s-.058-.447-.075-.544a.3.3,0,0,0-.115-.16A1.9,1.9,0,0,0,96.991,89.519Z"/><g class="cls-8"><path class="cls-9" d="M94.415,95.831a2.243,2.243,0,0,1,.526-1.455l.085-.122-.551-.487a4.536,4.536,0,0,0-.627,1.874A1.556,1.556,0,0,0,94.415,95.831Z"/><path class="cls-9" d="M94.591,96.078a2.492,2.492,0,0,0,.384,1.551l.667-.309a1.373,1.373,0,0,1-.307-1.253c.01-.035.019-.07.029-.1a3.784,3.784,0,0,1-.773.029Z"/><path class="cls-9" d="M94.592,95.849a3.975,3.975,0,0,0,.817-.042,8.515,8.515,0,0,1,.33-.921l-.578-.512-.063.09A2.13,2.13,0,0,0,94.592,95.849Z"/><path class="cls-9" d="M94.836,97.694a2.63,2.63,0,0,1-.421-1.645v-.078a1.883,1.883,0,0,1-.558-.172,10.4,10.4,0,0,0,.555,2.092Z"/></g><path class="cls-10" d="M105.9,70.719a3.647,3.647,0,1,1-3.647-3.647A3.647,3.647,0,0,1,105.9,70.719Z"/><path class="cls-5" d="M101.545,67.364l.045-.713a.36.36,0,0,1,.342-.3c.3-.015.683-.015.683-.015a.237.237,0,0,1,.194.163,7.646,7.646,0,0,1,.074.862A4.936,4.936,0,0,1,101.545,67.364Z"/><path class="cls-6" d="M102.4,65.59s.084-.8-.351-.485-.334.385-.051.837a3.333,3.333,0,0,1,.218.4"/><path class="cls-7" d="M101.147,65.609a3.955,3.955,0,0,1-.678-.149.864.864,0,0,1-.408-.5,1.059,1.059,0,0,0-.349.107.3.3,0,0,0-.079.387.6.6,0,0,0,.468.346,5.955,5.955,0,0,0,1.093,0c.483,0,.819-.1.5-.163A5.249,5.249,0,0,0,101.147,65.609Z"/><path class="cls-7" d="M102.738,65.679a4.715,4.715,0,0,0,1.054-.356c.166-.147.032-.333.31-.333s.638.173.567.4-.085.346-.393.413A8.493,8.493,0,0,1,102.738,65.679Z"/><path class="cls-7" d="M101.938,65.3a5.215,5.215,0,0,1-.8-.814c-.245-.359-.563-.626-.9-.573s-.118.22-.42.587a1.208,1.208,0,0,0-.237.88c.031.08.071-.254.292-.32s.255-.054.587.132.666.268.848.361A2.925,2.925,0,0,0,102,65.7Z"/><path class="cls-7" d="M102.326,65.323a2.775,2.775,0,0,0,.667-.719,1.761,1.761,0,0,1,.918-.761c.222-.053.214-.093.349.281s.4,1.027.42,1.173-.151-.121-.278-.187-.308-.04-.7.053-.508.294-.816.44a.926.926,0,0,1-.626.041Z"/><path class="cls-7" d="M102.43,65.644a7.252,7.252,0,0,0,1.354,0c.46-.081.507.079.737.279s.245-.027.523.787a4.2,4.2,0,0,1,.277,1.145s-.38-.88-.57-.919-.285-.293-.254.039a7.7,7.7,0,0,1-.19,1.334c-.024.172.024-.08-.119-.786s-.023-.974-.308-1.293a.819.819,0,0,0-.722-.334A2.561,2.561,0,0,1,102.43,65.644Z"/><path class="cls-7" d="M101.788,65.739a3.344,3.344,0,0,0-1.188.29,1.22,1.22,0,0,0-.46,1.028,4.055,4.055,0,0,1-.2,1.345c-.126.213.008-.36-.032-.8s-.071-.813-.293-.573a5.931,5.931,0,0,0-.57.947,8.047,8.047,0,0,1,.245-1.066c.167-.534.349-.881.689-.987a11.305,11.305,0,0,1,1.337-.213Z"/><path class="cls-7" d="M101.883,65.2a1.141,1.141,0,0,0-.071.28,1.445,1.445,0,0,1-.032.24l.776.067s-.047-.373-.062-.454a.247.247,0,0,0-.1-.133A1.59,1.59,0,0,0,101.883,65.2Z"/><g class="cls-8"><path class="cls-9" d="M99.737,70.461a1.869,1.869,0,0,1,.437-1.212c.024-.034.048-.067.071-.1l-.458-.406a3.767,3.767,0,0,0-.522,1.561A1.3,1.3,0,0,0,99.737,70.461Z"/><path class="cls-9" d="M99.883,70.667a2.086,2.086,0,0,0,.32,1.293l.556-.258a1.145,1.145,0,0,1-.256-1.044l.024-.087a3.235,3.235,0,0,1-.644.024C99.883,70.619,99.884,70.644,99.883,70.667Z"/><path class="cls-9" d="M99.884,70.477a3.321,3.321,0,0,0,.681-.036,6.593,6.593,0,0,1,.275-.767l-.482-.426-.052.074A1.773,1.773,0,0,0,99.884,70.477Z"/><path class="cls-9" d="M100.087,72.014a2.2,2.2,0,0,1-.351-1.371v-.065a1.569,1.569,0,0,1-.465-.143,8.683,8.683,0,0,0,.462,1.743Z"/></g><path class="cls-10" d="M75.83,81.229a3.647,3.647,0,1,1-3.647-3.648A3.646,3.646,0,0,1,75.83,81.229Z"/><path class="cls-5" d="M71.474,77.873l.045-.713a.361.361,0,0,1,.342-.3c.3-.015.683-.015.683-.015a.236.236,0,0,1,.194.163,7.689,7.689,0,0,1,.075.862A4.9,4.9,0,0,1,71.474,77.873Z"/><path class="cls-6" d="M72.329,76.1s.084-.8-.351-.486-.334.385-.051.838a3.369,3.369,0,0,1,.218.4"/><path class="cls-7" d="M71.076,76.119a3.989,3.989,0,0,1-.678-.15.863.863,0,0,1-.408-.5,1.076,1.076,0,0,0-.349.106.3.3,0,0,0-.079.387.6.6,0,0,0,.468.346,5.955,5.955,0,0,0,1.093,0c.483,0,.819-.1.5-.162A4.985,4.985,0,0,0,71.076,76.119Z"/><path class="cls-7" d="M72.668,76.189a4.762,4.762,0,0,0,1.053-.356c.167-.147.032-.334.31-.334s.638.174.567.4-.085.345-.393.412A8.5,8.5,0,0,1,72.668,76.189Z"/><path class="cls-7" d="M71.868,75.806a5.144,5.144,0,0,1-.8-.813c-.246-.359-.564-.626-.9-.573s-.118.219-.42.586a1.208,1.208,0,0,0-.237.88c.031.08.071-.253.293-.32s.254-.053.586.133.666.267.848.361a2.979,2.979,0,0,0,.689.146Z"/><path class="cls-7" d="M72.255,75.833a2.77,2.77,0,0,0,.667-.72,1.761,1.761,0,0,1,.918-.76c.222-.053.214-.093.349.281s.4,1.026.42,1.172-.15-.12-.278-.187-.308-.04-.7.054-.507.293-.816.439a.919.919,0,0,1-.626.041Z"/><path class="cls-7" d="M72.359,76.153a7.252,7.252,0,0,0,1.354,0c.46-.08.507.079.737.28s.245-.028.523.786a4.2,4.2,0,0,1,.277,1.146s-.38-.88-.57-.919-.285-.294-.254.039a7.623,7.623,0,0,1-.19,1.334c-.024.172.024-.08-.118-.787s-.024-.973-.309-1.293a.823.823,0,0,0-.722-.334A2.561,2.561,0,0,1,72.359,76.153Z"/><path class="cls-7" d="M71.717,76.248a3.344,3.344,0,0,0-1.188.29,1.22,1.22,0,0,0-.46,1.028,4.029,4.029,0,0,1-.2,1.345c-.126.214.008-.36-.032-.8s-.07-.813-.293-.573a5.935,5.935,0,0,0-.57.946,8.047,8.047,0,0,1,.245-1.066c.167-.533.349-.881.689-.986a11.372,11.372,0,0,1,1.338-.214Z"/><path class="cls-7" d="M71.812,75.713a1.143,1.143,0,0,0-.071.279,1.427,1.427,0,0,1-.032.24l.776.067s-.047-.372-.062-.454a.243.243,0,0,0-.1-.132A1.561,1.561,0,0,0,71.812,75.713Z"/><g class="cls-8"><path class="cls-9" d="M69.666,80.971a1.867,1.867,0,0,1,.438-1.213l.07-.1-.458-.405a3.771,3.771,0,0,0-.522,1.561A1.3,1.3,0,0,0,69.666,80.971Z"/><path class="cls-9" d="M69.813,81.177a2.074,2.074,0,0,0,.319,1.292l.556-.258a1.141,1.141,0,0,1-.256-1.043l.024-.088a3.085,3.085,0,0,1-.643.024C69.812,81.128,69.813,81.153,69.813,81.177Z"/><path class="cls-9" d="M69.813,80.986a3.314,3.314,0,0,0,.681-.035,7.156,7.156,0,0,1,.275-.768l-.482-.426-.052.075A1.777,1.777,0,0,0,69.813,80.986Z"/><path class="cls-9" d="M70.016,82.523a2.189,2.189,0,0,1-.35-1.371v-.065a1.54,1.54,0,0,1-.465-.143,8.645,8.645,0,0,0,.462,1.743Z"/></g><path class="cls-7" d="M94.2,123.8a4.378,4.378,0,1,1-4.377-4.378A4.377,4.377,0,0,1,94.2,123.8Z"/><path class="cls-5" d="M88.972,119.77l.054-.855a.434.434,0,0,1,.411-.357c.356-.018.819-.018.819-.018a.284.284,0,0,1,.233.195,9.215,9.215,0,0,1,.089,1.035A5.919,5.919,0,0,1,88.972,119.77Z"/><path class="cls-6" d="M90,117.641s.1-.964-.421-.582-.4.462-.061,1a4.176,4.176,0,0,1,.261.481"/><path class="cls-7" d="M88.494,117.664a4.723,4.723,0,0,1-.814-.179,1.038,1.038,0,0,1-.49-.6,1.268,1.268,0,0,0-.418.128.357.357,0,0,0-.095.464.719.719,0,0,0,.561.416,7.186,7.186,0,0,0,1.312,0c.581,0,.984-.116.607-.2A6.088,6.088,0,0,0,88.494,117.664Z"/><path class="cls-7" d="M90.4,117.749a5.686,5.686,0,0,0,1.265-.428c.2-.177.038-.4.372-.4s.766.208.681.48-.1.415-.473.5A10.241,10.241,0,0,1,90.4,117.749Z"/><path class="cls-7" d="M89.444,117.289a6.183,6.183,0,0,1-.96-.976c-.3-.431-.676-.752-1.075-.688s-.142.263-.5.7a1.452,1.452,0,0,0-.285,1.056c.038.1.085-.3.351-.384s.306-.064.7.159.8.321,1.018.433a3.573,3.573,0,0,0,.827.176Z"/><path class="cls-7" d="M89.91,117.321a3.314,3.314,0,0,0,.8-.864,2.106,2.106,0,0,1,1.1-.912c.266-.064.257-.112.418.337s.476,1.232.5,1.407-.18-.145-.332-.224-.371-.048-.837.064-.61.352-.98.527a1.1,1.1,0,0,1-.751.049Z"/><path class="cls-7" d="M90.034,117.705a8.6,8.6,0,0,0,1.625,0c.552-.1.609.1.885.336s.3-.033.628.944a5.044,5.044,0,0,1,.332,1.375s-.456-1.056-.684-1.1-.342-.352-.3.047a9.37,9.37,0,0,1-.228,1.6c-.03.207.028-.1-.143-.944s-.029-1.168-.371-1.552a.988.988,0,0,0-.866-.4A3.055,3.055,0,0,1,90.034,117.705Z"/><path class="cls-7" d="M89.264,117.82a4.024,4.024,0,0,0-1.427.348,1.463,1.463,0,0,0-.552,1.234,4.845,4.845,0,0,1-.238,1.614c-.151.256.01-.432-.038-.959s-.085-.976-.351-.688a7.085,7.085,0,0,0-.685,1.136,9.584,9.584,0,0,1,.3-1.279c.2-.641.418-1.058.827-1.185a13.675,13.675,0,0,1,1.605-.256Z"/><path class="cls-7" d="M89.377,117.177a1.371,1.371,0,0,0-.085.335,1.748,1.748,0,0,1-.038.289l.932.08s-.058-.447-.075-.545a.292.292,0,0,0-.115-.159A1.9,1.9,0,0,0,89.377,117.177Z"/><g class="cls-8"><path class="cls-9" d="M86.8,123.488a2.245,2.245,0,0,1,.526-1.455l.085-.122-.551-.486a4.53,4.53,0,0,0-.627,1.873A1.556,1.556,0,0,0,86.8,123.488Z"/><path class="cls-9" d="M86.977,123.736a2.5,2.5,0,0,0,.384,1.551l.667-.31a1.372,1.372,0,0,1-.307-1.252c.01-.036.019-.071.029-.1a3.784,3.784,0,0,1-.773.029Z"/><path class="cls-9" d="M86.978,123.507a3.983,3.983,0,0,0,.817-.043,8.6,8.6,0,0,1,.33-.921l-.578-.511-.063.089A2.133,2.133,0,0,0,86.978,123.507Z"/><path class="cls-9" d="M87.222,125.352a2.635,2.635,0,0,1-.421-1.646v-.078a1.854,1.854,0,0,1-.558-.172,10.411,10.411,0,0,0,.555,2.093Z"/></g><path class="cls-7" d="M120.1,72.3a4.378,4.378,0,1,1-4.378-4.378A4.377,4.377,0,0,1,120.1,72.3Z"/><path class="cls-5" d="M114.868,68.27l.053-.855a.434.434,0,0,1,.411-.357c.356-.018.82-.018.82-.018a.283.283,0,0,1,.232.2,9.225,9.225,0,0,1,.09,1.034A5.878,5.878,0,0,1,114.868,68.27Z"/><path class="cls-6" d="M115.894,66.141s.1-.964-.422-.582-.4.462-.061,1a4.1,4.1,0,0,1,.262.481"/><path class="cls-7" d="M114.389,66.164a4.718,4.718,0,0,1-.813-.179,1.037,1.037,0,0,1-.491-.6,1.275,1.275,0,0,0-.418.128.357.357,0,0,0-.095.464.722.722,0,0,0,.561.416,7.2,7.2,0,0,0,1.313,0c.58,0,.983-.115.606-.2A6.346,6.346,0,0,0,114.389,66.164Z"/><path class="cls-7" d="M116.3,66.249a5.681,5.681,0,0,0,1.264-.428c.2-.176.039-.4.372-.4s.767.208.681.48-.1.415-.472.5A10.233,10.233,0,0,1,116.3,66.249Z"/><path class="cls-7" d="M115.339,65.789a6.229,6.229,0,0,1-.96-.976c-.3-.431-.676-.752-1.075-.688s-.141.263-.5.7a1.452,1.452,0,0,0-.285,1.056c.038.1.086-.3.352-.384s.3-.064.7.159.8.321,1.018.433a3.558,3.558,0,0,0,.826.176Z"/><path class="cls-7" d="M115.805,65.821a3.314,3.314,0,0,0,.8-.864,2.11,2.11,0,0,1,1.1-.912c.267-.064.257-.112.419.337s.476,1.232.5,1.407-.18-.144-.333-.224-.37-.048-.837.064-.609.352-.98.528a1.1,1.1,0,0,1-.751.048Z"/><path class="cls-7" d="M115.929,66.205a8.608,8.608,0,0,0,1.626,0c.552-.1.609.1.884.336s.3-.032.628.944a5.044,5.044,0,0,1,.332,1.375s-.456-1.056-.684-1.1-.342-.352-.3.047a9.271,9.271,0,0,1-.228,1.6c-.029.207.028-.1-.143-.944s-.028-1.168-.371-1.552a.984.984,0,0,0-.866-.4A3.079,3.079,0,0,1,115.929,66.205Z"/><path class="cls-7" d="M115.159,66.32a4.028,4.028,0,0,0-1.427.348,1.463,1.463,0,0,0-.552,1.234,4.847,4.847,0,0,1-.237,1.614c-.151.256.009-.432-.038-.959s-.085-.976-.352-.688a7.057,7.057,0,0,0-.684,1.136,9.672,9.672,0,0,1,.294-1.279c.2-.641.418-1.058.827-1.185a13.675,13.675,0,0,1,1.605-.256Z"/><path class="cls-7" d="M115.273,65.677a1.358,1.358,0,0,0-.086.335,1.748,1.748,0,0,1-.038.289l.932.08s-.057-.447-.075-.545a.292.292,0,0,0-.115-.159A1.9,1.9,0,0,0,115.273,65.677Z"/><g class="cls-8"><path class="cls-9" d="M112.7,71.988a2.245,2.245,0,0,1,.525-1.455c.028-.04.057-.08.085-.121l-.55-.487a4.53,4.53,0,0,0-.627,1.874A1.561,1.561,0,0,0,112.7,71.988Z"/><path class="cls-9" d="M112.873,72.236a2.5,2.5,0,0,0,.384,1.551l.666-.31a1.375,1.375,0,0,1-.307-1.252c.01-.036.02-.071.029-.1a3.771,3.771,0,0,1-.772.029C112.872,72.178,112.873,72.208,112.873,72.236Z"/><path class="cls-9" d="M112.873,72.007a3.992,3.992,0,0,0,.818-.043,8.156,8.156,0,0,1,.33-.921l-.578-.511-.063.089A2.14,2.14,0,0,0,112.873,72.007Z"/><path class="cls-9" d="M113.117,73.852a2.633,2.633,0,0,1-.421-1.646v-.077a1.867,1.867,0,0,1-.558-.173,10.344,10.344,0,0,0,.555,2.093Z"/></g><polygon class="cls-11" points="96.873 12.431 94.786 7.611 97.195 12.19 97.676 5.844 97.918 11.948 101.213 4.636 98.321 12.27 103.382 8.173 98.721 12.831 103.944 11.225 99.045 13.234 103.301 13.637 99.124 13.637 103.219 15.726 98.882 14.44 101.451 17.896 98.721 15.164 99.926 19.099 98.399 15.406 98.321 21.429 97.517 15.645 96.392 20.946 96.795 15.645 91.33 18.938 96.31 15.082 91.169 16.609 96.31 14.198 92.055 13.154 95.989 13.315 91.973 10.101 96.151 12.912 93.501 8.816 96.873 12.431"/><polygon class="cls-9" points="116.542 104.288 116.542 103.354 116.752 104.288 117.568 102.749 116.93 104.352 117.966 103.81 117.076 104.492 118.228 104.492 117.055 104.674 121.748 106.376 117.035 104.942 117.464 105.757 116.857 105.06 117.559 108.132 116.658 105.049 116.197 106.047 116.427 104.996 114.671 106.929 116.302 104.813 115.265 104.942 116.218 104.61 113.691 103.872 116.333 104.384 115.465 102.749 116.49 104.266 116.542 104.288"/><polygon class="cls-9" points="93.674 57.072 93.674 56.139 93.883 57.072 94.7 55.533 94.061 57.136 95.097 56.594 94.208 57.276 95.36 57.276 94.187 57.458 98.88 59.161 94.166 57.726 94.595 58.542 93.988 57.844 94.691 60.916 93.789 57.834 93.328 58.831 93.559 57.78 91.803 59.713 93.433 57.598 92.397 57.726 93.349 57.394 90.823 56.656 93.465 57.168 92.596 55.533 93.622 57.05 93.674 57.072"/><polygon class="cls-9" points="105.144 121.576 105.965 121.132 105.244 121.76 106.985 121.745 105.272 121.947 106.241 122.6 105.219 122.143 105.767 123.156 105.048 122.211 105.786 127.148 104.803 122.32 104.29 123.086 104.614 122.22 102.247 124.301 104.529 122.04 103.432 122.11 104.466 121.812 101.93 121.189 104.567 121.615 103.96 120.764 104.706 121.444 104.152 118.871 104.959 121.438 105.984 119.896 105.138 121.52 105.144 121.576"/><polygon class="cls-9" points="105.694 55.866 106.515 55.421 105.794 56.05 107.535 56.035 105.822 56.237 106.791 56.89 105.769 56.432 106.317 57.445 105.598 56.501 106.336 61.438 105.353 56.61 104.84 57.376 105.164 56.51 102.797 58.59 105.079 56.33 103.982 56.4 105.016 56.102 102.48 55.478 105.117 55.904 104.51 55.054 105.256 55.734 104.702 53.16 105.509 55.728 106.534 54.185 105.688 55.809 105.694 55.866"/><polygon class="cls-9" points="67.113 105.065 67.113 104.131 67.323 105.065 68.139 103.526 67.501 105.129 68.537 104.587 67.647 105.268 68.799 105.268 67.626 105.451 72.319 107.153 67.605 105.719 68.035 106.534 67.427 105.837 68.13 108.909 67.228 105.826 66.768 106.824 66.998 105.773 65.242 107.706 66.872 105.59 65.836 105.719 66.789 105.386 64.262 104.649 66.904 105.161 66.035 103.526 67.061 105.043 67.113 105.065"/><polygon class="cls-9" points="100.182 81.428 100.182 80.495 100.391 81.428 101.208 79.889 100.569 81.492 101.605 80.951 100.716 81.632 101.868 81.632 100.695 81.814 105.388 83.517 100.674 82.082 101.103 82.898 100.496 82.2 101.199 85.273 100.297 82.19 99.836 83.187 100.067 82.136 98.311 84.069 99.941 81.954 98.905 82.082 99.857 81.75 97.331 81.012 99.973 81.525 99.104 79.889 100.13 81.407 100.182 81.428"/><polygon class="cls-9" points="85.225 65.988 84.451 65.467 85.342 65.814 84.52 64.278 85.495 65.702 85.622 64.54 85.692 65.658 86.334 64.702 85.832 65.777 89.861 62.83 86.043 65.944 86.959 66.042 86.042 66.157 88.984 67.286 85.922 66.317 86.494 67.255 85.749 66.478 86.376 69.013 85.528 66.481 85.057 67.413 85.312 66.436 83.291 68.123 85.189 66.215 83.347 66.025 85.178 66.019 85.225 65.988"/><polygon class="cls-9" points="121.874 93.649 122.051 92.732 122.079 93.689 123.825 90.776 122.242 93.786 123.362 93.451 122.359 93.95 123.49 94.169 122.304 94.125 124.477 96.053 122.232 94.385 122.499 95.267 122.035 94.467 122.141 97.617 121.842 94.418 121.2 95.31 121.626 94.322 119.535 95.886 121.537 94.119 120.495 94.048 121.494 93.903 119.153 92.698 121.65 93.704 121.108 91.933 121.826 93.618 121.874 93.649"/><path class="cls-10" d="M70.84,123.238a3.647,3.647,0,1,1-3.647-3.648A3.646,3.646,0,0,1,70.84,123.238Z"/><path class="cls-5" d="M66.485,119.882l.044-.713a.362.362,0,0,1,.343-.3c.3-.015.683-.015.683-.015a.235.235,0,0,1,.193.163,7.689,7.689,0,0,1,.075.862A4.937,4.937,0,0,1,66.485,119.882Z"/><path class="cls-6" d="M67.339,118.108s.085-.8-.351-.485-.334.385-.05.838a3.351,3.351,0,0,1,.217.4"/><path class="cls-7" d="M66.086,118.127a3.955,3.955,0,0,1-.678-.149.864.864,0,0,1-.408-.5,1.049,1.049,0,0,0-.348.107.3.3,0,0,0-.08.387.6.6,0,0,0,.468.346,5.955,5.955,0,0,0,1.093,0c.484,0,.819-.1.505-.163A5.236,5.236,0,0,0,66.086,118.127Z"/><path class="cls-7" d="M67.678,118.2a4.762,4.762,0,0,0,1.053-.356c.167-.148.032-.334.31-.334s.639.173.567.4-.085.346-.393.413A8.5,8.5,0,0,1,67.678,118.2Z"/><path class="cls-7" d="M66.878,117.815a5.192,5.192,0,0,1-.8-.813c-.246-.36-.563-.626-.9-.574s-.118.22-.42.587a1.208,1.208,0,0,0-.237.88c.032.08.071-.253.293-.32s.254-.054.586.133.666.267.848.36a2.942,2.942,0,0,0,.689.147Z"/><path class="cls-7" d="M67.266,117.842a2.757,2.757,0,0,0,.666-.72,1.76,1.76,0,0,1,.918-.76c.222-.053.214-.094.349.28s.4,1.027.42,1.173-.15-.121-.277-.187-.309-.04-.7.053-.507.294-.816.44a.919.919,0,0,1-.626.041Z"/><path class="cls-7" d="M67.369,118.162a7.252,7.252,0,0,0,1.354,0c.46-.081.508.079.737.28s.246-.028.523.786a4.2,4.2,0,0,1,.277,1.146s-.38-.88-.57-.919-.285-.294-.253.039a7.805,7.805,0,0,1-.19,1.333c-.025.173.023-.079-.119-.786s-.024-.973-.309-1.293a.823.823,0,0,0-.722-.334A2.573,2.573,0,0,1,67.369,118.162Z"/><path class="cls-7" d="M66.728,118.257a3.348,3.348,0,0,0-1.189.29,1.22,1.22,0,0,0-.46,1.028,4.029,4.029,0,0,1-.2,1.345c-.126.213.008-.36-.032-.8s-.07-.813-.292-.573a5.841,5.841,0,0,0-.571.946,7.96,7.96,0,0,1,.246-1.066c.166-.533.348-.881.689-.986a11.121,11.121,0,0,1,1.337-.214Z"/><path class="cls-7" d="M66.822,117.721a1.155,1.155,0,0,0-.071.28,1.445,1.445,0,0,1-.032.24l.777.067s-.048-.373-.063-.454a.248.248,0,0,0-.1-.133A1.6,1.6,0,0,0,66.822,117.721Z"/><g class="cls-8"><path class="cls-9" d="M64.676,122.979a1.872,1.872,0,0,1,.438-1.212l.07-.1-.458-.406a3.782,3.782,0,0,0-.522,1.561A1.277,1.277,0,0,0,64.676,122.979Z"/><path class="cls-9" d="M64.823,123.186a2.075,2.075,0,0,0,.319,1.292l.556-.258a1.145,1.145,0,0,1-.256-1.043l.024-.088a3.155,3.155,0,0,1-.643.024Z"/><path class="cls-9" d="M64.823,123a3.321,3.321,0,0,0,.681-.036,7.194,7.194,0,0,1,.275-.767l-.481-.426-.053.075A1.78,1.78,0,0,0,64.823,123Z"/><path class="cls-9" d="M65.026,124.532a2.189,2.189,0,0,1-.35-1.371V123.1a1.54,1.54,0,0,1-.465-.143,8.655,8.655,0,0,0,.463,1.743Z"/></g><path class="cls-10" d="M108.018,111.869a3.647,3.647,0,1,1-3.647-3.648A3.647,3.647,0,0,1,108.018,111.869Z"/><path class="cls-5" d="M103.662,108.513l.045-.713a.361.361,0,0,1,.342-.3c.3-.015.683-.015.683-.015a.237.237,0,0,1,.194.163,7.646,7.646,0,0,1,.074.862A4.936,4.936,0,0,1,103.662,108.513Z"/><path class="cls-6" d="M104.517,106.739s.084-.8-.351-.485-.335.385-.051.838a3.458,3.458,0,0,1,.218.4"/><path class="cls-7" d="M103.263,106.758a3.931,3.931,0,0,1-.677-.149.867.867,0,0,1-.409-.5,1.049,1.049,0,0,0-.348.107.3.3,0,0,0-.079.387.6.6,0,0,0,.467.346,5.966,5.966,0,0,0,1.094,0c.483,0,.819-.1.5-.163A5.265,5.265,0,0,0,103.263,106.758Z"/><path class="cls-7" d="M104.855,106.829a4.767,4.767,0,0,0,1.054-.356c.166-.148.032-.334.309-.334s.639.173.568.4-.085.346-.394.413A8.506,8.506,0,0,1,104.855,106.829Z"/><path class="cls-7" d="M104.055,106.446a5.239,5.239,0,0,1-.8-.813c-.245-.36-.563-.626-.895-.574s-.118.22-.42.587a1.216,1.216,0,0,0-.238.88c.032.08.072-.253.293-.32s.254-.054.587.132.665.268.848.361a2.942,2.942,0,0,0,.689.147Z"/><path class="cls-7" d="M104.443,106.473a2.757,2.757,0,0,0,.666-.72,1.758,1.758,0,0,1,.919-.76c.222-.053.214-.094.348.28s.4,1.027.42,1.173-.15-.121-.277-.187-.308-.04-.7.053-.508.294-.817.44a.916.916,0,0,1-.625.041Z"/><path class="cls-7" d="M104.546,106.793a7.264,7.264,0,0,0,1.355,0c.46-.081.507.079.737.28s.245-.028.523.786a4.2,4.2,0,0,1,.277,1.146s-.38-.88-.571-.919-.285-.294-.253.039a7.707,7.707,0,0,1-.19,1.333c-.024.173.024-.079-.119-.786s-.024-.973-.309-1.293a.822.822,0,0,0-.721-.334A2.571,2.571,0,0,1,104.546,106.793Z"/><path class="cls-7" d="M103.905,106.888a3.353,3.353,0,0,0-1.189.29,1.22,1.22,0,0,0-.46,1.028,4.057,4.057,0,0,1-.2,1.345c-.126.213.007-.36-.032-.8s-.071-.813-.293-.574a5.854,5.854,0,0,0-.57.947,8.047,8.047,0,0,1,.245-1.066c.167-.533.348-.881.689-.986a11.151,11.151,0,0,1,1.337-.214Z"/><path class="cls-7" d="M104,106.352a1.155,1.155,0,0,0-.071.28,1.445,1.445,0,0,1-.032.24l.776.067s-.048-.373-.062-.454a.247.247,0,0,0-.1-.133A1.591,1.591,0,0,0,104,106.352Z"/><g class="cls-8"><path class="cls-9" d="M101.854,111.61a1.872,1.872,0,0,1,.437-1.212c.024-.033.047-.067.071-.1l-.458-.406a3.766,3.766,0,0,0-.523,1.561A1.282,1.282,0,0,0,101.854,111.61Z"/><path class="cls-9" d="M102,111.817a2.084,2.084,0,0,0,.32,1.292l.555-.258a1.145,1.145,0,0,1-.255-1.043l.024-.088a3.162,3.162,0,0,1-.644.024Z"/><path class="cls-9" d="M102,111.626a3.324,3.324,0,0,0,.681-.036,6.748,6.748,0,0,1,.275-.767l-.482-.426-.052.075A1.77,1.77,0,0,0,102,111.626Z"/><path class="cls-9" d="M102.2,113.163a2.2,2.2,0,0,1-.351-1.371v-.065a1.532,1.532,0,0,1-.465-.143,8.6,8.6,0,0,0,.462,1.743Z"/></g><polygon class="cls-9" points="93.752 109.381 94.572 108.937 93.851 109.565 95.593 109.55 93.88 109.752 94.849 110.405 93.827 109.948 94.375 110.961 93.656 110.016 94.394 114.953 93.411 110.126 92.898 110.891 93.222 110.025 90.855 112.106 93.137 109.845 92.04 109.915 93.074 109.617 90.538 108.994 93.175 109.42 92.568 108.57 93.314 109.249 92.76 106.676 93.567 109.243 94.592 107.701 93.746 109.325 93.752 109.381"/><path class="cls-12" d="M50.833,133.771c-.48-.611-1.538-7.3-1.538-7.3s0-8.689-.2-10.009a39.21,39.21,0,0,1,.9-9.349c.6-1.76-.1-6.379-.1-6.379l-5.982.879-.7,7.479s.734,18.17.75,18.183a12.6,12.6,0,0,1-.055,2.579c-.215,1.342-.913,4.188-.913,4.188s.644,2.577,1.557,3.328a10.613,10.613,0,0,0,4.563,1.611c2.04.376,5.637.537,5.852-.376a23.228,23.228,0,0,0,.278-3.106S51.424,134.523,50.833,133.771Z"/><path class="cls-13" d="M42.91,134.241a4.349,4.349,0,0,0,.221,3.767,6.864,6.864,0,0,0,4.432,2.733c1.035.148,4.782.858,5.762.961,4.493.467,6.722-.592,6.279-2.66a3.916,3.916,0,0,0-2.586-2.955c-.591-.221-1.773-.59-1.773-.59s.222,3.471-1.4,3.324-4.284-.369-4.284-.369a11.685,11.685,0,0,1,.689-2.82,7.533,7.533,0,0,1,1.453-1.243,1.684,1.684,0,0,0-1.33-1.182c-1.108-.222-1.994,1.034-2.585,2.216s-1.182,2.216-1.182,2.216a2.937,2.937,0,0,1-2.216-1.108A8.922,8.922,0,0,1,42.91,134.241Z"/><path class="cls-12" d="M40.62,121.629S46.6,110.191,47.5,107.99s-.5-7.478-.5-7.478l-7.977-.111s.8,5.17.8,6.27a5.978,5.978,0,0,1-1.594,3.3,48.387,48.387,0,0,0-4.587,7.588c-.7,1.871-.79,9.578-.787,9.583a16.406,16.406,0,0,1-.059,2.5c-.161.59-.483,1.61-.483,1.61a10.121,10.121,0,0,0,1.235,5.422c1.5,2.631,4.939,3.812,6.334,3.49s1.847-2.669,1.847-2.669l-1.041-2.324s-2.363-2.953-2.309-4.348c.047-1.2.133-3.4.155-3.986Z"/><path class="cls-13" d="M32.569,130.178a37.4,37.4,0,0,0,.369,5.171c.3.812.96,1.4,1.181.738a3.921,3.921,0,0,1,2.66-2.068c1.108-.074,3.693,0,4.063.591a7.346,7.346,0,0,1,.591,1.995s-.665-1.034-2.807-.961-4.284,1.256-3.916,2.216,2.069,1.33,4.359,1.035,2.659-1.4,2.659-1.4a34.1,34.1,0,0,1,2.659,3.841c.517,1.108-.517,2.438-2.659,2.586s-6.352,0-7.9-1.7a8.864,8.864,0,0,1-2.142-5.171,3.464,3.464,0,0,0-.739-2.364,2.583,2.583,0,0,1,0-2.437A18.378,18.378,0,0,1,32.569,130.178Z"/><path class="cls-12" d="M66.02,57.538S67.774,55.5,67.774,54.1a9.272,9.272,0,0,1,.562-3.579c.351-.631,1.824-1.473,2.666-2.1s1.824-1.614,2.947-1.123,2.737,1.824,3.227,1.964.913,1.263.142,1.263-2.878-1.192-3.229-1.192-.772.491-1.122.772a5.928,5.928,0,0,0-1.123,2.526c0,.561,1.333.772,1.9.42s1.824-2.1,2.736-2.175,1.684-.561,1.754.421a2.242,2.242,0,0,1-1.474,2.245A10.408,10.408,0,0,0,74.3,55.5c-.561.491-1.684,1.894-2.245,2.034s-1.614.491-1.614.7-.7,1.824-1.4,1.543S64.9,59.152,66.02,57.538Z"/><path class="cls-14" d="M66.311,55.4s.5,2.983,2.321,2.983,3.481-.166,1.989.828-2.486,5.3-3.315,7.126-1.989,5.966-3.978,6.8S51.316,63.069,51.316,63.069l-1.181-6.335s4.911.794,5.905,3.113,3.758,6.335,4.638,5.416a11.08,11.08,0,0,0,3.314-5.552A13.573,13.573,0,0,1,66.311,55.4Z"/><path class="cls-15" d="M29.512,34.534s-3.14,9.02-3.265,11.141-.264,8.073,1.112,8.66,4.54,2.752,5.1,3.964,2.061.982,4.288.208,15.3-3.593,16.262-3.244,6.906,1.1,7.533.844,3.135-11.629.827-17.618S58.153,21.7,50.6,21.729s-16.873,3.235-16.873,3.235Z"/><path class="cls-16" d="M40.6,48.373a16.275,16.275,0,0,1-.3,4.133c-.417,1.083-4.85,1.9-5.143,1.823s.186,2.817,2.3,5.02,9.183,3.728,10.758,2.077.94-5.595.94-5.595-1.719-1.091-1.773-1.357,2.56-8.114,2.56-8.114Z"/><path class="cls-14" d="M55.481,78.007c-.761-2.722-3.919-16.222-3.7-17.312s-.69-3.845-.69-3.845l-2.565-1.7a.131.131,0,0,0-.164.2c.5.5-.616,1.369-1.017,1.7-1.852,1.524-3.619,1.09-5.906-.108a4.923,4.923,0,0,1-2.469-3.757s-4.6.5-5.476,2.791S32,69.624,31.2,75C30.8,77.719,29.788,94.12,29.57,96.624c-.128,1.463.173,3-.128,4.343,4.658,2.308,8.871,4.208,14.381,3.039,5.664-1.2,10.275-3.624,16.054-4.047-.97-1.9-1.812-6.608-2.109-7.8C57.441,90.854,56.243,80.729,55.481,78.007Z"/><path class="cls-12" d="M25.616,67.272a6.264,6.264,0,0,1-.68-1.435c-.152-.607-.683-2.959-1.289-3.375a10.088,10.088,0,0,1-2.2-2.2,13.883,13.883,0,0,1-1-1.8c-.037-.267-.531-.76-.91-.608s-.248,1.607-.02,2.137.8,1.67.494,2.085a20.991,20.991,0,0,0-1.67,3.149c-.113.494-.212.723.433,1.1a19.973,19.973,0,0,1,3.171,2.087c.151.342.265,1.175.947,1.175S25.92,68.524,25.616,67.272Z"/><path class="cls-12" d="M20.536,67.355A8.961,8.961,0,0,1,17.73,65.8c-.835-.606-.759-1.366-.985-2.352s-.874-2.238-.76-3.035.607-2.032.987-2.07S17,58.8,17,58.8s.445-1.055,1.013-1.168,0,1.4,0,1.4.653-1.384,1.07-1-.462,1.8-.462,1.8.531-1.252,1.025-1.138.226,1.138.226,1.138-.144.474-.447,1.309,1.262,1.625,2.021,1.891a8.284,8.284,0,0,1,1.972,1.4,2.7,2.7,0,0,1,.229,2.411"/><path class="cls-12" d="M18.6,59.827c-.2.671-1.035,1.338-.832,2.064.218.791,1.087,1.166,1.48,1.785"/><path class="cls-17" d="M18.057,58.914c-.628.713-1.352,1.247-1.312,2.311"/><path class="cls-14" d="M20.723,69.012s1.987.542,2.891-.723,2.169-3.614,2.711-2.53,2.168,8.856,2.349,9.127c.731,1.095.361-6.777.361-9.127s.758-9.988,4.372-9.988c.5,0,.786,1.223,1.322,2.669a21.6,21.6,0,0,1,.632,4.97c.056.56.054.817.11,3.251.126,5.41-.347,13.537-4.086,15.905C29,84.077,26.505,79.855,24.7,77.145A58.779,58.779,0,0,1,20.723,69.012Z"/><path class="cls-16" d="M53.949,27.178a52.261,52.261,0,0,0,.608,6c.363,1.349,1.18,8.359-.2,10.932s-3.9,4.194-4.506,4.985-5.168.888-6.824.578-5.326-1.333-7.046-2.82-7.6-10.969-8.64-16.224-1.929-7.4,8.314-9.53,16.8,1.453,17.081,2.258S53.949,27.178,53.949,27.178Z"/><path class="cls-16" d="M48.847,39.991a.779.779,0,0,0-.4-.573,2.3,2.3,0,0,0-.68-.238,2.058,2.058,0,0,0-1.511.031,2.057,2.057,0,0,0-.759,1.267"/><path class="cls-16" d="M51.557,41.656a8.655,8.655,0,0,1-2.863,1.44,9.938,9.938,0,0,1-1.188.367,9.65,9.65,0,0,1-4.543-.472"/><path class="cls-16" d="M40.21,29.907a9.706,9.706,0,0,0-2.883.41,1.88,1.88,0,0,0-.592.264,2.509,2.509,0,0,0-.351.348,5.575,5.575,0,0,1-.934.822"/><path class="cls-16" d="M52.267,29.374a2.731,2.731,0,0,1-.875-.233,3.754,3.754,0,0,0-2.841.184"/><path class="cls-18" d="M32.094,27.273s1.574-.927,1.719-1.091.972.807,1.583,1.209a7.018,7.018,0,0,0,3.666.774l2.756-.741s-3.027.436-3.865-.344a5.166,5.166,0,0,1-1.145-1.452s2.272.268,3.289.309,4.057.355,5.3.524a57.2,57.2,0,0,1,8.424,3.267c1.324.713,4.178,5.478,4.531,9.6s.61,6.941,1.058,9.775-1.255,7.254-2.286,8.1-1.015.9-.941,2.579,1.887,2.573,1.993,2.733-1.391.438-.383-1.657,2.406-1.339,4.644-3.073,6.942-7.149,6.306-9.744-2.134-3.262-1.771-5.183-2.757-5.106-3.1-9.415-.949-13.577-7.1-15.633-10.8-5.772-18.6-4.175-10.776,5.288-11.245,7.049a3.43,3.43,0,0,0,.241,2.765s-2.851.39-4.1,4.874,1.018,7.523.162,11.589-2.653,4.863-1.792,8.53,1.05,6.005,4.094,6.569,7.114,1.67,6.922,3.294a9.035,9.035,0,0,1-1.311,3.308s4.7-1.7,2.822-4.469-4.174-.323-5.817-4.094.771-8.821,1.3-11.04a29.293,29.293,0,0,0,.827-6.51c-.169-.4-.035,3.845,1,4.637S35.1,40.8,35.815,41.8s.191,3.281.191,3.281,1.9-3.215.106-4.744a24.889,24.889,0,0,1-4.155-4.227C31.216,34.991,32.094,27.273,32.094,27.273Z"/><path class="cls-19" d="M51.188,20.094a26.264,26.264,0,0,1,4.324.957,5.693,5.693,0,0,1,2.031.989,6.062,6.062,0,0,1,1.349,1.8A15.426,15.426,0,0,1,60.42,28a15.181,15.181,0,0,1,.3,2.2c.05.737.034,1.47.149,2.181a5.542,5.542,0,0,0,2.2,3.587,3.994,3.994,0,0,0,2.048.6,12.886,12.886,0,0,1,2.153.482A11.361,11.361,0,0,1,69.3,37.9a3.615,3.615,0,0,1,1.535,1.554,3.394,3.394,0,0,1-.763,4.037,3.364,3.364,0,0,0,.712-4.011c-.671-1.354-2.2-1.88-3.551-2.324A12.779,12.779,0,0,0,65.1,36.7a4.156,4.156,0,0,1-2.126-.6,5.742,5.742,0,0,1-2.327-3.692c-.128-.737-.121-1.478-.18-2.2a15.188,15.188,0,0,0-1.875-6.2A5.732,5.732,0,0,0,57.3,22.327a5.31,5.31,0,0,0-1.91-.891,25.856,25.856,0,0,0-4.264-.886Z"/><path class="cls-19" d="M30.9,29.666A7.964,7.964,0,0,1,29,33.54c-.923,1.108-2,2.04-3,3.032a16.974,16.974,0,0,0-1.412,1.556,2.424,2.424,0,0,0-.453,1.913c.064,1.373-.048,2.916.889,3.976a11.121,11.121,0,0,1,1.389,1.623,4.514,4.514,0,0,1,.624,2.056,4.38,4.38,0,0,1-.4,2.1,16.405,16.405,0,0,0-.856,1.933,2.369,2.369,0,0,0,.251,2,3.425,3.425,0,0,0,1.61,1.3,8.047,8.047,0,0,0,4.186.074,8.068,8.068,0,0,1-4.207-.021,3.491,3.491,0,0,1-1.662-1.306A2.47,2.47,0,0,1,25.66,51.7a16.634,16.634,0,0,1,.835-1.959,4.213,4.213,0,0,0,.364-2.035,4.338,4.338,0,0,0-.624-1.963,11.11,11.11,0,0,0-1.392-1.577,3.705,3.705,0,0,1-.853-1.985c-.118-.713-.1-1.424-.149-2.137a5.288,5.288,0,0,1,.017-1.087,2.2,2.2,0,0,1,.472-1.021,17.159,17.159,0,0,1,1.419-1.609c1-1.015,2.058-1.957,2.936-3.043a7.541,7.541,0,0,0,1.756-3.68Z"/><path class="cls-19" d="M34.276,23.477c1.16-.089,2.244-.088,3.373-.088.286.006.55,0,.864.036l.829.151,1.641.3c2.165.391,4.484.85,6.3,2.282a27.432,27.432,0,0,1,2.493,2.25,30.6,30.6,0,0,0,2.5,2.184,66.65,66.65,0,0,1,5.136,4.28,21.306,21.306,0,0,1,4.326,5.091,7.841,7.841,0,0,1,.191,6.532,8.9,8.9,0,0,1-1.809,2.806,8.366,8.366,0,0,0-1.969,2.647,5.082,5.082,0,0,0,.239,3.252,3.816,3.816,0,0,0,.3.775.944.944,0,0,0,.657.456,2.7,2.7,0,0,0,1.589-.4,2.714,2.714,0,0,1-1.591.412.968.968,0,0,1-.675-.459,3.867,3.867,0,0,1-.3-.778,5.122,5.122,0,0,1-.267-3.281,8.424,8.424,0,0,1,1.959-2.689,8.817,8.817,0,0,0,1.764-2.789,7.694,7.694,0,0,0-.24-6.4,21.136,21.136,0,0,0-4.331-5,66.051,66.051,0,0,0-5.158-4.219,31.263,31.263,0,0,1-2.546-2.182,27.122,27.122,0,0,0-2.48-2.2c-1.748-1.358-3.976-1.783-6.152-2.156l-1.644-.289-.816-.141c-.239-.025-.532-.025-.8-.029-1.1,0-2.241.01-3.3.092Z"/><path class="cls-20" d="M50.221,33.651s.747-1.9,1.561-1.677,2.356,2.447,1.307,3.924-2,.978-2.452.47S50.221,33.651,50.221,33.651Z"/><path class="cls-19" d="M51.294,34.234s.519-1.319,1.084-1.166,1.638,1.7.909,2.727-1.39.68-1.7.327S51.294,34.234,51.294,34.234Z"/><path class="cls-20" d="M39.15,35.5s.747-1.9,1.561-1.678,2.356,2.447,1.307,3.924-2,.979-2.452.471S39.15,35.5,39.15,35.5Z"/><path class="cls-19" d="M40.223,35.89s.519-1.319,1.084-1.165,1.638,1.7.909,2.726-1.39.68-1.7.328S40.223,35.89,40.223,35.89Z"/><path class="cls-19" d="M27.486,23.285c.543.2,1.071.359,1.65.638a2.882,2.882,0,0,1,.677.612,6.8,6.8,0,0,0,.607.581,5.042,5.042,0,0,0,3.1,1.234,5.188,5.188,0,0,1-3.274-1.006c-.493-.31-.889-.829-1.32-1.045-.476-.178-1.061-.315-1.61-.464Z"/><path class="cls-19" d="M27.089,23.124a.927.927,0,0,1,.594-1.111,3.378,3.378,0,0,1,1.035-.172,7.6,7.6,0,0,1,1.974.168,7.691,7.691,0,0,1,3.491,1.763,17.7,17.7,0,0,0,1.361,1.3,2.352,2.352,0,0,0,1.722.2,30.965,30.965,0,0,1,3.77-.731c1.275-.156,2.554-.235,3.83-.314a11.577,11.577,0,0,1,3.838.2A10.765,10.765,0,0,1,52.157,26.1,7.338,7.338,0,0,1,54.8,28.816a7.315,7.315,0,0,0-2.686-2.66,10.68,10.68,0,0,0-3.448-1.586,11.4,11.4,0,0,0-3.788-.124c-1.274.1-2.547.2-3.808.385a30.76,30.76,0,0,0-3.741.8,2.72,2.72,0,0,1-2-.221A16.161,16.161,0,0,1,33.9,24.1a7.217,7.217,0,0,0-3.311-1.6,7.059,7.059,0,0,0-1.839-.123,2.972,2.972,0,0,0-.847.146c-.217.079-.319.308-.272.4Z"/><path class="cls-19" d="M27.349,23.993l2.174,1.064a14.735,14.735,0,0,1,2.17,1.176,2.482,2.482,0,0,1,.812,1.047,2.734,2.734,0,0,1,.157,1.3,4.717,4.717,0,0,1-1.035,2.286,22.3,22.3,0,0,1-3.4,3.493C27,35.42,25.642,36.315,24.511,37.44a7.581,7.581,0,0,0-1.428,1.887,5.279,5.279,0,0,0-.577,2.274,3.463,3.463,0,0,0,.707,2.2,18.479,18.479,0,0,0,1.759,1.638,4.038,4.038,0,0,1,.926,4.511,3.992,3.992,0,0,1-3.948,2.287,3.85,3.85,0,0,0,2.923-6.694,18.2,18.2,0,0,1-1.8-1.63,3.66,3.66,0,0,1-.782-2.309,6.235,6.235,0,0,1,2.016-4.363c1.145-1.172,2.488-2.086,3.686-3.15a21.87,21.87,0,0,0,3.287-3.476,4.3,4.3,0,0,0,.917-2.077,2.005,2.005,0,0,0-.811-1.9,14.548,14.548,0,0,0-2.1-1.089L27.1,24.512Z"/><path class="cls-9" d="M45.905,74.546s3.628-2.524,1.9-4.172-2.393,1.032-2.393,1.032-3.19-1.719-2.824.222S45.905,74.546,45.905,74.546Z"/><path class="cls-9" d="M40.587,66.519s.985-4.554-.83-4.294a1.731,1.731,0,0,0-1.429,2.142s-3.342-.016-1.268,1.488S40.587,66.519,40.587,66.519Z"/><path class="cls-9" d="M49.805,66.724s1.65-4.46.25-4.408-1.556,2.2-1.556,2.2-2.822-1.892-1.618.545S49.805,66.724,49.805,66.724Z"/><path class="cls-21" d="M86.186,62.786a8.3,8.3,0,1,1-8.3-8.3A8.3,8.3,0,0,1,86.186,62.786Z"/><path class="cls-5" d="M76.271,55.147l.1-1.622a.822.822,0,0,1,.779-.677c.676-.035,1.555-.035,1.555-.035a.539.539,0,0,1,.44.372,17.35,17.35,0,0,1,.17,1.962A11.194,11.194,0,0,1,76.271,55.147Z"/><path class="cls-6" d="M78.217,51.11s.191-1.829-.8-1.1-.762.877-.116,1.907a7.9,7.9,0,0,1,.5.911"/><path class="cls-7" d="M75.363,51.153a8.983,8.983,0,0,1-1.543-.341,1.963,1.963,0,0,1-.929-1.129,2.382,2.382,0,0,0-.793.243.677.677,0,0,0-.181.88,1.365,1.365,0,0,0,1.065.788,13.613,13.613,0,0,0,2.489,0c1.1,0,1.865-.219,1.15-.371A11.712,11.712,0,0,0,75.363,51.153Z"/><path class="cls-7" d="M78.987,51.313a10.751,10.751,0,0,0,2.4-.811c.379-.335.073-.759.7-.759s1.454.395,1.292.911-.193.788-.9.94A19.38,19.38,0,0,1,78.987,51.313Z"/><path class="cls-7" d="M77.166,50.442a11.826,11.826,0,0,1-1.821-1.852c-.56-.818-1.283-1.425-2.039-1.305s-.269.5-.956,1.336a2.755,2.755,0,0,0-.54,2c.072.182.162-.577.666-.728s.579-.123,1.336.3,1.515.609,1.93.822a6.77,6.77,0,0,0,1.568.333Z"/><path class="cls-7" d="M78.049,50.5a6.283,6.283,0,0,0,1.517-1.638,4.014,4.014,0,0,1,2.091-1.731c.5-.12.487-.212.793.639s.9,2.337.956,2.67-.342-.275-.631-.426-.7-.09-1.587.122-1.156.668-1.859,1a2.092,2.092,0,0,1-1.424.093Z"/><path class="cls-7" d="M78.284,51.231a16.412,16.412,0,0,0,3.083,0c1.047-.182,1.155.181,1.677.637s.559-.062,1.192,1.79a9.561,9.561,0,0,1,.63,2.608s-.865-2-1.3-2.092-.649-.668-.577.089a17.715,17.715,0,0,1-.432,3.037c-.056.392.053-.182-.271-1.791s-.054-2.216-.7-2.943a1.868,1.868,0,0,0-1.643-.76A5.853,5.853,0,0,1,78.284,51.231Z"/><path class="cls-7" d="M76.824,51.449a7.627,7.627,0,0,0-2.706.659,2.777,2.777,0,0,0-1.047,2.34,9.173,9.173,0,0,1-.451,3.062c-.286.486.018-.819-.072-1.819s-.161-1.851-.666-1.3a13.358,13.358,0,0,0-1.3,2.154,18.315,18.315,0,0,1,.558-2.426c.379-1.215.793-2.006,1.568-2.246a25.706,25.706,0,0,1,3.044-.486Z"/><path class="cls-7" d="M77.039,50.229a2.59,2.59,0,0,0-.162.636,3.319,3.319,0,0,1-.072.547l1.767.152s-.108-.848-.142-1.033a.557.557,0,0,0-.217-.3A3.59,3.59,0,0,0,77.039,50.229Z"/><g class="cls-8"><path class="cls-9" d="M72.154,62.2a4.255,4.255,0,0,1,1-2.759c.054-.076.108-.153.161-.231l-1.043-.923a8.587,8.587,0,0,0-1.189,3.554A2.94,2.94,0,0,0,72.154,62.2Z"/><path class="cls-9" d="M72.488,62.668a4.729,4.729,0,0,0,.728,2.942l1.264-.588a2.6,2.6,0,0,1-.582-2.375c.018-.067.037-.133.055-.2a7.2,7.2,0,0,1-1.465.055C72.487,62.558,72.488,62.614,72.488,62.668Z"/><path class="cls-9" d="M72.489,62.234a7.613,7.613,0,0,0,1.55-.081,15.75,15.75,0,0,1,.626-1.747l-1.1-.97-.12.17A4.043,4.043,0,0,0,72.489,62.234Z"/><path class="cls-9" d="M72.951,65.733a5,5,0,0,1-.8-3.121c0-.048,0-.1,0-.148a3.529,3.529,0,0,1-1.059-.326,19.658,19.658,0,0,0,1.053,3.968Z"/></g><path class="cls-20" d="M39.344,52.922A12.009,12.009,0,0,0,41.6,56.089,4.217,4.217,0,0,0,45.3,57.163a12.284,12.284,0,0,0,3.06-2.147l1.556,1.127s-1.234,2.845-3.543,3.543a6.705,6.705,0,0,1-6.871-1.771,13.351,13.351,0,0,1-2.685-4.4Z"/></svg>