<svg id="word" xmlns="http://www.w3.org/2000/svg" viewBox="0 0 160 160"><defs><style>.cls-1{fill:#829748;}.cls-1,.cls-4,.cls-6{stroke:#9c4c9c;stroke-miterlimit:10;stroke-width:0.337px;}.cls-2{fill:none;stroke:#4b6931;stroke-width:1.179px;}.cls-3,.cls-6{fill:#1b6db4;}.cls-4{fill:#52a2d9;}.cls-5{fill:#27255f;}</style></defs><path class="cls-1" d="M84.562,110.084A112.974,112.974,0,0,0,82.88,98.3c-1.116-5.195-.836-13.392.242-16.109a92.815,92.815,0,0,0,2.57-9.631s-.845,10.385-.492,15.465.649,9.216.42,11.011S84.562,110.084,84.562,110.084Z"/><path class="cls-1" d="M79.2,128.923s.668-11.286,5.279-14.32,6.841-3.306,9.385-6.475a76.112,76.112,0,0,0,5.485-8.418s-4.27,12.415-7.912,15.83S79.2,128.923,79.2,128.923Z"/><path class="cls-1" d="M76.784,123.842s-4.363-6.508-7.927-9.645a28.991,28.991,0,0,0-8.56-4.833,20.107,20.107,0,0,0,6.332,12.491c5.826,5.154,8.409,7.627,8.791,8.885s.934,4.97.934,4.97S79.156,129.139,76.784,123.842Z"/><path class="cls-2" d="M66.792,67.574c1.813,8.629,8.342,15.56,10.931,23.989,3.809,12.4-1.411,25.884.6,38.7"/><path class="cls-3" d="M69.331,60.294a5.558,5.558,0,1,1-5.558-5.44A5.5,5.5,0,0,1,69.331,60.294Z"/><path class="cls-4" d="M58.607,55.454a5.25,5.25,0,0,0-2.617-1.468c-1.406-.194-5.174,0-6.766-.32s-6.255-3.32-6.255-3.32l1.85-1.53,4.531.191a4.725,4.725,0,0,1-1.851-2.17,18.815,18.815,0,0,1-1.467-4.085s3,1.019,4.467,1.721a7.011,7.011,0,0,1,2.424,2.107l-1.147-4.21.575-3.195,2.613,4.088.452-2.044,2.1,5.49,2.3,8.106Z"/><path class="cls-4" d="M63.136,54.367s-1.084-4.146-2.041-4.721-7.786-9.957-7.786-9.957l4.02,1.595,2.616,2.105s-1.533-3.638-.829-4.337a31.671,31.671,0,0,0,2.107-2.684l2.235,5.556L64.8,38.413l1.471-2.81-.193,6.255a38.93,38.93,0,0,0,2.873-2.872c.7-.894.188,4.468-.831,7.02a27.4,27.4,0,0,0-1.53,6.9C66.585,53.538,63.136,54.367,63.136,54.367Z"/><path class="cls-4" d="M67.541,54.751s-.893-7.531.894-8.873a49.222,49.222,0,0,0,4.722-4.53l.768,3.511,3.383-4.979s2.041,3,.636,4.979,3-1.022,3.895-1.022-1.79,4.979-1.79,4.979l3.385-.831s-.124,2.935-.385,2.935a24.275,24.275,0,0,0-2.615,2.3l4.531-1.787h2.746L85.48,54.3l-4.661,2.364,9,.254-6.126,1.405,4.083.06-.829,1.791L89.5,58.963l-3,2.044,1.023,2.043-3.577,2.618.193,1.275,4.4,1.275s-2.107.446-3.191.766-5.043,1.278-5.426,1.342a7.659,7.659,0,0,1-3.191-3c-.383-1.085-4.083-4.725-4.083-4.725l-2.62-.063.068-1.211,6.189.255.956-1.468s-.445-1.085-3.637-.386a29.586,29.586,0,0,1-5.745.706L72.4,57.815l2.87-3.192-3.7-.063-3.516,2.489-1.336-1.533Z"/><path class="cls-4" d="M60.2,59.922a15.884,15.884,0,0,1-4.53-.637,49.859,49.859,0,0,1-5.679-2.618c-.833-.577-5.427-5.17-5.427-5.17l.255,1.659-2.936-1.788s2.041,3.831,2.168,4.086.768,2.106.768,2.106-2.936-.893-3.957-.127,3.128,3.38,3.128,3.38l-4.918,3.831h3.643s-2.682,2.233-.639,2.233S46.863,69.3,46.863,69.3l-1.6,3.7,2.428-.445-4.023,4.593,4.917-1.787s2.615-2.361,2.809-3.639,2.745-4.337,2.745-4.337,4.722-2.619,4.914-2.619,4.528-.956,4.528-.956l-1.975-.511-5.3.574-6.192.254,2.619-2.678s5.363-.765,5.556-.765,3.317-.2,3.317-.2Z"/><path class="cls-4" d="M60.9,65.284s-3.7,4.276-4.659,4.4-4.021,2.167-5.1,3.762a27.619,27.619,0,0,1-4.088,4.023l5.235-1.915s-3.575,1.853-3.129,1.721,6-3.126,5.554-1.273a20.212,20.212,0,0,0-.512,2.615s3.066-4.6,3.574-3a34.539,34.539,0,0,0,1.916,4.215s.637-4.726.382-4.854.957-7.212.957-7.212l1.788-1.979Z"/><path class="cls-4" d="M63.842,65.6s-.9-.191-.577,2.17.7,4.533.128,5.362-3.575,6-3.575,6l.32,5.553,1.721-3.255,1.983,1.725s.953-3.32,1.976-3.511,2.489,2.106,2.871,2.169,2.173-3.96,2.173-3.96,3.125,3.321,3.765,3.514-.323-2.681-1.088-3.446S69.777,75.11,68.5,73.771s-3.067-3.766-3.067-3.766Z"/><path class="cls-4" d="M65.946,65.409s4.151.514,5.105,3.832.768,6.255,2.554,7.785S80.626,79.9,80.626,79.9L76.478,74.73l3.765.123-1.6-4.082,4.215-.254s-4.151-1.785-6.64-2.618-9.383-3.638-9.383-3.638Z"/><path class="cls-5" d="M67.126,52.189l-.072.08.067-.02C67.144,52.237,67.134,52.214,67.126,52.189Z"/><polygon class="cls-5" points="66.99 52.342 66.977 52.358 66.975 52.377 66.99 52.342"/><path class="cls-5" d="M66.9,52.514l.054-.081Z"/><polygon class="cls-5" points="67.008 52.41 66.975 52.377 66.975 52.377 66.952 52.433 67.008 52.41"/><path class="cls-5" d="M67.259,52.725c0,.025-.081-.058-.093,0a.544.544,0,0,1-.174.244c-.023.046-.156-.012-.179.031-.062.083-.221.364-.088.269.2-.151.317-.269.482-.41l.225-.514.1-.108-.161.126C67.292,52.41,67.339,52.587,67.259,52.725Z"/><path class="cls-5" d="M67.483,51.464c.006.02.02.063.02.063-.105.07-.1.158-.092.259l.066-.023c.006-.053-.021-.067-.057-.027a.507.507,0,0,0,.151-.295C67.54,51.444,67.506,51.439,67.483,51.464Z"/><rect class="cls-5" x="67.548" y="51.407" width="0.061" height="0.007" transform="translate(7.934 111.845) rotate(-82.64)"/><path class="cls-5" d="M66.613,52.831a2.5,2.5,0,0,1-.7.337c-.008.025-.011.055-.042.053l-.065-.012-.1.032-.036.021h0c-.016.019-.005.032.012.045l.05.025-.05-.025-.065-.013-.1.038.1-.038.053-.032.016-.016-.242.063-.049.025c-.05.035-.1.068-.156.027l-.046.011.016.007-.019,0-.185.045-.1.1s-.039-.025-.059-.036l-.049.074.118.057c.058.041.054-.135.134-.053-.08-.082-.076.094-.134.053l-.118-.057a.211.211,0,0,1-.206.01c.057-.068.136-.045.206-.01l.049-.074c.02.011.059.036.059.036l.1-.1-.367.093a3.244,3.244,0,0,0-2.114,1.351,5.1,5.1,0,0,0-.55,1.35A7.608,7.608,0,0,0,62.129,59a2.553,2.553,0,0,0,.884,1.278c.526.232.575-.365.588-.387.094-.514-.261-.4-.3-.987.084.356-.4-.067-.231-.5.242-.538-.243-1.059-.1-1.636a2.924,2.924,0,0,1,.041-.432c.249-.794.338-1.473,1.138-1.8.222-.086.351-.279.554-.4a3.4,3.4,0,0,1,.45-.113,2.129,2.129,0,0,0,.521-.267c-.182.083-.317.158-.517.242-.128.05.048-.166.137-.229.03-.035.133.063.167.024a.955.955,0,0,0,.23-.163c.032-.035.064.071.079.053.12-.062.166-.241.259-.246l.191-.028.106-.041.058-.052-.083-.094.129-.017-.129.017.083.094a4.445,4.445,0,0,0,.415-.446l0-.008a.507.507,0,0,1-.313.131c.054,0,.063.026.017.066l-.065-.034c.073-.072.131-.16.251-.143l.031-.065c.034-.005.055.025.079.045l.046-.045A1.137,1.137,0,0,0,66.613,52.831Z"/><path class="cls-5" d="M65.616,53.291l.047-.023-.2.051C65.51,53.359,65.562,53.327,65.616,53.291Z"/><path class="cls-5" d="M66.547,58.723l.043-.073-.053.018C66.517,58.678,66.534,58.7,66.547,58.723Z"/><polygon class="cls-5" points="66.632 58.588 66.637 58.573 66.635 58.557 66.632 58.588"/><path class="cls-5" d="M66.681,58.449l-.037.066Z"/><polygon class="cls-5" points="66.598 58.535 66.635 58.557 66.635 58.557 66.644 58.515 66.598 58.535"/><path class="cls-5" d="M66.6,58.535l-.051,0Z"/><path class="cls-5" d="M66.273,58.308c-.006-.017.092.041.084.005.012-.078,0-.153.032-.209-.008-.037.123-.015.115-.053.008-.072-.029-.3-.077-.209-.066.141-.092.247-.147.376l-.046.367-.051.076.1-.088C66.343,58.537,66.25,58.4,66.273,58.308Z"/><path class="cls-5" d="M66.2,59.23c0-.02-.013-.056-.013-.056.1-.023.109-.1.111-.168h-.064c-.014.039.011.055.051.037a.264.264,0,0,0-.167.171Z"/><polygon class="cls-5" points="66.104 59.257 66.118 59.214 66.106 59.211 66.102 59.257 66.104 59.257"/><path class="cls-5" d="M66.747,58.135l.3-.471c-.012-.02-.028-.043-.009-.053l.058-.013.047-.06.007-.027v0l-.036-.025h0l.051-.015.035-.065-.035.065-.014.044v.017l.114-.142.016-.031c.009-.047.022-.089.08-.081l.02-.023h-.009l.013,0,.087-.1v-.108a.607.607,0,0,1,.061.006l-.017-.074-.112,0c-.065-.006.05.119-.056.089.106.03-.009-.095.056-.089l.112,0c.006-.045.054-.08.121-.086.008.071-.055.086-.121.086l.017.074a.607.607,0,0,0-.061-.006v.108l.173-.2c.389-.423.709-.854,1.145-1.252a5.607,5.607,0,0,1,.746-.538c.518-.252.892-.685,1.47-.588a3.382,3.382,0,0,0,.651-.054.81.81,0,0,0,.176-.7c-.164-.393-.333-.166-.8-.367.316.115-.158.236-.481.131-.564-.252-.957.337-1.363.561a2.332,2.332,0,0,0-.33.227,6.54,6.54,0,0,0-1.461,1.6,1.289,1.289,0,0,0-.194.526c-.05.11-.169.186-.225.267a1.244,1.244,0,0,0-.16.392c.066-.13.1-.232.173-.372.056-.091.078.14.064.216,0,.038-.123.01-.122.045a.61.61,0,0,0-.039.207c0,.037-.089-.025-.087-.006-.031.092.046.227-.006.263l-.111.082-.046.061v.063l.112.038-.074.053.074-.053-.112-.038-.057.426.008,0a.271.271,0,0,1,.177-.165c-.04.017-.061,0-.048-.038l.064,0c-.011.073-.018.149-.119.161,0,0,.008.04.01.058l-.084-.018-.017.041A.651.651,0,0,0,66.747,58.135Z"/><path class="cls-5" d="M67.165,57.467l-.016.033.1-.114C67.186,57.38,67.177,57.422,67.165,57.467Z"/><path class="cls-5" d="M66.008,58.386l.048-.03-.043-.015C66,58.336,66,58.361,66.008,58.386Z"/><polygon class="cls-5" points="66.104 58.33 66.114 58.326 66.118 58.313 66.104 58.33"/><path class="cls-5" d="M66.183,58.255l-.048.026Z"/><polygon class="cls-5" points="66.094 58.268 66.118 58.313 66.118 58.313 66.135 58.281 66.094 58.268"/><path class="cls-5" d="M66.094,58.268l-.037-.02Z"/><path class="cls-5" d="M65.929,57.911c0-.023.054.08.062.047.035-.045.057-.108.1-.128.012-.03.1.066.11.035.037-.048.109-.239.037-.2-.114.063-.177.12-.274.181a2.277,2.277,0,0,0-.161.269l-.066.033.111-.015C65.9,58.132,65.875,57.976,65.929,57.911Z"/><path class="cls-5" d="M65.613,58.588v-.044c.094.029.111-.019.131-.074l-.053-.028c-.02.022,0,.047.033.05a.173.173,0,0,0-.18.05Z"/><rect class="cls-5" x="65.514" y="58.551" width="0.034" height="0.006" transform="translate(-21.482 70.862) rotate(-49.833)"/><path class="cls-5" d="M66.345,58.08l.38-.142c.005-.023,0-.05.021-.042l.041.027.057-.005.017-.015v0l-.009-.043-.033-.035.033.035.038.023.05-.016-.05.016-.029.022-.008.012.131-.014.027-.013c.027-.023.055-.043.085.008l.025-.006-.008-.005.01.005.1-.005.051-.078.032.051.026-.063-.068-.081c-.033-.05-.025.119-.074.025.049.094.041-.075.074-.025l.068.081c.025-.025.07-.015.111.03-.031.053-.072.02-.111-.03l-.026.063-.032-.051-.051.078.2-.017c.429,0,.816-.061,1.264-.031a4.03,4.03,0,0,1,.7.114c.46.123.867-.031,1.342.246a1.446,1.446,0,0,0,.707.013c.232-.2.07-.667.059-.692-.165-.4-.259-.171-.548-.4.2.129-.134.269-.326-.01-.267-.423-.645-.08-.982-.181a1.012,1.012,0,0,0-.273-.012,5.129,5.129,0,0,0-1.589.108.933.933,0,0,0-.383.218c-.085.036-.2.006-.271.021a.745.745,0,0,0-.294.158c.1-.042.172-.09.29-.132.079-.026-.027.152-.069.191-.018.029-.082-.081-.1-.051-.05.01-.082.071-.128.111-.015.03-.042-.08-.05-.066-.065.043-.077.187-.128.181l-.114-.012-.058.016-.027.042.056.1-.073-.011.073.011-.056-.1-.224.272.008.01a.167.167,0,0,1,.188,0c-.031-.013-.043-.043-.014-.061l.04.04c-.036.05-.072.1-.146.044l-.019.045-.049-.066L66.2,58A.648.648,0,0,0,66.345,58.08Z"/><path class="cls-5" d="M66.89,57.885l-.023.013.11-.01C66.944,57.842,66.916,57.865,66.89,57.885Z"/><path class="cls-5" d="M66.969,60.04l.078.013-.036-.046C67,60,66.984,60.02,66.969,60.04Z"/><polygon class="cls-5" points="67.123 60.063 67.136 60.065 67.149 60.055 67.123 60.063"/><polygon class="cls-5" points="67.153 60.01 67.149 60.055 67.149 60.055 67.191 60.045 67.153 60.01"/><path class="cls-5" d="M67.153,60.01l-.022-.043Z"/><path class="cls-5" d="M67.216,59.622c.016-.012,0,.1.036.076a.6.6,0,0,1,.188-.066c.037-.022.066.106.1.083.07-.03.258-.16.155-.16-.155,0-.255.022-.394.032l-.337.111-.091-.018.123.063C67.046,59.776,67.123,59.64,67.216,59.622Z"/><path class="cls-5" d="M66.39,59.924l.041-.033c.064.084.127.058.193.031l-.026-.056c-.04,0-.046.036-.012.06a.26.26,0,0,0-.221-.082Z"/><polygon class="cls-5" points="66.325 59.846 66.365 59.844 66.365 59.833 66.323 59.844 66.325 59.846"/><path class="cls-5" d="M67.564,59.97l.529.055c.014-.023.027-.046.041-.03l.034.04.075.013.026-.005h0L68.278,60l-.019-.04.019.04.037.035.07.01-.07-.01-.046.013-.013.006.164.049.035,0c.042-.006.082-.011.1.047l.027.013v-.013l.009.013.119.047.094-.045s.016.043.021.061l.054-.042-.043-.107c-.016-.063-.084.1-.1-.015.013.111.081-.048.1.015l.043.107c.045-.011.093.024.119.084-.057.033-.091-.02-.119-.084l-.054.042c-.005-.018-.021-.061-.021-.061l-.094.045.241.084c.516.218,1.029.264,1.543.533l.79.451c.5.3,1.038.4,1.447.906a2.278,2.278,0,0,0,.764.4c.344-.044.423-.534.423-.562.015-.443-.218-.3-.452-.674.174.231-.279.155-.379-.2-.146-.529-.721-.461-1.1-.7l-.325-.141a6.186,6.186,0,0,0-1.932-.629,1.493,1.493,0,0,0-.545.033,1.7,1.7,0,0,1-.317-.114,1.036,1.036,0,0,0-.407,0c.136.013.239,0,.391.025.1.018-.1.121-.167.141-.034.015-.055-.116-.086-.1a.566.566,0,0,0-.2.034c-.033.021-.012-.085-.027-.077-.1.02-.186.155-.24.117l-.117-.06-.072-.012-.056.02.011.121-.078-.043.078.043-.011-.121-.4.144v.007a.265.265,0,0,1,.216.085c-.032-.025-.022-.057.013-.057l.025.055c-.07.025-.139.05-.191-.032l-.047.032-.016-.083-.046.007A.655.655,0,0,0,67.564,59.97Z"/><path class="cls-5" d="M68.315,60.035l-.037.005.136.038C68.4,60.023,68.357,60.025,68.315,60.035Z"/><path class="cls-5" d="M67.511,61.694l.029.05.017-.045C67.559,61.682,67.534,61.688,67.511,61.694Z"/><polygon class="cls-5" points="67.564 61.792 67.571 61.8 67.584 61.802 67.564 61.792"/><path class="cls-5" d="M67.647,61.858l-.033-.038Z"/><polygon class="cls-5" points="67.625 61.78 67.587 61.802 67.584 61.802 67.614 61.82 67.625 61.78"/><path class="cls-5" d="M67.625,61.78l.021-.041Z"/><path class="cls-5" d="M67.959,61.573c.018,0-.075.065-.045.065.055.018.115.025.143.058.03,0-.053.1-.02.1.053.02.241.027.2-.026l-.21-.173-.243-.109-.032-.057.012.1C67.757,61.576,67.9,61.538,67.959,61.573Z"/><path class="cls-5" d="M67.317,61.309l.05.005c-.041.08.012.1.065.121l.037-.045c-.021-.018-.049-.006-.056.027a.144.144,0,0,0-.038-.166Z"/><polygon class="cls-5" points="67.354 61.231 67.375 61.251 67.385 61.246 67.354 61.228 67.354 61.231"/><path class="cls-5" d="M67.857,61.973l.212.32.041,0-.015.047.025.048.019.01h0l.038-.03.02-.038-.02.038-.009.046.037.035-.037-.035-.029-.016h-.011l.064.1.021.016c.034.012.063.026.034.072l.009.021,0-.011,0,.013.048.081.088.01-.03.05.065-.008.042-.1c.031-.051-.115.037-.05-.049-.065.086.081,0,.05.049l-.042.1c.033.011.042.051.021.109-.064,0-.046-.056-.021-.109l-.065.008.03-.05-.088-.01.1.161a11.708,11.708,0,0,0,.689.981l.332.584c.192.405.564.587.649,1.09.038.187.284.374.4.481.279.03.554-.372.569-.4.21-.373-.029-.292-.033-.65.021.224-.282.082-.2-.234.142-.47-.349-.5-.472-.793a.931.931,0,0,0-.152-.193c-.2-.441-.642-.637-.917-1.035-.082-.1-.234-.119-.346-.166-.064-.048-.077-.151-.119-.2a.533.533,0,0,0-.242-.153l.223.163c.048.048-.142.048-.2.035-.028,0,.046-.1.013-.1-.025-.033-.091-.033-.144-.05-.033,0,.057-.066.04-.066-.057-.035-.2.012-.2-.041l-.008-.1-.025-.049-.043-.01-.085.084-.007-.068.007.068.085-.084-.293-.118-.008.01a.151.151,0,0,1,.039.167c0-.036.03-.051.051-.033l-.029.05c-.053-.017-.107-.037-.066-.123h-.051l.056-.061-.026-.022A.555.555,0,0,0,67.857,61.973Z"/><path class="cls-5" d="M68.168,62.419l-.022-.015.051.091C68.231,62.444,68.2,62.431,68.168,62.419Z"/><path class="cls-5" d="M62.631,62.52l-.028.08.05-.027C62.671,62.557,62.648,62.54,62.631,62.52Z"/><polygon class="cls-5" points="62.577 62.675 62.569 62.691 62.573 62.706 62.577 62.675"/><path class="cls-5" d="M62.53,62.826l.031-.073Z"/><polygon class="cls-5" points="62.615 62.726 62.573 62.706 62.573 62.706 62.561 62.753 62.615 62.726"/><path class="cls-5" d="M62.615,62.726l.05-.01Z"/><path class="cls-5" d="M62.952,62.918c0,.022-.095-.026-.087.017a.709.709,0,0,1-.037.241c.006.046-.128.033-.123.076-.009.089-.017.338.054.235a2.363,2.363,0,0,0,.185-.464,1.647,1.647,0,0,0,.023-.441l.041-.106-.09.137C62.866,62.668,62.993,62.809,62.952,62.918Z"/><path class="cls-5" d="M62.763,61.893l.041.039c-.082.082-.049.142-.012.222l.052-.03c-.008-.046-.037-.05-.064-.013a.32.32,0,0,0,.064-.258Z"/><polygon class="cls-5" points="62.832 61.805 62.844 61.853 62.852 61.85 62.836 61.802 62.832 61.805"/><path class="cls-5" d="M62.462,63.171a3.922,3.922,0,0,1-.385.486c.009.025.02.05,0,.058l-.061.008-.062.062-.014.026h0l.036.035.048.005-.048-.005-.055.015-.054.063.054-.063.019-.05,0-.015-.144.138-.022.033c-.022.045-.045.091-.1.073l-.029.025h.009l-.017,0-.115.1-.025.113-.066-.015v.078l.121.015c.06.015-.025-.133.076-.088-.1-.045-.016.1-.076.088l-.121-.015a.143.143,0,0,1-.151.07c.013-.075.081-.078.151-.07v-.078l.066.015.025-.113-.232.185a4.916,4.916,0,0,1-1.558,1.013,2.2,2.2,0,0,1-.966.125,4.981,4.981,0,0,1-1.919-.341,2.807,2.807,0,0,0-1.067-.091c-.365.174-.173.656-.16.684.2.415.374.19.781.448-.281-.156.238-.244.487.056.357.458.974.184,1.525.292a3.452,3.452,0,0,0,.468-.015,3.855,3.855,0,0,0,2.44-1.12,1.977,1.977,0,0,0,.308-.516c.083-.106.227-.165.3-.247a1.255,1.255,0,0,0,.267-.4,4.568,4.568,0,0,1-.275.376c-.08.09-.039-.159-.006-.237.006-.043.131.007.137-.033a.59.59,0,0,0,.091-.219c.007-.043.086.035.086.015.058-.1,0-.256.073-.289l.135-.078.062-.071.012-.066L62.4,63.59l.088-.058-.088.058.108.049.123-.48-.011,0a.283.283,0,0,1-.2.185c.046-.019.067,0,.046.045l-.063-.005c.017-.081.034-.159.146-.177l-.006-.06c.025-.018.054,0,.08.012l.016-.05A.87.87,0,0,0,62.462,63.171Z"/><path class="cls-5" d="M61.909,63.861l.024-.038-.123.114C61.867,63.955,61.891,63.9,61.909,63.861Z"/><path class="cls-5" d="M61.1,58.834l-.062-.052.01.055C61.052,58.86,61.071,58.844,61.1,58.834Z"/><polygon class="cls-5" points="60.973 58.731 60.961 58.723 60.948 58.723 60.973 58.731"/><path class="cls-5" d="M60.837,58.668l.067.038Z"/><polygon class="cls-5" points="60.915 58.756 60.948 58.723 60.948 58.723 60.904 58.706 60.915 58.756"/><path class="cls-5" d="M60.915,58.756v0Z"/><path class="cls-5" d="M60.644,59.043c-.022,0,.05-.085.011-.083-.076-.018-.162-.01-.21-.06-.036,0,.006-.128-.032-.131-.07-.026-.308-.041-.222.03a2.3,2.3,0,0,0,.354.226l.373.1.073.063-.077-.116C60.883,59.013,60.737,59.081,60.644,59.043Z"/><path class="cls-5" d="M61.56,59.255l-.054,0c-.012-.106-.084-.116-.157-.133l0,.063c.034.02.054,0,.042-.046a.281.281,0,0,0,.152.194Z"/><polygon class="cls-5" points="61.583 59.356 61.539 59.335 61.535 59.345 61.581 59.357 61.583 59.356"/><path class="cls-5" d="M60.536,58.54l-.4-.393c-.028.005-.05.015-.058,0v-.058l-.052-.058L60,58.011h0l-.034.03-.008.048.008-.048-.008-.05-.058-.05.058.05.042.02.016,0-.11-.141-.029-.023c-.037-.023-.077-.047-.053-.1l-.021-.028v-.005L59.73,57.6l-.106-.027s.016-.041.025-.06l-.074-.006-.032.111c-.021.061.131-.018.072.078.059-.1-.093-.017-.072-.078l.032-.111a.129.129,0,0,1-.049-.146c.075.015.07.08.049.146l.074.006c-.009.019-.025.06-.025.06l.106.027-.142-.224a6.012,6.012,0,0,1-.735-1.535,2.683,2.683,0,0,1-.115-.917,3.219,3.219,0,0,1,.164-1.679,2.076,2.076,0,0,0,.182-.825c-.129-.324-.615-.3-.647-.29-.43.1-.237.3-.545.668.189-.253.212.229-.085.47-.4.373-.151.967-.141,1.458a3.182,3.182,0,0,0,.053.405,4.587,4.587,0,0,0,.843,2.134,1.093,1.093,0,0,0,.453.39,2.228,2.228,0,0,1,.2.313,1.234,1.234,0,0,0,.341.284c-.107-.1-.2-.168-.317-.292-.076-.08.161-.025.227.008.04.008-.024.131.013.138a.559.559,0,0,0,.191.1c.039,0-.043.076-.024.078.095.051.248.006.27.068l.063.126.054.063.06.015.063-.1.038.085-.038-.085-.063.1.415.156,0-.01a.293.293,0,0,1-.131-.211c.011.043-.016.06-.048.037l.015-.059c.07.022.143.047.139.156h.054l-.029.077.041.028A.77.77,0,0,0,60.536,58.54Z"/><path class="cls-5" d="M59.957,57.989l.033.019-.091-.12C59.876,57.946,59.914,57.971,59.957,57.989Z"/><path class="cls-5" d="M59.078,60.44l-.121-.038.053.056C59.034,60.475,59.053,60.458,59.078,60.44Z"/><polygon class="cls-5" points="58.848 60.37 58.824 60.365 58.803 60.37 58.848 60.37"/><path class="cls-5" d="M58.631,60.345l.107.025Z"/><path class="cls-5" d="M58.792,60.413c-.01-.018-.01-.035.011-.043h-.065Z"/><path class="cls-5" d="M58.792,60.413l.027.05Z"/><path class="cls-5" d="M58.636,60.78c-.026,0,.008-.1-.041-.086a.708.708,0,0,1-.306-.007c-.054.007-.081-.134-.135-.123-.106-.008-.418.04-.262.087a5.068,5.068,0,0,0,.61.136l.544,0,.138.045-.179-.1C58.923,60.679,58.782,60.791,58.636,60.78Z"/><path class="cls-5" d="M59.966,60.657c-.017.01-.067.03-.067.03a.285.285,0,0,0-.294-.061l.035.064c.059,0,.071-.031.022-.061a.571.571,0,0,0,.337.113C60,60.712,60,60.677,59.966,60.657Z"/><polygon class="cls-5" points="60.07 60.742 59.999 60.742 60.003 60.752 60.07 60.745 60.07 60.742"/><path class="cls-5" d="M58.159,60.3a3.762,3.762,0,0,1-.765-.325c-.028.01-.052.025-.073,0l-.04-.064-.1-.055-.044-.007h0c-.025,0-.029.02-.021.04l.019.053-.019-.053-.046-.056-.1-.047.1.047.067.016.021,0-.227-.136-.052-.023c-.063-.017-.125-.037-.134-.1l-.035-.028v.012l-.008-.017-.169-.113-.145-.016a.451.451,0,0,0-.011-.07l-.093,0,.035.131c.011.074.147-.04.139.076.008-.116-.128,0-.139-.076l-.035-.131a.255.255,0,0,1-.141-.17c.094.01.127.088.141.17l.093,0a.451.451,0,0,1,.011.07l.145.016-.314-.245a6.677,6.677,0,0,1-1.7-1.858,3.215,3.215,0,0,1-.436-1.268,2.874,2.874,0,0,1,.338-2.321c.2-.254.415-.783.605-1.039a.492.492,0,0,0-.448-.565c-.477.013-.467.3-.948.743.3-.314.1.378-.3.66-.573.465-.438,1.457-.367,2.2a1.832,1.832,0,0,0,.123.614,5.342,5.342,0,0,0,1.876,2.837,2.255,2.255,0,0,0,.761.408c.163.093.29.267.427.34a2.548,2.548,0,0,0,.6.249c-.2-.093-.356-.148-.578-.262-.145-.075.177-.063.283-.035.053,0,.053.146.1.149a1.115,1.115,0,0,0,.3.078c.054,0,0,.093.024.093.145.04.309-.04.38.025l.155.131.106.055.08.01.016-.126.106.084-.106-.084-.016.126.637.045v-.012a.552.552,0,0,1-.309-.181c.038.043.023.068-.034.055l-.027-.069c.11.008.216.011.286.12,0,0,.05-.008.077-.014.022.026.011.059.007.089l.069.015A.927.927,0,0,0,58.159,60.3Z"/><path class="cls-5" d="M57.07,59.831l.057.013-.193-.119C56.944,59.793,57,59.819,57.07,59.831Z"/><path class="cls-5" d="M52.851,65.557l.05-.1-.058.038C52.819,65.51,52.839,65.535,52.851,65.557Z"/><polygon class="cls-5" points="52.949 65.362 52.96 65.343 52.956 65.323 52.949 65.362"/><path class="cls-5" d="M53.009,65.167l-.039.1Z"/><polygon class="cls-5" points="52.916 65.301 52.956 65.323 52.956 65.323 52.97 65.264 52.916 65.301"/><path class="cls-5" d="M52.916,65.3l-.051.016Z"/><path class="cls-5" d="M52.589,65.074c0-.028.094.031.088-.02a.885.885,0,0,1,.077-.284c0-.049.144-.041.147-.09.026-.1.051-.411-.029-.275-.118.209-.172.352-.267.542l-.084.52-.066.121.118-.152C52.639,65.37,52.552,65.216,52.589,65.074Z"/><path class="cls-5" d="M52.537,66.346c-.008-.021-.021-.064-.021-.064.1-.07.094-.168.082-.271l-.061.028c-.008.055.024.07.06.027a.47.47,0,0,0-.147.3C52.482,66.368,52.516,66.373,52.537,66.346Z"/><polygon class="cls-5" points="52.442 66.429 52.45 66.368 52.437 66.371 52.437 66.434 52.442 66.429"/><path class="cls-5" d="M53.152,64.752a3.321,3.321,0,0,1,.492-.606c-.006-.031-.015-.058.012-.068l.068-.018.078-.073.023-.032h0l-.031-.039h0l.065-.017.073-.073-.073.073-.034.056-.005.017.194-.161.032-.038c.033-.053.069-.106.129-.091l.035-.027H54.2l.019-.005.151-.114.061-.125s.046.012.068.02l.02-.088-.133-.013c-.069-.02-.005.141-.111.093.106.048.042-.113.111-.093l.133.013a.212.212,0,0,1,.192-.076c-.033.086-.111.088-.192.076l-.02.088c-.022-.008-.068-.02-.068-.02l-.061.125.312-.2a10.925,10.925,0,0,1,2.138-1.085,6.508,6.508,0,0,1,1.286-.317,6.252,6.252,0,0,1,2.441-.247,10.184,10.184,0,0,0,1.2-.013c.407-.174.239-.656.215-.682-.254-.41-.48-.217-1.054-.412.39.117-.26.263-.65.041-.588-.369-1.29.124-1.943.18a4.279,4.279,0,0,0-.517.138,8.66,8.66,0,0,0-2.789,1.236,2.308,2.308,0,0,0-.567.566,4.639,4.639,0,0,1-.431.28,1.894,1.894,0,0,0-.4.475,5.494,5.494,0,0,1,.4-.45c.12-.1,0,.171-.049.269-.016.048-.145,0-.163.05a1.065,1.065,0,0,0-.15.255c-.014.045-.089-.038-.1-.015-.087.113-.053.292-.131.337l-.158.111-.077.083-.032.075.114.049-.106.07.106-.07-.114-.049c-.074.174-.129.388-.193.572l.01,0a.5.5,0,0,1,.234-.241c-.048.025-.068.005-.043-.048l.071,0c-.036.1-.055.2-.174.23,0,0,0,.051,0,.074-.031.021-.058,0-.086-.013l-.027.06A.8.8,0,0,0,53.152,64.752Z"/><path class="cls-5" d="M53.863,63.9l-.03.039.165-.13C53.932,63.8,53.9,63.849,53.863,63.9Z"/><path class="cls-5" d="M61.933,69.88l-.041-.1-.009.065C61.88,69.875,61.908,69.872,61.933,69.88Z"/><polygon class="cls-5" points="61.852 69.691 61.85 69.676 61.832 69.664 61.852 69.691"/><path class="cls-5" d="M61.747,69.537l.047.08Z"/><path class="cls-5" d="M61.786,69.681c.011-.017.024-.03.046-.017h0l-.038-.047Z"/><path class="cls-5" d="M61.786,69.681l-.017.05Z"/><path class="cls-5" d="M61.414,69.81c-.019-.013.08-.058.043-.081a.836.836,0,0,1-.185-.2c-.046-.023.052-.131.014-.156-.06-.076-.28-.254-.224-.121a2.356,2.356,0,0,0,.267.476l.325.345.048.118-.032-.177C61.662,69.933,61.493,69.915,61.414,69.81Z"/><path class="cls-5" d="M62.29,70.587c-.019-.007-.06-.028-.06-.028.02-.113-.054-.17-.126-.228l-.027.065c.033.034.063.025.06-.025a.421.421,0,0,0,.1.289C62.265,70.637,62.294,70.617,62.29,70.587Z"/><polygon class="cls-5" points="62.281 70.705 62.242 70.66 62.233 70.668 62.278 70.705 62.281 70.705"/><path class="cls-5" d="M61.5,69.213a3.519,3.519,0,0,1-.2-.684c-.024-.011-.053-.021-.045-.046l.028-.063-.015-.1-.016-.03v0c-.016-.012-.032,0-.046.008l-.033.045.033-.045.017-.061-.025-.09.025.09.03.056.012.013-.034-.23-.012-.042c-.021-.053-.041-.1.009-.146V67.84l-.009.013.009-.017v-.172l-.075-.11.046-.042-.059-.059-.083.088c-.051.043.121.081.019.136.1-.055-.07-.093-.019-.136l.083-.088a.191.191,0,0,1,.058-.186c.046.071,0,.131-.058.186l.059.059-.046.042.075.11,0-.339a7.162,7.162,0,0,1,.452-2.13,5.835,5.835,0,0,1,.563-1.069,8.079,8.079,0,0,1,1.276-1.921,4.377,4.377,0,0,0,.616-1.007c.038-.441-.479-.5-.509-.494-.476.013-.378.29-.833.61.287-.232.1.347-.3.493-.6.209-.633.969-.982,1.458a2.709,2.709,0,0,0-.219.438,6.93,6.93,0,0,0-.792,2.731,1.9,1.9,0,0,0,.11.747c.014.164-.041.343-.02.481a1.692,1.692,0,0,0,.15.556,5.241,5.241,0,0,1-.127-.546c-.021-.143.154.093.192.181.029.035-.086.113-.059.149a.535.535,0,0,0,.121.247c.032.037-.079.053-.062.07.053.124.212.189.2.272l-.013.182.025.105.047.055.1-.063v0l-.1.063.34.443.009-.005a.435.435,0,0,1-.041-.312c-.008.051-.038.055-.063.01l.038-.058c.064.079.122.149.074.257l.052.043-.06.06.028.053A1.015,1.015,0,0,0,61.5,69.213Z"/><path class="cls-5" d="M61.223,68.233l.017.045-.025-.191C61.169,68.13,61.194,68.181,61.223,68.233Z"/><path class="cls-5" d="M66.3,70.736l-.043-.076-.01.058C66.245,70.741,66.267,70.736,66.3,70.736Z"/><polygon class="cls-5" points="66.217 70.592 66.209 70.58 66.195 70.572 66.217 70.592"/><path class="cls-5" d="M66.111,70.481l.046.063Z"/><polygon class="cls-5" points="66.152 70.595 66.195 70.572 66.195 70.572 66.157 70.544 66.152 70.595"/><path class="cls-5" d="M66.152,70.6l-.017.045Z"/><path class="cls-5" d="M65.8,70.771c-.019,0,.077-.063.042-.074-.065-.041-.144-.068-.177-.125-.038-.013.045-.118.011-.131-.064-.045-.279-.13-.224-.04a2.667,2.667,0,0,0,.27.323l.306.218.046.088-.028-.138C66.032,70.826,65.871,70.839,65.8,70.771Z"/><path class="cls-5" d="M66.585,71.3c-.02,0-.056-.013-.056-.013.029-.1-.034-.141-.1-.184l-.026.056c.024.03.051.017.056-.028a.281.281,0,0,0,.074.239Z"/><polygon class="cls-5" points="66.565 71.4 66.533 71.367 66.525 71.375 66.565 71.403 66.565 71.4"/><path class="cls-5" d="M65.862,70.262l-.264-.5c-.028,0-.054,0-.05-.021l.014-.055-.035-.072-.022-.021h0l-.039.021-.024.042.024-.042.006-.051-.04-.066.04.066.033.03.014.008-.069-.166-.022-.033c-.032-.031-.065-.065-.025-.113l-.008-.033-.008.01v-.015l-.039-.131-.1-.058.039-.048-.072-.025-.053.1c-.041.05.127.017.048.093.079-.076-.089-.043-.048-.093l.053-.1a.125.125,0,0,1,0-.153c.063.033.042.093,0,.153l.072.025-.039.048.1.058-.085-.259a10.14,10.14,0,0,1-.436-1.679,4.084,4.084,0,0,1-.024-.954,4.82,4.82,0,0,1,.156-1.785,2.365,2.365,0,0,0,.071-.9c-.17-.317-.654-.194-.682-.177-.413.17-.194.333-.448.731.148-.27.25.2-.033.464-.4.384-.08.93-.123,1.408a2.605,2.605,0,0,0,.028.391,6.019,6.019,0,0,0,.518,2.174,1.314,1.314,0,0,0,.352.467,1.826,1.826,0,0,1,.117.345,1.17,1.17,0,0,0,.256.359c-.077-.126-.147-.211-.231-.357-.05-.1.162.012.22.063.032.017-.058.115-.024.13a.454.454,0,0,0,.16.146c.036.021-.064.066-.045.074.072.073.233.073.235.14l.019.141.034.072.048.032.094-.076.009.095-.009-.095-.094.076.349.274.008,0a.293.293,0,0,1-.06-.242c0,.043-.03.053-.055.023l.033-.056c.06.048.12.091.086.192l.055.02-.059.063.03.038A.65.65,0,0,0,65.862,70.262Z"/><path class="cls-5" d="M65.475,69.553l.025.033-.061-.144C65.4,69.494,65.439,69.522,65.475,69.553Z"/><path class="cls-5" d="M71.133,68.986l-.1-.058.035.063C71.083,69.011,71.105,69,71.133,68.986Z"/><polygon class="cls-5" points="70.924 68.878 70.907 68.866 70.884 68.868 70.924 68.878"/><path class="cls-5" d="M70.721,68.81l.1.043Z"/><path class="cls-5" d="M70.862,68.906c0-.018,0-.036.022-.038h0l-.066-.015Z"/><path class="cls-5" d="M70.862,68.906l.015.052Z"/><path class="cls-5" d="M70.619,69.228c-.025,0,.037-.1-.015-.093a.627.627,0,0,1-.291-.078c-.047,0-.046-.149-.092-.151-.1-.03-.407-.058-.271.027.21.117.345.187.538.28l.535.1.123.071-.152-.128C70.928,69.188,70.766,69.266,70.619,69.228Z"/><path class="cls-5" d="M71.929,69.432l-.074.008c-.057-.117-.158-.129-.263-.142l.019.069c.058.02.073-.008.036-.054a.584.584,0,0,0,.284.209C71.939,69.492,71.951,69.457,71.929,69.432Z"/><polygon class="cls-5" points="71.999 69.539 71.931 69.522 71.931 69.533 71.999 69.547 71.999 69.539"/><path class="cls-5" d="M70.287,68.644l-.671-.471c-.031,0-.06.015-.073-.008l-.029-.065-.09-.07-.041-.015h0l-.029.032.008.056-.008-.056-.028-.063-.085-.072.085.072.057.031.024,0-.189-.186-.044-.03c-.06-.033-.115-.063-.11-.131l-.033-.033v.015l-.005-.022-.135-.144-.144-.042s0-.044,0-.072l-.092-.006.012.138c0,.067.148-.018.117.095.031-.113-.121-.028-.117-.095l-.012-.138a.225.225,0,0,1-.117-.177c.094.018.11.1.117.177l.092.006c0,.028,0,.072,0,.072l.144.042-.275-.282a15.708,15.708,0,0,1-1.595-1.971,8.317,8.317,0,0,1-.682-1.221,9.486,9.486,0,0,1-1.066-2.4,5.758,5.758,0,0,0-.521-1.215.477.477,0,0,0-.715.09c-.257.42.043.532.066,1.16-.031-.42.34.162.277.61-.119.677.528,1.223.807,1.842a4.048,4.048,0,0,0,.279.479,11.351,11.351,0,0,0,1.922,2.5,2.24,2.24,0,0,0,.674.468,3.627,3.627,0,0,1,.365.378,2.641,2.641,0,0,0,.521.35c-.171-.129-.307-.209-.493-.357-.126-.1.177-.031.275.015.047.006.022.15.071.16a.95.95,0,0,0,.265.131c.048.013-.024.093,0,.1.126.072.309.017.363.093l.128.151.093.068.082.023.037-.119.086.1-.086-.1-.037.119.589.191,0-.01a.557.557,0,0,1-.25-.247c.029.045.006.07-.044.043l-.008-.074c.1.033.2.064.238.185l.074,0c.019.033,0,.065-.01.091l.063.033A.981.981,0,0,0,70.287,68.644Z"/><path class="cls-5" d="M69.326,67.977l.046.032-.154-.161C69.21,67.916,69.268,67.947,69.326,67.977Z"/><path class="cls-5" d="M63.554,50.115l-.1.058.069,0C63.551,50.173,63.551,50.147,63.554,50.115Z"/><polygon class="cls-5" points="63.355 50.221 63.338 50.23 63.326 50.248 63.355 50.221"/><path class="cls-5" d="M63.2,50.346l.085-.055Z"/><path class="cls-5" d="M63.35,50.289c-.017-.011-.033-.021-.025-.041h0l-.042.043Z"/><path class="cls-5" d="M63.35,50.289l.057.012Z"/><path class="cls-5" d="M63.543,50.626c0,.02-.066-.071-.082-.036-.054.058-.046.164-.093.209,0,.044-.125,0-.128.038-.03.086-.029.3.04.216.091-.123.132-.221.214-.352l.25-.3.1-.048-.151.033C63.614,50.394,63.614,50.558,63.543,50.626Z"/><path class="cls-5" d="M64.364,49.925l-.049.051c-.1-.057-.185-.005-.262.046l.052.045c.049-.021.049-.05,0-.063a.43.43,0,0,0,.307,0Z"/><polygon class="cls-5" points="64.468 49.974 64.41 49.999 64.413 50.009 64.468 49.976 64.468 49.974"/><path class="cls-5" d="M63,50.734a2.782,2.782,0,0,0-.341.637c.013.022.032.04.017.06l-.049.043-.021.1v.041h0a.03.03,0,0,0,.045.01l.046-.026-.046.026-.041.048-.012.095.012-.095,0-.058-.008-.021-.055.227v.05c.006.058.01.113-.048.144l0,.04.013,0-.013.015-.019.174.065.118-.054.04.054.063.091-.085c.06-.035-.108-.088,0-.131-.1.043.064.1,0,.131l-.091.085a.2.2,0,0,1-.054.189c-.049-.071,0-.136.054-.189l-.054-.063.054-.04-.065-.118-.03.355a8.284,8.284,0,0,0,.333,2.243l.3,1.225c.189.808.66,1.392.837,2.256a3.157,3.157,0,0,0,.689,1.07c.432.236.624-.28.645-.3.149-.446-.132-.443-.2-.978.066.351-.357-.067-.275-.48.146-.591-.442-.989-.57-1.546a3.672,3.672,0,0,0-.163-.418c-.181-.833-.6-1.52-.729-2.379a2.228,2.228,0,0,0-.233-.591,1.633,1.633,0,0,1,.034-.39c-.013-.176-.034-.32-.054-.461a1.931,1.931,0,0,0,.032.448c.005.121-.143-.085-.173-.17-.028-.038.094-.084.08-.116a.646.646,0,0,0-.042-.224c-.017-.038.091-.016.081-.03,0-.109-.134-.23-.085-.29l.106-.111.04-.075,0-.064-.119-.025.07-.072-.07.072.119.025a.772.772,0,0,1,.1-.471l-.011,0a.454.454,0,0,1-.234.181c.04-.025.063,0,.05.043l-.063.008a.175.175,0,0,1,.161-.2s0-.04.005-.063c.031-.013.056.013.081.028l.029-.048A.6.6,0,0,0,63,50.734Z"/><path class="cls-5" d="M62.6,51.673v-.05l-.05.189C62.615,51.786,62.607,51.728,62.6,51.673Z"/><path class="cls-5" d="M65.72,57.405l.026-.086-.05.036C65.682,57.369,65.7,57.384,65.72,57.405Z"/><polygon class="cls-5" points="65.772 57.238 65.775 57.221 65.772 57.205 65.772 57.238"/><path class="cls-5" d="M65.781,57.08l-.014.078Z"/><polygon class="cls-5" points="65.727 57.193 65.772 57.205 65.772 57.205 65.767 57.158 65.727 57.193"/><path class="cls-5" d="M65.727,57.193l-.048.02Z"/><path class="cls-5" d="M65.354,57.06c-.008-.021.1.009.08-.025a.623.623,0,0,1-.027-.222c-.019-.035.116-.055.1-.093-.016-.078-.111-.3-.133-.189-.027.166-.027.28-.04.434l.047.39-.035.1.08-.123C65.475,57.274,65.354,57.162,65.354,57.06Z"/><path class="cls-5" d="M65.5,58.036l-.025-.053c.1-.05.084-.128.068-.207l-.063.019c0,.042.028.055.062.022a.326.326,0,0,0-.127.23Z"/><rect class="cls-5" x="65.383" y="58.07" width="0.05" height="0.004" transform="translate(2.413 118.753) rotate(-85.528)"/><path class="cls-5" d="M65.767,56.727l.162-.576c-.02-.022-.039-.038-.021-.055l.05-.036.029-.081,0-.027v0l-.045-.013-.046.017.046-.017.042-.036L66,55.824l-.018.077,0,.051,0,.015.065-.183v-.041c0-.048,0-.1.053-.113l.013-.033-.013.006.016-.011.047-.138-.034-.111a.568.568,0,0,1,.06-.018l-.041-.065-.108.048c-.063.017.09.1-.02.11.11-.012-.043-.093.02-.11l.108-.048a.14.14,0,0,1,.088-.136c.033.068-.025.106-.088.136l.041.065a.568.568,0,0,0-.06.018l.034.111.1-.274a12.886,12.886,0,0,0,.477-1.833c.073-.358.188-.7.248-1.045.174-.7-.043-1.319.144-2.077a3.412,3.412,0,0,0-.221-1.041c-.264-.3-.673.034-.7.053-.341.314-.085.4-.222.853.058-.3.317.146.079.447-.4.423.05.884-.1,1.35a3.1,3.1,0,0,0-.025.365c-.171.68-.1,1.349-.292,2.092a2.333,2.333,0,0,0,.033.571,1.783,1.783,0,0,1-.121.347,1.35,1.35,0,0,0-.019.446c.017-.154.011-.267.038-.431.019-.111.119.108.132.189.016.035-.115.053-.1.09a.753.753,0,0,0,.029.22c.016.035-.088,0-.082.023,0,.105.119.216.073.269l-.082.121-.032.078.016.06.12.008-.057.078.057-.078-.12-.008.057.458h.01a.317.317,0,0,1,.127-.226c-.03.032-.062.02-.055-.025l.058-.015c.014.078.027.158-.069.208l.025.053-.086,0,0,.051A.623.623,0,0,0,65.767,56.727Z"/><path class="cls-5" d="M65.987,55.9l0,.043.054-.154C65.979,55.8,65.98,55.852,65.987,55.9Z"/><path class="cls-5" d="M62.912,60.729l.118-.014-.067-.028C62.936,60.679,62.927,60.7,62.912,60.729Z"/><polygon class="cls-5" points="63.14 60.7 63.158 60.694 63.177 60.682 63.14 60.7"/><path class="cls-5" d="M63.338,60.634l-.1.023Z"/><path class="cls-5" d="M63.17,60.637c.015.012.024.03.007.045h0l.057-.025Z"/><path class="cls-5" d="M63.17,60.637l-.046-.033Z"/><path class="cls-5" d="M63.134,60.244c.018-.016.036.1.069.062.089-.045.154-.123.238-.143.036-.037.127.065.159.031.086-.058.281-.268.145-.219-.2.07-.33.14-.513.208l-.428.222-.131.012.184.021C62.944,60.45,63.013,60.294,63.134,60.244Z"/><path class="cls-5" d="M62.035,60.828a.753.753,0,0,1,.054-.053c.1.065.193.016.284-.033l-.05-.048c-.055.018-.055.048,0,.066a.5.5,0,0,0-.334-.008Z"/><polygon class="cls-5" points="61.925 60.772 61.986 60.752 61.983 60.742 61.922 60.772 61.925 60.772"/><path class="cls-5" d="M63.737,60.417l.76-.2c.014-.025.019-.053.048-.047l.069.022.108-.025.036-.02h0c.014-.018,0-.033-.011-.045l-.05-.029.05.029.065.012.1-.037-.1.037-.054.033-.015.017.243-.062.047-.029c.052-.032.108-.068.16-.027l.042-.01-.012,0,.017,0,.188-.048.1-.1s.038.025.058.04l.052-.072-.119-.063c-.06-.038-.056.138-.136.053.08.085.076-.091.136-.053l.119.063a.211.211,0,0,1,.206-.016c-.057.069-.135.048-.206.016l-.052.072c-.02-.015-.058-.04-.058-.04l-.1.1.366-.093c.811-.188,1.519-.471,2.345-.683a10.016,10.016,0,0,1,1.315-.261,7.188,7.188,0,0,1,2.451-.262,5.809,5.809,0,0,0,1.189-.015.514.514,0,0,0,.215-.692c-.258-.4-.477-.172-1.053-.4.395.144-.267.232-.649.049-.586-.335-1.294.113-1.927.193-.161.018-.324.08-.51.121a18.041,18.041,0,0,0-2.785.918,3.116,3.116,0,0,0-.641.391,4.245,4.245,0,0,1-.46.116,2.069,2.069,0,0,0-.512.264c.179-.082.3-.153.5-.241.135-.051-.047.168-.131.229-.03.034-.128-.061-.161-.023a.876.876,0,0,0-.226.163c-.033.033-.062-.073-.078-.055-.116.063-.173.224-.263.219l-.181,0-.106.023L64.068,60l.062.106-.123,0,.123,0L64.068,60l-.488.317.008.007a.49.49,0,0,1,.329-.022c-.054-.013-.057-.043,0-.063l.053.039c-.085.059-.169.114-.279.061,0,0-.032.036-.049.053l-.05-.068-.062.026A.721.721,0,0,0,63.737,60.417Z"/><path class="cls-5" d="M64.816,60.115l-.048.028.2-.053C64.921,60.049,64.869,60.08,64.816,60.115Z"/><path class="cls-5" d="M63.128,59.572l-.093-.006.049.044C63.106,59.622,63.116,59.6,63.128,59.572Z"/><polygon class="cls-5" points="62.952 59.564 62.936 59.564 62.923 59.572 62.952 59.564"/><path class="cls-5" d="M62.794,59.6l.08-.008Z"/><polygon class="cls-5" points="62.923 59.622 62.923 59.572 62.923 59.572 62.874 59.587 62.923 59.622"/><path class="cls-5" d="M62.923,59.622l.029.037Z"/><path class="cls-5" d="M62.886,60.012c-.017.013-.013-.1-.046-.075a.556.556,0,0,1-.209.086c-.033.025-.085-.1-.115-.074-.074.033-.268.184-.155.177.172-.016.284-.05.439-.071l.369-.144.1.008-.136-.048C63.067,59.844,62.99,59.987,62.886,60.012Z"/><path class="cls-5" d="M63.809,59.632l-.046.038c-.073-.083-.149-.048-.221-.017l.033.055c.042-.008.047-.038.006-.063a.315.315,0,0,0,.254.065Z"/><polygon class="cls-5" points="63.889 59.7 63.835 59.71 63.842 59.72 63.889 59.702 63.889 59.7"/><path class="cls-5" d="M62.455,59.7l-.611-.013c-.012.021-.025.046-.042.033l-.045-.043-.086-.008-.03.008h0l-.008.048.033.042-.033-.042-.042-.036h0l.05-.012.013-.008-.194-.022-.04.008c-.049.014-.1.022-.124-.028l-.036-.008.012.013-.016-.013L61.11,59.6l-.1.053L60.98,59.6l-.057.052.066.1c.031.055.081-.106.114,0-.033-.106-.083.055-.114,0l-.066-.1a.144.144,0,0,1-.153-.066c.065-.04.113.006.153.066l.057-.052.028.058.1-.053-.286-.053a11.258,11.258,0,0,1-1.819-.388,2.906,2.906,0,0,1-.871-.468c-.463-.358-.986-.66-.907-1.246a6.6,6.6,0,0,0-.058-.746.664.664,0,0,0-.688-.165c-.385.2-.232.369-.363.872.078-.337.271.167.152.555-.2.669.6,1.057,1,1.425a2.294,2.294,0,0,0,.4.236,5.328,5.328,0,0,0,2.374.637,1.794,1.794,0,0,0,.61-.1,2.076,2.076,0,0,1,.382.061,1.157,1.157,0,0,0,.456-.072c-.155.016-.27.046-.447.051-.115,0,.089-.136.168-.166.033-.025.08.1.111.078a.72.72,0,0,0,.215-.073c.035-.025.026.086.043.073.105-.02.189-.158.254-.131l.142.053.082.008.056-.028-.023-.118.093.037-.093-.037.023.118.436-.171v-.011a.318.318,0,0,1-.255-.065c.038.023.033.056-.01.063l-.033-.058c.073-.03.149-.06.221.018l.049-.038.028.08.05-.009A.617.617,0,0,0,62.455,59.7Z"/><path class="cls-5" d="M61.588,59.685l.042-.01-.162-.018C61.493,59.713,61.54,59.7,61.588,59.685Z"/><path class="cls-5" d="M63.38,61.037l-.071-.111,0,.078C63.317,61.035,63.347,61.035,63.38,61.037Z"/><polygon class="cls-5" points="63.255 60.818 63.243 60.798 63.223 60.787 63.255 60.818"/><path class="cls-5" d="M63.111,60.637l.063.1Z"/><path class="cls-5" d="M63.182,60.808c.008-.021.02-.036.041-.023v0l-.049-.05Z"/><path class="cls-5" d="M63.182,60.808l-.012.057Z"/><path class="cls-5" d="M62.817,60.969c-.023-.018.077-.068.029-.1a1.236,1.236,0,0,1-.231-.225c-.046-.031.024-.152-.017-.182-.076-.084-.343-.269-.258-.121a4.615,4.615,0,0,0,.376.531l.412.4.089.128-.089-.194C63.09,61.11,62.923,61.085,62.817,60.969Z"/><path class="cls-5" d="M63.965,61.769c-.024,0-.073-.013-.073-.013-.029-.127-.122-.163-.227-.208l0,.068c.053.035.078.015.053-.035a.592.592,0,0,0,.236.281C63.962,61.832,63.982,61.805,63.965,61.769Z"/><polygon class="cls-5" points="64.011 61.9 63.951 61.862 63.949 61.873 64.011 61.906 64.011 61.9"/><path class="cls-5" d="M62.78,60.264c-.141-.272-.28-.531-.386-.793-.029-.009-.058-.015-.058-.048l.008-.075-.048-.116-.025-.038h0c-.02-.013-.035,0-.043.017l-.017.056.017-.056v-.072l-.05-.106.05.106.046.055.017.017-.1-.264-.033-.05c-.044-.057-.084-.113-.053-.174l-.016-.048,0,.013v-.02l-.071-.2-.114-.106s.021-.043.03-.065l-.082-.051-.043.134c-.03.068.145.052.073.148.072-.1-.1-.08-.073-.148l.043-.134a.263.263,0,0,1-.038-.229c.078.06.063.149.038.229l.082.051c-.009.022-.03.065-.03.065l.114.106-.144-.4a13.157,13.157,0,0,1-.8-2.582A7.1,7.1,0,0,1,60.98,54a11.043,11.043,0,0,1,.188-2.825,6.211,6.211,0,0,0,.047-1.46.438.438,0,0,0-.683-.213c-.409.3-.185.533-.431,1.145.14-.418.255.314-.029.707-.431.576-.09,1.408-.156,2.14-.011.184.021.377.025.6a8.6,8.6,0,0,0,.8,3.366,4.037,4.037,0,0,0,.477.692,4.745,4.745,0,0,1,.181.516,2.622,2.622,0,0,0,.346.559c-.113-.194-.2-.333-.315-.554-.073-.151.173.051.248.136.04.033-.042.151,0,.182a1.03,1.03,0,0,0,.2.248c.041.031-.061.074-.042.091.088.126.264.168.279.267l.038.206.05.113.064.064.088-.086.029.136-.029-.136-.088.086.445.485.011-.007a.639.639,0,0,1-.114-.36c0,.057-.03.068-.062.015l.028-.068c.075.083.154.163.13.294l.065.045c0,.036-.03.054-.047.074l.039.058A1.247,1.247,0,0,0,62.78,60.264Z"/><path class="cls-5" d="M62.227,59.134l.033.05-.085-.221C62.142,59.025,62.184,59.078,62.227,59.134Z"/><path class="cls-5" d="M63.551,60.483l.081.1-.015-.074C63.609,60.475,63.58,60.483,63.551,60.483Z"/><polygon class="cls-5" points="63.704 60.664 63.72 60.682 63.744 60.687 63.704 60.664"/><path class="cls-5" d="M63.889,60.78l-.088-.065Z"/><polygon class="cls-5" points="63.776 60.654 63.744 60.69 63.744 60.687 63.801 60.715 63.776 60.654"/><path class="cls-5" d="M63.776,60.654l0-.058Z"/><path class="cls-5" d="M64.078,60.393c.023,0-.055.082-.006.09a.813.813,0,0,1,.252.1c.046.005.021.141.065.145.089.041.375.036.252-.03-.174-.1-.292-.171-.453-.269l-.418-.206-.08-.1.08.158C63.809,60.357,63.962,60.34,64.078,60.393Z"/><path class="cls-5" d="M63.059,59.725a.521.521,0,0,0,.067.038c-.02.12.065.192.141.255l.022-.069c-.034-.042-.065-.033-.059.026a.5.5,0,0,0-.121-.316C63.086,59.68,63.055,59.7,63.059,59.725Z"/><polygon class="cls-5" points="63.068 59.61 63.109 59.659 63.116 59.653 63.068 59.607 63.068 59.61"/><path class="cls-5" d="M64.3,60.974l.661.431c.032-.008.054-.023.071,0l.033.062.1.056.038.01h0l.023-.04-.013-.053.013.053.041.056.094.039-.094-.039L65.2,61.53h-.023l.219.131.054.015c.06.012.12.028.131.093l.04.023,0-.01.013.013.169.09.143-.01.017.068.088-.023L66,61.8c-.017-.069-.134.062-.139-.053,0,.115.122-.016.139.053l.05.12a.211.211,0,0,1,.163.126c-.087.015-.132-.052-.163-.126l-.088.023-.017-.068-.143.01.338.175a16.855,16.855,0,0,0,2.307.875l1.286.465a21.36,21.36,0,0,1,2.468.751,5.1,5.1,0,0,0,1.273.252c.457-.111.319-.618.3-.645-.194-.448-.44-.259-.939-.59.346.2-.314.215-.614-.123-.42-.5-1.185-.3-1.772-.536a4.443,4.443,0,0,0-.488-.123c-.894-.353-1.8-.4-2.722-.748a3.018,3.018,0,0,0-.724-.1,2.9,2.9,0,0,1-.414-.213,2.924,2.924,0,0,0-.53-.151c.172.068.307.1.51.167.134.049-.148.092-.246.085-.051.005-.053-.137-.1-.129a.919.919,0,0,0-.266-.046c-.047.006.008-.093-.015-.093-.123-.032-.282.048-.337-.017l-.123-.13-.084-.064-.072-.012-.036.115-.078-.09.078.09.036-.115a2.283,2.283,0,0,1-.546-.159l-.007.011a.67.67,0,0,1,.228.238c-.031-.045-.008-.068.042-.045l.005.07c-.091-.027-.2-.047-.224-.171a.59.59,0,0,0-.07-.007c-.015-.033.007-.061.019-.085l-.054-.034A.76.76,0,0,0,64.3,60.974Z"/><path class="cls-5" d="M65.264,61.548l-.05-.016.182.109C65.384,61.576,65.325,61.563,65.264,61.548Z"/><path class="cls-5" d="M63.265,59.889l.01.118.033-.065C63.314,59.914,63.289,59.9,63.265,59.889Z"/><polygon class="cls-5" points="63.28 60.121 63.282 60.143 63.292 60.158 63.28 60.121"/><path class="cls-5" d="M63.33,60.324l-.017-.108Z"/><path class="cls-5" d="M63.338,60.15c-.016.019-.03.028-.046.008h0l.021.058Z"/><path class="cls-5" d="M63.338,60.15l.035-.042Z"/><path class="cls-5" d="M63.731,60.133c.013.013-.1.033-.066.068.033.086.108.151.132.234.038.031-.065.118-.027.151.058.085.274.27.221.138-.069-.193-.156-.314-.209-.492L63.6,59.8l-.005-.123-.028.179C63.543,59.937,63.691,60.012,63.731,60.133Z"/><path class="cls-5" d="M63.234,59.008c.017.02.046.063.046.063-.07.091-.029.186.012.282l.05-.048c-.009-.05-.042-.058-.06-.008a.5.5,0,0,0,.031-.324C63.282,58.978,63.247,58.975,63.234,59.008Z"/><polygon class="cls-5" points="63.296 58.907 63.313 58.973 63.322 58.967 63.297 58.905 63.296 58.907"/><path class="cls-5" d="M63.549,60.72l.214.752c.025.011.055.015.047.043l-.02.07.028.106.017.038h.007c.014.015.029,0,.039-.015l.028-.051-.028.051-.005.068.046.091-.046-.091-.041-.053-.011-.015.081.237.031.045c.038.048.075.1.043.154l.012.04L64,62.179l0,.02.066.179.107.089-.034.062.08.04.047-.119c.034-.066-.14-.044-.066-.132-.074.088.1.066.066.132l-.047.119a.228.228,0,0,1,.031.207c-.074-.05-.057-.131-.031-.207l-.08-.04.034-.062-.107-.089.127.355c.267.785.661,1.44,1,2.218a9.757,9.757,0,0,1,.465,1.244,6.523,6.523,0,0,1,.623,2.341,4.791,4.791,0,0,0,.138,1.153.523.523,0,0,0,.712.141c.368-.293.117-.486.275-1.085-.1.41-.253-.237-.118-.639.236-.62-.3-1.275-.488-1.871a3.916,3.916,0,0,0-.2-.486,21.111,21.111,0,0,0-1.318-2.565,4.028,4.028,0,0,0-.46-.571,3.55,3.55,0,0,1-.156-.438,2.04,2.04,0,0,0-.3-.468c.094.166.178.279.278.463.063.128-.171-.031-.238-.1-.038-.03.05-.134.012-.16a1.05,1.05,0,0,0-.183-.21c-.042-.025.068-.063.047-.075-.068-.108-.225-.157-.224-.244V61.2l-.022-.1-.049-.055-.1.066,0-.121,0,.121.1-.066a4.743,4.743,0,0,1-.321-.475l-.008.007a.484.484,0,0,1,.027.324c.01-.052.043-.055.064,0l-.041.055c-.057-.083-.115-.166-.063-.275a.556.556,0,0,1-.057-.047l.07-.053-.031-.058A.706.706,0,0,0,63.549,60.72Z"/><path class="cls-5" d="M63.873,61.782l-.03-.043.071.193C63.949,61.883,63.913,61.834,63.873,61.782Z"/><path class="cls-5" d="M62.306,61.271l-.041.095.055-.035C62.34,61.314,62.32,61.293,62.306,61.271Z"/><polygon class="cls-5" points="62.227 61.46 62.222 61.475 62.225 61.492 62.227 61.46"/><path class="cls-5" d="M62.205,61.641l.017-.091Z"/><polygon class="cls-5" points="62.271 61.51 62.225 61.492 62.225 61.492 62.222 61.55 62.271 61.51"/><path class="cls-5" d="M62.271,61.51l.049-.023Z"/><path class="cls-5" d="M62.635,61.651c.008.018-.1-.013-.085.025a.825.825,0,0,1,.043.242c.017.037-.11.063-.093.105.016.086.131.315.143.2.013-.182.005-.3.01-.469l-.01-.408.045-.1-.095.121C62.536,61.422,62.648,61.542,62.635,61.651Z"/><path class="cls-5" d="M62.624,60.573c.007.021.016.064.016.064-.1.045-.1.135-.1.228l.062-.012c.009-.048-.016-.066-.053-.035a.376.376,0,0,0,.155-.241C62.678,60.571,62.648,60.553,62.624,60.573Z"/><polygon class="cls-5" points="62.718 60.521 62.708 60.577 62.716 60.579 62.721 60.521 62.718 60.521"/><path class="cls-5" d="M62.242,62.036l-.128.667c.02.018.045.035.028.056l-.048.047-.017.092.009.032v.005l.046,0,.043-.033-.043.033-.035.045v0l-.011-.055-.009-.016-.029.217.012.048c.012.051.021.1-.033.133l-.006.041.014-.008-.014.015L62,63.521l.06.114-.06.032.053.066.1-.078c.057-.035-.111-.088,0-.126-.11.038.058.091,0,.126l-.1.078a.167.167,0,0,1-.059.169c-.045-.068,0-.124.059-.169L62,63.667l.06-.032L62,63.521l-.042.328a12.984,12.984,0,0,0,0,2.124c.025.405.013.8.025,1.188.015.778.311,1.42.267,2.246a3.209,3.209,0,0,0,.343,1.112c.3.3.675-.073.7-.1.3-.365.032-.453.1-.962-.019.34-.335-.136-.133-.508.29-.519-.2-1.007-.181-1.551a2.829,2.829,0,0,0-.068-.42c.014-.818-.27-1.536-.262-2.384a3.166,3.166,0,0,0-.173-.607,3.045,3.045,0,0,1,.051-.395,1.4,1.4,0,0,0-.067-.478c.016.166.038.284.046.466,0,.121-.136-.089-.165-.174-.025-.038.1-.081.081-.118a.694.694,0,0,0-.075-.232c-.023-.037.089-.021.078-.04-.026-.111-.153-.209-.109-.277l.074-.139.022-.085-.017-.065-.12.01.053-.094-.053.094.12-.01-.088-.494H62.39a.35.35,0,0,1-.112.264c.029-.037.062-.025.061.021l-.064.027c-.015-.087-.031-.176.061-.237l-.029-.062c.019-.02.054-.013.083-.013V61.9A.674.674,0,0,0,62.242,62.036Z"/><path class="cls-5" d="M62.094,62.988l-.008-.045-.022.18C62.119,63.1,62.106,63.043,62.094,62.988Z"/><path class="cls-5" d="M64.478,61.893l-.139.015.074.024C64.447,61.943,64.459,61.918,64.478,61.893Z"/><polygon class="cls-5" points="64.214 61.923 64.188 61.923 64.168 61.938 64.214 61.923"/><path class="cls-5" d="M63.979,61.986l.122-.023Z"/><path class="cls-5" d="M64.171,61.986c-.016-.018-.025-.033,0-.048h0l-.067.025Z"/><path class="cls-5" d="M64.171,61.986l.053.03Z"/><path class="cls-5" d="M64.171,62.381c-.023.015-.033-.1-.076-.063a1.587,1.587,0,0,1-.307.132c-.048.029-.139-.087-.183-.056-.109.048-.382.231-.212.2.256-.048.416-.1.651-.156l.539-.222.156-.015-.215-.018C64.422,62.172,64.324,62.333,64.171,62.381Z"/><path class="cls-5" d="M65.487,61.744l-.059.051a.366.366,0,0,0-.332.058l.062.045c.06-.021.06-.056,0-.064a.664.664,0,0,0,.39-.022C65.535,61.785,65.526,61.749,65.487,61.744Z"/><polygon class="cls-5" points="65.621 61.787 65.548 61.812 65.556 61.822 65.621 61.789 65.621 61.787"/><path class="cls-5" d="M63.483,62.156l-.922.107c-.017.025-.031.053-.061.043l-.075-.028-.131.012-.044.013v0c-.023.012-.016.032.005.045l.048.033-.048-.033-.076-.023-.119.023.119-.023.071-.025.021-.013-.3.026-.06.02c-.071.022-.136.052-.19.009l-.052.006.012.007-.02,0-.226.028-.133.093-.064-.043-.067.07.127.068c.062.046.089-.13.168-.04-.079-.09-.106.086-.168.04l-.127-.068a.3.3,0,0,1-.247-.006.212.212,0,0,1,.247.006l.067-.07.064.043.133-.093-.448.063a5.9,5.9,0,0,0-2.678,1.234,6.869,6.869,0,0,0-1.093,1.29c-.587.889-.775,1.873-1.5,2.544-.257.263-.584.762-.8.822a.564.564,0,0,0,.131.716c.457.2.65-.089,1.259-.495-.412.28.026-.407.447-.659.7-.365.731-1.341,1.124-1.935.1-.149.161-.33.262-.517a4.355,4.355,0,0,1,2.12-1.953,4.207,4.207,0,0,0,.707-.4,2.825,2.825,0,0,1,.53-.081,3.785,3.785,0,0,0,.625-.2c-.227.046-.375.116-.612.179-.161.043.083-.161.187-.214.04-.033.135.073.176.038a1.459,1.459,0,0,0,.3-.126c.046-.032.052.081.075.065.146-.045.245-.2.348-.188l.211.022.127-.009.081-.038-.052-.113.141.02-.141-.02.052.113.632-.252,0-.007a.681.681,0,0,1-.39-.023c.058.02.054.05-.008.065l-.057-.048a.354.354,0,0,1,.334-.025.787.787,0,0,1,.068-.046c.04.011.04.046.053.077l.071-.023A.992.992,0,0,0,63.483,62.156Z"/><path class="cls-5" d="M62.175,62.326l.059-.016-.248.016C62.039,62.378,62.106,62.351,62.175,62.326Z"/><path class="cls-6" d="M85.873,37.48S85.458,28.94,85.7,26.2s2.771-13.034,2.771-13.034l.882,7.419,2.7-5.111.967,2.679L97.691,14.3,87.7,39.422Z"/><path class="cls-6" d="M83.564,39.422S73.114,35.355,70.942,30.7a69.65,69.65,0,0,1-3.731-11.516l5.339,7.589.621-8.473,2.811,8.353,1.188-6.065,1.842,2.841,1.452-4.319s.408,7.544,1.7,11.457,6.288,9.686,6.288,9.686Z"/><path class="cls-6" d="M86.13,41.724a43.665,43.665,0,0,1-7.759,3.455c-2.936.746-3.42-.152-8.349.283a62.764,62.764,0,0,1-10.4-.144l7.944-2.135,3.019-1.459-6.2-2.056,5.907.59L66.22,35.791,72.4,37.218l-2.827-2.4s10.262,4.33,11.127,5.226S86.13,41.724,86.13,41.724Z"/><path class="cls-6" d="M90.916,38.718s8.626-6.077,12.211-9.64,6.288-11.772,6.288-11.772-2.3,1.141-5.038,2.627-3.409,1.787-3.409,1.787l2.323-4.7a11.1,11.1,0,0,0-3.258,2.595,7.776,7.776,0,0,0-1.064,2.108,10.79,10.79,0,0,1,.3-4.445,3.4,3.4,0,0,0,.311-2.5s-3.226,1.411-3.365,2.5a10.234,10.234,0,0,1-.566,2.163l-.871-5.031A17.211,17.211,0,0,0,90.916,23.3c-.56,5.252-3.048,17.4-3.048,17.4S89.4,40.77,90.916,38.718Z"/><path class="cls-6" d="M94.277,38.219a45.9,45.9,0,0,0,14-3.124c6.98-2.866,8.345-5.928,9.716-7.227s2.61-2.444,2.61-2.444-3.236,3.674-5.327,2.852,2.534-3.586,2.16-4.235-6.884,3.012-6.813,3.193,3.7-6.494,3.192-6.121-4.4,3.844-4.4,3.844,3.762-6.222,2.5-5.622-3.414,4.177-3.775,4.611-5.442,4.71-6.421,5.806S88.849,40.536,88.849,40.536Z"/><path class="cls-6" d="M97.433,38.568s2.515-1.465,4.234.284,9.319,3.6,9.319,3.6l4.219.291-3.168-2.376a15.371,15.371,0,0,0,6.807,0c3.885-.832-.284-.966-.284-.966l4.151-1.176s-5.732-2.3-8.939-3.4-4.949-.258-6.807,0S98.5,36.3,97.119,36.468s-7.8,3.756-7.8,3.756Z"/><path class="cls-1" d="M84.239,43.045s.357,6.621,3.98,9.773S93.1,55,94.814,51.9s1.907-7.128,2.5-10.343.806-5.766.806-5.766-7.66,1.561-10.426,3.631A11.013,11.013,0,0,0,84.239,43.045Z"/><path class="cls-2" d="M91.531,54.307c1.9,12.627.17,25.548-2.836,37.957s-7.273,24.478-10.561,36.815c-2.566,9.628-4.536,19.756-2.484,29.507"/><path class="cls-1" d="M82.06,133.754a112.789,112.789,0,0,0,.1-11.9c-.325-5.3,1.181-13.366,2.654-15.891A92.528,92.528,0,0,0,88.8,96.823s-2.392,10.141-2.8,15.216-.74,9.21-1.236,10.95S82.06,133.754,82.06,133.754Z"/><path class="cls-1" d="M88.8,113.088s4.1-10.525,8.121-12.353,5.578-1.583,8.281-4.006A85.454,85.454,0,0,0,111.544,90s-6.838,10.779-10.345,13.188S88.8,113.088,88.8,113.088Z"/><path class="cls-6" d="M109.149,78.384s-3.385-2.1-2.185-7.046,2.22-10.058,6.126-11.36,3.987-1.463,5.34-3.437,6.117-2.926,6.117-2.926-2.053.006-1.809,4.412.8,12.348-3.646,16.564S111.291,81.387,109.149,78.384Z"/><path class="cls-1" d="M107.54,77.538s-2.585-5.187-1.631-7.914,3.674-5.186,4.324-5.254,2.843-.428,2.843-.428a14.374,14.374,0,0,0-1.23,4.238c-.144,1.954-.238,5.444-.238,5.444l3.308-5.506s-1.828,8.34-2.123,8.492,5.537-5.287,5.813-5.788-.678,4.662-1.816,6.792-3.146,3.1-4.581,2.848A8.809,8.809,0,0,1,107.54,77.538Z"/><path class="cls-2" d="M108.651,78.973c-5.192,9-11.441,17.352-16.673,26.329s-9.487,18.8-10.149,29.169c-.12,1.893-.12,3.791-.2,5.686A139.63,139.63,0,0,1,79.2,158.721"/></svg>