<svg id="word" xmlns="http://www.w3.org/2000/svg" viewBox="0 0 160 160"><defs><style>.cls-1{fill:#f9c9bc;}.cls-1,.cls-2,.cls-4{stroke:#9b4a9a;stroke-linecap:round;stroke-width:0.992px;}.cls-2{fill:#c5a298;}.cls-3{fill:#c9a49a;}.cls-4,.cls-7{fill:#fff;}.cls-5{fill:#9b4a9a;}.cls-6{fill:#54c5d4;}</style></defs><path class="cls-1" d="M113.977,111.819s5.148,3.921,5.147,5.94-3.43,4.765-3.43,4.765,5.969.66,6.553.66,2.577-2.248,2.577-2.248a10.5,10.5,0,0,0,2.883-4.831,22.3,22.3,0,0,0,.695-4.076s-8.784-2.106-10.974-1.974A5.059,5.059,0,0,0,113.977,111.819Z"/><path class="cls-1" d="M74.691,104.785s1.831,10.046,1.5,12.762-2.713,8.248-2.713,8.248l3.8,1.6a32.2,32.2,0,0,0,4.742-4.3,29.556,29.556,0,0,0,3.143-7.009C85.156,115.591,74.691,104.785,74.691,104.785Z"/><path class="cls-1" d="M70.625,69.389a5.08,5.08,0,0,1-1.714-5.554c1.141-3.451,1.632-6.886,1.836-7.431s.4-1.343.4-1.343a42.916,42.916,0,0,1,6.286,4.563A10.838,10.838,0,0,1,80.155,65.5l-7.1,5.311Z"/><path class="cls-2" d="M116.176,121.816a42.473,42.473,0,0,0,4.83.687,8.663,8.663,0,0,0,3.564-.393,34.889,34.889,0,0,1-3.475,4.78,20.3,20.3,0,0,1-4.919,3.046l-.468-2.561-2.73,1.579a6.655,6.655,0,0,1,.812-3.739C114.779,123.89,116.176,121.816,116.176,121.816Z"/><path class="cls-2" d="M73.477,124.677a17.092,17.092,0,0,1,3.965.268,6.964,6.964,0,0,1,1.746,1.531s-1.551,4-2.4,4.924-2.393,2.358-2.393,2.358l-.457-2.51-2.967,1.1S70.961,126.024,73.477,124.677Z"/><path class="cls-1" d="M108.884,67.683c2.53-.254,14.125-2.991,20.529-1.521s8.4,3.075,11.248,7.289,4.506,14.022,3.846,18.646a16.621,16.621,0,0,1-6.787,10.814c-2.856,1.76-1.876,3.474-1.27,6.864s3.081,1.744,3.986,3.994-3.971,8.87-3.971,8.87l-2.75,2.63-7.385-1.625,1.047-1.141s3.128-3.629,3.833-5.558-1.693-1.984-3-2.566-12.239-3.419-12.239-3.419a67,67,0,0,1-11.737,2.2c-5.925.485-12.43-2.181-12.43-2.181a18.033,18.033,0,0,1-2.147,4.356c-1.516,2.256,1,3.012,1.684,5.3s.562,8.922.562,8.922l-5.841-.886a10.29,10.29,0,0,0,.032-4.6,85.632,85.632,0,0,0-4.065-7.641s-4.073-7.484-4.2-7.857-6.161-2.029-6.835-3.775-2.346-2.578-5.26-2.43-5.783-4.21-6.812-5.34-.784-2.1-2.394-2.2a33.323,33.323,0,0,1-5.437-1.395l1.168-12.788a12.553,12.553,0,0,0,5.172-.064c2.075-.68,4.335-2.213,5.98-2.771S72.5,68.084,76.148,65.195s9.9-2.223,13.219-1.506c2.669.576,8.655,3.295,10.891,4.335.543.252.865.405.865.405a6.613,6.613,0,0,0,5.59-.28Z"/><path class="cls-1" d="M82.265,67.838S86.1,60.646,91.752,59.6,99.4,57.167,99.4,57.167,98.578,64.037,97.36,66s-5.794,5.832-5.794,5.832"/><path class="cls-1" d="M51.128,79.233s3.89-.521,4.392,3,.52,7.974-1.467,9.738-4.308,3.558-5.889,1.7-2.414-7.632-1.31-9.982S48.731,79.5,51.128,79.233Z"/><path class="cls-3" d="M53.978,85.028s-2.291,1.157-2.392,2.8-.007,3.209,1.361,2.8S54.918,85.945,53.978,85.028Z"/><path class="cls-3" d="M50.277,83.55s-.525,5.542-1.253,5.112-1.74-3.226-1.061-4.388S50.273,82.519,50.277,83.55Z"/><path class="cls-4" d="M74.8,75.587s-2.8.018-3.653,1.407-1.118,3.5.819,3.45S77.221,77.348,74.8,75.587Z"/><path class="cls-2" d="M128.212,122.524a7.007,7.007,0,0,0,4.363,1.719c2.43-.054,2.841-.6,2.841-.6s-1.587,4.444-3.6,4.826a59.154,59.154,0,0,0-6.34,1.982l2.042-2.174-3.909,1.6s.2-3.179,1.461-4.708,2.309-2.669,2.309-2.669Z"/><path class="cls-2" d="M86.294,127.207s-2.841,4.112-2.953,4.294a7.867,7.867,0,0,0-.112,2.379c.14-.063,2.276-1.679,2.276-1.679s.276,2.868,1.44,1.972c1.525-1.175,4.721-1.408,5.174-2.143s0-4.634,0-4.634S87.7,126.783,86.294,127.207Z"/><path class="cls-5" d="M139.979,72.622a14.088,14.088,0,0,0,1.69.909,10.713,10.713,0,0,0,2.038.736,5.333,5.333,0,0,0,2.648.025,4.481,4.481,0,0,0,.646-.276,7.533,7.533,0,0,0,.682-.426,4.775,4.775,0,0,0,1.143-1.072,3.031,3.031,0,0,0,.569-1.451c.042-.5.124-1.331-.08-1.478a7.327,7.327,0,0,0-2.9-2.134,3.729,3.729,0,0,0-1.664-.375c-.124-.009-.2.06-.264.058a3.158,3.158,0,0,0-.411.228,2.669,2.669,0,0,0-.624.537,1.34,1.34,0,0,0-.337.589.532.532,0,0,0,.1.441,2.768,2.768,0,0,0,1.4.771l.223.069c.008.006.148.031.215.046.164.032.343.075.5.1a5.684,5.684,0,0,0,.868.054,4.847,4.847,0,0,0,1.718-.347,4.9,4.9,0,0,0,2.466-2.137,7.863,7.863,0,0,0,.32-1.574c.079-.55.132-1.089.18-1.606.081-1.035.142-1.989.136-2.827a5.181,5.181,0,0,0-.111-1.124,6.855,6.855,0,0,0-.472-.849c-.625-1.057-.965-1.671-.965-1.671s.445.545,1.194,1.517a6.556,6.556,0,0,1,.608.862,5.394,5.394,0,0,1,.272,1.227,22.285,22.285,0,0,1,.151,2.9c-.006.531-.014,1.084-.049,1.661a7.916,7.916,0,0,1-.279,1.869,5.725,5.725,0,0,1-2.96,2.9,6.13,6.13,0,0,1-2.158.517,6.776,6.776,0,0,1-1.166-.038c-.185-.025-.34-.063-.512-.093l-.29-.06-.272-.079a3.955,3.955,0,0,1-2.141-1.268,1.952,1.952,0,0,1-.348-1.535,2.682,2.682,0,0,1,.644-1.239,4.047,4.047,0,0,1,.971-.812,4.564,4.564,0,0,1,.509-.275,2.378,2.378,0,0,1,.745-.192,4.941,4.941,0,0,1,2.357.507,9.2,9.2,0,0,1,1.883,1.13,6.179,6.179,0,0,1,1.54,1.624,2.126,2.126,0,0,1,.25.681l.017.121,0,.03.007.113v.015l0,.062-.01.246a6.447,6.447,0,0,1-.11,1.032,4.16,4.16,0,0,1-.884,1.908,5.5,5.5,0,0,1-1.478,1.227,8.368,8.368,0,0,1-.769.4,5.017,5.017,0,0,1-.854.287,5.5,5.5,0,0,1-3-.307,11.08,11.08,0,0,1-2.018-1A10.439,10.439,0,0,1,139.979,72.622Z"/><path class="cls-1" d="M88.547,70.523a3.53,3.53,0,0,1-.138-2.656,9.805,9.805,0,0,1,1.255-2.412c1.221-1.873,2.59-3.778,4.589-4.78,1.509-.756,3.429-1.057,4.289-2.509"/><path class="cls-1" d="M56.939,95.347a18.258,18.258,0,0,0,6.052-1.559,7.626,7.626,0,0,0,1.283-.586,7.688,7.688,0,0,0,2.361-2.847,4.423,4.423,0,0,0,.757-1.959"/><path class="cls-5" d="M73.158,76.2s-1.733.011-2.257.87-.691,2.166.506,2.132S74.655,77.292,73.158,76.2Z"/><path class="cls-5" d="M108.555,102.035s.473.752,1.113,1.878c.324.561.707,1.2,1.154,1.851.215.331.477.638.728.96a10.062,10.062,0,0,0,.843.9,16.133,16.133,0,0,0,1.9,1.545c.658.444,1.292.844,1.844,1.182l1.349.814.511.324-.588-.143a14.046,14.046,0,0,1-1.521-.482,14.838,14.838,0,0,1-2.06-.956,11.348,11.348,0,0,1-2.127-1.572,11.056,11.056,0,0,1-.9-1.016,9.357,9.357,0,0,1-.717-1.093,9.732,9.732,0,0,1-.542-1.08c-.153-.349-.285-.684-.39-1A15.878,15.878,0,0,1,108.555,102.035Z"/><path class="cls-5" d="M92.207,103.338c0,.008-.026-.059.065-.109.076-.073.3.031.311.218.059.31.123.709.169,1.216a14.165,14.165,0,0,1-.119,3.7A10.036,10.036,0,0,1,92.1,110.3a7.138,7.138,0,0,1-.815,1.561,5.6,5.6,0,0,1-.8.948c-.22.2-.351.309-.351.309l.191-.424c.122-.265.285-.642.454-1.1a15.938,15.938,0,0,0,.489-1.568c.085-.286.133-.594.213-.9.063-.309.13-.621.176-.94.228-1.264.376-2.564.528-3.547.071-.485.15-.915.2-1.184.019-.121-.021-.187-.1-.184A.074.074,0,0,0,92.207,103.338Z"/><path class="cls-6" d="M39.758,75.108s-16.307-11.6-22.579-27.283-2.494-29.593,20.07-30.418C62.964,16.466,66.413,40.3,58.26,45.317S33.8,48.139,35.054,59.428,39.758,75.108,39.758,75.108Z"/><path class="cls-7" d="M23.944,27.394l-.06-.106a.748.748,0,0,1-.146-.34.47.47,0,0,1,.225-.384.724.724,0,0,1,.408-.163c.055,0,.126,0,.212.014s.137.018.156.018a14.6,14.6,0,0,1,1.9-.211,2.487,2.487,0,0,1,1.619.485,1.489,1.489,0,0,1,.595,1.2,1.848,1.848,0,0,1-.586,1.29,4.361,4.361,0,0,1-1.569,1,22.993,22.993,0,0,0,2.481,1.819.527.527,0,0,1,.3.459.51.51,0,0,1-.209.368.622.622,0,0,1-.393.184,1.121,1.121,0,0,1-.606-.23q-.34-.229-.961-.724t-.716-.59a13.243,13.243,0,0,0-1.259-.97.428.428,0,0,1-.487-.482.477.477,0,0,1,.216-.388.793.793,0,0,1,.492-.163.726.726,0,0,1,.17.023.487.487,0,0,0,.124.027,2.751,2.751,0,0,0,1.088-.491,1.376,1.376,0,0,0,.8-1.134.664.664,0,0,0-.333-.552,1.463,1.463,0,0,0-.848-.23,5.3,5.3,0,0,0-.985.074,1.751,1.751,0,0,0-.409.1.441.441,0,0,0-.083.144,9.165,9.165,0,0,0-.2.944q-.153.829-.282,1.819a12.564,12.564,0,0,0-.129,1.459,2.906,2.906,0,0,0,.046.537,2.441,2.441,0,0,1,.042.413.525.525,0,0,1-.2.356.594.594,0,0,1-.425.191q-.638,0-.638-.882a17.721,17.721,0,0,1,.158-2.007q.159-1.291.375-2.269c.021-.1.039-.2.055-.281Z"/><path class="cls-7" d="M32.792,33.237a2.869,2.869,0,0,1-1.147-.308,2.1,2.1,0,0,1-1.026-1.045,3.631,3.631,0,0,1-.354-1.592,6.839,6.839,0,0,1,.129-1.153l.147-.85c.021-.144.044-.284.069-.422.036-.212.068-.415.1-.611a1.917,1.917,0,0,1,.225-.761.545.545,0,0,1,.5-.255c.11,0,.223.087.338.26a.828.828,0,0,1,.172.4q0,.1-.22,1.01-.055.229-.191,1.123a10.03,10.03,0,0,0-.136,1.21,1.948,1.948,0,0,0,.513,1.581,1.519,1.519,0,0,0,.866.409,2.1,2.1,0,0,0,1.612-.5A2.908,2.908,0,0,0,34.95,30.1c.016-.138.034-.268.056-.39q.045-.469.078-.9a6.79,6.79,0,0,1,.319-2.031A.649.649,0,0,1,36,26.378q.479,0,.478.62a9.5,9.5,0,0,1-.179,1.369,10.551,10.551,0,0,0-.143,1.181,6.046,6.046,0,0,1-.381,2.04,2.794,2.794,0,0,1-1.082,1.148A3.45,3.45,0,0,1,32.792,33.237Z"/><path class="cls-7" d="M41.639,28.427,39.9,29.962l1.92,1.451q.234.178.455.317l.215.142a2.675,2.675,0,0,0,1.02.2,1.021,1.021,0,0,1,.056.262.75.75,0,0,1-.185.522.69.69,0,0,1-.542.2,2.391,2.391,0,0,1-1.249-.57l-1.782-1.3a5.354,5.354,0,0,0-.891-.579q-.207.06-.336,1.548a2.547,2.547,0,0,1-.193.866.471.471,0,0,1-.454.274.524.524,0,0,1-.409-.159.593.593,0,0,1-.143-.411,1.579,1.579,0,0,1,.046-.313q.107-.45.377-3.2a14.265,14.265,0,0,1,.407-2.657.533.533,0,0,1,.507-.343q.579,0,.579.644a17.725,17.725,0,0,0-.418,2.724,7.243,7.243,0,0,0,.937-.8c.074-.074.166-.163.275-.267q.323-.3.676-.652a3,3,0,0,0,.519-.643,3.911,3.911,0,0,1,.381-.6.418.418,0,0,1,.317-.172.709.709,0,0,1,.43.193.555.555,0,0,1,.237.431,1.117,1.117,0,0,1-.249.536A4.889,4.889,0,0,1,41.639,28.427Z"/><path class="cls-7" d="M44.735,32.809a.624.624,0,0,1-.406-.108c-.088-.071-.131-.26-.131-.567a2.45,2.45,0,0,1,.023-.393c.015-.09.089-.161.223-.213a1.651,1.651,0,0,1,.576-.078.618.618,0,0,1,.427.131.381.381,0,0,1,.147.287.79.79,0,0,1-.08.395,1.383,1.383,0,0,1-.349.342A.808.808,0,0,1,44.735,32.809Z"/><path class="cls-7" d="M47.078,32.809a.624.624,0,0,1-.406-.108c-.088-.071-.131-.26-.131-.567a2.45,2.45,0,0,1,.023-.393q.023-.135.222-.213a1.661,1.661,0,0,1,.577-.078.618.618,0,0,1,.427.131.381.381,0,0,1,.147.287.8.8,0,0,1-.08.395,1.383,1.383,0,0,1-.349.342A.811.811,0,0,1,47.078,32.809Z"/><path class="cls-7" d="M23.944,38.683l-.06-.106a.746.746,0,0,1-.146-.339.47.47,0,0,1,.225-.384.717.717,0,0,1,.408-.163c.055,0,.126,0,.212.014s.137.018.156.018a14.418,14.418,0,0,1,1.9-.211A2.492,2.492,0,0,1,28.26,38a1.49,1.49,0,0,1,.595,1.2,1.852,1.852,0,0,1-.586,1.291,4.36,4.36,0,0,1-1.569,1A22.993,22.993,0,0,0,29.181,43.3a.529.529,0,0,1,.3.46.51.51,0,0,1-.209.367.616.616,0,0,1-.393.184,1.121,1.121,0,0,1-.606-.23q-.34-.229-.961-.723t-.716-.59a13.071,13.071,0,0,0-1.259-.97.428.428,0,0,1-.487-.482.476.476,0,0,1,.216-.388.793.793,0,0,1,.492-.163.677.677,0,0,1,.17.023.487.487,0,0,0,.124.027,2.766,2.766,0,0,0,1.088-.491,1.377,1.377,0,0,0,.8-1.135.662.662,0,0,0-.333-.551,1.455,1.455,0,0,0-.848-.23,5.3,5.3,0,0,0-.985.074,1.781,1.781,0,0,0-.409.1.45.45,0,0,0-.083.145,9.111,9.111,0,0,0-.2.943q-.153.831-.282,1.82a12.551,12.551,0,0,0-.129,1.458,2.917,2.917,0,0,0,.046.538,2.432,2.432,0,0,1,.042.413.527.527,0,0,1-.2.356.6.6,0,0,1-.425.191q-.638,0-.638-.882a17.752,17.752,0,0,1,.158-2.008q.159-1.29.375-2.269c.021-.1.039-.2.055-.28Z"/><path class="cls-7" d="M32.792,44.526a2.853,2.853,0,0,1-1.147-.308,2.1,2.1,0,0,1-1.026-1.044,3.634,3.634,0,0,1-.354-1.592,6.829,6.829,0,0,1,.129-1.153l.147-.85q.032-.216.069-.423.054-.316.1-.611a1.912,1.912,0,0,1,.225-.76.545.545,0,0,1,.5-.255c.11,0,.223.086.338.26a.829.829,0,0,1,.172.4q0,.1-.22,1.01-.055.231-.191,1.124a10.009,10.009,0,0,0-.136,1.21,1.95,1.95,0,0,0,.513,1.581,1.516,1.516,0,0,0,.866.408,2.1,2.1,0,0,0,1.612-.5,2.909,2.909,0,0,0,.569-1.629c.016-.137.034-.268.056-.39q.045-.468.078-.9a6.774,6.774,0,0,1,.319-2.03A.647.647,0,0,1,36,37.668q.479,0,.478.62a9.513,9.513,0,0,1-.179,1.369,10.523,10.523,0,0,0-.143,1.181,6.039,6.039,0,0,1-.381,2.039,2.79,2.79,0,0,1-1.082,1.149A3.459,3.459,0,0,1,32.792,44.526Z"/><path class="cls-7" d="M41.639,39.717,39.9,41.251l1.92,1.451c.156.12.308.225.455.318l.215.142a2.7,2.7,0,0,0,1.02.2,1.021,1.021,0,0,1,.056.262.748.748,0,0,1-.185.521.69.69,0,0,1-.542.2,2.391,2.391,0,0,1-1.249-.57l-1.782-1.3a5.329,5.329,0,0,0-.891-.578q-.207.06-.336,1.547a2.548,2.548,0,0,1-.193.867.47.47,0,0,1-.454.273.52.52,0,0,1-.409-.159.589.589,0,0,1-.143-.411,1.571,1.571,0,0,1,.046-.312q.107-.45.377-3.2a14.266,14.266,0,0,1,.407-2.658.532.532,0,0,1,.507-.342q.579,0,.579.643a17.725,17.725,0,0,0-.418,2.724,7.174,7.174,0,0,0,.937-.8c.074-.074.166-.163.275-.267q.323-.3.676-.652a3.006,3.006,0,0,0,.519-.644,3.942,3.942,0,0,1,.381-.594.42.42,0,0,1,.317-.173.715.715,0,0,1,.43.193.558.558,0,0,1,.237.432,1.111,1.111,0,0,1-.249.535A4.889,4.889,0,0,1,41.639,39.717Z"/><path class="cls-7" d="M44.735,44.1a.63.63,0,0,1-.406-.108c-.088-.072-.131-.261-.131-.567a2.433,2.433,0,0,1,.023-.393c.015-.09.089-.162.223-.213a1.624,1.624,0,0,1,.576-.079.623.623,0,0,1,.427.131.383.383,0,0,1,.147.287.785.785,0,0,1-.08.4,1.4,1.4,0,0,1-.349.343A.808.808,0,0,1,44.735,44.1Z"/><path class="cls-7" d="M47.078,44.1a.63.63,0,0,1-.406-.108c-.088-.072-.131-.261-.131-.567a2.433,2.433,0,0,1,.023-.393c.015-.09.089-.162.222-.213a1.634,1.634,0,0,1,.577-.079.623.623,0,0,1,.427.131.383.383,0,0,1,.147.287.8.8,0,0,1-.08.4,1.4,1.4,0,0,1-.349.343A.811.811,0,0,1,47.078,44.1Z"/><path class="cls-7" d="M49.421,44.1a.635.635,0,0,1-.407-.108q-.131-.108-.13-.567a2.581,2.581,0,0,1,.022-.393c.016-.09.09-.162.223-.213a1.627,1.627,0,0,1,.577-.079.625.625,0,0,1,.427.131.383.383,0,0,1,.147.287.784.784,0,0,1-.081.4,1.364,1.364,0,0,1-.349.343A.806.806,0,0,1,49.421,44.1Z"/></svg>