<svg id="word" xmlns="http://www.w3.org/2000/svg" viewBox="0 0 160 160"><defs><style>.cls-1{fill:#90b0c3;}.cls-1,.cls-2,.cls-3,.cls-4,.cls-5,.cls-6,.cls-8{stroke:#9c4c9c;stroke-width:0.648px;}.cls-2{fill:#fde1d3;}.cls-3{fill:#eff0ad;}.cls-4,.cls-8{fill:none;}.cls-5{fill:#fff;}.cls-6{fill:#bf9a6c;}.cls-6,.cls-9{stroke-miterlimit:10;}.cls-7{fill:#9c4c9c;}.cls-8{stroke-linecap:round;}.cls-9{fill:#fcf8cb;stroke:#939cce;stroke-width:0.602px;}.cls-10{fill:#8f9193;}</style></defs><path class="cls-1" d="M80.9,75.79s5.393,3.423,7.538,7.087a88.551,88.551,0,0,1,5.609,11.514c.33,1.309-7.128,7.589-8.306,8.374s-5.888-13.487-5.888-13.487Z"/><path class="cls-1" d="M31.437,76.2s-1.689-1.489-5.074.476c-3.915,2.272-8.566,5.982-8.566,17.1s-8.3,23.637-4.9,28.086,4.219,3.337,8.275,5.038,16.673.461,19.421-6.344-2.747-23.947-2.747-23.947Z"/><path class="cls-2" d="M45.438,56.722s.916,7.051-1.178,10.453-1.962,3.4,3.533,4.58,18.188.523,18.188.523L64.8,64.591s-7.72,1.433-9.813-1.394S45.438,56.722,45.438,56.722Z"/><path class="cls-1" d="M67.789,72.459S80.767,75.4,80.9,75.79s6.149,22,6.149,22l3.811,37.19h-59.6l1.621-45.7L28.689,75.811s6.109-.38,9.642-3.259,3.478-5.541,3.478-5.541,8.607,5.423,14.738,5.011a19.34,19.34,0,0,0,10.376-4.068l.235,3.714.631.217Z"/><path class="cls-3" d="M64.673,101.85l-1.309,28.889s2.355,3.184,10.468-.218,22.9.9,22.9.9-5.757-8.617-2.224-17.982,7.327-20.749,8.112-21.926-4.71.392-6.542,0a41.956,41.956,0,0,0-9.853.166c-14.485,5.329-12,6.507-15.662,7.946S64.673,101.85,64.673,101.85Z"/><path class="cls-3" d="M61.925,101.2s-11.2-7.353-19.889-9.159-13.3-2.486-13.3-2.486,3.622,20.905,4.015,25.238.327,16.95.342,16.963,13.658-2.379,19.285.238,10.991-1.25,10.991-1.25l1.309-28.889Z"/><path class="cls-2" d="M27.3,108.983c1.162.13,2.927.208,4.739.254.033-.032.067-.071.1-.1,0,0,3.179-1.457,3.378-3.5.1-1.078,2.735-1.763,3.2-2.737.541-1.124,2.155-3.266,2.672-1.322a3.55,3.55,0,0,1-.245,2.958l-1.882,1.939s4.731-1.7,5.445-1.517,4.084-.658,4.1,1.28-1.943,1.719-3.905,1.429c-1.355-.2-4.528,1.387-4.528,1.387s7.387-.389,8.312.451.55,1.6.263,1.815c-1.146.857-2.922-.1-3.812-.091a44.182,44.182,0,0,0-4.384.822s6.826.716,7.018,2.458-5.511.583-6.544,1.167.065.743.869,1.067,3.493.681,3.386,2.1-2.043.127-3.234.377c-.986.207-3.926-.793-4.994-1.063s-3.8.256-5.449-1.247L31.8,116.9a44.456,44.456,0,0,1-5.91.54C23.913,117.645,23.944,108.606,27.3,108.983Z"/><path class="cls-1" d="M24.325,108.705s-1.837-2.348-5.759,0-4.606.057-8.657,5.116-1.677,16.716,8.267,15.213,8.53-.706,8.867-5.854S24.325,108.705,24.325,108.705Z"/><path class="cls-1" d="M23.316,109.91a6.177,6.177,0,0,0-1.627,4.9c.142,3.387,4.095,7.708,5.65,8.043s5.08-3.023,4.321-4.367a11.858,11.858,0,0,1-.85-6.091,28.475,28.475,0,0,0-.063-4.668S30.51,104.316,23.316,109.91Z"/><path class="cls-2" d="M100.031,107.433c-.031-.031-3.107-1.513-3.278-3.463-.088-1.028-2.587-1.7-3.026-2.637-.5-1.075-2.021-3.131-2.532-1.284a3.38,3.38,0,0,0,.205,2.819l1.774,1.865s-4.49-1.662-5.172-1.5-3.884-.665-3.918,1.18,1.835,1.656,3.706,1.4c1.292-.178,4.3,1.364,4.3,1.364s-7.032-.441-7.921.35-.539,1.521-.267,1.726c1.083.828,2.784-.07,3.631-.05a41.861,41.861,0,0,1,4.168.825s-6.509.617-6.707,2.274,5.242.607,6.221,1.174-.069.706-.838,1.007-3.333.617-3.244,1.971,1.944.14,3.076.39c.937.206,3.746-.718,4.766-.966s3.622.28,5.2-1.135l.011-.011S103.309,110.9,100.031,107.433Z"/><path class="cls-4" d="M30.893,108.905a4.132,4.132,0,0,0-3.126.545,15.9,15.9,0,0,0-2.62,1.446,5.448,5.448,0,0,0-1.9,2.272"/><path class="cls-4" d="M30.9,110.756a18.229,18.229,0,0,0-3.6,1.1,1.286,1.286,0,0,0-.341.187,1.491,1.491,0,0,0-.272.348,7.694,7.694,0,0,1-2.144,2.189"/><path class="cls-4" d="M30.765,113.168c-.613.025-.786.5-1.354.735a14.16,14.16,0,0,0-2.732,1.355,4.965,4.965,0,0,0-1.918,2.315"/><path class="cls-4" d="M30.843,115.517c-.809.6-1.783.951-2.589,1.557a36.579,36.579,0,0,0-2.772,2.962"/><path class="cls-4" d="M31.04,117.416a1.051,1.051,0,0,1-.243.525,4.01,4.01,0,0,1-.652.5,4.381,4.381,0,0,0-.877,1L27.936,121.3"/><path class="cls-2" d="M72.988,36.532a44.9,44.9,0,0,0-.718,7.589c.144,2.748,1.58,7.851.718,10.075a19.141,19.141,0,0,1-4.452,7.2,73.476,73.476,0,0,1-7.612,7.589c-2.3,1.832-9.049.916-12.065-2.879S42.4,60.346,39.954,54.2s-3.447-9.944-1.724-15.571-1.867-10.206,8.331-11.514,13.932-2.748,20.4,0S73.293,34.571,72.988,36.532Z"/><path class="cls-5" d="M65.2,45.559s1.755-3.622,3.1-2.12,1.841,2.788.343,4.123S65.352,48.563,65.2,45.559Z"/><path class="cls-6" d="M65.951,30.12s-.431,2.225-3.591,2.617-1.436-.654-6.033-1.308-4.6-2.225-5.6-.654-5.889-.655-5.745,2.747-3.16,5.365-2.3,7.589,3.062,5.1,1.387,4.58-2.824-1.832-5.122-.916-1.007,1.7-1.58,3.533a5.678,5.678,0,0,0,1.58,5.365c1.29,1.211,1.069,3.533,1.069,3.533s-1.838-4.488-4.324-6.281c-2.8-2.022-1.735-6.811-2.022-9.821s.274-9.865,1.423-12.482,8.053-8.355,11.608-8.486,6.9-1.923,10.344-.614c2.028.769,7.25,2.5,7.25,2.5s5.389.381,8.262,2.213S76.723,28.55,76.292,33s-3.85,7.235-3.919,8.144-.039,3.717-.039,3.717-1.213-7.8-1.931-10.16S65.951,30.12,65.951,30.12Z"/><path class="cls-6" d="M66.956,27.111s.185,6.084-1.754,7.327-2.483-.631-5.14.7a22.912,22.912,0,0,0-5.386,3.619c-.431.524,1.077-2.07,2.37-3.619s-.79-.7-4.884,1.591a24.753,24.753,0,0,1-7.4,2.813,34.219,34.219,0,0,1,6.248-4.4c4.094-2.334.718-1.222-2.3-.7s-3.3-.238-6.32.7-7.755,1.458.36-2.4,8.115-3.99,13-4.644,9.139-6.017,9.139-6.017"/><path class="cls-6" d="M66.9,27.89a15.023,15.023,0,0,1,0,5.794A29.059,29.059,0,0,1,65.2,38.551l4.91-5.588a14.727,14.727,0,0,1-1.149,5.653c-1.149,2.2-.987,2.657-.987,2.657S73.2,38.287,73.2,35.364,71.676,29.1,71.62,27.89c-.068-1.468-4.078-4.548-4.078-4.548"/><ellipse class="cls-7" cx="67.836" cy="44.71" rx="1.115" ry="1.766"/><path class="cls-5" d="M48.787,45.428s1.755-3.622,3.1-2.12,1.841,2.788.343,4.123S48.937,48.432,48.787,45.428Z"/><ellipse class="cls-7" cx="51.49" cy="44.71" rx="1.115" ry="1.766"/><path class="cls-8" d="M61.835,51.084a1.978,1.978,0,0,0-1.216-.705,3.4,3.4,0,0,0-2.495.81"/><path class="cls-8" d="M69.454,42.359a1.739,1.739,0,0,0-1-.8,3.76,3.76,0,0,1-1.18-.617c-.12-.113-.218-.246-.346-.352-.547-.453-1.48-.292-2.035-.737"/><path class="cls-8" d="M53.755,40.388l-.041-.226A11.709,11.709,0,0,0,48.6,42.056"/><path class="cls-8" d="M62.441,55.579a10.654,10.654,0,0,1-2.491.644,3.583,3.583,0,0,1-2.452-.566c-.341-.255-.6-.59-.96-.827a2.271,2.271,0,0,0-2.42.006c-.312.209-.553.5-.865.7a1.118,1.118,0,0,1-1.084.155"/><path class="cls-8" d="M59.473,57.52c-.045-.064.134-.064.12.011s-.119.1-.2.1a2.275,2.275,0,0,1-1.559-.562,4.79,4.79,0,0,0-.636-.589,2.564,2.564,0,0,0-1.9-.057"/><path class="cls-2" d="M41.365,45.691s-2.654-3.259-3.967-.85-2.369,4.307-1.091,5.507,2.307,1.591,2.641,3.325,1.744,3.629,2.417,2.571a3.668,3.668,0,0,0,.673-1.76"/><path class="cls-9" d="M80.489,35.336c-.6,1.5,4.528.874,10.126,4.988A9.124,9.124,0,0,1,94.39,49.3S77.4,68.919,95.592,78.4c13.431,7,52.284,9.038,56.98-9.809,4.805-19.285-11.486-27.431-29.348-27.431-15.1,0-22.483,4.156-22.483,4.156S97.36,42.3,93.189,38.994C89.413,36,81.089,33.84,80.489,35.336Z"/><path class="cls-10" d="M93.91,65.041a4.915,4.915,0,0,0,2.08.551c1.089,0,1.64-.523,1.64-1.2,0-.882-.882-1.282-1.8-1.282h-.854v-1.5h.813c.7-.014,1.6-.278,1.6-1.035,0-.537-.441-.937-1.323-.937a4.088,4.088,0,0,0-1.874.538l-.427-1.516a5.6,5.6,0,0,1,2.769-.676c1.915,0,2.976,1.007,2.976,2.233A2.145,2.145,0,0,1,97.865,62.3v.027A2.226,2.226,0,0,1,99.808,64.5c0,1.584-1.392,2.742-3.666,2.742a5.3,5.3,0,0,1-2.66-.633Z"/><path class="cls-10" d="M105.393,59.763v3h2.881v1.3h-2.881V67.1h-1.35V64.063h-2.88v-1.3h2.88v-3Z"/><path class="cls-10" d="M115.389,59.859h-3.473l-.193,1.378a4.873,4.873,0,0,1,2.935.621,2.548,2.548,0,0,1,1.09,2.246c0,1.668-1.433,3.142-3.846,3.142a5.68,5.68,0,0,1-2.494-.51l.373-1.571a5.121,5.121,0,0,0,2.025.441c.868,0,1.791-.414,1.791-1.364,0-.924-.729-1.488-2.522-1.488a7.756,7.756,0,0,0-1.212.082l.593-4.7h4.933Z"/><path class="cls-10" d="M121.264,59.763v3h2.88v1.3h-2.88V67.1h-1.35V64.063h-2.881v-1.3h2.881v-3Z"/><path class="cls-10" d="M131.7,58.136v1.323L128.008,67.1h-2.219l3.693-7.207v-.029h-4.106V58.136Z"/><path class="cls-10" d="M132.906,62.616V61.333h7.111v1.283Zm0,2.853V64.187h7.111v1.282Z"/><path class="cls-10" d="M142.475,64.09l-.014-.358a3.034,3.034,0,0,1,.813-2.164,2.531,2.531,0,0,0,.8-1.433c0-.482-.316-.8-1-.827a2.586,2.586,0,0,0-1.364.414l-.47-1.5a4.719,4.719,0,0,1,2.3-.566c1.819,0,2.646,1.007,2.646,2.15a3.423,3.423,0,0,1-1.17,2.315,2.372,2.372,0,0,0-.7,1.723v.248Zm-.359,1.9a1.234,1.234,0,1,1,1.227,1.254A1.194,1.194,0,0,1,142.116,65.992Z"/></svg>