<svg id="word" xmlns="http://www.w3.org/2000/svg" viewBox="0 0 160 160"><defs><style>.cls-1{fill:#b9bbbd;}.cls-1,.cls-2,.cls-4{stroke:#9d4b9c;}.cls-2{fill:#b2d235;}.cls-3{fill:#9d4b9c;}.cls-4{fill:#dbdcdd;}</style></defs><path class="cls-1" d="M56.226,58.608s-4.7,69.119-5.81,70.041-4.427,1.843-.277,2.949,53.4,3.5,55.609,2.949.655-5.809.378-9.864-3.975-64.048-3.975-64.048Z"/><polygon class="cls-1" points="114.048 57.871 121.794 126.99 105.748 134.547 102.151 60.635 114.048 57.871"/><path class="cls-2" d="M114.878,55.782c-3.043-6.323-5.81-13.028-5.81-16.477S98,35.665,84.445,34.132c0,0-13.556-1.533-19.643.767S54.012,46.011,54.289,49.268s-3.043,6.7-3.32,9.005,4.15,7.663,4.15,7.663l47.032,1.341,10.79-4.023S117.921,62.1,114.878,55.782Zm-34.306-.575c-14.663,0-20.75-4.215-19.92-11.495S76.975,37.2,76.975,37.2c20.473-.192,22.963,3.257,23.516,8.43S95.235,55.207,80.572,55.207Z"/><path class="cls-3" d="M104.365,79.174s-.554,4.7,1.383,4.426,8.3-5.256,8.3-5.256.553-2.49-1.107-2.767S104.365,79.174,104.365,79.174Z"/><path class="cls-4" d="M65.241,69.1s-3.055-2.407-4.352-.37-1.944,10,.093,11.109S67.277,73.173,65.241,69.1Z"/><ellipse class="cls-3" cx="62.903" cy="71.02" rx="2.847" ry="2.708"/><path class="cls-4" d="M78.448,69.1s-3.055-2.407-4.351-.37-1.944,10,.093,11.109S80.485,73.173,78.448,69.1Z"/><ellipse class="cls-3" cx="76.111" cy="71.02" rx="2.847" ry="2.708"/><path class="cls-4" d="M91.656,69.1s-3.055-2.407-4.351-.37-1.944,10,.092,11.109S93.692,73.173,91.656,69.1Z"/><ellipse class="cls-3" cx="89.318" cy="71.02" rx="2.847" ry="2.708"/><path class="cls-4" d="M69.135,81.965s-3.055-2.407-4.351-.37-1.944,10,.092,11.109S71.171,86.039,69.135,81.965Z"/><ellipse class="cls-3" cx="66.797" cy="83.886" rx="2.847" ry="2.708"/><path class="cls-4" d="M82.342,81.965s-3.055-2.407-4.351-.37-1.944,10,.093,11.109S84.379,86.039,82.342,81.965Z"/><ellipse class="cls-3" cx="80.005" cy="83.886" rx="2.847" ry="2.708"/><path class="cls-4" d="M95.55,81.965S92.5,79.558,91.2,81.6s-1.944,10,.092,11.109S97.586,86.039,95.55,81.965Z"/><ellipse class="cls-3" cx="93.212" cy="83.886" rx="2.847" ry="2.708"/><path class="cls-4" d="M64.067,95.221s-3.055-2.407-4.352-.37-1.944,10,.093,11.109S66.1,99.294,64.067,95.221Z"/><ellipse class="cls-3" cx="61.729" cy="97.142" rx="2.847" ry="2.708"/><path class="cls-4" d="M77.274,95.221s-3.055-2.407-4.351-.37-1.944,10,.093,11.109S79.311,99.294,77.274,95.221Z"/><ellipse class="cls-3" cx="74.937" cy="97.142" rx="2.847" ry="2.708"/><path class="cls-4" d="M90.482,95.221s-3.055-2.407-4.351-.37-1.944,10,.092,11.109S92.518,99.294,90.482,95.221Z"/><ellipse class="cls-3" cx="88.144" cy="97.142" rx="2.847" ry="2.708"/><path class="cls-4" d="M67.961,108.087s-3.055-2.407-4.351-.37-1.944,10,.092,11.109S70,112.16,67.961,108.087Z"/><ellipse class="cls-3" cx="65.623" cy="110.008" rx="2.847" ry="2.708"/><path class="cls-4" d="M81.168,108.087s-3.055-2.407-4.351-.37-1.944,10,.093,11.109S83.205,112.16,81.168,108.087Z"/><ellipse class="cls-3" cx="78.831" cy="110.008" rx="2.847" ry="2.708"/><path class="cls-4" d="M94.376,108.087s-3.055-2.407-4.351-.37-1.944,10,.092,11.109S96.412,112.16,94.376,108.087Z"/><ellipse class="cls-3" cx="92.038" cy="110.008" rx="2.847" ry="2.708"/><path class="cls-4" d="M60.917,119.24s-3.055-2.407-4.351-.37-1.944,10,.092,11.109S62.953,123.313,60.917,119.24Z"/><ellipse class="cls-3" cx="58.579" cy="121.161" rx="2.847" ry="2.708"/><path class="cls-4" d="M74.124,119.24s-3.055-2.407-4.351-.37-1.944,10,.093,11.109S76.161,123.313,74.124,119.24Z"/><ellipse class="cls-3" cx="71.787" cy="121.161" rx="2.847" ry="2.708"/><path class="cls-4" d="M87.332,119.24s-3.055-2.407-4.351-.37-1.944,10,.092,11.109S89.368,123.313,87.332,119.24Z"/><ellipse class="cls-3" cx="84.994" cy="121.161" rx="2.847" ry="2.708"/><path class="cls-4" d="M101.42,95.76s-3.055-2.407-4.351-.37-1.944,10,.092,11.109S103.457,99.833,101.42,95.76Z"/><ellipse class="cls-3" cx="99.082" cy="97.681" rx="2.847" ry="2.708"/><path class="cls-4" d="M99.365,120.708s-3.055-2.407-4.351-.371-1.944,10,.093,11.109S101.4,124.781,99.365,120.708Z"/><ellipse class="cls-3" cx="97.028" cy="122.629" rx="2.847" ry="2.708"/><path class="cls-3" d="M105.832,96.49s-.553,4.7,1.384,4.427,8.3-5.257,8.3-5.257.554-2.49-1.106-2.766S105.832,96.49,105.832,96.49Z"/><path class="cls-3" d="M108.474,114.1s-.554,4.7,1.383,4.427,8.3-5.257,8.3-5.257.553-2.49-1.107-2.766S108.474,114.1,108.474,114.1Z"/></svg>