<svg id="word" xmlns="http://www.w3.org/2000/svg" viewBox="0 0 160 160"><defs><style>.cls-1{fill:#8ac440;}.cls-1,.cls-10,.cls-11,.cls-12,.cls-13,.cls-2,.cls-4,.cls-5,.cls-6,.cls-8,.cls-9{stroke:#9c4c9c;stroke-width:1.043px;}.cls-2{fill:#5c5741;}.cls-3{fill:#454330;}.cls-4{fill:#f7ea2f;}.cls-5{fill:#ea2127;}.cls-6{fill:#eed0c1;}.cls-7{fill:#231f20;}.cls-8{fill:none;stroke-linecap:round;}.cls-9{fill:#fab516;}.cls-10{fill:#f8b018;}.cls-11{fill:#479fd7;}.cls-12{fill:#dd0789;}.cls-13{fill:#aa248b;}</style></defs><path class="cls-1" d="M69.041,110.234s-.5,2.023-9.1,2.024c-3.7,0-10,.462-11.174.049s-1.594.473-4.066.818-9.021,1.068-9.021,1.068-1.268,2.069-.967,2.5,5.714,1.19,5.714,1.19,26.385.74,27.706,1.149"/><path class="cls-2" d="M33.141,113.343s-1.453-4.247-2.97-2.465-1.41,2.268-2.582,2-.212-.772-.843-3a13.648,13.648,0,0,0-1.732-3.658c-.407-.867-.81-1.538,1.227-1.777s.028-3.208-2.962-2.075-4.867,4.382-4.051,6.115,2.987,3.243,3.255,6.64.309,5.342,2.445,5.2,4.355-.968,5.522-.993,3.56-1.729,3.55-2.216S33.141,113.343,33.141,113.343Z"/><path class="cls-3" d="M30.248,119.016s-1.111.363-1.65-2.105a7.449,7.449,0,0,1-.033-3.84l-.293-.042a12.784,12.784,0,0,0-1.014,2.6c-.034.633.033,1.556-1.518,1.735s-2.655-1.3-2.906-1.737.174,3.594.864,4.066,2.051.394,3.453-.025A23.842,23.842,0,0,1,30.248,119.016Z"/><path class="cls-3" d="M26.105,102.7s1.142,1.045.025,1.166-3.7-.066-4.7.685a6.646,6.646,0,0,0-1.8,2.178c-.282.492-.438.01-.065-.777a6.344,6.344,0,0,1,3.234-3.278A3.423,3.423,0,0,1,26.105,102.7Z"/><path class="cls-4" d="M38.621,117.63a3.072,3.072,0,0,1-.8.931c-.527.4-1.381,1.343-2.368.635s-.658-1.2-1.383-.992a8,8,0,0,1-3.6-.312,3.737,3.737,0,0,1-1.044-2.884c.278-.637.5-1.966,1.471-2.085s1.319.264,2.976.423,3.23-1.7,4.147-1.149c1.479.894,1.2,1.483,1.2,1.483l-1.309.174a2.64,2.64,0,0,0-.733,1.755c-.166,1.267.325,1.548.325,1.548Z"/><path class="cls-1" d="M84.583,120.473s-.506,2.023-9.1,2.025c-3.7,0-10,.461-11.174.048s-1.594.473-4.066.818-9.021,1.068-9.021,1.068-1.268,2.069-.967,2.5,5.714,1.19,5.714,1.19,26.385.74,27.706,1.149"/><path class="cls-2" d="M48.683,123.583s-1.453-4.248-2.97-2.465-1.41,2.267-2.583,2-.211-.772-.842-3a13.648,13.648,0,0,0-1.732-3.658c-.408-.866-.811-1.538,1.226-1.777s.028-3.208-2.961-2.075-4.867,4.382-4.051,6.115,2.987,3.243,3.254,6.64.31,5.343,2.446,5.2,4.355-.969,5.521-.994,3.561-1.729,3.55-2.215S48.683,123.583,48.683,123.583Z"/><path class="cls-3" d="M45.79,129.255s-1.112.363-1.65-2.1a7.444,7.444,0,0,1-.033-3.839l-.293-.043a12.784,12.784,0,0,0-1.014,2.6c-.035.633.033,1.556-1.519,1.735s-2.654-1.3-2.905-1.737.174,3.594.864,4.066,2.051.395,3.453-.025A23.842,23.842,0,0,1,45.79,129.255Z"/><path class="cls-3" d="M41.647,112.934s1.141,1.046.025,1.166-3.7-.066-4.7.685a6.667,6.667,0,0,0-1.8,2.179c-.281.491-.437.009-.064-.777a6.333,6.333,0,0,1,3.234-3.279A3.427,3.427,0,0,1,41.647,112.934Z"/><path class="cls-4" d="M54.163,127.869a3.082,3.082,0,0,1-.8.932c-.527.4-1.381,1.342-2.368.634s-.658-1.2-1.383-.992a7.993,7.993,0,0,1-3.6-.312,3.739,3.739,0,0,1-1.043-2.883c.278-.638.5-1.967,1.471-2.085s1.319.263,2.976.422,3.23-1.7,4.147-1.149c1.479.894,1.2,1.484,1.2,1.484l-1.309.173a2.638,2.638,0,0,0-.733,1.755c-.167,1.267.325,1.549.325,1.549Z"/><path class="cls-5" d="M70.371,90.411s-2.377,12.434-2.926,13.714,3.292,5.851-4.754,5.851-8.045,2.194-8.045,2.194,3.657-.915,8.96,3.108,14.261,13.165,14.261,13.165,13.9,2.011,15.908-1.829,2.011-15.176-.183-22.489-4.571-13.714-4.571-13.714Z"/><path class="cls-4" d="M71.908,86.786s-6.709.875-9.042.875-11.083,3.209-7,9.625a49.138,49.138,0,0,0,9.042,10.5l4.666-10.208s-6.708.875-3.791-2.625S76.283,88.828,71.908,86.786Z"/><path class="cls-1" d="M89.991,84.161s6.319-3.013,9.624,4.375c1.461,3.263,3.89,7.195,9.917,8.555s10.889,2.14,10.889,2.14a17.833,17.833,0,0,0-5.444,7.583,22.72,22.72,0,0,1-6.417,8.555s2.722-4.86-2.722-9.722S87.561,89.9,87.561,89.9Z"/><path class="cls-6" d="M68.311,43.815s-9.722,11.277-7.583,20.61S68.894,83.481,79.2,84.258s22.361-.193,26.833-9.333-4.471-29.36-12.443-32.083S68.311,43.815,68.311,43.815Z"/><path class="cls-1" d="M92.714,88.245s3.4-3.305-.973-4.18-6.125-1.167-7.972.388-5.055-.1-6.32-.486c-1.164-.358.2.1-1.36-.292s-6.611-3.306-6.515-1.652c.194,3.273.973,9.43.875,10.985s-2.041,8.168,3.987,6.806,12.348-7.681,12.736-8.556S90.867,87.078,92.714,88.245Z"/><path class="cls-6" d="M100.685,109.341s.487,5.736-3.305,6.708-8.652-.777-9.041-3.4,1.458-8.068,1.75-8.166,10.013,3.013,10.4,4.472S100.685,109.341,100.685,109.341Z"/><path class="cls-7" d="M78.227,54.7a1.859,1.859,0,1,0,1.847-1.654A1.759,1.759,0,0,0,78.227,54.7Z"/><path class="cls-4" d="M88.922,88.536s6.9,1.46,9.43,2.237,8.556,3.7,5.445,10.5-3.4,6.806-6.028,8.749-4.667,1.654-6.125-.583-3.112-5.056-1.07-6.028,6.223-1.847,4.278-4.861-4.665-2.332-6.222-3.694S86.005,88.731,88.922,88.536Z"/><path class="cls-8" d="M92.324,67.537c-6.626,6.024-20.281,10.285-26.1.875"/><path class="cls-9" d="M107.833,25.5a32.366,32.366,0,0,0-4.89-.235c7.376,6.42,12.485,10.823,14.117,22.065.719,4.949-.422,11.337-.4,16.577,3.174-4.422,6.13-9.007,8.31-9.559C126.317,41.7,117.959,31.154,107.833,25.5Z"/><path class="cls-5" d="M117.06,47.331c-1.632-11.242-6.741-15.645-14.117-22.065a33.265,33.265,0,0,0-5.693.657c-10.257,2.091-22.272,8.7-24.783,9.855s-1.34,1.738-1.34,4.25.005-.278-2.679-.192c-4.806.151-3.214,6.817-2.712,6.817s13.931,4.2,18.787,7.867,17.249,17.97,17.249,17.97,1.609,5.329,4.906.056c1.65-2.636,1.809-4.707.745-5.522a5.283,5.283,0,0,1-.46-.33s.189.123.46.33a14.434,14.434,0,0,0,1.885,1.022c1.674.774,1.339-1.159-.336-3.672s3.651,5.081,7.167.251c.173-.238.346-.478.517-.717C116.638,58.668,117.779,52.28,117.06,47.331Z"/><path class="cls-10" d="M130.289,36.027a40.049,40.049,0,0,1-3.967-2.713c2.312,6.511,1.519,14.1.712,21.041a3.977,3.977,0,0,1,2.2,1c2.517-4.167,3.5-12.2,3.576-17.6A9.921,9.921,0,0,0,130.289,36.027Z"/><path class="cls-11" d="M107.423,67.024c-.271-.207-.46-.33-.46-.33A5.283,5.283,0,0,0,107.423,67.024Z"/><path class="cls-5" d="M126.322,33.314c-3.952-2.793-10.272-6.785-18.489-7.813,10.126,5.653,18.484,16.194,17.133,28.848a1.917,1.917,0,0,1,.3-.062,7.284,7.284,0,0,1,1.767.068C127.841,47.416,128.634,39.825,126.322,33.314Z"/><path class="cls-5" d="M137.2,44.779a16.193,16.193,0,0,0-4.392-7.029c-.073,5.4-1.059,13.435-3.576,17.6a5.3,5.3,0,0,1,1.337,3.7C134.206,56.727,136.2,50.414,137.2,44.779Z"/><path class="cls-12" d="M137.444,65.739c2.437-.534,1.3-2.355-.623-3.723a1.426,1.426,0,0,1-.273-.27,6.6,6.6,0,0,1-6.1.405,4.4,4.4,0,0,0,.008,1.024c.3,1.375,1.665,2.59,4.67,2.708.251-.089.514-.176.809-.253A3.054,3.054,0,0,1,137.444,65.739Z"/><path class="cls-1" d="M136.548,61.746c-1.563-1.881,1.529-7.553,1.529-11.227a18.808,18.808,0,0,0-.876-5.74c-1,5.635-3,11.948-6.631,14.276a27.53,27.53,0,0,1-.122,3.1A6.6,6.6,0,0,0,136.548,61.746Z"/><path class="cls-13" d="M138.614,79.64c-.169-3.672,1.423-5.894,1-10.34-.225-2.372-1.259-3.251-2.175-3.561a6.846,6.846,0,0,1-1.126.141c-.426.022-.818.017-1.192,0-5.357,1.92-.773,6.5-2.374,8.345-1.673,1.933-2.929,4.542-2.26,6.473s2.679-4.155,3.434-4.347-1,2.706-2.094,5.895.837,1.158,1.674-.388,1-4.444,2.01-3.478-3.684,8.018-2.428,8.406,3.6-8.5,3.349-6.859-2.68,7.826-.586,7.148c1.091-.352,1.474-2.727,1.581-4.717a19.581,19.581,0,0,1-.074-2.626c.041-.692.172.805.074,2.626.178,1.858.652,3.828,1.769,3.46C140.957,85.241,138.781,83.31,138.614,79.64Z"/><path class="cls-13" d="M137.358,79.735a19.581,19.581,0,0,0,.074,2.626C137.53,80.54,137.4,79.043,137.358,79.735Z"/><path class="cls-13" d="M137.444,65.739a3.054,3.054,0,0,0-1.509-.109c-.3.077-.558.164-.809.253.374.014.766.019,1.192,0A6.846,6.846,0,0,0,137.444,65.739Z"/><path class="cls-6" d="M103.31,72.2s8.945-.2,6.028,7.195-9.138,3.694-9.333,1.36-.195-4.083-.195-4.083"/><path class="cls-6" d="M72.589,48.87s4.86,8.945-2.723,10.305-10.11-7.389-8.36-10.693S67.533,44.787,72.589,48.87Z"/></svg>