<svg id="word" xmlns="http://www.w3.org/2000/svg" xmlns:xlink="http://www.w3.org/1999/xlink" viewBox="0 0 160 160"><defs><style>.cls-1,.cls-8{fill:#214290;}.cls-10,.cls-2{fill:#fff;}.cls-3{fill:#231f20;}.cls-10,.cls-11,.cls-12,.cls-4,.cls-5,.cls-7,.cls-8,.cls-9{stroke:#9d4b9c;stroke-miterlimit:10;stroke-width:0.912px;}.cls-4{fill:url(#linear-gradient);}.cls-5{fill:#898b8d;}.cls-6{fill:#efb51d;}.cls-7{fill:#4b68b0;}.cls-9{fill:#d1d2d3;}.cls-11{fill:#204392;}.cls-12{fill:none;}.cls-13{fill:#9d4b9c;}</style><linearGradient id="linear-gradient" x1="119.323" y1="80" x2="127.645" y2="80" gradientUnits="userSpaceOnUse"><stop offset="0.004" stop-color="#fff1db"/><stop offset="1" stop-color="#aeb0b3"/></linearGradient></defs><rect class="cls-1" x="45.133" y="8.898" width="73.313" height="71.605"/><polygon class="cls-2" points="61.726 19.965 55.884 19.965 55.884 70.487 105.917 70.487 105.917 19.205 61.726 19.965"/><path class="cls-3" d="M104.35,31.539c-.169-1.436-1.777-1.267-1.777-1.267L62.191,31.286l-4.4,7.519c-.931,1.591,0,9.462,0,9.462h4.064s.762-4.984,4.74-4.9A5.286,5.286,0,0,1,71.5,47.338H88.012s1.016-4.9,5.587-4.9,4.148,4.393,4.148,4.393h3.471L104.35,45.4S104.52,32.976,104.35,31.539Zm-36.4,7.728H59.99l3.133-6.629h4.825Zm8.8,0H69.81V32.638l6.942-.254Zm7.958,0H78.869l-.339-6.883h6.18Zm8.72,0H86.657V32.384l6.773-.591Zm1.439,0V32.384l7.28-.591.508,7.474Z"/><path class="cls-3" d="M66.89,51.858a3.55,3.55,0,1,1,3.64-3.548A3.6,3.6,0,0,1,66.89,51.858Zm0-5.66a2.113,2.113,0,1,0,2.2,2.112A2.16,2.16,0,0,0,66.89,46.2Z"/><path class="cls-3" d="M93.345,51.013a3.607,3.607,0,1,1,3.26-3.59A3.441,3.441,0,0,1,93.345,51.013Zm0-5.744a2.185,2.185,0,1,0,1.82,2.154A2.011,2.011,0,0,0,93.345,45.269Z"/><path class="cls-4" d="M119.323,151.1,120.365,12.4a3.571,3.571,0,0,1,3.64-3.5h0a3.571,3.571,0,0,1,3.64,3.5V150.772Z"/><path class="cls-5" d="M117.938,20.5h2.822s-.113.451,2.257,1.239,4.628-1.239,4.628-1.239v3.83a18.521,18.521,0,0,1-4.176,1.127c-1.242,0-3.1-1.578-3.1-1.578l-2.427-.337Z"/><path class="cls-5" d="M118.446,92.368h1.919a4.846,4.846,0,0,0,3.1,2.479c2.144.45,4.176-2.479,4.176-2.479v6.759s-2.54,2.366-4.6,1.014a7.022,7.022,0,0,1-2.68-3.678h-1.919Z"/><rect class="cls-6" x="61.137" y="93.766" width="53.486" height="2.287"/><rect class="cls-7" x="45.266" y="80.252" width="13.259" height="10.601"/><rect class="cls-8" x="58.03" y="80.302" width="60.47" height="10.55"/><path class="cls-2" d="M69.819,86.1v-.8l1.824,0v2.505a3.283,3.283,0,0,1-.867.789,1.794,1.794,0,0,1-.921.264,1.719,1.719,0,0,1-1.125-.405,2.694,2.694,0,0,1-.783-1.182,5.364,5.364,0,0,1-.289-1.868,5.778,5.778,0,0,1,.29-1.924,2.7,2.7,0,0,1,.76-1.208,1.689,1.689,0,0,1,1.111-.388,1.515,1.515,0,0,1,.828.225,1.733,1.733,0,0,1,.584.639,3.536,3.536,0,0,1,.344,1.136l-.513.22a2.9,2.9,0,0,0-.261-.852,1.2,1.2,0,0,0-.416-.444,1.075,1.075,0,0,0-.58-.161,1.193,1.193,0,0,0-.808.292,2.014,2.014,0,0,0-.545.909,4.8,4.8,0,0,0-.206,1.505,3.747,3.747,0,0,0,.441,2.028,1.324,1.324,0,0,0,1.146.674,1.359,1.359,0,0,0,.69-.207,1.818,1.818,0,0,0,.561-.492V86.1Zm-.43,3.351.154-.813h.394l-.1.492a.56.56,0,0,1,.374.233.773.773,0,0,1,.131.455.879.879,0,0,1-.223.607.775.775,0,0,1-.61.25,1.54,1.54,0,0,1-.435-.055l.028-.534c.127.012.224.018.29.018a.523.523,0,0,0,.35-.1.315.315,0,0,0,.109-.249.274.274,0,0,0-.1-.223A.629.629,0,0,0,69.389,89.454Z"/><path class="cls-2" d="M74.531,87.174l.545.106a2.346,2.346,0,0,1-.493,1.179,1.138,1.138,0,0,1-.883.4,1.229,1.229,0,0,1-1.073-.646,3.49,3.49,0,0,1-.411-1.865,3.677,3.677,0,0,1,.414-1.929,1.214,1.214,0,0,1,1.048-.664,1.177,1.177,0,0,1,1.011.653,3.61,3.61,0,0,1,.405,1.889l0,.221H72.761a2.546,2.546,0,0,0,.3,1.241.763.763,0,0,0,.646.42Q74.3,88.177,74.531,87.174Zm-1.738-1.338h1.742a2.255,2.255,0,0,0-.211-.947.745.745,0,0,0-.649-.456.723.723,0,0,0-.606.379A1.983,1.983,0,0,0,72.793,85.836Z"/><path class="cls-2" d="M75.746,88.746V83.863h.477v.74a2.193,2.193,0,0,1,.335-.683.451.451,0,0,1,.342-.167.792.792,0,0,1,.541.267l-.179.767a.58.58,0,0,0-.384-.179.413.413,0,0,0-.308.152.888.888,0,0,0-.2.422,4.857,4.857,0,0,0-.1,1.007v2.557Z"/><path class="cls-2" d="M78.925,88.006l.071.731a1.248,1.248,0,0,1-.394.074.668.668,0,0,1-.444-.141.7.7,0,0,1-.231-.383,4.74,4.74,0,0,1-.063-.97v-2.81h-.387v-.644h.387v-1.21l.527-.5v1.706h.534v.644h-.534v2.855a1.72,1.72,0,0,0,.046.511.253.253,0,0,0,.255.166A1.1,1.1,0,0,0,78.925,88.006Z"/><path class="cls-2" d="M79.423,88.746V83.863H79.9v.74a2.193,2.193,0,0,1,.335-.683.451.451,0,0,1,.342-.167.792.792,0,0,1,.541.267l-.179.767a.582.582,0,0,0-.384-.179.411.411,0,0,0-.308.152.879.879,0,0,0-.2.422,4.857,4.857,0,0,0-.1,1.007v2.557Z"/><path class="cls-2" d="M83.469,88.746v-.717a1.678,1.678,0,0,1-.43.621.849.849,0,0,1-.559.207.868.868,0,0,1-.631-.256,1.263,1.263,0,0,1-.349-.646,5.056,5.056,0,0,1-.088-1.067V83.863h.526v2.708a5.388,5.388,0,0,0,.06,1.01.805.805,0,0,0,.218.409.514.514,0,0,0,.364.154.718.718,0,0,0,.624-.4,2.679,2.679,0,0,0,.208-1.264V83.863h.53v4.883Zm-1.717-5.49v-.681h1.835v.681Z"/><path class="cls-2" d="M86.794,88.746V88.13a1.3,1.3,0,0,1-.369.54.749.749,0,0,1-.487.187,1.14,1.14,0,0,1-.955-.67,3.655,3.655,0,0,1-.4-1.882,4.808,4.808,0,0,1,.179-1.412,1.948,1.948,0,0,1,.477-.86.947.947,0,0,1,.664-.28.763.763,0,0,1,.484.177,1.3,1.3,0,0,1,.371.494V82.006h.534v6.74ZM85.121,86.31a2.982,2.982,0,0,0,.256,1.406q.257.461.6.461c.225,0,.42-.148.585-.442a2.811,2.811,0,0,0,.247-1.334,3.381,3.381,0,0,0-.247-1.5.723.723,0,0,0-.624-.472q-.334,0-.574.453A3.188,3.188,0,0,0,85.121,86.31Z"/><path class="cls-2" d="M90.252,87.174l.545.106a2.346,2.346,0,0,1-.493,1.179,1.14,1.14,0,0,1-.883.4,1.232,1.232,0,0,1-1.074-.646,3.5,3.5,0,0,1-.41-1.865,3.677,3.677,0,0,1,.414-1.929,1.214,1.214,0,0,1,1.048-.664,1.177,1.177,0,0,1,1.011.653,3.61,3.61,0,0,1,.405,1.889l0,.221H88.482a2.524,2.524,0,0,0,.3,1.241.762.762,0,0,0,.645.42Q90.02,88.177,90.252,87.174Zm-1.738-1.338h1.742a2.253,2.253,0,0,0-.212-.947.744.744,0,0,0-.648-.456.723.723,0,0,0-.606.379A1.983,1.983,0,0,0,88.514,85.836Z"/><path class="cls-2" d="M91.263,87.284l.526-.129a1.407,1.407,0,0,0,.254.77.682.682,0,0,0,.551.252.664.664,0,0,0,.531-.219.823.823,0,0,0,.187-.555.606.606,0,0,0-.161-.45,1.792,1.792,0,0,0-.537-.276,3.441,3.441,0,0,1-.825-.414,1.106,1.106,0,0,1-.322-.455,1.733,1.733,0,0,1-.115-.648,1.582,1.582,0,0,1,.312-1.017,1.045,1.045,0,0,1,.864-.39,1.145,1.145,0,0,1,.611.161,1.068,1.068,0,0,1,.4.432,2.279,2.279,0,0,1,.193.776l-.516.112q-.072-.8-.677-.8a.679.679,0,0,0-.512.176.625.625,0,0,0-.169.452.561.561,0,0,0,.162.425,2.463,2.463,0,0,0,.574.293,3.831,3.831,0,0,1,.85.427,1.044,1.044,0,0,1,.3.433,1.8,1.8,0,0,1,.107.652,1.766,1.766,0,0,1-.346,1.133,1.147,1.147,0,0,1-.944.433Q91.442,88.857,91.263,87.284Z"/><path class="cls-2" d="M96.151,82.957v-.951h.526v.951Zm0,5.789V83.863h.526v4.883Z"/><path class="cls-2" d="M99.62,87.174l.544.106a2.354,2.354,0,0,1-.492,1.179,1.142,1.142,0,0,1-.884.4,1.229,1.229,0,0,1-1.073-.646,3.491,3.491,0,0,1-.41-1.865,3.678,3.678,0,0,1,.413-1.929,1.216,1.216,0,0,1,1.049-.664,1.176,1.176,0,0,1,1.01.653,3.61,3.61,0,0,1,.405,1.889l0,.221H97.849a2.534,2.534,0,0,0,.3,1.241.761.761,0,0,0,.645.42Q99.386,88.177,99.62,87.174Zm-1.739-1.338h1.742a2.255,2.255,0,0,0-.211-.947.745.745,0,0,0-.649-.456.721.721,0,0,0-.605.379A1.974,1.974,0,0,0,97.881,85.836Z"/><path class="cls-2" d="M100.816,88.746v-6.74h.527v6.74Z"/><path class="cls-2" d="M104.2,88.144a2.1,2.1,0,0,1-.552.533,1.1,1.1,0,0,1-.595.18.928.928,0,0,1-.777-.378,1.617,1.617,0,0,1-.291-1.016,1.924,1.924,0,0,1,.137-.749,1.216,1.216,0,0,1,.372-.51,1.667,1.667,0,0,1,.717-.272,3.275,3.275,0,0,0,.946-.29l0-.211a1.3,1.3,0,0,0-.139-.7.68.68,0,0,0-.606-.294.719.719,0,0,0-.552.2,1.453,1.453,0,0,0-.269.737l-.519-.111a2.067,2.067,0,0,1,.45-1.145,1.266,1.266,0,0,1,.969-.358,1.153,1.153,0,0,1,.77.236,1.029,1.029,0,0,1,.353.587,5.3,5.3,0,0,1,.074,1.02v1.1c0,.772.011,1.26.034,1.46a2.665,2.665,0,0,0,.134.586h-.552A2.5,2.5,0,0,1,104.2,88.144ZM104.16,86.3a2.791,2.791,0,0,1-.864.313,1.39,1.39,0,0,0-.466.168.619.619,0,0,0-.206.266,1.016,1.016,0,0,0-.073.4.868.868,0,0,0,.168.559.565.565,0,0,0,.466.209.8.8,0,0,0,.514-.188,1.134,1.134,0,0,0,.346-.5,2.8,2.8,0,0,0,.115-.917Z"/><path class="cls-2" d="M53.021,88.746H52.18V84.183a2.95,2.95,0,0,1-1.089.917V84a2.331,2.331,0,0,0,.727-.6,2.417,2.417,0,0,0,.523-.994h.68Z"/><rect class="cls-9" x="45.266" y="90.853" width="13.259" height="28.612"/><rect class="cls-10" x="58.525" y="90.853" width="59.975" height="26.032"/><rect class="cls-11" x="58.525" y="114.304" width="59.975" height="5.16"/><rect class="cls-12" x="61.165" y="93.261" width="53.458" height="12.844"/><path class="cls-13" d="M63.86,93.261c.188,2.141.2,4.281.228,6.422-.027,2.14-.038,4.281-.228,6.422-.19-2.141-.2-4.282-.228-6.422C63.659,97.542,63.672,95.4,63.86,93.261Z"/><path class="cls-13" d="M66.5,93.261c.188,2.141.2,4.281.228,6.422-.027,2.14-.038,4.281-.228,6.422-.19-2.141-.2-4.282-.228-6.422C66.3,97.542,66.311,95.4,66.5,93.261Z"/><path class="cls-13" d="M69.14,93.261c.188,2.141.2,4.281.227,6.422-.026,2.14-.037,4.281-.227,6.422-.19-2.141-.2-4.282-.228-6.422C68.939,97.542,68.951,95.4,69.14,93.261Z"/><path class="cls-13" d="M71.78,93.261c.188,2.141.2,4.281.227,6.422-.026,2.14-.037,4.281-.227,6.422-.19-2.141-.2-4.282-.228-6.422C71.579,97.542,71.591,95.4,71.78,93.261Z"/><path class="cls-13" d="M74.42,93.261c.188,2.141.2,4.281.227,6.422-.026,2.14-.038,4.281-.227,6.422-.19-2.141-.2-4.282-.228-6.422C74.219,97.542,74.231,95.4,74.42,93.261Z"/><path class="cls-13" d="M77.059,93.261c.189,2.141.2,4.281.228,6.422-.026,2.14-.038,4.281-.228,6.422-.189-2.141-.2-4.282-.227-6.422C76.859,97.542,76.871,95.4,77.059,93.261Z"/><path class="cls-13" d="M79.7,93.261c.189,2.141.2,4.281.228,6.422-.026,2.14-.038,4.281-.228,6.422-.19-2.141-.2-4.282-.227-6.422C79.5,97.542,79.511,95.4,79.7,93.261Z"/><path class="cls-13" d="M82.339,93.261c.189,2.141.2,4.281.228,6.422-.026,2.14-.038,4.281-.228,6.422-.19-2.141-.2-4.282-.227-6.422C82.139,97.542,82.151,95.4,82.339,93.261Z"/><path class="cls-13" d="M84.979,93.261c.189,2.141.2,4.281.228,6.422-.026,2.14-.038,4.281-.228,6.422-.19-2.141-.2-4.282-.228-6.422C84.778,97.542,84.791,95.4,84.979,93.261Z"/><path class="cls-13" d="M87.619,93.261c.188,2.141.2,4.281.228,6.422-.027,2.14-.038,4.281-.228,6.422-.19-2.141-.2-4.282-.228-6.422C87.418,97.542,87.431,95.4,87.619,93.261Z"/><path class="cls-13" d="M90.259,93.261c.188,2.141.2,4.281.228,6.422-.027,2.14-.038,4.281-.228,6.422-.19-2.141-.2-4.282-.228-6.422C90.058,97.542,90.071,95.4,90.259,93.261Z"/><path class="cls-13" d="M92.9,93.261c.188,2.141.2,4.281.228,6.422-.027,2.14-.038,4.281-.228,6.422-.19-2.141-.2-4.282-.228-6.422C92.7,97.542,92.711,95.4,92.9,93.261Z"/><path class="cls-13" d="M95.539,93.261c.188,2.141.2,4.281.228,6.422-.027,2.14-.038,4.281-.228,6.422-.19-2.141-.2-4.282-.228-6.422C95.338,97.542,95.35,95.4,95.539,93.261Z"/><path class="cls-13" d="M98.179,93.261c.188,2.141.2,4.281.227,6.422-.026,2.14-.037,4.281-.227,6.422-.19-2.141-.2-4.282-.228-6.422C97.978,97.542,97.99,95.4,98.179,93.261Z"/><path class="cls-13" d="M100.819,93.261c.188,2.141.2,4.281.227,6.422-.026,2.14-.037,4.281-.227,6.422-.19-2.141-.2-4.282-.228-6.422C100.618,97.542,100.63,95.4,100.819,93.261Z"/><path class="cls-13" d="M103.459,93.261c.188,2.141.2,4.281.227,6.422-.026,2.14-.038,4.281-.227,6.422-.19-2.141-.2-4.282-.228-6.422C103.258,97.542,103.27,95.4,103.459,93.261Z"/><path class="cls-13" d="M106.1,93.261c.189,2.141.2,4.281.228,6.422-.026,2.14-.038,4.281-.228,6.422-.189-2.141-.2-4.282-.227-6.422C105.9,97.542,105.91,95.4,106.1,93.261Z"/><path class="cls-13" d="M108.738,93.261c.189,2.141.2,4.281.228,6.422-.026,2.14-.038,4.281-.228,6.422-.189-2.141-.2-4.282-.227-6.422C108.538,97.542,108.55,95.4,108.738,93.261Z"/><path class="cls-13" d="M111.378,93.261c.189,2.141.2,4.281.228,6.422-.026,2.14-.038,4.281-.228,6.422-.19-2.141-.2-4.282-.227-6.422C111.178,97.542,111.19,95.4,111.378,93.261Z"/><path class="cls-3" d="M62.106,95.41l.142-.02a.6.6,0,0,0,.074.265.167.167,0,0,0,.135.087.2.2,0,0,0,.165-.123.676.676,0,0,0,.07-.335.6.6,0,0,0-.067-.31.2.2,0,0,0-.169-.11.166.166,0,0,0-.114.048.315.315,0,0,0-.085.133l-.127-.028.107-.957h.545v.219h-.438l-.059.5a.278.278,0,0,1,.208-.118.288.288,0,0,1,.239.163.83.83,0,0,1,.1.441,1,1,0,0,1-.1.469.307.307,0,0,1-.273.194.291.291,0,0,1-.241-.137A.727.727,0,0,1,62.106,95.41Z"/><path class="cls-3" d="M65.445,94.491l-.134.017a.549.549,0,0,0-.057-.2.154.154,0,0,0-.129-.089c-.079,0-.142.068-.189.2a1.693,1.693,0,0,0-.062.519.468.468,0,0,1,.117-.185.22.22,0,0,1,.149-.063.275.275,0,0,1,.228.165.857.857,0,0,1,.1.44,1.075,1.075,0,0,1-.049.337.508.508,0,0,1-.126.225.235.235,0,0,1-.168.072.316.316,0,0,1-.274-.208,1.616,1.616,0,0,1-.108-.694,1.909,1.909,0,0,1,.11-.769c.074-.153.168-.229.283-.229a.249.249,0,0,1,.209.118A.68.68,0,0,1,65.445,94.491Zm-.55.8a.66.66,0,0,0,.069.324q.067.123.159.123c.052,0,.1-.039.142-.116a.683.683,0,0,0,.062-.318A.631.631,0,0,0,65.265,95a.18.18,0,0,0-.152-.11.183.183,0,0,0-.152.11A.559.559,0,0,0,64.9,95.3Z"/><path class="cls-3" d="M67.4,94.28v-.22h.71v.178a3.283,3.283,0,0,0-.28.748,4.277,4.277,0,0,0-.138.912h-.138a3.567,3.567,0,0,1,.053-.545,4.282,4.282,0,0,1,.139-.593,3.056,3.056,0,0,1,.19-.48Z"/><path class="cls-3" d="M70.234,94.887a.307.307,0,0,1-.122-.145.6.6,0,0,1-.041-.235.619.619,0,0,1,.089-.346.259.259,0,0,1,.453,0,.625.625,0,0,1,.091.35.571.571,0,0,1-.04.228.312.312,0,0,1-.122.145.354.354,0,0,1,.153.177.745.745,0,0,1,.054.3.723.723,0,0,1-.1.406.29.29,0,0,1-.516,0,.882.882,0,0,1-.048-.72A.315.315,0,0,1,70.234,94.887Zm-.07.473a.514.514,0,0,0,.066.277.188.188,0,0,0,.158.105.186.186,0,0,0,.158-.1.5.5,0,0,0,.065-.272.51.51,0,0,0-.067-.276.189.189,0,0,0-.159-.105.185.185,0,0,0-.157.1A.505.505,0,0,0,70.164,95.36Zm.045-.86a.4.4,0,0,0,.052.219.14.14,0,0,0,.253,0,.372.372,0,0,0,.052-.206.4.4,0,0,0-.053-.214.153.153,0,0,0-.127-.083.151.151,0,0,0-.125.082A.361.361,0,0,0,70.209,94.5Z"/><path class="cls-3" d="M72.686,95.468l.13-.021c.02.2.081.3.183.3a.158.158,0,0,0,.122-.065.558.558,0,0,0,.094-.227,1.676,1.676,0,0,0,.038-.383v-.046a.448.448,0,0,1-.113.18.218.218,0,0,1-.145.066.277.277,0,0,1-.232-.164.866.866,0,0,1-.1-.446.891.891,0,0,1,.1-.461.287.287,0,0,1,.245-.167.26.26,0,0,1,.191.094.63.63,0,0,1,.137.277,2.19,2.19,0,0,1,.048.526,2.669,2.669,0,0,1-.051.595.7.7,0,0,1-.142.31.262.262,0,0,1-.2.1.251.251,0,0,1-.21-.118A.681.681,0,0,1,72.686,95.468Zm.553-.823a.641.641,0,0,0-.065-.314c-.042-.076-.091-.115-.147-.115s-.109.041-.155.123a.66.66,0,0,0-.068.325.562.562,0,0,0,.065.292.182.182,0,0,0,.156.108.175.175,0,0,0,.151-.109A.624.624,0,0,0,73.239,94.645Z"/><path class="cls-3" d="M75.814,95.9h-.136V94.441a.837.837,0,0,1-.125.156.785.785,0,0,1-.144.12V94.5a.979.979,0,0,0,.2-.217.916.916,0,0,0,.12-.25h.088Z"/><path class="cls-3" d="M76.159,94.979a2.108,2.108,0,0,1,.091-.709c.061-.162.15-.241.268-.241s.187.064.248.2a1.918,1.918,0,0,1,.109.755,2.132,2.132,0,0,1-.09.708c-.06.161-.15.242-.269.242-.1,0-.19-.071-.257-.213A1.9,1.9,0,0,1,76.159,94.979Zm.138,0a1.9,1.9,0,0,0,.063.608c.042.1.095.155.16.155s.114-.052.155-.157a1.906,1.906,0,0,0,.062-.606,1.942,1.942,0,0,0-.062-.609c-.042-.1-.1-.154-.163-.154s-.112.053-.153.157A1.937,1.937,0,0,0,76.3,94.979Z"/><path class="cls-3" d="M78.454,95.9h-.136V94.441a.837.837,0,0,1-.125.156.785.785,0,0,1-.144.12V94.5a.979.979,0,0,0,.2-.217.916.916,0,0,0,.12-.25h.088Z"/><path class="cls-3" d="M79.194,95.9h-.135V94.441a.837.837,0,0,1-.125.156.785.785,0,0,1-.144.12V94.5a.979.979,0,0,0,.2-.217.916.916,0,0,0,.12-.25h.087Z"/><path class="cls-3" d="M81.094,95.9h-.136V94.441a.837.837,0,0,1-.125.156.785.785,0,0,1-.144.12V94.5a.979.979,0,0,0,.2-.217.916.916,0,0,0,.12-.25h.088Z"/><path class="cls-3" d="M82.15,95.678v.22h-.726a.812.812,0,0,1,.058-.3,1.693,1.693,0,0,1,.222-.39,2.2,2.2,0,0,0,.247-.4.715.715,0,0,0,.059-.267.41.41,0,0,0-.06-.232.174.174,0,0,0-.148-.09.177.177,0,0,0-.154.1.525.525,0,0,0-.06.277l-.139-.024a.782.782,0,0,1,.109-.4.291.291,0,0,1,.249-.135.276.276,0,0,1,.255.157.735.735,0,0,1,.086.358.878.878,0,0,1-.068.34,2.517,2.517,0,0,1-.257.436c-.08.114-.132.191-.155.234a.655.655,0,0,0-.057.124Z"/><path class="cls-3" d="M83.733,95.9H83.6V94.441a.837.837,0,0,1-.125.156.785.785,0,0,1-.144.12V94.5a.979.979,0,0,0,.2-.217.916.916,0,0,0,.12-.25h.087Z"/><path class="cls-3" d="M84.079,95.405l.134-.031c.028.245.1.368.213.368a.194.194,0,0,0,.161-.11.522.522,0,0,0,.067-.281.484.484,0,0,0-.062-.262.178.178,0,0,0-.152-.1.235.235,0,0,0-.095.025l.015-.2.021,0a.2.2,0,0,0,.163-.085.377.377,0,0,0,.062-.227.372.372,0,0,0-.052-.209.151.151,0,0,0-.127-.08.157.157,0,0,0-.132.083.557.557,0,0,0-.068.253l-.135-.041a.744.744,0,0,1,.116-.36.26.26,0,0,1,.216-.122.269.269,0,0,1,.227.137.6.6,0,0,1,.093.345.59.59,0,0,1-.04.225.373.373,0,0,1-.11.153.239.239,0,0,1,.108.083.467.467,0,0,1,.069.157.813.813,0,0,1,.027.218.743.743,0,0,1-.109.419.31.31,0,0,1-.26.163.285.285,0,0,1-.239-.142A.741.741,0,0,1,84.079,95.405Z"/><path class="cls-3" d="M86.373,95.9h-.135V94.441a.837.837,0,0,1-.125.156.819.819,0,0,1-.144.12V94.5a1,1,0,0,0,.2-.217.916.916,0,0,0,.12-.25h.087Z"/><path class="cls-3" d="M87.151,95.9v-.446h-.476v-.209l.5-1.207h.111v1.207h.149v.209h-.149V95.9Zm0-.655V94.4l-.343.84Z"/><path class="cls-3" d="M89.013,95.9h-.135V94.441a.88.88,0,0,1-.125.156.819.819,0,0,1-.144.12V94.5a.976.976,0,0,0,.2-.217.952.952,0,0,0,.121-.25h.087Z"/><path class="cls-3" d="M89.359,95.41l.141-.02a.582.582,0,0,0,.075.265.164.164,0,0,0,.134.087.2.2,0,0,0,.166-.123.688.688,0,0,0,.069-.335.592.592,0,0,0-.067-.31.2.2,0,0,0-.168-.11.168.168,0,0,0-.115.048.3.3,0,0,0-.084.133l-.127-.028.106-.957h.546v.219H89.6l-.059.5a.275.275,0,0,1,.207-.118.289.289,0,0,1,.24.163.83.83,0,0,1,.1.441,1,1,0,0,1-.1.469.307.307,0,0,1-.274.194.288.288,0,0,1-.24-.137A.718.718,0,0,1,89.359,95.41Z"/><path class="cls-3" d="M91.653,95.9h-.135V94.441a.88.88,0,0,1-.125.156.787.787,0,0,1-.145.12V94.5a1,1,0,0,0,.318-.467h.087Z"/><path class="cls-3" d="M92.7,94.491l-.134.017a.552.552,0,0,0-.056-.2.154.154,0,0,0-.13-.089c-.078,0-.141.068-.189.2a1.7,1.7,0,0,0-.061.519.468.468,0,0,1,.117-.185.218.218,0,0,1,.148-.063.275.275,0,0,1,.228.165.856.856,0,0,1,.1.44,1.105,1.105,0,0,1-.049.337.528.528,0,0,1-.126.225.237.237,0,0,1-.169.072.316.316,0,0,1-.274-.208,1.616,1.616,0,0,1-.108-.694,1.906,1.906,0,0,1,.111-.769c.073-.153.167-.229.282-.229a.251.251,0,0,1,.21.118A.691.691,0,0,1,92.7,94.491Zm-.549.8a.661.661,0,0,0,.068.324q.069.123.159.123c.053,0,.1-.039.142-.116a.669.669,0,0,0,.063-.318A.619.619,0,0,0,92.517,95a.177.177,0,0,0-.151-.11.183.183,0,0,0-.153.11A.56.56,0,0,0,92.148,95.3Z"/><path class="cls-3" d="M94.293,95.9h-.135V94.441a.88.88,0,0,1-.125.156.787.787,0,0,1-.145.12V94.5a.956.956,0,0,0,.2-.217.916.916,0,0,0,.12-.25h.088Z"/><path class="cls-3" d="M94.648,94.28v-.22h.709v.178a3.239,3.239,0,0,0-.279.748,4.28,4.28,0,0,0-.139.912H94.8a3.84,3.84,0,0,1,.053-.545,4.282,4.282,0,0,1,.139-.593,3.051,3.051,0,0,1,.191-.48Z"/><path class="cls-3" d="M96.933,95.9H96.8V94.441a.88.88,0,0,1-.125.156.822.822,0,0,1-.145.12V94.5a.956.956,0,0,0,.2-.217.916.916,0,0,0,.12-.25h.088Z"/><path class="cls-3" d="M97.487,94.887a.314.314,0,0,1-.123-.145.6.6,0,0,1-.041-.235.611.611,0,0,1,.09-.346.265.265,0,0,1,.225-.132.269.269,0,0,1,.228.135.625.625,0,0,1,.09.35.571.571,0,0,1-.04.228.31.31,0,0,1-.121.145.357.357,0,0,1,.152.177.745.745,0,0,1,.054.3.732.732,0,0,1-.1.406.29.29,0,0,1-.516,0,.871.871,0,0,1-.048-.72A.315.315,0,0,1,97.487,94.887Zm-.071.473a.514.514,0,0,0,.066.277.19.19,0,0,0,.159.105.185.185,0,0,0,.157-.1.5.5,0,0,0,.065-.272.51.51,0,0,0-.066-.276.191.191,0,0,0-.16-.105.184.184,0,0,0-.156.1A.505.505,0,0,0,97.416,95.36Zm.045-.86a.413.413,0,0,0,.052.219.152.152,0,0,0,.128.08.148.148,0,0,0,.125-.08.364.364,0,0,0,.052-.206.388.388,0,0,0-.053-.214.137.137,0,0,0-.252,0A.369.369,0,0,0,97.461,94.5Z"/><path class="cls-3" d="M99.573,95.9h-.135V94.441a.88.88,0,0,1-.125.156.822.822,0,0,1-.145.12V94.5a.956.956,0,0,0,.2-.217.916.916,0,0,0,.12-.25h.088Z"/><path class="cls-3" d="M99.938,95.468l.13-.021c.021.2.082.3.183.3a.162.162,0,0,0,.123-.065.56.56,0,0,0,.093-.227,1.673,1.673,0,0,0,.039-.383v-.046a.45.45,0,0,1-.114.18.218.218,0,0,1-.145.066.275.275,0,0,1-.231-.164.865.865,0,0,1-.1-.446.9.9,0,0,1,.1-.461.288.288,0,0,1,.245-.167.262.262,0,0,1,.192.094.641.641,0,0,1,.137.277,2.19,2.19,0,0,1,.048.526,2.659,2.659,0,0,1-.052.595.712.712,0,0,1-.141.31.264.264,0,0,1-.2.1.249.249,0,0,1-.209-.118A.68.68,0,0,1,99.938,95.468Zm.553-.823a.642.642,0,0,0-.064-.314c-.043-.076-.092-.115-.147-.115s-.11.041-.155.123a.659.659,0,0,0-.069.325.572.572,0,0,0,.065.292.183.183,0,0,0,.156.108.177.177,0,0,0,.152-.109A.636.636,0,0,0,100.491,94.645Z"/><path class="cls-3" d="M102.416,95.678v.22h-.727a.856.856,0,0,1,.058-.3,1.741,1.741,0,0,1,.223-.39,2.2,2.2,0,0,0,.247-.4.715.715,0,0,0,.059-.267.41.41,0,0,0-.06-.232.174.174,0,0,0-.148-.09.177.177,0,0,0-.154.1.525.525,0,0,0-.06.277l-.139-.024a.782.782,0,0,1,.109-.4.291.291,0,0,1,.249-.135.276.276,0,0,1,.255.157.735.735,0,0,1,.086.358.878.878,0,0,1-.068.34,2.517,2.517,0,0,1-.257.436c-.08.114-.132.191-.155.234a.655.655,0,0,0-.057.124Z"/><path class="cls-3" d="M102.558,94.979a2.135,2.135,0,0,1,.091-.709c.061-.162.15-.241.268-.241s.187.064.248.2a1.918,1.918,0,0,1,.109.755,2.132,2.132,0,0,1-.09.708c-.06.161-.15.242-.269.242-.1,0-.19-.071-.257-.213A1.9,1.9,0,0,1,102.558,94.979Zm.138,0a1.9,1.9,0,0,0,.063.608c.042.1.095.155.161.155s.113-.052.154-.157a1.906,1.906,0,0,0,.062-.606,1.942,1.942,0,0,0-.062-.609c-.042-.1-.1-.154-.163-.154s-.112.053-.153.157A1.937,1.937,0,0,0,102.7,94.979Z"/><path class="cls-3" d="M105.055,95.678v.22h-.726a.833.833,0,0,1,.058-.3,1.741,1.741,0,0,1,.223-.39,2.2,2.2,0,0,0,.247-.4.715.715,0,0,0,.059-.267.41.41,0,0,0-.06-.232.174.174,0,0,0-.148-.09.177.177,0,0,0-.154.1.525.525,0,0,0-.06.277l-.139-.024a.782.782,0,0,1,.109-.4.291.291,0,0,1,.249-.135.273.273,0,0,1,.254.157.724.724,0,0,1,.087.358.878.878,0,0,1-.068.34,2.517,2.517,0,0,1-.257.436c-.08.114-.132.191-.155.234a.655.655,0,0,0-.057.124Z"/><path class="cls-3" d="M105.706,95.9h-.135V94.441a.88.88,0,0,1-.125.156.822.822,0,0,1-.145.12V94.5a.956.956,0,0,0,.2-.217.916.916,0,0,0,.12-.25h.088Z"/><path class="cls-3" d="M107.7,95.678v.22h-.726a.833.833,0,0,1,.058-.3,1.741,1.741,0,0,1,.223-.39,2.2,2.2,0,0,0,.247-.4.715.715,0,0,0,.059-.267.41.41,0,0,0-.06-.232.168.168,0,0,0-.3.008.525.525,0,0,0-.06.277L107,94.567a.773.773,0,0,1,.109-.4.291.291,0,0,1,.249-.135.273.273,0,0,1,.254.157.724.724,0,0,1,.087.358.878.878,0,0,1-.068.34,2.517,2.517,0,0,1-.257.436c-.08.114-.132.191-.155.234a.655.655,0,0,0-.057.124Z"/><path class="cls-3" d="M108.549,95.678v.22h-.726a.812.812,0,0,1,.058-.3,1.693,1.693,0,0,1,.222-.39,2.2,2.2,0,0,0,.247-.4.715.715,0,0,0,.059-.267.41.41,0,0,0-.06-.232.174.174,0,0,0-.147-.09.178.178,0,0,0-.155.1.525.525,0,0,0-.06.277l-.139-.024a.782.782,0,0,1,.109-.4.291.291,0,0,1,.249-.135.276.276,0,0,1,.255.157.735.735,0,0,1,.086.358.878.878,0,0,1-.068.34,2.5,2.5,0,0,1-.256.436,2.8,2.8,0,0,0-.156.234.655.655,0,0,0-.057.124Z"/><path class="cls-3" d="M110.335,95.678v.22h-.726a.833.833,0,0,1,.058-.3,1.7,1.7,0,0,1,.223-.39,2.2,2.2,0,0,0,.247-.4.715.715,0,0,0,.059-.267.41.41,0,0,0-.06-.232.168.168,0,0,0-.3.008.525.525,0,0,0-.06.277l-.139-.024a.773.773,0,0,1,.109-.4.291.291,0,0,1,.249-.135.273.273,0,0,1,.254.157.724.724,0,0,1,.087.358.878.878,0,0,1-.068.34,2.517,2.517,0,0,1-.257.436c-.08.114-.132.191-.156.234a.809.809,0,0,0-.057.124Z"/><path class="cls-3" d="M110.478,95.405l.134-.031c.028.245.1.368.213.368a.194.194,0,0,0,.161-.11.522.522,0,0,0,.068-.281.484.484,0,0,0-.063-.262.178.178,0,0,0-.152-.1.239.239,0,0,0-.095.025l.015-.2.021,0a.2.2,0,0,0,.163-.085.377.377,0,0,0,.062-.227.372.372,0,0,0-.052-.209.151.151,0,0,0-.127-.08.157.157,0,0,0-.132.083.57.57,0,0,0-.068.253l-.134-.041a.734.734,0,0,1,.115-.36.261.261,0,0,1,.216-.122.269.269,0,0,1,.227.137.6.6,0,0,1,.093.345.61.61,0,0,1-.039.225.384.384,0,0,1-.111.153.239.239,0,0,1,.108.083.488.488,0,0,1,.07.157.857.857,0,0,1,.026.218.735.735,0,0,1-.109.419.31.31,0,0,1-.26.163.283.283,0,0,1-.238-.142A.732.732,0,0,1,110.478,95.405Z"/><path class="cls-3" d="M112.975,95.678v.22h-.726a.833.833,0,0,1,.058-.3,1.731,1.731,0,0,1,.222-.39,2.216,2.216,0,0,0,.248-.4.715.715,0,0,0,.059-.267.41.41,0,0,0-.06-.232.168.168,0,0,0-.3.008.515.515,0,0,0-.061.277l-.138-.024a.773.773,0,0,1,.109-.4.291.291,0,0,1,.249-.135.274.274,0,0,1,.254.157.724.724,0,0,1,.087.358.878.878,0,0,1-.068.34,2.517,2.517,0,0,1-.257.436c-.08.114-.132.191-.156.234a.809.809,0,0,0-.057.124Z"/><path class="cls-3" d="M113.55,95.9v-.446h-.476v-.209l.5-1.207h.11v1.207h.149v.209h-.149V95.9Zm0-.655V94.4l-.343.84Z"/><path class="cls-3" d="M64.406,97.766a1.372,1.372,0,0,1,.077-.522.244.244,0,0,1,.225-.177.231.231,0,0,1,.207.144,1.252,1.252,0,0,1,.092.555,1.374,1.374,0,0,1-.076.52.244.244,0,0,1-.225.178.247.247,0,0,1-.216-.157A1.241,1.241,0,0,1,64.406,97.766Zm.116,0a1.233,1.233,0,0,0,.053.446c.035.076.08.114.134.114s.095-.039.13-.115a1.943,1.943,0,0,0,0-.893c-.035-.076-.081-.113-.137-.113s-.094.038-.128.115A1.243,1.243,0,0,0,64.522,97.766Z"/><path class="cls-3" d="M65.122,98.082l.119-.015a.4.4,0,0,0,.062.2.143.143,0,0,0,.113.064.167.167,0,0,0,.139-.091.446.446,0,0,0,.058-.245.4.4,0,0,0-.056-.228.167.167,0,0,0-.141-.082.152.152,0,0,0-.1.036.242.242,0,0,0-.07.1l-.107-.021.09-.7h.457v.16h-.368l-.049.369a.239.239,0,0,1,.174-.086.243.243,0,0,1,.2.12.543.543,0,0,1,.086.323.66.66,0,0,1-.086.344.257.257,0,0,1-.229.144.253.253,0,0,1-.2-.1A.484.484,0,0,1,65.122,98.082Z"/><path class="cls-3" d="M65,100.572v.161h-.609a.551.551,0,0,1,.049-.22,1.231,1.231,0,0,1,.187-.286,1.552,1.552,0,0,0,.207-.3.459.459,0,0,0,.049-.2.268.268,0,0,0-.05-.17.151.151,0,0,0-.124-.067.154.154,0,0,0-.129.072.349.349,0,0,0-.051.2l-.116-.018a.527.527,0,0,1,.091-.3.256.256,0,0,1,.209-.1.238.238,0,0,1,.214.116.488.488,0,0,1,.072.263.572.572,0,0,1-.057.25,1.8,1.8,0,0,1-.215.32c-.068.084-.111.142-.131.172a.675.675,0,0,0-.048.092Z"/><path class="cls-3" d="M65.548,100.733h-.113v-1.07a.673.673,0,0,1-.105.114.767.767,0,0,1-.121.089V99.7a.735.735,0,0,0,.165-.16.638.638,0,0,0,.1-.184h.073Z"/><path class="cls-3" d="M64.406,102.664l.113-.023c.024.18.083.27.179.27a.165.165,0,0,0,.134-.08.351.351,0,0,0,.057-.207.319.319,0,0,0-.052-.192.155.155,0,0,0-.128-.074.221.221,0,0,0-.08.019l.013-.147.018,0a.168.168,0,0,0,.136-.063.249.249,0,0,0,.052-.167.255.255,0,0,0-.043-.154.128.128,0,0,0-.217,0,.37.37,0,0,0-.057.184l-.113-.029a.49.49,0,0,1,.1-.265.229.229,0,0,1,.181-.09.233.233,0,0,1,.19.1.4.4,0,0,1,.078.254.4.4,0,0,1-.033.165.28.28,0,0,1-.093.113.2.2,0,0,1,.091.06.344.344,0,0,1,.058.115.545.545,0,0,1,.022.161.492.492,0,0,1-.091.308.27.27,0,0,1-.218.12.245.245,0,0,1-.2-.105A.494.494,0,0,1,64.406,102.664Z"/><path class="cls-3" d="M65.13,101.837v-.162h.595v.131a2.226,2.226,0,0,0-.234.549,2.742,2.742,0,0,0-.117.67h-.115a2.37,2.37,0,0,1,.044-.4,2.723,2.723,0,0,1,.117-.435,2.064,2.064,0,0,1,.16-.353Z"/><path class="cls-3" d="M64.406,104.96l.119-.015a.386.386,0,0,0,.063.2.14.14,0,0,0,.112.063.166.166,0,0,0,.139-.09.448.448,0,0,0,.058-.246.389.389,0,0,0-.056-.227.164.164,0,0,0-.141-.082.149.149,0,0,0-.1.036.235.235,0,0,0-.071.1l-.107-.021.09-.7h.457v.16h-.367l-.05.369a.239.239,0,0,1,.174-.086.245.245,0,0,1,.2.12.543.543,0,0,1,.085.323.66.66,0,0,1-.085.344.258.258,0,0,1-.23.143.252.252,0,0,1-.2-.1A.484.484,0,0,1,64.406,104.96Z"/><path class="cls-3" d="M65.122,104.956l.113-.022c.023.18.083.269.179.269a.163.163,0,0,0,.134-.079.351.351,0,0,0,.057-.207.331.331,0,0,0-.052-.193.156.156,0,0,0-.128-.073.234.234,0,0,0-.08.018l.013-.146h.018a.167.167,0,0,0,.136-.062.251.251,0,0,0,.052-.167.245.245,0,0,0-.044-.154.129.129,0,0,0-.106-.058.133.133,0,0,0-.111.061.378.378,0,0,0-.057.185l-.112-.03a.5.5,0,0,1,.1-.265.231.231,0,0,1,.182-.089.235.235,0,0,1,.19.1.4.4,0,0,1,.078.253.392.392,0,0,1-.033.165.273.273,0,0,1-.093.113.207.207,0,0,1,.091.061.335.335,0,0,1,.058.115.538.538,0,0,1,.022.16.488.488,0,0,1-.091.308.269.269,0,0,1-.218.12.249.249,0,0,1-.2-.1A.5.5,0,0,1,65.122,104.956Z"/><path class="cls-3" d="M67.046,97.766a1.372,1.372,0,0,1,.077-.522.243.243,0,0,1,.224-.177.231.231,0,0,1,.208.144,1.252,1.252,0,0,1,.092.555,1.374,1.374,0,0,1-.076.52.229.229,0,0,1-.441.021A1.241,1.241,0,0,1,67.046,97.766Zm.116,0a1.233,1.233,0,0,0,.053.446c.034.076.08.114.134.114s.095-.039.13-.115a1.943,1.943,0,0,0,0-.893c-.036-.076-.081-.113-.137-.113s-.094.038-.128.115A1.243,1.243,0,0,0,67.162,97.766Z"/><path class="cls-3" d="M67.937,97.7a.242.242,0,0,1-.1-.107.387.387,0,0,1-.034-.173.41.41,0,0,1,.075-.254.233.233,0,0,1,.38,0,.415.415,0,0,1,.076.257.379.379,0,0,1-.034.167.251.251,0,0,1-.1.107.272.272,0,0,1,.128.129.5.5,0,0,1,.045.223.479.479,0,0,1-.087.3.259.259,0,0,1-.432,0,.574.574,0,0,1-.041-.529A.241.241,0,0,1,67.937,97.7Zm-.059.348a.338.338,0,0,0,.055.2.153.153,0,0,0,.265,0,.334.334,0,0,0,.054-.2.341.341,0,0,0-.055-.2.165.165,0,0,0-.134-.077.156.156,0,0,0-.131.077A.334.334,0,0,0,67.878,98.046Zm.037-.633a.267.267,0,0,0,.044.161.125.125,0,0,0,.212,0,.252.252,0,0,0,.044-.153.257.257,0,0,0-.045-.156.122.122,0,0,0-.211,0A.243.243,0,0,0,67.915,97.413Z"/><path class="cls-3" d="M67.642,100.572v.161h-.609a.551.551,0,0,1,.049-.22,1.255,1.255,0,0,1,.186-.286,1.568,1.568,0,0,0,.208-.3.459.459,0,0,0,.049-.2.268.268,0,0,0-.05-.17.15.15,0,0,0-.253.005.349.349,0,0,0-.051.2l-.116-.018a.527.527,0,0,1,.091-.3.256.256,0,0,1,.209-.1.238.238,0,0,1,.214.116.488.488,0,0,1,.072.263.572.572,0,0,1-.057.25,1.8,1.8,0,0,1-.215.32c-.068.084-.111.142-.131.172a.579.579,0,0,0-.048.092Z"/><path class="cls-3" d="M67.762,100.371l.113-.022c.023.18.083.269.179.269a.165.165,0,0,0,.134-.08.347.347,0,0,0,.057-.207.328.328,0,0,0-.052-.192.155.155,0,0,0-.128-.074.239.239,0,0,0-.08.019L68,99.937l.018,0a.168.168,0,0,0,.136-.063.246.246,0,0,0,.052-.166.251.251,0,0,0-.044-.154.13.13,0,0,0-.106-.059.134.134,0,0,0-.111.062.374.374,0,0,0-.057.185l-.113-.03a.51.51,0,0,1,.1-.265.228.228,0,0,1,.372.012.4.4,0,0,1,.078.253.392.392,0,0,1-.033.165.273.273,0,0,1-.093.113.2.2,0,0,1,.091.061.335.335,0,0,1,.058.115.538.538,0,0,1,.022.16.492.492,0,0,1-.091.308.269.269,0,0,1-.219.12.247.247,0,0,1-.2-.105A.5.5,0,0,1,67.762,100.371Z"/><path class="cls-3" d="M67.409,103.025V102.7h-.4v-.154l.42-.887h.093v.887h.125v.154h-.125v.327Zm0-.481v-.617l-.288.617Z"/><path class="cls-3" d="M68.188,103.025h-.114v-1.069a.625.625,0,0,1-.1.114.7.7,0,0,1-.121.088V102a.752.752,0,0,0,.165-.159.61.61,0,0,0,.1-.184h.074Z"/><path class="cls-3" d="M67.046,104.96l.119-.015a.386.386,0,0,0,.063.2.138.138,0,0,0,.112.063.166.166,0,0,0,.139-.09.448.448,0,0,0,.058-.246.389.389,0,0,0-.056-.227.167.167,0,0,0-.141-.082.149.149,0,0,0-.1.036.235.235,0,0,0-.071.1l-.107-.021.09-.7h.457v.16h-.367l-.05.369a.239.239,0,0,1,.174-.086.243.243,0,0,1,.2.12.543.543,0,0,1,.086.323.66.66,0,0,1-.086.344.256.256,0,0,1-.229.143.252.252,0,0,1-.2-.1A.484.484,0,0,1,67.046,104.96Z"/><path class="cls-3" d="M67.937,104.576a.242.242,0,0,1-.1-.107.387.387,0,0,1-.034-.173.41.41,0,0,1,.075-.254.233.233,0,0,1,.38,0,.415.415,0,0,1,.076.257.379.379,0,0,1-.034.167.251.251,0,0,1-.1.107.272.272,0,0,1,.128.129.5.5,0,0,1,.045.223.479.479,0,0,1-.087.3.26.26,0,0,1-.432,0,.574.574,0,0,1-.041-.529A.241.241,0,0,1,67.937,104.576Zm-.059.348a.338.338,0,0,0,.055.2.154.154,0,0,0,.265,0,.334.334,0,0,0,.054-.2.341.341,0,0,0-.055-.2.165.165,0,0,0-.134-.077.156.156,0,0,0-.131.077A.334.334,0,0,0,67.878,104.924Zm.037-.633a.269.269,0,0,0,.044.161.125.125,0,0,0,.212,0,.252.252,0,0,0,.044-.153.257.257,0,0,0-.045-.156.122.122,0,0,0-.211,0A.243.243,0,0,0,67.915,104.291Z"/><path class="cls-3" d="M70.112,98.44H70V97.37a.637.637,0,0,1-.1.114.708.708,0,0,1-.121.089V97.41a.735.735,0,0,0,.165-.16.621.621,0,0,0,.1-.183h.073Z"/><path class="cls-3" d="M70.4,98.082l.119-.015a.4.4,0,0,0,.062.2.141.141,0,0,0,.113.064.167.167,0,0,0,.139-.091.446.446,0,0,0,.058-.245.4.4,0,0,0-.056-.228.167.167,0,0,0-.142-.082.151.151,0,0,0-.1.036.244.244,0,0,0-.071.1l-.106-.021.089-.7h.458v.16H70.6l-.049.369a.239.239,0,0,1,.174-.086.243.243,0,0,1,.2.12.543.543,0,0,1,.085.323.66.66,0,0,1-.085.344.258.258,0,0,1-.229.144.253.253,0,0,1-.2-.1A.484.484,0,0,1,70.4,98.082Z"/><path class="cls-3" d="M69.686,100.371l.113-.022c.023.18.083.269.179.269a.165.165,0,0,0,.134-.08.347.347,0,0,0,.057-.207.328.328,0,0,0-.052-.192.155.155,0,0,0-.128-.074.239.239,0,0,0-.08.019l.013-.147.018,0a.168.168,0,0,0,.136-.063.291.291,0,0,0,.008-.32.129.129,0,0,0-.106-.059.134.134,0,0,0-.111.062.385.385,0,0,0-.057.185l-.112-.03a.5.5,0,0,1,.1-.265.228.228,0,0,1,.372.012.4.4,0,0,1,.078.253.392.392,0,0,1-.033.165.273.273,0,0,1-.093.113.2.2,0,0,1,.091.061.335.335,0,0,1,.058.115.538.538,0,0,1,.022.16.492.492,0,0,1-.091.308.269.269,0,0,1-.218.12.245.245,0,0,1-.2-.105A.494.494,0,0,1,69.686,100.371Z"/><path class="cls-3" d="M71,100.572v.161h-.609a.519.519,0,0,1,.049-.22,1.222,1.222,0,0,1,.186-.286,1.568,1.568,0,0,0,.208-.3.459.459,0,0,0,.049-.2.275.275,0,0,0-.05-.17.153.153,0,0,0-.124-.067.156.156,0,0,0-.13.072.357.357,0,0,0-.05.2l-.117-.018a.527.527,0,0,1,.092-.3.255.255,0,0,1,.209-.1.236.236,0,0,1,.213.116.488.488,0,0,1,.073.263.572.572,0,0,1-.057.25,1.818,1.818,0,0,1-.216.32c-.067.084-.111.142-.13.172a.507.507,0,0,0-.048.092Z"/><path class="cls-3" d="M69.686,102.667l.119-.015a.393.393,0,0,0,.062.195.143.143,0,0,0,.113.064.167.167,0,0,0,.139-.091.444.444,0,0,0,.058-.245.4.4,0,0,0-.056-.228.168.168,0,0,0-.141-.081.142.142,0,0,0-.1.036.225.225,0,0,0-.071.1l-.107-.02.09-.7h.457v.161h-.367l-.05.368a.224.224,0,0,1,.375.034.545.545,0,0,1,.086.323.658.658,0,0,1-.086.344.257.257,0,0,1-.229.144.252.252,0,0,1-.2-.1A.49.49,0,0,1,69.686,102.667Z"/><path class="cls-3" d="M71,102.864v.161h-.609a.518.518,0,0,1,.049-.219,1.224,1.224,0,0,1,.186-.287,1.568,1.568,0,0,0,.208-.3.459.459,0,0,0,.049-.195.278.278,0,0,0-.05-.171.151.151,0,0,0-.254.006.353.353,0,0,0-.05.2l-.117-.018a.524.524,0,0,1,.092-.3.252.252,0,0,1,.209-.1.236.236,0,0,1,.213.116.486.486,0,0,1,.073.263.575.575,0,0,1-.057.25,1.856,1.856,0,0,1-.216.32c-.067.084-.111.141-.13.172a.5.5,0,0,0-.048.091Z"/><path class="cls-3" d="M72.752,98.44h-.113V97.37a.637.637,0,0,1-.1.114.708.708,0,0,1-.121.089V97.41a.735.735,0,0,0,.165-.16.621.621,0,0,0,.1-.183h.073Z"/><path class="cls-3" d="M73.638,98.279v.161h-.609a.527.527,0,0,1,.048-.219,1.213,1.213,0,0,1,.187-.287,1.6,1.6,0,0,0,.208-.3.479.479,0,0,0,.049-.2.275.275,0,0,0-.05-.17.152.152,0,0,0-.124-.066.155.155,0,0,0-.13.071.351.351,0,0,0-.05.2l-.117-.018a.523.523,0,0,1,.092-.3.254.254,0,0,1,.209-.1.235.235,0,0,1,.213.115.489.489,0,0,1,.073.264.575.575,0,0,1-.057.25,1.9,1.9,0,0,1-.216.32c-.067.084-.111.141-.13.172a.469.469,0,0,0-.048.091Z"/><path class="cls-3" d="M72.688,100.733v-.327h-.4v-.154l.42-.887H72.8v.887h.125v.154H72.8v.327Zm0-.481v-.618l-.287.618Z"/><path class="cls-3" d="M73.042,100.058a1.373,1.373,0,0,1,.076-.521.246.246,0,0,1,.225-.178.232.232,0,0,1,.208.145,1.247,1.247,0,0,1,.092.554,1.4,1.4,0,0,1-.076.521.229.229,0,0,1-.441.02A1.238,1.238,0,0,1,73.042,100.058Zm.115,0a1.229,1.229,0,0,0,.053.446c.035.077.08.114.135.114s.095-.038.129-.114a1.911,1.911,0,0,0,0-.894c-.035-.075-.08-.113-.136-.113s-.094.039-.129.116A1.264,1.264,0,0,0,73.157,100.058Z"/><path class="cls-3" d="M72.326,102.667l.119-.015a.393.393,0,0,0,.062.195.143.143,0,0,0,.113.064.167.167,0,0,0,.139-.091.444.444,0,0,0,.058-.245.4.4,0,0,0-.056-.228.168.168,0,0,0-.141-.081.146.146,0,0,0-.1.036.232.232,0,0,0-.07.1l-.107-.02.09-.7h.457v.161h-.368l-.049.368a.224.224,0,0,1,.375.034.545.545,0,0,1,.086.323.658.658,0,0,1-.086.344.257.257,0,0,1-.229.144.252.252,0,0,1-.2-.1A.49.49,0,0,1,72.326,102.667Z"/><path class="cls-3" d="M73.049,101.837v-.162h.6v.131a2.263,2.263,0,0,0-.235.549,2.788,2.788,0,0,0-.116.67h-.116a2.491,2.491,0,0,1,.045-.4,2.831,2.831,0,0,1,.116-.435,2.144,2.144,0,0,1,.16-.353Z"/><path class="cls-3" d="M74.966,98.078l.113-.022c.023.18.083.27.179.27a.165.165,0,0,0,.134-.08.351.351,0,0,0,.057-.207.331.331,0,0,0-.052-.193.156.156,0,0,0-.128-.073.217.217,0,0,0-.08.019l.013-.147h.018a.167.167,0,0,0,.136-.062.293.293,0,0,0,.008-.321.129.129,0,0,0-.106-.058.132.132,0,0,0-.111.062.37.37,0,0,0-.057.184l-.113-.029a.51.51,0,0,1,.1-.266.231.231,0,0,1,.182-.089.236.236,0,0,1,.19.1.4.4,0,0,1,.078.254.391.391,0,0,1-.033.164.267.267,0,0,1-.093.113.207.207,0,0,1,.091.061.335.335,0,0,1,.058.115.538.538,0,0,1,.022.16.488.488,0,0,1-.091.308.27.27,0,0,1-.219.121.247.247,0,0,1-.2-.105A.5.5,0,0,1,74.966,98.078Z"/><path class="cls-3" d="M76.278,98.279v.161h-.609a.527.527,0,0,1,.048-.219,1.213,1.213,0,0,1,.187-.287,1.536,1.536,0,0,0,.207-.3.463.463,0,0,0,.049-.2.274.274,0,0,0-.049-.17.152.152,0,0,0-.124-.066.155.155,0,0,0-.13.071.351.351,0,0,0-.05.2l-.117-.018a.523.523,0,0,1,.092-.3.254.254,0,0,1,.209-.1.236.236,0,0,1,.213.115.489.489,0,0,1,.072.264.588.588,0,0,1-.056.25,1.9,1.9,0,0,1-.216.32c-.067.084-.111.141-.13.172a.469.469,0,0,0-.048.091Z"/><path class="cls-3" d="M77.606,97.766a1.375,1.375,0,0,1,.076-.522.245.245,0,0,1,.225-.177.231.231,0,0,1,.208.144,1.252,1.252,0,0,1,.092.555,1.4,1.4,0,0,1-.076.52.229.229,0,0,1-.441.021A1.241,1.241,0,0,1,77.606,97.766Zm.115,0a1.233,1.233,0,0,0,.053.446q.052.114.135.114c.052,0,.095-.039.13-.115a1.268,1.268,0,0,0,.052-.445,1.242,1.242,0,0,0-.053-.448c-.035-.076-.08-.113-.136-.113s-.094.038-.129.115A1.267,1.267,0,0,0,77.721,97.766Z"/><path class="cls-3" d="M78.322,98.082l.118-.015a.386.386,0,0,0,.063.2.141.141,0,0,0,.113.064.167.167,0,0,0,.139-.091.455.455,0,0,0,.058-.245.4.4,0,0,0-.056-.228.167.167,0,0,0-.142-.082.151.151,0,0,0-.1.036.244.244,0,0,0-.071.1l-.107-.021.09-.7h.458v.16h-.368l-.049.369a.235.235,0,0,1,.174-.086.243.243,0,0,1,.2.12.543.543,0,0,1,.085.323.66.66,0,0,1-.085.344.259.259,0,0,1-.23.144.251.251,0,0,1-.2-.1A.47.47,0,0,1,78.322,98.082Z"/><path class="cls-3" d="M77.606,100.371l.113-.022c.023.18.083.269.178.269a.165.165,0,0,0,.135-.08.347.347,0,0,0,.057-.207.328.328,0,0,0-.052-.192.155.155,0,0,0-.128-.074.239.239,0,0,0-.08.019l.013-.147.018,0A.17.17,0,0,0,78,99.876a.246.246,0,0,0,.052-.166A.251.251,0,0,0,78,99.556.13.13,0,0,0,77.9,99.5a.134.134,0,0,0-.11.062.374.374,0,0,0-.057.185l-.113-.03a.51.51,0,0,1,.1-.265.232.232,0,0,1,.181-.09.235.235,0,0,1,.191.1.4.4,0,0,1,.078.253.392.392,0,0,1-.033.165.281.281,0,0,1-.093.113.2.2,0,0,1,.091.061.335.335,0,0,1,.058.115.538.538,0,0,1,.022.16.5.5,0,0,1-.091.308.269.269,0,0,1-.219.12.247.247,0,0,1-.2-.105A.5.5,0,0,1,77.606,100.371Z"/><path class="cls-3" d="M78.322,100.374l.118-.015a.386.386,0,0,0,.063.2.14.14,0,0,0,.113.063.166.166,0,0,0,.139-.09.457.457,0,0,0,.058-.246.394.394,0,0,0-.056-.227.167.167,0,0,0-.142-.082.151.151,0,0,0-.1.036.237.237,0,0,0-.071.1l-.107-.021.09-.7h.458v.16h-.368l-.049.368a.239.239,0,0,1,.174-.086.245.245,0,0,1,.2.12.548.548,0,0,1,.085.324.662.662,0,0,1-.085.344.258.258,0,0,1-.23.143.25.25,0,0,1-.2-.1A.471.471,0,0,1,78.322,100.374Z"/><path class="cls-3" d="M80.246,97.766a1.375,1.375,0,0,1,.076-.522.245.245,0,0,1,.225-.177.231.231,0,0,1,.208.144,1.252,1.252,0,0,1,.092.555,1.4,1.4,0,0,1-.076.52.229.229,0,0,1-.441.021A1.241,1.241,0,0,1,80.246,97.766Zm.115,0a1.233,1.233,0,0,0,.053.446q.052.114.135.114c.051,0,.095-.039.129-.115a1.907,1.907,0,0,0,0-.893c-.035-.076-.08-.113-.136-.113s-.094.038-.129.115A1.267,1.267,0,0,0,80.361,97.766Z"/><path class="cls-3" d="M80.969,97.251V97.09h.6v.131a2.208,2.208,0,0,0-.235.549,2.788,2.788,0,0,0-.116.67H81.1a2.282,2.282,0,0,1,.045-.4,2.813,2.813,0,0,1,.116-.436,2.1,2.1,0,0,1,.16-.353Z"/><path class="cls-3" d="M80.246,100.371l.112-.022c.024.18.084.269.179.269a.165.165,0,0,0,.135-.08.347.347,0,0,0,.056-.207.328.328,0,0,0-.051-.192.155.155,0,0,0-.128-.074.239.239,0,0,0-.08.019l.013-.147.018,0a.17.17,0,0,0,.136-.063.291.291,0,0,0,.008-.32.13.13,0,0,0-.107-.059.134.134,0,0,0-.11.062.374.374,0,0,0-.057.185l-.113-.03a.5.5,0,0,1,.1-.265.231.231,0,0,1,.181-.09.235.235,0,0,1,.191.1.4.4,0,0,1,.078.253.392.392,0,0,1-.033.165.289.289,0,0,1-.093.113.2.2,0,0,1,.091.061.335.335,0,0,1,.058.115.538.538,0,0,1,.022.16.5.5,0,0,1-.091.308.269.269,0,0,1-.219.12.247.247,0,0,1-.2-.105A.494.494,0,0,1,80.246,100.371Z"/><path class="cls-3" d="M81.548,99.7l-.113.013a.371.371,0,0,0-.047-.149.135.135,0,0,0-.109-.066c-.066,0-.118.051-.158.15a1.081,1.081,0,0,0-.052.381.335.335,0,0,1,.1-.136.2.2,0,0,1,.125-.046.23.23,0,0,1,.191.121.569.569,0,0,1,.082.322.7.7,0,0,1-.042.249.374.374,0,0,1-.1.165.219.219,0,0,1-.141.053.266.266,0,0,1-.231-.153,1.063,1.063,0,0,1-.09-.51,1.247,1.247,0,0,1,.093-.565.273.273,0,0,1,.237-.169.221.221,0,0,1,.176.087A.468.468,0,0,1,81.548,99.7Zm-.462.59a.431.431,0,0,0,.058.239.161.161,0,0,0,.133.09.144.144,0,0,0,.119-.085.439.439,0,0,0,.053-.233.413.413,0,0,0-.052-.226.152.152,0,0,0-.128-.08.159.159,0,0,0-.128.079A.384.384,0,0,0,81.086,100.289Z"/><path class="cls-3" d="M82.886,97.766a1.375,1.375,0,0,1,.076-.522.245.245,0,0,1,.225-.177.229.229,0,0,1,.207.144,1.236,1.236,0,0,1,.093.555,1.4,1.4,0,0,1-.076.52.229.229,0,0,1-.441.021A1.241,1.241,0,0,1,82.886,97.766Zm.115,0a1.233,1.233,0,0,0,.053.446q.052.114.135.114c.051,0,.1-.039.129-.115a1.907,1.907,0,0,0,0-.893c-.035-.076-.081-.113-.136-.113s-.094.038-.129.115A1.267,1.267,0,0,0,83,97.766Z"/><path class="cls-3" d="M83.6,98.082l.119-.015a.386.386,0,0,0,.063.2.141.141,0,0,0,.113.064.167.167,0,0,0,.138-.091.446.446,0,0,0,.058-.245.39.39,0,0,0-.056-.228.164.164,0,0,0-.141-.082.151.151,0,0,0-.1.036.235.235,0,0,0-.071.1l-.107-.021.09-.7h.457v.16H83.8l-.05.369a.239.239,0,0,1,.175-.086.243.243,0,0,1,.2.12.543.543,0,0,1,.085.323.66.66,0,0,1-.085.344.259.259,0,0,1-.23.144.255.255,0,0,1-.2-.1A.484.484,0,0,1,83.6,98.082Z"/><path class="cls-3" d="M82.886,100.371l.112-.022c.024.18.084.269.179.269a.165.165,0,0,0,.135-.08.347.347,0,0,0,.056-.207.321.321,0,0,0-.052-.192.152.152,0,0,0-.127-.074.239.239,0,0,0-.08.019l.013-.147.018,0a.17.17,0,0,0,.136-.063.291.291,0,0,0,.008-.32.13.13,0,0,0-.107-.059.134.134,0,0,0-.11.062.374.374,0,0,0-.057.185l-.113-.03a.5.5,0,0,1,.1-.265.228.228,0,0,1,.371.012.394.394,0,0,1,.078.253.408.408,0,0,1-.032.165.289.289,0,0,1-.093.113.2.2,0,0,1,.091.061.353.353,0,0,1,.058.115.573.573,0,0,1,.022.16.5.5,0,0,1-.091.308.269.269,0,0,1-.219.12.247.247,0,0,1-.2-.105A.494.494,0,0,1,82.886,100.371Z"/><path class="cls-3" d="M83.964,100.733v-.327h-.4v-.154l.419-.887h.093v.887H84.2v.154h-.125v.327Zm0-.481v-.618l-.288.618Z"/><path class="cls-3" d="M85.526,97.766a1.375,1.375,0,0,1,.076-.522.245.245,0,0,1,.225-.177.23.23,0,0,1,.207.144,1.236,1.236,0,0,1,.093.555,1.371,1.371,0,0,1-.077.52.229.229,0,0,1-.44.021A1.241,1.241,0,0,1,85.526,97.766Zm.115,0a1.233,1.233,0,0,0,.053.446q.052.114.135.114c.051,0,.094-.039.129-.115a1.907,1.907,0,0,0,0-.893c-.035-.076-.081-.113-.136-.113s-.094.038-.129.115A1.267,1.267,0,0,0,85.641,97.766Z"/><path class="cls-3" d="M86.6,98.44v-.327h-.4v-.154l.42-.887h.093v.887h.125v.154h-.125v.327Zm0-.481v-.617l-.288.617Z"/><path class="cls-3" d="M85.526,100.371l.112-.022c.024.18.083.269.179.269a.165.165,0,0,0,.135-.08.347.347,0,0,0,.056-.207.321.321,0,0,0-.052-.192.152.152,0,0,0-.128-.074.235.235,0,0,0-.079.019l.013-.147.017,0a.167.167,0,0,0,.136-.063.247.247,0,0,0,.053-.166.251.251,0,0,0-.044-.154.13.13,0,0,0-.107-.059.134.134,0,0,0-.11.062.374.374,0,0,0-.057.185l-.113-.03a.5.5,0,0,1,.1-.265.228.228,0,0,1,.371.012.441.441,0,0,1,.045.418.279.279,0,0,1-.092.113.2.2,0,0,1,.091.061.353.353,0,0,1,.058.115.573.573,0,0,1,.022.16.5.5,0,0,1-.091.308.269.269,0,0,1-.219.12.246.246,0,0,1-.2-.105A.494.494,0,0,1,85.526,100.371Z"/><path class="cls-3" d="M86.837,100.572v.161h-.609a.551.551,0,0,1,.049-.22,1.231,1.231,0,0,1,.187-.286,1.552,1.552,0,0,0,.207-.3.459.459,0,0,0,.049-.2.268.268,0,0,0-.05-.17.151.151,0,0,0-.124-.067.154.154,0,0,0-.129.072.349.349,0,0,0-.051.2l-.116-.018a.527.527,0,0,1,.091-.3.256.256,0,0,1,.209-.1.238.238,0,0,1,.214.116.488.488,0,0,1,.072.263.572.572,0,0,1-.057.25,1.8,1.8,0,0,1-.215.32c-.068.084-.111.142-.131.172a.675.675,0,0,0-.048.092Z"/><path class="cls-3" d="M88.165,97.766a1.372,1.372,0,0,1,.077-.522.244.244,0,0,1,.225-.177.23.23,0,0,1,.207.144,1.252,1.252,0,0,1,.092.555,1.374,1.374,0,0,1-.076.52.229.229,0,0,1-.44.021A1.223,1.223,0,0,1,88.165,97.766Zm.116,0a1.233,1.233,0,0,0,.053.446q.052.114.135.114c.051,0,.094-.039.129-.115a1.943,1.943,0,0,0,0-.893c-.035-.076-.081-.113-.136-.113s-.095.038-.129.115A1.267,1.267,0,0,0,88.281,97.766Z"/><path class="cls-3" d="M89.477,98.279v.161h-.609a.546.546,0,0,1,.049-.219,1.213,1.213,0,0,1,.187-.287,1.635,1.635,0,0,0,.207-.3.463.463,0,0,0,.049-.2.268.268,0,0,0-.05-.17.151.151,0,0,0-.253,0,.351.351,0,0,0-.051.2l-.116-.018a.531.531,0,0,1,.091-.3.255.255,0,0,1,.209-.1.237.237,0,0,1,.214.115.489.489,0,0,1,.072.264.575.575,0,0,1-.057.25,1.877,1.877,0,0,1-.215.32c-.068.084-.111.141-.131.172a.531.531,0,0,0-.048.091Z"/><path class="cls-3" d="M88.591,100.733h-.113v-1.07a.673.673,0,0,1-.1.114.724.724,0,0,1-.121.089V99.7a.735.735,0,0,0,.165-.16.615.615,0,0,0,.1-.184h.073Z"/><path class="cls-3" d="M88.889,99.544v-.161h.595v.131a2.193,2.193,0,0,0-.234.549,2.742,2.742,0,0,0-.117.67h-.115a2.381,2.381,0,0,1,.044-.4,2.951,2.951,0,0,1,.117-.435,2.1,2.1,0,0,1,.16-.353Z"/><path class="cls-3" d="M88.165,102.664l.113-.023c.024.18.083.27.179.27a.163.163,0,0,0,.134-.08.351.351,0,0,0,.057-.207.319.319,0,0,0-.052-.192.154.154,0,0,0-.128-.074.221.221,0,0,0-.08.019l.014-.147.017,0a.167.167,0,0,0,.136-.063.25.25,0,0,0,.053-.167.255.255,0,0,0-.044-.154.132.132,0,0,0-.107-.058.134.134,0,0,0-.11.062.37.37,0,0,0-.057.184l-.113-.029a.49.49,0,0,1,.1-.265.231.231,0,0,1,.181-.09.233.233,0,0,1,.19.1.4.4,0,0,1,.078.254.4.4,0,0,1-.033.165.286.286,0,0,1-.092.113.2.2,0,0,1,.09.06.326.326,0,0,1,.058.115.544.544,0,0,1,.023.161.493.493,0,0,1-.092.308.269.269,0,0,1-.218.12.246.246,0,0,1-.2-.105A.494.494,0,0,1,88.165,102.664Z"/><path class="cls-3" d="M89.477,102.864v.161h-.609a.55.55,0,0,1,.049-.219,1.234,1.234,0,0,1,.187-.287,1.6,1.6,0,0,0,.207-.3.459.459,0,0,0,.049-.195.271.271,0,0,0-.05-.171.151.151,0,0,0-.253.006.345.345,0,0,0-.051.2l-.116-.018a.524.524,0,0,1,.091-.3.254.254,0,0,1,.209-.1.238.238,0,0,1,.214.116.485.485,0,0,1,.072.263.575.575,0,0,1-.057.25,1.838,1.838,0,0,1-.215.32c-.068.084-.111.141-.131.172a.571.571,0,0,0-.048.091Z"/><path class="cls-3" d="M88.528,105.318v-.327h-.4v-.154l.42-.887h.092v.887h.125v.154h-.125v.327Zm0-.481v-.617l-.288.617Z"/><path class="cls-3" d="M89.056,104.576a.253.253,0,0,1-.1-.107.387.387,0,0,1-.034-.173.41.41,0,0,1,.075-.254.233.233,0,0,1,.38,0,.415.415,0,0,1,.076.257.366.366,0,0,1-.034.167.24.24,0,0,1-.1.107.274.274,0,0,1,.129.129.512.512,0,0,1,.044.223.485.485,0,0,1-.086.3.261.261,0,0,1-.433,0,.569.569,0,0,1-.04-.529A.235.235,0,0,1,89.056,104.576Zm-.059.348a.345.345,0,0,0,.055.2.154.154,0,0,0,.265,0,.327.327,0,0,0,.055-.2.341.341,0,0,0-.056-.2.165.165,0,0,0-.134-.077.158.158,0,0,0-.131.077A.334.334,0,0,0,89,104.924Zm.038-.633a.269.269,0,0,0,.043.161.125.125,0,0,0,.212,0,.246.246,0,0,0,.044-.153.257.257,0,0,0-.045-.156.122.122,0,0,0-.211,0A.242.242,0,0,0,89.035,104.291Z"/><path class="cls-3" d="M90.805,97.766a1.372,1.372,0,0,1,.077-.522.244.244,0,0,1,.225-.177.23.23,0,0,1,.207.144,1.252,1.252,0,0,1,.092.555,1.374,1.374,0,0,1-.076.52.244.244,0,0,1-.225.178.247.247,0,0,1-.216-.157A1.241,1.241,0,0,1,90.805,97.766Zm.116,0a1.233,1.233,0,0,0,.053.446q.052.114.135.114c.051,0,.094-.039.129-.115a1.943,1.943,0,0,0,0-.893c-.035-.076-.081-.113-.137-.113s-.094.038-.128.115A1.243,1.243,0,0,0,90.921,97.766Z"/><path class="cls-3" d="M91.884,98.44v-.327h-.4v-.154l.42-.887H92v.887h.125v.154H92v.327Zm0-.481v-.617l-.288.617Z"/><path class="cls-3" d="M91.4,100.572v.161h-.609a.551.551,0,0,1,.049-.22,1.231,1.231,0,0,1,.187-.286,1.552,1.552,0,0,0,.207-.3.459.459,0,0,0,.049-.2.268.268,0,0,0-.05-.17.151.151,0,0,0-.123-.067.154.154,0,0,0-.13.072.349.349,0,0,0-.051.2l-.116-.018a.519.519,0,0,1,.092-.3.253.253,0,0,1,.208-.1.238.238,0,0,1,.214.116.488.488,0,0,1,.072.263.572.572,0,0,1-.057.25,1.8,1.8,0,0,1-.215.32c-.067.084-.111.142-.131.172a.675.675,0,0,0-.048.092Z"/><path class="cls-3" d="M91.521,100.058a1.393,1.393,0,0,1,.076-.521.246.246,0,0,1,.225-.178.232.232,0,0,1,.208.145,1.247,1.247,0,0,1,.092.554,1.377,1.377,0,0,1-.076.521.229.229,0,0,1-.441.02A1.238,1.238,0,0,1,91.521,100.058Zm.116,0a1.207,1.207,0,0,0,.053.446c.034.077.08.114.134.114s.095-.038.13-.114a1.947,1.947,0,0,0,0-.894c-.036-.075-.081-.113-.137-.113s-.094.039-.128.116A1.24,1.24,0,0,0,91.637,100.058Z"/><path class="cls-3" d="M90.852,101.893a.275.275,0,0,1,.063-.183.186.186,0,0,1,.3,0,.274.274,0,0,1,.062.183.28.28,0,0,1-.062.183.187.187,0,0,1-.3,0A.278.278,0,0,1,90.852,101.893Zm.084,0a.165.165,0,0,0,.038.111.112.112,0,0,0,.182,0,.17.17,0,0,0,.038-.111.173.173,0,0,0-.038-.112.113.113,0,0,0-.182,0A.167.167,0,0,0,90.936,101.893Z"/><path class="cls-3" d="M91.433,102.664l.113-.023c.023.18.083.27.178.27a.165.165,0,0,0,.135-.08.351.351,0,0,0,.056-.207.326.326,0,0,0-.051-.192.155.155,0,0,0-.128-.074.217.217,0,0,0-.08.019l.013-.147.018,0a.17.17,0,0,0,.136-.063.293.293,0,0,0,.008-.321.132.132,0,0,0-.107-.058.134.134,0,0,0-.11.062.37.37,0,0,0-.057.184l-.113-.029a.506.506,0,0,1,.1-.265.232.232,0,0,1,.181-.09.237.237,0,0,1,.191.1.4.4,0,0,1,.078.254.4.4,0,0,1-.033.165.288.288,0,0,1-.093.113.2.2,0,0,1,.091.06.344.344,0,0,1,.058.115.545.545,0,0,1,.022.161.5.5,0,0,1-.091.308.272.272,0,0,1-.219.12.247.247,0,0,1-.2-.105A.494.494,0,0,1,91.433,102.664Z"/><path class="cls-3" d="M92.735,101.992l-.113.013a.361.361,0,0,0-.047-.15.132.132,0,0,0-.109-.065c-.066,0-.118.05-.158.15a1.079,1.079,0,0,0-.052.38.342.342,0,0,1,.1-.136.2.2,0,0,1,.125-.045.231.231,0,0,1,.191.12.572.572,0,0,1,.082.323.7.7,0,0,1-.042.249.38.38,0,0,1-.1.165.219.219,0,0,1-.141.053.265.265,0,0,1-.23-.153,1.051,1.051,0,0,1-.091-.51,1.252,1.252,0,0,1,.093-.566.274.274,0,0,1,.237-.168.221.221,0,0,1,.176.087A.462.462,0,0,1,92.735,101.992Zm-.461.59a.439.439,0,0,0,.057.238.163.163,0,0,0,.133.091.149.149,0,0,0,.12-.085.454.454,0,0,0,.052-.233.413.413,0,0,0-.052-.226.15.15,0,0,0-.127-.081.158.158,0,0,0-.129.08A.384.384,0,0,0,92.274,102.582Z"/><path class="cls-3" d="M90.805,104.96l.119-.015a.386.386,0,0,0,.063.2.14.14,0,0,0,.113.063.166.166,0,0,0,.138-.09.448.448,0,0,0,.058-.246.389.389,0,0,0-.056-.227.164.164,0,0,0-.141-.082.151.151,0,0,0-.1.036.235.235,0,0,0-.071.1l-.107-.021.09-.7h.457v.16h-.367l-.05.369a.239.239,0,0,1,.175-.086.243.243,0,0,1,.2.12.543.543,0,0,1,.085.323.66.66,0,0,1-.085.344.258.258,0,0,1-.23.143.254.254,0,0,1-.2-.1A.484.484,0,0,1,90.805,104.96Z"/><path class="cls-3" d="M92.107,104.284,92,104.3a.374.374,0,0,0-.048-.15.131.131,0,0,0-.108-.065c-.066,0-.119.05-.158.149a1.081,1.081,0,0,0-.053.381.336.336,0,0,1,.1-.136.2.2,0,0,1,.124-.046.231.231,0,0,1,.191.121.562.562,0,0,1,.082.323.731.731,0,0,1-.041.249.38.38,0,0,1-.105.165.219.219,0,0,1-.142.052.265.265,0,0,1-.23-.153,1.06,1.06,0,0,1-.09-.51,1.264,1.264,0,0,1,.092-.565.272.272,0,0,1,.238-.168.218.218,0,0,1,.175.087A.453.453,0,0,1,92.107,104.284Zm-.461.591a.439.439,0,0,0,.057.238.163.163,0,0,0,.134.09.146.146,0,0,0,.119-.085.439.439,0,0,0,.053-.233.409.409,0,0,0-.053-.225.149.149,0,0,0-.127-.081.155.155,0,0,0-.128.08A.374.374,0,0,0,91.646,104.875Z"/><path class="cls-3" d="M96.085,97.766a1.372,1.372,0,0,1,.077-.522.243.243,0,0,1,.224-.177.231.231,0,0,1,.208.144,1.252,1.252,0,0,1,.092.555,1.374,1.374,0,0,1-.076.52.229.229,0,0,1-.441.021A1.241,1.241,0,0,1,96.085,97.766Zm.116,0a1.233,1.233,0,0,0,.053.446c.034.076.08.114.134.114s.095-.039.13-.115a1.943,1.943,0,0,0,0-.893c-.036-.076-.081-.113-.137-.113s-.094.038-.128.115A1.243,1.243,0,0,0,96.2,97.766Z"/><path class="cls-3" d="M96.8,98.082l.119-.015a.4.4,0,0,0,.062.2.143.143,0,0,0,.113.064.167.167,0,0,0,.139-.091.446.446,0,0,0,.058-.245.4.4,0,0,0-.056-.228.167.167,0,0,0-.142-.082.151.151,0,0,0-.1.036.233.233,0,0,0-.07.1l-.107-.021.089-.7h.458v.16H97l-.049.369a.239.239,0,0,1,.174-.086.243.243,0,0,1,.2.12.543.543,0,0,1,.086.323.66.66,0,0,1-.086.344.258.258,0,0,1-.229.144.253.253,0,0,1-.2-.1A.484.484,0,0,1,96.8,98.082Z"/><path class="cls-3" d="M96.681,100.572v.161h-.609a.551.551,0,0,1,.049-.22,1.231,1.231,0,0,1,.187-.286,1.6,1.6,0,0,0,.207-.3.459.459,0,0,0,.049-.2.268.268,0,0,0-.05-.17.15.15,0,0,0-.253.005.349.349,0,0,0-.051.2l-.116-.018a.527.527,0,0,1,.091-.3.256.256,0,0,1,.209-.1.238.238,0,0,1,.214.116.488.488,0,0,1,.072.263.572.572,0,0,1-.057.25,1.8,1.8,0,0,1-.215.32c-.068.084-.111.142-.131.172a.579.579,0,0,0-.048.092Z"/><path class="cls-3" d="M97.227,100.733h-.114v-1.07a.625.625,0,0,1-.1.114.767.767,0,0,1-.121.089V99.7a.735.735,0,0,0,.165-.16.61.61,0,0,0,.1-.184h.074Z"/><path class="cls-3" d="M96.085,102.664l.113-.023c.023.18.083.27.179.27a.165.165,0,0,0,.134-.08.351.351,0,0,0,.057-.207.326.326,0,0,0-.052-.192.155.155,0,0,0-.128-.074.217.217,0,0,0-.08.019l.013-.147.018,0a.168.168,0,0,0,.136-.063.293.293,0,0,0,.008-.321.13.13,0,0,0-.106-.058.133.133,0,0,0-.11.062.37.37,0,0,0-.057.184l-.113-.029a.5.5,0,0,1,.1-.265.229.229,0,0,1,.372.011.4.4,0,0,1,.078.254.4.4,0,0,1-.033.165.28.28,0,0,1-.093.113.2.2,0,0,1,.091.06.344.344,0,0,1,.058.115.545.545,0,0,1,.022.161.492.492,0,0,1-.091.308.271.271,0,0,1-.218.12.245.245,0,0,1-.2-.105A.494.494,0,0,1,96.085,102.664Z"/><path class="cls-3" d="M96.809,101.837v-.162H97.4v.131a2.226,2.226,0,0,0-.234.549,2.742,2.742,0,0,0-.117.67h-.115a2.37,2.37,0,0,1,.044-.4,2.723,2.723,0,0,1,.117-.435,2.066,2.066,0,0,1,.159-.353Z"/><path class="cls-3" d="M96.085,104.96l.119-.015a.386.386,0,0,0,.063.2.14.14,0,0,0,.112.063.166.166,0,0,0,.139-.09.448.448,0,0,0,.058-.246.389.389,0,0,0-.056-.227.167.167,0,0,0-.141-.082.149.149,0,0,0-.1.036.235.235,0,0,0-.071.1l-.107-.021.09-.7h.457v.16h-.367l-.05.369a.239.239,0,0,1,.174-.086.243.243,0,0,1,.2.12.543.543,0,0,1,.086.323.66.66,0,0,1-.086.344.256.256,0,0,1-.229.143.252.252,0,0,1-.2-.1A.484.484,0,0,1,96.085,104.96Z"/><path class="cls-3" d="M96.8,104.956l.113-.022c.023.18.083.269.179.269a.163.163,0,0,0,.134-.079.351.351,0,0,0,.057-.207.331.331,0,0,0-.052-.193.156.156,0,0,0-.128-.073.234.234,0,0,0-.08.018l.013-.146h.018a.167.167,0,0,0,.136-.062.251.251,0,0,0,.052-.167.245.245,0,0,0-.044-.154.129.129,0,0,0-.106-.058.133.133,0,0,0-.111.061.378.378,0,0,0-.057.185l-.113-.03a.51.51,0,0,1,.1-.265.231.231,0,0,1,.182-.089.235.235,0,0,1,.19.1.4.4,0,0,1,.078.253.392.392,0,0,1-.033.165.273.273,0,0,1-.093.113.207.207,0,0,1,.091.061.335.335,0,0,1,.058.115.538.538,0,0,1,.022.16.488.488,0,0,1-.091.308.269.269,0,0,1-.219.12.249.249,0,0,1-.2-.1A.5.5,0,0,1,96.8,104.956Z"/><path class="cls-3" d="M61.959,98.078l.113-.022c.023.18.083.27.179.27a.165.165,0,0,0,.134-.08.351.351,0,0,0,.057-.207.331.331,0,0,0-.052-.193.156.156,0,0,0-.128-.073.217.217,0,0,0-.08.019l.013-.147h.018a.167.167,0,0,0,.136-.062.249.249,0,0,0,.052-.167.245.245,0,0,0-.044-.154.128.128,0,0,0-.106-.058.132.132,0,0,0-.111.062.37.37,0,0,0-.057.184l-.112-.029a.5.5,0,0,1,.1-.266.231.231,0,0,1,.182-.089.235.235,0,0,1,.19.1.4.4,0,0,1,.078.254.391.391,0,0,1-.033.164.267.267,0,0,1-.093.113.207.207,0,0,1,.091.061.335.335,0,0,1,.058.115.538.538,0,0,1,.022.16.488.488,0,0,1-.091.308.27.27,0,0,1-.218.121.248.248,0,0,1-.2-.105A.5.5,0,0,1,61.959,98.078Z"/><path class="cls-3" d="M63.271,98.279v.161h-.609a.515.515,0,0,1,.049-.219,1.2,1.2,0,0,1,.186-.287,1.6,1.6,0,0,0,.208-.3.463.463,0,0,0,.049-.2.275.275,0,0,0-.05-.17.152.152,0,0,0-.124-.066.155.155,0,0,0-.13.071.359.359,0,0,0-.05.2l-.117-.018a.53.53,0,0,1,.092-.3.254.254,0,0,1,.209-.1.235.235,0,0,1,.213.115.489.489,0,0,1,.073.264.575.575,0,0,1-.057.25,1.9,1.9,0,0,1-.216.32c-.067.084-.111.141-.13.172a.469.469,0,0,0-.048.091Z"/><path class="cls-3" d="M99.385,97.766a1.375,1.375,0,0,1,.076-.522.245.245,0,0,1,.225-.177.231.231,0,0,1,.208.144,1.252,1.252,0,0,1,.092.555,1.374,1.374,0,0,1-.076.52.229.229,0,0,1-.441.021A1.241,1.241,0,0,1,99.385,97.766Zm.116,0a1.21,1.21,0,0,0,.053.446c.034.076.079.114.134.114s.095-.039.13-.115a1.943,1.943,0,0,0,0-.893c-.036-.076-.081-.113-.137-.113s-.094.038-.128.115A1.243,1.243,0,0,0,99.5,97.766Z"/><path class="cls-3" d="M100.1,98.082l.119-.015a.4.4,0,0,0,.062.2.141.141,0,0,0,.113.064.167.167,0,0,0,.139-.091.446.446,0,0,0,.058-.245.4.4,0,0,0-.056-.228.167.167,0,0,0-.142-.082.151.151,0,0,0-.1.036.244.244,0,0,0-.071.1l-.106-.021.089-.7h.458v.16H100.3l-.049.369a.239.239,0,0,1,.174-.086.243.243,0,0,1,.2.12.543.543,0,0,1,.085.323.66.66,0,0,1-.085.344.258.258,0,0,1-.229.144.253.253,0,0,1-.2-.1A.477.477,0,0,1,100.1,98.082Z"/><path class="cls-3" d="M99.385,100.371l.113-.022c.023.18.083.269.179.269a.165.165,0,0,0,.134-.08.347.347,0,0,0,.057-.207.328.328,0,0,0-.052-.192.155.155,0,0,0-.128-.074.239.239,0,0,0-.08.019l.013-.147.018,0a.168.168,0,0,0,.136-.063.291.291,0,0,0,.008-.32.129.129,0,0,0-.106-.059.134.134,0,0,0-.111.062.374.374,0,0,0-.057.185l-.112-.03a.5.5,0,0,1,.1-.265.228.228,0,0,1,.372.012.4.4,0,0,1,.078.253.392.392,0,0,1-.033.165.273.273,0,0,1-.093.113.2.2,0,0,1,.091.061.335.335,0,0,1,.058.115.538.538,0,0,1,.022.16.492.492,0,0,1-.091.308.269.269,0,0,1-.218.12.248.248,0,0,1-.2-.105A.5.5,0,0,1,99.385,100.371Z"/><path class="cls-3" d="M100.1,100.374l.119-.015a.4.4,0,0,0,.062.2.14.14,0,0,0,.113.063.166.166,0,0,0,.139-.09.448.448,0,0,0,.058-.246.394.394,0,0,0-.056-.227.167.167,0,0,0-.142-.082.151.151,0,0,0-.1.036.237.237,0,0,0-.071.1l-.106-.021.089-.7h.458v.16H100.3l-.049.368a.242.242,0,0,1,.174-.086.245.245,0,0,1,.2.12.548.548,0,0,1,.085.324.662.662,0,0,1-.085.344.257.257,0,0,1-.229.143.252.252,0,0,1-.2-.1A.478.478,0,0,1,100.1,100.374Z"/><path class="cls-3" d="M102.025,97.766a1.375,1.375,0,0,1,.076-.522.245.245,0,0,1,.225-.177.231.231,0,0,1,.208.144,1.252,1.252,0,0,1,.092.555,1.4,1.4,0,0,1-.076.52.229.229,0,0,1-.441.021A1.241,1.241,0,0,1,102.025,97.766Zm.116,0a1.239,1.239,0,0,0,.052.446q.052.114.135.114c.052,0,.095-.039.13-.115a1.244,1.244,0,0,0,.052-.445,1.219,1.219,0,0,0-.053-.448c-.035-.076-.08-.113-.136-.113s-.094.038-.128.115A1.243,1.243,0,0,0,102.141,97.766Z"/><path class="cls-3" d="M102.748,97.251V97.09h.6v.131a2.246,2.246,0,0,0-.235.549,2.788,2.788,0,0,0-.116.67h-.116a2.491,2.491,0,0,1,.045-.4,2.813,2.813,0,0,1,.116-.436,2.183,2.183,0,0,1,.16-.353Z"/><path class="cls-3" d="M102.025,100.371l.113-.022c.023.18.083.269.179.269a.165.165,0,0,0,.134-.08.347.347,0,0,0,.057-.207.328.328,0,0,0-.052-.192.155.155,0,0,0-.128-.074.239.239,0,0,0-.08.019l.013-.147.018,0a.168.168,0,0,0,.136-.063.291.291,0,0,0,.008-.32.13.13,0,0,0-.106-.059.134.134,0,0,0-.111.062.374.374,0,0,0-.057.185l-.112-.03a.5.5,0,0,1,.1-.265.228.228,0,0,1,.372.012.4.4,0,0,1,.078.253.392.392,0,0,1-.033.165.273.273,0,0,1-.093.113.2.2,0,0,1,.091.061.335.335,0,0,1,.058.115.538.538,0,0,1,.022.16.492.492,0,0,1-.091.308.269.269,0,0,1-.218.12.248.248,0,0,1-.2-.105A.5.5,0,0,1,102.025,100.371Z"/><path class="cls-3" d="M103.327,99.7l-.113.013a.356.356,0,0,0-.047-.149.132.132,0,0,0-.109-.066c-.065,0-.118.051-.158.15a1.105,1.105,0,0,0-.052.381.344.344,0,0,1,.1-.136.2.2,0,0,1,.125-.046.23.23,0,0,1,.191.121.561.561,0,0,1,.082.322.722.722,0,0,1-.041.249.375.375,0,0,1-.106.165.219.219,0,0,1-.141.053.265.265,0,0,1-.23-.153,1.051,1.051,0,0,1-.09-.51,1.25,1.25,0,0,1,.092-.565.273.273,0,0,1,.237-.169.221.221,0,0,1,.176.087A.468.468,0,0,1,103.327,99.7Zm-.461.59a.44.44,0,0,0,.057.239.161.161,0,0,0,.133.09.146.146,0,0,0,.12-.085.44.44,0,0,0,.052-.233.413.413,0,0,0-.052-.226.151.151,0,0,0-.127-.08.159.159,0,0,0-.129.079A.384.384,0,0,0,102.866,100.289Z"/><path class="cls-3" d="M104.665,97.766a1.375,1.375,0,0,1,.076-.522.245.245,0,0,1,.225-.177.231.231,0,0,1,.208.144,1.252,1.252,0,0,1,.092.555,1.4,1.4,0,0,1-.076.52.229.229,0,0,1-.441.021A1.241,1.241,0,0,1,104.665,97.766Zm.116,0a1.239,1.239,0,0,0,.052.446q.052.114.135.114c.052,0,.095-.039.13-.115a1.268,1.268,0,0,0,.052-.445,1.242,1.242,0,0,0-.053-.448c-.035-.076-.08-.113-.136-.113s-.094.038-.129.115A1.274,1.274,0,0,0,104.781,97.766Z"/><path class="cls-3" d="M105.381,98.082l.118-.015a.4.4,0,0,0,.063.2.141.141,0,0,0,.113.064.167.167,0,0,0,.139-.091.455.455,0,0,0,.058-.245.4.4,0,0,0-.056-.228.167.167,0,0,0-.142-.082.151.151,0,0,0-.1.036.244.244,0,0,0-.071.1l-.106-.021.089-.7h.458v.16h-.368l-.049.369a.239.239,0,0,1,.174-.086.243.243,0,0,1,.2.12.543.543,0,0,1,.085.323.66.66,0,0,1-.085.344.259.259,0,0,1-.23.144.251.251,0,0,1-.2-.1A.477.477,0,0,1,105.381,98.082Z"/><path class="cls-3" d="M104.665,100.371l.113-.022c.023.18.083.269.178.269a.165.165,0,0,0,.135-.08.347.347,0,0,0,.057-.207.328.328,0,0,0-.052-.192.155.155,0,0,0-.128-.074.239.239,0,0,0-.08.019l.013-.147.018,0a.168.168,0,0,0,.136-.063.246.246,0,0,0,.052-.166.251.251,0,0,0-.044-.154.13.13,0,0,0-.107-.059.134.134,0,0,0-.11.062.374.374,0,0,0-.057.185l-.113-.03a.51.51,0,0,1,.1-.265.228.228,0,0,1,.372.012.4.4,0,0,1,.078.253.392.392,0,0,1-.033.165.273.273,0,0,1-.093.113.2.2,0,0,1,.091.061.335.335,0,0,1,.058.115.538.538,0,0,1,.022.16.492.492,0,0,1-.091.308.269.269,0,0,1-.219.12.247.247,0,0,1-.2-.105A.5.5,0,0,1,104.665,100.371Z"/><path class="cls-3" d="M105.743,100.733v-.327h-.4v-.154l.42-.887h.093v.887h.125v.154h-.125v.327Zm0-.481v-.618l-.288.618Z"/><path class="cls-3" d="M106.975,98.078l.113-.022c.023.18.083.27.178.27a.165.165,0,0,0,.135-.08.351.351,0,0,0,.057-.207.331.331,0,0,0-.052-.193.156.156,0,0,0-.128-.073.217.217,0,0,0-.08.019l.013-.147h.018a.169.169,0,0,0,.136-.062.293.293,0,0,0,.008-.321.129.129,0,0,0-.107-.058.131.131,0,0,0-.11.062.37.37,0,0,0-.057.184l-.113-.029a.51.51,0,0,1,.1-.266.231.231,0,0,1,.181-.089.237.237,0,0,1,.191.1.4.4,0,0,1,.078.254.391.391,0,0,1-.033.164.274.274,0,0,1-.093.113.207.207,0,0,1,.091.061.335.335,0,0,1,.058.115.538.538,0,0,1,.022.16.5.5,0,0,1-.091.308.27.27,0,0,1-.219.121.247.247,0,0,1-.2-.105A.5.5,0,0,1,106.975,98.078Z"/><path class="cls-3" d="M108.287,98.279v.161h-.609a.527.527,0,0,1,.048-.219,1.213,1.213,0,0,1,.187-.287,1.536,1.536,0,0,0,.207-.3.463.463,0,0,0,.049-.2.268.268,0,0,0-.05-.17.149.149,0,0,0-.123-.066.155.155,0,0,0-.13.071.351.351,0,0,0-.05.2l-.117-.018a.523.523,0,0,1,.092-.3.254.254,0,0,1,.209-.1.236.236,0,0,1,.213.115.489.489,0,0,1,.072.264.588.588,0,0,1-.056.25,1.9,1.9,0,0,1-.216.32c-.067.084-.111.141-.13.172a.469.469,0,0,0-.048.091Z"/><path class="cls-3" d="M94.2,98.746h-.113v-1.07a.673.673,0,0,1-.1.114.661.661,0,0,1-.121.088v-.163a.73.73,0,0,0,.165-.159.638.638,0,0,0,.1-.184H94.2Z"/><path class="cls-3" d="M95.087,98.584v.162h-.609a.534.534,0,0,1,.049-.22,1.255,1.255,0,0,1,.186-.286,1.6,1.6,0,0,0,.208-.3.459.459,0,0,0,.049-.195.273.273,0,0,0-.05-.17.153.153,0,0,0-.124-.067.15.15,0,0,0-.129.072.345.345,0,0,0-.051.2l-.117-.018a.527.527,0,0,1,.092-.3.254.254,0,0,1,.209-.1.236.236,0,0,1,.213.116.48.48,0,0,1,.073.263.575.575,0,0,1-.057.25,1.8,1.8,0,0,1-.215.32c-.068.084-.111.142-.131.172a.534.534,0,0,0-.048.091Z"/><path class="cls-3" d="M94.138,101.038v-.327h-.4v-.154l.42-.887h.093v.887h.125v.154h-.125v.327Zm0-.481V99.94l-.288.617Z"/><path class="cls-3" d="M94.491,100.364a1.379,1.379,0,0,1,.076-.522.245.245,0,0,1,.225-.177.231.231,0,0,1,.208.144,1.252,1.252,0,0,1,.092.555,1.374,1.374,0,0,1-.076.52.229.229,0,0,1-.441.021A1.241,1.241,0,0,1,94.491,100.364Zm.116,0a1.236,1.236,0,0,0,.052.446q.052.114.135.114c.052,0,.095-.039.13-.115a1.244,1.244,0,0,0,.052-.445,1.219,1.219,0,0,0-.053-.448c-.035-.075-.08-.113-.136-.113s-.094.038-.128.115A1.247,1.247,0,0,0,94.607,100.364Z"/><path class="cls-3" d="M93.775,102.973l.119-.016a.386.386,0,0,0,.063.2.14.14,0,0,0,.112.063.166.166,0,0,0,.139-.09.448.448,0,0,0,.058-.246.389.389,0,0,0-.056-.227.164.164,0,0,0-.141-.082.149.149,0,0,0-.1.036.229.229,0,0,0-.071.1l-.107-.021.09-.7h.457v.16h-.367l-.05.368a.242.242,0,0,1,.174-.086.248.248,0,0,1,.2.12.548.548,0,0,1,.085.324.662.662,0,0,1-.085.344.258.258,0,0,1-.23.143.252.252,0,0,1-.2-.1A.484.484,0,0,1,93.775,102.973Z"/><path class="cls-3" d="M94.5,102.142v-.161h.595v.131a2.193,2.193,0,0,0-.234.549,2.742,2.742,0,0,0-.117.67h-.115a2.36,2.36,0,0,1,.044-.4,2.707,2.707,0,0,1,.117-.436,2.1,2.1,0,0,1,.16-.353Z"/><path class="cls-3" d="M109.615,98.071a1.373,1.373,0,0,1,.076-.521.244.244,0,0,1,.225-.178.232.232,0,0,1,.208.145,1.247,1.247,0,0,1,.092.554,1.4,1.4,0,0,1-.076.521.229.229,0,0,1-.441.02A1.241,1.241,0,0,1,109.615,98.071Zm.115,0a1.229,1.229,0,0,0,.053.446q.052.114.135.114c.051,0,.095-.038.129-.115a1.907,1.907,0,0,0,0-.893c-.035-.075-.08-.113-.136-.113s-.094.039-.129.116A1.264,1.264,0,0,0,109.73,98.071Z"/><path class="cls-3" d="M110.338,97.557V97.4h.6v.13a2.217,2.217,0,0,0-.235.55,2.771,2.771,0,0,0-.116.67h-.116a2.292,2.292,0,0,1,.045-.4,2.831,2.831,0,0,1,.116-.435,2.064,2.064,0,0,1,.16-.353Z"/><path class="cls-3" d="M109.615,100.676l.112-.022c.024.18.084.27.179.27a.165.165,0,0,0,.135-.08.351.351,0,0,0,.056-.207.331.331,0,0,0-.051-.193.156.156,0,0,0-.128-.073.217.217,0,0,0-.08.019l.013-.147.018,0a.17.17,0,0,0,.136-.063.293.293,0,0,0,.008-.321.132.132,0,0,0-.107-.058.134.134,0,0,0-.11.062.37.37,0,0,0-.057.184l-.113-.029a.5.5,0,0,1,.1-.265.228.228,0,0,1,.181-.09.237.237,0,0,1,.191.1.4.4,0,0,1,.078.254.4.4,0,0,1-.033.165.286.286,0,0,1-.093.112.215.215,0,0,1,.091.061.344.344,0,0,1,.058.115.538.538,0,0,1,.022.16.5.5,0,0,1-.091.309.272.272,0,0,1-.219.12.247.247,0,0,1-.2-.105A.5.5,0,0,1,109.615,100.676Z"/><path class="cls-3" d="M110.917,100l-.113.014a.377.377,0,0,0-.047-.15.133.133,0,0,0-.109-.065c-.066,0-.118.05-.158.15a1.079,1.079,0,0,0-.052.38.335.335,0,0,1,.1-.136.2.2,0,0,1,.125-.046.232.232,0,0,1,.191.121.57.57,0,0,1,.082.323.7.7,0,0,1-.042.249.38.38,0,0,1-.1.165.219.219,0,0,1-.141.053.265.265,0,0,1-.231-.154,1.058,1.058,0,0,1-.09-.509,1.249,1.249,0,0,1,.093-.566.272.272,0,0,1,.237-.168.218.218,0,0,1,.176.087A.461.461,0,0,1,110.917,100Zm-.462.591a.43.43,0,0,0,.058.238.163.163,0,0,0,.133.091.146.146,0,0,0,.119-.085.444.444,0,0,0,.053-.233.413.413,0,0,0-.052-.226.151.151,0,0,0-.128-.081.158.158,0,0,0-.128.08A.382.382,0,0,0,110.455,100.6Z"/></svg>