<svg id="word" xmlns="http://www.w3.org/2000/svg" viewBox="0 0 160 160"><defs><style>.cls-1{fill:#ffdf39;}.cls-2{fill:#e6a434;}.cls-3{fill:#efe72e;opacity:0.19;}</style></defs><path class="cls-1" d="M18.711,66.784s9.586-3.2,11.038-8.133S22.778,51.1,22.778,51.1s8.133-.29,13.071-6.39-6.39-9.585-6.39-9.585,13.071,4.357,16.556-.291-2.033-11.909-2.033-11.909,7.843,8.424,13.361,5.228,3.486-8.133,3.486-8.133,5.229,6.681,11.038,5.229S77.676,17.4,77.676,17.4s2.614,7.262,6.1,7.262,6.1-9.586,6.1-9.586,3.195,11.91,9,12.781,9.586-6.971,9.586-6.971-2.033,11.618,3.776,12.78,9.585-5.809,9.585-5.809-5.809,12.2.291,14.523,9.876-.871,9.876-.871-6.681,8.424-2.905,11.619,13.943.581,13.943.581-11.038,7.261-7.843,11.909,10.747,3.195,10.747,3.195-11.909,6.1-7.842,11.909,7.261,5.229,7.261,5.229-9.876,3.485-10.166,9.3,8.424,6.971,8.424,6.971-12.2.871-12.781,5.228,4.938,8.424,4.938,8.424-12.781-4.067-14.233,2.905a9.531,9.531,0,0,0,3.776,10.166s-12.49-4.938-14.523-1.452,0,10.747,0,10.747-9.3-6.39-12.781-3.776-.871,8.714-.871,8.714-6.1-9.876-11.329-8.133-4.938,9.876-4.938,9.876-8.133-11.329-11.618-10.457-5.81,8.423-5.81,8.423-4.938-18.3-9.585-14.523a17.475,17.475,0,0,0-5.81,8.133s-.58-14.233-5.518-14.233S31.2,126.039,31.2,126.039s7.843-12.2,4.067-13.942-10.167-.145-10.167-.145,9.15-7.988,4.793-11.764-12.345-1.453-12.345-1.453S28.3,92.345,26.263,87.7s-12.2-5.228-12.2-5.228S25.392,75.788,25.682,72.3,18.711,66.784,18.711,66.784Z"/><ellipse class="cls-2" cx="80.286" cy="79.903" rx="53.742" ry="50.783"/><ellipse class="cls-3" cx="68.086" cy="53.761" rx="24.114" ry="19.413" transform="translate(-10.499 17.014) rotate(-13.234)"/><polygon class="cls-2" points="83.5 63.5 88.968 43.056 91.5 65.5 109.5 59.5 94.5 71.5 115.164 77.319 92.5 77.5 106.5 97.5 87.5 81.5 83.535 102.636 79.5 80.5 63.161 89.312 74.5 76.5 51.518 68.944 75.5 68.5 65.683 47.624 83.5 63.5"/></svg>