<svg id="word" xmlns="http://www.w3.org/2000/svg" viewBox="0 0 160 160"><defs><style>.cls-1{fill:#d49559;}.cls-1,.cls-2,.cls-3,.cls-4,.cls-5{stroke:#9d4b9c;stroke-miterlimit:10;stroke-width:1.351px;}.cls-2{fill:#f9ae68;}.cls-3{fill:#fff0aa;}.cls-4{fill:#ffd549;}.cls-5{fill:#ffd671;}.cls-6{fill:#9d4b9c;}</style></defs><path class="cls-1" d="M16.313,75.251a109.728,109.728,0,0,1-.156,12.163c-.468,5.434,1.542,11.051,5.413,11.627s25.153,2.706,31,5.4c14.622,6.744,32.457,5.512,32.457,5.512s8.464-5.441,8.6-6.388-.536-14.044-.536-14.044l-44.738-11.1Z"/><path class="cls-2" d="M144.581,57.37c-1.781-1.1-18.507-5.767-25.068-7.585s-27.783-3.637-32.954-3.7-10.6,3.095-10.6,3.095-.6.313-1.638.853c7.358,1.485,25.681,5.136,32.609,6.1,8.759,1.225,13.032,1.225,23.472,4.233s10.011,7.113,10.2,9c3.6-3.422,6.27-6.429,6.379-7.917C147.325,56.724,146.361,58.47,144.581,57.37Z"/><path class="cls-3" d="M117.3,84.937c0-3.282-2.271-4.575-10-6.594S78.32,72.19,68.271,71.318c-8.238-.715-21.81-3.709-26.437-4.766-3.777,1.846-7.032,3.387-9.183,4.306a37.5,37.5,0,0,0-4.081,2.055c4.306.834,13.6,2.443,20.627,2.315,9.454-.172,42.841,6.158,48.22,6.624s7.729.093,8.613,4.054a55.817,55.817,0,0,1,.755,9.681L117.3,88.406C117.3,87.5,117.3,86.33,117.3,84.937Z"/><path class="cls-2" d="M97.417,81.852c-5.379-.466-38.766-6.8-48.22-6.624-7.028.128-16.321-1.481-20.627-2.315-7.145,4.139,27.1,17.075,39.178,18.581s20.482,1.97,22.5,7.858L92.188,105l14.6-9.408a55.817,55.817,0,0,0-.755-9.681C105.146,81.945,102.8,82.318,97.417,81.852Z"/><path class="cls-4" d="M130.4,60.374c-10.44-3.008-14.713-3.008-23.472-4.233-6.928-.969-25.251-4.62-32.609-6.1-3.063,1.594-10.057,5.22-17.619,9.07,4.453,1.571,16.158,5.5,23.843,6.272,9.652.968,21.84.685,29.52,2.358s18.759,4.152,20.576,5.549c1.1.85.58,3.146,0,4.818,3.351-2.779,6.976-5.9,9.962-8.733C140.41,67.487,140.839,63.381,130.4,60.374Z"/><path class="cls-5" d="M130.638,73.285c-1.817-1.4-12.9-3.875-20.576-5.549s-19.868-1.39-29.52-2.358c-7.685-.77-19.39-4.7-23.843-6.272-5.043,2.566-10.329,5.227-14.865,7.446,4.627,1.057,18.2,4.051,26.437,4.766,10.049.872,31.294,5.007,39.026,7.025s10,3.312,10,6.594c0,1.393,0,2.563,0,3.469l3.163-2.16s4.718-3.62,10.172-8.143C131.218,76.431,131.743,74.135,130.638,73.285Z"/><path class="cls-2" d="M140.883,50.86c-1.781-1.1-18.507-5.767-25.068-7.586s-27.783-3.637-32.954-3.7-10.6,3.094-10.6,3.094l-1.638.854c7.358,1.484,25.681,5.135,32.609,6.1,8.759,1.225,13.032,1.224,23.472,4.232s10.011,7.114,10.2,9c3.6-3.422,6.27-6.429,6.379-7.917C143.627,50.213,142.663,51.959,140.883,50.86Z"/><path class="cls-3" d="M113.6,78.426c0-3.281-2.271-4.574-10-6.593s-28.977-6.154-39.027-7.026c-8.238-.714-21.809-3.709-26.436-4.766-3.777,1.847-7.032,3.387-9.183,4.306A37.684,37.684,0,0,0,24.872,66.4c4.306.834,13.6,2.443,20.627,2.316,9.453-.173,42.84,6.158,48.22,6.624s7.729.092,8.612,4.054a55.717,55.717,0,0,1,.756,9.68L113.6,81.9C113.6,80.989,113.6,79.819,113.6,78.426Z"/><path class="cls-2" d="M93.719,75.342c-5.38-.466-38.767-6.8-48.22-6.624-7.029.127-16.321-1.482-20.627-2.316a34.517,34.517,0,0,0-10.611,9.255s7.832,2,13.117,2.769,24.59,5.052,36.672,6.557,18.774,2.874,22.5,7.858S90.158,97.9,90.158,97.9l12.929-8.828a55.717,55.717,0,0,0-.756-9.68C101.448,75.434,99.1,75.808,93.719,75.342Z"/><path class="cls-4" d="M126.7,53.863c-10.44-3.008-14.713-3.007-23.472-4.232-6.928-.97-25.251-4.621-32.609-6.1C67.556,45.119,60.563,48.746,53,52.6c4.453,1.571,16.158,5.5,23.843,6.273,9.652.967,21.84.684,29.52,2.358s18.759,4.151,20.576,5.548c1.1.85.58,3.147,0,4.819,3.351-2.779,6.976-5.9,9.962-8.733C136.712,60.977,137.141,56.871,126.7,53.863Z"/><path class="cls-5" d="M126.94,66.774c-1.817-1.4-12.9-3.875-20.576-5.548S86.5,59.835,76.844,58.868C69.159,58.1,57.454,54.166,53,52.6c-5.043,2.567-10.329,5.228-14.865,7.446,4.627,1.057,18.2,4.052,26.436,4.766,10.05.872,31.3,5.007,39.027,7.026s10,3.312,10,6.593c0,1.393,0,2.563,0,3.469l3.164-2.16s4.718-3.619,10.172-8.142C127.52,69.921,128.045,67.624,126.94,66.774Z"/><path class="cls-6" d="M40.023,80.991,38.99,82.074A11.381,11.381,0,0,0,36.826,85.2a8.007,8.007,0,0,0-.549,2.462,20.577,20.577,0,0,1-.43,2.986l-.755,3.09a18.922,18.922,0,0,0-.435,3.2,27.244,27.244,0,0,1-.338,3.292,12.2,12.2,0,0,1-1.059,3.042c-.446.937-.91,1.813-1.274,2.682a23.963,23.963,0,0,0-1.734,6.378c-.119.954-.146,1.5-.146,1.5s.01-.55.1-1.51a24.1,24.1,0,0,1,.711-3.928,24.591,24.591,0,0,1,.835-2.542c.339-.887.782-1.789,1.193-2.727a11.874,11.874,0,0,0,.936-2.976,26.659,26.659,0,0,0,.23-3.244,19.565,19.565,0,0,1,.345-3.307c.225-1.058.445-2.1.659-3.109a19.76,19.76,0,0,0,.325-2.906,8.893,8.893,0,0,1,.529-2.734,12.252,12.252,0,0,1,2.239-3.476l1.019-1.138Z"/><path class="cls-6" d="M41.563,80.692s-.308.434-.77,1.234c-.23.4-.5.9-.769,1.48a20.447,20.447,0,0,0-.811,2.014,29.882,29.882,0,0,0-1.252,5.323c-.3,1.993-.486,4.15-.679,6.311-.224,2.165-.432,4.314-.66,6.341a44.358,44.358,0,0,1-.958,5.485c-.2.791-.419,1.506-.638,2.131s-.457,1.152-.616,1.6a2.617,2.617,0,0,0-.188,1.072,1.332,1.332,0,0,0,.08.379,1.331,1.331,0,0,1-.092-.378,2.628,2.628,0,0,1,.155-1.087c.147-.454.373-.983.565-1.614s.394-1.346.568-2.138a43.991,43.991,0,0,0,.78-5.482c.162-2.018.3-4.192.459-6.346.124-2.163.238-4.335.484-6.37a30.539,30.539,0,0,1,1.118-5.516A21.1,21.1,0,0,1,39.118,83c.267-.622.53-1.151.759-1.58.46-.858.766-1.32.766-1.32Z"/><path class="cls-6" d="M38.114,80.92l-.872,1.293c-.551.823-1.338,2-2.281,3.41a17.542,17.542,0,0,0-2.419,5.11,10.761,10.761,0,0,0,.389,6.359c.378,1.038,1,1.985,1.472,3.026a9.733,9.733,0,0,1,.8,3.232,29.324,29.324,0,0,1,.064,3.081,6.828,6.828,0,0,1-.126,1.436,2.993,2.993,0,0,1-.6,1.215c-.552.667-1.114,1.2-1.5,1.77a10.206,10.206,0,0,0-.909,1.532,8.939,8.939,0,0,0-.568,1.449,8.878,8.878,0,0,1,.525-1.469,10.32,10.32,0,0,1,.87-1.57c.37-.589.933-1.155,1.446-1.815a3.635,3.635,0,0,0,.611-2.548,28.882,28.882,0,0,0-.154-3.045A9.329,9.329,0,0,0,34,100.307c-.477-.979-1.142-1.926-1.577-3.013a11.418,11.418,0,0,1-.61-6.73,18.381,18.381,0,0,1,2.364-5.429l2.188-3.494.833-1.319Z"/><path class="cls-6" d="M46.265,82.293l-.579,1.282A31.258,31.258,0,0,0,44.375,87a12.151,12.151,0,0,0-.574,5.024,16.11,16.11,0,0,0,.713,2.818,13.03,13.03,0,0,1,.539,3.083,21.482,21.482,0,0,1-.684,6.045c-.453,1.882-.975,3.6-1.46,5.071-.977,2.929-1.806,4.813-1.806,4.813s.766-1.911,1.643-4.864c.434-1.476.9-3.216,1.285-5.095a21.064,21.064,0,0,0,.477-5.932,12.488,12.488,0,0,0-.613-2.926,16.745,16.745,0,0,1-.834-2.908,12.974,12.974,0,0,1,.427-5.383,32.5,32.5,0,0,1,1.233-3.575c.345-.835.541-1.312.541-1.312Z"/><path class="cls-6" d="M47.325,82.217s-.115.5-.318,1.382c-.186.88-.422,2.146-.6,3.68a41.009,41.009,0,0,0-.283,5.273c.009,1.935.235,4,.251,6.111a21.652,21.652,0,0,1-.82,6.1c-.516,1.894-1.114,3.618-1.643,5.09-1.069,2.94-1.93,4.838-1.93,4.838s.8-1.926,1.769-4.894c.479-1.484,1.02-3.226,1.468-5.117a21.194,21.194,0,0,0,.61-6.007c-.083-2.06-.378-4.132-.452-6.1a41.768,41.768,0,0,1,.112-5.386c.135-1.574.335-2.878.5-3.786l.278-1.419Z"/><path class="cls-6" d="M48.746,82.722s-.055,2.132-.139,5.33-.164,7.46-.14,11.722c.008,2.132.055,4.259.107,6.262a18.416,18.416,0,0,1-.132,2.9,11.447,11.447,0,0,1-.664,2.516,19.153,19.153,0,0,1-1.8,3.429c-.508.784-.818,1.218-.818,1.218s.3-.444.778-1.243a18.984,18.984,0,0,0,1.676-3.463,11.173,11.173,0,0,0,.573-2.488,18.015,18.015,0,0,0,.038-2.857c-.116-1.993-.232-4.13-.308-6.263-.16-4.268-.208-8.539-.235-11.74l-.032-5.335Z"/><path class="cls-6" d="M67.5,86.025l-.755,1.222a17.108,17.108,0,0,0-1.616,3.324,10.4,10.4,0,0,0-.483,2.394,24.03,24.03,0,0,0-.062,2.794c.021.981.068,2,.042,3.055a18.563,18.563,0,0,1-.339,3.165,45.392,45.392,0,0,1-1.715,5.973l-.987,2.666a22.69,22.69,0,0,1-1.07,2.321A21.816,21.816,0,0,0,59,116.42a9.827,9.827,0,0,0-.258,1.034l-.063.373.051-.375a10.1,10.1,0,0,1,.224-1.045,22.116,22.116,0,0,1,1.416-3.543,22.294,22.294,0,0,0,.986-2.334l.9-2.7a44.985,44.985,0,0,0,1.5-5.946,18.034,18.034,0,0,0,.229-3.077c-.008-1.021-.087-2.032-.14-3.021a24.749,24.749,0,0,1-.028-2.888,11.271,11.271,0,0,1,.439-2.6,17.947,17.947,0,0,1,1.592-3.574l.724-1.262Z"/><path class="cls-6" d="M65.193,85.189s-.769,1.812-1.924,4.53a19.034,19.034,0,0,0-1.51,4.69c-.258,1.779-.234,3.769-.392,5.737a99.34,99.34,0,0,1-1.34,10.759c-.527,2.909-1,4.822-1,4.822s.4-1.929.826-4.849a98.992,98.992,0,0,0,.963-10.76c.09-1.959-.008-3.919.2-5.807a19.815,19.815,0,0,1,1.395-4.938l1.766-4.594Z"/><path class="cls-6" d="M68.844,85.685s-.1.5-.284,1.38-.432,2.129-.665,3.635c-.116.754-.226,1.572-.306,2.439s-.081,1.8-.127,2.759-.075,1.953-.114,2.962c-.006,1.009-.175,2.044-.272,3.057-.24,2.042-.412,4.078-.695,6-.264,1.906-.511,3.685-.723,5.209a21.523,21.523,0,0,1-.813,3.634,10.166,10.166,0,0,1-.517,1.313,10.154,10.154,0,0,0,.473-1.327,21.634,21.634,0,0,0,.688-3.642c.16-1.531.348-3.316.549-5.229.216-1.9.322-3.957.493-6,.064-1.031.2-2.033.169-3.047,0-1.01.01-2,.015-2.967s-.011-1.883.036-2.784.137-1.73.229-2.5c.187-1.542.4-2.813.551-3.7s.238-1.393.238-1.393Z"/><path class="cls-6" d="M74.84,86.747l-.231.28c-.158.185-.361.45-.614.786a18.233,18.233,0,0,0-3.29,7.9,26.066,26.066,0,0,0-.134,5.856c.138,2.013.294,4.042.265,5.95a46.494,46.494,0,0,1-.336,5.186c-.179,1.51-.411,2.755-.585,3.623l-.3,1.36s.09-.5.249-1.368c.144-.873.334-2.123.461-3.633a46.336,46.336,0,0,0,.16-5.165c-.035-1.889-.257-3.892-.464-5.91a26.714,26.714,0,0,1-.062-6,19.152,19.152,0,0,1,3.177-8.4c.266-.38.477-.673.622-.854l.222-.288Z"/><path class="cls-6" d="M75.84,87.111l-.442,1.2c-.268.755-.631,1.858-.972,3.2a38.743,38.743,0,0,0-1.194,10.1c.028,1.862.155,3.742.066,5.511a12.822,12.822,0,0,1-1,4.71c-.28.652-.624,1.2-.893,1.7a8.781,8.781,0,0,0-.623,1.332,4.1,4.1,0,0,0-.217.921l-.022.335.01-.336a4.141,4.141,0,0,1,.184-.934,9,9,0,0,1,.578-1.364c.253-.514.574-1.072.825-1.722a12.61,12.61,0,0,0,.809-4.655c.024-1.743-.17-3.6-.268-5.481A39.563,39.563,0,0,1,73.527,91.3c.3-1.391.629-2.527.88-3.326.256-.783.4-1.231.4-1.231Z"/><path class="cls-6" d="M77.819,86.881l-.572,1.211A31.268,31.268,0,0,0,75.92,91.32a20.541,20.541,0,0,0-.946,4.81c-.159,1.8-.163,3.761-.139,5.71.071,3.9.234,7.83.03,10.766-.09,1.468-.243,2.684-.374,3.53s-.237,1.325-.237,1.325.078-.484.19-1.332.212-2.066.251-3.531c.1-2.931-.2-6.827-.407-10.741-.092-1.961-.157-3.92-.059-5.779a21.409,21.409,0,0,1,.811-5.035,32.041,32.041,0,0,1,1.25-3.375l.534-1.24Z"/><path class="cls-6" d="M28.332,78.242s-.338.474-.813,1.307a25.17,25.17,0,0,0-1.693,3.7c-.6,1.591-1.167,3.5-1.774,5.567s-1.214,4.265-1.791,6.48c-1.158,4.43-2.164,8.9-2.842,12.271s-1.071,5.629-1.071,5.629.317-2.271.9-5.66,1.45-7.9,2.479-12.37c.512-2.238,1.059-4.466,1.6-6.552s1.062-4.028,1.624-5.675a26.08,26.08,0,0,1,1.644-3.9c.493-.924.81-1.393.81-1.393Z"/><path class="cls-6" d="M28.921,78.657s-1.752,9.782-3.5,19.563a40.173,40.173,0,0,1-1.832,7.09c-.407,1.095-.833,2.135-1.175,3.141a16.8,16.8,0,0,0-.743,2.893,27.286,27.286,0,0,0-.27,4.479c.018,1.086.029,1.707.029,1.707s-.028-.621-.076-1.706a27.283,27.283,0,0,1,.148-4.5,17.058,17.058,0,0,1,.67-2.946c.318-1.025.717-2.08,1.091-3.179a39.738,39.738,0,0,0,1.619-7.066L27.842,78.48Z"/><path class="cls-6" d="M26.708,78.472s-.249.5-.683,1.386-1.064,2.145-1.9,3.624c-.813,1.5-2,3.1-2.989,4.9a17.055,17.055,0,0,0-1.22,2.927,26.41,26.41,0,0,0-.776,3.216c-.4,2.193-.628,4.429-.972,6.512a19.9,19.9,0,0,1-1.624,5.529,17.2,17.2,0,0,1-2.166,3.445,15.306,15.306,0,0,1-1.024,1.155,14.935,14.935,0,0,0,.987-1.184,17.117,17.117,0,0,0,2.047-3.487,19.633,19.633,0,0,0,1.438-5.51c.278-2.077.435-4.317.775-6.55a21.264,21.264,0,0,1,1.871-6.4c.983-1.917,2.1-3.516,2.844-5,.776-1.474,1.355-2.744,1.766-3.632l.638-1.4Z"/><path class="cls-6" d="M24.868,78.867,24,80.161,21.715,83.57A17.593,17.593,0,0,0,19.3,88.68a10.768,10.768,0,0,0,.389,6.359c.378,1.039,1,1.985,1.472,3.026a9.709,9.709,0,0,1,.8,3.232,29.324,29.324,0,0,1,.064,3.081,6.763,6.763,0,0,1-.126,1.436,3,3,0,0,1-.6,1.216c-.552.666-1.114,1.194-1.5,1.769a10.307,10.307,0,0,0-.91,1.532,8.939,8.939,0,0,0-.568,1.449,9,9,0,0,1,.525-1.469,10.315,10.315,0,0,1,.87-1.569c.37-.59.933-1.156,1.446-1.816a3.633,3.633,0,0,0,.611-2.548,28.629,28.629,0,0,0-.154-3.045,9.316,9.316,0,0,0-.859-3.078c-.477-.98-1.141-1.927-1.577-3.014a11.418,11.418,0,0,1-.609-6.73,18.362,18.362,0,0,1,2.363-5.428l2.188-3.494.833-1.319Z"/><path class="cls-6" d="M58.694,84.65l-1.033,1.083A11.365,11.365,0,0,0,55.5,88.857a7.978,7.978,0,0,0-.549,2.461,20.57,20.57,0,0,1-.43,2.987l-.755,3.09a18.908,18.908,0,0,0-.435,3.2,27.244,27.244,0,0,1-.338,3.292,12.254,12.254,0,0,1-1.059,3.042c-.446.937-.911,1.813-1.274,2.682a24.322,24.322,0,0,0-.9,2.491,24.071,24.071,0,0,0-.829,3.887c-.119.954-.146,1.5-.146,1.5s.009-.55.1-1.51a24.1,24.1,0,0,1,.711-3.928,24.591,24.591,0,0,1,.835-2.542c.339-.887.782-1.789,1.193-2.727a11.868,11.868,0,0,0,.936-2.977,26.83,26.83,0,0,0,.23-3.243,19.555,19.555,0,0,1,.345-3.307c.224-1.059.445-2.1.659-3.109a19.775,19.775,0,0,0,.325-2.906,8.893,8.893,0,0,1,.529-2.734,12.274,12.274,0,0,1,2.238-3.476L57.9,83.9Z"/><path class="cls-6" d="M60.233,84.351s-.307.434-.769,1.234c-.23.4-.5.9-.77,1.48a20.5,20.5,0,0,0-.81,2.014A29.84,29.84,0,0,0,56.632,94.4c-.3,1.993-.486,4.149-.679,6.31-.224,2.166-.432,4.314-.66,6.342a44.358,44.358,0,0,1-.958,5.485c-.2.791-.419,1.506-.638,2.131s-.457,1.152-.616,1.6a2.614,2.614,0,0,0-.188,1.072,1.372,1.372,0,0,0,.079.379,1.358,1.358,0,0,1-.091-.378,2.632,2.632,0,0,1,.155-1.088c.147-.454.373-.983.565-1.614s.394-1.346.568-2.137a44.019,44.019,0,0,0,.78-5.482c.162-2.019.3-4.192.458-6.346.125-2.163.239-4.336.484-6.371a30.643,30.643,0,0,1,1.118-5.516,21.317,21.317,0,0,1,.78-2.126c.267-.622.53-1.151.759-1.581.46-.857.766-1.319.766-1.319Z"/><path class="cls-6" d="M56.784,84.579l-.872,1.293c-.55.823-1.337,2-2.281,3.409a17.585,17.585,0,0,0-2.418,5.111,10.761,10.761,0,0,0,.389,6.359c.377,1.038,1,1.985,1.472,3.026a9.733,9.733,0,0,1,.8,3.232,29.324,29.324,0,0,1,.064,3.081,6.819,6.819,0,0,1-.126,1.435,2.98,2.98,0,0,1-.6,1.216c-.552.666-1.113,1.2-1.5,1.77a10.156,10.156,0,0,0-.909,1.532,8.82,8.82,0,0,0-.568,1.449,8.878,8.878,0,0,1,.525-1.469,10.32,10.32,0,0,1,.87-1.57c.37-.589.933-1.156,1.446-1.815a3.641,3.641,0,0,0,.611-2.549,29.134,29.134,0,0,0-.154-3.044,9.329,9.329,0,0,0-.859-3.079c-.477-.979-1.142-1.927-1.577-3.014a11.414,11.414,0,0,1-.61-6.729,18.381,18.381,0,0,1,2.364-5.429L55.036,85.3l.833-1.319Z"/><path class="cls-6" d="M13.353,76.192l.526.167,5.9,1.879,3.327.33s-1.7.4,1.3,1.52a9.273,9.273,0,0,0,5.19.533l1.367-1.383L36.344,80.4s-.911,1.553.365,2.32,3.281,1.339,4.075.4a15.855,15.855,0,0,1,1.86-1.791,8.13,8.13,0,0,0,2.519,3.022,5.066,5.066,0,0,0,3.012.633l1.384-2.268,5.308,1.339s-.716,1.479,1.832,2a4.069,4.069,0,0,0,3.888-1.069l2.916.6s-1.773,1.426,0,2.385,4.8.438,4.8.438l.931-2.664,2.778.664s-1.664,2.406.274,3.2,5.032-.533,5.032-.533l1.036-.67,3.008.67s-4.563-2.8-7.112-3.334S51.178,82.677,50.232,81.9,33.9,78.918,31.246,78.238,19.783,76.7,19.783,76.7Z"/><path class="cls-6" d="M77.536,51.489s.657.169,1.568.315a12.579,12.579,0,0,0,3.141.124c.547-.041,1.081-.127,1.609-.19s1.031-.12,1.473-.151c.878-.071,1.513-.06,1.513-.06a10.248,10.248,0,0,1-1.2.428,15.87,15.87,0,0,1-2.963.63,9.1,9.1,0,0,1-1.928-.045,9.622,9.622,0,0,1-1.716-.386,8.085,8.085,0,0,1-1.119-.455C77.664,51.572,77.536,51.489,77.536,51.489Z"/><path class="cls-6" d="M79.167,47.791s.012-.047.116-.1a1.519,1.519,0,0,1,.571-.094c.516-.019,1.254-.064,2.176-.046a20.971,20.971,0,0,1,3.258.3,16.03,16.03,0,0,1,1.893.441c.368.109.615.2.933.311.313.127.653.247.945.385a16.251,16.251,0,0,1,3.132,1.856,18.913,18.913,0,0,1,2.12,1.855,23.19,23.19,0,0,1,1.676,1.889l-2.148-1.74a24.184,24.184,0,0,0-5.22-3.359c-.267-.131-.532-.223-.8-.338-.284-.1-.625-.23-.863-.3-.564-.176-1.134-.331-1.7-.447a30.243,30.243,0,0,0-3.117-.472c-.921-.09-1.7-.165-2.239-.2a2.212,2.212,0,0,0-.587,0A.3.3,0,0,0,79.167,47.791Z"/><path class="cls-6" d="M85.175,53.579s.276.082.739.27,1.105.483,1.853.789a8.472,8.472,0,0,0,1.2.384,6.831,6.831,0,0,0,1.336.142l1.521,0,1.6.018c1.078.023,2.155.06,3.131.068a18.982,18.982,0,0,0,2.568-.132,6.056,6.056,0,0,0,1.571-.4,3.714,3.714,0,0,0,.374-.182l.129-.07a1.952,1.952,0,0,1-.338.356,3.825,3.825,0,0,1-1.4.665,12,12,0,0,1-2.6.351c-1,.048-2.085.02-3.151.01-1.087-.03-2.128-.042-3.194-.1a7.413,7.413,0,0,1-1.646-.274,7.622,7.622,0,0,1-1.353-.549c-.756-.39-1.278-.754-1.69-.981S85.175,53.579,85.175,53.579Z"/><path class="cls-6" d="M93.948,50.988s.236,0,.656.007a17.478,17.478,0,0,1,1.778.141,14.484,14.484,0,0,1,2.591.575,20.138,20.138,0,0,1,2.77,1.129,22.966,22.966,0,0,1,4.324,2.751,11.535,11.535,0,0,1,1.506,1.434s-.766-.512-1.918-1.237a50.468,50.468,0,0,0-4.415-2.477,25.721,25.721,0,0,0-2.518-1.106,19.577,19.577,0,0,0-2.346-.707c-.712-.167-1.322-.288-1.751-.374Z"/><path class="cls-6" d="M96.093,56.545l.8.286c.5.181,1.24.41,2.119.654s1.913.48,3.013.666c.551.1,1.117.165,1.689.235s1.149.11,1.716.129a21.678,21.678,0,0,0,3.234-.087,13.122,13.122,0,0,0,2.521-.508c.677-.221,1.229-.435,1.6-.594l.6-.24s-.15.132-.442.347A7.93,7.93,0,0,1,109.105,59a14.14,14.14,0,0,1-1.643.168c-.579.027-1.18.032-1.793.007a23.354,23.354,0,0,1-6.8-1.362,21.57,21.57,0,0,1-2.06-.884C96.347,56.692,96.093,56.545,96.093,56.545Z"/><path class="cls-6" d="M104.268,53.839a.843.843,0,0,1,.528-.366,5.921,5.921,0,0,1,2.368-.044,60.785,60.785,0,0,1,7.389,1.478c.664.182,1.327.356,2.011.589a7.479,7.479,0,0,1,1.874.916,10.49,10.49,0,0,1,1.263,1.051l.99.936c.611.58,1.084,1.076,1.433,1.417s.523.545.523.545-.255-.176-.68-.491-1.038-.764-1.739-1.314l-1.129-.888a14.61,14.61,0,0,0-1.253-.926,12.214,12.214,0,0,0-3.448-1.234c-2.6-.7-5.241-1.3-7.223-1.714a6.761,6.761,0,0,0-2.26-.2,1.7,1.7,0,0,0-.505.153Z"/><path class="cls-6" d="M111.111,59.069a.166.166,0,0,0,.036.107.766.766,0,0,0,.354.222c.362.147,1.009.222,1.759.459.746.214,1.581.514,2.445.769.233.071.406.115.653.173s.473.112.683.152a13.056,13.056,0,0,0,1.362.2,16.158,16.158,0,0,0,4.8-.242c.613-.121,1.091-.262,1.436-.356l.53-.162s-.128.1-.376.277a6.187,6.187,0,0,1-1.214.6,9.545,9.545,0,0,1-2.142.51,12.792,12.792,0,0,1-2.9.031,14.979,14.979,0,0,1-1.573-.259c-.275-.056-.524-.122-.75-.191s-.514-.151-.728-.228c-.933-.325-1.714-.679-2.393-.954-.343-.137-.645-.257-.933-.358a4.044,4.044,0,0,1-.758-.326c-.2-.112-.3-.242-.31-.318A.167.167,0,0,1,111.111,59.069Z"/><path class="cls-6" d="M119.838,56.651s.912.114,2.268.367a10,10,0,0,1,2.412.687,5.338,5.338,0,0,1,1.162.741,9.517,9.517,0,0,1,.845.826,10.445,10.445,0,0,1,.7.846,1.776,1.776,0,0,1,.362.909,1.408,1.408,0,0,1-.824,1.277,3.877,3.877,0,0,1-1.29.432,4.676,4.676,0,0,1-.574.057s.175-.059.443-.18a3.319,3.319,0,0,0,.906-.6,1.642,1.642,0,0,0,.343-.494,1.064,1.064,0,0,0,.06-.6,1.736,1.736,0,0,0-.352-.694c-.181-.243-.424-.5-.67-.768a8.249,8.249,0,0,0-.724-.746,4.351,4.351,0,0,0-.83-.593,11.632,11.632,0,0,0-2.034-.75C120.712,56.97,119.838,56.651,119.838,56.651Z"/><path class="cls-6" d="M40.168,73.971s.657.168,1.568.315a12.533,12.533,0,0,0,3.141.123c.547-.04,1.081-.126,1.609-.189s1.031-.12,1.473-.152c.878-.07,1.513-.06,1.513-.06a10.115,10.115,0,0,1-1.2.429,15.87,15.87,0,0,1-2.963.63,9.105,9.105,0,0,1-1.928-.046,9.451,9.451,0,0,1-1.716-.386,7.928,7.928,0,0,1-1.119-.454C40.3,74.053,40.168,73.971,40.168,73.971Z"/><path class="cls-6" d="M41.8,70.273s.012-.047.116-.1a1.544,1.544,0,0,1,.571-.093c.516-.02,1.254-.064,2.176-.046a21.081,21.081,0,0,1,3.258.294,16.24,16.24,0,0,1,1.893.442c.368.108.615.2.933.311.313.127.653.246.945.385a16.2,16.2,0,0,1,3.132,1.856,18.812,18.812,0,0,1,2.12,1.855,23.3,23.3,0,0,1,1.676,1.888L56.47,75.327a24.15,24.15,0,0,0-5.219-3.36c-.267-.131-.532-.222-.8-.337-.283-.1-.624-.23-.862-.3-.565-.176-1.134-.331-1.7-.448a30.537,30.537,0,0,0-3.117-.471c-.921-.091-1.7-.166-2.239-.2a2.244,2.244,0,0,0-.587,0A.3.3,0,0,0,41.8,70.273Z"/><path class="cls-6" d="M47.807,76.061s.276.082.739.27,1.105.483,1.853.789a8.472,8.472,0,0,0,1.2.384,6.757,6.757,0,0,0,1.336.141l1.521.006,1.6.017c1.078.024,2.155.06,3.131.069a18.779,18.779,0,0,0,2.567-.133,6.032,6.032,0,0,0,1.572-.4,3.674,3.674,0,0,0,.374-.183l.129-.07a1.894,1.894,0,0,1-.338.357,3.841,3.841,0,0,1-1.4.665,12.062,12.062,0,0,1-2.6.351c-1,.048-2.085.019-3.151.01-1.087-.03-2.128-.042-3.195-.105a7.071,7.071,0,0,1-3-.823c-.756-.39-1.278-.754-1.691-.98S47.807,76.061,47.807,76.061Z"/><path class="cls-6" d="M56.58,73.469s.236,0,.656.008a17.717,17.717,0,0,1,1.778.14,14.581,14.581,0,0,1,2.591.576,20.064,20.064,0,0,1,2.77,1.129,23.051,23.051,0,0,1,4.324,2.75,11.492,11.492,0,0,1,1.506,1.435s-.766-.512-1.918-1.238a50.484,50.484,0,0,0-4.415-2.476,25.732,25.732,0,0,0-2.518-1.107,19.8,19.8,0,0,0-2.346-.706c-.712-.168-1.322-.288-1.751-.374Z"/><path class="cls-6" d="M58.725,79.027l.8.286c.5.181,1.24.409,2.118.654s1.913.479,3.014.666c.551.1,1.117.165,1.689.235s1.149.11,1.716.129A21.678,21.678,0,0,0,71.3,80.91a13.028,13.028,0,0,0,2.52-.509c.677-.221,1.23-.434,1.6-.593l.6-.24s-.151.132-.442.346a7.915,7.915,0,0,1-3.846,1.569,14.163,14.163,0,0,1-1.643.168c-.579.027-1.18.032-1.793.007a23.354,23.354,0,0,1-6.8-1.362,21.276,21.276,0,0,1-2.06-.885C58.979,79.174,58.725,79.027,58.725,79.027Z"/><path class="cls-6" d="M66.9,76.321a.846.846,0,0,1,.528-.367A5.958,5.958,0,0,1,69.8,75.91a61.016,61.016,0,0,1,7.389,1.478c.663.182,1.327.357,2.011.59a7.479,7.479,0,0,1,1.874.916,10.569,10.569,0,0,1,1.263,1.051l.99.936c.611.58,1.084,1.076,1.433,1.417s.523.545.523.545-.255-.176-.68-.491-1.038-.764-1.739-1.314l-1.129-.889a14.817,14.817,0,0,0-1.253-.925,12.244,12.244,0,0,0-3.448-1.235c-2.605-.7-5.241-1.3-7.223-1.714a6.815,6.815,0,0,0-2.26-.2,1.714,1.714,0,0,0-.506.154Z"/><path class="cls-6" d="M73.743,81.551a.164.164,0,0,0,.036.106.752.752,0,0,0,.354.223c.362.147,1.009.222,1.759.458.746.214,1.581.515,2.445.77.233.071.405.115.653.173s.473.112.683.152a13.327,13.327,0,0,0,1.362.2,16.12,16.12,0,0,0,4.8-.243c.613-.12,1.091-.261,1.436-.355l.53-.162s-.128.1-.376.276a6.122,6.122,0,0,1-1.214.6,9.545,9.545,0,0,1-2.142.51,12.738,12.738,0,0,1-2.9.03,14.972,14.972,0,0,1-1.573-.258c-.275-.056-.524-.122-.75-.191s-.514-.151-.729-.228c-.932-.325-1.713-.679-2.392-.954-.343-.137-.645-.257-.933-.359a3.979,3.979,0,0,1-.758-.326c-.2-.111-.3-.241-.311-.317A.167.167,0,0,1,73.743,81.551Z"/><path class="cls-6" d="M82.469,79.132s.913.115,2.268.368a9.944,9.944,0,0,1,2.413.687,5.335,5.335,0,0,1,1.162.74,9.66,9.66,0,0,1,.845.827,10.445,10.445,0,0,1,.7.846,1.782,1.782,0,0,1,.362.908,1.408,1.408,0,0,1-.824,1.278,3.877,3.877,0,0,1-1.29.432,4.676,4.676,0,0,1-.574.057s.175-.059.443-.18a3.343,3.343,0,0,0,.906-.6A1.654,1.654,0,0,0,89.22,84a1.065,1.065,0,0,0,.06-.6,1.736,1.736,0,0,0-.352-.694c-.181-.243-.424-.5-.67-.769a8.237,8.237,0,0,0-.724-.745,4.351,4.351,0,0,0-.83-.593,11.552,11.552,0,0,0-2.034-.75C83.344,79.452,82.469,79.132,82.469,79.132Z"/><path class="cls-6" d="M67.618,62.329s.666.131,1.579.244a15.972,15.972,0,0,0,3.11.092c.535-.032,1.053-.1,1.567-.149s1-.094,1.436-.119c.859-.056,1.486-.049,1.486-.049a10.482,10.482,0,0,1-1.135.335,18.128,18.128,0,0,1-2.855.492,11.507,11.507,0,0,1-1.906-.033,12.567,12.567,0,0,1-1.733-.3,10.407,10.407,0,0,1-1.151-.352C67.753,62.393,67.618,62.329,67.618,62.329Z"/><path class="cls-6" d="M68.836,59.455s.007-.036.1-.077a1.788,1.788,0,0,1,.554-.073c.506-.016,1.229-.051,2.14-.038a26.933,26.933,0,0,1,3.244.225c.615.085,1.262.19,1.913.341.374.084.629.159.953.241.322.1.67.19.972.3A20.221,20.221,0,0,1,82,61.81a21.782,21.782,0,0,1,2.287,1.439c1.192.868,1.851,1.465,1.851,1.465l-2.3-1.349a29.693,29.693,0,0,0-5.5-2.6c-.276-.1-.548-.172-.821-.261-.29-.077-.64-.178-.881-.232-.576-.135-1.154-.255-1.72-.345-1.133-.186-2.2-.286-3.124-.363s-1.691-.127-2.229-.155a2.708,2.708,0,0,0-.579,0A.285.285,0,0,0,68.836,59.455Z"/><path class="cls-6" d="M75.371,63.945s.281.063.758.209,1.14.373,1.909.61a11.189,11.189,0,0,0,1.228.3,8.991,8.991,0,0,0,1.332.108l1.5,0,1.577.011c1.065.017,2.131.044,3.094.05a23.006,23.006,0,0,0,2.518-.106,6.663,6.663,0,0,0,1.507-.315,3.4,3.4,0,0,0,.35-.142l.119-.054a1.376,1.376,0,0,1-.3.277,3.725,3.725,0,0,1-1.315.518,14.207,14.207,0,0,1-2.529.275c-.983.039-2.054.018-3.106.012-1.076-.022-2.1-.031-3.161-.078a9.627,9.627,0,0,1-1.652-.211,9.769,9.769,0,0,1-1.392-.425c-.787-.3-1.34-.584-1.77-.76S75.371,63.945,75.371,63.945Z"/><path class="cls-6" d="M83.748,61.922s.232,0,.647.005,1.017.031,1.769.107a19,19,0,0,1,2.616.445,26.228,26.228,0,0,1,2.85.873,28.315,28.315,0,0,1,4.554,2.132A12.882,12.882,0,0,1,97.821,66.6s-.809-.4-2.023-.959-2.87-1.278-4.614-1.919c-.863-.324-1.751-.616-2.6-.857s-1.667-.416-2.388-.546-1.334-.222-1.766-.288Z"/><path class="cls-6" d="M86.45,66.237l.823.221c.516.14,1.266.317,2.158.506s1.937.37,3.042.513c.554.079,1.118.128,1.69.182s1.145.084,1.706.1a26.8,26.8,0,0,0,3.179-.071,14.944,14.944,0,0,0,2.432-.4c.644-.172,1.167-.339,1.516-.463l.57-.187s-.134.1-.4.27a7.913,7.913,0,0,1-1.231.642,9.586,9.586,0,0,1-2.4.58c-.5.061-1.038.117-1.6.133s-1.16.026-1.767.007a29.173,29.173,0,0,1-3.66-.362,29.645,29.645,0,0,1-3.185-.689c-.911-.249-1.628-.507-2.124-.684S86.45,66.237,86.45,66.237Z"/><path class="cls-6" d="M94.225,64.126c.017.01.031-.159.482-.285a7.3,7.3,0,0,1,2.331-.037c2.015.2,4.734.593,7.441,1.14.674.141,1.347.276,2.046.456a9.54,9.54,0,0,1,1.944.709,12.267,12.267,0,0,1,1.357.815l1.075.726c.664.45,1.183.835,1.562,1.1s.573.422.573.422-.269-.136-.722-.381-1.1-.592-1.853-1.018l-1.207-.689c-.423-.245-.86-.5-1.334-.718a15.882,15.882,0,0,0-3.53-.955c-2.642-.538-5.305-1-7.3-1.324a8.68,8.68,0,0,0-2.25-.152,1.851,1.851,0,0,0-.482.12Z"/><path class="cls-6" d="M101.526,68.181s0,.031.046.083a.925.925,0,0,0,.373.172c.372.114,1.018.172,1.783.354.758.166,1.612.4,2.491.6.238.054.413.089.663.133s.478.087.689.118c.437.071.913.12,1.365.155a19.707,19.707,0,0,0,4.7-.193c.592-.094,1.048-.2,1.379-.277l.5-.127s-.115.081-.341.215a6,6,0,0,1-1.135.465,10.776,10.776,0,0,1-2.058.4,15.962,15.962,0,0,1-2.853.026c-.525-.048-1.038-.105-1.578-.2-.278-.043-.53-.094-.76-.148s-.523-.116-.743-.176c-.953-.251-1.761-.525-2.459-.738-.353-.106-.663-.2-.959-.278a5.259,5.259,0,0,1-.781-.252c-.208-.087-.324-.187-.34-.246A.1.1,0,0,1,101.526,68.181Z"/><path class="cls-6" d="M109.875,66.293s.912.088,2.275.283a12.959,12.959,0,0,1,2.451.531,6.581,6.581,0,0,1,1.224.574,10.936,10.936,0,0,1,.921.641c.261.209.537.424.777.656a1.469,1.469,0,0,1,.453.706c.1.475-.27.792-.678.993a4.148,4.148,0,0,1-1.227.337c-.345.042-.559.045-.559.045s.166-.046.417-.14a2.921,2.921,0,0,0,.831-.467,1.11,1.11,0,0,0,.286-.384.649.649,0,0,0-.005-.467,1.522,1.522,0,0,0-.42-.539c-.2-.189-.472-.389-.742-.6a9.132,9.132,0,0,0-.793-.579,5.2,5.2,0,0,0-.881-.459,15.057,15.057,0,0,0-2.085-.581C110.771,66.54,109.875,66.293,109.875,66.293Z"/></svg>