<svg id="word" xmlns="http://www.w3.org/2000/svg" xmlns:xlink="http://www.w3.org/1999/xlink" viewBox="0 0 160 160"><defs><style>.cls-1{fill:none;}.cls-2{clip-path:url(#clip-path);}.cls-3{fill:#ffeec0;stroke:#9b4d9c;stroke-miterlimit:10;stroke-width:1.444px;}.cls-4{fill:#006695;}</style><clipPath id="clip-path"><rect class="cls-1" x="-196" y="224" width="132" height="132"/></clipPath></defs><g class="cls-2"><path class="cls-3" d="M-166.051,290.525l-6.4,4.655s-19.667-20.8-20.242-40.228c-.7-23.773,10.544-44.195,20.171-47.1a164.419,164.419,0,0,0,19.135-7.344s-19.045-1.937-22.417-5.247-2.3-11.618-2.3-11.618,2.48,9.455,17.845,10.255c5.568.29,15.745.681,18.361.967s-4,1.9-5.792-7.735,1.568-19.712,1.568-19.712-2.584,11.559,3.888,15.628a102.265,102.265,0,0,1,10.359,7.334s-2.026-6-.761-9.721-.922-11.767-.922-11.767,6.153,12.339,6.434,15.92,7.321-12.489,8.305-19.788,2.914-22.406,2.914-22.406,6.983,9.691,5.6,18.569,4.2-7.58,22.489-5.062,36.244,6.61,41.917,12.81,9.559,9.465,19.427,9.63,20.016-5.127,33.712,3.224c15.519,9.462,13.229,25.115,13.229,25.115S16.1,198.764,3.726,193.151s-13.5-.079-13.5-.079S3.477,209.94,10.7,216s34.761,6.74,34.761,6.74,1,6.094-9.742,8.066a100.552,100.552,0,0,1-16.445,1.957l15.145,7.944a54.93,54.93,0,0,1,13.249,10.172s-14.908-4.875-20.735-6.425,10.487,8.792,11.449,21.071S36.16,289.5,35.805,291.588s-7.229-19.457-7.229-19.457,3.182,14.145-2.954,21.9-14.278,5.948-22.895,12.309-15,29.2-15,29.2,8.557-58.516,6.651-62.986-.647-14.882-15.833-23.338-17.017-18.6-25.774-17.831-21.677,1.385-30.2-1.474-22.037-3.22-25.128-2.949-19.5,2.74-26.7,10.068-17.183,19.021-17.812,24.227-7.044,61.6-7.044,61.6S-157.9,293.435-166.051,290.525Z"/></g><path class="cls-4" d="M89.773,50.528H59.084V38.918h49.138l-34.288,69.3H60.614Z"/></svg>