<svg id="word" xmlns="http://www.w3.org/2000/svg" viewBox="0 0 160 160"><defs><style>.cls-1{fill:#006695;}</style></defs><path class="cls-1" d="M32.121,86.359c0-4.769,1.89-9.989,5.489-15.749L57.32,39.2H70.729L55.79,63.141c12.779.72,21.329,11.16,21.329,23.4,0,12.509-9.9,23.039-22.589,23.039C41.48,109.579,32.121,98.779,32.121,86.359Zm33.658,0A11.165,11.165,0,1,0,54.62,97.879,11.3,11.3,0,0,0,65.779,86.359Z"/><path class="cls-1" d="M82.574,73.4c0-19.8,8.19-35.1,23.939-35.1s23.939,15.3,23.939,35.1c0,19.35-8.1,36.179-23.939,36.179S82.574,92.75,82.574,73.4Zm36.179,0c0-12.059-3.06-23.488-12.24-23.488S94.274,61.341,94.274,73.4c0,12.241,2.97,24.569,12.239,24.569S118.753,85.641,118.753,73.4Z"/></svg>