<svg id="word" xmlns="http://www.w3.org/2000/svg" viewBox="0 0 160 160"><defs><style>.cls-1{fill:#dab3cd;}.cls-2{fill:#aa75ab;}.cls-3{fill:#e7eacf;}.cls-4{fill:#daac62;}.cls-5{fill:#bc9555;}.cls-6{fill:#d890b7;}.cls-7{fill:#976899;opacity:0.5;}.cls-8{fill:#fff8b3;}.cls-9{fill:#fff;}.cls-10{fill:#9d4b9c;}</style></defs><polygon class="cls-1" points="19.683 27.703 47.04 48.226 46.945 101.388 21.606 129.591 18.742 129.591 18.742 27.231 19.683 27.703"/><rect class="cls-2" x="46.826" y="47.754" width="76.514" height="53.823"/><polygon class="cls-1" points="141.186 37.168 123.34 47.871 123.34 100.722 140.866 110.394 141.186 37.168"/><polygon class="cls-3" points="19.625 27.569 46.719 48.226 123.34 47.754 141.186 37.787 141.062 27.428 19.625 27.569"/><path class="cls-4" d="M141.042,118.078l.254,11.08-119.687.428,9.514-10.625c5.8-3.338,18.158-10.3,23.966-12.337,12.043-4.235,25.645-3.9,32.449-4.121.388-.014.809-.021,1.251-.034,7.353-.107,22.105.662,30.415,3.82C126.938,109.227,138.373,116.379,141.042,118.078Z"/><path class="cls-5" d="M88.776,101.037l34.563-.321,17.529,9.675.174,7.687c-2.669-1.7-14.1-8.851-21.838-11.789-8.31-3.158-23.062-3.927-30.415-3.82Z"/><path class="cls-5" d="M46.826,101.425l41.95-.388.013,1.432c-.442.013-.863.02-1.251.034-6.8.22-20.406-.114-32.449,4.121-5.808,2.041-18.165,9-23.966,12.337Z"/><path class="cls-6" d="M57.427,63.344s-3.569.646-4.8,2.367a10.94,10.94,0,0,0-1.45,4.626s4.461-3.012,5.018-4.411A23.98,23.98,0,0,1,57.427,63.344Z"/><path class="cls-6" d="M56.061,67.7a44.669,44.669,0,0,0-1.673,4.842c-.557,2.152.669,4.949.669,4.949s1.561-4.3,1.561-6.133A14.417,14.417,0,0,0,56.061,67.7Z"/><path class="cls-6" d="M53.468,71.386s-4.126.323-4.683,3.013a15.546,15.546,0,0,0-.446,3.98S52.465,74.937,53.468,71.386Z"/><path class="cls-6" d="M51.6,77.061s-1.561,3.013-1.226,4.519,2.453,3.228,2.453,3.228S52.827,78.783,51.6,77.061Z"/><path class="cls-6" d="M47.7,63.559a3.992,3.992,0,0,0,1,3.013c1.227,1.291,2.007,1.183,2.007,1.183s.669-2.689-.334-4.2a16.362,16.362,0,0,0-2.676-2.9Z"/><path class="cls-6" d="M52.437,59.175a2.361,2.361,0,0,0-.781,2.367,9.886,9.886,0,0,0,.558,2.475,2.4,2.4,0,0,0,2.007-2.367c0-2.044-.112-3.981-.112-3.981Z"/><path class="cls-6" d="M59.267,86.986s-3.569.646-4.8,2.367a10.94,10.94,0,0,0-1.45,4.626s4.461-3.012,5.018-4.411A23.98,23.98,0,0,1,59.267,86.986Z"/><path class="cls-6" d="M50.959,50.434a44.561,44.561,0,0,0-1.672,4.841c-.558,2.152.669,4.949.669,4.949s1.561-4.3,1.561-6.132A14.393,14.393,0,0,0,50.959,50.434Z"/><path class="cls-6" d="M54.054,95.028s-3.432.242-3.9,2.26a10.561,10.561,0,0,0-.371,2.985S53.219,97.691,54.054,95.028Z"/><path class="cls-6" d="M55.866,49.788s-1.561,3.013-1.227,4.519,2.453,3.228,2.453,3.228S57.092,51.51,55.866,49.788Z"/><path class="cls-6" d="M49.119,88.9a3.988,3.988,0,0,0,1,3.012c1.227,1.291,2.007,1.184,2.007,1.184s.669-2.69-.334-4.2a16.374,16.374,0,0,0-2.677-2.905Z"/><path class="cls-6" d="M54.778,81.93A2.36,2.36,0,0,0,54,84.3a9.922,9.922,0,0,0,.557,2.474A2.4,2.4,0,0,0,56.563,84.4c0-2.044-.112-3.98-.112-3.98Z"/><path class="cls-6" d="M56.061,93.9s.251,1.129.5,2.663,2.927,2.5,2.927,2.5S61.664,96.8,56.061,93.9Z"/><path class="cls-6" d="M70.474,62.484s-3.568.645-4.8,2.366a10.951,10.951,0,0,0-1.449,4.627s4.46-3.013,5.018-4.411A23.757,23.757,0,0,1,70.474,62.484Z"/><path class="cls-6" d="M69.108,66.841a44.474,44.474,0,0,0-1.672,4.841c-.558,2.152.669,4.949.669,4.949s1.561-4.3,1.561-6.132A14.393,14.393,0,0,0,69.108,66.841Z"/><path class="cls-6" d="M66.516,70.526s-4.126.322-4.684,3.012a15.615,15.615,0,0,0-.446,3.981S65.512,74.076,66.516,70.526Z"/><path class="cls-6" d="M64.648,76.2s-1.561,3.012-1.227,4.518,2.453,3.228,2.453,3.228S65.874,77.922,64.648,76.2Z"/><path class="cls-6" d="M60.745,62.7a3.988,3.988,0,0,0,1,3.012C62.975,67,63.756,66.9,63.756,66.9s.669-2.69-.335-4.2a16.346,16.346,0,0,0-2.676-2.905Z"/><path class="cls-6" d="M65.484,58.315a2.359,2.359,0,0,0-.78,2.366,9.924,9.924,0,0,0,.557,2.475,2.4,2.4,0,0,0,2.007-2.367c0-2.044-.111-3.981-.111-3.981Z"/><path class="cls-6" d="M72.314,86.126s-3.568.645-4.795,2.367a10.944,10.944,0,0,0-1.449,4.626s4.46-3.013,5.017-4.411A23.868,23.868,0,0,1,72.314,86.126Z"/><path class="cls-6" d="M64.007,49.573a44.669,44.669,0,0,0-1.673,4.842c-.558,2.151.669,4.949.669,4.949s1.561-4.3,1.561-6.133A14.417,14.417,0,0,0,64.007,49.573Z"/><path class="cls-6" d="M67.1,94.168s-3.432.242-3.9,2.259a10.566,10.566,0,0,0-.371,2.986S66.266,96.83,67.1,94.168Z"/><path class="cls-6" d="M68.913,48.928s-1.561,3.012-1.227,4.518,2.454,3.228,2.454,3.228S70.14,50.649,68.913,48.928Z"/><path class="cls-6" d="M62.167,88.035a3.992,3.992,0,0,0,1,3.013c1.227,1.291,2.007,1.183,2.007,1.183s.67-2.69-.334-4.2a16.386,16.386,0,0,0-2.676-2.905Z"/><path class="cls-6" d="M67.826,81.069a2.361,2.361,0,0,0-.781,2.367A9.884,9.884,0,0,0,67.6,85.91a2.4,2.4,0,0,0,2.007-2.366c0-2.045-.112-3.981-.112-3.981Z"/><path class="cls-6" d="M69.108,93.038s.251,1.13.5,2.663,2.927,2.5,2.927,2.5S74.711,95.943,69.108,93.038Z"/><path class="cls-6" d="M82.74,62.7s-3.568.645-4.8,2.367A10.944,10.944,0,0,0,76.5,69.692s4.46-3.013,5.018-4.411A23.757,23.757,0,0,1,82.74,62.7Z"/><path class="cls-6" d="M81.374,67.056A44.561,44.561,0,0,0,79.7,71.9c-.558,2.152.669,4.949.669,4.949s1.561-4.3,1.561-6.132A14.393,14.393,0,0,0,81.374,67.056Z"/><path class="cls-6" d="M78.782,70.741s-4.126.323-4.684,3.012a15.615,15.615,0,0,0-.446,3.981S77.778,74.291,78.782,70.741Z"/><path class="cls-6" d="M76.914,76.416s-1.561,3.012-1.227,4.519,2.453,3.227,2.453,3.227S78.14,78.137,76.914,76.416Z"/><path class="cls-6" d="M73.011,62.914a3.988,3.988,0,0,0,1,3.012c1.226,1.291,2.007,1.184,2.007,1.184s.669-2.69-.335-4.2a16.346,16.346,0,0,0-2.676-2.905Z"/><path class="cls-6" d="M77.75,58.53a2.36,2.36,0,0,0-.78,2.367,9.922,9.922,0,0,0,.557,2.474A2.4,2.4,0,0,0,79.534,61c0-2.044-.111-3.98-.111-3.98Z"/><path class="cls-6" d="M84.58,86.341s-3.568.645-4.8,2.367a10.944,10.944,0,0,0-1.449,4.626s4.46-3.013,5.017-4.411A23.868,23.868,0,0,1,84.58,86.341Z"/><path class="cls-6" d="M76.273,49.788A44.669,44.669,0,0,0,74.6,54.63c-.558,2.151.669,4.949.669,4.949s1.561-4.3,1.561-6.133A14.417,14.417,0,0,0,76.273,49.788Z"/><path class="cls-6" d="M79.367,94.383s-3.432.242-3.9,2.259a10.566,10.566,0,0,0-.371,2.986S78.532,97.046,79.367,94.383Z"/><path class="cls-6" d="M81.179,49.143s-1.561,3.012-1.227,4.518,2.454,3.228,2.454,3.228S82.406,50.864,81.179,49.143Z"/><path class="cls-6" d="M74.433,88.25a3.992,3.992,0,0,0,1,3.013c1.227,1.291,2.007,1.183,2.007,1.183s.67-2.689-.334-4.2a16.362,16.362,0,0,0-2.676-2.9Z"/><path class="cls-6" d="M80.092,81.284a2.361,2.361,0,0,0-.781,2.367,9.886,9.886,0,0,0,.558,2.475,2.4,2.4,0,0,0,2.007-2.367c0-2.044-.112-3.981-.112-3.981Z"/><path class="cls-6" d="M81.374,93.253s.251,1.13.5,2.663,2.927,2.5,2.927,2.5S86.977,96.158,81.374,93.253Z"/><path class="cls-6" d="M95.118,61.838s-3.568.646-4.8,2.367a10.944,10.944,0,0,0-1.449,4.626s4.46-3.012,5.017-4.411A23.868,23.868,0,0,1,95.118,61.838Z"/><path class="cls-6" d="M93.752,66.195a44.669,44.669,0,0,0-1.673,4.842c-.557,2.151.669,4.949.669,4.949s1.562-4.3,1.562-6.133A14.393,14.393,0,0,0,93.752,66.195Z"/><path class="cls-6" d="M91.159,69.88s-4.125.323-4.683,3.013a15.606,15.606,0,0,0-.446,3.98S90.156,73.43,91.159,69.88Z"/><path class="cls-6" d="M89.292,75.555s-1.561,3.013-1.227,4.519S90.518,83.3,90.518,83.3,90.518,77.277,89.292,75.555Z"/><path class="cls-6" d="M85.389,62.053a3.992,3.992,0,0,0,1,3.013c1.227,1.291,2.008,1.183,2.008,1.183s.669-2.69-.335-4.2a16.346,16.346,0,0,0-2.676-2.9Z"/><path class="cls-6" d="M90.128,57.669a2.361,2.361,0,0,0-.781,2.367,9.884,9.884,0,0,0,.558,2.474,2.4,2.4,0,0,0,2.007-2.366c0-2.045-.111-3.981-.111-3.981Z"/><path class="cls-6" d="M96.958,85.48s-3.568.646-4.8,2.367a10.936,10.936,0,0,0-1.45,4.626s4.461-3.012,5.018-4.411A23.98,23.98,0,0,1,96.958,85.48Z"/><path class="cls-6" d="M88.651,48.928a44.378,44.378,0,0,0-1.673,4.841c-.558,2.152.669,4.949.669,4.949s1.561-4.3,1.561-6.132A14.417,14.417,0,0,0,88.651,48.928Z"/><path class="cls-6" d="M91.745,93.522s-3.432.242-3.9,2.26a10.561,10.561,0,0,0-.371,2.985S90.91,96.185,91.745,93.522Z"/><path class="cls-6" d="M93.557,48.282S92,51.3,92.33,52.8s2.454,3.227,2.454,3.227S94.784,50,93.557,48.282Z"/><path class="cls-6" d="M86.811,87.39a3.99,3.99,0,0,0,1,3.012c1.227,1.291,2.007,1.184,2.007,1.184s.669-2.69-.334-4.2a16.386,16.386,0,0,0-2.676-2.905Z"/><path class="cls-6" d="M92.47,80.424a2.359,2.359,0,0,0-.781,2.366,9.886,9.886,0,0,0,.558,2.475A2.4,2.4,0,0,0,94.254,82.9c0-2.044-.112-3.981-.112-3.981Z"/><path class="cls-6" d="M93.752,92.393s.251,1.129.5,2.662,2.927,2.5,2.927,2.5S99.355,95.3,93.752,92.393Z"/><path class="cls-6" d="M107.5,63.021s-3.568.646-4.8,2.367a10.951,10.951,0,0,0-1.449,4.627S105.712,67,106.27,65.6A23.83,23.83,0,0,1,107.5,63.021Z"/><path class="cls-6" d="M106.13,67.379a44.474,44.474,0,0,0-1.672,4.841c-.558,2.152.669,4.949.669,4.949s1.561-4.3,1.561-6.132A14.393,14.393,0,0,0,106.13,67.379Z"/><path class="cls-6" d="M103.538,71.064s-4.126.322-4.684,3.012a15.615,15.615,0,0,0-.446,3.981S102.534,74.614,103.538,71.064Z"/><path class="cls-6" d="M101.67,76.739s-1.561,3.012-1.227,4.518,2.454,3.228,2.454,3.228S102.9,78.46,101.67,76.739Z"/><path class="cls-6" d="M97.767,63.237a3.988,3.988,0,0,0,1,3.012c1.226,1.291,2.007,1.184,2.007,1.184s.669-2.69-.335-4.2a16.305,16.305,0,0,0-2.676-2.905Z"/><path class="cls-6" d="M102.506,58.852a2.362,2.362,0,0,0-.78,2.367,9.924,9.924,0,0,0,.557,2.475,2.4,2.4,0,0,0,2.007-2.367c0-2.044-.111-3.981-.111-3.981Z"/><path class="cls-6" d="M109.336,86.664s-3.568.645-4.8,2.366a10.951,10.951,0,0,0-1.449,4.627s4.46-3.013,5.018-4.411A23.757,23.757,0,0,1,109.336,86.664Z"/><path class="cls-6" d="M101.029,50.111a44.7,44.7,0,0,0-1.673,4.841c-.557,2.152.669,4.949.669,4.949s1.561-4.3,1.561-6.132A14.417,14.417,0,0,0,101.029,50.111Z"/><path class="cls-6" d="M104.123,94.706s-3.432.242-3.9,2.259a10.611,10.611,0,0,0-.371,2.985S103.288,97.368,104.123,94.706Z"/><path class="cls-6" d="M105.935,49.466s-1.561,3.012-1.226,4.518,2.453,3.228,2.453,3.228S107.162,51.187,105.935,49.466Z"/><path class="cls-6" d="M99.189,88.573a3.99,3.99,0,0,0,1,3.013c1.226,1.291,2.007,1.183,2.007,1.183s.669-2.69-.335-4.2a16.346,16.346,0,0,0-2.676-2.9Z"/><path class="cls-6" d="M104.848,81.607a2.361,2.361,0,0,0-.781,2.367,9.884,9.884,0,0,0,.558,2.474,2.4,2.4,0,0,0,2.007-2.367c0-2.044-.111-3.98-.111-3.98Z"/><path class="cls-6" d="M106.13,93.576s.251,1.13.5,2.663,2.927,2.5,2.927,2.5S111.734,96.481,106.13,93.576Z"/><path class="cls-6" d="M120.544,62.161s-3.569.645-4.8,2.367a10.936,10.936,0,0,0-1.45,4.626s4.461-3.013,5.018-4.411A23.868,23.868,0,0,1,120.544,62.161Z"/><path class="cls-6" d="M119.178,66.518a44.7,44.7,0,0,0-1.673,4.841c-.557,2.152.669,4.949.669,4.949s1.561-4.3,1.561-6.132A14.417,14.417,0,0,0,119.178,66.518Z"/><path class="cls-6" d="M116.585,70.2s-4.126.323-4.683,3.012a15.554,15.554,0,0,0-.446,3.981S115.582,73.753,116.585,70.2Z"/><path class="cls-6" d="M114.717,75.878s-1.561,3.012-1.226,4.519,2.453,3.227,2.453,3.227S115.944,77.6,114.717,75.878Z"/><path class="cls-6" d="M110.815,62.376a3.99,3.99,0,0,0,1,3.012c1.227,1.291,2.007,1.184,2.007,1.184s.669-2.69-.334-4.2a16.386,16.386,0,0,0-2.676-2.905Z"/><path class="cls-6" d="M115.554,57.992a2.36,2.36,0,0,0-.781,2.367,9.884,9.884,0,0,0,.558,2.474,2.4,2.4,0,0,0,2.007-2.367c0-2.044-.112-3.98-.112-3.98Z"/><path class="cls-6" d="M122.384,85.8s-3.569.645-4.8,2.367a10.936,10.936,0,0,0-1.45,4.626s4.46-3.012,5.018-4.411A23.868,23.868,0,0,1,122.384,85.8Z"/><path class="cls-6" d="M114.076,49.25a44.528,44.528,0,0,0-1.672,4.842c-.558,2.152.669,4.949.669,4.949s1.561-4.3,1.561-6.133A14.393,14.393,0,0,0,114.076,49.25Z"/><path class="cls-6" d="M117.171,93.845s-3.432.242-3.9,2.259a10.569,10.569,0,0,0-.371,2.986S116.336,96.508,117.171,93.845Z"/><path class="cls-6" d="M118.983,48.605s-1.562,3.012-1.227,4.519,2.453,3.227,2.453,3.227S120.209,50.326,118.983,48.605Z"/><path class="cls-6" d="M112.236,87.713a3.988,3.988,0,0,0,1,3.012c1.226,1.291,2.007,1.183,2.007,1.183s.669-2.689-.335-4.2a16.305,16.305,0,0,0-2.676-2.9Z"/><path class="cls-6" d="M117.9,80.746a2.362,2.362,0,0,0-.78,2.367,9.924,9.924,0,0,0,.557,2.475,2.4,2.4,0,0,0,2.008-2.367c0-2.044-.112-3.981-.112-3.981Z"/><path class="cls-6" d="M119.178,92.715s.251,1.13.5,2.663,2.927,2.5,2.927,2.5S124.781,95.62,119.178,92.715Z"/><path class="cls-7" d="M46.861,59.07S67.019,52.3,84.077,51.878c20.072-.5,38.806,10.37,38.806,10.37l.457-14.494-76.562.528Z"/><polygon class="cls-8" points="19.625 129.488 46.722 99.492 123.217 98.935 140.836 108.301 140.947 110.978 123.338 100.719 46.824 101.428 22.524 129.711 19.625 129.488"/><polygon class="cls-9" points="20.963 27.346 46.722 47.306 122.883 46.972 140.947 36.824 141.059 38.943 123.552 48.867 46.833 49.313 18.742 27.231 20.963 27.346"/><path class="cls-10" d="M39.551,55.924a.464.464,0,0,1,.508-.238.545.545,0,0,1,.48.539,9.889,9.889,0,0,0,2.974,7.22,18.865,18.865,0,0,0,7.352,4.594.51.51,0,0,1,.351.608.47.47,0,0,1-.634.252A20.057,20.057,0,0,1,42.766,64a10.847,10.847,0,0,1-3.25-7.938A.375.375,0,0,1,39.551,55.924Z"/><path class="cls-10" d="M46.133,63.721a.394.394,0,0,1,.136-.161.567.567,0,0,1,.724.113A41.247,41.247,0,0,0,52.23,68.6c.35.276.368.6.232.8a.59.59,0,0,1-.563.228,59.386,59.386,0,0,1-7.26-.764.544.544,0,0,1-.475-.543.444.444,0,0,1,.548-.372,58.749,58.749,0,0,0,6.129.7,42.262,42.262,0,0,1-4.616-4.439A.45.45,0,0,1,46.133,63.721Z"/></svg>