<svg id="word" xmlns="http://www.w3.org/2000/svg" viewBox="0 0 160 160"><defs><style>.cls-1{fill:#656768;}.cls-1,.cls-10,.cls-3,.cls-4,.cls-5,.cls-7,.cls-8{stroke:#9a4d9c;}.cls-1,.cls-10,.cls-3,.cls-4,.cls-5,.cls-6,.cls-7,.cls-8{stroke-miterlimit:10;stroke-width:0.497px;}.cls-2,.cls-8{fill:#fff;}.cls-3{fill:#345178;}.cls-4,.cls-7{fill:#f8e0d4;}.cls-5{fill:#4ac2ed;}.cls-6{fill:#927568;stroke:#9c4c9c;}.cls-10,.cls-7{stroke-linecap:round;}.cls-9{fill:#9a4d9c;}.cls-10,.cls-11{fill:none;}</style></defs><path class="cls-1" d="M67.2,99.79a14.338,14.338,0,0,0-4.461,3.033c-2.141,2.141-6.244,13.025-8.831,16.5S43,143.838,43,143.838l66.846.022s-7.4-24.979-9.545-29.885-6.869-12.936-6.869-12.936l-16.5-.446Z"/><path class="cls-2" d="M77.25,103.812q-3.273,3.9-6.608,7.755l-6.707,7.668-6.793,7.591q-3.413,3.782-6.894,7.5,3.273-3.906,6.608-7.756l6.707-7.667,6.794-7.591Q73.77,107.534,77.25,103.812Z"/><path class="cls-2" d="M86.358,104.93q-3.935,4.506-7.929,8.956L70.4,122.753l-8.11,8.789q-4.072,4.38-8.21,8.7,3.932-4.506,7.927-8.956l8.027-8.866,8.111-8.789Q82.219,109.249,86.358,104.93Z"/><path class="cls-2" d="M94.346,109.084q-3.716,4.089-7.491,8.121l-7.588,8.028-7.67,7.95q-3.852,3.96-7.768,7.856,3.715-4.089,7.491-8.121l7.588-8.028,7.671-7.948Q90.43,112.982,94.346,109.084Z"/><path class="cls-2" d="M99.14,117.233q-3.021,3.114-6.1,6.168l-6.191,6.073-6.271,5.991q-3.15,2.979-6.364,5.894,3.019-3.115,6.1-6.169l6.191-6.073,6.272-5.989Q95.926,120.148,99.14,117.233Z"/><path class="cls-2" d="M102.5,127.3c-2.415,2.572-4.962,5-7.5,7.45-2.576,2.4-5.141,4.816-7.84,7.089,2.414-2.573,4.962-5,7.5-7.45C97.231,131.986,99.8,129.573,102.5,127.3Z"/><path class="cls-2" d="M55.521,120.109q2.657,2.7,5.253,5.464l5.156,5.552L71,136.756q2.52,2.831,4.972,5.721-2.658-2.7-5.254-5.463l-5.155-5.553-5.07-5.632Q57.973,123,55.521,120.109Z"/><path class="cls-2" d="M61.592,114.517q3.493,3.4,6.927,6.857l6.832,6.95,6.75,7.03q3.359,3.529,6.653,7.123-3.494-3.4-6.927-6.857L75,128.67l-6.749-7.031Q64.886,118.11,61.592,114.517Z"/><path class="cls-2" d="M67.344,107.167q4.232,4.119,8.4,8.3l8.31,8.387,8.228,8.469q4.1,4.248,8.132,8.562-4.233-4.118-8.405-8.295L83.7,124.2l-8.227-8.468Q71.378,111.48,67.344,107.167Z"/><path class="cls-2" d="M74.534,103.492q3.654,3.581,7.247,7.217l7.152,7.31L96,125.408q3.519,3.71,6.972,7.483-3.654-3.579-7.247-7.217l-7.151-7.31-7.069-7.39Q77.988,107.265,74.534,103.492Z"/><path class="cls-2" d="M84.121,102.533q2.279,2.367,4.5,4.787l4.4,4.875,4.311,4.951q2.14,2.49,4.211,5.04-2.28-2.366-4.5-4.786l-4.4-4.876-4.311-4.951Q86.193,105.083,84.121,102.533Z"/><path class="cls-2" d="M106.01,134.169c-1.439,1.606-2.98,3.1-4.544,4.576s-3.179,2.89-4.883,4.212c1.438-1.607,2.979-3.1,4.544-4.576S104.307,135.492,106.01,134.169Z"/><path class="cls-2" d="M52.166,126.66c1.838,1.975,3.526,4.07,5.227,6.156,1.655,2.122,3.323,4.233,4.838,6.466-1.839-1.975-3.526-4.071-5.227-6.157C55.35,131,53.683,128.891,52.166,126.66Z"/><path class="cls-1" d="M66.236,92.029c-.267-.089.446,8.475.446,8.475s6.513,1.338,9.724,1.249,16.861-.714,16.861-.714l2.587-8.475a16.322,16.322,0,0,0-7.405-1.07c-3.479.535-13.113,1.873-14.9,1.516S66.236,92.029,66.236,92.029Z"/><path class="cls-3" d="M71.678,109.692l-2.23,5.71,11.24,7.85L91.483,127s.446,0,.981-1.249a25.1,25.1,0,0,0,.714-3.122c.178-.268,1.07-2.23,1.07-2.23l.892.892s.446.089.357-.268a8.119,8.119,0,0,0-.892-1.427s-20.518-9.456-21.321-9.635S71.678,109.692,71.678,109.692Z"/><path class="cls-4" d="M84.55,46.187s-1.4,2.734-.449,4.755,2.029,2.364,3.936,1.777a47.038,47.038,0,0,1,5.57-1.079S93.6,56.269,86.981,59.6s-12.068,4.246-12.872,3.859-4.217-1.933-4.217-1.933,7.509-2.185,5.913-7.588a96.518,96.518,0,0,1-2.844-11.689c.073-.44,2.965-1.839,2.965-1.839Z"/><path class="cls-5" d="M91.661,54.65s-5.8,3.568-9.813,3.568-9.189-.535-10.884-2.5A12.951,12.951,0,0,0,68.2,53.133s-4.728,1.071-6.423,1.7a9.367,9.367,0,0,0-5,4.015,18.523,18.523,0,0,0-2.042,3.9c-.258.679-.367,1.1-.367,1.1s5.977,6.78,6.156,9.991a109.084,109.084,0,0,0,2.184,15.043,8.155,8.155,0,0,0,3.595,5.192s6.231,3.356,10.546.64c1.361-.856,1.428-.357,2.141.089a5.68,5.68,0,0,0,2.587,1.071,3.791,3.791,0,0,0,2.587-.357c1.071-.535,1.249,1.338,3.212-.178s.714-3.48,2.676-2.231a11.553,11.553,0,0,0,5.62,1.339,58.285,58.285,0,0,0,5.978-1.7S102.9,71.6,103.794,68.834s-.181-10.2-.181-10.2-.479-1.158-6.231-3.954A7.217,7.217,0,0,0,91.661,54.65Z"/><path class="cls-4" d="M92.7,27.793a15.456,15.456,0,0,1,.712,8.608,29.143,29.143,0,0,1-4.283,9.054c-.728,1.181-2.739,3.659-4.608,3.154s-6.038-3.53-8.248-5.466-4.825-6.207-5.646-11.409,6.52-8.873,9.934-11.849S90.916,22.287,92.7,27.793Z"/><path class="cls-4" d="M86.719,31.384a13.4,13.4,0,0,0,.053,3.591,8.234,8.234,0,0,0,1.2,3.094c.329.634-1.375,1.417-1.375,1.417"/><path class="cls-4" d="M68.02,111.209s1.606,2.052,2.231,2.855a30.76,30.76,0,0,0,5.709,4.282c.714.178,6.245,2.409,6.245,2.409l-9.9,3.389s-4.549-5.084-5.441-5.62S63.2,113.8,63.2,113.8l5.174-2.587Z"/><path class="cls-4" d="M88.36,124.5s2.944.625,1.071,1.338a15.2,15.2,0,0,1-5.174.447l1.338-1.7Z"/><path class="cls-4" d="M89.877,109.871l-4.1,6.155a7.452,7.452,0,0,1-2.409,1.517,17.7,17.7,0,0,0-4.46,1.249c-.892.535-4.55,2.587-5.8,2.676s-3.925,1.695-3.211,1.963a6.1,6.1,0,0,0,1.784.357c.268,0,1.963.089,1.963.089l-1.7.357s.446,2.5.892,2.5,6.423.624,8.385.535,2.766-.179,4.283-1.428a13.8,13.8,0,0,0,3.479-4.549c.713-1.517,2.141-4.461,2.587-5.264s2.141-3.568,2.141-3.568S91.215,109.692,89.877,109.871Z"/><path class="cls-6" d="M93.755,31.768s1.742,1.81,1.883,3.244-1.564,2.217-.279,2.757,1.625-.742,2.693,1.317,1.108,2.449.688,3.771a13.2,13.2,0,0,1-1.111,2.779c-.2.2-1.394,2.933-1.79,3.139s-2.279-.326-.994,2.927,2.053,3.96,2.657,4.35a11.289,11.289,0,0,0,2.326.8,3.6,3.6,0,0,1-2.757-.279,9.135,9.135,0,0,0-1.93-1.009,17.78,17.78,0,0,1,.66,4.18l-.056,1.637s-.525-3.145-1.258-4.172.005,3.113-.549,3.4-.85-3.579-1.592-5.2-1.312-1.465-2.473-1.767-1.915.194-2.317,0-2.167.3-3.276-1.837a5.85,5.85,0,0,1-.8-3.595s1.191.928,3.168-.3,4.582-5.893,5.277-7.459a25.19,25.19,0,0,0,1.7-6.21A15.144,15.144,0,0,1,93.755,31.768Z"/><path class="cls-7" d="M88.283,41.018a3.557,3.557,0,0,1-4.625.648"/><path class="cls-5" d="M103.374,58.515s3.834,6.591,2.876,12.822c-.95,6.173-.048,22.03-3.17,28.542S93,114.421,93,114.421s-.178-2.141-1.338-2.32a25.042,25.042,0,0,1-3.747-1.249s6.78-16.058,9.189-19.983,4.014-14.9,4.282-18.109S103.374,58.515,103.374,58.515Z"/><path class="cls-5" d="M53.747,64.82s-2.587,19.269-3.39,22.035-1.874,8.118-1.338,10.437.713,2.677,2.408,5.174,8.921,8.654,9.367,9.189,2.677,3.122,2.677,3.122l5.8-3.657s-7.4-13.382-8.118-14.9a13.7,13.7,0,0,0-2.5-3.212l3.836-9.278A29.319,29.319,0,0,0,61.33,71.6,22.378,22.378,0,0,0,55,61.519Z"/><path class="cls-6" d="M83.961,24a4.091,4.091,0,0,1-1.8,3.775c-1.737,1.318-1.986.477-1.986.477s2.13-1.707,2.154-2.825-.71.569-2.966,1.839-3.526.979-4.253,3.813c-.418,1.629-1.312,2.922-.338,4.025A11.435,11.435,0,0,1,76.2,37.052a3.921,3.921,0,0,1-2.417-1.56c-.616-1.188-1.481-3.051-.616-1.188s2.076,2.842,2.5,4.233.07,2.073-.549,3.4-1.4,2.734.727,3.341,2.957,1.154,3.969,4.85-.514,2.2.559,4.66,4.286,1.094,3.329,3.9a12.024,12.024,0,0,1-1.232,3.051,4.745,4.745,0,0,1,.76,2.821c-.22,1.32-.869,3.365-.294,4.474a3.254,3.254,0,0,1,.279,2.669c-.229.721,1,2.9,1,2.9s-.634.328-2.414-1.361-2.907-2.312-3.4-3.462-1.536-1.414-3.777-1.86-4.38-2.05-4.752-2.962-2.581-1.878-3.969-1.259-1.135-1.22-.988-2.1-1.68-3.048-.877-5.374,1.6-2.338.1-3.872a7.021,7.021,0,0,1-2.24-5.872c.366-2.2,1.106-4.789-.4-11.246-2.653-11.343,6.248-17.408,7.991-18.312a25.074,25.074,0,0,1,9.65-3.094c4.265-.3,5.57,1.635,5.57,1.635s4.547-.147,6.345,2.74,6.776,4.969,5.38,11.474a11.452,11.452,0,0,1-2.955,4.873s1.056-3.222-.64-4.554-2.021-.581-3.435-1.757a20.617,20.617,0,0,1-3.173-4.22s3.047,6.044,3.493,6.517-2.892-.9-3.435-2.528A4.442,4.442,0,0,0,85.239,26s.1,5.552-.679,4.654S83.961,24,83.961,24Z"/><path class="cls-8" d="M92.11,33.913s-.123-2.951-1.525-2.425a2.312,2.312,0,0,0-1.2,3.1C89.82,35.569,91.664,36.154,92.11,33.913Z"/><path class="cls-9" d="M92.027,34.146s-.187-1.889-.985-1.608a1.4,1.4,0,0,0-.583,1.935C90.754,35.114,91.853,35.559,92.027,34.146Z"/><path class="cls-8" d="M83.4,34.352s-.123-2.951-1.525-2.425a2.312,2.312,0,0,0-1.2,3.1C81.113,36.008,82.957,36.593,83.4,34.352Z"/><path class="cls-9" d="M83.319,34.585s-.187-1.889-.985-1.607a1.4,1.4,0,0,0-.582,1.934C82.046,35.554,83.146,36,83.319,34.585Z"/><path class="cls-9" d="M83.492,17.278a12.132,12.132,0,0,1-3.09,5.427,25.347,25.347,0,0,1-5.154,3.626c-.9.535-1.8,1.068-2.646,1.66a9.621,9.621,0,0,0-2.271,2.048,7.692,7.692,0,0,0-1.227,2.77,9.792,9.792,0,0,0-.314,3.036c.1,2.05,1.243,3.863,2.338,5.629s2.211,3.741,2.062,5.956c-.175,2.208-1.782,3.9-1.646,6.018a6.313,6.313,0,0,0,2.886,5.227A6.434,6.434,0,0,1,71.3,53.454c-.177-2.22,1.424-4.027,1.507-6.048.085-2.051-.964-3.953-2.064-5.694s-2.321-3.626-2.45-5.835a10.265,10.265,0,0,1,.351-3.185,8.139,8.139,0,0,1,1.326-2.926,10.047,10.047,0,0,1,2.387-2.128c.87-.6,1.787-1.122,2.7-1.637a25.281,25.281,0,0,0,5.175-3.469A12.011,12.011,0,0,0,83.492,17.278Z"/><path class="cls-9" d="M94.108,36.4l-.4,2.564a3.152,3.152,0,0,0,.281,2.391A15.947,15.947,0,0,1,95.6,43.422a2.738,2.738,0,0,1-.387,2.681c-1.1,1.53-2.987,1.991-3.946,3.328a1.77,1.77,0,0,0-.353,1.106,1.956,1.956,0,0,0,.456,1.1A5.2,5.2,0,0,0,93.493,53a4.975,4.975,0,0,1-2.311-1.206,2.213,2.213,0,0,1-.583-1.232,2.12,2.12,0,0,1,.346-1.341,6.455,6.455,0,0,1,1.99-1.759A6.674,6.674,0,0,0,94.8,45.82a2.267,2.267,0,0,0,.382-2.214c-.31-.729-1.056-1.253-1.522-2.048a3.44,3.44,0,0,1-.2-2.637C93.68,38.079,93.879,37.24,94.108,36.4Z"/><path class="cls-9" d="M75.933,47.782a2.574,2.574,0,0,1,1.969,1.1,3.885,3.885,0,0,1,.722,2.222,18.363,18.363,0,0,1-.915,4.5,6.162,6.162,0,0,0-.2,2.177,4.8,4.8,0,0,0,.739,2.029,5.2,5.2,0,0,0,3.631,2.358,4.963,4.963,0,0,1-3.947-2.143,4.753,4.753,0,0,1-.872-2.19,6.575,6.575,0,0,1,.167-2.344,20.419,20.419,0,0,0,1.017-4.384,3.6,3.6,0,0,0-.54-2.088A2.56,2.56,0,0,0,75.933,47.782Z"/><path class="cls-9" d="M78.951,70.485c-1.246-1.91-.417-4.467-1.564-6.255a4.643,4.643,0,0,0-2.638-1.6A11.384,11.384,0,0,1,71.678,61.3a5.429,5.429,0,0,1-2.122-2.637,4.52,4.52,0,0,1,.216-3.354,18.3,18.3,0,0,0,1.2-3.034,2.985,2.985,0,0,0-.7-3,3.1,3.1,0,0,1,.942,3.041,18.028,18.028,0,0,1-1.083,3.127,4.272,4.272,0,0,0-.148,3.065,4.973,4.973,0,0,0,1.973,2.378,10.949,10.949,0,0,0,2.936,1.31,4.816,4.816,0,0,1,2.817,1.828C78.9,66.126,77.862,68.5,78.951,70.485Z"/><path class="cls-9" d="M66.166,34.879c-1.072,2.375-1.777,5.094-1,7.589A8.655,8.655,0,0,0,67.231,45.7a6.25,6.25,0,0,1,1.778,3.617,5.073,5.073,0,0,1-.018,1.038,1.892,1.892,0,0,1-.4,1.036c-.513.522-.974.9-1.42,1.4a10.311,10.311,0,0,0-2.149,3.191,2.943,2.943,0,0,0-.106,1.835,3.9,3.9,0,0,0,1.06,1.565,7.461,7.461,0,0,1,1.273,1.534,2.08,2.08,0,0,1,.188,1.917,2.022,2.022,0,0,0-.293-1.855A7.317,7.317,0,0,0,65.8,59.553a4.122,4.122,0,0,1-1.188-1.642,3.286,3.286,0,0,1,.042-2.052,9.983,9.983,0,0,1,2.179-3.376c.427-.492.98-.97,1.387-1.392a2.594,2.594,0,0,0,.29-1.727,5.772,5.772,0,0,0-1.628-3.37A8.552,8.552,0,0,1,64.8,42.575a8.454,8.454,0,0,1-.061-4A15.178,15.178,0,0,1,66.166,34.879Z"/><path class="cls-9" d="M84.5,15.538c.134,1.266.274,2.515.3,3.8a5.41,5.41,0,0,1-1.282,3.645,8.685,8.685,0,0,1-3.178,2.205c-.593.252-1.222.417-1.8.626a2.339,2.339,0,0,0-1.439,1.075l-.02-.037.341.1-.352-.051-.03,0,.01-.032a2.374,2.374,0,0,1,1.388-1.3c.595-.261,1.184-.46,1.74-.745a8.769,8.769,0,0,0,2.968-2.159,5.212,5.212,0,0,0,1.282-3.337C84.472,18.085,84.43,16.8,84.5,15.538Z"/><path class="cls-9" d="M82.719,16.332a13.191,13.191,0,0,1-2.343,2.947,8.01,8.01,0,0,1-3.466,1.514,54.727,54.727,0,0,0-7.16,2.127q-.876.319-1.743.669a7.767,7.767,0,0,0-1.629.8A5.6,5.6,0,0,0,64.7,27.5a7.784,7.784,0,0,0-.143,3.643A5.5,5.5,0,0,0,66.391,34.3,5.623,5.623,0,0,1,64.323,31.2a8.041,8.041,0,0,1,.007-3.79,9.563,9.563,0,0,1,.591-1.819,3.863,3.863,0,0,1,1.189-1.565,8.069,8.069,0,0,1,1.716-.877c.58-.242,1.164-.476,1.752-.7a49.47,49.47,0,0,1,7.249-2.032,7.775,7.775,0,0,0,3.4-1.332A13.087,13.087,0,0,0,82.719,16.332Z"/><path class="cls-10" d="M83.392,29.9l-.97-.408a3.82,3.82,0,0,0-.652-.228,2.517,2.517,0,0,0-1.53.206,7.523,7.523,0,0,0-1.335.822"/><path class="cls-10" d="M91.548,29.94a3.16,3.16,0,0,0-2.453-.576"/><path class="cls-9" d="M85.138,16.062A4.676,4.676,0,0,0,86.511,20a13.881,13.881,0,0,0,3.727,2.216A8.407,8.407,0,0,1,93.759,25a3.838,3.838,0,0,1,.57,2.2,4.948,4.948,0,0,1-.662,2.126,4.251,4.251,0,0,0-.229-4.118,8.458,8.458,0,0,0-3.418-2.54,13.1,13.1,0,0,1-3.779-2.394,4.466,4.466,0,0,1-1.107-1.979A5.328,5.328,0,0,1,85.138,16.062Z"/><rect class="cls-11" x="14.5" y="13.5" width="132" height="132"/></svg>