<svg id="word" xmlns="http://www.w3.org/2000/svg" viewBox="0 0 160 160"><defs><style>.cls-1{fill:#006695;}</style></defs><path class="cls-1" d="M26.382,53.362H14.774V42.1H37.816v67.206H26.382Z"/><path class="cls-1" d="M46.541,75.27c0-19.2,7.942-34.04,23.216-34.04S92.974,56.067,92.974,75.27c0,18.764-7.855,35.085-23.217,35.085S46.541,94.034,46.541,75.27Zm35.086,0c0-11.7-2.967-22.781-11.87-22.781S57.887,63.574,57.887,75.27c0,11.87,2.881,23.827,11.87,23.827S81.627,87.14,81.627,75.27Z"/><path class="cls-1" d="M99.629,75.27c0-19.2,7.943-34.04,23.217-34.04s23.216,14.837,23.216,34.04c0,18.764-7.855,35.085-23.216,35.085S99.629,94.034,99.629,75.27Zm35.087,0c0-11.7-2.967-22.781-11.87-22.781s-11.87,11.085-11.87,22.781c0,11.87,2.88,23.827,11.87,23.827S134.716,87.14,134.716,75.27Z"/></svg>