<svg id="word" xmlns="http://www.w3.org/2000/svg" viewBox="0 0 160 160"><defs><style>.cls-1{fill:#dcdedf;}.cls-1,.cls-10,.cls-11,.cls-2,.cls-3,.cls-4,.cls-5,.cls-6,.cls-8,.cls-9{stroke:#9d4b9c;}.cls-1,.cls-10,.cls-11,.cls-2,.cls-3,.cls-4,.cls-5,.cls-6,.cls-7,.cls-8,.cls-9{stroke-miterlimit:10;stroke-width:0.514px;}.cls-2{fill:#4a4a4c;}.cls-3{fill:#c1d969;}.cls-4{fill:#afc55e;}.cls-5{fill:#aba09b;}.cls-6{fill:#656768;}.cls-7{fill:#1b75ba;stroke:#9c4c9c;}.cls-8{fill:#fdeadf;}.cls-9{fill:#bac639;}.cls-10{fill:none;}.cls-11{fill:#fff;}.cls-12{fill:#9d4b9c;}</style></defs><path class="cls-1" d="M33.683,71.153s-1.467,3.424-.326,4.728,45.655,35.057,45.655,35.057a5.164,5.164,0,0,0,4.565,1.3,24.418,24.418,0,0,0,4.892-1.3l-4.4-2.772s-1.793,1.956-3.261.978S37.433,77.512,37.433,77.512a3.722,3.722,0,0,1-1.63-3.1V71.479Z"/><path class="cls-2" d="M128.579,110.122s.734,2.283-.9,2.2-2.854-1.875-7.093-1.468-11.414,3.017-15.246,4.239-8.9,2.856-11.834,1.307S77.3,103.6,77.3,103.6L56.918,88.681S32.421,70.9,31.877,69.815s-.363-5.076-.363-5.076l7.614.544L128.416,109.8"/><path class="cls-3" d="M112.926,67.892s-1.956-8.479-6.848-8.968-9.457,12.392-9.457,12.392l16.631,2.609Z"/><path class="cls-4" d="M33.846,41.885s3.75-2.609,5.707-2.038,4.647,4.729,6.2,7.174,7.745,9.05,9.457,12.148a30.949,30.949,0,0,0,5.3,6.359l-8.723.9L37.107,49.793Z"/><path class="cls-5" d="M40.124,39.113s-1.223-3.668-2.038-4.076-5.626.734-6.849,1.141S20.8,48.163,22.6,49.956s2.364,1.142,4.728-.407a48.516,48.516,0,0,1,6.033-3.506c2.609-1.3-.082-3.587-.082-3.587a7.854,7.854,0,0,1,2.935-.9,11.83,11.83,0,0,0,3.751-1.3Z"/><path class="cls-6" d="M37.433,63.49s-5.707-1.3-6.522.978,8.479,8.8,8.479,8.8L74.609,99.361S88.8,112.242,92.056,113.546a16.056,16.056,0,0,0,11.413.49c3.914-1.468,7.5-3.424,10.925-4.24s12.229.489,14.022,0-8.8-8.641-8.8-8.641L48.684,66.424Z"/><path class="cls-3" d="M108.2,71.479S96.458,68.87,90.914,67.4s-12.392-6.522-18.1-6.848-11.9,2.771-18.425,2.771-8.8-4.076-10.11-5.869-10.6-17.773-10.6-17.773-5.054-.815-5.707,1.3-1.3,4.24-.163,5.87,6.685,9.783,7.175,13.534,7.011,12.555,8.8,13.7,14.838,4.239,18.751,4.239,11.9,2.772,15.816,4.892A141.516,141.516,0,0,1,90.1,91.208l18.262,2.609Z"/><path class="cls-1" d="M55.858,81.1s.163-3.75,4.892-4.239S84.392,90.719,86.512,92.024,91.4,105.231,91.4,105.231L86.186,102.3a26.045,26.045,0,0,0-2.609-7.5c-1.794-2.935-17.936-13.045-19.729-13.534s-2.935-.326-2.935.979-2.12,2.119-2.609,1.63S56.021,82.567,55.858,81.1Z"/><path class="cls-5" d="M33.6,38.38s-.734-3.914-3.506-3.914-5.218,3.18-6.93,3.995-5.054,1.957-7.174,4.566-5.136,8.071-.978,8.967,5.788-3.913,7.908-4.81,4.728-1.712,4.728-1.712-.9-3.994,1.549-4.81a12.166,12.166,0,0,1,4.4-.652Z"/><path class="cls-3" d="M99.067,74.088S90.1,62.674,88.142,60.555s-5.217-5.055-8.8-4.892-4.892,6.359-5.381,9.62-3.75,12.066-4.4,14.512.489,7.989.489,7.989a9.873,9.873,0,0,0,4.728,0,14.127,14.127,0,0,0,4.077-1.793,6.162,6.162,0,0,1-1.957-7.175c1.793-4.4,3.913-10.272,3.913-10.272s6.848,12.555,8.8,17.447,2.12,7.337,7.011,8.968,13.044,1.467,13.044,1.467S103.959,80.121,99.067,74.088Z"/><path class="cls-7" d="M79.175,86.235l2.282,1.875s-1.549-.163-2.119.571S78.2,91.7,78.6,92.35s1.794,1.63,1.141,2.282-3.016-.489-3.261-1.222-2.446-.734-3.179-1.468-2.691-1.63-2.854-2.2-.407-1.957-.407-1.957,4.973-.244,6.033-1.141S79.175,86.235,79.175,86.235Z"/><path class="cls-8" d="M112.725,79.694s7.614,5.62,11.058,6.526a92.891,92.891,0,0,1,9.245,3.354,24.692,24.692,0,0,1-2.085,4.35c-1.178,1.813-3.9,6.073-4.441,6.345s-4.713.453-5.257,0-6.8-4.8-8.157-7.8S112.725,79.694,112.725,79.694Z"/><path class="cls-9" d="M134.569,73.622a14.9,14.9,0,0,0-12.023-7.687c-8.478-.489-12.065,2.772-13.7,4.892a23.944,23.944,0,0,0-4.728,15.816c.137,3.095,0,9.131,8.315,15.327s15.7-2.335,15.7-2.335-5.818-.145-8.359-1.415c-2.246-1.123-5.87-7.012-6.033-9.784s-.163-6.359-.163-6.359,8.315,5.544,10.761,6.686,9.294,1.956,9.294,1.956S139.1,82.142,134.569,73.622Z"/><path class="cls-10" d="M121.822,95.236a11.792,11.792,0,0,1,1.546-.324,1.1,1.1,0,0,1,.59.029,1.164,1.164,0,0,1,.5.586l.414.8"/><path class="cls-11" d="M120.1,91.208s.326-2.935-1.386-2.445-2.609,3.668-1.386,4.565S120.1,91.208,120.1,91.208Z"/><path class="cls-12" d="M120.106,91.621s.2-1.824-.861-1.52-1.621,2.28-.861,2.837S120.106,91.621,120.106,91.621Z"/><path class="cls-11" d="M129.889,94.925s.327-2.935-1.385-2.446-2.609,3.668-1.386,4.565S129.889,94.925,129.889,94.925Z"/><path class="cls-12" d="M129.9,95.337s.2-1.823-.862-1.52-1.62,2.28-.861,2.837S129.9,95.337,129.9,95.337Z"/><path class="cls-12" d="M127.22,89.408l.409-.906a9.967,9.967,0,0,0,.415-1.043,12.491,12.491,0,0,0,.45-1.378A16.115,16.115,0,0,0,128.9,84.4c.139-.6.2-1.244.294-1.906.046-.669.12-1.359.106-2.065.027-.705-.041-1.419-.076-2.136-.093-.71-.155-1.427-.308-2.118-.113-.7-.31-1.368-.476-2.022-.213-.638-.39-1.269-.636-1.837a16.532,16.532,0,0,0-.708-1.594,13.243,13.243,0,0,0-.7-1.3,10.435,10.435,0,0,0-.605-.965l-.564-.818.589.8a10.28,10.28,0,0,1,.637.948,13.112,13.112,0,0,1,.745,1.281,16.6,16.6,0,0,1,.764,1.582c.266.565.464,1.195.7,1.834.189.654.409,1.325.546,2.029.177.7.262,1.42.379,2.14.06.726.151,1.452.146,2.171.037.719-.016,1.426-.042,2.111-.075.68-.117,1.345-.24,1.963a16.992,16.992,0,0,1-.365,1.737,13.156,13.156,0,0,1-.424,1.447,10.567,10.567,0,0,1-.4,1.089l-.38.919Z"/><path class="cls-12" d="M129.4,89.952l.409-.906A9.952,9.952,0,0,0,130.22,88a12.929,12.929,0,0,0,.45-1.378,16.122,16.122,0,0,0,.407-1.677c.139-.6.2-1.244.294-1.907.047-.668.12-1.358.106-2.064.027-.7-.04-1.419-.076-2.136-.093-.71-.155-1.427-.308-2.118-.113-.7-.309-1.368-.476-2.022-.213-.638-.39-1.269-.635-1.837a16.529,16.529,0,0,0-.709-1.594,13.129,13.129,0,0,0-.7-1.3,10.3,10.3,0,0,0-.605-.965l-.564-.819.59.8a10.358,10.358,0,0,1,.636.948,13.107,13.107,0,0,1,.746,1.281,16.6,16.6,0,0,1,.763,1.582c.266.565.464,1.2.7,1.834.189.654.409,1.325.546,2.029.177.7.263,1.42.38,2.14.059.726.15,1.451.145,2.171.037.719-.015,1.425-.042,2.111-.075.68-.117,1.345-.24,1.963a16.707,16.707,0,0,1-.365,1.736,13.186,13.186,0,0,1-.423,1.448,10.544,10.544,0,0,1-.4,1.089l-.38.919Z"/></svg>