<svg id="word" xmlns="http://www.w3.org/2000/svg" viewBox="0 0 160 160"><defs><style>.cls-1{fill:#c9cacc;}.cls-1,.cls-10,.cls-11,.cls-2,.cls-3,.cls-4,.cls-5,.cls-6,.cls-7,.cls-8,.cls-9{stroke:#9c4c9c;stroke-width:0.585px;}.cls-2{fill:#e9e9eb;}.cls-3{fill:#fff;}.cls-4,.cls-9{fill:#fbe2d8;}.cls-5{fill:#fab216;}.cls-6{fill:#998379;}.cls-7{fill:#009247;}.cls-8{fill:#915d3c;}.cls-11,.cls-9{stroke-linecap:round;}.cls-10{fill:#fdf9d5;}.cls-11{fill:none;}.cls-12{fill:#9c4c9c;}.cls-13{fill:#282560;}</style></defs><path class="cls-1" d="M11.27,19.324,87.22,32.373s5.578-.495,5.95,3.473,0,16.868,0,16.868L92.8,110.757s1.673,11.905-6.694,12.4c-10.093.6-74.834,3.375-74.834,3.375"/><polyline class="cls-2" points="11.27 26.177 88.582 39.568 88.744 115.913 11.27 119.331"/><path class="cls-3" d="M107.95,72.857s.23,11.649.414,13.979a31.237,31.237,0,0,0,2.625,8.652,14.874,14.874,0,0,0,2.487,2.14s2.9-4.9,3.638-6.371,2.9-12.98,2.9-12.98l-1.7-3.9-5.434.334"/><path class="cls-4" d="M110.022,66.486l-.368,4.136s-.6,2.948,1.335,3.9,5.48.523,5.711.523,2.349.095,2.993-.808a19.92,19.92,0,0,0,1.428-2.662V68.911"/><path class="cls-5" d="M111.368,75.509l.9,4.823a27.362,27.362,0,0,0-1.392,4c-.4,1.745.4,8.518.4,8.518L112.324,96,117,89.022s-1.949-3.354-1.949-4.277V80.23l1.988-4.618-2.983-1.437Z"/><path class="cls-6" d="M108.884,111.118s-.514,2.023-2.042,7.225c-.407,1.387-.514,1.892-1.955,8.526-.895,4.122-3.16,19.721-3.16,19.721l11.175-.166s5.663-24.166,6.238-24.166c.895,0,2.934,5.677,3.132,6.5.085.351,4.125,17.351,4.125,17.351l14.472.083s-3.3-16.741-3.877-18.272c-1.538-4.069-1.688-9.781-2.194-12.316-.7-3.488,3.307-5,3.307-5H115.542Z"/><path class="cls-4" d="M80.357,67.4l-8.746-1.539-5.169-.308s-2.683-3.078-2.584-4.31-.795-6.055-1.392-5.541-.1,5.131-.1,5.131-3.479-5.542-4.075-4.823,2.385,6.362,2.385,6.362-4.87-5.028-5.665-4.105,4.075,6.363,4.075,6.363-6.858-2.668-7.156-1.334,2.087,1.95,2.683,2.052A14.069,14.069,0,0,1,58.292,67.4c.1.308-.9,1.95-.9,1.95s-4.473,3.079-3.28,4.1,4.672-2.463,4.672-2.463a26.859,26.859,0,0,1,6.659,1.129c2.286.923,2.883.616,2.883.616l14.014,4.1S82.842,68.633,80.357,67.4Z"/><path class="cls-3" d="M106.8,69.454s-6.659-1.128-12.325-1.744a64.741,64.741,0,0,1-8.051-1.232l-.3,9.134s-.8,1.437,1.59,2.976,12.822,5.234,14.015,5.849S106.9,87,106.9,87s.7-8.825.6-10.979S106.8,69.454,106.8,69.454Z"/><path class="cls-3" d="M88.905,64.015s2.684,1.437,2.088,5.542S89.6,74.175,89.4,75.92s-.6,3.9-1.491,4.515a1.871,1.871,0,0,1-2.783-.821c-.7-1.231-1.491-.924-3.081-.924s-2.088,1.848-1.988-.41.3-.513.3-3.694-.3-5.644-.8-6.363-2.186-.719-1.391-1.129a3.245,3.245,0,0,1,2.683-.616c1.292.309.7.719,2.485,0S88.011,63.2,88.905,64.015Z"/><path class="cls-3" d="M129.756,73.662s8.747,8.21,10.635,10.468,5.466,6.977,5.566,9.133a7.963,7.963,0,0,1-.894,3.9l-8.25-.821s1.094-.1-1.391-2.873-2.585-.924-2.585-.924V94.7s-3.578-8.107-3.578-9.749S129.756,73.662,129.756,73.662Z"/><path class="cls-3" d="M136.813,102.4s-2.684-.2-2.385-2.154,1.391-1.95,1.292-3.079-.2-3.181,1.193-3.387.3-2.872,5.168-.615,4.671,4,5.466,6.054,0,3.08-1.192,3.284a36.705,36.705,0,0,0-4.834,1.858s1.454-2.987-.533-3.5S136.813,102.4,136.813,102.4Z"/><path class="cls-7" d="M105.5,70.071s-.7,8.619-.9,10.57a19.021,19.021,0,0,1-1.391,4.617s.7.718,1.093,7.081,2.485,17.651,3.877,18.574,2.087,1.949,6.261,1.949,16.6-.614,17-.718a15.419,15.419,0,0,0,2.187-1.745s-1.591-7.079-1.193-9.03.8-6.567.8-6.567-1.292-2.361-2.485-4.823-.994-9.236-.5-11.494A7.717,7.717,0,0,1,131.943,75a28.028,28.028,0,0,0-4.672-4.31,22.926,22.926,0,0,0-5.92-1.823S119.22,79.716,117.928,83s-5.069,12.314-5.069,12.314a17.05,17.05,0,0,1-3.18-8.518c-.4-5.028-.3-18.061-.3-18.061Z"/><path class="cls-3" d="M113.655,74.689l-4.871,4.925-.894-9.851,1.987-1.335s0,3.8,1.292,4.515a18.8,18.8,0,0,0,2.882,1.232Z"/><path class="cls-3" d="M114.847,74.381s2.485,6.772,2.882,6.772,2.754-2.342,2.952-2.65,1.223-8.227,1.223-8.227a21.226,21.226,0,0,1-2.982,2.36A22.947,22.947,0,0,1,114.847,74.381Z"/><path class="cls-8" d="M122.8,45.339s2.983,1.335,3.082,4a20.09,20.09,0,0,1-.8,6.362,6.651,6.651,0,0,0-.3,2.359s-.279-6.607-1.869-7.838a25.3,25.3,0,0,0-2.405-1.7L118.723,43.6A8.127,8.127,0,0,1,122.8,45.339Z"/><path class="cls-4" d="M124.091,50.778s.4,4.618.4,6.876-.1,8-1.789,10.262-3.181,4.925-7.653,4.207-5.864-4.31-7.355-10.057-1.491-10.159,2.683-13.238S122.5,45.955,124.091,50.778Z"/><path class="cls-8" d="M120.811,45.236s.6,5.029-.2,6.876-3.578,3.181-3.578,3.181a4.874,4.874,0,0,0,.795-3.9c-.6-2.052-.2.923-2.783,2.257s-7.057,1.335-7.853,2.156.835,2.856,1.033,4.5a15.3,15.3,0,0,0,.737,3.09s-2.962-3.484-3.559-4,4.473,9.031,4.473,9.031-1.49,1.129-1.59.719A7.926,7.926,0,0,0,106,66.787c-1.193-.924-1.889-.309-2.982-2.258s-.2,1.232-.2,1.232-.3-1.437-1.093-4.311a31.109,31.109,0,0,1-1.292-6.465A12.019,12.019,0,0,1,101,48.7c.994-3.181,5.005-5.418,8.782-6.546s7.752-.924,9.343.308A4.17,4.17,0,0,1,120.811,45.236Z"/><path class="cls-9" d="M120.711,56.012s-.994,3.592-.1,5.335,1.392,2.772.994,3.182a3.925,3.925,0,0,1-1.988.718"/><path class="cls-9" d="M121.258,54.421s.05-.2.944-1.078,2.087.2,2.087.2"/><path class="cls-9" d="M112.263,56.063c1.659-.6,2.058-1.369,3.926-.257"/><path class="cls-4" d="M106.92,60.53s-2.286-1.794-2.932.155a2.011,2.011,0,0,0,.646,2.308c.546.257,1.441.257,1.689,1.129s.994,1.694,1.342,1.386a2.45,2.45,0,0,0,.746-.924"/><path class="cls-3" d="M130.988,107.574s1.491,7.491,1.59,8.826.5,5.849.5,5.849,4.274-.924,7.454-1.848,9.045-.923,9.045-.923l-5.168-12.006Z"/><path class="cls-3" d="M129.855,107.424s-2.783-2.36-3.28.821-.7,11.494.5,13.238.895,3.8,1.193,1.745.9-3.9,2.286-3.49,2.5,2.377,2.5,2.377.584-.222.087-5.045a63.773,63.773,0,0,0-1.883-9.647Z"/><path class="cls-10" d="M149.58,119.357l-.243,3.049s-.5.308-3.777-.1-8.748.307-9.145.615a8.147,8.147,0,0,1-2.683.821.93.93,0,1,1-.2-1.847c4.3-.821,9.641-3.078,11.729-3.078A21.258,21.258,0,0,1,149.58,119.357Z"/><path class="cls-4" d="M142.765,101.479l-1.037,3.448,1.037,2.567-6.563.5s-1.774,3.946-2.669,3.946-.932-2.25.459-4.3.833-1.65,1.43-1.856.8-.307.8-1.539-.6-4.1,1.192-4.515A5.159,5.159,0,0,1,142.765,101.479Z"/><path class="cls-11" d="M115.477,66.185c.519-.078.971.327,1.41.622a3.181,3.181,0,0,0,2.19.565,2.353,2.353,0,0,0,1.808-1.314"/><path class="cls-3" d="M113.285,58.352s-.686,2.167.746,2.863,1.724-.814,1.933-1.272c.378-.827-.227-2.77-1.185-2.711A1.738,1.738,0,0,0,113.285,58.352Z"/><path class="cls-12" d="M114.086,59.253s-.423,1.336.46,1.765,1.062-.5,1.191-.784c.233-.51-.14-1.707-.73-1.671A1.07,1.07,0,0,0,114.086,59.253Z"/><path class="cls-3" d="M121.459,58.352s-.686,2.167.746,2.863,1.724-.814,1.933-1.272c.378-.827-.226-2.77-1.184-2.711A1.738,1.738,0,0,0,121.459,58.352Z"/><path class="cls-12" d="M122.26,59.253s-.423,1.336.46,1.765,1.062-.5,1.191-.784c.233-.51-.14-1.707-.73-1.671A1.072,1.072,0,0,0,122.26,59.253Z"/><path class="cls-13" d="M30.142,55.555c-3.992-.089-8.034-.046-12.027.123a27.164,27.164,0,0,1,6.561-10.1,4.152,4.152,0,0,0,1.035-1.332,3.6,3.6,0,0,0,.235-1.39,5.207,5.207,0,0,0-.657-2.765,2.9,2.9,0,0,0-2.518-1.466c-1.534.08-2.476,1.507-3.195,2.892L18.408,43.76a.5.5,0,0,0,.2.672.475.475,0,0,0,.651-.2l1.168-2.248c.593-1.141,1.341-2.315,2.4-2.37a1.961,1.961,0,0,1,1.655,1,4.221,4.221,0,0,1,.509,2.231,2.659,2.659,0,0,1-.154,1,3.551,3.551,0,0,1-.87,1.061,28.086,28.086,0,0,0-7,11.137l-.233.691.709-.033c4.2-.194,8.471-.248,12.682-.153h.01a.5.5,0,0,0,.011-.993Z"/><path class="cls-13" d="M38.766,48.14l-2.938-.48c-.012-.749-.029-1.5-.011-2.244a.49.49,0,0,0-.468-.509.48.48,0,0,0-.493.484c-.017.7,0,1.408.01,2.112L33.4,47.264a1.057,1.057,0,0,0-.853.149.784.784,0,0,0-.255.809.639.639,0,0,0,.545.484.477.477,0,0,0,.526-.442l1.508.246c.036,1.2.1,2.392.21,3.578a.488.488,0,0,0,.478.45l.046,0A.492.492,0,0,0,36.037,52c-.1-1.1-.168-2.215-.2-3.328l2.784.454a.473.473,0,0,0,.075,0,.484.484,0,0,0,.474-.418A.493.493,0,0,0,38.766,48.14Z"/><path class="cls-13" d="M44.546,49.726c-1.46,1.624-2.969,3.305-3.5,5.5l-.149.615,9.6.03h0a.5.5,0,0,0,0-.993l-8.341-.026A14.205,14.205,0,0,1,45.251,50.4l.525-.587c1.514-1.711,3.227-4.019,3.032-6.7a2.768,2.768,0,0,0-1.478-2.5,3.233,3.233,0,0,0-1.373-.165l-2.646.09a4.1,4.1,0,0,0-1.957.411,1.854,1.854,0,0,0-.891,2.154.476.476,0,0,0,.623.282.5.5,0,0,0,.273-.643.877.877,0,0,1,.465-.927,3.345,3.345,0,0,1,1.519-.285l2.645-.089a2.392,2.392,0,0,1,.983.093,1.9,1.9,0,0,1,.878,1.651c.168,2.3-1.4,4.389-2.783,5.954Z"/><path class="cls-13" d="M22.81,78.056a.5.5,0,0,0,.382.581.466.466,0,0,0,.09.009.484.484,0,0,0,.472-.4,54.092,54.092,0,0,0,.82-7.156c.784-.036,1.57-.094,2.351-.112a.49.49,0,0,0,.47-.508.463.463,0,0,0-.491-.485c-.762.018-1.528.069-2.292.1.02-.664.039-1.328.034-1.991a.489.489,0,0,0-.48-.494h0a.489.489,0,0,0-.477.5c0,.675-.013,1.352-.035,2.029-1.952.106-3.9.247-5.841.462a18.347,18.347,0,0,1,3.146-3.807c.162-.144.329-.283.5-.423a8.046,8.046,0,0,0,1.669-1.71c.085-.129.164-.265.244-.4a2.049,2.049,0,0,1,.719-.866.5.5,0,0,0,.236-.658.474.474,0,0,0-.637-.244,2.824,2.824,0,0,0-1.141,1.254c-.071.121-.142.242-.217.358a7.236,7.236,0,0,1-1.479,1.5c-.173.145-.346.289-.515.439a21.19,21.19,0,0,0-3.883,4.907l-.536.879,1-.121c2.217-.268,4.458-.437,6.7-.562A53.333,53.333,0,0,1,22.81,78.056Z"/><path class="cls-13" d="M34.057,73.279a.487.487,0,0,0,.465.625.485.485,0,0,0,.464-.368,17.9,17.9,0,0,0,.487-2.772c.687-.031,1.375-.055,2.057-.058a.5.5,0,0,0,0-.992h0c-.658,0-1.32.027-1.982.054.02-.489.026-.98.006-1.471a.5.5,0,0,0-.5-.476.491.491,0,0,0-.46.517c.019.5.01.988-.013,1.481-.643.039-1.287.081-1.925.143a.5.5,0,0,0,.045.991l.046,0c.585-.057,1.174-.094,1.763-.131A17.033,17.033,0,0,1,34.057,73.279Z"/><path class="cls-13" d="M45.621,65.542c-.034.138-.066.276-.095.416a17.885,17.885,0,0,0-.261,3.4L45.178,76.5a.489.489,0,0,0,.474.5h.006a.488.488,0,0,0,.481-.49l.088-7.146a17.123,17.123,0,0,1,.24-3.2c.1-.479.238-.948.386-1.443a12.209,12.209,0,0,0,.525-2.282l.227-2.244-1.118,1.938c-1.385,2.4-2.818,4.819-4.259,7.186a.506.506,0,0,0,.151.684.47.47,0,0,0,.663-.156C43.907,68.425,44.77,66.986,45.621,65.542Z"/><path class="cls-13" d="M29.5,95.4a31.453,31.453,0,0,0-9.061,1.08,23.615,23.615,0,0,1,4.9-6.954c.625-.61,1.789-1.747,1.4-3.081A2.435,2.435,0,0,0,23.9,85a4.775,4.775,0,0,0-3.512,2.635.5.5,0,0,0,.217.665.47.47,0,0,0,.644-.223,3.8,3.8,0,0,1,2.793-2.1c.732-.112,1.594.139,1.775.751.2.69-.483,1.432-1.139,2.073a24.635,24.635,0,0,0-5.542,8.246l-.4.968.976-.3a30.026,30.026,0,0,1,9.758-1.326.51.51,0,0,0,.494-.483A.491.491,0,0,0,29.5,95.4Z"/><path class="cls-13" d="M38.386,88.961H36.527c.008-.271.008-.544.019-.814a.491.491,0,0,0-.46-.517.52.52,0,0,0-.5.476c-.012.283-.012.57-.02.855H34.42a.5.5,0,0,0,0,.993h1.123c-.012.91-.011,1.821.013,2.726a.489.489,0,0,0,.481.483h.014a.491.491,0,0,0,.467-.51c-.025-.9-.025-1.8-.014-2.7h1.882a.5.5,0,0,0,0-.993Z"/><path class="cls-13" d="M49.945,90.789a1.638,1.638,0,0,0-1.24-.655,3.591,3.591,0,0,0-2.3.183,3.275,3.275,0,0,0-.976.907,10.334,10.334,0,0,0-1.093,1.74,1.419,1.419,0,0,1-.242-.286,2.519,2.519,0,0,1-.186-1.507,12.661,12.661,0,0,1,.764-3.269,5.481,5.481,0,0,1,1.053-1.847,2.328,2.328,0,0,1,1.661-.8.534.534,0,0,0,.488-.489.49.49,0,0,0-.474-.5,3.309,3.309,0,0,0-2.367,1.1,6.443,6.443,0,0,0-1.256,2.175,13.689,13.689,0,0,0-.826,3.532,3.394,3.394,0,0,0,.332,2.138,2.629,2.629,0,0,0,.643.69c-.044.117-.086.234-.127.353a.5.5,0,0,0,.294.633.477.477,0,0,0,.613-.3c.017-.047.033-.095.05-.142a5.385,5.385,0,0,0,2.631.929,2.515,2.515,0,0,0,1.042-.219,3.594,3.594,0,0,0,1.722-3.6A1.605,1.605,0,0,0,49.945,90.789Zm-1.9,3.45c-.852.38-1.9-.106-2.906-.717a9.322,9.322,0,0,1,1.038-1.678,2.376,2.376,0,0,1,.676-.649,2.767,2.767,0,0,1,1.711-.079c.146.022.488.074.568.2a.831.831,0,0,1,.058.3A2.624,2.624,0,0,1,48.046,94.239Z"/><path class="cls-13" d="M48.732,67.867a.491.491,0,0,0,.47.508c.281.007.564.01.845.01a36.132,36.132,0,0,0,5.126-.366.493.493,0,0,0,.41-.56.482.482,0,0,0-.542-.423,34.9,34.9,0,0,1-5.817.346A.468.468,0,0,0,48.732,67.867Z"/><path class="cls-13" d="M50.071,69.15a.5.5,0,0,0,0,.992h5.36a.5.5,0,0,0,0-.992Z"/><path class="cls-13" d="M55.912,89.347a.488.488,0,0,0-.481-.5h-4.61a.5.5,0,0,0,0,.992h4.61A.488.488,0,0,0,55.912,89.347Z"/><path class="cls-13" d="M57.116,91.143a2.075,2.075,0,0,0-1.3-.31l-4.455.015a.5.5,0,0,0,0,.993h0l4.455-.015a1.35,1.35,0,0,1,.745.126.47.47,0,0,0,.278.092.477.477,0,0,0,.393-.209A.507.507,0,0,0,57.116,91.143Z"/></svg>