<svg id="word" xmlns="http://www.w3.org/2000/svg" xmlns:xlink="http://www.w3.org/1999/xlink" viewBox="0 0 160 160"><defs><style>.cls-1{fill:#b69079;}.cls-1,.cls-2,.cls-3,.cls-30,.cls-4,.cls-5,.cls-6,.cls-9{stroke:#9c4c9c;stroke-miterlimit:10;stroke-width:0.308px;}.cls-2{fill:#fff;}.cls-3{fill:#fde1d3;}.cls-4{fill:#773893;}.cls-5{fill:#5891c5;}.cls-6{fill:#ffd9a9;}.cls-7{fill:#6870ad;}.cls-8{fill:#705ba0;}.cls-23,.cls-30,.cls-9{fill:none;}.cls-9{stroke-linecap:round;}.cls-10{fill:#9c4c9c;}.cls-11{fill:#87a45c;}.cls-12{fill:url(#linear-gradient);}.cls-13{fill:#90924f;}.cls-14{fill:#a9b586;}.cls-15{fill:#5a8098;opacity:0.52;}.cls-16{fill:#aed076;}.cls-17{fill:#94b955;}.cls-18{fill:#e8e77b;opacity:0.6;}.cls-19{fill:#a3c36e;}.cls-20{fill:#8db168;}.cls-21{fill:#b7d5de;}.cls-22{fill:#e9f1fa;}.cls-24{fill:#866f61;}.cls-25{fill:#b4b34d;}.cls-26{fill:#a7a849;}.cls-27{fill:#e7f5fa;}.cls-28{fill:#696a6c;}.cls-29{fill:#5e6061;}</style><linearGradient id="linear-gradient" x1="55.456" y1="-198.797" x2="97.221" y2="-198.797" gradientTransform="matrix(0.998, -0.21, 0, 1.002, 1.795, 276.292)" gradientUnits="userSpaceOnUse"><stop offset="0.388" stop-color="#b6e3f8"/><stop offset="1" stop-color="#0d4b55"/></linearGradient></defs><path class="cls-1" d="M71.575,30.542s3.85,2.484,4.471,2.691a13.513,13.513,0,0,0,1.615.373,46.037,46.037,0,0,0,5.631-.456c.745-.29,2.815-1.366,2.815-1.366l3.064-3.768-1.325-3.85-6.169,2.649L71.658,25.366Z"/><path class="cls-2" d="M69.422,37.787s-1.739.621-2.857,4.845S60.354,58.158,64.7,60.518c6.648,3.609,7.577-10.061,7.577-10.061Z"/><path class="cls-3" d="M77.583,28.919s.662,4.134,0,4.961a12.772,12.772,0,0,1-2.976,1.984s5.952,4.3,6.945,4.134,4.464-4.465,4.464-4.465l-3.8-2.149.331-4.3Z"/><path class="cls-2" d="M77.288,33.813s.539,4.388,3.644,4.388,2.4-4.388,2.4-4.388l2.153.289-4.14,17.6-7.453-16.52Z"/><path class="cls-3" d="M74.349,106.061s-2.981,9.281-2.816,13.415,1.423,15.925,1.423,16.917-1.654,8.433-1.654,8.433-2.062,5.471,1.158,5.787c3.362.331,3.968-3.968,3.8-6.779s-.662-7.11-.165-8.6,2.09-13.858,2.149-15.543c.291-8.321.166-13.041.166-13.041Z"/><path class="cls-3" d="M81.386,107.787s2.789,3.693.581,9.37c-1.739,4.472,2.4,16.756,2.561,19.236s.5,7.275.5,7.275,1.158,4.8,3.969,5.623a3.892,3.892,0,0,0,4.3-1.323s-4.3-3.638-5.126-6.284-.331-16.2-.331-16.866-.064-11.468.26-12.3c1.253-3.21-.921-6.883-.921-6.883Z"/><path class="cls-4" d="M71.468,142.621s-1.874,6.118-1.764,7.221a3.728,3.728,0,0,0,3.913,3.307c2.2.033,2.536-1.764,2.756-3.087s-.165-7.661-.165-7.661-.718,4.889-1.1,5.953a1.9,1.9,0,0,1-3.307.716c-.606-.716-.055-6.835-.055-6.835Z"/><path class="cls-4" d="M84.748,141.519a8.987,8.987,0,0,0-.606,3.638c.276,1.267.827,5.236.827,5.236h1.047l-.331-3.417a33.916,33.916,0,0,0,2.977,3.527,16.426,16.426,0,0,0,3.417.5c.717.11,3.693-.331,3.693-1.157s-2.811-2.26-2.811-2.26a3.074,3.074,0,0,1-2.591.606,10.374,10.374,0,0,1-4.188-3.307A32.3,32.3,0,0,1,84.748,141.519Z"/><path class="cls-5" d="M70.043,64.492S66.565,74.6,66.565,78.9s2.981,28.154,2.981,28.154,7.623.663,10.765.828,10.5-1.419,10.5-1.419-.026-20.785-.233-25.245c-.728-15.676-5.3-18.383-5.3-18.383Z"/><path class="cls-3" d="M71.578,18.167s-.593,5.948,1.631,9.284a8.906,8.906,0,0,0,8.6,3.627c2.224-.435,6.227-3.917,6.227-6.963S89.242,13.7,86.4,12.073c-4.825-2.759-12.75,1.161-13.936,2.031S71.578,18.167,71.578,18.167Z"/><path class="cls-6" d="M83.439,12.8a5.219,5.219,0,0,1-3.855,4.5,13.586,13.586,0,0,0-6.825,3.592c-1.038,1.161-.291,2.936-.143,4.822s4,7.689,4,7.689-7.823.495-9.934-2.321c-4.592-6.126,0-13.492,2.076-17.989s6.672-6.238,8.6-6.238a29.679,29.679,0,0,1,4.745.58s3.706.58,4.893,2.611,2.372,8.27,2.965,12.767,3.558,6.238.889,7.834a17.03,17.03,0,0,1-6.375,1.886s3.262-3.482,3.262-6.819.741-5.512-.148-7.253A50.366,50.366,0,0,0,83.439,12.8Z"/><path class="cls-5" d="M73.272,35.013l-4.72,2.65s5.326,15.211,3.74,20.689S66.67,70.258,66.67,70.258L79.9,73.234l1.2-7.748,1.612,8.079,8.6-2.646a22.042,22.042,0,0,1-3.141-7.441c-.992-4.465-2.315-4.134.33-9.094s2.977-3.8,1.985-7.276S88.5,38.179,88.5,38.179l.662-2.976-4.086-1.39-3.85,11.551L76.377,34.227Z"/><path class="cls-5" d="M69.132,104.405l-4.886,2.484s3.313.5,3.644,2.485,2.484,1.49,3.561.662,1.159-1.076,3.312.911,2.07,1.242,3.643.248.166-.993,3.23.5,3.974.994,4.554-.828-.166-3.312,2.65-1.573,2.318.5,3.892-.663,1.407.166,2.153.828,1.076-2.318,1.076-2.318l-5.134-3.23a60.169,60.169,0,0,1-13.083,1.905C75.509,105.867,69.132,104.405,69.132,104.405Z"/><path class="cls-7" d="M76.005,98.2a1.605,1.605,0,0,0-1.515-1.681,1.388,1.388,0,0,0-.538.111,1.662,1.662,0,0,0-3.284.172,1.485,1.485,0,0,0-1.122,1.459,1.512,1.512,0,0,0,.632,1.239,1.19,1.19,0,0,0,.61,2.213,1.156,1.156,0,0,0,.251-.027,1.147,1.147,0,0,0,1.066,1.188,1.051,1.051,0,0,0,.926-.624,1.262,1.262,0,0,0,.887.38,1.538,1.538,0,0,0,1.391-1.65,1.811,1.811,0,0,0-.406-1.165A1.662,1.662,0,0,0,76.005,98.2Zm-3.478,3.024a1.785,1.785,0,1,1,1.391-1.741A1.6,1.6,0,0,1,72.527,101.223Z"/><path class="cls-7" d="M89.3,79.195a1.6,1.6,0,0,0-1.515-1.681,1.383,1.383,0,0,0-.537.111,1.716,1.716,0,0,0-1.624-1.333,1.734,1.734,0,0,0-1.661,1.5,1.485,1.485,0,0,0-1.122,1.459,1.511,1.511,0,0,0,.632,1.238,1.191,1.191,0,0,0,.61,2.214,1.158,1.158,0,0,0,.252-.027A1.146,1.146,0,0,0,85.4,83.869a1.05,1.05,0,0,0,.926-.624,1.263,1.263,0,0,0,.888.38,1.538,1.538,0,0,0,1.391-1.65,1.809,1.809,0,0,0-.406-1.165A1.663,1.663,0,0,0,89.3,79.195Zm-3.478,3.024a1.785,1.785,0,1,1,1.392-1.741A1.6,1.6,0,0,1,85.817,82.219Z"/><path class="cls-7" d="M67.807,83.666c0-.928.561-1.68,1.253-1.68a.964.964,0,0,1,.444.111,1.516,1.516,0,0,1,1.343-1.333,1.568,1.568,0,0,1,1.374,1.5,1.465,1.465,0,0,1,.927,1.459,1.629,1.629,0,0,1-.522,1.239,1.254,1.254,0,0,1,.481,1.022,1.1,1.1,0,0,1-.986,1.192.847.847,0,0,1-.208-.027c-.013.658-.4,1.188-.881,1.188a.885.885,0,0,1-.766-.624.963.963,0,0,1-.733.379c-.636,0-1.151-.738-1.151-1.65a2.06,2.06,0,0,1,.336-1.164A1.681,1.681,0,0,1,67.807,83.666Zm2.876,3.025c.635,0,1.15-.78,1.15-1.742s-.515-1.741-1.15-1.741-1.15.78-1.15,1.741S70.048,86.691,70.683,86.691Z"/><path class="cls-7" d="M76.419,90.159c0-.928.561-1.681,1.253-1.681a.976.976,0,0,1,.444.111,1.516,1.516,0,0,1,1.343-1.333,1.569,1.569,0,0,1,1.374,1.5,1.463,1.463,0,0,1,.927,1.459,1.627,1.627,0,0,1-.522,1.238,1.256,1.256,0,0,1,.481,1.023,1.1,1.1,0,0,1-.986,1.191.847.847,0,0,1-.208-.027c-.013.659-.4,1.188-.881,1.188a.885.885,0,0,1-.766-.624.964.964,0,0,1-.733.38c-.636,0-1.151-.739-1.151-1.65a2.061,2.061,0,0,1,.336-1.165A1.681,1.681,0,0,1,76.419,90.159ZM79.3,93.183c.635,0,1.15-.779,1.15-1.741S79.93,89.7,79.3,89.7s-1.15.78-1.15,1.742S78.66,93.183,79.3,93.183Z"/><path class="cls-7" d="M83.954,97.578c0-.928.561-1.681,1.253-1.681a.984.984,0,0,1,.445.111A1.515,1.515,0,0,1,87,94.675a1.568,1.568,0,0,1,1.373,1.505,1.462,1.462,0,0,1,.927,1.459,1.627,1.627,0,0,1-.522,1.238,1.258,1.258,0,0,1,.481,1.023,1.1,1.1,0,0,1-.986,1.191.8.8,0,0,1-.208-.027c-.013.659-.4,1.188-.881,1.188a.884.884,0,0,1-.765-.624.968.968,0,0,1-.734.38c-.635,0-1.151-.739-1.151-1.65a2.063,2.063,0,0,1,.336-1.165A1.682,1.682,0,0,1,83.954,97.578ZM86.83,100.6c.636,0,1.151-.779,1.151-1.741s-.515-1.741-1.151-1.741-1.15.779-1.15,1.741S86.2,100.6,86.83,100.6Z"/><path class="cls-8" d="M80.846,101.967a.9.9,0,0,0-.85-.942.779.779,0,0,0-.3.062.932.932,0,0,0-1.842.1.832.832,0,0,0-.629.818.846.846,0,0,0,.354.694.668.668,0,0,0,.342,1.242.648.648,0,0,0,.141-.016.644.644,0,0,0,.6.667.59.59,0,0,0,.519-.35.706.706,0,0,0,.5.213.863.863,0,0,0,.78-.926,1.015,1.015,0,0,0-.228-.653A.933.933,0,0,0,80.846,101.967Zm-1.95,1.7a1,1,0,1,1,.78-.976A.9.9,0,0,1,78.9,103.663Z"/><path class="cls-8" d="M81.6,77.547a.9.9,0,0,0-.849-.942.784.784,0,0,0-.3.062.961.961,0,0,0-.91-.747.972.972,0,0,0-.931.843.834.834,0,0,0-.629.818.848.848,0,0,0,.354.695.667.667,0,0,0,.342,1.241.607.607,0,0,1,.738.651.591.591,0,0,0,.52-.349.709.709,0,0,0,.5.212.862.862,0,0,0,.78-.925,1.017,1.017,0,0,0-.227-.653A.933.933,0,0,0,81.6,77.547Zm-1.95,1.7a1,1,0,1,1,.78-.976A.895.895,0,0,1,79.645,79.243Z"/><path class="cls-8" d="M73.647,85.72c0-.521.315-.943.7-.943a.556.556,0,0,1,.249.062.849.849,0,0,1,.753-.747.879.879,0,0,1,.77.844.82.82,0,0,1,.52.818.911.911,0,0,1-.293.694.707.707,0,0,1,.27.574.619.619,0,0,1-.553.668.507.507,0,0,1-.117-.015c-.007.369-.225.666-.494.666a.5.5,0,0,1-.429-.35.542.542,0,0,1-.411.213c-.357,0-.646-.415-.646-.925a1.153,1.153,0,0,1,.189-.654A.941.941,0,0,1,73.647,85.72Zm1.613,1.7c.356,0,.645-.438.645-.977s-.289-.976-.645-.976-.645.437-.645.976S74.9,87.416,75.26,87.416Z"/><path class="cls-8" d="M82.449,90.9c0-.52.314-.942.7-.942a.557.557,0,0,1,.25.062.849.849,0,0,1,.753-.747.88.88,0,0,1,.77.844.82.82,0,0,1,.52.818.911.911,0,0,1-.293.694.707.707,0,0,1,.27.573.62.62,0,0,1-.553.669.459.459,0,0,1-.117-.016c-.007.37-.225.667-.494.667a.5.5,0,0,1-.429-.35.542.542,0,0,1-.412.213c-.356,0-.645-.415-.645-.926a1.15,1.15,0,0,1,.189-.653A.942.942,0,0,1,82.449,90.9Zm1.612,1.7c.357,0,.645-.437.645-.976s-.288-.977-.645-.977-.645.438-.645.977S83.705,92.6,84.061,92.6Z"/><path class="cls-8" d="M87.046,86.567c0-.52.314-.942.7-.942a.549.549,0,0,1,.249.062.851.851,0,0,1,.753-.747.878.878,0,0,1,.77.844.819.819,0,0,1,.521.818.914.914,0,0,1-.293.694.707.707,0,0,1,.27.573.62.62,0,0,1-.553.669.459.459,0,0,1-.117-.016c-.007.37-.225.667-.494.667a.5.5,0,0,1-.429-.35.542.542,0,0,1-.412.213c-.356,0-.645-.415-.645-.926a1.157,1.157,0,0,1,.188-.653A.943.943,0,0,1,87.046,86.567Zm1.612,1.7c.357,0,.645-.438.645-.977s-.288-.976-.645-.976-.645.437-.645.976S88.3,88.264,88.658,88.264Z"/><path class="cls-8" d="M68.723,91.96c0-.52.236-.942.527-.942a.332.332,0,0,1,.188.062c.069-.431.3-.748.565-.748.289,0,.529.365.579.844a.86.86,0,0,1,.39.818,1.074,1.074,0,0,1-.22.695.8.8,0,0,1,.2.573c0,.369-.186.668-.415.668a.262.262,0,0,1-.088-.015c-.006.369-.169.666-.371.666-.139,0-.259-.142-.323-.35a.384.384,0,0,1-.309.213c-.267,0-.484-.414-.484-.925a1.447,1.447,0,0,1,.141-.653A1.024,1.024,0,0,1,68.723,91.96Zm1.211,1.7c.268,0,.484-.437.484-.976s-.216-.977-.484-.977-.485.437-.485.977S69.666,93.656,69.934,93.656Z"/><path class="cls-9" d="M80.474,17.83a9.689,9.689,0,0,0,0,3.271c.352,1.009,1.21,1.753,1.151,2.371a1.122,1.122,0,0,1-.59.87l-1.322-.069"/><path class="cls-10" d="M83.381,11.216c.014.14.312.376.547.556a9.647,9.647,0,0,1,.753.624,4.261,4.261,0,0,1,1.113,1.645,5.093,5.093,0,0,1,.28,1.952,3.624,3.624,0,0,0,.181,1.82,2.95,2.95,0,0,0,1.176,1.38,3.559,3.559,0,0,1,1.348,1.384A2.371,2.371,0,0,1,87.5,23.8a2.375,2.375,0,0,0,1.271-1.345,2.3,2.3,0,0,0-.116-1.816,3.394,3.394,0,0,0-1.342-1.269,3.209,3.209,0,0,1-1.316-1.446,3.793,3.793,0,0,1-.266-1.94,4.741,4.741,0,0,0-.284-1.81,3.88,3.88,0,0,0-1.037-1.482c-.227-.207-.474-.4-.73-.587-.129-.1-.259-.193-.39-.31a.936.936,0,0,1-.332-.515Z"/><path class="cls-2" d="M75.825,19.589c.907-.68,1.228-.2,1.55.379.429.773.556,2.423-.71,2.5C75.342,22.553,75.209,20.625,75.825,19.589Z"/><path class="cls-10" d="M76.573,20.508a.742.742,0,0,1,.973.237c.269.485.372,1.18-.367,1.475S76.187,21.157,76.573,20.508Z"/><path class="cls-2" d="M75.825,19.589c.907-.68,1.228-.2,1.55.379.429.773.556,2.423-.71,2.5C75.342,22.553,75.209,20.625,75.825,19.589Z"/><path class="cls-10" d="M76.573,20.508a.742.742,0,0,1,.973.237c.269.485.372,1.18-.367,1.475S76.187,21.157,76.573,20.508Z"/><path class="cls-9" d="M78.715,25.439a1.864,1.864,0,0,0,1.61.872,2.871,2.871,0,0,0,2.388-.819"/><path class="cls-2" d="M83.484,19.175c.908-.68,1.229-.2,1.551.379.429.773.556,2.423-.71,2.5C83,22.139,82.868,20.211,83.484,19.175Z"/><path class="cls-10" d="M84.233,20.094a.741.741,0,0,1,.972.237c.269.485.372,1.18-.366,1.475S83.847,20.743,84.233,20.094Z"/><path class="cls-10" d="M82.851,7.65a17.071,17.071,0,0,0,.5,4.158,2.33,2.33,0,0,1-.535,2.129,3.916,3.916,0,0,1-1.86,1.145c-.69.221-1.391.333-2.07.5s-1.359.357-2.026.579a25.583,25.583,0,0,0-3.877,1.651,15.337,15.337,0,0,0-1.8,1.078,2.533,2.533,0,0,0-1.015,1.723,3.631,3.631,0,0,0,.008,2.046c.264.648.944.979,1.51,1.39a5.162,5.162,0,0,1,1.475,1.527,2.851,2.851,0,0,1,.364,2.062,5.2,5.2,0,0,1-.424.973,2.285,2.285,0,0,0-.185,1.026,2.432,2.432,0,0,0,.933,1.822,2.448,2.448,0,0,1-.96-1.82,2.32,2.32,0,0,1,.174-1.044,5.182,5.182,0,0,0,.409-.969,2.779,2.779,0,0,0-.381-2.008,5.086,5.086,0,0,0-1.468-1.48c-.557-.4-1.268-.722-1.571-1.426A3.759,3.759,0,0,1,70,20.584a3.412,3.412,0,0,1,.336-1.029,2.764,2.764,0,0,1,.722-.814,15.541,15.541,0,0,1,1.818-1.118,25.723,25.723,0,0,1,3.892-1.718q1.007-.349,2.041-.611c.688-.181,1.386-.3,2.041-.522a3.577,3.577,0,0,0,1.691-1.063,1.985,1.985,0,0,0,.432-1.828,17.429,17.429,0,0,1-.559-4.232Z"/><path class="cls-10" d="M82.783,8.715c.011.755-.083,1.477-.085,2.194a4.307,4.307,0,0,1-.049,1.125,1.824,1.824,0,0,1-.622.983,12.245,12.245,0,0,1-4.085,1.651c-1.392.432-2.764.928-4.129,1.445L71.77,16.9a7.327,7.327,0,0,0-1.925.975,4.116,4.116,0,0,0-1.376,3.874,5.381,5.381,0,0,0,.781,2.008,11.31,11.31,0,0,0,1.406,1.667,2.28,2.28,0,0,1,.259,2.119,21.458,21.458,0,0,0-.685,2.077A3.038,3.038,0,0,0,72.5,32.907a3.058,3.058,0,0,1-2.31-3.292,21.458,21.458,0,0,1,.667-2.086,2.212,2.212,0,0,0-.264-2.054,11.386,11.386,0,0,1-1.427-1.663,5.5,5.5,0,0,1-.815-2.041,4.255,4.255,0,0,1,1.395-4.017,7.481,7.481,0,0,1,1.958-1.017l2.037-.807c1.363-.531,2.734-1.04,4.129-1.487a12.173,12.173,0,0,0,3.975-1.634,1.541,1.541,0,0,0,.525-.838,4.151,4.151,0,0,0,.032-1.058c0-.744.087-1.477.072-2.184Z"/><path class="cls-9" d="M82.794,17.053a1.882,1.882,0,0,0,.755-.241,1.726,1.726,0,0,1,1.766.2"/><path class="cls-3" d="M101.509,36.9a1.73,1.73,0,0,1-.083-2.2c.828-1.283.5-1.7-.124-1.863s-1.822,1.532-1.822,1.532l1.159,2.774Z"/><path class="cls-3" d="M57.87,48.535a1.729,1.729,0,0,0,.083-2.194c-.828-1.284-.5-1.7.124-1.864S59.9,46.009,59.9,46.009L58.74,48.783Z"/><polygon class="cls-11" points="98.099 49.929 58.264 61.718 59.092 43.377 99.936 32.467 98.099 49.929"/><path class="cls-12" d="M85.022,40.791s-4.913.755-4.353,3.645c.463,2.389,2.029,2.554,4.292,2.691s6.382-.008,7.484.656,3.132,1.142,1.333,2.491a52.876,52.876,0,0,1-10.04,5.071c-2.2.657-9.052,1.887-7.95,3.635s5.452,1.984-.35,3.715S57.87,70.951,57.87,70.951l-.662,14.222,39.25-18.01L98.9,42.383a35.587,35.587,0,0,0-5.931.28c-2.611.417-5.338.689-5.8-.346s.93-3.165.93-3.165Z"/><path class="cls-13" d="M80.435,37.663A26.964,26.964,0,0,0,80.663,41a.529.529,0,0,0,.237.245.522.522,0,0,0,.094.421c.154.225.081.605.157.547s.16.384.188.338.181.741.319.345.332-.663.5-.622.267-.287.3-.174.039.817.2.577.3-.113.343-.344.364.013.426-.283.333.121.4-.017.149.912.439.016.5-.926.509-1.148.526-.187.514-.486a3.7,3.7,0,0,1-.044-.594c.009-.425.357-.529.289-.874s.124-.111.148-.379.36-.227.285-.673a12.331,12.331,0,0,1,.26-1.74"/><path class="cls-13" d="M77.406,39.181s-3.013,5.566-3.074,5.867-.087.31-.071.418.035.345-.027.385-.145.022-.129.163.1.174.018.4-.187.12-.187.12.093.144-.077.436-.327.288-.33.191-.059.169-.155.123-.142-.55-.168-.556-.1-.043-.245.06-.12,0-.192-.286-.323.008-.475.229-.323.236-.437-.226A3.454,3.454,0,0,1,72,45.181a.3.3,0,0,1-.182-.176.892.892,0,0,1,.046-.393l-.152-.007-.137-.128s-.029-.608-.015-.3-.017.071-.032.42-.047.572-.111.58a.174.174,0,0,0-.153.189c0,.128.139.452-.024.5a.229.229,0,0,1-.25-.085s.057.451-.052.4S70.7,46.144,70.69,46s-.01.117-.107.284-.157.027-.176.018a1.789,1.789,0,0,1-.121-.231,1.044,1.044,0,0,1-.048.539c-.106.3-.139.917-.176.964s-.171.456-.322.5-.23-.076-.267-.258.057-.234.046-.408-.01-.355-.067-.35-.09-.064-.093-.161.016.369-.14.444a.168.168,0,0,1-.263-.112,1.818,1.818,0,0,1-.05-.438c0-.083-.1.216-.241.009a1,1,0,0,1-.128-.537.73.73,0,0,0-.152-.416.609.609,0,0,1-.076-.477s-.225.331-.27.087a2.539,2.539,0,0,1-.079-.77c.039-.21.2-.482.224-.606s.018-.5.065-.612a.96.96,0,0,1,.175-.343.447.447,0,0,0,.1-.317,2.506,2.506,0,0,1,.109-.4"/><path class="cls-14" d="M87.39,40.085s-3.1,1.873-1.918,2.873,7.837.667,8.122.692c3.754.327,5,2,5,2l.828-7.515Z"/><path class="cls-15" d="M80.647,63.036s-.091.086-.249.212a5.085,5.085,0,0,1-1.6.882c-1.009.3-3.14.846-2.356,1.515s2.747.625.392,1.237-3.252.789-3.028,2.257,3.03,2.9,2.637,3.652-6.341,3.5-8.7,4.293-8.925,1.61-7.466-.9,5.507-4.743,6.741-5.833A20.448,20.448,0,0,1,70.553,67.4c1.4-.779,2.692-1.706,3.645-2.08s5.215-2.368,5.5-2.452S81.6,62.12,81.6,62.12l-1.044,1"/><path class="cls-16" d="M60.216,53.786S70.2,50.9,72.16,50.314a16.12,16.12,0,0,1,5.27-1.031,17.917,17.917,0,0,0,5.383-.793c2.018-.512,5.467-1.27,6.532-.865s3.672-.012,4.289.616,3.194,2.3,2.745,2.431-1.8,1.618-2.523,1.565-1.458-.378-1.907.388-.841.612-1.514.812-1.57.74-2.075.89-.785,1.318-1.01,1.385-.112-.057-.448.043a19.324,19.324,0,0,1-3.028.813,4.789,4.789,0,0,0-1.57.378c-.561.167-1.962.044-2.972.345s-3.644,0-2.411.809,1.569.8,1.9,1.6,1.345,2.036.448,2.3a6.2,6.2,0,0,0-2.019,1.053c-1.122.7-2.467.736-3.869,1.515s-2.861,1.756-4.206,1.887-3.169,1.351-4.627,2.327-6.7,3.472-6.7,3.472L58.6,54.618Z"/><path class="cls-17" d="M59.43,56.909s6.112-2.365,9.531-1.4c.923.261,2.074,1.457,2.41,1.357a1.627,1.627,0,0,1,1.346.321c.392.334.728.866,1.4.665a2.074,2.074,0,0,1,1.682.311c.224.2.859-.19.859-.19a8.134,8.134,0,0,0-1.454-1.666c-.8-.65-3.309-2.889-4.362-2.817s-6.019.826-7.273.958A19.009,19.009,0,0,0,59.406,56.1Z"/><path class="cls-18" d="M67.786,57.685s-1.29-.157-.842.793.224.926,1.121,1.11,1.682-.5,1.85.35.728,1.137,1.009,1.054a3.771,3.771,0,0,1,1.569-.108,1.739,1.739,0,0,0,1.29.067c.673-.2.9-.9,1.907-.84a10.017,10.017,0,0,0,2.635-.425,6.912,6.912,0,0,0-2.41-1.267c-1.009-.15-2.747-.173-3.364-.35a26.53,26.53,0,0,1-3.251-.655C68.963,57.153,67.786,57.685,67.786,57.685Z"/><path class="cls-19" d="M57.953,69.192s7.641-7.8,8.314-7.553.729.5,1.626.237.673-1.1,1.4.124,1.794.367,2.523.15l1.682-.5.378.03s-.031-.267.529.378.663-.606.663-.606l1.122-.876.56.014a.572.572,0,0,1,.954-.1,3.642,3.642,0,0,0,1.289.789s-.057.378-.9.9a21.638,21.638,0,0,1-2.355,1.154,12.346,12.346,0,0,0-2.3.776c-.9.539-1.514.723-2.8,1.468a7.121,7.121,0,0,1-3.043.75c-.9.177-3.462,2.5-3.462,2.5L57.85,72.235Z"/><path class="cls-20" d="M61.8,73.191s.041.8,0-1.072-.138-4.4-.109-4.889.141-2.114.141-2.114-.086,3.726.011,4.659.168,2.021.2,2.161.041.654.041.654a15.027,15.027,0,0,0,.127-1.74,6.217,6.217,0,0,1,.016-2.409,14.159,14.159,0,0,0,.309-2.72,16.965,16.965,0,0,1-.085,2.319,9.239,9.239,0,0,0-.211,1.95,12.51,12.51,0,0,1,.1,1.488v1.111s.07-.687.1-1.288,0-1.776.044-2.233.155-1.822.155-1.933a12.54,12.54,0,0,1,.041,1.616,14.9,14.9,0,0,0-.057,1.978c.041.765.041,1.394.041,1.394a7.633,7.633,0,0,1-.435,1.017C62.07,73.371,61.8,73.191,61.8,73.191Z"/><path class="cls-20" d="M63.108,71.765A12.428,12.428,0,0,1,63,70.129c0-.881.015-2.826.015-2.826s.027,1.82.083,2.277.224,1.333.238,1.4.111.508.111.508a3.142,3.142,0,0,0,.127-1.1c-.028-.669-.1-1.28-.1-2.07V66.308s.154,1.263.167,1.823.084,1.419.084,1.554.042-1.05.029-1.588.058-3.74.058-3.74.125,2.309.124,2.941a13.8,13.8,0,0,0,.013,1.711,6.6,6.6,0,0,1,.14,1.087c0,.384.1-.414.1-.842s-.055-1.27,0-2.37.085-1.921.085-1.921V66.7c0,.429,0,1.648.013,2.005s.027,1.323.027,1.481a1.632,1.632,0,0,0,.084.4,4.156,4.156,0,0,0,.169-1.066,3.86,3.86,0,0,1,.029-1.814,13.951,13.951,0,0,0,.337-1.77s-.042.8-.1,1.293-.211,1.123-.2,1.367.112.463.154.812.042.935.042.935-.113.1-.323.3a7.268,7.268,0,0,0-.659.6c-.238.274-.6.631-.6.631Z"/><path class="cls-20" d="M65.464,69.979s.084-.724.155-1.445.14-1.26.239-1.876S66.1,65.3,66.1,65.3s-.015.524-.071,1.014-.127,1.279-.2,1.774-.141,1.17-.141,1.26.168.086.168-.14.113-.824.169-1.314.113-1.32.169-1.54.183-.618.183-.618-.127.917-.169,1.291-.1,1.428-.1,1.586-.029.8-.029.8l.1-.729.085-1.515L66.235,69.5a5.49,5.49,0,0,0-.477.323A1.247,1.247,0,0,1,65.464,69.979Z"/><path class="cls-21" d="M75.852,64.872s-1.065.544-.869,1.072,1.079.445,1.569.367c.277-.045-.084.183-.631.233s-1.5,0-1.569-.276.126-.376.294-.607A6.756,6.756,0,0,1,75.852,64.872Z"/><path class="cls-21" d="M74.058,65.746s-.9.787-.407,1.024a4.227,4.227,0,0,0,1.037.323,3.451,3.451,0,0,1-1.444.114c-.334-.079-.56-.419-.14-.748S74.058,65.746,74.058,65.746Z"/><path class="cls-21" d="M72.964,71.451s1.682-.05,1.906.244c.252.331.266.688-.365.877a4,4,0,0,0-.841.318s1.08-.593.87-.959S72.964,71.451,72.964,71.451Z"/><path class="cls-22" d="M83.773,62.239s-1.206.992-1.22,1.447.49.463.924.469,1.206-.043,1.206-.043-1.458.028-1.64-.324a.976.976,0,0,1,.267-1C83.506,62.567,83.773,62.239,83.773,62.239Z"/><path class="cls-22" d="M82.4,60.6s.925-.253.855.264a.8.8,0,0,1-.6.767,4.011,4.011,0,0,0-.9.741,10.232,10.232,0,0,1,.842-1.085c.322-.322.491-.395.294-.472s-.546-.221-.546-.221Z"/><path class="cls-22" d="M82.369,65.478s2.509.087,3.883-.029,3.139-.057,3.981-.195a12.316,12.316,0,0,1,3.447.258c.575.167,1.4.327,1.107.5a9.494,9.494,0,0,1-2.369.279c-.981.067-2.144-.151-1.471-.442s.925-.276-.07-.317a26.306,26.306,0,0,0-2.7.062c-.757.045-1.135.045-1.906.05S82.369,65.478,82.369,65.478Z"/><path class="cls-22" d="M78.885,65.011s1.892.2,2.635.274,1.78.282,1.878.027-.785-.285-.168-.469,1.037.233,1.569.367a5.566,5.566,0,0,0,1.851.17c.49-.078-.8-.461-.505-.617a3.845,3.845,0,0,1,2.845.212,7.653,7.653,0,0,0,2.7,1.157,17.2,17.2,0,0,0,2.326.231,9.383,9.383,0,0,1,1.464.282l-2.857-.165a4.938,4.938,0,0,1-2.433.054,22.3,22.3,0,0,0-4.163-.654c-1.037-.006-1.807-.025-2.7.017a8.279,8.279,0,0,1-2.242-.324c-.631-.128-3.588-.464-3.588-.464Z"/><path class="cls-20" d="M95.49,41.474s-.911.056-1.031.087a.985.985,0,0,0-.6.3c-.19.235-.723.012-1.233-.333s-.351-.189-.443.071-.325-.04-.41.286-.334.021-.432.121-.315.106-.466.16-.3.187-.36.093-.448-.089-.542-.067a1.043,1.043,0,0,1-.5.15c-.42.045-.553-.213-.524-.078s-.209-.089-.244.077-.326.022-.357.141-.284-.077-.3-.034-.363.044-.458.193-.865,0-1.156-.138-.516-.17-.582-.315a1.687,1.687,0,0,1-.058-.666c.027-.105-.275-.789-.152-1.105a1.188,1.188,0,0,1,.359-.49,1.061,1.061,0,0,1,.044-.687.576.576,0,0,1,.44-.309.783.783,0,0,1,.094-.514c.148-.23.371.02.371.02s-.083-.482.255-.581a1.381,1.381,0,0,0,.652-.475c.083-.1.22.044.319-.151s.364.447.579.2.375-.089.4-.164.2-.3.212-.354a1.148,1.148,0,0,0,.2-.535c.021-.328.177-.127.253-.392s.172.047.172.047a.661.661,0,0,0,.5-.167c.2-.2.25.544.288.459s.3.05.368-.122.2-.012.206-.056a3.656,3.656,0,0,0,.218-.5c.088-.278.241-.189.415-.459s.122.207.235.174.166.283.166.283c.1-.256.217-.174.353-.3.184-.177.128-.448.429-.332.046-.269.24-.708.341-.5.179-.418.764-.509.667.068.235-.786,1.1-.612.921.129a.691.691,0,0,1,.231-.059c.177-.284.334-.154.512-.252.157-.086.177-.417.349-.225.144-.473.365-.438.362-.008.145-.267.332-.369.474-.241.19.171.089.576.116.952,0,0,.388-.292.467.047a5.712,5.712,0,0,1,.111.744s.363-.108.472.334a2.382,2.382,0,0,1-.007.95s.51-.084.382.437a2.317,2.317,0,0,1-.366.822s.669.165.462.68a1.8,1.8,0,0,1-.361.648,1.475,1.475,0,0,1-.262.977c-.309.3-.238.3-.554.437a4.688,4.688,0,0,1-.728.216C96.469,41.248,95.49,41.474,95.49,41.474Z"/><path class="cls-23" d="M95,38.946c.173-.419.07-1.277-.223-.875-.077-.3-.382-.228-.538.157-.154-.062-.4-.239-.549.15.041-.419-.355-.972-.594-.486.045-.605-.382-.256-.539-.13-.193.154-.653.418-.753.888-.121-.1-.275-.078-.388.2.079-.426-.158-.655-.356-.653-.015-.455-.547-.089-.737.169-.139-.171-.384-.236-.554.152"/><path class="cls-23" d="M89.21,39.143c.148-.482-.192-.7-.389-.467-.092-.606-.3-.007-.478.137-.376.311-.362-.025-.615.675"/><path class="cls-23" d="M87.535,39.341c-.041-.263-.233-.263-.341.05-.035-.1-.125-.084-.161-.152-.328.3-.144.379-.166.569-.34-.378-.494.4-.639.957"/><path class="cls-23" d="M88.059,41.625c-.118.523-.42.507-.442.106-.226.332-.488.221-.685.141,0-.044.009-.1.012-.137-.149.128-.316.091-.364-.113"/><path class="cls-23" d="M91.19,40.693c-.323.686-.775.643-.929.131-.014.047-.024.1-.039.144-.147-.067-.425.182-.445-.045a.733.733,0,0,1-1.246-.187"/><path class="cls-23" d="M97.732,38.859s.211-.291.039-.307-.2-.4-.16-.551.226-.589-.025-.641a2.3,2.3,0,0,0-.5-.041s.249-.773.012-.6-.174-.714-.279-.678-.165-.41-.316-.229-.415.269-.468.35-.245.3-.245.3-.175-.158-.224-.123-.349-.38-.474-.177-.119-.19-.306.314-.526.668-.589.572-.175-.524-.4-.188-.593.221-.62.262"/><path class="cls-21" d="M95.708,48.57c3.9,2.9-2.675,6.442-4.284,7.4-2.453,1.468-9.246,6.7-3.209,7.287,0,0-2.438-.265-1.905-2.094.244-.835,1.937-2.365,2.609-2.9,1.542-1.227,5.159-3.164,6.169-4.051s2.748-2.58,2.16-3.984A2.689,2.689,0,0,0,95.708,48.57Z"/><path class="cls-21" d="M89.536,56.413A51.336,51.336,0,0,0,85.218,59.6a1.952,1.952,0,0,0-.534,2.415c.336.758-.336-.441.589-1.619A47.58,47.58,0,0,1,89.536,56.413Z"/><path class="cls-24" d="M73.342,57.908a52.489,52.489,0,0,0,.611-5.4,50.39,50.39,0,0,1,.339-6.239c.282-2.017.451-4.674.788-5.279s1.347-2.083,1.347-2.083L76.17,38.7s-.36.477-.865,1.217a16.243,16.243,0,0,0-.955,3.815l-.282,2.186a11.057,11.057,0,0,1-.391-2.4C73.678,42.5,73.9,40,73.9,40a20.34,20.34,0,0,0-.45,3.834c.111,1.059.165,4.574.165,5s-.9,7.162-.9,7.162l-.339.873a3.692,3.692,0,0,0,.563.406A.713.713,0,0,1,73.342,57.908Z"/><path class="cls-24" d="M84.977,52.479a4.418,4.418,0,0,1-.272-1.419,55.834,55.834,0,0,1,.161-6.365c.115-1.216.124-2.474.139-2.774a8.443,8.443,0,0,1,.18-1.611,3.771,3.771,0,0,0,.014-1.349,4.093,4.093,0,0,0-.057-.6,13.841,13.841,0,0,1-.059,1.744c-.086.5-.186.965-.186.965a2.149,2.149,0,0,0-.014-.746c-.072-.546-.271-3.055-.271-3.055a3.844,3.844,0,0,0,0,.659c.028.424.142,2.367.156,3.135s-.231,3.114-.232,3.568-.115,2.148-.116,3.239a39.492,39.492,0,0,1-.231,4.3c-.1.121-.072.2.057.233S84.977,52.479,84.977,52.479Z"/><path class="cls-24" d="M83.487,51.969l.329-.053s-.056-1.21-.114-1.716-.056-2.392-.141-3.3-.4-3.948-.4-5.244-.327-3.833-.241-4.518.04.068.04.068a8.772,8.772,0,0,0-.227,1.533,12.7,12.7,0,0,0,.186,1.422,7.185,7.185,0,0,1-.372-.866,5.182,5.182,0,0,1-.685-1.965s-.1-.121,0,.145.756,2.435.813,2.554.2,3.077.27,4.237.613,6.748.569,7.124A3.426,3.426,0,0,0,83.487,51.969Z"/><path class="cls-24" d="M81.909,53.165a10.8,10.8,0,0,0-.2-1.416,71.148,71.148,0,0,1-.2-7.258c.072-.976-.227-3.863,0-5.182a10.464,10.464,0,0,0,.2-1.977l-.129.038s-.117,2.2-.175,2.628-.144,2.338-.13,2.607-.142-2.594-.113-3.284-.028-1.787-.028-1.787a4.332,4.332,0,0,1,.057,1.1c-.029.759-.145,3-.088,3.708s.141,3.821.141,4.3.1,6.4.1,6.4.057.165.129.189A1.829,1.829,0,0,0,81.909,53.165Z"/><path class="cls-25" d="M58.553,56.232c0-.165.414-8.052.414-8.052l.27-4.762,7.245-1.946a3.659,3.659,0,0,1,.092.37c.023.142.17-.218.093.237s.449.183.379.353.217.168.217.267.86-.8.829-.264.092.671-.179.951-.263.312-.217.481a1.376,1.376,0,0,1-.116.567.523.523,0,0,1,.232.2c.069.129.457-.153.542-.2s.279-.1.248.425.193-.042.224.232a1.587,1.587,0,0,1-.078.8s.155.353-.031.492l-.186.138s-.109.5-.194.341-.163.3-.224.233-.047.7-.071.719.605-.247.612-.166.233-.436.3-.29.217-.8.3-.439.488.02.263.669-.094.76-.264.76.426.14.039.355-.519.022-.488.2a3.046,3.046,0,0,1,.03.506c.016.361.155.17.077.542s.349.329.225.5.4.329.263.67.054.848-.163.979a.269.269,0,0,1-.349-.012s.163.317-.085.391-.287-.3-.31-.306-.062.434-.194.224-.116-.564-.178-.28.093.522.062.73.232.529-.055.648-.34-.215-.34-.215-.3.355-.2.476a.776.776,0,0,1,.123.878c-.232.385-.255.059-.255.059s-.1-.186-.217-.118-.155-.486-.155-.486-.163.5-.248.191a1.836,1.836,0,0,1-.077-.509s-.1.263-.17,0-.162-.966-.279-.582-.457,1.017-.558.6-.356-.276-.371-.155.247.508.115.8.085.506-.015.669.053.366-.109.449-.186.055-.2-.173-.016-.511-.016-.511-.046.28-.139.241-.085.191-.132.139-.1.545-.225.333-.062-.1-.209-.22.054.233-.209.229a.43.43,0,0,1-.395-.381.317.317,0,0,1,.044-.158c-.021.033-.054.084-.106.159-.271.4-.325-.019-.364-.207s-.247-.242-.341.252-.194.722-.356.621-.07-.229-.263-.27c-.121-.027-.152-.06-.157-.082-.007.055-.031.184-.107-.023a4.312,4.312,0,0,1-.147-.5s-.031.757-.132.554-.216-.318-.232-.163-.124.353-.2.26-.186.438-.256.309-.194.34-.279.166-.194-.042-.194.074.14.391-.039.411-.085.008-.2.326-.117.566-.233.534-.247-.324-.271-.1-.054.715-.171.8-.07.287-.248.39-1.111,1.009-1.165.809S58.553,56.4,58.553,56.232Zm8.548-13.1s-.286-.056-.3.089.253.232.253.232.132.2.2.13S67.278,43.032,67.1,43.132Zm-.231.424a4.351,4.351,0,0,0,.121.579.785.785,0,0,1,.044.271s.055-.159.121-.415-.11-.227-.11-.227Zm1.207,2.65a.976.976,0,0,1,.078.19c.033.1.054-.034.1-.146s.1-.278.1-.278a.515.515,0,0,0,.021-.37c-.07-.184-.129.149-.166.137s-.062.126-.107.175A.351.351,0,0,0,68.077,46.206Zm.936,4.786c.02-.051,0-.044.029-.186s-.042-.085-.067-.1a.44.44,0,0,1-.057-.124c-.029-.071-.129.091-.133.128a.5.5,0,0,0,.075.244c.045.049.049.047.078.056S68.992,51.043,69.013,50.992Zm-.332.64c.034.034.033.123.05.172s.141-.051.186-.118-.029-.116-.029-.116l-.169-.074c-.038-.015-.1.111-.1.111A.068.068,0,0,1,68.681,51.632Zm-.169-.163c.041.13.124-.116.182-.178s.074-.04.112-.095,0-.064,0-.125-.071,0-.112.033a1.114,1.114,0,0,0-.207.142C68.454,51.291,68.471,51.34,68.512,51.469Zm-.085-2.733c.024.037.1-.031.165-.094s.066-.117.149-.168.132.005.2-.078-.05-.136-.046-.244-.041-.059-.041-.174-.07-.165-.1-.068-.166.165-.2.211a1.4,1.4,0,0,1-.132.359A.25.25,0,0,0,68.427,48.736Zm-.306-.308c.033-.019.083-.095.107-.112a.542.542,0,0,0,.17-.237c.046-.128-.207-.018-.207-.018-.095-.007-.161.146-.153.215S68.088,48.447,68.121,48.428ZM68,45.6c.025.01.133.031.162-.022s.02-.228.054-.353-.145-.072-.145-.072-.215.064-.244.135a1.416,1.416,0,0,0,0,.479c.025.125.058-.008.091-.072S67.974,45.589,68,45.6Zm-.074.927c.028-.027.02-.166.012-.252s-.056.008-.116.026c-.091.027-.074.119-.07.242s.033.23.033.283.049-.05.066-.144A.238.238,0,0,1,67.924,46.527ZM67.5,48.542a2.211,2.211,0,0,0,.227-.041c.091-.027.1-.119.124-.232s-.1-.085-.1-.085-.244.153-.277.181S67.472,48.551,67.5,48.542Zm-.383,4.26c.044-.013.265-.268.133-.229a1.105,1.105,0,0,1-.287.038l-.022.1S67.074,52.815,67.118,52.8Zm-.309.352c.044.1.11.322.155.191s.033-.294-.022-.3a1.052,1.052,0,0,1-.221-.124l-.022.172S66.765,53.049,66.809,53.154Zm-.8-.28a.205.205,0,0,0,.154-.118,1.524,1.524,0,0,0,.045-.509l-.21.2Zm-.221.278c.077-.023.034-.459.034-.459l-.122-.011S65.707,53.175,65.784,53.152Zm-.209.063c.066,0,.165.116.165.116s.033-.01-.033-.179a.252.252,0,0,0-.22-.171S65.509,53.211,65.575,53.215Zm-.42,1.355a.1.1,0,0,0,.1-.1.646.646,0,0,1,.078-.236s-.053-.18-.144-.17c-.121.012-.132.512-.132.512Zm-.32.45c.022-.077.066-.043.121-.059s0-.19,0-.19l-.088-.233a2.158,2.158,0,0,0-.1.6C64.769,55.277,64.813,55.1,64.835,55.02Zm-.242-.069.11-.175-.011-.21s-.187-.039-.176.077A1.813,1.813,0,0,0,64.593,54.951Zm-1.841-.445c.022.183.11.441.154.333a1.114,1.114,0,0,0,.022-.361l-.065-.359A.7.7,0,0,0,62.752,54.506Zm-.21.536c.056-.017.155.333.155.333a4.531,4.531,0,0,0,0-.568c-.022-.207-.154-.12-.154-.12S62.487,55.058,62.542,55.042Zm-.374-.314c.088.186.121.082.147-.032a.992.992,0,0,0-.092-.387l-.187-.062A2.133,2.133,0,0,0,62.168,54.728ZM60.58,56.266c.066-.02.011-.5.011-.5.011-.1-.2.178-.2.3a1.21,1.21,0,0,0,.033.25Zm-.288.7a1.1,1.1,0,0,1,.093-.393c.093-.21-.07-.152-.07-.152l-.133.442Z"/><path class="cls-26" d="M66.531,48.211s.1-.232.022-.3-.077.059-.116-.036-.049-.316-.11-.251-.1.043-.121.083-.083-.117-.105-.11-.033-.405-.121-.224-.154.117-.171.3-.061.053-.072.164-.159-.012-.159-.012-.061-.29-.149.008-.364.086-.32.333-.165-.14-.182-.076-.43.317-.375.573.342.063.275.273-.22.231-.281.32-.088-.151-.094.146.017.315.072.31.276-.129.292-.04.132.079.226-.067a1.619,1.619,0,0,1,.375-.325"/><path class="cls-25" d="M66.635,48.629a.666.666,0,0,0,.045-.285c-.017-.138-.05-.352-.094-.327s-.083.19-.105.185,0-.19-.088-.116a.22.22,0,0,0-.1.16c-.006.037.05-.311-.083-.271s-.2,0-.237.118a2.609,2.609,0,0,0-.077.271c0,.036,0-.165-.077-.059a.413.413,0,0,0-.077.271c0,.071-.138-.314-.248-.2a.891.891,0,0,0-.144.445c0,.036-.154-.014-.187.186s.033.262.033.262-.16-.083-.171.169.01.269.01.269-.143-.016-.148.186a1.284,1.284,0,0,0,.038.356"/><path class="cls-26" d="M65.36,52.345a.448.448,0,0,1,.022.348c-.061.219-.083.226-.072.3s.022.254-.033.282-.127.014-.116.117.083.129.006.294-.166.086-.166.086.077.106-.077.318-.292.206-.292.135-.056.123-.138.088-.11-.405-.132-.41a.246.246,0,0,0-.215.041c-.127.073-.105,0-.16-.213s-.281,0-.419.161-.287.168-.375-.173a2.169,2.169,0,0,1,.155-.968.247.247,0,0,1-.154-.132.557.557,0,0,1,.05-.287l-.132-.008L63,52.234s-.011-.446-.006-.224-.016.053-.038.308-.056.418-.111.423a.14.14,0,0,0-.138.136c0,.094.11.333-.033.365a.214.214,0,0,1-.215-.066s.039.331-.055.288-.2-.022-.21-.127-.011.086-.1.207-.138.018-.154.011a1.16,1.16,0,0,1-.1-.171.646.646,0,0,1-.056.394c-.1.219-.143.67-.176.7s-.16.331-.293.359-.2-.059-.226-.193.056-.17.05-.3,0-.26-.049-.257-.077-.048-.077-.119,0,.27-.133.323-.2-.011-.226-.086a1.146,1.146,0,0,1-.033-.321c.006-.061-.088.156-.209,0a.637.637,0,0,1-.1-.4.473.473,0,0,0-.121-.307.382.382,0,0,1-.055-.35s-.2.238-.237.059a1.555,1.555,0,0,1-.049-.565,4.62,4.62,0,0,1,.209-.441,4.044,4.044,0,0,1,.072-.447.672.672,0,0,1,.16-.249.293.293,0,0,0,.1-.231,1.68,1.68,0,0,1,.1-.291"/><path class="cls-25" d="M65.388,51.674a1.3,1.3,0,0,1,.066.477c-.028.2-.017.348-.094.371a.165.165,0,0,0-.11.151c0,.048.016.2-.078.26s-.154-.155-.154-.155a.287.287,0,0,1-.088.239c-.11.1-.132-.386-.132-.386s-.105.421-.182.35-.066-.312-.066-.312a.579.579,0,0,1-.094.087c-.055.04-.2-.081-.2-.117s-.088,0-.1.067-.082.262-.115.271-.072.152-.188.045-.038-.391-.038-.391-.122.166-.149.056a.8.8,0,0,1,.022-.3s-.033.01-.121-.047-.033-.227-.033-.227-.077.26-.132.134a.816.816,0,0,1,.022-.4s-.182.113-.16-.036a2.977,2.977,0,0,1,.094-.371"/><path class="cls-25" d="M62.8,50.8a2.985,2.985,0,0,1,.148.653c-.006.191.011.376-.05.429a1.345,1.345,0,0,1-.121.1s.061.005.005.14a.636.636,0,0,1-.1.2c-.028.032.011.056-.066.209s-.166.239-.226.21-.072-.3-.072-.3-.049.264-.138.266-.1-.171-.1-.171a.8.8,0,0,1-.127.31c-.077.07-.165.1-.187.008s-.033-.073-.033-.155a1.548,1.548,0,0,0-.11-.334s-.044.2-.177.241-.126-.21-.126-.21.016.007-.083.048-.143.1-.171.04a1.65,1.65,0,0,1,.006-.381s-.166.357-.309.353c-.174-.006-.066-.478-.044-.614s-.071-.014-.071-.121a2.276,2.276,0,0,1,.132-.678"/><path class="cls-26" d="M67.975,49.152s.2-.167.2.07a1.952,1.952,0,0,0,0,.378.4.4,0,0,1,.044.259c-.027.126.039.071-.033.211s-.044-.023-.072.139a2.631,2.631,0,0,0,.017.433c0,.26.038.426-.028.529s-.155.034-.193.01-.094-.019-.127-.033-.077.094-.083.131.05-.086-.027.126,0,.367-.177.254-.083-.01-.2.156,0,.319-.187.233-.177-.089-.215-.161-.282.463-.375.266-.116-.084-.154-.108-.061.078-.105,0-.1.183-.155.129.083-.19-.11-.038-.215.076-.215.076-.121.012-.127-.045.078,0,0-.3-.083-.1-.11-.369a1.719,1.719,0,0,1-.024-.388.96.96,0,0,1,.063-.393c.077-.259.165-.4.176-.454s.171-.063.171-.063"/><path class="cls-25" d="M67.936,48.974a.687.687,0,0,1,.16.331c.011.163-.028.245-.061.267s-.044.06-.044.155.022.171-.017.217-.083.1-.116.094-.055.1-.055.1.077,0,.006.165-.061.219-.127.215a.366.366,0,0,1-.16-.1s.011.3,0,.438a.575.575,0,0,1-.1.325c-.06.066-.055.182-.2.225s-.116-.178-.116-.178-.033.14-.116.082a.191.191,0,0,1-.077-.155.134.134,0,0,1-.116.094c-.088,0-.132-.126-.132-.126s-.083.084-.121.072c0,0-.011.109-.105-.016a.4.4,0,0,1-.088-.234s-.077.2-.127.132-.143-.158-.143-.23-.132.135-.143.043-.022-.253-.022-.324.011-.56.011-.56"/><path class="cls-25" d="M67.315,46.534s-.006-.353-.044-.365-.055-.292-.122-.2-.016-.089-.11-.121-.143-.123-.182.031-.066.315-.066.315-.121-.295-.154-.285-.116-.084-.16.06-.187.221-.215.359-.061-.242-.121-.034-.144.232-.149.3-.022-.005-.011.158-.21-.044-.2.2.072.263.072.263"/><path class="cls-26" d="M63.407,46.044a1.275,1.275,0,0,0,.022-.586.293.293,0,0,0-.143-.135.3.3,0,0,0-.06-.242c-.094-.126-.055-.351-.1-.314s-.1-.219-.115-.19-.116-.427-.193-.191-.188.4-.287.381-.154.177-.176.112-.033-.475-.127-.329-.176.077-.2.213-.215.005-.248.18-.2-.058-.237.024-.1-.526-.26.006-.286.559-.287.689-.308.128-.3.3a2.161,2.161,0,0,1,.033.345c0,.248-.2.321-.16.521s-.072.069-.083.225-.21.146-.16.4.132.233.154.321"/><path class="cls-25" d="M63.61,47.012a.577.577,0,0,0,.012-.394.589.589,0,0,0-.144-.182s.094-.252.034-.293-.044-.413-.072-.417-.071-.2-.071-.2-.094-.161-.144-.017-.055.088-.082.226-.083.155-.083.155-.055-.516-.154-.356-.177.005-.193.01-.1-.065-.121-.058-.2-.13-.254.028-.072.033-.055.158-.188.234-.188.234-.093-.256-.237-.154a.723.723,0,0,0-.209.227s-.237-.047-.287.039-.22.137-.226.351.082.285.049.34c-.331.572-.2.783-.2.783"/><path class="cls-26" d="M65.866,44.518s.144-.421.088-.5a1.023,1.023,0,0,0-.2-.177s-.066-.122-.1-.112-.143-.242-.22-.124a.5.5,0,0,1-.243.167s-.055-.055-.077.023-.121-.248-.2.059-.132.206-.132.418-.1.077-.122.226-.154-.025-.154.235v.261s-.055-.008-.088.239l-.034.246a.2.2,0,0,0-.176.313c.121.3.275.178.275.178l.2-.13"/><path class="cls-25" d="M66.031,44.906a.882.882,0,0,0-.005-.471.125.125,0,0,0-.2-.046s.017-.36-.094-.327-.148-.145-.181,0,.005.14-.034.2a.32.32,0,0,1-.149.092s0-.248-.055-.2a.229.229,0,0,1-.137.052s-.011-.043-.055.1a.841.841,0,0,0-.039.295c0,.059-.022-.23-.072-.061a.565.565,0,0,1-.072.187s-.093-.1-.121.048a1.115,1.115,0,0,0-.022.279c0,.082-.061-.089-.055.1s-.017,0-.017.229a.474.474,0,0,0,.165.353"/><path class="cls-26" d="M60.175,49.054a1.154,1.154,0,0,0,0,.18.382.382,0,0,0,.044.162.814.814,0,0,1,.055.527c-.055.064.1.254.1.325s.055.363.055.363a1.457,1.457,0,0,1-.242.427.948.948,0,0,0-.254.477c-.011.122-.111.246-.144.233s-.121-.13-.143.208-.122.675-.133.8a3.385,3.385,0,0,1-.188.53s-.065-.69-.065-.856-.032-2.025,0-2.271.057-3.329.046-3.467.034-2.944.034-2.944l.309-.116.948.806s.364-.038.165.447-.342.22-.243.5a1.141,1.141,0,0,1,.132.529.766.766,0,0,1-.055.3c-.055.206-.1.337-.166.523a4.316,4.316,0,0,0-.055.844l.011.375s.319.425.209.577-.32.379-.32.379l-.011.216Z"/><path class="cls-25" d="M61.36,50.4a1.645,1.645,0,0,1,.016.48c-.044.072-.066.3-.143.255s-.1-.11-.122-.082-.121.167-.121.167-.066.078-.094-.079a.23.23,0,0,0-.154-.191s-.055.206-.116-.012a1.365,1.365,0,0,1-.06-.3s-.122.309-.232.176a.837.837,0,0,1-.1-.572c.039-.083-.1.055-.11-.062a1.084,1.084,0,0,1,.061-.4c.027-.02-.116.1-.122,0a.547.547,0,0,1,.111-.376,2.391,2.391,0,0,0,.2-.262"/><path class="cls-24" d="M65.442,61.134s0-.032-.009-.107c-.014-.219-.041-.807-.019-2.025.03-1.63.274-3.235.146-4.639a42.632,42.632,0,0,1-.212-4.418c.057-.671-.357-4.106-.342-4.583a19.8,19.8,0,0,1,.5-2.268l-.315.162s-.345,1.7-.345,1.792-.33-.374-.33-.6c0-1.748-.4-.633-.257-.486a2.2,2.2,0,0,0,.114,1.273A10.675,10.675,0,0,1,64.89,47.6a45.1,45.1,0,0,1,.126,5.324c-.144,1.664-.3,6.24-.3,6.6s-.159,1.759-.159,1.759l.43.03.516-.132"/><path class="cls-25" d="M73.989,39.533c.049-.085,2.2-.778,2.2-.778l4.952-1.3-.133.368a.456.456,0,0,1,.044.263c-.035.093.122.038-.041.2s.1.488.021.514.022.276-.008.328.529.341.356.592-.17.426-.344.332-.182-.072-.217.056-.209.188-.209.188a1.242,1.242,0,0,1,.019.306c-.015.127.2.323.239.376s.124.193-.044.436.077.148,0,.316-.175.332-.267.345c0,0-.054.317-.158.225l-.1-.093s-.186.161-.167,0-.144.01-.145-.077-.224.316-.239.307.276.4.254.453.208-.02.188.116.311-.218.233.04.156.439-.113.575-.259.308-.316.159.1.445-.094.216-.18-.445-.221-.328a1.809,1.809,0,0,1-.142.287c-.1.2,0,.223-.136.346s.017.475-.075.453.036.522-.113.575-.236.483-.348.36a.526.526,0,0,1-.113-.313s-.041.306-.146.126a.612.612,0,0,1-.011-.429c0-.026-.151.168-.132-.055s.13-.392.024-.3-.125.349-.2.429-.081.475-.212.284a.478.478,0,0,1-.05-.409s-.2-.077-.21.067-.028.566-.222.56-.1-.194-.1-.194.022-.184-.037-.252.094-.385.094-.385-.2.113-.14-.12a1.3,1.3,0,0,1,.127-.329s-.112.047-.057-.149.235-.639.081-.544-.458.121-.366-.182-.036-.455-.077-.406-.07.478-.2.51-.124.335-.206.33-.092.236-.171.135-.079-.135-.016-.265.148-.276.148-.276-.1.1-.118,0-.086.024-.086-.044-.2.191-.175-.027a.83.83,0,0,0,0-.3c-.012-.192-.052.167-.138-.066a.84.84,0,0,1-.018-.543.075.075,0,0,1,.062-.042c-.017,0-.043-.005-.083-.012-.21-.034-.1-.3-.06-.426s-.01-.341-.189-.17-.281.2-.3.006.045-.178-.007-.37a.416.416,0,0,1-.028-.18c-.019.023-.066.068-.029-.1.046-.212.1-.388.1-.388s-.238.362-.211.169.023-.354-.028-.288-.148.072-.146-.044-.193.062-.178-.065-.166,0-.143-.16-.052-.192-.087-.132-.07.323-.136.176-.031-.07-.165-.009-.209.189-.238.071.015-.385-.06-.291-.232.319-.3.26-.11.086-.2-.017-.226.005-.185-.145A8.43,8.43,0,0,1,73.989,39.533Zm6.85-.32s-.079-.281-.126-.216.015.342.015.342-.015.217.027.241S80.928,39.317,80.839,39.213Zm-.2.014a3.736,3.736,0,0,0-.133.4.581.581,0,0,1-.066.178A1.223,1.223,0,0,0,80.6,39.7c.1-.073.031-.213.031-.213Zm-.391,2.422a1.187,1.187,0,0,1-.031.166c-.018.079.028.03.079.016a.554.554,0,0,0,.116-.056s.087-.015.118-.171-.088-.036-.1-.075-.058.01-.088-.005S80.251,41.581,80.243,41.649ZM79.12,44.93c.023-.008.014-.023.066-.07s.012-.08.009-.112a.627.627,0,0,1,.018-.115c.012-.062-.07-.065-.082-.05a.507.507,0,0,0-.049.19.319.319,0,0,0,.01.1C79.1,44.9,79.1,44.938,79.12,44.93Zm-.3.038a.544.544,0,0,1-.035.132c-.009.039.062.1.1.1s.025-.084.025-.084-.027-.146-.035-.187S78.8,44.9,78.8,44.9A.158.158,0,0,1,78.818,44.968Zm-.008-.233c-.025.1.077.05.114.069s.037.045.066.049.021-.029.038-.064-.025-.06-.048-.081c0,0-.086-.1-.111-.109S78.835,44.633,78.81,44.735Zm.791-1.479c0,.041.044.075.084.1s.057,0,.1.045.043.118.091.137.024-.113.058-.165,0-.066.038-.125.026-.147-.013-.122-.1-.061-.131-.07c0,0-.105.084-.151.068S79.6,43.216,79.6,43.256Zm-.01-.426c.017.019.057.023.07.036a.125.125,0,0,0,.128.028c.053-.026-.064-.191-.064-.191-.03-.087-.1-.067-.115-.024S79.575,42.81,79.591,42.83Zm.808-1.561c0,.027.034.132.06.13s.075-.1.124-.134-.027-.164-.027-.164-.091-.156-.122-.145a.687.687,0,0,0-.144.246c-.029.086.022.047.052.043S80.393,41.242,80.4,41.269Zm-.3.41c.017.012.056-.067.079-.118s-.021-.046-.046-.089c-.039-.066-.061,0-.1.063s-.058.147-.074.174.031.018.065-.015S80.078,41.667,80.1,41.679Zm-.746.664c.012.021.05.113.088.179s.069.026.111-.01-.009-.135-.009-.135-.127-.135-.146-.15S79.338,42.322,79.35,42.343ZM77.945,44.2c.019.032.169.095.113,0a1.831,1.831,0,0,1-.107-.232L77.913,44A.992.992,0,0,0,77.945,44.2Zm-.209-.09c-.016.092-.059.262-.005.233a.182.182,0,0,0,.083-.174,2.331,2.331,0,0,1-.037-.257l-.059.069S77.753,44.013,77.736,44.106Zm-.184-.851s.03.076.086.075.168-.223.168-.223l-.131-.079Zm-.158-.051c.033.056.149-.207.149-.207l-.037-.112S77.362,43.148,77.394,43.2Zm-.088-.152a.9.9,0,0,1,.02.2s.014.024.043-.121a.568.568,0,0,0-.023-.281S77.285,42.992,77.306,43.052Zm-.547.328s.035.084.064.035a.132.132,0,0,1,.1-.053.421.421,0,0,0,0-.213c-.044-.1-.2.147-.2.147Zm-.242-.05c.031-.02.035.036.059.076s.057-.1.057-.1l.04-.2c-.014-.025-.169.146-.212.219S76.487,43.351,76.517,43.33Zm-.06-.248.09.007.059-.118s-.051-.184-.082-.115A1.73,1.73,0,0,0,76.457,43.082Zm-.481-1.845c-.048.112-.1.322-.048.306s.115-.166.115-.166l.086-.243A.155.155,0,0,0,75.976,41.237Zm-.231.09a1.068,1.068,0,0,1-.048.307,2.1,2.1,0,0,0,.17-.291.179.179,0,0,0-.015-.2S75.722,41.288,75.745,41.327Zm-.031-.49c-.026.173.016.149.059.113a.918.918,0,0,0,.085-.279l-.044-.2A2.093,2.093,0,0,0,75.714,40.837Zm-.992-.605c.028.048.154-.247.154-.247.033-.04-.119-.083-.155-.022a.926.926,0,0,0-.064.157Zm-.3.105a.286.286,0,0,1,.149-.12c.094-.026.022-.14.022-.14l-.176.11Z"/><path class="cls-25" d="M70.3,42.065a2.71,2.71,0,0,0-.162.354c-.049.15.15.127.15.127a.878.878,0,0,0-.1.421c.03.168.155-.074.155-.074a.288.288,0,0,0-.01.267c.075.11.109.118.109.118a.859.859,0,0,0-.079.318c.007.136.156.02.156.02a.607.607,0,0,0-.036.449c.093.181.157.048.192.055s.136-.172.164-.233.121-.054.115-.015.116.253.177.24a.382.382,0,0,0,.108-.044.756.756,0,0,0,.006.377c.061.121.243-.283.243-.283s-.071.548.056.495a.247.247,0,0,0,.132-.213s.018.273.121.255.116-.19.124-.241a.119.119,0,0,1,.137-.1c.079.017.1-.154.161-.355a1.775,1.775,0,0,0,.026-.558s.339.026.369-.4-.159-.472-.159-.472a.537.537,0,0,0,.309-.544c-.05-.387-.05-1.124-.05-1.124l-2.444.8Z"/><path class="cls-25" d="M75.942,45.627a2.753,2.753,0,0,1-.146.467c-.059.093-.109.2-.146.176a.8.8,0,0,1-.069-.057.059.059,0,0,1-.04.076c-.059.021-.073.021-.092.013s-.013.039-.084.049a.111.111,0,0,1-.139-.09.536.536,0,0,1,.066-.216s-.1.091-.126.015a.257.257,0,0,1,.018-.175s-.088.079-.135.048a.15.15,0,0,1-.065-.16.366.366,0,0,1,.035-.109,1.747,1.747,0,0,0,.064-.269.083.083,0,0,1-.132-.031.24.24,0,0,1,.021-.219s0,.018-.042-.048-.078-.073-.069-.13a.779.779,0,0,1,.116-.19s-.162.038-.209-.09c-.056-.156.121-.3.17-.354s-.02-.07.012-.125.17-.219.248-.232a1.272,1.272,0,0,1,.04-.716c.129-.474.03-.729.278-.518s.3.38.407.3.182-.145.279.018.218.236.218.353a3.184,3.184,0,0,0-.05.4.48.48,0,0,1-.06.353c-.079.141.109.352.159.388a.58.58,0,0,1,.079.378c-.02.123.129.029.149.14s.259.124.209.273a2.6,2.6,0,0,1-.259.529c-.05.048-.129.089-.149-.006s-.427.094-.318-.022S75.833,46.06,75.942,45.627Z"/><path class="cls-25" d="M82.869,39.005s-.051.428-.057.49-.011.208-.009.291.129-.064.123,0,.065.165.1.238.117-.086.117-.086a.419.419,0,0,0,.054.229c.068.133.086.039.086.039.032.021.108-.032.108-.032s.026.124.1.143a.091.091,0,0,0,.1-.054.205.205,0,0,0,.051.156c.065.071.1-.044.1-.044s-.042.188.082.186.129-.106.185-.149a.438.438,0,0,0,.111-.262c.021-.115.037-.386.037-.386s.071.1.126.123.051-.032.125-.158.009-.146.009-.146.027-.084.055-.074.068-.022.105-.054.024-.1.032-.187.02-.115.05-.126.069-.074.073-.22a.76.76,0,0,0-.105-.331s.1.13.241-.113a.944.944,0,0,0,.139-.426s.054.111.318-.095a1.662,1.662,0,0,0,.545-1.741l-3.6.994S82.47,38.835,82.869,39.005Z"/><path class="cls-21" d="M92.378,67.211s-.348-1.241-.081-1.274-.2.645.5.226.685-.616.98-1.139.713-.642.734-.247.571-.359.221.526-.147,1.633-.318,1.788-.106-.319-.9.443a2.283,2.283,0,0,1-1.372.768S92.055,67.451,92.378,67.211Z"/><path class="cls-21" d="M93.1,65.914c.307-.428.667-.548.421.036a2.838,2.838,0,0,0-.158,1.281S92.679,66.5,93.1,65.914Z"/><path class="cls-21" d="M94.047,64.49c.082-.091.428-.386.4.105s-.158.971-.426,1S93.8,64.764,94.047,64.49Z"/><path class="cls-21" d="M95.065,60.553s.915-.512.641.252S94.485,61.178,95.065,60.553Z"/><path class="cls-21" d="M93.3,62.968s.828-.59.658-.126S93.3,64.009,93.3,62.968Z"/><path class="cls-27" d="M88.389,67.325s.119-1.3.322-.7.375.905.166,1.2S88.389,67.325,88.389,67.325Z"/><path class="cls-27" d="M91.711,61.137s.38-.6.373.13.252.965-.158.972S91.711,61.137,91.711,61.137Z"/><path class="cls-27" d="M89.989,67.362s.438-.5.373.131-.14.9-.293.833S89.989,67.362,89.989,67.362Z"/><path class="cls-27" d="M90.391,68.71s.33-1.126.419-.429.357.974-.13,1.1S90.391,68.71,90.391,68.71Z"/><path class="cls-21" d="M94.233,65.618s.637-.522.762-.272a.988.988,0,0,1-.186,1.152C94.409,66.857,93.957,66.073,94.233,65.618Z"/><path class="cls-27" d="M91.439,66.783s.3.716.051.99-.525-.045-.412-.457S91.2,66.636,91.439,66.783Z"/><path class="cls-27" d="M88.469,69.208s.456-.876.591-.427.1.584-.093.808S88.081,69.919,88.469,69.208Z"/><path class="cls-27" d="M91.239,63.8c-.28.1-.484.487-.18.576s.493.7.493.7S91.621,63.667,91.239,63.8Z"/><path class="cls-27" d="M90.338,64.045a.465.465,0,0,0-.149.6c.174.31.392.476.525.15S90.541,63.914,90.338,64.045Z"/><path class="cls-27" d="M92.378,63.867s-.585.838-.209,1.017S92.849,63.547,92.378,63.867Z"/><path class="cls-27" d="M90.644,62.247s-.462.467-.437.808.163.837.463.567S90.919,62.207,90.644,62.247Z"/><path class="cls-27" d="M92.282,62.245s.1.9.3.764a.709.709,0,0,0,.037-.862C92.435,62,92.343,61.827,92.282,62.245Z"/><path class="cls-21" d="M94.619,62.673s-.37.074-.127.58.2,1.01.392.477A1.2,1.2,0,0,0,94.619,62.673Z"/><path class="cls-21" d="M95.636,62.207a.4.4,0,0,0-.128.58c.236.358.361.453.408.2S95.636,62.207,95.636,62.207Z"/><path class="cls-21" d="M95.55,63.6s-.52-.361-.331.246.157,1.154.42.606A.7.7,0,0,0,95.55,63.6Z"/><path class="cls-21" d="M95.446,64.733s.1.895.3.765a.711.711,0,0,0,.038-.863C95.6,64.493,95.507,64.315,95.446,64.733Z"/><path class="cls-19" d="M77.429,57.2s.358,0,.689.017a3.927,3.927,0,0,0,1.643-.177.829.829,0,0,1,.888-.176c.437.116.874-.194,1.351-.246a8.171,8.171,0,0,0,1.537-.347c.662-.2,1.656-.516,2.04-.609s1.351.29,1.736-.473.186-.836,1.007-1.171,1.431-.628,1.935-.778a3.924,3.924,0,0,0,.967-.288,2.858,2.858,0,0,0,.649-.685,11.63,11.63,0,0,0-1.55.395c-1.418.4-3.948,1.468-4.438,1.614s-1.815-.084-2.637.161-2.093.58-2.994.849a7.344,7.344,0,0,0-1.868.758,17.5,17.5,0,0,1-1.63.777S76.264,57.461,77.429,57.2Z"/><path class="cls-16" d="M80.452,53.4a1.251,1.251,0,0,1,.676-.425c.49-.146.384-.227.874-.016a2.037,2.037,0,0,0,1.1.141,4.836,4.836,0,0,0,.583-.151,3.6,3.6,0,0,1,1.087-.146,14.777,14.777,0,0,1,1.642.046"/><path class="cls-16" d="M82.267,52.611s1.339-1.225,1.934-.621a2.477,2.477,0,0,0,.835.242,1.118,1.118,0,0,1,.768-.073,2.988,2.988,0,0,1,.888.271l.834.377"/><path class="cls-16" d="M62.908,61.891c.6-.747,2.9-1.971,3.855-.581"/><path class="cls-16" d="M69.806,56.284c.835.408,1.672-.091,2.505.18.612.2,1.086,1.069,1.508,1.7"/><path class="cls-26" d="M65.215,45.153s.2-.168.2.069a1.913,1.913,0,0,0,0,.379.4.4,0,0,1,.044.258c-.027.127.039.072-.033.211s-.044-.022-.072.14a2.631,2.631,0,0,0,.017.433c0,.26.038.426-.028.529s-.155.034-.193.01a.628.628,0,0,0-.127-.033c-.033-.014-.077.094-.083.131s.05-.086-.027.126,0,.367-.177.254-.082-.011-.2.156,0,.319-.187.233-.176-.09-.215-.161-.281.462-.375.266-.116-.084-.154-.108-.061.077-.1,0-.1.183-.154.129.082-.191-.111-.038-.215.076-.215.076-.121.012-.126-.045.077,0,0-.3-.083-.106-.11-.369a1.725,1.725,0,0,1-.024-.389.972.972,0,0,1,.063-.392c.077-.259.165-.4.176-.455s.171-.062.171-.062"/><path class="cls-25" d="M64.189,45.166s1.172-.584,1.147.14c-.006.168-.028.245-.061.266s-.044.061-.044.155.022.171-.017.218-.082.1-.116.094-.055.1-.055.1.077,0,.006.164-.061.219-.127.216a.366.366,0,0,1-.16-.095s.011.3,0,.438a.575.575,0,0,1-.1.325c-.06.066-.055.182-.2.225s-.116-.178-.116-.178-.033.14-.116.081a.189.189,0,0,1-.077-.154.133.133,0,0,1-.115.094c-.089,0-.133-.126-.133-.126s-.083.084-.121.071c0,0-.011.11-.105-.016a.4.4,0,0,1-.088-.234s-.077.2-.127.133-.143-.159-.143-.23-.132.134-.143.043-.022-.254-.022-.325.011-.559.011-.559"/><path class="cls-21" d="M74.12,68.842c.169-.141.332-.068.173.2a2,2,0,0,0-.188.736S73.888,69.035,74.12,68.842Z"/><path class="cls-21" d="M74.654,68.342c.043-.023.217-.064.159.231s-.159.543-.275.453S74.524,68.412,74.654,68.342Z"/><path class="cls-21" d="M73.49,69.679s.433.057.245.422S73.186,69.832,73.49,69.679Z"/><path class="cls-21" d="M74.625,69.124s.318-.063.346.144.015.583-.188.644S74.466,69.3,74.625,69.124Z"/><path class="cls-21" d="M73.34,68.7s.057.57-.073.64-.216-.245-.13-.456S73.253,68.513,73.34,68.7Z"/><path class="cls-28" d="M62.537,76.777s-1.384.413-1.153-.646A25,25,0,0,1,63,71.072c.538-.78,1.538-3.429,2.153-2.87s.46,1.1,1.229.871,1.307-1.008,2.306-.688,2-.1,2.228.326.921,1.456.921,1.456.461.482.845.862,1.075,1.04.921,1.581.154.078-1.691,1.494a18.734,18.734,0,0,1-6.322,3A23.984,23.984,0,0,1,62.537,76.777Z"/><path class="cls-29" d="M63.691,73.463s1.768-1.022,2.229-.417,2.382.155,3.074-.546a11.482,11.482,0,0,1,2.5-2.044,15.644,15.644,0,0,1,1.69,1.847,6.8,6.8,0,0,1-1.807,1.652,13.855,13.855,0,0,1-4.842,2.372,10.132,10.132,0,0,1-4.765.061A2.552,2.552,0,0,1,63.691,73.463Z"/><path class="cls-21" d="M71.529,73.785s-.288-.161-.038-.545.1-.678.173-.98a1.811,1.811,0,0,1,.308-.586l.115.306c.115.306.134.393.23.364s.289-.241.385-.114.25-.168.095.28-.307.247-.23.471.461.357-.058.543A6.212,6.212,0,0,1,71.529,73.785Z"/><path class="cls-21" d="M71.164,74.018s.039-.94-.115-.77.192.221-.25.477-.461.138-.692.052a.348.348,0,0,0-.442.379c.039.235-.365.2-.058.45s.288.811.4.777.02-.254.558-.383a1.738,1.738,0,0,0,.865-.537S71.375,73.925,71.164,74.018Z"/><path class="cls-21" d="M71.28,72c-.225-.023-.442.163-.231.317s.25.605.25.605S71.588,72.036,71.28,72Z"/><path class="cls-21" d="M70.57,71.876a.256.256,0,0,0-.212.342c.077.255.211.431.365.261S70.742,71.855,70.57,71.876Z"/><path class="cls-21" d="M68.744,72.3s-.576.357-.327.592S69.148,72.238,68.744,72.3Z"/><path class="cls-21" d="M69.32,73.455s-.538.253-.384.393S69.454,74.033,69.32,73.455Z"/><path class="cls-21" d="M74.566,71.148s-.23-.643-.269-.168-.1.772.057.788S74.566,71.148,74.566,71.148Z"/><path class="cls-21" d="M74.8,70.12s-.288-.069-.193.336-.019.717.212.432S74.8,70.12,74.8,70.12Z"/><path class="cls-21" d="M73.2,70.626a.227.227,0,0,0-.192.336c.115.306.192.407.269.26S73.2,70.626,73.2,70.626Z"/><path class="cls-21" d="M73.413,71.585s-.327-.4-.288.054-.078.8.211.525A.447.447,0,0,0,73.413,71.585Z"/><path class="cls-21" d="M70.607,72.638s-.422.157-.461.385-.019.593.25.513S70.819,72.7,70.607,72.638Z"/><path class="cls-21" d="M72.318,71.323s-.077.611.1.591.288-.4.173-.547S72.433,71.072,72.318,71.323Z"/><path class="cls-21" d="M73.412,72.667s-.365-.169-.384.177.019.4.153.387S73.72,72.792,73.412,72.667Z"/><path class="cls-21" d="M74.065,72.936c.06,3.009-3.984-.231-3.614,4.2l-1.46.466c.423-1.708,1.215-3.065,2.353-3.516.655-.259,2.463.192,2.74-1.126"/><path class="cls-21" d="M69.274,74.489s.217-.22.145.235.014.707-.159.543S69.274,74.489,69.274,74.489Z"/><path class="cls-21" d="M69.685,74.738s.232-.131.145.235-.145.507-.2.4A2.025,2.025,0,0,1,69.685,74.738Z"/><path class="cls-21" d="M69.526,75.806s.246-.569.217-.1.057.756-.159.635S69.526,75.806,69.526,75.806Z"/><path class="cls-21" d="M70.35,74.972s.057.571-.073.641-.216-.245-.13-.457S70.263,74.782,70.35,74.972Z"/><path class="cls-21" d="M63.035,76.685s-.049-1.19.15-1.089-.249.436.324.426.6-.178.9-.469.624-.186.574.15.474-.021.074.54-.375,1.277-.524,1.321-.025-.313-.724-.065a1.322,1.322,0,0,1-1.123-.026S62.76,76.728,63.035,76.685Z"/><path class="cls-21" d="M62.887,74.159c.292-.205.573-.131.3.232a2.22,2.22,0,0,0-.325.981S62.487,74.438,62.887,74.159Z"/><path class="cls-21" d="M63.81,73.442c.074-.036.375-.112.274.279s-.275.725-.474.624S63.586,73.549,63.81,73.442Z"/><path class="cls-21" d="M66.181,72.574s.748.018.424.516S65.657,72.811,66.181,72.574Z"/><path class="cls-21" d="M65.431,74.525s.7-.088.5.212S65.256,75.38,65.431,74.525Z"/><path class="cls-27" d="M59.235,73.058s.3-1.013.35-.425.124.927-.076,1.066S59.235,73.058,59.235,73.058Z"/><path class="cls-27" d="M62.664,69.553s.375-.313.25.287.024.917-.275.725S62.664,69.553,62.664,69.553Z"/><path class="cls-27" d="M60.391,73.859s.4-.2.25.287-.25.677-.35.546S60.391,73.859,60.391,73.859Z"/><path class="cls-27" d="M60.462,75.164s.425-.77.375-.153.1.975-.275.846S60.462,75.164,60.462,75.164Z"/><path class="cls-21" d="M63.76,74.461s.549-.124.6.143.025.755-.325.86S63.485,74.7,63.76,74.461Z"/><path class="cls-27" d="M61.539,74.079s.1.734-.125.841-.374-.291-.224-.576S61.39,73.842,61.539,74.079Z"/><path class="cls-27" d="M60.577,76.226s.474-.5.5-.068-.025.529-.2.622S60.178,76.626,60.577,76.226Z"/><path class="cls-27" d="M61.884,71.526c-.22-.052-.432.169-.226.388a1.7,1.7,0,0,1,.244.811S62.184,71.6,61.884,71.526Z"/><path class="cls-27" d="M61.19,71.291c-.056,0-.282.084-.207.423s.206.581.356.376S61.358,71.281,61.19,71.291Z"/><path class="cls-27" d="M62.7,72.125s-.563.409-.32.739S63.1,72.088,62.7,72.125Z"/><path class="cls-27" d="M61.227,72.284s-.413.164-.451.456-.019.769.244.69S61.433,72.383,61.227,72.284Z"/><path class="cls-27" d="M62.9,70.742s-.076.786.093.775.282-.486.17-.693S63.01,70.426,62.9,70.742Z"/><path class="cls-21" d="M65.489,75.833s-.281-.117-.188.418-.019.93.206.581S65.489,75.833,65.489,75.833Z"/><path class="cls-21" d="M64.955,76.475s-.3.009-.188.417.187.546.262.364A2.187,2.187,0,0,0,64.955,76.475Z"/><path class="cls-21" d="M65.16,77.739s-.318-.548-.281.043-.076,1.027.206.7A.721.721,0,0,0,65.16,77.739Z"/><path class="cls-21" d="M64.091,77.294s-.075.786.094.776.281-.486.169-.693S64.2,76.979,64.091,77.294Z"/><path class="cls-21" d="M82.879,73.505c-.931-2.324-3.464-1.86-4.913-2.79-2.265-1.454-2.508-2.308-.25-3.529,0,0-2.412.451-2.121,1.928s2.171,1.942,3.416,2.508,1.7,1.057,1.881,1.583l.185.525Z"/><polygon class="cls-30" points="59.065 43.256 100.143 32.222 96.662 67.27 56.976 85.442 59.065 43.256"/><path class="cls-3" d="M59.692,48.328a5.22,5.22,0,0,0-2.15-.838c-.723-.038-1.442.676-1.018,1.262s3.092,1.186,3.394,1.042C60.561,49.487,60.407,48.655,59.692,48.328Z"/><path class="cls-3" d="M57.2,49.366s-.975.643-.551,1.3,1.58.541,2.253.5a3.588,3.588,0,0,0,1.742-.5c.328-.349.028-.452-.435-.745A15.06,15.06,0,0,0,57.2,49.366Z"/><path class="cls-3" d="M57.166,51.516s-.546.905.942,1.33a3.231,3.231,0,0,0,2.039-.419c.5-.227,1.615-.663,1.266-1.1C60.887,50.66,57.251,50.776,57.166,51.516Z"/><path class="cls-3" d="M58.437,53.106a.891.891,0,0,0,.787.814,3.588,3.588,0,0,0,1.9-.492c.417-.169.992-.941.362-1.1s-.973-.261-1.438,0S58.437,53.106,58.437,53.106Z"/><path class="cls-3" d="M100.308,35.986a5.22,5.22,0,0,1,2.15-.838c.723-.038,1.442.676,1.018,1.262s-3.092,1.186-3.394,1.042C99.439,37.145,99.593,36.313,100.308,35.986Z"/><path class="cls-3" d="M102.8,37.024s.975.643.551,1.3-1.58.541-2.253.5a3.588,3.588,0,0,1-1.742-.5c-.328-.349-.028-.452.435-.745A15.06,15.06,0,0,1,102.8,37.024Z"/><path class="cls-3" d="M102.834,39.174s.546.905-.942,1.33a3.231,3.231,0,0,1-2.039-.419c-.5-.227-1.615-.663-1.266-1.1C99.113,38.318,102.749,38.434,102.834,39.174Z"/><path class="cls-3" d="M101.563,40.764a.891.891,0,0,1-.787.814,3.58,3.58,0,0,1-1.9-.493c-.417-.168-.992-.94-.362-1.1s.973-.261,1.438,0S101.563,40.764,101.563,40.764Z"/></svg>