<svg id="word" xmlns="http://www.w3.org/2000/svg" viewBox="0 0 160 160"><defs><style>.cls-1{fill:#00a5d4;}.cls-1,.cls-2,.cls-3,.cls-4,.cls-5,.cls-6,.cls-7{stroke:#9d4b9c;stroke-miterlimit:10;stroke-width:0.567px;}.cls-2{fill:#fff;}.cls-3,.cls-7{fill:#fdeadf;}.cls-4{fill:#2a3b8e;}.cls-5{fill:#fbee41;}.cls-6{fill:#fcbe77;}.cls-7{stroke-linecap:round;}.cls-8{fill:#9c4c9c;}</style></defs><path class="cls-1" d="M38.949,107.509a6.19,6.19,0,0,0-2.681-.737l-.994-.115c.427-1.45.909-2.926,1.353-4.155.89-2.465,4.62-5.872,6.292-7.311A13.586,13.586,0,0,1,46.942,96.9l1.333,1.957a4.219,4.219,0,0,0-1.778.089c-.533.266-1.778,3.556-1.778,3.556s-1.517,5.685-2.686,9.175c-.429-.8-.932-1.564-1.438-2.316A6.17,6.17,0,0,0,38.949,107.509Z"/><path class="cls-2" d="M35.274,106.657l.994.115a6.19,6.19,0,0,1,2.681.737,6.17,6.17,0,0,1,1.646,1.852c.506.752,1.009,1.518,1.438,2.316-.217.647-.424,1.228-.6,1.674a5.015,5.015,0,0,1-5.075,3.281c-.894-1.167-2.306-3.193-2.306-4.348A27.1,27.1,0,0,1,35.274,106.657Z"/><path class="cls-2" d="M35.274,106.657a27.1,27.1,0,0,0-1.226,5.627c0,1.155,1.412,3.181,2.306,4.348-.087,0-.175.009-.261.009-1.956,0-4-5.335-3.646-8.448s3.824-10.315,6.67-12.449a4.6,4.6,0,0,1,3.8-.553c-1.672,1.439-5.4,4.846-6.292,7.311-.444,1.229-.926,2.7-1.353,4.155"/><path class="cls-3" d="M57.612,106.682s-4.713-.712-5.78-1.423-2.756-4.268-2.934-4.624-1.156-3.023-2.934-2.845-3.2,1.6-2.49,3.556a94.4,94.4,0,0,0,5.78,11.2c1.067,1.423,6.313,2.846,7.2,2.846s5.335-.978,5.335-.978Z"/><path class="cls-3" d="M94.6,106.237s5.6,3.824,6.936,6.136,5.958,12.36,5.958,12.36-1.334,3.112-3.29,3.912-5.869-4.179-7.292-5.513-1.689-5.513-3.468-7.469a18.417,18.417,0,0,0-5.335-3.468l-3.468-1.423Z"/><path class="cls-2" d="M113.9,131.4l-.013,0c-1.851-.774-1.627-1.336-2.608-3.259a6.615,6.615,0,0,1-.124-5.866c1.669-.27,4.239-.508,5.769.229,1.548.745,3.619,1.567,4.581,2.747C120.058,126.892,116.778,130.331,113.9,131.4Z"/><path class="cls-1" d="M100.205,126.422s4.091.712,5.336-.267a6.332,6.332,0,0,0,1.778-2.845l2.223-.711s.661-.165,1.612-.318a6.615,6.615,0,0,0,.124,5.866c.981,1.923.757,2.485,2.608,3.259-3.828,1.42-11.1,2.041-11.9,2.041-.489,0-1.207-.066-1.694-.118a5.248,5.248,0,0,1-.44-1.216C99.405,130.246,100.205,126.422,100.205,126.422Z"/><path class="cls-2" d="M113.886,131.406c.067.029.117.056.191.085-.074-.029-.124-.056-.191-.085l.013,0c2.879-1.071,6.159-4.51,7.605-6.145a2.051,2.051,0,0,1,.309,2.321c-1.956,4.268-14.227,7.736-17.339,7.736-2.38,0-3.56-.783-4.184-1.985.487.052,1.2.118,1.694.118C102.783,133.447,110.058,132.826,113.886,131.406Z"/><path class="cls-4" d="M77.264,109.171a53.793,53.793,0,0,1-7.025,4.8,27.674,27.674,0,0,1-8.359,2.579,15.709,15.709,0,0,1-3.2-3.824c-1.867-2.845-2.312-7.914-2.312-7.914l8.27-2.134,12.982,6.491Z"/><path class="cls-4" d="M62.352,90.275s-2.784,5.825-1.894,8.4,1.067,5.957,5.335,8.181,7.291,2.223,9.248,3.556,10.048,2.4,10.048,2.4a39.261,39.261,0,0,1,3.29-3.646c1.067-.889,8.8-1.689,8.8-1.689A7.162,7.162,0,0,0,93,102.947c-3.2-1.067-9.027-7.131-9.027-7.131L66.641,94.028Z"/><path class="cls-3" d="M75.574,60.514s-10.492-3.2-14.938-3.2-6.936,4.268-7.826,6.4-1.778,3.913-1.778,3.913a8.948,8.948,0,0,0-1.956,1.067c-.445.444-2.223,3.556-3.024,4s-2.934.445-3.734,1.245.178,2.134.178,2.134-1.6.622-1.245,1.423a1.529,1.529,0,0,0,1.334.8s-1.334.623-.178,1.067a7.513,7.513,0,0,0,3.023.178s-1.067,1.867.089,2.045a8.247,8.247,0,0,0,4.98-2.045c.8-.978,3.823-5.157,4.09-6.758s.444-4.357.444-4.357,2.935-3.468,3.291-4A22.634,22.634,0,0,1,60.813,62.2s4.357,2.579,5.069,2.935,5.869,1.956,5.869,1.956l5.157-5.958Z"/><path class="cls-3" d="M52.722,70.206s-3.024.978-3.291,2.312-.444,2.4-1.422,3.2-2.312,1.067-1.6,1.868,2.846,1.067,3.557.355A46,46,0,0,0,52.9,73.5"/><path class="cls-5" d="M68.727,56.69s-3.912,9.87-4.268,10.315,5.869,4.446,5.869,4.446l6.58-10.315S74.6,59.536,73.529,59,68.727,56.69,68.727,56.69Z"/><path class="cls-5" d="M78.6,59.98s-9.07,6.047-11.2,14.05a116.617,116.617,0,0,1-6.651,17.318s7.005,7.687,14.119,8.221,14.476-2.145,14.476-2.145L93,72.607l-6.58-8Z"/><path class="cls-3" d="M96.826,70.3l3.557.178s6.136-1.156,7.736-2.312a12.755,12.755,0,0,1,4.535-1.6s-.667-4.312,1.023-6.446.578-4.4,1.912-4.4.8,4.713.8,4.713,3.046-4.733,4.446-5.513c2.512-1.4,2.757.089,2.757.089s2.134-.089,2.312.711a2.723,2.723,0,0,1,0,1.334s1.689.089,1.689.978a9.04,9.04,0,0,1-.445,2.223s0,.445-.177,3.023-5.513,7.114-6.225,7.47a50.051,50.051,0,0,1-5.335,1.156s-6.136,3.646-8.625,4.979-4.446,2.134-6.136,2.046-4.446-.534-4.446-.534Z"/><path class="cls-3" d="M125.98,57.21a8.6,8.6,0,0,0-1.158,1.8,10.23,10.23,0,0,1-3.656,3.684"/><path class="cls-3" d="M123.543,54.446a5.279,5.279,0,0,1-2.176,3.308c-1.041.869-.844,1.337-2.421,2.56"/><path class="cls-3" d="M127.305,59.862a7.254,7.254,0,0,0-1.185,1.551l-1.544,2.451a5.278,5.278,0,0,1-1.88,2.054"/><path class="cls-3" d="M105.448,41.919S103.68,51.64,102.06,53.26s-.736,3.24-.736,5.008-2.062,4.86-6.775,7.069-9.132.147-11.635-1.031-6.186-3.24-6.628-7.364,1.178-13.4,1.767-17.674,7.364-5.449,10.457-4.713S105.448,41.919,105.448,41.919Z"/><path class="cls-6" d="M103.386,43.834s-5.155,1.178-7.217,1.031a15.171,15.171,0,0,1-3.388-.589L95.138,43.1s-6.48.3-8.4-.589,2.8-2.5,2.8-2.5-7.658-.3-8.1.736-.3,7.217-.589,8.4a26.887,26.887,0,0,1-1.031,2.946s-3.535-1.768-3.83-.737,1.031,6.775,1.031,6.775A12.56,12.56,0,0,1,71.131,54c-2.062-2.945-2.651-10.9-2.357-14.728s5.45-8.984,6.481-11.341S89.1,25.571,91.6,26.16s10.457,4.124,12.225,6.628A24.623,24.623,0,0,1,108.1,43.539c.442,4.124-4.566,7.364-4.566,7.364S105.6,45.012,103.386,43.834Z"/><path class="cls-3" d="M79.121,51.529s-1.546-5.3-4.308-3.129c-2.8,2.2-1.657,4.9.111,6.222a4.168,4.168,0,0,0,3.2.994"/><path class="cls-7" d="M96.8,57.571a1.559,1.559,0,0,0-1.121-1.082,2.006,2.006,0,0,0-1.277.28"/><path class="cls-7" d="M96.851,60.792a3.211,3.211,0,0,1-1.382.083,6.377,6.377,0,0,1-1.423-.461l-1.918-.79a7.589,7.589,0,0,1-3.4-2.185"/><path class="cls-2" d="M98.6,52.229c.591-1.718,3.584-3.083,3.24-.074-.327,2.869-1.031,3.682-2.283,3.609S98.01,53.775,98.6,52.229Z"/><path class="cls-2" d="M90.337,47.368s2.728-.191,2.225,1.908-1.579,3.626-2.656,3.69-1.866-1.4-1.436-2.736S89.332,47.75,90.337,47.368Z"/><path class="cls-8" d="M91.163,48.581s1.545-.108,1.26,1.081-.894,2.053-1.5,2.09-1.057-.793-.813-1.55S90.594,48.8,91.163,48.581Z"/><path class="cls-8" d="M100.54,51.583s1.545-.108,1.261,1.081-.895,2.054-1.5,2.09-1.057-.793-.813-1.549S99.971,51.8,100.54,51.583Z"/><path class="cls-5" d="M77.886,66.027s4.98-2.134,9.248-.356,8.8,4.535,9.959,4-.533,4.535-.533,5.869.355,5.335.355,5.335a41.363,41.363,0,0,1-6.847-1.423C87.579,78.565,78.775,76.52,77,75.008S72.729,67.361,77.886,66.027Z"/></svg>