<svg id="word" xmlns="http://www.w3.org/2000/svg" viewBox="0 0 160 160"><defs><style>.cls-1{fill:#90bde5;opacity:0.34;}.cls-2,.cls-8{fill:#fdeadf;}.cls-2,.cls-3,.cls-4,.cls-5,.cls-6,.cls-7,.cls-8,.cls-9{stroke:#9c4c9c;}.cls-2,.cls-3,.cls-4,.cls-5,.cls-7,.cls-8,.cls-9{stroke-miterlimit:10;}.cls-2,.cls-3,.cls-4,.cls-7,.cls-8,.cls-9{stroke-width:0.681px;}.cls-3{fill:#4268af;}.cls-4{fill:#f7ea2f;}.cls-5{fill:none;stroke-width:0.387px;}.cls-6{fill:#f7f1b8;stroke-width:0.683px;}.cls-7{fill:#a695c6;}.cls-8{stroke-linecap:round;}.cls-9{fill:#fff;}.cls-10{fill:#9c4c9c;}</style></defs><path class="cls-1" d="M62.789,135.892s-46.565-1.07-37.466,5.352,31.043,5.888,38.536,5.085,27.3-.268,35.325-.268,23.55.536,40.143.536,17.127-10.705,4.817-10.705Z"/><path class="cls-2" d="M49.8,53.528a15.515,15.515,0,0,0-4.5,5.142s-4.34,2.09-5.626,3.376-.482,4.982,0,6.589a4.04,4.04,0,0,0,4.716,2.411c1.874-.643,3.481-2.572,3.32-3.054a5.193,5.193,0,0,1-.16-1.286L49,68.474s2.411-1.446.8-3.375-1.447-2.734-1.447-2.734,4.018-3.373,4.822-4.016,4.5-1.658,4.5-1.658l-2.25-4.5S51.282,52.423,49.8,53.528Z"/><path class="cls-2" d="M75.675,106.6l-4.062,4.34s-4.135-3.617-6.425-4.34-10.125-3.978-10.125-3.978l-3.375,5.244s15.79,8.016,17.96,8.5a8.236,8.236,0,0,0,6.027-1.326c1.326-.964,5.906-5.475,5.906-5.475Z"/><polygon class="cls-3" points="76.961 99.132 70.854 106.082 82.985 112.028 86.122 107.85 76.961 99.132"/><path class="cls-4" d="M54.815,110.313a25.138,25.138,0,0,0-2.85-.009c-.437.105.114.446-1.248.663s-2.989,3.873-5.057,4.846-5.244-1.524-5.244-1.524,3.69-7.417,6.279-10.189,3.739-4.779,5.775-3.959,4.992,2.673,5.212,3.317-2.293.55-2.713.918-1.857,1.434-1.316,2.62A32.031,32.031,0,0,1,54.815,110.313Z"/><path class="cls-2" d="M89.493,102.788s11.21,7.594,12.3,8.437,2.893,6.027,5.063,11.21,8.3,15.792,8.3,15.792l4.117-6.992s-8.679-18.684-9.281-20.612S93.833,97,93.833,97Z"/><path class="cls-3" d="M95.946,92.962s.3,3.316.944,4.28a40.763,40.763,0,0,0,4.5,4.018s-3.655,5.625-5.444,6.429a89.591,89.591,0,0,1-8.86,2.411s-1.286.8-5.3-2.572S73.1,96.76,70.854,94.028a14.166,14.166,0,0,1-2.8-5.946L95.946,91.3Z"/><path class="cls-4" d="M118.65,129.906a28,28,0,0,0,2.786,1.449c.482.121.12-.482,1.567,0s4.942-2.17,7.473-2.049,4.339,4.1,4.339,4.1-7.473,5.183-11.451,6.509-6.147,2.652-7.714.844-3.5-5.063-3.375-5.786,2.531.636,3.134.5,2.564-.425,2.652-1.825A33.711,33.711,0,0,1,118.65,129.906Z"/><path class="cls-2" d="M98.276,64.115a1.664,1.664,0,0,0,1.808-.3c.663-.783,3.556-6.388,3.556-6.388a3.615,3.615,0,0,1-.784-2.17c0-1.265,1.567-2.684,1.929-3.059s1.868-3.028,2.652-3.751,2.169-.723,2.169,0v1.266s1.929-1.175,2.411-.648a3.473,3.473,0,0,1,.6,1.621s.9-.714,1.386,0a4.525,4.525,0,0,1,.422,2.16s.964,1.266.663,2.17-2.29,1.677-2.29,1.677.12.915-1.567,2.06a4.656,4.656,0,0,1-2.471,1.085s-3.858,4.339-4.34,5.725-1.728,3.014-3.033,3.134a24.1,24.1,0,0,1-3.114,0l-.965-4.761Z"/><path class="cls-2" d="M105.809,52.2s5.3-.738,4.581.95-3.134,1.386-3.134,1.386a1.986,1.986,0,0,0-.241,1.266c.181.482.361,1.265-.061,1.627"/><path class="cls-2" d="M112.6,50.726a8.808,8.808,0,0,1-.965,3.056,1.33,1.33,0,0,1-.681.8.469.469,0,0,1-.62-.336"/><path class="cls-2" d="M114.608,52.559l-2.276,2.406a1.146,1.146,0,0,1-.55.387.581.581,0,0,1-.563-.2"/><path class="cls-2" d="M112.64,56.632a.976.976,0,0,1-.971-.773"/><path class="cls-2" d="M109.524,49.619a1.96,1.96,0,0,0-.046.784,2.351,2.351,0,0,1-.359,1.3"/><polygon class="cls-2" points="82.425 49.188 80.657 56.581 73.586 52.885 73.101 47.81 82.425 49.188"/><path class="cls-2" d="M84.326,19.338s4.109,3.6,5.137,5.523,2.183,5.907,3.082,6.549,3.082-.77,3.467,1.028a2.4,2.4,0,0,1-.77,2.568,9.914,9.914,0,0,0-.226,3.869,10.179,10.179,0,0,1-.363,4.2c-.1.326-2.158-.344-2.3-.011-.126.288,1.665,1.578,1.5,1.871a13.154,13.154,0,0,1-1.133,1.717c-2.183,2.825-3.518,4.082-6.728,4.724s-4.493,1.095-8.6.582S65.832,44.51,65.318,38.345s1.67-16.823,9.119-17.594A78.536,78.536,0,0,0,84.326,19.338Z"/><path class="cls-5" d="M75.978,35.732s-1.673-2.356-3.084,0-1.415,6.209,0,6.852,2.955.642,3.084,0"/><path class="cls-6" d="M83.94,14.715s4.983-.686,6.653-.172-3.356,1.524-3.356,1.524,6.67,3.521,4.67,3.687a14,14,0,0,1-4.362-.929l2.688,3.981s-2.436,1.063-3.959-.4-3.233-2.942-3.233-1.4v1.811l-1.969-.527s1.113.642,0,3.6-1.627,4.238-1.627,4.238a3,3,0,0,0,0-1.926c-.385-.771-2.827,3.724-2.826,5.137s0,4.109,0,4.109l-1.6-2.565s-2.543.759-2.848,2.565a11.339,11.339,0,0,0,.72,5.138c.387,1.027,2.056,1.027,2.056,1.027s-.128,2.7,1.028,3.339S78.8,48.491,78.8,48.491s-3.981-.77-4.109-1.156,1.925,3.046,1.925,3.046l.583.086s-.146.82-3.382,0-3.574.437-7.555-.848-8.745-4.964-10.029-8.528-3.592-8.424-2.95-13.176a37.063,37.063,0,0,1,1.77-7.571c.164-.419-2.547-.613-2.36-1.006.217-.454,4.151-1.3,3.147-1.55-4.72-1.18-1.865-2.95.336-1.121,1.52,1.263-.478-3.139,0-3.293.365-.119,2.492,2.251,2.813,2.054a23.95,23.95,0,0,1,10.128-3.245C75.538,11.413,83.94,14.715,83.94,14.715Z"/><path class="cls-7" d="M73.1,52.2l7.556,4.385s10.125,9.643,12.375,14.3,6.108,16.714,4.5,18.8,1.447,2.089-5.625,3.053S69.729,91.3,68.443,89.367s1.076-9.8.779-10.286,1.262-7.071,0-9.482,1.149-12.054,1.31-14.143S73.1,52.2,73.1,52.2Z"/><path class="cls-7" d="M76,56.581s.658,7.313-2.895,5.947-8.355-4.34-10.6-4.34a37.931,37.931,0,0,0-5.143.482l-3.375-7.986s.9.083,2.3.209c4.578.415,14.483,1.3,15.5,1.3C73.1,52.2,76,56.581,76,56.581Z"/><path class="cls-7" d="M85.479,58.51,95.946,62.7l1.967-1,3.477,9.5s-8.745-1.521-10.86-4.043-8.105-8.848-8.105-8.848Z"/><path class="cls-8" d="M87.237,24.283s-1.884-.642-2.333.321a9.965,9.965,0,0,0-.643,2.376"/><ellipse class="cls-9" cx="88.308" cy="30.161" rx="1.922" ry="2.863" transform="translate(-5.003 29.145) rotate(-18.233)"/><ellipse class="cls-10" cx="89.211" cy="30.197" rx="1.32" ry="1.853" transform="translate(-4.969 29.43) rotate(-18.233)"/></svg>