<svg id="word" xmlns="http://www.w3.org/2000/svg" viewBox="0 0 160 160"><defs><style>.cls-1{fill:#729132;}.cls-2{fill:#ea5524;}.cls-3,.cls-8{fill:none;stroke:#fff;stroke-miterlimit:10;}.cls-3{stroke-width:0.25px;}.cls-4{fill:#9f8a6c;}.cls-5{fill:#ed3238;}.cls-6{fill:#fdc245;}.cls-7{fill:#a07d4d;}.cls-8{stroke-width:0.75px;}</style></defs><polygon class="cls-1" points="23.163 71.118 99.356 66.159 148.993 91.723 148.993 122.246 47.352 122.246 23.163 71.118"/><path class="cls-2" d="M15.765,122.417H47.352L25.974,74.538a2.035,2.035,0,0,1,1.183-2.907c2.219-1.026,70.086-5.081,70.086-5.081l51.75,25.173V71.973L104.386,61.884a13.971,13.971,0,0,0-6.037-1.066c-3.875.04-74.151,3.118-74.151,3.118s-7.458.492-10.356,4.959c-3.551,5.472-1.48,29.582-.888,35.738S15.765,122.417,15.765,122.417Z"/><polyline class="cls-3" points="47.574 69.921 56.409 82.576 94.636 77.067 84.561 67.698"/><polyline class="cls-3" points="37.958 70.263 55.89 97.719 117.22 85.97 88.852 67.356"/><path class="cls-3" d="M74.057,94.715s9.888,4.071,16.146,2.73,8.709-7.689,8.709-7.689"/><polygon class="cls-4" points="97.728 58.913 17.744 63.465 25.643 52.182 89.717 48.366 97.728 58.913"/><path class="cls-5" d="M29.046,53.7l-3.035.173-.034-1.861c-.006-.314.133-.576.31-.586l2.22-.127c.273-.015.5.365.511.851Z"/><path class="cls-5" d="M33.093,53.464l-3.035.173-.034-1.86c-.006-.314.133-.577.31-.587l2.22-.126c.273-.016.5.365.511.85Z"/><path class="cls-5" d="M37.14,53.234l-3.035.173-.034-1.86c-.006-.314.133-.577.31-.587l2.22-.126c.273-.016.5.365.511.85Z"/><path class="cls-6" d="M41.187,53l-3.035.172-.034-1.86c-.006-.314.133-.576.31-.586l2.22-.127c.273-.015.5.365.511.851Z"/><path class="cls-6" d="M45.234,52.773l-3.035.173-.034-1.86c-.006-.314.133-.577.31-.587l2.22-.126c.273-.016.5.365.511.85Z"/><path class="cls-6" d="M49.281,52.543l-3.036.173-.033-1.86c-.006-.314.133-.577.31-.587l2.22-.126c.273-.016.5.365.511.85Z"/><path class="cls-6" d="M53.328,52.313l-3.036.172-.033-1.86c-.006-.314.133-.576.31-.586l2.22-.127c.273-.015.5.365.511.851Z"/><path class="cls-5" d="M57.375,52.082l-3.036.173-.033-1.86c-.006-.314.133-.577.31-.587l2.22-.126c.273-.016.5.365.511.85Z"/><path class="cls-5" d="M61.422,51.852l-3.036.173-.033-1.86c-.006-.314.133-.577.31-.587l2.22-.126c.273-.016.5.365.511.85Z"/><path class="cls-5" d="M65.469,51.622l-3.036.172-.033-1.86c-.006-.314.133-.576.31-.586l2.22-.127c.273-.015.5.365.511.851Z"/><path class="cls-5" d="M69.516,51.391l-3.036.173-.033-1.86c-.006-.314.133-.577.31-.587l2.22-.126c.273-.016.5.365.511.85Z"/><path class="cls-5" d="M73.563,51.161l-3.036.173-.033-1.86c-.006-.314.133-.577.31-.587l2.22-.126c.273-.016.5.365.511.85Z"/><path class="cls-5" d="M77.61,50.931l-3.036.172-.033-1.86c-.006-.314.133-.576.31-.586l2.22-.127c.273-.015.5.365.511.851Z"/><path class="cls-5" d="M81.657,50.7l-3.036.173-.033-1.86c-.006-.314.133-.577.31-.587l2.22-.126c.273-.016.5.365.511.85Z"/><path class="cls-5" d="M85.7,50.47l-3.036.173-.033-1.86c-.006-.314.133-.577.31-.587l2.22-.127c.273-.015.5.366.511.851Z"/><path class="cls-5" d="M89.751,50.24l-3.036.172-.033-1.86c-.006-.314.133-.576.31-.586l2.22-.127c.273-.015.5.365.511.851Z"/><path class="cls-5" d="M27.078,56.878l-3.036.172-.033-1.86c-.006-.314.133-.576.31-.586l2.22-.127c.273-.015.5.365.511.851Z"/><path class="cls-5" d="M31.125,56.647l-3.036.173-.033-1.86c-.006-.314.133-.577.31-.587l2.22-.126c.273-.016.5.365.511.85Z"/><path class="cls-5" d="M35.172,56.417l-3.036.173L32.1,54.73c-.006-.314.133-.577.31-.587l2.22-.126c.273-.016.5.365.511.85Z"/><path class="cls-6" d="M39.219,56.187l-3.036.172L36.15,54.5c-.006-.314.133-.576.31-.586l2.22-.127c.273-.015.5.365.511.851Z"/><path class="cls-6" d="M43.266,55.956l-3.036.173-.033-1.86c-.006-.314.133-.577.31-.587l2.22-.126c.273-.016.5.365.511.85Z"/><path class="cls-6" d="M47.313,55.726l-3.036.173-.033-1.86c-.006-.314.133-.577.31-.587l2.22-.126c.273-.016.5.365.511.85Z"/><path class="cls-6" d="M51.36,55.5l-3.036.172-.033-1.86c-.006-.314.133-.576.31-.586l2.22-.127c.273-.015.5.365.511.851Z"/><path class="cls-5" d="M55.407,55.265l-3.036.173-.033-1.86c-.006-.314.133-.577.31-.587l2.22-.126c.273-.016.5.365.511.85Z"/><path class="cls-5" d="M59.454,55.035l-3.036.173-.033-1.86c-.006-.314.133-.577.31-.587l2.22-.127c.273-.015.5.366.511.851Z"/><path class="cls-5" d="M63.5,54.805l-3.036.172-.033-1.86c-.006-.314.133-.576.31-.586l2.22-.127c.273-.015.5.365.511.85Z"/><path class="cls-5" d="M67.548,54.574l-3.036.173-.033-1.86c-.006-.314.133-.577.31-.587l2.22-.126c.273-.016.5.365.511.85Z"/><path class="cls-5" d="M71.6,54.344l-3.036.173-.033-1.86c-.006-.314.133-.577.31-.587l2.22-.127c.273-.015.5.366.511.851Z"/><path class="cls-5" d="M75.641,54.114l-3.035.172-.033-1.86c-.006-.314.133-.576.31-.587l2.22-.126c.273-.015.5.365.51.85Z"/><path class="cls-5" d="M79.688,53.883l-3.035.173L76.62,52.2c-.006-.314.133-.577.31-.587l2.22-.126c.273-.016.5.365.51.85Z"/><path class="cls-5" d="M83.735,53.653l-3.035.173-.033-1.861c-.006-.313.133-.576.31-.586l2.22-.127c.273-.015.5.366.51.851Z"/><path class="cls-5" d="M87.782,53.423l-3.035.172-.033-1.86c-.006-.314.133-.576.31-.587l2.22-.126c.273-.015.5.365.51.85Z"/><path class="cls-5" d="M25.107,59.89l-3.036.173-.033-1.86c-.006-.314.133-.577.31-.587l2.22-.126c.273-.016.5.365.511.85Z"/><path class="cls-5" d="M29.154,59.66l-3.036.173-.033-1.861c-.006-.314.133-.576.31-.586l2.22-.127c.273-.015.5.366.511.851Z"/><path class="cls-5" d="M33.2,59.43l-3.036.172-.033-1.86c-.006-.314.133-.577.31-.587l2.22-.126c.273-.016.5.365.511.85Z"/><path class="cls-6" d="M37.248,59.2l-3.036.173-.033-1.86c-.006-.314.133-.577.31-.587l2.22-.126c.273-.016.5.365.511.85Z"/><path class="cls-6" d="M41.294,58.969l-3.035.173-.033-1.861c-.006-.314.133-.576.31-.586l2.22-.127c.273-.015.5.366.51.851Z"/><path class="cls-6" d="M45.341,58.738l-3.035.173-.033-1.86c-.006-.314.133-.577.31-.587l2.22-.126c.273-.016.5.365.51.85Z"/><path class="cls-6" d="M49.388,58.508l-3.035.173-.033-1.86c-.006-.314.133-.577.31-.587l2.22-.126c.273-.016.5.365.51.85Z"/><path class="cls-5" d="M53.435,58.278l-3.035.173-.033-1.861c-.006-.314.133-.576.31-.586l2.22-.127c.273-.015.5.365.51.851Z"/><path class="cls-5" d="M57.482,58.047l-3.035.173-.033-1.86c-.006-.314.133-.577.31-.587l2.22-.126c.273-.016.5.365.51.85Z"/><path class="cls-5" d="M61.529,57.817l-3.035.173-.033-1.86c-.006-.314.133-.577.31-.587l2.22-.126c.273-.016.5.365.51.85Z"/><path class="cls-5" d="M65.576,57.587l-3.035.173L62.508,55.9c-.006-.314.133-.576.309-.586l2.221-.127c.273-.015.5.365.51.851Z"/><path class="cls-5" d="M69.623,57.356l-3.035.173-.033-1.86c-.006-.314.133-.577.309-.587l2.221-.126c.273-.016.5.365.51.85Z"/><path class="cls-5" d="M73.67,57.126l-3.035.173-.034-1.86c0-.314.134-.577.31-.587l2.221-.126c.273-.016.5.365.51.85Z"/><path class="cls-5" d="M77.717,56.9l-3.035.173-.034-1.861c0-.314.134-.576.31-.586l2.221-.127c.273-.015.5.365.51.851Z"/><path class="cls-5" d="M81.764,56.665l-3.035.173-.034-1.86c0-.314.134-.577.31-.587l2.221-.126c.273-.016.5.365.51.85Z"/><path class="cls-5" d="M85.811,56.435l-3.035.173-.034-1.86c-.005-.314.134-.577.31-.587l2.221-.126c.273-.016.5.365.51.85Z"/><path class="cls-5" d="M23.3,62.893l-3.035.173-.034-1.86c0-.314.133-.577.31-.587l2.22-.126c.274-.016.5.365.511.85Z"/><path class="cls-5" d="M27.351,62.663l-3.035.173-.034-1.861c0-.314.133-.576.31-.586l2.22-.127c.274-.015.5.365.511.851Z"/><path class="cls-5" d="M31.4,62.432l-3.035.173-.034-1.86c-.006-.314.133-.577.31-.587l2.22-.126c.274-.016.5.365.511.85Z"/><path class="cls-6" d="M35.445,62.2l-3.035.173-.034-1.86c-.006-.314.133-.577.31-.587l2.22-.126c.274-.016.5.365.511.85Z"/><path class="cls-6" d="M39.492,61.972l-3.035.173-.034-1.861c-.006-.314.133-.576.31-.586l2.22-.127c.274-.015.5.365.511.851Z"/><path class="cls-6" d="M43.539,61.741l-3.035.173-.034-1.86c-.006-.314.133-.577.31-.587L43,59.341c.274-.016.5.365.511.85Z"/><path class="cls-6" d="M47.586,61.511l-3.035.173-.034-1.86c-.006-.314.133-.577.31-.587l2.22-.126c.273-.016.5.365.511.85Z"/><path class="cls-5" d="M51.633,61.281l-3.035.172-.034-1.86c-.006-.314.133-.576.31-.586l2.22-.127c.273-.015.5.365.511.851Z"/><path class="cls-5" d="M55.68,61.05l-3.035.173-.034-1.86c-.006-.314.133-.577.31-.587l2.22-.126c.273-.016.5.365.511.85Z"/><path class="cls-5" d="M59.727,60.82l-3.035.173-.034-1.86c-.006-.314.133-.577.31-.587l2.22-.126c.273-.016.5.365.511.85Z"/><path class="cls-5" d="M63.774,60.59l-3.035.172-.034-1.86c-.006-.314.133-.576.31-.586l2.22-.127c.273-.015.5.365.511.851Z"/><path class="cls-5" d="M67.821,60.359l-3.035.173-.034-1.86c-.006-.314.133-.577.31-.587l2.22-.126c.273-.016.5.365.511.85Z"/><path class="cls-5" d="M71.868,60.129l-3.035.173-.034-1.86c-.006-.314.133-.577.31-.587l2.22-.126c.273-.016.5.365.511.85Z"/><path class="cls-5" d="M75.915,59.9l-3.035.172-.034-1.86c-.006-.314.133-.576.31-.586l2.22-.127c.273-.015.5.365.511.851Z"/><path class="cls-5" d="M79.962,59.668l-3.035.173-.034-1.86c-.006-.314.133-.577.31-.587l2.22-.126c.273-.016.5.365.511.85Z"/><path class="cls-5" d="M84.009,59.438l-3.036.173-.033-1.86c-.006-.314.133-.577.31-.587l2.22-.126c.273-.016.5.365.511.85Z"/><path class="cls-5" d="M91.773,53.2l-3.035.173-.034-1.86c0-.314.133-.577.31-.587l2.22-.126c.274-.016.5.365.511.85Z"/><path class="cls-5" d="M89.858,56.205l-3.035.173-.034-1.861c0-.314.134-.576.31-.586L89.32,53.8c.273-.015.5.365.51.851Z"/><path class="cls-5" d="M93.568,55.994l-3.035.172-.034-1.86c-.006-.314.133-.576.31-.587l2.22-.126c.274-.015.5.365.511.85Z"/><path class="cls-5" d="M88.112,59.2l-3.035.173-.034-1.86c-.006-.314.133-.577.31-.587l2.22-.126c.273-.016.5.365.511.85Z"/><path class="cls-5" d="M92.106,59.148l-3.035.173-.034-1.861c-.006-.314.133-.576.31-.586l2.22-.127c.273-.015.5.365.511.851Z"/><path class="cls-5" d="M95.759,58.94l-3.035.173-.034-1.861c0-.314.134-.576.31-.586l2.221-.127c.273-.015.5.365.51.851Z"/><polygon class="cls-7" points="98.88 60.383 16.816 65.054 16.782 63.179 98.846 58.508 98.88 60.383"/><path class="cls-8" d="M39.437,122.075,25.422,87.8s-8.386-16.97-4.645-18.406S90.1,64.953,90.1,64.953a33.32,33.32,0,0,1,12.6,2.389c7.349,2.742,46.217,19.85,46.217,19.85"/><path class="cls-8" d="M30.264,121.9,19.487,84.4s-4.9-13.948-.715-16.177S69.8,64.939,69.8,64.939,93.3,62.5,97.134,63.727s51.933,17.309,51.933,17.309"/><path class="cls-8" d="M22.127,121.391s-7.675-43.536-7.545-44.972-.275-6.688,3.808-9.077,76.444-5.928,79.315-5.2,51.066,13.6,51.066,13.6"/></svg>