<svg id="word" xmlns="http://www.w3.org/2000/svg" viewBox="0 0 160 160"><defs><style>.cls-1{fill:#fdce8d;}.cls-1,.cls-2{stroke:#9d4b9c;stroke-miterlimit:10;}.cls-2{fill:#dbb47d;}.cls-3{fill:#9d4b9c;}</style></defs><polygon class="cls-1" points="53.455 55.963 51.167 124.848 93.352 124.416 108.37 105.547 110.658 55.963 95.406 41.024 50.412 46.624 49.643 56.902 53.455 55.963"/><path class="cls-1" d="M48.115,45.694s-1.137,12.138.387,12.758,4.575,2.183,4.575,2.183l41.565-4.047,1.142-17.744Z"/><polygon class="cls-2" points="94.255 57.832 94.089 123.179 114.235 106.733 111.04 63.439 96.548 54.098 94.255 57.832"/><path class="cls-2" d="M95.784,39.156,111.8,54.1s2.665,7.782,1.519,10.273-4.189,3.737-6.1.62-12.581-8.4-12.581-8.4Z"/><path class="cls-3" d="M52.936,68.564c2.593-.234,5.185-.483,7.781-.679,2.594-.216,5.19-.406,7.787-.585l.247-.017v.25q-.03,4.4-.127,8.791l-.005.22-.217.007c-2.577.08-5.154.148-7.731.19-2.577.063-5.156.072-7.734.1,2.574-.147,5.147-.31,7.723-.42,2.575-.13,5.15-.234,7.726-.327l-.222.227q.03-4.4.127-8.792l.245.233c-2.6.166-5.2.321-7.8.449C58.14,68.357,55.537,68.452,52.936,68.564Z"/><path class="cls-3" d="M60.411,78.183l.1,7.343-.106-.1,13.556-.213,13.556-.137-.246.252-.106-7.654.232.225-12.8.189c-4.266.064-8.533.072-12.8.1,4.264-.144,8.528-.309,12.793-.417l12.8-.328.228-.006.005.23.147,7.653.005.252h-.252l-13.557.07-13.557-.006H60.3v-.106Z"/><path class="cls-3" d="M74.981,86.147l.067,3.519.012,3.518-.2-.209,4.624-.011c1.542-.013,3.083.03,4.625.043s3.083.051,4.624.1,3.082.118,4.623.181c-1.541.045-3.083.116-4.625.128-1.542.028-3.083.051-4.625.045s-3.083.021-4.624-.009l-4.624-.063-.213,0,.008-.207.139-3.515Z"/><path class="cls-3" d="M59.651,94.111c2.872-.056,5.743-.134,8.615-.156q4.308-.058,8.616-.07h.237l-.011.239-.363,7.551-.011.239-.24-.008c-5.49-.184-10.979-.385-16.466-.653l-.095,0-.009-.09L59.4,96.076l.741,5.055-.1-.094c5.494.077,10.985.22,16.475.38l-.251.232.4-7.549.226.237q-4.308,0-8.616-.07C65.394,94.246,62.523,94.167,59.651,94.111Z"/><path class="cls-3" d="M95,110.556c-3.108-.107-6.216-.2-9.322-.351-3.107-.126-6.211-.288-9.316-.451l.246-.236q.1,4.395.151,8.792l-.226-.229c3.079.1,6.157.193,9.235.326,3.078.111,6.154.273,9.232.424-3.081-.021-6.162-.032-9.242-.093-3.08-.04-6.159-.115-9.238-.192l-.221-.005-.005-.223q-.1-4.4-.152-8.792l0-.251.248.015c3.1.182,6.207.365,9.308.584C88.8,110.071,91.9,110.319,95,110.556Z"/></svg>