<svg id="word" xmlns="http://www.w3.org/2000/svg" viewBox="0 0 160 160"><defs><style>.cls-1{fill:#26a7df;}.cls-1,.cls-10,.cls-2,.cls-3,.cls-4,.cls-5,.cls-6,.cls-7,.cls-8,.cls-9{stroke:#9c4c9c;stroke-miterlimit:10;}.cls-1,.cls-10,.cls-2,.cls-3,.cls-4,.cls-5,.cls-6,.cls-7,.cls-8{stroke-width:0.746px;}.cls-2{fill:#87b9e3;}.cls-3{fill:#83ccbd;}.cls-4{fill:#fff6ab;}.cls-5{fill:#aed699;}.cls-6{fill:#fad7c6;}.cls-7{fill:#245234;}.cls-8{fill:#fcf5ad;}.cls-9{fill:none;stroke-width:0.932px;}.cls-10{fill:#fff;}.cls-11{fill:#9c4c9c;}</style></defs><path class="cls-1" d="M18.985,72.58l1.034,3.846,4.286,15.949A20.226,20.226,0,0,0,30.277,93.8c2.731.079,5.122-2.462,5.122-2.462L33.588,70.483s-5.691,2.983-8.116,3.023A34.8,34.8,0,0,1,18.985,72.58Z"/><ellipse class="cls-2" cx="26.393" cy="71.253" rx="7.442" ry="2.228" transform="translate(-10.64 4.905) rotate(-8.844)"/><ellipse class="cls-3" cx="37.293" cy="80.503" rx="7.257" ry="17.193" transform="translate(-30.611 23.401) rotate(-25.083)"/><path class="cls-3" d="M42.921,92.526c-2.687,1.258-7.367-3.07-10.454-9.665S29.055,69.9,31.741,68.642"/><ellipse class="cls-4" cx="49.985" cy="80.693" rx="7.257" ry="17.193" transform="translate(-18.144 14.6) rotate(-14.093)"/><path class="cls-4" d="M53.217,93.568c-2.876.722-6.646-4.418-8.419-11.481s-.879-13.375,2-14.1"/><ellipse class="cls-5" cx="61.408" cy="82.999" rx="7.257" ry="17.193" transform="translate(-18.362 17.451) rotate(-14.093)"/><path class="cls-5" d="M64.641,95.875c-2.877.722-6.647-4.418-8.42-11.482s-.879-13.374,2-14.1"/><path class="cls-6" d="M112.958,61.9s1.787,4.677,1.988,5.257-.415,2.212,1.7,4.057,5.047-.85,7.27-2.225,3.152-3.3,2.867-4.51-6.827-11.718-6.827-11.718Z"/><path class="cls-6" d="M95.2,45.908s3.052,3.524,2.149,5.973.739,7.028,2.063,8.208,8.076,2.574,9.592,3.45,3.564.246,5.945-.543S121.6,53.9,121.6,53.9v-2.78a10.362,10.362,0,0,0,1.925-3.625c.491-1.944-1.145-5.336-2.3-5.054-1.014.248-1.5,2.232-1.5,2.232s.392-.639-2.757-3.06-3.03-7.553-8.978-7.553-10.963-2.1-12.246.7S93.308,43.835,95.2,45.908Z"/><path class="cls-7" d="M113.816,64.148l-3.7,1.79s-1.239,13.518-2.242,19.509-2.216,11.943-2.216,11.943l11.779,8.723,19.358-.884-.233-19.272s.743-20.678-1.4-22.961-6.445-2.576-8.349-3.405a5.3,5.3,0,0,0-2.637-.683s2.182,4.983,1.2,6.267-2.7,3.868-4.363,4.4-3.1,2.031-4.585-.195A30.564,30.564,0,0,1,113.816,64.148Z"/><path class="cls-7" d="M109.025,67.245s-5.555,6.373-7.171,10.99S96.3,94.088,96.3,94.088l8.567,3.561,3.123-10.815,2.027-19.863S110.553,65.387,109.025,67.245Z"/><path class="cls-1" d="M71.244,85.8l1.335,4.755,5.536,19.719a27.086,27.086,0,0,0,7.714,1.767c3.527.1,6.615-3.044,6.615-3.044l-2.338-25.79s-7.351,3.688-10.483,3.737A46.663,46.663,0,0,1,71.244,85.8Z"/><path class="cls-1" d="M73.186,91.516s-3.506.278-4.792,1.191-5.221,3.706-3.058,8.311a11.494,11.494,0,0,0,7.421,6.53,19.944,19.944,0,0,0,4.747.548l-.805-2.867s-4.826.239-6.012-2.748-2.82-4.569-.74-6.137a16.724,16.724,0,0,1,4.045-2.256Z"/><ellipse class="cls-2" cx="80.812" cy="84.158" rx="9.603" ry="2.757" transform="translate(-11.431 12.712) rotate(-8.403)"/><path class="cls-8" d="M97.025,36.161s3.646,6.319,4.252,7.177a2.9,2.9,0,0,0,1.925.961l-.794-2.308-.008-3.614a20.3,20.3,0,0,1,1.39,2.531c1.069,2.124,1.595,3.354,1.595,3.354s-.963-4.663-.52-5.652,1.3.848,3.306,2.124a34.137,34.137,0,0,1,3.36,2.424l-1.178-2.928s.8-1.631,1.733,0,3.168,5.186,3.168,5.186l.5-1.347a27.338,27.338,0,0,1,2.961,3.25c.466.854.518-1.138,1.007-2.644s.01-2.54,1.923-1.517a4.241,4.241,0,0,1,1.952,3.9c-.077.442-1.547,3.467-1.547,3.467l-.405,2.041s.7.676,1.137.5a1.972,1.972,0,0,0,1.639-2.246c.008-1.948,4.083-13.206.917-17.711s-7.7-9.711-11.59-10.36-10.337-.09-12.6,1.724A35.822,35.822,0,0,0,96.3,29.756s-3,.846-3.851,2.44S89.8,41.279,90.653,43.65s1.692,4.772,1.692,4.772l.831-2.991a44.7,44.7,0,0,1,2,5.691,22.757,22.757,0,0,0,1.709,4.63s-.043-2.332.141-4.391a15.206,15.206,0,0,0-.471-5.043,11.723,11.723,0,0,1-.256-2.46l.958,1.3.805.182a22.924,22.924,0,0,1-.616-4.658A32.764,32.764,0,0,0,97.025,36.161Z"/><path class="cls-9" d="M19.693,74.707s-7.737,1.546-7.186,1.967.748,2.974,3.6,2.546,22.256,3.541,25.055,4.41,14.285,2.661,14.285,2.661,6.9-.186,7.792-.785,6.961-1.79,6.961-1.79l1.613.764"/><path class="cls-9" d="M12.507,76.674l1.147,15.432s16.5,5.808,22.347,6.15,18.541,5.427,18.541,5.427.072,2.2,2.092,1.682,9.2-3.39,9.2-3.39"/><path class="cls-9" d="M17.834,79.247s1.231,8.429,1.635,10.375a26.041,26.041,0,0,0,2.083,5.094"/><path class="cls-9" d="M27.478,80.693c.579,5.478,3.009,11.185,3.457,16.675"/><path class="cls-9" d="M38.255,83.278l-.023,2.644a20.293,20.293,0,0,0,.12,2.959,20.33,20.33,0,0,0,.559,2.48c.655,2.429.339,5.1.994,7.528"/><path class="cls-9" d="M51.175,85.637a14.94,14.94,0,0,0-1.187,8.091c.221,2.753.77,5.484.765,8.247"/><path class="cls-9" d="M56.241,86.52c-.92,6.228-.157,12.566.6,18.815"/><path class="cls-9" d="M8.056,100.073A4.6,4.6,0,0,1,9.317,98.26c.349-.305.742-.557,1.07-.883a6.464,6.464,0,0,0,.736-.942c.275-.4.571-.788.825-1.2.7-1.148,1.709-3.015,1.494-2.619"/><path class="cls-9" d="M49.908,114.521c1.392-2.1,3.746-3.47,4.969-5.677a13.511,13.511,0,0,0,1.064-2.881l.315-1.1"/><path class="cls-10" d="M74.113,100.064s6.035,2.166,10.548-.943,7-5.4,8.632-6.134,2.579-2.4,3.649-.735.571.494,5.458.482,5.134-.784,7.46,2.284,5.008,4.427,5.707,5.613.857,4.7,3.847,8.081a70.242,70.242,0,0,1,5.355,7.45c-.106-.35,0-1.357-5.653,1.362s-8.285,1.544-6.617,4.7-.6,4.6-.712,5.953.765,2.616.28,3.392-3.557.437-2.99,1.972.871,3.238-.539,4.113a24.6,24.6,0,0,0-2.672,1.959s-.055.362-2.582-5.363,1.393-10.4-2.406-12.7-9.934,1.571-7.453-2.505,8.469-4.588,4.3-8.951-9.815-5.819-12.592-5.545S74.113,100.064,74.113,100.064Z"/><path class="cls-6" d="M120.4,99.409s-4.416.724-5.285,0-2.8-.73-4.838.224-4.8,3.437-5.411,4.918-3.149,4.621-3.059,5.4,1.4-.154,1.4-.154-1.6,2.154-.489,2.244c1.329.109,1.479.653,1.479.653s.748,1.316,1.394.879-.962-2.257,2.952-3.3,5.527-.814,5.527-.814.825.634,2.475-.47.054-2.447,3.356-2.411,4.321-.459,4.321-.459S125.683,99.409,120.4,99.409Z"/><path class="cls-10" d="M108.22,48.122s.321-1.74,1.911-1.833,3.165,2.181,2.624,3.495-1.921.843-2.648.723C108.739,50.281,108.22,48.122,108.22,48.122Z"/><path class="cls-10" d="M98.828,49.518a2.53,2.53,0,0,1,2.111-.736c1.063.3,1.925,2.71,1.15,3.913s-1.105,1.254-1.9.58C98.877,52.168,98.275,50.244,98.828,49.518Z"/><path class="cls-11" d="M110.945,43.978a6.105,6.105,0,0,0-2.507-.577,6.1,6.1,0,0,1-2.681-.566,16.832,16.832,0,0,1,2.733-.177,4.027,4.027,0,0,1,1.4.345A2.13,2.13,0,0,1,110.945,43.978Z"/><path class="cls-11" d="M100.7,44.477a12.891,12.891,0,0,1-1.2,1.5,4.611,4.611,0,0,1-1.63,1.082,4.633,4.633,0,0,1,1.107-1.613,5.192,5.192,0,0,1,.756-.617A1.965,1.965,0,0,1,100.7,44.477Z"/><path class="cls-11" d="M108.1,53.634a2.555,2.555,0,0,0-.951-.472,2.033,2.033,0,0,0-.914-.032,1.428,1.428,0,0,0-.194.049c-.047.019-.03,0-.06.064a3.619,3.619,0,0,0-.239.418,4.882,4.882,0,0,1-.675.955,4.9,4.9,0,0,1,.131-1.162,2.082,2.082,0,0,1,.207-.62.65.65,0,0,1,.334-.318,1.811,1.811,0,0,1,.347-.116,1.835,1.835,0,0,1,1.3.232A1.458,1.458,0,0,1,108.1,53.634Z"/><path class="cls-11" d="M113.817,53.349a14.486,14.486,0,0,1-1.432,1.949,6.393,6.393,0,0,1-1.951,1.544,8.008,8.008,0,0,1-2.409.577,5.957,5.957,0,0,1-1.231.006,1.874,1.874,0,0,1-1.14-.437,2.036,2.036,0,0,0,1.141.118,10.459,10.459,0,0,0,1.144-.213,11.79,11.79,0,0,0,2.175-.707C111.416,55.505,112.475,54.265,113.817,53.349Z"/><ellipse class="cls-11" cx="100.735" cy="52.168" rx="1.14" ry="1.182" transform="translate(-6.11 14.046) rotate(-7.742)"/><ellipse class="cls-11" cx="110.937" cy="49.588" rx="1.14" ry="1.182" transform="translate(-5.669 15.397) rotate(-7.742)"/><path class="cls-7" d="M133.964,64.874s-2.285,10.5-.9,15.5,2.913,12.959,2.731,13.714-.5.611-.991,1.273-.664.307-2.188.641-1.048-.914-3.745-.057-6.615,1.216-7.28,1.445-1.639.634-1.639.634a5.315,5.315,0,0,1,2.351,4c.465,3.028,1.6,7.685,1.6,7.685s1.156-.538,1.464,0,1.436,0,1.436,0-.164.207,3.684.239,13.493-.059,16.018-8.352-2.954-19.88-3.307-22.987S138.833,59.3,133.964,64.874Z"/><path class="cls-6" d="M103.973,112.531c.154-.48.842-3.937,1.681-4.435a32.437,32.437,0,0,1,5.183-1.243"/><path class="cls-6" d="M103.2,110.073s1.528-3.555,3.785-4.831a7.745,7.745,0,0,1,2.137-.876"/></svg>