<svg id="word" xmlns="http://www.w3.org/2000/svg" viewBox="0 0 160 160"><defs><style>.cls-1{fill:#aadeec;}.cls-11,.cls-14,.cls-2{fill:none;}.cls-2{stroke:#aadeec;stroke-width:1.151px;}.cls-11,.cls-2{stroke-linecap:round;}.cls-11,.cls-12,.cls-13,.cls-14,.cls-2,.cls-3,.cls-4,.cls-5,.cls-6,.cls-7,.cls-8,.cls-9{stroke-miterlimit:10;}.cls-3{fill:#28aae1;}.cls-11,.cls-12,.cls-13,.cls-14,.cls-3,.cls-4,.cls-5,.cls-6,.cls-7,.cls-8,.cls-9{stroke:#9c4c9c;stroke-width:0.46px;}.cls-4{fill:#c1976b;}.cls-5{fill:#ec4e98;}.cls-6{fill:#fdf9d0;}.cls-7{fill:#2a3b8e;}.cls-8{fill:#fde0ce;}.cls-9{fill:#fff;}.cls-10{fill:#9c4c9c;}.cls-12{fill:#b1b3b4;}.cls-13{fill:#5f6062;}.cls-15{fill:#9c4a9b;}</style></defs><path class="cls-1" d="M88.115,118.246s-41.112,2.7-37.65,3.3,4.327,3.894,1.3,4.194-38.083.9-20.773,3.894,29-.3,37.651.6,27.264,1.5,32.457,1.5,34.621.9,16.877-1.8-26.4,0-28.562-3.895S118.408,120.643,88.115,118.246Z"/><path class="cls-2" d="M79.078,120.025a161.686,161.686,0,0,0,26.128-2.178c15.173-2.417,30.659-9.836,24.642-11.08s-32.823,4.44-26.079,8.229,36.391-.227,41.641-6.236-5.015-8.407-17-4.619c-3.833,1.211-24.276,12.577-3.434,12.148s31.712-10.724,31.712-10.724"/><path class="cls-3" d="M83.078,83.7a23.51,23.51,0,0,0-1.151,8.7c.255,4.988,1.918,6.651,1.918,10.744s-.256,8.442-.256,8.442l-6.011-.128S75.532,99.56,75.532,97.13,73.741,83.7,73.741,83.7Z"/><path class="cls-3" d="M105.94,62.724s4.509,4.6,7.194,4.7,3.07-.1,4.317-2.4,5.564-3.453,5.564-3.453l3.837,4.509s-5.084,7-7.2,8.345-7.77.672-10.551-.575-10.648-3.358-10.648-3.358Z"/><polygon class="cls-4" points="38.824 35.737 28.464 35.865 26.034 43.923 42.405 44.818 38.824 35.737"/><path class="cls-5" d="M21.429,41.876s-9.976,3.2-9.848,1.407,3.965-2.3,4.348-3.325,0-2.686-2.558-4.733S7.1,29.854,11.2,29.47s11.255,8.186,11.255,8.186Z"/><path class="cls-4" d="M73.086,35.574S88.577,47.76,91.008,48.4a41.369,41.369,0,0,1,4.6,1.535S95.228,61.189,91.391,64s-8.058,6.012-12.406,7.035-15.86,3.709-15.86,3.709L53.66,45.969s12.151-5.116,13.558-6.4A61.138,61.138,0,0,1,73.086,35.574Z"/><path class="cls-4" d="M79.5,37.144s-4.86-.64-4.86,1.791,1.279,4.988,7.546,5.371a135.344,135.344,0,0,0,17.139-.639,32.953,32.953,0,0,1,3.709,0l.64-6.907Z"/><path class="cls-6" d="M106.228,34.842s-5.116-.9-4.988.256-.64,1.023-1.279,1.151-4.861.128-2.942,1.407a6.475,6.475,0,0,1,2.174,1.79c1.279,1.279,2.814,2.175,2.43,3.2a2.183,2.183,0,0,1-1.407,1.279s-2.685-1.535-1.662.639,2.046,2.43,3.2,2.558a4.035,4.035,0,0,0,2.942-.639c1.023-.64,1.919,1.407,2.558-.128a17.07,17.07,0,0,0,.895-3.837S107.635,35.737,106.228,34.842Z"/><path class="cls-5" d="M109.042,36.76s-1.663-10.488,1.662-10.232,3.837,4.605,3.326,7.163a32.726,32.726,0,0,0-.512,5.5s3.837-2.813,3.837-.511-1.279,2.686-3.069,2.814-6.14,1.023-6.14,1.023l-.383-4.221Z"/><path class="cls-7" d="M67.346,73.468l1.79,14.2s3.71,1.023,5.884-.767,2.686-1.535,5.372-1.152,7.29-.255,8.953-3.709,1.535-5.755,4.6-5.5,6.651-1.407,7.163-5.116,3.965-5.884,4.6-5.884,2.942-4.476,2.942-4.476L96,55.434s-7.8,8.953-11.639,10.744-17.523,6.395-17.523,6.395Z"/><path class="cls-8" d="M42.021,26.144a16.015,16.015,0,0,1-1.79,7.163c-1.791,2.942-2.047,6.523.895,11.127s11.255,4.733,14.965,3.326,8.441-1.279,9.08-5.756S68.5,31.516,59.416,27.423,42.405,22.947,42.021,26.144Z"/><path class="cls-5" d="M41.19,29.15s.576-2.878,9.017,1.471,13.174,12.151,14.2,13.3,1.279-1.279,3.965-2.175,4.477-1.534,5.372-5.116,1.663-9.464-1.279-13.813-2.43-8.953-10.36-8.953-12.918,2.43-14.2,3.965S36.106,23.491,41.19,29.15Z"/><path class="cls-5" d="M69.579,7.579s-2.814-.256-3.326.255-2.941.128-2.686.9.128.767,0,2.046-1.406,2.174-.767,2.942.128,3.07.9,3.581.256.768,2.047,2.047,1.023,1.023,3.069,1.534,2.814.9,3.837.384a11.805,11.805,0,0,0,2.814-1.791,5.219,5.219,0,0,0,1.411-3.048A7.607,7.607,0,0,0,77,13.078c-.256-.895-.256-2.813-.895-2.558s-1.151-.383-1.919-1.279S72.265,4.765,69.579,7.579Z"/><path class="cls-9" d="M53.482,34.374s-2.626-.915-3.021,2.644,2.392,1.937,3.247.226S54.463,34.6,53.482,34.374Z"/><path class="cls-10" d="M52.519,34.709s-1.734-.605-1.995,1.746,1.58,1.28,2.145.15S53.167,34.859,52.519,34.709Z"/><path class="cls-9" d="M44.113,29.414s-2.625-.915-3.02,2.644,2.392,1.937,3.247.226S45.1,29.641,44.113,29.414Z"/><path class="cls-10" d="M43.151,29.748s-1.735-.6-2,1.747,1.58,1.279,2.144.149S43.8,29.9,43.151,29.748Z"/><path class="cls-11" d="M41.756,37.716c.245,0,.378-.275.536-.462a1.293,1.293,0,0,1,1.665-.12,2.617,2.617,0,0,1,.949,1.519"/><path class="cls-6" d="M93.438,51.469s-1.151-5.372,1.535-4.093,5.755,2.814,5.755,2.814.256-.512.256,1.535-1.279.767-.64,3.453.128,4.477-.383,4.477S98.3,58.631,98.3,61.062a3.381,3.381,0,0,1-1.919,3.2s-1.279,2.3-1.662,3.07,2.558.639-1.279,2.046-3.965,1.663-4.605,1.407-1.279,1.407-2.43,1.023-2.3.384-2.814.256-4.6,1.791-4.86.256a11.614,11.614,0,0,0-1.663-3.581A11.036,11.036,0,0,0,75.4,66.178a53.67,53.67,0,0,0-4.733-5.244c-1.023-1.024-7.162-8.953-7.162-8.953s-3.387-5.942-2.108-5.047,5.085.758,5.561,5.047c.4,3.64,7.963,6.53,7.963,6.53s-.545,1.655,1.5,3.957,3.709,2.558,3.709,2.558a11.66,11.66,0,0,0,3.2-.255C85,64.387,86.787,64,87.3,63.108s-2.371-5.365.826-3.191,3.011-.39,3.4-.518-1.151-3.326.384-3.2S92.67,51.6,93.438,51.469Z"/><path class="cls-6" d="M62.869,65.794s-5.627-.256-4.6,2.558.384,4.093,1.023,5.116,2.814,1.663,3.07,2.046a2.036,2.036,0,0,0,2.3.384c.767-.512,3.325-.639,3.709-.639s4.221.255,4.732,0a20.516,20.516,0,0,1,3.71-.64,2.849,2.849,0,0,0,1.918-1.279,5.678,5.678,0,0,0,.256-2.3s-1.663-1.919-2.558-3.07S60.7,46.737,60.7,46.737s-2.174,0-.9,2.046S61.974,50.318,62.1,53s-.384,1.151,1.79,3.453.128,2.174,1.407,3.326-1.662,2.3.768,3.069,2.814-.511,2.686,1.535-2.686,1.535-2.558,2.558S66.067,65.282,62.869,65.794Z"/><path class="cls-12" d="M70.671,122.2s-2.494,3.773-1.726,4.349,1.694.256,4.476-.128,14.837-3.773,14.837-3.773L88,120.919l-3.134.832-.415-1.375-1.727.383.48,1.247-8.186,2.367-.576-2.367H72.91s.583,3.065-1.407,3.134c-1.855.064-.288-2.75-.288-2.75Z"/><path class="cls-9" d="M74.764,120.951a15.878,15.878,0,0,1,5.948-2.4,40.524,40.524,0,0,1,4.06-.354,12.471,12.471,0,0,0-.607-4.058c-.672-1.056.575-2.878.671-3.454s-.671-.288-.959,0-1.823,0-2.782-1.247-4.508-1.535-4.508-1.535a50.859,50.859,0,0,1,0,5.468c-.192,1.055-3.645,2.974-4.605,4.221-.851,1.106-3.421.9-2.039,3.478C71.23,121.368,73.662,121.778,74.764,120.951Z"/><path class="cls-13" d="M80.712,118.553a15.878,15.878,0,0,0-5.948,2.4c-1.1.827-3.534.417-4.821.121a3.094,3.094,0,0,0-.071.455c-.1,1.343,4.221.479,5.851.192s3.933-2.111,5.18-2.494.384,1.918.384,1.918l3.549-.479s0-1.133-.064-2.465A40.524,40.524,0,0,0,80.712,118.553Z"/><path class="cls-14" d="M76.694,110.115c.079.234.354.325.59.4a7.76,7.76,0,0,1,2.212,1.072"/><path class="cls-14" d="M76.392,112.167l1.044.474a4.919,4.919,0,0,1,1.6,1"/><path class="cls-14" d="M76.357,113.57a22.715,22.715,0,0,1,1.793,2.172"/><path class="cls-14" d="M75.4,114.782a8.292,8.292,0,0,0,.832,1.984"/><path class="cls-14" d="M73.747,115.992l1.178,1.941"/><path class="cls-12" d="M140.2,63.527s4.452-.8,4.338-1.754-.986-1.4-3.184-3.15S128.373,50.5,128.373,50.5L127.3,51.877l2.766,1.692-.708,1.25,1.47.984L131.4,54.6l7.365,4.286-1.314,2.05,1.06,1.11s1.813-2.539,3.238-1.147c1.327,1.3-1.79,2.108-1.79,2.108Z"/><path class="cls-9" d="M136.467,61.428a15.871,15.871,0,0,1-5.842-2.645,40.406,40.406,0,0,1-3.061-2.692,12.479,12.479,0,0,0-2.515,3.242c-.3,1.215-2.479,1.572-2.961,1.9s.255.684.662.694,1.259,1.318,1.019,2.873,2,4.32,2,4.32a50.861,50.861,0,0,1,3.955-3.776c.895-.59,4.668.583,6.232.415,1.387-.149,3.01,1.856,3.923-.927C139.209,63.7,137.826,61.655,136.467,61.428Z"/><path class="cls-13" d="M130.625,58.783a15.871,15.871,0,0,0,5.842,2.645c1.359.227,2.742,2.268,3.416,3.4a3.154,3.154,0,0,0,.379-.263c1.037-.858-2.568-3.384-3.9-4.364s-4.242-1.387-5.381-2.024,1.123-1.6,1.123-1.6l-2.8-2.235s-.819.782-1.739,1.748A40.406,40.406,0,0,0,130.625,58.783Z"/><path class="cls-14" d="M127.3,67.516a.8.8,0,0,0-.121-.7,7.78,7.78,0,0,1-.754-2.34"/><path class="cls-14" d="M128.989,66.318l-.377-1.082a4.925,4.925,0,0,1-.388-1.849"/><path class="cls-14" d="M130.028,65.374a22.68,22.68,0,0,1,.333-2.8"/><path class="cls-14" d="M131.569,65.232a8.3,8.3,0,0,0,.86-1.972"/><path class="cls-14" d="M133.582,65.59l.591-2.193"/><path class="cls-6" d="M26.417,34.586s-2.3-1.023-3.837-.256-3.325-1.151-2.43.768,1.279,2.685.9,3.965-2.557,2.983-1.406,4.517,1.15-.041,2.557,1.494a4,4,0,0,0,3.453,1.151s-.128.128,2.046-.128,2.047-2.814,2.047-2.814v-2.3C29.743,39.446,34.3,33.194,26.417,34.586Z"/><path class="cls-11" d="M46.559,41.835a2.391,2.391,0,0,1-1.707.933,4.14,4.14,0,0,1-1.957-.331A2.98,2.98,0,0,1,41,40.66"/><path class="cls-15" d="M67.005,40.859l-1.6.4s.676-2.146,1.285-2.164-.426,1.352-.426,1.352,1.817-.875,1.408-.13S67.005,40.859,67.005,40.859Z"/><path class="cls-15" d="M71.955,31.285l-1.451.779s.131-2.246.717-2.412-.083,1.414-.083,1.414,1.548-1.292,1.334-.469S71.955,31.285,71.955,31.285Z"/><path class="cls-15" d="M59.681,17.37l-1.45.78s.524-2.116,1.111-2.283-.477,1.285-.477,1.285,1.547-1.292,1.333-.47S59.681,17.37,59.681,17.37Z"/><path class="cls-15" d="M43.8,23.83,42.53,24.876s-.309-2.228.234-2.505.194,1.4.194,1.4,1.267-1.568,1.216-.72S43.8,23.83,43.8,23.83Z"/><path class="cls-15" d="M70.368,36.433l-1.45.78s.13-2.246.717-2.413-.083,1.415-.083,1.415,1.547-1.293,1.333-.47S70.368,36.433,70.368,36.433Z"/><path class="cls-15" d="M71.938,25.528l-1.45.78s.13-2.246.717-2.413-.083,1.415-.083,1.415,1.547-1.292,1.333-.47S71.938,25.528,71.938,25.528Z"/><path class="cls-15" d="M67.844,31.862l-1.451.779s.13-2.246.717-2.412-.083,1.414-.083,1.414,1.548-1.292,1.333-.469S67.844,31.862,67.844,31.862Z"/><path class="cls-15" d="M62.794,33.238l-1.451.779s.13-2.246.717-2.412-.083,1.415-.083,1.415,1.548-1.293,1.333-.47S62.794,33.238,62.794,33.238Z"/><path class="cls-15" d="M52.5,27.122l-1.451.779s.131-2.246.717-2.412-.082,1.414-.082,1.414,1.547-1.292,1.333-.469S52.5,27.122,52.5,27.122Z"/><path class="cls-15" d="M65.252,37.358l-1.45.78s.13-2.246.716-2.413-.082,1.415-.082,1.415,1.547-1.292,1.333-.47S65.252,37.358,65.252,37.358Z"/><path class="cls-15" d="M58.583,30.3l-1.451.78s.131-2.246.717-2.413-.083,1.415-.083,1.415,1.548-1.293,1.333-.47S58.583,30.3,58.583,30.3Z"/><path class="cls-15" d="M63.045,27.323l-1.45.78s.13-2.246.717-2.413-.083,1.415-.083,1.415,1.548-1.293,1.333-.47S63.045,27.323,63.045,27.323Z"/><path class="cls-15" d="M58.33,25.354l-1.45.779s.13-2.246.717-2.412-.083,1.414-.083,1.414,1.547-1.292,1.333-.469S58.33,25.354,58.33,25.354Z"/><path class="cls-15" d="M48.459,25.435l-1.45.78s.13-2.246.717-2.413-.083,1.415-.083,1.415,1.548-1.293,1.333-.47S48.459,25.435,48.459,25.435Z"/><path class="cls-15" d="M52.922,22.456l-1.45.78s.13-2.246.716-2.413-.082,1.415-.082,1.415,1.547-1.293,1.333-.47S52.922,22.456,52.922,22.456Z"/><path class="cls-15" d="M49.079,20.472l-1.451.78s.525-2.117,1.111-2.283-.477,1.285-.477,1.285,1.548-1.293,1.333-.47S49.079,20.472,49.079,20.472Z"/><path class="cls-15" d="M57.137,20.9l-1.45.78s.13-2.246.716-2.413-.082,1.415-.082,1.415,1.547-1.292,1.333-.47S57.137,20.9,57.137,20.9Z"/><path class="cls-15" d="M66.978,26.452l-1.45.78s.13-2.246.716-2.413-.082,1.415-.082,1.415,1.547-1.293,1.333-.47S66.978,26.452,66.978,26.452Z"/><path class="cls-15" d="M62.728,22.356l-1.451.78s.131-2.246.717-2.413-.083,1.415-.083,1.415,1.548-1.293,1.333-.47S62.728,22.356,62.728,22.356Z"/><path class="cls-15" d="M53.157,18.248l-1.45.78s.13-2.246.717-2.412-.083,1.414-.083,1.414,1.548-1.292,1.333-.47S53.157,18.248,53.157,18.248Z"/></svg>