<svg id="word" xmlns="http://www.w3.org/2000/svg" xmlns:xlink="http://www.w3.org/1999/xlink" viewBox="0 0 160 160"><defs><style>.cls-1{fill:url(#linear-gradient);}.cls-2{fill:#e3a466;}.cls-3{fill:#95613f;}.cls-4{fill:#f7aea7;}.cls-4,.cls-5,.cls-6,.cls-7,.cls-8{stroke:#9c4c9c;stroke-miterlimit:10;stroke-width:0.901px;}.cls-5{fill:#7e397d;}.cls-6{fill:none;}.cls-7{fill:#f8ab87;}.cls-8{fill:#fff;}.cls-9{fill:#9c4c9c;}</style><linearGradient id="linear-gradient" x1="79.764" y1="77.879" x2="79.161" y2="121.91" gradientUnits="userSpaceOnUse"><stop offset="0" stop-color="#c37e48"/><stop offset="0.129" stop-color="#d29f76"/><stop offset="0.266" stop-color="#e0bca0"/><stop offset="0.407" stop-color="#ebd4c2"/><stop offset="0.549" stop-color="#f4e7dd"/><stop offset="0.694" stop-color="#faf4f0"/><stop offset="0.842" stop-color="#fefcfb"/><stop offset="1" stop-color="#fff"/></linearGradient></defs><path class="cls-1" d="M124.644,112.611C106.9,129.845,43.618,123.483,36.977,114.6,14.646,104.165,29.35,94.716,23.443,77.145c19.211-.313,39.052-11.593,57.5-2.434,2.06,1.147,4.106,3.7,6.452,4.058,5.059-1.133,12.437-4.384,16.333.952.109-1.406,2.912-1.888,4.349-1.83,1.2.049,1.328,3.77,2.51,4.006,2.834.5,4.894,3.829,8.127,2.276,3.264-2.952,8.882,1.129,11.833-.77C141.45,72.381,134.183,103.349,124.644,112.611Z"/><path class="cls-2" d="M133.132,82.886a5.768,5.768,0,0,0-1.672,1.595c-1.166,1.505-2.439,2.437-4.415,1.612-.377-.157-.978.148-1.431.347a4.046,4.046,0,0,0-.815.7c-1.412,1.187-3.044,1.484-4.335.23-1.8-1.748-4.007-2.088-6.171-2.342A6.832,6.832,0,0,1,109,81.88a5.211,5.211,0,0,0-4.039-2.238,26.106,26.106,0,0,0-6.689-.225,9.628,9.628,0,0,0-4.343,1.408,3.68,3.68,0,0,1-3.186.466,19.473,19.473,0,0,1-6.232-2.912,56.6,56.6,0,0,0-5.329-2.836c-3.026-1.617-6.375-2.127-9.61-3.014a8.95,8.95,0,0,0-2.816-.147A60.423,60.423,0,0,0,51.85,75.124a116.663,116.663,0,0,1-12.919,2.912c-1.669.326-3.377.442-5.069.641-1.929.228-3.858.458-5.789.654a15.171,15.171,0,0,1-1.943.036c-1.875-.053-2.126-.285-2.687-2.383,2.957-.412,5.927-.75,8.871-1.259,2.434-.421,4.838-1.03,7.251-1.578,1.9-.431,3.815-.8,5.67-1.375,1.965-.613,3.872-1.43,5.8-2.183a50.149,50.149,0,0,1,14.736-3.567A26.69,26.69,0,0,1,73.984,68,27.851,27.851,0,0,1,80.7,70.717a40.479,40.479,0,0,0,15.085,4.854,15.767,15.767,0,0,0,5.418-.454,34.094,34.094,0,0,1,9.48-.749,4.091,4.091,0,0,1,3.508,2.1,10.515,10.515,0,0,0,2.983,3.569,4.084,4.084,0,0,0,2.476.791c.824-.043,1.654.006,2.474-.069a6.763,6.763,0,0,1,4.416.98c1.761,1.141,3.338.812,4.913-.376C133.583,79.753,134.485,82.158,133.132,82.886Z"/><path class="cls-3" d="M78.878,86.688a3.222,3.222,0,0,0-.445-.051,2.2,2.2,0,0,0-2.578,2.383c0,2.968,2.979,5.787,4.828,6.709s7.89,1.363,9.8-.553,1.58-2.446.949-2.87S78.878,86.688,78.878,86.688Z"/><path class="cls-4" d="M78.436,87.858s3.893-.942,5.042-2.967,5.448-8.48,4.914-10.233.039-12.18,2.654-14.436,8.408-4.483,11.394-.773,2.168,8.938,1.517,11.729-3.927,6.54-6.082,7.929-3.3,1.454-3.679,3.225a17.85,17.85,0,0,1-2.376,5.851,57.6,57.6,0,0,0-2.951,5.623,5.97,5.97,0,0,1-5.967.936A7.056,7.056,0,0,1,78.436,87.858Z"/><path class="cls-5" d="M101.224,68.06s-2.538-.833-3.064.172.4,1.677,1.383,2.158S102.428,68.563,101.224,68.06Z"/><path class="cls-6" d="M88.256,72.381a12.483,12.483,0,0,0,.609,2.289,7.34,7.34,0,0,0,2.454,3.5A8.706,8.706,0,0,0,96.7,79.381a1.432,1.432,0,0,0,.808-.192"/><path class="cls-7" d="M86.7,76.518s-2.386,2.876-2.7,4.166-.529,2.282-.529,2.282-2.128.213-.825,2.9,4.118,4.335,6.372,4.18a28.823,28.823,0,0,1,4.077.008s.4-2.471.8-4.188a26.089,26.089,0,0,1,.854-2.923s-3.059.347-4.927-.983S86.7,76.518,86.7,76.518Z"/><path class="cls-8" d="M96.423,62.445A4.448,4.448,0,0,0,93.9,64.753c-.71,1.72.452,3.225,1.539,3.164S99.5,64.382,96.423,62.445Z"/><path class="cls-8" d="M103.957,62.25s-2.027-.868-2.333,1.568.646,2.791,1.13,2.859,1.8-1.13,1.8-1.13Z"/><path class="cls-9" d="M93.72,70.882c.662.462,1.232,1.059,1.82,1.482a3.839,3.839,0,0,0,1.972.668,6.776,6.776,0,0,0,4.163-1.4,4.786,4.786,0,0,1-1.746,1.714,4.41,4.41,0,0,1-2.479.588A3.726,3.726,0,0,1,95.087,72.9,8.7,8.7,0,0,1,93.72,70.882Z"/><path class="cls-9" d="M107.524,52.419a10.158,10.158,0,0,0-1.176-.1,4.317,4.317,0,0,0-1.684.278,9.452,9.452,0,0,0-1.691.964,12.817,12.817,0,0,1-1.624.907,7.089,7.089,0,0,0-.808.471,3.6,3.6,0,0,0-.68.6,2.669,2.669,0,0,0-.646,1.323,2.108,2.108,0,0,0-.019.48l.008.116.906-.126.241.633.209-.11c.158-.086.373-.214.589-.361.444-.3.994-.715,1.542-1.126s1.1-.812,1.53-1.083a3.981,3.981,0,0,1,.753-.393,4.034,4.034,0,0,0-.838.213c-.493.168-1.133.437-1.764.713s-1.257.551-1.72.725c-.053.02-.091.032-.138.049a1.779,1.779,0,0,1,.192-.392,2.511,2.511,0,0,1,.437-.49,6.038,6.038,0,0,1,.648-.492,13.51,13.51,0,0,0,1.562-1.146,9,9,0,0,1,1.479-1.109,4.013,4.013,0,0,1,1.525-.444,10.178,10.178,0,0,1,1.163-.044l.444.008Z"/><path class="cls-9" d="M99.531,54.833a6.551,6.551,0,0,1,.575-1.806,1.809,1.809,0,0,1,.576-.638,1.86,1.86,0,0,0-.735.519,6.865,6.865,0,0,0-1.016,1.714l-1.01,2.1c.033-.525.076-1.206.119-1.891a6.492,6.492,0,0,1,.276-1.875,1.8,1.8,0,0,1,.465-.722,1.847,1.847,0,0,0-.642.63,6.877,6.877,0,0,0-.725,1.856c-.4,1.361-.805,2.723-.805,2.723l1.253.221.026-.414L98.9,57.6Z"/><ellipse class="cls-9" cx="96.609" cy="64.39" rx="1.116" ry="1.281"/><ellipse class="cls-9" cx="103.577" cy="63.869" rx="1.116" ry="1.281"/><path class="cls-3" d="M53.139,83.285s-8.693,1.6-7.791,3.721,6.289,2.226,8.9,2.438,8.541-1.378,9.495-2.332,4.091-1.871,1.8-3.285S53.139,83.285,53.139,83.285Z"/><path class="cls-4" d="M49.993,83.577a5.094,5.094,0,0,0,5.73,4.708c5.4-.325,7.53-3.253,7.53-3.253s-2.176-5.471-1.047-8.9,4.494-9.329,2.6-13.777-4.3-7.526-10.258-8.2S44.159,56.674,41.913,58.7s-4.063,5.943-6.53,5.966-5.107-2.373-7.437-.561-3.689,3.3-2,6.583,7.13,2.56,9.59,1.593,5.817-2.806,7.439-5.04,3.413-4.8,6.793-3.732,5.995,5.395,4.221,8.45S49.57,81.92,49.993,83.577Z"/><path class="cls-9" d="M50.505,63.312a5.3,5.3,0,0,0,2.423.032,5.873,5.873,0,0,0,2.3-.961,5.166,5.166,0,0,0,2-4.513,5.39,5.39,0,0,1-1.7,4.879,6.46,6.46,0,0,1-2.43,1.262,6.07,6.07,0,0,1-2.794.177Z"/><path class="cls-9" d="M47.657,54.714a11.914,11.914,0,0,1,.391,6.32,11.466,11.466,0,0,0-1.222-5.969Z"/><path class="cls-9" d="M42.8,57.312a1.433,1.433,0,0,1,1.553,1.157,8.794,8.794,0,0,1,.229,1.585c.034.522.046,1.041.04,1.56,0,.26-.01.518-.031.779l-.011.1-.008.034,0,.01c.01.033-.108.027-.09,0l0-.018a.3.3,0,0,1-.009-.057l-.008-.2v-.388l.058.382.035.188a.182.182,0,0,0,.01.037l0,.006c.021-.024-.092-.03-.078,0h0v-.014l0-.092c-.017-.254-.049-.51-.082-.764-.069-.508-.155-1.013-.261-1.511a8.19,8.19,0,0,0-.422-1.427.65.65,0,0,0-.727-.495Z"/><path class="cls-9" d="M40.021,60.146a1.79,1.79,0,0,1,1.1,1.019c.187.378.345.738.5,1.118a10.457,10.457,0,0,1,.65,2.346A5.905,5.905,0,0,1,41.2,69.2a5.679,5.679,0,0,0,.624-4.491A9.884,9.884,0,0,0,41,62.561c-.344-.641-.78-1.529-1.166-1.533Z"/><path class="cls-9" d="M31.289,72.811l2.4-.751a6.532,6.532,0,0,0,1.117-.406,2.011,2.011,0,0,0,.74-.816,21.274,21.274,0,0,0,.994-2.271,6.238,6.238,0,0,0,.415-2.44,6.324,6.324,0,0,1-.2,2.505,21.181,21.181,0,0,1-.806,2.407,2.5,2.5,0,0,1-.841,1.09,6.813,6.813,0,0,1-1.188.567l-2.319.962Z"/><path class="cls-9" d="M53.427,66.314a3.532,3.532,0,0,1,1.316.527,2.955,2.955,0,0,0,1.095.243,8.137,8.137,0,0,0,2.4-.371,4.613,4.613,0,0,0,2.2-1.025,8.7,8.7,0,0,0,1.478-2.017A8.815,8.815,0,0,1,60.6,65.846a4.933,4.933,0,0,1-2.223,1.3,8.678,8.678,0,0,1-2.537.617,3.664,3.664,0,0,1-1.382-.184c-.468-.166-.828-.4-1.028-.361Z"/><path class="cls-9" d="M54.207,72.029a4.669,4.669,0,0,0,1.478,1.253,5.213,5.213,0,0,0,1.916.572,10.979,10.979,0,0,0,2.076.094,2,2,0,0,0,1.679-1.04,2.107,2.107,0,0,1-1.642,1.263,11.3,11.3,0,0,1-2.145.133,5.806,5.806,0,0,1-2.171-.41,5.465,5.465,0,0,1-1.873-1.275Z"/></svg>