<svg id="word" xmlns="http://www.w3.org/2000/svg" viewBox="0 0 160 160"><defs><style>.cls-1{fill:#bb80b7;}.cls-1,.cls-2,.cls-3,.cls-4,.cls-5,.cls-7,.cls-8{stroke:#9c4c9c;}.cls-1,.cls-2,.cls-3,.cls-4,.cls-5,.cls-7{stroke-miterlimit:10;stroke-width:0.562px;}.cls-2{fill:#7a7c7d;}.cls-3{fill:#9b9c9f;}.cls-4{fill:#626467;}.cls-5{fill:#e3e88a;}.cls-6{fill:#fcdf73;}.cls-7,.cls-8{fill:#fff;}.cls-8{stroke-width:0.45px;}</style></defs><path class="cls-1" d="M83.36,152.308l6.771.4,4.085-36.947,3.41-57.475,3.4-36.3a31.078,31.078,0,0,0-.685-7.277A24.329,24.329,0,0,0,97.08,8.44s-4.52,4.87-4.751,7.918S90.47,41.32,90.47,41.32Z"/><path class="cls-2" d="M88.793,72.521l7.53.6-.587,9.9s-2.082,2.523-4.3,1.256-2.014-4.353-2.014-4.353Z"/><path class="cls-3" d="M88.865,80.292s2.437-2.983,3.672-2.671,4.18,2.779,4.18,2.779,1.642-3.088,1.125-4a6.285,6.285,0,0,0-1.982-1.736s1.511-6.4-.288-7.111-3.751,2.151-4.136,3.007a11.762,11.762,0,0,0-.214,3.467s-3.315,2.161-3.4,3.446A5.372,5.372,0,0,0,88.865,80.292Z"/><path class="cls-4" d="M92.681,72.74l2.14.171s1.135-2.467.655-3.127-2.507-.048-2.507-.048Z"/><path class="cls-3" d="M89.577,95.526,94.671,96l-1.388,19.869-5.3-.754s-.274-8.3.052-9.827S88.432,95.42,89.577,95.526Z"/><polygon class="cls-5" points="84.43 135.599 91.062 144.291 90.647 148.039 84.078 141.09 84.43 135.599"/><path class="cls-6" d="M92.279,38.74s1.322-7.4,3.182-7.384c.823.008.547-.832,1.335,1.836s.787,16.92.787,16.92-.95-12.122-2.405-11.783-5.354,13.079-5.354,13.079Z"/><path class="cls-7" d="M91.307,30.049s5.781-1.6,6.568-1.312,2.27,2.649,2.27,2.649l.667-7.123s-3.133-1.142-4.161-.971-4.886.6-4.886.6Z"/><path class="cls-1" d="M73.4,152.292l6.779-.265.433-37.169L78.351,57.326l-.186-36.464a31.041,31.041,0,0,0-1.4-7.174,24.32,24.32,0,0,0-3.862-5.915s-4.019,5.291-3.95,8.347.605,25.024.605,25.024Z"/><path class="cls-2" d="M70.96,72.359l7.553-.142.388,9.906s-1.823,2.715-4.154,1.672-2.432-4.134-2.432-4.134Z"/><path class="cls-3" d="M71.8,80.085s2.133-3.209,3.393-3.019S79.62,79.42,79.62,79.42s1.331-3.234.727-4.088A6.285,6.285,0,0,0,78.2,73.8s.874-6.521-.986-7.049-3.521,2.51-3.82,3.4a11.732,11.732,0,0,0,.127,3.471s-3.086,2.477-3.041,3.764A5.371,5.371,0,0,0,71.8,80.085Z"/><path class="cls-4" d="M74.85,72.194,77,72.154s.887-2.567.345-3.176-2.5.2-2.5.2Z"/><path class="cls-3" d="M74,95.174l5.115-.032.572,19.91-5.347-.229s-1.088-8.229-.915-9.785S72.852,95.182,74,95.174Z"/><polygon class="cls-5" points="72.819 135.56 80.273 143.557 80.229 147.328 73.009 141.058 72.819 135.56"/><path class="cls-6" d="M71.13,38.211s.4-7.138,2.419-7.474c.812-.135.462-.882,1.509,1.7s2.447,16.761,2.447,16.761-2.137-11.97-3.552-11.49S69.91,51.246,69.91,51.246Z"/><path class="cls-7" d="M69.287,29.845s5.595-2.164,6.407-1.952,2.519,2.414,2.519,2.414l-.036-7.155s-3.231-.828-4.236-.557-4.8,1.08-4.8,1.08Z"/><path class="cls-8" d="M58.969,156.119s1.057-3.966,4.8-4.285c1.542-.132.368-1.768,3.241-2.063a22.6,22.6,0,0,1,4.64-.073,9.137,9.137,0,0,1,6.041-1.621c3.977.147,5.745,1.621,5.745,1.621s-.148-.369,2.5-.148a11.528,11.528,0,0,1,3.831.811s2.652-3.021,5.083-.369,3.019,2.579,2.947,3.9,2.062.3,2.8,2.357"/></svg>