<svg id="word" xmlns="http://www.w3.org/2000/svg" viewBox="0 0 160 160"><defs><style>.cls-1{fill:#00a59b;}.cls-1,.cls-10,.cls-11,.cls-12,.cls-14,.cls-2,.cls-3,.cls-4,.cls-5,.cls-6,.cls-7,.cls-8,.cls-9{stroke:#9c4c9c;stroke-miterlimit:10;stroke-width:0.499px;}.cls-2{fill:#7e7e80;}.cls-3{fill:#aeafb2;}.cls-4{fill:#067ead;}.cls-5{fill:#ffd734;}.cls-6{fill:#626467;}.cls-7{fill:#009ec5;}.cls-8{fill:#80939a;}.cls-9{fill:#83b8c9;}.cls-10,.cls-14{fill:none;}.cls-11{fill:#fde0ce;}.cls-12{fill:#fff;}.cls-13{fill:#9c4c9c;}.cls-14{stroke-linecap:round;}</style></defs><path class="cls-1" d="M125.163,113.934s5.122,6.791-3.646,9.017S9.179,111.94,9.179,111.94l6.376-4.55L116,120.105S122.194,120.818,125.163,113.934Z"/><path class="cls-1" d="M150.293,115.885s-2.779,10.232-4.592,10.517-133.319,1.582-133.319,1.582l2.924-5.02,126.209-.63S148.67,119.518,150.293,115.885Z"/><path class="cls-2" d="M98.42,124.014s2.642-.416,2.486.6-3.068,1.431-4.4,1.595-12.448-.251-14.376-.172-6.812-.281-5.405-1.089,3.464-.636,4.081-.733S98.42,124.014,98.42,124.014Z"/><path class="cls-2" d="M73.2,115.442s2.753.289,2.048,1.257-6.259.084-6.75.116-8.828-.189-9.445-.949-.669-1.384.511-1.344S73.2,115.442,73.2,115.442Z"/><path class="cls-3" d="M62.037,101.25s-6.461,1.862-5.04,5.522,6.6,7.573,7.6,8.6,6.78,2.309,8.489,1.365.244-2.74-1.282-3.851-3.119-6.938-3.119-6.938Z"/><path class="cls-3" d="M78.716,116.015s-1.043,6.243,1.931,7.97,16.6,2.452,17.265,1.333.73-5.012-1.593-5.828-6.331-.522-7.579-2.014a7.176,7.176,0,0,1-1.508-3.14l-8.29.968Z"/><path class="cls-4" d="M88.275,86.648s1,4.232-.991,6.572-15.666,13.106-15.666,13.106-3.583,1.915-4.753.918-5.748-4.33-5.894-6.333,6.576-8.634,6.576-8.634l9.222-10.065Z"/><path class="cls-4" d="M60.016,78.772s.623,3.954,1.6,8.022,8.589,11.649,10.435,13.722a12.359,12.359,0,0,1,3.518,8.4,9.78,9.78,0,0,0,2.686,6.331l10.4-.456a80.984,80.984,0,0,0-.247-12.288c-.656-6.313-5.916-16.122-6.072-17.111S60.016,78.772,60.016,78.772Z"/><path class="cls-5" d="M113.863,67.926s5.107,2.4,3.276,4.719-5.759,3.1-5.759,3.1L106.6,73.291l.2-4.084Z"/><polygon class="cls-6" points="114.802 68.461 104.783 117.482 112.494 68.418 114.802 68.461"/><polygon class="cls-7" points="97.523 61.03 106.527 66.38 104.044 74.201 96.275 72.047 97.523 61.03"/><path class="cls-6" d="M115.207,67.883s1.477-5.655-.058-5.732c-3.125-.156-2.89,4.17-2.89,4.17l-.286,1.4Z"/><path class="cls-8" d="M89.5,43.8s-15.485-7.186-18.521-5.019-7.806,5.113-1.217,7.284,21.7,4.855,21.7,4.855l-1.333-6.733Z"/><path class="cls-7" d="M99.36,55.182a30.638,30.638,0,0,0-1.105,10.137C98.617,70.834,94.37,88.9,94.37,88.9s-2.064.831-6.417,0-23.394-5.94-24.3-6.3-6.077-4.278-6.077-4.278,4.555-6.458,5.441-10.482,8.208-13.282,8.208-13.282l6.948-4.134Z"/><path class="cls-7" d="M89.531,52.58s-10.484.976-15.54,2.11-7.45,2.018-8.68-1.5-1.045-11.993-.958-12.513.494-.078,3.242,2.36S89.531,52.58,89.531,52.58Z"/><path class="cls-9" d="M91.466,50.924l2.028,3.227s-20.672-3.667-23.585-6.079-7.178-6.975-5.79-8.882,6.428-1.9,8-1.766c8.949.751,10.421,3.226,10.421,3.226s-11.592-1.015-11.584,1.179,2.611,4.3,8.134,6.133A96.387,96.387,0,0,0,91.466,50.924Z"/><path class="cls-7" d="M78.522,54.749s2.567-1.924,1.16,5.221-6.307,6.059-7.721,7.8.207,4.527.475,5.16,1.665.92,1.665.92l-5.092,5.192A49.694,49.694,0,0,1,64.6,75.686c-2.341-2-6.441-6.584-4.74-9.722S72.834,52.944,78.522,54.749Z"/><path class="cls-10" d="M101.871,111.861a36.567,36.567,0,0,1,5.862.765c1.257.478,2.783,1.588,1.265,2.672s-5.341-.679-6.382-.852A1.655,1.655,0,0,1,101.871,111.861Z"/><path class="cls-6" d="M80,76.976s3.426-2.9,1.926-3.85a3.082,3.082,0,0,0-3.044-.027l-1.545,4.127Z"/><path class="cls-11" d="M115.5,32.208s2.548,3.313,1.264,5.88a14.728,14.728,0,0,0-1.547,7.335c.147,2-1.338,8.654-5.744,10.7s-13.665,1.346-16.225-1.159c-4.075-3.988-6.482-11.137-5.961-14.259S96.69,28.585,100.974,27.91,115.5,32.208,115.5,32.208Z"/><path class="cls-11" d="M111.5,49.32a2.545,2.545,0,0,0-1.424-1.569,1.926,1.926,0,0,0-2.031.377"/><path class="cls-11" d="M109.585,52.441a8.984,8.984,0,0,1-5.129.478c-1.679-.469-3.148-2.09-2.882-3.812"/><path class="cls-12" d="M100.962,39.179s3.178-1.554,3.171,1.739-2.344,3.271-3.037,2.453C99.69,41.711,100.786,39.733,100.962,39.179Z"/><path class="cls-13" d="M102.127,40.627s2.056-1.005,2.051,1.125-1.516,2.116-1.964,1.587A2.553,2.553,0,0,1,102.127,40.627Z"/><path class="cls-12" d="M112.184,41.539s3.178-1.554,3.171,1.739-2.344,3.271-3.037,2.453C110.912,44.071,112.008,42.093,112.184,41.539Z"/><path class="cls-13" d="M113.349,42.987s2.056-1.005,2.051,1.125-1.516,2.116-1.964,1.587A2.553,2.553,0,0,1,113.349,42.987Z"/><path class="cls-5" d="M109.875,66.19s5.819-.579,5.332,1.693-3.409,4.083-3.409,4.083l-4.562,1.057.506-7.51Z"/><path class="cls-12" d="M75.167,74.19a4.611,4.611,0,0,1-.01,4.223c-1.2,2.046-3.5,2.41-4.622,1.742a7.438,7.438,0,0,1-1.526-1.111l4.468-5.938Z"/><path class="cls-12" d="M109.112,65.635s.647,7.328-.706,8.385-4.362.181-4.362.181l1.5-7.666S109.147,64.785,109.112,65.635Z"/><polygon class="cls-6" points="75.702 81.873 43.877 129.608 74.202 80.928 75.702 81.873"/><path class="cls-10" d="M45.559,122.143s7.556.7,6.172,3.089-7.612.657-7.639-1.234S45.559,122.143,45.559,122.143Z"/><path class="cls-5" d="M78.687,76.169s4.215,1.024,3.069,3.4-3.557,5.288-5,4.672-4.9-4.294-4.9-4.294l2.482-4.613Z"/><path class="cls-5" d="M87.646,25.431a23.513,23.513,0,0,1,6.515-4.812c4.116-.082,7.787.119,9.5.788,4.318,1.684,9.492,2.237,12.584,5.54,5.891,6.292.678,10.316.678,10.316s-7.4-5.026-12.1-3.779S92.688,40.7,91.664,41.7s-4.614,3.935-4.614,3.935.009-1.014-4.222-3.218c-2.9-1.509-5.284-5.312-7.806-8.277a16.2,16.2,0,0,0,8.468-4.107C85,28.624,86.224,26.934,87.646,25.431Z"/><path class="cls-5" d="M68.311,28.271a32.319,32.319,0,0,1-4.276-6.532s6.808,1.473,11.85.871c-1.462,1.052-2.75,2.369-4.142,3.528A13.116,13.116,0,0,1,68.311,28.271Z"/><path class="cls-7" d="M88.548,20.879c1.871-.132,3.785-.224,5.613-.26a23.513,23.513,0,0,0-6.515,4.812c-1.422,1.5-2.645,3.193-4.156,4.605a16.2,16.2,0,0,1-8.468,4.107,20.573,20.573,0,0,0-1.919-2,14.152,14.152,0,0,0,2.778-1.251A50.587,50.587,0,0,0,88.548,20.879Z"/><path class="cls-7" d="M71.743,26.138c1.392-1.159,2.68-2.476,4.142-3.528a13.316,13.316,0,0,0,1.747-.311,40.144,40.144,0,0,1,4.383-.773l-2.941,2.532a38.715,38.715,0,0,1-8.7,6.157,14.139,14.139,0,0,1-2.065-1.944A13.116,13.116,0,0,0,71.743,26.138Z"/><path class="cls-5" d="M82.015,21.526c1.939-.256,4.2-.482,6.533-.647A50.587,50.587,0,0,1,75.881,30.89,14.152,14.152,0,0,1,73.1,32.141a9.389,9.389,0,0,0-1.718-1.259,8.614,8.614,0,0,1-1.009-.667,38.715,38.715,0,0,0,8.7-6.157Z"/><path class="cls-7" d="M119.32,32.69c.263,2.53-2.449,5.936-2.449,5.936s-2.794-2.268-4.706-2.372-7.222-1.164-8.459-.428-6.932,3.258-9.011,4.668-7.645,5.144-7.645,5.144l-1.3-2.651S91.04,36.2,95.664,32.9s12.243-4.771,15.253-4.569S119.057,30.16,119.32,32.69Z"/><path class="cls-14" d="M92.706,118.915c-.021-.056-.1-.018-.143.026a8.092,8.092,0,0,0-.974,1.553,2.7,2.7,0,0,0-.434,1.416"/><path class="cls-14" d="M90.345,118.258a5.935,5.935,0,0,0-2.179,2.961"/><path class="cls-14" d="M88.513,117.02a5.029,5.029,0,0,0-2.28,1.814,1.163,1.163,0,0,0-.213.451"/><path class="cls-14" d="M87.367,115.408c-.382.114-.791.106-1.181.19a1.2,1.2,0,0,0-.926.673"/><path class="cls-14" d="M71.052,112.4a4.468,4.468,0,0,0-2.266.945l-.941.665"/><path class="cls-14" d="M70.232,110.608a7.027,7.027,0,0,0-2.345,1.248,4.819,4.819,0,0,1-.8.587"/><path class="cls-14" d="M69.494,108.866a7.5,7.5,0,0,1-1.318.432,4.622,4.622,0,0,0-.723.365l-1.225.708"/><path class="cls-14" d="M68.029,107.572l-1.594.753"/></svg>