<svg id="word" xmlns="http://www.w3.org/2000/svg" viewBox="0 0 160 160"><defs><style>.cls-1{fill:#807875;}.cls-1,.cls-10,.cls-11,.cls-12,.cls-13,.cls-2,.cls-3,.cls-4,.cls-6,.cls-7,.cls-8,.cls-9{stroke:#9d4b9c;stroke-miterlimit:10;}.cls-1,.cls-10,.cls-11,.cls-12,.cls-13,.cls-3,.cls-4,.cls-6,.cls-7,.cls-8,.cls-9{stroke-width:0.45px;}.cls-2,.cls-5{fill:#9c4c9c;}.cls-2{stroke-width:0.794px;}.cls-3{fill:#f27721;}.cls-4{fill:#fdeadf;}.cls-6{fill:#b1d135;}.cls-7{fill:#fff;}.cls-8{fill:#555759;}.cls-9{fill:#78bed8;}.cls-10{fill:#414141;}.cls-11{fill:none;}.cls-12{fill:#00a0d4;}.cls-13{fill:#008a88;}</style></defs><polygon class="cls-1" points="107.31 47.58 88.09 114.648 88.414 114.811 108.608 47.498 107.31 47.58"/><polygon class="cls-2" points="87.035 112.215 89.144 111.486 90.361 113.189 87.035 112.215"/><path class="cls-3" d="M7.517,119.87l-.973,2.109,113.863-.811a10.175,10.175,0,0,0,3.082-2.433c2.108-2.109,1.135-2.92,1.135-2.92s-.973,2.6-6.325,3.569S57.15,118.9,56.5,118.9,7.517,119.87,7.517,119.87Z"/><polygon class="cls-1" points="57.551 67.572 13.514 116.15 58.768 68.545 57.551 67.572"/><polygon class="cls-2" points="13.596 113.555 15.866 113.798 16.028 115.583 13.596 113.555"/><path class="cls-4" d="M82.15,47.273l-1.293,3.673s2.072,2.409,4.089,1.727,3.088-4.385,3.088-4.385Z"/><path class="cls-4" d="M90.936,34.719a15.386,15.386,0,0,1,1.582,3.2c.2,1.014.189,2.978.51,3.391s1.5.069,1.434.937a1.135,1.135,0,0,1-.7,1.061,4.7,4.7,0,0,0-.628,1.726,4.828,4.828,0,0,1-.735,1.857c-.091.134-.933-.449-1.044-.318-.1.114.542.943.429,1.054a6.273,6.273,0,0,1-.747.625,4.7,4.7,0,0,1-3.7,1.231,9.721,9.721,0,0,1-3.983-.9,6.683,6.683,0,0,1-2.582-2.875,7.77,7.77,0,0,1-1.05-4.942c.6-2.868,3.041-7.41,6.527-6.748A37.216,37.216,0,0,0,90.936,34.719Z"/><path class="cls-4" d="M91.586,37.358s-.768-.547-1.1-.171a4.758,4.758,0,0,0-.614.991"/><ellipse class="cls-4" cx="91.274" cy="40.171" rx="0.91" ry="1.356" transform="translate(-1.076 2.54) rotate(-1.585)"/><ellipse class="cls-5" cx="91.68" cy="40.31" rx="0.625" ry="0.878" transform="translate(-1.08 2.551) rotate(-1.585)"/><path class="cls-6" d="M81.926,48.1s1.537,3.145,2.616,3.226c1.993.151,2.514-.892,2.514-.892s2.92.487,3.406,1.136,5.109,5.839,5.353,6.244,1.378-.081,1.784-.729a40.092,40.092,0,0,1,3.244-3.244l1.216-1.055,2.19,1.7s-2.352,5.758-3.974,6.894-4.785,3.406-6.082,2.189-6.245-4.7-6.245-4.7S82.109,70.55,81.866,71.2s-6.083,9-6.083,9-6.837,15.01-7.242,15.335a53.71,53.71,0,0,1-5.515,4.3c-2.028,1.216-13.381,8.821-13.381,8.821l-2.433-3.568s4.136-5.5,7.055-7.524,6.083-2.92,6.65-4.623,1.972-7.387,2.134-7.63S68.079,71.2,68.809,67.874,71.4,56.763,71.566,56.439s5.194-8.3,5.194-8.3l3.576.08Z"/><path class="cls-7" d="M76.521,48.142s3.561.836,3.4,3.593-1.216,4.947-2.757,5.353a37.417,37.417,0,0,1-6.326.243l-2.271,7.623s4.3,3.974,7.3,4.7,7.056,1.865,7.056,1.865,4.947-9.813,5.271-11.273,1.563-9.167,1.563-9.167l-2.211-.646s-2.92,6.813-3.488,7.543-2.514-.568-2.6-3.65a18.393,18.393,0,0,0-1.4-6.068Z"/><path class="cls-6" d="M77.73,48.572s2.765,1.637,1.054,5.677c-.608,1.435-2.839,2.19-6,2.676s-9.976.487-10.462,2.352-2.039,5.9-2.039,5.9-1.217,1.541-2.028.811a10.232,10.232,0,0,0-2.433-1.379s2.039-7.359,3.905-9.062S76.108,46.707,77.73,48.572Z"/><path class="cls-6" d="M69.249,66.422s-8.106,5.762-6.392,11.46a16.51,16.51,0,0,0,6.75,8.488c1.865,1.136,10.416,6.756,10.173,8.054s-2.163,5.9-1.514,9.392.973,7.055.973,7.055l4.785.568S87.378,97.244,87.621,94s-4.7-10.44-5.51-11.656-3.559-5.485-4.451-6.782S69.655,66.016,69.249,66.422Z"/><path class="cls-8" d="M78.185,111.277s.487.405.243,2.027-2.271,8.029-1.541,8.759,5.028.568,7.137.568,8.84.811,9.489-.487,2.027-1.3-1.379-2.433-7.3-2.676-7.786-4.217a11.1,11.1,0,0,1-.405-3.325s.487-1.46-.487-1.46S78.185,111.277,78.185,111.277Z"/><path class="cls-8" d="M46.32,105.493s-5.353,1.216-5.6,1.378-.811,2.595-.325,3.406.244,5.353.487,7.056,4.136,3.163,4.379,3.244,2.176.406,1.771-1.621-1.527-2.353-.96-3.65a18.95,18.95,0,0,1,1.622-3.569c.568-.649,2.514-3.73,2.514-3.73l-2.352-3.569S46.482,104.357,46.32,105.493Z"/><path class="cls-9" d="M102.457,52.355a4.194,4.194,0,0,1,.657-2.4c.73-.973,1.622-1.3,2.189-1.947s1.46-3,1.785-1.459-.893,4.7-1.217,5.677a35.923,35.923,0,0,1-1.878,3.683l-2.967-2.6Z"/><path class="cls-9" d="M55.487,64.488s1.09,2.123-.451,3.258-5.7,4.405-4.324,4.405,3.082-1.3,2.352-.405-2.927,2.412-1.71,2.412,1.769-1.662,2.034-1.439c.482.405-2.433,2.676-1.46,2.92s3.228-2.068,3.407-1.947S53.2,75.211,54.118,75.8c.494.317,3.163-2.433,3.568-3.082S60.255,65.5,60.255,65.5s-1.6-.805-2.163-1.048S55.568,62.947,55.487,64.488Z"/><path class="cls-10" d="M108.132,44.759s-3.893,10.056-3.163,10.543,2.19.162,2.19-.406,2.595-9.488,2.595-9.488S109.105,44.11,108.132,44.759Z"/><path class="cls-11" d="M109.716,45.228s4.67,2.7,3.048,3.669S109.716,45.228,109.716,45.228Z"/><path class="cls-3" d="M36.125,123.049l-.973,2.109,113.862-.811a10.135,10.135,0,0,0,3.082-2.433c2.109-2.109,1.136-2.92,1.136-2.92s-.974,2.6-6.326,3.569-61.149-.487-61.8-.487S36.125,123.049,36.125,123.049Z"/><path class="cls-12" d="M92.518,37.922a5.025,5.025,0,0,0-1.85-4.88c-2.543-2.066-7.073-2.7-8.186-2.384s-1.828,1.033-3.5.715-4.451,1.748-3.735,2.861,2.861,0,2.7,1.51-.674,4.1-.239,5.563a8.672,8.672,0,0,0,3.179,4.451s2.782-4.61,5.007-5.961a21.643,21.643,0,0,1,6.279-1.987Z"/><path class="cls-9" d="M109.6,47.112s-2.758.244-1.947,1.136S110.737,48.167,109.6,47.112Z"/><path class="cls-9" d="M106.68,48.769s-2.027.811-.486,1.135,3.757-.163,3.73-.567C109.848,48.2,106.68,48.769,106.68,48.769Z"/><path class="cls-9" d="M106.574,50.226s-2.027.811-.486,1.135,3.757-.163,3.73-.567C109.742,49.652,106.574,50.226,106.574,50.226Z"/><path class="cls-9" d="M106.794,51.487s-1.777.992-.416,1.291,3.305-.394,3.281-.767C109.592,50.957,106.794,51.487,106.794,51.487Z"/><path class="cls-13" d="M78.468,44.407a5.169,5.169,0,0,0,2.782,2.146c.277.074.556-.954,1.192-1.908s2.861-4.331,4.411-4.927a44.354,44.354,0,0,1,5.524-1.908c.6,0,1.232.4,1.232-.2s.158-2.226-.279-2.583a5.273,5.273,0,0,0-1.51-.636s-2.463,1.073-4.093,1.828a26.972,26.972,0,0,0-6.04,4.411C80.849,41.493,78.468,44.407,78.468,44.407Z"/><path class="cls-8" d="M44.254,120.942l2.941-.158s.953-3.021.4-2.623S44.254,120.942,44.254,120.942Z"/><path class="cls-8" d="M92.734,122.883s1.51-2.258,2.385-2.1,1.589,2.309,1.589,2.309Z"/></svg>