<svg id="word" xmlns="http://www.w3.org/2000/svg" xmlns:xlink="http://www.w3.org/1999/xlink" viewBox="0 0 160 160"><defs><style>.cls-1,.cls-3,.cls-7{fill:none;}.cls-2{clip-path:url(#clip-path);}.cls-3{stroke:#534741;stroke-linecap:round;stroke-miterlimit:10;stroke-width:6.056px;}.cls-4{fill:#534741;}.cls-5{fill:#cdaa81;}.cls-6,.cls-9{fill:#ddb68a;}.cls-7,.cls-9{stroke:#9d4b9c;stroke-width:0.283px;}.cls-8{fill:#d6b187;}.cls-10{fill:#977f61;}.cls-11{fill:#c1a07b;}.cls-12{fill:#d3ae85;}.cls-13{fill:#b19372;}</style><clipPath id="clip-path"><rect class="cls-1" x="-196" y="14" width="132" height="132"/></clipPath></defs><g class="cls-2"><line class="cls-3" x1="15.505" y1="-215.393" x2="-156.87" y2="85.955"/><polygon class="cls-4" points="32.121 -131.152 38.104 -141.585 32.121 -141.589 32.121 -141.596 14.478 -141.596 14.478 -129.918 14.142 -129.336 3.002 -129.336 3.002 -111.742 -4.873 -111.742 -4.873 -94.164 -6.204 -94.098 -15.377 -94.098 -15.168 -76.328 -16.391 -76.455 -26.853 -76.455 -26.853 -58.812 -36.189 -58.812 -36.189 -42.166 -36.765 -41.168 -46.692 -41.168 -46.692 -23.975 -46.952 -23.525 -58.168 -23.525 -58.168 -5.882 -66.99 -5.882 -66.99 11.179 -67.326 11.762 -77.493 11.762 -77.493 29.37 -77.513 29.405 -88.969 29.405 -88.969 46.999 -96.844 46.999 -96.844 62.885 -96.836 64.643 -107.347 64.643 -107.347 81.076 -107.364 82.286 -118.823 82.286 -118.823 99.929 -128.16 99.929 -128.16 117.121 -128.42 117.573 -138.663 117.573 -138.663 134.362 -139.193 135.216 -150.139 135.216 -150.139 152.859 -132.496 152.859 -130.745 152.859 -90.274 82.286 -80.157 64.643 -59.95 29.405 -59.85 29.405 -59.85 29.23 -49.832 11.762 -49.346 10.914 -29.597 -23.525 -19.48 -41.168 -9.209 -59.078 0.755 -76.455 2.267 -79.09 10.873 -94.098 12.77 -97.406 31.08 -129.336 32.121 -131.152"/></g><path class="cls-5" d="M93.606,127.711C95.752,129.366,78.6,129.2,76.62,129.2c-1.375,0-17.31-.71-29.162-1.095a33.972,33.972,0,0,0,10.565-26.219,37.557,37.557,0,0,0,1.944,3.233c1.98,2.969,2.147,4.625,3.3,6.272a8.617,8.617,0,0,0,4.617,3.294c1.48.332,5.107,2.636,7.419,3.959s7.254,1.647,8.243,2.637,1.481,3.959,2.313,4.45S91.468,126.064,93.606,127.711Z"/><path class="cls-6" d="M58.023,101.886A33.972,33.972,0,0,1,47.458,128.1c-5.256-.175-9.706-.28-11.729-.228-6.6.167-19.789-3.294-11.713-4.45s9.076-8.243,14.016-8.742c0,0,8.41-8.9,9.4-11.047s1.656-3.959,3.635-5.44,3.951-2.312,4.941-.333C56.6,99.057,57.2,100.379,58.023,101.886Z"/><path class="cls-7" d="M47.458,128.1c-5.256-.175-9.706-.28-11.729-.228-6.6.167-19.789-3.294-11.713-4.45s9.076-8.243,14.016-8.742c0,0,8.41-8.9,9.4-11.047s1.656-3.959,3.635-5.44,3.951-2.312,4.941-.333c.6,1.192,1.191,2.514,2.015,4.021a37.557,37.557,0,0,0,1.944,3.233c1.98,2.969,2.147,4.625,3.3,6.272a8.617,8.617,0,0,0,4.617,3.294c1.48.332,5.107,2.636,7.419,3.959s7.254,1.647,8.243,2.637,1.481,3.959,2.313,4.45,5.606.333,7.744,1.98S78.6,129.2,76.62,129.2C75.245,129.2,59.31,128.49,47.458,128.1Z"/><path class="cls-6" d="M101.569,62.86l.578,9.855-.473,4.731L69.98,80.284l-3.784-.71.709-8.514s0-12.772.237-15.847c.1-1.288.158-3.014.193-4.564,6.333-2.032,13.157-4.021,19.473-1.971C94.123,51.034,97.679,56.29,101.569,62.86Z"/><path class="cls-8" d="M100.491,44.333l1.078,18.527c-3.89-6.57-7.446-11.826-14.761-14.182-6.316-2.05-13.14-.061-19.473,1.971.043-2.129.043-3.951.043-3.951s9.461-3.548,17.266-4.257A45.711,45.711,0,0,1,100.491,44.333Z"/><path class="cls-7" d="M101.569,62.86l.578,9.855-.473,4.731L69.98,80.284l-3.784-.71.709-8.514s0-12.772.237-15.847c.1-1.288.158-3.014.193-4.564.043-2.129.043-3.951.043-3.951s9.461-3.548,17.266-4.257a45.711,45.711,0,0,1,15.847,1.892Z"/><path class="cls-9" d="M64.76,50.051s-3.3-3.831.014-5.25,8.988-10.644,10.407-13.009,2.129-7.333,4.494-11.827,6.386,4.258,11.826,8.988,13.246,14.9,11.59,16.794-12.3-.237-17.03-.473S66.416,47.45,64.76,50.051Z"/><path class="cls-10" d="M82.279,50.009c5.44.237,4.494,14.9,4.494,14.9l-1.051.132A19.917,19.917,0,0,0,79.45,52.559C79.984,50.982,80.869,49.948,82.279,50.009Z"/><path class="cls-11" d="M85.722,65.042l-6.518.814s-1.3-8.821.246-13.3A19.917,19.917,0,0,1,85.722,65.042Z"/><path class="cls-7" d="M85.722,65.042l-6.518.814s-1.3-8.821.246-13.3c.534-1.577,1.419-2.611,2.829-2.55,5.44.237,4.494,14.9,4.494,14.9Z"/><path class="cls-12" d="M127.192,132.52c-.289-.342-2.979-3.1-16.057-3.986-2.3-.158-4.661-.289-6.991-.394a21.067,21.067,0,0,0,4.2-7.8c2.313-8.3-1.235-16.968-4.756-24.825-3.312-7.4-7.2-17.485-5.843-25.606l9.373-.745s-3.075,15.374,2.365,28.383C114.8,110.278,126.684,131.6,127.192,132.52Z"/><path class="cls-6" d="M103.584,95.518c3.521,7.857,7.069,16.53,4.756,24.825a21.067,21.067,0,0,1-4.2,7.8c-11.808-.561-23.24-.587-26.595-.788-4.021-.237-22.233.709-22.233.709s6.149-12.772,7.805-22,.71-22.943.473-26.018-2.365-9.46-2.365-9.46L68.561,69.4l-.236,8.988,7.8-.473,1.655-8.042,7.806.946.709,7.1,5.913-.71V70.35l5.528-.438C96.383,78.033,100.272,88.115,103.584,95.518Z"/><path class="cls-7" d="M127.218,132.555a.245.245,0,0,1-.026-.035c-.289-.342-2.979-3.1-16.057-3.986-2.3-.158-4.661-.289-6.991-.394-11.808-.561-23.24-.587-26.595-.788-4.021-.237-22.233.709-22.233.709s6.149-12.772,7.805-22,.71-22.943.473-26.018-2.365-9.46-2.365-9.46L68.561,69.4l-.236,8.988,7.8-.473,1.655-8.042,7.806.946.709,7.1,5.913-.71V70.35l5.528-.438,9.373-.745s-3.075,15.374,2.365,28.383c5.317,12.728,17.2,34.05,17.713,34.97"/><path class="cls-13" d="M91.5,96.131a18.289,18.289,0,0,1,1.892,8.988l-3.68,16.451L87.159,121a30.6,30.6,0,0,0-9.514-28.776C82.8,90.253,89.191,91.032,91.5,96.131Z"/><path class="cls-13" d="M89.716,121.57l-1.287,5.782-3.233-.071A30.947,30.947,0,0,0,87.159,121Z"/><path class="cls-11" d="M87.272,109.507A30.97,30.97,0,0,1,85.2,127.281l-18.764-.4s5.677-32.4,10.88-34.532c.114-.043.219-.087.333-.122A31.016,31.016,0,0,1,87.272,109.507Z"/><path class="cls-7" d="M85.2,127.281l-18.764-.4s5.677-32.4,10.88-34.532c.114-.043.219-.087.333-.122C82.8,90.253,89.191,91.032,91.5,96.131a18.289,18.289,0,0,1,1.892,8.988l-3.68,16.451-1.287,5.782Z"/><path class="cls-9" d="M33.363,129.252a60.778,60.778,0,0,1,16.9-3.98c8.69-.574,20.06-.706,28.978-.809s8.681-1.284,15.378-.652,10.074,3.432,14.766,4.323,9.147.368,16.51.755,13.181,2.213,14.758,3.614S148.5,136.2,148.5,136.2"/></svg>