<svg id="word" xmlns="http://www.w3.org/2000/svg" viewBox="0 0 160 160"><defs><style>.cls-1{fill:#789940;}.cls-2{fill:#016938;}</style></defs><path class="cls-1" d="M73.577,73.51a7.735,7.735,0,0,0,0-4.118c-.68-1.6-.452-1.831-1.02-2.859a7.357,7.357,0,0,0-2.041-2.516c-.909-.686-1.25,0,0,1.486A8.387,8.387,0,0,1,72.1,69.049s-2.041-1.944-1.814-.458,1.362,1.946,1.814,3.432,1.248,3.431,1.248,3.431Z"/><path class="cls-1" d="M73.239,77.627A6.533,6.533,0,0,0,71.309,75c-1.134-.686-4.764-3.545-3.857-2.63s2.836,2.287,2.041,2.517-1.813.456-.68.8S72.444,75.912,73.239,77.627Z"/><path class="cls-1" d="M74.372,80.372s-.454-2.63-.113-3.431,1.361-1.029,1.589-2.4.906-1.829.68.572S74.259,79.114,74.372,80.372Z"/><path class="cls-1" d="M74.259,84.26a14.687,14.687,0,0,0-1.815-1.716c-.794-.571-2.042-2.058-3.517-2.744s-3.971-1.945-2.609-.571,3.4,3.315,3.4,3.315-3.4.115-1.929.459,4.766,1.144,5.334,1.371A1.393,1.393,0,0,0,74.259,84.26Z"/><path class="cls-1" d="M77.662,88.15a14.575,14.575,0,0,1,2.382-.459c.68,0,5.218.572,2.951,1.03A12.6,12.6,0,0,1,77.662,88.15Z"/><path class="cls-1" d="M80.157,86.777A5.548,5.548,0,0,0,83.9,85.519a6.481,6.481,0,0,0,2.043-2.288Z"/><path class="cls-1" d="M83.3,83.307s3.1-2.362,3.44-2.592,2.155-4.919-.114-2.973A13.4,13.4,0,0,0,83.3,83.307Z"/><path class="cls-1" d="M76.186,88.15s.909-5.262,0-5.376-.68,5.032-.68,5.032-2.156-2.4-1.7-1.029a25.57,25.57,0,0,0,1.816,3.659Z"/><path class="cls-1" d="M76.981,99.587s.455-4.346.114-4.8-.682.343-.682.343a10.955,10.955,0,0,0-1.247-3.317c-1.021-1.83-1.248-2.516-1.135-1.373s.8,2.4,0,2.06-4.424-4.233-4.083-3.317a23.357,23.357,0,0,0,1.474,2.859s-1.815,0-.793.914A18.937,18.937,0,0,0,73.35,94.9,11.146,11.146,0,0,1,76.981,99.587Z"/><path class="cls-1" d="M69.04,91.7s-6.58-2.859-5.558-1.716,2.382,1.944,1.928,2.4-1.928,1.371-.228.914A22.915,22.915,0,0,0,69.04,91.7Z"/><path class="cls-1" d="M70.629,93.982s-9.494.686-2.534,1.829C69.663,96.069,70.629,93.982,70.629,93.982Z"/><path class="cls-1" d="M79.59,96.728s3.97-2.86,2.723-1.373A3.481,3.481,0,0,1,79.59,96.728Z"/><path class="cls-1" d="M79.25,98.327s4.31-.342,2.5.573-3.29,1.716-3.29,1.716Z"/><path class="cls-1" d="M84.128,97.642s2.609-2.63,3.97-3.2,4.2-2.173,4.652-2.4,1.02,1.6-.908,2.516-2.389.045-4.2,1.372C84.581,98.177,84.128,97.642,84.128,97.642Z"/><path class="cls-1" d="M84.014,98.671s8.4-1.83,5.9-.571-1.929,1.372-3.291,1.372A5.518,5.518,0,0,1,84.014,98.671Z"/><path class="cls-1" d="M75.506,107.592s-3.288-3.889-3.744-4.231.456,2.516.908,2.516,1.475,2.058,1.475,2.058-3.063-.686-2.609-.571,3.856,2.4,3.856,2.4l2.307,2.516Z"/><path class="cls-1" d="M77.851,112.053A6.827,6.827,0,0,1,79.59,110c1.249-1.03,2.609-2.631,1.7-2.06a8.876,8.876,0,0,1-1.7.84s2.269-5.986,1.249-5.3a2.531,2.531,0,0,0-1.249,2.286C79.476,106.792,77.851,112.053,77.851,112.053Z"/><path class="cls-1" d="M79.137,101.416s3.891-2.033,2.948-.8C80.574,102.6,79.137,101.416,79.137,101.416Z"/><path class="cls-1" d="M62.46,110.794s-3.516,2.516-2.155,2.173,3.97-2.63,3.97-2.63,1.021.114-.114,1.259-2.948,3.431-1.814,2.859,2.835-3.661,2.835-3.661-.679,2.516-.114,2.4.568-2.059.568-2.059a43.167,43.167,0,0,1,7.753.915,37.275,37.275,0,0,0,4.5.8s-5.9-1.83-7.94-1.83-5.673-.8-6.466-.8H56.334c-2.383,0-5.1,1.373-3.4.915a17.642,17.642,0,0,1,3.857-.457s-3.289,2.629-1.814,1.943,4.764-1.6,5.331-1.83Z"/><path class="cls-1" d="M80.044,144.894l1.543,11.232L77.209,99.569c-.017-.145-.347-3.424-.573-4.492-.066-.314-.118-.768-.181-1.294a15.5,15.5,0,0,0-.89-4.166,20.32,20.32,0,0,1-.626-5.229,19.938,19.938,0,0,0-.351-3.665,14.484,14.484,0,0,1-.5-2.671c-.066-.528-.135-1.092-.246-1.722a13.772,13.772,0,0,0-.695-2.716l-.417.174a13.868,13.868,0,0,1,.665,2.62c.109.623.177,1.179.242,1.7a14.669,14.669,0,0,0,.523,2.753,20.623,20.623,0,0,1,.33,3.548,20.161,20.161,0,0,0,.663,5.4A14.886,14.886,0,0,1,76,93.837c.066.544.121,1.012.191,1.337.22,1.043.558,4.4.563,4.436l3.288,45.284Z"/><path class="cls-1" d="M77.285,102.343c1.055-1.616,2.8-2.446,4.652-3.322a24.833,24.833,0,0,0,2.69-1.414l-.242-.387a24.3,24.3,0,0,1-2.641,1.387c-1.823.866-3.713,1.76-4.839,3.484l.38.252Z"/><path class="cls-1" d="M75.776,88.875c3.5,0,6.832-3.23,8.332-6.462L83.7,82.22c-1.418,3.057-4.735,6.324-8.034,6.2l-.01.458Z"/><path class="cls-1" d="M72.919,93.582l.183-.419-.212-.1a16.523,16.523,0,0,0-5.832-1.676l-.045.455a16.227,16.227,0,0,1,5.692,1.638l.214.1Z"/><path class="cls-1" d="M91.544,65.86a8.307,8.307,0,0,1,0-4.117c.633-1.6.422-1.831.95-2.86a7.282,7.282,0,0,1,1.9-2.516c.845-.686,1.162,0,0,1.487A8.715,8.715,0,0,0,92.917,61.4s1.9-1.944,1.689-.457-1.267,1.945-1.689,3.432-1.162,3.431-1.162,3.431Z"/><path class="cls-1" d="M91.86,69.977a6.545,6.545,0,0,1,1.8-2.63c1.055-.687,4.434-3.546,3.591-2.63s-2.64,2.286-1.9,2.516,1.688.457.633.8S92.6,68.262,91.86,69.977Z"/><path class="cls-1" d="M90.8,72.722a11.248,11.248,0,0,0,.107-3.431c-.318-.8-1.268-1.029-1.479-2.4s-.845-1.83-.634.571S90.911,71.464,90.8,72.722Z"/><path class="cls-1" d="M90.911,76.611A14.112,14.112,0,0,1,92.6,74.9c.74-.572,1.9-2.058,3.273-2.745s3.7-1.944,2.428-.571S95.134,74.9,95.134,74.9s3.166.115,1.794.458-4.434,1.144-4.962,1.371A1.22,1.22,0,0,1,90.911,76.611Z"/><path class="cls-1" d="M87.743,80.5a12.781,12.781,0,0,0-2.217-.458c-.633,0-4.857.572-2.746,1.03A10.983,10.983,0,0,0,87.743,80.5Z"/><path class="cls-1" d="M85.42,79.127a4.912,4.912,0,0,1-3.483-1.258,6.385,6.385,0,0,1-1.9-2.288Z"/><path class="cls-1" d="M82.5,75.658s-2.885-2.363-3.2-2.593-2.006-4.918.105-2.973A13.667,13.667,0,0,1,82.5,75.658Z"/><path class="cls-1" d="M89.116,80.5s-.845-5.262,0-5.376.633,5.033.633,5.033,2.006-2.4,1.584-1.03a26.183,26.183,0,0,1-1.69,3.659Z"/><path class="cls-1" d="M88.377,91.937s-.423-4.346-.106-4.8.634.343.634.343a11.5,11.5,0,0,1,1.161-3.317c.949-1.83,1.161-2.516,1.056-1.373s-.739,2.4,0,2.06,4.117-4.232,3.8-3.317a24.435,24.435,0,0,1-1.373,2.86s1.689,0,.738.913a17.514,17.514,0,0,1-2.533,1.946A11.091,11.091,0,0,0,88.377,91.937Z"/><path class="cls-1" d="M95.767,84.046s6.123-2.86,5.172-1.717-2.217,1.945-1.794,2.4,1.794,1.372.212.914A20.5,20.5,0,0,1,95.767,84.046Z"/><path class="cls-1" d="M94.288,86.332s8.834.686,2.357,1.83C95.187,88.419,94.288,86.332,94.288,86.332Z"/><path class="cls-1" d="M85.949,89.078s-3.7-2.859-2.535-1.373A3.138,3.138,0,0,0,85.949,89.078Z"/><path class="cls-1" d="M86.265,90.678s-4.012-.342-2.322.572S87,92.967,87,92.967Z"/><path class="cls-1" d="M81.726,89.993a19.27,19.27,0,0,0-3.7-3.2c-1.267-.571-3.907-2.173-4.329-2.4s-.95,1.6.845,2.516,2.223.044,3.906,1.372C81.3,90.527,81.726,89.993,81.726,89.993Z"/><path class="cls-1" d="M81.831,91.021s-7.813-1.829-5.491-.571,1.8,1.372,3.063,1.372A4.905,4.905,0,0,0,81.831,91.021Z"/><path class="cls-1" d="M89.749,99.942s3.062-3.889,3.484-4.231-.422,2.516-.845,2.516-1.373,2.058-1.373,2.058,2.851-.686,2.43-.571-3.591,2.4-3.591,2.4l-2.146,2.516Z"/><path class="cls-1" d="M87.567,104.4a6.749,6.749,0,0,0-1.618-2.059c-1.163-1.03-2.429-2.631-1.584-2.06a7.96,7.96,0,0,0,1.584.84s-2.112-5.985-1.163-5.3a2.582,2.582,0,0,1,1.163,2.287C86.054,99.142,87.567,104.4,87.567,104.4Z"/><path class="cls-1" d="M86.371,93.767s-3.622-2.034-2.745-.8C85.032,94.95,86.371,93.767,86.371,93.767Z"/><path class="cls-1" d="M101.89,103.145s3.273,2.516,2.007,2.173-3.7-2.63-3.7-2.63-.95.113.105,1.258,2.744,3.431,1.69,2.859-2.639-3.66-2.639-3.66.633,2.516.106,2.4-.529-2.059-.529-2.059a37.438,37.438,0,0,0-7.214.916,32.473,32.473,0,0,1-4.188.8s5.489-1.83,7.391-1.83,5.278-.8,6.016-.8h6.652c2.217,0,4.75,1.373,3.167.915a15.318,15.318,0,0,0-3.589-.457s3.061,2.63,1.689,1.944-4.434-1.6-4.961-1.83Z"/><path class="cls-1" d="M85.526,137.245l-1.87,15.821,4.51-61.146c.014-.145.322-3.424.533-4.492.06-.314.11-.769.168-1.3a16.389,16.389,0,0,1,.829-4.165,21.883,21.883,0,0,0,.581-5.23,21.622,21.622,0,0,1,.326-3.665,15.4,15.4,0,0,0,.47-2.671c.062-.528.126-1.091.229-1.722a14.648,14.648,0,0,1,.646-2.716l.389.174a14.877,14.877,0,0,0-.62,2.621c-.1.623-.165,1.178-.224,1.7a15.807,15.807,0,0,1-.487,2.754,22.107,22.107,0,0,0-.307,3.547,21.5,21.5,0,0,1-.617,5.4,15.817,15.817,0,0,0-.795,4.029c-.061.544-.112,1.012-.177,1.337-.2,1.043-.52,4.4-.524,4.436l-3.06,45.285Z"/><path class="cls-1" d="M88.1,94.693c-.984-1.616-2.61-2.445-4.331-3.322a22.226,22.226,0,0,1-2.5-1.414l.224-.387a22.123,22.123,0,0,0,2.459,1.387c1.7.866,3.454,1.76,4.5,3.485l-.352.251Z"/><path class="cls-1" d="M89.5,81.226c-3.259,0-6.357-3.231-7.753-6.463l.382-.193c1.321,3.058,4.405,6.324,7.477,6.2l.009.457c-.038,0-.077,0-.115,0Z"/><path class="cls-1" d="M92.157,85.932l-.171-.419.2-.1a14.578,14.578,0,0,1,5.426-1.675l.043.454a14.329,14.329,0,0,0-5.3,1.638l-.2.1Z"/><path class="cls-2" d="M79.9,152.275a250.073,250.073,0,0,0-3.108-26.468,65.144,65.144,0,0,0-2.449-10.167c-1.236-3.5-2.188-7.178-5.137-9.817a1.617,1.617,0,0,1-.118-2.138l1.087,1.839c1.714-1.017,1-2.252.374-3.484a1.409,1.409,0,0,1-.181-.513,15,15,0,0,0-1.833-6.793c.229-1.774-1.306-3.046-1.35-4.743l.357.027a59.622,59.622,0,0,1,3.757,9.9c2.176,8.852,4.708,17.631,6.178,26.637A193.573,193.573,0,0,1,80.283,151.6"/><path class="cls-2" d="M67.543,90.018l-.357-.027c-.285-.016-.721-.36-.732.27-.012.687.042,1.375.067,2.063-1.2-.748-.834-1.908-.584-2.88a2.682,2.682,0,0,0-.339-2.036,11.93,11.93,0,0,0-6.63-6.039,4.565,4.565,0,0,1-2.334-1.837c.562-.576,1.112.262,1.674-.263-2.505-1.6-3.47-4.621-6.074-6.142,2.435.331,4.456,1.226,5.63,3.566.823-2.034-1.639-4.128-5.67-5.125.39-.667,1.012.12,1.485-.3-1.3-1.767-3.991-1.592-5.247-3.686,1.011-.031,1.661,1.058,2.639.541-2.032-3.379-3.867-6.9-7.434-9.307.456-.123.614-.2.64-.168,1.709,2.062,4.534,2.848,5.864,5.452.663,1.3,2.357,1.985,3.117,3.4.3.57.968.944.9,1.718a.722.722,0,0,0,.66.738c.674.07.131-.479.267-.715.309-.535.621-.272.79.057.747,1.457,2.281,2.359,2.78,3.993a2.6,2.6,0,0,0,.612,1.1,22.419,22.419,0,0,1,6.069,9.636c.708-.114.132-.915.609-.95.632-.046.546.553.546.925C66.487,86.073,67.856,87.9,67.543,90.018Zm-5.77-9.5a6.79,6.79,0,0,0-2.433-3.4C60,78.634,59.544,80.337,61.773,80.521Z"/><path class="cls-2" d="M62.419,98.814c2.064,1.432,4.511,2.413,5.991,5.225C65.806,102.55,63.626,101.255,62.419,98.814Z"/><path class="cls-2" d="M60.028,85.884c.8,1.274,1.343,2.421,3.31,2.126.825-.124,1.346,1.456,1.582,2.751a11.351,11.351,0,0,0-3.89-2.126C59.785,88.21,60.472,86.782,60.028,85.884Z"/><path class="cls-2" d="M65.086,96.126c1.263,1.276,1.336,3.144,2.277,4.61-1.057-1.973-3.96-2.408-4.166-5.107,1.064.752,1.064.752,1.726.642Z"/><path class="cls-2" d="M69.809,87.817c.569,2.448,1.788,4.859.327,7.305C70.681,92.685,68.849,90.311,69.809,87.817Z"/><path class="cls-2" d="M64.923,96.271a13.339,13.339,0,0,1-3.079-5.739c1.713,1.5,2.432,3.572,3.242,5.594Z"/><path class="cls-2" d="M69.17,98.814s-1.483-4.3-2.7-5.544a26.533,26.533,0,0,0-3-2.509s3.482,6.773,3.721,7.422a19.847,19.847,0,0,0,2.34,4.539C70.392,103.629,69.17,98.814,69.17,98.814Z"/><path class="cls-2" d="M90.214,67.119c-1.321.28-2.387-.307-3.7-.8l2.117-.556-.09-.371L79.6,67.166c.775-.888,1.449-1.714,2.179-2.486a6.033,6.033,0,0,1,5.713-1.691,1.425,1.425,0,0,0,1.677-.625c-1.864-.942-3.611-.036-5.44.135a3.475,3.475,0,0,1,3.188-1.763c.356.023.716,0,1.073-.009.431-.014.917-.029.86-.632s-.566-.511-.971-.445a2.881,2.881,0,0,0-.643.276l-1.382.615-.2-.43c.855-.428,1.7-.886,2.567-1.277s1.788-.723,2.654-1.069c-.2-.888-.627-.93-1.151-.578-.567.379-1.106.8-1.657,1.2l-.089-.111,1.013-1.745c-.817-.5-1.588-.19-1.857,1.061-.345,1.612-1.693,2.163-2.744,3.083a2.728,2.728,0,0,1,.427-1.217c.34-.485.778-.9,1.146-1.366a1.413,1.413,0,0,0-.076-1.9c-.346.585-.657,1.026-.878,1.509-.255.56-.429,1.156-.643,1.735-.224.608-.453,1.213-.679,1.82a1.789,1.789,0,0,1-.179.486,46.157,46.157,0,0,0-3.469,4.134,3.39,3.39,0,0,1-.662.581c-.721-5.446-1.424-10.751-2.14-16.16a11.874,11.874,0,0,1,1.609.343,4.7,4.7,0,0,1,1.941.92c1.539,1.8,3.886,2.215,5.743,3.534a1.771,1.771,0,0,0-.618-1.113,4.261,4.261,0,0,0-1.247-.451,6.377,6.377,0,0,1-3.614-2.375l4.9.443.033-.288-2.95-.4c.11-.166.179-.259.237-.36s.11-.218.282-.563c-2.012,1.317-3.695.221-5.446-.1a2.729,2.729,0,0,1,.852-.509c1.675-.61,3.376-1.158,5.027-1.827a4.6,4.6,0,0,1,3.665-.122c.457.189.912.141,1.3-.632H86.3l-.024-.232L88.9,45.8a.961.961,0,0,0-1.554-.289A7.462,7.462,0,0,1,85.9,46.4c-1.776.716-3.573,1.38-5.366,2.053a3.087,3.087,0,0,1-.644.072c.792-1.016,2.07-1.637,1.788-3.051-1.37.179-1.506,1.2-1.747,2.157a2.587,2.587,0,0,1-.246.757,1.543,1.543,0,0,1-.621.608c-.625.256-1.285.425-1.938.632a1.223,1.223,0,0,1-.115-.275c-.382-3.284-.772-6.566-1.116-9.853a.886.886,0,0,1,.445-.725,2.573,2.573,0,0,1,1.54-.135,14.469,14.469,0,0,1,2.754,1.531,1.24,1.24,0,0,0,1.79-.019c-.724-1.448-2.609-.828-3.512-1.945.647-.8,1.338-.371,2.127.043l-.166-.853,4.448.889.721-1.008H81.256A4.891,4.891,0,0,1,85.8,35.844a1.951,1.951,0,0,0,.805-.146c.021-.007.012-.387-.083-.456a1.688,1.688,0,0,0-.815-.377,2.555,2.555,0,0,0-.837.276c-.391.132-.785.256-1.177.383l-.074-.16,1.815-2.217-.862-.539a7.678,7.678,0,0,0-1.049,1.134c-.251.411-.218,1.032-.523,1.368a8.3,8.3,0,0,1-3.73,2.291l-.223-.277,3.223-3.145c-.852-.189-1.1-.079-1.614.625-.7.956-1.359,1.944-2.056,2.9a1.127,1.127,0,0,1-.546.424c-.761.205-1.536.357-2.405.55-.2-1.109-.42-2.123-.559-3.147-.325-2.388-.582-4.786-.928-7.17a1.578,1.578,0,0,1,.871-1.7,10.011,10.011,0,0,0,3.474-4.095c.53-.991,1.081-1.971,1.636-2.949.337-.594.561-1.135-.528-1.392l-1.132,3.506-.518-2.744-.379.044a7.051,7.051,0,0,0,.191,1.834,2.8,2.8,0,0,1-.817,3.289c-.084-1.184-.158-2.248-.233-3.311-.043-.594-.115-1.169-.82-1.337a3.954,3.954,0,0,0,.252,2.966c.391.8.765,1.8.049,2.617a21.644,21.644,0,0,1-2.235,1.945c-.111-.443-.2-.72-.25-1-.45-2.515-.823-5.047-1.371-7.541a6.488,6.488,0,0,1,.134-3.577,28.3,28.3,0,0,0,.752-2.935,1.684,1.684,0,0,0-.421-1.886,5.545,5.545,0,0,0-.363,2.022,4.641,4.641,0,0,1-.584,2.853c-1.131-1.631.067-3.786-1.055-5.446l-.28.048,1.352,8.558-.342.119c-.247-.626-.531-1.241-.728-1.882-.112-.362-.035-.78-.136-1.147-.05-.184-.308-.311-.472-.465a2.218,2.218,0,0,0-.3.631,2.013,2.013,0,0,0,.144.66,2.356,2.356,0,0,1-.6-1.173c-.174-.8-.239-1.667-1.629-1.576a11.945,11.945,0,0,0,.66,1.578,12.768,12.768,0,0,0,1.067,1.373l-.174.15L67.52,14.965c.042,1.287.2,1.517,1.27,1.548a2.891,2.891,0,0,1,2.126,1.1c1.719,1.813,1.706,4.184,2.193,6.394a14.65,14.65,0,0,1,.174,1.893l-.254.108c-.9-1.894-3.1-2.783-3.551-5.057l-1.315.562,3.161,2.884-.137.167-1.7-.865-.146.291a6.134,6.134,0,0,0,1.6.814c1.1.2,1.536.977,2.032,1.818l-.628.058a2.113,2.113,0,0,1,1.478,1.9c.127,1.331.3,2.66.493,3.984.262,1.788.562,3.572.878,5.554-.7-.348-1.212-.641-1.751-.859a2.944,2.944,0,0,1-1.956-2.545c-.092-.746-.509-1-1.466-.743l1.648,2.61c-1.422-.215-2.721-.362-3.991-.638-.319-.069-.612-.514-.805-.85-.487-.85-.882-1.754-1.377-2.6-.152-.261-.507-.4-.769-.6l-.194.237,1.726,2.38c-1.315-.629-1.932-1.99-3.418-1.747a3.479,3.479,0,0,0,1.405,1.064,5.817,5.817,0,0,1,2.59,1.989c-.8.008-1.439.283-1.686-.646-.057-.216-.552-.316-.845-.469l-.105.189.735,1.1a19.228,19.228,0,0,0-2.366-.885,18.357,18.357,0,0,0-2.445-.219c.853,1.332,1.054,1.406,1.765,1.389q2.436-.057,4.875.015c.776.021,1.548.171,2.34.265l-.243.747c1.2-.923,4.906.03,5.979,1.415l-1.141.251.026.1,1.546.2-.033.041c.017-.01.035-.019.052-.03a8.748,8.748,0,0,1,.29,1.152c.222,1.8.422,3.609.618,5.415.131,1.207.242,2.416.372,3.725-.791-.154-1.45-.321-2.119-.4a1.44,1.44,0,0,1-1.14-.824,4.843,4.843,0,0,0-2.9-2.408,2.421,2.421,0,0,0,1.641,1.676,1.224,1.224,0,0,1,.909,1.485c-1.175-.13-2.306-.045-3.3-.889-1.029-.876-2.192-1.594-3.383-2.444a1.882,1.882,0,0,0,1.447,1.919,11.513,11.513,0,0,1,1.7.831.629.629,0,0,1-.5.22c-1.643-.015-3.312.337-4.882-.529a1.447,1.447,0,0,0-1.714.37l2.233.9,2.452-.444c-.745.814-1.832.919-2.033,2.226.68-.259,1.553-.372,1.608-.649.269-1.345,1.285-1.318,2.2-1.323,1.817-.011,3.638.059,5.45.2a11.5,11.5,0,0,1,2.116.556c-.126,1.274-1.121.915-1.809,1.21l.723.382c-.963.28-1.637.521-2.331.658a2.208,2.208,0,0,1-1.152-.081c-1.042-.4-2.055-.868-3.278-1.4.461,1.947,2.294.914,2.99,1.867a23.525,23.525,0,0,0-2.512,1.254,2.49,2.49,0,0,1-1.529.525,1.942,1.942,0,0,0-1.994,2.248c.7-.314,1.408-.626,2.108-.955a.628.628,0,0,0,.317-.288c.4-1.1,1.45-1.2,2.383-1.542a10.205,10.205,0,0,1-1.464,2.211c-.948,1.061-1.215,1.718-.9,2.628a3.24,3.24,0,0,0,1.757-2.519c.726-2.449,3.1-4.174,5.3-3.84-.492,1.517-1.821,2.751-1.76,4.453l.46.169,1.233-3.289a15.867,15.867,0,0,1,.144,1.849c.049.522-.3,1.328.949,1.348-.089-.665-.118-1.273-.258-1.854a4.858,4.858,0,0,1,1.132-4.625L78.8,65.92c-.683-.715-1.036-1.587-1.676-2.109A6.488,6.488,0,0,1,75.069,59.6a7.319,7.319,0,0,0-.38-1.008c-.825,1.4.782,2.148.441,3.263-1.253-.887-1.986-2.413-3.616-3.132.251,1.629.355,1.827,1.315,2.147,1.537.511,2.447,1.793,3.6,2.815a9.534,9.534,0,0,1-1.68-.091,1.562,1.562,0,0,1-1.484-1.035,6.286,6.286,0,0,0-1.276-1.518l-.238.155.607,1.355-.142.107-2.068-1.615a2.424,2.424,0,0,0,2.224,2.33,10.535,10.535,0,0,1,1.867.691l-2.1.926.139.419a18.323,18.323,0,0,0,2.476-.726,2.254,2.254,0,0,1,3.025.766A7.789,7.789,0,0,1,79.2,69.6c.262,4.1.568,8.207.849,12.311.027.389,0,.782,0,1.344-.543-.5-.907-.858-1.3-1.182-1.558-1.274-3.354-2.3-4.327-4.181-.386-.746-.764-1.5-1.2-2.212a2.414,2.414,0,0,0-.752-.626,9.2,9.2,0,0,0-.855-.451,2.648,2.648,0,0,0,1.279,2.25c1.14.58,1.5,1.722,2.143,2.678-2.092-.929-4.1-1.96-6.128-2.936A8.276,8.276,0,0,1,65.59,74.11a3.2,3.2,0,0,0-.669-.578c-.045-.034-.149.006-.27.015l.324.791-1.512-.123c1.045.658,1.657,1.511,2.843,1.7A13.8,13.8,0,0,1,69.2,77.047l-.2.475L66.4,76.392l.155.623-.893-.122c.176.3.584.428.619.624.173.984,1.03.727,1.417.595a5.8,5.8,0,0,1,4.623.64,41.406,41.406,0,0,1,3.86,2.042,18.014,18.014,0,0,1,3.07,2.411,6.82,6.82,0,0,1,.729.97,115.678,115.678,0,0,0,.562,13.966c.074.881.151,1.792.17,2.685,0,.159.015.41.029.708a18.655,18.655,0,0,1,.015,2.668,4.621,4.621,0,0,0,.188,1.532,4.928,4.928,0,0,1,.2,1.449c-.133.348.114,1.813,1.029,6.672.5,2.634,3.166,43.089,3.115,43.472l.521-5.052c.132-.348-2.035-33.691-2.95-38.549-.5-2.635-1.114-5.912-1.062-6.3a3.887,3.887,0,0,0-.165-1.844,5.2,5.2,0,0,1-.187-1.244,16.8,16.8,0,0,0,0-2.842c-.013-.29-.025-.535-.028-.69-.02-.915-.1-1.837-.176-2.76a117.531,117.531,0,0,1-.567-13.6l3.271-4.064c.868-1.317,1.712-2.657,2.685-3.894,1.18-1.5,1.237-1.46,1.213-3.212a4.7,4.7,0,0,0-.211-.849c-1.2,2.668-1.858,5.362-3.913,7.282-.188-1.817-.807-2.069-.79-.83.666,1.257.46,1.821-1.275,3.137.448-1.125-.122-.6-.921.853-.1-1.487-.167-2.7-.261-3.92q-.353-4.531-.721-9.061c-.005-.059-.008-.118-.016-.177-.283-2.064.258-2.648,2.456-2.65.094.363.231.336.194-.181h1.19l-.011.007.026.008-.009-.014c.631-.179,1.332-.617,1.876-.47a28.444,28.444,0,0,1,4.226,1.6c.9.405,1.426.359,2.191-.7A5.539,5.539,0,0,0,90.214,67.119Z"/><path class="cls-2" d="M67.014,25.075c-1.066.113-2.106-.789-2.984.189.471.753.527.8,1.315.557,1.367-.413,2.722-.96,4.1-.022.128.087.339.053.511.076l.224-.237-2.534-3.413-.254.185c-.077,1.449,1.972,1.559,2.008,3.093a9.494,9.494,0,0,1-4.274-3.172l-.1.3-1.2-.076C64.329,24.014,66.209,23.8,67.014,25.075Z"/><path class="cls-2" d="M71.119,41.807c-.4.083-.73.5-1.107.779.562.62.948.52,1.382.073a11.06,11.06,0,0,1,1.155-.925l.19.191a5.86,5.86,0,0,0-.573,1.363,4.018,4.018,0,0,0,.216,1.269l.444-.011a10.364,10.364,0,0,0,.432-2.012,2.419,2.419,0,0,1,.8-1.8,16.421,16.421,0,0,0,1.182-1.425,3.041,3.041,0,0,0-.656.428A6.719,6.719,0,0,1,71.119,41.807Z"/><path class="cls-2" d="M91.429,64.585a2.83,2.83,0,0,0-2.307.9l.06.29,2.9-.131.132-.3C91.952,65.073,91.721,64.628,91.429,64.585Z"/><path class="cls-2" d="M85.976,69.233c.359-.9.151-1.393-.432-1.654-.629-.281-1.3-.46-1.96-.681a9.714,9.714,0,0,0,.9,1.154A18.384,18.384,0,0,0,85.976,69.233Z"/><path class="cls-2" d="M88.131,51.234c.332.071.8.035,1.057.251a2.288,2.288,0,0,0,.248.184c.562.356,1.02.209,1.476-.343h0a2.025,2.025,0,0,0-1.861-.681A1.5,1.5,0,0,0,88.131,51.234Z"/><path class="cls-2" d="M84.327,49.9c1.7,1.366,2.087,1.448,2.548.536A2.326,2.326,0,0,0,84.327,49.9Z"/><path class="cls-2" d="M81.484,62.013a4.683,4.683,0,0,0,.222-3.264C80.7,59.778,80.943,60.81,81.484,62.013Z"/><path class="cls-2" d="M71.979,39.475a2.271,2.271,0,0,0-2.477.71C70.63,40.963,71.271,40.269,71.979,39.475Z"/><path class="cls-2" d="M85.664,44.1c-.791.529-1.535,1.128-2.3,1.7l.061.1,3-1.271-.033-.388C86.146,44.188,85.811,44,85.664,44.1Z"/><path class="cls-2" d="M84.493,76.771c.585-.982.129-1.7-.526-2.375C83.589,75.284,83.7,75.79,84.493,76.771Z"/><path class="cls-2" d="M68.391,37.507l-.12-.145-2.116,1.412.881.622Z"/><path class="cls-2" d="M90.161,52.559l-2.29-.774C88.748,53.066,89.429,53.3,90.161,52.559Z"/><path class="cls-2" d="M81.742,20.393c-1.087-.208-1.681.306-1.813,1.567C80.49,21.474,81.052,20.989,81.742,20.393Z"/><path class="cls-2" d="M76.687,26.057c.738-.187,1.481-.361,2.207-.587.059-.018.008-.389.008-.712l-2.249,1.069Z"/><path class="cls-2" d="M73.986,51.417c-.17-.823-.864-.786-1.463-.907l-.169.253,1.4.974Z"/><path class="cls-2" d="M73.352,13.424c.375-.428.764-.845,1.112-1.293.057-.073-.066-.285-.105-.433-.124.044-.3.05-.362.138-.313.45-.595.922-.888,1.386Z"/></svg>