<svg id="word" xmlns="http://www.w3.org/2000/svg" viewBox="0 0 160 160"><defs><style>.cls-1{fill:#fff;}.cls-1,.cls-10,.cls-2,.cls-3,.cls-4,.cls-5,.cls-6,.cls-7,.cls-8,.cls-9{stroke:#9d4b9c;stroke-width:0.709px;}.cls-1,.cls-10,.cls-3,.cls-4,.cls-5,.cls-6,.cls-7,.cls-8,.cls-9{stroke-miterlimit:10;}.cls-2{fill:#fff475;}.cls-3{fill:#d8ab6a;}.cls-4{fill:#599543;}.cls-5{fill:#e3f4fc;}.cls-6{fill:#abd26e;}.cls-7{fill:#eef8fd;}.cls-8{fill:#99ca3c;}.cls-9{fill:none;}.cls-10{fill:#78c159;}</style></defs><path class="cls-1" d="M64.117,114.907a42.627,42.627,0,0,0,1.985,4.174,73.181,73.181,0,0,0,19.182,3.057,61.653,61.653,0,0,0,20.08-2.993,8.97,8.97,0,0,0,.4-1.383c.165-.872.351-1.888.553-2.986a191.5,191.5,0,0,1-19.623,3.455C78.837,119.089,68.29,116.192,64.117,114.907Z"/><path class="cls-2" d="M85.284,122.138A73.181,73.181,0,0,1,66.1,119.081c1.914,3.5,4.393,6.752,7.146,8.059,6.252,2.97,24.072.938,24.072.938s6.186-3.828,8.044-8.933A61.653,61.653,0,0,1,85.284,122.138Z"/><path class="cls-1" d="M59.064,97.508a16.113,16.113,0,0,1,2.323,4.788c4.065,1.593,14.154,5.006,24.991,4.524a85.584,85.584,0,0,0,22.387-4.12,19.434,19.434,0,0,1,1.293-3.969,91.554,91.554,0,0,1-22.273,3.243A78.156,78.156,0,0,1,59.064,97.508Z"/><path class="cls-2" d="M113.733,89.938c0-1.875-.157-7.151-.157-7.151s-18.288,6.995-29.855,5.9S55.741,82.9,55.741,82.9s-2.344,8.441,1.72,12.661a16.887,16.887,0,0,1,1.6,1.943,78.156,78.156,0,0,0,28.721,4.466,91.554,91.554,0,0,0,22.273-3.243,1.926,1.926,0,0,1,.236-.352C111.7,96.816,113.733,91.814,113.733,89.938Z"/><path class="cls-2" d="M61.387,102.3a19.788,19.788,0,0,1,.763,5.618,23.419,23.419,0,0,0,1.967,6.993c4.173,1.285,14.72,4.182,22.574,3.324a191.5,191.5,0,0,0,19.623-3.455c.7-3.8,1.591-8.617,2.451-12.076a85.584,85.584,0,0,1-22.387,4.12C75.541,107.3,65.452,103.889,61.387,102.3Z"/><ellipse class="cls-1" cx="84.815" cy="82.826" rx="28.917" ry="6.8"/><ellipse class="cls-3" cx="85.636" cy="82.748" rx="25.518" ry="4.377"/><path class="cls-4" d="M70.743,86.854s.588-11.013-.879-15.439S67.094,61.25,66.28,58.79s3.259,3.115,4.888,7.378S73.612,86.99,73.612,86.99Z"/><path class="cls-4" d="M91.482,86.238s.557-17.176.557-22.839,2.692-12.07,4.27-13.462a40.376,40.376,0,0,0,4.178-5.106S95.845,53,95.567,57.178s.371,24.975.371,25.346V86.33Z"/><path class="cls-5" d="M42.665,47.192s-4.456,7.8-1.733,11.141,7.3-3.714,7.3-6.313V42.859l-2.352.619Z"/><path class="cls-6" d="M45.154,44.088s-3.85,6.446-2.117,7.065,2.228-1.485,2.475.124,1.114,2.6,2.1,1.981.247-7.923.247-7.923Z"/><path class="cls-7" d="M43.408,74.054s-6.313,2.6-8.294,4.333-4.085,4.085-2.723,4.7,5.694.742,7.551-1.486a76.513,76.513,0,0,0,4.7-6.932Z"/><path class="cls-7" d="M47.122,75.539s1.114,5.942.123,8.666-4.456,6.808-6.065,6.065-2.352-3.466-1.362-6.561,4.828-9.036,4.828-9.036Z"/><path class="cls-7" d="M48.112,75.416s3.095,4.332,4.456,6.065,1.609,6.932.372,7.18-2.848-.371-4.7-3.714-2.352-9.531-2.352-9.531Z"/><path class="cls-8" d="M47.369,69.845a3.26,3.26,0,0,0-2.476.619,31.7,31.7,0,0,0-2.723,4.209s1.733,1.857,3.219,2.1a5.639,5.639,0,0,0,3.094-.619S48.855,71.083,47.369,69.845Z"/><path class="cls-9" d="M57.52,56.105s1.114-10.77,7.922-11.017,8.418,6.437,9.284,8.293,3.095,7.675,4.58,11.389S83.02,86.433,83.02,86.433"/><path class="cls-9" d="M49.721,39.022s4.7-3.837,8.665-2.228S68.736,43.615,72,50.782c3.837,8.417,9.545,35.734,9.545,35.734"/><path class="cls-9" d="M47.369,69.845s.495-5.323,6.685-4.58,14.237,3.931,16.34,5.818c4.827,4.333,9.854,15.433,9.854,15.433"/><path class="cls-9" d="M88.591,36.794s-1.486-6.437,4.827-5.447,5.076,13.988,5.076,16.093-8.542,39.488-8.542,39.488"/><path class="cls-10" d="M78.811,86.185s-.619-3.961-2.847-6.065-4.7-4.828-6.437-6.19a52.341,52.341,0,0,0-4.7-3.094s5.942,9.531,7.675,10.522S75.469,86.8,75.469,86.8l3.218-.124Z"/><path class="cls-10" d="M96.217,86.7s-.447-8.315.667-11.658,2.105-7.675,2.724-9.531-2.476,2.352-3.714,5.57S94.037,86.8,94.037,86.8Z"/><path class="cls-10" d="M88.1,86.68s-1.856-13.864-1.361-17.949S87.6,59.7,87.6,59.7s1.114,6.065,1.609,9.779.248,17.33.248,17.33Z"/><path class="cls-10" d="M85.248,86.185a52.226,52.226,0,0,0,.991-11.512c-.124-6.685-2.476-16.34-3.59-20.425S79.554,37.66,78.811,38.9s-1.238,2.228-.5,8.418,5.075,23.024,5.075,26,.5,12.874.5,12.874Z"/><path class="cls-10" d="M99.236,86.433s.495-2.352.991-6.19a78.492,78.492,0,0,1,1.609-9.407c.5-1.61,1.98-5.2,1.98-5.2s-3.837,3.095-4.332,6.19S97.5,86.68,97.5,86.68Z"/><path class="cls-9" d="M91.2,45.945s4.322-4.5,8.281-4.323c5.57.247,8.665,7.8,8.665,7.8"/><path class="cls-5" d="M45.636,42.859a59.929,59.929,0,0,0-6.313,2.229c-2.847,1.238-9.284,5.941-6.932,7.922S42.665,49.544,43.9,48.554s2.847-4.7,2.847-4.7Z"/><path class="cls-5" d="M48.855,43.85s4.332,7.675,4.208,11.141.248,6.932-.371,6.313a49.686,49.686,0,0,1-4.085-4.333C47.493,55.486,46.75,43.85,46.75,43.85Z"/><path class="cls-8" d="M49.721,38.9a4.558,4.558,0,0,0-3.095,1.486c-1.361,1.485-2.228,2.352-2.228,2.352s.619,1.98,2.228,2.352a24.841,24.841,0,0,0,3.219.495S51.454,40.26,49.721,38.9Z"/><path class="cls-7" d="M113.076,53.629s5.166,2.6,6.787,4.333,3.342,4.085,2.228,4.7-4.659.742-6.179-1.486-3.849-6.932-3.849-6.932Z"/><path class="cls-7" d="M110.037,55.114s-.911,5.942-.1,8.666,3.646,6.808,4.963,6.065,1.925-3.466,1.115-6.561-3.951-9.036-3.951-9.036Z"/><path class="cls-7" d="M109.227,54.991s-2.533,4.332-3.647,6.065-1.317,6.932-.3,7.18,2.33-.371,3.85-3.714,1.924-9.531,1.924-9.531Z"/><path class="cls-8" d="M113.843,53.877s-2.352-3.838-3.961-4.209-2.476.124-2.352,1.733a31.314,31.314,0,0,0,.99,4.58,7.067,7.067,0,0,0,3.219-.371A3.251,3.251,0,0,0,113.843,53.877Z"/><path class="cls-7" d="M59.129,62.542s1.609,6.065.619,7.922-1.486,4.828-2.228,5.818A1.5,1.5,0,0,1,54.8,75.168c.124-2.1,1.857-13.121,1.857-13.121Z"/><path class="cls-7" d="M54.425,60.561a16.489,16.489,0,0,0-2.847,7.3c-.619,4.456.619,9.036,1.485,9.779s2.971-1.114,3.838-3.59a56.831,56.831,0,0,0,1.857-9.779c0-.991-.124-3.466-.124-3.466Z"/><path class="cls-8" d="M57.644,55.857s-1.115-.495-1.981.99a13.063,13.063,0,0,0-1.238,3.714s1.114,1.486,2.228,1.486a8.757,8.757,0,0,1,2.476.5S60.243,57.1,57.644,55.857Z"/><path class="cls-7" d="M90.509,43.6s1.609,6.066.619,7.923-1.485,4.827-2.228,5.818a1.5,1.5,0,0,1-2.723-1.114c.123-2.1,1.856-13.122,1.856-13.122Z"/><path class="cls-7" d="M85.805,41.622a16.489,16.489,0,0,0-2.847,7.3c-.619,4.456.619,9.037,1.486,9.779s2.971-1.114,3.837-3.59a56.7,56.7,0,0,0,1.857-9.779c0-.99-.124-3.466-.124-3.466Z"/><path class="cls-8" d="M89.024,36.918s-1.114-.5-1.981.99a13.088,13.088,0,0,0-1.238,3.714s1.114,1.485,2.228,1.485a8.748,8.748,0,0,1,2.476.495S91.623,38.156,89.024,36.918Z"/><path class="cls-10" d="M86.1,86.516S82.94,71.29,80.712,68.784s-7.706-9.934-9.934-11.977a75.714,75.714,0,0,1-5.385-5.849s-.742,2.228,1.3,5.942,6.128,8.17,9.934,14.205S83.5,86.516,83.5,86.516Z"/></svg>