<svg id="word" xmlns="http://www.w3.org/2000/svg" viewBox="0 0 160 160"><defs><style>.cls-1{fill:#719ab9;}.cls-1,.cls-10,.cls-11,.cls-12,.cls-13,.cls-14,.cls-15,.cls-16,.cls-17,.cls-2,.cls-3,.cls-4,.cls-5,.cls-6,.cls-7,.cls-8,.cls-9{stroke:#9c4c9c;stroke-miterlimit:10;stroke-width:0.709px;}.cls-2{fill:#fde0ce;}.cls-3{fill:#fab516;}.cls-4{fill:#11568b;}.cls-5{fill:#ee628e;}.cls-6{fill:#e0b784;}.cls-7{fill:#5a4f4a;}.cls-8{fill:#1b75ba;}.cls-9{fill:#99d3f3;}.cls-10{fill:none;stroke-linecap:round;}.cls-11{fill:#8c88c1;}.cls-12{fill:#ec4283;}.cls-13{fill:#fbed1d;}.cls-14{fill:#652f8e;}.cls-15{fill:#ea2127;}.cls-16{fill:#f05a2a;}.cls-17{fill:#00a2c6;}</style></defs><path class="cls-1" d="M67.907,55.827s7.762-1.172,9.153-2.563,5.784-3.514,5.784-3.514-.732,5.125-2.489,7.688-2.49,7.029-2.49,7.029S75.083,62.2,73.911,61.1,67.907,55.827,67.907,55.827Z"/><path class="cls-2" d="M52.678,39.865s.293,12.008,7.761,15.669S73.911,57,78.3,55.1s8.2-9.372,7.469-14.5S85.48,25.075,80.062,23.9s-19.916,7.469-21.38,8.347S52.678,39.865,52.678,39.865Z"/><path class="cls-3" d="M60.064,54.967s-4.9-13.491-4.165-18.031,4.247-5.418,13.619-8.493c5.428-1.781,10.214-.366,12.7,5.491s3.844,8.421,3.844,8.421.146-13.18-2.636-18.159S74.936,11.6,59.414,16s-15.816,21.38-9.372,30.9S60.064,54.967,60.064,54.967Z"/><path class="cls-4" d="M47.186,41.073,54,39.719l2.782,3.807s-1.464,2.05-2.782,2.05-4.064,1.648-4.064,1.648Z"/><polygon class="cls-4" points="81.233 29.614 84.455 26.686 86.175 33.825 82.258 35.326 81.233 29.614"/><path class="cls-5" d="M99.1,36.936s5.564-9.665,8.932-8.347,2.783,2.929,1.318,5.126-2.489,3.661-2.489,3.661,4.1-1.025,2.489,1.61a9.664,9.664,0,0,1-4.1,3.661l-5.125,1.611S93.68,43.38,99.1,36.936Z"/><path class="cls-6" d="M83.649,82.405a27.287,27.287,0,0,1-7.248-.366c-2.783-.732-7.762-1.464-7.762-1.464s-5.418,1.9-5.418,4.979,2.49,19.33,2.49,19.33l9.518-4.393s-2.2-5.858-1.318-6.883,8.054,1.025,8.054,1.025l5.492-2.782Z"/><path class="cls-7" d="M54,112.5s-.586-6.3,2.635-6.59a12.411,12.411,0,0,1,6.444,1.611l-8.494,4.832Z"/><path class="cls-8" d="M57.23,34.964s-5.1,4.374-2.707,9.061,7.165,4.219,9.235,2.5,3.017-5.232,5.723-5.232,5.514,1.013,9.336-.549,5.96-8.905,2.3-11.4-14.331,1.093-16.878,1.718S57.23,34.964,57.23,34.964Z"/><path class="cls-9" d="M58.169,35.252s-6.176,6.913-.517,9.2,6.367-4.376,10.08-4.376,10.1-.1,12.026-2.473c1.97-2.425,2.864-6.287-1.38-7.619S65.243,31.638,58.169,35.252Z"/><path class="cls-10" d="M68.748,45.448a.675.675,0,0,1,.2-.787,1.646,1.646,0,0,1,.8-.321,6.389,6.389,0,0,1,2.6.074"/><path class="cls-10" d="M66.226,48.548a17.478,17.478,0,0,0,3.891.261,5.87,5.87,0,0,0,3.56-1.425c1.137-1.068,1.634-2.672,2.725-3.786"/><path class="cls-11" d="M78.3,65.492c0-.586,1.318-5.418,2.2-6.443S85.187,47.48,85.187,47.48a4.636,4.636,0,0,0,3.661,0c1.757-.879,1.318-1.318,2.489-2.49s2.343-4.978,3.369-5.711,2.928-2.05,2.928-2.05-1.611,2.2,1.025,5.126,6,1.9,6.151,2.635-1.025,3.076-1.611,4.247-3.954,2.782-4.833,2.929-.146,1.757-.732,3.368-1.9,1.464-3.221,2.343-4.1.879-2.929,3.222,3.661,5.711,3.807,6.15S96.9,71.2,96.9,71.2,86.8,80.136,85.919,81.454s-5.638,1.171-5.638,1.171S72.1,81.332,72.109,81.3c.411-1.242-2.071-7.224-2.152-7.465-.146-.439-1.757,3.075-1.464,5.565s2.2,4.978.586,7.468S65.857,93.169,66,94.34a14.134,14.134,0,0,1,0,2.636s-4.1-2.2-7.029-.586-4.247,3.954-4.394,1.318.586-8.64,2.05-10.25a7.944,7.944,0,0,0,2.2-7.615c-.732-3.954-2.05-7.322-.879-9.958s2.2-5.125,4.394-6.3,4.979-5.565,4.979-5.565Z"/><path class="cls-3" d="M64.246,57.731s-4.393,1.61-5.418,3.953-.732,6.59-.732,6.59S61.61,63.442,63.075,63s5.711.586,6.15-.439-.439-2.489,2.05.439,7.469,4.833,7.469,4.833.732-1.465-.879-4.686-1.464-4.1-3.222-4.54S68.2,58.023,64.246,57.731Z"/><path class="cls-3" d="M78.6,58.17s-1.464.879-1.318,1.9,1.465,7.761,1.465,7.761-.293-5.125,2.489-6.736,5.565-.147,5.126-4.54S82.405,51.434,84.6,49.53a9.23,9.23,0,0,1,4.32-2.2c-2.93-2.15-5.014-3.516-5.784.586-.735,3.915-1.318,6.444-2.2,7.615A30.645,30.645,0,0,1,78.6,58.17Z"/><path class="cls-6" d="M105.4,78.818S100.27,68.713,95,67.981s-10.1-1.171-11.275,4.833-2.27,5.711-.659,9.958,3,9.518,3,9.518Z"/><path class="cls-7" d="M79.769,96.1s-1.318-8.054,3.221-9.225S91.63,89.8,91.63,89.8Z"/><path class="cls-11" d="M98.659,35.984s-1.61,2.563-.659,4.174,4.613,3.807,5.711,3.661,1.831.586,1.392,1.83a3.546,3.546,0,0,1-5.126,1.1C98,45.21,94.266,42.062,94.486,39.5A4.006,4.006,0,0,1,98.659,35.984Z"/><path class="cls-5" d="M58.682,96.024s-1.758,5.2.146,8.713,6.3,5.419,8.054,4.394,2.2-2.2,1.757-3.222-1.171-2.636-1.171-2.636,2.489.586,3.075-.293-2.929-3.661-2.929-3.661L63.953,94.78Z"/><path class="cls-11" d="M54.069,95s-.513,4.1.512,4.686,3.076-1.171,3.588-1.537a4.29,4.29,0,0,1,2.856-1.611,10.851,10.851,0,0,1,5.2.952c.44.366.513-1.9-.219-3.149s-4.76-1.83-6.371-1.464S54.215,93.9,54.069,95Z"/><path class="cls-12" d="M100.549,103.67c-.146-1.214-.728-2.624-1.939-2.8-1.143-.164-2.072.882-2.683,1.862a23.209,23.209,0,0,0-3.332,9.744c2.558-1.323,5.147-2.655,7.58-3.89A13.923,13.923,0,0,0,100.549,103.67Z"/><path class="cls-13" d="M104.231,90.967c-1.275-2.163-3.792-3.761-6.255-3.277-2.537.5-4.216,2.934-5.168,5.338-2.091,5.283-2.017,11.271-4.393,16.433a27.891,27.891,0,0,1-6.965,8.812c3.09-1.6,7.068-3.683,11.145-5.794a23.209,23.209,0,0,1,3.332-9.744c.611-.98,1.54-2.026,2.683-1.862,1.211.173,1.793,1.583,1.939,2.8a13.923,13.923,0,0,1-.374,4.919c1.763-.894,3.439-1.735,4.956-2.482a43.9,43.9,0,0,0,.655-7.863A14.43,14.43,0,0,0,104.231,90.967Z"/><path class="cls-14" d="M77.882,111.065c5.3-4.911,6.941-12.428,7.262-19.768-12.762,8.379-27.582,18.09-36.152,23.636a57.115,57.115,0,0,0,13.3,1.683C67.932,116.518,73.746,114.9,77.882,111.065Z"/><path class="cls-15" d="M52.146,119.682a24.07,24.07,0,0,0-7.008-2.267c-1.683,1.076-2.792,1.771-3.15,1.966-3.222,1.757-2.929,1.9-.733,5.126s14.059,6,17.427,6c1.656,0,5.117-1.949,8.556-4.085a27.6,27.6,0,0,1-4.451-1.317C59.081,123.647,55.736,121.409,52.146,119.682Z"/><path class="cls-16" d="M115.248,72.64c-3.7,1.052-6.338,2.709-6.338,3.029,0,0-10.82,7.127-23.766,15.628-.321,7.34-1.967,14.857-7.262,19.768-4.136,3.838-9.95,5.453-15.591,5.551a57.115,57.115,0,0,1-13.3-1.683c-1.486.961-2.788,1.8-3.854,2.482a24.07,24.07,0,0,1,7.008,2.267c3.59,1.727,6.935,3.965,10.641,5.427a27.6,27.6,0,0,0,4.451,1.317c3.556-2.208,7.088-4.618,8.577-5.288.707-.318,2.8-1.392,5.635-2.865a27.891,27.891,0,0,0,6.965-8.812c2.376-5.162,2.3-11.15,4.393-16.433.952-2.4,2.631-4.839,5.168-5.338,2.463-.484,4.98,1.114,6.255,3.277a14.43,14.43,0,0,1,1.555,7.277,43.9,43.9,0,0,1-.655,7.863c2.1-1.034,3.89-1.882,5.176-2.44A65.477,65.477,0,0,1,115.248,72.64Z"/><path class="cls-13" d="M125.75,72.374a15.356,15.356,0,0,0-2.409-.488,12.418,12.418,0,0,0-2.644,3.152,26.807,26.807,0,0,0-2.687,7.305c-1.544,6.193-2.542,12.778-1.768,19.04,7.44-2.853,18.256-7.465,19.759-12.9C137.905,81.6,133.805,74.717,125.75,72.374Z"/><path class="cls-17" d="M118.01,82.343a26.807,26.807,0,0,1,2.687-7.305,12.418,12.418,0,0,1,2.644-3.152,20.785,20.785,0,0,0-8.093.754,65.477,65.477,0,0,0-4.941,31.027c.35-.151.675-.288.946-.394,1.263-.493,3.008-1.13,4.989-1.89C115.468,95.121,116.466,88.536,118.01,82.343Z"/></svg>