<svg id="word" xmlns="http://www.w3.org/2000/svg" xmlns:xlink="http://www.w3.org/1999/xlink" viewBox="0 0 160 160"><defs><style>.cls-1{fill:none;}.cls-2{clip-path:url(#clip-path);}.cls-3{fill:#8dc6eb;}.cls-4{fill:#fff;}</style><clipPath id="clip-path"><rect class="cls-1" x="14.5" y="13.5" width="132" height="132"/></clipPath></defs><g class="cls-2"><path class="cls-3" d="M-184.917,38.422s30.877,17.714,73.982,9.873,70.608-9.573,86.821-24.974c44.634-42.4,183.426-34.848,183.426-34.848l.611,196.311S48.033,212.662-45.514,156.905-184.917,38.422-184.917,38.422Z"/><path class="cls-4" d="M95.6,80.547l-3.626-5.675L95.4,70.661l3.951,3.475L95.6,80.547ZM92.978,74.93l2.595,4.056,2.742-4.68L95.5,71.83l-2.524,3.1Z"/><polygon class="cls-4" points="99.241 74.76 98.564 74.221 110.057 50.965 110.327 44.47 115.195 39.874 115.468 46.231 111.273 50.69 99.241 74.76"/><path class="cls-4" d="M108.3,55.561l-.134-10.007s.809-7.034-3.922-7.849-4.329,4.872-4.329,4.872-.133-2.3,2.708-1.619,3.242,1.619,4.056,4.734S108.3,55.561,108.3,55.561Z"/><path class="cls-4" d="M106,60.427s.135-4.866-.677-6.352a23.717,23.717,0,0,1-1.486-4.734s2.973,2.3,3.11,4.6A28.831,28.831,0,0,1,106,60.427Z"/><path class="cls-4" d="M105.461,61.242a13.5,13.5,0,0,0-1.354-3.248c-.577-.867-.347-1.423-1.254-2.618-.28-.375-2.025-1.322-2.634-2.893a9.177,9.177,0,0,1,.238-2.465,7.728,7.728,0,0,0,1.18,2.925c1.089,1.708,3.3,1.381,3.3,3.142A47.1,47.1,0,0,0,105.461,61.242Z"/><path class="cls-4" d="M95.454,70.7l-3.925-4.327s2.029-2.025,2.164-3.787-.27-7.166-.27-7.166V45.417s-.677-2.7-1.624-2.433-1.756.407-1.756.407,1.352-3.787,3.38-2.978,2.57,1.894,1.486,5-.4,17.041-.4,17.041l3.785,4.189Z"/><path class="cls-4" d="M84.228,63.537l.362-.4a6.486,6.486,0,0,0,4.049-2.412c1.756-2.3,5-6.627,5-6.627l.317-.418.328.413a29,29,0,0,0,3.85,3.993,12.049,12.049,0,0,0,6.95,2.888l-.066.809a12.972,12.972,0,0,1-7.383-3.062A27.324,27.324,0,0,1,93.978,55c-.857,1.142-3.266,4.347-4.7,6.214a7.151,7.151,0,0,1-4.607,2.724Z"/><path class="cls-4" d="M101.015,69.339a1.547,1.547,0,0,1,.045-.925,20.991,20.991,0,0,0-.06-3.745c-.231-1.825-3.364-3.29-3.383-3.295l1.4.412a3.23,3.23,0,0,1,2.787,2.782,19.594,19.594,0,0,1,.116,2.819,5.635,5.635,0,0,1,2.407-.735c3.464-.4,4.443-.539,4.453-.539l1.137.063a21.327,21.327,0,0,1-5.495,1.28c-1.613.185-2.24.651-2.483,1a.721.721,0,0,0-.077.138c-.029.386-.055.634-.058.666l-.791.074Z"/><polygon class="cls-4" points="107.082 71.65 99.712 72.597 97.548 67.06 98.225 66.61 100.524 71.111 106.577 71.249 106.503 72.058 107.082 71.65"/><path class="cls-4" d="M86.933,49.881s.669-.767,2.7-.54a4.869,4.869,0,0,1,4.191,4.1s-.134-3.026,1.9-3.7a4.261,4.261,0,0,1,3.379.133s.947-1.894-1.756-1.756-3.469,3.041-3.469,3.041-1.619-2.808-4.057-3.348S86.576,48.479,86.933,49.881Z"/><path class="cls-4" d="M109.11,55l7.421-6.712s4.6-5.385,8.415-2.47-.617,6.479-.617,6.479,1.775-1.46-.653-3.084-3.4-1.269-6.23.254S109.11,55,109.11,55Z"/><path class="cls-4" d="M106.505,59.8s3.473-3.412,5.115-3.83a23.365,23.365,0,0,0,4.48-2.136s-3.711-.614-5.488.851A29.058,29.058,0,0,0,106.505,59.8Z"/><path class="cls-4" d="M105.773,60.75a13.217,13.217,0,0,1,3.3-1.222c1.031-.169,1.28-.714,2.771-.867.466-.048,2.349.587,3.914-.037a9.213,9.213,0,0,0,1.645-1.852,7.762,7.762,0,0,1-2.946,1.122c-1.994.37-3.261-1.471-4.549-.27A47.25,47.25,0,0,1,105.773,60.75Z"/><path class="cls-4" d="M96.247,80.071l-6.727.3L87.592,75.3l4.982-1.682,3.673,6.453Zm-6.177-.54,4.813-.211L92.2,74.6,88.649,75.8l1.421,3.734Z"/><polygon class="cls-4" points="93.058 74.03 92.251 74.343 77.857 52.763 72.37 49.278 70.823 42.767 76.461 45.708 78.23 51.568 93.058 74.03"/><path class="cls-4" d="M80.957,56.582,72.224,51.7s-5.685-4.221-8.753-.524,2.052,6.183,2.052,6.183-2.057-1.037-.053-3.157,3.028-2,6.125-1.148S80.957,56.582,80.957,56.582Z"/><path class="cls-4" d="M84.024,61.009s-4.147-2.555-5.841-2.6a23.518,23.518,0,0,1-4.843-1.079s3.478-1.423,5.535-.391A28.7,28.7,0,0,1,84.024,61.009Z"/><path class="cls-4" d="M84.458,61.882a13.511,13.511,0,0,0-3.491-.455c-1.036.068-1.4-.413-2.893-.222-.46.052-2.153,1.094-3.819.835a9.2,9.2,0,0,1-2.02-1.438,7.739,7.739,0,0,0,3.123.439c2.028-.085,2.848-2.164,4.372-1.285A46.421,46.421,0,0,0,84.458,61.882Z"/><path class="cls-4" d="M87.652,75.279l-5.706,1.232s-.746-2.766-2.2-3.766S73.4,69.4,73.4,69.4l-8.669-5s-2.679-.767-2.92.185a17.465,17.465,0,0,1-.526,1.724s-2.6-3.062-.886-4.411,2.925-1.28,5.078,1.211,14.553,8.87,14.553,8.87l5.524-1.179Z"/><path class="cls-4" d="M75.831,81.414l-.166-.513a6.524,6.524,0,0,0-.066-4.713c-1.111-2.67-3.237-7.642-3.237-7.642l-.206-.487.523-.074a29.044,29.044,0,0,0,5.379-1.343,12.032,12.032,0,0,0,5.982-4.575l.664.465A12.978,12.978,0,0,1,78.362,67.4,27.528,27.528,0,0,1,73.314,68.7c.558,1.312,2.131,5,3.033,7.172a7.233,7.233,0,0,1,.061,5.353Z"/><path class="cls-4" d="M89.247,69.778a1.538,1.538,0,0,1-.775-.5,21.378,21.378,0,0,0-3.274-1.82c-1.7-.714-4.535,1.27-4.545,1.285l1.055-1.01a3.235,3.235,0,0,1,3.808-1.021,19.927,19.927,0,0,1,2.5,1.307,5.661,5.661,0,0,1,.566-2.454c1.386-3.2,1.756-4.115,1.761-4.126l.624-.952a21.283,21.283,0,0,1-1.639,5.4c-.646,1.492-.555,2.264-.37,2.656a1.023,1.023,0,0,0,.079.132c.322.222.521.365.545.386l-.331.719Z"/><polygon class="cls-4" points="94.285 65.684 91.421 72.539 85.542 71.64 85.489 70.831 90.538 71.095 93.685 65.917 94.348 66.383 94.285 65.684"/><path class="cls-4" d="M65.356,72.243s-.325-.963.881-2.613a4.887,4.887,0,0,1,5.657-1.576s-2.69-1.4-2.261-3.486a4.245,4.245,0,0,1,1.809-2.861s-1.164-1.767-2.4.645.9,4.517.9,4.517-3.242.006-4.927,1.841S63.963,71.851,65.356,72.243Z"/><path class="cls-4" d="M80.882,55.6l-2.1-9.785s-2.365-6.674,2.068-8.52,5.307,3.776,5.307,3.776-.383-2.269-3-.978-2.8,2.311-2.892,5.521S80.882,55.6,80.882,55.6Z"/><path class="cls-4" d="M83.733,60.252s-1.221-4.712-.764-6.341a23.63,23.63,0,0,0,.394-4.951s-2.388,2.909-2,5.178A28.83,28.83,0,0,0,83.733,60.252Z"/><path class="cls-4" d="M84.188,61.363a13.327,13.327,0,0,1,.593-3.464c.37-.973.018-1.465.634-2.835.191-.423,1.682-1.74,1.923-3.406a9.236,9.236,0,0,0-.783-2.354,7.72,7.72,0,0,1-.5,3.116c-.677,1.914-2.9,2.089-2.51,3.8A47.019,47.019,0,0,1,84.188,61.363Z"/><path class="cls-4" d="M96.5,79.885l-3.1,5.977L88.039,85l1.036-5.152,7.421.042Zm-3.554,5.083,2.221-4.279-5.427-.031L89,84.334l3.941.634Z"/><polygon class="cls-4" points="89.673 79.626 89.541 80.483 63.651 82.154 57.894 85.169 51.478 83.255 56.847 79.838 62.807 81.239 89.673 79.626"/><path class="cls-4" d="M68.512,81.382l-8.6,5.12s-6.494,2.814-4.831,7.315,6.381,1.317,6.381,1.317S59.536,96.4,58.7,93.605s-.216-3.623,2.071-5.881S68.512,81.382,68.512,81.382Z"/><path class="cls-4" d="M73.875,80.938S69.593,83.255,68.71,84.7a23.54,23.54,0,0,1-3.356,3.655s.5-3.729,2.428-4.993A28.748,28.748,0,0,1,73.875,80.938Z"/><path class="cls-4" d="M74.85,81a13.3,13.3,0,0,0-2.134,2.792c-.465.931-1.063,1.01-1.645,2.4-.179.429-.127,2.417-1.184,3.729a9.258,9.258,0,0,1-2.259,1.031,7.765,7.765,0,0,0,1.941-2.491c.942-1.8-.444-3.544,1.079-4.427A46.911,46.911,0,0,0,74.85,81Z"/><path class="cls-4" d="M88.052,84.937,86.264,90.5s-2.771-.745-4.361.021-6.072,3.819-6.072,3.819l-8.668,5s-2,1.941-1.3,2.624a18.026,18.026,0,0,1,1.232,1.322s-3.956.719-4.268-1.444.354-3.168,3.591-3.787S81.38,89.882,81.38,89.882L83.12,84.5Z"/><path class="cls-4" d="M87.457,98.239l-.532-.111a6.5,6.5,0,0,0-4.112-2.3c-2.869-.371-8.238-1.021-8.238-1.021l-.523-.063.193-.487a28.741,28.741,0,0,0,1.528-5.332,12.022,12.022,0,0,0-.97-7.468l.732-.343a12.925,12.925,0,0,1,1.042,7.923,27.248,27.248,0,0,1-1.391,5.03c1.412.169,5.4.65,7.73.957a7.211,7.211,0,0,1,4.665,2.623Z"/><path class="cls-4" d="M84.085,80.8a1.541,1.541,0,0,1-.823.424,20.549,20.549,0,0,0-3.21,1.925c-1.47,1.111-1.169,4.559-1.163,4.575l-.347-1.418A3.234,3.234,0,0,1,79.56,82.5a19.613,19.613,0,0,1,2.38-1.507,5.652,5.652,0,0,1-1.84-1.719c-2.079-2.8-2.687-3.575-2.692-3.586l-.516-1.015a21.169,21.169,0,0,1,3.861,4.12c.965,1.3,1.685,1.613,2.113,1.645a.781.781,0,0,0,.153,0c.352-.17.577-.27.6-.281l.463.645Z"/><polygon class="cls-4" points="83.056 74.39 87.56 80.298 83.844 84.942 83.12 84.582 85.865 80.34 82.958 75.025 83.694 74.692 83.056 74.39"/><path class="cls-4" d="M74.274,102.724s-1-.2-1.822-2.068a4.877,4.877,0,0,1,1.465-5.686s-2.555,1.629-4.155.211a4.253,4.253,0,0,1-1.573-2.993s-2.113.121-.645,2.4,4.368,1.481,4.368,1.481-1.615,2.813-.867,5.188S73.237,103.734,74.274,102.724Z"/><path class="cls-4" d="M67.623,80.954,58.1,77.886s-6.963-1.285-6.347-6.05,5.924-2.708,5.924-2.708-2.158-.8-2.346,2.11.6,3.575,3.335,5.268S67.623,80.954,67.623,80.954Z"/><path class="cls-4" d="M73.081,80.816s-4.7-1.3-5.879-2.512a23.771,23.771,0,0,0-4.088-2.814s1.325,3.523,3.483,4.321A28.973,28.973,0,0,0,73.081,80.816Z"/><path class="cls-4" d="M74.266,80.975a13.293,13.293,0,0,1-2.7-2.248c-.661-.8-1.261-.746-2.136-1.962-.276-.376-.667-2.327-1.992-3.369a9.211,9.211,0,0,0-2.428-.5,7.765,7.765,0,0,1,2.447,1.988c1.317,1.539.359,3.56,2.039,4.073A47.674,47.674,0,0,1,74.266,80.975Z"/><path class="cls-4" d="M95.761,79.563l3.628,5.675-3.427,4.2-3.949-3.475,3.748-6.405Zm2.628,5.622-2.6-4.067L93.05,85.8l2.816,2.475,2.523-3.094Z"/><polygon class="cls-4" points="92.127 85.344 92.804 85.888 81.308 109.15 81.036 115.64 76.167 120.236 75.898 113.878 80.089 109.42 92.127 85.344"/><path class="cls-4" d="M83.064,104.548l.135,10.007s-.809,7.035,3.925,7.844,4.326-4.866,4.326-4.866.138,2.3-2.7,1.624-3.247-1.624-4.056-4.734S83.064,104.548,83.064,104.548Z"/><path class="cls-4" d="M85.365,99.677s-.135,4.871.674,6.358a23.36,23.36,0,0,1,1.489,4.733s-2.975-2.3-3.11-4.6A28.892,28.892,0,0,1,85.365,99.677Z"/><path class="cls-4" d="M85.907,98.873a13.377,13.377,0,0,0,1.349,3.242c.579.868.349,1.423,1.253,2.618.281.371,2.029,1.318,2.634,2.894a9.085,9.085,0,0,1-.232,2.464,7.714,7.714,0,0,0-1.185-2.919c-1.09-1.714-3.3-1.386-3.3-3.147A47.127,47.127,0,0,0,85.907,98.873Z"/><path class="cls-4" d="M95.914,89.4l3.919,4.327s-2.026,2.031-2.163,3.787.27,7.172.27,7.172v10.007s.677,2.7,1.624,2.433,1.758-.408,1.758-.408-1.351,3.787-3.382,2.978-2.571-1.893-1.487-5,.408-17.042.408-17.042l-3.787-4.194Z"/><path class="cls-4" d="M107.138,96.567l-.366.407a6.478,6.478,0,0,0-4.046,2.412c-1.756,2.3-5,6.622-5,6.622l-.318.423-.325-.412a28.931,28.931,0,0,0-3.856-3.988,12.018,12.018,0,0,0-6.95-2.893l.069-.81a12.948,12.948,0,0,1,7.384,3.063,27.314,27.314,0,0,1,3.66,3.718c.851-1.137,3.263-4.348,4.691-6.215a7.2,7.2,0,0,1,4.607-2.724Z"/><path class="cls-4" d="M90.35,90.77a1.536,1.536,0,0,1-.048.921,20.925,20.925,0,0,0,.064,3.744c.227,1.83,3.364,3.3,3.385,3.3l-1.405-.407a3.226,3.226,0,0,1-2.784-2.782,19.354,19.354,0,0,1-.119-2.819,5.635,5.635,0,0,1-2.409.735c-3.465.4-4.443.534-4.454.54l-1.137-.064a21.236,21.236,0,0,1,5.5-1.285c1.611-.185,2.24-.645,2.483-1a.82.82,0,0,0,.077-.132c.029-.392.056-.635.058-.667l.791-.074Z"/><polygon class="cls-4" points="84.283 88.454 91.654 87.507 93.817 93.05 93.14 93.494 90.842 88.993 84.786 88.861 84.86 88.052 84.283 88.454"/><path class="cls-4" d="M104.43,110.229s-.667.767-2.7.539a4.868,4.868,0,0,1-4.192-4.1s.135,3.025-1.891,3.7a4.261,4.261,0,0,1-3.385-.137s-.946,1.893,1.762,1.756,3.464-3.041,3.464-3.041,1.624,2.8,4.056,3.347S104.789,111.63,104.43,110.229Z"/><path class="cls-4" d="M82.252,105.1l-7.42,6.717s-4.6,5.384-8.415,2.47.619-6.485.619-6.485-1.777,1.471.653,3.084,3.4,1.275,6.228-.249S82.252,105.1,82.252,105.1Z"/><path class="cls-4" d="M84.86,100.307s-3.475,3.416-5.115,3.834a23.71,23.71,0,0,0-4.479,2.137s3.707.613,5.484-.857A28.857,28.857,0,0,0,84.86,100.307Z"/><path class="cls-4" d="M85.59,99.36a13.305,13.305,0,0,1-3.3,1.216c-1.026.17-1.278.72-2.772.873-.46.048-2.348-.587-3.911.037a9.27,9.27,0,0,0-1.647,1.857,7.683,7.683,0,0,1,2.945-1.127c2-.37,3.264,1.47,4.549.269A47.6,47.6,0,0,1,85.59,99.36Z"/><path class="cls-4" d="M95.028,79.388l6.73-.3,1.926,5.067L98.7,85.836l-3.673-6.448Zm6.178.534-4.816.217,2.687,4.718,3.549-1.2-1.42-3.735Z"/><polygon class="cls-4" points="98.215 85.428 99.024 85.111 113.421 106.696 118.906 110.176 120.455 116.692 114.814 113.751 113.045 107.886 98.215 85.428"/><path class="cls-4" d="M110.316,102.877l8.738,4.887s5.68,4.221,8.75.524-2.052-6.183-2.052-6.183,2.06,1.031.056,3.152-3.031,2-6.13,1.148S110.316,102.877,110.316,102.877Z"/><path class="cls-4" d="M107.251,98.45s4.149,2.555,5.842,2.592a23.617,23.617,0,0,1,4.845,1.079s-3.481,1.428-5.538.391A28.559,28.559,0,0,1,107.251,98.45Z"/><path class="cls-4" d="M106.82,97.577a13.337,13.337,0,0,0,3.486.45c1.039-.069,1.406.412,2.893.227.462-.058,2.158-1.1,3.821-.841a9.391,9.391,0,0,1,2.021,1.439,7.822,7.822,0,0,0-3.124-.434c-2.028.085-2.851,2.158-4.374,1.28A46.957,46.957,0,0,0,106.82,97.577Z"/><path class="cls-4" d="M103.623,84.175l5.709-1.232s.741,2.771,2.2,3.771,6.341,3.348,6.341,3.348l8.667,5s2.681.767,2.919-.19a17.562,17.562,0,0,1,.529-1.725s2.6,3.068.886,4.417-2.925,1.28-5.077-1.211-14.553-8.876-14.553-8.876l-5.525,1.185Z"/><path class="cls-4" d="M115.441,78.04l.17.513a6.492,6.492,0,0,0,.066,4.712c1.11,2.671,3.234,7.648,3.234,7.648l.209.481-.524.08a28.67,28.67,0,0,0-5.381,1.343,11.984,11.984,0,0,0-5.977,4.575l-.666-.465a12.931,12.931,0,0,1,6.341-4.866,27.664,27.664,0,0,1,5.048-1.312c-.557-1.306-2.128-5-3.033-7.172a7.2,7.2,0,0,1-.058-5.352Z"/><path class="cls-4" d="M102.028,89.676a1.57,1.57,0,0,1,.772.507A21.62,21.62,0,0,0,106.074,92c1.7.72,4.538-1.264,4.549-1.285l-1.055,1.016a3.235,3.235,0,0,1-3.808,1.02,19.607,19.607,0,0,1-2.5-1.306,5.576,5.576,0,0,1-.568,2.449c-1.386,3.2-1.756,4.115-1.759,4.131l-.624.952a21.218,21.218,0,0,1,1.637-5.4c.648-1.491.561-2.269.373-2.654a.985.985,0,0,0-.08-.138c-.322-.217-.52-.36-.544-.381l.33-.724Z"/><polygon class="cls-4" points="96.988 93.775 99.854 86.92 105.733 87.814 105.786 88.623 100.738 88.364 97.591 93.542 96.929 93.071 96.988 93.775"/><path class="cls-4" d="M125.919,87.211s.328.962-.884,2.613a4.874,4.874,0,0,1-5.654,1.576s2.687,1.4,2.262,3.491a4.274,4.274,0,0,1-1.809,2.861s1.166,1.766,2.4-.645-.9-4.522-.9-4.522,3.242,0,4.927-1.841S127.313,87.6,125.919,87.211Z"/><path class="cls-4" d="M110.393,103.861l2.107,9.784s2.365,6.67-2.07,8.521-5.308-3.776-5.308-3.776.384,2.269,3,.973,2.8-2.306,2.9-5.522S110.393,103.861,110.393,103.861Z"/><path class="cls-4" d="M107.542,99.2s1.222,4.718.764,6.347a23.365,23.365,0,0,0-.391,4.945s2.385-2.9,2-5.173A28.936,28.936,0,0,0,107.542,99.2Z"/><path class="cls-4" d="M107.084,98.09a13.36,13.36,0,0,1-.589,3.47c-.368.973-.019,1.465-.632,2.83-.193.428-1.685,1.74-1.926,3.411a9.3,9.3,0,0,0,.783,2.348,7.682,7.682,0,0,1,.5-3.109c.677-1.915,2.9-2.09,2.51-3.8A47.341,47.341,0,0,1,107.084,98.09Z"/><path class="cls-4" d="M95.118,80.187l3.1-5.982,5.352.867-1.031,5.157-7.423-.042ZM98.67,75.1l-2.222,4.279,5.427.027.74-3.671L98.67,75.1Z"/><polygon class="cls-4" points="101.944 80.441 102.073 79.584 127.963 77.913 133.72 74.898 140.136 76.818 134.767 80.229 128.807 78.833 101.944 80.441"/><path class="cls-4" d="M123.105,78.685,131.7,73.57s6.5-2.819,4.834-7.32-6.381-1.317-6.381-1.317,1.922-1.264,2.758,1.534.217,3.618-2.071,5.881S123.105,78.685,123.105,78.685Z"/><path class="cls-4" d="M117.737,79.129s4.284-2.316,5.167-3.76a23.494,23.494,0,0,1,3.353-3.66s-.5,3.728-2.425,5A28.9,28.9,0,0,1,117.737,79.129Z"/><path class="cls-4" d="M116.763,79.071a13.447,13.447,0,0,0,2.137-2.8c.46-.931,1.058-1.01,1.643-2.391.182-.433.126-2.417,1.182-3.728a9.247,9.247,0,0,1,2.258-1.032,7.717,7.717,0,0,0-1.941,2.486c-.939,1.8.447,3.549-1.074,4.427A46.753,46.753,0,0,0,116.763,79.071Z"/><path class="cls-4" d="M103.562,75.136l1.788-5.564s2.771.745,4.361-.016,6.069-3.819,6.069-3.819l8.668-5s2.005-1.936,1.3-2.624a17.344,17.344,0,0,1-1.23-1.322s3.954-.719,4.266,1.444-.354,3.173-3.586,3.787-14.963,8.172-14.963,8.172L108.5,75.564Z"/><path class="cls-4" d="M104.157,61.829l.532.116a6.522,6.522,0,0,0,4.112,2.3c2.869.37,8.237,1.015,8.237,1.015l.524.064-.2.492a29.269,29.269,0,0,0-1.528,5.331,12.03,12.03,0,0,0,.973,7.463l-.735.344a12.971,12.971,0,0,1-1.042-7.923,27.28,27.28,0,0,1,1.391-5.025c-1.412-.174-5.4-.656-7.727-.963a7.189,7.189,0,0,1-4.665-2.623Z"/><path class="cls-4" d="M107.529,79.267a1.537,1.537,0,0,1,.82-.418,21.442,21.442,0,0,0,3.213-1.925c1.47-1.116,1.171-4.565,1.163-4.581l.347,1.418a3.231,3.231,0,0,1-1.021,3.808,18.551,18.551,0,0,1-2.38,1.507,5.66,5.66,0,0,1,1.84,1.719c2.079,2.8,2.687,3.581,2.692,3.586l.516,1.021a21.492,21.492,0,0,1-3.858-4.12c-.968-1.307-1.682-1.619-2.116-1.65a.652.652,0,0,0-.153,0c-.349.169-.577.269-.6.285l-.46-.65Z"/><polygon class="cls-4" points="108.56 85.682 104.051 79.769 107.77 75.125 108.497 75.485 105.746 79.727 108.655 85.042 107.917 85.381 108.56 85.682"/><path class="cls-4" d="M117.337,57.343s1,.2,1.822,2.074A4.878,4.878,0,0,1,117.7,65.1s2.555-1.635,4.154-.212a4.248,4.248,0,0,1,1.571,2.994s2.116-.127.646-2.4S119.7,64,119.7,64s1.618-2.808.87-5.188S118.377,56.333,117.337,57.343Z"/><path class="cls-4" d="M123.991,79.113l9.528,3.068s6.961,1.291,6.347,6.051-5.926,2.708-5.926,2.708,2.158.8,2.345-2.106-.6-3.58-3.332-5.267S123.991,79.113,123.991,79.113Z"/><path class="cls-4" d="M118.535,79.256s4.692,1.3,5.877,2.513a23.5,23.5,0,0,0,4.088,2.808s-1.325-3.517-3.483-4.321A28.849,28.849,0,0,0,118.535,79.256Z"/><path class="cls-4" d="M117.345,79.092a13.423,13.423,0,0,1,2.708,2.248c.656.8,1.259.746,2.137,1.962.27.381.664,2.327,1.989,3.375a9.449,9.449,0,0,0,2.427.5,7.745,7.745,0,0,1-2.448-1.989c-1.317-1.544-.355-3.559-2.037-4.078A46.31,46.31,0,0,1,117.345,79.092Z"/><path class="cls-4" d="M1.494,71.994c.047.672.952.628,1.253,1.206.117.278-.325.232-.276.51a3.029,3.029,0,0,0,.393.049c-.069.112-.393.136-.3.393a1.66,1.66,0,0,0,.463.6c-.093.534-1.371.651-.6,1.3-.184-.048-.3-.3-.488-.233-.209.185.279.792-.254.723-.069-.072-.164-.14-.231-.023-.236.209.183.51-.047.651-.3-.258-.743-.233-.883-.651-.253-.145-.44.209-.6.228-.418.029-.254-.578-.65-.647a1.156,1.156,0,0,1-.928.3c.231-.35-.208-.422-.347-.534.393-.536-.512-.792-.235-1.254-.114.019-.253.136-.322,0,.138-.214.535,0,.484-.4-.066-.165.186-.35,0-.511-.066-.092-.323.049-.276-.14.349-.138.536-.6.764-.925.163-.188.394.161.467-.165-.022-.14-.236-.208-.165-.394.675-.119,1.627.049,2.274-.509A.66.66,0,0,1,1.494,71.994Z"/><path class="cls-4" d="M23.535,107.5c.556-.254.507.554.96.454.05.86,1.215.908.857,1.921.3,1.108-1.11.807-.907,1.92-1.009.1-2.22,1.162-3.385,0-.856-.3.053-1.417-1.059-1.265a1.244,1.244,0,0,0,.509-.856c0-.253-.458-.454-.306-.707.4-.306,1.061-.559.76-1.166.5.253.807-.149.96-.6C22.373,108.206,23.032,106.538,23.535,107.5Z"/><path class="cls-4" d="M7.055,117.694a1.394,1.394,0,0,1-.1,1.462c-.254.406-.8.153-.958.659-.1-.406-.658-.1-.86-.353-.3-.358-.7-.708-.605-1.262.3-.506.657-1.366,1.364-1.213C6.448,116.987,6.7,117.437,7.055,117.694Z"/><path class="cls-4" d="M-.132,92.292c.358-.161.322.354.615.29.032.547.77.578.546,1.221.193.712-.71.519-.579,1.226-.646.064-1.415.744-2.158,0-.549-.192.035-.9-.677-.8a.807.807,0,0,0,.321-.547c0-.161-.286-.293-.193-.454.26-.19.677-.354.485-.743.321.164.515-.094.612-.387C-.87,92.742-.454,91.678-.132,92.292Z"/><path class="cls-4" d="M3.039,83.672c.356-.161.321.354.612.293.033.547.771.58.547,1.222.193.708-.71.515-.581,1.227-.643.063-1.416.739-2.156,0-.545-.2.033-.905-.675-.808a.794.794,0,0,0,.322-.547c0-.161-.291-.29-.192-.45.255-.194.673-.353.48-.744.324.161.519-.092.612-.386C2.3,84.126,2.715,83.061,3.039,83.672Z"/><path class="cls-4" d="M39.539,86.156a.9.9,0,0,1-.061.937c-.163.257-.516.092-.615.417-.062-.257-.417-.063-.546-.224-.193-.226-.45-.45-.385-.808.192-.322.419-.869.869-.772C39.154,85.706,39.315,86,39.539,86.156Z"/><path class="cls-4" d="M10.482,72.666c.047.67.952.622,1.253,1.2.117.281-.323.233-.278.511a3.044,3.044,0,0,0,.395.048c-.069.112-.395.141-.3.394a1.639,1.639,0,0,0,.463.6c-.092.534-1.37.651-.6,1.3-.187-.049-.3-.3-.489-.234-.21.185.278.788-.254.724-.07-.073-.164-.141-.231-.025-.237.209.184.506-.048.648-.3-.253-.743-.23-.882-.648-.257-.141-.441.209-.6.23-.418.023-.257-.58-.651-.647a1.146,1.146,0,0,1-.932.3c.237-.349-.205-.422-.345-.535.4-.534-.51-.792-.231-1.257-.117.028-.254.141-.324,0,.14-.209.533,0,.486-.391-.067-.163.186-.353,0-.513-.067-.094-.324.048-.279-.138.348-.14.533-.607.768-.931.162-.185.4.161.463-.161-.023-.141-.232-.209-.162-.4.677-.113,1.623.048,2.275-.507A.661.661,0,0,1,10.482,72.666Z"/><path class="cls-4" d="M14.9,67.092a.893.893,0,0,1-.065.936c-.16.253-.514.093-.612.414-.064-.258-.415-.061-.546-.224-.191-.222-.448-.451-.385-.8.194-.322.42-.869.867-.776C14.518,66.638,14.679,66.931,14.9,67.092Z"/><path class="cls-4" d="M24.221,79.493c.706.454.61,1.1.545,1.872-.352.257-.613.776-1,.868-.29-.515-1.125.161-1.029-.611-.547.193-.418-.546-.515-.867a1.4,1.4,0,0,1,.515-1.034c.226-.1.482-.1.643-.353C23.639,79.432,23.965,79.851,24.221,79.493Z"/><path class="cls-4" d="M18.214,80.165c.708.45.614,1.1.548,1.873-.353.254-.613.768-1,.869-.292-.515-1.13.161-1.031-.615-.548.2-.419-.547-.517-.869a1.4,1.4,0,0,1,.517-1.028c.223-.1.482-.1.643-.358C17.636,80.1,17.956,80.523,18.214,80.165Z"/><path class="cls-4" d="M21.221,67.516c.353-.161.322.353.615.293.031.543.771.579.542,1.222.2.707-.705.515-.574,1.226-.646.059-1.418.739-2.159,0-.548-.2.034-.9-.677-.808a.791.791,0,0,0,.322-.546c0-.161-.289-.29-.193-.45.259-.194.677-.354.482-.745.323.161.515-.1.615-.385C20.484,67.97,20.9,66.905,21.221,67.516Z"/><path class="cls-4" d="M1.806,22.007c.044.671.951.623,1.253,1.2.116.285-.324.237-.277.515a3.177,3.177,0,0,0,.393.048c-.068.113-.393.136-.3.394a1.685,1.685,0,0,0,.466.6c-.092.534-1.372.651-.6,1.3-.188-.048-.3-.3-.488-.232-.213.184.278.787-.257.723-.07-.072-.16-.141-.231-.024-.234.209.186.507-.046.651-.3-.257-.745-.234-.882-.651-.254-.14-.441.209-.6.229-.418.024-.257-.579-.651-.647a1.152,1.152,0,0,1-.929.3c.234-.35-.208-.423-.35-.534.4-.535-.508-.793-.229-1.254-.117.02-.255.137-.325,0,.138-.213.534,0,.488-.393-.068-.17.185-.354,0-.515-.068-.092-.326.048-.28-.14.346-.138.535-.6.766-.929.164-.185.393.16.463-.162-.022-.14-.231-.209-.161-.393.676-.12,1.625.048,2.275-.515A.685.685,0,0,1,1.806,22.007Z"/><path class="cls-4" d="M35.241,37.873a1.4,1.4,0,0,1-.1,1.463c-.256.406-.807.153-.961.659-.1-.406-.655-.1-.858-.354-.3-.353-.707-.707-.607-1.262.3-.506.655-1.366,1.366-1.214C34.633,37.165,34.883,37.62,35.241,37.873Z"/><path class="cls-4" d="M24.933,41.546c1.11.708.961,1.719.859,2.933-.554.4-.958,1.214-1.563,1.367-.457-.812-1.768.249-1.615-.965-.86.3-.659-.856-.811-1.363a2.195,2.195,0,0,1,.811-1.618c.351-.15.755-.15,1.008-.555C24.025,41.45,24.53,42.1,24.933,41.546Z"/><path class="cls-4" d="M79.758,63.094c.555-.254.5.554.956.454.054.86,1.215.908.86,1.92.305,1.113-1.11.808-.908,1.921-1.009.1-2.221,1.162-3.383,0-.857-.306.052-1.419-1.06-1.266a1.247,1.247,0,0,0,.506-.856c0-.253-.458-.457-.3-.706.4-.306,1.058-.559.756-1.166.5.253.808-.149.958-.607C78.594,63.8,79.252,62.133,79.758,63.094Z"/><path class="cls-4" d="M44.2,71.171a.885.885,0,0,1-.062.932c-.161.261-.517.1-.615.422-.064-.261-.415-.064-.544-.225-.194-.229-.454-.455-.387-.808.193-.321.417-.867.867-.771C43.816,70.721,43.98,71.01,44.2,71.171Z"/><path class="cls-4" d="M36.275,49.254c.707.45.612,1.1.546,1.868-.353.261-.613.775-1,.872-.291-.515-1.129.161-1.03-.611-.549.194-.421-.547-.514-.872a1.376,1.376,0,0,1,.514-1.029c.224-.1.482-.1.644-.354C35.7,49.189,36.018,49.611,36.275,49.254Z"/><path class="cls-4" d="M42.374,56.454c.355-.161.323.354.612.289.034.551.775.58.548,1.227.194.707-.709.514-.579,1.222-.646.063-1.419.739-2.157,0-.546-.194.031-.9-.677-.8a.788.788,0,0,0,.323-.546c0-.161-.289-.291-.192-.455.254-.189.673-.353.484-.74.319.161.513-.1.608-.385C41.635,56.9,42.052,55.843,42.374,56.454Z"/><path class="cls-4" d="M31.005,39.958a.885.885,0,0,1-.066.933c-.16.257-.514.1-.609.417-.066-.257-.421-.063-.55-.224-.19-.222-.447-.45-.388-.8.2-.322.422-.873.872-.776C30.618,39.5,30.779,39.8,31.005,39.958Z"/><path class="cls-4" d="M31.386,49.425c.71.451.613,1.1.549,1.87-.354.257-.615.772-1,.872-.289-.519-1.128.161-1.03-.615-.547.193-.415-.551-.516-.869a1.419,1.419,0,0,1,.516-1.032c.227-.1.483-.1.642-.353C30.808,49.362,31.129,49.779,31.386,49.425Z"/><path class="cls-4" d="M28.813,59.705c.353-.16.323.354.609.29.034.551.776.579.549,1.225.2.708-.709.515-.579,1.223-.643.067-1.417.743-2.157,0-.55-.193.033-.9-.678-.8a.8.8,0,0,0,.326-.546c0-.162-.292-.294-.2-.455.261-.19.679-.353.484-.74.323.161.517-.1.613-.385C28.071,60.155,28.492,59.1,28.813,59.705Z"/><path class="cls-4" d="M37.171,63.535a.888.888,0,0,1-.066.936c-.161.254-.512.1-.608.419-.066-.258-.418-.069-.546-.226-.2-.224-.454-.454-.391-.806.194-.323.418-.869.871-.773C36.783,63.085,36.944,63.374,37.171,63.535Z"/><path class="cls-4" d="M43.309,93.353c.047.672.952.628,1.256,1.206.115.28-.326.232-.28.514a2.854,2.854,0,0,0,.4.044c-.07.117-.4.141-.3.4a1.775,1.775,0,0,0,.466.6c-.092.53-1.367.647-.6,1.3-.189-.048-.3-.3-.489-.233-.209.185.28.792-.254.723-.07-.072-.165-.141-.231-.024-.235.21.184.511-.048.652-.3-.254-.743-.235-.882-.652-.257-.14-.441.21-.6.229-.418.029-.257-.578-.65-.647a1.136,1.136,0,0,1-.928.3c.231-.349-.21-.418-.347-.534.393-.535-.513-.791-.234-1.253-.115.023-.254.14-.324,0,.14-.21.533,0,.489-.394-.074-.165.184-.35,0-.511-.074-.1-.327.044-.28-.14.349-.142.533-.607.764-.933.163-.185.4.165.464-.161-.021-.136-.231-.208-.161-.394.675-.115,1.627.048,2.275-.51A.676.676,0,0,1,43.309,93.353Z"/><path class="cls-4" d="M63.273,73.288a1.383,1.383,0,0,1-.1,1.463c-.252.4-.806.153-.959.659-.1-.406-.657-.1-.858-.353-.3-.358-.707-.708-.6-1.263.3-.506.654-1.365,1.363-1.212C62.667,72.582,62.92,73.032,63.273,73.288Z"/><path class="cls-4" d="M51.888,39.729c1.112.708.96,1.721.859,2.933-.555.4-.962,1.214-1.564,1.363-.458-.808-1.77.253-1.619-.961-.856.3-.656-.856-.807-1.361a2.211,2.211,0,0,1,.807-1.62c.358-.148.759-.148,1.012-.554C50.978,39.633,51.483,40.288,51.888,39.729Z"/><path class="cls-4" d="M48.691,7.649c.555-.249.506.559.961.454.052.861,1.213.913.857,1.924.3,1.11-1.114.8-.909,1.922-1.008.1-2.221,1.157-3.381,0-.859-.31.05-1.419-1.06-1.266a1.259,1.259,0,0,0,.506-.861c0-.249-.458-.454-.3-.706.4-.3,1.061-.554.759-1.161.5.253.808-.149.96-.607C47.531,8.361,48.186,6.693,48.691,7.649Z"/><path class="cls-4" d="M54.917,58.97c.711.45.612,1.093.55,1.865-.358.258-.615.775-1,.871-.289-.513-1.125.161-1.03-.613-.546.2-.42-.547-.514-.869a1.418,1.418,0,0,1,.514-1.032c.227-.094.486-.094.645-.35C54.338,58.906,54.66,59.324,54.917,58.97Z"/><path class="cls-4" d="M56.087,47.887c.358-.161.324.354.616.289.031.546.772.579.545,1.222.2.712-.708.519-.577,1.229-.646.061-1.417.741-2.157,0-.548-.2.032-.907-.677-.806a.806.806,0,0,0,.321-.548c0-.16-.289-.293-.192-.454.258-.189.676-.353.485-.739.321.161.517-.1.61-.386C55.35,48.337,55.771,47.272,56.087,47.887Z"/><path class="cls-4" d="M48.6,33.653c.708.45.612,1.093.546,1.869-.354.257-.614.771-1,.867-.291-.517-1.125.161-1.031-.61-.544.193-.419-.55-.514-.872a1.406,1.406,0,0,1,.514-1.032c.227-.094.485-.094.644-.354C48.015,33.588,48.339,34.007,48.6,33.653Z"/><path class="cls-4" d="M59.26,39.267c.355-.161.321.358.611.293.033.547.773.58.547,1.222.193.712-.708.515-.577,1.225-.647.065-1.416.741-2.16,0-.547-.192.035-.9-.676-.808a.79.79,0,0,0,.323-.546c0-.16-.289-.289-.194-.45.259-.193.678-.354.484-.743.323.165.516-.093.612-.386C58.519,39.721,58.938,38.656,59.26,39.267Z"/><path class="cls-4" d="M28.177,76.335s2.618-2.512.918-3.324S26.1,75.31,28.177,76.335Z"/><path class="cls-4" d="M46.208,78.73a1.392,1.392,0,0,1-.1,1.463c-.253.4-.807.149-.96.659-.1-.406-.658-.105-.856-.354-.3-.357-.707-.711-.607-1.266.3-.5.656-1.367,1.363-1.214C45.6,78.018,45.853,78.477,46.208,78.73Z"/><path class="cls-4" d="M15.349,56.134c.555-.25.506.557.96.457.048.86,1.213.908.856,1.921.3,1.109-1.112.808-.907,1.921-1.012.1-2.221,1.162-3.383,0-.86-.3.052-1.419-1.06-1.266a1.247,1.247,0,0,0,.5-.86c0-.249-.453-.454-.3-.7.4-.306,1.064-.559.76-1.165.5.252.807-.153.958-.607C14.189,56.844,14.845,55.177,15.349,56.134Z"/><path class="cls-4" d="M35.358,32.893a.893.893,0,0,1-.062.934c-.161.26-.516.1-.613.421-.064-.258-.417-.065-.546-.225-.194-.225-.45-.45-.388-.8.194-.327.421-.873.87-.777C34.974,32.443,35.135,32.732,35.358,32.893Z"/><path class="cls-4" d="M24.475,25.862c.708.453.612,1.1.549,1.872-.357.257-.614.772-1,.868-.292-.515-1.126.161-1.03-.611-.546.193-.42-.546-.516-.869A1.408,1.408,0,0,1,23,26.09c.223-.1.484-.1.645-.354C23.9,25.8,24.218,26.218,24.475,25.862Z"/><path class="cls-4" d="M26.593,22.453a.886.886,0,0,1-.066.937c-.158.253-.513.1-.612.417-.062-.26-.418-.068-.545-.228-.19-.225-.45-.446-.385-.8.2-.322.415-.873.868-.772C26.206,22,26.369,22.293,26.593,22.453Z"/><path class="cls-4" d="M16.554,31.35c.711.451.613,1.1.55,1.87-.353.257-.614.77-1,.867-.292-.514-1.127.165-1.03-.61-.548.193-.417-.547-.517-.869a1.411,1.411,0,0,1,.517-1.032c.225-.1.482-.1.642-.354C15.978,31.286,16.3,31.7,16.554,31.35Z"/><path class="cls-4" d="M21.627,30.482c.352-.161.32.354.609.29.034.547.775.578.548,1.225.2.708-.708.515-.577,1.223-.644.063-1.421.743-2.157,0-.55-.19.029-.9-.676-.8a.8.8,0,0,0,.322-.547c0-.161-.291-.29-.2-.45.256-.192.678-.353.483-.744.323.161.516-.1.615-.386C20.882,30.932,21.305,29.872,21.627,30.482Z"/><path class="cls-4" d="M50.58,66.565c.71.451.612,1.1.551,1.865-.358.257-.614.776-1,.872-.291-.515-1.126.165-1.034-.615-.545.2-.416-.542-.515-.864A1.414,1.414,0,0,1,49.1,66.79c.229-.1.487-.1.645-.353C50,66.5,50.325,66.918,50.58,66.565Z"/><path class="cls-4" d="M36.136,26.331c1.113.37,2.629-1.84,1.051-2.631S33.769,25.54,36.136,26.331Z"/><path class="cls-4" d="M66.705,28.261c.047.67.952.622,1.252,1.205.118.277-.326.233-.278.51.139,0,.278.073.4.048-.07.113-.4.141-.3.395a1.766,1.766,0,0,0,.465.6c-.095.534-1.37.651-.605,1.3-.185-.049-.3-.3-.486-.234-.209.185.277.788-.256.723-.07-.072-.162-.14-.229-.028-.236.213.181.514-.048.651-.3-.254-.745-.229-.882-.651-.26-.137-.444.213-.605.234-.417.023-.255-.58-.651-.647a1.154,1.154,0,0,1-.93.3c.236-.349-.206-.422-.346-.535.4-.534-.509-.792-.231-1.254-.117.025-.256.138-.323,0,.136-.212.532,0,.485-.4-.071-.161.184-.349,0-.51-.071-.093-.325.048-.279-.137.348-.14.535-.607.763-.931.167-.186.4.161.468-.166-.025-.136-.233-.209-.165-.393.675-.113,1.624.048,2.277-.507A.667.667,0,0,1,66.705,28.261Z"/><path class="cls-4" d="M28.638,18.009a.893.893,0,0,1-.065.936c-.161.253-.514.093-.612.414-.063-.258-.418-.065-.547-.225-.193-.221-.448-.45-.389-.8.2-.322.423-.869.873-.772C28.252,17.559,28.412,17.848,28.638,18.009Z"/><path class="cls-4" d="M26.657,14.055c.707.45.613,1.1.546,1.873-.354.253-.612.77-1,.867-.291-.518-1.126.161-1.03-.614-.549.2-.419-.548-.514-.868a1.4,1.4,0,0,1,.514-1.034c.224-.1.482-.1.647-.35C26.077,13.99,26.4,14.412,26.657,14.055Z"/><path class="cls-4" d="M31.551,13.311c.353-.161.322.354.615.289.027.551.77.582.543,1.227.193.7-.707.513-.578,1.22-.645.065-1.418.74-2.156,0-.546-.192.032-.9-.675-.8a.789.789,0,0,0,.321-.551c0-.161-.291-.285-.192-.45.257-.193.672-.354.48-.739.32.161.516-.1.612-.385C30.81,13.761,31.228,12.7,31.551,13.311Z"/><path class="cls-4" d="M60.089,10.744a.892.892,0,0,1-.062.936c-.162.253-.516.092-.615.414-.061-.257-.416-.065-.547-.226-.188-.224-.446-.45-.384-.8.2-.322.418-.868.87-.776C59.707,10.29,59.865,10.583,60.089,10.744Z"/><path class="cls-4" d="M31.076,22.787c.71.454.614,1.1.549,1.872-.353.253-.612.772-1,.868-.288-.519-1.126.161-1.028-.615-.548.194-.42-.546-.518-.867a1.414,1.414,0,0,1,.518-1.034c.225-.092.482-.092.643-.353C30.5,22.723,30.822,23.141,31.076,22.787Z"/><path class="cls-4" d="M43.364,14.584a.9.9,0,0,1-.063.938c-.163.257-.516.1-.614.417-.067-.256-.416-.064-.546-.225-.2-.225-.452-.45-.388-.808.193-.322.417-.868.867-.772C42.977,14.134,43.138,14.429,43.364,14.584Z"/><path class="cls-4" d="M41.382,19.845c.708.451.612,1.094.547,1.869-.357.257-.612.772-1,.868-.29-.519-1.129.165-1.03-.611-.546.193-.419-.551-.514-.871a1.4,1.4,0,0,1,.514-1.03c.224-.1.482-.1.642-.353C40.8,19.781,41.126,20.2,41.382,19.845Z"/><path class="cls-4" d="M3.1,32.573c1.109.707.956,1.715.859,2.933-.557.4-.962,1.209-1.568,1.362-.454-.808-1.766.253-1.615-.961-.86.306-.659-.86-.807-1.366a2.185,2.185,0,0,1,.807-1.615c.353-.152.759-.152,1.008-.554C2.186,32.472,2.689,33.131,3.1,32.573Z"/><path class="cls-4" d="M46.413,22.116c.707.449.613,1.092.546,1.864-.353.258-.612.773-1,.869-.284-.511-1.126.164-1.026-.611-.546.2-.419-.547-.517-.869a1.408,1.408,0,0,1,.517-1.028c.226-.1.483-.1.644-.358C45.831,22.048,46.156,22.469,46.413,22.116Z"/><path class="cls-4" d="M51.305,21.368c.359-.161.325.354.614.289.034.547.775.584.548,1.226.193.708-.709.515-.579,1.223-.643.063-1.419.743-2.158,0-.547-.194.032-.9-.676-.8a.8.8,0,0,0,.322-.548c0-.16-.291-.293-.193-.454.256-.193.678-.35.486-.739.32.161.511-.1.61-.386C50.568,21.818,50.987,20.757,51.305,21.368Z"/><path class="cls-4" d="M50.761,19.616a.9.9,0,0,1-.062.936c-.163.257-.519.1-.615.418-.066-.257-.415-.064-.546-.228-.195-.222-.453-.446-.388-.8.193-.326.42-.872.868-.776C50.375,19.166,50.536,19.455,50.761,19.616Z"/><path class="cls-4" d="M21.69,1.878c.047.672.952.627,1.253,1.206.117.281-.324.233-.277.515a2.551,2.551,0,0,0,.394.044c-.071.115-.394.14-.3.4a1.751,1.751,0,0,0,.462.6c-.09.534-1.369.651-.6,1.3-.187-.048-.3-.3-.486-.234-.209.186.276.793-.258.724-.068-.073-.16-.144-.231-.027-.234.212.185.509-.048.651-.3-.254-.741-.234-.881-.651-.256-.142-.442.212-.6.232-.418.024-.256-.582-.653-.651a1.12,1.12,0,0,1-.927.3c.235-.346-.209-.419-.348-.532.4-.538-.508-.791-.231-1.256-.116.023-.255.14-.323,0,.137-.209.535,0,.484-.4-.07-.164.187-.35,0-.509-.07-.094-.323.044-.277-.142.347-.14.534-.6.764-.928.166-.188.394.165.465-.165-.022-.136-.232-.209-.163-.393.674-.113,1.626.048,2.278-.511A.685.685,0,0,1,21.69,1.878Z"/><path class="cls-4" d="M15.442,17.4a1.393,1.393,0,0,1-.1,1.463c-.253.406-.807.153-.957.659-.1-.406-.659-.105-.862-.354-.3-.358-.7-.711-.607-1.266.3-.5.657-1.363,1.366-1.214C14.835,16.69,15.088,17.148,15.442,17.4Z"/><path class="cls-4" d="M19.121,21.718c.712.454.613,1.1.547,1.873-.351.257-.612.771-1,.867-.291-.513-1.128.161-1.03-.61-.546.193-.418-.546-.516-.868a1.4,1.4,0,0,1,.516-1.032c.226-.1.483-.1.645-.354C18.541,21.657,18.868,22.076,19.121,21.718Z"/><path class="cls-4" d="M55.671,107.776c.048.672.951.628,1.253,1.206.116.282-.324.234-.278.514a2.857,2.857,0,0,0,.394.044c-.071.113-.394.141-.3.394a1.7,1.7,0,0,0,.464.607c-.092.531-1.37.651-.6,1.3-.188-.044-.3-.3-.488-.233-.209.189.277.788-.257.724-.067-.073-.161-.142-.228-.025-.234.21.184.511-.048.651-.3-.257-.743-.232-.882-.651-.257-.14-.442.21-.607.229-.415.029-.251-.578-.649-.647a1.149,1.149,0,0,1-.927.3c.231-.349-.209-.417-.349-.534.4-.534-.508-.791-.23-1.253-.115.02-.256.14-.324,0,.139-.21.533,0,.485-.394-.07-.165.186-.354,0-.511-.07-.1-.325.044-.276-.14.345-.14.532-.607.762-.929.163-.188.4.157.466-.164-.024-.137-.233-.209-.163-.4.676-.115,1.623.05,2.275-.509A.667.667,0,0,1,55.671,107.776Z"/><path class="cls-4" d="M64.949,145.559a1.394,1.394,0,0,1-.1,1.463c-.253.4-.809.149-.962.654-.1-.4-.654-.1-.855-.353-.3-.353-.707-.707-.607-1.262.3-.5.655-1.362,1.365-1.213C64.339,144.848,64.593,145.3,64.949,145.559Z"/><path class="cls-4" d="M13.747,100.715c1.113.707.96,1.72.86,2.934-.557.4-.963,1.21-1.565,1.363-.456-.808-1.771.253-1.617-.961-.859.3-.654-.856-.807-1.367a2.191,2.191,0,0,1,.807-1.615c.354-.153.758-.153,1.011-.555C12.839,100.619,13.343,101.27,13.747,100.715Z"/><path class="cls-4" d="M68.023,54.217c.557-.249.506.559.958.459.05.86,1.214.9.86,1.921.3,1.108-1.113.8-.908,1.92-1.012.1-2.221,1.158-3.386,0-.857-.306.053-1.419-1.057-1.266a1.254,1.254,0,0,0,.5-.855c0-.257-.454-.458-.3-.711.4-.3,1.061-.555.76-1.162.5.253.8-.153.955-.607C66.861,54.925,67.519,53.261,68.023,54.217Z"/><path class="cls-4" d="M65.983,156.936c.708.454.612,1.1.547,1.871-.354.258-.614.772-1,.873-.291-.519-1.129.161-1.03-.615-.55.192-.422-.547-.517-.867a1.388,1.388,0,0,1,.517-1.034c.223-.1.481-.1.642-.354C65.4,156.871,65.726,157.293,65.983,156.936Z"/><path class="cls-4" d="M60.714,147.64a.891.891,0,0,1-.066.933c-.161.26-.517.1-.611.417-.066-.257-.422-.063-.55-.224-.191-.222-.448-.45-.385-.8.194-.322.421-.873.869-.772C60.326,147.19,60.487,147.479,60.714,147.64Z"/><path class="cls-4" d="M25.637,123.513c.353-.157.322.353.611.294.034.546.773.578.548,1.22.194.712-.708.519-.58,1.227-.645.064-1.415.739-2.157,0-.548-.193.032-.905-.676-.8a.8.8,0,0,0,.32-.551c0-.161-.286-.289-.192-.45.26-.192.679-.353.486-.739.321.156.515-.1.608-.387C24.894,123.966,25.317,122.9,25.637,123.513Z"/><path class="cls-4" d="M51.382,157.185c.048.675.951.627,1.254,1.209.114.277-.324.233-.279.511a3.1,3.1,0,0,0,.393.048c-.067.113-.393.136-.3.394a1.689,1.689,0,0,0,.466.6c-.092.534-1.371.651-.6,1.3-.188-.043-.3-.3-.489-.232-.209.189.281.791-.256.722-.07-.071-.162-.14-.232-.023-.231.209.187.511-.045.651-.3-.253-.744-.234-.882-.651-.256-.142-.44.209-.6.229-.419.028-.258-.579-.654-.643a1.145,1.145,0,0,1-.927.3c.233-.35-.207-.414-.348-.53.394-.535-.511-.793-.235-1.258-.113.024-.253.141-.323,0,.139-.209.536,0,.488-.393-.07-.166.189-.35,0-.511-.07-.092-.324.048-.278-.14.348-.138.535-.6.764-.929.165-.185.4.165.466-.165-.021-.137-.231-.208-.162-.39.672-.12,1.625.044,2.274-.515A.671.671,0,0,1,51.382,157.185Z"/><path class="cls-4" d="M82.405,92.976c.554-.253.5.555.958.454.053.856,1.212.908.859,1.92.305,1.113-1.114.808-.907,1.921-1.011.1-2.224,1.158-3.383,0-.86-.305.048-1.415-1.061-1.262a1.259,1.259,0,0,0,.5-.86c0-.253-.453-.454-.3-.711.4-.3,1.061-.551.757-1.161.506.254.808-.148.96-.6C81.24,93.683,81.9,92.015,82.405,92.976Z"/><path class="cls-4" d="M83.292,153.282c.356-.161.323.354.614.289.032.551.773.584.544,1.226.2.708-.706.515-.578,1.225-.642.061-1.415.741-2.157,0-.546-.2.032-.9-.675-.808a.789.789,0,0,0,.322-.546c0-.16-.289-.293-.193-.454.255-.189.677-.353.482-.739.322.161.517-.1.613-.386C82.553,153.732,82.971,152.667,83.292,153.282Z"/><path class="cls-4" d="M81.132,140.355c.711.45.615,1.093.55,1.869-.355.257-.615.771-1,.867-.29-.513-1.126.161-1.03-.61-.546.193-.42-.55-.514-.872a1.388,1.388,0,0,1,.514-1.03c.224-.1.481-.1.644-.356C80.556,140.29,80.879,140.705,81.132,140.355Z"/><path class="cls-4" d="M14.136,86.622c.354-.16.322.353.612.294.033.542.773.578.546,1.225.194.7-.708.515-.577,1.222-.645.063-1.418.739-2.16,0-.544-.2.035-.9-.674-.808a.788.788,0,0,0,.322-.546c0-.161-.29-.289-.192-.45.256-.193.678-.354.481-.743.325.159.516-.1.611-.383C13.4,87.076,13.814,86.012,14.136,86.622Z"/><path class="cls-4" d="M61.691,136.546a.892.892,0,0,1-.065.936c-.16.257-.515.1-.612.418-.064-.257-.418-.064-.546-.224-.192-.226-.452-.45-.387-.8.2-.326.418-.872.869-.776C61.305,136.1,61.466,136.385,61.691,136.546Z"/><path class="cls-4" d="M14.343,128.906c.709.45.613,1.1.548,1.873-.353.256-.612.767-.995.867-.292-.518-1.13.161-1.033-.611-.548.19-.417-.551-.516-.871a1.4,1.4,0,0,1,.516-1.03c.225-.1.482-.1.643-.358C13.765,128.841,14.087,129.259,14.343,128.906Z"/><path class="cls-4" d="M56.3,130.135a.892.892,0,0,1-.065.937c-.161.253-.516.1-.612.417-.065-.26-.418-.063-.546-.228-.193-.222-.45-.446-.385-.8.192-.322.416-.869.866-.772C55.914,129.685,56.075,129.975,56.3,130.135Z"/><path class="cls-4" d="M46.263,139.033c.711.454.615,1.1.548,1.873-.351.252-.613.766-1,.867-.288-.518-1.126.161-1.03-.615-.548.194-.418-.547-.516-.867a1.414,1.414,0,0,1,.516-1.034c.227-.092.484-.092.644-.354C45.687,138.972,46.007,139.386,46.263,139.033Z"/><path class="cls-4" d="M67.31,68.546c.553-.253.506.559.959.455.048.86,1.213.912.858,1.925.3,1.108-1.113.8-.909,1.916-1.008.1-2.221,1.162-3.382,0-.86-.306.051-1.414-1.058-1.262a1.259,1.259,0,0,0,.5-.859c0-.253-.456-.454-.306-.707.405-.3,1.062-.559.759-1.166.5.257.805-.149.958-.6C66.147,69.254,66.8,67.586,67.31,68.546Z"/><path class="cls-4" d="M58.346,125.691a.894.894,0,0,1-.066.936c-.163.257-.513.1-.612.418-.065-.257-.419-.065-.546-.224-.193-.226-.45-.45-.388-.8.2-.326.419-.873.869-.776C57.959,125.241,58.117,125.53,58.346,125.691Z"/><path class="cls-4" d="M56.362,121.741c.71.45.615,1.092.55,1.869-.357.253-.611.77-1,.867-.29-.514-1.128.161-1.029-.614-.549.2-.421-.544-.518-.868a1.4,1.4,0,0,1,.518-1.03c.224-.1.479-.1.642-.354C55.785,121.676,56.105,122.094,56.362,121.741Z"/><path class="cls-4" d="M38.07,107.7c.356-.161.322.358.615.289.03.55.772.582.546,1.226.191.707-.711.513-.58,1.225-.644.065-1.416.739-2.154,0-.549-.2.031-.9-.677-.8a.808.808,0,0,0,.319-.55c0-.161-.289-.289-.191-.45.257-.193.675-.354.483-.739.323.161.513-.1.612-.39C37.332,108.158,37.75,107.093,38.07,107.7Z"/><path class="cls-4" d="M92.413,124.851a.9.9,0,0,1-.063.936c-.165.257-.52.1-.614.418-.067-.261-.42-.064-.548-.225-.193-.225-.45-.454-.388-.808.2-.321.422-.867.869-.775C92.025,124.4,92.185,124.69,92.413,124.851Z"/><path class="cls-4" d="M72.262,85.521c.354-.156.323.353.612.294.031.546.772.578.548,1.225.193.707-.709.515-.579,1.222-.645.063-1.415.739-2.156,0-.55-.2.031-.9-.674-.8a.822.822,0,0,0,.316-.55c0-.161-.287-.291-.192-.45.261-.193.679-.354.484-.743.322.159.516-.1.612-.383C71.522,85.975,71.94,84.911,72.262,85.521Z"/><path class="cls-4" d="M73.073,122.271a.887.887,0,0,1-.067.933c-.16.257-.516.1-.61.417-.067-.258-.418-.064-.549-.225-.192-.221-.449-.45-.387-.8.2-.322.419-.873.869-.777C72.685,121.816,72.846,122.11,73.073,122.271Z"/><path class="cls-4" d="M71.088,127.527c.709.45.612,1.1.549,1.869-.356.257-.611.776-1,.872-.292-.519-1.128.161-1.031-.615-.547.193-.416-.546-.515-.868a1.42,1.42,0,0,1,.515-1.033c.226-.1.483-.1.645-.353C70.511,127.463,70.834,127.88,71.088,127.527Z"/><path class="cls-4" d="M89.083,111.779c1.113.706.96,1.719.857,2.933-.554.4-.957,1.21-1.563,1.362-.456-.807-1.768.254-1.615-.96-.86.3-.659-.86-.809-1.363a2.184,2.184,0,0,1,.809-1.618c.353-.153.755-.153,1.008-.555C88.176,111.679,88.68,112.336,89.083,111.779Z"/><path class="cls-4" d="M76.122,129.8c.707.45.609,1.092.546,1.869-.353.257-.613.77-1,.868-.289-.515-1.126.16-1.027-.611-.546.193-.422-.551-.517-.873a1.4,1.4,0,0,1,.517-1.028c.224-.1.484-.1.644-.358C75.54,129.733,75.865,130.151,76.122,129.8Z"/><path class="cls-4" d="M80.47,127.3a.894.894,0,0,1-.065.932c-.162.257-.516.1-.615.419-.063-.258-.419-.061-.543-.226-.195-.225-.453-.45-.388-.8.193-.321.418-.871.868-.775C80.085,126.848,80.243,127.141,80.47,127.3Z"/><path class="cls-4" d="M3.546,44.805c.05.671.955.626,1.253,1.206.12.281-.323.232-.275.513.139,0,.275.069.395.044-.072.117-.395.142-.3.4a1.76,1.76,0,0,0,.463.6c-.092.535-1.367.651-.6,1.3-.186-.052-.3-.3-.486-.233-.21.181.279.787-.258.72-.069-.073-.161-.14-.23-.025-.232.209.183.511-.048.651-.3-.257-.743-.232-.883-.651-.253-.14-.437.209-.6.234-.418.024-.254-.583-.649-.651a1.144,1.144,0,0,1-.928.3c.232-.347-.208-.419-.348-.536.393-.534-.51-.791-.232-1.254-.116.025-.256.141-.325,0,.138-.209.532,0,.484-.393-.066-.165.19-.35,0-.511-.066-.092-.323.044-.275-.14.348-.141.535-.6.765-.928.163-.19.4.16.465-.165C.9,45.155.691,45.082.764,44.9c.671-.117,1.623.045,2.273-.51A.675.675,0,0,1,3.546,44.805Z"/><path class="cls-4" d="M45.151,125.084a1.4,1.4,0,0,1-.1,1.467c-.254.4-.809.149-.961.655-.1-.406-.658-.1-.86-.354-.3-.353-.7-.707-.6-1.262.3-.506.655-1.366,1.366-1.218C44.544,124.372,44.8,124.83,45.151,125.084Z"/><path class="cls-4" d="M48.828,129.4c.71.45.614,1.1.548,1.869-.35.257-.611.771-1,.871-.29-.517-1.128.161-1.032-.614-.544.2-.416-.547-.515-.868a1.41,1.41,0,0,1,.515-1.032c.229-.1.484-.1.645-.354C48.251,129.343,48.572,129.758,48.828,129.4Z"/><path class="cls-4" d="M43.541,60.674c.556-.253.506.555.96.454.051.856,1.213.9.859,1.922.3,1.109-1.113.8-.908,1.915-1.012.1-2.221,1.162-3.386,0-.857-.3.055-1.413-1.057-1.26a1.257,1.257,0,0,0,.505-.856c0-.258-.455-.459-.3-.712.4-.3,1.062-.555.759-1.166.5.258.807-.148.96-.6C42.379,61.377,43.038,59.713,43.541,60.674Z"/><path class="cls-4" d="M41.777,113.02c.554-.253.506.555.96.455.051.856,1.213.908.855,1.92.307,1.109-1.108.8-.905,1.917-1.011.1-2.224,1.161-3.383,0-.86-.3.052-1.411-1.061-1.262a1.249,1.249,0,0,0,.507-.856c0-.252-.457-.457-.306-.711.407-.3,1.062-.554.759-1.161.5.253.806-.149.958-.6C40.615,113.728,41.273,112.06,41.777,113.02Z"/><path class="cls-4" d="M62.818,95.479c.555-.249.5.559.96.459.05.859,1.208.907.857,1.92.3,1.109-1.113.8-.908,1.917-1.012.1-2.222,1.166-3.384,0-.859-.3.052-1.415-1.059-1.262a1.256,1.256,0,0,0,.5-.86c0-.249-.453-.455-.3-.708.406-.3,1.064-.553.762-1.16.5.253.8-.153.955-.607C61.658,96.191,62.314,94.519,62.818,95.479Z"/><path class="cls-4" d="M15.673,150.183a.9.9,0,0,1-.062.934c-.161.253-.517.1-.614.414-.066-.258-.417-.061-.546-.222-.194-.225-.451-.45-.386-.8.192-.322.416-.872.866-.776C15.287,149.729,15.45,150.02,15.673,150.183Z"/><path class="cls-4" d="M5.639,159.081c.707.45.608,1.093.546,1.865-.356.257-.614.771-1,.871-.288-.517-1.125.161-1.03-.614-.548.2-.418-.546-.514-.868a1.392,1.392,0,0,1,.514-1.032c.227-.094.484-.094.644-.354C5.056,159.012,5.382,159.431,5.639,159.081Z"/><path class="cls-4" d="M31.474,85.977c.553-.253.5.555.96.455.049.86,1.212.912.854,1.921.305,1.113-1.107.808-.906,1.92-1.009.1-2.22,1.161-3.384,0-.858-.3.054-1.414-1.056-1.261a1.262,1.262,0,0,0,.5-.86c0-.253-.455-.454-.3-.707.4-.306,1.06-.559.762-1.166.5.253.8-.149.957-.6C30.313,86.685,30.968,85.017,31.474,85.977Z"/><path class="cls-4" d="M17.718,145.735a.893.893,0,0,1-.064.936c-.162.257-.514.1-.614.418-.062-.257-.419-.064-.546-.224-.192-.226-.449-.454-.385-.808.193-.322.416-.868.869-.772C17.333,145.285,17.492,145.574,17.718,145.735Z"/><path class="cls-4" d="M15.734,141.785c.71.446.615,1.093.551,1.869-.358.253-.615.767-1,.867-.289-.513-1.128.161-1.028-.614-.547.2-.418-.546-.517-.868a1.407,1.407,0,0,1,.517-1.032c.224-.1.482-.1.643-.35C15.157,141.72,15.477,142.139,15.734,141.785Z"/><path class="cls-4" d="M-.38,130.943c.356-.161.322.358.614.289.031.55.773.583.546,1.226.2.707-.707.515-.579,1.221-.644.065-1.416.74-2.157,0-.547-.193.035-.9-.674-.8a.787.787,0,0,0,.321-.546c0-.16-.291-.289-.194-.455.261-.188.678-.349.485-.739.322.166.515-.092.611-.385C-1.117,131.393-.7,130.332-.38,130.943Z"/><path class="cls-4" d="M51.785,144.9a.9.9,0,0,1-.064.936c-.161.253-.515.1-.613.418-.064-.262-.416-.065-.544-.228-.2-.222-.454-.452-.389-.8.192-.322.419-.873.869-.772C51.4,144.446,51.56,144.735,51.785,144.9Z"/><path class="cls-4" d="M31.635,105.566c.353-.161.322.357.612.294.033.546.771.578.545,1.22.2.712-.707.515-.578,1.222-.644.069-1.417.744-2.155,0-.55-.192.031-.9-.677-.8a.8.8,0,0,0,.322-.547c0-.161-.292-.289-.2-.45.261-.192.679-.358.484-.739.323.16.515-.1.614-.391C30.9,106.019,31.314,104.955,31.635,105.566Z"/><path class="cls-4" d="M32.445,142.315a.889.889,0,0,1-.067.933c-.163.258-.512.1-.612.417-.062-.256-.416-.063-.545-.224-.193-.226-.451-.45-.387-.8.194-.322.417-.872.87-.776C32.059,141.861,32.215,142.155,32.445,142.315Z"/><path class="cls-4" d="M30.46,147.573c.709.45.615,1.1.549,1.867-.353.258-.613.776-1,.869-.292-.515-1.128.165-1.028-.611-.549.192-.422-.547-.518-.869a1.412,1.412,0,0,1,.518-1.032c.223-.1.48-.1.642-.354C29.883,147.508,30.2,147.926,30.46,147.573Z"/><path class="cls-4" d="M35.678,132.114c1.113.707.957,1.715.859,2.933-.557.4-.962,1.21-1.565,1.362-.455-.807-1.77.254-1.616-.96-.859.3-.659-.861-.808-1.363a2.187,2.187,0,0,1,.808-1.618c.352-.153.758-.153,1.011-.555C34.77,132.013,35.276,132.673,35.678,132.114Z"/><path class="cls-4" d="M35.493,149.842c.709.45.61,1.093.547,1.865-.355.257-.612.776-1,.873-.29-.515-1.125.163-1.033-.616-.546.2-.415-.546-.513-.868a1.4,1.4,0,0,1,.513-1.028c.23-.1.487-.1.645-.354C34.91,149.775,35.236,150.2,35.493,149.842Z"/><path class="cls-4" d="M39.842,147.347a.89.89,0,0,1-.066.932c-.161.257-.515.1-.614.418-.063-.257-.417-.061-.546-.224-.19-.226-.447-.45-.385-.8.2-.322.418-.873.868-.776C39.454,146.893,39.615,147.182,39.842,147.347Z"/><path class="cls-4" d="M4.523,145.128a1.393,1.393,0,0,1-.1,1.463c-.252.406-.81.153-.96.659-.1-.405-.658-.1-.859-.353-.3-.354-.706-.708-.6-1.266.3-.5.654-1.363,1.361-1.21C3.915,144.421,4.169,144.875,4.523,145.128Z"/><path class="cls-4" d="M8.2,149.448c.708.45.611,1.093.546,1.87-.351.257-.612.77-1,.868-.29-.515-1.128.16-1.03-.611-.546.193-.42-.551-.515-.869a1.388,1.388,0,0,1,.515-1.032c.227-.1.482-.1.643-.354C7.623,149.384,7.948,149.8,8.2,149.448Z"/></g></svg>