<svg id="word" xmlns="http://www.w3.org/2000/svg" viewBox="0 0 160 160"><defs><style>.cls-1{fill:#fde1d3;}.cls-1,.cls-10,.cls-12,.cls-2,.cls-3,.cls-4,.cls-5,.cls-6,.cls-7,.cls-8,.cls-9{stroke:#9d4b9c;}.cls-1,.cls-12,.cls-2,.cls-3,.cls-4,.cls-5{stroke-width:0.567px;}.cls-2{fill:#fff;}.cls-3{fill:#8f288c;}.cls-4{fill:#d4df45;}.cls-5{fill:#dfe139;}.cls-6{fill:#bd202e;}.cls-10,.cls-6,.cls-7,.cls-8,.cls-9{stroke-width:0.5px;}.cls-7,.cls-9{fill:#fbe2d4;}.cls-8{fill:#754d29;}.cls-10,.cls-9{stroke-linecap:round;}.cls-10,.cls-12{fill:none;}.cls-11{fill:#9c4c9c;}</style></defs><path class="cls-1" d="M71.636,90.074s-5.378,12.342-5.951,13.785-5.607,4.311-7.5,6.447c-.443.5-10.9,12.446-10.9,12.446l2.447,4.286s11.024-9.341,14.317-11.793c4.916-3.659,11.1-8.983,12.635-11.508s5.046-8.661,5.046-8.661l-5.371-6.594Z"/><path class="cls-1" d="M74.16,89.66s9.182,12.265,11.094,15.331,2.343,2.746,2.726,7.977,11.48,17.963,13.8,19.275a1.68,1.68,0,0,0,2.157-.325l1.785-1.314S93.7,107.739,94.276,104.672s-.052-5.193-2.156-8.62S86.427,85.4,86.427,85.4Z"/><path class="cls-2" d="M94.926,126.524a18.756,18.756,0,0,0,4.6-1.037c1.2-.661,3.2-2.076,3.2-2.076s3.5,4.057,3.4,5.85-4.1,5.094-5.7,3.585a27.453,27.453,0,0,1-3.026-3.522Z"/><path class="cls-2" d="M48.7,120.769s3.3-5,3.9-3.585,2.9,3.962,3.2,4.434-1.6,3.114-1.6,3.114l-1.8,3.019s-2.6,2.359-3.7.189S48.7,120.769,48.7,120.769Z"/><polygon class="cls-3" points="70.773 85.194 68.703 92.351 80.088 94.628 80.26 85.519 70.773 85.194"/><path class="cls-4" d="M49.6,119.915a35.621,35.621,0,0,0-6.1,2.218c-2.525,1.294-2.315,2.588-.842,5.915s2.823,7.508,4.717,9.172,8.949,4.94,10,2.722-1.389-2.543-3.145-4.684c-2.938-3.58,1.538-9.637-.566-10.192s-2.591,3.907-3.222,1.688A41.848,41.848,0,0,1,49.6,119.915Z"/><path class="cls-4" d="M97.4,129.324a9.562,9.562,0,0,1,1.812,3.464c.9,2.578,2.167,6.544,4.334,6.544s6.68-3.57,8.667-3.966,9.028-2.776,10.292-4.958,2.709-3.966,0-3.966-6.681,1.388-9.028.992-9.369-2.905-9.8-1.987,1.912,2.489,1.19,3.877-.778,1.877-2.583,2.076S97.4,129.324,97.4,129.324Z"/><path class="cls-3" d="M69.911,72.344c-1.688.267-3.115,1.151-3.105,2.765.018,3.009,1.207,9.733,3.45,11.874a16.116,16.116,0,0,1,3.755,4.462,14.088,14.088,0,0,1,1.807,4.2c5.665.574,11.323-1.208,16.414-3.623a1.656,1.656,0,0,0,.519-.331c.572-.61-.084-1.514-.584-2.179-1.457-1.936-1.572-4.467-1.634-6.841l-.151-5.748a3.544,3.544,0,0,0-.58-2.253,3.47,3.47,0,0,0-1.989-.978,26.152,26.152,0,0,0-4.887-.417c-5.186-.118-6.621,0-11.808-.121"/><path class="cls-1" d="M74.337,33.436s1.57,5.591.231,6.132-6.544.181-6.544.181,8.99,7.936,10.138,8.838,6.414,4.036,8.136,2.774,3.149-7.824,2.193-9.267-4.349-2.363-4.349-2.363L85.431,34.7Z"/><path class="cls-5" d="M68.358,40.137l5.52-.325s2.415,4.554,6.555,6.018,5.347-.813,5.434-1.789a31.7,31.7,0,0,0-.432-4.229l4.658,1.3s4.312,13.582.172,17.161-7.676,5.2-11.643,1.545S68.358,40.137,68.358,40.137Z"/><path class="cls-1" d="M96.525,54s4.4,11.183,7.842,12.085,3.443-4.509,3.826-6.313A32.661,32.661,0,0,0,108.384,54s4.017-2.886,2.487-5.05A13.127,13.127,0,0,0,105.9,44.8a1.969,1.969,0,0,0-1.53.542s-.765-3.969-1.913-1.985-.382,6.674-.191,7.4a8.4,8.4,0,0,1-.191,2.525l-3.061-3.968Z"/><path class="cls-5" d="M89.748,40.544s4.312.488,8.107,5.368a32.8,32.8,0,0,0,3.452,3.757l-5.165,6.855s-1.53-2.886-2.486-3.428S89.748,40.544,89.748,40.544Z"/><path class="cls-1" d="M52.274,42.888S44.956,44.8,43.4,45.666s-1.4,10.07-.467,13.021,3.581,8.334,4.048,8.507,1.246,5.556,2.8,6.077a9.478,9.478,0,0,0,4.982-.347c2.553-1.068.311-2.857.311-2.857s2.647-.095,1.4-1.484-5.449-3.125-5.449-3.125S48.07,54.347,48.07,52.61s5.449-3.125,5.449-3.125Z"/><path class="cls-6" d="M68.981,39.028,65.346,40.11s-1.721,20.378-1.721,24.707a27.351,27.351,0,0,1-1.477,8.34s6.068,3.384,9.319,5.368,13.772.361,16.45.361a19.788,19.788,0,0,0,5.93-1.263s-3.252-7.4-1.722-14.429.814-10.044.814-10.044L90.093,40.463s.259-.732-2.674-.163c-1.767.343,6.21,14.721-2.156,17.079C81.3,58.5,68.981,39.028,68.981,39.028Z"/><path class="cls-5" d="M65.818,40.11s-8.095.521-10.586,1.215-4.2,1.042-4.2,1.042L53.363,50.7a18.048,18.048,0,0,1,5.916-1.563c2.491,0,5.916,6.771,5.916,6.771S70.8,44.971,65.818,40.11Z"/><path class="cls-7" d="M88.961,14.815a15.455,15.455,0,0,1,1.687,5.467c.047,2.36,1.788,4.43,1.911,6.011s-1.259,7.219-2.737,8.138-6.3,3.9-8.136,3.743-8.116.692-10.813-3.9-5.219-9.09-.743-14.2,6.507-7.9,9-7.856S88.961,14.815,88.961,14.815Z"/><path class="cls-8" d="M79.366,17.384s3.76,1.286,6,1.131L87.6,18.36l-2.776-.939a34.677,34.677,0,0,0,3.937-.53c2.637-.469.093-.952.093-.952l3.279-.413L88.1,13.256l4.171-.074a5.346,5.346,0,0,0-3.033-3.055,21.055,21.055,0,0,0-10.1-1.748c-4.655.294-12.7,3.085-13.651,4.311s-4.8,7.522-5.032,9.858a11.2,11.2,0,0,0,.745,4.688l.078-2.7s.221,4.381,1.87,6.443,1.842,1.032,1.842,1.032-.327,1.455,4.249,3.858,4.953,1.39,4.953,1.39a25.437,25.437,0,0,1-4.139-5.943,12.8,12.8,0,0,1-.074-7.77c.451-.833.7,1.369.7,1.369a12.078,12.078,0,0,1,2.23-2.947c1.754-1.854.191.889.191.889s3.638-1.255,4.115-2.348,1.153-2.342,1.153-2.342l.215,1.589Z"/><path class="cls-7" d="M70.735,30.943s-3.068-1.75-2.9.358,1.222,3.6,2.147,3.589,1.712-1.422,1.712-1.422"/><path class="cls-7" d="M81.538,24.7s-1.962-1.047-2.058.989.812,3.145,1.594,2.531S82.375,25.643,81.538,24.7Z"/><path class="cls-7" d="M89.043,21.889a2.086,2.086,0,0,0-.664,2.571c.582,1.526,1.3,1.476,1.694.634S90.5,21.82,89.043,21.889Z"/><path class="cls-9" d="M80.543,31.139a11.476,11.476,0,0,0,3.431,1.336,8.213,8.213,0,0,0,1.192.246,4.323,4.323,0,0,0,3.351-1.1"/><path class="cls-10" d="M84.9,28.8a1.664,1.664,0,0,1,1.1-.787,1.36,1.36,0,0,1,1.055.557"/><path class="cls-11" d="M81.767,25.114s-1.24-.661-1.3.625.512,1.987,1.007,1.6A1.8,1.8,0,0,0,81.767,25.114Z"/><path class="cls-11" d="M90.181,22.566s-1.24-.661-1.3.626.513,1.986,1.007,1.6A1.8,1.8,0,0,0,90.181,22.566Z"/><path class="cls-12" d="M104.41,45.424c.116.965-.455,2.662-.455,3.634a3.814,3.814,0,0,0,.714,2.872c.756.853,3.015,2.181,4.115,1.567"/><path class="cls-12" d="M102.13,53.167a21.907,21.907,0,0,0,.446,6.891c.25.876.624,1.718.838,2.6"/><path class="cls-12" d="M108.537,126.389c.045-.141.257.027.28.173a7.956,7.956,0,0,1-.286,3.7"/><path class="cls-12" d="M111.143,127.163l.291.038a13.416,13.416,0,0,1-.142,3.557"/><path class="cls-12" d="M114.669,127.5a5.59,5.59,0,0,1-.124,3.269"/><path class="cls-12" d="M50.469,131.334a12.927,12.927,0,0,1,2.784.1"/><path class="cls-12" d="M49.976,133.331a6.52,6.52,0,0,1,3.277-.341"/><path class="cls-12" d="M50.728,135.782a5.656,5.656,0,0,1,3.144-.847"/><path class="cls-10" d="M78.467,22.677a2.975,2.975,0,0,1,1.03-1.061,3.728,3.728,0,0,1,2.388-.1"/><path class="cls-10" d="M87.431,20.168c.181-.07.338-.184.513-.267a1.633,1.633,0,0,1,2.038.625"/><path class="cls-10" d="M103.9,50.361a2.266,2.266,0,0,0,.32.259.918.918,0,0,0,1.064-.247,2.358,2.358,0,0,0,.461-1.023l.571-2.131"/><path class="cls-10" d="M104.433,51.573a2.334,2.334,0,0,0,1.44.405,2.044,2.044,0,0,0,.964-.543,4.062,4.062,0,0,0,1.274-1.718"/><path class="cls-10" d="M107.074,53.21a1.707,1.707,0,0,0,1.517-.593,4.246,4.246,0,0,0,.759-1.447"/></svg>