<svg id="word" xmlns="http://www.w3.org/2000/svg" viewBox="0 0 160 160"><defs><style>.cls-1{fill:#f3efd7;}.cls-1,.cls-10,.cls-12,.cls-13,.cls-14,.cls-2,.cls-3,.cls-4,.cls-5,.cls-6,.cls-7,.cls-9{stroke:#9d4b9c;}.cls-1,.cls-2,.cls-3,.cls-4,.cls-5,.cls-6,.cls-7,.cls-9{stroke-width:0.709px;}.cls-2{fill:#c1bbdc;}.cls-3{fill:#9bba87;}.cls-4{fill:#d6e6ab;}.cls-5{fill:#b7da9c;}.cls-6{fill:#fffbda;}.cls-12,.cls-14,.cls-7{fill:none;}.cls-8{fill:#b2accb;}.cls-9{fill:#cbc3e1;}.cls-10{fill:#6ab1e1;}.cls-11{fill:#9d4b9c;}.cls-13,.cls-16{fill:#fff;}.cls-14{stroke-linecap:round;}.cls-15{fill:#9edcf8;}.cls-16{opacity:0.29;}</style></defs><path class="cls-1" d="M141.5,84.2l-.783,14.038-.652,9.91s-85.182-.276-85.573-.138-.124-25.716-.124-25.716L138.76,83.51S141.5,81.17,141.5,84.2Z"/><path class="cls-2" d="M14.216,52.935a52.464,52.464,0,0,1-.163,15.573c-1.435,7.3-1.435,11.561-3.391,15S4.922,88.6,8.444,90.391s8.4,3.751,9.914,1.789c3.607-4.686,6.392-3.3,5.479,2.616s-7.3,7.431-2.739,10.046,8.218,2.2,7.826,4.129-4.565-.137-1.565,2.615,6.392,2.753,7.435,3.991,2.479,4.542,5.219,1.927-1.7-4.817,4.174-1.376,7.7,5.5,13.044,3.441,9.039-4.669,9.523-1.377c.117.8,1.4,2.884,5.488.609,7.2-4,1.556-3.774,11.73-3.774S94.538,116.266,96.1,116.4s-2.087-3.716,4.826-4.542,10.019,1.841,10.671,2.667,5.019-30.735,5.019-30.735l-80.652-.971L14.216,52.935"/><polygon class="cls-3" points="114.947 37.235 111.161 37.142 111.425 30.825 115.299 30.825 114.947 37.235"/><polygon class="cls-4" points="108.888 28.513 113.274 28.41 115.28 30.99 111.496 31.128 108.888 28.513"/><polygon class="cls-4" points="114.888 36.22 139.673 55.021 140.195 60.388 110.323 36.083 114.888 36.22"/><polygon class="cls-5" points="139.151 59.15 139.151 52.268 142.702 56.029 142.331 116.2 140.142 113.761 140.085 83.964 108.167 53.586 108.888 28.513 111.496 31.128 111.236 36.083 139.151 59.15"/><path class="cls-6" d="M108.236,52.681l-54.918-.138s-7.7,2.065-1.7,8.671S68.841,76.628,68.841,76.628l-1.354,6.035s47.662.847,51.315,1.26,20.741,1.927,21.523.275-1.695-4.955-2.347-5.918S108.236,52.681,108.236,52.681Z"/><polygon class="cls-3" points="146.234 55.299 142.582 55.436 142.331 116.2 146.029 115.364 146.234 55.299"/><path class="cls-7" d="M36.317,86.379c6.643,10.665,1.064,18.9-.871,29.336"/><path class="cls-7" d="M67.015,118.467c.911-5.214,4.228-8.391,6.2-12.941,2.383-5.5,1.6-14.012.064-19.676"/><path class="cls-7" d="M91.016,88.189c-3.29,9.558.161,18.081,5.088,25.737"/><path class="cls-7" d="M24.49,103.053c5.406-4.333.125-30.747-9.262-12.386"/><polygon class="cls-4" points="139.151 52.268 142.543 55.709 146.234 55.299 142.683 52.192 139.151 52.268"/><path class="cls-8" d="M27.6,87.03c.271-4.528-4.555-11-6.934-14.372-2.9-4.111-5.422-9.755-5.393-14.985,0,0-1.145,8.268,1.585,12.728s5.2,7.617,6.252,9.94,1.5,2.229-1.145,2.044-4.931,1.393-5.547,2.972,1.849-.464,2.465-1.207,3.47-1.54,4.755-.558c3.522,2.694,3.61,9.012,3.61,9.012Z"/><path class="cls-7" d="M64.494,116.014c.017-5.725,2.347-8.6,5.616-12.824,3.129-4.039,3.478-8.923-.157-12.909"/><path class="cls-7" d="M87.3,90.374c-2.023,5.726-1.364,9.612,1.142,15.071,1.487,3.238,2.978,5.942,2.82,9.64"/><path class="cls-7" d="M41.248,113.971c-1.391-5.909.326-9.421.883-15.108.541-5.539-1.3-7.511-3.877-11.648"/><path class="cls-8" d="M38.783,86.937a16.96,16.96,0,0,1,5.723,8.268c1.321,5.016.528,9.754.352,12.077s-.528,5.76.617,7.06,3.257,3.159,3.257,3.159L41.6,113.785a55.2,55.2,0,0,1,.617-10.033c.792-3.716,2.2-4.831.44-9.383A35.177,35.177,0,0,0,38.783,86.937Z"/><path class="cls-8" d="M92.846,85.636S90.557,88.7,90.469,97.063c-.024,2.208,3.081,9.011,4.314,11.612a17.356,17.356,0,0,1,1.5,4.367,3.481,3.481,0,0,1,2.553-1.765,15.412,15.412,0,0,1,4.579.092,44.664,44.664,0,0,1-5.547-4.83c-2.113-2.323-6.252-9.755-5.9-13.192S92.846,85.636,92.846,85.636Z"/><path class="cls-9" d="M57.623,50.892s-22.567,1.376-26.611,1.1-19.046-2.2-16.828,2.34,2.609,6.743,7.957,11.836A48.561,48.561,0,0,1,32.186,80.62c1.825,3.716,3.652,6.193,5.87,5.5s3.782-1.239,9-.964,10.044.826,14.87-.275,17.61-1.1,25.959-1.238,16.621,1.681,18.432,1.431l11.049-1.521s-15.785-1.424-16.958-7.48.862-6.845,2.167-11.112S88.9,55.094,82.9,52.617s-10.844,1.44-15.41-1.725S57.623,50.892,57.623,50.892Z"/><path class="cls-10" d="M103.747,34.284S98.7,33.8,95.718,33.2s-7.455,1.331-9.405,1.452-2.753-.968-4.474-1.331-3.441.6-4.129,4.114,1.491,6.414-1.032,9.682S71.745,52.2,67.616,59.335s-3.441,15.248-1.262,14.522,3.1-1.936,6.424-.242,8.258,5.325,14.911,6.414,15.37,0,18.926-.847,6.079-1.936,8.6-1.452,2.638,3.025,5.046,2.057.23-2.783,2.409-6.414,5.391-18.637,4.588-21.541-2.753-3.51.115-6.656,6.423-6.535,4.473-6.9-10.438,2.9-12.961,1.815S108.68,34.889,103.747,34.284Z"/><path class="cls-11" d="M129.211,40.577s-6.653,4.357-8.6,8.108-4.589,5.2-4.818,11.618-.344,11.013.574,13.07,2.638,4.6,2.867,1.936.688-8.592,2.409-13.191,1.032-8.713,1.72-11.5,1.606-5.566,2.753-6.535A31.439,31.439,0,0,0,129.211,40.577Z"/><path class="cls-12" d="M73.143,62.919a10.46,10.46,0,0,0,2.558,6.69,29.078,29.078,0,0,0,5.347,4.729"/><path class="cls-12" d="M82.284,43.248a10.06,10.06,0,0,1,5.3-7.039,15.032,15.032,0,0,1,8.624-1.374,43.658,43.658,0,0,1,8.594,2.117"/><path class="cls-12" d="M124.569,43.037a29.456,29.456,0,0,0-9.46,15.637,30.736,30.736,0,0,0,1.464,18.487"/><path class="cls-13" d="M120.02,68.067a1.96,1.96,0,0,0-1.2,1.737,2.23,2.23,0,0,0,2.2,2.184,2.158,2.158,0,0,0,2.008-1.436C123.586,68.816,121.4,67.545,120.02,68.067Z"/><path class="cls-14" d="M120.407,69.812l.007.416"/><path class="cls-14" d="M121.717,69.656l.1.676"/><path class="cls-13" d="M121.154,59.116a1.96,1.96,0,0,0-1.2,1.737,2.231,2.231,0,0,0,2.2,2.184,2.159,2.159,0,0,0,2.009-1.436C124.721,59.865,122.531,58.594,121.154,59.116Z"/><path class="cls-14" d="M121.541,60.861l.008.416"/><path class="cls-14" d="M122.851,60.705l.1.676"/><path class="cls-13" d="M121.993,50.686a1.958,1.958,0,0,0-1.2,1.737,2.229,2.229,0,0,0,2.2,2.183A2.159,2.159,0,0,0,125,53.171C125.559,51.434,123.37,50.163,121.993,50.686Z"/><path class="cls-14" d="M122.38,52.431l.007.416"/><path class="cls-14" d="M123.69,52.274l.1.676"/><path class="cls-15" d="M87.909,57.461a2.453,2.453,0,0,0-.884,2.274,1.971,1.971,0,0,0,1.666,1.642,2.129,2.129,0,0,0,2.047-1.559C91.433,57.642,89.784,55.974,87.909,57.461Z"/><path class="cls-15" d="M97.675,47.145a.779.779,0,0,0-1.079.17,2.241,2.241,0,0,0-.408,1.182,2.293,2.293,0,0,0,.308,1.77,1.283,1.283,0,0,0,1.75.1,1.979,1.979,0,0,0,.606-1.828,3.1,3.1,0,0,0-.973-1.713"/><path class="cls-15" d="M106.854,62.238a4.976,4.976,0,0,0-1.867-.045,1.808,1.808,0,0,0-1.371,1.21,1.713,1.713,0,0,0,1.266,1.979,2.543,2.543,0,0,0,2.3-.815,1.889,1.889,0,0,0,.619-1.195.906.906,0,0,0-.736-.984"/><path class="cls-15" d="M97.106,65.722a1.455,1.455,0,1,0,.1,2.886,1.445,1.445,0,0,0,.9-.659,1.653,1.653,0,0,0,.087-1.518A1.5,1.5,0,0,0,97,65.568"/><path class="cls-15" d="M107.441,50.417a2.565,2.565,0,0,0-1.119,2.429,1.9,1.9,0,0,0,1.9,1.654,2.565,2.565,0,0,0,1.77-1.342,3.642,3.642,0,0,0,.583-1.592C110.744,49.593,108.654,49.608,107.441,50.417Z"/><path class="cls-15" d="M74.849,56.315a5.122,5.122,0,0,0,.594,3.342c.291.55.8,1.118,1.382.986A1.463,1.463,0,0,0,77.7,59.7c.585-1.36.871-3.759-.015-5.074C76.61,53.032,75.106,55.02,74.849,56.315Z"/><path class="cls-15" d="M88.584,49.557a2.234,2.234,0,0,0,1.842,2.276,2.275,2.275,0,0,0,2.037-1.975c.223-1.108.1-3.127-1.24-3.356C89.727,46.246,88.551,48.2,88.584,49.557Z"/><path class="cls-15" d="M85.478,69.463a2.756,2.756,0,0,0,1.159,2.97,1.284,1.284,0,0,0,1.526-.012,1.623,1.623,0,0,0,.4-.977c.126-.925.028-2.873-.814-3.487C86.805,67.265,85.727,68.521,85.478,69.463Z"/><path class="cls-15" d="M70.9,68.435c1.281-.935-.332-3.871-1.735-2.911C67.588,66.6,69.5,69.459,70.9,68.435Z"/><path class="cls-15" d="M106.188,73.657a1.318,1.318,0,0,0-.518,1.308c.185.509.812.615,1.328.641l2,.1c.7.036,1.542.006,1.933-.613.634-1-.5-2.437-1.421-2.713C108.419,72.057,106.966,72.926,106.188,73.657Z"/><path class="cls-15" d="M97.783,75.064a3.61,3.61,0,0,0-2.094.064,1.577,1.577,0,0,0-.958,1.771,1.852,1.852,0,0,0,1.708,1.094,2.683,2.683,0,0,0,1.551-.246,1.551,1.551,0,0,0,.829-1.331,1.029,1.029,0,0,0-1.015-1.04"/><path class="cls-15" d="M115.8,44.041a3.24,3.24,0,0,0-.8.8,1.174,1.174,0,0,0-.112,1.107c.307.613,1.14.576,1.784.44a4.254,4.254,0,0,0,1.652-.611,1.7,1.7,0,0,0,.746-1.574,1.466,1.466,0,0,0-1.448-1.159,2.352,2.352,0,0,0-1.707.927"/><path class="cls-15" d="M102,56.4a4.668,4.668,0,0,0-1.9.644,1.775,1.775,0,0,0-.773,1.812,1.709,1.709,0,0,0,2.24.935,2.9,2.9,0,0,0,1.785-1.947,1.588,1.588,0,0,0-.027-1.082.729.729,0,0,0-.867-.431"/><path class="cls-15" d="M104.492,43.5a2.03,2.03,0,0,0-1.559.856,1.418,1.418,0,0,0,.142,1.745,1.523,1.523,0,0,0,.9.339c.988.089,2.733-.588,3-1.761S105.408,43.425,104.492,43.5Z"/><path class="cls-15" d="M95.267,40.632a1.682,1.682,0,0,0-1.119,1.318,1.3,1.3,0,0,0,.79,1.146,3.461,3.461,0,0,0,1.4.234,4.985,4.985,0,0,0,1.882-.188c1.049-.388,1.813-1.971.751-2.834C98.078,39.586,96.135,40.222,95.267,40.632Z"/><path class="cls-15" d="M79.66,47.06a1.782,1.782,0,0,0-.566,1.626,1.388,1.388,0,0,0,1.2.85,2.611,2.611,0,0,0,2.6-1.468c.349-.726.512-2.517-.46-2.763C81.625,45.1,80.145,46.518,79.66,47.06Z"/><path class="cls-16" d="M97.894,36.43s-7.914-.363-11.355,3.146S79.2,50.952,79.427,54.219,78.4,62.933,79.542,66.2s1.032,2.663,1.376-2.178,2.639-15.854,5.162-18.153,5.85-4.72,10.9-4.6,13.3,2.058,14.223.363S97.894,36.43,97.894,36.43Z"/></svg>