<svg id="word" xmlns="http://www.w3.org/2000/svg" xmlns:xlink="http://www.w3.org/1999/xlink" viewBox="0 0 160 160"><defs><style>.cls-1,.cls-6{fill:none;}.cls-2{clip-path:url(#clip-path);}.cls-3{fill:#006f4b;stroke:#9b4d9c;stroke-width:1.507px;}.cls-4{fill:#d1932a;}.cls-4,.cls-5,.cls-6{stroke:#9a4d9a;stroke-miterlimit:10;stroke-width:1.302px;}.cls-5{fill:#e9e6c6;}.cls-7{fill:#9a4d9a;}</style><clipPath id="clip-path"><rect class="cls-1" x="14.5" y="-196.5" width="132" height="132"/></clipPath></defs><g class="cls-2"><path class="cls-3" d="M104.581-177.823l10.4,1.036s15.247,20.115,17.233,21.467,2.805,2.577,3.072.972,2.623-23.548,2.623-23.548,5.288,3.121,8.776,2.777,17.1,3.553,17.1,3.553.292,48.291,1.334,64.068,3.364,91.15,3.364,91.15l-8.735,2.658S144.938,1.121,117.215.741,66.706-18.627,66.706-18.627l-7.6-1.519c1.4-3.66,19.792-66.7,21.558-74.372,3.019-13.115,1.37-5.958,3.547-15.89S88.9-141.993,88.9-141.993a135.924,135.924,0,0,1,4.6-18.336A67.1,67.1,0,0,0,96.808-176.9Z"/></g><path class="cls-4" d="M24.633,93.835s5.311-4.133,9.6-7.993S46.827,68.488,49.494,61.134s3.87-13.284,4.917-17.008,2.382-5.621,7.129-7.446,8.651-5.322,10.54-6.1,4.094-2.937,5.067-1.4.757,6.532.18,6.819-15.739,2.834-16.5,8.387S55.393,74.128,47.048,81.528s-16.494,15.51-16.494,15.51Z"/><path class="cls-4" d="M68.6,37.269s-8.083.841-10.2,3.463-1.712,7.216-1.708,10.013S55.017,63.292,52.74,68.5,38.93,86.194,36.648,88.226s-8.814,6.894-8.814,6.894a76.056,76.056,0,0,1,3.954,7.555l.625,1.862s13.146-3.9,16.769-4.647,8.131-6.2,14.013-10.243S82.461,77.821,85.244,76.413s6.59-3.861,6.59-3.861,4.289-2.778-.583-10.4c-3.823-5.979-10.968-16.677-11.983-20.339s-.2-7.449-.724-9.721-1.588-3.758-2.575-2.976a71.966,71.966,0,0,0-4.886,6.061Z"/><path class="cls-5" d="M14.349,102.928s4.263-4.362,6.477-6.247,3.341-3.343,4.416-2.623,2.871.095,5.312,2.98A22.62,22.62,0,0,1,34.238,104s.962.719-5.085,1.409S13.312,103.978,14.349,102.928Z"/><path class="cls-5" d="M12.884,104.351s-1.5,3.266-.589,6.168.62,5.4,3.928,5.882,24.273-1.257,28.509-2.558,5.691-1.577,5.432-2.9.538.36,4.21-2.184,3.494-6.693,10.591-11.712,13.516-8.706,19-10.227,12.608-2.588,12.99-6.39-3.276-11.82-3.276-11.82a7.156,7.156,0,0,1-3.777,5.152c-3.537,2.063-21.814,12.3-25.956,15.378S51.2,99.285,47.128,100.38s-14.816,3.278-17.347,3.741c-7.033,1.286-12.85.339-13.912-.089a3.5,3.5,0,0,1-1.52-1.1A2.183,2.183,0,0,0,12.884,104.351Z"/><path class="cls-6" d="M47.373,102.02c.243.1.357.417.439.694.519,1.755,2.264,5.851,2.782,7.606"/><path class="cls-6" d="M50.505,105.435c4.4-.844,7.377-5.057,10.465-8.551A45.214,45.214,0,0,1,84.146,82.738"/><path class="cls-6" d="M62.844,47.7s1.562-.878,1.438-2.116-.571-2.259-1.315-2.18S60.366,47.055,62.844,47.7Z"/><path class="cls-6" d="M64.032,52.781s-1.061-2.25-2.324-.883-2.646,3.087-.4,3.674S64.357,54.153,64.032,52.781Z"/><path class="cls-6" d="M61.115,59.631s-1.473.184-1.559,1.465-1.273,2.5.8,2.88,3.159-.43,2.881-1.434S61.89,59.363,61.115,59.631Z"/><ellipse class="cls-6" cx="59.211" cy="70.037" rx="2.294" ry="2.064" transform="matrix(0.964, -0.267, 0.267, 0.964, -16.553, 18.355)"/><ellipse class="cls-6" cx="54.939" cy="76.734" rx="1.925" ry="2.145" transform="translate(-18.496 17.458) rotate(-15.488)"/><ellipse class="cls-6" cx="50.673" cy="82.368" rx="1.845" ry="2.513" transform="matrix(0.964, -0.267, 0.267, 0.964, -20.156, 16.523)"/><ellipse class="cls-6" cx="44.856" cy="87.637" rx="1.635" ry="1.869" transform="translate(-21.774 15.161) rotate(-15.488)"/><ellipse class="cls-6" cx="39.433" cy="92.352" rx="1.845" ry="1.777" transform="translate(-23.23 13.884) rotate(-15.488)"/><ellipse class="cls-6" cx="71.763" cy="78.904" rx="1.371" ry="1.803" transform="translate(-18.465 22.029) rotate(-15.488)"/><ellipse class="cls-6" cx="65.671" cy="83.475" rx="1.555" ry="1.548" transform="translate(-19.907 20.568) rotate(-15.488)"/><path class="cls-7" d="M30.313,89.727s.34-1.791,1.254-2.065-.55-1.628,1.84-1.082,5.214,2.053,5.606,2.676,2.355,3.935.623,3.039-3.109-1.939-4.226-2.614S30.465,89.367,30.313,89.727Z"/><path class="cls-7" d="M35.418,85.959s-.141-1.1,3.862-1.07a11.281,11.281,0,0,1,5.077.946c.361-.05,2.2.981,1.108,1.411s-.976.388-2.22-.121S39.355,85.95,38,86.389s-2.743.76-2.743.76l-1.405-.458Z"/><path class="cls-7" d="M38.119,84A5.327,5.327,0,0,1,40.7,80.934c1.865-.772,4.424-1.608,6.09-.925s2.658.707,3.27,1.533,1.422.983-.15,1.037a32.557,32.557,0,0,1-4.9-.488,6.51,6.51,0,0,0-3.753.277A33.009,33.009,0,0,0,38.119,84Z"/><path class="cls-7" d="M41.983,79.243A8.278,8.278,0,0,1,44.3,75.549a8.076,8.076,0,0,1,5.081-1.408c1.165.058,4.81.32,5.411,1.235s1.6,1.148.15,1.358-4.812-1.211-6.673-.949-3.179.245-3.914,1.148A25.508,25.508,0,0,1,41.983,79.243Z"/><path class="cls-7" d="M46.1,72.761s-1.228-2.853,2.293-4.363,3.27-1.822,5.477-1.162,5.372,2.01,5.225,2.369,0,.478-2.357.081-3.3-.848-5.251-.189-4.533,2.2-4.672,2.684a4.517,4.517,0,0,0-.133,1.1Z"/><path class="cls-7" d="M48.328,65.019s-1.534-1.387.08-1.882a37.715,37.715,0,0,1,6.753-1.474c1.833-.111,5.338.089,5.431.424s.007.422-.976.821-4.588,1.017-5.858,1.369A44.767,44.767,0,0,0,49.3,66.149Z"/><path class="cls-7" d="M52.4,61.538s-4.11-1.4-3.913-2.668S51.2,56.032,51.2,56.032s-4.54.005-4.815,1.973-.4,2.894,1.57,3.492a18.444,18.444,0,0,0,2.959.707Z"/><path class="cls-7" d="M48.036,68.563S45.941,67.525,45.86,67.1s1.061-1.915,1.223-1.976,3.539,2.05,3.539,2.05Z"/><path class="cls-7" d="M44.661,74.494s-1.937-.672-1.589-1.786.62-3.157,1.206-2.56,2.771,3.684,2.771,3.684Z"/><path class="cls-7" d="M40.112,80.588a3.906,3.906,0,0,1-.622-2.245A3.815,3.815,0,0,1,40.6,76.32L42.3,78.4Z"/><path class="cls-7" d="M35.135,85.53s-.726-2.816.084-3.25a22.1,22.1,0,0,0,2.049-1.349,2.23,2.23,0,0,0-.159,2.048,10.556,10.556,0,0,0,1.26,1.924Z"/><path class="cls-4" d="M70.106,92.291s6.222-2.565,11.389-5.139S98.263,73.79,102.8,67.416s7.277-11.768,9.28-15.078,3.8-4.78,8.859-5.271,9.757-2.819,11.786-3.064,4.73-1.737,5.258,0-1.015,6.5-1.648,6.619-15.924-1.471-18.138,3.678-13.182,27.213-23.2,32.116S74.957,96.958,74.957,96.958Z"/><path class="cls-4" d="M127.579,49.519s-8.014-1.349-10.756.613-3.577,6.5-4.32,9.193-4.96,11.646-8.546,16.059S85.925,88.745,83.183,90.094s-10.335,4.29-10.335,4.29a76.22,76.22,0,0,1,1.793,8.336l.1,1.961s13.709-.245,17.4,0,9.491-3.8,16.241-6.129,21.723-6.252,24.782-6.865,7.381-1.961,7.381-1.961,4.875-1.532,2.215-10.174c-2.088-6.783-6.116-19-6.116-22.8s1.792-7.232,1.9-9.561-.527-4.045-1.687-3.555a71.7,71.7,0,0,0-6.328,4.535Z"/><path class="cls-5" d="M57.768,98.307s5.273-3.065,7.909-4.291,4.113-2.329,4.957-1.348,2.741.858,4.323,4.29a22.622,22.622,0,0,1,1.691,7.693s.735.95-5.276,0S56.488,99.042,57.768,98.307Z"/><path class="cls-5" d="M55.975,99.287s-2.32,2.746-2.214,5.786-.844,5.369,2.214,6.718,23.728,5.271,28.157,5.148,5.905,0,6.011-1.348.422.49,4.64-.981,5.154-5.516,13.334-8.458,15.35-4.781,21.044-4.781,12.841.874,14.224-2.689,0-12.266,0-12.266a7.159,7.159,0,0,1-5.016,3.957c-3.959,1.043-24.307,6.03-29.12,7.888s-14.995,6.376-19.212,6.344-15.154-.8-17.716-1.027c-7.122-.639-12.475-3.105-13.383-3.8a3.486,3.486,0,0,1-1.17-1.47A2.184,2.184,0,0,0,55.975,99.287Z"/><path class="cls-6" d="M89.835,106.251a1.016,1.016,0,0,1,.238.786c.031,1.83.618,6.243.65,8.072"/><path class="cls-6" d="M91.941,110.378c4.469.362,8.459-2.9,12.369-5.446a45.215,45.215,0,0,1,26.112-7.443"/><path class="cls-5" d="M137.4,64.967c-1.58-6.929-3.748-5.094-5.153-4.79a4.862,4.862,0,0,0-3.36,2.808,9.688,9.688,0,0,0-.635,2.884,40.445,40.445,0,0,0-.214,4.221c0,2.15.337,4.62,1.909,5.751a5.278,5.278,0,0,0,3.27.682,2.966,2.966,0,0,0,1.7-.376,3.893,3.893,0,0,0,1.208-2.282,40.729,40.729,0,0,0,1.274-8.9"/><path class="cls-6" d="M119.248,58.038s1.74-.429,1.951-1.654.053-2.33-.685-2.452S117.034,56.751,119.248,58.038Z"/><path class="cls-6" d="M119.038,63.248s-.422-2.452-2-1.471-3.375,2.268-1.371,3.432S118.985,64.658,119.038,63.248Z"/><path class="cls-6" d="M114.4,69.071s-1.469-.217-1.895,1-1.894,2.069,0,2.989,3.16.429,3.16-.613S115.215,69.019,114.4,69.071Z"/><ellipse class="cls-6" cx="109.784" cy="78.591" rx="2.294" ry="2.064"/><ellipse class="cls-6" cx="103.878" cy="83.903" rx="1.925" ry="2.145"/><ellipse class="cls-6" cx="98.263" cy="88.194" rx="1.845" ry="2.513"/><ellipse class="cls-6" cx="91.25" cy="91.718" rx="1.635" ry="1.869"/><ellipse class="cls-6" cx="84.765" cy="94.813" rx="1.845" ry="1.777"/><ellipse class="cls-6" cx="119.512" cy="90.487" rx="1.371" ry="1.803"/><ellipse class="cls-6" cx="112.42" cy="93.266" rx="1.555" ry="1.548"/><path class="cls-7" d="M76.676,89.849s.807-1.636,1.761-1.655-.095-1.716,2.062-.552,4.476,3.371,4.687,4.076,1.219,4.421-.211,3.095-2.478-2.7-3.374-3.648S76.919,89.542,76.676,89.849Z"/><path class="cls-7" d="M82.6,87.581s.159-1.1,4.007,0a11.236,11.236,0,0,1,4.64,2.268c.362.048,1.857,1.532.691,1.654s-1.044.115-2.106-.709-3.436-2.171-4.86-2.11-2.846,0-2.846,0L80.9,87.868Z"/><path class="cls-7" d="M85.728,86.416a5.334,5.334,0,0,1,3.307-2.268c2-.245,4.693-.367,6.117.736s2.373,1.39,2.742,2.35,1.107,1.327-.422.96a32.587,32.587,0,0,1-4.587-1.778,6.509,6.509,0,0,0-3.691-.735A32.956,32.956,0,0,0,85.728,86.416Z"/><path class="cls-7" d="M90.723,82.861a8.283,8.283,0,0,1,3.216-2.942,8.092,8.092,0,0,1,5.273,0c1.107.368,4.55,1.594,4.885,2.636s1.231,1.532-.219,1.348-4.313-2.451-6.177-2.7-3.129-.612-4.078.062A25.421,25.421,0,0,1,90.723,82.861Z"/><path class="cls-7" d="M96.417,77.713S96,74.636,99.792,74.121s3.638-.882,5.589.343,4.64,3.371,4.4,3.678-.132.46-2.294-.552-2.953-1.7-5.009-1.584-4.956.91-5.22,1.339a4.513,4.513,0,0,0-.422,1.027Z"/><path class="cls-7" d="M100.636,70.848s-1.108-1.746.58-1.792a37.783,37.783,0,0,1,6.9.383c1.8.382,5.12,1.512,5.12,1.859s-.1.408-1.16.531-4.692-.245-6.01-.245a44.8,44.8,0,0,0-4.8.613Z"/><path class="cls-7" d="M105.487,68.58s-3.586-2.451-3.059-3.616,3.375-2.009,3.375-2.009-4.377-1.208-5.167.615-1.16,2.681.58,3.785a18.535,18.535,0,0,0,2.662,1.471Z"/><path class="cls-7" d="M99.408,74.185S97.666,72.626,97.7,72.2s1.534-1.562,1.707-1.578,2.862,2.921,2.862,2.921Z"/><path class="cls-7" d="M94.572,79s-1.687-1.165-1.055-2.145,1.441-2.877,1.846-2.145S97.05,79,97.05,79Z"/><path class="cls-7" d="M88.561,83.658a3.9,3.9,0,0,1,0-2.329,3.811,3.811,0,0,1,1.606-1.655l1.083,2.454Z"/><path class="cls-7" d="M82.445,87.091s.052-2.907.949-3.108a22.231,22.231,0,0,0,2.334-.754,2.23,2.23,0,0,0-.7,1.931,10.568,10.568,0,0,0,.7,2.191Z"/></svg>