<svg id="word" xmlns="http://www.w3.org/2000/svg" viewBox="0 0 160 160"><defs><style>.cls-1{fill:#fde1d3;}.cls-1,.cls-10,.cls-11,.cls-12,.cls-14,.cls-2,.cls-3,.cls-4,.cls-5,.cls-6,.cls-7,.cls-8,.cls-9{stroke:#9c4c9c;stroke-width:0.471px;}.cls-2{fill:#1b75ba;}.cls-14,.cls-2,.cls-3,.cls-4,.cls-5,.cls-6,.cls-7,.cls-8{stroke-miterlimit:10;}.cls-3{fill:#fff0b9;}.cls-4{fill:#fde82c;}.cls-5{fill:#231f20;}.cls-6{fill:#014e7f;}.cls-12,.cls-7{fill:#fff;}.cls-11,.cls-14,.cls-8{fill:none;}.cls-9{fill:#fde3d5;}.cls-10{fill:#be612f;}.cls-13{fill:#9c4c9c;}.cls-14{stroke-linecap:round;}</style></defs><path class="cls-1" d="M58.542,54.45a13.433,13.433,0,0,0-3.769,4.712c-1.494,3.085-4.346,11.052-4.346,11.052a3.742,3.742,0,0,1,1.508,2.628c.048,1.6.064,2.856,0,4.226a31.412,31.412,0,0,0,0,3.256c.048.857-.443,2.684-1.031,1.428a11.193,11.193,0,0,1-.477-3.884,13.459,13.459,0,0,1-1.477,3.77,4.326,4.326,0,0,0-.746,2.627,1.066,1.066,0,0,1-1.556-.914,11.9,11.9,0,0,1,0-3.027,5.681,5.681,0,0,1-1.668-.857,1.2,1.2,0,0,1,0-.914,1.406,1.406,0,0,1-1.667-.8c-.556-1.143-.89-.115,0-2.856a49.261,49.261,0,0,1,2.223-5.486s2.446-7.422,2.446-8.45,1.563-7.54,2.671-8.8.993-2.149,3.218-2.16,6.338-1.61,6.338-1.61l.665,6.169Z"/><path class="cls-1" d="M111.83,70.625s-.209.493-1.695,1.087c-.948.379-2.349.848-2.559,1.991s-.98,1.32-.962,1.948-.081,2.318,1.5,1.142c1.323-.981,1.636-2.2,2.492-2.237a8.585,8.585,0,0,0,1.449-.18Z"/><path class="cls-1" d="M115.887,58.4a10,10,0,0,1,3.827,2.627C121.37,62.913,122.17,62.621,122,64a19.3,19.3,0,0,1-2.285,6c-1.085,1.771-2.57,4.284-2.856,4.627s-3.712-1.714-3.712-1.942a18.938,18.938,0,0,1,.628-4.455c.571-1.942.057-6.169.057-6.169Z"/><path class="cls-1" d="M114.117,70.338s-1.942-1.085-2.4.286-1.772,1.657-1.257,3.712-.514,4.969.343,6,1.312.629,1.4,0,.314-4.575.314-4.886.572,1,.629,2.088-.4,3.144.571,3.428,1.256-1.029,1.2-1.258.914-3.6.914-3.6-1.142,4.2-.457,4.9,2.513-3.754,2.513-3.754-1.542,3.26-.856,3.829,1.37-.345,1.77-1.658a5.48,5.48,0,0,0,0-3.37,9.421,9.421,0,0,1-.4-2.342s-1.142-.571-1.142-1.314-.514-1.6-1.028-1.6A8.4,8.4,0,0,1,114.117,70.338Z"/><path class="cls-1" d="M114.081,63.984a19.478,19.478,0,0,1,2.561-1.473,1.612,1.612,0,0,1,.571-.187,1.687,1.687,0,0,1,1.051.441"/><path class="cls-1" d="M82.534,96.212s3.4,1.593,3.082,2.443-2.662.972-3.725,1.821c-.221.178.2-.184,0,0-.776.7-1.375,1.365-1.375,1.365l6.056,7.433s6.375-3.61,7.756-6.531,2.656-3.77,1.381-6.531a67.77,67.77,0,0,0-3.4-6.159S84.022,94.831,82.534,96.212Z"/><path class="cls-2" d="M81.609,104.813a9.7,9.7,0,0,0,.86,2.045q.482.9,1.028,1.773a1.717,1.717,0,0,0,.681.713,1.761,1.761,0,0,0,.712.107l2.63.034,3.1-2.886a20.428,20.428,0,0,1-6.171-1.785c-1.607-.815-2.556-4.338-2.556-4.338s-.105.069-.288.186A10.217,10.217,0,0,0,81.609,104.813Z"/><path class="cls-3" d="M78.855,111.022a11.227,11.227,0,0,1-1.887-7.316c-2.042,1.715-1.776,5.206-3.89,8.223-2.231,3.186-4.568,8.5-4.675,10.939s4.357,1.38,4.357,1.38l2.337-3.185,7.792-7.262A8.087,8.087,0,0,1,78.855,111.022Z"/><path class="cls-2" d="M82.33,111.805a3.864,3.864,0,0,1-1.345-1.066,12.176,12.176,0,0,1-2.652-4.307,7.54,7.54,0,0,1-.308-3.452l-.7.454a3.811,3.811,0,0,0-.36.272,11.227,11.227,0,0,0,1.887,7.316,8.087,8.087,0,0,0,4.034,2.779l1.7-1.579-1.265-.188A4.259,4.259,0,0,1,82.33,111.805Z"/><path class="cls-3" d="M84.89,109.451a1.761,1.761,0,0,1-.712-.107,1.717,1.717,0,0,1-.681-.713q-.547-.867-1.028-1.773a9.7,9.7,0,0,1-.86-2.045,10.217,10.217,0,0,1-.006-4.151c-.575.371-1.958,1.264-3.578,2.318a7.54,7.54,0,0,0,.308,3.452,12.176,12.176,0,0,0,2.652,4.307,3.864,3.864,0,0,0,1.345,1.066,4.259,4.259,0,0,0,.989.229l1.265.188,2.936-2.737Z"/><path class="cls-1" d="M74.672,103.434s-1.7,6.584-3.294,7.858-10.093,5.523-10.093,5.523-2.55-6.16-1.594-7.541,4.144-2.654,4.144-2.654.743-4.355.743-4.673S74.672,103.434,74.672,103.434Z"/><path class="cls-3" d="M52.726,117.606a8.8,8.8,0,0,1-.757-1.98,9.11,9.11,0,0,1,.233-4.807c-1.574,2.036-3.025,2.9-4.729,5.358-1.913,2.762-9.032,7.328-9.032,7.328s-3.758,5.2-2.058,6.789,5.441-.237,6.4-.98c.531-.413,7.724-5.515,12.779-8.3A10.5,10.5,0,0,1,52.726,117.606Z"/><path class="cls-2" d="M55.427,109.4a8.505,8.505,0,0,1,.909-1.637,7.449,7.449,0,0,0-3.551,2.26c-.2.289-.391.552-.583.8a9.11,9.11,0,0,0-.233,4.807,8.8,8.8,0,0,0,.757,1.98,10.5,10.5,0,0,0,2.833,3.405l2.234-1.231a10.385,10.385,0,0,1-2.638-4.372A9.13,9.13,0,0,1,55.427,109.4Z"/><path class="cls-2" d="M61.667,112.823a4.594,4.594,0,0,1,.837-5.716,9.952,9.952,0,0,0-4.064,0,7.254,7.254,0,0,0-.692,1.88,7.77,7.77,0,0,0,.436,4.163,23.234,23.234,0,0,0,1.92,3.772,10.474,10.474,0,0,0,.822,1.137c1.387-.761,2.271-1.244,2.271-1.244A14.134,14.134,0,0,0,61.667,112.823Z"/><path class="cls-3" d="M58.184,113.15a7.77,7.77,0,0,1-.436-4.163,7.254,7.254,0,0,1,.692-1.88c-.684.178-1.406.395-2.1.651a8.505,8.505,0,0,0-.909,1.637,9.13,9.13,0,0,0-.272,6.013,10.385,10.385,0,0,0,2.638,4.372c1.181-.65,2.257-1.241,3.133-1.721a10.474,10.474,0,0,1-.822-1.137A23.234,23.234,0,0,1,58.184,113.15Z"/><path class="cls-1" d="M92.054,36.562s-3.33,4-4.515,4.44a3.6,3.6,0,0,1-2.331,0s.219,8.74.583,12.673-3.278,8.521,2.84,8.375,9.978-3.35,10.27-4.37,1.6-9.176,1.6-9.176L93.147,35.9Z"/><path class="cls-4" d="M70.1,118.62s-1.54,1.8-.531,3.186a4.943,4.943,0,0,0,1.806,1.7s.85-1.221,1.116-1.593,2.6-.265,3.028-.106.212.8-.319,1.7-.744.956-.531,3.823.212,6.425.478,7.593.638,1.965.85,2.921a4.465,4.465,0,0,1-.744,2.92c-.318.266-3.718-.8-4.409-1.327s-3.241-.956-4.144-3.452a17.577,17.577,0,0,1-.69-6.271c-.053-1.64-1.381-4.242-1.488-4.667a6.067,6.067,0,0,1,.638-2.6c.265-.265.531-.478.531-.478a16.282,16.282,0,0,1,1.38-1.805,2.864,2.864,0,0,1,.9-.478s.76-1.874,1.328-1.859S70.1,118.62,70.1,118.62Z"/><path class="cls-5" d="M64.1,124.478a2.4,2.4,0,0,0-.168.182c-.287.338-.775,1.075-.1,1.553.9.637,1.325.384,1.325.384s.162,1.9.375,2.961.487,2.494.487,2.494-2.574.268-1.265,1.595,1.543.929,1.543.929-.276,1.7.35,2.1-.425.637,0,1.433a1.051,1.051,0,0,0,1.328.425,2.832,2.832,0,0,0,.957.744c.584.265,1.341.531,1.341.531s-.12.614.89,1,1.062-.254,1.062-.254l2.71.743s.5-.748.6-.967-.388.171-1.4-.2-5.1-1.858-5.74-2.761-1.91-5.044-1.751-5.947a14.32,14.32,0,0,0-.85-4.885,29.853,29.853,0,0,1-1.043-3.049Z"/><path class="cls-4" d="M39.339,122.913a7.444,7.444,0,0,0-.844,3.459c.212,1.381.85,2.655,1.54,2.549a1.821,1.821,0,0,1,1.541.691c0,.159.212-.266,1.009-.691s3.188-1.538,2.6-.583a25.83,25.83,0,0,0-1.647,2.813,7.414,7.414,0,0,0-.425,3.93c.266,1.221-.584.743.957,2.336s2.921,3.133,2.921,3.133.585,1.327.319,1.7a9.379,9.379,0,0,1-.8.9s.107.69-2.815,0-4.625-1.168-5.235-3.4.082-3.026-1.193-4.725a25.24,25.24,0,0,0-3.188-3.346s.053-1.8,0-3.663a8.908,8.908,0,0,1,.372-3.027s.425.353,1.063-.514a9.361,9.361,0,0,1,1.859-1.565c.159-.2.478,0,.478,0S39.864,121.632,39.339,122.913Z"/><path class="cls-5" d="M35.041,124.478s-1.062-.991-1.328,0a5.824,5.824,0,0,0,0,2.266s-1.487-.053-1.221.8a.985.985,0,0,0,.956.8s-.16,1.858-.106,2.176a8.882,8.882,0,0,0,.409,1.168s-.994.084-.3.706a1.705,1.705,0,0,0,1.328.513,11.114,11.114,0,0,0,1.275,1.967,5.839,5.839,0,0,1,1.275,2.231c.053.424-1.01.9-.85,1.486s.852.266.852.266a10.605,10.605,0,0,0,.635,1.953,1.851,1.851,0,0,0,.744.914s-.425.956,0,1.381,1.169-.372,1.169-.372a1.876,1.876,0,0,0,1.168.732,12.5,12.5,0,0,1,1.541.277s-.212.85.531.9.9-.372.9-.372a8.358,8.358,0,0,0,1.169.053c.85,0,1.222,0,1.488-.478a.467.467,0,0,0-.16-.69s-4.823-.266-5.785-1.275a14.543,14.543,0,0,1-2.711-5.327,11.36,11.36,0,0,0-2.182-3.912,9.629,9.629,0,0,1-1.275-3.77C34.563,127.965,35.041,124.478,35.041,124.478Z"/><path class="cls-6" d="M66.587,129.712a2.278,2.278,0,0,0,2.125,1.28c1.54-.053,3.544-.292,3.544-.292l.228,1.813a13.862,13.862,0,0,1-3.241-.125c-1.328-.281-.233.732-1.595-.6S66.587,129.712,66.587,129.712Z"/><path class="cls-6" d="M66.945,132.388s.026.8,1.873.958,3.666.115,3.666.115l.53,1.8a11.839,11.839,0,0,1-3.2-.478c-1.435-.478-2.178-.64-2.338-.957S66.945,132.388,66.945,132.388Z"/><path class="cls-6" d="M38.107,136.461a3.685,3.685,0,0,0,1.965.638,9.725,9.725,0,0,0,2.072-.638v1.593s.277,1.275-1.641.266S38.957,137.576,38.107,136.461Z"/><path class="cls-6" d="M39.611,139.594s1.487.744,2.23.319a7.167,7.167,0,0,0,1.453-1.205l.566.886s-1.541,1.752-2.5,1.434A4.382,4.382,0,0,1,39.611,139.594Z"/><path class="cls-2" d="M65.341,80.8a25.72,25.72,0,0,0-2.056,6.682c-.457,3.37.742,4.684-.514,5.826s-1.485,1.656-1.428,2.456,1.485,1.485-.628,3.141-2.021,2.36-2.021,2.36-1.463-.4.307,1.049,4.627,2.246,6.626,3.1,7.2.914,7.425.856a13.214,13.214,0,0,0,2.8-5.59c.229-2.177,1.543-7.718,1.543-8.117S65.341,80.8,65.341,80.8Z"/><path class="cls-2" d="M68.947,70.967S64.8,73.336,64.51,76.478s-2.082,2.665,1.174,7.406a60.075,60.075,0,0,0,6.511,8.4c2.8,3.141,5.833,5.083,6.058,6.111s2.566,1.314,2.566,1.314,1.706-3.141,3.709-4.226,5.487-3.085,6.572-2.571,3.484-.171,3.484-.171-1.085-1.6-3.084-5.255-6.972-12.051-6.972-12.051L70.539,71.49Z"/><path class="cls-3" d="M84.885,41.651s-7.971.473-9.24,1.311-4.834.284-6.686.937-10.626,3.172-10.626,3.172-1.7,2.048.61,5.672l2.312,3.625,1.392,1.393,11.094-3.08s-1.527.56-2.048,3.071-2.735,7.163-2.655,7.907-.17,1.3-.852,2.977-4.7,6.328-4.7,6.328,2.105.648,6.953,1.574,7.094-.751,10.556,1.2a59.14,59.14,0,0,0,9.079,3.711,12.979,12.979,0,0,1,1.549-7.674c2.122-3.4,7.82-8.237,8.145-10.469a7.972,7.972,0,0,1,2.17-4s3.632,2.228,5.561,3.342a26.088,26.088,0,0,0,4.845,1.948s.043-.651,2.114-2.42a45.874,45.874,0,0,0,4.567-4.84,43,43,0,0,1-5.558-4.365c-1.659-1.765-5.245-5.667-7.35-6.316s-4.918-1.576-4.918-1.576-6.348,5.214-7.259,6.144-3.09.654-4.09,1.864-2.683.282-2.913-1.857-1.681-5.112-1.738-6.693A20.818,20.818,0,0,0,84.885,41.651Z"/><path class="cls-5" d="M123.082,115.823c1.349.594,2.725,1.126,4.118,1.606a11.343,11.343,0,0,0-5.688-7.285,10.244,10.244,0,0,0,.659,1.982A14.81,14.81,0,0,1,123.082,115.823Z"/><path class="cls-5" d="M119.791,109.413a11.061,11.061,0,0,0-9.431,1.21l4.786,1.3Z"/><path class="cls-5" d="M108.134,119.722a.83.83,0,0,0-.121-.329c-.646-1.2-1.316-2.385-2-3.564a11.506,11.506,0,0,0-.054,8.625q1.028-2.16,2.056-4.318A.847.847,0,0,0,108.134,119.722Z"/><path class="cls-7" d="M127.2,117.429c-1.393-.48-2.769-1.012-4.118-1.606a14.81,14.81,0,0,0-.911-3.7,10.244,10.244,0,0,1-.659-1.982,10.993,10.993,0,0,0-1.721-.731l-4.645,2.515-4.786-1.3a11.344,11.344,0,0,0-4.343,5.206c.68,1.179,1.35,2.365,2,3.564a.83.83,0,0,1,.121.329.847.847,0,0,1-.115.414q-1.029,2.159-2.056,4.318a11.37,11.37,0,0,0,3.1,4.368c1.388-.149,2.775-.417,4.163-.571a.847.847,0,0,1,.407.023.86.86,0,0,1,.238.169,38.13,38.13,0,0,1,3.051,3.1,11.016,11.016,0,0,0,4.555-1.248,17.126,17.126,0,0,1,1.57-4.557q1.947-.876,3.873-1.8a11.516,11.516,0,0,0,.282-6.511Z"/><path class="cls-5" d="M121.475,130.294a11.328,11.328,0,0,0,5.443-6.354q-1.929.917-3.873,1.8A17.126,17.126,0,0,0,121.475,130.294Z"/><path class="cls-5" d="M113.869,128.443a.86.86,0,0,0-.238-.169.847.847,0,0,0-.407-.023c-1.388.154-2.775.422-4.163.571a11.064,11.064,0,0,0,7.285,2.735c.192,0,.384,0,.574-.015A38.13,38.13,0,0,0,113.869,128.443Z"/><polygon class="cls-5" points="115.47 115.829 111.205 120.324 114.327 125.617 120.839 124.665 121.181 118.039 115.47 115.829"/><path class="cls-5" d="M122.817,126.338a11.575,11.575,0,0,0-1.646-1.4,2.135,2.135,0,0,0-.692-.258l0-.457h0a2.476,2.476,0,0,1,.954.341,12,12,0,0,1,1.711,1.452Z"/><path class="cls-5" d="M121.114,118.315l-.437-.133a3.588,3.588,0,0,1,.862-1.2c.131-.139.254-.27.35-.389.056-.069.108-.142.16-.215a3.275,3.275,0,0,1,.3-.38,1.061,1.061,0,0,1,.83-.36l-.038.455a.617.617,0,0,0-.464.224,2.83,2.83,0,0,0-.26.327c-.057.08-.114.16-.176.236-.1.127-.233.267-.371.415A3.336,3.336,0,0,0,121.114,118.315Z"/><path class="cls-5" d="M115.3,116.116c-.017-.213-.008-.489,0-.757s.016-.519,0-.706a21.663,21.663,0,0,0-.327-2.7l.448-.093a22.359,22.359,0,0,1,.335,2.758c.017.212.008.489,0,.756s-.016.52,0,.706Z"/><path class="cls-5" d="M111.725,120.705a10.637,10.637,0,0,1-1.98-.42c-.217-.06-.424-.117-.609-.164-.088-.022-.175-.046-.263-.07a3.368,3.368,0,0,0-.838-.156l0-.457a3.707,3.707,0,0,1,.955.173c.084.023.169.046.253.067.188.047.4.105.62.166a10.355,10.355,0,0,0,1.885.405Z"/><path class="cls-5" d="M113.337,128.348a2.8,2.8,0,0,1,.2-1.4c.093-.248.2-.488.312-.72.076-.163.152-.325.221-.491a1.153,1.153,0,0,1,.292-.468l.3.348a.737.737,0,0,0-.157.275c-.081.192-.159.36-.237.529-.106.226-.212.453-.3.686a2.371,2.371,0,0,0-.173,1.174Z"/><path class="cls-2" d="M86.265,41.2s.886,5.056,1.033,6.966,2.548,4.922,2.548,4.922a36.64,36.64,0,0,1,3.767-2.394A43.566,43.566,0,0,0,99.4,46.414l3.242-1.575-.42,2.366s-2.093,5.287-7.005,6.455-5.6,4.636-5.6,4.636-5.161-5.789-5.14-9.265-3.959-7.015-3.959-7.015S84.628,38.717,86.265,41.2Z"/><path class="cls-7" d="M67.759,76s-1.2,2.469-.685,4.23c1.027,3.5,2.779,4.4,4.836,6.825s5.663,5.8,6.03,6.491a55.443,55.443,0,0,0,4.111,4.284l1.859-1.943a18.781,18.781,0,0,1-7.867-6.405c-2.763-4.34-7.642-6.854-7.1-10.737a15.983,15.983,0,0,1,.574-2.384Z"/><path class="cls-7" d="M79.744,42.1s2.046,1.286,2.5,2.542a35.343,35.343,0,0,1,1.663,4.64c.394,1.757-.547,2.043,1.323,4.727s3.925,5.94,3.925,5.94l.514,1.314a5.567,5.567,0,0,1,1.371-4,23.563,23.563,0,0,1,4.741-3.141,30.963,30.963,0,0,0,3.184-2.442,37.55,37.55,0,0,1-4.384,1.756c-1.77.514-5.228,3.256-5.228,3.256s-2.825-2.8-3.225-4.17-1.256-6.511-1.942-7.539a32.116,32.116,0,0,0-3.171-3.337Z"/><path class="cls-8" d="M80.4,48.582a8.853,8.853,0,0,1-6.663,6.1"/><path class="cls-8" d="M58.112,51.322c3.19-.514,6.455-1.053,9.274-2.632.813-.455,1.579-.992,2.41-1.411A25.009,25.009,0,0,1,72.544,46.2c2.8-1.012,6.118-2.992,9.059-2.545"/><path class="cls-8" d="M59.115,52.645c2.91-1.072,6.217-.813,9.036-2.106,1.357-.623,2.537-1.579,3.881-2.228,1.7-.819,3.591-1.122,5.338-1.823a14.174,14.174,0,0,1,1.546-.591c.946-.258,2.352-1.308,3.331-1.252"/><path class="cls-8" d="M71.043,124.889c1.871,3.723.923,8.405,2.871,12.088a2.817,2.817,0,0,0,1.07,1.229"/><path class="cls-8" d="M41.462,129.838a14.249,14.249,0,0,1,.483,3.733,12.417,12.417,0,0,0,.061,2.14,8.663,8.663,0,0,0,1.586,3.261,4.5,4.5,0,0,0,2.528,2.212"/><path class="cls-8" d="M68.026,119.78a10.666,10.666,0,0,0-.748,2.053,2.843,2.843,0,0,0,.11,2.16,2.524,2.524,0,0,0,2.276.977"/><path class="cls-8" d="M65.468,125.241c.3.124.616-.151.749-.444a3.176,3.176,0,0,1,.4-.873"/><path class="cls-8" d="M41.867,132.1a3.606,3.606,0,0,1,1.283.115"/><path class="cls-8" d="M41.96,133.229a2.972,2.972,0,0,1,1.049-.111"/><path class="cls-8" d="M41.955,134.9a3.5,3.5,0,0,1,1.2-.079"/><path class="cls-8" d="M42.205,136.649a2.233,2.233,0,0,1,1.089-.127"/><path class="cls-8" d="M43,138a.876.876,0,0,1,.557-.359,2.649,2.649,0,0,1,.678-.033"/><path class="cls-8" d="M43.725,139.178c.158-.1.248-.286.393-.409a1.376,1.376,0,0,1,1-.187"/><path class="cls-8" d="M44.613,140.178a.993.993,0,0,0,.341-.276.732.732,0,0,1,.21-.222.509.509,0,0,1,.208-.042c.24-.013.481-.015.721-.007"/><path class="cls-8" d="M71.882,127.645a12.959,12.959,0,0,1,1.589.008,8.205,8.205,0,0,1,1.292.228"/><path class="cls-8" d="M72.192,129.137a7.571,7.571,0,0,1,1.3-.044,2.408,2.408,0,0,1,.306.021,2.375,2.375,0,0,1,.31.076l.8.233"/><path class="cls-8" d="M72.4,130.83q.918-.037,1.839-.027a1.164,1.164,0,0,1,.591.113"/><path class="cls-8" d="M72.681,132.5a9.878,9.878,0,0,1,2.226.114"/><path class="cls-8" d="M73,134.7a3.94,3.94,0,0,1,2.055-.4"/><path class="cls-9" d="M106.681,40.086c.526-.543,1.575-.435.977,1.348-.029.086-.021.179-.052.264a3.651,3.651,0,0,1-1.79,1.8,2.214,2.214,0,0,1-.657.266.888.888,0,0,1-.681-.126"/><path class="cls-9" d="M106.864,27.2s3.18,2.7,2.466,5.376a24.439,24.439,0,0,1-1.841,4.769s.453,1.787-1.356,4.345-3.693,3.026-6.175,3.756c-2.782.817-4.579,1.525-6.2.461s-5.714-5.341-5.725-8.471,1.13-8.388,2.353-10.362,1.811-4.9,4.8-5.222,7.983,1.6,9.423,2.608A7.892,7.892,0,0,1,106.864,27.2Z"/><path class="cls-10" d="M94.149,22.884s1.587-.131,3.4-.178a8.972,8.972,0,0,1,5.069,1.358c1.239.879,1.212,1.23,2.772,1.707s1.146,1.122,1.474,1.427a16.309,16.309,0,0,1,1.859,2.937c.148.482.827,2.848.166,3.891a15.691,15.691,0,0,0-1.252,3.027s3.475-3.318,3.425-5.524a4.08,4.08,0,0,0-1-3.009s1.588.048,1.611,1,1.04-1.318.077-2.193a9.727,9.727,0,0,0-2.376-1.473s.272.28,1.334-.623a5.551,5.551,0,0,0,1.587-2.92c-.046-.2-.684,1.193-1.527,1.563a7.288,7.288,0,0,1-2.637.206,5.646,5.646,0,0,0,2.489-2.3,3.077,3.077,0,0,0-.288-3.97,6.359,6.359,0,0,1-1.242-2.108,1.819,1.819,0,0,1-.669,2.094,8.289,8.289,0,0,1-3.186,1.427c-.171.005.607-.349,1.11-1.431a5.614,5.614,0,0,0,.322-2.589,2.864,2.864,0,0,1-2.183,1.993,8.426,8.426,0,0,1-3.787-.006c-1.558-.186-3.489-.49-4.214.231s.528-1.122,1.336-1.346-.835-.183-1.988.329-3.052.784-3.565,1.972-.732,1.72-.732,1.72a2.4,2.4,0,0,0-.828-1.182c-.619-.44-1.45-.9-.723,0a3.755,3.755,0,0,1,.81,1.84,21.788,21.788,0,0,0-2.722-1.185c-.422-.039,1.893,1.173,2,1.459s-.889.174-2.017.645,1.381.021,1.381.021a9.308,9.308,0,0,0-2.383,3.485A17.976,17.976,0,0,0,86.017,31.5c.127,1.863,1.825,1.912,1.792,2.5a4.267,4.267,0,0,0,.634,1.676s1.2-5,1.561-6.115.077-2.851,1.389-3.32A3.836,3.836,0,0,0,94.149,22.884Z"/><path class="cls-9" d="M88.051,32.081s-.529-1.432-1.563-1.41S84.43,30.728,84.3,32.1s1.122,2.09,1.128,2.874a5.2,5.2,0,0,0,.321,1.983c.228.532,1.529,1.673,2,.907l.766-1.235"/><path class="cls-11" d="M87.209,32.434c-.239-.206-.567-.419-.847-.272a.554.554,0,0,0-.242.575,1.611,1.611,0,0,0,.271.6l.3.472a.662.662,0,0,1,.108.237.8.8,0,0,1-.108.424,2.025,2.025,0,0,0-.141,1.035.388.388,0,0,0,.364.389,1.511,1.511,0,0,0,.9-.078"/><path class="cls-12" d="M98.294,30.9a3.069,3.069,0,0,0-2.235,1.356c-.7,1.226,1.036,2.294,1.322,2.391.631.214,2.152-1.824,2.083-2.465S98.887,30.554,98.294,30.9Z"/><path class="cls-13" d="M97.726,32.376s-.857.956-.282,1.648,1.076-.018,1.291-.2c.387-.338.528-1.478.021-1.671A.982.982,0,0,0,97.726,32.376Z"/><path class="cls-12" d="M106.228,34.805a3.066,3.066,0,0,0-2.235,1.356c-.7,1.226,1.036,2.294,1.322,2.391.631.214,2.152-1.824,2.083-2.465S106.821,34.463,106.228,34.805Z"/><path class="cls-13" d="M105.661,36.285s-.858.956-.283,1.648,1.077-.018,1.291-.206c.387-.337.528-1.478.021-1.671A.98.98,0,0,0,105.661,36.285Z"/><path class="cls-14" d="M98.046,28.186a3.171,3.171,0,0,1,2.291-.462,1.253,1.253,0,0,1,.471.086,1.19,1.19,0,0,1,.359.3,7.53,7.53,0,0,1,.989,1.406"/><path class="cls-14" d="M104.549,32.586c-1.2,1.454-3.04,4.239-3.135,5.851-.042.72-.152,1.876-1.531.809-.57-.441-1.237-.77-1.516-1.434"/><path class="cls-14" d="M108.2,32.613a3.451,3.451,0,0,0-2.274-.679"/><path class="cls-14" d="M95.906,39.031a2.423,2.423,0,0,1,.2.474,3.043,3.043,0,0,0,3.613,1.879"/></svg>