<svg id="word" xmlns="http://www.w3.org/2000/svg" viewBox="0 0 160 160"><defs><style>.cls-1{fill:#1b75ba;}.cls-1,.cls-10,.cls-11,.cls-12,.cls-14,.cls-16,.cls-17,.cls-18,.cls-19,.cls-2,.cls-20,.cls-21,.cls-22,.cls-23,.cls-24,.cls-25,.cls-27,.cls-28,.cls-3,.cls-4,.cls-5,.cls-8{stroke:#9c4c9c;}.cls-1,.cls-10,.cls-11,.cls-12,.cls-14,.cls-16,.cls-17,.cls-18,.cls-19,.cls-2,.cls-20,.cls-21,.cls-22,.cls-23,.cls-24,.cls-25,.cls-28,.cls-3,.cls-4,.cls-5,.cls-8{stroke-miterlimit:10;}.cls-1,.cls-10,.cls-11,.cls-12,.cls-14,.cls-16,.cls-17,.cls-18,.cls-19,.cls-2,.cls-20,.cls-3,.cls-4,.cls-5,.cls-8{stroke-width:0.624px;}.cls-2{fill:#fde1d3;}.cls-3{fill:#f8e5b0;}.cls-4{fill:#c1976b;}.cls-5{fill:#8ac440;}.cls-6{fill:#9c4c9c;}.cls-7{fill:#87d4f6;}.cls-19,.cls-27,.cls-29,.cls-8{fill:none;}.cls-9{fill:#9a6aab;}.cls-10{fill:#fcd600;}.cls-11,.cls-18{fill:#ffcf83;}.cls-12{fill:#ef6423;}.cls-13{fill:#ec509a;}.cls-14{fill:#ee3f5f;}.cls-15{fill:#231f20;}.cls-16{fill:#f7ea2f;}.cls-17{fill:#ef6f80;}.cls-18,.cls-19{stroke-linecap:round;}.cls-20,.cls-25{fill:#fbe4d6;}.cls-21{fill:#f498a8;}.cls-21,.cls-22,.cls-23,.cls-24,.cls-25,.cls-26,.cls-27,.cls-28,.cls-29{stroke-width:0.417px;}.cls-22{fill:#e18d9d;}.cls-23{fill:#b77473;}.cls-24{fill:#f59120;}.cls-26{fill:#fbe0c9;}.cls-26,.cls-29{stroke:#221f1f;}.cls-28{fill:#14a7df;}</style></defs><path class="cls-1" d="M68.45,103.544c.027-.353-.416-.526-.765-.579-7.071-1.081-14.2,1.017-21.044,3.091-1.211.367-2.577.874-3.02,2.058a4.145,4.145,0,0,0-.152,1.621l.216,5.6c2.79,1.407,6.135.246,9.021-.954q5.563-2.314,11.065-4.778a9.68,9.68,0,0,0,1.851-1,4.712,4.712,0,0,0,1.842-4.48"/><path class="cls-2" d="M55.119,29.317s1.821,9.558,3.642,12.061,3.868,10.24,1.365,14.792-11.834,5.689-11.834,5.689H45.334l2.048-25.943Z"/><polygon class="cls-3" points="43.627 64.59 47.444 67.559 50.781 70.82 49.772 95.482 18.879 107.429 20.074 86.01 26.389 68.003 43.627 64.59"/><path class="cls-1" d="M42.262,70.905c-1.2,1.536-3.755,5.632-4.1,9.558s-3.926,11.776,0,14,10.582-1.365,10.582-1.365v19.969s14.848-8.7,15.872-9.387,5.31-2.8,7.187.619,2.328,7.834-2.749,12.523c-2.761,2.55-22.359,14.678-26.625,15.7s-12.289,2.56-15.873.853-5.121.171-8.7-1.024-8.534-5.12-6.486-16.214,7.51-28.674,7.51-28.674L26.389,68h2.048L21.61,86.01s7.168,1.45,8.363,1.28,2.39-2.731,2.731-3.755S39.36,68,39.36,68s1.925-2.1,3.569-2.389a5.777,5.777,0,0,1,2.2-.129l2.32,2.074Z"/><path class="cls-4" d="M41.579,19.019s-10.411-.512-15.19,4.1S17,37.509,18.879,45.588s4.267,10.468,1.707,14.052-4.1,3.926-4.1,3.926S17.343,65.443,27.242,68s16.989-.427,17.882-2.518,2.429-1.407,5.5-.895,3.926.682,4.779,0,3.755-2.731,3.755-2.731-4.526,2.9-5.847-1.878-1.154-19.286.042-21.675,2.477-5.665,2.477-5.665,1.28,1.056,3.328-.48,2.048-5.8,0-8.7A9.778,9.778,0,0,0,50.625,19C46.87,19.019,41.579,19.019,41.579,19.019Z"/><path class="cls-5" d="M49.772,21.067s3.54,6.119,2.088,11.03c-.572,1.936-2.088,9.11-2.088,9.11s.853-11.264-1.707-14.678-6.486-7.51-6.486-7.51l5.179-.682Z"/><path class="cls-6" d="M49.741,42.27c-.111,2.44-.376,4.875-.265,7.293a15.209,15.209,0,0,0,1.687,6.912,8.5,8.5,0,0,0,5.271,4.417,6.386,6.386,0,0,0,6.5-1.99,5.588,5.588,0,0,1-2.886,2.225,7.219,7.219,0,0,1-3.713.233,8.845,8.845,0,0,1-5.713-4.586A15.1,15.1,0,0,1,49,49.573a34.816,34.816,0,0,1,.224-3.673C49.386,44.687,49.55,43.477,49.741,42.27Z"/><path class="cls-6" d="M48.2,33.308a12.934,12.934,0,0,1-.168,3.948,25.392,25.392,0,0,1-1.131,3.8,67.039,67.039,0,0,0-2.664,7.374,13.321,13.321,0,0,0-.453,3.814,12.572,12.572,0,0,0,.789,3.761,32.843,32.843,0,0,0,3.832,6.82,26.449,26.449,0,0,1-4.28-6.648,11.784,11.784,0,0,1-.908-3.9,13.8,13.8,0,0,1,.416-3.993,57.5,57.5,0,0,1,2.824-7.4A18.288,18.288,0,0,0,48.2,33.308Z"/><path class="cls-6" d="M44.28,23.1a13.383,13.383,0,0,1-.435,5.776,24.461,24.461,0,0,1-2.388,5.329c-1.972,3.363-4.475,6.36-6.172,9.8a18.505,18.505,0,0,0-1.92,11.1,18.168,18.168,0,0,0,1.627,5.487c.8,1.749,1.81,3.421,2.557,5.21-.84-1.747-1.926-3.35-2.831-5.076a18.467,18.467,0,0,1-1.828-5.551,18.7,18.7,0,0,1,1.838-11.446c1.788-3.5,4.291-6.5,6.319-9.767a24.325,24.325,0,0,0,2.508-5.173A13.222,13.222,0,0,0,44.28,23.1Z"/><path class="cls-6" d="M40.233,22.352a63.716,63.716,0,0,0-6.016,2.473,20.735,20.735,0,0,0-5.356,3.555,12.715,12.715,0,0,0-3.48,5.266,13.942,13.942,0,0,0-.376,6.312c.576,4.269,2.618,8.182,3.771,12.41a9.834,9.834,0,0,1-.172,6.513,6.3,6.3,0,0,1-2.136,2.491,4.32,4.32,0,0,1-3.126.709,4.243,4.243,0,0,0,3.039-.835,6.063,6.063,0,0,0,1.945-2.49,9.5,9.5,0,0,0-.013-6.264c-1.219-4.116-3.276-8.053-3.925-12.446a14.557,14.557,0,0,1,.454-6.577,12.72,12.72,0,0,1,3.7-5.44,21,21,0,0,1,5.552-3.479A63.924,63.924,0,0,1,40.233,22.352Z"/><path class="cls-7" d="M19.933,93.6s-1.993-3.021-.307-2.626S19.933,93.6,19.933,93.6Z"/><path class="cls-7" d="M19.907,94.2s-1.345,2.386-.272,3.329S19.907,94.2,19.907,94.2Z"/><path class="cls-7" d="M19.888,94.069s2.876-1.208,2.268.573S19.888,94.069,19.888,94.069Z"/><path class="cls-7" d="M19.707,93.955s-1.8-2.044-2.031-.263S19.707,93.955,19.707,93.955Z"/><path class="cls-7" d="M32.9,99.086s-2.725-3.02-.419-2.625S32.9,99.086,32.9,99.086Z"/><path class="cls-7" d="M32.864,99.688s-1.839,2.386-.372,3.329S32.864,99.688,32.864,99.688Z"/><path class="cls-7" d="M32.839,99.561s3.932-1.208,3.1.572S32.839,99.561,32.839,99.561Z"/><path class="cls-7" d="M32.591,99.446s-2.464-2.043-2.778-.262S32.591,99.446,32.591,99.446Z"/><path class="cls-7" d="M26.033,104.042s-2.725-3.021-.42-2.625S26.033,104.042,26.033,104.042Z"/><path class="cls-7" d="M26,104.643s-1.84,2.386-.372,3.33S26,104.643,26,104.643Z"/><path class="cls-7" d="M25.971,104.516s3.933-1.208,3.1.573S25.971,104.516,25.971,104.516Z"/><path class="cls-7" d="M25.723,104.4s-2.463-2.044-2.777-.262S25.723,104.4,25.723,104.4Z"/><path class="cls-7" d="M32.567,111.425s-2.725-3.021-.419-2.625S32.567,111.425,32.567,111.425Z"/><path class="cls-7" d="M32.531,112.027s-1.839,2.385-.371,3.329S32.531,112.027,32.531,112.027Z"/><path class="cls-7" d="M32.506,111.9s3.933-1.208,3.1.573S32.506,111.9,32.506,111.9Z"/><path class="cls-7" d="M32.258,111.785s-2.463-2.044-2.778-.262S32.258,111.785,32.258,111.785Z"/><path class="cls-7" d="M32.922,89.849S30.5,87.261,32.55,87.6,32.922,89.849,32.922,89.849Z"/><path class="cls-7" d="M32.89,90.365s-1.633,2.044-.33,2.852S32.89,90.365,32.89,90.365Z"/><path class="cls-7" d="M32.867,90.256s3.491-1.035,2.754.49S32.867,90.256,32.867,90.256Z"/><path class="cls-7" d="M32.647,90.158s-2.186-1.751-2.466-.225S32.647,90.158,32.647,90.158Z"/><path class="cls-6" d="M26.017,88.606a42.406,42.406,0,0,0-3.329,7.9,32.371,32.371,0,0,0-.933,8.474l-.288,8.616c-.122,2.872-.254,5.743-.456,8.613-.058-2.876-.045-5.751-.024-8.625l.145-8.62a30.859,30.859,0,0,1,1.1-8.592A33.593,33.593,0,0,1,26.017,88.606Z"/><path class="cls-8" d="M25.722,116.878a61.538,61.538,0,0,0,7.747.762c1.187.041,2.6-.07,3.208-1.09a23.232,23.232,0,0,0,.2,8,4.93,4.93,0,0,1,.154,1.986c-.445,2.082-3.415,2.543-4.41,4.425l-.933-1.038c-1.484-1.651-3.166-3.41-5.37-3.681l-.6-7.647"/><polyline class="cls-8" points="11.779 115.543 16.984 116.075 16.393 126.127 13.524 128.87"/><path class="cls-7" d="M45.034,100.456s-2.725-3.021-.42-2.625S45.034,100.456,45.034,100.456Z"/><path class="cls-7" d="M45,101.058s-1.84,2.385-.372,3.329S45,101.058,45,101.058Z"/><path class="cls-7" d="M44.972,100.93s3.933-1.208,3.1.573S44.972,100.93,44.972,100.93Z"/><path class="cls-7" d="M44.724,100.816s-2.463-2.044-2.777-.262S44.724,100.816,44.724,100.816Z"/><path class="cls-7" d="M40.21,106.784s-2.726-3.021-.42-2.625S40.21,106.784,40.21,106.784Z"/><path class="cls-7" d="M40.174,107.386s-1.84,2.385-.372,3.329S40.174,107.386,40.174,107.386Z"/><path class="cls-7" d="M40.148,107.258s3.933-1.207,3.1.573S40.148,107.258,40.148,107.258Z"/><path class="cls-7" d="M39.9,107.144s-2.463-2.044-2.777-.262S39.9,107.144,39.9,107.144Z"/><path class="cls-7" d="M45.616,116.613s-2.726-3.021-.42-2.625S45.616,116.613,45.616,116.613Z"/><path class="cls-7" d="M45.58,117.214s-1.84,2.386-.372,3.329S45.58,117.214,45.58,117.214Z"/><path class="cls-7" d="M45.554,117.087s3.933-1.208,3.1.573S45.554,117.087,45.554,117.087Z"/><path class="cls-7" d="M45.306,116.973s-2.463-2.044-2.777-.262S45.306,116.973,45.306,116.973Z"/><path class="cls-7" d="M66.5,109.554s-2.725-3.02-.419-2.625S66.5,109.554,66.5,109.554Z"/><path class="cls-7" d="M66.468,110.156s-1.839,2.386-.372,3.329S66.468,110.156,66.468,110.156Z"/><path class="cls-7" d="M66.443,110.029s3.932-1.208,3.1.572S66.443,110.029,66.443,110.029Z"/><path class="cls-7" d="M66.194,109.914s-2.463-2.044-2.777-.262S66.194,109.914,66.194,109.914Z"/><path class="cls-7" d="M56.057,114.065s-2.725-3.021-.419-2.625S56.057,114.065,56.057,114.065Z"/><path class="cls-7" d="M56.021,114.666s-1.839,2.386-.372,3.329S56.021,114.666,56.021,114.666Z"/><path class="cls-7" d="M56,114.539s3.933-1.208,3.1.573S56,114.539,56,114.539Z"/><path class="cls-7" d="M55.747,114.425s-2.463-2.044-2.777-.262S55.747,114.425,55.747,114.425Z"/><path class="cls-7" d="M42.483,126.845s-2.725-3.021-.419-2.625S42.483,126.845,42.483,126.845Z"/><path class="cls-7" d="M42.447,127.447s-1.839,2.385-.372,3.329S42.447,127.447,42.447,127.447Z"/><path class="cls-7" d="M42.421,127.319s3.933-1.208,3.1.573S42.421,127.319,42.421,127.319Z"/><path class="cls-7" d="M42.173,127.205s-2.463-2.044-2.777-.262S42.173,127.205,42.173,127.205Z"/><path class="cls-7" d="M16.961,110.091s-2.726-3.021-.42-2.625S16.961,110.091,16.961,110.091Z"/><path class="cls-7" d="M16.925,110.692s-1.84,2.386-.372,3.329S16.925,110.692,16.925,110.692Z"/><path class="cls-7" d="M16.9,110.565s3.933-1.208,3.1.573S16.9,110.565,16.9,110.565Z"/><path class="cls-7" d="M16.651,110.451s-2.463-2.044-2.777-.262S16.651,110.451,16.651,110.451Z"/><path class="cls-7" d="M35.488,81.607s-1.543-1.911-.238-1.661S35.488,81.607,35.488,81.607Z"/><path class="cls-7" d="M35.467,81.988s-1.041,1.509-.21,2.105S35.467,81.988,35.467,81.988Z"/><path class="cls-7" d="M35.453,81.907s2.226-.764,1.756.362S35.453,81.907,35.453,81.907Z"/><path class="cls-7" d="M35.313,81.835s-1.4-1.293-1.573-.166S35.313,81.835,35.313,81.835Z"/><path class="cls-7" d="M62.679,116.715s-2.025-2.145-.311-1.864S62.679,116.715,62.679,116.715Z"/><path class="cls-7" d="M62.653,117.142s-1.367,1.7-.277,2.365S62.653,117.142,62.653,117.142Z"/><path class="cls-7" d="M62.634,117.052s2.923-.858,2.306.407S62.634,117.052,62.634,117.052Z"/><path class="cls-7" d="M62.449,116.971s-1.83-1.452-2.064-.186S62.449,116.971,62.449,116.971Z"/><path class="cls-7" d="M52.126,122.264s-2.725-3.02-.419-2.625S52.126,122.264,52.126,122.264Z"/><path class="cls-7" d="M52.09,122.866s-1.839,2.386-.371,3.329S52.09,122.866,52.09,122.866Z"/><path class="cls-7" d="M52.065,122.739s3.933-1.208,3.1.572S52.065,122.739,52.065,122.739Z"/><path class="cls-7" d="M51.817,122.624s-2.463-2.043-2.778-.262S51.817,122.624,51.817,122.624Z"/><path class="cls-9" d="M31.568,122.455s-2.725-3.021-.419-2.625S31.568,122.455,31.568,122.455Z"/><path class="cls-9" d="M31.532,123.057s-1.839,2.385-.372,3.329S31.532,123.057,31.532,123.057Z"/><path class="cls-9" d="M31.507,122.929s3.933-1.208,3.1.573S31.507,122.929,31.507,122.929Z"/><path class="cls-9" d="M31.259,122.815s-2.463-2.044-2.778-.262S31.259,122.815,31.259,122.815Z"/><path class="cls-10" d="M79.408,105.156a3.92,3.92,0,0,1-1.3.1c-.038-.005-.074-.019-.112-.027a19.893,19.893,0,0,0,1.557,4.63c1.761,2.986,3.581,2.026,4.035.486a31.5,31.5,0,0,0-.322-6.03,4.4,4.4,0,0,1-1,.282Zm2.986,2.1a2.17,2.17,0,0,1-.166.837,1,1,0,0,1-.615.561,1.012,1.012,0,0,1-.823-.175,2.338,2.338,0,0,1-.584-.637c-.29-.425-.325-.159-.516-.636l-.224-.872,2.835-.255A5.222,5.222,0,0,1,82.394,107.258Z"/><path class="cls-11" d="M76.08,95.1S76.9,100.764,78,105.233c.038.008.074.022.112.027a3.92,3.92,0,0,0,1.3-.1l2.859-.555a4.4,4.4,0,0,0,1-.282c-.485-4.62-1.25-10.148-1.25-10.148Z"/><path class="cls-11" d="M79.69,107.208c.191.477.226.211.516.636a2.338,2.338,0,0,0,.584.637,1.012,1.012,0,0,0,.823.175,1,1,0,0,0,.615-.561,2.17,2.17,0,0,0,.166-.837,5.222,5.222,0,0,0-.093-1.177l-2.835.255Z"/><path class="cls-11" d="M77.587,64.7l-1.5,2.992s1.607,2.422,3.174,2.23a4.673,4.673,0,0,0,2.7-1.641,16.366,16.366,0,0,0-.266-2.165C81.524,65.525,77.587,64.7,77.587,64.7Z"/><path class="cls-11" d="M71.923,52.108s-.17,7.756-.034,8.862,1.572,4.672,7.5,5.192a9.591,9.591,0,0,0,9.38-4.9c.494-1.058,2.083-11.484,2.083-11.484s-5.708-2.792-8.412-2.46S71.923,52.108,71.923,52.108Z"/><path class="cls-12" d="M81.6,43.247a7.15,7.15,0,0,0-6.321-1.189C71.862,43.226,67.906,46.831,68,49.1s3.181,6.1,3.181,6.1.042-3.467.744-3.085S79.69,48.8,80.887,47.62,81.6,43.247,81.6,43.247Z"/><path class="cls-12" d="M81.6,43.247s5.1-3.153,8.305-1.207,6.268,6.341,5.468,8.966S89.7,56.869,89.7,56.869l-.131-3.934s-3.917-2.6-5.316-3.319-3.362-2-3.362-2Z"/><polygon class="cls-13" points="79.682 54.336 78.564 58.18 80.775 58.319 79.682 54.336"/><path class="cls-11" d="M61.282,72.129s-5.489,2.545-4.041,4.426,6.108-1.312,6.108-1.312Z"/><path class="cls-11" d="M92.272,79.083l3.866-2.757S100.2,81.2,97.409,82.1s-5.054-2.345-5.054-2.345Z"/><path class="cls-14" d="M76.556,66.749l-7.71.038-9.075,5.527A4.274,4.274,0,0,1,61.5,73.88c.493.969,1.228,2.376,1.228,2.376l8.052-4.451-1.485,6.919s5.658,2.6,8.5,2.852,6.85.41,6.85.41l1.3-8.729,5.956,6.587,4.69-2.945s-5.2-6.087-6.076-6.982-8.157-2.247-8.157-2.247l-.435.053s-1.692,1.331-2.761,1.182S76.556,66.749,76.556,66.749Z"/><ellipse class="cls-15" cx="74.864" cy="54.928" rx="0.996" ry="1.022" transform="translate(-6.137 9.535) rotate(-7.002)"/><ellipse class="cls-16" cx="77.886" cy="72.242" rx="0.96" ry="0.929" transform="translate(-8.225 10.033) rotate(-7.002)"/><path class="cls-10" d="M63.728,103.858a3.95,3.95,0,0,1-1.167-.586c-.029-.024-.053-.055-.081-.081a19.91,19.91,0,0,0-1.069,4.766c-.042,3.467,2.011,3.589,3.2,2.508a31.432,31.432,0,0,0,2.851-5.324,4.4,4.4,0,0,1-1-.275Zm1.464,3.345a2.172,2.172,0,0,1-.577.63,1,1,0,0,1-.816.161,1.015,1.015,0,0,1-.613-.577,2.347,2.347,0,0,1-.17-.847c-.027-.514-.2-.3-.111-.812l.26-.862,2.557,1.253A5.2,5.2,0,0,1,65.192,107.2Z"/><path class="cls-11" d="M66.1,93.533s-2.233,5.271-3.616,9.658c.028.026.052.057.081.081a3.95,3.95,0,0,0,1.167.586l2.733,1.008a4.4,4.4,0,0,0,1,.275c1.98-4.2,4.192-9.326,4.192-9.326Z"/><path class="cls-11" d="M62.905,105.758c-.084.508.084.3.111.812a2.347,2.347,0,0,0,.17.847,1.015,1.015,0,0,0,.613.577,1,1,0,0,0,.816-.161,2.172,2.172,0,0,0,.577-.63,5.2,5.2,0,0,0,.53-1.054L63.165,104.9Z"/><path class="cls-17" d="M75.571,78.047a38.9,38.9,0,0,1-.181,5.608c-.477,4.5-1.729,8.894-2.43,13.357a31.3,31.3,0,0,0,3.131.2,105.527,105.527,0,0,0,.7-19Z"/><path class="cls-17" d="M74.69,77.929l-1.963-.262a104.069,104.069,0,0,1-8.735,16.312,17.561,17.561,0,0,0,3.4,1.75c.033.013.069.022.1.035,1.627-3.756,3.974-7.233,5.4-11.086A46.734,46.734,0,0,0,74.69,77.929Z"/><path class="cls-14" d="M75.571,78.047l-.881-.118a46.734,46.734,0,0,1-1.79,6.749c-1.43,3.853-3.777,7.33-5.4,11.086a23.475,23.475,0,0,0,5.464,1.248c.7-4.463,1.953-8.857,2.43-13.357A38.9,38.9,0,0,0,75.571,78.047Z"/><path class="cls-14" d="M68.988,77.474s-2.842,2-6.493,4.353c-2.611,1.681-5.2,5.6-5.2,5.6s.425.644,1.2,1.586q5.553-5.905,11.289-11.636Z"/><path class="cls-14" d="M71.158,77.458A104.152,104.152,0,0,1,60.7,91.36a23.282,23.282,0,0,0,3.3,2.619,104.069,104.069,0,0,0,8.735-16.312Z"/><path class="cls-17" d="M71.158,77.458l-.976-.131-.39.048Q64.059,83.108,58.5,89.011A27.259,27.259,0,0,0,60.7,91.36,104.152,104.152,0,0,0,71.158,77.458Z"/><path class="cls-14" d="M77.95,78.365l-1.163-.156a105.527,105.527,0,0,1-.7,19,35.056,35.056,0,0,0,3.711-.15A105.629,105.629,0,0,0,77.95,78.365Z"/><path class="cls-17" d="M82.983,79.037l-1.913-.256.56,2.433c.3,1.319.608,2.64,1.023,3.929,1.147,3.562,3.139,6.9,4.128,10.466,1-.343,1.918-.676,2.747-.986a63.207,63.207,0,0,0-4.8-11.982Q83.855,80.838,82.983,79.037Z"/><path class="cls-17" d="M94.252,92.711a28.816,28.816,0,0,0-3.663-6.972,81.152,81.152,0,0,0-5.213-6.382l-1.087-.146a99.131,99.131,0,0,1,8.684,14.052C93.8,92.918,94.252,92.711,94.252,92.711Z"/><path class="cls-14" d="M84.289,79.211l-1.306-.174q.871,1.8,1.742,3.6a63.207,63.207,0,0,1,4.8,11.982c1.456-.545,2.631-1.02,3.445-1.36A99.131,99.131,0,0,0,84.289,79.211Z"/><path class="cls-14" d="M81.63,81.214l-.56-2.433-1.718-.229a103.438,103.438,0,0,0,3.173,14.185,33.931,33.931,0,0,1,1,3.774,24.726,24.726,0,0,0,2.91-.781c.119-.04.233-.08.35-.121-.989-3.562-2.981-6.9-4.128-10.466C82.238,83.854,81.934,82.533,81.63,81.214Z"/><path class="cls-17" d="M79.352,78.552l-1.4-.187a105.629,105.629,0,0,1,1.852,18.7,33.446,33.446,0,0,0,3.719-.553,33.931,33.931,0,0,0-1-3.774A103.438,103.438,0,0,1,79.352,78.552Z"/><ellipse class="cls-15" cx="84.632" cy="54.757" rx="0.996" ry="1.022" transform="translate(-6.044 10.725) rotate(-7.002)"/><path class="cls-18" d="M77.318,59.546a3.4,3.4,0,0,0,2.141,1.44,2.124,2.124,0,0,0,2.232-1.06"/><path class="cls-12" d="M70.073,55.329s-11.1,5.575-10.948,7.614.789,2.617,1.989,1.721a8.766,8.766,0,0,0,2.091-2.784s-4.149,6.6-2.992,6.876,5.009-4.5,5.009-4.5-3.335,5.181-2.14,6.532,3.259-4.7,3.259-4.7-1.014,5.458.2,5.4S69.769,63.6,69.769,63.6s-1.582,6.089.042,6.357,1.368-14.765,1.368-14.765l-1.116-.7Z"/><path class="cls-12" d="M91.069,57.148s6.43,4.357,7.774,6.157,2.1,4.14,1.6,4.669a.878.878,0,0,1-1.106.136s-.256,4.148-1.112,3.972-1.38-1.608-1.38-1.608,1.209,4.717-.081,4.876-3.312-4.366-3.312-4.366,1.656,3.072-.348,2.757-2.419-5.224-2.419-5.224-.2,3.674-1.377,2.508-.543-9.758-.543-9.758L90.24,57.25Z"/><path class="cls-19" d="M80.847,47.9l.291,3.657"/><path class="cls-19" d="M81.673,48.442a7.69,7.69,0,0,1,.814,3.091"/><path class="cls-19" d="M77.409,51.88a2.825,2.825,0,0,1,.864-2.107,8.914,8.914,0,0,1,2.237-1.586,9.356,9.356,0,0,0-.889,1.7,3.129,3.129,0,0,0-.132,1.884"/><path class="cls-19" d="M83.593,51.549a10.181,10.181,0,0,0-.925-2.074,3.419,3.419,0,0,0-1.7-1.446"/><path class="cls-16" d="M91.246,56.216a13.875,13.875,0,0,1,3.189-1.842,10.352,10.352,0,0,1,4.312-.321l.063,2.038a18.03,18.03,0,0,1-2.254-.065A27.925,27.925,0,0,0,91.246,56.216Z"/><path class="cls-16" d="M91.231,56.1a13.938,13.938,0,0,1,3.681.14,10.357,10.357,0,0,1,3.819,2.026L97.7,60.022a18.12,18.12,0,0,1-1.873-1.255A27.94,27.94,0,0,0,91.231,56.1Z"/><path class="cls-16" d="M69.966,54.561A14.6,14.6,0,0,0,66.6,53.18a11.258,11.258,0,0,0-4.321.113l.152,1.864a19.763,19.763,0,0,0,2.234-.27A30.432,30.432,0,0,1,69.966,54.561Z"/><path class="cls-16" d="M70.262,53.8a13.938,13.938,0,0,1-3.624-.653,10.347,10.347,0,0,1-3.5-2.54l1.268-1.6a18.125,18.125,0,0,1,1.679,1.5A27.957,27.957,0,0,0,70.262,53.8Z"/><path class="cls-16" d="M71.552,53.956l-1.838-.819a5.94,5.94,0,0,1-.654,1.474,2.382,2.382,0,0,0-.228,1.36l2.789.83Z"/><path class="cls-16" d="M89.717,55.781l.037,2.8A4.114,4.114,0,0,0,91,58.423a3.438,3.438,0,0,0,.94-.673,3.256,3.256,0,0,0-.251-1.126,2.868,2.868,0,0,1-.237-1.057Z"/><path class="cls-20" d="M90.961,90.916c-1.6-.483-4.722-.578-5.271-1.506s5.75-.591,6.033-1.829-4.844-.874-6.83-.927-3.468-2.73-3.475-3.534.864-4.091-.851-4.082-1.64,3.738-1.7,4.024-1.383,3.97-1.383,3.97l-6.634,2.811h0s1.523,4.2,3.217,3.676l1.759-.065a2.955,2.955,0,0,1,1.9.434c.911.592,3.021.106,3.021.106s1.294,1,1.933,1.535,2.337,1.847,3.441,1.6-2.194-3.308-2.128-3.594,1.863.8,2.543,1.152,2.419,1.285,2.7.047-3.179-1.8-3.522-2.911c-.26-.841,2.536.406,4.576.64C91.4,92.588,93.057,91.547,90.961,90.916Z"/><path class="cls-3" d="M58.189,91.073s7.631-1.966,11.471-3.22,6.58-3.489,6.687-1.164-1.806,9.24-1.806,9.24-7.5,4.845-11.147,6.544-9.532,1.517-11.577-1.372-8.9-24.508-5.475-28.12S52.2,70.1,54.347,74.018,58.189,91.073,58.189,91.073Z"/><polygon class="cls-21" points="126.496 90.965 127.636 76.179 123.362 74.47 122.365 90.183 126.496 90.965"/><polygon class="cls-21" points="144.685 93.841 145.825 79.056 141.552 77.346 140.554 90.89 144.685 93.841"/><path class="cls-22" d="M133.882,108.42l1.794,19.86a3.468,3.468,0,0,1-3.5,2.789c-3.226-.018-3.205-3.419-3.205-3.419V108.42Z"/><path class="cls-22" d="M122.713,105.642l.364,11.6a3.354,3.354,0,0,1-3.5,2.5c-3.548.045-3.5-2.825-3.5-2.825L117,105.642Z"/><path class="cls-22" d="M147.557,99.445l1.509,19.149s-.013,2.86-2.577,3.074a3.333,3.333,0,0,1-3.419-1.919V103.637Z"/><path class="cls-22" d="M111.66,105.642l-1.006,17.711a3.792,3.792,0,0,1-4.336,2.161,3.463,3.463,0,0,1-2.778-2.86l2.351-19.79Z"/><path class="cls-23" d="M148.412,93.035v7.393s-11.966,9.93-15.705,10.136-29.262-5.1-29.214-6.4,0-5.788,0-5.788Z"/><path class="cls-21" d="M118.653,87.611s-8.12,3.354-12.393,6.23c-3.154,2.123-4.933,4.963-2.758,5.6s23.97,6.2,31.235,3.419,14.957-7.479,13.675-9.829S131.9,86.543,118.653,87.611Z"/><path class="cls-23" d="M150.384,66.093s-1.852,12.678-2.565,13.532a2.86,2.86,0,0,1-1.994.855s4.986,0,5.841-1.567,1.709-13.96,1.709-13.96Z"/><path class="cls-21" d="M153.375,64.178c-.5-.939-22.043-5.836-27.67-5.836s-4.309.846-4.309.846l28.994,7.483S153.874,65.117,153.375,64.178Z"/><path class="cls-21" d="M144.258,80.48,122.25,75s-1.715-.316-1.709-3.561c0-1.673.855-12.251.855-12.251s29.442,3.917,28.988,6.905-1.848,12.732-2.565,13.532S146.3,81.189,144.258,80.48Z"/><path class="cls-24" d="M139.607,90.414c2.561.122,4.227,3.586,2.69,6.916s-6.532,5.252-7.173,3.971a3.6,3.6,0,0,0-2.69-1.921,18.137,18.137,0,0,1-3.458-1.537s3.329-4.868,3.97-5.124,1.41-.64,1.41-.64A9.751,9.751,0,0,1,139.607,90.414Z"/><path class="cls-25" d="M136.277,101.045c3.772-.945,7.263-6.294,3.845-8.356-3.909-2.36-6.964,4.4-4.806,6.883C135.316,99.572,135.765,101.174,136.277,101.045Z"/><path class="cls-24" d="M133.587,65.053s4.1-3.714,7.173-2.177,5.891,7.3,1.408,9.35-6.275.256-6.275.256Z"/><path class="cls-25" d="M136.277,66.462s3.586-2.178,3.97.128-.9,4.227-1.921,3.331A12.035,12.035,0,0,1,136.277,66.462Z"/><path class="cls-24" d="M115.429,64.412s-4.1-3.714-7.173-2.177-5.891,7.3-1.409,9.35,6.276.256,6.276.256Z"/><path class="cls-25" d="M112.739,65.821s-3.586-2.178-3.97.128.9,4.227,1.921,3.331A12.06,12.06,0,0,0,112.739,65.821Z"/><path class="cls-24" d="M116.936,96.69s-4.1,1.281-5.252,2.306-3.33,2.049-4.483.64-3.915-8.086-2.689-9.543c2.546-3.026,5.892-1.089,6.788-.063s3.586-.512,3.586-.512Z"/><path class="cls-24" d="M132.946,79.911s7.814,3.97,8.2,4.867,1.281,3.2-1.025,4.483-7.045-.9-7.045-1.409a16.619,16.619,0,0,1,.129,2.434,5.691,5.691,0,0,0,.4,1.579,3.6,3.6,0,0,1-.015,2.9,7.564,7.564,0,0,1-6.4,4.227,40.148,40.148,0,0,1-8.709-1.025c-1.153-.384-3.331.64-3.587-2.946s-.256-9.478-.256-10.118-.383,4.61-3.33,5.123-4.739-.641-4.611-2.69,8.71-8.582,8.71-8.582Z"/><path class="cls-24" d="M114.118,77.99s-5.123-11.784,5.123-15.5,15.114,1.152,16.395,4.867,2.817,12.808-5.764,14.6S115.782,80.808,114.118,77.99Z"/><path class="cls-26" d="M118.344,75.3s4.228-2.562,6.789-2.434,5.764,4.1,2.946,6.02S115.526,81.192,118.344,75.3Z"/><path class="cls-15" d="M120.907,73.7c0,.884,1.089,1.6,2.433,1.6s2.434-.717,2.434-1.6-1.09-1.6-2.434-1.6S120.907,72.814,120.907,73.7Z"/><path class="cls-15" d="M129.177,71.458a1.227,1.227,0,1,0,1.211-1.025A1.129,1.129,0,0,0,129.177,71.458Z"/><path class="cls-27" d="M132.05,68.511a2.6,2.6,0,0,0-4.1-.9"/><path class="cls-28" d="M125.645,84.778a8.553,8.553,0,0,0,1.281,2.946c.9,1.153,2.05,2.306,3.2.9S134.1,83.5,133.2,81.448a2.885,2.885,0,0,0-4.227-1.537,27.946,27.946,0,0,0-2.69,1.537s-1.28.128-1.921.128a13.909,13.909,0,0,1-1.921-.256s-7.686-1.28-8.07-1.409A4.386,4.386,0,0,1,115.4,82.6c.128,2.306-.641,3.586,1.281,4.867s2.177,1.794,3.33.9a12.142,12.142,0,0,0,2.3-2.947Z"/><path class="cls-25" d="M109.939,95.857s-.048-4.867-1.393-5.315-3.65.064-3.394,1.793,1.809,7.173,3.827,6.692C109.932,98.8,110.2,96.882,109.939,95.857Z"/><path class="cls-27" d="M121.684,67.362a2.6,2.6,0,0,0-4.112.835"/><path class="cls-27" d="M128.079,76.132c-2.932,1.983-6.116,2.535-8.774.064"/><path class="cls-29" d="M126.27,81.351a3.65,3.65,0,0,1-.672,3.6"/><path class="cls-29" d="M122.62,81.255c-.8.653-1.186,3.338-.384,4.131"/><path class="cls-29" d="M131.938,82.552c-1.107-1.4-3.661-.572-5.043,0"/><path class="cls-29" d="M117.625,82.456a5.515,5.515,0,0,1,3.986.721"/><path class="cls-29" d="M129.633,84.858a4.512,4.512,0,0,0-3.363-1.3"/><path class="cls-29" d="M121.707,83.993c-.889.8-2.226.758-3.122,1.729"/><path class="cls-29" d="M127.615,86.683a17.93,17.93,0,0,0-1.441-2.45"/><path class="cls-29" d="M120.266,86.3a7.829,7.829,0,0,0,1.489-1.489"/><path class="cls-15" d="M117.725,70.811a1.227,1.227,0,1,0,1.211-1.025A1.129,1.129,0,0,0,117.725,70.811Z"/></svg>