<svg id="word" xmlns="http://www.w3.org/2000/svg" viewBox="0 0 160 160"><defs><style>.cls-1{fill:#fdf393;}.cls-1,.cls-10,.cls-12,.cls-14,.cls-3,.cls-4,.cls-5,.cls-6,.cls-7,.cls-8,.cls-9{stroke:#9c4c9c;}.cls-1,.cls-14{stroke-miterlimit:10;stroke-width:0.761px;}.cls-2{fill:#26a7df;}.cls-3{fill:#fde1d3;}.cls-10,.cls-12,.cls-3,.cls-4,.cls-5,.cls-6,.cls-7,.cls-8,.cls-9{stroke-width:0.609px;}.cls-4{fill:#fff;}.cls-5{fill:#a48063;}.cls-6{fill:#c79a77;}.cls-7{fill:#9b6d48;}.cls-8{fill:#8e5932;}.cls-12,.cls-9{fill:none;}.cls-10{fill:#c77b4a;}.cls-11{fill:#d6af86;}.cls-12{stroke-linecap:round;}.cls-13{fill:#9c4c9c;}.cls-14{fill:#fdde8b;}</style></defs><path class="cls-1" d="M94.853,22.7s-9.095.521-10.634,5.293-1.185,12.539,0,15.82-1.025,3.991-2.763,8.846,4.681,8.645,5.261,9.118a31.49,31.49,0,0,0,3.5,1.777s-3.829-9.538,0-19.275a65.423,65.423,0,0,1,9.277-16.286Z"/><path class="cls-2" d="M83.855,113.31a83.792,83.792,0,0,0-1.539,12.31c0,4.572-2.236,16.815-3.432,18.7l50.559.151a27.31,27.31,0,0,1-4.039-11.494c-1.026-7.353-3.42-17.612-3.42-17.612"/><path class="cls-3" d="M96.325,65.377s-1,17.98,5.8,18.885,12.737-4.231,12.737-4.231L115,67.012"/><path class="cls-4" d="M122.321,93.026c-1.321,1-1.512,7.25-.946,9.465s3.284,15.247,3.284,15.247-4.606,3.039-23.428,3.614c-8.063.247-19.775-3.907-19.775-3.907a96.852,96.852,0,0,1,3.522-9.538c4.38-8.78,4.74-10.986,4.74-10.986s-.676-8.242-1.086-13.445c-.355-4.547.119-3.766,2.575-4.77s7.139-.792,7.139-.792a7.918,7.918,0,0,0,6.627,2.617c4.532-.2,10.159-8.592,10.159-8.592l2.629,1.849,3.1.461,1.643.241s-2.132,8.53.7,9.939"/><path class="cls-5" d="M65.951,108.544s6.931-.429,9.288-2.957c.977-1.039.56-2.2-.523-3.269S72.545,100.19,73.2,99.7s3.1-1.936,3.1-1.936-7.008-.429-7.091,2.129-.477,4.767-1.435,4.9S52.9,107.49,52.9,107.49,56.537,110.131,65.951,108.544Z"/><path class="cls-5" d="M78.229,97.382s-1.316,6.046,1.072,6.137,4.918,1.033,5.463-1,5.6-5.43,8-5.684,12.1-4,12.287-9.627S101.389,65.6,98.706,61.171a15.137,15.137,0,0,0-13.483-7.02c-2.876.232-2,2.176-2,2.176s11.837,9.155,12.486,13.45.816,14.383-1.325,16.358-9.958,7.148-11.465,8.975C81.432,96.933,78.229,97.382,78.229,97.382Z"/><path class="cls-6" d="M41.5,88.272s.053-6.661,1.1-9.527,2.763-6.559,5.2-7.836a41.854,41.854,0,0,0,8.33-6.187c1.5-1.655.732-2.707,1.765-.277s1.435,5.18,3.841,4.759,2.736-.7,3.474-3.916c.483-2.081-3-5.868-.47-5.148.322.095,2.953,2.391,4.737,1.715,1.825-.693,4.585-3.76,7.035-5.377s9.086-4.847,13.844,1.137,8.426,15.862,8.25,21.154a17.069,17.069,0,0,1-5.648,11.923c-2.459,1.96-9.92,5.615-10.295,7.31s-2.912,6.213-3.787,3.617-.274-2.888-1.643-3.305c-3.007-.914-7.2.417-7.086,1.786s1.464,2.564,1.911,3.431-3.2,2.158-5.794,3.263-13.683,3.595-18.738-2.749C42.464,97.707,41.5,88.272,41.5,88.272Z"/><path class="cls-7" d="M62.345,75.152s1.927-.391,2.3,1.22-4.341,2.688-4.561-.393,2.048-3.257,4.209-4.323,7.223-.5,7.16-1.75-1.655-1.655-1.5-3.02,2.418-2.3,3.317-.786c.916,1.513,1.5,3.094-.884,4.493-2.6,1.528-3.368.39-5.622,1.072C61.913,73.139,61.092,74.422,62.345,75.152Z"/><path class="cls-7" d="M59.848,80.186s3.143,4.784,3.483,7.3c.685,5.035-5.18,5.616-6.9,6.239s-24.881,9.33-24.881,9.33-6.255,2.617-6.267,2.956-4.046,3.5-4.8,4.038-2.844,2.173-6.353-1.15-3.6-10.158-2.865-13.2,4.556-2.793,6.774-2.256,2.655,3.289,3.742,2.53S56.585,78.923,59.848,80.186Z"/><path class="cls-8" d="M20.34,110.33a1.726,1.726,0,0,1,2.221.935c1.11,1.878.822,3.376.619,3.657-.453.606-2.343,1.905-3.239.047S18.678,110.866,20.34,110.33Z"/><line class="cls-9" x1="75.642" y1="75.407" x2="20.22" y2="98.079"/><path class="cls-10" d="M19.006,112.846s0,3.189,1.923,2.92,1.551-1.992.75-3.5S18.791,109.421,19.006,112.846Z"/><path class="cls-8" d="M24.824,106.281a1.738,1.738,0,0,1,2.229.937c1.111,1.876.825,3.369.61,3.654-.443.61-2.331,1.906-3.226.05S23.168,106.82,24.824,106.281Z"/><path class="cls-10" d="M23.49,108.794s0,3.194,1.929,2.924,1.557-2,.756-3.508S23.281,105.37,23.49,108.794Z"/><path class="cls-8" d="M16.047,93.118a1.941,1.941,0,0,0,1.035-2.31c-.386-2.185-1.554-3.066-1.875-3.122-.72-.12-2.93.312-2.405,2.319S14.493,93.932,16.047,93.118Z"/><path class="cls-10" d="M13.468,92.25s-2.024-2.334-.449-3.541,2.4.319,2.778,2.016S15.5,94.911,13.468,92.25Z"/><path class="cls-8" d="M23.037,95.238a1.934,1.934,0,0,0,1.039-2.313c-.384-2.182-1.545-3.066-1.879-3.121-.708-.121-2.92.311-2.393,2.324S21.489,96.054,23.037,95.238Z"/><path class="cls-10" d="M20.471,94.375s-2.03-2.343-.453-3.546,2.406.322,2.784,2.016S22.492,97.034,20.471,94.375Z"/><path class="cls-11" d="M43.062,82.633A15.136,15.136,0,0,1,46.9,72.748c2.365-2.682,7.515-5.531,8.587-2.3s-5.907,6.076-6.764,8.29C47.212,82.672,43.074,85.6,43.062,82.633Z"/><path class="cls-11" d="M72.131,62.18s9.816-4.077,14.238-2.886,6.889,4.24,6.889,7.318-3.037,5.24-4.969,2.438a13.412,13.412,0,0,0-8.768-5.227C76.448,63.48,69.416,63.9,72.131,62.18Z"/><line class="cls-9" x1="76.401" y1="78.057" x2="20.688" y2="100.145"/><line class="cls-9" x1="78.145" y1="80.061" x2="22.644" y2="102.151"/><line class="cls-9" x1="78.914" y1="82.713" x2="22.876" y2="104.67"/><path class="cls-7" d="M96.884,70.045s1.537,1.543.757,2.763-12.865,6.25-14.077,7.568S81.8,82.253,82.069,83.74s-.407,2.829-1.36,2.451c-.938-.372-3.221-2.28-4.35-6.764s-.81-7.664.977-7.027,1.539,1.655,3.134,1.6A92.6,92.6,0,0,0,91.7,72.251C93.2,71.736,96.884,70.045,96.884,70.045Z"/><path class="cls-7" d="M12.8,94.155s4.745-1.985,6.975,1.509,3.468,7.764,2.974,9.911-1.619,4.153-3.111,4.1"/><path class="cls-7" d="M68.8,95.8s1.289-1.568.2-2.743-4.382,2.624-2.015,4.4,3.659-.214,5.615-1.667,4.088-6.394,5.067-5.689.485,2.367,1.652,2.92,3.079-1.042,2.332-2.655-1.712-2.959-4.064-1.477c-2.554,1.617-2.028,2.9-3.728,4.624C70.19,97.233,68.743,97.332,68.8,95.8Z"/><path class="cls-3" d="M44.241,98.74s-.852,1.36-2.465-1.361-2.46-3.349-3.5-3.349a14.939,14.939,0,0,0-3.507.991s.1-4.335-1.42-4.21-1.8,6.194-1.8,6.194a3.3,3.3,0,0,1-1.227-2.975c.179-1.98-1.232-3.219-1.9-2.1a9.81,9.81,0,0,0-.855,4.458c.191.372,1.04,1.61,1.04,1.61s-1.04-.247-1.227-1.116.473-2.724-.753-3.093-2.091,1.98-2.091,3.34,2.091,3.591,2.091,3.591-1.709-.366-2-1.114-.569-1.238-.569.373-.375,2.6,1.807,3.342,2.269.373,5.389,1.117,7.384,1.983,11.072,1.737,6.815-.5,6.815-.5Z"/><path class="cls-6" d="M41.633,38.362l62.122,73.279s1.7,2.006.09,2.87S86.958,95.705,86.958,95.705L46,45.551S39.051,41.2,41.633,38.362Z"/><path class="cls-3" d="M122.387,93.913s0,1.126-3.826,1.972-10.953,2.393-10.953,2.393a59.494,59.494,0,0,0-4.486-4.93c-1.849-1.688-4-2.878-4.666-2.878s-7.492.5-8.018.355-5.049.14-3.334,1.411,8.631.969,8.631.969-9.42.472-8.888,1.6c1.154,2.436,5.449,1.052,7.694,2.18s3.57,1.437,4.891,4.4-1.19,7.46,4.217,7.46,9.9-2.1,12.932-2.1,7.923-.143,8.181-1.557S126.877,94.613,122.387,93.913Z"/><path class="cls-3" d="M94.812,94.474s-3.96-.986-4.222,1.554-1.982,6.9-.792,7.883,1.847.849,2.376-1.268.173-5.142,2.5-4c1.3.643,4.1,1.418,4.23.2S94.812,94.474,94.812,94.474Z"/><path class="cls-3" d="M99.167,98.661a27.057,27.057,0,0,0-5.141,2.114c-1.416.787-2.443,3.557-.266,3.1,2.32-.485,5.569-1.3,6.3-2.921A1.669,1.669,0,0,0,99.167,98.661Z"/><path class="cls-4" d="M124.9,74.9c2.248,1.558,6.994,13.523,8.708,16.053A11.558,11.558,0,0,1,134.79,101.8c-1.715,4.364-6.2,5.631-7.913,5.207a44.468,44.468,0,0,0-5.937-.557,5.3,5.3,0,0,0,0-4.37c-1.054-2.393-4.883-5.913-4.883-5.913s6.33-2.4,6.86-4.365-1.319-8.172-2.245-9.016S118.829,70.67,124.9,74.9Z"/><path class="cls-3" d="M122.963,54.121c-2.867,7.048-4.584,12.248-12,14.318-6.353,1.772-13.558,1.687-18.344-2.981-8.037-7.843-3.594-17.171-4.6-26.264,0,0-.5-1.774,2.3-5.835s13.356-5.006,17.277-4.026,15.5,9.076,15.359,9.917"/><path class="cls-12" d="M97.663,51.044c.621-2.491,5.16-2.185,4.53.564"/><path class="cls-12" d="M92.286,40.136c1.344-.868,3.535-2.36,5.134-1.527"/><path class="cls-12" d="M108.637,40.563c2.1-.4,3.945,1.393,4.448,3.251"/><path class="cls-4" d="M89.613,44.118s.771-2.617,3-2.1,3.272,3.708,3.272,3.708-1.575,2.485-3.868,1.966S89.613,44.118,89.613,44.118Z"/><path class="cls-13" d="M93.5,44.215a1.668,1.668,0,1,1-1.681-1.93A1.826,1.826,0,0,1,93.5,44.215Z"/><path class="cls-4" d="M107.6,46.865s.771-2.616,2.994-2.1,3.272,3.708,3.272,3.708S112.3,50.961,110,50.443,107.6,46.865,107.6,46.865Z"/><path class="cls-13" d="M111.489,46.962a1.668,1.668,0,1,1-1.68-1.931A1.825,1.825,0,0,1,111.489,46.962Z"/><path class="cls-12" d="M94.083,55.8c4.609,3.56,11.275,4.129,15.657-.666"/><path class="cls-4" d="M118.735,95.015s-7.181-1.367-6.155.684,6.155,2.735,6.155,2.735-5.3-.17-4.274,2.395,5.813.341,5.813.341-4.274,1.027-3.59,3.762,4.787.342,4.787.342-3.42,1.71-1.539,4.275,5.472-2.908,5.472-2.908"/><path class="cls-14" d="M101.034,29.451s5.672,1.074,8.17,1.539,4.508,3.274,4.511,3.857,1.042-6.2-1.456-10.159S107.692,19.18,104.58,19s-5.913-1.4-7.341,1.707.513,9.06.513,9.06Z"/><path class="cls-1" d="M97.752,29.766s-1.589-5.606.109-8.249,8.4-2.515,10.776,1.658,5.076,1.166,5.076,9.512,0,15.717,2.208,19.333,2.54,4.683,1.691,10.943a14.931,14.931,0,0,1-6.122,9.679s12.242,1.076,20.732-3.1,11.716-7.51,11.716-7.928-.849-3.755-3.905-7.511-5.094-3.477-5.434-7.928.17-10.849-3.226-14.882-8.66-9.876-12.9-11.406-12.566-5.285-16.641-3.616S94.7,18.5,94.016,21.281,97.752,29.766,97.752,29.766Z"/><path class="cls-13" d="M99.306,19.744a14.014,14.014,0,0,1,8.31-.266,9.571,9.571,0,0,1,3.743,1.966,14.866,14.866,0,0,1,2.678,3.193,39.071,39.071,0,0,1,2,3.586,17.2,17.2,0,0,1,1.474,3.863c.626,2.735.323,5.5.2,8.182s-.088,5.44,1.155,7.825c1.221,2.375,3.182,4.342,4.507,6.732a13.529,13.529,0,0,1,2.1,7.779,9.261,9.261,0,0,1-1.214,3.865,6.966,6.966,0,0,1-2.927,2.747,6.939,6.939,0,0,0,2.869-2.781,9.173,9.173,0,0,0,1.137-3.841,13.344,13.344,0,0,0-2.2-7.631c-1.344-2.34-3.323-4.245-4.635-6.683-1.338-2.465-1.426-5.346-1.335-8.033.082-2.706.32-5.43-.319-8a16.537,16.537,0,0,0-1.479-3.684,38.731,38.731,0,0,0-2.013-3.477,14.045,14.045,0,0,0-2.573-2.971,8.646,8.646,0,0,0-3.419-1.722,13.023,13.023,0,0,0-7.681.359l-.015,0a.537.537,0,1,1-.372-1.008Z"/><path class="cls-13" d="M108.323,19.5a19.6,19.6,0,0,1,6.964,3.241,13.217,13.217,0,0,1,2.771,2.723A10.675,10.675,0,0,1,119.676,29a64.784,64.784,0,0,1,1.271,7.457,19.11,19.11,0,0,0,2.407,6.962c2.48,4.321,6.216,7.8,9.046,11.971a10.953,10.953,0,0,1,1.622,3.417,6.29,6.29,0,0,1-.24,3.746,10.567,10.567,0,0,1-5.135,5.312,10.5,10.5,0,0,0,5.006-5.359,6.122,6.122,0,0,0,.17-3.649,10.749,10.749,0,0,0-1.65-3.313c-2.877-4.084-6.671-7.48-9.293-11.848a19.759,19.759,0,0,1-2.608-7.123,64.415,64.415,0,0,0-1.385-7.34,9.907,9.907,0,0,0-1.542-3.242,12.362,12.362,0,0,0-2.618-2.484,18.618,18.618,0,0,0-6.637-2.959l-.013,0a.537.537,0,1,1,.237-1.048Z"/><path class="cls-1" d="M97.861,28.976c-.3-6.938,1.407-8.161,3.176-6.757.431.342,1.016.427,1.421.8a8.467,8.467,0,0,1,2.26,5.339,30.816,30.816,0,0,0,.846,5.851,9.369,9.369,0,0,0,5.722,5.848c-1.5-.891-1.454-3.018-1.386-4.758a28.249,28.249,0,0,0-2.364-12.434,6.389,6.389,0,0,0-1.506-2.313c-1.391-1.214-3.443-1.177-5.287-1.072a3.082,3.082,0,0,0-1.393.3,2.8,2.8,0,0,0-.719.671c-.688.835-2.716,2.631-1.211,8.133"/></svg>