<svg id="word" xmlns="http://www.w3.org/2000/svg" viewBox="0 0 160 160"><defs><style>.cls-1{fill:#d9b57a;}.cls-1,.cls-10,.cls-11,.cls-12,.cls-13,.cls-15,.cls-16,.cls-2,.cls-3,.cls-4,.cls-5,.cls-6,.cls-7,.cls-8,.cls-9{stroke:#9d4b9c;stroke-width:0.569px;}.cls-2{fill:#f2d480;}.cls-3{fill:#d8ab77;}.cls-4{fill:#d6de23;}.cls-5{fill:#f7ee6d;}.cls-6{fill:#81c6ed;}.cls-13,.cls-7{fill:#fff;}.cls-8{fill:#5a91cc;}.cls-9{fill:#fde2d4;}.cls-10{fill:#00adee;}.cls-11{fill:#fde4d5;}.cls-12{fill:none;}.cls-12,.cls-13{stroke-linecap:round;}.cls-14{fill:#9d4b9c;}.cls-15{fill:#8b8bc3;}.cls-16{fill:#d67fb3;}</style></defs><path class="cls-1" d="M32.227,34.1l32.337-9.3s-2.451-1.565-2.148-5.792a40.908,40.908,0,0,1,2.415-9.662L21.663,19.612s3.322,7.847,4.83,9.961,3.32,4.529,3.32,4.529Z"/><polygon class="cls-2" points="32.142 74.253 17.955 76.971 30.029 86.329 32.142 74.253"/><polygon class="cls-1" points="82.931 33.732 86.253 94.712 46.705 101.352 47.611 43.091 82.931 33.732"/><polygon class="cls-2" points="30.103 34.035 63.912 24.373 82.931 33.732 47.611 43.091 30.103 34.035"/><polygon class="cls-3" points="28.895 85.655 30.103 34.035 49.117 42.717 46.705 101.352 28.895 85.655"/><path class="cls-4" d="M61.6,96.354s-2.829,3.958-6.081,3.737-12.45,3.325-13.927,3.7-4.664.525-5.227.235-2.813-1.454-2.5.422,2.593,4.424,4.594,4.087a38.535,38.535,0,0,1,6.754-.675c5.011-.133,7.724-2.678,10.306-2.366,5.576.678,14.7.761,14.7.761Z"/><path class="cls-5" d="M39.979,108.452s-2.873.525-4.646-.591a6.442,6.442,0,0,1-.967-1.04s-2.213-2.832-1.349-3.6a21.335,21.335,0,0,1,4.132-1.984s.957,1.2,1.84,1.267a5.5,5.5,0,0,1,2.173,1.13s-2.213-.126-2.557,1.687S39.067,108.08,39.979,108.452Z"/><path class="cls-6" d="M34.162,107.751s-3.81.585-4.383-1.8.613-4.305.392-5.723,1.49-5.4,2.3-6.121,3.62-2.776,4.76-2.068,1.055,1.422.738,2.464-1.584,3.441-1.28,4.248a5.891,5.891,0,0,1,.256,1.921s1.869,2.1.405,2.544a8.2,8.2,0,0,1-3.351.06l-.5,1.3a5.513,5.513,0,0,1,1.451,1.4,3.843,3.843,0,0,1,.3,2.087Z"/><path class="cls-7" d="M34.36,99.954a2.5,2.5,0,0,0,1.631-.374c.683-.5,1.379-1.791.711-1.733a3.924,3.924,0,0,0-1.63.937S32.748,99.882,34.36,99.954Z"/><path class="cls-7" d="M34.582,101.3a6.159,6.159,0,0,0,1.781.393c.615-.05.753-.24.884-.751a2.192,2.192,0,0,0-.3-1.273s.181.091-.512.7-1.919.272-2.09.279S33.56,100.808,34.582,101.3Z"/><path class="cls-7" d="M30.781,107.244a7.451,7.451,0,0,1-.655-2.283,10.752,10.752,0,0,1,.412-3.447c.426-.916.024-2.341.489-3.4s1.211-3.218,2.414-4.29a9.017,9.017,0,0,1,3.876-1.678s.191-.637-1.243-.509a5.942,5.942,0,0,0-4.182,2.338c-.884,1.361-2.076,3.855-2.047,4.86a9.584,9.584,0,0,1,.045,2.684,13.413,13.413,0,0,0-.48,4.258C29.734,107.384,30.781,107.244,30.781,107.244Z"/><path class="cls-8" d="M35.259,108.065a2.171,2.171,0,0,0-.029-1.688c-.412-.854-1.711-2.135-1.726-1.8s.449.866.563,1.615a5.755,5.755,0,0,1,0,1.545l1.192.331"/><path class="cls-8" d="M33.441,93.821s1.514-.658,2.15-.4,1.992,1.351,2.535.369c.605-1.105-.809-1.646-.809-1.646s-1.269.347-2.1.648A6.057,6.057,0,0,0,33.441,93.821Z"/><path class="cls-4" d="M73.935,100.891,63.124,96.709s1.488-.248.638,1.169-6.214,5.392-7.338,5.477c-3.245.244-13.687,4.283-15.164,4.662s-4.664.525-5.227.234-2.813-1.454-2.5.421.479,4.632,2.479,4.294a66.759,66.759,0,0,1,8.868-.88c5.011-.133,7.726-2.679,10.308-2.366a87.456,87.456,0,0,0,14.107-.093c1.35.14,3.051-.048,4.5-3.065C75.494,103.018,73.935,100.891,73.935,100.891Z"/><path class="cls-9" d="M81.1,100.487l.6,2.275a3.631,3.631,0,0,0-.9,2.166c0,1.2-.523,1.844-.9,1.952s-1.8.868-.975,1.625,2.553-.757,2.856-1.081.9-.9,1.349-.472,3.431,3.722,4.257,3.614,1.153-.8.551-1.228a21.369,21.369,0,0,1-2.249-2.782s3.725,1.7,4.549,1.873c1.05.216.555-1.115.555-1.115l-3.73-2.419s3.962,1.956,4.331,1.553c.6-.654-.153-1.3-.6-1.407a25.453,25.453,0,0,1-2.453-1.2s3.154-.072,2.453-.974c-.452-.58-2.33-.434-2.33-.434h-1.95s-.979-.865-1.577-.865a3.535,3.535,0,0,1-1.279-.324l-.075-1.193Z"/><path class="cls-5" d="M41.785,112.684a3.694,3.694,0,0,1-2.926,1.507c-.409.022-3.021-.131-3.021-.131s-3.449-1.009-3.193-2.137a21.4,21.4,0,0,1,2.2-4.021,3.589,3.589,0,0,0,2.233-.043c.763-.462,2.767.136,2.767.136s-2.212.7-1.436,2.376S40.826,112.913,41.785,112.684Z"/><path class="cls-6" d="M36.217,114.936s-2.751,2.7-4.612,1.089-2.014-3.854-3.022-4.875-1.941-5.255-1.7-6.313,1.319-4.367,2.656-4.456,1.687.538,2.039,1.568.721,3.72,1.439,4.2a5.93,5.93,0,0,1,1.329,1.407s2.745.62,1.813,1.833a8.172,8.172,0,0,1-2.685,2l.357,1.346a5.509,5.509,0,0,1,2,.294,3.858,3.858,0,0,1,1.466,1.516Z"/><path class="cls-7" d="M31.826,108.485a2.493,2.493,0,0,0,1.108-1.254c.264-.8.073-2.26-.435-1.824a3.927,3.927,0,0,0-.776,1.713S30.475,109.368,31.826,108.485Z"/><path class="cls-7" d="M32.791,109.451a6.117,6.117,0,0,0,1.675-.723.8.8,0,0,0,.282-1.125c-.192-.493-.988-.857-.988-.857s.2-.032,0,.869-1.4,1.342-1.535,1.445S31.675,109.647,32.791,109.451Z"/><path class="cls-7" d="M33.173,116.5a7.42,7.42,0,0,1-1.862-1.473,10.743,10.743,0,0,1-1.677-3.04c-.189-.992-1.349-1.914-1.588-3.049s-.9-3.321-.542-4.893a9.023,9.023,0,0,1,2.165-3.625s-.216-.625-1.3.315a5.933,5.933,0,0,0-2.032,4.337c.075,1.623.563,4.343,1.175,5.14a9.761,9.761,0,0,1,1.6,2.152,13.287,13.287,0,0,0,2.1,3.74C32.406,117.22,33.173,116.5,33.173,116.5Z"/><path class="cls-8" d="M37.291,114.547a2.178,2.178,0,0,0-1.007-1.353c-.834-.453-2.639-.736-2.456-.457s.869.442,1.4.984a5.7,5.7,0,0,1,.9,1.256l1.164-.43"/><path class="cls-8" d="M27.5,104.041s.843-1.416,1.512-1.58,2.4-.065,2.272-1.178c-.152-1.251-1.619-.867-1.619-.867s-.827,1.023-1.327,1.756A6.007,6.007,0,0,0,27.5,104.041Z"/><path class="cls-9" d="M47.946,86.23a8.611,8.611,0,0,1-3.14-.378,17.763,17.763,0,0,0-3.721-1.227c-.568-.02-4.077-1.218-3.811-.183s2.02,1.807,2.383,1.841-3.423.252-3.049.967,2.155,3,2.155,3,5.019-.7,5.745-1.16,4.483.932,5.506,1.529"/><path class="cls-9" d="M36.694,85.9s-.814-.052-.851.7.833,1.052,1.376.959,1.358-.336,1.223-.686C38.082,85.957,36.694,85.9,36.694,85.9Z"/><path class="cls-9" d="M38.379,87.316s1.163.151,1.04.653-1.587.69-2.273.7c-.959.012-1.673-1.1-.746-1.193S38.379,87.316,38.379,87.316Z"/><path class="cls-9" d="M38.949,88.64s1.04-.118,1.184.117.261.5-.422.747a3.664,3.664,0,0,1-2.2-.031c-.219-.185-.206-.9.362-.882S38.949,88.64,38.949,88.64Z"/><path class="cls-9" d="M38.316,89.883a.826.826,0,0,0,.669.856c.291.051,1.338.02,1.579-.361s.375-.681-.02-.737S38.356,89.282,38.316,89.883Z"/><path class="cls-10" d="M64.077,79.557s-1.317-.527-3.239,1.11S56.059,84.7,53.412,85.58a9.016,9.016,0,0,1-5.129.07s-2.469-1.549-2.3-.394S44.7,88.491,45.278,90.2s3.889,2.145,5.908,1.316,7.189-1.919,8.9-2.494,4.467-3.78,4.467-3.78"/><path class="cls-11" d="M72.252,75.84s-.857,2.547-1.379,4.181-3.444,5.207-5.229,3.867-.537-4.56-.537-4.56l1.609-5.892"/><path class="cls-10" d="M71.986,78.977a6.144,6.144,0,0,1,4.008,6.772c-.519,4.309,1.291,6.189.467,11.511-1.054,6.8-2.056,5.839-2.056,5.839s-2.965-2.414-4.918-2.245a21.963,21.963,0,0,1-8.02-1.627c-1.321-.749-3.871-1.978-3.871-1.978a3.37,3.37,0,0,0,3.25-2.395,40.53,40.53,0,0,0,.821-7.355c.059-1.48,1.789-8.244,1.789-8.244l1.891-.863s-1.13,3.734,1.733,3.818c3.192.1,3.74-2.193,3.74-2.193l.518-1.395Z"/><path class="cls-11" d="M71.823,51.114s-4.767,3.57-5.639,4.9-2.328,5.024-2.954,5.89-2.776,4.634-2.2,7.989c.308,1.751,2.439,5.016,4.458,6.73a7.989,7.989,0,0,0,6.849,1.2c3.632-1.286,8.882-6.925,9.839-9.411s2.255-9.891-.144-12.547S74.01,50.514,71.823,51.114Z"/><path class="cls-12" d="M66.927,67.984c.773-.83,1.357-.523,1.651.683"/><path class="cls-13" d="M74.439,68.85s1.754-2.115.061-3.024c-1.035-.555-3.258.472-2.587,2.247S74.439,68.85,74.439,68.85Z"/><path class="cls-13" d="M66.134,64.477s1.742-2.1.058-3c-1.025-.555-3.231.463-2.565,2.219S66.134,64.477,66.134,64.477Z"/><path class="cls-12" d="M76.946,65.11a2.158,2.158,0,0,0-2.11-1.71"/><path class="cls-12" d="M68.334,60.583c.033-.823-.739-1.257-1.661-1.218"/><path class="cls-14" d="M72.644,66.3a.991.991,0,0,0,.256,1.308c.381.17.872-.131,1.107-.678a.983.983,0,0,0-.256-1.3C73.373,65.454,72.877,65.758,72.644,66.3Z"/><path class="cls-14" d="M64.506,62.058a.957.957,0,0,0,.282,1.286,1.106,1.106,0,1,0-.282-1.286Z"/><path class="cls-10" d="M73.771,83.533s.844-5.407,3.21-.17,4.227,12,5.069,12.842,3.885,3.378,3.885,3.378-3.039,1.349-4.392,2.027-1.859-1.013-2.366-2.7S76.3,93,75.123,90.629,73.262,85.9,73.771,83.533Z"/><path class="cls-15" d="M82.715,66.634c2.2.553,4.257-1.317,5.468-3.235s2.2-4.18,4.229-5.2c1.6-.808,3.484-.653,5.257-.888a11.779,11.779,0,0,0,6.7-3.3c-4.814,2.164-10.517.715-15.184-1.749-2.1-1.11-4.145-2.435-6.463-2.963a19.747,19.747,0,0,0-7.571.241c-3.4.561-7.316,1.556-8.682,4.717-.473,1.1-.885,2.616-2.08,2.641a14.056,14.056,0,0,1,6.922-2.188C80.031,54.918,82.715,66.634,82.715,66.634Z"/><path class="cls-16" d="M103.6,51.2S101.05,53,101.476,53.961s1.276.213,1.063,1.489,1.808,1.489,1.808,1.489,1.276.531,1.7,0,1.595-.745,1.595-1.808.638-1.063,0-1.808-.425-1.595-1.382-1.914S103.815,49.814,103.6,51.2Z"/><path class="cls-15" d="M62.521,62.043a11.882,11.882,0,0,1-.992-4.785c0-2.765,3.934-6.593,3.934-6.593s.865.8,4.455.827,7.313-.827,10.928,3.639,3.51,7.869,3.4,9.251,1.524,5.742,1.524,5.742l-6.522,2.765s3.261-8.223-2.906-12.264-7.94-2.906-10.846-1.914A5.394,5.394,0,0,0,62.521,62.043Z"/><path class="cls-12" d="M65.676,69.929a3.47,3.47,0,0,0,3.451,2.023,3.134,3.134,0,0,0,2.554-.979"/><path class="cls-3" d="M66.781,119.314l-.3-26.868L100.891,117.2s.3,28.074-.905,27.772S66.781,119.314,66.781,119.314Z"/><polygon class="cls-1" points="103.912 117.503 134.401 106.634 134.401 129.879 99.986 144.972 100.891 117.2 103.912 117.503"/><path class="cls-1" d="M134.251,129.5l15.584,5.962s-10.87,8.15-15.094,9.056-24.151,10.264-24.151,10.264l-10.867-9.962Z"/><polygon class="cls-2" points="66.478 92.446 97.573 82.787 134.401 106.634 100.856 118.408 66.478 92.446"/></svg>