<svg id="word" xmlns="http://www.w3.org/2000/svg" viewBox="0 0 160 160"><defs><style>.cls-1{fill:#5c5449;}.cls-1,.cls-10,.cls-11,.cls-12,.cls-2,.cls-3,.cls-4,.cls-5,.cls-6,.cls-7,.cls-8{stroke:#9c4c9c;}.cls-1,.cls-10,.cls-2,.cls-3,.cls-4,.cls-5,.cls-6,.cls-8{stroke-width:0.525px;}.cls-2{fill:#fde1d3;}.cls-10,.cls-2,.cls-3{stroke-miterlimit:10;}.cls-3,.cls-8{fill:#fff;}.cls-4{fill:#716558;}.cls-5{fill:#1b75ba;}.cls-6{fill:#add045;}.cls-13,.cls-7{fill:#fbee46;}.cls-11,.cls-12,.cls-7{stroke-width:0.309px;}.cls-9{fill:#9c4c9c;}.cls-10{fill:none;stroke-linecap:round;}.cls-11{fill:#231f20;}.cls-12{fill:#ea2127;}</style></defs><path class="cls-1" d="M59.243,34.85S56.884,50.5,56.884,50.936s1.706,7.252,1.706,7.252L72,60.676l7.187-2.7L86.1,35.655l0-2.081L62.415,31.022Z"/><path class="cls-2" d="M62.422,43.685s2.6,11.547,1.486,12.714-6.114,2.981-6.114,2.981L67.938,76.36l7.921-8.426,3.335-6.48s-3.891-.422-3.335-2.933-.278-9.511-.278-9.511Z"/><polygon class="cls-3" points="55.3 60.73 61.721 59.537 69.272 69.095 76.053 60.73 79.985 61.522 75.25 85.71 68.957 100.043 58.442 72.25 55.3 60.73"/><path class="cls-2" d="M59.74,31.382s.329,16.729,6.784,21.418c3.953,2.871,8.779-1.068,11.558-3.919s7.565-9.592,8.02-12.574S85.03,24.382,81,21.92,69.467,21.4,67.66,24.253,59.74,31.382,59.74,31.382Z"/><path class="cls-4" d="M75.208,23.624s-7.364,4.277-7.781,6.092-5.975,7.96-6.392,12.6-3.2,7.88-1.945,10.991a28.561,28.561,0,0,0,3.057,5.573s-5.976,2.852-8.616-1.3-6.28-21.9-.3-30.2,14.618-11.667,23.65-8.427,15.424,6.222,15.7,15.036-7.022,23.316-9.384,25-7.986.842-7.986.842,2.5-1.6,4.447-9.64,4.03-15.555,3.891-17.758A10.037,10.037,0,0,0,81.6,27.9l-.694,3.759s-.556.907-3.2-.129A27.816,27.816,0,0,0,70.4,30.364Z"/><path class="cls-5" d="M56.127,60.676l-8.893.581s1.389,14.978.972,20.2a28.532,28.532,0,0,1-2.64,9.577s5.142,11.207,5.281,12.716-1.18,8.593-1.98,11.728-5.107,15.326-5.107,15.326l26.679.813V118.732L72.96,131.62l15.405.813s-1.39-25.08-1.39-26.241,1.39-25.08,1.39-25.08l4.87-15.675L79.194,61.373s-9.31,33.9-9.033,33.44S56.127,60.676,56.127,60.676Z"/><path class="cls-2" d="M55.031,101.224a16.794,16.794,0,0,0,3.418-2.386c.728-.915,2.41-1.67,4.931-1.988s9.471-.835,9.471,0-2.466,1.193-2.466,1.193,5.268-.756,6.053-.875,3.53,0,2.8.437a7,7,0,0,1-1.906,1.2c-1.625.744-8.63,2.97-9.022,3.05s-6.389-.239-9.191.756a17.31,17.31,0,0,1-4.09,1.073l-.561-1.829Z"/><path class="cls-6" d="M64.136,53.8s-1.937,4.77-1.624,5.741,2.5,1.375,3.565.728a6.679,6.679,0,0,1,4.379-.89c1.439.324,2.065.971,3.316-.4a18.494,18.494,0,0,0,2.44-4.772s1.313,3.235,1.251,4.691.438,2.022.438,2.75,1.063,2.346-3.191,2.508-8.508-.243-9.071-.728-3.69-2.346-3.69-2.346l-3.5-1.294S58.32,57.2,59.7,56.144A27.351,27.351,0,0,1,64.136,53.8Z"/><path class="cls-6" d="M62.415,59.2A3.915,3.915,0,0,0,58.6,60.431C56.847,62.291,54.47,70.7,54.47,70.7s2.878-.832,3.972-2.64,3.006-3.945,3.41-5.61A27.284,27.284,0,0,0,62.415,59.2Z"/><path class="cls-6" d="M62.512,59.541s-.939-.332-1.189,4.647-1.626,7.729-.438,10.4a53.161,53.161,0,0,1,2.252,5.338c.063.486.751-.162,1.376-5.176s1.815-7.45,1.314-10.56S63.736,59.578,62.512,59.541Z"/><path class="cls-5" d="M78.233,16.792s8.2-3.478,8.615-3.608,2.5-2.2,2.64,0-1.822,11.493-1.822,11.493Z"/><path class="cls-5" d="M73.231,12.175s3.474-2.231,5.836-1.065a39.682,39.682,0,0,1,6.075,4.407l-6.909,2.674Z"/><polygon class="cls-5" points="71.999 8.907 63.572 19.212 74.898 23.943 87.666 24.677 71.999 8.907"/><path class="cls-7" d="M75.619,20.177,72,18.9a7.825,7.825,0,0,0,1.81,2.376,9.5,9.5,0,0,0,2.525.88,19.844,19.844,0,0,0,3.775,0c1.416-.22,1.652-.88,1.652-.88Z"/><ellipse class="cls-7" cx="76.88" cy="20.665" rx="1.307" ry="1.591"/><ellipse class="cls-8" cx="66.916" cy="35.655" rx="2.498" ry="1.911" transform="translate(13.612 89.579) rotate(-73.382)"/><path class="cls-9" d="M66.872,35.356s-.814,1.275.05,1.931,1.305-.261,1.521-.521c.389-.469.288-1.794-.374-1.9A1.24,1.24,0,0,0,66.872,35.356Z"/><ellipse class="cls-8" cx="78.019" cy="38.325" rx="2.498" ry="1.911" transform="translate(18.982 102.124) rotate(-73.382)"/><path class="cls-9" d="M77.975,38.025s-.814,1.276.05,1.932,1.3-.261,1.521-.521c.389-.469.288-1.794-.374-1.9A1.242,1.242,0,0,0,77.975,38.025Z"/><path class="cls-10" d="M80.441,33.588l-2.591-.014a2.246,2.246,0,0,0-.695.069,1.921,1.921,0,0,0-.813.612,16.318,16.318,0,0,0-2.479,4.014c-.781,1.673-1.455,3.552-.865,5.293a1.326,1.326,0,0,1,.122.634.87.87,0,0,1-.814.611,2.738,2.738,0,0,1-1.093-.2"/><path class="cls-10" d="M67.144,31.022l1.383.6a2.488,2.488,0,0,0,.383.144c.169.045.346.056.518.089a1.888,1.888,0,0,1,1.384,1.118"/><path class="cls-10" d="M68,44.848a4.9,4.9,0,0,0,.921,1.1,3.436,3.436,0,0,0,2.326.663,6.77,6.77,0,0,0,2.379-.647"/><path class="cls-3" d="M54.47,99.8s-.2.036-.538.1c-2.25.4-10.85,1.829-12.386.832-1.77-1.149,5.019-5.052,6.462-14.968s-.774-24.437-.774-24.437S40.838,65.2,37.3,75.181s-11.091,31.255-5.9,33.055,22.427-1.832,23.071-2.823,2.414-1.055,2.414-1.055L56.2,99.552l-1.92.285"/><polygon class="cls-11" points="124.966 134.404 124.966 145.292 126.008 145.292 127.12 133.367 124.966 134.404"/><polygon class="cls-11" points="111.667 133.886 111.667 139.589 113.335 139.589 113.335 133.367 111.667 133.886"/><path class="cls-12" d="M110.972,138.65v4.05h-2.918l.695,1.944s.834,1.556,4.308,1.556,3.613-1.815,3.613-1.815v-1.3l-2.5-.664-.139-3.775Z"/><path class="cls-7" d="M123.646,141.4h3.613l1.667,9.073a10.285,10.285,0,0,1-2.64.518c-1.112,0-5.281-.648-5.281-.648Z"/><polygon class="cls-11" points="82.986 137.446 82.986 148.334 84.028 148.334 85.14 136.409 82.986 137.446"/><polygon class="cls-11" points="96.534 133.557 96.534 139.261 98.201 139.261 98.201 133.039 96.534 133.557"/><path class="cls-7" d="M98.757,134.594s-2.918.389-7.92.908-11.256,6.351-13.2-.454,5.836-32.211,2.64-39.988S75.83,70.951,84.723,67.321s24.6-6.481,31.126-3.24S129.744,86.116,130.3,93.505s-2.5,16.98-1.806,26.313,2.779,14.128.833,15.425-2.223.259-7.225,0-11.95,2.333-12.784-1.167-4.169-10.629-4.169-14.129V103.485a117.893,117.893,0,0,0,3.613-13.091c.973-5.315.724-11.666-4.918-10.759s-2.447,13.481-1.2,17.5a21.235,21.235,0,0,1,1.2,6.092l.61,22.165S100.04,134.432,98.757,134.594Z"/><path class="cls-13" d="M107.235,80.267c-.368-2.641,1.066-4.641,3.462-6.091"/><path class="cls-9" d="M107.082,80.289a5.312,5.312,0,0,1,.837-3.639,8.2,8.2,0,0,1,2.778-2.474,8.1,8.1,0,0,0-2.647,2.557,5.071,5.071,0,0,0-.662,3.513Z"/><path class="cls-13" d="M108.768,82.579l.638-.968a7.047,7.047,0,0,1,1.448-1.749,2.651,2.651,0,0,1,2.2-.577"/><path class="cls-9" d="M108.639,82.494a18.35,18.35,0,0,1,1.758-2.322,2.859,2.859,0,0,1,2.66-.887,2.782,2.782,0,0,0-2.55,1,18.326,18.326,0,0,0-1.61,2.384Z"/><path class="cls-13" d="M103.521,79.635a13.436,13.436,0,0,0-1.338-5.813"/><path class="cls-9" d="M103.366,79.635a13.363,13.363,0,0,0-1.183-5.813,13.527,13.527,0,0,1,1.492,5.813Z"/><path class="cls-13" d="M101.635,80.947a8.889,8.889,0,0,0-3.1-3.718"/><path class="cls-9" d="M101.493,81.009a8.81,8.81,0,0,0-2.956-3.78,8.963,8.963,0,0,1,3.239,3.656Z"/><path class="cls-13" d="M100.285,85.561a23.211,23.211,0,0,0-8.045,1.622"/><path class="cls-9" d="M100.288,85.715a23.142,23.142,0,0,0-8.048,1.468,23.3,23.3,0,0,1,8.041-1.777Z"/><path class="cls-13" d="M109,87.745a5.88,5.88,0,0,1,6.732.3"/><path class="cls-9" d="M108.909,87.617a5.942,5.942,0,0,1,6.819.424,5.793,5.793,0,0,0-6.646-.168Z"/><path class="cls-2" d="M103.844,60.581a6.632,6.632,0,0,0-.992,3.24c.074,1.556-.592,3.759.992,3.111S106.07,60.559,103.844,60.581Z"/><path class="cls-2" d="M109.166,60.213s-.876-.392-1.411,2.156.716,5.1,1.411,3.807S110.417,61.38,109.166,60.213Z"/><path class="cls-2" d="M106.692,60.191a7.337,7.337,0,0,0-1.347,5.336c.155,1.208,1.758,3.031,2.174,1S108.631,60.213,106.692,60.191Z"/><path class="cls-2" d="M111.541,60.581s-2.758,4.537-1.726,5.444,1.107-.323,1.865-1.847C113.469,60.581,111.541,60.581,111.541,60.581Z"/><path class="cls-2" d="M99.543,63.358a4.88,4.88,0,0,0,.543-2.388c-.113-1.167.97-2.139,1.549-1.215a15.431,15.431,0,0,1,1.14,3.182Z"/><path class="cls-12" d="M95.839,138.322v4.05H92.921l.695,1.944s.834,1.555,4.307,1.555,3.613-1.814,3.613-1.814v-1.3l-2.5-.664-.139-3.775Z"/><path class="cls-7" d="M82.23,142.1h3.613l1.667,9.073a10.274,10.274,0,0,1-2.64.518c-1.111,0-5.28-.648-5.28-.648Z"/></svg>