<svg id="word" xmlns="http://www.w3.org/2000/svg" viewBox="0 0 160 160"><defs><style>.cls-1{fill:#d7df37;stroke:#9c4c9c;stroke-miterlimit:10;stroke-width:0.473px;}.cls-2{fill:#fff;}.cls-3{fill:#f4eb61;}.cls-4{fill:#554d9f;}.cls-5{fill:#00a7a1;}.cls-6{fill:#b96fad;}.cls-7{fill:#f05c32;}.cls-8{fill:#2b81c4;}.cls-9{fill:#44b449;}.cls-10{fill:#e44f9a;}.cls-11{fill:#427437;}</style></defs><rect class="cls-1" x="13.003" y="16.608" width="133.993" height="126.217"/><polygon class="cls-2" points="42.157 141.839 43.449 137.479 45.892 135.375 46.975 135.375 46.975 138.362 46.629 141.839 42.157 141.839"/><path class="cls-3" d="M45.892,135.375s.241.406.428.463c.471.143.655-.463.655-.463s.3-2.017,0-1.922S45.892,135.375,45.892,135.375Z"/><polygon class="cls-3" points="43.449 137.479 44.191 137.933 46.128 138.172 46.975 138.043 46.629 141.839 42.157 141.839 43.449 137.479"/><path class="cls-2" d="M33.724,141.821l.524-5.079s1.105-1.984,1.28-2.381.988,0,.988,0l.931,2.54.814,4.92Z"/><path class="cls-4" d="M35.557,134.838a1.415,1.415,0,0,0,.581.238,1.238,1.238,0,0,0,.553-.238s-.087-2.5-.567-2.46-.85,2.485-.85,2.485Z"/><polygon class="cls-4" points="34.248 136.742 35.274 137.298 36.545 137.298 37.447 136.901 38.261 141.821 33.724 141.821 34.248 136.742"/><polygon class="cls-2" points="37.453 141.821 38.657 136.622 40.892 134.229 42.183 134.55 42.777 136.786 42.777 141.821 37.453 141.821"/><path class="cls-5" d="M40.892,134.229s.008.3.637.495.654-.174.654-.174A12.378,12.378,0,0,0,42,132.421C41.86,132.223,40.892,134.229,40.892,134.229Z"/><polygon class="cls-5" points="38.657 136.622 39.417 137.461 41.878 137.725 42.777 136.786 42.777 141.821 37.453 141.821 38.657 136.622"/><polygon class="cls-2" points="33.958 141.839 33.434 136.314 32.439 134.028 31.112 134.248 30.275 137.028 29.987 141.839 33.958 141.839"/><path class="cls-6" d="M31.112,134.248s.428.538.742.4a1.725,1.725,0,0,0,.585-.617s-.655-2.12-.864-1.81A10.483,10.483,0,0,0,31.112,134.248Z"/><polygon class="cls-6" points="30.275 137.028 31.383 137.479 32.71 137.028 33.434 136.314 33.958 141.839 29.987 141.839 30.275 137.028"/><polygon class="cls-2" points="22.71 141.857 21.735 138.269 19.891 136.538 19.074 136.538 18.655 138.996 19.335 141.857 22.71 141.857"/><path class="cls-7" d="M19.891,136.538s-.182.334-.323.381c-.356.117-.494-.381-.494-.381s-.224-1.66,0-1.581S19.891,136.538,19.891,136.538Z"/><polygon class="cls-7" points="21.735 138.269 21.175 138.643 19.713 138.839 18.655 138.734 19.335 141.857 22.71 141.857 21.735 138.269"/><path class="cls-2" d="M28.237,141.845l-.343-3.329s-.725-1.3-.839-1.56-.648,0-.648,0l-.61,1.664-.534,3.225Z"/><path class="cls-8" d="M27.036,137.268a.929.929,0,0,1-.381.156.813.813,0,0,1-.363-.156s.058-1.638.372-1.612.557,1.629.557,1.629Z"/><polygon class="cls-8" points="27.894 138.516 27.221 138.88 26.388 138.88 25.797 138.62 25.263 141.845 28.237 141.845 27.894 138.516"/><polygon class="cls-2" points="25.793 141.845 25.004 138.437 23.539 136.869 22.693 137.079 22.304 138.545 22.304 141.845 25.793 141.845"/><path class="cls-9" d="M23.539,136.869s-.006.2-.417.325-.429-.115-.429-.115a8.087,8.087,0,0,1,.12-1.4C22.9,135.555,23.539,136.869,23.539,136.869Z"/><polygon class="cls-9" points="25.004 138.437 24.506 138.987 22.893 139.16 22.304 138.545 22.304 141.845 25.793 141.845 25.004 138.437"/><polygon class="cls-2" points="28.084 141.857 28.427 138.236 29.079 136.737 29.949 136.881 30.498 138.704 30.687 141.857 28.084 141.857"/><path class="cls-10" d="M29.949,136.881s-.281.354-.487.261a1.131,1.131,0,0,1-.383-.405s.429-1.389.566-1.186A6.856,6.856,0,0,1,29.949,136.881Z"/><polygon class="cls-10" points="30.498 138.704 29.771 138.999 28.902 138.704 28.427 138.236 28.084 141.857 30.687 141.857 30.498 138.704"/><polygon class="cls-2" points="73.919 18.156 66.541 26.547 68.786 29.672 69.908 29.672 67.705 26.499 75.083 18.156 73.919 18.156"/><polygon class="cls-2" points="77.595 18.156 70.282 26.547 72.526 29.672 71.196 29.672 68.952 26.547 76.39 18.156 77.595 18.156"/><polygon class="cls-2" points="79.281 18.156 71.737 26.691 74.023 29.672 75.228 29.672 72.942 26.835 80.57 18.156 79.281 18.156"/><polygon class="cls-2" points="81.726 18.156 74.729 26.643 76.935 29.678 78.717 29.662 75.685 26.595 83.211 17.727 81.726 18.156"/><path class="cls-2" d="M84.58,17.412s-4.78,6.058-5.195,6.707-2.12,2.812-2.12,2.812L79.7,29.678h1.257l-2.525-2.554s3.741-5.481,4.7-6.443a18.123,18.123,0,0,0,2.2-3.509Z"/><path class="cls-2" d="M86.16,17.172S83.915,22.22,83.126,22.8a33.58,33.58,0,0,0-3.2,3.99l2.109,2.875,1.092.016-2.162-2.939s2.619-3.461,2.91-3.99S86.5,17.172,86.5,17.172Z"/><path class="cls-2" d="M86.243,18.855a44.586,44.586,0,0,1-1.787,5.12c-.458.649-2.037,2.764-2.037,2.764s1.413,2.356,1.538,2.692.085.231.085.231l.869.01-1.7-3.029a16.776,16.776,0,0,0,1.91-3.077c.208-.817,1.122-3.317,1.122-3.317Z"/><path class="cls-2" d="M86.243,21.5s-1.039,3.077-1.289,3.557-.831,1.491-.831,1.491l1.1,3.115.932.01-1.284-2.933s.956-3.029.956-3.173S86.243,21.5,86.243,21.5Z"/><polygon class="cls-2" points="86.243 23.566 85.329 26.355 86.497 29.672 86.981 29.662 85.869 26.258 86.243 23.566"/><polygon class="cls-2" points="22.729 18.156 17.427 24.859 17.427 23.878 21.478 18.156 22.729 18.156"/><polygon class="cls-2" points="20.142 18.156 17.674 21.301 17.674 20.225 18.848 18.156 20.142 18.156"/><polygon class="cls-2" points="66.162 18.156 58.809 26.547 61.053 29.672 62.176 29.672 59.973 26.499 67.326 18.156 66.162 18.156"/><polygon class="cls-2" points="69.863 18.156 62.55 26.547 64.794 29.672 63.464 29.672 61.22 26.547 68.658 18.156 69.863 18.156"/><polygon class="cls-2" points="71.53 18.156 64.005 26.691 66.291 29.672 67.496 29.672 65.21 26.835 72.818 18.156 71.53 18.156"/><polygon class="cls-2" points="58.31 18.156 51.001 26.478 53.246 29.603 54.368 29.603 52.165 26.43 59.474 18.156 58.31 18.156"/><polygon class="cls-2" points="61.974 18.208 54.742 26.478 56.987 29.603 55.656 29.603 53.412 26.478 60.769 18.208 61.974 18.208"/><polygon class="cls-2" points="63.637 18.208 56.197 26.622 58.483 29.603 59.688 29.603 57.402 26.766 64.926 18.208 63.637 18.208"/><polygon class="cls-2" points="50.595 18.156 43.269 26.478 45.514 29.603 46.636 29.603 44.433 26.43 51.759 18.156 50.595 18.156"/><polygon class="cls-2" points="54.322 18.156 47.01 26.478 49.254 29.603 47.924 29.603 45.68 26.478 53.105 18.156 54.322 18.156"/><polygon class="cls-2" points="55.905 18.208 48.465 26.622 50.751 29.603 51.956 29.603 49.67 26.766 57.193 18.208 55.905 18.208"/><polygon class="cls-2" points="48.025 18.191 40.699 26.512 42.944 29.637 44.066 29.637 41.863 26.464 49.189 18.191 48.025 18.191"/><polygon class="cls-2" points="40.297 18.156 32.967 26.512 35.212 29.637 36.334 29.637 34.131 26.464 41.634 18.156 40.297 18.156"/><polygon class="cls-2" points="44.052 18.156 36.708 26.512 38.952 29.637 37.622 29.637 35.378 26.512 42.792 18.156 44.052 18.156"/><polygon class="cls-2" points="45.68 18.156 38.163 26.656 40.449 29.637 41.654 29.637 39.368 26.801 46.939 18.156 45.68 18.156"/><polygon class="cls-2" points="32.335 18.156 25.159 26.443 27.404 29.568 28.526 29.568 26.323 26.395 33.655 18.156 32.335 18.156"/><polygon class="cls-2" points="36.133 18.174 28.9 26.443 31.145 29.568 29.815 29.568 27.57 26.443 34.927 18.174 36.133 18.174"/><polygon class="cls-2" points="37.795 18.174 30.355 26.587 32.641 29.568 33.846 29.568 31.56 26.731 39.084 18.174 37.795 18.174"/><polygon class="cls-2" points="24.518 18.156 17.427 26.443 19.672 29.568 20.794 29.568 18.591 26.395 25.923 18.156 24.518 18.156"/><polygon class="cls-2" points="28.4 18.174 21.168 26.443 23.413 29.568 22.082 29.568 19.838 26.443 27.195 18.174 28.4 18.174"/><polygon class="cls-2" points="30.063 18.174 22.623 26.587 24.909 29.568 26.114 29.568 23.828 26.731 31.352 18.174 30.063 18.174"/><path class="cls-11" d="M59.915,30.808A1.59,1.59,0,0,1,58.7,30.34a1.256,1.256,0,0,1-.373-.9.755.755,0,0,1,.115-.432.363.363,0,0,1,.319-.172q.273,0,.4.381a.738.738,0,0,0,.783.509,1.859,1.859,0,0,0,1.01-.311.874.874,0,0,0,.507-.7.7.7,0,0,0-.316-.687,2.362,2.362,0,0,0-.9-.141,1.894,1.894,0,0,1-.94-.269,1.07,1.07,0,0,1-.552-.985,2.171,2.171,0,0,1,.631-1.48,1.844,1.844,0,0,1,1.371-.673,1.939,1.939,0,0,1,.734.187q.543.231.543.534a.672.672,0,0,1-.109.38.361.361,0,0,1-.313.187,1.7,1.7,0,0,1-.426-.083,1.7,1.7,0,0,0-.429-.083,1.274,1.274,0,0,0-.743.257.707.707,0,0,0-.365.559.334.334,0,0,0,.111.258.669.669,0,0,0,.332.143l.774.058a1.573,1.573,0,0,1,1.065.517,2.034,2.034,0,0,1,.431,1.375,1.786,1.786,0,0,1-.892,1.618A2.9,2.9,0,0,1,59.915,30.808Z"/><path class="cls-11" d="M66.423,25.593c-.158,0-.4-.015-.737-.046a7.249,7.249,0,0,0-.737-.041c.008.314.035.875.081,1.68q.064,1.068.064,1.689c0,.094.007.233.021.418s.022.324.022.418a1.538,1.538,0,0,1-.1.559c-.083.213-.2.319-.355.319a.382.382,0,0,1-.3-.145.591.591,0,0,1-.142-.406,1.555,1.555,0,0,1,.015-.176,1.524,1.524,0,0,0,.015-.18c0-.127-.006-.318-.02-.575s-.019-.45-.019-.58q0-.553-.064-1.5-.073-1.089-.085-1.5h-.158a3.517,3.517,0,0,1-1.074-.132.5.5,0,0,1-.336-.542.687.687,0,0,1,.109-.381.337.337,0,0,1,.333-.182c.071,0,.232.029.483.07a3.453,3.453,0,0,0,.485.046c.124,0,.308,0,.554-.009s.43-.008.554-.008c.153,0,.384.015.691.044s.538.043.692.043a.372.372,0,0,1,.3.161.638.638,0,0,1,.123.4.645.645,0,0,1-.123.4A.37.37,0,0,1,66.423,25.593Z"/><path class="cls-11" d="M70.315,29.84a2.42,2.42,0,0,1-.534.683,1.2,1.2,0,0,1-.785.331,1.51,1.51,0,0,1-1.15-.4,4.233,4.233,0,0,1-.8-2.923q0-.2.015-.594t.015-.594c0-.106,0-.264.006-.473s.006-.369.006-.474a2.114,2.114,0,0,1,.088-.614c.079-.255.19-.382.331-.382a.381.381,0,0,1,.294.145.57.57,0,0,1,.14.4c0,.153,0,.387,0,.7s0,.547,0,.7c0,.13,0,.325-.015.587s-.015.459-.015.588a5.873,5.873,0,0,0,.109,1.167,1.82,1.82,0,0,0,.373.9.931.931,0,0,0,.607.142q.8.017,1.08-1.863a19.629,19.629,0,0,0,.145-2.732,1.063,1.063,0,0,1,.1-.447.425.425,0,0,1,.389-.285.331.331,0,0,1,.309.207.724.724,0,0,1,.079.339,22.2,22.2,0,0,1-.112,2.55A6.607,6.607,0,0,1,70.315,29.84Z"/><path class="cls-11" d="M76.189,29.537a6.243,6.243,0,0,1-.052.654q-.06.534-.443.534-.212,0-.479-.327a29.986,29.986,0,0,1-2.636-4.027c-.012.717-.019,1.158-.019,1.32,0,.218,0,.547.011.985s.011.768.011.986q0,1.221-.437,1.221a.414.414,0,0,1-.355-.187.67.67,0,0,1-.118-.4c0-.11.006-.277.019-.5s.02-.39.02-.5q0-.245.012-.732t.012-.733q0-.261-.009-.787t-.009-.786q0-.249-.036-.741t-.037-.741a.691.691,0,0,1,.156-.443.455.455,0,0,1,.357-.194c.15,0,.315.176.5.53a26.953,26.953,0,0,0,2.719,4.375c0-.089,0-.3,0-.629q0-2.041-.031-2.753-.006-.12-.039-.447c-.02-.193-.03-.345-.03-.455,0-.381.147-.572.443-.572q.494,0,.494,2.082,0,.046-.006.654Q76.189,29.024,76.189,29.537Z"/><path class="cls-11" d="M77.3,30.6a.375.375,0,0,1-.3-.168.642.642,0,0,1-.121-.395q0-.414.028-1.242t.029-1.241q0-.46-.013-1.379t-.014-1.378a.776.776,0,0,1,.161-.453.438.438,0,0,1,.343-.226,1.58,1.58,0,0,1,.5.257q.471.306.558.343a3.843,3.843,0,0,1,1.517,1.217,3.488,3.488,0,0,1,.75,2.169,3.637,3.637,0,0,1-.258,1.362,2.682,2.682,0,0,1-.707,1.055,2.064,2.064,0,0,1-1.417.447,1.792,1.792,0,0,1-.51-.086A1.519,1.519,0,0,1,77.3,30.6ZM79,26.342a9.3,9.3,0,0,0-1.262-.795v4.1a.789.789,0,0,0,.272.155,1.048,1.048,0,0,0,.341.052A1.432,1.432,0,0,0,79.3,29.6a1.618,1.618,0,0,0,.429-.642,2.292,2.292,0,0,0,.159-.844A2.264,2.264,0,0,0,79,26.342Z"/><path class="cls-11" d="M84.429,29.84a2.457,2.457,0,0,1-.534.683,1.2,1.2,0,0,1-.786.331,1.51,1.51,0,0,1-1.15-.4,4.233,4.233,0,0,1-.8-2.923q0-.2.016-.594t.015-.594c0-.106,0-.264.006-.473s.006-.369.006-.474a2.081,2.081,0,0,1,.088-.614q.118-.383.331-.382a.381.381,0,0,1,.294.145.57.57,0,0,1,.139.4c0,.153,0,.387,0,.7s-.005.547-.005.7c0,.13,0,.325-.015.587s-.015.459-.015.588a5.873,5.873,0,0,0,.109,1.167,1.82,1.82,0,0,0,.373.9.931.931,0,0,0,.607.142q.8.017,1.08-1.863a19.6,19.6,0,0,0,.146-2.732,1.048,1.048,0,0,1,.1-.447.424.424,0,0,1,.388-.285.331.331,0,0,1,.31.207.735.735,0,0,1,.078.339A22.2,22.2,0,0,1,85.1,27.5,6.628,6.628,0,0,1,84.429,29.84Z"/><path class="cls-11" d="M89.932,30.808a1.589,1.589,0,0,1-1.213-.468,1.257,1.257,0,0,1-.374-.9.756.756,0,0,1,.116-.432.363.363,0,0,1,.318-.172q.273,0,.4.381a.737.737,0,0,0,.782.509,1.862,1.862,0,0,0,1.011-.311.875.875,0,0,0,.506-.7.7.7,0,0,0-.315-.687,2.366,2.366,0,0,0-.9-.141,1.9,1.9,0,0,1-.941-.269,1.071,1.071,0,0,1-.552-.985,2.176,2.176,0,0,1,.631-1.48,1.847,1.847,0,0,1,1.371-.673,1.943,1.943,0,0,1,.735.187q.543.231.543.534a.68.68,0,0,1-.109.38.362.362,0,0,1-.313.187,1.7,1.7,0,0,1-.426-.083,1.7,1.7,0,0,0-.43-.083,1.278,1.278,0,0,0-.743.257.705.705,0,0,0-.364.559.334.334,0,0,0,.111.258.665.665,0,0,0,.332.143l.774.058a1.573,1.573,0,0,1,1.065.517,2.033,2.033,0,0,1,.43,1.375,1.784,1.784,0,0,1-.892,1.618A2.9,2.9,0,0,1,89.932,30.808Z"/><path class="cls-11" d="M96.3,30.68q-.24-.012-.482-.77a8.482,8.482,0,0,1-.276-1.126c-.15.03-.395.061-.735.091a5.517,5.517,0,0,0-.734.108q-.139.454-.485,1.37-.133.3-.37.3a.394.394,0,0,1-.3-.155.587.587,0,0,1-.133-.4,7.872,7.872,0,0,1,.443-1.432.657.657,0,0,1-.037-.24c.009-.132.107-.236.3-.31q.431-1.018.958-2.111.759-1.569.935-1.569.333,0,.446.55.06.444.191,1.329.184,1.192.452,2.728.021.115.155.546a2.024,2.024,0,0,1,.109.534.616.616,0,0,1-.132.4A.361.361,0,0,1,96.3,30.68Zm-1.132-4.247q-.236.555-.652,1.511a2.194,2.194,0,0,1,.425-.066c.226-.02.369-.035.428-.046Q95.3,27.293,95.168,26.433Z"/><path class="cls-11" d="M100.469,30.605a.386.386,0,0,1-.3-.173,5.057,5.057,0,0,0-2.02-1.631q.033,1.2.033,1.337a.65.65,0,0,1-.121.4.363.363,0,0,1-.607,0,.65.65,0,0,1-.121-.4q0-.311.006-.93t.006-.929l.006-3.34a1.013,1.013,0,0,1,.118-.489A.416.416,0,0,1,97.9,24.2c.491.049.743.076.755.078a1.746,1.746,0,0,1,.722.278,2.614,2.614,0,0,1,1.3,2.206,1.714,1.714,0,0,1-.272.958,2.12,2.12,0,0,1-.814.7,5,5,0,0,1,1.21,1.25.665.665,0,0,1,.106.368.642.642,0,0,1-.127.4A.374.374,0,0,1,100.469,30.605ZM98.524,25.4c-.016,0-.135-.014-.355-.033v2.2c.051,0,.095,0,.133,0a1.932,1.932,0,0,0,1.1-.252,1.2,1.2,0,0,0,.283-.286.548.548,0,0,0,.129-.269,1.267,1.267,0,0,0-.43-.894A1.532,1.532,0,0,0,98.524,25.4Z"/><path class="cls-11" d="M104.822,30.68q-.24-.012-.482-.77a8.482,8.482,0,0,1-.276-1.126c-.15.03-.395.061-.735.091a5.517,5.517,0,0,0-.734.108q-.139.454-.485,1.37-.133.3-.37.3a.394.394,0,0,1-.3-.155.587.587,0,0,1-.133-.4,7.872,7.872,0,0,1,.443-1.432.657.657,0,0,1-.037-.24c.009-.132.107-.236.3-.31q.43-1.018.958-2.111.759-1.569.935-1.569.333,0,.446.55.06.444.191,1.329.184,1.192.452,2.728.021.115.155.546a2.024,2.024,0,0,1,.109.534.616.616,0,0,1-.132.4A.361.361,0,0,1,104.822,30.68Zm-1.132-4.247q-.236.555-.652,1.511a2.194,2.194,0,0,1,.425-.066c.226-.02.369-.035.428-.046Q103.818,27.293,103.69,26.433Z"/><path class="cls-11" d="M106.773,28.722l0,1.743a.739.739,0,0,1-.076.335.334.334,0,0,1-.309.211.417.417,0,0,1-.377-.265.965.965,0,0,1-.106-.443q0-.918.043-2.761t.042-2.761a.659.659,0,0,1,.121-.4.36.36,0,0,1,.606,0,.658.658,0,0,1,.12.4c0,.249-.01.584-.028,1.006-.022.491-.035.827-.039,1.006q.212-.273,1.574-2.3a.394.394,0,0,1,.322-.207.377.377,0,0,1,.3.165.635.635,0,0,1,.129.4,4.173,4.173,0,0,1-.722,1.333q-.534.791-1.126,1.56.332.426.665.853a10.367,10.367,0,0,0,.7.8,1.125,1.125,0,0,0,.334.232.534.534,0,0,1,.325.542.769.769,0,0,1-.082.343.345.345,0,0,1-.313.224q-.433,0-1.125-.774Q107.54,29.736,106.773,28.722Z"/><path class="cls-11" d="M111.1,30.808a1.589,1.589,0,0,1-1.213-.468,1.257,1.257,0,0,1-.374-.9.756.756,0,0,1,.116-.432.363.363,0,0,1,.318-.172q.273,0,.4.381a.737.737,0,0,0,.782.509,1.862,1.862,0,0,0,1.011-.311.875.875,0,0,0,.506-.7.7.7,0,0,0-.315-.687,2.366,2.366,0,0,0-.9-.141,1.9,1.9,0,0,1-.941-.269,1.071,1.071,0,0,1-.552-.985,2.176,2.176,0,0,1,.631-1.48,1.847,1.847,0,0,1,1.371-.673,1.943,1.943,0,0,1,.735.187q.543.231.543.534a.68.68,0,0,1-.109.38.362.362,0,0,1-.313.187,1.7,1.7,0,0,1-.426-.083,1.7,1.7,0,0,0-.43-.083,1.278,1.278,0,0,0-.743.257.708.708,0,0,0-.364.559.334.334,0,0,0,.111.258.665.665,0,0,0,.332.143l.774.058a1.573,1.573,0,0,1,1.065.517,2.033,2.033,0,0,1,.43,1.375,1.784,1.784,0,0,1-.892,1.618A2.9,2.9,0,0,1,111.1,30.808Z"/><path class="cls-11" d="M117.61,25.593q-.237,0-.738-.046a7.221,7.221,0,0,0-.737-.041c.008.314.036.875.082,1.68q.065,1.068.064,1.689c0,.094.007.233.021.418s.021.324.021.418a1.517,1.517,0,0,1-.1.559q-.124.32-.355.319a.381.381,0,0,1-.294-.145.592.592,0,0,1-.143-.406,1.394,1.394,0,0,1,.016-.176,1.524,1.524,0,0,0,.015-.18c0-.127-.007-.318-.02-.575s-.02-.45-.02-.58q0-.553-.063-1.5-.073-1.089-.085-1.5h-.158a3.517,3.517,0,0,1-1.074-.132.5.5,0,0,1-.337-.542.7.7,0,0,1,.109-.381.338.338,0,0,1,.334-.182c.071,0,.232.029.482.07a3.478,3.478,0,0,0,.486.046c.123,0,.308,0,.554-.009s.43-.008.553-.008q.231,0,.692.044c.307.028.538.043.692.043a.372.372,0,0,1,.305.161.643.643,0,0,1,.122.4.65.65,0,0,1-.122.4A.37.37,0,0,1,117.61,25.593Z"/><path class="cls-11" d="M119.733,30.808a1.59,1.59,0,0,1-1.213-.468,1.256,1.256,0,0,1-.373-.9.755.755,0,0,1,.115-.432.363.363,0,0,1,.318-.172c.183,0,.316.127.4.381a.738.738,0,0,0,.783.509,1.859,1.859,0,0,0,1.01-.311.874.874,0,0,0,.507-.7.7.7,0,0,0-.316-.687,2.366,2.366,0,0,0-.9-.141,1.894,1.894,0,0,1-.94-.269,1.07,1.07,0,0,1-.553-.985,2.176,2.176,0,0,1,.631-1.48,1.847,1.847,0,0,1,1.372-.673,1.939,1.939,0,0,1,.734.187q.543.231.543.534a.672.672,0,0,1-.109.38.361.361,0,0,1-.313.187,1.7,1.7,0,0,1-.426-.083,1.7,1.7,0,0,0-.429-.083,1.279,1.279,0,0,0-.744.257.708.708,0,0,0-.364.559.334.334,0,0,0,.111.258.669.669,0,0,0,.332.143l.774.058a1.573,1.573,0,0,1,1.065.517,2.034,2.034,0,0,1,.431,1.375,1.786,1.786,0,0,1-.892,1.618A2.9,2.9,0,0,1,119.733,30.808Z"/><rect class="cls-2" x="20.919" y="39.803" width="10.274" height="6.007"/><rect class="cls-2" x="33" y="39.803" width="21.174" height="6.007"/><path class="cls-11" d="M37.394,43.521a.894.894,0,0,1-.124-.018c-.005.139-.008.383-.008.73a.162.162,0,0,1-.026.093.077.077,0,0,1-.133,0,.162.162,0,0,1-.026-.093v-.4c0-.136.006-.326.018-.572.014-.265.021-.456.023-.571V42.5a1.165,1.165,0,0,1,.012-.2q.023-.121.1-.1a.326.326,0,0,1,.092-.02,1.218,1.218,0,0,1,.146-.007.472.472,0,0,1,.347.172.645.645,0,0,1,.178.458.762.762,0,0,1-.19.545A.535.535,0,0,1,37.394,43.521Zm.05-1.095a.644.644,0,0,0-.079,0,.4.4,0,0,0-.059.008l0,.254-.022.549.112.018a.389.389,0,0,0,.286-.118.467.467,0,0,0,.127-.346.348.348,0,0,0-.121-.266A.355.355,0,0,0,37.444,42.426Z"/><path class="cls-11" d="M39.022,42.612a.934.934,0,0,1-.163-.018l-.163-.029q-.023.4-.023.767c0,.064,0,.144,0,.239s0,.175,0,.239c0,.086,0,.165-.007.236l.318-.006a.086.086,0,0,1,.072.041.189.189,0,0,1,0,.2.086.086,0,0,1-.072.041l-.169,0-.17,0a1.155,1.155,0,0,0-.2.025,1.092,1.092,0,0,1-.2.026.085.085,0,0,1-.071-.041.171.171,0,0,1-.029-.1.177.177,0,0,1,.029-.1.085.085,0,0,1,.071-.041,1.369,1.369,0,0,0,.218-.029c.006-.074.01-.159.01-.255,0-.064,0-.141-.007-.233s-.006-.168-.006-.231c0-.212.009-.478.028-.8l-.132.006-.131,0a.088.088,0,0,1-.073-.04.173.173,0,0,1-.029-.1c0-.086.031-.133.095-.141a2.606,2.606,0,0,1,.306-.011,2.758,2.758,0,0,1,.505.059c.06.012.09.062.09.148a.147.147,0,0,1-.034.1A.093.093,0,0,1,39.022,42.612Z"/><path class="cls-11" d="M40.324,44.346a.09.09,0,0,1-.071-.044,1.7,1.7,0,0,0-.745-.607l.008.271.005.271a.173.173,0,0,1-.028.1.089.089,0,0,1-.073.041.086.086,0,0,1-.072-.041.173.173,0,0,1-.029-.1c0-.072,0-.18-.007-.325s-.008-.252-.008-.324.007-.211.02-.379.02-.293.02-.376c0-.047,0-.117-.009-.209s-.01-.161-.01-.208a.279.279,0,0,1,.033-.138.1.1,0,0,1,.106-.066l.243.026a.536.536,0,0,1,.234.093.873.873,0,0,1,.41.724.552.552,0,0,1-.14.371.712.712,0,0,1-.28.2,1.753,1.753,0,0,1,.47.486.178.178,0,0,1,.026.094.172.172,0,0,1-.03.1A.09.09,0,0,1,40.324,44.346Zm-.644-1.824-.15-.016.011.167c0,.068.007.123.007.167,0,.074-.005.165-.013.274l-.022.275h.044l.045,0a.653.653,0,0,0,.387-.094.542.542,0,0,0,.105-.112.251.251,0,0,0,.053-.131.507.507,0,0,0-.159-.357A.542.542,0,0,0,39.68,42.522Z"/><path class="cls-11" d="M42.13,44.446q-.054,0-.09-.078a.937.937,0,0,1-.054-.22l-.037-.238c-.027-.147-.071-.471-.131-.974l-.2.832-.06.262a1.85,1.85,0,0,1-.076.256c-.028.069-.066.1-.114.1s-.071-.03-.094-.089a.982.982,0,0,1-.041-.147L41.2,44q-.1-.486-.18-1.043l-.036.247-.131.729c0,.085-.022.212-.05.379-.021.072-.054.108-.1.108a.088.088,0,0,1-.079-.048.193.193,0,0,1-.026-.1,2.9,2.9,0,0,1,.07-.566l.111-.556.059-.435a1.508,1.508,0,0,1,.094-.4c.027-.053.061-.08.1-.08s.077.034.1.1a3.223,3.223,0,0,1,.085.5c.036.3.092.63.167.983q.15-.531.259-1.107l.03-.2a.875.875,0,0,1,.048-.2c.026-.069.062-.1.108-.1s.1.076.133.229c.01.052.024.16.039.325a10.5,10.5,0,0,0,.149,1.066l.049.237a1.769,1.769,0,0,1,.039.234.153.153,0,0,1-.033.1A.1.1,0,0,1,42.13,44.446Z"/><path class="cls-11" d="M43.4,44.322a.64.64,0,0,1-.45.146.542.542,0,0,1-.169-.032.412.412,0,0,1-.172-.1H42.6a.085.085,0,0,1-.073-.041.165.165,0,0,1-.029-.1c0-.1,0-.241.009-.434s.01-.337.01-.433,0-.269-.005-.483,0-.374,0-.482a.215.215,0,0,1,.042-.119c.028-.041.057-.062.085-.062a.624.624,0,0,1,.162.093q.156.1.18.114a1.263,1.263,0,0,1,.489.411,1.193,1.193,0,0,1,.238.719,1.279,1.279,0,0,1-.081.453A.923.923,0,0,1,43.4,44.322Zm-.213-1.46a3.724,3.724,0,0,0-.476-.318l0,.4,0,.4-.016.753a.126.126,0,0,1,.021.018.318.318,0,0,0,.225.081.487.487,0,0,0,.335-.1.629.629,0,0,0,.157-.245.921.921,0,0,0,.058-.321A.861.861,0,0,0,43.191,42.862Z"/><path class="cls-11" d="M44.778,42.612a.944.944,0,0,1-.163-.018l-.163-.029q-.023.4-.023.767c0,.064,0,.144,0,.239s0,.175,0,.239c0,.086,0,.165-.007.236l.319-.006a.085.085,0,0,1,.071.041.189.189,0,0,1,0,.2.085.085,0,0,1-.071.041l-.17,0-.17,0a1.155,1.155,0,0,0-.2.025,1.082,1.082,0,0,1-.2.026.085.085,0,0,1-.071-.041.171.171,0,0,1-.029-.1.177.177,0,0,1,.029-.1.085.085,0,0,1,.071-.041,1.369,1.369,0,0,0,.218-.029c.007-.074.01-.159.01-.255,0-.064,0-.141-.007-.233s-.006-.168-.006-.231c0-.212.009-.478.028-.8l-.131.006-.132,0a.088.088,0,0,1-.073-.04.173.173,0,0,1-.029-.1c0-.086.032-.133.095-.141a2.606,2.606,0,0,1,.306-.011,2.758,2.758,0,0,1,.505.059c.06.012.09.062.09.148a.147.147,0,0,1-.034.1A.092.092,0,0,1,44.778,42.612Z"/><path class="cls-11" d="M46.069,42.474a.076.076,0,0,1-.031-.007.915.915,0,0,0-.33-.066.876.876,0,0,0-.181.021,1.438,1.438,0,0,0-.211.063q.009.09.009.144c0,.127-.006.3-.017.527l.443-.058c.13-.019.21-.028.239-.028a.091.091,0,0,1,.075.039.156.156,0,0,1,.031.1q0,.126-.093.141l-.241.029-.467.058c0,.065-.005.127-.007.185s0,.114,0,.164a1.049,1.049,0,0,0,.032.359c.016.025.069.038.159.038.041,0,.1,0,.188,0s.147-.005.19-.005a.308.308,0,0,0,.06-.009.284.284,0,0,1,.058-.009c.072,0,.107.047.107.143,0,.078-.028.124-.085.14a2.02,2.02,0,0,1-.412.026c-.209,0-.343-.038-.4-.113a1.056,1.056,0,0,1-.1-.566c0-.059,0-.124,0-.193s.005-.146.008-.226a.22.22,0,0,1-.011-.068.18.18,0,0,1,.02-.084q.02-.4.02-.589a1.494,1.494,0,0,0-.01-.15c-.007-.066-.01-.116-.01-.15,0-.11.033-.164.1-.164a.09.09,0,0,1,.073.04,1.439,1.439,0,0,1,.229-.066.981.981,0,0,1,.2-.022.828.828,0,0,1,.393.08.138.138,0,0,1,.067.132.177.177,0,0,1-.026.1A.085.085,0,0,1,46.069,42.474Z"/><path class="cls-11" d="M47.794,44.025c0,.044-.006.118-.017.221s-.046.139-.108.139q-.055,0-.132-.1a11.016,11.016,0,0,1-.945-1.533l0,.313,0,.315c0,.076,0,.191,0,.343s0,.268,0,.345c0,.248-.035.371-.105.371a.1.1,0,0,1-.088-.048.18.18,0,0,1-.029-.1c0-.039,0-.1.006-.175s.007-.137.007-.176c0-.057,0-.142,0-.256s0-.2,0-.256,0-.152,0-.275,0-.214,0-.275,0-.144-.012-.259-.012-.2-.012-.258a.184.184,0,0,1,.04-.116.11.11,0,0,1,.09-.053c.036,0,.08.053.133.16q.251.515.453.856a7.432,7.432,0,0,0,.525.772c0-.039,0-.1,0-.175l0-.174c0-.4-.011-.725-.034-.964,0-.024-.012-.073-.027-.145a.72.72,0,0,1-.021-.146c0-.107.036-.16.108-.16q.175,0,.176.895c0,.1,0,.255,0,.458S47.794,43.923,47.794,44.025Z"/><path class="cls-11" d="M49.15,44.373c-.062,0-.116-.109-.162-.326q-.027-.124-.066-.435-.1.02-.27.069l-.269.076q-.05.182-.173.529c-.021.051-.051.077-.088.077a.09.09,0,0,1-.072-.04.157.157,0,0,1-.032-.1,3.07,3.07,0,0,1,.153-.5.184.184,0,0,1-.017-.083.135.135,0,0,1,.1-.143q.115-.3.291-.679.24-.523.3-.523c.054,0,.09.05.109.152l.064.463.151.959.058.218a.789.789,0,0,1,.029.149.163.163,0,0,1-.031.1A.093.093,0,0,1,49.15,44.373ZM48.793,42.8l-.29.636c.082-.029.206-.063.372-.1Z"/><rect class="cls-2" x="55.049" y="39.803" width="21.174" height="6.007"/><path class="cls-11" d="M59.836,44.415a.613.613,0,0,1-.484-.233.956.956,0,0,1-.21-.64,1.824,1.824,0,0,1,.207-.868.673.673,0,0,1,.578-.433.593.593,0,0,1,.494.2,1.074,1.074,0,0,1,.169.671,1.911,1.911,0,0,1-.19.861Q60.181,44.415,59.836,44.415Zm.091-1.891c-.165,0-.306.112-.42.336a1.473,1.473,0,0,0-.159.682.635.635,0,0,0,.145.433.438.438,0,0,0,.343.158c.163,0,.3-.113.405-.339a1.568,1.568,0,0,0,.143-.678.747.747,0,0,0-.109-.464A.423.423,0,0,0,59.927,42.524Z"/><path class="cls-11" d="M62.055,42.589c-.049,0-.126-.006-.23-.017s-.178-.014-.231-.014h-.072c0,.127.012.333.028.618q.023.4.022.62c0,.032,0,.081.007.146s.007.115.007.148a.509.509,0,0,1-.022.161c-.019.061-.048.091-.088.091A.1.1,0,0,1,61.4,44.3a.154.154,0,0,1-.032-.1.438.438,0,0,1,0-.062c0-.027.005-.048.005-.062,0-.045,0-.112-.007-.2s-.006-.158-.006-.2q0-.2-.024-.555c-.016-.257-.025-.442-.027-.554h-.092a1.075,1.075,0,0,1-.348-.044.129.129,0,0,1-.082-.137.179.179,0,0,1,.027-.1.08.08,0,0,1,.077-.044c.024,0,.078.01.162.025a1.06,1.06,0,0,0,.164.016l.184,0,.184,0a2.315,2.315,0,0,1,.231.016c.1.01.18.015.231.015a.089.089,0,0,1,.073.04.166.166,0,0,1,.029.1.164.164,0,0,1-.029.1A.087.087,0,0,1,62.055,42.589Z"/><path class="cls-11" d="M63.224,44.346a.09.09,0,0,1-.071-.044,1.7,1.7,0,0,0-.745-.607l.008.271.005.271a.173.173,0,0,1-.028.1.089.089,0,0,1-.073.041.086.086,0,0,1-.072-.041.173.173,0,0,1-.029-.1c0-.072,0-.18-.007-.325s-.008-.252-.008-.324.007-.211.02-.379.02-.293.02-.376c0-.047,0-.117-.009-.209s-.01-.161-.01-.208a.279.279,0,0,1,.033-.138.1.1,0,0,1,.106-.066l.243.026a.536.536,0,0,1,.234.093.873.873,0,0,1,.41.724.552.552,0,0,1-.14.371.712.712,0,0,1-.28.2,1.753,1.753,0,0,1,.47.486.179.179,0,0,1,.027.094.173.173,0,0,1-.031.1A.09.09,0,0,1,63.224,44.346Zm-.644-1.824-.149-.016.01.167c0,.068.007.123.007.167,0,.074-.005.165-.013.274l-.022.275h.044l.045,0a.653.653,0,0,0,.387-.094.542.542,0,0,0,.1-.112.251.251,0,0,0,.053-.131.507.507,0,0,0-.159-.357A.542.542,0,0,0,62.58,42.522Z"/><path class="cls-11" d="M64.475,44.322a.636.636,0,0,1-.45.146.552.552,0,0,1-.169-.032.418.418,0,0,1-.172-.1h-.01A.083.083,0,0,1,63.6,44.3a.166.166,0,0,1-.03-.1c0-.1,0-.241.01-.434s.009-.337.009-.433,0-.269,0-.483-.005-.374-.005-.482a.217.217,0,0,1,.043-.119c.028-.041.056-.062.085-.062a.624.624,0,0,1,.162.093,2.049,2.049,0,0,0,.18.114,1.27,1.27,0,0,1,.489.411,1.193,1.193,0,0,1,.238.719,1.258,1.258,0,0,1-.082.453A.9.9,0,0,1,64.475,44.322Zm-.212-1.46a3.886,3.886,0,0,0-.476-.318l.005.4,0,.4-.016.753.021.018a.315.315,0,0,0,.224.081.489.489,0,0,0,.336-.1.616.616,0,0,0,.156-.245.9.9,0,0,0,.058-.321A.86.86,0,0,0,64.263,42.862Z"/><path class="cls-11" d="M65.85,42.612a.924.924,0,0,1-.163-.018l-.163-.029q-.023.4-.023.767c0,.064,0,.144,0,.239s0,.175,0,.239c0,.086,0,.165-.007.236l.318-.006a.087.087,0,0,1,.072.041.194.194,0,0,1,0,.2.087.087,0,0,1-.072.041l-.17,0-.169,0a1.155,1.155,0,0,0-.2.025,1.092,1.092,0,0,1-.2.026.085.085,0,0,1-.071-.041.171.171,0,0,1-.029-.1.177.177,0,0,1,.029-.1.085.085,0,0,1,.071-.041,1.361,1.361,0,0,0,.217-.029c.007-.074.011-.159.011-.255,0-.064,0-.141-.007-.233s-.007-.168-.007-.231c0-.212.01-.478.029-.8l-.132.006-.131,0a.086.086,0,0,1-.073-.04.173.173,0,0,1-.029-.1c0-.086.031-.133.095-.141a2.583,2.583,0,0,1,.306-.011,2.768,2.768,0,0,1,.505.059c.06.012.09.062.09.148a.148.148,0,0,1-.035.1A.09.09,0,0,1,65.85,42.612Z"/><path class="cls-11" d="M67.141,42.474a.076.076,0,0,1-.031-.007.915.915,0,0,0-.33-.066.868.868,0,0,0-.181.021,1.4,1.4,0,0,0-.211.063q.009.09.009.144c0,.127-.006.3-.017.527l.442-.058c.131-.019.211-.028.24-.028a.091.091,0,0,1,.075.039.162.162,0,0,1,.03.1q0,.126-.093.141l-.24.029-.468.058c0,.065,0,.127-.006.185s0,.114,0,.164a1.038,1.038,0,0,0,.033.359c.016.025.069.038.158.038.042,0,.105,0,.189,0s.147-.005.19-.005a.291.291,0,0,0,.059-.009.3.3,0,0,1,.059-.009c.072,0,.107.047.107.143,0,.078-.028.124-.086.14a2,2,0,0,1-.411.026c-.209,0-.343-.038-.4-.113a1.046,1.046,0,0,1-.1-.566c0-.059,0-.124,0-.193s0-.146.008-.226a.22.22,0,0,1-.011-.068.179.179,0,0,1,.019-.084c.014-.266.02-.462.02-.589a1.494,1.494,0,0,0-.01-.15c-.006-.066-.01-.116-.01-.15,0-.11.034-.164.1-.164a.088.088,0,0,1,.073.04,1.47,1.47,0,0,1,.229-.066,1,1,0,0,1,.2-.022.821.821,0,0,1,.392.08.137.137,0,0,1,.068.132.186.186,0,0,1-.026.1A.087.087,0,0,1,67.141,42.474Z"/><path class="cls-11" d="M68.865,44.025c0,.044,0,.118-.016.221s-.047.139-.108.139c-.037,0-.081-.033-.133-.1a11.123,11.123,0,0,1-.944-1.533l0,.313,0,.315c0,.076,0,.191,0,.343s0,.268,0,.345c0,.248-.035.371-.1.371a.1.1,0,0,1-.088-.048.173.173,0,0,1-.03-.1c0-.039,0-.1.007-.175s.007-.137.007-.176c0-.057,0-.142,0-.256s0-.2,0-.256,0-.152,0-.275,0-.214,0-.275-.005-.144-.013-.259-.012-.2-.012-.258a.19.19,0,0,1,.04-.116.113.113,0,0,1,.091-.053c.035,0,.08.053.132.16q.252.515.453.856a7.441,7.441,0,0,0,.526.772c0-.039,0-.1,0-.175l0-.174c0-.4-.011-.725-.034-.964,0-.024-.012-.073-.028-.145a.781.781,0,0,1-.02-.146c0-.107.036-.16.107-.16.118,0,.176.3.176.895,0,.1,0,.255,0,.458S68.865,43.923,68.865,44.025Z"/><path class="cls-11" d="M70.221,44.373c-.062,0-.116-.109-.161-.326q-.027-.124-.066-.435-.1.02-.27.069l-.269.076c-.034.121-.091.3-.173.529-.022.051-.051.077-.088.077a.09.09,0,0,1-.072-.04.151.151,0,0,1-.032-.1,3.125,3.125,0,0,1,.152-.5.2.2,0,0,1-.017-.083.135.135,0,0,1,.1-.143q.115-.3.292-.679c.159-.349.259-.523.3-.523s.09.05.109.152l.064.463.151.959.057.218a.739.739,0,0,1,.03.149.158.158,0,0,1-.032.1A.093.093,0,0,1,70.221,44.373ZM69.864,42.8l-.289.636c.082-.029.2-.063.371-.1Z"/><rect class="cls-2" x="77.098" y="39.803" width="21.174" height="6.007"/><path class="cls-11" d="M82.45,42.589c-.049,0-.126-.006-.23-.017s-.178-.014-.231-.014h-.071q0,.191.027.618.023.4.022.62c0,.032,0,.081.007.146s.007.115.007.148a.509.509,0,0,1-.022.161c-.019.061-.048.091-.088.091A.1.1,0,0,1,81.8,44.3a.154.154,0,0,1-.032-.1c0-.014,0-.034,0-.062s0-.048,0-.062c0-.045,0-.112-.007-.2s-.006-.158-.006-.2c0-.132-.008-.317-.023-.555-.017-.257-.026-.442-.028-.554H81.62a1.083,1.083,0,0,1-.348-.044.129.129,0,0,1-.082-.137.179.179,0,0,1,.027-.1.08.08,0,0,1,.078-.044c.023,0,.077.01.161.025a1.06,1.06,0,0,0,.164.016l.184,0,.184,0a2.315,2.315,0,0,1,.231.016q.155.015.231.015a.087.087,0,0,1,.073.04.167.167,0,0,1,.03.1.165.165,0,0,1-.03.1A.086.086,0,0,1,82.45,42.589Z"/><path class="cls-11" d="M83.619,44.346a.09.09,0,0,1-.071-.044A1.7,1.7,0,0,0,82.8,43.7l.008.271.006.271a.173.173,0,0,1-.029.1.089.089,0,0,1-.073.041.086.086,0,0,1-.072-.041.173.173,0,0,1-.029-.1c0-.072,0-.18-.007-.325s-.008-.252-.008-.324.007-.211.02-.379.021-.293.021-.376c0-.047,0-.117-.01-.209s-.01-.161-.01-.208a.279.279,0,0,1,.033-.138.1.1,0,0,1,.106-.066l.244.026a.537.537,0,0,1,.233.093.873.873,0,0,1,.41.724.552.552,0,0,1-.14.371.712.712,0,0,1-.28.2,1.753,1.753,0,0,1,.47.486.179.179,0,0,1,.027.094.173.173,0,0,1-.031.1A.09.09,0,0,1,83.619,44.346Zm-.644-1.824-.149-.016.01.167c0,.068.007.123.007.167,0,.074,0,.165-.013.274l-.022.275h.044l.045,0a.653.653,0,0,0,.387-.094.516.516,0,0,0,.1-.112.246.246,0,0,0,.054-.131.508.508,0,0,0-.16-.357A.542.542,0,0,0,82.975,42.522Z"/><path class="cls-11" d="M84.91,42.474a.076.076,0,0,1-.031-.007.915.915,0,0,0-.33-.066.861.861,0,0,0-.181.021,1.413,1.413,0,0,0-.212.063,1.285,1.285,0,0,1,.01.144c0,.127-.006.3-.018.527l.443-.058c.131-.019.21-.028.24-.028a.091.091,0,0,1,.075.039.162.162,0,0,1,.03.1q0,.126-.093.141l-.241.029-.467.058c0,.065-.005.127-.006.185s0,.114,0,.164a1.078,1.078,0,0,0,.032.359c.017.025.07.038.159.038.042,0,.105,0,.189,0s.147-.005.189-.005a.289.289,0,0,0,.06-.009.291.291,0,0,1,.059-.009c.071,0,.107.047.107.143,0,.078-.029.124-.086.14a2.006,2.006,0,0,1-.412.026c-.209,0-.343-.038-.4-.113a1.046,1.046,0,0,1-.1-.566c0-.059,0-.124,0-.193s0-.146.008-.226a.22.22,0,0,1-.011-.068.179.179,0,0,1,.019-.084q.02-.4.02-.589a1.494,1.494,0,0,0-.01-.15c-.007-.066-.01-.116-.01-.15,0-.11.034-.164.1-.164a.088.088,0,0,1,.073.04,1.47,1.47,0,0,1,.229-.066.991.991,0,0,1,.2-.022.823.823,0,0,1,.392.08.138.138,0,0,1,.068.132.186.186,0,0,1-.026.1A.087.087,0,0,1,84.91,42.474Z"/><path class="cls-11" d="M85.212,43.988a.139.139,0,0,1,.029-.095.091.091,0,0,1,.073-.036c.034,0,.062.025.087.077a.522.522,0,0,0,.092.142.362.362,0,0,0,.25.077.5.5,0,0,0,.291-.092.379.379,0,0,0,.172-.33.318.318,0,0,0-.144-.275.544.544,0,0,0-.3-.093.478.478,0,0,1-.272-.1.379.379,0,0,1-.143-.32.621.621,0,0,1,.2-.448.577.577,0,0,1,.4-.192.634.634,0,0,1,.222.046c.109.039.164.09.164.151,0,.081-.031.122-.091.122a.6.6,0,0,1-.142-.03.535.535,0,0,0-.157-.028.389.389,0,0,0-.268.106.343.343,0,0,0-.113.258q0,.115.15.162a1.425,1.425,0,0,0,.215.033.494.494,0,0,1,.362.2.634.634,0,0,1,.12.391.669.669,0,0,1-.671.694.631.631,0,0,1-.339-.1A.374.374,0,0,1,85.212,43.988Zm.756-2.154.222-.272a.067.067,0,0,1,.05-.028.065.065,0,0,1,.053.033.119.119,0,0,1,.024.074.122.122,0,0,1-.027.076q-.288.369-.331.369c-.021,0-.044-.017-.067-.051l-.051-.085-.118-.185a.5.5,0,0,1-.084-.2.114.114,0,0,1,.024-.072.071.071,0,0,1,.056-.03c.026,0,.047.019.064.055A3.185,3.185,0,0,0,85.968,41.834Z"/><path class="cls-11" d="M87.6,44.322a.64.64,0,0,1-.45.146.547.547,0,0,1-.169-.032.412.412,0,0,1-.172-.1H86.8a.086.086,0,0,1-.073-.041.172.172,0,0,1-.029-.1c0-.1,0-.241.009-.434s.01-.337.01-.433,0-.269,0-.483,0-.374,0-.482a.215.215,0,0,1,.042-.119c.029-.041.057-.062.085-.062a.607.607,0,0,1,.162.093q.156.1.18.114a1.266,1.266,0,0,1,.49.411,1.2,1.2,0,0,1,.237.719,1.279,1.279,0,0,1-.081.453A.911.911,0,0,1,87.6,44.322Zm-.213-1.46a3.724,3.724,0,0,0-.476-.318l0,.4,0,.4-.016.753a.126.126,0,0,1,.021.018.319.319,0,0,0,.225.081.489.489,0,0,0,.336-.1.639.639,0,0,0,.156-.245.921.921,0,0,0,.058-.321A.861.861,0,0,0,87.387,42.862Z"/><path class="cls-11" d="M88.974,42.612a.944.944,0,0,1-.163-.018l-.162-.029q-.024.4-.024.767c0,.064,0,.144,0,.239s0,.175,0,.239c0,.086,0,.165-.007.236l.319-.006a.085.085,0,0,1,.071.041.189.189,0,0,1,0,.2.085.085,0,0,1-.071.041l-.17,0-.17,0a1.166,1.166,0,0,0-.2.025,1.073,1.073,0,0,1-.2.026.087.087,0,0,1-.072-.041.171.171,0,0,1-.029-.1.177.177,0,0,1,.029-.1.087.087,0,0,1,.072-.041,1.375,1.375,0,0,0,.217-.029c.007-.074.01-.159.01-.255,0-.064,0-.141-.006-.233s-.007-.168-.007-.231c0-.212.009-.478.028-.8l-.131.006-.132,0a.085.085,0,0,1-.072-.04.167.167,0,0,1-.03-.1c0-.086.032-.133.1-.141a2.615,2.615,0,0,1,.307-.011,2.758,2.758,0,0,1,.5.059c.06.012.09.062.09.148a.147.147,0,0,1-.034.1A.092.092,0,0,1,88.974,42.612Z"/><path class="cls-11" d="M90.266,42.474a.081.081,0,0,1-.032-.007.914.914,0,0,0-.329-.066.861.861,0,0,0-.181.021,1.413,1.413,0,0,0-.212.063q.009.09.009.144c0,.127-.006.3-.017.527l.443-.058a2.408,2.408,0,0,1,.24-.028.094.094,0,0,1,.075.039.162.162,0,0,1,.03.1q0,.126-.093.141l-.241.029-.467.058c0,.065,0,.127-.007.185s0,.114,0,.164a1.078,1.078,0,0,0,.032.359c.016.025.069.038.159.038.042,0,.105,0,.189,0s.147-.005.189-.005a.289.289,0,0,0,.06-.009.291.291,0,0,1,.059-.009c.071,0,.107.047.107.143,0,.078-.029.124-.086.14a2.02,2.02,0,0,1-.412.026c-.209,0-.343-.038-.4-.113a1.046,1.046,0,0,1-.1-.566c0-.059,0-.124,0-.193s0-.146.008-.226a.194.194,0,0,1-.011-.068.179.179,0,0,1,.019-.084q.019-.4.02-.589a1.494,1.494,0,0,0-.01-.15c-.007-.066-.01-.116-.01-.15,0-.11.033-.164.1-.164a.089.089,0,0,1,.073.04,1.47,1.47,0,0,1,.229-.066.991.991,0,0,1,.2-.022.826.826,0,0,1,.392.08.138.138,0,0,1,.068.132.178.178,0,0,1-.027.1A.084.084,0,0,1,90.266,42.474Z"/><path class="cls-11" d="M91.99,44.025c0,.044-.006.118-.016.221s-.047.139-.109.139q-.055,0-.132-.1a11.211,11.211,0,0,1-.945-1.533l0,.313,0,.315c0,.076,0,.191,0,.343s0,.268,0,.345c0,.248-.035.371-.105.371a.1.1,0,0,1-.088-.048.18.18,0,0,1-.029-.1c0-.039,0-.1.006-.175s.007-.137.007-.176c0-.057,0-.142,0-.256s0-.2,0-.256,0-.152,0-.275,0-.214,0-.275,0-.144-.012-.259-.012-.2-.012-.258a.184.184,0,0,1,.04-.116.111.111,0,0,1,.09-.053c.036,0,.08.053.133.16q.252.515.453.856a7.441,7.441,0,0,0,.526.772c0-.039,0-.1,0-.175l0-.174c0-.4-.012-.725-.035-.964,0-.024-.012-.073-.027-.145a.781.781,0,0,1-.02-.146c0-.107.035-.16.107-.16q.175,0,.176.895c0,.1,0,.255,0,.458S91.99,43.923,91.99,44.025Z"/><path class="cls-11" d="M93.346,44.373c-.062,0-.116-.109-.162-.326q-.025-.124-.066-.435-.1.02-.27.069l-.269.076q-.049.182-.173.529c-.021.051-.05.077-.088.077a.09.09,0,0,1-.072-.04.157.157,0,0,1-.032-.1,3.07,3.07,0,0,1,.153-.5.2.2,0,0,1-.017-.083.135.135,0,0,1,.1-.143q.115-.3.291-.679.24-.523.3-.523c.054,0,.09.05.11.152l.063.463.151.959.058.218a.789.789,0,0,1,.029.149.157.157,0,0,1-.031.1A.093.093,0,0,1,93.346,44.373ZM92.989,42.8l-.289.636c.081-.029.2-.063.371-.1Z"/><rect class="cls-2" x="99.146" y="39.803" width="21.174" height="6.007"/><path class="cls-11" d="M104.239,42.783c-.044,0-.076-.034-.1-.1a.259.259,0,0,0-.053-.108.221.221,0,0,0-.105-.015q-.147,0-.326.306a1.541,1.541,0,0,0-.243.78.548.548,0,0,0,.084.306.248.248,0,0,0,.208.132.363.363,0,0,0,.209-.073,1.659,1.659,0,0,0,.18-.162c.038-.039.068-.058.087-.058a.087.087,0,0,1,.073.044.185.185,0,0,1,.029.1.168.168,0,0,1-.038.109.729.729,0,0,1-.54.323.418.418,0,0,1-.354-.219.893.893,0,0,1-.14-.5,1.9,1.9,0,0,1,.287-.959q.24-.409.484-.41a.6.6,0,0,1,.089.006.287.287,0,0,1,.07.02.1.1,0,0,1,.092-.07c.046,0,.075.042.088.125a2.111,2.111,0,0,1,.016.275.207.207,0,0,1-.023.1A.084.084,0,0,1,104.239,42.783Z"/><path class="cls-11" d="M105.5,42.474a.081.081,0,0,1-.032-.007.91.91,0,0,0-.329-.066.861.861,0,0,0-.181.021,1.413,1.413,0,0,0-.212.063q.009.09.009.144c0,.127,0,.3-.017.527l.443-.058a2.408,2.408,0,0,1,.24-.028.094.094,0,0,1,.075.039.162.162,0,0,1,.03.1q0,.126-.093.141l-.241.029-.467.058c0,.065,0,.127-.007.185s0,.114,0,.164a1.078,1.078,0,0,0,.032.359c.016.025.069.038.159.038.042,0,.105,0,.189,0s.147-.005.189-.005a.289.289,0,0,0,.06-.009.291.291,0,0,1,.059-.009c.071,0,.107.047.107.143,0,.078-.029.124-.086.14a2.02,2.02,0,0,1-.412.026c-.209,0-.343-.038-.4-.113a1.046,1.046,0,0,1-.1-.566c0-.059,0-.124,0-.193s0-.146.008-.226a.194.194,0,0,1-.011-.068.179.179,0,0,1,.019-.084q.019-.4.02-.589a1.494,1.494,0,0,0-.01-.15c-.007-.066-.01-.116-.01-.15,0-.11.033-.164.1-.164a.089.089,0,0,1,.073.04,1.47,1.47,0,0,1,.229-.066.991.991,0,0,1,.2-.022.826.826,0,0,1,.392.08.138.138,0,0,1,.068.132.178.178,0,0,1-.027.1A.084.084,0,0,1,105.5,42.474Z"/><path class="cls-11" d="M107.041,42.589c-.05,0-.127-.006-.231-.017s-.178-.014-.23-.014h-.072q0,.191.027.618.023.4.022.62c0,.032,0,.081.008.146s.007.115.007.148a.507.507,0,0,1-.023.161c-.019.061-.048.091-.088.091a.093.093,0,0,1-.072-.038.149.149,0,0,1-.033-.1c0-.014,0-.034.005-.062a.428.428,0,0,0,0-.062c0-.045,0-.112-.006-.2s-.007-.158-.007-.2c0-.132-.008-.317-.023-.555-.016-.257-.025-.442-.027-.554h-.092a1.075,1.075,0,0,1-.348-.044.128.128,0,0,1-.082-.137.187.187,0,0,1,.026-.1.08.08,0,0,1,.078-.044c.023,0,.078.01.162.025a1.049,1.049,0,0,0,.164.016l.184,0,.184,0a2.315,2.315,0,0,1,.231.016q.153.015.231.015a.09.09,0,0,1,.073.04.173.173,0,0,1,.029.1.171.171,0,0,1-.029.1A.089.089,0,0,1,107.041,42.589Z"/><path class="cls-11" d="M107.87,44.386a.516.516,0,0,1-.469-.247,1.321,1.321,0,0,1-.158-.587q-.015-.175-.015-.7c0-.129,0-.232.006-.312a1.086,1.086,0,0,1,.018-.175c.017-.067.047-.1.091-.1q.093,0,.093.234v.809q0,.837.429.837.4,0,.4-1.408V42.6c0-.055,0-.092,0-.11a.462.462,0,0,1,.022-.151c.019-.055.047-.083.084-.083.067,0,.1.063.1.189,0,.038,0,.095,0,.172v.171Q108.476,44.387,107.87,44.386Z"/><path class="cls-11" d="M109.736,44.346a.09.09,0,0,1-.072-.044,1.7,1.7,0,0,0-.744-.607l.008.271.005.271a.173.173,0,0,1-.029.1.084.084,0,0,1-.144,0,.166.166,0,0,1-.029-.1c0-.072,0-.18-.008-.325s-.007-.252-.007-.324.006-.211.02-.379.02-.293.02-.376c0-.047,0-.117-.01-.209s-.009-.161-.009-.208a.29.29,0,0,1,.032-.138.1.1,0,0,1,.106-.066l.244.026a.546.546,0,0,1,.234.093.872.872,0,0,1,.409.724.551.551,0,0,1-.139.371.712.712,0,0,1-.28.2,1.768,1.768,0,0,1,.47.486.188.188,0,0,1,.026.094.166.166,0,0,1-.031.1A.088.088,0,0,1,109.736,44.346Zm-.644-1.824-.15-.016.01.167c0,.068.007.123.007.167,0,.074,0,.165-.013.274l-.021.275h.044l.045,0a.65.65,0,0,0,.386-.094.493.493,0,0,0,.1-.112.246.246,0,0,0,.054-.131.5.5,0,0,0-.16-.357A.54.54,0,0,0,109.092,42.522Z"/><path class="cls-11" d="M111.276,42.589c-.05,0-.127-.006-.231-.017s-.177-.014-.23-.014h-.072q0,.191.027.618.022.4.023.62c0,.032,0,.081.007.146s.007.115.007.148a.509.509,0,0,1-.022.161c-.019.061-.049.091-.088.091a.1.1,0,0,1-.073-.038.149.149,0,0,1-.033-.1c0-.014,0-.034.005-.062a.462.462,0,0,0,.006-.062c0-.045,0-.112-.007-.2s-.007-.158-.007-.2c0-.132-.007-.317-.023-.555-.016-.257-.025-.442-.027-.554h-.092a1.075,1.075,0,0,1-.348-.044.128.128,0,0,1-.082-.137.187.187,0,0,1,.026-.1.082.082,0,0,1,.078-.044c.024,0,.078.01.162.025a1.049,1.049,0,0,0,.164.016l.184,0,.184,0a2.315,2.315,0,0,1,.231.016q.153.015.231.015a.09.09,0,0,1,.073.04.173.173,0,0,1,.029.1.171.171,0,0,1-.029.1A.089.089,0,0,1,111.276,42.589Z"/><path class="cls-11" d="M112.4,44.322a.64.64,0,0,1-.45.146.542.542,0,0,1-.169-.032.412.412,0,0,1-.172-.1h-.01a.085.085,0,0,1-.073-.041.166.166,0,0,1-.03-.1c0-.1,0-.241.01-.434s.01-.337.01-.433,0-.269,0-.483,0-.374,0-.482a.215.215,0,0,1,.042-.119c.028-.041.057-.062.085-.062a.624.624,0,0,1,.162.093q.156.1.18.114a1.263,1.263,0,0,1,.489.411,1.193,1.193,0,0,1,.238.719,1.279,1.279,0,0,1-.081.453A.923.923,0,0,1,112.4,44.322Zm-.213-1.46a3.8,3.8,0,0,0-.476-.318l0,.4,0,.4-.016.753a.126.126,0,0,1,.021.018.316.316,0,0,0,.225.081.487.487,0,0,0,.335-.1.616.616,0,0,0,.156-.245.9.9,0,0,0,.059-.321A.861.861,0,0,0,112.182,42.862Z"/><path class="cls-11" d="M113.769,42.612a.944.944,0,0,1-.163-.018l-.163-.029q-.022.4-.023.767c0,.064,0,.144,0,.239s0,.175,0,.239c0,.086,0,.165-.007.236l.319-.006a.085.085,0,0,1,.071.041.189.189,0,0,1,0,.2.085.085,0,0,1-.071.041l-.17,0-.17,0a1.155,1.155,0,0,0-.2.025,1.082,1.082,0,0,1-.2.026.085.085,0,0,1-.071-.041.171.171,0,0,1-.029-.1.177.177,0,0,1,.029-.1A.085.085,0,0,1,113,44.1a1.369,1.369,0,0,0,.218-.029c.007-.074.01-.159.01-.255,0-.064,0-.141-.007-.233s-.006-.168-.006-.231c0-.212.009-.478.028-.8l-.131.006-.132,0a.088.088,0,0,1-.073-.04.173.173,0,0,1-.029-.1c0-.086.032-.133.095-.141a2.606,2.606,0,0,1,.306-.011,2.758,2.758,0,0,1,.5.059c.06.012.09.062.09.148a.147.147,0,0,1-.034.1A.093.093,0,0,1,113.769,42.612Z"/><path class="cls-11" d="M115.06,42.474a.076.076,0,0,1-.031-.007.915.915,0,0,0-.33-.066.876.876,0,0,0-.181.021,1.4,1.4,0,0,0-.211.063q.009.09.009.144c0,.127-.006.3-.017.527l.443-.058c.13-.019.21-.028.239-.028a.091.091,0,0,1,.075.039.162.162,0,0,1,.031.1c0,.084-.032.131-.093.141l-.241.029-.467.058c0,.065,0,.127-.007.185s0,.114,0,.164a1.049,1.049,0,0,0,.032.359c.016.025.069.038.159.038.041,0,.1,0,.188,0s.147-.005.19-.005a.308.308,0,0,0,.06-.009.284.284,0,0,1,.058-.009c.072,0,.107.047.107.143,0,.078-.028.124-.086.14a2,2,0,0,1-.411.026c-.209,0-.343-.038-.4-.113a1.056,1.056,0,0,1-.1-.566c0-.059,0-.124,0-.193s0-.146.008-.226a.22.22,0,0,1-.011-.068.192.192,0,0,1,.019-.084q.021-.4.021-.589c0-.034,0-.085-.01-.15s-.011-.116-.011-.15c0-.11.034-.164.1-.164a.087.087,0,0,1,.072.04,1.5,1.5,0,0,1,.229-.066,1,1,0,0,1,.2-.022.828.828,0,0,1,.393.08.138.138,0,0,1,.067.132.177.177,0,0,1-.026.1A.085.085,0,0,1,115.06,42.474Z"/><path class="cls-11" d="M116.784,44.025c0,.044-.005.118-.016.221s-.046.139-.108.139q-.055,0-.132-.1a11.016,11.016,0,0,1-.945-1.533l0,.313,0,.315c0,.076,0,.191,0,.343s0,.268,0,.345c0,.248-.035.371-.1.371a.1.1,0,0,1-.088-.048.172.172,0,0,1-.029-.1c0-.039,0-.1.006-.175s.007-.137.007-.176c0-.057,0-.142,0-.256s0-.2,0-.256,0-.152,0-.275,0-.214,0-.275,0-.144-.012-.259-.013-.2-.013-.258a.19.19,0,0,1,.04-.116.113.113,0,0,1,.091-.053c.036,0,.08.053.132.16q.252.515.453.856a7.441,7.441,0,0,0,.526.772c0-.039,0-.1,0-.175l0-.174c0-.4-.011-.725-.034-.964,0-.024-.012-.073-.027-.145a.72.72,0,0,1-.021-.146c0-.107.036-.16.108-.16q.176,0,.176.895c0,.1,0,.255,0,.458S116.784,43.923,116.784,44.025Z"/><path class="cls-11" d="M118.141,44.373c-.062,0-.116-.109-.162-.326q-.027-.124-.066-.435-.1.02-.27.069l-.269.076c-.034.121-.091.3-.173.529-.021.051-.051.077-.088.077a.09.09,0,0,1-.072-.04.157.157,0,0,1-.032-.1,3.07,3.07,0,0,1,.153-.5.184.184,0,0,1-.018-.083.136.136,0,0,1,.1-.143c.076-.2.174-.423.291-.679q.24-.523.3-.523c.054,0,.09.05.109.152l.064.463.151.959.057.218a.739.739,0,0,1,.03.149.158.158,0,0,1-.032.1A.091.091,0,0,1,118.141,44.373Zm-.357-1.577-.29.636c.082-.029.206-.063.372-.1Z"/><rect class="cls-2" x="121.195" y="39.803" width="21.174" height="6.007"/><path class="cls-11" d="M125.588,43.521a.867.867,0,0,1-.123-.018c-.005.139-.008.383-.008.73a.162.162,0,0,1-.026.093.077.077,0,0,1-.133,0,.162.162,0,0,1-.026-.093v-.4c0-.136.006-.326.018-.572.013-.265.021-.456.022-.571V42.5a1.165,1.165,0,0,1,.012-.2c.016-.081.049-.116.1-.1a.326.326,0,0,1,.092-.02,1.2,1.2,0,0,1,.146-.007.472.472,0,0,1,.347.172.645.645,0,0,1,.178.458.762.762,0,0,1-.19.545A.538.538,0,0,1,125.588,43.521Zm.051-1.095a.636.636,0,0,0-.079,0,.418.418,0,0,0-.06.008l0,.254-.021.549.111.018a.39.39,0,0,0,.287-.118.467.467,0,0,0,.127-.346.348.348,0,0,0-.121-.266A.355.355,0,0,0,125.639,42.426Z"/><path class="cls-11" d="M127.217,42.612a.924.924,0,0,1-.163-.018l-.163-.029c-.016.268-.023.524-.023.767,0,.064,0,.144,0,.239s0,.175,0,.239c0,.086,0,.165-.007.236l.318-.006a.084.084,0,0,1,.071.041.189.189,0,0,1,0,.2.084.084,0,0,1-.071.041l-.17,0-.17,0a1.146,1.146,0,0,0-.2.025,1.092,1.092,0,0,1-.2.026.085.085,0,0,1-.071-.041.164.164,0,0,1-.029-.1.169.169,0,0,1,.029-.1.085.085,0,0,1,.071-.041,1.361,1.361,0,0,0,.217-.029c.007-.074.01-.159.01-.255,0-.064,0-.141-.006-.233s-.007-.168-.007-.231c0-.212.01-.478.029-.8l-.132.006-.131,0a.086.086,0,0,1-.073-.04.166.166,0,0,1-.029-.1c0-.086.031-.133.095-.141a2.583,2.583,0,0,1,.306-.011,2.777,2.777,0,0,1,.5.059c.06.012.09.062.09.148a.148.148,0,0,1-.035.1A.09.09,0,0,1,127.217,42.612Z"/><path class="cls-11" d="M128.508,42.474a.076.076,0,0,1-.031-.007.915.915,0,0,0-.33-.066.868.868,0,0,0-.181.021,1.37,1.37,0,0,0-.211.063q.009.09.009.144c0,.127-.006.3-.018.527l.443-.058c.131-.019.21-.028.24-.028a.091.091,0,0,1,.075.039.162.162,0,0,1,.03.1q0,.126-.093.141l-.241.029-.467.058c0,.065-.005.127-.006.185s0,.114,0,.164a1.038,1.038,0,0,0,.033.359c.016.025.069.038.158.038.042,0,.105,0,.189,0s.147-.005.19-.005a.291.291,0,0,0,.059-.009.291.291,0,0,1,.059-.009c.071,0,.107.047.107.143,0,.078-.029.124-.086.14a2,2,0,0,1-.411.026c-.21,0-.344-.038-.4-.113a1.046,1.046,0,0,1-.1-.566c0-.059,0-.124,0-.193s0-.146.008-.226a.22.22,0,0,1-.011-.068.179.179,0,0,1,.019-.084c.014-.266.02-.462.02-.589a1.494,1.494,0,0,0-.01-.15c-.007-.066-.01-.116-.01-.15,0-.11.034-.164.1-.164a.088.088,0,0,1,.073.04,1.47,1.47,0,0,1,.229-.066.991.991,0,0,1,.2-.022.823.823,0,0,1,.392.08.137.137,0,0,1,.068.132.186.186,0,0,1-.026.1A.087.087,0,0,1,128.508,42.474Z"/><path class="cls-11" d="M129.84,44.388q-.155,0-.438-.369l-.3-.415v.742c0,.091-.03.137-.088.137a.1.1,0,0,1-.092-.069.272.272,0,0,1-.029-.123q0-.322.014-.966c.01-.428.015-.75.015-.964a.176.176,0,0,1,.028-.1.087.087,0,0,1,.072-.041.086.086,0,0,1,.072.041.177.177,0,0,1,.029.1q0,.134-.012.417c-.008.182-.012.321-.012.418q.137-.175.307-.44l.29-.46a.1.1,0,0,1,.077-.054.09.09,0,0,1,.072.042.159.159,0,0,1,.031.1,1.551,1.551,0,0,1-.261.486q-.18.269-.372.527c.081.116.208.282.38.5l.107.121a.378.378,0,0,0,.124.091.137.137,0,0,1,.08.137.2.2,0,0,1-.021.089A.079.079,0,0,1,129.84,44.388Z"/><path class="cls-11" d="M131.316,42.589c-.05,0-.126-.006-.23-.017s-.178-.014-.231-.014h-.072q0,.191.028.618.022.4.022.62c0,.032,0,.081.007.146s.007.115.007.148a.509.509,0,0,1-.022.161c-.019.061-.049.091-.088.091a.1.1,0,0,1-.073-.038.148.148,0,0,1-.032-.1.438.438,0,0,1,0-.062c0-.027,0-.048,0-.062,0-.045,0-.112-.007-.2s-.006-.158-.006-.2q0-.2-.024-.555c-.016-.257-.025-.442-.027-.554h-.092a1.075,1.075,0,0,1-.348-.044.128.128,0,0,1-.082-.137.187.187,0,0,1,.026-.1.082.082,0,0,1,.078-.044c.024,0,.078.01.162.025a1.06,1.06,0,0,0,.164.016l.184,0,.184,0a2.315,2.315,0,0,1,.231.016q.153.015.231.015a.089.089,0,0,1,.073.04.166.166,0,0,1,.029.1.164.164,0,0,1-.029.1A.087.087,0,0,1,131.316,42.589Z"/><path class="cls-11" d="M132.435,44.322a.64.64,0,0,1-.45.146.542.542,0,0,1-.169-.032.412.412,0,0,1-.172-.1h-.01a.085.085,0,0,1-.073-.041.165.165,0,0,1-.029-.1c0-.1,0-.241.009-.434s.01-.337.01-.433,0-.269,0-.483,0-.374,0-.482a.215.215,0,0,1,.042-.119c.029-.041.057-.062.085-.062a.624.624,0,0,1,.162.093q.156.1.18.114a1.263,1.263,0,0,1,.489.411,1.193,1.193,0,0,1,.238.719,1.279,1.279,0,0,1-.081.453A.923.923,0,0,1,132.435,44.322Zm-.213-1.46a3.724,3.724,0,0,0-.476-.318l0,.4,0,.4-.016.753a.126.126,0,0,1,.021.018.318.318,0,0,0,.225.081.487.487,0,0,0,.335-.1.629.629,0,0,0,.157-.245.921.921,0,0,0,.058-.321A.861.861,0,0,0,132.222,42.862Z"/><path class="cls-11" d="M133.809,42.612a.944.944,0,0,1-.163-.018l-.163-.029q-.023.4-.023.767c0,.064,0,.144,0,.239s0,.175,0,.239c0,.086,0,.165-.007.236l.319-.006a.085.085,0,0,1,.071.041.189.189,0,0,1,0,.2.085.085,0,0,1-.071.041l-.17,0-.17,0a1.155,1.155,0,0,0-.2.025,1.082,1.082,0,0,1-.2.026.085.085,0,0,1-.071-.041.171.171,0,0,1-.029-.1.177.177,0,0,1,.029-.1.085.085,0,0,1,.071-.041,1.369,1.369,0,0,0,.218-.029c.007-.074.01-.159.01-.255,0-.064,0-.141-.007-.233s-.006-.168-.006-.231c0-.212.009-.478.028-.8l-.131.006-.132,0a.088.088,0,0,1-.073-.04.173.173,0,0,1-.029-.1c0-.086.032-.133.095-.141a2.615,2.615,0,0,1,.307-.011,2.758,2.758,0,0,1,.5.059c.06.012.09.062.09.148a.147.147,0,0,1-.034.1A.092.092,0,0,1,133.809,42.612Z"/><path class="cls-11" d="M135.1,42.474a.076.076,0,0,1-.031-.007.915.915,0,0,0-.33-.066.876.876,0,0,0-.181.021,1.438,1.438,0,0,0-.211.063q.009.09.009.144c0,.127-.006.3-.017.527l.443-.058a2.408,2.408,0,0,1,.24-.028.091.091,0,0,1,.074.039.156.156,0,0,1,.031.1q0,.126-.093.141l-.241.029-.467.058c0,.065,0,.127-.007.185s0,.114,0,.164a1.078,1.078,0,0,0,.032.359c.016.025.069.038.159.038.042,0,.1,0,.188,0s.148-.005.19-.005a.308.308,0,0,0,.06-.009.284.284,0,0,1,.058-.009c.072,0,.108.047.108.143,0,.078-.029.124-.086.14a2.02,2.02,0,0,1-.412.026c-.209,0-.343-.038-.4-.113a1.043,1.043,0,0,1-.1-.566c0-.059,0-.124,0-.193s.005-.146.009-.226a.2.2,0,0,1-.012-.068.18.18,0,0,1,.02-.084q.02-.4.02-.589a1.494,1.494,0,0,0-.01-.15c-.007-.066-.01-.116-.01-.15,0-.11.033-.164.1-.164a.09.09,0,0,1,.073.04,1.439,1.439,0,0,1,.229-.066.981.981,0,0,1,.2-.022.828.828,0,0,1,.393.08.138.138,0,0,1,.068.132.178.178,0,0,1-.027.1A.085.085,0,0,1,135.1,42.474Z"/><path class="cls-11" d="M136.825,44.025c0,.044-.006.118-.017.221s-.046.139-.108.139q-.055,0-.132-.1a11.016,11.016,0,0,1-.945-1.533l0,.313,0,.315c0,.076,0,.191,0,.343s0,.268,0,.345c0,.248-.035.371-.105.371a.1.1,0,0,1-.088-.048.18.18,0,0,1-.029-.1c0-.039,0-.1.006-.175s.007-.137.007-.176c0-.057,0-.142,0-.256s0-.2,0-.256,0-.152,0-.275,0-.214,0-.275,0-.144-.012-.259-.012-.2-.012-.258a.184.184,0,0,1,.04-.116.11.11,0,0,1,.09-.053c.036,0,.08.053.133.16q.25.515.453.856a7.287,7.287,0,0,0,.526.772c0-.039,0-.1,0-.175l0-.174c0-.4-.011-.725-.034-.964,0-.024-.012-.073-.027-.145a.7.7,0,0,1-.02-.146c0-.107.035-.16.107-.16q.175,0,.176.895c0,.1,0,.255,0,.458S136.825,43.923,136.825,44.025Z"/><path class="cls-11" d="M138.181,44.373c-.062,0-.116-.109-.162-.326q-.025-.124-.066-.435-.1.02-.27.069l-.269.076q-.049.182-.173.529c-.021.051-.051.077-.088.077a.09.09,0,0,1-.072-.04.157.157,0,0,1-.032-.1,3.07,3.07,0,0,1,.153-.5.184.184,0,0,1-.017-.083.135.135,0,0,1,.1-.143q.115-.3.291-.679.24-.523.3-.523c.054,0,.09.05.11.152l.063.463.151.959.058.218a.789.789,0,0,1,.029.149.157.157,0,0,1-.031.1A.093.093,0,0,1,138.181,44.373Zm-.357-1.577-.289.636c.081-.029.205-.063.371-.1Z"/><rect class="cls-2" x="20.919" y="47.813" width="10.274" height="6.007"/><rect class="cls-2" x="33" y="47.813" width="21.174" height="6.007"/><rect class="cls-2" x="55.049" y="47.813" width="21.174" height="6.007"/><rect class="cls-2" x="77.098" y="47.813" width="21.174" height="6.007"/><rect class="cls-2" x="99.146" y="47.813" width="21.174" height="6.007"/><rect class="cls-2" x="121.195" y="47.813" width="21.174" height="6.007"/><rect class="cls-2" x="20.919" y="55.823" width="10.274" height="6.007"/><rect class="cls-2" x="33" y="55.823" width="21.174" height="6.007"/><rect class="cls-2" x="55.049" y="55.823" width="21.174" height="6.007"/><rect class="cls-2" x="77.098" y="55.823" width="21.174" height="6.007"/><rect class="cls-2" x="99.146" y="55.823" width="21.174" height="6.007"/><rect class="cls-2" x="121.195" y="55.823" width="21.174" height="6.007"/><rect class="cls-2" x="20.919" y="63.833" width="10.274" height="6.007"/><rect class="cls-2" x="33" y="63.833" width="21.174" height="6.007"/><rect class="cls-2" x="55.049" y="63.833" width="21.174" height="6.007"/><rect class="cls-2" x="77.098" y="63.833" width="21.174" height="6.007"/><rect class="cls-2" x="99.146" y="63.833" width="21.174" height="6.007"/><rect class="cls-2" x="121.195" y="63.833" width="21.174" height="6.007"/><rect class="cls-2" x="20.919" y="71.843" width="10.274" height="6.007"/><rect class="cls-2" x="33" y="71.843" width="21.174" height="6.007"/><rect class="cls-2" x="55.049" y="71.843" width="21.174" height="6.007"/><rect class="cls-2" x="77.098" y="71.843" width="21.174" height="6.007"/><rect class="cls-2" x="99.146" y="71.843" width="21.174" height="6.007"/><rect class="cls-2" x="121.195" y="71.843" width="21.174" height="6.007"/><rect class="cls-2" x="20.919" y="79.853" width="10.274" height="6.007"/><rect class="cls-2" x="33" y="79.853" width="21.174" height="6.007"/><rect class="cls-2" x="55.049" y="79.853" width="21.174" height="6.007"/><rect class="cls-2" x="77.098" y="79.853" width="21.174" height="6.007"/><rect class="cls-2" x="99.146" y="79.853" width="21.174" height="6.007"/><rect class="cls-2" x="121.195" y="79.853" width="21.174" height="6.007"/><rect class="cls-2" x="20.919" y="87.863" width="10.274" height="6.007"/><rect class="cls-2" x="33" y="87.863" width="21.174" height="6.007"/><rect class="cls-2" x="55.049" y="87.863" width="21.174" height="6.007"/><rect class="cls-2" x="77.098" y="87.863" width="21.174" height="6.007"/><rect class="cls-2" x="99.146" y="87.863" width="21.174" height="6.007"/><rect class="cls-2" x="121.195" y="87.863" width="21.174" height="6.007"/><rect class="cls-2" x="20.919" y="95.873" width="10.274" height="6.007"/><rect class="cls-2" x="33" y="95.873" width="21.174" height="6.007"/><rect class="cls-2" x="55.049" y="95.873" width="21.174" height="6.007"/><rect class="cls-2" x="77.098" y="95.873" width="21.174" height="6.007"/><rect class="cls-2" x="99.146" y="95.873" width="21.174" height="6.007"/><rect class="cls-2" x="121.195" y="95.873" width="21.174" height="6.007"/><rect class="cls-2" x="20.919" y="103.883" width="10.274" height="6.007"/><rect class="cls-2" x="33" y="103.883" width="21.174" height="6.007"/><rect class="cls-2" x="55.049" y="103.883" width="21.174" height="6.007"/><rect class="cls-2" x="77.098" y="103.883" width="21.174" height="6.007"/><rect class="cls-2" x="99.146" y="103.883" width="21.174" height="6.007"/><rect class="cls-2" x="121.195" y="103.883" width="21.174" height="6.007"/><rect class="cls-2" x="20.919" y="111.893" width="10.274" height="6.007"/><rect class="cls-2" x="33" y="111.893" width="21.174" height="6.007"/><rect class="cls-2" x="55.049" y="111.893" width="21.174" height="6.007"/><rect class="cls-2" x="77.098" y="111.893" width="21.174" height="6.007"/><rect class="cls-2" x="99.146" y="111.893" width="21.174" height="6.007"/><rect class="cls-2" x="121.195" y="111.893" width="21.174" height="6.007"/><polygon class="cls-2" points="111.946 142.051 110.102 135.826 106.614 132.822 105.069 132.822 105.069 137.087 105.562 142.051 111.946 142.051"/><path class="cls-3" d="M106.614,132.822s-.343.58-.611.661c-.673.2-.934-.661-.934-.661s-.424-2.88,0-2.744S106.614,132.822,106.614,132.822Z"/><polygon class="cls-3" points="110.102 135.826 109.043 136.475 106.277 136.815 105.069 136.632 105.562 142.051 111.946 142.051 110.102 135.826"/><path class="cls-2" d="M123.985,142.025l-.747-7.251s-1.578-2.832-1.827-3.4-1.412,0-1.412,0L118.671,135l-1.163,7.024Z"/><path class="cls-4" d="M121.37,132.055a2.023,2.023,0,0,1-.831.34,1.768,1.768,0,0,1-.789-.34s.125-3.569.81-3.512,1.213,3.549,1.213,3.549Z"/><polygon class="cls-4" points="123.238 134.774 121.773 135.567 119.958 135.567 118.671 135.001 117.508 142.025 123.985 142.025 123.238 134.774"/><polygon class="cls-2" points="118.662 142.025 116.943 134.602 113.753 131.187 111.909 131.644 111.062 134.837 111.062 142.025 118.662 142.025"/><path class="cls-5" d="M113.753,131.187s-.012.434-.909.706-.935-.249-.935-.249a17.646,17.646,0,0,1,.262-3.038C112.37,128.323,113.753,131.187,113.753,131.187Z"/><polygon class="cls-5" points="116.943 134.602 115.859 135.8 112.345 136.177 111.062 134.837 111.062 142.025 118.662 142.025 116.943 134.602"/><polygon class="cls-2" points="123.653 142.051 124.4 134.163 125.821 130.899 127.714 131.213 128.911 135.183 129.322 142.051 123.653 142.051"/><path class="cls-6" d="M127.714,131.213s-.61.769-1.059.568a2.464,2.464,0,0,1-.834-.882s.934-3.026,1.233-2.584A15.024,15.024,0,0,1,127.714,131.213Z"/><polygon class="cls-6" points="128.911 135.183 127.328 135.826 125.434 135.183 124.4 134.163 123.653 142.051 129.322 142.051 128.911 135.183"/><polygon class="cls-2" points="139.711 142.076 141.102 136.955 143.735 134.482 144.901 134.482 145.5 137.992 144.529 142.076 139.711 142.076"/><path class="cls-7" d="M143.735,134.482s.259.478.461.544c.508.168.705-.544.705-.544s.32-2.369,0-2.257S143.735,134.482,143.735,134.482Z"/><polygon class="cls-7" points="141.102 136.955 141.902 137.488 143.989 137.768 145.5 137.617 144.529 142.076 139.711 142.076 141.102 136.955"/><path class="cls-2" d="M131.82,142.059l.49-4.752s1.034-1.856,1.2-2.228.925,0,.925,0l.871,2.377.762,4.6Z"/><path class="cls-8" d="M133.534,135.525a1.325,1.325,0,0,0,.545.223,1.161,1.161,0,0,0,.517-.223s-.082-2.339-.531-2.3-.795,2.326-.795,2.326Z"/><polygon class="cls-8" points="132.31 137.307 133.27 137.827 134.46 137.827 135.303 137.456 136.065 142.059 131.82 142.059 132.31 137.307"/><polygon class="cls-2" points="135.309 142.059 136.436 137.194 138.526 134.956 139.735 135.256 140.29 137.349 140.29 142.059 135.309 142.059"/><path class="cls-9" d="M138.526,134.956s.009.284.6.463.612-.163.612-.163a11.677,11.677,0,0,0-.171-1.992C139.433,133.079,138.526,134.956,138.526,134.956Z"/><polygon class="cls-9" points="136.436 137.194 137.146 137.98 139.449 138.227 140.29 137.349 140.29 142.059 135.309 142.059 136.436 137.194"/><polygon class="cls-2" points="132.038 142.076 131.548 136.906 130.617 134.767 129.376 134.973 128.592 137.575 128.322 142.076 132.038 142.076"/><path class="cls-10" d="M129.376,134.973s.4.5.694.372a1.61,1.61,0,0,0,.547-.578s-.612-1.983-.808-1.693A9.837,9.837,0,0,0,129.376,134.973Z"/><polygon class="cls-10" points="128.592 137.575 129.629 137.997 130.87 137.575 131.548 136.906 132.038 142.076 128.322 142.076 128.592 137.575"/></svg>