<svg id="word" xmlns="http://www.w3.org/2000/svg" viewBox="0 0 160 160"><defs><style>.cls-1{fill:#d8c5a3;}.cls-1,.cls-2,.cls-3,.cls-4{stroke:#9d4b9c;stroke-width:0.75px;}.cls-2{fill:#99d9f7;}.cls-3{fill:#80b8d1;}.cls-4{fill:none;}.cls-5{fill:#9d4b9c;}</style></defs><path class="cls-1" d="M78.836,144.854c-9.072.136-16.193,1.441-16.193,3.033,0,1.682,7.945,3.046,17.743,3.046s17.742-1.364,17.742-3.046c0-1.612-7.3-2.929-16.536-3.035"/><path class="cls-1" d="M87.209,145a1.136,1.136,0,0,0-.816-.951c-.816-.34-1.7-.374-2.21-1.054a16.327,16.327,0,0,1-1.263-2.6c.975-.342,1.606-.878,1.6-1.481,0-1.089-1.605-1.35-2.848-1.546V48.927h-2.4v88.4c-1.391.138-2.926.628-2.984,1.586-.04.667.771,1.253,1.929,1.584a3.257,3.257,0,0,1-.433,1.544,8.368,8.368,0,0,1-2.414,1.632c-.748.408-1.427.645-1.393,1.257s0,1.972,0,1.972,1.053,1.632,6.9,1.36,6.459-1.5,6.459-1.5Z"/><line class="cls-1" x1="82.021" y1="26.308" x2="79.089" y2="26.308"/><path class="cls-2" d="M105.271,48.861l-4.8-30.086H60.3L54.667,48.269a6.891,6.891,0,0,0,0,1.046c0,2.78,14.578,5.355,25.717,5.355s24.972-2.575,24.972-5.355A1.36,1.36,0,0,0,105.271,48.861Z"/><path class="cls-3" d="M100.639,19.288c0,2.171-9.03,3.931-20.169,3.931S60.3,21.459,60.3,19.288s9.03-3.932,20.17-3.932S100.639,17.117,100.639,19.288Z"/><path class="cls-4" d="M62.693,18.177a247.964,247.964,0,0,1,33.93,2.649"/><path class="cls-4" d="M92.264,16.126c-8.06,1.945-16.07,3.622-23.93,5.982"/><path class="cls-1" d="M78.846,23.305l-.427-6.667a2.641,2.641,0,0,1,2.649-.683c1.88.341,1.282,1.111,1.282,1.111l-.171,6.068Z"/><path class="cls-5" d="M65.511,23.578,64.336,27.54c-.356,1.184-.707,2.583-1.1,4.074-.171.751-.379,1.521-.531,2.315-.172.79-.312,1.6-.451,2.407-.289,1.614-.5,3.243-.644,4.778s-.263,2.973-.341,4.209c-.169,2.473-.335,4.122-.335,4.122s-.075-1.654-.087-4.137c.017-1.24,0-2.693.115-4.247s.29-3.208.554-4.852c.157-.818.316-1.635.507-2.431.171-.8.4-1.574.585-2.33.421-1.5.907-2.869,1.325-4.04s.833-2.122,1.116-2.787Z"/><path class="cls-5" d="M79.359,24.758s.119,1.786.21,4.466c.031,1.34.1,2.9.114,4.578l.05,5.247c-.024,3.572-.048,7.144-.067,9.823-.02,1.342-.106,2.462-.183,3.243a5.914,5.914,0,0,1-.153.9.524.524,0,0,1-.143.287.511.511,0,0,0,.1-.3,8.149,8.149,0,0,0,.047-.9c.017-.779-.046-1.893-.093-3.23s-.155-2.9-.2-4.573-.039-3.465-.059-5.254l.05-5.247c.014-1.675.084-3.238.114-4.578C79.239,26.544,79.359,24.758,79.359,24.758Z"/><path class="cls-5" d="M96.6,22.794l.4,1.115c.243.71.591,1.733.931,2.981s.724,2.71,1.022,4.3.576,3.295.778,5.01c.173,1.717.306,3.438.376,5.052s.062,3.124.057,4.414-.072,2.367-.1,3.119L100,49.968l-.255-4.291c-.057-1.287-.181-2.784-.285-4.386s-.268-3.308-.471-5.006c-.166-1.7-.411-3.4-.673-4.98s-.518-3.059-.791-4.316-.475-2.309-.662-3.04Z"/><path class="cls-5" d="M72.835,25.33s-.069.407-.189,1.12-.311,1.724-.531,2.941-.471,2.632-.742,4.151-.529,3.138-.72,4.766c-.224,1.624-.386,3.254-.467,4.788l-.1,2.213c-.021.7-.025,1.371-.021,1.988.015,1.231.015,2.263.044,2.983l.024,1.135-.169-1.123c-.089-.716-.239-1.741-.321-2.979s-.173-2.689-.112-4.244.178-3.21.374-4.857c.227-1.642.529-3.27.825-4.791s.672-2.919.969-4.121C72.328,26.9,72.835,25.33,72.835,25.33Z"/><path class="cls-5" d="M89.28,24.938s.507,1.572,1.13,3.97c.3,1.2.662,2.6.97,4.121s.6,3.149.825,4.791c.2,1.647.324,3.3.374,4.857s-.041,3.006-.112,4.244-.232,2.263-.321,2.979l-.17,1.123L92,49.888c.028-.72.029-1.752.044-2.983,0-.617,0-1.284-.021-1.988L91.929,42.7c-.081-1.534-.243-3.164-.467-4.788-.191-1.628-.458-3.248-.72-4.766S90.217,30.214,90,29l-.532-2.941Z"/></svg>