<svg id="word" xmlns="http://www.w3.org/2000/svg" viewBox="0 0 160 160"><defs><style>.cls-1{fill:#eae2a2;}.cls-2{fill:#9ec986;}.cls-3{fill:#c4e1ef;}.cls-4,.cls-7{fill:none;}.cls-4{stroke:#9d4b9c;stroke-miterlimit:10;}.cls-10,.cls-4,.cls-5,.cls-6,.cls-7,.cls-8,.cls-9{stroke-width:0.75px;}.cls-5{fill:#d06c59;}.cls-10,.cls-5,.cls-6,.cls-7,.cls-8,.cls-9{stroke:#973693;}.cls-6{fill:#e1f3fc;}.cls-8{fill:#9b5b3a;}.cls-9{fill:#884c31;}.cls-10{fill:#6c2f1f;}.cls-11{fill:#9d4b9c;}</style></defs><polygon class="cls-1" points="126.852 93.358 126.852 139.951 43.474 139.951 43.474 93.075 126.852 93.358"/><polygon class="cls-2" points="126.852 61.589 126.852 93.358 43.474 93.075 43.474 62.121 126.852 61.589"/><polygon class="cls-3" points="126.852 53.069 126.852 61.589 43.474 62.121 43.474 58.875 87.216 23.592 126.852 53.069"/><polygon class="cls-4" points="126.852 61.589 126.852 53.069 87.216 23.592 43.474 58.875 43.474 62.121 43.474 93.075 43.474 139.951 126.852 139.951 126.852 93.358 126.852 61.589"/><polygon class="cls-5" points="42.729 57.944 51.521 22.374 124.784 22.374 130.473 56.397 87.032 24.582 42.729 57.944"/><path class="cls-5" d="M41.006,58.826S37.73,62.8,42.04,63.245,87.032,24.582,87.032,24.582l43.786,35.791s3.276-1.547,2.413-3.976-17.238-13.7-17.238-13.7L89.446,21.268s-1.38-3.313-3.1-2.429-8.619,7.733-8.619,7.733Z"/><rect class="cls-6" x="54.624" y="96.211" width="13.331" height="19.515"/><line class="cls-7" x1="59.622" y1="96.319" x2="59.622" y2="115.871"/><rect class="cls-8" x="53.705" y="115.283" width="14.825" height="2.061"/><rect class="cls-6" x="79.401" y="95.327" width="13.331" height="9.353"/><line class="cls-7" x1="84.4" y1="95.437" x2="84.4" y2="104.825"/><rect class="cls-8" x="78.481" y="104.238" width="14.826" height="2.06"/><rect class="cls-6" x="103.489" y="96.211" width="13.331" height="19.515"/><line class="cls-7" x1="108.488" y1="96.319" x2="108.488" y2="115.871"/><rect class="cls-8" x="102.57" y="115.283" width="14.825" height="2.061"/><rect class="cls-8" x="77.206" y="109.363" width="17.41" height="30.265"/><rect class="cls-9" x="79.792" y="112.749" width="12.411" height="8.542"/><rect class="cls-9" x="79.792" y="126.926" width="12.411" height="8.248"/><path class="cls-10" d="M80.481,124.276a1.155,1.155,0,1,1-1.12-1.437A1.308,1.308,0,0,1,80.481,124.276Z"/><rect class="cls-9" x="75.827" y="138.525" width="19.767" height="2.651"/><rect class="cls-6" x="54.865" y="67.759" width="13.331" height="19.515"/><line class="cls-7" x1="59.864" y1="67.87" x2="59.864" y2="87.423"/><rect class="cls-8" x="53.946" y="86.832" width="14.825" height="2.062"/><rect class="cls-6" x="79.298" y="67.759" width="13.331" height="19.515"/><line class="cls-7" x1="84.297" y1="67.87" x2="84.297" y2="87.423"/><rect class="cls-8" x="78.378" y="86.832" width="14.825" height="2.062"/><rect class="cls-6" x="103.731" y="67.759" width="13.331" height="19.515"/><line class="cls-7" x1="108.73" y1="67.87" x2="108.73" y2="87.423"/><rect class="cls-8" x="102.812" y="86.832" width="14.825" height="2.062"/><path class="cls-11" d="M29.924,119.725a.6.6,0,0,1-.194-.695.7.7,0,0,1,.784-.494,12.685,12.685,0,0,0,9.769-2.244,24.225,24.225,0,0,0,7.366-8.342.654.654,0,0,1,.844-.316.6.6,0,0,1,.185.856,25.75,25.75,0,0,1-7.849,8.865c-3.507,2.344-7.42,3.234-10.737,2.443A.529.529,0,0,1,29.924,119.725Z"/><path class="cls-11" d="M41.184,113.033a.519.519,0,0,1-.176-.207.729.729,0,0,1,.3-.893,52.891,52.891,0,0,0,7.335-5.6.7.7,0,0,1,1.238.637,76.317,76.317,0,0,1-2.5,9.033.7.7,0,0,1-.788.487.569.569,0,0,1-.355-.772,75.194,75.194,0,0,0,2.175-7.614,54.2,54.2,0,0,1-6.593,4.909A.577.577,0,0,1,41.184,113.033Z"/><path class="cls-11" d="M30.37,85.005a.594.594,0,0,1-.2-.694.7.7,0,0,1,.784-.494,12.692,12.692,0,0,0,9.77-2.245A24.231,24.231,0,0,0,48.1,73.231a.654.654,0,0,1,.844-.317.6.6,0,0,1,.185.856,25.747,25.747,0,0,1-7.85,8.866c-3.506,2.344-7.42,3.234-10.736,2.443A.492.492,0,0,1,30.37,85.005Z"/><path class="cls-11" d="M41.629,78.313a.51.51,0,0,1-.175-.207.726.726,0,0,1,.3-.892,52.969,52.969,0,0,0,7.335-5.595.7.7,0,0,1,1.238.636,76.477,76.477,0,0,1-2.5,9.034.7.7,0,0,1-.788.486A.569.569,0,0,1,46.683,81a75.126,75.126,0,0,0,2.176-7.614,54.319,54.319,0,0,1-6.594,4.91A.577.577,0,0,1,41.629,78.313Z"/><path class="cls-11" d="M26.75,115.313H25.38v-1.33H28.1v7.932H26.75Z"/><path class="cls-11" d="M27.466,82.965a1.165,1.165,0,0,0,.226-.7,1.154,1.154,0,0,0-2.307,0H24.046a2.493,2.493,0,1,1,4.481,1.514l-2.009,2.657h2.565v1.339H23.84Z"/></svg>