<svg id="word" xmlns="http://www.w3.org/2000/svg" viewBox="0 0 160 160"><defs><style>.cls-1{fill:#ee4635;}.cls-1,.cls-2,.cls-4,.cls-5{stroke:#9d4b9c;stroke-miterlimit:10;stroke-width:0.891px;}.cls-2{fill:#eff0f0;}.cls-3{fill:#9d4b9c;}.cls-4{fill:#0f0f0f;}.cls-5{fill:#1f1f1f;}</style></defs><path class="cls-1" d="M65.955,96.017s-2.536,4.558-3.133,5.481,1.141,1.539,1.685,1.469,9.016-1.806,9.016-1.806l8.709-2.24s8.16.4,10.2.227,7.295,3.615,7.624,5.187-.094,6.769-.659,6.889.38-2.533-1.525-4.922-3.244-4-5.385-4.375-3.054-.848-4.7.528-2.534,2.946-2.333,3.712-2.054-.207-1.467-.777.173-2.916.734-3.529,1.282-1.5-1.193-.8a71.486,71.486,0,0,1-7.642,1.952c-4.413.906-11.662,2.4-11.662,2.4s-5.591,1.5-6.506-.99,2.056-5.578,2.056-5.578l3.928-4.187S66.147,94.262,65.955,96.017Z"/><path class="cls-2" d="M72.544,92.428S68.782,95.59,67,96.017a12.871,12.871,0,0,1-2.782.392,3.75,3.75,0,0,1-1.919-.742l-.14-3.239S67.3,90.39,69.23,90.242,72.544,92.428,72.544,92.428Z"/><path class="cls-2" d="M85.306,26.848s4.076-2.047,4.381-4.013a7.674,7.674,0,0,0-4.457-7.293c-3.422-1.531-6.2-2.009-8.734-.755s-4.946,5.531-3.128,7.866,7.008,10.493,8.512,14.324S84.45,47.008,83.86,49.8a22.7,22.7,0,0,1-2.7,6.087s-7.692,1.565-10.071,1.955-9.858,5.368-11.676,6.539-5.146,3.4-5.146,3.4L40.006,98.905s2.917-1.706,3.149-1.746,5.052,1.468,5.338-.384,2.521-.636,4.056-.959,3.731-1.595,4.141-1.454,1.282-.607,1.282-.607a15.606,15.606,0,0,1,3.783-.073c.69.287,5.144-1.285,5.955-1.892s3.681-.841,3.681,0,1.2,2.694.606,3.5a12.325,12.325,0,0,0-1.152,2.193s.169-.437,2.111-.3,1.29.464,2.532-.923,1.773-3.237,3.259-4.658a16.929,16.929,0,0,1,4-3.022c.96-.415,5.738-2.784,6.825-4.173a35.662,35.662,0,0,0,2.078-3.022l-.476,3.2s3.051-5.111,2.637-5.442-.153,2.865-.153,2.865l2.008-4.431.952,1.732.559-5.417,1.44,2.31s1.68-14.674.131-19.591-5.922-13.647-7.577-16.871a88,88,0,0,1-3.994-9.064A32.625,32.625,0,0,0,85.306,26.848Z"/><path class="cls-1" d="M89.429,19.655l33.227,11.428L87.608,25.314s.417-.008.829-1.33c0,0,.031.326-.006-1.313A5.429,5.429,0,0,1,89.429,19.655Z"/><path class="cls-2" d="M85.452,21.032s-1.132-2.439-2-2.828-3.513.075-3.139.9a6.553,6.553,0,0,0,1.761,1.815Z"/><polygon class="cls-3" points="88.85 22.046 114.615 28.601 88.645 22.912 88.85 22.046"/><path class="cls-1" d="M71.391,96.846l-2.161,8.007s-2.871,2.577-2.372,4.1,2.882,3.514,2.882,3.514l2.21,14.823,2,11.94L66.8,143.4l6.433-.812,1.687.023,9.849,5.242s.948-.1-.691-.822-6.288-4.7-6.288-4.7,5.566,1.835,6.116,2.068,6.041,1.176,6.3.805-4.618-2.464-7.278-3.121-5.605-.589-4.471-1.12a16.335,16.335,0,0,1,6.106-.6c1.919.166,5.215,1.211,4.911.289s-11.93-1.391-11.93-1.391l-1.369-.073s-2.7-13.218-2.8-13.955S72,113.089,72,111.224s.242-9.239.724-9.608,1.264-4.68,1.264-4.68A1.949,1.949,0,0,0,71.391,96.846Z"/><path class="cls-4" d="M54.818,67.405c-3.287,2.151-10.473,5.488-13.555,10.253s-4.607,5.511-5.794,10.192-3.016,10.827-3.141,11.24,3.332-6.491,5.25-9.956a18.875,18.875,0,0,1,7.587-7.644c2.611-1.212,7.516-5.755,8.9-6.256s6.323-1.645,6.323-1.645S58.105,65.254,54.818,67.405Z"/><path class="cls-4" d="M59.194,76.11S53.26,87.13,49.218,89.324s-5.784,3.731-7.889,6.693-5.626,8.42-5.418,10.927-.219,6.6-.959,6.763-.063-8.493.5-10.993,5.116-14.4,6.032-16.652,6.352-7.615,6.352-7.615,8.285-4.73,8.8-4.989a25.876,25.876,0,0,1,3.957-.425Z"/><path class="cls-5" d="M75.649,86.823s-6.362,2.755-10.816,2.946-7.854.518-9.062.086-7.336-1.985-7.336-1.985a40.169,40.169,0,0,0,5.494-4.221c1.9-1.923,5.419-5.15,5.419-5.15a34.68,34.68,0,0,0,4.239,1.734c1.246.3,11.688,4.545,11.688,4.545Z"/><path class="cls-4" d="M83.388,81.126s-4.844,5.23-6.9,6.019a8.608,8.608,0,0,1-5.006.574c-1.523-.274-.2-1.512-.2-1.512s-2.055.257-4.25.313-.171-1.024-.171-1.024-3.307-.6-4.09-1.4,1.779-1.226,1.779-1.226-4.79-1.819-6.132-2.462,1.97-1.427,1.97-1.427l10.894-4.122,5.118-.45,8.067,5.881Z"/><path class="cls-2" d="M90.216,73.975s-7.48,8.7-9.464,7.553.2-3.187.2-3.187a4.349,4.349,0,0,1-3.721,1.346c-2.174-.4.964-2.274.964-2.274s-3.436,2.7-4.472,1.834.844-4.272.844-4.272-2.386,1.843-3.474,1.886L70,76.9l5.645-8.822Z"/><path class="cls-5" d="M71.279,59.045s-2,3.062-3.052,3.656-4.179,4.842-5.908,7.587-5.933,10.576-5.933,10.576,6.164-3.758,8.593-5.665,3.852-4.828,4.883-6.764.858-6.341.858-6.341Z"/><path class="cls-3" d="M42.523,97.843l.022-.005.028-.007a.886.886,0,0,0,.1-.034,1.143,1.143,0,0,0,.291-.2c.092-.083.187-.183.289-.294a3.42,3.42,0,0,1,.3-.313,21.9,21.9,0,0,0,2.06-1.737,11.47,11.47,0,0,0,1.719-2.069,8.064,8.064,0,0,0,.575-1.072,7.934,7.934,0,0,1-.669,1.007,11.218,11.218,0,0,1-1.866,1.861,21.711,21.711,0,0,1-2.169,1.5,3.22,3.22,0,0,0-.415.37c-.1.1-.192.182-.261.238a.656.656,0,0,1-.111.076.053.053,0,0,1,.027,0l-.025,0-.022,0Z"/><path class="cls-3" d="M48.121,97.754l.051-.053a1.72,1.72,0,0,0,.165-.2,3.76,3.76,0,0,0,.371-.722c.109-.287.237-.623.373-.983s.3-.75.436-1.141a16.768,16.768,0,0,0,.742-3.22,16.726,16.726,0,0,1-1.079,3.084c-.173.372-.357.723-.546,1.063-.169.348-.328.672-.463.95a3.116,3.116,0,0,1-.36.572.825.825,0,0,1-.108.111l-.055.049Z"/><path class="cls-3" d="M50.873,96.08l.2-.121c.122-.079.319-.209.52-.365a10.8,10.8,0,0,0,2.491-2.751,6.217,6.217,0,0,0,.4-.736,6.249,6.249,0,0,1-.485.674,10.307,10.307,0,0,1-1.271,1.292,10.187,10.187,0,0,1-1.455,1.041c-.213.124-.376.2-.508.267l-.208.095Z"/><path class="cls-3" d="M54.822,95.383,55,95.261a4.637,4.637,0,0,0,.475-.379,6.49,6.49,0,0,0,1.133-1.371,12.422,12.422,0,0,0,.8-1.538l.308-.72-.4.669a12.006,12.006,0,0,1-.987,1.387,6,6,0,0,1-1.214,1.12,3.851,3.851,0,0,1-.452.268l-.192.1Z"/><path class="cls-3" d="M56.291,89.707s.368-.138.923-.4a15.35,15.35,0,0,0,1.925-1.079,15.16,15.16,0,0,0,1.732-1.339c.443-.4.716-.685.716-.685s-.3.256-.783.6A14.645,14.645,0,0,1,57,88.774c-.543.186-.929.286-.929.286Z"/><path class="cls-3" d="M51.547,88.533l.34.009a5.073,5.073,0,0,0,.938-.058,2.588,2.588,0,0,0,.63-.189c.244-.128.377-.243.583-.373.236-.155.378-.3.578-.448l.566-.456,3.036-2.444-3.239,2.168-.6.405c-.192.123-.412.289-.568.367-.188.1-.419.24-.55.294a2.021,2.021,0,0,1-.508.1,4.428,4.428,0,0,1-.824-.024L51.6,87.85Z"/><path class="cls-5" d="M73.05,64.065s2.138,7.491-1.14,10.169-9.861,4.324-10.873,4.582-1.857,1.872.84-1.786,7.816-11.161,8.431-11.68A14.127,14.127,0,0,1,73.05,64.065Z"/><path class="cls-2" d="M84.464,58.334s5.775.347,7.179,3.47,2.164,8.36,0,11.74-3.884,5.211-5.25,3.814,1.088-3.814,1.088-3.814-1.545,2.586-3.768,1.724,0-3.108,0-3.108S82.1,74.7,80.4,73.4s.137-4.112.137-4.112-2.158,3.744-4.365,2.871c-1.081-.427.947-3.08.947-3.08s-1.714,4.027-3.895,3.08-1.386-6.33-.683-8.109S79.931,58.313,84.464,58.334Z"/><ellipse class="cls-3" cx="82.863" cy="19.655" rx="1.146" ry="1.153"/></svg>