<svg id="word" xmlns="http://www.w3.org/2000/svg" viewBox="0 0 160 160"><defs><style>.cls-1{fill:#dba982;}.cls-1,.cls-3,.cls-4,.cls-5,.cls-6{stroke:#9d4b9c;stroke-miterlimit:10;stroke-width:1.031px;}.cls-2{fill:#9d4b9c;}.cls-3{fill:none;}.cls-4{fill:#a7715f;}.cls-5{fill:#242424;}.cls-6{fill:#fff;}</style></defs><path class="cls-1" d="M61.039,94.254s-7.857-2.774-9.824-3.905-5.181.542-7.21,3.319-3.518,5.074-2.838,7.631,3.035,2.751,3.5,3.229,1.581-.11,1.581-.11a2.615,2.615,0,0,0,1.376,2.034c1.371.853,2.212,1,2.254.14s.848-.248,1.143-2.093.766-4.143.766-4.143L62.13,103.28l1.558-8.635Z"/><path class="cls-1" d="M123.342,121.534s3.941,1.093,6.164-1.07,4.742-7.429,2.7-11.691-3.96-6.865-5.046-7.632-4.931-1.642-6.63-1.778-2.26-.7-1.965-1.213,1.488-.73,1.488-.73-2.906.616-4.421-.428,3.962-2.6,3.962-2.6-8.515-1.86-9.326-1.8,2.2-3.138,6.1-3.186,5.062-1.062,10.467.5a21.853,21.853,0,0,1,8.05,3.888l1.487.9-2.655-5.462s4.048,2.514,5.111,5.006a24.728,24.728,0,0,1,1.435,5.869v-5.4a46.707,46.707,0,0,1,3.487,7.186c.683,2.4,1.941,2.369,1.106,4s1.957-1.437,1.957-1.437-1.125,6.226-1.861,9.185-2.039,9.558-3.258,10.472-5.758,3.262-9.448,2.472-5.287-1.477-7.006-1.424a39.426,39.426,0,0,0-4.474.555Z"/><path class="cls-1" d="M63.321,84.423c.114,1.9.505,2.262.5,2.969a28.926,28.926,0,0,1-.132,4.118c-.218,1.195-1.427,11.041-1.427,11.041s1.227-1.283.733,2.986.216,4.332.216,4.332l2.028-1.966s-.882,3.971-.5,5.456.609,2.354.609,2.354l3.242-3.072-3.5,12.668s-3.933-1.436-6.006.79S57.6,133.28,57.6,133.28l1.455.54a7.727,7.727,0,0,0,2.621.813c2.14.44,5.888,1.655,8.556,1.329s1.575.762,2.538-3.723,1.631-4.68,3.368-6.392,1.753-.824,2.5-1.6a3.6,3.6,0,0,0,.786-2.11l6.715,3.74s-3.529,3.65-3.989,6.144c-.509,2.762.71,3.6.71,3.6s.951.338,2.287.719a5.461,5.461,0,0,0,3.2-.56s9.175.318,10.889.5,11.4-1.713,13.512-.6,3.355-2.319,3.355-2.319a43.184,43.184,0,0,0,5.7-4.968c1.643-1.979,3.75-12.012,1.283-18.037-2.4-5.86-11.946-8.587-13.7-9.627S94.6,92.811,92.92,91.1C88.6,86.707,80.7,87.767,76.814,80.177"/><path class="cls-2" d="M102.45,111.381a15.039,15.039,0,0,0-4.582,1.648,6.219,6.219,0,0,0-1.783,1.5,4.762,4.762,0,0,0-.855,2.073,16.291,16.291,0,0,0,.075,4.769,40,40,0,0,0,.968,4.771l.2.768-.758-.169c-1.731-.383-3.473-.79-5.22-1.086a10.7,10.7,0,0,0-2.578-.21,4.565,4.565,0,0,0-2.231,1.316,4.342,4.342,0,0,1,2.128-1.669,8.358,8.358,0,0,1,2.759-.056,52.688,52.688,0,0,1,5.343.779l-.555.6a32.145,32.145,0,0,1-1.075-4.908,15.359,15.359,0,0,1,.045-5.087,5.079,5.079,0,0,1,1.157-2.387,6.891,6.891,0,0,1,2.1-1.523A12.258,12.258,0,0,1,102.45,111.381Z"/><path class="cls-2" d="M79.948,112.537a11.845,11.845,0,0,1,.687,2.418,17.122,17.122,0,0,1,.274,2.488,11.905,11.905,0,0,1-.179,2.527,5.531,5.531,0,0,1-.386,1.245,1.524,1.524,0,0,1-.913.922,1.672,1.672,0,0,0,.429-1.07,10.259,10.259,0,0,0,.07-1.181q0-1.2-.051-2.412A39.087,39.087,0,0,1,79.948,112.537Z"/><path class="cls-3" d="M46.988,97.737a17.446,17.446,0,0,0-.247,7.257"/><path class="cls-3" d="M43.627,97.937c-.236.088-.33.365-.394.608a12.459,12.459,0,0,0-.484,2.706,4.642,4.642,0,0,0,.625,2.641"/><path class="cls-3" d="M88.686,136.181a3.78,3.78,0,0,1,.365-3.441,11.153,11.153,0,0,1,2.447-2.618"/><path class="cls-3" d="M83.547,136.461a7.681,7.681,0,0,1,1.921-4.869"/><path class="cls-3" d="M60.356,133.7c.056.445-.526-3.788.649-5.527"/><path class="cls-1" d="M80.374,49.313s8.313-.347,11.257-1.386,4.683-.328,7.793.866c7.818,3,9.5,9.494,4.491,9.816-2.444.157-13.323-2.023-16.787-3.235a42.145,42.145,0,0,1-7.793-4.156Z"/><path class="cls-4" d="M47.645,57.971s3.983,2.252,3.983,3.637-2.252,5.368-2.252,5.368l-1.558,1.905s9.871-3.117,10.91-5.195,2.251-3.637.519-5.541-11.083-1.732-11.083-1.732Z"/><path class="cls-1" d="M76.738,80.83l-1.212-3.636s-1.039-5.2,2.6-7.1,3.637-2.424,4.5-5.022,2.77-14.373,0-16.8-9.005-3.464-11.6-3.291-9.178,1.039-12.122.347-5.195-7.274-7.273-8.139-7.447.173-8.486,2.424-3.117,13.507-.866,15.932,8.832,1.905,11.776,2.944,6.927,2.251,4.329,3.81-8.139,3.636-10.563,5.022a4.682,4.682,0,0,0-1.212,6.753c1.558,1.732,2.078-3.636,4.675-3.636s5.022-.693,7.1.346A13.016,13.016,0,0,1,63.4,77.02a18.981,18.981,0,0,1,.347,4.33c0,1.385-.173,6.234-.173,6.234"/><path class="cls-1" d="M78.808,56.94s2.146,11.668,7.939,16.376,15.448,1.228,18.023-3.48,4.077-7.165-.429-10.645-14.161-4.5-18.023-5.322a44.553,44.553,0,0,1-6.866-2.047Z"/><path class="cls-5" d="M42.447,41.346A10.875,10.875,0,0,0,47.9,42.905c3.087,0,5.811-2.924,5.811-2.924s-1.635-6.432-4.722-6.432S42.447,41.346,42.447,41.346Z"/><path class="cls-6" d="M66.527,46.715s-6.441-.147-5.563,2.488,5.855,3.367,7.026,2.2S70.04,47.3,66.527,46.715Z"/><path class="cls-2" d="M66.315,46.453s-4.71-.107-4.068,1.82,4.282,2.463,5.139,1.606S68.884,46.882,66.315,46.453Z"/></svg>