<svg id="word" xmlns="http://www.w3.org/2000/svg" viewBox="0 0 160 160"><defs><style>.cls-1{fill:#fff;}.cls-1,.cls-2,.cls-3{stroke:#9c4c9c;stroke-miterlimit:10;}.cls-1,.cls-2{stroke-width:0.652px;}.cls-2{fill:#ea1f29;}.cls-3{fill:#ec973f;stroke-width:0.326px;}.cls-4{fill:#f0bc55;}.cls-5{fill:#f5f090;}</style></defs><path class="cls-1" d="M58.7,117.323s42.7,19.578,43.779,20.811,3.7,6.012-.925,6.937-26.977-12.178-26.977-12.178-17.419-7.245-18.344-9.866S55.769,116.707,58.7,117.323Z"/><polygon class="cls-2" points="61.04 31.415 60.232 66.533 64.596 66.533 64.596 31.415 61.04 31.415"/><path class="cls-1" d="M58.616,65.777s-1.939,2.139,0,2.645,1.455.505,1.939,3.405,0,51.826,0,51.826,1.94,1.639,3.879,1.008,1.455-2.143,1.455-2.143l-.808-53.59a5.751,5.751,0,0,0,1.787-1.088c1.077-.882-.617-2.158-.617-2.158Z"/><path class="cls-3" d="M62.663,31.672a11.067,11.067,0,0,0-2.342-4.579c-1.9-2.234-2.461-4.58-.673-6.7a19.869,19.869,0,0,0,3.238-5.022c.521-1.563-.783,2.455.673,4.13s3.458,2.568,2.23,6.14A23.263,23.263,0,0,1,62.663,31.672Z"/><path class="cls-4" d="M62.847,30.742a48.112,48.112,0,0,1-2.272-4.43c-.554-1.451-1.338-3.426-.781-4.652a29.478,29.478,0,0,1,2.386-3.649s1.786,2.753,2.455,3.76a4.5,4.5,0,0,1,.3,4.316A50.675,50.675,0,0,0,62.847,30.742Z"/><path class="cls-5" d="M62.886,30.594a36.518,36.518,0,0,1-2.346-6.775c-.354-2.321,1.711-4.393,1.711-4.393s2.866,2.755,1.417,5.656C63.047,26.32,62.886,30.594,62.886,30.594Z"/><polygon class="cls-2" points="71.985 37.273 71.177 72.391 75.541 72.391 75.541 37.273 71.985 37.273"/><path class="cls-1" d="M69.561,71.634s-1.94,2.139,0,2.646,1.454.5,1.939,3.405,0,51.826,0,51.826,1.94,1.638,3.879,1.008,1.455-2.143,1.455-2.143l-.808-53.59A5.751,5.751,0,0,0,77.813,73.7c1.077-.882-.617-2.158-.617-2.158Z"/><path class="cls-3" d="M73.607,37.53a11.073,11.073,0,0,0-2.341-4.58c-1.9-2.233-2.461-4.579-.673-6.7a19.827,19.827,0,0,0,3.237-5.022c.521-1.563-.782,2.455.673,4.13s3.459,2.568,2.23,6.14A23.228,23.228,0,0,1,73.607,37.53Z"/><path class="cls-4" d="M73.792,36.6A48.052,48.052,0,0,1,71.52,32.17c-.554-1.451-1.339-3.426-.781-4.652a29.36,29.36,0,0,1,2.386-3.649s1.786,2.753,2.455,3.76a4.507,4.507,0,0,1,.3,4.316A50.694,50.694,0,0,0,73.792,36.6Z"/><path class="cls-5" d="M73.83,36.451a36.521,36.521,0,0,1-2.345-6.774c-.354-2.321,1.711-4.393,1.711-4.393s2.866,2.755,1.417,5.656C73.992,32.178,73.83,36.451,73.83,36.451Z"/><polygon class="cls-2" points="83.855 42.206 83.047 77.324 87.411 77.324 87.411 42.206 83.855 42.206"/><path class="cls-1" d="M81.431,76.567s-1.94,2.139,0,2.646,1.454.5,1.939,3.405,0,51.825,0,51.825,1.939,1.639,3.879,1.009,1.455-2.143,1.455-2.143L87.9,79.719a5.765,5.765,0,0,0,1.787-1.088c1.078-.882-.616-2.158-.616-2.158Z"/><path class="cls-3" d="M85.477,42.463a11.073,11.073,0,0,0-2.341-4.58c-1.9-2.233-2.461-4.579-.673-6.7A19.827,19.827,0,0,0,85.7,26.16c.521-1.563-.782,2.455.673,4.13s3.459,2.568,2.23,6.14A23.228,23.228,0,0,1,85.477,42.463Z"/><path class="cls-4" d="M85.662,41.532A48.381,48.381,0,0,1,83.389,37.1c-.553-1.452-1.338-3.426-.78-4.653A29.4,29.4,0,0,1,85,28.8s1.786,2.753,2.455,3.76a4.507,4.507,0,0,1,.3,4.316A50.694,50.694,0,0,0,85.662,41.532Z"/><path class="cls-5" d="M85.7,41.384a36.511,36.511,0,0,1-2.345-6.775c-.354-2.32,1.711-4.392,1.711-4.392s2.866,2.754,1.417,5.656C85.862,37.111,85.7,41.384,85.7,41.384Z"/><polygon class="cls-2" points="95.57 48.064 94.762 83.182 99.126 83.182 99.126 48.064 95.57 48.064"/><path class="cls-1" d="M93.146,82.425s-1.939,2.139,0,2.645,1.455.505,1.94,3.405,0,51.826,0,51.826,1.939,1.639,3.879,1.009,1.454-2.143,1.454-2.143l-.808-53.59a5.778,5.778,0,0,0,1.787-1.088c1.077-.883-.617-2.158-.617-2.158Z"/><path class="cls-3" d="M97.193,48.321a11.068,11.068,0,0,0-2.342-4.58c-1.9-2.234-2.461-4.579-.673-6.7a19.852,19.852,0,0,0,3.238-5.021c.521-1.563-.783,2.455.673,4.129s3.458,2.569,2.23,6.141A23.263,23.263,0,0,1,97.193,48.321Z"/><path class="cls-4" d="M97.377,47.39a48.19,48.19,0,0,1-2.272-4.429c-.554-1.452-1.338-3.426-.781-4.653a29.559,29.559,0,0,1,2.386-3.649s1.786,2.753,2.455,3.761a4.5,4.5,0,0,1,.3,4.316A50.982,50.982,0,0,0,97.377,47.39Z"/><path class="cls-5" d="M97.416,47.242a36.489,36.489,0,0,1-2.346-6.775c-.353-2.32,1.711-4.393,1.711-4.393s2.867,2.755,1.417,5.656C97.577,42.968,97.416,47.242,97.416,47.242Z"/></svg>