<svg id="word" xmlns="http://www.w3.org/2000/svg" viewBox="0 0 160 160"><defs><style>.cls-1{fill:#d6de23;}.cls-1,.cls-2,.cls-3,.cls-4{stroke:#9d4b9c;}.cls-1,.cls-2,.cls-3{stroke-width:1.417px;}.cls-2{fill:#aeb71d;}.cls-3{fill:#231f20;}.cls-4{fill:#9d4b9c;}</style></defs><path class="cls-1" d="M104.75,44.5l22.355,10.285-27.3,13s-27.3,9.1-27.3,13.868-9.1,22.535-9.1,22.535-14.3-10.834-15.6-16.9,0-19.069,6.067-25.57,19.5-11.7,23.4-10.4a14.8,14.8,0,0,0,6.5.867Z"/><path class="cls-2" d="M103.7,79.055s-5.462,20.78-13,26.869c-8.451,6.826-17.9,8.719-24.451,1.576-3.908-4.261-7.2-21.619,1.049-32.779C77.25,61.25,96.335,61.286,99.369,63.453s27.736-8.668,27.736-8.668l.433,14.3-21.669,4.767Z"/><polygon class="cls-3" points="51.75 70 62.5 77.25 60.75 83.75 50 76.25 51.75 70"/><path class="cls-4" d="M50,92.5s-9.988,9.79-6.087,18.024,22.535-2.167,22.535-2.167L62.75,104s-7.136,7.391-12.77,5.224S52.75,95.25,52.75,95.25Z"/></svg>