<svg id="word" xmlns="http://www.w3.org/2000/svg" viewBox="0 0 160 160"><defs><style>.cls-1{fill:#7d9ed2;}.cls-1,.cls-10,.cls-11,.cls-13,.cls-14,.cls-15,.cls-16,.cls-17,.cls-2,.cls-3,.cls-4,.cls-5,.cls-6,.cls-8,.cls-9{stroke:#9c4c9c;stroke-miterlimit:10;}.cls-1,.cls-10,.cls-11,.cls-13,.cls-14,.cls-15,.cls-16,.cls-17,.cls-2,.cls-3,.cls-4,.cls-5,.cls-6,.cls-8{stroke-width:0.55px;}.cls-2{fill:#4f6eb4;}.cls-3{fill:#dfe0e0;}.cls-4{fill:#ce9f51;}.cls-17,.cls-5,.cls-6{fill:none;}.cls-6{stroke-dasharray:4.1 2.05;}.cls-7{fill:#b29d89;}.cls-8{fill:#fbe4d6;}.cls-9{fill:#bd416e;stroke-width:0.777px;}.cls-10{fill:#dca855;}.cls-11{fill:#775146;}.cls-12{fill:#9c4c9c;}.cls-13{fill:#97685b;}.cls-14{fill:#c1dea2;}.cls-15{fill:#9cb484;}.cls-16{fill:#fff;}.cls-17{stroke-linecap:round;}</style></defs><path class="cls-1" d="M49.775,138.4a23.271,23.271,0,0,0,8.922.227c.141-.022.283-.045.425-.07.173-1.478-.008-2.742-.941-3.2a10.649,10.649,0,0,1-2.063-1.3,14.434,14.434,0,0,0-5.633,3.43A6.042,6.042,0,0,0,49.775,138.4Z"/><path class="cls-2" d="M49.775,138.4a6.042,6.042,0,0,1,.71-.911,14.434,14.434,0,0,1,5.633-3.43q-.287-.231-.534-.464a41.912,41.912,0,0,1-2.711-3.769,9.451,9.451,0,0,1-2.072-.22c-.708-.219-7.872,1.061-7.872,1.061s-.353,2.289-.491,3.8a17.539,17.539,0,0,0,3,2.236A16.347,16.347,0,0,0,49.775,138.4Z"/><path class="cls-3" d="M49.775,138.4a16.347,16.347,0,0,1-4.332-1.7,17.539,17.539,0,0,1-3-2.236,8.284,8.284,0,0,0-.05,1.082c.063.959,3.96,4.363,5.058,4.73a17.23,17.23,0,0,0,6.333.882c.788-.2,4.781.369,5.175-1.541.075-.361.128-.714.168-1.059-.142.025-.284.048-.425.07a23.271,23.271,0,0,1-8.922-.227"/><path class="cls-4" d="M55.9,88.6a15.038,15.038,0,0,1,.873,4.647c-.049,2.148-1.3,4.425-1.535,6.267s.02,15.378.119,17.123-.076,8.692.159,9.781-.01,2.972.169,3.518-2.526,2.236-4.753,2.012-7.239-1.3-8-1.281-1.12.16-1.254-1.709a7.912,7.912,0,0,1,.176-2.8,27.84,27.84,0,0,1-.592-4.44c.107-.978.061-17.7,1.419-20.6A18.1,18.1,0,0,0,44.314,94.9c.153-1.175-.4-6.914-.4-6.914Z"/><path class="cls-5" d="M45.255,87.913s.253.883.546,2.132"/><path class="cls-6" d="M46.231,92.051c.385,2.012.657,4.238.283,5.379-.781,2.385-3.819,6.856-3.759,10.7s.127,10.092.18,10.983c.033.563.25,4.9.405,8.024"/><path class="cls-5" d="M43.391,128.165c.065,1.3.11,2.2.11,2.2"/><path class="cls-1" d="M35.634,139.9a23.25,23.25,0,0,0,8.9.736c.142-.013.285-.028.428-.045.257-1.466.149-2.738-.757-3.246a10.708,10.708,0,0,1-1.986-1.416,14.437,14.437,0,0,0-5.819,3.1A6.1,6.1,0,0,0,35.634,139.9Z"/><path class="cls-2" d="M35.634,139.9a6.1,6.1,0,0,1,.761-.869,14.437,14.437,0,0,1,5.819-3.1q-.271-.247-.506-.494a41.831,41.831,0,0,1-2.491-3.918,9.45,9.45,0,0,1-2.056-.338c-.694-.259-7.92.609-7.92.609s-.483,2.265-.707,3.762a17.528,17.528,0,0,0,2.872,2.4A16.347,16.347,0,0,0,35.634,139.9Z"/><path class="cls-3" d="M35.634,139.9a16.347,16.347,0,0,1-4.228-1.946,17.528,17.528,0,0,1-2.872-2.4,8.213,8.213,0,0,0-.112,1.077c.008.962,3.705,4.583,4.78,5.012a17.229,17.229,0,0,0,6.272,1.243c.8-.157,4.753.641,5.255-1.243.095-.356.168-.706.228-1.048-.143.017-.286.032-.428.045a23.25,23.25,0,0,1-8.9-.736"/><path class="cls-7" d="M83.072,136.291s6.861-3.28,11.587-3.277c2.468,0,4.287-.007,4.287-.007s1.805-1.618,6.954-.784,5.309,1.477,5.309,1.477,1.441-1.39,6.855-1.815,6.286.749,6.286.749,7.6.356,10.116,1.066,6.771,2.274,9.088,4.33c2.887,2.563,1.71,3.111-2.691,3.176s-5.955,1.062-3.754,2.7,1.424,3.778-1.554,3.291-10.279-1.775-13.619-.66-2.47,2.24-8.881,3.279c-4.908.8-12.687-1.1-9.269-2.619s4.729-2.048-2.232-1.012c-12.2,1.815-27.026,1.089-23.279-.888s6.921-3.988,2.778-4.46-14.294-1.593-8.794-2.715S83.072,136.291,83.072,136.291Z"/><path class="cls-8" d="M78.646,63.878c0,.005,2.742-.065,3.778-.868S86.91,61.221,88,60.967s4.321-1.895,4.666-.742-2.36,2.862-2.36,2.862-1.094.517-.537,1.077a11.169,11.169,0,0,0,3.785,1.256c.329-.015,4.627.568,5.1,1.28a2.178,2.178,0,0,1-.866,2.822c-1.146.854-5.717,1.571-6.494,1.608s-5.761.093-7.249,0-4.077-.433-4.077-.433Z"/><path class="cls-9" d="M57.315,52.589s5.869,5.549,6.521,6.25a18.711,18.711,0,0,0,2.406,2.4,52.2,52.2,0,0,0,7.962,1.12,16.814,16.814,0,0,1,4.854.647c.13.129-.32-.6.259,3.077s.786,5.824.786,5.824a8.633,8.633,0,0,1-3.324.747,58.922,58.922,0,0,1-11.443-1.726,21.314,21.314,0,0,1-8.021-4.1l-1.171-10.81Z"/><path class="cls-10" d="M44.6,90.532a14.988,14.988,0,0,1,.606,4.689c-.171,2.142-1.546,4.344-1.89,6.169s-.859,15.354-.859,17.1-.573,8.674-.4,9.774-.179,2.966-.032,3.522-2.65,2.088-4.86,1.737-7.153-1.71-7.918-1.737-1.128.1-1.155-1.778a7.92,7.92,0,0,1,.335-2.78,27.816,27.816,0,0,1-.337-4.466c.162-.971,1.072-17.668,2.593-20.485a18.117,18.117,0,0,0,1.99-6.119c.219-1.165,0-6.926,0-6.926Z"/><path class="cls-5" d="M34.006,89.234s.2.9.424,2.161"/><path class="cls-6" d="M34.744,93.421c.27,2.031.414,4.269-.024,5.387-.916,2.337-4.2,6.627-4.365,10.469s-.449,10.083-.448,10.976c0,.564-.03,4.909-.053,8.034"/><path class="cls-5" d="M29.846,129.313c-.01,1.3-.017,2.2-.017,2.2"/><path class="cls-11" d="M33.907,17.074s-8.392,3.149-9.583,6.354-1.864,5.365.362,6.486,8.713,0,8.713,0l2.835-13.633Z"/><path class="cls-8" d="M33.863,27.684a1.732,1.732,0,0,0-2.555,1.545c-.411,2.547-.535,2.938,0,3.8a3.179,3.179,0,0,0,2.181,1.47"/><path class="cls-8" d="M57.618,30.945s1.945.046,2.162,2.624-1.979,3.859-2.374,4.2-2.979,0-2.979,0"/><path class="cls-8" d="M38.995,42.3,37.5,49.029s1.056,2.89,5.1,3.236,4.53-.906,4.473-1.1.851-8.415.851-8.415Z"/><path class="cls-12" d="M91.411,75.368a13.313,13.313,0,0,0,.9,1.207,1.8,1.8,0,0,0,2.587.3c.236-.15.484-.282.734-.409a.8.8,0,0,0,.489-.827c-.031-.4-.344-.49-.648-.569a2.541,2.541,0,0,0-.646-.094c-.926.008-1.852.023-2.777.065C91.886,75.043,91.732,75.194,91.411,75.368Zm9.526-12.253a4.812,4.812,0,0,0-2.679.7.818.818,0,0,0-.427.858.72.72,0,0,0,.721.616,5.546,5.546,0,0,0,3.729-.911.755.755,0,0,0,.251-.642.789.789,0,0,0-.5-.442A7.12,7.12,0,0,0,100.937,63.115Zm-.678,5.951a9.274,9.274,0,0,0-1.023.074,1.243,1.243,0,0,0-.991,1.192c.021.523.621,1.2,1.169,1.134a8.872,8.872,0,0,0,2.232-.584,1.205,1.205,0,0,0,.486-.919c.012-.194-.352-.5-.608-.6A7.751,7.751,0,0,0,100.259,69.066ZM114,90.265a2.574,2.574,0,0,0,.89,1.884c.409.362.695.294.952-.175.149-.271.34-.521.469-.8a3.183,3.183,0,0,0,.33-.957c.079-.778-.532-1.31-1.458-1.335C114.305,88.858,114.021,89.141,114,90.265Zm-9.682,5.5a7.517,7.517,0,0,0-.451-1.844,3.693,3.693,0,0,0-1.16-1.018c-.11-.079-.37-.017-.529.052a2.061,2.061,0,0,0-.532,1.595,15.827,15.827,0,0,0,1.046,1.53.876.876,0,0,0,1.094.264C104.018,96.229,104.164,95.936,104.316,95.763Zm3.3,17.225a14.846,14.846,0,0,0-.589-1.865,2,2,0,0,0-.849-.819c-.5-.28-.945.016-.931.6.012.494.158.985.175,1.48.031.914.621,1.3,1.372,1.543C107.325,114.1,107.621,113.847,107.614,112.988ZM105.9,75c-.587.033-1.178.037-1.76.111-.211.027-.573.229-.567.335a.911.911,0,0,0,.345.68c.794.417,1.618.783,2.449,1.121a.687.687,0,0,0,1-.606A1.5,1.5,0,0,0,105.9,75Zm2.747,12.476c.212-.1.378-.186.546-.264a1.632,1.632,0,0,0,1.009-1.942c-.077-.392-.285-.638-.69-.608-.519.038-1.106-.454-1.55.186a.751.751,0,0,0-.081.166A2.385,2.385,0,0,0,108.647,87.477ZM95.306,73.3a2.471,2.471,0,0,0,.654-.083.86.86,0,0,0,.644-.828.786.786,0,0,0-.547-.789,1.7,1.7,0,0,0-.8-.18c-.609.087-1.207.255-1.806.4a.588.588,0,0,0-.459.709.644.644,0,0,0,.651.658C94.137,73.216,94.633,73.251,95.306,73.3Zm17.965,42.616a9.8,9.8,0,0,0,.364,1.234c.223.523.464.558.941.225.1-.07.191-.16.291-.234a1.184,1.184,0,0,0,.2-2.009c-.33-.354-.7-.685-1.215-.514C113.3,114.8,113.375,115.346,113.271,115.912Zm-9.4-36.434a6.257,6.257,0,0,0-2.533-1.273.7.7,0,0,0-.967.319.756.756,0,0,0,.37,1.038,8.034,8.034,0,0,0,1.622.665C103.23,80.45,103.316,80.373,103.874,79.478Zm1.086-12.367a3.622,3.622,0,0,0-.5.059.99.99,0,0,0-.762,1.115c.035.524.234.736.818.833a2.3,2.3,0,0,0,1.852-.406.6.6,0,0,0,.066-1.02A1.91,1.91,0,0,0,104.96,67.111Zm6.529,13.826A7.156,7.156,0,0,0,111,79.665a.7.7,0,0,0-1.059-.184,1.424,1.424,0,0,0-.578,1.855c.212.589.558.862,1,.793A1.7,1.7,0,0,0,111.489,80.937Zm-2.111,21.714-.085-.018c0-.187.014-.376,0-.562-.034-.385-.09-.764-.582-.832a.848.848,0,0,0-.943.612,2.975,2.975,0,0,0,.08,2.106c.11.2.352.459.517.448a.893.893,0,0,0,.654-.414A7.71,7.71,0,0,0,109.378,102.651Zm9.515,7.1a2.433,2.433,0,0,0-.006-.553c-.083-.245-.143-.6-.32-.685a.971.971,0,0,0-.764.127,1.933,1.933,0,0,0-.871,1.657.69.69,0,0,0,.47.812,1.411,1.411,0,0,0,.941-.148A1.2,1.2,0,0,0,118.893,109.751ZM104.93,86.646a1.688,1.688,0,0,0-1.538-1.374c-1.107.15-1.28.588-.586,1.488.819,1.063.828,1.071,1.841.314A1.3,1.3,0,0,0,104.93,86.646Zm4.987,7.544c0-.792-.428-1.545-.888-1.557a1.384,1.384,0,0,0-1.215,1.4.936.936,0,0,0,1.042,1.026C109.524,95.073,109.916,94.751,109.917,94.19ZM95.946,143.55l-.166-.221a4.781,4.781,0,0,0-2.7.767,1.164,1.164,0,0,0-.328.328.47.47,0,0,0,.3.782,1.987,1.987,0,0,0,.551.087c.77,0,1.126-.721,1.734-1.018C95.6,144.149,95.745,143.8,95.946,143.55Zm6.369-1.4a6.957,6.957,0,0,1,.873-1.139c.558-.478.759-.8.569-1.447-.061-.208-.243-.483-.419-.527a.806.806,0,0,0-.637.251,2.756,2.756,0,0,0-.627,2.68C102.09,142.037,102.207,142.076,102.315,142.154Zm12.236-41.412a8.255,8.255,0,0,0-.135-.871c-.144-.562-.492-.812-.907-.693-.555.159-1,.823-.771,1.27a4.1,4.1,0,0,0,.826,1.1c.353.335.785.168.926-.3A2.994,2.994,0,0,0,114.551,100.742ZM92.989,61.81c-1.089.032-1.488.2-1.784.683-.278.457.053,1.2.54,1.086a3.05,3.05,0,0,0,1.882-.892.518.518,0,0,0-.325-.857A1.042,1.042,0,0,0,92.989,61.81Zm26.327,57.836a1.663,1.663,0,0,0,.381-.181,2.112,2.112,0,0,0,.186-2.4.676.676,0,0,0-.563-.191c-.21.051-.531.25-.543.405A2.966,2.966,0,0,0,119.316,119.646Zm7.728,15.065-.98.525a3.1,3.1,0,0,0-.521-.541,1.791,1.791,0,0,0-.587-.136c-.021.222-.127.485-.045.658a8.457,8.457,0,0,0,.671,1c.191.285.352.615.794.451s.793-.412.824-.906A5.815,5.815,0,0,0,127.044,134.711Zm-12.919,1.459a1.745,1.745,0,0,0,.415,1.5.974.974,0,0,0,1.323.178,1.377,1.377,0,0,0,.147-1.475.511.511,0,0,0-.3-.189C115.2,136.159,114.7,136.17,114.125,136.17Zm-3.381-60.538a1.28,1.28,0,0,0,1.118,1.451c.48.043.708-.182.632-.654-.053-.334-.127-.666-.213-.993a.828.828,0,0,0-.983-.633C110.829,74.884,110.74,75.23,110.744,75.632Zm2.076,47.406c-.32.2-.724.316-.884.581a1.3,1.3,0,0,0,.029,1.42.429.429,0,0,0,.718.053,4.626,4.626,0,0,0,.724-.838,1.013,1.013,0,0,0,.147-.769C113.479,123.3,113.135,123.217,112.82,123.038Zm6.646,3.415c-.083-.129-.157-.356-.311-.443a.648.648,0,0,0-.5.092c-.214.119-.38.323-.591.447a.61.61,0,0,0-.245.883,1.288,1.288,0,0,0,.706.514c.37.11.551-.208.66-.511S119.356,126.842,119.466,126.453ZM98.379,139.586c-.551-.333-.883-.007-1.217.166-.367.189-.886.365-.7.931.2.585.709.312,1.143.336Zm12.044-1.954c-.009-.54-.272-.887-.651-.855a1.067,1.067,0,0,0-.808,1.015.721.721,0,0,0,.583.737A.883.883,0,0,0,110.423,137.632Zm24.573.712a1.107,1.107,0,0,0-1.451.107c-.439.331-.39.626.124.88.793.391,1.1.244,1.295-.626A2.605,2.605,0,0,0,135,138.344Zm-38.814-4.018c-.092.021-.244.056-.395.093-.328.08-.606.252-.6.613.01.4.364.34.635.366a1.438,1.438,0,0,1,.366.062c.387.143.611,0,.669-.388A.63.63,0,0,0,96.182,134.326Zm-5.9,6.511c-.923-.022-1.306.36-1.311,1.239C89.855,142.211,90.079,142.011,90.285,140.837Zm11.2-5.368c-.729.153-1.166.382-1.291.729a.649.649,0,0,0,.057.5c.057.089.283.124.418.1A1.333,1.333,0,0,0,101.489,135.469Zm-7.517,2.021a1.2,1.2,0,0,0-1.428.181c-.137.1-.152.366-.222.557.218.061.509.24.64.159A7.488,7.488,0,0,0,93.972,137.49Zm22.952,5.643a.742.742,0,0,0-.993.294.768.768,0,0,0-.118.586c.025.1.317.2.469.177a.759.759,0,0,0,.5-.309A2.494,2.494,0,0,0,116.924,143.133Zm-6.636.982a3.667,3.667,0,0,0-.071-.793.575.575,0,0,0-.358-.349.507.507,0,0,0-.406.256,6.347,6.347,0,0,0-.268.969Zm12.1-5.192-.2-.191a5.294,5.294,0,0,0-.806.516c-.263.242-.249.7-.01.8a.524.524,0,0,0,.765-.274A8.122,8.122,0,0,0,122.391,138.923Zm-1.049-5.226a3.771,3.771,0,0,0,.816-.1c.32-.108.375-.4.237-.688a.437.437,0,0,0-.7-.172A.714.714,0,0,0,121.342,133.7Zm12.459-.805.054-.283a3.413,3.413,0,0,0-.792-.354c-.1-.018-.309.244-.361.412-.025.08.192.333.311.341A3.436,3.436,0,0,0,133.8,132.892Zm-29.982,2.094c.38-.126.823-.029.888-.529.014-.1-.267-.345-.414-.347C103.822,134.107,103.658,134.391,103.819,134.986Zm-14.862,1.406c-.922-.156-.922-.156-1.408.177C88.137,136.937,88.137,136.937,88.957,136.392Z"/><path class="cls-12" d="M85.422,66.419l-.006.059c-.619.034-1.24.056-1.858.107a5.234,5.234,0,0,0-1.1.18.9.9,0,0,0-.436.421.424.424,0,0,0,.155.381,8.5,8.5,0,0,0,1.237.591,2.4,2.4,0,0,0,1.729-.067c.434-.166.907-.243,1.319-.448a.957.957,0,0,0,.453-.618c.021-.124-.289-.377-.493-.447A5.329,5.329,0,0,0,85.422,66.419Zm6.309.59A2.688,2.688,0,0,0,90,67.437a.768.768,0,0,0-.279.619.665.665,0,0,0,.39.452c.541.2.945-.149,1.345-.443C91.808,67.805,92.028,67.5,91.731,67.009Z"/><path class="cls-8" d="M34.858,23.547S32.971,32.335,33.489,34.5s.6,7.613,8.908,9.744,11.875-6.4,12.526-7.36,3.608-8.12,3.608-8.12a14.018,14.018,0,0,0-7.237-4.8C46.564,22.684,37.5,22.554,37.5,22.554Z"/><path class="cls-13" d="M33.7,19.749l-.71,5.281s7.746-2.325,11.963-1.246,9.15,2.564,9.352,2.987a45.172,45.172,0,0,0,3.236,3.257l1.135.123S60.936,27.1,60.936,25.4s.85-10.349-5.539-13.038S46.1,9.7,43.783,10.291,35.524,13.147,33.7,19.749Z"/><path class="cls-8" d="M47.216,20.591s1.73-4.725,5.589-3.755,3.384,6.948,3.384,6.948Z"/><path class="cls-9" d="M37.5,47.313l-5.971.313S28.7,64.417,28.246,69.151s-.657,17.356-1.814,19.187A23.709,23.709,0,0,0,24.754,91.4a19.5,19.5,0,0,1,4.722,0c3.119.289,5.387.019,7.71.283s2.389,1.4,6.53.583,8.188-1.853,11.926-1.445a38.589,38.589,0,0,0,5.817.286S59.51,77.315,58.8,74.6,57.317,60.9,56.9,58.608a19.561,19.561,0,0,1,.416-6.019,6.07,6.07,0,0,0-4.472-4.467,32.222,32.222,0,0,0-5.409-.809,2.468,2.468,0,0,1-2.553,2.573,14.292,14.292,0,0,1-6.667-1.523Z"/><path class="cls-9" d="M31.483,54.849s-1.7,8.67-1.628,9.128-1.04,3.97.462,4.652,1.23,1.5,1.554,1.954,4.5,1.551,4.5,1.551.446.515-2.208,3.7a17.932,17.932,0,0,0-3.447,6.156s-2.8,1.443-5.126-1.809-6.039-8.175-4.28-12.349,1.989-8.214,3.827-11.682c2.2-4.143,4.367-8.71,5.89-8.544C32.627,47.779,31.483,54.849,31.483,54.849Z"/><path class="cls-14" d="M39.478,71.13V65.083s8.055,2.267,9.053,2.027a34.807,34.807,0,0,0,5.166-.793c2.469-.717,6.479-1.865,6.479-1.865l-1.645,5.816s.217.855.656,2.393-1.79,1.895-1.36,2.5,2.079.822,1.93,1.192-1.019,2.1-.894,2.883,2.913,3.077,2.913,3.077-6.142.923-7.12.9-3.093,2.977-9.94,1.683a26.266,26.266,0,0,0-4.616-.484Z"/><path class="cls-15" d="M39.96,64.357a29.138,29.138,0,0,1,6.005-.455,43.937,43.937,0,0,1,4.742.32c.49.014,3.9-.6,4.6-.592a31.972,31.972,0,0,0,3.5-.62h2.439l-1.061,1.442L48.439,67.831l-8.961-2.748A.624.624,0,0,1,39.96,64.357Z"/><path class="cls-8" d="M35.107,72.954a18.185,18.185,0,0,1,2.971-.822,22.4,22.4,0,0,0,3.632,0c1.294-.254,2.006-.667,2.071-.007s-1.553,2.815-2.265,3.031.628,1.254,1.52,1.123,4.891-.366,4.889.788-3.443,3.606-4.7,4.127-5.529-.01-6.241-.176a50.461,50.461,0,0,1-4.71-2.492l2.833-5.312Z"/><path class="cls-16" d="M51.29,31.332a2.48,2.48,0,0,0,1.4,2.993c.943.462,2.116-.237,2.62-1.561s.149-2.771-.794-3.233S51.794,30.008,51.29,31.332Z"/><ellipse class="cls-12" cx="53.807" cy="33.113" rx="1.623" ry="1.143" transform="translate(7.445 76.033) rotate(-74.401)"/><path class="cls-16" d="M39.056,28.056a2.637,2.637,0,0,0,1.44,3.128c.962.477,2.154-.235,2.663-1.591s.141-2.843-.821-3.32S39.564,26.7,39.056,28.056Z"/><ellipse class="cls-12" cx="41.634" cy="29.944" rx="1.661" ry="1.167" transform="translate(2.07 62.575) rotate(-75.238)"/><path class="cls-17" d="M46.715,35.865c-.011.058.082.016.094-.042a1.278,1.278,0,0,0-.8-1.411,1.517,1.517,0,0,0-1.509.469"/><path class="cls-17" d="M49.862,37.571a6.981,6.981,0,0,1-5.755.86,8.856,8.856,0,0,1-4.975-4.526"/><path class="cls-13" d="M32.985,20.059l-.3,5.322.737,1.359s1.6-2.274,2.761-2.5,8.185-.575,8.185-.575l7.34,2.045s2.59-2.075,1.5-2.981-2-1.355-6-2.136C41.453,19.467,33.773,18.492,32.985,20.059Z"/><path class="cls-17" d="M49.506,25.345a7.23,7.23,0,0,1-.673,4.784"/><path class="cls-17" d="M48.345,24.762a9.188,9.188,0,0,1-.126,4.21"/><path class="cls-17" d="M47.016,24.755a6.128,6.128,0,0,1-.462,2.844"/><path class="cls-17" d="M45.541,24.173a9.7,9.7,0,0,1-.6,2.78"/><path class="cls-17" d="M50.706,25.726a3.48,3.48,0,0,1-.192,1.554"/><path class="cls-17" d="M43.937,23.786a4.307,4.307,0,0,1-.568,1.927"/><path class="cls-7" d="M133.247,148c0,.751-5.118,1.36-7.723,1.36s-4.715-.609-4.715-1.36,2.111-1.359,4.715-1.359S133.247,147.249,133.247,148Z"/><ellipse class="cls-7" cx="140.616" cy="142.342" rx="2.939" ry="0.669"/><path class="cls-7" d="M102.361,147.287c0,.6-2.145,1.795-3.494,1.795S96.425,148.6,96.425,148s1.093-1.083,2.442-1.083S102.361,146.689,102.361,147.287Z"/><path class="cls-7" d="M82.619,142.113c0,.512-2.621,1.155-4.337,1.155s-3.107-.414-3.107-.926,1.391-.926,3.107-.926S82.619,141.6,82.619,142.113Z"/><path class="cls-17" d="M40.737,37.324a4.936,4.936,0,0,0,6.4,2.362"/></svg>