<svg id="word" xmlns="http://www.w3.org/2000/svg" viewBox="0 0 160 160"><defs><style>.cls-1{fill:#fde1d3;}.cls-1,.cls-10,.cls-11,.cls-12,.cls-13,.cls-14,.cls-15,.cls-16,.cls-17,.cls-18,.cls-19,.cls-2,.cls-20,.cls-21,.cls-22,.cls-23,.cls-25,.cls-26,.cls-3,.cls-4,.cls-5,.cls-6,.cls-7,.cls-8,.cls-9{stroke:#9d4b9c;stroke-width:0.75px;}.cls-2{fill:#b5a48f;}.cls-3{fill:#efd1c2;}.cls-4{fill:#85878a;}.cls-5{fill:#d5df45;}.cls-6{fill:#2a9965;}.cls-7{fill:#fcbb52;}.cls-8{fill:#c7822b;}.cls-9{fill:#c7c8ad;}.cls-10{fill:#c1b49a;}.cls-11{fill:#8f6226;}.cls-12{fill:#dddebf;}.cls-13{fill:#d83a31;}.cls-14{fill:#a83f23;}.cls-15{fill:#be492b;}.cls-16{fill:#ab4240;}.cls-17{fill:#f16f62;opacity:0.41;}.cls-18{fill:#5e5f61;}.cls-19,.cls-23{fill:none;}.cls-20{fill:#4d6c56;}.cls-21{fill:#fff;}.cls-22{fill:#f89e2a;}.cls-23{stroke-linecap:round;}.cls-24{fill:#9d4b9c;}.cls-25{fill:#a87c4f;}.cls-26{fill:#4e4f51;}</style></defs><path class="cls-1" d="M104.809,35.894s3.71-.143,2.854,3.425-3,4.139-3,4.139h-1.285"/><path class="cls-1" d="M79.392,35.609s-3.71-.143-2.854,3.425,3,4.138,3,4.138h1.284"/><path class="cls-2" d="M82.53,89.246s-1.941,4.305-1.688,6.163a48.97,48.97,0,0,0,2.363,8.1c.544,1.328,3.461,3.8.929,4.389s-1.688.591-2.026,1.267-2.448,1.1-2.532,1.857-1.267-.76-.844,1.941a15.119,15.119,0,0,1,.337,3.208L83.8,123.1s4.3-3.292,5.993-4.389a13.291,13.291,0,0,0,4.052-4.9,10.189,10.189,0,0,0,1.351-5.993,30.618,30.618,0,0,1,.675-6.753l.422-3.208s2.11,1.942,2.026,2.786,2.2,4.558,2.786,4.9,2.448,1.941,2.194,2.532-1.013,1.942-1.435,2.955a15.966,15.966,0,0,0-.337,4.9c.084,1.012.168,5.317.168,5.317l8.526-4.3a15.35,15.35,0,0,0,1.435-4.305c.253-2.025.675-7.934.675-10.045s-1.519-7.343-1.519-7.934-3.292-7.85-3.292-7.85"/><path class="cls-3" d="M69.594,70.134s-3.883-4.221-5.909-4.727-3.376,1.181-1.519,2.87,4.9,4.051,4.9,4.051Z"/><path class="cls-4" d="M100.826,118.248s.341,1.463,1.69,6.641c.46,1.768-.508,5.008-.508,5.683a26.845,26.845,0,0,0,1.258,3.911s1.106-2.9,2.456-6.105,5.234-6.078,5.234-6.078l.844-9.454s-5.065,3.039-6.753,3.376A16.031,16.031,0,0,0,100.826,118.248Z"/><path class="cls-5" d="M89.515,52.013a3.414,3.414,0,0,0,2.588,3.6c2.928.9,4.5-2.589,4.5-2.589l.676,3.49,3.151,1.125,9.7,35.657s-17.8,6.886-20.954,5.985a70.445,70.445,0,0,0-8.928-1.511s.385-8.193,1.1-10.805C83,80.923,85.87,76.788,86.025,73.173c.227-5.177-.675-16.207-.675-16.207l2.869-3.131Z"/><path class="cls-6" d="M88.219,53.835a13.069,13.069,0,0,0-6.246,1.78C77.7,58.091,75.238,65.841,72.8,68.277c-1.673,1.67-5.213-.555-5.213-.555a22.1,22.1,0,0,0,.823,7.476c1.169,4.175,5.71,1.629,8.441,1.013A5.984,5.984,0,0,0,80.342,73c0-.5,3.871-9.151,3.871-9.151s.174,2.687-1.738,8.568c-1.074,3.3-1.087,6.236-2.589,10.243a5.751,5.751,0,0,0,1.013,6.3s-3.381,4.421,1.462,4.754a28.793,28.793,0,0,0,8.78-.927c.5,0,3.088,5.625,2.922-.553s-.5-13.859-.333-18.367-1.238-13.156-1.238-13.156-3.6-.036-4.773-2.708A3.582,3.582,0,0,1,88.219,53.835Z"/><path class="cls-6" d="M97.055,55.165s-.112,5.4-3.6,5.74c-1.474.143,2.948,6.474,2.7,11.255-.225,4.4-.186,17.786,1.485,19.956s4.389.169,4.389.169l7.26-1.35s1.586.965-.085-3.208a95.585,95.585,0,0,1-3.119-9.847l-1.827-8.422s3.49,8.891,4.841,11.143a2.441,2.441,0,0,0,3.488.9s-.154-6.962,1.181-8.965-1.671.667-3.174-2.171-4.174-5.511-4.675-8.516.169-4.843-2.671-5.845A18.812,18.812,0,0,0,97.055,55.165Z"/><path class="cls-4" d="M103.266,134.483s-1.411-2.821,1.588-5.644c1.466-1.379,2.2-5.749,2.278-7.7s3.721-7.434,7.707-7.62c10.8-.506,6.077,10.8,6.077,10.8l-2.163-2.093-13.883,13.8Z"/><path class="cls-7" d="M70.607,79.757a137.174,137.174,0,0,1-1.688,14.687c-1.057,5.433-2.195,10.467-2.195,10.467s-3.58-1.627-4.112-3.269,1.548-6.683,1.548-6.683L67.4,77.224S70.682,75.97,70.607,79.757Z"/><path class="cls-8" d="M29.311,90.689S27,94.2,31.866,100.436s15.005,12.422,21.969,13.544,9.8.951,12.863-1.888,2.266-10.9-5.052-17.475C54.753,88.429,31.411,78.484,29.311,90.689Z"/><path class="cls-9" d="M36.236,96.416S29.071,94.15,30.825,91.5s6.428-2.723,8.141-2.994,4.321,2.975,5.377,5.035,1.65,4.868.371,5.389S36.236,96.416,36.236,96.416Z"/><path class="cls-10" d="M55.766,106.9s1.962-4.882,3.788-4.365,5.426,4.684,4.246,7.263-1.083,4.872-3.952,4.775a28.178,28.178,0,0,1-6.493-1.3Z"/><path class="cls-11" d="M45.694,92.43s5.688-3.426,8.913.85.442,7.631.442,7.631-3.267,2.977-5.42.913S40.758,91.686,45.694,92.43Z"/><path class="cls-12" d="M33.584,100.146s.713-4.767,2.557-5.735,2.258-2.728,3.7-.622.247,8.531.247,8.531-3.524,1.812-4.762.006A10.74,10.74,0,0,0,33.584,100.146Z"/><path class="cls-13" d="M30.693,93.132s-.022-1.753,2.68-1.248,3.821.624,5.363-.137,2.107-1.445,3.208.158,2.785,6.645,2.785,6.645A7.606,7.606,0,0,0,47.1,94.268c.4-2.636,1-4.069-2.983-7.084s-9.985-1.72-12.381.808S29.38,90.79,30.693,93.132Z"/><path class="cls-14" d="M51.968,100.072s6.986-5.692,12.919.5a7.318,7.318,0,0,1,.577,10.149C63.8,112.6,62.612,114.3,62.13,113.6s.624-3.82-.038-5.432a5.911,5.911,0,0,0-4.772-3.951C54.205,103.553,51.968,100.072,51.968,100.072Z"/><path class="cls-15" d="M35.843,102.578s5.188-9.343,13.757-2.946a18.688,18.688,0,0,1,7.612,14.541s-9.043-.286-13.306-3.7A68.873,68.873,0,0,1,35.843,102.578Z"/><path class="cls-7" d="M26.942,90.531a8.139,8.139,0,0,0,.09,3.932c.6,1.948,1.432,1.229.913,2.62s-2.576,6.78-.863,11.648,7.03,8.746,13.857,12.03,13.1,3.4,16.318,2.08a12.668,12.668,0,0,0,6.408-5.278c.954-1.834,4.019-2.314,4.543-3.7a12.347,12.347,0,0,0,1.2-5.55c-.2-2.222-2.068-6.067-2.068-6.067s2.593,9.225-5.215,11.359c-5.67,1.548-18.4-4.043-22.772-7.831s-14.1-11.94-7.175-19.555C32.309,86.081,27.742,87.181,26.942,90.531Z"/><path class="cls-7" d="M61.713,68.932a18.2,18.2,0,0,0-9.17,1.708c-13,5.909-18.908,19.077-18.908,19.077s-3.952,7.826-3.055,11.149c1.724,6.4,10.261-11.31,11.262-12.519S48.322,74.354,59.214,73.7a58.421,58.421,0,0,1,7.03.32S69.467,69.623,61.713,68.932Z"/><path class="cls-9" d="M49.533,88.959s-1.381,4.015-1.96,5.173c-.221.448-2.115,3.495-2.115,3.495a7.718,7.718,0,0,1,2.9,1.32,6.844,6.844,0,0,0,2.283,1.272s.219-3.463.611-5.743A16.151,16.151,0,0,1,52.6,90.329S52.51,88.664,49.533,88.959Z"/><path class="cls-16" d="M46.655,90.886s3.45-2.12,5.1-.989,2.826,2.837,3.74,3.465,1.4.106,1.568-.359a8.286,8.286,0,0,0-.033-6.172c-1.3-2.866-4.357-3.148-6.642-3.139C45.841,83.715,42.353,88.6,46.655,90.886Z"/><path class="cls-17" d="M52.268,85.087c.06.306-.786.725-1.891.94s-2.046.141-2.105-.165.785-.725,1.891-.939S52.211,84.781,52.268,85.087Z"/><path class="cls-18" d="M104.792,137.285c-.275-.184-2.417-2.261-.857-4.68s2.727-2.183,4.288-6.394,3.314-7.7,5.694-9.048c3.454-1.953,6.659-1.074,7.675,2.436s-.734,6.844-3.853,9.574-3.2,3.432-3.2,3.432l-2.1-.467s2.259.391.857,1.87S108.535,139.781,104.792,137.285Z"/><path class="cls-3" d="M114.448,73.335a4.514,4.514,0,0,0,1.684-.216,24.107,24.107,0,0,1,3.5-1.153,24.339,24.339,0,0,0,2.995-.578c.748-.216,3.745-1.656,3.618-.575a1.629,1.629,0,0,1-1.06,1.368s1.935-.72,2.622.432-2.872,1.442-2.872,1.442,3.558-.794,3.558.936-3,1.73-3,1.73,2.87.36,1.685,1.729-3,.649-4.431.649-4.992-.649-5.868.936-1.435,4.54-2.681,5.26-1.935,1.3-2.935.433c-.8-.7.314-1.658.689-2.163a2.733,2.733,0,0,0,.686-2.739c-.438-1.44-1.311-4.1-1.311-4.1a5.59,5.59,0,0,1,1.685-2.811C113.923,73.161,114.448,73.335,114.448,73.335Z"/><path class="cls-19" d="M125.494,76.721c-1.681-.081-4.918-.887-5.928.5"/><path class="cls-19" d="M124.994,74.055a5.792,5.792,0,0,0-3.431.36"/><path class="cls-19" d="M125.12,72.181a9.61,9.61,0,0,0-3,.505"/><path class="cls-4" d="M78.724,113.363s-2.063,3.965-3.453,4.921-5.482,3.857-5.746,6.146c-.412,3.6-2.142,2.844-1.34,4.235a77.636,77.636,0,0,0,5.09,6.168s.914-1.42,1.873-.029a13.112,13.112,0,0,0,3.177,3.7c2.376,2.147,8.141,1.437,8.141,1.437s2.919-3.012,1-5.947-3.637-1.445-5.2-3.045c-2.855-2.921.627-6.449,1.864-7.093s4.029-2.8,3.714-2.954C84.136,119.112,78.724,113.363,78.724,113.363Z"/><path class="cls-3" d="M66.218,68.952s-5.572,4.221-3.377,6.584,3.266-2.886,3.938-3.714C67.513,70.921,68.13,69.233,66.218,68.952Z"/><path class="cls-3" d="M68.075,71.147s-3.883,2.87-3.039,4.9,2.026,1.576,2.195.563S72.3,71.2,68.075,71.147Z"/><path class="cls-3" d="M69.932,73.848s-3.714,2.026-3.039,4.558,3.151-1.294,3.657-1.969S73.7,72.892,69.932,73.848Z"/><path class="cls-3" d="M71.451,75.874s-3.714,2.532-3.039,4.052S76.516,75.03,71.451,75.874Z"/><path class="cls-20" d="M78.732,80.383a8.428,8.428,0,0,0,5.486,1.435,9.022,9.022,0,0,1,5.234.929s-.422,8.1-1.6,8.357-7.681.928-8.526-1.1S78.309,80.3,78.309,80.3Z"/><path class="cls-20" d="M99.159,82.747s-.422,7.344,2.364,7.766,8.778-1.435,8.778-1.435L108.107,81.4Z"/><path class="cls-20" d="M80.251,79.117s-2.617-.76-3.63.338a11.287,11.287,0,0,1-2.11,1.772,4.568,4.568,0,0,1,1.941,1.182c1.1,1.013,6.669,1.1,8.273,1.435S85.653,82.831,89.2,83,80.251,79.117,80.251,79.117Z"/><path class="cls-20" d="M99.159,82.747a1.793,1.793,0,0,1,2.279.084,26.306,26.306,0,0,0,3.461,2.533l5.318-1.52s-1.182-3.208-2.11-3.376a35.776,35.776,0,0,0-5.74.591A10.4,10.4,0,0,0,99.159,82.747Z"/><path class="cls-6" d="M78.225,58.436a17.417,17.417,0,0,0,2.87,1.6c.422,0-.253,2.786-.506,3.545s-1.182,4.474-2.617,3.968a31.115,31.115,0,0,1-3.883-1.942Z"/><path class="cls-6" d="M82.192,60.124l-.675,2.7s-2.195-.676-3.292,0-.422.168-1.182-.591a6.192,6.192,0,0,0-1.435-1.1l2.364-3.123Z"/><path class="cls-1" d="M79.456,35.39s.864,10.591,2.36,13.207,7.794,6.93,9.85,7.191a9.793,9.793,0,0,0,6.941-2.223c2.056-1.7,3.855-3.138,4.755-6.145a20.554,20.554,0,0,0,.771-7.192c0-2.615.007-7.976.007-7.976L80.484,31.6Z"/><path class="cls-21" d="M87.3,37.873s-2.442,1.141-2.056,2.71.514,2.71,2.056,2.567a2.673,2.673,0,0,0,2.571-2.632C89.867,39.157,88.609,36.98,87.3,37.873Z"/><path class="cls-22" d="M78.923,34.969s-3.8-10.336,3.561-14.188c5.425-2.837,7.986-5.285,15.173-2.642s8.385,5.138,8.918,7.855,1.464,8.975,1.464,8.975-11.447-2.226-13.576-2.087S78.923,34.969,78.923,34.969Z"/><path class="cls-23" d="M91.81,45.593a.968.968,0,0,1,.467-.95,1.921,1.921,0,0,1,1.014-.217,2.8,2.8,0,0,1,1.283.235,1.464,1.464,0,0,1,.807,1.07"/><path class="cls-23" d="M88.751,46.753a1.662,1.662,0,0,1,.6.377,6.236,6.236,0,0,0,7.757.108"/><ellipse class="cls-24" cx="87.282" cy="41.602" rx="1.468" ry="1.56"/><path class="cls-24" d="M91.047,17.463s-.263.09-.675.279a8.157,8.157,0,0,0-1.626,1.007,8.256,8.256,0,0,0-1.817,2.021,11.173,11.173,0,0,0-1.287,2.889,25.112,25.112,0,0,0-.8,5.958c-.076,1.652-.126,2.752-.126,2.752s0-1.1.009-2.754a25.333,25.333,0,0,1,.556-6.054A11.6,11.6,0,0,1,86.492,20.5a8.807,8.807,0,0,1,3.563-3.4c.456-.233.711-.33.711-.33Z"/><path class="cls-24" d="M92.865,16.505s.239.121.673.381a13.88,13.88,0,0,1,1.687,1.188,19.045,19.045,0,0,1,4.028,4.669,9.483,9.483,0,0,1,1.293,3.03c.236,1.025.357,1.99.487,2.812.251,1.647.418,2.745.418,2.745s-.214-1.09-.534-2.725c-.164-.817-.326-1.778-.6-2.773a9.193,9.193,0,0,0-1.378-2.885,18.547,18.547,0,0,0-4.1-4.374,13.28,13.28,0,0,0-1.647-1.06c-.409-.224-.671-.343-.671-.343Z"/><path class="cls-25" d="M89.2,17.082s.114-1.313,2.124-1.313a2.819,2.819,0,0,1,2.642,1.3l-4.709.278S88.54,17.647,89.2,17.082Z"/><path class="cls-21" d="M99.141,37.445s-2.442,1.141-2.056,2.71.514,2.71,2.056,2.567a2.673,2.673,0,0,0,2.571-2.632C101.712,38.729,100.454,36.552,99.141,37.445Z"/><ellipse class="cls-24" cx="99.127" cy="41.174" rx="1.468" ry="1.56"/><path class="cls-26" d="M78.209,34.683s14.6-3.356,19.735-4.5,10.561-3.711,13.986-1,.142,6.85.142,6.85l-7.991-.143a51.333,51.333,0,0,0-10.989-1.855c-5.137-.143-14.271,1.712-14.271,1.712l-.079-.646"/></svg>