<svg id="word" xmlns="http://www.w3.org/2000/svg" xmlns:xlink="http://www.w3.org/1999/xlink" viewBox="0 0 160 160"><defs><style>.cls-1,.cls-16,.cls-3{fill:none;}.cls-2{fill:#d5ccb1;}.cls-2,.cls-3{stroke:#9b4b9c;}.cls-13,.cls-16,.cls-18,.cls-19,.cls-2,.cls-3,.cls-4{stroke-miterlimit:10;}.cls-13,.cls-2,.cls-4{stroke-width:0.911px;}.cls-3{stroke-linecap:round;stroke-width:1.821px;}.cls-4{fill:#f38a9b;}.cls-13,.cls-16,.cls-4{stroke:#9b4d9c;}.cls-5{fill:#d45098;}.cls-6{fill:#44445a;}.cls-7{fill:#eb4a95;}.cls-8{fill:#d1de51;}.cls-9{fill:#fdcd89;}.cls-10{fill:#ed579a;}.cls-11{fill:#eb7aab;}.cls-12{fill:#454994;}.cls-13{fill:#fcf178;}.cls-14{fill:#9b4d9c;}.cls-15{fill:#9b4b9c;}.cls-16{stroke-width:0.722px;}.cls-17{clip-path:url(#clip-path);}.cls-18{fill:#d8801a;}.cls-18,.cls-19{stroke:#9d4b9c;stroke-width:1.355px;}.cls-19{fill:#fcc136;}</style><clipPath id="clip-path"><rect class="cls-1" x="224.5" y="13.5" width="132" height="132"/></clipPath></defs><path class="cls-2" d="M47.905,55.84a154.871,154.871,0,0,0,18.01-6.919c7.736-3.736,7.549-5.6,12.957-6.143s7.845,2.309,10.818,3.9,17.157,8.276,18.956,9.711,4,5.147,3.346,6.828-5.534.486-8.7-1.35-10.51-7.425-23.345-6.677-22.66,6.6-28.994,6.157S48.776,56.384,47.905,55.84Z"/><path class="cls-3" d="M73.846,28.077s-4.112-6.1,3.117-7.756c7.432-1.7,8.531,3.775,8.2,6.679S79.9,34.063,79.37,36.561a55.333,55.333,0,0,0-.776,6.245"/><path class="cls-4" d="M33.411,79.678s7.731-6.7,8.762-9.793,2.577-12.371,5.67-14.175,13.531-5.925,13.531-5.925,6.25,13.2,18.027,13c15.35-.257,15.4-13.989,15.4-13.989s10.513,1.5,15.152,7.432S129.94,82.813,129.94,82.813s-15.089,7.947-15.605,8.978-4.123,2.062-4.123,2.062l-2.578-5.928s1.031,16.494,5.413,29.381a83.83,83.83,0,0,1,4.466,23.707,102.033,102.033,0,0,1-23.28,5.931c-13.4,1.8-24.226-2.319-31.7-2.319A60.464,60.464,0,0,0,50.37,145.69s-.981-25.034.823-30.7,2.578-24.741,2.578-24.741L49.905,95.4s-10.567-5.412-14.433-7.731a14.175,14.175,0,0,1-5.412-6.7Z"/><path class="cls-5" d="M81.74,94.176a1.83,1.83,0,0,1-.69-1,4.863,4.863,0,0,1,.038-2.822,1.579,1.579,0,0,1,1.583-1.024,4.038,4.038,0,0,1,2.6.819,1.9,1.9,0,0,1,.735,1.178c.028.112.059.223.089.337.252-.015.49-.026.728-.045a5.393,5.393,0,0,1,1.812.207c.068.018.157.067.2.045.344-.168.57.007.8.194a.7.7,0,0,0,.22.118,2.882,2.882,0,0,1,1.527,1.273,1.4,1.4,0,0,0,.163.179c.3-.166.587-.337.886-.48.237-.113.5-.19.742-.285a.992.992,0,0,1,.789.053A3.125,3.125,0,0,1,95.7,94.806a2.3,2.3,0,0,1-1.643,2.68,3.85,3.85,0,0,1-1.416.215,5.214,5.214,0,0,1-.912,2.683,7.752,7.752,0,0,1-2.174,1.957L90.3,104.1a5.2,5.2,0,0,0,.7-.368,4.981,4.981,0,0,1,1.319-.669c.2-.067.411-.085.614-.137.431-.111.858-.238,1.292-.344s.844-.215,1.275-.277a2.469,2.469,0,0,1,1.992.468,1.932,1.932,0,0,1,.451.758,1.407,1.407,0,0,1-.169,1.392,4.678,4.678,0,0,1-1.87,1.787c-.491.275-.986.548-1.5.792a8.2,8.2,0,0,1-2.386.68c-.475.068-.946.158-1.444.243a8.041,8.041,0,0,1-2.474,5.164,10.1,10.1,0,0,1,.8,1.98,17.218,17.218,0,0,1,.661,4.607,3,3,0,0,1-.479,1.648,4.893,4.893,0,0,1-.3.461,1.453,1.453,0,0,1-.671.513,2.768,2.768,0,0,1-1.722.289A2.857,2.857,0,0,1,84.111,121c-.112-.434-.252-.862-.4-1.288a7.1,7.1,0,0,1-.389-2.064c-.019-.571-.075-1.142-.117-1.753a7.8,7.8,0,0,1-5.263-1.8,3.538,3.538,0,0,0-.361.272c-.3.286-.561.6-.876.869a11.232,11.232,0,0,1-2.256,1.8,2.454,2.454,0,0,0-.457.342,5.856,5.856,0,0,1-2.746,1.055,3.555,3.555,0,0,1-1.567.018,3.108,3.108,0,0,1-1.369-.744.991.991,0,0,1-.307-.953,8.652,8.652,0,0,1,.329-1.169,7.751,7.751,0,0,1,.408-1.068,3.275,3.275,0,0,1,.529-.732c.515-.557,1.027-1.12,1.592-1.634a15.092,15.092,0,0,1,1.345-.991c.044-.032.1-.052.143-.084a7.334,7.334,0,0,1,2.925-1.232c-.039-.605-.115-1.209-.105-1.811a5.139,5.139,0,0,1,.413-1.781c.224-.57.5-1.122.775-1.717-.208-.137-.433-.311-.685-.445a5.439,5.439,0,0,1-1.35-1.027,6.445,6.445,0,0,1-1.558-2.766,7.036,7.036,0,0,0-.228-.694,1.992,1.992,0,0,1,.067-1.6,4.618,4.618,0,0,1,.593-1.258.882.882,0,0,1,.467-.314,3.511,3.511,0,0,1,2.52.2,8.784,8.784,0,0,1,1.995,1.082c.4.359.806.721,1.183,1.1.319.323.6.672.9,1.015a3.484,3.484,0,0,1,.624,1.254l1.209-.43a5.637,5.637,0,0,1-.868-3.189A6.9,6.9,0,0,1,81.74,94.176ZM83.892,115.2a6.067,6.067,0,0,0,2.3-.832,8.475,8.475,0,0,0,1.821-1.548,7.478,7.478,0,0,0,1.419-2.116,4.887,4.887,0,0,0,.537-2.024c0-.178-.157-.364-.129-.531s.268-.285.251-.505a3.988,3.988,0,0,1,.044-.417,4.239,4.239,0,0,0-.042-1.481,14.754,14.754,0,0,1-.429-1.513,4.855,4.855,0,0,0-.827-1.664c-.311.037-.578.08-.846.1a6.771,6.771,0,0,1-1.229.043,16.975,16.975,0,0,1-2.007-.376A3.8,3.8,0,0,1,83,101.508a1.01,1.01,0,0,0-1.18-.209c-.145.052-.291.1-.438.15s-.294.081-.3.275c0,.046-.189.146-.257.127a.63.63,0,0,0-.551.137c-.389.254-.756.534-1.132.8-.133.1-.267.184-.152.376.025.041-.08.145-.149.259l-.122-.274-.094.107c-.137.158-.255.426-.416.448a.9.9,0,0,0-.562.364c-.306.321-.609.644-.918.963a2.392,2.392,0,0,0-.427.739,9.111,9.111,0,0,0-.418,1.352,5.048,5.048,0,0,0-.123,1.706,6.246,6.246,0,0,0,.3,1.847c.145.357.351.695.5,1.051a4.861,4.861,0,0,0,1.221,1.541.178.178,0,0,0,.106.047.648.648,0,0,1,.44.241,4.956,4.956,0,0,0,1.881,1.219,7.229,7.229,0,0,0,2.827.492.373.373,0,0,0,.218-.07C83.547,114.936,83.551,114.933,83.892,115.2Zm-.566-14.549c-.146.3.077.422.3.538s.469.24.714.338a11.182,11.182,0,0,0,2.523.538,5.555,5.555,0,0,0,2.351-.238,1.207,1.207,0,0,0,.329-.169A6.6,6.6,0,0,0,91.674,99.3a1.073,1.073,0,0,0,.11-.248,5.014,5.014,0,0,0-.013-3.155c-.129-.336-.274-.669-.372-1.011a3.148,3.148,0,0,0-2.009-2.22c-.05-.02-.086-.068-.135-.093a5.45,5.45,0,0,0-.587-.294,4.894,4.894,0,0,0-2.149-.19.855.855,0,0,0-.359.176.429.429,0,0,1-.432.09.943.943,0,0,0-.781.041,3.663,3.663,0,0,0-1.189.655,10.511,10.511,0,0,0-1.243,1.141,1.828,1.828,0,0,0-.388.6,6.924,6.924,0,0,0-.3,1.954,13.935,13.935,0,0,0,.154,1.515,4.7,4.7,0,0,0,.417,1.664.972.972,0,0,0,.757.637A1.022,1.022,0,0,1,83.326,100.646ZM77.41,113.7a7.466,7.466,0,0,1-2.116-3.376,9.3,9.3,0,0,0-1.662.482,10.115,10.115,0,0,0-1.728,1.164c-.54.429-1.022.916-1.515,1.389a8.327,8.327,0,0,0-.885.93,4.649,4.649,0,0,0-.97,2.534.748.748,0,0,0,.27.654,2.09,2.09,0,0,0,1.3.517,7.423,7.423,0,0,0,2.258-.355,3.9,3.9,0,0,0,1.432-.718c.131-.1.255-.2.388-.3a13.042,13.042,0,0,0,1.093-.781c.483-.429.918-.9,1.371-1.356C76.887,114.238,77.126,113.989,77.41,113.7Zm-.56-9.648.26-.214c.407-.336.828-.659,1.217-1.01a7.043,7.043,0,0,1,1.65-1.2c.148-.071.282-.166.429-.254-.054-.172-.1-.33-.154-.486a4.328,4.328,0,0,0-1.128-1.633,11.293,11.293,0,0,0-2.144-1.794,4.556,4.556,0,0,0-2.526-.671,1.092,1.092,0,0,0-.933.452,2.666,2.666,0,0,0-.435,2.226,5.988,5.988,0,0,0,.245.806c.159.39.361.766.527,1.154a4.022,4.022,0,0,0,1.67,1.833C75.957,103.525,76.4,103.778,76.85,104.049ZM87.6,114.069a6.74,6.74,0,0,1-3.839,1.736c.076.884.085,1.728.235,2.551.157.861.442,1.7.682,2.551a2.227,2.227,0,0,0,1.88,1.631A1.925,1.925,0,0,0,88.375,122a2.248,2.248,0,0,0,.632-1.394,8.14,8.14,0,0,0,.006-1.405c-.1-.9-.217-1.8-.388-2.688A6.268,6.268,0,0,0,87.6,114.069Zm3.1-6.175c.132-.025.226-.041.319-.062a5.264,5.264,0,0,1,.744-.163,5.8,5.8,0,0,0,1.525-.277,8.862,8.862,0,0,0,3.44-1.964,3.153,3.153,0,0,0,.693-1.036,1.148,1.148,0,0,0-.5-1.338,1.76,1.76,0,0,0-1.305-.208,16.7,16.7,0,0,0-2.591.561,9.963,9.963,0,0,0-2.365,1.108.357.357,0,0,0-.186.457,4.894,4.894,0,0,1,.231,2.147A5.769,5.769,0,0,0,90.7,107.894ZM85.415,91.78a1.229,1.229,0,0,0-.263-.872,2.8,2.8,0,0,0-1.681-1.031,1.511,1.511,0,0,0-2,1.381,6.51,6.51,0,0,0,.012,1.108,2.223,2.223,0,0,0,.357,1.163c.173.242.363.251.572.037.037-.039.067-.083.1-.122a4.8,4.8,0,0,1,2.491-1.53A4.09,4.09,0,0,0,85.415,91.78Zm7.246,5.24a1.505,1.505,0,0,0,1.162,0,1.772,1.772,0,0,0,1.273-2.26,2.577,2.577,0,0,0-1.075-1.285.924.924,0,0,0-.985-.053c-.366.192-.721.4-1.083.6-.134.074-.13.168-.089.294A16.135,16.135,0,0,1,92.661,97.02Z"/><path class="cls-6" d="M65.873,101.443c.144-.277.252-.51.383-.732a6.127,6.127,0,0,1,.468-.721,1.176,1.176,0,0,1,1.149-.45,1.8,1.8,0,0,1,1.069.3.753.753,0,0,1,.3.523,6.509,6.509,0,0,1-.125,1.743,9.071,9.071,0,0,1-1.327,2.9,5.8,5.8,0,0,0-.881,2.206.378.378,0,0,1-.286.341.516.516,0,0,1-.37-.126c-.08-.07-.087-.206-.124-.308a4.756,4.756,0,0,1-1.982-1.413,9.573,9.573,0,0,1-1.46-2.147c-.123-.284-.232-.574-.328-.866a2.664,2.664,0,0,1,.257-2.006,2.23,2.23,0,0,1,.386-.583,1.3,1.3,0,0,1,1.473-.247,2.368,2.368,0,0,1,1.079,1.041C65.652,101.062,65.743,101.221,65.873,101.443Zm-.043,1.249c-.172-.377-.323-.761-.519-1.125a3.2,3.2,0,0,0-.844-1.091.882.882,0,0,0-.895-.094,1.75,1.75,0,0,0-.6.94,2.3,2.3,0,0,0,0,1.385,6.277,6.277,0,0,0,.334.94,11.486,11.486,0,0,0,1.336,1.851,4.1,4.1,0,0,0,1.641,1.143,1.059,1.059,0,0,0,.118-.207,6.442,6.442,0,0,1,.686-1.418c.269-.454.574-.9.849-1.352a5.716,5.716,0,0,0,.736-3.132.462.462,0,0,0-.345-.438,1.124,1.124,0,0,0-1.405.514c-.073.152-.165.3-.243.447a2.262,2.262,0,0,0-.32,1.237C66.4,102.693,66.3,102.774,65.83,102.692Z"/><path class="cls-6" d="M75.458,89.266a7.446,7.446,0,0,1,.376-1.033,5.472,5.472,0,0,1,.7-.991,1.079,1.079,0,0,1,1.688.11,3.218,3.218,0,0,1,.461,1.209,2.936,2.936,0,0,1-.246,1.627c-.137.345-.181.721-.335,1.059-.3.665-.687,1.3-.965,1.972-.113.275-.414.533-.207.892l-.475.211c-.031-.012-.07-.015-.081-.032a.92.92,0,0,0-.757-.4,1.544,1.544,0,0,1-.954-.46,18.171,18.171,0,0,1-2.712-3.278,2.086,2.086,0,0,1,.3-2.441,1.445,1.445,0,0,1,2.265.124,4.131,4.131,0,0,1,.877,1.335A.405.405,0,0,0,75.458,89.266Zm.843,4.342c.145-.316.251-.607.408-.875a15.17,15.17,0,0,0,1.223-2.549,2.846,2.846,0,0,0-.028-2.3c-.112-.23-.223-.462-.525-.5s-.462.208-.65.374a.23.23,0,0,0-.021.033,2.736,2.736,0,0,0-.649,1.932,5.592,5.592,0,0,1,0,.685.284.284,0,0,1-.274.292.456.456,0,0,1-.3-.166A1.326,1.326,0,0,1,75.3,90.2a7.3,7.3,0,0,0-1.046-1.871,4.925,4.925,0,0,0-.536-.49.54.54,0,0,0-.6-.062,1.488,1.488,0,0,0-.547.456,1.732,1.732,0,0,0,.011,1.964,11.022,11.022,0,0,0,.83,1.148A12.689,12.689,0,0,0,75.2,93.231,2.64,2.64,0,0,0,76.3,93.608Z"/><path class="cls-7" d="M91.865,113.279c.26-.128.487-.252.726-.354a1.3,1.3,0,0,0,.649-.582c.132-.229.44-.377.671-.56.329-.261.656-.525.99-.781a1.022,1.022,0,0,1,.318-.18c.621-.178,1.246-.345,1.871-.513a1.15,1.15,0,0,1,.786.044c.443.2.56.457.372.874A4.34,4.34,0,0,1,97,112.936a6.917,6.917,0,0,1,1.015.362,1.7,1.7,0,0,1,1.055,1.58,1.476,1.476,0,0,1-1.791,1.327,6.178,6.178,0,0,1-1.166-.219,4.425,4.425,0,0,1-1.579-.861,4.371,4.371,0,0,0-2.118-1.218C91.89,113.8,91.894,113.786,91.865,113.279Z"/><path class="cls-8" d="M83.892,115.2c-.341-.262-.345-.259-.636.005a.373.373,0,0,1-.218.07,7.229,7.229,0,0,1-2.827-.492,4.956,4.956,0,0,1-1.881-1.219.648.648,0,0,0-.44-.241.178.178,0,0,1-.106-.047,4.861,4.861,0,0,1-1.221-1.541c-.148-.356-.354-.694-.5-1.051a6.246,6.246,0,0,1-.3-1.847,5.048,5.048,0,0,1,.123-1.706,9.111,9.111,0,0,1,.418-1.352,2.392,2.392,0,0,1,.427-.739c.309-.319.612-.642.918-.963a.9.9,0,0,1,.562-.364c.161-.022.279-.29.416-.448l.094-.107.122.274c.069-.114.174-.218.149-.259-.115-.192.019-.28.152-.376.376-.27.743-.55,1.132-.8a.63.63,0,0,1,.551-.137c.068.019.257-.081.257-.127,0-.194.145-.227.3-.275s.293-.1.438-.15a1.01,1.01,0,0,1,1.18.209,3.8,3.8,0,0,0,1.756.821,16.975,16.975,0,0,0,2.007.376,6.771,6.771,0,0,0,1.229-.043c.268-.018.535-.061.846-.1a4.855,4.855,0,0,1,.827,1.664,14.754,14.754,0,0,0,.429,1.513,4.239,4.239,0,0,1,.042,1.481,3.988,3.988,0,0,0-.044.417c.017.22-.222.335-.251.505s.126.353.129.531a4.887,4.887,0,0,1-.537,2.024,7.478,7.478,0,0,1-1.419,2.116,8.475,8.475,0,0,1-1.821,1.548A6.067,6.067,0,0,1,83.892,115.2Zm.777-9.115c-.007-.137-.012-.186-.012-.235a5.506,5.506,0,0,0-.139-1.892A1.6,1.6,0,0,0,83,102.724a2.1,2.1,0,0,0-1.48.55,5.7,5.7,0,0,0-1.373,1.635,5.527,5.527,0,0,0-.662,1.792,8.791,8.791,0,0,0,.115,2.968,17.8,17.8,0,0,0,.467,1.817,3.043,3.043,0,0,0,.582,1.138c.278.322.43.344.821.122.227-.13.448-.27.687-.38.568-.262,1.144-.509,1.717-.763a.337.337,0,0,0,.108-.057,8.559,8.559,0,0,1,1.49-.937,19.53,19.53,0,0,0,1.784-1.358,2.275,2.275,0,0,0,.508-.738,8.291,8.291,0,0,0,.454-1.108,1.656,1.656,0,0,0-.358-1.542.687.687,0,0,0-.233-.159,1.9,1.9,0,0,0-1.061-.164A3.1,3.1,0,0,0,84.669,106.08ZM78.105,104.7c-.11-.309-.39-.243-.613-.281A.612.612,0,0,0,78.105,104.7Z"/><path class="cls-8" d="M83.326,100.646a1.022,1.022,0,0,0-.175-.081.972.972,0,0,1-.757-.637,4.7,4.7,0,0,1-.417-1.664,13.935,13.935,0,0,1-.154-1.515,6.924,6.924,0,0,1,.3-1.954,1.828,1.828,0,0,1,.388-.6,10.511,10.511,0,0,1,1.243-1.141,3.663,3.663,0,0,1,1.189-.655.943.943,0,0,1,.781-.041.429.429,0,0,0,.432-.09.855.855,0,0,1,.359-.176,4.894,4.894,0,0,1,2.149.19,5.45,5.45,0,0,1,.587.294c.049.025.085.073.135.093a3.148,3.148,0,0,1,2.009,2.22c.1.342.243.675.372,1.011a5.014,5.014,0,0,1,.013,3.155,1.073,1.073,0,0,1-.11.248,6.6,6.6,0,0,1-2.127,2.351,1.207,1.207,0,0,1-.329.169,5.555,5.555,0,0,1-2.351.238,11.182,11.182,0,0,1-2.523-.538c-.245-.1-.48-.218-.714-.338S83.18,100.942,83.326,100.646Zm7.21-1.743c-.242-.232-.332-.267-.6-.2-.531.136-1.056.3-1.591.416a3.608,3.608,0,0,1-.759.06c-.3,0-.6-.038-.9-.033a2.389,2.389,0,0,1-2-.913A7.534,7.534,0,0,1,83.409,96.1a3,3,0,0,0-.268-.518.251.251,0,0,0-.387-.084.259.259,0,0,0-.069.377c.055.1.172.183.206.287a7.14,7.14,0,0,0,.806,1.67,5.157,5.157,0,0,0,.88,1.112,2.288,2.288,0,0,0,.928.518,9.675,9.675,0,0,0,2.4.27,1.475,1.475,0,0,0,.334-.05c.617-.144,1.232-.3,1.853-.432A.556.556,0,0,0,90.536,98.9Zm-4.445-2.4a6.107,6.107,0,0,0,.113.666.642.642,0,0,0,.207.316,1.684,1.684,0,0,0,1.677.168.757.757,0,0,0,.326-.289.878.878,0,0,0-.467-1.319,2.629,2.629,0,0,0-1.566-.117.18.18,0,0,0-.123.095C86.192,96.19,86.141,96.36,86.091,96.505Zm-1.846-2.8c-.3.171-.317.179-.183.41.142.247.319.477.486.713.456.644,1.2.645,1.925.676a.258.258,0,0,0,.288-.271c0-.175-.11-.276-.31-.3a7.748,7.748,0,0,0-.8-.074.848.848,0,0,1-.781-.479C84.712,94.129,84.594,93.843,84.245,93.7ZM89.136,96.3c.213.237.371.415.531.592a1.507,1.507,0,0,0,2.071.222c-.154-.269-.151-.251-.46-.215a1.308,1.308,0,0,1-1.19-.361c-.147-.161-.318-.3-.484-.462Z"/><path class="cls-9" d="M77.41,113.7c-.284.292-.523.541-.766.785-.453.455-.888.927-1.371,1.356a13.042,13.042,0,0,1-1.093.781c-.133.095-.257.2-.388.3a3.9,3.9,0,0,1-1.432.718,7.423,7.423,0,0,1-2.258.355,2.09,2.09,0,0,1-1.3-.517.748.748,0,0,1-.27-.654,4.649,4.649,0,0,1,.97-2.534,8.327,8.327,0,0,1,.885-.93c.493-.473.975-.96,1.515-1.389a10.115,10.115,0,0,1,1.728-1.164,9.3,9.3,0,0,1,1.662-.482A7.466,7.466,0,0,0,77.41,113.7Z"/><path class="cls-9" d="M76.85,104.049c-.454-.271-.893-.524-1.322-.79a4.022,4.022,0,0,1-1.67-1.833c-.166-.388-.368-.764-.527-1.154a5.988,5.988,0,0,1-.245-.806,2.666,2.666,0,0,1,.435-2.226,1.092,1.092,0,0,1,.933-.452,4.556,4.556,0,0,1,2.526.671,11.293,11.293,0,0,1,2.144,1.794,4.328,4.328,0,0,1,1.128,1.633c.051.156.1.314.154.486-.147.088-.281.183-.429.254a7.043,7.043,0,0,0-1.65,1.2c-.389.351-.81.674-1.217,1.01Zm.539-5.637c.121.151.224.407.359.422.271.028.338.249.541.317.186.063.215.331.5.323A2.392,2.392,0,0,0,77.389,98.412Z"/><path class="cls-9" d="M87.6,114.069a6.268,6.268,0,0,1,1.024,2.448c.171.89.291,1.789.388,2.688a8.14,8.14,0,0,1-.006,1.405A2.248,2.248,0,0,1,88.375,122a1.925,1.925,0,0,1-1.816.534,2.227,2.227,0,0,1-1.88-1.631c-.24-.848-.525-1.69-.682-2.551-.15-.823-.159-1.667-.235-2.551A6.74,6.74,0,0,0,87.6,114.069Z"/><path class="cls-9" d="M90.7,107.894a5.769,5.769,0,0,1,.008-.775,4.894,4.894,0,0,0-.231-2.147.357.357,0,0,1,.186-.457,9.963,9.963,0,0,1,2.365-1.108,16.7,16.7,0,0,1,2.591-.561,1.76,1.76,0,0,1,1.305.208,1.148,1.148,0,0,1,.5,1.338,3.153,3.153,0,0,1-.693,1.036,8.862,8.862,0,0,1-3.44,1.964,5.8,5.8,0,0,1-1.525.277,5.264,5.264,0,0,0-.744.163C90.925,107.853,90.831,107.869,90.7,107.894Z"/><path class="cls-9" d="M85.415,91.78a4.09,4.09,0,0,1-.406.134,4.8,4.8,0,0,0-2.491,1.53c-.037.039-.067.083-.1.122-.209.214-.4.2-.572-.037a2.223,2.223,0,0,1-.357-1.163,6.51,6.51,0,0,1-.012-1.108,1.511,1.511,0,0,1,2-1.381,2.8,2.8,0,0,1,1.681,1.031A1.229,1.229,0,0,1,85.415,91.78Z"/><path class="cls-9" d="M92.661,97.02a16.135,16.135,0,0,0-.8-2.7c-.041-.126-.045-.22.089-.294.362-.2.717-.41,1.083-.6a.924.924,0,0,1,.985.053A2.577,2.577,0,0,1,95.1,94.759a1.772,1.772,0,0,1-1.273,2.26A1.505,1.505,0,0,1,92.661,97.02Z"/><path class="cls-7" d="M65.83,102.692c.465.082.566,0,.53-.4a2.262,2.262,0,0,1,.32-1.237c.078-.151.17-.3.243-.447a1.124,1.124,0,0,1,1.405-.514.462.462,0,0,1,.345.438,5.716,5.716,0,0,1-.736,3.132c-.275.457-.58.9-.849,1.352a6.442,6.442,0,0,0-.686,1.418,1.059,1.059,0,0,1-.118.207,4.1,4.1,0,0,1-1.641-1.143,11.486,11.486,0,0,1-1.336-1.851,6.277,6.277,0,0,1-.334-.94,2.3,2.3,0,0,1,0-1.385,1.75,1.75,0,0,1,.6-.94.882.882,0,0,1,.895.094,3.2,3.2,0,0,1,.844,1.091C65.507,101.931,65.658,102.315,65.83,102.692Z"/><path class="cls-7" d="M76.3,93.608a2.64,2.64,0,0,1-1.1-.377,12.689,12.689,0,0,1-1.786-1.891,11.022,11.022,0,0,1-.83-1.148,1.732,1.732,0,0,1-.011-1.964,1.488,1.488,0,0,1,.547-.456.54.54,0,0,1,.6.062,4.925,4.925,0,0,1,.536.49A7.3,7.3,0,0,1,75.3,90.2a1.326,1.326,0,0,0,.184.342.456.456,0,0,0,.3.166.284.284,0,0,0,.274-.292,5.592,5.592,0,0,0,0-.685,2.736,2.736,0,0,1,.649-1.932.23.23,0,0,1,.021-.033c.188-.166.336-.414.65-.374s.413.271.525.5a2.846,2.846,0,0,1,.028,2.3,15.17,15.17,0,0,1-1.223,2.549C76.552,93,76.446,93.292,76.3,93.608Z"/><path class="cls-10" d="M84.669,106.08a3.1,3.1,0,0,1,1.892-.54,1.9,1.9,0,0,1,1.061.164.687.687,0,0,1,.233.159,1.656,1.656,0,0,1,.358,1.542,8.291,8.291,0,0,1-.454,1.108,2.275,2.275,0,0,1-.508.738,19.53,19.53,0,0,1-1.784,1.358,8.559,8.559,0,0,0-1.49.937.337.337,0,0,1-.108.057c-.573.254-1.149.5-1.717.763-.239.11-.46.25-.687.38-.391.222-.543.2-.821-.122a3.043,3.043,0,0,1-.582-1.138,17.8,17.8,0,0,1-.467-1.817,8.791,8.791,0,0,1-.115-2.968,5.527,5.527,0,0,1,.662-1.792,5.7,5.7,0,0,1,1.373-1.635,2.1,2.1,0,0,1,1.48-.55,1.6,1.6,0,0,1,1.523,1.229,5.506,5.506,0,0,1,.139,1.892C84.657,105.894,84.662,105.943,84.669,106.08Zm-3.716,6.078a3.372,3.372,0,0,0,.4-.094,8.382,8.382,0,0,0,.815-.325c.684-.33,1.361-.672,2.037-1.014.149-.075.276-.185.429-.251a10.031,10.031,0,0,0,1.752-1.138,3.815,3.815,0,0,0,1.22-1.674,1.325,1.325,0,0,0,.107-.851.807.807,0,0,0-.956-.713c-.256.009-.511.055-.767.061a1.7,1.7,0,0,0-1.418.8,1.635,1.635,0,0,1-.6.511l-.264-.338a1.343,1.343,0,0,0,.37-1.116c-.013-.316.032-.635.018-.951a6.311,6.311,0,0,0-.115-.947.862.862,0,0,0-.217-.366,1.36,1.36,0,0,0-1.886-.089,4.84,4.84,0,0,0-.8.835,5.1,5.1,0,0,0-1.1,3.679c.036.432.078.864.138,1.293A7.282,7.282,0,0,0,80.953,112.158Z"/><path class="cls-6" d="M78.105,104.7a.612.612,0,0,1-.613-.281C77.715,104.452,78,104.386,78.105,104.7Z"/><path class="cls-6" d="M90.536,98.9a.556.556,0,0,1-.44.344c-.621.133-1.236.288-1.853.432a1.475,1.475,0,0,1-.334.05,9.675,9.675,0,0,1-2.4-.27,2.288,2.288,0,0,1-.928-.518,5.157,5.157,0,0,1-.88-1.112,7.14,7.14,0,0,1-.806-1.67c-.034-.1-.151-.185-.206-.287a.259.259,0,0,1,.069-.377.251.251,0,0,1,.387.084,3,3,0,0,1,.268.518,7.534,7.534,0,0,0,1.276,2.139,2.389,2.389,0,0,0,2,.913c.3,0,.6.035.9.033a3.608,3.608,0,0,0,.759-.06c.535-.121,1.06-.28,1.591-.416C90.2,98.636,90.294,98.671,90.536,98.9Z"/><path class="cls-6" d="M86.091,96.505c.05-.145.1-.315.167-.48a.18.18,0,0,1,.123-.095,2.629,2.629,0,0,1,1.566.117.878.878,0,0,1,.467,1.319.757.757,0,0,1-.326.289,1.684,1.684,0,0,1-1.677-.168.642.642,0,0,1-.207-.316A6.107,6.107,0,0,1,86.091,96.505Zm1.33.715v.009a1.519,1.519,0,0,0,.254-.021A.371.371,0,0,0,88,96.894a.354.354,0,0,0-.211-.379,2.979,2.979,0,0,0-.314-.112.469.469,0,0,0-.55.062.736.736,0,0,0-.151.522c.031.2.286.208.482.232A1.605,1.605,0,0,0,87.421,97.22Z"/><path class="cls-6" d="M84.245,93.7c.349.141.467.427.625.678a.848.848,0,0,0,.781.479,7.748,7.748,0,0,1,.8.074c.2.021.309.122.31.3a.258.258,0,0,1-.288.271c-.724-.031-1.469-.032-1.925-.676-.167-.236-.344-.466-.486-.713C83.928,93.881,83.945,93.873,84.245,93.7Z"/><path class="cls-6" d="M89.136,96.3l.468-.224c.166.157.337.3.484.462a1.308,1.308,0,0,0,1.19.361c.309-.036.306-.054.46.215a1.507,1.507,0,0,1-2.071-.222C89.507,96.712,89.349,96.534,89.136,96.3Z"/><path class="cls-6" d="M77.389,98.412a2.392,2.392,0,0,1,1.4,1.062c-.283.008-.312-.26-.5-.323-.2-.068-.27-.289-.541-.317C77.613,98.819,77.51,98.563,77.389,98.412Z"/><path class="cls-11" d="M80.953,112.158a7.282,7.282,0,0,1-.831-2.69c-.06-.429-.1-.861-.138-1.293a5.1,5.1,0,0,1,1.1-3.679,4.84,4.84,0,0,1,.8-.835,1.36,1.36,0,0,1,1.886.089.862.862,0,0,1,.217.366,6.311,6.311,0,0,1,.115.947c.014.316-.031.635-.018.951a1.343,1.343,0,0,1-.37,1.116l.264.338a1.635,1.635,0,0,0,.6-.511,1.7,1.7,0,0,1,1.418-.8c.256-.006.511-.052.767-.061a.807.807,0,0,1,.956.713,1.325,1.325,0,0,1-.107.851,3.815,3.815,0,0,1-1.22,1.674,10.031,10.031,0,0,1-1.752,1.138c-.153.066-.28.176-.429.251-.676.342-1.353.684-2.037,1.014a8.382,8.382,0,0,1-.815.325A3.372,3.372,0,0,1,80.953,112.158Z"/><path class="cls-12" d="M87.421,97.22a1.605,1.605,0,0,1-.17,0c-.2-.024-.451-.03-.482-.232a.736.736,0,0,1,.151-.522.469.469,0,0,1,.55-.062,2.979,2.979,0,0,1,.314.112.354.354,0,0,1,.211.379.371.371,0,0,1-.319.314,1.519,1.519,0,0,1-.254.021Z"/><path class="cls-13" d="M60.36,49.35s4.3,10.167,9.892,12.465,5.787,2.426,7.98,2.7c5.643.7,9.558-1.608,12.512-4C93.3,58.452,97.535,49.35,97.535,49.35L94.8,48.794s-5.06,10.324-10.927,11.423-13.323-2.664-15.322-4.3-6.094-7.793-6.094-7.793Z"/><path class="cls-14" d="M32.681,79.538q2.057,2.012,3.981,4.136a29.152,29.152,0,0,0,4.069,3.886c2.988,2.24,6.663,3.4,10.225,4.8a37.968,37.968,0,0,1-5.583-1.418,19.147,19.147,0,0,1-5.186-2.652,22.423,22.423,0,0,1-4.063-4.154Q34.333,81.891,32.681,79.538Z"/><path class="cls-14" d="M127.7,80.592a10.675,10.675,0,0,1-3.44,3.338c-1.344.884-2.771,1.592-4.1,2.4a36.914,36.914,0,0,0-3.819,2.721,8.888,8.888,0,0,1-4.351,1.987,11.636,11.636,0,0,0,3.9-2.541,23.283,23.283,0,0,1,3.8-2.948C122.466,83.9,125.47,82.9,127.7,80.592Z"/><path class="cls-14" d="M51.543,141.445q4.092-.4,8.219-.455c2.746-.006,5.494.094,8.235.27,5.481.368,10.92,1.074,16.376,1.37,2.726.191,5.455.3,8.186.3l2.05,0,.261,0h.07c.059.009-.1-.019.137.021-.093,1.555-.069.437-.1.784l-.054,0-.134,0h-.52c-.349,0-.69-.007-1.06-.036a1.423,1.423,0,0,1-.369-.07.484.484,0,0,1-.227-.2.425.425,0,0,1,0-.367c.1-.155.11-.128.122-.146a.776.776,0,0,1,.115-.066l.052-.019a1.683,1.683,0,0,1,.167-.045c.19-.041.368-.066.532-.093l1-.171c.667-.119,1.332-.258,2-.41,2.65-.617,5.278-1.419,7.921-2.143,2.648-.709,5.287-1.448,7.943-2.131-5.215,1.713-10.391,3.462-15.7,4.954q-1,.263-2.018.479c-.339.071-.68.131-1.022.189l-.48.088-.081.022-.008,0a.209.209,0,0,0,.059-.035c0-.014.006.019.1-.125a.387.387,0,0,0,0-.338c-.015-.094-.214-.192-.173-.168-.049-.017.073.01.136.01.314.022.659.023.995.023l.507-.006.123,0s.035,0,.011,0c-.021.346.027-.772-.086.782.23.039.056.011.1.02h-.057l-.254,0-2.06.022q-4.125.04-8.245-.221c-5.488-.373-10.93-1.067-16.375-1.582A126.176,126.176,0,0,0,51.543,141.445Z"/><path class="cls-7" d="M62.663,79.693c-.185-.224-.358-.416-.513-.625a1.294,1.294,0,0,0-.714-.5,2.582,2.582,0,0,1-.7-.525c-.33-.26-.661-.517-.987-.784a.982.982,0,0,1-.249-.269c-.316-.563-.622-1.132-.929-1.7a1.141,1.141,0,0,1-.138-.775c.09-.476.316-.65.765-.563a4.34,4.34,0,0,1,1.95.822,6.921,6.921,0,0,1,.119-1.07,1.7,1.7,0,0,1,1.295-1.39,1.475,1.475,0,0,1,1.7,1.438,6.146,6.146,0,0,1,.055,1.184,4.425,4.425,0,0,1-.474,1.735,4.367,4.367,0,0,0-.7,2.341C63.165,79.549,63.149,79.548,62.663,79.693Z"/><path class="cls-15" d="M127.887,9.938s-2.8-2.982-1.16-3.784,2.354,3.123,2.354,3.123,1.008-4.172,2.4-3.545c2.561,1.152-1.626,4.2-1.626,4.2s3.852-2.1,4.129.019-3.88.43-3.88.43,4.22,1.494,3.8,3.288-4.18-2.1-4.18-2.1,2.746,4.113.689,4.246c-1.844.119-1.652-3.921-1.652-3.921s-1.074,4.365-2.849,3.4c-2.08-1.135,2.007-3.885,2.007-3.885s-4.8,1.011-4.244-1.374C124.129,8.061,127.887,9.938,127.887,9.938Z"/><path class="cls-15" d="M32.294,9.126s.292-4.077,1.991-3.421-.695,3.849-.695,3.849,3.747-2.093,4.234-.643c.893,2.662-4.186,1.657-4.186,1.657s4.154,1.405,2.789,3.044-2.95-2.556-2.95-2.556,1.767,4.112.163,5.02-1.293-4.5-1.293-4.5-1.156,4.809-2.651,3.388c-1.339-1.272,1.758-3.874,1.758-3.874s-3.935,2.175-4.429.215c-.579-2.3,4.215-1.164,4.215-1.164s-4-2.835-1.872-4.049C31.121,5.092,32.294,9.126,32.294,9.126Z"/><path class="cls-16" d="M35.058,11.614C51.09,21.288,77.348,23.5,93.1,20.735c23.045-4.043,36.8-10.5,36.8-10.5"/><g class="cls-17"><path class="cls-18" d="M87.249,77.9s-12.233,17.95-4.566,35.3,49.589,56.977,206.475,56.338,184.969-47.083,182.722-55.115-4.047-34.552-4.047-34.552Z"/><ellipse class="cls-19" cx="278.418" cy="112.039" rx="193.461" ry="65.711"/></g></svg>