<svg id="word" xmlns="http://www.w3.org/2000/svg" xmlns:xlink="http://www.w3.org/1999/xlink" viewBox="0 0 160 160"><defs><style>.cls-1{fill:#c5e7f9;}.cls-1,.cls-10,.cls-11,.cls-13,.cls-15,.cls-16,.cls-18,.cls-19,.cls-2,.cls-20,.cls-3,.cls-4,.cls-5,.cls-6,.cls-7,.cls-8,.cls-9{stroke:#9c4c9c;stroke-width:0.658px;}.cls-14,.cls-2,.cls-20{fill:#231f20;}.cls-2{stroke-miterlimit:10;}.cls-3{fill:#48484a;}.cls-4{fill:#998379;}.cls-5{fill:#fbe2d8;}.cls-6{fill:#709ad1;}.cls-7{fill:#6a6a6c;}.cls-8{fill:#c4c6c7;}.cls-9{fill:#c5d72e;}.cls-10,.cls-15{fill:none;}.cls-11{fill:#ccd92a;}.cls-12{opacity:0.38;fill:url(#linear-gradient);}.cls-13{fill:#fdf6b7;}.cls-15{stroke-linecap:round;}.cls-16{fill:#8c695d;}.cls-17{fill:#9c4c9c;}.cls-18{fill:#0cbef0;opacity:0.52;}.cls-19{fill:#616264;}</style><linearGradient id="linear-gradient" x1="20.79" y1="60.025" x2="27.914" y2="64.774" gradientUnits="userSpaceOnUse"><stop offset="0.2" stop-color="#fff" stop-opacity="0"/><stop offset="1" stop-color="#fff"/></linearGradient></defs><path class="cls-1" d="M17.718,37.345l-1.228,76.6,83.773-2.449,17.663.325a39.035,39.035,0,0,0,.642-14.591c-1.285-7.134-15.735-58.688-23.122-61.282S17.718,37.345,17.718,37.345Z"/><path class="cls-2" d="M33.6,21.263l5.078-2.836s26.414-2.171,28.641-.931,8.856,14.266,8.856,14.266H70.118S66.5,21.133,64.06,21.133,33.6,21.263,33.6,21.263Z"/><path class="cls-3" d="M39.949,37.774s-1.043,3.661,2.206,4.317,44.186-.546,46.135-.546,4.115.436,4.44-1.094,4.007-1.783.108-2.625-25.341-1.968-30.432-1.2S39.949,37.774,39.949,37.774Z"/><path class="cls-4" d="M48.652,112.183s.975-27.666,1.192-29.415,0-10.17,16.136-11.7,26.75-.984,30.649,3.389,6.823,36.085,6.823,36.085Z"/><path class="cls-5" d="M66.864,83.613s2.57.973,2.891-1.621a53.91,53.91,0,0,0,0-7.459l9.634-.324a23.97,23.97,0,0,1,.643,5.593,3.189,3.189,0,0,0,2.41,3.076s2.085,9.489-6.907,8.841S66.864,83.613,66.864,83.613Z"/><path class="cls-6" d="M68.579,83.1s-9.351-.224-11.625,1.087-2.442,3.574-3.417,9.806.53,13.6.53,13.6l7.365-.546L62.3,90.969l.866,15.965,31.515-.985L91.105,90.64l5.2,15.419,5.2.765s-1.015-11.718-1.881-14.78-1.445-8.431-8.35-9.565c-3.427-.564-8.829.4-8.829.4s-.108,7-4.008,7.871-7.363-1.311-7.255-2.186-2.6-4.92-2.6-4.92Z"/><path class="cls-3" d="M17.62,43.466s23.235-.937,24.426,4.2,2.275,8.857-.541,9.731-24.144,2.239-24.144,2.239Z"/><path class="cls-7" d="M54.176,107.153s3.9-14,21.443-14.216,19.06,6.124,21.01,8.638,3.574,4.812,3.574,4.812l-4.333-.11S84.824,95.67,75.619,96.655s-13.862,5.249-16.462,8.091c-.767.84.542,1.313.542,1.313Z"/><path class="cls-8" d="M65.113,106.168s13.971-14.433,17-16.183,9.756-7.6,13.33-9.128S103.018,77.3,105.51,73.8s3.1-9.157,3.1-9.157l2.73,9.889s-3.991,2.548-6.916,3.97a144.228,144.228,0,0,0-14.4,8.966c-3.25,2.406-11.372,11.809-11.372,12.137s-4.981,5.905-4.981,5.905Z"/><path class="cls-9" d="M121,105.075s1.626.328,2.166-.438-.108-3.28,2.492-4.046,11.263-1.858,13.428-2.187,5.308-.327,6.5,3.5.974,3.28.866,6.342-1.3,5.03-3.032,5.8-6.521,3.006-11.48,1.968c-3.473-.728-2.708-1.094-4.44-2.3s-1.841-2.078-2.6-.984-2.273,2.952-2.273,2.952Z"/><path class="cls-5" d="M63.814,99.17c-.162-.055-.541-2.679-1.138-3.171s-.974-.93-1.244-.547a2.305,2.305,0,0,1-.65.6s-1.221.08-1.384.408a4.412,4.412,0,0,0-.241,1.069s-.812-.328-.974,0a5.022,5.022,0,0,0-.217,1.257s-1.245-.218-.974.875a15.677,15.677,0,0,0,1.84,3.827c.435.547,1.192.711,1.192.11s.7-.055.92-.766a4.026,4.026,0,0,0,.217-.984s.541.656.812.218a2.187,2.187,0,0,0,.163-1.2s.975.328,1.083-.055S63.814,99.17,63.814,99.17Z"/><path class="cls-5" d="M64.9,99.279s-2.6-1.859-2.653-.821a2.94,2.94,0,0,0,1.029,1.97s-.109.875-.271.875-1.516,1.421-1.516,2.022.866.985,1.625.657,2.165-1.149,2.165-1.915S65.764,100.045,64.9,99.279Z"/><path class="cls-10" d="M58.129,98.349a8.454,8.454,0,0,0,2.052,4.739"/><path class="cls-10" d="M59.157,97.53c.212,1.371.811,3.523,2,4.319"/><path class="cls-10" d="M60.782,96.053c.268,1.313.209,4,1.354,4.812"/><path class="cls-5" d="M88.48,98.441c.161-.055.541-2.679,1.137-3.171s.974-.93,1.245-.548a2.307,2.307,0,0,0,.649.6s1.222.08,1.384.407a4.43,4.43,0,0,1,.242,1.069s.811-.328.973,0a4.981,4.981,0,0,1,.217,1.258s1.245-.219.975.875a15.632,15.632,0,0,1-1.841,3.826c-.434.547-1.191.712-1.191.11s-.7-.055-.921-.765a4.026,4.026,0,0,1-.217-.985s-.541.657-.811.219a2.18,2.18,0,0,1-.163-1.2s-.975.328-1.083-.055S88.48,98.441,88.48,98.441Z"/><path class="cls-5" d="M87.4,98.55s2.6-1.859,2.653-.821A2.94,2.94,0,0,1,89.021,99.7s.108.875.27.875,1.517,1.421,1.517,2.022-.867.985-1.625.657-2.166-1.148-2.166-1.914S86.53,99.315,87.4,98.55Z"/><path class="cls-10" d="M94.165,97.62a8.459,8.459,0,0,1-2.053,4.738"/><path class="cls-10" d="M93.137,96.8c-.212,1.372-.812,3.523-2,4.319"/><path class="cls-10" d="M91.511,95.324c-.267,1.312-.208,4-1.353,4.811"/><path class="cls-3" d="M16.49,112.183s29.239-.438,31.4-.766,3.033,0,3.791-1.093.975-4.484,5.74-4.375,24.909-2.3,29.674-1.967,11.155.437,12.671,1.53,2.406,2.676,4.223,3.39c3.9,1.531,16.353.656,16.353.656s1.192,4.483-.758,6.232-47.759,2.516-54.582,2.516-48.795,1.2-48.795,1.2Z"/><path class="cls-11" d="M17.1,32.693l-.614,5.583s59.671-1.29,62.92-1.29,17.327,1.059,19.168,2.7,9.746,23.509,13,36.959,8.122,33.569,8.664,35.538-10.288,5.138-14.4,4.811-89.651,1.6-89.651,1.6.526,11.147.526,15.8c0,4.1,6.006,4.99,13.614,5.1,9.466.139,115.06-.479,115.06-.479s-14.257-14.431-16.206-17.6-5.366-7.158-5.366-7.705-2.165-12.247-2.6-13.559-7.124-38.5-11.963-50.714C101.878,30.833,99.229,31.226,93.6,31.007S17.1,32.693,17.1,32.693Z"/><path class="cls-12" d="M65.02,38.276s-25.494.31-31.33,15.816-5.836,57.373-5.836,57.373H21.1s-2.764-37.525,1.229-49.93S28.162,48.51,33.69,42.617s26.415-4.651,26.415-4.651"/><path class="cls-13" d="M28.162,32.693s2.2-11.31,6.454-11.8c7.338-.839,29.519-.84,29.519-.84s1.549-.211,3.109,3.99,2.874,7.38,2.874,7.38Z"/><rect class="cls-14" x="33.629" y="26.472" width="4.682" height="4.982" transform="translate(-0.398 0.502) rotate(-0.794)"/><rect class="cls-14" x="42.992" y="26.342" width="4.682" height="4.982" transform="translate(-0.395 0.631) rotate(-0.794)"/><rect class="cls-14" x="52.356" y="26.212" width="4.682" height="4.982" transform="translate(-0.393 0.761) rotate(-0.794)"/><rect class="cls-14" x="61.719" y="26.082" width="4.682" height="4.982" transform="translate(-0.39 0.891) rotate(-0.794)"/><rect class="cls-14" x="38.243" y="21.425" width="4.682" height="4.982" transform="translate(-0.328 0.565) rotate(-0.794)"/><rect class="cls-14" x="47.606" y="21.296" width="4.682" height="4.982" transform="translate(-0.325 0.695) rotate(-0.794)"/><rect class="cls-14" x="56.97" y="21.166" width="4.682" height="4.982" transform="translate(-0.322 0.825) rotate(-0.794)"/><polygon class="cls-14" points="66.458 134.81 60.382 134.899 56.241 131.552 62.316 131.463 66.458 134.81"/><polygon class="cls-14" points="78.608 134.631 72.533 134.721 68.391 131.373 74.467 131.284 78.608 134.631"/><polygon class="cls-14" points="90.758 134.452 84.683 134.542 80.542 131.195 86.617 131.105 90.758 134.452"/><polygon class="cls-14" points="102.909 134.273 96.833 134.363 92.692 131.016 98.767 130.926 102.909 134.273"/><polygon class="cls-14" points="68.391 131.373 62.316 131.463 58.175 128.116 64.25 128.026 68.391 131.373"/><polygon class="cls-14" points="80.542 131.195 74.467 131.284 70.325 127.937 76.4 127.848 80.542 131.195"/><polygon class="cls-14" points="92.692 131.016 86.617 131.105 82.475 127.758 88.551 127.669 92.692 131.016"/><path class="cls-5" d="M85.076,58.027s.946,8.083.482,9.512,1.215,4.191.85,6.474-1.29,4.476-3.33,5.435-5.985,4.473-9.638,1.813C70.694,79.25,66.863,77,66.114,73.768s-.685-13.033.609-14.847,6.478-2.673,8.7-2.4S85.076,58.027,85.076,58.027Z"/><path class="cls-15" d="M79.122,67.88a12.4,12.4,0,0,0,1.121,3.325c.652.949,1.21,2.088.374,2.185a15.968,15.968,0,0,1-2.227,0"/><path class="cls-16" d="M82.667,58.884a1.556,1.556,0,0,1-2.593.583c-1.027-.951.552-.766-1.392-.379s-3.155-.18-3.155-.849-.459,1.71-1.2.954-1.3.383-1.949-.474-2.968-.083-2.776.391-.276,2.476.1,3.422.836,1.521-.088,2a3.437,3.437,0,0,0-1.476,2.67c0,.756-.174,4.466-.174,4.466s-.552,1.242-.927.574-.653-1.8-1.4-2.089a2.226,2.226,0,0,0-1.663.285s-.938-3.228-1.313-4.177-1.405-6.28-.384-8.088S65.7,55.6,66.437,55.122s2.03-3.145,4.345-3.435a63.032,63.032,0,0,1,10.014.448c1.3.189,3.614,1.355,4.271,3.066s1.768,1.77,2.048,3.3-.643,2.951-.731,3.616-.642,3.333-.642,3.333.187.285-.563-1.242.084-4.18-.287-4.753S82.849,57.936,82.667,58.884Z"/><path class="cls-5" d="M66.043,70.545s-2.784-3.071-2.067,1.038c.4,2.3,1.4,2.757,1.768,2.471a1.506,1.506,0,0,1,.83-.286"/><path class="cls-15" d="M75.409,75.3c1.237,1.83,4.3,1.6,6.826.52"/><path class="cls-15" d="M84.988,64.237a2.555,2.555,0,0,0-2.753-.819"/><path class="cls-15" d="M76.286,63.56a2.637,2.637,0,0,0-2.874.7"/><path class="cls-10" d="M76.28,68.13a4.181,4.181,0,0,1,3.937-.085"/><path class="cls-17" d="M74.592,68.8a.737.737,0,1,1-.723-.879A.813.813,0,0,1,74.592,68.8Z"/><path class="cls-17" d="M85.038,68.715a.737.737,0,1,1-.723-.879A.813.813,0,0,1,85.038,68.715Z"/><path class="cls-18" d="M70.094,66.553s5.146-.293,5.583.1a3.286,3.286,0,0,1,.348,2.824c-.348.974-2.181,1.657-3.664,1.754s-2.878-2.533-3.228-3.117S69.57,66.358,70.094,66.553Z"/><path class="cls-18" d="M86.312,66.469s-5.147-.293-5.583.1a3.288,3.288,0,0,0-.35,2.825c.35.973,2.183,1.657,3.666,1.754s2.878-2.534,3.227-3.117S86.835,66.273,86.312,66.469Z"/><path class="cls-10" d="M70.2,66.469s5.146-.293,5.582.1a3.285,3.285,0,0,1,.35,2.825c-.35.973-2.182,1.657-3.665,1.754s-2.878-2.534-3.227-3.117S69.68,66.273,70.2,66.469Z"/><path class="cls-10" d="M86.292,66.468s-5.147-.293-5.583.1a3.285,3.285,0,0,0-.349,2.825c.349.974,2.182,1.656,3.665,1.753s2.877-2.532,3.227-3.116S86.815,66.273,86.292,66.468Z"/><path class="cls-19" d="M62.188,64.265s-5.015-4.07-5.169-6.594.65-5,4.817-5.719,6.778-1.609,11.078-1.9S84.573,48.5,86.192,51.145s.976,6.6.976,6.6,1.133.62-1.723.078-9.316-1.658-11.96-.945-6.911,3.968-6.911,3.968Z"/><path class="cls-20" d="M66.574,60.849a8.83,8.83,0,0,1,4.344.665c2.073.964,8.677-.337,11.6.507s8.984,2.1,9.905,0-5.25-4.273-5.25-4.273a61.8,61.8,0,0,0-10.112-1.274C72.684,56.43,66.574,60.849,66.574,60.849Z"/><path class="cls-10" d="M69.223,67.158l-2.243.931a2.557,2.557,0,0,0-.772.432c-.369.341-.51.873-.857,1.237"/><path class="cls-6" d="M65.413,82.98s2.5-.513,3.046-2.3,1.083-1.318,1.083-1.318,3.138,2.886,4.1,3.614a5.83,5.83,0,0,0,2,.96l.037,5.97,1.16-5.737s3.118-1.473,3.556-2.249a10.938,10.938,0,0,1,2.572-2.093l2.195,2.678s-1.107,5.618-3.044,7.476c-.548.526-6.134,2.706-8.471,1.253s-4.811-1.561-5.186-3.189S65.413,82.98,65.413,82.98Z"/></svg>