<svg id="word" xmlns="http://www.w3.org/2000/svg" viewBox="0 0 160 160"><defs><style>.cls-1{fill:#ffca05;}.cls-1,.cls-2,.cls-3{stroke:#9d4b9c;stroke-miterlimit:10;stroke-width:1.34px;}.cls-2{fill:#ffde00;}.cls-3{fill:#bc7d31;}.cls-4{fill:#9d4b9c;}.cls-5{fill:#fff;}</style></defs><path class="cls-1" d="M89.275,77.8s2.354-3.739,4.155-3.462,2.908,1.247,2.77-.138-2.078-6.925-.554-10.941,2.769-4.57,3.046-7.478,7.479-12.187,8.863-15.372,6.371-10.94,6.786-12.464,2.77-4.847,3.739-6.093.554-4.432,2.632-3.185,3.462,4.154,3.6,7.894-3.185,21.465-5.4,29.636-12.048,34.759-12.048,34.759L96.477,95.938,92.322,85Z"/><path class="cls-2" d="M100.216,94.969S93.707,75.581,86.644,65.194,67.81,39.159,57.285,33.2,34.573,22.263,32.358,23.233s-1.247,4.431-1.939,5.4a3.733,3.733,0,0,0-.277,4.154c.969,1.385,1.939,1.662,1.662,4.017s-1.247,4.57-.554,6.093,2.769,2.077.969,5.539-2.631,4.293-1.385,6.094.97,4.016.831,5.955a8.1,8.1,0,0,0,1.523,4.708c.416.416.97,2.77,2.632,4.57s1.857,6.715,5.873,9.069,15.177,4.78,15.177,4.78-6.925,1.108-8.587.969-8.032,3.739-9.417,4.847-3.185,2.493-3.185,2.493.139,3.324-.554,4.431.277,3.6,1.108,4.432a5.691,5.691,0,0,1,1.108,4.432,4.136,4.136,0,0,0,.139,3.6,4.915,4.915,0,0,1,.553,3.462c-.277.554,4.986,4.016,4.986,4.016s5.955,4.57,9.694,5.955,5.262-2.077,8.309-.692,5.263-3.462,6.509-5.263,3.324.554,5.262-1.523,11.356-11.079,12.88-12.325,4.708-2.493,6.924-3.462S100.216,94.969,100.216,94.969Z"/><path class="cls-3" d="M77.03,110.777s-1.108,2.77,1.8,2.355,6.648-3.324,9.279-5.124a72.679,72.679,0,0,0,6.37-5.263s4.432-1.662,6.509-2.354,4.709-4.432,4.709-4.432,3.877-3.046,3.877-3.739.693-1.939-.831-2.077-2.493.277-5.678,2.077S92.817,97.9,88.247,100.114,78,109.531,77.03,110.777Z"/><path class="cls-4" d="M118.5,77.1a.657.657,0,0,0-.58.618.8.8,0,0,0,.393.719,2.147,2.147,0,0,0,1.742.051l-.18.19a3.428,3.428,0,0,0-.41-2.526,1.1,1.1,0,0,0-.922-.457,2.809,2.809,0,0,0-1.111.5,10.889,10.889,0,0,0-3.514,4.122,47.232,47.232,0,0,0-2.151,5.234c-.659,1.8-1.344,3.59-2.031,5.379l-1.2-.519a19.3,19.3,0,0,1,2.982-4.216,23.885,23.885,0,0,1,3.8-3.418,15.354,15.354,0,0,1,2.2-1.339,4.986,4.986,0,0,1,1.255-.488,1.886,1.886,0,0,1,1.44.243,1.457,1.457,0,0,1,.611,1.3,2.325,2.325,0,0,1-.281,1.321.964.964,0,0,1-1.3.161,1.033,1.033,0,0,1-.306-1.187.946.946,0,0,0,.4,1.044.741.741,0,0,0,.953-.2,2.075,2.075,0,0,0,.091-1.115.936.936,0,0,0-.468-.838c-.611-.314-1.333.017-2.022.449a17.019,17.019,0,0,0-1.992,1.411,26.428,26.428,0,0,0-3.49,3.438,20.671,20.671,0,0,0-2.7,4.011l-1.2-.519c.664-1.8,1.33-3.595,2.022-5.382a37.48,37.48,0,0,1,2.335-5.343,11.08,11.08,0,0,1,4.1-4.315,3.518,3.518,0,0,1,1.536-.542,1.863,1.863,0,0,1,1.524.828,2.555,2.555,0,0,1,.464,1.541,7.626,7.626,0,0,1-.177,1.478l-.032.17-.149.02a4.955,4.955,0,0,1-1,.067,1.675,1.675,0,0,1-.975-.358.947.947,0,0,1-.373-.942A.722.722,0,0,1,118.5,77.1Z"/><path class="cls-5" d="M69.708,48.612,55.659,39.465l-7.028-4.557c-1.174-.74-2.365-1.51-3.543-2.164a19.93,19.93,0,0,0-1.854-.864,4.8,4.8,0,0,0-1.77-.444c-.056,0-.1.011-.091.02-.029,0,0,.007.01-.015-.007-.031.02.016,0,.011a1.181,1.181,0,0,0,.013.129,3.173,3.173,0,0,0,.314.8c.313.563.706,1.15,1.089,1.723s.788,1.155,1.155,1.8a5.088,5.088,0,0,1,.738,2.209c.119,1.66-.832,3.064-1.351,4.2a5.559,5.559,0,0,0-.527,1.8,4.567,4.567,0,0,0,.329,1.811,25.394,25.394,0,0,1,1.279,4.1,6,6,0,0,1-.039,2.312,14.741,14.741,0,0,1-.677,2.083,24.541,24.541,0,0,0-1.228,3.877,6.2,6.2,0,0,0,.351,3.714A10.3,10.3,0,0,0,43.856,63.7a2.168,2.168,0,0,1,.377,1.409,4.119,4.119,0,0,1-.32,1.2,12.3,12.3,0,0,0-1.187,3.828,5.146,5.146,0,0,0,.539,3.593,3.42,3.42,0,0,0,1.423,1.06c.6.3,1.242.573,1.876.843,2.557,1.065,5.176,2.033,7.806,2.929,2.559.962,5.326,1.175,8.1,1.688A50.978,50.978,0,0,1,70.664,82.3c2.669.937,5.213,2.1,7.762,3.254C83.492,87.932,88.511,90.394,93.458,93c-5.08-2.331-10.154-4.674-15.3-6.84-2.567-1.086-5.137-2.2-7.763-3.051a50.026,50.026,0,0,0-8.09-1.843l-4.152-.59A22.042,22.042,0,0,1,54,79.658c-2.666-.887-5.3-1.838-7.907-2.9-.652-.272-1.3-.543-1.952-.86a4.663,4.663,0,0,1-1.887-1.431,4.716,4.716,0,0,1-.83-2.242,9.738,9.738,0,0,1,.028-2.241,11,11,0,0,1,.459-2.171c.224-.7.538-1.376.779-1.985a2.85,2.85,0,0,0,.225-.815.819.819,0,0,0-.163-.574,11.135,11.135,0,0,1-1.144-1.884,7.528,7.528,0,0,1-.416-4.5,25.419,25.419,0,0,1,1.322-4.1,6.509,6.509,0,0,0,.677-3.743,24.9,24.9,0,0,0-1.2-3.9,5.758,5.758,0,0,1-.375-2.289,6.692,6.692,0,0,1,.644-2.2c.15-.337.322-.652.488-.972.147-.3.314-.588.426-.888a4.008,4.008,0,0,0,.364-1.777c-.05-1.161-.932-2.288-1.672-3.467-.38-.6-.756-1.179-1.107-1.845a4.024,4.024,0,0,1-.4-1.156,1.781,1.781,0,0,1-.01-.39,1.079,1.079,0,0,1,.176-.473.889.889,0,0,1,.41-.335.969.969,0,0,1,.411-.1,3.245,3.245,0,0,1,1.227.175,9.3,9.3,0,0,1,1.034.381,20.91,20.91,0,0,1,1.923.947c1.249.73,2.388,1.507,3.561,2.282q3.487,2.334,6.933,4.721C60.6,42.134,65.183,45.331,69.708,48.612Z"/><path class="cls-5" d="M46.43,42.31c2.317.836,4.571,1.83,6.822,2.835q3.348,1.569,6.6,3.358a56.549,56.549,0,0,1,6.278,3.982,35.743,35.743,0,0,1,5.512,5.049c3.325,3.651,6.488,7.419,9.559,11.264l4.56,5.8c1.473,1.971,2.975,3.918,4.4,5.928-1.66-1.819-3.261-3.683-4.906-5.511L80.406,69.46c-3.25-3.681-6.437-7.421-9.753-11.018-3.172-3.712-7.161-6.468-11.325-9.055-2.078-1.287-4.209-2.5-6.369-3.659C50.816,44.531,48.626,43.422,46.43,42.31Z"/><path class="cls-5" d="M46.273,52.367c1.886.736,3.731,1.563,5.59,2.359q2.761,1.252,5.5,2.557A105.438,105.438,0,0,1,68.09,63.047c.434.268.859.59,1.283.91s.779.651,1.172.975l2.31,1.961c1.524,1.326,3.065,2.633,4.573,3.977q4.561,3.992,8.952,8.182-4.894-3.591-9.62-7.377c-1.587-1.248-3.141-2.535-4.712-3.8l-2.333-1.928c-.389-.315-.777-.661-1.165-.95s-.768-.568-1.2-.829c-3.34-2.146-6.941-4.012-10.458-5.97l-5.322-2.884C49.814,54.318,48.029,53.375,46.273,52.367Z"/><path class="cls-5" d="M47.689,60.681c1.96.861,3.88,1.8,5.822,2.694l5.757,2.819c3.838,1.881,7.628,3.855,11.416,5.83,1.881,1.012,3.784,1.984,5.645,3.033,1.85,1.071,3.713,2.12,5.55,3.212q5.541,3.229,10.95,6.683-5.793-2.772-11.452-5.765C77.6,77.194,73.855,75.15,70.052,73.2c-3.771-2-7.542-4.006-11.264-6.1l-5.582-3.148C51.368,62.861,49.509,61.809,47.689,60.681Z"/><path class="cls-5" d="M48.632,69.665l5.951,2.491,5.926,2.527c3.962,1.65,7.905,3.339,11.893,4.891,1.992.776,3.991,1.544,6.013,2.2,2.019.684,4.111,1.328,6.1,2.153a56.1,56.1,0,0,1,11.455,5.989,85.089,85.089,0,0,0-11.819-5.008c-2.025-.7-4.05-1.3-6.124-1.924s-4.1-1.4-6.117-2.16q-6.012-2.392-11.827-5.2c-1.935-.944-3.865-1.893-5.782-2.871C52.407,71.733,50.5,70.747,48.632,69.665Z"/><path class="cls-5" d="M50.362,84.818a44.523,44.523,0,0,1-4.381,4.007A10.28,10.28,0,0,1,43.42,90.4a16.685,16.685,0,0,0-2.513,1.457A13.43,13.43,0,0,0,38.7,93.694a3.686,3.686,0,0,0-1.192,2.3,1.558,1.558,0,0,0,.432,1.057A5.8,5.8,0,0,0,39,97.9a26.035,26.035,0,0,0,2.5,1.475,13.074,13.074,0,0,1,2.618,1.643,3.547,3.547,0,0,1,.978,1.439,4.057,4.057,0,0,1,.188,1.7c-.084,1-.22,1.981-.248,2.916a2.93,2.93,0,0,0,.649,2.294,4.79,4.79,0,0,0,2.376.961c.922.179,1.88.222,2.9.344a5.061,5.061,0,0,1,3.083,1.243A6.679,6.679,0,0,1,55,113.239a11.391,11.391,0,0,0,.8,1.146,2.457,2.457,0,0,0,1.918,1.183,2.526,2.526,0,0,0,1.1-.395c.44-.254.888-.493,1.34-.716.9-.45,1.808-.839,2.654-1.284.425-.223.837-.46,1.241-.715.2-.129.41-.261.587-.388a2.178,2.178,0,0,0,.45-.415,52.324,52.324,0,0,1,4.56-3.9c.747-.62,1.474-1.259,2.158-1.947s1.32-1.44,2.142-2.116c1.68-1.369,3.765-1.685,5.5-2.464,1.8-.76,3.557-1.655,5.314-2.547,3.507-1.8,6.942-3.753,10.375-5.708q-4.948,3.263-10.1,6.208c-1.719.983-3.462,1.924-5.281,2.749-1.836.854-3.81,1.258-5.2,2.488-.69.6-1.306,1.387-2,2.114a29.563,29.563,0,0,1-2.175,2.089,52.763,52.763,0,0,0-4.4,3.836,3.452,3.452,0,0,1-.631.59c-.223.163-.432.3-.643.436-.429.277-.87.537-1.318.778-.9.484-1.806.885-2.664,1.325q-.647.329-1.265.693a3.786,3.786,0,0,1-1.663.582,2.933,2.933,0,0,1-1.8-.492,5.476,5.476,0,0,1-1.227-1.142,12.766,12.766,0,0,1-.907-1.275,5.843,5.843,0,0,0-.749-1.091,3.8,3.8,0,0,0-2.315-.9c-.938-.124-1.959-.18-2.976-.388a5.891,5.891,0,0,1-3-1.323,3.223,3.223,0,0,1-.859-1.576,6.068,6.068,0,0,1-.126-1.633c.044-1.04.194-2.016.284-2.983a2.452,2.452,0,0,0-.777-2.208,13.543,13.543,0,0,0-2.354-1.552,27.076,27.076,0,0,1-2.547-1.614,6.489,6.489,0,0,1-1.2-1.047,2.45,2.45,0,0,1-.6-1.648,4.422,4.422,0,0,1,1.5-2.824,14.106,14.106,0,0,1,2.394-1.869,16.869,16.869,0,0,1,2.683-1.373,9.827,9.827,0,0,0,2.545-1.387A57.254,57.254,0,0,0,50.362,84.818Z"/><path class="cls-5" d="M57.126,110.028a59.773,59.773,0,0,1,7.631-6,34.392,34.392,0,0,1,4.257-2.442,17.161,17.161,0,0,1,2.359-.891c.763-.214,1.51-.45,2.272-.7,3.035-1,6.053-2.122,9.087-3.195q4.543-1.637,9.151-3.143-4.317,2.21-8.774,4.1c-2.967,1.275-5.968,2.46-9.047,3.5-.769.258-1.564.485-2.354.7a16.069,16.069,0,0,0-2.168.789,41.208,41.208,0,0,0-4.228,2.175C62.552,106.539,59.83,108.258,57.126,110.028Z"/><path class="cls-5" d="M71,92.082a21.384,21.384,0,0,0-5.986.242c-1.913.378-3.852,1.18-4.831,2.761a4.35,4.35,0,0,0-.7,2.547,2.382,2.382,0,0,0,1.345,1.92,5.847,5.847,0,0,0,2.6.652,4.934,4.934,0,0,0,1.349-.157c.48-.1.962-.223,1.443-.35,3.864-1.009,7.7-2.292,11.588-3.395,3.905-1.117,7.841-2.012,11.8-2.84l-11.5,3.79c-3.8,1.348-7.613,2.691-11.56,3.739-.5.124-1,.243-1.5.346a6.371,6.371,0,0,1-1.652.167,6.623,6.623,0,0,1-3.193-.885,4.069,4.069,0,0,1-1.294-1.2,3.324,3.324,0,0,1-.558-1.716,4.547,4.547,0,0,1,.282-1.679,5.462,5.462,0,0,1,.748-1.474A6.111,6.111,0,0,1,61.9,92.538a9.976,9.976,0,0,1,3.017-.8A19.166,19.166,0,0,1,71,92.082Z"/><path class="cls-5" d="M50.869,87.641c6.676.287,13.311.979,19.93,1.769,3.312.385,6.6.939,9.885,1.511s6.56,1.214,9.82,1.949q-5-.329-9.966-.914c-3.312-.36-6.6-.857-9.917-1.218C64.013,89.905,57.419,88.975,50.869,87.641Z"/><path class="cls-5" d="M42.656,94.472a28.643,28.643,0,0,1,3.885-.285c1.291-.028,2.577.022,3.862.086,1.284.09,2.567.2,3.845.381a28.335,28.335,0,0,1,3.821.757,28.172,28.172,0,0,1-3.885.287c-1.291.029-2.577-.021-3.862-.087-1.284-.092-2.567-.2-3.845-.384A28.641,28.641,0,0,1,42.656,94.472Z"/><path class="cls-5" d="M46.745,101.311a16.7,16.7,0,0,1,2.874-.721c.962-.173,1.93-.269,2.9-.349.971-.056,1.943-.094,2.92-.055a16.511,16.511,0,0,1,2.946.321,16.526,16.526,0,0,1-2.874.723c-.962.173-1.93.268-2.9.347-.971.054-1.943.093-2.92.053A16.6,16.6,0,0,1,46.745,101.311Z"/><path class="cls-5" d="M37.623,28.364a8.19,8.19,0,0,0-1.945.109c-.607.11-1.307.372-1.411.919a2.68,2.68,0,0,0,.659,1.635,14.071,14.071,0,0,0,1.251,1.463,23.381,23.381,0,0,1,2.608,3.033,3.924,3.924,0,0,1,.463,1,2.21,2.21,0,0,1-.006,1.207,5.507,5.507,0,0,1-1.1,1.841c-.831,1.018-1.5,2.014-1.109,3.008a10.125,10.125,0,0,0,2.16,2.946,11.956,11.956,0,0,1,1.3,1.608,4.078,4.078,0,0,1,.713,2.179,4.511,4.511,0,0,1-.617,2.2,10.475,10.475,0,0,1-1.277,1.676c-.915.992-1.9,1.852-2.629,2.825a4.906,4.906,0,0,0-.821,1.516,3.329,3.329,0,0,0-.061,1.612,8.771,8.771,0,0,0,.672,1.675,13.929,13.929,0,0,0,.96,1.622c.351.526.749,1.026,1.149,1.548a7.046,7.046,0,0,1,1.119,1.81,1.9,1.9,0,0,1,.022,1.279,4.224,4.224,0,0,1-.2.493L39.358,68a7.977,7.977,0,0,0-.415,1.808,5.5,5.5,0,0,0,.071,1.819,1.975,1.975,0,0,0,.321.756c.188.231.409.456.635.684,1.857,1.8,3.958,3.4,5.989,5.047a67.065,67.065,0,0,1-6.435-4.565,7.9,7.9,0,0,1-.738-.719,2.671,2.671,0,0,1-.5-1.01,6.259,6.259,0,0,1-.186-2.083,8.927,8.927,0,0,1,.367-2.032c.052-.165.107-.33.169-.493a3.255,3.255,0,0,0,.151-.423.893.893,0,0,0-.051-.642,6.409,6.409,0,0,0-1.027-1.458c-.415-.5-.842-1.022-1.234-1.575a15.065,15.065,0,0,1-1.08-1.731,9.655,9.655,0,0,1-.824-1.949,4.458,4.458,0,0,1,.056-2.27,6.16,6.16,0,0,1,1.012-1.931,39.224,39.224,0,0,1,2.692-2.948,9.336,9.336,0,0,0,1.116-1.431,3.218,3.218,0,0,0,.456-1.529c.021-1.016-.8-1.986-1.647-2.952a10.936,10.936,0,0,1-2.334-3.436,3.059,3.059,0,0,1,.2-2.323,8.361,8.361,0,0,1,1.237-1.693,4.7,4.7,0,0,0,.99-1.453,1.788,1.788,0,0,0-.286-1.516,24.232,24.232,0,0,0-2.373-3.029,14.641,14.641,0,0,1-1.18-1.618,2.982,2.982,0,0,1-.583-1.992,1.25,1.25,0,0,1,.738-.793,3.116,3.116,0,0,1,.988-.245A8.233,8.233,0,0,1,37.623,28.364Z"/><path class="cls-5" d="M93.163,80.754s-4.334-.591-4.433,1.478S90.6,84.5,90.011,86.861s-1.97,3.941-1.675,5.615,3.35,1.281,3.251,2.167a8.981,8.981,0,0,1-.788,2.266l7.29-3.94Z"/></svg>