<svg id="word" xmlns="http://www.w3.org/2000/svg" viewBox="0 0 160 160"><defs><style>.cls-1{fill:#40465b;}.cls-1,.cls-10,.cls-11,.cls-2,.cls-3,.cls-4,.cls-5,.cls-6,.cls-7,.cls-8,.cls-9{stroke:#9d4b9c;stroke-miterlimit:10;stroke-width:0.41px;}.cls-2{fill:#949699;}.cls-3{fill:#797b7d;}.cls-4{fill:#8a8c8f;}.cls-5{fill:#b7b9bb;}.cls-6{fill:#284350;}.cls-7{fill:#b5b7b9;}.cls-8{fill:#96999b;}.cls-9{fill:#caccce;}.cls-10{fill:#00bef2;}.cls-11{fill:#e2e3e4;}.cls-12{fill:#fff;opacity:0.38;}</style></defs><polygon class="cls-1" points="118.874 136.817 93.979 75.12 91.519 76.104 116.217 138.588 118.874 136.817"/><polygon class="cls-2" points="91.273 69.315 77.349 69.659 77.152 75.12 91.174 74.973 91.273 69.315"/><polygon class="cls-1" points="50.155 135.439 75.05 73.743 77.51 74.727 52.812 137.21 50.155 135.439"/><path class="cls-2" d="M93,62.771l-.2,6.15A28.579,28.579,0,0,1,83.6,70.4a23.667,23.667,0,0,1-9.053-1.525l-.148-6.2,18.4.049Z"/><ellipse class="cls-3" cx="94.987" cy="66.609" rx="2.386" ry="3.739"/><ellipse class="cls-4" cx="94.077" cy="66.511" rx="1.624" ry="2.263"/><polygon class="cls-2" points="92.454 69.02 95.356 75.317 90.732 76.941 87.927 70.053 92.454 69.02"/><polygon class="cls-2" points="79.612 70.201 77.497 76.793 73.266 75.858 74.988 69.217 79.612 70.201"/><polygon class="cls-2" points="86.5 74.973 86.156 77.58 81.58 77.531 80.449 74.874 86.5 74.973"/><rect class="cls-1" x="82.269" y="77.482" width="2.558" height="71.93" transform="translate(167.097 226.894) rotate(-180)"/><ellipse class="cls-5" cx="83.598" cy="62.845" rx="9.446" ry="1.796"/><path class="cls-6" d="M50.057,134.357a6.07,6.07,0,0,0,2.46,1.279,4.035,4.035,0,0,0,1.377-.2s-1.082,6.888-3.936,5.806S50.057,134.357,50.057,134.357Z"/><path class="cls-6" d="M85.615,147.936a4.165,4.165,0,0,1-1.968.2c-.886-.2-1.771-.492-1.771-.492s-2.067,6.3,1.869,6.3S85.615,147.936,85.615,147.936Z"/><path class="cls-6" d="M118.972,135.734a6.069,6.069,0,0,1-2.46,1.28,4.035,4.035,0,0,1-1.377-.2s1.082,6.888,3.936,5.805S118.972,135.734,118.972,135.734Z"/><polygon class="cls-2" points="108.124 45.881 106.795 49.635 103.474 46.77 104.655 43.411 108.124 45.881"/><polygon class="cls-2" points="131.001 60.016 127.311 58.319 125.466 61.935 130.116 63.928 131.001 60.016"/><path class="cls-2" d="M132.945,59.081l-1.575,2.337A3.23,3.23,0,0,0,129.3,59.2a15.685,15.685,0,0,0-2.878-.516l1.476-2.8a3.5,3.5,0,0,1,2.952,0C133.535,57.31,132.945,59.081,132.945,59.081Z"/><path class="cls-7" d="M114.4,51.9l-1.2-.622L58.9,23.116,51.224,44.371l57.859,20.221s5.461-4.133,5.756-7.085A17.124,17.124,0,0,0,114.4,51.9Z"/><polygon class="cls-2" points="116.168 46.585 114.323 49.241 100.153 41.197 101.482 36.917 116.168 46.585"/><path class="cls-2" d="M114.692,45.183A3.234,3.234,0,0,1,114.1,47.4a4.349,4.349,0,0,1-1.549,1.107,1.837,1.837,0,0,0,.516,1.255,13.615,13.615,0,0,0,2.878,1.107,3.626,3.626,0,0,0,1.624-1.919,2.31,2.31,0,0,0-.443-2.435A17.52,17.52,0,0,0,114.692,45.183Z"/><path class="cls-2" d="M98.677,34.408l3.764,2.657a3.055,3.055,0,0,1-.443,3.1,3.836,3.836,0,0,1-2.509,1.919L95.947,40.09Z"/><path class="cls-2" d="M116.315,54.85l8.044,4.723L123.99,60.9l5.214,2.562,3.347,1.644s-3.542,3.986-4.5,3.912-7.084-3.174-7.084-3.174l-.886,1.255-6.789-2.8Z"/><ellipse class="cls-2" cx="97.173" cy="37.198" rx="3.23" ry="2.025" transform="translate(33.099 119.178) rotate(-72.937)"/><polygon class="cls-2" points="93.29 58.786 92.355 60.902 78.235 56.031 78.825 53.276 93.29 58.786"/><polygon class="cls-2" points="83.942 57.409 79.465 59.967 79.612 62.87 86.992 62.87 83.942 57.409"/><ellipse class="cls-3" cx="86.328" cy="60.016" rx="2.78" ry="2.657"/><ellipse class="cls-8" cx="86.082" cy="60.115" rx="1.648" ry="1.673"/><path class="cls-9" d="M45.074,12.785,61.7,22.821s3,6.888-.3,13.432C58.062,42.9,52.331,45.7,51.372,45.625s-17.048-5.756-17.048-5.756Z"/><ellipse class="cls-2" cx="39.78" cy="26.468" rx="14.81" ry="6.245" transform="translate(2.511 56.369) rotate(-72.379)"/><path class="cls-2" d="M112.552,58.614c-.938,1.819-6.052,5.166-6.052,5.166s2.657,1.624,4.428,1.4,4.285-2.793,5.314-4.944c1.623-3.395-.074-7.6-.074-7.6l-2.731-1.181S113.806,56.179,112.552,58.614Z"/><ellipse class="cls-10" cx="40.567" cy="26.862" rx="11.742" ry="5.362" transform="translate(2.685 57.393) rotate(-72.379)"/><ellipse class="cls-3" cx="118.579" cy="61" rx="2.263" ry="1.624" transform="translate(20.427 151.267) rotate(-69.826)"/><ellipse class="cls-11" cx="97.665" cy="37.444" rx="2.813" ry="1.537" transform="translate(33.212 119.822) rotate(-72.937)"/><path class="cls-12" d="M43.8,17.606a4.593,4.593,0,0,0-3.591.886c-1.772,1.328-2.608,4.231-1.722,3.739s1.722-2.214,3-2.657S46.009,18.492,43.8,17.606Z"/></svg>