<svg id="word" xmlns="http://www.w3.org/2000/svg" xmlns:xlink="http://www.w3.org/1999/xlink" viewBox="0 0 160 160"><defs><style>.cls-1,.cls-19,.cls-7{fill:none;}.cls-2{fill:#919395;}.cls-10,.cls-11,.cls-2,.cls-3,.cls-4,.cls-5,.cls-7,.cls-8,.cls-9{stroke:#9d4b9c;stroke-width:0.539px;}.cls-3{fill:#b7b8ba;}.cls-4{fill:#808083;}.cls-5{fill:url(#linear-gradient);}.cls-6{fill:#3d5c68;}.cls-8{fill:url(#linear-gradient-2);}.cls-9{fill:#ea2127;}.cls-10{fill:#8ac440;}.cls-11{fill:#414141;}.cls-12{opacity:0.37;}.cls-13,.cls-18{fill:#fff;}.cls-14{fill:#fad800;}.cls-14,.cls-15,.cls-16,.cls-17,.cls-18,.cls-19,.cls-21{stroke:#221f1f;stroke-width:0.215px;}.cls-14,.cls-15,.cls-16,.cls-17,.cls-18,.cls-19,.cls-21,.cls-23{stroke-miterlimit:10;}.cls-15{fill:#faeb1a;}.cls-16{fill:#ffc828;}.cls-17{fill:#f5a7c3;}.cls-20{fill:#221f1f;}.cls-21{fill:#848689;}.cls-22{clip-path:url(#clip-path);}.cls-23{fill:#ffeec0;stroke:#9b4d9c;stroke-width:1.444px;}</style><linearGradient id="linear-gradient" x1="2195.779" y1="18.666" x2="2234.027" y2="106.961" gradientTransform="matrix(-1.114, 0, 0, 1, 2549.449, 0)" gradientUnits="userSpaceOnUse"><stop offset="0" stop-color="#fff"/><stop offset="1" stop-color="#565759"/></linearGradient><linearGradient id="linear-gradient-2" x1="2164.67" y1="23.612" x2="2165.885" y2="120.428" gradientTransform="matrix(-1.114, 0, 0, 1, 2549.449, 0)" gradientUnits="userSpaceOnUse"><stop offset="0" stop-color="#adaeb1"/><stop offset="0.315" stop-color="#fff"/><stop offset="1" stop-color="#565759"/></linearGradient><clipPath id="clip-path"><rect class="cls-1" x="14" y="224" width="132" height="132"/></clipPath></defs><polygon class="cls-2" points="120.889 125.479 56.481 116.715 32.404 119.189 92.586 130.102 120.889 125.479"/><polygon class="cls-3" points="89.971 117.952 88.959 123.545 59.984 118.906 62.61 114.859 89.971 117.952"/><polygon class="cls-4" points="92.586 130.102 92.395 132.112 32.65 120.607 32.404 119.189 92.586 130.102"/><polygon class="cls-4" points="120.889 125.479 121.053 126.716 92.395 132.112 92.586 130.102 120.889 125.479"/><path class="cls-5" d="M134.515,24.024V123L19.38,111.044,19.6,23.575l106.3-.29S135.773,19.675,134.515,24.024Z"/><polygon class="cls-6" points="25.837 27.699 126.635 30.21 126.274 108.586 24.635 100.987 25.837 27.699"/><polygon class="cls-7" points="126.635 30.21 126.415 112.075 22.226 102.796 23.539 27.699 126.635 30.21"/><path class="cls-8" d="M134.515,22.322s5.909,1.084,5.909,2.527v85.989l-1.149,8.145L134.515,123Z"/><polygon class="cls-9" points="27.972 108.466 28.054 109.317 25.837 109.162 25.673 108.08 27.972 108.466"/><polygon class="cls-10" points="24.606 107.693 24.852 108.776 22.718 108.466 22.636 107.461 24.606 107.693"/><polygon class="cls-7" points="126.388 117.514 126.306 118.442 124.418 118.364 124.418 117.436 126.388 117.514"/><polygon class="cls-7" points="122.695 117.282 122.695 117.9 120.807 117.823 120.807 117.05 122.695 117.282"/><polygon class="cls-11" points="124.445 107.538 25.29 99.496 22.445 103.62 126.415 112.075 126.635 107.538 124.445 107.538"/><polygon class="cls-11" points="25.837 27.699 25.29 99.496 22.445 103.62 23.539 27.699 25.837 27.699"/><g class="cls-12"><path class="cls-13" d="M126.084,30.884v76.183l-40.822-2.28,26.138-6.4S30.831,91.043,28.064,62.926,126.084,30.884,126.084,30.884Z"/></g><path class="cls-14" d="M66.359,72.693s-5.094,3.9-5.908,4.8-4.483,4.681-5.637,6.121-3.328,6.3-1.7,8.762a7.338,7.338,0,0,0,4.482,2.94s-2.784-.36-3.056.36S52.165,97,51.554,97.238s-4.482.9-.951,1.5,5.773-.72,9.1-.3,4.143,1.14,5.909.3,3.192-.48,5.3-.42,2.853-1.02,5.773-1.02,5.026.78,5.093-.66-4.482-2.341-4.55-3.961a19.906,19.906,0,0,0-.815-6.121c-.747-1.86-3.939-1.08-5.976-2.1s-2.377-4.08-2.377-5.46a55.826,55.826,0,0,1,.883-5.881l-1.63-.781Z"/><path class="cls-15" d="M61.4,61.592s-3.26-1.761-3.712-2.961,1.449-.32-.544-2.16-3.078-2.481-2.626-4.241,1.721-2.481.634-4.081-2.173-3.12-2.173-3.12,4.256.56,4.89,1.52.271,2.32,1.449,2.08,4.8,2.241,5.7.56-1.811-4.16-1.72-4.961,1.268-.72,1.449-2.8-.725-2.56-.362-3.441,3.078-2.64,2.988-3.84-.091-2.161-.091-2.161,2.264,2.881,1.992,4.561-2.445,1.68.725,2.881,4.8-.64,5.071,1.52-.091,3.681,1.72,2.88,3.35-3.2,4.618-3.2,2.355.8,4.437-.48.362-2.481,4.437-1.761,4.437-1.68,4.89-.56-.453,2.081-1.087,3.361-.543,3.04-1.267,4.081-3.079,2.16-3.351,2.88-.543,3.281,1.449,2.8,2.988-.961,3.8-.16,2.9-.48,4.89-.4,6.339.96,5.252,1.92-5.071,1.76-5.433,3.44-.362,2.4-2.717,2.721-2.354.96-3.169,1.84-.453,2.8-3.169,3.6a49.935,49.935,0,0,1-7.607,1.2s-.362-9.2-4.8-10.162-15.665,6.882-15.665,6.882Z"/><path class="cls-16" d="M72.539,74.234s-6.338-2.241-8.874-6.721S58.5,51.27,72,49.829,84.039,62.872,82.228,66.792,74.079,74.634,72.539,74.234Z"/><path class="cls-17" d="M67.31,71.373s-.951,1.32.271,1.8a2.243,2.243,0,0,0,2.242-.541Z"/><path class="cls-14" d="M65.612,72.693s-4.822,3.6-5.909,5.1-2.377,2.821-2.512,6,1.562,5.521,1.833,5.581a6.593,6.593,0,0,0,1.427-.24l.747-.3a5.355,5.355,0,0,1-1.562-6.361,34.822,34.822,0,0,1,5.908-8.821C66.155,72.993,66.97,72.093,65.612,72.693Z"/><path class="cls-14" d="M68.94,73.834s.951,6.181,2.377,5.521,2.241-2.521,2.784-3.121a5.924,5.924,0,0,0,.679-.84l1.562.42s-2.309,4.141-2.988,5.161-1.086,2.52-2.377,1.74-2.988-4.621-2.988-4.621Z"/><path class="cls-17" d="M74.95,75.364s.509-.45-.2-.96-1.765-1.23-1.222-1.441,1.324.691,1.324.691.034-1.981.374-1.831.475,1.591.475,1.591S76,71.463,76.75,71.853s-.034,1.951-.034,1.951,1.969-.9,1.664-.3a3.834,3.834,0,0,1-1.46,1.14l-.578,1.17-1.426-.33Z"/><path class="cls-18" d="M68.091,67.923s-1.868-.15-1.936-.51,1.664-1.231,2.241-1.051,1.427.63,1.223,1.111S68.091,67.923,68.091,67.923Z"/><path class="cls-18" d="M77.87,69.6s-1.358-.3-1.256-.84,1.392-.54,2.173-.24,1.257.6.917.87A4.882,4.882,0,0,1,77.87,69.6Z"/><path class="cls-19" d="M71.622,71.223s2,.54,2.14,0,.475-3.39,1.358-4.621a9.913,9.913,0,0,1,4.177-3.21,14.949,14.949,0,0,1,3.905-.78"/><path class="cls-19" d="M66.274,62.3a7.792,7.792,0,0,1,.882-.591,2.572,2.572,0,0,1,.436-.209,2.287,2.287,0,0,1,.629-.1,2.362,2.362,0,0,1,1.039.157,1.052,1.052,0,0,1,.644.7"/><ellipse class="cls-20" cx="68.329" cy="67.428" rx="0.407" ry="0.375"/><ellipse class="cls-20" cx="78.651" cy="69.348" rx="0.407" ry="0.315"/><path class="cls-21" d="M70.5,71.283a1.84,1.84,0,0,0,1.833.93c1.461,0,1.7-.18,1.7-.18S72.743,73.384,72,73.114,70.5,71.283,70.5,71.283Z"/><path class="cls-17" d="M60.79,88.746s2.105-.12,2.411.18-.119.435-.119.435l-1.341.135s.645.21.645.72a.523.523,0,0,1-.407.571s.271.3-.068.45a1.2,1.2,0,0,1-.578.12s-.135.54-.407.66a.94.94,0,0,1-1.189-.51c-.237-.6.646-.09.646-.09s-.306-.93-.374-1.08-.645-1.111-.645-1.111l1.426-.36Z"/><path class="cls-19" d="M60.619,90.1a.758.758,0,0,1,.313.314c.071.128.088.273.153.4.1.206.466.674.13.436"/><path class="cls-19" d="M61.083,89.762l.471.342a.463.463,0,0,1,.076.063.47.47,0,0,1,.062.1l.262.5"/><path class="cls-19" d="M57.223,95.287q1.785-.015,3.569-.016a7.546,7.546,0,0,1,1.427.091,7.124,7.124,0,0,1,2.156.93"/><path class="cls-19" d="M68.11,92.691a4.036,4.036,0,0,1,2.46,1.682,3.228,3.228,0,0,1,.367,2.729"/><path class="cls-19" d="M70.8,49.861a.833.833,0,0,1-.319-.848.947.947,0,0,1,.694-.65c.1-.025.211-.044.259-.122s0-.188-.009-.284c-.01-.15.1-.285.13-.433.068-.321-.243-.609-.569-.764a3.521,3.521,0,0,1-.951-.491c-.25-.241-.269-.708.072-.832"/><path class="cls-19" d="M71.913,45.693a5.891,5.891,0,0,0-.786-1.143,1.254,1.254,0,0,1-.238-1.269c.057-.11.142-.208.193-.32.205-.455-.195-.952-.653-1.227"/><path class="cls-19" d="M70.245,39.754c.316.719.77,1.542,1.631,1.669a1.513,1.513,0,0,1,.522.106.823.823,0,0,1,.241.24,2.834,2.834,0,0,1,.629,1.187c.034.21.016.426.065.634a1.157,1.157,0,0,0,.574.725c.192.106.415.165.6.28a1.178,1.178,0,0,1,.471,1.3,3.115,3.115,0,0,1-.782,1.253"/><path class="cls-19" d="M75.367,49.472a3.02,3.02,0,0,1-.029-.915A.632.632,0,0,1,75.669,48a.817.817,0,0,1,.324-.04,6.924,6.924,0,0,1,.9.071.414.414,0,0,0,.213-.007.3.3,0,0,0,.143-.159,2.643,2.643,0,0,0,.269-.853"/><path class="cls-19" d="M85.44,47.79a3.28,3.28,0,0,1-.137-1.021.342.342,0,0,1,.059-.218c.139-.165.455-.056.655-.162.177-.093.192-.31.188-.492l-.027-1.11a.506.506,0,0,1,.043-.269c.106-.189.394-.213.633-.212l1.624.006a.382.382,0,0,0,.272-.067.288.288,0,0,0,.068-.168l.2-1.211"/><path class="cls-19" d="M82.5,53.038l.8-.066a1.408,1.408,0,0,0,.588-.133,1.035,1.035,0,0,0,.4-.932,1.238,1.238,0,0,1,.309-.974,1.769,1.769,0,0,1,1.224-.191.593.593,0,0,0,.373-.061.473.473,0,0,0,.159-.245l.3-.787"/><path class="cls-19" d="M61.2,57.207q-.813-.549-1.565-1.163a1.13,1.13,0,0,1-.335-.37c-.143-.311.048-.656.222-.954s.333-.666.139-.954c-.17-.252-.534-.327-.831-.459s-.571-.455-.383-.7"/><path class="cls-19" d="M90.265,58.293a13.214,13.214,0,0,0,1.489.064.743.743,0,0,0,.275-.039.663.663,0,0,0,.216-.169l.7-.735a1.367,1.367,0,0,1,.555-.407,1.569,1.569,0,0,1,.816.046l.785.186a1.124,1.124,0,0,0,.477.043c.158-.033.3-.159.282-.3"/><path class="cls-19" d="M92.2,53.554a.376.376,0,0,1,.031-.625,1.4,1.4,0,0,1,.785-.182,1.985,1.985,0,0,1,1.288.275c.108.087.193.2.31.273a.9.9,0,0,0,.886-.012,1.433,1.433,0,0,0,.568-.645c.166-.336.351-.771.765-.787a1.067,1.067,0,0,1,.73.407.843.843,0,0,0,.768.3"/><g class="cls-12"><path class="cls-13" d="M126.021,30.124V107.13l-17.985-1.267,15.7-7.852s-34.2-51.928-91.95-59.781C3.911,34.439,126.021,30.124,126.021,30.124Z"/></g><g class="cls-22"><path class="cls-23" d="M43.949,290.525l-6.4,4.655s-19.667-20.8-20.242-40.228c-.7-23.773,10.544-44.195,20.171-47.1a164.419,164.419,0,0,0,19.135-7.344s-19.045-1.937-22.417-5.247-2.3-11.618-2.3-11.618S34.375,193.1,49.74,193.9c5.568.29,15.745.681,18.361.967s-4,1.9-5.792-7.735,1.568-19.712,1.568-19.712-2.584,11.559,3.888,15.628a102.265,102.265,0,0,1,10.359,7.334s-2.026-6-.761-9.721-.922-11.767-.922-11.767,6.153,12.339,6.434,15.92,7.321-12.489,8.305-19.788,2.914-22.406,2.914-22.406,6.983,9.691,5.6,18.569,4.2-7.58,22.489-5.062,36.244,6.61,41.917,12.81,9.559,9.465,19.427,9.63,20.016-5.127,33.712,3.224c15.519,9.462,13.229,25.115,13.229,25.115s-4.376-8.141-16.745-13.754-13.5-.079-13.5-.079S213.477,209.94,220.7,216s34.761,6.74,34.761,6.74,1,6.094-9.742,8.066a100.552,100.552,0,0,1-16.445,1.957l15.145,7.944a54.93,54.93,0,0,1,13.249,10.172s-14.908-4.875-20.735-6.425,10.487,8.792,11.449,21.071-2.217,23.967-2.572,26.059-7.229-19.457-7.229-19.457,3.182,14.145-2.954,21.9-14.278,5.948-22.9,12.309-15,29.2-15,29.2,8.557-58.516,6.651-62.986-.647-14.882-15.833-23.338-17.017-18.6-25.774-17.831-21.677,1.385-30.2-1.474-22.037-3.22-25.128-2.949-19.5,2.74-26.7,10.068S63.556,256.05,62.927,261.256s-7.044,61.6-7.044,61.6S52.1,293.435,43.949,290.525Z"/></g></svg>