<svg id="word" xmlns="http://www.w3.org/2000/svg" viewBox="0 0 160 160"><defs><style>.cls-1,.cls-7{fill:#fdeadf;}.cls-1,.cls-2,.cls-3,.cls-4,.cls-5,.cls-6,.cls-7,.cls-8,.cls-9{stroke:#9d4b9c;stroke-miterlimit:10;}.cls-1,.cls-2,.cls-3,.cls-4,.cls-5,.cls-6,.cls-7,.cls-8{stroke-width:0.567px;}.cls-2{fill:#633a95;}.cls-3{fill:#ee6295;}.cls-4{fill:#fff;}.cls-5{fill:#524b49;}.cls-6{fill:#ffd65a;}.cls-7{stroke-linecap:round;}.cls-8{fill:#00a59b;}.cls-9{fill:none;stroke-width:1.417px;}.cls-10{fill:#9d4b9c;}.cls-11{fill:#9c4c9c;}</style></defs><path class="cls-1" d="M95.352,94.914s4.335,6.2,4.8,6.67,4.87,3.269,8.138,5.2c2.217,1.312,6.4,7.538,7.071,8.671a45.01,45.01,0,0,0,4.669,5.937c.467.2,2,1.334.867,2s-3.6-.133-4-.8-6.337-5.8-6.937-6.27-7.671-5.27-9.139-6.471-6.87-4.669-7.671-5.269-6.6-4.6-6.6-4.6Z"/><path class="cls-1" d="M68.537,98.449s-4.87,5.736-4.136,7.137,2.535,2.935,3.335,5.27S70.8,123.663,70.8,123.663s-2.2,2.335-3.268,1.468S59,110.856,58.464,108.855a16.15,16.15,0,0,1-.667-5.6c.2-1.4,2.735-7,2.735-7Z"/><path class="cls-2" d="M86.28,83.174a4.049,4.049,0,0,0,1.534,2.4c1.134.6,5.069,4.469,6.537,6.4a14.082,14.082,0,0,1,2,3.468,21.063,21.063,0,0,1-8.138,5.2c-5.47,2.068-9.272,3.335-14.208,1.268s-14.208-5.2-14.208-5.2,2-4,2.869-5.4,1.867-1.935,1.067-2.669-2.535-2-.6-2.734a4.714,4.714,0,0,0,2.6-2.468s6.6,4.335,9.272,4.269S86.28,83.174,86.28,83.174Z"/><path class="cls-3" d="M64.681,134.068a7.146,7.146,0,0,0-2.215-2.667,11.863,11.863,0,0,0-3.637-1.371c2.277-1.268,5.822-3.028,6.239-4.1.467-1.2.6-2.468,1.467-2.468a12.33,12.33,0,0,1,3,.934l1.468-2.535s1.934.133,1.934,1.334a18.927,18.927,0,0,0,.467,3.669c.189.82.508,1.528.814,3.014a26.291,26.291,0,0,1-7.951,3.856C65.752,133.849,65.218,133.96,64.681,134.068Z"/><path class="cls-4" d="M64.681,134.068c.537-.108,1.071-.219,1.588-.333a26.291,26.291,0,0,0,7.951-3.856c.018.085.036.163.053.254.334,1.735-3.735,3.8-6,4.47s-8.2,1.734-9.806.6c-.012-.008-.022-.018-.034-.027,1.352-.214,3.835-.623,6.251-1.108"/><path class="cls-4" d="M58.064,130.467c.23-.137.49-.284.765-.437a11.863,11.863,0,0,1,3.637,1.371,7.146,7.146,0,0,1,2.215,2.667c-2.416.485-4.9.894-6.251,1.108C56.851,134.033,55.945,131.725,58.064,130.467Z"/><path class="cls-3" d="M115.763,123c0-1.267,1.734.534,1.734.534s.734-.6,1.534-1.2,1.935.4,1.935.2.267-.8.667-.8,1.134,1.267,1.334,1.8a15.422,15.422,0,0,0,3.469,3.869,6.944,6.944,0,0,1,1.707,2.257c-1.636-.417-4.282-.916-5.776-.256-1.732.763-3.421,2.962-4.125,3.961a19.182,19.182,0,0,1-1.478-5.962C116.7,125.464,115.763,124.263,115.763,123Z"/><path class="cls-4" d="M122.367,129.4c1.494-.66,4.14-.161,5.776.256a11.872,11.872,0,0,1,.761,1.878,2.823,2.823,0,0,1-.867,3.135c-.868.734-6.938,1.268-8.472.467a3.771,3.771,0,0,1-1.323-1.775C118.946,132.362,120.635,130.163,122.367,129.4Z"/><path class="cls-5" d="M48.525,60.361,52.061,74.5s1.2,3.269-1.8,4.069-2.669-6.6-2.669-6.6L45.857,60.494Z"/><path class="cls-1" d="M62.6,68.566,59.8,72.1s-5.87-4.4-6.337-4.736-.733-1.935-1.4-2.868a5.587,5.587,0,0,0-2.6-1.735c-.734-.267-2.2-1.667-2.068-.533S48.459,63.9,48.725,64.9s.934,3.2,1.868,3.935,8.138,8.072,8.672,8.338,3.468.667,4.4-.4,3-6.8,3-6.8Z"/><path class="cls-1" d="M78.742,56.559s-1.7,6.3-2.1,6.7-4.9,2.8-5.3,1.4,0-8.2,0-8.2Z"/><path class="cls-1" d="M90.249,37.148s-2.2,6.8-2.1,9.1A12.582,12.582,0,0,1,75.941,58.36c-10.306.7-14.508-10.406-15.309-12.507s-1.9-13.308,1.4-15.709,7-4.4,14.308-2.4S90.449,33.046,90.249,37.148Z"/><path class="cls-6" d="M60.932,23.84s6.7-6.4,13.908-5.4,13.808,3.5,16.409,6.7,6.1,7.4,5,12.907a47.358,47.358,0,0,1-5,12.507,10.172,10.172,0,0,1-1.9,2.068s-2.735,1.735-2.935-.267,3.936-11.606,3.235-13.607-.4-4.6-8.7-5.7-15.008-2.6-15.008-2.6-3.3-1.3-3.2,1.9.1,1.6-1,4.8-1.1,8.4-1.1,8.7-2.6-.1-4-3.8-2.7-4.3-1.6-8.905S57.53,24.641,60.932,23.84Z"/><path class="cls-6" d="M91.754,49.962c.251,2.77,1.624,5.7,4.224,6.689a14.44,14.44,0,0,0,2.64.573,17.957,17.957,0,0,1,4.312,1.344,2.311,2.311,0,0,1,.779.5,2.386,2.386,0,0,1,.356.584,15.584,15.584,0,0,1,1.508,4.53,20.291,20.291,0,0,1-.345,5.948c.19-1.345-1.229-2.313-2.471-2.861q-1.517-.669-3.085-1.211a27.252,27.252,0,0,1,1.412,2.857l-4.708-2.082a15.545,15.545,0,0,1-2.866-1.517,9.739,9.739,0,0,1-3.681-7.466c-.13-2.868-1.281-4.828,1.886-8.323"/><path class="cls-6" d="M60.132,46.486c-.757,1.6.077,3.532.806,5.147s1.617,3.286,1.43,5.049c-.171,1.621-1.227,3-1.75,4.545a7.271,7.271,0,0,0,1.5,7.1,5.33,5.33,0,0,1,1.614-2.243c1.91-2.063,3.26-6.18,2.667-8.928-.945-4.382-5.64-6.553-6.121-11.01"/><path class="cls-7" d="M78.467,49.539a1.905,1.905,0,0,0-2.84-.3"/><path class="cls-7" d="M86.287,41.459a1.073,1.073,0,0,0-.618-.743,5.9,5.9,0,0,0-2.783-.8c-.5-.016-1.129.145-1.2.638"/><path class="cls-7" d="M72.243,39.742A4.806,4.806,0,0,0,67,39.8"/><path class="cls-7" d="M78.615,52.386a6.978,6.978,0,0,1-2.471.668A4.845,4.845,0,0,1,71.8,50.681"/><path class="cls-8" d="M79.343,59.46s5.8,1.6,6.2,3,.9,11.607.6,12.507-.1-.2.1,1.6a17.638,17.638,0,0,1,0,4,4.92,4.92,0,0,0,.9,2.7,3.715,3.715,0,0,1-1.5,2.8c-1.6,1.4-4.4,3.9-8.7,3.1s-9.105-3.7-10.606-4.1-1-2.6-.5-3.4-.5-1.2-.1-2.6,1.1-1.7.8-2.9a26.3,26.3,0,0,1-.6-4.9c0-1.3-1.3-.5-1.3-.5l-3.6-2.2a36.964,36.964,0,0,1,3.5-6.1c2-2.7,2.7-2.3,4.3-2.9a20.95,20.95,0,0,1,2.5-.8,27.943,27.943,0,0,0,1.4,4c.4.5.9,1.2.9,1.2l3.1-4.3,1.6-1.3S79.943,58.66,79.343,59.46Z"/><path class="cls-1" d="M73.739,68.365S69.47,71.9,69.07,71.9s-6.6-1.468-8.872-1.868A36.168,36.168,0,0,1,54.729,68.5c-.734-.267-2.6-3.135-4.136-3.469s-4.4-.667-4.8.067a5.672,5.672,0,0,0-.266,2.468c0,.4.467,1.668.467,2s.066,1.868.133,2.2,1.668,1.2,1.668,1.2-.467-1.934.133-2.068a10.017,10.017,0,0,0,1.734-.734A5.2,5.2,0,0,0,51.994,71.9a28.62,28.62,0,0,0,3.8.133S65.8,77.3,67.336,77.17s10.206-5,10.206-5S77.475,69.7,76.474,69.1A7.681,7.681,0,0,0,73.739,68.365Z"/><path class="cls-8" d="M80.076,60.761s2.668-1.934,4.87-.6,2.6,4.336.467,6.67A24.888,24.888,0,0,1,80.877,70.7c-.867.667-.8,1.668-1.935,2.6s-3,.266-3-.067,1.534-1.534-.2-2.535a19.006,19.006,0,0,0-3.469-1.534s2.134-2.2,3.535-3.736S80.076,60.761,80.076,60.761Z"/><path class="cls-1" d="M88.748,44.685s2.268-.733,2.268,1.134-.2,4.269-1.735,4.536a3.032,3.032,0,0,1-2.4-.467"/><path class="cls-1" d="M60.8,42.884c-.193-.052-3.535-1.867-3.4,1.068s1.067,3.335,1.868,4.469,2.735-.134,2.868-.467"/><path class="cls-1" d="M48.657,68.645a3.646,3.646,0,0,0-1.761.211,1.673,1.673,0,0,0-.672.425.815.815,0,0,0-.2.742"/><path class="cls-1" d="M48.4,67.1a4.11,4.11,0,0,0-1.48.159,1.4,1.4,0,0,0-.955,1.055"/><path class="cls-1" d="M48.109,65.814a2.388,2.388,0,0,0-2.816,1.271"/><path class="cls-9" d="M48.525,60.361a33.47,33.47,0,0,0,4.936-4.2c1.268-1.6,4.069-6.537,2.2-10.873s-6.6-6.6-12.407-6.737-11.273,4-11.807,7.6,3.135,9.539,6,10.673,8.405,3.668,8.405,3.668Z"/><path class="cls-10" d="M43.322,39.483s.221,1.25.553,3.125.716,4.384,1.1,6.892c.37,2.511.736,5.023.982,6.911l.395,3.149s-.221-1.25-.553-3.125-.715-4.384-1.1-6.892c-.37-2.512-.736-5.023-.982-6.911Z"/><path class="cls-10" d="M41.053,39.483l.517,2.927c.3,1.758.664,4.107,1.024,6.457.341,2.353.678,4.706.9,6.475s.359,2.951.359,2.951l-.517-2.927c-.3-1.758-.664-4.107-1.024-6.457-.34-2.353-.677-4.706-.9-6.476Z"/><path class="cls-10" d="M38.784,39.483s.2,1.1.491,2.76.629,3.874.968,6.09c.32,2.22.636,4.44.845,6.109s.333,2.784.333,2.784l-.491-2.761c-.285-1.658-.628-3.873-.967-6.09-.32-2.219-.636-4.439-.845-6.108S38.784,39.483,38.784,39.483Z"/><path class="cls-10" d="M36.619,40.45s.183,1.008.459,2.521.584,3.538.9,5.562c.3,2.028.586,4.056.776,5.581l.3,2.545-.459-2.521c-.267-1.514-.584-3.538-.9-5.563-.295-2.027-.585-4.055-.776-5.581S36.619,40.45,36.619,40.45Z"/><path class="cls-10" d="M34.617,41.817l.4,2.2c.229,1.323.5,3.093.761,4.863.245,1.774.486,3.547.638,4.882s.239,2.226.239,2.226l-.4-2.2c-.229-1.323-.5-3.093-.76-4.863-.245-1.774-.486-3.547-.638-4.882Z"/><path class="cls-10" d="M52.661,41.517l.37,1.927c.214,1.157.461,2.706.7,4.255.224,1.553.444,3.106.581,4.275l.213,1.95L54.158,52c-.213-1.157-.46-2.706-.7-4.255-.224-1.553-.444-3.106-.581-4.275Z"/><path class="cls-10" d="M50.26,40.083s.181,1.019.453,2.547.577,3.575.887,5.62c.291,2.049.578,4.1.765,5.638l.3,2.571s-.182-1.019-.454-2.547-.577-3.575-.887-5.621c-.29-2.048-.577-4.1-.764-5.638S50.26,40.083,50.26,40.083Z"/><path class="cls-10" d="M47.86,39.483l.517,2.927c.3,1.758.664,4.107,1.024,6.457.341,2.353.678,4.706.9,6.475l.359,2.951-.517-2.927c-.3-1.758-.664-4.107-1.024-6.457-.34-2.353-.677-4.706-.9-6.476S47.86,39.483,47.86,39.483Z"/><path class="cls-10" d="M45.591,39.483l.548,3.078c.319,1.848.708,4.318,1.093,6.789.365,2.474.727,4.948.97,6.808l.39,3.1-.548-3.078c-.319-1.848-.708-4.319-1.092-6.789-.366-2.474-.727-4.948-.97-6.808S45.591,39.483,45.591,39.483Z"/><path class="cls-10" d="M55.663,49.088l-3.6.048c-2.158.02-5.034.009-7.911-.007-2.877-.034-5.753-.073-7.91-.13l-3.595-.111,3.6-.049c2.158-.02,5.035-.008,7.911.007,2.877.035,5.753.074,7.911.131Z"/><path class="cls-10" d="M54.662,51.424l-3.44.037c-2.064.014-4.816-.006-7.568-.029-2.751-.043-5.5-.09-7.566-.154l-3.438-.121,3.44-.038c2.064-.014,4.816.006,7.568.03,2.751.043,5.5.09,7.566.153Z"/><path class="cls-10" d="M54.662,53.693l-3.18.042c-1.907.017-4.451,0-6.994-.019-2.543-.039-5.086-.082-6.993-.142l-3.178-.117,3.18-.043c1.908-.017,4.451,0,6.994.019,2.543.04,5.086.083,6.993.143Z"/><path class="cls-10" d="M54.662,55.962l-2.893.047c-1.736.02-4.05.008-6.364-.007-2.313-.035-4.627-.074-6.362-.132l-2.891-.112,2.893-.048c1.736-.019,4.05-.007,6.363.008,2.314.036,4.628.075,6.363.132Z"/><path class="cls-10" d="M53.4,42.351l-3.024.053c-1.813.023-4.232.016-6.65,0-2.418-.03-4.835-.065-6.649-.119l-3.022-.106,3.024-.054c1.814-.023,4.232-.015,6.65,0,2.418.031,4.836.065,6.649.119Z"/><path class="cls-10" d="M54.662,44.751l-3.44.037c-2.064.014-4.816-.006-7.568-.029-2.751-.043-5.5-.09-7.566-.154l-3.438-.121,3.44-.038c2.064-.014,4.816.006,7.568.03,2.751.043,5.5.09,7.566.153Z"/><path class="cls-10" d="M55.729,47.053l-3.607.033c-2.164.01-5.049-.014-7.934-.041-2.885-.048-5.77-.1-7.933-.166l-3.605-.126,3.607-.033c2.164-.011,5.049.014,7.934.041,2.885.048,5.77.1,7.933.166Z"/><path class="cls-6" d="M62.533,27.943a9.982,9.982,0,0,0,3.6,5.8,27.433,27.433,0,0,0,5.737,3s-2.435-2.9-2.535-3.2,1.4,3.3,7.4,3.3h9.5s-4.4-.3-5.5-1.7-3.7-1.7-1.1-1.4a22.407,22.407,0,0,1,5.9,1.7c1.3.5,3.5,1.4,4,2.3s4.7,3.3,4.7,3.3-1.6-3.2-3.1-5.7a18.021,18.021,0,0,0-2.8-3.7l8.805,1.4s-5.1-1.9-9.906-4.2a33.431,33.431,0,0,0-14.308-3.7C68.236,25.141,62.533,27.943,62.533,27.943Z"/><path class="cls-4" d="M81.3,44.613a2.025,2.025,0,0,1,1.675-2.4c2.01-.279,2.233,1.954,2.177,3.405a2.038,2.038,0,0,1-2.233,2.01C82.133,47.4,81.3,45.618,81.3,44.613Z"/><path class="cls-11" d="M82.735,45.457a1.2,1.2,0,0,1,.992-1.422c1.191-.165,1.323,1.158,1.29,2.017a1.208,1.208,0,0,1-1.323,1.191C83.231,47.111,82.735,46.052,82.735,45.457Z"/><path class="cls-4" d="M68.088,42.612a2.025,2.025,0,0,1,1.675-2.4c2.009-.279,2.233,1.954,2.177,3.4a2.039,2.039,0,0,1-2.233,2.01C68.925,45.4,68.088,43.617,68.088,42.612Z"/><path class="cls-11" d="M69.528,43.456a1.2,1.2,0,0,1,.992-1.422c1.19-.165,1.322,1.158,1.289,2.017a1.207,1.207,0,0,1-1.322,1.191C70.024,45.11,69.528,44.051,69.528,43.456Z"/></svg>