<svg id="word" xmlns="http://www.w3.org/2000/svg" viewBox="0 0 160 160"><defs><style>.cls-1{fill:#d1ba95;}.cls-2{fill:#9ddaf7;}.cls-10,.cls-11,.cls-12,.cls-2,.cls-4,.cls-5{stroke:#9c4c9c;}.cls-10,.cls-11,.cls-2,.cls-3{stroke-width:0.315px;}.cls-3{fill:#307c80;stroke:#963793;}.cls-4,.cls-6{fill:#f3daac;}.cls-12,.cls-4,.cls-5{stroke-miterlimit:10;stroke-width:0.357px;}.cls-5{fill:#9bbdac;}.cls-7{fill:#9c4c9c;}.cls-13,.cls-8{fill:#fff;}.cls-8{opacity:0.4;}.cls-9{fill:#5684ac;opacity:0.25;}.cls-10{fill:#c89776;}.cls-11{fill:none;}.cls-12{fill:#c5b38f;}</style></defs><path class="cls-1" d="M10.677,93.961s-7.423,1.3-1.563,4.548,21.854-.114,19.142,2.273c-3.321,2.924-5.274,5.522,3.711,6.5s25.587-.974,27.931,1.137,14.258,1.787,18.36,1.137,40.822,1.949,42.189-.974-6.785-7.078-.39-6.334c9.766,1.137,20.118.325,27.736-.65s9.766-7.308-11.915-7.47S10.677,93.961,10.677,93.961Z"/><path class="cls-2" d="M148.855,67.328l-2.726,13.248-43-.278-.2-3.474s18.492-9.125,27.008-9.4S148.855,67.328,148.855,67.328Z"/><path class="cls-3" d="M102.6,80.39c-1.246,1.294,6.8-6.264,21.5-10.24,14.793-4,25.429-1.143,25.535-1.114l.779-3.045c-.461-.128-11.455-3.116-27.069,1.109s-20.926,9.632-21.144,9.86Z"/><rect class="cls-4" x="102.757" y="81.317" width="42.663" height="16.119" transform="translate(248.177 178.752) rotate(-180)"/><rect class="cls-5" x="102.826" y="80.251" width="43.286" height="1.575" transform="translate(248.937 162.077) rotate(-180)"/><line class="cls-6" x1="142.499" y1="68.532" x2="142.499" y2="79.834"/><path class="cls-7" d="M142.5,68.533c.147,1.883.157,3.767.178,5.651-.021,1.883-.03,3.767-.178,5.65-.149-1.883-.158-3.767-.179-5.65C142.341,72.3,142.351,70.416,142.5,68.533Z"/><line class="cls-6" x1="136.196" y1="68.532" x2="136.196" y2="79.834"/><path class="cls-7" d="M136.2,68.533c.148,1.883.158,3.767.179,5.651-.021,1.883-.03,3.767-.179,5.65-.149-1.883-.157-3.767-.178-5.65C136.039,72.3,136.049,70.416,136.2,68.533Z"/><line class="cls-6" x1="129.894" y1="68.532" x2="129.894" y2="79.834"/><path class="cls-7" d="M129.894,68.533c.148,1.883.157,3.767.179,5.651-.021,1.883-.03,3.767-.179,5.65-.149-1.883-.158-3.767-.179-5.65C129.737,72.3,129.746,70.416,129.894,68.533Z"/><line class="cls-6" x1="124.017" y1="68.671" x2="124.017" y2="79.973"/><path class="cls-7" d="M124.017,68.671c.148,1.884.158,3.768.179,5.651-.021,1.884-.03,3.768-.179,5.651-.149-1.883-.158-3.767-.178-5.651C123.86,72.439,123.87,70.555,124.017,68.671Z"/><line class="cls-6" x1="117.715" y1="71.682" x2="117.715" y2="79.973"/><path class="cls-7" d="M117.715,71.682c.148,1.382.157,2.764.178,4.146-.02,1.382-.029,2.763-.178,4.145-.149-1.382-.158-2.763-.179-4.145C117.558,74.446,117.567,73.064,117.715,71.682Z"/><line class="cls-6" x1="111.413" y1="73.767" x2="111.413" y2="79.973"/><path class="cls-7" d="M111.413,73.767a27.136,27.136,0,0,1,0,6.206,26.985,26.985,0,0,1,0-6.206Z"/><rect class="cls-2" x="125.731" y="82.984" width="17.972" height="12.877" transform="translate(269.434 178.844) rotate(-180)"/><polygon class="cls-8" points="126.102 83.881 142.421 91.639 126.968 83.174 126.032 83.198 126.102 83.881"/><polygon class="cls-9" points="143.597 92.244 126.102 84.159 126.032 90.451 143.422 95.755 143.597 92.244"/><rect class="cls-2" x="106.694" y="82.984" width="17.972" height="12.877" transform="translate(231.36 178.844) rotate(-180)"/><polygon class="cls-8" points="107.064 83.881 123.384 91.639 107.93 83.174 106.995 83.198 107.064 83.881"/><polygon class="cls-9" points="124.559 92.244 107.064 84.159 106.995 90.451 124.385 95.755 124.559 92.244"/><path class="cls-2" d="M11.452,67.05,14.177,80.3l43-.278.2-3.474s-18.492-9.125-27.008-9.4S11.452,67.05,11.452,67.05Z"/><path class="cls-3" d="M57.706,80.112c1.246,1.3-6.8-6.264-21.5-10.239-14.794-4-25.429-1.144-25.535-1.115L9.9,65.714c.46-.129,11.455-3.117,27.068,1.108s20.927,9.632,21.144,9.86Z"/><rect class="cls-4" x="14.887" y="81.039" width="42.663" height="16.119"/><rect class="cls-5" x="14.195" y="79.973" width="43.286" height="1.575"/><path class="cls-7" d="M17.808,68.255c.148,1.883.158,3.767.179,5.651-.021,1.883-.03,3.767-.179,5.651-.149-1.884-.158-3.768-.178-5.651C17.651,72.022,17.661,70.138,17.808,68.255Z"/><path class="cls-7" d="M24.111,68.255c.147,1.883.157,3.767.178,5.651-.021,1.883-.03,3.767-.178,5.651-.149-1.884-.158-3.768-.179-5.651C23.953,72.022,23.963,70.138,24.111,68.255Z"/><path class="cls-7" d="M30.413,68.255c.147,1.883.157,3.767.178,5.651-.02,1.883-.029,3.767-.178,5.651-.149-1.884-.158-3.768-.179-5.651C30.256,72.022,30.265,70.138,30.413,68.255Z"/><path class="cls-7" d="M36.29,68.394c.147,1.883.157,3.767.178,5.65-.021,1.884-.03,3.768-.178,5.651-.149-1.883-.158-3.767-.179-5.651C36.132,72.161,36.142,70.277,36.29,68.394Z"/><path class="cls-7" d="M42.592,71.4c.148,1.382.157,2.764.178,4.146-.02,1.382-.029,2.764-.178,4.145-.149-1.381-.158-2.763-.179-4.145C42.435,74.168,42.444,72.786,42.592,71.4Z"/><path class="cls-7" d="M48.894,73.489a26.985,26.985,0,0,1,0,6.206,25.222,25.222,0,0,1-.178-3.1A25.622,25.622,0,0,1,48.894,73.489Z"/><rect class="cls-2" x="16.604" y="82.706" width="17.972" height="12.877"/><polygon class="cls-8" points="34.205 83.603 17.886 91.361 33.339 82.896 34.275 82.92 34.205 83.603"/><polygon class="cls-9" points="16.71 91.966 34.205 83.881 34.275 90.173 16.885 95.478 16.71 91.966"/><rect class="cls-2" x="35.641" y="82.706" width="17.972" height="12.877"/><polygon class="cls-8" points="53.242 83.603 36.923 91.361 52.376 82.896 53.312 82.92 53.242 83.603"/><polygon class="cls-9" points="35.747 91.966 53.242 83.881 53.312 90.173 35.922 95.478 35.747 91.966"/><polygon class="cls-4" points="102.851 107.626 64.776 107.348 57.596 98.686 57.596 69.042 102.989 69.042 102.851 107.626"/><path class="cls-2" d="M57.041,68.486V42.918a75.211,75.211,0,0,1,21.29-3.15A84.05,84.05,0,0,1,102.3,43.219l.046,25.452Z"/><path class="cls-3" d="M55.466,40.926l1.528,2.5A74.307,74.307,0,0,1,80.2,39.675a63.437,63.437,0,0,1,22.164,4.377l1.668-2.709S94.86,37.174,80.687,37.1A85.774,85.774,0,0,0,55.466,40.926Z"/><line class="cls-4" x1="64.359" y1="41.25" x2="64.359" y2="68.208"/><line class="cls-4" x1="70.661" y1="41.25" x2="70.661" y2="68.208"/><line class="cls-4" x1="76.964" y1="41.25" x2="76.964" y2="68.208"/><line class="cls-4" x1="83.266" y1="41.25" x2="83.266" y2="68.208"/><line class="cls-4" x1="89.569" y1="41.25" x2="89.569" y2="68.208"/><line class="cls-4" x1="95.871" y1="42.223" x2="95.871" y2="68.208"/><line class="cls-4" x1="57.226" y1="46.994" x2="101.322" y2="46.994"/><line class="cls-4" x1="57.226" y1="53.296" x2="101.322" y2="53.296"/><line class="cls-4" x1="57.226" y1="59.598" x2="101.322" y2="59.598"/><line class="cls-4" x1="57.226" y1="65.901" x2="101.322" y2="65.901"/><rect class="cls-2" x="69.972" y="87.978" width="31.683" height="19.479"/><rect class="cls-10" x="67.889" y="86.37" width="35.469" height="2.545"/><polygon class="cls-9" points="69.669 99.175 101.609 91.245 101.598 88.999 69.669 89.099 69.669 99.175"/><line class="cls-11" x1="80.553" y1="88.981" x2="80.553" y2="106.856"/><rect class="cls-10" x="79.119" y="97.415" width="0.662" height="3.081"/><rect class="cls-10" x="81.37" y="97.349" width="0.662" height="3.08"/><rect class="cls-10" x="90.012" y="96.915" width="0.665" height="3.079"/><rect class="cls-10" x="92.262" y="96.846" width="0.664" height="3.08"/><line class="cls-11" x1="91.553" y1="88.915" x2="91.553" y2="106.92"/><polygon class="cls-12" points="56.994 97.621 64.776 107.348 64.915 80.807 57.272 80.529 56.994 97.621"/><rect class="cls-3" x="49.815" y="68.393" width="58.918" height="12.228"/><path class="cls-13" d="M54.379,72.838H53.5v-.619H56v.619h-.89v2.641h-.735Z"/><path class="cls-13" d="M57.132,72.219v3.26H56.4v-3.26Z"/><path class="cls-13" d="M57.769,72.267a5.834,5.834,0,0,1,.981-.072,1.631,1.631,0,0,1,1.055.261.818.818,0,0,1,.3.682.864.864,0,0,1-.575.8v.015a.81.81,0,0,1,.435.6c.1.373.2.8.261.924h-.754a4.409,4.409,0,0,1-.223-.759c-.091-.411-.232-.518-.537-.523H58.5v1.282h-.73Zm.73,1.4h.29c.368,0,.586-.184.586-.469s-.2-.45-.542-.45a1.5,1.5,0,0,0-.334.024Z"/><path class="cls-13" d="M60.633,72.267a5.987,5.987,0,0,1,.992-.072,2.122,2.122,0,0,1,1.339.348,1.434,1.434,0,0,1,.552,1.228,1.668,1.668,0,0,1-.537,1.321,2.359,2.359,0,0,1-1.509.421,6.153,6.153,0,0,1-.837-.049Zm.735,2.656a1.435,1.435,0,0,0,.257.014A1.015,1.015,0,0,0,62.737,73.8.942.942,0,0,0,61.7,72.761a1.537,1.537,0,0,0-.334.029Z"/><path class="cls-13" d="M63.791,75.083l1.553-2.24v-.015H63.931v-.609H66.3v.426l-1.518,2.2v.02h1.543v.609h-2.53Z"/><path class="cls-13" d="M66.781,75.479v-3.26h.861l.677,1.2a10.392,10.392,0,0,1,.532,1.117h.01a13.316,13.316,0,0,1-.058-1.364v-.948h.677v3.26h-.774l-.7-1.258a11.7,11.7,0,0,1-.566-1.151h-.019c.024.435.034.9.034,1.427v.982Z"/><path class="cls-13" d="M70.853,72.219v3.26h-.735v-3.26Z"/><path class="cls-13" d="M73.429,74.1h-1.2v.774H73.57v.6H71.5v-3.26H73.5v.6H72.229V73.5h1.2Z"/><path class="cls-13" d="M76.458,75.387a2.16,2.16,0,0,1-.832.14,1.553,1.553,0,0,1-1.707-1.634A1.657,1.657,0,0,1,75.7,72.17a2.023,2.023,0,0,1,.8.141l-.155.585a1.551,1.551,0,0,0-.619-.121,1.069,1.069,0,0,0,.005,2.138,1.754,1.754,0,0,0,.619-.106Z"/><path class="cls-13" d="M77.944,71.537v.392H76.691v-.392Zm-.261.682v3.26h-.735v-3.26Z"/><path class="cls-13" d="M78.319,72.267a5.833,5.833,0,0,1,.953-.072,1.806,1.806,0,0,1,.963.183.71.71,0,0,1,.387.644.741.741,0,0,1-.533.691v.01a.812.812,0,0,1,.649.8.854.854,0,0,1-.339.692,2.061,2.061,0,0,1-1.282.3,5.558,5.558,0,0,1-.8-.049Zm.731,1.243h.242c.391,0,.594-.159.594-.4s-.188-.378-.522-.378a1.333,1.333,0,0,0-.314.025Zm0,1.447a1.6,1.6,0,0,0,.285.014c.334,0,.629-.131.629-.474s-.3-.459-.663-.459H79.05Z"/><path class="cls-13" d="M81.971,74.642l-.227.837h-.765l1-3.26h.962l1.017,3.26h-.794l-.251-.837Zm.827-.551-.2-.692c-.053-.193-.111-.44-.159-.629h-.015c-.044.194-.1.44-.145.629l-.2.692Z"/><path class="cls-13" d="M84.409,74.72a1.877,1.877,0,0,0,.818.2c.338,0,.517-.14.517-.353s-.155-.32-.546-.455c-.542-.194-.9-.493-.9-.968,0-.556.469-.977,1.234-.977a1.9,1.9,0,0,1,.831.165l-.164.59a1.524,1.524,0,0,0-.677-.155c-.319,0-.474.15-.474.314,0,.208.179.3.6.46.576.213.842.513.842.973,0,.546-.416,1.01-1.311,1.01a2.124,2.124,0,0,1-.924-.2Z"/><path class="cls-13" d="M90.358,75.387a2.16,2.16,0,0,1-.832.14,1.553,1.553,0,0,1-1.707-1.634A1.657,1.657,0,0,1,89.6,72.17a2.023,2.023,0,0,1,.8.141l-.155.585a1.551,1.551,0,0,0-.619-.121,1.069,1.069,0,0,0,0,2.138,1.754,1.754,0,0,0,.619-.106Z"/><path class="cls-13" d="M92.782,74.1h-1.2v.774h1.339v.6H90.848v-3.26h2.007v.6H91.583V73.5h1.2Z"/><path class="cls-13" d="M93.421,75.479v-3.26h.861l.677,1.2a10.212,10.212,0,0,1,.533,1.117H95.5a13.607,13.607,0,0,1-.058-1.364v-.948h.678v3.26h-.775l-.7-1.258a11.7,11.7,0,0,1-.566-1.151h-.02c.025.435.035.9.035,1.427v.982Z"/><path class="cls-13" d="M97.388,72.838h-.881v-.619h2.506v.619h-.89v2.641h-.735Z"/><path class="cls-13" d="M99.4,72.267a5.847,5.847,0,0,1,.982-.072,1.629,1.629,0,0,1,1.054.261.819.819,0,0,1,.305.682.864.864,0,0,1-.575.8v.015a.81.81,0,0,1,.435.6c.1.373.2.8.261.924h-.755a4.443,4.443,0,0,1-.222-.759c-.092-.411-.232-.518-.537-.523h-.218v1.282H99.4Zm.73,1.4h.29c.368,0,.586-.184.586-.469s-.2-.45-.542-.45a1.51,1.51,0,0,0-.334.024Z"/><path class="cls-13" d="M102.289,74.72a1.869,1.869,0,0,0,.817.2c.339,0,.518-.14.518-.353s-.155-.32-.547-.455c-.541-.194-.9-.493-.9-.968,0-.556.469-.977,1.234-.977a1.908,1.908,0,0,1,.832.165l-.164.59a1.526,1.526,0,0,0-.678-.155c-.319,0-.474.15-.474.314,0,.208.179.3.6.46.575.213.842.513.842.973,0,.546-.416,1.01-1.312,1.01a2.119,2.119,0,0,1-.923-.2Z"/></svg>