<svg id="word" xmlns="http://www.w3.org/2000/svg" xmlns:xlink="http://www.w3.org/1999/xlink" viewBox="0 0 160 160"><defs><style>.cls-1,.cls-7{fill:#6b786b;}.cls-10,.cls-11,.cls-14,.cls-15,.cls-16,.cls-17,.cls-2,.cls-22,.cls-23,.cls-24,.cls-26,.cls-27,.cls-4,.cls-43,.cls-44,.cls-45,.cls-46,.cls-47,.cls-48,.cls-49,.cls-6,.cls-7,.cls-8,.cls-9{stroke:#9c4c9c;}.cls-14,.cls-15,.cls-16,.cls-17,.cls-2,.cls-22,.cls-23,.cls-24,.cls-26,.cls-27,.cls-35,.cls-37,.cls-39,.cls-4,.cls-40,.cls-41,.cls-42,.cls-43,.cls-44,.cls-45,.cls-46,.cls-47,.cls-48,.cls-49,.cls-7{stroke-width:0.297px;}.cls-2{fill:url(#radial-gradient);}.cls-3{fill:#38423a;}.cls-4{fill:url(#radial-gradient-2);}.cls-5{fill:#d7e168;}.cls-6{fill:#f3daac;stroke-width:0.593px;}.cls-11,.cls-26,.cls-27,.cls-43,.cls-44,.cls-45,.cls-46,.cls-47,.cls-48,.cls-49,.cls-6,.cls-8,.cls-9{stroke-miterlimit:10;}.cls-8{fill:#889586;}.cls-11,.cls-8,.cls-9{stroke-width:0.741px;}.cls-9{fill:#4f4e4e;}.cls-10{fill:#d9bd4c;stroke-width:0.504px;}.cls-11{fill:#c6d931;}.cls-12{fill:#fff;}.cls-13{fill:#652f8e;}.cls-14{fill:#c1c2c3;}.cls-15{fill:#fdf9ce;}.cls-16{fill:url(#radial-gradient-3);}.cls-17{fill:url(#radial-gradient-4);}.cls-18{fill:#ef602b;}.cls-19{fill:#801619;opacity:0.21;}.cls-20{fill:#7e4f47;}.cls-21{fill:#ee392a;}.cls-22{fill:#fcee4b;}.cls-23{fill:url(#radial-gradient-5);}.cls-24{fill:url(#radial-gradient-6);}.cls-25{fill:#963793;}.cls-26{fill:#c0b399;}.cls-27{fill:#d7cdb1;}.cls-28{fill:#e5b482;}.cls-29{fill:#cfa77d;}.cls-30{fill:#231f20;}.cls-31{fill:#e5ac80;}.cls-32{fill:#cd9c79;}.cls-33{fill:#e6c79e;}.cls-34{fill:url(#radial-gradient-7);}.cls-35{fill:#92be50;}.cls-35,.cls-37,.cls-39,.cls-40{stroke:#799d41;}.cls-36,.cls-40{fill:#add372;}.cls-37{fill:#9dcb57;}.cls-38{fill:none;}.cls-39{fill:#b9d98c;}.cls-41{fill:#e1d2a5;}.cls-41,.cls-42{stroke:#963793;}.cls-42{fill:#c8a98c;}.cls-43{fill:#87c661;}.cls-44{fill:#c1976b;}.cls-45{fill:#8c80bb;}.cls-46{fill:#f27921;}.cls-47{fill:#ea1858;}.cls-48{fill:#8ca859;}.cls-49{fill:#ffc906;}</style><radialGradient id="radial-gradient" cx="79.866" cy="-605.19" r="11.015" gradientTransform="matrix(0.813, -0.123, 0.148, 0.977, 147.462, 683.391)" gradientUnits="userSpaceOnUse"><stop offset="0.004" stop-color="#e5eecb"/><stop offset="0.406" stop-color="#c0c78a"/><stop offset="0.782" stop-color="#779f54"/><stop offset="0.982" stop-color="#52753b"/></radialGradient><radialGradient id="radial-gradient-2" cx="81.406" cy="-609.031" r="0.705" gradientTransform="matrix(0.813, -0.123, 0.148, 0.977, 147.583, 684.193)" gradientUnits="userSpaceOnUse"><stop offset="0" stop-color="#c0c78a"/><stop offset="0.982" stop-color="#7c7248"/></radialGradient><radialGradient id="radial-gradient-3" cx="63.9" cy="-611.509" r="14.702" gradientTransform="matrix(0.813, -0.123, 0.148, 0.977, 147.661, 684.711)" xlink:href="#radial-gradient"/><radialGradient id="radial-gradient-4" cx="65.956" cy="-616.637" r="0.941" gradientTransform="matrix(0.813, -0.123, 0.148, 0.977, 147.823, 685.782)" xlink:href="#radial-gradient-2"/><radialGradient id="radial-gradient-5" cx="-637.122" cy="3440.02" r="11.224" gradientTransform="matrix(0.22, 0.792, -1.073, 0.298, 3954.119, -437.176)" xlink:href="#radial-gradient"/><radialGradient id="radial-gradient-6" cx="-635.553" cy="3436.106" r="0.718" gradientTransform="matrix(0.22, 0.792, -1.073, 0.298, 3953.221, -436.927)" xlink:href="#radial-gradient-2"/><radialGradient id="radial-gradient-7" cx="-560.993" cy="3245.932" r="4.895" gradientTransform="matrix(0.362, 1.086, -1.163, 0.388, 4072.829, -537.205)" gradientUnits="userSpaceOnUse"><stop offset="0.004" stop-color="#e9e6bc"/><stop offset="1" stop-color="#afd370"/></radialGradient></defs><polygon class="cls-1" points="41.769 62.423 38.014 62.562 34.121 67.012 34.121 61.589 31.617 61.589 31.617 66.235 28.419 62.284 24.942 62.423 31.617 70.249 31.617 93.851 34.121 93.851 34.121 70.679 41.769 62.423"/><polygon class="cls-1" points="82.118 62.423 78.364 62.562 74.47 67.012 74.47 61.589 71.967 61.589 71.967 66.235 68.768 62.284 65.292 62.423 71.967 70.249 71.967 93.851 74.47 93.851 74.47 70.679 82.118 62.423"/><polygon class="cls-1" points="134.266 62.215 130.512 62.354 126.618 66.804 126.618 61.38 124.115 61.38 124.115 66.027 120.916 62.076 117.44 62.215 124.115 70.04 124.115 93.642 126.618 93.642 126.618 70.47 134.266 62.215"/><path class="cls-2" d="M124.607,78.5a6.234,6.234,0,0,1,3.534,1.519,5.431,5.431,0,0,1,1.912,5.591c-.418,2.33-2.33,4.717-4.281,5.2s-4.755.242-6.007-1.289a6.3,6.3,0,0,1-1.788-4.551c.107-2.486.727-4.153,2.272-5.182A6.422,6.422,0,0,1,124.607,78.5Z"/><path class="cls-3" d="M124.522,79.358s.856.209,1.038.587.228.8.356.809.647.02.455.287a.522.522,0,0,0,.17.769c.278.178.625.227.348.641s-.47.443-.263.75.206.764.428.815.38.264.183.5-.4.3-.323.472.223.287.33.525.178.345.113.507-.1-.053-.162.346a1,1,0,0,1-.388.634c-.093.1-.08.181.07.345a.6.6,0,0,1-.087.724.489.489,0,0,0-.105.489,7.834,7.834,0,0,1-.26,1,.674.674,0,0,1-.443.507,6.1,6.1,0,0,0-.768.382s.833-1.61.983-1.92.145-.581-.075-.733-.645-.241-.233-.473.518-.484.355-.73-.36-.369-.077-.868.23-.492-.01-.777-.576-.369-.331-.525.52-.231.213-.489-.53-.309-.3-.564.12-.508.2-1.13a1.979,1.979,0,0,0-.453-1.336,5.226,5.226,0,0,1-.206-.882C125.175,79.648,124.522,79.358,124.522,79.358Z"/><path class="cls-3" d="M123.862,79.492s-.087.723.091.832.382.162.187.411-.657-.086-.405.282.563.168.35.539-.467.341-.247.494.54.02.352.2-.32-.1-.31.436.158.332.108.593-.185.434-.2.572-.24.307.145.6,1.091-.132.543.391-.69.409-.687.781a.7.7,0,0,0,.25.588c.107.119.37.316.3.6s.407.327.31.511-1.241,3.32-1.241,3.32a14.239,14.239,0,0,1,.046-3.291c.257-.428.355-.494.007-1.253a1.623,1.623,0,0,1-.155-1.381c.092-.335-.3-.886-.3-.886s.443-.388.16-.718-.793-.269-.675-.439a3.1,3.1,0,0,1,.383-.667c.26-.293-.043-.636.192-.858s.4.261.325-.336-.205-.528-.048-.788A2.516,2.516,0,0,1,123.862,79.492Z"/><path class="cls-3" d="M122.739,79.526s-.5.5-.249.833.3.547-.2.588-.467.105-.442.507a4.239,4.239,0,0,1-.193.977c-.04.327.043.518.173.549s.41-.248.192.089-.452.086-.435.32-.04.09.113.389a1.881,1.881,0,0,1,.105,1.05c-.067.027.233.353.3.445s-.507.314-.542.437a7,7,0,0,0,.18.954c.06.4-.215.473-.287.822s-.223.659-.238.8-.29-.261-.34-.828-.673-.9-.25-1.18.052-.245.23-.847a1.6,1.6,0,0,0,0-1.033c-.04-.265-.083-.191.132-.426s.695-.376.1-.506-.668-.508-.393-.584.307-.1.427-.487-.112-.507.135-.765.365-.309.407-.62-.31-.274.11-.575a2.372,2.372,0,0,0,.633-.671Z"/><path class="cls-4" d="M123.686,78.792s-.979.164-.676.389a1.556,1.556,0,0,0,1.357-.02C124.608,78.973,124.525,78.742,123.686,78.792Z"/><path class="cls-3" d="M124.915,79.036a18.138,18.138,0,0,1,1.878.773c.338.22.3.7.465.826s.261-.056.386.534.6.67.69,1.012.34.118.493.416.012.083-.1.54-.375.716.086.8.062.413.027.537a1.785,1.785,0,0,0,.095.747c.075.141.24.522.16.7s-.5.008-.32.37a.75.75,0,0,0,.511.413.587.587,0,0,0-.3.417c-.045.294-.133.426-.1.608s-.245.392-.333.524-.122.374-.2.453a1.534,1.534,0,0,1-.207.167s.062-.415.157-.5-.64.147-.315-.071.605-.261.573-.594a1.261,1.261,0,0,0-.181-.6c-.137-.317-.47.088-.17-.533s.328-.675.263-.75-.3-.073-.305-.36a4.971,4.971,0,0,1,.127-.814c.043-.311-.265-.332-.155-.67s.525.039.145-.58-.625-.819-.64-.919a4.586,4.586,0,0,1-.016-.572,1.633,1.633,0,0,0-.31-1.1,3.808,3.808,0,0,1-.674-.739A6.993,6.993,0,0,0,124.915,79.036Z"/><path class="cls-3" d="M122.607,79.242a7.6,7.6,0,0,1-1.043.682c-.417.2-.392.364-.442.625a.529.529,0,0,1-.428.37c-.087.013-.412-.124-.387.16s-.15.547-.17.77-.305.469-.09.47.61-.227.372.1-.565.289-.619.635-.528,1.484-.315,1.706.3.09.16.348-.333.287-.278.769a3.019,3.019,0,0,0,.316,1.137c.107.119-.721-.855-.611-1.43a4.761,4.761,0,0,0,.01-1.237c0-.457-.288-.481-.115-.76a1.9,1.9,0,0,0,.24-.663c.02-.1.272.027.3-.384s-.1-.424.032-.613.1-.658.468-.934.74-.67,1-.845a7.766,7.766,0,0,1,.93-.716A4.442,4.442,0,0,1,122.607,79.242Z"/><path class="cls-3" d="M125.465,78.843s.994.3,1.382.382a6.106,6.106,0,0,1,1.481,1.126c.145.131.116.308.273.4s.085-.03.228.2.38.619.515.8,0,.151.165.5.458.54.5.8-.287.23-.215.71.278.415.22.863a6.485,6.485,0,0,0-.069.958,4.805,4.805,0,0,1-.09.589s-.071-1.647-.063-1.835-.343-.608-.193-.918.343-.339.042-.666-.457-.3-.522-.851-.461-.675-.558-.847-.833-.415-.923-.773-.113-.661-.361-.64-.152-.145-.524-.241A10.092,10.092,0,0,1,125.465,78.843Z"/><path class="cls-3" d="M122.248,79.1a1.141,1.141,0,0,0-.309.124,2.143,2.143,0,0,1-.5.214c-.252.081-.286.035-.484.168s-.108.248-.356.355-.183-.007-.31.055-.081.193-.239.286-.167.1-.311.176-.007.07-.227.361a4.031,4.031,0,0,0-.379.565,3.636,3.636,0,0,0-.384.712,4.661,4.661,0,0,1-.276.644,10.163,10.163,0,0,1,.351-1.051c.12-.233.455-.9.533-.993a4.531,4.531,0,0,1,1-.916,4.34,4.34,0,0,1,1.332-.641C122.149,79.042,122.248,79.1,122.248,79.1Z"/><path class="cls-5" d="M34.825,111.584s-11.761.573-13.069,8.942c-.8,5.109,8.8,10.721,20.921,12.552,11.23,1.7,37.363-2.774,45.918-2.159,48.226,3.467,65.988.587,57.989-8.389-14.3-16.039-37.537-10.047-40.011-10.5S34.825,111.584,34.825,111.584Z"/><rect class="cls-6" x="30.366" y="93.99" width="100.541" height="26.7"/><rect class="cls-7" x="22.161" y="59.92" width="113.613" height="2.781"/><polygon class="cls-8" points="47.47 39.617 69.581 60.476 138.973 60.059 108.936 40.869 47.47 39.617"/><path class="cls-9" d="M20.353,59.086l27.256-19.33L70.137,60.615l-49.088.139S17.016,61.172,20.353,59.086Z"/><rect class="cls-10" x="27.167" y="91.348" width="106.243" height="5.006"/><polygon class="cls-11" points="49.904 39.587 47.609 39.587 47.384 35.404 49.869 35.796 49.904 39.587"/><polygon class="cls-11" points="108.24 40.73 105.946 40.73 105.946 37.474 108.316 36.058 108.24 40.73"/><path class="cls-11" d="M108.578,36.45c1.873,2.483-61.324-.392-61.324-.392-.477-5.31-5.548-7.915.355-14.519,0,0,42.663-5.748,61.187,0C111,22.222,106.7,33.968,108.578,36.45Z"/><path class="cls-12" d="M106.355,34.227l-57.14-.392s-2.317-7.965,1.83-10.2c6.8-3.661,56.242-3.816,54.525,1.046S106.355,34.227,106.355,34.227Z"/><path class="cls-13" d="M62.028,26.3H60.217V25.022H65.4V26.3H63.559v5.464H62.028Z"/><path class="cls-13" d="M68.746,25.022v6.745H67.215V25.022Z"/><path class="cls-13" d="M71.069,25.113a13.292,13.292,0,0,1,2.032-.14,3.435,3.435,0,0,1,2.181.53,1.712,1.712,0,0,1,.621,1.41,1.789,1.789,0,0,1-1.191,1.662v.03a1.7,1.7,0,0,1,.9,1.26c.21.761.42,1.641.55,1.9H74.6a8.48,8.48,0,0,1-.471-1.571c-.18-.841-.47-1.071-1.09-1.081H72.58v2.652H71.069Zm1.511,2.9h.6c.761,0,1.211-.38,1.211-.97,0-.62-.421-.931-1.121-.941a3.819,3.819,0,0,0-.691.05Z"/><path class="cls-13" d="M83.6,31.457a7.558,7.558,0,0,1-2.252.38,3.759,3.759,0,0,1-2.742-.911,3.264,3.264,0,0,1-.95-2.451c.01-2.242,1.641-3.523,3.852-3.523a4.65,4.65,0,0,1,1.872.33L83.061,26.5a3.718,3.718,0,0,0-1.571-.291A2.041,2.041,0,0,0,79.259,28.4a2.209,2.209,0,0,0,2.872,2.111V29.1H81.09V27.9H83.6Z"/><path class="cls-13" d="M87.319,25.022v3.883c0,1.161.439,1.752,1.22,1.752.8,0,1.242-.561,1.242-1.752V25.022H91.3v3.783c0,2.081-1.051,3.072-2.812,3.072-1.7,0-2.7-.941-2.7-3.092V25.022Z"/><path class="cls-13" d="M93.677,30.2a3.9,3.9,0,0,0,1.692.42c.7,0,1.07-.29,1.07-.73,0-.421-.321-.661-1.131-.951-1.121-.39-1.851-1.01-1.851-1.991,0-1.151.961-2.032,2.552-2.032a4.136,4.136,0,0,1,1.721.341l-.341,1.23a3.22,3.22,0,0,0-1.411-.32c-.66,0-.98.3-.98.651,0,.43.381.62,1.251.95C97.44,28.205,98,28.825,98,29.776c0,1.131-.871,2.091-2.723,2.091a4.416,4.416,0,0,1-1.911-.41Z"/><rect class="cls-14" x="96.025" y="79.992" width="1.36" height="7.292"/><polygon class="cls-14" points="90.898 91.25 102.025 91.18 101.944 87.061 90.775 87.061 90.898 91.25"/><path class="cls-14" d="M100.008,82.011l1.525-4.384s.641-2.341-.482-3.022-7.783-.383-7.783-.383-1.4.3-1.4,1.575c0,.81,1.524,6.342,1.524,6.342Z"/><rect class="cls-15" x="93.709" y="76.248" width="6.117" height="2.145"/><path class="cls-16" d="M111.455,74.369a8.326,8.326,0,0,1,4.717,2.028,7.246,7.246,0,0,1,2.552,7.463c-.557,3.11-3.11,6.3-5.714,6.938s-6.347.323-8.018-1.72A8.4,8.4,0,0,1,102.605,83c.143-3.319.971-5.544,3.033-6.917A8.568,8.568,0,0,1,111.455,74.369Z"/><path class="cls-3" d="M111.342,75.516s1.142.278,1.386.783.3,1.061.474,1.08.864.027.608.383a.7.7,0,0,0,.226,1.027c.371.237.835.3.465.855s-.628.592-.351,1,.274,1.019.571,1.087.508.353.244.664-.537.4-.43.629.3.384.44.7.237.461.151.677-.13-.07-.217.462a1.328,1.328,0,0,1-.518.846c-.123.132-.106.242.094.46a.807.807,0,0,1-.116.967.654.654,0,0,0-.14.653,10.44,10.44,0,0,1-.347,1.34.9.9,0,0,1-.591.676,8.145,8.145,0,0,0-1.026.511s1.112-2.15,1.313-2.564.193-.775-.1-.978-.861-.321-.31-.631.691-.647.473-.975-.48-.492-.1-1.158.307-.656-.014-1.037-.768-.493-.44-.7.694-.308.283-.653-.708-.412-.4-.752.16-.679.273-1.509a2.631,2.631,0,0,0-.605-1.783,7.15,7.15,0,0,1-.274-1.178C112.214,75.9,111.342,75.516,111.342,75.516Z"/><path class="cls-3" d="M110.461,75.694s-.116.966.121,1.111.51.216.25.549-.878-.115-.541.376.751.225.467.719-.623.456-.329.66.72.026.47.267-.427-.138-.414.582.21.443.144.791-.247.58-.267.764-.32.409.194.806,1.455-.175.724.522-.921.546-.917,1.043a.933.933,0,0,0,.333.784c.144.159.494.423.408.8s.544.437.414.682-1.656,4.432-1.656,4.432-.283-3.822.06-4.393.474-.659.01-1.673a2.174,2.174,0,0,1-.208-1.843c.124-.447-.393-1.182-.393-1.182s.59-.519.213-.958-1.058-.359-.9-.586a4.183,4.183,0,0,1,.511-.891c.347-.391-.057-.849.257-1.145s.531.349.434-.449-.274-.7-.064-1.052A3.374,3.374,0,0,1,110.461,75.694Z"/><path class="cls-3" d="M108.962,75.74s-.664.665-.333,1.112.4.73-.264.785-.624.14-.59.677a5.676,5.676,0,0,1-.257,1.3c-.054.437.057.692.23.733s.548-.331.257.119-.6.115-.581.427-.053.121.151.519a2.517,2.517,0,0,1,.14,1.4c-.09.037.311.473.4.595s-.678.418-.724.584a9.316,9.316,0,0,0,.24,1.273c.081.53-.287.631-.383,1.1s-.3.88-.317,1.064-.387-.348-.454-1.106-.9-1.2-.335-1.575.071-.327.308-1.13a2.135,2.135,0,0,0,.006-1.379c-.053-.353-.11-.254.177-.569s.927-.5.137-.675-.892-.678-.525-.779.411-.13.571-.651-.15-.677.18-1.021.487-.412.544-.827-.414-.366.146-.768a3.181,3.181,0,0,0,.845-.895Z"/><path class="cls-17" d="M110.225,74.76s-1.306.219-.9.519a2.078,2.078,0,0,0,1.812-.026C111.456,75,111.346,74.694,110.225,74.76Z"/><path class="cls-3" d="M111.867,75.086a24.174,24.174,0,0,1,2.506,1.032c.451.293.4.933.621,1.1s.347-.075.514.712.805.895.922,1.351.454.157.657.555.017.111-.129.72-.5.957.113,1.067.084.552.037.717a2.381,2.381,0,0,0,.127,1c.1.188.321.7.214.939s-.668.01-.427.493a1,1,0,0,0,.681.552.78.78,0,0,0-.394.556c-.06.393-.177.569-.14.812s-.327.524-.444.7-.163.5-.267.6a2.124,2.124,0,0,1-.277.223s.083-.555.21-.664-.854.2-.42-.1.807-.348.764-.793a1.683,1.683,0,0,0-.241-.8c-.183-.423-.627.118-.227-.711s.437-.9.351-1-.4-.1-.408-.48a6.747,6.747,0,0,1,.17-1.088c.057-.414-.354-.442-.207-.894s.7.052.194-.774-.835-1.094-.855-1.226a5.989,5.989,0,0,1-.02-.765,2.183,2.183,0,0,0-.414-1.472,5.041,5.041,0,0,1-.9-.987A9.341,9.341,0,0,0,111.867,75.086Z"/><path class="cls-3" d="M108.786,75.361a10.357,10.357,0,0,1-1.392.911c-.558.265-.524.485-.591.834a.7.7,0,0,1-.571.493c-.117.017-.55-.165-.517.214s-.2.73-.227,1.028-.407.626-.12.627.814-.3.5.128-.755.385-.828.848-.7,1.981-.42,2.277.4.12.213.464-.444.384-.37,1.027a4.04,4.04,0,0,0,.421,1.517c.144.159-.962-1.141-.815-1.909a6.351,6.351,0,0,0,.013-1.65c0-.61-.384-.642-.153-1.015a2.534,2.534,0,0,0,.32-.885c.026-.139.364.036.4-.512s-.133-.567.044-.819.13-.878.623-1.246.988-.895,1.336-1.128a10.463,10.463,0,0,1,1.241-.956A5.964,5.964,0,0,1,108.786,75.361Z"/><path class="cls-3" d="M112.6,74.828s1.327.408,1.844.51a8.173,8.173,0,0,1,1.977,1.5c.194.174.154.41.365.537s.113-.04.3.269.507.827.687,1.071.007.2.221.666.611.721.664,1.074-.384.307-.287.947.371.553.294,1.152a8.78,8.78,0,0,0-.093,1.279,6.251,6.251,0,0,1-.12.786s-.094-2.2-.084-2.449-.457-.811-.257-1.226.457-.453.056-.889-.61-.4-.7-1.136-.615-.9-.745-1.13-1.111-.554-1.232-1.032-.151-.882-.481-.855-.2-.193-.7-.321A13.455,13.455,0,0,1,112.6,74.828Z"/><path class="cls-3" d="M108.306,75.165a1.538,1.538,0,0,0-.412.166,2.866,2.866,0,0,1-.674.286c-.336.108-.382.046-.647.224s-.144.332-.475.474-.244-.009-.414.074-.107.257-.319.381-.222.137-.414.235-.01.094-.3.482a5.3,5.3,0,0,0-.505.754,4.878,4.878,0,0,0-.512.951,6.205,6.205,0,0,1-.369.859,13.494,13.494,0,0,1,.468-1.4c.16-.311.608-1.2.711-1.324a6.091,6.091,0,0,1,1.334-1.224,5.775,5.775,0,0,1,1.779-.855C108.174,75.094,108.306,75.165,108.306,75.165Z"/><path class="cls-18" d="M55.9,78.766a.652.652,0,0,0,.287.092,1.281,1.281,0,0,1,.826.262,1.18,1.18,0,0,1,.39.6,1.549,1.549,0,0,1-.248,1.055,1.848,1.848,0,0,1-.9.745c-.22.092-.345.492-.628.322a2.494,2.494,0,0,0-.394-.242c-.085-.017-.128,0-.2-.046s-.151-.126-.223-.134a1.374,1.374,0,0,1-.595-.251c-.153-.15-.065-.611-.119-.813a1.751,1.751,0,0,1,.1-1.446.909.909,0,0,1,1.256-.387C55.9,78.7,55.9,78.766,55.9,78.766Z"/><path class="cls-19" d="M55.665,78.954s.007.124.194.21a1.244,1.244,0,0,0,.311.129c.124.022.3.032.255-.062A.956.956,0,0,0,56,78.967C55.876,78.929,55.585,78.822,55.665,78.954Z"/><path class="cls-20" d="M55.952,79.22s.048-.057.035-.267-.038-.467-.027-.5a.621.621,0,0,0,.017-.109l.157-.019s0,.1,0,.233a2.092,2.092,0,0,1-.048.354c-.017.089-.027.346-.027.346Z"/><path class="cls-18" d="M49.172,80.8a.856.856,0,0,0,.2-.34,1.67,1.67,0,0,1,.566-.983,1.535,1.535,0,0,1,.872-.331,2.029,2.029,0,0,1,1.28.611,2.419,2.419,0,0,1,.7,1.352c.056.307.533.579.236.893a3.28,3.28,0,0,0-.418.436c-.045.1-.036.164-.115.245s-.2.158-.233.248a1.816,1.816,0,0,1-.487.69c-.235.154-.8-.087-1.073-.074a2.3,2.3,0,0,1-1.821-.527,1.189,1.189,0,0,1-.143-1.714C49.088,80.787,49.172,80.8,49.172,80.8Z"/><path class="cls-19" d="M49.345,81.151s.161.026.323-.189a1.642,1.642,0,0,0,.252-.361c.062-.153.124-.373-.009-.345s-.373.328-.455.474S49.155,81.216,49.345,81.151Z"/><path class="cls-20" d="M49.765,80.858s-.059-.077-.33-.119-.608-.081-.643-.1a.878.878,0,0,0-.136-.052l.021-.206s.126.023.3.064a2.853,2.853,0,0,1,.439.16c.109.047.434.131.434.131Z"/><path class="cls-21" d="M45.093,80.714a.65.65,0,0,0,.29-.079,1.289,1.289,0,0,1,.838-.226,1.169,1.169,0,0,1,.65.291,1.552,1.552,0,0,1,.364,1.022,1.852,1.852,0,0,1-.35,1.11c-.136.2-.024.6-.354.611a2.414,2.414,0,0,0-.462.011c-.081.031-.108.069-.2.07a.716.716,0,0,0-.26.008,1.364,1.364,0,0,1-.636.111c-.21-.043-.386-.478-.541-.619a1.753,1.753,0,0,1-.7-1.268.908.908,0,0,1,.847-1C45.052,80.663,45.093,80.714,45.093,80.714Z"/><path class="cls-19" d="M45,81a.284.284,0,0,0,.277.071,1.246,1.246,0,0,0,.331-.059c.116-.049.269-.135.181-.191a.955.955,0,0,0-.5.01C45.159,80.865,44.857,80.932,45,81Z"/><path class="cls-20" d="M45.38,81.068s.01-.074-.114-.243-.286-.372-.293-.4a.65.65,0,0,0-.045-.1l.123-.1s.056.08.127.2a2.161,2.161,0,0,1,.151.323c.034.084.164.3.164.3Z"/><path class="cls-21" d="M51.958,80.645a.865.865,0,0,0,.2-.34,1.673,1.673,0,0,1,.565-.981,1.537,1.537,0,0,1,.87-.331,2.024,2.024,0,0,1,1.277.61,2.41,2.41,0,0,1,.7,1.349c.056.307.532.578.236.891a3.345,3.345,0,0,0-.418.436c-.045.1-.036.163-.115.244s-.2.158-.232.247a1.8,1.8,0,0,1-.486.689c-.234.154-.8-.086-1.071-.074a2.294,2.294,0,0,1-1.817-.526,1.186,1.186,0,0,1-.143-1.71C51.874,80.636,51.958,80.645,51.958,80.645Z"/><path class="cls-19" d="M52.131,81s.16.026.322-.188a1.677,1.677,0,0,0,.251-.361c.062-.152.123-.372-.009-.343s-.372.327-.454.472S51.941,81.065,52.131,81Z"/><path class="cls-20" d="M52.55,80.707s-.06-.077-.33-.119-.607-.081-.642-.1a.752.752,0,0,0-.135-.052l.02-.206s.126.023.3.064a2.642,2.642,0,0,1,.438.16c.108.046.433.13.433.13Z"/><path class="cls-21" d="M60.418,80.965a.654.654,0,0,0,.286.091,1.286,1.286,0,0,1,.827.263,1.179,1.179,0,0,1,.389.6,1.555,1.555,0,0,1-.247,1.056,1.85,1.85,0,0,1-.9.744c-.22.092-.345.492-.628.322a2.479,2.479,0,0,0-.394-.241c-.085-.017-.128,0-.2-.047s-.152-.125-.223-.133a1.387,1.387,0,0,1-.595-.251c-.153-.151-.066-.612-.12-.814a1.759,1.759,0,0,1,.1-1.446.909.909,0,0,1,1.257-.386C60.411,80.9,60.418,80.965,60.418,80.965Z"/><path class="cls-19" d="M60.181,81.152s.007.125.194.211a1.235,1.235,0,0,0,.31.129c.124.021.3.031.256-.063a.958.958,0,0,0-.428-.263C60.392,81.128,60.1,81.021,60.181,81.152Z"/><path class="cls-20" d="M60.468,81.418s.048-.057.035-.266-.038-.467-.028-.5a.629.629,0,0,0,.017-.11l.158-.018s0,.1,0,.233a2.009,2.009,0,0,1-.048.354c-.017.089-.026.345-.026.345Z"/><path class="cls-22" d="M42.917,83.38l.089,1.426h.713l1.872,6.685,7.843.089,6.328-.267a50.237,50.237,0,0,1,.713-5.17,4.385,4.385,0,0,1,.981-1.247l.089-1.694H49.869a44.146,44.146,0,0,1-.267-5.169c.445-2.05,6.15-2.407,7.308-.891S57,80.8,57,80.8l1.872.267s1.159-3.743-1.426-4.991-8.556-.98-9.18.267-.535,6.507-.535,6.507Z"/><path class="cls-21" d="M56.691,79.721a.809.809,0,0,0,.369-.033,1.584,1.584,0,0,1,1.064-.1,1.454,1.454,0,0,1,.728.492,1.913,1.913,0,0,1,.222,1.317,2.28,2.28,0,0,1-.661,1.273c-.206.21-.157.724-.56.666a3.048,3.048,0,0,0-.563-.086c-.1.021-.145.061-.251.044a.891.891,0,0,0-.317-.046,1.7,1.7,0,0,1-.8,0c-.245-.1-.366-.663-.524-.867a2.161,2.161,0,0,1-.58-1.688,1.119,1.119,0,0,1,1.242-1.039C56.652,79.652,56.691,79.721,56.691,79.721Z"/><path class="cls-19" d="M56.511,80.047s.068.138.321.147a1.545,1.545,0,0,0,.414,0c.152-.035.355-.107.261-.193A1.173,1.173,0,0,0,56.9,79.9C56.739,79.919,56.358,79.936,56.511,80.047Z"/><path class="cls-20" d="M56.964,80.212s.027-.088-.087-.319-.267-.512-.269-.552a.7.7,0,0,0-.033-.132l.17-.1s.051.11.112.265a2.472,2.472,0,0,1,.115.424c.023.109.134.4.134.4Z"/><path class="cls-23" d="M125.48,84.732a6.216,6.216,0,0,1-1.357,3.832,6.843,6.843,0,0,1-6.148,2.821c-2.689-.058-5.6-1.628-6.347-3.536s-.769-4.8.839-6.31a7.926,7.926,0,0,1,4.98-2.534c2.834-.281,4.791.088,6.12,1.5A5.9,5.9,0,0,1,125.48,84.732Z"/><path class="cls-3" d="M124.5,84.78s-.148.9-.558,1.148-.879.356-.882.488.044.662-.278.508a.651.651,0,0,0-.855.294c-.174.31-.193.671-.692.454s-.552-.408-.879-.149-.846.329-.88.563a.35.35,0,0,1-.546.264c-.284-.165-.379-.363-.569-.254s-.3.271-.562.418-.373.235-.564.194.05-.107-.41-.11a1.114,1.114,0,0,1-.759-.3c-.122-.079-.215-.053-.384.125a.75.75,0,0,1-.831.025.61.61,0,0,0-.567-.03,9.365,9.365,0,0,1-1.166-.106.731.731,0,0,1-.622-.371,5.721,5.721,0,0,0-.514-.721s1.915.594,2.283.7.674.057.824-.191.206-.694.512-.311.6.45.866.246a.774.774,0,0,1,.977-.215c.6.209.582.157.881-.132s.36-.643.562-.419.316.493.577.14.3-.588.609-.394.59.042,1.3.031a2.507,2.507,0,0,0,1.469-.671,6.877,6.877,0,0,1,.98-.347C124.235,85.49,124.5,84.78,124.5,84.78Z"/><path class="cls-3" d="M124.276,84.13s-.831.025-.936.223-.144.414-.447.255.03-.682-.362-.368-.133.6-.575.441-.436-.422-.587-.174.034.552-.191.39.085-.342-.527-.247-.36.212-.662.2-.512-.12-.67-.114-.373-.2-.67.243.262,1.088-.388.613-.536-.638-.958-.576a.874.874,0,0,0-.642.346c-.124.128-.32.426-.645.4s-.329.466-.548.4-3.9-.74-3.9-.74a18.359,18.359,0,0,1,3.742-.471c.513.2.6.284,1.423-.189a2.082,2.082,0,0,1,1.551-.375c.39.041.975-.439.975-.439s.487.389.832.05.223-.849.428-.756a3.543,3.543,0,0,1,.8.284c.359.218.718-.143.994.061s-.255.445.416.278.577-.292.89-.173A2.635,2.635,0,0,1,124.276,84.13Z"/><path class="cls-3" d="M124.12,82.994s-.618-.428-.972-.123-.59.388-.688-.109-.167-.459-.622-.37a5.188,5.188,0,0,1-1.128-.043c-.376.011-.584.125-.6.262s.324.378-.082.21-.144-.447-.408-.392-.107-.026-.43.175a2.412,2.412,0,0,1-1.181.272c-.037-.064-.377.293-.474.376s-.409-.467-.553-.483a8.775,8.775,0,0,0-1.064.333c-.444.123-.559-.145-.963-.164s-.772-.122-.929-.116.265-.336.9-.476.948-.825,1.314-.44.284.015.985.1a2.042,2.042,0,0,0,1.173-.157c.3-.082.208-.114.5.068s.5.647.585.024.507-.758.621-.491.143.3.6.358.564-.194.882.018.389.322.746.316.279-.358.664.022a2.53,2.53,0,0,0,.828.538Z"/><path class="cls-24" d="M125.052,83.841s-.288-.97-.512-.627a1.439,1.439,0,0,0,.163,1.378C124.942,84.806,125.2,84.686,125.052,83.841Z"/><path class="cls-3" d="M124.9,85.129a18.187,18.187,0,0,1-.683,2.031c-.214.378-.762.418-.89.6s.091.256-.565.475-.7.719-1.077.861-.1.365-.422.567-.092.025-.622-.015-.852-.269-.9.212-.463.129-.607.113a2.317,2.317,0,0,0-.838.214,1.433,1.433,0,0,1-.782.273c-.214-.052-.061-.507-.453-.267a.815.815,0,0,0-.416.584.633.633,0,0,0-.5-.235,2.987,2.987,0,0,0-.7-.011c-.2.056-.471-.188-.63-.256s-.437-.066-.535-.132a1.584,1.584,0,0,1-.211-.185,1.647,1.647,0,0,1,.581.082c.1.084-.234-.628.048-.331s.359.574.734.488a1.6,1.6,0,0,0,.661-.277c.346-.189-.149-.464.587-.256s.8.227.879.149.052-.315.376-.367a6.249,6.249,0,0,1,.938,0c.357-.005.349-.321.745-.263s.01.541.674.057.864-.765.975-.8a5.727,5.727,0,0,1,.649-.106,2.091,2.091,0,0,0,1.22-.489,4.44,4.44,0,0,1,.77-.8A7.387,7.387,0,0,0,124.9,85.129Z"/><path class="cls-3" d="M124.429,82.815a7.443,7.443,0,0,1-.883-.954c-.269-.393-.454-.342-.756-.351a.534.534,0,0,1-.464-.377c-.024-.087.1-.439-.222-.369a4.538,4.538,0,0,1-.892-.052c-.255.015-.564-.236-.543-.018s.322.585-.07.394-.386-.529-.786-.53-1.739-.3-1.969-.053-.071.32-.378.218-.361-.293-.9-.161a3.879,3.879,0,0,0-1.257.5c-.124.128.9-.867,1.56-.845a6.124,6.124,0,0,0,1.405-.185c.519-.069.516-.368.852-.236a2.287,2.287,0,0,0,.776.14c.121,0,0,.281.467.245s.472-.169.7-.064.756,0,1.108.329.838.647,1.063.884a7.765,7.765,0,0,1,.91.833A4.146,4.146,0,0,1,124.429,82.815Z"/><path class="cls-3" d="M125.179,85.658s-.244,1.059-.29,1.465a6.722,6.722,0,0,1-1.125,1.683c-.133.168-.337.166-.428.341s.043.082-.206.263-.663.484-.857.65-.171.029-.549.246-.565.551-.862.633-.29-.256-.827-.107-.442.347-.958.359a8.219,8.219,0,0,0-1.094.08,6.1,6.1,0,0,1-.678,0s1.863-.33,2.076-.352.655-.444,1.022-.341.421.3.761-.061.3-.513.912-.665.718-.574.9-.7.384-.912.782-1.06.738-.219.689-.468.149-.177.219-.571A10.2,10.2,0,0,1,125.179,85.658Z"/><path class="cls-3" d="M124.557,82.426a1.055,1.055,0,0,0-.173-.3,1.982,1.982,0,0,1-.3-.479c-.118-.243-.069-.285-.241-.466s-.293-.071-.44-.306-.012-.188-.095-.307-.227-.051-.35-.2-.133-.154-.232-.288-.08,0-.433-.175a4.456,4.456,0,0,0-.681-.3,4.226,4.226,0,0,0-.848-.279,5.418,5.418,0,0,1-.76-.179,12.154,12.154,0,0,1,1.23.192c.277.084,1.073.321,1.182.385a4.679,4.679,0,0,1,1.144.872,4.039,4.039,0,0,1,.866,1.255C124.608,82.317,124.557,82.426,124.557,82.426Z"/><polygon class="cls-25" points="35.329 96.554 35.18 118.869 35.032 96.554 35.329 96.554"/><polygon class="cls-25" points="41.085 96.554 40.936 118.869 40.788 96.554 41.085 96.554"/><polygon class="cls-25" points="46.841 96.554 46.692 118.869 46.544 96.554 46.841 96.554"/><polygon class="cls-25" points="52.597 96.554 52.448 118.869 52.3 96.554 52.597 96.554"/><polygon class="cls-25" points="58.353 96.554 58.204 118.869 58.056 96.554 58.353 96.554"/><polygon class="cls-25" points="64.109 96.554 63.96 118.869 63.812 96.554 64.109 96.554"/><polygon class="cls-25" points="69.864 96.554 69.716 118.869 69.568 96.554 69.864 96.554"/><polygon class="cls-25" points="75.62 96.554 75.472 118.869 75.324 96.554 75.62 96.554"/><polygon class="cls-25" points="81.376 96.554 81.228 118.869 81.08 96.554 81.376 96.554"/><polygon class="cls-25" points="87.132 96.554 86.984 118.869 86.836 96.554 87.132 96.554"/><polygon class="cls-25" points="92.888 96.554 92.74 118.869 92.592 96.554 92.888 96.554"/><polygon class="cls-25" points="98.644 96.554 98.496 118.869 98.348 96.554 98.644 96.554"/><polygon class="cls-25" points="104.4 96.554 104.252 118.869 104.104 96.554 104.4 96.554"/><polygon class="cls-25" points="110.156 96.554 110.008 118.869 109.86 96.554 110.156 96.554"/><polygon class="cls-25" points="115.912 96.554 115.764 118.869 115.616 96.554 115.912 96.554"/><polygon class="cls-25" points="121.668 96.554 121.52 118.869 121.372 96.554 121.668 96.554"/><polygon class="cls-25" points="127.424 96.554 127.276 118.869 127.128 96.554 127.424 96.554"/><path class="cls-26" d="M117.205,112.63s-1.294.215-1.079,1.941.312,2.086-.024,2.949a4.688,4.688,0,0,0-.551,3.093c.288,1.438.863,2.157.216,2.877s-4.028.935-3.452,2.157,1.438.719,2.877,1.51,1.8,1.727,4.962,2.086,5.61,1.3,8.055.5,3.236-.288,5.826-.72a43.047,43.047,0,0,0,4.89-1.078c1.079-.288,3.041-.36,3.668-1.079s.935-.719,0-1.654-.863,1.078-1.151-1.511.216-2.229-.719-4.531-2.014-2.085-1.942-3.236,1.079-1.438.216-2.661a18.434,18.434,0,0,1-1.51-2.661s.935-2.8-.288-3.884-5.25-2.229-7.48-2.373a21.327,21.327,0,0,0-6.688.935c-1.223.431-4.747,1.079-5.107,2.877S117.205,112.63,117.205,112.63Z"/><path class="cls-27" d="M139.141,107.667a8.614,8.614,0,0,0-3.812-2.877c-.935-.215-1.942-1.222-3.236-1.654a7.5,7.5,0,0,0-4.376,0c-.731.432-2.816.216-3.751.791a19.425,19.425,0,0,1-3.165,1.007c-.647.288-1.366.322-1.942.988s-1.8,1.745-1.8,1.745-2.592,2.627-1.438,3.884,1.87,1.438,1.8,2.229.863,1.367,2.158,2.014a9.628,9.628,0,0,1,2.733,2.014,5.255,5.255,0,0,0,3.308,1.222c.791,0,1.8,1.007,3.956.792s2.8,0,3.955-.792,1.367-.143,2.23-2.589,1.438-1.51,2.157-3.38a18.1,18.1,0,0,0,.719-2.949C139,109.034,140.435,109.249,139.141,107.667Zm-3.021,2.374c-1.222,1.15-.216,1.726-1.294,3.308a4.956,4.956,0,0,1-3.884,2.661,6.812,6.812,0,0,1-5.969-1.582c-1.655-1.367-4.747-1.223-5.754-2.733s0-3.6,0-3.6c.411-1.451,3.956-2.014,6.832-2.733s2.446-.288,5.107,0,4.174.351,6.041,1.366S137.343,108.89,136.12,110.041Z"/><path class="cls-28" d="M131.425,104.607c-.15.081-3.287.2-2.818,1.84s3.64,2.147,4.991,2.2,2.524-1.686,1.82-2.351S133.245,103.636,131.425,104.607Z"/><path class="cls-29" d="M130.71,107.44a13.6,13.6,0,0,0,2.786.249c.69-.124,1.691-.27,1.619-.642s-.167-.623.024-.581.238,1.078-.333,1.513a2.435,2.435,0,0,1-2,.291C132.02,108.145,130,108.062,130.71,107.44Z"/><path class="cls-30" d="M132.471,107.137s-.424,0-.2.137.412.111.4.045S132.471,107.137,132.471,107.137Z"/><path class="cls-30" d="M130.309,107.225s-.35.078-.213.145.288.156.3.045A.236.236,0,0,0,130.309,107.225Z"/><path class="cls-30" d="M129.49,106.56s-.125.063-.063.121.175.142.225.1S129.7,106.5,129.49,106.56Z"/><path class="cls-30" d="M130.521,106.02s-.243.055-.115.122.3.056.3,0-.253-.195-.295-.122"/><path class="cls-28" d="M130.2,107.5c-1.309.047-.784-.215-1.531-.308a3.254,3.254,0,0,0-1.877.334c-.535.255-1.493,1.447-.919,2.438a2.822,2.822,0,0,0,2.7,1.218c1.13.014,3.561.321,4.556-1.1.566-.806-.21-1.246-.44-1.714A3.048,3.048,0,0,0,130.2,107.5Z"/><path class="cls-30" d="M130.778,108.984s-.424,0-.2.137.412.112.4.045S130.778,108.984,130.778,108.984Z"/><path class="cls-30" d="M131.72,108.769s-.35.078-.212.145.287.156.3.045A.233.233,0,0,0,131.72,108.769Z"/><path class="cls-30" d="M127.205,108.528s-.124.063-.062.121.175.141.225.1S127.418,108.471,127.205,108.528Z"/><path class="cls-30" d="M128.828,107.867s-.243.056-.115.122.3.056.3,0-.253-.2-.295-.122"/><path class="cls-30" d="M128.579,109.807s-.349.078-.212.145.287.156.3.044A.232.232,0,0,0,128.579,109.807Z"/><path class="cls-30" d="M126.265,108.779s-.125.062-.062.121.174.141.224.1S126.477,108.721,126.265,108.779Z"/><path class="cls-28" d="M122.423,106.386c-.123.064-2.689.163-2.305,1.467s2.977,1.711,4.081,1.752,2.064-1.345,1.488-1.875S123.911,105.611,122.423,106.386Z"/><path class="cls-29" d="M121.837,108.644a11.453,11.453,0,0,0,2.279.2c.564-.1,1.382-.215,1.323-.513s-.135-.5.02-.463.195.86-.273,1.207a2.032,2.032,0,0,1-1.635.232C122.909,109.206,121.254,109.14,121.837,108.644Z"/><path class="cls-30" d="M124.372,107.858s-.424,0-.2.137.412.112.4.045S124.372,107.858,124.372,107.858Z"/><path class="cls-30" d="M122.21,107.946s-.35.078-.212.145.287.157.3.045A.233.233,0,0,0,122.21,107.946Z"/><path class="cls-30" d="M120.8,107.4s-.125.063-.063.121.175.141.225.1S121.012,107.345,120.8,107.4Z"/><path class="cls-30" d="M122.422,106.741s-.243.056-.115.122.3.056.3,0-.254-.195-.3-.122"/><path class="cls-31" d="M136.83,108.28a5.033,5.033,0,0,1-1.071,3.078c-.967,1-1.436,2.364-3.445,2.483s-2.857-.093-1.71-1.284,1.545-2.259,2.632-3.388S136.63,105.429,136.83,108.28Z"/><path class="cls-30" d="M134.745,111.855s.249-.568-.075-.336-.405.493-.3.51S134.745,111.855,134.745,111.855Z"/><path class="cls-28" d="M130.172,112.154c-1.263.051-.757-.232-1.477-.333a2.859,2.859,0,0,0-1.811.361,2.247,2.247,0,0,0-.886,2.633,2.62,2.62,0,0,0,2.6,1.316c1.09.014,3.436.347,4.4-1.186.546-.871-.2-1.345-.425-1.851A2.777,2.777,0,0,0,130.172,112.154Z"/><path class="cls-30" d="M130.733,113.756s-.409,0-.192.148.4.12.385.048S130.733,113.756,130.733,113.756Z"/><path class="cls-30" d="M131.642,113.524s-.337.084-.2.156.277.169.289.048A.262.262,0,0,0,131.642,113.524Z"/><path class="cls-30" d="M127.287,113.263s-.121.068-.06.131.168.153.216.108S127.491,113.2,127.287,113.263Z"/><path class="cls-30" d="M128.852,112.549s-.235.06-.111.133.292.06.292,0-.244-.211-.285-.133"/><path class="cls-30" d="M128.612,114.644s-.337.084-.2.157.277.168.289.048A.263.263,0,0,0,128.612,114.644Z"/><path class="cls-30" d="M126.379,113.534s-.12.068-.06.131.169.153.217.108S126.584,113.472,126.379,113.534Z"/><path class="cls-28" d="M127,105.316c-.106.064-2.331.162-2,1.46s2.581,1.7,3.539,1.745,1.79-1.339,1.29-1.866S128.286,104.545,127,105.316Z"/><path class="cls-29" d="M126.488,107.564a8.66,8.66,0,0,0,1.976.2c.489-.1,1.2-.214,1.148-.51s-.118-.494.017-.461.169.856-.237,1.2a1.569,1.569,0,0,1-1.418.231C127.417,108.124,125.981,108.058,126.488,107.564Z"/><path class="cls-30" d="M127.737,107.324s-.3,0-.142.109.293.088.284.035S127.737,107.324,127.737,107.324Z"/><path class="cls-30" d="M126.2,107.394s-.248.062-.151.115.2.124.212.036A.194.194,0,0,0,126.2,107.394Z"/><path class="cls-30" d="M125.623,106.866s-.089.05-.045.1.124.112.16.08S125.773,106.821,125.623,106.866Z"/><path class="cls-30" d="M126.354,106.437s-.172.044-.082.1.215.045.215,0-.18-.155-.209-.1"/><path class="cls-28" d="M129.677,109.825c-.087.051-1.906.13-1.634,1.165s2.11,1.358,2.893,1.391,1.464-1.068,1.055-1.488S130.732,109.211,129.677,109.825Z"/><path class="cls-29" d="M129.262,111.618a7.311,7.311,0,0,0,1.616.158c.4-.079.98-.171.938-.407s-.1-.394.014-.368.138.683-.193.958a1.31,1.31,0,0,1-1.16.184C130.021,112.064,128.848,112.012,129.262,111.618Z"/><path class="cls-30" d="M131.059,110.994s-.3,0-.141.109.292.088.283.035S131.059,110.994,131.059,110.994Z"/><path class="cls-30" d="M129.526,111.064s-.248.062-.151.115.2.124.213.036A.193.193,0,0,0,129.526,111.064Z"/><path class="cls-30" d="M128.526,110.632s-.089.05-.044.1.124.112.159.08S128.676,110.587,128.526,110.632Z"/><path class="cls-30" d="M129.677,110.107s-.173.045-.082.1.214.044.214,0-.179-.155-.209-.1"/><path class="cls-31" d="M119.6,110.383a3.435,3.435,0,0,1,2.1-1.083c.988,0,1.914-.481,2.963.6s1.358,1.684.186,1.684-1.914.361-3.025.361S118.245,112.068,119.6,110.383Z"/><path class="cls-32" d="M120.52,110.985a7.42,7.42,0,0,0,2.354.171c.65-.2,1.076-.9.776-1.2s.049-.488.5-.244,1.4,1.269,1,1.415a9.062,9.062,0,0,1-3.055.683c-.951-.1-2.854-.121-2.7-.561S120.319,110.814,120.52,110.985Z"/><path class="cls-30" d="M122.454,109.606s-.413.17-.135.228.451-.041.41-.109S122.454,109.606,122.454,109.606Z"/><path class="cls-33" d="M125.421,113.984c1.139-.549.787-.089,1.488-.283a2.855,2.855,0,0,0,1.517-1.051,2.244,2.244,0,0,0-.235-2.768c-.934-.761-1.276.06-2.913-.171a3.772,3.772,0,0,0-3.56,2.837c-.154,1.017.722,1.154,1.127,1.53A2.778,2.778,0,0,0,125.421,113.984Z"/><path class="cls-30" d="M124.269,112.738s.374-.166.117-.212-.412.047-.372.109S124.269,112.738,124.269,112.738Z"/><path class="cls-30" d="M123.528,113.313s.275-.212.125-.226-.321-.044-.284.071A.263.263,0,0,0,123.528,113.313Z"/><path class="cls-30" d="M127.627,111.818s.083-.11,0-.144-.216-.073-.242-.013S127.463,111.956,127.627,111.818Z"/><path class="cls-30" d="M126.475,113.1s.191-.149.049-.166-.292.061-.268.117.308.1.314.008"/><path class="cls-30" d="M125.861,111.079s.276-.212.126-.225-.321-.045-.285.071A.263.263,0,0,0,125.861,111.079Z"/><path class="cls-30" d="M128.351,111.209s.084-.11,0-.144-.215-.073-.242-.013S128.188,111.347,128.351,111.209Z"/><path class="cls-28" d="M134.632,104.99c-.123.064-2.689.164-2.305,1.468s2.976,1.711,4.08,1.751,2.064-1.344,1.488-1.874S136.12,104.216,134.632,104.99Z"/><path class="cls-29" d="M134.046,107.249a11.463,11.463,0,0,0,2.279.2c.564-.1,1.382-.215,1.323-.512s-.136-.5.02-.463.194.859-.273,1.207a2.035,2.035,0,0,1-1.636.231C135.117,107.811,133.463,107.745,134.046,107.249Z"/><path class="cls-30" d="M136.581,106.463s-.424,0-.2.137.412.111.4.044S136.581,106.463,136.581,106.463Z"/><path class="cls-30" d="M134.419,106.551s-.35.078-.213.145.287.156.3.045A.236.236,0,0,0,134.419,106.551Z"/><path class="cls-30" d="M133.008,106.007s-.124.062-.062.121.175.141.225.1S133.221,105.949,133.008,106.007Z"/><path class="cls-30" d="M134.631,105.345s-.243.056-.115.123.3.056.3,0-.253-.2-.3-.123"/><path class="cls-33" d="M132.2,106.848c-.106.064-2.331.162-2,1.461s2.581,1.7,3.539,1.744,1.79-1.338,1.29-1.866S133.488,106.077,132.2,106.848Z"/><path class="cls-34" d="M88.1,111.427s-1.3-2.521.119-3.971,3.059-2.713,3.957-2.783a13.3,13.3,0,0,1,2.6-.122,20.8,20.8,0,0,1,2.185.562,4.441,4.441,0,0,1,3.078,2.044c.606,1.261,1.2,2.5.974,3.377a18.44,18.44,0,0,1-1.668,4.028,11.669,11.669,0,0,1-5.163,3.588c-1.628.371-3.8-.252-4.4-1.575A29.78,29.78,0,0,1,88.1,111.427Z"/><path class="cls-35" d="M95.214,104.2l.474.961s-2.764,0-3.62.663a10.962,10.962,0,0,0-2.542,4.262c-.442,1.439,1.2,4.794,1.879,6.461s1.653,1.917,1.653,1.917a9.734,9.734,0,0,1-1.862.678,8.594,8.594,0,0,1-2.527-.39c-1.313-.251-.83-1.015-1.011-2.016s-1.105-1.009-2.3-1.1-.882-2-.251-2.872-.149-2.1-.474-2.711.738-2.944,1.6-3.2.709-.638.735-1.479,1.365-1.345,1.835-1.5,2.39-.941,2.548-1.94,2.142-.486,2.74.291a10.368,10.368,0,0,1,.974,1.54Z"/><path class="cls-36" d="M96.088,117.6s.756.149.6,1.7-.67,1.859-1.385,1.925a3.755,3.755,0,0,0-1.884.8c-.6.428-1.627,1.662-2.452.847s.023-1.128-1.316-1-2.205.85-2.39-.351,1.12-1.062.507-1.977-1.12-.688-1.035-1.721,1.788-1,.878-2.158a2.573,2.573,0,0,1-.585-2.215,17.692,17.692,0,0,1,3.437,2.383A8.527,8.527,0,0,0,96.088,117.6Z"/><path class="cls-37" d="M94.776,104.551s-1.055-.768-.8-1.111.8-.379.677-.828-.1-1.4.341-1.462a7.038,7.038,0,0,0,1.226-.38c.3-.1.846-.226,1.079.012s.738.185,1.047.283a6.473,6.473,0,0,1,1.748.45c.506.318.255.948.7,1.172s.817-.129,1.725.659-.2,1.416.641,1.737,2.027,1.1,1.875,1.843.213.732.373.937a1.707,1.707,0,0,1,.3,2.082c-.661.967-1.15.7-.742,1.367a2.931,2.931,0,0,1,.326,1.441c.085.344.49,1.1-.039,1.447s.181,1.834-.1,2.013.006,1.49-.906,1.335-1.185-.236-1.274.052-1.017.54-1.66.64-.167.974-1.147.985-1.455-.849-1.993-.081c-.708,1.011-2.83.083-2.564-.78a3.862,3.862,0,0,1,.918-1.483s5.657-4.872,3.663-7.994c-1.221-1.911-2.884-3.486-3.58-3.455A4.012,4.012,0,0,1,94.776,104.551Z"/><path class="cls-38" d="M99.479,113.858a.512.512,0,0,1-.651-.386c-.181-.542-.6-1.807-1.006-3.108s-.884-2.373-1.482-2.231-.974.21-1.289-.087a.58.58,0,0,0-.945.115c-.218.359-.76.483-.862.086s-.3-.7-.642-.359-1.326.356-2.132-.494-.574-1.445-.574-1.445"/><path class="cls-38" d="M105.165,109.35c-.928.249-1.2-.246-2.064-.2a2.1,2.1,0,0,0-1.8,1.318"/><path class="cls-38" d="M103.987,111.436c-.85-.231-1.764-.574-2.593-.771"/><path class="cls-38" d="M100.657,107.811c-.343-.661.42-.782.572-1.4a4.519,4.519,0,0,0-.385-2.282"/><path class="cls-38" d="M99.848,102.715c-1.041.635.122,1.915.363,2.627.275.815-.19,1.072-.19,1.85"/><path class="cls-38" d="M97.985,101.644c-1.289,1.84,2.024,2.472,1.2,4.334"/><path class="cls-38" d="M95.419,102.7c1.062,2.63,2.122.655,2.772,2.691"/><path class="cls-38" d="M101.492,111.694a7.514,7.514,0,0,0,1.738,2.433c.405.419,1.376,1.314.414,1.9"/><path class="cls-38" d="M100.739,114.413c.4.979.621,1.9,1.076,2.855"/><path class="cls-38" d="M101.8,110.786a3.787,3.787,0,0,0,2.779,2.8"/><path class="cls-38" d="M95.866,108.922s-1.352-1.012-1.121.231.273,1.831-.273,1.669-.357.865-.093,1.38.2,1.053-.421.858-1.766-.415-1.614.6.505,2.156-.344,2.008a2.081,2.081,0,0,1-1.325-.935"/><path class="cls-39" d="M100.332,108.953a5.138,5.138,0,0,1,1.411,2.571c.171.6.66,1.244.174,2.18s-.672,1.947-1.559,1.869-.25.17-.734.561-.957-.2-1.122.23-.407,1.083-.826,1.023-1.431.132-1.445.826.123,1.566-.691,1.062-.909.591-1.776.478a3.526,3.526,0,0,1-2.911-1.726c-.541-1.254.389.243,2.116-.1a13.2,13.2,0,0,0,3.825-1.706,14.3,14.3,0,0,0,3.123-3.625C100.208,111.807,99.567,108.319,100.332,108.953Z"/><path class="cls-40" d="M90.057,115.365a8.849,8.849,0,0,0,.023-3.709c-.413-2.158.62-2.626.677-3.5a3.407,3.407,0,0,1,2.364-2.769,2.342,2.342,0,0,0-2.358-.619c-.652.126-2.318,1.433-1.8,2.809a2.934,2.934,0,0,1-.493,3.034c-.437.347.1.4.449.883s.772,1.579.62,1.86S88.658,113.106,90.057,115.365Z"/><path class="cls-41" d="M106.584,111.956l-.234,1.873L92.765,113.6l-.469-1.757-1.288.235.117,14.99,18.455-.7-.771-14.645Zm-11.126,3.161,9.018-.234a2.556,2.556,0,0,1-2.811,2.108H96.629Zm7.964,8.9c-1.64,0-5.27-.234-5.27-.234L97.1,122.027l7.5.117S105.061,124.018,103.422,124.018Z"/><polygon class="cls-42" points="82.694 110.433 91.008 112.073 91.125 127.063 82.514 123.882 82.694 110.433"/><path class="cls-43" d="M42.721,118.515s-2.7-2.18-2.615-5.143-1.133-6.364.523-4.882,4.1,10.025,4.1,10.025Z"/><path class="cls-43" d="M43.114,114.374s.61-4.01,2.615-5.317a13.471,13.471,0,0,1,3.225-1.656s-1.918,5.578-1.918,7.5a13.734,13.734,0,0,1-.959,4.271l-2.266-.523Z"/><path class="cls-44" d="M39.147,118.144l9.066.262-1.482,7.524a6.23,6.23,0,0,1-3.139.61,3.8,3.8,0,0,1-2.789-1.22Z"/><path class="cls-43" d="M42.35,117.649A5.942,5.942,0,0,0,39.8,113.6c-2.353-1.635-8.172-1.5-7.126-.654s1.243,2.811,3.008,2.811,5.949,2.55,5.949,2.55l.785-.131Z"/><path class="cls-43" d="M45.423,117.91s-1.831-3.857,2.68-3.791,5.754,2.026,4.969,2.811-1.5,2.027-2.353,1.569-3.335-.131-3.335-.131l-1.961-.131Z"/><path class="cls-45" d="M36.957,109.706s-3.629-.905-3.367,1.58c.348,3.313,3.759.054,3.759.054s-1.431,3.81,1.471,3.018c2.157-.588.163-3.214.163-3.214s3.008,1.111,3.465-.785-3.007-.98-3.007-.98,3.759-1.493,1.536-2.866c-2-1.239-2.386,2.343-2.386,2.343s.1-4.108-2.844-2.6C33.659,107.319,36.957,109.706,36.957,109.706Z"/><ellipse class="cls-46" cx="37.888" cy="110" rx="0.997" ry="0.915"/><path class="cls-43" d="M59.72,119.648s-2.7-2.179-2.616-5.143-1.133-6.364.523-4.882,4.1,10.025,4.1,10.025Z"/><path class="cls-43" d="M60.112,115.507s.61-4.009,2.615-5.317a13.471,13.471,0,0,1,3.225-1.656s-1.918,5.579-1.918,7.5a9.667,9.667,0,0,0,.871,3.711l-4.1.038Z"/><path class="cls-44" d="M56.146,119.277l9.065.262-1.482,7.524a6.221,6.221,0,0,1-3.138.611,3.805,3.805,0,0,1-2.79-1.221Z"/><path class="cls-43" d="M59.348,118.782a5.943,5.943,0,0,0-2.549-4.053c-2.354-1.635-8.173-1.5-7.127-.654s1.243,2.811,3.008,2.811,5.949,2.55,5.949,2.55l.785-.131Z"/><path class="cls-43" d="M62.072,117.91s-1.481-2.724,3.03-2.658,6.21,4.489,5.426,5.274-2.051-.3-2.811-.894c-2.986-2.332-4.6-.24-4.6-.24l-1.83.044Z"/><path class="cls-47" d="M60.245,109.076S58.691,106.1,57.4,107.4c-2.351,2.361,1.873,3.049,1.873,3.049s-3.974,1.43-1.686,3.653c2.24,2.176,2.907-2.548,2.907-2.548s1.136,3,2.867,2.1-1.235-2.912-1.235-2.912,3.86,1.148,2.992-1.044-3.155.059-3.155.059,2.358-2.452.07-3.433C60.405,105.621,60.245,109.076,60.245,109.076Z"/><ellipse class="cls-46" cx="60.634" cy="109.971" rx="0.915" ry="0.997" transform="translate(-57.3 66.823) rotate(-41.033)"/><path class="cls-48" d="M48.212,119.61s-.653-.087-.958-2.833-.436-4.489-.436-4.489a21.113,21.113,0,0,1,2.484,4.1,48.078,48.078,0,0,1,1.308,5.579Z"/><path class="cls-43" d="M51.656,123.527s-2.7-2.179-2.615-5.143-1.133-6.363.523-4.882,4.1,10.025,4.1,10.025Z"/><path class="cls-43" d="M52.049,119.386s.61-4.009,2.615-5.317a13.471,13.471,0,0,1,3.225-1.656s-1.918,5.579-1.918,7.5a13.744,13.744,0,0,1-.959,4.272l-2.266-.523Z"/><path class="cls-44" d="M48.038,122.465l9.284.392-1.657,8.085a6.217,6.217,0,0,1-3.138.611,3.8,3.8,0,0,1-2.789-1.221Z"/><path class="cls-43" d="M51.285,122.661a6.741,6.741,0,0,0-2.55-4.053c-3.225-2.528-8.717-.066-7.671.784a4.771,4.771,0,0,0,3.553,1.373c1.765,0,6.341,2.419,6.341,2.419h.393Z"/><path class="cls-43" d="M53.53,122.4s-1.439-3.792,3.072-3.727,5.884,5.23,5.1,6.015-1.26-.62-2.049-1.177c-1.481-1.046-2.2.283-3.443.392a2.28,2.28,0,0,1-1.961-1.046Z"/><path class="cls-49" d="M52.353,119.291s-2.791-3.041-3.727-.552c-.962,2.561,3.727,1.83,3.727,1.83.174-.348-3.7,3.328-.458,3.792,2.289.327,1.694-2.913,1.694-2.913s2.345,2.8,3.275,1.082c1.3-2.406-2.119-2.492-2.119-2.492s3.992-.531,2.3-2.176-3.323,1.334-3.323,1.334,2.419-3.857-.85-3.465C51.122,115.942,52.353,119.291,52.353,119.291Z"/><ellipse class="cls-46" cx="53.075" cy="119.949" rx="0.915" ry="0.997" transform="translate(-78.073 117.747) rotate(-65.17)"/></svg>