<svg id="word" xmlns="http://www.w3.org/2000/svg" xmlns:xlink="http://www.w3.org/1999/xlink" viewBox="0 0 160 160"><defs><style>.cls-1,.cls-7{stroke:#9d4b9c;}.cls-1{fill:url(#radial-gradient);}.cls-2{fill:#811517;opacity:0.21;}.cls-3{fill:url(#radial-gradient-2);}.cls-4{fill:url(#linear-gradient);}.cls-5{fill:#fff;opacity:0.67;}.cls-6{fill:#9e291b;}.cls-7{fill:#9ba947;stroke-width:0.5px;}</style><radialGradient id="radial-gradient" cx="567.792" cy="79.073" r="45.769" gradientTransform="translate(-586.801) scale(1.203 1)" gradientUnits="userSpaceOnUse"><stop offset="0.023" stop-color="#f06144"/><stop offset="0.87" stop-color="#a60e13"/></radialGradient><radialGradient id="radial-gradient-2" cx="-767.918" cy="2407.386" r="2.928" gradientTransform="matrix(0.79, 0.613, -0.613, 0.79, 2179.123, -1360.562)" gradientUnits="userSpaceOnUse"><stop offset="0.004" stop-color="#e29680"/><stop offset="0.64" stop-color="#b13b3d"/><stop offset="1" stop-color="#950515"/></radialGradient><linearGradient id="linear-gradient" x1="-767.791" y1="2408.029" x2="-767.791" y2="2407.494" gradientTransform="matrix(0.79, 0.613, -0.613, 0.79, 2179.123, -1360.562)" gradientUnits="userSpaceOnUse"><stop offset="0" stop-color="#fff"/><stop offset="1" stop-color="#fff" stop-opacity="0"/></linearGradient></defs><path class="cls-1" d="M109.84,58.776S94.7,50.992,81.751,50.5,51.325,59.563,46.686,63.745c-6.516,5.875-16.933,23.518-5.179,40.411S68.181,121.2,88.882,121.5c12.356.176,29.923-4.752,35.5-15.848S130.758,65.9,109.84,58.776Z"/><path class="cls-2" d="M100.042,70.055a2.837,2.837,0,0,0-2.273.357c-1.173.733-1.858,1.627-.868,2.914S100.9,72.187,100.042,70.055Z"/><path class="cls-3" d="M99.86,69.049a2.835,2.835,0,0,0-2.272.357c-1.173.733-1.859,1.627-.868,2.914S100.715,71.182,99.86,69.049Z"/><path class="cls-4" d="M96.56,70.668s.736,1.206,1.08,1.357a1.313,1.313,0,0,0,.84-.04s-1.093.711-1.635.172A1.326,1.326,0,0,1,96.56,70.668Z"/><path class="cls-5" d="M99.631,70.053s-.186-.951-.44-.4-.342,1.407.089,1.223S99.631,70.053,99.631,70.053Z"/><path class="cls-6" d="M81.369,61.644s-5.293-2.988-8.282-3.415a22.32,22.32,0,0,0-6.83.256c-1.025.171-5.379,1.452-5.379,1.452s6.916-.6,8.623,0S74.8,61.986,74.8,61.986s.939.683-.512.683a44.732,44.732,0,0,0-9.819,2.476,27.351,27.351,0,0,0-6.916,5.891C56.1,73,55.584,76.842,55.584,77.1S59,75.049,61.561,73.683A22.818,22.818,0,0,1,68.9,71.121c2.817-.512,2.39-.256,5.72-1.024a33.811,33.811,0,0,0,7-2.732s-1.793,2.134-3.073,3.756-4.7,6.319-5.294,6.831-4.611,4.525-4.611,4.525-.6,1.451,3.416-.427a21.471,21.471,0,0,0,8.281-7.684c.769-1.537-1.366-3.757,2.306-3.757a36.2,36.2,0,0,0,5.976-.427,6.006,6.006,0,0,0,.939,5.379c1.964,2.476,4.013,4.269,3.757,4.269s-2.732-3.33-2.561-7.172A17.207,17.207,0,0,0,89.309,65.4a9.081,9.081,0,0,1,3.33-1.537c1.622-.256-.171-.427,3.159-.768s15.966,1.024,16.478,1.11-3.329-2.647-7.6-2.9a55.761,55.761,0,0,0-10.844.854c-.256.085-4.269.085-4.269.085s4.7-2.391,5.636-2.988,4.952-4.269,4.952-4.269l-2.562-.939-2.457,1.413-4.629,3.88Z"/><path class="cls-7" d="M79.355,66.831S73.812,73.8,71.537,77.35s-9.24,10.8-9.24,10.8,8.956-6.823,12.367-10.661,6.4-10.093,8.529-9.1,4.976-1.706,5.828,1.7,4.833,7.108,4.833,7.108S91.3,67.542,91.3,67.115s.284-2.558.284-2.558,6.539-5.118,11.088-6.113,12.225-.284,12.651.142-.284-2.985-7.249-2.132-15.921,5.118-15.921,5.118S94,57.449,95.134,55.459a27.578,27.578,0,0,0,2.7-10.945c.284-4.834-2.559-10.235-2.559-10.235s1.421,6.4.285,11.656-7.25,14.926-7.25,14.926-2.985,1-2.417-1.848-2.416-8.671-4.549-11.372-6.538-3.98-6.538-3.98,4.832,3.98,6.254,7.818a54.877,54.877,0,0,1,2.132,10.235,55.221,55.221,0,0,1-5.117-3.128C76.37,57.307,67.415,55.033,64,56.028s-8.1,4.833-8.1,4.833,8.245-4.549,11.088-3.27,10.946,3.981,10.946,3.981l2.558,1.847s-9.807-.142-14.072,1.422-12.083,7.392-13.362,9.524a24.243,24.243,0,0,0-1.991,4.265s6.113-6.113,12.368-8.1A44.731,44.731,0,0,1,76.228,68.4C77.507,68.4,79.355,66.831,79.355,66.831Z"/><path class="cls-7" d="M82.909,65.694s3.553,1.99,5.117-.711-1.137-1.848-1.137-5.828-.284-10.661-.284-10.661-2.274-2.843-2.7-.427-.426,5.828-.569,7.534S79.924,64.7,82.909,65.694Z"/></svg>