<svg id="word" xmlns="http://www.w3.org/2000/svg" viewBox="0 0 160 160"><defs><style>.cls-1{fill:#ffe0a6;}.cls-1,.cls-11,.cls-12,.cls-13,.cls-15,.cls-16,.cls-2,.cls-4,.cls-5,.cls-7,.cls-8{stroke:#9d4b9c;}.cls-1,.cls-2,.cls-4,.cls-5,.cls-7,.cls-8{stroke-width:0.75px;}.cls-2{fill:#f37a65;}.cls-3{fill:#a1545a;opacity:0.46;}.cls-4{fill:#f3b0bf;}.cls-5{fill:#f48a8b;}.cls-6,.cls-7{fill:#fff;opacity:0.26;}.cls-8{fill:#fcfae2;}.cls-9{fill:#ffc96f;}.cls-10{fill:#f89f4f;}.cls-11{fill:#f399c0;}.cls-11,.cls-12,.cls-13,.cls-16{stroke-width:0.5px;}.cls-12{fill:#fff584;}.cls-13{fill:#fff8ad;}.cls-14{fill:#9d4b9c;}.cls-15{fill:none;}.cls-16{fill:#fff25f;}</style></defs><path class="cls-1" d="M126.6,116.207c-1.137,1.243-4.925,2.737-7.451,3.857S111.7,124.545,104,124.917s-12.126,2.117-16.294,1.991-2.905.746-5.178-.25-3.157-.372-6.82-1-9.726-3.11-12-3.732S50.7,118.2,47.791,115.584a39.4,39.4,0,0,0-6.123-4.335,21.07,21.07,0,0,0-.319,4.708,9.475,9.475,0,0,0,1.011,2.613c.253.5,10.609,12.941,36.5,14.188s34.226-4.73,40.417-7.593,8.966-4.728,9.472-6.221a17.6,17.6,0,0,0,.38-4.606l.039-.306A20.788,20.788,0,0,0,126.6,116.207Z"/><path class="cls-1" d="M56.884,101.273c1.39.5,6.948,3.359,10.358,3.982s10.737,1.243,13.767,1.617,9.977,1.5,14.9,0,17.176-2.862,19.577-4.48,2.147-2.612,6.568-3.359a48.541,48.541,0,0,0,8.965-2.649c.5-1.636,2.247-7.709,1.266-8.677-1.139-1.118-19.7,4.233-25.766,4.233s-66.309-2.989-66.309-2.989S39.2,91.94,39.583,92.56c0,0,6.567,4.605,8.714,5.351S55.5,100.775,56.884,101.273Z"/><path class="cls-1" d="M121.932,107c-1.263.5-7.959,2.488-13.642,3.859s-10.861,3.607-12.63,3.855a24.006,24.006,0,0,1-9.472-.994c-4.422-1.244-6.315-.248-8.841-.248A39.367,39.367,0,0,1,68,111.477a38.869,38.869,0,0,0-9.6-2.116c-5.177-.622-6.693-3.36-9.093-4.977-1.89-1.275-6.832-4.4-8.848-5.67.2.451.386.816.386.816s-.252,1.866-.252,2.364a13.762,13.762,0,0,0,.883,2.49,11.87,11.87,0,0,0-.457,1.146c1.285.861,3.49,2.289,6.521,4.08a140.531,140.531,0,0,0,12.5,6.721,25.91,25.91,0,0,0,9.472,2.613c4.547.5,9.22,1.369,11.747,1.617s4.8-.124,5.81.249,1.894.5,4.673.5,6.442-.622,8.842-.871,7.2-1.617,9.221-1.743,6.188-2.737,8.461-3.485,2.147-1.74,3.789-2.238a62.738,62.738,0,0,0,7.2-3.856v0s1.3-.955,1.263-3.733a7.615,7.615,0,0,0-.634-1.931,4.216,4.216,0,0,0-.755.313C128.5,104.134,123.194,106.5,121.932,107Z"/><path class="cls-2" d="M118.269,115.209c-2.273.748-6.442,3.361-8.461,3.485s-6.821,1.495-9.221,1.743-6.063.871-8.842.871-3.663-.125-4.673-.5-3.284,0-5.81-.249-7.2-1.119-11.747-1.617a25.91,25.91,0,0,1-9.472-2.613,140.531,140.531,0,0,1-12.5-6.721c-3.031-1.791-5.236-3.219-6.521-4.08a4.583,4.583,0,0,0-.3,2.463c.379,1.243,1.01,2.863,1.01,2.863s-.025.148-.061.393a39.4,39.4,0,0,1,6.123,4.335c2.905,2.614,13.64,5.724,15.914,6.347s8.337,3.112,12,3.732,4.546,0,6.82,1,1.011.125,5.178.25,8.588-1.618,16.294-1.991,12.63-3.734,15.156-4.853,6.314-2.614,7.451-3.857a20.788,20.788,0,0,1,2.567-2.175l.592-4.422-.5-.5a62.738,62.738,0,0,1-7.2,3.856C120.416,113.469,120.542,114.463,118.269,115.209Z"/><path class="cls-2" d="M122.058,99.033c-4.421.747-4.168,1.742-6.568,3.359s-14.652,2.988-19.577,4.48-11.873.374-14.9,0-10.356-1-13.767-1.617-8.968-3.484-10.358-3.982-6.441-2.614-8.587-3.362-8.714-5.351-8.714-5.351a5.756,5.756,0,0,1,.505,1.867,14.52,14.52,0,0,0,0,3.361c.1.3.238.628.371.926,2.016,1.271,6.958,4.395,8.848,5.67,2.4,1.617,3.916,4.355,9.093,4.977a38.869,38.869,0,0,1,9.6,2.116,39.367,39.367,0,0,0,9.347,1.992c2.526,0,4.419-1,8.841.248a24.006,24.006,0,0,0,9.472.994c1.769-.248,6.947-2.487,12.63-3.855S120.669,107.5,121.932,107s6.566-2.863,7.2-3.235a4.216,4.216,0,0,1,.755-.313c-.141-.327.086-.269.086-.269s1.683-1.784,1.683-3.4a6.917,6.917,0,0,0-.756-2.989s.047-.15.123-.407A48.541,48.541,0,0,1,122.058,99.033Z"/><path class="cls-3" d="M134.824,83.63c-2.166,3.931-8.052,6.9-10.5,7.973-17.26,7.576-38.73,6.66-56.96,3.806-7.491-1.173-17.4-3.315-22.961-9.047-4.248-4.38-4.816-8.876-2.921-11.8a4.189,4.189,0,0,0-.642.626c-1.24,1.612-3.965,5.541-2.974,7.775s3.345,4.137,2.478,6.493,2.105,6.163,3.715,5.17.25-2.069.621-.455-.621,5.955,3.1,6.328c0,0,1.157,1.322,2.312-.911S52.4,94.63,52.652,96.45s-1.24,8.767-.5,10.173,1.512,1.353,2.393.58c1.322-1.159,1.075-3.97,1.819-4.384s1.238,0,1.981.331,2.065-.829,3.387-1.654,3.552-1.491,3.633,1.157,1.487,7.2,3.387,6.452,3.551-1.322,3.22-4.549c-.221-2.166-.579-6.865.662-5.459s1.4,1.819,3.55,1.571,4.873-2.48,4.873-.993-.579,2.814-.5,3.8a8.489,8.489,0,0,0,1.157,3.227c.577.992,2.4,2.729,3.883,2.4s.826-2.315.826-3.722.907-4.8,2.31-3.64.418,2.855,2.148,2.563c2.478-.412,3.883-4.133,5.286-4.382s6.278.827,5.531,4.053-.661,8.354,1.158,9.512,7.1,1.489,5.865-2.978-2.561-8.19-1.57-9.511a1.885,1.885,0,0,1,3.467,1.075c.086,2.231,1.075,6.534,2.892,4.715l1.816-1.82s1.158-3.227-.165-4.633,1.653-3.309,2.312-1.573-.329,4.386,2.477,2.815,1.653-5.044.91-5.626,4.789,1.158,4.544,4.22.328,5.374,1.65,4.715,1.487.329,1.487-3.145.331-5.873.909-5.046.081.911,1.486.579a4.345,4.345,0,0,0,2.972-4.466C133.837,90.422,136.9,87.188,134.824,83.63Z"/><path class="cls-4" d="M43.91,85.367c5.561,5.736,15.467,7.876,22.96,9.051,18.231,2.853,39.7,3.77,56.961-3.807,2.446-1.073,8.332-4.042,10.5-7.973-.08-.137-.156-.276-.249-.416,0,0-7.762-17.624-46.908-17.95-29.979-.247-37.784,4.1-37.784,4.1a75.319,75.319,0,0,0-8.4,5.2C39.092,76.493,39.661,80.99,43.91,85.367Z"/><path class="cls-5" d="M134.329,82.638c-2.166,3.931-8.052,6.9-10.5,7.973-17.261,7.577-38.73,6.66-56.961,3.807-7.493-1.175-17.4-3.315-22.96-9.051-4.249-4.377-4.818-8.874-2.923-11.794a4.222,4.222,0,0,0-.641.626c-1.239,1.614-4.583,7.2-3.593,9.43s3.964,2.482,3.1,4.839.741,6.08,2.353,5.085,1.61-1.983,1.982-.371-.621,5.957,3.1,6.329c0,0,1.156,1.322,2.313-.91s2.313-4.964,2.561-3.143-1.24,8.768-.495,10.174,1.65,1.488,2.394.577,1.074-3.969,1.816-4.382,1.24,0,1.984.33,2.063-.827,3.385-1.654,3.551-1.489,3.634,1.159,1.487,7.195,3.387,6.451,2.889-3.059,2.558-5.211.084-6.2,1.322-4.8,1.4,1.821,3.552,1.572,4.871-2.48,4.871-.991-.576,2.812-.495,3.805a8.481,8.481,0,0,0,1.157,3.225c.578.992,2.394,2.731,3.881,2.4s.826-2.315.826-3.723.909-4.8,2.312-3.639.827,3.722,2.147,2.564,3.882-4.136,5.287-4.385,6.275.828,5.533,4.056-.663,8.353,1.156,9.511,6.524,2.233,5.286-2.234-1.982-8.933-.992-10.256a1.885,1.885,0,0,1,3.468,1.074c.083,2.234,1.076,6.536,2.892,4.717l1.816-1.82s1.156-3.227-.164-4.633,1.651-3.308,2.312-1.572-.332,4.384,2.477,2.813,1.652-5.046.909-5.626,4.791,1.159,4.542,4.219.33,5.377,1.652,4.715,1.485.332,1.485-3.143.332-5.872.91-5.044a3.542,3.542,0,0,0,3.467,1.239c1.4-.331,2.313-2.646,2.232-5.129C134.579,89.428,136.4,86.2,134.329,82.638Z"/><path class="cls-6" d="M65.617,102.177s.186,3.723.959,4.593,1.735,1.054,2.261.558,1.642-1.272,1.023-1.4-1.828.093-2.2-.4a13.346,13.346,0,0,1-1.548-3.038C66.082,102.022,65.554,101.215,65.617,102.177Z"/><path class="cls-6" d="M52.517,100.5s-.743-.186-.619,2.573c.046,1.023-.188,2.049.68,3.01.432.479,1.58-.155,1.425-.62s-1.145-.528-1.177-1.4S53.323,100.565,52.517,100.5Z"/><path class="cls-7" d="M73.732,97.8a6.867,6.867,0,0,0,2.786.341c1.3-.185,2.323-.278,1.611.155s-3.159.963-3.84.62S71.872,97.587,73.732,97.8Z"/><path class="cls-6" d="M80.761,100.751s-1.146,3.765,2.757,6.638c1.163.858,1.89.279,1.95-.435s-.868-.8-1.517-1.24S81.66,99.417,80.761,100.751Z"/><path class="cls-6" d="M101.212,107.12s-.084,3.639,1.569,4.881,4.335,1.033,4.172.122-1.613-1.281-2.272-1.57S102.905,104.721,101.212,107.12Z"/><path class="cls-5" d="M46.619,85.763a5.073,5.073,0,0,0,2.247.2,1.29,1.29,0,1,0-2.508-.479Z"/><path class="cls-5" d="M68.874,83.423c-.395-2.678,3.629-2.5,3.132-.131-.4,1.891-2.263-.018-3.182.056"/><path class="cls-5" d="M75.392,77.518c.059-2.226,2.056-1.949,2-.01a9.11,9.11,0,0,1-2,.01"/><path class="cls-5" d="M76.39,91.916c.1-2.863,3.635.26.5,0Z"/><path class="cls-5" d="M105.949,91.34a3.591,3.591,0,0,0,1.558.513c.1-.565.554-1.185-.226-1.621a1.384,1.384,0,0,0-1.656,1.108Z"/><path class="cls-5" d="M80.7,92.289c-.173-2.017,2.505-2.376,2.307-.165a5.492,5.492,0,0,1-2.307.165"/><path class="cls-5" d="M71.08,79.175c-.3-2.386,2.267-2.86,2.6-.459-.66-.028-2.043.532-2.6.459"/><path class="cls-5" d="M54.063,89.121a5.106,5.106,0,0,0,2.247.2,1.29,1.29,0,1,0-2.508-.479Z"/><path class="cls-5" d="M89.059,85.106c-.747-1.94,2.3-2.483,2.323-.628.02,1.483-1.7.369-2.371.578"/><path class="cls-5" d="M62.567,81.926c.06-2.228,2.056-1.95,2-.009a9.171,9.171,0,0,1-2,.009"/><path class="cls-5" d="M58.812,70.832c.095-2.862,3.634.261.5,0Z"/><path class="cls-5" d="M97.471,83.949a3.623,3.623,0,0,0,1.56.514c.1-.565.553-1.185-.228-1.622a1.385,1.385,0,0,0-1.654,1.108Z"/><path class="cls-5" d="M102.97,93.647c-.175-2.017,2.5-2.377,2.307-.165a5.449,5.449,0,0,1-2.307.165"/><path class="cls-5" d="M80.723,88.081c-.3-2.387,2.265-2.86,2.6-.46-.662-.026-2.042.532-2.6.46"/><path class="cls-5" d="M60.684,76.046a5.109,5.109,0,0,0,2.247.2,1.29,1.29,0,1,0-2.51-.478Z"/><path class="cls-5" d="M74.337,87.8c-1-2.515,2.962-3.261,3.018-.846.045,1.932-2.206.5-3.083.786"/><path class="cls-5" d="M98.1,77.948c.06-2.227,2.056-1.95,2-.01a9.235,9.235,0,0,1-2,.01"/><path class="cls-5" d="M109.405,81.732c.094-2.863,3.632.26.5,0Z"/><path class="cls-5" d="M103.55,82.194a3.618,3.618,0,0,0,1.559.513c.1-.565.555-1.186-.226-1.621a1.388,1.388,0,0,0-1.656,1.108Z"/><path class="cls-5" d="M55.546,84.993c-.174-2.016,2.505-2.376,2.307-.163a5.474,5.474,0,0,1-2.307.163"/><path class="cls-5" d="M124.985,86.625c-.3-2.387,2.267-2.859,2.6-.459-.663-.027-2.044.532-2.6.459"/><path class="cls-8" d="M49.78,77.267s-5.81-1.707-5.81.27,4.676,1.257,4.676,1.257-3.329,1.738-.141,2.875c2.267.808,4.818-1.887,4.818-1.887S56.441,81.938,58,81.04s-2.268-2.246-2.268-2.246,4.819.18,3.827-1.347-4.394-.719-4.394-.719,4.394-2.335.709-2.785-3.26,2.246-3.26,2.246a3.226,3.226,0,0,0-3.4-2.335C46.379,73.943,49.78,77.267,49.78,77.267Z"/><path class="cls-8" d="M72.648,68.424s-5.811-1.364-5.811.215,4.677,1.005,4.677,1.005-3.329,1.388-.142,2.3c2.268.646,4.819-1.507,4.819-1.507s3.117,1.723,4.676,1S78.6,69.644,78.6,69.644s4.818.143,3.826-1.077-4.393-.574-4.393-.574,4.393-1.866.708-2.225-3.259,1.8-3.259,1.8-.567-1.938-3.4-1.866S72.648,68.424,72.648,68.424Z"/><path class="cls-8" d="M64.345,89.107s-5.81-1.364-5.81.215,4.677,1,4.677,1-3.329,1.388-.142,2.3c2.267.646,4.818-1.507,4.818-1.507s3.118,1.722,4.677,1S70.3,90.327,70.3,90.327s4.818.143,3.826-1.077-4.393-.574-4.393-.574,4.393-1.866.708-2.225-3.259,1.794-3.259,1.794-.567-1.937-3.4-1.866S64.345,89.107,64.345,89.107Z"/><path class="cls-8" d="M91,91s-5.81-1.364-5.81.215,4.676,1,4.676,1-3.329,1.389-.141,2.3c2.267.646,4.818-1.507,4.818-1.507s3.118,1.722,4.676,1-2.267-1.794-2.267-1.794,4.818.144,3.826-1.076-4.393-.575-4.393-.575,4.393-1.866.709-2.224-3.26,1.794-3.26,1.794-.567-1.938-3.4-1.866S91,91,91,91Z"/><path class="cls-8" d="M113.139,87.067s-5.81-1.363-5.81.216,4.677,1,4.677,1-3.33,1.389-.142,2.3c2.267.646,4.818-1.507,4.818-1.507s3.118,1.722,4.677,1-2.268-1.795-2.268-1.795,4.819.144,3.827-1.076-4.394-.574-4.394-.574,4.394-1.866.709-2.225-3.259,1.794-3.259,1.794-.567-1.938-3.4-1.866S113.139,87.067,113.139,87.067Z"/><path class="cls-8" d="M118.383,77.309s-5.811-1.364-5.811.215,4.677,1,4.677,1-3.329,1.388-.142,2.3c2.268.646,4.819-1.507,4.819-1.507s3.117,1.723,4.676,1-2.267-1.794-2.267-1.794,4.818.143,3.826-1.077-4.393-.574-4.393-.574,4.393-1.866.709-2.225-3.26,1.794-3.26,1.794-.567-1.937-3.4-1.866S118.383,77.309,118.383,77.309Z"/><path class="cls-9" d="M81.874,43.158s-2.1-.493-3.095-4.086.629-6.49,1.9-9.04A49.6,49.6,0,0,0,83.218,22.5a11.217,11.217,0,0,0,1.488,7.185c2.119,3.129,4.5,4.868,4.065,7.649s-3.2,5.216-3.2,5.216S83.252,44.047,81.874,43.158Z"/><path class="cls-10" d="M85.065,41.737a3.583,3.583,0,0,1-3.191-1.178c-1.075-1.487-1.812-1.719-.632-3.689a16.959,16.959,0,0,0,1.61-5.331,6.318,6.318,0,0,0,.965,3.824C84.971,36.87,87.244,41.39,85.065,41.737Z"/><path class="cls-11" d="M88.8,51.542c-2.782,1.72-6.848,2.934-10.011,2.225.087,1.55.165,3.629.241,5.956a18.4,18.4,0,0,0,9.968-3.454C88.9,54.756,88.811,52.975,88.8,51.542Z"/><path class="cls-12" d="M88.8,51.542c-.012-1.162-.247-2.474.147-2.467,1.2.019,3.552-4.528.976-5.213s-13.6-1.053-13.784,1.177S78,48.645,78.551,51.134a23.012,23.012,0,0,1,.234,2.633C81.948,54.476,86.014,53.262,88.8,51.542Z"/><path class="cls-12" d="M89.219,59.453s-.113-1.4-.225-3.184a18.4,18.4,0,0,1-9.968,3.454c.049,1.511.1,3.121.146,4.764a24.087,24.087,0,0,0,10.152-3.4Z"/><path class="cls-11" d="M89.59,65.2l-.266-4.116a24.087,24.087,0,0,1-10.152,3.4c.057,1.91.112,3.856.17,5.723A15.833,15.833,0,0,0,89.59,65.2Z"/><path class="cls-11" d="M90.07,72.644c-2.438,2.133-7.2,3.431-10.54,3.237a38.874,38.874,0,0,0,.4,5.612s1.012,1.544,5.977,1.626S90.6,80.805,90.6,80.805Z"/><path class="cls-12" d="M90.07,72.644,89.59,65.2A15.833,15.833,0,0,1,79.342,70.21c.059,2.044.12,3.988.188,5.671C82.873,76.075,87.632,74.777,90.07,72.644Z"/><path class="cls-13" d="M86.707,44.611s-.664.044-5.351.214c-1.767.066-2.2.5-1.555,1.356s.223,2.123,4.453,1.864C87.215,47.868,90.478,47.014,86.707,44.611Z"/><path class="cls-14" d="M83.424,45.558a19.565,19.565,0,0,0-.091-3.943c-.275-.686,1.105-1.631.921-.6a25.058,25.058,0,0,0,.184,4.2S83.885,46.159,83.424,45.558Z"/><line class="cls-15" x1="110.633" y1="54.947" x2="110.766" y2="74.971"/><polygon class="cls-16" points="108.378 50.385 110.598 45.905 113.102 49.167 117.942 49.213 114.341 53.384 116.809 57.899 110.633 54.947 103.913 58.856 107.503 53.096 102.855 50.134 108.378 50.385"/><line class="cls-15" x1="47.876" y1="58.27" x2="53.456" y2="77.501"/><polygon class="cls-16" points="44.464 54.494 45.381 49.579 48.194 52.881 53.593 51.63 51.018 55.756 54.623 59.429 47.876 58.27 42.475 63.861 44.361 57.341 39.081 55.756 44.464 54.494"/><line class="cls-15" x1="101.995" y1="72.239" x2="100.409" y2="88.33"/><polygon class="cls-16" points="99.74 68.837 101.96 64.357 103.979 69.049 109.304 68.567 105.703 71.836 108.171 76.351 101.995 73.399 95.275 77.308 98.865 71.548 94.217 68.586 99.74 68.837"/><line class="cls-15" x1="66.402" y1="61.559" x2="66.496" y2="75.709"/><polygon class="cls-16" points="64.808 58.335 66.378 55.17 68.147 57.475 71.567 58.145 69.022 60.455 70.766 63.645 66.402 61.559 61.654 64.322 64.191 60.252 60.906 58.158 64.808 58.335"/><line class="cls-15" x1="134.216" y1="70.287" x2="128.136" y2="83.582"/><polygon class="cls-16" points="134.129 66.572 136.979 64.291 137.631 67.222 140.543 69.34 137.152 70.395 137.395 74.144 134.216 70.287 128.565 70.804 132.715 68.098 130.551 64.705 134.129 66.572"/></svg>