<svg id="word" xmlns="http://www.w3.org/2000/svg" xmlns:xlink="http://www.w3.org/1999/xlink" viewBox="0 0 160 160"><defs><style>.cls-1{fill:#545456;}.cls-1,.cls-11,.cls-12,.cls-13,.cls-14,.cls-15,.cls-16,.cls-17,.cls-18,.cls-19,.cls-2,.cls-20,.cls-21,.cls-22,.cls-23,.cls-24,.cls-3,.cls-4,.cls-5,.cls-6,.cls-7,.cls-8,.cls-9{stroke:#9d4b9c;stroke-width:0.377px;}.cls-2{fill:url(#linear-gradient);}.cls-3{fill:#00bcf1;}.cls-4{fill:url(#linear-gradient-2);}.cls-5{fill:url(#linear-gradient-3);}.cls-6{fill:#231f20;}.cls-7{fill:url(#linear-gradient-4);}.cls-8{fill:none;}.cls-9{fill:url(#linear-gradient-5);}.cls-10{fill:#973693;}.cls-11{fill:url(#linear-gradient-6);}.cls-12{fill:url(#linear-gradient-7);}.cls-13{fill:url(#linear-gradient-8);}.cls-14{fill:url(#linear-gradient-9);}.cls-15{fill:url(#linear-gradient-10);}.cls-16{fill:url(#linear-gradient-11);}.cls-17{fill:url(#linear-gradient-12);}.cls-18{fill:url(#linear-gradient-13);}.cls-19{fill:#43444e;}.cls-20{fill:#a0a3b4;}.cls-21{fill:#6c6f7c;}.cls-22{fill:#bbbfd2;}.cls-23{fill:url(#linear-gradient-14);}.cls-24{fill:url(#linear-gradient-15);}</style><linearGradient id="linear-gradient" x1="79.668" y1="103.827" x2="79.668" y2="68.232" gradientUnits="userSpaceOnUse"><stop offset="0" stop-color="#007170"/><stop offset="1" stop-color="#91c855"/></linearGradient><linearGradient id="linear-gradient-2" x1="132.989" y1="68.933" x2="133.328" y2="85.576" gradientUnits="userSpaceOnUse"><stop offset="0" stop-color="#d9f0fc"/><stop offset="1" stop-color="#859ca9"/></linearGradient><linearGradient id="linear-gradient-3" x1="142.294" y1="68.839" x2="143.058" y2="84.973" xlink:href="#linear-gradient-2"/><linearGradient id="linear-gradient-4" x1="96.16" y1="69.601" x2="96.231" y2="84.64" xlink:href="#linear-gradient-2"/><linearGradient id="linear-gradient-5" x1="64.24" y1="69.601" x2="64.31" y2="84.64" xlink:href="#linear-gradient-2"/><linearGradient id="linear-gradient-6" x1="113.792" y1="78.981" x2="117.485" y2="78.981" xlink:href="#linear-gradient-2"/><linearGradient id="linear-gradient-7" x1="114.014" y1="93.645" x2="117.516" y2="93.645" xlink:href="#linear-gradient-2"/><linearGradient id="linear-gradient-8" x1="119.663" y1="79.156" x2="123.357" y2="79.156" xlink:href="#linear-gradient-2"/><linearGradient id="linear-gradient-9" x1="119.936" y1="93.899" x2="123.439" y2="93.899" xlink:href="#linear-gradient-2"/><linearGradient id="linear-gradient-10" x1="34.994" y1="78.302" x2="38.688" y2="78.302" xlink:href="#linear-gradient-2"/><linearGradient id="linear-gradient-11" x1="35.216" y1="92.965" x2="38.719" y2="92.965" xlink:href="#linear-gradient-2"/><linearGradient id="linear-gradient-12" x1="40.866" y1="78.476" x2="44.56" y2="78.476" xlink:href="#linear-gradient-2"/><linearGradient id="linear-gradient-13" x1="41.139" y1="93.22" x2="44.641" y2="93.22" xlink:href="#linear-gradient-2"/><linearGradient id="linear-gradient-14" x1="3300.016" y1="69.111" x2="3300.356" y2="85.753" gradientTransform="matrix(-1, 0, 0, 1, 3327.731, 0)" xlink:href="#linear-gradient-2"/><linearGradient id="linear-gradient-15" x1="3309.322" y1="69.017" x2="3310.086" y2="85.15" gradientTransform="matrix(-1, 0, 0, 1, 3327.731, 0)" xlink:href="#linear-gradient-2"/></defs><polygon class="cls-1" points="32.669 105.23 47.698 104.418 46.512 107.992 33.987 108.154 32.669 105.23"/><polygon class="cls-1" points="99.749 105.267 101.787 108.494 128.448 108.494 129.977 105.607 99.749 105.267"/><polygon class="cls-1" points="54.152 105.267 59.161 105.607 60.52 108.409 86.418 108.154 89.815 105.097 97.541 105.437 93.635 99.917 57.973 99.493 54.152 105.267"/><path class="cls-2" d="M16.536,65.15l127.2-.3,3.226,20.378s.169,4.245.169,4.925-1.188,10.189-1.188,10.189l-1.868,1.529-.679,4.245-46.7-.169-3.737-5.435H59.331l-4.415,4.925-38.181.33-3.928-9.522-.6-10.387,3.729-16.713Z"/><polygon class="cls-3" points="144.921 66.208 15.936 66.348 16.269 63.951 144.921 63.661 144.921 66.208"/><path class="cls-4" d="M137.088,83.722a1.413,1.413,0,0,1-1.444,1.379h-5.009a1.413,1.413,0,0,1-1.444-1.379V68.967a1.413,1.413,0,0,1,1.444-1.379h5.009a1.413,1.413,0,0,1,1.444,1.379Z"/><path class="cls-5" d="M138.723,68.161l5.434.085L147.6,85.1s-6.623.509-7.642-.064a2.864,2.864,0,0,1-1.528-2.484C138.489,81.725,138.723,68.161,138.723,68.161Z"/><path class="cls-3" d="M126.272,86.926l21.069-.106s-.191,5.986-.255,6.942a37.093,37.093,0,0,1-1.018,4.2l-19.615.064Z"/><path class="cls-6" d="M142.947,99.557l-1.337,6.75,2.42.064.509-2.994,2.739-.063s1.018-1.274.19-1.72a2.774,2.774,0,0,0-1.719-.254l.382-1.529Z"/><path class="cls-7" d="M109.864,83.673c0,.659-.746,1.194-1.667,1.194h-24c-.921,0-1.667-.535-1.667-1.194V70.542c0-.658.746-1.193,1.667-1.193h24c.921,0,1.667.535,1.667,1.193Z"/><line class="cls-8" x1="82.453" y1="76.714" x2="109.888" y2="76.784"/><line class="cls-8" x1="96.196" y1="69.402" x2="96.122" y2="76.679"/><path class="cls-9" d="M77.944,83.673c0,.659-.747,1.194-1.667,1.194H52.272c-.92,0-1.666-.535-1.666-1.194V70.542c0-.658.746-1.193,1.666-1.193H76.277c.92,0,1.667.535,1.667,1.193Z"/><line class="cls-8" x1="50.532" y1="76.714" x2="77.968" y2="76.784"/><line class="cls-8" x1="64.275" y1="69.402" x2="64.201" y2="76.679"/><rect class="cls-10" x="60.18" y="61.113" width="29.21" height="2.548"/><polygon class="cls-10" points="70.63 63.369 56.386 54.609 74.618 45.384 92.352 54.343 79.105 62.24 80.174 63.036 95.272 54.542 74.761 43.725 54.392 54.675 69.562 63.568 70.63 63.369"/><polygon class="cls-10" points="67.521 62.935 54.282 54.565 75.069 42.57 74.783 41.707 53.133 54.675 66.372 63.428 67.521 62.935"/><polygon class="cls-10" points="76.066 42.437 96.862 55.113 83.401 63.541 81.55 63.474 95.094 54.949 75.399 43.297 76.066 42.437"/><path class="cls-10" d="M72.86,42.836s.5-3.186,1.14-3.385a9.416,9.416,0,0,0,1.069-.4l-.5,5.242,2.065.2-.356-6.9s-3.418,0-3.775,1.592a33.915,33.915,0,0,0-.5,4.314l.712-.4"/><rect class="cls-11" x="113.792" y="72.135" width="3.693" height="13.692" rx="1.444"/><rect class="cls-12" x="114.014" y="86.99" width="3.502" height="13.31" rx="1.444"/><polyline class="cls-8" points="113.055 105.897 113.122 70.241 124.458 70.241 124.502 106.056"/><rect class="cls-13" x="119.663" y="72.31" width="3.694" height="13.692" rx="1.444"/><rect class="cls-14" x="119.936" y="87.244" width="3.503" height="13.31" rx="1.444"/><line class="cls-8" x1="118.499" y1="70.195" x2="118.499" y2="106.136"/><rect class="cls-15" x="34.994" y="71.456" width="3.694" height="13.692" rx="1.444"/><rect class="cls-16" x="35.216" y="86.311" width="3.502" height="13.309" rx="1.444"/><polyline class="cls-8" points="34.258 105.217 34.325 69.562 45.66 69.562 45.705 105.377"/><rect class="cls-17" x="40.866" y="71.63" width="3.694" height="13.692" rx="1.444"/><rect class="cls-18" x="41.139" y="86.565" width="3.503" height="13.309" rx="1.444"/><line class="cls-8" x1="39.701" y1="69.516" x2="39.701" y2="105.458"/><path class="cls-19" d="M66.343,106.552a4.441,4.441,0,1,1-4.27-4.6A4.441,4.441,0,0,1,66.343,106.552Z"/><path class="cls-20" d="M64.8,106.5a2.9,2.9,0,1,1-2.787-3.057A2.925,2.925,0,0,1,64.8,106.5Z"/><path class="cls-21" d="M60.482,107.726a1.844,1.844,0,0,0,1.043.651l.235-1.687Z"/><path class="cls-21" d="M63.078,107.97a2.078,2.078,0,0,0,.673-1.177l-1.575-.259Z"/><path class="cls-21" d="M60.03,106.183c-.005.044-.01.086-.011.131a2.122,2.122,0,0,0,.313,1.2l1.315-1.066Z"/><path class="cls-21" d="M63.5,105.285l-1.236,1,1.526.25c0-.027.006-.053.006-.08A2.126,2.126,0,0,0,63.5,105.285Z"/><path class="cls-21" d="M63.349,105.07a1.864,1.864,0,0,0-1.007-.665l-.234,1.67Z"/><path class="cls-21" d="M60.762,104.775a2.063,2.063,0,0,0-.693,1.152l1.581.258Z"/><path class="cls-21" d="M62.086,104.363c-.034,0-.068-.008-.1-.01a1.791,1.791,0,0,0-1.008.271l.88,1.4Z"/><path class="cls-21" d="M61.781,108.414c.016,0,.032,0,.048,0a1.786,1.786,0,0,0,1.041-.292l-.858-1.365Z"/><path class="cls-22" d="M62.635,106.412a.73.73,0,1,1-.7-.755A.73.73,0,0,1,62.635,106.412Z"/><path class="cls-19" d="M92.9,106.425a4.441,4.441,0,1,1-4.27-4.6A4.442,4.442,0,0,1,92.9,106.425Z"/><path class="cls-20" d="M91.36,106.367a2.9,2.9,0,1,1-2.787-3.056A2.925,2.925,0,0,1,91.36,106.367Z"/><path class="cls-21" d="M87.037,107.6a1.855,1.855,0,0,0,1.043.652l.237-1.687Z"/><path class="cls-21" d="M89.635,107.842a2.08,2.08,0,0,0,.672-1.176l-1.575-.259Z"/><path class="cls-21" d="M86.586,106.055c0,.044-.009.087-.012.131a2.142,2.142,0,0,0,.313,1.2l1.316-1.066Z"/><path class="cls-21" d="M90.053,105.157l-1.238,1,1.526.249c0-.026.007-.053.008-.079A2.138,2.138,0,0,0,90.053,105.157Z"/><path class="cls-21" d="M89.905,104.943a1.856,1.856,0,0,0-1.007-.666l-.234,1.67Z"/><path class="cls-21" d="M87.318,104.648a2.063,2.063,0,0,0-.694,1.152l1.581.258Z"/><path class="cls-21" d="M88.642,104.235c-.035,0-.068-.008-.1-.009a1.77,1.77,0,0,0-1.007.271l.879,1.4Z"/><path class="cls-21" d="M88.337,108.287c.017,0,.031,0,.048,0A1.784,1.784,0,0,0,89.427,108l-.859-1.364Z"/><path class="cls-22" d="M89.19,106.285a.729.729,0,1,1-.7-.755A.728.728,0,0,1,89.19,106.285Z"/><rect class="cls-3" x="46.186" y="86.841" width="65.875" height="11.123"/><path class="cls-23" d="M23.615,83.9a1.413,1.413,0,0,0,1.444,1.379h5.009A1.414,1.414,0,0,0,31.513,83.9V69.144a1.414,1.414,0,0,0-1.445-1.379H25.059a1.413,1.413,0,0,0-1.444,1.379Z"/><path class="cls-24" d="M21.98,68.338l-5.433.085L13.108,85.278s6.622.51,7.642-.064a2.866,2.866,0,0,0,1.528-2.484C22.215,81.9,21.98,68.338,21.98,68.338Z"/><path class="cls-3" d="M34.431,87.1,13.363,87s.19,5.986.254,6.941a37.078,37.078,0,0,0,1.019,4.2l19.614.064Z"/><path class="cls-6" d="M17.757,99.734l1.337,6.751-2.42.063-.509-2.993-2.739-.063s-1.019-1.274-.191-1.72a2.773,2.773,0,0,1,1.72-.255l-.382-1.528Z"/></svg>