<svg id="word" xmlns="http://www.w3.org/2000/svg" viewBox="0 0 160 160"><defs><style>.cls-1{fill:#4f62a5;}.cls-1,.cls-10,.cls-12,.cls-13,.cls-14,.cls-15,.cls-16,.cls-17,.cls-18,.cls-19,.cls-2,.cls-3,.cls-4,.cls-5,.cls-6,.cls-7,.cls-8,.cls-9{stroke:#9d4b9c;stroke-miterlimit:10;}.cls-1,.cls-2,.cls-3,.cls-4{stroke-width:0.351px;}.cls-2{fill:#f38235;}.cls-3{fill:#fcee4b;}.cls-4{fill:#fcc145;}.cls-5{fill:#26a7df;}.cls-10,.cls-12,.cls-13,.cls-14,.cls-15,.cls-16,.cls-17,.cls-18,.cls-19,.cls-5,.cls-6,.cls-7,.cls-8,.cls-9{stroke-width:0.281px;}.cls-6,.cls-8{fill:#fdeadf;}.cls-7{fill:#c2976a;}.cls-8,.cls-9{stroke-linecap:round;}.cls-9{fill:#d999a8;}.cls-10{fill:#fff;}.cls-11{fill:#9c4c9c;}.cls-12{fill:#fde1d3;}.cls-13{fill:#9d1d20;}.cls-14{fill:#fab365;}.cls-15{fill:none;}.cls-16{fill:#52a37b;}.cls-17{fill:#895d3b;}.cls-18{fill:#5b4a42;}.cls-19{fill:#d8e14e;}.cls-20{fill:#2a3b8e;}</style></defs><path class="cls-1" d="M148.1,72.149H38.284V78.67H148.1S148.579,71.723,148.1,72.149Z"/><path class="cls-1" d="M148.111,64.3H45.513v6.522h102.6S148.561,63.875,148.111,64.3Z"/><path class="cls-2" d="M132.416,70.652l-10.251-.033.252-6.489c.042-1.095.561-1.982,1.158-1.98l7.5.025c.923,0,1.618,1.377,1.552,3.07Z"/><path class="cls-2" d="M119.336,70.652l-10.251-.033.251-6.489c.043-1.095.561-1.982,1.159-1.98l7.5.025c.923,0,1.619,1.377,1.553,3.07Z"/><path class="cls-3" d="M106.256,70.652l-10.251-.033.251-6.489c.043-1.095.561-1.982,1.158-1.98l7.5.025c.923,0,1.618,1.377,1.553,3.07Z"/><path class="cls-4" d="M93.175,70.652l-10.25-.033.251-6.489c.043-1.095.561-1.982,1.158-1.98l7.5.025c.923,0,1.618,1.377,1.553,3.07Z"/><path class="cls-4" d="M80.1,70.652l-10.25-.033L70.1,64.13c.042-1.095.561-1.982,1.158-1.98l7.5.025c.923,0,1.618,1.377,1.553,3.07Z"/><path class="cls-5" d="M105.994,46.18s.348,5.217.522,6.3,1.261,5.435,1.391,5.957,1.174,3.826,1.174,3.826a5.612,5.612,0,0,0,1.392-2.3,14.9,14.9,0,0,0,.565-2.768c-.044-.739-1.913-5.667-2.044-6.145s-.739-4.87-.739-4.87Z"/><path class="cls-5" d="M121.125,46.528s-.783,4.13-.783,4.7a14.873,14.873,0,0,1-1,3.869c-.521,1.174-2.521,4.392-2.521,4.392a21.974,21.974,0,0,0,1.652,3.478c.391.3,1.478.261,1.826-1.043s1.783-5.914,1.783-5.914l1.217-9.391Z"/><path class="cls-5" d="M111.1,57.079l-1.928,5.449.435,7.914a7.763,7.763,0,0,1,2.217.217,70.474,70.474,0,0,0,7.522.217s.305-5.608.522-6.782.884-3.653.884-3.653L117.6,57.746Z"/><path class="cls-6" d="M110.081,52.006s.45,4.583,1.7,6.522c1.3,2.029,3.507,2.247,4.333,1.594a13.215,13.215,0,0,0,2.711-5.333c.043-1.131.391-3.783.043-4.044a9.375,9.375,0,0,0-4.609-1.174,9.73,9.73,0,0,0-3.782,1Z"/><path class="cls-7" d="M118.024,51.18a14.205,14.205,0,0,0-1.957,1.174c-.348.348-.217-.522.13-.913s-1.739.783-2.087,1a1.554,1.554,0,0,1-.739.217l1-1.217-2.348.957,1-1.044-1.739.957a8.5,8.5,0,0,0-.7,2.174c.044.521.131,1.087.131,1.087s-1.348-2.827-1.261-3.74a6.25,6.25,0,0,1,.609-2.391c.261-.3-.783.261-.783.261a8.218,8.218,0,0,1,1.7-.913c.391-.044-1.305-.3-1.305-.3s.392-.391,2.218-.391-.652-1.044-.652-1.044a12.781,12.781,0,0,1,3.13.261c.609.3,1.348.7,1.348.7l-.3-.783a8.593,8.593,0,0,1,1.608.87c.131.217.914-.739.914-.739a6.134,6.134,0,0,0,.087,1.478c.13.218,1.565.174,1.565.174a6.538,6.538,0,0,0-.044,1.348,4.424,4.424,0,0,1-.13,1.522c-.131.826.13,1.087-.131,1.869s-.565,1.624-.565,1.624a6.466,6.466,0,0,0,.087-2.189c-.217-.565-.782-1.783-.782-1.783Z"/><path class="cls-8" d="M114.127,56.453a.771.771,0,0,1,.831-.023"/><path class="cls-9" d="M116.33,56.6a3.881,3.881,0,0,1-1.42.8,3.616,3.616,0,0,1-.857.064.922.922,0,0,1-.791-.274c-.035-.051-.112-.113-.142-.058,0,0,1.222,1.639,1.585,1.667.565.043,1.246-.827,1.333-1.247A7.539,7.539,0,0,1,116.33,56.6Z"/><path class="cls-8" d="M111.236,54.115c.138-.033.183-.2.269-.315a.645.645,0,0,1,.152-.138,1.665,1.665,0,0,1,1.482-.207"/><ellipse class="cls-10" cx="112.313" cy="55.267" rx="0.638" ry="0.884"/><ellipse class="cls-11" cx="112.086" cy="55.376" rx="0.382" ry="0.529"/><ellipse class="cls-10" cx="116.357" cy="55.035" rx="0.638" ry="0.884"/><ellipse class="cls-11" cx="116.13" cy="55.144" rx="0.382" ry="0.529"/><path class="cls-8" d="M117.356,53.738c-.138-.033-.183-.2-.268-.315a.672.672,0,0,0-.153-.138,1.666,1.666,0,0,0-1.481-.207"/><path class="cls-12" d="M89.3,57.985a9.458,9.458,0,0,0,0,1.259c.055.215-.441.886-.441.886a5.939,5.939,0,0,0,.223,1.726,10.927,10.927,0,0,0,1.182,1.39s1.488-1.893,1.654-2.229a12.107,12.107,0,0,0,.439-1.394l-.55-1.638Z"/><path class="cls-13" d="M88.173,70.941a12.892,12.892,0,0,1-2.4-.959s-.581.2-.112-2.506a10.281,10.281,0,0,0-.556-5.149A21.708,21.708,0,0,0,87.4,60.011l.055-.288a1.664,1.664,0,0,1,.4-.094c.743-.055,1.038-.146,1.135-.056,0,0-.051-.018.059.773a7.226,7.226,0,0,0,.992,2.109,3.6,3.6,0,0,0,1.433-1.1,12.158,12.158,0,0,0,.814-1.769l.7-.1s1.755,2.04,1.893,3.214-1.121,3.881-.46,5.1a6.971,6.971,0,0,1,.794,3.084c-.083.144-1.112-.074-1.112-.074s-4.642.489-5.937.13"/><path class="cls-12" d="M85.765,50.735s-.265,2.444-.237,2.612-.619.551.117,2.013A7.883,7.883,0,0,0,89.3,58.668a3.882,3.882,0,0,0,3.057-.7c1.214-.86,2.564-1.315,2.592-2.993s-.662-4.482-1.571-5.465-2.4-1.965-4.078-1.126A23.192,23.192,0,0,0,85.765,50.735Z"/><path class="cls-14" d="M92.36,49.177s0,.407-.8.407-2.893-.647-3.113.168a2.473,2.473,0,0,0,.11,1.965c.276.288.059.36-.246,0a5.381,5.381,0,0,1-.605-1.03s.052.958.3,1.174,0,.527-.772-.24-.633-.743-.771-.311-.551.719-.551,1.078.055.989-.276,1.271-.468.239-.468.239.073.707-.239-.5-1.3-1.228-.863-2.259,1.1-1.2,1.1-1.8.118-1.509,2.047-2.156a5.863,5.863,0,0,1,3.261-.313c1.659.094,1.305.815,1.415.887s.772-.1.772-.1c1.983.288,2.216-.091,3.153,1.491S97.786,50.586,96.932,52a10.238,10.238,0,0,0-1.016,2.689c-.276.6-.789-.049-.789-.049s-1.192.921-1.275,0,.438-.694.108-1.892a7.033,7.033,0,0,0-1.323-2.469A2.2,2.2,0,0,1,92.36,49.177Z"/><path class="cls-10" d="M87.059,53.06c1.032.431.649,1.143.649,1.143s-.416.606-1,.391S86.028,52.628,87.059,53.06Z"/><path class="cls-15" d="M87.217,55.569a3.015,3.015,0,0,0,2.491.895,7.393,7.393,0,0,0,2.644-.791"/><path class="cls-15" d="M88.487,55.412a.537.537,0,0,1,.553-.361.963.963,0,0,1,.646.3"/><path class="cls-12" d="M94.934,54.375s1.065-.387,1.257,0-.082.407-.247.8.09.934-.817,1.212-.979-.39-.952-.534"/><ellipse class="cls-11" cx="86.978" cy="53.498" rx="0.552" ry="0.507"/><path class="cls-10" d="M91.116,53.06c1.032.431.649,1.143.649,1.143s-.416.606-1,.391S90.085,52.628,91.116,53.06Z"/><ellipse class="cls-11" cx="91.035" cy="53.498" rx="0.552" ry="0.507"/><path class="cls-15" d="M90.1,51.938a1.415,1.415,0,0,1,1.5.13"/><path class="cls-15" d="M86.153,52.509a1.09,1.09,0,0,1,1.124-.307"/><path class="cls-16" d="M82.351,46.691s.752,7.353.92,8.4,1.215,5.236,1.34,5.739,1.131,3.686,1.131,3.686a5.406,5.406,0,0,0,1.341-2.22,14.316,14.316,0,0,0,.544-2.667c-.041-.712-1.8-4.621-1.926-5.082s-.889-7.933-.889-7.933Z"/><path class="cls-16" d="M96.81,46.46S96,51.109,96,51.653a14.363,14.363,0,0,1-.963,3.729c-.5,1.131-2.43,4.23-2.43,4.23A21.242,21.242,0,0,0,94.2,62.963c.377.294,1.424.252,1.759-1.005s1.718-5.7,1.718-5.7l1.211-9.724Z"/><path class="cls-4" d="M145.5,70.652l-10.251-.033.252-6.489c.042-1.095.561-1.982,1.158-1.98l7.5.025c.923,0,1.618,1.377,1.552,3.07Z"/><path class="cls-4" d="M67.015,70.652l-10.25-.033.251-6.489c.042-1.095.561-1.982,1.158-1.98l7.5.025c.923,0,1.618,1.377,1.552,3.07Z"/><path class="cls-4" d="M53.935,70.652l-10.251-.033.252-6.489c.042-1.095.561-1.982,1.158-1.98l7.5.025c.923,0,1.618,1.377,1.552,3.07Z"/><path class="cls-17" d="M88.316,69.369s-2.382-2.292-3.052-.328.075,9.165.075,9.165l4.055.261S90.326,71.414,88.316,69.369Z"/><path class="cls-17" d="M92.315,69.369s-2.382-2.292-3.051-.328.074,9.165.074,9.165l4.055.261S94.325,71.414,92.315,69.369Z"/><path class="cls-18" d="M113.234,69.215s-3.526-1.493-4.2.471,1.218,8.367,1.218,8.367l4.056.26S115.243,71.261,113.234,69.215Z"/><path class="cls-18" d="M117.805,69.224s-2.954-2.3-3.624-.337.075,9.166.075,9.166l4.055.26S119.815,71.27,117.805,69.224Z"/><path class="cls-1" d="M148.083,80H30.747v6.521H148.083S148.6,79.571,148.083,80Z"/><path class="cls-1" d="M148.079,87.845H28.747v6.521H148.079S148.6,87.419,148.079,87.845Z"/><path class="cls-1" d="M148.054,95.693H16.289v6.521H148.054S148.632,95.268,148.054,95.693Z"/><path class="cls-4" d="M139.032,78.5l-10.251-.033.252-6.489c.042-1.095.56-1.982,1.158-1.98l7.5.025c.923,0,1.618,1.377,1.552,3.07Z"/><path class="cls-2" d="M125.952,78.5,115.7,78.467l.251-6.489c.043-1.095.561-1.982,1.159-1.98l7.5.025c.923,0,1.619,1.377,1.553,3.07Z"/><path class="cls-2" d="M112.871,78.5l-10.25-.033.251-6.489c.043-1.095.561-1.982,1.158-1.98l7.5.025c.923,0,1.618,1.377,1.553,3.07Z"/><path class="cls-3" d="M99.791,78.5l-10.25-.033.251-6.489c.042-1.095.561-1.982,1.158-1.98l7.5.025c.923,0,1.618,1.377,1.553,3.07Z"/><path class="cls-4" d="M86.711,78.5l-10.25-.033.251-6.489c.042-1.095.561-1.982,1.158-1.98l7.5.025c.923,0,1.618,1.377,1.553,3.07Z"/><path class="cls-4" d="M73.631,78.5l-10.25-.033.251-6.489c.042-1.095.561-1.982,1.158-1.98l7.5.025c.923,0,1.618,1.377,1.552,3.07Z"/><path class="cls-4" d="M60.551,78.5,50.3,78.467l.252-6.489c.042-1.095.561-1.982,1.158-1.98l7.5.025c.923,0,1.618,1.377,1.552,3.07Z"/><path class="cls-4" d="M47.471,78.5,37.22,78.467l.251-6.489c.043-1.095.561-1.982,1.159-1.98l7.5.025c.923,0,1.619,1.377,1.553,3.07Z"/><path class="cls-4" d="M145.034,86.349l-10.25-.034.251-6.489c.042-1.095.561-1.981,1.158-1.98l7.5.025c.923,0,1.618,1.378,1.553,3.07Z"/><path class="cls-4" d="M131.954,86.349l-10.25-.034.251-6.489c.042-1.095.561-1.981,1.158-1.98l7.5.025c.923,0,1.618,1.378,1.552,3.07Z"/><path class="cls-2" d="M118.874,86.349l-10.251-.034.252-6.489c.042-1.095.561-1.981,1.158-1.98l7.5.025c.923,0,1.618,1.378,1.552,3.07Z"/><path class="cls-2" d="M105.794,86.349l-10.251-.034.252-6.489c.042-1.095.56-1.981,1.158-1.98l7.5.025c.923,0,1.618,1.378,1.552,3.07Z"/><path class="cls-3" d="M92.714,86.349l-10.251-.034.251-6.489c.043-1.095.561-1.981,1.159-1.98l7.5.025c.923,0,1.619,1.378,1.553,3.07Z"/><path class="cls-4" d="M79.634,86.349l-10.251-.034.251-6.489c.043-1.095.561-1.981,1.158-1.98l7.5.025c.923,0,1.618,1.378,1.553,3.07Z"/><path class="cls-4" d="M66.553,86.349,56.3,86.315l.251-6.489c.043-1.095.561-1.981,1.158-1.98l7.5.025c.923,0,1.618,1.378,1.553,3.07Z"/><path class="cls-4" d="M53.473,86.349l-10.25-.034.251-6.489c.042-1.095.561-1.981,1.158-1.98l7.5.025c.923,0,1.618,1.378,1.553,3.07Z"/><path class="cls-4" d="M39.784,86.349l-10.251-.034.252-6.489c.042-1.095.561-1.981,1.158-1.98l7.5.025c.923,0,1.618,1.378,1.552,3.07Z"/><path class="cls-4" d="M137.185,94.2l-10.251-.034.252-6.489c.042-1.1.561-1.981,1.158-1.979l7.5.024c.923,0,1.618,1.378,1.552,3.07Z"/><path class="cls-4" d="M124.105,94.2l-10.251-.034.251-6.489c.043-1.1.561-1.981,1.159-1.979l7.5.024c.923,0,1.619,1.378,1.553,3.07Z"/><path class="cls-2" d="M111.025,94.2l-10.251-.034.251-6.489c.043-1.1.561-1.981,1.158-1.979l7.5.024c.923,0,1.618,1.378,1.553,3.07Z"/><path class="cls-2" d="M97.944,94.2l-10.25-.034.251-6.489c.043-1.1.561-1.981,1.158-1.979l7.5.024c.923,0,1.618,1.378,1.553,3.07Z"/><path class="cls-3" d="M84.864,94.2l-10.25-.034.251-6.489c.042-1.1.561-1.981,1.158-1.979l7.5.024c.923,0,1.618,1.378,1.553,3.07Z"/><path class="cls-4" d="M71.784,94.2l-10.25-.034.251-6.489c.042-1.1.561-1.981,1.158-1.979l7.5.024c.923,0,1.618,1.378,1.552,3.07Z"/><path class="cls-4" d="M58.7,94.2l-10.251-.034.252-6.489c.042-1.1.561-1.981,1.158-1.979l7.5.024c.923,0,1.618,1.378,1.552,3.07Z"/><path class="cls-4" d="M45.624,94.2l-10.251-.034.252-6.489c.042-1.1.56-1.981,1.158-1.979l7.5.024c.923,0,1.618,1.378,1.552,3.07Z"/><path class="cls-4" d="M31.934,94.2l-10.25-.034.251-6.489c.043-1.1.561-1.981,1.158-1.979l7.5.024c.923,0,1.618,1.378,1.553,3.07Z"/><path class="cls-4" d="M144.111,102.045l-10.251-.034.252-6.489c.042-1.095.56-1.981,1.158-1.979l7.5.024c.923,0,1.618,1.378,1.552,3.07Z"/><path class="cls-4" d="M131.031,102.045l-10.251-.034.251-6.489c.043-1.095.561-1.981,1.159-1.979l7.5.024c.923,0,1.619,1.378,1.553,3.07Z"/><path class="cls-4" d="M117.95,102.045l-10.25-.034.251-6.489c.043-1.095.561-1.981,1.158-1.979l7.5.024c.923,0,1.618,1.378,1.553,3.07Z"/><path class="cls-2" d="M104.87,102.045l-10.25-.034.251-6.489c.042-1.095.561-1.981,1.158-1.979l7.5.024c.923,0,1.618,1.378,1.553,3.07Z"/><path class="cls-2" d="M91.79,102.045l-10.25-.034.251-6.489c.042-1.095.561-1.981,1.158-1.979l7.5.024c.923,0,1.618,1.378,1.553,3.07Z"/><path class="cls-3" d="M78.71,102.045l-10.25-.034.251-6.489c.042-1.095.561-1.981,1.158-1.979l7.5.024c.923,0,1.618,1.378,1.552,3.07Z"/><path class="cls-4" d="M65.63,102.045l-10.251-.034.252-6.489c.042-1.095.561-1.981,1.158-1.979l7.5.024c.923,0,1.618,1.378,1.552,3.07Z"/><path class="cls-4" d="M52.55,102.045,42.3,102.011l.251-6.489c.043-1.095.561-1.981,1.159-1.979l7.5.024c.924,0,1.619,1.378,1.553,3.07Z"/><path class="cls-4" d="M38.86,102.045l-10.25-.034.251-6.489c.043-1.095.561-1.981,1.158-1.979l7.5.024c.923,0,1.618,1.378,1.553,3.07Z"/><path class="cls-19" d="M78.717,42.267s-.044,2.565,0,3.391a5.478,5.478,0,0,1-.749,2.186s27.438-.833,28.916-.615,11.1.461,13.228.461a50.726,50.726,0,0,1,7.076,1.077l-1.019-6.457Z"/><path class="cls-6" d="M107.733,41.716s-.319-.319-.434,0-.2,1.536.144,1.536S107.936,41.948,107.733,41.716Z"/><path class="cls-6" d="M107.067,41.629s-.7-.406-.609.29,0,1.42.377,1.333.319-.521.319-.811A6.7,6.7,0,0,0,107.067,41.629Z"/><path class="cls-6" d="M106.139,41.716a.609.609,0,0,0-.435.667c.01.377-.058.782.319.724S106.545,41.977,106.139,41.716Z"/><path class="cls-6" d="M105.53,41.977s-.434.261-.405.609.26.811.434.521S105.965,42.151,105.53,41.977Z"/><path class="cls-6" d="M121.129,41.716s.319-.319.435,0,.2,1.536-.145,1.536S120.927,41.948,121.129,41.716Z"/><path class="cls-6" d="M121.8,41.629s.7-.406.609.29,0,1.42-.377,1.333-.319-.521-.319-.811A6.7,6.7,0,0,1,121.8,41.629Z"/><path class="cls-6" d="M122.724,41.716a.609.609,0,0,1,.435.667c-.01.377.058.782-.319.724S122.318,41.977,122.724,41.716Z"/><path class="cls-6" d="M123.332,41.977s.435.261.406.609-.261.811-.435.521S122.9,42.151,123.332,41.977Z"/><path class="cls-6" d="M83.739,41.408s-.319-.319-.435,0-.2,1.537.145,1.537S83.941,41.64,83.739,41.408Z"/><path class="cls-6" d="M83.072,41.321s-.7-.405-.609.29,0,1.421.377,1.334.319-.522.319-.812A6.7,6.7,0,0,0,83.072,41.321Z"/><path class="cls-6" d="M82.144,41.408a.61.61,0,0,0-.435.667c.01.378-.058.783.319.725S82.55,41.669,82.144,41.408Z"/><path class="cls-6" d="M81.536,41.669s-.435.261-.406.609.261.812.435.522S81.97,41.843,81.536,41.669Z"/><path class="cls-6" d="M97.135,41.408s.319-.319.434,0,.2,1.537-.144,1.537S96.932,41.64,97.135,41.408Z"/><path class="cls-6" d="M97.8,41.321s.7-.405.609.29,0,1.421-.377,1.334-.319-.522-.319-.812A6.7,6.7,0,0,1,97.8,41.321Z"/><path class="cls-6" d="M98.729,41.408a.61.61,0,0,1,.435.667c-.01.378.058.783-.319.725S98.323,41.669,98.729,41.408Z"/><path class="cls-6" d="M99.338,41.669s.434.261.405.609-.26.812-.434.522S98.9,41.843,99.338,41.669Z"/><path class="cls-20" d="M86.01,46.557V45.324a2.162,2.162,0,0,0,.907.591,3.662,3.662,0,0,0,1.276.213c.489,0,.733-.066.733-.2a.123.123,0,0,0-.1-.124,2.77,2.77,0,0,0-.471-.06l-.538-.042a4.984,4.984,0,0,1-1.324-.225q-.617-.247-.617-.7a.741.741,0,0,1,.414-.667,2.267,2.267,0,0,1,1.14-.242,3.8,3.8,0,0,1,1.254.193l.1.036.69-.213v1.04a3.712,3.712,0,0,0-2.062-.63q-.659,0-.659.2c0,.061.053.107.16.139a3.6,3.6,0,0,0,.6.083l.523.041A4.39,4.39,0,0,1,89.362,45a.807.807,0,0,1,.559.714.712.712,0,0,1-.442.637,2.53,2.53,0,0,1-1.189.237,5.417,5.417,0,0,1-1.64-.265Z"/><path class="cls-20" d="M94.679,44l-.589.449,1.029,1.437.93.575h-3.1l.854-.505-.112-.169H92.274l-.109.169.742.505h-2.3l.725-.575,1.013-1.437L91.77,44Zm-1.73.714-.435.667h.9Z"/><path class="cls-20" d="M96.627,44h3.432l.577.037a1.582,1.582,0,0,1,.7.239.521.521,0,0,1,.271.428q0,.47-1.069.593a1.333,1.333,0,0,1,.556.259,1.627,1.627,0,0,1,.369.549l.6.357h-1.745a4.251,4.251,0,0,0-.4-.786c-.074-.106-.247-.159-.517-.159h-.6v.373l.9.572H96.627l.9-.572V44.574Zm2.174,1.03h.8l.251,0q.406,0,.407-.269a.232.232,0,0,0-.133-.235,1.48,1.48,0,0,0-.521-.06H98.8Z"/><path class="cls-20" d="M106.65,44l-.59.449,1.029,1.437.93.575h-3.1l.855-.505-.112-.169h-1.417l-.11.169.743.505h-2.3l.724-.575,1.013-1.437L103.74,44Zm-1.731.714-.434.667h.9Z"/><path class="cls-20" d="M113.992,44l-.9.574v1.052a.773.773,0,0,1-.431.724,2.874,2.874,0,0,1-1.326.235,3.327,3.327,0,0,1-1.437-.267q-.555-.265-.555-.692V44.573l-.9-.574h2.994l-.82.574v.937a.487.487,0,0,0,.209.44,1.257,1.257,0,0,0,.669.137,1.315,1.315,0,0,0,.689-.138.481.481,0,0,0,.215-.439v-.937l-.82-.574Z"/><path class="cls-20" d="M114.778,45.367l.924-.12-.016.083a1.691,1.691,0,0,0-.041.293q0,.464.43.464a.338.338,0,0,0,.3-.118.956.956,0,0,0,.077-.466v-.93l-.9-.574h3.076l-.9.574v1.045a.7.7,0,0,1-.178.537,2.087,2.087,0,0,1-1.438.429,2.119,2.119,0,0,1-1.066-.226.694.694,0,0,1-.387-.623A.716.716,0,0,1,114.778,45.367Z"/><path class="cls-20" d="M120.069,45.8a.678.678,0,0,1,.376.107.26.26,0,0,1,0,.484.719.719,0,0,1-.753,0,.262.262,0,0,1,0-.486A.678.678,0,0,1,120.069,45.8Zm.016-.18h-.045l-.465-1.1a.432.432,0,0,1-.038-.168.363.363,0,0,1,.154-.291.579.579,0,0,1,.369-.122.555.555,0,0,1,.371.125.391.391,0,0,1,.148.313.362.362,0,0,1-.029.143Z"/><path class="cls-4" d="M24.863,102.045l-10.25-.034.251-6.489c.043-1.095.561-1.981,1.158-1.979l7.5.024c.923,0,1.618,1.378,1.553,3.07Z"/></svg>