<svg id="word" xmlns="http://www.w3.org/2000/svg" xmlns:xlink="http://www.w3.org/1999/xlink" viewBox="0 0 160 160"><defs><style>.cls-1{fill:#2e1f5d;}.cls-2{fill:#fff;}.cls-15,.cls-2,.cls-4,.cls-5{stroke:#973693;stroke-width:0.256px;}.cls-15,.cls-3{fill:none;}.cls-4{fill:#4f4193;}.cls-5{fill:#9ea0a3;}.cls-6{fill:#973693;}.cls-10,.cls-11,.cls-12,.cls-13,.cls-14,.cls-16,.cls-17,.cls-18,.cls-19,.cls-7,.cls-9{stroke:#9d4b9c;stroke-width:0.363px;}.cls-7{fill:url(#linear-gradient);}.cls-8{fill:#323031;}.cls-9{fill:url(#linear-gradient-2);}.cls-10{fill:url(#linear-gradient-3);}.cls-11{fill:url(#linear-gradient-4);}.cls-12{fill:url(#linear-gradient-5);}.cls-13{fill:url(#linear-gradient-6);}.cls-14{fill:url(#linear-gradient-7);}.cls-16{fill:#595a59;}.cls-17{fill:#e7e8e8;}.cls-18{fill:#444344;}.cls-19{fill:url(#linear-gradient-8);}.cls-20{fill:#898b8d;}</style><linearGradient id="linear-gradient" x1="142.467" y1="74.583" x2="142.226" y2="93.094" gradientUnits="userSpaceOnUse"><stop offset="0" stop-color="#d9f0fc"/><stop offset="1" stop-color="#859ca9"/></linearGradient><linearGradient id="linear-gradient-2" x1="31.813" y1="76.101" x2="32.054" y2="96.655" xlink:href="#linear-gradient"/><linearGradient id="linear-gradient-3" x1="41.145" y1="76.017" x2="41.39" y2="96.996" xlink:href="#linear-gradient"/><linearGradient id="linear-gradient-4" x1="56.051" y1="75.093" x2="55.81" y2="90.96" xlink:href="#linear-gradient"/><linearGradient id="linear-gradient-5" x1="75.296" y1="75.385" x2="75.056" y2="91.251" xlink:href="#linear-gradient"/><linearGradient id="linear-gradient-6" x1="117.467" y1="76.024" x2="117.226" y2="91.89" xlink:href="#linear-gradient"/><linearGradient id="linear-gradient-7" x1="95.545" y1="75.692" x2="95.305" y2="91.558" xlink:href="#linear-gradient"/><linearGradient id="linear-gradient-8" x1="134.93" y1="76.105" x2="135.17" y2="96.651" xlink:href="#linear-gradient"/></defs><rect class="cls-1" x="43.306" y="94.056" width="77.168" height="11.058"/><path class="cls-2" d="M144.117,74.9c0-6.25-1.6-7.532-1.6-7.532L18.345,67.211l-.139,31.237,32.207-.077a7.69,7.69,0,0,1,6.227-2.953,7.294,7.294,0,0,1,5.809,2.925l37.025-.088a8.466,8.466,0,0,1,7.461-3c3.279.218,5.289,1.444,6.517,2.963L144,98.148C144.043,90.972,144.117,79.143,144.117,74.9Z"/><path class="cls-3" d="M56.64,95.418a7.69,7.69,0,0,0-6.227,2.953l12.036-.028A7.294,7.294,0,0,0,56.64,95.418Z"/><path class="cls-3" d="M106.935,95.258a8.466,8.466,0,0,0-7.461,3l13.978-.034C112.224,96.7,110.214,95.476,106.935,95.258Z"/><path class="cls-4" d="M65.134,105.515l31.384.32a14.929,14.929,0,0,1,2.956-7.58l-37.025.088A15.137,15.137,0,0,1,65.134,105.515Z"/><path class="cls-4" d="M18.185,103.271l10.9,2.564,18.1-.32a17.106,17.106,0,0,1,3.229-7.144l-32.207.077Z"/><path class="cls-4" d="M113.452,98.221a10.079,10.079,0,0,1,1.817,6.973l28.688-1.282s.016-2.358.039-5.764Z"/><polygon class="cls-5" points="71.313 67.131 72.616 61.762 78.741 61.121 114.009 60.961 122.209 61.922 123.6 67.492 77.323 68.213 71.313 67.131"/><polygon class="cls-6" points="10.417 29.626 13.876 29.789 13.62 31.905 14.261 32.556 15.157 33.37 15.647 33.546 77.804 55.832 77.932 54.205 85.747 56.321 85.747 58.111 91.507 61.121 86.218 61.241 12.723 33.207 11.827 31.58 10.674 31.417 10.417 29.626"/><polygon class="cls-7" points="140.591 73.301 144.277 73.462 144.117 93.174 140.591 92.854 140.591 73.301"/><path class="cls-4" d="M144.438,97.5l-4.007.16-.16,7.532s2.724,0,3.846-1.122S144.438,97.5,144.438,97.5Z"/><rect class="cls-4" x="18.505" y="70.897" width="125.328" height="2.564"/><rect class="cls-8" x="26.719" y="73.622" width="19.833" height="27.406"/><rect class="cls-9" x="28.076" y="74.543" width="7.693" height="21.836"/><rect class="cls-10" x="37.252" y="74.854" width="8.013" height="21.726"/><rect class="cls-8" x="46.912" y="73.622" width="83.178" height="18.751"/><rect class="cls-11" x="48.074" y="74.984" width="15.706" height="16.507"/><rect class="cls-12" x="64.982" y="74.864" width="20.394" height="16.427"/><rect class="cls-13" x="105.384" y="79.752" width="23.88" height="11.419"/><rect class="cls-2" x="105.773" y="74.543" width="23.399" height="4.327"/><rect class="cls-14" x="86.618" y="74.864" width="17.629" height="16.427"/><line class="cls-15" x1="48.355" y1="80.353" x2="63.74" y2="80.353"/><line class="cls-15" x1="86.699" y1="79.992" x2="104.007" y2="79.992"/><path class="cls-4" d="M143.553,72.059l5.529.241s.481.6.481,2.884v3.967s.24.841-.962,2.043-1.322.241-1.322.241l-.12-7.933h-3.846Z"/><circle class="cls-16" cx="56.328" cy="103.912" r="7.422"/><circle class="cls-17" cx="56.328" cy="103.912" r="4.477"/><circle class="cls-18" cx="56.328" cy="103.912" r="1.623"/><circle class="cls-16" cx="106.011" cy="103.752" r="7.422"/><circle class="cls-17" cx="106.011" cy="103.752" r="4.477"/><circle class="cls-18" cx="106.011" cy="103.752" r="1.623"/><rect class="cls-8" x="130.331" y="73.622" width="9.135" height="27.406"/><rect class="cls-19" x="131.559" y="74.543" width="6.96" height="21.836"/><path class="cls-20" d="M107.31,78.456v-.388l.354-.321c.6-.535.89-.843.9-1.164,0-.223-.135-.4-.451-.4a1,1,0,0,0-.586.228l-.182-.459a1.515,1.515,0,0,1,.9-.283.852.852,0,0,1,.962.86,1.708,1.708,0,0,1-.73,1.182l-.253.21v.009h1.033v.527Z"/><path class="cls-20" d="M111.483,76.241H110.42l-.059.422a1.493,1.493,0,0,1,.9.19.782.782,0,0,1,.333.688,1.046,1.046,0,0,1-1.177.962,1.744,1.744,0,0,1-.763-.156l.114-.481a1.574,1.574,0,0,0,.62.135c.265,0,.548-.127.548-.418s-.224-.456-.772-.456a2.341,2.341,0,0,0-.371.026l.181-1.439h1.51Z"/></svg>