<svg id="word" xmlns="http://www.w3.org/2000/svg" viewBox="0 0 160 160"><defs><style>.cls-1{fill:#006695;}</style></defs><path class="cls-1" d="M76.039,86.72a22.679,22.679,0,0,1-45.358,0h11.7a10.981,10.981,0,1,0,10.98-10.8H51.47V64.4h1.89a7.3,7.3,0,0,0,7.2-7.29,7.2,7.2,0,0,0-14.4,0l-11.7-.18a18.9,18.9,0,1,1,33.209,12.42A22.2,22.2,0,0,1,76.039,86.72Z"/><path class="cls-1" d="M82.935,73.4c0-19.8,8.19-35.1,23.939-35.1s23.938,15.3,23.938,35.1c0,19.35-8.1,36.179-23.938,36.179S82.935,92.75,82.935,73.4Zm36.178,0c0-12.059-3.06-23.488-12.239-23.488S94.634,61.341,94.634,73.4c0,12.24,2.97,24.569,12.24,24.569S119.113,85.64,119.113,73.4Z"/></svg>