<svg id="word" xmlns="http://www.w3.org/2000/svg" viewBox="0 0 160 160"><defs><style>.cls-1{fill:#bb9f82;}.cls-1,.cls-2,.cls-3,.cls-5,.cls-6{stroke:#9c4c9c;stroke-miterlimit:10;}.cls-1,.cls-2,.cls-3{stroke-width:0.365px;}.cls-2{fill:#e2cdb3;}.cls-3{fill:#cead8e;}.cls-4{fill:#005d4d;}.cls-5{fill:#fff;}.cls-5,.cls-6{stroke-width:0.146px;}.cls-6{fill:#e8e7e7;}</style></defs><rect class="cls-1" x="45.293" y="146.331" width="14.784" height="3.091"/><polygon class="cls-2" points="45.023 10.578 45.454 146.58 111.877 101.681 111.877 11.09 45.023 10.578"/><polygon class="cls-3" points="111.877 101.681 121.582 101.69 60.119 147.105 45.426 146.204 111.877 101.681"/><path class="cls-1" d="M121.7,101.557c-.306-.659-61.645,44.861-61.645,44.861l.036,3L121.262,104.6S122.239,102.715,121.7,101.557Z"/><polygon class="cls-4" points="47.532 13.093 47.937 139.472 109.751 101.921 109.975 13.078 47.532 13.093"/><path class="cls-5" d="M68.5,130.2s-10.156,1.784-10.128,2.388,3.129,2.388,3.129,2.388,11.774-3.047,11.911-3.431S68.5,130.2,68.5,130.2Z"/><path class="cls-6" d="M58.124,135.636l.411,2.25c1.084.618,2.413,1.847,3.157,1.62l-.028-4.5s-2.689-2.909-3.266-2.47S58.124,135.636,58.124,135.636Z"/><polygon class="cls-6" points="73.357 131.683 72.451 136.047 61.587 139.565 61.582 134.977 73.357 131.683"/></svg>