<svg id="word" xmlns="http://www.w3.org/2000/svg" viewBox="0 0 160 160"><defs><style>.cls-1{fill:#c3996b;}.cls-1,.cls-10,.cls-11,.cls-12,.cls-14,.cls-15,.cls-6,.cls-7,.cls-8,.cls-9{stroke:#9d4b9c;stroke-miterlimit:10;stroke-width:0.464px;}.cls-2{fill:#9d4b9c;}.cls-3{fill:#e0bb8f;}.cls-4{fill:#cdac84;}.cls-5{fill:#faecc1;}.cls-6{fill:#fdeadf;}.cls-7{fill:#fff;}.cls-8{fill:#ffe149;}.cls-14,.cls-9{fill:none;}.cls-10{fill:#2a3b8e;}.cls-11{fill:#ffe26a;}.cls-12,.cls-16{fill:#ee6d9b;}.cls-13{fill:#9c4c9c;}.cls-14{stroke-linecap:round;}.cls-15{fill:#eb3e93;}</style></defs><polygon class="cls-1" points="54.178 106.246 38.234 118.919 146.74 118.919 146.74 106.248 54.178 106.246"/><polygon class="cls-2" points="45.797 106.042 29.445 118.715 17.59 118.715 38.234 106.655 45.797 106.042"/><path class="cls-3" d="M61.98,114.978c1.459-.192-1.595-3.151,3.434-4.773,9.446-3.047,11.409-.914,16.684-2.539a19,19,0,0,1,12.88.2c3.558,1.32,7.606,2.031,15.948,2.031s33.323-1.61,33.565,1.91c.231,3.333-14.551,1.683-12.588,2.05,6.338,1.188,3.369,2.9,1.161,2.9s-6.559-.161-15.759.042S44.928,117.212,61.98,114.978Z"/><path class="cls-4" d="M82.22,113.759s2.454-2.234,7.729-2.437,4.784.2,10.427.2,12.635-.711,15.7,1.32.368,3.656-2.208,3.351-11.163-.508-15.212-.508S78.54,115.181,82.22,113.759Z"/><path class="cls-5" d="M119.859,116.264a41.684,41.684,0,0,0-6.017-1.687c-3.009-.562-2.912.161-4.756.08a39.413,39.413,0,0,1-6.6-.884c-3.3-.642-3.979-.16-6.6.242s-2.426.16-3.688-.563-1.165-.562-3.688-1.044-3.2-.161-6.406-.965S61.857,113.6,61.857,113.6s-10.3,2.393-3.558,3.409,9.078.2,17.174.2,50.051.1,50.051.1S124.744,115.012,119.859,116.264Z"/><path class="cls-6" d="M32.964,88s12.279-2.832,16.37-3.362,17.809,4.376,18.86,4.6S76.853,92.9,76.853,92.9s.325,4.107-2.2,4.824S65.367,96.6,64.537,96.559s-11.151-5.11-12.926-4.04-17.374,6.335-17.374,6.335l-4.07-.5Z"/><path class="cls-7" d="M77.523,92.738l-6-2.191s-.124,3.579-.832,4.9S69.661,97.29,69.5,97.574s6.452,1.612,7.844,1.5,3.406.227,3.636-.288.659-4.8-1.376-5.4S77.523,92.738,77.523,92.738Z"/><path class="cls-7" d="M88.174,84.681s-2.53,7.567-3.321,10.626-1.836,5.519-2.247,5.551a3.508,3.508,0,0,1-.766-.135l5.9-17.108A2.521,2.521,0,0,1,88.174,84.681Z"/><path class="cls-8" d="M77.911,96.373a12.968,12.968,0,0,0-.276-3.491c-.365-.694,3.431-2.338,3.539-3.587a7.2,7.2,0,0,1,3.695-5.9c1.609-.8,2.44-.357,2.867.215C87.1,85.349,85,91.13,84.465,92.55c-.5,1.311-2.015,6.129-2.653,8.167-.929-.23-2.392-.687-3.222-.988C77.42,99.305,76.62,98.335,77.911,96.373Z"/><path class="cls-6" d="M87.736,83.607l.007.008-5.9,17.108-.028-.006c.638-2.038,2.156-6.856,2.653-8.167C85,91.13,87.1,85.349,87.736,83.607Z"/><path class="cls-9" d="M81.711,87.11a16.282,16.282,0,0,0,1.317,2.119"/><path class="cls-9" d="M81.256,89.4a9.212,9.212,0,0,0,1.611,1.879"/><path class="cls-9" d="M80.243,90.717c.274.829,1.126,1.364,1.4,2.193"/><path class="cls-9" d="M78.556,92.114q.666,1.13,1.3,2.276"/><polygon class="cls-10" points="37.113 87.421 34.591 93.816 29.097 94.717 31.169 89.133 37.113 87.421"/><path class="cls-6" d="M34.183,93.685s12.464-1.854,16.584-2.06S68.175,97.394,69.205,97.7s8.344,4.326,8.344,4.326,0,4.12-2.575,4.635-9.168-1.854-9.992-1.957S54.269,98.733,52.415,99.66,34.6,104.6,34.6,104.6l-4.017-.824Z"/><path class="cls-7" d="M78.229,101.922l-5.81-2.657s-.405,3.558-1.216,4.819-1.17,1.756-1.351,2.026,6.3,2.117,7.7,2.117,3.378.495,3.648,0,1.036-4.729-.946-5.494S78.229,101.922,78.229,101.922Z"/><path class="cls-7" d="M89.483,94.731s-3.119,7.344-4.149,10.331-2.267,5.356-2.679,5.356a3.524,3.524,0,0,1-.753-.194l7.235-16.59A2.539,2.539,0,0,1,89.483,94.731Z"/><path class="cls-8" d="M78.329,105.577a12.975,12.975,0,0,0,0-3.5c-.309-.721,3.605-2.06,3.811-3.3a7.2,7.2,0,0,1,4.15-5.593c1.666-.667,2.46-.164,2.841.439-.768,1.688-3.319,7.285-3.967,8.657-.6,1.268-2.492,5.952-3.289,7.933-.908-.3-2.33-.873-3.134-1.239C77.608,108.461,76.887,107.431,78.329,105.577Z"/><path class="cls-6" d="M89.131,93.625l.006.009L81.9,110.224l-.027-.009c.8-1.981,2.69-6.665,3.289-7.933C85.812,100.91,88.363,95.313,89.131,93.625Z"/><path class="cls-9" d="M82.848,96.642a16.2,16.2,0,0,0,1.146,2.217"/><path class="cls-9" d="M82.214,98.893a9.179,9.179,0,0,0,1.457,2"/><path class="cls-9" d="M81.1,100.122c.208.848,1.015,1.449,1.225,2.3"/><path class="cls-9" d="M79.308,101.382q.574,1.177,1.116,2.371"/><path class="cls-8" d="M22.543,77a35.246,35.246,0,0,1,3.709-4.12c1.03-.721,5.253-3.811,8.034-5.665s9.683-2.781,9.683-2.781l4.017,2.575a26.4,26.4,0,0,0-.618,5.047c0,2.369,1.03,3.193,1.03,3.193a26.793,26.793,0,0,1-2.266,6.8c-1.648,3.193-7.037,5.736-7.037,5.736S36.212,89.4,34.231,90.3s-3.6,3.783-3.6,3.783-9.187-1.261-11.348-2.7-4.05-5.321-4.05-5.321Z"/><path class="cls-6" d="M53.548,68.655s-3.605,1.236-3.708,2.06-1.957,6.592-1.957,6.592l-2.472-2.884,1.133-6.386.309-4.635,3.708-.206Z"/><path class="cls-6" d="M73.919,57.07l7.456-6.335s.309-2.858.424-3.477,2.511-3.321,3.129-4.21,4.509-2.846,5.524-3.09c.881-.212,1.2.888.309,1.506a18.622,18.622,0,0,0-2.086,1.854s3.206-1.467,4.056-1.39,1.622.579.7,1.236-4.249,1.043-4.6,1.391,4.435-.672,4.944-.541a.694.694,0,0,1,.154,1.274c-.463.232-5.155.5-5.116.883s3.958-.342,4.267.315-2.2.748-2.466.825-1.59-.091-2.092.72-.73,2.283-1.507,2.7c-.3.165-1.931,0-2.627,1.2s-7.57,7.88-8.691,9.155a87.775,87.775,0,0,1-7.532,6.142c-.116,0,.734-5.215.734-5.215l4.828-4.944Z"/><path class="cls-6" d="M83.267,46.061s2.048-3.129,2.82-3.129,1.738-.116.889,1.352-1.546,2.665-1.507,3.322.309,2.511-.27,2.974a4.6,4.6,0,0,1-1.352.7"/><path class="cls-6" d="M74.459,52.071a15.519,15.519,0,0,1-1.236,6.386c-1.34,2.575-3.091,5.46-2.37,6.7s1.944,3.468.275,3.775a8.489,8.489,0,0,1-2.672.24S66.715,71.3,66,71.329a3.079,3.079,0,0,1-2.372-1.2s.638,2.132-.6,2.441a1.519,1.519,0,0,1-1.751-.618s-2.884.824-7.726-1.854-5.974-8.241-5.974-8.241L64.467,50.114Z"/><path class="cls-11" d="M76.382,55.718s1.888-6.84-.893-10.343-12.052-7.931-19.778-6.9S46.223,42.541,45.4,44.189s-4.683,7.386-3.284,13.032c.578,2.334,4.223,8.653,4.223,8.653S57.772,59.693,58.6,59.487s10.33-1.646,10.536-2.058,3.551-2.56,3.963-2.972-.225,3.152-.225,3.152l1.306-2.972.592,3.511Z"/><path class="cls-7" d="M67.126,61.592s2.754-2.251,2.9-.4-.87,2.781-2.029,2.781S65.821,63.446,67.126,61.592Z"/><path class="cls-10" d="M15.23,86.063s5.871,5.459,7.519,5.871,5.872,1.545,5.872,1.545l7.725-.927s-.309,3.3-.309,5.666v6.18s-8.549,4.223-14.833,3.4S9.977,103.059,9.771,99.042,12.552,87.814,15.23,86.063Z"/><path class="cls-6" d="M48.331,61.649l13.6-8.549,13.185-9.992a7.906,7.906,0,0,1,.721-4.12c1.03-2.472,4.12-4.429,4.12-5.356,0,0-.193-1.636.966-1.79s.695,2.7.695,2.7,4.713-2.318,5.253-2.163.812.772.657.811,1.111-.075,1.226.427-1.226,1.272-1.226,1.272,1.777.425,1.236.966a4.9,4.9,0,0,1-1.622.889s.966.077.116.927-3.09,1.545-3.631,2.124-.757,1.568-1.545,3.168c-.238.482-3.9,2.2-3.9,2.2l-2.935,3.168L66.705,57.1,51.679,66.877"/><path class="cls-9" d="M87.513,33.12q-1.923.879-3.8,1.854a12.5,12.5,0,0,0-2.242,1.389"/><path class="cls-9" d="M87.5,34.968a54.271,54.271,0,0,0-5.221,2.377,1.681,1.681,0,0,0-.742.595"/><path class="cls-9" d="M86.64,36.813A8.507,8.507,0,0,0,82.123,39.3"/><path class="cls-12" d="M51.076,57.942l4.12,8.035s-8.652,4.532-9.888,6.18-.515,4.12-6.078,3.193-6.695-1.751-5.974-4.532,12.464-9.683,13.6-10.4S51.076,57.942,51.076,57.942Z"/><path class="cls-13" d="M68.358,61.9s1.817-1.674,1.912-.3-.573,2.068-1.338,2.068S67.5,63.282,68.358,61.9Z"/><path class="cls-14" d="M71.923,59.223a1.43,1.43,0,0,0-.712-.641,2.837,2.837,0,0,0-1-.148,1.66,1.66,0,0,0-1.158.261"/><path class="cls-11" d="M53.952,38.731c-2.366-.891-.594-5.381-3.088-5.8-1.927-.321-3.831.751-5.247,2.1A11.452,11.452,0,0,1,43.313,37a8.1,8.1,0,0,1-4.319.548,3.831,3.831,0,0,1-1.486-.284c-.784-.383-1.2-1.231-1.745-1.915a5.51,5.51,0,0,0-9.363,1.2l-1.45,2.694a6.252,6.252,0,0,1,9.715,1.419c.589,1.023.878,2.192,1.418,3.242A3.653,3.653,0,0,0,38.7,46.068a3.87,3.87,0,0,0,2.374-.71,10.431,10.431,0,0,0,2.351-1.971c1.755-1.979,2.843-4.695,5.2-5.893.954-.485,2.291-.585,2.945.262a4.326,4.326,0,0,1,.5,2.181c.094.751.544,1.615,1.3,1.612C53.372,41.549,56.2,39.577,53.952,38.731Z"/><path class="cls-11" d="M36.606,32.347c.733-.415,1.641.1,2.255.676s1.255,1.281,2.1,1.292a2.082,2.082,0,0,0,1.675-1.062,11.2,11.2,0,0,0,.815-1.9,4.729,4.729,0,0,1,1.541-2.158,6.018,6.018,0,0,1,3.884-.7c1.364.08,2.918.329,3.65,1.482a5.815,5.815,0,0,1,.568,2.545,2.8,2.8,0,0,0,1.146,2.255c.7.383,1.688.252,2.178.881a1.7,1.7,0,0,1,.278,1.075,4.835,4.835,0,0,1-1.476,3.408s-.807,1.564-1.845,1.413.133-4.3-1.668-5.286-4.233.811-7.836,2.972-4.323-2.251-5.494-3.872-4.954-2.522-4.954-2.522Z"/><path class="cls-15" d="M58.729,38.365s-1.441-1.922-2.222-2.042-1.2-.3-2.221,1.081-3.363-.18-3.363-.18a21.125,21.125,0,0,0-1.621,3.3c-.12.721.685,3.1,3.663,2.642C56.507,42.628,58.729,38.365,58.729,38.365Z"/><path class="cls-2" d="M50.786,42.986a3.617,3.617,0,0,0-1.209,2.18c-.125.853-.263,1.715-.358,2.575-.252,1.719-.4,3.445-.624,5.183a25.749,25.749,0,0,1,.165-5.243c.135-.867.265-1.728.47-2.587a3.247,3.247,0,0,1,.56-1.233A3.941,3.941,0,0,1,50.786,42.986Z"/><path class="cls-2" d="M52.568,43.194a26.753,26.753,0,0,0,1.387,8.651,12.045,12.045,0,0,1-1.387-8.651Z"/><path class="cls-2" d="M58.1,39.684a8.007,8.007,0,0,1,7.382,2.259A14.329,14.329,0,0,0,58.1,39.684Z"/><path class="cls-2" d="M57.2,40.724a10.2,10.2,0,0,1,3.334,1.913A5.794,5.794,0,0,1,61.714,44.2a3.675,3.675,0,0,1,.412,1.889,6.054,6.054,0,0,0-1.91-3.113A31.468,31.468,0,0,0,57.2,40.724Z"/><path class="cls-2" d="M55.91,42.3c.306.934.493,1.868.752,2.79.208.936.485,1.846.655,2.815a10.316,10.316,0,0,1-1.407-5.6Z"/><path class="cls-2" d="M49.686,41.867a19.7,19.7,0,0,0-1.774,1.608A20.068,20.068,0,0,0,46.361,45.3a4.929,4.929,0,0,1,3.325-3.432Z"/><path class="cls-16" d="M35.851,98.277a34.28,34.28,0,0,0-9.1,1.062,14.082,14.082,0,0,1-4.1.712A3.768,3.768,0,0,1,19.263,98,5.377,5.377,0,0,1,19,95.982c-.007-1.949.022-4.026,1.1-5.651l-1.358-1.288s-3.332,7.475-1.261,10.267a6.338,6.338,0,0,0,7.656,2.072A31.083,31.083,0,0,1,32.97,99.49h2.882Z"/></svg>