<svg id="word" xmlns="http://www.w3.org/2000/svg" xmlns:xlink="http://www.w3.org/1999/xlink" viewBox="0 0 160 160"><defs><style>.cls-1{fill:#a6825c;}.cls-1,.cls-10,.cls-11,.cls-12,.cls-13,.cls-14,.cls-2,.cls-3,.cls-4,.cls-5,.cls-6,.cls-7,.cls-9{stroke:#9d4b9c;}.cls-1,.cls-2,.cls-3,.cls-4,.cls-5,.cls-6,.cls-7{stroke-miterlimit:10;stroke-width:0.683px;}.cls-2{fill:#c2976a;}.cls-3{fill:#5b4a42;}.cls-4{fill:#fdeadf;}.cls-5{fill:#d9e141;}.cls-6{fill:none;stroke-linecap:round;}.cls-7{fill:#fff;}.cls-8{fill:#9c4c9c;}.cls-9{fill:#61a4ad;}.cls-10,.cls-11,.cls-12,.cls-13,.cls-14,.cls-21,.cls-9{stroke-width:0.332px;}.cls-10{fill:url(#linear-gradient);}.cls-11{fill:url(#linear-gradient-2);}.cls-12{fill:url(#linear-gradient-3);}.cls-13{fill:url(#linear-gradient-4);}.cls-14{fill:url(#linear-gradient-5);}.cls-15{fill:#9584a8;opacity:0.71;}.cls-16{fill:#9bae3b;opacity:0.66;}.cls-17{fill:#7e99ce;opacity:0.67;}.cls-18{opacity:0.28;}.cls-19{fill:#998379;}.cls-20{fill:#26a7df;opacity:0.31;}.cls-21{fill:#3a6b72;stroke:#9c4c9c;}</style><linearGradient id="linear-gradient" x1="109.616" y1="135.464" x2="147.306" y2="135.464" gradientUnits="userSpaceOnUse"><stop offset="0.004" stop-color="#fff1db"/><stop offset="1" stop-color="#d8c7a6"/></linearGradient><linearGradient id="linear-gradient-2" x1="61.01" y1="133.729" x2="110.837" y2="133.729" gradientUnits="userSpaceOnUse"><stop offset="0.004" stop-color="#fff1db"/><stop offset="1" stop-color="#d4af88"/></linearGradient><linearGradient id="linear-gradient-3" x1="61.673" y1="133.098" x2="110.775" y2="133.098" xlink:href="#linear-gradient-2"/><linearGradient id="linear-gradient-4" x1="132.788" y1="121.25" x2="98.789" y2="126.763" xlink:href="#linear-gradient"/><linearGradient id="linear-gradient-5" x1="98.738" y1="126.685" x2="68.367" y2="132.309" xlink:href="#linear-gradient"/></defs><path class="cls-1" d="M33.668,95.423s-11.65-2.611-13.659,5.022,7.359,25.612,14.262,33.946c8.24,9.95,21.843,15.294,21.843,15.294l5.675-.229L65,124.348,44.314,106.672Z"/><path class="cls-2" d="M18.4,100.244a18.648,18.648,0,0,0,3.214,9.642c3.214,4.619,12.052,13.257,21.292,22.5s25.761,15.306,26.323,15.6c7.62,4,5.1-21.862,5.1-21.862s-23.59-18.044-27-21.459S36.681,95.222,33.065,94.218,18.4,92.41,18.4,100.244Z"/><path class="cls-3" d="M67.259,133.481s-10.92,3.253-13.1,5.209-5.408,5.781-2.152,9.112c5.717,5.848,22.688-.905,22.89-.268.028.087-4.591-15.076-4.591-15.076Z"/><path class="cls-4" d="M63.584,55.253l-2.551,8.016s-1.64,11.113,2.733,15.3,11.3-.546,11.66-1.457,1.457-6.559,1.457-6.559l.182-8.927Z"/><path class="cls-5" d="M61.762,59.808s-.7,13.471,7.105,15.485c5.606,1.447,8.563-8.016,8.563-8.016l16.844,9.1,7.89,4.181s8.932,4.767,10.281,5.987S124.877,102.1,124.877,102.1s-3.489,1.211-4.645,3.844-1.861,4.868-1.861,4.868-.434.116-5.928-5.483S105.98,93.615,98.95,91s-17.5-6.737-18.3-5.934-3.4,12.267-3.4,12.267a84.042,84.042,0,0,0-.364,11.114c.3,4.4,4.4,10.506,4.4,10.506L69.08,122.873,43.6,102.924s-.495-14.13-.495-18.348,1.2-21.292,1.2-21.292a96.814,96.814,0,0,1,10.445-2.008A36.612,36.612,0,0,0,61.762,59.808Z"/><path class="cls-5" d="M45.365,62.905s-4.11-.012-7.469,9.109a47.688,47.688,0,0,0-2.551,22.773c.52,2.771,18.765,16.4,18.765,16.4s-6.376-9.838-6.18-13.35c.123-2.215-.6-9.239.2-13.859S49.985,64.913,45.365,62.905Z"/><path class="cls-4" d="M81.6,23.654s4.846,3.156,5.635,6.2,1.578,9.692.563,12.059-4.395,16.567-5.635,17.807-3.1,4.236-7.833,4.461S62.78,59.944,60.414,54.422s-4.847-17.131-2.142-22.2,5.635-9.241,10.932-10.03S81.6,23.654,81.6,23.654Z"/><path class="cls-4" d="M58.385,39.207s-4.621-2.93-5.072,0-.788,4.959.789,7.1,5.185,3.381,5.974,2.7"/><path class="cls-2" d="M59.512,40.447s.567-7.777,1.582-8.453,6.95.58,8.866-1.336,5.556-5.764,5.556-5.764,4.635-1.237,6.657-.844,10.742,4.058,10.742,4.058-4.326-4.905-5.9-5.581,6.511-.978,6.511-.978L82.841,19.371l3.832-2.141s-3.832-1.465-7.213,0,1.313-2.076,2.367-2.93c3.194-2.589-1.127-1.466-5.8.45a53.1,53.1,0,0,1-7.72,2.593s-7.752-.319-10.488,2.141c-6.148,5.526-4.859,6.8-4.737,12.146a13.455,13.455,0,0,0,1.944,6.283s3.25,1.857,3.814,3.435,1.352,2.548,1.24,1.33A7.953,7.953,0,0,0,59.512,40.447Z"/><path class="cls-6" d="M78.9,36.051s-1.465,3.945,0,5.861,4.395,2.93,2.592,4.62a3.828,3.828,0,0,1-3.945.789"/><path class="cls-6" d="M69.134,47.341a6.882,6.882,0,0,0,3.077,3.484,10.333,10.333,0,0,0,4.533,1.248,7.066,7.066,0,0,0,4.6-1.08"/><path class="cls-7" d="M73.318,37.9s.056-4.558-2.536-4.22-4.733,3.494-3.944,6.424,3.043,1.916,4.17,1.127A10.928,10.928,0,0,0,73.318,37.9Z"/><path class="cls-7" d="M85.546,35.262a4.64,4.64,0,0,0-3.488,4.4c-.049,2.253,2.587,3.223,3.488,3.02s1.916-4.711,1.691-5.838S86.768,34.995,85.546,35.262Z"/><path class="cls-6" d="M67.652,33.087c4.062-1.879,6.3-2.876,7.409-1.7"/><path class="cls-6" d="M83.075,32.048a10.257,10.257,0,0,1,4.664.258"/><path class="cls-8" d="M86.114,41.7a1.809,1.809,0,0,0-.973-2.7,1.315,1.315,0,0,0-1.534.78c-1.18,1.968-.146,3,.7,3.2C84.823,43.108,85.625,42.523,86.114,41.7Z"/><path class="cls-8" d="M71.388,40.8a1.809,1.809,0,0,0-1.018-2.686,1.313,1.313,0,0,0-1.52.8c-1.148,1.987-.1,3,.752,3.189C70.12,42.223,70.912,41.625,71.388,40.8Z"/><path class="cls-6" d="M56.823,41.584l-.518-.218a.27.27,0,0,0-.154-.03.247.247,0,0,0-.14.119,3.186,3.186,0,0,0-.408,1.193,3.458,3.458,0,0,0,.057,1.977,3.617,3.617,0,0,0,.551.833,2.727,2.727,0,0,0,.652.639.968.968,0,0,0,.875.11"/><path class="cls-2" d="M80.405,113.734s16.032-19.8,25.506-19.433,9.534,13,9.534,13L74.454,121.143Z"/><path class="cls-4" d="M123.332,99.85l4.759,5.275s6.1,4.287,9.251,6.762,5.226,6.8,5.208,8.087-1.238,6.983-2.5,6.879-1.821-4.063-1.821-4.063l.625-3.291-3.517-3.812s-3.8.977-2.827,2.441.175,5.1-1.156,5.731-1.4-3.547-1.4-3.547-3.141-4.459-3.442-6.984a19.666,19.666,0,0,0-1.062-3.81s-5.292-2.613-5.14-3.644C121.086,100.609,123.332,99.85,123.332,99.85Z"/><path class="cls-9" d="M71.558,149.57l.217,1.714,3.1-1.273s4.794-.757,7.891-1.577a111.462,111.462,0,0,0,13.2-4.166c3.393-1.514,7.387-4.253,8.852-4.446,2.135-.282,2.8.47,2.8.47a19.107,19.107,0,0,0,1.918,2.841c.663.63,1.622,1.325,2.58.757s2.435-4.734,2.435-4.734a11.454,11.454,0,0,1,4.646-1.514c2.066,0,10.917-.695,13.941-.568s12.685-.884,12.685-.884l3.394-.82-2.582-1.957L116.328,106.4a28,28,0,0,1-11.654,2.272c-6.712-.127-7.223-.319-9.293-.253a9.992,9.992,0,0,0-6.049,2.714s-6.343-.884-8.408.378S70.3,115.742,67.8,115.868s-8.334,1.893-8.334,1.893Z"/><path class="cls-10" d="M139.119,127.923l8.187,7.131s-5.385.947-6.934.947-16.3.126-19.914.5-6.417,1.137-7.228,3.03a13.762,13.762,0,0,1-2.287,3.471l-1.327-5.364"/><path class="cls-11" d="M62.706,118.14l-1.7.695L73.4,149.317l3.247-.883a64.337,64.337,0,0,0,6.268-1.452c1.255-.5,9.589-3.092,11.507-3.913s9.146-4.039,10.621-4.228,1.844-.316,2.507.189,3.4,4.111,3.284,3.2c-.3-2.331-3.227-6.435-3.227-6.435l-12-11.153"/><path class="cls-12" d="M63.075,117.761l-1.4.19,12.171,30.483s5.606-1.262,7.227-1.767,9.22-1.957,11.064-3.03a120.742,120.742,0,0,1,11.138-4.8c1.991-.694,2.8-1.262,4.277-.568s3.225,3.5,3.225,3.5l-.237-1.47"/><path class="cls-13" d="M110.943,143.006l-.494-2.906L89.775,112.018s0-2.082,3.983-2.65,11.138.126,13.719-.063a70.682,70.682,0,0,0,8.629-1.831l32,23.762a11.6,11.6,0,0,1-4.713,3.313c-2.656.821-14.014,1.389-19.1,1.2s-9.219.5-10.621,2.083A21.218,21.218,0,0,0,110.943,143.006Z"/><path class="cls-14" d="M61.9,117.32a12.563,12.563,0,0,0,5.089-.442c3.172-.821,9.243-1.257,12.466-3.282,4.72-2.966,6.711-2.461,8.407-2.335a3.293,3.293,0,0,1,2.434,1.2l18.956,25.5a14.427,14.427,0,0,1,1.549,2.84c.074.632.074,1.641.074,1.641s-.59-4.859-4.352-4.859-9.441,4.038-13.2,5.238-18.955,4.607-18.955,4.607Z"/><polygon class="cls-15" points="107.625 111.103 114.041 118.392 125.294 116.623 117.042 109.86 107.625 111.103"/><path class="cls-16" d="M117.065,126.976l6.045,6.676s13.743-.846,14.939-1.059c4.241-.758,4.979-2.462,4.979-2.462l-7.08-5.774s-2.545,1.893-4.868,1.893S117.065,126.976,117.065,126.976Z"/><path class="cls-17" d="M91.176,113.407l.959,1.451s.148-2.9,4.647-2.966,11.064.442,11.064.442l-1.033-1.136a93.894,93.894,0,0,0-10.547-.442C91.4,111.2,91.176,113.407,91.176,113.407Z"/><path class="cls-17" d="M63.665,119.087s5.385.568,9-1.01,7.523-4.418,10.62-5.049a23.21,23.21,0,0,1,7.376.189l1.18,1.7s-9.433-2.21-13.939,2.651c-5.237,5.649-13.2,3.661-13.2,3.661Z"/><g class="cls-18"><path class="cls-19" d="M92.56,131.254l-.112-.163c2.124-1.069,6.109-2.762,8.937-2.092l-.06.182c-2.748-.65-6.671,1.02-8.765,2.073Z"/><path class="cls-19" d="M92.931,131.759l-.115-.162c2.164-1.114,6.513-2.768,9.1-1.9l-.081.177c-2.5-.84-6.772.79-8.9,1.886Z"/><path class="cls-19" d="M93.116,132.37l-.043-.186a17.671,17.671,0,0,0,3.063-.932c1.967-.73,4-1.485,6.25-.832l-.071.18c-2.168-.63-4.162.11-6.09.826a17.964,17.964,0,0,1-3.109.944Z"/><path class="cls-19" d="M93.684,133.282l-.073-.179c.637-.186,1.3-.422,1.993-.673,2.382-.856,5.081-1.827,7.6-.871l-.09.174c-2.435-.923-5.087.03-7.426.872-.7.251-1.364.49-2.007.677Z"/><path class="cls-19" d="M94.275,134.386l-.075-.179a19.934,19.934,0,0,0,2.447-1c2.144-.985,4.362-2,6.783-1.048l-.093.172c-2.32-.916-4.489.08-6.585,1.042a20.013,20.013,0,0,1-2.477,1.012Z"/><path class="cls-19" d="M94.45,135.083l-.056-.184a14.9,14.9,0,0,0,2.863-1.074,14.547,14.547,0,0,1,2.966-1.1,9.506,9.506,0,0,1,2.219-.1c.484.015.985.03,1.448,0l.019.188a14.5,14.5,0,0,1-1.475,0,9.454,9.454,0,0,0-2.159.095,14.4,14.4,0,0,0-2.914,1.081,15.268,15.268,0,0,1-2.911,1.09Z"/><path class="cls-19" d="M95.076,135.556l-.054-.184a9.419,9.419,0,0,0,2.28-.944,7.419,7.419,0,0,1,3.429-1.11h.035l0,.19h-.031a7.236,7.236,0,0,0-3.315,1.081,9.72,9.72,0,0,1-2.342.967Z"/><path class="cls-19" d="M95.513,136l-.043-.186a10.521,10.521,0,0,0,2.616-.972,12.585,12.585,0,0,1,2.623-1.008,17.1,17.1,0,0,1,3.818-.325v.189a16.937,16.937,0,0,0-3.763.319,12.45,12.45,0,0,0-2.572.991,10.765,10.765,0,0,1-2.679.992Z"/><path class="cls-19" d="M95.94,136.561l-.086-.175c.18-.064.351-.138.515-.21a3.838,3.838,0,0,1,1.174-.364l.027.188a3.636,3.636,0,0,0-1.1.345c-.169.073-.343.149-.53.216Z"/></g><g class="cls-18"><path class="cls-19" d="M86.881,123.839l-.112-.164c2.124-1.068,6.108-2.761,8.936-2.092l-.059.183c-2.749-.65-6.671,1.019-8.765,2.073Z"/><path class="cls-19" d="M87.25,124.343l-.113-.162c2.163-1.114,6.513-2.768,9.095-1.9l-.08.176c-2.5-.839-6.773.791-8.9,1.887Z"/><path class="cls-19" d="M87.436,124.954l-.043-.185a17.746,17.746,0,0,0,3.064-.933c1.967-.73,4-1.485,6.25-.831l-.071.179c-2.168-.63-4.163.11-6.091.826a17.851,17.851,0,0,1-3.109.944Z"/><path class="cls-19" d="M88,125.866l-.07-.179c.635-.185,1.294-.422,1.992-.673,2.382-.856,5.081-1.826,7.6-.87l-.089.173c-2.435-.923-5.087.03-7.427.872-.7.252-1.364.49-2.008.677Z"/><path class="cls-19" d="M88.6,126.97l-.074-.178a19.87,19.87,0,0,0,2.446-1c2.145-.985,4.364-2,6.783-1.048l-.092.172c-2.32-.916-4.489.08-6.586,1.043A20.223,20.223,0,0,1,88.6,126.97Z"/><path class="cls-19" d="M88.77,127.667l-.056-.183a15.042,15.042,0,0,0,2.864-1.074,14.623,14.623,0,0,1,2.965-1.1,9.569,9.569,0,0,1,2.22-.1,14.239,14.239,0,0,0,1.447,0l.02.189a14.523,14.523,0,0,1-1.476,0,9.333,9.333,0,0,0-2.158.095,14.355,14.355,0,0,0-2.914,1.08,15.21,15.21,0,0,1-2.912,1.09Z"/><path class="cls-19" d="M89.4,128.14l-.055-.183a9.373,9.373,0,0,0,2.281-.945,7.383,7.383,0,0,1,3.463-1.109v.189a7.133,7.133,0,0,0-3.347,1.082,9.694,9.694,0,0,1-2.341.966Z"/><path class="cls-19" d="M89.834,128.583l-.043-.186a10.543,10.543,0,0,0,2.615-.972,12.612,12.612,0,0,1,2.624-1.007,17.092,17.092,0,0,1,3.817-.326v.189a16.867,16.867,0,0,0-3.762.32,12.476,12.476,0,0,0-2.573.99,10.691,10.691,0,0,1-2.678.992Z"/><path class="cls-19" d="M90.261,129.146l-.087-.175c.18-.065.351-.139.516-.211a3.83,3.83,0,0,1,1.174-.364l.027.188a3.647,3.647,0,0,0-1.1.345c-.169.073-.344.149-.53.217Z"/><path class="cls-19" d="M84.705,119.957l-.112-.163c2.125-1.069,6.11-2.762,8.937-2.092l-.06.182c-2.747-.65-6.67,1.02-8.765,2.073Z"/><path class="cls-19" d="M85.074,120.462l-.113-.162c2.163-1.114,6.513-2.768,9.1-1.9l-.082.177c-2.5-.84-6.771.79-8.9,1.886Z"/><path class="cls-19" d="M85.261,121.073l-.044-.186a17.655,17.655,0,0,0,3.064-.932c1.967-.73,4-1.485,6.25-.832l-.071.179c-2.169-.629-4.163.111-6.091.827a17.927,17.927,0,0,1-3.108.944Z"/><path class="cls-19" d="M85.828,121.985l-.072-.179c.637-.186,1.3-.422,1.993-.673,2.382-.856,5.081-1.826,7.6-.871l-.09.173c-2.434-.922-5.086.031-7.427.873-.7.251-1.364.49-2.007.677Z"/><path class="cls-19" d="M86.419,123.089l-.074-.178a20.039,20.039,0,0,0,2.447-1c2.144-.985,4.362-2,6.782-1.048l-.092.172c-2.32-.915-4.489.08-6.586,1.042a20.013,20.013,0,0,1-2.477,1.012Z"/></g><path class="cls-20" d="M66.579,123.41l9.183,20.827a70.436,70.436,0,0,0,8.3-2.556c2.545-1.136,9.846-3.125,9.846-3.125l-10.4-18.365a60.017,60.017,0,0,1-8.187,2.178C72.11,122.842,66.579,123.41,66.579,123.41Z"/><g class="cls-18"><path class="cls-19" d="M95.548,115.824l-.112-.163c2.123-1.069,6.109-2.762,8.935-2.093l-.058.182c-2.749-.649-6.672,1.02-8.765,2.074Z"/><path class="cls-19" d="M95.917,116.328l-.114-.162c2.164-1.114,6.514-2.768,9.1-1.9l-.081.177c-2.5-.84-6.771.79-8.9,1.886Z"/><path class="cls-19" d="M96.1,116.939l-.043-.186a17.645,17.645,0,0,0,3.063-.932c1.967-.73,4-1.485,6.251-.831l-.071.179c-2.169-.63-4.164.11-6.092.826a17.84,17.84,0,0,1-3.108.944Z"/><path class="cls-19" d="M96.67,117.851l-.071-.179c.636-.185,1.3-.422,1.993-.673,2.381-.856,5.081-1.826,7.6-.87l-.089.173c-2.435-.923-5.087.031-7.428.872-.7.252-1.363.49-2.007.677Z"/><path class="cls-19" d="M97.262,118.955l-.074-.178a19.934,19.934,0,0,0,2.446-1c2.145-.985,4.363-2,6.783-1.048l-.093.172c-2.32-.916-4.489.08-6.585,1.043a20.223,20.223,0,0,1-2.477,1.011Z"/><path class="cls-19" d="M97.437,119.652l-.056-.183a15.033,15.033,0,0,0,2.863-1.074,14.528,14.528,0,0,1,2.966-1.1,9.563,9.563,0,0,1,2.219-.1,14.259,14.259,0,0,0,1.448,0l.019.189a14.221,14.221,0,0,1-1.475,0,9.4,9.4,0,0,0-2.159.1,14.4,14.4,0,0,0-2.914,1.08,15.176,15.176,0,0,1-2.911,1.09Z"/><path class="cls-19" d="M98.064,120.125l-.055-.183A9.429,9.429,0,0,0,100.29,119a7.427,7.427,0,0,1,3.429-1.11h.034l0,.189h-.031a7.233,7.233,0,0,0-3.315,1.082,9.768,9.768,0,0,1-2.341.966Z"/><path class="cls-19" d="M98.5,120.568l-.043-.186a10.535,10.535,0,0,0,2.616-.972A12.65,12.65,0,0,1,103.7,118.4a17.085,17.085,0,0,1,3.816-.325v.189a16.867,16.867,0,0,0-3.762.32,12.46,12.46,0,0,0-2.571.99,10.679,10.679,0,0,1-2.68.992Z"/><path class="cls-19" d="M98.928,121.13l-.087-.174c.18-.065.352-.139.516-.211a3.849,3.849,0,0,1,1.174-.364l.026.188a3.654,3.654,0,0,0-1.1.345c-.168.073-.343.149-.529.216Z"/></g><g class="cls-18"><path class="cls-19" d="M102.555,126.682l-.13-.154c2-1.232,5.784-3.235,8.671-2.792l-.039.186c-2.806-.428-6.532,1.545-8.5,2.76Z"/><path class="cls-19" d="M102.978,127.155l-.132-.153c2.033-1.28,6.186-3.273,8.851-2.614l-.061.183c-2.583-.638-6.658,1.324-8.658,2.584Z"/><path class="cls-19" d="M103.229,127.748l-.064-.181a17.2,17.2,0,0,0,2.95-1.171c1.879-.883,3.823-1.8,6.133-1.324l-.052.184c-2.227-.455-4.133.44-5.974,1.305a17.313,17.313,0,0,1-2.993,1.187Z"/><path class="cls-19" d="M103.893,128.611l-.091-.172c.613-.235,1.244-.523,1.911-.828,2.279-1.042,4.862-2.222,7.475-1.47l-.07.18c-2.524-.726-5.061.434-7.3,1.457-.672.307-1.3.6-1.925.833Z"/><path class="cls-19" d="M104.6,129.664l-.094-.172a19.081,19.081,0,0,0,2.328-1.19c2.029-1.15,4.127-2.34,6.641-1.581l-.075.179c-2.409-.728-4.46.435-6.444,1.561a19.517,19.517,0,0,1-2.356,1.2Z"/><path class="cls-19" d="M104.851,130.343l-.076-.177a14.648,14.648,0,0,0,2.735-1.3,14.118,14.118,0,0,1,2.833-1.328,9.459,9.459,0,0,1,2.2-.276,14.3,14.3,0,0,0,1.443-.119l.039.187a14.694,14.694,0,0,1-1.469.121,9.265,9.265,0,0,0-2.139.266,13.926,13.926,0,0,0-2.785,1.307,14.733,14.733,0,0,1-2.78,1.315Z"/><path class="cls-19" d="M105.525,130.765l-.074-.178a9.067,9.067,0,0,0,2.169-1.122,7.179,7.179,0,0,1,3.329-1.379l.018.189a6.951,6.951,0,0,0-3.216,1.342,9.337,9.337,0,0,1-2.226,1.148Z"/><path class="cls-19" d="M106.009,131.171l-.064-.181a10.179,10.179,0,0,0,2.5-1.176,12.33,12.33,0,0,1,2.5-1.211,16.913,16.913,0,0,1,3.766-.627l.021.189a16.688,16.688,0,0,0-3.713.617,12.064,12.064,0,0,0-2.453,1.189,10.365,10.365,0,0,1-2.56,1.2Z"/><path class="cls-19" d="M106.5,131.7l-.105-.167c.172-.079.335-.167.491-.251a3.706,3.706,0,0,1,1.129-.455l.047.185a3.516,3.516,0,0,0-1.058.43c-.16.087-.325.175-.5.258Z"/><path class="cls-19" d="M99.967,122.989l-.128-.153c2-1.232,5.783-3.235,8.671-2.792l-.039.186c-2.807-.429-6.532,1.545-8.5,2.759Z"/><path class="cls-19" d="M100.39,123.462l-.131-.152c2.033-1.28,6.186-3.272,8.851-2.614l-.062.182c-2.581-.637-6.657,1.325-8.658,2.584Z"/><path class="cls-19" d="M100.642,124.056l-.063-.181a17.275,17.275,0,0,0,2.949-1.171c1.88-.883,3.823-1.8,6.133-1.324l-.052.184c-2.227-.455-4.132.44-5.975,1.305a17.319,17.319,0,0,1-2.992,1.187Z"/><path class="cls-19" d="M101.306,124.919l-.091-.172c.613-.235,1.243-.523,1.911-.828,2.279-1.042,4.862-2.221,7.476-1.47l-.071.18c-2.524-.727-5.062.434-7.3,1.457-.67.306-1.3.6-1.924.833Z"/><path class="cls-19" d="M102.014,125.972l-.094-.172a19.432,19.432,0,0,0,2.328-1.189c2.028-1.151,4.127-2.341,6.64-1.582l-.073.179c-2.409-.728-4.461.435-6.444,1.561a19.6,19.6,0,0,1-2.357,1.2Z"/></g><path class="cls-21" d="M109.087,140.633a12.7,12.7,0,0,0,.771,1.57c.354.558.885,1.149,1.391,1.09a1.6,1.6,0,0,0,1.184-1.014c.237-.431.829-2.381.977-2.609a2.191,2.191,0,0,0,.147-.836h0s-1.538,3.091-2.1,3.4c-.672.363-.586.209-1.037-.127A6.524,6.524,0,0,1,109.087,140.633Z"/><g class="cls-18"><path class="cls-19" d="M116.081,120.385l-.14-.2c1.606-1.138,3.819-1.13,5.96-1.129a11.889,11.889,0,0,0,4.92-.633l.1.219a12.223,12.223,0,0,1-5.022.655c-2.1,0-4.277-.009-5.82,1.085Z"/><path class="cls-19" d="M116.637,121.423l-.16-.181c1.451-1.275,3.857-1.392,6.183-1.505a15.42,15.42,0,0,0,4.712-.69l.092.224a15.574,15.574,0,0,1-4.792.707c-2.285.111-4.648.226-6.035,1.445Z"/><path class="cls-19" d="M117.969,123.259l-.074-.229c3.563-1.14,7.831-2.088,10.733-2.7l.049.236c-2.895.613-7.155,1.558-10.708,2.694Z"/><path class="cls-19" d="M118.718,123.908l-.035-.239a61.161,61.161,0,0,0,6.828-1.569c1.388-.375,2.824-.762,4.186-1.066l.053.236c-1.356.3-2.79.69-4.176,1.063a61.2,61.2,0,0,1-6.856,1.575Z"/><path class="cls-19" d="M119.126,124.511l-.042-.237c1.18-.208,2.5-.552,3.906-.916a33.88,33.88,0,0,1,8.131-1.421l0,.241a32.864,32.864,0,0,0-8.068,1.414c-1.406.365-2.735.71-3.925.919Z"/><path class="cls-19" d="M119.52,125.076l-.021-.24a43.225,43.225,0,0,0,6.3-1.154,47.956,47.956,0,0,1,5.993-1.141l.026.24a47.936,47.936,0,0,0-5.963,1.136,43.351,43.351,0,0,1-6.337,1.159Z"/><path class="cls-19" d="M117.358,122.315l-.146-.193c1.014-.771,2.8-1.061,4.382-1.316.558-.09,1.084-.176,1.528-.275a14.139,14.139,0,0,1,1.879-.24,7.962,7.962,0,0,0,2.907-.595l.113.215a8.145,8.145,0,0,1-3,.621,13.95,13.95,0,0,0-1.846.234c-.45.1-.981.188-1.543.278a10.59,10.59,0,0,0-4.274,1.271Z"/><path class="cls-19" d="M120.034,125.835l-.078-.229a8.24,8.24,0,0,1,2.052-.323,9.121,9.121,0,0,0,1.8-.251c.321-.091.61-.191.887-.288a5.506,5.506,0,0,1,2.266-.432l-.012.241a5.314,5.314,0,0,0-2.174.419c-.281.1-.574.2-.9.292a9.32,9.32,0,0,1-1.847.26,8.018,8.018,0,0,0-1.992.311Z"/><path class="cls-19" d="M115.637,119.792l-.1-.219a22.99,22.99,0,0,1,8-1.658c.824-.071,1.675-.145,2.519-.244l.028.239c-.847.1-1.7.174-2.527.245a22.811,22.811,0,0,0-7.913,1.637Z"/></g></svg>