<svg id="word" xmlns="http://www.w3.org/2000/svg" viewBox="0 0 160 160"><defs><style>.cls-1{fill:#fde2d4;}.cls-1,.cls-10,.cls-11,.cls-2,.cls-3,.cls-4,.cls-5,.cls-6,.cls-7,.cls-8,.cls-9{stroke:#9d4b9c;stroke-width:0.75px;}.cls-1,.cls-10,.cls-11{stroke-miterlimit:10;}.cls-2{fill:#efd1c2;}.cls-3{fill:#9ace84;}.cls-4{fill:#ee5da1;}.cls-11,.cls-4{stroke-linecap:round;}.cls-5{fill:#f7ee61;}.cls-12,.cls-6{fill:#fff;}.cls-7{fill:#6db9e7;}.cls-8{fill:#f05b3d;}.cls-9{fill:#a7dff8;}.cls-10{fill:#fff8b1;}.cls-11{fill:none;}</style></defs><path class="cls-1" d="M86.105,54.646a4.017,4.017,0,0,0,.45,2.061c.686,1.061,2.146,1.223,3.408,1.278a9.111,9.111,0,0,0,2.386-.1,3.081,3.081,0,0,0,1.967-1.256,4.6,4.6,0,0,0,.473-2.5v-4.3a1.327,1.327,0,0,0-1.538-1.7c-1.573-.023-5.649-.856-6.858.319C85.213,49.6,86.053,53.18,86.105,54.646Z"/><path class="cls-2" d="M97.045,104.1c-2.764,8.714.961,15.053,2.25,17.467,1.8,3.375,7.32,10.192,8.22,11.881s6.335,1.713,7.5-1.076-2.176-3.595-2.848-7.152c-1.325-7-7.823-12.871-7.823-12.871l.794-9.995"/><path class="cls-3" d="M101.563,133.044s2.77.764,2.591,2.151c-.4,3.056-10.554,7.3-1.352,9.433,3.5.809,8.295-3.444,11.8-5.207,5.443-2.743,1.982-8.925-.925-11.069s.508,4.869-2.126,5.951-.706-2.833-1.426-3.575S104.737,128.46,101.563,133.044Z"/><path class="cls-2" d="M82.576,105.876c-2.551,7.935-.6,12.3-.6,15.04,0,3.826-.475,12.364-.475,14.277s5.683,4.547,8.02,2.635-.229-4.2.851-7.651a22.265,22.265,0,0,0,0-12.824l1.133-7.084"/><path class="cls-3" d="M77.333,132.09s2.551,2.548,1.276,3.116-10.485,5.739-6.094,8.573,9.4-.019,13.32.072c6.093.141,5.95-6.943,4.393-10.2s-1.845,4.536-4.677,4.252.709-2.833.425-3.826S82.293,129.539,77.333,132.09Z"/><path class="cls-4" d="M104.341,81.1s3.49,7.614,2.221,11.739,5.077,10.47,5.394,12.057-3.49.634-6.981,1.268-8.566,3.173-15.229,3.173-20.3-5.393-20.3-5.393l7.931-21.892Z"/><path class="cls-5" d="M99.5,53.3l-4.292-.212s-.247,2.092-3.512,3.086a6.137,6.137,0,0,1-5.745-1.49l-3.618,2.731s-2.127,7.8-1.843,10.782-3.406,21.282-3.406,21.282a74.883,74.883,0,0,0,11.208.993c5.533,0,18.3-1.987,18.3-1.987s-2.979-15.605-3.547-18.16S99.5,53.3,99.5,53.3Z"/><path class="cls-5" d="M97.372,54.291s3.973-2.271,5.959-.284,6.81,13.62,7.662,14.9-.142,7.093-4.114,8.938-7.946,3.972-11.351,4.681-13.2,2.7-13.2,2.7-1.843-4.4-.141-7.235,3.689-2.837,6.81-2.837,9.221-2.981,10.073-4.115.71-6.385-.284-8.8S95.1,55.284,97.372,54.291Z"/><path class="cls-6" d="M47.575,46.2s.283-.283-.568-2.554-2.128-3.688-3.121-3.263-7.8-.568-8.229-1.277-3.121-2.837-3.689.142-4.823,2.838-6.526,4.4a9.785,9.785,0,0,1-6.384,2.27c-2.128,0,1.987,4.825,2.7,8.8S21.47,65.783,20.9,67.343s1.135-.425,3.831,1.561c6.719,4.949,10.5,2.553,12.769,3.831s8.512-1.278,8.512-1.278-2.838-3.689-.426-5.959S44.6,47.34,47.575,46.2Z"/><path class="cls-6" d="M78.646,75.147s-2.129-1.845-3.689-3.122a4.248,4.248,0,0,0-5.25-.425c-1.986,1.135-10.924,3.121-10.924,3.121s.14,3.972.283,4.823,3.122-1.985,4.115-1.985,3.831-.426,4.965,1.418a10.365,10.365,0,0,0,2.27,2.695l8.655-2.554Z"/><path class="cls-7" d="M72.545,83.659s-2.981,2.836-1.7,3.972,1.277,1.278,1.135,2.412S73.821,91.6,73.821,91.6a4.213,4.213,0,0,1,.425,2.979c-.425,1.56-3.4,11.775-.709,17.025S78.361,122.39,81.2,122.39s12.769-2.552,12.769-3.973,1.276-11.349-2.271-16.6-11.206-18.3-11.206-18.3Z"/><path class="cls-2" d="M81.2,76.99s-4.539-1.418-5.391-1.56-2.7-.283-2.27.993,1.489,2.235-1.206,2.519-8.45.712-7.163,3.44c.885,1.879,6.525.709,6.525.709s-.142,3.263.852,3.831.283,1.7,1.844,2.411a3.681,3.681,0,0,0,4.539-.992c.993-1.419,3.547-2.129,3.831-4.115S83.894,77.557,81.2,76.99Z"/><path class="cls-2" d="M47.539,54.326s-4.4-2.979-4.823-3.405-3.547-1.277-4.683-1.561-4.54-3.687-5.391-3.4,1.561,4.4,1.561,4.4-4.825-2.7-5.817-1.42,5.107,3.121,5.107,3.121-6.526,0-6.81,2.128,6.952.993,6.952.993-6.242,1.987-5.391,3.405c1.438,2.4,6.385-1.418,7.661-1.277s4.257,2.128,1.845,5.392c-.778,1.051.283,3.121,1.844,1.7s2.411-3.688,3.263-4.256S48.531,57.731,47.539,54.326Z"/><path class="cls-5" d="M84.355,55.958s-5.427.886-7.413,1.028S67.3,58.405,64.6,57.554s-11.775-5.392-13.194-6.1-3.83-1.561-3.83,2.554-1.7,5.817-2.412,6.242-4.682,3.548-1.419,3.406,12.484-1.135,13.477,0,6.1,1.418,9.507,1.418,10.214.141,11.065,0a19.277,19.277,0,0,1,3.264.142S83.078,57.376,84.355,55.958Z"/><path class="cls-8" d="M57.966,73.728l2.873-.214.32,6.279s-2.873,1.809-3.193.851S57.966,73.728,57.966,73.728Z"/><path class="cls-9" d="M74.885,98.307s-2.554,9.257,1.383,16.174c2,3.516,3.724,6.6,4.469,6.7s8.072-.471,7.661-1.7c-1.489-4.468-8.368-6.792-9.576-9.789C76.162,103.1,78.077,94.9,74.885,98.307Z"/><path class="cls-1" d="M78.5,36.573s-2.871-.433-2.969,1.556,1.033,2.541,1.351,3.764,1.682.775,1.682.775"/><path class="cls-1" d="M106.16,43.026s2.536,1.539,1.411,3.207-1.553.883-2.718,1.766a2.463,2.463,0,0,1-2.6,0"/><path class="cls-10" d="M113.562,33.133s10.143,1.57,11.266,4.316a17.186,17.186,0,0,1,1.227,5.2s-.307-4.512-2.555-5.2-3.691-1.079-3.691-1.079,3.078,2.06,3.9,5.1a52.8,52.8,0,0,1,1.532,7.455c0,.785-1.124-2.648-2.146-4.512a25.8,25.8,0,0,0-2.248-3.384s2.862,5.248,1.738,8.485a45.217,45.217,0,0,1-2.772,6.376c-.192.294,1.75-4.709.728-7.946s-1.533-4.9-1.533-4.9-.613,8.86-1.532,10.61a24.378,24.378,0,0,0-2.044,4.594,39.6,39.6,0,0,0,1.124-8.436c.2-4.708.1-7.945.1-7.945s-1.635,7.356-4.291,10.1-4.5,3.237-4.5,3.237,4.606-6.67,4.708-8.926a37.715,37.715,0,0,0,0-4.807A55.392,55.392,0,0,1,113.562,33.133Z"/><path class="cls-1" d="M103.892,46.233a11.272,11.272,0,0,1-5.415,4.905c-3.781,1.569-7.971,2.06-10.423,1.373s-7.064-4.386-8.379-6.278c-.724-1.042-1.532-6.278-1.532-9.613s1.941-10.986,5.313-12.654,18.495-3.139,20.436.687,4.189,14.517,3.576,16.087A40.415,40.415,0,0,1,103.892,46.233Z"/><path class="cls-10" d="M100.418,24.653a24.7,24.7,0,0,0-2.555,5.591c-.51,2.256.2,6.278.2,6.278s-1.839-2.158-1.839-4.022.2-4.512.2-4.512-2.35,4.218-5.007,5.787a35.017,35.017,0,0,1-6.948,2.747s7.357-4.022,7.97-6.278,1.124-4.316,1.124-4.316a49.515,49.515,0,0,1-6.948,6.67c-3.27,2.354-6.029,3.924-6.029,3.924s1.328-2.649,1.941-3.826-4.4,2.948-4.393,3.924.143,3.782.143,3.782a12.64,12.64,0,0,1-4.435-5.646c-1.635-3.924-2.146-10.594-2.146-10.594S73,15.948,82.919,14.125c8.6-1.581,12.8,1.307,13.412,1.5s3.985-.392,7.765.883,9.81,9.613,10.014,11.575,2.657,2.55-.511,7.259-4.411,7.511-6.642,8.632a8.922,8.922,0,0,0-3.065,2.256,44.113,44.113,0,0,0,2.555-8.24c.449-3.208.613-6.376.613-6.376a22.036,22.036,0,0,1-2.146,5.909c-1.328,2.037-3.372,4.685-3.372,4.685s3.167-4.708,3.065-7.553a25.606,25.606,0,0,0-.919-5.591l-1.942,8.926s.92-8.632.92-10.692-.715-2.55-.715-2.55Z"/><path class="cls-10" d="M71.69,22.789a16.2,16.2,0,0,0-5.911-3.63,17.521,17.521,0,0,0-5.313-.882s5.824,2.256,6.948,3.139,1.737,1.373,1.737,1.373a11.177,11.177,0,0,0-8.685-1.079c-4.7,1.471-5.927,4.806-5.927,4.806a9.591,9.591,0,0,1,6.029-2.844c3.78-.3,5.517-.3,5.517-.3s-7.97.2-8.787,5.3a37.172,37.172,0,0,0,0,10.1c0,.588.715-4.218,2.044-6.278a11.318,11.318,0,0,1,3.773-3.335s-3.671,5.2-3.262,9.662,4.9,8.7,4.9,8.7-.817-1.3-.817-4.63a30.17,30.17,0,0,1,.408-5.372s-1.124,3.018.92,5.176a49.589,49.589,0,0,0,3.679,3.531s-2.248-.2-2.657-5.493.2-7.357.2-7.357a36.92,36.92,0,0,0,1.635,5.2c.613,1.079,3.444,2.648,3.561,2.844a12.8,12.8,0,0,1-2.948-7.847,12.952,12.952,0,0,1,1.329-6.18c.2-.785,1.619-1.667,1.619-1.667Z"/><path class="cls-11" d="M92.338,43.52a1.867,1.867,0,0,0-1.15-1.411,2,2,0,0,0-1.853.221"/><ellipse class="cls-12" cx="89.199" cy="13.321" rx="0.304" ry="0.292"/><path class="cls-11" d="M96.441,40.275a2.752,2.752,0,0,1,2.427-.763,2.364,2.364,0,0,1,1.788,1.609"/><path class="cls-11" d="M82.919,38.472a2.756,2.756,0,0,1,2.427-.763,2.362,2.362,0,0,1,1.788,1.61"/><path class="cls-11" d="M94.361,45.443c-.093-.149-.316-.047-.456.057a4.315,4.315,0,0,1-4.99.05A8.677,8.677,0,0,1,87.459,44.1"/></svg>