<svg id="word" xmlns="http://www.w3.org/2000/svg" xmlns:xlink="http://www.w3.org/1999/xlink" viewBox="0 0 160 160"><defs><style>.cls-1,.cls-15,.cls-2,.cls-3,.cls-4,.cls-5,.cls-6{stroke:#9d4b9c;}.cls-1,.cls-2,.cls-3,.cls-4,.cls-5,.cls-6{stroke-width:0.5px;}.cls-1{fill:url(#radial-gradient);}.cls-2{fill:url(#radial-gradient-2);}.cls-3{fill:#805536;}.cls-4{fill:#7a5058;}.cls-5{fill:#492b41;}.cls-6{fill:#230d2c;}.cls-10,.cls-11,.cls-12,.cls-13,.cls-14,.cls-7,.cls-9{opacity:0.43;}.cls-7{fill:url(#linear-gradient);}.cls-8{fill:#9d4b9c;}.cls-9{fill:url(#linear-gradient-2);}.cls-10{fill:url(#linear-gradient-3);}.cls-11{fill:url(#linear-gradient-4);}.cls-12{fill:url(#linear-gradient-5);}.cls-13{fill:url(#linear-gradient-6);}.cls-14{fill:url(#linear-gradient-7);}.cls-15{fill:#b07553;stroke-width:0.25px;}</style><radialGradient id="radial-gradient" cx="5375.729" cy="2346.193" r="18.928" gradientTransform="matrix(-0.265, 0.879, -0.928, -0.251, 3679.809, -4102.992)" gradientUnits="userSpaceOnUse"><stop offset="0.004" stop-color="#bad07a"/><stop offset="1" stop-color="#628b52"/></radialGradient><radialGradient id="radial-gradient-2" cx="5405.115" cy="2321.925" r="36.082" xlink:href="#radial-gradient"/><linearGradient id="linear-gradient" x1="49.566" y1="82.034" x2="56.191" y2="82.034" gradientUnits="userSpaceOnUse"><stop offset="0" stop-color="#fff"/><stop offset="1" stop-color="#fff" stop-opacity="0"/></linearGradient><linearGradient id="linear-gradient-2" x1="2751.924" y1="4197.649" x2="2758.19" y2="4197.649" gradientTransform="matrix(0.436, 0.9, -0.9, 0.436, 2649.57, -4193.438)" xlink:href="#linear-gradient"/><linearGradient id="linear-gradient-3" x1="2780.397" y1="5120.559" x2="2786.663" y2="5120.559" gradientTransform="matrix(0.436, 0.9, -0.736, 0.357, 2646.591, -4192.313)" xlink:href="#linear-gradient"/><linearGradient id="linear-gradient-4" x1="2751.973" y1="4177.529" x2="2758.239" y2="4177.529" gradientTransform="matrix(0.436, 0.9, -0.9, 0.436, 2649.57, -4193.438)" xlink:href="#linear-gradient"/><linearGradient id="linear-gradient-5" x1="2738.186" y1="5064.396" x2="2744.451" y2="5064.396" gradientTransform="matrix(0.436, 0.9, -0.746, 0.361, 2646.222, -4192.515)" xlink:href="#linear-gradient"/><linearGradient id="linear-gradient-6" x1="2719.815" y1="4176.315" x2="2726.081" y2="4176.315" gradientTransform="matrix(0.436, 0.9, -0.9, 0.436, 2649.57, -4193.438)" xlink:href="#linear-gradient"/><linearGradient id="linear-gradient-7" x1="901.081" y1="4107.506" x2="907.521" y2="4107.506" gradientTransform="matrix(0.837, 0.548, -0.347, 0.53, 770.445, -2546.637)" xlink:href="#linear-gradient"/></defs><path class="cls-1" d="M60.5,49.575c.69.039,4.04-3.565,5.761-4.874s2.9-2.1,2.9-2.1,4.276-.469,5.627.488a11.873,11.873,0,0,0,3.8,1.621c.866.235,1.1.742,1.3.352a5.825,5.825,0,0,0,.319-.8s3.38.693,3.813.81-.587-.9-.587-.9a13.7,13.7,0,0,0,2.483-.215c.845-.215.351-1.68.351-1.68l1.9-.078-.547-1.553s1.361-1.407,2.3-1.153-2.082-1.377-2.288-1.211.474-1.055.474-1.055l-1.32-1.318,2.5-1.026-.918-.839,3.257-1.485-.743-.645L94.5,29.2l-1.649-.742,1.958-1.319-1.886-1.25,2.566-2.041-1.227-.332,2.433-1.856L95.879,21l2.463-1.181a15.053,15.053,0,0,0-3.093-1.133c-.35.127-1.493.556-1.493.556l-.042-.9a16.042,16.042,0,0,0-2.8-.019c-.516.156-1.794.771-1.794.771l-.041-1.416a4.436,4.436,0,0,0-2.577.782,9.461,9.461,0,0,0-2.122,2.383l-.083-2.315s-2.751,1.621-2.9,2.1a3.212,3.212,0,0,1-.412.85l-.731-.42a2.088,2.088,0,0,0-1.948,1.026,16.214,16.214,0,0,0-1.288,1.943s-1.7-1.865-1.907-2.217a7.918,7.918,0,0,1-.454-1.083l-1.2.859a22.946,22.946,0,0,0-1.67-2.744c-.526-.586-1.628,2.3-1.628,2.3l-1.278-.42-1.176,3.231s-.793-1.1-1.019-.35a36.849,36.849,0,0,0-.268,4.512s-1.607-1.4-1.68.137a5.649,5.649,0,0,0,.64,3.057A8.071,8.071,0,0,0,67.5,33.353l-1.916.664A5.971,5.971,0,0,0,67.1,35.98c1.319,1.318,1.742,2.246,1.567,3.6s.237,2.06-.68,2.773-2.937,1.719-3.618,2.422a52.159,52.159,0,0,1-3.781,4,24.316,24.316,0,0,1-2.608,1.143l1.779.131Z"/><path class="cls-2" d="M56.1,51.812a42.02,42.02,0,0,1,4.908-.979c2.268-.274,11.81,2.312,13.8,2.7S86,58.177,87.4,59.74s3.165,1.67,2.474,2.666A6.933,6.933,0,0,1,86.71,65.4c-1.681.654-3.082.645-3.721,1.211s.361.615.361.615a4.9,4.9,0,0,0-2.3,1.153,1.887,1.887,0,0,0-.4,1.592s-2.587,2.109-2.813,2.861,1.278.938,1.278.938a9,9,0,0,0-1.835,2.461c-1.009,1.8.382,1.065.382,1.065A23.255,23.255,0,0,0,76.034,80.1c-.186.615.474.5.474.5a1.52,1.52,0,0,1-.433,1.435c-.659.635.567.967.567.967a8.162,8.162,0,0,0,.01,1.778,11.024,11.024,0,0,1,.124,1.66,3.1,3.1,0,0,0,1.422-.059,21.765,21.765,0,0,0,2.391-1.719l.165,2.041s2.361-1.358,2.68-1.641a15.586,15.586,0,0,1,1.948-1.026A12.724,12.724,0,0,0,85.6,87.72c.4,1,1.34.215,1.34.215l.516,2.432,2.483-.215a7.27,7.27,0,0,0,.7,2.334c.484.723.752-.166.752-.166l1.659,3.038.989-2.247A29.075,29.075,0,0,0,97.9,95.044,9.088,9.088,0,0,1,100.45,96.7a9.063,9.063,0,0,1-.8-2.51c-.124-1.143-.113-2.988-.113-2.988l.9.908a3.271,3.271,0,0,0,.01-1.846c-.268-1.182,1.185-.049,1.185-.049a19.551,19.551,0,0,0-.412-3.291c-.31-1.045,1.02-.02,1.02-.02s-.474-3.6-.866-3.857a19.4,19.4,0,0,1,2.134.946,4.629,4.629,0,0,1,.917.84l-.031-.674,2.474,1.631.412-1.367,3.06.976.062-1.758a24.194,24.194,0,0,0,3.546,1.7c1.082.292-.2-2.2-.2-2.2s2.37.42,3.957.85-.886-1.719-.886-1.719,3.988,1.523,4.638,1.7-1.145-3.194-1.577-3.311,2.875.557,2.875.557l.031-.88,2.36.2.226-.752,4.752.546a2.416,2.416,0,0,0-.588-2.451,15.823,15.823,0,0,0-3.277-2.07l.7-.772s-.969-1.445-1.762-1.66,2.03-.264,2.03-.264a11.551,11.551,0,0,0-2.03-2.324c-.557-.225.855-1.543.855-1.543s-3.483-1.387-3.937-1.436,1.649-1.328,1.649-1.328-1.794-1.817-2.989-1.992a1,1,0,0,1-.959-1.221s.475-.537-1.669-.673a7.813,7.813,0,0,1-4.154-1.5c-.3-.3.536-.742,1.515-2.177s1.515-2.178,1.515-2.178l-1.237-.039s.9-1.163,2-2.491a11.775,11.775,0,0,0,1.557-2.315l-1.67.879a9.97,9.97,0,0,0,1.3-2.754c.67-1.963.866-2.354.866-2.354a3.462,3.462,0,0,1-1.907.372,14.786,14.786,0,0,0-1.721-.244c-.381-.03-.175-.713-.175-.713s-2.155-1.4-3.185-1.084a5.99,5.99,0,0,0-2.03,1.3l.4-1.592a20.239,20.239,0,0,0-3.2.537c-.794.3-.444-1.377-.444-1.377l-1.978.87-.279-2.442-.567-.449-.453,1.5a10.351,10.351,0,0,1-1.02-3.086c0-1.035.072-.5-2.154,1.192s-3.865,2.207-5.339,3.731-3.359,2.862-4.276,6.162.986,6.815.626,7.235-.811.11-2.78-.349-1.875-1.025-4.761-2.324A63.577,63.577,0,0,0,71.054,51.84a112.457,112.457,0,0,0-13.079-1.913Z"/><path class="cls-3" d="M92.377,123.68c0,3.415-3.135,6.184-7,6.184s-7-2.769-7-6.184,3.137-6.181,7-6.181S92.377,120.267,92.377,123.68Z"/><path class="cls-4" d="M97.684,139.858A6.7,6.7,0,1,1,91,133.677,6.449,6.449,0,0,1,97.684,139.858Z"/><path class="cls-5" d="M81.664,118.648c0,4.08-3.846,7.389-8.59,7.389s-8.593-3.309-8.593-7.389,3.846-7.387,8.593-7.387S81.664,114.569,81.664,118.648Z"/><path class="cls-6" d="M63.311,83.518a7.955,7.955,0,1,1-7.955-7.84A7.9,7.9,0,0,1,63.311,83.518Z"/><path class="cls-6" d="M74.105,98.827c0,3.581,3.278,6.484,7.321,6.484s7.316-2.9,7.316-6.484-3.276-6.482-7.316-6.482S74.105,95.247,74.105,98.827Z"/><path class="cls-7" d="M53.954,77.688s-5.621.035-4.14,7.254C50.781,89.652,60.466,81.613,53.954,77.688Z"/><path class="cls-8" d="M68.861,123.748s2.754-.7,3.281,0,.108,1.6,0,2.406-.423,2.106-.423,2.106a3.715,3.715,0,0,1-.846-1.706c0-.7-1.694,2.106-1.377,1.2s-.635-.4-.635-.4Z"/><path class="cls-9" d="M76.671,114.263s-2.837-4.555-7.443-.407C64.149,118.432,75.781,121.529,76.671,114.263Z"/><path class="cls-10" d="M92.99,137.491s-2.762-4.587-6.376-.9C82.626,140.671,92.778,144.448,92.99,137.491Z"/><path class="cls-8" d="M89.912,122.13a22.413,22.413,0,0,0-3.206-3.22,24.82,24.82,0,0,1-5.6-6.289c-.833-1.48-1.7-2.929-2.621-4.465-1.02-1.7-2.117-3.54-3.311-5.657.235,0,.463,0,.709,0,3.6-.04,8.539-.092,10.7,2.785l.539-.364c-2.359-3.143-7.5-3.09-11.244-3.047-.365,0-.714.006-1.053.007-.918-1.645-1.892-3.455-2.94-5.524A23.189,23.189,0,0,1,70.026,91.7a9.553,9.553,0,0,1,5.98,3.159l.523-.383A10.1,10.1,0,0,0,69.87,91.05c-.095-.441-.163-.835-.226-1.2-.3-1.756-.536-3.144-3.2-6.515-.155-.195-.306-.4-.456-.609a27.646,27.646,0,0,1,3.783.576c.963.2,1.958.4,3.05.532l.083-.622c-1.063-.129-2.045-.329-2.994-.522a25.742,25.742,0,0,0-4.367-.624c-4.078-6.325-5.134-19.02-5.152-19.112l-.744-3.211L58.479,60.8l.216,3.443a71.681,71.681,0,0,0,4.285,14.4,4.609,4.609,0,0,1-3.01,1.946l.173.6a5.668,5.668,0,0,0,3.16-1.848,22.784,22.784,0,0,0,2.608,4.367,18.007,18.007,0,0,1,2.34,3.572,25.751,25.751,0,0,0-3.432,13.748l.66-.021a25.74,25.74,0,0,1,3.075-12.968,11.857,11.857,0,0,1,.437,1.908,20.471,20.471,0,0,0,2.3,6.677c2.231,4.4,4.141,7.683,5.843,10.539-1.1,1.337-2.222,2.725-2.144,4.665l.661-.024c-.066-1.623.83-2.821,1.837-4.05.142.239.286.48.426.714.917,1.531,1.784,2.977,2.612,4.45a25.373,25.373,0,0,0,5.733,6.452,21.046,21.046,0,0,1,3.194,3.224c1.64,2.33,1.577,5.422,1.543,7.083,0,.218-.008.414-.008.583v4.825h.661v-4.825c0-.166,0-.357.008-.571a13.215,13.215,0,0,0-1.281-6.85c3.989.614,7.163,2.018,8.965,4l.5-.408C97.847,124.239,94.324,122.715,89.912,122.13Z"/><path class="cls-5" d="M82.336,109.452c0,3.831,4.057,6.935,9.067,6.935s9.068-3.1,9.068-6.935-4.059-6.935-9.068-6.935S82.336,105.622,82.336,109.452Z"/><path class="cls-8" d="M97.749,113.52l3.6,2.806s-2.644-.3-2.961-.7-.424,1.7-.424,1.7-.318.5-.636-.4-1.058.6-1.058.6a11.944,11.944,0,0,1-.846-1.2C95.209,115.927,94.256,112.218,97.749,113.52Z"/><path class="cls-11" d="M94.8,105.539s-2.838-4.555-7.443-.406C82.278,109.708,93.911,112.805,94.8,105.539Z"/><path class="cls-6" d="M72.859,103.722a7.956,7.956,0,1,1-7.956-7.84A7.9,7.9,0,0,1,72.859,103.722Z"/><path class="cls-12" d="M65.989,103.059s-2.765-4.585-6.439-.864C55.5,106.3,65.738,110.035,65.989,103.059Z"/><path class="cls-6" d="M69.693,81.167c0,4.58,4.2,8.294,9.386,8.294s9.388-3.714,9.388-8.294-4.2-8.291-9.388-8.291S69.693,76.589,69.693,81.167Z"/><path class="cls-13" d="M81.879,76.067s-2.837-4.554-7.442-.406C69.355,80.237,80.988,83.334,81.879,76.067Z"/><path class="cls-4" d="M95.45,126.638a6.08,6.08,0,1,0,6.07-5.726A5.907,5.907,0,0,0,95.45,126.638Z"/><path class="cls-14" d="M104.768,122.562s-4.813-2.659-5.294,1.384C98.943,128.4,108.783,128.02,104.768,122.562Z"/><path class="cls-15" d="M58.549,39.448s-8.3,7.382-5.3,11,4.822,11.285,4.822,11.285l2.486-.824s-3.629-6.087-1.709-9.274.131-4.972,1.8-6.638,3.747-5.852,3.747-5.852Z"/></svg>