<svg id="word" xmlns="http://www.w3.org/2000/svg" viewBox="0 0 160 160"><defs><style>.cls-1{fill:#d9b57a;}.cls-1,.cls-10,.cls-11,.cls-12,.cls-13,.cls-14,.cls-15,.cls-16,.cls-18,.cls-19,.cls-2,.cls-3,.cls-4,.cls-5,.cls-6,.cls-7,.cls-8,.cls-9{stroke:#9d4b9c;stroke-width:0.597px;}.cls-2{fill:#d8ab77;}.cls-3{fill:#f2d480;}.cls-4{fill:#d6de23;}.cls-5{fill:#c5bbac;}.cls-6{fill:#5a91cc;}.cls-7{fill:#81c6ed;}.cls-16,.cls-8{fill:#fff;}.cls-9{fill:#00adee;}.cls-10{fill:#fce3da;}.cls-11,.cls-15{fill:none;}.cls-12{fill:#cec4b3;}.cls-13{fill:#f7ee6d;}.cls-14{fill:#fde4d5;}.cls-15,.cls-16{stroke-linecap:round;}.cls-17{fill:#9d4b9c;}.cls-18{fill:#8b8bc3;}.cls-19{fill:#d67fb3;}</style></defs><polygon class="cls-1" points="33.749 116.842 20.158 108.258 41.26 104.683 33.749 116.842"/><path class="cls-1" d="M81.674,135.8s-.714-25.933-.714-27.008v-4.648L112.792,93.77l1.073,28.254Z"/><path class="cls-2" d="M78.1,136.156s-21.461-6.083-26.468-9.657-17.882-9.657-17.882-9.657L32.317,89.66S44.3,92.523,50.382,94.31s30.578,8.226,30.578,8.226l.714,33.263Z"/><polygon class="cls-3" points="35.18 88.588 68.799 81.433 112.792 93.77 80.783 104.683 32.317 89.66 35.18 88.588"/><path class="cls-1" d="M81.5,135.62l32.368-13.6s15.559,2.148,16.632,2.148a52.253,52.253,0,0,0,6.081-1.429S125.49,132.4,121.2,133.117,96.878,144.2,96.878,144.2Z"/><path class="cls-4" d="M68.189,69.677a26.931,26.931,0,0,0-6.636-3.354c-2.812-1.094-6.489-2.177-8.048-1.609a4.469,4.469,0,0,0-2.949,5.364c.563,3.257,6.024,14.681,6.094,14.964s2.406,6.446,2.406,6.446l7.5-5.028s-8.493-11.17-8.493-12.09S65.574,79.154,66.919,80s.617,3.181,3.308,2.683,7.585-2.2,7.868-3.754S68.189,69.677,68.189,69.677Z"/><path class="cls-4" d="M86.069,75.73s5.311,3.4,6.09,3.894,5.025,2.126,5.025,2.126a7.613,7.613,0,0,1,.851,4.106c-.213,2.269-6.048,5.772-8.315,5.772s-4.217.744-7.759-.177-14.8-2.41-15.011-2.549,0-1.134,3.47-2.337,10.976-6.8,10.976-6.8Z"/><path class="cls-5" d="M55.291,84.653s-4.035-3.186-5.665-3.469-3.8-.567-5.026,1.276c-1.474,2.206-1.631,6.581,1.56,8.071a15.076,15.076,0,0,0,8,1.2"/><path class="cls-6" d="M51.23,82.035s-2.454-.945-3.985-.5a3.8,3.8,0,0,0-2.906,3.352,5.461,5.461,0,0,0,1.441,4.956,17.19,17.19,0,0,0,3.4,1.817,13.916,13.916,0,0,0,2-4.344A22.319,22.319,0,0,0,51.23,82.035Z"/><path class="cls-7" d="M50.5,81.855a4.807,4.807,0,0,1,1.748.51,14.626,14.626,0,0,1,2.621,1.487c.068.047,1.157.283,1.157.283L60.178,91.4a3.363,3.363,0,0,0-1.819-.023c-1.064.261-2.926.19-4.509.378a30.9,30.9,0,0,1-4.671-.094s-.142-.023.257-1.369a12.034,12.034,0,0,0,1.043-4.344C50.524,83.734,50.5,81.855,50.5,81.855Z"/><path class="cls-8" d="M52.835,85.148s-.458,1.628-.67,2.94a10.61,10.61,0,0,1-1.027,2.8s-.392.812.034,1.134a1.481,1.481,0,0,0,1.947.068,2.167,2.167,0,0,0,.886-2.157,40.251,40.251,0,0,1,.5-4.285Z"/><path class="cls-8" d="M55.28,85.716a18.031,18.031,0,0,1-.353,3.15c-.285.919-.5,1.983-.5,1.983s-.742,1.063-.106,1.2,2.127.246,2.408-.957a13.842,13.842,0,0,0,.283-3.93c-.142-.424-.5-1.381-.5-1.381Z"/><path class="cls-9" d="M80.9,47.479s1.164-.938.953.337c-.139.834.9,4.907,1.876,5,.519.051,1.184-1.2,2.517-2.263a5.37,5.37,0,0,0,1.6-3.547s4.8,1.445,6.975,3.755c3.039,3.22,1.662,3.793,1.945,6.13s.306,15.95.921,17.561c2.57,6.749.4,11.188.211,10.527a19.19,19.19,0,0,0-6.985-5.191c-3.54-1.275-16.665-2.29-16.665-2.29s-.637-.354-.071-2.976-1.841-8.566-.494-13.948,5.1-13.1,5.1-13.1Z"/><path class="cls-9" d="M92.938,54.61s.092-5.007,1.52-4.829c2.816.35,3.188,4.593,3.4,7.78s.836,5.939-.895,10.909c-.661,1.9-.766,3.484-1.618,5.751S92.583,75.874,91.1,76.3a37.686,37.686,0,0,1-9.064,1.843c-4.107.211-8.85.494-8.85.494s3.256-3.682,2.053-4.036,3.895-.5,6.938-1.486,5.455-2.55,6.019-2.55,1.063-.353,1.063-2.054.353-1.982,1.417-5.733S92.938,54.61,92.938,54.61Z"/><path class="cls-9" d="M77.89,47.691a32.159,32.159,0,0,0-4.779,3.326,22.577,22.577,0,0,0-3.327,6.163A38.312,38.312,0,0,0,68.3,62.067a33.654,33.654,0,0,0-1.273,7.362c-.215,4.389.423,5.664.423,5.664l5.312.709s.142-5.381.636-8.568S75.1,56.3,76.3,53.6s3.009-6.2,3.009-6.2Z"/><path class="cls-10" d="M76.381,74.409c-.91-.235-1.617.709-3.5-.9-1.087-.923-1.736-1.794-2.939-1.794a12.349,12.349,0,0,1-3.47-.422c-.283-.214-1.506-.666-1.213.375.458,1.653,2.346,2.031,2.629,2.174s1.556,1.06.638,1.414-1.627,1.488-2.337.779a2.509,2.509,0,0,1-.709-1.629s-1.771.213-1.7,1.2a3.153,3.153,0,0,0,.848,1.771s.638,1.2.99,1.984.921,1.2,2.409,1.133a15.191,15.191,0,0,0,4.036-1.133c1.061-.355,4.921-1.606,4.921-1.606S77.288,74.647,76.381,74.409Z"/><path class="cls-11" d="M64.522,77.264a3.13,3.13,0,0,0,3.315.946"/><path class="cls-11" d="M65.442,78.9c.364,1.083,1.8.881,2.573.4"/><path class="cls-10" d="M65.254,74.457c2.36-.519,1.348,1.264.256,1.273"/><path class="cls-4" d="M55.646,83.945s2.314-.331,2.691-.046,0,0,1.271-.568.758-.188,2.269-.234a7.1,7.1,0,0,0,3.776-.851c.992-.66,3.329-1.226,4.931-1.884s7.905-3,10.193-3.575c2.863-.718,7.25-1.717,8.479,1.493s-.99,6.231-3.257,7.365c-1.761.883-10.586,2.586-15.234,4.017a19.359,19.359,0,0,1-5.4.939c-2.359.238-5.57,1.652-6.511,1.747s-2.407.473-1.748-.662a5.494,5.494,0,0,0,.329-3.918A16.283,16.283,0,0,0,55.646,83.945Z"/><path class="cls-7" d="M69.559,86.011s-4.3.271-7.352.482a5.561,5.561,0,0,0-4.91,3.116c-.566,1.135,1.288,2.774,3.338,2.207s2.621-1.7,5.811-1.487,5.886.154,6.24-.342S73.961,86.588,69.559,86.011Z"/><path class="cls-5" d="M73.384,89.161s-.178-2.443-2.29-2.583C69.958,86.5,68.686,88,67.74,88.466s-2.265-.8-4.484-1.368-2.878.281-4.814,1.319-1.894,3.051-1.486,4.78c.885,3.755,3.468,4.1,3.468,4.1l2.373.081s-4.355-7.432-3.117-8.319,5.632.106,6.481.389,4.776-2.265,5.415-1.841a18.133,18.133,0,0,1,1.876,1.7"/><path class="cls-12" d="M72.179,87.355a1.781,1.781,0,0,0-2.054.142c-.848.85-2.833,1.984-4.177,1.2s-4.036-1.273-5.594-.566a4.79,4.79,0,0,0-1.7,7.082c2.2,3.611,5.948,2.265,7.506.92s2.833-1.84,3.823-1.771,4.038-1.769,3.964-3.117S73.241,87.71,72.179,87.355Z"/><path class="cls-13" d="M55.268,83.753a13.13,13.13,0,0,1,2.713-.679c.786,0,1.608-.427,2.322-.285s.751.106.714,1.071a4.954,4.954,0,0,0,.322,2.25,11.743,11.743,0,0,0,1.428.569l-5.535,2.536S57.23,84.717,55.268,83.753Z"/><path class="cls-14" d="M88.252,43.151s-.217,2.836-.326,4.649-2.173,6.24-4.352,5.333S81.832,48.6,81.832,48.6l.111-6.464"/><path class="cls-14" d="M80.083,21.1S77.4,22.806,76.85,24.393s-1.076,5.761-1.495,6.814-1.635,5.479-.165,8.764c.772,1.722,3.813,4.511,6.329,5.745a8.463,8.463,0,0,0,7.339-.557c3.391-2.269,7.306-9.423,7.636-12.221S93.144,25,89.988,22.9,82.167,19.915,80.083,21.1Z"/><path class="cls-15" d="M80.74,36.484c.574-1.054,1.253-.892,1.871.27"/><path class="cls-16" d="M88.672,35.411s1.247-2.628-.726-3.118c-1.21-.3-3.224,1.334-2.07,2.977S88.672,35.411,88.672,35.411Z"/><path class="cls-16" d="M79.01,33.093s1.236-2.614-.721-3.1c-1.2-.3-3.2,1.321-2.054,2.95S79.01,33.093,79.01,33.093Z"/><path class="cls-15" d="M90.265,30.921a2.283,2.283,0,0,0-2.611-1.2"/><path class="cls-15" d="M80.251,28.522c-.183-.853-1.086-1.1-2.024-.814"/><path class="cls-17" d="M85.76,33.944c-.1.622.172,1.189.6,1.273s.861-.36.958-.983-.172-1.191-.6-1.271S85.856,33.321,85.76,33.944Z"/><path class="cls-17" d="M75.95,31.559a1.011,1.011,0,0,0,.626,1.245c.445.076.893-.353.992-.964a1.006,1.006,0,0,0-.619-1.241C76.5,30.522,76.052,30.954,75.95,31.559Z"/><path class="cls-15" d="M79.4,37.961c.168-.14.371.123.45.326a3.046,3.046,0,0,0,2.375,1.877A2.968,2.968,0,0,0,85,38.962"/><path class="cls-18" d="M96.655,34.176c2.328.586,4.506-1.393,5.788-3.423s2.335-4.425,4.476-5.509c1.689-.855,3.688-.691,5.565-.94a12.462,12.462,0,0,0,7.093-3.493c-5.095,2.291-11.132.757-16.072-1.851-2.226-1.175-4.387-2.577-6.842-3.137a20.884,20.884,0,0,0-8.013.256c-3.6.594-7.744,1.647-9.189,4.992-.5,1.161-.938,2.769-2.2,2.795,0,0,3.652-2.405,7.326-2.315C93.815,21.776,96.655,34.176,96.655,34.176Z"/><path class="cls-19" d="M118.764,17.836s-2.7,1.914-2.251,2.927,1.351.225,1.126,1.575,1.913,1.576,1.913,1.576,1.351.563,1.8,0,1.688-.788,1.688-1.913.676-1.126,0-1.914-.45-1.688-1.463-2.026S118.989,16.373,118.764,17.836Z"/><path class="cls-18" d="M75.281,29.317a12.572,12.572,0,0,1-1.051-5.065c0-2.927,4.165-6.978,4.165-6.978s.915.851,4.715.875S90.851,17.274,94.678,22s3.714,8.329,3.6,9.792,1.614,6.078,1.614,6.078l-6.9,2.926s3.452-8.7-3.076-12.981-8.4-3.076-11.481-2.026A5.707,5.707,0,0,0,75.281,29.317Z"/></svg>