<svg id="word" xmlns="http://www.w3.org/2000/svg" viewBox="0 0 160 160"><defs><style>.cls-1{fill:#464d5a;}.cls-1,.cls-11,.cls-3,.cls-4,.cls-5,.cls-6,.cls-7,.cls-8,.cls-9{stroke:#9c4c9c;stroke-width:0.524px;}.cls-1,.cls-11,.cls-3,.cls-4,.cls-5,.cls-6,.cls-7,.cls-8{stroke-miterlimit:10;}.cls-2,.cls-7,.cls-9{fill:#fff;}.cls-3,.cls-6{fill:#fcded0;}.cls-4{fill:#e80a89;}.cls-5{fill:#716558;}.cls-11,.cls-6{stroke-linecap:round;}.cls-8{fill:#a5248b;}.cls-10{fill:#9c4c9c;}.cls-11{fill:none;}</style></defs><path class="cls-1" d="M92.954,129.787l2.739,21.069-17.277.422s-2.529-24.441-2.95-25.073-2.318,11.377-2.739,13.7-1.054,11.588-1.054,11.588l-15.591-.21L54.817,118.2l37.294.843Z"/><path class="cls-2" d="M66.492,61.6l5.535-.867,13.405,1.5,3.543,1.087-3.09,14.13L79.364,87.884s-4.275-6.2-4.81-8.314S66.492,61.6,66.492,61.6Z"/><path class="cls-3" d="M71.845,49.189a32.641,32.641,0,0,1,.707,5.8,25.733,25.733,0,0,1-1.406,5.746s4.88,6.345,7.946,5.939,7.084-4.62,7.256-4.891-.372-9.692-.372-9.692Z"/><path class="cls-4" d="M74.554,62.5h9.828s.278,2.45-.711,3.1-2.225,3.378-2.225,3.378v14.68L73.2,86.91l1.559-10,1.429-7.924s-.65.779-.52-1.169a3.4,3.4,0,0,0-1.7-2.966Z"/><path class="cls-3" d="M69.187,27.181S66.281,38.1,66.5,40.973s4.918,14.152,9.725,16.191,12.63-3.238,14.754-5.877,7.6-15.711,7.824-18.229-3.465-13.313-3.465-13.313-7.265-4.2-11.4-3.837S70.9,20.05,69.187,27.181Z"/><path class="cls-5" d="M85.841,17.467S77.011,19.506,75.67,22.5a26.711,26.711,0,0,0-1.789,5.4l-1.564-1.919S69.746,28.62,70.081,29.7a1.509,1.509,0,0,1-.782,1.679l-1.006-3.358-.783,6.112s-3.7-12.353-2.459-15.947c1.9-5.5,10.619-8.395,13.3-9.114s3.689-.96,5.813.6a11.89,11.89,0,0,1,3.129,3.358,51.232,51.232,0,0,1,7.042.84c2.459.6,9.389,9.354,9.948,13.432s-3.465,9.453-3.465,9.453S97.13,40.733,96.8,41.333s-4.3,2.4-4.3,2.4.847-6.3.736-7.5-2.587-2.339-2.81-4.378-2.236-10.194-2.236-10.194l-1.117,9.115s-3.551-8.395-2.5-10.434A17.191,17.191,0,0,0,85.841,17.467Z"/><path class="cls-6" d="M75.464,30.892s-.126,6.6-.91,7.682-2.461,1.32-1.679,2.759a3.864,3.864,0,0,0,2.683,1.679"/><polygon class="cls-7" points="71.483 58.054 78.561 62.504 70.187 68.007 69.641 60.472 71.483 58.054"/><polygon class="cls-7" points="81.779 62.525 86.936 58.054 91.613 62.504 87.935 72.295 81.779 62.525"/><path class="cls-1" d="M67.149,63.031,56.236,66.838s-.779,28.451,0,31.439a12.9,12.9,0,0,1-.346,6.366l-3.941,17.148-.909,6.5s13.538,4.662,18.6,4.027c8.437-1.058,10.966-12.014,10.966-12.014L78.561,86.975,72.552,75.153Z"/><path class="cls-1" d="M69.641,58.654,73,73.334l2.469,9.873-2.912.65S64.66,72.944,64.8,72.3s-1.288-4.288-1.288-4.288l2.858-1.429-3.465-2.067v-.557Z"/><path class="cls-1" d="M93.132,63.031l8.7,7.185s-6.5,20.656-6.626,23.9,1.15,12.3,1.41,16.067,3.792,21.069,3.792,21.069-11.178,2.528-13.906,1.144a27.393,27.393,0,0,1-5.263-3.723L79.132,105.13l-.571-20.624L89.732,60.732Z"/><path class="cls-1" d="M88.269,58.654s6.933,3.3,6.552,4.377,1.35,2.508,1.35,2.508l-4.079.78,2.469,1.688L86.376,81l-5.133,3.9-.876-4.234,7.278-15.488Z"/><path class="cls-3" d="M88.269,81.518s3.3-.231,5.252.989S98.2,85.935,98.2,85.935l-6.106,1.949S88.976,82.558,88.269,81.518Z"/><path class="cls-1" d="M85.6,87.105l11.166-2.118,5.073-14.771s2.462-.909,4.609,4.547,3.316,16.109,1.887,20.136-1.819,5.327-5.2,4.807-21.892-2.832-21.892-2.832l-.876-6.262Z"/><path class="cls-3" d="M96.731,35.988s2.155-.61,2.826,2.268-1.293,7.316-2.826,8.036-3.1.479-2.875-.84"/><line class="cls-3" x1="55.457" y1="109.19" x2="68.318" y2="111.658"/><line class="cls-3" x1="96.83" y1="111.029" x2="88.975" y2="112.308"/><ellipse class="cls-8" cx="76.814" cy="110.608" rx="1.559" ry="1.624"/><path class="cls-9" d="M68.876,34.465s-.942,3.072,1.074,4.075,2.411-1.14,2.7-1.79c.522-1.17-.345-3.936-1.689-3.862A2.4,2.4,0,0,0,68.876,34.465Z"/><path class="cls-10" d="M68.725,34.988s-.581,1.893.662,2.511,1.485-.7,1.664-1.1c.322-.721-.213-2.425-1.04-2.38A1.483,1.483,0,0,0,68.725,34.988Z"/><path class="cls-7" d="M82.609,81.388l5.66-1.039a8.305,8.305,0,0,1,3.3,3.508,9.243,9.243,0,0,1,.519,4.027H87.6Z"/><path class="cls-1" d="M54.545,68.007S56.5,64.24,59.1,67.1s5.7,14.68,5.7,15.46,1.18,2.728,2.479,2.338,4.432-2.239,6.232-2.27,9.957-2.017,9.957-2.017l4.8,8.444s-7.758,5.072-10.152,5.2-11.776,4.935-15.659,4.935S52.6,93.73,51.819,89.053,51.557,71.385,54.545,68.007Z"/><path class="cls-3" d="M69.184,83.337s-3.074-3.9-3.464-4.547-4.87-3.507-5.228-2.988.941,1.949.941,1.949-2.468-.78-2.338.39,2.793,2.177,2.793,2.177-3.262-.34-2.8.681c.527,1.161,3.368,1.508,3.368,1.508s-1.934-.079-1.025.83S66.59,84.9,66.59,84.9Z"/><path class="cls-9" d="M80.788,35.374s-.943,3.072,1.074,4.075,2.411-1.141,2.7-1.79c.523-1.17-.345-3.937-1.688-3.862A2.4,2.4,0,0,0,80.788,35.374Z"/><path class="cls-10" d="M80.637,35.9s-.581,1.893.662,2.511,1.485-.7,1.664-1.1c.321-.721-.213-2.426-1.041-2.38A1.481,1.481,0,0,0,80.637,35.9Z"/><path class="cls-11" d="M80.774,30.873c.121-.364.55-.507.922-.6a3.9,3.9,0,0,1,3.083.093c.542.358.929,1,1.569,1.113"/><path class="cls-11" d="M73.768,46.372c.019-.124.208-.078.316-.013a2.579,2.579,0,0,0,1.107.286,12.421,12.421,0,0,0,5.349-.719"/><path class="cls-11" d="M74.135,30.332a3.219,3.219,0,0,0-3.3-1.306"/></svg>