<svg id="word" xmlns="http://www.w3.org/2000/svg" xmlns:xlink="http://www.w3.org/1999/xlink" viewBox="0 0 160 160"><defs><style>.cls-1,.cls-6{fill:none;}.cls-2{clip-path:url(#clip-path);}.cls-3{fill:#fde6d8;}.cls-10,.cls-11,.cls-3,.cls-4,.cls-5,.cls-6,.cls-7,.cls-9{stroke:#9d4b9c;stroke-width:1.004px;}.cls-10,.cls-11,.cls-3,.cls-4,.cls-5,.cls-9{stroke-miterlimit:10;}.cls-4{fill:#00adee;}.cls-5,.cls-7{fill:#fff;}.cls-6{stroke-linecap:round;}.cls-8{fill:#9d4b9c;}.cls-9{fill:#ffe188;}.cls-10{fill:#0069b4;}.cls-11{fill:#fff352;}</style><clipPath id="clip-path"><rect class="cls-1" x="14" y="14" width="132" height="132"/></clipPath></defs><g class="cls-2"><path class="cls-3" d="M87,96.594S85.542,107,80.248,109.373s-8.763-1.095-9.676-3.468S66.92,94.038,66.92,94.038s19.17,1.095,19.535,1.643A9.455,9.455,0,0,1,87,96.594Z"/><path class="cls-4" d="M68.016,96.959l-8.763.182s-3.287,19.718-2.556,25.195,2.556,8.763-1.1,12.779-16.8,26.29-16.8,26.29,11.319,4.382,13.875,4.382,8.763-2.556,15.7,4.382A175.228,175.228,0,0,1,82.986,187.7s23.734-19.717,24.83-30.306,0-23.186-2.191-29.759-8.763-30-8.763-30l-10.954,1.7s-2.191,7.3-8.4,8.763S68.016,96.959,68.016,96.959Z"/><path class="cls-3" d="M54.165,52.431s1.071,18.258,1.071,22.8,1.986,12.933,3.469,15.7c2.738,5.112,15.336,13.327,27.362,9.858,3.869-1.116,10.807-1.825,17-10.588s16.139-23.167,6.847-32.58S104.032,41.4,90.4,41.071,54.165,52.431,54.165,52.431Z"/><path class="cls-3" d="M101.608,161.937a21.148,21.148,0,0,0-1.825,7.493,5.086,5.086,0,0,0,2.556,4.733l6.572,1.972,5.477.849s2.434,0-.73-5.187c-1.643-2.694,4.016-7.1,4.016-7.1s-4.746-2.367-8.033-3.944S101.608,161.937,101.608,161.937Z"/><path class="cls-5" d="M114.593,144.912c1.04-.108,2.074-.3,3.12-.313a17.671,17.671,0,0,1,4.141.613c1.981.461,3.954.954,5.927,1.446a40.129,40.129,0,0,1,.715,7.109c-3.274-1.48-6.6-2.847-9.982-4.059a23.944,23.944,0,0,0-4.111-1.177c-1.229-.2-2.48-.231-3.721-.339-2.329-.2-4.644-.686-6.965-.919.18-.825.354-1.664.522-2.509C107.691,144.707,111.157,145.27,114.593,144.912Z"/><path class="cls-4" d="M126,138.222q-10.38-.567-20.746-1.334a17.253,17.253,0,0,0-.239-3.6c-.036-.192-.088-.4-.13-.6l19.885.687C125.2,135.01,125.617,136.634,126,138.222Z"/><path class="cls-4" d="M120.992,142.829c1.99-.059,4.016-.674,5.954-.47.322,1.5.6,2.941.835,4.3-1.973-.492-3.946-.985-5.927-1.446a17.671,17.671,0,0,0-4.141-.613c-1.046.011-2.08.205-3.12.313-3.436.358-6.9-.205-10.354-.148.244-1.224.462-2.454.637-3.669a111.6,111.6,0,0,1,11.792,1.279A22.69,22.69,0,0,0,120.992,142.829Z"/><path class="cls-5" d="M126.946,142.359c-1.938-.2-3.964.411-5.954.47a22.69,22.69,0,0,1-4.324-.455,111.6,111.6,0,0,0-11.792-1.279,35.62,35.62,0,0,0,.379-4.207q10.367.765,20.746,1.334C126.342,139.636,126.66,141.021,126.946,142.359Z"/><path class="cls-4" d="M114.4,148.531a23.944,23.944,0,0,1,4.111,1.177c3.382,1.212,6.708,2.579,9.982,4.059-.038,1.928-.405,3.221-1.206,3.622a7.728,7.728,0,0,0-2.684,2.691l-7.75-4.828a48.612,48.612,0,0,0-4.483-2.576,24.34,24.34,0,0,0-9.322-2.37c.213-.975.44-1.991.666-3.033,2.321.233,4.636.716,6.965.919C111.923,148.3,113.174,148.328,114.4,148.531Z"/><path class="cls-4" d="M121.082,167.978s-18.074-5.842-18.987-9.859a10.8,10.8,0,0,1,.138-3.636,87.916,87.916,0,0,1,20.3,9.543A39.536,39.536,0,0,0,121.082,167.978Z"/><path class="cls-5" d="M116.856,155.252l7.75,4.828a24.957,24.957,0,0,0-2.076,3.946,87.916,87.916,0,0,0-20.3-9.543c.194-1.242.484-2.651.818-4.177a24.34,24.34,0,0,1,9.322,2.37A48.612,48.612,0,0,1,116.856,155.252Z"/><path class="cls-4" d="M106.728,123.337a35.921,35.921,0,0,0,4.328-.452,38.927,38.927,0,0,1,10.989.818c.458,1.542.917,3.122,1.368,4.718H103.768c-.438-1.466-.935-3.017-1.443-4.6C103.538,123.021,105.225,123.319,106.728,123.337Z"/><path class="cls-5" d="M124.771,133.376l-19.885-.687c-.276-1.3-.659-2.731-1.118-4.268h19.645C123.878,130.066,124.334,131.726,124.771,133.376Z"/><path class="cls-4" d="M107.784,115.072a18.359,18.359,0,0,1,3.532-.2l6.923.055a32.091,32.091,0,0,1,2.332,4.237c-6.46-.1-13.023.145-18.9,2.6-.383-1.2-.758-2.41-1.111-3.605,1.289-.717,2.6-1.393,3.951-1.984A15.3,15.3,0,0,1,107.784,115.072Z"/><path class="cls-5" d="M114.944,110.185c1.156,1.555,2.3,3.177,3.3,4.741l-6.923-.055a18.359,18.359,0,0,0-3.532.2,15.3,15.3,0,0,0-3.278,1.1c-1.351.591-2.662,1.267-3.951,1.984-.309-1.044-.6-2.076-.857-3.082A33.55,33.55,0,0,1,114.944,110.185Z"/><path class="cls-5" d="M120.571,119.163a12.688,12.688,0,0,1,.511,1.347c.318,1.039.64,2.107.963,3.193a38.927,38.927,0,0,0-10.989-.818,35.921,35.921,0,0,1-4.328.452c-1.5-.018-3.19-.316-4.4.488q-.329-1.025-.659-2.06C107.548,119.308,114.111,119.058,120.571,119.163Z"/><path class="cls-4" d="M98.714,110.069q.513-.278,1.027-.554c2.889-1.56,5.848-3.145,9.09-3.668a20.22,20.22,0,0,1,2.555-.223c1.091,1.343,2.327,2.907,3.558,4.561A33.55,33.55,0,0,0,99.7,115.078,38.485,38.485,0,0,1,98.714,110.069Z"/><path class="cls-5" d="M99.741,109.515q-.515.276-1.027.554a12.44,12.44,0,0,1,.095-4.164c1.461-6.208,9.128-4.382,9.128-4.382s1.48,1.677,3.449,4.1a20.22,20.22,0,0,0-2.555.223C105.589,106.37,102.63,107.955,99.741,109.515Z"/><path class="cls-6" d="M79.6,79.838a5.525,5.525,0,0,0-5.824-1.564"/><path class="cls-6" d="M86.151,85.213a21.356,21.356,0,0,1-11.928,1.7,12.937,12.937,0,0,1-9.493-6.329"/><path class="cls-7" d="M86.6,67.814A2.838,2.838,0,0,1,89.484,66.2c1.928.2,4.876.916,4.738,3.409-.2,3.689-.615,6.763-4.1,7.173C87.167,77.126,84.949,71.427,86.6,67.814Z"/><path class="cls-8" d="M86.294,69.812a2.841,2.841,0,0,1,4.09-2.9,1.64,1.64,0,0,1,.97,1.585c-.127,2.3-.383,4.218-2.556,4.474C87.553,73.117,86.518,71.543,86.294,69.812Z"/><path class="cls-7" d="M63.7,63.18a2.84,2.84,0,0,1,2.888-1.617c1.928.2,4.877.916,4.738,3.409-.2,3.689-.614,6.763-4.1,7.173C64.27,72.493,62.052,66.794,63.7,63.18Z"/><path class="cls-8" d="M63.4,65.178a2.842,2.842,0,0,1,4.09-2.9,1.643,1.643,0,0,1,.971,1.586c-.128,2.3-.384,4.218-2.556,4.473C64.656,68.484,63.621,66.91,63.4,65.178Z"/><path class="cls-9" d="M100.005,63.791S90.98,81.225,89.559,84.727c-2.272,5.6-.085,7.626,1.154,11.521s2.788,5.193,2.788,5.193-3.1-2.6-5.885,1.3a10.812,10.812,0,0,0-1.549,8.439s-4.336-.324-4.955,3.895,1.858,12.983,1.858,12.983-5.266.324-3.1,4.868,2.168,6.492,2.168,6.492-1.859,3.9-1.859,6.167a55.521,55.521,0,0,0,1.239,7.789,17.412,17.412,0,0,1,5.266-1.3c2.168,0,5.265-.974,2.168-3.246s-1.239-8.114-1.239-8.114,2.478,0,3.407-3.246a13.194,13.194,0,0,0,0-7.14c-.31-.974,3.717-2.6,4.646-6.492l.929-3.894s10.841-10.387,9.6-12.659,13.924-11.725,16.106-17.527c3.4-9.046,3.407-32.132-1.239-42.518s-13.938-22.071-28.8-22.4S63.767,29.711,55.714,37.176,47.661,59.571,41.466,69.309s-6.814,17.526-3.717,21.1S52,96.572,52,98.2s-5.575,6.492-3.1,8.764a6.1,6.1,0,0,1,2.168,4.868s-3.717,2.6-2.478,5.193,5.265,4.869,5.265,4.869-5.046,2.556-5.575,5.518,2.478,2.6,2.478,2.6-3.407,2.921-3.407,5.518.31,6.816.31,6.816h4.026a51.678,51.678,0,0,0,.929-6.167c0-1.623,1.16,6.248,1.16,6.248s1.938-6.248.079-8.195,0-4.22,0-4.22,3.717-3.57,3.407-5.193,2.478-3.895,2.168-7.14l-.309-3.246S65.232,98.642,60.9,96.046s-5.621-10.041-4.382-18.805,1.058-6.31,3.536-9.88,16.906-10.1,19.65-12.21c4.747-3.652,8.764-13.51,8.764-13.51a16.691,16.691,0,0,1,4.727,11.114,34.946,34.946,0,0,0,2.788,12.334s-.62-8.763-.62-10.062S102.483,56,100.005,63.791Z"/><path class="cls-8" d="M94.864,74.874a8.182,8.182,0,0,0-.594,1.772c-.161.637-.291,1.29-.415,1.944-.245,1.309-.45,2.632-.635,3.957-.373,2.652-.65,5.316-.857,7.984a26.229,26.229,0,0,0,.425,7.95,12.9,12.9,0,0,0,3.909,6.85,13.054,13.054,0,0,1-4.212-6.771,26.657,26.657,0,0,1-.749-8.061c.084-2.7.309-5.386.641-8.061.161-1.339.341-2.676.565-4.012.114-.668.233-1.335.388-2a8.816,8.816,0,0,1,.661-2.046Z"/><path class="cls-8" d="M87.945,104.815a2.182,2.182,0,0,0-1.012,1.322,8.64,8.64,0,0,0-.36,1.946,29.388,29.388,0,0,0-.186,4.105,12,12,0,0,0,2.658,7.622,12.254,12.254,0,0,1-3.16-7.588,30.127,30.127,0,0,1-.064-4.194,9.555,9.555,0,0,1,.271-2.15,3.125,3.125,0,0,1,1.374-1.946Z"/><path class="cls-8" d="M108.512,103.945a16.3,16.3,0,0,1-2.944,2.8,10.6,10.6,0,0,1-3.663,1.706c-1.289.307-2.418,1.025-3.752,1.3a10.061,10.061,0,0,1-3.962.125,9.927,9.927,0,0,0,3.9-.368c1.255-.337,2.375-1.139,3.643-1.529a9.955,9.955,0,0,0,3.378-1.832,15.461,15.461,0,0,0,2.611-2.824Z"/><path class="cls-8" d="M101.434,115.286a14.082,14.082,0,0,1-2.972,2.953c-.524.427-1.048.847-1.542,1.288a17.633,17.633,0,0,0-1.39,1.429,8.95,8.95,0,0,1-3.282,2.459,11.78,11.78,0,0,1-4.027.523,11.658,11.658,0,0,0,3.923-.774,8.578,8.578,0,0,0,2.977-2.565,15.824,15.824,0,0,1,1.341-1.556c.488-.486.994-.94,1.492-1.394a13.516,13.516,0,0,0,2.612-2.869Z"/><path class="cls-8" d="M82.494,120.634a15.482,15.482,0,0,0,.886,6.523,9.357,9.357,0,0,0,4.293,4.963,9.608,9.608,0,0,1-4.754-4.762,16.223,16.223,0,0,1-1.43-6.742Z"/><path class="cls-8" d="M92.249,129.333a9.3,9.3,0,0,1-7.306,4.753,8.81,8.81,0,0,0,6.4-5.188Z"/><path class="cls-8" d="M51.562,110.582a7.28,7.28,0,0,0,2.026,3.068,11.369,11.369,0,0,0,3.257,2.038,11.656,11.656,0,0,1-3.573-1.647,8.04,8.04,0,0,1-2.639-3.077Z"/><path class="cls-8" d="M52.157,97.187A8.652,8.652,0,0,0,57.07,101a9.155,9.155,0,0,1-5.732-3.23Z"/><path class="cls-8" d="M60.611,95.421c-.043.992-.04,2.015-.154,3.046a10.252,10.252,0,0,1-4.718,7.581,9.948,9.948,0,0,0,3.457-4.76,9.513,9.513,0,0,0,.51-2.873c.026-.98-.059-1.973-.1-3Z"/><path class="cls-8" d="M58.212,122.169a5.111,5.111,0,0,1-2,3.712,9.983,9.983,0,0,1-3.67,1.712,9.739,9.739,0,0,0,3.332-2.084,4.362,4.362,0,0,0,1.336-3.318Z"/><path class="cls-8" d="M90.546,24.674a49.5,49.5,0,0,1-.716,11.311,18.727,18.727,0,0,1-1.517,5.524,15.4,15.4,0,0,1-3.687,4.4,38.4,38.4,0,0,1-9.717,5.768c-3.429,1.533-6.924,2.881-10.211,4.641a26.55,26.55,0,0,0-8.628,6.928,24.375,24.375,0,0,0,.405,30.995,24.734,24.734,0,0,1-5.44-21.067A25.118,25.118,0,0,1,55.768,63a27.018,27.018,0,0,1,8.686-7.14c3.3-1.818,6.8-3.211,10.19-4.774a37.746,37.746,0,0,0,9.476-5.763,14.638,14.638,0,0,0,3.452-4.2,18.1,18.1,0,0,0,1.376-5.286,48.692,48.692,0,0,0,.6-11.074Z"/><path class="cls-8" d="M90.542,30.523a6.987,6.987,0,0,0,.539,3.11,27.13,27.13,0,0,0,1.368,3.086c1.033,2.02,2.222,3.969,3.451,5.9a56.508,56.508,0,0,1,6.379,12.231c1.457,4.359,1.872,9.252.223,13.619a18.664,18.664,0,0,1-3.671,5.812A41.431,41.431,0,0,1,93.76,78.92a41.413,41.413,0,0,0,4.968-4.733,18.5,18.5,0,0,0,3.517-5.817c1.531-4.317,1.028-9.1-.486-13.345a56.2,56.2,0,0,0-6.548-11.964c-1.26-1.921-2.49-3.873-3.572-5.922a28.158,28.158,0,0,1-1.459-3.177,7.807,7.807,0,0,1-.63-3.6Z"/><path class="cls-10" d="M89.194,141.079l-8.033-3.164a7.665,7.665,0,0,0-.365,2.677c.121,1.218,6.45,3.287,6.45,3.287Z"/><path class="cls-10" d="M55.358,130l-6.938-.122-.121,2.191a13.716,13.716,0,0,0,3.773.608C53.41,132.559,55.358,130,55.358,130Z"/><path class="cls-6" d="M93.977,63.294a5.183,5.183,0,0,0-3.412-2.065c-1.129-.163-2.289.054-3.417-.123"/><path class="cls-5" d="M47.047,23.917l2.276,1.31S47.7,19,51.174,19.256a5.667,5.667,0,0,1,4.714,3.013L55.6,24.98s1.656-2.958,3.724-3.921,4.323,1.468,4.323,1.468-1.807-4,2.125-4.6,4.115.43,4.115.43l.835,3.488a6.021,6.021,0,0,0,2.793.7c.947-.219-2.576-4.7-.023-6.212s5.583-1.993,6.341-.041-.723,5.062-.723,5.062,4.767-7.976,8.515-5.139-.661,6.519-.661,6.519,3.879-5.3,5.791-2.527-4.093,6.3-4.093,6.3l8.356-1.855s.015-4.352,3.749-2.618.763,5.008.763,5.008,6.211-4.829,7.929-3.4.385,4.273.385,4.273l-5.531,2.791-.91,2.419L98.63,35.19s-11.813-.5-15.685-1.39-22.712,3.256-26.034,3.744S45.918,40.828,44.257,41.3s-1.9-1.736-1.9-1.736-2.9-6.708.474-7.638,4.265-.634,4.265-.634S41.486,24.832,47.047,23.917Z"/><path class="cls-5" d="M103.53,38.231s-3.855-5.812-1.449-7.484,3.733.391,3.733.391.939-3.052,3.612-3.984,3.008,2.7,3.008,2.7-.56-3.425,3.619-2.26.809,5.471.809,5.471l-1.887,1.5s2.808-4.38,5-.093-2.473,6.646-2.473,6.646,2.432,2.756.721,4.028-1.589,6.363-2.813,6.831-9.129,4.233-8.634.466-.861-6.362-.235-6.771-4.29,1.888-4.819.094S103.53,38.231,103.53,38.231Z"/><path class="cls-5" d="M118.439,38.383s1.2-5.042,6.353-4.251S129.4,38.66,129.4,38.66s1.364-3.225,4.8.5-2,5.458-2,5.458,4.663-.107,2.983,5.138-5.462,4.849-5.462,4.849,1.269,3.755-1.2,3.21S121.087,56,122.1,53.167s-7.71-1.14-7.371-4.081S109.984,38.584,118.439,38.383Z"/><path class="cls-5" d="M42.048,46.221s-4.836,5.041-.772,7.378,6.14-2.688,6.14-2.688-3.248,5.278,1.877,6.956,5.416-5.745,5.416-5.745.477,2.614,2.872-.147-.391-6.457-.391-6.457,2.918,2.155,5.233.548,2.941-4.705,1.416-6.637,3.044-4.4,1.423-6.61-11.93,2.9-11.93,2.9S39.8,37.6,39.926,40.355s-5.626-.124-4.292,3.766S42.048,46.221,42.048,46.221Z"/><path class="cls-5" d="M50.633,37.452S50,43.409,46.425,42.868s-2.115-7.434-2.115-7.434l3.335-.95s-7.974-1.583-7.062-4.247,5.777-3.55,6.53-2.713.006-6.716,3.582-4.836A4.742,4.742,0,0,1,53.443,27.9s-.824-6.38,4.663-3.6.5,6.44.5,6.44l-3.594-.956s6.981.776,4.614,5.431-6.438,7.279-6.453,5.258a29.905,29.905,0,0,0-1.408-6.222Z"/><path class="cls-11" d="M53.11,28.6s-5.271.986-4.945,4.607,4.571,1.07,5.276-.033S54.949,28.018,53.11,28.6Z"/><path class="cls-5" d="M89.35,42.751s1.432,5.953,4.5,4.452,3.692-3.231,3.692-3.231-.735,4.291,2.055,4.548,3.476-1.132,4.587-1.806a4.855,4.855,0,0,0,1.908-2.7,27.647,27.647,0,0,1,1.28-3.1s2.642-2.982-2.081-4.768a33.318,33.318,0,0,0-5.859-1.906s1.384-3.75-.847-4.127S94.916,27.8,93.4,30.034s-2.811,1.861-3.057,3.247S87.6,37.993,87.6,37.993Z"/><path class="cls-5" d="M115.878,52.522s.677-3.1-3.239-2.211-1.511,4.093-1.511,4.093-4.781-1.6-4.26,1.995.409,5.424,1.237,5.21,4.669-2.052,4.669-2.052-8.439,1.834-5.132,6.482,6.124,4.129,6.52,2.967,1.81-4.29,1.548-4.535-1.44,4.559,2.239,5.1.81-7.742.81-7.742,1.088,5.633,4.355,3.155a5.857,5.857,0,0,0,2.155-6.155l-4.686-.991s5.8-2.769,2.438-6.332-5.406-.5-5.406-.5Z"/><path class="cls-11" d="M118.593,54.985s-6.029-2.4-6.15.778,3.151,3.867,4.954,3.391S118.593,54.985,118.593,54.985Z"/><path class="cls-11" d="M128.869,43.761s-2.168-3.378-3.529-.054-2,3.224,1.048,4.419S128.869,43.761,128.869,43.761Z"/><path class="cls-11" d="M107.859,36.167s3.424.391,3.825,2.269-1.1,4.468-1.554,3.824S107.859,36.167,107.859,36.167Z"/><path class="cls-11" d="M47.99,44.224a2.749,2.749,0,0,0,3.252,2.031c2.675-.437,3.861-2.642,3.69-3.288s-1.855-2.494-3.175-2.035S47.012,42.7,47.99,44.224Z"/><path class="cls-5" d="M89.76,33.57s-.413-10.618,3.227-9.431-1.454,9.616-1.454,9.616,6.736-7.852,8.929-3.971S93.68,35.5,93.68,35.5s8.065-.5,7.757,2.694-7.42-.776-7.42-.776Z"/><path class="cls-5" d="M110.646,42.889s6.79-8.173,8.7-4.857-7.509,6.18-7.509,6.18,10.259-1.338,9.3,3.015-8.868-.279-8.868-.279,6.333,5.019,3.97,7.188-5-5.537-5-5.537Z"/><path class="cls-5" d="M99.717,41.368c.378.395-3.845-8.722-7.207-5.332s3.753,6.121,3.753,6.121-6.283.01-5.8,3.006,6.55.944,6.55.944S91.59,50.062,94.9,50.9s5.121-2.616,5.121-2.616.607,6.729,2.9,3.864-.172-4.335-.172-4.335,7.922,5.111,8,1.008-6.289-3.488-6.289-3.488,5.489-1.063,4.019-4.864-4.149,1.613-4.149,1.613l-4.469-.183"/><path class="cls-11" d="M104.084,43.182s-4.216-3.785-5.33-1.943,2.357,4.182,3.044,4.234S105.918,45.284,104.084,43.182Z"/><path class="cls-5" d="M69.109,31.5s-5.589-5.31-2.785-6.171,6.7,5.288,6.7,5.288-.361-9.636,3.23-7.153,1.139,6.175,1.139,6.175,6.291-6.553,8.267-2.886-3.33,4.906-3.33,4.906,9.025-.843,9.174,2.655-8.273,2.668-8.792,1.918,8.742,7.579,3.651,8.438-6.913-4.584-6.913-4.584-.682,9.328-4.6,7.644-1.165-10.976-1.165-10.976-2.987,7.842-7.078,7.223c-4.779-.723-4.34-4.186-4.528-5.717-.279-2.272,6.507-3.253,6.507-3.253s-11.706-2.681-7.172-4.987A6.356,6.356,0,0,1,69.109,31.5Z"/><path class="cls-11" d="M79.5,33.088s-8.232-3.444-8.934-.128,5.672,5,6.721,4.72S83.311,35.264,79.5,33.088Z"/></g></svg>