<svg id="word" xmlns="http://www.w3.org/2000/svg" xmlns:xlink="http://www.w3.org/1999/xlink" viewBox="0 0 160 160"><defs><style>.cls-1,.cls-6{fill:none;}.cls-2{clip-path:url(#clip-path);}.cls-3{fill:url(#linear-gradient);}.cls-4{fill:url(#linear-gradient-2);}.cls-5{fill:#f4f2b1;}.cls-6{stroke:#6d6e70;stroke-width:0.717px;}.cls-7,.cls-8{fill:#efd2b7;}.cls-7,.cls-9{stroke:#9d4b9c;stroke-width:0.512px;}.cls-9{fill:#d9e480;}.cls-10{fill:#009345;}</style><clipPath id="clip-path"><rect class="cls-1" x="14" y="14" width="132" height="132"/></clipPath><linearGradient id="linear-gradient" x1="-19.705" y1="72.779" x2="147.507" y2="72.779" gradientUnits="userSpaceOnUse"><stop offset="0" stop-color="#7db1d2"/><stop offset="0.976" stop-color="#bee7fa"/></linearGradient><linearGradient id="linear-gradient-2" x1="12.877" y1="72.735" x2="186.032" y2="72.735" gradientUnits="userSpaceOnUse"><stop offset="0" stop-color="#a38c78"/><stop offset="0.952" stop-color="#eaddd3"/></linearGradient></defs><g class="cls-2"><polygon class="cls-3" points="-19.705 148.519 -19.269 -2.961 147.507 -2.961 147.507 90.554 48.515 147.125 -19.705 148.519"/><path class="cls-4" d="M186.032,148.519V-3.048H144.643a8.268,8.268,0,0,1-1.841.756c-.976.253-.793.694-.61,1.072a15.364,15.364,0,0,1,0,2.9c0,.379-.976.316-1.708.316a2.738,2.738,0,0,1-1.913-.946c-.45-.5-.405-2.144-.649-2.586s0,0-1.627.252-.508,1.388-.935,2.712,1.1,2.585,1.342,3.153.976,1.072.366,1.324-.724,2.518-.724,2.518L125.79,15.739s-17.446,21.188-22.607,32.539S93.7,88.384,92.493,95.572s-40.516,29.134-44.616,26.486-22.158,12.321-22.158,12.321a3.359,3.359,0,0,1,1.117,2.5c-.183,1.324.488,1.765.366,2.018s-.793.189-1.647.378.366,2.27.183,3.594a4.782,4.782,0,0,0,.3,2.586c.244.883.549,1.639,0,2.27s-.793.315-1.647.189a1.7,1.7,0,0,0-1.342.315s-3.05,0-3.416-.63-.427-.757-.732-.853-.549.285-.671.474-1.952,0-1.952,0-.183-.5-1.342-.945-2.064.945-2.064.945v1.3Z"/><path class="cls-5" d="M50.78,22.018s.274.378.594.378.412-.756.778,0,2.1,1.561,2.1,1.939-.366.9.457,1.419a1.837,1.837,0,0,1,.915,1.135s-.5-.236-.411.568-1.281.8-1.281.8a.461.461,0,0,0-.732,0c-.366.426-1.19,1.419-1.19,1.419s-.824-.9-1.235-.237.091.331-.595,1.183.412.993-.824,1.277-1.647.52-2.2.331-2.1-.237-1.738-.993.64-.19.457-1.7.046-1.561-.229-1.939,1.1-1.041-.549-.993a19.549,19.549,0,0,1-2.79-.1c-.732-.047-.732.757-1.419-.142s-.915-1.419-.686-1.419a8.181,8.181,0,0,1,.961.1c.32.047.5.284,1.144-.331s.045-1.041.64-.615.092.52,1.144.52.549.331,1.144-.284.732-.094.732-1.087-.595-1.135,0-1.23.549.095.869,0,.595.284.824-.236-.229-.71.411-1.136,1.281,0,1.556,0,.549.142.549.284A1.233,1.233,0,0,0,50.78,22.018Z"/><path class="cls-5" d="M61.394,34.126a7.2,7.2,0,0,1-1.464-.852c-.229-.284-2.287-1.182-2.287-.756s-.229.36-.321.747-1.144.719-1.327.861-.137.662,0,.8.183.094.732.378.6.284.87.8-.183-.189.274.52.732,1.088,1.236.9,0-.379.5-.189,1.271.52,1.271.52.376-.142.742-.237a.817.817,0,0,0,.366-1.277A7.041,7.041,0,0,1,61.394,34.126Z"/><path class="cls-5" d="M57.322,37.862l1.7.331s.683.142.409.615a1.325,1.325,0,0,1-1.052.615c-.229,0-1.053-.9-1.419,0a19.361,19.361,0,0,1-1.081,1.939c-.063.189-.108.283-.246.756s-1.052,0-1.052,0L53.891,43.3a.491.491,0,0,1-.549.473c-.549,0-.915,0-1.1.473a10.9,10.9,0,0,1-.595,1.182s-1.235-.189-1.418.284-.275.9-1.053.709a19.369,19.369,0,0,0-2.882-.189,1.07,1.07,0,0,0-.641.52c-.228.426-1.143.331-1.418.426a7.877,7.877,0,0,0-1.647,1.088c-.046.142,0,1.419,0,2.033a23.714,23.714,0,0,1-.823,2.838,1.582,1.582,0,0,1-.6,1.324c-.641.568-1.373,1.514-1.785,1.088s-1.281-.662-.411-1.04.64-.8.686-1.75-.641-.946.091-1.325.366-.52.732-.378.458,1.372.824.047a5.612,5.612,0,0,0,.229-2.175s-.458-.331-.824-.615-.686.189-1.052-.946-.183-1.608-.732-1.608a13.022,13.022,0,0,1-2.2-.52s-1.373-.71-.229-.9,1.464-1.371,1.739-1.513.64-.615.274-.8-.412-2.318-.64-2.46,0-1.087.549-1.135.915-.567.915.142-.275,1.7.274,1.372a10.418,10.418,0,0,0,.915-.615s.092-1.135.458-.946a9.312,9.312,0,0,0,1.052.426c.137.047-.091.331.641-.946s.32-1.845.96-1.845,2.791.361,2.974-.292-.183-2.356.732-1.647,2.334,1.845,2.334,1.845l1.143-.79s.778-1.205,1.236-1.224a1.732,1.732,0,0,1,1.372.264c.458.378-.594-.9.458.378a11.174,11.174,0,0,0,1.738,1.8C56,36.679,57.322,37.862,57.322,37.862Z"/><path class="cls-6" d="M137.478,109.66a1.276,1.276,0,0,1,1.226.61c.316.694.133.316.316,1.135a2.424,2.424,0,0,0,2.135,1.325c.305-.189.183-.505.671-.883s-.549-.252.488-.379a15.361,15.361,0,0,0,1.586-.259h.743s1.03.441,2.171.883,3.567,1.928,4.709.669,3.71-2.236,4.28-1.3,1.427.784,2.283,1.079a38.668,38.668,0,0,0,3.995.721s1.284.722,1.713,0,2-1.23,2.568-1.639-.571-1.347,1.855-.878,4.423.878,4.423.878a1.138,1.138,0,0,1,1.427-.878c1.141.321,7.847,0,7.847,0l3.847-1.083"/><path class="cls-5" d="M130.7,22.928a3.872,3.872,0,0,0,1.007-2.648,2.933,2.933,0,0,1,1.189-2.46,1.677,1.677,0,0,0,.458-1.7c-.275-.662-1-1.514.1-1.419a6.709,6.709,0,0,0,1.917-.007,2.464,2.464,0,0,0,1.922-1.033,5.381,5.381,0,0,0,1.281-2.176c.366-1.135-.092-1.135-.732-1.8s-1.373-1.608-1.373-1.608a12.122,12.122,0,0,0-1.765.851,7.324,7.324,0,0,1-2.17,1.135c-.457,0-.274-.946-1.83-.567a14.228,14.228,0,0,1-2.653.473c-.275,0-.183-1.23-1.464-1.23s-5.765,1.135-7.5.567-5.124-3.972-5.948-3.689-.274,1.987-1.555,1.23-2.745-.095-3.294-.851-.641-1.419-1.373-1.608a8.014,8.014,0,0,0-2.2,0l-1.006-.662h-1.648v.851l-1.281-.851s-1.83,1.418-2.013.473-.64-1.136-.732,0-1.464.378-1.83.094.183,1.23-.732,2.081.641.851-.915.851-.457-.283-2.287-.283-1.373-.095-1.831,0-1.464.756-2.1.756H85.776S84.769,6.28,84.129,6.564s0,1.7-.641,2.176-.823.284-2.013.189-2.562.189-3.2,0-2.836.189-2.836.662-.366,2.743-.824,2.743-2.1-1.04-2.1-.378.915,1.892,0,2.081a17.748,17.748,0,0,1-2.745.284c-.458,0-3.112-.19-3.112.283s-.274,1.135-.64,1.135-3.294-1.418-3.569.473,1.647,3.027.458,3.689-1.281.473-1.281,1.136-.824.567-.549,1.324,1.738,1.04,1.464,1.7a4.315,4.315,0,0,0-.092,2.838c.366.662-.457,1.892.915,2.27s1.1.568,2.2.568,2.013-.662,1.464,0-3.2.756-3.2.756a18.161,18.161,0,0,0-.275,2.649c0,1.135,2.288,3.5,2.288,3.5v1.04c0,.946-.092,5.581,1.189,5.581s1.281-1.04,2.379,0a12.248,12.248,0,0,1,1.556,1.608c.641.757.458,1.514,1.464,1.514s1.19-.473,1.19-.473.732.189.732-.284a5.779,5.779,0,0,1,.457-1.8c.275-.757.641-1.8,1.281-1.892a2.533,2.533,0,0,1,1.647.094c.915.284,3.02.473,2.654,1.23s-2.1.757-2.1,1.324.783,1.041.621,1.8.437,2.27,0,2.837a24.318,24.318,0,0,0-1.17,4.351,6.845,6.845,0,0,0-.732,2.271,2.616,2.616,0,0,1-.823,1.608,1.23,1.23,0,0,0,.915,0,5.145,5.145,0,0,0,2.562-2.081c.457-1.041-.641-1.514.457-1.041s2.2,1.041,2.38.568.457-.946.823-.946h2.379c.275,0-.457-.095.641-1.041s.549-.567,1.1-.946A4.677,4.677,0,0,1,88.7,51.4l1.189.189s.275,1.513,1.281,1.608-.64-1.986,1.007-1.135,2.246.757,2.587,1.513a2.631,2.631,0,0,0,1.073,1.135l2.2,1.419a6.594,6.594,0,0,1,1.007.095c.549.1.366.546,1.921,1.314s2.563-.652,2.563.767.183,2.365.64,2.459,2.2-.094,1.83.946.641,3.311,1.007,3.311.915-.189.823.567.458.473,1.281.946,2.2-.284,2.2.662-.549,1.23.732.662,1.281-1.04,1.922-1.04,2.654,1.135,2.654-.284-.641-1.892.183-1.892a2.8,2.8,0,0,1,2.287,1.041c.366.662.732,1.324,1.739,1.419s1.647.284,2.013.284,2.562-.379,2.562-.379-.091-1.229-.091-1.986-.732-1.514.091-2.176a3.624,3.624,0,0,1,2.013-.662s-.823-2.459-.274-2.838a19.625,19.625,0,0,1,4.392-1.04c.457,0,2.1.567,1.738-1.041a2.505,2.505,0,0,0-1.83-2.081c-.274,0,.092-1.418-1.1-1.891a3.729,3.729,0,0,1-1.738-1.419,23.014,23.014,0,0,1-1.007-3.311c-.457-1.986-1.006-3.027-.457-4.256a6.836,6.836,0,0,0,.091-4.068c-.274-1.324-1.1-8.891-1.555-9.837s-1.1-1.7-.183-2.27,3.568-2.933,3.568-2.933Z"/><path class="cls-7" d="M34.309,141.039s-.069-.1-.169-.244C33.931,140.776,34.309,141.039,34.309,141.039Z"/><path class="cls-8" d="M25.708,128.27s.274,4.54.183,5.013-.733,1.23.457,1.324S29,134.324,29,135.648a4.707,4.707,0,0,0,.823,2.648c.366.663.366,1.135,1.281,1.041s1.739-.638,2.1.012c.257.457.691,1.1.929,1.446a3.3,3.3,0,0,1,.718.244c1.373.568.641,0,1.373.568l.732.568s1.281-.379,1.647,0a3.565,3.565,0,0,1,.823,1.8c0,.473.915.946,2.2,0s1.647-1.8,2.654-1.041a19.06,19.06,0,0,1,1.83,1.587s.823-.735,1.1-.925.915-1.418,1.19-.567-.092,3.31,1.006,3.5c.913.157,2.381,1.678,2.855,2.516H100.24c1.131-.761,1.2-2.6,2.24-2.327,1.1.284,1.921,1.04,2.287.378s3.2-1.513,2.654-3.027-.732-2.932.64-2.932,3.111-.378,3.752-.378,3.111-.852,3.02-1.135-1.368-1.325,0-1.7,2.285-.946,1.736-1.513-.549-.852-1.372-1.041-.092-1.135-1.922-.567l-1.83.567a9.818,9.818,0,0,1,.366-1.513,11.005,11.005,0,0,0-.549-4.635c-.458-1.419,1.592.723,1.647-1.8l.055-2.521-.421.156c-.457.094-2.013.851-2.837-.757s-2.653-1.513-2.928-2.932-1.83-2.14-2.47-3.293.274-1.91-1.007-2.666-2.105-1.041-2.562-1.419-3.2-1.324-2.837-1.987.391-1.229-.033-1.229-2.986-1.23-3.993-1.041a16.089,16.089,0,0,1-2.836.095s1.464-.568,0-.662-2.563-.473-2.654-1.23-2.013-1.324-2.013-2.459-.092-2.743-.458-3.027-.091-1.608-1.372-.568a6.422,6.422,0,0,1-3.477,1.041s-1.464.757-1.556,1.608.824.378,0,1.229-.641.946-1.281.852-.092-.852-1.83-.852a3.081,3.081,0,0,0-2.2.568c-.732.284-2.562.284-2.928-.662s-.275-1.324-2.105-1.419-1.281.378-1.83-.095-1.83-.094-1.83-.094a2.068,2.068,0,0,1-2.288.662c-1.281-.568-2.562-2.081-3.2-1.986a6.151,6.151,0,0,0-2.288,1.7c-.274.379-2.379,2.176-2.654.757s.183-2.838-.64-2.743-1.19.851-2.1,1.135a9.39,9.39,0,0,1-2.745.1,21.345,21.345,0,0,0-3.66-1.609c-.824-.094-2.471.568-3.752.19l-1.281-.379a14.615,14.615,0,0,0-2.1.946c-1.007.568-1.464,1.419-2.013,1.23s-1.007-.851-1.648.094,0,.946-.64.946-1.556-.283-2.1,0,.183-.567-.549.284,0,0-1.372,1.23a8.59,8.59,0,0,1-2.379,1.608.714.714,0,0,0-1.1.567c-.183,1.041.457.284-.458,2.081s-.274,1.8-.915,1.8H24.244s-.092-.379-.458,0l-.183.756s.183,6.149,0,7.094a4.926,4.926,0,0,0,.641,2.933A40.842,40.842,0,0,1,25.708,128.27Z"/><path class="cls-9" d="M125.264,66.976l3.294,1.142s-2.1,2.074-1.189,2.357,1.189.757,2.1,1.325a5.337,5.337,0,0,1,2.379,1.986c.641,1.135,1.739.095,1.281,1.987a7.848,7.848,0,0,1-.823,2.459c-.275.567,0,1.324-.275,1.7a4.332,4.332,0,0,0-1.006,2.176,7.973,7.973,0,0,1-.092,2.554c-.274.851-2.545,3.878-1.226,3.973s1.775-.946,2.69-.662,1.1,1.513,1.556,1.513.824.189.732.851-.732.852-.366,1.7a8.441,8.441,0,0,0,.824,1.986c.64,1.041-.275,3.5,1.1,3.216s2.013-.567,1.464.473.026,2.365.2,3.027.979,1.8.666,2.46-.236.851,0,1.7a3.545,3.545,0,0,1,.071,1.608,17.058,17.058,0,0,1-.567,1.8c0,.284.732.473-.275,1.135s-1.921,2.081-2.2,2.176-.732,1.135-1.464,1.8-.743-.378-1.7.662-1.595,2.271-1.961,2.46-1.83.225-1.83,1.531.183,3.1-.275,3.2a24.784,24.784,0,0,0-2.836,0c-1.83.189-1.281,1.608-2.2-.378s-1.831-1.324-1.831-1.324l-2.1.094s-.092.095-.824.946-1.1.946-1.1,1.8,1.19.757,0,1.135a9.25,9.25,0,0,1-2.2.568,14.494,14.494,0,0,0-2.745.946c-.457.094-2.013.851-2.837-.757s-2.653-1.513-2.928-2.932-1.83-2.14-2.47-3.293.274-1.91-1.007-2.666-2.1-1.041-2.562-1.419-3.2-1.324-2.837-1.987.391-1.229-.033-1.229-2.986-1.23-3.993-1.041a16.089,16.089,0,0,1-2.836.095s1.464-.568,0-.662-2.563-.473-2.654-1.23-2.013-1.324-2.013-2.459-.092-2.743-.458-3.027-.091-1.608-1.372-.568a6.422,6.422,0,0,1-3.477,1.041s-1.464.757-1.556,1.608.824.378,0,1.229-.641.946-1.281.852-.092-.852-1.83-.852a3.081,3.081,0,0,0-2.2.568c-.732.284-2.562.284-2.928-.662s-.275-1.324-2.105-1.419-1.281.378-1.83-.095-1.83-.094-1.83-.094a2.067,2.067,0,0,1-2.288.662c-1.281-.568-2.562-2.081-3.2-1.986a6.151,6.151,0,0,0-2.288,1.7c-.274.379-2.379,2.176-2.654.757s.183-2.838-.64-2.743-1.19.851-2.1,1.135a9.39,9.39,0,0,1-2.745.1,21.345,21.345,0,0,0-3.66-1.609c-.824-.094-2.471.568-3.752.19l-1.281-.379a14.615,14.615,0,0,0-2.1.946c-1.007.568-1.464,1.419-2.013,1.23s-1.007-.851-1.647.094,0,.946-.641.946-1.556-.283-2.1,0,.183-.567-.549.284,0,0-1.372,1.23a8.59,8.59,0,0,1-2.379,1.608.714.714,0,0,0-1.1.567c-.183,1.041.457.284-.458,2.081s-.274,1.8-.915,1.8H24.244s-.092-.379-.458,0-.915,0-1.281-2.176-1.464-4.446-.641-6.905.732-1.608.732-4.446.824-3.31.824-3.31V94.5c0-.662-1.19-4.067,0-4.824A31.064,31.064,0,0,0,28.453,84.1c.457-.851.457-7.378.457-7.945a4.628,4.628,0,0,1,1.556-2.838c1.189-1.23,2.836-6.243,3.934-6.81s1.831-.189,2.563-.568,7.091-3.121,8.464-3.973,3.411-1.715,2.928-.331a5.411,5.411,0,0,0,.549,3.926,3.139,3.139,0,0,0,1.6,1.8c1.19.568.732,1.23,1.83,2.081a6.561,6.561,0,0,0,3.111,1.608c1.007.095,1.464-.189,1.464,1.419s.275,1.986.275,3.121,1.1,4.541,2.1,5.3.64.946.915,1.325-1.556-.524,1.281.4,2.47,1.3,2.47,1.681,3.752.567,4.027.283a20.625,20.625,0,0,0,2.2-1.324c1.189-.946,1.006-.284,2.379-1.324s2.47-2.838,3.111-3.216,2.287,1.135,1.83-2.365-1.19-5.85-1.19-8.222,1.464-3.98.549-4.737a2.959,2.959,0,0,1-.823-2.459v-3.5a1.23,1.23,0,0,0,.915,0,5.13,5.13,0,0,0,2.562-2.081c.458-1.04-.641-1.513.458-1.04s2.2,1.04,2.379.567.457-.946.823-.946h2.379c.275,0-.457-.094.641-1.04s.549-.568,1.1-.946a4.7,4.7,0,0,1,1.281-.568l1.189.19s.275,1.513,1.282,1.608-.641-1.987,1.006-1.136,2.246.757,2.587,1.514a2.631,2.631,0,0,0,1.073,1.135L97.9,56.1a6.663,6.663,0,0,1,1.007.094c.549.095.366.547,1.921,1.314s2.563-.651,2.563.767.183,2.365.64,2.46,2.2-.095,1.83.946.641,3.31,1.007,3.31.915-.189.823.568.458.473,1.281.946,2.2-.284,2.2.662-.549,1.229.733.662,1.281-1.041,1.921-1.041,2.654,1.136,2.654-.283-.641-1.892.183-1.892a2.8,2.8,0,0,1,2.287,1.04c.366.663.732,1.325,1.739,1.419s1.647.284,2.013.284,2.562-.378,2.562-.378"/><path class="cls-10" d="M52.6,85.478c.263,0,.479.341.544.6.132,3.857.116,7.766.447,11.64a8.376,8.376,0,0,1,1.981-.359c.3,0,.561.086.561.427a.448.448,0,0,1-.331.5c-.56.2-1.3.171-1.882.342a2.939,2.939,0,0,1-.71.221.626.626,0,0,1-.511-.46c-.2-2.049-.115-4.25-.215-6.264L52.269,87.9V85.734C52.353,85.546,52.451,85.478,52.6,85.478Z"/><path class="cls-10" d="M61.585,86.536c.1-1.57,1.091-1.161,1.372,0,.412,1.707.725,3.26,2.526,12.3,0,.375-.5.666-.794.12L64.1,95.889l-2.229.341c-.131.8-.247,2.321-.281,3.038-.032.409-.742.307-.726,0Zm.315,7.953c-.016.119-.034.785-.034.922L63.93,95.1l-1.617-7.595C62.247,88.55,61.95,93.431,61.9,94.489Z"/><path class="cls-10" d="M70.737,91.366c0-1.314-.017-4.625-.033-4.643l-1.32-.05c-.529-.154-.728-.683.082-.888,1.288.034,2.542,0,3.879.1.744.068.694.921.216.921l-1.8-.034c-.016.017-.082,5.427-.115,7.629,0,.7-.066,2.014-.066,2.833v.221c-.132.513-.809.359-.925-.119C70.672,96.127,70.737,92.6,70.737,91.366Z"/><path class="cls-10" d="M78.9,86.434l-.018-.1c0-.256.315-.341.529-.358.512,0,.562.375.661.887.461,2.543,1.023,5.36,1.964,9.506L83.7,86.673a.574.574,0,0,1,.512-.444c.265,0,.512.1.529.444l-1.849,9.779c-.083.273-.446,2.491-.759,2.491a.057.057,0,0,0-.05.018c-.166-.034-.331,0-.429-.239C80.681,94.642,79.988,90.5,78.9,86.434Z"/><path class="cls-10" d="M90.593,86.5l.726,10.41a8.55,8.55,0,0,1,.083.9c-.017.273-.281.375-.562.375-.363,0-.428-.324-.478-.648l-.413-7.492c-.082-1.229-.263-2.458-.231-3.686C89.734,85.939,90.559,86.093,90.593,86.5Z"/><path class="cls-10" d="M96.837,97.458c.3.035.495.359.826.359.446,0,.743-.819.809-1.16a48.321,48.321,0,0,0,.644-8.449,21.664,21.664,0,0,1,.1-2.3c.05-.238.05-.477.315-.477.281.034.66.153.66.546-.347,3.4-.231,7.048-.611,9.745-.165,1.246-.412,2.97-1.866,2.97a1.076,1.076,0,0,1-.231-.018c-.446-.05-1.106-.255-1.106-.819v-.1C96.409,97.493,96.64,97.442,96.837,97.458Z"/><path class="cls-10" d="M105.311,86.536c.1-1.57,1.09-1.161,1.371,0,.412,1.707.726,3.26,2.526,12.3,0,.375-.5.666-.793.12l-.6-3.072-2.228.341c-.132.8-.248,2.321-.281,3.038-.033.409-.742.307-.726,0Zm.314,7.953c-.016.119-.033.785-.033.922l2.063-.307-1.617-7.595C105.972,88.55,105.675,93.431,105.625,94.489Z"/></g></svg>