<svg id="word" xmlns="http://www.w3.org/2000/svg" viewBox="0 0 160 160"><defs><style>.cls-1{fill:#e5e3d8;}.cls-1,.cls-2,.cls-3,.cls-4,.cls-5{stroke:#9d4b9c;stroke-width:0.75px;}.cls-2{fill:#f4e9e3;}.cls-3{fill:#d0cfc6;}.cls-4{fill:none;}.cls-5{fill:#aeaea7;}</style></defs><path class="cls-1" d="M33.652,96.67s6.75,4.056,7.924,7.936,4.255,15.7,13.207,16.225,29.055-6.878,36.685-8.818,27.441-4.056,30.23-7.936,6.75-12.169,8.657-15.873,5.723-10.4,5.723-10.4S83.985,91.555,73.859,93.848,33.652,96.67,33.652,96.67Z"/><path class="cls-2" d="M44.511,73.743s-.212.044-.593.129c-3.984.905-27.772,7.68-21.076,18.624,7.337,11.993,21.669,8.935,31.941,7.525s58.844-14.639,64.126-15.7,24.947-2.469,24.213-12.169-16.142-11.816-31.55-10.229S44.511,73.743,44.511,73.743Z"/><path class="cls-3" d="M38.494,80.092s-12.473,4.527-5.283,9.818,22.452,5.172,36.833,2.88,52.241-12.875,54.3-13.58S141.8,71.1,129.328,66.864s-50.107,2.674-61.779,4.762C46.859,75.33,38.494,80.092,38.494,80.092Z"/><ellipse class="cls-4" cx="82.077" cy="73.831" rx="2.788" ry="3.086"/><ellipse class="cls-5" cx="82.224" cy="73.743" rx="1.174" ry="1.94"/><path class="cls-3" d="M58.9,123.357a3.954,3.954,0,0,0-1.9-1.864,9.334,9.334,0,0,0-2.686-.773c-1.567-.193-2.687-1.864-1.511-2.057a2.271,2.271,0,0,1,1.735.256s-.388-1.439,1.4-1.992a2.435,2.435,0,0,1,2.966,1.092s-.616-3.088,2.407-2.186c1.575.468.168,1.929.168,1.929s1.791-1.8,3.358-.258-1.343,1.994-1.343,1.994a24.344,24.344,0,0,0-.392,4.439c.168,1.092.842,6.951-1.232,5.85C60.41,129.016,58.9,123.357,58.9,123.357Z"/><path class="cls-3" d="M116.046,109.682a4.471,4.471,0,0,1,1.591-2.32,10.279,10.279,0,0,1,2.555-1.414c1.532-.568,2.373-2.5,1.168-2.417a6.4,6.4,0,0,0-2.479.892s1.093-2.286-.782-2.413c-2.175-.146-2.938,2.34-2.938,2.34s.1-3.23-2.765-1.607c-1.5.845.151,1.966.151,1.966s-2.086-1.369-3.4.547,1.673,1.67,1.673,1.67a23.9,23.9,0,0,1,1.127,4.338c.014,1.132.311,7.145,2.2,5.55C115.475,115.7,116.046,109.682,116.046,109.682Z"/></svg>