<svg id="word" xmlns="http://www.w3.org/2000/svg" viewBox="0 0 160 160"><defs><style>.cls-1{fill:#fdeae0;}.cls-1,.cls-10,.cls-2,.cls-3,.cls-4,.cls-5,.cls-7,.cls-8{stroke:#9d4b9c;stroke-miterlimit:10;stroke-width:0.43px;}.cls-2{fill:#cc6ba9;}.cls-3{fill:#fde6d8;}.cls-4{fill:#00456b;}.cls-5{fill:#fff;}.cls-6{fill:#9d4b9c;}.cls-10,.cls-7{fill:none;}.cls-7{stroke-linecap:round;}.cls-8{fill:#f7d8d5;}.cls-9{fill:#ed4f9b;}</style></defs><path class="cls-1" d="M61.654,68.652s-1.838,2.637-3.082,3.1-3.323,1.347-4.149,1.75a3.849,3.849,0,0,0-1.552,1.064,3.042,3.042,0,0,0-.16,1.019,2.959,2.959,0,0,1-.136.9,1.714,1.714,0,0,0-.078.773,1.434,1.434,0,0,0-.389,1.082c.049.664.991,1.787,1.643,1.631s-.578-1.49-.075-2,.149-.721,1.374-1.241,1.864-1.02,1.759-.557-1.893,2.322-1.866,2.659.271,1.519.9.89,1.236-1.96,1.978-1.993a2.393,2.393,0,0,0,2.2-1.568c.458-1.176.2-1.706,1.447-2.958s4.351-2.832,5.282-3.51,3.159-1.85,3.159-1.85l-3.631-4.273Z"/><path class="cls-2" d="M72.905,37.558s-4.167,4.707-4.69,10.068-2.092,14.252-2.615,15.3-4.184,5.753-4.184,5.753l2.915,5.757a16.569,16.569,0,0,1,4.93-5.5c3.269-2.231,5.433-9.152,5.07-10.329s1.853-22.67,1.853-22.67Z"/><path class="cls-3" d="M77.808,25.808a30.638,30.638,0,0,1,.947,5.375,6.431,6.431,0,0,1-1.214,2.583s5.758,2,7.509,1.2a3.46,3.46,0,0,0,2-2.933c0-.365-1.038-6.534-1.038-6.534Z"/><path class="cls-1" d="M69.527,119.8s4.626,14.325,5.019,15.894,1.514,6.464.207,8.033l-4.446,5.034s-1.046.915-.131,1.177,8.826-3.726,9.218-3.923,3.138-2.484,3.138-2.484-.85-.261-.98-1.9.261-12.356.2-15.036a46.574,46.574,0,0,1,.784-7.257l-13-.261Z"/><path class="cls-1" d="M84.559,120.062s5.164,15.624,5.949,17.193a18.633,18.633,0,0,1,1.438,6.015c0,1.242.2,4.249,1.046,4.9s4.054,2.092,5.034.85,1.308-3.857.85-4.707-1.307-2.681-1.7-3.334-.457-11.964-.85-14.841-.784-8.237-.784-8.237Z"/><path class="cls-2" d="M74.1,37.166s.523,5.361,0,7.322-2.615,7.322-.654,9.676a4.151,4.151,0,0,1,.886,4.445,15.538,15.538,0,0,1-.707,5.23c-.833,2.092-6.193,16.475-9.593,26.281s-4.184,26.934-4.184,26.934,10.983,3.923,18.7,3.923a92.077,92.077,0,0,0,19.09-2.223,65.312,65.312,0,0,0,8.76-2.746s-5.753-36.74-7.191-41.055-4.838-13.075-5.1-14.644S94.5,54.687,95.15,52.2s-.523-7.583-.523-8.5V35.074l-5.492-1.308s-2.615,3.4-6.014,3.269a5.25,5.25,0,0,1-4.577-2.484Z"/><path class="cls-4" d="M70.714,148.3a23.966,23.966,0,0,1-2.957,1.211c-1.372.426-2.811,1.407,0,2.126a9.668,9.668,0,0,0,7.061-.654c1.83-.981,4.445-2.683,4.445-2.683s.458.262.458,1.211v2.126l1.438-.066a36.584,36.584,0,0,0,1.373-4.249c.131-.981,1.177-2.223.589-3.007s-1.324-1.608-1.324-1.608-.834,2.131-2.534,2.458-5.5,2.484-5.949,3.2S69.943,149.933,70.714,148.3Z"/><path class="cls-4" d="M91.819,146.277s.127,2.351.977,3.235,3.661,2.649,5.1,2.06a3.994,3.994,0,0,0,2.419-3.2c.131-1.242-1.438-4.053-1.438-4.053s.392,3.255-1.9,3.687-4.806-1.928-4.806-1.928Z"/><path class="cls-2" d="M78.461,31.6s-4.268.457-4.011,4.474c.151,2.373,1.848,4.97,3.85,5.6s6.493.751,8.439-1,6.055-6.266,6.055-6.266l-5.749-3.079s-2.53,3.084-5.491,2.588C80.443,33.727,78.461,31.6,78.461,31.6Z"/><path class="cls-3" d="M76.716,10.7s-3.249,10.244-1.967,13.982,5.178,7.112,7.272,7.58,6.2-2.739,7.624-5.075,3.562-10.435,2.137-15.418S76.716,10.7,76.716,10.7Z"/><ellipse class="cls-5" cx="76.946" cy="19.822" rx="1.8" ry="1.23" transform="translate(45.317 92.713) rotate(-80.989)"/><ellipse class="cls-6" cx="76.411" cy="20.464" rx="0.991" ry="0.677" transform="translate(44.232 92.727) rotate(-80.989)"/><ellipse class="cls-5" cx="84.997" cy="20.635" rx="1.8" ry="1.23" transform="translate(51.303 101.35) rotate(-80.989)"/><ellipse class="cls-6" cx="84.462" cy="21.203" rx="0.991" ry="0.677" transform="translate(50.291 101.302) rotate(-80.989)"/><path class="cls-7" d="M80.12,16.986a14.422,14.422,0,0,1,.592,2.653,4.842,4.842,0,0,1-.419,2.653c-.211.416-.575.467-.777.888a1.025,1.025,0,0,0,.3,1.265c.429.246.793.032,1.245.234"/><path class="cls-8" d="M78.49,12.351s1.075-3.083,2.651,0,2.221,4.427,4.943,4.427,3.868,0,3.653,1.028a3.48,3.48,0,0,0,1.075,3.478c1.146.79.215,2.371,0,3.636s-.931,3.636-.931,3.636.286,1.9,4.011,1.265,4.3-2.609,3.725-3.4,3.726-1.66,3.009-4.743-2.507-4.585-4.871-5.771-1.146-2.266-1.791-4.927S90.525,7.45,88.949,6.818s-7.163-1.107-8.668,0A8.037,8.037,0,0,0,77.989,9.9a2.974,2.974,0,0,0-3.8-.395c-2.435,1.264-2.579,4.11-2.006,6.481s.574,2.214.144,2.925-5.66,3.241-3.8,5.455.645,3.478.86,4.5,4.369.791,4.943.554,2.762-.787,2.762-.787a9.355,9.355,0,0,1-2.3-4.747c-.178-2.45-.321-4.98.825-6.719S76.7,12.588,78.49,12.351Z"/><path class="cls-6" d="M78.507,9.9a3.616,3.616,0,0,1,1.826-2,1.7,1.7,0,0,1,1.41.186,3.991,3.991,0,0,1,.984.945,7.424,7.424,0,0,1,1.16,2.384,22.746,22.746,0,0,0,.752,2.459,1.016,1.016,0,0,0,.847.671,2.933,2.933,0,0,0,1.184-.287,18.478,18.478,0,0,0,2.273-1.221,8.593,8.593,0,0,1,1.171-.612,1.427,1.427,0,0,1,.7-.113.7.7,0,0,1,.524.518,6.661,6.661,0,0,1-.126,2.637c-.165.857-.405,1.694-.555,2.54a4.164,4.164,0,0,0-.073,1.265,1.243,1.243,0,0,0,.629.988,6.655,6.655,0,0,0,2.523.313c.433,0,.865-.025,1.3-.016a2.3,2.3,0,0,1,.659.095.762.762,0,0,1,.487.464A2.069,2.069,0,0,1,96.1,22.43a2.194,2.194,0,0,1-.954.893c-.752.446-1.626.645-2.322,1.154a2.783,2.783,0,0,0-.22.228c-.028.1-.114.185-.1.293a.918.918,0,0,0,.193.588,5.154,5.154,0,0,0,.89.936,2.319,2.319,0,0,0,2.379.611,2.331,2.331,0,0,1-2.4-.59,5.209,5.209,0,0,1-.907-.934.968.968,0,0,1-.206-.616c-.016-.115.072-.21.1-.316a2.587,2.587,0,0,1,.227-.241c.709-.529,1.579-.734,2.316-1.183a2.1,2.1,0,0,0,.909-.864,1.982,1.982,0,0,0,.067-1.234c-.141-.413-.635-.47-1.047-.475-.43,0-.864.024-1.3.029s-.871,0-1.306-.028a3.447,3.447,0,0,1-1.3-.277,1.416,1.416,0,0,1-.726-1.105,4.354,4.354,0,0,1,.06-1.321c.145-.864.376-1.7.53-2.549a6.564,6.564,0,0,0,.108-2.518c-.063-.184-.169-.329-.339-.353a1.212,1.212,0,0,0-.564.107,8.583,8.583,0,0,0-1.126.6,18.445,18.445,0,0,1-2.3,1.263,3.185,3.185,0,0,1-1.322.323,1.335,1.335,0,0,1-1.111-.833,22.021,22.021,0,0,1-.8-2.5A7.082,7.082,0,0,0,82.43,9.263a3.658,3.658,0,0,0-.887-.841,1.3,1.3,0,0,0-1.082-.138A3.255,3.255,0,0,0,78.9,10.062Z"/><path class="cls-6" d="M77.585,11.5c-.772-.489-1.9-.8-2.547-.131a2.5,2.5,0,0,0-.582,1.263,3.256,3.256,0,0,0-.015,1.43,6.784,6.784,0,0,0,.548,1.372A2.285,2.285,0,0,1,75.214,17a3.867,3.867,0,0,1-2.065,2.229l-1.321.737c-.409.259-.879.539-1.024.985s.2.9.521,1.261c.35.361.715.707,1.1,1.034l1.17.96a1.866,1.866,0,0,1,.5.583.855.855,0,0,1-.044.753,2.1,2.1,0,0,1-1.037,1.075,1.747,1.747,0,0,1-1.467-.111A1.729,1.729,0,0,0,73,26.587a2.058,2.058,0,0,0,1-1.071.8.8,0,0,0,.032-.7,1.81,1.81,0,0,0-.488-.55l-1.187-.939c-.391-.322-.765-.664-1.125-1.022a1.569,1.569,0,0,1-.579-1.4,2.319,2.319,0,0,1,1.08-1.1l1.31-.761a3.635,3.635,0,0,0,1.913-2.108c.25-.955-.594-1.759-.826-2.793a3.58,3.58,0,0,1-.013-1.572,2.841,2.841,0,0,1,.654-1.456,1.828,1.828,0,0,1,1.549-.509,3.906,3.906,0,0,1,1.5.543Z"/><path class="cls-7" d="M78.789,25.5a5.862,5.862,0,0,0,3.095.9,6.3,6.3,0,0,0,2.536-1.141"/><path class="cls-7" d="M78.907,16.82c.045.035.042-.074-.007-.1a3.449,3.449,0,0,0-2.639-.373"/><path class="cls-7" d="M82.446,16.837A18.938,18.938,0,0,1,85.01,16.7"/><path class="cls-7" d="M79.116,24.507a3.255,3.255,0,0,0-.637,2.213"/><path class="cls-7" d="M83.888,24.421c.942.857.9,1.045,1.122,2.3"/><path class="cls-9" d="M87.768,19.019c-.634-.271-4.507-.772-5.111.007a3.02,3.02,0,0,0-.451,1.214,2.7,2.7,0,0,0-2.488-.42c.077-.552.128-1,.14-1.118l.019-.173-.16-.067c-.634-.272-4.507-.772-5.111.008a5.122,5.122,0,0,0,.264,5.1,1.581,1.581,0,0,0,1.344.788h.059c1.326-.05,2.677-1.645,2.9-2.049a8.015,8.015,0,0,0,.464-1.944,2.209,2.209,0,0,1,2.494.446,5.289,5.289,0,0,0,.788,3.317,1.58,1.58,0,0,0,1.343.788h.059c1.327-.049,2.677-1.645,2.9-2.049a8.616,8.616,0,0,0,.487-2.088c.109-.721.181-1.372.2-1.513l.019-.172Zm-9,3.057a4.172,4.172,0,0,1-2.511,1.809,1.142,1.142,0,0,1-1-.577,4.677,4.677,0,0,1-.285-4.552,2.573,2.573,0,0,1,1.445-.234,13.17,13.17,0,0,1,2.953.313A15.623,15.623,0,0,1,78.767,22.076Zm8.051.556a4.179,4.179,0,0,1-2.512,1.81,1.073,1.073,0,0,1-.995-.577,4.671,4.671,0,0,1-.285-4.552,2.575,2.575,0,0,1,1.446-.235,13.087,13.087,0,0,1,2.952.314A15.678,15.678,0,0,1,86.818,22.632Z"/><polygon class="cls-9" points="89.631 19.822 87.712 20.772 87.712 19.651 89.631 19.291 89.631 19.822"/><path class="cls-10" d="M75.339,33.173a11.788,11.788,0,0,0,2.045,3.5,4.166,4.166,0,0,0,1.621,1.221,5.266,5.266,0,0,0,1.154.256,11.241,11.241,0,0,0,2.416.116A7.218,7.218,0,0,0,88.323,34.4"/><path class="cls-1" d="M103.475,72.342s.2,3.208,1.016,4.255,2.137,2.879,2.632,3.653a3.839,3.839,0,0,1,.772,1.716,3.06,3.06,0,0,1-.393.954,2.951,2.951,0,0,0-.351.835,1.7,1.7,0,0,1-.335.7,1.439,1.439,0,0,1-.231,1.127c-.388.541-1.776,1.01-2.251.537s1.268-.971,1.1-1.666.249-.693-.527-1.775-1.061-1.841-1.212-1.391.408,2.968.21,3.242-1.023,1.156-1.229.294-.035-2.318-.652-2.731a2.4,2.4,0,0,1-1.058-2.482c.221-1.243.713-1.563.3-3.278s-2.242-4.683-2.685-5.747-1.734-3.223-1.734-3.223l5.324-1.76Z"/><path class="cls-2" d="M98.469,39.2s2.814,6.941,3.071,11.863-.574,9.377,0,10.554,2.942,7.175,2.942,7.175a16.574,16.574,0,0,0-3.148,1.181,5.2,5.2,0,0,0-2.4,2.058,14.246,14.246,0,0,1-1.789-5.051c-.575-3.235-3.33-13.559-3.33-13.559s-2.077-14.724,0-17.543C95.678,33.355,98.469,39.2,98.469,39.2Z"/></svg>