<svg id="word" xmlns="http://www.w3.org/2000/svg" viewBox="0 0 160 160"><defs><style>.cls-1,.cls-4{fill:#00a69c;}.cls-1,.cls-10,.cls-11,.cls-12,.cls-13,.cls-14,.cls-15,.cls-16,.cls-17,.cls-18,.cls-19,.cls-2,.cls-4,.cls-5,.cls-6,.cls-7,.cls-8,.cls-9{stroke:#9d4b9c;}.cls-1,.cls-16,.cls-17,.cls-18,.cls-19,.cls-2,.cls-4,.cls-5,.cls-6,.cls-7,.cls-8{stroke-miterlimit:10;}.cls-1,.cls-10,.cls-11,.cls-12,.cls-13,.cls-14,.cls-15,.cls-16,.cls-17,.cls-18,.cls-19,.cls-5,.cls-6,.cls-7,.cls-8,.cls-9{stroke-width:0.417px;}.cls-19,.cls-2{fill:#fdeae0;}.cls-2,.cls-4{stroke-width:0.338px;}.cls-3{fill:#9d4b9c;}.cls-5{fill:#1c1c1c;}.cls-6{fill:#636363;}.cls-7{fill:#214557;}.cls-8{fill:#fde6d8;}.cls-9{fill:#e5e76a;}.cls-10{fill:#26a9e0;}.cls-11{fill:#b44c49;}.cls-12{fill:#1b75bb;}.cls-13{fill:#b7b25f;}.cls-14{fill:#652d90;}.cls-15{fill:#669d66;}.cls-16{fill:#d9dbdc;}.cls-17{fill:#fff;}.cls-18{fill:none;}</style></defs><path class="cls-1" d="M100.061,69.527l-.888-.383a2.827,2.827,0,0,0-1.641-.2s-11.015-13.723-4.308-27.3c1.459-2.953,5.3,3.993,7.508,14.987C101.966,62.773,100.061,69.527,100.061,69.527Z"/><path class="cls-2" d="M95.254,83.523s-1.261,3.338-1.33,3.82-.362,1.085-.706.834a2.688,2.688,0,0,1-.626-.889l1.947-3.237Z"/><path class="cls-2" d="M100.213,71.566s-2.538,8.411-2.856,9.1a26.214,26.214,0,0,1-2.275,3.074c-.519.646-1.062,2.564-1.991,3.277a5.7,5.7,0,0,1-2.638.815,1.434,1.434,0,0,1-.869-.319c-.28-.4.527-.538.427-.523-.382.059-1.045.127-1.14-.075-.365-.781.308-.929.308-.929s-.419.168-.646-.4.18-.607.18-.607-.785.114-.888-.616a1.39,1.39,0,0,1,.453-1.348c.519-.281.873.476.873.476a7.926,7.926,0,0,1,1.615-2.154c.728-.487,2.621-1.826,2.621-1.826s1.623-10.617,1.656-11.262,5.739,1.1,5.739,1.1Z"/><path class="cls-3" d="M88.619,84.805c0,.067.343-.056.558-.125a6.218,6.218,0,0,0,.694-.247,1.147,1.147,0,0,0,.578-.416,1.447,1.447,0,0,0,.374-.632,1.491,1.491,0,0,1-.306.682,1.257,1.257,0,0,1-.565.514,6.337,6.337,0,0,1-.684.335l-.343.155a.507.507,0,0,1-.515,0Z"/><path class="cls-3" d="M90.018,86.91c-.085-.044.029.012.142-.051l.35-.114c.235-.076.469-.152.7-.241a3.079,3.079,0,0,0,1.228-.776,3.159,3.159,0,0,1-1.158.929c-.221.118-.447.221-.673.324l-.339.154a.775.775,0,0,1-.209.073.311.311,0,0,1-.33-.132Z"/><path class="cls-3" d="M89.142,85.926a3.812,3.812,0,0,0,1.436-.353A2.312,2.312,0,0,0,91.6,84.5a2.409,2.409,0,0,1-.937,1.217,4.075,4.075,0,0,1-1.481.542Z"/><path class="cls-4" d="M93.414,75.182a4.569,4.569,0,0,1,3.713-.4,8.573,8.573,0,0,1,2.138,1.072s1.922-8.753,1.787-10.436-2.666-5.105-5.758-2.175c-1.818,1.722-2.124,5.921-2.089,7.728S93.414,75.182,93.414,75.182Z"/><path class="cls-3" d="M92.458,77.918a1.853,1.853,0,0,0,1.4.373,2.441,2.441,0,0,0,1.518-.442,2.539,2.539,0,0,1-1.5.65,2.146,2.146,0,0,1-1.7-.271Z"/><path class="cls-5" d="M99.643,146.911c-1.689-1.126-6.624-2.439-6.624-2.439l-.6-2.064-6.848-.469a11.155,11.155,0,0,0-1.028,2.436,4.589,4.589,0,0,0,.122,2.137,94.678,94.678,0,0,0,16.168,2.84A2.719,2.719,0,0,0,99.643,146.911Z"/><path class="cls-6" d="M84.665,146.512a8.593,8.593,0,0,0,.554,1.516s5.473.845,6.036,1.033a59.637,59.637,0,0,0,7.677,1.271c.938-.094,1.8-.221,1.8-.221a3.377,3.377,0,0,0,.1-.759A94.678,94.678,0,0,1,84.665,146.512Z"/><path class="cls-5" d="M85.4,148.146c-1.689-1.126-6.625-2.44-6.625-2.44l-.6-2.064-6.849-.469a11.121,11.121,0,0,0-1.027,2.436,4.6,4.6,0,0,0,.121,2.137,94.609,94.609,0,0,0,16.169,2.84A2.719,2.719,0,0,0,85.4,148.146Z"/><path class="cls-6" d="M70.422,147.746a8.671,8.671,0,0,0,.555,1.517s5.473.845,6.036,1.032a59.435,59.435,0,0,0,7.677,1.271c.938-.093,1.8-.22,1.8-.22a3.393,3.393,0,0,0,.1-.76A94.609,94.609,0,0,1,70.422,147.746Z"/><path class="cls-7" d="M70.3,84.634s1.126,16.231,1.126,21.766,1.876,12.2.938,18.2-1.313,18.576-1.313,18.576l7.6,1.407s2.627-21.578,3.189-26.362,1.314-27.582,1.314-27.582,1.876,20.076,2.251,21.859,0,27.113,0,27.113l-.073,2.772,7.776,1.373s2.138-21.689,2.284-25.254-.91-33.868-.91-33.868Z"/><path class="cls-8" d="M76.281,30.587s-1.1,6.771-1.617,7.123a12.7,12.7,0,0,1-1.194.7,8.6,8.6,0,0,0,6.858,3.563c1.683-.022,6.7.579,6.7.579a22.234,22.234,0,0,1-.622-2.905c0-.617.55-6.258.55-6.258Z"/><path class="cls-1" d="M74.978,37.086s3.279,3.123,5.361,3.173c5.2.125,6.184-2.22,6.184-2.22s1.978,12.1-1.211,13.305-6.661,2.063-8.162-1.884a96.96,96.96,0,0,1-3.009-11.421Z"/><path class="cls-9" d="M95.454,54.738c.075-2.179.133-3.963.16-4.816.013-.4.022-.848.029-1.326q-5.4-.241-10.807-.079c-.469,1.142-1.035,1.913-1.718,1.964a3.562,3.562,0,0,1-3.09-1.745q-7.165.446-14.262,1.591c.035.892.057,1.75.057,2.517,0,.067,0,.129,0,.2C75.669,51.9,85.629,53.263,95.454,54.738Z"/><path class="cls-10" d="M77.789,44.194c-.047-.117-4.264-5.66-4.319-5.785a10.3,10.3,0,0,0-8.443,5.605c.091,1.318.686,4.965.739,6.313q7.086-1.146,14.262-1.591A20.98,20.98,0,0,1,77.789,44.194Z"/><path class="cls-11" d="M69.346,84.384A2.79,2.79,0,0,1,70,85.6s-.75.563,7.693,1.5A48.7,48.7,0,0,0,94.77,85.416s-.039-1.687-.073-3.963q-12.831.411-25.668.557A4.873,4.873,0,0,0,69.346,84.384Z"/><path class="cls-10" d="M95.643,48.6c.015-1.118.015-2.395.01-3.569-.2-6.047-5.633-6.26-8.851-6.48-.3,1.7-1.455,8.724-1.966,9.97Q90.239,48.358,95.643,48.6Z"/><path class="cls-9" d="M94.717,70.932q-13.2.43-26.4.578c.379,3.821.709,7.165.747,7.621.007.078.011.171.013.271q12.8-.156,25.587-.579C94.634,75.9,94.631,72.73,94.717,70.932Z"/><path class="cls-12" d="M94.664,78.823q-12.79.423-25.587.579c.009.346,0,.808-.019,1.315q12.813-.142,25.621-.556C94.673,79.726,94.668,79.277,94.664,78.823Z"/><path class="cls-13" d="M95.4,56.348c.02-.554.039-1.093.057-1.61-9.825-1.475-19.785-2.834-29.627-1.7a18.155,18.155,0,0,0,.361,3.576A242.882,242.882,0,0,1,95.4,56.348Z"/><path class="cls-13" d="M94.9,68.3q-13.416.453-26.838.612.066.657.131,1.313,13.313-.145,26.621-.583C94.837,69.27,94.866,68.818,94.9,68.3Z"/><path class="cls-14" d="M69.058,80.717c-.013.415-.026.859-.029,1.293q12.837-.142,25.668-.557c-.006-.413-.012-.845-.018-1.292Q81.872,80.572,69.058,80.717Z"/><path class="cls-14" d="M94.77,70.124c.013-.137.026-.3.04-.487q-13.307.434-26.621.583c.043.434.086.865.128,1.29q13.2-.146,26.4-.578C94.732,70.62,94.749,70.345,94.77,70.124Z"/><path class="cls-9" d="M95.2,61.577c.069-1.752.136-3.558.2-5.229a242.882,242.882,0,0,0-29.209.267,8.8,8.8,0,0,0,.906,2.627s.082.818.212,2.121C76.508,60,85.9,60.682,95.2,61.577Z"/><path class="cls-10" d="M95.144,62.994q-13.8.47-27.612.627c.157,1.574.341,3.423.526,5.286Q81.48,68.748,94.9,68.3C94.975,66.905,95.06,65.03,95.144,62.994Z"/><path class="cls-15" d="M95.2,61.577c-9.3-.895-18.694-1.576-27.9-.214.065.647.141,1.412.226,2.258q13.809-.158,27.612-.627Q95.174,62.3,95.2,61.577Z"/><path class="cls-8" d="M72.657,20.975s.712,8.6.818,9.52,4.263,6.253,5.183,6.511a18.083,18.083,0,0,0,6.449-.732c1.52-.594,3.327-5.688,3.529-6.455s1.137-5.586.89-6.44S89.3,16,89.3,16s-8.086-6.74-12.2-5.959-4.851,5.132-4.851,5.132Z"/><path class="cls-16" d="M73.406,13.037s.967-2.334,2.636,0,.7,4.968,5.182,4.667,3.953-2.56,5.71-2.033,2.811,2.033,2.636,2.635.019,6.1.019,6.1l1.21-3.914s-.79-4.667-1.229-6.549S87.2,9.122,84.3,8.671,75.515,8.294,74.461,9.8s-.264,1.355-1.933,1.957S69.98,13.1,69.98,16.416A45.189,45.189,0,0,0,71.035,24.4l1.932,1.581s0-5.119-.263-7.678A13.889,13.889,0,0,1,73.406,13.037Z"/><path class="cls-16" d="M79.258,27.912a29.74,29.74,0,0,1-3.514,1.882c-.79.226-1.23.753,0,.753s.176.451.791.451A5.94,5.94,0,0,0,78.2,31c1.054-.15.615,0,1.054-.15s.088.585,1.318.217a1.516,1.516,0,0,0,1.142-1.524s.614,1.8,1.317,1.628,1.933.194,2.284.012.088-.333,1.054-.333a12.667,12.667,0,0,0,2.284-.3,10.732,10.732,0,0,1-2.9-1.28,11.715,11.715,0,0,0-2.02-1.355Z"/><path class="cls-8" d="M79.653,20.761a53.6,53.6,0,0,1,.571,6.172c-.176.678-.176,1.205.7,1.355a2.242,2.242,0,0,0,1.581-.376"/><ellipse class="cls-17" cx="76.366" cy="23.833" rx="2.192" ry="1.669" transform="translate(34.404 91.944) rotate(-75.696)"/><ellipse class="cls-3" cx="77.133" cy="23.833" rx="1.207" ry="0.919" transform="translate(34.982 92.687) rotate(-75.696)"/><ellipse class="cls-17" cx="84.261" cy="23.531" rx="2.192" ry="1.669" transform="translate(40.641 99.366) rotate(-75.696)"/><ellipse class="cls-3" cx="85.028" cy="23.531" rx="1.207" ry="0.919" transform="translate(41.218 100.109) rotate(-75.696)"/><path class="cls-18" d="M79.138,31.066l.239.6a2.536,2.536,0,0,0,.227.473,2.188,2.188,0,0,0,2.141.747,3.461,3.461,0,0,0,1.985-1.179"/><path class="cls-18" d="M74.523,20.117A4.419,4.419,0,0,1,78.805,19.1"/><path class="cls-18" d="M82.419,18.676a6.113,6.113,0,0,0,1.2.176,5.876,5.876,0,0,1,2.895,1.483"/><path class="cls-8" d="M72.916,22.34s-1.643-.088-1.508,1.191a22.771,22.771,0,0,1,.41,3.419,1.083,1.083,0,0,0,1.1,1.188"/><path class="cls-8" d="M89.567,21.669s1.9-.17,1.648.973a7.665,7.665,0,0,0-.416,2.725c.056,2.545-1.653,1.876-1.653,1.876"/><path class="cls-1" d="M70.477,49.763s-2.419,9.812-4.891,18.17c-.708,2.393-6.755-1.465-6.734-4.841.047-7.222,3.228-20.069,8.9-22.432C73.483,38.274,70.477,49.763,70.477,49.763Z"/><path class="cls-19" d="M75.183,84.9s1.332,4.2,1.633,4.721.48,1.329-.046,1.348a3.32,3.32,0,0,1-1.287-.383l-.59-4.627Z"/><path class="cls-19" d="M70.84,69.516s3.976,10.095,4.192,11a32.436,32.436,0,0,1,.147,4.721c-.009,1.023.933,3.3.578,4.7a7.04,7.04,0,0,1-1.934,2.808,1.766,1.766,0,0,1-1.086.356c-.576-.17.1-.925.013-.833-.324.349-.916.923-1.163.8-.951-.477-.412-1.136-.412-1.136s-.277.483-.93.109-.289-.726-.289-.726a.936.936,0,0,1-1.333.083,1.719,1.719,0,0,1-.592-1.654c.288-.669,1.211-.206,1.211-.206a9.8,9.8,0,0,1-.084-3.324c.334-1.029,1.144-3.776,1.144-3.776S63.751,70.907,63.29,70.257s6.4-3.325,6.4-3.325Z"/><path class="cls-3" d="M69.732,91.221c.055.063.29-.316.445-.548.169-.256.353-.514.507-.768a1.593,1.593,0,0,0,.219-.848,1.8,1.8,0,0,0-.121-.9,1.844,1.844,0,0,1,.225.895A1.764,1.764,0,0,1,70.87,90c-.135.292-.283.555-.424.833l-.214.412a.627.627,0,0,1-.5.393Z"/><path class="cls-3" d="M72.7,92.191c-.117.023.036-.01.1-.157l.253-.379c.169-.253.337-.506.49-.766a3.814,3.814,0,0,0,.6-1.692,3.909,3.909,0,0,1-.412,1.787c-.125.283-.264.556-.405.828l-.21.41a.994.994,0,0,1-.147.23.386.386,0,0,1-.421.125Z"/><path class="cls-3" d="M71.1,91.908a4.72,4.72,0,0,0,1.122-1.44,2.862,2.862,0,0,0,.17-1.82,6.243,6.243,0,0,1,.166.94,1.89,1.89,0,0,1-.143.958,5.01,5.01,0,0,1-1.02,1.657Z"/><path class="cls-1" d="M72.837,74.613a5.646,5.646,0,0,0-4.453,1.2A10.627,10.627,0,0,0,66.4,78.01S60.27,68.8,59.671,66.8s.78-7.07,5.651-5.084c2.864,1.167,5.1,5.862,5.868,7.957S72.837,74.613,72.837,74.613Z"/></svg>