<svg id="word" xmlns="http://www.w3.org/2000/svg" xmlns:xlink="http://www.w3.org/1999/xlink" viewBox="0 0 160 160"><defs><style>.cls-1{fill:#b3a583;}.cls-2{clip-path:url(#clip-path);}.cls-3{fill:#cfd58b;}.cls-10,.cls-3,.cls-4,.cls-5,.cls-6,.cls-8{stroke:#9d4b9c;stroke-miterlimit:10;stroke-width:0.49px;}.cls-4{fill:#def2fc;}.cls-5{fill:#b7bb60;}.cls-6{fill:#d1d25e;}.cls-7{fill:#9c005d;opacity:0.25;}.cls-8{fill:#f072ab;}.cls-9{fill:#be1e2d;}.cls-10{fill:none;}</style><clipPath id="clip-path"><rect class="cls-1" x="14" y="14" width="132" height="132"/></clipPath></defs><rect class="cls-1" x="14" y="14" width="132" height="132"/><g class="cls-2"><polygon class="cls-3" points="111.759 31.165 111.759 159.773 1.728 88.772 0 1.641 111.183 1.641 111.759 31.165"/><polygon class="cls-4" points="28.057 18.275 28.273 57.592 53.825 63.057 52.9 18.059 28.057 18.275"/><polygon class="cls-4" points="4.969 59.752 55.735 72.066 55.087 123.265 4.753 90.644 4.969 59.752"/><polygon class="cls-5" points="163.173 159.773 111.326 159.773 113.415 -1.816 163.029 -1.96 163.173 159.773"/><polygon class="cls-6" points="113.199 -2.032 111.687 159.773 58.76 125.857 58.688 2.145 113.199 -2.032"/><polygon class="cls-7" points="64.16 1.641 60.704 2.073 61.568 42.47 101.101 52.191 104.99 44.414 68.265 35.989 64.16 1.641"/><polygon class="cls-8" points="62.864 -1.816 64.52 39.302 106.286 47.007 107.078 -5.632 62.864 -1.816"/><path class="cls-9" d="M69.084,69.324,66.94,57.4l1.309.344,1.518,8.807,1.46-8.023,1.28.336-2.134,10.8Z"/><path class="cls-9" d="M73.131,70.389l-.007-11.362,4.433,1.167v1.922l-3.227-.849,0,2.519,3,.789V66.49l-3-.79,0,3.092,3.34.879v1.914Z"/><path class="cls-9" d="M78.665,71.845l-.007-11.361,1.208.317.006,11.361Z"/><path class="cls-9" d="M81.039,72.469l-.006-11.361,1.206.318,0,5.044,2.436-4.4,1.623.427-2.249,3.833,2.378,7.561-1.562-.411-1.647-5.765-.978,1.642,0,3.433Z"/><path class="cls-9" d="M92.447,75.47l-1.313-.345-.524-2.718-2.39-.629-.492,2.451-1.28-.337L88.77,63.144l1.276.335Zm-2.226-5.079L89.4,65.958l-.8,4Z"/><path class="cls-9" d="M93.121,75.647l-.007-11.268,1.207.317,0,9.355,3,.79v1.913Z"/><path class="cls-9" d="M97.882,73.2l1.174.092a4.839,4.839,0,0,0,.431,1.764,1.392,1.392,0,0,0,.875.757.76.76,0,0,0,.878-.238,1.631,1.631,0,0,0,.3-1.019,1.944,1.944,0,0,0-.125-.718,1.684,1.684,0,0,0-.434-.606q-.212-.2-.967-.751A4.378,4.378,0,0,1,98.647,71a5.3,5.3,0,0,1-.552-2.431,4.376,4.376,0,0,1,.258-1.555,1.72,1.72,0,0,1,.746-.954,1.553,1.553,0,0,1,1.177-.086,2.6,2.6,0,0,1,1.7,1.383,5.938,5.938,0,0,1,.6,2.66l-1.208-.216a3.4,3.4,0,0,0-.332-1.347,1.2,1.2,0,0,0-.766-.585.763.763,0,0,0-.823.194.954.954,0,0,0-.192.655,1.518,1.518,0,0,0,.181.737,3.758,3.758,0,0,0,1.108,1.051,6.448,6.448,0,0,1,1.305,1.16A3.939,3.939,0,0,1,102.5,73a6.51,6.51,0,0,1,.239,1.872,5.043,5.043,0,0,1-.284,1.754,1.837,1.837,0,0,1-.807,1.055,1.759,1.759,0,0,1-1.3.072A2.712,2.712,0,0,1,98.608,76.3,7.712,7.712,0,0,1,97.882,73.2Z"/><polygon class="cls-4" points="62.648 74.442 106.718 86.108 106.286 156.101 62.432 128.233 62.648 74.442"/><line class="cls-10" x1="83.355" y1="79.838" x2="82.955" y2="141.411"/><ellipse class="cls-10" cx="87.788" cy="113.101" rx="1.881" ry="2.665" transform="translate(-23.519 23.049) rotate(-13.207)"/></g></svg>