<svg id="word" xmlns="http://www.w3.org/2000/svg" viewBox="0 0 160 160"><defs><style>.cls-1{fill:#5d5047;}.cls-1,.cls-10,.cls-2,.cls-3,.cls-4,.cls-6,.cls-7,.cls-8,.cls-9{stroke:#9c4c9c;}.cls-1,.cls-10,.cls-2,.cls-3,.cls-4,.cls-5,.cls-6,.cls-7,.cls-8,.cls-9{stroke-miterlimit:10;}.cls-2{fill:#776760;}.cls-3{fill:#a19c97;}.cls-4{fill:none;}.cls-5{fill:#4a4c49;stroke:#454547;}.cls-6{fill:#98958c;}.cls-7{fill:#fdfae6;}.cls-8{fill:#7f7478;}.cls-9{fill:#878681;}.cls-10{fill:#171717;}</style></defs><path class="cls-1" d="M31.478,82.678s-4.43,22.663-5.254,24.286-4.209.283-2.43,3.423a33.879,33.879,0,0,1,3.586,10.126c.155,1.933-.43,11.079-.43,11.079a30.6,30.6,0,0,0,2.188,2.511c.444.326,1.307-.4,3.987.155s5.354.1,5.495-.273,2.406.241,1.109-2.78a12.828,12.828,0,0,0-5.685-6.388l.8-9.56,2.1-19.552-.184-5.738Z"/><path class="cls-1" d="M98.728,109.759a21.922,21.922,0,0,1-.347,6.137l-2.13,14.054a1.27,1.27,0,0,0,.008.619,1.214,1.214,0,0,0,.886.625c3.458,1,7.272.022,10.7,1.11a6.733,6.733,0,0,0-.737-3.986c-.582-1.243-1.35-2.394-1.914-3.646a27.973,27.973,0,0,1-1.263-3.779q-1.4-4.845-3.229-9.552c-.279-.717-.73-1.552-1.5-1.565"/><path class="cls-2" d="M88.09,55.478s-14.278,3.232-16.225,3.28-15.586.269-19.093.844-15.893.961-18.352,6.572-4.432,9.8-2.942,16.5S37.791,92.012,40,96.41s4.637,8.014,3.633,12.535-4.029,6.89-3.161,8.8,4.784,5.437,6.4,8.838,3.316,9.167,4.136,10.371,3.345,3.414,5.526,3.441a23.877,23.877,0,0,0,4.741-.559,6.176,6.176,0,0,0,2.791-.169,15.775,15.775,0,0,1,2.3-.474s1.249-5.224-2.293-7.183a26.711,26.711,0,0,0-7.909-2.594s-3.856-6.349-4.214-7.793a44.123,44.123,0,0,1-1.608-8.678c-.08-3.121,5.672-11.618,5.672-11.618l1.623-3.365s.49,2.675,2.661.779a30.783,30.783,0,0,1,4.147-3.056L62.8,99.356a36.194,36.194,0,0,0,6.829-3.239c3.919-2.326.817,1.971.817,1.971s5.754-2.155,6.518-2.52-2,3.788-2,3.788,3.149-1.087,4.149-2.9-.208,4.025-.208,4.025L85.845,96.2l-.635,2.183L88.6,96.049l3.549,2.665s2.342,6.051,3.418,8.25,2.825,6.309,4.032,6.942,4.095,11.289,5.355,14.242,3.142,7.433,3.142,7.433a9.152,9.152,0,0,0,3.982.833c2.114-.093,4.715.064,4.715.064s2.837,2.007,3.33-.614.5-3.774-1.444-4.691-6.659-3.715-6.659-3.715l-4.486-11.166a9.155,9.155,0,0,0,.346-4.026c-.255-2.545-2.254-6.97-2.254-6.97l3.044-12.465.213-18.453-4.335-24.39-1.263-3.7S92.2,54.393,88.09,55.478Z"/><path class="cls-3" d="M34.42,66.174S26.2,70.122,24.344,76.859c-1.535,5.58-1.627,12.279-1.192,13.493s1.333-4.438,1.333-4.438.376,3.335.821,6.231a69.317,69.317,0,0,0,2.473,8.66l.465-2.717s1.017,5.286,1.165,6.733,2.822,7.607,2.822,7.607l.747-3.3s-.144,7.082,1.374,8.99,2.352,2.576,3.086,5.7,1.193,2.437,1.193,2.437-1.1-9.551-.6-12.622a42.933,42.933,0,0,0,.65-9.493c-.152-3.892,1.194-4.376.279-7.737s-5.742-3.908-6.332-8.464S29.564,80.284,31.047,75.3A78.4,78.4,0,0,1,34.42,66.174Z"/><path class="cls-4" d="M61.2,81.815s-.07,6.31-1.442,9.585-2.924,8.236-2.924,8.236"/><path class="cls-5" d="M92.376,65.357A22.578,22.578,0,0,0,90.742,69.2c-.615,2.015-1.63,4.474-1.63,4.474l2.338-1.188a17.071,17.071,0,0,0-.229,4.126c.123,2.539,3.459-2.632,3.459-2.632s-.24,6.738-.418,7.571,3.478-8.389,3.478-8.389-1.76,5.486-1.041,7.654,1.265,10.325,1.265,10.325l3-5.746s.389,8.284.405,8.8,2.422-11.684,3.084-11.741.029-11.358.029-11.358L98.723,55.288Z"/><path class="cls-4" d="M91.048,87.271c.238,2.533-.419,5.083-.221,7.621a11.391,11.391,0,0,0,1.3,4.464"/><path class="cls-4" d="M116.682,136.54a4.311,4.311,0,0,0-.308-1.905,8.6,8.6,0,0,0-1.327-2.041"/><path class="cls-4" d="M119.719,136.41a5.3,5.3,0,0,0-1.42-3.466"/><path class="cls-4" d="M61.435,139.841c.058-.129.115-.259.164-.391a3.615,3.615,0,0,0-.944-3.849"/><path class="cls-4" d="M65.311,139.745c-.35-.29.148-.054.161-.143q.114-.818.186-1.64c.054-.616-.743-1.2-.857-1.809a2.842,2.842,0,0,0-.907-1.637"/><path class="cls-4" d="M35.748,133.716c.182.08.351-.138.421-.325a4.342,4.342,0,0,0-.4-3.8"/><path class="cls-6" d="M106.1,42.156s-6.443,4.725-7.38,5.365S94,51.749,94,51.749L99.472,50.5s-4.678,5.279-5.931,5.776A4.32,4.32,0,0,0,91.6,58.205l4.543-1.343s-4.308,3.722-5.053,5.655a6.508,6.508,0,0,1-1.973,2.815l7.219-2.71s-1.43,5.135-2.146,7a7.832,7.832,0,0,1-1.422,2.562s4.656-3.921,5.055-4.687-2.01,4.288-2.01,4.288l4.918-2.648s1.97,7.775,1.054,9.395a7.34,7.34,0,0,0-.915,3.266l3.56-5.066-1.641,7.291.055,3.007,2.888-3.516.414,4.905,2.145-3.93-1.72,10.589,3.918-2.849-.177,4.91s6.158-4.376,6.452-10.875-3.888-14.666-4.117-15.157-.736-20.378-.736-20.378l.658-9.795Z"/><path class="cls-6" d="M108.269,51.618s-2.343,10.471-2.483,12.976,2.073-3.536,2.073-3.536-1.389,10.889-1.65,11.2,2.336-4.641,2.336-4.641.135,7.9,0,9.892-.259,6.979-.259,6.979l1.894-4.1a13.114,13.114,0,0,1,.867,3.348c.061,1.35.7-4.332.767-4.992s.619,6.78.6,7.717,0,4.6,0,4.6l2.974-4.232a45.8,45.8,0,0,1-1.546,5.355c-.4.562,3.305-2.822,3.305-3.514s2.5-6.005,2.5-6.005l-3.89-20.432-1.394-11.344-5.826.6Z"/><path class="cls-7" d="M127.487,48.021s2.246,9.3,2.343,11.365a30.031,30.031,0,0,1-.287,4.714l-1.606-3.514a66.725,66.725,0,0,1-.686,7.975c-.492,2.135-2.069,8.521-2.008,9.214s-.985,3.12-1.33,4.42-1.615,2.633-1.537,3.211.294-5.267.294-5.267-3.543,5.064-3.4,5.713a2.473,2.473,0,0,1-.351,1.475l.351-7.188V75.3l-3.153,4.841.641-7.017.521-3.49-1.041,3.483s-1.406-11.375-1.213-12.132,3.447-6.474,3.447-6.474l3.169-4.231,4.5-3.992Z"/><path class="cls-8" d="M126.837,40.568s2.84,7.992,2.946,9.316a8.253,8.253,0,0,0,.852,2.725l-1.9-1.533-1.9-1.832-.51,5.495-.253,2.028-1.565-7.516s-.635,2.152-1.43,4.691a54,54,0,0,0-1.5,6.372c0,.233-.869-3.547-.869-3.547L119.2,61.5l-1.608,1.614-.312-4.72a8.807,8.807,0,0,0-1.241,3.7c-.114,1.943-2.079,5.307-2,5.546s-.417-10.065-.323-10.077a48.1,48.1,0,0,1-3.227,3.934c.109-.313.849-8.455.849-8.455s-3.117,5.471-3.373,5.485.5-4.409,1.023-7.877,1.931-9.726,1.931-9.726l2.377-1.516,3.468,3.405Z"/><path class="cls-9" d="M118.366,26.437s1.428-1.319,2.456-2.076c.811-.6,4.044-2.594,5.377-3.414l.579-.355a9.962,9.962,0,0,1,3.067.574A4.561,4.561,0,0,1,131.253,23s-1.17,4.564-1.84,5.521a61.509,61.509,0,0,0-2.635,6.272,26.366,26.366,0,0,0,2.2-1.9c.881-.885,3.385-4.145,3.869-3.533s-.289,3.246-.994,3.631-5.077,8.864-5.077,8.864l-.506,3.641-1.763,3.756-.105-1.937-2.378,3.3.61-3.212s-2.84,1.459-3.273,2.12a12.9,12.9,0,0,1-2.99,1.927l1.672-4.262a21.738,21.738,0,0,0-3.135,2.228c-.091.342.887-3.509.887-3.509l-3.614,3.16s-1.14-5.221-1.14-5.991-2.774,1.735-2.774,1.735a19.789,19.789,0,0,1-5.5-.217c-2.313-.553-6.614-1.2-7.02-1.518s-.985-.684-.985-.684a25.036,25.036,0,0,0,3.483-2.253c1.055-.939,2.509-3.289,4.5-3.367a11.424,11.424,0,0,0,3.2-.522,26.654,26.654,0,0,1,2.871-5.153c1.188-1.274,2.406-3.13,4.086-3.974S118.366,26.437,118.366,26.437Z"/><path class="cls-4" d="M110.262,37.73a6.06,6.06,0,0,0-3.669.405,8.6,8.6,0,0,0-1.4,1.186,9.805,9.805,0,0,1-4.353,2.3,8.779,8.779,0,0,0,5.24,1.261,5.2,5.2,0,0,0,4.258-3.017"/><path class="cls-4" d="M117.666,30.753l.849-1.1a5.973,5.973,0,0,1,1.072-1.155,2.017,2.017,0,0,1,1.473-.447"/><path class="cls-10" d="M127.907,22.916a11.786,11.786,0,0,0,3.346.079s.921-3.986-1.408-4.692-3.535,1.925-3.535,1.925l-.111.719S127.175,22.76,127.907,22.916Z"/></svg>