<svg id="word" xmlns="http://www.w3.org/2000/svg" xmlns:xlink="http://www.w3.org/1999/xlink" viewBox="0 0 160 160"><defs><style>.cls-1{fill:none;}.cls-2{clip-path:url(#clip-path);}.cls-3{fill:url(#linear-gradient);}.cls-4{fill:url(#linear-gradient-2);}.cls-5{fill:#449bc2;}.cls-6{fill:#fff;}</style><clipPath id="clip-path"><rect class="cls-1" x="14" y="14" width="132" height="132"/></clipPath><linearGradient id="linear-gradient" x1="79.265" y1="212.145" x2="80.837" y2="-217.113" gradientTransform="matrix(1, 0, 0, -0.421, 0, 84.854)" gradientUnits="userSpaceOnUse"><stop offset="0" stop-color="#3498ba"/><stop offset="1" stop-color="#fff"/></linearGradient><linearGradient id="linear-gradient-2" x1="79.805" y1="163.066" x2="80.222" y2="49.204" gradientUnits="userSpaceOnUse"><stop offset="0" stop-color="#fff"/><stop offset="1" stop-color="#3498ba"/></linearGradient></defs><g class="cls-2"><rect class="cls-3" width="160" height="160"/><rect class="cls-4" y="59.7" width="160" height="100.3"/><path class="cls-5" d="M29.684,55.363c4.028-.85,8.1-1.76,9.634-2.99s4.44.4,5.223,0,7.066-.467,7.066-.467l5.94,1.7s-3.072-1.919,4.3-1.7,22.428-.018,22.428-.018,6.656,6.4,10.138,4.917,7.886-3.448,7.886-3.448,4.711.014,7.169-1.469,3.636-1.236,6.759-.007,4.1,1.69,5.939,2.567a71.387,71.387,0,0,0,7.067,2.357l17.789,3.11S134.969,61.8,133.74,62.048s-10.549,4.1-16.693,4.1-9.934-.6-14.952,2.285-10.651,7.061-16.9,5.34-16.8-3.548-20.072-5.34S54.85,65.655,50.617,65.655s-9.865-.738-15.088-.738-20.257.308-20.776-1.6S25.656,56.214,29.684,55.363Z"/><path class="cls-6" d="M53.86,52.619s5.53.246,5.735-1.229,1.331-4.674,2.458-3.444,1.229-.8,2.97-.275a6.98,6.98,0,0,0,4.4-.088c.615-.375,2.97-2.342,3.994-1.113s1.844.923,2.663-.4,2.765-.645,3.584,0,1.741-1.425,3.482-.759,2.868,4.063,3.175,3.595,1.741-1.008,4.3,0,3.585,2.483,4.609,2.483,3.277,3.228,5.223,1.245,3.891-4.244,6.349-3.728,5.94-.363,6.657.322a32.91,32.91,0,0,0,2.765,2.652c1.741,1.476,1.638.828,3.891,1.4s2.048-1.554,4.506,0,9.787,4.431,9.787,4.431-4.871-.417-5.69-.417-1.946-2.706-3.175,0-2.048.491-2.356,0-.2,1.163-1.945,1.319-.922-1.565-2.663-2.549-2.765-1.722-3.994-1.722-2.355-2.214-4.3-1.23a39.384,39.384,0,0,0-5.633,3.69c-.512.492-.921.738-1.741-.246s-1.945,1.429-2.253,2.067-1.536-.838-1.741-1.575-.1-.964-1.741,1.731S95.541,66.885,93.8,62.95s-2.765-3.444-2.97-1.722.2,6.641-1.331,7.133-3.175-1.653-3.892-4.024-2.663-8.265-3.891-7.532-1.127,5.161-2.151,5.653-1.536-4.428-1.536-4.428S76.6,58.276,77.21,60s-1.127,6.149-1.946,3.689a30.659,30.659,0,0,1-.922-6.882l-.819,4.915a7.577,7.577,0,0,1-1.229,2.459c-.717.738,0-3.935-.307-5.9s-.1,4.674-1.434,4.674-1.536-.984-2.253-3.2.1-1.23-2.356-.984-1.843-.492-2.457.246-2.765-.729-2.868-2.209,1.229-1.717-.717,0-3.686-.988-3.686-.988-1.025-2.706-1.537-1.476-1.536,2.952-2.355,1.23S50.617,53.6,50.617,53.6a13.084,13.084,0,0,1-2.594.738,6.965,6.965,0,0,0-2.868,1.476c-.819.492-2.253,1.967-3.174-.246s-1.844-3.444-2.663-3.2-2.663.738-2.663.738,2.049-3.689,4.2-1.967,3.892.983,6.657.246S53.041,50.9,53.86,52.619Z"/></g></svg>