<svg id="word" xmlns="http://www.w3.org/2000/svg" viewBox="0 0 160 160"><defs><style>.cls-1{opacity:0.16;}.cls-2{fill:#9c4c9c;}.cls-3{fill:#9f958f;}.cls-10,.cls-3,.cls-4,.cls-5,.cls-6,.cls-7,.cls-8,.cls-9{stroke:#9d4b9c;stroke-miterlimit:10;stroke-width:0.47px;}.cls-4{fill:#fdeadf;}.cls-5{fill:#df578b;}.cls-6{fill:#fde381;}.cls-7{fill:#ed5792;}.cls-8{fill:#fff;}.cls-9{fill:none;stroke-linecap:round;}.cls-10{fill:#ef5c94;}</style></defs><g class="cls-1"><path class="cls-2" d="M113.1,90.977s-1.009.135-2.248.283l.06.015Z"/></g><path class="cls-3" d="M47.767,52.192c-1.3.61-2.366.763-4.884.839a3.647,3.647,0,0,1-2.919-.986c-2.544,1.3-4.525,2.4-4.561,2.691-.1.814-.407,1.526,2.849,1.526s6-2.035,7.531-.916,3.155,1.425,4.783,0a3.37,3.37,0,0,0,.992-3.25A7.8,7.8,0,0,0,47.767,52.192Z"/><path class="cls-4" d="M88.015,54.227s-8.752-11.906-9.973-13.433-8.548.1-8.548.1L51.176,46.6s-6.553,3.064-11.212,5.45a3.647,3.647,0,0,0,2.919.986c2.518-.076,3.587-.229,4.884-.839a7.8,7.8,0,0,1,3.791-.1,3.012,3.012,0,0,0-.076-.312s5.7,1.12,10.38-.508A76.969,76.969,0,0,0,72.14,46.493a51.941,51.941,0,0,0,3.765,9.973A61.652,61.652,0,0,0,81.2,64.81L85.674,58.7l3.155-3.053Z"/><path class="cls-4" d="M87.862,123.782l-1.628,5.8s-3.155.407-4.681.814-6.208,3.664-4.478,4.274,4.885-.814,6.411-.407,4.579,1.018,5.495-.407a21.378,21.378,0,0,0,1.832-5.19c.1-.508.611-4.274.611-4.274Z"/><path class="cls-5" d="M88.778,92.235c0,1.527-.2,10.787-.2,13.738a36.674,36.674,0,0,1-.407,5.394l-1.119,12.72s2.137,1.425,3.256,1.425a6.038,6.038,0,0,0,1.934-.306l3.918-29.663"/><path class="cls-6" d="M49.878,88.844s-1.679-3.892-3.969-3.511-5.114.153-5.572,6.106,1.679,10.075,5.267,9.235a5.936,5.936,0,0,0,4.35-4.2L47.97,88.462Z"/><path class="cls-7" d="M49.449,86.893s-3.358.611-3.968,3.155.814,6.207,2.035,7.021a8.7,8.7,0,0,0,2.646,1.12S47.618,89.132,49.449,86.893Z"/><path class="cls-4" d="M70.692,78.905s6.717.28,9.261,2.239,5.822,7.487,5.414,10.753-.937,5.857-2.972,8-6.67,4.692-8.4,4.972-4.524,1-4.524,1-12.19-4.206-10.38-15.583C60.021,84.449,63.366,80.024,70.692,78.905Z"/><path class="cls-6" d="M49.267,86.86s1.582-6.531,5.652-8.159,9.057-4.172,12.415-2.544a50.728,50.728,0,0,0,7.429,2.748l1.628-.509a35.6,35.6,0,0,1-4.986,1.221c-1.018,0-4.783,2.442-6.208,3.46a34.483,34.483,0,0,1-3.358,2.035s4.478-.1,4.986-.509,2.239-1.628,2.239-1.628-2.239,3.053-2.951,3.053h-3.46s3.562.712,4.681,2.646.916,3.663,1.323,5.19-.509-1.527-2.137-3.562a10.643,10.643,0,0,0-3.358-2.849s3.562,6,3.358,8.243,1.628,5.7,1.628,5.7a5.157,5.157,0,0,1-4.986-3.663c-1.323-3.867-1.425-4.274-1.425-4.274s.1,6.106,1.832,7.632,5.9,2.544,7.022,4.885.509,6.716.509,6.716a5.991,5.991,0,0,0-1.832-4.783,9.282,9.282,0,0,0-3.562-2.137s3.969,3.664,3.358,5.6-4.274,2.748-4.274,2.748,3.562-.814,2.341-2.951-5.932-1.113-8.141-2.341c-5.6-3.112-7.938-6.818-9.77-11.7S49.267,86.86,49.267,86.86Z"/><path class="cls-4" d="M76.977,94.011a2.241,2.241,0,0,1-.639-1.658,1.282,1.282,0,0,1,.252-.761.708.708,0,0,1,.726-.256"/><path class="cls-8" d="M72.062,84.667a1.926,1.926,0,0,0-2.283,1.593c-.266,1.912,1.858,2.124,3.239,2.071a1.939,1.939,0,0,0,1.912-2.124C74.718,85.463,73.018,84.667,72.062,84.667Z"/><path class="cls-2" d="M72.865,86.036a1.141,1.141,0,0,0-1.352.944c-.158,1.133,1.1,1.259,1.919,1.227a1.148,1.148,0,0,0,1.132-1.258C74.438,86.508,73.432,86.036,72.865,86.036Z"/><path class="cls-8" d="M71.757,96.8A1.927,1.927,0,0,0,69.473,98.4c-.265,1.912,1.859,2.125,3.24,2.071a1.939,1.939,0,0,0,1.912-2.124C74.413,97.6,72.713,96.8,71.757,96.8Z"/><path class="cls-2" d="M72.56,98.172a1.141,1.141,0,0,0-1.353.943c-.157,1.133,1.1,1.259,1.919,1.227a1.149,1.149,0,0,0,1.133-1.258C74.133,98.643,73.126,98.172,72.56,98.172Z"/><path class="cls-9" d="M78.3,95.7c.23-.342.639-.514.937-.8a2.41,2.41,0,0,0,.473-.685A5.075,5.075,0,0,0,78.6,88.363"/><path class="cls-4" d="M83.13,124.85l-1.628,5.8s-3.155.407-4.681.814-6.208,3.663-4.478,4.274,4.885-.814,6.411-.407,4.579,1.018,5.495-.407a21.393,21.393,0,0,0,1.832-5.19c.1-.509.611-4.274.611-4.274Z"/><path class="cls-10" d="M89.745,54.634a10.637,10.637,0,0,0-5.19,1.832c-2.036,1.628-4.987,4.172-3.766,8.548s4.376,7.021,5.089,9.972,2.137,8.345.915,9.77-2.747,7.021-2.747,8.548-.2,10.787-.2,13.738a36.652,36.652,0,0,1-.407,5.393l-1.119,12.721s2.137,1.424,3.256,1.424a6.055,6.055,0,0,0,1.934-.3L91.373,98.9s6.309-3.562,7.225-5.19a18.769,18.769,0,0,0,2.646-12.517c-.916-6.513-3.562-17.2-3.562-17.2Z"/><path class="cls-3" d="M102.058,22.477a24.66,24.66,0,0,1,1.628-3.1l.609-.21c-.62-2.44-1.593-6.01-3.051-6.456-1.247-.38-1.221,2.137-1.323,4.376s.1,3.562-.1,4.681-1.832,4.376-.611,6.208a3.727,3.727,0,0,0,2.461,1.739c.04-.553.134-1.887.134-2.248C101.8,27.005,101.193,24.41,102.058,22.477Z"/><path class="cls-4" d="M111.013,48.325c-.814-4.885-2.442-15.876-3.46-18.623s-2.324-7.094-2.849-8.955c-.114-.405-.251-.959-.409-1.584l-.609.21a24.66,24.66,0,0,0-1.628,3.1c-.865,1.933-.255,4.528-.255,4.986,0,.361-.094,1.7-.134,2.248.36.051.623,0,.694-.111.2-.3.305,4.478.305,6.615s-1.322,3.663-.508,6.309,2.951,7.836,2.951,7.836l-7.836,1.933S86.386,56.466,85.47,57.585s-4.07,3.765-.61,7.225S97.479,64.4,98.9,63.487s10.278-5.8,11.5-6.818S111.827,53.209,111.013,48.325Z"/></svg>