<svg id="word" xmlns="http://www.w3.org/2000/svg" viewBox="0 0 160 160"><defs><style>.cls-1{fill:#fde0ce;}.cls-1,.cls-2,.cls-3,.cls-4,.cls-5,.cls-6,.cls-7,.cls-8{stroke:#9c4c9c;stroke-width:0.696px;}.cls-1,.cls-3,.cls-8{stroke-miterlimit:10;}.cls-2{fill:#355580;}.cls-3{fill:#a33c31;}.cls-4{fill:#fde3d5;}.cls-5{fill:#57b5df;}.cls-6{fill:none;stroke-linecap:round;}.cls-7{fill:#f1c679;}.cls-8{fill:#fff;}.cls-9{fill:#9c4c9c;}</style></defs><path class="cls-1" d="M88.3,122.106a21.078,21.078,0,0,1-6.273,10.908c-5.067,4.386-7.962,7.2-9.289,8.322a4.817,4.817,0,0,0-1.268,2.395,10.5,10.5,0,0,0-.3,1.653L58.5,143.135s4.946-2.924,5.67-3.823,14.114-20.468,14.114-20.468Z"/><path class="cls-1" d="M131.727,115.7s3.5,11.359,3.619,13.833,1.931,11.8,2.051,12.026-.965,4.73-2.835,5.067-3.92-4.835-5.127-6.86a105.666,105.666,0,0,1-5.187-10.908c-.482-1.574-2.533-10.009-2.533-10.009Z"/><path class="cls-2" d="M113.512,75.66s7.6,8.772,9.047,12.933,9.772,22.154,10.857,23.616,2.413,5.736,2.413,5.736-5.911.449-8.806,2.586a20.532,20.532,0,0,1-7.359,2.924,52.591,52.591,0,0,0-3.619-8.322c-2.774-5.4-8.444-16.644-8.444-16.644a104.066,104.066,0,0,1-6.152,10.571c-2.292,3.037-6.032,7.085-7.842,10.347s-3.377,6.072-3.377,6.072-5.067-2.586-7.118-3.486-8.082-2.586-8.082-2.586,4.343-8.1,5.79-10.347,9.289-18.443,9.289-18.443Z"/><path class="cls-3" d="M71.29,147.971a3.2,3.2,0,0,1-2.533.675c-1.809-.113-1.809-1.462-6.514-.675s-10.978.665-11.943.22-4.1-.67-1.206-2.132,11.983-4.5,11.983-4.5a28.886,28.886,0,0,1,4.544.794c1.206.45,6.226.292,6.226.292S73.221,147.293,71.29,147.971Z"/><path class="cls-3" d="M138.724,142.8s4.464,3.4,3.86,5.859-7.479,1.563-8.806,1.676-2.051.246-2.292-1.676-.834-6.593-.834-6.593,2.821,3.582,4.333,3.042,2.412-3.552,2.412-3.552Z"/><path class="cls-1" d="M59.221,89.371s-5.381,19.187-5.788,19.976-2.688,6.708-2.688,6.708a7.416,7.416,0,0,0-2.488,2.293c-.754,1.331-1,1.092-1,1.092s-3.742-.128-5.076.7c-1.73,1.078,1.825,1.524,2.881,1.876s2.171.691,2.171.691-.4,9.412-.016,10.028,1.512.719,1.922-.537.387-4.573.947-4.753,1.507,5.848,3.057,5.276-.5-5.662-.086-5.868,3.068,5.215,3.315,2.83-1.7-4.583-1.295-4.9,3.307,3.764,3.519,2.2-2.427-4.831-2.427-4.831a5.671,5.671,0,0,0-.007-2.913,15.9,15.9,0,0,1-.9-2.6s4.847-9.393,5.191-10.517,5.881-16.47,5.881-16.47l-6.222-1.6Z"/><path class="cls-1" d="M71.512,53.86S75.479,34.376,75.474,33.5s.658-7.135.658-7.135A6.821,6.821,0,0,1,74.94,23.3c-.069-1.5-.4-1.385-.4-1.385s-3.44-1.38-4.262-2.664c-1.067-1.666,2.349-.648,3.466-.543s2.278.244,2.278.244,3.973-8.661,4.6-9.066,1.7-.044,1.489,1.254-1.754,4.286-1.332,4.673,4.053-4.681,5.19-3.544-3.055,4.916-2.778,5.267,5.171-3.485,4.3-1.231-3.643,3.46-3.427,3.912,4.72-2.078,4.193-.582-4.415,3.393-4.415,3.393A5.889,5.889,0,0,1,82.5,25.657a17.242,17.242,0,0,0-2.007,1.991s.057,10.423-.15,11.576-2.265,17.229-2.265,17.229l-6.358-1.039Z"/><path class="cls-4" d="M58.986,64.05l12.3,2.786S76.6,70.6,73.4,74.873s-9.952,2.594-9.952,2.594L53.7,73.574Z"/><path class="cls-5" d="M64.776,65.314s.965-3.486,1.568-5.623,2.293-8.322,2.293-8.322a6.5,6.5,0,0,1,4.222,0c2.292.787,8.444.787,8.444.787s-1.689,7.085-1.327,8.547a5.877,5.877,0,0,0,4.463,3.711,190.1,190.1,0,0,1,18.7,3.487c5.791,1.462,12.908,8.209,12.908,8.209s-12.787,9.9-16.526,13.945S87.7,95,87.7,95s-.361-3.036-4.222-3.824S72.5,87.918,72.5,87.918a37.781,37.781,0,0,0-2.775,4.836c-.6,1.574-1.206,3.374-1.206,3.374s-.483-1.237-3.74-1.912a62.845,62.845,0,0,0-9.409-.675l6.514-15.969s9.1.535,10.133-3.036C74.065,67.451,65.621,65.764,64.776,65.314Z"/><path class="cls-4" d="M28.129,69.682s7.631,5.721,12.2,6.551,7.389,1.878,12.261.721c4.342-1.032,8-4.089,8.267-9.428s-.893-11.2-4.094-14.7S40.468,46,35.112,47.689s-10.346,8.23-9.871,12.882A28.02,28.02,0,0,0,28.129,69.682Z"/><path class="cls-6" d="M46.828,62.635c-2.272-.714-4.636,2.068-1.968,2.945"/><path class="cls-4" d="M35.015,74.847c-1.957-1.356-3.894.768-1.8,2.482,2.122,1.736,6.531,1.99,7.109-1.1"/><path class="cls-7" d="M28.386,53.1s3.413.055,6.237.323a16.4,16.4,0,0,1,5.4,1.637s-1.73-3.741-2.668-3.853a20.471,20.471,0,0,1,4.167.852,28.908,28.908,0,0,0,2.751,1.249,9.743,9.743,0,0,0-2.178-2.383c-.884-.458.937.113,3.206.88a22.536,22.536,0,0,1,4.015,1.824L49.055,51.2s1.231-1.544,3.509.709a11.446,11.446,0,0,1,2.787,3.7l2.657.476-1.374-3.982S55.3,47.351,52.468,45.6s-8.2-5.647-13.773-5.114-7.625.924-9.432,2.828-2.97,3.25-2.97,3.25l.957-4.128a3.775,3.775,0,0,0-2.536,2.5,8.045,8.045,0,0,0,.231,3.654l-3.687-2.459s1.971,2.748,2.173,2.985-3.851-.32-4.085-.348,3.746,1.509,3.746,1.509-4.513,1.7-4.878,2.012,4.205-.75,4.205-.75-1.564,1.367-2.55,6.2-1.548,5.893,1.428,9.289,8.222,7.559,9.877,8.182,4.039.13,4.821.224a22.8,22.8,0,0,0,2.3.064,45.677,45.677,0,0,1-3.73-2.639c-1.771-1.414-4.011-2.884-5.271-4.52a23.48,23.48,0,0,1-2.321-4.024A21.869,21.869,0,0,0,31.393,67.1c1.733.632,3.477,1.2,3.477,1.2a5.053,5.053,0,0,1-3.206-2.435c-1.486-2.227-4.053-6.211-4.053-6.211s2.593,2.785,4.39,3a30.779,30.779,0,0,1,3.406.621,6.573,6.573,0,0,1-3.741-2.569c-1.574-2.168-3.56-5.8-3.56-5.8s2.763,1.179,3.824,1.519a13.977,13.977,0,0,0,3.215.315Z"/><path class="cls-4" d="M57.479,55.388c2.187-.335,2.741-5.421,1.09-6.64-1.939-1.431-4.5-.786-4.866,1.007"/><path class="cls-6" d="M51.86,60.012a2.567,2.567,0,0,1-.152,1.8,14.109,14.109,0,0,1-8.846,8.918"/><ellipse class="cls-8" cx="45.449" cy="56.138" rx="2.052" ry="3.192" transform="translate(-24.922 72.418) rotate(-64.032)"/><ellipse class="cls-9" cx="46.29" cy="55.577" rx="1.408" ry="2.068" transform="translate(-23.64 74.053) rotate(-65.009)"/><ellipse class="cls-8" cx="37.072" cy="66.836" rx="2.052" ry="3.192" transform="translate(-39.249 70.9) rotate(-64.032)"/><ellipse class="cls-9" cx="37.913" cy="66.275" rx="1.408" ry="2.068" transform="translate(-38.174 72.638) rotate(-65.009)"/></svg>