<svg id="word" xmlns="http://www.w3.org/2000/svg" viewBox="0 0 160 160"><defs><style>.cls-1{fill:#4f62a5;}.cls-1,.cls-3,.cls-4,.cls-5,.cls-6,.cls-7,.cls-8{stroke:#9d4b9c;stroke-miterlimit:10;stroke-width:0.525px;}.cls-2{fill:#43518b;}.cls-3{fill:#fde1d3;}.cls-4{fill:#353435;}.cls-5{fill:#fbed1f;}.cls-6{fill:#fbbc4d;}.cls-7{fill:none;}.cls-8{fill:#db90be;}</style></defs><path class="cls-1" d="M22.117,67.968c2.354-1.439,87.64-.262,91.564-.262s16.22-.523,18.575-.523,7.587,17.266,11.511,20.667,5.232,9.68.261,9.68-123.22.523-125.312.523-2.878-2.093-.262-9.418S19.762,69.406,22.117,67.968Z"/><path class="cls-1" d="M15.576,98.053s.523,7.064,1.308,8.895,4.448,4.186,6.017,4.186,63.311-2.616,69.328-2.616h34.533c4.186,0,11.511-.262,14.389-1.832s6.017-1.569,6.017-4.185V94.652a117.944,117.944,0,0,1-21.714,2.093c-11.773,0-29.562-1.308-42.382-1.831s-22.237.523-33.224.785-30.348,1.569-31.394.784a7.805,7.805,0,0,1-1.831-2.354Z"/><path class="cls-2" d="M106.879,79.217s11.38-2.616,11.642-.916-13.473,2.355-12.95,2.616,12.95,2.747,14.52,3.925-9.288-.785-11.642-1.178-5.494,1.7-9.157,1.7H91.967c-3.531,0-16.481,1.831-17.266.392S77.84,81.7,87.52,80.394s18.836-4.709,22.106-5.624,1.439.13-.131.784S106.879,79.217,106.879,79.217Z"/><path class="cls-2" d="M45.923,75.162s-9.156-3.27-8.633-1.831,6.933,2.354,6.933,2.354S35.2,78.171,32.712,79.348s.916,1.439,2.616,1.046,5.232-1.7,5.232-1.7-16.351,11.249-9.941,8.371,3.4-3.27,9.026-3.27,7.063.785,10.2,0,5.232-1.962,5.493-3.4.262-2.747-2.092-3.532S45.923,75.162,45.923,75.162Z"/><path class="cls-3" d="M82.815,51.562a41.209,41.209,0,0,1,3.134,2.809c1.729,2.053,4.754,9.077,4.754,9.077l4.755-1.837s-3.308-3.9-5.619-6.375a8.277,8.277,0,0,1-1.891-8.615,7.305,7.305,0,0,0,.486-2.947L84.112,48Z"/><path class="cls-4" d="M83.324,51.9s-3.632-.5-2.476-1.486,4.128-3.962,5.118-5.944,3.8-3.8,4.293-3.137-1.981,4.293-2.311,5.284-1.174.009-2,.835A29.683,29.683,0,0,0,83.324,51.9Z"/><path class="cls-5" d="M89.623,62.692l5.078-.757s4.539,13.723,2.7,14.048-8.321-.108-8.321-.108,4.863-1.405,3.026-6.052C90.913,66.8,89.623,62.692,89.623,62.692Z"/><polygon class="cls-3" points="61.979 45.296 58.842 51.405 63.465 53.552 68.583 47.112 61.979 45.296"/><path class="cls-3" d="M57.124,69.833s-3.715,9-3.962,9.329a3.4,3.4,0,0,1-2.147.743c-.413-.165-5.366.33-5.779.082s1.073-.908,1.651-.99-2.064-.33-2.642-.33-2.972.247-2.311-.5a6.234,6.234,0,0,1,4.045-1.4c1.569,0,5.119-.083,5.119-.083L55.06,66.118l2.725,1.9Z"/><path class="cls-3" d="M72.489,26.274s-5.327.72-6.047,1.728a5.3,5.3,0,0,1-3.6,1.583c-.576-.144-1.44-1.3-2.592-1.152s-.576,2.16-.576,2.16a5.868,5.868,0,0,1-2.159,1.872c-1.008.288-2.016,4.607-1.44,7.343s4.607,5.759,5.615,6.479,4.895,3.024,6.191,3.024S75.657,46,76.953,43.983s4.031-6.479,2.592-9.358S72.489,26.274,72.489,26.274Z"/><path class="cls-6" d="M83.72,30.881s-1.728-3.455-3.744-4.895-3.023-1.152-4.463-2.016a9.1,9.1,0,0,1-2.16-1.728s.576,2.3,1.008,2.592-6.047-2.3-4.751-.864a12.312,12.312,0,0,0,2.879,2.3S68.6,25.41,70.474,28a9.342,9.342,0,0,0,4.895,3.311s-2.88.864-.864,2.448S78.249,36.5,78.249,36.5a13.374,13.374,0,0,1-1.44,1.728,7.624,7.624,0,0,0-2.016,3.888c0,.72-.864,1.583-1.008,2.159s-.576,1.008-1.727,2.3a17.287,17.287,0,0,1-4.176,2.736s6.343,2.987,9.51,2.267,9.784-3.563,9.64-12.058S83.72,30.881,83.72,30.881Z"/><path class="cls-7" d="M57.866,31.851a2.774,2.774,0,0,0,1.979,2.424,4.077,4.077,0,0,0,3.209-.474"/><path class="cls-7" d="M65.143,29.218a1.279,1.279,0,0,1,1.6.411,3.737,3.737,0,0,1,.6,1.69"/><path class="cls-3" d="M73.058,41.873s2.635.856,1.979,2.732-1.225,2.356-3.016,1.6c-1.105-.465-.942-1.319-.942-1.319"/><path class="cls-6" d="M84.432,36.37a1.268,1.268,0,0,1,.665-1.328,3.789,3.789,0,0,1,1.541-.4,7.474,7.474,0,0,1,4.1.32,12.464,12.464,0,0,1,1.488.983,9.18,9.18,0,0,0,4.12,1.533,4.092,4.092,0,0,0,2.54-.38,5.172,5.172,0,0,0,1.61-1.84,3.705,3.705,0,0,1-1.039,3.575,9.425,9.425,0,0,1-3.343,2.01,10.86,10.86,0,0,1-2.45.751,8.377,8.377,0,0,1-5.11-1.066c-1.56-.832-3.058-3.2-4.4-4.345"/><path class="cls-3" d="M85.408,50.157a41.053,41.053,0,0,1,3.134,2.81c1.729,2.053,4.755,9.076,4.755,9.076l4.754-1.837s-3.308-3.905-5.619-6.375a8.277,8.277,0,0,1-1.891-8.615,7.3,7.3,0,0,0,.486-2.947l-4.322,4.322Z"/><path class="cls-4" d="M85.918,50.5s-3.633-.5-2.477-1.486,4.128-3.963,5.119-5.944,3.8-3.8,4.293-3.138-1.982,4.293-2.312,5.284-1.173.009-2,.835A29.745,29.745,0,0,0,85.918,50.5Z"/><path class="cls-5" d="M67.578,71.691s1.486-1.816,6.439-1.816,12.219,3.467,13.21,3.963,6.934.5,6.934.5-.165-1.651.331-1.816.66,1.156.495-.165-.826-1.88-1.474-4.906a40.1,40.1,0,0,1-.507-5.992A30.823,30.823,0,0,0,97.133,59.8l1.982-.991s5.779,15.356,5.779,17.668-.165,7.43-4.623,7.76-20.309.5-20.309.5l-11.41-2.593Z"/><path class="cls-8" d="M65.85,50.3s-2.245,8.92-1.585,13.543,1.684,4.815,3.17,5.475,5.475.288,5.475.288L69.02,82.862s-10.176-5.288-12.679-9.221C51.3,65.717,52.4,59.991,54.053,56.194s4.2-6.451,7.761-5.779A8.286,8.286,0,0,0,65.85,50.3Z"/><path class="cls-3" d="M53.822,63.311,49.364,75.86l-1.981,5.2-3.22-.743a14.269,14.269,0,0,0-3.715.082,21.266,21.266,0,0,0-2.89,1.239c-.743.247-2.146,1.073-.33,1.568s3.22,0,5.449,0a15.331,15.331,0,0,1,4.375.578c.991.248,1.486-.495,2.394-1.9s3.963-7.512,4.459-8.421,3.219-9.081,3.219-9.081Z"/><path class="cls-8" d="M61.483,50.992a6.883,6.883,0,0,0-4.21,1.982c-1.651,1.816-4.458,5.779-4.788,7.513a4.4,4.4,0,0,1-1.4,2.559,39.9,39.9,0,0,1,5.779,1.9,11.6,11.6,0,0,0,2.807,1.073s2.229-4.541,2.477-6.935S62.557,52.231,61.483,50.992Z"/></svg>