<svg id="word" xmlns="http://www.w3.org/2000/svg" viewBox="0 0 160 160"><defs><style>.cls-1{fill:#faf5b2;}.cls-1,.cls-2,.cls-3,.cls-4,.cls-5,.cls-6,.cls-7{stroke:#9b4b9c;}.cls-1,.cls-2,.cls-3,.cls-4,.cls-5,.cls-6,.cls-7,.cls-9{stroke-miterlimit:10;}.cls-1,.cls-2,.cls-4,.cls-5,.cls-6,.cls-7{stroke-width:0.656px;}.cls-2{fill:#dde34b;}.cls-3,.cls-5,.cls-9{fill:none;}.cls-3{stroke-linecap:round;stroke-width:1.312px;}.cls-4{fill:#0e90b5;}.cls-6{fill:#17c0f1;}.cls-7{fill:#b7b9bb;}.cls-8{fill:#9b4b9c;}.cls-9{stroke:#9b4d9c;stroke-width:0.83px;}</style></defs><path class="cls-1" d="M54.46,44.129s-1.847-2.5,0-4.194,1.5-2.315,2.29-2.161,3.854.942,6.1-1.3,1.51-4.252,3.5-1.783,3.161,4.183,5.43,1.783,1.807-4.252,3.813-2.092,5.332-.1,6.245,0,3.224-1.6,5.434-.956,1.43-1.513,4.135,1.11,4.662,1.714,5.844,1.938,4.559,4.235,4.559,4.235,3.568-.771,3.568.772-.927,5.477-.695,6.211-3.626,1.505-6.249,1.505S82.652,51.151,79.51,51.253s-14.553-.293-14.553-.293Z"/><path class="cls-2" d="M59.532,47.434A111.582,111.582,0,0,0,72.7,42.981c5.68-2.463,5.6-3.811,9.51-4.043s5.581,1.893,7.675,3.123,14.132,7.766,15.385,8.852,3.568,4.042,3.044,5.233-6.856-1.334-9.079-2.749-7.35-5.655-16.614-5.493-18.3,4.08-22.853,3.575S55.124,48.722,59.532,47.434Z"/><path class="cls-3" d="M79.026,28.205s-2.781-4.513,2.473-5.492c5.4-1.007,6.031,2.968,5.707,5.05s-4,4.93-4.452,6.714a39.9,39.9,0,0,0-.742,4.473"/><path class="cls-4" d="M108.547,54.352s14.031,7.445,19.042,9.02,24.2,12.026,24.2,16.178-1.718,5.584-1.718,5.584l5.441,5.154a44.111,44.111,0,0,1-3.58,6.157c-2.434,3.579-4.867,4.152-4.867,4.152l-3.437-2.864A18.14,18.14,0,0,1,130.453,95.3c-7.016-4.152-16.609-16.321-16.609-16.321s-10.594-.287-10.594-10.452V52.934Z"/><path class="cls-5" d="M149.933,85.976a1.021,1.021,0,0,1-.062.983,82.744,82.744,0,0,1-3.84,7.762A4.968,4.968,0,0,1,144.007,97"/><path class="cls-5" d="M146.981,85.105a2.768,2.768,0,0,0-1.079-1.7,14.827,14.827,0,0,0-9.722-3.745"/><path class="cls-5" d="M145.4,89.088c-.02.166-.274.124-.417.038a16.262,16.262,0,0,0-7.52-2.333"/><path class="cls-5" d="M144.34,93.474c-1.8-.113-3.623.185-5.407-.091a8.511,8.511,0,0,1-3.893-1.68"/><path class="cls-4" d="M67.4,48.114s-5.207,7.444-8.5,7.014a8.435,8.435,0,0,0-6.013,2.005s3.436,15.033,0,18.612-6.729,6.586-6.729,6.586,1.145,3.866,0,12.026-1.862,10.309,0,20.761,5.3,13.171,5.3,13.171l-.859,4.439a195.926,195.926,0,0,1,22.621,1.432c10.452,1.431,19.329-.144,25.485-.86s14.317-1.145,14.317-1.145V125.14a35.844,35.844,0,0,0,3.436-12.17c.43-6.3-2.147-14.031-2.434-16.608S111.872,80.9,111.872,80.9s-5.584-14.174-6.157-17.9-1.431-9.736-1.431-9.736l-7.03-5.153Z"/><path class="cls-4" d="M60.061,44.129s2.846,1.856,1.557,4.29,0,5.405,0,5.405,2.864-1.13,8.877.016,7.493,4.537,7.493,4.537-.771-12.457-.771-12.886S60.061,44.129,60.061,44.129Z"/><path class="cls-4" d="M51.453,57.705s-14.031,7.445-19.042,9.02S8.215,78.752,8.215,82.9s1.718,5.583,1.718,5.583L4.492,93.642A44.074,44.074,0,0,0,8.072,99.8c2.434,3.579,4.867,4.152,4.867,4.152l3.437-2.863a18.14,18.14,0,0,0,13.171-2.434C36.563,94.5,46.156,82.331,46.156,82.331S56.75,82.045,56.75,71.879s-2.29-15.8-2.29-15.8Z"/><path class="cls-6" d="M95.586,44.713S83.708,69.589,84.26,78.465s3.7,24.626,2.7,31.785-1.375,24.491-1.375,24.491l-8.184.707S76.8,126,76.8,114.258s1.288-14.308,1.288-21.972S73.5,77.32,74.79,70.877,80.245,56.37,80.245,56.37l8.3-11.243Z"/><path class="cls-6" d="M51.453,106.241s7.588,2.577,12.313,3.15a30.3,30.3,0,0,0,8.017,0v5.3l-10.165,3.723-10.165-4.582Z"/><path class="cls-6" d="M65.77,68.73s-2.863,7.588-5.3,11.024S54.46,87.2,54.46,87.2l2.29.859s2.721-3.436,4.868-6.443S65.77,72.6,65.77,72.6Z"/><path class="cls-5" d="M10.067,89.33a1.021,1.021,0,0,0,.062.983,82.849,82.849,0,0,0,3.84,7.761,4.97,4.97,0,0,0,2.024,2.276"/><path class="cls-5" d="M13.019,88.458a2.766,2.766,0,0,1,1.079-1.7,14.817,14.817,0,0,1,9.722-3.745"/><path class="cls-5" d="M14.6,92.442c.02.166.274.124.417.037a16.262,16.262,0,0,1,7.52-2.333"/><path class="cls-5" d="M15.66,96.828c1.8-.114,3.623.185,5.407-.092a8.51,8.51,0,0,0,3.893-1.679"/><ellipse class="cls-7" cx="83.679" cy="60.921" rx="1.336" ry="1.967"/><ellipse class="cls-7" cx="61.457" cy="112.988" rx="1.342" ry="1.879"/><ellipse class="cls-7" cx="81.841" cy="126.679" rx="1.682" ry="1.825"/><ellipse class="cls-7" cx="82.624" cy="92.493" rx="1.867" ry="2.347"/><ellipse class="cls-7" cx="61.457" cy="84.605" rx="1.396" ry="1.591"/><ellipse class="cls-7" cx="66.353" cy="78.394" rx="1.396" ry="1.591"/><path class="cls-6" d="M94.773,68.586s2.863,7.589,5.3,11.025,6.013,7.445,6.013,7.445l-2.29.859s-2.721-3.436-4.868-6.443-4.152-9.02-4.152-9.02Z"/><ellipse class="cls-7" cx="99.086" cy="84.462" rx="1.396" ry="1.591"/><ellipse class="cls-7" cx="94.19" cy="78.251" rx="1.396" ry="1.591"/><path class="cls-6" d="M91.41,109.973s7.994-.573,12.57-1.88a30.3,30.3,0,0,0,7.388-3.114l2.058,4.881-7.922,7.379-11.146-.274Z"/><ellipse class="cls-7" cx="103.25" cy="112.304" rx="1.342" ry="1.879" transform="translate(-35.513 48.92) rotate(-22.855)"/><path class="cls-5" d="M51.523,128.246a82.675,82.675,0,0,0,25.347,2.125"/><path class="cls-5" d="M112.99,125.305a20.78,20.78,0,0,1-11.034,4.828,61.92,61.92,0,0,1-12.2.211"/><path class="cls-6" d="M75.442,66.7s2.006-3.612,0-9.168-5.478-12.815-5.478-12.815l7.789.4L79,58.955Z"/><path class="cls-4" d="M94.773,44.713l8.988-.584a47.485,47.485,0,0,0-.511,5.7c-.029,2.6.511,3.268.511,3.268L90.747,55.705Z"/><path class="cls-1" d="M73.405,54.678s-.65-.488-1.622,1.027-3.24,5.527-4.034,4.138-1.774-2.24-1.979-.888-.976,3.82-1.594,2.894.487-2.7-1.377-2.894-.834,2.122-2.738,1.2a11.384,11.384,0,0,1-3.311-2.623,6.815,6.815,0,0,1-2.913,0c-.952-.395-1.372.789-2.384-1.072s-1.783-2.169-1.475-4.329-2.777-1.389-2.623-3.4-.772-3.406,1.7-4.018,3.407.678,5.408-.584a11.932,11.932,0,0,0,2.746-2.188s4.062-3.2,5.593-2.991,7.165,5.763,7.165,5.763-3.606-.463-5.007,0-5.671-2.346-4.214.315c1.551,2.833,1.551,2.833.714,4.889s-.367,3.907,1.793,3.753a20.75,20.75,0,0,1,4.5-.227c1.59.2,2.536-.973,4.034-1.162S73.405,54.678,73.405,54.678Z"/><path class="cls-1" d="M91.907,52.934l-1.16,3.522s1.671-2.306,2.751,0,.626,3.154,2.088,2.5.431-3.725,2.1-2.5,1.334,4,2.738,1.921-.236-3.415,2.822-3.058,8.132,1.464,8.6.756,1.072-3.844,0-4.822,3.713-2.138,2.478-3.564-1.658-1.218-.906-3.56-1.1-6.009-2.335-5.179-2.767-3.491-5.008-2.256-3.054.463-4.27,1.389-2.85,2.315-2.727,3.4-1.4,2.651-1.4,2.651h6.071s.077,2.208,0,3.56a24.91,24.91,0,0,1-1.119,4.375,16.675,16.675,0,0,1-5.388,1.451A36.594,36.594,0,0,1,91.907,52.934Z"/><path class="cls-8" d="M134.973,10.371s-3.213-3.429-1.333-4.35,2.705,3.59,2.705,3.59,1.159-4.8,2.763-4.075c2.944,1.324-1.869,4.826-1.869,4.826s4.428-2.41,4.746.022-4.46.495-4.46.495,4.85,1.717,4.364,3.779-4.805-2.418-4.805-2.418,3.156,4.728.791,4.881c-2.119.137-1.9-4.507-1.9-4.507s-1.235,5.018-3.275,3.9c-2.392-1.3,2.307-4.465,2.307-4.465s-5.512,1.161-4.878-1.58C130.653,8.212,134.973,10.371,134.973,10.371Z"/><path class="cls-8" d="M25.089,9.437s.335-4.687,2.288-3.932-.8,4.423-.8,4.423,4.308-2.405,4.868-.738c1.027,3.06-4.812,1.9-4.812,1.9s4.775,1.615,3.206,3.5-3.391-2.939-3.391-2.939,2.032,4.727.187,5.77-1.486-5.169-1.486-5.169S23.821,17.783,22.1,16.15c-1.539-1.462,2.02-4.453,2.02-4.453s-4.523,2.5-5.091.247c-.665-2.642,4.846-1.338,4.846-1.338s-4.595-3.259-2.153-4.654C23.741,4.8,25.089,9.437,25.089,9.437Z"/><path class="cls-9" d="M28.266,12.3C46.7,23.417,76.879,25.959,94.99,22.782c26.491-4.648,42.3-12.073,42.3-12.073"/></svg>