<svg id="word" xmlns="http://www.w3.org/2000/svg" xmlns:xlink="http://www.w3.org/1999/xlink" viewBox="0 0 160 160"><defs><style>.cls-1{fill:#d8b47a;}.cls-1,.cls-10,.cls-11,.cls-12,.cls-13,.cls-14,.cls-15,.cls-16,.cls-17,.cls-2,.cls-3,.cls-4,.cls-5,.cls-6,.cls-7,.cls-9{stroke:#9c4c9c;stroke-width:0.51px;}.cls-2{fill:#f1d380;}.cls-3{fill:#fde1d3;}.cls-4{fill:#fbe2d4;}.cls-5{fill:none;}.cls-5,.cls-7{stroke-linecap:round;}.cls-6{fill:url(#linear-gradient);}.cls-16,.cls-7{fill:#fff;}.cls-8{fill:#9c4c9c;}.cls-9{fill:#898ac3;}.cls-10{fill:#d47eb1;}.cls-11{fill:#d5dd26;}.cls-12{fill:#b9bbbd;}.cls-13{fill:#28aae1;}.cls-14{fill:#f5ec6e;}.cls-15{fill:#81c5ec;}.cls-17{fill:#5a90cc;}</style><linearGradient id="linear-gradient" x1="4312.435" y1="657.48" x2="4319.522" y2="657.48" gradientTransform="matrix(-0.796, -0.606, -0.606, 0.796, 3923.315, 2140.553)" gradientUnits="userSpaceOnUse"><stop offset="0" stop-color="#882a21"/><stop offset="1" stop-color="#d14d56" stop-opacity="0"/></linearGradient></defs><rect class="cls-1" x="43.462" y="123.048" width="79.745" height="25.891"/><path class="cls-2" d="M43.462,123.048l15.746-10.416h54.349l9.651,10.416Z"/><path class="cls-3" d="M66.1,41.984a8.9,8.9,0,0,1-2.723-1.844,18.657,18.657,0,0,0-2.866-2.92c-.516-.288-1.587-3.655-1.82-2.549s-.587,3.238-.268,3.441-3.273-1.382-3.259-.531.6,3.857.6,3.857,4.955,1.716,5.839,1.621,3.705,3,4.375,4.05"/><path class="cls-4" d="M94.007,55.805s-1.541,2.349-2.5,3.862-4.837,4.316-6.255,2.444.692-4.789.692-4.789l3.189-5.537"/><path class="cls-4" d="M100.238,30.537s-5.715,2.274-6.942,3.376-3.674,4.446-4.534,5.149-4.016,3.921-4.338,7.5c-.167,1.87,1.082,5.8,2.632,8.115a8.282,8.282,0,0,0,6.509,3.17c3.967-.277,10.723-4.518,12.345-6.773s4.914-9.419,3.235-12.8S102.578,30.549,100.238,30.537Z"/><path class="cls-5" d="M90.812,46.3c1-.627,1.494-.149,1.464,1.164"/><path class="cls-6" d="M88.845,45.689a3.766,3.766,0,0,0,1.576,3,9.712,9.712,0,0,0,3.9,1.51,10.515,10.515,0,0,0-1.936.943c-.863.566-2.889.93-3.662-.365S88.845,45.689,88.845,45.689Z"/><path class="cls-7" d="M98.071,49.32s2.319-1.652.875-3.057c-.882-.861-3.378-.448-3.186,1.546S98.071,49.32,98.071,49.32Z"/><path class="cls-7" d="M90.965,42.508s2.3-1.642.867-3.033c-.874-.859-3.348-.448-3.156,1.527S90.965,42.508,90.965,42.508Z"/><path class="cls-5" d="M101.578,46.23a2.3,2.3,0,0,0-1.645-2.341"/><path class="cls-5" d="M94.209,39.173c.253-.826-.4-1.486-1.331-1.712"/><path class="cls-8" d="M97.2,47.912a1.065,1.065,0,0,0-.1,1.4c.334.28.905.114,1.286-.375a1.056,1.056,0,0,0,.095-1.4C98.154,47.258,97.577,47.424,97.2,47.912Z"/><path class="cls-8" d="M90.107,41.211a1.028,1.028,0,0,0-.065,1.39.96.96,0,0,0,1.307-.344,1.013,1.013,0,0,0,.067-1.378A.957.957,0,0,0,90.107,41.211Z"/><path class="cls-9" d="M107.17,49.714c2.045,1.189,4.6-.127,6.324-1.733s3.326-3.624,5.619-4.09c1.809-.368,3.65.327,5.482.592a11.881,11.881,0,0,0,7.572-1.448c-5.383.831-10.681-2.266-14.673-6.1-1.8-1.727-3.478-3.655-5.648-4.853a20.147,20.147,0,0,0-7.616-1.909c-3.539-.395-7.715-.5-9.928,2.327-.767.981-1.587,2.409-2.785,2.094,0,0,4.053-1.329,7.492-.256C107.648,37.036,107.17,49.714,107.17,49.714Z"/><path class="cls-10" d="M132.158,39.957s-3.032,1.113-2.865,2.207,1.215.58.659,1.817,1.4,2.028,1.4,2.028,1.13.9,1.7.484,1.791-.3,2.078-1.384.922-.9.486-1.839.006-1.743-.863-2.34S132.742,38.612,132.158,39.957Z"/><path class="cls-9" d="M88.266,39.3a12.826,12.826,0,0,1,.3-5.15c.744-2.812,5.7-5.585,5.7-5.585s.646,1.063,4.221,2.109,7.515,1.239,9.919,6.81,1.381,9,.9,10.377-.026,6.274-.026,6.274l-7.992.7s6.209-7.177,1.146-13.041-7.136-5.215-10.3-5.033C89.721,36.9,88.266,39.3,88.266,39.3Z"/><path class="cls-3" d="M114.689,66.363l3.577-1.174a2.918,2.918,0,0,0,1.922-1.975c.373-1.495,1.578-.111,1.227.854s-.747,1.815-.747,1.815,4.762-1.455,4.986-.07c.192,1.191-3.573,1.389-3.573,1.389s4.4.974,4.227,1.663c-.248.968-4.362.557-4.362.557s3.208,1,2.827,2.162-3.667-.661-3.667-.661,2.007,1.528,1.488,2.263-3.063-1.282-3.063-1.282a26.649,26.649,0,0,1-2.925-.853,5.4,5.4,0,0,1-2.29-1.673l-4.385.043-.2-3.39Z"/><path class="cls-11" d="M70.433,63.214s-5.765-8.471-8.968-9.752-2.492-1.5-5.908-1.5-12.528,4.485-12.528,4.485l.5,4.128s8.968-5.054,13.239-1.21,9.4,11.1,9.4,11.1l5.765-.641Z"/><path class="cls-12" d="M46.44,8.6s6.981,16.608,9.544,19.6S57.621,34.03,58.9,37.02s2.136,16.8,2.136,18.293,1.708,18.791,4.484,23.7,2.349,7.047,6.406,12.172,5.423,5.992,5.637,9.409,1.531,7.406.25,6.125-.386-3.943-3.375-8-5.074-6.68-8.064-10.951-7.758-20.357-7.758-23.56S55.7,37.376,55.059,33.745s-7.9-12.385-7.9-14.52-4.718-10.5-4.718-10.5Z"/><path class="cls-11" d="M67.657,68.338s-11.531-4.484-14.734-3.416-3.63,5.552-2.135,7.9,3.843,7.26,3.843,7.26l4.7-.213s-4.7-5.766-1.922-6.62,3.844,3.844,6.62,6.62,11.1,3.2,11.1,3.2-.427-7.9-1.281-8.542S67.657,68.338,67.657,68.338Z"/><path class="cls-3" d="M55.868,36.343a.782.782,0,0,0-1.109.258c-.378.694.283,1.391.827,1.56s1.409.323,1.446-.072C57.12,37.058,55.868,36.343,55.868,36.343Z"/><path class="cls-3" d="M56.766,38.485s1,.692.659,1.107-1.783-.1-2.421-.414c-.89-.442-1.037-1.832-.138-1.483S56.766,38.485,56.766,38.485Z"/><path class="cls-3" d="M56.681,40.005s1.012.381,1.04.67.007.6-.736.509a3.783,3.783,0,0,1-2.017-1.072c-.119-.279.227-.95.743-.664S56.681,40.005,56.681,40.005Z"/><path class="cls-3" d="M55.523,40.88a.886.886,0,0,0,.221,1.125c.246.187,1.227.652,1.623.4s.661-.466.322-.7S55.838,40.33,55.523,40.88Z"/><path class="cls-13" d="M86.235,56.38s-1.708,3.2.641,4.7,4.27-1.139,4.27-1.139a23.823,23.823,0,0,0,10.464,3.915c5.552.427,12.812,1.5,12.812,1.5L112.5,71.114a84.791,84.791,0,0,0-11.531-3.843,19.99,19.99,0,0,0-8.541.427,32.58,32.58,0,0,0-6.193,8.541c-2.349,4.912-9.467,7.189-9.467,7.189l-5.979,2.848a70.285,70.285,0,0,0-.783-7.9c-.64-3.844-5.765-6.193-4.7-8.969a7.591,7.591,0,0,0,.072-5.2s10.605-2.7,12.1-5.267a27.182,27.182,0,0,1,4.983-5.481Z"/><path class="cls-13" d="M64.454,39.724s6.62,6.834,9.4,8.755,8.826,4.983,8.826,4.983l-4.2,4.271s-8.471-5.2-11.247-7.332a14.217,14.217,0,0,1-4.057-5.979Z"/><path class="cls-14" d="M56.767,75.812s2.838.408,2.809,2.58c-.006.423-.372,3.105-.372,3.105s-1.325,3.464-2.49,3.093a23.065,23.065,0,0,1-4.047-2.655,8.323,8.323,0,0,0-.6-2.208c-.423-.83,1.139-2.42,1.139-2.42a1.732,1.732,0,0,0,2.325,1.185C57.913,77.694,56.933,76.825,56.767,75.812Z"/><path class="cls-15" d="M60.152,81.191s2.616,3.1.787,4.869-4.2,1.708-5.347,2.653-5.67,1.5-6.758,1.149-4.48-1.781-4.473-3.171.7-1.693,1.8-1.952,3.963-.39,4.519-1.086a6.027,6.027,0,0,1,1.579-1.238s.864-2.773,2.063-1.694a8.642,8.642,0,0,1,1.893,2.962l1.44-.237a5.6,5.6,0,0,1,.463-2.033,3.973,3.973,0,0,1,1.7-1.37Z"/><path class="cls-16" d="M53.047,85.108a2.69,2.69,0,0,0-1.231-1.266c-.826-.351-2.368-.293-1.948.275a4.237,4.237,0,0,0,1.736.964S53.865,86.587,53.047,85.108Z"/><path class="cls-16" d="M54.133,84.2a6.386,6.386,0,0,0-.631-1.8.853.853,0,0,0-1.158-.4c-.53.151-.975.939-.975.939s-.02-.211.912.088,1.3,1.575,1.4,1.725S54.254,85.373,54.133,84.2Z"/><path class="cls-16" d="M61.554,84.484a7.506,7.506,0,0,1-1.691,1.782,11.2,11.2,0,0,1-3.319,1.44c-1.056.1-2.116,1.21-3.323,1.347s-3.551.609-5.177.09a9.729,9.729,0,0,1-3.631-2.585s-.675.16.225,1.379a6.409,6.409,0,0,0,4.4,2.511c1.708.079,4.6-.16,5.482-.719A10.031,10.031,0,0,1,56.9,88.284a13.773,13.773,0,0,0,4.086-1.805C62.253,85.345,61.554,84.484,61.554,84.484Z"/><path class="cls-17" d="M59.827,80.043a2.234,2.234,0,0,0-1.5.913c-.539.815-.977,2.65-.671,2.49s.53-.852,1.141-1.352a5.821,5.821,0,0,1,1.389-.807l-.362-1.244"/><path class="cls-17" d="M48.044,89.143s-1.419-1.006-1.541-1.712.121-2.489-1.057-2.463c-1.327.038-1.033,1.59-1.033,1.59s1.008.95,1.736,1.541A6.51,6.51,0,0,0,48.044,89.143Z"/><path class="cls-14" d="M48,58.314s-.226,2.858-2.4,2.968c-.423.021-3.123-.173-3.123-.173s-3.541-1.1-3.245-2.287a23.043,23.043,0,0,1,2.391-4.209,8.281,8.281,0,0,0,2.165-.738c.8-.475,2.488.982,2.488.982a1.733,1.733,0,0,0-1.034,2.4C46.192,59.577,47,58.544,48,58.314Z"/><path class="cls-15" d="M42.845,62.035s-2.928,2.808-4.81,1.1-1.972-4.082-2.988-5.166-1.855-5.563-1.579-6.671,1.492-4.585,2.88-4.666,1.734.59,2.063,1.675.642,3.93,1.372,4.441a6.035,6.035,0,0,1,1.336,1.5s2.823.686,1.823,1.952a8.673,8.673,0,0,1-2.836,2.078l.329,1.421a5.6,5.6,0,0,1,2.058.333,3.973,3.973,0,0,1,1.476,1.614Z"/><path class="cls-16" d="M38.481,55.2a2.686,2.686,0,0,0,1.186-1.309c.3-.847.141-2.382-.4-1.927a4.235,4.235,0,0,0-.851,1.794S37.058,56.105,38.481,55.2Z"/><path class="cls-16" d="M39.454,56.221a6.376,6.376,0,0,0,1.755-.745.852.852,0,0,0,.326-1.181c-.185-.519-1-.913-1-.913s.209-.034-.03.916-1.488,1.4-1.631,1.5S38.3,56.416,39.454,56.221Z"/><path class="cls-16" d="M39.648,63.645a7.5,7.5,0,0,1-1.886-1.574,11.209,11.209,0,0,1-1.65-3.221c-.164-1.047-1.342-2.034-1.556-3.23s-.834-3.5-.42-5.16a9.716,9.716,0,0,1,2.348-3.789s-.2-.664-1.362.313A6.4,6.4,0,0,0,32.9,51.532c.03,1.709.453,4.579,1.067,5.425a10.028,10.028,0,0,1,1.594,2.285,13.778,13.778,0,0,0,2.062,3.963C38.833,64.4,39.648,63.645,39.648,63.645Z"/><path class="cls-17" d="M43.969,61.638A2.233,2.233,0,0,0,42.963,60.2c-.849-.486-2.707-.8-2.528-.511s.884.475,1.422,1.053a5.823,5.823,0,0,1,.894,1.334l1.218-.44"/><path class="cls-17" d="M34.136,50.46s.913-1.481,1.61-1.648,2.492-.038,2.39-1.211c-.122-1.323-1.652-.93-1.652-.93S35.6,47.738,35.057,48.5A6.5,6.5,0,0,0,34.136,50.46Z"/></svg>