<svg id="word" xmlns="http://www.w3.org/2000/svg" viewBox="0 0 160 160"><defs><style>.cls-1{fill:#f4b93f;}.cls-1,.cls-2,.cls-3,.cls-4,.cls-5,.cls-6,.cls-7{stroke:#9d4b9c;stroke-miterlimit:10;stroke-width:0.75px;}.cls-2{fill:#e5cc6f;}.cls-3{fill:none;}.cls-4{fill:#ffe5c3;}.cls-5{fill:#d82b34;}.cls-6{fill:#fff;}.cls-7{fill:#f58d57;}.cls-8{fill:#9d4b9c;}</style></defs><path class="cls-1" d="M55.264,76.687c.207-.536-13.653-10.666-17.338-11.56s-6.839-.57-3.631,4.129,6.3,10,6.3,10-17.459-5.944-18.9-3.128,7.062,5.17,8.244,5.555,13.35,3.107,13.35,3.107-19.367,1.541-18.927,4.158,20.388-1.169,20.388-1.169-21.612,4.05-19.075,6.776S45.451,96.5,45.451,96.5s-13.8.8-6.8,4.463,9.064,1.969,9.064,1.969-10.393,1.38-6.1,3.332a26.6,26.6,0,0,0,8.607,2.172s13.622,9.171,18.025,10.385,11.083,3.311,19.485,3.29,23.336-2.846,30.491-7.424,9.762-11.986,11.223-14.613,3.812-10.725,3.595-12.7-2.056-9.921-2.056-9.921L102.762,66.783s-12.466,7.6-16.229,8.923-12.99,2.012-16.465,1.746S55.264,76.687,55.264,76.687Z"/><path class="cls-2" d="M96.4,72.261l-9.794,2.8C83.182,76.044,71.7,76,68.931,76s-14.226-2.454-15.066-2.363-3.358.8-.343,4.93,7.767,9.108,9.775,8.632,7.57,1.477,8.9,1.449.227,2.284-4.778,3.155-13.385-.09-9.974,2.924,11.012,5.067,13.474,5.049a11.634,11.634,0,0,0,4.222-.8s-7.745,3.646-6.311,4.968,4.558,2.105,10.2,0a30.79,30.79,0,0,1,9.986-2.066s-10.357,5.392-4.779,5.392,8.977,2.054,11.68,0a28.374,28.374,0,0,1,5.932-3.326s-5.137,4.457,0,1.983,11.294.169,14.171-6.107c.726-1.583,4.965-20.143,4.965-20.143L101.263,66.567Z"/><path class="cls-3" d="M82.122,78.425s-15.346,1.412-8.67,4.779a23.576,23.576,0,0,0,13.081,2.34s-10.9,5.116-6.352,6.3a7.789,7.789,0,0,0,7.488-2.1S76.4,97,83.813,96.822s9.441-4.208,9.441-4.208S88.585,100.4,91.1,99.3s7.994-4.151,7.994-4.151-6.643,4.134-1.063,4.31,6.754-3.016,7.048-3.474"/><path class="cls-4" d="M131.566,47.887s1.591-7.536-5.89-8.269-10.625-1.333-15.538,2.483-4.834,12.567-6.166,15.846-4.279,9.192-5.526,10.647-5.788,3.412-8.191,3.741,7.981,1.567,9.477,1.011A4.146,4.146,0,0,0,101.739,72s-4.11,4.624-5.821,6.35l-1.711,1.726s7.289-1.38,8.267-2.876,1.239-1.807.925-.2-2.532,8.556-2.532,8.556,6.1-4.5,5.627-4.9-3.732,6.063-3.732,6.063,7.56-2.255,7.287-3.078-4.961,8.282-1.638,5.6,7.953-5.751,7.953-5.751l-2.181,7.485,3.2-4.194,1.739,4.194,2.082-5.839,1.781,4.527,2.113-7.049s.332,6.894.576,8.361,1.423-5.283,1.934-6.751,2.985,4.3,2.951,7.08.417,6.913.417,6.913,4.051-3.584,3.847-10.787-1.331-11.022-3.847-18.783-2.685-11.42-2.127-13.189S131.566,47.887,131.566,47.887Z"/><path class="cls-5" d="M115.026,38.34s-1.785-7.72.608-8.4,5.693,5.185,5.693,5.185,1.99-6.546,5.054-4.337,1.667,6.507,1.667,6.507,1.638-3.871,3.352-2.616.426,4.615.426,4.615,1.629-1.391,2.706-.761-.733,1.846-.733,1.846,1.975.046,1.512.879-3.449,2.492-3.449,2.492-2.391-3.692-6.125-4.314a25.561,25.561,0,0,0-11.283.793Z"/><path class="cls-5" d="M126.968,52.2s-4.626,7.6-1.605,9.956,4.689-3.874,4.689-3.874.315,7.91,3.409,6.934.986-6.606.986-6.606l-1.068-6.134Z"/><path class="cls-6" d="M126.676,44.548s-2.578-2.127-3.8.575.872,3.393,1.589,3.488S128.607,47.29,126.676,44.548Z"/><path class="cls-7" d="M129.414,47.943s-2.022,1.01-1.8,2.721.389,2.675.389,2.675,4-1.674,5.38-.864,5.1.577,5.1.577-1.868-3.385-4.388-4.275A14.44,14.44,0,0,0,129.414,47.943Z"/><path class="cls-8" d="M122.555,66.169a4.116,4.116,0,0,1,.279.669,5.9,5.9,0,0,1,.09,3.052,4.094,4.094,0,0,1-.24.683,5.779,5.779,0,0,1-.19-.693,9.5,9.5,0,0,1-.164-1.5,9.671,9.671,0,0,1,.076-1.507A6.192,6.192,0,0,1,122.555,66.169Z"/><path class="cls-8" d="M126.46,67.949a5.9,5.9,0,0,1,.538.957,7.989,7.989,0,0,1,.522,4.721,5.939,5.939,0,0,1-.317,1.051s-.02-.111-.037-.3l-.076-.776c-.054-.636-.124-1.467-.217-2.293s-.2-1.653-.288-2.286l-.095-.773C126.465,68.061,126.46,67.949,126.46,67.949Z"/><path class="cls-8" d="M130.122,75.706a5.767,5.767,0,0,1,.22.755,8.766,8.766,0,0,1,.175,1.665,8.654,8.654,0,0,1-.146,1.668,5.644,5.644,0,0,1-.209.759,5.661,5.661,0,0,1-.221-.755,8.732,8.732,0,0,1-.027-3.333A5.621,5.621,0,0,1,130.122,75.706Z"/><path class="cls-8" d="M122.887,74.093a4.362,4.362,0,0,1,.195.65A6.355,6.355,0,0,1,123,77.572a4.305,4.305,0,0,1-.236.636,4.362,4.362,0,0,1-.2-.65,6.323,6.323,0,0,1-.115-1.419,6.387,6.387,0,0,1,.2-1.41A4.463,4.463,0,0,1,122.887,74.093Z"/><path class="cls-8" d="M118.744,70.28a3.275,3.275,0,0,1,.212.708,4.584,4.584,0,0,1-.568,3.085,3.341,3.341,0,0,1-.453.585,1.863,1.863,0,0,1,0-.2c.015-.125.014-.311.04-.52.046-.42.131-.957.227-1.488s.214-1.063.321-1.472c.05-.2.117-.374.147-.5A1.912,1.912,0,0,1,118.744,70.28Z"/><path class="cls-8" d="M131.524,81.885a.26.26,0,0,1,.281-.018.932.932,0,0,1,.419.651,12.811,12.811,0,0,1,.185,2.007,12.656,12.656,0,0,1-.133,2.012,7.984,7.984,0,0,1-.2.916,8.041,8.041,0,0,1-.227-.91,12.706,12.706,0,0,1-.05-4.02.812.812,0,0,0-.078-.54A.23.23,0,0,0,131.524,81.885Z"/><ellipse class="cls-8" cx="125.617" cy="46.091" rx="1.278" ry="1.196"/></svg>