<svg id="word" xmlns="http://www.w3.org/2000/svg" xmlns:xlink="http://www.w3.org/1999/xlink" viewBox="0 0 160 160"><defs><style>.cls-1,.cls-11,.cls-16{fill:none;}.cls-2{opacity:0.16;}.cls-3{fill:#9c4c9c;}.cls-4{fill:#e1e2e3;}.cls-10,.cls-11,.cls-12,.cls-13,.cls-14,.cls-16,.cls-4,.cls-5,.cls-6,.cls-7,.cls-8,.cls-9{stroke:#9d4b9c;stroke-width:0.567px;}.cls-10,.cls-11,.cls-13,.cls-14,.cls-4,.cls-5,.cls-6,.cls-8,.cls-9{stroke-miterlimit:10;}.cls-5{fill:#3d87c2;}.cls-6{fill:#f8ec3b;}.cls-12,.cls-7{fill:#fde1d3;}.cls-8{fill:#28397f;}.cls-15,.cls-9{fill:#fff;}.cls-10{fill:#fbee37;}.cls-12,.cls-16{stroke-linecap:round;}.cls-13{fill:#f5b65d;}.cls-14{fill:#28aae1;}.cls-17{clip-path:url(#clip-path);}.cls-18{fill:#8fc8e9;}.cls-19{fill:#90c9e1;stroke:#9c4c9c;stroke-width:0.406px;}</style><clipPath id="clip-path"><rect class="cls-1" x="224" y="14" width="132" height="132"/></clipPath></defs><g class="cls-2"><path class="cls-3" d="M93.151,99.774l.006,0C93.11,99.771,93.1,99.779,93.151,99.774Z"/><path class="cls-3" d="M87.626,29.438l-.6.066S87.264,29.492,87.626,29.438Z"/><path class="cls-3" d="M88.458,74.258s.054-.076.13-.187A.161.161,0,0,0,88.458,74.258Z"/></g><path class="cls-4" d="M34.28,58.92c.01-.049.021-.1.031-.147a7.2,7.2,0,0,1,1.532-3.426c-.334-.024-.67-.04-1.01-.04A13.716,13.716,0,0,0,24.4,60.09a12.862,12.862,0,0,1,3.539-1.025A22.475,22.475,0,0,1,34.28,58.92Z"/><path class="cls-4" d="M42.76,76c.2.028.394.055.593.079.513.061,1.018.091,1.485.1a30.069,30.069,0,0,0,3.327-8.852c.057-.325.107-.625.15-.9a13.592,13.592,0,0,0-3.868-7.2,17.594,17.594,0,0,1-.317,4.463c-.519,2.381-3.551,10.042-4.208,11.692A18.923,18.923,0,0,0,42.76,76"/><path class="cls-5" d="M36.645,73.947a4.677,4.677,0,0,0,.631.382,18.021,18.021,0,0,0,2.646,1.046c.657-1.65,3.689-9.311,4.208-11.692a17.594,17.594,0,0,0,.317-4.463,13.758,13.758,0,0,0-3.8-2.627c-.264.875-.827,2.666-1.672,5C37.909,64.543,36.877,72.157,36.645,73.947Z"/><path class="cls-6" d="M39.922,75.375a18.021,18.021,0,0,1-2.646-1.046,4.677,4.677,0,0,1-.631-.382"/><path class="cls-6" d="M36.645,73.947a22.843,22.843,0,0,1-4.2-4.608c-.929.239-3.117.822-4.962,1.48a6.937,6.937,0,0,0,2.354,3.218c2.967,2.7,9.038,5.4,10.1,5.861a10.634,10.634,0,0,0,1.23-1.049A9.51,9.51,0,0,0,42.76,76a18.923,18.923,0,0,1-2.838-.625"/><path class="cls-5" d="M27.485,70.819c-.5.178-.973.361-1.389.544a6.465,6.465,0,0,0-1.751,1.181,22.123,22.123,0,0,0,4.279,5.771c2.114,1.782,6.736,3.246,8.051,3.638a23.641,23.641,0,0,0,3.26-2.055c-1.058-.459-7.129-3.16-10.1-5.861A6.937,6.937,0,0,1,27.485,70.819Z"/><path class="cls-6" d="M32.447,69.339a22.843,22.843,0,0,0,4.2,4.608c.232-1.79,1.264-9.4,2.333-12.354.845-2.334,1.408-4.125,1.672-5a13.7,13.7,0,0,0-4.807-1.246,7.2,7.2,0,0,0-1.532,3.426c-.01.051-.021.1-.031.147"/><path class="cls-6" d="M34.28,58.92c-.446,2.179-1.217,3.442-1.636,5.123.167-.014.257-.02.257-.02s-.09.006-.257.02a9.66,9.66,0,0,0-.277,1.876,14.442,14.442,0,0,0,0,3.305s.028.042.08.115"/><path class="cls-6" d="M36.675,81.953a6.038,6.038,0,0,1-.808.348c-.295.094-.656.2-1.034.3a13.726,13.726,0,0,0,11.657-6.45c-.43.027-1.005.048-1.652.032"/><path class="cls-6" d="M44.838,76.181c-.467-.011-.972-.041-1.485-.1-.2-.024-.4-.051-.593-.079a9.51,9.51,0,0,1-1.595,2.849,10.634,10.634,0,0,1-1.23,1.049l.161.069-.161-.069a23.641,23.641,0,0,1-3.26,2.055"/><path class="cls-5" d="M48.315,66.424c-.043.28-.093.58-.15.9a30.069,30.069,0,0,1-3.327,8.852c.647.016,1.222,0,1.652-.032a13.526,13.526,0,0,0,2.064-7.2A13.681,13.681,0,0,0,48.315,66.424Z"/><path class="cls-6" d="M24.345,72.544A6.465,6.465,0,0,1,26.1,71.363c.416-.183.89-.366,1.389-.544"/><path class="cls-6" d="M27.485,70.819c1.845-.658,4.033-1.241,4.962-1.48-.052-.073-.08-.115-.08-.115a14.442,14.442,0,0,1,0-3.305,9.66,9.66,0,0,1,.277-1.876,42.8,42.8,0,0,0-5.43.855c-2.557.564-5.083,2.843-6.1,3.847,0,.069-.005.138-.005.208A13.523,13.523,0,0,0,22.479,74.9a10.571,10.571,0,0,1,1.866-2.352"/><path class="cls-5" d="M32.644,64.043c.419-1.681,1.19-2.944,1.636-5.123a22.475,22.475,0,0,0-6.337.145A12.862,12.862,0,0,0,24.4,60.09a13.542,13.542,0,0,0-3.287,8.655c1.014-1,3.54-3.283,6.1-3.847A42.8,42.8,0,0,1,32.644,64.043Z"/><path class="cls-4" d="M36.675,81.953c-1.315-.392-5.937-1.856-8.051-3.638a22.123,22.123,0,0,1-4.279-5.771A10.571,10.571,0,0,0,22.479,74.9a13.727,13.727,0,0,0,12.354,7.7h0c.378-.1.739-.2,1.034-.3A6.038,6.038,0,0,0,36.675,81.953Z"/><path class="cls-7" d="M60.609,48.262a1.416,1.416,0,0,0-1.775,1.394c-.125,1.758.224.669.537,1.736s-.169,2.164,0,2.722.719.062.97-.942S61.318,48.5,60.609,48.262Z"/><path class="cls-7" d="M63.46,77.913l-4.846,6.039-6.635-.3a35.491,35.491,0,0,1,3.2-3.057,10.478,10.478,0,0,0,2.386-2.684Z"/><path class="cls-7" d="M96.45,101.527s1.4,6.043,3.04,7.907,2.614.65,4.131,1.917,3.679,2.535,4.946,4.325,2.386,1.938,4.175,5.517,2.834,5.219,2.834,5.219l-5.219,1.416s-.224,0-4.25-3.056-8.052-7.232-8.8-7.754-4.185-4.363-5.377-4.624-4.166-4.654-4.166-4.654Z"/><path class="cls-7" d="M71.513,104.8s-5.434,5.309-4.175,9.605a13.4,13.4,0,0,0,1.272,3.653,76.713,76.713,0,0,1,2.9,7.531s-2.911,3.578-4.438,2.236a18.137,18.137,0,0,1-3.031-4.232s-4.542-9.264-5.382-11.2.766-5.156,1.837-7.365a5.094,5.094,0,0,1,2.961-2.711l2.315,1.429,2.835,3.28Z"/><path class="cls-8" d="M68.949,91.939s-8.079,12.206-8.3,12.23.522-.272,2.908,1.367,5.219,2.682,6.337,4.174,2.163-.15,3.355-1.044,2.973-4.923,4.613-5.444,2.486,1.293,3.567,1.807,1.184,2.27,2.824,3.389,2.715,3.976,2.715,3.976a27.681,27.681,0,0,0,3.653-2.61,34.363,34.363,0,0,0,5.443-4.843,31.6,31.6,0,0,1,3.429-3.06L88.145,87.52a108.976,108.976,0,0,1-11.629,2.994C72.266,91.186,68.949,91.939,68.949,91.939Z"/><path class="cls-9" d="M67.909,133.768c.117-.026.236-.057.355-.089a10.7,10.7,0,0,0-1.975-.706c-.452-.075-.244-.05-.691-.8a2.872,2.872,0,0,0-1.765-1.641c-1.367-.671-1.317.3-2.013.845s-.944.2-1.043,0c-.05-.1-.237-.5-.411-.88a4.722,4.722,0,0,0-1.752.557,2.663,2.663,0,0,0-.856,1.907,5.732,5.732,0,0,0,1.7.8A24.07,24.07,0,0,0,67.909,133.768Z"/><path class="cls-10" d="M61.82,131.382c.7-.546.646-1.516,2.013-.845a2.872,2.872,0,0,1,1.765,1.641c.447.745.239.72.691.8a10.7,10.7,0,0,1,1.975.706c2.173-.583,4.758-2.178,5.535-4.5a12.777,12.777,0,0,0,.657-3.907,14.763,14.763,0,0,0-1.3-1.6,3.342,3.342,0,0,0-2.237-.721,12.736,12.736,0,0,0-.049,1.815,2.1,2.1,0,0,1-1.566,1.963c-.522.1-.646-.671-1.317-1.367s-1.541-.224-2.535.6-.5,1.193-.845,2.165-1.665,1.265-2.933,1.911a5.822,5.822,0,0,1-1.3.462c.174.378.361.781.411.88C60.876,131.581,61.124,131.929,61.82,131.382Z"/><path class="cls-9" d="M68.264,133.679c-.119.032-.238.063-.355.089a24.07,24.07,0,0,1-8.45,0,5.732,5.732,0,0,1-1.7-.8,2.768,2.768,0,0,0-.013.33c.074.944,1.342,1.416,4.423,1.938a20.257,20.257,0,0,0,9.643-1.242c2.883-1.044,2.634-2.635,2.684-4.374a8,8,0,0,1,.812-2.98,6.56,6.56,0,0,0-.851-1.363,12.777,12.777,0,0,1-.657,3.907c-.777,2.319-3.362,3.914-5.535,4.5"/><path class="cls-9" d="M108.289,134.889a3.871,3.871,0,0,0,2.871,2.155c1.492.373,5.981-.12,7.845-.791a2.253,2.253,0,0,0,1.587-2.056c-1.014.331-2.652.862-2.911.947C115.792,135.765,110.933,135.274,108.289,134.889Z"/><path class="cls-10" d="M109.561,132.376c1.372.528,1.79.161,1.864-.006a1.6,1.6,0,0,1,2.038-1.112,5.077,5.077,0,0,1,2.287,1.541l1.615-.2,3.256.1a15.725,15.725,0,0,0-2.138-5.619,7.937,7.937,0,0,0-3.585-3.132c-1.646-.671,0,1.314,0,1.314a7.035,7.035,0,0,0-3.5-.717,1.764,1.764,0,0,0-1.491,1.938l-.412.791-1.507-1.092-.839.674s.894.969,1.789,1.864.075,1.342,0,2.237a10.175,10.175,0,0,1-.492,1.759A1.3,1.3,0,0,1,109.561,132.376Z"/><path class="cls-9" d="M120.621,132.7l-3.256-.1-1.615.2a5.077,5.077,0,0,0-2.287-1.541,1.6,1.6,0,0,0-2.038,1.112c-.074.167-.492.534-1.864.006a1.3,1.3,0,0,0-1.113.343,4.8,4.8,0,0,0-.253,1.67,1.975,1.975,0,0,0,.094.5c2.644.385,7.5.876,9.392.255.259-.085,1.9-.616,2.911-.947.046-.42.027-.809.053-1.075A1.922,1.922,0,0,0,120.621,132.7Z"/><path class="cls-10" d="M111.667,129.54a1.688,1.688,0,0,1,.879-.962,4.255,4.255,0,0,1,1.286-.356,5.238,5.238,0,0,1,1.739-.04,2.174,2.174,0,0,1,1.447.89"/><path class="cls-10" d="M110.94,128.053a1.743,1.743,0,0,1,.482-.863,1.693,1.693,0,0,1,.657-.269q.99-.248,1.994-.438a1.844,1.844,0,0,1,.528-.047,1.451,1.451,0,0,1,.489.157,2.986,2.986,0,0,1,.985.786"/><path class="cls-11" d="M64.605,128.36a4.07,4.07,0,0,1,2.722.64,8.021,8.021,0,0,1,.808.64"/><path class="cls-11" d="M64.605,127.463q1.546-.1,3.1-.094a3.147,3.147,0,0,1,.867.087,3.292,3.292,0,0,1,1.172.752"/><path class="cls-7" d="M77.152,58.051s1.22,4.5,1.518,5.025,1.416,2.088,1.416,2.088L74.569,71.8s-3.877,2.535-3.8-.373.041-5.707.041-5.707l-.638-4.278Z"/><path class="cls-7" d="M60.529,40.741a4.281,4.281,0,0,0-.941,4.081c.816,2.2,1.13,2.637.941,5.462s-1.732,3.83-.552,6.278S65.928,61.71,68,62.15s7.032-.314,9.48-1.507,7.911-7.22,7.911-7.848,4.834-8.6,1.695-11.3-11.05-5.023-16.512-5.023S60.529,40.741,60.529,40.741Z"/><path class="cls-12" d="M64.743,53.305s-.122-2.053,1.2-1.513,1.316.757,1.316.757"/><path class="cls-13" d="M71.328,37.414s-.3.377-1.72,2.135A6.112,6.112,0,0,1,64.861,42a31.778,31.778,0,0,1-3.7.126s2.574-.942,2.825-1.382-1.633.582-2.825.691-2.541,0-2.495,1.256a5.968,5.968,0,0,0,.919,2.574A2.906,2.906,0,0,1,56.009,43a8.526,8.526,0,0,1,.565-5.587c.188-.377-1.067,2.2-1.256,2.637s-1.7-2.951,0-4.52a12.155,12.155,0,0,1,2.637-2.009l-3.434.376s3.028-.125,4.141-2.009,6.262-6.152,8.459-6.592,3.956-2.574,8.036-.439,4.355,2,5.7,1.439,6.092-1.325,6.777.056a28.647,28.647,0,0,0,2.272,3.464s2.233-1.487,3.15,1.789c2.009,7.176,3.442,8,1.558,10.956a29.115,29.115,0,0,0-3.453,6.055c-2.322,4.806-1.493.814-2.7.279s-1.57,1.3-3.265,2.063-.941,2.023-2.762.8.377.471,1.287-1.349,1.412-2.888,1.1-4.521.753-2.511-1.947-2.888-.693,2.781-.379,3.346-2.971-4.313-3.576-4.727c-1.192-.816,3.2,5.264,3.014,5.206s-1.57.005-3.516-3.2a17.713,17.713,0,0,1-2.26-4.708l-.251,4.332s1.825,2.636-.783-.628A57.814,57.814,0,0,1,71.328,37.414Z"/><path class="cls-9" d="M78.375,63.4s-3.433,7.769-3.955,8.033-2.961,1.413-3.057-.616-.859-6.884-.859-6.884l-1.555.812S66,71.876,66,76.452a50.864,50.864,0,0,0,1.272,10.559c.294,1.144-3.2,2.759-2.24,4.079s1.507.409,3.922.849S72.854,93.787,76.508,93s5.964.176,8.5-2.64,7.182,1.344,8.226-1.208-4.007-5.75-4.007-5.75-.566-3.539-.789-4.89-.671-3.2-.895-4.959-1.044-7.274-1.566-7.685-3.056-2.344-3.951-2.082-3.355-.7-3.355-.7Z"/><path class="cls-7" d="M53.767,83.218s-3.354-.235-3.28,1.107-1.075,3.03,1.119,4.3,3.28,1.663,3.728.918a1.7,1.7,0,0,0-.9-2.237c-.9-.522-2.148-1.715-1.559-2.088s.777-1.575,1.747-2.1S53.767,83.218,53.767,83.218Z"/><path class="cls-14" d="M68.949,64.748s-1.835-.554-5.489,4.069-5.07,5.793-5.741,7.034-1.765,2.8-1.765,2.8-.166-.74,2.216.6a8.271,8.271,0,0,0,5.29.671s2.383-.969,2.273-2.013S68.949,64.748,68.949,64.748Z"/><path class="cls-7" d="M76.433,77.689,64.2,85.592s-.216-.149-2.378,2.61-2.535,4.324-4.4,4.473-3.091-.887-5.144-.447c-2.479.53-5.07-1.044-1.79-1.268s4.7-2.162,4.7-2.908.746-1.267.075-2.013a3.468,3.468,0,0,0-1.789-1.192c-.82-.3-.457.212-1.491-1.193-1.727-2.346,3.1-.855,5.061-.6,1.635.215,3.148.828,4.732.306s4.321-3.091,5.365-4.2,6.74-5.125,6.74-5.125S76.359,75.9,76.433,77.689Z"/><path class="cls-14" d="M70.17,75.154s7.009-4.473,8.052-6.263,3.354-4.988,4.547-5.141,3.953.593,4.326,2.979.223,5.89-2.535,8.052a54.15,54.15,0,0,1-8.052,4.7c-.97.522-1.086-2.162-2.631-2.758S70.17,75.154,70.17,75.154Z"/><path class="cls-7" d="M50.285,86.037s-1.214.152-.692,1.941a7.39,7.39,0,0,0,.278.8,2.546,2.546,0,0,0,2.482,1.825c1.489.057,3.332,1.062,3.156,0s-4.477-2.383-4.477-2.383Z"/><path class="cls-7" d="M49.462,90.684c.79,1.242,1.815.986,3.03,1.185,1.542.253,1.735-.569,1.735-.569s-.035-.611-1.016-.742A7.5,7.5,0,0,1,49.786,88.9c-.447-.6-.324,1.782-.324,1.782"/><path class="cls-7" d="M85.139,49.571s1.1-2.337,2.122-1.734,2.273,1.671,1.9,2.864-1.13,2.036-1.506,3.121-1.695,2.278-2.512,2.09-1.379-.006-1.411-1.416"/><path class="cls-15" d="M84.815,90.7a21.69,21.69,0,0,1,4.067,4.836c1.581,2.711,3.953,7.23,3.953,7.23L94.9,106l1.066-1.191-10-15.054Z"/><polygon class="cls-15" points="87.005 89.357 93.375 99.341 96.469 104.483 97.494 103.37 87.995 89.357 87.005 89.357"/><path class="cls-9" d="M64.517,47.986a1.938,1.938,0,0,0-1.6-2.3c-1.923-.267-2.137,1.87-2.084,3.259a1.95,1.95,0,0,0,2.137,1.923C63.715,50.658,64.517,48.948,64.517,47.986Z"/><path class="cls-3" d="M63.139,48.794a1.148,1.148,0,0,0-.95-1.361c-1.139-.158-1.265,1.108-1.234,1.931A1.155,1.155,0,0,0,62.221,50.5C62.664,50.376,63.139,49.364,63.139,48.794Z"/><path class="cls-9" d="M74.288,48.255a2.025,2.025,0,0,0-1.675-2.4c-2.009-.279-2.233,1.954-2.177,3.405a2.039,2.039,0,0,0,2.233,2.01C73.451,51.047,74.288,49.26,74.288,48.255Z"/><path class="cls-3" d="M72.848,49.1a1.2,1.2,0,0,0-.992-1.422c-1.19-.165-1.322,1.158-1.289,2.018a1.207,1.207,0,0,0,1.322,1.19C72.352,50.753,72.848,49.7,72.848,49.1Z"/><path class="cls-16" d="M64.648,55.589a3.155,3.155,0,0,0,2.292.736,2.978,2.978,0,0,0,2.4-.634l.913-.623c.287-.2.608-.457.582-.8"/><path class="cls-16" d="M60.874,44.406a2.078,2.078,0,0,1,1.37-1.352c.512-.152,1.064-.1,1.588-.2"/><path class="cls-16" d="M71.232,42.822l.986-.079a2.1,2.1,0,0,1,.99.079,2.721,2.721,0,0,1,.8.664,1.275,1.275,0,0,0,.9.463"/><g class="cls-17"><path class="cls-18" d="M252.324,55.951a23.643,23.643,0,0,1-10.307-1.937c-5.826-2.385-3.025-1.872-8.627-2.88s-4.817,1.68-11.987,3.66-3.922.709-8.851-1.532-8.291.785-16.693,3.025-11.54-.784-11.54-.784-.439-2.473-6.039,1.933,2.914,3.285-13.892,5.078-14.564,3.645-12.772,5.928-5.153,5.875,6.723,6.023,15.834.8,32.49,0,15.461-.748,40.557-4.557,24.647-4.133,34.282-4.419,25.768,2.7,12.548-2.6A119.21,119.21,0,0,0,252.324,55.951Z"/><path class="cls-19" d="M153.467,76.7s16.247-5.495,20.548-2.867,7.168,6.929,11.946,5.734,10.513-5.256,15.531.478,10.274,8.841,15.769,7.646,6.929-6.451,12.185.239,12.425,10.513,14.1,7.885,1.673-8.363,11.23-.956"/></g></svg>