<svg id="word" xmlns="http://www.w3.org/2000/svg" viewBox="0 0 160 160"><defs><style>.cls-1,.cls-11{fill:none;}.cls-2{opacity:0.5;}.cls-3{fill:#898b8e;}.cls-10,.cls-11,.cls-12,.cls-13,.cls-14,.cls-15,.cls-16,.cls-17,.cls-3,.cls-4,.cls-6,.cls-7,.cls-8{stroke:#9d4b9c;stroke-miterlimit:10;}.cls-16,.cls-17,.cls-3,.cls-4{stroke-width:0.414px;}.cls-4{fill:#9c9ea1;}.cls-5{fill:#9d4b9c;}.cls-16,.cls-6{fill:#fdeadf;}.cls-10,.cls-11,.cls-12,.cls-13,.cls-14,.cls-15,.cls-6,.cls-7,.cls-8{stroke-width:0.517px;}.cls-7{fill:#231f20;}.cls-8{fill:#d6d031;}.cls-12,.cls-9{fill:#04b2e7;}.cls-10{fill:#5f6162;}.cls-13,.cls-17{fill:#fff;}.cls-14{fill:#565759;}.cls-15{fill:#fcbe77;}.cls-16{stroke-linecap:round;}.cls-18{fill:#9c4c9c;}</style></defs><rect class="cls-1" x="14" y="14" width="132" height="132"/><g class="cls-2"><path class="cls-3" d="M126.135,110.321,145.89,91.934s-.742-7.385-.742-10.55-7.13-33.76-7.13-33.76-5.166-19-6.09-20.8a6.208,6.208,0,0,0-5.2-3.466v3.466a2.777,2.777,0,0,1,2.971.905c1.188,1.507,4.9,15.593,4.9,15.593L142.325,75.2l.273,15.38L57.809,81.152l-2.08-11.373L31.072,29.237l-3.565-2.412H25.131s3.565,3.165,4.456,4.22S53.2,71.286,53.2,71.286l.859,8.8v0l.181.991-29.46,7.142L22.16,27.649l-2.822.231,2.377,64.054,34.929-7.987,84.31,9.328L126.135,105.2Z"/><polygon class="cls-4" points="19.338 24.565 19.338 28.634 122.125 26.825 123.016 110.321 126.135 110.321 126.729 23.359 19.338 24.565"/><path class="cls-5" d="M27.043,28.358q.354,7.348.6,14.7l.537,14.7.4,14.708.2,7.354.133,7.356-.335-7.349-.27-7.352-.537-14.7-.4-14.708Q27.152,35.715,27.043,28.358Z"/><path class="cls-5" d="M24.443,75.355q3.519-.764,7.049-1.46l7.069-1.352,7.087-1.258q3.546-.612,7.106-1.148-3.517.765-7.049,1.461l-7.069,1.351L31.55,74.206Q28,74.818,24.443,75.355Z"/><path class="cls-5" d="M36.239,37.375q10.776-.12,21.553-.137l21.554-.069,21.554.069,10.777.036,10.777.1-10.777.1-10.777.037-21.554.069-21.554-.07Q47.016,37.5,36.239,37.375Z"/><path class="cls-5" d="M68.5,27.773c2.463,1.2,5.019,2.476,6.843,4.622a36.34,36.34,0,0,1,4.518,6.966,52.546,52.546,0,0,1,3.566,7.508c.922,2.636,1.326,5.4,1.98,8.067A61.208,61.208,0,0,0,88,62.782c.989,2.576,2.111,5.1,3.263,7.614,2.313,5.018,4.75,10,6.66,15.194C96.9,83.021,95.751,80.5,94.56,78.009l-3.551-7.5c-1.174-2.5-2.319-5.027-3.334-7.605A61.008,61.008,0,0,1,85,55.032c-.637-2.7-1.017-5.448-1.9-8.052a52.3,52.3,0,0,0-3.483-7.49,36.4,36.4,0,0,0-4.427-6.962C73.443,30.366,70.936,29.04,68.5,27.773Z"/><path class="cls-5" d="M62.83,27.773c2.428,1.191,4.954,2.434,6.766,4.538a34.937,34.937,0,0,1,4.487,6.849,56.328,56.328,0,0,1,3.559,7.386,66.817,66.817,0,0,1,1.992,7.95,55.658,55.658,0,0,0,2.488,7.758c.964,2.548,2,5.07,3.068,7.578l3.224,7.519c1.049,2.519,2.065,5.052,3.009,7.611-1.007-2.535-2.084-5.04-3.2-7.531L84.937,69.94c-1.091-2.5-2.149-5.017-3.137-7.563a55.474,55.474,0,0,1-2.568-7.789,66.766,66.766,0,0,0-1.913-7.926,56.2,56.2,0,0,0-3.477-7.372,35.019,35.019,0,0,0-4.4-6.845C67.711,30.324,65.233,29.026,62.83,27.773Z"/><path class="cls-5" d="M74.621,27.773c2.483,1.211,5.055,2.5,6.884,4.671a36.922,36.922,0,0,1,4.537,7.031,50.3,50.3,0,0,1,3.567,7.579c.907,2.663,1.3,5.445,1.979,8.132a65.9,65.9,0,0,0,2.647,7.9c1,2.6,2.085,5.162,3.184,7.722,2.213,5.112,4.492,10.207,6.414,15.442-1.03-2.59-2.14-5.146-3.279-7.689l-3.387-7.643c-1.121-2.552-2.232-5.11-3.254-7.707a65.948,65.948,0,0,1-2.726-7.924c-.658-2.721-1.031-5.491-1.9-8.122A49.956,49.956,0,0,0,85.8,39.6a37.057,37.057,0,0,0-4.446-7.027C79.6,30.391,77.08,29.047,74.621,27.773Z"/><path class="cls-5" d="M80.9,27.773a20.907,20.907,0,0,1,3.283,2.595c1.011.963,2.169,1.755,3.145,2.78a31.954,31.954,0,0,1,4.685,6.958,59.5,59.5,0,0,1,3.667,7.556,67.518,67.518,0,0,1,2.048,8.144,57.727,57.727,0,0,0,2.576,7.942c.992,2.607,2.083,5.179,3.2,7.738,2.247,5.113,4.587,10.2,6.514,15.45-1.033-2.6-2.157-5.156-3.318-7.7L103.252,71.6c-1.142-2.551-2.255-5.118-3.273-7.726A57.714,57.714,0,0,1,97.323,55.9a67.215,67.215,0,0,0-1.969-8.12,59.224,59.224,0,0,0-3.585-7.544,32.011,32.011,0,0,0-4.59-6.95c-.931-1.027-2.076-1.854-3.067-2.844A20.892,20.892,0,0,0,80.9,27.773Z"/><path class="cls-5" d="M87.1,27.773c2.509,1.22,5.1,2.531,6.936,4.732a37.921,37.921,0,0,1,4.56,7.109,47.964,47.964,0,0,1,3.568,7.667c.885,2.7,1.276,5.5,1.98,8.21a75.6,75.6,0,0,0,2.7,7.966l2.969,7.9,2.968,7.9,2.907,7.923-3.1-7.851-3.036-7.875-3.034-7.875a74.921,74.921,0,0,1-2.783-7.985c-.688-2.744-1.055-5.542-1.907-8.207a47.7,47.7,0,0,0-3.483-7.644,38.035,38.035,0,0,0-4.47-7.106C92.124,30.42,89.581,29.056,87.1,27.773Z"/><path class="cls-5" d="M38.491,41.079q10.494-.224,20.989-.342l20.99-.275,20.992-.136,10.495-.066,10.5,0-10.495.2-10.494.139-20.99.274-20.992.136Q48.988,41.1,38.491,41.079Z"/><path class="cls-5" d="M60.1,27.92A72.222,72.222,0,0,1,65.587,33.5a34.332,34.332,0,0,1,4.538,6.385A17.49,17.49,0,0,1,71.407,43.6c.355,1.252.728,2.5,1.106,3.748l2.342,7.46q2.325,7.467,4.766,14.9c.824,2.471,1.631,4.956,2.55,7.386,1.034,2.382,2.168,4.739,3.248,7.11-1.142-2.346-2.332-4.66-3.435-7.033-.953-2.437-1.775-4.909-2.624-7.375q-2.513-7.41-4.9-14.861l-2.277-7.486q-.552-1.877-1.075-3.764a17.184,17.184,0,0,0-1.229-3.673,34.436,34.436,0,0,0-4.446-6.377A72.113,72.113,0,0,0,60.1,27.92Z"/><path class="cls-5" d="M92.287,27.354a38.52,38.52,0,0,1,7.045,4.887c2.1,1.905,4.092,4.208,4.7,7.091,1.271,5.57,2.8,11.086,4.422,16.564.8,2.743,1.635,5.477,2.563,8.178s2.041,5.331,3.063,8l3.134,7.988,3.073,8.011-3.261-7.936-3.2-7.959c-1.042-2.66-2.19-5.287-3.134-8s-1.813-5.433-2.634-8.175c-1.582-5.5-3.065-11.029-4.294-16.623-.565-2.8-2.5-5.084-4.571-7A38.435,38.435,0,0,0,92.287,27.354Z"/><path class="cls-5" d="M99.219,27.354a34.778,34.778,0,0,1,6.163,5.358,8.728,8.728,0,0,1,1.955,3.594l1.113,3.934,4.278,15.772c1.4,5.262,2.76,10.54,4.337,15.747l5.389,15.421c-1.913-5.1-3.865-10.181-5.652-15.338-1.625-5.207-3.03-10.47-4.473-15.724l-4.144-15.807-1.078-3.937a8.565,8.565,0,0,0-1.879-3.533A34.7,34.7,0,0,0,99.219,27.354Z"/><path class="cls-5" d="M105.357,27.124a16.9,16.9,0,0,1,4.533,5.493,39.129,39.129,0,0,1,2.8,6.6c1.45,4.56,2.6,9.195,3.8,13.816q1.7,6.959,3.31,13.937l1.6,6.979,1.513,7-3.383-13.917q-1.686-6.959-3.442-13.9c-1.154-4.629-2.262-9.279-3.661-13.833a39.324,39.324,0,0,0-2.72-6.589A16.8,16.8,0,0,0,105.357,27.124Z"/><path class="cls-5" d="M112.092,27.354a38.094,38.094,0,0,1,4.269,9.665,40.336,40.336,0,0,1,1.094,5.19c.279,1.735.615,3.465.96,5.191.668,3.459,1.414,6.9,2.147,10.35l2.22,10.34Q120.1,57.857,118.01,47.48c-.334-1.732-.658-3.466-.927-5.213a46.126,46.126,0,0,0-1.027-5.163,40.787,40.787,0,0,0-1.68-4.993A35.883,35.883,0,0,0,112.092,27.354Z"/><path class="cls-5" d="M117.437,26.912a39.159,39.159,0,0,1,2.25,5.193A49.716,49.716,0,0,1,122.454,48.8c-.112-1.882-.329-3.752-.593-5.613s-.6-3.711-1.02-5.54c-.384-1.839-.889-3.65-1.454-5.44C118.842,30.406,118.149,28.658,117.437,26.912Z"/><path class="cls-5" d="M55.946,27.92A41.636,41.636,0,0,1,66.49,39.337a19.59,19.59,0,0,1,.863,1.765c.233.614.469,1.23.664,1.846l1.235,3.7,2.471,7.4L76.532,68.88l2.4,7.419,2.341,7.439-2.534-7.376-2.472-7.4-4.941-14.8-2.405-7.419-1.2-3.709c-.192-.625-.417-1.225-.639-1.828-.247-.592-.527-1.175-.833-1.742a32.359,32.359,0,0,0-4.646-6.2A54.291,54.291,0,0,0,55.946,27.92Z"/><path class="cls-5" d="M49.509,27.92A59.746,59.746,0,0,1,60.926,38.81c.4.529.795,1.057,1.141,1.624a15.471,15.471,0,0,1,1,1.721,30.1,30.1,0,0,1,1.431,3.7l2.591,7.462,5.052,14.967,2.525,7.485,2.463,7.506-2.655-7.441-2.593-7.462L66.695,53.447l-2.527-7.485a29.55,29.55,0,0,0-1.38-3.67,15.123,15.123,0,0,0-.967-1.7c-.335-.562-.726-1.088-1.114-1.616a47.758,47.758,0,0,0-5.271-5.845A77.853,77.853,0,0,0,49.509,27.92Z"/><path class="cls-5" d="M45.051,28.185a91.153,91.153,0,0,1,11.3,10.967,23.21,23.21,0,0,1,4.225,6.655c.971,2.443,1.887,4.9,2.8,7.363l5.269,14.842,2.6,7.432L73.766,82.9,62.986,53.312c-.893-2.467-1.787-4.935-2.733-7.378a22.922,22.922,0,0,0-4.116-6.607c-1.668-2.018-3.48-3.918-5.343-5.762S47.028,29.912,45.051,28.185Z"/><path class="cls-5" d="M40.2,28.185A66.565,66.565,0,0,1,50.955,39.3a33.745,33.745,0,0,1,3.986,6.658c1.014,2.379,1.934,4.79,2.866,7.2,1.8,4.838,3.549,9.694,5.287,14.553L65.695,75c.857,2.433,1.669,4.883,2.592,7.292-1.931-4.787-3.667-9.648-5.451-14.489s-3.575-9.682-5.415-14.5c-.909-2.413-1.809-4.832-2.8-7.209a33.5,33.5,0,0,0-3.89-6.629,61.942,61.942,0,0,0-4.98-5.9A75.015,75.015,0,0,0,40.2,28.185Z"/><path class="cls-5" d="M35.251,28.358q4.285,6.213,8.437,12.518c2.767,4.2,5.547,8.4,8.2,12.679a29.164,29.164,0,0,1,1.823,3.328c.5,1.162.958,2.335,1.412,3.509.905,2.349,1.78,4.708,2.648,7.07l2.578,7.095,2.479,7.129L57.515,67.558c-.889-2.353-1.785-4.7-2.711-7.041-.464-1.167-.931-2.336-1.438-3.479a29.3,29.3,0,0,0-1.829-3.269c-2.609-4.3-5.351-8.516-8.078-12.743Z"/><path class="cls-5" d="M34.28,34.155q11.016-.237,22.031-.37l22.032-.3,22.033-.164,11.016-.08,11.018-.015-11.015.217-11.016.153-22.032.3-22.033.163Q45.3,34.164,34.28,34.155Z"/><path class="cls-5" d="M32.229,30.783Q43.5,30.491,54.762,30.3L77.3,29.887l22.536-.276,11.268-.136,11.269-.071-11.266.274-11.267.208L77.3,30.3l-22.536.275Q43.5,30.736,32.229,30.783Z"/><path class="cls-5" d="M41.237,45.593q10.14-.234,20.281-.365l20.283-.3,20.283-.16,10.142-.078,10.143-.013-10.141.216-10.141.15-20.282.3L61.521,45.5Q51.379,45.6,41.237,45.593Z"/><path class="cls-5" d="M44.307,50.641q9.76-.251,19.524-.4l19.524-.329,19.527-.19,9.763-.094,9.765-.028-9.762.231L102.886,50l-19.525.328-19.527.19Q54.071,50.637,44.307,50.641Z"/><path class="cls-5" d="M47.6,56.06q9.354-.251,18.71-.4l18.712-.328,18.714-.191,9.357-.093,9.358-.029-9.355.231-9.356.166-18.712.328-18.714.19Q56.962,56.055,47.6,56.06Z"/><path class="cls-5" d="M51.1,61.816q8.949-.24,17.9-.377l17.9-.31,17.9-.172,8.951-.083,8.952-.019-8.949.221-8.95.156-17.9.31-17.9.171Q60.056,61.821,51.1,61.816Z"/><path class="cls-5" d="M54.159,66.84q8.6-.052,17.191,0l17.19.068,17.19.2,8.595.105,8.594.17-8.6.033-8.595-.033L88.537,67.32l-17.189-.206Q62.753,67.033,54.159,66.84Z"/><path class="cls-5" d="M56.221,71.286q8.324.057,16.643.219l16.642.288,16.639.425,8.319.214,8.318.28-8.323-.077-8.32-.142L89.5,72.205l-16.638-.426Q64.539,71.59,56.221,71.286Z"/><path class="cls-5" d="M56.966,75.355q8.191.325,16.379.755l16.376.822,16.368.961,8.184.482,8.181.547-8.192-.345-8.188-.41L89.7,77.344l-16.368-.96Q65.145,75.925,56.966,75.355Z"/><path class="cls-5" d="M57.809,79.968q8.13.5,16.254,1.112l16.248,1.179,16.238,1.317,8.119.661,8.114.725-8.13-.523-8.124-.588L90.28,82.671,74.042,81.353Q65.921,80.717,57.809,79.968Z"/><path class="cls-5" d="M24.443,28.548q.445,7.392.787,14.789l.719,14.793.581,14.8.289,7.4.224,7.4-.426-7.393-.361-7.4-.719-14.792-.58-14.8Q24.644,35.951,24.443,28.548Z"/><path class="cls-5" d="M29.8,31.045q.306,6.9.508,13.8l.441,13.8.3,13.8.15,6.9.084,6.9L31,79.35l-.222-6.9-.44-13.8-.3-13.8Q29.864,37.949,29.8,31.045Z"/><path class="cls-5" d="M32.229,35.008q.312,6.319.521,12.641L33.2,60.293l.315,12.647.156,6.324.091,6.326-.293-6.32-.229-6.321-.452-12.644-.315-12.647Q32.3,41.334,32.229,35.008Z"/><path class="cls-5" d="M35.251,40.122q.287,5.6.505,11.2l.394,11.209.3,11.211q.132,5.607.187,11.215-.288-5.6-.505-11.2l-.394-11.209-.3-11.211Q35.307,45.732,35.251,40.122Z"/><path class="cls-5" d="M38.6,45.831q.215,4.794.361,9.589l.25,9.591.155,9.593q.06,4.8.044,9.595-.216-4.794-.362-9.589l-.25-9.59-.154-9.593Q38.583,50.63,38.6,45.831Z"/><path class="cls-5" d="M42.264,52.106q.114,3.9.159,7.793l.048,7.792-.048,7.793q-.042,3.9-.159,7.793-.114-3.9-.159-7.793l-.047-7.793.048-7.792Q42.148,56,42.264,52.106Z"/><path class="cls-5" d="M46.317,59.061q-.045,2.986-.158,5.969l-.269,5.963-.363,5.958q-.2,2.978-.476,5.952.045-2.986.158-5.969l.269-5.963.364-5.958Q46.043,62.036,46.317,59.061Z"/><path class="cls-5" d="M49.509,64.071q.055,2.293.042,4.585l-.07,4.583-.164,4.58q-.1,2.289-.277,4.577Q48.985,80.1,49,77.811l.07-4.583.165-4.58Q49.335,66.359,49.509,64.071Z"/><path class="cls-5" d="M52.323,69.4c.171,2.034.183,4.068.207,6.1-.024,2.034-.034,4.068-.207,6.1-.172-2.034-.182-4.068-.206-6.1C52.141,73.463,52.153,71.429,52.323,69.4Z"/><path class="cls-5" d="M24.568,78.237Q28.18,77.5,31.8,76.83l7.252-1.3,7.269-1.2q3.637-.585,7.288-1.094-3.61.738-7.234,1.407l-7.252,1.3-7.269,1.2Q28.219,77.726,24.568,78.237Z"/><path class="cls-5" d="M24.568,81.686q3.607-.885,7.228-1.7l7.251-1.594,7.27-1.5q3.639-.732,7.294-1.391-3.606.885-7.228,1.7l-7.25,1.594-7.271,1.5Q28.223,81.028,24.568,81.686Z"/><path class="cls-5" d="M24.887,85.59q3.563-.986,7.143-1.9l7.17-1.8,7.192-1.7q3.6-.834,7.219-1.595-3.564.985-7.144,1.9l-7.169,1.8-7.193,1.7Q28.505,84.828,24.887,85.59Z"/><path class="cls-5" d="M24.254,70.982q3.341-.562,6.691-1.056l6.706-.946,6.719-.852q3.361-.408,6.733-.741-3.341.563-6.691,1.056l-6.706.946-6.719.851Q27.626,70.648,24.254,70.982Z"/><path class="cls-5" d="M24.02,65.58q3.181-.243,6.366-.416l6.37-.305,6.375-.21q3.188-.087,6.378-.1-3.181.245-6.365.417l-6.371.305-6.374.209Q27.21,65.568,24.02,65.58Z"/><path class="cls-5" d="M23.815,60.855q2.971-.184,5.944-.3L35.7,60.37l5.948-.091q2.974-.029,5.951.02-2.971.184-5.944.3l-5.945.186-5.948.091Q26.792,60.9,23.815,60.855Z"/><path class="cls-5" d="M23.621,56.367q2.616-.151,5.235-.235l5.236-.125,5.238-.029q2.619,0,5.239.082-2.616.153-5.235.236L34.1,56.42l-5.238.029Q26.241,56.446,23.621,56.367Z"/><path class="cls-5" d="M23.436,52.106q2.27-.114,4.538-.159l4.538-.048,4.538.048q2.268.042,4.538.159-2.27.114-4.538.159l-4.538.047-4.538-.048Q25.706,52.224,23.436,52.106Z"/><path class="cls-5" d="M23.247,47.722q2.118-.114,4.238-.158l4.239-.048,4.239.047q2.118.042,4.238.159-2.12.115-4.238.159l-4.239.048-4.239-.048Q25.365,47.839,23.247,47.722Z"/><path class="cls-5" d="M23,41.952c2.279-.082,4.553-.006,6.827.058,2.273.112,4.546.211,6.812.471-2.28.084-4.553.006-6.828-.058C27.536,42.31,25.263,42.211,23,41.952Z"/><path class="cls-5" d="M22.74,36.035c1.913.054,3.807.266,5.7.465,1.89.247,3.781.481,5.653.875-1.913-.052-3.806-.265-5.7-.465C26.5,36.663,24.613,36.428,22.74,36.035Z"/><path class="cls-5" d="M22.557,31.81a36.5,36.5,0,0,1,7.745,0,33.951,33.951,0,0,1-3.872.207A34.421,34.421,0,0,1,22.557,31.81Z"/><path class="cls-5" d="M126.423,99.839q1.966-1.785,3.978-3.519l4.048-3.435,4.109-3.362q2.066-1.666,4.18-3.275-1.965,1.786-3.977,3.52L134.713,93.2l-4.11,3.361Q128.538,98.231,126.423,99.839Z"/><path class="cls-5" d="M126.5,88.769q1.962-1.2,3.956-2.339l4.009-2.243,4.055-2.158q2.036-1.064,4.108-2.061-1.962,1.2-3.956,2.34l-4.009,2.242-4.055,2.158Q128.57,87.772,126.5,88.769Z"/><path class="cls-5" d="M126.563,79.442q1.968-.639,3.954-1.212l3.982-1.106,4.008-1.014q2.007-.489,4.035-.906-1.968.641-3.954,1.214l-3.983,1.1L130.6,78.536Q128.589,79.025,126.563,79.442Z"/><path class="cls-5" d="M126.6,74.319q1.9-.49,3.819-.914l3.841-.805,3.859-.712q1.932-.338,3.881-.6-1.9.492-3.82.914l-3.84.8-3.86.711Q128.546,74.055,126.6,74.319Z"/><path class="cls-5" d="M126.423,68.592c2.3-.541,4.63-.924,6.956-1.32,2.333-.349,4.664-.711,7.02-.913-2.3.542-4.629.925-6.955,1.321C131.111,68.028,128.78,68.389,126.423,68.592Z"/><path class="cls-5" d="M126.946,61.816c2.006-.331,4.025-.5,6.043-.687,2.022-.136,4.043-.286,6.077-.274-2.007.331-4.026.5-6.044.686C131,61.677,128.979,61.826,126.946,61.816Z"/><path class="cls-5" d="M126.946,56.367c1.792-.308,3.6-.457,5.4-.619,1.808-.114,3.614-.241,5.432-.207-1.792.309-3.6.457-5.4.619C130.571,56.273,128.764,56.4,126.946,56.367Z"/><path class="cls-5" d="M126.759,50.641c1.639-.171,3.278-.182,4.916-.207,1.639.024,3.278.035,4.916.207-1.638.172-3.277.182-4.916.206C130.037,50.823,128.4,50.812,126.759,50.641Z"/><path class="cls-5" d="M126.8,44.679a42.38,42.38,0,0,1,8.347,0,39.393,39.393,0,0,1-4.173.207A39.937,39.937,0,0,1,126.8,44.679Z"/><path class="cls-5" d="M126.946,39.856a31.066,31.066,0,0,1,3.687-.005,30.658,30.658,0,0,1,3.665.407,30.648,30.648,0,0,1-3.687.006A31.053,31.053,0,0,1,126.946,39.856Z"/><path class="cls-5" d="M126.946,34.833a17.884,17.884,0,0,1,5.416-.275,16.711,16.711,0,0,1-2.7.344A16.94,16.94,0,0,1,126.946,34.833Z"/><path class="cls-5" d="M128.849,26.912q.222,9.452.338,18.905l.271,18.907.132,18.907.065,9.454v9.455l-.2-9.453-.137-9.453-.27-18.906-.131-18.908Q128.824,36.367,128.849,26.912Z"/><path class="cls-5" d="M132.362,32.622q.395,8.244.685,16.49l.617,16.492.478,16.5.238,8.248.172,8.251-.375-8.244-.31-8.246-.616-16.492-.478-16.5Q132.511,40.874,132.362,32.622Z"/><path class="cls-5" d="M136.145,48.8q.423,5.814.743,11.635l.675,11.639.538,11.645.267,5.823.2,5.827-.4-5.816-.34-5.819-.675-11.639-.537-11.646Q136.323,54.627,136.145,48.8Z"/><path class="cls-5" d="M140.67,67.476q.279,2.869.49,5.745l.38,5.752.284,5.757q.125,2.878.174,5.763-.28-2.871-.491-5.745L141.127,79l-.284-5.757Q140.719,70.359,140.67,67.476Z"/></g><path class="cls-6" d="M63.069,61.162s-1.085-1.086-1.381.2a4.916,4.916,0,0,0,.69,3.5,3.016,3.016,0,0,0,1.431.247Z"/><path class="cls-6" d="M81.815,61.014s.74.049.888,1.233-1.48,2.96-1.48,2.96l-1.135.394.839-4.982Z"/><path class="cls-6" d="M84.989,104.947a6.132,6.132,0,0,1,2.806,5.021,32,32,0,0,0,.3,4.135l-5.021.739s-.591-2.511-.739-3.4-3.1-4.726-3.1-4.726Z"/><path class="cls-6" d="M63.428,106.719A11.309,11.309,0,0,0,60.9,110.3a7.644,7.644,0,0,0-.276,3.956l-4.874-.738s-.738-2.806,0-4.135,2.511-5.612,2.511-5.612Z"/><path class="cls-7" d="M80.264,91.8l6.35,12.406s.591.3-2.511,2.215a23.374,23.374,0,0,1-6.5,2.658,12.037,12.037,0,0,0-2.806-4.726,14.283,14.283,0,0,1-2.806-3.692l-7.088,6.794s-.3.59-3.1-.3-3.987-1.476-4.578-2.658a5.641,5.641,0,0,0-1.329-1.772l6.941-12.11Z"/><path class="cls-8" d="M87.981,113.157a5.44,5.44,0,0,1-2.713,1.036,3.063,3.063,0,0,1-2.516-.888l1.677,7.991s-.178,2.7,1.594,3.145,2.806-1.772,2.806-1.772Z"/><path class="cls-8" d="M60.6,113.354a19.642,19.642,0,0,1-2.96.493,4.121,4.121,0,0,1-2.022-.986s-.019,7-.167,8.036-.3,2.953-.738,3.249,2.363,1.181,3.544.443a4.154,4.154,0,0,0,1.455-2.6Z"/><polygon class="cls-9" points="79.644 92.882 85.663 105.362 86.846 104.326 80.729 92.487 79.644 92.882"/><polygon class="cls-9" points="62.724 92.536 57.05 103.981 55.896 102.732 61.638 91.944 62.724 92.536"/><path class="cls-10" d="M59.827,122.081s1.252,2.474.858,3.852-3.013,2.074-4.884,2.664-5.822,2.166-6.117-.394,5.417-5.039,5.417-5.039-.1,1.083,1.477.984S59.827,122.081,59.827,122.081Z"/><path class="cls-11" d="M52.645,124.652c.006-.06.1-.04.144,0a4.159,4.159,0,0,1,1.311,1.883"/><path class="cls-11" d="M53.554,123.934a6.768,6.768,0,0,1,1.57,1.943"/><path class="cls-11" d="M54.321,123.368a12.241,12.241,0,0,1,1.628,2.023"/><polygon class="cls-6" points="75.451 69.844 75.846 73.001 71.899 79.02 67.065 73.001 67.854 70.14 75.451 69.844"/><path class="cls-12" d="M79.1,71.028a5.883,5.883,0,0,1,5.74,3.94,71.664,71.664,0,0,0,4.43,7.236L90.9,85.6l2.51-2.068,3.1,2.659S94,91.508,91.783,90.917s-5.464-4.282-7.975-6.35A12.714,12.714,0,0,1,80.264,79.4L78.2,72.752Z"/><path class="cls-12" d="M66.825,72.162l-3.1,8.861s-1.941,2.243-4.157,4.311-3.375,4.55-5.59,4.7-6.35-3.987-6.35-3.987l3.544-2.806s.591,2.658,1.92,2.215,4.115-8.063,5.884-9.985c3.628-3.94,5.328-4.045,5.328-4.045Z"/><path class="cls-13" d="M75.254,71.817l-2.818,4.628-4.878-5.022H64.019s-1.182,10.929-1.773,13.439a44.067,44.067,0,0,0-.59,7.384s6.055,2.659,8.27,2.954,3.249.148,6.055-.886,5.759-2.363,5.759-2.363-.3-6.2-.738-11.076A69.179,69.179,0,0,0,79.23,70.98Z"/><path class="cls-14" d="M93.112,82.647a5.065,5.065,0,0,1-1.034-2.51c0-1.182-3.84-3.249-2.806-4.136s2.954.739,2.954.739L94,77.774s-.147-2.7-.294-3.589-1.035-3.352.737-3.943,2.068,5.612,2.068,5.612.443-5.021,2.363-5.464.443,5.464.443,5.464,1.624-3.84,3.1-3.1-1.477,6.055-1.477,6.055,2.288-3.681,3.321-2.057-2.139,4.42-2.139,4.42l-2.1,1.105s-.7,2.883-1.442,2.883a3.3,3.3,0,0,0-1.329.3l-2.215,2.806L90.6,83.09Z"/><path class="cls-6" d="M81.428,57.422s.036,6.343-1.373,9.63S73.8,72.348,72,72.54a8.435,8.435,0,0,1-7.262-4.3c-1.444-3.056-2.416-9.794-1.716-12.112s5.982-5.5,10.249-5.573S81.906,53.99,81.428,57.422Z"/><path class="cls-15" d="M73.553,56.12s.51.81-.714,1.92-1.689,1.629-1.689,1.629a5.024,5.024,0,0,0,2.808-.75,7.781,7.781,0,0,0,2.556-3.3c.09-.4.252,2.555-.264,2.993a17.927,17.927,0,0,0-1.476,1.608,9.483,9.483,0,0,0,2.7-2.717l.564-1.26a15.933,15.933,0,0,0,.354,2.718c.225.537.669-.2.8-1.068s.864.474,1.029,1.275.818,2.2.617,2.778,1.051-1.566,1.513-2.988a7.333,7.333,0,0,0-.6-4.371c-.306-.486,1.473.543,1.473.543A6.664,6.664,0,0,0,81.9,52.674a12.928,12.928,0,0,0-3.386-2.505c-.234-.192,1.935-.879,1.935-.879a1.818,1.818,0,0,0-2.142-.348c-1.317.6-1.773.777-1.773.777l-.171-2.607s-.339,1.8-1.131,1.617-1.758-3.871-3.207-3.3,1.02,1.62.861,2.625-.393.813-1.674.036a5.942,5.942,0,0,0-4.386-.858c-1.206.419,1.395,1.5,1.395,1.5a18.275,18.275,0,0,1-3.012.425c-.822-.048-1.563-.147-1.563-.147l1.089,1.011s1.071-1.353-1.926.534a20.2,20.2,0,0,0-3.381,2.355l2.7-.567s-.645,1.311-1.152,1.4l-.507.093,1.626.786s-1.29-.432-1.375,1.77a14.672,14.672,0,0,0,.87,4.767l.641-3.4a5.519,5.519,0,0,0,.494,3.009,13.731,13.731,0,0,1,1.035,4.094s1.43-6.756,1.793-7.437-.045,1.725-.045,1.725.57.546,2.157-1.245,2-2.39,2-2.39L68.477,58.3s1.6-.33,2.055-1.407S69.71,59.9,69.71,59.9a9.943,9.943,0,0,0,2.205-2.067A7.224,7.224,0,0,1,73.553,56.12Z"/><polygon class="cls-12" points="77.03 71.817 75.254 71.817 72.392 75.961 68.347 71.718 66.867 71.62 72.392 79.513 77.03 71.817"/><path class="cls-10" d="M84.3,121s-1.251,2.475-.857,3.853,3.013,2.073,4.883,2.664,5.822,2.165,6.118-.395-5.418-5.039-5.418-5.039.1,1.083-1.477.985S84.3,121,84.3,121Z"/><path class="cls-11" d="M91.482,123.566c-.006-.059-.1-.039-.144,0a4.183,4.183,0,0,0-1.311,1.884"/><path class="cls-11" d="M90.574,122.849A6.767,6.767,0,0,0,89,124.791"/><path class="cls-11" d="M89.806,122.283a12.184,12.184,0,0,0-1.627,2.023"/><path class="cls-14" d="M50.857,82.91a5.065,5.065,0,0,0,1.034-2.51c0-1.182,3.839-3.249,2.805-4.135S51.743,77,51.743,77l-1.772,1.034s.146-2.7.294-3.589,1.035-3.352-.737-3.943-2.068,5.612-2.068,5.612S47.017,71.1,45.1,70.653s-.443,5.464-.443,5.464-1.624-3.84-3.1-3.1,1.477,6.055,1.477,6.055-2.288-3.682-3.322-2.058,2.14,4.42,2.14,4.42l2.1,1.1s.7,2.883,1.442,2.883a3.3,3.3,0,0,1,1.329.295l2.215,2.806,4.43-5.169Z"/><path class="cls-16" d="M72.738,64.171a1.14,1.14,0,0,0-.588-.359.788.788,0,0,0-.507-.061c-.225.075-.33.327-.409.551"/><path class="cls-16" d="M75.839,66.148A8.178,8.178,0,0,1,72.1,67.434a5.981,5.981,0,0,1-3.588-1"/><path class="cls-17" d="M75.8,63.44s-.408-1.8.518-2.449,2.748,1.216,1.4,2.687C76.76,64.728,75.8,63.44,75.8,63.44Z"/><path class="cls-18" d="M75.717,63.307s-.358-1.3.3-1.525c1.112-.374,1.39,1.038.816,1.7S75.717,63.307,75.717,63.307Z"/><path class="cls-17" d="M66.722,63.045s-.408-1.8.518-2.449,2.748,1.216,1.4,2.687C67.683,64.333,66.722,63.045,66.722,63.045Z"/><path class="cls-18" d="M66.64,62.912s-.358-1.3.3-1.524c1.111-.374,1.389,1.038.815,1.7S66.64,62.912,66.64,62.912Z"/></svg>