<svg id="word" xmlns="http://www.w3.org/2000/svg" viewBox="0 0 160 160"><defs><style>.cls-1,.cls-12{fill:#f59121;}.cls-1,.cls-10,.cls-2,.cls-3,.cls-4,.cls-5,.cls-6,.cls-8,.cls-9{stroke:#9c4c9c;stroke-miterlimit:10;stroke-width:0.799px;}.cls-2{fill:#db8327;}.cls-3{fill:#df8426;}.cls-4{fill:#fff;}.cls-5{fill:#a1a34a;}.cls-6{fill:#517b4b;}.cls-7{fill:#9c4c9c;}.cls-8,.cls-9{fill:none;}.cls-9{stroke-linecap:round;}.cls-10{fill:#ec8c8c;}.cls-11{fill:#9c519e;}</style></defs><path class="cls-1" d="M63.837,107.368a10.539,10.539,0,0,1-7.469-6.633c-2.016-5.622-3.3-7.465,1.543-14.044S70.784,66.92,71.853,56.46,68.339,31.393,55.889,28.24,29.162,27.8,23.444,36.555s-8.091,14.934-4.592,21.866,9.4,16.848,12.93,17.04a3.292,3.292,0,0,1,3.257,3.613s2.69-1.607.145-6.027S31.361,61.8,36.954,61.93,46.3,67.176,43.9,72.664s-10.234,17.27-7.663,24.873,9.122,16.781,15.173,17.322a33.284,33.284,0,0,0,10.65-.717Z"/><path class="cls-2" d="M113.9,82.983l8.564,1.265s4.888,2.591,0,3.722a21.827,21.827,0,0,1-8.125.53l-.536,0Z"/><path class="cls-3" d="M110.176,119.34s4.678.07,8.311-.208,11.075,4.825,11.075,4.825.612,2.079-1.444,2.36-16.79.855-16.79.855l-2.594-2.49-4.382-.769Z"/><path class="cls-1" d="M89.746,69.229A135.411,135.411,0,0,0,73.593,82.983c-2.983,3.078-7.271,10.666-10.371,16.929s-2.733,17.523.457,21.723,12.735,7.135,14.915,7.138a46.973,46.973,0,0,1,4.868.343s-2.742,2.24.508,2.1,14.791-.912,18.694-1.479S111.7,129,113.45,128.9s7.417,1.53,8.94-.322-1.309-3.223-3.468-3.9-10.16-2.051-10.16-2.051,5.723-3.087,4.095-11.323c-1.214-6.143-2.166-9.269-3.431-10.545l2.726-7.444a24.764,24.764,0,0,0-.329-9.579c-1.188-5.849-4.188-14.814-4.188-14.814L94.3,64.21Z"/><path class="cls-4" d="M104.231,69.558a28.511,28.511,0,0,1,2.71,4.384c.426,1.259,1.314,4.8,1.314,4.8a10.615,10.615,0,0,1-3.039-3.147l-.849-1.672s1.469,6.657,1.515,7.048-1.26-2.829-1.783-3.237-.742,5.164-.742,5.164l2.008,5.479,6.911,3.54a13.925,13.925,0,0,0,1.753-5.895c.463-4.023-1.564-10.362-2.538-12.22s-2.746-5-2.746-5l-5.388-.687Z"/><path class="cls-5" d="M132.56,87.659a11.344,11.344,0,0,1-3.093,7.3c-3.029,2.888-5.253,4.577-7.017,3.526s-4.13-5.188-3.928-6.8a40.673,40.673,0,0,0,.07-5.948c-.1-.776,5.242-2.021,8.328-1.078A19.121,19.121,0,0,1,132.56,87.659Z"/><path class="cls-6" d="M133.773,87.97s.985-.909,0-4.045c-.928-2.956-3.2-4.512-5.644-4.047s-4.181-2.563-6.276.367a36.948,36.948,0,0,0-3.261,5.488s3.234.05,6.646.022,7.2,3.093,7.2,3.093Z"/><path class="cls-7" d="M109.841,101.55c-1.416-1.035-2.78-2.127-4.222-3.081a18.555,18.555,0,0,0-4.566-2.289,16.757,16.757,0,0,0-5.06-.629c-1.747-.034-3.5-.079-5.246-.213,1.745-.2,3.489-.306,5.236-.4a21.372,21.372,0,0,1,2.656-.017,12.092,12.092,0,0,1,2.654.5,15.363,15.363,0,0,1,4.682,2.554A32.551,32.551,0,0,1,109.841,101.55Z"/><path class="cls-8" d="M117.031,129.4a2.461,2.461,0,0,0-.582-2.121,6.561,6.561,0,0,0-1.8-1.386"/><path class="cls-8" d="M121.779,129.739a2.779,2.779,0,0,0-.832-2.29c-.609-.58-2.153-1.693-2.984-1.556"/><path class="cls-8" d="M127.491,125.893c-.664-1.8-3.655-3.246-5.533-2.879"/><path class="cls-9" d="M123.054,98.455a16.261,16.261,0,0,1-.185,3.681"/><path class="cls-7" d="M128.528,80.182a.961.961,0,0,0,.388-.081l-.417-.94a.07.07,0,0,1,.033-.008.8.8,0,0,1-.257-.385,6.766,6.766,0,0,1-.034-4.837l-1.953-1.093c-.675,1.777.33,4.538,1.029,6.306a1.884,1.884,0,0,0,.453.73A1.123,1.123,0,0,0,128.528,80.182Z"/><path class="cls-7" d="M126.641,80.97a3.712,3.712,0,0,1,2.138.349,4.19,4.19,0,0,1,1.764,1.4,6.291,6.291,0,0,1,.767,2.071,9.928,9.928,0,0,1,.249,2.124c-.318-.645-.6-1.289-.856-1.937a12.379,12.379,0,0,0-.816-1.811,5.046,5.046,0,0,0-1.4-1.313A6.261,6.261,0,0,0,126.641,80.97Z"/><path class="cls-7" d="M123.62,79.877a3.372,3.372,0,0,1,1.753.767,8.486,8.486,0,0,1,1.42,1.295,7.039,7.039,0,0,1,.9,1.73,5.344,5.344,0,0,1,.4,1.865c-.295-.56-.657-1.061-.961-1.593-.322-.509-.631-1.08-.951-1.5-.366-.441-.8-.888-1.211-1.335A7,7,0,0,0,123.62,79.877Z"/><path class="cls-7" d="M132.56,83.076a2.786,2.786,0,0,1,.434-.125.723.723,0,0,1,.272-.025.258.258,0,0,1,.088.055.2.2,0,0,1,.03.2.228.228,0,0,1-.047.066.43.43,0,0,1-.075.052l-.068.035-.111.048a8.737,8.737,0,0,1-.834.284c-.555.157-1.11.277-1.661.391a6.844,6.844,0,0,0-1.594.416l-.779.373-.186.1-.037.024c-.01.007,0,0,0-.017s-.011-.081-.041-.082l-.013,0c-.007,0-.016,0-.009,0a.668.668,0,0,0,.093-.019c.138-.033.278-.076.417-.118-.122.079-.243.158-.373.232a.667.667,0,0,1-.112.049.163.163,0,0,1-.035,0,.114.114,0,0,1-.026,0c-.033,0-.061-.077-.048-.094a.158.158,0,0,1,.035-.058l.046-.046.171-.145.691-.533a4.225,4.225,0,0,1,1.613-.824,9.229,9.229,0,0,1,1.722-.317c.288-.023.581-.038.862-.041l.1,0a.314.314,0,0,1,.035,0s.007,0-.027.027a.147.147,0,0,0-.038.056.179.179,0,0,0,.027.185.132.132,0,0,0,.065.042c.01-.015-.1-.043-.158-.06C132.849,83.16,132.7,83.126,132.56,83.076Z"/><path class="cls-7" d="M128.44,80.584a12.326,12.326,0,0,1-2.359,2.029c-.426.284-.854.563-1.3.814s-.906.482-1.384.725a7.419,7.419,0,0,1,2.235-2.2A9.822,9.822,0,0,1,128.44,80.584Z"/><path class="cls-1" d="M97.95,43.772a11.043,11.043,0,0,1,1.2-.2,21.551,21.551,0,0,1,8.1.621c5.292,1.419,10.939,4.368,13.317,8.091a86.242,86.242,0,0,1,4.642,8.907c.773,1.455-1.364,2.607-3.354,4.53a5.673,5.673,0,0,1-5.353,1.21c-.443-.228-1.695.055-3.346,1.014s-2.949.937-6.842.858-13.167-3.237-15.133-7.148A17.761,17.761,0,0,1,89.6,50.646s-4.72-6.806-4.171-11.475.625-12.1.625-12.1,3.86,3.664,7.889,7.371S97.95,43.772,97.95,43.772Z"/><path class="cls-4" d="M121.785,62.532a35.734,35.734,0,0,1-5.512-.891,39.2,39.2,0,0,0-4.22-.954s-2.675,3.458-3.052,3.468a12.318,12.318,0,0,0-1.966.685l.6,4.079a35.593,35.593,0,0,0,4.517.647c1.59.045,2.456-1.476,2.871-1.709a4.012,4.012,0,0,0,.848-.731,2.928,2.928,0,0,0,4.449.987l3.012-1.875Z"/><path class="cls-10" d="M124.256,65.556s2.752-1.646,2.579-2.809-.361-1.266-1.375-1.809-1.357.527-2.143.634-3.393-.662-3.476.732,2.012,2.9,2.012,2.9l1.479,1.037Z"/><path class="cls-4" d="M106.035,50.126s2.93-1.388,4.408-.314,3.137,2.525,1.2,4.367-5.039.229-5.523-.542S105.552,50.55,106.035,50.126Z"/><path class="cls-7" d="M95.917,44.606c-.946-1.4-1.836-2.834-2.733-4.257s-1.778-2.855-2.7-4.249c-.453-.7-.922-1.394-1.421-2.045a5.9,5.9,0,0,0-.781-.874.7.7,0,0,0-.171-.116c-.056-.025.029.005.066-.052a2.683,2.683,0,0,0-.119.416,8.84,8.84,0,0,0-.121,2.444,16.7,16.7,0,0,0,.33,2.491,10.386,10.386,0,0,1-.815-5.038,1.6,1.6,0,0,1,.241-.777.592.592,0,0,1,.645-.132,1.335,1.335,0,0,1,.368.207,6.4,6.4,0,0,1,.949.959c.544.672,1.025,1.373,1.5,2.079.92,1.427,1.779,2.883,2.562,4.38S95.26,43.045,95.917,44.606Z"/><path class="cls-11" d="M89.212,29.141a39.124,39.124,0,0,1-2.372-4.223C86.372,23.69,85.5,19.7,85.5,19.7l1.136,6.568s-1.114-2.249-1.845-3.791-2.079-3.664-2.079-3.664l1.439,4.644L82.288,19.73l1.322,4.893-.639-1.046L84.5,27.163l-1.424-.894a27.135,27.135,0,0,1,1.186,3.289c.24,1.084.432,4.112.432,4.112l-1.174-3.118,2.829,9.137s-.014-4.394-.058-7.66a22.253,22.253,0,0,1,.307-4.764l3.993,4.064Z"/><path class="cls-12" d="M112.1,58.089a7.015,7.015,0,0,1-1.214,5.287,5.24,5.24,0,0,1-3.029,1.731,6.863,6.863,0,0,1-3.506-.294"/><path class="cls-7" d="M112.1,58.089a7.275,7.275,0,0,1,.139,3.227,5.094,5.094,0,0,1-1.634,2.91,5.345,5.345,0,0,1-3.091,1.25,5.937,5.937,0,0,1-3.163-.663,8.647,8.647,0,0,0,3.086.045,5.613,5.613,0,0,0,2.647-1.237,5.22,5.22,0,0,0,1.553-2.457A12.162,12.162,0,0,0,112.1,58.089Z"/><ellipse class="cls-11" cx="110.598" cy="52.362" rx="1.709" ry="1.626"/><path class="cls-1" d="M100.864,80.97s4.268,8.657,6.568,8.464c1.27-.106,4.643,1.911,6.022,1.8a40.493,40.493,0,0,0,4.242-.787s4.326-1.069,5.874-.635,5.1,4.437,3.55,4.792-9.224-.142-9.224-.142-1.725,3.024-8.957,2.081a18.317,18.317,0,0,1-11.963-6.237c-1.08-1.281-3.283-4.573-3.283-4.573"/></svg>