<svg id="word" xmlns="http://www.w3.org/2000/svg" xmlns:xlink="http://www.w3.org/1999/xlink" viewBox="0 0 160 160"><defs><style>.cls-1{fill:#82a33e;}.cls-1,.cls-10,.cls-11,.cls-12,.cls-13,.cls-14,.cls-2,.cls-3,.cls-4,.cls-7{stroke:#9d4b9c;stroke-miterlimit:10;stroke-width:1.215px;}.cls-2{fill:#ca9dc7;}.cls-3{fill:#cbbadb;}.cls-4{fill:#b67eb6;}.cls-5{fill:#805780;}.cls-6{fill:#dfe573;}.cls-7{fill:#b0cec5;}.cls-8{opacity:0.59;fill:url(#linear-gradient);}.cls-9{fill:#a3c0b7;}.cls-10{fill:none;}.cls-11{fill:#e94857;}.cls-12{fill:#678330;}.cls-13{fill:#eaea77;}.cls-14{fill:#d6696b;}</style><linearGradient id="linear-gradient" x1="86.325" y1="112.555" x2="107.381" y2="112.555" gradientUnits="userSpaceOnUse"><stop offset="0.2" stop-color="#fff" stop-opacity="0"/><stop offset="1" stop-color="#fff"/></linearGradient></defs><path class="cls-1" d="M43.946,51.075s-2.408,2.15-7.358-1.254-6.391-4.045-9.673-7.327a37.027,37.027,0,0,0-6.848-5.331s7.059,1.5,10.666,1.272,4.859-4.252,9.341,2.7S46.168,50.405,43.946,51.075Z"/><path class="cls-2" d="M65.866,48.709s-5.06-1.39-9.059-2.258-5.631-1.78-4.815-2.616.572-1.228,2.53-.758.245-2.036-.408-3.994-.9-4.62,1.632-4.7,5.06-.783,5.55,0,2.366-4.072,3.264-4.463,3.509-1.723,4.407.7,1.959,4.856,2.285,5.56.245-4.463,2.122-5.638,4.465-4.229,4.762-.078S77.944,40.493,76.8,43.077s-2.693,3.446-5.059,4.229S67.664,49.648,65.866,48.709Z"/><path class="cls-3" d="M71.984,41.611a12.081,12.081,0,0,1-3.754.836c-2.2.181-3.02-.445-5.06.416s-4.465.405-1.7,3.453.886,4.675,5.293,4.409,5.975-.467,6.415-1.815,1.746-5.42,1.5-5.655S76.717,39.811,71.984,41.611Z"/><path class="cls-1" d="M65.863,68.675S59.7,71.45,55.872,73.469s-8.676,4.793-12.357,5.3-4.995,2.9-10.122,3.658-6.179-.252-11.174,3.532S25.242,82.3,26.1,78.388s-.066-7.316,10.056-10.6,10.911-4.667,14.592-3.532,1.578,1.64,5.653,1.892S67.046,66.909,65.863,68.675Z"/><path class="cls-4" d="M42.179,49.1a16.186,16.186,0,0,0-9.226-2.656c-5.741,0-3.486,2.066-4.511,2.656s-2.153-1.3-2.563,2.5-1.025,3.508,1.538,5.571,8.1,3.144,8.919,3.144-7.381.227-9.739,1-4.921,2.174-3.383,4.08-1.548,1.709-.466,3.086-.252,1.852,5.181,1.369,7.689-1.27,9.329-2.746.923.2.41,1.771-2.152,2.627.615,3.182,4.306.92,6.664,0,5.741,1.809,6.458-1.326-.1-4.621,0-7.075S55.4,66.214,55.4,66.214a14.039,14.039,0,0,0,5.95-2.563c3.178-2.258,5.228-2.94,4.511-6.484s-1.025-7.126-2.973-9.123-2.153-5.341-4.716-4.062-2.973.393-4,2.754-4.2,5.509-4.2,5.509,2.46-6.953,2.563-8.985,1.743-1.541-3.178-2.426-3.28-6.2-6.356-3.345-3.9,3.278-3.178,5.771A44.749,44.749,0,0,0,42.179,49.1Z"/><path class="cls-5" d="M46.177,56.3c0-.419-5.946-2.092-7.894-2.78s-6.355-.144-2.152,1.01S41.256,56.626,39,56.3s5.257,1.646,5.257,1.646-9.05,4.031-9.153,4.475,2.768-.9,4.1-1.115,2.358-.258,2.46,1.339.205-.078,1.538-.224,1.435,4.182,1.743,4.281,1.948-2.832,1.845-4.712-2.05.088.615-1.092,2.563-2.46,4.511-1.968,10.764,0,3.9-.59-8.3,1.082-6.868-.59,5.126-6,5.331-6.591S47.1,59.131,47.1,55.59s1.435-8.854.615-9.641S46.177,56.3,46.177,56.3Z"/><path class="cls-6" d="M46.09,57.455s-5-.553-3.973,1.207,2.948,3.012,3.358,1.537S47.226,57.727,46.09,57.455Z"/><path class="cls-7" d="M59.956,75.1s3.944,5.424,16.3,5.045,20.113-2.144,21.3-4.162-2.76,5.171-4.338,9.334-4.469,4.415-1.052,8.326,14.066,10.092,16.038,14.507,7.323,19.036-4.245,24.46-21.3,6.929-31.906,5.941c-19.481-1.817-30.629-8.81-30.629-21.445,0-8.326,6.047-17.66,12.488-20.057a57.292,57.292,0,0,0,9.465-4.289Z"/><path class="cls-1" d="M83.342,59.142s3.155-6.055,4.864,2.649-.132,8.956,5.258,11.605,11.831,3.28,15.644,7.064,7.887,11.984,8.15,12.615-.526-3.028,0-13.372-.657-17.912-4.338-21.066-14.2-8.981-19.324-7.2S82.705,53.917,83.342,59.142Z"/><path class="cls-8" d="M88.746,107.775s-5.529,8.941.123,11.211,21.219,9.3,18.1-4.607c-2.1-9.379-7.7-11.922-12.174-12.048S88.746,107.775,88.746,107.775Z"/><path class="cls-9" d="M59.7,105.758c1.625.115-2.849,1.709-3.557,3.117a7.116,7.116,0,0,0-.593,3.008,17.183,17.183,0,0,0,1.87,9.013,16.53,16.53,0,0,0,7.885,6.69,36.893,36.893,0,0,0,10.336,2.545,86.99,86.99,0,0,0,16.286.5c2.987-.189,11.3-1.512,13.706-3.215,0,0-6.157,9.385-26.672,9.324-18.511-.055-23.534-4.662-31.419-11.655S47.574,104.9,59.7,105.758Z"/><path class="cls-1" d="M79.5,56.95s-7.119.17-4.334-9.372,5.244-10.015,8.015-13.671a20.36,20.36,0,0,0,3.52-7.664s5.276,1.1,3.9,12.661S79.5,56.95,79.5,56.95Z"/><path class="cls-1" d="M88.864,73.454s-.308-2.8,3.047-2.177,3.379.466,4.745,2.644,4.015,1.867,6.42,5.211,3.871,5.445,6.218,5.99-1.059,1.244-4.5.311-4.19-2.476-6.614-2.366S93,84.344,92.755,81.077s.648-3.2-.487-5.141S90.08,71.743,88.864,73.454Z"/><path class="cls-10" d="M86.9,63.652c-1.266-2.753-.125-6.031,1.756-8.439s4.434-4.249,6.51-6.5a21.744,21.744,0,0,0,5.688-16.225"/><path class="cls-1" d="M96.344,41.648s-6.6-.471-7.553-.153,1.57,1.269,4.091,1.523,3.9.374,3.38,1.261-2.642,1.821-3.5,4.2,5.225-3.7,5.565-3.889-1.125-.229,2.19,1.641,6.718,3.662,6.471,3.064-4.3-3.939-5.139-4.771S96.344,41.648,96.344,41.648Z"/><path class="cls-11" d="M98.441,43.361s-5.061.086-4.948-3.652-2.166-4.915.77-6.421,1.094-.058,3.67-1.811-.134-1.887,4.225-4.214,5.581-3.521,5.981-.847-.163,5.916-.117,6.891,1.283-.107,2.513.479,1.851,1.363,1.406,3.652a8.436,8.436,0,0,1-4.406,5.814C105.383,44.131,104.342,45.286,98.441,43.361Z"/><path class="cls-12" d="M66.355,69.038s-3.9,4.328-5.74,5.312A9.008,9.008,0,0,0,57.027,77.3c-.821,1.18-8.2,8.263-6.664,8.362s2.871-1.869,1.538.1-.615,2.361-3.178,4.23-.82,1.967,0,1.574-.125,1.082-1.344,3.64a30.108,30.108,0,0,0-1.834,5.017A70.347,70.347,0,0,0,51.183,95.3c.615-.885.1,3.836.923,1.476s1.23-4.23,1.948-5.9.2,1.377.82.787,3.895-1.475,5.946-4.033,3.9-5.115,3.9-5.115,1.948,3.148,1.64,3.443a19.409,19.409,0,0,0,2.666-6.3c1.332-4.919,3.588-11.992,3.588-11.992Z"/><path class="cls-13" d="M44.311,71.409s-4.51-1.378-4.92.59.512,3.849,2.46,3.646S46.247,71.811,44.311,71.409Z"/><path class="cls-13" d="M37.941,74.458S31.5,74.95,31.7,76.229s.391,3.344,3.117,2.459S39.978,75.343,37.941,74.458Z"/><path class="cls-13" d="M43.081,76.13s-3.472-.59-3.786,1.181-.109,3.392,2.146,3.712S45.557,76.816,43.081,76.13Z"/><path class="cls-13" d="M37.941,81.023c-.19-.663-2.753.232-3.471.473s-3.588,1.717-.717,3.291,6.225-1.073,4.188-3.291S37.941,81.023,37.941,81.023Z"/><path class="cls-13" d="M32.5,78.538s-3.875-1.291-4.183.364-.307,2.156,1.23,2.594S34.634,81.142,32.5,78.538Z"/><path class="cls-13" d="M50.923,73.3c-.13-.068-.14-.3-.308-.469-.7-.682-2.381-1.389-3.536-.439-1.435,1.181-2.255,1.518-1.64,3.268s.923,3.555,4.511,3.242S55.485,75.683,50.923,73.3Z"/><path class="cls-13" d="M56.2,68.149c-.28,0-4.613-.532-4.818.626s-3.28,1.22,0,3.156,7.577,1.642,7.582.953S59.914,68.205,56.2,68.149Z"/><path class="cls-13" d="M61.021,74.458s-1.844-2.409-3.792-1.057-2.256,3.339-.513,4.658,6.546,1.219,3.683-3.6S61.021,74.458,61.021,74.458Z"/><path class="cls-1" d="M46.176,33.548A35.148,35.148,0,0,0,41.8,35.364c-.468.423,1.216.333,2.728-.157s2.332-.768,2.253-.128-1.068,1.712-.971,3.294,2.088-3.441,2.236-3.637-.7.152,1.664.39,4.765.41,4.476.129-3.446-1.178-4.133-1.445A22.573,22.573,0,0,0,46.176,33.548Z"/><path class="cls-14" d="M47.8,34s-2.887,1.325-3.745-.85-2.46-2.277-1.145-3.882.614-.31,1.661-1.966-.543-1.05,1.386-3.485,2.337-3.429,3.228-2a24.943,24.943,0,0,1,1.635,3.988c.268.548.711-.385,1.562-.359s1.4.317,1.711,1.744A5.325,5.325,0,0,1,53,31.647C51.984,32.7,51.671,33.62,47.8,34Z"/><path class="cls-1" d="M102.206,61.126s5.133,2.312,8.326,3.995,7.23,3.994,10.3,4.415,4.163,2.418,8.435,3.049,5.149-.211,9.312,2.943-2.52-3.049-3.232-6.307.055-6.1-8.381-8.831-9.092-3.89-12.16-2.943-1.314,1.366-4.711,1.576S101.22,59.654,102.206,61.126Z"/><path class="cls-4" d="M121.943,44.81a13.491,13.491,0,0,1,7.689-2.213c4.784,0,2.9,1.721,3.759,2.213s1.794-1.082,2.136,2.083.854,2.923-1.282,4.642-6.749,2.621-7.432,2.621,6.151.189,8.116.832,4.1,1.812,2.819,3.4,1.289,1.424.388,2.572.21,1.543-4.318,1.141-6.407-1.059-7.774-2.289-.769.164-.342,1.476,1.794,2.189-.513,2.652-3.588.767-5.553,0-4.784,1.507-5.382-1.1.086-3.851,0-5.9-3.328,2.136-3.328,2.136a11.7,11.7,0,0,1-4.959-2.136c-2.648-1.881-4.357-2.45-3.759-5.4s.855-5.938,2.478-7.6,1.794-4.451,3.93-3.386,2.477.328,3.331,2.3a20.177,20.177,0,0,0,3.5,4.591s-2.05-5.794-2.136-7.488-1.452-1.284,2.649-2.022,2.734-5.165,5.3-2.787,3.247,2.732,2.649,4.809A37.212,37.212,0,0,1,121.943,44.81Z"/><path class="cls-5" d="M118.611,50.817c0-.35,4.955-1.744,6.578-2.318s5.3-.12,1.794.842-4.271,1.744-2.392,1.476-4.38,1.371-4.38,1.371,7.541,3.359,7.627,3.729-2.307-.753-3.418-.929-1.964-.215-2.05,1.116-.171-.065-1.281-.187-1.2,3.486-1.453,3.568-1.623-2.36-1.537-3.927,1.708.074-.513-.91-2.136-2.05-3.759-1.64-8.97,0-3.246-.492,6.919.9,5.723-.492-4.271-5-4.442-5.492,5.98,6.64,5.98,3.689-1.2-7.378-.512-8.034S118.611,50.817,118.611,50.817Z"/><path class="cls-6" d="M118.683,51.776s4.166-.462,3.311,1-2.456,2.511-2.8,1.281S117.737,52,118.683,51.776Z"/><path class="cls-13" d="M110.49,70.23s3.816.96,3.19,2.521-2.149,2.49-3.426,1.514S108.941,69.685,110.49,70.23Z"/><path class="cls-13" d="M113.558,75.1s4.308,3.1,3.57,3.917-1.83,2.187-3.338.4S111.713,74.854,113.558,75.1Z"/><path class="cls-13" d="M109.162,74.08s2.719,1.071,2.117,2.452-1.5,2.434-3.236,1.7S107.1,73.5,109.162,74.08Z"/><path class="cls-13" d="M110.507,79.724c.442-.385,1.831,1.342,2.224,1.819s1.728,2.744-1.024,2.624-3.884-3.419-1.42-4.11S110.507,79.724,110.507,79.724Z"/><path class="cls-13" d="M115.492,80.3s3.328.75,2.775,2.046-.785,1.65-2.072,1.3S112.78,81.223,115.492,80.3Z"/><path class="cls-13" d="M104.957,68.732c.122.008.239-.153.435-.2.806-.183,2.321.041,2.693,1.2.461,1.445.882,2.034-.364,3s-2.3,2.108-4.683.353S100.638,68.458,104.957,68.732Z"/><path class="cls-13" d="M103.633,62.847c.2.117,3.5,1.6,3.1,2.5s1.743,2.263-1.467,2.222-6.1-2.087-5.78-2.573S100.994,61.3,103.633,62.847Z"/><path class="cls-13" d="M97.309,65.227s2.418-.908,3.161.878.037,3.316-1.8,3.5-5.175-1.943-.92-4.111S97.309,65.227,97.309,65.227Z"/><path class="cls-12" d="M87.809,72.288s-.068,5.262.543,6.885a7.474,7.474,0,0,1,.562,4c-.177,1.328.368,10.386-.7,9.782s-.746-2.8-1.063-.6-1.023,2.2-.477,4.863-.652,1.969-.95,1.283-.571.938-1.319,3.566a35.569,35.569,0,0,1-1.83,4.906,59.154,59.154,0,0,1-.713-6.519c.133-1-2.382,3.083-1.492.793s1.749-4,2.289-5.679-.965,1.032-1.01.277S80,92.907,80.205,89.91s.543-5.9.543-5.9-3.171,1.7-3.148,2.077a21.814,21.814,0,0,1,2.059-6.318c2.1-4.6,4.894-11.374,4.894-11.374Z"/><path class="cls-4" d="M72.669,56.65s-1.231-7.8-5.946-8.191-3.9,1.279-5.536,2.853-6.458,4.623-4.613,7.378,6.454,5.607,7.84,5.017S69.183,63.267,70,63s-9.021,1.7-9.021,1.7-4.752,1.86-4.1,4.034,1.026.859,2.256,2.348a17.311,17.311,0,0,0,3.895,3.717c1.025.526,5.434,1.329,6.664-1.04a41.445,41.445,0,0,1,2.973-4.73s-3.691,6.3-2.461,8.361a6.525,6.525,0,0,0,4.408,2.952c.718,0,.615-.394,2.153,1.18s1.743,3.541,2.973,1.672S81.075,83.3,82,78.567s1.846-10.425,1.846-10.425,3.485,9.14,6.458,9.238,1.538-1.967,3.383-2.951,3.383.664,3.793-1.242-.82-5.152-1.538-5.644a15.077,15.077,0,0,0-3.793-1.449c-1.537-.42,2.461.269,4.511-1.108s4.921-2.952,4.716-3.935-4.306-1.532-3.178-3.668,6.048-3.527,1.537-4.209-4.51-2.354-8.2.5a24.318,24.318,0,0,1-6.868,3.839s1.845-5.413,1.23-8.463-.615-6.1-3.588-6.3-4.511-1.477-6.561-1.083-3.28,3.994-3.28,6.719S72.669,56.65,72.669,56.65Z"/><path class="cls-5" d="M76.359,60.46s.82-6.492,1.64-7.968,1.149.25.882,2.388-.656,3.127,0,2.632a23.416,23.416,0,0,0,2.4-3.052s-2.566,4.722-2.308,6,3.641.591,5.793,0,12.405-3.049,4.716-.59-8.1,1.968-7.689,2.46,2.358,1.967,3.383,2.951S81.28,64,81.28,64s-.1,1.985-.1,4.14-2.973-.545-2.87-2.048.2,4.47,0,6.3-3.691-4.265-3.178-5.838-2.46.3-4.408.786-2.871-2.065-.513-2.951,4.613-1.356,3.588-2.055S61.29,58.493,61.29,58.493s7.483-.787,9.892.984A6.442,6.442,0,0,0,76.359,60.46Z"/><path class="cls-6" d="M78.627,62.34s-5-.553-3.974,1.207,2.949,3.013,3.359,1.537S79.762,62.612,78.627,62.34Z"/></svg>