<svg id="word" xmlns="http://www.w3.org/2000/svg" xmlns:xlink="http://www.w3.org/1999/xlink" viewBox="0 0 160 160"><defs><style>.cls-1{fill:#83455f;}.cls-1,.cls-26{stroke:#231f20;}.cls-1,.cls-24,.cls-26,.cls-3{stroke-width:0.369px;}.cls-10,.cls-11,.cls-12,.cls-13,.cls-14,.cls-15,.cls-16,.cls-17,.cls-18,.cls-19,.cls-2,.cls-20,.cls-21,.cls-22,.cls-23,.cls-25,.cls-28,.cls-29,.cls-30,.cls-31,.cls-32,.cls-33,.cls-34,.cls-35,.cls-36,.cls-37,.cls-38,.cls-39,.cls-4,.cls-40,.cls-41,.cls-42,.cls-43,.cls-44,.cls-6,.cls-7,.cls-8,.cls-9{opacity:0.43;}.cls-2{fill:url(#linear-gradient);}.cls-3{fill:#949d45;}.cls-24,.cls-3{stroke:#9d4b9c;}.cls-24,.cls-26,.cls-3{stroke-miterlimit:10;}.cls-4{fill:url(#linear-gradient-2);}.cls-5{fill:#b1945b;}.cls-6{fill:url(#linear-gradient-3);}.cls-7{fill:url(#linear-gradient-4);}.cls-8{fill:url(#linear-gradient-5);}.cls-9{fill:url(#linear-gradient-6);}.cls-10{fill:url(#linear-gradient-7);}.cls-11{fill:url(#linear-gradient-8);}.cls-12{fill:url(#linear-gradient-9);}.cls-13{fill:url(#linear-gradient-10);}.cls-14{fill:url(#linear-gradient-11);}.cls-15{fill:url(#linear-gradient-12);}.cls-16{fill:url(#linear-gradient-13);}.cls-17{fill:url(#linear-gradient-14);}.cls-18{fill:url(#linear-gradient-15);}.cls-19{fill:url(#linear-gradient-16);}.cls-20{fill:url(#linear-gradient-17);}.cls-21{fill:url(#linear-gradient-18);}.cls-22{fill:url(#linear-gradient-19);}.cls-23{fill:url(#linear-gradient-20);}.cls-24{fill:#a3c23a;}.cls-25{fill:url(#linear-gradient-21);}.cls-26,.cls-27{fill:#a2ba4b;}.cls-28{fill:url(#linear-gradient-22);}.cls-29{fill:url(#linear-gradient-23);}.cls-30{fill:url(#linear-gradient-24);}.cls-31{fill:url(#linear-gradient-25);}.cls-32{fill:url(#linear-gradient-26);}.cls-33{fill:url(#linear-gradient-27);}.cls-34{fill:url(#linear-gradient-28);}.cls-35{fill:url(#linear-gradient-29);}.cls-36{fill:url(#linear-gradient-30);}.cls-37{fill:url(#linear-gradient-31);}.cls-38{fill:url(#linear-gradient-32);}.cls-39{fill:url(#linear-gradient-33);}.cls-40{fill:url(#linear-gradient-34);}.cls-41{fill:url(#linear-gradient-35);}.cls-42{fill:url(#linear-gradient-36);}.cls-43{fill:url(#linear-gradient-37);}.cls-44{fill:url(#linear-gradient-38);}.cls-45{opacity:0.75;fill:url(#linear-gradient-39);}.cls-46{fill:url(#linear-gradient-40);}.cls-47{fill:url(#linear-gradient-41);}.cls-48{fill:url(#linear-gradient-42);}.cls-49{fill:url(#linear-gradient-43);}.cls-50{fill:url(#linear-gradient-44);}.cls-51{fill:url(#linear-gradient-45);}.cls-52{fill:url(#linear-gradient-46);}.cls-53{fill:url(#linear-gradient-47);}.cls-54{fill:url(#linear-gradient-48);}.cls-55{fill:url(#linear-gradient-49);}.cls-56{fill:url(#linear-gradient-50);}.cls-57{fill:#e5d194;}.cls-58{fill:url(#linear-gradient-51);}.cls-59{fill:url(#linear-gradient-52);}.cls-60{fill:url(#linear-gradient-53);}</style><linearGradient id="linear-gradient" x1="10064.026" y1="177.694" x2="10067.759" y2="177.694" gradientTransform="translate(9699.352 -2898.347) rotate(161.894)" gradientUnits="userSpaceOnUse"><stop offset="0" stop-color="#fff"/><stop offset="1" stop-color="#fff" stop-opacity="0"/></linearGradient><linearGradient id="linear-gradient-2" x1="10063.493" y1="164.372" x2="10067.745" y2="164.372" xlink:href="#linear-gradient"/><linearGradient id="linear-gradient-3" x1="10044.611" y1="171.348" x2="10047.578" y2="171.348" xlink:href="#linear-gradient"/><linearGradient id="linear-gradient-4" x1="10059.674" y1="173.829" x2="10063.39" y2="173.829" xlink:href="#linear-gradient"/><linearGradient id="linear-gradient-5" x1="10050.367" y1="162.993" x2="10054.619" y2="162.993" xlink:href="#linear-gradient"/><linearGradient id="linear-gradient-6" x1="10043.405" y1="160.499" x2="10047.242" y2="160.499" xlink:href="#linear-gradient"/><linearGradient id="linear-gradient-7" x1="10036.762" y1="168.591" x2="10039.73" y2="168.591" xlink:href="#linear-gradient"/><linearGradient id="linear-gradient-8" x1="10039.511" y1="178.447" x2="10042.854" y2="178.447" xlink:href="#linear-gradient"/><linearGradient id="linear-gradient-9" x1="10046.734" y1="181.831" x2="10050.466" y2="181.831" xlink:href="#linear-gradient"/><linearGradient id="linear-gradient-10" x1="10051.967" y1="177.807" x2="10056.181" y2="177.807" xlink:href="#linear-gradient"/><linearGradient id="linear-gradient-11" x1="10059.889" y1="182.847" x2="10063.519" y2="182.847" xlink:href="#linear-gradient"/><linearGradient id="linear-gradient-12" x1="10061.758" y1="156.002" x2="10065.473" y2="156.002" xlink:href="#linear-gradient"/><linearGradient id="linear-gradient-13" x1="10088.03" y1="176.668" x2="10091.763" y2="176.668" xlink:href="#linear-gradient"/><linearGradient id="linear-gradient-14" x1="10083.678" y1="172.802" x2="10087.394" y2="172.802" xlink:href="#linear-gradient"/><linearGradient id="linear-gradient-15" x1="10063.515" y1="177.421" x2="10066.858" y2="177.421" xlink:href="#linear-gradient"/><linearGradient id="linear-gradient-16" x1="10070.738" y1="180.805" x2="10074.47" y2="180.805" xlink:href="#linear-gradient"/><linearGradient id="linear-gradient-17" x1="10075.971" y1="176.781" x2="10080.185" y2="176.781" xlink:href="#linear-gradient"/><linearGradient id="linear-gradient-18" x1="10083.893" y1="181.82" x2="10087.523" y2="181.82" xlink:href="#linear-gradient"/><linearGradient id="linear-gradient-19" x1="8671.439" y1="-4187.22" x2="8676.485" y2="-4187.22" gradientTransform="translate(9545.551 1825.709) rotate(-143.736)" xlink:href="#linear-gradient"/><linearGradient id="linear-gradient-20" x1="123.224" y1="85.552" x2="126.957" y2="85.552" gradientTransform="matrix(1, 0, 0, 1, 0, 0)" xlink:href="#linear-gradient"/><linearGradient id="linear-gradient-21" x1="122.691" y1="72.23" x2="126.943" y2="72.23" gradientTransform="matrix(1, 0, 0, 1, 0, 0)" xlink:href="#linear-gradient"/><linearGradient id="linear-gradient-22" x1="103.808" y1="79.206" x2="106.775" y2="79.206" gradientTransform="matrix(1, 0, 0, 1, 0, 0)" xlink:href="#linear-gradient"/><linearGradient id="linear-gradient-23" x1="118.872" y1="81.687" x2="122.587" y2="81.687" gradientTransform="matrix(1, 0, 0, 1, 0, 0)" xlink:href="#linear-gradient"/><linearGradient id="linear-gradient-24" x1="109.565" y1="70.851" x2="113.816" y2="70.851" gradientTransform="matrix(1, 0, 0, 1, 0, 0)" xlink:href="#linear-gradient"/><linearGradient id="linear-gradient-25" x1="102.603" y1="68.357" x2="106.44" y2="68.357" gradientTransform="matrix(1, 0, 0, 1, 0, 0)" xlink:href="#linear-gradient"/><linearGradient id="linear-gradient-26" x1="95.96" y1="76.449" x2="98.927" y2="76.449" gradientTransform="matrix(1, 0, 0, 1, 0, 0)" xlink:href="#linear-gradient"/><linearGradient id="linear-gradient-27" x1="98.708" y1="86.306" x2="102.052" y2="86.306" gradientTransform="matrix(1, 0, 0, 1, 0, 0)" xlink:href="#linear-gradient"/><linearGradient id="linear-gradient-28" x1="105.931" y1="89.689" x2="109.664" y2="89.689" gradientTransform="matrix(1, 0, 0, 1, 0, 0)" xlink:href="#linear-gradient"/><linearGradient id="linear-gradient-29" x1="111.164" y1="85.665" x2="115.379" y2="85.665" gradientTransform="matrix(1, 0, 0, 1, 0, 0)" xlink:href="#linear-gradient"/><linearGradient id="linear-gradient-30" x1="119.087" y1="90.705" x2="122.717" y2="90.705" gradientTransform="matrix(1, 0, 0, 1, 0, 0)" xlink:href="#linear-gradient"/><linearGradient id="linear-gradient-31" x1="120.956" y1="63.86" x2="124.671" y2="63.86" gradientTransform="matrix(1, 0, 0, 1, 0, 0)" xlink:href="#linear-gradient"/><linearGradient id="linear-gradient-32" x1="147.228" y1="84.526" x2="150.961" y2="84.526" gradientTransform="matrix(1, 0, 0, 1, 0, 0)" xlink:href="#linear-gradient"/><linearGradient id="linear-gradient-33" x1="142.876" y1="80.661" x2="146.591" y2="80.661" gradientTransform="matrix(1, 0, 0, 1, 0, 0)" xlink:href="#linear-gradient"/><linearGradient id="linear-gradient-34" x1="122.712" y1="85.279" x2="126.056" y2="85.279" gradientTransform="matrix(1, 0, 0, 1, 0, 0)" xlink:href="#linear-gradient"/><linearGradient id="linear-gradient-35" x1="129.935" y1="88.663" x2="133.668" y2="88.663" gradientTransform="matrix(1, 0, 0, 1, 0, 0)" xlink:href="#linear-gradient"/><linearGradient id="linear-gradient-36" x1="135.168" y1="84.639" x2="139.383" y2="84.639" gradientTransform="matrix(1, 0, 0, 1, 0, 0)" xlink:href="#linear-gradient"/><linearGradient id="linear-gradient-37" x1="143.091" y1="89.679" x2="146.721" y2="89.679" gradientTransform="matrix(1, 0, 0, 1, 0, 0)" xlink:href="#linear-gradient"/><linearGradient id="linear-gradient-38" x1="2805.577" y1="3838.969" x2="2810.624" y2="3838.969" gradientTransform="translate(1614.34 -4442.327) rotate(54.37)" xlink:href="#linear-gradient"/><linearGradient id="linear-gradient-39" x1="4716.154" y1="1846.69" x2="4719.869" y2="1846.69" gradientTransform="matrix(0.474, 1.645, -1.929, 0.556, 1361.04, -8706.683)" xlink:href="#linear-gradient"/><linearGradient id="linear-gradient-40" x1="8.456" y1="96.168" x2="9.814" y2="100.881" gradientTransform="matrix(1, 0, 0, 1, 0, 0)" xlink:href="#linear-gradient"/><linearGradient id="linear-gradient-41" x1="21.915" y1="94.746" x2="23.471" y2="100.144" gradientTransform="matrix(1, 0, 0, 1, 0, 0)" xlink:href="#linear-gradient"/><linearGradient id="linear-gradient-42" x1="40.296" y1="73.815" x2="41.579" y2="78.265" gradientTransform="matrix(1, 0, 0, 1, 0, 0)" xlink:href="#linear-gradient"/><linearGradient id="linear-gradient-43" x1="50.161" y1="78.848" x2="51.703" y2="84.197" gradientTransform="matrix(1, 0, 0, 1, 0, 0)" xlink:href="#linear-gradient"/><linearGradient id="linear-gradient-44" x1="31.727" y1="90.658" x2="33.469" y2="96.702" gradientTransform="matrix(1, 0, 0, 1, 0, 0)" xlink:href="#linear-gradient"/><linearGradient id="linear-gradient-45" x1="45.662" y1="98.811" x2="47.668" y2="105.769" gradientTransform="matrix(1, 0, 0, 1, 0, 0)" xlink:href="#linear-gradient"/><linearGradient id="linear-gradient-46" x1="60.746" y1="80.843" x2="63.188" y2="89.313" gradientTransform="matrix(1, 0, 0, 1, 0, 0)" xlink:href="#linear-gradient"/><linearGradient id="linear-gradient-47" x1="72.757" y1="85.849" x2="74.302" y2="91.207" gradientTransform="matrix(1, 0, 0, 1, 0, 0)" xlink:href="#linear-gradient"/><linearGradient id="linear-gradient-48" x1="79.607" y1="99.795" x2="81.347" y2="105.833" gradientTransform="matrix(1, 0, 0, 1, 0, 0)" xlink:href="#linear-gradient"/><linearGradient id="linear-gradient-49" x1="70.131" y1="97.766" x2="71.605" y2="102.88" gradientTransform="matrix(1, 0, 0, 1, 0, 0)" xlink:href="#linear-gradient"/><linearGradient id="linear-gradient-50" x1="92.4" y1="79.022" x2="94.353" y2="85.796" gradientTransform="matrix(1, 0, 0, 1, 0, 0)" xlink:href="#linear-gradient"/><linearGradient id="linear-gradient-51" x1="4100.531" y1="4319.357" x2="4101.814" y2="4323.807" gradientTransform="translate(2702.715 -5277.378) rotate(69.35)" xlink:href="#linear-gradient"/><linearGradient id="linear-gradient-52" x1="4111.928" y1="4318.742" x2="4113.47" y2="4324.091" gradientTransform="translate(2702.715 -5277.378) rotate(69.35)" xlink:href="#linear-gradient"/><linearGradient id="linear-gradient-53" x1="4208.012" y1="4347.693" x2="4209.965" y2="4354.467" gradientTransform="translate(2829.121 -5314.225) rotate(71.131)" xlink:href="#linear-gradient"/></defs><path class="cls-1" d="M78.905,60.283c-1.679-2.187-5.128-2.6-7.395-1.752-1.945.729-2.565,1.469-2.246,3.347.2,1.175.7,3.095,1.776,3.724,0,0,3.607,2.541,5.84,1.327S80.236,62.018,78.905,60.283Z"/><path class="cls-2" d="M76.88,63.487s3.266-1.56,1.011-3.521C73.909,56.5,73.71,62.674,76.88,63.487Z"/><path class="cls-3" d="M81.383,77.236a5.59,5.59,0,0,0,2.235-5.276c-.257-3.314-3.515-4.417-6.574-4.7-3.118-.294-7.524,1.179-6.915,4.7.629,3.643,2.511,5.552,5.914,6.718.144.05,1.145.569,1.286.612A16.62,16.62,0,0,0,81.383,77.236Z"/><path class="cls-4" d="M80.786,76.44s3.81-2.138,1.806-4.333C79.29,68.49,77.617,75.628,80.786,76.44Z"/><path class="cls-3" d="M97.747,74.217c7.9,1.587,8.255-8.86.953-9.553,0,0-6.585-1.2-7.605,2.384S97.747,74.217,97.747,74.217Z"/><path class="cls-3" d="M99.819,57.329c2.6-1.027,6.783-.557,8.132,1.984,1.438,2.707-1.613,5.905-4.593,5.254,0,0-7.116-.1-6.253-3.492S99.819,57.329,99.819,57.329Z"/><path class="cls-3" d="M94,53.371a4.03,4.03,0,0,1,3.385-5.643c3.909-.219,6.128,4.6,3.354,7.294,0,0-2.281,3.262-4.41,2.784S94,53.371,94,53.371Z"/><path class="cls-3" d="M94.057,50.977c-1.68-2.189-5.128-2.6-7.395-1.752-1.945.729-2.565,1.47-2.247,3.347.2,1.174.7,3.095,1.776,3.723,0,0,3.607,2.543,5.84,1.328S95.387,52.71,94.057,50.977Z"/><path class="cls-3" d="M91.757,55.9c-5.281-3.137-10.489,1.342-7.242,6.433.907,1.421,3.153,3.777,5.127,3.445a4.666,4.666,0,0,0,3.616-5.458S93.839,57.136,91.757,55.9Z"/><path class="cls-3" d="M76.942,60.212c-2.9-.145-6.888-4.62-3.6-6.988,1.521-1.095,4.382-1.148,6.025-.542,2.172.8,2.616,2.226,3.044,4.265,0,0-.007,3.409-2.078,4.226A2.96,2.96,0,0,1,76.942,60.212Z"/><path class="cls-5" d="M102.417,83.036s.854-3.023-1.174-4.1-3.535-1.589-3.893-2-.095-.972-.033-1.467.568-2.192.568-2.192a15.525,15.525,0,0,0-2.208-1.285c0,.159,1.124,4.12-.305,3.848a4.908,4.908,0,0,1-2.215-.965c-.477-.265-1.721.88-3.5-.121s-2.918-.9-5.405-2.352a41.306,41.306,0,0,1-6.043-4.993l-.768.725L81.2,71.6l-3.761.964-.11,1.2s5.551-.444,5.753-.51a37.445,37.445,0,0,1,5.458,2.175c1.732.858,3.009.5,2.206,1.285s-.954.841-1.842,1.71a20.635,20.635,0,0,1-3.2,2.157l1.351.719s1.948-1.217,2.126-1.7,3.149-2.667,3.681-2.577a28.614,28.614,0,0,1,3.429,1.1c.778.326,4.329,1.964,3.778,2.672a2.353,2.353,0,0,0-.421,1.615S102.132,84.555,102.417,83.036Z"/><path class="cls-3" d="M93.7,66.617s4.093.562,5.97-1.213,2.57-8.021-2.615-9.7-6.753,1.89-6.832,3.871S90.4,65.743,93.7,66.617Z"/><path class="cls-6" d="M97.707,62.824s2.609-.905.605-3.1S94.537,62.013,97.707,62.824Z"/><path class="cls-3" d="M80.577,68.162s5.825.049,5.678-4.5c-.084-2.628-3.153-5.885-4.846-6.281S75,58.952,75.285,62.4,76.95,67.658,80.577,68.162Z"/><path class="cls-7" d="M81.45,65.025s3.659,1.147,2.329-2.252a2.2,2.2,0,0,0-3.087-1.09C80.118,61.976,79.777,65.2,81.45,65.025Z"/><path class="cls-3" d="M94.287,74.466a5.587,5.587,0,0,0,2.236-5.275c-.258-3.314-3.515-4.417-6.574-4.7-3.118-.294-7.524,1.177-6.916,4.7.63,3.644,2.511,5.553,5.914,6.718.145.051,1.145.569,1.286.613A16.614,16.614,0,0,0,94.287,74.466Z"/><path class="cls-8" d="M93.691,73.671s3.81-2.137,1.806-4.333C92.2,65.721,90.522,72.858,93.691,73.671Z"/><path class="cls-9" d="M101.307,73.391s3.468-1.955,1.464-4.151S98.138,72.579,101.307,73.391Z"/><path class="cls-10" d="M106.023,63.006s2.609-.905.606-3.1S102.854,62.194,106.023,63.006Z"/><path class="cls-11" d="M100.019,55.012s2.813-1.93.81-4.126S96.85,54.2,100.019,55.012Z"/><path class="cls-12" d="M92.03,54.18s3.267-1.558,1.013-3.519C89.06,47.2,88.862,53.368,92.03,54.18Z"/><path class="cls-13" d="M88.486,59.207s2.859-1.133.855-3.33S82.72,57.974,88.486,59.207Z"/><path class="cls-14" d="M79.654,56.776s2.609-.905.607-3.1S74.558,54.909,79.654,56.776Z"/><path class="cls-3" d="M84.137,85.754s5.825.049,5.677-4.5c-.083-2.627-3.153-5.885-4.845-6.281s-6.412,1.568-6.124,5.011S80.51,85.25,84.137,85.754Z"/><path class="cls-15" d="M85.01,82.617s3.659,1.147,2.329-2.252a2.2,2.2,0,0,0-3.087-1.09C83.678,79.567,83.337,82.8,85.01,82.617Z"/><path class="cls-3" d="M56.409,68.718c-1.68-2.187-5.128-2.6-7.395-1.752-1.945.729-2.566,1.47-2.247,3.348.2,1.174.7,3.094,1.776,3.724,0,0,3.607,2.541,5.84,1.326S57.739,70.453,56.409,68.718Z"/><path class="cls-16" d="M54.384,71.922S57.65,70.363,55.4,68.4C51.412,64.938,51.214,71.109,54.384,71.922Z"/><path class="cls-3" d="M71.505,61.807a4.03,4.03,0,0,1,3.385-5.644c3.909-.219,6.128,4.606,3.354,7.3,0,0-2.282,3.261-4.411,2.784S71.505,61.807,71.505,61.807Z"/><path class="cls-3" d="M71.561,59.413c-1.681-2.189-5.129-2.6-7.4-1.753-1.944.73-2.565,1.47-2.247,3.347.2,1.175.7,3.1,1.776,3.723,0,0,3.608,2.543,5.841,1.329S72.89,61.146,71.561,59.413Z"/><path class="cls-3" d="M69.261,64.334c-5.282-3.137-10.489,1.342-7.243,6.433.907,1.421,3.153,3.777,5.128,3.446a4.667,4.667,0,0,0,3.616-5.458S71.342,65.572,69.261,64.334Z"/><path class="cls-3" d="M54.446,68.648c-2.9-.146-6.889-4.621-3.6-6.988,1.52-1.1,4.381-1.149,6.025-.542,2.172.8,2.616,2.226,3.044,4.265,0,0-.007,3.408-2.078,4.225A2.961,2.961,0,0,1,54.446,68.648Z"/><path class="cls-3" d="M71.2,75.052s4.093.562,5.969-1.213,2.571-8.021-2.614-9.7-6.754,1.89-6.833,3.871S67.9,74.179,71.2,75.052Z"/><path class="cls-3" d="M58.08,76.6s5.825.049,5.678-4.5c-.084-2.628-3.153-5.885-4.845-6.282s-6.412,1.568-6.125,5.012S54.454,76.093,58.08,76.6Z"/><path class="cls-17" d="M58.954,73.461s3.659,1.147,2.328-2.253a2.2,2.2,0,0,0-3.086-1.09C57.621,70.411,57.281,73.638,58.954,73.461Z"/><path class="cls-18" d="M77.523,63.447s2.813-1.93.81-4.126S74.354,62.634,77.523,63.447Z"/><path class="cls-19" d="M69.534,62.615S72.8,61.057,70.547,59.1C66.564,55.632,66.365,61.8,69.534,62.615Z"/><path class="cls-20" d="M65.989,67.643s2.859-1.134.856-3.33S60.224,66.409,65.989,67.643Z"/><path class="cls-21" d="M57.158,65.212s2.609-.905.606-3.1S52.061,63.344,57.158,65.212Z"/><path class="cls-22" d="M72.683,71.846s1.626,4.95,4.331.786a2.984,2.984,0,0,0-1.236-4.272C75,67.957,71.164,70.139,72.683,71.846Z"/><path class="cls-1" d="M122.74,85.606c.917,2.6,4.065,4.067,6.484,3.963,2.076-.088,2.9-.6,3.176-2.483.176-1.178.3-3.158-.531-4.091,0,0-2.638-3.537-5.138-3.076S122.015,83.543,122.74,85.606Z"/><path class="cls-23" d="M125.661,83.19s-3.59.467-2.056,3.032C126.314,90.752,128.421,84.948,125.661,83.19Z"/><path class="cls-24" d="M125.654,68.723a5.587,5.587,0,0,0-3.764,4.319c-.786,3.23,1.968,5.291,4.786,6.515,2.872,1.249,7.518,1.218,8.033-2.315.534-3.658-.661-6.057-3.534-8.223-.121-.092-.912-.9-1.032-.982A16.63,16.63,0,0,0,125.654,68.723Z"/><path class="cls-25" d="M125.974,69.665s-4.286.847-3.064,3.556C124.925,77.686,128.733,71.421,125.974,69.665Z"/><path class="cls-24" d="M109.162,66.507c-7.012-3.964-10.6,5.855-3.875,8.783,0,0,5.887,3.183,7.97.1S109.162,66.507,109.162,66.507Z"/><path class="cls-26" d="M101.944,81.914c-2.789.168-6.62-1.579-7.113-4.413-.526-3.021,3.368-5.112,6-3.566,0,0,6.732,2.306,4.858,5.261S101.944,81.914,101.944,81.914Z"/><path class="cls-26" d="M106.244,87.484a4.031,4.031,0,0,1-4.972,4.312c-3.783-1.007-4.393-6.282-.921-7.976,0,0,3.182-2.391,5.058-1.275S106.244,87.484,106.244,87.484Z"/><path class="cls-27" d="M105.447,89.742c.916,2.6,4.065,4.068,6.484,3.964,2.075-.089,2.895-.6,3.176-2.483.175-1.179.3-3.159-.531-4.091,0,0-2.639-3.538-5.139-3.078S104.721,87.681,105.447,89.742Z"/><path class="cls-27" d="M109.162,85.778c4.045,4.624,10.386,1.985,8.883-3.863-.42-1.633-1.823-4.57-3.8-4.868a4.666,4.666,0,0,0-5.134,4.064S107.568,83.955,109.162,85.778Z"/><path class="cls-27" d="M124.584,86.283c2.714,1.041,5.111,6.533,1.252,7.762-1.786.568-4.521-.271-5.895-1.358-1.816-1.435-1.8-2.929-1.568-5,0,0,1.066-3.237,3.288-3.37A2.96,2.96,0,0,1,124.584,86.283Z"/><path class="cls-5" d="M107.464,56.672s-1.751,2.608-.16,4.265,2.867,2.609,3.08,3.112-.213.953-.425,1.4-1.222,1.907-1.222,1.907a15.642,15.642,0,0,0,1.7,1.908c.053-.15.212-4.266,1.487-3.562a4.9,4.9,0,0,1,1.8,1.605c.371.4,1.91-.3,3.29,1.2s2.5,1.757,4.406,3.914a41.335,41.335,0,0,1,4.192,6.624l.956-.451-2.5-4.467,3.875.252.478-1.106s-5.414-1.3-5.627-1.3a37.56,37.56,0,0,1-4.512-3.763c-1.379-1.354-2.706-1.406-1.7-1.907s1.168-.5,2.283-1.054a20.625,20.625,0,0,1,3.715-1.054l-1.061-1.1a9.22,9.22,0,0,0-2.548.953c-.319.4-3.822,1.556-4.3,1.3a28.5,28.5,0,0,1-2.918-2.106c-.638-.552-3.5-3.213-2.761-3.715a2.351,2.351,0,0,0,.9-1.4S108.207,55.317,107.464,56.672Z"/><path class="cls-24" d="M110.648,74.988s-3.716-1.806-6.051-.7-4.935,6.825-.531,10.035,7.007.3,7.7-1.555S113.515,76.845,110.648,74.988Z"/><path class="cls-28" d="M105.659,77.347s-2.76.05-1.539,2.76S108.42,79.1,105.659,77.347Z"/><path class="cls-27" d="M123.6,77.6s-5.521-1.856-6.794,2.51c-.737,2.524,1.168,6.573,2.653,7.476s6.582.5,7.379-2.86S126.891,79.2,123.6,77.6Z"/><path class="cls-29" d="M121.8,80.308s-3.121-2.228-2.913,1.417a2.2,2.2,0,0,0,2.595,2C122.114,83.62,123.44,80.659,121.8,80.308Z"/><path class="cls-24" d="M112.528,67.344a5.59,5.59,0,0,0-3.765,4.32c-.785,3.23,1.968,5.29,4.787,6.514,2.872,1.249,7.518,1.219,8.033-2.314.534-3.66-.662-6.059-3.534-8.224-.122-.093-.911-.9-1.031-.982A16.64,16.64,0,0,0,112.528,67.344Z"/><path class="cls-30" d="M112.848,68.285s-4.286.848-3.064,3.558C111.8,76.307,115.607,70.043,112.848,68.285Z"/><path class="cls-31" d="M105.521,66.185s-3.9.78-2.681,3.49S108.281,67.941,105.521,66.185Z"/><path class="cls-32" d="M97.811,74.59s-2.76.049-1.54,2.759S100.571,76.346,97.811,74.59Z"/><path class="cls-33" d="M101.033,84.054s-3.273.96-2.052,3.67S103.793,85.812,101.033,84.054Z"/><path class="cls-34" d="M108.368,87.328s-3.589.466-2.056,3.03C109.021,94.889,111.128,89.084,108.368,87.328Z"/><path class="cls-35" d="M113.3,83.651s-3.07.189-1.848,2.9S118.4,86.615,113.3,83.651Z"/><path class="cls-36" d="M120.938,88.706s-2.76.05-1.54,2.76S125.2,92.065,120.938,88.706Z"/><path class="cls-24" d="M125.684,59.77s-5.522-1.856-6.8,2.511c-.737,2.523,1.168,6.573,2.654,7.476s6.582.5,7.377-2.86S128.974,61.376,125.684,59.77Z"/><path class="cls-37" d="M123.879,62.48s-3.122-2.226-2.913,1.417a2.2,2.2,0,0,0,2.594,2C124.2,65.794,125.524,62.831,123.879,62.48Z"/><path class="cls-26" d="M146.744,84.58c.917,2.6,4.065,4.067,6.484,3.963,2.076-.088,2.9-.6,3.176-2.483.176-1.179.3-3.158-.531-4.092,0,0-2.638-3.536-5.138-3.076S146.019,82.517,146.744,84.58Z"/><path class="cls-38" d="M149.665,82.164s-3.589.467-2.056,3.032C150.318,89.726,152.425,83.922,149.665,82.164Z"/><path class="cls-24" d="M130.248,86.457a4.031,4.031,0,0,1-4.972,4.313c-3.783-1.007-4.393-6.283-.921-7.976,0,0,3.182-2.391,5.058-1.276S130.248,86.457,130.248,86.457Z"/><path class="cls-27" d="M129.451,88.715c.916,2.6,4.065,4.069,6.484,3.965,2.075-.09,2.9-.6,3.176-2.483.175-1.179.3-3.159-.531-4.091,0,0-2.639-3.538-5.139-3.078S128.725,86.655,129.451,88.715Z"/><path class="cls-27" d="M133.166,84.752c4.045,4.624,10.387,1.985,8.883-3.863-.42-1.633-1.823-4.57-3.8-4.869a4.668,4.668,0,0,0-5.134,4.064S131.572,82.929,133.166,84.752Z"/><path class="cls-27" d="M148.588,85.257c2.714,1.04,5.111,6.532,1.252,7.761-1.786.569-4.521-.27-5.9-1.357-1.816-1.435-1.795-2.929-1.568-5,0,0,1.066-3.238,3.288-3.37A2.96,2.96,0,0,1,148.588,85.257Z"/><path class="cls-24" d="M134.652,73.962s-3.716-1.806-6.051-.7-4.935,6.824-.531,10.035,7.007.3,7.7-1.556S137.519,75.819,134.652,73.962Z"/><path class="cls-24" d="M147.6,76.571s-5.521-1.856-6.794,2.51c-.737,2.524,1.168,6.573,2.653,7.476s6.582.5,7.379-2.86S150.9,78.178,147.6,76.571Z"/><path class="cls-39" d="M145.8,79.281s-3.121-2.227-2.913,1.418a2.2,2.2,0,0,0,2.595,2C146.118,82.594,147.444,79.632,145.8,79.281Z"/><path class="cls-40" d="M125.038,83.028s-3.274.96-2.053,3.67S127.8,84.786,125.038,83.028Z"/><path class="cls-41" d="M132.372,86.3s-3.589.465-2.056,3.029C133.025,93.862,135.132,88.057,132.372,86.3Z"/><path class="cls-42" d="M137.3,82.624s-3.07.19-1.848,2.9S142.4,85.589,137.3,82.624Z"/><path class="cls-43" d="M144.942,87.68s-2.76.049-1.54,2.76S149.206,91.039,144.942,87.68Z"/><path class="cls-44" d="M132.248,76.549s-.007-5.211-3.872-2.093a2.985,2.985,0,0,0-.153,4.445C128.837,79.525,133.161,78.643,132.248,76.549Z"/><ellipse class="cls-27" cx="90.893" cy="98.929" rx="7.519" ry="5.829" transform="translate(-11.463 185.945) rotate(-87.793)"/><ellipse class="cls-27" cx="99.623" cy="80.769" rx="5.829" ry="7.519" transform="translate(-28.379 88.765) rotate(-42.608)"/><ellipse class="cls-27" cx="80.021" cy="78.457" rx="6.718" ry="5.188" transform="translate(-25.956 42.019) rotate(-25.46)"/><path class="cls-27" d="M95.767,86.048s-2.7,2-1.721,6.45,3.852,9.155,7.917,7.331,3.887-8.137,2.753-11.439S97.7,81.7,95.767,86.048Z"/><path class="cls-27" d="M59.381,95.009s-3.269-.786-6.046,2.831-4.533,8.837-.522,10.777,8.731-2.256,10.531-5.249S63.949,93.691,59.381,95.009Z"/><ellipse class="cls-27" cx="66.865" cy="93.788" rx="7.519" ry="5.829" transform="translate(-43.462 60.698) rotate(-37.818)"/><ellipse class="cls-27" cx="73.508" cy="83.991" rx="7.519" ry="5.829" transform="translate(-34.763 56.876) rotate(-34.748)"/><ellipse class="cls-27" cx="83.537" cy="94.581" rx="6.718" ry="5.188" transform="translate(-18.365 169.013) rotate(-84.694)"/><ellipse class="cls-27" cx="59.932" cy="79.299" rx="7.072" ry="4.87" transform="matrix(0.79, -0.613, 0.613, 0.79, -36.035, 53.403)"/><ellipse class="cls-27" cx="55.211" cy="91.387" rx="7.519" ry="5.829" transform="translate(-44.438 53.048) rotate(-37.818)"/><path class="cls-24" d="M17.474,95.684s-2.1-2.626-6.512-1.47-9,4.2-7.021,8.192,8.281,3.572,11.537,2.311S21.89,97.444,17.474,95.684Z"/><ellipse class="cls-24" cx="24.134" cy="99.308" rx="7.519" ry="5.829"/><ellipse class="cls-24" cx="35.693" cy="99.759" rx="7.519" ry="5.829" transform="translate(-59.939 54.148) rotate(-44.815)"/><ellipse class="cls-24" cx="45.246" cy="94.581" rx="6.718" ry="5.188" transform="translate(-54.716 62.951) rotate(-46.876)"/><ellipse class="cls-24" cx="41.87" cy="77.564" rx="7.072" ry="4.87"/><ellipse class="cls-24" cx="33.86" cy="93.937" rx="6.472" ry="4.929"/><ellipse class="cls-24" cx="51.03" cy="83.389" rx="7.676" ry="5.684" transform="matrix(0.794, -0.608, 0.608, 0.794, -40.199, 48.248)"/><ellipse class="cls-24" cx="38.726" cy="84.812" rx="7.519" ry="5.829"/><ellipse class="cls-24" cx="48.256" cy="102.699" rx="7.519" ry="5.829" transform="translate(-52.108 49.756) rotate(-37.02)"/><ellipse class="cls-24" cx="71.797" cy="102.068" rx="7.519" ry="5.829" transform="translate(-51.735 84.389) rotate(-46.732)"/><ellipse class="cls-24" cx="107.678" cy="96.206" rx="4.967" ry="7.519" transform="translate(-30.328 53.726) rotate(-24.67)"/><ellipse class="cls-24" cx="62.641" cy="85.642" rx="6.56" ry="5.932" transform="translate(-43.461 84.672) rotate(-53.294)"/><ellipse class="cls-24" cx="106.287" cy="84.245" rx="4.581" ry="6.228" transform="translate(-29.261 79.661) rotate(-36.464)"/><ellipse class="cls-24" cx="74.088" cy="89.516" rx="7.061" ry="4.714" transform="translate(-41.874 82.108) rotate(-46.732)"/><ellipse class="cls-24" cx="90.12" cy="91.387" rx="4.967" ry="7.519" transform="translate(-29.919 45.957) rotate(-24.67)"/><ellipse class="cls-24" cx="81.485" cy="105.137" rx="4.967" ry="7.519" transform="translate(-36.446 43.608) rotate(-24.67)"/><ellipse class="cls-24" cx="94.655" cy="84.245" rx="4.967" ry="7.519" transform="translate(-1.723 1.977) rotate(-1.186)"/><path class="cls-45" d="M39.383,84.585s2.815-6.375-4.116-4a3.874,3.874,0,0,0-2.619,5.378C33.141,86.952,39.486,87.487,39.383,84.585Z"/><path class="cls-46" d="M11.959,95.589s-5.566.41-6.249,2.2-1.418,2.754.63,3.556,6.985-2.191,6.932-3.609S13.045,95.47,11.959,95.589Z"/><path class="cls-47" d="M24.616,94.581a28.124,28.124,0,0,0-4.569.709c-1.313.447-2.731,1.506-1.575,3.576s5.829,1.6,6.669.442S29.06,94.807,24.616,94.581Z"/><path class="cls-48" d="M42.308,73.4s-5.777.893-5.777,2.678,2.59,2.836,5.339,2.1S47.093,73.08,42.308,73.4Z"/><path class="cls-49" d="M52.818,78.458S49.1,78.353,48.256,80.4s-2.213,4.041.466,4.41S58.49,80.086,52.818,78.458Z"/><path class="cls-50" d="M31.969,90.642s-3.6.473-3.009,2.836,2.116,3.414,3.691,3.414S36,93.329,35.693,91.985,31.969,90.642,31.969,90.642Z"/><path class="cls-51" d="M49.247,97.785s-5.462,1.365-5.935,3.256-.63,4.736,1.1,5.44S52.5,101.566,49.247,97.785Z"/><path class="cls-52" d="M62.641,80.3s-5,1.734-4.6,4.254,3.972,5.279,5.39,4.688S66.561,79.435,62.641,80.3Z"/><path class="cls-53" d="M76.346,84.831s-4.727,1.137-5.567,2.608-2.521,3.421-.525,4.546S81.02,86.32,76.346,84.831Z"/><path class="cls-54" d="M80.6,99.518s-2.206.42-2.258,2.1.1,3.728,1.679,4.411S84.539,101.514,80.6,99.518Z"/><path class="cls-55" d="M73.508,96.892s-6.615,1.242-6.773,3.4,3.507,2.592,5.062,2.509S75.711,97.207,73.508,96.892Z"/><path class="cls-56" d="M94.36,78.457s-3.467,1.052-3.467,3.415,1.366,3.939,2.941,4.044S95.83,78.457,94.36,78.457Z"/><path class="cls-57" d="M106.964,54.825s-2.206,5.567-3.992,6.723A44.875,44.875,0,0,0,97.09,67.01c-.525.63-4.726,4.361-5.251,4.018s-5.252.708-5.252,1.233a6.027,6.027,0,0,1,0,2.8c-.42,1.3-1.786,2.243-2.416,3.925a20.194,20.194,0,0,0-.84,4.406s-.105-.414-1.471-.624-3.466,2.047-3.466,2.047-.42.579,0,.894S81.02,83.92,81.02,83.92s1.366-.42,1.891.315-.631,4.082-1.471,4.772-6.407,6.308-6.407,6.283-1.05-.032,0,.916,1.891-1.782,1.891-1.782l1.89,4.442s1.156.389.841-.766a39.677,39.677,0,0,0-1.786-4.163l4.2-4.055.631-1.34.525,3.151s.84.735.735-.21-.735-3.676-.735-3.676l.735-3.572s.105-1.365,1.681-.42,1.575,2,1.575,2,1.576.418.84-1-.42-2.1-2.52-2.257-1.471-.21-1.471-.21a15.263,15.263,0,0,1,1.786-3.362c.735-.735,1.575-1.166,1.68-2.106s.63-2.83.63-3.355.421-.736.841.21a22.141,22.141,0,0,0,2.311,3.145l.42,1.581s1.05,1.051,1.155,0a3.75,3.75,0,0,0-1.05-2.559c-.42-.487-2.311-3.428-2.311-3.428s.945-.945,1.68-.735.841.475,3.152-.708a21.076,21.076,0,0,0,4.726-3.808s2.1,3.781,2.521,4.936,1.786,7.668,1.786,7.668,1.26.84,1.05-.42-4.622-12.6-4.622-12.6a7.655,7.655,0,0,0,2.206-2.31,29.3,29.3,0,0,1,4.937-4.727c1.365-1.155,3.571-3.781,2.731-4.411S107.173,54.319,106.964,54.825Z"/><path class="cls-58" d="M108.007,84.676s-2.873-5.091-4.543-4.461-1.741,3.424-.083,5.737S110,89.041,108.007,84.676Z"/><path class="cls-59" d="M112.807,95.737s-1.212-3.514-3.427-3.584-4.563-.645-3.963,1.991S113.284,101.618,112.807,95.737Z"/><ellipse class="cls-24" cx="71.797" cy="77.564" rx="7.519" ry="4.967" transform="translate(-22.245 29.324) rotate(-20.055)"/><path class="cls-60" d="M77.178,75.412s-2.116-2.94-4.352-2.176-3.285,2.566-2.875,4.091S77.655,76.8,77.178,75.412Z"/><path class="cls-57" d="M87.205,72.334a2.8,2.8,0,0,0-1.841-.452,13.29,13.29,0,0,0-1.9.349c-1.033.217-2.089.324-3.114.574a6.068,6.068,0,0,0-2.8,1.393.714.714,0,0,0-.179.234.537.537,0,0,0,.388.653,1.48,1.48,0,0,0,.84-.07c1.369-.4,2.693-.953,4.082-1.274a6.991,6.991,0,0,1,4.207.145"/></svg>