<svg id="word" xmlns="http://www.w3.org/2000/svg" viewBox="0 0 160 160"><defs><style>.cls-1{fill:#84847f;}.cls-1,.cls-2,.cls-3{stroke:#9d4b9c;stroke-miterlimit:10;stroke-width:0.774px;}.cls-2{fill:#fffcec;}.cls-3{fill:#fff;}.cls-4{fill:#9d4b9c;}.cls-5{fill:#9d509e;}.cls-6{fill:#080808;}</style></defs><path class="cls-1" d="M27.087,44.938A12.8,12.8,0,0,1,25,42.26c-.612-1.231-1.167-.947-2.1-1.666a2.949,2.949,0,0,0-2.212-.434,3.574,3.574,0,0,1,2.4-1.436c1.392-.039,2.307,0,2.307,0a4,4,0,0,0-2.428-1.166c-1.346-.034-3.024,0-3.024,0a11.769,11.769,0,0,1,3.572-.865c2.056-.171,4.59-.382,5.275.308s-.317-1.572-.317-1.572,1.62,1.938,2.116,2.338a14.608,14.608,0,0,1,1.568,1.976l.17-2.766,1.038,3.207a34.449,34.449,0,0,0,1.278-3.245c.039-.418,0,2.5,0,2.5a32.011,32.011,0,0,0,2.49-2.389A17.6,17.6,0,0,1,39.8,35.017l-1.482,4.422s1.056-3.345,1.8-3.586A8.674,8.674,0,0,0,42.085,34.6l-1.967,3.509a14.15,14.15,0,0,1,2.56-1.838,4.775,4.775,0,0,0,1.409-.842l-1,2.513a12.078,12.078,0,0,1,2.36-1.588c.89-.344,2.176-.745,2.176-.745l-2.176,3.417S47.519,38,48.025,37.654s1.3-.824,1.3-.824l-1.7,3.368s2-1.507,2.336-1.691,1.443-.832,1.443-.832l-1.712,3.292s.156-.608,1.148-.761a1.912,1.912,0,0,0,1.376-.868s-.2,2.022-.644,2.247,2.589-.314,3.007-.965a8.435,8.435,0,0,0,.733-1.6l-.766,4.069a10.6,10.6,0,0,1,2.086-2.7c1.084-.853,2.253-1.7,2.253-1.7L56.629,43.4s2.228-1.253,2.808-1.722a10.014,10.014,0,0,1,1.809-.993l-1.809,3.326a18.817,18.817,0,0,1,2.021-.66c1.411-.4,2.946-.681,2.946-.681L62.545,44.25s3.776-.946,3.861-.848a12.278,12.278,0,0,1-1.6,1.476,5.391,5.391,0,0,1,2.354-.338,12.973,12.973,0,0,0,3.468-.527l-3.466,1.705s4.579-.142,4.808-.431-1.213,1.727-1.213,1.727l4.177-1.8-2.212,3.555S59.056,50.039,55.8,49.3,38.446,43.362,36.749,43.4,28.9,45.939,28.9,45.939Z"/><path class="cls-2" d="M109.862,75.121s7.767,8.9,8.954,11.193,7.506,7.992,9.118,11.124a20.667,20.667,0,0,1,2,9.118c-.009,2.334-1.423,8.477-2.761,9.462a4.364,4.364,0,0,0-1.592,2.578l7.461.485L135.5,96.472l.775-7.317L119.053,68.776Z"/><path class="cls-1" d="M126.466,117.3s-2.077,3.512-2.342,3.95-1.054.914-.391,1.754,5.106.9,5.436.908,3.474-.908,3.474-.908l-.763-4.843S128.887,116.486,126.466,117.3Z"/><path class="cls-2" d="M57.979,80.352s.006,13.242,0,13.744,1.286,4.245.433,5.026a6.391,6.391,0,0,0-1.581,4.05c.008,1.369.327,3.308-.122,4.678s-2.557,7.052-3.3,8.624-4.786,6.067-4.786,6.067L55.8,123.7a9.447,9.447,0,0,1,1.932-2.717,4.52,4.52,0,0,0,1.707-2.815c.3-1.218,1.443-7.687,2.484-9.194a6.669,6.669,0,0,0,1.119-5.432c-.564-1.7,2.369-9.781,3.366-11.462s2.743-10.321,2.743-10.321a9.011,9.011,0,0,0-4.974-1.822A26.466,26.466,0,0,0,57.979,80.352Z"/><path class="cls-1" d="M50.446,120.432a8,8,0,0,1,3.567.386,18.525,18.525,0,0,1,2.482,1.643s.256,3.011-.957,2.977a16.3,16.3,0,0,0-3.158,0c-1.4.172-4.043-.315-4.418-1.216S50.446,120.432,50.446,120.432Z"/><path class="cls-2" d="M36.411,42.089a22.334,22.334,0,0,1-3.932.346A9.108,9.108,0,0,0,26.9,44.6c-1.176,1.192-3.336,6.549-3.673,7.467S19.7,60.7,19.7,60.7L18.242,63.72s2.718,5.575,3.34,5.943,3.183,0,3.183,0,3.227-2.834,3.747-3.158,3.289-2,4.477-2.881,3.837-3.487,3.837-3.487,5.6,1.467,6.26,2.633,5.16,3.859,6.53,5.827S53.723,76.4,54.947,78.3a7.5,7.5,0,0,0,6.18,3.078c2.3-.073,3.254-.43,4.458,0s6.267,3.3,6.748,3.518S77.8,87.81,79,91.556s6.281,10.222,7.1,12.1,2.478,5.558,2.687,7.161.717,6.839.717,6.839l.075,6.674.4,2.706s3.757,1.094,4.781.542a6.437,6.437,0,0,0,1.905-2.067L94.9,119.662s-1.453-7.515-1.418-9.272a19.346,19.346,0,0,0-1.4-5.807,10.921,10.921,0,0,1-1.69-3.639c-.3-1.727-1.453-8.531-2.574-11.576s-2.961-7.332-2.961-7.332,3.274.921,12.509-1.47a77.235,77.235,0,0,0,16.492-6.459l3.023-2.441s1.181,4.874,2.985,7.191,8.6,9.7,10.3,10.643,3.823,3.606,3.778,4.5-1.73,7.947-2.936,10.236-2.147,4.595-1.708,6.9,1.286,8.432,2.267,10.393a16.883,16.883,0,0,0,2.887,3.813,25.625,25.625,0,0,0,3.912-2.17c.516-.58,1.933-5.517,1.933-5.517s-4.594-3.1-4.025-3.928-.448-11,.325-12.144a56.922,56.922,0,0,0,3.476-5.614,35.956,35.956,0,0,0,.434-6.279c-.223-.522-4.856-7.845-4.856-7.845s-3.311-4.655-3-6.73,2.415-9.952,3-13.075,2.38-10.319,2.109-11.31-3.249-9.515-11.523-10.948-16.706.6-27.327,3.612-33.33,4-33.33,4-10.791-.485-13.317-1.038S36.411,42.089,36.411,42.089Z"/><path class="cls-2" d="M33.04,44.013s-2.231-3.641-3.837-4.29-4.174-1.13-3.208-.1S28.642,45,28.9,45.939a2.643,2.643,0,0,0,.572,1.216"/><path class="cls-1" d="M14.888,67.7s.39,3.96,1.046,4.5,1.252,1.047,2.138.675,1.264-.5,1.264-.5.279.447,1.866.183,3.563-2.886,3.563-2.886.812-1.443-.613-1.887-1.38-.022-2.551-.921-.642-2.367-1.479-3.125a3.457,3.457,0,0,1-1.01-1.813s-2.179,2.554-2.625,3.2A10.517,10.517,0,0,0,14.888,67.7Z"/><path class="cls-3" d="M27.529,51.4s-.73-1.228-1.146-.879-2.617,3.04-2.022,3.841,1.925-.4,2.535-.986A2.362,2.362,0,0,0,27.529,51.4Z"/><path class="cls-4" d="M64.823,81.484a19.3,19.3,0,0,1-2.338-1.761,14.894,14.894,0,0,1-1.88-2.241,19.3,19.3,0,0,0-3.976-4.106,19.512,19.512,0,0,1,4.28,3.866,14.54,14.54,0,0,0,1.955,2.043,18.86,18.86,0,0,0,2.371,1.544Z"/><path class="cls-4" d="M85.42,82.191a.494.494,0,0,1-.653.4l-.172-.045-.057-.174a23.217,23.217,0,0,0-3.224-6.28,23.573,23.573,0,0,1,3.924,6l-.229-.219a.26.26,0,0,0-.356.213Z"/><polygon class="cls-4" points="116.372 71.595 116.005 65.771 117.133 71.459 116.372 71.595"/><path class="cls-4" d="M36.452,59.921a2.893,2.893,0,0,0,1.127-1.571,8.71,8.71,0,0,0,.3-2.1,8.9,8.9,0,0,1,.074,2.187,3.492,3.492,0,0,1-1.007,2.08Z"/><path class="cls-4" d="M16.334,69.705A.793.793,0,0,1,16,69.069a.964.964,0,0,1,.174-.57,1.163,1.163,0,0,1,.9-.44,2.808,2.808,0,0,1,.859.069.942.942,0,0,1,.664.491.844.844,0,0,0-.692-.3,2.526,2.526,0,0,0-.76.119.68.68,0,0,0-.467.353c-.063.153.046.315.059.249Z"/><path class="cls-4" d="M18.76,72.007a3.873,3.873,0,0,0,2.99-3.4,4.256,4.256,0,0,1-2.78,4.142Z"/><path class="cls-1" d="M90.075,122.618a4.372,4.372,0,0,1,2.322-.7c1.442-.042,3.182,0,3.182,0s1.775,3.951,1.546,4.118-1.4,1.693-2.722,1.673-4.528.107-4.878-.216.037-4.322.037-4.322Z"/><path class="cls-1" d="M136.9,114.946s3.661,1.6,3.86,2.7-.474,3.222-.986,4.557-1.93,2.955-3,3.057a12.524,12.524,0,0,0-2.417.573s-1.612-2.29-2.2-3.3-.259-2.351,1.174-4.044A39.957,39.957,0,0,1,136.9,114.946Z"/><path class="cls-1" d="M144.477,80.566s-.327,7.311.494,9.984,2.131,5.6,2.266,6.119.693,2.159.439,2.5,1.564-3.322,1.69-5.816-.5-8.761-1.375-9.823S145.919,79.236,144.477,80.566Z"/><path class="cls-2" d="M137.886,52a50.269,50.269,0,0,1,1.68,8.336c.587,4.888,1.281,8.649,1.84,11.959s4.378,8.794,4.378,8.794l-.746.854a27.764,27.764,0,0,1-2.566-3.03c-1.112-1.567-4.84-6.131-4.586-8.862s-.273-9.277-.241-10.4-1.368-3.654-1.368-3.654l.93-4.655.436,1.069"/><ellipse class="cls-5" cx="25.784" cy="52.4" rx="1.213" ry="0.682" transform="translate(-31.783 42.571) rotate(-54.111)"/><path class="cls-6" d="M125.845,47l-.03-.132a14.231,14.231,0,0,0-1.806.369,24.968,24.968,0,0,0-7.935,4.174,36.719,36.719,0,0,0-3.3,2.717c-1.373,1.423-2.605,2.987-3.839,4.536a15.192,15.192,0,0,0-1.877,2.768c-.906,1.873-1.653,3.824-2.471,5.74-.367.859-.728,1.721-1.125,2.566-.475,1.011-.961,2.019-1.491,3-.337.626-.462,1.416-1.232,1.758-.052.024.018.325.031.5a1.315,1.315,0,0,0,.455-.047c.136-.068.213-.247.344-.335a8.441,8.441,0,0,0,2.345-2.511,8.916,8.916,0,0,1,1.008-1.169c.309-.328.643-.634.974-.94.209-.192.436-.364.65-.551a11.04,11.04,0,0,0,.907-.819c.266-.29.447-.658.717-.944a17,17,0,0,0,1.591-1.609,28.485,28.485,0,0,0,1.568-2.683,14.732,14.732,0,0,1,2.294-3.779c.039-.037.107-.091.1-.123-.158-.672.386-1.132.668-1.547a10.431,10.431,0,0,1,2.276-2.4c1.328-1.01,2.794-1.837,4.183-2.769,1.337-.9,2.643-1.84,3.975-2.745,1.557-1.057,3.135-2.085,4.682-3.156.2-.138.267-.463.4-.7-.269,0-.539-.017-.807,0-.079.005-.148.108-.231.137a7.465,7.465,0,0,1-.817.251c-.314.069-.638.085-.953.15C126.672,46.787,126.259,46.9,125.845,47Zm-.976-5.817a6.626,6.626,0,0,0-.668.1,13.615,13.615,0,0,1-1.51.39c-.716.091-1.454.021-2.165.133a16.37,16.37,0,0,0-6.162,2c-2.243,1.386-4.426,2.87-6.605,4.356-.894.61-1.671,1.393-2.571,1.992-.879.584-1.449,1.614-2.6,1.8-.048.008-.079.11-.119.167a5.236,5.236,0,0,1-.4.559,20.558,20.558,0,0,0-2.055,2.235,16.069,16.069,0,0,0-2.051,5.14c-.267,1.055-.28,2.172-.47,3.25A20.521,20.521,0,0,0,97,67.272a23.865,23.865,0,0,1-.165,3.941c-.287,1.917-.758,3.807-1.146,5.709-.025.126-.058.322.006.378a.433.433,0,0,0,.388.023,1,1,0,0,0,.494-.368c.469-1.013.9-2.043,1.342-3.069a14.636,14.636,0,0,0,.562-1.357c.1-.321.064-.685.147-1.015.251-.995.577-1.973.784-2.977.217-1.052.3-2.132.5-3.19a23.515,23.515,0,0,1,.858-3.942,20.781,20.781,0,0,1,2.287-4.772A21.579,21.579,0,0,1,106.98,51.9c1.352-1.089,2.691-2.2,4.065-3.259a4.395,4.395,0,0,1,1.545-.868,4.2,4.2,0,0,0,1.472-.8,5.132,5.132,0,0,1,.618-.442c1.223-.62,2.455-1.223,3.683-1.833a36.7,36.7,0,0,0,4.285-1.956,5.688,5.688,0,0,1,1.727-.623C124.872,42,124.894,41.676,124.869,41.181Zm-34,37.123c.193-.325.445-.559.462-.809.09-1.263.106-2.531.172-3.8.081-1.549.18-3.1.284-4.644a10.964,10.964,0,0,0,.165-2.3,13.708,13.708,0,0,0-.881-4.33c-.218-.43-.293-.93-.473-1.382-.518-1.3-1.026-2.614-1.6-3.895-.408-.915-.953-1.768-1.356-2.685a16.632,16.632,0,0,1-.7-2.145,3.562,3.562,0,0,1,.354-3.171A5.244,5.244,0,0,1,88.5,47.991c.386-.284.217-.618.154-.9-.076-.339-.37-.176-.628-.139-1.034.152-2.076.246-3.113.383-1.15.152-2.3.316-3.441.51a.527.527,0,0,0-.276.423A13.368,13.368,0,0,0,82.9,53.6c.43.789.981,1.515,1.385,2.316.68,1.346,1.353,2.7,1.905,4.1a26.864,26.864,0,0,1,1.248,3.969c.541,2.425.912,4.888,1.439,7.317.471,2.176,1.05,4.329,1.6,6.489C90.516,77.955,90.7,78.084,90.871,78.3ZM54.186,56.78l.141-.034c.043.309.1.617.127.928.129,1.478.331,2.955.354,4.435a16.483,16.483,0,0,1-1.262,5.833.617.617,0,0,0,.1.73,2.161,2.161,0,0,1,.406.916c.232.955.422,1.92.637,2.879a.524.524,0,0,0,.151.243c.019.019.159-.03.177-.074.155-.393.307-.789.436-1.192.049-.151.013-.328.054-.482a33.88,33.88,0,0,0,1.124-5.93c.082-.972.19-1.945.205-2.918.014-.9-.1-1.8-.126-2.695-.037-1.245.025-2.5-.09-3.734a20.991,20.991,0,0,0-.595-2.991c-.319-1.3-.678-2.6-1.048-3.889-.137-.478-.354-.933-.528-1.381-.566.145-.453.484-.447.78a7.881,7.881,0,0,1,.02,1.775c-.5,2.313-1.024,4.62-1.624,6.908a26.346,26.346,0,0,1-1.187,3.349c-.6,1.447-1.264,2.866-1.912,4.292-.248.547-1.035,1.237-1.216,1.606.489.644,1.4,1.013,1.8,1.541.119.158.234.32.35.48.149-.173.3-.342.442-.521.027-.034,0-.108.009-.159.213-.779.421-1.559.646-2.334.362-1.246.692-2.5,1.115-3.728C52.985,59.854,53.6,58.323,54.186,56.78Zm14.482,7.145c.435.962.884,1.918,1.3,2.888a2.774,2.774,0,0,0,1.179,1.566,2.6,2.6,0,0,1,.648.563c.478.519.924,1.069,1.416,1.574.129.133.5.258.552.2.16-.173.557-.206.42-.612a17.123,17.123,0,0,0-.9-2.718,37.829,37.829,0,0,0-2.469-3.81,8.959,8.959,0,0,1-1.595-3.331,10.937,10.937,0,0,1,.038-1.592c-.07-1.343-.2-2.683-.27-4.026-.069-1.422-.086-2.846-.128-4.268-.017-.537-.017-1.077-.081-1.608-.014-.12-.249-.262-.407-.3a5.385,5.385,0,0,0-.678-.046c-.6-.083-.811.122-.727.729.025.179.11.35.126.528.083.966.2,1.932.216,2.9.016,1.278-.077,2.557-.083,3.836,0,.849.112,1.7.088,2.547-.051,1.822-.182,3.643-.234,5.465-.041,1.419.059,2.844-.035,4.257-.081,1.229-.4,2.442-.508,3.671-.044.5-.311,1.1.232,1.576.2-.187.484-.326.547-.532.411-1.339.814-2.683,1.132-4.046a5.282,5.282,0,0,0,.1-1.927A7.646,7.646,0,0,1,68.668,63.925Zm11.125-7.774-.083.027a8.262,8.262,0,0,1,.442,1.333c.273,1.715.481,3.441.747,5.157.285,1.838.574,3.677.925,5.5a15.8,15.8,0,0,0,1.226,4.235,10.3,10.3,0,0,1,.559,2.148c.163.661.168,1.457.806,1.826a2.084,2.084,0,0,1,.948.986c.038.082.235.126.356.12.044,0,.135-.216.109-.305-.233-.809.019-1.72-.536-2.462a1.532,1.532,0,0,1-.257-.592c-.467-2.227-.987-4.446-1.362-6.688-.342-2.044-.488-4.12-.79-6.171-.177-1.208-.472-2.4-.743-3.591a9.417,9.417,0,0,0-.609-2.179c-.762-1.5-1.66-2.935-2.479-4.409-.282-.508-1.014-.814-.74-1.588.018-.049-.04-.139-.083-.2a7.1,7.1,0,0,0-.751-.923.7.7,0,0,0-.622-.155.855.855,0,0,0-.3.632,1.47,1.47,0,0,0,.27.626c.355.665.767,1.3,1.067,1.993.437,1,.787,2.038,1.191,3.052C79.3,55.079,79.556,55.612,79.793,56.151Zm29.848,16.2c.381-.395.765-.785,1.142-1.183,1.151-1.215,2.25-2.486,3.462-3.638a28.075,28.075,0,0,1,6.259-4.191c2.483-1.329,5.044-2.522,7.626-3.65a14.906,14.906,0,0,0,3.446-2.181c.169-.138.344-.535.268-.653-.2-.309-.5-.261-.824-.031a5.98,5.98,0,0,1-1.382.731c-.9.324-1.835.558-2.745.863a27.979,27.979,0,0,1-2.972,1.034,18.078,18.078,0,0,0-5.445,2.241,28.6,28.6,0,0,0-6.485,5.6c-.359.395-.7.805-1.047,1.209a4.378,4.378,0,0,0-.733.881c-.32.689-.488,1.454-.84,2.123C109.155,71.917,109.177,72.111,109.641,72.348Zm-52.126.578.183.029c.2-.224.505-.417.582-.677.634-2.128,1.265-4.258,1.81-6.409a18.96,18.96,0,0,0,.392-2.881c.145-1.538.31-3.078.345-4.62.029-1.254-.182-2.512-.174-3.768.011-1.753.123-3.505.2-5.258.024-.541-.219-.776-.753-.729a2.733,2.733,0,0,1-.756-.024c-.827-.161-.863-.141-.808.649.005.072-.01.145-.01.217,0,1.5-.01,3,.006,4.5.016,1.564.081,3.127.084,4.691,0,1.47-.013,2.941-.087,4.409-.105,2.067-.224,4.135-.428,6.194-.1,1.042-.415,2.064-.615,3.1A2.374,2.374,0,0,0,57.515,72.926ZM75.5,49.294c.149-.719-.186-.974-.886-.806-.277.067-.565.09-.84.166-.141.039-.333.126-.372.237s.094.27.17.4a3.53,3.53,0,0,1,.574.961c.186.946.176,1.935.411,2.866.626,2.482,1.293,4.957,2.034,7.407.562,1.854,1.28,3.66,1.9,5.5.3.9.513,1.834.787,2.745.285.949.588,1.892.9,2.832.2.593.481,1.163.622,1.767.134.575.121,1.184.206,1.772.015.1.2.173.312.259.146-.256.4-.506.414-.769a5.9,5.9,0,0,0-.171-1.337c-.142-.789-.278-1.581-.465-2.36A4.773,4.773,0,0,1,81,69.7a7.84,7.84,0,0,0-.373-1.8c-.159-.7-.279-1.408-.483-2.093a16.35,16.35,0,0,1-.748-2.129,19.142,19.142,0,0,0-1.74-5.475,11.89,11.89,0,0,1-1.168-2.554C76.055,53.556,75.815,51.417,75.5,49.294ZM119.466,71.06c.706.014,1.231.084,1.27-.727.008-.151.412-.369.654-.4.363-.048.683-.044.783-.49.019-.086.139-.163.227-.219,1.144-.729,2.284-1.465,3.438-2.177,1.887-1.165,4.02-1.84,5.84-3.193a11.97,11.97,0,0,0,3.653-3.914,1.146,1.146,0,0,0-.235-1.061c-.291-.264-.471.167-.652.415a5.189,5.189,0,0,1-.824.931,14.785,14.785,0,0,1-4.972,2.807,11.266,11.266,0,0,0-4.173,2.428c-.923.853-1.9,1.65-2.847,2.475a1.449,1.449,0,0,0-.173.207c-.58.745-1.17,1.484-1.734,2.241A2.892,2.892,0,0,0,119.466,71.06Zm14.821-17.08c-.166-.043-.285-.083-.408-.106-1.154-.212-2.333-.335-3.454-.658a10.845,10.845,0,0,0-7.649.915,21.254,21.254,0,0,0-4.123,3.978.819.819,0,0,0-.143.438,2.439,2.439,0,0,0,.776.3.523.523,0,0,0,.4-.263,2.9,2.9,0,0,1,2.551-1.724,18.583,18.583,0,0,0,4.909-1.045A13.031,13.031,0,0,1,130.3,55.1a14.987,14.987,0,0,0,3.352-.34A.724.724,0,0,0,134.287,53.98Zm-63.3-5.341-.167.023a1.593,1.593,0,0,0-.141.491c.034.7.108,1.4.15,2.1.023.375-.013.754.017,1.128.1,1.258.27,2.513.319,3.772a14.419,14.419,0,0,0,.7,3.842,20.479,20.479,0,0,0,1.853,4.43,5.916,5.916,0,0,1,.287.656c.633,1.421,1.5,2.717,2.043,4.2a28.151,28.151,0,0,1,1.05,2.963c.021.087.321.209.369.168.23-.191.559-.361.425-.761-.286-.852-.584-1.7-.859-2.555-.225-.7-.385-1.419-.645-2.1s-.663-1.315-.9-2c-.365-1.056-.63-2.147-.962-3.215-.221-.711-.479-1.41-.728-2.111a23.627,23.627,0,0,1-.842-2.394c-.325-1.382-.578-2.785-.791-4.189a7.313,7.313,0,0,1-.126-3.629c.021-.06-.058-.148-.067-.226C71.891,48.549,71.129,49.2,70.991,48.639Zm-4.7-.209c-.392,0-.853-.005-1.314,0-.325,0-.309.214-.275.454a9.6,9.6,0,0,1,.166,1.446c-.021,1.495-.057,2.991-.141,4.484-.092,1.645-.273,3.285-.362,4.93-.083,1.514-.73,2.941-.571,4.5A15.4,15.4,0,0,1,63.646,67a21.592,21.592,0,0,0,.258,6.763c.085.358.14.711.686.82a3.782,3.782,0,0,0,.256-1.126,3.884,3.884,0,0,1,.119-2.213,1.3,1.3,0,0,0,.042-.591c-.04-1.108-.149-2.218-.122-3.324a56.551,56.551,0,0,1,.819-7.764,4.092,4.092,0,0,0,.083-2.017,4.538,4.538,0,0,1-.165-2.113c.065-1.218.122-2.439.238-3.654C65.967,50.656,66.145,49.535,66.289,48.43ZM91.1,53.11a3.477,3.477,0,0,0,.347-.321c.34-.439.665-.888,1.007-1.325a7.168,7.168,0,0,1,1.157-1.393c1.5-1.123,3.035-2.189,4.595-3.222.464-.308,1.072-.39,1.573-.653,1.181-.622,2.293-1.4,3.517-1.911a18.92,18.92,0,0,0,3.67-2c.158-.111.178-.418.262-.634a2.173,2.173,0,0,0-.632-.092,1.844,1.844,0,0,0-.527.27c-1.572.828-3.011,1.946-4.836,2.224a1.045,1.045,0,0,0-.25.1q-3.022,1.36-6.046,2.723a14.8,14.8,0,0,0-2.389,1.134,8.072,8.072,0,0,1-2.329,1.09c-.268.081-.6.061-.575.5a2.889,2.889,0,0,0,.025.882c.171.4.5.73.706,1.118.116.214.089.5.2.725A6.616,6.616,0,0,0,91.1,53.11Zm41.856-8.261c-1.08-.777-2.1-1.519-3.133-2.253-.52-.371-.681-.338-1.163.159a.88.88,0,0,1-.333.172c-.734.265-1.46.555-2.206.776-.9.267-1.843.41-2.728.718a29.991,29.991,0,0,0-7.543,4.465c-.074.053-.107.164-.245.389a4.689,4.689,0,0,0,1.338-.116,13.867,13.867,0,0,0,2.045-1.1,13.41,13.41,0,0,1,5.53-2.025c1.614-.215,3.21-.569,4.816-.843a2.977,2.977,0,0,1,1.959.174,2.206,2.206,0,0,0,1.242.033C132.687,45.368,132.8,45.058,132.952,44.849ZM47.35,63.628a4.671,4.671,0,0,1-.272-.882c-.092-.97-.194-1.944-.2-2.917-.008-1.523.057-3.047.095-4.57.025-.995.08-1.989.083-2.984,0-1.495-.025-2.99-.043-4.485a8.577,8.577,0,0,0-.052-1.191c-.023-.156-.224-.284-.344-.425a2.861,2.861,0,0,0-.273.526c-.036.127.057.286.041.426-.232,2.119-.455,4.239-.72,6.354-.153,1.218-.39,2.425-.57,3.64q-.321,2.167-.6,4.339c-.015.117-.963.733-.9.738.787.674,1.245,1.649,2.577,2.409.628.359.45-.5,1.019-.932A.418.418,0,0,1,47.35,63.628ZM63.256,48.38c-.535.11-1.046.181-1.535.328-.315.094-.333.281-.082.563a2.719,2.719,0,0,1,.768,1.19c.2,1.3.265,2.618.349,3.932.047.72.027,1.445.033,2.169a18.72,18.72,0,0,1-.011,2.638c-.209,1.513-.591,3-.832,4.512-.292,1.828-.5,3.67-.769,5.5a16.35,16.35,0,0,0,.227,4.6c.619.154.527-.485.546-.633.123-.943.137-1.9.176-2.855.051-1.3.009-2.6.16-3.889a33.761,33.761,0,0,1,.806-4.466,39.025,39.025,0,0,0,.786-6.48,5.48,5.48,0,0,0,.022-.678c-.031-.741-.088-1.482-.11-2.223A12.654,12.654,0,0,0,63.256,48.38ZM89.237,81.2c.14-.225.249-.374.331-.537a.964.964,0,0,0,.133-.405,5.34,5.34,0,0,0-.51-2c-.393-.96-.843-1.9-1.2-2.87A36.846,36.846,0,0,1,86.5,68.464c-.239-1.466-.155-3-.889-4.371-.265-.5-.375-1.083-.9-1.4a.548.548,0,0,0-.424-.026c-.058.023-.09.256-.049.361.084.214.29.394.331.61.252,1.322.479,2.649.7,3.976.258,1.53.44,3.076.775,4.588.306,1.384.769,2.734,1.17,4.1.391,1.324.778,2.649,1.2,3.965C88.547,80.714,88.663,81.247,89.237,81.2Zm43.126-14.273-.288-.7a5.055,5.055,0,0,0-.652.369c-.326.254-.6.569-.939.811-1.035.751-2.084,1.484-3.134,2.215-.5.351-1,.715-1.539,1.013a18.957,18.957,0,0,0-2.039,1.043,8.707,8.707,0,0,0-1.416,1.556c-.034.041.149.377.232.378a2.658,2.658,0,0,0,1.287-.127,17.38,17.38,0,0,1,2.149-1.076,14.6,14.6,0,0,0,3.254-1.817,22.189,22.189,0,0,0,2.672-2.747A3.353,3.353,0,0,0,132.363,66.924ZM48.712,58.477l.178.17c.235-.226.579-.409.687-.684.37-.945.686-1.914.966-2.89.2-.687.31-1.4.447-2.1.181-.92.348-1.842.521-2.763l.572-3.024c-.407-.16-.852-.333-1.3-.509a9.5,9.5,0,0,0-1.148-.444.845.845,0,0,0-.628.146c-.077.057-.025.375.052.535a8.734,8.734,0,0,1,.835,4.431c-.119,1.635-.361,3.264-.612,4.886A22.5,22.5,0,0,1,48.712,58.477Zm83.7-9.913c-.849.362-1.96.166-2.57,1.211-.176.3-.713.386-1.078.582a4.906,4.906,0,0,0-.446.3,2.208,2.208,0,0,0,.506.269c1.015.236,1.983-.35,3.047-.109a7.339,7.339,0,0,1,2.4.9c.524.336.993.76,1.516,1.1a.588.588,0,0,0,.533-.059.5.5,0,0,0,.123-.474c-.346-.594-.738-1.161-1.115-1.737-.235-.359-.486-.709-.7-1.077A1.971,1.971,0,0,0,132.408,48.564Zm-99.35,8.461c.12-.425-.1-.642-.292-.913a9.93,9.93,0,0,1-1.26-1.98,43.4,43.4,0,0,0-1.494-4.086,4.451,4.451,0,0,0-3.806-2.7,1.4,1.4,0,0,0-.482.152,3.139,3.139,0,0,0,.327.434.617.617,0,0,0,.306.093,2.942,2.942,0,0,1,1.976,1.5,12.493,12.493,0,0,1,1.617,3.933,4.069,4.069,0,0,0,1.21,2.408A5,5,0,0,0,33.058,57.025Zm94.175,23.85c-.159.223-.281.382-.389.55s-.191.331-.286.5c.217.052.473.2.644.138a5.787,5.787,0,0,0,1.381-.717,8.424,8.424,0,0,0,2.555-3.1,5.931,5.931,0,0,0,.512-1.841c.031-.253.059-.821-.426-.828a1.051,1.051,0,0,0-1.108.691,8.352,8.352,0,0,1-2.856,3.763c-.246.2-.5.391-.862.673ZM125.8,77.693a2.874,2.874,0,0,0,.759-.263c.745-.53,1.482-1.075,2.186-1.659,1.074-.889,2.151-1.789,2.211-3.36.013-.358.051-.734-.346-.869-.357-.121-.624.048-.673.465,0,.045-.066.083-.1.127a15.766,15.766,0,0,1-3.47,3.463c-.528.393-1.1.73-1.63,1.119a.625.625,0,0,0-.142.389C124.975,77.314,125.373,77.494,125.8,77.693ZM21.358,58.658l-.029.191a6.83,6.83,0,0,0,.9.315,16.007,16.007,0,0,1,2.856.579,43.325,43.325,0,0,1,3.84,2.012,8.232,8.232,0,0,0,.774.389.409.409,0,0,0,.334-.058c.046-.034.035-.212-.01-.291-.256-.449-.527-.889-.8-1.328a3.817,3.817,0,0,0-3.111-2.046c-1.441-.063-2.889.015-4.333.048C21.636,58.472,21.5,58.592,21.358,58.658Zm16.615-2.649c.635-.361.62-.359.568-.8A11.238,11.238,0,0,1,38.4,53.59c.039-1.5.073-2.993.211-4.48.106-1.142.365-2.269.565-3.4a.8.8,0,0,1,.17-.448c.294-.248.165-.469.025-.713a1.507,1.507,0,0,0-1.652-.582c-.117.062-.2.493-.137.541.547.416.466.967.4,1.524a33.02,33.02,0,0,0-.4,6.915C37.666,53.937,37.832,54.922,37.973,56.009ZM31.8,60.773a7.231,7.231,0,0,0-.252-.89c-.22-.5-.5-.98-.709-1.485a2.961,2.961,0,0,0-1.264-1.5,7.442,7.442,0,0,0-4.97-.887,2.155,2.155,0,0,0-1.447.94.847.847,0,0,0,.484-.02A2.727,2.727,0,0,1,25.66,56.8a8.763,8.763,0,0,1,2.232,1.062A19.56,19.56,0,0,1,31.474,60.7C31.493,60.721,31.542,60.716,31.8,60.773Zm4.071-6.284c0-.935-.052-1.786.011-2.628.148-2,.27-4.015.562-6a2.323,2.323,0,0,0-.966-2.315c-.466-.4-.694-.369-1.107.139a4.2,4.2,0,0,1,.6,1.186,25.43,25.43,0,0,1,.315,3.5c.016,1.916-.083,3.832-.118,5.748a1.922,1.922,0,0,0,.158.545Zm4.164,1.839.286.08c.095-.178.289-.365.272-.531a31.954,31.954,0,0,1,.539-7.5c.15-1.146.324-2.289.454-3.437.018-.165-.153-.352-.237-.529-.181.09-.423.135-.529.28a1.621,1.621,0,0,0-.284.733,37.308,37.308,0,0,0-.678,6.227C39.926,53.21,39.976,54.769,40.034,56.328ZM78.489,77.485c-1.617-.084-3.191-.322-4.55.786a2.152,2.152,0,0,1-.4.282,1.069,1.069,0,0,0-.642,1.156c.029.354.325.577.621.392.469-.292.919-.614,1.385-.909a1.421,1.421,0,0,1,.573-.265c.752-.065,1.508-.109,2.262-.118.492-.006.985.063,1.474.1.025-.643-.232-.938-.82-.944ZM83,83.714c-.567.262-1.08.485-1.58.735-.272.136-.511.432-.783.458-1.148.113-2.247.7-3.454.32a.553.553,0,0,0-.75.433c-.045.4.264.449.569.491a2.967,2.967,0,0,1,.407.132A3.764,3.764,0,0,0,80.55,86.1a13.478,13.478,0,0,1,1.671-.864C83.01,84.9,83.15,84.714,83,83.714Zm-14.12-8.3c.122,0,.351.072.473-.012.587-.4,1.148-.839,1.713-1.271a4.925,4.925,0,0,1,3.783-.754c.616.078.958.09,1.174-.6-.4-.115-.82-.243-1.242-.351a3.881,3.881,0,0,0-1.19-.253,10.44,10.44,0,0,0-1.9.385A3.079,3.079,0,0,0,70.72,73a16.349,16.349,0,0,0-1.331,1.111,1.667,1.667,0,0,0-.46.543A2.468,2.468,0,0,0,68.878,75.409ZM71.055,76.8c.214.169.443.486.648.471.224-.016.426-.339.639-.528a.423.423,0,0,1,.085-.068A10.545,10.545,0,0,0,73.736,76a3.931,3.931,0,0,1,2.467-.571c.469.012.757-.12.86-.584C75.532,73.456,71.894,74.638,71.055,76.8Zm9.119,10.713A2.94,2.94,0,0,0,78,88.22c-.126.088-.18.282-.267.428.162.081.328.236.487.23a10.727,10.727,0,0,0,2.016-.174c1.226-.286,2.434-.655,3.634-1.039.16-.051.249-.379.32-.6a.57.57,0,0,0-.36-.228,8,8,0,0,0-1.339.135C81.65,87.148,80.815,87.363,80.174,87.514Zm-47.6-39.032c-.721.059-.867.211-.752.965a23.015,23.015,0,0,0,.488,2.43c.221.83.516,1.641.8,2.451.05.142.225.239.342.356.1-.135.3-.272.3-.4a9.084,9.084,0,0,0-.149-1.19C33.363,51.544,33.4,49.937,32.573,48.482Zm95.679,35.535c.388.579.848.441,1.257.274a15.689,15.689,0,0,0,3.57-2.536c.314-.245.1-.855-.42-1.223-.364-.257-.55.066-.747.292-.385.442-.77.885-1.147,1.333-.5.6-1.456.665-1.762,1.5-.019.052-.161.052-.239.09C128.606,83.824,128.454,83.91,128.252,84.017ZM27.577,63.008c-.843-.541-1.641-1.069-2.455-1.571a5.042,5.042,0,0,0-1.11-.552,1.628,1.628,0,0,0-2.094,1.145,11.361,11.361,0,0,1,5.327,1.557ZM134.86,82.9a2.075,2.075,0,0,0-.652.2c-.25.191-.4.523-.664.684-.513.317-1.073.556-1.612.829a1.12,1.12,0,0,0-.137.1l.193.47-1.538.569.008.214a2.125,2.125,0,0,0,.719.224,3.378,3.378,0,0,0,2.448-1.107,4.381,4.381,0,0,1,.868-.883C134.981,83.892,135.007,83.5,134.86,82.9Zm-50.19,7.48-.013-.15a7.918,7.918,0,0,0-.844.005c-.981.1-1.9.659-2.921.456-.34-.068-.656.025-.684.324-.019.2.263.459.464.627a.942.942,0,0,0,.523.109,10.32,10.32,0,0,0,1.3.029c.668-.051,1.331-.155,2.16-.257l-.525-.914ZM24.935,65.78a.739.739,0,0,0-.079-1.061,4.014,4.014,0,0,0-2.507-1.284,1.476,1.476,0,0,0-.53.137c.067.2.075.493.211.574C22.985,64.716,23.967,65.243,24.935,65.78ZM137.614,87.069c-.391.149-.7.285-1.013.38-.609.182-1.218.369-1.839.5-.35.073-.833-.2-.636.578.122.48.029.569.522.46.561-.124,1.12-.255,1.672-.412C136.978,88.386,137.633,88.173,137.614,87.069Zm-1.609-1.456a1.442,1.442,0,0,0-.525-.043c-.963.292-1.918.608-2.871.929-.1.035-.241.156-.245.242,0,.118.078.317.169.347a2.209,2.209,0,0,0,.8.14,4.177,4.177,0,0,0,1.705-.688C135.463,86.319,135.917,86.246,136.005,85.613Zm-50.6,7.61a11.188,11.188,0,0,1-1.194.234c-.627.058-1.261.051-1.889.1-.126.01-.242.153-.362.235a1.508,1.508,0,0,0,.257.281,2.332,2.332,0,0,0,2.057.143,3.855,3.855,0,0,1,.577-.117C85.525,94,85.576,93.931,85.4,93.223ZM71.541,70.879a.715.715,0,0,0-1.031-.562,4.108,4.108,0,0,0-1.183.789c-.139.123-.11.434-.158.659a2.223,2.223,0,0,0,.889.009A13.05,13.05,0,0,0,71.541,70.879Zm67.753,19.1-.038-.181a6.721,6.721,0,0,0-.875.2,3.735,3.735,0,0,1-2.4.119,1.2,1.2,0,0,0-.479-.049.408.408,0,0,0-.272.2c-.026.053.07.2.146.258a.852.852,0,0,0,.345.148A5.386,5.386,0,0,0,139.294,89.981Z"/><path class="cls-6" d="M64,86.346a4.721,4.721,0,0,0,2.254-.79c.148-.081.142-.466.164-.715a.814.814,0,0,0-.453-.109,8.5,8.5,0,0,1-4.537-.312c-.3-.1-.765-.184-.944.333-.128.37-.139.7.3.813C61.853,85.842,62.927,86.088,64,86.346Zm2.136,2.334a5.422,5.422,0,0,0-1.055-.243,7.361,7.361,0,0,1-2.94-.364c-.25-.112-.817-.343-.771.388,0,.027-.159.046-.217.1-.123.112-.331.257-.318.365a.67.67,0,0,0,.318.446,3.4,3.4,0,0,0,2.133.45c.606-.1,1.207-.241,1.816-.311A1.106,1.106,0,0,0,66.134,88.68ZM61.545,91.8c-.056.211-.1.41-.163.6-.114.344.08.591.478.581.268-.006.536-.038.8-.037a2.966,2.966,0,0,0,2.458-1.118c.218-.272.294-.643-.014-.858a1.038,1.038,0,0,0-.749.015c-.34.1-.643.328-.984.42C62.759,91.575,62.127,91.682,61.545,91.8Zm2.924,2.73c-.133-.153-.237-.356-.4-.428-.087-.039-.326.112-.407.236a1.712,1.712,0,0,1-1.6.989c-.494-.027-.387.472-.41.742-.031.363.281.275.509.219a3.653,3.653,0,0,0,2.058-1.259A3.032,3.032,0,0,0,64.469,94.534Z"/><path class="cls-6" d="M117.052,76.042a11.667,11.667,0,0,0-.262-1.212c-.148-.449-.5-.6-.75-.333a3.221,3.221,0,0,0-.583.825c-.288.59-.494,1.22-.8,1.8-.24.464-.582.875-.861,1.321-.19.3.026.465.277.474a7.377,7.377,0,0,0,1.136-.094.542.542,0,0,0,.325-.131,6.573,6.573,0,0,0,.829-1.065A17.05,17.05,0,0,0,117.052,76.042Zm1.246,1.845a3.8,3.8,0,0,1-.794.2c-.42.029-.461.3-.52.61a1.482,1.482,0,0,1-.168.56c-.289.412-.628.788-.927,1.192-.113.152-.267.366-.234.512.062.267.2.648.4.721a1.507,1.507,0,0,0,.934-.12c.2-.076.333-.321.514-.468.6-.487,1.212-.964,1.891-1.5Zm3.033,3.777-.11-.3c-.579-.043-1.158-.108-1.737-.113-.138,0-.311.172-.409.307-.391.54-.774,1.087-1.125,1.653a.645.645,0,0,0-.047.543c.155.284.366.563.781.307.378-.233.78-.429,1.167-.649.033-.019.029-.095.051-.14a2.29,2.29,0,0,1,.314-.58C120.567,82.33,120.957,82.005,121.331,81.664Zm1.9,2.076c-.228.062-.425.123-.627.168a4.975,4.975,0,0,0-1.965,1.348c-.231.187-.476.468-.218.719a.885.885,0,0,0,.8.173,6.922,6.922,0,0,0,1.565-1.018A1.334,1.334,0,0,0,123.227,83.74Z"/><path class="cls-6" d="M43.079,55.46a15.216,15.216,0,0,0,.437,4.734,1.908,1.908,0,0,1,.068.374c.036.491-.176.659-.659.539a4.249,4.249,0,0,0-.422-.063l.015.011a29.109,29.109,0,0,1-.72-2.86A12.922,12.922,0,0,1,41.729,54c.25-1.42.5-2.844.855-4.239a11.1,11.1,0,0,0-.037-4.806c-.031-.175.127-.384.2-.577.13.124.359.237.374.374.132,1.2.235,2.4.327,3.608"/><path class="cls-6" d="M90.1,56.25s1.755,4.913,2.235,5.3.981,2.88.981,2.88.764-2.672.927-3.544a64.692,64.692,0,0,1,2.944-6.8A39.167,39.167,0,0,1,102.7,49.2c.893-.558,4.936-3.3,5.781-3.748s7.08-2.641,7.789-2.928,1.02-.983,2.091-1.426a3.4,3.4,0,0,0,1.52-1.159l-3.689.151s-1.007,1.1-1.34,1.164a33.068,33.068,0,0,0-5.071,1.781c-1.954.927-9.5,5.041-11.305,6.525S89.618,55.571,90.1,56.25Z"/></svg>