<svg id="word" xmlns="http://www.w3.org/2000/svg" xmlns:xlink="http://www.w3.org/1999/xlink" viewBox="0 0 160 160"><defs><style>.cls-1{fill:#fde2d4;}.cls-1,.cls-10,.cls-11,.cls-12,.cls-13,.cls-2,.cls-3,.cls-4,.cls-5,.cls-6,.cls-8,.cls-9{stroke:#9d4b9c;stroke-width:0.51px;}.cls-2{fill:#fde4d5;}.cls-3{fill:none;}.cls-3,.cls-5,.cls-6{stroke-linecap:round;}.cls-4{fill:url(#linear-gradient);}.cls-5{fill:#fff;}.cls-6{fill:#f28ab8;}.cls-7{fill:#9d4b9c;}.cls-8{fill:#00adee;}.cls-9{fill:#8b8bc3;}.cls-10{fill:#d67fb3;}.cls-11{fill:#d9b57a;}.cls-12{fill:#d8ab77;}.cls-13{fill:#f2d480;}</style><linearGradient id="linear-gradient" x1="5950.62" y1="-2023.342" x2="5958.807" y2="-2023.342" gradientTransform="matrix(-0.847, 0.531, 0.531, 0.847, 6175.181, -1344.812)" gradientUnits="userSpaceOnUse"><stop offset="0" stop-color="#882922"/><stop offset="1" stop-color="#d24c56" stop-opacity="0"/></linearGradient></defs><path class="cls-1" d="M47.848,105.177l-2.058,1.952a3.94,3.94,0,0,1,.03,2.9,2.218,2.218,0,0,0,.142,2.682c.448.382,1.961,2.185.426,2.392s-3.029-2.605-3.26-3.158-.723-1.584-1.564-1.454-6.683,1.457-7.742.756-1.114-1.648-.066-1.674a27.985,27.985,0,0,0,4.57-1.307s-5.972-.866-7.177-1.274c-1.539-.522-.141-1.56-.141-1.56l6.374.122s-6.432-.773-6.709-1.452c-.45-1.111.918-1.251,1.587-1.046s3.967.49,3.967.49-4.22-2.312-2.778-2.756c.93-.287,3.382,1.2,3.382,1.2l2.638,1.386a6.1,6.1,0,0,1,2.607.213,6.6,6.6,0,0,0,1.908.568l.755-1.191Z"/><path class="cls-2" d="M38.832,84.783s.1,7.2.777,8.993,3.258,5.847,3.66,7.078,2.563,6.008,6.253,7.821c1.932.949,6.64,1.18,9.751.428a9.658,9.658,0,0,0,6.042-5.845c1.322-4.465-.458-13.61-2.207-16.31s-8.069-9.237-12.377-8.779S39.8,82.22,38.832,84.783Z"/><path class="cls-3" d="M51.85,101.561c-.261-1.344.45-1.7,1.843-1.127"/><path class="cls-4" d="M50.393,103.469a4.239,4.239,0,0,0,3.855-.5,11.47,11.47,0,0,0,3.2-3.658,12.185,12.185,0,0,0,.221,2.507c.249,1.177-.189,3.549-1.885,3.865S50.393,103.469,50.393,103.469Z"/><path class="cls-5" d="M58.038,94.83s-.823-3.218-2.914-2.209c-1.282.62-1.858,3.527.355,4.127S58.038,94.83,58.038,94.83Z"/><path class="cls-5" d="M47.856,99.846s-.821-3.2-2.892-2.194c-1.273.609-1.844,3.493.348,4.09S47.856,99.846,47.856,99.846Z"/><path class="cls-3" d="M56.16,89.722a2.61,2.61,0,0,0-3.173.848"/><path class="cls-3" d="M45.613,94.925c-.782-.619-1.754-.171-2.374.759"/><path class="cls-6" d="M49.871,74.527s-.454-3.483-2.659-3.053-3,1.3-3.391.543-3.209,1.175-3.519,1.93,1.912,3.135,2.208,3.579,2.177-1.322,3.914-1.9S49.871,74.527,49.871,74.527Z"/><path class="cls-7" d="M55.626,94.3c.365.623,1.02.92,1.462.677s.492-.944.123-1.563-1.019-.92-1.457-.675S55.256,93.689,55.626,94.3Z"/><path class="cls-7" d="M45.187,99.024a1.158,1.158,0,0,0,1.46.637,1.336,1.336,0,1,0-1.46-.637Z"/><path class="cls-1" d="M74.86,111.251l.9,3.147a4.864,4.864,0,0,0-1.346,3c0,1.653-.783,2.551-1.346,2.7s-2.689,1.2-1.454,2.247,3.808-1.048,4.261-1.5,1.343-1.25,2.014-.651,5.122,5.152,6.357,5,1.718-1.1.822-1.7a30.431,30.431,0,0,1-3.361-3.849s5.564,2.359,6.792,2.594c1.568.3.831-1.545.831-1.545l-5.572-3.346s5.92,2.7,6.468,2.149c.894-.906-.225-1.8-.9-1.948a39.071,39.071,0,0,1-3.662-1.653s4.708-.1,3.662-1.348c-.675-.8-3.475-.6-3.475-.6H82.935a5.514,5.514,0,0,0-2.354-1.2,5.568,5.568,0,0,1-1.908-.45l-.113-1.649Z"/><path class="cls-8" d="M78.56,110.652s-.488.269-1.2.6c-1.906.895-5.417,2.259-5.417.174,0-2.86-.818-2.86-1.635-6.126s-7.352-12.256-7.352-12.256,7.356-2.857,10.212.409,7.761,15.933,7.761,15.933Z"/><path class="cls-9" d="M64.04,79.742s-12.169-11.57-18.34-9.17S24.361,80.684,26.075,87.883s.172,19.026.172,19.026,1.542-1.372,4.97-9.256A128.691,128.691,0,0,1,40.3,81.2Z"/><path class="cls-9" d="M44.415,101.167a17.508,17.508,0,0,1-7.171-2.1c-3.213-1.916-2.427-7.24-2.427-7.24s-.975-2.35,1.541-6.507,4.106-9.072,11.8-10.179,11.577,1.375,13.11,2.457a7.793,7.793,0,0,0,3.8,1.117l-.086,13.2s-4.586-12.1-13.557-7.732-8.881,7.213-9.742,11.279C41.029,98.555,44.415,101.167,44.415,101.167Z"/><path class="cls-10" d="M23.022,106.64s.332,4.219,1.739,4.388,1.132-1.335,2.468-.2,2.983-1.069,2.983-1.069,1.5-1.115,1.179-1.977.24-2.37-1-3.107-.793-1.479-2.1-1.253-2.148-.611-3.182.28S21.563,105.435,23.022,106.64Z"/><path class="cls-11" d="M37.121,72.962a4.115,4.115,0,0,0-3.533-.649c-6.331,1.43-16.954-1.02-16.954-1.02s18.179-8.374,21.242-12.052,14.093,4.9,14.093,4.9"/><path class="cls-11" d="M86.509,104.987s5.045-29.2,5.284-30.4,1.049-5.206,1.049-5.206l37.978-4.443-5.166,31.876Z"/><path class="cls-12" d="M82.425,104.579S59.766,92.935,54.966,87.8,37.121,72.962,37.121,72.962L41.643,42.2s12.772,5.907,19.178,9.278,32.384,16.1,32.384,16.1l-6.7,37.406Z"/><polygon class="cls-13" points="45.089 41.65 84.343 41.214 130.82 64.938 92.52 69.945 41.643 42.204 45.089 41.65"/><path class="cls-11" d="M86.35,104.744l39.3-7.93s16.937,5.913,18.138,6.154a59.21,59.21,0,0,0,7.133-.229s-14.593,8.312-19.56,8.149-29.728,6.932-29.728,6.932Z"/></svg>