<svg id="word" xmlns="http://www.w3.org/2000/svg" viewBox="0 0 160 160"><defs><style>.cls-1{fill:#39754e;}.cls-1,.cls-2,.cls-3,.cls-5,.cls-6{stroke:#9c4c9c;stroke-miterlimit:10;}.cls-2{fill:#ea2127;}.cls-3{fill:#b9db9e;}.cls-4{fill:#9c4c9c;}.cls-5,.cls-6{fill:none;}.cls-5{stroke-linecap:round;}</style></defs><path class="cls-1" d="M75.751,106.588S74.84,101.347,72.8,99.1s-5.773-5.015-6.9-5.219-1.933.472-3.814-1.3-7.733-4.71-7.733-4.71l3.832,4.414-3.768-1.315,4.26,4.119s-.434,5.1.785,4.425,12.3,6.04,12.3,6.04-7.879-2.224-10.109-2.768-1.467-.7-6.086-2.007-6.457-2.641-8.686-1.292a7.755,7.755,0,0,1-4.376,1.134l4.142,1.2s-6.633.351-8.594,2.182-3.845,3.472-3.845,3.472l1.837.645a28.734,28.734,0,0,0-4.356,4.743,61.637,61.637,0,0,0-3.092,6.518s6.331-1,7.448-2.057a9.737,9.737,0,0,1,3.223-1.685l-.582,2.012s.69,1.281,3.871-.392,8.995-1.911,8.995-1.911l-.862,1.553a14.547,14.547,0,0,0,6.463-1.4c3.939-1.655,8.877-6.341,8.877-6.341l3.954-2.5s-5.672,3.381-6.536,6.585-2.216,7.968-2.216,7.968l.543,4.718,1.948-2.118s.541,3.765.912,6.618a58.847,58.847,0,0,1,.34,6.625,72.076,72.076,0,0,0,5.29-7.656c1.931-3.431,3.927-7.028,3.13-7.635s.031-.82,0-5.42-.01-7.9-.01-7.9Z"/><path class="cls-2" d="M108.249,87.534s-11.028-.8-10.7,5.86,5.916,14.245,8.735,16.916,1.645,5.821,2.882,4.692,5.958-7.774,7.091-11.548,3.664-6.345,1.67-10.915S113.688,87.743,108.249,87.534Z"/><path class="cls-2" d="M111.281,47.658s-7.442,2.408-6.735,7.351,8.057,13.624,11.923,15.242,9.063,4.2,12.619,5.052,1.018-14.791,1.251-19.679-1.461-10.4-5.233-10.834S113.7,44.028,111.281,47.658Z"/><path class="cls-3" d="M107.621,87.061s-1.954.3-4.571-2.468-4.729-9.831-4.585-7.936-6.053,2.665-2.34,7.593S107.621,87.061,107.621,87.061Z"/><path class="cls-3" d="M109.675,85.185s3.212-1.494,4.3-4.335a14.053,14.053,0,0,0,1.058-4.691s-3.645,3.89-4.534,4.691-3.939,6.221-3.939,6.221Z"/><path class="cls-3" d="M111.852,46.388s-6.762-1.91-6.623-.721-2.1,4.371-2.1,4.371Z"/><path class="cls-1" d="M78.4,79.049a79.26,79.26,0,0,1,6.727-6.53c2.643-2.088,2.306-2.814,3.19-3.629s9.2-5.636,7.907-9.9a24.674,24.674,0,0,1-1.255-6.68l.181-7.461.137-8.071A61.24,61.24,0,0,1,89.706,43.1a16.222,16.222,0,0,1-3.762,2.624l-1.419-.933-3.813,4.35-4.764,3.389L74.09,63.378s-2.39,10.609-.7,12.781a51.185,51.185,0,0,0,4.4,4.72Z"/><path class="cls-4" d="M79.25,51.75l-.673-1.845c.136-.89,3.421-21.853,14.053-24.853,4.622-1.3,8.66-.786,12.007,1.537,7.875,5.468,9.067,18.945,9.114,19.514l-.5.772c-.011-.132-2.431-13.851-9.623-18.84-2.892-2.007-6.43-2.439-10.518-1.285C83.56,29.444,79.281,51.543,79.25,51.75Z"/><path class="cls-1" d="M74.18,79.518s-7.34-2.031-9.107-5.244-6.649-3.141-9.806-6.56-2.933-7.016-3.213-8.5c0,0-.659-9.007-.537-11S49.5,41,49.5,41l4.761-.409-3.3-9.034s10.032,4.552,10.906,6.706a15.974,15.974,0,0,0,3.2,4.4l-.238-4.6s2.6,3.035,4.052,5.04,5.751,2.343,5.644,3.821,2.246.769,1.417,5.609-2.083,17.317-1.812,20.916,3.653,7.434,3.653,7.434Z"/><path class="cls-1" d="M57.148,72.53s-5.955-1.326-9.913.909-4.648,3.48-6.61,3.436-4.585,3.584-4.585,3.584l5.362-.7S37.358,82.73,35.876,83.9a56.319,56.319,0,0,0-4.561,4.642s8.851-.751,11.793-.685,8.179-.331,8.179-.331l-4.074,2.37s4.5-1.465,7.177-1.018,1.01,2.479,8.349-.336,9.07-6.148,10.2-6.387,4.854-1.273,4.854-1.273-5.121-3.266-8.88-5.989S61.205,72.917,57.148,72.53Z"/><path class="cls-4" d="M79.719,131.233a2.052,2.052,0,0,1-.778-.15l-.557-.234.019-.6c0-.16.475-15.951.6-22.957.063-3.377-.181-7.194-.4-10.564a58.654,58.654,0,0,1-.2-8.96c.334-2.621-2.793-7.308-4.025-8.893l1.392-1.084c.5.643,4.869,6.387,4.383,10.2a58.555,58.555,0,0,0,.213,8.626c.217,3.4.464,7.258.4,10.706-.041,2.246-.118,5.39-.2,8.635.489-2.569,1.129-5.828,1.946-9.946,1.758-8.871,3.578-18.044,3.809-21.108.331-4.378,2.977-10.869,7.229-14.279a9.391,9.391,0,0,1,7.3-2.213c8.376,1.211,6.66,18.042,6.583,18.757L107,87.25c.473-4.408-.84-16.292-6.4-17.1A7.556,7.556,0,0,0,94.655,72c-3.864,3.1-6.27,9.027-6.573,13.034-.24,3.172-2.069,12.4-3.838,21.32-1.579,7.965-3.37,16.994-3.247,18.081.99,3.392.976,5.43-.058,6.348A1.8,1.8,0,0,1,79.719,131.233Z"/><path class="cls-5" d="M106.422,91.729V94.84"/><path class="cls-5" d="M102.81,94.114a27.558,27.558,0,0,1,1.364,5.619"/><path class="cls-5" d="M108.866,101.729v3.111"/><path class="cls-5" d="M111.755,93.285v4.444"/><path class="cls-3" d="M112.045,40.188s3.288-4.871-3.251-5.653-6.684-1.686-6.684-1.686l9.935,12.771Z"/><path class="cls-6" d="M72.808,106.12a7.968,7.968,0,0,1,3.756,3.062,15.532,15.532,0,0,1,1.984,4.486,29.809,29.809,0,0,1,1.08,5.834"/><path class="cls-3" d="M112.609,45.62s.052-5.616,3.381-6.471,4.175-2.923,4.175-2.923a6.323,6.323,0,0,1-1.534,4.879A28.5,28.5,0,0,1,112.609,45.62Z"/><path class="cls-5" d="M113.524,51.237a10.764,10.764,0,0,0,1.946,4.1"/><path class="cls-5" d="M119.03,54.408a5.565,5.565,0,0,0,1.414,2.858"/><path class="cls-5" d="M123.68,47.751a16.461,16.461,0,0,1,.524,5.092"/><path class="cls-5" d="M121.818,62.172c.044-.229.37-.3.569-.177a1.1,1.1,0,0,1,.385.569l1.076,2.687"/><path class="cls-5" d="M112.314,58.3l4.094,4.559"/></svg>