<svg id="word" xmlns="http://www.w3.org/2000/svg" viewBox="0 0 160 160"><defs><style>.cls-1{fill:#35a0d9;}.cls-2{fill:#3294c8;}.cls-3,.cls-4{fill:#fff;}.cls-3{opacity:0.12;}.cls-4{opacity:0.25;}.cls-5{fill:#2e3a50;opacity:0.22;}.cls-6{fill:#9cca3d;}.cls-7{fill:#74bacc;}.cls-8{fill:#136855;}.cls-9{fill:none;stroke:#185d80;stroke-miterlimit:10;}</style></defs><path class="cls-1" d="M129.463,76.253a48.643,48.643,0,1,1-50.332-46.89A48.641,48.641,0,0,1,129.463,76.253Z"/><path class="cls-2" d="M80.85,58.528S73.8,63.715,73.8,65.877s-1.654,6.484,1.875,6.484.5-3.458,6.339-2.377,2.81-.865,4.972,2.377,4.939,2.81,5.387,2.594,8.446-1.217,8.446.148-2.378,2.446-1.513,3.743-1.081.648-2.81,0-3.458,1.07-6.917-.87-4.971-3.885-7.133-2.588-8.213,1.5-5.187,4.207,4.539,3.358,5.836,3.358,2.045-3.908,2,1.18,2.76,19.354,5.57,22.812,1.243,8.61,0,9.511-3.242,5.187-5.188,3.674-6.484-6.916-6.484-8.646,1.729-4.106-.216-5.187-2.936-2.162-5.359.648-15.646,8.862-19.753,8.214-12.066-11.672-8.175-13.4,23.776,0,22.263-.865-1.08-4.755-3.674-5.836.648-3.026-5.836-1.081-20.967,2.162-22.264-.864S37.7,83.6,45.052,84.9s10.554,5.9,12.32,3.458S38.383,74.323,40.08,72.145s2.162-14.266,3.675-16.211,8.862.216,12.969,1.513,15.9-7.225,17.292-9.51,10.807-3.675,9.942,0S80.932,51.4,81.8,53.124s3.026,0,4.539,1.081,4.7,2.161,1.808,3.242S81.2,55.07,80.85,58.528Z"/><path class="cls-3" d="M53.659,38.429S71.816,44.7,75.274,51.4s1.081,17.292,9.079,26.911,24.641,10.915,31.341,7.889,11.754-10.569,11.062-15.782c-1.693-12.748-7.171-20.531-10.846-23.557S102.98,31.023,83.7,31.3C69.308,31.5,53.659,38.429,53.659,38.429Z"/><path class="cls-4" d="M109.426,45.778s-5.836-6.484-9.511-3.674-8,7.349,0,12.969S115.478,55.289,109.426,45.778Z"/><path class="cls-4" d="M116.775,60.693s-5.188,1.513-1.729,6.7S124.34,66.961,116.775,60.693Z"/><path class="cls-5" d="M96.588,119.181c-6.052-.649-29.4-2.162-47.336-22.264-16.514-18.5-8.487-44.331-7.106-48.321a48.644,48.644,0,0,0,69.212,67.35C111.281,115.98,102.614,119.826,96.588,119.181Z"/><path class="cls-6" d="M43.935,48.7l-5.07,8.214S41.611,55.339,41.992,58s-2.657,3.343-.514,4.417,1.584,1.472,1.719,2.714-.453,6.039.062,7.076,1.563,3.665,2.436,4.025,1.188,1.1,2.086,2.121,4.918,6.62,4.688,5.476-4.247-3.764-2.726-4.115a3.574,3.574,0,0,1,3.8,2.071c.33,1.234.1,2.866,1.754,3.666s3.893,1.869,5.123,1.54,1.787-.923,3.422-.5S66.5,88.6,68.215,88.244a4.759,4.759,0,0,1,3.953,1.106c.985.731,1.862,1.276,2.239.976s1.962-1.222,2.077-.748,2.185-.457.453-.684-3.135.684-3.638.03-1.059-3.018-1.471-3.868-.689-.547-2.206-.112-2.067,1.03-2.223-.685,1.312-3.582-.592-3.325-1.64,2.448-2.387,2.951-1.765,1.406-2.071.84a12.655,12.655,0,0,1-1.643-3.2c-.749-2.078-1.784-4.428-.3-5.534s1.8-.542,3.035-.777-.806-1.31,1-1.658,4.375-.732,5.012,1.065,2.278,2.3,2.153,1.358-2.241-3.841-1.643-5.871,2.35-1.136,2.286-2.855-1.614-2.424-1.541-3,1.452.329,2.127-2.089,1.238-.045,2.057-1.316-1.2-1.585,0-2.771,2.876.281,3.432-.218,3.087-2.023,1.818-2.646-4.257-1.382-3.516-2.076,2.364-.751,2.911-1.438,2.226-2.09,1.545-2.447-.823,1.175-1.361-.625-2.331-.873-3.034-1.9-2.338-3.834-2.661-2.293-1.873,3.892-2.3,2.665a3.385,3.385,0,0,0-3.044-2.19c-1.24.043-1.81.066-1.486,1.205s1.378,1,1.518,2.237,1.743.8-1.075,2.144-1.3,1-.615,1.549.5.46.15,1.62-2.052-1.358-1.97-1.744-.668.116-1.53.052-2.331-.966-2.9-.951-2.576.19-2.152-1.359.817-1.269,1.728-2.545a6.655,6.655,0,0,1,2.774-2.678c1.316-.617,1.576-1.4,1.359-2.057s-.791-.739-1.464-.81-1.186-1.1-.05-1.528,3.621-.225,3.736.249-.5-.65.514,1.037.635,1.7,1.685,1.662a15.208,15.208,0,0,0,2.006-.07c.95-.135,2.191-.175,1.892-.643s-1.46-.621-1.469-.9-.5-.747.834-.794,2-.262,1.987-.646-.881-.54-1.842-.6a6.463,6.463,0,0,1-2.322-.68c-.584-.271-4.629-1.175-4.176-1.86a8.632,8.632,0,0,1,1.643-2.258c.834-.7,1.548-2.253,1.69-.825s.347,1.706,2.231.874,2.045-1.7,2.662-.473,1.516,2.337,2,2.416,1.657.9,2.037.787,1.468.9,1.113,1.777.047,1.435,1.69,1.759,2.918,1.426,3.594,1.593,1.395-1.2,1.366-1.963-1.7-1.853-.086-2.479,1.665-1.59,1.643-2.072,1.424-.241,1.881-.92-.149-1.621-1.5-1.957S86.08,31.725,85.1,31.085s-4.016-.67-4.016-.67-9.983.233-16.057,3.029C60.077,35.729,56.988,35.31,43.935,48.7Z"/><path class="cls-7" d="M74.155,91.486a5.127,5.127,0,0,1-2.628-1.271,3.707,3.707,0,0,0-3.1-.916,4.356,4.356,0,0,1-3.423-1.01,5.011,5.011,0,0,0-1.433-.759,2.516,2.516,0,0,0-1.885.17,9.887,9.887,0,0,1-.991.332c-1.525.411-3.649-.529-5.872-1.612a3.457,3.457,0,0,1-1.662-1.633,1.086,1.086,0,0,1-.269.173c-1.015.461-1.564-.246-4.579-4.181-.587-.767-1.093-1.43-1.345-1.718-.287-.326-.521-.629-.731-.9-.421-.549-.621-.8-.943-.925-1.029-.424-1.752-1.856-2.665-3.832-.127-.276-.24-.523-.335-.712-.419-.844-.366-2.495-.229-5.114a22.587,22.587,0,0,0,.06-2.323,6.636,6.636,0,0,1-.031-.8,2.148,2.148,0,0,0-.013-.365c0-.007-.12-.223-1.086-.7a2.286,2.286,0,0,1-1.319-1.388,2.325,2.325,0,0,1,.6-1.93,2.478,2.478,0,0,0,.645-1.909c-.044-.313-.136-.538-.239-.59a1.952,1.952,0,0,0-1.289.288l-3.629,2.037,7.4-11.938C54.208,36.62,58.3,35,62.264,33.434c.755-.3,1.509-.6,2.313-.967,6.2-2.857,16.066-3.119,16.482-3.128.824.009,3.476.1,4.626.843a6.167,6.167,0,0,1,1.107.966,2.44,2.44,0,0,0,1.242.858,3.194,3.194,0,0,1,2.327,1.775,1.966,1.966,0,0,1-.184,1.817,2.6,2.6,0,0,1-1.747.989,3.235,3.235,0,0,1-2.148,2.358l.085.134a2.687,2.687,0,0,1,.547,1.36,3.631,3.631,0,0,1-1.209,2.669,1.687,1.687,0,0,1-1.494.377,5.246,5.246,0,0,1-1.274-.6,7.667,7.667,0,0,0-2.266-.979,3.36,3.36,0,0,1-2.452-1.384,2.073,2.073,0,0,1-.028-1.834.99.99,0,0,0-.219-.288,3.765,3.765,0,0,1-1.536-.538,5.878,5.878,0,0,0-.6-.278c-1.148-.188-2.242-2.023-2.641-2.762a10.227,10.227,0,0,1-1.385.747c-1,.444-1.976.8-2.774.34a1.635,1.635,0,0,1-.667-.751c-.07.069-.144.136-.22.2a4.438,4.438,0,0,0-.972,1.255c.635.252,1.609.539,2.106.685a9.664,9.664,0,0,1,1.159.379,5.424,5.424,0,0,0,1.935.582c.835.056,2.778.187,2.85,1.625.025,1.031-.814,1.455-1.658,1.635a1.59,1.59,0,0,1,.131.172,1.269,1.269,0,0,1,.1,1.252,1.2,1.2,0,0,1-.072.132,1.325,1.325,0,0,1,.393-.143c1.113-.216,1.934.884,3.135,2.719.117.178.223.339.312.471a1.884,1.884,0,0,0,.6.16,2.887,2.887,0,0,1,2.52,1.854,1.432,1.432,0,0,1,.895.169,1.351,1.351,0,0,1,.716.98c.149.906-.616,1.7-1.424,2.548-.195.2-.378.392-.5.544a3.649,3.649,0,0,1-1.823,1.045c.226.089.448.173.632.242.532.2,1.034.392,1.432.588a1.574,1.574,0,0,1,.946,1.283c.106,1.162-1.127,2.081-2.118,2.819-.172.129-.319.235-.406.314a2.1,2.1,0,0,1-2.1.185c-.764-.215-1.056-.245-1.293-.008l0,0c.011.016.023.031.033.048a2.135,2.135,0,0,1,.116,2.54,1.658,1.658,0,0,1-1.869.835c-.018.055-.037.119-.058.191a3.421,3.421,0,0,1-1.544,2.264,4.1,4.1,0,0,1,1,2.5,2.254,2.254,0,0,1-1.5,2.316c-.44.214-.662.321-.824.877-.294,1,.5,2.639,1.017,3.724a6.346,6.346,0,0,1,.658,1.7,1.424,1.424,0,0,1-1.057,1.649c-1.177.282-2.59-.843-3.176-2.5-.308-.871-2.094-.681-3.526-.417a1.364,1.364,0,0,1-.127.96,1.541,1.541,0,0,1-1.139.749,5.167,5.167,0,0,1-1.215.08,1.714,1.714,0,0,0-1.382.506c-.664.494-.2,1.94.478,3.78l.191.522a9.944,9.944,0,0,0,1.206,2.463c.163-.109.339-.237.471-.332s.287-.208.42-.3a3.024,3.024,0,0,1,.148-.489,3.346,3.346,0,0,1,2.7-2.639,2,2,0,0,1,1.8.5,2.466,2.466,0,0,1,.208,2.354,4.853,4.853,0,0,0-.2,1.444l0,.028.054-.019c.233-.081.5-.173.8-.259.259-.075.479-.144.668-.2.915-.29,2.052-.65,2.8.873a15.283,15.283,0,0,1,.633,1.745c.17.526.434,1.347.624,1.754.159-.019.378-.061.554-.095a7.7,7.7,0,0,1,2.473-.158c1.478.194,1.628,1.049,1.624,1.408-.01.985-1.087,1.468-1.763,1.541a1.51,1.51,0,0,1-.9-.158,5.644,5.644,0,0,0-.95.544A1.451,1.451,0,0,1,74.155,91.486Zm-5.078-4.407a5.486,5.486,0,0,1,2.542.647c-.077-.227-.156-.474-.243-.74-.159-.494-.322-1-.453-1.315l-.283.088c-.2.065-.443.14-.721.22-.255.074-.483.154-.683.224a2.225,2.225,0,0,1-2.052.044,2.351,2.351,0,0,1-.858-1.891,6.6,6.6,0,0,1,.252-2.14c.008-.034.017-.068.025-.1-.244.149-.385.458-.6,1.095a2.847,2.847,0,0,1-.975,1.571c-.114.077-.239.167-.366.259-.188.137-.379.275-.572.4l.024.007A6.8,6.8,0,0,1,66.2,86.5c.775.517,1.246.8,1.8.69A5.364,5.364,0,0,1,69.077,87.079Zm-18.8-8.495a4.619,4.619,0,0,1,4.305,2.923,9.613,9.613,0,0,1,.2,1.044c.154,1.03.267,1.584.985,1.932,1.048.511,3.5,1.708,4.377,1.469a7.489,7.489,0,0,0,.778-.264c.2-.077.408-.155.632-.224a1.468,1.468,0,0,1-.15-.225c-.06-.111-.138-.222-.225-.352a11.932,11.932,0,0,1-1.486-3l-.185-.507c-.781-2.119-1.751-4.757.26-6.253a3.781,3.781,0,0,1,2.724-.929l.091,0a1.427,1.427,0,0,1,.174-.79,2.065,2.065,0,0,1,1.481-.913c1.115-.217,3.3-.642,4.825.137a4.972,4.972,0,0,1-.132-2.831A3.28,3.28,0,0,1,70.88,67.6a3.242,3.242,0,0,0,.3-.154c0-.015,0-.066,0-.149a2.437,2.437,0,0,0-.805-1.547,2.076,2.076,0,0,1-.729-1.628,1.379,1.379,0,0,1,1.319-1.189c.307-.052.572-.1.839-1.056a2.606,2.606,0,0,1,1.177-1.8,1.4,1.4,0,0,1,.836-.112,1.924,1.924,0,0,1,.325-2.654,3.219,3.219,0,0,1,3.393-.535c.1.028.219.062.316.086.094-.073.2-.153.316-.239.194-.145.59-.439.894-.708-.2-.08-.414-.16-.631-.243-1.607-.608-2.767-1.047-2.966-2.052a1.358,1.358,0,0,1,.432-1.269,4.909,4.909,0,0,1,1.878-.942,3.755,3.755,0,0,0,.932-.386c.149-.187.376-.427.622-.684l.061-.064a2.847,2.847,0,0,1-.693-1.339c-.111-.363-.195-.413-.9-.539A2.746,2.746,0,0,1,75.8,47.336c-.1-.141-.212-.315-.338-.508-.168-.257-.455-.7-.735-1.083-.486,1.193-1.388,2.7-2.55,2.771a1.441,1.441,0,0,1-1.465-1.063,2.338,2.338,0,0,0-1.988-1.467c-.126,0-.27.009-.407.016a1.711,1.711,0,0,0,.328.308,2.676,2.676,0,0,1,1.142,1.921c0,.054.006.064.129.2a1.4,1.4,0,0,1,.433,1.246c-.148.761-.832,1.119-2.243,1.792l-.068.033a1.583,1.583,0,0,1,.34,1.957c-.047.136-.106.3-.17.518A1.381,1.381,0,0,1,66.51,55a4.123,4.123,0,0,1-2.038-2,3.7,3.7,0,0,1-.875.048,6.694,6.694,0,0,1-1.961-.614,6.717,6.717,0,0,0-.889-.336,3.352,3.352,0,0,1-2.854-.845,2.007,2.007,0,0,1-.309-1.872,3.869,3.869,0,0,1,1.19-2.083,5.3,5.3,0,0,0,.7-.8,7.632,7.632,0,0,1,3.192-3.027c.092-.043.9-.431.794-.743a4.255,4.255,0,0,0-.555-.078,1.924,1.924,0,0,1-1.669-1.633,1.856,1.856,0,0,1,1.356-1.974A7.415,7.415,0,0,1,66.64,39l.128-.1.2.23.048.025a1.357,1.357,0,0,1,.732.887c.01.046.019.091.025.135.091.146.209.34.365.6.288.475.471.825.6,1.083l.033.061.091,0c.439-.016.708-.012.936-.006a4.429,4.429,0,0,0,.571-.012,1.117,1.117,0,0,1-.11-.371,1.449,1.449,0,0,1,.128-1.323,1.591,1.591,0,0,1,.134-.166c-.379-.134-.706-.282-.974-.4-.157-.067-.481-.157-.877-.274-2.405-.707-3.573-1.137-3.9-2.02a1.264,1.264,0,0,1,.136-1.144c.109-.166.212-.343.318-.526a7.547,7.547,0,0,1,1.191-1.652q-.491.191-.949.4c-.849.392-1.649.709-2.423,1.015-3.74,1.479-7.606,3.008-18.266,13.932l-3.744,6.065a2.427,2.427,0,0,1,.583.2,2.694,2.694,0,0,1,1.429,2.219A4.565,4.565,0,0,1,42.04,61.3l-.1.142.02.01c1.971.985,2.3,1.725,2.289,3.013a4.663,4.663,0,0,0,.018.548,20.006,20.006,0,0,1-.05,2.671,20.508,20.508,0,0,0,.012,4.056c.1.189.219.456.358.756A11.663,11.663,0,0,0,46.15,75.26a4.237,4.237,0,0,1,1.8,1.587c.184.239.388.506.643.8.189.217.475.58.833,1.044l.078-.02A3.6,3.6,0,0,1,50.279,78.584Zm1.4,2.6c.3.289.561.55.79.793A2.066,2.066,0,0,0,51.682,81.181ZM60.79,49.946a4.661,4.661,0,0,1,1.686.5,6.09,6.09,0,0,0,1.282.449,2.282,2.282,0,0,0,.716-.1,2.242,2.242,0,0,1,.752-.091,6.3,6.3,0,0,1,1.954-1.181c.279-.133.5-.241.669-.328a2.258,2.258,0,0,1-.2-.727c-.023-.209-.058-.243-.359-.488a2.98,2.98,0,0,1-1.123-1.568,2.04,2.04,0,0,1,.173-1.814,1.853,1.853,0,0,1,1.376-.7,2.167,2.167,0,0,1-.876-1.041c-.118-.228-.28-.539-.538-.964-.353-.586-.5-.824-.559-.908a7.1,7.1,0,0,0-1.149-.09,1.978,1.978,0,0,1,.919,1.166c.162.489.514,2.212-1.928,3.357A5.594,5.594,0,0,0,61.261,47.7a7.684,7.684,0,0,1-.982,1.139,1.789,1.789,0,0,0-.609,1.077,3.87,3.87,0,0,0,.963.038l.114-.005Zm9.255-5.879a4.657,4.657,0,0,1,2.238,1.76,5.46,5.46,0,0,0,.69-1.614,1.969,1.969,0,0,1,.269-.678,4.767,4.767,0,0,1-1.688.392c-.166.019-.333.039-.492.062A7.816,7.816,0,0,1,70.045,44.067Zm10.133-4.552a3.393,3.393,0,0,0,.909.277,9.558,9.558,0,0,1,2.922,1.224c.147.085.327.188.474.265a1.689,1.689,0,0,0,.28-.762c-.014.022-.126-.152-.2-.274a2.362,2.362,0,0,1-.5-2.025A2.027,2.027,0,0,1,85.363,37c.988-.391.968-.8.957-1.017-.032-1.15,1.125-1.387,1.56-1.477.094-.019.231-.047.349-.079a1.769,1.769,0,0,0-.715-.328,4.487,4.487,0,0,1-2.272-1.453,4.374,4.374,0,0,0-.73-.655,10.242,10.242,0,0,0-3.441-.5,61.42,61.42,0,0,0-11,1.414,2.641,2.641,0,0,1,.151.7c.012.108.022.2.033.276.158-.055.381-.143.69-.279a8.593,8.593,0,0,0,1.215-.668,2.01,2.01,0,0,1,1.672-.457A1.977,1.977,0,0,1,75,33.624a6.326,6.326,0,0,0,1.329,1.862,5.025,5.025,0,0,1,1.077.454c.179.09.462.233.617.292a2,2,0,0,1,1.6.778,2.362,2.362,0,0,1,.564,2.485Z"/><path class="cls-6" d="M78.333,87.788s.941-3.089,1.35-2.336.511,3.709,1.432,2.532.12-1.923.59-2.031,1.27.719,2.411.394a5.056,5.056,0,0,0,2.256-1.137c.927-.7-.1-.088,2.792.669s-.524,1.358,2.9.76,2.87-.009,3.469.737,1.948,1.077,1.875,1.654-2.942,3.261-.875,2.42,1.488-1.294,3.682-1.376,1.275.723,3.669.924,2.479-.182,4.291-.154,3.17.275,1.233,2.162-1.925,2.36-2.261,3.714a48.818,48.818,0,0,0-.581,5.276s.859,2.555-1.145,2.625-4.383.54-4.125,2.534a6.133,6.133,0,0,1-1.064,4.92c-1.092,1.47-2.2,2.56-3.12,3.742s-1.779,1.113-2.011,2.56a14.148,14.148,0,0,0-.183,3.063c.025.669.615,1.03,1.482,1.19s1.837.6.308.653-3.835-.239-4.337-.985a6.847,6.847,0,0,1-1.67-3.864c-.072-1.912-1.815-2.613-1.632-5.685s.607-4.418-.48-5.337-.019-.377-1.953-1.17-3.577-1.118-4.389-2.525-1.244-2.632-2.783-2.865S77.131,99.788,77.5,99.3,78,97.18,77.51,97s-.541-1.8.1-2.493,1.174-2.047.476-2.884S75.815,89.7,78.333,87.788Z"/><path class="cls-7" d="M96.386,124.364c-1.035,0-4.006-.121-4.91-1.466-.066-.1-.145-.207-.231-.325a7.2,7.2,0,0,1-1.622-4.1,3.439,3.439,0,0,0-.575-1.553,6.994,6.994,0,0,1-1.055-4.235c.037-.654.087-1.233.131-1.747.16-1.864.159-2.374-.231-2.7a5.965,5.965,0,0,1-.605-.571l-.207-.082c-.191-.075-.462-.182-.854-.342s-.75-.292-1.1-.423c-1.527-.567-2.971-1.1-3.812-2.561-.125-.215-.244-.43-.358-.638-.659-1.2-.933-1.591-1.655-1.7a3.518,3.518,0,0,1-2.842-1.739,1.525,1.525,0,0,1,.181-1.527,2.422,2.422,0,0,0,.107-.861,1.819,1.819,0,0,1-.6-1.018,3.494,3.494,0,0,1,.671-2.992c.429-.458.652-1.207.439-1.463-.072-.085-.152-.173-.237-.264a3.26,3.26,0,0,1-1.133-2.5,3.626,3.626,0,0,1,1.515-2.4c.819-2.553,1.439-2.829,2.007-2.886a1.231,1.231,0,0,1,1.217.675,2.6,2.6,0,0,1,.156.356,1.291,1.291,0,0,1,.681-.391,2.157,2.157,0,0,1,1.351.225,1.442,1.442,0,0,0,1,.183,4.066,4.066,0,0,0,1.9-.96l.136-.1a1.35,1.35,0,0,1,1.806-.118,4.849,4.849,0,0,0,1.771.707,3.388,3.388,0,0,1,1.739.863l.7-.122c2.66-.465,3.664-.4,4.354.893a1.289,1.289,0,0,0,.14.23,3.382,3.382,0,0,0,.753.547c.589.358,1.478.9,1.35,1.915,0,.026-.007.051-.011.077a6.291,6.291,0,0,1,1.71-.243,3.622,3.622,0,0,1,2.4.542,2.517,2.517,0,0,0,1.4.385,9.115,9.115,0,0,0,2.4-.039,10.721,10.721,0,0,1,1.819-.118c1.064.021,2.664.054,3.133,1.243.412,1.044-.406,2.027-1.165,2.766-1.564,1.516-1.652,1.887-1.889,2.878l-.079.323a43.874,43.874,0,0,0-.54,4.894,3.584,3.584,0,0,1-.273,2.857,2.306,2.306,0,0,1-1.92.968c-2.155.074-2.8.565-2.973.772a.629.629,0,0,0-.123.548,7.2,7.2,0,0,1-1.266,5.7c-.641.864-1.271,1.582-1.88,2.276-.442.5-.867.986-1.255,1.487a6.223,6.223,0,0,1-1.154,1.128c-.446.354-.566.449-.645.942a13.133,13.133,0,0,0-.17,2.835,2.182,2.182,0,0,0,.6.188c.517.1,2.081.392,1.986,1.609-.086,1.122-1.36,1.163-1.839,1.178C96.714,124.359,96.586,124.364,96.386,124.364Zm-17.764-24.9a2.8,2.8,0,0,0,1,.323c1.832.278,2.568,1.612,3.218,2.79.106.194.216.393.335.6.434.754,1.266,1.091,2.7,1.623.374.139.765.284,1.168.448.382.156.644.26.829.332a1.983,1.983,0,0,1,.979.6,3.867,3.867,0,0,0,.436.414c1.28,1.082,1.156,2.528.985,4.529-.044.5-.091,1.056-.129,1.691a4.953,4.953,0,0,0,.793,3.069,5.388,5.388,0,0,1,.84,2.511,5.1,5.1,0,0,0,1.214,2.916c.1.139.193.267.274.386a1.894,1.894,0,0,0,.645.247,2.257,2.257,0,0,1-.067-.462,15.252,15.252,0,0,1,.2-3.278,3.286,3.286,0,0,1,1.428-2.28,4.254,4.254,0,0,0,.792-.762c.416-.536.867-1.052,1.339-1.589.581-.662,1.181-1.345,1.77-2.138a5.049,5.049,0,0,0,.86-4.135,2.783,2.783,0,0,1,.616-2.222c.809-.952,2.294-1.453,4.54-1.531a.506.506,0,0,0,.227-.042,1.958,1.958,0,0,0-.068-1.169l-.064-.2.012-.211a47.038,47.038,0,0,1,.612-5.468l.074-.306c.318-1.33.556-2.053,2.482-3.921.106-.1.2-.2.269-.276-.193-.016-.446-.03-.775-.036a8.971,8.971,0,0,0-1.495.1,11.236,11.236,0,0,1-2.866.051,4.593,4.593,0,0,1-2.36-.708c-.245-.154-.383-.241-1.183-.213-1.045.039-1.185.131-1.6.4a8.684,8.684,0,0,1-1.714.895c-.337.138-1.384.561-1.987-.243-.633-.846.06-1.716.861-2.723.082-.1.182-.228.276-.349l-.075-.046A4.914,4.914,0,0,1,94.7,88.054a3.539,3.539,0,0,1-.364-.568l-.006-.012a9.368,9.368,0,0,0-2.077.226c-1.93.336-2.228.388-2.675-.156l-.4-.485.018-.052c-.084-.027-.184-.056-.3-.087a8.682,8.682,0,0,1-2.014-.742,5.915,5.915,0,0,1-2.46,1.2,3.133,3.133,0,0,1-1.824-.038,3.2,3.2,0,0,1-.625,1.3,1.473,1.473,0,0,1-1.531.66,1.579,1.579,0,0,1-1.107-1.088l-.068.222-.277.21c-.869.66-.943,1.029-.949,1.1-.019.212.308.565.569.849.111.12.217.235.308.346,1.04,1.244.554,3.169-.516,4.31a1.52,1.52,0,0,0-.172.933,1.592,1.592,0,0,1,.56.842A4.161,4.161,0,0,1,78.622,99.465Z"/><path class="cls-6" d="M43.935,48.7l-5.07,8.214S41.611,55.339,41.992,58s-2.657,3.343-.514,4.417,1.584,1.472,1.719,2.714-.453,6.039.062,7.076,1.563,3.665,2.436,4.025,1.188,1.1,2.086,2.121,4.918,6.62,4.688,5.476-4.247-3.764-2.726-4.115a3.574,3.574,0,0,1,3.8,2.071c.33,1.234.1,2.866,1.754,3.666s3.893,1.869,5.123,1.54,1.787-.923,3.422-.5S66.5,88.6,68.215,88.244a4.759,4.759,0,0,1,3.953,1.106c.985.731,1.862,1.276,2.239.976s1.962-1.222,2.077-.748,2.185-.457.453-.684-3.135.684-3.638.03-1.059-3.018-1.471-3.868-.689-.547-2.206-.112-2.067,1.03-2.223-.685,1.312-3.582-.592-3.325-1.64,2.448-2.387,2.951-1.765,1.406-2.071.84a12.655,12.655,0,0,1-1.643-3.2c-.749-2.078-1.784-4.428-.3-5.534s1.8-.542,3.035-.777-.806-1.31,1-1.658,4.375-.732,5.012,1.065,2.278,2.3,2.153,1.358-2.241-3.841-1.643-5.871,2.35-1.136,2.286-2.855-1.614-2.424-1.541-3,1.452.329,2.127-2.089,1.238-.045,2.057-1.316-1.2-1.585,0-2.771,2.876.281,3.432-.218,3.087-2.023,1.818-2.646-4.257-1.382-3.516-2.076,2.364-.751,2.911-1.438,2.226-2.09,1.545-2.447-.823,1.175-1.361-.625-2.331-.873-3.034-1.9-2.338-3.834-2.661-2.293-1.873,3.892-2.3,2.665a3.385,3.385,0,0,0-3.044-2.19c-1.24.043-1.81.066-1.486,1.205s1.378,1,1.518,2.237,1.743.8-1.075,2.144-1.3,1-.615,1.549.5.46.15,1.62-2.052-1.358-1.97-1.744-.668.116-1.53.052-2.331-.966-2.9-.951-2.576.19-2.152-1.359.817-1.269,1.728-2.545a6.655,6.655,0,0,1,2.774-2.678c1.316-.617,1.576-1.4,1.359-2.057s-.791-.739-1.464-.81-1.186-1.1-.05-1.528,3.621-.225,3.736.249-.5-.65.514,1.037.635,1.7,1.685,1.662a15.208,15.208,0,0,0,2.006-.07c.95-.135,2.191-.175,1.892-.643s-1.46-.621-1.469-.9-.5-.747.834-.794,2-.262,1.987-.646-.881-.54-1.842-.6a6.463,6.463,0,0,1-2.322-.68c-.584-.271-4.629-1.175-4.176-1.86a8.632,8.632,0,0,1,1.643-2.258c.834-.7,1.548-2.253,1.69-.825s.347,1.706,2.231.874,2.045-1.7,2.662-.473,1.516,2.337,2,2.416,1.657.9,2.037.787,1.468.9,1.113,1.777.047,1.435,1.69,1.759,2.918,1.426,3.594,1.593,1.395-1.2,1.366-1.963-1.7-1.853-.086-2.479,1.665-1.59,1.643-2.072,1.424-.241,1.881-.92-.149-1.621-1.5-1.957S86.08,31.725,85.1,31.085s-4.016-.67-4.016-.67-9.983.233-16.057,3.029C60.077,35.729,56.988,35.31,43.935,48.7Z"/><path class="cls-8" d="M74.141,90.68a4.544,4.544,0,0,1-2.133-1.114,4.477,4.477,0,0,0-3.74-1.058,3.621,3.621,0,0,1-2.813-.89,5.681,5.681,0,0,0-1.68-.87,3.317,3.317,0,0,0-2.375.2,8.691,8.691,0,0,1-.91.307c-1.258.336-3.314-.584-5.31-1.558a3.31,3.31,0,0,1-1.73-2.945,8.079,8.079,0,0,0-.166-.893A3.3,3.3,0,0,0,49.8,79.977a.272.272,0,0,0-.134.056c-.064.246.9,1.187,1.418,1.693a5.773,5.773,0,0,1,1.647,2.051c.059.3-.082.407-.171.448-.335.151-.584,0-3.6-3.937-.6-.787-1.124-1.466-1.379-1.758-.276-.313-.5-.6-.7-.864A3.136,3.136,0,0,0,45.6,76.483c-.746-.308-1.451-1.73-2.23-3.42-.131-.285-.249-.54-.347-.735-.329-.662-.267-2.37-.145-4.711a21.577,21.577,0,0,0,.057-2.455,5.745,5.745,0,0,1-.026-.7c0-.7.007-1.023-1.546-1.8-.531-.266-.816-.541-.9-.864-.11-.432.163-.819.479-1.267a3.253,3.253,0,0,0,.785-2.489,1.451,1.451,0,0,0-.686-1.2c-.8-.391-2.028.3-2.04.311l-.918.524,5.662-9.16C54.666,37.307,58.679,35.72,62.56,34.185c.757-.3,1.539-.609,2.356-.986,6.054-2.786,16.062-3.051,16.162-3.053.137,0,3.137.045,4.169.713a5.57,5.57,0,0,1,.964.849,3.217,3.217,0,0,0,1.627,1.081,2.451,2.451,0,0,1,1.771,1.286,1.151,1.151,0,0,1-.107,1.08,2.013,2.013,0,0,1-1.351.665,1.769,1.769,0,0,0-.5.146c.067,1-.543,1.788-1.8,2.283-.2.08-.458.21-.516.387-.071.221.154.571.353.88a2.081,2.081,0,0,1,.419.952,2.883,2.883,0,0,1-.91,2.014.88.88,0,0,1-.79.22,4.8,4.8,0,0,1-1.069-.519,8.339,8.339,0,0,0-2.511-1.071c-1.047-.206-1.651-.517-1.9-.977a1.3,1.3,0,0,1,.012-1.147.987.987,0,0,0-.176-.895,1.209,1.209,0,0,0-.625-.52h0c-.287.084-.7-.108-1.337-.433a4.149,4.149,0,0,0-.8-.349c-.647-.106-1.594-1.369-2.2-2.561-.187-.373-.285-.448-.329-.459-.094-.026-.332.131-.591.3a10.148,10.148,0,0,1-1.393.762c-.97.429-1.615.627-2.044.379-.4-.233-.49-.781-.562-1.472a1.678,1.678,0,0,0-.051-.3,5.031,5.031,0,0,0-.454.5,6.439,6.439,0,0,1-.744.8A5.538,5.538,0,0,0,66.4,36.346c-.12.207-.236.407-.361.593a12.425,12.425,0,0,0,3.018,1.132,10.406,10.406,0,0,1,1.047.336,6.182,6.182,0,0,0,2.226.655c1.423.1,2.069.361,2.094.86.018.755-1.191.893-2.247.929-.579.02-.674.119-.679.123s.031.083.046.128a1.063,1.063,0,0,1,.053.2,3.013,3.013,0,0,0,.41.188,2.143,2.143,0,0,1,1.021.642.46.46,0,0,1,.048.463c-.162.343-.693.421-1.617.53-.172.02-.345.041-.51.064a6.218,6.218,0,0,1-1.171.067c-.209,0-.456-.009-.862.006-.863.027-.971-.031-1.363-.782-.124-.239-.294-.565-.563-1.009-.362-.6-.516-.842-.571-.927l-.134-.21.028-.03a6.12,6.12,0,0,0-3.248-.006c-.2.074-.529.244-.491.547a.568.568,0,0,0,.475.461c.633.066,1.422.149,1.691,1,.144.434.288,1.542-1.5,2.382A6.33,6.33,0,0,0,60.6,47.23a6.888,6.888,0,0,1-.889,1.029,2.572,2.572,0,0,0-.832,1.475.735.735,0,0,0,.062.677c.328.409,1.344.363,1.725.346l.1,0a4.058,4.058,0,0,1,1.4.44A6,6,0,0,0,63.7,51.7a2.956,2.956,0,0,0,.971-.125c.311-.077.537-.134.706.027a.38.38,0,0,1,.1.369A4.384,4.384,0,0,0,66.6,53.556c.172.137.253.144.269.144h0a.354.354,0,0,0,.048-.11c.073-.239.137-.425.189-.575.153-.439.153-.439-.248-.76A1.906,1.906,0,0,0,66.3,52c-.272-.092-.555-.187-.572-.468-.017-.31.239-.537,1.8-1.277a7.863,7.863,0,0,0,1.5-.841c-.018.017-.067-.036-.1-.075a1.577,1.577,0,0,1-.474-.956,1.38,1.38,0,0,0-.653-1.027,2.2,2.2,0,0,1-.857-1.166,1.245,1.245,0,0,1,.05-1.114c.28-.385.84-.405,1.686-.434a3.646,3.646,0,0,1,3.307,2.371c0,.017.058.161.108.161h0c.382-.024,1.4-1.512,1.673-2.794.08-.386.253-.606.513-.656.638-.121,1.353.906,2.31,2.368.12.184.229.35.322.485a1.561,1.561,0,0,0,1.119.5,2.065,2.065,0,0,1,1.95,1.477,2.8,2.8,0,0,0,.264.675c.022-.015.045-.034.064-.05a.77.77,0,0,1,.9-.16.537.537,0,0,1,.3.4c.076.473-.429,1.043-1.211,1.859-.215.224-.413.432-.547.6a3.253,3.253,0,0,1-1.558.82,3.866,3.866,0,0,0-1.379.646c.029.3,1.371.807,2.091,1.08.513.2,1,.379,1.36.557a.781.781,0,0,1,.5.633c.06.658-.777,1.339-1.8,2.1-.2.146-.362.269-.463.358-.328.3-.818.157-1.339.011-.687-.193-1.468-.414-2.081.2-.472.465-.34.666-.075,1.067A1.336,1.336,0,0,1,75.118,61a.885.885,0,0,1-1.292.382c-.145-.066-.237-.1-.285-.079-.063.03-.233.18-.448.94-.5,1.779-1.414,1.935-1.908,2.019a1.044,1.044,0,0,0-.229.054,2.368,2.368,0,0,0,.418.543,3.649,3.649,0,0,1,1.144,2.392,1.469,1.469,0,0,1-1.05,1.563,1.967,1.967,0,0,0-1.247,1.377c-.381,1.3.454,3.032,1.065,4.3a6.179,6.179,0,0,1,.587,1.458.616.616,0,0,1-.448.752c-.653.159-1.742-.617-2.225-1.985-.529-1.487-2.676-1.287-4.708-.89-.443.085-.537.2-.555.233-.039.072.025.229.082.369a.821.821,0,0,1,.057.714.771.771,0,0,1-.58.342,4.356,4.356,0,0,1-1.042.065,2.457,2.457,0,0,0-1.885.665c-1.2.895-.49,2.833.2,4.708l.189.517a10.58,10.58,0,0,0,1.334,2.7c.115.171.212.317.292.462.25.09.9-.372,1.283-.648.138-.1.274-.2.4-.285a1.939,1.939,0,0,0,.458-.894c.278-.807.659-1.913,2.043-2.1a1.235,1.235,0,0,1,1.094.237c.325.36.185.946.022,1.625a5.442,5.442,0,0,0-.219,1.7c.058.635.165.83.246.881.124.081.473-.04.88-.183.22-.077.47-.164.754-.246.265-.076.491-.148.687-.21.926-.293,1.39-.439,1.835.46a15.013,15.013,0,0,1,.588,1.636,10.4,10.4,0,0,0,.856,2.189c.161.208.574.142,1.24.017a6.849,6.849,0,0,1,2.219-.151c.229.03.926.121.921.6,0,.443-.693.71-1.043.748-.408.04-.55-.141-.6-.262h0a4.8,4.8,0,0,0-1.67.824A.674.674,0,0,1,74.141,90.68Zm-5.057-2.794a5.384,5.384,0,0,1,3.245,1.248c1.414,1.048,1.8,1.065,1.911.981.145-.118,1.621-1.111,2.219-.91a.432.432,0,0,1,.263.238,1.122,1.122,0,0,0,.574-.195,1.717,1.717,0,0,0-.393-.087,6.271,6.271,0,0,0-2.05.146c-.751.142-1.395.263-1.767-.219a10.076,10.076,0,0,1-.941-2.35,15.091,15.091,0,0,0-.559-1.564c-.237-.476-.258-.48-1.19-.184-.2.063-.43.136-.7.213s-.514.163-.727.238c-.582.2-1,.349-1.35.127-.28-.182-.422-.554-.489-1.285a5.841,5.841,0,0,1,.232-1.879c.117-.487.236-.99.1-1.139-.077-.084-.3-.108-.622-.065-1.056.145-1.336.958-1.608,1.744a2.195,2.195,0,0,1-.664,1.164c-.122.084-.253.179-.387.276-.626.454-1.22.875-1.68.775a.587.587,0,0,1-.392-.306c-.071-.131-.162-.263-.266-.418a11.211,11.211,0,0,1-1.394-2.816l-.188-.514c-.723-1.964-1.542-4.19-.016-5.326a2.954,2.954,0,0,1,2.221-.769,4,4,0,0,0,.926-.057.43.43,0,0,0,.211-.074,1.358,1.358,0,0,0-.086-.252.943.943,0,0,1-.056-.827,1.237,1.237,0,0,1,.925-.5c1.481-.288,4.563-.888,5.318,1.24.435,1.233,1.324,1.707,1.593,1.641.018,0,.057-.014.039-.157a6.356,6.356,0,0,0-.538-1.3c-.648-1.347-1.536-3.191-1.1-4.686a2.472,2.472,0,0,1,1.529-1.709c.5-.242.772-.375.747-1.06a3.16,3.16,0,0,0-1.007-2.054c-.322-.361-.575-.646-.532-.99.05-.391.4-.451.654-.494.454-.078,1.076-.183,1.48-1.634.214-.759.436-1.142.74-1.283a.851.851,0,0,1,.734.077c.278.126.384.177.617-.184.3-.459.126-.715-.109-1.071a1.167,1.167,0,0,1,.145-1.745,2.434,2.434,0,0,1,2.607-.332c.34.1.727.2.835.1s.288-.231.5-.388c.526-.392,1.619-1.207,1.581-1.618-.006-.069-.073-.137-.2-.2-.34-.167-.813-.347-1.314-.536-1.461-.554-2.355-.927-2.459-1.455a.551.551,0,0,1,.191-.522,4.229,4.229,0,0,1,1.579-.765,2.966,2.966,0,0,0,1.306-.644c.14-.177.351-.4.578-.635.336-.351,1.125-1.174,1.068-1.4-.112-.058-.156-.044-.33.1a.58.58,0,0,1-.548.177c-.251-.078-.423-.367-.632-1.066-.267-.878-.852-.982-1.529-1.1a2.032,2.032,0,0,1-1.469-.725c-.094-.137-.206-.307-.328-.494-.348-.53-1.4-2.134-1.752-2.134h-.008a.6.6,0,0,0-.087.238c-.26,1.235-1.334,3.168-2.165,3.221-.161.018-.485-.043-.652-.522a3.083,3.083,0,0,0-2.779-2.01c-.614.021-1.144.04-1.27.213-.05.068-.084.237.032.649a1.679,1.679,0,0,0,.68.9,1.9,1.9,0,0,1,.847,1.385,1.072,1.072,0,0,0,.336.653.624.624,0,0,1,.237.547c-.062.318-.415.557-1.8,1.218a11.221,11.221,0,0,0-1.366.721l.083.028a2.341,2.341,0,0,1,.721.346c.625.5.668.642.419,1.357-.049.145-.112.323-.181.551a.584.584,0,0,1-.725.475,3.9,3.9,0,0,1-1.757-2.153L64.8,52.1a3.636,3.636,0,0,1-1.141.139,6.252,6.252,0,0,1-1.7-.552,4.645,4.645,0,0,0-1.16-.4h-.009l-.089,0c-.539.025-1.67.076-2.17-.548a1.241,1.241,0,0,1-.16-1.155,3.062,3.062,0,0,1,.975-1.718,6.212,6.212,0,0,0,.8-.912A6.916,6.916,0,0,1,63.011,44.2c.706-.331,1.492-.9,1.217-1.728-.147-.464-.507-.551-1.237-.627a1.109,1.109,0,0,1-.951-.93,1.083,1.083,0,0,1,.836-1.118,6.287,6.287,0,0,1,3.766.075.583.583,0,0,1,.326.363.65.65,0,0,1,.017.2c.095.153.24.389.465.763.278.456.452.792.58,1.038.266.511.26.512.866.493.42-.016.678-.011.893-.007a5.877,5.877,0,0,0,1.087-.061c.166-.024.344-.045.52-.065a5.691,5.691,0,0,0,1.145-.206,2.253,2.253,0,0,0-.735-.4c-.409-.165-.731-.294-.741-.6a.916.916,0,0,0-.031-.112.645.645,0,0,1,.024-.606c.157-.226.486-.331,1.1-.353,1.64-.057,1.725-.36,1.728-.37h0c-.006,0-.165-.248-1.591-.344a6.725,6.725,0,0,1-2.408-.7c-.142-.066-.55-.186-.982-.313-2.087-.614-3.18-1.018-3.365-1.523a.469.469,0,0,1,.051-.422c.118-.178.229-.369.343-.567a6.092,6.092,0,0,1,1.352-1.749,5.983,5.983,0,0,0,.676-.728c.4-.484.7-.831,1.043-.726.3.093.377.461.412.809.049.479.113.956.3,1.061.241.141.959-.142,1.557-.406a9.358,9.358,0,0,0,1.322-.724c.424-.27.713-.449,1.022-.36.286.079.473.351.668.736a5.1,5.1,0,0,0,1.8,2.272,3.94,3.94,0,0,1,.959.4,3.743,3.743,0,0,0,.962.392c.331-.1.741.2,1.017.5a1.578,1.578,0,0,1,.416,1.64.756.756,0,0,0-.037.688c.162.3.677.537,1.53.705a8.9,8.9,0,0,1,2.676,1.132,4.755,4.755,0,0,0,.93.464.393.393,0,0,0,.321-.117,2.36,2.36,0,0,0,.712-1.575,1.814,1.814,0,0,0-.334-.68,1.667,1.667,0,0,1-.412-1.339,1.262,1.262,0,0,1,.832-.721c1.37-.542,1.5-1.291,1.47-1.808-.012-.456.481-.557.917-.647.39-.08.833-.171,1.011-.437a.61.61,0,0,0,.054-.585,1.964,1.964,0,0,0-1.4-.959,3.713,3.713,0,0,1-1.886-1.23,5.015,5.015,0,0,0-.869-.771,10.782,10.782,0,0,0-3.873-.627c-.089,0-9.987.264-15.94,3-.83.383-1.619.7-2.382,1-3.827,1.514-7.782,3.078-18.611,14.183l-4.611,7.473a2.41,2.41,0,0,1,1.737.013,1.945,1.945,0,0,1,.983,1.609,3.742,3.742,0,0,1-.878,2.875c-.238.34-.445.633-.4.826.039.153.252.331.617.513,1.77.885,1.849,1.392,1.843,2.284a5.076,5.076,0,0,0,.023.642,21.1,21.1,0,0,1-.054,2.542c-.086,1.628-.2,3.857.089,4.443.1.2.219.458.354.75.5,1.082,1.336,2.9,1.944,3.146a3.578,3.578,0,0,1,1.508,1.354c.194.253.409.533.677.837.242.277.7.867,1.232,1.566a.714.714,0,0,1,.467-.289A3.845,3.845,0,0,1,53.8,81.717a8.565,8.565,0,0,1,.178.953c.153,1.023.3,1.99,1.433,2.54,1.407.686,3.76,1.837,4.936,1.522a8.316,8.316,0,0,0,.857-.29,3.844,3.844,0,0,1,2.7-.215,6.074,6.074,0,0,1,1.845.944,3.1,3.1,0,0,0,2.407.809A4.641,4.641,0,0,1,69.084,87.886Z"/><path class="cls-6" d="M78.333,87.788s.941-3.089,1.35-2.336.511,3.709,1.432,2.532.12-1.923.59-2.031,1.27.719,2.411.394a5.056,5.056,0,0,0,2.256-1.137c.927-.7-.1-.088,2.792.669s-.524,1.358,2.9.76,2.87-.009,3.469.737,1.948,1.077,1.875,1.654-2.942,3.261-.875,2.42,1.488-1.294,3.682-1.376,1.275.723,3.669.924,2.479-.182,4.291-.154,3.17.275,1.233,2.162-1.925,2.36-2.261,3.714a48.818,48.818,0,0,0-.581,5.276s.859,2.555-1.145,2.625-4.383.54-4.125,2.534a6.133,6.133,0,0,1-1.064,4.92c-1.092,1.47-2.2,2.56-3.12,3.742s-1.779,1.113-2.011,2.56a14.148,14.148,0,0,0-.183,3.063c.025.669.615,1.03,1.482,1.19s1.837.6.308.653-3.835-.239-4.337-.985a6.847,6.847,0,0,1-1.67-3.864c-.072-1.912-1.815-2.613-1.632-5.685s.607-4.418-.48-5.337-.019-.377-1.953-1.17-3.577-1.118-4.389-2.525-1.244-2.632-2.783-2.865S77.131,99.788,77.5,99.3,78,97.18,77.51,97s-.541-1.8.1-2.493,1.174-2.047.476-2.884S75.815,89.7,78.333,87.788Z"/><path class="cls-8" d="M96.313,123.559c-1.466,0-3.609-.281-4.166-1.111-.073-.107-.157-.223-.248-.349a6.4,6.4,0,0,1-1.47-3.655,4.12,4.12,0,0,0-.674-1.913,6.224,6.224,0,0,1-.957-3.8c.039-.648.087-1.22.131-1.727.157-1.833.236-2.753-.515-3.389a4.748,4.748,0,0,1-.578-.555c-.069-.079-.069-.079-.459-.233-.189-.074-.457-.179-.844-.338s-.767-.3-1.127-.433c-1.448-.537-2.7-1-3.394-2.207-.123-.213-.238-.422-.35-.625-.618-1.121-1.065-1.931-2.24-2.109A2.807,2.807,0,0,1,77.2,99.871a.725.725,0,0,1,.08-.735,2.722,2.722,0,0,0,.235-1.638.456.456,0,0,0-.1-.243c-.158-.056-.372-.22-.482-.675a2.713,2.713,0,0,1,.478-2.253c.573-.61,1.053-1.827.466-2.529-.078-.094-.168-.192-.263-.294a2.532,2.532,0,0,1-.922-1.881,3.082,3.082,0,0,1,1.407-2c.512-1.656.98-2.518,1.392-2.559a.425.425,0,0,1,.426.257,5.426,5.426,0,0,1,.354,1.229,4.07,4.07,0,0,0,.465,1.436,1.142,1.142,0,0,0,.164-.171,1.705,1.705,0,0,0,.388-1.406c-.025-.233-.068-.624.356-.721a1.437,1.437,0,0,1,.858.183,2.2,2.2,0,0,0,1.538.215A4.828,4.828,0,0,0,86.21,85l.139-.1c.357-.273.5-.357.842-.107a5.476,5.476,0,0,0,2.041.835c.835.218,1.275.45,1.429.75a.527.527,0,0,1,.059.223c.254-.036.694-.113,1.3-.217,2.715-.477,3.116-.246,3.5.477a2.09,2.09,0,0,0,.222.356,3.821,3.821,0,0,0,.964.731c.53.322,1.031.627.968,1.124a3.6,3.6,0,0,1-.815,1.258,10.456,10.456,0,0,0-.728.986c.072-.021.17-.054.3-.106a7.513,7.513,0,0,0,1.479-.773,3.5,3.5,0,0,1,2.294-.623,2.837,2.837,0,0,1,1.943.419,3.248,3.248,0,0,0,1.758.506,9.935,9.935,0,0,0,2.573-.044,10.044,10.044,0,0,1,1.7-.111c1.311.026,2.167.158,2.394.732.185.469-.116,1.053-.977,1.892-1.732,1.679-1.85,2.176-2.111,3.268l-.078.318a47.285,47.285,0,0,0-.571,5.178,3,3,0,0,1-.123,2.307,1.528,1.528,0,0,1-1.283.62c-1.8.062-3.027.428-3.561,1.057a1.434,1.434,0,0,0-.308,1.173,6.377,6.377,0,0,1-1.114,5.114c-.621.838-1.24,1.543-1.838,2.224-.458.522-.89,1.014-1.286,1.524a5.428,5.428,0,0,1-1.02.992,1.976,1.976,0,0,0-.937,1.446,13.782,13.782,0,0,0-.181,3c.007.186.027.719,1.263.947.624.118,1.361.344,1.329.753-.028.37-.54.417-1.062.434C96.588,123.556,96.454,123.559,96.313,123.559ZM79.493,85.682a9.341,9.341,0,0,0-.9,2.184l-.025.084L78.5,88a2.722,2.722,0,0,0-1.265,1.669,2.1,2.1,0,0,0,.781,1.468c.1.109.2.213.281.314.83.994.216,2.494-.485,3.241a2.183,2.183,0,0,0-.357,1.732c.054.24.133.317.151.324a.706.706,0,0,1,.41.5,3.166,3.166,0,0,1-.3,2.2.193.193,0,0,0-.014.21,2.4,2.4,0,0,0,1.8.919c1.439.218,1.991,1.221,2.631,2.382.11.2.223.4.345.614.6,1.039,1.709,1.451,3.115,1.973.366.135.748.277,1.143.439s.651.262.838.336c.464.182.512.2.668.379a4.3,4.3,0,0,0,.52.5c.963.814.871,1.891.7,3.845-.043.5-.092,1.07-.129,1.712a5.7,5.7,0,0,0,.89,3.506,4.6,4.6,0,0,1,.742,2.153,5.848,5.848,0,0,0,1.366,3.359c.1.131.183.252.259.364.4.59,2.484.932,4.1.866l.12,0a4.354,4.354,0,0,0-.466-.115c-1.371-.253-1.682-.925-1.7-1.444a14.564,14.564,0,0,1,.186-3.117,2.514,2.514,0,0,1,1.134-1.78,4.885,4.885,0,0,0,.929-.9c.407-.524.844-1.022,1.308-1.55.591-.673,1.2-1.37,1.809-2.189a5.822,5.822,0,0,0,1.013-4.724,1.977,1.977,0,0,1,.432-1.591c.644-.759,1.974-1.179,3.952-1.247a1.012,1.012,0,0,0,.86-.388,2.543,2.543,0,0,0,.038-1.883l-.017-.049,0-.053a47.6,47.6,0,0,1,.59-5.324l.075-.313c.277-1.16.417-1.742,2.259-3.529.917-.894.884-1.227.853-1.308-.141-.356-1.468-.383-1.9-.392a9.393,9.393,0,0,0-1.62.106,10.417,10.417,0,0,1-2.69.047,3.739,3.739,0,0,1-2-.586,2.286,2.286,0,0,0-1.639-.337,3.028,3.028,0,0,0-2.018.535,7.878,7.878,0,0,1-1.573.821c-.419.172-.839.292-1.039.023-.248-.331.12-.823.846-1.737a5.6,5.6,0,0,0,.7-.991c.019-.15-.387-.4-.714-.595a4.229,4.229,0,0,1-1.1-.853,2.529,2.529,0,0,1-.278-.44c-.219-.41-.355-.653-2.936-.2-1.762.308-1.762.307-1.912.128a.347.347,0,0,1-.031-.361c.017-.055-.05-.264-1.07-.532a5.948,5.948,0,0,1-2.22-.919l-.033-.025c-.044.03-.106.077-.167.123l-.14.107a5.313,5.313,0,0,1-2.343,1.181,2.728,2.728,0,0,1-1.895-.235,1.8,1.8,0,0,0-.485-.159c0,.042.008.1.013.141a2.225,2.225,0,0,1-.5,1.8c-.233.3-.468.421-.713.366-.493-.114-.667-.917-.868-1.847A7.651,7.651,0,0,0,79.493,85.682Z"/><path class="cls-9" d="M129.463,76.253a48.643,48.643,0,1,1-50.332-46.89A48.641,48.641,0,0,1,129.463,76.253Z"/></svg>