<svg id="word" xmlns="http://www.w3.org/2000/svg" viewBox="0 0 160 160"><defs><style>.cls-1{fill:#9a4a99;}.cls-1,.cls-8,.cls-9{stroke:#9a4a99;}.cls-1,.cls-11,.cls-8,.cls-9{stroke-miterlimit:10;}.cls-1,.cls-9{stroke-width:1.767px;}.cls-2{fill:#f390a5;}.cls-3{fill:#fcebf1;}.cls-4{fill:#1e75b7;}.cls-5{fill:#f498ab;}.cls-6{fill:#d11f37;}.cls-7{fill:#d61e42;}.cls-8{fill:#89d0f2;stroke-width:0.883px;}.cls-11,.cls-9{fill:none;}.cls-9{stroke-linecap:round;}.cls-10{fill:#9b4b9c;}.cls-11{stroke:#9b4d9c;stroke-width:0.83px;}</style></defs><path class="cls-1" d="M56.539,64.421,50.288,63.7s-.09,2.253-.269,5.236c-.042.707-.089,1.453-.142,2.222-.068,1-.145,2.034-.23,3.061-.056.673-.116,1.341-.179,1.994-.132,1.363-.28,2.652-.444,3.758a19.755,19.755,0,0,1-.507,2.541c-.017.056-.033.118-.05.17-.272.836-.535,1.612-.779,2.32-.338.977-.639,1.813-.88,2.467-.364.987-.591,1.562-.591,1.562a4.19,4.19,0,0,0-1.074-.16c-1.228-.034-3.2.391-4.262,3.176-1.606,4.231-1.183,5.447,3.305,10.238.058.061.11.118.165.177A23.867,23.867,0,0,1,46.471,105a6.8,6.8,0,0,1,.77,1.405,8.445,8.445,0,0,1,.439,1.846c.086.553.178,1.193.342,2,.087.428.2.9.334,1.437.066.255.136.518.217.8.2.7.4,1.488.586,2.327.232,1.018.461,2.117.7,3.256.176.837.357,1.694.55,2.557.185.826.381,1.657.591,2.477.241.945.5,1.877.791,2.773.247.768.515,1.507.806,2.209a14.578,14.578,0,0,0,1.883,3.378,7.258,7.258,0,0,0,1.467,1.45c4.674,3.364,9.229,4.658,12.826,1.133a9.893,9.893,0,0,0,2.309-5.47,27.478,27.478,0,0,0,.321-3.725c.021-.892.009-1.782-.029-2.646-.037-.845-.1-1.663-.173-2.431-.119-1.206-.275-2.285-.434-3.14-.023-.124-.046-.246-.069-.36-.106-.52-.262-1.289-.45-2.234-.155-.78-.332-1.684-.522-2.672-.143-.742-.292-1.528-.445-2.351-.135-.725-.271-1.475-.407-2.239-.118-.661-.235-1.332-.351-2.007-.18-1.057-.354-2.121-.516-3.17q-.069-.447-.135-.889c-.141-.943-.27-1.866-.382-2.748-.132-1.045-.238-2.027-.312-2.925-.079-.94-.121-1.781-.117-2.485a5.548,5.548,0,0,1,.24-1.911l.015-.038c.149-.355.342-.93.566-1.67.255-.838.549-1.885.866-3.058.213-.79.436-1.636.664-2.514.218-.843.441-1.715.662-2.593.242-.958.482-1.922.715-2.865.2-.815.4-1.614.583-2.377.886-3.632,1.551-6.467,1.551-6.467S62.79,65.143,56.539,64.421Z"/><path class="cls-2" d="M56.23,88.05c1.094.248,2.209.385,3.315.571A57.247,57.247,0,0,1,67.317,90.6c.149-.355.342-.93.566-1.67-5.253-2.018-10.634-3.7-16.008-5.371l-3.358-1.046c-.017.056-.033.118-.05.17-.272.836-.535,1.613-.779,2.32l4,1.546A33.3,33.3,0,0,0,56.23,88.05Z"/><path class="cls-3" d="M50.938,88.688q8.044,2,16.124,3.859a5.548,5.548,0,0,1,.24-1.911l.015-.038a57.247,57.247,0,0,0-7.772-1.977c-1.106-.186-2.221-.323-3.315-.571a33.3,33.3,0,0,1-4.537-1.5l-4-1.546c-.338.977-.639,1.813-.88,2.467A34.115,34.115,0,0,0,50.938,88.688Z"/><path class="cls-2" d="M51.826,91.421c2.051,1.032,4.009,2.358,6.259,2.814,2.317.47,4.733-.029,7.072.312a12.746,12.746,0,0,1,2.022.485c-.079-.94-.121-1.781-.117-2.485q-8.078-1.866-16.124-3.859a34.115,34.115,0,0,1-4.13-1.22c-.364.987-.591,1.562-.591,1.562a4.19,4.19,0,0,0-1.074-.16A43.659,43.659,0,0,1,51.826,91.421Z"/><path class="cls-4" d="M67.883,88.928c.255-.838.549-1.885.866-3.058-1.048-.421-2.115-.8-3.182-1.169l-6.759-2.348a37.1,37.1,0,0,0-5.367-1.568,40.941,40.941,0,0,1-4.417-.815,19.755,19.755,0,0,1-.507,2.541l3.358,1.046C57.249,85.232,62.63,86.91,67.883,88.928Z"/><path class="cls-4" d="M46.175,101.872a29.546,29.546,0,0,0,3.538-.639c2.282-.73,4.01-2.63,6.216-3.566,2.617-1.111,5.6-.755,8.405-.284q1.582.266,3.157.574c-.132-1.045-.238-2.027-.312-2.925a12.746,12.746,0,0,0-2.022-.485c-2.339-.341-4.755.158-7.072-.312-2.25-.456-4.208-1.782-6.259-2.814a43.659,43.659,0,0,0-6.683-2.551c-1.228-.034-3.2.391-4.262,3.176-1.606,4.231-1.183,5.447,3.305,10.238.058.061.11.118.165.177A7,7,0,0,1,46.175,101.872Z"/><path class="cls-2" d="M61.515,72.051c3.439,1.432,9.858,3.47,9.858,3.47h0c.886-3.632,1.551-6.467,1.551-6.467S62.79,65.143,56.539,64.42L50.288,63.7s-.09,2.254-.269,5.237A92.576,92.576,0,0,1,61.515,72.051Z"/><path class="cls-4" d="M70.79,77.9c.2-.815.4-1.614.583-2.377h0s-6.419-2.038-9.858-3.47a92.576,92.576,0,0,0-11.5-3.116c-.042.706-.089,1.453-.142,2.222A142.806,142.806,0,0,1,70.79,77.9Z"/><path class="cls-3" d="M49.548,105.309c4.008-2.118,8.638-2.645,13.144-3.136l5.316-.578c-.046-.3-.091-.595-.135-.89a24.745,24.745,0,0,0-5.68-.589,30.464,30.464,0,0,0-5.007.742c-3.225.661-6.53,1.354-9.31,3.115A13.685,13.685,0,0,0,46.471,105a6.749,6.749,0,0,1,.77,1.405A13.7,13.7,0,0,0,49.548,105.309Z"/><path class="cls-3" d="M69.413,83.356c.218-.843.441-1.715.662-2.593a69.975,69.975,0,0,0-10.848-4.155q-4.729-1.419-9.58-2.39c-.056.674-.116,1.341-.179,1.994A67.265,67.265,0,0,1,69.413,83.356Z"/><path class="cls-2" d="M58.808,82.353,65.567,84.7c1.067.37,2.134.748,3.182,1.169.213-.79.436-1.636.664-2.514a67.265,67.265,0,0,0-19.945-7.144c-.132,1.363-.28,2.652-.444,3.758a40.941,40.941,0,0,0,4.417.815A37.1,37.1,0,0,1,58.808,82.353Z"/><path class="cls-5" d="M70.075,80.763c.242-.958.482-1.922.715-2.865a142.806,142.806,0,0,0-20.913-6.741c-.068,1-.145,2.035-.23,3.061q4.842.977,9.58,2.39A69.975,69.975,0,0,1,70.075,80.763Z"/><path class="cls-2" d="M57.186,100.858a30.464,30.464,0,0,1,5.007-.742,24.745,24.745,0,0,1,5.68.589c-.141-.943-.27-1.866-.382-2.748q-1.575-.306-3.157-.574c-2.8-.471-5.788-.827-8.405.284-2.206.936-3.934,2.836-6.216,3.566a29.546,29.546,0,0,1-3.538.639,7,7,0,0,0-1.824.589A23.867,23.867,0,0,1,46.471,105a13.685,13.685,0,0,1,1.405-1.022C50.656,102.212,53.961,101.519,57.186,100.858Z"/><path class="cls-2" d="M71.375,122.2,51.792,125.87c.247.767.515,1.506.806,2.208L71.4,124.845C71.425,123.952,71.413,123.062,71.375,122.2Z"/><path class="cls-3" d="M71.2,119.767,51,123.1c.241.945.5,1.877.791,2.774L71.375,122.2C71.338,121.353,71.278,120.535,71.2,119.767Z"/><path class="cls-5" d="M70.768,116.627c-2.278.619-5.86,1.584-7.384,1.954-1.822.443-9.679,1.573-12.974,2.038.185.826.381,1.657.591,2.477l20.2-3.329C71.083,118.561,70.928,117.482,70.768,116.627Z"/><path class="cls-2" d="M54.48,131.456a7.288,7.288,0,0,0,1.468,1.45c4.675,3.364,9.229,4.658,12.826,1.133a9.893,9.893,0,0,0,2.309-5.47Z"/><path class="cls-4" d="M71.4,124.845,52.6,128.078a14.613,14.613,0,0,0,1.882,3.378l16.6-2.887A27.477,27.477,0,0,0,71.4,124.845Z"/><path class="cls-4" d="M57.049,109a38.306,38.306,0,0,0,7.038-1.621,15.63,15.63,0,0,1,4.788-.605c-.118-.661-.235-1.332-.351-2.007L58.45,106.033a25.4,25.4,0,0,0-4.37.813,21.448,21.448,0,0,1-3.389,1.02,15.241,15.241,0,0,0-3.011.38c.086.553.178,1.193.342,2,.761-.177,1.5-.575,2.252-.831C52.426,108.679,54.781,109.147,57.049,109Z"/><path class="cls-2" d="M68.875,106.771a15.63,15.63,0,0,0-4.788.605A38.306,38.306,0,0,1,57.049,109c-2.268.15-4.623-.318-6.775.414-.753.256-1.491.654-2.252.831.087.428.2.9.334,1.437l20.926-2.669C69.147,108.285,69.011,107.535,68.875,106.771Z"/><path class="cls-5" d="M54.08,106.846a25.4,25.4,0,0,1,4.37-.813l10.074-1.269c-.18-1.057-.354-2.121-.516-3.169l-5.316.578c-4.506.491-9.136,1.018-13.144,3.136a13.7,13.7,0,0,1-2.307,1.091,8.445,8.445,0,0,1,.439,1.846,15.241,15.241,0,0,1,3.011-.38A21.448,21.448,0,0,0,54.08,106.846Z"/><path class="cls-3" d="M69.282,109.01l-20.926,2.669c.066.255.137.518.218.8.2.7.394,1.488.585,2.327l20.568-3.445C69.584,110.619,69.435,109.833,69.282,109.01Z"/><path class="cls-4" d="M70.768,116.627c-.023-.124-.046-.245-.069-.36-.106-.52-.262-1.289-.45-2.234-2.283.588-6.582,1.716-8.332,2.322-1.943.673-9.2,1.429-12.057,1.707.176.837.357,1.694.55,2.557,3.3-.465,11.152-1.595,12.974-2.038C64.908,118.211,68.49,117.246,70.768,116.627Z"/><path class="cls-2" d="M70.249,114.033c-.155-.78-.332-1.684-.522-2.672l-20.568,3.445c.232,1.018.461,2.117.7,3.256,2.857-.278,10.114-1.034,12.057-1.707C63.667,115.749,67.966,114.621,70.249,114.033Z"/><path class="cls-1" d="M90.427,66.422l-5.906,2.17s.934,2.052,2.118,4.8c.28.651.574,1.338.874,2.048.389.924.787,1.882,1.173,2.838.253.626.5,1.249.738,1.86.495,1.277.944,2.494,1.3,3.556a19.893,19.893,0,0,1,.691,2.5c.01.057.024.12.032.174.133.869.248,1.681.349,2.423.138,1.024.245,1.906.325,2.6.119,1.044.176,1.66.176,1.66a4.2,4.2,0,0,0-1.031.341c-1.112.522-2.686,1.792-2.376,4.754.472,4.5,1.4,5.4,7.562,7.654l.227.084a23.786,23.786,0,0,1,3.034,1.308,6.7,6.7,0,0,1,1.319.907,8.464,8.464,0,0,1,1.224,1.451c.326.455.7.985,1.2,1.629.271.342.582.719.946,1.133.173.2.355.4.554.615.5.538,1.023,1.151,1.571,1.815.665.8,1.365,1.682,2.092,2.592.534.667,1.082,1.351,1.643,2.035.537.654,1.085,1.307,1.642,1.946.642.735,1.295,1.449,1.956,2.119.566.574,1.138,1.114,1.714,1.609a14.615,14.615,0,0,0,3.2,2.169,7.279,7.279,0,0,0,1.963.634c5.689.9,10.338,0,11.962-4.764a9.9,9.9,0,0,0-.4-5.924,27.505,27.505,0,0,0-1.39-3.47c-.383-.806-.795-1.6-1.218-2.35-.414-.738-.836-1.441-1.249-2.092-.649-1.024-1.274-1.917-1.8-2.609-.076-.1-.152-.2-.224-.29-.328-.417-.813-1.033-1.407-1.792-.49-.627-1.055-1.354-1.67-2.15-.461-.6-.948-1.234-1.455-1.9-.447-.586-.906-1.194-1.372-1.815q-.6-.807-1.217-1.635c-.637-.862-1.271-1.734-1.888-2.6q-.264-.369-.521-.733c-.55-.779-1.082-1.545-1.578-2.283-.588-.873-1.125-1.7-1.6-2.47-.493-.8-.909-1.536-1.223-2.167a5.537,5.537,0,0,1-.646-1.814l0-.041c-.027-.384-.114-.985-.247-1.746-.15-.862-.359-1.93-.6-3.12-.165-.8-.347-1.657-.539-2.543-.185-.852-.379-1.73-.577-2.615-.215-.963-.435-1.933-.651-2.879-.187-.819-.372-1.62-.55-2.386-.845-3.641-1.527-6.472-1.527-6.472S96.334,64.252,90.427,66.422Z"/><path class="cls-2" d="M100.791,87.659c1.089-.27,2.147-.651,3.218-.983a57.445,57.445,0,0,1,7.83-1.734c-.027-.384-.114-.985-.247-1.746-5.6.564-11.159,1.488-16.712,2.413l-3.469.578c.01.057.024.12.032.174.133.869.248,1.681.349,2.423l4.272-.424A32.939,32.939,0,0,0,100.791,87.659Z"/><path class="cls-3" d="M96.354,90.613q8.084-1.836,16.134-3.816a5.537,5.537,0,0,1-.646-1.814l0-.041a57.445,57.445,0,0,0-7.83,1.734c-1.071.332-2.129.713-3.218.983a32.939,32.939,0,0,1-4.727.7l-4.272.424c.138,1.024.245,1.906.325,2.6A34.265,34.265,0,0,0,96.354,90.613Z"/><path class="cls-2" d="M98.377,92.653c2.3,0,4.641.3,6.856-.306,2.28-.624,4.213-2.157,6.455-2.906a12.747,12.747,0,0,1,2.024-.477c-.494-.8-.91-1.536-1.224-2.167q-8.052,1.971-16.134,3.816a34.265,34.265,0,0,1-4.237.77c.119,1.044.176,1.66.176,1.66a4.2,4.2,0,0,0-1.031.341A43.584,43.584,0,0,1,98.377,92.653Z"/><path class="cls-6" d="M111.592,83.2c-.15-.862-.359-1.93-.6-3.12-1.125.1-2.248.239-3.368.389l-7.092.947a37.27,37.27,0,0,0-5.5,1.016,40.96,40.96,0,0,1-4.31,1.262,19.893,19.893,0,0,1,.691,2.5l3.469-.578C100.433,84.684,105.993,83.76,111.592,83.2Z"/><path class="cls-6" d="M98.038,104.529a29.736,29.736,0,0,0,2.871-2.164c1.709-1.679,2.4-4.154,3.944-5.983,1.837-2.17,4.661-3.2,7.377-4.039q1.533-.476,3.078-.909c-.588-.873-1.125-1.7-1.6-2.47a12.747,12.747,0,0,0-2.024.477c-2.242.749-4.175,2.282-6.455,2.906-2.215.606-4.559.3-6.856.306a43.584,43.584,0,0,0-7.115.731c-1.112.522-2.686,1.792-2.375,4.755.471,4.5,1.395,5.4,7.561,7.653l.227.084A6.958,6.958,0,0,1,98.038,104.529Z"/><path class="cls-2" d="M98.306,70.994c3.716-.269,10.365-1.34,10.365-1.34h0c-.845-3.642-1.527-6.473-1.527-6.473s-10.81,1.071-16.717,3.241l-5.906,2.17s.934,2.052,2.118,4.8A92.869,92.869,0,0,1,98.306,70.994Z"/><path class="cls-7" d="M109.221,72.039c-.187-.819-.372-1.62-.55-2.385h0s-6.649,1.071-10.365,1.34a92.869,92.869,0,0,0-11.667,2.394c.28.651.574,1.338.874,2.048A142.807,142.807,0,0,1,109.221,72.039Z"/><path class="cls-3" d="M102.6,106.079c2.624-3.7,6.521-6.252,10.324-8.719l4.486-2.91q-.263-.369-.521-.733a24.7,24.7,0,0,0-5.337,2.031,30.5,30.5,0,0,0-4.137,2.917c-2.581,2.042-5.22,4.149-6.91,6.974a13.555,13.555,0,0,0-.793,1.545,6.7,6.7,0,0,1,1.319.907A13.644,13.644,0,0,0,102.6,106.079Z"/><path class="cls-3" d="M110.449,77.533c-.185-.852-.379-1.73-.577-2.615a69.928,69.928,0,0,0-11.556,1.176q-4.863.863-9.63,2.18c.253.626.5,1.249.738,1.86A67.239,67.239,0,0,1,110.449,77.533Z"/><path class="cls-2" d="M100.528,81.412l7.092-.947c1.12-.15,2.243-.293,3.368-.389-.165-.8-.347-1.657-.539-2.543a67.239,67.239,0,0,0-21.025,2.6c.495,1.277.944,2.494,1.3,3.556a40.96,40.96,0,0,0,4.31-1.262A37.27,37.27,0,0,1,100.528,81.412Z"/><path class="cls-5" d="M109.872,74.918c-.215-.963-.435-1.933-.651-2.879a142.807,142.807,0,0,0-21.708,3.4c.389.924.787,1.882,1.173,2.838q4.762-1.31,9.63-2.18A69.928,69.928,0,0,1,109.872,74.918Z"/><path class="cls-2" d="M107.412,98.665a30.5,30.5,0,0,1,4.137-2.917,24.7,24.7,0,0,1,5.337-2.031c-.55-.779-1.082-1.545-1.578-2.283q-1.545.436-3.078.909c-2.716.843-5.54,1.869-7.377,4.039-1.548,1.829-2.235,4.3-3.944,5.983a29.736,29.736,0,0,1-2.871,2.164,6.958,6.958,0,0,0-1.363,1.347,23.786,23.786,0,0,1,3.034,1.308,13.555,13.555,0,0,1,.793-1.545C102.192,102.814,104.831,100.707,107.412,98.665Z"/><path class="cls-2" d="M129.691,111.33l-15.832,12.1c.566.574,1.138,1.114,1.714,1.609l15.336-11.355C130.526,112.874,130.114,112.084,129.691,111.33Z"/><path class="cls-3" d="M128.442,109.238,111.9,121.307c.642.735,1.295,1.449,1.956,2.119l15.832-12.1C129.277,110.592,128.855,109.889,128.442,109.238Z"/><path class="cls-5" d="M126.641,106.629c-1.756,1.579-4.519,4.053-5.714,5.07-1.427,1.216-7.934,5.763-10.666,7.662.537.654,1.085,1.307,1.642,1.946l16.539-12.069C127.793,108.214,127.168,107.321,126.641,106.629Z"/><path class="cls-2" d="M118.775,127.2a7.279,7.279,0,0,0,1.963.634c5.689.9,10.338,0,11.962-4.764a9.9,9.9,0,0,0-.4-5.924Z"/><path class="cls-6" d="M130.909,113.68l-15.336,11.355a14.615,14.615,0,0,0,3.2,2.169L132.3,117.15A27.505,27.505,0,0,0,130.909,113.68Z"/><path class="cls-6" d="M110.956,105.994a38.275,38.275,0,0,0,5.553-4.617,15.611,15.611,0,0,1,4-2.695q-.6-.807-1.217-1.635l-8.424,5.67a25.293,25.293,0,0,0-3.536,2.693,21.386,21.386,0,0,1-2.567,2.437,15.267,15.267,0,0,0-2.516,1.7c.326.455.7.985,1.2,1.629.6-.5,1.08-1.189,1.636-1.757C106.684,107.791,109,107.149,110.956,105.994Z"/><path class="cls-2" d="M120.512,98.682a15.611,15.611,0,0,0-4,2.695,38.275,38.275,0,0,1-5.553,4.617c-1.959,1.155-4.272,1.8-5.864,3.42-.556.568-1.037,1.255-1.636,1.757.27.342.581.719.945,1.133L121.884,100.5C121.437,99.911,120.978,99.3,120.512,98.682Z"/><path class="cls-5" d="M107.335,105.41a25.293,25.293,0,0,1,3.536-2.693l8.424-5.67c-.637-.862-1.271-1.734-1.888-2.6l-4.486,2.91c-3.8,2.467-7.7,5.023-10.324,8.719a13.644,13.644,0,0,1-1.569,2.012,8.464,8.464,0,0,1,1.224,1.451,15.267,15.267,0,0,1,2.516-1.7A21.386,21.386,0,0,0,107.335,105.41Z"/><path class="cls-3" d="M121.884,100.5,104.4,112.3c.173.2.355.4.555.615.5.538,1.022,1.152,1.57,1.815L123.34,102.4Q122.647,101.5,121.884,100.5Z"/><path class="cls-6" d="M126.641,106.629c-.077-.1-.153-.2-.225-.29-.328-.417-.813-1.033-1.407-1.792-1.774,1.553-5.105,4.5-6.394,5.825-1.432,1.475-7.571,5.418-10,6.954.534.667,1.082,1.351,1.643,2.035,2.732-1.9,9.239-6.446,10.666-7.662C122.122,110.682,124.885,108.208,126.641,106.629Z"/><path class="cls-2" d="M125.009,104.547c-.49-.627-1.055-1.354-1.669-2.15l-16.814,12.337c.665.8,1.365,1.682,2.092,2.592,2.426-1.536,8.565-5.479,10-6.954C119.9,109.043,123.235,106.1,125.009,104.547Z"/><path class="cls-8" d="M47.641,57.269a150.3,150.3,0,0,0,17.389-6.92c7.46-3.714,7.257-5.521,12.5-6.11s7.637,2.149,10.539,3.653,19.548,9.437,21.31,10.807,5.083,5.18,4.463,6.819-9.31-1.307-12.4-3.051-10.28-7.08-22.722-6.2S54.4,63.045,48.25,62.69,41.807,59.313,47.641,57.269Z"/><path class="cls-9" d="M72.481,30.038s-4.059-5.87,2.934-7.559c7.188-1.737,8.318,3.562,8.03,6.383s-5.024,6.912-5.508,9.341a53.938,53.938,0,0,0-.68,6.067"/><polygon class="cls-8" points="56.755 59.404 57.846 68.051 60.65 68.526 60.65 58.469 56.755 59.404"/><polygon class="cls-8" points="95.508 58.157 95.312 68.207 97.316 68.207 99.212 59.404 95.508 58.157"/><path class="cls-10" d="M134.973,10.371s-3.213-3.429-1.333-4.35,2.705,3.59,2.705,3.59,1.159-4.8,2.763-4.075c2.944,1.324-1.869,4.826-1.869,4.826s4.428-2.41,4.746.022-4.46.495-4.46.495,4.85,1.717,4.364,3.779-4.805-2.418-4.805-2.418,3.156,4.728.791,4.881c-2.119.137-1.9-4.507-1.9-4.507s-1.235,5.018-3.275,3.9c-2.392-1.3,2.307-4.465,2.307-4.465s-5.512,1.161-4.878-1.58C130.653,8.212,134.973,10.371,134.973,10.371Z"/><path class="cls-10" d="M25.089,9.437s.335-4.687,2.288-3.932-.8,4.423-.8,4.423,4.308-2.405,4.868-.738c1.027,3.06-4.812,1.9-4.812,1.9s4.775,1.615,3.206,3.5-3.391-2.939-3.391-2.939,2.032,4.727.187,5.77-1.486-5.169-1.486-5.169S23.821,17.783,22.1,16.15c-1.539-1.462,2.02-4.453,2.02-4.453s-4.523,2.5-5.091.247c-.665-2.642,4.846-1.338,4.846-1.338s-4.595-3.259-2.153-4.654C23.741,4.8,25.089,9.437,25.089,9.437Z"/><path class="cls-11" d="M28.266,12.3C46.7,23.417,76.879,25.959,94.99,22.782c26.491-4.648,42.3-12.073,42.3-12.073"/></svg>