<svg id="word" xmlns="http://www.w3.org/2000/svg" viewBox="0 0 160 160"><defs><style>.cls-1{fill:#607f8d;opacity:0.81;}.cls-1,.cls-2,.cls-3,.cls-4{stroke:#9d4b9c;stroke-linecap:round;stroke-miterlimit:10;stroke-width:0.408px;}.cls-2{fill:#fcb836;}.cls-3{fill:#ffdf32;}.cls-4{fill:none;}</style></defs><path class="cls-1" d="M37.49,59.644s-6.1.243-7.377-5.467,7.631-5.709,7.631-5.709.127-6.2,5.214-8.626a11.557,11.557,0,0,1,9.284-.486,3.682,3.682,0,0,1,1.781-3.644,4.706,4.706,0,0,1,4.324,0s-.127-5.953,6.868-8.139S77.17,30.61,77.17,30.61a6.082,6.082,0,0,1,4.96-3.037,5.758,5.758,0,0,1,4.832,2.794A10.771,10.771,0,0,1,96.5,27.573c5.723,1.214,7.631,7.288,7.631,7.288s4.96-1.093,8.266.729,2.29,6.317,2.29,6.317,4.96-2.308,9.665,2.552,3.688,8.5,3.688,8.5,3.689-2.065,7.377,1.58.89,7.532-1.272,9.6-9.03,1.7-9.03,1.7-.763,7.168-8.9,10.2c-4.03,1.5-12.718,0-12.718,0s-5.215,5.588-12.082,5.71a15.8,15.8,0,0,1-10.938-4.009s-12.59,3.158-17.169-1.7a10.446,10.446,0,0,1-2.925-5.831s-6.1.729-7.5-1.336a8.317,8.317,0,0,1-1.526-3.159s-8.521,3.523-11.828.243S37.49,59.644,37.49,59.644Z"/><path class="cls-2" d="M99.68,51.14s-11.573,7.046-15.9,9.84a89.533,89.533,0,0,0-10.174,8.382l7.63-1.579s-10.428,8.261-13.1,11.663-9.03,10.083-9.03,10.083L79.713,82s-11.059,11.546-15.4,22.243c-2.8,6.908-9.022,23.556-10.167,26.107s9.92-19.316,13.736-25.512S95.611,74.586,95.611,74.586L73.1,80.9,94.212,61.345,83.4,64.868Z"/><polygon class="cls-3" points="107.438 78.595 97.9 86.006 102.097 85.277 93.957 92.93 100.443 92.08 90.905 105.321 104.64 89.529 99.553 90.136 108.329 83.09 102.86 83.333 107.438 78.595"/><polygon class="cls-3" points="47.537 94.509 37.362 103.742 43.213 102.892 31.385 119.17 48.427 100.583 42.068 101.191 47.537 94.509"/><path class="cls-4" d="M57.711,65.718s8.394,2.551,14.626.121,5.469-9.232,5.469-9.232"/><path class="cls-4" d="M95.483,63.167s4.706,2.308,8.013.364,4.578-7.167,4.578-7.167"/><path class="cls-4" d="M87.308,71.734c1.21.294,4.946-1.2,5.573-1.543,4.828-2.668,5.362-4.649,6.057-5.848"/><path class="cls-4" d="M97.621,72.663A14.222,14.222,0,0,0,108.1,70.138a12.98,12.98,0,0,0,5.217-9.045"/><path class="cls-4" d="M115.314,68.3c.988.234,5.885-.778,9.76-4.542,1.422-1.38,1.866-3.509,2.038-5.454"/><path class="cls-4" d="M43.914,60.839a20.288,20.288,0,0,0,8.07,1.721,10.523,10.523,0,0,0,2.876-.166,8.653,8.653,0,0,0,2.556-1.048c5.456-3.364,5.856-6.606,6.9-8.568"/><path class="cls-4" d="M60.129,51.817c2.979.688,4.592,1.235,7.657,1.25a29.032,29.032,0,0,0,5.227-.545c2.769-.7,5-2.6,7.112-4.448"/></svg>