<svg id="word" xmlns="http://www.w3.org/2000/svg" xmlns:xlink="http://www.w3.org/1999/xlink" viewBox="0 0 160 160"><defs><style>.cls-1{fill:none;}.cls-2{clip-path:url(#clip-path);}.cls-3{fill:#fde6d8;}.cls-3,.cls-4,.cls-5{stroke:#9d4b9c;stroke-width:1.004px;}.cls-3,.cls-4,.cls-6,.cls-7,.cls-8,.cls-9{stroke-miterlimit:10;}.cls-4{fill:#0069b4;}.cls-5,.cls-7{fill:#fff;}.cls-6{fill:#ea2127;}.cls-6,.cls-7,.cls-8,.cls-9{stroke:#9c4c9c;stroke-width:0.709px;}.cls-8{fill:#fde0ce;}.cls-9{fill:#d29da0;}</style><clipPath id="clip-path"><rect class="cls-1" x="14" y="-196" width="132" height="132"/></clipPath></defs><g class="cls-2"><path class="cls-3" d="M64.547-44.761,23.469-6.239,32.6,1.429S49.029-4.778,55.236-9.16,70.389-28.147,82.074-26.869C84.838-26.567,64.547-44.761,64.547-44.761Z"/><path class="cls-4" d="M34.058,2.524S28.946-9.16,24.2-8.43s-4.382,5.112-9.129,5.477S2.133-4.884-.995-6.969C-7.02-10.986-9.758-5.691-9.758-5.691L4.482,8S23.469,9.462,26.025,9.462,34.058,2.524,34.058,2.524Z"/><path class="cls-5" d="M7.768,5.993S-3.186-6.422-5.742-6.422-11.4-7.7-10.671-2.4,1.561,15.122,1.561,15.122l9.676-4.017Z"/><path class="cls-4" d="M35.884,1.611s-2.739,10.772-5.842,14.058a39.688,39.688,0,0,0-5.66,8.764L7.221,11.288,1.2,16.034,1.379,9.1S1.926.151,24.93,7.271c1.654.512,9.493-5.66,9.493-5.66S36.432-.4,35.884,1.611Z"/><path class="cls-5" d="M24.2,22.607S15.436,11.288,12.15,10.192,4.117,8.367,1.926,12.748s1.1,6.573,4.382,7.3S16.9,26.258,18.357,26.258,24.565,26.623,24.2,22.607Z"/></g><polygon class="cls-6" points="68.538 89.323 52.219 97.489 56.985 129.888 76.353 126.459 80.745 104.943 78.213 90.22 68.538 89.323"/><path class="cls-6" d="M103.6,30.2A18.8,18.8,0,0,0,92.474,17.478c-9.414-3.926-22.592-6.185-27.845-6.033s-11.971,6.72-14.342,13.764-6.254,4.638-13.068,15.073S26.748,51.46,32.035,62.191s-2.242,12.5-2.242,12.5a44.407,44.407,0,0,0,11.586-6.544c13.2-10.082,2.121-17.5,11.309-25.855S84.775,27.351,88.269,26.958,103.6,30.2,103.6,30.2Z"/><path class="cls-7" d="M28.318,68.41s7.224-5.7,13.859,1.946c3.838,4.421-.569,11.584-4.207,14.66S18.112,81.54,28.318,68.41Z"/><path class="cls-7" d="M59.9,60.718a12.36,12.36,0,0,1,.1,7.827c-1.311,4.633.019,6.077,0,6.528s2.742-1.89,2.742-1.89a33.68,33.68,0,0,1,.319,5.967c-.19,2.444,3.095,3.174,3.095,3.174a21.892,21.892,0,0,0-1,5.558c.127,1.883,3.114,9.251,3.114,9.251L70.5,85.191s2.905,5.618,1.917,8.2a91.742,91.742,0,0,0-2.7,10.036c-.536,2.422,7.224-10.647,7.224-10.647s-7.111,8.974-5.84,17.265,2.949,16.285,3.127,16.814,1.989-12.151,1.989-12.151a92.857,92.857,0,0,0,3.012,11.958c1.574,4.174,2.8-8.737,2.8-8.737s-.04,12.924,4.792,17.245,2.847-12.612,2.313-14.2,6.088,9.056,7.58,11.479-.665-16.524-.665-16.524a12.8,12.8,0,0,1,2.781,6.256c.271,3.314,2.089,10.218,5.184,13.392s12.857,6.588,13.336,7.007-3.223-5.057-3.689-8.448,5.356,4.872,5.356,4.872,2.627-6.745,1.2-10.974,1.561,7.146,1.561,7.146,5.237-2.5,4.188-10.134,3.5,4.364,3.5,4.364,4.194-11.62,3.163-19.7,2.315,2.865,2.315,2.865S146.323,99.229,141,90.933a83.557,83.557,0,0,0-10.141-13.068l14.221,7.129s-4.841-9.363-9.368-11.273,3.989-2.2,3.989-2.2-1.235-2.665-6.91-2.969.453-4.172.453-4.172a19.885,19.885,0,0,0-12.52-1.072c-7.035,1.676-3.171-6.41-3.7-8s-4.843-5.356-5.934-6.59S105.3,38.073,105.3,38.073L61.673,52.948l-1.218,7.419Z"/><path class="cls-8" d="M102.307,39.865s.165,7.21,3.078,9.624,7.356,6.01,6.482,9.174S92.64,75.475,86.359,76.976s-8.022,5.454-11.07.718.037-9.97-.533-11.184S68.706,57.179,68.33,55.1,102.307,39.865,102.307,39.865Z"/><path class="cls-8" d="M83.376,64.4c-1.127-.153-2.039-1.141-3.182-1.053A2.4,2.4,0,0,0,78.319,64.8a4.753,4.753,0,0,0-.288,2.4"/><path class="cls-8" d="M102.763,53.53a6.114,6.114,0,0,0-2.277-.252,2.851,2.851,0,0,0-2,1.085,4.239,4.239,0,0,0-.438,2.876"/><path class="cls-8" d="M101.79,75.772s.849,3.483-2.461,4.691a8.121,8.121,0,0,1-6.322-.539,8.151,8.151,0,0,0,2.908,3.839c2.055,1.3,3.874,1.906,6.136-.974S101.79,75.772,101.79,75.772Z"/><path class="cls-7" d="M42.5,95.5l-5.3-4.23s2.93-1.858,4.748-1.257-4.161-1.8-4.161-1.8a8.22,8.22,0,0,1,6.083.309c2.773,1.518-1.379-2.657-1.379-2.657s6.083.309,8.9,2.442-3-4.12-3-4.12,5.972,4.3,6.4,5.568-.174-4.836-.174-4.836,5.237,8.837,5.041,10.173.783-4.4.783-4.4,4.522,7.675,3.552,11.032,3.273-4.2,3.273-4.2.3,9.532-1.485,12.87.121,6.119.5,7.245-3.925-1.1-3.925-1.1l2.973,12.192-3.689.081s1.381,2.183-.981,6.206-1.668-2.553-1.668-2.553-5.541,8.5-6.982,9.5.841-7.1.841-7.1-6.961,3.8-8.639,4.1,1.552-4.992,1.552-4.992a51,51,0,0,1-7.337,1.728c-2.06.119,2.458-3.741,2.458-3.741L32.6,128.509l9.833-15.915-3.25-14.935Z"/><path class="cls-6" d="M47.947,103.292s5.313,4.827,2.93,11.446-4.163,7.494-9.435,9.981-6.634.841-8.387,3.51-2.136,4.613-7.909,3.9-10.8-9.816-10.171-13.089,1.409-11.225,5.1-12.573,8.455-3.31,8.455-3.31-8.945-2.6-3.877-5.35,11.051-3.129,12.855-1.194S47.947,103.292,47.947,103.292Z"/><path class="cls-7" d="M90.732,21.8s.217-.067.585-.175c1.9-.561,7.834-2.243,8.956-1.725a8.3,8.3,0,0,0,2.345.725L96.1,22.375s8.581-1.392,10.062-.351-4.176,2-4.176,2,8.934,6.856,9.315,7.507-5.843-.555-6.368-1.154,6.866,8.875,6.866,8.875a34.988,34.988,0,0,0-4.877-2.488c-1.436-.425-.055,1.758-.113,4.466s-.247,2.145-1.155,1.37-2.218,3.97-2.218,3.97-1.752-5.683-2.528-3.187-3.608,4.161-5.195,5.688-1.769-.935-1.769-.935S87.31,52.921,86.4,53.57,87.944,50,87.944,50s-6.629,4.788-8.746,7.141S78.005,56,78.005,56l-3.656,4.02-4.358-.465,1.428,2.324s-3.926-.623-6.8-1-.969,2.882-.969,2.882a18.425,18.425,0,0,1-4.774-4.58c-1.906-2.782-.632,2.443-.632,2.443s-3.979.661-5.067-3.051-2.915-1.94-2.68-.761-2.234-4.717-.976-8.179-6.915,4.419-6.915,4.419,5.06-8.009,8.037-9.727-7.05,2.1-7.05,2.1a15.764,15.764,0,0,1,7.638-5.631c5.325-1.942-1.283-2.851-1.283-2.851a60.509,60.509,0,0,1,9.164-3.5c3.308-.732.06-3.182-.611-3.254s9.581.14,12.316-.857-.7-4.485-.7-4.485l6.268,2.3L80,22.082l-.733,4.061,10.181-6.717-4.188,5.321,9.7-7.175Z"/><path class="cls-9" d="M94.713,73.849l-2.035,6.195a6.066,6.066,0,0,0,6.651.419c3.536-2.08,2.538-4.324,2.538-4.324Z"/><path class="cls-7" d="M93.241,68.618s2.341,1.674,2.285,3.907-.448,4.431-1.6,5.8-2.5,3.125-2.5,3.125a1.851,1.851,0,0,0-1.392.666c-.721.737-.045-.616-1.439.525s-4.607,2.155-6.334,2.785,1.251-1.563-3.159-.745-3.828-1.29-6.8-1-3.535-2.82-4.539-3.4-2.9-5.263-2.9-5.263,4.782,2.206,6.364,2.1,5.52-2.8,6.385-3.593,3.461-3.159,5.811-3.858S93.241,68.618,93.241,68.618Z"/><path class="cls-7" d="M93.383,67.934s-.825,2.829.558,4.537,3.006,3.171,4.73,3.491,3.829.815,3.829.815a1.841,1.841,0,0,1,1.487-.384c1.006.107-.333-.51,1.439-.525s4.892-1.31,6.619-1.94-1.915-.408,2.022-2.634,2.217-3.495,4.714-5.2,1.071-4.5,1.506-5.607-.887-6-.887-6-2.414,4.832-3.711,5.779-5.994,1.4-7.143,1.342-4.6-.22-6.854.761S93.383,67.934,93.383,67.934Z"/><path class="cls-8" d="M95.293,59.319a2.459,2.459,0,0,1,1.665,1.6c1.036-.267,2.339-.062,2.748.891a2.732,2.732,0,0,1-.622,2.5,3.635,3.635,0,0,1-2.606,1.812,2.57,2.57,0,0,0-.8.054c-.426.152-.64.614-.91.977a5.4,5.4,0,0,1-2.339,1.527,15.784,15.784,0,0,1-3.886,1.268,1.448,1.448,0,0,0-.688.209,2.528,2.528,0,0,0-.357.407,1.763,1.763,0,0,1-2.7-.343,3,3,0,0,1,.232-3.014,1.658,1.658,0,0,0,.285-.63,1.616,1.616,0,0,0-.06-.507A5.3,5.3,0,0,1,86.925,61.5a9.219,9.219,0,0,1,6.863-2.882"/></svg>