<svg id="word" xmlns="http://www.w3.org/2000/svg" viewBox="0 0 160 160"><defs><style>.cls-1{fill:#fff;opacity:0.25;}.cls-1,.cls-2,.cls-3,.cls-4,.cls-6{stroke:#9d4b9c;stroke-miterlimit:10;stroke-width:0.75px;}.cls-2{fill:#9cbae1;}.cls-3{fill:#5980c0;}.cls-4{fill:#d5e7b7;}.cls-5{fill:#c3d4a8;}.cls-6{fill:none;}</style></defs><path class="cls-1" d="M61.617,64.122c1.633-1.2,3.716-1.339,5.63-1.868s3.956-1.8,4.262-3.9a3.515,3.515,0,0,0-1.393-3.324,2.975,2.975,0,0,0-3.386.047,4.033,4.033,0,0,0-1.87-4.413,3.48,3.48,0,0,0-4.373,1.162A4.5,4.5,0,0,0,55.458,48.1a4.808,4.808,0,0,0-3.414,5.448,3.552,3.552,0,0,0-6,.108c-1.255,1.918-.2,3.548.67,5.375,2.121,4.443,2.569,11.922-3.986,11.922a6.311,6.311,0,0,1,0-12.573,5.337,5.337,0,0,1,2.625.692"/><path class="cls-2" d="M116.153,100.028s-4.5,5.1-4.63,7.658a2.845,2.845,0,0,1-4,2.694c-1.626-.709-3.253-9.359-3.253-9.359Z"/><path class="cls-2" d="M46.442,98.339s4.741,5.105,4.873,7.658a2.987,2.987,0,0,0,4.215,2.695c1.712-.71,3.424-9.36,3.424-9.36Z"/><path class="cls-3" d="M52.237,61.468s-8.429,14.607-8.956,17.3-3.161,6.523-.527,9.927,30.161,5.247,39.38,5.956,39.643-1.843,40.17-4.822-6.849-23.824-6.849-24.391-1.617-6.308-18.348-6.12C82.883,59.478,59.481,55.228,52.237,61.468Z"/><path class="cls-2" d="M39.247,87.467s-1.366,7.611,1.8,10.305,17.912,2.836,26.473,3.262,43.594,2.127,49.257-.851S125.6,96.5,125.2,92.1s-6.19-16.733-6.19-16.733S122.469,88,120.855,89.547c-5.275,5.051-39.116,3.4-45.043,3.4s-25.8-1.324-29.246-3.794c-3.66-2.628-2.788-10.884-2.788-10.884Z"/><path class="cls-4" d="M44.126,73.393s-1.045,3.94,4.88,10.884,25.445,8.444,35.03,8.632,30.15.563,33.461-6.568,6.274-17.827-1.742-24.958-23.179-5.63-30.5-4.128-16.9-3.941-25.445-2.815S42.558,62.884,44.126,73.393Z"/><path class="cls-1" d="M59.168,87.783a6.844,6.844,0,0,0-1.347,6.5,5.552,5.552,0,0,0,4.941,3.879,4.226,4.226,0,0,0,3.407-1.59,5.343,5.343,0,0,0,.984-2.734C67.6,89.254,63.237,83.206,59.168,87.783Z"/><path class="cls-1" d="M45.35,81.475a3.626,3.626,0,0,0-.029,2.862A2.5,2.5,0,0,0,47.5,85.871,3.09,3.09,0,0,0,50.137,83.5c.483-1.569.691-3.644-.923-4.192C47.774,78.819,45.931,80.123,45.35,81.475Z"/><path class="cls-1" d="M81.727,59.407c-1.255-.88-1.239-3.018-.314-4.287a3.018,3.018,0,0,1,2.425-1.336,2.232,2.232,0,0,1,2.078,1.723c.218,1.059.19,2.479-.66,3.061s-2.482.439-3.477.611"/><path class="cls-1" d="M44.994,73.369a4.288,4.288,0,0,0-3.348-.574,3.206,3.206,0,0,0-2.27,2.554,2.841,2.841,0,0,0,5.418,1.586,3.764,3.764,0,0,0,.131-3.061"/><path class="cls-5" d="M102.013,60.033a5.747,5.747,0,0,1,5.123,2.371,6.783,6.783,0,0,1,.919,5.921,8.1,8.1,0,0,1-4.733,4.787,20.554,20.554,0,0,1-6.585,1.193,224.351,224.351,0,0,1-28.393.145c-3.09-.19-6.254-.473-9.063-1.872a9.708,9.708,0,0,1-5.538-7.462c-.3-3.317,2.166-6.893,5.26-6.774,0,0-5.117,5.293-1.457,8.858s28.93,6.38,36.947,5.254,9.934-3.753,9.585-6.567A18.922,18.922,0,0,0,102.013,60.033Z"/><path class="cls-6" d="M58.654,57.967c-3.093-.12-5.561,3.457-5.259,6.774A9.706,9.706,0,0,0,58.932,72.2c2.81,1.4,5.973,1.682,9.064,1.872a224.15,224.15,0,0,0,28.392-.146,20.548,20.548,0,0,0,6.585-1.192,8.1,8.1,0,0,0,4.733-4.787,6.779,6.779,0,0,0-.919-5.922,5.745,5.745,0,0,0-5.122-2.371"/></svg>