<svg id="word" xmlns="http://www.w3.org/2000/svg" viewBox="0 0 160 160"><defs><style>.cls-1{fill:#bbb1b8;}.cls-1,.cls-2,.cls-3,.cls-4,.cls-5,.cls-6{stroke:#9c4c9c;stroke-width:0.493px;}.cls-2{fill:#fffbe3;}.cls-3{fill:#a29aa1;}.cls-4{fill:#fff;}.cls-5{fill:none;}.cls-6{fill:#231f20;}</style></defs><path class="cls-1" d="M141.53,50.648s1.377-.115,2.572,6.183,3.308,10.421,5.053,15,5.143,7.329,5.512,7.329-.276,1.488-2.756-.687-6.616-8.933-8.453-13.741-3.491-8.245-3.491-8.932A48.1,48.1,0,0,1,141.53,50.648Z"/><path class="cls-1" d="M153.564,77.787A11.85,11.85,0,0,0,159.2,79.5a7.124,7.124,0,0,1-3.616.6,6.043,6.043,0,0,1,3.216,1.192,9.106,9.106,0,0,0-1.63-.186c.073,0,.148,0,.224,0,.734.45.926,1.046,1.541,1.613a6.01,6.01,0,0,1-1.307.009,11.934,11.934,0,0,1,.938.879c-2.353.212-6.443-2.517-5.739-5.819"/><path class="cls-2" d="M17.7,72.03a69.211,69.211,0,0,1-4.631,6.008c-2.25,2.515-7.41,6.708-9.263,7.267s-1.059,2.236.926,1.817S17.3,80.415,17.3,80.415Z"/><path class="cls-3" d="M139.967,71.331s1.984,19.984,2.116,22.779.53,5.59,2.118,7.267,3.574,8.662,3.706,12.435-.531,5.592.662,7.548a8.389,8.389,0,0,1,.925,6.288,3.866,3.866,0,0,1-3.97,3.075c-2.381,0-3.043,1.117-7.012.559s-6.484.419-6.618-2.237,1.589-3.911,2.516-5.869a10.818,10.818,0,0,0,.925-5.03c0-1.4-.661-2.8-1.72-5.032S127,99.7,127,99.7l9.66-23.2Z"/><path class="cls-3" d="M70.23,91.594s0,21.941-.794,25.993-1.059,17.328-1.059,17.328-7.676,2.1-10.057,1.678-6.352.138-7.411-1.538-.131-3.773,1.191-6.986,5.028-10.622,5.162-13,1.455-25.993,1.455-25.993Z"/><path class="cls-4" d="M27.488,51.487s.4-2.375,2.514-2.1a1.845,1.845,0,0,1,1.719,2.235S27.488,51.907,27.488,51.487Z"/><path class="cls-5" d="M84.521,43.522C86.566,51.1,88.14,54.259,85.58,62.247"/><path class="cls-5" d="M121.838,62.946c-8.163,5.839-5.847,18.026-7.409,26.691"/><path class="cls-5" d="M82.007,69.374c.286,5.342.029,10.323-3.838,13.7"/><path class="cls-5" d="M16.9,66.44A9.5,9.5,0,0,0,21.533,69.1"/><path class="cls-5" d="M16.239,69.934c.737,2.107,2.56,2.905,4.9,2.794"/><path class="cls-1" d="M47.733,60.711s3.176,6.986,4.235,10.2a46.126,46.126,0,0,0,3.7,7.547s-.925,17.188-1.719,19-.266,8.105-.266,9.363a87.087,87.087,0,0,0,1.985,10.9c.53,1.537.927,5.589,2.117,7.825s3.7,7.407,3.7,8.524,1.985,4.194,4.5,4.054,7.145-4.054,7.809-6.569.926-7.825-.265-9.5-5.558-5.309-5.558-5.309l-2.117-11.6a25.081,25.081,0,0,0,3.308-3.772C70.76,99.14,74.2,88.1,75.258,86.563a36.736,36.736,0,0,1,2.911-3.494,25.068,25.068,0,0,0,16.674,8.944,62.487,62.487,0,0,0,19.32-1.258s-.53,6.568-1.192,8.385a81.931,81.931,0,0,0-2.911,12.017c-.4,3.355.4,5.032-.263,6.57s-3.97,9.082-3.97,9.082-2.779,3.774-2.516,5.171,3.838,4.193,7.808,4.473,8.734-.98,9.4-2.377,1.588-4.89,1.323-5.591-.794-3.073-.794-3.073,3.838-11.32,5.028-14.673,2.515-6.568,3.045-7.825,6.614-14.674,9.527-21.8,3.175-6.707,3.969-14.114a139.7,139.7,0,0,0,.794-13.975c0-.559-10.057-17.049-16.144-21.941s-8.867-5.869-12.834-5.869-10.191,1.958-14.557,2.8-9.264,2.235-11.909.7-8.6-2.795-12.175-2.935-11.91,2.236-11.91,2.236L57.128,33.6Z"/><path class="cls-1" d="M48.95,29.633s-12.968-1.119-16.277-.28-7.013,4.192-9,10.2a33.707,33.707,0,0,0-2.513,7.686c-.795,4.192-5.03,19.844-4.9,22.639s-.53,25.572-.53,31.163.663,25.852,3.176,28.926,3.574,3.214,5.823,3.354,4.9-2.094,3.7-3.074-2.117-.28-1.853-1.537.927-1.957-.4-2.1a2.6,2.6,0,0,1-2.118-1.4c-.4-.559-.264-26.691.4-33.819s1.587-13.973,2.117-14.393,1.854-2.8,4.1-3.214,4.1-2.376,5.028-3.773,4.763-3.074,5.557-3.214,6.089-3.494,8.2-2.1c0,0,11.514-9.082,15.353-18.027s-.664-18.167-4.237-18.167S48.95,29.633,48.95,29.633Z"/><path class="cls-1" d="M43.632,55.4a89.077,89.077,0,0,1,1.322,9.642c0,2.516.8,7.128,5.692,4.193s8.071-6.987,9.792-7.406a16.309,16.309,0,0,0,7.939-4.612,33.256,33.256,0,0,0,4.1-5.45c1.851-2.655,2.513-3.075,2.513-4.751s.661-.979,1.589-4.193,1.324-6.427-.132-8.244-3.441-7.685-5.03-7.826.925-1.677-3.573-1.677-13.629,2.236-16.408,2.516-6.748,2.514-6.616,4.75A29.476,29.476,0,0,1,43.5,41.564"/><path class="cls-2" d="M26.3,67.557s1.324-.558,2.118,1.4,1.72,3.494.265,5.591-3.309,4.471-8.867,8.663-9.61,7.27-11.248,7.965c-4.763,2.026-4.632.7-4.632.7a41.486,41.486,0,0,0,6.75-5.031c2.514-2.515,7.542-9.5,10.057-12.577S26.3,67.557,26.3,67.557Z"/><path class="cls-6" d="M30.707,50.437a1.171,1.171,0,1,1-1.169-1.086A1.131,1.131,0,0,1,30.707,50.437Z"/><path class="cls-5" d="M16.306,73.5a4.274,4.274,0,0,0,3.175,1.258"/><path class="cls-5" d="M17.43,63.294c1.422,1.89,3.893,1.857,5.756,3.005"/><path class="cls-5" d="M29.472,71.819c4.053-1.649,6.072-2.889,7.411-7.546"/><path class="cls-1" d="M27.223,50.508A5.013,5.013,0,0,1,28.811,48.9a3.223,3.223,0,0,1,2.91.42c.993.629.068,1.816.068,1.816s-.4-.977-.993-1.117A19.511,19.511,0,0,0,27.223,50.508Z"/><path class="cls-5" d="M61.5,134.075c2.672-1.1,6.561-1.284,6.749,2.831"/><path class="cls-5" d="M104.867,128.522c2.977.807,3.754,3.967,2.183,6.6"/><path class="cls-5" d="M66.558,133.865c1.4-1.64,4.306-2.4,6.054-.418"/><path class="cls-5" d="M107.844,131.978c1.663.706,3.473,1.893,3.077,4.194"/><path class="cls-5" d="M71.023,132.084c.246-1.657,1.249-2.815,2.878-2.62"/><path class="cls-5" d="M51.372,129.779c2.854.113,3.973,3.824,3.573,6.5"/><path class="cls-5" d="M110.424,133.865c2.193-.329,4.439-.4,4.268,2.412"/><path class="cls-5" d="M133.449,125.063a3.9,3.9,0,0,1,2.878,5.763"/><path class="cls-5" d="M54.449,132.295a3.691,3.691,0,0,1,3.573,3.982"/><path class="cls-5" d="M136.427,127.472c3.374-.083,5.414-.74,4.963,3.774"/><path class="cls-5" d="M57.823,134.181c2.074-2.929,3.476.037,3.474,2.41"/><path class="cls-5" d="M141.092,128.73c2.466-2.221,3.871-.35,4.564,1.991"/></svg>