<svg id="word" xmlns="http://www.w3.org/2000/svg" viewBox="0 0 160 160"><defs><style>.cls-1{fill:#fde1d3;}.cls-1,.cls-10,.cls-11,.cls-12,.cls-13,.cls-14,.cls-2,.cls-3,.cls-4,.cls-5,.cls-6,.cls-7,.cls-9{stroke:#9c4c9c;stroke-width:0.61px;}.cls-2{fill:#d5dd26;}.cls-3{fill:#d781b5;}.cls-4{fill:#fff;}.cls-5{fill:#a5def8;}.cls-11,.cls-6{fill:none;}.cls-7{fill:#ec509a;}.cls-8{fill:#9c4c9c;}.cls-9{fill:#fcded0;}.cls-10,.cls-11,.cls-9{stroke-miterlimit:10;}.cls-10{fill:#684239;}.cls-11{stroke-linecap:round;}.cls-12{fill:#8cd5f6;}.cls-13{fill:#9b9c9f;}.cls-14{fill:#7e7e80;}</style></defs><path class="cls-1" d="M119.712,74.32s5.764-11.894,6.946-13.963,4.139-7.686,4.139-7.686l8.277,1.626s-9.46,23.648-10.346,27.491-2.956,6.5-3.548,5.173-5.468-9.755-5.468-9.755Z"/><path class="cls-2" d="M126.314,57.616l-2.464,5.129a4.524,4.524,0,0,0,3.545,3.031c3.057.789,9.363,1.735,9.363,1.735l1.188-9.42Z"/><path class="cls-1" d="M68.572,52.671V62.745s4.616,8.7,7.555,8.845,5.67-2.043,5.664-3.077.981-11.279.981-11.279Z"/><path class="cls-3" d="M65.911,62.165l9.164,6.93,4.878.278,3.355-.278,4-.757s2.335,12.416,5.251,20.249,5.871,37.542,5.871,37.542H76.4l-5.762-34.29L64.285,69.1Z"/><path class="cls-4" d="M93.033,66.565a5.8,5.8,0,0,1,.85-.03,5.415,5.415,0,0,1,4.249,1.951c1.774,2.365,7.243,5.164,7.686,5.834s4.286,1.7,4.286,1.7,3.252.591,4.139,0a9.972,9.972,0,0,1,3.4-.739l6.208,15.963s-6.355,6.207-11.085,3.4-15.771-7.686-15.771-7.686L93.369,66.52Z"/><path class="cls-4" d="M89.12,64.939l5.911,1.122s5.394,30.4,3.432,48.056c-.582,5.243,5.779,12.012,5.779,12.012s-11.563.455-11.685-.148c-.735-3.621,1.518-19.947,0-29.483s-9.944-29.047-9.944-29.047l3.1-2.512Z"/><path class="cls-4" d="M66.5,64.939s5.025,3.1,7.685,15.076,8.425,46.279,8.425,46.279L60.3,125.53s3.251-8.712,2.956-15.659-6.714-14.879-6.714-14.879l-.381-26.949a9.948,9.948,0,0,0,4.582-1.478A14.319,14.319,0,0,1,66.5,64.939Z"/><path class="cls-4" d="M118.086,71.66s-1.922-.957-2.217,1.112-2.513-.3-3.1,0-1.895,1.33-1.774,2.365-1.921,6.356-.3,10.346-.357,7.149,3.369,9.709,6.139,1.734,6.533,0a3.112,3.112,0,0,1,1.584-2.233s2.112.949,3-.972,1.183-2.661,1.774-3.695.044-2.09.4-2.789-1.431-.167-3.5-3.715-4.138-10.349-4.138-10.349Z"/><path class="cls-5" d="M136.049,43.85V21.74l-4.867.688V43.85a9.335,9.335,0,0,0-7.6,8.843c0,5.033,4.494,9.114,10.039,9.114s10.039-4.081,10.039-9.114A9.334,9.334,0,0,0,136.049,43.85Z"/><path class="cls-5" d="M136.27,22c0,.808-1.19,1.462-2.658,1.462s-2.658-.654-2.658-1.462,1.19-1.461,2.658-1.461S136.27,21.191,136.27,22Z"/><path class="cls-6" d="M135.011,50.486a.611.611,0,1,1-.609-.659A.635.635,0,0,1,135.011,50.486Z"/><path class="cls-6" d="M134.1,45.557a.536.536,0,1,1-.532-.6A.57.57,0,0,1,134.1,45.557Z"/><path class="cls-6" d="M133.845,41.257a.486.486,0,1,1-.483-.544A.517.517,0,0,1,133.845,41.257Z"/><path class="cls-6" d="M134.706,32.89a.434.434,0,1,1-.431-.489A.462.462,0,0,1,134.706,32.89Z"/><path class="cls-6" d="M131.36,49.139a.715.715,0,1,1-.71-.8A.76.76,0,0,1,131.36,49.139Z"/><path class="cls-6" d="M134.452,46.9a1.941,1.941,0,1,1-1.926-2.177A2.063,2.063,0,0,1,134.452,46.9Z"/><path class="cls-6" d="M137.647,47.993a.818.818,0,1,1-.811-.917A.868.868,0,0,1,137.647,47.993Z"/><path class="cls-6" d="M135.568,42.749a.588.588,0,1,1-.583-.661A.625.625,0,0,1,135.568,42.749Z"/><path class="cls-6" d="M135.669,35.841a.919.919,0,1,1-.912-1.032A.976.976,0,0,1,135.669,35.841Z"/><path class="cls-6" d="M134.2,37.1a.664.664,0,1,1-.66-.746A.706.706,0,0,1,134.2,37.1Z"/><path class="cls-6" d="M135.771,29.134a1.124,1.124,0,1,1-1.115-1.26A1.194,1.194,0,0,1,135.771,29.134Z"/><path class="cls-6" d="M134.25,31.57a.588.588,0,1,1-.583-.658A.625.625,0,0,1,134.25,31.57Z"/><path class="cls-7" d="M124.013,53.388a12.892,12.892,0,0,0,3.384.289,11.881,11.881,0,0,1,2.954-.289c.859.122,3.214,1.579,4.051,1.64s2.109-.928,3.245-1.314,2.049-.994,2.854-.933,2.632,0,2.632,0a19.085,19.085,0,0,1-1.4,4.315,10.867,10.867,0,0,1-7.64,3.947c-3.976.03-6.7-1.458-8.043-3.218A14.723,14.723,0,0,1,124.013,53.388Z"/><path class="cls-2" d="M141.291,35.607s-3.35-1.066-5.42-.475-4.138-.059-2.956,1.892,4.533,1.162,5.715.867,2.661.331,2.661-.278S142.458,35.912,141.291,35.607Z"/><path class="cls-2" d="M142.473,38.7s-2.338-1.511-3.4-1.089-3.4,1.729-4.385,2.235-2.66,1.762-1.182,2.464,1.484,1.269,4.191,0,4.578-1.569,4.775-2.01A4.187,4.187,0,0,0,142.473,38.7Z"/><path class="cls-2" d="M143.36,42.312a5.626,5.626,0,0,0-3.547-.658c-1.607.431-5.912,2.642-5.617,3.923s2.464,1.182,4.878.394a16.463,16.463,0,0,0,4.68-2.4C143.853,43.409,144.591,42.82,143.36,42.312Z"/><path class="cls-2" d="M145.232,44.319s-5.419,1.635-6.158,2.235-2.119,2.161,0,3.326c.539.3,1.111-.49,3.487-1.165S146.71,45.064,145.232,44.319Z"/><path class="cls-2" d="M128.326,42.963s-4.254,1.313-3.08,2.861,1.095-.062,2.208,1.582,1.245,4.224,2.926,3.207S131.584,43.891,128.326,42.963Z"/><path class="cls-3" d="M67.537,57.105s-3.252,1.815-3.252,3.178c0,2.882-2.438,5.173-2.438,5.173l5.69,10.568s-.305-1.068,3.88-3.207S78.548,69.1,78.548,69.1s-5.712-2.53-6.736-3.565-3.24-8.942-3.24-8.942Z"/><path class="cls-3" d="M82.526,59.931l-.948,8.555-1.625.887s4.434,1.913,5.764,2.287,3.357,4.364,3.357,4.364.105-3.7,0-5.025-1.288-8.254-1.288-8.254Z"/><path class="cls-6" d="M79.355,69.464A9.473,9.473,0,0,1,80.476,72.5a78.833,78.833,0,0,0,2.6,8.375c.489,1.309,1.013,2.608,1.385,3.955a40.781,40.781,0,0,1,.991,5.844c.581,4.63,1.337,9.287.966,13.939"/><ellipse class="cls-8" cx="79.953" cy="74.176" rx="0.779" ry="1.035" transform="translate(-16.982 24.194) rotate(-15.577)"/><ellipse class="cls-8" cx="82.937" cy="84.128" rx="0.779" ry="1.035" transform="translate(-19.544 25.36) rotate(-15.577)"/><ellipse class="cls-8" cx="84.221" cy="94.147" rx="0.779" ry="1.035" transform="translate(-22.188 26.073) rotate(-15.577)"/><path class="cls-6" d="M115.62,73.412a19.293,19.293,0,0,0,2.033,12.065"/><path class="cls-6" d="M121.493,93.129c-2.835-1.769-5.989-5.244-6.583-8.533"/><path class="cls-9" d="M82.22,24.218s4.581,7.929,5.73,11.017,2.1,14.085-1.4,18.665-3.216,5.636-7.836,5.394-11.2-2.883-12.992-4.675-10.214-13.532-10.5-16.99S58.8,27.24,61.35,25.637s11.6-9.558,15.2-7.516A16.538,16.538,0,0,1,82.22,24.218Z"/><path class="cls-10" d="M72.377,11.011s-8.532-4.153-18.4,2.949c-3.583,2.578-11,5.381-10.677,15.3s-.7,14.307,5.92,21.432S62.486,60.6,63.8,60.894,72.241,62.4,72.241,62.4,67.163,55.2,65.87,52.17,60,35.247,63.813,31.4,78.56,20.839,78.56,20.839s7.937,7.052,9.8,15.873c2.438,11.554-1.639,15.1-1.085,16.041s5.122-5.419,5.794-10.33c.908-6.638-.139-18.335-5.984-24.373C84.106,14.973,79.091,6.778,72.377,11.011Z"/><path class="cls-11" d="M82.7,47.692a6.152,6.152,0,0,1-7.476,1.369"/><path class="cls-10" d="M72.377,11.011S79,16.9,78.277,21.983A27.5,27.5,0,0,1,75.056,31.2l.369-9.021s-2.274,9.494-3.782,10.479-4.886,3.452-4.886,3.452l4.27-9.154a56.99,56.99,0,0,1-7.439,9.315c-4.936,5.108-4.381,6.474-4.171,7.577s2.426,7.486,2.426,7.486a51.547,51.547,0,0,1-4.537-7.1C55.721,41,53.9,36.318,54.367,32.03s.837-8.2,6.4-11.938A133.663,133.663,0,0,0,72.377,11.011Z"/><path class="cls-12" d="M51.04,42.862l9.7-3.8s4.056-3.952,6.6-4.808,14.949-2.878,14.949-2.878l6.334-1.89s2.823,5.982,2.18,7.569-2.19,3.715-4.748,3.72-7.478-2.1-7.478-2.1-1.932.128-2.218,1.769,2.8,3.607-2.423,4.613-7.9,1.977-9.518.6-4.82-3.927-4.82-3.927l-6.142,2.26Z"/><path class="cls-4" d="M81.217,34.211s.329,3.372,2.7,3.488,1.886-2.126,1.905-2.877c.034-1.354-1.933-3.663-3.212-3.022A2.591,2.591,0,0,0,81.217,34.211Z"/><path class="cls-8" d="M82.577,35.478s.2,2.078,1.663,2.149,1.162-1.31,1.174-1.773c.021-.834-1.191-2.257-1.979-1.861A1.594,1.594,0,0,0,82.577,35.478Z"/><path class="cls-4" d="M69.225,37.989s.328,3.373,2.7,3.489,1.885-2.126,1.9-2.878c.034-1.354-1.933-3.663-3.212-3.021A2.587,2.587,0,0,0,69.225,37.989Z"/><path class="cls-8" d="M70.584,39.256s.2,2.079,1.664,2.15,1.162-1.31,1.173-1.773c.021-.834-1.191-2.257-1.979-1.862A1.6,1.6,0,0,0,70.584,39.256Z"/><path class="cls-11" d="M78.269,34.705s.639,4.05,1.5,5.535,1.253,2.246,1.707,2.88S80.786,44.8,80.4,44.582s-1.532.374-1.532.374"/><path class="cls-11" d="M79.355,33.189a9.42,9.42,0,0,1,1.569-2.476,8.109,8.109,0,0,1,3.036-1.761"/><path class="cls-11" d="M74.913,33.677a2.672,2.672,0,0,1-1.111-.022,8.156,8.156,0,0,0-4.6.71"/><path class="cls-4" d="M57.248,68.716a3.359,3.359,0,0,0-4-.287,7.8,7.8,0,0,0-2.753,3.265c-2.707,5.13-3.536,11-5.059,16.6-3.26,11.98-9.395,27.7-12.332,39.762a53.925,53.925,0,0,0,15.908,1.472c.655-.031,5.242,0,5.769-.394.483-.357-2.9-11.661-2.66-12.211,2.6-6,5.731-6.123,8.071-12.231a39.305,39.305,0,0,0,2.2-7.089,34.255,34.255,0,0,0-.236-11.04A101.267,101.267,0,0,0,58.263,70.1"/><path class="cls-13" d="M53.491,126.851l-.518-.048c-2.28-.212-11.4-1.061-12.963-1.233-1.792-.2-7.606.3-9.084,2.069s-7.784,6.011-7.686,8.277-1.576,2.957.444,4.139,8.7,2.562,13.539,3.153,15.085,2.069,17.154.887,3.153-3.055,5.617-6.405,2.66-4.927,2.562-6.6-.79-3.35-2.119-3.449S53.491,126.851,53.491,126.851Z"/><path class="cls-13" d="M48.183,109.041l-15.667-.69-8.08,4.927s-.788.985,0,1.379S49.6,115.741,49.6,115.741v-6.8Z"/><path class="cls-13" d="M43.883,96.428s8.573,11.036,9.263,12.317,0,13.6,0,18.032.306,9.558.306,9.558l4.423-3.1s1.38-21.53.789-24.289S49.6,96.33,49.6,96.33Z"/><path class="cls-13" d="M41.93,98.525s7.077,9.629,7.077,10.614V135.35l4.445.985s1.457-18.229,1.314-22.269a14.757,14.757,0,0,0-2.113-7.686c-.985-1.773-6.306-8.868-6.306-8.868Z"/><path class="cls-13" d="M22.058,78.175s1.332-1.358,2.143-.912a11.149,11.149,0,0,1,2.143,2.217,5.127,5.127,0,0,1,3.744.759c1.675,1.212,4.34,3.095,4.34,3.095l-7,2.748-5.669-5.2S19.5,79.332,22.058,78.175Z"/><path class="cls-14" d="M28.216,86.082l-6.158,6.405A12.834,12.834,0,0,0,30.187,98.2c5.813,1.38,13.5.394,16.16-.69A22.3,22.3,0,0,1,49.6,96.33l-.591-7.489S39.449,91.9,36.592,91.206,28.216,86.082,28.216,86.082Z"/><path class="cls-13" d="M37.971,81.944,27.428,86.082s-1.281,1.624,1.872,3.965,12.81,2.44,15.076,1.652A24.2,24.2,0,0,0,49.6,88.644Z"/><path class="cls-13" d="M29.66,85.206l-4.817-4.248H23.684l-3.351-3.6s-4.167,1.373-3.167,2.88a22.614,22.614,0,0,0,2.773,3.183,1.741,1.741,0,0,0-.394,1.773c.394.986,3.837,5.915,3.837,5.915Z"/><path class="cls-6" d="M19.983,83.336c.489-.337.5-1.089.946-1.485a1.87,1.87,0,0,1,.6-.318,4.055,4.055,0,0,1,2.005-.4"/></svg>