<svg id="word" xmlns="http://www.w3.org/2000/svg" viewBox="0 0 160 160"><defs><style>.cls-1{fill:#a39a57;}.cls-1,.cls-4{stroke:#9c4c9c;stroke-miterlimit:10;stroke-width:0.977px;}.cls-2{fill:#9c4c9c;}.cls-3{fill:#7e4c9c;}.cls-4{fill:none;}.cls-5{fill:#fff;}</style></defs><path class="cls-1" d="M73.853,94.254s-4.05,3.671-.125,9.616c1.452,2.2,9.21,4.362,13.635,2.147s7.788-5.5,6.827-8.306.919-6.046-4.826-6S76.2,89.91,73.853,94.254Z"/><path class="cls-1" d="M85.165,84.663s-6.074-.327-8.636,2.524-2.035,7.983-.283,9.076c3.838,2.392,10.111,2,11.477,1.107,3.709-2.42,4.311-4.625,4.15-6.788S91.047,84.14,85.165,84.663Z"/><path class="cls-2" d="M74.167,93.355l-4.105-4.667s-1.075.691-1.384.648-.7,1.767-1.525,2.541a25.543,25.543,0,0,1-5.305,3.475,15.264,15.264,0,0,1-3.111.568s-3.65,3.588-4.808,4.06a35.153,35.153,0,0,0-3.587,2.29c-.27.105-2.067.5-1.219.912s7.4-4.2,7.4-4.2,1.926-2.034,2.342-2a49.151,49.151,0,0,0,7.99-3.818c.84-.76,2.244-2.39,2.244-2.39s1.764,1.765,2.608,2.666a8.1,8.1,0,0,0,1.828,1.431Z"/><path class="cls-2" d="M73.238,95.541l-3.676-1.6s-.326-1.349-1.255-.695-.693,1.4-.927,1.693-3.622,4.9-5.086,5.38-2.751.615-3.033,1.587-2.082,5.61-3.553,6.557-3.885,4.108-3.547,4.479S54.8,110.6,54.8,110.6s4.345-5.534,4.6-6.267-.086-1.551.991-1.982a27.98,27.98,0,0,0,5.25-3.716c1-.978,2.948-3.12,2.948-3.12l4.294,1.106Z"/><path class="cls-2" d="M72.658,98.5a23.109,23.109,0,0,0-3.855-.554c-.563.137-.579,1-.736,1.738a21.887,21.887,0,0,1-2.111,5.811c-1.065,1.559-3.745,5.466-4.214,6.117l-2.852,3.964s-.728,1.489.824-.446,4.151-5,4.42-5.332,3.216-4.15,3.554-4.666,1.877-5.365,1.877-5.365l3.247.517Z"/><path class="cls-2" d="M72.812,101.718l-2.341-.22a.974.974,0,0,0-.43.937c.035.689.424,8.444.232,9.417s-2.344,8-2.344,8-.228,1.629.031,1.515.821-1.745.821-1.745l2.388-7.282s.853.3.742-.886-.4-8.249-.4-8.249l2.068.315Z"/><path class="cls-2" d="M81.124,87.4s-1.736-.608-2.529.33-1.011,1.444.366,2.015S81.557,88.078,81.124,87.4Z"/><path class="cls-2" d="M93.3,93.333a55.023,55.023,0,0,0,5.8-3.635c.768-.813,1.1-3.222,2.224-2.271a50.647,50.647,0,0,1,4.094,4.218c.749.893,3.888,3.294,4.315,3.783s1.617,8.151,1.333,8.283-.99-2.062-.99-2.062l-1.382-6.186a24.09,24.09,0,0,1-3.112-1.815c-.442-.461-3.692-3.927-4.255-3.8s-2.35,2.1-3.288,2.74-3.886,2.3-3.886,2.3Z"/><path class="cls-2" d="M94.415,96.527a24,24,0,0,0,4.267-1.142c1.222-.594,3.057-2.446,3.445-1.923a12.023,12.023,0,0,1,1.723,3.479,8.832,8.832,0,0,0,3.53,4.727c1.629.871,1.555-1.115,1.77.664s-.129,4.157.216,4.45,1.34,2.714.959,2.635-2.175-6.045-2.175-6.045-3.956-3.446-4.394-4.1-2.605-3.982-2.605-3.982a11.858,11.858,0,0,0-2.069,1.31c-.833.706-4.787,1.832-4.787,1.832Z"/><path class="cls-2" d="M93.513,99.866s5.675-1.914,6.434-1.162,3.051,7.993,3.65,8.23,1.2,6.182,1.288,6.742.09,4.5-.343,4.126-1.359-9.559-1.359-9.559-3.577-6.9-4.115-7.439-4.423-.024-4.423-.024L93.3,101.4Z"/><path class="cls-2" d="M91.9,103.057l1.4-1.662s1.339,1.405,2.026,2.2S98.5,107.8,98.5,107.8s1.345.019,1.3.967a13.046,13.046,0,0,1-.991,3.523,42.16,42.16,0,0,0-1.335,7.119c.043.69.595,4.361,1.116,4.852s-.211.663-.6.383-1.469-7.3-1.207-8.509,1.383-6.085.948-6.463S91.9,103.057,91.9,103.057Z"/><path class="cls-2" d="M77.964,90.507a8.325,8.325,0,0,0,2.577,2.218,5.582,5.582,0,0,0,3.177.544,6.06,6.06,0,0,0,1.612-.153,5.435,5.435,0,0,0,1.458-.692,34.6,34.6,0,0,1,3-1.847,29.274,29.274,0,0,1-2.557,2.471A5.258,5.258,0,0,1,85.594,94a6.448,6.448,0,0,1-1.87.242,11.569,11.569,0,0,1-1.829-.108,4.272,4.272,0,0,1-1.757-.768A5.815,5.815,0,0,1,77.964,90.507Z"/><path class="cls-3" d="M83.873,84.265a7.615,7.615,0,0,1,.352-.693,7.42,7.42,0,0,1,1.007-1.367,7.294,7.294,0,0,1,1.905-1.454,7.169,7.169,0,0,0-1.516,1.75,6.679,6.679,0,0,0-.644,1.409c-.121.381-.181.678-.181.678Z"/><path class="cls-3" d="M84.86,84.49a4.446,4.446,0,0,1,.412-.673,3.938,3.938,0,0,1,1.287-1.1c.542-.277,1.079-.419,1.448-.618a2.016,2.016,0,0,0,.568-.4,2.041,2.041,0,0,1-.484.531c-.331.283-.855.559-1.262.9a3.255,3.255,0,0,0-.854,1.122,3.343,3.343,0,0,0-.2.6Z"/><path class="cls-3" d="M86.044,84.429l.018-.06a1.3,1.3,0,0,1,.113-.275,1.576,1.576,0,0,1,.619-.579,3.982,3.982,0,0,1,.416-.2l.187-.08.21-.113.894-.483.894-.483.748-.455.739-.452-.648.575-.676.595-.8.635-.8.635-.188.149-.213.141a3.3,3.3,0,0,0-.306.22.639.639,0,0,0-.24.312c-.013.051.007-.006-.005.053L87,84.626Z"/><path class="cls-3" d="M87.367,83.9s.265-.174.7-.406a10.5,10.5,0,0,1,1.637-.691,10.7,10.7,0,0,1,1.7-.395,2.49,2.49,0,0,0,.741-.215,2.571,2.571,0,0,1-.7.362,10.4,10.4,0,0,0-1.546.7,9.57,9.57,0,0,0-1.379.932c-.346.28-.567.5-.567.5Z"/><path class="cls-4" d="M83.2,84.845s-1.275-5.994-1.85-11.279-.981-11.375.6-15.4,1.489-8.5,1.249-19.533.652-38.07.652-38.07"/><path class="cls-2" d="M88.9,87.665s-1.735-.608-2.528.33-1.011,1.444.366,2.015S89.336,88.341,88.9,87.665Z"/><ellipse class="cls-5" cx="79.971" cy="88.259" rx="0.688" ry="0.528"/><ellipse class="cls-5" cx="87.553" cy="88.524" rx="0.688" ry="0.528"/></svg>