<svg id="word" xmlns="http://www.w3.org/2000/svg" xmlns:xlink="http://www.w3.org/1999/xlink" viewBox="0 0 160 160"><defs><style>.cls-1{fill:none;}.cls-1,.cls-2,.cls-3,.cls-4,.cls-5{stroke:#9c4c9c;stroke-width:0.683px;}.cls-2{fill:#c6bcbe;}.cls-3{fill:url(#linear-gradient);}.cls-4{fill:#fff;}.cls-5{fill:#dcc6bd;}.cls-6{fill:#9c4c9c;}</style><linearGradient id="linear-gradient" x1="-2622.763" y1="1467.08" x2="-2646.318" y2="1453.954" gradientTransform="matrix(0.632, 0.775, -0.775, 0.632, 2883.416, 1201.61)" gradientUnits="userSpaceOnUse"><stop offset="0" stop-color="#fae5ee"/><stop offset="0.576" stop-color="#898167"/><stop offset="1" stop-color="#585744"/></linearGradient></defs><path class="cls-1" d="M56.867,87.717c-.26-.011-.536-.008-.8,0,.931.136,1.9.312,2.868.493A7.331,7.331,0,0,0,56.867,87.717Z"/><path class="cls-2" d="M62.66,66.393l-.233-.417S59.612,59.1,56.71,56.751,53.3,51.882,49.766,58.1,46.5,69.64,46.145,71.015A1.962,1.962,0,0,0,47.839,73.6a16.476,16.476,0,0,1,2.515,1.117,40.414,40.414,0,0,1,5.3-4.23C57.438,69.427,59.943,67.933,62.66,66.393Z"/><path class="cls-2" d="M58.932,88.21c-.964-.181-1.937-.357-2.868-.493a21.4,21.4,0,0,0-4.52.524c.841,2.281,2.711,7.331,3.514,9.275,1.047,2.569,3.077,6.69,5.657,8.661s4.551-1.9,6.258-4.848C68.046,99.478,70,96.293,71.3,94.185c-.024,0-.051-.008-.07-.008C66,93,62.369,89.494,58.932,88.21Z"/><path class="cls-2" d="M39.291,75.253c-.235-.918-.209-1.274.015-1.311a62.94,62.94,0,0,0-7.355-4.323c-2.024-.777-11.2-5.4-11.644-1.389S28.324,79.2,30.484,81.54s1.576,4.792.232,8.98S27.993,104,30.25,102.249s11.433-7.887,12.184-8.621c.505-.485,1.516-1.51,2.066-2.128-.184-.136.156-.246,0-1C43.308,84.732,40.3,79.129,39.291,75.253Z"/><path class="cls-3" d="M132,77.691c-.057-1.3-1.821-1.539-1.821-1.539l-.26-.535s1.835-4.721-3.654-4.246c-2.586.232-9.959-4.763-11.919-6.42-1.614-1.364-8.6-6.35-14.611-7.757a12,12,0,0,0-3.629-.352c-6.434.517-17.8,1.984-23.367,4.374a104.126,104.126,0,0,0-9.491,4.847c-.2.111-.393.224-.588.33l.84.107s-9.456,3.229-11,6c-.774,1.4-1,2-2.147,2.22-1.542,1.3-3.048,2.328-4.8,2.379-2.735.082-5.517-3.3-6.244-3.158.273.171.437.28.437.28-.965,2.958,5.116,16.763,5.116,16.763s-.179.2-.43.486c.221.173.49-.072,1.372-.879.942-.88,3.206-1.787,5.743-2.35-.257-.707,1.81-.936,4.52-.524.267-.008.543-.011.8,0a7.331,7.331,0,0,1,2.065.493c.829.167,5.568,3.29,5.568,3.29a66.41,66.41,0,0,0,6.8,2.686,74.909,74.909,0,0,0,12.638,1.4,26.372,26.372,0,0,0,4.98-.254c3.52-.68,16.677-3.08,20.479-3.521s15.535-8.392,16.944-8.673C127.746,82.88,132.046,78.994,132,77.691Z"/><path class="cls-4" d="M61.635,66.93c-3.477-3.5-8.016-7.144-12.324-7.289,0,0,5.017,1.578,6.171,2.547S61.1,67,61.1,67Z"/><path class="cls-4" d="M60.185,67.8c-2.518-3.874-7.252-5.737-10.41-5.04l-1.819.382a22.745,22.745,0,0,1,3.4-.076c.915.149,4.809,1.328,5.8,2.187a30.467,30.467,0,0,1,2.495,2.725Z"/><path class="cls-4" d="M49.879,65.13c3.34.309,5.834-.095,8.85,3.314l-.481.377s-2.792-2.549-4.312-2.766A38.825,38.825,0,0,1,49.879,65.13Z"/><path class="cls-4" d="M56.61,69.584c-1.494-2.729-4.822-2.644-6.759-2.7l-1,.416a16,16,0,0,1,3.81.249c1.166.354,2.519.634,2.865,1.114a5.742,5.742,0,0,1,.636,1.3Z"/><path class="cls-4" d="M48.251,68.718c2.136-.669,4.9.526,7.116,1.533l-.721.5a20.776,20.776,0,0,0-3.854-1.687A17.293,17.293,0,0,0,48.251,68.718Z"/><path class="cls-4" d="M62.233,66.594c-1.459-4.052-6.668-8.238-9.555-9.281l-2.01-.443a29.7,29.7,0,0,1,4.8,2.379c1.067.887,4.816,4.411,5.279,5.418.482,1,1.189,2.1,1.189,2.1Z"/><path class="cls-5" d="M101.172,51.585l1.273-6.679s-4.908,3.218-5.926,1.53-3.706-8.893-3.706-8.893-.1,2.639-1.87,1.233c-1.788-1.393-3.358-2.84-3.358-2.84s1.253,2.519-.141,2.5a10.765,10.765,0,0,1-3.67-1.327s1.242,2.087-.125,1.774-2.676-.79-2.676-.79.9,1.274.3,1.386a16.156,16.156,0,0,1-3.231-.536s1.052,1.113,1.011,1.7-3.3.355-3.3.355,1.8,1.827-.673,2.455a18.092,18.092,0,0,0-5.038,2.434s2.723-1.261,1.421.886A4.4,4.4,0,0,1,67.943,48.9s.184,3.6-1,3.542a5.527,5.527,0,0,0-2.47.62s1.743,3.158,1.177,4.138a6.833,6.833,0,0,1-2.118,1.866s2.992.438,2.105,1.777-1.308,4.911-1.308,4.911,19.259-7.8,25.25-7.654,11.39-.239,11.39-.239Z"/><path class="cls-2" d="M103.249,92.526c.423.357.991,7.2-.608,12.75s-.862,7.727-3.16,5.258-5.457-6.072-6.281-8.966-3.366-5.462-1.334-6.872S103.249,92.526,103.249,92.526Z"/><path class="cls-1" d="M112.827,66.7a44.671,44.671,0,0,0-.221,7.755c.348,2.7.226,6.358,2.488,7.955s4.847,3.57,4.847,3.57"/><path class="cls-1" d="M130.044,75.663a36.159,36.159,0,0,0-4.162,3.641c-1.19,1.4-5.373,1.626-5.373,1.626"/><path class="cls-4" d="M118.456,74.125c.45,1.559,1.82,2.635,3.065,2.394s1.905-1.707,1.456-3.266-1.819-2.634-3.064-2.394S118.007,72.566,118.456,74.125Z"/><path class="cls-6" d="M119.967,72.964c.227.762.787,1.323,1.261,1.229s.689-.8.468-1.57-.782-1.32-1.261-1.229S119.751,72.185,119.967,72.964Z"/><path class="cls-1" d="M92.939,38.175c1.815,5.237,3.542,11.251,3.529,16.527.009-.48-.136,2.5-.132,2.019"/><path class="cls-1" d="M88.478,36.856c1.528,4.136,3.017,7.76,3.781,12.059.262,1.5,1.946,7.106,1.125,7.868"/><path class="cls-1" d="M84.264,37.521A59.353,59.353,0,0,1,90.644,52.6c.014-.264.913,4.673.892,4.4"/><path class="cls-1" d="M81.41,38.3c2.66,3.27,6.531,12.635,7.026,17.7"/><path class="cls-1" d="M78.543,39.213c2.389,3.526,5.206,8.634,6.211,12.982"/><path class="cls-1" d="M83.748,55.375c-1.38-4.8-3.687-10.948-7.321-14.084"/><path class="cls-1" d="M81.4,56.412c-.737-3.807-4.541-9.014-6.865-11.91"/><path class="cls-1" d="M68.231,49c3.344.013,4.963,5.094,6.571,8.112"/><path class="cls-1" d="M71.515,46.763c2.561,3.354,4.578,6.009,6.224,10.211"/><path class="cls-1" d="M64.885,53.058c2.584,1.263,3.833,2.931,5.738,5.587"/><path class="cls-1" d="M63.7,59.107c1.573-.209,4.891-.662,6.152,1.651"/></svg>