<svg id="word" xmlns="http://www.w3.org/2000/svg" viewBox="0 0 160 160"><defs><style>.cls-1{fill:#00a0dd;}.cls-2{fill:#c6dc6e;}.cls-3{fill:#5980c0;}.cls-4{fill:#a2ddf8;}.cls-5{fill:none;}.cls-5,.cls-6{stroke:#9d4b9c;stroke-miterlimit:10;stroke-width:0.75px;}.cls-6{fill:#fff;}</style></defs><path class="cls-1" d="M98.978,128.81l-.665-.286c-11.207-2.744-23.139-.7-34.325-3.526l-.54-.016v-.43a37.458,37.458,0,0,0,1.738-4.2c.222-.635.829-4.978,1.613-11.184l.3.043c11.94-3.1,19.639-2.941,31.634.538-.455,7.536-.8,12.835-.891,13.2C97.545,124.189,98.643,127.233,98.978,128.81Z"/><path class="cls-2" d="M99.2,101.756c-.162,2.845-.324,5.539-.471,8-11.995-3.479-19.694-3.639-31.634-.538l-.3-.043c.954-7.518,2.175-17.773,3.322-27.5,2.212,6.891,5.8,9.179,12.551,13.206,7.035,4.193,8.348,5.858,16.511,6.877Z"/><path class="cls-3" d="M99.2,101.756h-.018c-8.163-1.019-9.476-2.684-16.511-6.877-6.755-4.027-10.339-6.315-12.551-13.206.535-4.511,1.049-8.91,1.516-12.866l.041,0c1.049,8.52,3.624,13.362,10.4,19.16,6.752,5.78,8.56,7.383,17.489,7.467C99.446,97.6,99.32,99.716,99.2,101.756Z"/><path class="cls-4" d="M100.465,79.212c-.285,5.3-.6,10.889-.9,16.227-8.929-.084-10.737-1.687-17.489-7.467-6.777-5.8-9.352-10.64-10.4-19.16l-.041,0c1.065-9.029,1.867-15.756,1.995-16.3.409-1.719.944-3.967,2.035-4.825a65.694,65.694,0,0,1,5.8-3.231l12.85.681s3.4,2.485,4.721,3.777,2.345,1.955,2.636,3.84c.069.43-.076,4.2-.346,9.786l-.768-.132c-2.38.261-5.744.825-7.311,2.514A10.233,10.233,0,0,0,90.9,70.611a11.151,11.151,0,0,0,1,7.045,11.388,11.388,0,0,0,5.914,4.7c2.42.944-.415-3.575,2.154-3.187Z"/><path class="cls-2" d="M100.465,79.212l-.494-.039c-2.569-.388.266,4.131-2.154,3.187a11.388,11.388,0,0,1-5.914-4.7,11.151,11.151,0,0,1-1-7.045,10.233,10.233,0,0,1,2.346-5.689c1.567-1.689,4.931-2.253,7.311-2.514l.768.132C101.105,67.143,100.8,72.984,100.465,79.212Z"/><path class="cls-5" d="M101.325,62.54c.27-5.59.415-9.356.346-9.786-.291-1.885-1.317-2.548-2.636-3.84s-4.721-3.777-4.721-3.777l-12.85-.681a65.694,65.694,0,0,0-5.8,3.231c-1.091.858-1.626,3.106-2.035,4.825-.128.54-.93,7.267-1.995,16.3-.467,3.956-.981,8.355-1.516,12.866-1.147,9.724-2.368,19.979-3.322,27.5-.784,6.206-1.391,10.549-1.613,11.184a37.458,37.458,0,0,1-1.738,4.2v.43l-.022,2.777,35.092,4.155a4.791,4.791,0,0,0,.52-2.81,2.607,2.607,0,0,0-.06-.294c-.335-1.577-1.433-4.621-1.138-5.858.086-.365.436-5.664.891-13.2.147-2.457.309-5.151.471-8,.118-2.04.244-4.161.367-6.317.3-5.338.611-10.925.9-16.227C100.8,72.984,101.105,67.143,101.325,62.54Z"/><path class="cls-5" d="M63.988,125c11.186,2.828,23.118.782,34.325,3.526"/><path class="cls-5" d="M71.679,68.812c1.049,8.52,3.624,13.362,10.4,19.16,6.752,5.78,8.56,7.383,17.489,7.467l.082,0"/><path class="cls-5" d="M69.86,80.813c.084.293.174.583.262.861,2.212,6.891,5.8,9.179,12.551,13.206,7.035,4.193,8.348,5.858,16.511,6.877"/><path class="cls-5" d="M67.1,109.214c11.94-3.1,19.639-2.941,31.634.538l.028.007"/><path class="cls-5" d="M100.557,62.408c-2.38.261-5.744.825-7.311,2.514A10.233,10.233,0,0,0,90.9,70.611a11.151,11.151,0,0,0,1,7.045,11.388,11.388,0,0,0,5.914,4.7c2.42.944-.415-3.575,2.154-3.187"/><path class="cls-5" d="M75.426,48.892a39.569,39.569,0,0,1,23.29,1.3"/><path class="cls-6" d="M83.566,31.262s1.78-2.166,6.313-1.362c4.611.817,5.052,1.76,5.052,1.76L96.008,46.1a44.251,44.251,0,0,0-7.754-1.285c-4.145-.288-7.413-.226-7.413-.226Z"/><path class="cls-5" d="M84.958,30.383c-.579,3.924-1.144,7.493-1.723,11.417"/><path class="cls-5" d="M86.826,29.85a73.419,73.419,0,0,0-1.3,12.075"/><path class="cls-5" d="M89.108,29.726,88.052,42.508l.03-.207"/><path class="cls-5" d="M91.5,30.151a89.57,89.57,0,0,1-.774,12.79"/><path class="cls-5" d="M92.708,30.519a110.938,110.938,0,0,1,.435,12.716"/></svg>