<svg id="word" xmlns="http://www.w3.org/2000/svg" xmlns:xlink="http://www.w3.org/1999/xlink" viewBox="0 0 160 160"><defs><style>.cls-1,.cls-13{fill:none;}.cls-2{clip-path:url(#clip-path);}.cls-3{fill:#61b9d3;}.cls-4{fill:#6ac9e4;}.cls-5{fill:#c0b399;stroke:#9c4c9c;stroke-width:0.813px;}.cls-6{fill:#90c9e1;}.cls-7{fill:#9c4c9c;}.cls-8{fill:#fff;}.cls-9{fill:#b0e2f9;}.cls-10,.cls-11,.cls-12,.cls-13,.cls-9{stroke:#9d4b9c;stroke-miterlimit:10;stroke-width:0.75px;}.cls-10{fill:#85abbe;}.cls-11{fill:#5980c0;}.cls-12{fill:#fceaf2;}</style><clipPath id="clip-path"><rect class="cls-1" x="-196" y="14" width="132" height="132"/></clipPath></defs><g class="cls-2"><path class="cls-3" d="M-162.029,109.747c1.768-.042,3.247,1.507,5.009,1.665,2.935.262,14.85,1.18,17.5-.118s-3.544-4.88-.67-4.229c1.991.451,3.669,1.756,5.546,2.559s4.341.97,5.7-.551c.653-.73.933-1.725,1.537-2.5,1.26-1.608,3.556-1.867,5.6-1.967,1.9-.093,1.722,3.038,3.575,3.463,5.985,1.375,12.531,4.434,18.672,4.309a17,17,0,0,0,6.412-1.884s12.6-7.3,20.087-4.7,11.5,2.017,18.341-1.612,34.406-6.766,35.079-6.766,35.113,2.016,35.113,2.016,33.587,4.927,35.156,7.752-26.576,6.141-38,7.262-32.042,9.635-52.881,11.651-54.846,4.149-65.291,3.419-11.117,3.3-30.611,3.752-48.409-2.669-51.546-7.208S-199.771,110.647-162.029,109.747Z"/><path class="cls-4" d="M15.467,109.205c-4.541-1.62-8.184-5.277-13-4.985s-9.377,2.158-13.754,4.18a30.988,30.988,0,0,1-5.889,2.287c-7.841,1.819-16.007-3.15-23.907-1.609-3.347.653-6.947,2.419-9.942.792-.721-.392-1.337-.958-2.063-1.338-2.2-1.153-4.874-.4-7.235.379l-11.792,3.876s-31.959,7.7-33.441,9.388,5.24,9.3,22.942,9.751,36.523,2.689,47.055-.448,23.527-7.618,37.2-7.842,20.839,1.344,24.2-.224S22.123,111.58,15.467,109.205Z"/><path class="cls-5" d="M-28.582,86.4s12.9-9.318,21.5-3.584S6.182,93.568,1.164,95s-21.145,2.867-21.145,2.867S-41.484,97.152-28.582,86.4Z"/><path class="cls-6" d="M-90.4,90.522s11.11-5.2,15.231-5.376,4.839,4.121,8.064,4.838,1.972-.717,7.527-2.867,7.347-3.225,9.855-1.433,2.688,6.092,7.885,5.375,7.885-3.225,9.856-1.254.358,5.555,5.734,6.093,1.977-4.007,12.544-3.047A14.428,14.428,0,0,1-3.316,98.586c1.434,1.792,3.584,3.763,7.168,2.867s6.631-3.046,8.96-.179,6.989,4.48,6.989,4.48"/><path class="cls-7" d="M-90.4,90.522q3.576-1.666,7.248-3.115a36.078,36.078,0,0,1,7.548-2.271,4.847,4.847,0,0,1,3.751,1.008c1.056.817,1.846,1.9,2.841,2.733a4.97,4.97,0,0,0,3.574,1.159,3.862,3.862,0,0,0,1.68-.875,16.7,16.7,0,0,1,1.685-1.05,33.859,33.859,0,0,1,3.628-1.578c1.223-.482,2.438-.987,3.692-1.411a5.725,5.725,0,0,1,3.951-.2A5.53,5.53,0,0,1-49.106,86a9.645,9.645,0,0,1,1.256,1.558A8.372,8.372,0,0,0-45.281,90.4a5.591,5.591,0,0,0,3.728.433,24.3,24.3,0,0,0,3.8-.945,17.082,17.082,0,0,1,3.853-1.02,2.635,2.635,0,0,1,1.948.69,4.089,4.089,0,0,1,1.08,1.741c.424,1.256.645,2.6,1.657,3.392a6.261,6.261,0,0,0,3.607,1.06,4.009,4.009,0,0,0,1.844-.311,6.508,6.508,0,0,0,1.512-1.174A6.471,6.471,0,0,1-18.6,92.7a20.129,20.129,0,0,1,3.971-.072A15.06,15.06,0,0,1-7.1,94.911a14.81,14.81,0,0,1,3.019,2.574A18.726,18.726,0,0,0-1.4,100.334a5.75,5.75,0,0,0,3.592,1.226,12.445,12.445,0,0,0,3.795-.865,13.735,13.735,0,0,1,3.842-.93,3.56,3.56,0,0,1,1.92.487,5.98,5.98,0,0,1,1.432,1.365,17.792,17.792,0,0,0,6.624,4.137,17.84,17.84,0,0,1-6.691-4.075,5.829,5.829,0,0,0-1.424-1.326,3.432,3.432,0,0,0-1.858-.444,13.61,13.61,0,0,0-3.781.973,12.45,12.45,0,0,1-3.857.9,5.981,5.981,0,0,1-3.737-1.254,18.82,18.82,0,0,1-2.727-2.867,14.556,14.556,0,0,0-2.978-2.515,14.766,14.766,0,0,0-7.4-2.209,19.787,19.787,0,0,0-3.9.087,6.12,6.12,0,0,0-3.468,1.508,6.8,6.8,0,0,1-1.59,1.236,4.365,4.365,0,0,1-2.006.353,6.6,6.6,0,0,1-3.838-1.125,3.948,3.948,0,0,1-1.177-1.676c-.251-.629-.4-1.275-.618-1.879a3.814,3.814,0,0,0-.97-1.58,2.23,2.23,0,0,0-1.667-.595,16.981,16.981,0,0,0-3.752.984,24.522,24.522,0,0,1-3.855.94,5.928,5.928,0,0,1-3.948-.491,8.651,8.651,0,0,1-2.666-2.956,9.3,9.3,0,0,0-1.207-1.514,5.21,5.21,0,0,0-1.6-1.03,5.435,5.435,0,0,0-3.754.194c-1.24.411-2.457.91-3.683,1.387a33.471,33.471,0,0,0-3.609,1.55,16.466,16.466,0,0,0-1.665,1.026,4.046,4.046,0,0,1-1.786.906,5.176,5.176,0,0,1-3.736-1.223c-1.023-.86-1.784-1.956-2.808-2.764a4.692,4.692,0,0,0-3.64-1.025,36.04,36.04,0,0,0-7.539,2.212Q-86.816,88.88-90.4,90.522Z"/><path class="cls-8" d="M-15.59,113.115a4.018,4.018,0,0,0,1.634-.8l5.81-4.022A7.582,7.582,0,0,0-6.4,106.806c.346-.446.589-.965.947-1.4a3.429,3.429,0,0,1,3.548-1.076c.01.658.17,1.5.819,1.617a1.226,1.226,0,0,0,1.119-.671,11.689,11.689,0,0,1,1.357-2.3c.649-.614,2.025-.535,2.14.352.073.556-.335,1.3.15,1.578a.824.824,0,0,0,.492.062,24.891,24.891,0,0,0,3.648-1.011,3.913,3.913,0,0,1,3.6.529,2.516,2.516,0,0,1,.386,3.154c-.878,1.311-2.761,1.457-4.308,1.143s-3.087-.954-4.647-.719a1.356,1.356,0,0,0-.683.259c-.6.5-.19,1.45-.147,2.229a2.417,2.417,0,0,1-2.254,2.4A2.89,2.89,0,0,1-3,110.972c-.246-.736-.314-1.685-1.024-2a1.5,1.5,0,0,0-1.488.349c-.417.337-.742.78-1.175,1.1-1.175.859-2.8.59-4.217.932-1.708.412-3.08,1.718-4.765,2.218"/></g><path class="cls-9" d="M101.228,51.82s-6.216,11.945-8.291,14.05-9.307,5.8-13.631,11.374-6.169,19.569-6.169,19.569l3.958,5.018S92.423,74.177,94.163,71.2s12.32-20.637,12.32-20.637l7.163-8.409s5.989-14.284,1.167-16.421C107.425,22.459,101.228,51.82,101.228,51.82Z"/><path class="cls-10" d="M116.4,26.962c-.4-.334-1.712-1.676-1.582-1.228.453,1.563,1.4,5.821-.218,9.324-2.355,5.108-3.806,10.713-6.234,12.723s-3.686,1.049-4.328,4.162S91.36,72.486,85.781,78.5s-6.213,13.354-7.073,15.158c-.793,1.663-2.566,5.192-2.838,5.731a.354.354,0,0,0-.038.15l-.295,6.921a.574.574,0,0,0,1.027.288c5.511-9.747,29.45-52.06,30.16-52.839.8-.88,1.177-.155,5.3-6.4s8.445-16.043,6.891-18.021A18.03,18.03,0,0,0,116.4,26.962Z"/><path class="cls-11" d="M55.654,139.166s-3.676-1.569-.228-12.9,16.434-31.419,19.509-31.3,5.169,3.382,4.582,5.581.5,6.61-7.67,19.742C67.24,127.7,60.427,142.443,55.654,139.166Z"/><path class="cls-12" d="M93.269,43.6s-1.01-1.416.1-1.8,2,.065,1.8-1.083-2.631-1.484-.9-2.064,1.9.454,1.967-.518-1.817-3.352-.307-3.574,2.661.189,2.124-.632-1.783-2.3-.829-2.567,2.278,1.39,1.883.034-1.846-1.588-.729-2.228,1.51-.223,1.816-.662-.753-.722-.232-1.73.488-1.121,1.45-.708,1.687-.175.809-1.139-1.788-1.572-.231-1.261,1.316.977,1.556.312-1.788-2.042-.612-2.2,1.413.377,2.82,1.014,8.611,3.184,8.476,4.868-3.415,12.8-5.214,15.758-2.994,4.361-4.327,4.631S93.269,43.6,93.269,43.6Z"/><path class="cls-13" d="M102.6,25.892a29.809,29.809,0,0,1,8.971,4.226"/><path class="cls-13" d="M100.106,28.672a26.686,26.686,0,0,1,10.422,3.742"/><path class="cls-13" d="M99.137,31.988c3.044,1.536,6.785,1.867,9.5,3.82"/><path class="cls-13" d="M98.4,34.671a8.817,8.817,0,0,1,3.682.908,25.1,25.1,0,0,1,3.243,1.921l3.122,2.068"/><path class="cls-13" d="M95.876,38.63a9.171,9.171,0,0,0,3.206,1.222,13.539,13.539,0,0,1,7.391,5.158"/><path class="cls-13" d="M94.932,41.446a20.739,20.739,0,0,0,9.119,4.512"/><path class="cls-11" d="M89.293,68.181a40.617,40.617,0,0,1,4.475,1.664c1.159.622,2.161,1.828.395,1.356s-8.553-.563-7.5-1.688A4.88,4.88,0,0,1,89.293,68.181Z"/><path class="cls-11" d="M84.493,71.279s7.535,1.542,8.34,2.069.395,1.357-1.195.932S81.984,72.173,84.493,71.279Z"/><path class="cls-11" d="M81.849,73.388S90.8,75.307,90.7,76.376s-2.195,1.134-4.138.616S80.046,74.47,81.849,73.388Z"/></svg>