<svg id="word" xmlns="http://www.w3.org/2000/svg" viewBox="0 0 160 160"><defs><style>.cls-1,.cls-16{fill:#f29141;}.cls-1,.cls-10,.cls-11,.cls-12,.cls-13,.cls-14,.cls-17,.cls-2,.cls-3,.cls-4,.cls-5,.cls-6,.cls-7,.cls-8,.cls-9{stroke:#9c4c9c;stroke-width:0.593px;}.cls-1,.cls-10,.cls-11,.cls-12,.cls-13,.cls-17,.cls-2,.cls-6,.cls-7,.cls-8,.cls-9{stroke-miterlimit:10;}.cls-2{fill:#7a7c7d;}.cls-3{fill:#fde1d3;}.cls-4{fill:#c1976b;}.cls-5{fill:#f7b1b9;}.cls-6{fill:#fff;}.cls-7{fill:#f5ec4b;}.cls-8{fill:#fcf28e;}.cls-9{fill:#c8b370;}.cls-10{fill:#ede70e;}.cls-11{fill:#ee6ca7;}.cls-12,.cls-14,.cls-17{fill:none;}.cls-13{fill:#cbcdce;}.cls-14,.cls-17{stroke-linecap:round;}.cls-15{fill:#9c4c9c;}</style></defs><path class="cls-1" d="M71.188,43.666c.216-.563.865-.8,1.418-1.035s1.155-.69,1.078-1.288l-4.97-.656a1.605,1.605,0,0,1-.84-.277c-.6-.5-.161-1.521.5-1.938a10.484,10.484,0,0,0,2.035-1.122.993.993,0,0,0,.3-.53,1.049,1.049,0,0,0-.033-.413A2.648,2.648,0,0,0,68.5,34.45c-.632-.084-1.374.032-1.816-.427a1.47,1.47,0,0,1,.107-1.811,14.772,14.772,0,0,0,1.238-1.526,3.027,3.027,0,0,0-1.116-3.627,8.669,8.669,0,0,0-3.871-1.321l-7.156-.5s1.632,4.756,2.67,4.781,2.612-.7,4.227,2.067a25.481,25.481,0,0,1,2.792,6.881c.294,1.373,2.682,7.623,2.682,7.623Z"/><path class="cls-2" d="M89.126,15.875a1.447,1.447,0,0,0,.066-1.8C88.213,12.765,86,10.535,83.8,10.4c-3.139-.19-6.512-1.788-6.892,2.968s.631,8.372-1.091,10.985c-1.225,1.86-3.665,3.187-5.282,1.855s-6.1-3.416-8.348-2.937c-.318.068-6.306,2.466-6.306,2.466l2.108.376s3.858-2.326,5.983-1.76c3.853,1.026,5.517,2.731,6.848,3.1s4.661-.105,5.993-2.2,1.141-3.711,1.141-6.564S76.222,12.974,79,11.561a6.752,6.752,0,0,1,6.468.286c.571.57,3.081,4.7,3.081,4.7Z"/><path class="cls-3" d="M94.066,72.088a79.248,79.248,0,0,1,2.152-9.125c.994-2.686,6.893-5.737,7.9-6.425s2.255-.548,2.169,1.088-3.185,4.686-3.185,4.686,4.693,2.459,4.607,2.976-2.44,6.973-3.093,7.661-5.56,2.942-5.56,2.942l-2.245,3.773L93.5,76.352Z"/><path class="cls-3" d="M104.862,63.461a3.348,3.348,0,0,0-3.389,2.324c-.549,1.457-.444,2.784.864,2.511s3.291-2.316,3.248-2.855S106.392,63.616,104.862,63.461Z"/><path class="cls-3" d="M106.619,64.925s-5.545,3.452-3.553,4.073c1.733.54,2.452.111,3.141-.664S107.779,65.144,106.619,64.925Z"/><path class="cls-3" d="M108.205,103.824s.475,1.49,0,1.838-2.365,2.156-2.365,2.156l7.589,1.332,3.146-2.663.595-5.139-5.6.73Z"/><path class="cls-3" d="M117.721,79.131S109,77.3,107.531,78.489s-2.571,3.488-3.305,5.233-1.285,3.855-2.846,5.049-4.315,1.836-3.764,6.059,2.3,5.6,4.774,7.711,4.315,2.571,6.7,1.928,5.05.367,8.079-3.121,4.682-7.987,4.774-10.833S122.72,79.958,117.721,79.131Z"/><path class="cls-4" d="M116.16,78.086a10.142,10.142,0,0,1,3.489,9.583c-1.194,5.967-1.1,9.272-3.122,13.036a34.539,34.539,0,0,1-4.957,6.793s3.489-.183,4.682,1.928,3.305,3.213,4.957-1.652,5.6-13.954,6.151-16.984.551-5.783-1.928-7.711S121.485,77.132,116.16,78.086Z"/><path class="cls-5" d="M108.4,94.581s-4.185-.935-4.946-.554-1.807,2.758-1.141,4.85,4.851,3.52,6.087,3.139S110.3,96.277,108.4,94.581Z"/><path class="cls-6" d="M112.228,91.412s1.018-2.141,2.064-1,.571,1.522,0,2S111.1,93.73,112.228,91.412Z"/><path class="cls-6" d="M104.21,87.464s.873-2,1.958-1.237.095,2.283-.979,2.663S102.252,88.7,104.21,87.464Z"/><path class="cls-7" d="M73.963,118.091s2.188.856,9.7-1.712,11.509-3.692,14.933-5.46a64.425,64.425,0,0,1,7.242-3.1l5.284.928c1.6.28,5.09-1.421,5.128.68s-1.118,10.852-2.823,13.421-5.129,6.467-6.365,6.848-41.09,1.046-41.09,1.046l7.894-13.126Z"/><path class="cls-7" d="M75.58,122.752s9.417.19,12.746,0,2.283,1.046,7.133-1.427A64.61,64.61,0,0,0,105,115.808c2.638-1.9,5.68-6.1,8.433-5.517s4.261,1.013,2.086,5.548S106.828,125.51,105,126.461s-10.293,3.706-12.86,3.765S73.3,128.649,73.3,128.649l.571-6.088Z"/><polygon class="cls-8" points="119.613 113.811 111.505 130.741 114.292 133.024 122.853 115.332 119.613 113.811"/><polygon class="cls-8" points="73.297 127.462 113.429 129.001 113.429 136.868 74.557 138.065 73.297 127.462"/><polygon class="cls-8" points="97.544 136.924 97.544 145.104 76.151 145.104 76.151 136.163 97.544 136.924"/><ellipse class="cls-8" cx="110.738" cy="135.925" rx="6.432" ry="4.708"/><ellipse class="cls-9" cx="110.738" cy="135.925" rx="2.949" ry="2.521"/><path class="cls-3" d="M61.77,29.333a2.035,2.035,0,0,1,.6.341c.838.683,3.18,2.808,3.414,5.381.286,3.139,2.473,8.846,2.473,9.607s-4.47,11.318-6.182,12.365c-1.185.724-4.009,1.994-5.636,2.708a2.026,2.026,0,0,0-1.212,1.86h0a2.033,2.033,0,0,1-2.18,2.027l-2.97-.215a2.028,2.028,0,0,1-1.81-1.476,42.168,42.168,0,0,1-1.125-4.9c-.286-2.188-.286.475-1.522-3.8s-2.093-14.077-1.427-15.979,1.046-5.707,5.612-7.324a32.259,32.259,0,0,1,8.421-1.693,2.006,2.006,0,0,1,.8.118Z"/><path class="cls-6" d="M42.956,47.991,49.994,49.8s2.663,4.28,2,6.373a15.848,15.848,0,0,1-1.237,3.043s2.283,2,2.949,2.378a3.352,3.352,0,0,0,2,0s7.7-.571,8.465-.761a10.335,10.335,0,0,0,6.563-5.955c1.808-4.412,2.854-2.795,2-6.124a21.532,21.532,0,0,0-2.663-5.993s-3.52.381-5.517.761-1.427.761-4.471,1.712a103.1,103.1,0,0,0-9.511,4.09l-7.609-2Z"/><path class="cls-1" d="M45.647,59.519c.572-.427-.739-1.169-.525-1.85s.569-1.415.28-2.067c-.344-.774-1.385-.946-1.942-1.584a1.641,1.641,0,0,1,.189-2.256c.582-.478,1.523-.571,1.819-1.264.435-1.018-1.026-2.088-.681-3.14.238-.724,1.154-.921,1.915-.974s1.668-.174,2-.862c.449-.94-.581-1.864-1.038-2.8a2.275,2.275,0,0,1,.879-2.98,4.083,4.083,0,0,1,1.251-.284,21.207,21.207,0,0,0,2.51-.482,1.541,1.541,0,0,0,1.011-.582,1.3,1.3,0,0,0-.442-1.506,6.668,6.668,0,0,1-1.249-1.14,3.246,3.246,0,0,1-.309-1.9,1.309,1.309,0,0,1,.119-.589.926.926,0,0,1,1.039-.339,4.085,4.085,0,0,1,1.038.543,5.337,5.337,0,0,0,3.354.72,10.517,10.517,0,0,1-.279-3.128.923.923,0,0,1,.24-.674.972.972,0,0,1,.859-.059l3.925.974a9.716,9.716,0,0,0-1.168-3.835s-1.294-3.909-5.212-3.754c0,0-4.95-.724-6.421-.724S38.019,21.612,35.96,24.354s-6.374,3-6.767,7.727-.882,3.8-2.157,5.339-.294,5.55.392,5.948,3.138,1.283,2.746,2.557-2.55,1.666-.981,3.333.393,2.942,1.373,4.511,3.112,1.961,4.4,1.863,1.092-.784,1.386,1.275a2.364,2.364,0,0,0,2.451,2.15c.393.007,1.962-.6,2.256,0s1.636,1.478,1.9.988S45.039,59.973,45.647,59.519Z"/><path class="cls-2" d="M68.256,31.726,97.544,18.7s2.481-.095,2.481,1.712a5.673,5.673,0,0,1-.666,2.854L68.827,36.291,64.57,32.027Z"/><polygon class="cls-2" points="91.179 28.682 93.177 33.533 93.881 35.34 98.693 33.914 94.936 27.456 91.179 28.682"/><path class="cls-2" d="M92.225,36.291l.571,6.468L106.168,38l-5.382-5.9a17.793,17.793,0,0,0-5.327.476C93.652,33.248,92.225,36.291,92.225,36.291Z"/><polygon class="cls-2" points="86.994 44.566 110.583 35.34 117.526 39.953 83.76 53.032 83.715 46.585 86.994 44.566"/><path class="cls-10" d="M83.76,53.032a54.2,54.2,0,0,0,20.82-3.038c10.628-3.9,12.946-10.041,12.946-10.041Z"/><ellipse class="cls-2" cx="93.319" cy="24.354" rx="5.374" ry="5.66"/><path class="cls-2" d="M88.957,21.048s-2.153-4.35-1.012-5.3a5.186,5.186,0,0,1,3.234-.76l2.14,3.708Z"/><path class="cls-11" d="M46.665,60.492s.957,1.3,3.906,2.151,6.968-.588,6.968-.588a18.611,18.611,0,0,0,1.681,3.056c.952,1.332,7.324,7.324,6.754,10.463s-.856,15.944-.856,15.944L56.337,80.045,46.665,65.207Z"/><path class="cls-6" d="M46,64.636s-2.686,3.805-3.531,4.756-7.5,6.613-7.5,6.613,3.044,6.608,5.517,8.605,4.185,3.8,4.375,5.467a79.086,79.086,0,0,1,.571,8.515c0,3.329-1.469,11.644-1.469,11.644a69.443,69.443,0,0,1-1.575,9.044,60.819,60.819,0,0,0-3.234,15.837c-.666,8.655-2.977,9.8-2.977,9.8s11.994.421,20.668.687c6.7.205,22.552.027,22.552.027l-5.24-32.868-1.972-12.745s.545-6.567.64-9.942a37,37,0,0,0-.64-7.75c-.311-1.807-2.569-14.838-2.569-14.838L59.22,65.111s4.756,15.124,4.851,17.882a28.6,28.6,0,0,0,.476,4.538L49.59,68.38Z"/><path class="cls-6" d="M71.242,68.4a1.084,1.084,0,0,1,.394.373c.615.983,3.03,4.812,4.515,6.709,1.712,2.188,4.756,5.041,5.041,5.517s.951,1.426,1.522,1.046,2-.095,2.568-1.332a19.383,19.383,0,0,1,1.566-2.624s2.86-3.748,3.12-3.939.641-4.47,1.782-2.377,8.085,9.321,8.085,9.321S94.128,91.942,92.8,93.936s-3.241,5.227-5.948,5.322-8.224-2.093-9.461-3.71a53.928,53.928,0,0,0-4.593-4.675L69.613,67.489Z"/><path class="cls-12" d="M50.47,89.007s4.647-.022,5.415-.4.138,1.046.452,1.9,2.122,6.439.6,7.5-4.946,1.727-5.612.585-2.759-8.515-2.759-8.515Z"/><path class="cls-6" d="M45.023,66A29.77,29.77,0,0,1,45.9,72.34v5.6s3.805-1.981,4.566-1.936-1.9,4.42-1.9,4.42,1.1-.19,3.785.856A47.313,47.313,0,0,1,60.281,85.2c1.983,1.314,4.735,3.344,4.735,3.344s-2.942-5.263-5.51-9.258S46.5,63.78,46.5,63.78l-.5.856Z"/><path class="cls-6" d="M58.555,64.069l.858,1.658,3.613,12.359L65.174,89.37s-.349-6.3.32-8.194S67.4,74.243,67.4,74.243l-1.5.122-1.453.353L67.4,72.245l-3.709-6.111Z"/><path class="cls-13" d="M90.622,56.248l23.124,10.417-.741.775-23.157-10.5S89.921,55.932,90.622,56.248Z"/><path class="cls-13" d="M122.352,65.074s-5.5,1.034-6.274,1.12-3.85-.345-3.042,1.463,5.371,1.808,6.49,1.464S125.694,66.366,122.352,65.074Z"/><path class="cls-6" d="M53.513,46.564s-.647-2.59.476-3.077c1.681-.728,2.348,2.126,2.348,2.126S54.274,46.754,53.513,46.564Z"/><path class="cls-6" d="M63.041,42.759s-1.189-4.6,1.529-3.043S66.01,42.1,66.01,42.1Z"/><path class="cls-3" d="M97.965,59.156s2.273-4.6,4.187-2.279,3.031,4.872,2.085,4.994-3.1-.272-3.443-1.04S97.576,59.786,97.965,59.156Z"/><path class="cls-3" d="M58.584,111.738s6.04,1.443,7.148,2.155,4.079,3.165,4.453,3.4a2.383,2.383,0,0,1,.928,1.939c0,.988.633,2.887-.475,3.2l-1.108.316a2.188,2.188,0,0,1-.158,2.3c-.3.488-1.325.475-1.325.475a1.9,1.9,0,0,1-1.365,1.266,2.445,2.445,0,0,1-1.984-.244s-2.052,2.87-2.843,1-.222-3.654-.38-4.129-1.519-.666-2.627-1.536-2.057-1.283-2.294-1.947-.62-2.54-.62-2.54l-1.662-1.289s.6-2.612,1.2-3.165A12.129,12.129,0,0,1,58.584,111.738Z"/><path class="cls-12" d="M63.041,121.4c.1-.145.316,0,.412.146a10.286,10.286,0,0,1,1.216,4.8"/><path class="cls-12" d="M65.346,119.543a1.08,1.08,0,0,1,.521.612,18.052,18.052,0,0,1,.637,1.906,20.367,20.367,0,0,0,1.543,3.464"/><path class="cls-12" d="M67.513,118.185c.745,1.514,1.106,3.028,1.851,4.541"/><path class="cls-12" d="M49.209,91.958c.149.134.387.051.553-.061A12.518,12.518,0,0,1,51.12,90.8a3.253,3.253,0,0,1,1.433-.212l4.289.016"/><path class="cls-14" d="M106.072,91.23c.27.05.531-.119.8-.139.513-.038.925.458,1.045.959"/><path class="cls-15" d="M104.791,86.681s.7-1.474,1.422-.688.392,1.048,0,1.376S104.011,88.278,104.791,86.681Z"/><path class="cls-15" d="M112.6,90.8s.7-1.474,1.422-.688.392,1.048,0,1.375S111.822,92.4,112.6,90.8Z"/><path class="cls-4" d="M118.424,77.07c-2.545-.666-5.179-1.336-7.777-.922a18.216,18.216,0,0,0-2.143.518,8.24,8.24,0,0,0-1.281.449,4.232,4.232,0,0,0-2.343,3.493,2.314,2.314,0,0,1,2.675-1.334,3.284,3.284,0,0,0,.886,3.935,2.263,2.263,0,0,1,.247-1.8,2.856,2.856,0,0,0,1.061,1.982l2.379,2.475a6.476,6.476,0,0,1,.635-2.916,24.547,24.547,0,0,0,3.508,2.563,9.243,9.243,0,0,1,1.482,1,2.5,2.5,0,0,1,.866,1.524,33.313,33.313,0,0,0,1.267-4.589l1.837,4.18.593-3.047a11.094,11.094,0,0,0,.3-2.976,3.734,3.734,0,0,0-1.243-2.639,5.479,5.479,0,0,0-1.037-.612c-.619-.307-1.3-.985-1.916-1.291"/><path class="cls-3" d="M93.69,68.971s1.162-6.15,1.463-6.906a2.22,2.22,0,0,1,1.593-1.647c1.114-.385,3.929-1.088,4.365-1.863.686-1.219,2.4-.826,1.386,1.481a11.651,11.651,0,0,1-2.91,3.856,7.213,7.213,0,0,1,1.162,3.358c.043,1.721-1.8,4.82-1.74,5.079s-1.489.861-2,1.205a13.4,13.4,0,0,0-1.731,2.627l-3.244-3.942Z"/><path class="cls-6" d="M34.4,77.941s-2.758,16.466-3.234,17.8-4.694,12.573-2.109,15.18a18.114,18.114,0,0,0,8.577,4.984c2.568.476,13.031,2.473,13.411,2.663a8.373,8.373,0,0,0,2.013,1.047c.46,0,.626,2.187,1.447-.333s2.4-2.9,3.039-5.469a36.145,36.145,0,0,1,1.016-3.575s-6.754-2.608-8.18-3.274-7.127-2.618-6.988-3.306,2.053-1.041.573-1.578-2.621,2.5-1.86-.73,1.044-3.422,1-3.9.916-.381.863-3.995.194-5.165,0-5.427-2.907-5.8-4.143-7.509S35.564,75.5,35.564,75.5A3.652,3.652,0,0,0,34.4,77.941Z"/><ellipse class="cls-15" cx="55.227" cy="45.011" rx="0.881" ry="1.034"/><ellipse class="cls-15" cx="65.129" cy="41.338" rx="0.881" ry="1.034"/><path class="cls-16" d="M45.483,45.673a10.063,10.063,0,0,0,.779,3.9c.3.718.641,1.662.053,2.172-.173.151-.416.241-.511.451a.627.627,0,0,0,.388.751,7.337,7.337,0,0,0,.905.24,1.673,1.673,0,0,1,.787,2.463,2.094,2.094,0,0,0-.475.711c-.116.516.412.93.875,1.186s1,.636.931,1.16c-.068.495-.648.733-1.145.78a2.55,2.55,0,0,0-1.434.337c-.215.541.662,1.1.407,1.622-.129.263-.472.326-.766.341a8.914,8.914,0,0,1-1.788-.09,2,2,0,0,1-1-.366c-.686-.573-.456-1.649-.557-2.538a3.077,3.077,0,0,0-1.691-2.382c-.51-.246-1.141-.392-1.4-.894a1.839,1.839,0,0,1-.157-.656,4.267,4.267,0,0,1,.346-2.874c.244-.365.6-.646.858-1a1.227,1.227,0,0,0,.234-1.23"/><path class="cls-15" d="M45.78,45.674a9.815,9.815,0,0,0,.245,2.271,18.024,18.024,0,0,0,.733,2.219,2.073,2.073,0,0,1,.037,1.324,1.175,1.175,0,0,1-.466.555c-.182.115-.3.2-.313.275a.332.332,0,0,0,.115.3.791.791,0,0,0,.406.2,2.384,2.384,0,0,1,1.177.467,1.91,1.91,0,0,1,.374,2.424c-.266.365-.556.583-.492.869.043.281.349.544.658.734a2.829,2.829,0,0,1,.974.776.9.9,0,0,1,.147.691.924.924,0,0,1-.4.575c-.774.517-1.7.131-2.242.583l.044-.06c-.112.267.184.609.36.986a.717.717,0,0,1-.007.7.856.856,0,0,1-.609.324,8.124,8.124,0,0,1-2.432-.161,1.432,1.432,0,0,1-1-.751,2.866,2.866,0,0,1-.212-1.214,7.409,7.409,0,0,0-.062-1.181,2.955,2.955,0,0,0-.435-1.075,3,3,0,0,0-.81-.835,6.791,6.791,0,0,0-1.064-.525,1.314,1.314,0,0,1-.809-.883,9.776,9.776,0,0,1-.127-1.2,3.182,3.182,0,0,1,.583-2.285c.255-.309.567-.566.79-.9a1.173,1.173,0,0,0,.175-1.129,1.185,1.185,0,0,1-.159,1.139c-.22.338-.53.6-.777.912a3.132,3.132,0,0,0-.537,2.257,9.791,9.791,0,0,0,.143,1.181,1.2,1.2,0,0,0,.766.8,6.8,6.8,0,0,1,1.089.518,3.15,3.15,0,0,1,.861.861,3.112,3.112,0,0,1,.476,1.126,7.409,7.409,0,0,1,.084,1.208,2.707,2.707,0,0,0,.208,1.127,1.211,1.211,0,0,0,.867.625,7.943,7.943,0,0,0,2.336.12c.391-.04.592-.319.4-.654-.078-.165-.193-.327-.291-.517a.845.845,0,0,1-.092-.7l.014-.039.029-.022c.768-.568,1.68-.179,2.241-.628a.539.539,0,0,0,.153-.792,2.553,2.553,0,0,0-.874-.655,1.628,1.628,0,0,1-.85-.989.923.923,0,0,1,.179-.7c.127-.183.273-.318.358-.46a1.491,1.491,0,0,0-.323-1.858,1.984,1.984,0,0,0-1-.354.976.976,0,0,1-.873-1.089,1.068,1.068,0,0,1,.5-.545.667.667,0,0,0,.279-.333,1.609,1.609,0,0,0-.068-.988,18.041,18.041,0,0,1-.777-2.243,10.323,10.323,0,0,1-.3-2.4Z"/><path class="cls-15" d="M56.764,25.312a1,1,0,0,1,.844.161,1.322,1.322,0,0,1,.486.63,2.8,2.8,0,0,1,.034,1.382l-.03.215-.214.024-5.212.571a2.085,2.085,0,0,0-1.082.4.681.681,0,0,0-.091.905,2.753,2.753,0,0,0,.921.8.749.749,0,0,1-.163,1.377c-.894.3-1.719.458-2.556.7-.4.114-.733.343-.714.686a1.647,1.647,0,0,0,.622.96,2.07,2.07,0,0,1,.754,1.182.821.821,0,0,1-.287.729,2.3,2.3,0,0,1-.626.322,23.738,23.738,0,0,1-2.5.843c-.838.258-1.739.36-2.536.628a1.775,1.775,0,0,0-.954.742,1,1,0,0,0,.01,1.117,2.053,2.053,0,0,0,1.049.637,9.545,9.545,0,0,1,1.261.4,1.553,1.553,0,0,1,.939.954,1.158,1.158,0,0,1-.52,1.209c-.765.575-1.738.369-2.569.5a1.661,1.661,0,0,0-1.106.576A.916.916,0,0,0,42.4,45.11a2.689,2.689,0,0,0,1.113.632,1.051,1.051,0,0,1,.766.984,1.6,1.6,0,0,1-.647,1.111c-.338.279-.726.492-1.041.8.311-.311.7-.529,1.03-.812a1.574,1.574,0,0,0,.623-1.1,1.006,1.006,0,0,0-.752-.934,2.726,2.726,0,0,1-1.148-.638.994.994,0,0,1,.112-1.252,1.757,1.757,0,0,1,1.156-.625c.864-.142,1.807.037,2.5-.51a1.006,1.006,0,0,0,.451-1.057,1.39,1.39,0,0,0-.859-.833c-.752-.347-1.773-.3-2.406-1.071a1.217,1.217,0,0,1-.037-1.355,2.008,2.008,0,0,1,1.062-.856c.861-.3,1.715-.4,2.548-.669a23.209,23.209,0,0,0,2.46-.865c.42-.15.765-.355.7-.719a1.777,1.777,0,0,0-.661-.965,1.938,1.938,0,0,1-.752-1.2.915.915,0,0,1,.318-.727,1.818,1.818,0,0,1,.645-.339c.841-.253,1.736-.45,2.5-.714.366-.172.4-.41.069-.652a3.1,3.1,0,0,1-1.039-.908,1.155,1.155,0,0,1,.158-1.487,2.5,2.5,0,0,1,1.333-.534l5.218-.644-.245.239a2.307,2.307,0,0,0-.021-1.1c-.1-.28-.428-.5-.623-.42Z"/><path class="cls-17" d="M51.423,42.328a2.272,2.272,0,0,0,.8-.648,3.964,3.964,0,0,1,.52-.662,2.16,2.16,0,0,1,1.744-.226"/><path class="cls-17" d="M61.739,38.17a6.567,6.567,0,0,1,2.069-.876,1.187,1.187,0,0,1,.545-.032.459.459,0,0,1,.363.367"/><path class="cls-15" d="M45.3,31.125a5.767,5.767,0,0,1,.5,1.813,2.379,2.379,0,0,1-.058,1.009,1.164,1.164,0,0,1-.823.728l-3.513.806c-1.115.262-2.277.836-2.49,1.979a1.34,1.34,0,0,0,.49,1.423,4.746,4.746,0,0,1,1.4,1.177,2.094,2.094,0,0,1,.251.418.505.505,0,0,1-.115.564,2.367,2.367,0,0,1-.88.368l-1.719.519a4.8,4.8,0,0,0-.824.288.532.532,0,0,0-.29.643,2.939,2.939,0,0,0,1.161,1.249,6.438,6.438,0,0,0,1.625.722.72.72,0,0,1,.464.761,1.477,1.477,0,0,1-.45.791c-.22.21-.462.385-.656.609a.94.94,0,0,0-.267.8c.143.6.782.886,1.319,1.085-.54-.19-1.189-.457-1.356-1.078a.988.988,0,0,1,.262-.846c.193-.234.437-.417.645-.625a1.4,1.4,0,0,0,.412-.75.618.618,0,0,0-.419-.649,6.548,6.548,0,0,1-1.66-.7,4.694,4.694,0,0,1-.719-.561,1.831,1.831,0,0,1-.539-.762.731.731,0,0,1,.365-.87,4.9,4.9,0,0,1,.86-.324l1.709-.554a2.331,2.331,0,0,0,.762-.319c.165-.135,0-.367-.178-.605a4.518,4.518,0,0,0-1.359-1.089,1.7,1.7,0,0,1-.655-1.761A2.5,2.5,0,0,1,39.593,35.8a5.333,5.333,0,0,1,1.7-.751l3.471-.872a.624.624,0,0,0,.472-.406A1.9,1.9,0,0,0,45.252,33a5.2,5.2,0,0,0-.484-1.623Z"/><path class="cls-12" d="M65.383,89.415a32.206,32.206,0,0,1,1.161,6.276l2.207,18.832"/><path class="cls-12" d="M51.352,118.612l3.352-7.153"/><path class="cls-12" d="M89.655,74.506a16.946,16.946,0,0,0,6.5,7.446"/><path class="cls-12" d="M69.136,125.844a43.228,43.228,0,0,0,.418,7.941c.224,1.543.532,3.075.7,4.625.183,1.671.206,3.355.228,5.037.036,2.663-.013-1.007.022,1.657"/><path class="cls-8" d="M128.369,90.077s5.8,2.911,6.563,3.859-1.331,5.195-4.375,11.726a80.568,80.568,0,0,1-6.658,11.573l-5.9-2.759Z"/><path class="cls-15" d="M112.9,48.635c1.686,1,3.336,2.061,4.979,3.126s3.259,2.174,4.89,3.258c1.6,1.124,3.222,2.227,4.812,3.37s3.174,2.3,4.721,3.5c-1.686-1-3.335-2.06-4.979-3.126s-3.259-2.172-4.889-3.258c-1.6-1.125-3.222-2.226-4.811-3.371S114.45,49.841,112.9,48.635Z"/><path class="cls-15" d="M109.585,50.533c.685.883,1.315,1.8,1.936,2.721s1.214,1.861,1.8,2.8,1.149,1.9,1.683,2.875,1.072,1.948,1.548,2.959c-.686-.882-1.315-1.8-1.937-2.72s-1.214-1.861-1.8-2.8-1.148-1.9-1.683-2.877S110.061,51.543,109.585,50.533Z"/><path class="cls-15" d="M105.618,52.26c.444.745.827,1.515,1.2,2.288s.718,1.56,1.055,2.348.648,1.59.929,2.4.564,1.624.781,2.463c-.444-.744-.828-1.514-1.2-2.287s-.718-1.56-1.055-2.349-.647-1.589-.928-2.4S105.836,53.1,105.618,52.26Z"/><path class="cls-15" d="M88.765,54.5c-.3,1.7-.659,3.378-1.031,5.056s-.791,3.344-1.184,5.017c-.439,1.661-.854,3.329-1.317,4.984s-.936,3.308-1.473,4.945c.3-1.7.659-3.378,1.03-5.056s.791-3.344,1.185-5.017c.442-1.661.854-3.329,1.319-4.983S88.23,56.142,88.765,54.5Z"/><path class="cls-15" d="M117.526,44.977c1.41.41,2.8.881,4.181,1.361s2.748,1.007,4.124,1.508c1.358.546,2.725,1.068,4.074,1.636s2.695,1.147,4.017,1.786c-1.41-.409-2.8-.88-4.18-1.359s-2.749-1.007-4.124-1.51c-1.357-.547-2.725-1.067-4.074-1.637S118.849,45.615,117.526,44.977Z"/></svg>