<svg id="word" xmlns="http://www.w3.org/2000/svg" xmlns:xlink="http://www.w3.org/1999/xlink" viewBox="0 0 160 160"><defs><style>.cls-1{fill:#d7bb91;}.cls-1,.cls-2,.cls-3,.cls-4,.cls-5,.cls-7,.cls-8{stroke:#9d4b9c;stroke-width:0.567px;}.cls-2{fill:#faaf40;}.cls-3{fill:url(#radial-gradient);}.cls-4{fill:#fff;}.cls-5{fill:none;}.cls-6{fill:#9d4b9c;}.cls-7{fill:#e7e6dd;}.cls-8{fill:#231f20;}</style><radialGradient id="radial-gradient" cx="70.362" cy="73.253" r="41.513" gradientUnits="userSpaceOnUse"><stop offset="0" stop-color="#fff"/><stop offset="0.8" stop-color="#eff0f0"/><stop offset="1" stop-color="#d8d7cc"/></radialGradient></defs><path class="cls-1" d="M70.875,113.772a61.6,61.6,0,0,1,3.36,7.682c.6,2.282-.48,5.762,1.2,5.524s2.28-.363,2.4.358,1.683,2.521.242,2.4-3.124,2.041-2.16,2.278,2.64-.837,4.44-.119,6.482,1.32,8.522,1.8,4.2-.119,5.163-.119.36-1.8,1.682-1.321a14.878,14.878,0,0,0,3.839.481s-3.721-1.56-1.68-2.04,2.881-1.683,3.363-1.683.238-1.56.238-1.56-1.8.962-8.043,0-8.522-.6-9.364-.96A9.369,9.369,0,0,1,80,124.1c-1.318-1.56-4.079-7.444-3.961-8.044S72.436,112.332,70.875,113.772Z"/><path class="cls-1" d="M69.913,114.133a18.222,18.222,0,0,1-5.04,2.519c-2.161.481-5.884.96-6.124,2.642s.363,3.721,1.44,4.442a5.763,5.763,0,0,0,3.6.839c1.562,0,7.562.24,7.324,1.081s-3.123.6-2.161,1.322.238,1.079-1.082.718-2.762.6-2.161,1.082,1.682.479-.6.238a25.782,25.782,0,0,1-7.441-1.68c-2.04-.961-2.641-.358-4.081-3.6s-2.28-4.923-3.721-5.164-3.6-1.319-.961-1.2,3.961-.721,5.163-.841,5.042-.36,6.482-.96a5.819,5.819,0,0,0,2.641-2.4c.358-.6,6.481-.6,6.72-.119A1.482,1.482,0,0,1,69.913,114.133Z"/><path class="cls-2" d="M90.2,46.067a12.041,12.041,0,0,1,4.082.481c1.32.6,8.161,2.4,9.481,2.161s3.962-1.082,2.281-2.041-3.722-3.12-4.2-3.12-8.163-1.68-8.163-1.68L89.84,43.787Z"/><path class="cls-3" d="M97.523,36.946s1.561-1.441-.478-4.082-8.044-3.961-12-3-8.764,7.083-9.122,15.366,1.2,14.643,3.36,18.244,4.8,9,2.639,10.445a15.164,15.164,0,0,1-9,2.521c-4.2,0-7.562,2.4-11.165,4.562s-6.96,4.681-9.6,5.041-7.923,2.16-11.4,1.2-4.8-3-6-3.12,0,1.92,0,1.92-2.76-2.28-2.519-.84a26.845,26.845,0,0,0,1.322,4.082s-3.242-3.363-2.162-.6,6.483,11.164,10.444,14.886,15.725,10.083,18.727,10.2,7.922-.96,10.323,1.8,6.6.721,8.881-.359,11.646-5.164,16.327-7.444,8.764-7.8,10.444-10.323,3.6-10.084,2.88-14.526-6.72-14.164-11.523-18.245-9-9.844-8.763-12.726.719-3.481,1.562-3.96,1.559-3,1.559-3Z"/><path class="cls-2" d="M93.081,38.986s3.123-2.161,4.442-2.04,3.481,2.4,4.922,3.119,8.885.722,7.683,2.4a6.843,6.843,0,0,1-6.482,2.52,91.844,91.844,0,0,1-9.482-1.68c-.361-.24-1.682-1.2-1.682-1.2Z"/><path class="cls-4" d="M90.3,39s.88-4.58-1.585-4.932-2.289,1.408-2.2,2.29.265,2.113.265,2.113Z"/><path class="cls-5" d="M97.523,129.016c-3.194.043-6.25.683-9.482.121"/><path class="cls-5" d="M95.124,131.779c-3.378-.077-6.284-1.388-9.724-1.2"/><path class="cls-5" d="M56.35,123.015c2.814,2,4.94,3.523,8.761,3.36"/><path class="cls-6" d="M86.471,36.4c1.255-1.3,2.386.137,2.2,1.629,0,0-.168.615-.617.519s-1.184-.323-1.184-.323Z"/><path class="cls-5" d="M85.16,47.029a4.647,4.647,0,0,0,4.863,1.439"/><path class="cls-7" d="M85.761,38.505s4.679-.961,6,.12,2.885,2.792,1.084,4.713S87.8,44.987,87.8,44.987"/><path class="cls-4" d="M91.642,78.239s5.881,9.6,1.8,16.686-7.8,11.643-12.724,11.764-10.683-.121-13.924,0-6,.12-9.124-1.441-3.841-1.56-6.242-2.76-3.122-1.561-4.683-4.08-1.8-5.4-.72-4.444l2.161,1.921s-4.32-4.2-4.32-6.481,2.4.359,2.76.359-4.8-5.161-2.042-4.681A18.642,18.642,0,0,1,49.868,87s-3.843-3.721-1.562-3,3,1.681,6.122.84,4.561-1.68,7.083-2.28,4.322-.6,6.362-1.921a23.994,23.994,0,0,1,7.8-2.521h7.563"/><path class="cls-5" d="M87.892,98.88c-1.624,3.144-6,3.707-9.094,4.689"/><path class="cls-5" d="M53.349,90.964c-6.272-.807-5.073,3.813-.006,3.841.153,0,.147,0-.016,0a6.891,6.891,0,0,0-3.7,1.432C49.659,97.6,53.1,97.992,55,98.172a8.145,8.145,0,0,0-5.4,1.337c1.872,1.159,4.568,1.387,6.808,1.905.151-.12-.548.162-.674.231a2.322,2.322,0,0,1,.033.605c3.216,1.315,6.963.773,10.07-.6"/><path class="cls-5" d="M73.275,98.647c2.6.295,5.9.522,8.164-1.2"/><path class="cls-5" d="M78.679,101.287c1.42-.917,2.778-1.786,4.2-2.64"/><path class="cls-5" d="M90.921,88.443a5.612,5.612,0,0,1-3,7.322"/><path class="cls-5" d="M88.88,90.364a3.434,3.434,0,0,1-2.4,4.082"/><path class="cls-5" d="M91.281,83.641c1.6,1.379,2.572,3.53,1.562,5.4"/><path class="cls-5" d="M84.8,90.6a5.876,5.876,0,0,1-2.4,2.88"/><path class="cls-5" d="M87.68,96.844c-.774,2.233-3.244,3.809-5.4,4.8"/><path class="cls-5" d="M53.854,94.916a15.142,15.142,0,0,0,4.315-.466"/><path class="cls-5" d="M54.089,98.064a9.777,9.777,0,0,0,4.778.35"/><path class="cls-5" d="M56.4,101.414a31.468,31.468,0,0,0,5.376-.086"/><path class="cls-5" d="M60.266,99.463a7.489,7.489,0,0,0,4.546-1.4"/><path class="cls-5" d="M71.105,101.677a6.019,6.019,0,0,0,3.264-.466"/><path class="cls-5" d="M58.4,96.315c3.668.513,9.287.932,12-1.981"/><path class="cls-5" d="M65.627,83.727c1.765-1.011,3.585-2.01,5.711-1.865"/><path class="cls-5" d="M75.186,80.7a13.846,13.846,0,0,1,3.847,0"/><path class="cls-5" d="M91.038,96.432a10.165,10.165,0,0,1-4.9,6.3"/><path class="cls-8" d="M98.486,40.305a2.053,2.053,0,0,0-1.563-1.5s-.754-.012-.174.512.817.407.817.407a18.873,18.873,0,0,1,.991,1.632C98.731,41.764,98.486,40.305,98.486,40.305Z"/></svg>