<svg id="word" xmlns="http://www.w3.org/2000/svg" viewBox="0 0 160 160"><defs><style>.cls-1{fill:#e6a434;}.cls-2{fill:#ffdf39;}</style></defs><polygon class="cls-1" points="83.5 63.5 88.968 43.056 91.5 65.5 109.5 59.5 94.5 71.5 115.164 77.319 92.5 77.5 106.5 97.5 87.5 81.5 83.535 102.636 79.5 80.5 63.161 89.312 74.5 76.5 51.518 68.944 75.5 68.5 65.683 47.624 83.5 63.5"/><polygon class="cls-2" points="83.5 63.5 88.968 43.056 91.5 65.5 109.5 59.5 94.5 71.5 115.164 77.319 92.5 77.5 106.5 97.5 87.5 81.5 83.535 102.636 79.5 80.5 63.161 89.312 74.5 76.5 51.518 68.944 75.5 68.5 65.683 47.624 83.5 63.5"/><polygon class="cls-1" points="83.439 67.072 86.817 54.443 88.381 68.308 99.501 64.601 90.235 72.014 103 75.609 88.999 75.721 97.648 88.076 85.91 78.192 83.461 91.249 80.968 77.574 70.874 83.018 77.879 75.103 63.682 70.435 78.497 70.161 72.433 57.265 83.439 67.072"/></svg>