<svg id="word" xmlns="http://www.w3.org/2000/svg" xmlns:xlink="http://www.w3.org/1999/xlink" viewBox="0 0 160 160"><defs><style>.cls-1,.cls-9{fill:#e38848;}.cls-1,.cls-2,.cls-3,.cls-4,.cls-5,.cls-7,.cls-8{stroke:#9d4b9c;stroke-miterlimit:10;stroke-width:0.929px;}.cls-2{fill:#945e4a;}.cls-3{fill:#78473e;}.cls-4{fill:url(#radial-gradient);}.cls-11,.cls-5{fill:#fff;}.cls-6{fill:#9d4b9c;}.cls-7{fill:none;}.cls-8{fill:#56372f;}.cls-10{fill:#54c5d4;}</style><radialGradient id="radial-gradient" cx="99.469" cy="47.747" r="65.999" gradientUnits="userSpaceOnUse"><stop offset="0.236" stop-color="#f28f3f"/><stop offset="0.263" stop-color="#f28f3f"/><stop offset="1" stop-color="#965f4a"/></radialGradient></defs><path class="cls-1" d="M132.165,33.379a12.537,12.537,0,0,1,2.054-3.085,43.674,43.674,0,0,1,3.9-2.641s-.858,6.826-1.866,7.616a4.525,4.525,0,0,1-2.222.876Z"/><path class="cls-2" d="M101.95,84.5s-.126,10.6-.574,12.781a32.524,32.524,0,0,0,0,7.461c.113.779-1.558,4.6-1.159,5.911s.257,5.434.665,6.444,1.93,3.405,2.016,4.574a11.225,11.225,0,0,0,.949,2.987l-4.378.248a1.374,1.374,0,0,0-.631-2.194c-1.692-.853-2.246-1.263-2.306-1.8s.925-1.648.988-3.139-.988-12.606-.988-12.606l1.053-24.578Z"/><path class="cls-2" d="M56.269,84.817s-1.845,9.121-3.718,11.5-6.147,4.023-5.538,5.646.864,6.181,1.507,7.685a16.328,16.328,0,0,1,.944,4.54,11.669,11.669,0,0,0,1.17,4.395,26.322,26.322,0,0,0,2.718,2.872l-5.913,1.089a8.4,8.4,0,0,0-2.152-2.447c-.916-.425-1.312.658-1.141-1.914s-.989-8.727-1.279-10.472-3.364-5.471-2.557-7.56S41.984,96,42.623,93.866s.949-9.369.949-9.369l7.52-6.9Z"/><path class="cls-3" d="M37.709,56.8a4.943,4.943,0,0,0-5.381.08c-2.836,1.852-9.064,7.114-9.93,11.558s-.352,10.018-.631,12.381-.105,3.865-1.035,5.242A6.943,6.943,0,0,1,18.588,88.1s4.415-1.99,4.479-2.788-1.376,3.4-2.1,4.425a68.5,68.5,0,0,1-5.637,5.077l2.846-.949s-5.2,3.867-5.777,5.545-1.81,2.767-1.811,4.595,0,3.725,0,3.725a21.217,21.217,0,0,1,.8-2.846,8.956,8.956,0,0,1,2.172-3.044s-1.328,2.366-1.15,3.864.824,6.8-.355,8.936,2.926-1.741,3.493-4.356a38.709,38.709,0,0,1,3.735-8.61c.723-1.087,2.414-3.17,2.414-3.17s-.869,4.727-1.331,7.35a17.112,17.112,0,0,1-1.608,4.8,47.116,47.116,0,0,1,3.736-6.165c1.764-2.227,4.1-4.673,4.791-8.324s2.054-12.493,2.054-12.493.868-6.805,1.018-10.818,2.631-9.92,4.455-11.892,3.475-3.644,3.475-3.644Z"/><path class="cls-4" d="M123.761,33.369s-10.573,1.3-15.682,4.043S83.036,53.7,77.731,54.262,61.95,53.8,61.95,53.8s-8.564-.908-10.654-.7-10.917,1.484-13.912,3.942-6.391,8.416-7.945,12.9-.452,13.437.346,15.4,2.417,4.568,2.362,6.787a11.977,11.977,0,0,1-2.8,6.513,3.868,3.868,0,0,0-1.7,2.658c-.367,1.516,1.608,4.575.619,8.421S24.3,122.6,24.847,123.636s3.882,2.365,3.225,3.194.358,2.337.358,2.337l5.5-.106s-2.212-5.751-3.012-7.085S33,105.37,33,105.37s3.114-1.7,3.056-3.533,1.969-5.68,3.818-7.53,7.641-6.341,8.229-7.553a23.077,23.077,0,0,1,2.946-3.647s12.228,7.43,19.439,7.866,17.187.115,17.187.115,3.474,4.681,3.3,7.554-.213,6.505.119,7.474-.307,10.906-.962,13.194-2.827,4.122-1.937,4.814,4.683,5.163,4.683,5.163L96.6,128.1s-.487-1.056-1.845-5.332c-1.475-4.644,1.322-14.019,1.322-14.019s3.615-7.175,3.171-8.778-.962-11.561.974-12.756,7.311-9.312,8.347-13.34,4.249-13.426,5.372-15.106,4.3-5.257,4.3-5.257,3.208,7.107,4.45,7.039,3.692,3.676,3.864,4.192a19.213,19.213,0,0,0,.9,3.423,3.3,3.3,0,0,0,2.38,1.736s.05,2.039,1.618,1.981,5.2-2.168,5.349-4.39-2.519-10.328-2.654-11.35.831-8.276.6-9.5S135.795,33,123.761,33.369Z"/><path class="cls-3" d="M100.217,38.357s-13.442,9.824-14.976,11.5a26.461,26.461,0,0,1-5.369,4.094c-.925.506-7.111,1.527-7.111,1.527l12.557-2.469-4.41,5.052s6.566-3.6,7.018-4.917-2.947,6.062-3.444,6.8,5.534-5.437,6.3-6.446-.673,4.352-1.265,4.952a46.779,46.779,0,0,1,3.454-3.636c1.975-1.915.969,2.115.034,3.716s-1.668,3.31.183,1.5,5.829-5.14,5.509-5.981-2.506,6.762-2.506,6.762a69.065,69.065,0,0,0,4.557-5.37c.983-1.515,4.13-3.674,4.13-3.674l-3.523,7.428s5.4-5.3,5.9-7.428,1.553-2.416,1.553-2.416-3.526,6.968-3.154,7.349,3.72-4.273,4.217-4.933,2.294-5.16,2.294-5.16-.1,3.535,0,4.979a4.79,4.79,0,0,0,1.167,2.586,21.36,21.36,0,0,1-.1-5.866,8.459,8.459,0,0,0,.225-3.207l.774,4.7a29.6,29.6,0,0,1,1.919-4.816c1.179-2.247.44,4,.44,4a10.61,10.61,0,0,0,1.269-4.579c.24-2.983.677,3.392.677,3.392l.576-6.066s.494,4.607.825,6.5c.141.8,1.712,2.283,1.712,2.283a50.951,50.951,0,0,1-.725-7.089c.048-2.557.524-6.027,1.309-6.335s7.227-1.491,7.432.325,2.165,5.824,2.112,7.687a3.783,3.783,0,0,0,1.462,2.956l.346-2.183s1.071,3.529,1.248,3.768,1.6,2.62,1.6,2.62S135.307,47,135.51,46.3s1.6,4.524,1.806,5.077.835,2.167.835,2.167l-.18-7.447s.75,3.908,2.142,4.519l1.392.612-2.363-5.119s1.466,1.322,2.363,1.145a16.176,16.176,0,0,1,3.012,0s-4.549-3.606-5.721-4.548-1.895-6.451-3.516-7.9-2.683-1.5-5.614-2.653-10.987-1.552-13.651-.893S101.475,37.434,100.217,38.357Z"/><path class="cls-1" d="M122.209,37.56a7.675,7.675,0,0,1,.5-4.565,16.923,16.923,0,0,1,4.086-5.361,6.2,6.2,0,0,0,1.387-1.122,46.67,46.67,0,0,0,0,5.255c.188,1.529.508,4.457-.163,5.1"/><path class="cls-5" d="M125.179,47.464s1.5-1.254,2.5,0a5.443,5.443,0,0,1,.982,3.052,3.39,3.39,0,0,1-1.837-.461C125.909,49.513,124.766,48.128,125.179,47.464Z"/><path class="cls-6" d="M128.829,63.947a13.205,13.205,0,0,1,.957,3.335c.095.563.16,1.135.218,1.692a6.517,6.517,0,0,1-.026,1.76,6.091,6.091,0,0,1-.75-1.607,13.516,13.516,0,0,1-.351-1.7A12.038,12.038,0,0,1,128.829,63.947Z"/><path class="cls-6" d="M131.608,66.862a2.045,2.045,0,0,1,.221-.661.724.724,0,0,1,.336-.274.906.906,0,0,1,.425-.12,1.461,1.461,0,0,1,1.372.872,1.8,1.8,0,0,1-.057,1.542,1.187,1.187,0,0,1-.574.57.641.641,0,0,1-.725-.121c.477-.049.569-.395.617-.694a1.689,1.689,0,0,0-.108-.915.971.971,0,0,0-.57-.533.481.481,0,0,0-.189-.026.3.3,0,0,0-.208.021C131.993,66.593,131.812,66.762,131.608,66.862Z"/><path class="cls-7" d="M86.966,77.6a21.569,21.569,0,0,0,.712,13.493"/><path class="cls-8" d="M104.285,124.655a20.461,20.461,0,0,1,1.167,3.734c-.018.761-.527,1.29-1.757,1.469a10.646,10.646,0,0,1-3.507-.571l-.719-4.384s1.805-.511,2.922-.686A2.6,2.6,0,0,1,104.285,124.655Z"/><path class="cls-8" d="M92.111,128.389l4.139-1.256s1.685,3.418,1.832,3.8c.316.827-.75,2.473-2.083,2.547a7.917,7.917,0,0,1-3.195-.893l-.693-3.7Z"/><path class="cls-8" d="M49.814,121.675l3.428-.662s1.834,3.24,2.212,4.125-.938,1.68-2.249,1.775-3.995.2-3.995.2l-1.889-4.217Z"/><path class="cls-8" d="M27.749,127.947a35.114,35.114,0,0,1,3.724-1.033,2.813,2.813,0,0,1,1.664.237l1.873,4.41a7.026,7.026,0,0,1-2.749.615c-1.24-.073-3.547-.472-3.547-.472Z"/><path class="cls-7" d="M52.8,73.589a10.164,10.164,0,0,1,.11,3.366,10.179,10.179,0,0,1-1.831,3.673L50.14,82"/><path class="cls-9" d="M124.425,37.855a12.393,12.393,0,0,1,.341-3.972,12.4,12.4,0,0,1,2.724-3.962,20.953,20.953,0,0,1-.389,3.44,2.9,2.9,0,0,0-.226,1.2"/><path class="cls-6" d="M124.425,37.855a9.1,9.1,0,0,1-.252-2.235,6.913,6.913,0,0,1,.352-2.289,8.257,8.257,0,0,1,1.149-2.015,13.77,13.77,0,0,1,1.517-1.7l.808-.751-.084,1.071a18.672,18.672,0,0,1-.325,2.36,6.1,6.1,0,0,1-.343,1.165,4.6,4.6,0,0,0-.372,1.1,3.285,3.285,0,0,1,.048-1.2,9.7,9.7,0,0,0,.1-1.14c.027-.771.036-1.552.045-2.322l.724.319a15.9,15.9,0,0,0-2.5,3.421,9.42,9.42,0,0,0-.572,2.025C124.594,36.383,124.5,37.112,124.425,37.855Z"/><ellipse class="cls-6" cx="127.52" cy="49.197" rx="0.934" ry="1.027"/><path class="cls-6" d="M117.778,48.17a15.505,15.505,0,0,1,.435,3.1c.066,1.016.148,1.964.3,3.054a4.516,4.516,0,0,1-1.224-2.987A7.129,7.129,0,0,1,117.778,48.17Z"/><path class="cls-10" d="M132.143,73.535s25.443,22.339,14.562,36.869-30.631,7.652-34.7,3.408-6.2-17.35,7.045-21.441C129.7,89.079,138.541,84.611,132.143,73.535Z"/><path class="cls-11" d="M119.991,97.906a5.137,5.137,0,0,0-.119.619,5.738,5.738,0,0,1-.086.636,9.949,9.949,0,0,0-.141,1.246,8.861,8.861,0,0,0,.069,1.111.61.61,0,0,1-.163.579.664.664,0,0,1-.426.181.445.445,0,0,1-.432-.263,2.281,2.281,0,0,1-.128-.911q0-.4.2-1.913l.235-1.67c.048-.244.084-.472.106-.683a1.587,1.587,0,0,1,.127-.574.9.9,0,0,1,.266-.231.633.633,0,0,1,.29-.121.422.422,0,0,1,.378.2.886.886,0,0,1,.131.491Zm1.319-3.48a.325.325,0,0,1-.05.175.483.483,0,0,1-.142.139.756.756,0,0,1-.213.091,1,1,0,0,1-.269.035h-.824c-.043,0-.091,0-.143.006a.943.943,0,0,0-.216.053,1.509,1.509,0,0,1-.241.06,1.112,1.112,0,0,1-.177.017.452.452,0,0,1-.184-.038.481.481,0,0,1-.147-.1.44.44,0,0,1-.1-.142.418.418,0,0,1-.034-.163.3.3,0,0,1,.111-.256.774.774,0,0,1,.307-.129c.069-.019.139-.036.213-.05s.156-.026.244-.035.187-.014.3-.019l.373-.011.3-.006c.074,0,.126,0,.158-.007s.053-.01.074-.012l.066-.008a.558.558,0,0,1,.073-.005h.09a.424.424,0,0,1,.313.113A.4.4,0,0,1,121.31,94.426Z"/><path class="cls-11" d="M124.918,99.306v0c.092-.517.137-.814.137-.888a.947.947,0,0,1,.139-.529.438.438,0,0,1,.386-.214.683.683,0,0,1,.453.137.4.4,0,0,1,.162.308,3.214,3.214,0,0,1-.158.7l-.026.094a7.665,7.665,0,0,0-.281,1.345c-.032.347-.047.627-.047.841a3.624,3.624,0,0,0,.09.7.856.856,0,0,1,.012.128c0,.066-.062.154-.185.265a.6.6,0,0,1-.4.167q-.562,0-.563-.855a9.4,9.4,0,0,1,.2-1.768C124.87,99.588,124.9,99.443,124.918,99.306Zm2.063-3.51a.677.677,0,0,1-.273.532.8.8,0,0,1-.474.228.606.606,0,0,1-.455-.213.632.632,0,0,1-.2-.427.659.659,0,0,1,.2-.5.774.774,0,0,1,.563-.191.645.645,0,0,1,.464.169A.535.535,0,0,1,126.981,95.8Z"/><path class="cls-11" d="M130.926,99.306v0c.091-.517.137-.814.137-.888a.947.947,0,0,1,.139-.529.437.437,0,0,1,.386-.214.68.68,0,0,1,.452.137.4.4,0,0,1,.163.308,3.277,3.277,0,0,1-.158.7l-.026.094a7.485,7.485,0,0,0-.281,1.345q-.048.521-.048.841a3.624,3.624,0,0,0,.09.7.876.876,0,0,1,.013.128c0,.066-.062.154-.186.265a.594.594,0,0,1-.4.167q-.564,0-.564-.855a9.484,9.484,0,0,1,.2-1.768C130.878,99.588,130.9,99.443,130.926,99.306Zm2.062-3.51a.677.677,0,0,1-.273.532.8.8,0,0,1-.474.228.6.6,0,0,1-.454-.213.632.632,0,0,1-.2-.427.658.658,0,0,1,.2-.5.778.778,0,0,1,.564-.191.641.641,0,0,1,.463.169A.535.535,0,0,1,132.988,95.8Z"/><path class="cls-11" d="M133.556,102.03a.586.586,0,0,1-.377-.1c-.082-.067-.122-.243-.122-.528a2.393,2.393,0,0,1,.021-.365q.021-.125.207-.2a1.548,1.548,0,0,1,.536-.073.579.579,0,0,1,.4.122.355.355,0,0,1,.137.267.734.734,0,0,1-.075.367,1.287,1.287,0,0,1-.324.318A.749.749,0,0,1,133.556,102.03Z"/><path class="cls-11" d="M135.734,102.03a.587.587,0,0,1-.378-.1q-.121-.1-.121-.528a2.269,2.269,0,0,1,.021-.365q.021-.125.207-.2a1.544,1.544,0,0,1,.536-.073.58.58,0,0,1,.4.122.355.355,0,0,1,.137.267.734.734,0,0,1-.075.367,1.278,1.278,0,0,1-.325.318A.744.744,0,0,1,135.734,102.03Z"/><path class="cls-11" d="M137.911,102.03a.586.586,0,0,1-.377-.1q-.121-.1-.122-.528a2.393,2.393,0,0,1,.021-.365q.023-.125.207-.2a1.548,1.548,0,0,1,.536-.073.583.583,0,0,1,.4.122.357.357,0,0,1,.136.267.734.734,0,0,1-.075.367,1.287,1.287,0,0,1-.324.318A.749.749,0,0,1,137.911,102.03Z"/><path class="cls-11" d="M119.991,108.4a5.137,5.137,0,0,0-.119.619,5.707,5.707,0,0,1-.086.636,9.94,9.94,0,0,0-.141,1.247,8.857,8.857,0,0,0,.069,1.11.61.61,0,0,1-.163.579.664.664,0,0,1-.426.181.445.445,0,0,1-.432-.263,2.281,2.281,0,0,1-.128-.911q0-.4.2-1.913l.235-1.67c.048-.244.084-.472.106-.683a1.587,1.587,0,0,1,.127-.574.9.9,0,0,1,.266-.231.644.644,0,0,1,.29-.121.422.422,0,0,1,.378.2.886.886,0,0,1,.131.491Zm1.319-3.48a.325.325,0,0,1-.05.175.472.472,0,0,1-.142.139.786.786,0,0,1-.213.092,1.043,1.043,0,0,1-.269.034h-.824c-.043,0-.091,0-.143.006a.943.943,0,0,0-.216.053,1.509,1.509,0,0,1-.241.06,1.112,1.112,0,0,1-.177.017.452.452,0,0,1-.184-.038.481.481,0,0,1-.147-.1.44.44,0,0,1-.1-.142.418.418,0,0,1-.034-.163.3.3,0,0,1,.111-.256.774.774,0,0,1,.307-.129c.069-.019.139-.036.213-.05s.156-.026.244-.035.187-.014.3-.019l.373-.011.3-.006c.074,0,.126,0,.158-.007s.053-.01.074-.012l.066-.008a.558.558,0,0,1,.073,0h.09a.424.424,0,0,1,.313.113A.4.4,0,0,1,121.31,104.919Z"/><path class="cls-11" d="M124.918,109.8v0c.092-.517.137-.814.137-.888a.947.947,0,0,1,.139-.529.438.438,0,0,1,.386-.214.683.683,0,0,1,.453.137.4.4,0,0,1,.162.308,3.214,3.214,0,0,1-.158.7l-.026.094a7.665,7.665,0,0,0-.281,1.345c-.032.347-.047.627-.047.841a3.624,3.624,0,0,0,.09.7.856.856,0,0,1,.012.128c0,.066-.062.154-.185.265a.6.6,0,0,1-.4.167q-.562,0-.563-.855a9.4,9.4,0,0,1,.2-1.768C124.87,110.081,124.9,109.936,124.918,109.8Zm2.063-3.51a.677.677,0,0,1-.273.532.8.8,0,0,1-.474.228.606.606,0,0,1-.455-.213.632.632,0,0,1-.2-.427.659.659,0,0,1,.2-.5.774.774,0,0,1,.563-.191.645.645,0,0,1,.464.169A.535.535,0,0,1,126.981,106.289Z"/><path class="cls-11" d="M130.926,109.8v0c.091-.517.137-.814.137-.888a.947.947,0,0,1,.139-.529.437.437,0,0,1,.386-.214.68.68,0,0,1,.452.137.4.4,0,0,1,.163.308,3.277,3.277,0,0,1-.158.7l-.026.094a7.485,7.485,0,0,0-.281,1.345q-.048.52-.048.841a3.624,3.624,0,0,0,.09.7.876.876,0,0,1,.013.128c0,.066-.062.154-.186.265a.594.594,0,0,1-.4.167q-.564,0-.564-.855a9.484,9.484,0,0,1,.2-1.768C130.878,110.081,130.9,109.936,130.926,109.8Zm2.062-3.51a.677.677,0,0,1-.273.532.8.8,0,0,1-.474.228.6.6,0,0,1-.454-.213.632.632,0,0,1-.2-.427.658.658,0,0,1,.2-.5.778.778,0,0,1,.564-.191.641.641,0,0,1,.463.169A.535.535,0,0,1,132.988,106.289Z"/><path class="cls-11" d="M133.556,112.523a.586.586,0,0,1-.377-.1c-.082-.067-.122-.243-.122-.528a2.4,2.4,0,0,1,.021-.365q.021-.124.207-.2a1.548,1.548,0,0,1,.536-.073.579.579,0,0,1,.4.122.355.355,0,0,1,.137.267.734.734,0,0,1-.075.367,1.27,1.27,0,0,1-.324.318A.749.749,0,0,1,133.556,112.523Z"/><path class="cls-11" d="M135.734,112.523a.587.587,0,0,1-.378-.1q-.121-.1-.121-.528a2.277,2.277,0,0,1,.021-.365q.021-.124.207-.2a1.544,1.544,0,0,1,.536-.073.58.58,0,0,1,.4.122.355.355,0,0,1,.137.267.734.734,0,0,1-.075.367,1.261,1.261,0,0,1-.325.318A.744.744,0,0,1,135.734,112.523Z"/><path class="cls-11" d="M137.911,112.523a.586.586,0,0,1-.377-.1q-.121-.1-.122-.528a2.4,2.4,0,0,1,.021-.365q.023-.124.207-.2a1.548,1.548,0,0,1,.536-.073.583.583,0,0,1,.4.122.357.357,0,0,1,.136.267.734.734,0,0,1-.075.367,1.27,1.27,0,0,1-.324.318A.749.749,0,0,1,137.911,112.523Z"/></svg>