<svg id="word" xmlns="http://www.w3.org/2000/svg" viewBox="0 0 160 160"><defs><style>.cls-1{fill:#3f3f41;}.cls-1,.cls-2,.cls-3,.cls-4,.cls-5{stroke:#9a4d9a;stroke-miterlimit:10;stroke-width:1.117px;}.cls-2{fill:#6c685b;}.cls-3{fill:#e23626;}.cls-4,.cls-5{fill:none;}.cls-5{stroke-linecap:round;}</style></defs><path class="cls-1" d="M19.576,95.305s-1.76,2.137-1.76,3.519v5.907s4.022,3.142,16.966,4.65,29.534.754,34.058-2.639,10.18-10.557,12.945-9.175,4.524,2.388,6.786,1.634,5.53-1.382,6.158-3.9,0-11.562,0-11.939-.831-.88-.831-.88-5.7,2.137-8.092,2.64-14.075,6.912-15.96,8.922-10.808,4.4-14.83,4.525-18.977-1.9-22.873-2.269-11.059-1-11.059-1Z"/><path class="cls-2" d="M83.517,36.615s-.783-.806,1.064-4,3.545-8.5,7.8-6.194,3.365,4.839,1.517,6.166c-2.8,2.015-3.406,6.092-3.406,6.092Z"/><path class="cls-3" d="M91.713,34.981S88.32,43.4,88.948,51.193s.88,14.076,2.137,18.726,3.141,8.923,2.764,10.557-.879,3.393-1.508,3.77-16.714,5.907-19.1,8.8-9.928,6.912-14.7,6.786-20.611-.5-26.015-1.256a55.033,55.033,0,0,1-11.436-3.268s-1.257-5.027,2.639-7.792,9.8-3.267,12.442-4.147,10.305-5.4,12.819-9.049S59.54,57.98,61.3,49.937A68.018,68.018,0,0,0,62.556,33.6s7.918.88,8.672,1.759,1.508,1.885,5.907.88S91.713,34.981,91.713,34.981Z"/><path class="cls-4" d="M74.244,38s-3.142-2.513-3.393,2.514S68.463,57.6,65.2,62.127,54.262,75.7,53.257,77.208s-3.9.377,0,5.278,6.786,8.546,7.666,8.546,5.152-2.765,7.289-2.765,6.732,2.3,6.732,2.3"/><path class="cls-4" d="M90.471,70.922a12.429,12.429,0,0,1-.9,4.806,35.679,35.679,0,0,1-3.3,7.87"/><path class="cls-4" d="M36.048,83.818c2.7-.329,5.336,1.059,7.378,2.853a25.931,25.931,0,0,1,6.842,10.636"/><path class="cls-4" d="M80.8,36.615a67.771,67.771,0,0,1,.076,8.011,43.692,43.692,0,0,1-5.012,16.75,100.942,100.942,0,0,1-9.637,14.7,31.142,31.142,0,0,1-6.676,7.045"/><path class="cls-5" d="M59.875,46.853a24.275,24.275,0,0,1,6.6,2.371,19.473,19.473,0,0,1,4.349,2.539,17.346,17.346,0,0,1,3.6,4.725"/><path class="cls-5" d="M70.66,63.411a14.624,14.624,0,0,1-2.219-3.05c-1.038-1.9-1.743-4.137-3.523-5.368-1.849-1.278-4.3-1.085-6.537-.841"/><path class="cls-5" d="M67.384,68.713A21.068,21.068,0,0,0,64.6,62.518a7,7,0,0,0-1.546-1.776,8.452,8.452,0,0,0-4.14-1.275,8.147,8.147,0,0,0-2.875-.018"/><path class="cls-5" d="M63.538,73.45c-1.093-2.233-3.506-3.5-5-5.485a5.689,5.689,0,0,0-1.265-1.452,4.2,4.2,0,0,0-2.138-.5l-2.549-.127"/><path class="cls-5" d="M59.4,77.849c-1.04-1.462-2.249-4.238-4.049-4.824-2.163-.705-4.663-.251-6.8.272a10.049,10.049,0,0,0-4.5,2,10.859,10.859,0,0,0-2.042,2.913,9.411,9.411,0,0,0-1.139,2.718"/><path class="cls-5" d="M48.552,73.3c1.636-1.058,4.3-5.952,6.248-5.863A28.362,28.362,0,0,1,60.537,68.5"/><path class="cls-5" d="M53.686,64.006a5.665,5.665,0,0,1,1.347-1.092A5.334,5.334,0,0,1,56.29,62.5a45.243,45.243,0,0,1,9.452-1.162"/><path class="cls-5" d="M56.972,59.006a.515.515,0,0,1,.051-.732,1.5,1.5,0,0,1,.757-.306l6.626-1.337a10.688,10.688,0,0,1,3.76-.3"/><path class="cls-5" d="M58.851,52.957a2.58,2.58,0,0,1,1.3-1.885,7.035,7.035,0,0,1,2.234-.769,24.849,24.849,0,0,1,7.544-.669"/><path class="cls-5" d="M59.59,46.76a2.193,2.193,0,0,1,1.072-1.636,6.507,6.507,0,0,1,1.89-.717l5.472-1.444c3.224-.851,6.577-1.708,9.856-1.1"/><path class="cls-5" d="M50.061,59.912A6.709,6.709,0,0,1,51.607,57.1l7.406-9.441a11.628,11.628,0,0,1,1.931-2.085,9.082,9.082,0,0,1,2.245-1.206c1.188-.472,1.69-1.124,2.945-1.368a29.542,29.542,0,0,0-7.468,1.506,8.253,8.253,0,0,1-2.908.846,2.078,2.078,0,0,1-2.18-1.691,2.277,2.277,0,0,1,.79-1.646c1.858-1.839,4.868-1.909,7.377-1.176A14.677,14.677,0,0,1,65.584,42.6c.161.1.167.467.015.351"/><path class="cls-5" d="M72.048,63.887a6.588,6.588,0,0,0,.849-3.954l.013-7.625a10.961,10.961,0,0,0-.448-3.828c-1-2.7-4.054-4.026-6.675-5.215,1.335-.757,1.834-2.4,2.759-3.625A5.894,5.894,0,0,1,72.3,37.393a2.245,2.245,0,0,1,2.321.746,1.867,1.867,0,0,1-.571,2.264,5.759,5.759,0,0,1-2.321.98q-2.67.706-5.275,1.635"/><path class="cls-1" d="M67.141,107.137s-1.759,2.137-1.759,3.519v5.907s4.021,3.142,16.966,4.65,29.533.754,34.058-2.639,10.179-10.557,12.944-9.174,4.525,2.387,6.787,1.633,5.529-1.382,6.158-3.9,0-11.562,0-11.939-.831-.879-.831-.879-5.7,2.136-8.092,2.639-14.076,6.912-15.961,8.923-10.808,4.4-14.829,4.524-18.977-1.9-22.873-2.269-11.06-1-11.06-1Z"/><path class="cls-2" d="M131.082,48.447s-.782-.8,1.064-4,3.546-8.5,7.8-6.194,3.365,4.839,1.517,6.166c-2.805,2.015-3.406,6.092-3.406,6.092Z"/><path class="cls-3" d="M139.279,46.814s-3.394,8.42-2.765,16.212.879,14.075,2.136,18.725,3.142,8.923,2.765,10.557-.88,3.393-1.508,3.77-16.715,5.907-19.1,8.8-9.928,6.912-14.7,6.787-20.61-.5-26.014-1.257a55.051,55.051,0,0,1-11.437-3.268s-1.256-5.027,2.64-7.791,9.8-3.268,12.441-4.148,10.306-5.4,12.819-9.048,10.557-16.338,12.316-24.381a67.986,67.986,0,0,0,1.257-16.338s7.918.88,8.672,1.76,1.508,1.885,5.906.879S139.279,46.814,139.279,46.814Z"/><path class="cls-4" d="M121.81,49.83s-3.142-2.514-3.393,2.513-2.388,17.092-5.656,21.616S101.827,87.532,100.822,89.04s-3.9.377,0,5.279,6.787,8.545,7.666,8.545,5.153-2.764,7.289-2.764,6.732,2.3,6.732,2.3"/><path class="cls-4" d="M138.037,82.755a12.437,12.437,0,0,1-.9,4.806,35.688,35.688,0,0,1-3.295,7.869"/><path class="cls-4" d="M83.614,95.65c2.7-.329,5.336,1.059,7.377,2.853a25.921,25.921,0,0,1,6.842,10.636"/><path class="cls-4" d="M128.364,48.447a68,68,0,0,1,.075,8.012,43.709,43.709,0,0,1-5.011,16.749,100.758,100.758,0,0,1-9.638,14.7,31.146,31.146,0,0,1-6.676,7.046"/><path class="cls-5" d="M107.441,58.685a24.257,24.257,0,0,1,6.6,2.371,19.473,19.473,0,0,1,4.349,2.539A17.306,17.306,0,0,1,122,68.32"/><path class="cls-5" d="M118.225,75.244a14.677,14.677,0,0,1-2.219-3.05c-1.038-1.9-1.742-4.138-3.523-5.369-1.848-1.278-4.3-1.085-6.536-.84"/><path class="cls-5" d="M114.949,80.545a21.051,21.051,0,0,0-2.786-6.2,7.022,7.022,0,0,0-1.546-1.776,8.462,8.462,0,0,0-4.14-1.275,8.152,8.152,0,0,0-2.876-.018"/><path class="cls-5" d="M111.1,85.282c-1.093-2.233-3.506-3.5-5-5.485a5.673,5.673,0,0,0-1.266-1.452,4.2,4.2,0,0,0-2.137-.5l-2.55-.127"/><path class="cls-5" d="M106.97,89.681c-1.041-1.462-2.25-4.238-4.05-4.824-2.163-.7-4.662-.251-6.8.272a10.039,10.039,0,0,0-4.5,2,10.841,10.841,0,0,0-2.043,2.912,9.431,9.431,0,0,0-1.138,2.719"/><path class="cls-5" d="M96.118,85.129c1.636-1.058,4.3-5.951,6.247-5.863a28.372,28.372,0,0,1,5.738,1.061"/><path class="cls-5" d="M101.252,75.838a5.7,5.7,0,0,1,1.346-1.092,5.35,5.35,0,0,1,1.257-.411,45.26,45.26,0,0,1,9.453-1.162"/><path class="cls-5" d="M104.537,70.838a.515.515,0,0,1,.052-.731,1.494,1.494,0,0,1,.756-.307l6.627-1.336a10.71,10.71,0,0,1,3.76-.3"/><path class="cls-5" d="M106.416,64.79a2.583,2.583,0,0,1,1.3-1.886,7.042,7.042,0,0,1,2.234-.769,24.874,24.874,0,0,1,7.543-.669"/><path class="cls-5" d="M107.156,58.592a2.191,2.191,0,0,1,1.072-1.636,6.507,6.507,0,0,1,1.89-.717L115.59,54.8c3.224-.851,6.577-1.708,9.855-1.1"/><path class="cls-5" d="M97.627,71.744a6.7,6.7,0,0,1,1.546-2.808l7.406-9.441a11.62,11.62,0,0,1,1.93-2.085,9.1,9.1,0,0,1,2.245-1.206c1.189-.472,1.69-1.124,2.946-1.368a29.551,29.551,0,0,0-7.469,1.507,8.284,8.284,0,0,1-2.907.846,2.08,2.08,0,0,1-2.181-1.692,2.278,2.278,0,0,1,.791-1.646c1.857-1.839,4.868-1.909,7.376-1.176a14.669,14.669,0,0,1,3.84,1.755c.16.1.167.467.015.352"/><path class="cls-5" d="M119.614,75.719a6.6,6.6,0,0,0,.849-3.954l.013-7.625a10.93,10.93,0,0,0-.449-3.827c-1-2.7-4.053-4.027-6.675-5.216,1.336-.757,1.834-2.4,2.759-3.625a5.9,5.9,0,0,1,3.752-2.247,2.245,2.245,0,0,1,2.321.746,1.866,1.866,0,0,1-.572,2.264,5.765,5.765,0,0,1-2.32.981q-2.67.706-5.275,1.635"/></svg>