<svg id="word" xmlns="http://www.w3.org/2000/svg" viewBox="0 0 160 160"><defs><style>.cls-1{fill:#798834;}.cls-2{fill:#9fa234;stroke:#9d4b9c;stroke-width:0.5px;}</style></defs><path class="cls-1" d="M47.259,122.311s-.779-15.96-.779-22.448-4.541-25.951-4.541-30.622V63.532s7.136,29.844,8.044,34.385,5.969,21.15,5.969,21.15V84.682c0-4.022-3.633-11.678-6.358-18.166S43.5,48.74,43.5,48.74s5.06,9.082,9.212,17.906S61.4,94.673,62.57,98.825s6.888,15.325,6.358,14.274S66.2,90.651,65.943,82.606s-1.038-9.213-2.724-15.441-3.763-15.96-3.763-15.96S61.142,56.525,64,65.478s7.4,29.974,8.045,35.423,1.3,12.976,1.427,12.2-.778-25.952-.908-32.958-1.078-14.8-1.038-22.967a43.359,43.359,0,0,1,.778-9.083s.519,12.283,1.947,23.529,2.076,27.076,2.206,32.266-.649,1.427,3.5-9.343,3.9-19.722,6.364-26.081,3.627-17.776,3.627-17.776S88.261,70.409,86.056,85.2s-1.947,31.531-1.557,32.958,3.762-13.105,6.1-24.783,3.244-25.952,3.763-30.753a77.441,77.441,0,0,0,0-11.548,108.27,108.27,0,0,1,2.595,23.616c-.127,12.391.9,27.583-.077,32.657s.6-20.979,2.283-26.818,7.007-17.907,7.007-17.907-5.709,16.35-5.969,23.1.389,22.318.389,25.951-.648-1.168,3.244-13.624,11.159-32.828,11.159-32.828-4.282,16.219-6.358,27.248c-3.1,16.482,1.038,24.784,1.038,24.784s3.763-13.884,7.915-19.723,12.716-19.2,13.106-19.593-9.083,16.349-11.159,26.47-2.855,18.555-2.855,18.555Z"/><path class="cls-2" d="M35.838,125.636s5.711-3.974,4.284-9.813S35.97,97.917,35.84,96.36s6.747,9,8.823,13.581,6.358,12.37,6.358,12.37,3.634-4.671,2.985-6.488-1.541-21.15.073-30.233,6.155-22.967,6.155-22.967-1.557,13.625-1.557,24.005-1.946,28.547.13,30.623c.988.988.13-16.739,2.465-25.043s4.412-17.647,4.412-17.647-1.946,19.723-1.038,26.47S64,119.976,64,120.365s.165-20.242,2.613-24.654S72.3,81.438,72.3,81.438,69.836,99.6,68.928,106.092a109.641,109.641,0,0,0-.649,15.181s3.763.649,4.931-3.763,2.725-12.456,2.725-15.441S78.27,84.293,78.66,82.606s1.816-7.4,1.816-7.4.519,13.884,0,26.6,1.557,20.242,1.557,20.242.668-14.921,4.288-22.837c2.106-4.605,4.276-10.9,8.688-14.533s13.365-8.564,13.365-8.564-9.862,6.488-11.938,11.808-8.564,12.975-4.931,31.79c.305,1.576,2.985-.259,3.763-4.022s2.595-14.663,4.412-19.723,3.244-10.121,3.244-10.121S105.26,101.55,105,107s-1.168,12.457-1.168,12.457A157.141,157.141,0,0,1,111.1,100.9a129.99,129.99,0,0,1,8.693-14.532s-5.709,17.647-6.358,21.28-2.595,14.013-2.595,14.4,2.855-13.106,5.969-18.166,11.029-10.51,12.456-11.289a22.984,22.984,0,0,0,3.115-2.206s-7.137,5.969-9.992,10.9-4.541,17.257-4.541,17.257a31.918,31.918,0,0,1,3.244-8.823,33.986,33.986,0,0,1,6.488-7.526s-3.763,5.839-4.282,9.083-.505,14.14-.505,14.14Z"/></svg>