<svg id="word" xmlns="http://www.w3.org/2000/svg" viewBox="0 0 160 160"><defs><style>.cls-1{fill:#494244;}.cls-1,.cls-12,.cls-13,.cls-14,.cls-15,.cls-2,.cls-3,.cls-4,.cls-5,.cls-6,.cls-7,.cls-9{stroke:#994d9b;stroke-width:0.312px;}.cls-1,.cls-12,.cls-13,.cls-15,.cls-3,.cls-4,.cls-6,.cls-9{stroke-miterlimit:10;}.cls-2,.cls-5{fill:#fde1d3;}.cls-3{fill:#bdbdbf;}.cls-14,.cls-15,.cls-4{fill:none;}.cls-14,.cls-15,.cls-5{stroke-linecap:round;}.cls-6{fill:#f5b255;}.cls-7{fill:#fff;}.cls-8{fill:#994d9b;}.cls-9{fill:#e5ad3c;}.cls-10{fill:#71c09a;}.cls-11{fill:#47a347;}.cls-12{fill:#325e5e;}.cls-13{fill:#738f83;}</style></defs><path class="cls-1" d="M66.64,78.94s-.331,10.594-.653,13.336.325,13.86.327,16.1.218,1.994.326,5.609-.548,4.238-.653,6.356,1.52,4.862,1.52,6.357-1.594,2.368-1.609,5.111-1.24,6.453,3.542,3.7c2.07-1.192,5.481-.209,5.78.04a5.448,5.448,0,0,0,1.434.5,68.428,68.428,0,0,0,1.518-15.58c-.271-7.852,1.555-25.7,1.942-27.321s1.252-2.119,1.306.249,1.029,20.466,1.137,24.081-1.082,8.475-1.137,12.09a71.313,71.313,0,0,0,.488,7.354c0,.872.866,1.122,2.49,1.745s6.28.5,7.688,0a3.741,3.741,0,0,0,1.949-2.244,39.747,39.747,0,0,1-.758-9.6c.108-6.232-.866-11.966-.866-15.7s-.758-29.689-.758-29.689L74.405,79.812Z"/><polygon class="cls-2" points="74.93 41.823 75.461 48.351 81.453 55.236 87.481 49.851 84.22 46.564 84.367 42.571 74.93 41.823"/><path class="cls-3" d="M82.264,135.181s-.4.709,0,2.959-.4,4.15.329,4.606,2.708.532,3.038,0,.661-.152,1.784.912a11.364,11.364,0,0,0,6.472,2.129c2.312,0,5.482,1.216,6.209-.76a5.144,5.144,0,0,0,0-4.358c-.529-.964-4.36-3.505-4.36-3.505l-1.585-1.983s-.33-2.927-1.849-3.079-3.765-.863-3.831,1.013-.066,3.321-.066,3.321l-2.774.728-2.575-2.021Z"/><path class="cls-4" d="M82.257,139.544a6.04,6.04,0,0,1,2.456.468,3.671,3.671,0,0,1,1.856,1.84"/><path class="cls-4" d="M88.937,141.85c1.285-.3,2.5.665,3.689,1.292a8.017,8.017,0,0,0,1.917.715,1.9,1.9,0,0,0,1.808-.285,5.508,5.508,0,0,0,.557-.79,2.28,2.28,0,0,1,1.932-1,2.345,2.345,0,0,1,1.851,1.185"/><path class="cls-3" d="M65.319,143.172s-.664,1.6,1.69,2.71a9.242,9.242,0,0,0,6.218.647c1.087-.439,3.019-2.106,3.019-2.871a7.8,7.8,0,0,0,0-2.71,42.307,42.307,0,0,1-.3-5.629c0-.486-1.449-.695-1.63-.347s.284-1.321.082-2.085a3.1,3.1,0,0,0-3.1-2.363c-2.053.07-2.408-.4-2.955.7a6.7,6.7,0,0,0-.426,2.842s-.88-1.181-1.316-.278.109,3.6-.254,4.856S65.319,143.172,65.319,143.172Z"/><path class="cls-4" d="M65.736,142.578a1.246,1.246,0,0,0,.867.635,4.272,4.272,0,0,0,2.64-.1c.889-.327,1.834-.951,2.689-.519.48.243.8.773,1.21,1.148a2.312,2.312,0,0,0,3.033.068"/><path class="cls-5" d="M84.993,18.091s2.814,1.378,3.419,3.809,1.292,4.048.874,5.977a25.071,25.071,0,0,0-.657,6.078c.133,1.453.153,6.37-2.01,8.189s-5.9,2.971-8.115,2.311a19.763,19.763,0,0,1-7.42-4.923c-1.454-1.78-.77-1.017-2.226-3.439S64.605,28.381,66.593,23.9s4.738-8.145,7.586-8.56S83.709,16.4,84.993,18.091Z"/><path class="cls-6" d="M70.464,22.479a15.353,15.353,0,0,0,2.861-1.951c1.465-1.26,2.745-2.792,5.017-2.464s3.126,1.581,4.053,2.318a18.355,18.355,0,0,0,4.529,1.867s-1.865-1.8-2.122-2.14-.654-.729.668.027,2.016.891,2.38,2.262,2.189,2.221,2.189,2.221a8.51,8.51,0,0,0-.525-3.672c-.685-1.19-.851-2.978-4.353-5.017s-8.022-4.465-10.908-3.111-6.939,3.465-7.2,5.715a20.394,20.394,0,0,0-.167,2.187,12.813,12.813,0,0,0-3.348,3.264c-.8,1.527-1.047,4.181-.448,5.115s1.666,1.778,1.8,2.589-.051-1.834,1.7-.444,3.7,3.233,3.7,3.233a37.687,37.687,0,0,1-1.455-5.226c-.219-1.708.193-5.133.913-5.953Z"/><path class="cls-2" d="M69.007,33.85s-2.476-3.545-3.322-3.252-1.908.547-1.521,1.7.815,2.428,1.328,2.679.468-.3.9.975A2.661,2.661,0,0,0,68.1,37.854c.554.165,1.487-.505,1.487-.505l.482-.982"/><path class="cls-7" d="M76.608,31.444s.262-2.043,1.6-2,1.671,2.88,1.671,2.88-.019,2.464-2.617.756A1.914,1.914,0,0,1,76.608,31.444Z"/><ellipse class="cls-8" cx="78.672" cy="31.72" rx="1.169" ry="1.085" transform="translate(15.532 88.367) rotate(-63.856)"/><path class="cls-7" d="M85.672,31.017s.262-2.042,1.6-2S88.545,32,88.545,32s-.7,1.289-1.576,1.095S85.672,31.017,85.672,31.017Z"/><ellipse class="cls-8" cx="87.761" cy="31.249" rx="1.059" ry="0.937" transform="translate(22.958 98.174) rotate(-65.522)"/><path class="cls-9" d="M71.809,21.677s2.248-.436,3.862-.864a5.437,5.437,0,0,1,4.611.921A12.106,12.106,0,0,0,83.025,23.2s2.292,1.2-.391-1.037a10.665,10.665,0,0,0-5.114-2.51s3.466.189,4.461,1.021a12.89,12.89,0,0,0,4.088,2.312S84.5,21.85,82.721,20.247s-4.286-3.2-5.875-2.823S71.809,21.677,71.809,21.677Z"/><path class="cls-10" d="M63.16,81.367a11.7,11.7,0,0,0,6.886,3.49,49.375,49.375,0,0,0,12.228,0c2.493-.25,11.634.395,11.634.395a23.691,23.691,0,0,1-1.78-8c0-.272,0-.567,0-.872H63.662Z"/><path class="cls-11" d="M91.231,51.888l-4.475-3.515-1.277.836a8.234,8.234,0,0,0-1.541,2.108l-2.376,3.251-4.274-4.736-2.137-1.87L68.6,51.577a10.709,10.709,0,0,1,1.378,3.149l21.549,1.261C91.376,53.735,91.231,51.888,91.231,51.888Z"/><path class="cls-10" d="M91.529,55.987,69.98,54.726a6.459,6.459,0,0,1,.185,2.086,14.533,14.533,0,0,0,.339,3.52l21.312.41C91.745,59.278,91.635,57.537,91.529,55.987Z"/><path class="cls-11" d="M67.769,70.919a3.022,3.022,0,0,1-.81,1.224,24.668,24.668,0,0,1-2.971,1l-.326,3.241H92.124c-.011-1.473-.045-3.292-.084-5.14Z"/><path class="cls-11" d="M91.89,63.106c0-.585-.029-1.417-.074-2.364L70.5,60.332a8.3,8.3,0,0,1-.258,5.073l21.69.97C91.909,65.044,91.89,63.889,91.89,63.106Z"/><path class="cls-10" d="M91.936,66.375l-21.69-.97c-.022.044-.037.088-.06.132-.976,1.85-1.779,4.038-2.417,5.382l24.271.322C92.005,69.555,91.965,67.855,91.936,66.375Z"/><path class="cls-12" d="M68.707,46.983s-.339,4.56.848,6.039,6.521,10.4,6.521,10.4L74.64,86.5v5.387s-6.781,1.025-9.323,0a5.567,5.567,0,0,1-3.2-3.614c-.355-.616-2.39-2.3-.7-7.125a54.181,54.181,0,0,0,2.2-11.486L62.112,67.75l.831-6.97-3.39-8Z"/><path class="cls-12" d="M68.251,46.041a1.771,1.771,0,0,0-2.225.942c-.574,1.479-1.838,1.132-2,1.675s-2.6,1.568-1.593,3.028a8.846,8.846,0,0,0,4.163,3.8c2.3.986,9.476,7.931,9.476,7.931L69.615,46.983l.144-1.037Z"/><path class="cls-13" d="M75.413,44.3A11.791,11.791,0,0,0,72.2,46.041c-1.005.942-1.822-.955-3.065-.869s-.58,1.636,0,3.691,4.547,10.114,4.547,10.114l1.779,2.878s1.046-10.495.615-12.992S75.413,44.3,75.413,44.3Z"/><path class="cls-12" d="M91.841,48.323s.339,4.56-.848,6.039-6.522,10.4-6.522,10.4l1.436,23.082v5.387s6.781,1.025,9.324,0a5.563,5.563,0,0,0,3.2-3.613c.356-.617,2.39-2.3.695-7.126A54.252,54.252,0,0,1,96.926,71l1.509-1.912-.831-6.97L101,54.116Z"/><path class="cls-12" d="M92.3,47.381a1.771,1.771,0,0,1,2.225.942c.575,1.479,1.839,1.132,2,1.675s2.6,1.568,1.594,3.028a8.849,8.849,0,0,1-4.164,3.8c-2.3.986-9.476,7.931-9.476,7.931l6.461-16.436-.143-1.037Z"/><path class="cls-13" d="M85.135,45.643a11.791,11.791,0,0,1,3.213,1.738c1,.942,1.821-.955,3.064-.869s.581,1.636,0,3.691-4.547,10.114-4.547,10.114L85.086,63.2S84.041,52.7,84.471,50.2,85.135,45.643,85.135,45.643Z"/><path class="cls-14" d="M82.853,35.748a1.348,1.348,0,0,1,2.2.123"/><path class="cls-14" d="M81.465,38.477c.359.2.692.436,1.056.622a2.126,2.126,0,0,0,1.177.272,1.1,1.1,0,0,0,.936-.686"/><path class="cls-14" d="M76.838,26.548c.083.076.206-.023.283-.1a1.792,1.792,0,0,1,1.079-.505,5.394,5.394,0,0,1,1.211.023"/><path class="cls-14" d="M86.678,25.858l.8.186c.324.075.7.194.806.507"/><path class="cls-12" d="M59.553,52.776s-10.6,15.595-9,19.275S63.16,82.607,63.16,82.607l1.423-6.973a9.162,9.162,0,0,1-3.662-4.393c-1.024-2.87,2.239-9.386,2.239-9.386Z"/><path class="cls-12" d="M97.6,62.121s4.59,9.155,3.391,10.995-5.17,6.3-5.17,6.3l1.743,4.455s5.811.583,8.135-3.05,5.327-5.568,2.809-12.493A75.389,75.389,0,0,0,101,54.116s-.636,1.781-1.838,4.338A34.908,34.908,0,0,0,97.6,62.121Z"/><path class="cls-13" d="M65.141,73.65,61.859,83.818s.813,1.356,1.641,1.647,2.57-9.2,2.57-9.2Z"/><polygon class="cls-13" points="93.908 77.474 96.406 87.739 97.665 85.252 95.051 76.796 93.908 77.474"/><path class="cls-15" d="M94.408,135.163l-1.947.421a1.236,1.236,0,0,0-.368.122,1,1,0,0,0-.2.155,4.458,4.458,0,0,0-.861,1.126"/><path class="cls-15" d="M95.041,136.322a2.575,2.575,0,0,0-1.526,1.239,2.043,2.043,0,0,1-.444.689"/><path class="cls-15" d="M95.634,137.325a10.51,10.51,0,0,0-1.471,1.681"/><path class="cls-15" d="M68.76,135.943l1.634.115a7.3,7.3,0,0,1,2.107.358"/><path class="cls-15" d="M68.848,137.638a8.606,8.606,0,0,0,1.522-.023,5.245,5.245,0,0,1,1.93.318"/><path class="cls-15" d="M68.989,138.943a5.5,5.5,0,0,0,1.256-.018,3.889,3.889,0,0,1,1.982.464"/></svg>