<svg id="word" xmlns="http://www.w3.org/2000/svg" viewBox="0 0 160 160"><defs><style>.cls-1{fill:#fde0ce;}.cls-1,.cls-11,.cls-2,.cls-3,.cls-4,.cls-5,.cls-6,.cls-7,.cls-9{stroke:#9c4c9c;stroke-miterlimit:10;stroke-width:0.555px;}.cls-2{fill:#c1d840;}.cls-3{fill:#bca530;}.cls-4{fill:#fff;}.cls-5{fill:#a77c4f;}.cls-6,.cls-9{fill:none;}.cls-6{stroke-linecap:round;}.cls-7{fill:#de8e3e;}.cls-8{fill:#9c4c9c;}.cls-10{fill:#31b89d;}.cls-11{fill:#26a7df;}</style></defs><path class="cls-1" d="M48.427,70.685l.142,5.411s8.933,6.185,9.412,5.866S59.659,74.3,59.659,74.3Z"/><polygon class="cls-2" points="66.654 82.545 79.591 94.124 98.679 95.826 93.943 105.176 67.651 101.359 66.654 89.551 63.54 81.093 66.654 82.545"/><path class="cls-2" d="M63.54,81.093c1.752,3.593,15.95,41.562,15.95,41.562s-18.327.218-25.527.218c-3.916,0-21.382.436-21.382.436s.881-23.719,3.368-33.644S47.081,75.057,47.081,75.057L49.7,76.874l9.957,2.994Z"/><polygon class="cls-3" points="92.514 70.015 99.474 40.449 145.228 41.797 129.114 117.297 86.533 108.592 92.514 70.015"/><polygon class="cls-4" points="100.704 44.752 89.587 106.232 127.171 113.965 141.48 46.1 100.704 44.752"/><path class="cls-2" d="M80.207,86.44s-7.218,2.975-11.475,1.3-12.585-9.261-19.617-9.076S36.9,87.92,43.377,94.768,69.1,101.616,76.32,99.21s7.773-5.737,7.773-5.737-2.22-1.851-2.405-3.332-.371-2.4-.371-2.4S81.807,85.867,80.207,86.44Z"/><polygon class="cls-5" points="89.542 74.408 98.873 66.091 100.921 68.587 97.714 72.384 88 81.082 86.965 76.905 89.542 74.408"/><path class="cls-1" d="M73.842,44.085S75.487,52.9,74.9,55.174a13.2,13.2,0,0,0,1.038,8.841c1.568,3.106-.621,6.587-2.446,8.293s-9.25,5.634-13.8,5.346c-7.29-.463-19.282-10.107-21.169-14.8s-1.5-16.323.63-19.68,9.369-12,15.056-11.045S73.242,40.45,73.842,44.085Z"/><path class="cls-4" d="M58.479,50.956s.663-2.516-1.645-2.9-4.505.424-4.413,3.748,3.911,3.639,4.642,3.09S58.479,50.956,58.479,50.956Z"/><path class="cls-6" d="M52.3,41.1a2.894,2.894,0,0,1,1.73-.8,8.336,8.336,0,0,1,1.939.037,9.965,9.965,0,0,1,4.875,1.373"/><path class="cls-6" d="M62.309,58.187a3.031,3.031,0,0,1,1.763-1.04,2.357,2.357,0,0,1,2.181,1.208c.451.753.605.792.553,1.669"/><path class="cls-7" d="M50.2,34.849s4.683,2.925,8.911,3.513a11.265,11.265,0,0,1,6.4,2.926s1.133.069.063-1.428a14.909,14.909,0,0,1-1.735-3.927,25.441,25.441,0,0,0,3.531,4.86,24.047,24.047,0,0,0,3.507,2.5L68.306,40.1s.174,1.648,3.595,3.323,2.816,6.332,2.816,6.332l.2,1.867s1.831.9,2.6-2.752-.431-9.351-.431-9.351,2.716-.551,2.595,1.186,2.255-.761-1.872-3.992S72.931,32.8,72.931,32.8s3.214-.66,3.943-1.335-3.134.585-4.311.383S62.1,26.955,57.7,26.288s-15.1-.065-17.1,1.373-9.3,5.386-11.671,7.886-3.985,3.079-3.945,5.689.289,4.516-1.419,6.537-3.286,2.531-2.423,5.054S18.108,54.581,18,59.236s5.285,11.449,5.285,11.449l-.463-3.046s.958,2.249,2.221,5.247,10.105,5.3,10.105,5.3l2.983.156s3.106-.669-.819-2.4c-1.888-.832,1.5-.73,2.684-.093,3.589,1.938,6.081-1.372,5.805-1.5s2.4-.717,2.4-.717-6.543-6.5-6.338-11.556c.138-3.406,1.25-13.66,1.25-13.66s1.59,4.507,1.926,5-.856-2.414,1.326-6.656a63.738,63.738,0,0,0,3.356-8.427A12.852,12.852,0,0,0,50.2,34.849Z"/><path class="cls-8" d="M57.927,52.644s.4-1.489-.956-1.708-2.642.263-2.6,2.227a2.023,2.023,0,0,0,2.712,1.813C57.516,54.649,57.927,52.644,57.927,52.644Z"/><path class="cls-4" d="M74.816,54.087s.663-2.516-1.644-2.9-4.506.424-4.414,3.748,3.911,3.639,4.642,3.089S74.816,54.087,74.816,54.087Z"/><path class="cls-8" d="M74.31,55.674s.4-1.489-.956-1.708-2.641.262-2.6,2.227a2.023,2.023,0,0,0,2.712,1.812C73.9,57.678,74.31,55.674,74.31,55.674Z"/><path class="cls-6" d="M70.094,45.337a3.165,3.165,0,0,1,2.506.49,5.79,5.79,0,0,1,1.738,1.944"/><path class="cls-8" d="M48.5,25.919a30.835,30.835,0,0,1,6.684-.947,17.784,17.784,0,0,1,3.384.156A10.634,10.634,0,0,1,61.742,26.3a18.527,18.527,0,0,0,6.321,2.038,5.2,5.2,0,0,0,3.249-.289,1.575,1.575,0,0,0,.8-1.358,1.192,1.192,0,0,0-.827-1.289,1.209,1.209,0,0,1,.862,1.29,1.631,1.631,0,0,1-.8,1.416,5.3,5.3,0,0,1-3.3.368,18.736,18.736,0,0,1-6.426-1.926,10.3,10.3,0,0,0-3.111-1.083,17.325,17.325,0,0,0-3.311-.082,30.361,30.361,0,0,0-6.558,1.066Z"/><path class="cls-8" d="M49.2,26.694a15.834,15.834,0,0,1,6.529,3.477,43.43,43.43,0,0,1,5.069,5.35,43.308,43.308,0,0,0-5.244-5.134,15.388,15.388,0,0,0-6.469-3.149Z"/><path class="cls-8" d="M48.853,26.21a3.956,3.956,0,0,1,.769,2.278,10.331,10.331,0,0,1-.183,2.324,12.468,12.468,0,0,1-1.653,4.295c-.812,1.307-1.849,2.435-2.557,3.774a4.815,4.815,0,0,0-.353,4.352,4.881,4.881,0,0,1,.229-4.415c.679-1.381,1.689-2.552,2.442-3.854a12.09,12.09,0,0,0,1.481-4.221c.2-1.446.293-3.094-.6-4.18Z"/><path class="cls-8" d="M48.677,26.512l-3.972,8.016C43.4,37.209,42,39.845,40.9,42.607a20.289,20.289,0,0,0-1.665,8.673,11.451,11.451,0,0,0,3.513,7.956A11.519,11.519,0,0,1,39.1,51.289a20.481,20.481,0,0,1,1.544-8.782c1.063-2.8,2.427-5.462,3.692-8.16l3.847-8.078Z"/><path class="cls-8" d="M48.5,26.411a13.193,13.193,0,0,0-5.877,2.438,17.962,17.962,0,0,0-4.416,4.7,26.12,26.12,0,0,0-2.872,5.833,9.333,9.333,0,0,0-.17,6.388,9.4,9.4,0,0,1,.038-6.43A26.3,26.3,0,0,1,37.971,33.4a18.308,18.308,0,0,1,4.4-4.881,13.679,13.679,0,0,1,6.043-2.653Z"/><path class="cls-8" d="M43.119,50.926a38.965,38.965,0,0,0,.047,6.427,19.662,19.662,0,0,0,1.4,6.235,13.739,13.739,0,0,0,3.856,5.066,12.967,12.967,0,0,0,2.712,1.725,2.6,2.6,0,0,0,1.559.244A1.411,1.411,0,0,0,53.823,69.6,1.429,1.429,0,0,1,52.7,70.657a2.647,2.647,0,0,1-1.593-.214,13,13,0,0,1-2.772-1.681A13.955,13.955,0,0,1,44.314,63.7,20.038,20.038,0,0,1,42.751,57.4a39.468,39.468,0,0,1-.186-6.505Z"/><path class="cls-8" d="M74.778,58.826a1.273,1.273,0,0,0-.047.7,7.219,7.219,0,0,0,.173.894A4.232,4.232,0,0,0,75.722,62a5.388,5.388,0,0,0,2.719,2.34,3.424,3.424,0,0,0,3.3-1.1,2.446,2.446,0,0,0,.853-1.59,1.209,1.209,0,0,0-1.081-1.284,1.244,1.244,0,0,1,1.153,1.286,2.549,2.549,0,0,1-.823,1.691,5.2,5.2,0,0,1-1.555,1.112,2.851,2.851,0,0,1-1.926.165A5.738,5.738,0,0,1,75.37,62.26a4.649,4.649,0,0,1-.955-1.713,7.688,7.688,0,0,1-.21-.954,1.521,1.521,0,0,1,.155-1.133Z"/><path class="cls-9" d="M69.394,64.607a9.47,9.47,0,0,1-9.205-.017,17.924,17.924,0,0,1-6.69-6.766"/><path class="cls-10" d="M45.632,93.778s-1.719-3.738-.178-4.4,1.595,2.106,1.595,2.106,2.527-2.9,2.65-.37S45.632,93.778,45.632,93.778Z"/><path class="cls-10" d="M36.679,115.767s-.78-5.937,1.192-5.926a1.623,1.623,0,0,1,1.787,1.8s2.65-1.355,2.28.863S36.679,115.767,36.679,115.767Z"/><path class="cls-10" d="M39.568,100.122s-4.438-1.871-3.484-3.486,2.9-.281,2.9-.281,2.02-3.22,3.114-1.214S39.568,100.122,39.568,100.122Z"/><path class="cls-10" d="M76.323,95.511S72.56,93.276,74.034,92.1a1.609,1.609,0,0,1,2.461.339s2.382-2.48,1.907.032S76.323,95.511,76.323,95.511Z"/><path class="cls-10" d="M54.035,96.619s-.987-4.557.625-4.145,1.346,2.444,1.346,2.444,3.665-1.018,1.764.925A2.977,2.977,0,0,1,54.035,96.619Z"/><path class="cls-10" d="M67.49,120.146s-.188-5.115,1.861-4.865a1.661,1.661,0,0,1,1.612,2.066s3.654.032,1.655,1.926C70.545,121.236,67.49,120.146,67.49,120.146Z"/><path class="cls-10" d="M65.3,98.6s-.883-4.084.744-3.851a1.552,1.552,0,0,1,1.282,1.921s3-.014,1.137,1.335S65.3,98.6,65.3,98.6Z"/><path class="cls-10" d="M50.1,87.283S45.227,81,48.246,80.628s2.835,2.342,2.835,2.342,3.271-2.428,3.209-.025S50.1,87.283,50.1,87.283Z"/><path class="cls-10" d="M45.8,106.011s-3.758-5.176-1.078-6.162,2.557,2.28,2.557,2.28,1.787-2.341,2.711-.246S45.8,106.011,45.8,106.011Z"/><path class="cls-10" d="M62.068,92.1s-5-2.631-3.722-3.7,3.125.713,3.125.713.991-3.914,1.863-.8S62.068,92.1,62.068,92.1Z"/><path class="cls-1" d="M81.826,84.589s.926-5.275,2.267-6.385.509-3.886,2.314-4.719,2.915,2.359,2.776,2.915a17.238,17.238,0,0,1-1.11,2.263s3.886-3.513,6.385-4.068,5.274-.833,5,1.111-3.887,2.359-3.887,2.359,1.943-.554,1.8.9-2.082,2.29-2.082,2.29.972-.139.972,1.11-1.527,2.221-1.527,2.221,2.221-.972,1.111.833-4.581,2.915-4.581,2.915-2.5,3.053-4.3,3.609a10.4,10.4,0,0,1-4.352,0S77.523,87.92,81.826,84.589Z"/><path class="cls-11" d="M97.717,67.121l2.2-2.576s1.625,1.942,1.955,1.546.765.76.765.76L100.3,69.327S99.393,66.877,97.717,67.121Z"/><path class="cls-10" d="M49.431,120.426s-2.156-3.129-.616-3.788,2.034,1.5,2.034,1.5,2.526-2.9,2.649-.37S49.431,120.426,49.431,120.426Z"/><path class="cls-10" d="M68.036,108.715s-.987-4.557.626-4.144,1.346,2.444,1.346,2.444,3.664-1.018,1.763.925A2.976,2.976,0,0,1,68.036,108.715Z"/><path class="cls-10" d="M59.675,112.52s-4.873-6.285-1.854-6.655,2.835,2.341,2.835,2.341,2.095-2.4,2.033,0S59.675,112.52,59.675,112.52Z"/><polygon class="cls-5" points="99.92 64.545 106.41 60.796 102.64 66.851 99.92 64.545"/><path class="cls-8" d="M103.466,62.319l1.277,1.156,2.6-3.191s.188-.749-.562-.375C106.21,60.2,103.466,62.319,103.466,62.319Z"/><path class="cls-9" d="M107.824,59.469c2.052-2.973,6.17-3.466,9.777-3.683,2.274-.138,4.772-.21,6.574,1.184,1.552,1.2,2.2,3.212,2.65,5.123a15.776,15.776,0,0,1,.5,5.427,18.929,18.929,0,0,1-2.5,6.508,63.263,63.263,0,0,1-6.505,10.413,22,22,0,0,1-9.776,7.191"/><path class="cls-9" d="M127.624,66.28a8.392,8.392,0,0,1,1.727-5.58,12.687,12.687,0,0,1,4.617-3.694c-1.019,2.052-1.513,4.484-3.235,6-.342.3-.724.554-1.047.875-.621.618-1.1,1.523-1.968,1.653"/><path class="cls-9" d="M122,78.948a3.135,3.135,0,0,1,1.908-1.607,23.673,23.673,0,0,1,6.216-1.712,2.986,2.986,0,0,1-.692,1.23,4.816,4.816,0,0,1-3.024,1.405,14.317,14.317,0,0,1-3.395-.137"/><path class="cls-9" d="M116.776,86.443a9.526,9.526,0,0,1-1.912-7.666,28.188,28.188,0,0,1,2.669-7.676A67.307,67.307,0,0,1,119.1,81.12c.092,1.159.081,2.5-.809,3.25"/><path class="cls-9" d="M98.813,92.016a23.807,23.807,0,0,1,13.379.546c3.888,1.321,7.355,3.625,10.771,5.9"/><path class="cls-9" d="M106.163,45.53a2.392,2.392,0,0,0,1.633,2.816,3.558,3.558,0,0,0,3.341-.882,3.094,3.094,0,0,0,6.116.761,8.913,8.913,0,0,0,4.847,1.22c1.678-.2,3.324-1.6,3.2-3.291"/></svg>