<svg id="word" xmlns="http://www.w3.org/2000/svg" viewBox="0 0 160 160"><defs><style>.cls-1{fill:#f8d89a;}.cls-1,.cls-2,.cls-3,.cls-4,.cls-5{stroke:#9c4c9c;stroke-miterlimit:10;stroke-width:0.994px;}.cls-2{fill:#5064ad;stroke-linecap:round;}.cls-3{fill:#de96a2;}.cls-4{fill:#b9b9bd;}.cls-5{fill:#727275;}</style></defs><path class="cls-1" d="M40.719,59.363,25.035,60.619a24.563,24.563,0,0,1,3.986,1.932c2.5,1.438,10.574,5.766,10.574,5.766a5.852,5.852,0,0,0,2.863-4.425A4.514,4.514,0,0,0,40.719,59.363Z"/><path class="cls-2" d="M50.117,61.188,39.8,59.342s3.254,1.383,2.4,1.976a10.963,10.963,0,0,1-3.39.88s3.418,1.574,2.479,2.358-3.106-.07-3.106-.07,2.168,1.312,2.251,2.238-3.74.034-3.74.034,6.842,3.375,10.023,3.677,71.155,16.119,71.155,16.119l2.2-10.885Z"/><path class="cls-3" d="M126.144,77.245s5.337.7,6.24,1.465,2.421,2.415,1.74,4.529-.167,4.831-2.552,5.928-8.14-1.451-8.14-1.451Z"/><path class="cls-4" d="M118.82,75.4l8.59,1.873a14.85,14.85,0,0,0-2.078,5.3c-.939,5.552-.079,6.046-.079,6.046l-8.586-2.1s-.9-3.416-.158-5.7A49.4,49.4,0,0,1,118.82,75.4Z"/><path class="cls-5" d="M30.149,60.054s-6.545-.2-6.449.225,2.812,1.433,2.812,1.433l3.344.971a13.507,13.507,0,0,0,.25-1.522A7.43,7.43,0,0,0,30.149,60.054Z"/></svg>