<svg id="word" xmlns="http://www.w3.org/2000/svg" viewBox="0 0 160 160"><defs><style>.cls-1{fill:#e8262e;stroke-miterlimit:10;}.cls-1,.cls-3,.cls-5,.cls-6{stroke:#9c4c9c;}.cls-2{fill:#811517;opacity:0.21;}.cls-3{fill:#7e5048;}.cls-4{fill:#f07a6d;opacity:0.33;}.cls-5{fill:none;}.cls-6{fill:#bfd874;}</style></defs><path class="cls-1" d="M74.386,55.289s5.519.965,7.7-.363,12.594-4.611,22.2-1.085c5.9,2.164,12.45,7.484,14.631,11.71s6.29,14.728,3.338,29.576-12.193,24.025-16.686,28.492-11.038,7.243-14.5,6.881-5.518-1.328-7.7-.966-3.081,1.209-5.264.724-4.748-1.81-6.544-1.327-4.879,2.415-9.883,0-13.606-10.865-16.687-15.574-14.169-19.481-10.4-38.206c3.571-17.755,14-22.4,26.833-21.915C73.649,53.7,74.386,55.289,74.386,55.289Z"/><path class="cls-2" d="M70.329,62.38s4.2,3.25,6.071,3.6a26.858,26.858,0,0,0,9.062.351c3.175-.614,7.472-2.02,5.6-4.04s-9.341-2.9-12.61-2.724S67.247,59.744,70.329,62.38Z"/><path class="cls-3" d="M79.576,66.509s.654-1.933-1.494-7.2a51.286,51.286,0,0,0-5.044-9.84c-.561-.616-1.587-.528-.934-1.317s.934-.528.934-1.408a18.134,18.134,0,0,0-.561-2.985l2.617-1.934A20.625,20.625,0,0,1,78.175,47.8a60.6,60.6,0,0,1,1.961,9.577c.374,2.46,2.4,9.167,2.4,9.167Z"/><path class="cls-4" d="M93.108,59.1s5.49,3.772,0,6.02c-5.505,2.263-15.693,3.021-11.273,3.766,4.378.759,17.333-.242,18.154-4.269S96.959,58.592,93.108,59.1Z"/><path class="cls-2" d="M115.088,65.16s-8.811-2.8-15.174,25.465c-2.567,11.4.292,18.827-4.128,23.847s-22.617,14.979-16.757,13.8c10.167-2.041,12.6,2.544,19.249-1.4C125.119,110.934,126.125,65,115.088,65.16Z"/><path class="cls-5" d="M71.709,59.932c-5.146,1.456.406,5.739,4.706,6.251,4.095.489,9.159.644,12.51-1.66"/><path class="cls-6" d="M79.023,51.171l2.587-9.962S88.356,26.338,98.023,24.5s19.718,2.528,25.526,2.764,10.307-.93,11.474-2.6-.833,3.833-3.667,8.667-8,10.666-14.333,12.833-20,3.5-25,.167-6.667-7-7.667-5.834-4.833,12-4.833,12Z"/></svg>