<svg id="word" xmlns="http://www.w3.org/2000/svg" viewBox="0 0 160 160"><defs><style>.cls-1{fill:#4b6931;}.cls-2{fill:none;stroke:#4b6931;stroke-width:0.992px;}.cls-3{fill:#6a984a;}.cls-3,.cls-4,.cls-5,.cls-8,.cls-9{stroke:#9c4c9c;}.cls-3,.cls-4,.cls-9{stroke-width:0.283px;}.cls-4{fill:#73ae5f;}.cls-5{fill:#df7595;}.cls-5,.cls-8{stroke-width:0.709px;}.cls-6{fill:#a31d51;}.cls-7{fill:#d55075;}.cls-8{fill:#e593b3;}.cls-9{fill:#9dc870;}.cls-10{fill:#6b9052;}</style></defs><path class="cls-1" d="M84.064,42.894s-.595-.3-1.46-.72a57.627,57.627,0,0,0-6.249-2.749c-1.542-.386-1.927.963-.964.963s7.709,2.313,5.782,2.7-5.2,3.083-3.662,3.083,6.168-2.505,6.168-2.505-.771,6.167.192,5.4,2.12-5.589,2.313-4.818,5.4,5.4,5.4,5.4-.771-3.469-2.5-5.011S84.064,42.894,84.064,42.894Z"/><path class="cls-2" d="M83.679,43.665S76.162,61.01,75.584,69.3s-4.818,23.32-2.12,38.352a103.448,103.448,0,0,0,10.6,30.451c1.927,3.276,7.73,10.209,7.73,10.209"/><path class="cls-2" d="M99.1,105.722c-9.525,6.238-16.49,17.017-11.287,37.06"/><path class="cls-2" d="M72.693,101.289C72.115,81.053,84.874,76.612,93.7,72.766"/><path class="cls-3" d="M70.317,27.348c-.963-.578-3.663-3.276-6.424.065-1.887,2.282-2.314,6.295-2.185,8.222s3.148,6.745,3.148,6.745l-.18.58c2.466-4.735,5.717-10.017,6.36-15.353A1.543,1.543,0,0,1,70.317,27.348Z"/><path class="cls-4" d="M73.015,27.926a4.567,4.567,0,0,0-1.979-.319c-.643,5.336-3.894,10.618-6.36,15.353l-1.968,4.086,2.6-4.729s2.956-.192,4.5-.385,5.139-3.791,6.038-6.1S74.815,28.569,73.015,27.926Z"/><path class="cls-4" d="M64.471,48.933a14.737,14.737,0,0,1-3.6-5.011c-.386-1.284.834-3.6,1.092-5.524s-2.7-10.02-4.561-10.728-5.911-2.186-6.553,1.542c-.144.839-.122,1.223-.322,1.421,5.121,5.915,9.038,10.338,9.948,14.69A56.191,56.191,0,0,1,64.536,49.7c1.028,1.221,10.407,14.969,10.407,14.969S66.141,50.538,64.471,48.933Z"/><path class="cls-3" d="M48.668,30.947c-2.313.192-4.755,3.4-2.7,7s4.24,5.91,7.2,5.974,4.627-.45,6.039.386a8.307,8.307,0,0,1,1.274,1.015c-.91-4.352-4.827-8.775-9.948-14.69C50.319,30.844,49.858,30.847,48.668,30.947Z"/><path class="cls-3" d="M45.7,55.868a4.159,4.159,0,0,1-.247,1.8c-.58,2.119,2.441,3.085,4.818,2.185s5.461-2.826,6.425-5.011.771-4.755,1.734-5.075a4.047,4.047,0,0,0,.509-.228C52.085,47.9,49.819,52.5,45.7,55.868Z"/><path class="cls-4" d="M58.433,48.87c-.45-.065-2.505-1.093-4.112-1.414s-5.91.45-7.709,1.156-3.791,4.433-2.763,5.975c.728,1.09,1.676.539,1.854,1.281,4.116-3.369,6.382-7.971,13.239-6.327,1.211-.615,3.346-2.085,3.346-2.085A25.923,25.923,0,0,1,58.433,48.87Z"/><path class="cls-3" d="M95.746,91.936c.366-.8,2.057-3.029.012-5.348a6.661,6.661,0,0,0-5.066-1.867c-1.194.1-4.2,2.581-4.2,2.581l-.359-.154c2.911,2.081,6.149,4.818,9.445,5.384A1.639,1.639,0,0,1,95.746,91.936Z"/><path class="cls-4" d="M95.37,94.18a4.991,4.991,0,0,0,.212-1.648c-3.3-.566-6.534-3.3-9.445-5.384L83.448,85.99l3.084,1.688s.095,2.461.2,3.746,2.307,4.3,3.728,5.062S94.957,95.673,95.37,94.18Z"/><path class="cls-4" d="M82.447,86.943a9.667,9.667,0,0,1,3.124-2.964c.8-.315,2.22.715,3.409.941s6.218-2.189,6.669-3.734,1.4-4.909-.9-5.467c-.519-.125-.756-.107-.876-.276-3.7,4.23-6.464,7.467-9.162,8.2a41.619,41.619,0,0,1-2.74,3.35c-.764.849-9.338,8.577-9.338,8.577S81.44,88.323,82.447,86.943Z"/><path class="cls-3" d="M93.691,73.892c-.1-1.928-2.066-3.981-4.306-2.288S85.7,75.1,85.633,77.559s.242,3.856-.286,5.026a7.138,7.138,0,0,1-.637,1.057c2.7-.732,5.464-3.969,9.162-8.2C93.744,75.267,93.745,74.882,93.691,73.892Z"/><path class="cls-3" d="M78.3,71.277a1.956,1.956,0,0,1-1.111-.215c-1.3-.5-1.927,2.013-1.388,4s1.7,4.562,3.047,5.377,2.935.668,3.126,1.474a3.9,3.9,0,0,0,.136.424C83.185,76.639,80.356,74.723,78.3,71.277Z"/><path class="cls-4" d="M82.533,81.918c.043-.377.695-2.081.906-3.417a22.757,22.757,0,0,0-.655-6.426c-.421-1.5-2.71-3.18-3.672-2.332-.679.6-.346,1.391-.809,1.534,2.053,3.446,4.882,5.362,3.81,11.059.373,1.012,1.263,2.8,1.263,2.8A26.7,26.7,0,0,1,82.533,81.918Z"/><path class="cls-5" d="M84.671,44.222a9.9,9.9,0,0,1,3.957.1c1.954.521,2.383.9,4.425.8s5.521-.384,5.521-.384A7.861,7.861,0,0,1,99.9,42.7c.528-.408.932-.873.894-1.287a6.152,6.152,0,0,1,.75-1.774s1.412-1.722,1.177-2.225-.665-1.245-.685-1.394a13.706,13.706,0,0,0,.58-2.039,14.033,14.033,0,0,1,.057-1.772,6.921,6.921,0,0,1-.077-2.665,5.925,5.925,0,0,0,.164-3.287c-.328-.806-1.171-2.837-1.6-3.629s-3.045-5.5-3.045-5.5l-5.3-.665s-5.145.823-6.318,1.177-3.4.221-3.978.733a3.482,3.482,0,0,0-.792.9S79.3,19,79.174,19.017c-.157.008.259.131-.07.834s-.322.384-.737,1.313c-.467.914-1.7-.817-2.242.112a2.318,2.318,0,0,0-.089,1.952s-.9-1.133-1.135.5c-.222,1.625-.442,2.738-.442,2.738s-1.109-1.586-1.224-.306a7.45,7.45,0,0,0,.127,2.161l-.794,1.266s.481,1.325.738,1.927a23.726,23.726,0,0,1,.794,2.444,8.973,8.973,0,0,0,.852,2.186c.214.324,1.939,1.083,2.192,1.467.289.409,2.614,1.675,2.862,2.183S81.6,42.329,81.6,42.329,82.859,44.257,84.671,44.222Z"/><path class="cls-6" d="M85.88,39.95s-.226,3.471-1.741,1.918c-1.535-1.55-1.581-2.421-1-3.53a8.121,8.121,0,0,1,2.022-2.132S86.22,39.3,85.88,39.95Z"/><path class="cls-6" d="M81.041,23.975s.68-3.922-.058-2.981a5.636,5.636,0,0,0-1.279,2.87C79.514,24.977,80.473,25.2,81.041,23.975Z"/><path class="cls-6" d="M77.284,22.555s-.387-3.675-.941-2.43a8.749,8.749,0,0,0-.145,3.76Z"/><path class="cls-6" d="M76.93,26.853s-.415-2.26-1.2-1.313-.187,2.046-.2,2.821a1.134,1.134,0,0,0,1.134,1.127C77.094,29.488,76.93,26.853,76.93,26.853Z"/><path class="cls-6" d="M93.7,32.762c.274-.17,2.748-5.125,1.81-5.351-.97-.235-1.272.107-2.672,1.292-1.374,1.211-3.058,3.529-1.973,4.076A4.645,4.645,0,0,0,93.7,32.762Z"/><path class="cls-6" d="M91.552,37.1s2.47-5.508,1.424-5.124c-1.021.405-2.6,2.77-3.245,3.082a3.019,3.019,0,0,0-1.066,2.076c.158.073,2.813.188,2.813.188Z"/><path class="cls-6" d="M88.753,41.22s1.829-.708,2.231-1.982,1.06-3.056-.163-2.541-1.65,1.538-2.583,2.341a2.2,2.2,0,0,0-.845,1.9C87.419,41.084,88.753,41.22,88.753,41.22Z"/><path class="cls-6" d="M95.188,38.7s2.963-1.548,1.129-1.821a7.146,7.146,0,0,0-3.909.943Z"/><path class="cls-6" d="M94.93,40.011s2.175-1.258.24-1.571c-1.953-.315-2.03-.622-2.9.069-.843.694-1.7,1.331-.718,1.467A33.314,33.314,0,0,0,94.93,40.011Z"/><path class="cls-6" d="M95.1,35.9s2.457-1.625,2.261-2.844-1.14-.589-2.06-.184-2.766,3.5-2.766,3.5L92.077,37.7Z"/><path class="cls-6" d="M100.352,36.088s1.933-1.775,1.991-2.4.251-3.171-.232-2.37c-.494.78-2.334,4.144-2.334,4.144Z"/><path class="cls-6" d="M100.842,30.183a3.408,3.408,0,0,0,1.463-2.632c.137-1.721-.378-3.052-.6-2.839A47.875,47.875,0,0,0,100.842,30.183Z"/><path class="cls-6" d="M98.548,37.124s2.635-1.641,2.873-1.787c.255-.154,1.476-.644.613.687-.851,1.3-3.745,1.261-3.745,1.261"/><path class="cls-6" d="M98.283,40.837s3.1.368,2.22,1.126c-.888.732-3.517.613-3.517.613l-1.244-.323Z"/><path class="cls-6" d="M93.053,40.914s2.18-.512,2.225-.047,1.544,1.386-.09,1.581a13.544,13.544,0,0,1-3.611-.2Z"/><path class="cls-6" d="M88.823,42.21s2.95-.721,2.534.4a1.409,1.409,0,0,1-1.867,1.108,15.077,15.077,0,0,0-2.326-.3l1.357-1.2Z"/><path class="cls-6" d="M87.241,37.2s1.2-3.24-.038-4.1c-1.248-.844-1.65-.408-1.549.6s.97,4.3.97,4.3Z"/><path class="cls-6" d="M89.409,32.8s.529-3.6-.113-4.221-.435.709-.832,1.894.472,3.393.472,3.393Z"/><path class="cls-6" d="M76.286,34.536a3.047,3.047,0,0,1-.088-.358c-.251-.929-.927-3.463-1.461-3.421-.619.048-.89,1.3-.329,2.346a12.546,12.546,0,0,0,2.18,2.495Z"/><path class="cls-6" d="M77.4,31.773s-.19-2.03-.843-2.055c-.645-.008-.16,2.13-.124,2.481s.467,2.076.467,2.076Z"/><path class="cls-6" d="M78.972,27.006s-.229-2.712-.789-2.745c-.58-.009-.56,2.047-.5,2.634.069.614.37,2.993.37,2.993Z"/><path class="cls-6" d="M81.253,40.069s.869-4.092-.232-4.767c-1.086-.664-1.462,1.834-1,2.551C80.473,38.568,81.253,40.069,81.253,40.069Z"/><path class="cls-6" d="M83.856,20.466s2.837-2.345,1.608-2.5c-1.234-.184-2.728.217-2.728.892.018.682-.021,3.563-.021,3.563Z"/><path class="cls-6" d="M79.394,21.238s.957-1.92.171-2.128-.822,1.356-.9,1.833A5.7,5.7,0,0,0,79.1,22.7Z"/><path class="cls-6" d="M92.8,17.106s2.947-1.063,3.486-.828,1.575.351.345.794A10.75,10.75,0,0,1,92.8,17.106Z"/><path class="cls-6" d="M98.916,20.021a9.816,9.816,0,0,0-.8-2.889c-.447-.486-1.008-.512-.8.426.234.946,1.08,3.061,1.1,3.258S98.916,20.021,98.916,20.021Z"/><path class="cls-6" d="M100.281,23.272l-.2-2.925s-1.219-.112-.855.877a8.06,8.06,0,0,1,.53,2.7C99.646,24.141,100.281,23.272,100.281,23.272Z"/><path class="cls-6" d="M98.764,29.8c.174-.086,1.537-2.444,1.028-3.566-.474-1.133-.467.249-.638.67-.151.413-1.4,3.6-1.4,3.6Z"/><path class="cls-6" d="M84.934,29.057s.443-3.108.423-3.45c-.045-.337-.667-.144-.965.564a4.818,4.818,0,0,0,.176,2.506C84.683,29.147,84.934,29.057,84.934,29.057Z"/><path class="cls-6" d="M87.419,25.317s2.2-1,2.306-2.037c.088-1.024-2.156.316-2.648,1.168a3.617,3.617,0,0,0-.3,2Z"/><path class="cls-6" d="M85.85,21.676S89.46,18.657,88.5,18.4a3.152,3.152,0,0,0-3.4,2.382C84.72,22.658,85.85,21.676,85.85,21.676Z"/><path class="cls-6" d="M81.688,32.383A21.873,21.873,0,0,1,82,27.922c.389-.779-1.015,1.326-1.015,1.326l.535,3.419Z"/><path class="cls-6" d="M92.354,24.781a3.055,3.055,0,0,0,.786-2.456c-.164-1.552-.732-.269-1.147.717a11.553,11.553,0,0,0-.455,3.107Z"/><path class="cls-6" d="M95.965,22.521a7.631,7.631,0,0,0,.214-2.882c-.277-.87-.437-1.329-.555-1.126s-.138,3.556-.49,3.871c-.38.295.59.214.59.214Z"/><path class="cls-6" d="M93.822,25.9s2.57-1.911,1.833-2.132-2.8,1.445-2.8,1.445l-.036,2.2Z"/><path class="cls-6" d="M90.656,18.769a5.212,5.212,0,0,0-2.426,1.356c-1.088,1.113-1.227,2.959-.724,2.233a19.281,19.281,0,0,1,1.936-1.841C89.837,20.058,91.357,18.717,90.656,18.769Z"/><path class="cls-6" d="M82.742,26.981s2.218-3.313,1.9-3.911-1.707.217-2.017,1.041C82.345,24.969,81.959,26.229,82.742,26.981Z"/><path class="cls-6" d="M83.56,33.679s.9-3.019.518-3.535-1.14,2.409-1.262,2.626a6.879,6.879,0,0,0,.322,2.507C83.371,35.67,83.56,33.679,83.56,33.679Z"/><path class="cls-6" d="M79.053,33.351s.815-2.525-.093-2.73-1.116,1.8-1.116,2.421a9.136,9.136,0,0,0,.774,2.39C78.764,35.686,79.053,33.351,79.053,33.351Z"/><path class="cls-7" d="M85.937,39.508s-.12,3.478-1.707,1.993c-1.566-1.5-1.634-2.395-1.092-3.487a8.169,8.169,0,0,1,1.968-2.221S86.232,38.851,85.937,39.508Z"/><path class="cls-7" d="M80.606,23.7s.56-3.949-.146-2.972a5.586,5.586,0,0,0-1.172,2.907C79.138,24.748,80.08,24.951,80.606,23.7Z"/><path class="cls-7" d="M76.817,22.393s-.492-3.662-1-2.391a8.8,8.8,0,0,0-.051,3.764Z"/><path class="cls-7" d="M76.6,26.708s-.5-2.242-1.247-1.262-.108,2.054-.12,2.831a1.124,1.124,0,0,0,1.186,1.073C76.853,29.36,76.6,26.708,76.6,26.708Z"/><path class="cls-7" d="M93.508,32.046c.269-.18,2.6-5.2,1.65-5.415s-1.274.145-2.623,1.4-2.948,3.629-1.846,4.132A4.492,4.492,0,0,0,93.508,32.046Z"/><path class="cls-7" d="M91.52,36.471s2.277-5.61,1.262-5.175c-1.041.435-2.516,2.865-3.159,3.2a2.934,2.934,0,0,0-.983,2.091c.138.091,2.787.107,2.787.107Z"/><path class="cls-7" d="M88.843,40.705s1.79-.789,2.168-2.077.944-3.1-.233-2.54c-1.2.562-1.607,1.586-2.528,2.43a2.152,2.152,0,0,0-.77,1.928C87.494,40.6,88.843,40.705,88.843,40.705Z"/><path class="cls-7" d="M95.17,37.939s2.924-1.655,1.072-1.86a7.113,7.113,0,0,0-3.856,1.074Z"/><path class="cls-7" d="M94.969,39.276s2.116-1.342.165-1.6c-1.937-.24-2.024-.55-2.839.174-.868.72-1.693,1.4-.706,1.488A30.3,30.3,0,0,0,94.969,39.276Z"/><path class="cls-7" d="M95.006,35.132s2.395-1.7,2.166-2.907-1.153-.554-2.064-.112c-.9.443-2.648,3.594-2.648,3.594l-.4,1.352Z"/><path class="cls-7" d="M100.25,35.158s1.891-1.858,1.929-2.491c.051-.612.164-3.163-.309-2.353s-2.207,4.23-2.207,4.23Z"/><path class="cls-7" d="M100.578,29.232a3.545,3.545,0,0,0,1.349-2.7c.107-1.715-.455-3.028-.668-2.8A50.219,50.219,0,0,0,100.578,29.232Z"/><path class="cls-7" d="M98.485,36.246l2.825-1.9c.25-.158,1.448-.673.637.673s-3.7,1.4-3.7,1.4"/><path class="cls-7" d="M98.335,39.959s3.119.273,2.255,1.053c-.843.789-3.485.733-3.485.733L95.838,41.5Z"/><path class="cls-7" d="M93.092,40.239s2.186-.6,2.242-.144c.077.486,1.588,1.335-.038,1.6a13.7,13.7,0,0,1-3.606-.076Z"/><path class="cls-7" d="M88.948,41.655s2.894-.8,2.53.342-1.028,1.347-1.831,1.16a15.864,15.864,0,0,0-2.331-.213l1.3-1.253Z"/><path class="cls-7" d="M87.2,36.722s1.085-3.278-.157-4.088c-1.26-.819-1.662-.37-1.517.639S86.6,37.541,86.6,37.541Z"/><path class="cls-7" d="M89.225,32.232s.422-3.6-.231-4.219-.422.741-.756,1.952c-.365,1.2.554,3.351.554,3.351Z"/><path class="cls-7" d="M76.186,34.416s-.039-.136-.1-.348c-.265-.926-1.036-3.429-1.554-3.37-.641.068-.862,1.331-.263,2.371a12.724,12.724,0,0,0,2.239,2.4Z"/><path class="cls-7" d="M77.225,31.615s-.289-2.016-.9-2.016c-.648.012-.115,2.139-.056,2.477.044.337.509,2.067.509,2.067Z"/><path class="cls-7" d="M78.632,26.8s-.291-2.707-.883-2.724c-.561.009-.485,2.063-.4,2.677s.455,2.956.455,2.956Z"/><path class="cls-7" d="M81.33,39.8s.731-4.131-.38-4.771c-1.12-.624-1.43,1.888-.936,2.584C80.473,38.305,81.33,39.8,81.33,39.8Z"/><path class="cls-7" d="M83.32,20.1s2.762-2.444,1.515-2.576c-1.211-.127-2.7.316-2.674.989s.069,3.547.069,3.547Z"/><path class="cls-7" d="M78.9,21.029s.882-1.961.1-2.162c-.8-.17-.769,1.4-.844,1.88a6.159,6.159,0,0,0,.491,1.739Z"/><path class="cls-7" d="M92.145,16.412s2.918-1.156,3.44-.935c.57.205,1.587.291.392.773A10.848,10.848,0,0,1,92.145,16.412Z"/><path class="cls-7" d="M98.335,19.136a10.014,10.014,0,0,0-.889-2.865c-.454-.5-1.04-.486-.777.442s1.161,3.021,1.187,3.229C97.9,20.142,98.335,19.136,98.335,19.136Z"/><path class="cls-7" d="M99.777,22.325l-.253-2.907s-1.235-.068-.849.9A7.931,7.931,0,0,1,99.286,23C99.2,23.221,99.777,22.325,99.777,22.325Z"/><path class="cls-7" d="M98.473,28.924c.188-.1,1.467-2.506.932-3.607s-.48.256-.605.683l-1.324,3.646Z"/><path class="cls-7" d="M84.657,28.652s.34-3.13.3-3.466-.669-.133-.934.584a4.694,4.694,0,0,0,.265,2.516C84.416,28.754,84.657,28.652,84.657,28.652Z"/><path class="cls-7" d="M87.026,24.814s2.162-1.069,2.219-2.109-2.116.379-2.6,1.257a3.64,3.64,0,0,0-.226,2.013Z"/><path class="cls-7" d="M85.338,21.238s3.505-3.156,2.558-3.382a3.171,3.171,0,0,0-3.328,2.507C84.242,22.251,85.338,21.238,85.338,21.238Z"/><path class="cls-7" d="M81.518,32.1s-.17-3.685.176-4.477-.976,1.347-.976,1.347l.648,3.416Z"/><path class="cls-7" d="M91.939,24.111a3.117,3.117,0,0,0,.7-2.477c-.2-1.557-.731-.256-1.117.742a11.78,11.78,0,0,0-.364,3.13Z"/><path class="cls-7" d="M95.472,21.715a7.539,7.539,0,0,0,.113-2.895c-.307-.857-.471-1.313-.579-1.092s-.037,3.566-.39,3.889c-.335.315.617.2.617.2Z"/><path class="cls-7" d="M93.429,25.181s2.485-2,1.759-2.19-2.746,1.543-2.746,1.543l.043,2.191Z"/><path class="cls-7" d="M90.07,18.163a5.045,5.045,0,0,0-2.38,1.425c-1.066,1.159-1.13,3.019-.664,2.276a19.14,19.14,0,0,1,1.868-1.936C89.277,19.494,90.758,18.07,90.07,18.163Z"/><path class="cls-7" d="M82.387,26.64s2.138-3.4,1.8-3.973-1.7.268-1.972,1.125S81.581,25.919,82.387,26.64Z"/><path class="cls-7" d="M83.408,33.316s.822-3.035.429-3.547-1.083,2.447-1.182,2.673a6.963,6.963,0,0,0,.388,2.495C83.3,35.311,83.408,33.316,83.408,33.316Z"/><path class="cls-7" d="M78.909,33.146s.731-2.55-.175-2.728c-.909-.163-1.034,1.841-1.034,2.454a8.028,8.028,0,0,0,.844,2.372C78.689,35.5,78.909,33.146,78.909,33.146Z"/><path class="cls-8" d="M60.4,90.7s-4.275.763-5.624-2-.641-4.047-1.541-7.516-2.506-5.267-1.414-5.524,1.734,1.412,1.927.32-.128-5.2.771-5.075,1.927-2.44,4.24-.834,4.338,1.481,6.873,3.917c4.946,4.754,3.341,8.8,2.956,10.73s.935,5.6-4.141,5.6S60.4,90.7,60.4,90.7Z"/><path class="cls-7" d="M58.24,89.277s-4.818-3.534-5.589-4.432-2.056-2.507-1.671-.451a10.48,10.48,0,0,0,5.14,6.168C58.368,91.525,59.462,90.369,58.24,89.277Z"/><path class="cls-7" d="M57.662,86.579S50.6,82.66,50.4,80.99s-.385-6.23.45-5.139,2.506,5.267,3.469,6.874A24.9,24.9,0,0,0,57.662,86.579Z"/><path class="cls-7" d="M60.488,88.7s-4.047-5.974-4.047-6.745,0-2.569.771-1.477,4.112,5.846,4.047,7.131S60.488,88.7,60.488,88.7Z"/><path class="cls-7" d="M54.9,78.613s-3.47-4.754-2.955-6.1,1.929-3.982,1.864-2.12.578,6.1.9,6.36S54.9,78.613,54.9,78.613Z"/><path class="cls-7" d="M55.863,72.382S54,69.106,55.606,67.95s4.818,2.12,5.461,3.276a9.444,9.444,0,0,1,.578,3.469c.064.256-1.351-1.992-2.378-2.377a7.441,7.441,0,0,0-3.019,0Z"/><path class="cls-7" d="M58.3,80.862s-2.891-3.726-2.826-5.268.514-3.79.835-2.506.384,2.762.834,4.561A17.505,17.505,0,0,0,58.3,80.862Z"/><path class="cls-7" d="M66.591,89.02s2.572-1.476,3.02-3.147,2.055-3.663,1.477-4.369-1.028-2.7-1.221-1.413-.065,3.918-.771,4.754-1.027,1.8-1.862,2.44a33.125,33.125,0,0,1-2.956,1.8Z"/><path class="cls-7" d="M62.736,89.085s2.7-3.277,1.928-3.662-.064,0-1.027.9S60.36,89.468,61.131,89.6A2.474,2.474,0,0,0,62.736,89.085Z"/><path class="cls-7" d="M66.591,84.524a11.179,11.179,0,0,0,1.093-3.276,49.657,49.657,0,0,0-.386-7.2c-.192-.9-1.35-2.761-.129-1.862s2.379,1.669,2.057,3.982-.515,5.845-1.093,6.681-1.285,1.734-1.285,1.734Z"/><path class="cls-7" d="M65.435,79.769c0-.513.963-5.2.064-7.451s-3.79-4.754-4.175-3.662S62.8,70.2,63.059,72.575s.963,4.559,1.156,5.845S65.435,81.374,65.435,79.769Z"/><path class="cls-7" d="M62.544,85.358c.192-1.349,1.349-5.718.771-7.516s-4.819-7-3.983-4.175,2.313,4.048,2.505,5.461.514,4.818.514,4.818Z"/><path class="cls-7" d="M61.645,86a30.987,30.987,0,0,1-1.863-4.5c-.322-1.413-.194-3.792.642-2.506a14.6,14.6,0,0,1,1.349,4.047A19.443,19.443,0,0,1,61.645,86Z"/><path class="cls-1" d="M60.3,90.5s-3.6.577-4.818.642S51.816,92.876,52.972,93s1.414-1.093,3.084-1.093a11.415,11.415,0,0,0,3.661-.834s-3.148,4.559-1.927,4.881,3.469-4.753,3.469-4.753,1.733,3.724,2.826,4.175-2.7-4.5-1.669-4.626,6.81.58,7.516,1.093,2.249,0-.321-1.028S62.1,90.113,60.3,90.5Z"/><path class="cls-9" d="M76.1,67.179a3.354,3.354,0,0,0-1.349-4.5c-2.826-1.862-5.846-3.856-5.011-2.184s1.477,3.469,3.084,4.69A19.9,19.9,0,0,0,76.1,67.179Z"/><path class="cls-2" d="M61.455,90.554c7.751,4.276,7.143,16.083,13.057,21.922"/><path class="cls-3" d="M63.105,107.216c-1.12-.083-4.744-1.283-5.712,2.942-.661,2.886.757,6.664,1.739,8.328s5.84,4.614,5.84,4.614l.1.6c.078-5.339.612-11.517-1.208-16.575A1.538,1.538,0,0,1,63.105,107.216Z"/><path class="cls-4" d="M65.776,106.521a4.567,4.567,0,0,0-1.912.6c1.82,5.058,1.286,11.236,1.208,17.345l.743,4.515-.469-6.144s2.555-1.5,3.847-2.362,2.889-5.694,2.654-8.164S67.672,106.288,65.776,106.521Z"/><path class="cls-4" d="M67.568,129.129c-2.089-1-4.541-1.888-5.462-2.864s-.869-3.588-1.505-5.426S53.693,113.1,51.71,113.3s-6.263.7-5.162,4.318c.246.815.439,1.147.349,1.416,7.231,2.985,12.718,5.181,15.482,8.662a55.784,55.784,0,0,1,5.594,2.093c1.467.63,16.7,9.621,16.7,9.621S83.426,136.712,67.568,129.129Z"/><path class="cls-3" d="M45.373,120.149c-1.98,1.211-2.721,5.175.732,7.468s6.441,3.378,9.112,2.108,3.933-2.478,5.57-2.365a8.265,8.265,0,0,1,1.592.336c-2.764-3.481-8.251-5.677-15.482-8.662C46.8,119.317,46.394,119.526,45.373,120.149Z"/><path class="cls-3" d="M53.91,143.75a4.172,4.172,0,0,1,.589,1.721c.432,2.154,3.565,1.663,5.285-.21s3.612-4.977,3.493-7.362-1.446-4.595-.729-5.313a3.939,3.939,0,0,0,.352-.432C56.036,133.762,56.077,138.892,53.91,143.75Z"/><path class="cls-4" d="M62.145,131.782c-.431.145-2.73.147-4.31.583s-5.078,3.055-6.368,4.493-1.4,5.662.212,6.579c1.138.648,1.739-.271,2.231.313,2.167-4.858,2.126-9.988,8.99-11.6.806-1.093,2.651-3.489,2.651-3.489A38.031,38.031,0,0,1,62.145,131.782Z"/><path class="cls-8" d="M97.222,106.469s-2.99-1.533-2.518-3.5,1.389-2.281,2.4-4.39.933-3.716,1.611-3.352.3,1.474.865,1.022,2.144-2.618,2.557-2.15,2.04-.335,2.558,1.494,1.626,2.676,1.908,5.012c.551,4.559-2,5.83-3.021,6.6s-2.529,2.822-5.167.544S97.222,106.469,97.222,106.469Z"/><path class="cls-7" d="M96.263,104.811s-1-3.9-1.022-4.687,0-2.158-.678-.973a6.911,6.911,0,0,0,.053,5.341C95.375,105.975,96.435,105.9,96.263,104.811Z"/><path class="cls-7" d="M97.109,103.226s-2.008-5.1-1.4-6.009,2.445-3.238,2.417-2.325-.935,3.716-1.117,4.937A16.538,16.538,0,0,0,97.109,103.226Z"/><path class="cls-7" d="M97.677,105.537s.435-4.755.763-5.136,1.092-1.262,1.027-.379-.346,4.721-.925,5.325S97.677,105.537,97.677,105.537Z"/><path class="cls-7" d="M99.057,98.067s.217-3.9,1.057-4.33,2.7-1.092,1.869-.206a13.657,13.657,0,0,0-2.235,3.532C99.807,97.334,99.057,98.067,99.057,98.067Z"/><path class="cls-7" d="M102.206,95.434s.423-2.448,1.749-2.3,1.6,3.2,1.447,4.063a5.782,5.782,0,0,1-1.174,1.965c-.075.157.144-1.585-.226-2.236a5.418,5.418,0,0,0-1.569-1.356Z"/><path class="cls-7" d="M99.87,100.7s.082-3.132.77-3.862,1.879-1.632,1.5-.857-.976,1.532-1.506,2.619A11.1,11.1,0,0,0,99.87,100.7Z"/><path class="cls-7" d="M100.714,108.434s1.963.429,2.907-.191,2.623-.881,2.623-1.487.611-1.788-.033-1.243-1.7,1.9-2.421,1.993a9.455,9.455,0,0,1-2,.365c-.71-.061-2.3-.443-2.3-.443Z"/><path class="cls-7" d="M98.682,106.735s2.8-.4,2.557-.935-.033-.03-.915-.018-3.04.077-2.694.485A1.746,1.746,0,0,0,98.682,106.735Z"/><path class="cls-7" d="M102.623,106.222a7.034,7.034,0,0,0,1.96-1.12,30.737,30.737,0,0,0,2.858-3.713c.281-.527.47-1.965.724-.974s.526,1.888-.625,2.881-2.749,2.646-3.406,2.8-1.4.277-1.4.277Z"/><path class="cls-7" d="M104.041,103.364c.22-.253,2.713-2.126,3.2-3.636s.05-4.038-.614-3.675.111,1.423-.765,2.7-1.435,2.677-1.881,3.4S103.361,104.155,104.041,103.364Z"/><path class="cls-7" d="M100.166,104.816c.671-.577,3.128-2.208,3.592-3.351s.471-5.607-.3-3.842-.518,3.029-1.018,3.811-1.781,2.6-1.781,2.6Z"/><path class="cls-7" d="M99.425,104.728a19.579,19.579,0,0,1,.942-3.047c.432-.84,1.511-1.951,1.4-.944a9.059,9.059,0,0,1-1.018,2.594A11.752,11.752,0,0,1,99.425,104.728Z"/><path class="cls-10" d="M96.812,106.335s-2.115-1.33-2.776-1.848-2.641-.789-2.094-.207,1.2.1,2.065.847a8.22,8.22,0,0,0,2.26,1.234s-3.573.829-3.076,1.535,3.822-.78,3.822-.78-.681,2.611-.305,3.323.509-3.424,1.1-3.026a20.493,20.493,0,0,1,3.442,3.913c.151.569,1.17,1.009.271-.65A15.276,15.276,0,0,0,96.812,106.335Z"/></svg>