<svg id="word" xmlns="http://www.w3.org/2000/svg" xmlns:xlink="http://www.w3.org/1999/xlink" viewBox="0 0 160 160"><defs><style>.cls-1,.cls-12,.cls-15,.cls-8{fill:none;}.cls-2{clip-path:url(#clip-path);}.cls-3{fill:#96d0a7;}.cls-3,.cls-4,.cls-5{stroke:#9d4b9c;stroke-width:0.718px;}.cls-4{fill:#ca9977;}.cls-5{fill:#cdad4d;}.cls-6{fill:#b8babc;}.cls-10,.cls-11,.cls-12,.cls-13,.cls-14,.cls-15,.cls-6,.cls-7,.cls-8,.cls-9{stroke:#9c4c9c;stroke-width:0.512px;}.cls-10,.cls-11,.cls-12,.cls-13,.cls-15,.cls-6,.cls-9{stroke-miterlimit:10;}.cls-7{fill:#fde1d3;}.cls-11,.cls-9{fill:#fff;}.cls-10{fill:#70baa1;}.cls-11{opacity:0.32;}.cls-13{fill:#fcded0;}.cls-14{fill:#bf7a4e;}.cls-15{stroke-linecap:round;}.cls-16{fill:#9c4c9c;}</style><clipPath id="clip-path"><rect class="cls-1" x="-196" y="14" width="132" height="132"/></clipPath></defs><g class="cls-2"><polygon class="cls-3" points="9.718 54.02 7.586 126.651 -110.07 126.651 -109.075 53.88 9.718 54.02"/><polygon class="cls-4" points="-109.928 55.452 12.844 55.452 3.538 47.569 -105.024 47.569 -109.928 55.452"/><path class="cls-5" d="M16.254,129.37s2.841-1.74,1.136-2.283-.426-1.742-.852-1.742-.853-1.3-.853-1.3-2.417-2.393-2.984-1.632-1.7-.217-2.414.325-1.99-1.522-2.56-.434-2.982.109-3.409,1.088-4.262-.327-5.116.326-3.125-.761-3.125-.761a5.2,5.2,0,0,0-3.269.108c-1.7.653-3.551.109-3.551.763s-1.707-.219-1.707-.219-2.131-.76-2.7-.871-3.268-1.739-4.264-.325-1.988-.436-1.988.325-.425-.216-1.562.654-1.705-.979-2.984,0-2.558-.543-3.268,0-4.264-2.176-5.685-1.088-2.557.218-3.409,1.957-2.06,3.684-2.2,4.664,3.48.448,3.48.448Z"/></g><polygon class="cls-6" points="74.575 107.149 93.735 107.149 92.568 146.629 84.339 146.629 82.805 126.964 82.085 146.78 71.875 146.629 74.575 107.149"/><path class="cls-7" d="M121.494,133.7a2.887,2.887,0,0,0-1.54,2.311,46.751,46.751,0,0,1-.514,6.48c-.228.62-1.312,2.479-.57,2.874s1.768-.733,2.624-2.649.855-3.662,1.369-2.648,1.331,3.037.932,4-.5-1.34-1.784-.628c-.249.137-.688,1.028-.061,2.381a2.813,2.813,0,0,0,3.454,1.806,8.563,8.563,0,0,0,4.418-2.032c1.483-1.183,2.624-1.408,3.081-3.268s.513-2.705-.343-4.339a41.634,41.634,0,0,0-4.05-5.184Z"/><path class="cls-8" d="M125.922,147.516a6.781,6.781,0,0,0,1.8-2.019,3.446,3.446,0,0,0-.137-3.581"/><path class="cls-8" d="M128.493,146.629a1.562,1.562,0,0,1,.509-.621,4.247,4.247,0,0,0,1.152-2.109,2.852,2.852,0,0,0-.443-2.571"/><path class="cls-8" d="M131.283,144.3c.008.048-.013.3,0,.254.386-1.311,1.068-3.071.368-4.308"/><path class="cls-7" d="M82.264,51.683s2.722,2.955,1.467,5.547a7.181,7.181,0,0,0-.568,4.846,4.346,4.346,0,0,0,4.789.676c2.624-1.352,3.194-2.254,4.906-4.958s3.584-2.561,3.926-3.888-.5-11.943-.5-11.943Z"/><polygon class="cls-9" points="83.731 59.531 86.678 59.484 90.913 59.484 98.317 55.012 100.571 56.487 92.151 96.743 93.58 111.213 73.997 111.213 78.88 63.217 81.563 59.419 83.731 59.531"/><path class="cls-7" d="M38.21,57.039A12.58,12.58,0,0,0,34.1,55.427c-3.411-1.027-5.591-4.764-4.849-6.06s5.533.087,10.724.143,5.134-2.479,5.191.057-.057,5.127,0,6.085S48.478,58,45.8,59.531s-4.735,2.545-5.819,1.813S38.21,57.039,38.21,57.039Z"/><polygon class="cls-6" points="44.37 17.898 77.228 19.814 66.161 57.794 33.532 53.173 44.37 17.898"/><path class="cls-10" d="M75.288,61.175l6.9-4.136s-2.51,9.207-3.451,15.18-2.424,43.953-2.424,43.953,1.23,11.622.774,15.792,2.067,14.327,2,14.665-12.129,0-12.129,0,.913-14.9,2.4-28.992S71.3,76.727,71.3,76.727s-.342-12.594-.684-13.51S75.288,61.175,75.288,61.175Z"/><path class="cls-10" d="M100.045,55.427s8.075,4.17,9.457,5.41a12.61,12.61,0,0,0,2.523,1.8s-2.168,23.554-3.081,31.105.317,15.665.558,15.89-1.356.451-.9,2.592.8-.9,1.483,2.142,1.027,1.577,1.027,6.311,2.282,17.468,2.053,20.286a20.745,20.745,0,0,0,.685,6.107s-8.1,1.067-12.093.729-13.006-.789-13.006-1.127,1.026-43.351,1.026-43.351L95.14,68.275Z"/><path class="cls-10" d="M102.213,55.427l2.168,1.612s-2.4,12.813-3.081,15.293-3.194,9.917-3.194,9.917H94.569l4.564,6.2-9.861,20.286s-.521-12.623,1.019-19.046S94,65.823,95.254,63.217s3.879-7.9,3.879-7.9S100.045,53.815,102.213,55.427Z"/><path class="cls-10" d="M82.19,57.039l-8.5,4.548s1.88,2.24.055,11.256.828,10.533.828,10.533l1.284,1.353-2.967,4.395s1.2-.676,1.683,2.254,2.167,14.561,2.167,14.561,3.68-24.366,3.794-31.24S82.19,57.039,82.19,57.039Z"/><path class="cls-10" d="M110.766,61.852s2.628-1.015,5.366,2.929,6.16,23.892,6.731,25.583,4.107,2.366,2.966,6.311.571,7.571.8,8.688.342,6.075.342,6.075l.685,7.326s1.825,9.917,1.825,10.255.342,4.734-2.168,5.523-6.148-.338-7.181-.789L119.1,133.3a49.8,49.8,0,0,0-.228-9.016c-.571-5.522-5.02-18.144-5.02-19.948s-.114-5.139,0-6.063-1.483-.924-.571-1.938,2.4-1.465,1.141-2.029-2.167-.676-2.167-1.24.8-1.465.684-2.028-1.6-.9-1.6-1.352-3.309-9.467-3.309-10.369S101.294,62.079,110.766,61.852Z"/><path class="cls-10" d="M68.993,63.755s-4.771,5.083-6.939,6.21-2.738,2.93-3.879,2.029-2.282-.564-2.282-2.367S46.421,55,46.421,55s-.682,3.81-3.191,3.923a11.372,11.372,0,0,0-2.813.609,34.665,34.665,0,0,0-4.033,1.645s1.369-.226,5.134,7.325S52.128,83.489,55.38,85.968s4.963.789,7.7-1.465a91.45,91.45,0,0,1,7.872-5.409s3.926-14.637,1.416-15.877S68.993,63.755,68.993,63.755Z"/><path class="cls-7" d="M31.193,50.55s-1.939-.62-1.939-1.183,0-1.188,1.54-1.524,5.533-.509,5.99,0,.684,1.411-.4,1.468A47.1,47.1,0,0,0,31.193,50.55Z"/><path class="cls-7" d="M30.851,46.186s-1.54.34-.8,1.3,5.106.4,5.126.335a8.1,8.1,0,0,0,1.985-.279c1.34-.431,1.38-1.01,0-1.352S30.851,46.186,30.851,46.186Z"/><path class="cls-7" d="M31.25,44.044s-1.4,1.173.233,1.637c1.172.332,7.082.67,7.753.353,1.239-.585.913-1.708,0-1.99S31.188,43.483,31.25,44.044Z"/><path class="cls-7" d="M32.334,41.8s3.081-.282,3.594-.282.889-1.014,2.641.282,2.69,2.446,2.047,2.817c-.564.324-2.3-.676-2.809-1.014s-1.48-.056-2.564-.056-3.365-.057-3.365-.057S30.737,42.248,32.334,41.8Z"/><polygon class="cls-10" points="97.84 120.379 111.112 120.68 112.291 139.162 99.133 138.411 97.84 120.379"/><path class="cls-9" d="M84.013,55.153s1.1,4.02,2.665,4.331,10.4-6.894,10.4-6.894l2.054,2.724-8.22,11.158L86.678,60.16,82.19,65.232l-.741-6.875Z"/><path class="cls-11" d="M54.028,19.971s-1.378,4.2-1.628,4.947-3.631.866-3.13,3.34,3.255,1.979,3.255,1.979,2.2-.323,2.855.766,2.779,1.756,2.779,0-.25-3.834-.25-5.516.883-6.748.883-6.748H54.006Z"/><path class="cls-11" d="M48.644,31s5.418-1.336,6.152,0,1.986,1.089,2.612,2.325-.425,1.821-2.028,3.075-.1-.453-2.354,5.162A92.452,92.452,0,0,0,49.22,54.68l-4.833-.774S49.044,40.98,49.22,37.773,46.829,32.07,48.644,31Z"/><path class="cls-12" d="M86.429,59.937a40.312,40.312,0,0,1-.742,14.192c-.517,2.21-1.22,4.375-1.7,6.592-1.619,7.43-.714,15.137-.849,22.737a24.33,24.33,0,0,1-.7,6.084"/><path class="cls-13" d="M80.636,31.982a.531.531,0,0,0-.053-.777.842.842,0,0,0-.841-.076,2.215,2.215,0,0,0-.7.531,2.584,2.584,0,0,0-.957,1.957c.08.7.677,1.333.505,2.014a3.806,3.806,0,0,1-.526.905,1.939,1.939,0,0,0,.2,2.179,1.056,1.056,0,0,0,1.331.324"/><path class="cls-13" d="M82.182,23.937s-1.82,6.757-1.977,9.789-1.812,11.039-.778,13.813,1.417,6.293,5.243,7.279,5.933,1.166,9.869-2.527S99.432,44.948,100.711,42s5.15-12.711,1.92-15.144-8.56-6.5-11.555-5.968S82.005,21.051,82.182,23.937Z"/><path class="cls-14" d="M100.23,27.083s-1.361,1.852-2.877.33-2.854-3.538-2.915-2.487,2.343,2.22-.362,1.749-3.586-3.261-4.132-1.685,1.131,2.674-1.641,1.355-3.132-3.291-3.895-1.774.493,2.307-1.888,2.814-1.074-.825-1.41-.285a2.144,2.144,0,0,0-.157,1.989c.326.447-4.647-2.383-3.573-3.938a5.323,5.323,0,0,1,2.3-1.991s-2.333-1.99-.769-2.586a7,7,0,0,1,2.687-.52s-1.63-2.456.224-2.613a20.462,20.462,0,0,1,3.563.036S81.684,14,84.341,14s4.218.548,4.816.973-.6-.425,1.49-.231,3.712.9,4.342,1.865a8.834,8.834,0,0,1,.95,2.014s-.492-2.074,1.345-.64,2.539.589,3.56,1.175,3.414,1.525,2.579,2.648-1.344,1.545-.169,1.292,7.339-1.065,6.115,1.235-2.341,1.059-1.551,2.41,4.47,1.562,2.219,2.93-2.029-.106-2.616,1.3,1,4.074-.322,4.225-1.112-2.388-1.8.282a8.879,8.879,0,0,1-3.764,5.021c-.728.3-1.739,1.526-1.973,1.555s-1.05-.048.358-3.257,2.726-5.222,2.1-7.019S100.23,27.083,100.23,27.083Z"/><path class="cls-13" d="M102.513,38.048s2.948.823,2.244,2.428-1.1.918-2.34,2.185.244,2.176-1.525,3.414-2.687.141-2.481-.5"/><path class="cls-15" d="M89.546,32.976s-.869,3.925-2.258,5.164-3.244,1.395-2.91,2.374,2.26,1.6,2.26,1.6"/><path class="cls-15" d="M98.639,31.992a3.87,3.87,0,0,0-4.631-.967"/><path class="cls-15" d="M88.316,29.633c-.844-.184-1.271-1.2-2.086-1.485a2.719,2.719,0,0,0-1.324-.01l-1.576.252"/><path class="cls-9" d="M95.4,36.069c-.283.149-.46-.3-.662-.552-.367-.45-1.053-.219-1.508.176a3.193,3.193,0,0,0-1.052,1.775,2.121,2.121,0,0,0,.5,1.913,1.193,1.193,0,0,0,1.683-.076,2.592,2.592,0,0,0,.5-.975,8.2,8.2,0,0,0,.389-2.221"/><ellipse class="cls-16" cx="93.552" cy="36.958" rx="1.401" ry="0.963" transform="translate(38.803 121.341) rotate(-78.581)"/><path class="cls-9" d="M84.92,33.484c-.283.149-.46-.3-.662-.552-.367-.45-1.053-.22-1.508.176A3.193,3.193,0,0,0,81.7,34.883a2.124,2.124,0,0,0,.5,1.913,1.194,1.194,0,0,0,1.684-.076,2.592,2.592,0,0,0,.5-.975,8.2,8.2,0,0,0,.389-2.222"/><ellipse class="cls-16" cx="83.069" cy="34.373" rx="1.401" ry="0.963" transform="translate(32.93 108.992) rotate(-78.581)"/><path class="cls-15" d="M89.806,47.34a7.37,7.37,0,0,1-1.653.576,2.653,2.653,0,0,1-1.711-.2,9.9,9.9,0,0,0-1.281-.81"/><path class="cls-12" d="M102.433,39.6c.212.105.5.02.675.183a.524.524,0,0,1,.075.523,1.724,1.724,0,0,1-.814,1.031,4.12,4.12,0,0,0-.821.441c-.453.413-.392,1.143-.68,1.684a1.433,1.433,0,0,1-1.161.742.17.17,0,0,1-.1-.016.176.176,0,0,1-.063-.112,1.822,1.822,0,0,1-.044-.662"/><path class="cls-12" d="M101.95,23.813a1.768,1.768,0,0,0-.764.852,2.136,2.136,0,0,0-.324,1.564,1.843,1.843,0,0,0,.862.977c.378.233.794.4,1.153.666a2.787,2.787,0,0,1,.986,1.336,1.289,1.289,0,0,1,.059.77c-.159.538-.784.761-1.326.907"/><path class="cls-12" d="M100.881,23.559A8.89,8.89,0,0,1,99.5,24.748a.447.447,0,0,1-.327.113c-.148-.032-.221-.193-.279-.332a4.757,4.757,0,0,0-3.693-2.82c-.554-.072-1.278.081-1.375.632s.526,1.163.181,1.6c-.241.3-.756.176-1.018-.111s-.384-.676-.623-.983a3.157,3.157,0,0,0-1.726-.9c-.451-.125-1.064-.182-1.262.242-.233.5.418,1.069.232,1.586-.159.44-.782.472-1.219.3A2.649,2.649,0,0,1,87.045,22.9"/><path class="cls-12" d="M102.675,23.8a4.387,4.387,0,0,0-.547.859.583.583,0,0,0-.079.285c.016.278.355.4.629.447l2.754.5a1.8,1.8,0,0,1,.968.385.621.621,0,0,1,.008.923,1.006,1.006,0,0,1-.532.1,4,4,0,0,0-1.585.389c0,.346.435.488.774.552a9.221,9.221,0,0,1,2.706.969.319.319,0,0,1,.168.161c.032.1-.04.2-.11.279a3.711,3.711,0,0,1-2.472,1.207"/><path class="cls-12" d="M101.653,22.739a.722.722,0,0,1-.929.369,1.85,1.85,0,0,1-.819-.733,10.434,10.434,0,0,1-.694-1.1,3.381,3.381,0,0,0-.953-1.292.333.333,0,0,0-.495.037c-.348.337-.51.84-.889,1.141a2.4,2.4,0,0,1-1.793.259,1,1,0,0,1-.469-.136.946.946,0,0,1-.276-.391,7.571,7.571,0,0,1-.6-2.018"/></svg>