<svg id="word" xmlns="http://www.w3.org/2000/svg" viewBox="0 0 160 160"><defs><style>.cls-1{fill:#9d4b9c;}.cls-2{fill:#ffdc55;}.cls-2,.cls-3,.cls-4{stroke:#9d4b9c;stroke-width:0.709px;}.cls-3{fill:#f8a361;}.cls-4,.cls-6{fill:#fff;}.cls-5{fill:#54c5d4;}</style></defs><path class="cls-1" d="M41.108,113.768a40.114,40.114,0,0,0,0,6.811c.345,2.969,1.833,4.928.345,5.062-4.936.439-4.5.96-4.5.96s4.325.089,5.026-.26c.681-.351.51.435,3.98,1.309s7.274,2.008,7.274,2.008.953-.874-5.2-2.447c-.841-.212-2.6-.7-1.9-1.046a33.364,33.364,0,0,1,4.681-.874c3.8-.61,3.027-1.129,3.027-1.129s-3.644.263-4.673.435c-1.045.17-3.988.349-3.988.349s4.588-1.48,5.272-2.184-6.4,1.309-6.92,1.309-1.217-.874-1.217-2.967S42.835,113.939,41.108,113.768Z"/><path class="cls-1" d="M58.43,113.768s1.556,5.94,2.419,7.855,5.371,2.448,1.556,3.323-4.5,1.044-5.191,1.219,2.245,1.046,3.29.525,4.681-1.923,4.418-1.131c-.322.961,3.725,2.7,4.588,2.7s4.328,1.927,4.328,1.927a2.274,2.274,0,0,0-1.909-2.448,11.936,11.936,0,0,1-4.319-2.1,26.016,26.016,0,0,1,3.285-.525c.863,0,4.333.7,4.333.7s.345-1.395-2.943-1.923a13.448,13.448,0,0,0-5.718.265s1.06-2.083,2.254-2.36c4.072-.963,3.464-1.223,3.464-1.223s-4.675.35-5.547,1.223-.518,1.395-1.9,1.046a6.036,6.036,0,0,1-3.3-2.79c-.173-.7-1.737-6.29-1.737-6.29S58.778,112.548,58.43,113.768Z"/><path class="cls-2" d="M65.185,104.867c-.345,2.623-2.946,5.758-3.983,7.156s2.248,3.144-1.216,3.848-1.735-2.448-4.681-.355-11.254.179-11.254.179.527,2.44-2.6,1.391-3.291-5.582-4.672-6.807-6.237-7.331-6.072-11,1.573-5.238.345-6.633c-1.208-1.4-4.67-5.939-1.727-6.981s4.507,1.92,6.416.7,5.02-4.711,10.565-3.842,8.307-1.744,14.023,2.973a21.146,21.146,0,0,1,4.854,9.925C66.3,101.44,65.185,104.867,65.185,104.867Z"/><path class="cls-2" d="M60.331,96.833s-1.727,5.411-5.71,7.86-7.624,3.318-6.242,1.565-4.672,1.22-6.063-.521-.174-2.614-.174-2.614-4.5,0-5.544-1.927c-1.026-1.919,1.391-2.094,1.391-2.094"/><path class="cls-2" d="M50.65,84.892s-3.942-9.086,3.227-15.029,15.672-4.59,19.292.577C76.5,75.2,76.3,73.936,76.77,76c.068.3.086.661.141,1.078.656,5.124-.988,10.79-3.361,11.952-2.334,1.135-9.731,6.541-15.656,2.576A31.778,31.778,0,0,1,50.65,84.892Z"/><path class="cls-3" d="M78.019,75.515a15.122,15.122,0,0,0,4.216-2.064c1.148-1.064-4.48,6.4-4.48,6.4l5.015,4.86c.176.221-2.086-.322-3.987-1.234-.841-.4-1.9.871-1.9.871a26.422,26.422,0,0,1-.235-5.9C76.987,76.45,75.277,75.219,78.019,75.515Z"/><path class="cls-4" d="M65.423,73.708s.737-4.831,4.259-.9c3.125,3.484,1.1,5.722.577,5.959S65.662,77.119,65.423,73.708Z"/><path class="cls-1" d="M67.669,74.729a1.537,1.537,0,1,0,1.922-2.24,1.536,1.536,0,1,0-1.922,2.24Z"/><path class="cls-1" d="M64.371,66.636s.165-.6.5-1.454c.17-.426.385-.914.629-1.43a12.508,12.508,0,0,1,.875-1.594A4.58,4.58,0,0,1,67,61.419a8.9,8.9,0,0,1,.71-.561c.43-.354.826-.722,1.189-1a9.156,9.156,0,0,1,.9-.658,1.558,1.558,0,0,1,.385-.178,1.578,1.578,0,0,0-.327.255,10.285,10.285,0,0,0-.759.792c-.3.344-.65.737-1.055,1.16a5.694,5.694,0,0,0-.6.611,6.036,6.036,0,0,0-.489.7c-.3.493-.573,1.032-.857,1.53s-.562.95-.815,1.332C64.771,66.158,64.371,66.636,64.371,66.636Z"/><path class="cls-1" d="M66.872,66.26a.116.116,0,0,1-.138.017c-.111-.021-.175-.246-.057-.4.183-.287.434-.678.778-1.127s.763-.954,1.241-1.471a7.046,7.046,0,0,1,1.734-1.475,4.9,4.9,0,0,1,1.109-.406,9.651,9.651,0,0,0,1.027-.248c.642-.224,1.243-.493,1.767-.687s.961-.369,1.274-.469a3.926,3.926,0,0,1,.5-.127,4.029,4.029,0,0,0-.463.217c-.29.147-.7.368-1.187.642s-1.057.587-1.709.888c-.358.155-.7.245-1.035.368a5.6,5.6,0,0,0-.951.42,9.207,9.207,0,0,0-1.59,1.346L67.8,65.059l-.991.913c-.107.1-.113.21-.046.266A.092.092,0,0,0,66.872,66.26Z"/><path class="cls-1" d="M63.8,66.447s-.073-.092-.186-.26a4.337,4.337,0,0,1-.4-.755,5.025,5.025,0,0,1-.322-1.17,5.623,5.623,0,0,1,.264-2.762,5.06,5.06,0,0,1,.537-1.088,4.354,4.354,0,0,1,.529-.667c.144-.147.232-.223.232-.223s-.038.114-.116.3-.173.454-.279.769a10.613,10.613,0,0,0-.5,2.343,10.434,10.434,0,0,0,.049,2.394,8.076,8.076,0,0,0,.132.807C63.788,66.33,63.8,66.447,63.8,66.447Z"/><path class="cls-5" d="M84.619,76.281s5.347-25.7,7.333-33,4.333-14.333,22-14.333c11.434,0,21.674.876,22.667,10s1.624,23.117-4.334,24.333-26.05,1.216-33,0S84.619,76.281,84.619,76.281Z"/><path class="cls-6" d="M104.8,43.147a.3.3,0,0,1,.349.341q0,.421-1.013,1.04a3.763,3.763,0,0,1-1.959.618,2.451,2.451,0,0,1-1.539-.547,1.9,1.9,0,0,1-.7-1.594,4.9,4.9,0,0,1,.735-2.366,6.792,6.792,0,0,1,1.822-2.117,3.537,3.537,0,0,1,2.12-.818,1.325,1.325,0,0,1,.983.368,1.175,1.175,0,0,1,.367.858,2.472,2.472,0,0,1-.083.765.784.784,0,0,1-.353.4.921.921,0,0,1-.441.165.42.42,0,0,1-.3-.124.441.441,0,0,1-.129-.335,1.749,1.749,0,0,1,.078-.428,1.9,1.9,0,0,0,.074-.468c0-.211-.072-.317-.216-.317a2.4,2.4,0,0,0-1.484.707,6.406,6.406,0,0,0-1.408,1.758,3.917,3.917,0,0,0-.585,1.853,1.353,1.353,0,0,0,.307.9,1.1,1.1,0,0,0,.9.368,2.773,2.773,0,0,0,.88-.188,3.974,3.974,0,0,0,.98-.511A1.487,1.487,0,0,1,104.8,43.147Zm1.052-7.088a7.6,7.6,0,0,0-.735.891c-.064.1-.2.143-.409.143a.493.493,0,0,1-.36-.175,5.008,5.008,0,0,1-.531-.79,9.058,9.058,0,0,0-.6-.849.481.481,0,0,1-.119-.294.372.372,0,0,1,.427-.414.662.662,0,0,1,.343.081,1.4,1.4,0,0,1,.353.415,5.03,5.03,0,0,1,.264.432c.021.04.082.133.181.28a1.376,1.376,0,0,0,.191.248,2.9,2.9,0,0,0,.221-.262,6.845,6.845,0,0,1,.606-.636c.261-.246.453-.369.579-.369a.331.331,0,0,1,.238.13.379.379,0,0,1,.121.246q0,.234-.58.744A.865.865,0,0,0,105.853,36.059Z"/><path class="cls-6" d="M108.315,40.184a5.893,5.893,0,0,0-.129.667,5.9,5.9,0,0,1-.092.684,10.883,10.883,0,0,0-.151,1.341,9.622,9.622,0,0,0,.073,1.2.654.654,0,0,1-.174.622.712.712,0,0,1-.46.2.478.478,0,0,1-.464-.282,2.469,2.469,0,0,1-.137-.981q0-.432.216-2.058l.252-1.8q.078-.394.115-.735a1.752,1.752,0,0,1,.135-.618,1.009,1.009,0,0,1,.288-.248.683.683,0,0,1,.312-.131.452.452,0,0,1,.406.216.945.945,0,0,1,.141.528Z"/><path class="cls-6" d="M114.879,39.045l-1.415.074a11.543,11.543,0,0,0-1.272.131,1.979,1.979,0,0,0-.576.137.6.6,0,0,0-.063.283,6.592,6.592,0,0,1-.165.809,4.57,4.57,0,0,0-.138.721,8.392,8.392,0,0,0,.845-.06,7.032,7.032,0,0,0,.781-.115,4.691,4.691,0,0,1,1.025-.16c.484,0,.725.144.725.431a.469.469,0,0,1-.2.439,1.611,1.611,0,0,1-.634.168q-.266.027-.6.082c-.116.019-.262.037-.437.055a10.853,10.853,0,0,0-1.5.23h0a.19.19,0,0,0-.117.106,4.688,4.688,0,0,0-.139.682,5.9,5.9,0,0,0-.1.838.185.185,0,0,0,.211.17q.221,0,1.16-.121c.626-.081,1.015-.138,1.165-.168a5.183,5.183,0,0,1,.822-.133c.389.054.583.236.583.542a.386.386,0,0,1-.137.321,3.736,3.736,0,0,1-1.273.257c-.42.025-.927.077-1.525.157a7.273,7.273,0,0,1-1.507.17.625.625,0,0,1-.734-.653l-.014-.151a1.149,1.149,0,0,1,.078-.28,18.647,18.647,0,0,0,.45-2.513q.265-1.948.266-2.169a.184.184,0,0,0-.027-.036.716.716,0,0,1-.108-.177.666.666,0,0,1-.076-.306.379.379,0,0,1,.019-.133c.011-.064.078-.128.2-.193a.713.713,0,0,1,.335-.1,3.568,3.568,0,0,1,.436.027q.383,0,2.481-.275c.466-.062.709-.092.73-.092l.065,0q.827-.059.827.533a.452.452,0,0,1-.15.273A.625.625,0,0,1,114.879,39.045Z"/><path class="cls-6" d="M117.526,42.66a16.655,16.655,0,0,0-.115,1.709.722.722,0,0,1-.152.451.5.5,0,0,1-.414.2q-.564,0-.564-.657,0-.363.266-2.453.216-1.69.216-2.017a1.391,1.391,0,0,0-.032-.422.558.558,0,0,1-.3-.547q0-.386,1.245-.673a9.74,9.74,0,0,1,2.131-.287,2.859,2.859,0,0,1,1.654.427,1.334,1.334,0,0,1,.616,1.153,2.247,2.247,0,0,1-1.13,1.84A7.255,7.255,0,0,1,118.2,42.5Q117.608,42.629,117.526,42.66Zm.408-3.449-.27,2.416a7.1,7.1,0,0,0,2.324-.783q1-.562,1-1.206,0-.766-1.212-.767A5.763,5.763,0,0,0,117.934,39.211Z"/><path class="cls-6" d="M122.105,44.622a.631.631,0,0,1-.406-.108q-.13-.108-.131-.567a2.555,2.555,0,0,1,.023-.393c.015-.09.089-.162.223-.213a1.624,1.624,0,0,1,.576-.079.628.628,0,0,1,.428.131.385.385,0,0,1,.146.287.785.785,0,0,1-.08.4,1.382,1.382,0,0,1-.349.343A.808.808,0,0,1,122.105,44.622Z"/><path class="cls-6" d="M124.448,44.622a.635.635,0,0,1-.407-.108c-.086-.072-.13-.261-.13-.567a2.433,2.433,0,0,1,.023-.393c.015-.09.089-.162.223-.213a1.621,1.621,0,0,1,.576-.079.63.63,0,0,1,.428.131.385.385,0,0,1,.146.287.785.785,0,0,1-.08.4,1.39,1.39,0,0,1-.35.343A.8.8,0,0,1,124.448,44.622Z"/><path class="cls-6" d="M126.79,44.622a.633.633,0,0,1-.406-.108q-.13-.108-.131-.567a2.41,2.41,0,0,1,.024-.393c.014-.09.089-.162.222-.213a1.63,1.63,0,0,1,.577-.079.625.625,0,0,1,.427.131.383.383,0,0,1,.147.287.8.8,0,0,1-.08.4,1.39,1.39,0,0,1-.35.343A.805.805,0,0,1,126.79,44.622Z"/><path class="cls-6" d="M104.8,54.437a.3.3,0,0,1,.349.34q0,.423-1.013,1.041a3.77,3.77,0,0,1-1.959.617,2.451,2.451,0,0,1-1.539-.547,1.894,1.894,0,0,1-.7-1.593,4.894,4.894,0,0,1,.735-2.366,6.785,6.785,0,0,1,1.822-2.118,3.543,3.543,0,0,1,2.12-.818,1.329,1.329,0,0,1,.983.368,1.176,1.176,0,0,1,.367.859,2.48,2.48,0,0,1-.083.765.782.782,0,0,1-.353.4.924.924,0,0,1-.441.166.424.424,0,0,1-.3-.124.445.445,0,0,1-.129-.336,1.743,1.743,0,0,1,.078-.427,1.917,1.917,0,0,0,.074-.468q0-.318-.216-.318a2.407,2.407,0,0,0-1.484.708A6.386,6.386,0,0,0,101.7,52.34a3.921,3.921,0,0,0-.585,1.854,1.355,1.355,0,0,0,.307.9,1.107,1.107,0,0,0,.9.367,2.745,2.745,0,0,0,.88-.188,3.937,3.937,0,0,0,.98-.51A1.487,1.487,0,0,1,104.8,54.437Zm1.052-7.088a7.44,7.44,0,0,0-.735.891.469.469,0,0,1-.409.143.5.5,0,0,1-.36-.175,5.059,5.059,0,0,1-.531-.79,9.191,9.191,0,0,0-.6-.85.477.477,0,0,1-.119-.294.371.371,0,0,1,.427-.413.662.662,0,0,1,.343.08,1.4,1.4,0,0,1,.353.416,4.915,4.915,0,0,1,.264.431c.021.04.082.134.181.281a1.376,1.376,0,0,0,.191.248,2.9,2.9,0,0,0,.221-.262,6.6,6.6,0,0,1,.606-.636c.261-.247.453-.37.579-.37a.333.333,0,0,1,.238.131.375.375,0,0,1,.121.246q0,.234-.58.744A.84.84,0,0,0,105.853,47.349Z"/><path class="cls-6" d="M108.315,51.474a5.925,5.925,0,0,0-.129.666,5.9,5.9,0,0,1-.092.684,10.893,10.893,0,0,0-.151,1.342,9.606,9.606,0,0,0,.073,1.194.656.656,0,0,1-.174.623.712.712,0,0,1-.46.2.477.477,0,0,1-.464-.283,2.467,2.467,0,0,1-.137-.98q0-.432.216-2.058l.252-1.8q.078-.4.115-.736a1.75,1.75,0,0,1,.135-.617.994.994,0,0,1,.288-.248.672.672,0,0,1,.312-.131.452.452,0,0,1,.406.216.945.945,0,0,1,.141.528Z"/><path class="cls-6" d="M114.879,50.335l-1.415.073a12.053,12.053,0,0,0-1.272.131,2,2,0,0,0-.576.138.59.59,0,0,0-.063.283,6.588,6.588,0,0,1-.165.808,4.558,4.558,0,0,0-.138.722,8.455,8.455,0,0,0,.845-.061,7.1,7.1,0,0,0,.781-.114,4.705,4.705,0,0,1,1.025-.161c.484,0,.725.144.725.432a.471.471,0,0,1-.2.439,1.614,1.614,0,0,1-.634.167c-.177.019-.376.046-.6.083-.116.018-.262.037-.437.055a10.853,10.853,0,0,0-1.5.23h0a.188.188,0,0,0-.117.1,4.724,4.724,0,0,0-.139.682,5.907,5.907,0,0,0-.1.839.186.186,0,0,0,.211.17q.221,0,1.16-.122t1.165-.168a5.31,5.31,0,0,1,.822-.133q.583.083.583.542a.388.388,0,0,1-.137.322,3.785,3.785,0,0,1-1.273.257c-.42.024-.927.077-1.525.156a7.273,7.273,0,0,1-1.507.17.625.625,0,0,1-.734-.652l-.014-.152a1.161,1.161,0,0,1,.078-.28,18.614,18.614,0,0,0,.45-2.513q.265-1.947.266-2.168a.172.172,0,0,0-.027-.037.7.7,0,0,1-.108-.176.666.666,0,0,1-.076-.306.375.375,0,0,1,.019-.133c.011-.064.078-.129.2-.193a.7.7,0,0,1,.335-.1,3.38,3.38,0,0,1,.436.027q.383,0,2.481-.275.7-.093.73-.093l.065,0q.827-.06.827.533a.457.457,0,0,1-.15.273A.633.633,0,0,1,114.879,50.335Z"/><path class="cls-6" d="M117.526,53.95a16.621,16.621,0,0,0-.115,1.709.722.722,0,0,1-.152.45.492.492,0,0,1-.414.2q-.564,0-.564-.656,0-.363.266-2.453.216-1.69.216-2.017a1.386,1.386,0,0,0-.032-.422.56.56,0,0,1-.3-.547q0-.387,1.245-.673a9.679,9.679,0,0,1,2.131-.287,2.852,2.852,0,0,1,1.654.427,1.334,1.334,0,0,1,.616,1.153,2.249,2.249,0,0,1-1.13,1.84,7.271,7.271,0,0,1-2.747,1.123C117.806,53.877,117.581,53.928,117.526,53.95Zm.408-3.45-.27,2.416a7.076,7.076,0,0,0,2.324-.783q1-.562,1-1.206,0-.767-1.212-.767A5.79,5.79,0,0,0,117.934,50.5Z"/><path class="cls-6" d="M122.105,55.911a.626.626,0,0,1-.406-.108q-.13-.106-.131-.567a2.55,2.55,0,0,1,.023-.392c.015-.091.089-.162.223-.214a1.651,1.651,0,0,1,.576-.078.623.623,0,0,1,.428.131.383.383,0,0,1,.146.287.79.79,0,0,1-.08.4,1.365,1.365,0,0,1-.349.342A.8.8,0,0,1,122.105,55.911Z"/><path class="cls-6" d="M124.448,55.911a.629.629,0,0,1-.407-.108c-.086-.071-.13-.26-.13-.567a2.427,2.427,0,0,1,.023-.392c.015-.091.089-.162.223-.214a1.647,1.647,0,0,1,.576-.078.625.625,0,0,1,.428.131.383.383,0,0,1,.146.287.79.79,0,0,1-.08.4,1.373,1.373,0,0,1-.35.342A.8.8,0,0,1,124.448,55.911Z"/><path class="cls-6" d="M126.79,55.911a.627.627,0,0,1-.406-.108q-.13-.106-.131-.567a2.4,2.4,0,0,1,.024-.392c.014-.091.089-.162.222-.214a1.658,1.658,0,0,1,.577-.078.62.62,0,0,1,.427.131.381.381,0,0,1,.147.287.8.8,0,0,1-.08.4,1.373,1.373,0,0,1-.35.342A.8.8,0,0,1,126.79,55.911Z"/></svg>