<svg id="word" xmlns="http://www.w3.org/2000/svg" viewBox="0 0 160 160"><defs><style>.cls-1{fill:#f4d4d3;}.cls-1,.cls-2{stroke:#9a4d9a;stroke-miterlimit:10;stroke-width:1.317px;}.cls-2{fill:#f7b3c1;}</style></defs><path class="cls-1" d="M67.528,101.771s8.637-5.882,12.391-10.638a86.545,86.545,0,0,0,7.26-11.015c1.251-2.127,2.619-2.378,2.253-7.509-.249-3.478-.5-5.758-2.253-6.258s-5.95-4.005-9.888-3.129S69.906,73.1,66.9,78.172s-9.638,13.336-9.638,13.712S67.528,101.771,67.528,101.771Z"/><path class="cls-2" d="M68.029,93.886c.376-.125,15.019-10.263,15.77-13.768s2.754-6.508,2.5-9.637-2.754-6.634-5.257-7.134-2.5-1.5-12.016-.376S50.006,69.73,44.624,72.609s-10.013,6.633-9.638,7.134S60.9,87,62.021,87.879,68.029,93.886,68.029,93.886Z"/><path class="cls-1" d="M33.234,73.485s-1.752-1.085-2.253,0-2.837,1.085-2.837,1.085-1.418.667-1.5,1.084-1.168-.584-1.752.5-1.168.834-1.836,1.335-.751-.806-1.251.682-1.836,1.654-2.086,2.239-.584-.167-.251.584a1.835,1.835,0,0,1-.14,2.086c-.527.584-3.2,1-2.947,1.752s.5-.584.5,1.252-1.085,1.084-1.252,2.086-4.005,2.753-3.421,3.588-.083.417.584,1.5-1.168,2.42-.25,3.922-1.5,2.837-.084,4.589,1.669,1.753,2.42,3.5-1.5.25,1.419,2,3.17,1.168,3.337,1.5.251.835,1.752,1.336.084.166,2.17.5,2.754,0,3,.584,1.085,1,2.42,1.586,2.086,1.251,4.255.751,3.171-1,4.089-.418,1.084-.232,2.586.594-1.251.176,3.255,0,4.839-.594,5.173-.844a5.55,5.55,0,0,1,1.669-.918h1.168a8.988,8.988,0,0,0,2.587-.584s1.668-.417,2.086-1.085-1-3.671.667-2.92,1.5,1.168,3,.918a6.6,6.6,0,0,0,3.588-2.253c.083-.417-1.752-1.836,0-1.919l1.752-.084s-1.585-1.335.835-1.335a3.322,3.322,0,0,0,3.144-1.84c.125-.09,3.531-1.748,3.531-1.748S70.7,91.842,70.2,90.757s1.419-2.67.084-3.171S69.2,85.334,68.613,85s-1.836-1.919-2.336-2.086.334-1.5-1.836-1.836-.167-3.143-1.585-2.906S59.6,76.155,58.35,76.155s-4.756-2.253-5.34-2.42-3.672-3.921-6.258-3.588-2.671.084-3.839.334a5.318,5.318,0,0,1-1.835.25c-.918,0-1.669-1.961-3.505-.6S33.234,73.485,33.234,73.485Z"/><path class="cls-1" d="M34.965,76.989s-1.988-.364-1.564-2.169-.167-1.919-.918-2.92-.667-2.086-1.251-2.921-1.586-6.522-1.586-6.522-8.01-1.321-4.839-3.324,3.254-3.922,3.671-4.172,1-3.338,1.418-3.171,2.671-5.006,2.671-5.006a1.276,1.276,0,0,1,1.418-.835c1.085.167,4.923-1.251,5.09-.751s2.5-1.835,2.754-1.084,3.5.452,3.588.977.166-.226.834,1.192,2,.167,2.336,2.17,1.919-.418,1.586,3.17-1.252,4.423-1.5,5.925,1.335,2.753,1,3.671a17.163,17.163,0,0,0-.834,3.952c-.167,1.639-.167,8.4-.334,9.315s-.25,2.5-.25,2.5,3.337-.417-1,0A112.036,112.036,0,0,1,34.965,76.989Z"/><path class="cls-1" d="M41.244,79.91s-2.336-4.172,0-4.923,0-4.84,1.669-4.506-1.585-4.089,1.168-3.5,3.255-1.836,3.255-3.588V60.051s.959-1.529,1.4-1.557a31.911,31.911,0,0,0,3.192-1.53c.25-.084,3.171-3.588,3.588-3.588s1.669-2.086,2.253-1.919,1.585-1.5,2.879-.918,4.3-.835,4.63-.835,2.5-.918,3.088,0,.417-1.919,1.669.835,2,1.418,2.336,3.754,1.168,1.5,1.168,3.255,1.669,1.752-.417,3.755a44.2,44.2,0,0,1-3.838,3.3l-.251,2.54s5.09,0,0,2.5-6.174,1.167-6.425,2.836.167,1.084-1.168,2.253-1,.5-1.667,2-1.837-.22-3.59,1.435-2.419,2.572-4.339,3.073a22.117,22.117,0,0,1-2.67.584l-2.336-.751Z"/><path class="cls-1" d="M50.219,72.734s2.04-5.757,2.29-5.34.334-1.335.584-1.335-.584-3.088,1-2.921,1.419-2.635,1.669-2.569,1.179-2.02,1.424-1.853.746-.584.746-.584S59.1,56.3,60.186,57.047s.5.668,1.084.751,1.753-.584,2.253-.167.251-1.418.5.417,2.086.418.751,1.919a30.8,30.8,0,0,0-2.17,2.49c-.333.514-.333-.153-1.251.6s-1.221,1.478-1.085,1.745,2.42.091,0,1.342-2.393,2-2.531,2.587,2.291-.163-.551.919-2.008.249-2.842,1.083a15.316,15.316,0,0,0-1.836,2c-.248.424.918-.25-.167,1.168s-1.494,1.752-2.123,1.752H48.354"/><path class="cls-1" d="M37.907,68.478a11.635,11.635,0,0,1-1.168-2.218,2.347,2.347,0,0,0-.751-1.089,23.743,23.743,0,0,1,0-2.714c.083-1.572-4.59-2.323-2.754-2.823S35.357,58.3,35.357,58.3a4.028,4.028,0,0,1,0-2,5.232,5.232,0,0,0,0-2.253,1.861,1.861,0,0,1,1.048-1.335c.918-.417,1.585-1.085,1.836-.667s.333-.251.667.25.677-.417,1.3.667.371-.917.621,1.085.417.918.584,2.253a3.548,3.548,0,0,1,0,2.086c-.25,1.335-.333.453-.5,2.187s-.7,4.6-.7,4.6l.371,1.089v1.718l-.371,3v.751"/><path class="cls-1" d="M130.036,103.686s8.636-5.882,12.391-10.639a86.554,86.554,0,0,0,7.26-11.014c1.251-2.128,2.619-2.378,2.252-7.51-.248-3.477-.5-5.757-2.252-6.258s-5.95-4-9.888-3.129-7.385,9.874-10.389,14.95-9.637,13.337-9.637,13.712S130.036,103.686,130.036,103.686Z"/><path class="cls-2" d="M130.537,95.8c.375-.125,15.019-10.263,15.77-13.768s2.754-6.508,2.5-9.637-2.753-6.634-5.256-7.134-2.5-1.5-12.016-.376-19.024,6.759-24.406,9.637-10.013,6.634-9.638,7.135,25.909,7.259,27.035,8.135S130.537,95.8,130.537,95.8Z"/><path class="cls-1" d="M95.742,75.4s-1.752-1.085-2.253,0-2.837,1.084-2.837,1.084-1.418.668-1.5,1.085-1.168-.584-1.752.5-1.168.834-1.836,1.335-.751-.807-1.251.681-1.836,1.655-2.087,2.239-.584-.167-.25.584A1.835,1.835,0,0,1,81.834,85c-.527.584-3.2,1-2.947,1.753s.5-.585.5,1.251-1.084,1.085-1.251,2.086-4,2.754-3.421,3.588-.084.417.584,1.5-1.168,2.42-.25,3.922-1.5,2.837-.084,4.589,1.669,1.752,2.42,3.5-1.5.25,1.418,2,3.171,1.168,3.338,1.5.25.835,1.752,1.335.084.167,2.17.5,2.753,0,3,.584,1.084,1,2.419,1.585,2.086,1.252,4.256.751,3.171-1,4.089-.417,1.084-.232,2.586.593-1.251.176,3.254,0,4.84-.593,5.174-.843a5.528,5.528,0,0,1,1.669-.918h1.168a8.987,8.987,0,0,0,2.586-.584s1.669-.417,2.086-1.085-1-3.671.668-2.92,1.5,1.168,3,.918a6.609,6.609,0,0,0,3.588-2.253c.083-.418-1.752-1.836,0-1.92l1.752-.083s-1.585-1.335.834-1.335a3.324,3.324,0,0,0,3.145-1.84c.125-.09,3.531-1.748,3.531-1.748s-1.669-7.259-2.17-8.344,1.419-2.67.084-3.171-1.085-2.253-1.669-2.587-1.836-1.919-2.336-2.086.333-1.5-1.836-1.835-.167-3.143-1.586-2.907-3.254-2.016-4.5-2.016-4.756-2.253-5.341-2.42-3.671-3.922-6.258-3.588-2.67.083-3.838.334a5.32,5.32,0,0,1-1.836.25c-.917,0-1.668-1.961-3.5-.605S95.742,75.4,95.742,75.4Z"/><path class="cls-1" d="M97.473,78.9s-1.988-.364-1.564-2.169-.167-1.919-.918-2.921-.668-2.086-1.252-2.92-1.585-6.523-1.585-6.523-8.01-1.321-4.84-3.323,3.255-3.922,3.672-4.172,1-3.338,1.418-3.171,2.67-5.007,2.67-5.007a1.277,1.277,0,0,1,1.419-.834c1.085.167,4.923-1.252,5.09-.751s2.5-1.836,2.753-1.085,3.5.453,3.588.978.167-.227.835,1.192,2,.167,2.336,2.169,1.919-.417,1.585,3.171-1.251,4.422-1.5,5.924,1.335,2.754,1,3.672a17.209,17.209,0,0,0-.835,3.952c-.166,1.638-.166,8.4-.333,9.315s-.251,2.5-.251,2.5,3.338-.417-1,0A112.3,112.3,0,0,1,97.473,78.9Z"/><path class="cls-1" d="M103.752,81.825s-2.336-4.172,0-4.923,0-4.84,1.669-4.506-1.585-4.089,1.168-3.5,3.254-1.836,3.254-3.588V61.966s.96-1.53,1.4-1.558a31.8,31.8,0,0,0,3.192-1.53c.25-.083,3.17-3.588,3.588-3.588s1.669-2.086,2.253-1.919,1.585-1.5,2.878-.918,4.3-.834,4.631-.834,2.5-.918,3.088,0,.417-1.919,1.668.834,2,1.419,2.337,3.755,1.168,1.5,1.168,3.254,1.669,1.753-.417,3.755a44.028,44.028,0,0,1-3.839,3.3l-.25,2.54s5.09,0,0,2.5-6.175,1.166-6.425,2.835.167,1.085-1.168,2.253-1,.5-1.667,2-1.838-.221-3.59,1.434-2.42,2.573-4.339,3.074a22.394,22.394,0,0,1-2.67.584l-2.336-.751Z"/><path class="cls-1" d="M112.726,74.649s2.04-5.758,2.291-5.341.334-1.335.584-1.335-.584-3.087,1-2.92,1.419-2.635,1.669-2.569,1.179-2.02,1.424-1.853.745-.585.745-.585,1.169-1.835,2.253-1.084.5.667,1.085.751,1.752-.584,2.253-.167.25-1.419.5.417,2.086.417.751,1.919a31.055,31.055,0,0,0-2.17,2.489c-.334.515-.334-.153-1.251.6s-1.221,1.479-1.085,1.746,2.42.09,0,1.342-2.393,2-2.532,2.586,2.292-.163-.55.92-2.008.249-2.842,1.083a15.179,15.179,0,0,0-1.836,2c-.248.424.918-.251-.167,1.168s-1.494,1.752-2.124,1.752h-1.864"/><path class="cls-1" d="M100.415,70.393a11.686,11.686,0,0,1-1.169-2.218,2.34,2.34,0,0,0-.751-1.089,24.044,24.044,0,0,1,0-2.715c.084-1.571-4.589-2.322-2.753-2.823s2.122-1.335,2.122-1.335a4.037,4.037,0,0,1,0-2,5.215,5.215,0,0,0,0-2.253,1.864,1.864,0,0,1,1.049-1.335c.918-.417,1.585-1.085,1.835-.668s.334-.25.668.251.677-.418,1.3.667.371-.918.621,1.085.417.918.584,2.253a3.557,3.557,0,0,1,0,2.086c-.25,1.335-.334.452-.5,2.187s-.7,4.6-.7,4.6l.371,1.089v1.717l-.371,3v.751"/></svg>