<svg id="word" xmlns="http://www.w3.org/2000/svg" viewBox="0 0 160 160"><defs><style>.cls-1{fill:#495662;stroke:#9b4b9b;}.cls-2{fill:#38444e;}.cls-3{fill:#f5eb38;}</style></defs><path class="cls-1" d="M105.674,51.61s5.284-1.759,4.528-4.024-3.52-9.055-2.012-11.824,4.527-5.784,7.044-5.533,0,2.766-.254,5.533-3.521,5.283-1,8.805,4.527,8.805,1.508,10.565-12.326,2.516-14.338,2.516S93.1,59.913,90.329,60.917,74.985,65.446,77,67.208s11.572,6.541,13.836,8.048,8.048,6.791,5.785,9.81-7.674,6.548-23.395,8.05c-2.266.216-19.87-.755-20.626,1.51s6.54,5.533,10.817,7.043,20.375,11.069,23.143,13.583,8.695,9.592,1.761,14.841c-2.289,1.733-13.066,2.443-18.114,3.019-3.038.347-10.815,1.258-13.581,1.762s-14.591,1-17.861,2.012-9.559,6.541-10.565,8.3-2.264,4.779-3.27,3.017,4.023-9.176,9.056-12.074c7.578-4.366,25.909-5.786,33.456-7.3s14.086.5,15.093-3.771-6.29-10.315-8.553-11.572-16.1-8.051-20.88-9.308-16.477-4.634-16.978-9.413,3.9-7.512,7.672-7.512,22.137-2.444,26.916-2.194,17.86-1,15.343-3.522-21.61-8.73-21.107-13.006,2.964-6.585,8-8.616C78.956,57.5,89.361,53.1,96.052,52.937A83.919,83.919,0,0,0,105.674,51.61Z"/><path class="cls-2" d="M47.943,94.626s-3.772-2.265-2.767-3.649,1.887-2.892,3.774-2.262,8.995.358,13.145.735,10.681,1.589,12.262,1.4c2.854-.339,11.582-1.4,11.582-1.4s-9.193,2.156-10.954,2.661-13.836.628-15.093.378a27.369,27.369,0,0,0-7.8.752c-1.258.5.253,3.4.63,3.524S47.943,94.626,47.943,94.626Z"/><path class="cls-2" d="M76.359,60.708s-.166.094-.431.255c-1.176.716-4.313,2.769-3.594,3.9.88,1.382,7.924,5.408,7.924,5.408s-3.553-3.863-2.39-4.653c4.24-2.883,6.666-2.642,6.666-2.642L95.2,59.006a54.418,54.418,0,0,0-10.793.823A36.268,36.268,0,0,1,76.359,60.708Z"/><path class="cls-2" d="M78.633,114s4.629,2.906,5.785,5.281c2.374,4.878,2.9,6.851,1.521,7.858s-7.664,1.279-7.664,1.279,5.866-2.334,3.833-5.536c-1.066-1.678-2.973-5.108-3.6-5.613s-6.29-5.156-6.29-5.156Z"/><path class="cls-3" d="M107.183,35.512s.792-2.161,2.641-1.51c.356.125.88.63.378,1.76s-2.014,5.36-2.014,5.36S106.3,37.146,107.183,35.512Z"/><path class="cls-3" d="M113.936,34.63s1.849.173,1.6,1.807-2.768,5.005-2.768,5.005.581-2.409-.048-3.416"/></svg>