<svg id="word" xmlns="http://www.w3.org/2000/svg" viewBox="0 0 160 160"><defs><style>.cls-1{fill:#c3996b;stroke-miterlimit:10;}.cls-1,.cls-2{stroke:#9d4b9c;stroke-width:0.852px;}.cls-2{fill:#f9ec35;}.cls-3{fill:#ec1c24;}.cls-4{fill:#231f20;}.cls-5{fill:#a7af52;}</style></defs><path class="cls-1" d="M76.485,71.436l-.191,64.989s.051,2.094,3.154,2.294c6.243.4,4.1-2.885,4.1-2.885l-.572-66.17Z"/><rect class="cls-2" x="53.188" y="17.052" width="53.625" height="59.719"/><rect class="cls-3" x="55.828" y="54.63" width="48.75" height="19.5"/><path class="cls-4" d="M71.237,52.385a2.819,2.819,0,0,0,1.426.4c.813,0,1.288-.43,1.288-1.052,0-.575-.328-.9-1.16-1.224-1.006-.357-1.627-.878-1.627-1.746a1.773,1.773,0,0,1,1.992-1.673,2.8,2.8,0,0,1,1.362.3l-.219.649a2.449,2.449,0,0,0-1.17-.292c-.841,0-1.161.5-1.161.923,0,.576.375.859,1.225,1.188,1.042.4,1.572.905,1.572,1.81,0,.95-.7,1.773-2.157,1.773a3.187,3.187,0,0,1-1.572-.393Z"/><path class="cls-4" d="M76.849,51.416l-.639,1.937h-.823l2.093-6.16h.96l2.1,6.16h-.85l-.658-1.937Zm2.02-.622-.6-1.773c-.137-.4-.229-.768-.32-1.125h-.018c-.091.366-.192.741-.311,1.116l-.6,1.782Z"/><path class="cls-4" d="M81.447,47.275a8.3,8.3,0,0,1,1.526-.128,2.523,2.523,0,0,1,1.783.5,1.537,1.537,0,0,1,.484,1.17,1.618,1.618,0,0,1-1.161,1.572v.028a1.531,1.531,0,0,1,.905,1.243,9.8,9.8,0,0,0,.475,1.69h-.822a7.942,7.942,0,0,1-.412-1.471c-.182-.85-.511-1.17-1.233-1.2h-.75v2.669h-.8Zm.8,2.806h.813c.851,0,1.39-.466,1.39-1.17,0-.8-.576-1.143-1.417-1.151a3.249,3.249,0,0,0-.786.073Z"/><path class="cls-4" d="M91.081,53.079a5.736,5.736,0,0,1-1.892.339,2.9,2.9,0,0,1-3.163-3.108,3.09,3.09,0,0,1,3.337-3.181,3.81,3.81,0,0,1,1.535.283l-.192.649a3.2,3.2,0,0,0-1.362-.265,2.3,2.3,0,0,0-2.477,2.477,2.259,2.259,0,0,0,2.377,2.487A2.6,2.6,0,0,0,90.3,52.6V50.758H89.052v-.64h2.029Z"/><path class="cls-4" d="M93.092,47.193v6.16h-.8v-6.16Z"/><path class="cls-4" d="M97.671,50.465H95.277v2.221h2.669v.667H94.482v-6.16h3.326v.667H95.277v1.947h2.394Z"/><path class="cls-4" d="M98.869,52.385a2.818,2.818,0,0,0,1.425.4c.814,0,1.289-.43,1.289-1.052,0-.575-.329-.9-1.161-1.224-1-.357-1.627-.878-1.627-1.746a1.774,1.774,0,0,1,1.993-1.673,2.8,2.8,0,0,1,1.362.3l-.219.649a2.456,2.456,0,0,0-1.17-.292c-.841,0-1.161.5-1.161.923,0,.576.375.859,1.225,1.188,1.042.4,1.572.905,1.572,1.81,0,.95-.7,1.773-2.157,1.773a3.191,3.191,0,0,1-1.573-.393Z"/><path class="cls-4" d="M66.4,66.195H62.915v2.247H66.8V70.2H60.766V60.734h5.841v1.755H62.915v1.965H66.4Zm-.927-7.441v1.137H61.834V58.754Z"/><path class="cls-4" d="M68.262,60.86a18.716,18.716,0,0,1,2.85-.2,4.834,4.834,0,0,1,3.061.743,2.406,2.406,0,0,1,.87,1.98,2.511,2.511,0,0,1-1.671,2.331v.042a2.387,2.387,0,0,1,1.264,1.769c.3,1.067.59,2.3.772,2.668h-2.19a11.818,11.818,0,0,1-.66-2.2c-.253-1.18-.66-1.5-1.53-1.517h-.646V70.2h-2.12Zm2.12,4.072h.842c1.067,0,1.7-.534,1.7-1.362,0-.871-.59-1.306-1.572-1.32a5.351,5.351,0,0,0-.969.07Z"/><path class="cls-4" d="M83.479,69.93a6.093,6.093,0,0,1-2.429.407c-3.271,0-4.956-2.035-4.956-4.731a4.824,4.824,0,0,1,5.167-5.027,5.586,5.586,0,0,1,2.33.421l-.435,1.7a4.63,4.63,0,0,0-1.8-.351,3.111,3.111,0,0,0,.014,6.22,5.331,5.331,0,0,0,1.783-.309Z"/><path class="cls-4" d="M90.511,66.195H87.028v2.247h3.89V70.2H84.88V60.734h5.841v1.755H87.028v1.965h3.483Z"/><path class="cls-4" d="M92.446,67.993a5.469,5.469,0,0,0,2.373.589c.982,0,1.5-.407,1.5-1.025,0-.59-.449-.927-1.587-1.334-1.572-.547-2.6-1.418-2.6-2.794,0-1.614,1.348-2.85,3.58-2.85a5.809,5.809,0,0,1,2.415.477l-.477,1.727a4.509,4.509,0,0,0-1.98-.448c-.927,0-1.376.42-1.376.912,0,.6.534.87,1.755,1.333,1.671.619,2.457,1.489,2.457,2.823,0,1.586-1.221,2.934-3.819,2.934a6.21,6.21,0,0,1-2.682-.575Z"/><path class="cls-4" d="M99.646,69.073a1.257,1.257,0,1,1,1.264,1.279A1.22,1.22,0,0,1,99.646,69.073Zm.463-1.979-.323-6.36h2.233l-.309,6.36Z"/><path class="cls-4" d="M78.743,40c-2.888.1-7.324-.3-9.152-2.11-2.13-2.109-3.479-5.493-3.006-7.543.574-2.488,2.1-5.337,8.822-5.206,7.207.128,9.765,7.246,9.79,7.317l.017.06a6.3,6.3,0,0,1-.936,4.831,5.684,5.684,0,0,1-3.533,2.466A14.431,14.431,0,0,1,78.743,40ZM74.348,26.1c-5.852.2-6.51,3.052-6.836,4.462-.357,1.546.663,4.588,2.749,6.652,1.886,1.867,7.749,2.139,10.311,1.667a4.724,4.724,0,0,0,2.917-2.061,5.355,5.355,0,0,0,.8-4.076c-.193-.531-2.516-6.537-8.9-6.652C75.026,26.086,74.678,26.089,74.348,26.1Z"/><path class="cls-4" d="M80.575,29.759s-4.988-3.309-7.017-.643c-1.53,2.012-2.645,3.327-.867,6.265s7.708,3.377,8.414,2.993a14.383,14.383,0,0,1,2.371-.8l3.734.473,2.367-.919-4.641-2.481S86.082,33.05,80.575,29.759Z"/><path class="cls-4" d="M76.075,25.514a8.492,8.492,0,0,0-1.583-1.9c-.738-.535-3.746-2.032-4.356-2.331s-1.9-.536-1.182-.68,4.552,1.046,5.894,1.72,2.708,3.266,2.708,3.266Z"/><path class="cls-4" d="M80.732,27.315l-1.376-2.871S78.1,22.887,78.12,22.167s-1.143-3.079-1.573-3.983.431-.255.85.331a64.758,64.758,0,0,1,3.476,5.878,33.335,33.335,0,0,0,1.792,3.337l.076,1.076Z"/><path class="cls-4" d="M84.178,31.116s.428-.334.342-1.69-.905-1.968-.388-3.225,1.679-3.534,2.237-3.592-.3.689-.471,1.454-1,3.511-.689,4.46a5.007,5.007,0,0,1,.262,3.029,2.432,2.432,0,0,1-.567.939Z"/><path class="cls-4" d="M84.8,33.054s1.275-.123,1.514-.132a4.283,4.283,0,0,1,.52.023s1.642-2.294,2.87-2.615,3.452-.756,4.722.16A10.227,10.227,0,0,1,96.5,32.5a5.588,5.588,0,0,0-3.92-1.267,8.135,8.135,0,0,0-4.4,2.227,2.141,2.141,0,0,1-1.541.532c-.24.008-1.6.014-1.6.014Z"/><path class="cls-4" d="M66.846,31.368a8.479,8.479,0,0,1-2.019-1.435c-.588-.7-2.308-3.583-2.652-4.168s-.677-1.851-.767-1.128,1.385,4.461,2.159,5.748,3.46,2.455,3.46,2.455Z"/><path class="cls-4" d="M68.993,35.876,66.026,34.72s-1.646-1.13-2.363-1.061-3.156-.908-4.091-1.269-.221.449.394.823a64.755,64.755,0,0,0,6.123,3.024,33.394,33.394,0,0,1,3.462,1.535l1.08,0Z"/><path class="cls-4" d="M73.042,39.026s-.3.453-1.66.469-2.03-.755-3.244-.145-3.4,1.941-3.414,2.5.665-.347,1.415-.578,3.426-1.262,4.4-1.023a5.012,5.012,0,0,0,3.04.034,2.425,2.425,0,0,0,.893-.637Z"/><path class="cls-4" d="M82.682,38.488s.525.99.637,1.167a3.326,3.326,0,0,0,.274.364s-1.1,2.46-.761,3.527S83.9,46.461,85.29,46.87a9.836,9.836,0,0,0,2.688.378A4.587,4.587,0,0,1,85,45.118a6.8,6.8,0,0,1-.316-4.418,1.714,1.714,0,0,0-.316-1.41c-.112-.177-.776-1.163-.776-1.163Z"/><path class="cls-5" d="M98.67,118.94s-.042.227-.108.59a1.822,1.822,0,0,1,.119-.251Z"/><path class="cls-5" d="M96.657,135.4c.055-1.158.132-2.785.21-4.445.122-2.63,1.329-9.412,1.695-11.426-.352.846-.824,2.959-1.323,4.261-.557,1.453-1.58,8.93-1.58,8.93s.483-5.757.4-7.16.218-11.417.025-12.258.723-6.235.723-6.235-.95,4.718-1.032,5.19-.021,10.615-.021,10.615-.425,7.771-.9,9.332-.974,2.523-1,1.932a8,8,0,0,1,.348-1.8l.678-8.119.3-8.843-.168-3.857s-.266,5.031-.162,6.394a11.177,11.177,0,0,1,.048,3.345c-.231,1.257-1.037,7.733-1.464,9.584a13.3,13.3,0,0,0-.008,3.947c-.156-.024-.308-.049-.467-.072l-.008-.016c-.1-.161-.071-3.434-.071-3.434l1.7-8.7-.041-1.466-1,5.319-.774,3.793s-.515,3.831-.7,3.587.7-6.4.7-6.4l.9-11.057-.314-6.7c-.027.23-.075.617-.139.991.048,2.507.092,4.8.093,4.982,0,.416-1.272,12.883-1.272,12.883l-.9,5.983-.16-.021.076-4.592s.214-2.408-.092-1.607a15.9,15.9,0,0,0-.1,3.729s-.279,1.392-.511,2.4c-.263-.028-.53-.055-.8-.08l1.252-6.954,1.227-8.694-.289,1.3-1.4,7.131-1.786,7.122-.03,0L89.8,123.53l2.991-9.875.4-2.93a3.364,3.364,0,0,1-.213.8c-.221.421-1.325,4.541-1.879,5.91a51.382,51.382,0,0,0-1.532,5.794c-.078.429-.832,6.785-1.2,9.9-.051.429-.092.777-.125,1.059l-.2-.016-.181-.915.1-.963.659-6.278.168-7.17-1.074-7.791-1.008-6.7s.443,4.935.576,7.965,1.071,4.182,1.071,7.355.072,5.3-.535,7.231-1.181,4.809-.9,5.3a4.233,4.233,0,0,1-.094,1.879c-.168-.011-.343-.017-.512-.027-.081-.415-.142-2.76-.142-2.76l.78-5.971-.544-5.492s-.131,5.758-.124,6.946a11.148,11.148,0,0,1-.635,3.43c-.349,1.1.161,1.182.108,2.69a3.313,3.313,0,0,1-.231,1.115c-.238-.012-.468-.028-.709-.038l-.089-2.224.969-4.464-.216-7.012-1.079-16.6.739,16.045-1.168,6.264.245-2.48-.932-16.532s.681,13.787.468,13.823-1.1,8.621-1.1,8.621-.723,3.468-.917,3.928c-.045.106-.121.311-.209.553l-.458,0,.239-1.849.645-3.708.87-14.544-1.239,9.569-.635-8.88.278,9.356s-.665,4.306-1.053,6.139a28.951,28.951,0,0,1-1.272,3.927c-.1,0-.194,0-.29,0a7.156,7.156,0,0,1,.2-1.7c.269-.943.62-7.7.62-7.7l.533-2.77.878,1.887-.669-3.611-.858,2.718-.731,5.354-.747,5.84-.035,0,.654-10.69.644-10.587-.872,6.233-.65,11.987-.455,3.078-.2.007-.086-3.767-.507-4.324s.227,6.454.276,6.758a11.332,11.332,0,0,1-.088,1.345c-.2.008-.4.014-.6.023l-.032-4.79,1.074-14.031,1.026-10.212s-1.781,10.347-1.654,10.558-.727,9.748-.727,9.748.324-8.311.279-10.422a44.055,44.055,0,0,0-1.26-6.776s.435,3.882.517,5.837.4,9.55-.179,11.269a83.461,83.461,0,0,0-1.446,8.3s.185-2.3.213-3.109.8-9.686.8-9.686-1.4,7.254-1.414,8.835a29.8,29.8,0,0,1-.772,4.711c-.064,0-.131.009-.2.015a7.5,7.5,0,0,1-.133-1.439c.051-.532.422-2.708.561-3.96s1.227-9.6,1.086-11.541-.534-7.158-.534-7.158.046,4.182.063,5.163a40.4,40.4,0,0,1-.552,6.723,14.5,14.5,0,0,0-.483,2.694l.483-19.733-1.195,22.067s-1.015,5.264-1.445,7.4c-.268.03-.521.066-.782.1l1.476-7.763s.412-6.714.355-6.365-.9,6.724-.881,7c.017.249-1.605,6.228-1.882,7.25l-.013,0,1.237-6.343-1.624,6.4H67.88l1.038-4.514s-1.281,3.767-1.529,4.591c-.141.022-.286.043-.425.066l.627-2.369a20.868,20.868,0,0,0,1.03-3.254,13.239,13.239,0,0,1,.65-2.464l.14-2.989.761-3,1.774-7.277s-2.111,6.766-2.535,7.493-.2,4.564-.2,4.564a10.081,10.081,0,0,0-1.027,1.861c-.252.742-1.146,4.411-1.146,4.411l.436-3.172a9.552,9.552,0,0,1,.189-2.113,12.063,12.063,0,0,1,.756-2.553s.21,2.006.486,1.044.4-9.554.369-10.573-.34-5.052-.34-5.052a20.608,20.608,0,0,1-.123,2.215c-.092.229-.239,9.121-.239,9.121a11.363,11.363,0,0,1-.329,2.556,6.9,6.9,0,0,0-.535,1.581l.12-.982a8.556,8.556,0,0,1,.347-2.3c.3-.611-.45-3.446-.728-5.662s-.737-7.388-.737-7.388.325,6.772.384,7.554.132,9.785.132,9.785a46.8,46.8,0,0,1-1.105,5.844,19.818,19.818,0,0,0-.774,2.925,11.066,11.066,0,0,0,.206-2.06c-.075-.486.465-11.025.322-11.663s.531-6.681.531-6.681a22.667,22.667,0,0,0-.853,3.142c-.272,1.526-.36,6.161-.577,8.822s-.259,7.613-.312,7.366,0-1.993-.264-3.629a43.588,43.588,0,0,1,0-5.966l-1.689-5.255v.588l.726,4.552-.46,6.972s-.129,2.272-.308,1.339-.206-5.906-.167-7.569c.038-1.611-.331-12.387-.355-13.072.017.51.24,7.107.242,8.285,0,1.225-.729,4.87-.765,7.06a77.677,77.677,0,0,0,.857,7.97h-.031v1c-2.361.725-3.742,1.6-3.742,2.541,0,2.5,9.738,4.531,21.75,4.531s21.75-2.028,21.75-4.531C102.205,137.257,100.1,136.2,96.657,135.4Z"/></svg>