<svg id="word" xmlns="http://www.w3.org/2000/svg" viewBox="0 0 160 160"><defs><style>.cls-1{fill:#26a9e0;stroke:#9d4b9c;stroke-miterlimit:10;}</style></defs><path class="cls-1" d="M113.447,89.643c-4.269-4-30.68-27.479-30.68-27.479S61.824,42.689,56.755,42.422s-11.738,7.737-11.738,7.737S29.677,69.1,28.209,70.434s-1.067,3.735.4,3.2S49.419,53.093,51.019,54.561,29.509,76.334,33.278,77.9c1.6.667,21.743-19.875,23.477-18.808S36.346,80.972,38.614,82.573,59.69,62.031,61.824,63.9,42.082,84.974,43.683,86.708s21.342-21.076,23.61-18.141S47.284,89.109,48.885,91.51,70.228,71.1,72.362,73.369,52.62,94.311,53.954,96.579,75.43,76.17,77.164,77.9,57.022,99.38,58.489,101.381,79.832,81.639,81.7,83.107s-19.608,22.81-18.274,23.61,20.5-20.294,23.21-18.408c3.068,2.134-12.005,15.473-17.074,18.675s-2.6,3-2.6,3c1.6,2.134,14.006-6.936,19.542-9.271,2.952-1.245,6.269-6.936,12.805-1.467s4.269,6.269,11.072,16.941,18.008,19.342,22.276,4S117.715,93.645,113.447,89.643Zm9.471,28.679c-4.669.8-7.07-5.6-6.4-10.271s6.936,2.134,6.936,2.134S127.586,117.522,122.918,118.322Z"/></svg>