<svg id="word" xmlns="http://www.w3.org/2000/svg" viewBox="0 0 160 160"><defs><style>.cls-1{fill:#f3bf38;}.cls-1,.cls-3,.cls-5{stroke:#9c4c9c;}.cls-2{fill:#f0ad3a;}.cls-3{fill:#959b4f;}.cls-4{fill:#5b673c;}.cls-5{fill:#808743;}.cls-6{fill:#9c4c9c;}</style></defs><path class="cls-1" d="M84.17,62.356a36.448,36.448,0,0,1,12.1-2.177c6.693-.017,21.428,8.1,26,10.965s11.819,17.154,11.7,23,.732,17.564-8.039,23.06c-6.667,4.174-10.19,7.307-21.892,6.673-2.6-.142-19.882.869-22.272,1.14s-15.347-.08-24.815-2.324C35.142,117.529,31.6,99.915,34.581,83.1,36.653,71.447,49.691,63.068,61.5,62.19s18.621,2.027,20.312,1.415A7.221,7.221,0,0,0,84.17,62.356Z"/><path class="cls-2" d="M78.071,67.477S65.8,72.733,60.286,84.2c-2.981,6.221-3.577,19.859,4.341,29.452S80.5,124.4,80.5,124.4,60.74,110.756,64.446,94.046,76.719,68.1,78.071,67.477Z"/><path class="cls-2" d="M81.318,68.63s-8.65,16.061-7.177,27.576,7.6,27.894,7.6,27.894-4.4-19.163-2.113-25.069S83.144,71.485,81.318,68.63Z"/><path class="cls-2" d="M85.214,68.714s15.939,17.047,11.423,32.094c-6.49,21.632-13.98,23.312-13.98,23.312a39.5,39.5,0,0,0,8.964-22.77C92.324,89.606,86.826,71.89,85.214,68.714Z"/><path class="cls-2" d="M87.55,66.923s15.174-.557,23.673,11.452c10.048,14.195,6.046,29.163-1.463,36.257s-24.482,9.22-24.482,9.22,23.678-6.31,26.5-19.249-6.509-26.247-11.592-30.477S87.55,66.923,87.55,66.923Z"/><path class="cls-2" d="M89.3,64.8s15.644-3.886,28.86,6.476,14.757,29.456,12.111,35.033-7.351,11.215-11.982,12.738-16.951,2.669-16.951,2.669,12.5-2.116,17.716-6.549,9.579-15.717,5.578-24.576c-2.929-6.483-7-16.726-16.145-20.932S93.732,64.025,89.3,64.8Z"/><path class="cls-3" d="M89.943,56.3s2.779.714,3.069-.582-.8-7.328-1.02-8.632a40.507,40.507,0,0,1,.081-6.823,30.651,30.651,0,0,0-.335-4.232s1.01,3.921,2.6,5.095,1.268,1.65,1.34-.95a37.974,37.974,0,0,1,1.6-7.438s.57,5.862,1.381,4.58,1.349-5.01,1.349-5.01,1.8,2.156,2.283,1.35,4.932-5.741,4.932-5.741-3.726,5.77,2.048,4.109,9.121-3.867,10.848-3.505-.75,2.747.46,2.934,5.7.777,7.081,1.132-1.851.932.406,1.631,7.11,1.78,8.029,3.423a6.885,6.885,0,0,0,2.67,2.5l5.63-1.017a10.65,10.65,0,0,1-1.379,4.358c-1.287,2.247-7.806,6.817-7.047,8.622s3.3,1.044,3.3,1.044-2.679,1.892-4.02,2.675,1.124,2.464,1.124,2.464-2.351,1.41-2.871,1.238a18.921,18.921,0,0,0-3.755.566l4.49.587s-2.824,2.537-5.058,2.489a20.564,20.564,0,0,0-5.455,1.019l5.846.288s-3.017,1.887-4.387,2.018-6.35.026-6.35.026-.445,1.775-4.736,1.847l-4.29.066,3.51,1.864s-5.817.524-7.44-1.459-3.717-2.846-6.026-4.84-5.075-2.549-5.139-4.175,1.256-3.06-.613-2.615-1.678,1.1-4.955.7S85.3,56.041,85.3,56.041l1.312-1.6S86.848,56.076,89.943,56.3Z"/><path class="cls-4" d="M96.207,54s-.932-1.967,2.617-3.355A29.036,29.036,0,0,0,104.217,48s-.948-2.294-.315-3.743,1.128-3.728,2.375-5.151c2.194-2.494,7.5-6.01,7.5-6.01s-6.263,5.284-7.546,7.692-.6,3.666-1.069,4.8,1.549.2,3.96.409,9.673.046,9.673.046-1.868-2.476-.376-3.906,7.5-5.849,8.186-5.834-7.861,5.353-7.773,7.631,2.129,1.833,2.983,1.688,6.494-.671,8.386-.633,11.347-3.972,11.347-3.972-6.2,3.761-10.064,4.543a64.009,64.009,0,0,1-7.519.924,21.408,21.408,0,0,1,5.063,3.681c1.793,1.99,6.475,3.227,6.475,3.227s-3.8-.568-4.682-1.237-6.852-5.566-8.914-5.61-8.105.581-8.105.581l-5.735-.341s4.771,2.054,6.732,3.886,9.853,6.223,9.853,6.223a9.938,9.938,0,0,1-5.758-2.4,54.129,54.129,0,0,0-11.366-6.852c-1.222-.518-1.573.722-2.238,1.358a54.015,54.015,0,0,1-5.208,2.975s5.747,2.072,7.87,3.744,8.062,4.238,8.062,4.238-9.232-3.453-10.655-4.782-5.765-2.562-5.765-2.562S98.189,51.933,96.207,54Z"/><path class="cls-2" d="M77.337,66.268S62.38,64.21,53.221,70.081,40.39,93.632,47.505,105.918s25.608,17.018,25.608,17.018-28.1-13.081-21.279-35.34C59.155,63.71,77.337,66.268,77.337,66.268Z"/><path class="cls-5" d="M78.926,65.98S80.019,67.519,83.8,67.6c2.407.051,3.03-1.559,2.267-3.529s-2.909-4.285-1.624-6.534,4.338-3.318,4.338-3.318-2.127-1.67-2.341-2.812-1.6-5.827-4.095-3.772-2.734,4.759-2.762,8.5S77.336,64.645,78.926,65.98Z"/><path class="cls-6" d="M79.055,59.677s-6.8-11.261-15.479-11.816-14.36,8.517-8.538,9.705,4.777-14.674-8.931-11.946-7.915,17.7-4.872,15.693.6-8.768-6.316-9.382-8.1,3.8-11,7.766S18.07,73.8,11.365,75C1.386,76.784.579,67.692,4.251,65.749c3.966-2.1,4.948,1.715,4.948,1.715s-2.917-3.055-5.1-.909-.232,6.027,1.324,7,5.708,2.379,10.523-3.343,8.456-15.6,12.815-18.016,10.616-1.151,13.447,2.975-.034,8.2-2.9,6.731S33.04,47.6,44.675,44.889,59.027,49.54,59.043,53.3s-1.861,6.167-5.223,4.6-1.42-8.314,4.612-10.213,12.363.12,17.032,5.384S79.055,59.677,79.055,59.677Z"/></svg>