<svg id="word" xmlns="http://www.w3.org/2000/svg" viewBox="0 0 160 160"><defs><style>.cls-1{fill:#fffbde;}.cls-1,.cls-2,.cls-3,.cls-4,.cls-5,.cls-7{stroke:#9d4b9c;}.cls-1,.cls-2,.cls-7{stroke-width:1.071px;}.cls-2{fill:#f69546;}.cls-3,.cls-7{fill:none;}.cls-3,.cls-4,.cls-5{stroke-width:1.062px;}.cls-4{fill:#d6a1a5;}.cls-5,.cls-9{fill:#fff;}.cls-6{fill:#9d4b9c;}.cls-8{fill:#54c5d4;}</style></defs><path class="cls-1" d="M33.85,56.739c.292-1.069.389-3.4,1.07-4.472s1.166,1.847,1.166,3.6,1.07-3.111,1.264-4.472,0,3.111,0,4.958.583,2.722,1.458-.1a7.685,7.685,0,0,1,1.369-2.574c.3-1.287.633-2.461.965-3.453,1.75-5.25.194-6.806.194-9.917s-3.5-8.36-5.25-10.3.972,1.556.389,7.389A37.748,37.748,0,0,1,32.623,50.1a17.657,17.657,0,0,1,.449,2.943C33.072,54.309,33.558,57.808,33.85,56.739Z"/><path class="cls-2" d="M39.975,71.224c-1.892-4.415-1.1-12.025.2-17.545a7.685,7.685,0,0,0-1.369,2.574c-.875,2.819-1.458,1.944-1.458.1s.194-6.319,0-4.958-1.264,6.222-1.264,4.472-.486-4.666-1.166-3.6-.778,3.4-1.07,4.472-.778-2.43-.778-3.694a17.657,17.657,0,0,0-.449-2.943c-.457.929-.925,1.825-1.4,2.651C28.892,56.836,28.7,64.225,30.253,68.7s3.305,10.888,3.305,10.888L44.642,79S42.308,76.669,39.975,71.224Z"/><path class="cls-2" d="M64.669,102.139s-5.25-7.971-6.416-11.86S56.5,81.724,50.864,79s-5.834-1.945-7.195-1.945-7-.388-11.083,2.139-11.277,7.778-10.3,15.749-.587,8.05-1.361,7.972c-2.431-.243-2.139,6.8,0,14s5.3,6.614,7,7.194c3.694,1.264,3.986-1.652,3.986-1.652s-.1,1.458,1.847,1.069a9.4,9.4,0,0,0,3.111-1.166,4.082,4.082,0,0,0,.778-3.889l3.889-4.035s-2.528,2.091,2.333,5.4,6.416,2.916,10.111,2.722a15.149,15.149,0,0,1,6.805,1.361,51.3,51.3,0,0,0,8.75,5.833c4.083,1.944,11.278.972,13.028.389a3.928,3.928,0,0,0,2.333-1.944,3.582,3.582,0,0,0,3.111.194,3.388,3.388,0,0,0,1.556-2.333s1.75.778,1.75-.972-.584-3.695-2.334-4.278-11.861-.778-13.416-1.361S64.28,108.945,64.669,102.139Z"/><path class="cls-3" d="M37.739,97.473c4.48,2.608,6.912,13.238,3.6,17.207"/><path class="cls-3" d="M78.766,123.236c2.652-.18,6.521,2.076,6.125,5.055"/><path class="cls-3" d="M89.46,126.735c.325-2.98-3.433-5.128-6.027-5.152"/><path class="cls-3" d="M31.711,123.138c1.165-3.023-2.929-5.743-5.639-5.736"/><path class="cls-3" d="M35.94,122.749c.584-1.895.032-3.162-1.555-3.84"/><path class="cls-2" d="M93.189,114.1s8.556-.68,10.209-1.653,4.18-2.43,7.1-2.333,5.347,2.042,5.347,3.208a2.753,2.753,0,0,1-.681,1.848,2.108,2.108,0,0,1-.1,3.013c-1.555,1.361-2.43.972-2.43.972a7.544,7.544,0,0,1-5.25,2.625c-3.111,0-8.653-1.361-11.57-1.652s-17.146-2.18-17.146-2.18,4.7-1.029,8.2-1.806A36.734,36.734,0,0,0,93.189,114.1Z"/><path class="cls-2" d="M105.634,114.778c2.906-.843,7.243,1.02,7,4.277"/><path class="cls-2" d="M108.356,112.347c2.63-.184,5.909.11,6.854,2.722"/><path class="cls-3" d="M24.161,110.89c1.878,3.4,7.891,9.186,13.432,7.436"/><path class="cls-3" d="M22.865,102.724c-.972,1.879-.422,5.33,1.3,8.166"/><path class="cls-2" d="M93.2,95.22s2.037-6.331,1.145-10.122a31.657,31.657,0,0,0-2.722-6.159s-5.551,3.95-6.392,4.687a9.449,9.449,0,0,0-1.654,2.633"/><path class="cls-2" d="M90.59,90.633s-6.573-6.748-12.659-5.343-10.909,3.487-14.41,6.347a13.255,13.255,0,0,0-4.365,5.793s-2.289,1.086-3.51.566,2.3,1.946,3.5,2.584-6.175-1.654-3.889.193a14.609,14.609,0,0,1,3.56,4.577s-4.7-1.9-4-.895,2.274,5.546,3.241,6.908-.921-.054.373,1.905,2.19,2.967,3.914,3.484-.106,2.883,3.922,3.809,14.984,1.021,17.129.229,6.01-6.522,6.01-6.522,1.571,1.883,3.483.876,2.194-4.7,2.194-4.7,3.258-.789,3.186-2.007,1.517-4.217.652-6.524-4.348-4.15-4.348-4.15S91.759,90.642,90.59,90.633Z"/><path class="cls-2" d="M62.838,96.134s-.682-6.434,1.207-9.746C65.217,84.332,68.45,80.2,68.45,80.2s3.686,6.872,4.206,7.837,1.218,2.65,1.218,2.65"/><path class="cls-4" d="M92.389,107.989a40.33,40.33,0,0,1-4.15-2.228c-.078-.251-.447-1.675,1.631-2.721s4.728-.176,5.168,1.22S92.389,107.989,92.389,107.989Z"/><path class="cls-5" d="M82.8,97.086s-3.047,0-3.837,1.769-1.381,4.986.9,5.969,4.007-1.315,4.3-2.561C84.63,100.276,83.956,97.556,82.8,97.086Z"/><path class="cls-6" d="M80.788,99.78a1.788,1.788,0,1,0,.6-2.78A2.048,2.048,0,0,0,80.788,99.78Z"/><path class="cls-3" d="M92.35,108.166a2.834,2.834,0,0,0,4.905,1.3"/><path class="cls-3" d="M80.175,110.554a7.606,7.606,0,0,0,3.87,2.126,3.083,3.083,0,0,0,1.823-.067c.416-.176.844.3,1.3.349,2.45.242,4.325-3.76,4.46-4.973"/><path class="cls-7" d="M68,81.433c.4.752-.026,1.653-.259,2.474a10.474,10.474,0,0,0-.3,2.013c-.259,3.142-.487,6.46.888,9.3"/><path class="cls-5" d="M91.827,93.644s-2.1,1.056-2.041,2.566.754,3.963,2.668,3.858,2.314-2.309,2.089-3.281C94.185,95.237,92.788,93.57,91.827,93.644Z"/><path class="cls-6" d="M91.363,96.223a1.565,1.565,0,0,0,2.191.047,1.609,1.609,0,0,0-.534-2.151,1.566,1.566,0,0,0-2.191-.048A1.612,1.612,0,0,0,91.363,96.223Z"/><path class="cls-6" d="M96.687,103.916c1.564-.527,3.135-1.038,4.746-1.422a40.3,40.3,0,0,1,9.852-1.084,34.569,34.569,0,0,1,4.939.4c-1.651.051-3.291.087-4.927.181s-3.265.224-4.889.408-3.242.412-4.861.662c-.81.122-1.614.286-2.42.447C98.314,103.645,97.507,103.8,96.687,103.916Z"/><path class="cls-6" d="M96.848,105.632a30.659,30.659,0,0,0,3.094-.862,18.474,18.474,0,0,1,3.216-.437c2.147-.128,4.3-.1,6.444-.032,2.145.136,4.289.312,6.411.641a52.871,52.871,0,0,1,6.3,1.328c-2.128-.268-4.244-.548-6.368-.748s-4.246-.388-6.375-.463c-2.126-.129-4.258-.147-6.389-.145a18.5,18.5,0,0,0-3.16.218A21.653,21.653,0,0,1,96.848,105.632Z"/><path class="cls-6" d="M96.037,103.062A23.006,23.006,0,0,1,100,100.626a26.75,26.75,0,0,1,8.939-2.581,23.04,23.04,0,0,1,4.652-.05c-1.541.162-3.064.349-4.569.628s-2.992.618-4.455,1.049c-1.469.414-2.906.928-4.331,1.485S97.427,102.377,96.037,103.062Z"/><path class="cls-6" d="M86.838,109.77a12.711,12.711,0,0,0-5.483,2.568c-1.615,1.234-3.15,2.616-4.7,3.964a48.3,48.3,0,0,0-4.4,4.265,20.533,20.533,0,0,0-3.362,5.107,15.911,15.911,0,0,1,2.913-5.479,33.653,33.653,0,0,1,4.346-4.463,51.272,51.272,0,0,1,4.866-3.87,16.305,16.305,0,0,1,2.766-1.475A9.231,9.231,0,0,1,86.838,109.77Z"/><path class="cls-6" d="M85.482,107.88l-5.842-.125c-1.942-.027-3.88-.059-5.81.032a45.282,45.282,0,0,0-5.754.583,32.677,32.677,0,0,0-5.614,1.483,21.31,21.31,0,0,1,5.5-2.055,31.089,31.089,0,0,1,5.84-.768,47.872,47.872,0,0,1,5.87.145C81.616,107.344,83.555,107.533,85.482,107.88Z"/><path class="cls-6" d="M86.057,108.384a13.3,13.3,0,0,0-2.235.6c-.738.232-1.473.469-2.2.724L77.2,111.155c-1.477.472-2.949.956-4.439,1.394s-2.971.895-4.48,1.29c1.406-.676,2.847-1.263,4.3-1.825s2.914-1.082,4.388-1.575,2.965-.938,4.47-1.34A15.084,15.084,0,0,1,86.057,108.384Z"/><path class="cls-7" d="M81.637,92.5a4.421,4.421,0,0,0-4.171,3.749"/><path class="cls-7" d="M87.648,90.7a5.326,5.326,0,0,1,3.947.3"/><path class="cls-8" d="M99.9,94.259S115.6,80.694,111.056,70.12c-3.151-7.326-13.546-16.033-8.3-25.124s14.06-12.583,26.877-11.728c10.075.672,16.529,7.142,19.339,15.348s-9.745,27-19.984,32.153S99.9,94.259,99.9,94.259Z"/><path class="cls-9" d="M112.441,49.951l.36-1.658a18.1,18.1,0,0,0,.433-2.745,2.262,2.262,0,0,1,.057-.508.518.518,0,0,1,.226-.262.734.734,0,0,1,.42-.125.8.8,0,0,1,.349.1q.2.1.33.625a8.705,8.705,0,0,0,1.068,2.264,21.316,21.316,0,0,0,1.549,2.262q.188-.846.408-2.2.159-.965.3-1.673a7.558,7.558,0,0,0,.138-1.048.687.687,0,0,1,.259-.58.865.865,0,0,1,.469-.148.417.417,0,0,1,.347.224,1.008,1.008,0,0,1,.146.559,2.891,2.891,0,0,1-.144.753q-.309,1.125-.6,2.907t-.3,2.032V50.9a1.338,1.338,0,0,1-.05.423.542.542,0,0,1-.239.258.9.9,0,0,1-.493.12.735.735,0,0,1-.264-.034.712.712,0,0,1-.218-.2,2.886,2.886,0,0,1-.291-.435,5.8,5.8,0,0,0-.349-.556,25.087,25.087,0,0,1-2.264-3.488q-.147.611-.451,2.853l-.06.443q-.039.231-.069.669a1.209,1.209,0,0,1-.253.758.611.611,0,0,1-.421.231.554.554,0,0,1-.454-.165,1.11,1.11,0,0,1-.136-.661,4.777,4.777,0,0,1,.2-1.132Zm1.063,4.137a2.679,2.679,0,0,0,.647-.242.99.99,0,0,0,.537-.522c.076-.212.115-.322.115-.333a1.11,1.11,0,0,0-.1-.566.473.473,0,0,1-.093-.255.583.583,0,0,1,.107-.307.316.316,0,0,1,.271-.17,1.236,1.236,0,0,1,.44.113c.182.075.287.141.315.2a3.318,3.318,0,0,1,.126.378,1.946,1.946,0,0,1,.083.515,2.446,2.446,0,0,1-.2.561,1.7,1.7,0,0,1-.534.709,1.616,1.616,0,0,1-.654.3.7.7,0,0,0-.1.019,2.785,2.785,0,0,1-.747.2c-.216,0-.325-.12-.325-.359A.343.343,0,0,1,113.5,54.088Z"/><path class="cls-9" d="M121.69,49.981a8.879,8.879,0,0,1-.514.912,2.617,2.617,0,0,1-.6.788.686.686,0,0,1-.3.08.754.754,0,0,1-.426-.193.532.532,0,0,1-.247-.4,12.1,12.1,0,0,1,1.234-2.071q.674-1.028,1.23-2.036,1.116-2.037,1.365-2.369a.674.674,0,0,1,.509-.332.759.759,0,0,1,.605.216c.063.046.093.156.093.33a1.193,1.193,0,0,1-.033.31q.9,2.743,1.409,3.883a5.593,5.593,0,0,0,1.02,1.651,2.8,2.8,0,0,1,.313.345.43.43,0,0,1,.056.236.6.6,0,0,1-.2.455.663.663,0,0,1-.468.184,1.063,1.063,0,0,1-.76-.433,4.688,4.688,0,0,1-.728-1.19,5.028,5.028,0,0,1-.342-.851c0-.014-.008-.02-.024-.02a8.069,8.069,0,0,0-1.184.187,14.746,14.746,0,0,0-1.472.364.879.879,0,0,1-.251.044A.441.441,0,0,1,121.69,49.981Zm2.834-1.506q-.119-.29-.7-2.065c-.036-.109-.06-.178-.074-.207l-1.4,2.656c.207-.036.418-.069.635-.1.144-.017.511-.085,1.1-.207C124.235,48.524,124.38,48.5,124.524,48.475Z"/><path class="cls-9" d="M130.836,51.9a3.072,3.072,0,0,1-1.227-.329,2.245,2.245,0,0,1-1.1-1.119,3.9,3.9,0,0,1-.379-1.7,7.321,7.321,0,0,1,.138-1.235l.157-.91c.023-.154.048-.3.074-.453.04-.226.073-.444.1-.653a2.046,2.046,0,0,1,.24-.815.584.584,0,0,1,.531-.273c.119,0,.239.093.362.278a.878.878,0,0,1,.184.426q0,.1-.235,1.082c-.04.163-.108.565-.205,1.2a10.7,10.7,0,0,0-.144,1.3,2.087,2.087,0,0,0,.548,1.692,1.616,1.616,0,0,0,.927.438,2.257,2.257,0,0,0,1.727-.533,3.129,3.129,0,0,0,.61-1.745c.017-.147.036-.286.059-.418.033-.335.061-.654.084-.959a7.353,7.353,0,0,1,.341-2.174.7.7,0,0,1,.638-.439c.341,0,.511.222.511.664a9.982,9.982,0,0,1-.192,1.467,11.847,11.847,0,0,0-.152,1.264,6.442,6.442,0,0,1-.409,2.184,2.977,2.977,0,0,1-1.158,1.23A3.7,3.7,0,0,1,130.836,51.9Z"/><path class="cls-9" d="M136.148,51.442a.671.671,0,0,1-.435-.116c-.093-.076-.14-.279-.14-.607a2.919,2.919,0,0,1,.024-.421c.017-.1.1-.172.24-.229a1.782,1.782,0,0,1,.617-.084.665.665,0,0,1,.457.141.41.41,0,0,1,.158.307.869.869,0,0,1-.086.424,1.5,1.5,0,0,1-.374.366A.865.865,0,0,1,136.148,51.442Z"/><path class="cls-9" d="M138.657,51.442a.671.671,0,0,1-.435-.116c-.093-.076-.14-.279-.14-.607a2.78,2.78,0,0,1,.024-.421c.017-.1.1-.172.24-.229a1.782,1.782,0,0,1,.617-.084.665.665,0,0,1,.457.141.41.41,0,0,1,.158.307.869.869,0,0,1-.086.424,1.486,1.486,0,0,1-.375.366A.86.86,0,0,1,138.657,51.442Z"/><path class="cls-9" d="M141.166,51.442a.671.671,0,0,1-.435-.116c-.093-.076-.14-.279-.14-.607a2.78,2.78,0,0,1,.024-.421c.017-.1.1-.172.24-.229a1.782,1.782,0,0,1,.617-.084.665.665,0,0,1,.457.141.41.41,0,0,1,.158.307.869.869,0,0,1-.086.424,1.486,1.486,0,0,1-.375.366A.86.86,0,0,1,141.166,51.442Z"/><path class="cls-9" d="M112.441,62.041l.36-1.658a18.121,18.121,0,0,0,.433-2.745,2.274,2.274,0,0,1,.057-.509.517.517,0,0,1,.226-.261.726.726,0,0,1,.42-.125.8.8,0,0,1,.349.1q.2.1.33.625a8.687,8.687,0,0,0,1.068,2.263,21.239,21.239,0,0,0,1.549,2.263q.188-.846.408-2.2.159-.965.3-1.673a7.577,7.577,0,0,0,.138-1.048.685.685,0,0,1,.259-.58.865.865,0,0,1,.469-.148.415.415,0,0,1,.347.224,1,1,0,0,1,.146.558,2.877,2.877,0,0,1-.144.753q-.309,1.127-.6,2.908t-.3,2.032v.167a1.342,1.342,0,0,1-.05.423.546.546,0,0,1-.239.258.9.9,0,0,1-.493.12.735.735,0,0,1-.264-.034.712.712,0,0,1-.218-.2,2.886,2.886,0,0,1-.291-.435,5.8,5.8,0,0,0-.349-.556,25.087,25.087,0,0,1-2.264-3.488q-.147.61-.451,2.853l-.06.443q-.039.231-.069.668a1.21,1.21,0,0,1-.253.759.615.615,0,0,1-.421.231.557.557,0,0,1-.454-.165,1.11,1.11,0,0,1-.136-.661,4.777,4.777,0,0,1,.2-1.132Zm1.063,4.137a2.692,2.692,0,0,0,.647-.243.988.988,0,0,0,.537-.521c.076-.212.115-.323.115-.333a1.11,1.11,0,0,0-.1-.566.473.473,0,0,1-.093-.255.586.586,0,0,1,.107-.308.317.317,0,0,1,.271-.169,1.236,1.236,0,0,1,.44.113c.182.075.287.141.315.2a3.318,3.318,0,0,1,.126.378,1.94,1.94,0,0,1,.083.515,2.429,2.429,0,0,1-.2.56,1.7,1.7,0,0,1-.534.709,1.606,1.606,0,0,1-.654.3.924.924,0,0,0-.1.018,2.785,2.785,0,0,1-.747.2c-.216,0-.325-.119-.325-.358A.342.342,0,0,1,113.5,66.178Z"/><path class="cls-9" d="M121.69,62.071a8.992,8.992,0,0,1-.514.912,2.617,2.617,0,0,1-.6.788.686.686,0,0,1-.3.08.754.754,0,0,1-.426-.193.532.532,0,0,1-.247-.4,12.054,12.054,0,0,1,1.234-2.071q.674-1.028,1.23-2.036,1.116-2.038,1.365-2.369a.671.671,0,0,1,.509-.332.759.759,0,0,1,.605.216c.063.046.093.156.093.33a1.193,1.193,0,0,1-.033.31q.9,2.743,1.409,3.883a5.593,5.593,0,0,0,1.02,1.651,2.8,2.8,0,0,1,.313.345.427.427,0,0,1,.056.236.6.6,0,0,1-.2.455.668.668,0,0,1-.468.184,1.063,1.063,0,0,1-.76-.433,4.706,4.706,0,0,1-.728-1.19,5.065,5.065,0,0,1-.342-.851c0-.014-.008-.02-.024-.02a8.069,8.069,0,0,0-1.184.187,14.473,14.473,0,0,0-1.472.364.879.879,0,0,1-.251.044A.441.441,0,0,1,121.69,62.071Zm2.834-1.506q-.119-.289-.7-2.065c-.036-.109-.06-.178-.074-.208l-1.4,2.657c.207-.036.418-.069.635-.1.144-.017.511-.085,1.1-.208C124.235,60.614,124.38,60.588,124.524,60.565Z"/><path class="cls-9" d="M130.836,63.989a3.072,3.072,0,0,1-1.227-.329,2.245,2.245,0,0,1-1.1-1.119,3.9,3.9,0,0,1-.379-1.7,7.321,7.321,0,0,1,.138-1.235l.157-.91c.023-.154.048-.3.074-.453.04-.226.073-.444.1-.654a2.046,2.046,0,0,1,.24-.814.584.584,0,0,1,.531-.273c.119,0,.239.093.362.278a.878.878,0,0,1,.184.426q0,.1-.235,1.082c-.04.163-.108.565-.205,1.2a10.7,10.7,0,0,0-.144,1.3,2.087,2.087,0,0,0,.548,1.692,1.616,1.616,0,0,0,.927.438,2.257,2.257,0,0,0,1.727-.533,3.132,3.132,0,0,0,.61-1.745c.017-.147.036-.286.059-.418.033-.335.061-.654.084-.959a7.369,7.369,0,0,1,.341-2.175.7.7,0,0,1,.638-.438c.341,0,.511.222.511.664a9.982,9.982,0,0,1-.192,1.467,11.817,11.817,0,0,0-.152,1.264,6.447,6.447,0,0,1-.409,2.184,2.977,2.977,0,0,1-1.158,1.23A3.7,3.7,0,0,1,130.836,63.989Z"/><path class="cls-9" d="M136.148,63.532a.677.677,0,0,1-.435-.116q-.139-.114-.14-.608a2.9,2.9,0,0,1,.024-.42c.017-.1.1-.173.24-.229a1.758,1.758,0,0,1,.617-.084.67.67,0,0,1,.457.14.412.412,0,0,1,.158.308.862.862,0,0,1-.086.423,1.462,1.462,0,0,1-.374.366A.861.861,0,0,1,136.148,63.532Z"/><path class="cls-9" d="M138.657,63.532a.677.677,0,0,1-.435-.116q-.14-.114-.14-.608a2.765,2.765,0,0,1,.024-.42c.017-.1.1-.173.24-.229a1.758,1.758,0,0,1,.617-.084.67.67,0,0,1,.457.14.412.412,0,0,1,.158.308.862.862,0,0,1-.086.423,1.453,1.453,0,0,1-.375.366A.856.856,0,0,1,138.657,63.532Z"/><path class="cls-9" d="M141.166,63.532a.677.677,0,0,1-.435-.116q-.139-.114-.14-.608a2.765,2.765,0,0,1,.024-.42c.017-.1.1-.173.24-.229a1.758,1.758,0,0,1,.617-.084.67.67,0,0,1,.457.14.412.412,0,0,1,.158.308.862.862,0,0,1-.086.423,1.453,1.453,0,0,1-.375.366A.856.856,0,0,1,141.166,63.532Z"/></svg>