<svg id="word" xmlns="http://www.w3.org/2000/svg" viewBox="0 0 160 160"><defs><style>.cls-1{fill:#9592ba;}.cls-1,.cls-2,.cls-5{stroke:#9a4d9c;}.cls-1,.cls-2,.cls-4,.cls-5{stroke-miterlimit:10;}.cls-1,.cls-5{stroke-width:0.903px;}.cls-2,.cls-5{fill:#c4bd2f;}.cls-2{stroke-width:0.683px;}.cls-3{fill:#9b4b9c;}.cls-4{fill:none;stroke:#9b4d9c;stroke-width:0.957px;}</style></defs><path class="cls-1" d="M68.16,90.133c-1.876,15.767-9.2,18.522-13.016,30.578s-5.256,16.008-4.706,18.416,3.335-1.532,10.014-.41,17.556,1.429,20.8,3.859,1.071-4.466-.287-15.2,7.741-99.9,8-100.517-14.306,3.982-19.318,2.1S70.036,74.365,68.16,90.133Z"/><path class="cls-2" d="M60.39,125.608a13.145,13.145,0,0,1-.5,6.188c-1.085,3.816-4.281,10.541-1.893,7.47a19.57,19.57,0,0,0,3.59-6.15c2.273-5.971,2.385-4.929,1.713.432s-1.79,8.75-.687,8.792,3.088-4.793,3.214-7.956c.155-3.888,1.551-10.577,1.523-2.671-.029,8.268.794,15.324,1.812,10.374,1.167-5.671.362-12.346,3.048-13.146.694-.206,1.522,4.428,2.723,9.324s3.861,11.374,3.244,4.724-4.421-13.151-3.316-13.572,3.559,5.559,5.932,9.632,4.184,3.928,1.794-.634-5.852-12.5-.112-6.216,7.247,8.853,7.787,8.732-.045-3.011-3.127-5.727-5.6-8.018-1.231-4.014,10.964,7.756,10.9,6.56-12.7-10.057-12.7-10.057-.294-1.222-5.949-2.456-12.357-1.8-13.629-1.431A37.589,37.589,0,0,0,60.39,125.608Z"/><path class="cls-2" d="M61.466,119.542l-.538,1.848s4.918-.646,7.982-.773,2.9-1.328,7.058.283,8.75,3.938,8.75,3.938l-.494-3.1a26.311,26.311,0,0,0-8.473-3.5c-4.291-.751-7.1.357-8.12.3A58.062,58.062,0,0,0,61.466,119.542Z"/><path class="cls-2" d="M63.249,113.885l-.659,1.6s1.794-1.279,5.553-.832,5.8.412,8.7,1.61l5.241,2.163,1.736.717-.389-2.917s-8-2.917-11.636-3.388S63.249,113.885,63.249,113.885Z"/><path class="cls-3" d="M143.295,16.7s-3.7-3.952-1.538-5.014,3.119,4.138,3.119,4.138,1.336-5.528,3.184-4.7c3.394,1.526-2.154,5.562-2.154,5.562s5.1-2.777,5.471.026-5.141.57-5.141.57,5.591,1.98,5.031,4.357-5.539-2.787-5.539-2.787,3.638,5.45.912,5.626c-2.443.158-2.189-5.195-2.189-5.195s-1.423,5.784-3.775,4.5c-2.757-1.5,2.66-5.148,2.66-5.148s-6.354,1.339-5.624-1.821C138.315,14.216,143.295,16.7,143.295,16.7Z"/><path class="cls-3" d="M16.628,15.628s.387-5.4,2.638-4.533-.921,5.1-.921,5.1,4.966-2.773,5.611-.851c1.183,3.527-5.547,2.2-5.547,2.2s5.505,1.862,3.7,4.034S18.2,18.185,18.2,18.185s2.343,5.449.217,6.651S16.7,18.877,16.7,18.877s-1.531,6.371-3.512,4.489c-1.774-1.686,2.329-5.133,2.329-5.133s-5.214,2.882-5.868.284c-.768-3.045,5.585-1.542,5.585-1.542s-5.3-3.756-2.481-5.365C15.074,10.282,16.628,15.628,16.628,15.628Z"/><path class="cls-4" d="M20.291,18.924C41.533,31.743,76.328,34.673,97.2,31.01c30.537-5.357,48.764-13.916,48.764-13.916"/><path class="cls-5" d="M76.838,112.944s1.4,3.437.732,9.545-3.71,17.24-.98,11.89,3.167-7.4,3.742-10.372c1.882-9.722,2.288-8.172,2.577.165s-.532,13.806,1.072,13.555,3.336-8.168,2.775-13.008c-.689-5.951-.242-16.514,1.574-4.495,1.9,12.569,4.746,23.053,5.055,15.241.354-8.949-2.376-18.86,1.316-20.844.954-.513,3.239,6.289,6.125,13.384s8.251,16.172,5.8,6.246-9.477-18.712-7.979-19.668,6.448,7.425,10.833,12.934,6.969,4.767,2.444-1.479-11.393-17.319-1.621-9.41S122.85,128,123.6,127.662s-.773-4.562-5.865-7.805-9.978-10.575-2.721-5.744,17.665,8.64,17.288,6.842-20.718-11.638-20.718-11.638-.712-1.771-9.174-2.026-18.278.807-20.03,1.732A56.908,56.908,0,0,0,76.838,112.944Z"/><path class="cls-1" d="M68.161,29.049s8.315,5.118,9.067,23.647,3.514,23.376,1.482,38.061-2.9,19.538-1.872,22.187,3.373-2.484,10.875-2.643,19.445-2.164,23.423-.074.378-5.365-3.015-17.415S99.9,25,100.073,24.23,83.452,27,77.638,25.922,68.111,23.791,68.161,29.049Z"/><path class="cls-5" d="M76.968,103.42l-.344,2.962s6.954-2.39,11.353-3.461,3.883-2.851,10.264-1.593S111.81,104.8,111.81,104.8l-1.441-4.564s-6.69-2.974-13.066-2.885-10.18,2.579-11.662,2.782S76.968,103.42,76.968,103.42Z"/><path class="cls-5" d="M78.215,94.316l-.577,2.614s2.292-2.458,7.828-2.856,8.477-1.035,12.95-.047l8.081,1.784,2.676.591-1.247-4.32s-12.24-2.139-17.61-1.811S78.215,94.316,78.215,94.316Z"/></svg>