<svg id="word" xmlns="http://www.w3.org/2000/svg" viewBox="0 0 160 160"><defs><style>.cls-1{fill:#97cf9f;}.cls-2,.cls-5{fill:#9ecc59;}.cls-3{fill:none;}.cls-3,.cls-5,.cls-6{stroke:#9d4b9c;stroke-miterlimit:10;stroke-width:0.75px;}.cls-4{fill:#fff;}.cls-6{fill:#1d8480;}</style></defs><path class="cls-1" d="M105.737,91.4a106.542,106.542,0,0,1,2.214,23.4c-3.282,4.925-2.746,5.635-8.43,5.829a18.344,18.344,0,0,1-14.966-7.273c-2.834-3.721-4.29-8.417-5.2-13.106a69.6,69.6,0,0,1,1.666-33.158c.908-3,2.214-6.175,4.843-7.63a8.033,8.033,0,0,1,6.171-.405A57.814,57.814,0,0,1,101.17,62.7l.443-.047c.426,4.56.664,9.262.664,11.346C102.277,78.7,103.263,78.5,105.737,91.4Z"/><path class="cls-2" d="M99.521,120.624c5.684-.194,5.148-.9,8.43-5.829-.277,7.05-1.733,10.9-3.46,11.006-3.138.194-24.768,1.015-33.441-.358s-2.026-34.76-.737-45.719S71.974,52.09,71.974,52.09s25.416-.346,27.259-.54c1.024-.1,1.849,5.394,2.38,11.106l-.443.047a57.814,57.814,0,0,0-9.138-3.651,8.033,8.033,0,0,0-6.171.405c-2.629,1.455-3.935,4.631-4.843,7.63a69.6,69.6,0,0,0-1.666,33.158c.913,4.689,2.369,9.385,5.2,13.106A18.344,18.344,0,0,0,99.521,120.624Z"/><path class="cls-3" d="M101.613,62.656c-.531-5.712-1.356-11.211-2.38-11.106-1.843.194-27.259.54-27.259.54S71.6,68.766,70.313,79.724s-7.931,44.351.737,45.719,30.3.552,33.441.358c1.727-.106,3.183-3.956,3.46-11.006a106.542,106.542,0,0,0-2.214-23.4c-2.474-12.895-3.46-12.7-3.46-17.4C102.277,71.918,102.039,67.216,101.613,62.656Z"/><path class="cls-3" d="M101.17,62.7a57.814,57.814,0,0,0-9.138-3.651,8.033,8.033,0,0,0-6.171.405c-2.629,1.455-3.935,4.631-4.843,7.63a69.6,69.6,0,0,0-1.666,33.158c.913,4.689,2.369,9.385,5.2,13.106a18.344,18.344,0,0,0,14.966,7.273c5.684-.194,5.148-.9,8.43-5.829"/><path class="cls-4" d="M70.683,94.139s-1.845,23.283,1.476,25.435,12.915,2.544,12.915,2.544-11.992,3.13-14.76.2S70.683,94.139,70.683,94.139Z"/><path class="cls-5" d="M80.468,40.935s-5.12-1.565-6.3,1.566-2.745,11.935-2.745,11.935,13.183-1.174,18.106-.979a63.106,63.106,0,0,1,11.414,1.957s-.923-13.3-4.244-13.7C91.288,41.081,80.468,40.935,80.468,40.935Z"/><path class="cls-6" d="M88.026,38.588s-5.35.391-5.166,3.521,2.214,3.326,4.428,3.326S92.638,40.348,88.026,38.588Z"/><path class="cls-4" d="M84.563,40.416a1.365,1.365,0,0,0-.608.386,1.013,1.013,0,0,0,.17,1.263,1.971,1.971,0,0,0,1.221.475,2.335,2.335,0,0,0,1.441-.231,1.663,1.663,0,0,0,.757-1.07A1.531,1.531,0,0,0,87.4,40.17C86.767,39.061,85.384,40.082,84.563,40.416Z"/><path class="cls-3" d="M72.717,52.16a61.3,61.3,0,0,1,25.575.684"/><path class="cls-3" d="M82,41.483a4.629,4.629,0,0,0,.647,4.611,5.426,5.426,0,0,0,4.1,1.986,6.55,6.55,0,0,0,5.139-2.342"/><path class="cls-3" d="M102.577,71.685a11.044,11.044,0,0,0-8.393,3.2,12.462,12.462,0,0,0-3.578,8.664c-.024,4.055,1.853,8.315.263,12-.93,2.156-2.862,3.594-4.324,5.387s-2.45,4.533-1.166,6.473"/><path class="cls-3" d="M88.569,110.018c-1.252-.733-1.489-2.671-.82-4.011a6.511,6.511,0,0,1,3.29-2.782,20.748,20.748,0,0,0,3.878-1.923,7.523,7.523,0,0,0,2.6-7.731c-.764-2.878-3.156-5-4.034-7.841a8.123,8.123,0,0,1,1.139-7.019,7.132,7.132,0,0,1,6.118-2.939"/><path class="cls-3" d="M91.4,112.591c-1.558,0-2.446-2.2-1.8-3.708a5.088,5.088,0,0,1,3.753-2.637,35.412,35.412,0,0,0,4.59-.894A7.42,7.42,0,0,0,102.2,101.1a8.081,8.081,0,0,0-.181-6.2,24.631,24.631,0,0,0-3.1-4.336,7.332,7.332,0,0,1-1.811-4.954c.179-1.808,1.9-3.5,3.533-2.933"/></svg>