<svg id="word" xmlns="http://www.w3.org/2000/svg" viewBox="0 0 160 160"><defs><style>.cls-1{fill:#fdebe2;}.cls-1,.cls-10,.cls-11,.cls-12,.cls-16,.cls-17,.cls-18,.cls-19,.cls-2,.cls-20,.cls-21,.cls-22,.cls-3,.cls-4,.cls-5,.cls-7,.cls-8{stroke:#9d4b9c;stroke-width:0.529px;}.cls-1,.cls-10,.cls-11,.cls-12,.cls-16,.cls-17,.cls-18,.cls-19,.cls-2,.cls-20,.cls-21,.cls-22,.cls-3,.cls-4,.cls-5,.cls-6,.cls-7,.cls-8{stroke-miterlimit:10;}.cls-2{fill:#231f20;}.cls-15,.cls-3{fill:#fff;}.cls-4{fill:#c3996b;}.cls-5{fill:#3b3833;}.cls-6{fill:#595046;stroke:#63b1e2;stroke-width:0.747px;}.cls-7{fill:none;}.cls-8{fill:#e8cb69;}.cls-9{fill:#9d4b9c;}.cls-10{fill:#353435;}.cls-11{fill:#b3c4da;}.cls-12{fill:#f9a533;}.cls-13{fill:#aecbdc;}.cls-14{fill:#f9f3a6;}.cls-15{opacity:0.6;}.cls-16{fill:#14191f;}.cls-17{fill:#686f79;}.cls-18{fill:#323031;}.cls-19{fill:#2b2f33;}.cls-20{fill:#374353;}.cls-21{fill:#6f7062;}.cls-22{fill:#303338;}</style></defs><path class="cls-1" d="M68.172,89.173s2.548,1.529,3.261,3.261,1.529,4.28,1.529,4.28L90.591,85.708,85.8,74.091Z"/><path class="cls-2" d="M60.529,63.493l.1,2.344s-7.032,1.121-8.458.713-2.854-1.427-2.548-2.446,5.095-1.426,5.809-1.528A39.065,39.065,0,0,1,60.529,63.493Z"/><path class="cls-1" d="M59.884,61.421s.543,5.163-.68,6.794a19.488,19.488,0,0,0-2.853,5.978c-.136,1.087,3.4,1.631,3.4,1.631s-.238,2.547-.34,2.955,1.325,1.528,1.325,1.528-1.121,1.019-.612,1.733a4.012,4.012,0,0,0,1.631,1.121s.815,5.2,1.427,6.216,3.057,1.529,5.6,1.121,10.6-4.993,12.025-6.522,6.624-7.032,6.624-9.375,1.019-9.376-1.223-12.127S78.261,55.137,75,55.137,59.884,61.421,59.884,61.421Z"/><path class="cls-3" d="M68.783,65.837S69.4,68.181,67.968,69,64.5,67.263,64.5,66.041a2.788,2.788,0,0,1,1.835-2.854C67.764,62.576,68.783,65.837,68.783,65.837Z"/><path class="cls-4" d="M74.286,57.684s4.586,3.363,5.3,5.3,1.955,6.387,2.465,6.489,2.887-3.941,2.887-4.756,1.121,11.21,1.529,12.229,2.242,4.891,2.242,4.891,5.246-7.235,5.96-8.968,2.445-12.84,1.936-14.776-4.994-3.567-4.994-3.567l-15.082.408-3.159.2Z"/><path class="cls-1" d="M84.224,64.818s3.567-4.382,4.891-2.65,2.9,5.809,1.374,7.949-1.324,3.057-2.14,4.178-2.547,1.63-3.159.611a6.149,6.149,0,0,1-.713-2.343"/><path class="cls-5" d="M97.419,90.4s13.248,11.617,13.452,12.127,4.687,4.891,4.687,4.891S101.5,111.9,99.253,119.949s-2.547,23.846-2.547,23.846l-45.858.407s-.815-14.063.408-19.26,2.445-16.509,4.28-18.954,15.693-8.56,15.693-8.56l24.356-7.643Z"/><path class="cls-6" d="M114.641,105.58s-6.318.1-7.031.612a19.327,19.327,0,0,1-2.242,1.222s1.426-3.668-.816-4.891-8.56-4.586-9.273-5.3-.815-1.427.408-2.752,3.363-.815,3.974-.815,3.159.1,3.872.713S114.641,105.58,114.641,105.58Z"/><path class="cls-7" d="M75.611,105.682a31.338,31.338,0,0,1-2.038,6.828c-1.223,2.344-2.548,0-5.6,10.088s-5.5,21.6-5.5,21.6"/><path class="cls-8" d="M97.521,94.88s2.751-1.732,3.159-.306-.408,2.242-1.223,2.242S96.706,96,97.521,94.88Z"/><path class="cls-8" d="M73.267,108.332s.2,2.853-1.426,3.261-1.019-3.058-.408-3.771S73.369,106.6,73.267,108.332Z"/><path class="cls-8" d="M63.077,127.694s2.242-1.223,2.038-.2-.306,3.974-1.427,4.28S62.771,128.509,63.077,127.694Z"/><path class="cls-6" d="M80.605,129.936c-.306.2-11.516-1.121-11.516-1.121l-5.095,7.948s3.872.714,5.095,1.631a39.126,39.126,0,0,0,4.892,2.547,3.363,3.363,0,0,0,2.955.2c1.427-.713,6.216-2.14,6.216-2.14l2.955-8.152Z"/><path class="cls-6" d="M57.676,129.63,51.867,138.9a6.265,6.265,0,0,0-1.732.714c-.816.509-1.121-1.529-1.733-1.529s-3.261-.408-3.261-.408,5.707-7.744,5.707-8.05a4.189,4.189,0,0,1,.2-.917S58.287,127.694,57.676,129.63Z"/><ellipse class="cls-8" cx="74.745" cy="137.63" rx="1.172" ry="1.58"/><ellipse class="cls-8" cx="50.033" cy="137.12" rx="0.917" ry="1.58"/><path class="cls-9" d="M67.206,66.262s.364,1.395-.486,1.881-2.062-1.032-2.062-1.76a1.657,1.657,0,0,1,1.092-1.7C66.6,64.321,67.206,66.262,67.206,66.262Z"/><path class="cls-10" d="M78.77,56.258s-7.133,6.42-9.681,7.133a23.016,23.016,0,0,1-7.949.917c-2.751-.2-6.216-1.121-8.662-.713s-2.751,1.121-2.751,1.121-1.223-1.529-.51-1.936,7.949-6.013,7.949-6.013Z"/><path class="cls-11" d="M96.909,58.6s-11.107-2.038-15.8-1.936-24.457.51-24.457.51l.509-9.681s21.706.815,24.05.815,18.445,1.528,18.445,1.528l-2.65,8.357Z"/><path class="cls-5" d="M57.166,46.78s-1.427-9.375.713-9.579,11.72-2.649,12.943-2.955,15.184-.612,18.852-1.019,14.777-2.955,14.777,2.547-4.79,14.063-4.79,14.063-17.528-1.12-21.6-1.12-20.891-1.223-20.891-1.223Z"/><path class="cls-2" d="M83.458,52.691s-6.828.917-9.477.917S57.064,53,57.064,53l-.407,3.77s18.546,0,20.585-.2,6.725-.917,6.725-.917Z"/><path class="cls-2" d="M84.477,51.978a1.692,1.692,0,0,1,1.63,2.14c-.407,2.038-1.936,2.445-2.955,1.63S81.318,53.3,84.477,51.978Z"/><path class="cls-12" d="M84.262,53.047a.885.885,0,0,1,.852,1.119c-.213,1.066-1.012,1.279-1.545.853S82.61,53.74,84.262,53.047Z"/><path class="cls-5" d="M128.093,143.387c.1-.305-.612-22.215-3.771-27.107s-3.922-9.273-8.764-10.7c-5.091-1.5-10.292-1.427-13.248,2.65s-8.458,16.508-8.356,24.253.1,11.312.1,11.312Z"/><path class="cls-6" d="M95.075,80.613l4.076,11.108s-3.974,2.446-6.929,4.076-15.8,9.885-17.12,10.8-3.261,1.733-3.261.713,1.121-2.751-.2-4.993-3.057-3.567-2.65-5.095,8.458-4.892,9.274-5.5S93.445,77.148,95.075,80.613Z"/><path class="cls-13" d="M84.375,89.785,71.637,98.447s1.528,5.91,2.547,5.605S87.84,95.9,87.84,95.9Z"/><rect class="cls-14" x="71.119" y="97.173" width="15.404" height="0.204" transform="translate(-45.94 107.755) rotate(-55.784)"/><rect class="cls-15" x="41.182" y="22.781" width="95.908" height="125.951"/><path class="cls-16" d="M87.086,139.523s6.93-.1,7.337-1.528,3.465-60.736,3.465-60.736l-8.764-1.223L80.055,136.67s0,.917,2.242,1.528S87.086,139.523,87.086,139.523Z"/><path class="cls-16" d="M90.474,143.931l.883-4.891a28.874,28.874,0,0,0-4.688-.2,13.168,13.168,0,0,1-5.163-1.087l-1.187,6.292Z"/><path class="cls-17" d="M92.589,77.462l6.216.2s1.427-.713-.1-1.121-6.725-1.426-7.744-1.528-2.14-.51-2.344.2.305,1.835.611,1.631S92.589,77.462,92.589,77.462Z"/><path class="cls-17" d="M97.684,75.424s2.039-1.121-.1-1.121-2.038-1.223-2.038-1.223l-3.057-.2s-1.121.509-1.732.713-1.019,1.529-1.019,1.529l8.356,1.019Z"/><polygon class="cls-17" points="95.748 68.291 95.544 73.08 92.589 73.59 93.201 68.189 95.748 68.291"/><path class="cls-18" d="M97.786,66.151s.714,2.242-.611,2.446a25.291,25.291,0,0,1-5.095-.51l-1.019-.815s0-.714-.51-.815-4.178-.816-4.178-.816L85.659,68.5,89.94,74.2a1.283,1.283,0,0,1-.816.816c-.713.305-4.993-5.911-5.6-6.726s-2.955-2.955-1.324-3.669S97.786,66.151,97.786,66.151Z"/><path class="cls-17" d="M99.111,40.572,96.462,66.355,93,65.641l3.261-25.476S98.6,39.961,99.111,40.572Z"/><path class="cls-19" d="M108.181,4.8a48.677,48.677,0,0,1,.917,7.236c.1,3.363-3.567,23.846-3.567,23.846a1.081,1.081,0,0,1,1.121.713c.306.815-.509,3.465-.509,3.465l-4.994-.815,3.669-24.764S106.754,6.536,108.181,4.8Z"/><path class="cls-20" d="M100.945,31.707l-1.019,7.439-4.178-.408.917-7.031a2.953,2.953,0,0,1,4.28,0Z"/><path class="cls-21" d="M109.709,40.674S94.525,37.515,94.22,38.738s.2,1.223.2,1.223L109.811,42.2Z"/><path class="cls-22" d="M105.864,41.184a14.334,14.334,0,0,0-.537,2.649c0,.816,0,9.58-.917,11.822s-2.14,7.642-1.63,7.846.713.714.509,1.631a20.941,20.941,0,0,0-.305,2.446l-6.013-.816.713-3.872s1.019.1.714-1.427.2-11.617.713-13.655,1.834-5.707,1.834-5.707l-.3-1.325Z"/></svg>