<svg id="word" xmlns="http://www.w3.org/2000/svg" xmlns:xlink="http://www.w3.org/1999/xlink" viewBox="0 0 160 160"><defs><style>.cls-1{fill:#eaec92;}.cls-1,.cls-10,.cls-2,.cls-3,.cls-4,.cls-5,.cls-6,.cls-7,.cls-8{stroke:#9c4c9c;}.cls-1,.cls-10{stroke-width:0.622px;}.cls-2{fill:#aec6d3;}.cls-2,.cls-3,.cls-4,.cls-5,.cls-6,.cls-7,.cls-8{stroke-width:0.645px;}.cls-3{fill:#fbe2d8;}.cls-4{fill:#806aad;}.cls-5{fill:#414141;}.cls-6{fill:#989a9d;}.cls-7{fill:none;}.cls-8{fill:#8d5124;}.cls-9{opacity:0.34;fill:url(#linear-gradient);}.cls-10{fill:#fff;}.cls-11{fill:#9c4c9c;}</style><linearGradient id="linear-gradient" x1="60.276" y1="52.131" x2="58.237" y2="72.689" gradientUnits="userSpaceOnUse"><stop offset="0" stop-color="#c5e7f9"/><stop offset="1" stop-color="#fff" stop-opacity="0"/></linearGradient></defs><path class="cls-1" d="M12.722,28.523s34.857-1.036,44.344-.872,46.457,1.144,53.655,14.722c2.785,5.252,3.272,46.674,5.888,57.144s1.527,16.577,6.762,18.7,5.507,9.269,5.344,10.905c-.136,1.356-80.425.8-107.543.8-5.45,0-8.984-2.932-8.984-9.093Z"/><path class="cls-2" d="M19.6,44.749l56.717,5.124S91.346,52.72,93.737,55.34s5.694,6.491,6.492,11.844,1.822,37.242-.114,41.342-11.73,6.605-16.855,5.694-49.429-6.035-57.515-6.377a48.325,48.325,0,0,0-13.21,1.024v-64.2Z"/><path class="cls-3" d="M63.244,82.558a9.587,9.587,0,0,1,4.328,7.632c.092,2.433,1.025,7.63,1.025,7.63s9.567-2.961,9.681-3.416,4.1-6.492,4.1-6.492L79.3,72.651l-8.541,9.567Z"/><path class="cls-4" d="M67.535,90.684l-6,2.239,2.733,18.337,6.492,1.024S77.594,99.3,78.05,98.5s5.581-11.389,5.581-11.389L81.44,83.159S72.091,93.873,67.535,90.684Z"/><path class="cls-3" d="M30.934,102.83l.245,5.357-10.55-.369L18.87,104.3s5.439-4.049,6.748-4.7,5.48,0,5.48,0"/><path class="cls-5" d="M67.371,92.81s-11.626-1.1-13.9-.981-9.929,6.391-9.816,8.669-4.416,8.67-4.416,8.67l26.991,2.945s-3.5-10.579-3.272-15.7S67.371,92.81,67.371,92.81Z"/><path class="cls-5" d="M87.492,88.8s.467.476,4.338,1.615a59.9,59.9,0,0,1,8.667,3.62s.225,13.232-1.554,15.295c-7.156,8.3-23.019,4.153-23.474,3.926s-8.261-.9-8.261-.9S73.479,104.9,76,101.009c3.723-5.745,7.159-16.869,7.159-16.869Z"/><path class="cls-3" d="M31.016,103.77s0-2.42,1.023-3.559,1.594-3.188.57-4.213-3.53-1.673-4.783-2.7-4.473-4.577-4.948-4.09c-1.432,1.473-.748,3.142.619,5.762s2.848,4.669,2.848,5.011.027,3.961.341,4.328C28.563,106.51,31.016,103.77,31.016,103.77Z"/><path class="cls-6" d="M19.967,99.187S34.43,88.026,47.641,88.823s25.511,4.9,31.206,10.25,13.716,14.39,13.716,14.39l-5.766.981s-2.939-8.765-6.47-8.2-11.687,6.233-11.687,6.233l-7.77-.982,14.56-9.806s-7.517-5.011-14.35-6.72-12.187-4.1-19.247-1.822a142.5,142.5,0,0,0-16.172,6.833l-7.609,7.957-5.317.614Z"/><path class="cls-3" d="M13.191,101.3s.228,3.417.57,5.239,1.479,2.051,1.821.911S15.811,97.312,13.191,101.3Z"/><path class="cls-3" d="M93.539,105.223s-.228,3.417-2.051,4.214-3.3,2.62-4.783,3.644-2.733.228-2.733-1.024,3.416-5.012,4.555-6.492,4.282-.9,4.282-.9S93.655,104.713,93.539,105.223Z"/><path class="cls-3" d="M95.361,107.387s-1.9-2.472-2.505-.911c-.333.855-5.125,5.694-4.9,6.036s.8.8,2.506.342S95.589,108.64,95.361,107.387Z"/><path class="cls-3" d="M81.043,106.292a8.211,8.211,0,0,0-2.62-.229,2.594,2.594,0,0,0-.57,3.076c.684,1.025,1.026,1.936,2.848,1.708S83.093,106.861,81.043,106.292Z"/><path class="cls-3" d="M97.183,109.209c-.285-.572-1.481-.455-2.164-.455s-3.531,2.278-3.075,3.644,3.645-.911,4.328-1.594S97.468,109.781,97.183,109.209Z"/><path class="cls-3" d="M55.044,60.237a55.433,55.433,0,0,0,.569,6.6c.342.911,1.482,3.418,1.482,5.126s4.326,10.59,6.6,11.844a11.483,11.483,0,0,0,9.112.342c2.619-1.253,5.809-5.468,6.264-7.29s0-12.982-.115-13.779-6.035-10.679-9.679-10.679S55.044,60.237,55.044,60.237Z"/><path class="cls-7" d="M62.219,67.639a30.982,30.982,0,0,1,1.139,4.671c0,1.024-.823,2.824.088,3.051a5.844,5.844,0,0,0,2.455-.272"/><path class="cls-7" d="M64.383,78.8c1.653.769,4.944-.466,5.934-2.022"/><path class="cls-8" d="M70.535,54.478s-1.745,3.6-1.745,5.018v1.417a4.161,4.161,0,0,1-.872-2.182c.109-.872.436-2.4.436-2.4s-1.144,2.345-1.8,3.544C65.765,61.326,65.41,62,65.41,62a6.029,6.029,0,0,1,.108-2.4,9.924,9.924,0,0,0,.328-2.181s-.328,3.708-1.636,5.235a5.412,5.412,0,0,1-2.889,1.8l2.343-3.435a21.506,21.506,0,0,1-3.38,3.491,14.3,14.3,0,0,0-3.162,3.326c-.456.621,1.417-3.219,1.417-3.219s-2.835,3.273-2.618,4.472.982,5.126.982,5.126-3.817-4.253-4.689-6.87-1.838-7.667-1.2-10.033c.927-3.435,5.072-8.4,6.272-8.834s2.5.351,7.96.491a91.731,91.731,0,0,1,13.905,1.744s4.852,2.89,5.016,7.362c.138,3.816-.952,8.863-1.948,10.539a42.519,42.519,0,0,1-2.633,3.747l-1.2-.763s-1.035-4.254-.817-5.563A39.6,39.6,0,0,0,77.841,62s-.817,5.452-.927,3.926-1.471-6.162-1.471-6.6.164,3.926.164,3.926a7.116,7.116,0,0,1-2.018-3c-1.106-3.224-1.528-4.253-1.528-4.253v5.561Z"/><path class="cls-7" d="M65.518,65.383a5.033,5.033,0,0,1,4.8-2.672"/><path class="cls-7" d="M62.219,67.639a2.883,2.883,0,0,0-4.553-.238"/><path class="cls-3" d="M78.5,66.691s1.308-2.4,2.562-1.744c1.644.858.987,3.034.873,3.49s-1,1.215-.654,2.126a2.425,2.425,0,0,1-.327,2.345c-.993,1.075-2.29-.273-2.29-.273"/><path class="cls-3" d="M88.414,101.693a5.2,5.2,0,0,0-3.3,2.163c-1.139,1.823-5.467,5.468-4.328,6.72a2.339,2.339,0,0,0,3.417.456c.911-.8,3.758-5.239,4.327-5.467a13.566,13.566,0,0,0,1.823-1.139S89.325,101.35,88.414,101.693Z"/><path class="cls-5" d="M82.094,83.4a7.438,7.438,0,0,1,4.253,2.372,11.545,11.545,0,0,1,2.045,4.09s.491.654-2.045,3.843a20.513,20.513,0,0,0-3.271,5.317l-1.309-.491-4.089-.817s2.453-5.317,2.944-6.544S82.5,84.468,82.094,83.4Z"/><path class="cls-3" d="M19.4,96.682a2.227,2.227,0,0,0-2.05,2.391c0,2.277,1.139,5.809,2.734,6.606s3.947.7,3.833-.327S19.967,96.909,19.4,96.682Z"/><path class="cls-3" d="M15.831,98.685s-1.746.136-.8,3.758c.5,1.9,2.506,5.125,3.531,5.011s1.708-2.391,1.025-2.961S16.628,97.774,15.831,98.685Z"/><path class="cls-3" d="M24.522,98.618a26.452,26.452,0,0,0-1.708-4.556c-.57-.683-2.619-1.139-2.847.342s-.228,4.442.569,6.035,2.62,3.645,3.53,3.645,3.416-.8,2.62-1.822A34.905,34.905,0,0,1,24.522,98.618Z"/><path class="cls-7" d="M12.735,39.646s42.859.654,54.636,2.617,26.5,2.618,31.572,9.979,10.96,47.439,8.015,55.454-10.632,13.741-22.083,11.287-34.189-5.071-46.457-6.38-25.355,1.636-25.355,1.636Z"/><path class="cls-1" d="M122.879,125.464l3.108-10.072s15.167,2.984,18.664-1.867,2.719-10.813-7.39-13.052-16.713,0-16.326,4.1,1.944,5.222,1.944,5.222l-6.613,9.325Z"/><path class="cls-9" d="M18.3,45.972s39.587,3.435,46.294,3.271,23.392,3.435,26.827,6.38,6.217,6.38,6.707,14.4.818,21.43.818,21.43.164,2.453-1.8-3.436,1.145-16.031-8.67-28.463c-3.1-3.93-38.605-7.034-42.2-7.525S18.3,45.972,18.3,45.972Z"/><path class="cls-10" d="M58.329,69.482s-.58,2.377,1.009,3.021,1.792-1,1.984-1.507c.346-.915-.445-2.957-1.469-2.825A1.869,1.869,0,0,0,58.329,69.482Z"/><path class="cls-11" d="M58.289,70.392s-.357,1.465.622,1.862,1.1-.616,1.222-.929c.214-.563-.273-1.822-.905-1.741A1.153,1.153,0,0,0,58.289,70.392Z"/><path class="cls-10" d="M67.262,67.239s-.58,2.377,1.009,3.021,1.792-1,1.983-1.507c.346-.915-.444-2.957-1.469-2.825A1.869,1.869,0,0,0,67.262,67.239Z"/><path class="cls-11" d="M67.222,68.149s-.357,1.465.622,1.862,1.1-.616,1.222-.929c.213-.563-.274-1.822-.905-1.741A1.153,1.153,0,0,0,67.222,68.149Z"/></svg>