<svg id="word" xmlns="http://www.w3.org/2000/svg" viewBox="0 0 160 160"><defs><style>.cls-1{fill:#ffc90d;}.cls-1,.cls-2,.cls-3,.cls-4,.cls-7,.cls-9{stroke:#9b4d9c;}.cls-1,.cls-2,.cls-3,.cls-4,.cls-5,.cls-6,.cls-7,.cls-9{stroke-miterlimit:10;}.cls-1,.cls-2,.cls-3,.cls-4,.cls-5,.cls-7{stroke-width:0.888px;}.cls-2{fill:#fbdb00;}.cls-3,.cls-6,.cls-9{fill:none;}.cls-4{fill:#80441d;}.cls-5,.cls-7{fill:#d5ccb1;}.cls-5,.cls-6{stroke:#9b4b9c;}.cls-6{stroke-linecap:round;stroke-width:1.777px;}.cls-8{fill:#9b4b9c;}.cls-9{stroke-width:0.83px;}</style></defs><path class="cls-1" d="M41.379,67.456a56.741,56.741,0,0,1-1.309,7.851C39.052,79.523,33.818,97.843,31.2,104.1s-8.433,27.334-8.433,27.334-5.961.581,6.543,3.053,24.717,5.816,28.933,4.8,15.993.187,15.993.187-2.762-6.875-.727-12.982a96.613,96.613,0,0,0,2.908-10.468s7.125,17.157,8,19.192.291,3.635,1.89,3.635,9.6-1.309,16.139-2.326,14.975-3.781,22.681-4.071,12.795-2.327,12.649-3.781-2.762-5.088-3.78-8.578-20.937-56.849-20.937-56.849S90.376,70.8,78.018,70.8,41.379,67.456,41.379,67.456Z"/><path class="cls-2" d="M57.517,78.069s-.727,6.979-4.216,9.742S42.833,92.9,40.07,91.882,34.523,89.8,34.523,89.8L32.588,96.03s12.716,6.32,18.823,2.395S61.879,78.069,61.879,78.069Z"/><path class="cls-3" d="M78.852,101.7a12.072,12.072,0,0,1-4.209-4.53,27.778,27.778,0,0,1-3.735-11.358c-.146-1.434-.649-4.173.07-5.5.757-1.4,2.312-.948,3.723-.922,1.116.02,3.856-.426,4.609.335.907.917.722,4.253.78,5.467a88.569,88.569,0,0,1-4.023,30.941"/><path class="cls-1" d="M114.974,71.16q-10.6,3.858-21.543,6.68a42.48,42.48,0,0,1-5.54,1.145,46.822,46.822,0,0,1-4.753.242,166.985,166.985,0,0,1-22.305-.618c-2.473-.291-4.931-.691-7.388-1.092-4.3-.7-9.076-1.509-13.375-2.21,0,0-.354-5.816.477-6.833a13.036,13.036,0,0,0,1.559-3.054s17.156,3.49,21.227,3.635,15.7,1.309,23.263-.145S113.784,61.2,113.784,61.2s1.6,4.362,2.472,6.252a4.909,4.909,0,0,1,0,3.78Z"/><path class="cls-1" d="M81.8,132.592s11.486,1.454,20.064-1.163,17.157-3.053,21.373-4.507,12.956-6.138,12.956-6.138a32.4,32.4,0,0,1,2.892,4.684,14.5,14.5,0,0,1,1.745,4.507,4.886,4.886,0,0,1-4.637,1.89c-3.069-.436-4.645,0-7.637.727s-30.763,5.234-34.688,5.961a81.149,81.149,0,0,1-9.742.914Z"/><path class="cls-1" d="M130.795,132.592s1.018-1.163,1.018-4.943-2.617-8.142-3.2-8.869,3.2-2.648,3.2-2.648,4.532,5.827,4.374,8.963,0,6.77,0,6.77Z"/><ellipse class="cls-4" cx="132.373" cy="120.784" rx="1.522" ry="2.981" transform="translate(-35.337 57.66) rotate(-21.753)"/><path class="cls-1" d="M74.092,133.033a22.722,22.722,0,0,1-15.954,1.3c-8.578-2.617-17.157-3.054-21.373-4.508s-12.956-6.138-12.956-6.138a32.457,32.457,0,0,0-2.892,4.685,14.5,14.5,0,0,0-1.745,4.507,4.886,4.886,0,0,0,4.637,1.89c3.069-.436,4.645,0,7.637.727s30.763,5.234,34.688,5.961a15.69,15.69,0,0,0,8.1-1.163Z"/><path class="cls-1" d="M29.205,135.5s-1.018-1.163-1.018-4.944,2.617-8.142,3.2-8.869-3.2-2.647-3.2-2.647-4.532,5.827-4.374,8.963,0,6.77,0,6.77Z"/><ellipse class="cls-4" cx="27.627" cy="123.691" rx="2.981" ry="1.522" transform="translate(-97.495 103.51) rotate(-68.247)"/><path class="cls-2" d="M101.029,76.065s.727,6.978,4.216,9.741,10.469,5.089,13.231,4.071,5.547-2.086,5.547-2.086l1.935,6.234s-12.716,6.32-18.823,2.395S96.667,76.065,96.667,76.065Z"/><ellipse class="cls-4" cx="77.619" cy="74.459" rx="1.522" ry="2.981" transform="translate(-8.648 10.218) rotate(-7.135)"/><path class="cls-3" d="M80.366,69.693a5.267,5.267,0,0,1,1.592,2.733,10.121,10.121,0,0,1,.194,3.193,2.623,2.623,0,0,1-.192.926,2.783,2.783,0,0,1-.557.719l-1.987,2.055"/><path class="cls-5" d="M42.357,57.073A210.441,210.441,0,0,0,63.687,50.5c9.2-3.567,9.06-5.391,15.4-5.864s9.056,2.339,12.457,3.92,22.947,9.95,24.984,11.37,5.8,5.333,4.961,6.968-11.121-1.53-14.733-3.357S94.812,56.177,79.8,56.772s-29.656,6.271-37.03,5.773S35.217,59,42.357,57.073Z"/><path class="cls-6" d="M74.093,29.425S70.579,23.1,78,22.2c7.631-.929,8.184,4.495,7.558,7.282s-6,6.345-6.776,8.719a52.615,52.615,0,0,0-1.408,5.987"/><path class="cls-7" d="M45.244,59.843S44.2,69.079,44.722,70.26s4.492,2.016,4.492,2.016.771-2.613,1.274-5.224,1.025-7.209,1.025-7.209Z"/><path class="cls-7" d="M106.051,60.47v9.223h5.262c1.149,0,.9-4.73.693-5.566s-.693-3.657-.693-3.657Z"/><path class="cls-8" d="M134.973,10.371s-3.213-3.429-1.333-4.35,2.705,3.59,2.705,3.59,1.159-4.8,2.763-4.075c2.944,1.324-1.869,4.826-1.869,4.826s4.428-2.41,4.746.022-4.46.495-4.46.495,4.85,1.717,4.364,3.779-4.805-2.418-4.805-2.418,3.156,4.728.791,4.881c-2.119.137-1.9-4.507-1.9-4.507s-1.235,5.018-3.275,3.9c-2.392-1.3,2.307-4.465,2.307-4.465s-5.512,1.161-4.878-1.58C130.653,8.212,134.973,10.371,134.973,10.371Z"/><path class="cls-8" d="M25.089,9.437s.335-4.687,2.288-3.932-.8,4.423-.8,4.423,4.308-2.405,4.868-.738c1.027,3.06-4.812,1.9-4.812,1.9s4.775,1.615,3.206,3.5-3.391-2.939-3.391-2.939,2.032,4.727.187,5.77-1.486-5.169-1.486-5.169S23.821,17.783,22.1,16.15c-1.539-1.462,2.02-4.453,2.02-4.453s-4.523,2.5-5.091.247c-.665-2.642,4.846-1.338,4.846-1.338s-4.595-3.259-2.153-4.654C23.741,4.8,25.089,9.437,25.089,9.437Z"/><path class="cls-9" d="M28.266,12.3C46.7,23.417,76.879,25.959,94.99,22.782c26.491-4.648,42.3-12.073,42.3-12.073"/></svg>