<svg id="word" xmlns="http://www.w3.org/2000/svg" xmlns:xlink="http://www.w3.org/1999/xlink" viewBox="0 0 160 160"><defs><style>.cls-1{fill:#7556a3;}.cls-1,.cls-10,.cls-11,.cls-12,.cls-13,.cls-14,.cls-15,.cls-2,.cls-3,.cls-4,.cls-5,.cls-6,.cls-7,.cls-8,.cls-9{stroke:#9d4b9c;stroke-width:0.75px;}.cls-2{fill:#fde2d4;stroke-miterlimit:10;}.cls-3{fill:#9ed08a;}.cls-4,.cls-8{fill:none;}.cls-15,.cls-4{stroke-linecap:round;}.cls-5{fill:#d9dbdc;}.cls-6{fill:#faaf40;}.cls-7{fill:#fff;}.cls-8{stroke-dasharray:2 2;}.cls-9{fill:#acb2b7;}.cls-10{fill:#b3b8bc;}.cls-11{fill:#ee3a3a;}.cls-12{fill:url(#Radial_Gradient_2);}.cls-13{fill:#120b14;}.cls-14{fill:#515254;}.cls-15{fill:#c3996b;}</style><radialGradient id="Radial_Gradient_2" cx="-470.926" cy="-2946.644" r="1.071" gradientTransform="matrix(-0.289, 0.53, 0.875, 0.12, 2490.41, 728.849)" gradientUnits="userSpaceOnUse"><stop offset="0" stop-color="#fff"/><stop offset="1" stop-color="#120b14"/></radialGradient></defs><path class="cls-1" d="M103.78,61.147s-5.933-2.141-7.595-2.517-8.573-1.505-9.469-1.505S80.7,56,77.762,59.632,67.654,70.284,65.1,71.537s-7.421,12.906-7.421,12.906l18.038,1.5s-2.941,8.522,1.152,8.4,31.088,1,31.088,1,3.837-6.768,6.908-7.393,7.931,1.627,8.954,2.506,3.838,3.133,3.838,3.133,4.478,2.379,6.4,3.633,10.618,2.507,11,1,0-5.764-2.559-7.519-10.618-6.892-13.817-10.4-6.141-6.139-8.571-6.641a27.633,27.633,0,0,1-5.884-2.38S102.756,65.408,103.78,61.147Z"/><path class="cls-2" d="M105.139,58.379l-4.395,9.976s-.212,11.076,3.371,13.333,5.412-.262,6.307-2.643.867-9.968.867-9.968S114.5,63.628,113.6,62,105.139,58.379,105.139,58.379Z"/><path class="cls-3" d="M81.982,92.213a33.1,33.1,0,0,1-.767,5.013c-.512,1.755-4.092,2.757-3.965,5.891s-.384,3.632-.767,6.265-3.243,16.594-3.243,16.594a5.484,5.484,0,0,1,5.117.375,10.5,10.5,0,0,0,7.8,1.755c2.814-.5,9.818-2.692,9.818-2.692s13.14-.271,13.979-.44c7.833-1.582,2.274-6.551,5.089-6.927s9.076-2.2,11.123-2.456,5.2-2.6,5.2-2.6-12.285-4.485-16.25-6.242-10.875-3.257-10.107-5.513-3.2-5.889-6.4-6.892S81.982,92.213,81.982,92.213Z"/><path class="cls-2" d="M103.657,39.757s-5.974,5.771-5.143,9.171,6.119,14.121,8.632,15.343c4.578,2.225,7.1.523,10.671-3.067s6.865-9.583,6.883-10.667,3.47-7.962,1.4-11.564S108.025,32.85,103.657,39.757Z"/><path class="cls-4" d="M105.605,46.967c.652,2.039,2.315,3.279,4.3,2.334"/><path class="cls-4" d="M116.119,49.681a4.382,4.382,0,0,0,4.642,1.482"/><path class="cls-4" d="M110.32,54.379a1.547,1.547,0,0,1,2.507.225"/><path class="cls-5" d="M59.469,94.97s-.512-11.529.383-13.282A8.454,8.454,0,0,1,67.527,77.3c3.966.252,8.315.752,8.315.752l.9,5.514a32.753,32.753,0,0,0,7.42,2.506c3.581.627,9.466-.376,10.363-1.753s2.43-14.789.767-17.295-5.629-3.884-11.514-4.008S52.56,63.141,50,63.141s-10.107.25-12.281.752S33.5,66.524,34.137,74.67s.127,23.184,0,25.564-5.244,7.769.385,9.649,32.621,2.006,35.436,1.88,3.327-1,3.327-4.26,2.813-9.526,0-11.279S59.469,94.97,59.469,94.97Z"/><path class="cls-6" d="M41.838,58.5l-.451,6.766a5.667,5.667,0,0,0,2.549.879,3.605,3.605,0,0,0,2.1-.753l-.149-7.769A7.871,7.871,0,0,1,41.838,58.5Z"/><path class="cls-2" d="M136.481,96.349s-14.712,1.379-16.757.377-9.084-2.632-10.236-3.007-5.245-1.755-6.78-2.382-3.839-1.63-5.245-.5-6.908,4.261-4.222,4.637,8.828-.751,10.107.375.767,2.632,2.942,3.384,6.525,2.005,9.212,2.005a9.917,9.917,0,0,1,5.628,1.881c1.535.877,14.967,2.631,17.91,2.756s8.571-8.019,4.351-9.147A14.225,14.225,0,0,0,136.481,96.349Z"/><path class="cls-7" d="M45.951,58c0,.646-.88,1.171-1.963,1.171S42.026,58.648,42.026,58s.878-1.168,1.962-1.168S45.951,57.356,45.951,58Z"/><path class="cls-7" d="M44.756,57.5a.506.506,0,0,1-.511.5h0a.507.507,0,0,1-.512-.5V54.66a.508.508,0,0,1,.512-.5h0a.507.507,0,0,1,.511.5Z"/><path class="cls-8" d="M89.276,101.53c0,5.18,13.119,23.028,20.28,23.162"/><path class="cls-8" d="M80.831,98.939c3.7-.994,5.729.964,9.289,1.169,4.036.234,7.046-1.817,10.839-2.588"/><path class="cls-8" d="M82.111,98.771c.155,4.625-1.49,7.132-5.2,9.442"/><path class="cls-8" d="M99.34,97.855c-.017,4.024,1.594,5.332,5.629,4.845"/><path class="cls-9" d="M66.525,115.206l-22.3,13.174L42.6,127.4s1.653-.615,1.888-1.172a9.511,9.511,0,0,1,2.025-3.212c1.072-.946,9.845-5.587,11.5-6.326a20.076,20.076,0,0,1,5.607-1.629A18.526,18.526,0,0,1,66.525,115.206Z"/><path class="cls-10" d="M42.154,124.27l29.107-.425a4.724,4.724,0,0,1-1.5,1.1,50.987,50.987,0,0,1-15.478,2.293c-7.294-.117-7.382-.339-7.749-.683a2.465,2.465,0,0,0-1.895-.724c-1.1-.023-3.166-.307-3.166-.307Z"/><path class="cls-11" d="M27.3,125.33c-.665-.987-1.79-2.235.625-3.993a7.771,7.771,0,0,1,2.947-1.081s2.952-.575,4.436.525a20.608,20.608,0,0,0,3.268,2.327c.7.235,3.931.343,3.721,1.49s-2.612,2.082-6.312,2.33S28.072,126.474,27.3,125.33Zm8.774-.436c.984-1.125.007-1.709.007-1.709a5.034,5.034,0,0,0-2.864-1.542c-1.793-.274-4.347-.344-5.113.98s.283,2.2,1.763,2.542S35.093,126.021,36.076,124.894Z"/><path class="cls-12" d="M46.611,125.793a1.3,1.3,0,0,0,1.247-.44c.173-.313-.109-.624-.626-.7a1.3,1.3,0,0,0-1.247.439C45.815,125.411,46.1,125.722,46.611,125.793Z"/><polygon class="cls-13" points="47.18 125.114 46.956 124.886 46.705 124.965 47.009 125.258 46.607 125.358 46.754 125.517 47.075 125.393 47.356 125.643 47.655 125.556 47.354 125.306 47.727 125.132 47.616 124.95 47.18 125.114"/><path class="cls-11" d="M36.786,128.522c3.218-1.252,5.978-1.442,7.143-.592s-1.36,2.206-1.725,2.676-.389,1.7-.637,3.173-3.144,2.172-3.144,2.172a9.107,9.107,0,0,1-3.331.282c-3.483-.477-3.654-1.932-3.969-3C30.753,132.006,33.567,129.776,36.786,128.522Zm-3.437,3.84c-.9.86-1,1.986.773,2.758s3.783-.289,5-1.218a2.636,2.636,0,0,0,.985-2.378s.288-.858-1.487-1.387S34.251,131.5,33.349,132.362Z"/><path class="cls-14" d="M90.007,86.082s.653,1.312-.145,1.916a2.057,2.057,0,0,1-1.743.3l-.363,6.254L87.609,88.4l-2.177-.2s-1.744-2.409-1.161-2.321A31.324,31.324,0,0,0,90.007,86.082Z"/><path class="cls-2" d="M59.554,85.688s5.032-4.5,8.357-4.752,6.652-.376,8.187-.376,5.629-2.507,5.245-.375-4.988,2.254-4.988,2.254,3.07,1.63,4.476,1.63,6.525-.376,5.63.751-7.468,1.489-7.468,1.489,7.246.507,7.723.892c1.426,1.148-.895,1.378-2.941,1.5s-5.5.125-5.5.125,0,1.129,2.686,1.63,5.374-.753,5.117.25-2.686,2.256-4.095,2.256-4.22-.376-4.22-.376,5.5.5,5.246,1.129-6.4,1.753-7.933,1.377-4.862-3.007-5.5-3.384a4.414,4.414,0,0,0-3.837.627c-.9.877-6.4,2.3-6.354.841C59.441,91.266,59.086,85.793,59.554,85.688Z"/><path class="cls-8" d="M82.846,94.533c1.7-.388,3.18.116,4.83,0"/><path class="cls-15" d="M121.419,38.109c-.9,2.218-.263.324-2.006,2.445a36.926,36.926,0,0,0-4.134,6.216c.023.33-.241-2.24.662-3.358a8,8,0,0,0,1.287-2.765,14.007,14.007,0,0,0-3.555,3.74,5.355,5.355,0,0,0-.763,2.813s-2.432-.356-.775-2.9,2.457-4,2.457-4-3.268,2.852-3.473,3.96a7.573,7.573,0,0,1-.853,2.185,29.656,29.656,0,0,1,1.071-4.474c.446-.865-1.408,1.2-1.883,2.222a12.351,12.351,0,0,0-.549,3.416s-2.332-2.215-1.065-4.211-.348-.993-.805.155.2,4.272.028,4.734-1.409-1.9-1.316-3.069.1.137-.76,2.119-.767,3.707-1.256,4.81.132,3.284.132,3.284-1.5-4.091-1.931-4.841c-1.086-1.874,1.174,3.169.677,4.759s.687,5.371.687,5.371-1.773-1.92-1.866-2.75.6,1.647.665,1.943-.565-.7-1.83-2.5a68.445,68.445,0,0,0-3.957-5.621,12.862,12.862,0,0,1-2.749-7.5c.056-2.518-.311,3.456-.311,3.456s-2.078-3.151-.837-5.885,1.057-3.293,3.172-5.883-1.532.32-1.532.32-.39-2.551,4.218-4.9a32.282,32.282,0,0,1,8.447-2.983s-4.009,0-5.594,1.043,1.913-2.38,5.062-2.6a34.425,34.425,0,0,1,6.3.251c.286.006-4.177-1.538-4.177-1.538s2.83-2.473,5.886-.631,4.368,1.611,4.368,1.611l-2.293-3.759,3.557,3.557.823-3.127.394,3.856s2.8-2.111,4.225-1.39-3.225,1.512-4.1,2.267,2.836-1.169,4.292-.2-2.761.773-2.761.773a26.487,26.487,0,0,1,5.22,4.318c1.665,2.065-1.139.179-1.139.179s4.634,2.387,5.182,4.964a13.467,13.467,0,0,0,1.416,4.309c.241.244-1.984-2.117-1.984-2.117a5.107,5.107,0,0,1,1.507,4.037,20.816,20.816,0,0,1-.809,3.946s.272-2.811-.2-3.58-.97,2.819-1.47,4.2-1.643,2.464-2.051,4.682-.111-2.955-.111-2.955-1.745,2.814-1.128,4.791-1.134-3.61-1.134-3.61a14.607,14.607,0,0,1-2.1,4.509c-1.245,1.427-3.742,3.875-3.742,3.875s-1.668.828-1.115,1.612-1.3-1.15.039-2.439a11.706,11.706,0,0,0,2.508-3.833c.367-.877-1.109,1.124-1.109,1.124a24.113,24.113,0,0,0,2.622-4.67c.575-1.781,1.5-5.054,1.413-6.782s-1.321,3.617-1.321,3.617,1.6-3.816,1.024-6.438-2.638-1.449-2.343-2.829S122.319,35.89,121.419,38.109Z"/><path class="cls-4" d="M107.832,56.645a5.761,5.761,0,0,0,7.407.8"/></svg>