<svg id="word" xmlns="http://www.w3.org/2000/svg" viewBox="0 0 160 160"><defs><style>.cls-1{fill:#bababe;}.cls-1,.cls-2,.cls-3{stroke:#9d4b9c;stroke-miterlimit:10;}.cls-2{fill:#ed3426;}.cls-3{fill:#999b9e;}</style></defs><path class="cls-1" d="M97.937,73.936,29.205,69.418h0a1.276,1.276,0,0,0-.692,2.4c4.257,2.177,11.064,4.108,19.011,5.5C54.254,78.5,86.667,84.2,86.667,84.2c.112-.534,6.546-4.639,3.769-4.092,3.034-.6,10.353-.07,10.353-.07Z"/><path class="cls-2" d="M94.333,76c-1.5,2.3.105,4.645.908,7.2s5.4,1.789,7.416,2.119,4.551,1.8,7.09,3.264,9.411,6.274,9.411,6.274a16.638,16.638,0,0,0,9.737.457c5.838-1.3,8.594-3.708,10.515-12.275s-13.636-11.553-13.636-11.553.054-2.138-3.373-2.951-3.318,1.919-5.2,2.831-8.975,2.32-14.657,1.241S95.838,73.7,94.333,76Zm32.711.889c7.488,3.162,7.579,5.05,7.416,9.127s-4.708,5.54-11.839,4.334c-10.721-1.813-11.374-9.738-11.374-9.738C112.431,74.7,119.555,73.728,127.044,76.889Z"/><path class="cls-1" d="M87.571,90.834a3.008,3.008,0,0,1-2.917-.926l-34.746-40.2L40.769,38.185s6.068-.147,18.874,12.317c4.168,4.057,18.58,18.084,25.433,23.917a3.012,3.012,0,0,1,.91,3.346,4.54,4.54,0,0,0,.084,3.757,30.778,30.778,0,0,0,3.172,4.5,3,3,0,0,1-1.671,4.808Z"/><path class="cls-2" d="M85.414,97.319c3.133,4.851,4.515,11.987,4.389,14.1s-2.673,3.084-.635,5.946,3.979,1.97,3.979,1.97,8.606,13.27,15.739,8.115,8.306-8.662,7.294-14.593a16.656,16.656,0,0,0-4.09-8.86s-7-4.49-9.3-6.27-4.607-3.559-5.668-5.3-2.094-6.312-4.739-6.052-3.99.247-6.945,1.99C83.047,89.771,82.281,92.469,85.414,97.319Zm11.2,5.051s8.923.421,12.65,6.611,4.167,10.943.488,12.7-5.444,2.413-11.167-3.3S92.609,102.756,96.613,102.37Z"/><ellipse class="cls-3" cx="80.031" cy="77.375" rx="2.269" ry="3.11" transform="translate(-25.014 114.218) rotate(-63.361)"/></svg>