<svg id="word" xmlns="http://www.w3.org/2000/svg" viewBox="0 0 160 160"><defs><style>.cls-1{fill:#97b9bc;}.cls-1,.cls-2,.cls-3{stroke:#9c4c9c;stroke-miterlimit:10;}.cls-2{fill:#d4e1d7;}.cls-3{fill:#e2e6d8;}.cls-4{fill:#f0eeda;}.cls-5{fill:#231f20;opacity:0.07;}.cls-6{fill:#df91ad;}.cls-7,.cls-8{fill:#fff;}.cls-7{opacity:0.31;}.cls-8{opacity:0.35;}</style></defs><path class="cls-1" d="M147.164,78.551c-.106,17.066-30.949,31.024-67.8,30.726S12.725,94.885,12.836,77.819c.116-17.083,30.078-30.688,66.923-30.39S147.28,61.471,147.164,78.551Z"/><path class="cls-2" d="M146.713,76.511c-.112,17.083-30.07,30.688-66.919,30.379S13.158,92.509,13.273,75.429s30.07-30.674,66.919-30.376S146.829,59.431,146.713,76.511Z"/><path class="cls-3" d="M127.6,74.929c-.073,10.262-21.639,18.418-48.187,18.2s-48-8.714-47.938-18.976,21.643-18.415,48.187-18.2S127.663,64.667,127.6,74.929Z"/><path class="cls-4" d="M118.537,80.606c-.043,6.632-17.326,11.863-38.6,11.7S41.453,86.611,41.5,79.979s17.327-11.866,38.6-11.7S118.58,73.971,118.537,80.606Z"/><path class="cls-5" d="M62.912,71.546s-10.285,3.31-6.124,8.882S79.1,90.445,88.923,90.17c14.623-.425,29.608-8.7,29.608-8.7s-3.005,7.666-26.357,9.978c-36.439,3.618-45.606-5.462-49.246-8.261-4.318-3.32-2.678-6.643,6.6-10.673,7.838-3.4,24.607-3.972,24.607-3.972Z"/><path class="cls-6" d="M79.039,103.489c-16.273-.132-31.578-3.128-43.069-8.46-11.776-5.45-19.482-12.663-19.431-20.461s7.845-15.074,19.693-20.337c11.568-5.125,26.9-7.891,43.174-7.759s31.574,3.139,43.074,8.46c11.775,5.45,19.989,12.208,19.939,19.994-.052,7.812-8.366,15.552-20.206,20.8-11.569,5.139-26.9,7.891-43.174,7.759Zm.672-55.759a106.964,106.964,0,0,0-42.812,8.5c-10.913,4.848-15.176,11.432-15.224,18.2S25.8,86.5,36.657,91.534c11.286,5.223,25.733,8.255,41.781,8.38s31.316-3.014,42.674-8.049c10.909-4.851,16.557-11.7,16.6-18.457s-5.081-11.463-15.932-16.478A98.549,98.549,0,0,0,80.8,47.924Z"/><polygon class="cls-7" points="128.353 77.706 145.384 78.3 140.419 87.367 124.351 83.212 128.353 77.706"/><polyline class="cls-7" points="123.488 83.923 139.479 89.147 131.984 94.445 120.988 85.866 123.022 84.189"/><path class="cls-8" d="M33.315,66.21l-3.3,5.877-15.7-.405a34.784,34.784,0,0,1,2.36-4.534A17.754,17.754,0,0,1,20.583,62.8Z"/></svg>