<svg id="word" xmlns="http://www.w3.org/2000/svg" viewBox="0 0 160 160"><defs><style>.cls-1{fill:#e2c48d;}.cls-1,.cls-10,.cls-11,.cls-12,.cls-13,.cls-14,.cls-15,.cls-16,.cls-17,.cls-18,.cls-19,.cls-2,.cls-3,.cls-4,.cls-5,.cls-6,.cls-7,.cls-8{stroke:#9d4b9c;stroke-width:0.393px;}.cls-2{fill:#d4b986;}.cls-3{fill:#efd1c2;}.cls-4{fill:#976d56;}.cls-5{fill:#1763a0;}.cls-6{fill:#c3a68d;}.cls-10,.cls-15,.cls-16,.cls-18,.cls-6{stroke-linecap:round;}.cls-7{fill:#ffe7d2;}.cls-16,.cls-8{fill:#fff;}.cls-9{fill:#9d4b9c;}.cls-10,.cls-18{fill:none;}.cls-11{fill:#f0c551;}.cls-12{fill:#716558;}.cls-13{fill:#f5853e;}.cls-14{fill:#8e9c5d;}.cls-14,.cls-18{stroke-miterlimit:10;}.cls-15{fill:#fbba6d;}.cls-17{fill:#e4c29b;}.cls-19{fill:#bc822b;}</style></defs><path class="cls-1" d="M15.569,76.6l13.692,3.123S47.885,96.74,50.416,98.887,70.237,114.6,70.237,114.6s-10.262-.267-13.391-1.114-7.841-.779-10.8-4.559C44.286,106.668,15.569,76.6,15.569,76.6Z"/><path class="cls-2" d="M47.361,110.02l-1.414,2.626a23.293,23.293,0,0,0,5.293,2.6c1.935.427,13.207.946,14.23.931s4,.3,4,.3l.765-1.887s-13.668-.947-15.317-1.783a19.774,19.774,0,0,1-5.149-1.37C48.238,110.568,47.361,110.02,47.361,110.02Z"/><path class="cls-3" d="M54.285,97.375a36.646,36.646,0,0,1-2.982,3.1c-.611.4-.92,2.217-2.539,1.255s-3.807-2.895-3.037-3.56,2.983.412,3.961.282,3.355-2.008,3.584-2.156"/><path class="cls-4" d="M51.051,100.749a1.584,1.584,0,0,1-.619,1.39,1.287,1.287,0,0,1-1.829-.01c-.9-.761-1.631-1.188-2-1.491-1.355-1.105-3.446-1.882-2.548-3.392.437-.734.94-.734,2.246.011a12.575,12.575,0,0,0,1.991.971s-2.658-.555-1.107,1.388a4.108,4.108,0,0,0,2.492,1.778C50.578,101.812,51.051,100.749,51.051,100.749Z"/><path class="cls-5" d="M65.906,81.457s-7.617,8.4-8.5,9.473-3.711,3.515-4.3,4.492-3.32,2.539-3.32,2.539,1.074,1.172,2.148,2.148,1.562-.976,3.223-1.855,5.761-5.176,7.714-6.738,7.715-7.129,7.715-7.129Z"/><path class="cls-3" d="M58.166,102.8a56.1,56.1,0,0,1-3.82,4.3c-.611.4-.92,2.217-2.538,1.256S48,105.452,48.77,104.785s2.983.413,3.961.282,3.446-4.278,3.675-4.427"/><path class="cls-4" d="M54.1,107.363a1.586,1.586,0,0,1-.62,1.39,1.287,1.287,0,0,1-1.829-.01,8.944,8.944,0,0,0-2.209-1.249c-.423-.228-3.241-2.124-2.343-3.633.437-.734.94-.734,2.247.011a12.721,12.721,0,0,0,1.99.971s-2.658-.555-1.106,1.388a4.1,4.1,0,0,0,2.492,1.777C53.622,108.427,54.1,107.363,54.1,107.363Z"/><path class="cls-5" d="M73.523,86.437s-6.641,8.594-7.91,9.278-4.59,2.246-5.176,4.882-4.395,5.957-4.395,5.957l-2.832-3.222s4.981-6.152,5.762-7.617,5.664-8.789,6.152-9.766,2.2-3.515,2.2-3.515Z"/><path class="cls-6" d="M77.191,50.857c-.342-.553-1.131-.228-1.276-1a3.394,3.394,0,0,0-.562-1.714c-.487-.608-1.3-.76-1.947-1.16a2.318,2.318,0,0,1-1.21-2.114,2.348,2.348,0,0,0-.073,1.526c.247.834.378,1.624,1.369,1.832s1.65.264,1.73.979a10.188,10.188,0,0,0,.095,1.6"/><path class="cls-6" d="M77.028,51.091c.395-.071.434-.924.408-1.238a3.111,3.111,0,0,0-.324-1.12A4.829,4.829,0,0,0,76.6,47.9a3.957,3.957,0,0,0-1.152-.671c-.9-.533-1.962-.794-2.885-1.3a2.666,2.666,0,0,1-1.116-1.83s-.579,2.546,1.442,3.568,2.829,1.971,3.008,2.519a5.775,5.775,0,0,1,.226,1.157"/><path class="cls-6" d="M76.707,50.31A1.836,1.836,0,0,0,75.7,49.2a5.023,5.023,0,0,0-2.417-.292,2.3,2.3,0,0,1-2.083-.518,3.946,3.946,0,0,1-1.04-1.587,2.6,2.6,0,0,1-.048-.814,5.36,5.36,0,0,0-.159-.866,2.642,2.642,0,0,1,.479.738,3.275,3.275,0,0,0,2.1,1.5c.9.061,1.553-1.089,2.872.522a5.664,5.664,0,0,1,1.389,2.981"/><path class="cls-6" d="M67.682,52.238a6.85,6.85,0,0,1-1.707-1.649,3.788,3.788,0,0,1-.523-1.682,3.561,3.561,0,0,0-.546-1.391c-.293-.448-.454-.487-.5-1.009l.046-.28.037.18a2.432,2.432,0,0,0,.884,1.183c.4.325.883.389,1.292.694a3.985,3.985,0,0,1,1.019,1.4c.156.319.946,1.641.679,1.9"/><path class="cls-6" d="M68.6,51.863c-.1-.149-.093-.366-.182-.53a3.556,3.556,0,0,0-1.073-1c-.765-.406-1.588-.7-2.378-1.035a3.352,3.352,0,0,1-1.5-.969,1.5,1.5,0,0,1-.369-1.046l.173-.513c-.289.63.514,1.31.929,1.638a2.591,2.591,0,0,0,1.149.507c.315.062.6-.007.921.079a4.775,4.775,0,0,1,1.885.9c.243.2,1.354,1.382,1.139,1.6"/><path class="cls-6" d="M67.52,53.207c.045-.471-.554-.884-.913-1.061-.577-.287-1.433.012-2-.293-.7-.378-.586-1.77-.412-2.474l.477-1.2c-.218,1.373-.342,1.654.489,2.367A11.581,11.581,0,0,0,67.22,51.61c.377.19,1.112.725,1.065,1.219"/><path class="cls-7" d="M67.725,53.032s-.471,1.8-.159,2.381A2.462,2.462,0,0,1,67.735,57a5.647,5.647,0,0,0,1.388,3.494c1.022.869,3.945,1.671,5.188,1.168s3.788-2.526,4.211-3.816-.609-5.337-2.923-5.808S69.456,50.676,67.725,53.032Z"/><path class="cls-6" d="M77.457,59.355s.866-1.347.233-1.528c-.963-.275-.558-1.857-.54-2.418s-1.115-2.657-1.394-3.569.417-1.039.417-1.039l1.492.64a2.72,2.72,0,0,1,2.156,2.138,4.412,4.412,0,0,1-.349,3.829,4.012,4.012,0,0,1-1.6,1.681Z"/><path class="cls-6" d="M76.124,50.79a7.478,7.478,0,0,0-2.159-.574A9.572,9.572,0,0,0,69.253,51.3a4.253,4.253,0,0,0-2.2,2.754c-.083.613.246,1.142.233,1.023a15.749,15.749,0,0,1,.859-1.588s-.642,1.789-.2,1.155a14.008,14.008,0,0,0,.947-1.749s-.413.871-.886,2.055.924-.746,1.264-1.422a3.093,3.093,0,0,1,1.462-1.088c-1.076.684-1.442,2.445-.895,1.686A10.256,10.256,0,0,1,71.6,52.454s-.825,1.575.224.654,1-1.513,1.156-1.213c.094.172-.445,1.5.166.967s1.017-1.074.871-.683-.423,1.991.228,1.189.349-1.009.7-.613a6.318,6.318,0,0,1,.676,1.795s.29-1.4.453-1.053.654,2.012.7,2.116a1.761,1.761,0,0,0,.12-1.5S75.37,51.155,76.124,50.79Z"/><path class="cls-8" d="M73.423,55.814s-.35-1.1-1.035-1.071-1.085,1.722-.134,2S73.443,56.384,73.423,55.814Z"/><path class="cls-8" d="M69,56.2s-.457-.237-.672-.094c-.577.383-.546,1.7.294,1.654S69.929,56.773,69,56.2Z"/><path class="cls-9" d="M71.836,55.734a.469.469,0,0,0,.577.263.41.41,0,0,0,.183-.572.466.466,0,0,0-.574-.262A.41.41,0,0,0,71.836,55.734Z"/><path class="cls-10" d="M70.975,57.342c-.445-.457-1.036-.548-.758.224"/><path class="cls-9" d="M67.989,56.837a.467.467,0,0,0,.575.263.409.409,0,0,0,.185-.57.466.466,0,0,0-.575-.264A.411.411,0,0,0,67.989,56.837Z"/><path class="cls-10" d="M72.386,53.92c-.731-.427-1.374-.346-1.689.333"/><path class="cls-10" d="M69.842,58.7a2.75,2.75,0,0,0,2.508.065,4.392,4.392,0,0,0,.91-.487c.447-.294.542-.62.83-1.044"/><path class="cls-11" d="M75.376,61.076s1.007.828-1.091.289c-.19-.049-3.3.712-3.144,1.486s.714.582.712.874-3.034,3.789-3.377,4.4c-2.164,3.841,1.085,3.674.9,4.574s-2.4,8.35-2.78,8.905.891,1.044,1.706,1.119,6.81-7.339,7.062-7.234,1.913.7,2.623-1.627,1.919-4.094,1.823-5.545,1.154-3.193-.573-5.219a46.193,46.193,0,0,1-3-3.534A8.6,8.6,0,0,0,75.376,61.076Z"/><path class="cls-11" d="M77.527,74.328s-.489,4.59-.489,6.738S74.89,88,74.89,88s-.977-1.27-4.883-3.223A31.559,31.559,0,0,1,63.074,79.9a15.486,15.486,0,0,0,3.222-4.2c.879-2.05.782-3.808,1.953-5.664a39.794,39.794,0,0,0,2.442-4.98l1.162-1.326L74.4,63a19.243,19.243,0,0,0,.1,5.371c.489,2.442,3.614,3.418,3.614,3.418Z"/><path class="cls-11" d="M74.7,64.982s1.11,1.733.638,5.334c-.178,1.361,1.014,4.868,1.45,5.5s2.063,2.382,2.56.069,3.76-5.507.137-10.075c-.973-1.228-1.293-3.089-1.627-3.143s-1.021,1.184-1.536,1.446S74.736,63.824,74.7,64.982Z"/><path class="cls-2" d="M15.241,76.868l-.465,1.14s28.664,32.011,29.7,33.071,1.66,2.3,1.929,1.205a6.7,6.7,0,0,1,1.191-2.21L16.7,77.359S15.638,76,15.241,76.868Z"/><path class="cls-3" d="M24.348,73.672a26.064,26.064,0,0,1-.25,3.1c-.179.731-.885,2.1-.067,3.294s2.334,2.579,2.667,1.6-.635-2.7-.672-3.687a24.164,24.164,0,0,1,.944-4.225"/><path class="cls-12" d="M23.859,77.46a2.211,2.211,0,0,0-.716,1.217,1.934,1.934,0,0,0,.652,1.687,6.43,6.43,0,0,1,1.077,1.655c.2.321,2.156,1.509,2.628.906s.356-1.169-.285-2.146a10.154,10.154,0,0,1-.871-1.548s.686,2.34-.756,1.57c-1.189-.637-1.07-1.02-1.452-1.732A3.118,3.118,0,0,1,23.859,77.46Z"/><path class="cls-13" d="M33.777,54.8s-2.832,8.984-3.515,11.523-3.223,11.036-3.223,11.036-2.93-.293-3.32-1.563,5.566-19.922,6.64-20.7S33.777,54.8,33.777,54.8Z"/><path class="cls-3" d="M21.987,73.471a18.09,18.09,0,0,1-.139,2.835c-.179.731-.885,2.1-.066,3.293s2.333,2.58,2.666,1.6-.634-2.7-.671-3.688a24.091,24.091,0,0,1,.943-4.224"/><path class="cls-12" d="M21.609,77a2.224,2.224,0,0,0-.716,1.219,1.936,1.936,0,0,0,.653,1.686,6.441,6.441,0,0,1,1.077,1.655c.2.321,2.155,1.509,2.627.906s.357-1.17-.284-2.147a10.09,10.09,0,0,1-.872-1.547s.686,2.34-.755,1.57c-1.189-.637-1.071-1.021-1.452-1.733A3.112,3.112,0,0,1,21.609,77Z"/><path class="cls-13" d="M30.945,48.645s-.176.116-.466.324a16.787,16.787,0,0,0-4.612,4.656c-1.367,2.539-2.051,8.789-2.344,10.742s-1.562,6.055-1.562,7.129a14.984,14.984,0,0,1-.781,3.32L24.1,76.769s1.476-5.468,2.355-7.909,1.953-7.032,2.93-8.594.879-3.809,2.441-4.1,4.883-3.125,4.883-3.125l-5.938-4.278"/><path class="cls-7" d="M50.979,49.159a8.8,8.8,0,0,1,1.08.177,2.088,2.088,0,0,0,1-.023c.315-.079.681-.436.771.045a.736.736,0,0,1-.634.814c-.27.036-.353.306-.458.661a2.019,2.019,0,0,1-.692.981c-.266.166-1.522-.594-1.753-.857"/><path class="cls-7" d="M52.1,49.685s1.508.652,1.3.936-.709.246-1.131-.112S51.607,49.6,52.1,49.685Z"/><path class="cls-7" d="M51.745,50.265s1.508.652,1.3.936-.709.247-1.131-.111S51.255,50.181,51.745,50.265Z"/><path class="cls-7" d="M51.349,51.146s1.518.062,1.428.405-.537.489-1.018.307S50.9,51.246,51.349,51.146Z"/><path class="cls-7" d="M51.1,51.6s1.194.179,1.1.469-.456.379-.824.182S50.737,51.644,51.1,51.6Z"/><path class="cls-14" d="M42.277,42.911A15.813,15.813,0,0,0,44.694,45.9c.8.509,4.29,1.28,5.24,1.658s1.624,1.219.946,1.717a2.141,2.141,0,0,0-.591,1.679,6.337,6.337,0,0,1-5.207-1.346c-1.3-1.017-5.157-3.539-5.157-3.539l-.617-2.017S40.83,41.253,42.277,42.911Z"/><path class="cls-15" d="M40.856,29.119s-4.569-.36-5.179-.562a7.392,7.392,0,0,1-2.269-1.236c-.292-.371-.51-.612-.51-.612a5.5,5.5,0,0,0,.032,3.7c.694,2.269,1.315,4.556,2.975,4.165a19.105,19.105,0,0,0,3.931-1.857"/><path class="cls-7" d="M41.572,39.74a17.607,17.607,0,0,0-1.034,1.753,1.946,1.946,0,0,1-1.968.6c-.632-.358-1.294-1.5-1.169-1.908a4.591,4.591,0,0,1,.795-1.153c.165-.22.873-1.332.873-1.332"/><path class="cls-7" d="M45.932,37.685a6.971,6.971,0,0,1-2.64,2.1,3.552,3.552,0,0,1-3.418-.541,4.716,4.716,0,0,1-2.2-3.736c.091-.454,2.641-4.112,4.165-4.3s3.234,1.356,4.011,2.876A5.418,5.418,0,0,1,45.932,37.685Z"/><path class="cls-8" d="M44.537,36.068a1.25,1.25,0,0,1,.143,1.026.945.945,0,0,1-.779.714c-.516.117-.643-.551-.582-.838S44.024,35.495,44.537,36.068Z"/><path class="cls-15" d="M44.409,33.091l.557.833a10.779,10.779,0,0,1,.737,2.2,6.538,6.538,0,0,1-.253,1.981,1.764,1.764,0,0,1-.831,1.286,9.293,9.293,0,0,1-1.526.935c-.6.052,1.534.566,2.98-1.17a2.46,2.46,0,0,0,.518-.985l.144.721a7.421,7.421,0,0,0,.584-2.515c-.119-.762.874-.834.68-2.051a4.483,4.483,0,0,0-1.393-2.794,7.59,7.59,0,0,0-2.363-1.312s.3-.538.7-.366a2.939,2.939,0,0,1,.647.379s-.261-.854-.85-.765-1.254.259-1.254.259.219-.524-.01-.647a3.5,3.5,0,0,1-.561-.44s.584,1.2.26,1.12-.007-.5-.843-.526a4.4,4.4,0,0,0-2.788,1.281,12.143,12.143,0,0,0-1.382,1.98,3.9,3.9,0,0,0-.47,1.255,5.685,5.685,0,0,0-.137,1.664l.251,1.1A2.852,2.852,0,0,1,38.1,35.2a3.088,3.088,0,0,1,.965-1.48c.643-.567.687-.842,1.55-1.083s.6.213,1.365-.267A10.147,10.147,0,0,1,44.409,33.091Z"/><path class="cls-16" d="M40.511,35.418a.439.439,0,0,1-.663-.254,1.187,1.187,0,0,1,.606-1.454c.451-.111.594.11.645.654A1.077,1.077,0,0,1,40.511,35.418Z"/><path class="cls-9" d="M44.145,36.615a.455.455,0,0,0-.078.575c.122.127.353.079.517-.11a.454.454,0,0,0,.077-.574C44.54,36.377,44.309,36.426,44.145,36.615Z"/><path class="cls-9" d="M40.465,34.4a.456.456,0,0,0-.078.577c.123.13.354.08.52-.11a.458.458,0,0,0,.077-.577C40.862,34.159,40.63,34.209,40.465,34.4Z"/><path class="cls-15" d="M40.142,32.738s-1.8.718-2.133.926a1.624,1.624,0,0,0-.863,1.606c.081.962.222,1.217-.151,1.645a2.084,2.084,0,0,1-1.09.542s1.308.46,1.612-.307-.147-1.377.507-2.3S38.736,34.724,40.142,32.738Z"/><path class="cls-15" d="M45.453,35.038a8.509,8.509,0,0,0,.119,1.631,1.943,1.943,0,0,1-.518,1.735,9.446,9.446,0,0,1-1.47,1.387,4.05,4.05,0,0,0,1.971-.7c.76-.654.923-1.014.7-2.231S45.6,35.88,45.453,35.038Z"/><path class="cls-10" d="M42.4,37.228a.4.4,0,1,0-.564-.563"/><path class="cls-14" d="M37.725,38.582a7.608,7.608,0,0,0,2.143,1.652,3.709,3.709,0,0,1,1.879,2.095c.278.757-3.268,8.1-3.38,8.562s-2.478,6.824-2.478,6.824-1.135,2.453-.366,4.174c.241.541-2.783-.329-4.842-3.66-.646-1.044-2.442-.725-3.325-1.393a7.47,7.47,0,0,0-2.71-1.319s.879-4.8,7.1-8.62c1.554-.954,1.719-6.254,2.815-7.321A4.971,4.971,0,0,1,37.725,38.582Z"/><path class="cls-14" d="M37.725,38.582s-.867,2.521.933,3.495a34.718,34.718,0,0,1,3.879,2.581s-1.738,1.135-1.5,1.687-1.735.677-2.537.168-3.461-1.5-4.5-3.681a3.631,3.631,0,0,1,.481-3.473C35.554,37.8,37.725,38.582,37.725,38.582Z"/><path class="cls-15" d="M43.558,30.289c.466-.629-2.073-1.6-2.547-1.724-1.078-.3-1.78.075-2.754.035a5.76,5.76,0,0,1-2.93-1.044,18.171,18.171,0,0,1-1.667-2.443,4.192,4.192,0,0,0,.552,1.623A4.017,4.017,0,0,0,35.224,28a5.912,5.912,0,0,1-1.766-2.012c-.212-.658-.446-1.631-.446-1.631a4.734,4.734,0,0,0,1.617,4.255c1.181,1.114,2.816.973,4.288,1.143"/><path class="cls-15" d="M40.516,31.547c-.86-.753-1.854.141-2.745.214a4.851,4.851,0,0,1-2.787-.634c-1.806-1.426-1.052-4.886.223-6.277a4.734,4.734,0,0,0-1.783,3.681c-.157,2.624-.3,3.935,1.671,3.958s2.852-.433,3.814-.391,1.779.116,1.779.116"/><path class="cls-15" d="M39.308,33.07c-.683.066-1.23.518-1.9.636a5.543,5.543,0,0,1-2.163-.176c-.83-.2-1.436-.339-1.778-1.253a4.561,4.561,0,0,1-.172-2.294l.415-1.081a3.191,3.191,0,0,0-1.058,2.051c-.313,1.558-.431,3.316.912,3.789a4.217,4.217,0,0,0,3.266-.138C37.728,34.225,39,33.583,39,33.583"/><path class="cls-15" d="M37.969,34.753c-.935-.513-1.2.671-1.707,1.215-.986,1.056-2.055.658-2.656-.444a2.811,2.811,0,0,1,.3-3.165c.524-.8,1.416-1.4,1.547-2.474,0,0,.139,0,.193.49S34.6,32.5,34.435,33.48s.875,2.1,1.493,1.28a1.926,1.926,0,0,1,1.939-.68c.326.088.66.142.66.142"/><path class="cls-10" d="M40.43,37.056A1.208,1.208,0,0,0,41.882,38"/><path class="cls-2" d="M68.057,113.374c-.043.177-.486.209-.991.073s-.877-.39-.833-.567.486-.209.99-.073S68.1,113.2,68.057,113.374Z"/><path class="cls-17" d="M63.392,36.348,54.19,7.1s-2.082-4.163,1.643-4.382c2.574-.151,3.067,4.82,3.067,4.82l6.244,23.224"/><path class="cls-17" d="M96.272,115.657l46.589,4.092s7.489.557,8.619.676c1.184.125,2.122,4.382.041,4.93a7.267,7.267,0,0,1-1.67-.11c-4.567-.527-14.515-1.7-14.515-1.7l-40.977-2.662S93.307,115.657,96.272,115.657Z"/><line class="cls-18" x1="98.474" y1="28.245" x2="67.145" y2="113.127"/><path class="cls-7" d="M42.219,44.706s.889-.319,1.314-.447.612-.322.674.084-.91,1.069-.91,1.069"/><path class="cls-2" d="M49.254,109.7c-.043.176-.487.209-.991.073s-.878-.391-.834-.567.487-.21.991-.073S49.3,109.521,49.254,109.7Z"/><path class="cls-2" d="M29.916,81.085c-.043.176-.488.209-.991.073s-.878-.391-.835-.567.488-.209.992-.073S29.959,80.909,29.916,81.085Z"/><path class="cls-2" d="M19.053,78.143c-.044.176-.488.21-.991.073s-.878-.391-.835-.567.487-.209.991-.073S19.1,77.967,19.053,78.143Z"/><path class="cls-18" d="M17.918,77.763s17.3-21.948,19.076-24.291,4.269-7.119,6.323-8.522C58.232,34.767,83.849,18.879,83.849,18.879"/><polyline class="cls-18" points="89.409 23.042 81.549 42.048 75.843 56.426 48.357 109.364"/><path class="cls-7" d="M42.823,44.7s1,.54,1.076,1a.719.719,0,0,1-.31.792l-.2.165s.136.109-.046.377a.68.68,0,0,1-.4.3.748.748,0,0,1-.259.49c-.219.136-.338.055-.338.055s-.128.428-.493.4a1.246,1.246,0,0,1-.986-.51c-.156-.311-.419-.942-.494-1.011a1.815,1.815,0,0,1,.353-1.536c.494-.6.947-.741,1.278-.676S42.823,44.7,42.823,44.7Z"/><path class="cls-18" d="M91.737,24.466s-25.854,12.159-39,24.428C48.3,53.038,29.082,80.518,29.082,80.518"/><path class="cls-17" d="M121.512,34.659l-32.377,93.27s.876,3.177,5.32,1.708c2-.659,29.939-91.267,29.939-91.267l.754-1.665S124.191,33.522,121.512,34.659Z"/><path class="cls-17" d="M24.421,138.13l44.941-119.2s2.414-3.3,4.327-2.848,2.516,1.191.986,4.6-12.16,29.359-12.16,29.359L35.821,123.386l-5.567,18.441a2.279,2.279,0,0,1-1.438.945,4.534,4.534,0,0,1-3.533-.452C24.01,141.663,23.106,140.842,24.421,138.13Z"/><path class="cls-17" d="M60.763,9.181l42.014,119.433,7.748,27.506a6.061,6.061,0,0,0,2.162,1.222,14.736,14.736,0,0,0,3.889.274c3.53-.04,3.035-2.633,3.035-2.633L70.638,21.093,66.349,9.51S62.293,6.908,60.763,9.181Z"/><path class="cls-17" d="M58.79,4.224l73.027,33.2s.829.623.951,1.171a2.48,2.48,0,0,1-.636,2.136c-.493.411-.99.341-1.52.555-2.445.986-51.078-21.9-51.078-21.9L58.791,11.043"/><path class="cls-17" d="M25.16,126.874c.137-.777.616-2.423,2.218-2.382,0,0,49.191,6.169,53.782,6.169s31.708,1.022,31.708,1.022,2.227,2.881,1.271,4.927-.663,2.262-2.958,1.808-65.412-6.394-65.412-6.394l-19.321-2.5S24.74,129.257,25.16,126.874Z"/><path class="cls-17" d="M61.073,7.683c0,2.039-1.113,3.693-2.486,3.693S56.1,9.722,56.1,7.683s1.114-3.694,2.488-3.694S61.073,5.642,61.073,7.683Z"/><path class="cls-17" d="M114.925,135.173c0,1.928-.921,3.491-2.057,3.491s-2.057-1.563-2.057-3.491.921-3.49,2.057-3.49S114.925,133.246,114.925,135.173Z"/><path class="cls-17" d="M153,122.643c0,1.226-.53,2.657-1.369,2.657s-1.671-1.431-1.671-2.657.681-2.218,1.52-2.218S153,121.418,153,122.643Z"/><path class="cls-17" d="M111.811,34.158l34.347,100.809s.309,2.394,4.632,1.686c2.594-.426-.046-5.9-.046-5.9l-33.565-94.38Z"/><polygon class="cls-17" points="118.986 41.531 121.562 32.917 125.682 34.24 121.341 48.097 118.986 41.531"/><path class="cls-17" d="M125.734,34.178c-.176.583-1.253.773-2.405.425s-1.943-1.1-1.767-1.686,1.253-.773,2.405-.425S125.91,33.6,125.734,34.178Z"/><polygon class="cls-17" points="72.75 10.228 69.663 18.438 72.429 26.051 78.572 12.077 72.75 10.228"/><path class="cls-17" d="M78.572,12.077c-.2.635-1.668.735-3.276.224s-2.748-1.438-2.546-2.073,1.668-.734,3.275-.224S78.773,11.443,78.572,12.077Z"/><path class="cls-19" d="M98.574,28.513l-.324-.372a13.64,13.64,0,0,0,1.99-2.168,3.885,3.885,0,0,0,.319-2.658l.328.1a3.39,3.39,0,0,1-.235,2.826,13.917,13.917,0,0,1-2.078,2.269Z"/><path class="cls-19" d="M89.16,24.021l-.378-.316a17.663,17.663,0,0,0,1.159-1.618,11.192,11.192,0,0,0,.922-3.215l.381.144a10.01,10.01,0,0,1-.888,3.337,17.827,17.827,0,0,1-1.2,1.668Z"/><path class="cls-7" d="M77.739,63.509a19.9,19.9,0,0,0-.329-3.193,20.78,20.78,0,0,0-1.1-2.6,15.638,15.638,0,0,1-1.443-1.487c.025-.1-.958-.77-1.108-.3s.786.907.786.907-.855-.341-1.013.018.49,1.119.49,1.119S73.1,56.92,72.957,57.5a1.386,1.386,0,0,0,.351,1.118s-.909-.831-.955-.076.968,1.722,1.081,1.972a5.9,5.9,0,0,0,.593,1.694c.492.828.831,1.285.831,1.285a16.179,16.179,0,0,0,.665,1.515c.178.267-.3.344.124,1.007s-.176-.2.454-.506,1.62-.51,1.679-.75S78.467,64.51,77.739,63.509Z"/></svg>