<svg id="word" xmlns="http://www.w3.org/2000/svg" xmlns:xlink="http://www.w3.org/1999/xlink" viewBox="0 0 160 160"><defs><style>.cls-1{fill:none;}.cls-2{clip-path:url(#clip-path);}.cls-3{fill:#90c9e1;}.cls-4{fill:#c0b399;}.cls-10,.cls-4,.cls-5,.cls-6,.cls-7,.cls-8,.cls-9{stroke:#9c4c9c;stroke-width:0.296px;}.cls-5{fill:#ada28b;}.cls-6{fill:#b49b8b;}.cls-7{fill:#b59989;}.cls-8{fill:#b4a890;}.cls-9{fill:#b8ab93;}.cls-10{fill:#b29d8a;}.cls-11{fill:#fff;}</style><clipPath id="clip-path"><rect class="cls-1" x="14" y="14" width="132" height="132"/></clipPath></defs><g class="cls-2"><path class="cls-3" d="M4.024,38.5c7.652,9.912,22.26,13.912,27.3,18.607S47.848,60.763,49.935,66.5,60.891,70.85,59.673,77.11s-4,14.782.348,19.478S83.5,110.5,96.367,115.021s36,9.565,40.868,10.261,34.2,5.47,34.2,5.47V92.24s-41.154-6.434-49.85-9.913S106.8,72.763,106.106,69.285s-3.3-12.521-3.3-12.521.521-9.913-12-13.739-16.347-8.173-24.868-12S16.135,13.84,6.68,14C1.637,14.085-3.628,28.591,4.024,38.5Z"/><path class="cls-4" d="M29.066,67.2s4.348-2.261,5.913-4.7,10.956-6.608,16.173-4.695,10.956,1.217,11.826,7.652,1.565,15.129.7,18.781-2.956,8.522-3.478,8.87-13.217-.348-15.477-.7S33.066,89.979,32.2,88.066s-.174-7.478-1.392-10.782S27.153,68.763,29.066,67.2Z"/><path class="cls-5" d="M8.893,70.5s.87,1.219,5.565,1.219,13.565-5.043,15.652.522S38.24,82.587,37.2,83.282s-16.651,3.741-18.39,4.61-3.13.348-3.478-1.565.174-2.26-3.478-4.521S1.981,74.8,8.893,70.5Z"/><path class="cls-4" d="M14.111,95.022s-1.566-5.564,2.956-7.13,9.043-2.086,13.738-4.173,8.87-4,11.652.7,6.956,6.783,2.261,8-14.608,3.3-18.434,3.3S13.763,97.979,14.111,95.022Z"/><path class="cls-6" d="M47.326,98.674s-7.13-4.521-5.217-6.956,13.217-3.478,18.086-.7,8.869,4.173,9.565,8,3.13,7.826-5.391,6.956a43.679,43.679,0,0,1-14.26-3.825Z"/><path class="cls-4" d="M63.5,109.457s-.174-6.261,4-6.783a39.656,39.656,0,0,1,13.565.348c4.347,1.043,10.086.174,13.216,4s2.087,4.347,4.174,5.565,5.043,1.739,1.913,3.3-6.782,3.13-11.13,2.782S61.76,116.587,63.5,109.457Z"/><path class="cls-4" d="M39.37,104.978s9.913-7.477,17.043-5.043,10.086,5.043,6.956,7.478-9.043,4.869-12.173,4.522-11.652,2.782-11.652-.522S39.37,104.978,39.37,104.978Z"/><path class="cls-4" d="M99.671,59.546s2.087,6.782,2.261,11.3-2.782,8.347-.174,11.13,14.087,2.956,17.565,2.956,10.086-1.043,9.39-6.782S127.67,64.415,123.5,62.5,99.671,55.025,99.671,59.546Z"/><path class="cls-4" d="M80.368,38.415A12.518,12.518,0,0,0,82.8,46.5c2.956,4.348,6.956,4.522,11.13,4.522s14.781.869,18.086.7,7.651-.7,5.043-4.869S101.581,33.333,98.628,33.113C84.02,32.024,80.368,38.415,80.368,38.415Z"/><path class="cls-4" d="M-9.888,48.416S7.676,44.069,12.372,46.5a46.319,46.319,0,0,1,7.081,4.711c3.039,2.44,5.538,5.1,5.44,6.767-.174,2.956-2.783,3.13-8.522,2.782S-8.57,60.578-9.193,60.5C-13.366,59.979-20.149,52.242-9.888,48.416Z"/><path class="cls-4" d="M28.371,47.894c4.869.348,8.347,1.74,8.347,3.826S25.24,55.546,24.545,55.546s-10.332-4.807-8.739-6.7C21.415,42.2,28.371,47.894,28.371,47.894Z"/><path class="cls-7" d="M25.588,63.024s-8.521-4.869-3.478-7.652,11.826-4.521,14.956-1.739,5.217,3.826,4,5.391-5.913,6.087-8.348,6.261S25.588,63.024,25.588,63.024Z"/><path class="cls-4" d="M11.85,62.329s8.347-4,14.434-.7,12,8.173,7.652,9.391-10.435,0-12.869-.174-4.783.824-8.261,1.346-5.934-1.859-5.825-2.911C7.459,64.631,11.85,62.329,11.85,62.329Z"/><path class="cls-8" d="M3.676,42.677S12.719,37.634,16.2,39.9s5.913,6.26,5.391,7.652-2.782,1.739-6.608,1.043S1.763,45.982,3.676,42.677Z"/><path class="cls-4" d="M126.105,80.762s5.217,4.348,4.7,6.261-4.521,1.565-6.608.7-7.652-1.392-6.782-4A5.811,5.811,0,0,1,126.105,80.762Z"/><path class="cls-9" d="M136.539,90.153s-7.809.526-7.3-1.739c1.087-4.871,3.652-5.391,8.348-4.7s8,3.13,6.956,4.869S136.539,90.153,136.539,90.153Z"/><path class="cls-4" d="M130.626,80.067s-6.912-.524-5,2.954,6.26,1.783,9.912,1.957,7.739,2.087,9.652,1.565,9.652-1.044,4.391-5.955c-2.507-2.34-9.565-2.782-11.652-2.956S130.8,79.2,130.626,80.067Z"/><path class="cls-4" d="M105.8,49.11s-11.478,0-9.783,4.871c1.212,3.48-1.391,5.391,4.7,7.3s8.173,2.087,9.043.7S112.845,52.632,105.8,49.11Z"/><path class="cls-5" d="M77.846,35.286s-4.521-1.567-3.3,4.522c.738,3.689,4.174,4,7.3,4s4.87-2.087,4-4S79.412,35.808,77.846,35.286Z"/><path class="cls-10" d="M153.756,85.11s-11.478.348-11.13,3.652,13.043,4.521,17.216,5.043,6.522.694,6.7-.176S169.407,87.719,153.756,85.11Z"/><path class="cls-11" d="M61.065,59.981a8.07,8.07,0,0,1,3.826,5.13,71.538,71.538,0,0,1,1.565,13.738c0,3.913-.174,8.87-.174,9.826s2.782-.261,3.739-.522a16.748,16.748,0,0,1,2.695-.348s-2.695-7.738-3.043-11.738S67.934,65.98,66.8,64.328,61.065,59.981,61.065,59.981Z"/><path class="cls-11" d="M66.108,60.85s3.043,0,3.913,3.826.435,6.956.869,8.522a30.672,30.672,0,0,1,.7,3.652s.522-8.261.087-11.217-1.3-3.391-2.609-4.348A3.611,3.611,0,0,0,66.108,60.85Z"/><path class="cls-11" d="M67.238,58.068s6.174.348,6.783,5.739S75.5,73.284,75.76,77.458a28.2,28.2,0,0,0,.869,6.087s.087-7.391,0-12,0-7.3-.869-9.39S71.325,57.807,67.238,58.068Z"/><path class="cls-11" d="M74.629,57.111s5.087,0,7.174,2.433,3,3.48,2.217,8.349,1.043,15.652,1.043,15.652L80.716,85.2s-.957-9.826-.957-14.434a43.806,43.806,0,0,0-1.391-10.7C77.933,58.677,74.629,57.111,74.629,57.111Z"/><path class="cls-11" d="M62.63,91.023s0-2.261,1.478-1.131,1.565-1.826,2.956-1.913a13.858,13.858,0,0,0,2.609-.434L72.89,84.5s1.652-2.956,2.783-.521,1.913,4,2.695,2.782.348-3.565,3.13-3.826,3.826-2.435,5.131-.348,1.391,1.739,2,1.044,1.912-4.435,3.3-3.739,1.13-1.826,2.174-.348,1.043,1.3,2.608.87,3.478-2.087,3.565-.348.087,2.869,2,3.478,2.522.695,5.478,1.391,6.7.609,6.869,1.826-6.782,0-9.13.087,3.217,1.565,4.087,2.348,2,1.217-2.7.348S92.628,86.588,94.715,88.5s9.13,2.956,6.609,3.478-1.392.522-5.392-.087S82.02,89.023,84.89,90.5s9.3,2.261,6.434,2.695-8.26.174-4.782.957,8,2.174,4.608,2.435-3.391-.783-7.739-.957-6.608.87-5.825,1.739,2.7,2.174-.261,1.218a50.221,50.221,0,0,0-6-1.913c-2.174-.435-3.13-2.087-4.956-2.87A14.242,14.242,0,0,1,62.63,91.023Z"/><path class="cls-11" d="M83.151,56.068s4.434,1.3,4.869,5.391c.507,4.763.448,4.754.782,21.825l2.261-2.522S89.15,62.415,88.889,60.329,83.151,56.068,83.151,56.068Z"/><path class="cls-11" d="M87.411,53.545s6.348.262,6.869,8.088S95.5,80.241,95.5,80.241c.585-17.381.641-17.326.521-20.086-.087-2,.435-4.522-.608-5.044S87.411,53.545,87.411,53.545Z"/></g></svg>