<svg id="word" xmlns="http://www.w3.org/2000/svg" viewBox="0 0 160 160"><defs><style>.cls-1{fill:#edb55e;}.cls-1,.cls-3,.cls-4,.cls-5,.cls-7{stroke:#9c4c9c;stroke-width:0.733px;}.cls-2{fill:#9c4c9c;}.cls-3{fill:#fff;}.cls-4{fill:none;}.cls-5,.cls-6{fill:#ac5a33;}.cls-7{fill:#716558;}</style></defs><path class="cls-1" d="M44.62,10.24s-.555-4.022-.583-4.419a.97.97,0,0,0-.515-.738c-.188-.12-1.143-1.447-.479-1.891s2.547-1.9,3.107-.772a2.229,2.229,0,0,1,0,2.309,15.62,15.62,0,0,0-.236,3.322L46.105,9.7Z"/><path class="cls-1" d="M43.846,11.622s-3.6-4.215-3.908-4.8S37.7,5.736,37.094,5.378a3.68,3.68,0,0,0-1.63-.327A33.75,33.75,0,0,1,37,9.356c.226,1.223-.268,1.438.453,2.684s3.622,2.513,3.622,2.513l1.67-1.826Z"/><path class="cls-1" d="M65.1,92.158s.46,6.173,1.022,8.607,4.438,13.195,4.234,14.871-.724,5.814.036,7.466,1.125,7.815,1.2,8.963.986,11.814.261,13.687-1.245,2.135-1.4,3.1-.935,4.358-.977,4.508a4.021,4.021,0,0,0,2.943,1.005,2.864,2.864,0,0,0,2.529-2.493,3.964,3.964,0,0,1,1.09-2.2c.507-.5,1.459-1.1.815-2.388s-1.537-11.167-1.153-13.1-.015-8.431.277-10.655.866-2.978.522-5.13-.486-4.215-.486-4.215l-.083-10.467s-5.246-8.072-6.877-9.408-3.8-3.05-3.8-3.05Z"/><path class="cls-1" d="M93.773,98.841s6.442,7.741,6.827,9.73,4.784,9.221,5.613,10.083,2.55,13.109,2.853,15.466,1.528,6.755.912,8.393a44.98,44.98,0,0,0-1.594,5.746c-.284,1.433-.286,2.967.245,2.908s4.06.708,4.685-.585a5.275,5.275,0,0,0,.819-3.192c-.133-1.155,1.324-4.58,1.488-5.124a3.78,3.78,0,0,0-.407-1.854c-.123-.344-2.062-8.031-2.382-9.677s-1.512-9.918-1.512-9.918,1.709-6.575.69-7.623a21.349,21.349,0,0,1-3.914-4.263c-1.2-2.013-1.843-8.93-1.843-8.93l-2.527-8.156-9.107,4.863Z"/><path class="cls-1" d="M54.815,10.791A18.15,18.15,0,0,0,50.18,9.217c-1.584-.1-2.179-.472-3.615.068S42.313,12,42.023,12.914s-1.647,2.32-1.727,3.364-.942,4.94-1.571,5.517-3.486,2.941-3.616,3.249-.049,2.145.792,2.471,1.688-.133,1.8.022-1.209,1.643.933,2.012,4.334-1.522,4.843-1.836,2.453-1.648,3.632-1.478,1.765,2.457,1.765,2.457S52.785,40.74,53.5,43.107s3.3,12.105,4.528,15.311,6.327,11.394,6.677,14.1A35.291,35.291,0,0,1,63.9,83.253c-.753,2.707-.979,5.225-.111,6.912s5.246,7.278,7.763,8.871,5.1,8.022,5.212,9.679,2.961,8.591,2.825,8.87a16.531,16.531,0,0,0-.08,6.483c.646,2.388,2.157,1.874,1.469,3.787s-.25,16.7-.25,16.7-.783,3.407-1.2,4.4a17.114,17.114,0,0,0-1.354,4.188l-.061,1.1a17.826,17.826,0,0,0,2.734.991c1.049.224,3.209-.351,3.392-1.008a15.777,15.777,0,0,0,.034-2.733,33.589,33.589,0,0,1,1.318-3.7c.1-.346-.894-1.276-.664-1.745s-.994-15.883-.88-17.21,1.086-3.927,1.163-6.131-1.09-5.4-.852-6.847.271-9.9.271-9.9l.369-5.163A7.651,7.651,0,0,0,89,100.805c1.621-.651,8.386-1.663,9.849-2.346s4.25-2.47,4.25-2.47,3.568,8,4.445,9.192,3.384,3.547,4.771,5.522,6.033,9.149,6.344,11.358,3.1,16.106,3.211,18.283-1.065,4.773-1.287,5.679a9,9,0,0,1-.764,1.882s-.914,3.15-.717,3.574,2.542,1.2,3.62,1.192,2.471.224,2.916-.8.132-1.339,0-2.594-.71-2.627.531-3.568,1.432-1.041,1.635-2.183a3.552,3.552,0,0,0-.219-2.517c-.393-.883-3.076-11.368-3.348-12.161s-1.63-6.84-1.3-8.419,1.9-5.023,1.839-5.728a16.537,16.537,0,0,0-2.594-4.375,19.1,19.1,0,0,1-2.633-8.506c.058-3.251.569-10.468.253-12.356s-2.547-10.177-4.752-13.6-2.8-5.836-7.357-6.732-10.464-3.234-13.835-3.6a16.759,16.759,0,0,1-6.734-1.963c-.861-.6-9.211-5.994-10.734-6.491s-7.629-8.383-7.629-8.383S62.869,39.8,62.172,37.559s-5.909-14.33-6.007-14.839.173-.562.075-2.141-.384-6.63-.384-6.63,4.072-.819,5.45-2.721S62.837,6.872,63.2,6.581s.608-1.981.608-1.981a26.1,26.1,0,0,1-3.937,1.591c-2.412.776-4.814,2.315-4.707,2.967A3.633,3.633,0,0,1,54.815,10.791Z"/><path class="cls-1" d="M50.936,9.4s1.22-2.545,1.436-2.907a1.79,1.79,0,0,0,.384-1.119c.018-.6-1.075-2.816-.07-3.128a3.5,3.5,0,0,1,2.7.363c.836.406,1.175,1.9.48,2.332s-1.178.16-1.657,1.175-1.45,4.369-1.45,4.369"/><path class="cls-2" d="M37.593,27.192c.674-.063,1.357-.143,2.022-.258a10.876,10.876,0,0,0,1.935-.585c.643-.236,1.3-.459,1.907-.751.561-.374,1.118-.787,1.681-1.181-.528.444-1.04.9-1.588,1.338-.607.362-1.236.638-1.862.933l-.941.429a5.815,5.815,0,0,1-1.012.353c-.68.181-1.357.321-2.046.448Z"/><path class="cls-2" d="M40.559,23.921a1.078,1.078,0,0,0-.614.426,2.081,2.081,0,0,0-.28.605c-.077.228-.154.5-.2.708a.75.75,0,0,0,.148.689c-.339.052-.673-.307-.719-.659a2.03,2.03,0,0,1,.077-.966,1.488,1.488,0,0,1,.615-.818A.845.845,0,0,1,40.559,23.921Z"/><path class="cls-2" d="M36.185,24.047c.106-.12.314-.023.417.069a.888.888,0,0,1,.22.35,1.83,1.83,0,0,1,.155.72,1.032,1.032,0,0,1-.138.467.732.732,0,0,1-.427.312.859.859,0,0,1-.765-.2,2.3,2.3,0,0,0,.531-.318c.068-.1.055-.125.068-.289s-.017-.379.016-.585a2.46,2.46,0,0,0,.031-.275C36.3,24.2,36.308,24.115,36.185,24.047Z"/><path class="cls-3" d="M48.548,17.734s-.01-2.368,1.616-2.824,2.718-.041,2.767.308A5.014,5.014,0,0,1,50.754,17.5C49.9,17.838,48.537,18.131,48.548,17.734Z"/><path class="cls-1" d="M56.212,11.019s-1.329-1.643,1.695-2.378a9.967,9.967,0,0,0,4.634-2.45"/><path class="cls-1" d="M84.955,101.067,85,98.812a12.467,12.467,0,0,0-.161-2.884"/><path class="cls-1" d="M103.118,96.127a14.447,14.447,0,0,1-.562-5.637"/><path class="cls-4" d="M113.7,73.615,116.1,74.84A11.265,11.265,0,0,1,118.027,76a8.489,8.489,0,0,1,2.449,3.682c1.848,4.817,1.41,10.157,1.232,15.313a3.489,3.489,0,0,0,.091,1.159,3.536,3.536,0,0,0,.672,1.107l1.392,1.764"/><path class="cls-5" d="M124.711,99.369s4.384,5.859,3.5,8.782-2.032,4.585-1.694,5.474-1.649-.552-1.609-3.473.778-3.811-.2-6.8-1.169-3.948-1.169-3.948S123.26,98.457,124.711,99.369Z"/><path class="cls-6" d="M74.021,119.542a1.244,1.244,0,0,0-.037-.25c-.261-.694-.536-1.382-.79-2.079-.188-.514-.377-1.031-.519-1.56-.155-.576-.267-1.164-.373-1.751a.326.326,0,0,0-.411-.293c-.321.031-.641.083-.959.143a.275.275,0,0,0-.242.389,11.335,11.335,0,0,1,.674,3.1c-.013.575.248,1.151.277,1.731a1.492,1.492,0,0,0,.776,1.216,1.181,1.181,0,0,0,1.153.2C73.932,120.227,73.975,119.88,74.021,119.542Zm1.745-6.125a17.753,17.753,0,0,0-.708-3.484.214.214,0,0,0-.364-.131,1.465,1.465,0,0,0-.45.443c-.514,1.027-1,2.065-1.49,3.1a.454.454,0,0,0-.019.344c.257.521.526,1.037.818,1.539a1.059,1.059,0,0,0,.381.319c.774.468,1.4.219,1.59-.651C75.632,114.412,75.687,113.912,75.766,113.417Zm-1.877,10.591c-.068-.489-.127-1.037-.225-1.578a.771.771,0,0,0-.673-.659c-.366-.056-.739-.063-1.107-.108-.32-.039-.413.095-.349.392.155.714.272,1.438.468,2.14.137.493.4.928,1.022.945a.852.852,0,0,1,.273.087c.328.13.422.085.477-.266C73.821,124.665,73.847,124.367,73.889,124.008Zm.041,4.278H73.9c.021.419.045.839.062,1.258.016.358.32.443.562.524.114.039.328-.092.442-.2a3.015,3.015,0,0,0,.408-2.947.83.83,0,0,0-.968-.358.606.606,0,0,0-.466.646C73.915,127.565,73.93,127.926,73.93,128.286Z"/><path class="cls-6" d="M58.587,58.194c.507,0,.964.011,1.419-.006a2.356,2.356,0,0,0,.467-.124c.3-.078.593-.169.9-.225.967-.18,1.936-.345,2.9-.516a2.3,2.3,0,0,1,.249-.039c.65-.052.859.1,1.028.732.4,1.483.808,2.962,1.195,4.447.245.94.46,1.888.687,2.833a.284.284,0,0,1,.017.106c-.1.785-.169,1.578-.331,2.351a1.539,1.539,0,0,1-1.05,1.143c-.173.063-.3.255-.438.4-.347.376-.685.76-1.095,1.218.258,1.841-.37-.442-.566-.927q-1.338-2.566-2.658-5.143c-.561-1.1-1.129-2.195-1.64-3.317-.387-.848-.691-1.734-1.027-2.6A2.142,2.142,0,0,1,58.587,58.194Z"/><path class="cls-6" d="M66.662,99.057q.291.375.581.749a9.208,9.208,0,0,0,2.525,2.216,1.4,1.4,0,0,1,.7,1.163c.147,1.464.329,2.924.485,4.387.133,1.235.251,2.473.369,3.71a1.87,1.87,0,0,1-.022.466c-.072.468-.255.578-.689.389a4.694,4.694,0,0,1-.753-.419.615.615,0,0,1-.19-.326c-.376-1.284-.756-2.568-1.109-3.858-.194-.712-.325-1.441-.512-2.156-.163-.624-.392-1.232-.542-1.859-.279-1.164-.526-2.335-.776-3.505-.066-.308-.1-.624-.143-.936Z"/><path class="cls-6" d="M57.107,40.051a11.211,11.211,0,0,1-.015,1.312.876.876,0,0,1-.331.537,3.421,3.421,0,0,1-1.964.6c-.689.01-1.232-.194-1.395-.945-.194-.894-.444-1.776-.677-2.662-.048-.181-.142-.35-.187-.531a1.168,1.168,0,0,1,.542-1.412,9.183,9.183,0,0,1,1.736-.877,3.878,3.878,0,0,1,1.382-.082c.114,0,.269.223.32.373A9.179,9.179,0,0,1,57.107,40.051Z"/><path class="cls-6" d="M65.845,45.283c-.723-.061-1.447-.119-2.17-.187-.214-.02-.426-.1-.638-.1a1.7,1.7,0,0,1-1.457-.8c-.356-.512-.619-1.089-.924-1.637a13.5,13.5,0,0,1-.946-1.73,2.307,2.307,0,0,1,.187-2.093.418.418,0,0,1,.192-.152c.505-.2,1.02-.381,1.519-.6.277-.119.4-.035.532.216.636,1.238,1.272,2.477,1.941,3.7.484.883,1.023,1.736,1.529,2.607.121.209.207.438.31.658Z"/><path class="cls-6" d="M58.842,48.323c-.082,1.028-.145,1.829-.212,2.63a.821.821,0,0,1-.565.793c-.2.069-.4.155-.6.228-.507.185-.712.111-.871-.409-.315-1.033-.6-2.076-.889-3.115-.169-.6-.34-1.2-.5-1.8a7.278,7.278,0,0,1-.2-1.02.435.435,0,0,1,.18-.357c.263-.131.566-.18.833-.3a4.523,4.523,0,0,0,.681-.433,7.71,7.71,0,0,1,.912-.668.547.547,0,0,1,.859.394,7.246,7.246,0,0,1,.267,1.41C58.8,46.625,58.814,47.586,58.842,48.323Z"/><path class="cls-6" d="M70.427,52.705H67.883c-.18,0-.36,0-.54.006a1.243,1.243,0,0,1-1.086-.828c-.26-.768-.529-1.538-.861-2.277a3.105,3.105,0,0,1-.132-2.1.489.489,0,0,1,.548-.374,7.427,7.427,0,0,1,1.037.088.8.8,0,0,1,.463.326c.895,1.4,1.769,2.816,2.652,4.225.174.278.36.547.54.82Z"/><path class="cls-6" d="M73.206,101.227a2.044,2.044,0,0,1,.673.845c.189.588.476,1.146.657,1.737a9.867,9.867,0,0,1,.787,3.37c0,.036,0,.072,0,.108-.036.707-.3.879-.971.665a2.134,2.134,0,0,1-1.081-.9,7.555,7.555,0,0,1-.837-1.73,1.953,1.953,0,0,1,.045-.955c.188-.961.4-1.916.613-2.872A1.826,1.826,0,0,1,73.206,101.227Z"/><path class="cls-6" d="M65.368,92.148c-.283-.573-.881-1.386-1.151-1.965a7.12,7.12,0,0,1-.793-3.082,25.72,25.72,0,0,1,.566-3.195c.1-.722.41-.941.554-1.656.035-.17.1-.335.147-.5l.111-.02a2.291,2.291,0,0,1,.261.552c.139.787.2,1.59.38,2.367a6.239,6.239,0,0,1-.083,2.3,9.193,9.193,0,0,0,.148,2.664c.094.609.188,1.22.229,1.833a2,2,0,0,1-.2.667Z"/><path class="cls-6" d="M57.993,28.361c.886,2.176,1.74,4.268,2.588,6.363.022.055-.014.133-.025.217a2.718,2.718,0,0,1-1.775-.861,3.921,3.921,0,0,0-.881-.707,3.761,3.761,0,0,1-1.3-1.682,1.3,1.3,0,0,1,.051-.8,6.141,6.141,0,0,1,.475-1.14C57.377,29.29,57.68,28.857,57.993,28.361Z"/><path class="cls-6" d="M54.309,32.522c.051.332-.137.447-.384.585-.352.2-.665.46-1,.685-.315.211-.633.417-.959.61-.12.072-.259.129-.341-.082-.277-.713-.57-1.42-.838-2.137-.035-.092,0-.3.063-.326.771-.352,1.139-1.108,1.7-1.664a2.044,2.044,0,0,1,.271-.228c.44-.3.671-.245.831.257C53.9,30.981,54.093,31.755,54.309,32.522Z"/><path class="cls-6" d="M55.286,29.193,54.6,25.808l-.13-.036c.187-.113.367-.24.562-.336.439-.217.881-.427,1.331-.617.089-.038.3,0,.319.046a7.5,7.5,0,0,1,.48,1.49c.035.238-.185.544-.35.776-.35.49-.754.941-1.106,1.429a3.62,3.62,0,0,0-.3.678Z"/><path class="cls-6" d="M87.942,65.174c-.6-.168-1.193-.359-1.8-.5a4.687,4.687,0,0,1-1.838-1.015,2.855,2.855,0,0,1-.943-1.96c1.715.608,2.956,2.113,4.611,3.348Z"/><path class="cls-6" d="M66.3,95.408c-.04-.128-.071-.26-.121-.384-.081-.2-.176-.389-.264-.583-.025-.054-.034-.141-.074-.158-.552-.227-.3-.687-.364-1.056l.1-.056c.242.314.5.615.723.943a10.715,10.715,0,0,0,2.062,2.368,2.609,2.609,0,0,1,.423.483.217.217,0,0,1-.028.212c-.162.118-.268.345-.548.248a2.1,2.1,0,0,1-1.141-.879c-.248-.391-.543-.752-.817-1.126Z"/><path class="cls-6" d="M81.164,60.185a5.627,5.627,0,0,1-2.087-.245c-.29-.132-.6-.219-.879-.376a.931.931,0,0,1-.32-1.308l3.335,1.8Z"/><path class="cls-6" d="M55.915,22.658a.949.949,0,0,1-1.066-.815,2.13,2.13,0,0,1,.273-1.3.9.9,0,0,1,.436-.308c.223-.1.35.038.353.254C55.92,21.2,55.915,21.921,55.915,22.658Z"/><path class="cls-6" d="M59.053,37.964c-.4,0-.577-.239-.484-.526.04-.122.1-.239.132-.362.163-.573.277-.631.779-.319a1.829,1.829,0,0,1,.479.474.314.314,0,0,1-.145.525A7.17,7.17,0,0,1,59.053,37.964Z"/><path class="cls-6" d="M75.9,122.742c-.157.211-.259.485-.428.536-.151.046-.421-.111-.559-.255a1.211,1.211,0,0,1,.16-1.537.317.317,0,0,1,.3.068C75.556,121.921,75.709,122.3,75.9,122.742Z"/><path class="cls-6" d="M50.3,29.75a1.862,1.862,0,0,1,.332-.376c.309-.2.653-.348.958-.553a.277.277,0,0,1,.446.075.327.327,0,0,1-.022.5,1.819,1.819,0,0,1-.232.167c-.282.174-.561.356-.854.511a.524.524,0,0,1-.389.069C50.437,30.1,50.4,29.927,50.3,29.75Z"/><path class="cls-6" d="M75.443,119.063a1.641,1.641,0,0,1-.318-.44c-.124-.435-.2-.882-.289-1.326-.063-.334.157-.409.425-.433.3-.026.254.2.257.366.01.583,0,1.166,0,1.75Z"/><path class="cls-6" d="M85.732,71.87a1.09,1.09,0,0,0-.219.065c-.456.282-.913.563-1.362.855s-.873.627-1.336.894a10.092,10.092,0,0,0-3.5,2.622c-.4.557-.479.625-.179,1.248.525,1.087,1.039,2.179,1.578,3.258.476.954.949,1.911,1.481,2.833a8.883,8.883,0,0,0,1.034,1.321.465.465,0,0,0,.7.068A4.863,4.863,0,0,0,85.5,83.013c.545-1.338,1.247-2.6,1.749-3.966a3.153,3.153,0,0,0,.039-2.055c-.125-.446-.367-.859-.5-1.3C86.425,74.435,86.091,73.173,85.732,71.87Z"/><path class="cls-6" d="M102.147,83.743c0-.74-.089-1.06-.58-1.3-.658-.328-1.363-.56-2.047-.837-.255-.1-.357.032-.461.241-.311.631-.624,1.261-.969,1.874A6.635,6.635,0,0,1,96.6,85.763a13,13,0,0,1-1.422,1.017c-.552.331-.635.486-.152.921a16.314,16.314,0,0,0,2,1.552,6.794,6.794,0,0,1,1.6,1.423,4.866,4.866,0,0,0,.69.671c.241.2.44.154.609-.138a21.213,21.213,0,0,0,1.425-3.082A15.956,15.956,0,0,0,102.147,83.743Z"/><path class="cls-6" d="M81.817,71.209c.448-.082,1.192-.2,1.927-.363.24-.051.458-.211.369-.519a.434.434,0,0,1,.244-.563c.225-.125.316-.284.107-.51-.088-.1-.146-.22-.236-.313-.524-.542-1.041-1.091-1.587-1.61a1.772,1.772,0,0,0-.624-.318,2.617,2.617,0,0,0-.632-.134,10.454,10.454,0,0,0-1.6-.117,6.326,6.326,0,0,0-1.618.308,1.474,1.474,0,0,0-1,.735c-.253.567-.495,1.142-.79,1.687a4.6,4.6,0,0,0-.141,3.73c.227.726.448.873,1.2.908.168.008.337.01.5.031a.733.733,0,0,0,.761-.369,14.113,14.113,0,0,0,.9-1.509C79.987,71.441,80.644,71.152,81.817,71.209Z"/><path class="cls-6" d="M87.121,91.3a2.157,2.157,0,0,0,1.825-.652,6.915,6.915,0,0,0,1.989-2.139,1.691,1.691,0,0,1,.206-.294c.765-.965.616-.788.089-1.728a.442.442,0,0,0-.092-.11c-.605-.552-1.194-1.124-1.827-1.641a.881.881,0,0,0-1.006-.158,3.532,3.532,0,0,0-.932.82,7.337,7.337,0,0,1-2.815,2.111c-.231.108-.333.224-.3.449a11.076,11.076,0,0,0,.3,1.588,2.7,2.7,0,0,0,.624,1.1A2.294,2.294,0,0,0,87.121,91.3Z"/><path class="cls-6" d="M76.171,80.43a1.584,1.584,0,0,0-1.1,1.63c.007.309-.046.619-.048.929a7.461,7.461,0,0,0,.3,2.584,17.723,17.723,0,0,1,.749,3.028c.149.948.169,1.051,1.131,1.064a1.081,1.081,0,0,0,.18,0q1.151-.183,2.3-.371c.6-.1.579-.113.6-.73A8.676,8.676,0,0,0,78.427,83.6c-.478-.742-1.016-1.445-1.529-2.164C76.657,81.1,76.412,80.762,76.171,80.43Z"/><path class="cls-6" d="M113.141,91.67l.157.009a5.088,5.088,0,0,0,.287-1.076c.057-1.174.1-2.352.066-3.526a6.184,6.184,0,0,0-.292-2.122,2.974,2.974,0,0,0-3.139-2.072c-.241.015-.34.091-.364.33-.113,1.132-.257,2.262-.351,3.4-.047.568-.008,1.143-.008,1.739.062.013.153.041.245.052a2.566,2.566,0,0,1,2.119,1.662A6.347,6.347,0,0,0,113.141,91.67Z"/><path class="cls-6" d="M95.546,79.812l-.085-.026a1.106,1.106,0,0,0-.555-.988,15.693,15.693,0,0,0-3.11-1.856.933.933,0,0,0-1.269.2,3.414,3.414,0,0,0-.468.956c-.136.4-.182.835-.309,1.24-.187.593-.419,1.172-.615,1.762a.387.387,0,0,0,.047.314c.2.261.437.5.658.749a7.433,7.433,0,0,0,1.7,1.412,2.861,2.861,0,0,0,2.64-.067.446.446,0,0,0,.227-.218,7.765,7.765,0,0,0,.425-1C95.085,81.466,95.309,80.637,95.546,79.812Z"/><path class="cls-6" d="M70.789,85.226a8.61,8.61,0,0,0-1.57.29c-.561.194-1.225.385-1.328,1.15a4.4,4.4,0,0,0-.082.925c.094,1.159.216,2.316.335,3.472A1.715,1.715,0,0,0,69.409,92.6a.629.629,0,0,0,.72-.142c.478-.467.975-.915,1.449-1.386Q72.4,90.25,73.2,89.4a.441.441,0,0,0,.095-.6,12.289,12.289,0,0,1-1.076-2.758C71.977,85.241,71.981,85.24,70.789,85.226Z"/><path class="cls-6" d="M87.91,69.029a7.412,7.412,0,0,1,.3.955c.162.97.292,1.945.439,2.918a1.573,1.573,0,0,0,1.25,1.4q1.506.4,3,.849c.656.2.681.223.873-.46a2.944,2.944,0,0,0-.351-2.735,7.124,7.124,0,0,0-1.6-1.768,12.251,12.251,0,0,0-1.547-.817,1.5,1.5,0,0,0-.547-.14c-.371-.025-.745,0-1.115-.028A4.67,4.67,0,0,1,87.91,69.029Z"/><path class="cls-6" d="M78.617,64.666c.271,0,.439,0,.607,0,.214.007.289-.1.238-.3a1.946,1.946,0,0,0-.813-1.3c-.473-.273-.979-.49-1.466-.74-.691-.355-1.381-.712-2.066-1.078a.616.616,0,0,0-.859.144,7.662,7.662,0,0,0-.723.792,22.981,22.981,0,0,0-1.169,2.09.879.879,0,0,0,.194.974c.112.125.226.249.328.382.349.457.684.926,1.047,1.37.1.117.341.267.409.225a10.422,10.422,0,0,0,1.307-.926A15.77,15.77,0,0,1,76.8,65.181,2.884,2.884,0,0,1,78.617,64.666Z"/><path class="cls-6" d="M68.63,77.26A12.086,12.086,0,0,0,71.6,78.672a2.915,2.915,0,0,0,1.484.143c.344-.052.69-.095,1.033-.149a1.286,1.286,0,0,0,.989-.582,2.113,2.113,0,0,0-.438-2.517c-.324-.314-.64-.639-.975-.941a.405.405,0,0,0-.336-.1,15.319,15.319,0,0,0-1.344.747c-.442.279-.839.632-1.291.893C70.055,76.55,69.356,76.884,68.63,77.26Z"/><path class="cls-6" d="M111.054,92.856c-.047.095-.066.208-.124.236-.385.184-.36.531-.353.862.013.689.041,1.379.066,2.069.021.582.033,1.164.076,1.745a.907.907,0,0,0,.19.523c.465.494.945.977,1.454,1.426a2.377,2.377,0,0,0,1.4.659c.228.016.377-.025.417-.271a2.529,2.529,0,0,0,.069-.388,17.729,17.729,0,0,0-.412-4.351A3.146,3.146,0,0,0,111.054,92.856Z"/><path class="cls-6" d="M116.944,100.032l-.136.027a5.53,5.53,0,0,0-.3.908c-.144.947-.262,1.9-.363,2.851a2.688,2.688,0,0,0,.048.917,11.526,11.526,0,0,0,.412,1.111,4.9,4.9,0,0,0,1.253,1.862c.3.29.508.229.663-.165a2.325,2.325,0,0,0,.154-.552,8.762,8.762,0,0,0-.688-4.838C117.662,101.445,117.023,100.888,116.944,100.032Z"/><path class="cls-6" d="M92.3,94.243a12.887,12.887,0,0,1,1.468-.254,4.314,4.314,0,0,0,2.136-.86c.371-.241.367-.3.089-.634-.3-.369-.594-.753-.911-1.111a7.415,7.415,0,0,0-1-1.019c-.522-.4-.842-.326-1.236.174-.22.28-.414.579-.615.873q-.6.88-1.2,1.765c-.207.307-.19.471.142.631C91.558,94,91.975,94.122,92.3,94.243Z"/><path class="cls-6" d="M61.061,50.563h-.043c0,.66,0,1.32,0,1.98a1.352,1.352,0,0,0,1.121,1.409,8.884,8.884,0,0,1,1.495.594,9.089,9.089,0,0,1,1.092.742c.193.137.309.106.342-.135a5.582,5.582,0,0,0,.139-1.138,21.578,21.578,0,0,0-.332-2.922,3.587,3.587,0,0,0-2.347-2.74c-.314-.118-.628-.235-.932-.374-.432-.2-.511-.176-.529.316C61.041,49.05,61.061,49.807,61.061,50.563Z"/><path class="cls-6" d="M77.692,95.514a1.911,1.911,0,0,1,.287,0,.483.483,0,0,0,.636-.443c.106-.5.261-.988.389-1.483a3.713,3.713,0,0,0,.112-.559c.027-.263-.071-.4-.37-.448-.957-.146-1.906-.342-2.862-.493a1.971,1.971,0,0,0-1.032-.017,6.8,6.8,0,0,0-1.306.93.476.476,0,0,0-.132.378,4.793,4.793,0,0,0,.229.938c.177.489.421.925,1.052.906a4.425,4.425,0,0,1,.608.033C76.111,95.341,76.919,95.43,77.692,95.514Z"/><path class="cls-6" d="M96.205,75.757c.043.49.075.981.136,1.468a1.346,1.346,0,0,0,.176.427,2.639,2.639,0,0,0,1.667,1.263.585.585,0,0,0,.727-.192c.265-.339.511-.692.768-1.037a.632.632,0,0,0,.067-.708c-.412-.817-.818-1.637-1.244-2.447a2.621,2.621,0,0,0-.459-.639c-.34-.34-.748-.554-1.2.018A2.671,2.671,0,0,0,96.205,75.757Z"/><path class="cls-6" d="M110.522,105.123a15.093,15.093,0,0,0,1.589,3.416c.5.686.85,1.463,1.836,1.6.54.074,1.061.284,1.6.4.414.087.556-.03.572-.459a2.982,2.982,0,0,0-.1-.741,4.6,4.6,0,0,0-2.326-3.2,10.949,10.949,0,0,0-1.974-.627C111.331,105.386,110.95,105.26,110.522,105.123Z"/><path class="cls-6" d="M82.656,90.823l-.177.052c-.134.663-.608,1.14-.785,1.827a4.5,4.5,0,0,0,.482,3.242.956.956,0,0,0,1.46.275c.342-.413.674-.835,1-1.261.2-.262.384-.538.521-.731-.566-.811-1.081-1.57-1.618-2.312C83.266,91.536,82.952,91.186,82.656,90.823Z"/><path class="cls-6" d="M67.822,74.035c.07.153.12.456.236.483a1.326,1.326,0,0,0,.813-.05c.712-.33,1.389-.738,2.093-1.088a5.561,5.561,0,0,0,2.422-2.463.539.539,0,0,0-.2-.826,7.856,7.856,0,0,0-1.454-.85,1.3,1.3,0,0,0-1.683.328c-.177.308-.405.587-.573.9-.5.922-.985,1.849-1.453,2.785A4,4,0,0,0,67.822,74.035Z"/><path class="cls-6" d="M67.753,81.5h.036c-.016.287-.041.574-.047.862-.014.652.279.977.922.948.895-.041,1.789-.125,2.683-.2a.581.581,0,0,0,.341-.095A.916.916,0,0,0,72,82.549a1.293,1.293,0,0,0-.8-1.255,8.964,8.964,0,0,0-2.936-1.118c-.39-.071-.493-.013-.509.384C67.743,80.871,67.753,81.183,67.753,81.5Z"/><path class="cls-6" d="M112.662,75.252l-.125.078a1.338,1.338,0,0,0-.007.178,12.334,12.334,0,0,1-.13,3.928.956.956,0,0,0,.311,1.078,11.287,11.287,0,0,0,1.473.861c.164.08.451.16.579-.157a2.48,2.48,0,0,0,.19-1.407,8.958,8.958,0,0,0-1.227-3.161C113.414,76.157,113.019,75.716,112.662,75.252Z"/><path class="cls-6" d="M72.244,96.8a1.472,1.472,0,0,0,.116.378c.374.613.754,1.222,1.153,1.818a1.2,1.2,0,0,0,.393.307,6.277,6.277,0,0,0,3.262.825.325.325,0,0,0,.238-.209c.023-.643.026-1.287.022-1.931,0-.916-.682-1.163-1.392-1.048a5.92,5.92,0,0,1-1.274.153C73.932,97.043,73.107,96.908,72.244,96.8Z"/><path class="cls-6" d="M105.207,84.469c-.042.242-.072.467-.121.687-.2.908-.422,1.813-.623,2.723a.634.634,0,0,0,.631.832c.535.027,1.073.03,1.608.007.5-.021.623-.115.642-.63.031-.835.015-1.675-.03-2.51a1.059,1.059,0,0,0-.658-.88A2.349,2.349,0,0,0,105.207,84.469Z"/><path class="cls-6" d="M105.906,80.005l.046.013a4.358,4.358,0,0,0,.083.64c.115.41.247.816.4,1.212.08.208.237.212.388.04a4.415,4.415,0,0,1,.676-.737c.729-.515,1.485-.993,2.245-1.463.192-.119.3-.216.22-.447-.218-.632-.434-1.264-.64-1.9-.086-.267-.271-.3-.506-.262a11.8,11.8,0,0,0-1.567.291c-.392.125-1.01-.042-1.007.758A9.739,9.739,0,0,1,105.906,80.005Z"/><path class="cls-6" d="M105.732,93.642l-.107.007c0,.431.01.862,0,1.293a1.284,1.284,0,0,0,.416.946c.409.439.957.361,1.47.417a.425.425,0,0,0,.521-.316c.094-.281.255-.539.373-.814a3.066,3.066,0,0,0,.361-1.549c-.063-.621-.08-1.246-.132-1.867-.027-.321-.077-.641-.136-.958a.4.4,0,0,0-.514-.328c-.759.208-1.507.456-2.251.714a.394.394,0,0,0-.188.318C105.589,92.219,105.665,92.93,105.732,93.642Z"/><path class="cls-6" d="M99.66,72.625c-.078.432.233.68.588.917.547.364,1.067.77,1.626,1.113a1.718,1.718,0,0,0,.825.25,8.481,8.481,0,0,0,1.169-.137.381.381,0,0,0,.394-.329,1.87,1.87,0,0,0-.618-1.774,4.359,4.359,0,0,0-3.352-.831C99.722,71.889,99.655,71.993,99.66,72.625Z"/><path class="cls-6" d="M83.425,99.537a1.779,1.779,0,0,0-.248-.612,5.558,5.558,0,0,0-.98-.83c-.42-.284-.67-.194-.874.272a9.292,9.292,0,0,0-.39,1.044.917.917,0,0,0-.024.549,13.42,13.42,0,0,1,.659,3.017,1.927,1.927,0,0,0,.785,1.436,3.138,3.138,0,0,0,.326.169,1.588,1.588,0,0,0,.113-.325c.129-1.023.243-2.049.375-3.072C83.234,100.663,83.329,100.145,83.425,99.537Z"/><path class="cls-6" d="M80.612,107.047a12.652,12.652,0,0,0-.892-3.1,3.779,3.779,0,0,1-.165-.433c-.173-.6-.33-1.2-.513-1.8-.046-.15-.129-.433-.354-.244a11.737,11.737,0,0,0-1.206,1.175c-.289.323-.1.719-.093,1.1a4,4,0,0,0,.846,2.422,7.85,7.85,0,0,0,1.648,1.918c.329.228.519.2.611-.194C80.553,107.637,80.569,107.372,80.612,107.047Z"/><path class="cls-6" d="M107.58,98.809a8.53,8.53,0,0,0,.2,1.317,6.2,6.2,0,0,0,1.508,2.771.537.537,0,0,0,.206.128,4.477,4.477,0,0,0,2.323-.229c.039-.01.087-.172.06-.234a3.734,3.734,0,0,0-.454-.927c-.3-.366-.717-.635-1.022-1a4.671,4.671,0,0,0-1.8-1.423C108.29,99.09,107.983,98.97,107.58,98.809Z"/><path class="cls-6" d="M104.107,78.341c.051-1.068-.023-1.176-.767-1.342-.232-.051-.477-.049-.709-.1s-.341.049-.465.227a6.3,6.3,0,0,0-.807,2.052c-.115.423-.033.613.382.763a12.59,12.59,0,0,0,1.621.449.432.432,0,0,0,.35-.235C103.885,79.462,104.02,78.759,104.107,78.341Z"/><path class="cls-6" d="M116.564,91.235a.557.557,0,0,0-.061.128c-.195,1.423-.4,2.844-.576,4.269a.918.918,0,0,0,1.21.983,2.128,2.128,0,0,1,.78-.035c.409.049.57-.02.65-.437a3.626,3.626,0,0,0-.329-2.509c-.286-.522-.553-1.055-.852-1.569C117.191,91.73,117.008,91.366,116.564,91.235Z"/><path class="cls-6" d="M106.189,74.766c.753.137,1.4.252,2.042.375.283.053.56.131.844.18a.312.312,0,0,0,.4-.264,1.66,1.66,0,0,0-.617-1.653,2.143,2.143,0,0,0-2.054-.194.454.454,0,0,0-.248.228C106.415,73.879,106.306,74.328,106.189,74.766Z"/><path class="cls-6" d="M121.769,113.477a10.958,10.958,0,0,0-.582-1.177c-.458-.7-.946-1.375-1.45-2.04a1.371,1.371,0,0,0-.527-.318c-.036-.016-.178.082-.187.141-.1.623-.2,1.247-.259,1.875-.046.519.08.683.583.765a3.911,3.911,0,0,1,1.646.674,1.218,1.218,0,0,0,.412.213C121.493,113.63,121.606,113.541,121.769,113.477Z"/><path class="cls-6" d="M115.68,83.928l-.075.06c.023.162.051.324.069.487.041.367.093.735.111,1.1.031.669.02,1.34.076,2.006a.622.622,0,0,0,.348.445,7.115,7.115,0,0,0,1.292.234c.083.01.238-.133.271-.234a2.273,2.273,0,0,0-.161-2.074,15.181,15.181,0,0,0-1.317-1.566A3.939,3.939,0,0,0,115.68,83.928Z"/><path class="cls-6" d="M83.9,108.12a1.783,1.783,0,0,0-.211-.679,1.042,1.042,0,0,0-.651-.239c-.084-.011-.26.173-.282.289-.172.93-.334,1.863-.463,2.8-.05.363-.246.794.244,1.05.038.02.024.135.063.157a1.75,1.75,0,0,0,.612.278c.1.01.289-.226.321-.375a11.273,11.273,0,0,0,.154-1.205C83.754,109.539,83.819,108.882,83.9,108.12Z"/><path class="cls-6" d="M116.54,114.869a3.327,3.327,0,0,1,.262.4c.206.428.417.857.59,1.3a1,1,0,0,0,1.365.43c.395-.239.442-.476.119-1.063a2.173,2.173,0,0,0-.147-.247,1.525,1.525,0,0,0-1.474-.824A5.6,5.6,0,0,1,116.54,114.869Z"/><path class="cls-6" d="M81.687,116.2l-.15.019a1.41,1.41,0,0,0-.054.253c-.033.992-.072,1.983-.083,2.975a2.39,2.39,0,0,0,.16.611c.144-.157.345-.291.422-.476a2.89,2.89,0,0,0,.409-1.34A11.122,11.122,0,0,0,81.687,116.2Z"/><path class="cls-6" d="M123.491,117.486a1.474,1.474,0,0,0-.757-1.375c-.292-.164-.518.043-.71.191-.073.056-.039.326.021.467.184.44.395.87.62,1.29.04.076.25.155.293.121C123.228,117.966,123.51,117.743,123.491,117.486Z"/><path class="cls-6" d="M80.526,112.459c-.058-.686-.093-1.271-.165-1.853a.582.582,0,0,0-.238-.4.669.669,0,0,0-.878.475,5.216,5.216,0,0,0,.034,1.28,1.294,1.294,0,0,0,.408.694,2.216,2.216,0,0,0,.7.275Z"/><path class="cls-6" d="M120.581,119.789c.192.821.371,1.6.565,2.382.017.069.128.114.281.24a9,9,0,0,0,.272-1.4C121.728,120.122,121.561,120.073,120.581,119.789Z"/><path class="cls-6" d="M49.848,21.434l-.319,2.512a2.263,2.263,0,0,0,.5-.419,3.806,3.806,0,0,0,.445-.933C50.684,21.888,50.514,21.621,49.848,21.434Z"/><path class="cls-6" d="M54.988,17.361c-.245.56-.505,1.115-.726,1.685a.55.55,0,0,0,.056.473c.184.206.923-.01.988-.28A2.414,2.414,0,0,0,54.988,17.361Z"/><path class="cls-6" d="M57.977,54.137a5.526,5.526,0,0,0,1.106,2.015,1.092,1.092,0,0,0,.968.367,4.207,4.207,0,0,0,.659-.172,2.2,2.2,0,0,0-.349-.658,3.269,3.269,0,0,1-1.1-1.672c-.054-.225-.2-.33-.452-.2S58.3,54.013,57.977,54.137Z"/><path class="cls-6" d="M81.763,123.369a4.869,4.869,0,0,0,.1.738c.04.146.154.336.362.13.581-.578.754-.978.391-1.678-.054-.105-.074-.228-.129-.332-.039-.075-.109-.182-.169-.185a.329.329,0,0,0-.215.146A1.613,1.613,0,0,0,81.763,123.369Z"/><path class="cls-6" d="M83.068,113.594a6.888,6.888,0,0,0-.224,1.2.869.869,0,0,0,.349.547.239.239,0,0,0,.392-.194A1.845,1.845,0,0,0,83.068,113.594Z"/><path class="cls-6" d="M54.481,13.594l.135,1.518.128.034c.194-.147.4-.28.58-.445.354-.328.268-.674-.194-.848C54.955,13.787,54.782,13.715,54.481,13.594Z"/><path class="cls-6" d="M47.963,21.268l-.115.018a3.011,3.011,0,0,0,.263,2.485c.087-.188.173-.363.249-.542.03-.072.076-.2.046-.226-.287-.263-.161-.62-.234-.93C48.108,21.8,48.033,21.536,47.963,21.268Z"/><path class="cls-6" d="M54.087,23.02a1.086,1.086,0,0,0-.767-.843.26.26,0,0,0-.39.17c-.2.49-.435.971-.589,1.476-.054.175.087.41.139.617a1.765,1.765,0,0,0,.525-.21,10.163,10.163,0,0,0,.877-.872A1.581,1.581,0,0,0,54.087,23.02Z"/><path class="cls-6" d="M50.289,25.984a9.811,9.811,0,0,0-.378.975,2.644,2.644,0,0,0-.023.631,1.474,1.474,0,0,0,1.4-.438c.135-.1.3-.262.314-.406a.493.493,0,0,0-.381-.572C50.907,26.108,50.6,26.047,50.289,25.984Z"/><path class="cls-6" d="M53.234,26.27l-.19,0a5.444,5.444,0,0,0-.295.988,1.067,1.067,0,0,0,.186.71,3.187,3.187,0,0,0,.723.562c.055.038.146.025.22.036a.965.965,0,0,0,0-.246c-.108-.418-.215-.836-.342-1.248C53.453,26.8,53.336,26.539,53.234,26.27Z"/><path class="cls-6" d="M99.224,101.85a5.674,5.674,0,0,0,.335,2.562.938.938,0,0,0,.628.634c.1.031.276.035.319-.023a.425.425,0,0,0,.045-.355q-.379-.941-.8-1.865C99.613,102.5,99.432,102.223,99.224,101.85Z"/><path class="cls-6" d="M105.528,108.308a3.315,3.315,0,0,1,.6.651c.42.8.8,1.625,1.17,2.452a.585.585,0,0,1-.039.491c-.065.093-.29.114-.439.1-.463-.043-.687-.374-.851-.767a9.86,9.86,0,0,0-.555-1.234c-.137-.23-.415-.372-.611-.571-.137-.138-.344-.309-.341-.461a.49.49,0,0,1,.537-.5,2.384,2.384,0,0,0,.451-.084Z"/><path class="cls-6" d="M68.63,77.26c.726-.376,1.425-.71,2.093-1.1.452-.261.849-.614,1.291-.893a15.319,15.319,0,0,1,1.344-.747.405.405,0,0,1,.336.1c.335.3.651.627.975.941a2.113,2.113,0,0,1,.438,2.517,1.286,1.286,0,0,1-.989.582c-.343.054-.689.1-1.033.149a2.915,2.915,0,0,1-1.484-.143A12.086,12.086,0,0,1,68.63,77.26Z"/><path class="cls-6" d="M61.061,50.563c0-.756-.02-1.513.007-2.268.018-.492.1-.513.529-.316.3.139.618.256.932.374a3.587,3.587,0,0,1,2.347,2.74,21.578,21.578,0,0,1,.332,2.922,5.582,5.582,0,0,1-.139,1.138c-.033.241-.149.272-.342.135a9.089,9.089,0,0,0-1.092-.742,8.884,8.884,0,0,0-1.495-.594,1.352,1.352,0,0,1-1.121-1.409c0-.66,0-1.32,0-1.98Z"/><path class="cls-6" d="M67.822,74.035a4,4,0,0,1,.2-.781c.468-.936.956-1.863,1.453-2.785.168-.313.4-.592.573-.9a1.3,1.3,0,0,1,1.683-.328,7.856,7.856,0,0,1,1.454.85.539.539,0,0,1,.2.826,5.561,5.561,0,0,1-2.422,2.463c-.7.35-1.381.758-2.093,1.088a1.326,1.326,0,0,1-.813.05C67.942,74.491,67.892,74.188,67.822,74.035Z"/><path class="cls-6" d="M67.753,81.5c0-.312-.01-.624,0-.935.016-.4.119-.455.509-.384A8.964,8.964,0,0,1,71.2,81.294a1.293,1.293,0,0,1,.8,1.255.916.916,0,0,1-.308.464.581.581,0,0,1-.341.095c-.894.072-1.788.156-2.683.2-.643.029-.936-.3-.922-.948.006-.288.031-.575.047-.862Z"/><path class="cls-6" d="M49.848,21.434c.666.187.836.454.631,1.16a3.806,3.806,0,0,1-.445.933,2.263,2.263,0,0,1-.5.419Z"/><path class="cls-6" d="M54.988,17.361a2.414,2.414,0,0,1,.318,1.878c-.065.27-.8.486-.988.28a.55.55,0,0,1-.056-.473C54.483,18.476,54.743,17.921,54.988,17.361Z"/><path class="cls-6" d="M57.977,54.137c.323-.124.585-.2.828-.324s.4-.021.452.2a3.269,3.269,0,0,0,1.1,1.672,2.2,2.2,0,0,1,.349.658,4.207,4.207,0,0,1-.659.172,1.092,1.092,0,0,1-.968-.367A5.526,5.526,0,0,1,57.977,54.137Z"/><path class="cls-6" d="M54.481,13.594c.3.121.474.193.649.259.462.174.548.52.194.848-.178.165-.386.3-.58.445l-.128-.034Z"/><path class="cls-6" d="M47.963,21.268c.07.268.145.535.209.8.073.31-.053.667.234.93.03.027-.016.154-.046.226-.076.179-.162.354-.249.542a3.011,3.011,0,0,1-.263-2.485Z"/><path class="cls-6" d="M54.087,23.02a1.581,1.581,0,0,1-.205.338,10.163,10.163,0,0,1-.877.872,1.765,1.765,0,0,1-.525.21c-.052-.207-.193-.442-.139-.617.154-.5.387-.986.589-1.476a.26.26,0,0,1,.39-.17A1.086,1.086,0,0,1,54.087,23.02Z"/><path class="cls-6" d="M50.289,25.984c.308.063.618.124.927.19a.493.493,0,0,1,.381.572c-.011.144-.179.3-.314.406a1.474,1.474,0,0,1-1.4.438,2.644,2.644,0,0,1,.023-.631A9.811,9.811,0,0,1,50.289,25.984Z"/><path class="cls-6" d="M53.234,26.27c.1.269.219.533.3.807.127.412.234.83.342,1.248a.965.965,0,0,1,0,.246c-.074-.011-.165,0-.22-.036a3.187,3.187,0,0,1-.723-.562,1.067,1.067,0,0,1-.186-.71,5.444,5.444,0,0,1,.295-.988Z"/><ellipse class="cls-2" cx="50.045" cy="16.317" rx="1.005" ry="1.171"/><path class="cls-2" d="M47.721,16.859a2.025,2.025,0,0,1,.336-1.352,8.117,8.117,0,0,1,.754-.984,2.526,2.526,0,0,1,1.026-.713,6.608,6.608,0,0,1,1.169-.3,6.608,6.608,0,0,0-1.09.466,2.247,2.247,0,0,0-.815.772c-.4.645-.859,1.408-.664,1.96Z"/><path class="cls-6" d="M71.6,53.759s-4.351-1.577-4.714.478.182,3.259.363,4.983.242.093,1.994-.753,1.994-1.479,3.867-1.193,2.242-.318,2.242-.318l-3.058-3.2Z"/><path class="cls-6" d="M70.66,60.461s-2.568.6-2.326,2.115.664,5.438.846,5.619.422-1.328,1.027-3.021.965-1.571,2.084-3.142,2.508-2.3,1.541-2.357A11.749,11.749,0,0,0,70.66,60.461Z"/><path class="cls-6" d="M65.675,72.211c.377,0,2.379,1.994,2.236,3.142a8.885,8.885,0,0,1-.859,3.095c-.492.954-1.294,2.018-1.509,1.86s0-1.264,0-1.264l-.556-6.128S65.3,72.211,65.675,72.211Z"/><path class="cls-6" d="M91.069,65.892s2.2,2.515,3.376,3.693.612,1.971,2.357,1.065.163-1.065,2.846-1.156,3.136.159,3.838-.249.453-.846.453-.846-2.47-.7-3.217-.876-2.968-.952-4.52-1.314S91.3,65.166,91.3,65.484A.42.42,0,0,1,91.069,65.892Z"/><path class="cls-6" d="M107.948,69.993a22.14,22.14,0,0,0,1.951,1.949c1.133,1,1.7.747,1.971.657a1.152,1.152,0,0,0,.485-.449,6.63,6.63,0,0,0-1.5-1.523,13.726,13.726,0,0,0-2.244-1.019C108.177,69.472,107.29,69.494,107.948,69.993Z"/><path class="cls-6" d="M100.994,98.136l2.124-1.178a6.661,6.661,0,0,1,.64,1.851,4.264,4.264,0,0,1,0,2.152c-.227.574-1.409-.075-1.611-.929s-1.752-1.058-1.752-1.058Z"/><path class="cls-6" d="M97.277,99.813a8.408,8.408,0,0,1,2.4,0c.363.227-.045.181,0,.77s-.951.624-1.5.675-2.361-.132-2-.879A.971.971,0,0,1,97.277,99.813Z"/><path class="cls-6" d="M101.492,102.532a5.573,5.573,0,0,0,1.328,1.722c.621.363.9,1.45,1.076,1.45s.732-.453.818-1.45-1.246-1.813-1.894-1.994A1.846,1.846,0,0,0,101.492,102.532Z"/><path class="cls-7" d="M70.5,148.678a7.151,7.151,0,0,1,1.99.216,13.812,13.812,0,0,1,2.943,1.591s-.451,2.533-.587,2.8a2.732,2.732,0,0,1-2.266,1.359,14.017,14.017,0,0,1-3.489-1.178S70.094,149.051,70.5,148.678Z"/><path class="cls-7" d="M79.038,150.135a18.364,18.364,0,0,1,2.876.481c.725.272,2.352.886,2.352.886a15.055,15.055,0,0,1,.367,3.152,4.386,4.386,0,0,1-3.14,1.083c-.984-.272-3.839-.422-3.7-1.367A24.178,24.178,0,0,1,79.038,150.135Z"/><path class="cls-7" d="M108.29,146.764a8.813,8.813,0,0,1,2.4-.272,17.246,17.246,0,0,1,3.671.906s-.013,2.2-1.049,3.184a4.382,4.382,0,0,1-3.483.94c-.816-.136-1.994.045-2.04-.725A38.794,38.794,0,0,1,108.29,146.764Z"/><path class="cls-7" d="M120.272,146.943s1.75.364,3.2.591a5.638,5.638,0,0,1,2.266.816s.634,4.078,0,4.305a7.276,7.276,0,0,1-3.988.3c-1.5-.44-3.173-.984-3.037-2.026A23.5,23.5,0,0,1,120.272,146.943Z"/></svg>