<svg id="word" xmlns="http://www.w3.org/2000/svg" viewBox="0 0 160 160"><defs><style>.cls-1{fill:#fde1d3;}.cls-1,.cls-10,.cls-11,.cls-12,.cls-14,.cls-16,.cls-17,.cls-18,.cls-19,.cls-2,.cls-20,.cls-21,.cls-3,.cls-4,.cls-5,.cls-6,.cls-7,.cls-8,.cls-9{stroke:#9c4c9c;stroke-width:0.5px;}.cls-2,.cls-20,.cls-6{fill:none;}.cls-3{fill:#26a7df;}.cls-10,.cls-11,.cls-12,.cls-19,.cls-3,.cls-5,.cls-6,.cls-7,.cls-9{stroke-miterlimit:10;}.cls-4,.cls-7{fill:#616264;}.cls-5{fill:#edbf84;}.cls-8{fill:#e0aba9;}.cls-13,.cls-14,.cls-9{fill:#fff;}.cls-10{fill:#a7aaac;}.cls-11{fill:#c7c8c9;}.cls-12{fill:#ea2127;}.cls-15{fill:#9c4c9c;}.cls-16{fill:#f8cade;}.cls-17{fill:#f180b2;}.cls-18{fill:#5a4a42;}.cls-19{fill:#d67d55;}.cls-20{stroke-linecap:round;}.cls-21{fill:#64534a;}</style></defs><path class="cls-1" d="M84.35,106.449,81.3,106.3a2.4,2.4,0,0,0-2.477-.863c-1.494.451-3.218,1.821-4.223,2.055s-3.639.241-4.566.751.242,1.152,1.629,1.648,3.358-.82,3.258.452-.843,1.54-.843,1.54a6.7,6.7,0,0,1-.989,1.753c-.365.244-4.165,3.726-4.574,4.219s-.472,1.483,1.224,1.335a11.067,11.067,0,0,0,6.069-2.116c2.7-1.8,3.825-3.311,4.3-4.5s.786-1.51,1.718-1.7a20.223,20.223,0,0,1,3.224-.074S85.468,107.016,84.35,106.449Z"/><path class="cls-2" d="M77,111.97c-.636.661-.335,1.538-.971,2.2a9.554,9.554,0,0,1-3.793,2.81,8.573,8.573,0,0,0-1.723.551,1.373,1.373,0,0,0-.749,1.512"/><path class="cls-2" d="M75.728,114.478s-3.243,2.364-4.2,2.231a1.818,1.818,0,0,0-2.2,1.247c-.225.815.146,1.027.146,1.027"/><path class="cls-2" d="M74.427,114.03a27.071,27.071,0,0,1-2.184,1.891,10.141,10.141,0,0,1-1.508.791"/><path class="cls-2" d="M79.305,108.834a9.558,9.558,0,0,1-1.6.97,4.884,4.884,0,0,1-2.418.015"/><path class="cls-3" d="M92.886,104.688s5.3-.914,5.588-1.434-.1-1.411,1.035-.663,1.865-.37,2.237-2.658,1.281-6.926,1.522-8.31c2.473-14.208,7.773-16.858,7.773-16.858l5.41,25.844s-3.559,10.638-9.247,13.343-12.17.905-14.631-.408-7.452.819-8.042-.976a4.681,4.681,0,0,1-.411-2.353l-.472-3.8A37.046,37.046,0,0,1,92.886,104.688Z"/><polygon class="cls-4" points="132.668 67.195 135.569 70.208 137.296 73.453 127.13 82.939 114.749 75.401 118.733 72.379 122.907 68.923 124.724 68.726 129.421 67.939 132.668 67.195"/><path class="cls-5" d="M142.782,39.481a10.2,10.2,0,0,1,.381,5.136c-.246,1.374-.712,2.956.132,4.045a3.806,3.806,0,0,0,2.147,1.117,6.061,6.061,0,0,1-3.744.29,6.435,6.435,0,0,0,4.368,3.632,1.9,1.9,0,0,1-1.827.143l-2.121-.576a.689.689,0,0,1-.379-.2c-.091-.116-.081-.326.053-.381a7.2,7.2,0,0,0,2.15,4.3,3.359,3.359,0,0,1-3.039-2.153,7.125,7.125,0,0,0,.248,3.975,18.679,18.679,0,0,0,1.762,3.6c-.849-1.078-1.81-2.062-2.611-3.18a7.528,7.528,0,0,1-1.537-3.8c.108,2.318.193,4.753-.8,6.832l-.514-3.31c-.165,2.1-1.819,3.7-3.359,5.073.713-1.492,1.59-2.9,2.247-4.416a9.043,9.043,0,0,0,.85-4.846c-1.1.985-1.494,2.56-2.379,3.75a10.3,10.3,0,0,1-4.2,2.865,17.289,17.289,0,0,0,5.315-8.2"/><path class="cls-1" d="M133.131,60.91s-.349,4.962,0,6.285.815,2.531.815,2.531a77.51,77.51,0,0,1-7.924.835,15.2,15.2,0,0,0-4.072.493v-7Z"/><path class="cls-1" d="M110.536,39.052s.466,4.71.583,7.729-.7,8.453.815,10.869,7.105,9.419,8.5,9.54,6.755-1.932,10.249-3.382,6.406-3.139,7.221-6.279.583-14.612.583-15.337,3.61-10.385-1.165-12.076-10.133-6.159-17.936-4.106S110.207,35.317,110.536,39.052Z"/><path class="cls-5" d="M133.364,30.357a16.515,16.515,0,0,1-6.522,3.261c-3.96.966-6.522.483-8.153,1.208s3.145-1.57,3.145-1.57-2.563.886-4.426,1.711a14.8,14.8,0,0,0-3.611,2.515l.816-3.562s-1.514,3.2-2.213,4.408a27.855,27.855,0,0,0-1.469,5.31v5.8a22.6,22.6,0,0,1-1.559-6.763c-.466-4.468-.714-5.843-1.9-8.211-2.105-4.207,4.17-11.536,10.226-13.106s12.986-2.594,15.665-.782,2.679,3.019,2.679,3.019,5.59-1.812,7.92,4.347.116,9.54-1.049,12.559-3.117,2.9-3.028,4.831-1.164,4.347-2.1,5.8a10.408,10.408,0,0,1-3.028,2.657,4.5,4.5,0,0,0,1.863-3.623c0-2.415-.349.725-1.514,1.329s.35-1.449.466-4.348,0-5.8,0-5.8l-1.514,4.991a42.488,42.488,0,0,0,.582-6.8V33.86s-1.514,2.656-1.98,3.26,1.514-5.072,1.514-5.072a9.726,9.726,0,0,1-3.144,3.556c-2.213,1.516-5.241-.537-5.241-.537s5.1.484,5.59-1.57A5.851,5.851,0,0,1,133.364,30.357Z"/><path class="cls-1" d="M140.073,43.854s2.283-.724,2.268,1.34c-.011,1.469-.8,1.691-.805,2.657s.233,2.584-1.058,3.671a1.232,1.232,0,0,1-2.024-.226"/><path class="cls-6" d="M118.427,43.34s.146,5.615-.67,7.064-1.747,2.415,0,2.777a15.385,15.385,0,0,1,2.33.6"/><path class="cls-7" d="M124.28,69.484s.349,1.449,3.668.483a18.364,18.364,0,0,0,6-3.26l1.98,3.985a34.418,34.418,0,0,1-2.795,3.985,8.6,8.6,0,0,1-3.028,2.415,7.025,7.025,0,0,0-1.281-2.415,40.374,40.374,0,0,1-2.8-4.116l-4.072,6.531-1.863-5.8c-.117-.363,1.863-4.1,1.863-4.1S123.711,68.892,124.28,69.484Z"/><path class="cls-3" d="M103.453,130.771c-.091-3.779,5.673-52,6.683-54.283,2.2-4.972,8.961-3.985,8.961-3.985a11.588,11.588,0,0,0,1.38,3.716C121.526,77.91,123,80.605,128,79.585s5.36-2.613,6.641-3.942a8.163,8.163,0,0,0,1.77-3.14l.277-1.307s1.851,2.424,4.136,2.032c7.745-1.328,9.22,25.646,9.012,30.355s.976,19.356-2.911,27.2"/><path class="cls-8" d="M125.651,55.584a15.526,15.526,0,0,1-3.641.354c-1.552-.183-2.682-.463-3.583.142s-1.66,1.091-1.66,1.091a10.369,10.369,0,0,0,1.66,3.148c.837.752,2.782,1.791,3.992,1.113a3.867,3.867,0,0,0,2.068-2.894A11.128,11.128,0,0,1,125.651,55.584Z"/><path class="cls-9" d="M117.944,58.046a15.107,15.107,0,0,0,2.138.2,15.288,15.288,0,0,0,2.661-.672,7.507,7.507,0,0,0,2.908-1.986,44.254,44.254,0,0,0-6.554.295,5.969,5.969,0,0,0-2.33,1.292Z"/><path class="cls-6" d="M111.629,43.34a2.576,2.576,0,0,0,.7-.575,4.848,4.848,0,0,1,1.448-.817,5,5,0,0,1,1.332-.42,1.7,1.7,0,0,1,1.318.34"/><path class="cls-6" d="M121.564,41.512a6.845,6.845,0,0,1,1.065-.63,2.4,2.4,0,0,1,1.251-.219,4.172,4.172,0,0,1,2.262.53c.262.174.489.4.752.57a1.155,1.155,0,0,0,.883.214"/><ellipse class="cls-10" cx="91.159" cy="76.609" rx="3.785" ry="3.985" transform="translate(-21.585 38.298) rotate(-21.275)"/><path class="cls-11" d="M89.524,80.119c-.274-1.471.125-3.241,3.4-4.716.7-.312,1.144.088,1.9.2l-.626-2.129a15.542,15.542,0,0,0-3.563,1.387C88.361,76.4,87.061,79.231,87.5,79.1Z"/><path class="cls-10" d="M96.694,82.026s-2.166-3.542-2.941-3.553c-1.879-.027-1.148,1.849-1.148,1.849l1.942,3.232Z"/><polygon class="cls-12" points="101.524 85.833 98.561 79.685 91.019 83.621 94.026 88.581 101.524 85.833"/><path class="cls-1" d="M109.976,94.423s-5.368-6.593-5.652-7-1.832-2.138-3.352-1.546-7.454,2.156-7.814,3.042c-.527,1.3.244,1.493,1.613,1.575,1.176.071,5.383-2.355,5.383-2.355s-5.012,2.681-3.53,4.226c.952.99,4.832-.881,4.832-.881s-3.678,1.6-3.327,2.5a2.106,2.106,0,0,0,1.492,1.1l2.636-1.545s-2.82,1.875-2.2,2.67a2.714,2.714,0,0,0,1.829.843l2.224-.866s.151-.577.718.239a4.12,4.12,0,0,0,1.851,1.223l1.305.14.419,2.04s2.129-.311,2.713-1.057a11.08,11.08,0,0,0,1.067-1.754Z"/><path class="cls-13" d="M93.745,82.817l.39.92.831-.353.188.441-.832.353.732,1.726c.169.4.376.572.7.435a1.366,1.366,0,0,0,.321-.182l.211.426a1.571,1.571,0,0,1-.482.3.876.876,0,0,1-.731.021,1.281,1.281,0,0,1-.578-.737l-.74-1.746-.5.211-.187-.442.495-.21-.326-.766Z"/><path class="cls-13" d="M95.907,82.985l1.39,1.531a9,9,0,0,1,.606.711l.02-.008c-.039-.3-.06-.6-.078-.935L97.7,82.223l.61-.259.1,3.731-.554.236-2.574-2.682Z"/><path class="cls-14" d="M116.109,46.982s.289,3.081-1.817,3.594-2.058-1.579-2.2-2.25c-.265-1.208,1.1-3.618,2.356-3.264A2.365,2.365,0,0,1,116.109,46.982Z"/><path class="cls-15" d="M114.784,47.951s.178,1.9-1.119,2.214-1.268-.973-1.359-1.386c-.163-.744.678-2.229,1.452-2.011A1.456,1.456,0,0,1,114.784,47.951Z"/><path class="cls-14" d="M126.479,46.293s.893,2.962-1.069,3.883-2.33-1.141-2.607-1.769c-.5-1.132.361-3.764,1.664-3.667A2.365,2.365,0,0,1,126.479,46.293Z"/><path class="cls-15" d="M125.372,47.5s.551,1.826-.659,2.393-1.435-.7-1.606-1.09c-.307-.7.223-2.319,1.025-2.259A1.457,1.457,0,0,1,125.372,47.5Z"/><path class="cls-3" d="M143.619,73.986s-2.806-1.715-3.9.935-3.429,14.5-3.273,18.082-.156,7.482-1.247,8.729-1.715,2.65-3.43,2.182a51.687,51.687,0,0,1-6.39-2.182c-1.715-.78-1.092.623-2.962-1.247s-11.4-6.467-11.4-6.467.352.532-1.059,2.1a13.987,13.987,0,0,1-3.947,2.7s2.38,3.381,4.562,6.031,13.406,8.417,18.394,11.067,10.911,1.559,13.717-1.247,7.794-12.781,7.794-16.678S149.231,77.571,143.619,73.986Z"/><path class="cls-16" d="M54.376,72.28l8.181,1.7a43.783,43.783,0,0,0-4.6,6.647c-1.7,3.239-1.023,1.7-2.045,7.841s-4.773,10.908-4.432,19.771a116.125,116.125,0,0,0,2.843,19.218l-13.069-.3s-1.534-22.157-1.534-22.839,6.477-14.488,7.5-15.851S54.376,72.28,54.376,72.28Z"/><polygon class="cls-17" points="28.469 119.151 40.994 117.173 45.683 127.333 25.401 127.162 28.469 119.151"/><path class="cls-1" d="M19.873,109.769l-2.806,9.509a15.163,15.163,0,0,1-3.585-5.456c-1.559-3.741-1.715-9.664-1.715-9.664l7.482,5.923"/><path class="cls-1" d="M67.257,93.025,71.8,88.181l1.06-1.363A2.987,2.987,0,0,1,72.1,85.38a23.267,23.267,0,0,1,.152-3.86,27.577,27.577,0,0,0,.227-4.088c0-.53.908-1.287,1.362-.606a15.124,15.124,0,0,1,.984,3.1s3.482-4.466,4.391-5.6,3.255-3.1,3.633-2.346-.606,2.2-.606,2.2l-2.573,3.861s4.087-6.132,4.39-5.6a4.083,4.083,0,0,1-.227,2.8c-.378.757-3.406,4.542-2.574,4.542s4.466-4.164,5.072-3.861-.3,1.59-.454,1.817-3.634,4.163-2.8,4.239,4.315-1.666,4.769-1.514.454.984-.454,1.438-4.012,2.649-4.012,2.649A19.278,19.278,0,0,1,81.563,87.8c-.605.606-4.087,1.363-4.087,1.363s-1.59,5.828-1.666,7.191a32.9,32.9,0,0,1-2.119,7.418c-.53.757-1.783,4.5-2.691,3.969s-3.982-3.181-4.209-5.3A86.967,86.967,0,0,1,67.257,93.025Z"/><path class="cls-18" d="M57.785,77.223a30.228,30.228,0,0,1,3.068,6.136c1.022,3.068,1.874,6.647,2.727,6.647a12.811,12.811,0,0,1,2.556.511s.853.341.853.852,1.7-1.363,1.7-1.363-3.238,6.988-1.193,11.419,3.068,5.625,4.6,4.6a2.673,2.673,0,0,0,1.392-2.337s-.37,6.087-3.438,4.894-10.226-6.136-11.419-8.522-5.625-6.818-5.625-6.818L56.08,79.1Z"/><path class="cls-2" d="M74.739,80.883c.475-.045.817.481.86.956a13.05,13.05,0,0,0,.01,1.427"/><path class="cls-2" d="M77.236,80.075a3.936,3.936,0,0,1,2.975.994,6.946,6.946,0,0,1,1.805,2.641"/><path class="cls-1" d="M55.739,71.768s-3.068,2.9-2.215,6.648,1.193,6.647,1.193,6.647-3.921,7.329-5.966,6.306-4.261-5.283-4.261-5.283l1.249-6.9,1.99-11Z"/><path class="cls-1" d="M70.454,51.031a41.858,41.858,0,0,0-1.25,7.954c0,3.068.467,6.042-1.01,8.542s-2.967,5.311-7.716,6.235c-3.584.7-6.727.222-9.227-1.6S41.706,68.3,41.479,59.894s-.8-19.771,8.749-19.885,16.249-1.7,19.09,1.932S70.454,51.031,70.454,51.031Z"/><path class="cls-19" d="M70.532,36.118a12.786,12.786,0,0,0-7.293-4.744c-4.943-1.193-9.715-1.875-13.465-.512S38.7,37.169,38.013,39.384s-4.6,1.534-4.772,9.034S36.82,61.2,38.525,62.394a72.508,72.508,0,0,0,6.756,3.574s-3.97-7.137-3.118-9.352a7.943,7.943,0,0,0,.452-4.108,7.436,7.436,0,0,0,1.364,3.75,12.1,12.1,0,0,0,4.261,3.409S43.808,54.9,44.49,52s1.364-4.772,3.239-4.09,4.772,1.022,8.863-.682a30.815,30.815,0,0,0,6.988-4.091s1.193,6.818,4.09,8.693,2.727,3.749,2.557,5.283-.682,6.307-.682,6.307a5.061,5.061,0,0,1,3.239-3.75A8.551,8.551,0,0,0,78.17,53.5C80.87,43.206,76.668,38.5,70.532,36.118Z"/><path class="cls-14" d="M49.944,87.62c3.078.236,4.261-4.773,4.261-4.773l-.681-4.431s4.09,9.715,3.579,12.1-4.432,6.988-5.625,6.988-4.772,3.58-6.306,5.114-4.894,3.5-4.724,7.93,2.3,10.6,2.3,10.6l-20.075.049s8.352-29.487,10.4-32.9,6.136-9.374,6.136-9.374L45,75.007l2.728,2.045s-.341,3.409-.341,5.454S47.729,87.449,49.944,87.62Z"/><path class="cls-20" d="M66.575,52.565c-.563-.241-1.183.145-1.668.519a8.39,8.39,0,0,0-2.931,3.347c-.766,1.966-.079,4.159.005,6.267a2.314,2.314,0,0,1-2.528-.173"/><path class="cls-14" d="M57.363,54.084s.289,3.081-1.817,3.595-2.058-1.58-2.2-2.25c-.265-1.208,1.1-3.619,2.356-3.265A2.365,2.365,0,0,1,57.363,54.084Z"/><path class="cls-15" d="M57.285,54.118s.178,1.9-1.119,2.214-1.268-.973-1.359-1.386c-.163-.744.678-2.229,1.452-2.011A1.456,1.456,0,0,1,57.285,54.118Z"/><path class="cls-14" d="M68.59,56.512s.894,2.963-1.069,3.883-2.33-1.141-2.606-1.768c-.5-1.132.361-3.765,1.663-3.667A2.364,2.364,0,0,1,68.59,56.512Z"/><path class="cls-15" d="M68.73,56.633s.551,1.825-.658,2.393-1.436-.7-1.607-1.09c-.307-.7.223-2.32,1.025-2.259A1.455,1.455,0,0,1,68.73,56.633Z"/><path class="cls-18" d="M39.718,70.746l.964-5.869A22.069,22.069,0,0,1,48.866,66.2c3.749,1.534,3.805,2.328,3.805,2.328s-3.749,11.761-5.283,13.976S38.013,98.7,35.8,103.13s-4.091,5.624-5.625,11.931a45.99,45.99,0,0,0-1.193,12.1l-16.044-.285s4.624-11.134,7.181-17.1S28.809,86.6,31.366,83.7,39.718,70.746,39.718,70.746Z"/><path class="cls-18" d="M15.174,96.994s10.738-17.215,13.3-20.283,3.393-6.069,6.988-6.136c4.68-.087,6.238,3.031,6.238,3.031s-1.768,8.837-2.961,11.223a52.3,52.3,0,0,1-8.05,10.29c-2.045,1.7-5.283,9.034-5.283,9.034a15.678,15.678,0,0,1-2.387,2.556c-.511.171-.17,1.875-.852,2.727s-2.556,2.557-3.068,2.557-3.409-.682-3.409-.682-3.068-2.557-3.579-2.9-.17-4.432.682-5.966S15.174,96.994,15.174,96.994Z"/><path class="cls-20" d="M54.631,49.076c.749.008,1.479-.245,2.228-.273a3.826,3.826,0,0,1,3.557,2.225"/><path class="cls-19" d="M70.3,35.962c.164,2.508-1.261,5.777-2.751,7.8a10.87,10.87,0,0,1-6.156,4.082,19.792,19.792,0,0,1-4.477.4c-1.556.011-3.114-.008-4.665-.135-2.448-.2-4.915-.666-7.339-.272a10.523,10.523,0,0,0-4.932,2.218,3.506,3.506,0,0,1,2.115-3.194A11.548,11.548,0,0,1,46.047,46a62.9,62.9,0,0,0,10.114-1.944,14.691,14.691,0,0,0,2.829-1.027"/><path class="cls-19" d="M67.4,47.585c1.21,1.594,2.886,2.817,3.941,4.519a7.779,7.779,0,0,1,.711,6.588c-.384,1.086-1.008,2.07-1.471,3.125a6.077,6.077,0,0,0-.464,3.356c.335,2.2,3.453,3.445,4,2.354-.761.265-2.264-.943-2.494-1.715a4.969,4.969,0,0,1,.311-2.728c.6-1.59,1.38-2.057,2.132-3.583a11.7,11.7,0,0,0,1.417-4.861,5.352,5.352,0,0,0-2-4.48"/><path class="cls-19" d="M43.332,50.614s-.935,4.6.7,7.482,5.455,5.222,5.455,5.222a6.494,6.494,0,0,1-5.222-.234C40.76,61.058,39.9,57.835,39.9,54.355a8.642,8.642,0,0,1,2.1-4.988"/><path class="cls-2" d="M56.288,63.816a5.032,5.032,0,0,0,2.93,2.473,4.716,4.716,0,0,0,3.677-.477"/><path class="cls-21" d="M13.482,99.949s3.429,4.676,6.391,5.3,5.3-.312,4.832.779-3.215,2.608-2.543,3.408.361,2.671-.575,2.671-.466-.384-2.493-.114-3.586-.2-5.768-1.756-4.988-4.209-3.273-6.547A22.306,22.306,0,0,1,13.482,99.949Z"/></svg>